<svg xmlns="http://www.w3.org/2000/svg" viewBox="0 0 512 512"><path d="M200.533 145.067c7.057 0 12.8-5.743 12.8-12.8s-5.743-12.8-12.8-12.8-12.8 5.743-12.8 12.8 5.743 12.8 12.8 12.8zm110.934 0c7.057 0 12.8-5.743 12.8-12.8s-5.743-12.8-12.8-12.8-12.8 5.743-12.8 12.8 5.743 12.8 12.8 12.8zm116.958 231.219c3.319-20.198.222-36.591-9.293-48.794-15.667-20.062-42.53-20.292-43.665-20.292-4.702 0-8.491 3.797-8.516 8.499-.017 4.693 3.78 8.533 8.482 8.567.205 0 19.866.324 30.328 13.833 6.75 8.713 8.533 21.453 5.393 37.854-34.756 4.83-44.22 45.585-44.22 67.78 0 4.71 3.806 8.525 8.516 8.525h.017c4.702 0 8.516-3.806 8.533-8.508.009-2.099.555-51.217 34.133-51.217 29.312 0 42.667 22.118 42.667 42.667 0 28.774-13.355 59.733-42.667 59.733H384c-4.719 0-8.533 3.823-8.533 8.533S379.281 512 384 512h34.133c41.045 0 59.733-39.808 59.733-76.8.001-26.957-16.972-54.127-49.441-58.914zm-78.575 65.118c-8.141-7.552-20.352-10.505-33.911-8.516.495-16.632 2.21-48.964 8.073-72.414a8.536 8.536 0 0 0-6.212-10.351c-4.574-1.178-9.207 1.638-10.342 6.204-7.168 28.663-8.491 67.985-8.73 82.099l-12.407 6.212c-4.216 2.108-5.931 7.228-3.814 11.443a8.518 8.518 0 0 0 7.637 4.719c1.28 0 2.586-.29 3.806-.896l16.401-8.201c11.656-3.772 22.323-2.944 27.913 2.219 7.33 6.793 5.854 20.284 3.328 30.404-1.468 5.845-5.402 10.607-8.789 10.607h-42.667c-14.114 0-25.6-11.486-25.6-25.6v-68.267a8.53 8.53 0 0 0-8.533-8.533 8.53 8.53 0 0 0-8.533 8.533v68.267c0 14.114-11.486 25.6-25.6 25.6H179.2c-3.593 0-7.799-4.83-8.653-9.941-2.944-17.638-1.681-29.824 3.567-34.304 4.531-3.866 13.824-3.499 27.554 1.024l16.384 8.192a8.554 8.554 0 0 0 3.806.896 8.517 8.517 0 0 0 7.637-4.719c2.116-4.215.401-9.335-3.814-11.443l-12.407-6.212c-.239-14.114-1.562-53.436-8.73-82.099-1.143-4.565-5.777-7.373-10.342-6.204a8.535 8.535 0 0 0-6.212 10.351c5.803 23.211 7.535 55.177 8.064 71.945-11.162-2.415-23.689-2.679-33.024 5.291-10.411 8.9-13.457 25.284-9.31 50.099C155.699 499.703 165.777 512 179.2 512h42.667c13.943 0 26.342-6.724 34.133-17.092C263.791 505.276 276.19 512 290.133 512H332.8c13.372 0 22.511-12.194 25.344-23.526 6.605-26.445-.862-40.192-8.294-47.07zM136.567 324.267a8.529 8.529 0 0 0 8.499-8.533 8.53 8.53 0 0 0-8.533-8.533c-1.135 0-27.998.23-43.665 20.292-9.515 12.203-12.612 28.595-9.293 48.794-32.469 4.787-49.442 31.957-49.442 58.914 0 36.992 18.688 76.8 59.733 76.8H128c4.719 0 8.533-3.823 8.533-8.533s-3.814-8.533-8.533-8.533H93.867c-29.312 0-42.667-30.959-42.667-59.733 0-20.548 13.355-42.667 42.667-42.667 33.579 0 34.125 49.118 34.133 51.217.017 4.702 3.831 8.508 8.533 8.508h.017c4.71 0 8.516-3.814 8.516-8.525 0-22.195-9.463-62.95-44.22-67.78-3.14-16.401-1.357-29.141 5.393-37.854 10.437-13.476 30.03-13.826 30.328-13.834zM256 290.133c40.832 0 68.267-48.538 68.267-93.867 0-21.495-28.612-24.533-45.551-25.242-3.081-4.386-9.438-8.892-22.716-8.892s-19.635 4.506-22.716 8.892c-16.939.708-45.551 3.746-45.551 25.242 0 45.33 27.435 93.867 68.267 93.867zm0-110.933c4.855 0 7.228.819 8.243 1.34-1.263 6.989-4.719 15.727-8.243 15.727-3.533 0-6.955-8.644-8.243-15.727 1.024-.529 3.396-1.34 8.243-1.34zm-23.987 9.02c1.988 7.791 6.366 18.756 15.454 23.151v10.496c0 7.603 0 11.793-12.348 17.971-4.215 2.108-5.931 7.228-3.814 11.443a8.527 8.527 0 0 0 11.443 3.823c5.837-2.918 10.112-5.948 13.252-9.071 3.14 3.123 7.415 6.153 13.252 9.071a8.554 8.554 0 0 0 3.806.896 8.517 8.517 0 0 0 7.637-4.719c2.116-4.215.401-9.335-3.814-11.443-12.348-6.178-12.348-10.368-12.348-17.971v-10.496c9.105-4.386 13.474-15.36 15.462-23.151 25.737 1.562 27.204 6.912 27.204 8.047 0 40.909-23.927 76.8-51.2 76.8s-51.2-35.891-51.2-76.8c.001-1.135 1.477-6.477 27.214-8.047z"/><path d="M256 341.333c77.662 0 153.6-73.293 153.6-128 0-49.69-11.776-94.797-33.425-129.007 19.098-4.233 33.425-21.308 33.425-41.66C409.6 19.14 390.46 0 366.933 0c-21.001 0-38.4 15.283-41.916 35.285C305.971 23.45 282.206 17.067 256 17.067c-26.598 0-50.04 6.204-69.035 18.057C183.39 15.198 166.007 0 145.067 0 121.54 0 102.4 19.14 102.4 42.667c0 20.352 14.328 37.427 33.425 41.66-21.649 34.21-33.425 79.317-33.425 129.007 0 54.707 75.938 127.999 153.6 127.999zM159.309 71.578a8.553 8.553 0 0 0-8.977-3.866c-16.154 3.328-30.865-9.199-30.865-25.045 0-14.114 11.486-25.6 25.6-25.6s25.6 11.486 25.6 25.6v5.188c-.572.546-1.212 1.024-1.766 1.579a8.523 8.523 0 0 0 0 12.066 8.525 8.525 0 0 0 12.066 0C203.58 38.886 234.257 34.133 256 34.133c30.754 0 57.404 9.762 75.017 27.486a8.514 8.514 0 0 0 6.05 2.517 8.505 8.505 0 0 0 6.016-2.483 8.524 8.524 0 0 0 .034-12.066c-.555-.572-1.212-1.05-1.784-1.604v-5.316c0-14.114 11.486-25.6 25.6-25.6s25.6 11.486 25.6 25.6c0 15.838-14.652 28.407-30.857 25.045-3.465-.674-7.091.819-8.977 3.866a8.508 8.508 0 0 0 .538 9.754c25.335 32.384 39.296 79.258 39.296 132.002 0 53.564-80.137 110.933-136.533 110.933s-136.533-57.37-136.533-110.933c0-52.745 13.961-99.627 39.305-131.994a8.525 8.525 0 0 0 .537-9.762z"/></svg>