<svg xmlns="http://www.w3.org/2000/svg" viewBox="0 0 512.001 512.001"><path d="M310.204 249.387c25.916-14.916 28.407-48.913 28.501-50.355a8.522 8.522 0 0 0-4.745-8.201c-.597-.299-14.805-7.202-31.812-7.202-9.728 0-18.526 2.227-26.163 6.622-4.497 2.586-8.252 5.777-11.452 9.242v-31.607c5.427 1.485 12.16 2.782 19.507 2.782 9.728 0 18.526-2.227 26.163-6.613 25.916-14.916 28.407-48.913 28.501-50.355a8.522 8.522 0 0 0-4.745-8.201c-.597-.299-14.805-7.194-31.812-7.194-9.728 0-18.526 2.219-26.163 6.613-4.497 2.586-8.252 5.777-11.452 9.242V98.108c7.962-6.417 25.6-23.287 25.6-46.908 0-29.824-28.203-48.964-29.397-49.766a8.541 8.541 0 0 0-9.472 0c-1.195.802-29.397 19.942-29.397 49.766 0 23.62 17.638 40.491 25.6 46.908v16c-3.174-3.447-6.895-6.613-11.349-9.19-7.612-4.386-16.384-6.613-26.086-6.613-16.956 0-31.121 6.903-31.71 7.194a8.536 8.536 0 0 0-4.736 8.201c.094 1.442 2.577 35.439 28.399 50.347 7.612 4.395 16.384 6.622 26.086 6.622h.009c7.296 0 13.986-1.289 19.388-2.773v31.548c-3.174-3.448-6.895-6.613-11.349-9.19-7.612-4.386-16.384-6.622-26.086-6.622-16.956 0-31.121 6.912-31.71 7.202a8.536 8.536 0 0 0-4.736 8.201c.094 1.442 2.577 35.439 28.399 50.347 7.612 4.395 16.384 6.622 26.086 6.622h.009c7.296 0 13.986-1.289 19.388-2.773v124.22l-26.001-15.616c8.695-8.329 19.857-22.588 20.215-41.139.563-29.901-27.29-49.545-28.484-50.364a8.54 8.54 0 0 0-9.472-.162c-1.22.785-29.781 19.524-30.362 49.399-.094 5.188.7 10.052 2.031 14.583l-27.068-16.273c8.687-8.328 19.849-22.579 20.207-41.139.572-29.892-27.29-49.536-28.476-50.364a8.572 8.572 0 0 0-9.481-.154c-1.212.785-29.773 19.524-30.362 49.391-.102 5.197.7 10.052 2.031 14.583l-13.764-8.269c-1.399-10.129-6.776-33.946-27.017-46.106-7.723-4.642-16.597-6.997-26.377-6.997-16.393 0-29.858 6.75-30.421 7.04a8.527 8.527 0 0 0-4.668 7.672c.009 1.434.555 35.328 26.308 50.799 7.825 4.702 16.939 7.091 27.085 7.091 11.136 0 20.898-2.91 26.283-4.881l13.781 8.277c-4.89 1.007-9.523 2.62-13.764 4.966-26.086 14.455-29.158 48.41-29.269 49.843a8.518 8.518 0 0 0 4.591 8.286c.614.316 15.232 7.757 32.657 7.757h.009c9.267 0 17.715-2.074 25.105-6.178 16.188-8.969 23.501-25.429 26.761-36.983l27.051 16.265c-4.89 1.007-9.515 2.611-13.756 4.966-26.086 14.447-29.158 48.401-29.278 49.843a8.525 8.525 0 0 0 4.591 8.277c.614.316 15.241 7.757 32.674 7.757 9.267 0 17.715-2.074 25.114-6.17 16.171-8.969 23.492-25.429 26.743-36.983l34.782 20.89V503.47a8.536 8.536 0 0 0 8.533 8.533 8.536 8.536 0 0 0 8.533-8.533V253.218c5.427 1.485 12.16 2.782 19.507 2.782 9.729 0 18.527-2.227 26.164-6.613zm-25.711-129.681c5.018-2.876 10.957-4.344 17.655-4.344 7.305 0 14.08 1.732 18.603 3.234-1.724 8.405-6.485 23.424-19.063 30.66-5.009 2.884-10.948 4.344-17.647 4.344-7.305 0-14.08-1.724-18.603-3.234 1.724-8.405 6.485-23.424 19.055-30.66zM228.071 153.6c-6.665 0-12.57-1.459-17.553-4.335-12.535-7.236-17.271-22.281-18.987-30.677 4.506-1.502 11.238-3.226 18.5-3.226 6.665 0 12.57 1.459 17.553 4.344 12.535 7.236 17.271 22.272 18.987 30.669-4.506 1.502-11.238 3.225-18.5 3.225zm0 85.334c-6.665 0-12.57-1.459-17.553-4.335-12.535-7.236-17.271-22.281-18.987-30.669 4.506-1.51 11.238-3.226 18.5-3.226 6.665 0 12.57 1.451 17.553 4.335 12.535 7.236 17.271 22.272 18.987 30.669-4.506 1.502-11.238 3.226-18.5 3.226zM53.393 284.357c-7.006 0-13.167-1.57-18.295-4.659-12.416-7.458-16.29-22.528-17.493-30.703 4.215-1.442 10.573-3.106 17.485-3.106 6.639 0 12.552 1.536 17.587 4.565 12.407 7.45 16.879 22.571 18.441 30.993-4.361 1.374-10.787 2.91-17.725 2.91zm51.124 70.212c-4.83 2.68-10.496 4.036-16.836 4.036-7.552 0-14.575-1.911-19.217-3.55 1.894-8.38 6.921-23.364 19.507-30.345 4.83-2.671 10.496-4.028 16.836-4.028 7.552 0 14.583 1.911 19.226 3.55-1.861 8.372-6.862 23.322-19.516 30.337zm29.226-46.507c-6.315-5.811-16.734-17.621-16.461-32.119.282-14.541 11.196-26.052 17.732-31.65 6.315 5.811 16.734 17.613 16.452 32.119-.272 14.532-11.178 26.035-17.723 31.65zm43.921 90.462c-4.83 2.671-10.496 4.028-16.836 4.028-7.552 0-14.575-1.903-19.217-3.541 1.886-8.38 6.912-23.373 19.499-30.345 4.83-2.679 10.496-4.036 16.836-4.036 7.552 0 14.575 1.911 19.209 3.55-1.878 8.371-6.913 23.364-19.491 30.344zm29.235-46.532c-6.306-5.828-16.742-17.681-16.469-32.102.282-14.532 11.17-26.035 17.715-31.642 6.298 5.828 16.742 17.69 16.469 32.111-.281 14.532-11.169 26.026-17.715 31.633zM256 82.978c-6.417-5.692-17.067-17.306-17.067-31.778S249.592 25.105 256 19.422c6.417 5.692 17.067 17.306 17.067 31.778S262.417 77.287 256 82.978zm28.493 122.061c5.018-2.876 10.957-4.335 17.655-4.335 7.305 0 14.08 1.724 18.603 3.226-1.724 8.405-6.485 23.424-19.063 30.66-5.009 2.884-10.948 4.344-17.647 4.344-7.305 0-14.08-1.724-18.603-3.234 1.724-8.406 6.485-23.425 19.055-30.661z"/><path d="M507.273 235.563c-.555-.282-13.841-6.801-30.08-6.801-9.89 0-18.859 2.372-26.658 7.057-20.241 12.169-25.626 35.985-27.025 46.106l-13.713 8.235c1.323-4.489 2.116-9.31 2.031-14.455-.521-29.816-29.047-48.469-30.259-49.246a8.558 8.558 0 0 0-9.464.171c-1.186.819-29.047 20.446-28.535 50.27.324 18.5 11.426 32.683 20.096 40.986l-27.008 16.23c1.314-4.497 2.116-9.318 2.022-14.464-.521-29.815-29.039-48.461-30.259-49.246a8.573 8.573 0 0 0-9.463.171c-1.186.819-29.047 20.454-28.535 50.278.427 24.081 19.106 40.866 26.923 46.839 1.621 9.719 7.714 34.176 28.809 45.918 7.432 4.13 15.932 6.229 25.25 6.229 17.408 0 31.983-7.415 32.597-7.731a8.553 8.553 0 0 0 4.591-8.294c-.128-1.442-3.26-35.464-29.363-49.988-4.284-2.381-8.951-4.002-13.892-5.026l27.128-16.299c3.268 11.588 10.615 28.134 26.837 37.154 7.433 4.139 15.932 6.229 25.25 6.229 17.408 0 31.983-7.407 32.589-7.723a8.529 8.529 0 0 0 4.591-8.303c-.119-1.442-3.251-35.456-29.355-49.98-4.284-2.381-8.951-4.011-13.892-5.026l13.833-8.311c5.393 1.971 15.155 4.881 26.308 4.881 10.138 0 19.251-2.381 27.076-7.083 25.754-15.471 26.291-49.63 26.3-51.081a8.527 8.527 0 0 0-4.73-7.697zM305.118 352c-6.511-5.589-17.374-17.067-17.63-31.454-.247-14.455 10.189-26.257 16.503-32.051 6.502 5.598 17.374 17.075 17.621 31.454.257 14.456-10.171 26.249-16.494 32.051zm45.807 16.743c12.715 7.066 17.749 22.11 19.627 30.507-4.634 1.63-11.622 3.524-19.149 3.524-6.383 0-12.083-1.374-16.947-4.079-12.706-7.074-17.749-22.11-19.627-30.507 4.634-1.63 11.639-3.524 19.149-3.524 6.383 0 12.083 1.365 16.947 4.079zm27.341-60.689c-6.511-5.598-17.374-17.067-17.63-31.454-.256-14.464 10.189-26.257 16.495-32.06 6.511 5.598 17.382 17.075 17.63 31.462.256 14.456-10.172 26.249-16.495 32.052zm45.807 16.734c12.706 7.074 17.741 22.11 19.627 30.507-4.634 1.63-11.64 3.524-19.149 3.524-6.383 0-12.092-1.365-16.947-4.079-12.715-7.066-17.749-22.11-19.627-30.498 4.625-1.638 11.622-3.533 19.149-3.533 6.383 0 12.083 1.373 16.947 4.079zm52.838-45.082c-5.137 3.089-11.29 4.651-18.287 4.651-6.946 0-13.38-1.536-17.741-2.91 1.57-8.431 6.042-23.543 18.449-31.002 5.103-3.063 11.11-4.617 17.86-4.617 6.801 0 13.039 1.57 17.203 2.953-1.202 8.269-5.076 23.475-17.484 30.925z"/></svg>