<svg xmlns="http://www.w3.org/2000/svg" viewBox="0 0 512.002 512.002"><path d="M113.042 104.243C103.365 88.311 96.385 76.8 85.334 76.8c-31.104 0-51.2 36.847-51.2 93.867 0 4.71 3.814 8.533 8.533 8.533s8.533-3.823 8.533-8.533c0-45.218 14.029-76.8 33.357-76.928 2.944 1.314 9.276 11.742 13.892 19.354 8.994 14.805 20.975 34.44 38.34 46.532 1.084 12.297 6.955 45.517 38.596 61.338a8.492 8.492 0 0 0 3.814.905c1.903 0 3.789-.64 5.342-1.877 2.603-2.082 3.738-5.495 2.935-8.73-5.53-22.084-3.285-36.514-1.664-42.752 10.812-3.106 19.234-9.156 27.401-15.13 11.853-8.661 23.049-16.845 42.786-16.845 19.729 0 30.933 8.183 42.786 16.845 8.166 5.973 16.58 12.023 27.392 15.13 1.621 6.212 3.874 20.634-1.656 42.752a8.526 8.526 0 0 0 2.935 8.73 8.569 8.569 0 0 0 5.342 1.877 8.492 8.492 0 0 0 3.814-.905c31.667-15.829 37.521-49.067 38.596-61.338 17.365-12.092 29.346-31.727 38.34-46.532 4.617-7.612 10.948-18.039 13.116-19.226 20.105 0 34.133 31.582 34.133 76.8 0 4.71 3.814 8.533 8.533 8.533s8.533-3.823 8.533-8.533c0-57.02-20.105-93.867-51.2-93.867-11.051 0-18.031 11.511-27.708 27.443-13.355 21.99-29.969 49.357-57.626 49.357-13.338 0-21.786-6.178-32.478-13.995-3.405-2.5-6.963-5.069-10.778-7.509-1.783-10.786-7.1-36.019-19.311-51.345 10.035-4.07 18.534-10.223 26.385-15.966 9.958-7.287 18.56-13.585 27.648-13.585a8.53 8.53 0 0 0 8.533-8.533 8.53 8.53 0 0 0-8.533-8.533c-14.669 0-26.394 8.576-37.726 16.879-12.126 8.875-23.578 17.254-39.074 17.254s-26.948-8.38-39.074-17.254c-11.332-8.303-23.057-16.879-37.726-16.879a8.53 8.53 0 0 0-8.533 8.533 8.53 8.53 0 0 0 8.533 8.533c9.088 0 17.69 6.298 27.648 13.585 7.851 5.743 16.35 11.895 26.385 15.966-12.211 15.326-17.527 40.559-19.311 51.345-3.814 2.441-7.373 5.009-10.778 7.509-10.692 7.817-19.14 13.995-32.478 13.995-27.65 0-44.273-27.366-57.619-49.357zm243.422 64.324c-1.766 7.33-5.154 16.478-11.682 24.482.7-9.361.119-16.828-.811-22.537 4.386-.195 8.559-.861 12.493-1.945zM256.001 85.333c9.668 0 18.031 19.089 22.682 37.521-6.554-2.057-13.952-3.388-22.682-3.388-8.73 0-16.128 1.331-22.682 3.388 4.651-18.432 13.013-37.521 22.682-37.521zm-87.97 85.18c-.93 5.726-1.51 13.218-.802 22.605-6.605-8.03-9.992-17.212-11.75-24.567a56.558 56.558 0 0 0 12.552 1.962zm121.941 172.493a9.214 9.214 0 0 0 .162-1.672c0-4.002-2.458-17.067-34.133-17.067-31.676 0-34.133 13.065-34.133 17.067 0 .563.06 1.118.162 1.672 8.081 40.38.154 115.354-16.623 157.286a8.552 8.552 0 0 0 1.715 9.028 8.553 8.553 0 0 0 8.909 2.244c1.024-.341 22.315-7.706 39.97-33.852 17.655 26.146 38.938 33.51 39.97 33.852a8.62 8.62 0 0 0 2.697.435c.051 0 .119-.008.162 0a8.53 8.53 0 0 0 8.533-8.533 8.439 8.439 0 0 0-1.34-4.599c-16.384-42.197-24.038-115.934-16.051-155.861zm-26.342 113.98c-2.893-5.786-12.365-5.786-15.258 0-5.99 11.972-13.03 20.437-19.396 26.317 12.075-43.844 16.845-102.519 10.513-139.742 2.065-.896 6.758-2.227 16.512-2.227 9.754 0 14.447 1.331 16.512 2.227-6.332 37.222-1.562 95.889 10.505 139.742-6.367-5.88-13.398-14.345-19.388-26.317z"/><path d="M324.267 89.6c0 11.759 9.566 21.333 21.333 21.333 11.767 0 21.333-9.574 21.333-21.333 0-11.759-9.566-21.333-21.333-21.333-11.767 0-21.333 9.574-21.333 21.333zm21.334-4.267a4.274 4.274 0 0 1 4.267 4.267c0 2.355-1.92 4.267-4.267 4.267s-4.267-1.911-4.267-4.267a4.274 4.274 0 0 1 4.267-4.267zm-150.4 258.398a8.479 8.479 0 0 0 5.359 1.903 8.508 8.508 0 0 0 6.639-3.166c2.97-3.661 2.406-9.037-1.263-11.998C149.24 284.578 93.867 190.635 93.867 162.133c0-20.267 5.837-27.819 6.221-28.288 3.149-3.345 3.081-8.61-.188-11.878a8.525 8.525 0 0 0-12.066 0C85.991 123.81 76.8 134.409 76.8 162.133c.001 35.866 59.657 134.059 118.401 181.598z"/><path d="M341.334 0c-28.664 0-50.133 13.935-65.809 24.107-7.595 4.932-15.445 10.027-19.524 10.027-4.079 0-11.93-5.094-19.524-10.027C220.801 13.935 199.331 0 170.667 0 88.594 0 .001 55.458.001 145.067c0 59.204 88.098 172.194 146.654 232.576.58.828 1.263 1.562 2.099 2.15 20.685 21.137 37.444 35.447 44.817 37.905a8.505 8.505 0 0 0 10.786-5.402c1.493-4.471-.922-9.301-5.393-10.795-5.359-1.784-18.628-13.32-35.652-30.729 3.951-9.6 10.385-12.894 10.871-13.133 4.241-1.911 6.178-6.895 4.309-11.179-1.886-4.318-6.895-6.306-11.221-4.42-.503.213-9.549 4.326-16.401 15.667a933.977 933.977 0 0 1-21.717-24.218c3.823-7.671 8.695-9.276 9.216-9.421 4.497-.99 7.415-5.385 6.545-9.933a8.519 8.519 0 0 0-9.984-6.784c-1.246.23-10.052 2.313-17.399 12.484a1030.155 1030.155 0 0 1-14.285-17.502c3.499-9.993 9.463-12.339 10.018-12.527 4.446-1.254 7.083-5.837 5.939-10.334-1.178-4.565-5.811-7.287-10.394-6.144-4.48 1.161-11.674 5.41-17.22 14.165A885.314 885.314 0 0 1 77.5 268.592c3.627-10.564 8.969-12.587 9.566-12.774a8.524 8.524 0 0 0 6.682-9.754c-.776-4.651-5.163-7.774-9.813-7.014-1.323.222-10.47 2.133-17.707 13.551a598.301 598.301 0 0 1-14.694-22.443c3.32-13.628 10.496-17.075 11.11-17.34 4.335-1.57 6.656-6.315 5.18-10.718a8.52 8.52 0 0 0-10.786-5.402c-1.297.435-9.822 3.772-16.418 15.002-14.293-25.651-23.552-49.135-23.552-66.637 0-79.061 79.735-128 153.6-128 23.612 0 41.847 11.844 56.508 21.359 10.999 7.134 19.686 12.774 28.826 12.774 9.139 0 17.826-5.641 28.826-12.774 14.66-9.515 32.896-21.359 56.508-21.359 73.865 0 153.6 48.939 153.6 128 0 17.502-9.259 40.986-23.552 66.637-6.596-11.23-15.121-14.566-16.418-15.002-4.326-1.442-8.969.862-10.564 5.197-1.596 4.326.657 9.182 4.932 10.914.324.128 7.731 3.43 11.136 17.348a598.301 598.301 0 0 1-14.694 22.443c-7.236-11.418-16.384-13.329-17.707-13.551-4.659-.768-9.045 2.364-9.813 7.014-.776 4.642 2.364 9.045 7.014 9.813.051.017 5.564 2.108 9.233 12.723a902.006 902.006 0 0 1-14.089 18.893c-5.547-8.755-12.74-13.005-17.22-14.165-4.471-1.135-8.9 1.502-10.18 5.931-1.289 4.42 1.314 9.105 5.692 10.539.29.094 6.468 2.304 10.044 12.544a1025.934 1025.934 0 0 1-14.276 17.493c-7.347-10.172-16.154-12.254-17.408-12.484-4.523-.853-8.738 2.048-9.754 6.519-1.024 4.489 1.852 9.003 6.289 10.189.247.06 5.308 1.502 9.25 9.421a923.583 923.583 0 0 1-21.717 24.226c-6.852-11.341-15.898-15.454-16.401-15.667-4.284-1.86-9.156.085-11.085 4.318-1.937 4.232-.043 9.267 4.156 11.273.316.154 6.886 3.413 10.889 13.15-17.024 17.408-30.293 28.937-35.652 30.72a8.53 8.53 0 0 0-5.393 10.795c1.186 3.575 4.514 5.837 8.09 5.837a8.55 8.55 0 0 0 2.697-.435c7.373-2.458 24.132-16.768 44.817-37.905.836-.589 1.519-1.323 2.091-2.15 58.564-60.382 146.662-173.372 146.662-232.576C512.001 55.458 423.408 0 341.334 0z"/><path d="M311.459 345.617a8.56 8.56 0 0 0 5.129-1.715c57.259-43.119 118.613-143.573 118.613-181.768 0-27.725-9.19-38.323-11.034-40.166-3.243-3.234-8.363-3.234-11.742-.094-3.362 3.123-3.533 8.465-.529 11.947.06.068 6.238 7.45 6.238 28.314 0 30.089-56.354 126.379-111.821 168.132-3.763 2.833-4.514 8.183-1.681 11.947a8.523 8.523 0 0 0 6.827 3.403zM187.734 89.6c0-11.759-9.566-21.333-21.333-21.333s-21.333 9.574-21.333 21.333c0 11.759 9.566 21.333 21.333 21.333s21.333-9.574 21.333-21.333zm-25.6 0a4.274 4.274 0 0 1 4.267-4.267 4.274 4.274 0 0 1 4.267 4.267 4.274 4.274 0 0 1-4.267 4.267 4.274 4.274 0 0 1-4.267-4.267z"/><path d="M322.595 289.963c4.591.922 9.114-2.065 10.035-6.69.93-4.617-2.074-9.114-6.69-10.035-1.809-.367-41.489-7.953-69.939 14.08-28.45-22.024-68.13-14.438-69.939-14.08-4.617.913-7.603 5.402-6.682 10.018.905 4.608 5.359 7.646 10.01 6.716.375-.077 38.596-7.253 60.578 14.729a8.51 8.51 0 0 0 6.033 2.5 8.509 8.509 0 0 0 6.033-2.5c21.973-21.975 60.203-14.815 60.561-14.738z"/></svg>