<svg xmlns="http://www.w3.org/2000/svg" viewBox="0 0 512 512"><path d="M349.679 445.261c-.666-15.445-3.755-52.693-18.313-74.53-2.62-3.925-7.919-4.984-11.836-2.364-3.917 2.611-4.975 7.91-2.364 11.836 11.503 17.246 14.541 48.572 15.343 63.59-4.565.162-8.243 3.866-8.243 8.474a8.536 8.536 0 0 0 8.533 8.533h8.533c4.659 0 8.388 3.661 8.499 8.337 0 .213.017.427.034.649v25.148h-34.133v-25.6c0-.247-.017-.606-.051-.956-.393-10.539-7.313-19.447-16.742-22.98.589-9.583 2.389-28.348 8.004-50.79a8.534 8.534 0 0 0-6.204-10.351c-4.548-1.152-9.207 1.638-10.351 6.204-5.845 23.39-7.799 42.752-8.448 53.274h-8.875c-2.995 0-5.845.614-8.533 1.579V409.6a8.536 8.536 0 0 0-8.533-8.533 8.536 8.536 0 0 0-8.533 8.533v35.712c-2.688-.964-5.538-1.579-8.533-1.579h-8.875c-.648-10.522-2.603-29.884-8.448-53.274-1.143-4.565-5.769-7.356-10.351-6.204-4.565 1.143-7.347 5.769-6.204 10.351 5.606 22.443 7.415 41.207 8.004 50.79-9.429 3.533-16.35 12.442-16.742 22.98-.034.35-.051.708-.051.956v25.6h-34.133v-25.148c.017-.222.034-.435.034-.649.111-4.676 3.84-8.337 8.499-8.337h8.533a8.536 8.536 0 0 0 8.533-8.533c0-4.608-3.669-8.311-8.243-8.474.802-15.019 3.84-46.345 15.343-63.59 2.611-3.925 1.553-9.225-2.364-11.836-3.925-2.62-9.224-1.562-11.836 2.364-14.558 21.837-17.647 59.085-18.313 74.53-9.651 3.405-16.802 12.416-17.203 23.117-.034.35-.051.708-.051.956v34.133a8.536 8.536 0 0 0 8.533 8.533h204.8a8.536 8.536 0 0 0 8.533-8.533v-34.133c0-.247-.017-.606-.051-.956-.399-10.699-7.55-19.71-17.201-23.115zm-102.212 49.672h-34.133v-25.148c.017-.222.034-.435.034-.649.111-4.676 3.84-8.337 8.499-8.337h17.067c4.659 0 8.388 3.661 8.499 8.337 0 .213.017.427.034.649v25.148zm51.2 0h-34.133v-25.148c.017-.222.034-.435.034-.649.111-4.676 3.84-8.337 8.499-8.337h17.067c4.659 0 8.388 3.661 8.499 8.337 0 .213.017.427.034.649v25.148zm-89.6-281.6c-7.057 0-12.8 5.743-12.8 12.8s5.743 12.8 12.8 12.8 12.8-5.743 12.8-12.8-5.743-12.8-12.8-12.8z"/><path d="M469.333 0a8.536 8.536 0 0 0-8.533 8.533c0 .469-.35 47.164-31.112 69.939-4.753 3.516-9.916 6.767-15.232 9.865 14.737-34.517 3.703-64.273 3.106-65.818-1.698-4.378-6.588-6.537-10.999-4.873-4.395 1.681-6.588 6.605-4.932 11 .58 1.544 13.696 37.828-15.599 73.779-10.112 4.267-20.309 7.987-30.012 11.128 15.343-26.155 11.051-53.743 10.795-55.245-.785-4.634-5.18-7.774-9.805-6.98-4.642.768-7.782 5.163-7.023 9.805.247 1.536 5.692 37.641-23.637 60.937-12.86 3.243-22.391 5.111-25.907 5.76-12.262-4.932-26.948-8.363-44.442-8.363-17.425 0-32.06 3.396-44.288 8.303-4.13-.751-14.643-2.799-28.484-6.315-27.913-23.194-21.547-58.547-21.257-60.075.905-4.617-2.082-9.096-6.699-10.018-4.642-.913-9.122 2.082-10.035 6.699-.307 1.493-5.427 28.962 9.173 55.108-9.609-3.106-19.652-6.75-29.551-10.94-28.57-35.755-15.189-71.791-14.524-73.481a8.546 8.546 0 0 0-4.762-11.076c-4.403-1.741-9.353.384-11.102 4.753-.614 1.553-12.049 31.343 2.355 65.911-5.248-3.072-10.257-6.349-14.908-9.83C51.703 55.842 51.2 8.994 51.2 8.516 51.183 3.814 47.369.008 42.667.008h-.008a8.522 8.522 0 0 0-8.525 8.525c0 2.27.427 55.791 37.547 83.627 13.065 9.796 28.493 17.997 44.228 24.815v.009c26.701 11.58 54.204 19.115 72.738 23.407a108.778 108.778 0 0 0-4.557 3.456c-11.11-4.668-40.636-14.276-83.098-7.194a8.53 8.53 0 0 0-7.125 8.414c0 27.955 31.761 54.434 59.93 59.025 1.527 30.558 11.793 52.335 20.941 71.714 5.35 11.324 10.394 22.025 13.252 33.459.418 1.69.836 3.763 1.323 6.127C193.519 335.915 203.358 384 256 384c52.642 0 62.481-48.085 66.688-68.608.486-2.364.905-4.437 1.323-6.118 2.859-11.443 7.902-22.144 13.252-33.468 9.148-19.379 19.413-41.156 20.941-71.714 28.169-4.591 59.93-31.07 59.93-59.025a8.532 8.532 0 0 0-7.125-8.414c-42.283-7.049-71.902 2.466-83.174 7.134a98.914 98.914 0 0 0-4.446-3.362c28.996-6.81 80.742-21.786 116.454-48.23 37.589-27.844 38.025-81.391 38.025-83.661C477.867 3.823 474.044 0 469.333 0zM239.027 325.282c3.226-1.016 11.375-1.016 16.973-1.016 5.598 0 13.756 0 16.981 1.016-.905 5.675-8.687 16.051-16.981 16.051-8.277 0-16.06-10.351-16.973-16.051zm94.993-150.221a8.52 8.52 0 0 0 7.322 4.139 8.49 8.49 0 0 0 4.386-1.22 8.528 8.528 0 0 0 2.918-11.708c-.307-.512-2.637-4.224-7.023-9.293 11.486-3.584 31.693-7.74 58.274-4.668-5.734 18.21-31.351 35.422-50.031 35.422a8.536 8.536 0 0 0-8.533 8.533c0 30.916-9.916 51.934-19.507 72.26-5.709 12.109-11.102 23.543-14.37 36.608-.469 1.877-.956 4.19-1.493 6.827-4.975 24.32-12.817 50.057-41.429 54.298V357c15.061-4.804 25.6-21.359 25.6-32.734 0-17.067-18.927-17.067-34.133-17.067-15.206 0-34.133 0-34.133 17.067 0 11.375 10.539 27.93 25.6 32.734v9.259c-28.604-4.241-36.454-29.978-41.429-54.298-.538-2.637-1.024-4.949-1.493-6.835-3.268-13.056-8.661-24.491-14.37-36.599-9.591-20.326-19.507-41.344-19.507-72.26a8.536 8.536 0 0 0-8.533-8.533c-18.679 0-44.297-17.212-50.031-35.422 26.675-3.098 46.857 1.118 58.231 4.71-4.361 5.043-6.673 8.738-6.98 9.25a8.528 8.528 0 0 0 2.918 11.708 8.538 8.538 0 0 0 11.708-2.918c.239-.393 23.748-38.528 78.02-38.528 53.869-.001 77.071 36.974 78.018 38.527z"/><path d="M302.933 238.933c7.057 0 12.8-5.743 12.8-12.8s-5.743-12.8-12.8-12.8-12.8 5.743-12.8 12.8 5.743 12.8 12.8 12.8z"/></svg>