<svg xmlns="http://www.w3.org/2000/svg" viewBox="0 0 512 512"><path d="M394.718 411.529c17.365-22.093 23.415-54.767 23.415-70.195 0-4.71-3.814-8.533-8.533-8.533s-8.533 3.823-8.533 8.533c0 16.768-8.439 53.214-28.595 68.378-39.731 1.118-65.271 24.226-65.271 59.622v25.6c0 9.412 7.654 17.067 17.067 17.067h102.4c9.404 0 17.067-7.654 17.067-17.067v-25.6c-.002-30.294-18.724-51.576-49.017-57.805zm14.882 83.404V486.4a8.53 8.53 0 0 0-8.533-8.533 8.53 8.53 0 0 0-8.533 8.533v8.533H358.4V486.4c0-4.71-3.814-8.533-8.533-8.533s-8.533 3.823-8.533 8.533v8.533h-17.067v-25.6c0-38.511 35.806-42.667 51.2-42.667 15.394 0 51.2 4.156 51.2 42.667l.009 25.6H409.6zm-230.4-320c0-7.057-5.743-12.8-12.8-12.8s-12.8 5.743-12.8 12.8 5.743 12.8 12.8 12.8 12.8-5.743 12.8-12.8z"/><path d="M151.671 65.135c2.816-3.78 2.039-9.131-1.749-11.938-3.772-2.807-9.114-2.022-11.93 1.749-12.117 16.282-18.526 35.644-18.526 55.987v110.933c0 60.245 26.001 104.516 73.199 124.672a8.467 8.467 0 0 0 3.354.691 8.557 8.557 0 0 0 7.851-5.188c1.843-4.335-.171-9.344-4.506-11.204-40.516-17.297-62.831-55.996-62.831-108.971V110.933c0-16.648 5.231-32.486 15.138-45.798z"/><path d="M425.242 0c-29.329 0-66.347 9.079-85.419 26.505-12.655-6.263-26.462-9.438-41.156-9.438h-85.333c-14.677 0-28.467 3.157-41.088 9.395C154.829 10.641 120.021 0 83.908 0 36.855 0 0 37.487 0 85.333c0 45.15 9.207 139.938 34.577 216.03 2.278 6.861 7.637 22.903 25.156 22.903 27.87 0 54.801-17.749 55.936-18.5 3.925-2.611 4.984-7.91 2.364-11.836-2.611-3.917-7.91-4.992-11.836-2.364-.23.154-23.714 15.633-46.464 15.633-2.961 0-5.504-.828-8.977-11.23-24.713-74.163-33.69-166.605-33.69-210.637 0-38.281 29.355-68.267 66.842-68.267 34.048 0 68.446 10.889 80.017 25.336 2.637 3.311 7.322 4.164 10.999 2.014 11.546-6.827 24.457-10.283 38.409-10.283h85.333c13.952 0 26.897 3.473 38.485 10.325 3.635 2.159 8.312 1.314 10.974-1.98 11.529-14.251 45.406-25.412 77.116-25.412 37.777 0 69.692 31.266 69.692 68.267 0 44.032-8.977 136.474-33.698 210.637-3.465 10.402-5.999 11.23-8.969 11.23-22.622 0-46.242-15.488-46.472-15.633a8.522 8.522 0 0 0-11.827 2.381 8.522 8.522 0 0 0 2.364 11.819c1.135.751 28.066 18.5 55.936 18.5 17.545 0 22.886-16.051 25.156-22.903C502.793 225.271 512 130.483 512 85.333 512 38.281 473.088 0 425.242 0zM139.529 409.711c-20.156-15.164-28.595-51.61-28.595-68.378 0-4.71-3.814-8.533-8.533-8.533s-8.533 3.823-8.533 8.533c0 15.428 6.05 48.102 23.415 70.195-30.293 6.229-49.016 27.511-49.016 57.805v25.6c0 9.412 7.654 17.067 17.067 17.067h102.4c9.404 0 17.067-7.654 17.067-17.067v-25.6c-.001-35.396-25.541-58.504-65.272-59.622zm31.138 85.222V486.4c0-4.71-3.814-8.533-8.533-8.533s-8.533 3.823-8.533 8.533v8.533h-34.133V486.4c0-4.71-3.814-8.533-8.533-8.533s-8.533 3.823-8.533 8.533v8.533H85.333v-25.6c0-38.511 35.806-42.667 51.2-42.667 15.394 0 51.2 4.156 51.2 42.667l.009 25.6h-17.075z"/><path d="M358.4 174.933c0-7.057-5.743-12.8-12.8-12.8s-12.8 5.743-12.8 12.8 5.743 12.8 12.8 12.8 12.8-5.743 12.8-12.8z"/><path d="M315.631 347.375a8.466 8.466 0 0 0 3.328-.674c47.445-20.087 73.574-64.418 73.574-124.834V110.933c0-20.344-6.409-39.706-18.526-55.987-2.816-3.78-8.166-4.574-11.93-1.749-3.789 2.807-4.565 8.158-1.749 11.938 9.907 13.312 15.138 29.15 15.138 45.798v110.933c0 53.12-22.434 91.878-63.155 109.116-4.343 1.835-6.374 6.844-4.54 11.187 1.375 3.252 4.549 5.206 7.86 5.206zm-15.292-142.413c-4.625-.913-9.114 2.074-10.044 6.699-17.229 86.161-17.229 153.933-17.229 266.206h-34.133c0-112.273 0-180.045-17.237-266.206a8.49 8.49 0 0 0-10.035-6.699c-4.617.93-7.62 5.427-6.699 10.044 16.905 84.506 16.905 151.637 16.905 262.861 0 9.728 7.33 17.067 17.067 17.067h34.133c9.566 0 17.067-7.492 17.067-17.067 0-111.224 0-178.355 16.896-262.861.929-4.617-2.074-9.114-6.691-10.044z"/></svg>