<svg xmlns="http://www.w3.org/2000/svg" viewBox="0 0 512 512"><path d="M197.12 57.016a8.502 8.502 0 0 0 10.795-5.385c5.931-17.724 21.333-30.592 40.183-33.579 27.529-4.378 53.427 14.473 57.779 41.967a50.573 50.573 0 0 1-6.391 33.57c-2.398 4.062-1.058 9.293 2.995 11.691a8.436 8.436 0 0 0 4.335 1.195 8.523 8.523 0 0 0 7.347-4.19c7.979-13.474 11.017-29.431 8.559-44.928-2.816-17.826-12.416-33.485-27.017-44.092-14.6-10.598-32.435-14.898-50.278-12.074-25.165 3.994-45.739 21.239-53.692 45.022-1.501 4.472.914 9.301 5.385 10.803zm140.518 34.611c23.339 11.213 37.828 34.825 37.828 61.628 0 20.702-9.242 40.055-25.353 53.103-3.661 2.961-4.232 8.337-1.263 11.998a8.494 8.494 0 0 0 6.639 3.166 8.46 8.46 0 0 0 5.359-1.903c20.139-16.299 31.684-40.491 31.684-66.364 0-33.425-18.202-62.925-47.505-77.005a8.509 8.509 0 0 0-11.383 3.994 8.52 8.52 0 0 0 3.994 11.383zM216.653 86.03c4.651.794 9.071-2.287 9.882-6.921.819-4.642-2.278-9.071-6.921-9.89-22.468-3.968-45.09 1.058-63.761 14.131s-31.13 32.631-35.089 55.083c-1.604 9.105-1.801 18.167-.589 26.957a8.539 8.539 0 0 0 8.448 7.356c.393 0 .785-.026 1.186-.077 4.668-.649 7.927-4.958 7.279-9.634-.973-7.014-.811-14.293.486-21.641 6.537-37.069 42.01-61.901 79.079-55.364zm124.86-43.008c2.611.009 5.205.222 7.723.631 20.847 3.302 43.298 23.134 43.298 58.863a8.528 8.528 0 0 0 7.595 8.474c29.884 3.337 54.409 26.359 59.64 56.004 1.289 7.347 1.459 14.626.478 21.641-.648 4.676 2.611 8.986 7.279 9.634.401.051.794.077 1.186.077 4.19 0 7.851-3.089 8.44-7.356 1.229-8.789 1.024-17.852-.58-26.957-6.101-34.603-33.237-61.995-67.234-68.855-3.012-41.139-31.172-64.222-57.421-68.378a67.398 67.398 0 0 0-10.3-.845h-.051a8.538 8.538 0 0 0-8.533 8.491c-.028 4.71 3.778 8.55 8.48 8.576z"/><path d="M452.267 494.589h-76.8v-98.202c11.878 3.721 23.671 4.335 34.133 4.335 56.465 0 102.4-45.935 102.4-102.4 0-45.611-30.626-86.136-74.47-98.543-4.497-1.28-9.25 1.34-10.53 5.888-1.28 4.531 1.348 9.25 5.879 10.539 36.54 10.334 62.054 44.1 62.054 82.116 0 47.053-38.281 85.333-85.333 85.333-17.306 0-28.518-2.185-38.682-7.552a8.539 8.539 0 0 0-12.519 7.552v110.933h-25.6v-93.867a8.53 8.53 0 0 0-8.533-8.533 8.53 8.53 0 0 0-8.533 8.533v93.867h-25.6V369.302a102.711 102.711 0 0 0 34.133 5.82c56.465 0 102.4-45.935 102.4-102.4 0-23.885-8.081-47.01-22.767-65.126-2.953-3.652-8.32-4.224-11.998-1.254-3.661 2.97-4.224 8.346-1.254 12.006 12.22 15.078 18.953 34.389 18.953 54.374 0 47.053-38.281 85.333-85.333 85.333-32.205 0-61.338-17.835-76.023-46.541-2.133-4.181-7.27-5.871-11.477-3.703-4.198 2.142-5.854 7.287-3.712 11.486 9.225 18.031 23.236 32.444 40.013 42.129v133.163h-34.133V358.055a8.54 8.54 0 0 0-4.122-7.305 8.547 8.547 0 0 0-8.388-.247c-10.172 5.367-21.385 7.552-38.69 7.552-47.053 0-85.333-38.281-85.333-85.333 0-38.016 25.515-71.782 62.054-82.116 4.531-1.289 7.168-6.008 5.879-10.539-1.289-4.54-5.999-7.151-10.53-5.888-43.853 12.407-74.47 52.932-74.47 98.543 0 56.465 45.935 102.4 102.4 102.4 10.462 0 22.255-.614 34.133-4.335v123.802h-25.6v-93.867c0-4.71-3.823-8.533-8.533-8.533s-8.533 3.823-8.533 8.533v93.867h-25.6V383.655a8.54 8.54 0 0 0-4.122-7.305 8.564 8.564 0 0 0-8.388-.247c-10.172 5.367-21.385 7.552-38.69 7.552-47.053 0-85.333-38.281-85.333-85.333 0-38.016 25.515-71.782 62.046-82.116 4.54-1.289 7.177-6.007 5.888-10.539-1.289-4.54-5.982-7.134-10.53-5.888C30.618 212.186 0 252.711 0 298.322c0 56.465 45.935 102.4 102.4 102.4 10.462 0 22.255-.614 34.133-4.335v98.202H93.867a8.536 8.536 0 0 0-8.533 8.533 8.536 8.536 0 0 0 8.533 8.533h358.4a8.53 8.53 0 0 0 8.533-8.533 8.53 8.53 0 0 0-8.533-8.533zM43.29 198.345c.393 0 .785-.026 1.186-.077 4.668-.648 7.927-4.958 7.279-9.634-.973-7.014-.811-14.293.486-21.641 5.222-29.645 29.747-52.668 59.639-56.004a8.526 8.526 0 0 0 7.586-8.474c0-35.729 22.443-55.561 43.315-58.872 2.5-.401 5.094-.614 7.697-.623 4.719-.026 8.516-3.866 8.491-8.576-.026-4.702-3.849-8.491-8.533-8.491h-.051a68.341 68.341 0 0 0-10.291.836c-26.257 4.164-54.426 27.247-57.429 68.386-33.997 6.861-61.133 34.253-67.234 68.855-1.604 9.105-1.801 18.167-.589 26.957a8.538 8.538 0 0 0 8.448 7.358zm460.177 296.244H486.4a8.53 8.53 0 0 0-8.533 8.533 8.53 8.53 0 0 0 8.533 8.533h17.067a8.53 8.53 0 0 0 8.533-8.533 8.53 8.53 0 0 0-8.533-8.533zm-443.734 0h-51.2A8.536 8.536 0 0 0 0 503.122a8.536 8.536 0 0 0 8.533 8.533h51.2a8.536 8.536 0 0 0 8.533-8.533c.001-4.711-3.822-8.533-8.533-8.533z"/></svg>