<svg xmlns="http://www.w3.org/2000/svg" viewBox="0 0 512 512"><path d="M59.733 494.8h-51.2c-4.71 0-8.533 3.823-8.533 8.533s3.823 8.533 8.533 8.533h51.2c4.71 0 8.533-3.823 8.533-8.533s-3.822-8.533-8.533-8.533zm135.689-322.935a8.541 8.541 0 0 0-11.785 2.62l-54.306 85.333a8.557 8.557 0 0 0-.725 7.748 8.543 8.543 0 0 0 5.854 5.111c1.442.358 36.139 8.789 121.54 8.789 14.976 0 29.449-.265 43-.794 4.702-.179 8.371-4.147 8.192-8.849-.179-4.71-3.959-8.576-8.858-8.201-13.329.512-27.58.776-42.334.776-55.475 0-89.148-3.678-105.446-6.135l47.488-74.615a8.541 8.541 0 0 0-2.62-11.783zM503.467 494.8H486.4c-4.71 0-8.533 3.823-8.533 8.533s3.823 8.533 8.533 8.533h17.067c4.71 0 8.533-3.823 8.533-8.533s-3.823-8.533-8.533-8.533z"/><path d="M452.267 494.8H384v-60.126c66.62-3.541 119.219-16.358 121.506-16.922a8.514 8.514 0 0 0 5.939-5.265 8.521 8.521 0 0 0-.964-7.876l-70.349-101.623c20.787-2.227 30.703-4.574 31.198-4.693a8.523 8.523 0 0 0 5.914-5.094 8.55 8.55 0 0 0-.708-7.782L411.887 183.83c16.887-2.372 25.429-5.018 25.865-5.154a8.53 8.53 0 0 0 5.453-5.18 8.55 8.55 0 0 0-.768-7.484L357.103 29.477a8.539 8.539 0 0 0-7.211-4.011h-.026a8.527 8.527 0 0 0-7.202 3.959L320.99 63.559c-2.526 3.976-1.348 9.25 2.628 11.776 3.985 2.534 9.259 1.348 11.776-2.628l14.413-22.699 71.825 114.918c-5.956 1.143-14.31 2.466-25.079 3.541a8.507 8.507 0 0 0-6.827 4.762 8.516 8.516 0 0 0 .478 8.311l65.101 102.306c-7.108 1.075-17.451 2.389-31.181 3.507a8.541 8.541 0 0 0-7.023 4.855 8.56 8.56 0 0 0 .7 8.508l71.416 103.151c-20.412 4.216-64.145 12.109-114.099 14.14a8.527 8.527 0 0 0-8.183 8.525V494.8H332.8v-64c0-4.71-3.823-8.533-8.533-8.533s-8.533 3.823-8.533 8.533v64h-25.6v-85.931c86.118-2.961 121.037-16.435 122.641-17.075a8.536 8.536 0 0 0 4.992-5.47 8.496 8.496 0 0 0-1.152-7.313l-70.349-101.623c20.787-2.227 30.703-4.574 31.198-4.693a8.525 8.525 0 0 0 5.914-5.094 8.55 8.55 0 0 0-.708-7.782l-64.65-101.591c16.887-2.372 25.438-5.018 25.865-5.154a8.53 8.53 0 0 0 4.685-12.664L263.236 3.877c-3.123-4.992-11.349-4.992-14.473 0L163.43 140.411a8.535 8.535 0 0 0 4.539 12.621c1.093.366 27.607 8.968 88.031 8.968 6.127 0 11.904-.085 17.331-.256 4.71-.145 8.414-4.079 8.26-8.789-.145-4.719-4.079-8.619-8.789-8.269-5.265.162-10.863.247-16.802.247-36.045 0-59.392-3.191-71.791-5.564L256 24.502l71.765 114.825c-5.956 1.143-14.31 2.466-25.079 3.541a8.52 8.52 0 0 0-6.827 4.762 8.518 8.518 0 0 0 .478 8.312l65.101 102.306c-7.108 1.075-17.451 2.389-31.181 3.507a8.541 8.541 0 0 0-7.023 4.855 8.56 8.56 0 0 0 .7 8.508l71.979 103.97C377.438 383.875 333.611 392.4 256 392.4c-77.619 0-121.455-8.525-139.921-13.312l52.412-75.699c2.688-3.874 1.715-9.19-2.159-11.87a8.524 8.524 0 0 0-11.87 2.159l-59.076 85.333a8.53 8.53 0 0 0-1.161 7.313 8.57 8.57 0 0 0 5 5.47c1.604.64 36.523 14.114 122.641 17.075V494.8h-25.6v-64c0-4.71-3.823-8.533-8.533-8.533s-8.533 3.823-8.533 8.533v64h-34.133v-68.267a8.53 8.53 0 0 0-8.192-8.525c-49.886-2.031-93.67-9.924-114.091-14.14l71.415-103.151a8.563 8.563 0 0 0 .7-8.508 8.541 8.541 0 0 0-7.023-4.855c-13.73-1.118-24.064-2.432-31.181-3.507l65.101-102.306a8.516 8.516 0 0 0 .478-8.311 8.522 8.522 0 0 0-6.827-4.762c-10.769-1.075-19.132-2.398-25.079-3.541l71.825-114.918 14.413 22.699a8.521 8.521 0 0 0 11.776 2.628 8.532 8.532 0 0 0 2.628-11.776l-21.675-34.133c-1.57-2.475-4.642-3.831-7.228-3.959a8.538 8.538 0 0 0-7.211 4.011L69.564 166.011a8.55 8.55 0 0 0-.768 7.484 8.53 8.53 0 0 0 5.453 5.18c.427.136 8.977 2.782 25.865 5.154L35.465 285.418a8.55 8.55 0 0 0-.708 7.782 8.523 8.523 0 0 0 5.914 5.094c.495.12 10.411 2.466 31.198 4.693L1.519 404.611a8.515 8.515 0 0 0-.964 7.876 8.514 8.514 0 0 0 5.939 5.265c2.287.563 54.886 13.38 121.506 16.922V494.8H93.867c-4.71 0-8.533 3.823-8.533 8.533s3.823 8.533 8.533 8.533h358.4c4.71 0 8.533-3.823 8.533-8.533s-3.823-8.533-8.533-8.533zm-179.2 0h-34.133v-85.495c5.53.094 11.153.162 17.067.162s11.537-.068 17.067-.162V494.8z"/></svg>