<svg xmlns="http://www.w3.org/2000/svg" viewBox="0 0 512 512"><path d="M401.067 204.8c-14.114 0-25.6 11.486-25.6 25.6 0 4.48 1.178 8.892 3.405 12.757 2.347 4.079 7.561 5.487 11.657 3.14 4.079-2.355 5.487-7.569 3.132-11.657a8.543 8.543 0 0 1-1.126-4.241c0-4.702 3.823-8.533 8.533-8.533s8.533 3.831 8.533 8.533a8.485 8.485 0 0 1-1.143 4.284c-2.355 4.079-.947 9.301 3.132 11.656a8.542 8.542 0 0 0 11.657-3.14 25.694 25.694 0 0 0 3.422-12.8c-.002-14.113-11.488-25.599-25.602-25.599zM162.133 128c9.89 0 17.067-5.385 17.067-12.8s-7.177-12.8-17.067-12.8-17.067 5.385-17.067 12.8 7.177 12.8 17.067 12.8zm187.734 0c9.89 0 17.067-5.385 17.067-12.8s-7.177-12.8-17.067-12.8-17.067 5.385-17.067 12.8 7.177 12.8 17.067 12.8z"/><path d="M477.867 225.86v-3.994c0-50.116-16.58-97.988-47.044-136.704 26.291-2.125 47.044-24.201 47.044-51.029 0-9.412-7.654-17.067-17.067-17.067H341.47C314.658 5.845 285.798 0 256 0c-29.79 0-58.65 5.845-85.461 17.067H51.2c-9.412 0-17.067 7.654-17.067 17.067 0 26.641 20.446 48.589 46.473 50.987-30.089 38.426-46.473 86.315-46.473 136.747v3.994c-10.752 21.188-17.067 44.877-17.067 64.273 0 37.965 25.207 62.293 68.267 67.268V384a8.536 8.536 0 0 0 8.533 8.533h51.2a8.536 8.536 0 0 0 8.533-8.533v-27.11c13.824-.887 25.438-2.057 36.847-3.2 19.533-1.963 37.99-3.823 65.553-3.823s46.02 1.86 65.553 3.823c11.409 1.143 23.023 2.313 36.847 3.2V384a8.53 8.53 0 0 0 8.533 8.533h51.2a8.53 8.53 0 0 0 8.533-8.533v-26.598c43.059-4.975 68.267-29.303 68.267-67.268.001-19.397-6.313-43.085-17.065-64.274zM105.173 82.62a8.53 8.53 0 0 0 1.587-9.216 8.53 8.53 0 0 0-7.825-5.137H85.333c-18.825 0-34.133-15.309-34.133-34.133h86.485a225.814 225.814 0 0 0-14.822 10.231c-3.763 2.833-4.523 8.183-1.698 11.955 2.833 3.763 8.175 4.514 11.955 1.698C168.781 31.223 211.277 17.067 256 17.067c27.998 0 55.125 5.555 80.239 16.273.111.051.213.102.316.154a203.741 203.741 0 0 1 42.342 24.533 8.507 8.507 0 0 0 5.12 1.707 8.53 8.53 0 0 0 6.835-3.405c2.825-3.763 2.065-9.114-1.698-11.947a226.43 226.43 0 0 0-14.839-10.249H460.8c0 18.825-15.309 34.133-34.133 34.133h-14.251a8.52 8.52 0 0 0-7.825 5.137 8.512 8.512 0 0 0 1.596 9.225c29.67 31.761 47.949 71.919 53.026 114.927-13.807-16-30.788-26.888-49.613-26.888-31.01 0-55.432 6.656-79.044 13.099-23.569 6.434-45.833 12.501-74.556 12.501s-50.987-6.067-74.556-12.501c-23.612-6.443-48.034-13.099-79.044-13.099-18.842 0-35.849 10.914-49.655 26.948 4.974-43.315 23.048-83.499 52.428-114.995zm31.36 292.847H102.4V358.4c12.979 0 24.09-.256 34.133-.657v17.724zm273.067 0h-34.133v-17.724c10.044.401 21.146.657 34.133.657v17.067zm0-34.134c-40.38 0-63.744-2.347-86.34-4.625-19.977-2.005-38.835-3.908-67.26-3.908s-47.283 1.903-67.26 3.908c-22.596 2.278-45.961 4.625-86.34 4.625-25.498 0-68.267-6.647-68.267-51.2 0-38.579 31.906-102.4 68.267-102.4 28.723 0 50.987 6.067 74.556 12.501 23.612 6.443 48.034 13.099 79.044 13.099s55.432-6.656 79.044-13.099c23.569-6.434 45.833-12.501 74.556-12.501 36.361 0 68.267 63.821 68.267 102.4 0 44.553-42.778 51.2-68.267 51.2z"/><path d="M110.933 204.8c-14.114 0-25.6 11.486-25.6 25.6 0 4.48 1.178 8.892 3.405 12.757a8.547 8.547 0 0 0 11.657 3.14c4.079-2.355 5.487-7.569 3.132-11.657a8.543 8.543 0 0 1-1.126-4.241c0-4.702 3.831-8.533 8.533-8.533s8.533 3.831 8.533 8.533a8.485 8.485 0 0 1-1.143 4.284c-2.355 4.079-.947 9.301 3.132 11.656a8.542 8.542 0 0 0 11.657-3.14 25.694 25.694 0 0 0 3.422-12.8c-.002-14.113-11.487-25.599-25.602-25.599zM256 392.533c26.01 0 76.083-8.294 78.199-8.653a8.532 8.532 0 0 0 7.014-9.822c-.768-4.642-5.163-7.782-9.813-7.006-.512.077-50.807 8.414-75.401 8.414s-74.889-8.337-75.392-8.414a8.527 8.527 0 0 0-9.822 7.006 8.533 8.533 0 0 0 7.006 9.822c2.126.359 52.199 8.653 78.209 8.653zm158.336 9.967a8.53 8.53 0 0 0-11.836 2.364c-5.581 8.371-12.254 14.72-20.983 19.396a8.186 8.186 0 0 0-2.108 1.024c-14.464 7.049-34.33 9.916-63.676 9.916-4.719 0-8.533 3.823-8.533 8.533s3.814 8.533 8.533 8.533c25.088 0 44.373-2.159 59.733-7.074v28.885c-5.043-2.935-10.829-4.745-17.067-4.745-10.24 0-19.345 4.634-25.6 11.793-6.255-7.159-15.36-11.793-25.6-11.793-6.238 0-12.023 1.809-17.067 4.745V448a8.57 8.57 0 0 0-3.072-6.554c-1.954-1.621-4.531-2.304-7.014-1.835-.077.017-8.201 1.451-24.047 1.451s-23.97-1.434-24.03-1.451a8.581 8.581 0 0 0-7.023 1.818 8.543 8.543 0 0 0-3.081 6.571v26.086c-5.043-2.944-10.82-4.753-17.067-4.753-10.24 0-19.337 4.634-25.6 11.793-6.263-7.159-15.36-11.793-25.6-11.793-6.246 0-12.023 1.809-17.067 4.753v-28.894c15.36 4.915 34.645 7.074 59.733 7.074 4.71 0 8.533-3.823 8.533-8.533s-3.823-8.533-8.533-8.533c-49.126 0-71.834-7.936-86.767-30.336-2.62-3.917-7.919-4.983-11.836-2.364-3.917 2.611-4.975 7.91-2.364 11.836 6.605 9.907 14.396 17.553 24.166 23.33v65.8a8.536 8.536 0 0 0 8.533 8.533h102.4a8.536 8.536 0 0 0 8.533-8.533V457.54c4.318.324 10.01.589 17.067.589s12.749-.265 17.067-.589v45.926a8.53 8.53 0 0 0 8.533 8.533H384a8.53 8.53 0 0 0 8.533-8.533v-65.8c9.771-5.777 17.562-13.423 24.166-23.33 2.62-3.925 1.562-9.225-2.363-11.836zm-275.43 92.433c2.961-5.077 8.405-8.533 14.694-8.533s11.733 3.456 14.694 8.533h-29.388zm51.2 0c2.961-5.077 8.405-8.533 14.694-8.533s11.733 3.456 14.694 8.533h-29.388zm102.4 0c2.961-5.077 8.414-8.533 14.694-8.533s11.733 3.456 14.694 8.533h-29.388zm51.2 0c2.961-5.077 8.414-8.533 14.694-8.533 6.281 0 11.733 3.456 14.694 8.533h-29.388z"/></svg>