<svg xmlns="http://www.w3.org/2000/svg" viewBox="0 0 511.994 511.994"><path d="M259.572.779a8.59 8.59 0 0 0-7.663.256C152.334 55.35 51.197 239.84 51.197 332.794c0 46.942 14.507 81.468 43.136 102.605 20.284 14.985 46.78 22.494 78.464 22.494 22.383 0 47.488-3.977 74.667-11.503v57.071a8.53 8.53 0 0 0 8.533 8.533 8.53 8.53 0 0 0 8.533-8.533V365.553l138.018-24.354a8.523 8.523 0 0 0 6.912-9.89c-.811-4.634-5.257-7.74-9.882-6.921L264.53 348.222v-69.299l105.464-40.559c4.395-1.698 6.596-6.639 4.907-11.034-1.707-4.403-6.63-6.571-11.034-4.907l-99.337 38.212V192.77l80.905-44.501c4.139-2.27 5.649-7.458 3.371-11.588-2.27-4.13-7.475-5.641-11.58-3.362l-72.695 39.979V59.727a8.53 8.53 0 0 0-8.533-8.533 8.53 8.53 0 0 0-8.533 8.533v113.57l-72.695-39.979c-4.113-2.278-9.31-.768-11.58 3.362-2.278 4.13-.768 9.318 3.371 11.588l80.905 44.501v67.866l-99.337-38.212a8.54 8.54 0 0 0-11.034 4.907c-1.69 4.395.512 9.335 4.907 11.034l105.464 40.559v69.299l-135.049-23.834c-4.651-.811-9.071 2.287-9.882 6.921a8.523 8.523 0 0 0 6.912 9.89l138.018 24.354v63.232c-61.773 17.903-112.427 15.462-142.993-7.117-24.021-17.741-36.207-47.65-36.207-88.875 0-86.451 96.538-261.453 188.058-314.658C363.534 70.863 443.73 244.09 443.73 332.794c0 34.381-11.605 62.268-33.57 80.657-27.196 22.775-69.291 30.481-118.528 21.692-4.634-.862-9.079 2.253-9.899 6.895-.828 4.642 2.253 9.071 6.895 9.899 54.306 9.711 101.35.674 132.497-25.404 25.958-21.734 39.671-54.144 39.671-93.739.001-94.072-86.408-279.023-201.224-332.015z"/></svg>