<svg xmlns="http://www.w3.org/2000/svg" viewBox="0 0 512 512"><path d="M187.733 494.933H179.2c-12.723 0-25.6-5.862-25.6-17.067 0-4.224 0-17.067 25.6-17.067 3.132 0 5.999-1.732 7.492-4.489a8.56 8.56 0 0 0-.367-8.738c-.162-.247-15.659-24.559-15.659-72.107 0-11.375 2.884-21.231 8.585-29.312 2.722-3.849 1.8-9.173-2.048-11.887a8.522 8.522 0 0 0-11.887 2.048c-7.305 10.342-11.085 22.648-11.537 36.506-7.091-2.731-16.811-8.073-24.55-18.62-12.143-16.529-15.471-40.439-9.899-71.074 4.215-23.194-8.892-37.606-22.852-41.182-11.989-3.063-26.487 1.152-33.664 14.541-17.169 2.901-28.681 18.347-28.681 32.367 0 4.873 1.434 9.173 4.139 12.433 3.166 3.814 7.885 5.914 13.269 5.914 18.79 0 25.6-15.309 25.6-25.6V266.06c2.97-7.142 9.609-8.986 15.095-7.578 6.571 1.681 12.732 8.235 10.3 21.589-6.443 35.43-2.091 63.77 12.928 84.233 12.612 17.169 29.423 24.03 38.716 26.65 1.724 25.122 7.305 43.196 11.819 53.965-18.679 3.627-29.466 15.377-29.466 32.947 0 19.78 17.946 34.133 42.667 34.133h8.533c4.71 0 8.533-3.823 8.533-8.533s-3.822-8.533-8.533-8.533zM60.075 281.498c-.094 3.942-1.655 8.636-8.627 8.943-.444-.759-.546-4.275 1.852-8.439.956-1.673 3.089-4.719 6.775-6.784v6.28zM341.496 444.22c.316-10.274 1.263-29.278 4.079-50.56a8.52 8.52 0 0 0-7.339-9.574c-4.625-.614-8.96 2.662-9.574 7.339-2.944 22.195-3.908 41.668-4.232 52.309h-.162a8.536 8.536 0 0 0-8.533 8.533 8.536 8.536 0 0 0 8.533 8.533h8.533c25.6 0 25.6 12.843 25.6 17.067 0 11.204-12.877 17.067-25.6 17.067h-8.533c-14.114 0-25.6-11.486-25.6-25.6v-68.267a8.536 8.536 0 0 0-8.533-8.533 8.536 8.536 0 0 0-8.533 8.533v68.267c0 14.114-11.486 25.6-25.6 25.6h-8.533c-12.723 0-25.6-5.862-25.6-17.067 0-4.224 0-17.067 25.6-17.067H256a8.536 8.536 0 0 0 8.533-8.533 8.536 8.536 0 0 0-8.533-8.533h-.162c-.324-10.624-1.289-30.054-4.233-52.215-.614-4.676-4.941-7.936-9.574-7.339-4.676.614-7.962 4.907-7.339 9.583 2.807 21.205 3.755 40.192 4.079 50.466-21.444 2.517-33.971 14.694-33.971 33.638 0 19.78 17.946 34.133 42.667 34.133H256c13.943 0 26.342-6.724 34.133-17.092 7.791 10.368 20.19 17.092 34.133 17.092h8.533c24.721 0 42.667-14.353 42.667-34.133.001-18.944-12.526-31.121-33.97-33.647zm72.772.699c5.402-12.885 12.399-36.053 12.399-69.453 0-14.942-3.925-28.092-11.674-39.091-2.714-3.849-8.038-4.779-11.887-2.074a8.536 8.536 0 0 0-2.065 11.895c5.683 8.064 8.559 17.911 8.559 29.269 0 47.548-15.497 71.859-15.633 72.064a8.536 8.536 0 0 0-.427 8.764 8.538 8.538 0 0 0 7.526 4.506c25.6 0 25.6 12.843 25.6 17.067 0 11.204-12.877 17.067-25.6 17.067h-8.533c-4.71 0-8.533 3.823-8.533 8.533s3.823 8.533 8.533 8.533h8.533c24.721 0 42.667-14.353 42.667-34.133 0-17.569-10.786-29.32-29.465-32.947zm63.599-410.786a8.52 8.52 0 0 0-4.719-7.629c-26.701-13.346-47.855-4.284-58.94 5.35C382.131 11.162 339.345 0 290.133 0c-49.05 0-91.708 11.068-123.742 31.625-11.392-9.523-32.794-18.372-59.273-5.12a8.52 8.52 0 0 0-4.719 7.629c0 26.718 9.66 44.143 15.411 52.156-10.358 20.368-15.41 42.452-15.41 67.31 0 1.126.043 2.27.085 3.413l.06 1.681a8.526 8.526 0 0 0 2.748 6.059c1.698 1.57 3.883 2.338 6.263 2.244a53.72 53.72 0 0 1 4.685-.051c-3.831 4.139-7.228 8.934-10.163 14.379a8.514 8.514 0 0 0-.922 5.41c8.166 50.441 33.502 100.036 69.53 136.081a8.547 8.547 0 0 0 10.505 1.237 69.501 69.501 0 0 1 8.149-4.309 312.6 312.6 0 0 0-2.099 12.57 8.537 8.537 0 0 0 3.217 7.979c24.969 19.396 51.823 30.891 79.795 34.15a8.528 8.528 0 0 0 5.436-1.186c4.122-2.517 7.603-5.726 10.368-8.798 2.79 3.106 6.34 6.34 10.641 8.875a8.619 8.619 0 0 0 4.326 1.169c.333 0 .657-.017.99-.06 27.972-3.26 54.827-14.754 79.804-34.15a8.53 8.53 0 0 0 3.208-7.979 310.236 310.236 0 0 0-2.099-12.57 68.4 68.4 0 0 1 8.141 4.301 8.542 8.542 0 0 0 10.513-1.229c17.382-17.399 32.324-38.042 44.407-61.346a8.582 8.582 0 0 0 .93-4.71c-.99-10.829-2.406-21.163-4.25-30.891a65.44 65.44 0 0 1 6.63 3.379 8.554 8.554 0 0 0 7.296.597 8.5 8.5 0 0 0 5.077-5.274c8.09-24.115 12.194-48 12.194-70.972 0-25.25-4.915-46.805-15.411-67.32 5.761-8.011 15.413-25.436 15.413-52.146zm-25.438 175.633a80.139 80.139 0 0 0-15.556-4.796 8.486 8.486 0 0 0-7.851 2.475 8.55 8.55 0 0 0-2.099 7.962c3.055 12.203 5.325 25.796 6.758 40.405-9.992 18.833-21.973 35.721-35.695 50.313-6.69-3.413-13.679-5.862-20.847-7.287a8.523 8.523 0 0 0-7.851 2.475 8.55 8.55 0 0 0-2.099 7.962c1.587 6.366 2.995 13.252 4.181 20.54-20.395 14.959-41.984 24.124-64.273 27.29-5.854-4.437-9.335-11.059-9.353-11.102a8.543 8.543 0 0 0-7.475-4.651c-3.081 0-6.101 1.647-7.62 4.429-.043.068-3.789 6.784-9.557 11.307-22.264-3.166-43.827-12.331-64.196-27.273 1.186-7.279 2.586-14.165 4.181-20.54.708-2.842-.085-5.845-2.099-7.962s-4.984-3.046-7.851-2.475c-7.168 1.434-14.157 3.874-20.847 7.287-30.071-32.051-52.13-75.947-59.776-119.168 4.736-7.859 10.726-13.636 17.843-17.186a8.557 8.557 0 0 0 4.702-8.243 8.546 8.546 0 0 0-5.82-7.492c-6.63-2.21-13.235-3.55-19.729-4.002.486-22.733 5.581-42.052 15.94-60.527 1.843-3.294 1.263-7.45-1.365-10.163-.555-.572-12.885-13.602-14.447-39.731 14.865-5.692 25.813-1.741 32.333 2.492-4.642 3.823-8.986 7.876-13.005 12.186a8.527 8.527 0 0 0 .418 12.058 8.476 8.476 0 0 0 5.82 2.295 8.51 8.51 0 0 0 6.238-2.705c29.44-31.514 78.694-48.87 138.701-48.87 59.947 0 109.193 17.331 138.65 48.802 3.217 3.439 8.61 3.618 12.058.401 3.439-3.217 3.618-8.619.401-12.058-3.934-4.198-8.183-8.158-12.706-11.895 6.263-4.292 17.058-8.482 32.102-2.705-1.562 26.129-13.884 39.159-14.404 39.689a8.54 8.54 0 0 0-1.408 10.214C455.723 108.911 460.8 129.28 460.8 153.6c0 18.167-2.816 37.018-8.371 56.166z"/><path d="M221.867 149.333c0 7.057 5.743 12.8 12.8 12.8s12.8-5.743 12.8-12.8-5.743-12.8-12.8-12.8-12.8 5.743-12.8 12.8zm3.814-47.829c15.019-7.509 38.622-7.637 38.861-7.637 4.702-.009 8.525-3.823 8.525-8.533 0-1.604-.452-5.726-4.164-12.305 9.412 4.215 15.121 9.728 15.198 9.805 3.2 3.2 8.866 3.2 12.066 0 .094-.085 5.751-5.658 15.241-9.882-3.746 6.622-4.207 10.769-4.207 12.382 0 4.71 3.823 8.525 8.525 8.533.239 0 23.842.128 38.861 7.637a8.554 8.554 0 0 0 3.806.896 8.54 8.54 0 0 0 7.646-4.719c2.108-4.216.393-9.336-3.823-11.443-10.65-5.333-23.919-7.646-33.553-8.661 2.176-3.089 5.402-7.031 10.172-11.81a8.533 8.533 0 0 0 1.852-9.301 8.547 8.547 0 0 0-7.885-5.265c-19.644 0-34.782 8.73-42.667 14.541C282.249 59.93 267.11 51.2 247.467 51.2a8.548 8.548 0 0 0-7.885 5.265 8.53 8.53 0 0 0 1.852 9.301c4.796 4.796 8.021 8.738 10.197 11.81-9.643 1.015-22.929 3.328-33.579 8.661-4.215 2.108-5.931 7.228-3.823 11.443 2.117 4.217 7.228 5.949 11.452 3.824z"/><path d="M388.719 111.838c-4.215 2.108-5.931 7.228-3.823 11.443.085.154 7.637 15.539 7.637 38.852 0 14.259-7.33 23.219-16.614 34.569-5.606 6.844-11.588 14.268-16.614 23.509-1.638-2.475-3.029-4.002-3.405-4.378-3.285-3.285-8.567-3.285-11.913-.043-3.354 3.234-3.43 8.61-.247 12.015.247.265 6.127 6.699 6.127 19.661 0 21.154-13.918 25.6-25.6 25.6-14.822 0-21.495-11.238-24.115-18.944 14.268-5.385 24.115-21.257 24.115-32.256 0-.341-.119-.572-.137-.896-.017-.171.051-.333.017-.512l-8.533-51.2a8.517 8.517 0 0 0-9.822-7.006 8.533 8.533 0 0 0-7.006 9.822l5.547 33.263c-4.668-.478-9.583-.538-14.199-.538-4.608 0-9.532.06-14.199.538l5.547-33.263a8.533 8.533 0 0 0-7.006-9.822 8.516 8.516 0 0 0-9.822 7.006l-8.533 51.2c-.034.179.034.341.017.512-.017.324-.137.555-.137.896 0 10.999 9.847 26.871 24.115 32.256-2.62 7.706-9.293 18.944-24.115 18.944-11.682 0-25.6-4.446-25.6-25.6 0-12.962 5.88-19.396 6.033-19.567 3.337-3.337 3.337-8.73 0-12.066s-8.73-3.337-12.066 0c-.375.375-1.766 1.903-3.405 4.378-5.026-9.242-11.008-16.666-16.614-23.509-9.284-11.349-16.614-20.309-16.614-34.569 0-23.049 7.569-38.724 7.646-38.878 2.091-4.207.375-9.318-3.831-11.418a8.524 8.524 0 0 0-11.452 3.814c-.384.768-9.429 19.183-9.429 46.481 0 20.361 10.411 33.075 20.471 45.372 9.054 11.068 18.398 22.519 22.246 41.182.341 17.783 7.851 28.902 18.099 35.089 4.941 15.582 22.101 40.491 58.65 40.491 36.548 0 53.709-24.909 58.65-40.491 10.249-6.187 17.758-17.306 18.099-35.089 3.849-18.662 13.193-30.114 22.246-41.182 10.061-12.297 20.471-25.011 20.471-45.372 0-27.298-9.054-45.713-9.438-46.481-2.1-4.214-7.229-5.929-11.444-3.813zM273.161 222.882c3.226-1.015 11.375-1.015 16.973-1.015 5.598 0 13.756 0 16.981 1.015-.905 5.675-8.687 16.051-16.981 16.051-8.278 0-16.06-10.351-16.973-16.051zm16.972 84.318c-19.413 0-30.362-8.943-36.343-17.143.742.034 1.476.077 2.21.077 16.145 0 27.281-8.311 34.133-18.21 6.852 9.899 17.988 18.21 34.133 18.21.785 0 1.57-.051 2.355-.085-5.904 8.2-16.835 17.151-36.488 17.151z"/><path d="M345.6 136.533c-7.057 0-12.8 5.743-12.8 12.8s5.743 12.8 12.8 12.8 12.8-5.743 12.8-12.8-5.743-12.8-12.8-12.8z"/></svg>