<svg xmlns="http://www.w3.org/2000/svg" viewBox="0 0 512 512"><path d="M110.933 324.268a8.536 8.536 0 0 0 8.533-8.533c0-6.246 2.27-12.254 6.391-16.922 3.115-3.533 2.782-8.926-.751-12.041-3.533-3.132-8.934-2.782-12.041.751a42.562 42.562 0 0 0-10.667 28.211c.002 4.711 3.825 8.534 8.535 8.534zM97.86 387.355c-2.193 4.164-.589 9.327 3.593 11.52 13.355 7.014 28.442 10.726 43.614 10.726 4.71 0 8.533-3.823 8.533-8.533s-3.823-8.533-8.533-8.533c-12.424 0-24.755-3.029-35.686-8.772-4.165-2.193-9.328-.581-11.521 3.592zm76.177-51.652a8.528 8.528 0 0 0-12.049-.759c-9.361 8.252-24.525 8.243-33.877-.026a8.536 8.536 0 0 0-12.049.742c-3.123 3.533-2.79 8.917.751 12.049a42.625 42.625 0 0 0 28.254 10.692 42.616 42.616 0 0 0 28.211-10.658c3.533-3.114 3.874-8.507.759-12.04zm-37.504-54.101a8.536 8.536 0 0 0 8.533 8.533c14.114 0 25.6 11.486 25.6 25.6 0 4.71 3.823 8.533 8.533 8.533s8.533-3.823 8.533-8.533c0-23.526-19.14-42.667-42.667-42.667-4.709 0-8.532 3.823-8.532 8.534zm8.534-59.734a94.268 94.268 0 0 0-27.913 4.215c-4.497 1.399-7.006 6.187-5.615 10.684a8.548 8.548 0 0 0 8.149 6.007c.845 0 1.698-.128 2.534-.393a76.908 76.908 0 0 1 22.844-3.447c4.71 0 8.533-3.823 8.533-8.533s-3.822-8.533-8.532-8.533z"/><path d="M283.708 358.401H332.8c4.71 0 8.533-3.823 8.533-8.533s-3.823-8.533-8.533-8.533h-45.065c1.493-8.329 2.398-16.853 2.398-25.6 0-27.622-7.723-54.076-21.931-76.8h47.531c4.71 0 8.533-3.823 8.533-8.533s-3.823-8.533-8.533-8.533h-60.288c-5.931-6.955-12.416-13.525-19.703-19.379-3.669-2.935-9.054-2.355-11.998 1.323-2.944 3.678-2.355 9.054 1.323 11.998 30.507 24.457 48 60.877 48 99.925 0 70.579-57.421 128-128 128s-128-57.421-128-128 57.421-128 128-128h119.467a8.528 8.528 0 0 0 7.339-4.181 8.531 8.531 0 0 0 .154-8.439L224.36 87.735l21.99-16.486 71.578 79.531c3.14 3.499 8.55 3.78 12.049.631 3.507-3.149 3.789-8.542.631-12.049l-76.8-85.333c-2.953-3.277-7.927-3.78-11.46-1.118l-34.133 25.6a8.527 8.527 0 0 0-2.372 10.914l44.314 81.246h-105.09C65.075 170.668 0 235.743 0 315.735s65.075 145.067 145.067 145.067c65.143 0 120.379-43.171 138.641-102.401z"/><path d="M175.616 403.969a8.375 8.375 0 0 0 3.055-.572c36.045-13.815 60.262-49.05 60.262-87.663 0-4.71-3.823-8.533-8.533-8.533s-8.533 3.823-8.533 8.533c0 31.599-19.814 60.425-49.306 71.731a8.547 8.547 0 0 0-4.915 11.025 8.538 8.538 0 0 0 7.97 5.479zm191.317-233.301h-68.267c-4.71 0-8.533 3.823-8.533 8.533s3.823 8.533 8.533 8.533h68.267c67.703 0 123.145 52.864 127.565 119.467h-25.165a8.536 8.536 0 0 0-8.533 8.533 8.536 8.536 0 0 0 8.533 8.533h25.165c-1.69 25.532-10.871 48.981-25.404 68.267h-50.961c-4.71 0-8.533 3.823-8.533 8.533s3.823 8.533 8.533 8.533h35.533c-22.835 21.112-53.257 34.133-86.733 34.133h-128c-4.71 0-8.533 3.823-8.533 8.533s3.823 8.533 8.533 8.533h128c79.991 0 145.067-65.075 145.067-145.067s-65.075-145.064-145.067-145.064z"/><path d="M435.2 238.935H384a8.536 8.536 0 0 0-8.533 8.533 8.536 8.536 0 0 0 8.533 8.533h51.2a8.536 8.536 0 0 0 8.533-8.533 8.536 8.536 0 0 0-8.533-8.533zm-252.535-9.233c-4.309-1.894-9.344.077-11.238 4.395s.077 9.344 4.395 11.238c20.446 8.951 35.977 26.291 42.598 47.565 1.135 3.652 4.514 5.999 8.141 5.999.845 0 1.698-.128 2.543-.393 4.497-1.399 7.014-6.187 5.606-10.684-8.09-26.001-27.068-47.181-52.045-58.12zM435.2 307.201h-17.067a8.536 8.536 0 0 0-8.533 8.533 8.536 8.536 0 0 0 8.533 8.533H435.2a8.536 8.536 0 0 0 8.533-8.533 8.536 8.536 0 0 0-8.533-8.533zM281.6 409.602a8.536 8.536 0 0 0-8.533 8.533 8.536 8.536 0 0 0 8.533 8.533h34.133a8.536 8.536 0 0 0 8.533-8.533 8.536 8.536 0 0 0-8.533-8.533H281.6zM90.47 249.593c-3.362-3.311-8.755-3.302-12.075.051C60.86 267.342 51.2 290.818 51.2 315.735c0 20.506 6.494 39.987 18.782 56.337a8.52 8.52 0 0 0 6.827 3.405 8.518 8.518 0 0 0 5.12-1.715c3.772-2.825 4.523-8.175 1.69-11.947-10.044-13.363-15.352-29.295-15.352-46.08 0-20.395 7.902-39.595 22.255-54.067a8.543 8.543 0 0 0-.052-12.075zm216.73 32.009a8.536 8.536 0 0 0 8.533 8.533H332.8c4.71 0 8.533-3.823 8.533-8.533s-3.823-8.533-8.533-8.533h-17.067c-4.71-.001-8.533 3.822-8.533 8.533z"/></svg>