<svg xmlns="http://www.w3.org/2000/svg" viewBox="0 0 512.002 512.002"><path d="M508.972 292.006l-32.503-27.392 34.517-64.452a8.527 8.527 0 0 0-.196-8.414 8.542 8.542 0 0 0-7.322-4.147h-69.871l-8.789-42.044a8.545 8.545 0 0 0-5.265-6.204 8.567 8.567 0 0 0-8.073 1.024l-73.421 52.77 11.784-132.796a8.526 8.526 0 0 0-3.405-7.595 8.56 8.56 0 0 0-8.269-1.084l-36.036 14.421-38.886-62.215c-3.123-4.992-11.349-4.992-14.473 0l-38.886 62.216-36.036-14.421a8.563 8.563 0 0 0-8.269 1.084 8.509 8.509 0 0 0-3.405 7.595l11.785 132.796-73.429-52.779a8.58 8.58 0 0 0-8.073-1.024 8.575 8.575 0 0 0-5.265 6.212l-8.781 42.044H8.534a8.525 8.525 0 0 0-7.518 12.561l34.517 64.461L3.03 292.006a8.541 8.541 0 0 0 2.039 14.327l147.046 65.357-15.326 61.303a8.537 8.537 0 0 0 2.406 8.269 8.56 8.56 0 0 0 8.38 1.963l99.891-30.746v90.854c0 4.71 3.823 8.533 8.533 8.533s8.533-3.823 8.533-8.533V337.617L378.497 271.8c4.087-2.355 5.487-7.578 3.132-11.657-2.372-4.079-7.586-5.487-11.665-3.123l-105.429 60.877V127.868c0-4.71-3.823-8.533-8.533-8.533s-8.533 3.823-8.533 8.533v190.02l-105.446-60.885a8.537 8.537 0 0 0-11.665 3.123c-2.355 4.088-.947 9.301 3.132 11.665l113.98 65.801v57.045l-90.453 27.827 13.397-53.589a8.537 8.537 0 0 0-4.813-9.873L24.458 296.273l27.358-23.057a8.531 8.531 0 0 0 2.022-10.556l-31.053-57.993h62.549a8.532 8.532 0 0 0 8.354-6.784l7.526-36.002 77.901 56.004a8.5 8.5 0 0 0 9.207.478 8.512 8.512 0 0 0 4.275-8.166L180.396 72.683l29.764 11.913a8.543 8.543 0 0 0 10.411-3.405l35.43-56.687 35.43 56.687c2.193 3.499 6.571 4.949 10.411 3.405l29.764-11.913-12.203 137.515a8.512 8.512 0 0 0 4.275 8.166 8.498 8.498 0 0 0 9.207-.478l77.901-55.996 7.526 35.994a8.54 8.54 0 0 0 8.354 6.784h62.549l-31.053 57.984a8.53 8.53 0 0 0 2.022 10.556l27.358 23.066-141.141 62.729a8.537 8.537 0 0 0-4.813 9.873l13.397 53.589-62.37-19.183c-4.497-1.408-9.276 1.135-10.658 5.641-1.391 4.506 1.143 9.284 5.649 10.667l76.817 23.637a8.785 8.785 0 0 0 2.509.375 8.57 8.57 0 0 0 5.871-2.338 8.535 8.535 0 0 0 2.406-8.269l-15.326-61.303 147.046-65.357a8.54 8.54 0 0 0 4.983-6.596 8.53 8.53 0 0 0-2.94-7.733z"/></svg>