<svg xmlns="http://www.w3.org/2000/svg" viewBox="0 0 512 512"><path d="M17.067 238.933h209.331c-2.278 7.023-4.002 13.85-4.284 15.036a8.598 8.598 0 0 0-.247 2.031c0 8.277 5.982 17.067 17.067 17.067h256c11.085 0 17.067-8.789 17.067-17.067 0-.563-.06-1.118-.171-1.673-20.609-103.065-96.12-186.06-144.897-186.06-27.358 0-59.989 23.04-89.523 63.215-2.79 3.797-1.98 9.139 1.818 11.93 3.806 2.799 9.139 1.971 11.93-1.826a266.875 266.875 0 0 1 9.131-11.699c9.975 2.756 36.275 9.165 64.606 9.165 9.719 0 19.695-.759 29.312-2.688 4.617-.922 7.62-5.419 6.69-10.035-.913-4.617-5.359-7.603-10.035-6.69-27.981 5.589-60.425-.119-77.577-4.105 19.106-19.251 38.135-30.199 53.649-30.199 45.235 0 110.541 87.407 127.821 170.667H239.198c1.314-5.043 3.354-12.032 5.265-17.067h28.604c11.085 0 17.067-8.789 17.067-17.067 0-.563-.06-1.118-.171-1.672-20.608-103.066-96.12-186.061-144.896-186.061-48.776 0-124.288 82.995-144.896 186.061A8.453 8.453 0 0 0 0 221.867c0 8.277 5.982 17.066 17.067 17.066zM78.251 95.71c9.847 2.722 36.292 9.207 64.777 9.207 9.719 0 19.695-.759 29.312-2.679 4.617-.93 7.62-5.427 6.69-10.044-.913-4.617-5.359-7.612-10.035-6.69-28.109 5.623-60.715-.162-77.807-4.156 18.441-18.62 37.478-30.148 53.879-30.148 45.235 0 110.541 87.407 127.821 170.667H17.237c9.541-45.918 33.69-93.073 61.014-126.157z"/><path d="M452.267 460.8h-51.618l-8.124-162.56c-.239-4.71-4.318-8.491-8.951-8.098-4.71.239-8.329 4.25-8.098 8.951l8.081 161.707H350.31l8.081-161.707c.23-4.702-3.388-8.713-8.098-8.951-4.676-.367-8.713 3.388-8.951 8.098l-8.124 162.56H178.85l-8.192-196.617c-.188-4.719-4.105-8.32-8.883-8.175-4.71.196-8.363 4.173-8.166 8.883l8.166 195.908h-33.417l8.166-195.908c.196-4.71-3.456-8.687-8.166-8.883-4.668-.154-8.687 3.456-8.883 8.175L111.283 460.8H93.867c-4.719 0-8.533 3.823-8.533 8.533s3.814 8.533 8.533 8.533h358.4c4.719 0 8.533-3.823 8.533-8.533s-3.814-8.533-8.533-8.533zm-392.534 0h-51.2C3.814 460.8 0 464.623 0 469.333s3.814 8.533 8.533 8.533h51.2c4.719 0 8.533-3.823 8.533-8.533s-3.814-8.533-8.533-8.533zm443.734 0H486.4c-4.719 0-8.533 3.823-8.533 8.533s3.814 8.533 8.533 8.533h17.067c4.719 0 8.533-3.823 8.533-8.533s-3.814-8.533-8.533-8.533z"/></svg>