<svg xmlns="http://www.w3.org/2000/svg" viewBox="0 0 512 512"><path d="M305.101 329.634l103.876-23.467c24.141-5.914 38.144-26.189 34.057-49.306-4.053-22.989-24.098-37.205-49.024-34.671l-88.448 11.307c-.068.009-6.511.99-7.219-1.98.375-.922 3.541-2.731 6.443-3.388l70.059-15.829c24.141-5.914 38.135-26.189 34.057-49.306-4.053-22.989-24.107-37.248-49.024-34.671l-54.076 6.912c-2.85.435-6.451.111-7.356-3.814-.307-1.331-.034-1.732.077-1.903 1.041-1.527 4.736-2.825 7.603-3.268l34.586-7.817c24.141-5.914 38.135-26.189 34.057-49.306-4.053-22.989-24.115-37.231-49.024-34.671l-27.537 3.516C295.006 15.411 278.144 0 255.992 0c-21.88 0-38.656 15.198-42.146 37.999l-27.742-3.541c-24.687-2.697-44.8 11.571-48.879 34.697-4.062 22.989 9.933 43.255 34.014 49.297l34.176 8.533c3.354.998 7.595 3.567 8.081 4.676-.469 2.338-1.323 2.901-1.604 3.081-1.451.973-4.173.819-5.146.623-.29-.068-.58-.119-.879-.162l-53.897-6.878c-24.704-2.654-44.8 11.563-48.879 34.688-4.062 22.997 9.933 43.264 34.21 49.348l68.523 15.479c.375.077.811.145 1.195.179 2.893.247 6.187 1.536 6.699 2.227 0 0 .034.256-.119.87-.666 2.594-2.893 3.456-6.554 2.543a9.017 9.017 0 0 0-1.178-.23l-88.03-11.238c-24.713-2.671-44.792 11.563-48.879 34.688-4.062 22.997 9.933 43.264 34.21 49.348l103.953 23.467c1.34.23 5.035 1.502 6.229 3.302.196.29.64.956.196 2.842-.307 1.314-1.246 5.316-7.68 4.164l-53.897-6.878c-24.704-2.697-44.8 11.571-48.879 34.688-4.062 22.997 9.933 43.264 34.21 49.348l58.402 13.184c27.503 6.212 42.88 9.685 51.755 11.409v61.713a8.536 8.536 0 0 0 8.533 8.533 8.536 8.536 0 0 0 8.533-8.533V59.733a8.536 8.536 0 0 0-8.533-8.533 8.536 8.536 0 0 0-8.533 8.533v364.8c-28.493-6.426-106.206-23.979-106.206-23.979-15.479-3.874-23.859-15.565-21.35-29.773 2.483-14.08 14.583-22.4 30.054-20.71l53.035 6.741c8.875 1.929 23.433-1.058 27.179-17.092 1.382-5.931.486-11.52-2.594-16.162-5.598-8.431-16.375-10.479-17.135-10.607l-103.322-23.33c-15.479-3.874-23.859-15.565-21.35-29.773 2.483-14.08 14.601-22.409 30.054-20.71l87.433 11.153c2.526.58 10.547 1.894 17.596-2.193 4.608-2.679 7.817-7.083 9.267-12.732 1.801-6.972-.358-11.964-2.475-14.925-5.316-7.398-15.317-9.037-18.603-9.378l-67.789-15.309c-15.479-3.874-23.859-15.565-21.35-29.773 2.483-14.08 14.583-22.417 30.054-20.71l53.427 6.827c2.338.444 10.581 1.596 17.707-2.97 3.302-2.133 7.578-6.306 9.139-14.123 2.398-12.032-8.294-20.907-20.309-24.474l-34.534-8.644c-15.479-3.874-23.859-15.565-21.35-29.773 2.483-14.08 14.609-22.434 30.054-20.71l36.693 4.685a8.527 8.527 0 0 0 6.716-2.065 8.505 8.505 0 0 0 2.893-6.4l-.017-4.352c1.135-15.915 11.187-26.206 25.617-26.206 14.293 0 24.593 10.513 25.6 25.6v4.941a8.566 8.566 0 0 0 2.893 6.409c1.835 1.613 4.224 2.364 6.724 2.057l36.497-4.659c15.812-1.655 27.742 6.468 30.251 20.685 2.483 14.071-6.076 26.027-21.163 29.73l-33.664 7.637c-1.289.171-12.783 1.903-18.62 10.308-3.081 4.429-4.011 9.779-2.705 15.471 3.499 15.198 17.946 18.372 26.47 16.879l53.564-6.844c15.812-1.664 27.742 6.468 30.251 20.685 2.483 14.071-6.076 26.027-21.163 29.73l-69.82 15.761c-1.988.435-12.211 2.97-17.195 10.948-2.543 4.062-3.26 8.755-2.074 13.585 3.174 12.911 16.213 16.461 26.436 14.353l87.697-11.196c15.821-1.664 27.742 6.468 30.251 20.685 2.483 14.071-6.076 26.027-21.163 29.73l-103.364 23.347c-1.203.222-11.93 2.381-17.417 10.803-2.995 4.591-3.849 10.086-2.458 15.881 3.729 15.514 18.099 18.79 26.453 17.323l53.564-6.835c15.812-1.647 27.742 6.468 30.251 20.685 2.483 14.071-6.076 26.027-21.163 29.73l-82.688 18.671c-4.591 1.041-7.475 5.606-6.443 10.206 1.05 4.599 5.632 7.458 10.214 6.443l82.833-18.714c24.141-5.914 38.135-26.189 34.057-49.306-4.053-22.98-24.004-37.231-49.024-34.671l-54.076 6.904c-4.045.614-6.528-.879-7.373-4.42-.41-1.698-.026-2.295.137-2.56 1.011-1.579 4.279-2.962 6.54-3.414z"/></svg>