<svg xmlns="http://www.w3.org/2000/svg" viewBox="0 0 512.007 512.007"><path d="M187.737 358.407c12.237 0 20.872-7.646 24.047-12.16 2.679-3.814 1.766-9.011-2.005-11.75-3.789-2.748-9.088-1.894-11.887 1.835-.154.205-3.831 5.009-10.155 5.009-6.221 0-9.882-4.642-10.146-4.992a8.538 8.538 0 0 0-11.827-1.988c-3.857 2.714-4.787 8.038-2.074 11.887 3.174 4.513 11.81 12.159 24.047 12.159zm-8.533-238.933c-32.939 0-59.733 26.795-59.733 59.733s26.795 59.733 59.733 59.733c32.939 0 59.733-26.795 59.733-59.733s-26.795-59.733-59.733-59.733zm0 102.4c-23.526 0-42.667-19.14-42.667-42.667 0-23.526 19.14-42.667 42.667-42.667 23.526 0 42.667 19.14 42.667 42.667-.001 23.527-19.141 42.667-42.667 42.667zm86.954 114.457c-.154.205-3.831 5.009-10.155 5.009-6.221 0-9.882-4.642-10.146-4.992a8.538 8.538 0 0 0-11.827-1.988c-3.857 2.714-4.787 8.038-2.074 11.887 3.174 4.514 11.81 12.16 24.047 12.16s20.872-7.646 24.047-12.16c2.679-3.814 1.766-9.011-2.005-11.75-3.78-2.748-9.088-1.895-11.887 1.834z"/><path d="M76.889 212.129c-.666 4.668 2.577 8.994 7.236 9.66 4.651.631 8.986-2.577 9.66-7.236 8.755-61.295-8.329-104.951-9.335-107.401-.154-.307-13.329-27.682-15.787-81.246l54.221 40.661a8.525 8.525 0 0 0 7.808 1.271c.503-.171 50.987-16.631 125.312-16.631s124.8 16.461 125.312 16.631a8.525 8.525 0 0 0 7.808-1.271l54.221-40.661c-2.458 53.564-15.667 80.998-16.068 81.86-.725 1.835-17.809 45.491-9.054 106.786.606 4.25 4.258 7.322 8.44 7.322.401 0 .802-.026 1.22-.085 4.659-.666 7.902-4.992 7.236-9.66-8.055-56.354 7.757-97.374 7.714-97.374.734-1.468 17.971-36.727 17.971-106.214a8.541 8.541 0 0 0-4.719-7.637 8.502 8.502 0 0 0-8.934.811l-64.794 48.597c-14.08-4.122-60.868-16.171-126.353-16.171S143.731 46.19 129.651 50.311L64.857 1.714a8.51 8.51 0 0 0-8.934-.811 8.542 8.542 0 0 0-4.719 7.637c0 69.487 17.229 104.747 17.672 105.574.162.402 16.128 41.2 8.013 98.015zm217.984 28.245a8.516 8.516 0 0 0-11.836 2.364l-27.034 40.55-27.034-40.55c-2.62-3.925-7.919-4.992-11.836-2.364-3.917 2.611-4.975 7.91-2.364 11.836l34.133 51.2a8.523 8.523 0 0 0 7.1 3.797 8.545 8.545 0 0 0 7.1-3.797l34.133-51.2c2.613-3.925 1.555-9.225-2.362-11.836z"/><path d="M179.204 162.141c-9.412 0-17.067 7.654-17.067 17.067s7.654 17.067 17.067 17.067c9.412 0 17.067-7.654 17.067-17.067s-7.655-17.067-17.067-17.067zm134.98 226.773c2.679-3.814 1.766-9.011-2.005-11.75-3.789-2.748-9.088-1.886-11.887 1.835-.154.205-3.831 5.009-10.155 5.009-6.221 0-9.882-4.642-10.146-4.992-2.731-3.78-8.004-4.676-11.827-1.988-3.857 2.705-4.787 8.03-2.074 11.887 3.174 4.514 11.81 12.16 24.047 12.16 12.237-.001 20.872-7.647 24.047-12.161zm78.353-209.707c0-32.939-26.795-59.733-59.733-59.733s-59.733 26.795-59.733 59.733 26.795 59.733 59.733 59.733 59.733-26.794 59.733-59.733zm-59.733 42.667c-23.526 0-42.667-19.14-42.667-42.667 0-23.526 19.14-42.667 42.667-42.667 23.526 0 42.667 19.14 42.667 42.667-.001 23.527-19.141 42.667-42.667 42.667z"/><path d="M433.531 239.111c-1.109.213-27.264 5.743-46.421 35.123-21.692 33.289-25.566 82.321-11.511 145.749 1.015 4.608 5.598 7.509 10.172 6.494 4.608-1.024 7.509-5.581 6.494-10.18-12.766-57.617-9.711-103.356 8.832-132.258 9.557-14.891 21.043-22.161 28.382-25.54 17.348 65.562 6.562 141.312-27.255 187.059-10.206 13.798-26.786 29.892-48.785 31.915-5.973-9.933-16.751-16.666-29.167-16.666-12.578 0-23.467 6.912-29.38 17.067h-77.773c-5.922-10.155-16.802-17.067-29.38-17.067-12.407 0-23.177 6.724-29.158 16.649-22.033-2.125-38.639-18.261-48.862-32.094-33.801-45.773-44.561-121.438-27.196-186.863 7.253 3.337 18.577 10.487 28.075 25.062 18.816 28.885 21.956 74.778 9.079 132.727-1.024 4.599 1.877 9.156 6.477 10.18 4.591 1.015 9.156-1.877 10.18-6.477 14.097-63.428 10.249-112.461-11.435-145.749-19.14-29.389-45.312-34.918-46.421-35.132-4.292-.845-8.542 1.664-9.83 5.854-22.187 72.115-10.94 158.686 27.349 210.526 16.572 22.451 36.361 35.669 57.677 38.733 0 .247-.068.469-.068.717 0 9.412 7.654 17.067 17.067 17.067h34.133c9.412 0 17.067-7.654 17.067-17.067h68.267c0 9.412 7.654 17.067 17.067 17.067h34.133c9.412 0 17.067-7.654 17.067-17.067 0-.23-.06-.444-.068-.666 21.291-2.995 41.045-16.171 57.609-38.571 38.306-51.814 49.579-138.47 27.418-210.731-1.293-4.188-5.56-6.757-9.835-5.861zM170.67 494.941c0-9.412 7.654-17.067 17.067-17.067 9.412 0 17.067 7.654 17.075 17.067H170.67zm136.534 0c0-9.412 7.654-17.067 17.067-17.067s17.067 7.654 17.075 17.067h-34.142z"/><path d="M213.337 401.074c12.237 0 20.873-7.646 24.047-12.16 2.68-3.814 1.766-9.011-2.005-11.75-3.789-2.748-9.088-1.886-11.887 1.835-.154.205-3.831 5.009-10.155 5.009-6.221 0-9.882-4.642-10.146-4.992a8.538 8.538 0 0 0-11.827-1.988c-3.857 2.705-4.787 8.03-2.074 11.887 3.174 4.513 11.81 12.159 24.047 12.159zm119.467-238.933c-9.412 0-17.067 7.654-17.067 17.067s7.654 17.067 17.067 17.067 17.067-7.654 17.067-17.067-7.655-17.067-17.067-17.067zm-76.8 281.6c12.237 0 20.872-7.646 24.047-12.16 2.679-3.814 1.766-9.011-2.005-11.75-3.78-2.756-9.088-1.894-11.887 1.835-.154.205-3.831 5.009-10.155 5.009-6.221 0-9.882-4.642-10.146-4.992a8.538 8.538 0 0 0-11.827-1.988 8.528 8.528 0 0 0-2.074 11.887c3.174 4.513 11.81 12.159 24.047 12.159zm92.313-97.494c2.679-3.814 1.766-9.011-2.005-11.75-3.78-2.748-9.079-1.894-11.887 1.835-.154.205-3.831 5.009-10.155 5.009-6.221 0-9.882-4.642-10.146-4.992-2.731-3.78-8.004-4.676-11.827-1.988-3.857 2.714-4.787 8.038-2.074 11.887 3.174 4.514 11.81 12.16 24.047 12.16s20.873-7.647 24.047-12.161z"/></svg>