<svg xmlns="http://www.w3.org/2000/svg" viewBox="0 0 512 512"><path d="M213.333 230.4c0 18.167 16.461 30.353 34.133 33.374v9.651c-21.367 1.63-30.003 9.037-31.633 10.675-3.251 3.243-3.226 8.371-.102 11.742 3.132 3.362 8.465 3.533 11.955.529.068-.06 7.458-6.238 28.314-6.238 20.617 0 28.075 6.042 28.1 6.042v-.008a8.51 8.51 0 0 0 6.033 2.5 8.509 8.509 0 0 0 6.033-2.5 8.523 8.523 0 0 0 0-12.066c-1.63-1.638-10.266-9.045-31.633-10.675v-9.651c17.673-3.021 34.133-15.206 34.133-33.374 0-25.6-25.677-25.6-42.667-25.6s-42.666-.001-42.666 25.599zM256 221.867c22.067 0 25.6 2.022 25.6 8.533 0 10.991-15.13 17.067-25.6 17.067s-25.6-6.076-25.6-17.067c0-6.511 3.533-8.533 25.6-8.533zm64-51.2c7.057 0 12.8-5.743 12.8-12.8s-5.743-12.8-12.8-12.8-12.8 5.743-12.8 12.8 5.743 12.8 12.8 12.8z"/><path d="M324.267 204.8c25.148 0 51.166-15.957 51.166-42.667 0-32.29-31.522-68.267-76.766-68.267-11.051 0-20.292 5.103-26.018 14.362-8.951 14.464-8.397 38.195 1.34 57.719 8.644 17.306 19.396 38.853 50.278 38.853zm-37.112-87.603c2.654-4.275 6.315-6.263 11.511-6.263 38.443 0 59.699 30.276 59.699 51.2 0 15.812-17.698 25.6-34.099 25.6-19.345 0-25.907-11.179-35.004-29.406-7.013-14.055-7.909-31.736-2.107-41.131zM100.821 375.953c-3.482-17.323-2.125-30.02 4.113-36.847 7.706-8.448 21.53-6.443 21.709-6.417 4.642.768 9.011-2.389 9.771-7.014.776-4.651-2.364-9.054-7.014-9.822-.93-.162-22.895-3.627-36.941 11.597-9.822 10.641-12.826 27.051-8.969 48.845-32.418 4.821-49.357 31.974-49.357 58.906 0 36.992 18.688 76.8 59.733 76.8H128c4.719 0 8.533-3.823 8.533-8.533s-3.814-8.533-8.533-8.533H93.867c-29.312 0-42.667-30.959-42.667-59.733 0-20.548 13.355-42.667 42.667-42.667 33.587 0 34.125 49.118 34.133 51.217.017 4.702 3.831 8.508 8.533 8.508h.017c4.71 0 8.516-3.814 8.516-8.525.001-22.197-9.463-62.969-44.245-67.782zm327.689.341c3.857-21.794.853-38.204-8.969-48.845-14.046-15.215-36.011-11.75-36.941-11.597-4.634.768-7.74 5.129-6.997 9.762.742 4.634 5.129 7.791 9.754 7.074.128-.017 13.986-2.057 21.709 6.417 6.238 6.827 7.595 19.524 4.113 36.847-34.782 4.813-44.245 45.585-44.245 67.78 0 4.71 3.806 8.525 8.516 8.525h.009a8.539 8.539 0 0 0 8.542-8.508c.009-2.099.555-51.217 34.133-51.217 29.32 0 42.667 22.118 42.667 42.667 0 28.774-13.346 59.733-42.667 59.733H384c-4.719 0-8.533 3.823-8.533 8.533S379.281 512 384 512h34.133c41.045 0 59.733-39.808 59.733-76.8.001-26.931-16.938-54.084-49.356-58.906zm-78.66 65.11c-8.141-7.552-20.361-10.505-33.911-8.516.495-16.632 2.21-48.964 8.073-72.414a8.536 8.536 0 0 0-6.212-10.351c-4.574-1.178-9.199 1.638-10.342 6.204-7.168 28.663-8.491 67.985-8.73 82.099l-12.407 6.212c-4.216 2.108-5.931 7.228-3.814 11.443a8.518 8.518 0 0 0 7.637 4.719c1.28 0 2.586-.29 3.806-.896l16.401-8.201c11.665-3.772 22.332-2.944 27.913 2.219 7.33 6.793 5.854 20.284 3.328 30.404-1.468 5.845-5.41 10.607-8.789 10.607h-42.667c-14.114 0-25.6-11.486-25.6-25.6v-68.267a8.53 8.53 0 0 0-8.533-8.533 8.53 8.53 0 0 0-8.533 8.533v68.267c0 14.114-11.486 25.6-25.6 25.6H179.2c-3.593 0-7.799-4.83-8.653-9.941-2.944-17.638-1.681-29.824 3.567-34.304 4.531-3.866 13.824-3.499 27.554 1.024l16.384 8.192a8.554 8.554 0 0 0 3.806.896 8.54 8.54 0 0 0 7.646-4.719c2.108-4.215.393-9.335-3.823-11.443l-12.407-6.212c-.239-14.114-1.562-53.436-8.73-82.099-1.143-4.565-5.777-7.373-10.342-6.204a8.535 8.535 0 0 0-6.212 10.351c5.803 23.211 7.535 55.177 8.064 71.945-11.162-2.415-23.689-2.679-33.024 5.291-10.411 8.9-13.457 25.284-9.31 50.099C155.699 499.703 165.777 512 179.2 512h42.667c13.943 0 26.342-6.724 34.133-17.092C263.791 505.276 276.19 512 290.133 512H332.8c13.372 0 22.511-12.194 25.344-23.526 6.605-26.445-.862-40.192-8.294-47.07z"/><path d="M256 341.333c90.914 0 170.667-55.825 170.667-119.467 0-69.18-17.929-105.532-41.327-137.685 18.782-4.471 32.794-21.385 32.794-41.515C418.133 19.14 398.993 0 375.467 0c-21.231 0-38.75 15.633-41.993 35.968C309.999 22.366 279.842 17.067 256 17.067c-23.825 0-53.99 5.282-77.483 18.842C175.249 15.607 157.739 0 136.533 0c-23.526 0-42.667 19.14-42.667 42.667 0 20.13 14.02 37.052 32.802 41.515-23.407 32.154-41.335 68.497-41.335 137.685 0 63.641 79.753 119.466 170.667 119.466zM150.775 71.578a8.553 8.553 0 0 0-8.977-3.866c-16.154 3.328-30.865-9.199-30.865-25.045 0-14.114 11.486-25.6 25.6-25.6s25.6 11.486 25.6 25.6v5.265c-.555.529-1.229.956-1.766 1.502a8.523 8.523 0 0 0 0 12.066 8.525 8.525 0 0 0 12.066 0C192.606 41.318 228.83 34.133 256 34.133c25.941 0 63.394 7.194 83.55 27.486a8.514 8.514 0 0 0 6.05 2.517 8.505 8.505 0 0 0 6.016-2.483 8.524 8.524 0 0 0 .034-12.066c-.546-.555-1.22-.99-1.784-1.527v-5.393c0-14.114 11.486-25.6 25.6-25.6s25.6 11.486 25.6 25.6c0 15.838-14.652 28.407-30.857 25.045-3.456-.674-7.091.819-8.977 3.866a8.522 8.522 0 0 0 .529 9.754c27.102 34.628 47.838 66.961 47.838 140.536 0 54.554-71.774 102.4-153.6 102.4s-153.6-47.846-153.6-102.4c0-73.583 20.736-105.916 47.838-140.527a8.521 8.521 0 0 0 .538-9.763z"/><path d="M192 170.667c7.057 0 12.8-5.743 12.8-12.8s-5.743-12.8-12.8-12.8-12.8 5.743-12.8 12.8 5.743 12.8 12.8 12.8z"/><path d="M179.2 204.817c24.67 0 46.66-14.524 58.837-38.844 9.745-19.482 10.308-43.204 1.357-57.694-5.734-9.284-14.993-14.396-26.061-14.396-45.261 0-76.8 35.977-76.8 68.267 0 25.925 16.751 42.667 42.667 42.667zm34.133-93.867c5.214 0 8.883 1.997 11.537 6.298 5.811 9.412 4.915 27.076-2.099 41.079-4.429 8.849-17.536 29.423-43.571 29.423-16.265 0-25.6-9.327-25.6-25.6 0-21.376 22.724-51.2 59.733-51.2z"/></svg>