<svg xmlns="http://www.w3.org/2000/svg" viewBox="0 0 512 512"><path d="M175.403 112.367c-3.925-2.628-9.225-1.553-11.836 2.364-.751 1.135-18.5 28.169-18.5 64.469 0 33.783 24.004 79.113 68.514 99.499 1.399 15.258 8.525 25.011 17.903 30.677 4.941 15.582 22.101 40.491 58.65 40.491 36.54 0 53.709-24.909 58.641-40.491 9.395-5.666 16.521-15.42 17.911-30.677 44.501-20.395 68.514-65.715 68.514-99.499 0-36.301-17.741-63.334-18.5-64.469-2.611-3.917-7.91-4.992-11.836-2.364-3.925 2.611-4.983 7.91-2.364 11.836.154.23 15.633 23.808 15.633 54.997 0 26.889-18.415 62.609-52.685 81.084-2.799-11.725-8.687-17.988-9.549-18.85-3.302-3.302-8.567-3.277-11.921-.043-3.337 3.234-3.422 8.61-.247 12.015.247.265 6.135 6.699 6.135 19.661 0 21.154-13.926 25.6-25.6 25.6-14.814 0-21.495-11.238-24.115-18.944 14.268-5.385 24.115-21.257 24.115-32.256 0-.341-.119-.572-.137-.896-.017-.171.051-.333.017-.512l-8.533-51.2c-.768-4.642-5.163-7.791-9.813-7.006a8.532 8.532 0 0 0-7.014 9.822l5.538 33.263c-4.659-.478-9.574-.538-14.191-.538-4.608 0-9.532.06-14.199.538l5.547-33.263a8.533 8.533 0 0 0-7.006-9.822c-4.668-.751-9.045 2.372-9.822 7.006l-8.533 51.2c-.034.179.034.341.017.512-.017.324-.137.555-.137.896 0 10.999 9.847 26.871 24.115 32.256-2.62 7.706-9.293 18.944-24.115 18.944-11.682 0-25.6-4.446-25.6-25.6 0-12.962 5.88-19.396 6.033-19.567a8.523 8.523 0 0 0 0-12.066 8.525 8.525 0 0 0-12.066 0c-.862.862-6.75 7.125-9.549 18.85-34.27-18.475-52.685-54.195-52.685-81.084 0-30.959 15.488-54.775 15.633-54.997 2.612-3.926 1.553-9.225-2.363-11.836zm97.758 136.115c3.226-1.015 11.375-1.015 16.973-1.015 5.598 0 13.747 0 16.981 1.015-.896 5.675-8.687 16.051-16.981 16.051-8.278 0-16.06-10.351-16.973-16.051zM256 315.733c16.145 0 27.281-8.311 34.133-18.21 6.852 9.899 17.988 18.21 34.133 18.21.785 0 1.579-.051 2.355-.085-5.905 8.201-16.836 17.152-36.489 17.152-19.413 0-30.362-8.943-36.343-17.143.743.034 1.477.076 2.211.076zm85.419 128.478c.213-14.131 1.05-44.134 4.156-67.618.614-4.668-2.662-8.96-7.339-9.574-4.676-.657-8.96 2.671-9.574 7.339-3.243 24.482-4.096 54.818-4.309 69.376h-.085a8.53 8.53 0 0 0-8.533 8.533 8.53 8.53 0 0 0 8.533 8.533h8.533c25.6 0 25.6 12.843 25.6 17.067 0 11.204-12.877 17.067-25.6 17.067h-8.533c-14.114 0-25.6-11.486-25.6-25.6V384a8.536 8.536 0 0 0-8.533-8.533 8.536 8.536 0 0 0-8.533 8.533v85.333c0 14.114-11.486 25.6-25.6 25.6h-8.533c-12.723 0-25.6-5.862-25.6-17.067 0-4.224 0-17.067 25.6-17.067H256a8.536 8.536 0 0 0 8.533-8.533 8.536 8.536 0 0 0-8.533-8.533h-.077c-.222-14.541-1.075-44.826-4.318-69.282-.606-4.668-4.907-7.945-9.574-7.339-4.676.614-7.962 4.907-7.339 9.583 3.106 23.432 3.934 53.393 4.156 67.516-21.487 2.509-34.048 14.686-34.048 33.655 0 19.78 17.946 34.133 42.667 34.133H256c13.943 0 26.342-6.724 34.133-17.092 7.791 10.368 20.19 17.092 34.133 17.092h8.533c24.721 0 42.667-14.353 42.667-34.133.001-18.969-12.56-31.146-34.047-33.655zm-153.686 50.722H179.2c-12.723 0-25.6-5.862-25.6-17.067 0-4.224 0-17.067 25.6-17.067 3.132 0 5.999-1.732 7.492-4.489a8.56 8.56 0 0 0-.367-8.738c-.162-.247-15.659-24.559-15.659-72.107 0-11.375 2.884-21.231 8.585-29.312 2.722-3.849 1.8-9.173-2.048-11.887a8.523 8.523 0 0 0-11.887 2.048c-7.305 10.342-11.085 22.648-11.537 36.506-7.091-2.731-16.811-8.073-24.55-18.62-12.143-16.529-15.471-40.439-9.899-71.074 4.215-23.194-8.892-37.606-22.852-41.182-11.989-3.063-26.496 1.152-33.664 14.541-17.169 2.901-28.681 18.347-28.681 32.367 0 4.873 1.434 9.173 4.139 12.433 3.166 3.814 7.885 5.914 13.269 5.914 18.79 0 25.6-15.309 25.6-25.6V266.06c2.97-7.142 9.609-8.986 15.095-7.578 6.571 1.681 12.732 8.235 10.3 21.589-6.443 35.43-2.091 63.77 12.928 84.233 12.612 17.169 29.414 24.03 38.716 26.65 1.724 25.122 7.305 43.196 11.819 53.965-18.679 3.627-29.466 15.377-29.466 32.947 0 19.78 17.946 34.133 42.667 34.133h8.533c4.71 0 8.533-3.823 8.533-8.533s-3.822-8.533-8.533-8.533zM60.075 281.498c-.094 3.942-1.655 8.636-8.627 8.943-.444-.759-.546-4.275 1.852-8.439.956-1.673 3.089-4.719 6.775-6.784v6.28z"/><path d="M238.933 166.4c0-7.057-5.743-12.8-12.8-12.8s-12.8 5.743-12.8 12.8 5.743 12.8 12.8 12.8 12.8-5.743 12.8-12.8zm175.335 278.519c5.402-12.885 12.399-36.053 12.399-69.453 0-14.942-3.925-28.092-11.674-39.091-2.705-3.857-8.021-4.779-11.895-2.074a8.543 8.543 0 0 0-2.057 11.895c5.675 8.064 8.559 17.911 8.559 29.269 0 47.548-15.497 71.859-15.633 72.064a8.554 8.554 0 0 0-.427 8.764 8.538 8.538 0 0 0 7.526 4.506c25.6 0 25.6 12.843 25.6 17.067 0 11.204-12.877 17.067-25.6 17.067h-8.533c-4.719 0-8.533 3.823-8.533 8.533s3.814 8.533 8.533 8.533h8.533c24.721 0 42.667-14.353 42.667-34.133 0-17.569-10.786-29.32-29.465-32.947zm-54.75-218.828a8.535 8.535 0 0 0 11.64 3.191c25.079-14.276 29.611-39.049 29.781-40.107.802-4.634-2.313-9.054-6.955-9.847-4.71-.819-9.062 2.321-9.856 6.963-.034.171-3.26 17.826-21.419 28.16-4.096 2.33-5.529 7.544-3.191 11.64z"/><path d="M477.867 51.2c0-28.237-22.963-51.2-51.2-51.2-18.355 0-34.125 8.883-43.059 23.586C356.275 8.311 324.096 0 290.133 0c-34.031 0-66.295 8.346-93.679 23.697C187.213 9.088 171.366 0 153.6 0c-28.237 0-51.2 22.963-51.2 51.2 0 18.944 10.146 35.337 26.556 43.964-11.964 24.832-18.022 53.043-18.022 84.036 0 52.915 14.763 94.541 43.878 123.725a8.539 8.539 0 0 0 11.503.521l4.352-3.627v12.297a8.532 8.532 0 0 0 3.712 7.04c10.726 7.33 22.861 13.449 36.062 18.185.947.341 1.92.503 2.876.503a8.538 8.538 0 0 0 8.03-5.658c1.596-4.437-.717-9.327-5.154-10.914-10.317-3.695-19.866-8.32-28.459-13.756V281.6a8.55 8.55 0 0 0-4.915-7.731 8.562 8.562 0 0 0-9.079 1.178l-12.16 10.129C139.29 259.61 128 224 128 179.2c0-31.633 6.818-59.972 20.25-84.215a8.544 8.544 0 0 0 .461-7.322 8.574 8.574 0 0 0-5.402-4.966c-14.481-4.463-23.842-16.828-23.842-31.497 0-18.825 15.309-34.133 34.133-34.133 11.776 0 22.281 6.025 28.442 15.718-10.769 7.535-20.599 16.247-29.193 26.103a8.51 8.51 0 0 0 .819 12.032c3.55 3.115 8.934 2.739 12.041-.811 8.755-10.044 19.072-18.628 30.353-25.993.085-.026.179-.008.265-.043 1.195-.461 2.193-1.186 3.038-2.048 23.748-14.635 52.002-23.177 82.236-24.542v17.459c-16.444 1.22-32.623 5.76-46.942 14.037a8.523 8.523 0 0 0-3.115 11.657c2.364 4.087 7.586 5.478 11.657 3.115 11.725-6.776 24.943-10.598 38.4-11.785v8.303c-10.249 1.015-20.335 3.797-29.679 8.482-4.207 2.116-5.914 7.236-3.797 11.452a8.524 8.524 0 0 0 11.451 3.805c6.946-3.49 14.413-5.666 22.025-6.613V102.4a8.536 8.536 0 0 0 8.533 8.533 8.536 8.536 0 0 0 8.533-8.533V77.397c7.595.947 15.053 3.115 21.982 6.588a8.53 8.53 0 0 0 11.46-3.806c2.108-4.215.401-9.344-3.806-11.452-9.327-4.676-19.405-7.45-29.636-8.465v-8.294c13.457 1.186 26.675 5.001 38.391 11.785a8.442 8.442 0 0 0 4.267 1.152c2.953 0 5.82-1.527 7.39-4.267 2.372-4.079.964-9.293-3.106-11.657-14.319-8.277-30.498-12.817-46.942-14.037V17.485c46.498 2.099 88.542 21.026 116.25 53.026a8.516 8.516 0 0 0 6.451 2.944 8.47 8.47 0 0 0 5.581-2.082c3.567-3.081 3.951-8.465.87-12.032-8.747-10.095-18.773-18.995-29.773-26.684 5.862-9.719 16.367-15.59 28.621-15.59 18.825 0 34.133 15.309 34.133 34.133 0 15.07-9.259 27.554-23.578 31.812a8.465 8.465 0 0 0-5.461 4.941 8.526 8.526 0 0 0 .41 7.356c13.338 24.166 20.096 52.395 20.096 83.891 0 44.8-11.29 80.41-33.579 105.975l-12.151-10.129c-2.543-2.125-6.101-2.568-9.088-1.178a8.55 8.55 0 0 0-4.915 7.731v25.916c-8.593 5.444-18.15 10.069-28.476 13.764-4.437 1.596-6.75 6.477-5.154 10.914a8.538 8.538 0 0 0 8.03 5.658c.956 0 1.929-.162 2.876-.503 13.218-4.736 25.352-10.854 36.079-18.193a8.532 8.532 0 0 0 3.712-7.04v-12.297l4.352 3.627c3.396 2.825 8.388 2.603 11.503-.521 29.116-29.184 43.878-70.81 43.878-123.725 0-30.831-5.999-58.914-17.843-83.635 16.298-8.524 26.376-25.045 26.376-44.364z"/><path d="M282.496 157.414c1.451 2.893 4.403 4.719 7.637 4.719s6.187-1.826 7.629-4.719c8.004-16 14.199-20.881 26.505-20.881 4.719 0 8.533-3.823 8.533-8.533s-3.814-8.533-8.533-8.533c-16.299 0-26.334 6.605-34.133 17.382-7.799-10.778-17.835-17.382-34.133-17.382-4.71 0-8.533 3.823-8.533 8.533s3.823 8.533 8.533 8.533c12.304 0 18.499 4.881 26.495 20.881zm71.637-3.814c-7.057 0-12.8 5.743-12.8 12.8s5.743 12.8 12.8 12.8 12.8-5.743 12.8-12.8-5.743-12.8-12.8-12.8zM196.13 186.231c-.819-4.608-5.248-7.748-9.839-6.903-4.651.794-7.765 5.214-6.963 9.847.179 1.058 4.702 25.83 29.781 40.107a8.535 8.535 0 0 0 11.639-3.191c2.33-4.096.905-9.31-3.191-11.639-17.851-10.164-21.282-27.427-21.427-28.221z"/></svg>