<svg xmlns="http://www.w3.org/2000/svg" viewBox="0 0 512 512"><path d="M134.679 196.062a8.658 8.658 0 0 0 1.86.205c3.917 0 7.441-2.705 8.32-6.682 16.111-72.508 72.866-113.971 73.438-114.381a8.556 8.556 0 0 0 3.311-9.011c-.273-1.084-5.171-20.053-18.202-40.695 16.649 11.255 28.049 29.833 28.211 30.106 2.295 3.789 7.134 5.197 11.119 3.234.154-.077 15.565-7.637 30.327-7.637 8.465 0 14.097 2.492 17.067 4.275v38.391c0 4.71 3.823 8.533 8.533 8.533s8.533-3.823 8.533-8.533V55.484c3.004-1.801 8.627-4.284 17.067-4.284 14.763 0 30.174 7.561 30.327 7.637 3.968 1.963 8.815.555 11.119-3.234.162-.273 11.622-18.944 28.305-30.259-13.099 20.702-18.022 39.765-18.295 40.849a8.542 8.542 0 0 0 3.319 9.02c.572.401 57.259 41.609 73.429 114.372.879 3.977 4.412 6.682 8.32 6.682.614 0 1.237-.068 1.86-.205 4.599-1.024 7.501-5.581 6.477-10.18-9.165-41.25-29.884-72.823-47.974-93.892 7.398-20.395 22.639-67.874 10.991-84.745C428.917 2.569 423.942 0 418.13 0c-30.302 0-53.709 27.785-62.882 40.567-7.177-2.765-18.97-6.434-30.985-6.434-11.878 0-20.395 3.482-25.6 6.554-5.205-3.072-13.722-6.554-25.6-6.554-12.015 0-23.808 3.669-30.984 6.434C232.906 27.785 209.499 0 179.197 0c-5.811 0-10.786 2.569-14.012 7.245-11.648 16.87 3.593 64.35 10.991 84.745-18.091 21.069-38.81 52.642-47.974 93.892-1.024 4.599 1.877 9.156 6.477 10.18zM419.265 19.925c1.724 8.986-2.935 32.836-11.281 57.958-5.751-5.675-10.709-9.984-14.114-12.757 3.055-9.088 10.82-28.399 25.395-45.201zM178.037 19.9c14.592 16.802 22.366 36.139 25.421 45.227-3.405 2.773-8.363 7.091-14.114 12.757-8.415-25.293-13.082-49.272-11.307-57.984z"/><path d="M257.695 304.495c3.558 7.962 15.172 28.305 40.969 28.305s37.41-20.343 40.969-28.305c12.049-4.727 18.765-15.573 18.765-31.428 0-43.546-8.602-69.862-8.969-70.963-1.493-4.463-6.323-6.886-10.778-5.393-4.471 1.476-6.895 6.298-5.419 10.778.077.239 8.098 25.037 8.098 65.579 0 12.288-4.787 17.067-17.067 17.067-1.331 0-2.918-.265-4.608-.666 2.731-3.789 4.608-8.969 4.608-16.401 0-2.85-1.237-17.067-25.6-17.067-23.757 0-25.6 13.065-25.6 17.067 0 7.433 1.877 12.612 4.608 16.401-1.69.401-3.277.666-4.608.666-12.288 0-17.067-4.779-17.067-17.067 0-40.542 8.021-65.34 8.098-65.579 1.476-4.48-.947-9.301-5.41-10.778-4.471-1.493-9.293.93-10.786 5.393-.367 1.101-8.969 27.418-8.969 70.963.001 15.855 6.717 26.701 18.766 31.428zm40.969-31.428c5.001 0 7.484.828 8.516 1.314-.154 5.726-1.502 7.219-8.516 7.219-7.074 0-8.388-1.519-8.516-7.356 1.169-.503 3.805-1.177 8.516-1.177zm0 26.658c4.608 2.236 12.237 5.495 19.61 6.835-4.122 4.693-10.411 9.173-19.61 9.173s-15.488-4.48-19.61-9.173c7.373-1.34 15.002-4.599 19.61-6.835zm-95.94 7.731c-1.451.358-31.36 8.354-38.886 48.538-16.964-16.179-34.756-27.529-50.859-37.726-28.322-17.911-49.442-31.283-52.787-61.926 30.455 2.44 40.397 17.621 52.702 36.42 8.61 13.15 18.372 28.058 36.309 38.818 4.045 2.415 9.284 1.118 11.708-2.918a8.528 8.528 0 0 0-2.918-11.708c-14.592-8.755-22.477-20.796-30.822-33.544-14.31-21.862-29.116-44.476-75.972-44.476a8.536 8.536 0 0 0-8.533 8.533c0 46.507 29.722 65.314 61.184 85.222 18.714 11.844 39.817 25.284 58.368 46.174.469 31.531 7.108 53.623 12.314 66.057-18.68 3.627-29.466 15.377-29.466 32.947 0 19.78 17.946 34.133 42.667 34.133h8.533c4.71 0 8.533-3.823 8.533-8.533s-3.823-8.533-8.533-8.533h-8.533c-12.723 0-25.6-5.862-25.6-17.067 0-4.224 0-17.067 25.6-17.067 3.132 0 5.999-1.732 7.492-4.489a8.56 8.56 0 0 0-.367-8.738c-.162-.247-15.659-24.559-15.659-72.107 0-43.375 26.624-51.166 27.674-51.456 4.565-1.143 7.347-5.769 6.204-10.351-1.146-4.565-5.78-7.346-10.353-6.203zm147.31 136.772c.444-14.199 2.091-45.09 8.192-75.622a8.518 8.518 0 0 0-6.69-10.035 8.504 8.504 0 0 0-10.035 6.69c-6.417 32.094-8.107 63.735-8.542 78.473h-.162a8.536 8.536 0 0 0-8.533 8.533 8.536 8.536 0 0 0 8.533 8.533h8.533c25.6 0 25.6 12.843 25.6 17.067 0 11.204-12.877 17.067-25.6 17.067h-8.533c-14.114 0-25.6-11.486-25.6-25.6V384c0-4.71-3.823-8.533-8.533-8.533s-8.533 3.823-8.533 8.533v85.333c0 14.114-11.486 25.6-25.6 25.6h-8.533c-12.723 0-25.6-5.862-25.6-17.067 0-4.224 0-17.067 25.6-17.067h8.533a8.536 8.536 0 0 0 8.533-8.533 8.536 8.536 0 0 0-8.533-8.533h-.162c-.435-14.737-2.125-46.379-8.533-78.473a8.512 8.512 0 0 0-10.044-6.69c-4.625.922-7.62 5.419-6.69 10.035 6.101 30.532 7.748 61.423 8.201 75.622-21.444 2.517-33.971 14.694-33.971 33.638 0 19.78 17.946 34.133 42.667 34.133h8.533c13.943 0 26.342-6.724 34.133-17.092 7.791 10.368 20.19 17.092 34.133 17.092h8.533c24.721 0 42.667-14.353 42.667-34.133-.001-18.942-12.528-31.119-33.964-33.637zm72.764.691c5.402-12.885 12.399-36.053 12.399-69.453 0-57.207-38.938-67.593-40.593-68.011-4.548-1.126-9.097 1.604-10.283 6.127s1.545 9.173 6.05 10.402c1.135.316 27.759 8.107 27.759 51.482 0 47.548-15.497 71.859-15.633 72.064a8.536 8.536 0 0 0-.427 8.764 8.538 8.538 0 0 0 7.526 4.506c25.6 0 25.6 12.843 25.6 17.067 0 11.204-12.877 17.067-25.6 17.067h-8.533c-4.71 0-8.533 3.823-8.533 8.533s3.823 8.533 8.533 8.533h8.533c24.721 0 42.667-14.353 42.667-34.133.001-17.57-10.785-29.321-29.465-32.948z"/><path d="M468.895 236.237c-17.792-53.367-69.436-88.277-71.629-89.737-2.603-1.732-5.939-1.877-8.704-.418-2.765 1.451-4.514 4.335-4.565 7.458-.009.794-.521 19.686-19.763 26.095-4.471 1.493-6.895 6.332-5.402 10.795 1.493 4.471 6.323 6.904 10.795 5.402 16.085-5.367 24.516-16.87 28.467-27.29 14.071 11.52 38.989 34.987 51.686 65.314-27.819 10.863-73.515 35.593-90.487 69.53-7.33 14.669-30.276 37.948-60.629 37.948-30.353 0-53.299-23.279-60.629-37.948-16.973-33.937-62.669-58.667-90.487-69.53 12.698-30.327 37.615-53.794 51.686-65.314 3.951 10.419 12.382 21.922 28.467 27.29 4.489 1.502 9.301-.93 10.795-5.402 1.493-4.463-.93-9.301-5.402-10.795-19.243-6.409-19.755-25.301-19.763-26.035a8.545 8.545 0 0 0-4.506-7.526 8.512 8.512 0 0 0-8.764.427c-2.193 1.459-53.837 36.369-71.629 89.737-1.493 4.463.93 9.301 5.402 10.795 26.411 8.806 73.916 33.963 88.926 63.983 9.532 19.046 37.598 47.386 75.904 47.386s66.372-28.339 75.904-47.386c15.01-30.02 62.515-55.177 88.926-63.983 4.471-1.495 6.895-6.333 5.401-10.796z"/><path d="M345.597 145.067c-7.057 0-12.8 5.743-12.8 12.8s5.743 12.8 12.8 12.8 12.8-5.743 12.8-12.8-5.743-12.8-12.8-12.8zm-81.067 12.8c0-7.057-5.743-12.8-12.8-12.8s-12.8 5.743-12.8 12.8 5.743 12.8 12.8 12.8c7.058 0 12.8-5.743 12.8-12.8zm116.967-23.834a8.525 8.525 0 0 0 0-12.066c-1.843-1.843-12.433-11.034-40.166-11.034-19.797 0-34.833 8.789-42.667 14.592-7.834-5.803-22.869-14.592-42.667-14.592-27.733 0-38.323 9.19-40.166 11.034-3.251 3.243-3.226 8.371-.094 11.733 3.115 3.379 8.474 3.533 11.947.538.068-.06 7.45-6.238 28.314-6.238 21.555 0 36.506 14.447 36.634 14.566a8.51 8.51 0 0 0 6.033 2.5 8.509 8.509 0 0 0 6.033-2.5c.144-.145 14.821-14.566 36.632-14.566 20.258 0 27.802 5.828 28.288 6.221 3.354 3.149 8.611 3.089 11.879-.188z"/></svg>