<svg xmlns="http://www.w3.org/2000/svg" viewBox="0 0 463 463"><path d="M455.5 384h-8c-7.744 0-29.473-16.694-48.5-31.699V323.25l19.4-14.55c7.89-5.917 12.6-15.337 12.6-25.2v-4c0-4.142-3.357-7.5-7.5-7.5s-7.5 3.358-7.5 7.5v4a16.577 16.577 0 0 1-6.6 13.2l-10.4 7.8v-49c0-4.142-3.357-7.5-7.5-7.5s-7.5 3.358-7.5 7.5v84.964c-16.115-12.65-32.881-25.382-49-35.136V243.25l19.4-14.55c7.89-5.918 12.6-15.338 12.6-25.2v-12c0-4.142-3.357-7.5-7.5-7.5s-7.5 3.358-7.5 7.5v12a16.577 16.577 0 0 1-6.6 13.2l-10.4 7.8v-49c0-4.142-3.357-7.5-7.5-7.5s-7.5 3.358-7.5 7.5v81l-10.4-7.8a16.579 16.579 0 0 1-6.6-13.2v-44c0-4.142-3.357-7.5-7.5-7.5s-7.5 3.358-7.5 7.5v44c0 9.862 4.71 19.282 12.6 25.2l19.4 14.55v21.854c-11.596-5.634-22.61-9.097-32.5-9.097-12.901 0-28.817 5.438-48.625 16.6-22.808-18.516-45.241-32.6-63.875-32.6-20.844 0-46.441 17.614-72 39.353V239.5c0-4.142-3.357-7.5-7.5-7.5s-7.5 3.358-7.5 7.5v49l-10.4-7.8a16.579 16.579 0 0 1-6.6-13.2v-4c0-4.142-3.357-7.5-7.5-7.5s-7.5 3.358-7.5 7.5v4c0 9.862 4.71 19.282 12.6 25.2L88 307.25v17.276c-6.682 6.018-13.297 12.137-19.756 18.113-12.367 11.445-24.049 22.255-33.786 30.021C21.269 383.182 16.612 384 15.5 384h-8c-4.143 0-7.5 3.358-7.5 7.5s3.357 7.5 7.5 7.5h448c4.143 0 7.5-3.358 7.5-7.5s-3.357-7.5-7.5-7.5zM384 359.567V384h-49v-60.919c16.42 10.771 33.579 24.294 49 36.486zm-96.5-56.561c9.168 0 20.385 4.288 32.5 10.965v62.125a159.355 159.355 0 0 1-4.458-3.435c-9.737-7.767-21.419-18.577-33.786-30.021-9.925-9.184-20.218-18.706-30.559-27.675 14.977-7.932 27.176-11.959 36.303-11.959zm-112.5-16c24.55 0 64.481 36.952 96.567 66.643 13.621 12.604 24.788 22.824 34.155 30.351H103v-52.751c26.101-23.13 53.444-44.243 72-44.243zm-96.567 66.643c3.121-2.888 6.319-5.847 9.567-8.832V384H44.278c9.366-7.527 20.534-17.746 34.155-30.351zM399 384v-12.652c6.201 4.812 11.795 9.039 16.877 12.652H399zM152 135.5c0 21.78 17.72 39.5 39.5 39.5s39.5-17.72 39.5-39.5S213.28 96 191.5 96 152 113.72 152 135.5zm64 0c0 13.509-10.99 24.5-24.5 24.5S167 149.009 167 135.5s10.99-24.5 24.5-24.5 24.5 10.991 24.5 24.5z"/><path d="M191.5 207c32.621 0 61.092-22.034 69.234-53.583a7.5 7.5 0 0 0-14.524-3.749C239.777 174.592 217.279 192 191.5 192c-25.798 0-48.3-17.423-54.72-42.369a7.497 7.497 0 0 0-9.133-5.394 7.5 7.5 0 0 0-5.395 9.133C130.381 184.946 158.855 207 191.5 207zm-63.85-80.256a7.503 7.503 0 0 0 9.134-5.391C143.21 96.416 165.71 79 191.5 79c25.798 0 48.3 17.423 54.72 42.369a7.504 7.504 0 0 0 7.259 5.632 7.5 7.5 0 0 0 7.269-9.372C252.619 86.054 224.145 64 191.5 64c-32.635 0-61.107 22.045-69.241 53.61a7.5 7.5 0 0 0 5.391 9.134z"/></svg>