<svg xmlns="http://www.w3.org/2000/svg" viewBox="0 0 463.004 463.004"><path d="M455.502 292.003h-56.588l22.938-36.51a7.494 7.494 0 0 0 1.004-2.519l8-40a7.5 7.5 0 0 0-5.884-8.825c-4.06-.809-8.014 1.822-8.825 5.884l-7.729 38.648-27.218 43.322h-86.816l15.101-19.978a7.499 7.499 0 0 0 1.49-3.899l7.881-94.561 21.646-43.292 31.945-5.324-20.061 60.183a7.52 7.52 0 0 0-.348 1.625l-3.2 32.001a7.5 7.5 0 1 0 14.926 1.492l3.117-31.169 22.393-67.178 67.854-15.079a7.499 7.499 0 0 0 5.694-8.948 7.498 7.498 0 0 0-8.948-5.694l-71.801 15.956-47.806 7.968a7.502 7.502 0 0 0-5.475 4.044l-9.927 19.854h-174.73l-9.927-19.854a7.502 7.502 0 0 0-5.88-4.1l-71.209-7.912-47.245-15.75a7.499 7.499 0 0 0-9.487 4.744 7.5 7.5 0 0 0 4.743 9.487l44.443 14.814 22.549 67.649 3.117 31.169c.413 4.121 4.098 7.136 8.209 6.717a7.5 7.5 0 0 0 6.717-8.209l-3.2-32.001a7.52 7.52 0 0 0-.348-1.625l-20.293-60.88 56.294 6.255 21.529 43.059 7.881 94.561a7.496 7.496 0 0 0 1.49 3.899l15.101 19.978h-35.21l-6.635-26.333a7.497 7.497 0 0 0-9.105-5.44 7.499 7.499 0 0 0-5.439 9.105l5.712 22.667H7.502c-4.143 0-7.5 3.358-7.5 7.5s3.357 7.5 7.5 7.5h448a7.5 7.5 0 1 0 0-15.001zm-288.706-27.288l-7.82-93.834a7.49 7.49 0 0 0-.766-2.731l-6.573-13.146h40.365v24.5c0 4.142 3.357 7.5 7.5 7.5s7.5-3.358 7.5-7.5v-24.5h17v64.5c0 4.142 3.357 7.5 7.5 7.5s7.5-3.358 7.5-7.5v-64.5h17v40.5c0 4.142 3.357 7.5 7.5 7.5s7.5-3.358 7.5-7.5v-40.5h40.365l-6.573 13.146a7.49 7.49 0 0 0-.766 2.731l-7.82 93.834-20.628 27.289h-4.578v-64.5c0-4.142-3.357-7.5-7.5-7.5s-7.5 3.358-7.5 7.5v64.5h-49v-8.5c0-4.142-3.357-7.5-7.5-7.5s-7.5 3.358-7.5 7.5v8.5h-4.578l-20.628-27.289zm144.706 59.288h-144c-4.143 0-7.5 3.358-7.5 7.5s3.357 7.5 7.5 7.5h144c4.143 0 7.5-3.358 7.5-7.5s-3.357-7.5-7.5-7.5zm-176 0h-64c-4.143 0-7.5 3.358-7.5 7.5s3.357 7.5 7.5 7.5h64c4.143 0 7.5-3.358 7.5-7.5s-3.357-7.5-7.5-7.5zm224 0h-16c-4.143 0-7.5 3.358-7.5 7.5s3.357 7.5 7.5 7.5h16c4.143 0 7.5-3.358 7.5-7.5s-3.357-7.5-7.5-7.5zm-64 32h-79.998c-4.143 0-7.5 3.358-7.5 7.5s3.357 7.5 7.5 7.5h79.998c4.143 0 7.5-3.358 7.5-7.5s-3.357-7.5-7.5-7.5zm-111.999 0h-16.001c-4.143 0-7.5 3.358-7.5 7.5s3.357 7.5 7.5 7.5h16.001c4.143 0 7.5-3.358 7.5-7.5s-3.357-7.5-7.5-7.5z"/><path d="M87.493 275.004a7.5 7.5 0 0 0 7.472-8.247l-1.6-15.997a7.494 7.494 0 0 0-8.209-6.717 7.5 7.5 0 0 0-6.717 8.209l1.6 15.997a7.502 7.502 0 0 0 7.454 6.755zm258.146-24.244l-1.6 15.997a7.5 7.5 0 0 0 7.472 8.247 7.501 7.501 0 0 0 7.454-6.754l1.6-15.997a7.5 7.5 0 0 0-6.717-8.209 7.496 7.496 0 0 0-8.209 6.716zm-114.137 24.243a7.5 7.5 0 0 0 7.5-7.5v-16c0-4.142-3.357-7.5-7.5-7.5s-7.5 3.358-7.5 7.5v16a7.5 7.5 0 0 0 7.5 7.5zm-32-16a7.5 7.5 0 0 0 7.5-7.5v-40c0-4.142-3.357-7.5-7.5-7.5s-7.5 3.358-7.5 7.5v40a7.5 7.5 0 0 0 7.5 7.5z"/></svg>