<svg xmlns="http://www.w3.org/2000/svg" viewBox="0 0 463 463"><path d="M455.5 296.572h-89.248c.005-.069.015-.137.018-.206l45.484-18.84a7.5 7.5 0 0 0-5.74-13.858l-44.97 18.627a142.773 142.773 0 0 0-22.889-34.271l40.451-40.452h75.424a7.5 7.5 0 0 0 7.067-4.988c1.28-3.602 1.903-7.041 1.903-10.512 0-17.369-14.131-31.5-31.5-31.5-3.237 0-6.412.51-9.494 1.521-5.865-6.048-13.908-9.521-22.506-9.521s-16.642 3.473-22.506 9.521a30.288 30.288 0 0 0-9.494-1.521c-17.369 0-31.5 14.131-31.5 31.5 0 3.471.623 6.91 1.903 10.512a7.5 7.5 0 0 0 7.067 4.988h12.424l-29.867 29.867a145.538 145.538 0 0 0-13.524-10.793 143.637 143.637 0 0 0-20.727-12.116l18.628-44.973a7.5 7.5 0 1 0-13.858-5.74l-18.619 44.951c-12.934-4.581-26.517-7.266-40.427-7.98v-41.216h46.4a7.5 7.5 0 0 0 7.067-4.988c1.704-4.795 2.533-9.355 2.533-13.94 0-23.041-18.745-41.786-41.786-41.786-4.954 0-9.803.905-14.484 2.698-7.872-8.945-19.139-14.127-31.23-14.127s-23.358 5.182-31.23 14.127c-4.681-1.793-9.53-2.698-14.484-2.698-15.886 0-30.059 8.78-37.17 22.681a41.612 41.612 0 0 0-13.116-2.11c-12.092 0-23.358 5.182-31.23 14.127-4.681-1.793-9.53-2.698-14.484-2.698C42.745 130.857 24 149.602 24 172.643c0 4.585.829 9.145 2.533 13.94a7.5 7.5 0 0 0 7.067 4.988h34.793l56.452 56.452a142.73 142.73 0 0 0-22.889 34.272l-44.971-18.628a7.5 7.5 0 1 0-5.74 13.858l45.471 18.835c.003.071.014.14.018.211H7.5a7.5 7.5 0 0 0 0 15h448a7.5 7.5 0 0 0 0-14.999zM351 192.072c0-9.098 7.402-16.5 16.5-16.5 2.748 0 5.46.749 8.063 2.224a7.499 7.499 0 0 0 10.034-2.509c3.063-4.831 8.26-7.715 13.903-7.715s10.84 2.884 13.903 7.715a7.499 7.499 0 0 0 10.034 2.509c2.603-1.476 5.316-2.224 8.063-2.224 9.098 0 16.5 7.402 16.5 16.5 0 .166-.003.333-.009.5H351.01c-.007-.168-.01-.334-.01-.5zm-.086 104.5H112.086c9.25-23.251 24.941-43.155 45.533-57.651 21.697-15.275 47.245-23.349 73.88-23.349 26.631 0 52.174 8.071 73.87 23.341 20.597 14.496 36.293 34.403 45.545 57.659zM224 200.788c-13.909.714-27.493 3.399-40.427 7.98l-7.123-17.196h12.95a7.5 7.5 0 0 0 7.067-4.988c1.704-4.795 2.533-9.355 2.533-13.94a41.6 41.6 0 0 0-2.105-13.071H224v41.215zm-62.214-86.931c4.488 0 8.896 1.21 13.104 3.596a7.5 7.5 0 0 0 10.034-2.508c4.968-7.837 13.408-12.516 22.576-12.516s17.608 4.679 22.576 12.516a7.499 7.499 0 0 0 10.034 2.508c4.208-2.386 8.616-3.596 13.104-3.596 14.77 0 26.786 12.016 26.786 26.786 0 1.29-.112 2.594-.339 3.929H188.14c-7.65-8.42-18.681-13.714-30.926-13.714-4.954 0-9.803.905-14.484 2.698a41.977 41.977 0 0 0-4.964-4.778c4.493-9.132 13.691-14.921 24.02-14.921zM39 172.643c0-14.77 12.016-26.786 26.786-26.786 4.488 0 8.896 1.21 13.104 3.596a7.5 7.5 0 0 0 10.034-2.508c4.968-7.837 13.408-12.516 22.576-12.516s17.608 4.679 22.576 12.516a7.5 7.5 0 0 0 10.034 2.508c4.208-2.386 8.616-3.596 13.104-3.596 14.77 0 26.786 12.016 26.786 26.786 0 1.29-.112 2.594-.339 3.929H39.339a23.368 23.368 0 0 1-.339-3.929zm121.214 18.929l9.51 22.958a143.708 143.708 0 0 0-20.739 12.125 145.583 145.583 0 0 0-13.512 10.784l-45.867-45.867h70.608zm151.286 137h-144a7.5 7.5 0 0 0 0 15h144a7.5 7.5 0 0 0 0-15zm-176 0h-64a7.5 7.5 0 0 0 0 15h64a7.5 7.5 0 0 0 0-15zm224 0h-16a7.5 7.5 0 0 0 0 15h16a7.5 7.5 0 0 0 0-15zm-64 32h-79.999a7.5 7.5 0 0 0 0 15H295.5a7.5 7.5 0 0 0 0-15zm-111.999 0H167.5a7.5 7.5 0 0 0 0 15h16.001a7.5 7.5 0 0 0 0-15z"/></svg>