<svg xmlns="http://www.w3.org/2000/svg" viewBox="0 0 463 463"><path d="M455.5 220H447v-17.265c2.809.172 5.642.265 8.5.265a7.5 7.5 0 0 0 0-15C397.878 188 351 148.299 351 99.5v-24a7.5 7.5 0 0 0-15 0v24c0 48.799-46.878 88.5-104.5 88.5S127 148.299 127 99.5v-24a7.5 7.5 0 0 0-15 0v24C112 148.299 65.122 188 7.5 188a7.5 7.5 0 0 0 0 15c2.858 0 5.691-.093 8.5-.265V220H7.5a7.5 7.5 0 0 0 0 15h448a7.5 7.5 0 0 0 0-15zm-23.5 0h-17v-23.124a132.97 132.97 0 0 0 17 4.109V220zm-32 0h-17v-38.284a123.629 123.629 0 0 0 17 9.421V220zm-32-50.09V220h-17v-70.346c4.718 7.345 10.438 14.143 17 20.256zm-32-20.256V220h-17v-50.09c6.562-6.113 12.282-12.911 17-20.256zm-49 41.483a123.523 123.523 0 0 0 17-9.421V220h-17v-28.863zM272 220h-17v-19.014a132.97 132.97 0 0 0 17-4.109V220zm-32-17.265V220h-17v-17.265c2.809.172 5.642.265 8.5.265s5.691-.093 8.5-.265zm-49-5.859a132.97 132.97 0 0 0 17 4.109V220h-17v-23.124zM176 220h-17v-38.284a123.629 123.629 0 0 0 17 9.421V220zm-32-50.09V220h-17v-70.346c4.718 7.345 10.438 14.143 17 20.256zm-32-20.256V220H95v-50.09c6.562-6.113 12.282-12.911 17-20.256zM80 220H63v-28.863a123.523 123.523 0 0 0 17-9.421V220zm-49-19.014a132.97 132.97 0 0 0 17-4.109V220H31v-19.014zM455.5 267a7.5 7.5 0 0 0 0-15H7.5a7.5 7.5 0 0 0 0 15H112v17h-.5c-8.547 0-15.5 6.953-15.5 15.5V316H7.5a7.5 7.5 0 0 0 0 15h448a7.5 7.5 0 0 0 0-15H367v-16.5c0-8.547-6.953-15.5-15.5-15.5h-.5v-17h104.5zM111 299.5a.5.5 0 0 1 .5-.5h16a.5.5 0 0 1 .5.5V316h-17v-16.5zm241 0V316h-17v-16.5a.5.5 0 0 1 .5-.5h16a.5.5 0 0 1 .5.5zM336 284h-.5c-8.547 0-15.5 6.953-15.5 15.5V316H143v-16.5c0-8.547-6.953-15.5-15.5-15.5h-.5v-17h209v17zm-24.5 64h-144a7.5 7.5 0 0 0 0 15h144a7.5 7.5 0 0 0 0-15zm-176 0h-64a7.5 7.5 0 0 0 0 15h64a7.5 7.5 0 0 0 0-15zm224 0h-16a7.5 7.5 0 0 0 0 15h16a7.5 7.5 0 0 0 0-15zm-64 32h-79.999a7.5 7.5 0 0 0 0 15H295.5a7.5 7.5 0 0 0 0-15zm-111.999 0H167.5a7.5 7.5 0 0 0 0 15h16.001a7.5 7.5 0 0 0 0-15z"/></svg>