<svg xmlns="http://www.w3.org/2000/svg" viewBox="0 0 463 463"><path d="M455.5 332H339.538l18.663-37.132a7.502 7.502 0 0 0-.386-7.414 7.512 7.512 0 0 0-6.574-3.45L191 289.53v-15.106l193.098-15.448a7.5 7.5 0 0 0 4.226-13.218L191 80.005V59.5a7.5 7.5 0 0 0-15 0v70.517l-55.435 134.628a7.502 7.502 0 0 0 5.874 10.281l49.561 7.08v8.042l-56.758 1.957a7.498 7.498 0 0 0-7.094 8.976l6.243 31.02H7.5a7.5 7.5 0 0 0 0 15h448a7.5 7.5 0 0 0 0-15.001zm-90.825-86.518L191 259.376V99.594l173.675 145.888zm-226.569 15.957L176 169.412v97.44l-37.894-5.413zm-9.508 45.252l210.522-7.26L322.75 332H133.691l-5.093-25.309zM311.5 364h-144a7.5 7.5 0 0 0 0 15h144a7.5 7.5 0 0 0 0-15zm-176 0h-64a7.5 7.5 0 0 0 0 15h64a7.5 7.5 0 0 0 0-15zm224 0h-16a7.5 7.5 0 0 0 0 15h16a7.5 7.5 0 0 0 0-15zm-64 32h-79.999a7.5 7.5 0 0 0 0 15H295.5a7.5 7.5 0 0 0 0-15zm-111.999 0H167.5a7.5 7.5 0 0 0 0 15h16.001a7.5 7.5 0 0 0 0-15z"/></svg>