<svg xmlns="http://www.w3.org/2000/svg" viewBox="0 0 463 463"><path d="M455.5 344.001h-24c-9.253 0-30.236-8.188-54.533-17.668-10.477-4.088-21.934-8.557-33.967-12.955V189.767c9.29-3.138 16-11.93 16-22.266v-5.449c12.534 4.178 24.725 14.078 25.001 37.537a7.5 7.5 0 0 0 7.497 7.412h.09a7.5 7.5 0 0 0 7.411-7.588c-.33-28.087-14.34-46.247-39.999-52.737v-1.003c9.335-3.739 19.634-5.362 30.024-4.55 17.777 1.388 33.64 9.598 44.663 23.118a7.481 7.481 0 0 0 5.817 2.76 7.46 7.46 0 0 0 4.734-1.688 7.499 7.499 0 0 0 1.073-10.552c-13.64-16.728-33.216-26.882-55.12-28.593-14.706-1.146-29.278 1.699-42.083 7.949 3.525-6.236 8.681-12.107 14.919-16.619 8.3-6.002 25.85-14.877 50.123-6.875a7.5 7.5 0 1 0 4.698-14.246c-22.687-7.479-45.276-4.293-63.611 8.967a68.016 68.016 0 0 0-2.242 1.701c6.054-10.502 14.807-17.857 25.18-20.235 4.037-.925 6.56-4.948 5.635-8.986s-4.942-6.559-8.986-5.635c-16.784 3.846-30.415 16.651-38.324 34.396-7.909-17.745-21.54-30.55-38.324-34.396-4.043-.928-8.062 1.598-8.986 5.635s1.598 8.061 5.635 8.986c10.373 2.377 19.126 9.733 25.18 20.235a65.647 65.647 0 0 0-2.242-1.701c-18.335-13.261-40.925-16.445-63.611-8.967a7.5 7.5 0 0 0-4.774 9.471 7.5 7.5 0 0 0 9.472 4.775c24.271-8.002 41.823.871 50.123 6.875 6.237 4.511 11.393 10.382 14.918 16.617-12.806-6.251-27.378-9.097-42.082-7.947-21.904 1.71-41.48 11.865-55.12 28.593a7.499 7.499 0 0 0 1.073 10.552 7.467 7.467 0 0 0 4.734 1.688 7.483 7.483 0 0 0 5.817-2.76c11.023-13.52 26.886-21.73 44.663-23.118 10.392-.812 20.69.811 30.024 4.55v1.003c-25.659 6.489-39.669 24.65-39.999 52.737a7.5 7.5 0 0 0 7.411 7.588h.09a7.5 7.5 0 0 0 7.497-7.412c.094-8.028.347-29.17 25.001-37.319v5.23c0 10.336 6.71 19.128 16 22.266v118.295C296.3 297.195 261.921 288 231.5 288s-64.8 9.195-96.5 20.061V157.767c9.29-3.138 16-11.93 16-22.266v-5.449c12.534 4.178 24.725 14.078 25.001 37.537a7.5 7.5 0 0 0 7.497 7.412h.09a7.5 7.5 0 0 0 7.411-7.588c-.33-28.087-14.34-46.247-39.999-52.737v-1.003c9.335-3.739 19.633-5.362 30.024-4.55 17.777 1.388 33.64 9.598 44.663 23.118a7.481 7.481 0 0 0 5.817 2.76 7.46 7.46 0 0 0 4.734-1.688 7.499 7.499 0 0 0 1.073-10.552c-13.64-16.728-33.216-26.882-55.12-28.593-14.706-1.146-29.278 1.699-42.083 7.949 3.525-6.236 8.681-12.107 14.919-16.619 8.3-6.002 25.85-14.877 50.123-6.875a7.5 7.5 0 0 0 4.698-14.246c-22.687-7.479-45.277-4.293-63.611 8.967a68.016 68.016 0 0 0-2.242 1.701c6.054-10.502 14.807-17.857 25.18-20.235 4.037-.925 6.56-4.948 5.635-8.986s-4.942-6.558-8.986-5.635C149.04 44.035 135.409 56.84 127.5 74.585c-7.909-17.745-21.54-30.55-38.324-34.396a7.496 7.496 0 0 0-8.986 5.635 7.5 7.5 0 0 0 5.635 8.986c11.883 2.723 21.647 11.972 27.653 25.011a79.384 79.384 0 0 0-5.028-3.959c-21.118-15.274-47.104-19.46-71.298-11.485a7.5 7.5 0 0 0-4.774 9.471 7.5 7.5 0 0 0 9.472 4.775c19.567-6.451 40.638-3.027 57.81 9.393 5.407 3.911 9.977 8.476 13.407 13.229-12.357-5.646-26.248-8.173-40.258-7.077-21.904 1.71-41.48 11.865-55.12 28.593a7.499 7.499 0 0 0 1.073 10.552 7.467 7.467 0 0 0 4.734 1.688 7.483 7.483 0 0 0 5.817-2.76c11.023-13.52 26.886-21.73 44.663-23.118 10.392-.811 20.69.811 30.024 4.55v1.003c-25.659 6.489-39.669 24.65-39.999 52.737a7.5 7.5 0 0 0 7.411 7.588h.09a7.5 7.5 0 0 0 7.497-7.412c.094-8.028.347-29.17 25.001-37.319v5.23c0 10.336 6.71 19.128 16 22.266v155.611c-12.032 4.398-23.49 8.867-33.967 12.955C61.736 335.812 40.753 344 31.5 344h-24c-4.143 0-7.5 3.358-7.5 7.5s3.357 7.5 7.5 7.5h448a7.5 7.5 0 1 0 0-14.999zM327 159.351a98.89 98.89 0 0 1 8.5-.35c2.154 0 5.108.001 8.5.243v8.257c0 4.687-3.813 8.5-8.5 8.5s-8.5-3.813-8.5-8.5v-8.15zm-208-32a98.89 98.89 0 0 1 8.5-.35c2.154 0 5.108.001 8.5.243v8.257c0 4.687-3.813 8.5-8.5 8.5s-8.5-3.813-8.5-8.5v-8.15zm-37.004 216.65c3.059-1.186 6.216-2.417 9.489-3.694 40.349-15.744 95.609-37.306 140.015-37.306s99.666 21.562 140.015 37.306c3.273 1.277 6.43 2.508 9.489 3.694H81.996zm229.504 32h-144c-4.143 0-7.5 3.358-7.5 7.5s3.357 7.5 7.5 7.5h144c4.143 0 7.5-3.358 7.5-7.5s-3.357-7.5-7.5-7.5zm-176 0h-64c-4.143 0-7.5 3.358-7.5 7.5s3.357 7.5 7.5 7.5h64c4.143 0 7.5-3.358 7.5-7.5s-3.357-7.5-7.5-7.5zm224 0h-16c-4.143 0-7.5 3.358-7.5 7.5s3.357 7.5 7.5 7.5h16c4.143 0 7.5-3.358 7.5-7.5s-3.357-7.5-7.5-7.5zm-64 32h-79.998c-4.143 0-7.5 3.358-7.5 7.5s3.357 7.5 7.5 7.5H295.5c4.143 0 7.5-3.358 7.5-7.5s-3.357-7.5-7.5-7.5zm-111.999 0H167.5c-4.143 0-7.5 3.358-7.5 7.5s3.357 7.5 7.5 7.5h16.001c4.143 0 7.5-3.358 7.5-7.5s-3.357-7.5-7.5-7.5z"/></svg>