<svg xmlns="http://www.w3.org/2000/svg" viewBox="0 0 463 463"><path d="M455.5 384c-48.034 0-76.61-12.492-104.245-24.573C324.909 347.91 297.666 336 255.5 336c-36.417 0-71.335 14.282-102.144 26.882C126.802 373.742 101.721 384 79.5 384H55.154c14.219-6.338 30.437-14.263 48.182-22.934C170.87 328.068 254.917 287 319.5 287c78.971 0 130.992 38.121 131.508 38.506A7.5 7.5 0 0 0 460 313.5c-1.883-1.412-39.723-29.28-101-38.536v-12.7c13.759-2.731 24-12.795 24-24.764 0-5.857-2.852-20.228-7.46-33.233C368.8 185.246 360.937 176 351.5 176c-6.592 0-12.416 4.519-17.626 13.723-1.536-9.212-4.573-21.669-8.669-33.35C316.623 131.898 306.906 120 295.5 120s-21.123 11.898-29.705 36.374c-6.05 17.254-9.795 36.213-9.795 43.883 0 15.447 13.795 28.345 32 31.171v36.221c-43.449-22.454-87.086-31.944-129.882-28.203-34.582 3.024-61.274 14.162-77.944 23.273C58.026 254.214 33.985 248 7.5 248a7.5 7.5 0 0 0 0 15c43.405 0 80.988 18.669 114.147 35.14 14.591 7.248 27.94 13.878 40.541 18.365-22.703 10.204-44.824 21.012-65.437 31.083C58.429 366.314 22.233 384 7.5 384a7.5 7.5 0 0 0 0 15h72c25.17 0 51.577-10.8 79.534-22.234C190.006 364.099 222.033 351 255.5 351c39.031 0 63.666 10.77 89.747 22.171C374.294 385.869 404.331 399 455.5 399a7.5 7.5 0 0 0 0-15zm-136-112c-5.394 0-10.9.265-16.5.767v-41.34c7.2-1.117 13.71-3.806 18.949-7.61-1.254 5.839-1.949 10.797-1.949 13.683 0 11.968 10.241 22.032 24 24.764v10.874A265.063 265.063 0 0 0 319.5 272zm21.407-60.715c4.685-13.967 8.987-19.067 10.593-20.142 1.606 1.075 5.908 6.175 10.593 20.142C365.896 222.622 368 233.982 368 237.5c0 3.899-3.752 7.459-9 9.261V239.5a7.5 7.5 0 0 0-15 0v7.261c-5.248-1.802-9-5.362-9-9.261 0-3.518 2.104-14.878 5.907-26.215zM271 200.257c0-5.593 3.405-23.105 8.95-38.919C287.618 139.47 294.166 135 295.5 135s7.882 4.47 15.55 26.337c5.545 15.814 8.95 33.326 8.95 38.919 0 7.301-7.255 13.687-17 15.911V199.5a7.5 7.5 0 0 0-15 0v16.668c-9.745-2.224-17-8.611-17-15.911zm-142.68 84.449c-9.589-4.763-19.534-9.701-29.895-14.353 15.151-6.916 35.793-13.76 61-15.965 37.499-3.277 75.856 4.422 114.272 22.887-28.88 6.102-59.327 16.942-89.296 29.553-16.065-2.262-34.655-11.478-56.081-22.122z"/><path d="M71.5 135h17.223a39.271 39.271 0 0 0 6.061 14.61l-12.185 12.185a7.5 7.5 0 0 0 5.303 12.803 7.474 7.474 0 0 0 5.303-2.197l12.185-12.185a39.304 39.304 0 0 0 14.61 6.061V183.5a7.5 7.5 0 0 0 15 0v-17.223a39.288 39.288 0 0 0 14.61-6.061l12.185 12.185c1.464 1.464 3.384 2.197 5.303 2.197s3.839-.732 5.303-2.197a7.5 7.5 0 0 0 0-10.606l-12.185-12.185a39.288 39.288 0 0 0 6.061-14.61H183.5a7.5 7.5 0 0 0 0-15h-17.223a39.271 39.271 0 0 0-6.061-14.61l12.185-12.185a7.5 7.5 0 0 0 0-10.606 7.5 7.5 0 0 0-10.606 0L149.61 94.784A39.304 39.304 0 0 0 135 88.723V71.5a7.5 7.5 0 0 0-15 0v17.223a39.288 39.288 0 0 0-14.61 6.061L93.205 82.599a7.5 7.5 0 0 0-10.606 0 7.5 7.5 0 0 0 0 10.606l12.185 12.185A39.288 39.288 0 0 0 88.723 120H71.5a7.5 7.5 0 0 0 0 15zm56-32c13.509 0 24.5 10.991 24.5 24.5S141.009 152 127.5 152 103 141.009 103 127.5s10.991-24.5 24.5-24.5z"/></svg>