<svg xmlns="http://www.w3.org/2000/svg" viewBox="0 0 511.861 511.861"><path d="M383.924 366.795a8.536 8.536 0 0 0-8.533 8.533v72.883c-9.062-8.149-21.009-13.15-34.133-13.15-22.963 0-42.445 15.206-48.913 36.079-5.188 2.074-18.475 6.588-36.42 6.588-17.877 0-31.223-4.523-36.412-6.596-6.477-20.872-25.95-36.07-48.922-36.07-13.116 0-25.062 5.001-34.133 13.15v-72.883a8.53 8.53 0 0 0-8.533-8.533 8.536 8.536 0 0 0-8.533 8.533v119.466c0 9.412 7.663 17.067 17.067 17.067h68.267c9.412 0 17.067-7.654 17.067-17.067v-4.872c8.166 2.415 19.9 4.872 34.133 4.872 14.199 0 25.95-2.466 34.133-4.89v4.89c0 9.412 7.663 17.067 17.067 17.067h68.267c9.412 0 17.067-7.654 17.067-17.067V375.328a8.534 8.534 0 0 0-8.536-8.533zm-204.799 128v-8.533a8.53 8.53 0 0 0-8.533-8.533 8.536 8.536 0 0 0-8.533 8.533v8.533h-25.6v-8.533c0-18.816 15.309-34.133 34.133-34.133 18.833 0 34.133 15.317 34.133 34.133l.009 8.533h-25.609zm170.666 0v-8.533a8.53 8.53 0 0 0-8.533-8.533 8.536 8.536 0 0 0-8.533 8.533v8.533h-25.6v-8.533c0-18.816 15.309-34.133 34.133-34.133 18.833 0 34.133 15.317 34.133 34.133l.009 8.533h-25.609zm125.5-168.167c-.316-.316-31.633-31.983-31.633-62.234v-59.733c0-40.858-12.663-79.241-36.693-111.394 22.886-36.762 25.933-65.161 8.747-82.347-26.385-26.385-72.977 1.297-95.36 17.434-20.488-7.484-42.283-11.426-64.427-11.426-22.093 0-43.853 3.934-64.324 11.392-22.417-16.102-69.026-43.682-95.309-17.425-17.246 17.254-14.217 45.67 8.721 82.398-24.107 32.256-36.821 70.622-36.821 111.369v59.733c0 30.131-31.317 61.918-31.642 62.242a8.545 8.545 0 0 0 3.345 14.123c71.322 23.765 134.912 15.095 177.28-3.985 5.18 8.26 16.862 21.487 38.75 21.487 21.879 0 33.562-13.056 38.741-21.197 11.366 5.12 23.876 9.395 37.231 12.45 14.046 3.209 31.957 5.828 52.966 5.828 25.037 0 54.494-3.721 87.1-14.583a8.548 8.548 0 0 0 5.606-6.135 8.537 8.537 0 0 0-2.278-7.997zm-219.367 14.567c-12.749 0-19.917-7.151-23.415-12.186 9.37-5.47 17.254-11.426 23.39-17.527 6.366 6.434 14.319 12.424 23.475 17.792-3.499 4.915-10.667 11.921-23.45 11.921zm-16.998-118.443c3.209-1.024 11.392-1.024 16.998-1.024 5.623 0 13.807 0 17.016 1.024-.836 7.526-9.958 24.576-17.016 24.576-7.039 0-16.153-17.016-16.998-24.576zm25.532 72.644v-32.862c15.667-6.707 25.6-30.302 25.6-40.806 0-17.067-18.918-17.067-34.133-17.067-15.206 0-34.133 0-34.133 17.067 0 10.505 9.941 34.099 25.6 40.806v32.862c-24.687 29.926-98.859 58.701-189.679 32.998 10.863-13.466 27.546-38.34 27.546-64v-59.733c0-38.904 12.749-75.418 36.855-105.591a8.538 8.538 0 0 0 .452-10.027c-9.6-14.532-30.217-50.065-14.208-66.082 12.868-12.894 40.038-2.654 64.708 13.363-13.807 6.793-26.872 15.198-38.741 25.301-3.576 3.055-4.011 8.439-.964 12.032a8.549 8.549 0 0 0 12.032.964c30.797-26.197 70.042-40.627 110.532-40.627 40.508 0 79.77 14.438 110.558 40.644a8.456 8.456 0 0 0 5.53 2.039 8.576 8.576 0 0 0 6.502-2.995c3.046-3.593 2.611-8.977-.973-12.032-11.853-10.095-24.9-18.5-38.699-25.293 24.653-16.068 51.831-26.325 64.802-13.372 15.923 15.932-4.651 51.499-14.234 66.048a8.539 8.539 0 0 0 .461 10.027c24.021 30.054 36.719 66.569 36.719 105.6v59.733c0 25.66 16.691 50.534 27.554 64-90.863 25.704-165-3.07-189.687-32.997z"/><path d="M345.524 179.061c-7.057 0-12.8 5.743-12.8 12.8s5.743 12.8 12.8 12.8c7.066 0 12.8-5.743 12.8-12.8s-5.734-12.8-12.8-12.8zm-179.2 0c-7.057 0-12.8 5.743-12.8 12.8s5.743 12.8 12.8 12.8c7.066 0 12.8-5.743 12.8-12.8s-5.734-12.8-12.8-12.8zm31.318 187.785c-4.77-.538-8.9 2.867-9.412 7.552-.341 3.106-.572 6.255-.572 9.463 0 42.351 30.626 76.8 68.267 76.8 37.649 0 68.267-34.449 68.267-76.8 0-3.208-.222-6.357-.563-9.463-.521-4.685-4.71-8.081-9.412-7.552-4.685.521-8.073 4.736-7.552 9.421.273 2.492.461 5.018.461 7.595 0 32.939-22.963 59.733-51.2 59.733-28.228 0-51.2-26.795-51.2-59.733 0-2.577.196-5.103.469-7.595.519-4.685-2.868-8.901-7.553-9.421z"/><path d="M397.219 225.056c1.86-9.395 3.772-19.106 3.772-28.928 0-38.912-29.346-68.267-68.267-68.267-39.842 0-65.22 23.185-76.8 36.941-11.571-13.756-36.949-36.941-76.8-36.941-38.912 0-68.267 29.355-68.267 68.267 0 9.822 1.92 19.533 3.78 28.928 5.12 25.958 9.967 50.483-18.867 85.077-3.021 3.618-2.526 9.003 1.092 12.015a8.491 8.491 0 0 0 5.453 1.98 8.504 8.504 0 0 0 6.571-3.072c34.031-40.841 27.631-73.259 22.494-99.311-1.775-8.977-3.456-17.468-3.456-25.617 0-29.184 22.016-51.2 51.2-51.2 45.525 0 68.531 36.941 69.495 38.545.068.111.179.171.256.273.29.444.7.794 1.075 1.178.427.427.828.879 1.323 1.203.094.068.145.171.247.23.324.196.691.222 1.024.367.589.265 1.169.521 1.801.64.495.094.964.077 1.459.077.597.017 1.169.026 1.775-.085.538-.111 1.033-.341 1.545-.555.401-.162.819-.196 1.195-.418.12-.068.179-.188.282-.265.469-.299.828-.725 1.237-1.126.41-.401.828-.768 1.152-1.246.06-.102.179-.162.247-.273.947-1.57 23.953-38.545 69.487-38.545 29.193 0 51.2 22.016 51.2 51.2 0 8.149-1.673 16.64-3.447 25.617-5.137 26.052-11.537 58.47 22.494 99.311a8.5 8.5 0 0 0 6.562 3.072 8.487 8.487 0 0 0 5.461-1.98c3.618-3.012 4.113-8.397 1.092-12.015-28.833-34.594-23.995-59.119-18.867-85.077z"/></svg>