<svg xmlns="http://www.w3.org/2000/svg" viewBox="0 0 512 512"><path d="M136.533 238.946c0 4.71 3.814 8.533 8.533 8.533s8.533-3.823 8.533-8.533c4.719 0 8.533-3.823 8.533-8.533s-3.814-8.533-8.533-8.533c0-4.71-3.814-8.533-8.533-8.533s-8.533 3.823-8.533 8.533c-4.719 0-8.533 3.823-8.533 8.533s3.814 8.533 8.533 8.533zm42.667-153.6h8.533v8.533c0 4.71 3.814 8.533 8.533 8.533s8.533-3.823 8.533-8.533v-8.533h8.533c4.719 0 8.533-3.823 8.533-8.533s-3.814-8.533-8.533-8.533H204.8v-8.533c0-4.71-3.814-8.533-8.533-8.533s-8.533 3.823-8.533 8.533v8.533H179.2c-4.719 0-8.533 3.823-8.533 8.533s3.814 8.533 8.533 8.533zm290.133 238.933H460.8v-8.533a8.53 8.53 0 0 0-8.533-8.533 8.53 8.53 0 0 0-8.533 8.533v8.533H435.2c-4.719 0-8.533 3.823-8.533 8.533s3.814 8.533 8.533 8.533h8.533v8.533a8.53 8.53 0 0 0 8.533 8.533 8.53 8.53 0 0 0 8.533-8.533v-8.533h8.533c4.719 0 8.533-3.823 8.533-8.533s-3.813-8.533-8.532-8.533zM458.3 53.713C405.206.619 343.919.013 341.334.013a8.522 8.522 0 0 0-7.842 5.171l-76.8 179.2a8.535 8.535 0 0 0 1.809 9.395l59.733 59.733a8.535 8.535 0 0 0 9.395 1.809l41.643-17.852c.017 0 .026-.009.034-.017l137.523-58.931a8.522 8.522 0 0 0 5.171-7.842c0-2.585-.606-63.88-53.7-116.966zm-90.266 165.726l-54.801-54.792a8.523 8.523 0 0 0-12.066 0 8.525 8.525 0 0 0 0 12.066l49.963 49.971-24.909 10.675-51.567-51.567 72.158-168.354c7.731.759 22.921 3.081 41.097 10.172l-19.388 27.179c-2.739 3.84-1.843 9.165 1.988 11.904a8.547 8.547 0 0 0 4.949 1.587 8.523 8.523 0 0 0 6.955-3.576l21.333-29.909a166.91 166.91 0 0 1 17.126 10.146L369.434 96.38a8.525 8.525 0 0 0 0 12.066 8.51 8.51 0 0 0 6.033 2.5 8.509 8.509 0 0 0 6.033-2.5l53.154-53.154c3.891 3.243 7.765 6.673 11.58 10.487 16.7 16.708 27.639 34.441 34.859 50.492l-33.459 21.649c-3.959 2.551-5.094 7.842-2.534 11.793a8.536 8.536 0 0 0 7.177 3.9 8.45 8.45 0 0 0 4.625-1.374l30.507-19.738c4.762 14.396 6.536 26.214 7.168 32.708l-126.543 54.23zm-87.168 35.84L46.199 489.946c-6.647 6.647-17.485 6.647-24.132 0a16.97 16.97 0 0 1-5.001-12.075c0-4.557 1.775-8.841 5.001-12.066L256.87 231.01c3.328-3.328 3.328-8.73 0-12.066-3.337-3.328-8.738-3.328-12.066 0L10.001 453.739C3.55 460.181 0 468.757 0 477.871s3.55 17.69 10.001 24.141c6.648 6.648 15.394 9.976 24.132 9.976 8.738 0 17.485-3.328 24.132-9.976l234.667-234.667c3.337-3.328 3.337-8.73 0-12.066a8.523 8.523 0 0 0-12.066 0z"/></svg>