<svg xmlns="http://www.w3.org/2000/svg" viewBox="0 0 512 512"><path d="M443.733 358.4a8.536 8.536 0 0 0-8.533 8.533V384c0 4.71 3.823 8.533 8.533 8.533s8.533-3.823 8.533-8.533v-17.067c.001-4.71-3.822-8.533-8.533-8.533zM209.519 152.704c4.216 2.108 9.336.393 11.452-3.823l26.496-53.001v49.186c0 4.71 3.823 8.533 8.533 8.533s8.533-3.823 8.533-8.533V95.881l26.496 53.001a8.54 8.54 0 0 0 7.646 4.719c1.28 0 2.586-.29 3.806-.896 4.216-2.116 5.931-7.236 3.823-11.452L264.533 57.72V17.067H307.2v17.067h-25.6a8.536 8.536 0 0 0-8.533 8.533A8.536 8.536 0 0 0 281.6 51.2h34.133a8.536 8.536 0 0 0 8.533-8.533V8.533A8.536 8.536 0 0 0 315.733 0H256a8.536 8.536 0 0 0-8.533 8.533v49.186l-41.771 83.533c-2.108 4.216-.393 9.336 3.823 11.452zm89.148 120.363a8.536 8.536 0 0 0 8.533-8.533v-76.8h8.533c4.71 0 8.533-3.823 8.533-8.533s-3.823-8.533-8.533-8.533H196.267c-4.71 0-8.533 3.823-8.533 8.533s3.823 8.533 8.533 8.533h8.533v76.8a8.536 8.536 0 0 0 8.533 8.533 8.536 8.536 0 0 0 8.533-8.533v-76.8h68.267v76.8c0 4.71 3.823 8.533 8.534 8.533z"/><path d="M247.467 230.4v17.067c0 4.71 3.823 8.533 8.533 8.533s8.533-3.823 8.533-8.533V230.4c0-4.71-3.823-8.533-8.533-8.533s-8.533 3.823-8.533 8.533zM384 256h8.533v8.533c0 4.71 3.823 8.533 8.533 8.533s8.533-3.823 8.533-8.533V256h68.267v170.667c0 4.71 3.823 8.533 8.533 8.533s8.533-3.823 8.533-8.533V256h8.533c4.71 0 8.533-3.823 8.533-8.533s-3.823-8.533-8.533-8.533H384c-4.71 0-8.533 3.823-8.533 8.533S379.29 256 384 256zm25.6-170.667c0 4.71 3.823 8.533 8.533 8.533s8.533-3.823 8.533-8.533c4.71 0 8.533-3.823 8.533-8.533s-3.823-8.533-8.533-8.533c0-4.71-3.823-8.533-8.533-8.533s-8.533 3.823-8.533 8.533c-4.71 0-8.533 3.823-8.533 8.533s3.823 8.533 8.533 8.533zm-12.348 135.638c4.224 2.108 9.344.384 11.452-3.823l26.496-53.001v49.186c0 4.71 3.823 8.533 8.533 8.533s8.533-3.823 8.533-8.533v-49.186l26.496 53.001a8.54 8.54 0 0 0 7.646 4.719c1.28 0 2.586-.29 3.806-.896 4.216-2.116 5.931-7.236 3.823-11.452l-42.667-85.333a7.112 7.112 0 0 0-1.408-1.92c-1.553-1.698-3.746-2.799-6.229-2.799s-4.676 1.101-6.229 2.799a7.112 7.112 0 0 0-1.408 1.92l-42.667 85.333c-2.107 4.215-.392 9.335 3.823 11.452zM256 375.467c-28.237 0-51.2 22.963-51.2 51.2v76.8a8.536 8.536 0 0 0 8.533 8.533h85.333a8.536 8.536 0 0 0 8.533-8.533v-76.8c.001-28.237-22.962-51.2-51.199-51.2zm34.133 119.466h-68.267v-17.067h68.267v17.067zm0-34.133h-68.267v-17.067h68.267V460.8zm-68.266-34.133c0-18.825 15.309-34.133 34.133-34.133 18.825 0 34.133 15.309 34.133 34.133h-68.266z"/><path d="M452.267 298.667c0-4.71-3.823-8.533-8.533-8.533s-8.533 3.823-8.533 8.533v17.067c0 4.71 3.823 8.533 8.533 8.533s8.533-3.823 8.533-8.533v-17.067zM170.667 25.6c0 4.71 3.823 8.533 8.533 8.533s8.533-3.823 8.533-8.533c4.71 0 8.533-3.823 8.533-8.533s-3.823-8.533-8.533-8.533c0-4.71-3.823-8.533-8.533-8.533s-8.533 3.823-8.533 8.533c-4.71 0-8.533 3.823-8.533 8.533s3.822 8.533 8.533 8.533zm-102.4 332.8a8.536 8.536 0 0 0-8.533 8.533V384c0 4.71 3.823 8.533 8.533 8.533S76.8 388.71 76.8 384v-17.067a8.536 8.536 0 0 0-8.533-8.533zm102.4 93.867c-3.106 0-6.025.836-8.533 2.296-5.026-2.918-12.041-2.918-17.067 0-5.026-2.918-12.041-2.918-17.067 0-5.026-2.918-12.041-2.918-17.067 0-5.026-2.918-12.041-2.918-17.067 0-5.026-2.918-12.041-2.918-17.067 0-5.026-2.918-12.041-2.918-17.067 0-5.026-2.918-12.041-2.918-17.067 0-5.026-2.918-12.041-2.918-17.067 0a16.93 16.93 0 0 0-8.533-2.296C7.654 452.267 0 459.921 0 469.333v34.133C0 508.177 3.823 512 8.533 512H179.2a8.536 8.536 0 0 0 8.533-8.533v-34.133c0-9.413-7.654-17.067-17.066-17.067zm0 42.666h-153.6v-25.6a8.536 8.536 0 0 0 8.533 8.533 8.536 8.536 0 0 0 8.533-8.533 8.536 8.536 0 0 0 8.533 8.533 8.536 8.536 0 0 0 8.533-8.533c0 4.71 3.823 8.533 8.533 8.533s8.533-3.823 8.533-8.533c0 4.71 3.823 8.533 8.533 8.533s8.533-3.823 8.533-8.533a8.536 8.536 0 0 0 8.533 8.533 8.536 8.536 0 0 0 8.533-8.533c0 4.71 3.823 8.533 8.533 8.533s8.533-3.823 8.533-8.533c0 4.71 3.823 8.533 8.533 8.533s8.533-3.823 8.533-8.533a8.536 8.536 0 0 0 8.533 8.533 8.536 8.536 0 0 0 8.533-8.533 8.536 8.536 0 0 0 8.533 8.533 8.536 8.536 0 0 0 8.533-8.533v25.6zm324.266-42.666c-3.106 0-6.025.836-8.533 2.296-5.026-2.918-12.041-2.918-17.067 0-5.026-2.918-12.041-2.918-17.067 0-5.026-2.918-12.041-2.918-17.067 0-5.026-2.918-12.041-2.918-17.067 0-5.026-2.918-12.041-2.918-17.067 0-5.026-2.918-12.041-2.918-17.067 0-5.026-2.918-12.041-2.918-17.067 0-5.026-2.918-12.041-2.918-17.067 0a16.93 16.93 0 0 0-8.533-2.296c-9.412 0-17.067 7.654-17.067 17.067v34.133a8.536 8.536 0 0 0 8.533 8.533h170.667a8.536 8.536 0 0 0 8.533-8.533v-34.133c.003-9.413-7.651-17.067-17.064-17.067zm0 42.666h-153.6v-25.6c0 4.71 3.823 8.533 8.533 8.533s8.533-3.823 8.533-8.533c0 4.71 3.823 8.533 8.533 8.533s8.533-3.823 8.533-8.533c0 4.71 3.823 8.533 8.533 8.533s8.533-3.823 8.533-8.533c0 4.71 3.823 8.533 8.533 8.533s8.533-3.823 8.533-8.533c0 4.71 3.823 8.533 8.533 8.533s8.533-3.823 8.533-8.533c0 4.71 3.823 8.533 8.533 8.533s8.533-3.823 8.533-8.533a8.536 8.536 0 0 0 8.533 8.533 8.536 8.536 0 0 0 8.533-8.533c0 4.71 3.823 8.533 8.533 8.533s8.533-3.823 8.533-8.533c0 4.71 3.823 8.533 8.533 8.533s8.533-3.823 8.533-8.533v25.6zM21.786 220.971c4.224 2.108 9.336.384 11.452-3.823l26.496-53.001v49.186c0 4.71 3.823 8.533 8.533 8.533s8.533-3.823 8.533-8.533v-49.186l26.496 53.001a8.54 8.54 0 0 0 7.646 4.719c1.28 0 2.586-.29 3.806-.896 4.215-2.116 5.931-7.236 3.823-11.452l-42.667-85.333a7.112 7.112 0 0 0-1.408-1.92c-1.553-1.698-3.746-2.799-6.229-2.799s-4.676 1.101-6.229 2.799a7.112 7.112 0 0 0-1.408 1.92l-42.667 85.333c-2.108 4.215-.393 9.335 3.823 11.452zM375.467 332.8v-25.6h17.067v119.467c0 4.71 3.823 8.533 8.533 8.533s8.533-3.823 8.533-8.533v-128a8.536 8.536 0 0 0-8.533-8.533h-34.133a8.536 8.536 0 0 0-8.533 8.533v25.6h-34.133v-25.6a8.536 8.536 0 0 0-8.533-8.533H281.6a8.536 8.536 0 0 0-8.533 8.533v25.6h-34.133v-25.6a8.536 8.536 0 0 0-8.533-8.533h-34.133a8.536 8.536 0 0 0-8.533 8.533v25.6H153.6v-25.6a8.536 8.536 0 0 0-8.533-8.533h-34.133a8.536 8.536 0 0 0-8.533 8.533v128c0 4.71 3.823 8.533 8.533 8.533s8.533-3.823 8.533-8.533V307.2h17.067v25.6a8.536 8.536 0 0 0 8.533 8.533h51.2a8.536 8.536 0 0 0 8.533-8.533v-25.6h17.067v25.6a8.536 8.536 0 0 0 8.533 8.533h51.2a8.536 8.536 0 0 0 8.533-8.533v-25.6H307.2v25.6a8.536 8.536 0 0 0 8.533 8.533h51.2c4.711 0 8.534-3.823 8.534-8.533zM8.533 51.2h8.533v8.533a8.536 8.536 0 0 0 8.533 8.533 8.536 8.536 0 0 0 8.533-8.533V51.2h8.533a8.536 8.536 0 0 0 8.533-8.533 8.536 8.536 0 0 0-8.533-8.533h-8.533V25.6a8.536 8.536 0 0 0-8.533-8.533 8.536 8.536 0 0 0-8.533 8.533v8.533H8.533C3.823 34.133 0 37.956 0 42.667A8.536 8.536 0 0 0 8.533 51.2z"/><path d="M8.533 256h8.533v179.2a8.536 8.536 0 0 0 8.533 8.533 8.536 8.536 0 0 0 8.533-8.533V256H102.4v8.533c0 4.71 3.823 8.533 8.533 8.533s8.533-3.823 8.533-8.533V256H128c4.71 0 8.533-3.823 8.533-8.533s-3.823-8.533-8.533-8.533H8.533c-4.71 0-8.533 3.823-8.533 8.533S3.823 256 8.533 256z"/><path d="M76.8 298.667c0-4.71-3.823-8.533-8.533-8.533s-8.533 3.823-8.533 8.533v17.067c0 4.71 3.823 8.533 8.533 8.533s8.533-3.823 8.533-8.533v-17.067z"/></svg>