<svg xmlns="http://www.w3.org/2000/svg" viewBox="0 0 512 512"><path d="M230.929 204.049c2.526 3.951 7.799 5.111 11.785 2.56 19.217-12.348 41.523-18.876 64.486-18.876 65.877 0 119.467 53.589 119.467 119.467 0 10.829-1.442 21.547-4.292 31.863-1.254 4.54 1.408 9.242 5.948 10.496a8.488 8.488 0 0 0 2.287.307c3.738 0 7.177-2.483 8.218-6.263 3.26-11.793 4.907-24.047 4.907-36.403 0-75.281-61.252-136.533-136.533-136.533-26.24 0-51.738 7.467-73.719 21.589-3.962 2.543-5.105 7.825-2.554 11.793zM366.933 34.133h8.533v8.533a8.53 8.53 0 0 0 8.533 8.533 8.53 8.53 0 0 0 8.533-8.533v-8.533h8.533a8.53 8.53 0 0 0 8.533-8.533 8.53 8.53 0 0 0-8.533-8.533h-8.533V8.533A8.53 8.53 0 0 0 384 0a8.53 8.53 0 0 0-8.533 8.533v8.533h-8.533a8.53 8.53 0 0 0-8.533 8.533 8.53 8.53 0 0 0 8.532 8.534z"/><path d="M381.244 248.858a8.529 8.529 0 0 0-2.492 11.81c9.011 13.841 13.781 29.935 13.781 46.532a8.53 8.53 0 0 0 8.533 8.533 8.53 8.53 0 0 0 8.533-8.533c0-19.917-5.726-39.228-16.546-55.851-2.568-3.951-7.85-5.06-11.809-2.491zM460.8 136.533c0 4.71 3.814 8.533 8.533 8.533s8.533-3.823 8.533-8.533c4.719 0 8.533-3.823 8.533-8.533s-3.814-8.533-8.533-8.533c0-4.71-3.814-8.533-8.533-8.533s-8.533 3.823-8.533 8.533c-4.719 0-8.533 3.823-8.533 8.533s3.814 8.533 8.533 8.533zM150.519 90.325c6.451-6.434 17.681-6.434 24.132 0l70.946 70.946a8.486 8.486 0 0 0 6.033 2.5 8.475 8.475 0 0 0 6.033-2.5c3.337-3.328 3.337-8.73 0-12.066l-70.946-70.946c-6.443-6.443-15.019-9.993-24.132-9.993-9.122 0-17.69 3.55-24.132 9.993-3.337 3.337-3.337 8.738 0 12.066 3.328 3.337 8.73 3.337 12.066 0zm318.106 235.589c-3.866-2.705-9.173-1.792-11.895 2.048-2.722 3.849-1.801 9.173 2.048 11.895 22.639 16 36.156 42.069 36.156 69.743 0 47.053-38.281 85.333-85.333 85.333H68.267c-28.237 0-51.2-22.963-51.2-51.2 0-25.523 19.038-47.334 44.288-50.739 4.668-.631 7.945-4.924 7.322-9.591-.623-4.676-4.838-7.945-9.6-7.322C25.404 380.621 0 409.702 0 443.733 0 481.374 30.626 512 68.267 512H409.6c56.465 0 102.4-45.935 102.4-102.4 0-33.212-16.213-64.495-43.375-83.686z"/><path d="M160.853 452.369c6.434 6.451 15.01 10.001 24.132 10.001 9.114 0 17.681-3.55 24.132-10.001 6.451-6.443 10.001-15.019 10.001-24.132 0-9.122-3.55-17.69-10.001-24.141l-6.033-6.033c-3.337-3.328-8.738-3.328-12.066 0a8.534 8.534 0 0 0 0 12.075l6.033 6.033c3.226 3.217 5 7.501 5 12.066a16.95 16.95 0 0 1-5 12.066c-6.451 6.443-17.681 6.443-24.132 0L22.067 289.451a16.936 16.936 0 0 1-5.001-12.066c0-4.557 1.775-8.841 5.001-12.066 6.451-6.443 17.681-6.443 24.132 0l36.198 36.198a8.488 8.488 0 0 0 6.033 2.5 8.475 8.475 0 0 0 6.033-2.5c3.337-3.328 3.337-8.73 0-12.066l-54.298-54.306a16.948 16.948 0 0 1-5-12.066c0-4.557 1.775-8.849 5-12.066 6.647-6.647 17.476-6.656 24.124-.009l30.174 30.174c1.673 1.664 3.849 2.5 6.033 2.5s4.369-.836 6.033-2.5c3.337-3.328 3.337-8.73 0-12.066l-30.165-30.165v-.009s-.009 0-.009-.009l-24.124-24.124a16.95 16.95 0 0 1-5.001-12.066c0-4.557 1.775-8.841 5.001-12.066 6.451-6.443 17.681-6.443 24.132 0 0 0 .009 0 .017.009l30.157 30.157c3.336 3.337 8.738 3.337 12.066 0 3.337-3.328 3.337-8.73 0-12.066l-54.306-54.306a16.948 16.948 0 0 1-5-12.066c0-4.557 1.775-8.849 5-12.075 6.451-6.434 17.681-6.434 24.132 0l96.555 96.546c53.333 53.342 42.803 138.214 0 181.026l-12.066 12.066c-3.337 3.328-3.337 8.73 0 12.066a8.51 8.51 0 0 0 6.033 2.5c2.185 0 4.36-.836 6.033-2.5l12.066-12.066c48.512-48.521 60.45-144.708 0-205.158L100.495 78.26c-6.443-6.443-15.01-9.993-24.132-9.993-9.114 0-17.681 3.55-24.132 9.993-6.45 6.45-10 15.026-10 24.14s3.55 17.69 10.001 24.132l3.345 3.345c-5.76 1.519-11.085 4.403-15.411 8.73-6.451 6.443-10.001 15.01-10.001 24.132s3.55 17.69 10.001 24.132l3.362 3.362c-5.649 1.485-11.008 4.292-15.428 8.704-6.451 6.451-10.001 15.027-10.001 24.141 0 7.885 2.799 15.275 7.689 21.325-5.914 1.485-11.375 4.429-15.787 8.849C3.55 259.695 0 268.262 0 277.385c0 9.122 3.55 17.69 10.001 24.132l150.852 150.852zM34.133 34.133c0 4.71 3.814 8.533 8.533 8.533s8.533-3.823 8.533-8.533a8.53 8.53 0 0 0 8.533-8.533 8.53 8.53 0 0 0-8.533-8.533c0-4.71-3.814-8.533-8.533-8.533s-8.533 3.823-8.533 8.533A8.53 8.53 0 0 0 25.6 25.6a8.53 8.53 0 0 0 8.533 8.533z"/></svg>