<svg xmlns="http://www.w3.org/2000/svg" viewBox="0 0 512.004 512.004"><path d="M358.334 126.849a8.506 8.506 0 0 0-9.523-7.407c-2.739.341-61.926 8.482-92.809 71.279-30.882-62.797-90.069-70.938-92.809-71.279-4.693-.614-8.917 2.722-9.506 7.381-.606 4.668 2.705 8.934 7.364 9.549 2.577.333 63.36 9.079 86.852 79.565 1.161 3.49 4.42 5.837 8.098 5.837s6.929-2.347 8.098-5.837c23.492-70.485 84.275-79.232 86.827-79.565a8.523 8.523 0 0 0 7.408-9.523z"/><path d="M79.661 217.806c-11.213 2.014-25.156 3.968-36.992 3.968a8.534 8.534 0 0 0-7.313 12.928c27.221 45.38 72.013 54.793 73.907 55.177 4.608.896 9.088-2.065 10.018-6.673.939-4.608-2.039-9.114-6.647-10.061-.35-.068-31.019-6.707-54.161-35.123 22.451-2.133 44.843-7.68 46.003-7.97 3.456-.862 6.016-3.797 6.409-7.347s-1.476-6.963-4.668-8.567c-.418-.205-36.77-18.688-62.14-54.852 22.793 6.033 46.788 10.854 48.12 11.128 3.396.7 6.835-.76 8.755-3.618s1.929-6.605.026-9.481c-.273-.41-23.629-36.258-20.011-75.972 19.115 22.537 43.699 28.928 44.962 29.244a8.536 8.536 0 0 0 9.02-3.32c.401-.555 40.747-56.158 95.454-56.158a8.53 8.53 0 0 0 6.827-3.413l18.773-25.028 18.773 25.028a8.54 8.54 0 0 0 6.827 3.413c54.528 0 95.061 55.603 95.454 56.166a8.566 8.566 0 0 0 9.011 3.311c1.271-.316 25.847-6.707 44.971-29.244 3.618 39.714-19.738 75.563-20.011 75.972a8.554 8.554 0 0 0 .026 9.481 8.583 8.583 0 0 0 8.755 3.618c1.331-.273 25.31-5.086 48.102-11.128-25.327 36.036-61.705 54.647-62.131 54.861a8.538 8.538 0 0 0 1.126 15.727c.922.307 19.61 6.443 46.43 8.388-23.117 28.211-53.615 34.816-53.965 34.884-4.608.939-7.595 5.427-6.673 10.035.811 4.053 4.378 6.861 8.363 6.861.546 0 1.118-.051 1.681-.162 1.894-.384 46.686-9.796 73.907-55.177a8.524 8.524 0 0 0 .111-8.602 8.545 8.545 0 0 0-7.424-4.326c-14.669 0-27.759-1.664-37.692-3.482 18.074-12.484 45.397-35.524 62.396-69.504a8.556 8.556 0 0 0-1.186-9.404c-2.261-2.603-5.88-3.61-9.148-2.509-14.455 4.821-34.765 9.702-49.271 12.945 9.429-20.352 21.06-56.286 8.858-92.877a8.527 8.527 0 0 0-7.484-5.82c-3.558-.213-6.699 1.613-8.243 4.702-11.273 22.545-31.206 32.734-40.55 36.446-11.947-14.711-49.843-55.902-101.069-58.138L262.829 3.321c-3.217-4.301-10.436-4.301-13.653 0l-23.108 30.814c-51.226 2.236-89.131 43.426-101.086 58.129-9.353-3.712-29.278-13.901-40.55-36.437-1.545-3.098-4.804-4.924-8.235-4.702a8.546 8.546 0 0 0-7.492 5.82c-12.194 36.591-.563 72.525 8.866 92.877-14.507-3.243-34.807-8.124-49.271-12.945a8.521 8.521 0 0 0-9.139 2.509 8.526 8.526 0 0 0-1.195 9.404c16.775 33.543 43.63 56.43 61.695 69.016z"/><path d="M170.669 200.441c0 7.057 5.743 12.8 12.8 12.8s12.8-5.743 12.8-12.8-5.743-12.8-12.8-12.8-12.8 5.743-12.8 12.8zm63.53-108.1c3.917 2.62 9.216 1.553 11.836-2.364l9.967-14.95 9.967 14.95a8.517 8.517 0 0 0 7.108 3.797 8.496 8.496 0 0 0 4.727-1.434c3.925-2.611 4.983-7.91 2.364-11.836l-17.067-25.6c-3.166-4.745-11.034-4.745-14.199 0l-17.067 25.6c-2.61 3.926-1.552 9.225 2.364 11.837zm0 51.2c3.917 2.611 9.216 1.553 11.836-2.364l9.967-14.95 9.967 14.95a8.517 8.517 0 0 0 7.108 3.797 8.496 8.496 0 0 0 4.727-1.434c3.925-2.611 4.983-7.91 2.364-11.836l-17.067-25.6c-3.166-4.745-11.034-4.745-14.199 0l-17.067 25.6c-2.61 3.926-1.552 9.225 2.364 11.837zm81.536 56.9c0 7.057 5.743 12.8 12.8 12.8s12.8-5.743 12.8-12.8-5.743-12.8-12.8-12.8-12.8 5.743-12.8 12.8zm193.767 143.3a8.523 8.523 0 0 0-12.066 0c-.111.119-11.622 11.196-26.368 10.385-10.155-.563-19.985-6.69-29.201-18.21-20.386-25.481-43.563-37.06-67.337-42.146.555-1.135.939-2.372.939-3.729 0-16.998-7.245-25.037-13.321-28.792-13.474-8.32-32.683-3.012-43.102.998-8.03-11.196-27.682-31.94-63.044-31.94-35.362 0-55.014 20.745-63.044 31.94-10.411-4.002-29.594-9.327-43.102-.998-6.076 3.755-13.321 11.793-13.321 28.792 0 1.357.384 2.594.947 3.729-23.782 5.086-46.959 16.666-67.345 42.146-9.173 11.46-18.953 17.587-29.065 18.202-14.814.862-26.419-10.291-26.505-10.377a8.523 8.523 0 0 0-12.066 0 8.525 8.525 0 0 0 0 12.066c.657.657 15.676 15.428 36.864 15.428.819 0 1.664-.026 2.509-.068 15.215-.845 29.21-9.114 41.591-24.593 11.418-14.268 23.748-23.595 37.214-29.577 3.866 25.259 19.106 95.659 71.356 125.517a8.43 8.43 0 0 0 4.224 1.126 8.522 8.522 0 0 0 7.415-4.301A8.526 8.526 0 0 0 200.5 427.7c-47.479-27.136-60.587-96.913-63.36-116.284 12.979-3.234 26.94-4.309 42.061-4.309 4.71 0 8.533-3.823 8.533-8.533s-3.823-8.533-8.533-8.533c-8.567 0-17.22.324-25.847 1.246.06-.427.247-.802.247-1.246 0-7.322 1.758-12.126 5.214-14.268 8.021-4.975 26.138 1.109 33.647 4.838 4.224 2.116 9.335.384 11.435-3.823.154-.29 15.138-29.414 52.105-29.414 36.608 0 51.499 28.254 52.096 29.414 2.108 4.216 7.228 5.897 11.443 3.823 7.509-3.729 25.6-9.813 33.647-4.838 3.456 2.142 5.214 6.946 5.214 14.268 0 .444.179.819.247 1.246-8.627-.922-17.28-1.246-25.847-1.246-4.719 0-8.533 3.823-8.533 8.533s3.814 8.533 8.533 8.533c15.121 0 29.073 1.075 42.061 4.309-2.782 19.371-15.881 89.148-63.36 116.284-4.096 2.338-5.521 7.552-3.174 11.639a8.514 8.514 0 0 0 7.415 4.301 8.43 8.43 0 0 0 4.224-1.126c52.258-29.858 67.482-100.258 71.356-125.517 13.466 5.982 25.796 15.309 37.214 29.577 12.382 15.479 26.377 23.748 41.591 24.593.845.043 1.681.068 2.517.068 21.18 0 36.207-14.771 36.855-15.428a8.524 8.524 0 0 0 .001-12.066z"/><path d="M289.965 385.58c.93-4.617-2.074-9.114-6.69-10.035-4.617-.922-9.122 2.065-10.035 6.69-7.211 36.019-2.765 66.389 8.363 99.627-5.982-5.803-12.425-13.884-17.963-24.969-2.893-5.786-12.382-5.786-15.275 0-5.538 11.093-11.989 19.174-17.963 24.977 11.119-33.246 15.573-63.616 8.363-99.635a8.503 8.503 0 0 0-10.035-6.69 8.532 8.532 0 0 0-6.699 10.035c8.149 40.747.077 72.883-16.623 114.62a8.536 8.536 0 1 0 10.624 11.272c1.024-.341 22.315-7.706 39.97-33.852 17.655 26.146 38.938 33.51 39.97 33.852a8.559 8.559 0 0 0 8.909-2.244 8.552 8.552 0 0 0 1.715-9.028c-16.699-41.737-24.781-73.873-16.631-114.62z"/><path d="M175.004 317.006c-.478-.29-.93-.58-1.459-.777-.597-.222-1.203-.29-1.826-.367-.358-.043-.683-.213-1.05-.213h-.009c-.137 0-.247.068-.375.077-.631.026-1.22.205-1.835.367-.469.128-.956.213-1.391.418-.478.222-.87.563-1.306.879-.478.35-.964.666-1.357 1.101-.094.111-.23.154-.316.265-.256.307-.341.683-.546 1.015-.316.503-.623.99-.828 1.553-.205.563-.265 1.143-.35 1.732-.051.384-.222.725-.222 1.118 0 2.304.444 56.695 38.852 75.904a8.602 8.602 0 0 0 3.814.896c1.903 0 3.797-.64 5.333-1.877a8.527 8.527 0 0 0 2.944-8.73c-4.079-16.324-3.874-26.829-2.944-33.016 15.514 6.135 31.258 9.489 45.867 9.489 14.524 0 30.268-3.371 45.85-9.574.947 6.229 1.161 16.751-2.927 33.101a8.543 8.543 0 0 0 2.935 8.73 8.569 8.569 0 0 0 5.342 1.877 8.602 8.602 0 0 0 3.814-.896c38.409-19.209 38.852-73.6 38.852-75.904 0-.393-.171-.725-.222-1.101-.077-.589-.145-1.161-.341-1.732-.205-.555-.512-1.041-.819-1.544-.205-.324-.273-.7-.529-1.007-.094-.119-.239-.162-.341-.282-.401-.444-.879-.768-1.374-1.126-.418-.307-.802-.64-1.263-.853-.469-.222-.981-.316-1.493-.452-.572-.154-1.126-.316-1.715-.35-.154-.009-.282-.085-.435-.085-.401 0-.734.179-1.118.222-.58.085-1.143.145-1.698.35-.58.205-1.075.503-1.587.828-.324.196-.683.273-.981.512-19.166 15.573-50.236 32.222-79.949 32.222-25.54 0-55.415-12.032-79.915-32.188-.323-.275-.724-.368-1.082-.582zm155.656 25.267c-1.809 8.832-5.137 19.439-11.324 28.348.538-9.25-.367-16.026-1.57-20.821a175.672 175.672 0 0 0 12.894-7.527zm-136.431 7.638c-1.186 4.762-2.091 11.477-1.562 20.651-6.11-8.849-9.429-19.354-11.255-28.151a169.986 169.986 0 0 0 12.817 7.5zm95.906-59.87v-8.533a8.53 8.53 0 0 0-8.533-8.533 8.53 8.53 0 0 0-8.533 8.533v8.533a8.53 8.53 0 0 0 8.533 8.533 8.53 8.53 0 0 0 8.533-8.533zm-51.2 0v-8.533c0-4.71-3.823-8.533-8.533-8.533s-8.533 3.823-8.533 8.533v8.533c0 4.71 3.823 8.533 8.533 8.533s8.533-3.823 8.533-8.533z"/></svg>