<svg xmlns="http://www.w3.org/2000/svg" viewBox="0 0 512.093 512.093"><path d="M351.805 317.523c-.239 1.109-.555 2.133-.99 3.021-9.31 18.603-2.287 64.478-.785 73.489.691 4.164 4.309 7.125 8.405 7.125.461 0 .939-.034 1.408-.119 4.651-.768 7.791-5.171 7.023-9.813-3.123-18.748-6.093-52.446-.785-63.053 5.504-11.017 3.106-25.421.785-39.356-1.877-11.23-3.814-22.861-.785-28.911 5.572-11.153 3.004-24.013.734-35.354-1.903-9.498-3.695-18.466-.734-24.38 10.001-19.994.853-48 .461-49.178a8.526 8.526 0 0 0-8.098-5.837c-.239 0-24.491-.094-48.495-8.098a8.533 8.533 0 0 0-10.803 5.402 8.542 8.542 0 0 0 5.402 10.795c18.961 6.315 37.709 8.183 47.317 8.738 1.869 8.329 3.413 21.623-1.05 30.549-5.581 11.153-3.004 24.013-.734 35.354 1.894 9.498 3.686 18.466.734 24.38-5.129 10.257-3.396 23.45-1.263 36.463-18.534 35.208-66.398 86.818-93.508 86.818s-74.974-51.61-93.508-86.818c2.133-13.013 3.874-26.206-1.254-36.463-2.961-5.914-1.169-14.882.734-24.38 2.27-11.341 4.838-24.201-.734-35.354-4.429-8.858-2.901-22.187-1.041-30.549 9.617-.555 28.356-2.423 47.309-8.738a8.53 8.53 0 0 0 5.393-10.795c-1.493-4.471-6.315-6.895-10.795-5.402-23.893 7.97-48.265 8.098-48.512 8.098a8.543 8.543 0 0 0-8.09 5.837c-.384 1.178-9.532 29.184.469 49.178 2.953 5.914 1.161 14.882-.734 24.38-2.27 11.341-4.847 24.201.734 35.354 3.021 6.05 1.084 17.681-.785 28.911-2.321 13.935-4.727 28.339.785 39.356 5.299 10.607 2.33 44.305-.785 63.053-.777 4.642 2.364 9.045 7.014 9.813.478.085.947.119 1.417.119a8.54 8.54 0 0 0 8.405-7.125c1.493-9.011 8.516-54.886-.785-73.489-.444-.887-.751-1.911-.998-3.021 23.646 34.048 63.855 75.102 95.761 75.102s72.124-41.054 95.761-75.102z"/><path d="M117.787 119.379c.58.119 1.161.179 1.732.179 3.959 0 7.518-2.782 8.354-6.81.06-.282 3.081-14.336 11.127-31.573 17.587 13.338 61.747 43.11 108.51 46.498v8.951c0 4.71 3.823 8.533 8.533 8.533s8.533-3.823 8.533-8.533v-8.951c47.761-3.456 92.843-34.458 109.628-47.343 7.518 16.546 9.702 30.362 9.924 31.906a8.547 8.547 0 0 0 9.66 7.228c4.659-.666 7.902-4.975 7.236-9.634-.179-1.271-4.634-31.403-24.73-59.657-18.66-26.256-54.603-55.517-119.883-46.838-32.29-7.108-60.937-2.842-85.154 12.698-46.626 29.926-59.571 90.701-60.1 93.278-.956 4.607 2.022 9.113 6.63 10.068zm62.78-89.045c18.927-12.126 41.446-15.838 66.944-11.273v66.364c0 4.71 3.823 8.533 8.533 8.533s8.533-3.823 8.533-8.533V19.633c54.997-5.393 85.146 19.891 101.393 45.457-13.824 10.812-62.345 45.935-109.926 45.935-46.293 0-93.67-33.417-108.843-45.107 7.979-13.082 18.8-26.257 33.366-35.584zm43.844 279.458a8.54 8.54 0 0 0 0 12.066c1.135 1.126 11.614 11.034 31.633 11.034 20.028 0 30.507-9.907 31.633-11.034 3.294-3.294 3.285-8.568.051-11.913-3.234-3.345-8.619-3.439-12.023-.247-.265.247-6.699 6.127-19.661 6.127-12.774 0-19.208-5.709-19.652-6.118-3.336-3.251-8.678-3.217-11.981.085zm-28.1 91.367c0 11.102-29.739 17.041-51.2 17.067-4.719 0-8.533 3.831-8.525 8.533a8.523 8.523 0 0 0 8.525 8.533c6.989 0 68.267-.956 68.267-34.133 0-4.71-3.823-8.533-8.533-8.533s-8.534 3.822-8.534 8.533zm170.667 34.133c4.71 0 8.533-3.823 8.533-8.533s-3.823-8.533-8.533-8.533c-17.852 0-51.2-5.001-51.2-17.067 0-4.71-3.823-8.533-8.533-8.533s-8.533 3.823-8.533 8.533c-.001 33.177 61.277 34.133 68.266 34.133zM264.834 162.225a8.53 8.53 0 0 0-8.533-8.533h-.085c-4.71 0-8.491 3.823-8.491 8.533 0 4.71 3.866 8.533 8.576 8.533a8.53 8.53 0 0 0 8.533-8.533z"/><path d="M511.148 499.744c-1.451-2.884-35.217-68.454-103.39-72.593-1.903-8.311-3.524-21.7.99-30.711 5.572-11.153 3.004-24.013.734-35.354-1.903-9.498-3.695-18.466-.734-24.38 5.675-11.358 2.884-22.511.64-31.488-2.167-8.678-3.362-14.276-.64-19.703 8.661-17.314 3.174-58.24 1.169-71.083 7.031-18.79 8.115-67.618 8.26-77.679.051-3.482-2.005-6.639-5.205-7.987s-6.895-.631-9.361 1.826l-25.6 25.6a8.54 8.54 0 0 0 0 12.066c3.336 3.337 8.738 3.337 12.066 0l10.308-10.3c-1.075 21.069-3.311 44.459-6.903 51.652-5.137 10.266-9.54 12.143-10.24 12.382-4.335.41-7.731 4.053-7.731 8.499a8.536 8.536 0 0 0 8.533 8.533c1.306 0 5.734-.469 11.179-4.48 1.621 17.058 1.98 35.891-1.741 43.332-5.683 11.358-2.893 22.519-.648 31.488 2.167 8.678 3.362 14.276.648 19.712-5.581 11.153-3.004 24.013-.734 35.354 1.894 9.498 3.686 18.466.734 24.38-7.296 14.592-4.403 33.391-2.15 42.982-16.102 11.247-72.875 48.683-134.588 63.019-62.882-14.336-119.859-51.78-135.979-63.027 2.253-9.591 5.146-28.39-2.15-42.974-2.961-5.914-1.169-14.882.734-24.38 2.27-11.341 4.838-24.201-.734-35.354-2.722-5.436-1.527-11.034.64-19.712 2.244-8.969 5.035-20.13-.64-31.488-3.729-7.45-3.362-26.283-1.741-43.332 5.436 4.011 9.873 4.48 11.17 4.48a8.536 8.536 0 0 0 8.533-8.533c0-4.446-3.396-8.09-7.731-8.499-.7-.239-5.103-2.116-10.231-12.382-3.601-7.194-5.828-30.583-6.912-51.652l10.308 10.3c3.337 3.337 8.738 3.337 12.066 0a8.523 8.523 0 0 0 0-12.066l-25.6-25.6a8.53 8.53 0 0 0-9.352-1.826 8.528 8.528 0 0 0-5.214 7.987c.145 10.061 1.237 58.889 8.26 77.679-2.005 12.843-7.484 53.76 1.178 71.083 2.714 5.427 1.519 11.025-.649 19.703-2.244 8.969-5.035 20.13.649 31.488 2.953 5.922 1.161 14.882-.734 24.38-2.27 11.341-4.847 24.201.734 35.354 4.471 8.951 2.859 22.374.973 30.711C36.157 431.298 2.391 496.86.949 499.744c-2.108 4.207-.401 9.327 3.806 11.435 4.207 2.125 9.335.41 11.452-3.789.316-.631 31.787-61.722 92.041-63.522 13.005 9.361 75.46 52.344 146.68 68.028a8.624 8.624 0 0 0 3.704-.009c69.905-15.684 132.224-58.65 145.22-68.019 60.254 1.801 91.725 62.891 92.041 63.522 2.116 4.207 7.236 5.914 11.443 3.789 4.213-2.108 5.912-7.228 3.812-11.435z"/><path d="M298.711 230.492a8.536 8.536 0 0 0 8.533-8.533v-5.615c.555.529.922.964.964 1.024a8.536 8.536 0 0 0 11.512 3.627c4.181-2.176 5.803-7.33 3.627-11.511-2.534-4.873-10.581-13.124-24.636-13.124-14.054 0-22.101 8.252-24.636 13.124-2.125 4.087-.546 8.969 3.456 11.23 4.011 2.287 9.165.811 11.563-3.123.085-.128.495-.623 1.084-1.195v5.564c0 4.709 3.823 8.532 8.533 8.532zm-85.333-34.133c-14.054 0-22.101 8.252-24.636 13.124-2.125 4.087-.546 8.969 3.456 11.23 4.011 2.287 9.165.811 11.563-3.123.085-.128.495-.623 1.084-1.195v5.564a8.536 8.536 0 0 0 8.533 8.533 8.536 8.536 0 0 0 8.533-8.533v-5.615c.555.529.922.964.964 1.024a8.536 8.536 0 0 0 11.512 3.627c4.181-2.176 5.803-7.33 3.627-11.511-2.535-4.874-10.582-13.125-24.636-13.125z"/></svg>