<svg xmlns="http://www.w3.org/2000/svg" viewBox="0 0 512 512"><path d="M68.523 221.867h-.085c-4.71 0-8.491 3.814-8.491 8.533 0 4.71 3.866 8.533 8.576 8.533a8.53 8.53 0 0 0 8.533-8.533 8.525 8.525 0 0 0-8.533-8.533zm0 68.266h-.085c-4.71 0-8.491 3.814-8.491 8.533 0 4.71 3.866 8.533 8.576 8.533a8.53 8.53 0 0 0 8.533-8.533 8.526 8.526 0 0 0-8.533-8.533zm0-145.066h-.085c-4.71 0-8.491 3.814-8.491 8.533 0 4.71 3.866 8.533 8.576 8.533a8.53 8.53 0 0 0 8.533-8.533 8.525 8.525 0 0 0-8.533-8.533zm42.581 273.066c-4.71 0-8.491 3.814-8.491 8.533 0 4.71 3.866 8.533 8.576 8.533a8.53 8.53 0 0 0 8.533-8.533 8.525 8.525 0 0 0-8.533-8.533h-.085zm51.029-384h8.533v8.533a8.536 8.536 0 0 0 8.533 8.533 8.53 8.53 0 0 0 8.533-8.533v-8.533h8.533a8.53 8.53 0 0 0 8.533-8.533 8.525 8.525 0 0 0-8.533-8.533h-8.533V8.533A8.525 8.525 0 0 0 179.199 0a8.53 8.53 0 0 0-8.533 8.533v8.533h-8.533a8.53 8.53 0 0 0-8.533 8.533c0 4.711 3.823 8.534 8.533 8.534zm128 34.134a8.536 8.536 0 0 0 8.533 8.533 8.53 8.53 0 0 0 8.533-8.533 8.53 8.53 0 0 0 8.533-8.533 8.525 8.525 0 0 0-8.533-8.533 8.525 8.525 0 0 0-8.533-8.533 8.53 8.53 0 0 0-8.533 8.533 8.53 8.53 0 0 0-8.533 8.533 8.536 8.536 0 0 0 8.533 8.533zM256 204.8c23.526 0 42.667-19.149 42.667-42.667v-17.067c0-23.526-19.14-42.667-42.667-42.667-23.526 0-42.667 19.14-42.667 42.667v17.067c0 23.518 19.141 42.667 42.667 42.667zm-25.6-59.733c0-14.123 11.486-25.6 25.6-25.6 14.123 0 25.6 11.477 25.6 25.6v17.067c0 14.114-11.477 25.6-25.6 25.6-14.114 0-25.6-11.486-25.6-25.6v-17.067z"/><path d="M156.1 369.434c-.802.794-19.567 19.985-19.567 57.233 0 16.111-10.948 34.133-25.6 34.133s-25.6-18.022-25.6-34.133c0-13.235 12.177-70.912 16.862-92.023a8.525 8.525 0 0 0-2.227-7.817c-2.022-2.065-4.949-2.987-7.774-2.398-.35.068-34.714 6.682-56.619-11.273-12.279-10.069-18.509-26.428-18.509-48.623 0-27.11 10.453-40.806 19.669-52.89C44.177 201.89 51.2 192.683 51.2 179.2c0-14.814-5.009-24.841-9.429-33.69-4.096-8.192-7.637-15.258-7.637-26.044 0-16.017 1.852-68.267 25.6-68.267 25.216 0 71.031 8.192 94.558 63.095 17.809 41.549 33.818 84.514 33.98 84.941 1.638 4.42 6.562 6.673 10.974 5.026 4.412-1.647 6.665-6.554 5.018-10.974-.154-.435-16.307-43.776-34.287-85.717-28.4-66.286-86.555-73.437-110.244-73.437-19.456 0-42.667 14.797-42.667 85.333 0 14.805 5.018 24.832 9.438 33.681 4.096 8.192 7.629 15.258 7.629 26.052 0 7.714-4.599 13.747-10.965 22.093C13.389 214.101 0 231.654 0 264.533c0 27.554 8.329 48.358 24.755 61.824 18.867 15.462 43.563 17.015 58.24 16.222-4.89 22.741-14.729 70.144-14.729 84.087 0 24.721 17.152 51.2 42.667 51.2 25.523 0 42.667-26.479 42.667-51.2 0-29.798 14.02-44.595 14.566-45.167 3.337-3.337 3.337-8.738 0-12.066-3.328-3.336-8.729-3.336-12.066.001z"/><path d="M42.923 256h-.085c-4.71 0-8.491 3.814-8.491 8.533 0 4.71 3.866 8.533 8.576 8.533a8.53 8.53 0 0 0 8.533-8.533A8.525 8.525 0 0 0 42.923 256zm85.333-136.533a8.525 8.525 0 0 0-8.533-8.533h-.085c-4.71 0-8.491 3.814-8.491 8.533 0 4.71 3.866 8.533 8.576 8.533a8.53 8.53 0 0 0 8.533-8.533zm-42.667-8.534a8.525 8.525 0 0 0-8.533-8.533h-.085c-4.71 0-8.491 3.814-8.491 8.533 0 4.71 3.866 8.533 8.576 8.533a8.53 8.53 0 0 0 8.533-8.533zm358.4 34.134h-.085c-4.71 0-8.491 3.814-8.491 8.533 0 4.71 3.866 8.533 8.576 8.533a8.53 8.53 0 0 0 8.533-8.533 8.524 8.524 0 0 0-8.533-8.533zm-145.757 139.23c1.493-4.471-.922-9.301-5.393-10.795-4.48-1.51-9.31.93-10.795 5.393l-8.533 25.6a8.535 8.535 0 0 0 2.057 8.73c9.958 10.001 33.34 38.955 32.742 62.242H203.691c-.597-23.287 22.784-52.241 32.751-62.242a8.536 8.536 0 0 0 2.057-8.73l-8.533-25.6c-1.493-4.463-6.315-6.904-10.795-5.393a8.53 8.53 0 0 0-5.393 10.795l6.921 20.77c-10.803 11.93-40.789 48.683-32.708 80.998a8.535 8.535 0 0 0 8.277 6.468h33.391l-7.757 93.158c-.393 4.693 3.098 8.815 7.791 9.207.247.026.478.034.717.034a8.54 8.54 0 0 0 8.499-7.825l7.876-94.575h18.432l7.885 94.575c.367 4.454 4.104 7.825 8.491 7.825.239 0 .478-.009.717-.034 4.702-.393 8.192-4.514 7.799-9.207l-7.765-93.158h33.391a8.534 8.534 0 0 0 8.277-6.468c8.081-32.316-21.905-69.069-32.7-80.998l6.92-20.77zm179.891-19.764A8.525 8.525 0 0 0 469.59 256h-.085c-4.71 0-8.491 3.814-8.491 8.533 0 4.71 3.866 8.533 8.576 8.533a8.53 8.53 0 0 0 8.533-8.533zm-34.134 25.6h-.085c-4.71 0-8.491 3.814-8.491 8.533 0 4.71 3.866 8.533 8.576 8.533a8.53 8.53 0 0 0 8.533-8.533 8.525 8.525 0 0 0-8.533-8.533zM503.467 486.4a8.525 8.525 0 0 0-8.533-8.533 8.53 8.53 0 0 0-8.533 8.533 8.53 8.53 0 0 0-8.533 8.533 8.536 8.536 0 0 0 8.533 8.533 8.536 8.536 0 0 0 8.533 8.533 8.53 8.53 0 0 0 8.533-8.533 8.53 8.53 0 0 0 8.533-8.533 8.525 8.525 0 0 0-8.533-8.533zm-68.011-384h-.085c-4.71 0-8.491 3.814-8.491 8.533 0 4.71 3.866 8.533 8.576 8.533a8.53 8.53 0 0 0 8.533-8.533 8.525 8.525 0 0 0-8.533-8.533zm8.533 119.467h-.085c-4.71 0-8.491 3.814-8.491 8.533 0 4.71 3.866 8.533 8.576 8.533a8.53 8.53 0 0 0 8.533-8.533 8.524 8.524 0 0 0-8.533-8.533z"/><path d="M487.245 326.357C503.672 312.892 512 292.087 512 264.533c0-32.879-13.389-50.432-23.168-63.241-6.366-8.346-10.965-14.379-10.965-22.093 0-10.795 3.541-17.86 7.637-26.052 4.42-8.849 9.429-18.876 9.429-33.681 0-70.537-23.202-85.333-42.667-85.333-23.68 0-81.835 7.151-110.242 73.438-17.971 41.941-34.125 85.282-34.287 85.717-1.647 4.42.606 9.327 5.026 10.974 4.386 1.63 9.327-.606 10.965-5.026.162-.427 16.171-43.383 33.98-84.941C381.244 59.392 427.051 51.2 452.267 51.2c23.757 0 25.6 52.25 25.6 68.267 0 10.786-3.533 17.852-7.629 26.044-4.42 8.849-9.438 18.876-9.438 33.69 0 13.483 7.031 22.69 14.473 32.444 9.216 12.083 19.661 25.779 19.661 52.89 0 22.153-6.204 38.494-18.441 48.563-21.76 17.92-56.354 11.401-56.695 11.332a8.559 8.559 0 0 0-7.765 2.415 8.536 8.536 0 0 0-2.227 7.799c4.693 21.112 16.862 78.788 16.862 92.023 0 16.111-10.948 34.133-25.6 34.133-14.652 0-25.6-18.022-25.6-34.133 0-37.248-18.765-56.44-19.567-57.233-3.311-3.319-8.653-3.319-11.989-.026-3.345 3.285-3.379 8.678-.119 12.041.597.623 14.609 15.42 14.609 45.218 0 24.721 17.152 51.2 42.667 51.2 25.523 0 42.667-26.479 42.667-51.2 0-13.943-9.83-61.346-14.729-84.087 14.709.801 39.379-.76 58.238-16.223z"/><path d="M273.067 221.867h-34.133c-58.377 0-67.857 105.719-68.233 110.225a8.523 8.523 0 0 0 7.791 9.207 8.533 8.533 0 0 0 9.216-7.791c2.21-26.308 15.735-94.575 51.226-94.575h34.133c35.49 0 49.015 68.267 51.234 94.575.375 4.454 4.104 7.825 8.491 7.825.239 0 .478-.017.725-.034 4.693-.393 8.184-4.514 7.791-9.207-.376-4.506-9.856-110.225-68.241-110.225zm119.68 204.8c0 4.71 3.866 8.533 8.576 8.533a8.53 8.53 0 0 0 8.533-8.533 8.525 8.525 0 0 0-8.533-8.533h-.085c-4.711-.001-8.491 3.814-8.491 8.533zm.042-315.734h-.085c-4.71 0-8.491 3.814-8.491 8.533 0 4.71 3.866 8.533 8.576 8.533a8.53 8.53 0 0 0 8.533-8.533 8.525 8.525 0 0 0-8.533-8.533z"/></svg>