<svg xmlns="http://www.w3.org/2000/svg" viewBox="0 0 512.004 512.004"><path d="M11.233 426.233c1.118-.375 27.819-9.481 54.537-36.198 6.852-6.861 14.694-20.343 25.54-39.014 31.787-54.69 84.975-146.219 164.693-146.219S388.91 296.33 420.688 351.02c10.846 18.671 18.688 32.154 25.549 39.014 26.718 26.718 53.402 35.823 54.528 36.198a8.57 8.57 0 0 0 2.705.435 8.531 8.531 0 0 0 8.09-5.837c1.493-4.471-.922-9.301-5.393-10.795-.239-.077-23.962-8.166-47.863-32.068-5.282-5.291-13.423-19.302-22.861-35.524-14.626-25.165-33.545-57.702-57.609-86.443h56.055l-7.142 49.988c-.666 4.668 2.577 8.994 7.245 9.66.41.06.819.085 1.22.085 4.181 0 7.834-3.072 8.439-7.322l8.533-59.733a8.556 8.556 0 0 0-1.997-6.801 8.558 8.558 0 0 0-6.451-2.944h-81.348c-28.698-29.235-63.77-51.2-106.385-51.2-42.624 0-77.696 21.965-106.385 51.2H68.27c-.222 0-.401.111-.614.128-.205.009-.393-.068-.597-.043-.375.06-.666.265-1.024.367-.563.154-1.101.307-1.613.572-.486.247-.896.563-1.323.896-.435.341-.845.674-1.212 1.092-.35.41-.623.853-.887 1.323-.282.478-.529.939-.717 1.468-.179.529-.256 1.075-.333 1.647-.043.375-.213.7-.213 1.084 0 .213.102.393.119.606.017.205-.06.393-.034.606l8.533 59.733c.606 4.25 4.258 7.322 8.431 7.322a8.526 8.526 0 0 0 8.456-9.745l-7.134-49.988h56.055c-24.064 28.74-42.982 61.278-57.609 86.443-9.429 16.222-17.57 30.234-22.852 35.524C29.99 401.674 6.054 409.96 5.815 410.046c-4.454 1.502-6.861 6.323-5.376 10.786 1.484 4.471 6.306 6.912 10.794 5.401zM298.67 102.402a8.536 8.536 0 0 0-8.533-8.533H221.87a8.53 8.53 0 0 0-8.533 8.533c0 4.685 3.78 8.474 8.448 8.516-.546 33.152-4.062 58.274-4.096 58.547-.666 4.659 2.577 8.986 7.245 9.651.401.06.811.085 1.212.085 4.173 0 7.834-3.072 8.431-7.322.171-1.152 3.746-26.633 4.284-60.945h34.287c.538 34.312 4.113 59.793 4.267 60.945.614 4.25 4.267 7.322 8.448 7.322.401 0 .802-.026 1.212-.085 4.659-.666 7.902-4.992 7.245-9.651-.043-.273-3.558-25.395-4.104-58.547 4.674-.043 8.454-3.831 8.454-8.516zm59.989-76.8c4.71 0 8.533-3.823 8.533-8.533s-3.823-8.533-8.533-8.533h-.094c-4.702 0-8.482 3.823-8.482 8.533s3.858 8.533 8.576 8.533z"/><path d="M392.571 470.043c.384 4.693 4.429 8.158 9.208 7.799 4.702-.401 8.183-4.523 7.791-9.216-.179-2.142-4.599-53.052-25.105-104.832-27.913-70.519-72.329-107.793-128.461-107.793s-100.557 37.274-128.469 107.793c-20.497 51.78-24.926 102.69-25.105 104.832-.393 4.693 3.098 8.823 7.799 9.216.239.017.478.026.717.026 4.386 0 8.124-3.371 8.491-7.825.162-1.971 17.792-196.975 136.567-196.975 118.638 0 136.396 195.013 136.567 196.975zM230.404 76.802c4.71 0 8.533-3.823 8.533-8.533s-3.823-8.533-8.533-8.533c-4.71 0-8.533-3.831-8.533-8.533 0-6.204 7.091-10.761 12.911-7.262a8.533 8.533 0 0 0 8.969-.085 8.545 8.545 0 0 0 3.934-8.064l-.213-1.655c0-9.412 7.654-17.067 17.067-17.067 7.066 0 13.466 4.506 15.94 11.204a8.574 8.574 0 0 0 6.34 5.419c2.927.555 5.914-.41 7.927-2.577 3.294-3.558 7.714-5.513 12.459-5.513 9.404 0 17.067 7.654 17.067 17.067 0 9.412-7.663 17.067-17.067 17.067-4.719 0-8.533 3.823-8.533 8.533s3.814 8.533 8.533 8.533c18.825 0 34.133-15.309 34.133-34.133s-15.31-34.135-34.135-34.135a33.86 33.86 0 0 0-16.222 4.164C284.616 4.84 274.93.002 264.537.002c-15.889 0-29.269 10.906-33.058 25.626-14.456-.742-26.675 11.102-26.675 25.574-.001 14.114 11.477 25.6 25.6 25.6z"/><path d="M281.859 68.268a8.536 8.536 0 0 0-8.533-8.533h-.094c-4.71 0-8.482 3.823-8.482 8.533s3.857 8.533 8.576 8.533c4.711.001 8.533-3.822 8.533-8.533zM452.27 494.935H93.87c-4.719 0-8.533 3.823-8.533 8.533s3.814 8.533 8.533 8.533h358.4c4.71 0 8.533-3.823 8.533-8.533s-3.822-8.533-8.533-8.533zm51.2 0h-17.067c-4.719 0-8.533 3.823-8.533 8.533s3.814 8.533 8.533 8.533h17.067c4.71 0 8.533-3.823 8.533-8.533s-3.822-8.533-8.533-8.533zm-443.733 0h-51.2c-4.719 0-8.533 3.823-8.533 8.533s3.814 8.533 8.533 8.533h51.2c4.71 0 8.533-3.823 8.533-8.533s-3.823-8.533-8.533-8.533zm162.133-128a8.53 8.53 0 0 0 8.533 8.533h51.2c4.71 0 8.533-3.823 8.533-8.533s-3.823-8.533-8.533-8.533h-51.2a8.531 8.531 0 0 0-8.533 8.533z"/><path d="M256.003 290.135c-47.394 0-66.577 37.265-67.371 38.852-.034.077-.017.162-.06.239-.503 1.092-.836 2.287-.836 3.575v136.533a8.53 8.53 0 0 0 8.533 8.533h119.467a8.536 8.536 0 0 0 8.533-8.533V332.802c0-1.289-.333-2.483-.845-3.575-.034-.077-.026-.162-.06-.239-.792-1.588-19.975-38.853-67.361-38.853zm51.2 102.4h-8.533c-4.719 0-8.533 3.823-8.533 8.533s3.814 8.533 8.533 8.533h8.533v17.067h-76.8c-4.719 0-8.533 3.823-8.533 8.533s3.814 8.533 8.533 8.533h76.8v17.067h-102.4v-51.2h59.733c4.71 0 8.533-3.823 8.533-8.533s-3.823-8.533-8.533-8.533h-59.733v-51.2h34.133a8.536 8.536 0 0 0 8.533-8.533 8.536 8.536 0 0 0-8.533-8.533h-25.429c8.183-8.047 21.922-17.067 42.496-17.067 20.685 0 34.398 9.011 42.556 17.067H273.07a8.53 8.53 0 0 0-8.533 8.533 8.53 8.53 0 0 0 8.533 8.533h34.133v51.2z"/></svg>