<svg xmlns="http://www.w3.org/2000/svg" viewBox="0 0 512.003 512.003"><path d="M247.468 349.867c-4.719 0-8.533 3.823-8.533 8.533s3.814 8.533 8.533 8.533h17.067c4.719 0 8.533-3.823 8.533-8.533s-3.814-8.533-8.533-8.533h-17.067z"/><path d="M366.935 307.2v-68.267c0-4.71-3.814-8.533-8.533-8.533s-8.533 3.823-8.533 8.533V307.2c0 13.338-14.985 28.638-26.18 37.845-4.659-8.883-11.656-16.785-22.323-20.343l-16.265-5.419 4.139-8.269c2.108-4.215.393-9.335-3.823-11.452-4.216-2.108-9.327-.393-11.452 3.823l-8.533 17.067c-.008.034-.008.068-.017.094-.017.034-.043.051-.06.085-.205.375-2.193 3.635-9.353 3.635-7.108 0-9.182-3.362-9.25-3.422-.034-.068-.094-.119-.128-.179-.034-.077-.026-.145-.051-.213l-8.533-17.067c-2.116-4.215-7.236-5.931-11.452-3.823-4.216 2.116-5.931 7.236-3.823 11.452l4.139 8.269-16.265 5.419c-10.667 3.558-17.664 11.46-22.323 20.343-11.196-9.207-26.18-24.508-26.18-37.845v-68.267a8.53 8.53 0 0 0-8.533-8.533 8.53 8.53 0 0 0-8.533 8.533V307.2c0 24.141 25.574 46.063 37.026 54.673-2.807 11.477-2.893 21.239-2.893 22.127 0 4.71 3.814 8.533 8.533 8.533s8.533-3.823 8.533-8.533c0-.367.538-36.693 19.763-43.102l19.994-6.673c4.122 3.755 10.641 7.108 19.977 7.108 9.404 0 15.915-3.337 20.019-7.091l19.951 6.656c16.12 5.376 19.729 32.947 19.763 43.11.017 4.71 3.831 8.516 8.533 8.516h.017c4.71 0 8.516-3.814 8.516-8.525 0-.887-.085-10.65-2.893-22.127 11.452-8.609 37.026-30.531 37.026-54.672zm-230.4-145.067a8.547 8.547 0 0 0 5.367 7.927c1.801.717 44.979 17.673 114.099 17.673 24.388 0 62.643-2.295 78.524-5.572 4.617-.964 7.586-5.47 6.63-10.086-.956-4.625-5.572-7.578-10.078-6.63-13.218 2.731-48.998 5.222-75.076 5.222-52.113 0-89.207-10.291-102.443-14.601-.751-53.521-11.076-105.122-15.411-124.535 16.666-4.506 60.049-14.464 117.854-14.464s101.188 9.958 117.862 14.464c-2.876 12.877-8.371 39.936-11.964 72.294-14.413 3.721-63.957 15.642-105.899 15.642-41.02 0-74.402-8.192-74.735-8.277a8.512 8.512 0 0 0-10.342 6.212c-1.143 4.565 1.638 9.199 6.212 10.342 1.434.358 35.652 8.789 78.865 8.789 39.637 0 84.233-9.754 104.149-14.652-1.05 13.039-1.715 26.615-1.715 40.252a8.53 8.53 0 0 0 8.533 8.533 8.53 8.53 0 0 0 8.533-8.533c0-66.372 16.606-133.794 16.785-134.468a8.54 8.54 0 0 0-5.589-10.163C384.556 16.794 333.305 0 256.002 0S127.447 16.794 125.305 17.502a8.54 8.54 0 0 0-5.581 10.172c.171.665 16.811 68.01 16.811 134.459z"/><path d="M196.268 256h8.533a8.53 8.53 0 0 0 8.533 8.533 8.53 8.53 0 0 0 8.533-8.533h8.533c4.719 0 8.533-3.823 8.533-8.533s-3.814-8.533-8.533-8.533h-34.133c-4.719 0-8.533 3.823-8.533 8.533s3.815 8.533 8.534 8.533zm59.734-34.133c110.251 0 221.867-20.514 221.867-59.733 0-32.085-42.948-43.537-75.255-49.365-4.71-.828-9.088 2.253-9.916 6.886-.836 4.642 2.244 9.079 6.878 9.916 27.938 5.026 61.227 14.763 61.227 32.563 0 14.891-70.34 42.667-204.8 42.667s-204.8-27.776-204.8-42.667c0-17.783 33.306-27.529 61.252-32.555 4.634-.845 7.714-5.282 6.878-9.916-.828-4.642-5.205-7.731-9.916-6.886-32.316 5.82-75.281 17.28-75.281 49.357-.001 39.219 111.615 59.733 221.866 59.733z"/><path d="M373.881 406.929c34.483-19.601 38.554-64.853 27.409-100.395 8.218-51.328-.29-77.722-.666-78.831-1.476-4.446-6.229-6.861-10.744-5.393-4.454 1.459-6.895 6.272-5.453 10.743.077.239 7.68 24.764-.307 72.738a8.366 8.366 0 0 0 .324 4.105c10.035 30.097 7.637 69.035-21.308 83.422a8.542 8.542 0 0 0-4.301 4.958c-7.697 23.177-22.673 38.187-45.798 45.892a8.528 8.528 0 0 0-3.337 2.065c-16.623 16.623-31.684 23.1-53.7 23.1-22.016 0-37.077-6.477-53.7-23.1a8.521 8.521 0 0 0-3.337-2.065c-23.117-7.706-38.093-22.682-45.807-45.798a8.493 8.493 0 0 0-4.275-4.941c-31.07-15.531-31.377-53.333-21.325-83.533a8.364 8.364 0 0 0 .324-4.105c-7.936-47.65-.478-72.166-.307-72.73 1.468-4.463-.947-9.267-5.41-10.761a8.498 8.498 0 0 0-10.786 5.402c-.375 1.109-8.875 27.503-.666 78.831-11.298 35.678-9.651 79.701 27.418 100.506 9.515 25.745 27.494 43.452 53.53 52.668 17.041 16.555 34.193 24.704 55.808 26.342v17.417c0 4.71 3.814 8.533 8.533 8.533s8.533-3.823 8.533-8.533V486.05c21.615-1.638 38.767-9.788 55.808-26.342 26.054-9.225 44.043-26.974 53.54-52.779zm137.677 93.841l-8.533-25.6c-9.992-29.943-33.382-48.503-119.023-48.503a8.54 8.54 0 0 0-6.929 3.55 8.502 8.502 0 0 0-1.161 7.68c.282.862 5.845 17.493 12.553 33.033-23.697 5.811-43.656 25.523-44.629 26.505-3.337 3.328-3.337 8.721-.009 12.058a8.54 8.54 0 0 0 12.066.017c.23-.23 23.475-23.108 45.175-23.108 2.961 0 5.7-1.536 7.262-4.045a8.538 8.538 0 0 0 .375-8.303c-4.651-9.31-9.378-21.436-12.587-30.182 72.738 1.698 84.813 19.004 90.726 36.693l8.533 25.6c1.186 3.576 4.514 5.837 8.09 5.837.888 0 1.801-.137 2.697-.435 4.472-1.496 6.887-6.325 5.394-10.797zm-344.303-4.13c-4.89-3.661-26.069-19.089-44.032-24.994 6.844-15.735 12.578-32.862 12.868-33.741a8.499 8.499 0 0 0-1.161-7.68 8.564 8.564 0 0 0-6.929-3.55c-85.641 0-109.03 18.551-119.023 48.495l-8.533 25.6c-1.493 4.471.922 9.301 5.393 10.795a8.517 8.517 0 0 0 2.697.435c3.576 0 6.904-2.261 8.09-5.837l8.533-25.6c5.914-17.69 17.997-34.987 90.726-36.685-3.209 8.747-7.936 20.864-12.587 30.174a8.538 8.538 0 0 0 .375 8.303 8.557 8.557 0 0 0 7.262 4.045c9.779 0 32.845 13.969 46.08 23.893a8.526 8.526 0 0 0 11.947-1.707c2.825-3.771 2.066-9.121-1.706-11.946z"/><path d="M281.602 256h8.533c0 4.71 3.814 8.533 8.533 8.533s8.533-3.823 8.533-8.533h8.533c4.719 0 8.533-3.823 8.533-8.533s-3.814-8.533-8.533-8.533h-34.133c-4.719 0-8.533 3.823-8.533 8.533s3.815 8.533 8.534 8.533z"/></svg>