<svg xmlns="http://www.w3.org/2000/svg" viewBox="0 0 512 512"><path d="M102.4 25.6c0 4.71 3.823 8.533 8.533 8.533s8.533-3.823 8.533-8.533c4.71 0 8.533-3.823 8.533-8.533s-3.823-8.533-8.533-8.533c0-4.71-3.823-8.533-8.533-8.533S102.4 3.823 102.4 8.533c-4.71 0-8.533 3.823-8.533 8.533S97.69 25.6 102.4 25.6zm366.933 264.533h8.533v8.533c0 4.71 3.814 8.533 8.533 8.533s8.533-3.823 8.533-8.533v-8.533h8.533c4.719 0 8.533-3.823 8.533-8.533s-3.814-8.533-8.533-8.533h-8.533v-8.533c0-4.71-3.814-8.533-8.533-8.533s-8.533 3.823-8.533 8.533v8.533h-8.533c-4.719 0-8.533 3.823-8.533 8.533s3.814 8.533 8.533 8.533zm0-238.933c0 4.71 3.814 8.533 8.533 8.533S486.4 55.91 486.4 51.2a8.53 8.53 0 0 0 8.533-8.533 8.53 8.53 0 0 0-8.533-8.533c0-4.71-3.814-8.533-8.533-8.533s-8.533 3.823-8.533 8.533a8.53 8.53 0 0 0-8.533 8.533 8.53 8.53 0 0 0 8.532 8.533z"/><path d="M420.301 359.296c-3.891-1.007-7.791 1.007-9.557 4.489 5.828-145.05 32.486-266.709 32.794-268.066a8.567 8.567 0 0 0-3.601-8.951C437.76 85.316 385.101 51.2 256 51.2c-128.811 0-181.495 33.946-183.893 35.541-.009.009-.009.009-.017.009 0 .009-.017.017-.026.017-.87.58-1.553 1.331-2.142 2.142-.06.094-.162.137-.222.222-.111.162-.119.35-.213.521a8.502 8.502 0 0 0-.862 2.099c-.077.299-.162.58-.205.879a7.915 7.915 0 0 0 .017 2.5c.017.162-.008.324.026.486.009.034 0 .068.009.102.333 1.527 33.929 154.718 33.929 322.415a8.529 8.529 0 0 0 6.187 8.201c2.492.717 61.867 17.399 147.413 17.399 85.538 0 144.922-16.683 147.405-17.399a8.526 8.526 0 0 0 6.195-8.201c0-15.949.307-31.77.862-47.343.998 2.389 2.927 4.361 5.641 5.043 50.099 12.749 78.831 31.275 78.831 50.833 0 37.641-107.187 68.267-238.933 68.267S17.067 464.307 17.067 426.667c0-19.149 26.342-36.77 74.18-49.613a8.537 8.537 0 0 0 6.025-10.462c-1.22-4.548-5.905-7.236-10.453-6.025C29.21 376.038 0 398.276 0 426.667 0 485.299 132.702 512 256 512s256-26.701 256-85.333c0-28.809-31.71-52.105-91.699-67.371zm-130.168 58.837c0 3.482-2.15 6.554-5.342 7.851-9.225.418-18.807.683-28.792.683-10.001 0-19.601-.265-28.851-.691-3.157-1.306-5.282-4.403-5.282-7.842v-51.2c0-4.702 3.831-8.533 8.533-8.533h51.2c4.71 0 8.533 3.831 8.533 8.533v51.199zM298.667 256h8.533v8.533c0 4.702-3.823 8.533-8.533 8.533s-8.533-3.831-8.533-8.533c-.001-4.702 3.822-8.533 8.533-8.533zm-8.534-25.6c0-4.702 3.823-8.533 8.533-8.533s8.533 3.831 8.533 8.533v8.533h-8.533c-4.71 0-8.533-3.831-8.533-8.533zM392.55 411.511c-12.621 3.063-43.827 9.779-86.263 13.141.555-2.099.913-4.275.913-6.519v-42.795c42.103-.879 71.185-7.987 86.519-12.962-.665 16.137-1.083 32.547-1.169 49.135zm2.014-67.524c-10.726 3.994-40.414 13.227-87.211 14.276 1.015-34.543 7.834-59.315 12.245-71.91 3.866 2.355 8.354 3.78 13.201 3.78 14.114 0 25.6-11.486 25.6-25.6 0-6.579-2.569-12.527-6.656-17.067 4.087-4.54 6.656-10.487 6.656-17.067 0-14.114-11.486-25.6-25.6-25.6-6.579 0-12.527 2.569-17.067 6.656-4.54-4.087-10.487-6.656-17.067-6.656-14.114 0-25.6 11.486-25.6 25.6 0 6.579 2.568 12.527 6.656 17.067-4.087 4.54-6.656 10.487-6.656 17.067 0 14.114 11.486 25.6 25.6 25.6.614 0 1.195-.137 1.801-.179-3.695 12.493-7.663 30.473-9.412 53.239-2.927-1.169-6.11-1.86-9.455-1.86h-51.2c-11.051 0-20.403 7.083-23.979 16.913-21.239-.375-41.318-2.364-59.648-6.11-4.634-.964-9.122 2.031-10.069 6.656a8.542 8.542 0 0 0 6.656 10.069c18.961 3.874 39.646 5.956 61.44 6.417v42.854c0 2.236.358 4.412.913 6.511-42.385-3.362-73.626-10.069-86.263-13.133-.691-134.016-22.153-257.664-30.78-302.106 24.465 10.539 77.235 27.127 167.33 27.127 67.14 0 113.212-9.472 140.023-17.417 4.514-1.34 7.091-6.084 5.76-10.607-1.34-4.514-6.093-7.083-10.607-5.76-25.737 7.629-70.076 16.717-135.177 16.717-86.579 0-137.293-15.983-160.026-25.6 22.733-9.626 73.463-25.6 160.026-25.6 101.786 0 154.172 22.127 169.557 29.978-5.237 25.491-24.642 125.997-30.991 245.745zM332.8 256c4.71 0 8.533 3.831 8.533 8.533s-3.823 8.533-8.533 8.533c-4.71 0-8.533-3.831-8.533-8.533V256h8.533zm-8.533-17.067V230.4c0-4.702 3.823-8.533 8.533-8.533 4.71 0 8.533 3.831 8.533 8.533s-3.823 8.533-8.533 8.533h-8.533zM8.533 128h8.533v8.533a8.536 8.536 0 0 0 8.533 8.533 8.536 8.536 0 0 0 8.533-8.533V128h8.533c4.71 0 8.533-3.823 8.533-8.533s-3.823-8.533-8.533-8.533h-8.533V102.4a8.536 8.536 0 0 0-8.533-8.533 8.536 8.536 0 0 0-8.533 8.533v8.533H8.533c-4.71 0-8.533 3.823-8.533 8.533S3.823 128 8.533 128z"/></svg>