<svg xmlns="http://www.w3.org/2000/svg" viewBox="0 0 512.005 512.005"><path d="M318.658 391.998c-1.681 0-3.482.282-5.342.836a7.411 7.411 0 0 0-.939.341l-56.439 24.183-56.303-24.124a9.005 9.005 0 0 0-1.015-.367c-2.048-.58-3.891-.87-5.623-.87-3.234 0-13.79 1.271-13.79 17.604v34.133c0 16.7 11.776 17.553 14.14 17.553 1.69 0 3.482-.282 5.342-.836.324-.094.64-.205.947-.341l29.15-12.493-6.852 54.793a8.55 8.55 0 0 0 7.415 9.532c.358.043.717.06 1.067.06 4.241 0 7.919-3.157 8.456-7.475l8.09-64.7 9.105-3.9 9.122 3.908 7.996 47.974a8.534 8.534 0 0 0 8.414 7.125c.461 0 .939-.034 1.408-.111a8.532 8.532 0 0 0 7.014-9.822l-6.195-37.188 28.553 12.245c.333.137.666.256 1.015.358 2.048.58 3.883.87 5.615.87 3.234 0 13.798-1.271 13.798-17.604v-34.133c0-16.698-11.785-17.551-14.149-17.551zm-122.385 50.944v-32.589l38.05 16.307-38.05 16.282zm119.467-.008l-38.067-16.316 38.067-16.299v32.615zm-50.953-169.865a8.53 8.53 0 0 0-8.533-8.533h-.077c-4.719 0-8.491 3.823-8.491 8.533 0 4.719 3.857 8.533 8.567 8.533a8.525 8.525 0 0 0 8.534-8.533z"/><path d="M511.563 499.902l-8.533-25.6c-5.009-15.036-22.357-45.466-81.246-58.513 11.145-25.924 39.023-97.783 39.023-168.32 0-30.089-6.878-43.605-14.831-59.247-6.34-12.459-13.517-26.573-19.507-53.53C408.011 51.611 342.689.002 256.007.002c-86.69 0-152.004 51.61-170.462 134.69-5.393 24.226-12.416 38.298-18.628 50.705-8.431 16.87-15.71 31.437-15.71 62.071 0 70.537 27.87 142.396 39.014 168.32-58.88 13.047-76.237 43.477-81.246 58.513l-8.533 25.6c-1.493 4.463.922 9.301 5.393 10.795a8.53 8.53 0 0 0 2.705.435c3.575 0 6.903-2.261 8.09-5.837l8.533-25.6c4.147-12.442 25.668-53.026 128.444-53.026a8.53 8.53 0 0 0 8.533-8.533 8.536 8.536 0 0 0-8.533-8.533c-17.34 0-32.631 1.109-46.114 3.038-9.122-20.83-39.219-94.857-39.219-165.171 0-26.607 5.837-38.281 13.909-54.443 6.647-13.286 14.174-28.348 20.019-54.639 16.623-74.829 75.563-121.318 153.805-121.318s137.173 46.49 153.805 121.318c6.451 29.065 14.49 44.877 20.949 57.566 7.535 14.814 12.979 25.515 12.979 51.516 0 70.212-30.106 144.324-39.228 165.171-13.491-1.929-28.774-3.038-46.106-3.038a8.53 8.53 0 0 0-8.533 8.533 8.525 8.525 0 0 0 8.533 8.533c102.775 0 124.288 40.585 128.435 53.026l8.533 25.6a8.543 8.543 0 0 0 10.795 5.402c4.472-1.493 6.887-6.331 5.394-10.794z"/><path d="M144.954 129.41c7.066-42.394 57.924-78.208 111.053-78.208 53.12 0 103.979 35.814 111.044 78.208 4.48 26.863 15.556 49.007 25.318 68.548 9.25 18.492 17.237 34.458 17.237 49.51 0 28.868-4.275 84.412-32.922 132.147-2.423 4.036-1.118 9.284 2.927 11.708a8.448 8.448 0 0 0 4.386 1.212c2.901 0 5.726-1.468 7.322-4.139 30.763-51.26 35.354-110.293 35.354-140.928 0-19.072-9.25-37.564-19.038-57.148-9.233-18.458-19.686-39.381-23.748-63.718-8.499-50.987-65.869-92.467-127.881-92.467-62.02 0-119.39 41.481-127.889 92.467-4.053 24.337-14.515 45.261-23.748 63.718-9.788 19.584-19.029 38.076-19.029 57.148 0 30.635 4.591 89.668 35.345 140.928 2.423 4.045 7.671 5.342 11.708 2.927 4.045-2.423 5.35-7.672 2.927-11.708-28.638-47.735-32.913-103.279-32.913-132.147 0-15.053 7.987-31.019 17.229-49.51 9.77-19.541 20.846-41.685 25.318-68.548z"/><path d="M307.207 229.532v-5.615c.546.529.922.964.956 1.024a8.548 8.548 0 0 0 11.52 3.627c4.173-2.176 5.803-7.33 3.627-11.511-2.534-4.873-10.581-13.124-24.636-13.124s-22.101 8.252-24.644 13.124c-2.116 4.087-.546 8.969 3.465 11.23 4.002 2.278 9.165.811 11.554-3.123.085-.128.495-.631 1.092-1.195v5.564a8.53 8.53 0 0 0 8.533 8.533c4.71-.001 8.533-3.824 8.533-8.534z"/><path d="M256.007 375.469c68.369 0 119.467-94.601 119.467-179.2a8.536 8.536 0 0 0-8.533-8.533 8.53 8.53 0 0 0-8.533 8.533c0 83.345-49.766 162.133-102.4 162.133-51.354 0-99.968-74.991-102.315-156.041 23.834-8.149 100.77-35.473 132.258-58.752 14.694 35.738 51.951 43.614 53.709 43.964 4.625.913 9.122-2.074 10.044-6.69.93-4.625-2.074-9.122-6.69-10.044-.367-.077-37.171-7.842-44.51-44.51a8.547 8.547 0 0 0-6.707-6.699 8.503 8.503 0 0 0-8.755 3.644c-11.247 16.862-92.254 48.759-140.672 64.905a8.526 8.526 0 0 0-5.828 8.09c-.002 93.79 56.941 179.2 119.465 179.2z"/><path d="M256.007 332.802c30.524 0 41.318-20.89 41.762-21.777 2.082-4.173.41-9.182-3.729-11.332-4.122-2.133-9.259-.521-11.477 3.584-.273.512-6.946 12.459-26.556 12.459-19.618 0-26.283-11.947-26.505-12.348a8.53 8.53 0 0 0-11.452-3.814c-4.215 2.108-5.922 7.236-3.814 11.452.444.887 11.247 21.776 41.771 21.776zm-42.667-94.737a8.536 8.536 0 0 0 8.533-8.533v-5.615c.546.529.922.964.956 1.024a8.548 8.548 0 0 0 11.52 3.627c4.173-2.176 5.803-7.33 3.627-11.511-2.534-4.873-10.581-13.124-24.636-13.124-14.054 0-22.101 8.252-24.644 13.124-2.116 4.087-.546 8.969 3.465 11.23 4.002 2.278 9.156.811 11.554-3.123.085-.128.495-.631 1.092-1.195v5.564a8.53 8.53 0 0 0 8.533 8.532z"/></svg>