<svg xmlns="http://www.w3.org/2000/svg" viewBox="0 0 512 512"><path d="M123.093 212.386c4.215-2.091 5.948-7.211 3.857-11.435s-7.202-5.965-11.435-3.857c-8.704 4.309-13.116 9.771-13.116 16.239 0 32.486 127.949 34.133 153.6 34.133 25.651 0 153.6-1.647 153.6-34.133 0-6.63-4.642-12.203-13.815-16.572-4.25-2.039-9.344-.23-11.375 4.019-2.022 4.258-.23 9.353 4.028 11.375.964.461 1.732.879 2.338 1.246C379.819 220.041 334.328 230.4 256 230.4c-78.336 0-123.827-10.359-134.784-16.998a24.377 24.377 0 0 1 1.877-1.016z"/><path d="M307.2 93.867v115.2c0 4.71 3.823 8.533 8.533 8.533s8.533-3.823 8.533-8.533v-115.2c0-4.71-3.823-8.533-8.533-8.533s-8.533 3.822-8.533 8.533z"/><path d="M273.058 221.867c.256 0 .521-.009.776-.034 4.702-.427 8.158-4.582 7.731-9.267-7.953-87.475 20.813-180.582 34.159-194.5 12.885 13.73 42.112 106.59 34.185 185.882-.469 4.693 2.953 8.875 7.637 9.344 4.804.521 8.875-2.953 9.344-7.637 7.637-76.331-18.441-176.657-38.852-199.219-7.68-8.491-16.794-8.533-24.482-.128-20.787 22.758-46.524 124.911-38.989 207.795a8.53 8.53 0 0 0 8.491 7.764zm-68.258-12.8v-115.2c0-4.71-3.823-8.533-8.533-8.533s-8.533 3.823-8.533 8.533v115.2c0 4.71 3.823 8.533 8.533 8.533s8.533-3.823 8.533-8.533zM426.667 25.6c0 4.71 3.823 8.533 8.533 8.533s8.533-3.823 8.533-8.533c4.71 0 8.533-3.823 8.533-8.533s-3.823-8.533-8.533-8.533c0-4.71-3.823-8.533-8.533-8.533s-8.533 3.823-8.533 8.533c-4.71 0-8.533 3.823-8.533 8.533s3.822 8.533 8.533 8.533z"/><path d="M394.266 140.919c-4.651-.964-9.139 2.022-10.086 6.639s2.022 9.122 6.639 10.078c63.249 13.005 104.115 34.867 104.115 55.697 0 32.29-98.125 68.267-238.933 68.267S17.067 245.623 17.067 213.333c0-20.83 40.866-42.692 104.115-55.697 4.608-.956 7.586-5.461 6.639-10.078s-5.453-7.595-10.086-6.639C42.914 156.305 0 182.699 0 213.333c0 55.424 131.9 85.333 256 85.333s256-29.909 256-85.333c0-30.626-42.914-57.028-117.734-72.414zm6.801 157.748a8.536 8.536 0 0 0-8.533 8.533v157.875c-10.445 7.151-50.406 29.858-136.533 29.858-85.248 0-125.884-22.767-136.533-29.909V348.006c20.318 10.658 63.821 27.46 136.533 27.46 54.135 0 91.793-9.557 113.852-17.579 4.429-1.613 6.707-6.511 5.103-10.94-1.621-4.429-6.528-6.707-10.94-5.103C343.253 349.397 307.652 358.4 256 358.4c-82.688 0-125.227-22.921-136.533-30.106V307.2c0-4.71-3.823-8.533-8.533-8.533s-8.533 3.823-8.533 8.533v162.133a8.543 8.543 0 0 0 2.918 6.426C107.017 477.244 148.079 512 256 512c109.184 0 149.129-34.842 150.775-36.326a8.528 8.528 0 0 0 2.825-6.34V307.2a8.536 8.536 0 0 0-8.533-8.533z"/><path d="M154.453 213.291c4.685-.469 8.107-4.651 7.637-9.344-7.927-79.292 21.299-172.151 34.185-185.882 13.346 13.918 42.112 107.025 34.159 194.5-.427 4.685 3.029 8.841 7.731 9.267a8.53 8.53 0 0 0 9.268-7.731c7.535-82.884-18.202-185.037-38.989-207.795-7.689-8.414-16.802-8.371-24.482.128-20.412 22.562-46.49 122.889-38.852 199.219.469 4.685 4.676 8.167 9.343 7.638zM85.333 85.333a8.536 8.536 0 0 0 8.533 8.533 8.536 8.536 0 0 0 8.533-8.533c4.71 0 8.533-3.823 8.533-8.533s-3.823-8.533-8.533-8.533a8.536 8.536 0 0 0-8.533-8.533 8.536 8.536 0 0 0-8.533 8.533c-4.71 0-8.533 3.823-8.533 8.533s3.823 8.533 8.533 8.533zm-76.8-51.2h8.533v8.533a8.536 8.536 0 0 0 8.533 8.533 8.536 8.536 0 0 0 8.533-8.533v-8.533h8.533a8.536 8.536 0 0 0 8.533-8.533 8.536 8.536 0 0 0-8.533-8.533h-8.533V8.533C34.133 3.823 30.31 0 25.6 0a8.536 8.536 0 0 0-8.533 8.533v8.533H8.533C3.823 17.067 0 20.89 0 25.6a8.536 8.536 0 0 0 8.533 8.533z"/></svg>