<svg xmlns="http://www.w3.org/2000/svg" viewBox="0 0 512 512"><path d="M312.636 102.839c1.664 1.672 3.849 2.5 6.033 2.5s4.361-.828 6.033-2.5c3.328-3.328 3.328-8.738 0-12.066l-28.535-28.527a8.523 8.523 0 0 0-12.066 0c-3.337 3.337-3.337 8.738 0 12.066l28.535 28.527zm-90.752 42.24a8.53 8.53 0 0 0 8.533 8.533h42.65c4.719 0 8.533-3.823 8.533-8.533s-3.814-8.533-8.533-8.533h-42.65a8.53 8.53 0 0 0-8.533 8.533zm-.017-110.933c0 4.71 3.814 8.533 8.533 8.533s8.533-3.823 8.533-8.533c4.719 0 8.533-3.823 8.533-8.533s-3.814-8.533-8.533-8.533c0-4.71-3.814-8.533-8.533-8.533s-8.533 3.823-8.533 8.533c-4.719 0-8.533 3.823-8.533 8.533s3.814 8.533 8.533 8.533zM486.4 68.279c0 4.71 3.814 8.533 8.533 8.533s8.533-3.823 8.533-8.533a8.53 8.53 0 0 0 8.533-8.533 8.53 8.53 0 0 0-8.533-8.533c0-4.71-3.814-8.533-8.533-8.533s-8.533 3.823-8.533 8.533a8.53 8.53 0 0 0-8.533 8.533 8.53 8.53 0 0 0 8.533 8.533zm-71.194 37.061a8.475 8.475 0 0 0 6.033-2.5l28.527-28.527c3.337-3.336 3.337-8.738 0-12.066a8.523 8.523 0 0 0-12.066 0l-28.527 28.527c-3.328 3.337-3.328 8.738 0 12.066a8.492 8.492 0 0 0 6.033 2.5zm-48.273-19.994a8.53 8.53 0 0 0 8.533-8.533V8.546c0-4.71-3.814-8.533-8.533-8.533S358.4 3.836 358.4 8.546v68.267a8.53 8.53 0 0 0 8.533 8.533zm-24.132 35.593l-86.537 86.537a8.54 8.54 0 0 0 0 12.066c3.337 3.337 8.738 3.337 12.066 0l86.536-86.536c6.648-6.648 17.485-6.648 24.132 0a16.97 16.97 0 0 1 5 12.075 16.95 16.95 0 0 1-5 12.066l-332.8 332.8c-6.647 6.647-17.485 6.647-24.132 0a16.97 16.97 0 0 1-5.001-12.075c0-4.557 1.775-8.841 5.001-12.066L237.9 249.972l7.799 7.808a8.54 8.54 0 0 0 12.066 0 8.534 8.534 0 0 0 0-12.075l-13.833-13.833c-3.337-3.328-8.738-3.328-12.066 0L10.001 453.739C3.55 460.181 0 468.757 0 477.871s3.55 17.69 10.001 24.141c6.648 6.648 15.394 9.976 24.132 9.976 8.738 0 17.485-3.328 24.132-9.976l332.8-332.8c6.451-6.443 10.001-15.019 10.001-24.132s-3.55-17.69-10.001-24.141c-13.294-13.304-34.969-13.295-48.264 0zm160.666 169.207h-8.533v-8.533c0-4.71-3.814-8.533-8.533-8.533s-8.533 3.823-8.533 8.533v8.533h-8.533a8.53 8.53 0 0 0-8.533 8.533 8.53 8.53 0 0 0 8.533 8.533h8.533v8.533c0 4.71 3.814 8.533 8.533 8.533s8.533-3.823 8.533-8.533v-8.533h8.533a8.53 8.53 0 0 0 8.533-8.533 8.53 8.53 0 0 0-8.533-8.533zm-82.236-102.835c-3.328-3.328-8.73-3.328-12.066 0-3.328 3.337-3.328 8.738 0 12.066l28.535 28.535a8.51 8.51 0 0 0 6.033 2.5 8.509 8.509 0 0 0 6.033-2.5 8.523 8.523 0 0 0 0-12.066l-28.535-28.535zm82.236-50.765H435.2c-4.719 0-8.533 3.823-8.533 8.533s3.814 8.533 8.533 8.533h68.267c4.719 0 8.533-3.823 8.533-8.533s-3.814-8.533-8.533-8.533zm-136.534 93.867a8.53 8.53 0 0 0-8.533 8.533v42.658c0 4.71 3.814 8.533 8.533 8.533s8.533-3.823 8.533-8.533v-42.658a8.53 8.53 0 0 0-8.533-8.533zM128 136.546h8.533v8.533c0 4.71 3.814 8.533 8.533 8.533s8.533-3.823 8.533-8.533v-8.533h8.533a8.53 8.53 0 0 0 8.533-8.533 8.53 8.53 0 0 0-8.533-8.533H153.6v-8.533c0-4.71-3.814-8.533-8.533-8.533s-8.533 3.823-8.533 8.533v8.533H128a8.53 8.53 0 0 0-8.533 8.533 8.53 8.53 0 0 0 8.533 8.533zm204.8 187.733a8.53 8.53 0 0 0-8.533-8.533 8.53 8.53 0 0 0-8.533 8.533c-4.719 0-8.533 3.823-8.533 8.533s3.814 8.533 8.533 8.533a8.53 8.53 0 0 0 8.533 8.533 8.53 8.53 0 0 0 8.533-8.533c4.719 0 8.533-3.823 8.533-8.533s-3.814-8.533-8.533-8.533z"/></svg>