<svg xmlns="http://www.w3.org/2000/svg" viewBox="0 0 512.003 512.003"><path d="M232.902 326.769c-3.328 3.319-3.328 8.695-.009 12.032 3.294 3.328 8.695 3.362 12.049.06 2.483-2.441 7.714-6.059 11.059-6.059 3.345 0 8.576 3.618 11.034 6.033a8.51 8.51 0 0 0 6.033 2.5 8.509 8.509 0 0 0 6.033-2.5 8.523 8.523 0 0 0 0-12.066c-1.126-1.126-11.366-11.034-23.1-11.034s-21.973 9.908-23.099 11.034zm-34.134-42.666c-3.328 3.319-3.328 8.695-.009 12.032 3.294 3.328 8.695 3.362 12.049.06 2.483-2.441 7.714-6.059 11.059-6.059 3.345 0 8.576 3.618 11.034 6.033a8.51 8.51 0 0 0 6.033 2.5 8.509 8.509 0 0 0 6.033-2.5 8.523 8.523 0 0 0 0-12.066c-1.126-1.126-11.366-11.034-23.1-11.034s-21.972 9.907-23.099 11.034zm57.233-53.701c-11.733 0-21.973 9.907-23.1 11.034-3.328 3.319-3.328 8.695-.009 12.032 3.294 3.328 8.695 3.362 12.049.06 2.483-2.44 7.714-6.059 11.059-6.059 3.345 0 8.576 3.618 11.034 6.033a8.51 8.51 0 0 0 6.033 2.5 8.509 8.509 0 0 0 6.033-2.5 8.523 8.523 0 0 0 0-12.066c-1.125-1.126-11.365-11.034-23.099-11.034zm-128.094-15.803c.7-4.659-2.517-9.003-7.177-9.702-4.727-.7-8.994 2.526-9.702 7.177-14.481 96.486-22.229 193.178 18.705 246.835 1.673 2.21 4.215 3.362 6.793 3.362a8.478 8.478 0 0 0 5.163-1.749c3.755-2.859 4.471-8.218 1.613-11.964-37.18-48.743-28.647-145.622-15.395-233.959zm162.228 58.47c-11.733 0-21.973 9.907-23.1 11.034-3.328 3.319-3.328 8.695-.008 12.032 3.294 3.328 8.695 3.362 12.049.06 2.483-2.441 7.714-6.059 11.059-6.059 3.345 0 8.576 3.618 11.034 6.033a8.51 8.51 0 0 0 6.033 2.5 8.509 8.509 0 0 0 6.033-2.5 8.525 8.525 0 0 0 0-12.066c-1.127-1.127-11.367-11.034-23.1-11.034zm25.6 136.533c-23.526 0-42.667 22.963-42.667 51.2 0 4.48.538 8.806 1.434 12.954-4.156 1.911-10.59 4.113-18.5 4.113-8.064 0-14.49-2.321-18.475-4.25.887-4.104 1.408-8.38 1.408-12.817 0-28.237-19.14-51.2-42.667-51.2-23.526 0-42.667 22.963-42.667 51.2 0 28.237 19.14 51.2 42.667 51.2 14.626 0 27.546-8.883 35.234-22.374 5.828 2.637 14.217 5.308 24.499 5.308 10.172 0 18.637-2.62 24.567-5.205 7.697 13.431 20.582 22.272 35.166 22.272 23.526 0 42.667-22.963 42.667-51.2 0-28.237-19.14-51.201-42.666-51.201zm-119.467 85.334c-14.114 0-25.6-15.309-25.6-34.133 0-18.825 11.486-34.133 25.6-34.133s25.6 15.309 25.6 34.133c0 18.824-11.486 34.133-25.6 34.133zm119.467 0c-10.001 0-18.594-7.765-22.801-18.944-.068-.299-.256-.572-.358-.862a43.359 43.359 0 0 1-2.441-14.327c0-18.825 11.486-34.133 25.6-34.133s25.6 15.309 25.6 34.133c0 18.824-11.486 34.133-25.6 34.133zM301.16 338.801c3.294 3.328 8.695 3.362 12.049.06 2.483-2.441 7.714-6.059 11.059-6.059s8.576 3.618 11.034 6.033a8.51 8.51 0 0 0 6.033 2.5 8.509 8.509 0 0 0 6.033-2.5 8.523 8.523 0 0 0 0-12.066c-1.126-1.126-11.366-11.034-23.1-11.034s-21.973 9.907-23.1 11.034c-3.328 3.32-3.328 8.696-.008 12.032zm23.108-232.132c0-7.057-5.743-12.8-12.8-12.8s-12.8 5.743-12.8 12.8 5.743 12.8 12.8 12.8 12.8-5.743 12.8-12.8zm67.413 98.176c-4.685.469-8.107 4.651-7.637 9.344 10.018 100.122 15.676 186.778-16.648 233.207-2.705 3.866-1.741 9.19 2.125 11.878a8.49 8.49 0 0 0 4.864 1.528 8.51 8.51 0 0 0 7.006-3.652c35.661-51.217 29.995-141.107 19.635-244.668-.47-4.684-4.583-8.064-9.345-7.637z"/><path d="M359.11 74.533c6.869-35.209-9.421-68.361-10.138-69.811a8.587 8.587 0 0 0-4.941-4.284 8.537 8.537 0 0 0-6.511.461c-.742.375-16.606 8.525-26.726 30.993-9.515-2.739-27.145-6.289-54.793-6.289s-45.278 3.55-54.793 6.289C191.088 9.423 175.225 1.274 174.482.898a8.614 8.614 0 0 0-6.511-.461 8.587 8.587 0 0 0-4.941 4.284c-.717 1.451-17.007 34.603-10.138 69.811-16.886 20.353-101.691 126.584-101.691 207.07 0 87.381 26.394 107.494 29.397 109.5 3.849 2.552 8.892 1.528 11.571-2.219 2.671-3.755 1.783-9.028-1.877-11.827-.222-.162-22.025-17.724-22.025-95.454 0-81.169 99.345-198.076 100.352-199.245a8.55 8.55 0 0 0 1.792-7.629c-5.043-20.181-.034-40.815 3.985-52.565 4.497 4.523 10.01 11.921 13.781 23.202a8.53 8.53 0 0 0 4.821 5.188 8.588 8.588 0 0 0 7.083-.247c.154-.085 16.367-7.637 55.919-7.637 39.458 0 55.825 7.595 55.919 7.637a8.584 8.584 0 0 0 7.083.247 8.53 8.53 0 0 0 4.821-5.188c3.78-11.307 9.31-18.705 13.798-23.228 4.028 11.708 9.045 32.29 3.968 52.591a8.528 8.528 0 0 0 1.801 7.629c.998 1.169 100.343 118.007 100.343 199.245 0 76.638-21.188 94.78-21.999 95.437a8.531 8.531 0 0 0-2.167 11.699 8.517 8.517 0 0 0 7.108 3.797 8.496 8.496 0 0 0 4.727-1.434c3.004-2.005 29.397-22.118 29.397-109.5.002-80.485-84.802-186.716-101.689-207.068z"/><path d="M164.635 326.769c-3.328 3.319-3.328 8.695-.009 12.032 3.294 3.328 8.687 3.362 12.049.06 2.483-2.441 7.714-6.059 11.059-6.059 3.345 0 8.576 3.618 11.034 6.033 1.664 1.664 3.849 2.5 6.033 2.5s4.369-.836 6.033-2.5a8.523 8.523 0 0 0 0-12.066c-1.126-1.126-11.366-11.034-23.1-11.034s-21.973 9.908-23.099 11.034zm91.366-190.233c13.158 0 25.6-12.442 25.6-25.6 0-9.353-9.566-14.933-25.6-14.933s-25.6 5.581-25.6 14.933c0 13.158 12.442 25.6 25.6 25.6zm7.74-22.665c-1.502 2.944-4.864 5.598-7.74 5.598s-6.238-2.654-7.74-5.598c3.533-.836 11.947-.836 15.48 0z"/><path d="M256.001 187.736c-70.579 0-128 61.252-128 136.533 0 29.722 8.798 57.984 25.446 81.715a8.512 8.512 0 0 0 6.997 3.635c1.69 0 3.396-.503 4.89-1.544 3.857-2.714 4.796-8.03 2.082-11.887-14.618-20.847-22.349-45.722-22.349-71.919 0-65.877 49.766-119.467 110.933-119.467s110.933 53.589 110.933 119.467c0 26.206-7.723 51.072-22.332 71.91-2.714 3.857-1.775 9.173 2.082 11.887a8.536 8.536 0 0 0 11.887-2.091c16.64-23.723 25.429-51.977 25.429-81.707.002-75.28-57.419-136.532-127.998-136.532zm-42.666-81.067c0-7.057-5.743-12.8-12.8-12.8s-12.8 5.743-12.8 12.8 5.743 12.8 12.8 12.8 12.8-5.743 12.8-12.8zm19.567 70.033a8.51 8.51 0 0 0 6.033 2.5 8.509 8.509 0 0 0 6.033-2.5c4.864-4.864 16.051-6.016 19.593-6.033 4.702-.009 8.508-3.831 8.508-8.533a8.53 8.53 0 0 0-8.533-8.533c-2.108 0-20.907.307-31.633 11.034a8.52 8.52 0 0 0-.001 12.065z"/></svg>