<svg xmlns="http://www.w3.org/2000/svg" viewBox="0 0 512 512"><path d="M426.667 68.267c4.719 0 8.533-3.823 8.533-8.533s-3.814-8.533-8.533-8.533c-164.659 0-308.565 105.412-358.101 262.298-1.425 4.497 1.067 9.284 5.564 10.709a8.695 8.695 0 0 0 2.569.401c3.627 0 6.997-2.33 8.132-5.973 47.282-149.753 184.66-250.369 341.836-250.369zm-26.206 86.579c-89.301 8.508-168.764 60.535-212.548 139.179-2.287 4.113-.802 9.31 3.311 11.605a8.47 8.47 0 0 0 4.147 1.075 8.552 8.552 0 0 0 7.467-4.378c41.045-73.737 115.533-122.522 199.236-130.492 4.693-.444 8.132-4.608 7.689-9.301-.445-4.684-4.575-8.089-9.302-7.688z"/><path d="M9.779 392.943a8.536 8.536 0 0 0 9.335-7.646c21.06-209.92 196.267-368.23 407.552-368.23 1.971 0 8.371 0 17.229.23.068.009.145.009.23.009 4.599 0 8.397-3.678 8.525-8.311.128-4.71-3.601-8.627-8.311-8.755C435.26 0 428.689 0 426.667 0 206.583 0 24.064 164.915 2.133 383.599c-.469 4.685 2.953 8.875 7.646 9.344zm7.288-205.21c0 4.71 3.814 8.533 8.533 8.533s8.533-3.823 8.533-8.533c4.719 0 8.533-3.823 8.533-8.533s-3.814-8.533-8.533-8.533c0-4.71-3.814-8.533-8.533-8.533s-8.533 3.823-8.533 8.533c-4.719 0-8.533 3.823-8.533 8.533s3.814 8.533 8.533 8.533zM453.282 61.414a8.556 8.556 0 0 0 8.363 6.844c.555 0 1.126-.06 1.698-.171 4.625-.939 7.603-5.444 6.673-10.061a33.733 33.733 0 0 1-.683-6.827c0-18.825 15.309-34.133 34.133-34.133 4.719 0 8.533-3.823 8.533-8.533S508.186 0 503.467 0c-28.237 0-51.2 22.963-51.2 51.2 0 3.439.341 6.878 1.015 10.214zM59.733 34.133h8.533v8.533c0 4.71 3.814 8.533 8.533 8.533s8.533-3.823 8.533-8.533v-8.533h8.533a8.53 8.53 0 0 0 8.533-8.533 8.53 8.53 0 0 0-8.533-8.533h-8.533V8.533C85.333 3.823 81.519 0 76.8 0s-8.533 3.823-8.533 8.533v8.533h-8.533a8.53 8.53 0 0 0-8.533 8.533 8.53 8.53 0 0 0 8.532 8.534z"/><path d="M439.825 110.933a8.53 8.53 0 0 0-8.533-8.533c-133.052 0-255.582 81.024-304.896 201.626-1.784 4.361.307 9.344 4.659 11.128a8.658 8.658 0 0 0 3.234.64 8.539 8.539 0 0 0 7.902-5.308c38.886-95.078 143.352-191.019 289.101-191.019a8.53 8.53 0 0 0 8.533-8.534zm20.975 179.2a8.53 8.53 0 0 0-8.533-8.533 8.53 8.53 0 0 0-8.533 8.533c-4.719 0-8.533 3.823-8.533 8.533s3.814 8.533 8.533 8.533a8.53 8.53 0 0 0 8.533 8.533 8.53 8.53 0 0 0 8.533-8.533c4.719 0 8.533-3.823 8.533-8.533s-3.814-8.533-8.533-8.533zM268.561 418.389c-8.192-6.084-21.931-12.143-40.636-6.468-4.506 1.374-7.057 6.135-5.692 10.65 1.365 4.497 6.11 7.049 10.641 5.683 9.583-2.918 18.167-1.604 25.523 3.849 10.078 7.475 14.669 20.113 14.669 28.698 0 18.825-15.309 34.133-34.133 34.133h-179.2c-23.526 0-42.667-19.14-42.667-42.667 0-19.942 13.577-37.018 32.998-41.523a8.512 8.512 0 0 0 5.982-5.103 8.559 8.559 0 0 0-.734-7.834C52.625 393.634 51.2 388.855 51.2 384c0-14.114 11.486-25.6 25.6-25.6 9.165 0 17.681 5.069 22.238 13.227a8.552 8.552 0 0 0 7.142 4.378c2.918.137 5.803-1.357 7.441-3.849 12.698-19.294 34.022-30.822 57.045-30.822 30.123 0 57.071 20.173 65.527 49.067 1.323 4.514 6.05 7.125 10.59 5.786 4.523-1.323 7.117-6.067 5.794-10.59-10.581-36.105-44.262-61.329-81.911-61.329-24.866 0-48.145 10.743-64.239 29.21-7.851-7.672-18.441-12.143-29.628-12.143-23.526 0-42.667 19.14-42.667 42.667 0 4.548.734 9.045 2.167 13.338C14.498 406.545 0 427.878 0 452.267 0 485.205 26.803 512 59.733 512h179.2c28.237 0 51.2-22.963 51.2-51.2 0-15.795-8.669-32.836-21.572-42.411zm132.011-212.881c-73.438 5.99-137.651 48.691-171.776 114.244a8.54 8.54 0 0 0 3.618 11.511 8.614 8.614 0 0 0 3.934.964 8.527 8.527 0 0 0 7.578-4.591c31.403-60.314 90.47-99.61 158.029-105.114 4.702-.384 8.201-4.506 7.825-9.199-.385-4.7-4.558-8.19-9.208-7.815zm101.367 15.429c-6.34 1.152-15.215.93-15.539.93-23.526 0-42.667-19.14-42.667-42.667 0-19.84 14.029-37.35 33.348-41.643a8.537 8.537 0 0 0 5.231-13.098c-3.081-4.565-4.446-8.73-4.446-13.525a25.566 25.566 0 0 1 19.336-24.832 8.518 8.518 0 0 0 6.195-10.351c-1.152-4.574-5.828-7.33-10.351-6.195-18.987 4.762-32.247 21.786-32.247 41.378 0 4.599.759 8.994 2.313 13.261-21.632 9.225-36.446 30.891-36.446 55.006 0 32.939 26.803 59.733 59.503 59.733.111 0 .973.017 2.321.017 3.576 0 10.607-.154 16.503-1.22 4.642-.845 7.714-5.291 6.861-9.924-.827-4.635-5.281-7.69-9.915-6.87zM332.8 349.867a8.53 8.53 0 0 0 8.533-8.533 8.53 8.53 0 0 0 8.533-8.533 8.53 8.53 0 0 0-8.533-8.533 8.53 8.53 0 0 0-8.533-8.533 8.53 8.53 0 0 0-8.533 8.533 8.53 8.53 0 0 0-8.533 8.533 8.53 8.53 0 0 0 8.533 8.533 8.53 8.53 0 0 0 8.533 8.533zm34.133 128H358.4v-8.533c0-4.71-3.814-8.533-8.533-8.533s-8.533 3.823-8.533 8.533v8.533H332.8c-4.719 0-8.533 3.823-8.533 8.533s3.814 8.533 8.533 8.533h8.533v8.533c0 4.71 3.814 8.533 8.533 8.533s8.533-3.823 8.533-8.533v-8.533h8.533c4.719 0 8.533-3.823 8.533-8.533s-3.813-8.533-8.532-8.533z"/></svg>