<svg xmlns="http://www.w3.org/2000/svg" viewBox="0 0 512 512"><path d="M349.867 392.533A8.536 8.536 0 0 0 358.4 384v-8.533h8.533c4.71 0 8.533-3.823 8.533-8.533s-3.823-8.533-8.533-8.533H358.4v-8.533c0-4.71-3.823-8.533-8.533-8.533s-8.533 3.823-8.533 8.533v8.533H332.8c-4.71 0-8.533 3.823-8.533 8.533s3.823 8.533 8.533 8.533h8.533V384c0 4.71 3.823 8.533 8.534 8.533zm119.466-332.8c0 4.71 3.823 8.533 8.533 8.533s8.533-3.823 8.533-8.533c4.71 0 8.533-3.823 8.533-8.533s-3.823-8.533-8.533-8.533c0-4.71-3.823-8.533-8.533-8.533s-8.533 3.823-8.533 8.533c-4.71 0-8.533 3.823-8.533 8.533s3.823 8.533 8.533 8.533zM256 102.4c-65.877 0-119.467 53.589-119.467 119.467a8.536 8.536 0 0 0 8.533 8.533 8.536 8.536 0 0 0 8.533-8.533c0-56.465 45.935-102.4 102.4-102.4s102.4 45.935 102.4 102.4c0 4.71 3.823 8.533 8.533 8.533s8.533-3.823 8.533-8.533C375.467 155.989 321.877 102.4 256 102.4zm76.8-76.8c0 4.71 3.823 8.533 8.533 8.533s8.533-3.823 8.533-8.533c4.71 0 8.533-3.823 8.533-8.533s-3.823-8.533-8.533-8.533c0-4.71-3.823-8.533-8.533-8.533S332.8 3.823 332.8 8.533c-4.71 0-8.533 3.823-8.533 8.533S328.09 25.6 332.8 25.6z"/><path d="M76.8 230.4a8.536 8.536 0 0 0 8.533-8.533C85.333 127.761 161.894 51.2 256 51.2s170.667 76.561 170.667 170.667c0 4.71 3.823 8.533 8.533 8.533s8.533-3.823 8.533-8.533c0-103.518-84.215-187.733-187.733-187.733S68.267 118.349 68.267 221.867A8.536 8.536 0 0 0 76.8 230.4zm101.12 69.547l-7.424-37.086a8.518 8.518 0 0 0-8.363-6.861 8.52 8.52 0 0 0-8.363 6.861l-7.424 37.086-37.086 7.424a8.518 8.518 0 0 0-6.861 8.363 8.52 8.52 0 0 0 6.861 8.363l37.086 7.424 7.424 37.086a8.518 8.518 0 0 0 8.363 6.861 8.52 8.52 0 0 0 8.363-6.861l7.424-37.086 37.086-7.424a8.518 8.518 0 0 0 6.861-8.363 8.52 8.52 0 0 0-6.861-8.363l-37.086-7.424zm-8.926 15.957a8.517 8.517 0 0 0-6.69 6.69l-.171.828-.171-.828a8.517 8.517 0 0 0-6.69-6.69l-.828-.171.828-.171a8.517 8.517 0 0 0 6.69-6.69l.171-.828.171.828a8.517 8.517 0 0 0 6.69 6.69l.828.171-.828.171z"/><path d="M503.467 128a8.536 8.536 0 0 0-8.533 8.533v332.8c0 14.114-11.486 25.6-25.6 25.6h-204.8v-19.635c12.442-4.352 44.843-14.498 76.8-14.498 74.325 0 124.8 16.461 125.312 16.631a8.567 8.567 0 0 0 7.68-1.178 8.549 8.549 0 0 0 3.541-6.921V93.867a8.522 8.522 0 0 0-5.171-7.842c-.759-.324-18.91-7.962-54.349-10.914-4.753-.435-8.815 3.098-9.207 7.791a8.532 8.532 0 0 0 7.791 9.216c21.982 1.826 36.668 5.572 43.87 7.808v358.067c-19.337-5.069-62.276-14.259-119.467-14.259-37.18 0-73.702 12.211-85.001 16.35-10.044-4.437-40.405-16.35-77.133-16.35-58.778 0-107.204 9.694-128 14.618V100.463c7.987-1.971 23.287-5.436 43.409-8.533 4.659-.717 7.859-5.069 7.142-9.728-.725-4.659-5.12-7.876-9.728-7.134-31.274 4.804-50.884 10.359-51.703 10.598a8.528 8.528 0 0 0-6.187 8.201v375.467a8.527 8.527 0 0 0 8.534 8.534c.785 0 1.57-.111 2.338-.333.589-.162 59.597-16.734 134.195-16.734 31.198 0 57.856 9.711 68.267 14.071v20.062h-204.8c-14.114 0-25.6-11.486-25.6-25.6v-332.8c0-4.71-3.823-8.533-8.533-8.533S0 131.823 0 136.533v332.8C0 492.86 19.14 512 42.667 512h426.667C492.86 512 512 492.86 512 469.333v-332.8a8.536 8.536 0 0 0-8.533-8.533zM76.8 34.133h8.533v8.533a8.536 8.536 0 0 0 8.533 8.533 8.536 8.536 0 0 0 8.533-8.533v-8.533h8.533a8.536 8.536 0 0 0 8.533-8.533 8.536 8.536 0 0 0-8.533-8.533H102.4V8.533A8.536 8.536 0 0 0 93.867 0a8.536 8.536 0 0 0-8.533 8.533v8.533H76.8a8.536 8.536 0 0 0-8.533 8.533c0 4.711 3.823 8.534 8.533 8.534z"/><path d="M247.467 145.067V435.2c0 4.71 3.823 8.533 8.533 8.533s8.533-3.823 8.533-8.533V145.067c0-4.71-3.823-8.533-8.533-8.533s-8.533 3.822-8.533 8.533z"/><path d="M401.067 230.4a8.536 8.536 0 0 0 8.533-8.533c0-84.693-68.907-153.6-153.6-153.6s-153.6 68.907-153.6 153.6c0 4.71 3.823 8.533 8.533 8.533s8.533-3.823 8.533-8.533c0-75.281 61.252-136.533 136.533-136.533s136.533 61.252 136.533 136.533a8.538 8.538 0 0 0 8.535 8.533z"/></svg>