<svg xmlns="http://www.w3.org/2000/svg" viewBox="0 0 512 512"><path d="M349.679 445.252c-.666-15.437-3.755-52.685-18.313-74.522-2.62-3.917-7.919-4.992-11.836-2.364-3.917 2.611-4.975 7.91-2.364 11.827 11.494 17.254 14.532 48.58 15.343 63.599-4.565.162-8.243 3.866-8.243 8.474a8.536 8.536 0 0 0 8.533 8.533h8.533c4.659 0 8.388 3.661 8.491 8.328.009.222.017.435.043.649v25.156h-34.133v-25.6c0-.256-.026-.606-.051-.956-.393-10.539-7.313-19.448-16.742-22.98.58-9.583 2.389-28.348 8.004-50.799 1.143-4.574-1.638-9.207-6.204-10.342-4.548-1.135-9.207 1.63-10.351 6.204-5.845 23.381-7.799 42.743-8.457 53.274h-8.866c-2.995 0-5.845.614-8.533 1.579V409.6a8.53 8.53 0 0 0-8.533-8.533 8.53 8.53 0 0 0-8.533 8.533v35.712c-2.688-.964-5.538-1.579-8.533-1.579h-8.875c-.648-10.53-2.603-29.892-8.448-53.274-1.143-4.574-5.777-7.339-10.351-6.204-4.565 1.135-7.347 5.768-6.204 10.342 5.606 22.451 7.415 41.216 8.004 50.799-9.429 3.533-16.35 12.442-16.742 22.98-.034.35-.051.7-.051.956v25.6h-34.133v-25.156c.017-.213.034-.427.034-.649.111-4.668 3.84-8.328 8.499-8.328h8.533a8.536 8.536 0 0 0 8.533-8.533c0-4.608-3.669-8.312-8.243-8.474.802-15.019 3.84-46.345 15.343-63.599 2.611-3.917 1.553-9.216-2.364-11.827-3.925-2.628-9.225-1.553-11.836 2.364-14.558 21.837-17.655 59.085-18.313 74.522-9.66 3.413-16.802 12.425-17.203 23.125-.034.35-.051.7-.051.956v34.133a8.536 8.536 0 0 0 8.533 8.533H358.4a8.536 8.536 0 0 0 8.533-8.533v-34.133c0-.256-.026-.606-.051-.956-.401-10.7-7.552-19.711-17.203-23.125zm-102.212 32.615v17.067h-34.133v-25.156c.017-.213.034-.427.034-.649.111-4.668 3.84-8.328 8.499-8.328h17.067c4.659 0 8.388 3.661 8.491 8.328.009.222.017.435.043.649v8.089zm51.2 17.066h-34.133v-25.157c.017-.213.034-.427.034-.649.111-4.668 3.84-8.328 8.499-8.328h17.067c4.659 0 8.388 3.661 8.491 8.328.009.222.017.435.043.649v25.157zm-17.067-153.6a8.536 8.536 0 0 0 8.533-8.533v-8.533c0-4.719-3.823-8.533-8.533-8.533s-8.533 3.814-8.533 8.533v8.533a8.536 8.536 0 0 0 8.533 8.533zM102.4 25.6c0 4.71 3.823 8.533 8.533 8.533s8.533-3.823 8.533-8.533a8.536 8.536 0 0 0 8.533-8.533 8.53 8.53 0 0 0-8.533-8.533c0-4.719-3.823-8.533-8.533-8.533S102.4 3.814 102.4 8.533a8.53 8.53 0 0 0-8.533 8.533c0 4.711 3.823 8.534 8.533 8.534zm-59.733 85.333h-8.533V102.4a8.53 8.53 0 0 0-8.533-8.533 8.53 8.53 0 0 0-8.533 8.533v8.533H8.533A8.53 8.53 0 0 0 0 119.466C0 124.177 3.823 128 8.533 128h8.533v8.533a8.536 8.536 0 0 0 8.533 8.533 8.536 8.536 0 0 0 8.533-8.533V128h8.533a8.536 8.536 0 0 0 8.533-8.533 8.528 8.528 0 0 0-8.531-8.534zM102.4 204.8a8.53 8.53 0 0 0-8.533-8.533 8.53 8.53 0 0 0-8.533 8.533 8.53 8.53 0 0 0-8.533 8.533 8.536 8.536 0 0 0 8.533 8.533 8.536 8.536 0 0 0 8.533 8.533 8.536 8.536 0 0 0 8.533-8.533 8.536 8.536 0 0 0 8.533-8.533 8.53 8.53 0 0 0-8.533-8.533zm119.467 21.333c0-7.057-5.743-12.8-12.8-12.8s-12.8 5.743-12.8 12.8 5.743 12.8 12.8 12.8 12.8-5.743 12.8-12.8z"/><path d="M401.067 136.533c-35.26 0-59.11 8.695-60.109 9.062-.589.222-1.033.623-1.545.956-13.559-8.439-31.701-17.758-51.721-22.972-2.918-28.433-9.335-70.195-23.518-117.495A8.531 8.531 0 0 0 256 0a8.525 8.525 0 0 0-8.175 6.084c-14.191 47.3-20.608 89.062-23.518 117.495-20.07 5.231-38.255 14.592-51.84 23.057-.546-.358-1.024-.794-1.656-1.033-.99-.367-24.602-9.071-59.878-9.071a8.53 8.53 0 0 0-8.533 8.533c0 29.065 10.906 47.369 34.21 57.139 1.212 49.289 17.186 81.792 17.886 83.209a8.54 8.54 0 0 0 7.646 4.719c1.28 0 2.586-.29 3.806-.905 4.215-2.108 5.922-7.228 3.814-11.452-.162-.316-16.162-32.888-16.162-81.51a8.536 8.536 0 0 0-5.837-8.098c-17.749-5.914-26.052-15.863-27.895-34.364 15.095.691 27.128 3.004 34.995 4.932-4.045 3.081-6.477 5.163-6.844 5.478-3.567 3.081-3.951 8.465-.87 12.032a8.504 8.504 0 0 0 6.451 2.944 8.52 8.52 0 0 0 5.581-2.074c.307-.265 28.689-24.457 63.548-35.345-.836 12.194-.862 19.465-.862 20.361 0 2.355.956 4.489 2.5 6.033.111.111.282.162.401.273.691.614 1.442 1.186 2.304 1.553.512.213 1.101.222 1.647.333.563.111 1.084.341 1.673.341h51.209c.597 0 1.118-.23 1.681-.341.546-.111 1.135-.119 1.647-.333.862-.367 1.604-.939 2.304-1.553.12-.111.282-.162.401-.273a8.504 8.504 0 0 0 2.5-6.033c0-.896-.034-8.166-.862-20.361 34.884 10.88 63.232 35.072 63.539 35.345a8.535 8.535 0 0 0 5.581 2.074 8.51 8.51 0 0 0 6.46-2.944c3.081-3.558 2.697-8.943-.862-12.032-.367-.316-2.816-2.415-6.886-5.513 7.936-1.92 20.002-4.207 35.029-4.898-1.835 18.509-10.146 28.45-27.904 34.364a8.528 8.528 0 0 0-5.828 8.098c0 48.35-16.017 81.203-16.171 81.527-2.091 4.216-.375 9.336 3.84 11.435a8.41 8.41 0 0 0 3.797.896 8.514 8.514 0 0 0 7.629-4.71c.708-1.417 16.674-33.92 17.894-83.209 23.305-9.771 34.21-28.075 34.21-57.139a8.53 8.53 0 0 0-8.533-8.531zM256 41.037c3.874 15.812 6.835 30.686 9.148 44.297h-18.295c2.312-13.611 5.273-28.485 9.147-44.297zM244.181 102.4h23.637a593.509 593.509 0 0 1 2.193 17.067h-28.023a597.074 597.074 0 0 1 2.193-17.067zm-4.983 51.2c.188-4.258.529-10.018 1.109-17.067h31.386c.58 7.049.922 12.809 1.109 17.067h-33.604zm230.135 68.267H460.8v-8.533a8.53 8.53 0 0 0-8.533-8.533 8.53 8.53 0 0 0-8.533 8.533v8.533H435.2a8.53 8.53 0 0 0-8.533 8.533 8.536 8.536 0 0 0 8.533 8.533h8.533v8.533a8.536 8.536 0 0 0 8.533 8.533 8.536 8.536 0 0 0 8.533-8.533v-8.533h8.533a8.536 8.536 0 0 0 8.533-8.533 8.528 8.528 0 0 0-8.532-8.533zm34.134-187.734c0-4.719-3.823-8.533-8.533-8.533s-8.533 3.814-8.533 8.533a8.53 8.53 0 0 0-8.533 8.533 8.536 8.536 0 0 0 8.533 8.533c0 4.71 3.823 8.533 8.533 8.533s8.533-3.823 8.533-8.533A8.536 8.536 0 0 0 512 42.666a8.531 8.531 0 0 0-8.533-8.533z"/><path d="M171.102 304.495c-4.233 12.698-.7 28.245 9.685 42.658C193.63 364.971 220.126 384 256 384c35.866 0 62.37-19.029 75.204-36.847 10.394-14.413 13.926-29.961 9.694-42.658a8.534 8.534 0 0 0-3.362-4.395c-1.135-.759-28.365-18.5-81.536-18.5s-80.401 17.741-81.536 18.5a8.488 8.488 0 0 0-3.362 4.395zm15.513 8.294c7.569-3.934 30.839-14.123 69.385-14.123 38.571 0 61.858 10.206 69.376 14.123 1.007 6.98-1.869 15.855-8.013 24.388-10.368 14.379-31.932 29.756-61.363 29.756s-50.995-15.377-61.363-29.756c-6.153-8.533-9.02-17.399-8.022-24.388zm129.118-86.656c0-7.057-5.743-12.8-12.8-12.8s-12.8 5.743-12.8 12.8 5.743 12.8 12.8 12.8 12.8-5.743 12.8-12.8z"/><path d="M230.4 341.333a8.536 8.536 0 0 0 8.533-8.533v-8.533a8.53 8.53 0 0 0-8.533-8.533 8.53 8.53 0 0 0-8.533 8.533v8.533a8.536 8.536 0 0 0 8.533 8.533z"/></svg>