<svg xmlns="http://www.w3.org/2000/svg" viewBox="0 0 512 512"><path d="M108.587 426.334c2.492.717 61.867 17.399 147.413 17.399s144.922-16.683 147.413-17.399a8.525 8.525 0 0 0 5.666-11.145l-71.202-193.92 20.318-91.418c1.024-4.599-1.877-9.156-6.477-10.18-4.608-1.041-9.156 1.877-10.18 6.477l-34.133 153.6c-1.024 4.599 1.877 9.156 6.477 10.18a8.722 8.722 0 0 0 1.86.205c3.908 0 7.441-2.705 8.32-6.682l6.963-31.334 58.761 160.051c-19.516 4.565-69.393 14.498-133.786 14.498-65.647 0-116.378-10.368-134.997-14.788l10.991-51.302c18.202 4.855 62.165 14.891 115.473 14.891 65.067 0 93.756-12.476 94.942-13.005a8.523 8.523 0 0 0 4.318-11.23c-1.894-4.292-6.921-6.229-11.238-4.378-.264.119-27.179 11.546-88.021 11.546-51.712 0-95.164-10.095-111.881-14.566l34.415-160.631 143.41-160.282c6.281-6.69 11.708-8.576 22.34.606.273.23.555.444.845.64L438.75 92.254c4.147 2.995 5.555 6.468 4.804 8.346-.666 1.63-3.541 2.381-7.142 1.886L316.945 85.419c-4.693-.691-8.994 2.577-9.66 7.236-.666 4.668 2.577 8.994 7.236 9.66l119.484 17.067c11.708 1.673 21.675-3.209 25.378-12.407 3.9-9.685-.384-21.163-10.914-28.74L346.496 10.249c-20.48-17.399-36.045-9.105-45.653 1.126L155.776 173.508a8.616 8.616 0 0 0-1.988 3.908l-51.2 238.933a8.525 8.525 0 0 0 5.999 9.985zM486.4 51.2c0 4.71 3.823 8.533 8.533 8.533s8.533-3.823 8.533-8.533a8.536 8.536 0 0 0 8.533-8.533 8.536 8.536 0 0 0-8.533-8.533c0-4.71-3.823-8.533-8.533-8.533s-8.533 3.823-8.533 8.533a8.536 8.536 0 0 0-8.533 8.533A8.536 8.536 0 0 0 486.4 51.2z"/><path d="M460.8 213.333a8.536 8.536 0 0 0-8.533-8.533 8.536 8.536 0 0 0-8.533 8.533v8.533H435.2c-4.71 0-8.533 3.823-8.533 8.533s3.823 8.533 8.533 8.533h8.533v8.533a8.536 8.536 0 0 0 8.533 8.533 8.536 8.536 0 0 0 8.533-8.533v-8.533h8.533c4.71 0 8.533-3.823 8.533-8.533s-3.823-8.533-8.533-8.533H460.8v-8.533zM102.4 25.6c0 4.71 3.823 8.533 8.533 8.533s8.533-3.823 8.533-8.533c4.71 0 8.533-3.823 8.533-8.533s-3.823-8.533-8.533-8.533c0-4.71-3.823-8.533-8.533-8.533S102.4 3.823 102.4 8.533c-4.71 0-8.533 3.823-8.533 8.533S97.69 25.6 102.4 25.6zm317.901 333.696c-4.565-1.143-9.208 1.596-10.368 6.17-1.169 4.565 1.596 9.207 6.161 10.368 50.108 12.749 78.839 31.275 78.839 50.833 0 37.641-107.187 68.267-238.933 68.267S17.067 464.307 17.067 426.667c0-19.149 26.342-36.77 74.18-49.613a8.537 8.537 0 0 0 6.025-10.462c-1.22-4.548-5.888-7.236-10.453-6.025C29.21 376.038 0 398.276 0 426.667 0 485.299 132.702 512 256 512s256-26.701 256-85.333c0-28.809-31.71-52.105-91.699-67.371zM8.533 128h8.533v8.533a8.536 8.536 0 0 0 8.533 8.533 8.536 8.536 0 0 0 8.533-8.533V128h8.533c4.71 0 8.533-3.823 8.533-8.533s-3.823-8.533-8.533-8.533h-8.533V102.4a8.536 8.536 0 0 0-8.533-8.533 8.536 8.536 0 0 0-8.533 8.533v8.533H8.533c-4.71 0-8.533 3.823-8.533 8.533S3.823 128 8.533 128zm76.8 93.867a8.536 8.536 0 0 0 8.533 8.533 8.536 8.536 0 0 0 8.533-8.533 8.536 8.536 0 0 0 8.533-8.533 8.536 8.536 0 0 0-8.533-8.533 8.536 8.536 0 0 0-8.533-8.533 8.536 8.536 0 0 0-8.533 8.533 8.536 8.536 0 0 0-8.533 8.533 8.536 8.536 0 0 0 8.533 8.533z"/></svg>