<svg xmlns="http://www.w3.org/2000/svg" viewBox="0 0 512.009 512.009"><path d="M307.203 418.142c.009 4.71 3.831 8.525 8.533 8.525h.009c4.71-.008 8.525-3.823 8.525-8.533 0-1.007-.085-25.071-7.868-49.519-11.008-34.594-31.889-52.881-60.399-52.881-28.501 0-49.391 18.287-60.399 52.881-7.774 24.448-7.868 48.512-7.868 49.519a8.53 8.53 0 0 0 8.533 8.533 8.525 8.525 0 0 0 8.533-8.533c0-.853.589-85.333 51.2-85.333 50.484-.001 51.201 84.488 51.201 85.341zM141.255 169.771c1.468.734 36.83 17.963 114.748 17.963 29.056 0 55.467-2.372 78.507-7.066 4.617-.939 7.603-5.444 6.665-10.069-.939-4.617-5.436-7.578-10.061-6.656-21.931 4.463-47.198 6.724-75.11 6.724-55.919 0-88.678-9.318-101.214-13.807 6.025-28.681 33.715-139.793 101.214-139.793 6.204 0 12.169.111 17.911.316 2.014.06 3.857.213 5.828.307 3.618.171 7.305.324 10.743.58 2.082.154 3.994.384 6.007.563 3.123.273 6.298.529 9.242.87 2.031.23 3.866.546 5.803.802 2.748.375 5.564.717 8.166 1.143 1.963.324 3.738.708 5.606 1.058 2.389.444 4.847.862 7.108 1.357 1.826.393 3.499.853 5.239 1.28 2.108.512 4.292 1.007 6.281 1.562 1.656.461 3.149.981 4.727 1.468 1.886.589 3.84 1.143 5.606 1.766 1.502.521 2.833 1.092 4.25 1.638 1.664.649 3.388 1.28 4.949 1.954 1.331.572 2.517 1.195 3.772 1.801 1.459.691 2.978 1.374 4.326 2.099 1.178.631 2.202 1.297 3.302 1.937 1.254.751 2.577 1.476 3.729 2.244 1.016.666 1.886 1.365 2.833 2.048 1.067.785 2.193 1.57 3.183 2.372.845.7 1.579 1.434 2.364 2.15.887.819 1.835 1.63 2.637 2.466.708.742 1.306 1.493 1.937 2.244.725.845 1.485 1.681 2.116 2.543.563.759 1.016 1.545 1.519 2.313.546.862 1.143 1.715 1.604 2.577.427.794.751 1.596 1.118 2.398.393.862.811 1.724 1.126 2.586.29.811.486 1.63.717 2.432.188.708.41 1.417.555 2.125-7.714 1.391-15.198 1.911-22.076 1.954-10.957-.444-22.886-1.809-32.367-3.422-4.369-7.945-9.276-15.659-14.925-22.724a8.54 8.54 0 0 0-12.006-1.331c-3.669 2.935-4.275 8.311-1.331 11.989 32.179 40.235 40.781 106.01 40.866 106.667a8.538 8.538 0 0 0 8.456 7.467c.35 0 .708-.017 1.067-.06 4.676-.589 7.996-4.855 7.407-9.532-.256-2.048-4.898-37.35-20.284-73.412a168.708 168.708 0 0 0 21.393 1.451c14.029.623 28.706-.162 37.205-4.83.111-.06.196-.162.307-.23.247-.154.469-.333.7-.512.469-.35.887-.734 1.271-1.178.196-.222.375-.452.546-.691a8.34 8.34 0 0 0 .845-1.553c.111-.247.239-.486.316-.742.265-.819.435-1.681.435-2.577C418.133 58.786 406.442 0 256 0c-91.5 0-118.252 154.172-119.344 160.734a8.53 8.53 0 0 0 4.599 9.037zM204.803 256a8.53 8.53 0 0 0 8.533 8.533 8.525 8.525 0 0 0 8.533-8.533h8.533a8.525 8.525 0 0 0 8.533-8.533 8.53 8.53 0 0 0-8.533-8.533H196.27a8.536 8.536 0 0 0-8.533 8.533A8.53 8.53 0 0 0 196.27 256h8.533z"/><path d="M256.003 221.867c88.542 0 256-12.476 256-59.733 0-29.961-68.591-44.919-126.131-52.19-4.599-.563-8.943 2.722-9.532 7.398-.597 4.676 2.722 8.943 7.398 9.54 84.019 10.615 111.198 28.331 111.198 35.251 0 14.481-84.335 42.667-238.933 42.667S17.07 176.614 17.07 162.133c0-6.955 27.383-24.755 112.026-35.362a8.524 8.524 0 0 0 7.407-9.523c-.589-4.676-4.873-8.03-9.532-7.407C69.055 117.094.003 132.062.003 162.133c0 47.258 167.458 59.734 256 59.734zm-8.533 128a8.536 8.536 0 0 0-8.533 8.533 8.53 8.53 0 0 0 8.533 8.533h17.067a8.525 8.525 0 0 0 8.533-8.533 8.53 8.53 0 0 0-8.533-8.533H247.47zm68.266-110.934h-34.133a8.536 8.536 0 0 0-8.533 8.533 8.53 8.53 0 0 0 8.533 8.533h8.533a8.53 8.53 0 0 0 8.533 8.533 8.525 8.525 0 0 0 8.533-8.533h8.533a8.525 8.525 0 0 0 8.533-8.533 8.528 8.528 0 0 0-8.532-8.533z"/><path d="M391.308 272.009c10.564-3.149 18.295-12.962 18.295-24.542V230.4a8.53 8.53 0 0 0-8.533-8.533 8.536 8.536 0 0 0-8.533 8.533v17.067a8.536 8.536 0 0 1-8.533 8.533 8.538 8.538 0 0 0-8.414 7.134c-.085.486-8.055 47.249-23.151 71.603-6.332 2.97-15.659 6.596-19.635 6.596a8.536 8.536 0 0 0-8.533 8.533 8.53 8.53 0 0 0 8.533 8.533c5.205 0 12.032-2.108 17.877-4.352 1.826 66.193-41.651 132.326-94.677 140.791-53.018-8.465-96.495-74.598-94.669-140.791 5.837 2.244 12.672 4.352 17.869 4.352a8.525 8.525 0 0 0 8.533-8.533 8.53 8.53 0 0 0-8.533-8.533c-3.959 0-13.286-3.627-19.635-6.596-15.095-24.354-23.066-71.117-23.142-71.603a8.547 8.547 0 0 0-8.422-7.134c-4.702 0-8.533-3.823-8.533-8.533V230.4a8.53 8.53 0 0 0-8.533-8.533 8.536 8.536 0 0 0-8.533 8.533v17.067c0 11.58 7.731 21.393 18.304 24.542 2.773 14.131 10.667 49.417 24.107 71.415-7.296 79.309 44.493 159.138 109.986 168.491.401.06.802.085 1.203.085.41 0 .811-.026 1.212-.085 65.485-9.352 117.274-89.182 109.986-168.491 13.437-21.999 21.33-57.284 24.104-71.415zm120.26 228.761l-8.533-25.6c-9.993-29.943-33.391-48.503-119.031-48.503a8.536 8.536 0 0 0-8.533 8.533 8.53 8.53 0 0 0 8.533 8.533c83.558 0 96.623 18.202 102.844 36.838l8.533 25.6a8.532 8.532 0 0 0 8.09 5.837 8.58 8.58 0 0 0 2.705-.444c4.462-1.493 6.877-6.322 5.392-10.794zm-383.565-74.095c-85.641 0-109.039 18.56-119.023 48.495l-8.533 25.6c-1.493 4.471.922 9.301 5.393 10.795a8.531 8.531 0 0 0 2.697.444 8.54 8.54 0 0 0 8.098-5.837l8.533-25.6c6.221-18.637 19.277-36.83 102.835-36.83a8.525 8.525 0 0 0 8.533-8.533 8.53 8.53 0 0 0-8.533-8.534z"/></svg>