<svg xmlns="http://www.w3.org/2000/svg" viewBox="0 0 344.57 344.57"><path d="M335.206 144.552a7.5 7.5 0 0 0-7.5 7.5c0 19.183-15.606 34.789-34.79 34.789-3.645 0-7.276-.582-10.793-1.73a7.499 7.499 0 0 0-9.824 6.925c-.52 18.968-15.776 33.826-34.733 33.826-10.105 0-19.706-4.415-26.341-12.114a7.501 7.501 0 0 0-11.362 0c-6.635 7.699-16.236 12.114-26.341 12.114-10.725 0-20.696-4.868-27.358-13.356a7.499 7.499 0 0 0-11.8 0c-6.662 8.488-16.634 13.356-27.358 13.356-6.999 0-13.741-2.069-19.499-5.985a7.498 7.498 0 0 0-10.419 1.983 7.499 7.499 0 0 0 1.984 10.419c8.255 5.615 17.915 8.583 27.934 8.583 12.451 0 24.187-4.572 33.258-12.768 9.071 8.195 20.807 12.768 33.258 12.768a49.689 49.689 0 0 0 32.022-11.703 49.689 49.689 0 0 0 32.022 11.703c13.057 0 25.391-5.021 34.731-14.14 7.141-6.973 11.938-15.753 13.948-25.334 2.211.302 4.439.453 6.672.453 27.454 0 49.79-22.335 49.79-49.789a7.501 7.501 0 0 0-7.501-7.5zM67.102 199.37a7.5 7.5 0 0 0-4.655-14.26 34.735 34.735 0 0 1-10.793 1.73c-19.183 0-34.79-15.606-34.79-34.789 0-9.908 4.283-19.388 11.752-26.009a7.503 7.503 0 0 0 0-11.223c-7.468-6.623-11.752-16.103-11.752-26.01 0-19.184 15.606-34.79 34.79-34.79 3.643 0 7.274.582 10.794 1.73a7.5 7.5 0 0 0 9.823-6.925C72.792 29.858 88.048 15 107.005 15c10.725 0 20.697 4.868 27.358 13.355a7.496 7.496 0 0 0 11.8 0C152.824 19.868 162.795 15 173.521 15c4.142 0 7.5-3.357 7.5-7.5s-3.358-7.5-7.5-7.5c-12.452 0-24.187 4.572-33.258 12.767C131.191 4.572 119.457 0 107.005 0c-13.057 0-25.391 5.021-34.73 14.14-7.141 6.972-11.938 15.753-13.948 25.333a49.288 49.288 0 0 0-6.672-.453c-27.454 0-49.79 22.336-49.79 49.79 0 11.587 4.08 22.758 11.387 31.621-7.307 8.862-11.387 20.033-11.387 31.621 0 27.454 22.335 49.789 49.79 49.789 5.227 0 10.425-.831 15.447-2.471zM200.647 27.899a7.501 7.501 0 0 0 10.578-.785C217.859 19.415 227.46 15 237.565 15c18.958 0 34.214 14.857 34.733 33.825a7.498 7.498 0 0 0 9.823 6.925 34.769 34.769 0 0 1 10.794-1.73c19.183 0 34.79 15.606 34.79 34.79 0 9.907-4.284 19.387-11.752 26.01a7.499 7.499 0 0 0 4.979 13.111 7.468 7.468 0 0 0 4.973-1.889c10.677-9.467 16.801-23.037 16.801-37.232 0-27.454-22.335-49.79-49.79-49.79-2.233 0-4.46.151-6.672.453-2.01-9.58-6.807-18.361-13.948-25.333C262.957 5.021 250.622 0 237.565 0c-14.475 0-28.217 6.313-37.704 17.321a7.502 7.502 0 0 0 .786 10.578zm-71.328 224c-20.541 0-36.63 10.801-36.63 24.59s16.09 24.59 36.63 24.59c20.54 0 36.63-10.801 36.63-24.59s-16.09-24.59-36.63-24.59zm0 34.18c-13.003 0-21.63-5.772-21.63-9.59s8.627-9.59 21.63-9.59c13.003 0 21.63 5.772 21.63 9.59s-8.627 9.59-21.63 9.59zm-33.791 26.739a7.5 7.5 0 0 0-7.5 7.5c0 4.367-7.423 9.252-17.358 9.252s-17.358-4.885-17.358-9.252c0-4.368 7.423-9.253 17.358-9.253 4.142 0 7.5-3.357 7.5-7.5s-3.358-7.5-7.5-7.5c-18.145 0-32.358 10.653-32.358 24.253S52.526 344.57 70.67 344.57s32.358-10.652 32.358-24.252a7.5 7.5 0 0 0-7.5-7.5z"/></svg>