<svg xmlns="http://www.w3.org/2000/svg" viewBox="0 0 512 512"><path d="M435.2 477.867a8.536 8.536 0 0 0 8.533-8.533v-204.8a8.536 8.536 0 0 0-8.533-8.533H76.8a8.536 8.536 0 0 0-8.533 8.533v204.8c0 4.71 3.823 8.533 8.533 8.533s8.533-3.823 8.533-8.533V273.067h102.4v196.267c0 4.71 3.823 8.533 8.533 8.533s8.533-3.823 8.533-8.533V273.067h221.867v196.267c.001 4.71 3.824 8.533 8.534 8.533z"/><path d="M401.067 324.267a8.509 8.509 0 0 0 6.033-2.5 8.523 8.523 0 0 0 0-12.066l-17.067-17.067a8.523 8.523 0 0 0-12.066 0 8.525 8.525 0 0 0 0 12.066l17.067 17.067a8.513 8.513 0 0 0 6.033 2.5z"/><path d="M503.467 494.933h-8.533v-268.8c0-4.71-3.823-8.533-8.533-8.533s-8.533 3.823-8.533 8.533v268.8h-85.333v-51.2h8.533c4.71 0 8.533-3.823 8.533-8.533s-3.823-8.533-8.533-8.533h-34.133c-4.71 0-8.533 3.823-8.533 8.533s3.823 8.533 8.533 8.533h8.533v51.2h-51.2V409.6h42.667c4.71 0 8.533-3.823 8.533-8.533s-3.823-8.533-8.533-8.533h-102.4c-4.71 0-8.533 3.823-8.533 8.533s3.823 8.533 8.533 8.533H307.2v85.333H256v-51.2h8.533c4.71 0 8.533-3.823 8.533-8.533s-3.823-8.533-8.533-8.533H230.4c-4.71 0-8.533 3.823-8.533 8.533s3.823 8.533 8.533 8.533h8.533v51.2h-204.8v-268.8A8.536 8.536 0 0 0 25.6 217.6a8.536 8.536 0 0 0-8.533 8.533v268.8H8.533c-4.71 0-8.533 3.823-8.533 8.533S3.823 512 8.533 512h494.933c4.71 0 8.533-3.823 8.533-8.533s-3.822-8.534-8.532-8.534zM469.333 0H42.667C19.14 0 0 19.14 0 42.667v152.738a8.526 8.526 0 0 0 10.232 8.362c13.628-2.765 25.114-10.897 32.427-21.914 9.173 13.824 24.883 22.946 42.675 22.946 17.792 0 33.485-9.114 42.667-22.921 9.182 13.807 24.883 22.921 42.667 22.921s33.485-9.114 42.667-22.921c9.18 13.808 24.882 22.922 42.665 22.922 17.784 0 33.485-9.114 42.667-22.921 9.182 13.807 24.883 22.921 42.667 22.921 17.792 0 33.485-9.114 42.667-22.921 9.182 13.807 24.883 22.921 42.667 22.921 17.792 0 33.502-9.122 42.675-22.946 7.313 11.017 18.799 19.149 32.427 21.914 2.509.538 5.112-.128 7.1-1.749a8.543 8.543 0 0 0 3.132-6.613V42.667C512 19.14 492.86 0 469.333 0zm25.6 183.159c-10.3-5.973-17.067-17.143-17.067-29.559V42.667c0-4.71-3.823-8.533-8.533-8.533s-8.533 3.823-8.533 8.533V153.6c0 18.825-15.309 34.133-34.133 34.133s-34.133-15.309-34.133-34.133V42.667c0-4.71-3.823-8.533-8.533-8.533s-8.533 3.823-8.533 8.533V153.6c0 18.825-15.309 34.133-34.133 34.133-18.825 0-34.133-15.309-34.133-34.133V42.667c0-4.71-3.823-8.533-8.533-8.533s-8.533 3.823-8.533 8.533V153.6c0 18.825-15.309 34.133-34.133 34.133-18.825 0-34.133-15.309-34.133-34.133V42.667a8.536 8.536 0 0 0-8.533-8.533 8.536 8.536 0 0 0-8.533 8.533V153.6c0 18.825-15.309 34.133-34.133 34.133s-34.133-15.309-34.133-34.133V42.667c0-4.71-3.823-8.533-8.533-8.533s-8.533 3.823-8.533 8.533V153.6c0 18.825-15.309 34.133-34.133 34.133-18.825 0-34.133-15.309-34.133-34.133V42.667a8.536 8.536 0 0 0-8.533-8.533 8.536 8.536 0 0 0-8.533 8.533V153.6c0 12.416-6.767 23.586-17.067 29.559V42.667c0-14.114 11.486-25.6 25.6-25.6H469.34c14.114 0 25.6 11.486 25.6 25.6v140.492z"/><path d="M153.6 366.933V384a8.536 8.536 0 0 0 8.533 8.533 8.536 8.536 0 0 0 8.533-8.533v-17.067a8.536 8.536 0 0 0-8.533-8.533 8.536 8.536 0 0 0-8.533 8.533zM343.834 309.7a8.523 8.523 0 0 0 0 12.066l34.133 34.133a8.51 8.51 0 0 0 6.033 2.5 8.509 8.509 0 0 0 6.033-2.5 8.523 8.523 0 0 0 0-12.066L355.9 309.7a8.525 8.525 0 0 0-12.066 0z"/></svg>