<svg xmlns="http://www.w3.org/2000/svg" viewBox="0 0 512 512"><path d="M469.333 290.133a8.53 8.53 0 0 0 8.533-8.533v-34.133a8.53 8.53 0 0 0-8.533-8.533h-42.667V230.4c0-4.71-3.814-8.533-8.533-8.533s-8.533 3.823-8.533 8.533v8.533H170.667V230.4a8.536 8.536 0 0 0-8.533-8.533 8.536 8.536 0 0 0-8.533 8.533v8.533h-42.667a8.536 8.536 0 0 0-8.533 8.533V281.6a8.536 8.536 0 0 0 8.533 8.533h358.399zm-349.866-17.066V256H460.8v17.067H119.467zM307.2 187.733c-13.798 0-22.716 10.487-23.689 11.691-2.953 3.627-2.406 8.926 1.203 11.913 3.618 2.995 8.969 2.475 11.998-1.092.034-.06 4.659-5.444 10.487-5.444s10.445 5.385 10.445 5.385a8.525 8.525 0 0 0 6.63 3.149 8.487 8.487 0 0 0 5.376-1.911c3.661-2.97 4.207-8.346 1.237-11.998-.971-1.205-9.889-11.693-23.687-11.693zM469.333 358.4a8.53 8.53 0 0 0 8.533-8.533v-34.133a8.53 8.53 0 0 0-8.533-8.533h-42.667v-8.533c0-4.71-3.814-8.533-8.533-8.533s-8.533 3.823-8.533 8.533v8.533H170.667v-8.533a8.536 8.536 0 0 0-8.533-8.533 8.536 8.536 0 0 0-8.533 8.533v8.533h-42.667a8.536 8.536 0 0 0-8.533 8.533v34.133a8.536 8.536 0 0 0 8.533 8.533h358.399zm-349.866-17.067v-17.067H460.8v17.067H119.467zm232.311-173.824a8.508 8.508 0 0 0 6.63 3.157 8.487 8.487 0 0 0 5.376-1.911c3.661-2.97 4.207-8.346 1.237-11.998-.973-1.203-9.89-11.691-23.689-11.691s-22.716 10.487-23.689 11.691c-2.953 3.627-2.406 8.926 1.203 11.913 3.618 3.004 8.969 2.475 11.989-1.092.043-.06 4.668-5.444 10.496-5.444 5.831-.001 10.447 5.375 10.447 5.375zM8.576 111.787a8.528 8.528 0 0 0 8.491 7.68h51.2a8.53 8.53 0 0 0 8.491-7.68l8.533-85.333a8.532 8.532 0 0 0-2.167-6.579 8.523 8.523 0 0 0-6.323-2.807H51.2V8.533A8.536 8.536 0 0 0 42.667 0a8.536 8.536 0 0 0-8.533 8.533v8.533h-25.6a8.527 8.527 0 0 0-6.323 2.807 8.532 8.532 0 0 0-2.167 6.579l8.532 85.335zm58.795-77.654L60.544 102.4H24.789l-6.827-68.267h49.409z"/><path d="M238.933 196.267c0 9.54 3.9 18.415 10.982 24.977a8.512 8.512 0 0 0 5.803 2.278 8.525 8.525 0 0 0 6.255-2.731c3.2-3.456 3.004-8.858-.452-12.066-3.567-3.294-5.521-7.723-5.521-12.459 0-7.066 4.497-13.474 11.204-15.94a8.518 8.518 0 0 0 5.41-6.332 8.548 8.548 0 0 0-2.56-7.936c-3.567-3.294-5.521-7.723-5.521-12.459 0-8.875 6.989-16.299 15.906-16.913a8.526 8.526 0 0 0 5.709-14.276c-2.935-3.2-4.548-7.279-4.548-11.477 0-8.875 6.989-16.299 15.906-16.913a8.526 8.526 0 0 0 5.709-14.276c-2.927-3.2-4.548-7.279-4.548-11.477 0-7.629 5.197-14.362 12.629-16.375a8.525 8.525 0 0 0 5.41-4.429 8.483 8.483 0 0 0 .282-6.98c-.828-2.091-1.254-4.224-1.254-6.349 0-9.412 7.654-17.067 17.067-17.067 9.412 0 17.067 7.654 17.067 17.067 0 2.125-.427 4.258-1.254 6.349a8.48 8.48 0 0 0 .282 6.98 8.525 8.525 0 0 0 5.41 4.429c7.433 2.014 12.629 8.747 12.629 16.375 0 4.198-1.621 8.277-4.548 11.477a8.528 8.528 0 0 0 5.709 14.276c8.917.614 15.906 8.038 15.906 16.913 0 4.198-1.621 8.277-4.548 11.477a8.528 8.528 0 0 0 5.709 14.276c8.917.614 15.906 8.038 15.906 16.913 0 4.736-1.954 9.165-5.521 12.459a8.548 8.548 0 0 0-2.56 7.936 8.512 8.512 0 0 0 5.419 6.332c6.699 2.466 11.196 8.875 11.196 15.94 0 4.71 3.814 8.533 8.533 8.533s8.533-3.823 8.533-8.533c0-10.394-4.821-20.062-12.663-26.428 2.697-4.924 4.13-10.462 4.13-16.239 0-13.346-7.851-25.071-19.302-30.618a33.6 33.6 0 0 0 2.236-12.049c0-13.346-7.851-25.071-19.302-30.618a33.6 33.6 0 0 0 2.236-12.049c0-12.442-6.844-23.68-17.374-29.628.205-1.493.307-2.995.307-4.506C366.933 15.309 351.625 0 332.8 0c-18.825 0-34.133 15.309-34.133 34.133 0 1.51.102 3.012.307 4.506-10.53 5.948-17.374 17.186-17.374 29.628a33.6 33.6 0 0 0 2.236 12.049c-11.452 5.547-19.302 17.271-19.302 30.618a33.6 33.6 0 0 0 2.236 12.049c-11.452 5.547-19.302 17.271-19.302 30.618 0 5.777 1.434 11.315 4.13 16.239-7.843 6.365-12.665 16.033-12.665 26.427z"/><path d="M321.016 118.793c4.335 1.792 9.327-.273 11.145-4.608.162-.41.401-.862.64-1.306.239.427.461.87.623 1.271a8.545 8.545 0 0 0 7.91 5.325 8.342 8.342 0 0 0 3.208-.64c4.369-1.766 6.477-6.75 4.702-11.11-.947-2.313-6.152-13.858-16.444-13.858-10.291 0-15.497 11.546-16.444 13.858-1.766 4.343.325 9.276 4.66 11.068zm182.451 376.14H366.933c-4.719 0-8.533 3.823-8.533 8.533s3.814 8.533 8.533 8.533h136.533c4.719 0 8.533-3.823 8.533-8.533s-3.813-8.533-8.532-8.533zm0-119.466h-76.8v-8.533c0-4.71-3.814-8.533-8.533-8.533s-8.533 3.823-8.533 8.533v8.533H170.667v-8.533a8.536 8.536 0 0 0-8.533-8.533 8.536 8.536 0 0 0-8.533 8.533v8.533H76.8A8.536 8.536 0 0 0 68.267 384v34.133a8.536 8.536 0 0 0 8.533 8.533h25.6v42.667c0 4.71 3.823 8.533 8.533 8.533s8.533-3.823 8.533-8.533v-42.667H460.8v42.667c0 4.71 3.814 8.533 8.533 8.533s8.533-3.823 8.533-8.533v-42.667h25.6a8.53 8.53 0 0 0 8.533-8.533V384a8.53 8.53 0 0 0-8.532-8.533zm-8.534 34.133h-409.6v-17.067h409.6V409.6z"/><path d="M128 494.933H51.2V145.067a8.536 8.536 0 0 0-8.533-8.533 8.536 8.536 0 0 0-8.533 8.533v349.867h-25.6c-4.71 0-8.533 3.823-8.533 8.533S3.823 512 8.533 512H128c4.71 0 8.533-3.823 8.533-8.533s-3.823-8.534-8.533-8.534zm204.8 0h-17.067c-4.719 0-8.533 3.823-8.533 8.533s3.814 8.533 8.533 8.533H332.8c4.719 0 8.533-3.823 8.533-8.533s-3.814-8.533-8.533-8.533zm-68.267 0H179.2c-4.71 0-8.533 3.823-8.533 8.533S174.49 512 179.2 512h85.333c4.719 0 8.533-3.823 8.533-8.533s-3.814-8.534-8.533-8.534z"/></svg>