<svg xmlns="http://www.w3.org/2000/svg" viewBox="0 0 512 512"><path d="M128 435.207H8.533A8.53 8.53 0 0 0 0 443.74a8.53 8.53 0 0 0 8.533 8.533H128a8.53 8.53 0 0 0 8.533-8.533 8.53 8.53 0 0 0-8.533-8.533zm-25.6-17.084c56.465 0 102.4-45.944 102.4-102.4 0-28.271-11.273-54.596-31.744-74.129-3.396-3.243-8.815-3.115-12.066.282-3.251 3.413-3.123 8.815.282 12.066 17.058 16.282 26.462 38.212 26.462 61.781 0 47.053-38.281 85.333-85.333 85.333s-85.333-38.281-85.333-85.333c0-47.061 38.281-85.333 85.333-85.333a8.53 8.53 0 0 0 8.533-8.533 8.525 8.525 0 0 0-8.533-8.533c-56.465 0-102.4 45.935-102.4 102.4C0 372.179 45.935 418.123 102.4 418.123z"/><path d="M145.067 179.189h4.326l-49.297 119.697c-8.311 1.135-14.763 8.209-14.763 16.836 0 9.412 7.654 17.067 17.067 17.067 9.412 0 17.067-7.654 17.067-17.067 0-3.908-1.365-7.458-3.584-10.342l48.154-116.924 54.008 78.413c2.662 3.883 7.962 4.872 11.861 2.193a8.522 8.522 0 0 0 2.185-11.87l-53.726-78.003h17.903c14.114 0 25.6-11.486 25.6-25.6 0-14.123-11.486-25.6-25.6-25.6h-51.2a8.525 8.525 0 0 0-8.533 8.533v34.133a8.528 8.528 0 0 0 8.532 8.534zm8.533-34.133h42.667a8.536 8.536 0 0 1 8.533 8.533c0 4.702-3.823 8.533-8.533 8.533H153.6v-17.066zm247.467 76.8a8.53 8.53 0 0 0 8.533 8.533c47.053 0 85.333 38.272 85.333 85.333 0 47.053-38.281 85.333-85.333 85.333s-85.333-38.281-85.333-85.333c0-25.574 11.324-49.579 31.087-65.877a8.527 8.527 0 0 0 1.143-12.006 8.538 8.538 0 0 0-12.015-1.16c-23.689 19.55-37.282 48.35-37.282 79.044 0 56.456 45.935 102.4 102.4 102.4S512 372.179 512 315.723c0-56.465-45.935-102.4-102.4-102.4a8.525 8.525 0 0 0-8.533 8.533zM264.533 435.207H179.2a8.53 8.53 0 0 0-8.533 8.533 8.53 8.53 0 0 0 8.533 8.533h85.333a8.53 8.53 0 0 0 8.533-8.533 8.53 8.53 0 0 0-8.533-8.533z"/><path d="M264.533 274.268v-26.812a8.53 8.53 0 0 0 8.533-8.533 8.525 8.525 0 0 0-8.533-8.533h-17.067a8.525 8.525 0 0 0-8.533 8.533 8.53 8.53 0 0 0 8.533 8.533v26.812c-14.686 3.814-25.6 17.058-25.6 32.922 0 15.855 10.914 29.099 25.6 32.922v26.812a8.525 8.525 0 0 0-8.533 8.533 8.53 8.53 0 0 0 8.533 8.533h17.067a8.53 8.53 0 0 0 8.533-8.533 8.525 8.525 0 0 0-8.533-8.533v-26.812c14.686-3.823 25.6-17.067 25.6-32.922 0-15.864-10.914-29.108-25.6-32.922zM256 324.256c-9.404 0-17.067-7.654-17.067-17.067 0-9.412 7.663-17.067 17.067-17.067 9.412 0 17.067 7.654 17.067 17.067s-7.655 17.067-17.067 17.067zm140.45-19.285c-2.406 2.944-3.917 6.656-3.917 10.752 0 9.412 7.663 17.067 17.067 17.067s17.067-7.654 17.067-17.067c0-8.448-6.187-15.428-14.242-16.785l-38.511-102.682h60.919c10.214 0 16.154-8.166 17.271-15.394l8.525-42.667a8.518 8.518 0 0 0-1.766-7.083 8.512 8.512 0 0 0-6.596-3.123h-76.8a8.525 8.525 0 0 0-8.533 8.533 8.53 8.53 0 0 0 8.533 8.533h66.389l-6.519 32.649c-.128.589-.495 1.417-.503 1.485h-67.319l-26.718-71.262c-.017-.034-.043-.051-.051-.085-.017-.034-.009-.068-.017-.094l-17.067-42.667c-1.749-4.378-6.758-6.477-11.093-4.753-4.378 1.749-6.511 6.716-4.762 11.093l15.548 38.835-32.094 56.166c-2.347 4.088-.922 9.301 3.174 11.64a8.523 8.523 0 0 0 4.224 1.126 8.511 8.511 0 0 0 7.415-4.301l25.122-43.955 20.531 54.758-65.033 73.156c-3.14 3.524-2.816 8.917.708 12.049a8.456 8.456 0 0 0 5.666 2.159 8.512 8.512 0 0 0 6.374-2.867l59.059-66.432 37.949 101.216zm107.017 130.236H366.933a8.53 8.53 0 0 0-8.533 8.533 8.53 8.53 0 0 0 8.533 8.533h136.533a8.53 8.53 0 0 0 8.533-8.533 8.53 8.53 0 0 0-8.532-8.533zm-170.667 0h-17.067a8.53 8.53 0 0 0-8.533 8.533 8.53 8.53 0 0 0 8.533 8.533H332.8a8.53 8.53 0 0 0 8.533-8.533 8.53 8.53 0 0 0-8.533-8.533z"/></svg>