<svg xmlns="http://www.w3.org/2000/svg" viewBox="0 0 512 512"><path d="M110.933 324.267c-14.114 0-25.6 11.486-25.6 25.6s11.486 25.6 25.6 25.6 25.6-11.486 25.6-25.6-11.486-25.6-25.6-25.6zm0 34.133c-4.702 0-8.533-3.831-8.533-8.533s3.831-8.533 8.533-8.533 8.533 3.831 8.533 8.533c.001 4.702-3.831 8.533-8.533 8.533z"/><path d="M452.267 68.267H25.6c-14.114 0-25.6 11.486-25.6 25.6V332.8c0 14.114 11.486 25.6 25.6 25.6 4.71 0 8.533-3.823 8.533-8.533s-3.823-8.533-8.533-8.533c-4.702 0-8.533-3.831-8.533-8.533v-25.6H25.6c4.71 0 8.533-3.823 8.533-8.533s-3.823-8.533-8.533-8.533h-8.533V93.867c0-4.702 3.831-8.533 8.533-8.533h366.933V102.4H42.667a8.536 8.536 0 0 0-8.533 8.533 8.536 8.536 0 0 0 8.533 8.533H51.2v102.4h-8.533c-4.71 0-8.533 3.823-8.533 8.533s3.823 8.533 8.533 8.533h349.867v34.133c0 4.71 3.823 8.533 8.533 8.533s8.533-3.823 8.533-8.533v-34.133h85.333v51.2H486.4c-4.71 0-8.533 3.823-8.533 8.533s3.823 8.533 8.533 8.533h8.533v25.6c0 4.702-3.831 8.533-8.533 8.533h-26.283c-4.156-28.902-29.013-51.2-59.051-51.2-32.939 0-59.733 26.795-59.733 59.733 0 32.939 26.795 59.733 59.733 59.733 30.037 0 54.895-22.298 59.051-51.2H486.4c14.114 0 25.6-11.486 25.6-25.6V128c0-33.493-26.24-59.733-59.733-59.733zm-315.734 153.6H68.267v-102.4h68.267v102.4zm85.334 0H153.6v-102.4h68.267v102.4zm85.333 0h-68.267v-102.4H307.2v102.4zm85.333 0h-68.267v-102.4h68.267v102.4zm8.534 170.666c-23.526 0-42.667-19.14-42.667-42.667 0-23.526 19.14-42.667 42.667-42.667 23.526 0 42.667 19.14 42.667 42.667-.001 23.527-19.141 42.667-42.667 42.667zm93.866-170.666h-28.86l10.897-21.786c2.108-4.215.393-9.335-3.823-11.443-4.224-2.125-9.344-.401-11.452 3.814l-14.703 29.414H409.6V85.333h42.667c24.329 0 42.667 18.338 42.667 42.667v93.867z"/><path d="M324.267 349.867a8.536 8.536 0 0 0-8.533-8.533h-145.75c-4.156-28.902-29.013-51.2-59.051-51.2-32.939 0-59.733 26.795-59.733 59.733 0 32.939 26.795 59.733 59.733 59.733 30.037 0 54.895-22.298 59.051-51.2h145.749c4.711 0 8.534-3.823 8.534-8.533zm-213.334 42.666c-23.526 0-42.667-19.14-42.667-42.667 0-23.526 19.14-42.667 42.667-42.667 23.526 0 42.667 19.14 42.667 42.667s-19.14 42.667-42.667 42.667zm290.134-68.266c-14.114 0-25.6 11.486-25.6 25.6s11.486 25.6 25.6 25.6 25.6-11.486 25.6-25.6-11.486-25.6-25.6-25.6zm0 34.133c-4.702 0-8.533-3.831-8.533-8.533s3.831-8.533 8.533-8.533 8.533 3.831 8.533 8.533-3.831 8.533-8.533 8.533zM128 426.667H8.533C3.823 426.667 0 430.49 0 435.2s3.823 8.533 8.533 8.533H128c4.71 0 8.533-3.823 8.533-8.533s-3.823-8.533-8.533-8.533zm204.8 0h-17.067c-4.71 0-8.533 3.823-8.533 8.533s3.823 8.533 8.533 8.533H332.8c4.71 0 8.533-3.823 8.533-8.533s-3.823-8.533-8.533-8.533zm170.667 0H366.933c-4.71 0-8.533 3.823-8.533 8.533s3.823 8.533 8.533 8.533h136.533c4.71 0 8.533-3.823 8.533-8.533s-3.822-8.533-8.532-8.533zm-238.934 0H179.2c-4.71 0-8.533 3.823-8.533 8.533s3.823 8.533 8.533 8.533h85.333c4.71 0 8.533-3.823 8.533-8.533s-3.822-8.533-8.533-8.533z"/><path d="M332.8 307.2c4.71 0 8.533-3.823 8.533-8.533s-3.823-8.533-8.533-8.533H179.2c-4.71 0-8.533 3.823-8.533 8.533s3.823 8.533 8.533 8.533h153.6z"/></svg>