<svg xmlns="http://www.w3.org/2000/svg" viewBox="0 0 512.062 512.062"><path d="M73.438 187.073c4.326 1.843 9.344-.154 11.204-4.48l25.387-59.281c7.125-14.242 18.261-20.881 35.038-20.881h119.467c20.727 0 39.876 11.042 52.838 30.729l50.961 67.738c2.236 4.07 12.757 21 32.657 21h25.6c36.617 0 51.14 20.267 56.798 34.133h-14.131c-4.719 0-8.533 3.823-8.533 8.533s3.814 8.533 8.533 8.533h18.347l7.006 43.23c.589 2.261.401 4.036-.58 5.291-1.306 1.707-4.122 2.679-7.706 2.679h-26.283c-4.156-28.902-29.022-51.2-59.051-51.2-32.93 0-59.733 26.795-59.733 59.733 0 32.939 26.803 59.733 59.733 59.733 30.029 0 54.895-22.298 59.051-51.2h26.283c9.054 0 16.589-3.311 21.222-9.318 4.25-5.504 5.513-12.629 3.738-19.243l-8.055-49.911c-5.623-28.066-28.698-58.061-76.638-58.061h-25.6c-11.409 0-17.741-12.22-17.783-12.288a7.79 7.79 0 0 0-.836-1.374l-51.046-67.823c-15.642-23.782-40.61-37.982-66.79-37.982H145.067c-23.313 0-40.243 10.197-50.509 30.771l-25.6 59.733c-1.86 4.337.153 9.355 4.48 11.206zM400.99 375.498c-23.526 0-42.667-19.14-42.667-42.667 0-23.526 19.14-42.667 42.667-42.667 23.526 0 42.667 19.14 42.667 42.667s-19.141 42.667-42.667 42.667zm102.477 34.133H366.933c-4.719 0-8.533 3.823-8.533 8.533s3.814 8.533 8.533 8.533h136.533c4.719 0 8.533-3.823 8.533-8.533s-3.813-8.533-8.532-8.533z"/><path d="M25.6 341.364h4.403c4.71 0 8.533-3.823 8.533-8.533s-3.823-8.533-8.533-8.533H25.6c-4.702 0-8.533-3.831-8.533-8.533v-42.667H25.6c4.71 0 8.533-3.823 8.533-8.533s-3.823-8.533-8.533-8.533h-8.533v-25.6c0-4.702 3.831-8.533 8.533-8.533h163.669l15.693 78.473c.811 4.053 4.378 6.861 8.363 6.861.555 0 1.118-.051 1.681-.162 4.625-.93 7.62-5.427 6.69-10.044L206.677 221.9H349.79c4.719 0 8.533-3.823 8.533-8.533s-3.814-8.533-8.533-8.533h-28.86l10.897-21.786a8.522 8.522 0 0 0-3.823-11.443c-4.224-2.116-9.327-.401-11.443 3.814l-14.711 29.414H204.8v-76.8c0-4.71-3.823-8.533-8.533-8.533s-8.533 3.823-8.533 8.533v76.8H25.6c-14.114 0-25.6 11.486-25.6 25.6v85.333c0 14.113 11.486 25.598 25.6 25.598z"/><path d="M324.19 332.831a8.53 8.53 0 0 0-8.533-8.533H169.984c-4.156-28.902-29.022-51.2-59.051-51.2-32.939 0-59.733 26.795-59.733 59.733 0 32.939 26.795 59.733 59.733 59.733 30.029 0 54.895-22.298 59.051-51.2h145.673a8.53 8.53 0 0 0 8.533-8.533zm-213.257 42.667c-23.526 0-42.667-19.14-42.667-42.667 0-23.526 19.14-42.667 42.667-42.667 23.526 0 42.667 19.14 42.667 42.667s-19.14 42.667-42.667 42.667zm290.057-68.267c-14.114 0-25.6 11.486-25.6 25.6s11.486 25.6 25.6 25.6c14.123 0 25.6-11.486 25.6-25.6s-11.477-25.6-25.6-25.6zm0 34.133c-4.702 0-8.533-3.831-8.533-8.533s3.831-8.533 8.533-8.533c4.71 0 8.533 3.831 8.533 8.533s-3.823 8.533-8.533 8.533zm-162.057-102.4c-4.71 0-8.533 3.823-8.533 8.533s3.823 8.533 8.533 8.533h8.533c4.71 0 8.533-3.823 8.533-8.533s-3.823-8.533-8.533-8.533h-8.533zm25.6 170.667H179.2c-4.71 0-8.533 3.823-8.533 8.533s3.823 8.533 8.533 8.533h85.333c4.719 0 8.533-3.823 8.533-8.533s-3.814-8.533-8.533-8.533z"/><path d="M110.933 307.231c-14.114 0-25.6 11.486-25.6 25.6s11.486 25.6 25.6 25.6 25.6-11.486 25.6-25.6-11.486-25.6-25.6-25.6zm0 34.133c-4.702 0-8.533-3.831-8.533-8.533s3.831-8.533 8.533-8.533 8.533 3.831 8.533 8.533c.001 4.702-3.831 8.533-8.533 8.533zM128 409.631H8.533c-4.71 0-8.533 3.823-8.533 8.533s3.823 8.533 8.533 8.533H128c4.71 0 8.533-3.823 8.533-8.533s-3.823-8.533-8.533-8.533zm204.8 0h-17.067c-4.719 0-8.533 3.823-8.533 8.533s3.814 8.533 8.533 8.533H332.8c4.719 0 8.533-3.823 8.533-8.533s-3.814-8.533-8.533-8.533z"/></svg>