<svg xmlns="http://www.w3.org/2000/svg" viewBox="0 0 512.002 512.002"><path d="M264.534 136.535h-8.533v-25.6c0-4.71-3.814-8.533-8.533-8.533s-8.533 3.823-8.533 8.533v34.133a8.53 8.53 0 0 0 8.533 8.533h17.067a8.53 8.53 0 0 0 8.533-8.533 8.531 8.531 0 0 0-8.534-8.533zM93.868 358.402H59.734a8.53 8.53 0 0 0-8.533 8.533v51.2a8.53 8.53 0 0 0 8.533 8.533h34.133a8.53 8.53 0 0 0 8.533-8.533v-51.2a8.53 8.53 0 0 0-8.532-8.533zm-8.534 51.2H68.268v-34.133h17.067v34.133zm17.067-145.067a8.53 8.53 0 0 0-8.533-8.533H59.734a8.53 8.53 0 0 0-8.533 8.533v51.2a8.53 8.53 0 0 0 8.533 8.533h34.133a8.53 8.53 0 0 0 8.533-8.533v-51.2zm-17.067 42.667H68.268v-34.133h17.067v34.133z"/><path d="M119.468 213.335a8.53 8.53 0 0 0-8.533-8.533H17.068v-8.533c0-4.71-3.814-8.533-8.533-8.533s-8.533 3.823-8.533 8.533v290.133c0 14.114 11.486 25.6 25.6 25.6h68.267c14.114 0 25.6-11.486 25.6-25.6s-11.486-25.6-25.6-25.6c-1.476 0-2.944.128-4.386.384-5.879-10.607-17.101-17.451-29.747-17.451s-23.868 6.844-29.747 17.451a25.094 25.094 0 0 0-4.386-.384c-3.012 0-5.854.614-8.533 1.57V221.869h93.867a8.531 8.531 0 0 0 8.531-8.534zM25.601 477.869c1.63 0 3.191.469 4.625 1.391a8.51 8.51 0 0 0 7.834.734 8.563 8.563 0 0 0 5.112-5.982c1.792-7.774 8.602-13.21 16.563-13.21s14.763 5.436 16.563 13.21a8.559 8.559 0 0 0 5.112 5.982 8.506 8.506 0 0 0 7.834-.734c5.564-3.584 13.158.802 13.158 7.142 0 4.702-3.823 8.533-8.533 8.533H25.601c-4.71 0-8.533-3.831-8.533-8.533s3.823-8.533 8.533-8.533zm341.333 0H145.068a8.53 8.53 0 0 0-8.533 8.533v17.067c0 4.71 3.814 8.533 8.533 8.533s8.533-3.823 8.533-8.533v-8.533h204.8v8.533c0 4.71 3.814 8.533 8.533 8.533s8.533-3.823 8.533-8.533v-17.067a8.53 8.53 0 0 0-8.533-8.533zm-221.866-17.067a8.53 8.53 0 0 0 8.533-8.533v-332.8c0-4.71-3.814-8.533-8.533-8.533s-8.533 3.823-8.533 8.533v332.8a8.53 8.53 0 0 0 8.533 8.533zm221.866-358.4a8.53 8.53 0 0 0-8.533 8.533v341.333c0 4.71 3.814 8.533 8.533 8.533s8.533-3.823 8.533-8.533V110.935a8.53 8.53 0 0 0-8.533-8.533zm136.534 85.333a8.53 8.53 0 0 0-8.533 8.533v8.533h-93.867a8.53 8.53 0 0 0-8.533 8.533 8.53 8.53 0 0 0 8.533 8.533h93.867V462.37c-2.688-.956-5.53-1.57-8.533-1.57-1.476 0-2.944.128-4.386.384-5.879-10.607-17.101-17.451-29.747-17.451s-23.868 6.844-29.747 17.451a25.094 25.094 0 0 0-4.386-.384c-14.114 0-25.6 11.486-25.6 25.6s11.486 25.6 25.6 25.6h68.267c14.114 0 25.6-11.486 25.6-25.6V196.269a8.534 8.534 0 0 0-8.535-8.534zm-17.067 307.2h-68.267c-4.71 0-8.533-3.831-8.533-8.533s3.823-8.533 8.533-8.533c1.63 0 3.191.469 4.625 1.391a8.511 8.511 0 0 0 7.834.734 8.56 8.56 0 0 0 5.111-5.982c1.792-7.774 8.602-13.21 16.563-13.21 7.962 0 14.763 5.436 16.563 13.21a8.56 8.56 0 0 0 5.111 5.982 8.506 8.506 0 0 0 7.834-.734c5.572-3.584 13.158.802 13.158 7.142.001 4.702-3.822 8.533-8.532 8.533zM388.396 78.022l-128-76.8a8.51 8.51 0 0 0-8.789 0l-128 76.8a8.528 8.528 0 0 0-2.918 11.708 8.526 8.526 0 0 0 11.708 2.918l123.605-74.163 123.605 74.163a8.48 8.48 0 0 0 4.386 1.22 8.519 8.519 0 0 0 7.322-4.139 8.529 8.529 0 0 0-2.919-11.707z"/><path d="M409.601 418.135a8.53 8.53 0 0 0 8.533 8.533h34.133a8.53 8.53 0 0 0 8.533-8.533v-51.2a8.53 8.53 0 0 0-8.533-8.533h-34.133a8.53 8.53 0 0 0-8.533 8.533v51.2zm17.067-42.666h17.067v34.133h-17.067v-34.133zm-8.534-51.2h34.133a8.53 8.53 0 0 0 8.533-8.533v-51.2a8.53 8.53 0 0 0-8.533-8.533h-34.133a8.53 8.53 0 0 0-8.533 8.533v51.2a8.53 8.53 0 0 0 8.533 8.533zm8.534-51.2h17.067v34.133h-17.067v-34.133zM249.942 412.077c-1.545 1.621-2.475 3.755-2.475 6.059 0 2.219.93 4.437 2.475 6.059 1.613 1.536 3.746 2.475 6.059 2.475 2.219 0 4.429-.939 6.059-2.475 1.536-1.621 2.475-3.84 2.475-6.059 0-2.304-.939-4.437-2.475-6.059-3.158-3.158-9.054-3.158-12.118 0zm-62.208-96.342a8.53 8.53 0 0 0 8.533 8.533H230.4a8.53 8.53 0 0 0 8.533-8.533v-51.2a8.53 8.53 0 0 0-8.533-8.533h-34.133a8.53 8.53 0 0 0-8.533 8.533v51.2zm17.067-42.666h17.067v34.133h-17.067v-34.133zm76.8-17.067a8.53 8.53 0 0 0-8.533 8.533v51.2a8.53 8.53 0 0 0 8.533 8.533h34.133a8.53 8.53 0 0 0 8.533-8.533v-51.2a8.53 8.53 0 0 0-8.533-8.533h-34.133zm25.6 51.2h-17.067v-34.133h17.067v34.133zm-51.2-238.933c-37.641 0-68.267 30.626-68.267 68.267 0 37.641 30.626 68.267 68.267 68.267 37.641 0 68.267-30.626 68.267-68.267 0-37.641-30.626-68.267-68.267-68.267zm0 119.466c-28.237 0-51.2-22.963-51.2-51.2s22.963-51.2 51.2-51.2 51.2 22.963 51.2 51.2-22.963 51.2-51.2 51.2z"/><path d="M170.668 366.935a8.53 8.53 0 0 0 8.533 8.533h25.6v76.8a8.53 8.53 0 0 0 8.533 8.533 8.53 8.53 0 0 0 8.533-8.533v-76.8h68.267v76.8c0 4.71 3.814 8.533 8.533 8.533s8.533-3.823 8.533-8.533v-76.8h25.6c4.719 0 8.533-3.823 8.533-8.533s-3.814-8.533-8.533-8.533H179.2a8.53 8.53 0 0 0-8.532 8.533z"/></svg>