<svg xmlns="http://www.w3.org/2000/svg" viewBox="0 0 512 512"><path d="M93.867 358.4H59.733a8.53 8.53 0 0 0-8.533 8.533v51.2a8.53 8.53 0 0 0 8.533 8.533h34.133a8.53 8.53 0 0 0 8.533-8.533v-51.2a8.53 8.53 0 0 0-8.532-8.533zm-8.534 51.2H68.267v-34.133h17.067V409.6zm102.4-93.867V281.6c0-14.114-11.486-25.6-25.6-25.6s-25.6 11.486-25.6 25.6v34.133a8.53 8.53 0 0 0 8.533 8.533H179.2a8.53 8.53 0 0 0 8.533-8.533zm-17.066-8.533H153.6v-25.6c0-4.702 3.823-8.533 8.533-8.533 4.71 0 8.533 3.831 8.533 8.533v25.6zM332.8 358.4H179.2c-4.719 0-8.533 3.823-8.533 8.533s3.814 8.533 8.533 8.533h8.533v76.8c0 4.71 3.814 8.533 8.533 8.533s8.533-3.823 8.533-8.533v-76.8h42.667V409.6c-4.719 0-8.533 3.823-8.533 8.533s3.814 8.533 8.533 8.533v25.6c0 4.71 3.814 8.533 8.533 8.533s8.533-3.823 8.533-8.533v-25.6c4.719 0 8.533-3.823 8.533-8.533s-3.814-8.533-8.533-8.533v-34.133H307.2v76.8c0 4.71 3.814 8.533 8.533 8.533s8.533-3.823 8.533-8.533v-76.8h8.533c4.719 0 8.533-3.823 8.533-8.533s-3.813-8.534-8.532-8.534zM162.133 187.733a8.53 8.53 0 0 0 8.533-8.533c0-36.446 24.098-64.683 59.981-73.719C218.18 120.346 204.8 144.35 204.8 179.2a8.53 8.53 0 0 0 8.533 8.533 8.53 8.53 0 0 0 8.533-8.533c0-43.358 23.936-66.825 34.099-74.846 10.069 8.004 34.167 31.65 34.167 74.846 0 4.71 3.814 8.533 8.533 8.533s8.533-3.823 8.533-8.533c0-34.85-13.38-58.854-25.847-73.719 35.883 9.037 59.981 37.274 59.981 73.719 0 4.71 3.814 8.533 8.533 8.533s8.533-3.823 8.533-8.533c0-50.859-39.799-89.762-93.867-93.5V17.067h51.2v17.067h-25.6a8.53 8.53 0 0 0-8.533 8.533 8.53 8.53 0 0 0 8.533 8.533h34.133a8.53 8.53 0 0 0 8.533-8.533V8.533A8.53 8.53 0 0 0 324.264 0H256a8.53 8.53 0 0 0-8.533 8.533V85.7C193.4 89.438 153.6 128.341 153.6 179.2a8.53 8.53 0 0 0 8.533 8.533zM332.8 477.867H179.2a8.53 8.53 0 0 0-8.533 8.533v17.067c0 4.71 3.814 8.533 8.533 8.533s8.533-3.823 8.533-8.533v-8.533h136.533v8.533a8.53 8.53 0 0 0 8.533 8.533 8.53 8.53 0 0 0 8.533-8.533V486.4a8.53 8.53 0 0 0-8.532-8.533zm34.133-153.6a8.53 8.53 0 0 0 8.533-8.533V281.6c0-14.114-11.486-25.6-25.6-25.6s-25.6 11.486-25.6 25.6v34.133a8.53 8.53 0 0 0 8.533 8.533h34.134zm-25.6-42.667c0-4.702 3.823-8.533 8.533-8.533s8.533 3.831 8.533 8.533v25.6h-17.067v-25.6zm76.8 42.667h34.133a8.53 8.53 0 0 0 8.533-8.533V281.6c0-14.114-11.486-25.6-25.6-25.6s-25.6 11.486-25.6 25.6v34.133a8.532 8.532 0 0 0 8.534 8.534zm8.534-42.667c0-4.702 3.823-8.533 8.533-8.533s8.533 3.831 8.533 8.533v25.6h-17.067v-25.6z"/><path d="M503.467 187.733a8.53 8.53 0 0 0-8.533 8.533v8.533H17.067v-8.533c0-4.71-3.814-8.533-8.533-8.533S0 191.556 0 196.267v307.2A8.53 8.53 0 0 0 8.533 512h136.533a8.53 8.53 0 0 0 8.533-8.533v-34.133c0-9.412-7.663-17.067-17.067-17.067-3.106 0-6.025.836-8.533 2.296-5.018-2.918-12.049-2.918-17.067 0-5.018-2.918-12.049-2.918-17.067 0-5.018-2.918-12.049-2.918-17.067 0-5.018-2.918-12.049-2.918-17.067 0-5.018-2.918-12.049-2.918-17.067 0-5.018-2.918-12.049-2.918-17.067 0a16.93 16.93 0 0 0-8.533-2.296v-230.4h477.867v230.4c-3.106 0-6.025.836-8.533 2.296-5.018-2.918-12.049-2.918-17.067 0-5.018-2.918-12.049-2.918-17.067 0-5.018-2.918-12.049-2.918-17.067 0-5.018-2.918-12.049-2.918-17.067 0-5.018-2.918-12.049-2.918-17.067 0-5.018-2.918-12.049-2.918-17.067 0a16.93 16.93 0 0 0-8.533-2.296c-9.412 0-17.067 7.654-17.067 17.067v34.133a8.53 8.53 0 0 0 8.533 8.533h136.533a8.53 8.53 0 0 0 8.533-8.533v-307.2a8.523 8.523 0 0 0-8.528-8.534zM25.6 477.867a8.53 8.53 0 0 0 8.533-8.533c0 4.71 3.814 8.533 8.533 8.533s8.533-3.823 8.533-8.533c0 4.71 3.814 8.533 8.533 8.533s8.533-3.823 8.533-8.533c0 4.71 3.814 8.533 8.533 8.533s8.533-3.823 8.533-8.533a8.53 8.53 0 0 0 8.533 8.533 8.53 8.53 0 0 0 8.533-8.533c0 4.71 3.814 8.533 8.533 8.533s8.533-3.823 8.533-8.533c0 4.71 3.814 8.533 8.533 8.533s8.533-3.823 8.533-8.533v25.6H17.067v-25.6a8.53 8.53 0 0 0 8.533 8.533zm469.333 17.066H375.467v-25.6a8.53 8.53 0 0 0 8.533 8.533 8.53 8.53 0 0 0 8.533-8.533 8.53 8.53 0 0 0 8.533 8.533 8.53 8.53 0 0 0 8.533-8.533c0 4.71 3.814 8.533 8.533 8.533s8.533-3.823 8.533-8.533c0 4.71 3.814 8.533 8.533 8.533s8.533-3.823 8.533-8.533a8.53 8.53 0 0 0 8.533 8.533 8.53 8.53 0 0 0 8.533-8.533c0 4.71 3.814 8.533 8.533 8.533s8.533-3.823 8.533-8.533c0 4.71 3.814 8.533 8.533 8.533s8.533-3.823 8.533-8.533v25.6z"/><path d="M409.6 418.133a8.53 8.53 0 0 0 8.533 8.533h34.133a8.53 8.53 0 0 0 8.533-8.533v-51.2a8.53 8.53 0 0 0-8.533-8.533h-34.133a8.53 8.53 0 0 0-8.533 8.533v51.2zm17.067-42.666h17.067V409.6h-17.067v-34.133zm-153.6-51.2a8.53 8.53 0 0 0 8.533-8.533V281.6c0-14.114-11.486-25.6-25.6-25.6s-25.6 11.486-25.6 25.6v34.133a8.53 8.53 0 0 0 8.533 8.533h34.134zm-25.6-42.667c0-4.702 3.823-8.533 8.533-8.533s8.533 3.831 8.533 8.533v25.6h-17.067v-25.6zm-145.067 0c0-14.114-11.486-25.6-25.6-25.6s-25.6 11.486-25.6 25.6v34.133a8.53 8.53 0 0 0 8.533 8.533h34.133a8.53 8.53 0 0 0 8.533-8.533V281.6zm-17.067 25.6H68.267v-25.6c0-4.702 3.823-8.533 8.533-8.533s8.533 3.831 8.533 8.533v25.6z"/></svg>