<svg xmlns="http://www.w3.org/2000/svg" viewBox="0 0 512 512"><path d="M324.267 332.8c0-4.71-3.823-8.533-8.533-8.533s-8.533 3.823-8.533 8.533v17.067c0 4.71 3.823 8.533 8.533 8.533s8.533-3.823 8.533-8.533V332.8zm-8.534 93.867a8.536 8.536 0 0 0-8.533 8.533v34.133c0 4.71 3.823 8.533 8.533 8.533s8.533-3.823 8.533-8.533V435.2c.001-4.71-3.822-8.533-8.533-8.533zM358.4 230.4c0-4.71-3.823-8.533-8.533-8.533s-8.533 3.823-8.533 8.533v17.067c0 4.71 3.823 8.533 8.533 8.533s8.533-3.823 8.533-8.533V230.4zm-34.133 51.2c0-4.71-3.823-8.533-8.533-8.533s-8.533 3.823-8.533 8.533v17.067c0 4.71 3.823 8.533 8.533 8.533s8.533-3.823 8.533-8.533V281.6zm0 102.4c0-4.71-3.823-8.533-8.533-8.533S307.2 379.29 307.2 384v17.067c0 4.71 3.823 8.533 8.533 8.533s8.533-3.823 8.533-8.533V384zM358.4 281.6c0-4.71-3.823-8.533-8.533-8.533s-8.533 3.823-8.533 8.533v17.067c0 4.71 3.823 8.533 8.533 8.533s8.533-3.823 8.533-8.533V281.6zm-68.267-51.2c0-4.71-3.823-8.533-8.533-8.533s-8.533 3.823-8.533 8.533v17.067c0 4.71 3.823 8.533 8.533 8.533s8.533-3.823 8.533-8.533V230.4zm34.134 0c0-4.71-3.823-8.533-8.533-8.533s-8.533 3.823-8.533 8.533v17.067c0 4.71 3.823 8.533 8.533 8.533s8.533-3.823 8.533-8.533V230.4zm34.133-85.333V128c0-4.71-3.823-8.533-8.533-8.533s-8.533 3.823-8.533 8.533v17.067c0 4.71 3.823 8.533 8.533 8.533s8.533-3.823 8.533-8.533zM290.133 281.6c0-4.71-3.823-8.533-8.533-8.533s-8.533 3.823-8.533 8.533v17.067c0 4.71 3.823 8.533 8.533 8.533s8.533-3.823 8.533-8.533V281.6zm102.4-153.6c0-4.71-3.823-8.533-8.533-8.533s-8.533 3.823-8.533 8.533v17.067c0 4.71 3.823 8.533 8.533 8.533s8.533-3.823 8.533-8.533V128zM281.6 324.267a8.536 8.536 0 0 0-8.533 8.533v17.067c0 4.71 3.823 8.533 8.533 8.533s8.533-3.823 8.533-8.533V332.8a8.536 8.536 0 0 0-8.533-8.533zM426.667 384c0-4.71-3.823-8.533-8.533-8.533S409.6 379.29 409.6 384v17.067c0 4.71 3.823 8.533 8.533 8.533s8.533-3.823 8.533-8.533V384zm-8.534 42.667a8.536 8.536 0 0 0-8.533 8.533v34.133c0 4.71 3.823 8.533 8.533 8.533s8.533-3.823 8.533-8.533V435.2c.001-4.71-3.822-8.533-8.533-8.533zm34.134-102.4a8.536 8.536 0 0 0-8.533 8.533v17.067a8.536 8.536 0 0 0 8.533 8.533 8.536 8.536 0 0 0 8.533-8.533V332.8a8.536 8.536 0 0 0-8.533-8.533z"/><path d="M315.733 153.6a8.536 8.536 0 0 0 8.533-8.533v-36.002L409.6 87.731V230.4a8.55 8.55 0 0 0 5.538 7.996l62.729 23.518v87.953c0 4.71 3.823 8.533 8.533 8.533s8.533-3.823 8.533-8.533V256a8.55 8.55 0 0 0-5.538-7.996l-62.729-23.518V59.733c0-4.71-3.823-8.533-8.533-8.533s-8.533 3.823-8.533 8.533v10.402l-95.94 23.987a8.528 8.528 0 0 0-6.46 8.277v42.667c0 4.711 3.823 8.534 8.533 8.534z"/><path d="M460.8 281.6a8.536 8.536 0 0 0-8.533-8.533 8.536 8.536 0 0 0-8.533 8.533v17.067a8.536 8.536 0 0 0 8.533 8.533 8.536 8.536 0 0 0 8.533-8.533V281.6zm-34.133 0c0-4.71-3.823-8.533-8.533-8.533s-8.533 3.823-8.533 8.533v17.067c0 4.71 3.823 8.533 8.533 8.533s8.533-3.823 8.533-8.533V281.6zM358.4 384c0-4.71-3.823-8.533-8.533-8.533s-8.533 3.823-8.533 8.533v17.067c0 4.71 3.823 8.533 8.533 8.533s8.533-3.823 8.533-8.533V384zm68.267-51.2c0-4.71-3.823-8.533-8.533-8.533s-8.533 3.823-8.533 8.533v17.067c0 4.71 3.823 8.533 8.533 8.533s8.533-3.823 8.533-8.533V332.8zm-76.8 93.867a8.536 8.536 0 0 0-8.533 8.533v34.133c0 4.71 3.823 8.533 8.533 8.533s8.533-3.823 8.533-8.533V435.2a8.536 8.536 0 0 0-8.533-8.533zM358.4 332.8c0-4.71-3.823-8.533-8.533-8.533s-8.533 3.823-8.533 8.533v17.067c0 4.71 3.823 8.533 8.533 8.533s8.533-3.823 8.533-8.533V332.8z"/><path d="M384 477.867a8.536 8.536 0 0 0 8.533-8.533V196.267a8.536 8.536 0 0 0-6.46-8.277L249.54 153.856a8.546 8.546 0 0 0-7.322 1.553 8.518 8.518 0 0 0-3.285 6.724v187.733c0 4.71 3.823 8.533 8.533 8.533s8.533-3.823 8.533-8.533V173.065l119.467 29.867v266.402c.001 4.71 3.824 8.533 8.534 8.533zM187.733 179.2c0-4.71-3.823-8.533-8.533-8.533s-8.533 3.823-8.533 8.533v17.067c0 4.71 3.823 8.533 8.533 8.533s8.533-3.823 8.533-8.533V179.2zm0-51.2c0-4.71-3.823-8.533-8.533-8.533s-8.533 3.823-8.533 8.533v17.067c0 4.71 3.823 8.533 8.533 8.533s8.533-3.823 8.533-8.533V128zm-68.266 256c0-4.71-3.823-8.533-8.533-8.533S102.4 379.29 102.4 384v17.067c0 4.71 3.823 8.533 8.533 8.533s8.533-3.823 8.533-8.533V384z"/><path d="M42.667 307.2a8.536 8.536 0 0 0 8.533-8.533V256h85.333v213.333a8.536 8.536 0 0 0 8.533 8.533 8.536 8.536 0 0 0 8.533-8.533V247.467a8.536 8.536 0 0 0-8.533-8.533h-102.4a8.536 8.536 0 0 0-8.533 8.533v51.2c0 4.71 3.823 8.533 8.534 8.533zm93.866-128v17.067a8.536 8.536 0 0 0 8.533 8.533 8.536 8.536 0 0 0 8.533-8.533V179.2a8.536 8.536 0 0 0-8.533-8.533 8.536 8.536 0 0 0-8.533 8.533zm51.2-102.4c0-4.71-3.823-8.533-8.533-8.533s-8.533 3.823-8.533 8.533v17.067c0 4.71 3.823 8.533 8.533 8.533s8.533-3.823 8.533-8.533V76.8z"/><path d="M110.933 426.667a8.536 8.536 0 0 0-8.533 8.533v34.133c0 4.71 3.823 8.533 8.533 8.533s8.533-3.823 8.533-8.533V435.2c.001-4.71-3.822-8.533-8.533-8.533z"/><path d="M503.467 494.933H486.4v-52.412c14.677-3.814 25.6-17.067 25.6-32.922 0-18.825-15.309-34.133-34.133-34.133s-34.133 15.309-34.133 34.133c0 15.855 10.923 29.107 25.6 32.922v52.412H256v-34.995c19.447-3.968 34.133-21.197 34.133-41.805 0-23.526-19.14-42.667-42.667-42.667-23.526 0-42.667 19.14-42.667 42.667 0 20.608 14.686 37.837 34.133 41.805v34.995H51.2v-86.195c19.447-3.968 34.133-21.197 34.133-41.805 0-23.526-19.14-42.667-42.667-42.667C19.14 324.267 0 343.407 0 366.933c0 20.608 14.686 37.837 34.133 41.805v86.195h-25.6c-4.71 0-8.533 3.823-8.533 8.533S3.823 512 8.533 512h494.933c4.71 0 8.533-3.823 8.533-8.533s-3.822-8.534-8.532-8.534zm-486.4-128c0-14.114 11.486-25.6 25.6-25.6s25.6 11.486 25.6 25.6-11.486 25.6-25.6 25.6-25.6-11.486-25.6-25.6zm204.8 51.2c0-14.114 11.486-25.6 25.6-25.6s25.6 11.486 25.6 25.6-11.486 25.6-25.6 25.6-25.6-11.486-25.6-25.6zM460.8 409.6c0-9.412 7.654-17.067 17.067-17.067s17.067 7.654 17.067 17.067c0 9.412-7.654 17.067-17.067 17.067S460.8 419.012 460.8 409.6z"/><path d="M68.267 435.2v34.133c0 4.71 3.823 8.533 8.533 8.533s8.533-3.823 8.533-8.533V435.2c0-4.71-3.823-8.533-8.533-8.533s-8.533 3.823-8.533 8.533zm51.2-153.6c0-4.71-3.823-8.533-8.533-8.533s-8.533 3.823-8.533 8.533v17.067c0 4.71 3.823 8.533 8.533 8.533s8.533-3.823 8.533-8.533V281.6zm0 51.2c0-4.71-3.823-8.533-8.533-8.533s-8.533 3.823-8.533 8.533v17.067c0 4.71 3.823 8.533 8.533 8.533s8.533-3.823 8.533-8.533V332.8zm-51.2-51.2v17.067c0 4.71 3.823 8.533 8.533 8.533s8.533-3.823 8.533-8.533V281.6c0-4.71-3.823-8.533-8.533-8.533s-8.533 3.823-8.533 8.533zm119.466 51.2c0-4.71-3.823-8.533-8.533-8.533s-8.533 3.823-8.533 8.533v17.067c0 4.71 3.823 8.533 8.533 8.533s8.533-3.823 8.533-8.533V332.8zm34.134-102.4a8.536 8.536 0 0 0-8.533-8.533 8.536 8.536 0 0 0-8.533 8.533v17.067a8.536 8.536 0 0 0 8.533 8.533 8.536 8.536 0 0 0 8.533-8.533V230.4zm0-51.2a8.536 8.536 0 0 0-8.533-8.533 8.536 8.536 0 0 0-8.533 8.533v17.067a8.536 8.536 0 0 0 8.533 8.533 8.536 8.536 0 0 0 8.533-8.533V179.2zm0 102.4a8.536 8.536 0 0 0-8.533-8.533 8.536 8.536 0 0 0-8.533 8.533v17.067a8.536 8.536 0 0 0 8.533 8.533 8.536 8.536 0 0 0 8.533-8.533V281.6zm-8.534 42.667a8.536 8.536 0 0 0-8.533 8.533v17.067a8.536 8.536 0 0 0 8.533 8.533 8.536 8.536 0 0 0 8.533-8.533V332.8c.001-4.71-3.822-8.533-8.533-8.533zM221.867 128a8.536 8.536 0 0 0-8.533-8.533 8.536 8.536 0 0 0-8.533 8.533v17.067a8.536 8.536 0 0 0 8.533 8.533 8.536 8.536 0 0 0 8.533-8.533V128zm-34.134 256c0-4.71-3.823-8.533-8.533-8.533s-8.533 3.823-8.533 8.533v17.067c0 4.71 3.823 8.533 8.533 8.533s8.533-3.823 8.533-8.533V384z"/><path d="M110.933 221.867a8.536 8.536 0 0 0 8.533-8.533V150.34l29.414-14.703a8.542 8.542 0 0 0 4.719-7.637V56.474l42.667-21.333 42.667 21.333V128c0 4.71 3.823 8.533 8.533 8.533S256 132.71 256 128V51.2a8.541 8.541 0 0 0-4.719-7.637L204.8 20.326V8.533c0-4.71-3.823-8.533-8.533-8.533s-8.533 3.823-8.533 8.533v11.793l-46.481 23.236a8.542 8.542 0 0 0-4.719 7.637v71.526l-29.414 14.703a8.542 8.542 0 0 0-4.719 7.637v68.267c-.001 4.712 3.822 8.535 8.532 8.535zm76.8 59.733c0-4.71-3.823-8.533-8.533-8.533s-8.533 3.823-8.533 8.533v17.067c0 4.71 3.823 8.533 8.533 8.533s8.533-3.823 8.533-8.533V281.6zM179.2 426.667a8.536 8.536 0 0 0-8.533 8.533v34.133c0 4.71 3.823 8.533 8.533 8.533s8.533-3.823 8.533-8.533V435.2a8.536 8.536 0 0 0-8.533-8.533z"/><path d="M221.867 76.8a8.536 8.536 0 0 0-8.533-8.533 8.536 8.536 0 0 0-8.533 8.533v17.067a8.536 8.536 0 0 0 8.533 8.533 8.536 8.536 0 0 0 8.533-8.533V76.8zm-34.134 153.6c0-4.71-3.823-8.533-8.533-8.533s-8.533 3.823-8.533 8.533v17.067c0 4.71 3.823 8.533 8.533 8.533s8.533-3.823 8.533-8.533V230.4z"/></svg>