<svg xmlns="http://www.w3.org/2000/svg" viewBox="0 0 512 512"><path d="M30.225 103.791a8.483 8.483 0 0 0 7.834.734 8.563 8.563 0 0 0 5.112-5.982c1.792-7.774 8.602-13.21 16.563-13.21 3.106 0 6.144.845 8.772 2.449 4.028 2.441 9.284 1.161 11.716-2.867a8.516 8.516 0 0 0-2.867-11.725 33.973 33.973 0 0 0-17.621-4.924c-12.646 0-23.868 6.844-29.747 17.451a25.094 25.094 0 0 0-4.386-.384c-14.114 0-25.6 11.486-25.6 25.6s11.486 25.6 25.6 25.6h25.6c4.719 0 8.533-3.823 8.533-8.533s-3.814-8.533-8.533-8.533H25.6c-4.71 0-8.533-3.831-8.533-8.533 0-6.332 7.586-10.727 13.158-7.143zm393.916-55.066c2.483-2.441 7.714-6.059 11.059-6.059 6.878 0 8.431 4.693 8.533 8.533-.008.009-.008.017 0 .043-.008.009-.008.026 0 .034v.052a8.531 8.531 0 0 0 8.533 8.405c4.685 0 8.491-3.772 8.533-8.448.102-3.934 1.672-8.619 8.533-8.619 3.345 0 8.576 3.618 11.034 6.033a8.523 8.523 0 0 0 12.066 0 8.525 8.525 0 0 0 0-12.066c-1.126-1.126-11.366-11.034-23.1-11.034-7.475 0-13.056 2.423-17.067 5.999-4.011-3.576-9.591-5.999-17.067-5.999-11.733 0-21.973 9.907-23.1 11.034-3.328 3.319-3.328 8.695-.009 12.032 3.297 3.329 8.69 3.363 12.052.06zm68.096 259.149c-6.938-20.506-26.402-34.807-48.503-34.807-4.719 0-8.533 3.823-8.533 8.533s3.814 8.533 8.533 8.533c16.188 0 30.259 11.511 33.451 27.366.845 4.181 4.787 7.134 8.866 6.835.308-.015.613-.048.461-.063 4.659.06 8.422 3.863 8.422 8.528 0 4.702-3.823 8.533-8.533 8.533h-93.867c-4.719 0-8.533 3.823-8.533 8.533s3.814 8.533 8.533 8.533H486.4c14.114 0 25.6-11.486 25.6-25.6 0-12.107-8.448-22.279-19.763-24.924z"/><path d="M256 0c-.29 0-.563.043-.862.043h-.008C148.548.486 68.267 81.007 68.267 187.733c0 52.096 33.502 97.434 65.894 141.286 27.546 37.291 53.572 72.516 53.572 106.18v51.2c0 14.114 11.486 25.6 25.6 25.6h85.333c14.114 0 25.6-11.486 25.6-25.6v-51.2a8.53 8.53 0 0 0-8.533-8.533H230.4c-4.719 0-8.533 3.823-8.533 8.533s3.814 8.533 8.533 8.533h76.8V486.4c0 4.702-3.823 8.533-8.533 8.533h-85.333c-4.71 0-8.533-3.831-8.533-8.533v-51.2c0-39.287-27.648-76.706-56.917-116.326-30.746-41.626-62.549-84.668-62.549-131.14 0-87.151 58.931-154.923 141.133-168.149-29.169 25.48-72.868 78.574-72.868 168.148 0 67.968 21.7 113.946 39.134 150.886 11.511 24.388 20.599 43.648 20.599 62.447 0 4.71 3.814 8.533 8.533 8.533s8.533-3.823 8.533-8.533c0-22.622-10.3-44.459-22.238-69.734-16.708-35.396-37.495-79.454-37.495-143.599 0-94.362 52.07-144.7 76.8-163.277v376.61c0 4.71 3.814 8.533 8.533 8.533s8.533-3.823 8.533-8.533V24.457c24.721 18.577 76.8 68.915 76.8 163.277 0 64.145-20.796 108.203-37.504 143.599-11.93 25.276-22.229 47.113-22.229 69.734 0 4.71 3.814 8.533 8.533 8.533s8.533-3.823 8.533-8.533c0-18.799 9.088-38.059 20.599-62.447C336.7 301.679 358.4 255.701 358.4 187.733c0-89.574-43.699-142.669-72.866-168.149 82.202 13.227 141.133 80.998 141.133 168.149 0 51.473-33.579 93.329-63.215 130.261-22.485 28.015-43.716 54.485-47.633 81.86-.666 4.668 2.569 8.994 7.236 9.66a8.525 8.525 0 0 0 9.66-7.236c3.251-22.758 23.066-47.454 44.041-73.6 31.394-39.125 66.978-83.473 66.978-140.945C443.733 80.708 363.025 0 256 0z"/></svg>