<svg xmlns="http://www.w3.org/2000/svg" viewBox="0 0 512 512"><path d="M187.648 426.667c-23.526 0-42.667 19.14-42.667 42.667 0 23.526 19.14 42.667 42.667 42.667 23.526 0 42.667-19.14 42.667-42.667s-19.141-42.667-42.667-42.667zm0 68.266c-14.114 0-25.6-11.486-25.6-25.6s11.486-25.6 25.6-25.6 25.6 11.486 25.6 25.6-11.486 25.6-25.6 25.6z"/><path d="M187.904 460.8h-.085c-4.71 0-8.491 3.823-8.491 8.533s3.857 8.533 8.576 8.533 8.533-3.823 8.533-8.533-3.814-8.533-8.533-8.533zM102.315 256H85.248a8.536 8.536 0 0 0-8.533 8.533 8.536 8.536 0 0 0 8.533 8.533h17.067c4.702 0 8.533 3.831 8.533 8.533v187.733a8.536 8.536 0 0 0 8.533 8.533 8.536 8.536 0 0 0 8.533-8.533V281.6c.001-14.114-11.485-25.6-25.599-25.6zm307.2 102.4h-25.6v-8.533c0-4.71-3.823-8.533-8.533-8.533s-8.533 3.823-8.533 8.533v8.533h-17.067v-8.533c0-4.71-3.823-8.533-8.533-8.533s-8.533 3.823-8.533 8.533v8.533h-17.067v-8.533c0-4.71-3.823-8.533-8.533-8.533s-8.533 3.823-8.533 8.533v8.533h-17.067v-59.733a8.536 8.536 0 0 0-8.533-8.533H153.515c-4.71 0-8.533 3.823-8.533 8.533s3.823 8.533 8.533 8.533h110.933v59.733a8.536 8.536 0 0 0 8.533 8.533h128V460.8h-25.6c-.486 0-.913.196-1.374.282-.606.102-1.229.12-1.792.358-3.14 1.263-5.367 4.301-5.367 7.893 0 .23.111.418.128.648l-.128 33.451c-.017 4.71 3.789 8.55 8.499 8.567h.034c4.693 0 8.516-3.797 8.533-8.499l.102-25.634h25.498a8.536 8.536 0 0 0 8.533-8.533v-102.4c.001-4.71-3.822-8.533-8.532-8.533zm25.591-163.883c-.913-95.13-76.399-172.553-170.658-177.024v-8.96A8.536 8.536 0 0 0 255.915 0a8.536 8.536 0 0 0-8.533 8.533v8.969c-94.839 4.497-170.667 82.833-170.667 178.765a8.534 8.534 0 0 0 7.168 8.422c4.096.614 8.141-1.758 9.463-5.726.068-.196 6.903-19.763 34.569-19.763 27.204 0 34.304 19.038 34.569 19.763a8.534 8.534 0 0 0 8.098 5.837 8.525 8.525 0 0 0 8.098-5.837c.068-.196 6.904-19.763 34.569-19.763 23.859 0 32.256 14.635 34.133 18.722v66.611a8.536 8.536 0 0 0 8.533 8.533 8.536 8.536 0 0 0 8.533-8.533v-66.62c1.852-4.053 10.172-18.714 34.133-18.714 27.204 0 34.304 19.038 34.568 19.763 1.169 3.49 4.42 5.837 8.098 5.837s6.938-2.347 8.098-5.837c.068-.196 6.904-19.763 34.569-19.763 27.093 0 34.253 18.884 34.594 19.84a8.536 8.536 0 0 0 8.064 5.76h.128c4.702.41 8.585-3.797 8.585-8.533 0-.597-.059-1.185-.179-1.749zm-51.191-32.384c-22.263 0-35.362 9.421-42.667 17.954-7.296-8.533-20.403-17.954-42.667-17.954-22.263 0-35.371 9.421-42.667 17.954-7.296-8.533-20.403-17.954-42.667-17.954-22.263 0-35.362 9.421-42.667 17.954-7.296-8.533-20.403-17.954-42.667-17.954-14.114 0-24.542 3.78-32.145 8.73 10.615-67.166 62.626-120.687 128.99-133.658-19.558 18.091-43.938 50.799-54.042 106.334-.845 4.634 2.236 9.079 6.869 9.924a8.536 8.536 0 0 0 9.924-6.869c11.529-63.377 42.607-93.619 59.87-105.958v104.431a8.536 8.536 0 0 0 8.533 8.533 8.536 8.536 0 0 0 8.533-8.533V40.738c17.254 12.476 48.435 42.948 59.87 105.856a8.537 8.537 0 0 0 9.924 6.869c4.634-.845 7.714-5.291 6.869-9.924-10.104-55.535-34.483-88.243-54.042-106.334 66.364 12.971 118.374 66.492 128.99 133.658-7.599-4.949-18.027-8.73-32.141-8.73z"/><path d="M341.248 460.8h-85.333c-4.71 0-8.533 3.823-8.533 8.533s3.823 8.533 8.533 8.533h85.333c4.71 0 8.533-3.823 8.533-8.533s-3.823-8.533-8.533-8.533zm51.2-170.667h-85.333c-4.71 0-8.533 3.823-8.533 8.533s3.823 8.533 8.533 8.533h85.333c4.787 0 8.533 3.746 8.533 8.533V332.8a8.536 8.536 0 0 0 8.533 8.533 8.536 8.536 0 0 0 8.533-8.533v-17.067c.001-14.114-11.485-25.6-25.599-25.6z"/></svg>