<svg xmlns="http://www.w3.org/2000/svg" viewBox="0 0 512 512"><path d="M503.467 494.933h-59.733V486.4c0-4.71-3.823-8.533-8.533-8.533s-8.533 3.823-8.533 8.533v8.533H358.4V486.4c0-4.71-3.823-8.533-8.533-8.533s-8.533 3.823-8.533 8.533v8.533h-68.267V486.4a8.536 8.536 0 0 0-8.533-8.533 8.536 8.536 0 0 0-8.533 8.533v8.533h-68.267V486.4c0-4.71-3.823-8.533-8.533-8.533s-8.533 3.823-8.533 8.533v8.533H102.4V486.4a8.536 8.536 0 0 0-8.533-8.533 8.536 8.536 0 0 0-8.533 8.533v8.533H17.067v-435.2c0-23.526 19.14-42.667 42.667-42.667S102.4 36.207 102.4 59.733v51.2c0 4.71 3.823 8.533 8.533 8.533s8.533-3.823 8.533-8.533v-51.2C119.467 26.795 92.672 0 59.733 0S0 26.795 0 59.733v443.733C0 508.177 3.823 512 8.533 512h494.933c4.71 0 8.533-3.823 8.533-8.533s-3.822-8.534-8.532-8.534z"/><path d="M196.267 375.467a8.536 8.536 0 0 0 8.533-8.533V221.867c0-9.412-7.663-17.067-17.067-17.067h-68.267c-9.412 0-17.067 7.654-17.067 17.067v145.067c0 4.71 3.823 8.533 8.533 8.533s8.533-3.823 8.533-8.533V221.867h68.267v145.067a8.538 8.538 0 0 0 8.535 8.533zm-162.134 25.6a8.536 8.536 0 0 0 8.533 8.533h409.6c4.71 0 8.533-3.823 8.533-8.533s-3.823-8.533-8.533-8.533h-409.6c-4.71-.001-8.533 3.822-8.533 8.533z"/><path d="M501.76 327.68L374.204 157.67c-.529-.87-13.312-21.137-41.412-21.137H42.667a8.536 8.536 0 0 0-8.533 8.533 8.536 8.536 0 0 0 8.533 8.533h290.125c18.304 0 26.564 12.535 27.315 13.653l92.169 122.88h-25.609V281.6c0-4.71-3.823-8.533-8.533-8.533s-8.533 3.823-8.533 8.533v8.533h-68.267v-68.267h25.6a8.536 8.536 0 0 0 8.533-8.533 8.536 8.536 0 0 0-8.533-8.533h-25.6c-9.404 0-17.067 7.654-17.067 17.067v68.267c0 9.412 7.663 17.067 17.067 17.067h123.742l23.262 31.019c.068.085 6.596 8.61 6.596 28.715v25.6H486.4c-4.71 0-8.533 3.823-8.533 8.533s3.823 8.533 8.533 8.533h8.533v25.6c0 5.265-3.277 8.533-8.533 8.533H42.667a8.536 8.536 0 0 0-8.533 8.533 8.536 8.536 0 0 0 8.533 8.533H486.4c14.592 0 25.6-11.008 25.6-25.6v-68.267c0-26.572-9.506-38.425-10.24-39.253z"/><path d="M68.267 204.8h-25.6a8.536 8.536 0 0 0-8.533 8.533 8.536 8.536 0 0 0 8.533 8.533h25.6v68.267h-25.6c-4.71 0-8.533 3.823-8.533 8.533s3.823 8.533 8.533 8.533h25.6c9.404 0 17.067-7.654 17.067-17.067v-68.267c-.001-9.411-7.664-17.065-17.067-17.065zm204.8 102.4c9.404 0 17.067-7.654 17.067-17.067v-68.267c0-9.412-7.663-17.067-17.067-17.067h-34.133c-9.412 0-17.067 7.654-17.067 17.067v68.267c0 9.412 7.654 17.067 17.067 17.067h34.133zm-34.134-85.333h34.133l.008 68.267h-34.142v-68.267z"/></svg>