<svg xmlns="http://www.w3.org/2000/svg" viewBox="0 0 512 512"><path d="M42.667 221.867h426.667a8.53 8.53 0 0 0 8.533-8.533 8.53 8.53 0 0 0-8.533-8.533H42.667a8.536 8.536 0 0 0-8.533 8.533c-.001 4.71 3.822 8.533 8.533 8.533zm76.8-51.2c-4.71 0-8.533 3.823-8.533 8.533s3.823 8.533 8.533 8.533h273.067c4.719 0 8.533-3.823 8.533-8.533s-3.814-8.533-8.533-8.533H119.467z"/><path d="M85.333 187.733a8.536 8.536 0 0 0 8.533-8.533c0-89.404 72.73-162.133 162.133-162.133S418.133 89.796 418.133 179.2c0 4.71 3.814 8.533 8.533 8.533s8.533-3.823 8.533-8.533C435.2 80.384 354.807 0 256 0 157.184 0 76.8 80.384 76.8 179.2a8.536 8.536 0 0 0 8.533 8.533zM298.667 256c4.719 0 8.533-3.823 8.533-8.533s-3.814-8.533-8.533-8.533h-85.333c-4.71 0-8.533 3.823-8.533 8.533s3.823 8.533 8.533 8.533h8.533v187.733h-8.533a8.536 8.536 0 0 0-8.533 8.533 8.536 8.536 0 0 0 8.533 8.533h85.333a8.53 8.53 0 0 0 8.533-8.533 8.53 8.53 0 0 0-8.533-8.533h-8.533V256h8.533zm-25.6 187.733h-34.133V256h34.133v187.733zm196.266 34.134H42.667a8.536 8.536 0 0 0-8.533 8.533v17.067A8.536 8.536 0 0 0 42.667 512a8.536 8.536 0 0 0 8.533-8.533v-8.533h409.6v8.533a8.53 8.53 0 0 0 8.533 8.533 8.53 8.53 0 0 0 8.533-8.533V486.4a8.53 8.53 0 0 0-8.533-8.533zM162.133 256c4.71 0 8.533-3.823 8.533-8.533s-3.823-8.533-8.533-8.533H76.8c-4.71 0-8.533 3.823-8.533 8.533S72.09 256 76.8 256h8.533v187.733H76.8a8.536 8.536 0 0 0-8.533 8.533 8.536 8.536 0 0 0 8.533 8.533h85.333a8.536 8.536 0 0 0 8.533-8.533 8.536 8.536 0 0 0-8.533-8.533H153.6V256h8.533zm-25.6 187.733H102.4V256h34.133v187.733zM435.2 256c4.719 0 8.533-3.823 8.533-8.533s-3.814-8.533-8.533-8.533h-85.333c-4.719 0-8.533 3.823-8.533 8.533s3.814 8.533 8.533 8.533h8.533v187.733h-8.533a8.53 8.53 0 0 0-8.533 8.533 8.53 8.53 0 0 0 8.533 8.533H435.2a8.53 8.53 0 0 0 8.533-8.533 8.53 8.53 0 0 0-8.533-8.533h-8.533V256h8.533zm-25.6 187.733h-34.133V256H409.6v187.733z"/></svg>