<svg xmlns="http://www.w3.org/2000/svg" viewBox="0 0 512.001 512.001"><path d="M8.533 349.862h230.4a8.49 8.49 0 0 0 6.622-3.166l110.763-136.533a8.49 8.49 0 0 0 1.843-6.426l-8.533-68.267a8.546 8.546 0 0 0-6.281-7.194c-3.371-.922-6.929.35-9.011 3.132l-25.6 34.133a8.51 8.51 0 0 0 1.707 11.938c3.772 2.842 9.122 2.065 11.938-1.698l12.928-17.237 5.47 43.699-105.916 130.552H17.451c4.326-47.778 44.604-85.333 93.483-85.333h95.957l15.3 53.547a8.558 8.558 0 0 0 8.201 6.187 8.52 8.52 0 0 0 2.347-.333 8.537 8.537 0 0 0 5.871-10.547l-14.037-49.135c17.543-1.4 31.427-15.958 31.427-33.852 0-18.825-15.309-34.133-34.133-34.133H76.8c-14.114 0-25.6 11.477-25.6 25.6v17.067c0 8.32 4.053 15.65 10.223 20.335A111.276 111.276 0 0 0 31.07 264.53H17.067a8.525 8.525 0 0 0-8.533 8.533 8.53 8.53 0 0 0 8.533 8.533h.538C6.519 298.858 0 319.321 0 341.329a8.53 8.53 0 0 0 8.533 8.533zm59.734-145.067a8.536 8.536 0 0 1 8.533-8.533h145.067c9.404 0 17.067 7.654 17.067 17.067 0 9.412-7.663 17.067-17.067 17.067H76.8c-4.71 0-8.533-3.831-8.533-8.533v-17.068zm435.2 230.417H366.933c-4.719 0-8.533 3.823-8.533 8.533s3.814 8.533 8.533 8.533h136.533c4.719 0 8.533-3.823 8.533-8.533s-3.813-8.533-8.532-8.533z"/><path d="M160.811 263.377c-3.362 3.302-3.396 8.704-.085 12.066 9.694 9.83 17.212 21.871 21.76 34.816 1.22 3.524 4.523 5.717 8.047 5.717.93 0 1.894-.154 2.825-.478 4.446-1.562 6.784-6.434 5.231-10.88-5.367-15.309-14.251-29.542-25.711-41.156a8.525 8.525 0 0 0-12.067-.085zm173.525-155.862a8.512 8.512 0 0 0 6.818 3.413h51.379c8.021 0 13.414-4.523 16.64-7.228.145-.119.282-.239.427-.367v32.427a22.764 22.764 0 0 1-.794-.666c-3.311-2.825-8.329-7.1-16.273-7.1h-17.246a8.523 8.523 0 0 0-7.1 3.797 8.546 8.546 0 0 0-.768 8.021l42.837 102.4a8.55 8.55 0 0 0 7.876 5.248c27.597 0 53.453 12.092 71.168 32.845L324.992 329.63c4.369-34.893 28.058-64.939 61.67-76.826a8.531 8.531 0 0 0 5.205-10.888c-1.57-4.437-6.426-6.776-10.88-5.205-44.134 15.599-73.788 57.643-73.788 104.619a8.522 8.522 0 0 0 3.439 6.844 8.532 8.532 0 0 0 7.543 1.332l187.733-56.363a8.53 8.53 0 0 0 5.572-5.265 8.535 8.535 0 0 0-.896-7.612c-19.567-29.619-51.661-47.915-86.716-49.724l-35.772-85.478h4.429c1.502 0 2.739.922 5.205 3.021 2.731 2.33 6.46 5.513 11.861 5.513 9.737 0 17.067-7.339 17.067-17.067v-34.133c0-9.412-7.654-17.067-17.067-17.067-5.06 0-8.568 2.927-11.383 5.291-2.398 2.005-3.959 3.243-5.683 3.243h-47.112l-23.04-30.72c-2.825-3.772-8.175-4.548-11.938-1.707-3.78 2.825-4.54 8.175-1.707 11.947l25.602 34.13zm83.618 259.414c-10.342 0-19.61-6.17-23.62-15.71-1.818-4.352-6.827-6.383-11.17-4.574-4.343 1.826-6.391 6.827-4.565 11.17a42.574 42.574 0 0 0 39.356 26.18c23.526 0 42.667-19.149 42.667-42.667a42.68 42.68 0 0 0-1.391-10.846c-1.195-4.557-5.871-7.296-10.411-6.093a8.52 8.52 0 0 0-6.101 10.411c.555 2.125.836 4.326.836 6.528-.001 14.115-11.478 25.601-25.601 25.601zM128 435.212H8.533c-4.719 0-8.533 3.823-8.533 8.533s3.814 8.533 8.533 8.533H128c4.719 0 8.533-3.823 8.533-8.533s-3.814-8.533-8.533-8.533zm136.533 0H179.2c-4.719 0-8.533 3.823-8.533 8.533s3.814 8.533 8.533 8.533h85.333c4.719 0 8.533-3.823 8.533-8.533s-3.814-8.533-8.533-8.533zm68.267 0h-17.067c-4.719 0-8.533 3.823-8.533 8.533s3.814 8.533 8.533 8.533H332.8c4.719 0 8.533-3.823 8.533-8.533s-3.814-8.533-8.533-8.533zm-158.532-67.14c-4.07-2.364-9.293-.964-11.657 3.106-10.675 18.432-30.481 29.884-51.678 29.884-21.197 0-41.003-11.452-51.678-29.884-2.355-4.07-7.578-5.461-11.657-3.106-4.079 2.364-5.478 7.586-3.106 11.665 13.713 23.68 39.177 38.391 66.441 38.391 27.264 0 52.727-14.711 66.44-38.391a8.534 8.534 0 0 0-3.105-11.665z"/><path d="M123.742 363.533c-7.782 4.48-17.937 4.437-25.694-.111-4.079-2.389-9.31-1.024-11.674 3.046-2.381 4.062-1.024 9.293 3.038 11.682a42.728 42.728 0 0 0 42.846.17c4.079-2.347 5.495-7.569 3.132-11.656-2.338-4.079-7.569-5.478-11.648-3.131zm294.152 54.613c6.161 0 12.416-.751 18.637-2.295 41.088-10.249 66.176-52.011 55.945-93.099-1.143-4.574-5.751-7.373-10.351-6.221-4.565 1.143-7.347 5.777-6.212 10.342 7.962 31.957-11.554 64.444-43.511 72.414-29.389 7.33-59.657-8.499-70.332-36.83-1.664-4.412-6.588-6.63-10.991-4.975-4.412 1.655-6.647 6.579-4.975 10.991 11.46 30.447 40.49 49.673 71.79 49.673z"/></svg>