<svg xmlns="http://www.w3.org/2000/svg" viewBox="0 0 512 512"><path d="M187.733 170.667a8.536 8.536 0 0 0 8.533-8.533v-25.6h76.8v25.6a8.53 8.53 0 0 0 8.533 8.533 8.53 8.53 0 0 0 8.533-8.533V128a8.53 8.53 0 0 0-8.533-8.533h-93.867a8.536 8.536 0 0 0-8.533 8.533v34.133c.001 4.711 3.824 8.534 8.534 8.534zM179.2 230.4v34.133c0 4.71 3.823 8.533 8.533 8.533s8.533-3.823 8.533-8.533V230.4c0-4.71-3.823-8.533-8.533-8.533s-8.533 3.823-8.533 8.533zm59.733-128a8.536 8.536 0 0 0 8.533-8.533V8.533c0-4.71-3.823-8.533-8.533-8.533S230.4 3.823 230.4 8.533v85.333c0 4.711 3.823 8.534 8.533 8.534zm42.667 128v34.133a8.53 8.53 0 0 0 8.533 8.533 8.53 8.53 0 0 0 8.533-8.533V230.4a8.53 8.53 0 0 0-8.533-8.533 8.53 8.53 0 0 0-8.533 8.533zm-51.2 0v34.133c0 4.71 3.823 8.533 8.533 8.533s8.533-3.823 8.533-8.533V230.4c0-4.71-3.823-8.533-8.533-8.533s-8.533 3.823-8.533 8.533zM347.341 48.725c2.483-2.441 7.714-6.059 11.059-6.059 6.878 0 8.431 4.693 8.533 8.533-.009.009-.009.017 0 .043-.009.009-.009.026 0 .034v.052a8.531 8.531 0 0 0 8.533 8.405c4.685 0 8.491-3.772 8.533-8.448.102-3.934 1.673-8.619 8.533-8.619 3.345 0 8.576 3.618 11.034 6.033a8.523 8.523 0 0 0 12.066 0 8.523 8.523 0 0 0 0-12.066c-1.126-1.126-11.366-11.034-23.1-11.034-7.475 0-13.056 2.423-17.067 5.999-4.011-3.576-9.591-5.999-17.067-5.999-11.733 0-21.973 9.907-23.1 11.034-3.328 3.319-3.328 8.695-.009 12.032 3.297 3.329 8.698 3.363 12.052.06zM392.533 358.4a8.53 8.53 0 0 0 8.533-8.533v-51.2a8.53 8.53 0 0 0-8.533-8.533h-307.2a8.536 8.536 0 0 0-8.533 8.533v51.2c0 4.71 3.823 8.533 8.533 8.533s8.533-3.823 8.533-8.533V307.2H384v42.667a8.53 8.53 0 0 0 8.533 8.533z"/><path d="M332.8 332.8v17.067a8.53 8.53 0 0 0 8.533 8.533 8.53 8.53 0 0 0 8.533-8.533V332.8a8.53 8.53 0 0 0-8.533-8.533 8.53 8.53 0 0 0-8.533 8.533zm8.533-59.733a8.53 8.53 0 0 0 8.533-8.533v-68.267a8.53 8.53 0 0 0-8.533-8.533h-204.8a8.536 8.536 0 0 0-8.533 8.533v68.267c0 4.71 3.823 8.533 8.533 8.533s8.533-3.823 8.533-8.533V204.8H332.8v59.733a8.53 8.53 0 0 0 8.533 8.534zm102.4 102.4h-102.4A8.53 8.53 0 0 0 332.8 384v119.467a8.53 8.53 0 0 0 8.533 8.533 8.53 8.53 0 0 0 8.533-8.533V392.533H435.2v110.933c0 4.71 3.814 8.533 8.533 8.533s8.533-3.823 8.533-8.533V384a8.53 8.53 0 0 0-8.533-8.533zm-153.6-51.2a8.53 8.53 0 0 0-8.533 8.533v170.667a8.53 8.53 0 0 0 8.533 8.533 8.53 8.53 0 0 0 8.533-8.533V332.8a8.53 8.53 0 0 0-8.533-8.533zm-51.2 0a8.536 8.536 0 0 0-8.533 8.533v170.667c0 4.71 3.823 8.533 8.533 8.533s8.533-3.823 8.533-8.533V332.8c.001-4.71-3.822-8.533-8.533-8.533z"/><path d="M392.533 409.6a8.53 8.53 0 0 0-8.533 8.533v85.333a8.53 8.53 0 0 0 8.533 8.533 8.53 8.53 0 0 0 8.533-8.533v-85.333a8.53 8.53 0 0 0-8.533-8.533zm-307.2-238.933H153.6a8.536 8.536 0 0 0 8.533-8.533 8.536 8.536 0 0 0-8.533-8.533H85.333c-4.702 0-8.533-3.831-8.533-8.533 0-6.34 7.612-10.718 13.158-7.142a8.537 8.537 0 0 0 7.834.734 8.51 8.51 0 0 0 5.103-5.982c1.801-7.774 8.619-13.21 16.572-13.21s14.771 5.436 16.572 13.21a8.51 8.51 0 0 0 5.103 5.982 8.532 8.532 0 0 0 7.834-.734c1.434-.922 2.987-1.391 4.625-1.391 4.71 0 8.533-3.823 8.533-8.533s-3.823-8.533-8.533-8.533c-1.476 0-2.944.128-4.386.384-5.888-10.607-17.092-17.451-29.747-17.451-12.655 0-23.859 6.844-29.747 17.451a25.094 25.094 0 0 0-4.386-.384c-14.114 0-25.6 11.486-25.6 25.6s11.484 25.598 25.598 25.598zM460.8 204.8h-9.395c-3.959-19.447-21.197-34.133-41.805-34.133-18.987 0-35.823 12.843-40.96 31.241a8.534 8.534 0 0 0 5.931 10.513c4.489 1.229 9.242-1.382 10.505-5.922 3.081-11.051 13.175-18.765 24.525-18.765 14.114 0 25.6 11.486 25.6 25.6a8.53 8.53 0 0 0 8.533 8.533H460.8c4.71 0 8.533 3.831 8.533 8.533s-3.823 8.533-8.533 8.533h-85.333c-4.719 0-8.533 3.823-8.533 8.533s3.814 8.533 8.533 8.533H460.8c14.114 0 25.6-11.486 25.6-25.6S474.914 204.8 460.8 204.8zM187.733 324.267a8.536 8.536 0 0 0-8.533 8.533v170.667c0 4.71 3.823 8.533 8.533 8.533s8.533-3.823 8.533-8.533V332.8c.001-4.71-3.822-8.533-8.533-8.533zM85.333 409.6a8.536 8.536 0 0 0-8.533 8.533v85.333c0 4.71 3.823 8.533 8.533 8.533s8.533-3.823 8.533-8.533v-85.333c.001-4.71-3.822-8.533-8.533-8.533z"/><path d="M136.533 375.467h-102.4A8.536 8.536 0 0 0 25.6 384v119.467A8.536 8.536 0 0 0 34.133 512a8.536 8.536 0 0 0 8.533-8.533V392.533H128v110.933c0 4.71 3.823 8.533 8.533 8.533s8.533-3.823 8.533-8.533V384c.001-4.71-3.822-8.533-8.533-8.533zm0-51.2A8.536 8.536 0 0 0 128 332.8v17.067c0 4.71 3.823 8.533 8.533 8.533s8.533-3.823 8.533-8.533V332.8c.001-4.71-3.822-8.533-8.533-8.533z"/></svg>