<svg xmlns="http://www.w3.org/2000/svg" viewBox="0 0 512 512"><path d="M267.477 377.446a8.51 8.51 0 0 0-10.914 5.171c-1.57 4.437.742 9.327 5.18 10.906a17.017 17.017 0 0 1 10.291 10.206 8.545 8.545 0 0 0 8.013 5.606c.981 0 1.971-.171 2.935-.529a8.534 8.534 0 0 0 5.086-10.94c-3.507-9.565-11.008-17.006-20.591-20.42zM63.531 100.966c12.186 8.124 21.803 14.532 21.803 44.1 0 4.71 3.814 8.533 8.533 8.533s8.533-3.823 8.533-8.533c0-38.699-15.616-49.109-29.397-58.3C62.089 79.497 53.231 73.591 51.507 51.2H128a8.53 8.53 0 0 0 8.533-8.533c0-14.114 11.486-25.6 25.6-25.6h187.733c14.114 0 25.6 11.486 25.6 25.6a8.53 8.53 0 0 0 8.533 8.533h76.493c-1.724 22.391-10.581 28.297-21.495 35.567-13.781 9.19-29.397 19.601-29.397 58.3a8.53 8.53 0 0 0 8.533 8.533 8.53 8.53 0 0 0 8.533-8.533c0-29.568 9.617-35.977 21.803-44.1 13.781-9.19 29.397-19.601 29.397-58.3a8.53 8.53 0 0 0-8.533-8.533h-77.67C387.712 14.686 370.466 0 349.867 0H162.133c-20.599 0-37.845 14.686-41.796 34.133h-77.67a8.53 8.53 0 0 0-8.533 8.533c-.001 38.699 15.615 49.11 29.397 58.3z"/><path d="M256 341.333c-37.641 0-68.267 30.626-68.267 68.267 0 37.641 30.626 68.267 68.267 68.267 37.641 0 68.267-30.626 68.267-68.267 0-37.641-30.626-68.267-68.267-68.267zm0 119.467c-28.237 0-51.2-22.963-51.2-51.2 0-28.237 22.963-51.2 51.2-51.2 28.237 0 51.2 22.963 51.2 51.2 0 28.237-22.963 51.2-51.2 51.2zm11.477-236.954a8.51 8.51 0 0 0-10.914 5.171c-1.57 4.437.742 9.327 5.18 10.906a17.017 17.017 0 0 1 10.291 10.206 8.545 8.545 0 0 0 8.013 5.606c.981 0 1.971-.171 2.935-.529a8.534 8.534 0 0 0 5.086-10.94c-3.507-9.565-11.008-17.006-20.591-20.42z"/><path d="M256 187.733c-37.641 0-68.267 30.626-68.267 68.267 0 37.641 30.626 68.267 68.267 68.267 37.641 0 68.267-30.626 68.267-68.267 0-37.641-30.626-68.267-68.267-68.267zm0 119.467c-28.237 0-51.2-22.963-51.2-51.2s22.963-51.2 51.2-51.2c28.237 0 51.2 22.963 51.2 51.2s-22.963 51.2-51.2 51.2zm213.333-119.467h-76.8V76.8c0-4.71-3.814-8.533-8.533-8.533s-8.533 3.823-8.533 8.533v119.467A8.53 8.53 0 0 0 384 204.8h76.493c-1.724 22.391-10.581 28.297-21.495 35.567-13.781 9.19-29.397 19.601-29.397 58.3a8.53 8.53 0 0 0 8.533 8.533 8.53 8.53 0 0 0 8.533-8.533c0-29.568 9.617-35.977 21.803-44.1 13.781-9.19 29.397-19.601 29.397-58.3a8.532 8.532 0 0 0-8.534-8.534zM267.477 70.246a8.524 8.524 0 0 0-10.914 5.171c-1.57 4.437.742 9.327 5.18 10.906a17.017 17.017 0 0 1 10.291 10.206 8.545 8.545 0 0 0 8.013 5.606c.981 0 1.971-.171 2.935-.529 4.429-1.621 6.699-6.519 5.086-10.948-3.507-9.557-11.008-16.998-20.591-20.412z"/><path d="M469.333 341.333h-76.8V230.4c0-4.71-3.814-8.533-8.533-8.533s-8.533 3.823-8.533 8.533v119.467A8.53 8.53 0 0 0 384 358.4h76.493c-1.724 22.391-10.581 28.297-21.495 35.567-13.781 9.19-29.397 19.601-29.397 58.3a8.53 8.53 0 0 0 8.533 8.533 8.53 8.53 0 0 0 8.533-8.533c0-29.568 9.617-35.977 21.803-44.1 13.781-9.19 29.397-19.601 29.397-58.3a8.532 8.532 0 0 0-8.534-8.534zm-396.33 52.634c-10.914-7.27-19.772-13.175-21.495-35.567H128a8.53 8.53 0 0 0 8.533-8.533V230.4c0-4.71-3.814-8.533-8.533-8.533s-8.533 3.823-8.533 8.533v110.933h-76.8a8.53 8.53 0 0 0-8.533 8.533c0 38.699 15.616 49.109 29.397 58.3 12.186 8.124 21.803 14.532 21.803 44.1 0 4.71 3.814 8.533 8.533 8.533s8.533-3.823 8.533-8.533c0-38.698-15.616-49.109-29.397-58.299z"/><path d="M384 375.467a8.53 8.53 0 0 0-8.533 8.533v85.333c0 14.114-11.486 25.6-25.6 25.6H162.133c-14.114 0-25.6-11.486-25.6-25.6V384c0-4.71-3.814-8.533-8.533-8.533s-8.533 3.823-8.533 8.533v85.333c0 23.526 19.14 42.667 42.667 42.667h187.733c23.526 0 42.667-19.14 42.667-42.667V384a8.532 8.532 0 0 0-8.534-8.533zM63.531 254.566c12.186 8.124 21.803 14.532 21.803 44.1 0 4.71 3.814 8.533 8.533 8.533s8.533-3.823 8.533-8.533c0-38.699-15.616-49.109-29.397-58.3-10.914-7.27-19.772-13.175-21.495-35.567H128a8.53 8.53 0 0 0 8.533-8.533V76.8c0-4.71-3.814-8.533-8.533-8.533s-8.533 3.823-8.533 8.533v110.933h-76.8a8.53 8.53 0 0 0-8.533 8.533c-.001 38.699 15.615 49.11 29.397 58.3zM256 34.133c-37.641 0-68.267 30.626-68.267 68.267 0 37.641 30.626 68.267 68.267 68.267 37.641 0 68.267-30.626 68.267-68.267 0-37.641-30.626-68.267-68.267-68.267zm0 119.467c-28.237 0-51.2-22.963-51.2-51.2 0-28.237 22.963-51.2 51.2-51.2 28.237 0 51.2 22.963 51.2 51.2 0 28.237-22.963 51.2-51.2 51.2z"/></svg>