<svg xmlns="http://www.w3.org/2000/svg" viewBox="0 0 512 512"><path d="M332.8 460.8h-17.067c-4.71 0-8.533 3.823-8.533 8.533s3.823 8.533 8.533 8.533H332.8c4.71 0 8.533-3.823 8.533-8.533s-3.823-8.533-8.533-8.533zm-68.267 0H179.2c-4.71 0-8.533 3.823-8.533 8.533s3.823 8.533 8.533 8.533h85.333c4.71 0 8.533-3.823 8.533-8.533s-3.822-8.533-8.533-8.533zM128 460.8H8.533c-4.71 0-8.533 3.823-8.533 8.533s3.823 8.533 8.533 8.533H128c4.71 0 8.533-3.823 8.533-8.533S132.71 460.8 128 460.8zm372.966-210.833l-23.39-23.39L469.333 128c0-23.526-19.14-42.667-42.667-42.667h-59.733c-4.71 0-8.533 3.823-8.533 8.533s3.823 8.533 8.533 8.533h59.733c13.875 0 25.6 11.725 25.626 26.308l7.765 93.158H431.94l10.889-21.786c2.116-4.215.401-9.335-3.814-11.443a8.527 8.527 0 0 0-11.452 3.814l-14.703 29.414h-45.926a8.536 8.536 0 0 0-8.533 8.533 8.536 8.536 0 0 0 8.533 8.533h98.867l23.1 23.1c4.864 4.864 6.016 16.051 6.033 19.567v8.533H486.4c-4.71 0-8.533 3.823-8.533 8.533s3.823 8.533 8.533 8.533h8.533v68.267h-17.749c-4.156-28.902-29.013-51.2-59.051-51.2-32.939 0-59.733 26.795-59.733 59.733s26.795 59.733 59.733 59.733c30.037 0 54.895-22.298 59.051-51.2h26.283a8.536 8.536 0 0 0 8.533-8.533V281.6c0-2.108-.307-20.915-11.034-31.633zm-82.833 176.7c-23.526 0-42.667-19.14-42.667-42.667s19.14-42.667 42.667-42.667c23.526 0 42.667 19.14 42.667 42.667s-19.14 42.667-42.667 42.667zM128 358.4c-14.114 0-25.6 11.486-25.6 25.6s11.486 25.6 25.6 25.6 25.6-11.486 25.6-25.6-11.486-25.6-25.6-25.6zm0 34.133c-4.702 0-8.533-3.831-8.533-8.533s3.831-8.533 8.533-8.533 8.533 3.831 8.533 8.533-3.831 8.533-8.533 8.533zM503.467 460.8H366.933c-4.71 0-8.533 3.823-8.533 8.533s3.823 8.533 8.533 8.533h136.533c4.71 0 8.533-3.823 8.533-8.533s-3.822-8.533-8.532-8.533z"/><path d="M418.133 358.4c-14.114 0-25.6 11.486-25.6 25.6s11.486 25.6 25.6 25.6 25.6-11.486 25.6-25.6-11.486-25.6-25.6-25.6zm0 34.133c-4.702 0-8.533-3.831-8.533-8.533s3.831-8.533 8.533-8.533 8.533 3.831 8.533 8.533-3.831 8.533-8.533 8.533zM332.8 34.133H42.667C19.14 34.133 0 53.274 0 76.8v273.067c0 23.927 18.739 42.667 42.667 42.667 4.71 0 8.533-3.823 8.533-8.533s-3.823-8.533-8.533-8.533c-14.353 0-25.6-11.247-25.6-25.6V76.8c0-14.114 11.486-25.6 25.6-25.6h281.6v238.933h-281.6c-4.71 0-8.533 3.823-8.533 8.533s3.823 8.533 8.533 8.533h281.6v68.267H187.051c-4.156-28.902-29.022-51.2-59.051-51.2-32.939 0-59.733 26.795-59.733 59.733S95.061 443.733 128 443.733c30.029 0 54.895-22.298 59.051-51.2H332.8a8.536 8.536 0 0 0 8.533-8.533V42.667c0-4.711-3.823-8.534-8.533-8.534zM128 426.667c-23.526 0-42.667-19.14-42.667-42.667s19.14-42.667 42.667-42.667c23.526 0 42.667 19.14 42.667 42.667S151.526 426.667 128 426.667z"/></svg>