<svg xmlns="http://www.w3.org/2000/svg" viewBox="0 0 32 32"><path d="M28.841 12.335c-.146-1.048-.718-2.037-1.649-2.519.654-.082 1.147-.805.985-1.443a3.396 3.396 0 0 1-3.079 1.466c.52-.389.886-.959 1.007-1.614l.002-.016-.872-.08c.382-.159.585-.603.54-1.007.06-.134.103-.276.114-.434.027-.37-.197-.748-.567-.83-.214-.047-.305.282-.091.329.243.053.319.259.309.475l-1.261 1.674-.139-.836a1.245 1.245 0 0 1 .819-.242h-.003c.22.013.219-.329 0-.341a1.602 1.602 0 0 0-1.489.85C21.946 2.728 20.049.824 13.832.066c.869 0-2.564-.315-3.573.426-1.297.736-2.862.719-3.092 2.192-.094.599.107 1.178-.312 1.617s-.968.833-1.072 1.43c-.077.443.119.885.153 1.334.122 1.577-4.359 2.08-2.463 3.68.351.296.591.489.75.627.023.216.026.678-.313.894-.452.287.589.474.589.474.013.024-.062.214-.048.241l-.26.131a.917.917 0 0 0-.275.172.224.224 0 0 0-.028.336c.058.737-.18 1.298-.012 2.061.171.779 1.106 1.111 1.902 1.137s1.652-.101 2.344.294c1.338.765 1.092 2.775 1.865 4.107.286.493.722.901.917 1.437.585 1.601-1.192 3.029-2.76 3.698s-3.488 1.597-3.492 3.301c-.003 1.443 1.574 2.485 3.016 2.431s2.728-.885 3.897-1.73c2.502-1.809 5.038-3.902 8.107-4.234a13.665 13.665 0 0 1-1.043-4.366l-.003-.046c.118.346.648.183.91-.072a4.37 4.37 0 0 0 1.268-2.479c-.043.716.313 1.452.917 1.844l-.002-.02a.4.4 0 0 0 .212.118c.171.032.351.048.524.024.367-.054.605-.277.613-.657.004-.22-.337-.22-.341 0-.008.386-.442.344-.704.304-.198-.03-.342-.455-.415-.711l-.122-1.001c.012-.294.058-.588.113-.876l.55.083c.041.264.05.536.097.796.103.564.631 1.15 1.248.937.207-.072.118-.402-.091-.329-.174.06-.312.049-.423-.01a3.122 3.122 0 0 0-.334-2.155c.383.204.832.309 1.265.304.901-.01 1.752-.392 2.571-.766a2.81 2.81 0 0 0 .058-2.128c1.071-.227 1.762-1.531 1.351-2.545s-1.814-1.468-2.742-.888a1.274 1.274 0 0 1 1.134-.597 2.139 2.139 0 0 0-1.14-.592l-.013-.002c1.307-.105 2.603.653 3.272 1.767.303.808.341 1.796-.544 2.21-.2.093-.026.387.172.294.904-.422 1.022-1.362.809-2.229z"/></svg>