<svg xmlns="http://www.w3.org/2000/svg" viewBox="0 0 512 512"><path d="M464.271 451.254c-5.207 0-8.678 3.471-8.678 8.678 0 5.207 3.471 8.678 8.678 8.678 5.207 0 8.678-3.471 8.678-8.678 0-5.207-3.471-8.678-8.678-8.678zm34.712-373.152c-5.207 0-8.678 3.471-8.678 8.678s3.471 8.678 8.678 8.678c5.207 0 8.678-3.471 8.678-8.678s-3.471-8.678-8.678-8.678zM65.085 485.966c-5.207 0-8.678 3.471-8.678 8.678 0 5.207 3.471 8.678 8.678 8.678 5.207 0 8.678-3.471 8.678-8.678 0-5.207-3.472-8.678-8.678-8.678zM455.593 78.102c0-33.844-26.902-60.746-60.746-60.746-19.744 0-37.113 9.165-48.169 23.514-25.973-9.656-53.984-14.836-82.001-14.836-129.302 0-234.305 105.003-234.305 234.305s105.003 234.305 234.305 234.305c16.453 0 32.262-1.937 48.536-5.249 7.264 13.56 21.52 22.604 38.243 22.604 24.298 0 43.39-19.092 43.39-43.39a44.58 44.58 0 0 0-1.765-12.464c66.627-43.078 105.901-115.76 105.901-195.807 0-54.159-19.209-106.711-53-149.22 6.084-9.474 9.611-20.787 9.611-33.016zm-60.746-43.39c24.298 0 43.39 19.092 43.39 43.39 0 8.937-2.59 17.164-7.065 24.002l-3.349 3.768c-5.394 6.473-11.796 10.931-18.993 13.381a29.74 29.74 0 0 1-.276.092c-.448.149-.903.281-1.358.415-.407.117-.813.235-1.225.341-.156.041-.314.076-.47.115a44.333 44.333 0 0 1-6.16 1.057l-.045.003a47.084 47.084 0 0 1-4.45.217c-24.298 0-43.39-19.091-43.39-43.39.002-24.3 19.093-43.391 43.391-43.391zm-43.389 459.932c-9.985 0-18.374-5.172-22.757-13.086l-1.541-5.138c-.868-2.603-1.736-5.207-1.736-7.81 0-4.61 1.102-8.881 3.067-12.575a25.348 25.348 0 0 1 3.565-5.078 25.16 25.16 0 0 1 5.736-4.699 25.692 25.692 0 0 1 5.785-2.544 27.354 27.354 0 0 1 9.505-1.087c.284.016.567.037.848.061.161.013.321.03.481.046 13.278 1.394 23.082 12.125 23.082 25.876-.001 14.753-11.283 26.034-26.035 26.034zm33.346-54.055c-7.904-9.443-19.815-15.369-33.346-15.369-24.298 0-43.39 19.092-43.39 43.39v4.339c-13.885 2.603-28.637 4.339-43.39 4.339-43.375 0-83.784-12.758-117.693-34.712h126.371c5.207 0 8.678-3.471 8.678-8.678s-3.471-8.678-8.678-8.678H125.83c-.661 0-1.294.057-1.896.166a218.505 218.505 0 0 1-25.907-26.199h105.036c5.207 0 8.678-3.471 8.678-8.678s-3.471-8.678-8.678-8.678H84.949c-17.324-25.568-29.326-55.026-34.44-86.78h29.328c5.207 0 8.678-3.471 8.678-8.678s-3.471-8.678-8.678-8.678H48.422c-.454-5.727-.693-11.513-.693-17.356s.239-11.629.693-17.356h86.087c5.207 0 8.678-3.471 8.678-8.678 0-5.207-3.471-8.678-8.678-8.678H50.51a215.413 215.413 0 0 1 5.863-26.035l.034.001h162.278c4.339 0 8.678-3.471 8.678-8.678 0-5.207-3.471-8.678-8.678-8.678H62.244c13.108-33.923 34.498-63.731 61.691-86.945a10.72 10.72 0 0 0 1.896.166h109.342c5.207 0 8.678-3.471 8.678-8.678s-3.471-8.678-8.678-8.678h-88.188c33.909-21.954 74.318-34.712 117.693-34.712 25.036 0 50.07 4.298 73.397 12.886-2.561 6.759-3.973 14.108-3.973 21.826h-43.39c-5.207 0-8.678 3.471-8.678 8.678s3.471 8.678 8.678 8.678h45.866c7.372 25.236 30.472 43.39 58.269 43.39.983 0 1.958-.027 2.925-.073.465-.021.924-.061 1.386-.092.465-.033.931-.061 1.392-.104a61.13 61.13 0 0 0 2.069-.231c.163-.021.327-.039.489-.061 10.58-1.406 20.255-5.464 28.334-11.517a76.95 76.95 0 0 0 2.455-1.807c14.205 17.361 25.348 36.7 33.29 57.275H275.959c-5.207 0-8.678 3.471-8.678 8.678 0 5.207 3.471 8.678 8.678 8.678h196.99c.031 0 .06-.004.091-.004 5.674 19.561 8.586 40.001 8.586 60.75 0 5.834-.254 11.619-.704 17.356h-103.43c-5.207 0-8.678 3.471-8.678 8.678 0 5.207 3.471 8.678 8.678 8.678H478.88c-5.023 31.501-16.84 61.002-34.376 86.78H257.736c-5.207 0-8.678 3.471-8.678 8.678s3.471 8.678 8.678 8.678h173.616c-13.251 15.752-28.857 29.724-46.548 41.401zM39.051 78.102c0 5.207 3.471 8.678 8.678 8.678s8.678-3.471 8.678-8.678c0-14.753 11.281-26.034 26.034-26.034 5.207 0 8.678-3.471 8.678-8.678s-3.471-8.678-8.678-8.678c-14.753 0-26.034-11.281-26.034-26.034C56.407 3.471 52.936 0 47.729 0s-8.678 3.471-8.678 8.678c0 14.753-11.281 26.034-26.034 26.034-5.207 0-8.678 3.471-8.678 8.678s3.471 8.678 8.678 8.678c14.752 0 26.034 11.281 26.034 26.034zm8.678-43.39c2.603 3.471 5.207 6.075 8.678 8.678-3.471 2.603-6.075 5.207-8.678 8.678-2.603-3.471-5.207-6.075-8.678-8.678 3.471-2.604 6.074-5.207 8.678-8.678z"/><path d="M316.746 286.373c0-5.207-3.471-8.678-8.678-8.678H143.186c-5.207 0-8.678 3.471-8.678 8.678 0 5.207 3.471 8.678 8.678 8.678h164.881c5.208 0 8.679-3.471 8.679-8.678zm69.423 52.068c0-5.207-3.471-8.678-8.678-8.678H195.254c-5.207 0-8.678 3.471-8.678 8.678s3.471 8.678 8.678 8.678h182.237c5.207 0 8.678-3.472 8.678-8.678zM212.61 242.983h86.78c5.207 0 8.678-3.471 8.678-8.678 0-5.207-3.471-8.678-8.678-8.678h-86.78c-5.207 0-8.678 3.471-8.678 8.678 0 5.207 3.471 8.678 8.678 8.678zm86.78-104.136c0-5.207-3.471-8.678-8.678-8.678h-86.78c-5.207 0-8.678 3.471-8.678 8.678s3.471 8.678 8.678 8.678h86.78c5.207 0 8.678-3.471 8.678-8.678z"/></svg>