<svg xmlns="http://www.w3.org/2000/svg" viewBox="0 0 512.853 512.853"><path d="M482.168 308.009l-38.474-46.169c-1.636-98.979-80.859-179.955-179.16-184.41V51.627h8.533l8.533-8.533V8.96L273.067.427h-34.133L230.4 8.96v34.133l8.533 8.533h8.533V77.43c-98.014 4.442-177.068 84.958-179.149 183.543l-39.461 47.353C12.512 311.624 0 326.227 0 343.467v23.893c0 5.12 3.413 8.533 8.533 8.533H141.76l-47.04 125.44c-.853 2.56-.853 5.12.853 7.68 1.707 1.707 4.267 3.413 6.827 3.413h307.2c2.56 0 5.12-1.707 6.827-3.413s1.707-5.12.853-7.68l-47.04-125.44h133.227c5.12 0 8.533-3.413 9.387-8.533v-23.893c-.001-17.878-13.455-32.918-30.686-35.458zM247.467 17.493h17.067V34.56h-17.067V17.493zm-136.534 256h34.133v34.133h-34.133v-34.133zm51.2 0h34.133v34.133h-34.133v-34.133zm51.2 0h34.133v34.133h-34.133v-34.133zm51.2 0h34.133v34.133h-34.133v-34.133zm51.2 0h34.133v34.133h-34.133v-34.133zm51.2 0h34.133v34.133h-34.133v-34.133zm51.2 0h12.8l28.16 34.133h-40.96v-34.133zM256 94.293c91.307 0 166.4 71.68 170.667 162.133H85.334C89.6 165.973 164.693 94.293 256 94.293zm-174.933 179.2h12.8v34.133H52.053l29.014-34.133zM396.8 495.36H114.347l45.227-119.467h192.853L396.8 495.36zm98.133-136.533H17.067v-15.36c0-10.24 8.533-18.773 18.773-18.773h440.321c10.24 0 18.773 8.533 18.773 18.773v15.36z"/><path d="M256 418.56c5.12 0 8.533-3.413 8.533-8.533s-3.413-8.533-8.533-8.533-8.533 3.413-8.533 8.533 3.413 8.533 8.533 8.533zm0 51.2c5.12 0 8.533-3.413 8.533-8.533V444.16c0-5.12-3.413-8.533-8.533-8.533s-8.533 3.413-8.533 8.533v17.067c0 5.12 3.413 8.533 8.533 8.533zm68.267-51.2c5.12 0 8.533-3.413 8.533-8.533s-3.413-8.533-8.533-8.533-8.533 3.413-8.533 8.533 3.413 8.533 8.533 8.533zm0 51.2c5.12 0 8.533-3.413 8.533-8.533V444.16c0-5.12-3.413-8.533-8.533-8.533s-8.533 3.413-8.533 8.533v17.067c-.001 5.12 3.413 8.533 8.533 8.533zm-136.534-51.2c5.12 0 8.533-3.413 8.533-8.533s-3.413-8.533-8.533-8.533-8.533 3.413-8.533 8.533 3.413 8.533 8.533 8.533zm0 51.2c5.12 0 8.533-3.413 8.533-8.533V444.16c0-5.12-3.413-8.533-8.533-8.533s-8.533 3.413-8.533 8.533v17.067c0 5.12 3.413 8.533 8.533 8.533zm-17.066-264.533c5.12 0 8.533-3.413 8.533-8.533 0-23.893 18.773-42.667 42.667-42.667 5.12 0 8.533-3.413 8.533-8.533 0-5.12-3.413-8.533-8.533-8.533-33.28 0-59.733 26.453-59.733 59.733-.001 5.119 3.413 8.533 8.533 8.533z"/></svg>