<svg xmlns="http://www.w3.org/2000/svg" viewBox="0 0 512 512"><path d="M477.867 238.933h-.385c-3.507-39.373-31.054-71.552-67.974-81.859C406.812 74.912 338.786 8.533 256 8.533S105.188 74.912 102.493 157.074c-36.92 10.308-64.467 42.487-67.974 81.859h-.385C15.36 238.933 0 254.293 0 273.067 0 291.84 15.36 307.2 34.133 307.2h.385c4.277 48.014 44.306 85.333 93.481 85.333h256c49.175 0 89.204-37.319 93.481-85.333h.385c18.773 0 34.133-15.36 34.133-34.133.002-18.774-15.358-34.134-34.131-34.134zm-358.4-85.333c4.267-71.68 64-128 136.533-128s132.267 56.32 136.533 128H119.467zM128 170.667h256.853c39.253 0 71.68 29.867 75.947 68.267H52.053c4.267-38.401 36.694-68.267 75.947-68.267zm256 204.8H128c-39.253 0-71.68-29.867-75.947-68.267h407.893c-4.266 38.4-36.693 68.267-75.946 68.267zm93.867-85.334H34.133c-9.387 0-17.067-7.68-17.067-17.067s7.68-17.067 17.067-17.067h443.733c9.387 0 17.067 7.68 17.067 17.067s-7.68 17.067-17.066 17.067zM256 443.733c-5.12 0-8.533 3.413-8.533 8.533S250.88 460.8 256 460.8s8.533-3.413 8.533-8.533-3.413-8.534-8.533-8.534zm0-42.666c-5.12 0-8.533 3.413-8.533 8.533v8.533c0 5.12 3.413 8.533 8.533 8.533s8.533-3.413 8.533-8.533V409.6c0-5.12-3.413-8.533-8.533-8.533zm0 76.8c-5.12 0-8.533 3.413-8.533 8.533v8.533c0 5.12 3.413 8.533 8.533 8.533s8.533-3.413 8.533-8.533V486.4c0-5.12-3.413-8.533-8.533-8.533zm51.2-68.267c-5.12 0-8.533 3.413-8.533 8.533v8.533c0 5.12 3.413 8.533 8.533 8.533s8.533-3.413 8.533-8.533v-8.533c0-5.12-3.413-8.533-8.533-8.533zm0 42.667c-5.12 0-8.533 3.413-8.533 8.533v17.067c0 5.12 3.413 8.533 8.533 8.533s8.533-3.413 8.533-8.533V460.8c0-5.12-3.413-8.533-8.533-8.533zM204.8 460.8c-5.12 0-8.533 3.413-8.533 8.533V486.4c0 5.12 3.413 8.533 8.533 8.533 5.12 0 8.533-3.413 8.533-8.533v-17.067c0-5.12-3.413-8.533-8.533-8.533zm0-51.2c-5.12 0-8.533 3.413-8.533 8.533V435.2c0 5.12 3.413 8.533 8.533 8.533 5.12 0 8.533-3.413 8.533-8.533v-17.067c0-5.12-3.413-8.533-8.533-8.533z"/><path d="M128 349.867c5.12 0 8.533-3.413 8.533-8.533 0-5.12-3.413-8.533-8.533-8.533s-8.533 3.413-8.533 8.533c0 5.119 3.413 8.533 8.533 8.533zm42.667 0c5.12 0 8.533-3.413 8.533-8.533 0-5.12-3.413-8.533-8.533-8.533s-8.533 3.413-8.533 8.533c-.001 5.119 3.413 8.533 8.533 8.533zm42.666 0c5.12 0 8.533-3.413 8.533-8.533 0-5.12-3.413-8.533-8.533-8.533-5.12 0-8.533 3.413-8.533 8.533 0 5.119 3.413 8.533 8.533 8.533zm42.667 0c5.12 0 8.533-3.413 8.533-8.533 0-5.12-3.413-8.533-8.533-8.533s-8.533 3.413-8.533 8.533c0 5.119 3.413 8.533 8.533 8.533zm42.667 0c5.12 0 8.533-3.413 8.533-8.533 0-5.12-3.413-8.533-8.533-8.533s-8.533 3.413-8.533 8.533c-.001 5.119 3.413 8.533 8.533 8.533zm42.666 0c5.12 0 8.533-3.413 8.533-8.533 0-5.12-3.413-8.533-8.533-8.533-5.12 0-8.533 3.413-8.533 8.533 0 5.119 3.413 8.533 8.533 8.533zm42.667 0c5.12 0 8.533-3.413 8.533-8.533 0-5.12-3.413-8.533-8.533-8.533s-8.533 3.413-8.533 8.533c0 5.119 3.413 8.533 8.533 8.533zM128 204.8c-5.12 0-8.533 3.413-8.533 8.533 0 5.12 3.413 8.533 8.533 8.533s8.533-3.413 8.533-8.533c0-5.12-3.413-8.533-8.533-8.533zm42.667 0c-5.12 0-8.533 3.413-8.533 8.533 0 5.12 3.413 8.533 8.533 8.533s8.533-3.413 8.533-8.533c0-5.12-3.413-8.533-8.533-8.533zm42.666 0c-5.12 0-8.533 3.413-8.533 8.533 0 5.12 3.413 8.533 8.533 8.533 5.12 0 8.533-3.413 8.533-8.533.001-5.12-3.413-8.533-8.533-8.533zm42.667 0c-5.12 0-8.533 3.413-8.533 8.533 0 5.12 3.413 8.533 8.533 8.533s8.533-3.413 8.533-8.533c0-5.12-3.413-8.533-8.533-8.533zm42.667 0c-5.12 0-8.533 3.413-8.533 8.533 0 5.12 3.413 8.533 8.533 8.533s8.533-3.413 8.533-8.533c0-5.12-3.413-8.533-8.533-8.533zm42.666 0c-5.12 0-8.533 3.413-8.533 8.533 0 5.12 3.413 8.533 8.533 8.533 5.12 0 8.533-3.413 8.533-8.533.001-5.12-3.413-8.533-8.533-8.533zm42.667 0c-5.12 0-8.533 3.413-8.533 8.533 0 5.12 3.413 8.533 8.533 8.533s8.533-3.413 8.533-8.533c0-5.12-3.413-8.533-8.533-8.533zM230.4 59.733c-33.28 0-59.733 26.453-59.733 59.733 0 5.12 3.413 8.533 8.533 8.533s8.533-3.413 8.533-8.533c0-23.893 18.773-42.667 42.667-42.667 5.12 0 8.533-3.413 8.533-8.533s-3.413-8.533-8.533-8.533z"/></svg>