<svg xmlns="http://www.w3.org/2000/svg" viewBox="0 0 512 512"><path d="M179.2 119.467c5.12 0 8.533-3.413 8.533-8.533 0-23.893 18.773-42.667 42.667-42.667 5.12 0 8.533-3.413 8.533-8.533S235.52 51.2 230.4 51.2c-33.28 0-59.733 26.453-59.733 59.733 0 5.12 3.413 8.534 8.533 8.534z"/><path d="M409.6 190.283V153.6C409.6 69.12 340.48 0 256 0S102.4 69.12 102.4 153.6v36.683C43.891 202.105 0 253.677 0 315.733c0 5.12 3.413 8.533 8.533 8.533h94.469c3.171 22.687 18.82 41.054 39.923 48.092L94.72 500.907c-.853 2.56-.853 5.12.853 7.68C97.28 510.293 99.84 512 102.4 512h307.2c2.56 0 5.12-1.707 6.827-3.413s1.707-5.12.853-7.68l-48.206-128.548c21.103-7.038 36.752-25.405 39.923-48.092h94.469c5.12 0 8.533-3.413 8.533-8.533.001-62.057-43.89-113.629-102.399-125.451zM119.467 153.6c0-75.093 61.44-136.533 136.533-136.533S392.533 78.507 392.533 153.6v34.422a130.333 130.333 0 0 0-8.533-.288H128c-2.869 0-5.712.104-8.533.288V153.6zm232.96 221.867L396.8 494.933H114.347l45.227-119.467h192.853zm-2.56-17.067H162.133c-20.48 0-37.547-14.507-41.813-34.133h271.36c-4.267 19.626-21.333 34.133-41.813 34.133zm59.733-51.2H17.067C22.187 250.027 69.973 204.8 128 204.8h256c58.88 0 106.667 45.227 110.933 102.4H409.6z"/><path d="M256 418.133c5.12 0 8.533-3.413 8.533-8.533s-3.413-8.533-8.533-8.533-8.533 3.413-8.533 8.533 3.413 8.533 8.533 8.533zm0 51.2c5.12 0 8.533-3.413 8.533-8.533v-17.067c0-5.12-3.413-8.533-8.533-8.533s-8.533 3.413-8.533 8.533V460.8c0 5.12 3.413 8.533 8.533 8.533zm68.267-51.2c5.12 0 8.533-3.413 8.533-8.533s-3.413-8.533-8.533-8.533-8.533 3.413-8.533 8.533 3.413 8.533 8.533 8.533zm0 51.2c5.12 0 8.533-3.413 8.533-8.533v-17.067c0-5.12-3.413-8.533-8.533-8.533s-8.533 3.413-8.533 8.533V460.8c-.001 5.12 3.413 8.533 8.533 8.533zm-136.534-51.2c5.12 0 8.533-3.413 8.533-8.533s-3.413-8.533-8.533-8.533-8.533 3.413-8.533 8.533 3.413 8.533 8.533 8.533zm0 51.2c5.12 0 8.533-3.413 8.533-8.533v-17.067c0-5.12-3.413-8.533-8.533-8.533s-8.533 3.413-8.533 8.533V460.8c0 5.12 3.413 8.533 8.533 8.533zM128 221.867c-18.773 0-34.133 15.36-34.133 34.133 0 18.773 15.36 34.133 34.133 34.133 18.773 0 34.133-15.36 34.133-34.133 0-18.773-15.36-34.133-34.133-34.133zm0 51.2c-9.387 0-17.067-7.68-17.067-17.067s7.68-17.067 17.067-17.067 17.067 7.68 17.067 17.067-7.68 17.067-17.067 17.067zm119.467-51.2c-18.773 0-34.133 15.36-34.133 34.133 0 18.773 15.36 34.133 34.133 34.133S281.6 274.773 281.6 256c0-18.773-15.36-34.133-34.133-34.133zm0 51.2c-9.387 0-17.067-7.68-17.067-17.067s7.68-17.067 17.067-17.067 17.067 7.68 17.067 17.067-7.681 17.067-17.067 17.067zm119.466-51.2c-18.773 0-34.133 15.36-34.133 34.133 0 18.773 15.36 34.133 34.133 34.133s34.133-15.36 34.133-34.133c.001-18.773-15.359-34.133-34.133-34.133zm0 51.2c-9.387 0-17.067-7.68-17.067-17.067s7.68-17.067 17.067-17.067S384 246.613 384 256s-7.68 17.067-17.067 17.067z"/></svg>