<svg xmlns="http://www.w3.org/2000/svg" viewBox="0 0 512 512"><path d="M460.8 204.8h-17.808c-6.601-38.473-57.513-69.4-127.523-80.703-2.524-23.552-23.599-42.598-50.935-45.92V51.2h8.533l8.533-8.533V8.533L273.067 0h-34.133L230.4 8.533v34.133l8.533 8.533h8.533v26.977c-27.336 3.322-48.411 22.368-50.935 45.92C126.521 135.4 75.609 166.327 69.008 204.8H51.2C23.04 204.8 0 227.84 0 256c0 28.16 23.04 51.2 51.2 51.2h17.808c8.357 48.712 87.75 85.333 186.992 85.333s178.634-36.621 186.992-85.333H460.8c28.16 0 51.2-23.04 51.2-51.2 0-28.16-23.04-51.2-51.2-51.2zM247.467 17.067h17.067v17.067h-17.067V17.067zm8.533 76.8c20.343 0 38.153 11.789 41.736 27.837-13.393-1.463-27.354-2.237-41.736-2.237-14.382 0-28.343.774-41.736 2.237 3.583-16.048 21.393-27.837 41.736-27.837zm-58.905 47.541l.025.246 9.387-.853c32.427-4.267 67.413-4.267 99.84 0l8.533.853.005-.053c58.588 10.212 102.96 34.743 110.075 63.2H86.187c7.809-28.637 52.352-53.299 110.908-63.393zM256 375.467c-86.187 0-160.427-30.72-169.813-68.267h339.627c-10.241 37.547-83.627 68.267-169.814 68.267zm204.8-85.334H51.2c-18.773 0-34.133-15.36-34.133-34.133 0-18.773 15.36-34.133 34.133-34.133h409.6c18.773 0 34.133 15.36 34.133 34.133 0 18.773-15.36 34.133-34.133 34.133z"/><path d="M59.733 247.467c-5.12 0-8.533 3.413-8.533 8.533s3.413 8.533 8.533 8.533 8.533-3.413 8.533-8.533-3.413-8.533-8.533-8.533zm42.667 0c-5.12 0-8.533 3.413-8.533 8.533s3.413 8.533 8.533 8.533 8.533-3.413 8.533-8.533-3.413-8.533-8.533-8.533zm42.667 0c-5.12 0-8.533 3.413-8.533 8.533s3.413 8.533 8.533 8.533c5.12 0 8.533-3.413 8.533-8.533s-3.413-8.533-8.533-8.533zm42.666 0c-5.12 0-8.533 3.413-8.533 8.533s3.413 8.533 8.533 8.533 8.533-3.413 8.533-8.533-3.413-8.533-8.533-8.533zm42.667 0c-5.12 0-8.533 3.413-8.533 8.533s3.413 8.533 8.533 8.533 8.533-3.413 8.533-8.533-3.413-8.533-8.533-8.533zm42.667 0c-5.12 0-8.533 3.413-8.533 8.533s3.413 8.533 8.533 8.533c5.12 0 8.533-3.413 8.533-8.533s-3.413-8.533-8.533-8.533zm42.666 0c-5.12 0-8.533 3.413-8.533 8.533s3.413 8.533 8.533 8.533 8.533-3.413 8.533-8.533-3.413-8.533-8.533-8.533zm42.667 0c-5.12 0-8.533 3.413-8.533 8.533s3.413 8.533 8.533 8.533 8.533-3.413 8.533-8.533-3.413-8.533-8.533-8.533zm51.2 0c-5.12 0-8.533 3.413-8.533 8.533s3.413 8.533 8.533 8.533 8.533-3.413 8.533-8.533-3.413-8.533-8.533-8.533zm42.667 0c-5.12 0-8.533 3.413-8.533 8.533s3.413 8.533 8.533 8.533c5.12 0 8.533-3.413 8.533-8.533s-3.413-8.533-8.533-8.533zM256 452.267c-5.12 0-8.533 3.413-8.533 8.533 0 5.12 3.413 8.533 8.533 8.533s8.533-3.413 8.533-8.533c0-5.12-3.413-8.533-8.533-8.533zm0-42.667c-5.12 0-8.533 3.413-8.533 8.533v8.533c0 5.12 3.413 8.533 8.533 8.533s8.533-3.413 8.533-8.533v-8.533c0-5.12-3.413-8.533-8.533-8.533zm0 76.8c-5.12 0-8.533 3.413-8.533 8.533v8.533c0 5.12 3.413 8.533 8.533 8.533s8.533-3.413 8.533-8.533v-8.533c0-5.12-3.413-8.533-8.533-8.533zm51.2-76.8c-5.12 0-8.533 3.413-8.533 8.533v8.533c0 5.12 3.413 8.533 8.533 8.533s8.533-3.413 8.533-8.533v-8.533c0-5.12-3.413-8.533-8.533-8.533zm0 42.667c-5.12 0-8.533 3.413-8.533 8.533v25.6c0 5.12 3.413 8.533 8.533 8.533s8.533-3.413 8.533-8.533v-25.6c0-5.12-3.413-8.533-8.533-8.533zM204.8 460.8c-5.12 0-8.533 3.413-8.533 8.533v25.6c0 5.12 3.413 8.533 8.533 8.533 5.12 0 8.533-3.413 8.533-8.533v-25.6c0-5.12-3.413-8.533-8.533-8.533zm0-51.2c-5.12 0-8.533 3.413-8.533 8.533V435.2c0 5.12 3.413 8.533 8.533 8.533 5.12 0 8.533-3.413 8.533-8.533v-17.067c0-5.12-3.413-8.533-8.533-8.533z"/></svg>