<svg xmlns="http://www.w3.org/2000/svg" viewBox="0 0 512 512"><path d="M435.2 375.467c-5.12 0-8.533 3.413-8.533 8.533v85.333c0 5.12 3.413 8.533 8.533 8.533s8.533-3.413 8.533-8.533V384c0-5.12-3.413-8.533-8.533-8.533zM153.6 230.4c5.12 0 8.533-3.413 8.533-8.533V110.933c0-5.12-3.413-8.533-8.533-8.533-5.12 0-8.533 3.413-8.533 8.533v110.933c0 5.121 3.413 8.534 8.533 8.534zm204.8 0c5.12 0 8.533-3.413 8.533-8.533V110.933c0-5.12-3.413-8.533-8.533-8.533s-8.533 3.413-8.533 8.533v110.933c0 5.121 3.413 8.534 8.533 8.534zM93.867 392.533H59.733c-5.12 0-8.533 3.413-8.533 8.533v51.2c0 5.12 3.413 8.533 8.533 8.533h34.133c5.12 0 8.533-3.413 8.533-8.533v-51.2c.001-5.119-3.412-8.533-8.532-8.533zm-8.534 51.2H68.267V409.6h17.067v34.133zm76.8-51.2H128c-5.12 0-8.533 3.413-8.533 8.533v51.2c0 5.12 3.413 8.533 8.533 8.533h34.133c5.12 0 8.533-3.413 8.533-8.533v-51.2c.001-5.119-3.413-8.533-8.533-8.533zm-8.533 51.2h-17.067V409.6H153.6v34.133zm204.8-25.6c-5.12 0-8.533 3.413-8.533 8.533s3.413 8.533 8.533 8.533 8.533-3.413 8.533-8.533-3.413-8.533-8.533-8.533zm0 42.667c-5.12 0-8.533 3.413-8.533 8.533s3.413 8.533 8.533 8.533 8.533-3.413 8.533-8.533-3.413-8.533-8.533-8.533zm0-85.333c-5.12 0-8.533 3.413-8.533 8.533s3.413 8.533 8.533 8.533 8.533-3.413 8.533-8.533-3.413-8.533-8.533-8.533zM221.867 230.4c5.12 0 8.533-3.413 8.533-8.533s-3.413-8.533-8.533-8.533-8.533 3.413-8.533 8.533 3.413 8.533 8.533 8.533zM68.267 68.267c5.12 0 8.533-3.413 8.533-8.533S73.387 51.2 68.267 51.2s-8.533 3.413-8.533 8.533 3.413 8.534 8.533 8.534zm-51.2 119.466c5.12 0 8.533-3.413 8.533-8.533s-3.413-8.533-8.533-8.533-8.533 3.413-8.533 8.533 3.413 8.533 8.533 8.533zM256 213.333c-5.12 0-8.533 3.413-8.533 8.533S250.88 230.4 256 230.4s8.533-3.413 8.533-8.533-3.413-8.534-8.533-8.534zm34.133 0c-5.12 0-8.533 3.413-8.533 8.533s3.413 8.533 8.533 8.533 8.533-3.413 8.533-8.533-3.413-8.533-8.533-8.533zM256 187.733c23.893 0 42.667-18.773 42.667-42.667 0-23.893-18.773-42.667-42.667-42.667-23.893 0-42.667 18.773-42.667 42.667 0 23.894 18.774 42.667 42.667 42.667zm0-68.266c14.507 0 25.6 11.093 25.6 25.6 0 14.507-11.093 25.6-25.6 25.6-14.507 0-25.6-11.093-25.6-25.6 0-14.507 11.093-25.6 25.6-25.6z"/><path d="M503.467 494.933h-8.533v-195.8a7.262 7.262 0 0 0-.148-2.236c-.433-2.547-1.818-4.522-3.872-5.664l-30.156-30.156c-.882-53.009-22.026-103.435-59.69-140.802V85.333c0-2.56-.853-5.12-3.413-6.827l-68.267-51.2c-2.56-1.707-5.973-2.56-8.533-.853-3.413 1.707-5.12 4.267-5.12 7.68v32.258c-19.568-4.268-42.622-6.658-59.733-6.658-17.111 0-40.165 2.39-59.733 6.658V34.133c0-3.413-1.707-5.973-5.12-7.68-2.56-1.707-5.973-.853-8.533.853l-68.267 51.2c-2.56 1.707-3.413 4.267-3.413 6.827v34.942c-37.664 37.367-58.808 87.793-59.69 140.802L21.09 291.233c-2.509 1.395-4.02 4.034-4.02 7.434v196.267H8.533c-5.12 0-8.533 3.413-8.533 8.533S3.413 512 8.533 512h494.934c5.12 0 8.533-3.413 8.533-8.533s-3.413-8.534-8.533-8.534zM443.733 256h-42.667V145.067C427.52 176.64 442.027 215.04 443.733 256zM332.8 51.2L384 89.6V256h-51.2V51.2zM256 76.8c16.213 0 40.96 2.56 59.733 6.827V256H196.267V83.627C215.04 79.36 239.787 76.8 256 76.8zM128 89.6l51.2-38.4V256H128V89.6zm-17.067 55.467V256H68.267c1.706-40.96 17.066-79.36 42.666-110.933zm-47.786 128h385.707l17.067 17.067H46.08l17.067-17.067zM204.8 494.933V375.467h42.667v119.467H204.8zm59.733 0V375.467H307.2v119.467h-42.667zm59.734 0v-128c0-5.12-3.413-8.533-8.533-8.533H196.267c-5.12 0-8.533 3.413-8.533 8.533v128h-153.6V307.2h34.133v17.067c0 5.12 3.413 8.533 8.533 8.533s8.533-3.413 8.533-8.533V307.2h34.133v17.067c0 5.12 3.413 8.533 8.533 8.533s8.533-3.413 8.533-8.533V307.2h34.133v17.067c0 5.12 3.413 8.533 8.533 8.533s8.533-3.413 8.533-8.533V307.2h34.133v17.067c0 5.12 3.413 8.533 8.533 8.533s8.533-3.413 8.533-8.533V307.2h34.133v17.067c0 5.12 3.413 8.533 8.533 8.533s8.533-3.413 8.533-8.533V307.2h34.133v17.067c0 5.12 3.413 8.533 8.533 8.533 5.12 0 8.533-3.413 8.533-8.533V307.2h34.133v17.067c0 5.12 3.413 8.533 8.533 8.533s8.533-3.413 8.533-8.533V307.2h34.133v17.067c0 5.12 3.413 8.533 8.533 8.533s8.533-3.413 8.533-8.533V307.2h34.133v187.733H324.267zm93.866-435.2h13.653l20.48 20.48v13.653c0 5.12 3.413 8.533 8.533 8.533 5.12 0 8.533-3.413 8.533-8.533V80.213l20.48-20.48h13.653c5.12 0 8.533-3.413 8.533-8.533s-3.413-8.533-8.533-8.533h-13.653l-20.48-20.48V8.533c0-5.12-3.413-8.533-8.533-8.533-5.12 0-8.533 3.413-8.533 8.533v13.653l-20.48 20.48h-13.653c-5.12 0-8.533 3.413-8.533 8.533s3.413 8.534 8.533 8.534zM460.8 37.547L474.453 51.2 460.8 64.853 447.147 51.2 460.8 37.547z"/></svg>