<svg xmlns="http://www.w3.org/2000/svg" viewBox="0 0 512.883 512.883"><path d="M512.883 216.717c0-19.648-28.11-35.162-82.724-46.543C416.266 86.687 343.27 22.51 256 22.51c-87.338 0-160.381 64.277-174.191 147.859C27.803 181.733 0 197.181 0 216.717v35.31c0 30.14 64.635 46.671 134.775 54.876l-24.43 148.159c-1.766 8.828 1.766 17.655 7.062 24.717 5.297 7.062 14.124 10.593 22.952 10.593h231.283c9.71 0 18.538-3.531 23.834-10.593 5.297-7.062 7.945-15.89 6.179-24.717l-24.559-148.144C447.286 298.719 512 282.186 512 252.028V222.1c.531-1.749.847-3.54.883-5.383zM256 40.166c85.628 0 155.365 67.972 158.014 151.835l-36.193 9.71c-39.582 10.555-80.479 15.848-121.49 15.886a481.08 481.08 0 0 1-122.152-15.886L97.986 192c0-3.531 0-7.945.883-13.241l1.766-12.359-.34.073C115.286 94.769 179.256 40.166 256 40.166zM79.448 188.469v17.655l49.434 13.241c83.862 22.069 171.255 22.069 254.234 0l49.434-13.241v-17.655c50.317 11.476 61.793 23.834 61.793 28.248 0 15.007-82.097 44.138-238.345 44.138S17.655 231.724 17.655 216.717c0-4.414 11.476-16.772 61.793-28.248zM359.283 310.29L384 459.476c.883 3.531 0 7.062-2.648 9.71-2.648 2.648-6.179 4.414-9.71 4.414H139.476c-3.531 0-7.062-1.766-9.71-4.414-2.648-3.531-3.531-7.062-2.648-10.593l24.717-149.186c30.11 2.377 60.943 4.031 93.115 4.347 3.801.044 7.492.066 11.051.066 3.491 0 7.107-.021 10.831-.064 32.241-.302 63.067-1.878 92.451-3.466zm135.062-58.262c0 15.007-82.097 44.138-238.345 44.138-5.247 0-10.404-.035-15.484-.099-33.224-.423-65.038-2.256-94.861-6.08l-7.945-.883-.099.604c-79.033-9.454-119.956-27.085-119.956-37.679v-10.593c37.285 22.827 126.384 33.848 202.848 36.455l.403.013c1.472.05 2.938.096 4.4.139l1.131.033c1.26.036 2.516.07 3.768.101l1.19.03a1063.677 1063.677 0 0 0 9.421.185l1.27.018a960.881 960.881 0 0 0 19.739.081c1.066-.006 2.136-.014 3.211-.024l1.532-.015c1.111-.012 2.227-.026 3.346-.042l1.271-.018c1.558-.024 3.122-.05 4.696-.081l.113-.002c1.528-.03 3.065-.065 4.608-.102l1.2-.03c1.247-.031 2.497-.065 3.752-.101l1.149-.033c1.449-.043 2.902-.089 4.36-.138l.446-.015c3.447-.118 6.921-.253 10.413-.405l.062-.003c73.962-3.225 156.769-14.256 192.362-36.047v10.593z"/><path d="M256 384.441c-5.297 0-8.828 3.531-8.828 8.828 0 5.297 3.531 8.828 8.828 8.828s8.828-3.531 8.828-8.828c0-5.297-3.531-8.828-8.828-8.828zm-8.828-44.138v17.655c0 5.297 3.531 8.828 8.828 8.828s8.828-3.531 8.828-8.828v-17.655c0-5.297-3.531-8.828-8.828-8.828s-8.828 3.532-8.828 8.828zM256 419.752c-5.297 0-8.828 3.531-8.828 8.828v17.655c0 5.297 3.531 8.828 8.828 8.828s8.828-3.531 8.828-8.828V428.58c0-5.297-3.531-8.828-8.828-8.828zm70.621-17.655c5.297 0 8.828-3.531 8.828-8.828 0-5.297-3.531-8.828-8.828-8.828-5.297 0-8.828 3.531-8.828 8.828 0 5.297 3.531 8.828 8.828 8.828zm0-35.311c5.297 0 8.828-3.531 8.828-8.828v-17.655c0-5.297-3.531-8.828-8.828-8.828-5.297 0-8.828 3.531-8.828 8.828v17.655c0 5.297 3.531 8.828 8.828 8.828zm0 88.276c5.297 0 8.828-3.531 8.828-8.828v-17.655c0-5.297-3.531-8.828-8.828-8.828-5.297 0-8.828 3.531-8.828 8.828v17.655c0 5.297 3.531 8.828 8.828 8.828zm-141.242-70.621c-5.297 0-8.828 3.531-8.828 8.828 0 5.297 3.531 8.828 8.828 8.828 5.297 0 8.828-3.531 8.828-8.828 0-5.297-3.531-8.828-8.828-8.828zm0-52.965c-5.297 0-8.828 3.531-8.828 8.828v17.655c0 5.297 3.531 8.828 8.828 8.828 5.297 0 8.828-3.531 8.828-8.828v-17.655c0-5.297-3.531-8.828-8.828-8.828zm0 88.276c-5.297 0-8.828 3.531-8.828 8.828v17.655c0 5.297 3.531 8.828 8.828 8.828 5.297 0 8.828-3.531 8.828-8.828V428.58c0-5.297-3.531-8.828-8.828-8.828zm-17.655-256c5.297 0 8.828-3.531 8.828-8.828 0-34.428 27.366-61.793 61.793-61.793 5.297 0 8.828-3.531 8.828-8.828 0-5.297-3.531-8.828-8.828-8.828-44.138 0-79.448 35.31-79.448 79.448 0 5.298 3.531 8.829 8.827 8.829z"/></svg>