<svg xmlns="http://www.w3.org/2000/svg" viewBox="0 0 512.154 512.154"><path d="M505.925 243.06c-18.224-18.224-52.936-39.051-115.417-39.051h-2.512l-19.183-48.597c-9.546-23.43-31.241-38.183-56.407-38.183h-43.389V91.195h8.678l8.678-8.678V47.806l-8.678-8.678h-34.712l-8.678 8.678v34.712l8.678 8.678h8.678v26.034h-43.389c-25.166 0-46.861 14.753-56.407 38.183l-19.183 48.597h-2.512c-63.349 0-97.193 21.695-115.417 39.051-5.207 5.207-6.942 13.017-5.207 19.959s7.81 13.017 14.753 14.753l100.564 29.476 39.039 46.613-50.219 133.918c-.868 2.603-.868 5.207.868 7.81 1.736 1.736 4.339 3.471 6.942 3.471h277.695c2.603 0 5.207-1.736 6.942-3.471 1.736-1.736 1.736-5.207.868-7.81l-50.244-133.984 39.396-47.752 100.232-28.27c6.942-1.736 13.017-6.942 14.753-14.753 2.601-6.944-.003-14.754-5.21-19.961zM251.661 56.484h17.356V73.84h-17.356V56.484zm60.746 78.101c17.356 0 32.976 10.414 39.051 26.902l17.356 42.522h-50.188l-20.249-69.424h14.03zm-32.977 0l20.827 69.424h-80.705l20.827-69.424h39.051zm-111.077 26.902c6.075-16.488 22.563-26.902 39.919-26.902h14.753l-20.827 69.424h-50.332l16.487-42.522zm175.294 181.369H177.898l-28.828-34.712h223.215l-28.638 34.712zM133.641 481.704l45.993-121.492h161.41l45.125 121.492H133.641zm359.267-220.42l-103.689 29.505H132.327l-103.69-29.505c-1.736 0-2.603-1.736-2.603-2.603s0-2.603.868-3.471c15.62-15.62 45.993-33.844 103.268-33.844h260.338c57.275 0 87.647 18.224 104.136 33.844.868.868.868 2.603.868 3.471s-.868 1.735-2.604 2.603z"/><path d="M260.339 386.246c-5.207 0-8.678 3.471-8.678 8.678 0 5.207 3.471 8.678 8.678 8.678s8.678-3.471 8.678-8.678c0-5.207-3.471-8.678-8.678-8.678zm0 34.712c-5.207 0-8.678 3.471-8.678 8.678v17.356c0 5.207 3.471 8.678 8.678 8.678s8.678-3.471 8.678-8.678v-17.356c0-5.207-3.471-8.678-8.678-8.678zm69.424-34.712c-5.207 0-8.678 3.471-8.678 8.678 0 5.207 3.471 8.678 8.678 8.678 5.207 0 8.678-3.471 8.678-8.678 0-5.207-3.472-8.678-8.678-8.678zm0 34.712c-5.207 0-8.678 3.471-8.678 8.678v17.356c0 5.207 3.471 8.678 8.678 8.678 5.207 0 8.678-3.471 8.678-8.678v-17.356c0-5.207-3.472-8.678-8.678-8.678zm-138.848-34.712c-5.207 0-8.678 3.471-8.678 8.678 0 5.207 3.471 8.678 8.678 8.678 5.207 0 8.678-3.471 8.678-8.678 0-5.207-3.471-8.678-8.678-8.678zm-43.39-138.847c-5.207 0-8.678 3.471-8.678 8.678s3.471 8.678 8.678 8.678c5.207 0 8.678-3.471 8.678-8.678s-3.471-8.678-8.678-8.678zm43.39 0c-5.207 0-8.678 3.471-8.678 8.678s3.471 8.678 8.678 8.678c5.207 0 8.678-3.471 8.678-8.678s-3.471-8.678-8.678-8.678zm43.39 0c-5.207 0-8.678 3.471-8.678 8.678s3.471 8.678 8.678 8.678c5.207 0 8.678-3.471 8.678-8.678s-3.471-8.678-8.678-8.678zm43.39 0c-5.207 0-8.678 3.471-8.678 8.678s3.471 8.678 8.678 8.678c5.207 0 8.678-3.471 8.678-8.678s-3.471-8.678-8.678-8.678zm43.39 0c-5.207 0-8.678 3.471-8.678 8.678s3.471 8.678 8.678 8.678c5.207 0 8.678-3.471 8.678-8.678s-3.471-8.678-8.678-8.678zm43.39 0c-5.207 0-8.678 3.471-8.678 8.678s3.471 8.678 8.678 8.678c5.207 0 8.678-3.471 8.678-8.678s-3.472-8.678-8.678-8.678zm-173.56 173.559c-5.207 0-8.678 3.471-8.678 8.678v17.356c0 5.207 3.471 8.678 8.678 8.678 5.207 0 8.678-3.471 8.678-8.678v-17.356c0-5.207-3.471-8.678-8.678-8.678zM442.576 73.839c5.207 0 8.678-3.471 8.678-8.678 0-5.207-3.471-8.678-8.678-8.678-5.207 0-8.678 3.471-8.678 8.678 0 5.207 3.472 8.678 8.678 8.678zm52.068 277.695c-5.207 0-8.678 3.471-8.678 8.678 0 5.207 3.471 8.678 8.678 8.678 5.207 0 8.678-3.471 8.678-8.678 0-5.206-3.471-8.678-8.678-8.678zM8.678 446.992c-5.207 0-8.678 3.471-8.678 8.678 0 5.207 3.471 8.678 8.678 8.678s8.678-3.471 8.678-8.678c0-5.207-3.471-8.678-8.678-8.678zm0-373.153h13.885L43.39 94.667v13.885c0 5.207 3.471 8.678 8.678 8.678s8.678-3.471 8.678-8.678V94.667L81.573 73.84h13.885c5.207 0 8.678-3.471 8.678-8.678 0-5.207-3.471-8.678-8.678-8.678H81.573L60.746 35.656V21.772c0-5.207-3.471-8.678-8.678-8.678s-8.678 3.471-8.678 8.678v13.885L22.563 56.484H8.678C3.471 56.484 0 59.955 0 65.162c0 5.206 3.471 8.677 8.678 8.677zm43.39-22.562l13.885 13.885-13.885 13.884-13.885-13.884 13.885-13.885z"/></svg>