<svg xmlns="http://www.w3.org/2000/svg" viewBox="0 0 512 512"><path d="M418.133 196.267c-33.28 0-59.733 26.453-59.733 59.733s26.453 59.733 59.733 59.733S477.867 289.28 477.867 256s-26.454-59.733-59.734-59.733zM459.2 267.77c-1.481-2.035-3.905-3.236-6.933-3.236-5.12 0-8.533 3.413-8.533 8.533 0 5.12 3.413 8.533 8.533 8.533.071 0 .139-.008.209-.009a41.956 41.956 0 0 1-19.383 14.462c1.34-1.477 2.107-3.505 2.107-5.92 0-5.12-3.413-8.533-8.533-8.533s-8.533 3.413-8.533 8.533c0 4.121 2.214 7.132 5.746 8.152a44.707 44.707 0 0 1-5.746.381c-23.893 0-42.667-18.773-42.667-42.667 0-23.893 18.773-42.667 42.667-42.667 1.953 0 3.868.138 5.746.381-3.532 1.02-5.746 4.031-5.746 8.152 0 5.12 3.413 8.533 8.533 8.533s8.533-3.413 8.533-8.533c0-2.415-.767-4.444-2.107-5.92a41.962 41.962 0 0 1 19.383 14.462c-.071-.001-.138-.009-.209-.009-5.12 0-8.533 3.413-8.533 8.533s3.413 8.533 8.533 8.533c3.028 0 5.452-1.201 6.933-3.236 1.036 3.728 1.6 7.671 1.6 11.77s-.564 8.043-1.6 11.772z"/><path d="M426.667 247.467c-5.12 0-8.533 3.413-8.533 8.533s3.413 8.533 8.533 8.533S435.2 261.12 435.2 256s-3.413-8.533-8.533-8.533z"/><path d="M512 256a93.597 93.597 0 0 0-93.867-93.867H76.8c-18.773 0-34.133 15.36-34.133 34.133 0 18.773 15.36 34.133 34.133 34.133h76.8c14.507 0 25.6 11.093 25.6 25.6 0 14.507-11.093 25.6-25.6 25.6h-51.2c-18.773 0-34.133 15.36-34.133 34.133 0 18.773 15.36 34.133 34.133 34.133h315.733A93.594 93.594 0 0 0 512 256zm-93.867 76.8H102.4c-9.387 0-17.067-7.68-17.067-17.067s7.68-17.067 17.067-17.067h51.2c23.893 0 42.667-18.773 42.667-42.667 0-23.893-18.773-42.667-42.667-42.667H76.8c-9.387 0-17.067-7.68-17.067-17.067S67.413 179.2 76.8 179.2h341.333c42.667 0 76.8 34.133 76.8 76.8 0 42.667-34.133 76.8-76.8 76.8z"/><path d="M273.067 247.467c-5.12 0-8.533 3.413-8.533 8.533s3.413 8.533 8.533 8.533c5.12 0 8.533-3.413 8.533-8.533s-3.413-8.533-8.533-8.533zm-34.134 0h-17.067c-5.12 0-8.533 3.413-8.533 8.533s3.413 8.533 8.533 8.533h17.067c5.12 0 8.533-3.413 8.533-8.533s-3.413-8.533-8.533-8.533zm93.867 0h-25.6c-5.12 0-8.533 3.413-8.533 8.533s3.413 8.533 8.533 8.533h25.6c5.12 0 8.533-3.413 8.533-8.533s-3.413-8.533-8.533-8.533zm-128-25.6h68.267c5.12 0 8.533-3.413 8.533-8.533 0-5.12-3.413-8.533-8.533-8.533H204.8c-5.12 0-8.533 3.413-8.533 8.533 0 5.119 3.413 8.533 8.533 8.533zm102.4 0h17.067c5.12 0 8.533-3.413 8.533-8.533 0-5.12-3.413-8.533-8.533-8.533H307.2c-5.12 0-8.533 3.413-8.533 8.533 0 5.119 3.413 8.533 8.533 8.533zm17.067 68.266H256c-5.12 0-8.533 3.413-8.533 8.533S250.88 307.2 256 307.2h68.267c5.12 0 8.533-3.413 8.533-8.533s-3.413-8.534-8.533-8.534zm-102.4 0H204.8c-5.12 0-8.533 3.413-8.533 8.533s3.413 8.533 8.533 8.533h17.067c5.12 0 8.533-3.413 8.533-8.533s-3.413-8.533-8.533-8.533zM435.2 59.733c5.12 0 8.533-3.413 8.533-8.533s-3.413-8.533-8.533-8.533-8.533 3.413-8.533 8.533 3.413 8.533 8.533 8.533zM281.6 409.6c-5.12 0-8.533 3.413-8.533 8.533s3.413 8.533 8.533 8.533 8.533-3.413 8.533-8.533-3.413-8.533-8.533-8.533zM170.667 110.933c5.12 0 8.533-3.413 8.533-8.533s-3.413-8.533-8.533-8.533-8.533 3.413-8.533 8.533 3.413 8.533 8.533 8.533zM8.533 443.733c-5.12 0-8.533 3.413-8.533 8.533 0 5.12 3.413 8.533 8.533 8.533s8.533-3.413 8.533-8.533c.001-5.119-3.413-8.533-8.533-8.533zm0-384h13.653l20.48 20.48v13.653c0 5.12 3.413 8.533 8.533 8.533s8.533-3.413 8.533-8.533V80.213l20.48-20.48h13.653c5.12 0 8.533-3.413 8.533-8.533s-3.413-8.533-8.533-8.533H80.213l-20.48-20.48V8.533C59.733 3.413 56.32 0 51.2 0s-8.533 3.413-8.533 8.533v13.653l-20.48 20.48H8.533C3.413 42.667 0 46.08 0 51.2s3.413 8.533 8.533 8.533zM51.2 37.547L64.853 51.2 51.2 64.853 37.547 51.2 51.2 37.547zM503.467 460.8c-14.507 0-25.6-11.093-25.6-25.6 0-5.12-3.413-8.533-8.533-8.533s-8.533 3.413-8.533 8.533c0 14.507-11.093 25.6-25.6 25.6-5.12 0-8.533 3.413-8.533 8.533s3.413 8.533 8.533 8.533c14.507 0 25.6 11.093 25.6 25.6 0 5.12 3.413 8.533 8.533 8.533s8.533-3.413 8.533-8.533c0-14.507 11.093-25.6 25.6-25.6 5.12 0 8.533-3.413 8.533-8.533s-3.413-8.533-8.533-8.533zm-34.134 17.067c-2.56-3.413-5.12-5.973-8.533-8.533 3.413-2.56 5.973-5.12 8.533-8.533 2.56 3.413 5.12 5.973 8.533 8.533-3.413 2.559-5.973 5.119-8.533 8.533z"/></svg>