<svg xmlns="http://www.w3.org/2000/svg" viewBox="0 0 512 512"><path d="M512 256c0-60.719-21.438-116.666-57.1-160.678-3.383-4.752-8.06-9.504-12.02-14.255l-.853-.853c-8.533-9.387-18.773-17.92-29.013-26.453l-.853-.853c-5.12-4.267-10.24-7.68-15.36-11.093l-1.707-.853c-9.387-6.827-21.333-13.653-32.427-18.773l-2.56-.853c-5.12-2.56-11.093-5.12-17.067-6.827l-3.413-.853c-11.093-4.267-23.04-6.827-35.84-9.387l-3.413-.853c-5.973-.853-12.8-1.707-18.773-2.56h-2.56c-5.504-.612-10.127-.783-14.507-.832V0h-17.067v.159C110.577 4.702 0 118.057 0 256s110.577 251.298 247.467 255.841V512h17.066v-.144c.408-.019.814-.037 1.228-.062a255.03 255.03 0 0 0 11.152-.66c1.616-.033 3.232-.232 4.848-.434.847-.086 1.688-.19 2.533-.284a26.992 26.992 0 0 1 2.426-.123c.997 0 1.995-.29 2.992-.533C414.731 493.127 512 385.377 512 256zM314.88 451.413l-5.973 37.547c-2.56.853-5.12.853-7.68 1.707l-4.267.853c-.251.084-.516.153-.782.222a237.914 237.914 0 0 1-31.644 3.191V359.254l18.773 15.36 17.067 23.893c1.707 1.707 4.267 3.413 6.827 3.413h48.64l-5.973 28.16-30.72 15.36c-1.708.853-4.268 3.413-4.268 5.973zm-67.413-109.226V358.4C194.56 353.28 153.6 309.76 153.6 256s40.96-98.133 93.867-102.4v34.69c-33.555 4.235-59.733 33.054-59.733 67.71s26.178 63.475 59.733 67.71v18.477zm0-136.534v100.693C223.573 302.08 204.8 281.6 204.8 256c0-25.6 18.773-46.08 42.667-50.347zm17.066-65.216c2.11-3.173 3.709-6.858 5.973-9.877.853-1.707 1.707-2.56 2.56-4.267 2.56 4.267 2.56 9.387 1.707 14.507-.853 2.56-2.56 9.387-8.533 11.093-.41 0-.825.195-1.707.21v-11.666zm0-81.372c3.078-.58 6.035-1.038 8.533-1.038 8.533 0 20.48-5.12 34.133-11.093 6.827-3.413 17.92-7.68 22.187-8.533 6.827 5.973 6.827 15.36 5.973 21.333-1.707 16.213-11.947 30.72-19.627 33.28-1.707.853-3.413.853-5.973-1.707-7.68-7.68-17.067-11.093-28.16-10.24-5.858.837-11.712 3.734-17.067 8.071V59.065zm7.747-41.599c1.969.328 3.938.815 5.906 1.307h2.56c5.973.853 11.093 1.707 17.067 2.56l3.413.853c5.973.853 11.093 1.707 17.067 3.413-4.267 1.707-10.24 4.267-17.067 6.827-10.24 4.267-23.04 9.387-28.16 9.387h-5.12v-24.59c1.448.069 2.893.148 4.334.243zm-24.813 119.378C185.703 141.257 136.533 193.162 136.533 256s49.17 114.743 110.933 119.156v68.577c-99.84-4.267-179.2-87.04-179.2-187.733s79.36-183.467 179.2-187.733v68.577zm17.066 50.889v-17.922c2.099-.01 3.611-.097 5.12-.852 10.24-3.413 17.067-11.947 19.627-23.04 2.56-12.8 0-24.747-7.68-33.28-4.267-5.12-8.533-5.12-11.947-5.12h-1.707c4.267-5.12 9.387-8.533 14.507-9.387 5.12 0 8.533.853 12.8 5.12 6.827 6.827 15.36 8.533 23.893 5.973 17.067-5.12 29.013-28.16 31.573-46.933 1.662-10.805.079-19.986-3.946-27.553 1.256.517 2.509 1.04 3.755 1.578.44.358.81.758 1.045 1.228l2.56.853c11.093 5.12 21.333 11.093 31.573 17.067l1.707.853c1.294.862 2.587 1.725 3.867 2.587 46.895 32.352 81.694 81.057 96.202 137.758-.228 4.331-.229 9.467-.229 14.961 0 8.533 0 22.187-1.707 29.867l-1.707-1.707c-6.827-10.24-18.773-23.04-31.573-19.627-14.507 3.413-17.067 23.893-19.627 41.813-.853 4.267-1.707 10.24-2.56 11.947-6.827 10.24-14.507 15.36-25.6 15.36-20.48 0-42.667-17.92-53.76-34.987-2.56-3.413-3.413-8.533-4.267-12.8-1.707-6.827-2.56-14.507-10.24-18.773-2.56-.853-5.12-1.707-8.533-1.707-5.12 0-11.947 2.56-23.893 7.68-2.56.853-4.267 1.707-5.973 2.56-.853-5.12-4.267-11.947-13.653-15.36-5.12-1.707-8.533-.853-11.093 0-5.001 2.143-7.01 6.679-8.533 11.104v-39.261zM17.067 256c0-128.853 102.4-234.667 230.4-238.933v34.326C138.744 55.908 51.2 146.219 51.2 256s87.544 200.093 196.267 204.608v34.326c-128-4.267-230.4-110.081-230.4-238.934zm311.708 227.837l4.025-26.45 29.867-15.36c1.707-.853 3.413-3.413 4.267-5.973l8.533-42.667c.853-2.56 0-5.12-1.707-6.827-1.707-2.56-4.267-3.413-6.827-3.413h-55.467l-15.36-21.333c0-.853-.853-.853-1.707-1.707l-29.867-22.209v-89.091c2.105.363 4.424.314 6.827-.487 7.68-2.56 9.387-9.387 11.093-14.507.853-.853.853-.853.853-1.707.853 0 .853 1.707.853 3.413.853 2.56.853 8.533 5.973 11.093 5.973 3.413 11.947.853 23.893-4.267 8.533-4.267 11.947-4.267 13.653-4.267.853 1.707 1.707 4.267 1.707 6.827.853 5.973 2.56 12.8 6.827 19.627 13.653 20.48 40.107 42.667 67.413 42.667 15.36 0 29.867-8.533 39.253-23.893 1.707-3.413 2.56-8.533 4.267-18.773.853-7.68 3.413-25.6 6.827-28.16 0 0 4.267 0 14.507 13.653 2.56 4.267 10.24 14.507 20.48 11.093 2.414-.862 4.369-2.256 5.961-4.15-.422 105.955-70.072 196.162-166.144 226.868z"/></svg>