<svg xmlns="http://www.w3.org/2000/svg" viewBox="0 0 512.853 512.853"><path d="M349.867 247.893h-34.736c-1.405-10.05-5.253-19.253-10.945-27.001l26.055-26.759c3.413-3.413 3.413-8.533 0-11.947-3.413-3.413-8.533-3.413-11.947 0l-26.35 26.35c-7.831-5.857-17.184-9.812-27.41-11.241V162.56c0-5.12-3.413-8.533-8.533-8.533s-8.533 3.413-8.533 8.533v34.736c-10.226 1.429-19.579 5.384-27.41 11.241l-26.35-26.35c-3.413-3.413-8.533-3.413-11.947 0s-3.413 8.533 0 11.947l26.35 26.35c-5.857 7.831-9.812 17.184-11.241 27.41h-34.736c-5.12 0-8.533 3.413-8.533 8.533s3.413 8.533 8.533 8.533h34.736c1.429 10.226 5.384 19.578 11.241 27.41l-26.35 26.35c-3.413 3.413-3.413 8.533 0 11.947 1.707 1.707 3.413 2.56 5.973 2.56s4.267-.853 5.973-2.56l26.35-26.35c7.831 5.857 17.184 9.812 27.41 11.241v34.736c0 5.12 3.413 8.533 8.533 8.533s8.533-3.413 8.533-8.533v-34.736c10.226-1.429 19.578-5.384 27.41-11.241l26.35 26.35c1.707 1.707 3.413 2.56 5.973 2.56s4.267-.853 5.973-2.56c3.413-3.413 3.413-8.533 0-11.947l-26.35-26.35c5.857-7.831 9.812-17.184 11.241-27.41h34.736c5.12 0 8.533-3.413 8.533-8.533s-3.412-8.534-8.532-8.534zm-61.588 36.679c-.86.419-1.677.986-2.413 1.721s-1.303 1.553-1.721 2.413c-7.466 6.49-17.271 10.387-28.146 10.387s-20.68-3.897-28.146-10.387a8.95 8.95 0 0 0-1.721-2.413 8.913 8.913 0 0 0-2.413-1.721c-6.49-7.466-10.387-17.272-10.387-28.146 0-10.922 3.931-20.766 10.473-28.245.839-.408 1.65-.945 2.327-1.622a8.935 8.935 0 0 0 1.721-2.413c7.466-6.49 17.272-10.387 28.146-10.387s20.68 3.897 28.146 10.387a8.95 8.95 0 0 0 1.721 2.413c.808.808 1.62 1.419 2.519 1.844 6.426 7.451 10.281 17.208 10.281 28.022.001 10.876-3.897 20.681-10.387 28.147z"/><path d="M443.733 256.427c0-103.253-84.48-187.733-187.733-187.733-67.635 0-129.684 35.881-163.039 94.534a44.33 44.33 0 0 0-7.628-.668c-23.893 0-42.667 18.773-42.667 42.667 0 17.879 10.513 32.888 25.815 39.313-.214 4.017-.215 8.121-.215 11.887 0 103.253 84.48 187.733 187.733 187.733s187.734-84.48 187.734-187.733zm-384-51.2c0-14.507 11.093-25.6 25.6-25.6 2.804 0 5.478.419 7.972 1.192l1.415.515c9.387 3.413 16.213 13.653 16.213 23.893 0 14.507-11.093 25.6-25.6 25.6-14.506 0-25.6-11.094-25.6-25.6zM256 427.093c-93.867 0-170.667-76.8-170.667-170.667v-8.533c23.893 0 42.667-18.773 42.667-42.667 0-14.875-7.278-27.763-18.536-35.374C140.231 118.028 195.566 85.76 256 85.76c93.867 0 170.667 76.8 170.667 170.667S349.867 427.093 256 427.093z"/><path d="M512.853 255.573c0-52.703-16.093-102.864-46.584-146.268 12.214-9.38 20.131-24.112 20.131-40.612 0-28.16-23.04-51.2-51.2-51.2-17.608 0-33.214 9.009-42.438 22.645C351.941 13.947 304.394.427 256 .427c-140.8 0-256 115.2-256 256s115.2 256 256 256c42.731 0 84.697-10.67 121.586-31.28 7.765 8.76 19.143 14.213 32.014 14.213 23.893 0 42.667-18.773 42.667-42.667 0-8.917-2.617-17.12-7.137-23.901 43.866-47.909 67.723-108.972 67.723-173.219zM435.2 34.56c18.773 0 34.133 15.36 34.133 34.133 0 17.995-14.116 32.845-31.82 34.046-.212.014-.428.035-.638.045-.555.027-1.114.043-1.676.043-18.773 0-34.133-15.36-34.133-34.133 0-4.267.853-7.68 2.56-11.947l1.161-3.482c5.659-11.073 17.184-18.705 30.413-18.705zM256 495.36c-131.413 0-238.933-107.52-238.933-238.933S124.587 17.493 256 17.493c45.227 0 89.6 12.8 127.147 36.693l2.336 2.336a50.85 50.85 0 0 0-1.441 10.515 33.83 33.83 0 0 0-.042 1.656c0 28.16 23.04 51.2 51.2 51.2.754 0 1.507-.023 2.258-.058.315-.014.629-.034.943-.053a57.796 57.796 0 0 0 1.626-.125c.171-.016.344-.028.515-.046 3.259-.32 6.394-.871 9.166-1.425l2.56 1.707c28.16 40.107 42.667 87.04 42.667 136.533 0 59.666-22.138 115.925-62.159 160.275-5.747-3.662-12.465-5.975-19.748-6.532-.191-.016-.382-.029-.573-.042a44.672 44.672 0 0 0-2.853-.101c-23.893 0-42.667 18.773-42.667 42.667 0 .692.019 1.367.05 2.03.019.419.052.833.083 1.248.013.164.022.333.037.496.295 3.5.997 6.865 2.059 10.055C334.258 485.182 295.13 495.36 256 495.36zm153.6-17.067c-8.854 0-16.431-4.137-20.996-10.656l-1.191-2.144a12.33 12.33 0 0 1-.782-1.202c-1.5-3.069-2.413-6.512-2.596-10.203-.02-.471-.036-.94-.036-1.395 0-14.507 11.093-25.6 25.6-25.6.436 0 .868.011 1.298.031.3.014.6.039.899.062.127.01.256.016.383.028.255.024.51.057.765.088.187.023.376.041.562.068.118.017.235.039.353.057 12.362 1.936 21.34 12.218 21.34 25.267.001 14.506-11.092 25.599-25.599 25.599z"/></svg>