<svg xmlns="http://www.w3.org/2000/svg" viewBox="0 0 512 512"><path d="M409.6 358.4c-42.667 0-76.8 34.133-76.8 76.8s34.133 76.8 76.8 76.8c42.667 0 76.8-34.133 76.8-76.8s-34.133-76.8-76.8-76.8zm57.375 93.592a59.154 59.154 0 0 1-40.583 40.583c-.895-3.78-3.975-6.175-8.259-6.175-5.12 0-8.533 3.413-8.533 8.533-33.28 0-59.733-26.453-59.733-59.733s26.453-59.733 59.733-59.733 59.733 26.453 59.733 59.733c-5.12 0-8.533 3.413-8.533 8.533 0 4.284 2.395 7.365 6.175 8.259zM196.267 409.6c-28.16 0-51.2 23.04-51.2 51.2 0 28.16 23.04 51.2 51.2 51.2s51.2-23.04 51.2-51.2c0-28.16-23.04-51.2-51.2-51.2zm16.181 81.226c-1.328-2.754-4.068-4.426-7.648-4.426-5.12 0-8.533 3.413-8.533 8.533-18.773 0-34.133-15.36-34.133-34.133 0-18.773 15.36-34.133 34.133-34.133S230.4 442.027 230.4 460.8c-5.12 0-8.533 3.413-8.533 8.533 0 3.58 1.672 6.32 4.426 7.648a34.52 34.52 0 0 1-13.845 13.845zm71.712-189.599c-3.413 3.413-3.413 8.533 0 11.947 3.413 3.413 8.533 3.413 11.947 0 3.413-3.413 3.413-8.533 0-11.947-3.414-3.414-8.534-3.414-11.947 0zm-51.2-39.254l25.6 25.6c1.707 1.707 3.413 2.56 5.973 2.56s4.267-.853 5.973-2.56c3.413-3.413 3.413-8.533 0-11.947l-25.6-25.6c-3.413-3.413-8.533-3.413-11.947 0s-3.412 8.534.001 11.947zm108.373 104.96c2.56 0 4.267-.853 5.973-2.56 3.413-3.413 3.413-8.533 0-11.947l-25.6-25.6c-3.413-3.413-8.533-3.413-11.947 0-3.413 3.413-3.413 8.533 0 11.947l25.6 25.6c1.708 1.707 3.414 2.56 5.974 2.56zM224.427 309.76c-3.413 3.413-3.413 8.533 0 11.947 3.413 3.413 8.533 3.413 11.947 0 3.413-3.413 3.413-8.533 0-11.947-3.414-3.413-8.534-3.413-11.947 0zm-39.254-51.2c-3.413-3.413-8.533-3.413-11.947 0s-3.413 8.533 0 11.947l25.6 25.6c1.707 1.707 3.413 2.56 5.973 2.56s4.267-.853 5.973-2.56c3.413-3.413 3.413-8.533 0-11.947l-25.599-25.6zm76.8 76.8c-3.413-3.413-8.533-3.413-11.947 0-3.413 3.413-3.413 8.533 0 11.947l25.6 25.6c1.707 1.707 3.413 2.56 5.973 2.56s4.267-.853 5.973-2.56c3.413-3.413 3.413-8.533 0-11.947l-25.599-25.6zm51.2-73.387c3.413-3.413 3.413-8.533 0-11.947s-8.533-3.413-11.947 0c-3.413 3.413-3.413 8.533 0 11.947 3.414 3.414 8.534 3.414 11.947 0zm-37.546-25.6c1.707 1.707 3.413 2.56 5.973 2.56s4.267-.853 5.973-2.56c3.413-3.413 3.413-8.533 0-11.947l-25.6-25.6c-3.413-3.413-8.533-3.413-11.947 0s-3.413 8.533 0 11.947l25.601 25.6zm76.8 76.8c1.707 1.707 3.413 2.56 5.973 2.56s4.267-.853 5.973-2.56c3.413-3.413 3.413-8.533 0-11.947l-25.6-25.6c-3.413-3.413-8.533-3.413-11.947 0s-3.413 8.533 0 11.947l25.601 25.6zm-204.8-148.48c-3.413 3.413-3.413 8.533 0 11.947s8.533 3.413 11.947 0 3.413-8.533 0-11.947-8.534-3.413-11.947 0zm-25.6-13.653c1.707 1.707 3.413 2.56 5.973 2.56s4.267-.853 5.973-2.56c3.413-3.413 3.413-8.533 0-11.947l-25.6-25.6c-3.413-3.413-8.533-3.413-11.947 0s-3.413 8.533 0 11.947l25.601 25.6zm51.2 39.253c-3.413 3.413-3.413 8.533 0 11.947l25.6 25.6c1.707 1.707 3.413 2.56 5.973 2.56s4.267-.853 5.973-2.56c3.413-3.413 3.413-8.533 0-11.947l-25.6-25.6c-3.413-3.413-8.533-3.413-11.946 0zm-73.387-5.12c3.413-3.413 3.413-8.533 0-11.947s-8.533-3.413-11.947 0-3.413 8.533 0 11.947 8.534 3.414 11.947 0zm-37.547-25.6c1.707 1.707 3.413 2.56 5.973 2.56s4.267-.853 5.973-2.56c3.413-3.413 3.413-8.533 0-11.947l-25.6-25.6c-3.413-3.413-8.533-3.413-11.947 0s-3.413 8.533 0 11.947l25.601 25.6zm82.774 79.36c2.56 0 4.267-.853 5.973-2.56 3.413-3.413 3.413-8.533 0-11.947l-25.6-25.6c-3.413-3.413-8.533-3.413-11.947 0s-3.413 8.533 0 11.947l25.6 25.6c1.707 1.707 3.414 2.56 5.974 2.56zM176.64 125.44c3.413-3.413 3.413-8.533 0-11.947-3.413-3.413-8.533-3.413-11.947 0s-3.413 8.533 0 11.947 8.534 3.413 11.947 0zm-37.547-25.6c1.707 1.707 3.413 2.56 5.973 2.56s4.267-.853 5.973-2.56c3.413-3.413 3.413-8.533 0-11.947l-25.6-25.6c-3.413-3.413-8.533-3.413-11.947 0s-3.413 8.533 0 11.947l25.601 25.6zm76.8 76.8c1.707 1.707 3.413 2.56 5.973 2.56s4.267-.853 5.973-2.56c3.413-3.413 3.413-8.533 0-11.947l-25.6-25.6c-3.413-3.413-8.533-3.413-11.947 0s-3.413 8.533 0 11.947l25.601 25.6zM79.36 343.893c-3.413 3.413-3.413 8.533 0 11.947s8.533 3.413 11.947 0 3.413-8.533 0-11.947-8.534-3.413-11.947 0zm-25.6-13.653c1.707 1.707 3.413 2.56 5.973 2.56s4.267-.853 5.973-2.56c3.413-3.413 3.413-8.533 0-11.947l-25.6-25.6c-3.413-3.413-8.533-3.413-11.947 0-3.413 3.413-3.413 8.533 0 11.947l25.601 25.6zm88.747 64.853l-25.6-25.6c-3.413-3.413-8.533-3.413-11.947 0s-3.413 8.533 0 11.947l25.6 25.6c1.707 1.707 3.413 2.56 5.973 2.56s4.267-.853 5.973-2.56c3.414-3.413 3.414-8.533.001-11.947zm-122.88-42.666c-3.413 3.413-3.413 8.533 0 11.947s8.533 3.413 11.947 0 3.413-8.533 0-11.947-8.534-3.414-11.947 0zm37.546 25.6c-3.413-3.413-8.533-3.413-11.947 0-3.413 3.413-3.413 8.533 0 11.947l25.6 25.6c1.707 1.707 3.413 2.56 5.973 2.56s4.267-.853 5.973-2.56c3.413-3.413 3.413-8.533 0-11.947l-25.599-25.6zm51.2-73.387c3.413-3.413 3.413-8.533 0-11.947s-8.533-3.413-11.947 0-3.413 8.533 0 11.947 8.534 3.413 11.947 0zm-63.146-63.147c-3.413 3.413-3.413 8.533 0 11.947l25.6 25.6c1.707 1.707 3.413 2.56 5.973 2.56s4.267-.853 5.973-2.56c3.413-3.413 3.413-8.533 0-11.947l-25.6-25.6c-3.413-3.413-8.533-3.413-11.946 0zm102.4 114.347c1.707 1.707 3.413 2.56 5.973 2.56s4.267-.853 5.973-2.56c3.413-3.413 3.413-8.533 0-11.947l-25.6-25.6c-3.413-3.413-8.533-3.413-11.947 0s-3.413 8.533 0 11.947l25.601 25.6zm244.906-133.973c0 28.16 23.04 51.2 51.2 51.2s51.2-23.04 51.2-51.2c0-28.16-23.04-51.2-51.2-51.2s-51.2 23.04-51.2 51.2zm51.2-34.134c18.773 0 34.133 15.36 34.133 34.133-5.12 0-8.533 3.413-8.533 8.533 0 3.58 1.672 6.32 4.426 7.648a34.514 34.514 0 0 1-13.845 13.845c-1.328-2.754-4.068-4.426-7.648-4.426-5.12 0-8.533 3.413-8.533 8.533-18.773 0-34.133-15.36-34.133-34.133 0-18.773 15.36-34.133 34.133-34.133zM326.827 104.96c-3.413 3.413-3.413 8.533 0 11.947s8.533 3.413 11.947 0c3.413-3.413 3.413-8.533 0-11.947-3.414-3.413-8.534-3.413-11.947 0zm-25.6-13.653c1.707 1.707 3.413 2.56 5.973 2.56s4.267-.853 5.973-2.56c3.413-3.413 3.413-8.533 0-11.947l-25.6-25.6c-3.413-3.413-8.533-3.413-11.947 0s-3.413 8.533 0 11.947l25.601 25.6zm51.2 39.253c-3.413 3.413-3.413 8.533 0 11.947l25.6 25.6c1.707 1.707 3.413 2.56 5.973 2.56s4.267-.853 5.973-2.56c3.413-3.413 3.413-8.533 0-11.947l-25.6-25.6c-3.413-3.413-8.533-3.413-11.946 0zm-73.387-5.12c3.413-3.413 3.413-8.533 0-11.947s-8.533-3.413-11.947 0-3.413 8.533 0 11.947 8.534 3.413 11.947 0zm51.2 39.253l-25.6-25.6c-3.413-3.413-8.533-3.413-11.947 0s-3.413 8.533 0 11.947l25.6 25.6c1.707 1.707 3.413 2.56 5.973 2.56s4.267-.853 5.973-2.56c3.414-3.413 3.414-8.533.001-11.947zm25.6-98.986c3.413-3.413 3.413-8.533 0-11.947-3.413-3.413-8.533-3.413-11.947 0-3.413 3.413-3.413 8.533 0 11.947 3.414 3.413 8.534 3.413 11.947 0zm-37.547-25.6c1.707 1.707 3.413 2.56 5.973 2.56s4.267-.853 5.973-2.56c3.413-3.413 3.413-8.533 0-11.947l-25.6-25.6c-3.413-3.413-8.533-3.413-11.947 0s-3.413 8.533 0 11.947l25.601 25.6zm76.8 76.8c1.707 1.707 3.413 2.56 5.973 2.56s4.267-.853 5.973-2.56c3.413-3.413 3.413-8.533 0-11.947l-25.6-25.6c-3.413-3.413-8.533-3.413-11.947 0-3.413 3.413-3.413 8.533 0 11.947l25.601 25.6z"/><path d="M418.133 435.2c-5.12 0-8.533 3.413-8.533 8.533s3.413 8.533 8.533 8.533c5.12 0 8.533-3.413 8.533-8.533s-3.413-8.533-8.533-8.533zm25.6 25.6c-5.12 0-8.533 3.413-8.533 8.533s3.413 8.533 8.533 8.533 8.533-3.413 8.533-8.533-3.413-8.533-8.533-8.533zm-42.666 0c-5.12 0-8.533 3.413-8.533 8.533s3.413 8.533 8.533 8.533 8.533-3.413 8.533-8.533-3.413-8.533-8.533-8.533zm42.666-42.667c-5.12 0-8.533 3.413-8.533 8.533s3.413 8.533 8.533 8.533 8.533-3.413 8.533-8.533-3.413-8.533-8.533-8.533zM204.8 460.8c-5.12 0-8.533 3.413-8.533 8.533s3.413 8.533 8.533 8.533 8.533-3.413 8.533-8.533-3.413-8.533-8.533-8.533zm247.467-221.867c5.12 0 8.533-3.413 8.533-8.533s-3.413-8.533-8.533-8.533-8.533 3.413-8.533 8.533 3.413 8.533 8.533 8.533z"/></svg>