<svg xmlns="http://www.w3.org/2000/svg" viewBox="0 0 512 512"><path d="M164.447 181.369c-18.224 0-36.447 3.471-54.671 9.546l-4.339 1.736-.14.84C43.892 217.473.434 277.181.434 347.119c0 28.211 7.077 54.755 19.544 77.964.118.341.251.678.415 1.005 2.042 3.663 4.22 7.22 6.504 10.688 27.47 42.346 73.846 71.261 127.211 74.837a166.716 166.716 0 0 0 4.978.258c.347.013.693.028 1.041.039 1.724.053 3.452.089 5.188.089 1.104 0 2.204-.016 3.3-.042a165.372 165.372 0 0 0 33.925-4.171c2.9-.582 5.819-1.206 8.768-1.862.496-.248.971-.535 1.426-.848 67.974-20.351 117.462-83.328 117.462-157.959 0-31.338-8.725-60.622-23.88-85.56-28.532-48.067-81.493-80.188-141.869-80.188zm-23.43 104.136l5.207 2.603c11.281 5.207 20.827 9.546 27.769 6.942 6.942-1.736 12.149-8.678 13.885-16.488 2.603-8.678 0-18.224-5.207-23.431-.868-.868 0-3.471 0-3.471.868.868 1.736.868 3.471 2.603 5.207 5.207 11.281 6.942 18.224 4.339 12.149-3.471 19.959-19.092 21.695-32.109.868-3.471.868-7.81 0-11.281 45.125 20.827 78.102 63.349 84.176 115.417h-3.471c-5.207-4.339-13.017-10.414-21.695-7.81-11.281 4.339-13.017 18.224-14.753 29.505 0 2.603-.868 6.075-.868 6.942-3.471 5.207-7.81 7.81-13.017 7.81-11.281 0-24.298-10.414-31.241-20.827-.868-1.736-.868-4.339-1.736-6.942-.868-5.207-1.736-11.281-7.81-14.753-2.603-.868-4.339-1.736-6.942-1.736-4.339 0-9.546 1.736-15.62 3.471l-1.736.868c-13.885 6.075-13.885 6.075-20.827.868-1.736-1.736-2.603-3.471-3.471-6.075-1.736-6.075-6.942-19.091-26.902-13.885-1.736 0-2.603.868-3.471.868 3.472-6.072 6.076-13.882 4.34-23.428zm-28.637-61.613c2.603-4.339 6.075-9.546 7.81-15.62 23.431-6.942 48.597-8.678 71.159-5.207 0 .868-.868.868-.868.868-5.207 2.603-13.885 6.075-16.488 6.075-14.753 0-26.902 8.678-37.315 15.62-5.207 3.471-9.546 6.942-14.753 9.546-4.339 2.603-7.81-.868-8.678-1.736-1.735-2.604-3.471-6.075-.867-9.546zm78.969 218.684h31.241l-4.339 13.017-15.62 15.62c-1.736 1.736-2.603 3.471-2.603 6.075v13.017c-11.281 2.603-23.43 4.339-34.712 4.339-1.497 0-2.99-.028-4.48-.073-.301-.009-.601-.023-.902-.034a146.6 146.6 0 0 1-3.988-.196l-.324-.021c-42.543-2.829-81.86-24.144-107.701-57.784-.188-.247-.38-.491-.567-.739-.41-.54-.806-1.093-1.209-1.64a147.538 147.538 0 0 1-6.614-9.85l18.179-18.179 15.62-7.81 30.373-7.81 10.414 6.942c0 .868 0 .868.868.868l20.827 8.678c.868.868 2.603.868 3.471.868h24.298l19.092 6.075v19.959c-.002 5.207 3.469 8.678 8.676 8.678zm26.034 42.632v-4.448l14.753-15.62c.868-.868 1.736-2.603 1.736-3.471l8.678-26.034c.868-2.603.868-5.207-.868-7.81-1.736-1.736-4.339-3.471-6.942-3.471h-34.712v-17.356c0-3.471-2.603-6.942-6.075-7.81l-26.034-8.678c-.868-.868-1.736-.868-2.603-.868h-24.298l-19.092-7.81-13.017-7.81c-2.603-.868-4.339-1.736-6.942-.868l-34.712 8.678c-.868 0-.868.868-1.736.868l-17.356 8.678c-.868.868-1.736.868-2.603 1.736l-14.755 14.755c-8.362-18.519-13.014-39.083-13.014-60.748 0-56.237 31.349-105.047 77.55-129.943-3.337 8.635-1.72 18.462 4.891 25.808 7.81 8.678 19.091 11.281 29.505 6.075 6.075-3.471 12.149-6.942 17.356-11.281 8.678-6.075 17.356-12.149 26.902-12.149 6.942 0 14.753-3.471 23.43-6.942 4.339-.868 9.546-3.471 12.149-4.339 2.603 3.471 1.736 10.414.868 12.149-2.603 8.678-7.81 14.753-10.414 14.753-11.281-10.414-20.827-7.81-26.902-2.603-6.942 6.942-8.678 19.959-1.736 27.77 1.736 1.736 2.603 5.207 1.736 7.81 0 1.736-1.736 3.471-2.603 4.339-2.603-.868-10.414-4.339-14.753-6.075-12.149-5.207-21.695-10.414-28.637-3.471-6.075 6.075-1.736 14.753-.868 17.356 2.603 6.942-.868 13.885-5.207 20.827-3.471 5.207-6.942 11.281-2.603 17.356 4.339 6.942 13.885 5.207 27.769 1.736 3.471-.868 5.207-.868 5.207-.868.868.868 1.736 2.603 1.736 3.471 1.736 4.339 3.471 9.546 8.678 13.885 13.885 11.281 19.092 9.546 38.183.868l2.603-2.603c1.736-.868 3.471-1.736 4.339-1.736v.868c0 4.339.868 9.546 4.339 13.885 8.678 13.885 26.902 28.637 45.993 28.637 8.678 0 19.959-2.603 28.637-16.488 1.736-2.603 2.603-6.942 3.471-13.017 0-3.471.868-10.414 2.603-13.885.868.868 3.471 1.736 6.075 5.207l2.603 2.603h12.149c.001 63.23-39.637 117.069-95.457 138.084zm275.959-267.391c-1.736-4.339-6.942-6.942-11.281-5.207s-6.942 6.942-5.207 11.281c.868 3.471 4.339 5.207 8.678 6.075.868 0 1.736-.868 2.603-.868 4.34-1.735 6.943-6.942 5.207-11.281zm1.736 34.712c-5.207.868-7.81 6.075-6.942 10.414.868 4.339 4.339 6.942 8.678 6.942h1.736c5.207-.868 7.81-6.075 6.942-10.414-.868-5.207-6.075-7.81-10.414-6.942zm-.868 51.2c0 4.339 3.471 7.81 8.678 7.81h.868c4.339-.868 7.81-4.339 7.81-9.546-.868-4.339-5.207-7.81-9.546-7.81-4.339.868-7.81 5.207-7.81 9.546zm-2.603 115.417c-5.207-1.736-9.546.868-11.281 5.207-1.736 5.207.868 9.546 5.207 11.281.868 0 1.736.868 2.603.868 4.339 0 7.81-2.603 8.678-6.075 1.735-5.207-.868-9.546-5.207-11.281zm8.678-41.654c-5.207-.868-9.546 2.603-10.414 6.942-.868 5.207 2.603 9.546 6.942 10.414.868.868.868.868 1.736 0 4.339 0 7.81-2.603 8.678-6.942.868-5.208-2.603-9.547-6.942-10.414zm2.603-40.787c-4.339 0-8.678 3.471-8.678 8.678 0 4.339 3.471 8.678 8.678 8.678 5.207 0 8.678-4.339 7.81-8.678.868-4.339-3.471-8.678-7.81-8.678zm-27.769 122.359c-4.339-1.736-9.546 0-11.281 4.339s0 9.546 4.339 11.281c1.736 0 2.603.868 3.471.868 3.471 0 6.075-1.736 7.81-5.207 1.735-4.338 0-9.545-4.339-11.281zM296.353 39.051h3.471c3.471 0 6.075-1.736 7.81-5.207 1.736-4.339-.868-9.546-5.207-11.281-4.339-1.736-9.546.868-11.281 5.207s.868 9.545 5.207 11.281zm-39.919-13.017c.868 0 .868 0 1.736.868 4.339 0 7.81-2.603 8.678-6.942 1.736-4.339-1.736-9.546-6.075-10.414-4.339-1.736-9.546 1.736-10.414 6.075-1.735 4.338 1.736 9.545 6.075 10.413zm-126.698-4.339h1.736c4.339-.868 7.81-6.075 6.942-10.414S132.339 3.471 128 4.339c-4.339.868-7.81 5.207-6.942 10.414 0 4.339 4.339 6.942 8.678 6.942zM47.295 48.597c.868 0 1.736-.868 3.471-.868 4.339-1.736 6.075-6.942 4.339-11.281s-6.942-6.075-11.281-4.339-6.075 6.942-4.339 11.281c.868 3.471 4.339 5.207 7.81 5.207zM214.78 19.092h.868c4.339 0 7.81-3.471 8.678-7.81 0-5.207-3.471-8.678-7.81-9.546-5.207-.868-8.678 3.471-9.546 7.81-.001 4.339 3.471 8.678 7.81 9.546zM88.081 32.108h2.603c4.339-1.736 6.942-6.942 5.207-11.281-1.736-4.339-6.942-6.942-11.281-5.207-4.339.868-6.942 6.075-6.075 10.414 1.736 4.339 5.207 6.074 9.546 6.074zm84.177-14.752c5.207 0 8.678-3.471 8.678-8.678S176.597 0 172.258 0c-5.207 0-8.678 4.339-8.678 8.678 0 5.207 4.339 8.678 8.678 8.678zm331.498 95.458a95.183 95.183 0 0 0-95.458-95.458 95.183 95.183 0 0 0-95.458 95.458c0 21.184 6.815 40.696 18.377 56.487a7.657 7.657 0 0 0 1.496 1.99c17.421 22.533 44.732 36.981 75.585 36.981a95.184 95.184 0 0 0 95.458-95.458zm-95.458 78.101c-18.751 0-35.872-6.492-49.281-17.356h49.281c5.207 0 8.678-3.471 8.678-8.678s-3.471-8.678-8.678-8.678h-65.08c-6.731-10.125-11.15-21.937-12.54-34.712h42.908c5.207 0 8.678-3.471 8.678-8.678s-3.471-8.678-8.678-8.678h-42.908a77.861 77.861 0 0 1 7.567-26.06c.208.012.415.027.629.027h86.78c5.207 0 8.678-3.471 8.678-8.678 0-5.207-3.471-8.678-8.678-8.678h-75.731c14.265-16.004 35.062-26.034 58.375-26.034 34.242 0 63.064 21.626 73.701 52.068h-21.633c-5.207 0-8.678 3.471-8.678 8.678s3.471 8.678 8.678 8.678h25.552c.31 2.849.482 5.741.482 8.678 0 5.975-.68 11.778-1.929 17.356h-50.139c-5.207 0-8.678 3.471-8.678 8.678s3.471 8.678 8.678 8.678h44.032c-12.7 25.79-39.177 43.389-70.066 43.389z"/></svg>