<svg xmlns="http://www.w3.org/2000/svg" viewBox="0 0 512 512"><path d="M256 452.267c-5.12 0-8.533 3.413-8.533 8.533 0 5.12 3.413 8.533 8.533 8.533s8.533-3.413 8.533-8.533c0-5.12-3.413-8.533-8.533-8.533zm0-42.667c-5.12 0-8.533 3.413-8.533 8.533v8.533c0 5.12 3.413 8.533 8.533 8.533s8.533-3.413 8.533-8.533v-8.533c0-5.12-3.413-8.533-8.533-8.533zm0 76.8c-5.12 0-8.533 3.413-8.533 8.533v8.533c0 5.12 3.413 8.533 8.533 8.533s8.533-3.413 8.533-8.533v-8.533c0-5.12-3.413-8.533-8.533-8.533zm51.2-85.333c-5.12 0-8.533 3.413-8.533 8.533v17.067c0 5.12 3.413 8.533 8.533 8.533s8.533-3.413 8.533-8.533V409.6c0-5.12-3.413-8.533-8.533-8.533zm0 51.2c-5.12 0-8.533 3.413-8.533 8.533v25.6c0 5.12 3.413 8.533 8.533 8.533s8.533-3.413 8.533-8.533v-25.6c0-5.12-3.413-8.533-8.533-8.533zM204.8 460.8c-5.12 0-8.533 3.413-8.533 8.533v25.6c0 5.12 3.413 8.533 8.533 8.533 5.12 0 8.533-3.413 8.533-8.533v-25.6c0-5.12-3.413-8.533-8.533-8.533zm0-59.733c-5.12 0-8.533 3.413-8.533 8.533v25.6c0 5.12 3.413 8.533 8.533 8.533 5.12 0 8.533-3.413 8.533-8.533v-25.6c0-5.12-3.413-8.533-8.533-8.533zm-17.067-213.334c5.12 0 8.533-3.413 8.533-8.533 0-23.893 18.773-42.667 42.667-42.667 5.12 0 8.533-3.413 8.533-8.533s-3.413-8.533-8.533-8.533c-33.28 0-59.733 26.453-59.733 59.733 0 5.12 3.413 8.533 8.533 8.533zm68.267 76.8c-5.12 0-8.533 3.413-8.533 8.533 0 5.12 3.413 8.533 8.533 8.533s8.533-3.413 8.533-8.533c0-5.119-3.413-8.533-8.533-8.533zM332.8 256c-5.12 0-8.533 3.413-8.533 8.533s3.413 8.533 8.533 8.533c5.12 0 8.533-3.413 8.533-8.533S337.92 256 332.8 256zm68.267-17.067c-5.12 0-8.533 3.413-8.533 8.533s3.413 8.533 8.533 8.533c5.12 0 8.533-3.413 8.533-8.533s-3.413-8.533-8.533-8.533zm-290.134 0c-5.12 0-8.533 3.413-8.533 8.533s3.413 8.533 8.533 8.533 8.533-3.413 8.533-8.533-3.413-8.533-8.533-8.533zM179.2 256c-5.12 0-8.533 3.413-8.533 8.533s3.413 8.533 8.533 8.533 8.533-3.413 8.533-8.533S184.32 256 179.2 256z"/><path d="M512 247.467c0-39.635-80.498-59.332-121.593-66.365-10.718-58.597-60.944-100.67-125.874-104.07V51.2h8.533l8.533-8.533V8.533L273.067 0h-34.133L230.4 8.533v34.133l8.533 8.533h8.533V77.03c-64.976 3.402-115.228 45.533-125.898 104.195C80.467 188.908 0 207.84 0 247.467c0 21.079 24.001 38.13 61.106 50.764C88.072 354.618 166.265 392.533 256 392.533c89.227 0 167.036-37.489 194.425-94.144 37.37-12.65 61.575-29.755 61.575-50.922zm-264.533-230.4h17.067v17.067h-17.067V17.067zm8.533 76.8c65.404 0 115.582 43.968 119.409 104.126l-25.543 8.514c-60.587 20.48-127.147 20.48-187.733 0l-25.543-8.514c.083-1.308.189-2.608.315-3.901.194-1.364.394-2.735.456-3.967 7.512-56.086 56.121-96.258 118.639-96.258zm170.667 211.626c-30.72 41.813-97.28 69.973-170.667 69.973-74.24 0-139.947-28.16-170.667-69.973 46.08 11.947 107.52 18.773 170.667 18.773s124.587-6.826 170.667-18.773zm-70.614-4.203l-1.447.179a662.36 662.36 0 0 1-3.219.389c-29.8 3.502-62.132 5.342-95.387 5.342-20.12 0-39.903-.673-58.993-1.961-112.568-7.703-179.941-36.516-179.941-57.773 0-14.507 32.427-35.84 102.4-48.64v11.946l36.693 12.8c64 21.333 134.827 21.333 198.827 0l37.547-12.8v-11.945c69.973 13.653 102.4 34.133 102.4 48.64 0 18.528-51.191 42.797-138.88 53.823z"/></svg>