<svg xmlns="http://www.w3.org/2000/svg" viewBox="0 0 510.847 510.847"><path d="M268.59 196.669c-27.698 0-50.361 22.662-50.361 50.361s22.662 50.361 50.361 50.361 50.361-22.662 50.361-50.361-22.662-50.361-50.361-50.361zm0 83.935c-18.466 0-33.574-15.108-33.574-33.574s15.108-33.574 33.574-33.574 33.574 15.108 33.574 33.574-15.108 33.574-33.574 33.574zM167.03 96.787c0 .839.839.839.839.839v2.518c0 .423.043.846.109 1.266a44.358 44.358 0 0 0-.109 2.931c0 23.502 18.466 41.967 41.967 41.967 10.007 0 19.093-3.357 26.237-9.015l.622.622c4.197 3.357 9.233 1.679 11.751-1.679 3.348-4.186 1.687-9.205-1.653-11.73 3.203-5.955 5.01-12.814 5.01-20.166 0-23.502-18.466-41.967-41.967-41.967-15.175 0-28.241 7.705-35.601 19.487-.163-.061-.327-.128-.49-.182-4.197-2.518-9.233 0-10.911 4.197-2.519 4.198-.001 9.234 4.196 10.912zm42.806-17.626c14.269 0 25.18 10.911 25.18 25.18s-10.911 25.18-25.18 25.18c-3.291 0-6.4-.587-9.241-1.655-2.547-1.205-4.631-2.144-6.707-4.221a7.36 7.36 0 0 0-2.106-1.483c-4.443-4.503-7.126-10.749-7.126-17.822 0-14.267 10.911-25.179 25.18-25.179zm236.695 312.236c-4.197.839-7.554 4.197-7.554 9.233v3.357c0 4.197-.839 7.554-1.679 10.911-1.679 4.197 1.679 9.233 5.875 10.072h1.679c4.197 0 7.554-2.518 9.233-6.715.839-4.197 1.679-9.233 1.679-15.108v-4.197c-.839-4.195-5.036-7.553-9.233-7.553zM112.472 86.715h.839c4.197-.839 9.233-.839 15.108 0 4.197.839 8.393-3.357 9.233-7.554 0-4.197-3.357-8.393-7.554-9.233-6.715-.839-13.43-.839-19.305 0-4.197 0-7.554 5.036-6.715 9.233s4.197 7.554 8.394 7.554zM366.793 260.46c1.679 2.518 4.197 3.357 6.715 3.357 1.679 0 3.357-.839 4.197-2.518 4.197-2.518 4.197-8.393 1.679-11.751-3.357-4.197-6.715-9.233-10.911-13.43-2.518-3.357-8.393-4.197-11.751-.839-3.357 2.518-4.197 8.393-.839 11.751 4.196 5.036 7.553 9.233 10.91 13.43zm-193.049 25.18c3.357-2.518 4.197-8.393.839-11.751-3.357-5.036-7.554-9.233-10.911-13.43-2.518-3.357-8.393-3.357-11.751-.839s-3.357 8.393-.839 11.751c3.357 4.197 6.715 9.233 10.911 13.43 1.679 2.518 4.197 3.357 6.715 3.357 1.679 0 3.358-.839 5.036-2.518zm238.374 147.725c-4.197 0-9.233 0-15.108-.839-4.197 0-8.393 3.357-9.233 7.554 0 4.197 3.357 8.393 7.554 9.233 4.197.839 8.393.839 12.59.839h5.875c5.036-.839 8.393-5.036 7.554-9.233-.839-5.036-5.035-7.554-9.232-7.554zM82.256 131.201c5.875-.839 9.233-4.197 8.393-8.393v-5.875c0-3.357 0-6.715.839-9.233.839-5.036-2.518-9.233-6.715-10.072-5.036-.839-9.233 2.518-10.072 6.715-.839 3.357-.839 7.554-.839 11.751v7.554c.84 4.195 4.197 7.553 8.394 7.553zm201.442 43.646c1.679.839 4.197 1.679 5.875 1.679 2.518 0 5.036-.839 6.715-2.518 3.357-3.357 2.518-8.393-.839-11.751-4.197-3.357-9.233-7.554-13.43-10.911-3.357-3.357-8.393-2.518-11.751.839s-2.518 8.393.839 11.751c4.198 3.356 8.395 6.714 12.591 10.911zm-198.085-7.555c2.518 5.036 5.036 10.072 7.554 15.948a11.5 11.5 0 0 0 1.152 1.841c-3.656 1.065-7.19 2.13-10.385 3.195-4.197 1.679-6.715 6.715-5.036 10.911.839 3.357 4.197 5.875 7.554 5.875.839 0 1.679 0 2.518-.839 5.036-1.679 10.072-3.357 15.948-5.036 5.036-.839 7.554-5.875 5.875-10.072-.434-2.603-1.993-4.526-3.973-5.551 1.397-2.261 1.673-5.235.616-7.878-2.518-5.036-5.036-10.072-6.715-15.108-1.679-4.197-6.715-5.875-10.911-4.197-4.197 1.679-5.876 6.715-4.197 10.911zm254.321 49.522c3.357-3.357 3.357-8.393 0-11.751l-10.072-10.072-2.518-2.518c-3.357-3.357-8.393-3.357-11.751 0-3.357 3.357-3.357 8.393 0 11.751l2.518 2.518c3.357 2.518 5.875 5.875 9.233 9.233 1.679 1.679 3.357 2.518 5.875 2.518 2.519-.001 4.197-.84 6.715-1.679zm99.043 149.403c5.036-1.679 6.715-6.715 5.036-10.911-1.679-5.036-4.197-10.072-6.715-15.948-1.679-4.197-6.715-5.875-10.911-4.197-4.197 1.679-5.875 6.715-4.197 10.911 2.518 5.036 5.036 10.072 6.715 15.108.839 3.357 4.197 5.036 7.554 5.036.839.001 1.679-.838 2.518.001zm-79.738 54.557c-5.036-1.679-10.072-4.197-15.108-6.715-3.357-2.518-8.393 0-10.911 3.357-2.518 3.357-.839 9.233 3.357 10.911 5.036 2.518 10.911 5.036 15.948 7.554.839.839 2.518.839 3.357.839 2.518 0 5.875-1.679 7.554-5.036 1.679-4.195 0-9.231-4.197-10.91zM117.508 210.938c-4.197 2.518-5.036 7.554-2.518 11.751 3.357 4.197 6.715 9.233 10.072 14.269 1.679 1.679 4.197 3.357 6.715 3.357 1.679 0 3.357-.839 4.197-.839 4.197-2.518 5.036-7.554 2.518-11.751-3.357-5.036-5.875-9.233-9.233-14.269-2.518-4.196-7.554-5.036-11.751-2.518zm94.007 102.4l-7.554-7.554c-3.357-3.357-8.393-3.357-11.751 0-3.357 3.357-3.357 8.393 0 11.751l7.554 7.554 4.197 4.197c1.679 1.679 3.357 2.518 5.875 2.518 1.679 0 4.197-.839 5.875-2.518 3.357-3.357 3.357-8.393 0-11.751l-4.196-4.197zm97.364 78.899c-5.036-2.518-9.233-5.875-14.269-9.233-4.197-3.357-9.233-2.518-11.751 1.679-3.357 4.197-2.518 9.233 1.679 11.751 5.036 3.357 9.233 6.715 14.269 10.072.839.839 2.518 1.679 4.197 1.679 2.518 0 5.036-1.679 8.393-4.197 2.518-4.197 1.678-9.233-2.518-11.751zm-49.522-34.413c-4.197-3.357-8.393-7.554-12.59-10.911-3.357-3.357-8.393-2.518-11.751.839-3.357 3.357-2.518 8.393.839 11.751 4.197 3.357 9.233 7.554 13.43 10.911 1.679.839 3.357 1.679 5.036 1.679 2.518 0 5.036-.839 5.875-2.518 3.358-3.358 2.519-9.233-.839-11.751zm135.135-75.541c-4.197 2.518-5.036 7.554-2.518 11.751 3.357 5.036 5.875 9.233 9.233 14.269.839 2.518 4.197 4.197 6.715 4.197 1.679 0 3.357 0 5.036-1.679 4.197-2.518 5.036-7.554 2.518-11.751s-5.875-9.233-9.233-14.269c-2.518-4.197-7.554-5.037-11.751-2.518zm-252.336 38.688c.347-2.208.533-4.475.533-6.793 0-23.502-18.466-41.967-41.967-41.967-16.832 0-31.078 9.474-37.81 23.485-3.357-1.647-8.36.033-10.033 4.213-1.679 4.197 0 9.233 4.197 10.911.589.196 1.178.441 1.766.708a44.644 44.644 0 0 0-.088 2.65c0 23.502 18.466 41.967 41.967 41.967 15.307 0 28.473-7.837 35.796-19.794.692.129 1.359.283 1.974.489h1.679c4.197 0 7.554-2.518 7.554-5.875.819-4.911-1.559-9.014-5.568-9.994zm-41.435 18.387c-14.269 0-25.18-10.911-25.18-25.18 0-13.657 9.998-24.231 23.365-25.113 1.027.494 2.204.772 3.494.772 4.197 0 7.554 1.679 10.911 3.357.6.6 1.632.769 2.783.817 6.023 4.532 9.807 11.766 9.807 20.166 0 .691-.033 1.371-.083 2.045a8.45 8.45 0 0 0-.756 2.152c0 1.679-.839 4.197-1.679 5.875l-1.281 3.522c-4.383 7.047-12.181 11.587-21.381 11.587zm281.181-147.725c5.875.839 11.751 1.679 16.787 3.357h1.679c4.197 0 7.554-2.518 7.554-5.875 1.679-4.197-1.679-9.233-5.875-10.072-5.036-1.679-10.911-3.357-16.787-4.197-5.036-.839-9.233 2.518-10.072 6.715-.84 5.036 2.517 9.233 6.714 10.072zm128.419 51.2c-2.518-6.715-5.875-11.751-10.911-17.626-3.357-3.357-8.393-4.197-11.751-.839-3.357 3.357-4.197 8.393-.839 11.751 3.357 4.197 5.875 7.554 7.554 11.751.839 3.357 4.197 5.875 7.554 5.875.839 0 1.679-.839 3.357 0 4.197-1.679 6.715-6.715 5.036-10.912zm-273.626-70.505c-.839-4.197-4.197-8.393-9.233-7.554-5.875 0-11.751 0-17.626.839-4.197.839-7.554 5.036-7.554 9.233s4.197 7.554 8.393 7.554c6.715-.839 11.751-.839 18.466-.839 4.197-.839 7.554-4.196 7.554-9.233zm247.607 104.918c-3.357 3.357-7.554 6.715-12.59 10.072-4.197 2.518-5.036 7.554-2.518 11.751 1.679 1.679 4.197 3.357 6.715 3.357 1.679 0 3.357 0 5.875-1.679 5.036-4.197 10.072-7.554 14.269-11.751 3.357-3.357 3.357-8.393 0-11.751-3.358-3.356-8.394-3.356-11.751.001zm-333.22-87.291c.839 0 .839 0 1.679-.839 5.875-.839 10.911-1.679 16.787-2.518 4.197 0 7.554-5.036 6.715-9.233 0-4.197-5.036-7.554-9.233-6.715l-17.626 2.518c-4.197.839-7.554 5.875-6.715 10.072s4.196 6.715 8.393 6.715zm175.423-10.072c5.875 0 10.911.839 16.787 1.679h.839c4.197 0 8.393-3.357 9.233-7.554 0-4.197-3.357-8.393-7.554-9.233-5.875-.839-11.751-.839-17.626-1.679-5.036-.839-8.393 3.357-9.233 7.554-.839 5.036 3.357 8.393 7.554 9.233zm-23.502 168.708c4.197-.839 7.554-4.197 7.554-9.233-.839-4.197-4.197-8.393-9.233-7.554-5.036 0-10.911.839-16.787.839-4.197.839-7.554 4.197-7.554 9.233 0 4.197 4.197 7.554 8.393 7.554 6.716-.839 12.591-.839 17.627-.839zm84.774-20.984c-.839-5.036-5.875-7.554-10.072-6.715-5.875 1.679-10.911 2.518-16.787 3.357-4.197 0-7.554 5.036-6.715 9.233.839 3.357 4.197 6.715 8.393 6.715.839 0 .839 0 .839.839 5.875-.839 11.751-2.518 17.626-3.357 5.037-.839 7.555-5.875 6.716-10.072zm-194.728 11.751c-5.875-.839-10.911-.839-16.787-1.679-4.197 0-8.393 3.357-9.233 7.554 0 4.197 3.357 8.393 7.554 9.233 5.875.839 11.751.839 18.466 1.679 5.036 0 8.393-3.357 7.554-7.554.84-5.036-3.357-9.233-7.554-9.233zm268.59-141.849c-5.875-2.518-10.911-4.197-16.787-6.715-4.197-1.679-9.233.839-10.911 5.036s.839 9.233 5.036 10.911c5.036 2.518 10.072 4.197 15.108 6.715.839.839 2.518.839 3.357.839 3.357 0 5.875-1.679 8.393-5.875 1.68-4.196.001-9.233-4.196-10.911zM26.02 260.46c-.839-4.197-5.875-6.715-10.072-5.875-5.036.839-7.554 5.875-6.715 10.072 1.679 6.715 4.197 12.59 9.233 18.466 1.679 2.518 4.197 3.357 6.715 3.357s4.197-.839 5.036-2.518c4.197-2.518 4.197-8.393 1.679-11.751-2.519-4.197-5.037-7.555-5.876-11.751zm7.554-26.859c1.679 0 3.357-.839 6.715-1.679 3.357-3.357 7.554-5.875 12.59-9.233 3.357-2.518 5.036-7.554 2.518-11.751-2.518-3.357-7.554-5.036-11.751-2.518-5.875 3.357-10.911 6.715-15.108 10.911-3.357 3.357-4.197 8.393-.839 11.751.839 1.679 3.357 2.519 5.875 2.519zm-16.787-70.505c5.036 0 8.393-3.357 8.393-8.393s-3.357-8.393-8.393-8.393c-5.036 0-8.393 3.357-8.393 8.393s3.357 8.393 8.393 8.393zm193.049 260.196c-5.036 0-8.393 3.357-8.393 8.393 0 5.036 3.357 8.393 8.393 8.393s8.393-3.357 8.393-8.393c0-5.035-3.357-8.393-8.393-8.393zm125.902-310.557c5.036 0 8.393-3.357 8.393-8.393s-3.357-8.393-8.393-8.393c-5.036 0-8.393 3.357-8.393 8.393s3.357 8.393 8.393 8.393zm75.541-50.361h13.43l20.144 20.144v13.43c0 5.036 3.357 8.393 8.393 8.393 5.036 0 8.393-3.357 8.393-8.393v-13.43l20.144-20.144h13.429c5.036 0 8.393-3.357 8.393-8.393s-3.357-8.393-8.393-8.393h-13.429l-20.144-20.144v-13.43c0-5.036-3.357-8.393-8.393-8.393-5.036 0-8.393 3.357-8.393 8.393v13.43l-20.144 20.144h-13.43c-5.036 0-8.393 3.357-8.393 8.393s3.357 8.393 8.393 8.393zm41.967-21.823l13.43 13.43-13.43 13.43-13.43-13.43 13.43-13.43zM75.541 456.866c-14.269 0-25.18-10.911-25.18-25.18 0-5.036-3.357-8.393-8.393-8.393s-8.393 3.357-8.393 8.393c0 14.269-10.911 25.18-25.18 25.18-5.036 0-8.393 3.357-8.393 8.393s3.357 8.393 8.393 8.393c14.269 0 25.18 10.911 25.18 25.18 0 5.036 3.357 8.393 8.393 8.393s8.393-3.357 8.393-8.393c0-14.269 10.911-25.18 25.18-25.18 5.036 0 8.393-3.357 8.393-8.393s-3.357-8.393-8.393-8.393zm-33.574 16.787c-2.518-3.357-5.036-5.875-8.393-8.393 3.357-2.518 5.875-5.036 8.393-8.393 2.518 3.357 5.036 5.875 8.393 8.393-3.357 2.518-5.875 5.036-8.393 8.393z"/></svg>