<svg xmlns="http://www.w3.org/2000/svg" viewBox="0 0 512 512"><path d="M128 153.6c5.12 0 8.533-3.413 8.533-8.533 0-5.12-3.413-8.533-8.533-8.533s-8.533 3.413-8.533 8.533c0 5.12 3.413 8.533 8.533 8.533zm196.267 332.8c-5.12 0-8.533 3.413-8.533 8.533s3.413 8.533 8.533 8.533 8.533-3.413 8.533-8.533-3.413-8.533-8.533-8.533zm170.666-68.267c-5.12 0-8.533 3.413-8.533 8.533s3.413 8.533 8.533 8.533 8.533-3.413 8.533-8.533-3.413-8.533-8.533-8.533zM435.2 196.267c5.12 0 8.533-3.413 8.533-8.533s-3.413-8.533-8.533-8.533-8.533 3.413-8.533 8.533 3.413 8.533 8.533 8.533zm42.667-162.134c5.12 0 8.533-3.413 8.533-8.533s-3.413-8.533-8.533-8.533-8.533 3.413-8.533 8.533 3.413 8.533 8.533 8.533zm-153.6 315.734c0-21.685-4.26-42.365-11.97-61.265-23.16-60.125-82.188-102.575-151.016-102.575-17.92 0-35.84 3.413-53.76 9.387l-4.267 1.707-.289 1.737C42.662 222.478 0 281.152 0 349.867c0 27.741 6.959 53.842 19.218 76.665.116.335.247.667.408.989a166.376 166.376 0 0 0 6.393 10.506c27.012 41.642 72.616 70.078 125.094 73.594l.101.006c1.592.106 3.19.188 4.794.247.34.013.68.028 1.021.039 1.695.052 3.395.088 5.103.088 1.086 0 2.166-.016 3.244-.041a162.66 162.66 0 0 0 33.359-4.101 423.04 423.04 0 0 0 8.623-1.831 11.77 11.77 0 0 0 1.402-.834c66.843-20.014 115.507-81.94 115.507-155.327zm-186.027-61.44l5.12 2.56c11.093 5.12 20.48 9.387 27.307 6.827 6.827-1.707 11.947-8.533 13.653-16.213 2.56-8.533 0-17.92-5.12-23.04-.853-.853 0-3.413 0-3.413.853.853 1.707.853 3.413 3.413 5.12 5.12 11.093 6.827 17.92 4.267 11.947-3.413 19.627-18.773 21.333-31.573.853-3.413.853-7.68 0-11.093 44.373 19.627 76.8 62.293 82.773 113.493h-3.413c-5.12-4.267-12.8-10.24-21.333-7.68-11.093 4.267-12.8 17.92-14.507 29.013 0 2.56-.853 5.973-.853 6.827-3.413 5.12-7.68 7.68-12.8 7.68-11.093 0-23.893-10.24-30.72-20.48-.853-1.707-.853-4.267-1.707-6.827-.853-5.12-1.707-11.093-7.68-14.507-2.56-.853-4.267-1.707-6.827-1.707-4.267 0-9.387 1.707-15.36 2.56l-1.707.853c-13.653 5.973-13.653 5.973-20.48.853-1.707-1.707-2.56-3.413-3.413-5.973-1.707-5.973-6.827-18.773-26.453-13.653-1.707 0-2.56.853-3.413.853 3.414-5.974 5.974-13.654 4.267-23.04zm-28.16-59.734c2.56-4.267 5.973-9.387 7.68-15.36 23.04-6.827 47.787-8.533 69.973-5.12 0 .853-.853.853-.853.853-5.12 2.56-13.653 5.973-16.213 5.973-14.507 0-26.453 8.533-36.693 15.36-5.12 3.413-9.387 6.827-14.507 9.387-4.267 2.56-7.68-.853-8.533-1.707-1.707-2.559-3.414-5.972-.854-9.386zm77.653 215.04h30.72l-4.267 12.8-15.36 15.36c-1.707 1.707-2.56 3.413-2.56 5.973v12.8c-11.093 2.56-23.04 4.267-34.133 4.267-1.472 0-2.941-.027-4.407-.072-.295-.009-.588-.023-.882-.033a142.223 142.223 0 0 1-3.928-.193l-.314-.02c-41.835-2.781-80.499-23.742-105.91-56.824-.184-.241-.371-.48-.554-.722-.404-.533-.795-1.077-1.192-1.617a145.111 145.111 0 0 1-6.502-9.683l17.876-17.876 15.36-7.68 29.867-7.68 10.24 6.827c0 .853 0 .853.853.853l20.48 8.533c.853.853 2.56.853 3.413.853h23.893l18.773 5.973V435.2c.001 5.12 3.414 8.533 8.534 8.533zm25.6 41.921v-4.374l14.507-15.36c.853-.853 1.707-2.56 1.707-3.413l8.533-25.6c.853-2.56.853-5.12-.853-7.68-1.707-1.707-4.267-3.413-6.827-3.413h-34.133v-17.067c0-3.413-2.56-6.827-5.973-7.68l-25.6-8.533c-.853-.853-1.707-.853-2.56-.853H138.24L119.467 384l-12.8-7.68c-2.56-.853-4.267-1.707-6.827-.853L65.707 384c-.853 0-.853.853-1.707.853l-17.067 8.533c-.853.853-1.707.853-2.56 1.707l-14.509 14.509c-8.223-18.21-12.798-38.431-12.798-59.736 0-55.137 30.643-103.016 75.853-127.564-2.752 8.224-1.015 17.39 5.213 24.31 7.68 8.533 18.773 11.093 29.013 5.973 5.973-3.413 11.947-6.827 17.067-11.093 8.533-5.973 17.067-11.947 26.453-11.947 6.827 0 14.507-3.413 23.04-6.827 4.267-.853 9.387-3.413 11.947-4.267 2.56 3.413 1.707 10.24.853 11.947-2.56 8.533-7.68 14.507-10.24 14.507-11.093-10.24-20.48-7.68-26.453-2.56-6.827 6.827-8.533 19.627-1.707 27.307 1.707 1.707 2.56 5.12 1.707 7.68 0 1.707-1.707 3.413-2.56 4.267-2.56-.853-10.24-4.267-14.507-5.973-11.947-5.12-21.333-10.24-28.16-3.413-5.973 5.973-1.707 14.507-.853 17.067 2.56 6.827-.853 13.653-5.12 20.48-3.413 5.12-6.827 11.093-2.56 17.067 4.267 6.827 13.653 5.12 27.307 1.707 3.413-.853 5.12-.853 5.12-.853.853.853 1.707 2.56 1.707 3.413 1.707 4.267 3.413 9.387 8.533 13.653 13.653 11.093 18.773 9.387 37.547.853l2.56-1.707c1.707-.853 3.413-1.707 4.267-1.707v.853c0 4.267.853 9.387 4.267 13.653 8.533 13.653 26.453 28.16 45.227 28.16 8.533 0 19.627-2.56 28.16-16.213 1.707-2.56 2.56-6.827 3.413-12.8 0-3.413.853-10.24 2.56-13.653.853.853 3.413 1.707 5.973 5.12l2.56 2.56H307.2c0 62.182-38.977 115.124-93.867 135.788zM298.667 0A93.596 93.596 0 0 0 204.8 93.867c0 20.831 6.702 40.018 18.071 55.546.388.74.883 1.395 1.471 1.956 17.13 22.157 43.986 36.365 74.325 36.365a93.597 93.597 0 0 0 93.867-93.867A93.597 93.597 0 0 0 298.667 0zm0 170.667c-18.438 0-35.275-6.384-48.46-17.067h48.46c5.12 0 8.533-3.413 8.533-8.533 0-5.12-3.413-8.533-8.533-8.533h-63.995c-6.619-9.956-10.964-21.571-12.331-34.133h42.193c5.12 0 8.533-3.413 8.533-8.533 0-5.12-3.413-8.533-8.533-8.533h-42.193a76.595 76.595 0 0 1 7.441-25.626c.205.011.408.026.619.026h85.333c5.12 0 8.533-3.413 8.533-8.533s-3.413-8.533-8.533-8.533h-74.469c14.027-15.737 34.478-25.6 57.402-25.6 33.672 0 62.012 21.266 72.473 51.2h-21.273c-5.12 0-8.533 3.413-8.533 8.533s3.413 8.533 8.533 8.533h25.126c.305 2.802.474 5.646.474 8.533 0 5.876-.669 11.581-1.897 17.067h-49.303c-5.12 0-8.533 3.413-8.533 8.533s3.413 8.533 8.533 8.533h43.299c-12.49 25.36-38.526 42.666-68.899 42.666zM512 307.2c0-33.28-26.453-59.733-59.733-59.733s-59.733 26.453-59.733 59.733 26.453 59.733 59.733 59.733S512 340.48 512 307.2zm-59.733 42.667c-23.893 0-42.667-18.773-42.667-42.667 0-2.93.286-5.782.825-8.533H435.2c5.12 0 8.533-3.413 8.533-8.533s-3.413-8.533-8.533-8.533h-17.27c7.715-10.418 20.118-17.067 34.336-17.067 23.893 0 42.667 18.773 42.667 42.667 0 2.93-.286 5.782-.825 8.533h-24.775c-5.12 0-8.533 3.413-8.533 8.533s3.413 8.533 8.533 8.533h17.27c-7.715 10.418-20.119 17.067-34.336 17.067zM8.533 59.733h13.653l20.48 20.48v13.653c0 5.12 3.413 8.533 8.533 8.533s8.533-3.413 8.533-8.533V80.213l20.48-20.48h13.653c5.12 0 8.533-3.413 8.533-8.533s-3.413-8.533-8.533-8.533H80.213l-20.48-20.48V8.533C59.733 3.413 56.32 0 51.2 0s-8.533 3.413-8.533 8.533v13.653l-20.48 20.48H8.533C3.413 42.667 0 46.08 0 51.2s3.413 8.533 8.533 8.533zM51.2 37.547L64.853 51.2 51.2 64.853 37.547 51.2 51.2 37.547z"/></svg>