<svg xmlns="http://www.w3.org/2000/svg" viewBox="0 0 26 32"><path d="M24.885 11.399l-.48-.262a.064.064 0 0 1-.027-.027l-.262-.48c-.012-.022-.035-.036-.06-.036s-.049.014-.06.036l-.262.48a.064.064 0 0 1-.027.027l-.48.262c-.022.012-.036.034-.036.06s.014.049.036.06l.471.257a.07.07 0 0 1 .034.045l.259 1.15c.016.072.118.072.134 0l.259-1.15a.068.068 0 0 1 .034-.045l.471-.257c.021-.012.036-.034.036-.06s-.014-.049-.036-.06zm.824 3.623l-.309-.169a.042.042 0 0 1-.018-.017l-.169-.309c-.008-.014-.022-.023-.039-.023s-.031.009-.039.023l-.169.309a.058.058 0 0 1-.017.018l-.309.169c-.014.008-.023.022-.023.039s.009.031.023.039l.303.166a.046.046 0 0 1 .022.029l.167.742a.044.044 0 0 0 .087 0l.167-.742a.044.044 0 0 1 .022-.029l.303-.166c.014-.008.023-.022.023-.039s-.009-.031-.023-.039zm-5.214-.895a.042.042 0 0 1-.018-.017l-.169-.309c-.008-.014-.022-.023-.039-.023s-.031.009-.039.023l-.169.309a.042.042 0 0 1-.017.018l-.309.169c-.014.008-.023.022-.023.039s.009.031.023.039l.303.166a.046.046 0 0 1 .022.029l.166.742c.011.046.076.046.087 0l.167-.742a.044.044 0 0 1 .022-.029l.303-.166c.014-.008.023-.022.023-.039s-.009-.031-.023-.039z"/><path d="M22.703 23.514v-5.052l-.052.23a.286.286 0 0 1-.279.224h-.001-.002a.284.284 0 0 1-.278-.222v-.002l-.052-.23v4.941h-.769a.548.548 0 0 0-.548.548v1.751a.642.642 0 0 1-.642.642h-2.054a.41.41 0 0 0-.409.409v.882H4.96V.792h12.657v.922c0 .224.18.405.403.408v1.832a.142.142 0 1 0 .284 0V2.122h.626v2.743a.142.142 0 1 0 .284 0V2.122h.695v3.583a.142.142 0 1 0 .284 0V2.133a.643.643 0 0 1 .528.631v1.751c0 .303.245.548.548.548h.141v3.641a.142.142 0 1 0 .284 0V5.063h.344V15.39l.08-.146a.288.288 0 0 1 .503-.002l.001.001.08.146V4.951a.548.548 0 0 0 .219-.437V1.647A1.65 1.65 0 0 0 21.27-.004h-3.245a.402.402 0 0 0-.297.13H2.189A2.19 2.19 0 0 0 0 2.315v23.792a2.192 2.192 0 0 0 2.189 2.189h2.439v3.514c0 .165.2.248.317.131l1.203-1.204a.286.286 0 0 1 .406 0l1.087 1.173a.185.185 0 0 0 .321-.126v-3.489h9.733c.075.103.195.17.33.17h3.245a1.65 1.65 0 0 0 1.651-1.651v-2.867a.547.547 0 0 0-.218-.437zM1.215 14.21a.142.142 0 0 0-.142.142v4.849H.664V9.227h.409v2.627a.142.142 0 1 0 .284 0V9.227h2.938v9.974H1.357v-4.849a.142.142 0 0 0-.142-.142zM2.189.793h2.106v6.478H.663V2.319A1.527 1.527 0 0 1 2.188.793zM.664 26.11v-4.952h.409v1.082a.142.142 0 1 0 .284 0v-1.082h2.938v6.477h-.283v-2.16a.142.142 0 1 0-.284 0v2.16h-.284v-1.528a.142.142 0 1 0-.284 0v1.528h-.284v-.914a.142.142 0 1 0-.284 0v.914h-.401A1.526 1.526 0 0 1 .666 26.11z"/><path d="M18.859 14.562c0-3.098-2.52-5.619-5.619-5.619s-5.619 2.52-5.619 5.619 2.52 5.619 5.619 5.619a5.625 5.625 0 0 0 5.619-5.619zm-8.53 3.797l.223-1.304.642.094c.071.011.13.055.16.116l.001.001.368.747-1.084.571a.212.212 0 0 1-.265-.053.204.204 0 0 1-.045-.173v.001zm-2.043-3.797c0-.206.014-.41.039-.61l.654.636-.648.631a4.766 4.766 0 0 1-.045-.657zm1.807-1.188a.213.213 0 0 1-.062.189l-.577.561-.738-.718a.209.209 0 0 1-.054-.221v.001a.207.207 0 0 1 .171-.145h.001l1.172-.171zm-1.431 2.615a.205.205 0 0 1 .055-.218l.738-.718.577.561c.05.049.073.12.062.189l-.086.503-1.172-.171a.209.209 0 0 1-.172-.144v-.001zm1.832-.852l-.564-.549.564-.549a.874.874 0 0 0 .252-.782l.001.005-.083-.487.627-.091a.88.88 0 0 0 .658-.475l.002-.005.361-.731.523.276a.886.886 0 0 0 .822-.002l-.005.002.519-.273.36.727a.88.88 0 0 0 .656.479l.005.001.631.091-.085.492a.877.877 0 0 0 .252.777l.56.546-.56.546a.878.878 0 0 0-.252.782l-.001-.005.085.492-.631.091a.88.88 0 0 0-.659.475l-.002.005-.359.727-.519-.273a.882.882 0 0 0-.822.003l.005-.002-.523.276-.361-.731a.88.88 0 0 0-.655-.48l-.005-.001-.627-.091.083-.487a.88.88 0 0 0-.253-.777zm-.165-4.32a.207.207 0 0 1 .045-.172.218.218 0 0 1 .165-.079c.034 0 .067.009.1.026l1.084.571-.368.748a.216.216 0 0 1-.16.117h-.001l-.643.094zm5.829.003l-.223 1.299-.649-.094a.215.215 0 0 1-.16-.115l-.001-.001-.366-.742 1.089-.572a.217.217 0 0 1 .265.054.207.207 0 0 1 .045.173v-.001zm-1.694-.249l-.438-.887-.009-.016c.509.082.967.23 1.39.437l-.029-.013zm-.588.309l-.534.28a.216.216 0 0 1-.2-.001l.001.001-.539-.284.443-.898a.21.21 0 0 1 .189-.119h.003a.21.21 0 0 1 .192.119zm-1.424-1.195l-.435.883-.907-.478a4.799 4.799 0 0 1 1.323-.417l.028-.004-.009.016zm5.743 4.877c0 .224-.016.445-.046.662l-.651-.635.657-.641c.025.202.04.406.04.614zm-1.804 1.237a.213.213 0 0 1 .062-.189l.572-.558.741.723a.209.209 0 0 1 .053.221v-.001a.208.208 0 0 1-.172.145h-.001l-1.167.169zm1.427-2.616a.207.207 0 0 1-.054.219l-.741.723-.572-.558a.213.213 0 0 1-.062-.19v.001l.088-.509 1.167.169a.209.209 0 0 1 .172.144v.001zm-1.66 5.174a.214.214 0 0 1-.311.225l.001.001-1.089-.572.366-.742a.216.216 0 0 1 .16-.117h.001l.649-.094zm-2.282-.061l-.446.902a.208.208 0 0 1-.188.119h-.008a.208.208 0 0 1-.188-.118l-.001-.001-.443-.898.539-.284a.216.216 0 0 1 .2.001l-.001-.001zm-1.859.313l.414.84a4.88 4.88 0 0 1-1.297-.404l.03.013zm2.447-.004l.859.451a4.75 4.75 0 0 1-1.247.39l-.029.004zm2.311-.575l-.184-1.067 1.063-.154a4.982 4.982 0 0 1-.88 1.222l.001-.001zm.909-5.658l-1.093-.158.191-1.112c.356.363.657.782.888 1.242l.013.029zm-7.981-1.275l.191 1.12-1.099.16c.246-.492.549-.914.909-1.281l-.001.001zm-.878 5.707l1.07.156-.184 1.074a4.98 4.98 0 0 1-.873-1.203l-.013-.028z"/><path d="M15.304 14.573a2.063 2.063 0 1 1-4.127 0 2.063 2.063 0 0 1 4.127 0zM16.678 21.652a.332.332 0 0 0-.332-.332h-6.21a.333.333 0 0 0-.001.664h6.211a.333.333 0 0 0 .332-.332zm-5.501.806a.332.332 0 0 0 0 .664h4.127a.332.332 0 0 0 .001-.664h-.001zM1.215 4.444a.142.142 0 0 0 .142-.142V2.491a1.005 1.005 0 0 1 1.004-1.004h.165a.142.142 0 1 0 0-.284h-.165a1.29 1.29 0 0 0-1.289 1.289v1.811c0 .078.064.142.142.142zm0 2.149a.142.142 0 0 0 .142-.142V4.965a.142.142 0 1 0-.284 0v1.486c0 .079.064.142.142.142zm.143 5.917a.142.142 0 1 0-.284 0v1.178a.142.142 0 1 0 .284 0zm20.195-3.231a.142.142 0 0 0-.142.142v1.256a.142.142 0 1 0 .284 0V9.421a.142.142 0 0 0-.142-.142zm1.822 7.238l-.58-.318a.087.087 0 0 1-.033-.033l-.318-.58c-.015-.026-.042-.043-.073-.043s-.059.017-.073.043l-.318.58a.087.087 0 0 1-.033.033l-.58.318c-.026.015-.043.042-.043.073s.017.059.043.073l.569.311a.08.08 0 0 1 .041.055l.313 1.392c.02.087.143.087.163 0l.313-1.392a.089.089 0 0 1 .041-.055l.569-.311c.026-.015.043-.042.043-.073s-.017-.059-.043-.073z"/></svg>