<svg xmlns="http://www.w3.org/2000/svg" viewBox="0 0 27 32"><path d="M26.468 16.041l-3.325-1.596a.479.479 0 0 0-.685.431v1.018h-1.075c1.088-3.213.395-5.855-2.012-7.651-.391-.291-.924-.599-1.488-.924-1.486-.856-3.302-1.903-3.48-3.204.194.067.418.107.652.107 1.164 0 2.112-.947 2.112-2.112S16.22-.001 15.055-.001c-.675 0-1.311.337-1.746.926-.872 1.178-1.192 2.487-.927 3.787.033.16.076.318.125.475a.272.272 0 0 0-.054.074l-5.27 10.635h-.685l-1.637-2.068a.288.288 0 0 0-.225-.109l-4.35.001a.287.287 0 0 0-.221.469v-.001l1.821 2.21-1.821 2.21a.286.286 0 0 0 .22.468l4.35.001c.088 0 .17-.04.225-.109l1.641-2.073h.82l5.258 9.694.001.001a4.384 4.384 0 0 0-.196.663l-.006.031c-.265 1.299.055 2.609.928 3.787.435.588 1.072.926 1.746.926 1.164 0 2.112-.947 2.112-2.111s-.948-2.111-2.112-2.111c-.22 0-.441.037-.653.108.177-1.302 1.994-2.348 3.48-3.204.564-.325 1.098-.632 1.489-.924 2.208-1.647 2.974-4.004 2.247-6.862h.839v1.02a.48.48 0 0 0 .685.431l3.325-1.596a.391.391 0 0 0 .223-.353v-.001-.003a.39.39 0 0 0-.22-.351l-.002-.001zM13.769 1.267c.326-.441.795-.694 1.285-.694a1.54 1.54 0 0 1 1.538 1.538 1.54 1.54 0 0 1-1.538 1.538c-.275 0-.541-.076-.789-.226a.287.287 0 0 0-.431.206v.002c-.246 1.873 1.977 3.155 3.764 4.184.549.316 1.067.615 1.431.886 2.82 2.104 2.509 5.07 1.749 7.191h-1.231a.32.32 0 0 1 .045-.127.326.326 0 0 0 .026-.053c.609-1.645 1.1-3.75-.517-5.438-.738-.771-1.682-1.278-2.595-1.77a23.095 23.095 0 0 1-1.043-.576l.133.072c-1.412-.829-2.379-2.07-2.651-3.405-.232-1.136.054-2.287.826-3.331zm-.983 4.613c.507 1.031 1.381 1.95 2.518 2.617.303.178.621.349.928.514.874.47 1.778.956 2.453 1.661 1.389 1.45.949 3.333.403 4.818a.916.916 0 0 0-.118.401v.003l-11.147.002zm-8.288 8.413l1.269 1.604h-.492l-.982-1.258a.123.123 0 0 0-.194.152l.864 1.106h-.874l-.982-1.258a.123.123 0 1 0-.193.151l.864 1.107h-.874l-.982-1.258a.123.123 0 0 0-.218.078c0 .028.009.053.024.074l.864 1.107h-.376L.894 14.294zm0 4.212l-3.603-.001 1.324-1.607h.326l-.817 1.046a.123.123 0 0 0 .193.151l.934-1.197h.875l-.817 1.046a.123.123 0 0 0 .193.152l.935-1.197h.875l-.817 1.046a.123.123 0 0 0 .194.151l.935-1.197h.543zm3.476-1.608l11.249-.002c.473 1.415.734 3.105-.538 4.432-.676.705-1.579 1.191-2.453 1.661-.46.241-.764.412-1.064.588l.135-.073c-1.07.628-1.908 1.478-2.426 2.434zm11.054 6.4c-.364.271-.883.571-1.432.887-1.787 1.029-4.012 2.31-3.763 4.184a.287.287 0 0 0 .433.207l-.001.001a1.51 1.51 0 0 1 .79-.226 1.538 1.538 0 0 1 .078 3.072v-.786a.123.123 0 1 0-.246 0v.78a1.545 1.545 0 0 1-.31-.071l.01.003v-.875a.123.123 0 1 0-.246 0v.767a1.667 1.667 0 0 1-.275-.19l.002.002v-.893a.123.123 0 1 0-.246 0v.643l-.05-.063-.003-.005c-.773-1.044-1.059-2.197-.827-3.332.272-1.334 1.239-2.575 2.652-3.405.161-.1.459-.268.76-.43l.15-.074c.913-.491 1.857-.999 2.595-1.769 1.424-1.486 1.213-3.295.727-4.829h1.197c.543 2.025.49 4.549-1.995 6.402zm4.003-5.533v-.272l1.69-.836a.123.123 0 1 0-.11-.22h.001l-1.581.782v-2.191l2.851 1.369z"/><path d="M13.178 3.782h.003a.123.123 0 0 0 .123-.121c.034-1.748 1.345-2.523 1.359-2.531a.123.123 0 1 0-.123-.213h.001c-.059.034-1.445.849-1.482 2.74v.003c0 .067.053.121.12.122zm.125.334a.127.127 0 0 0-.126-.119.123.123 0 0 0-.119.123v.004c.001.041.037 1.022.481 1.53a.123.123 0 0 0 .174.012.123.123 0 0 0 .042-.092.124.124 0 0 0-.031-.081c-.385-.442-.42-1.367-.42-1.377zm5.995 17.718a.123.123 0 1 0 .172.175c1.628-1.608 1.144-3.599 1.138-3.619a.123.123 0 1 0-.238.062v-.001c.004.018.452 1.878-1.073 3.383zm-.336.32a5.45 5.45 0 0 1-1.058.758.123.123 0 1 0 .117.216h-.001c.622-.332 1.093-.779 1.112-.797a.123.123 0 1 0-.17-.178z"/></svg>