<svg xmlns="http://www.w3.org/2000/svg" viewBox="0 0 21 32"><path d="M9.585 11.55l.497.272c.018.01.031.027.036.048l.273 1.216c.017.076.125.076.142 0l.273-1.216a.074.074 0 0 1 .036-.048l.497-.272c.023-.013.038-.037.038-.064s-.015-.051-.037-.064l-.507-.277a.08.08 0 0 1-.029-.029l-.277-.507c-.013-.023-.037-.038-.064-.038s-.051.015-.064.037l-.277.507a.08.08 0 0 1-.029.029l-.507.277c-.023.013-.038.036-.038.064s.015.051.038.064zm1.551 3.219a.029.029 0 0 1-.011-.011l-.111-.203c-.005-.009-.015-.015-.026-.015s-.021.006-.026.015l-.111.203a.029.029 0 0 1-.011.011l-.203.111c-.009.005-.015.015-.015.026s.006.021.015.026l.199.109a.03.03 0 0 1 .014.019l.11.487c.007.03.05.03.057 0l.11-.487a.03.03 0 0 1 .014-.019l.199-.109c.009-.005.015-.015.015-.026s-.006-.021-.015-.026zm.401-1.812l.301.165a.046.046 0 0 1 .022.029l.166.738c.01.046.076.046.086 0l.166-.738a.044.044 0 0 1 .022-.029l.301-.165c.014-.008.023-.022.023-.039s-.009-.031-.023-.039l-.308-.168a.046.046 0 0 1-.017-.017l-.169-.308c-.008-.014-.022-.023-.039-.023s-.031.009-.039.023l-.168.308a.046.046 0 0 1-.017.017l-.308.168c-.014.008-.023.022-.023.039s.009.031.023.039z"/><path d="M20.961 26.105c-.03-.054-.081-.145-7.325-6.011a.448.448 0 0 0-.015-.42l.001.002-.174-.312a.456.456 0 0 0-.366-.234h-.002l-.185-1.274a.67.67 0 0 0-.659-.57.668.668 0 0 0-.323.084l-1.004.558L3.743 5.084l.487-1.906a.73.73 0 0 0-.247-.751l-.001-.001L1.198.164a.735.735 0 0 0-.929 1.14l.001.001L2.689 3.27l-.443 1.735a.743.743 0 0 0 .072.544l-.002-.004 7.308 13.098-1.091.607a.664.664 0 0 0-.106 1.089l.001.001.985.829a.454.454 0 0 0 .006.438l-.001-.002.174.312a.458.458 0 0 0 .348.232c1.164 9.247 1.214 9.339 1.244 9.393.169.303.533.457 1.083.457 1.097 0 2.888-.618 4.674-1.611 1.267-.705 2.382-1.512 3.139-2.274.837-.844 1.141-1.538.879-2.01zM3.872 7.568a.106.106 0 0 1-.144-.042v-.001L2.601 5.47a.691.691 0 0 1-.06-.533l-.001.005.151-.545a.107.107 0 0 1 .208.035l-.002.023v-.001l-.151.545a.495.495 0 0 0 .044.371l-.001-.003 1.127 2.055a.106.106 0 0 1-.042.144h-.001zm.462.816a.104.104 0 0 1-.145-.038v-.001l-.257-.443a.106.106 0 0 1 .184-.106l.257.443a.107.107 0 0 1-.039.145zm4.357 11.432a.166.166 0 0 1 .085-.131h.001l.4-.223.295.277c.102.096.19.018.138-.122l-.123-.327 1.96-1.091.213.277c.091.119.204.085.176-.053l-.08-.397.4-.223a.168.168 0 0 1 .249.123v.001l.197 1.36-.127.071-.138-.945a.106.106 0 1 0-.21.031v-.001l.149 1.025-.883.491-.063-.113a.107.107 0 1 0-.186.105v-.001l.063.112-.193.107-.15-.269a.106.106 0 1 0-.185.103v-.001l.15.269-.149.083-.315-.566a.106.106 0 1 0-.185.103v-.001l.315.566-.146.081-.15-.269a.107.107 0 1 0-.186.105v-.001l.15.269-.36.2-1.052-.885a.166.166 0 0 1-.059-.146v.001zm3.578 11.687c-.32 0-.548-.065-.634-.178-.091-.5-.756-5.706-1.214-9.343l.193-.107.527 3.891a.106.106 0 0 0 .211-.014l-.001-.015v.001l-.538-3.974 1.102-.613.183.326a.106.106 0 1 0 .185-.104v.001l-.182-.326.137-.076.438.574a.106.106 0 1 0 .169-.129l-.419-.549.1-.056 1.382 1.167a.107.107 0 0 0 .137-.163l-1.32-1.115.516-.287c2.849 2.307 6.92 5.617 7.298 5.959.02.052.023.124.003.214l-.377-.32a.102.102 0 0 0-.069-.025.106.106 0 0 0-.069.187l.44.372a1.989 1.989 0 0 1-.147.261l.005-.008-.204-.18a.107.107 0 0 0-.071-.028.106.106 0 0 0-.069.187l.221.195c-.076.101-.167.21-.273.327l-.99-.874c-.069-.061-.173.012-.139.097l.534 1.359c-.598.529-1.357 1.071-2.206 1.573l-.772-.898c-.068-.079-.196-.013-.172.088l.285 1.181c-.661.355-1.325.658-1.944.891l-1.053-1.412c-.058-.078-.183-.025-.166.071l.279 1.651a8.435 8.435 0 0 1-.291.076l-.112-.624a.106.106 0 0 0-.211.015l.002.023v-.001l.114.633a4.153 4.153 0 0 1-.817.097z"/><path d="M11.422 26.172a.106.106 0 1 0-.21.027v-.001l.088.709a.107.107 0 0 0 .106.093.106.106 0 0 0 .106-.106l-.001-.014v.001zm8.299.021a.106.106 0 0 0 .15-.014.108.108 0 0 0-.014-.15l-1.099-.908a.106.106 0 0 0-.136.164zm-6.647 3.997l-.227-1.264a.108.108 0 0 0-.124-.086h.001a.107.107 0 0 0-.086.124v-.001l.228 1.264a.106.106 0 0 0 .21-.022l-.001-.016v.001z"/></svg>