<svg xmlns="http://www.w3.org/2000/svg" viewBox="0 0 33 32"><path d="M63.407 21.895c-.051-.091-.136-.244-12.289-10.084a.765.765 0 0 0-.025-.706l.002.004-.291-.523a.77.77 0 0 0-.614-.393h-.002l-.31-2.137a1.123 1.123 0 0 0-1.105-.956 1.12 1.12 0 0 0-.541.141l-1.684.937-12.023-21.549.817-3.198a1.23 1.23 0 0 0-.416-1.261l-.002-.002-4.671-3.795a1.234 1.234 0 0 0-1.558 1.914l.002.002 4.058 3.297-.743 2.91a1.231 1.231 0 0 0 .121.912l-.003-.006L44.391 9.377l-1.831 1.018a1.116 1.116 0 0 0-.178 1.827l.002.001 1.653 1.39a.756.756 0 0 0 .01.735l-.002-.004.291.523a.766.766 0 0 0 .584.389c1.952 15.514 2.037 15.667 2.087 15.759.283.508.894.766 1.817.766 1.84 0 4.844-1.036 7.842-2.703 2.126-1.183 3.996-2.538 5.265-3.815 1.405-1.416 1.914-2.581 1.474-3.373zM34.738-9.204a.178.178 0 0 1-.242-.07v-.001l-1.89-3.448a1.164 1.164 0 0 1-.101-.893l-.002.008.253-.915a.18.18 0 0 1 .344.096v-.001l-.253.915a.826.826 0 0 0 .074.623l-.002-.004 1.89 3.448a.178.178 0 0 1-.07.241h-.001zm.774 1.368a.18.18 0 0 1-.09.024.176.176 0 0 1-.153-.088v-.001l-.431-.744a.178.178 0 0 1 .308-.179v.001l.432.743a.18.18 0 0 1-.064.243h-.001zm7.31 19.181a.283.283 0 0 1 .142-.22l.001-.001.671-.373.495.465c.172.161.319.03.231-.205l-.206-.549 3.288-1.83.358.465c.153.199.342.143.296-.088l-.134-.666.671-.373a.283.283 0 0 1 .418.205v.002l.331 2.282-.213.119-.231-1.585a.179.179 0 0 0-.176-.153.178.178 0 0 0-.178.178l.002.027v-.001l.25 1.72-1.481.824-.105-.189a.18.18 0 0 0-.33.096c0 .028.007.055.018.078v-.001l.105.189-.324.18-.251-.452a.179.179 0 1 0-.312.175v-.001l.251.452-.251.14-.528-.95a.179.179 0 1 0-.312.175v-.001l.528.949-.245.136-.251-.452a.18.18 0 0 0-.33.096c0 .028.007.055.018.078v-.001l.251.452-.604.336-1.765-1.485a.282.282 0 0 1-.098-.245v.001zm6.003 19.606c-.537 0-.919-.109-1.064-.299-.153-.84-1.269-9.573-2.037-15.675l.323-.18.884 6.528a.178.178 0 0 0 .354-.027l-.001-.021v.001l-.902-6.667 1.849-1.028.306.548a.179.179 0 1 0 .312-.176v.001l-.306-.547.231-.128.735.962a.178.178 0 1 0 .283-.217l-.703-.921.167-.093 2.318 1.958a.18.18 0 0 0 .282-.147.18.18 0 0 0-.052-.126l-2.215-1.871.865-.481c4.779 3.87 11.611 9.424 12.244 9.997a.642.642 0 0 1 .005.358l-.633-.536a.178.178 0 0 0-.23.272l.738.625a3.504 3.504 0 0 1-.246.438l.008-.013-.342-.302a.178.178 0 0 0-.236.267l.37.328c-.128.17-.28.353-.458.548l-1.661-1.466c-.115-.102-.289.02-.233.163l.895 2.28c-1.003.888-2.276 1.796-3.7 2.638l-1.296-1.506c-.114-.132-.329-.022-.288.148l.479 1.981a27.502 27.502 0 0 1-3.26 1.495l-1.767-2.368c-.098-.131-.306-.042-.279.12l.469 2.77c-.166.046-.33.089-.488.127l-.188-1.047a.178.178 0 1 0-.35.064v-.001l.191 1.062a7.016 7.016 0 0 1-1.37.162zM3.008 17.026l-.851-.465a.117.117 0 0 1-.048-.048v-.001l-.465-.851c-.021-.038-.061-.063-.107-.063s-.086.025-.107.063v.001l-.465.851a.117.117 0 0 1-.048.048H.916l-.851.465c-.038.021-.064.061-.064.107s.026.086.063.107h.001l.834.456c.03.017.052.046.06.08v.001l.458 2.04c.029.127.21.127.239 0l.458-2.04a.123.123 0 0 1 .06-.08h.001l.834-.456a.122.122 0 1 0 .001-.214h-.001zm-.882 7.23l-.341-.187a.044.044 0 0 1-.019-.019l-.187-.341c-.008-.015-.025-.026-.043-.026s-.034.01-.043.025l-.187.341a.044.044 0 0 1-.019.019l-.341.187c-.015.008-.026.025-.026.043s.01.035.025.043l.334.183a.054.054 0 0 1 .025.032l.184.818c.012.051.084.051.096 0l.184-.818a.049.049 0 0 1 .024-.032l.334-.183c.015-.009.025-.025.025-.043s-.01-.034-.025-.043zm2.507-2.793l-.516-.282a.08.08 0 0 1-.029-.029l-.282-.516c-.013-.023-.037-.039-.065-.039s-.052.016-.065.039l-.282.516a.08.08 0 0 1-.029.029l-.516.282a.074.074 0 1 0-.001.13l.506.277c.018.01.032.028.037.048l.278 1.238c.017.077.127.077.145 0l.278-1.238a.074.074 0 0 1 .037-.049l.506-.277c.024-.013.04-.037.04-.065s-.015-.052-.038-.064zM23.41 11.116c-3.887 0-7.049 3.162-7.049 7.049s3.162 7.049 7.049 7.049 7.049-3.162 7.049-7.049-3.162-7.049-7.049-7.049zm6.216 7.049c0 .282-.021.558-.057.83l-.817-.797.824-.804c.032.253.05.51.05.771zm-2.557 4.761a.254.254 0 0 1-.057.216.27.27 0 0 1-.334.067l.001.001-1.367-.717.46-.93a.272.272 0 0 1 .2-.147h.002l.814-.118zm-7.313.004l.28-1.636.806.118a.268.268 0 0 1 .201.145l.001.002.463.938-1.361.716a.269.269 0 0 1-.332-.066.254.254 0 0 1-.057-.217v.002zm2.118.313l.519 1.053a6.195 6.195 0 0 1-1.628-.506l.038.016zm.737-.388l.676-.356a.268.268 0 0 1 .251.001l-.002-.001.67.352-.559 1.132a.261.261 0 0 1-.236.149h-.008a.26.26 0 0 1-.236-.148l-.001-.002zm2.333.383l1.078.566a5.983 5.983 0 0 1-1.565.489l-.036.005zm.912-2.648a1.102 1.102 0 0 0-.826.595l-.003.006-.451.912-.652-.342a1.122 1.122 0 0 0-1.03.003l.006-.003-.657.346-.452-.918a1.104 1.104 0 0 0-.823-.602l-.006-.001-.786-.115.104-.611a1.1 1.1 0 0 0-.316-.974l-.708-.689.708-.689a1.1 1.1 0 0 0 .316-.981l.001.007-.104-.611.786-.115c.366-.055.668-.283.826-.596l.003-.006.452-.918.657.346a1.115 1.115 0 0 0 1.03-.003l-.006.003.652-.342.451.912c.16.32.463.548.823.601l.006.001.791.115-.106.617a1.097 1.097 0 0 0 .316.974l.702.685-.702.685a1.097 1.097 0 0 0-.315.981l-.001-.007.106.617zm-8.662-2.425c0-.259.018-.514.049-.766l.82.799-.813.791a5.997 5.997 0 0 1-.056-.824zm2.266-1.49a.268.268 0 0 1-.077.237l-.723.704-.925-.901a.259.259 0 0 1-.068-.276l-.001.002a.26.26 0 0 1 .215-.182h.001l1.47-.214zm-1.794 3.281a.263.263 0 0 1 .068-.275l.925-.902.723.704a.27.27 0 0 1 .077.238l-.108.631-1.47-.214a.263.263 0 0 1-.216-.181v-.002zm2.09-6.489a.253.253 0 0 1 .057-.216.273.273 0 0 1 .207-.099c.042 0 .084.011.125.032l1.36.716-.462.938a.27.27 0 0 1-.2.147h-.001l-.806.118zm7.313.003l-.28 1.63-.814-.118a.268.268 0 0 1-.201-.145l-.001-.002-.46-.93 1.367-.717a.269.269 0 0 1 .332.066.258.258 0 0 1 .057.215zm-2.125-.312l-.55-1.113c-.003-.007-.008-.013-.012-.02a6.146 6.146 0 0 1 1.744.548l-.036-.016zm-.737.388l-.67.352a.268.268 0 0 1-.251-.001l.002.001-.676-.356.555-1.127a.262.262 0 0 1 .236-.15h.005c.05 0 .174.015.24.149zm-1.787-1.5l-.546 1.107-1.139-.599a6.008 6.008 0 0 1 1.66-.523l.036-.005a.352.352 0 0 1-.012.02zm5.052 3.995l1.464.212a.262.262 0 0 1 .216.181v.002a.259.259 0 0 1-.068.275l-.929.907-.717-.7a.268.268 0 0 1-.077-.239v.002zm-.11 3.676a.268.268 0 0 1 .077-.238l.717-.7.929.907a.263.263 0 0 1 .067.277l.001-.002a.262.262 0 0 1-.215.182h-.001l-1.464.212zm.251-4.497l.24-1.395c.446.456.824.981 1.114 1.558l.016.036zm-8.642-1.402l.24 1.404-1.379.201a6.299 6.299 0 0 1 1.14-1.607l-.001.001zm-1.102 7.16l1.343.196-.231 1.348a6.251 6.251 0 0 1-1.096-1.509l-.016-.035zm9.974 1.538l-.23-1.339 1.334-.193a6.28 6.28 0 0 1-1.105 1.533l.001-.001z"/><path d="M25.998 18.179a2.589 2.589 0 1 1-5.178 0 2.589 2.589 0 0 1 5.178 0z"/><path d="M29.761 4.358h-10.09l-.673-2.275A2.926 2.926 0 0 0 16.21-.001c-.279 0-.557.04-.827.12L3.204 3.725a2.904 2.904 0 0 0-1.723 1.386l-.008.015c-.223.4-.354.878-.354 1.386 0 .295.044.58.127.848l-.005-.02 6.195 20.926a2.926 2.926 0 0 0 2.788 2.084c.279 0 .557-.04.827-.12l3.109-.921a2.912 2.912 0 0 0 2.9 2.69h12.702a2.912 2.912 0 0 0 2.909-2.909V7.266a2.912 2.912 0 0 0-2.908-2.909zM10.814 29.432c-.177.054-.38.086-.59.086a2.089 2.089 0 0 1-1.986-1.472l-.004-.015L2.039 7.105a2.058 2.058 0 0 1 .172-1.591l-.005.011c.263-.48.698-.839 1.22-.996l.015-.004L15.62.919c.177-.054.38-.086.59-.086a2.09 2.09 0 0 1 1.986 1.472l.004.015.604 2.038h-.77l-.432-1.327a.178.178 0 1 0-.339.111v-.001l.396 1.216h-.598a2.912 2.912 0 0 0-2.909 2.909v3.219a3.3 3.3 0 0 0-.973 2.344c0 .36.057.706.163 1.03l-.007-.023a3.32 3.32 0 0 0-3.145-2.272 3.313 3.313 0 0 0-3.161 4.309l-.006-.023c.861 2.7 5.038 3.761 7.128 4.127v2.055l-.404-1.318a.178.178 0 1 0-.34.105v-.001l.745 2.432v2.382l-.716-2.338a.178.178 0 1 0-.34.105v-.001l1.057 3.452v1.591l-.308.091-.911-2.94a.178.178 0 1 0-.34.106v-.001l.909 2.936-.699.207-.432-1.297a.178.178 0 0 0-.227-.112h.001a.178.178 0 0 0-.112.227v-.001l.428 1.286-.656.194-.25-.749a.178.178 0 1 0-.338.114v-.001l.245.738zm21.022-.341a2.078 2.078 0 0 1-2.076 2.076H17.059a2.078 2.078 0 0 1-2.076-2.076V7.267a2.078 2.078 0 0 1 2.076-2.076h10.74v1.228a.178.178 0 1 0 .356 0V5.191h.654v1.703a.178.178 0 1 0 .356 0V5.191h.593c.035 0 .069.004.103.005v2.73a.178.178 0 1 0 .356 0V5.244c.286.067.538.184.757.344l-.006-.004v2.982a.178.178 0 1 0 .356 0V5.91c.316.361.509.836.509 1.357z"/><path d="M5.658 4.5l-1.814.548a1.717 1.717 0 0 0-1.141 2.134L2.7 7.17l1.203 4.064a.18.18 0 0 0 .224.12h-.001a.18.18 0 0 0 .12-.223v.001L3.043 7.068a1.356 1.356 0 0 1 .896-1.676l.01-.003 1.814-.548a.179.179 0 1 0-.105-.342h.001zm-1.022 7.971a.178.178 0 0 0-.34.106v-.001l.361 1.173a.179.179 0 0 0 .35-.053.19.19 0 0 0-.008-.054v.001zm16.185 17.717H17.43a1.37 1.37 0 0 1-1.368-1.368v-4.272a.178.178 0 1 0-.356 0v4.272a1.727 1.727 0 0 0 1.725 1.725h3.391a.178.178 0 1 0 0-.356zm2.589 0h-1.538a.178.178 0 1 0 0 .356h1.538a.178.178 0 1 0 0-.356zm-7.526-16.696c.099 0 .178-.08.178-.178v-2.767a.178.178 0 1 0-.356 0v2.767c0 .098.08.178.178.178zm0-3.482c.099 0 .178-.08.178-.178V8.449a.178.178 0 1 0-.356 0v1.383c0 .099.08.178.178.178z"/></svg>