<svg xmlns="http://www.w3.org/2000/svg" viewBox="0 0 22 32"><path d="M10.985 12.243V7.96h5.741a.33.33 0 0 0 .33-.33V3.356a.33.33 0 0 0-.33-.33h-5.741V2.001c0-.014-.002-.028-.004-.042A1 1 0 1 0 9.697 1c0 .451.299.832.71.957l.007.002c-.002.014-.004.027-.004.042v10.241L4.736 24.745a.288.288 0 0 0 .262.407h.422v.582a.728.728 0 0 0 .727.727h.113v5.252a.288.288 0 0 0 .576 0v-5.252h5.051v.735a.123.123 0 1 0 .246 0v-.735h.562v1.174a.123.123 0 1 0 .246 0v-1.174h.452v3.085a.124.124 0 1 0 .248 0v-3.085h.384v1.174a.123.123 0 1 0 .246 0v-1.174h.289v5.252a.288.288 0 1 0 .576 0v-5.258a.73.73 0 0 0 .647-.723v-.582h.424a.288.288 0 0 0 .25-.432l.001.001zm2.848 10.658a.206.206 0 0 0-.206.206c0 .215-.268.397-.585.397s-.585-.182-.585-.397a.206.206 0 1 0-.412 0c0 .215-.268.397-.585.397s-.585-.182-.585-.397a.206.206 0 1 0-.412 0c0 .215-.268.397-.585.397s-.585-.182-.585-.397a.206.206 0 1 0-.412 0c0 .215-.268.397-.585.397s-.585-.182-.585-.397a.206.206 0 1 0-.412 0c0 .215-.268.397-.585.397s-.585-.182-.585-.397a.271.271 0 0 0-.004-.041v.001l.598-1.318c.183.186.464.306.779.306.322 0 .609-.125.791-.318.182.193.468.318.791.318s.609-.125.79-.318c.182.193.468.318.791.318s.609-.125.79-.318c.182.193.468.318.791.318s.609-.125.79-.318c.182.193.468.318.791.318.282 0 .537-.096.718-.25l.627 1.429c-.081.154-.301.268-.552.268-.317 0-.585-.182-.585-.397v-.004a.201.201 0 0 0-.201-.201h-.002zm-6.289-2.954c.183.171.452.279.752.279.322 0 .609-.125.791-.318.182.193.468.318.79.318s.609-.125.791-.318c.182.193.468.318.79.318s.609-.125.791-.318c.182.193.468.318.79.318.278 0 .53-.093.711-.243l.62 1.414c-.089.143-.3.246-.539.246-.317 0-.585-.182-.585-.397a.206.206 0 0 0-.412 0c0 .215-.268.397-.585.397s-.585-.182-.585-.397a.206.206 0 0 0-.412 0c0 .215-.268.397-.585.397s-.585-.182-.585-.397a.206.206 0 0 0-.412 0c0 .215-.268.397-.585.397s-.585-.182-.585-.397v-.008a.206.206 0 1 0-.412 0v.008c0 .215-.268.397-.585.397-.288 0-.534-.15-.578-.339zm.818-1.803c.182.157.439.255.724.255.322 0 .609-.125.79-.318.182.193.468.318.791.318s.609-.125.79-.318c.182.193.468.318.791.318.274 0 .522-.09.703-.236l.621 1.416c-.093.138-.3.237-.533.237-.317 0-.585-.182-.585-.397v-.008a.206.206 0 1 0-.412 0v.008c0 .215-.268.397-.585.397s-.585-.182-.585-.397a.206.206 0 1 0-.412 0c0 .215-.268.397-.585.397s-.585-.182-.585-.397a.206.206 0 1 0-.412 0c0 .215-.268.397-.585.397-.261 0-.489-.124-.561-.288zm.804-1.772c.181.151.434.246.714.246.322 0 .608-.125.79-.319.182.193.468.319.79.319.277 0 .527-.092.708-.24l.606 1.383c-.096.133-.298.228-.526.228-.317 0-.585-.182-.585-.397a.206.206 0 0 0-.412 0c0 .215-.268.397-.585.397s-.585-.182-.585-.397a.206.206 0 0 0-.412 0c0 .215-.268.397-.585.397-.24 0-.452-.104-.54-.248zm1.526-3.362l1.299 2.964c-.094.136-.299.233-.53.233-.317 0-.585-.182-.585-.397a.206.206 0 1 0-.412 0c0 .215-.268.397-.585.397-.232 0-.438-.098-.532-.235zM5.9 23.568c.181.209.479.346.817.346.322 0 .609-.125.79-.318.182.193.468.318.791.318s.609-.125.791-.318c.182.193.468.318.791.318s.608-.125.79-.318c.182.193.468.318.79.318s.609-.125.791-.318c.182.193.468.318.79.318s.609-.125.791-.318c.182.193.468.318.79.318.29 0 .552-.102.734-.264l.405.924H5.441zm9.306 2.164a.151.151 0 0 1-.152.151H6.147a.152.152 0 0 1-.152-.151v-.582h9.211v.582z"/><path d="M14.972 8.344v1.087c0 .236.192.428.428.428h4.568a.228.228 0 0 0 .176-.373l-1.593-1.951c-.032-.039-.051-.089-.051-.144s.019-.105.052-.145l1.593-1.951a.228.228 0 0 0-.177-.372H17.44v2.899a.52.52 0 0 1-.52.52h-1.947zm-.825 19.744a.123.123 0 0 0-.123.123v.505a.123.123 0 1 0 .246 0v-.505a.123.123 0 0 0-.123-.123zM9.614 11.437a1.155 1.155 0 0 0-1.413-1.124l.008-.002a2.148 2.148 0 0 0-2.142-2.012 2.16 2.16 0 0 0-1.996 1.36 1.562 1.562 0 0 0-.835-.238h-.001a1.59 1.59 0 0 0-1.482 1.02l-.004.011a1.156 1.156 0 0 0-1.75.987 1.156 1.156 0 0 0 1.154 1.154H8.46a1.156 1.156 0 0 0 1.154-1.154zm-9.038 0a.578.578 0 0 1 1.1-.246c.047.099.15.163.259.165h.013a.27.27 0 0 0 .201-.089.286.286 0 0 0 .08-.198l-.001-.02v.001l-.001-.014-.002-.031a1.008 1.008 0 1 1 1.784-.648.289.289 0 0 0 .505-.142v-.002c.112-.764.78-1.34 1.553-1.34a1.572 1.572 0 0 1 1.542 1.866l.002-.01a.287.287 0 0 0 .471.269.578.578 0 1 1 .378 1.014H1.153a.578.578 0 0 1-.578-.578zm20.587 4.575a.997.997 0 0 0-.144.011 1.76 1.76 0 0 0-1.746-1.578c-.704 0-1.329.427-1.605 1.047a1.315 1.315 0 0 0-1.832.618l-.003.008a.974.974 0 0 0-1.412.865.974.974 0 0 0 .972.972h5.771a.973.973 0 0 0 .972-.971.973.973 0 0 0-.971-.972zm0 1.368h-5.771a.397.397 0 0 1-.001-.792h.001a.4.4 0 0 1 .358.228.294.294 0 0 0 .257.165h.006c.16 0 .289-.129.289-.289l-.001-.018v.001l-.001-.013-.001-.018a.736.736 0 1 1 1.302-.473.288.288 0 1 0 .506-.144 1.185 1.185 0 0 1 1.167-1.006 1.18 1.18 0 0 1 1.158 1.402l.001-.007a.287.287 0 0 0 .472.269.396.396 0 1 1 .259.695z"/></svg>