<svg xmlns="http://www.w3.org/2000/svg" viewBox="0 0 28 32"><path d="M19.812 1.343l.681.373a.1.1 0 0 1 .049.066l.375 1.667c.023.104.172.104.195 0l.375-1.667a.1.1 0 0 1 .049-.066l.681-.373a.1.1 0 0 0 0-.175l-.695-.38a.096.096 0 0 1-.04-.04l-.38-.695a.1.1 0 0 0-.175 0l-.38.695a.096.096 0 0 1-.04.04l-.696.38a.1.1 0 0 0 0 .175zM19.349 4.036l.273.149c.01.006.017.015.02.027l.15.668c.009.042.069.042.078 0l.15-.668a.039.039 0 0 1 .02-.027l.273-.149a.04.04 0 0 0 0-.07l-.279-.153a.041.041 0 0 1-.016-.016l-.153-.279a.04.04 0 0 0-.07 0l-.153.279a.041.041 0 0 1-.016.016l-.279.153a.04.04 0 0 0 0 .07zM22.222 4.912l-.279.152a.04.04 0 0 0 0 .071l.273.149c.01.006.017.015.02.027l.15.668c.009.042.069.042.078 0l.15-.668a.045.045 0 0 1 .02-.027l.273-.149a.04.04 0 0 0 0-.071l-.279-.152a.041.041 0 0 1-.016-.016l-.153-.279a.04.04 0 0 0-.07 0l-.153.279a.039.039 0 0 1-.015.016zM10.584 4.204a1.22 1.22 0 1 0 0-2.44 1.22 1.22 0 0 0 0 2.44zm-.459-2.007a.393.393 0 1 1 0 .786.393.393 0 0 1 0-.786zM15.399 1.763A.84.84 0 1 0 15.4.083a.84.84 0 0 0-.001 1.68zM15.083.38a.27.27 0 1 1 0 .541.27.27 0 0 1 0-.541zM13.757 6.403a1.099 1.099 0 1 0 0-2.198 1.099 1.099 0 0 0 0 2.198zm-.414-1.808a.354.354 0 1 1 0 .708.354.354 0 0 1 0-.708zM3.848 13.212a.145.145 0 0 0-.204.027c-.022.028-2.169 2.871-2.169 6.748a.146.146 0 0 0 .292 0c0-3.775 2.088-6.543 2.109-6.571a.146.146 0 0 0-.027-.204zM1.766 21.04a.146.146 0 0 0-.292 0c0 .059.007 1.473.582 2.625a.147.147 0 0 0 .196.066.146.146 0 0 0 .065-.196c-.544-1.089-.551-2.481-.551-2.495zM25.75 22.175a.145.145 0 0 0-.164.125c-.005.032-.466 3.178-3.251 5.349a.146.146 0 1 0 .179.23c2.881-2.247 3.356-5.507 3.36-5.539a.146.146 0 0 0-.125-.164zM21.597 28.19c-.006.005-.569.515-1.303.729a.146.146 0 0 0 .082.28 3.986 3.986 0 0 0 1.419-.794.146.146 0 1 0-.197-.215zM16.306 16.087c-.672 0-1.217.545-1.217 1.217v1.004a1.217 1.217 0 0 0 2.434 0v-1.004c0-.672-.545-1.217-1.217-1.217zm-.589 2.344a.146.146 0 0 1-.292 0v-.365c0-.081.065-.146.146-.146s.146.065.146.146z"/><path d="M23.875 10.761h.453a1.16 1.16 0 0 0 1.159-1.159v-.867a1.16 1.16 0 0 0-1.159-1.159H22.03a.806.806 0 0 0-.736-.479h-7.796a.843.843 0 0 0-.76.479H3.185a1.16 1.16 0 0 0-1.159 1.159v.867c0 .639.52 1.159 1.159 1.159h.453a13.631 13.631 0 0 0-3.639 9.32c0 3.627 1.403 6.681 4.055 8.832C6.509 30.903 9.955 32 13.756 32s7.246-1.096 9.702-3.087c2.653-2.151 4.055-5.205 4.055-8.832 0-3.496-1.287-6.774-3.639-9.32zm-1.774-2.505h2.228c.247 0 .449.189.473.43h-2.701zm0 .917h2.706v.429a.48.48 0 0 1-.479.479H22.1zm-2.009 2.619a.146.146 0 0 1 .292 0v.435c0 .081-.065.146-.146.146s-.146-.065-.146-.146zM17.54 7.916c0-.081.065-.146.146-.146s.146.065.146.146V9.26c0 .081-.065.146-.146.146s-.146-.065-.146-.146zm0 1.833a.146.146 0 0 1 .292 0v.435a.146.146 0 0 1-.292 0zm-2.115 2.043a.146.146 0 0 1 .292 0v1.344a.146.146 0 0 1-.292 0zm0 2.009c0-.081.065-.146.146-.146s.146.065.146.146v.365a.146.146 0 0 1-.292 0zm-2.268-5.626c0-.081.065-.146.146-.146s.146.065.146.146v2.657c0 .081-.065.146-.146.146s-.146-.065-.146-.146zm0 3.22a.146.146 0 0 1 .292 0v.365c0 .081-.065.146-.146.146s-.146-.065-.146-.146zM3.186 8.256h9.469v.43H2.712a.477.477 0 0 1 .474-.43zm.249 1.825v-.61a.146.146 0 0 0-.292 0v.605a.478.478 0 0 1-.437-.474v-.429h9.948v.908H6.286v-.253a.146.146 0 0 0-.292 0v.253h-.47v-.253a.146.146 0 0 0-.292 0v.253h-.405v-.61a.146.146 0 0 0-.292 0v.61h-.404v-.367c0-.081-.065-.146-.146-.146s-.146.065-.146.146v.367zm10.322 21.238C7.248 31.319.68 27.844.68 20.081c0-3.538 1.385-6.841 3.905-9.32h8.07v1.037c0 .658.537 1.245 1.195 1.257a1.217 1.217 0 0 0 1.24-1.217v2.472a1.217 1.217 0 0 0 2.434 0v-2.671a1.215 1.215 0 0 0 2.248-.645v1.363a1.165 1.165 0 1 0 2.33 0v-1.596h.829a12.966 12.966 0 0 1 3.904 9.32c0 7.763-6.568 11.238-13.077 11.238z"/></svg>