<svg xmlns="http://www.w3.org/2000/svg" viewBox="0 0 29 32"><path d="M10.755.738l.374.204a.058.058 0 0 1 .027.036l.206.915c.013.057.094.057.107 0l.206-.915a.06.06 0 0 1 .027-.037l.374-.204c.017-.01.028-.028.028-.048s-.011-.039-.028-.048l-.382-.209a.047.047 0 0 1-.021-.021l-.209-.382c-.01-.017-.028-.028-.048-.028s-.038.011-.048.028l-.209.382a.056.056 0 0 1-.021.022l-.382.209c-.017.01-.029.028-.029.048s.011.039.028.048zm2.557 3.433l.566.31a.08.08 0 0 1 .041.054v.001l.311 1.385c.019.087.143.087.162 0l.311-1.385a.078.078 0 0 1 .041-.054l.566-.31a.083.083 0 0 0 0-.145l-.578-.316a.092.092 0 0 1-.033-.032l-.316-.578a.083.083 0 1 0-.146-.001l-.316.578a.078.078 0 0 1-.033.032l-.578.317c-.025.015-.042.042-.042.072s.017.059.043.073zm1.158 15.457a.908.908 0 0 0-.388 1.728l.005.002v1.041a.383.383 0 0 0 .766 0v-1.041a.909.909 0 0 0-.383-1.73zM1.389 13.985a.2.2 0 0 0 .2-.2v-1.031a.2.2 0 1 0-.4 0v1.031c0 .11.09.2.2.2zm2.862-2.324c0 .11.089.2.2.2h9.112a.2.2 0 1 0 0-.4H4.451a.2.2 0 0 0-.2.2v.001zm13.866.2a.2.2 0 1 0 0-.4h-3.239a.2.2 0 1 0 0 .4z"/><path d="M24.195 7.031H11.478c-.02.017-.039.034-.063.046l-.882.483-.091.404h11.622a3.82 3.82 0 0 1 3.815 3.815v5.039H3.059v-5.039a3.82 3.82 0 0 1 3.815-3.815h1.962l-.091-.404-.882-.482a.333.333 0 0 1-.063-.047H4.743a4.752 4.752 0 0 0-4.746 4.747v16.011A4.216 4.216 0 0 0 4.208 32h20.521a4.216 4.216 0 0 0 4.211-4.211V11.778a4.754 4.754 0 0 0-4.748-4.747zM.967 28.273a3.158 3.158 0 0 1-.036-.484v-7.404h11.011v1.961a2.533 2.533 0 0 0 2.529 2.529A2.533 2.533 0 0 0 17 22.346v-1.961h.918v2.098a.2.2 0 1 0 .4 0v-2.098h.843v1.371a.2.2 0 1 0 .4 0v-1.371h.71v1.371a.2.2 0 1 0 .4.001v-1.372h.71v.819a.2.2 0 1 0 .4 0v-.819h.71v1.371a.2.2 0 1 0 .4 0v-1.371h.71v.819a.2.2 0 1 0 .4 0v-.819h.665v.819a.2.2 0 1 0 .4 0v-.819h2.949v7.404c0 .164-.012.326-.036.484zm15.566-8.82a.466.466 0 0 0-.466.466v2.427a1.598 1.598 0 0 1-3.194.001V19.92a.466.466 0 0 0-.466-.466H.93V17.75h27.079v1.704zm8.466-11.405l.11.026.043.01c.103.027.175.049.247.072l-.029-.008.117.04.065.024.098.039.068.029c.105.045.186.086.266.129l-.017-.009c.065.033.116.062.166.092l-.01-.006.059.034c.038.023.075.048.113.072l.046.031c.042.029.083.057.123.087l.053.041.083.064.058.048c.05.043.092.08.134.119l-.003-.003c.043.04.084.079.123.12l.001.001c.038.039.077.08.114.121l.003.004.07.081.042.049c.035.043.07.087.104.132l.029.04c.085.114.169.243.244.377l.009.018.036.066c.016.029.031.06.046.09a1.993 1.993 0 0 1 .076.164l.027.062c.017.04.033.081.048.121l.016.041c.02.054.039.109.056.165l.015.05.034.12.017.066.025.108.014.07c.008.035.018.096.028.157l.003.022c.006.037.01.074.014.11l.008.07.01.122.004.06a3.8 3.8 0 0 1 .005.184v5.041h-1.198v-5.04a4.74 4.74 0 0 0-1.813-3.728zM.931 11.778c0-.062.002-.123.005-.184l.004-.06c.002-.041.006-.083.01-.123l.008-.069.014-.111.011-.071a3.96 3.96 0 0 1 .081-.38l-.006.028c.011-.042.023-.084.036-.125l.013-.045c.018-.056.037-.112.057-.167l.012-.03.052-.133.024-.054.048-.106.029-.059.05-.098c.034-.065.063-.116.093-.165l-.006.011.033-.055c.021-.033.042-.067.064-.099l.03-.046.089-.126.011-.014c.041-.055.076-.1.113-.144l-.005.006.027-.031c.069-.082.136-.155.206-.226l-.001.001.045-.045c.039-.038.081-.077.123-.115l.005-.004.087-.075.046-.038c.038-.032.083-.067.128-.101l.009-.006c.093-.069.19-.134.288-.195l.044-.026.107-.062.055-.029.1-.052.059-.029c.032-.017.086-.041.139-.064l.022-.008a2.33 2.33 0 0 1 .106-.042l.058-.022.126-.043.042-.014c.056-.017.113-.033.17-.048l.041-.01.112-.026a4.739 4.739 0 0 0-1.813 3.729v5.039h-.54V14.54a.2.2 0 1 0-.4 0v2.277H.933v-5.039zM24.73 31.069H4.209a3.283 3.283 0 0 1-2.949-1.844l-.009-.019h.881c.3.536 1.032 1.4 2.628 1.4h4.304a.2.2 0 1 0 0-.4H4.76c-1.232 0-1.862-.559-2.167-1h25.094a3.289 3.289 0 0 1-2.958 1.864z"/><path d="M8.49 6.812l.524.286c.127.069.218.19.25.331l.12.533.159.706c.023.105.173.105.197 0l.159-.706.12-.533a.508.508 0 0 1 .25-.332l.524-.286c.031-.018.052-.051.052-.089s-.021-.071-.052-.088h-.001l-.583-.319a.414.414 0 0 1-.16-.159l-.001-.002-.318-.582c-.018-.031-.051-.052-.089-.052s-.071.021-.088.052l-.305.557a.508.508 0 0 1-.198.2l-.003.001-.557.305a.101.101 0 1 0-.001.177h.001z"/></svg>