<svg xmlns="http://www.w3.org/2000/svg" viewBox="0 0 42 32"><path d="M1.119 12.51l.535 2.382c.033.149.245.149.278 0l.535-2.382a.143.143 0 0 1 .07-.094h.001l.974-.533c.045-.025.074-.071.074-.125s-.03-.1-.073-.125h-.001l-.994-.544a.137.137 0 0 1-.056-.056v-.001l-.544-.993a.143.143 0 0 0-.25-.001v.001l-.544.994a.14.14 0 0 1-.056.057h-.001l-.994.544a.143.143 0 0 0-.001.25h.001l.974.533c.036.02.062.053.071.093v.001zm1.688 7.97l-.505-.276a.08.08 0 0 1-.029-.029l-.276-.505c-.013-.023-.037-.038-.064-.038s-.051.015-.064.037l-.276.505a.08.08 0 0 1-.029.029l-.505.276c-.023.013-.038.037-.038.064s.015.051.037.064l.495.27a.07.07 0 0 1 .035.048l.272 1.211c.017.075.125.075.142 0l.272-1.211a.076.076 0 0 1 .035-.048l.495-.271c.024-.012.039-.036.039-.064s-.015-.051-.038-.063zm2.286-4.055l-.603-.33a.086.086 0 0 1-.034-.034l-.33-.603a.086.086 0 0 0-.152 0l-.33.603a.086.086 0 0 1-.034.034l-.603.33a.086.086 0 0 0 0 .152l.591.323a.084.084 0 0 1 .043.056v.001l.325 1.446c.02.09.149.09.169 0l.325-1.446a.082.082 0 0 1 .043-.056l.591-.323a.086.086 0 0 0 0-.152zm35.756 3.827a1.399 1.399 0 0 0 1.397-1.397v-1.003a1.4 1.4 0 0 0-1.25-1.39l-.006-.001V.486A.487.487 0 0 0 40.504 0a1.728 1.728 0 0 0-1.725 1.799v-.003a1.751 1.751 0 0 0-.351.1l.012-.004a1.731 1.731 0 0 0-1.105 1.612c0 .659.372 1.231.917 1.518l.009.005c.013.007.021.039.007.067-.837 1.654-2.862 6.276-3.773 8.369-2.077-4.922-3.051-7.193-3.521-8.253a1.728 1.728 0 0 0 1.483-1.939l.001.009a1.727 1.727 0 0 0-1.091-1.387 1.588 1.588 0 0 0-.327-.094l-.01-.002.001-.066c0-.954-.772-1.727-1.726-1.729a1.728 1.728 0 0 0-1.725 1.799v-.003c-.16.029-.303.075-.437.137l.011-.005a1.737 1.737 0 0 0-1.017 1.567c0 .441.165.844.437 1.149l-.002-.002c.285.32.685.533 1.135.574h.007c-.498 1.088-1.51 3.376-3.63 8.253-2.128-4.959-3.1-7.214-3.552-8.249a1.728 1.728 0 0 0 1.622-1.953l.001.009a1.728 1.728 0 0 0-1.091-1.387 1.588 1.588 0 0 0-.327-.094l-.01-.002.001-.068A1.73 1.73 0 0 0 19.002 0a1.728 1.728 0 0 0-1.725 1.799v-.003c-.16.029-.303.075-.437.137l.011-.005a1.737 1.737 0 0 0-1.017 1.568c0 .933.739 1.693 1.664 1.726h.003c-.419 1.022-1.325 3.263-3.319 8.224-.933-2.104-3.007-6.732-3.912-8.384-.034-.062.003-.128.051-.163a1.726 1.726 0 0 0 .7-1.68l.001.01A1.734 1.734 0 0 0 9.61 1.796l-.01-.002.001-.066c0-.954-.772-1.727-1.726-1.729a.486.486 0 0 0-.486.486V16.46a1.4 1.4 0 0 0-1.255 1.39v1.003a1.399 1.399 0 0 0 1.397 1.397h.015v6.478a1.659 1.659 0 0 0-1.412 1.636v1.979A1.659 1.659 0 0 0 7.79 32h32.798a1.66 1.66 0 0 0 1.657-1.657v-1.979c0-.83-.615-1.517-1.412-1.636V20.25h.015zM8.363 1.153a.75.75 0 0 1 .268.576c0 .016-.003.118-.061.482a.485.485 0 0 0 .588.551l-.003.001a.714.714 0 0 1 .436.037l-.005-.002a.768.768 0 0 1 .486.699.752.752 0 0 1-.313.612l-.002.002a1.101 1.101 0 0 0-.338 1.42c1.141 2.084 4.309 9.291 4.341 9.363a.486.486 0 0 0 .895-.011l.001-.003c1.555-3.869 3.905-9.702 4.052-10.034a.483.483 0 0 0 .042-.315l-.02-.099a.486.486 0 0 0-.749-.305l.002-.001a.755.755 0 0 1-1.168-.725v.004c.03-.252.2-.478.443-.589a.711.711 0 0 1 .469-.051.487.487 0 0 0 .585-.555v.003a3.736 3.736 0 0 1-.061-.482.755.755 0 0 1 1.508 0c0 .016-.003.118-.061.482a.486.486 0 0 0 .584.552.702.702 0 0 1 .433.036l-.005-.002c.26.103.45.339.483.603a.757.757 0 0 1-1.171.724l.003.002a.486.486 0 0 0-.747.303l-.001.003-.017.085a.483.483 0 0 0 .048.327c.157.333 2.669 6.175 4.33 10.048a.484.484 0 0 0 .446.294h.001a.489.489 0 0 0 .447-.292c1.654-3.811 4.184-9.594 4.435-10.061a.488.488 0 0 0 .074-.372l-.006-.029a.485.485 0 0 0-.749-.305l.002-.001a.755.755 0 0 1-1.168-.725v.004c.03-.252.2-.478.443-.589a.711.711 0 0 1 .469-.051.487.487 0 0 0 .585-.555v.003a3.736 3.736 0 0 1-.061-.482.755.755 0 0 1 1.508 0c0 .016-.003.118-.061.482a.486.486 0 0 0 .584.552.702.702 0 0 1 .433.036l-.005-.002c.26.103.45.339.483.603a.75.75 0 0 1-.746.85.758.758 0 0 1-.361-.091l.004.002a.487.487 0 0 0-.638.694l-.001-.002c.234.454 2.685 6.228 4.29 10.035.075.18.251.296.446.297h.002c.194 0 .37-.115.447-.293.031-.072 3.141-7.265 4.201-9.358a1.024 1.024 0 0 0-.423-1.368.753.753 0 0 1-.397-.773v.004a.763.763 0 0 1 .911-.633.487.487 0 0 0 .584-.555v.003a3.736 3.736 0 0 1-.061-.482c0-.23.104-.437.268-.576v15.303H8.369V1.158zM7.107 18.856v-1.003c0-.234.19-.424.425-.424h33.317c.234 0 .425.19.425.424v1.003c0 .235-.19.424-.425.424H7.532a.426.426 0 0 1-.425-.424zm33.482 12.173H7.791a.685.685 0 0 1-.684-.684v-1.054h.405v.371a.98.98 0 0 0 .979.979h5.031a.209.209 0 1 0 0-.418H8.491a.562.562 0 0 1-.562-.562v-.371H37.49v.966a.209.209 0 1 0 .418 0v-.966h.518v.642a.209.209 0 0 0 .418.001v-.642h.518v1.141a.208.208 0 1 0 .416 0v-1.141h.519v.699a.208.208 0 1 0 .416 0v-.699h.561v1.053a.687.687 0 0 1-.685.685zm.685-2.663v.23H7.108v-.23c0-.377.307-.684.684-.684H40.59a.686.686 0 0 1 .684.684zm-1.413-1.656h-30.3v-2.056a.209.209 0 0 0-.418-.001v2.056h-.625v-6.457H39.86v6.457z"/><path d="M25.978 23.571a1.787 1.787 0 1 1-3.574 0 1.787 1.787 0 0 1 3.574 0zM35.848 23.571a1.302 1.302 0 1 1-2.604 0 1.302 1.302 0 0 1 2.604 0zM15.137 23.571a1.302 1.302 0 1 1-2.604 0 1.302 1.302 0 0 1 2.604 0zM9.352 23.855a.21.21 0 0 0 .209-.209v-1.25-.01c0-.115-.094-.209-.209-.209s-.209.094-.209.209v1.261a.21.21 0 0 0 .208.209zm2.397-5.905a.208.208 0 0 0-.208-.208H7.877a.209.209 0 1 0 0 .418h3.664a.209.209 0 0 0 .208-.209zm.785.209h1.647a.209.209 0 1 0 0-.418h-1.647a.209.209 0 1 0 0 .418zM18.41 7.093a.208.208 0 0 0-.269.12v.001L17.123 9.9a.208.208 0 0 0 .192.288.21.21 0 0 0 .197-.139v-.001l1.018-2.686a.208.208 0 0 0-.119-.269h-.001zm-1.26 3.232a.207.207 0 0 0-.268.119v.001l-.383 1.009a.208.208 0 0 0 .192.288.21.21 0 0 0 .197-.139v-.001l.383-1.009a.208.208 0 0 0-.119-.268h-.001zm11.522-3.187a.206.206 0 0 0-.273.107l-.001.001-1.142 2.635a.207.207 0 0 0 .189.291h.001a.21.21 0 0 0 .191-.124l.001-.001 1.143-2.636a.207.207 0 0 0-.107-.273l-.001-.001zm-1.409 3.169a.207.207 0 0 0-.273.107l-.001.001-.429.99a.207.207 0 0 0 .189.291h.002a.21.21 0 0 0 .191-.124l.001-.001.429-.99a.21.21 0 0 0-.107-.274l-.001-.001z"/></svg>