<svg xmlns="http://www.w3.org/2000/svg" viewBox="0 0 24 32"><path d="M7.028 7.291l-.927-.507a.129.129 0 0 1-.053-.053l-.507-.927a.132.132 0 0 0-.233 0l-.507.927a.129.129 0 0 1-.053.053l-.927.507a.134.134 0 0 0 0 .234l.908.497a.13.13 0 0 1 .066.088l.499 2.222c.031.139.229.139.26 0l.499-2.222a.134.134 0 0 1 .066-.088l.908-.497a.133.133 0 0 0 0-.234zM9.416 10.673l-.372-.203a.047.047 0 0 1-.021-.021l-.203-.372a.054.054 0 0 0-.094 0l-.203.372a.047.047 0 0 1-.021.021l-.372.203a.054.054 0 0 0 0 .094l.364.199c.013.008.023.02.026.035l.2.891c.013.056.092.056.104 0l.2-.891a.055.055 0 0 1 .026-.035l.364-.199a.054.054 0 0 0 0-.094zM7.876 4.159l-.257-.141a.036.036 0 0 1-.015-.015l-.141-.257a.037.037 0 0 0-.065 0l-.141.257a.043.043 0 0 1-.015.015l-.257.141a.037.037 0 0 0 0 .065l.252.138a.036.036 0 0 1 .018.025l.138.616c.009.038.064.038.072 0l.138-.616a.04.04 0 0 1 .018-.025l.252-.138a.037.037 0 0 0 .001-.065zM7.542 12.743l-.257-.141a.036.036 0 0 1-.015-.015l-.141-.257a.037.037 0 0 0-.065 0l-.141.257a.036.036 0 0 1-.015.015l-.257.141a.037.037 0 0 0 0 .065l.252.138a.036.036 0 0 1 .018.025l.139.616c.008.039.064.039.072 0l.139-.616a.04.04 0 0 1 .018-.025l.252-.138a.038.038 0 0 0 0-.065zM19.711 18.632a.197.197 0 0 0 .137-.056c3.014-2.977 2.478-7.421 2.453-7.609a.195.195 0 1 0-.386.049c.006.044.537 4.44-2.341 7.283a.195.195 0 0 0 .136.333zM21.677 9.576a.194.194 0 0 0 .192.165c.009 0 .019 0 .029-.002a.194.194 0 0 0 .163-.221c-.014-.09-.352-2.242-1.904-3.728a.194.194 0 1 0-.269.281c1.455 1.393 1.786 3.485 1.789 3.506z"/><path d="M22.895 27.754h-.805l-1.082-.49a2.63 2.63 0 0 1-1.504-1.942h.931c.852 0 1.545-.693 1.545-1.545v-1.155c0-.852-.693-1.545-1.545-1.545h-.404a11.98 11.98 0 0 0 4.176-9.091c0-6.609-5.376-11.985-11.985-11.985S.237 5.377.237 11.986a11.98 11.98 0 0 0 4.176 9.091h-.404c-.852 0-1.545.693-1.545 1.545v1.155c0 .852.693 1.545 1.545 1.545h.848a2.628 2.628 0 0 1-1.504 1.942l-1.082.49h-.723c-.852 0-1.545.693-1.545 1.545v1.155c0 .852.693 1.545 1.545 1.545h21.35c.852 0 1.545-.693 1.545-1.545v-1.155c0-.852-.693-1.545-1.545-1.545zM12.346 25.77c0-.107.087-.194.194-.194h.713a.194.194 0 0 1 0 .388h-.713a.194.194 0 0 1-.194-.194zm1.652 0c0-.107.087-.194.194-.194h3.984a.194.194 0 1 1 0 .388h-3.984a.194.194 0 0 1-.194-.194zM1.142 11.985C1.142 5.876 6.112.906 12.221.906S23.3 5.876 23.3 11.985c0 3.628-1.771 7.015-4.746 9.091h-1.121v-.57a.194.194 0 0 0-.388 0v.57h-.664v-1.38a.194.194 0 1 0-.388 0v1.38h-.696v-1.023a.194.194 0 0 0-.388 0v1.023H5.891a11.078 11.078 0 0 1-4.746-9.091zm2.864 9.998h16.427c.33 0 .598.252.631.573H3.374a.636.636 0 0 1 .631-.573zm-.638 1.794v-.572h17.703v.572a.638.638 0 0 1-.638.638H4.006a.64.64 0 0 1-.638-.638zm2.719 1.545c-.086.438-.287 1.099-.758 1.499a.197.197 0 0 1-.126.047.195.195 0 0 1-.126-.343c.36-.305.532-.825.613-1.202h.397zM4.23 27.265l.421-.308c.087-.064.208-.045.271.042s.044.208-.042.271l-.421.308a.194.194 0 0 1-.229-.313zm-2.685 1.396h21.35c.325 0 .59.245.63.559H.916a.636.636 0 0 1 .63-.559zm-.638 1.793v-.587H22.68l-.001.009v1.215h-.55v-.884a.194.194 0 0 0-.388 0v.884h-.55v-.641a.194.194 0 1 0-.388 0v.641h-.55v-.884a.194.194 0 0 0-.388 0v.884h-.55v-.479a.194.194 0 1 0-.388 0v.479h-.55v-.215a.194.194 0 1 0-.388 0v.215H1.552a.639.639 0 0 1-.639-.638zm22.161.612v-1.189l-.001-.009h.466v.587a.637.637 0 0 1-.465.611z"/></svg>