<svg xmlns="http://www.w3.org/2000/svg" viewBox="0 0 21 32"><path d="M14.647 9.167a.75.75 0 0 0 .399-.984l.002.005-1.261-3.011a.75.75 0 0 0-.985-.4l.005-.002-6.76 2.831a.745.745 0 0 0-.401.402l-.002.005a.74.74 0 0 0 .004.578l-.002-.005 1.261 3.012a.749.749 0 0 0 .984.399l-.005.002zm-7.24 2.22L6.146 8.376a.205.205 0 0 1 .11-.269l.001-.001 6.76-2.831a.206.206 0 0 1 .269.109l.001.001 1.261 3.011a.208.208 0 0 1-.109.27l-.001.001-6.76 2.831a.208.208 0 0 1-.269-.11l-.001-.001z"/><path d="M11.315 8.386a.968.968 0 1 1-1.935.001.968.968 0 0 1 1.935-.001zM1.426 7.858a.51.51 0 0 1 0-.404l-.001.003a.521.521 0 0 1 .278-.283l.003-.001.196-.082a.116.116 0 1 0-.091-.214h.001l-.196.082a.754.754 0 0 0-.405.405l-.002.005a.737.737 0 0 0 .004.582l-.002-.005 1.383 3.302a.117.117 0 0 0 .153.063h-.001a.116.116 0 0 0 .062-.153v.001zm1.623 3.873a.116.116 0 1 0-.214.091v-.001l.448 1.071a.117.117 0 0 0 .109.077.116.116 0 0 0 .104-.167v.001zm14.786-6.48a.117.117 0 0 0 .153.063h-.001a.116.116 0 0 0 .062-.152v.001l-1.303-3.111a.116.116 0 1 0-.214.091v-.001zm.188.448l.363.868a.117.117 0 0 0 .153.063h-.001a.116.116 0 0 0 .062-.152v.001l-.363-.868a.116.116 0 0 0-.214.09V5.7z"/><path d="M20.649 30.409l-2.728-6.514.094-.039a.61.61 0 0 0 .324-.8l.002.004-.193-.46a.61.61 0 0 0-.8-.324l.004-.002-.12.05.026-.011-4.165-9.946 3.027-1.268.253.604a.271.271 0 0 0 .357.145l-.002.001 3.11-1.302c.343-.145.61-.414.749-.749l.003-.009a1.37 1.37 0 0 0-.008-1.077l.003.009L17.292.858a1.396 1.396 0 0 0-1.835-.744l.009-.003-3.11 1.302a.272.272 0 0 0-.145.356l-.001-.002.253.604-7.89 3.304-.253-.604a.272.272 0 0 0-.356-.145l.002-.001-3.11 1.302a1.4 1.4 0 0 0-.745 1.836l-.003-.009 3.293 7.862a1.396 1.396 0 0 0 1.836.745l-.009.003 3.11-1.302a.271.271 0 0 0 .145-.355l-.253-.604 2.445-1.024 4.165 9.946-.08.033a.609.609 0 0 0-.324.799l-.002-.004.193.461a.61.61 0 0 0 .8.324l-.004.002.08-.034 2.728 6.514a.943.943 0 0 0 .868.578h.001a.945.945 0 0 0 .363-.073l.68-.285a.941.941 0 0 0 .506-.505l.002-.006a.941.941 0 0 0-.003-.722zm-2.451-.471l1.418-.594.284.678-1.418.594zm-.374-.892l1.418-.594.284.678-1.418.594zm-.374-.892l1.418-.594.284.678-1.418.594zm-.374-.893l1.418-.594.284.678-1.418.594zm-.374-.893l1.418-.594.284.678-1.418.594zm-.374-.892l1.418-.594.284.678-1.418.594zm.844-2.466l-.452.189a.116.116 0 0 1-.09-.214h.001l.452-.189a.116.116 0 0 1 .09.214h-.001zm-9.547-8.647l.253.604-2.86 1.198a.856.856 0 0 1-1.116-.452l-.002-.006L.607 7.844a.854.854 0 0 1 .452-1.116l.006-.002 2.86-1.198.253.604a.27.27 0 0 0 .355.145l8.39-3.514a.272.272 0 0 0 .144-.356l.001.002-.253-.604 2.86-1.198a.854.854 0 0 1 1.116.452l.002.006 3.293 7.863a.85.85 0 0 1-.452 1.115l-.006.002-.513.215-.278-.664a.116.116 0 0 0-.221.049.11.11 0 0 0 .008.041v-.001l.278.664-.393.164-.378-.903a.116.116 0 1 0-.214.091V9.7l.378.903-.41.172-.49-1.171a.116.116 0 1 0-.214.091v-.001l.49 1.171-.357.15-.661-1.579a.116.116 0 0 0-.213.09v-.001l.661 1.579-.329.138-.253-.604a.27.27 0 0 0-.356-.144l.002-.001-8.39 3.514a.27.27 0 0 0-.145.356l-.001-.002zm3.55-1.193l.165-.069.338.808a.116.116 0 0 0 .152.062h-.001a.116.116 0 0 0 .062-.153v.001l-.338-.808.25-.105.787 1.879a.116.116 0 0 0 .152.062h-.001a.116.116 0 0 0 .062-.152v.001l-.787-1.879.196-.082.338.808a.116.116 0 0 0 .152.062h-.001a.116.116 0 0 0 .062-.153v.001l-.338-.808.165-.069 4.165 9.946-1.418.593zm3.688 10.807a.116.116 0 0 1-.09-.214h.001l1.421-.595a.116.116 0 0 1 .09.214h-.001zm2.702.067l-.145.061.236.563-1.418.594-.236-.563zm2.585 6.88a.396.396 0 0 1-.213.216l-.003.001-.68.285a.4.4 0 0 1-.523-.212l-.001-.003-.159-.381 1.418-.594.159.381a.396.396 0 0 1 .001.306z"/></svg>