<svg xmlns="http://www.w3.org/2000/svg" viewBox="0 0 20 32"><path d="M2.339 19.347a.993.993 0 0 0-.993.993c0 1.144 1.986 1.986 1.986 1.986s1.986-.842 1.986-1.986a.994.994 0 0 0-1.986-.001v.001a.994.994 0 0 0-.993-.993zm17.139 1.509l-.644-.352a.094.094 0 0 1-.037-.037l-.352-.644c-.016-.029-.046-.048-.081-.048s-.065.019-.081.048l-.353.644a.098.098 0 0 1-.036.037l-.644.352c-.029.016-.048.046-.048.081s.019.065.048.081l.631.345c.023.013.04.035.046.061l.347 1.544c.022.096.159.096.181 0l.347-1.544a.092.092 0 0 1 .045-.06l.631-.345a.093.093 0 1 0 .001-.162zM10.468 2.085a.37.37 0 1 1-.74 0 .37.37 0 0 1 .74 0zM11.936 3.306a.37.37 0 1 1-.74 0 .37.37 0 0 1 .74 0zM13.533 2.085a.37.37 0 1 1-.74 0 .37.37 0 0 1 .74 0z"/><path d="M15.208 4.206V2.175A2.178 2.178 0 0 0 13.033 0h-2.807a2.177 2.177 0 0 0-2.175 2.175v2.032a1.832 1.832 0 0 0-1.497 1.795v.901a3.866 3.866 0 0 0-3.591 3.851v4.333a1.572 1.572 0 0 0-.661.325l.003-.002-1.732 1.435A1.575 1.575 0 0 0 0 18.061v5.094a1.584 1.584 0 0 0 1.582 1.582h3.502a1.584 1.584 0 0 0 1.582-1.582V18.07v-.002c0-.493-.226-.933-.58-1.222l-.003-.002-1.769-1.441a1.575 1.575 0 0 0-.601-.304l-.011-.002v-4.341A3.13 3.13 0 0 1 6.56 7.643a1.83 1.83 0 0 0 1.231 1.666l.013.004v1.147l.089-.162a.319.319 0 0 1 .559-.001l.001.002.089.162V9.41h3.959v.789a.158.158 0 0 0 .316 0V9.41h.447v2.262a.158.158 0 0 0 .316 0V9.41h.447v3.682a.158.158 0 0 0 .316 0V9.41h.383v18.767c0 1.705-1.387 3.092-3.092 3.092s-3.092-1.387-3.092-3.092V13.866l-.057.256a.318.318 0 0 1-.31.249h-.003a.316.316 0 0 1-.309-.247v-.002l-.057-.255v14.311c0 2.111 1.717 3.828 3.828 3.828s3.828-1.717 3.828-3.828V9.316c.73-.25 1.246-.93 1.248-1.731V6.007a1.832 1.832 0 0 0-1.487-1.793l-.011-.002zM5.616 17.412a.84.84 0 0 1 .311.655v5.085a.845.845 0 0 1-.845.845H1.58a.846.846 0 0 1-.845-.845v-5.091c0-.252.112-.49.306-.651l1.732-1.435a.843.843 0 0 1 1.074-.004l-.002-.001zM8.788 2.175A1.439 1.439 0 0 1 10.226.737h2.807a1.439 1.439 0 0 1 1.438 1.438v2H8.787zm-.407 2.736h6.498c.508.001.934.349 1.055.819l.002.008H7.325a1.094 1.094 0 0 1 1.056-.827zm6.498 3.758H8.381a1.091 1.091 0 0 1-1.09-1.09V6.264h8.678v1.315a1.09 1.09 0 0 1-1.09 1.09z"/><path d="M11.814 8.056H8.623a.684.684 0 0 1-.684-.684v-.424a.158.158 0 0 0-.316 0v.424c.001.552.448.999.999 1h3.191a.158.158 0 0 0 .158-.158v-.001a.157.157 0 0 0-.157-.157h-.001zm2.367 0h-1.525a.158.158 0 0 0 0 .316h1.525a.158.158 0 0 0 0-.316zm-6.874 6.371l-.409-.224a.051.051 0 0 1-.023-.023l-.223-.409c-.01-.018-.029-.031-.051-.031s-.041.012-.051.03l-.224.409a.057.057 0 0 1-.023.023l-.408.224c-.018.01-.031.03-.031.052s.012.041.03.051l.4.219a.059.059 0 0 1 .029.038l.22.98c.014.061.101.061.115 0l.22-.98a.056.056 0 0 1 .029-.038l.401-.219c.018-.01.03-.03.03-.052s-.012-.041-.03-.052zm-1.252-2.626l-.209-.114a.034.034 0 0 1-.012-.012l-.114-.209c-.005-.009-.015-.015-.026-.015s-.021.006-.026.015l-.114.209a.043.043 0 0 1-.011.012l-.209.114c-.01.005-.016.015-.016.026s.006.021.016.026l.204.112a.032.032 0 0 1 .015.019l.112.5c.007.031.052.031.059 0l.113-.5a.03.03 0 0 1 .015-.02l.204-.112c.009-.005.015-.015.015-.026s-.006-.021-.016-.026zm3.208 2.496v13.312c0 1.417 1.06 2.566 2.367 2.566s2.367-1.149 2.367-2.566V14.297a.192.192 0 0 0-.147-.187h-.001a1.654 1.654 0 0 1-.782-.429.2.2 0 0 0-.278 0 1.644 1.644 0 0 1-1.157.473h-.002-.002c-.451 0-.859-.181-1.157-.473a.197.197 0 0 0-.278 0c-.21.205-.475.355-.771.426l-.011.002a.193.193 0 0 0-.148.187zm3.503 10.995a.505.505 0 1 1 0 1.01.505.505 0 1 1 0-1.01zm-.856 1.915a.344.344 0 1 1 0 .688.344.344 0 1 1 0-.688zM9.744 14.776a.263.263 0 0 1 .526 0v5.558a.263.263 0 0 1-.526 0zm0 6.895a.263.263 0 0 1 .526 0v1.954a.263.263 0 0 1-.526 0zm-1.463-7.863l.347-1.544a.092.092 0 0 1 .045-.06l.631-.345c.029-.016.048-.046.048-.081s-.019-.065-.048-.081l-.644-.352a.098.098 0 0 1-.037-.036l-.352-.644c-.016-.029-.046-.048-.081-.048s-.065.019-.081.048l-.352.644a.086.086 0 0 1-.037.036l-.644.352c-.029.016-.048.046-.048.081s.019.065.048.081l.631.345c.023.013.04.035.046.061l.347 1.544c.022.096.159.096.181 0z"/></svg>