<svg xmlns="http://www.w3.org/2000/svg" viewBox="0 0 24 32"><path d="M23.706 22.135V11.847a.415.415 0 0 0-.013-.1C23.639 5.261 18.345 0 11.847 0 5.315 0 0 5.314 0 11.847v13.108c0 .123.06.238.161.309L9.6 31.93a.38.38 0 0 0 .598-.309v-6.706h.388v-5.527a.163.163 0 0 1 .326 0v5.527h.469v-4.29-.008a.163.163 0 0 1 .326 0v4.298h.469v-3.351a.163.163 0 0 1 .326 0v3.352h.361v-2.16a.163.163 0 0 1 .326 0v2.16h.325v6.706a.379.379 0 0 0 .598.309l9.439-6.666a.379.379 0 0 0 .161-.309v-2.82zM11.846.758c6.115 0 11.089 4.974 11.089 11.089 0 .034.005.067.013.099v9.991l-8.681 5.908V17.33h1.695c1.718 0 3.116-1.398 3.116-3.116s-1.398-3.116-3.116-3.116H7.745c-1.718 0-3.116 1.398-3.116 3.116s1.398 3.116 3.116 3.116h1.694v10.515L.758 21.937v-10.09C.758 5.733 5.733.758 11.847.758zM7.86 12.447c-1.667 0-1.852 1.728-1.859 1.801a.162.162 0 0 1-.162.147l-.015-.001a.162.162 0 0 1-.147-.161l.001-.016v.001c.002-.021.217-2.096 2.182-2.096a.162.162 0 1 1 0 .324zm1.101 18.106v-1.45a.162.162 0 1 0-.324 0v1.221l-.433-.306v-1.456a.163.163 0 0 0-.326 0v1.227l-.433-.306v-1.462a.163.163 0 0 0-.326 0v1.233l-.433-.306V27.48a.163.163 0 0 0-.326 0v1.239l-.433-.306v-1.474a.163.163 0 0 0-.326 0v1.245l-.433-.306v-1.48a.163.163 0 0 0-.326 0v1.251l-.433-.306v-1.487a.162.162 0 1 0-.324 0v1.256l-.433-.306v-1.493a.162.162 0 1 0-.324 0v1.263l-.433-.306v-1.499a.163.163 0 0 0-.326 0v1.269l-.433-.306v-1.505a.163.163 0 0 0-.326 0v1.275l-.433-.306v-1.511a.163.163 0 0 0-.326 0v1.282l-.3-.211v-1.905l8.681 5.908v2.129zm1.94-18.106H8.735a.162.162 0 1 1 0-.324h2.166a.162.162 0 1 1 0 .324zm11.658 12.586v-1.345a.163.163 0 0 0-.326 0v1.574l-.433.306V24.23a.163.163 0 0 0-.326 0v1.568l-.433.305v-1.332a.163.163 0 0 0-.326 0v1.562l-.433.306v-1.326a.162.162 0 1 0-.324 0v1.556l-.433.306v-1.32a.163.163 0 0 0-.326 0v1.55l-.433.306v-1.314a.163.163 0 0 0-.326 0v1.543l-.433.306v-1.308a.163.163 0 0 0-.326 0v1.537l-.433.306v-1.302a.163.163 0 0 0-.326 0v1.531l-.433.306V28.02a.163.163 0 0 0-.326 0v1.525l-.433.306v-1.29a.163.163 0 0 0-.326 0v1.52l-.433.305v-1.284a.162.162 0 1 0-.324 0v1.513l-.389.275v-2.129l8.681-5.909v1.905z"/><path d="M3.262 6.286a.162.162 0 0 0 .224-.049v-.001c1.682-2.628 4.869-3.857 4.901-3.869a.162.162 0 1 0-.116-.303h.001c-.134.051-3.318 1.277-5.06 3.998a.165.165 0 0 0 .049.224h.001zm-1.18 2.222a.162.162 0 0 0 .197-.116v-.001c.179-.7.691-1.418.696-1.425a.161.161 0 0 0-.036-.226.161.161 0 0 0-.226.037c-.023.031-.553.773-.747 1.534a.162.162 0 0 0 .116.197h.001z"/></svg>