<svg xmlns="http://www.w3.org/2000/svg" viewBox="0 0 19 32"><path d="M14.5 14.294a4.083 4.083 0 0 1-1.426-1.427c-.35-.607-.452-1.175-.301-1.689.213-.728.872-1.17 1.071-1.29a1.794 1.794 0 0 0 1.687-1.786V6.554a1.793 1.793 0 0 0-1.791-1.791h-.169V2.966A2.97 2.97 0 0 0 10.604 0H8.489a2.97 2.97 0 0 0-2.967 2.966v1.797h-.169a1.792 1.792 0 0 0-1.791 1.791v1.548a1.793 1.793 0 0 0 1.682 1.786h.005c.2.119.853.554 1.069 1.285.152.515.051 1.085-.3 1.694a4.072 4.072 0 0 1-1.426 1.426c-.104.063-.206.129-.307.195l.007.012.709.388a4.796 4.796 0 0 0 1.643-1.661c.453-.788.577-1.548.366-2.26a2.744 2.744 0 0 0-.626-1.075h.909v.438c0 .086.069.155.155.155s.155-.069.155-.155v-.438h.462v.774c0 .086.069.155.155.155s.155-.069.155-.155v-.774h.52v2.219a.155.155 0 0 0 .31 0V9.892h2.613c-.304.432-.636 1.175-.586 2.329a.155.155 0 0 0 .154.148h.007a.155.155 0 0 0 .148-.155v-.007c-.056-1.265.377-1.981.666-2.315h.5a2.737 2.737 0 0 0-.626 1.075c-.21.712-.087 1.472.367 2.26a4.806 4.806 0 0 0 1.677 1.683 8.768 8.768 0 0 1 4.243 7.543 8.766 8.766 0 0 1-2.584 6.239 8.771 8.771 0 0 1-6.365 2.583 8.75 8.75 0 0 1-6.215-2.706 8.763 8.763 0 0 1-2.48-6.321 8.758 8.758 0 0 1 2.357-5.804l-.005.005-.143-.636-.162-.088a9.469 9.469 0 0 0-2.77 6.497v.01a9.475 9.475 0 0 0 2.682 6.839 9.469 9.469 0 0 0 6.725 2.928l.136.001c2.55 0 4.947-.993 6.75-2.796s2.796-4.2 2.796-6.75a9.487 9.487 0 0 0-4.591-8.16zM6.243 2.966A2.246 2.246 0 0 1 8.487.722h2.116a2.247 2.247 0 0 1 2.245 2.244v1.797H6.243zm-.892 2.52h8.388c.5 0 .921.346 1.037.811H4.316c.12-.469.538-.81 1.036-.811zm0 3.686a1.07 1.07 0 0 1-1.069-1.069v-1.29h10.526v1.29a1.07 1.07 0 0 1-1.069 1.069z"/><path d="M8.218 2.319a.423.423 0 1 1-.845.001.423.423 0 0 1 .845-.001zM9.894 3.713a.423.423 0 1 1-.845.001.423.423 0 0 1 .845-.001zM11.717 2.319a.423.423 0 1 1-.845.001.423.423 0 0 1 .845-.001zM8.719 8.57h-3.13a.673.673 0 0 1-.671-.671v-.416-.007c0-.086-.069-.155-.155-.155s-.155.069-.155.155V7.9c0 .541.439.98.98.98h3.13a.155.155 0 0 0 0-.31zm2.322 0H9.545a.155.155 0 0 0 0 .31h1.496a.155.155 0 0 0 0-.31zM2.802 18.742a7.607 7.607 0 0 0-.985 4.069v-.014c.136 3.984 3.333 7.245 7.314 7.452a7.733 7.733 0 0 0 7.121-11.571.609.609 0 0 0-.879-.203 2.71 2.71 0 0 1-1.598.518h-.008A2.722 2.722 0 0 1 12 18.345l.004.003a.592.592 0 0 0-.767.001l.001-.001a2.717 2.717 0 0 1-1.763.645h-.007c-.674 0-1.29-.244-1.767-.648l.004.003a.592.592 0 0 0-.767.001l.001-.001a2.717 2.717 0 0 1-1.763.645h-.008a2.715 2.715 0 0 1-1.51-.456l.01.006a.607.607 0 0 0-.866.199zm.553 6.327a.257.257 0 0 1-.351-.093l-.001-.001c-.25-.434-.362-1.229-.374-1.318a.258.258 0 0 1 .511-.07v.001c.029.215.141.836.309 1.128a.258.258 0 0 1-.094.352zm.216-5.281c-.006.014-.625 1.387-.528 2.729l.001.018a.259.259 0 0 1-.239.258h-.001l-.019.001a.258.258 0 0 1-.257-.238v-.001c-.107-1.477.545-2.92.573-2.981a.259.259 0 0 1 .489.115c0 .036-.007.07-.021.101l.001-.002zm10.3 2.305a.493.493 0 0 1 0 .986.493.493 0 0 1 0-.986zm-.986 1.75a.947.947 0 0 1 0 1.892.947.947 0 0 1 0-1.892zm-2.693-.184a.338.338 0 1 1 0 .676.338.338 0 1 1 0-.676zm2.562-8.809a.156.156 0 0 0 .217-.029.152.152 0 0 0 .031-.094.154.154 0 0 0-.061-.123c-.88-.668-1.269-1.708-1.273-1.718a.156.156 0 0 0-.143-.095.154.154 0 0 0-.148.203v-.001c.016.046.422 1.134 1.376 1.858zm-7.406 2.471a.04.04 0 0 1 .021.028l.159.709c.01.044.073.044.083 0l.159-.709a.043.043 0 0 1 .021-.028l.29-.158c.013-.008.022-.021.022-.037s-.009-.03-.022-.037l-.296-.162a.046.046 0 0 1-.017-.017l-.162-.296c-.008-.013-.021-.022-.037-.022s-.03.009-.037.022l-.162.296a.046.046 0 0 1-.017.017l-.296.162a.042.042 0 0 0 0 .074zm1.019-1.512a.032.032 0 0 1 .015.019l.111.491c.007.031.051.031.057 0l.111-.491a.035.035 0 0 1 .014-.02l.2-.11c.009-.005.016-.015.016-.026s-.006-.021-.015-.026l-.205-.112a.029.029 0 0 1-.011-.011l-.112-.205c-.005-.009-.015-.016-.026-.016s-.021.006-.026.015l-.112.205c-.003.005-.006.009-.011.011l-.205.112c-.009.005-.016.015-.016.026s.006.021.015.026zm-3.78-.527l.6.328a.09.09 0 0 1 .044.057v.001l.33 1.466c.021.091.151.091.171 0l.33-1.466a.091.091 0 0 1 .043-.058l.6-.328a.088.088 0 1 0 .001-.154l-.612-.335a.088.088 0 0 1-.035-.034l-.335-.612a.088.088 0 1 0-.154-.001l-.335.612a.088.088 0 0 1-.034.035l-.612.335a.088.088 0 1 0-.001.154z"/></svg>