<svg xmlns="http://www.w3.org/2000/svg" viewBox="0 0 18 32"><path d="M3.681 13.363l-.439-.24a.06.06 0 0 1-.025-.025l-.24-.439a.063.063 0 0 0-.111 0l-.24.439a.06.06 0 0 1-.025.025l-.439.24a.063.063 0 0 0 0 .111l.43.235a.064.064 0 0 1 .031.041l.237 1.053c.015.066.108.066.123 0l.237-1.053a.06.06 0 0 1 .031-.041l.43-.235a.064.064 0 0 0-.001-.111zM2.207 9.48l-.337-.184a.05.05 0 0 1-.019-.019l-.184-.337a.049.049 0 0 0-.085 0l-.184.337a.044.044 0 0 1-.019.019l-.337.184a.048.048 0 0 0 0 .085l.33.181a.051.051 0 0 1 .024.032l.181.808c.011.05.083.05.094 0l.181-.808a.049.049 0 0 1 .024-.032l.33-.181a.048.048 0 0 0 0-.085zM3.138 11.137a.031.031 0 0 1 .015.02l.111.493c.007.031.051.031.058 0l.111-.493a.033.033 0 0 1 .015-.02l.202-.11a.03.03 0 0 0 0-.052l-.206-.112a.034.034 0 0 1-.012-.012l-.112-.206a.03.03 0 0 0-.052 0l-.112.206a.034.034 0 0 1-.012.012l-.206.112a.03.03 0 0 0 0 .052z"/><path d="M17.531 30.392L9.25 9.781a1.355 1.355 0 0 0-.051-.109l1.823.165a.952.952 0 0 0 .922-.491.941.941 0 0 0-.03-.97l-1.582-2.502a.344.344 0 0 1-.025-.322l1.164-2.721a.949.949 0 0 0-.08-.9.95.95 0 0 0-1.034-.401l-2.868.731a.35.35 0 0 1-.314-.075L4.947.237A.937.937 0 0 0 4.322 0a.959.959 0 0 0-.956.894l-.191 2.954a.346.346 0 0 1-.169.276L.464 5.641c-.314.187-.491.531-.462.896s.259.676.599.811l2.75 1.095a.346.346 0 0 1 .21.245l.657 2.886a.952.952 0 0 0 1.665.398l1.163-1.4c.009.028.018.056.029.083l8.281 20.611a1.167 1.167 0 0 0 1.523.65c.29-.117.518-.339.641-.627s.127-.606.01-.897zm-6.453-21.16l-.502-.045-.241-.581.909.601a.342.342 0 0 1-.166.025zm-.164-6.641L9.75 5.312a.954.954 0 0 0 .071.886L11.403 8.7a.348.348 0 0 1 .049.124L6.654 5.652l4.291-3.216a.348.348 0 0 1-.029.154zm-4.137.052a.962.962 0 0 0 .864.206l2.868-.731a.37.37 0 0 1 .144-.006L6.37 5.322 4.416.62a.347.347 0 0 1 .133.073zm-6 3.519l2.542-1.517a.952.952 0 0 0 .463-.758L3.973.933a.351.351 0 0 1 .042-.146l1.954 4.702L.67 6.26a.337.337 0 0 1 .107-.098zm3.378 2.391a.956.956 0 0 0-.578-.675L.827 6.783a.347.347 0 0 1-.129-.089l5.304-.772-1.154 5.608a.36.36 0 0 1-.036-.092zm1.263 3.031a.337.337 0 0 1-.161.109l1.167-5.672 3.522 2.327.337.811-.485-.044-.383-.921a.13.13 0 0 0-.24.1l.33.795-.517-.047-.442-1.063c-.028-.067-.103-.098-.17-.07s-.098.104-.07.17l.389.937-.565-.051a.954.954 0 0 0-.82.341zM16.963 31.05a.56.56 0 0 1-.518.343.563.563 0 0 1-.524-.354l-8.28-20.611a.561.561 0 0 1 .524-.775c.232 0 .437.139.524.354l8.281 20.611a.56.56 0 0 1-.005.431z"/><path d="M2.89 7.072l-.217-.089c-.066-.027-.142.004-.17.07s.004.143.071.17l.217.089a.128.128 0 0 0 .17-.071.13.13 0 0 0-.071-.169zM4.918 9.369l-.262-1.055a1.29 1.29 0 0 0-.756-.877l-.515-.213c-.066-.027-.142.004-.17.071s.004.142.071.17l.515.213c.3.124.525.385.603.699l.262 1.055a.131.131 0 0 0 .158.095.13.13 0 0 0 .095-.158zM10.879 17.174a.13.13 0 1 0-.241.097l.501 1.241c.02.051.069.081.121.081a.13.13 0 0 0 .121-.178zM11.682 19.124c-.027-.067-.103-.099-.169-.072s-.099.103-.072.17l2.001 4.922a.131.131 0 0 0 .17.071.128.128 0 0 0 .071-.169z"/></svg>