<svg xmlns="http://www.w3.org/2000/svg" viewBox="0 0 31 32"><path d="M7.23 2.734l1.138.623a.166.166 0 0 1 .082.108v.001l.626 2.784c.039.174.287.174.325 0l.626-2.784a.169.169 0 0 1 .082-.109h.001l1.138-.622a.167.167 0 0 0 0-.292h-.001l-1.161-.635a.168.168 0 0 1-.066-.066v-.001L9.385.58C9.356.528 9.301.493 9.239.493s-.118.035-.146.086V.58l-.635 1.161a.172.172 0 0 1-.065.066h-.001l-1.161.635a.167.167 0 0 0 0 .292h.001zm5.062 3.735l.456.25a.064.064 0 0 1 .033.045l.251 1.115c.016.07.115.07.13 0l.251-1.116a.065.065 0 0 1 .033-.044l.456-.25a.067.067 0 0 0 .001-.117l-.466-.255a.065.065 0 0 1-.026-.026l-.255-.466c-.012-.021-.033-.035-.059-.035s-.047.014-.058.035l-.255.466a.065.065 0 0 1-.026.026l-.466.255c-.021.012-.034.034-.034.059s.014.047.035.059zm1.67-4.044l.315.173c.012.006.02.017.023.031l.174.772c.011.048.08.048.09 0l.174-.772a.048.048 0 0 1 .023-.031l.315-.173c.015-.008.024-.023.024-.041s-.01-.033-.024-.041l-.322-.176a.045.045 0 0 1-.018-.018l-.176-.322a.047.047 0 0 0-.082 0l-.176.322a.045.045 0 0 1-.018.018l-.322.176a.047.047 0 0 0 0 .082z"/><path d="M29.497 10.06h-3.849l2.134-4.172c.157-.306.443-.516.776-.603a2.692 2.692 0 0 0 2.006-2.599A2.689 2.689 0 0 0 28.51.074L28.492.07a2.695 2.695 0 0 0-3.027 1.439 2.647 2.647 0 0 0-.242 1.582l-.002-.015a1.13 1.13 0 0 1-.36.98l-6.407 6.002H1.935a1.938 1.938 0 0 0-1.936 1.936v1.448a1.937 1.937 0 0 0 1.63 1.909l.011.001c-.158 1.758-.127 7.424 6.045 11.515-.661.317-1.11.98-1.112 1.749v1.448A1.938 1.938 0 0 0 8.509 32h14.412a1.938 1.938 0 0 0 1.936-1.936v-1.448a1.935 1.935 0 0 0-1.229-1.8l-.013-.005c6.065-4.071 6.117-9.664 5.962-11.438a1.938 1.938 0 0 0 1.856-1.931v-1.448a1.937 1.937 0 0 0-1.936-1.935zM1.936 11.195h27.561c.413 0 .75.316.791.718H1.145a.797.797 0 0 1 .79-.718zm2.49 9.876a.242.242 0 0 1-.335-.075l-.001-.001c-1.468-2.326-1.079-4.621-1.062-4.717a.244.244 0 0 1 .479.087v-.001c-.004.022-.369 2.211.994 4.371a.239.239 0 0 1 .038.13.247.247 0 0 1-.112.206l-.001.001zm2.112 2.753a.241.241 0 0 1-.185.086h-.002-.001a.24.24 0 0 1-.157-.058c-1.081-.915-1.582-1.902-1.602-1.944a.243.243 0 0 1 .435-.22l.001.001c.005.01.481.944 1.482 1.79a.244.244 0 0 1 .028.345zm1.181 4.712a.799.799 0 0 1 .791-.718h14.412c.413 0 .75.316.791.718zm-.008 1.528v-.716h13.576v1.516h-.649v-.906a.244.244 0 0 0-.488 0v.906h-.649v-.521a.244.244 0 0 0-.488 0v.521H8.509a.801.801 0 0 1-.8-.8zm15.211.799h-.012v-.906a.244.244 0 0 0-.488 0v.906h-.649v-1.516h1.948v.716c0 .441-.359.8-.8.8zm1.368-14.299h-5.073a.244.244 0 0 1 0-.488h5.073a.244.244 0 0 1 0 .488zm3.003 0h-1.786a.244.244 0 0 1 0-.488h1.786a.244.244 0 0 1 0 .488zm2.204-2.322H1.936a.8.8 0 0 1-.799-.8v-.716h.572v.295a.84.84 0 0 0 .839.839H6.85a.243.243 0 1 0 0-.486H2.548a.352.352 0 0 1-.351-.352v-.295h28.101v.716a.804.804 0 0 1-.8.8z"/><path d="M9.792 13.372H7.956a.243.243 0 1 0 0 .486h1.836a.243.243 0 0 0 0-.486z"/></svg>