<svg xmlns="http://www.w3.org/2000/svg" viewBox="0 0 24 32"><path d="M1.006 6.981l.481 2.141c.03.134.22.134.25 0l.481-2.141a.129.129 0 0 1 .063-.084h.001l.875-.479a.128.128 0 0 0 .001-.225h-.001l-.893-.488a.13.13 0 0 1-.051-.05v-.001l-.488-.893a.128.128 0 0 0-.224-.001v.001l-.488.893a.13.13 0 0 1-.05.051H.962l-.893.488a.128.128 0 0 0-.001.225h.001l.875.479a.133.133 0 0 1 .064.083v.001zM2.657.691l.351.192a.049.049 0 0 1 .025.034l.193.859c.012.053.088.053.101 0L3.52.917a.052.052 0 0 1 .025-.034l.351-.192c.016-.009.027-.026.027-.045S3.912.61 3.897.601L3.539.406a.048.048 0 0 1-.02-.02L3.323.028C3.314.012 3.297.001 3.278.001s-.036.011-.045.027l-.196.358a.058.058 0 0 1-.02.021l-.358.195c-.016.009-.027.026-.027.045s.011.036.026.045zm2.399 3.221l.531.29a.076.076 0 0 1 .038.051l.292 1.299c.018.081.134.081.152 0l.292-1.299a.077.077 0 0 1 .038-.051l.531-.29a.077.077 0 0 0 0-.136l-.542-.297a.081.081 0 0 1-.031-.03l-.296-.542a.077.077 0 1 0-.136-.001l-.296.542a.075.075 0 0 1-.031.03l-.542.297c-.024.014-.039.039-.039.068s.016.055.04.068zm18.569 11.943c-1.056-5.616-5.977-9.692-11.701-9.692S1.28 10.239.223 15.855a2.23 2.23 0 0 0 .479 1.848l-.003-.004a2.222 2.222 0 0 0 1.713.806h6.146c-.762 3.551-1.225 7.353-1.225 8.622 0 2.687 2.059 4.872 4.59 4.872s4.59-2.186 4.59-4.872c0-1.269-.463-5.072-1.225-8.622H21.433c.688 0 1.303-.312 1.711-.803l.003-.004a2.22 2.22 0 0 0 .475-1.858l.002.014zm-7.984 11.273c0 2.204-1.667 3.998-3.717 3.998s-3.717-1.794-3.717-3.998c0-1.222.482-5.124 1.245-8.622h.231v.661a.187.187 0 0 0 .374 0v-.661h.652v1.317a.187.187 0 0 0 .374 0v-1.317h.652v1.039a.187.187 0 0 0 .374 0v-1.039h.652v1.039a.187.187 0 0 0 .374 0v-1.039h.579v1.759a.187.187 0 0 0 .374 0v-1.759h.304c.762 3.498 1.244 7.4 1.244 8.622zm6.835-9.986c-.25.3-.623.49-1.041.49H2.417a1.361 1.361 0 0 1-1.333-1.624l-.001.009c.979-5.204 5.538-8.98 10.842-8.98s9.863 3.777 10.842 8.98a1.356 1.356 0 0 1-.292 1.126l.002-.002z"/><path d="M7.752 11.485a1.439 1.439 0 1 1-2.877 0 1.439 1.439 0 0 1 2.877 0zM12.951 15.39a1.027 1.027 0 1 1-2.055 0 1.027 1.027 0 0 1 2.055 0zM15.699 10.046a1.027 1.027 0 1 1-2.055 0 1.027 1.027 0 0 1 2.055 0zM20.745 15.39a1.439 1.439 0 1 1-2.877 0 1.439 1.439 0 0 1 2.877 0zM3.852 15.901a.72.72 0 1 1-1.44 0 .72.72 0 0 1 1.44 0zM10.499 9.326a.72.72 0 1 1-1.44 0 .72.72 0 0 1 1.44 0zM19.307 12.334a.72.72 0 1 1-1.44 0 .72.72 0 0 1 1.44 0zM9.977 29.537c-1.607-1.103-.898-4.648-.891-4.684a.187.187 0 0 0-.366-.076v.001c-.032.155-.767 3.825 1.046 5.068a.187.187 0 0 0 .26-.048v-.001a.187.187 0 0 0-.048-.26h-.001zm3.356.395c-1.283.855-2.655.032-2.712-.003a.187.187 0 0 0-.197.318h.001a3.37 3.37 0 0 0 1.632.447h.012c.55 0 1.06-.168 1.482-.456l-.009.006a.187.187 0 1 0-.209-.311h.001z"/></svg>