<svg xmlns="http://www.w3.org/2000/svg" viewBox="0 0 24 32"><path d="M19.818 14.295a4.083 4.083 0 0 1-1.426-1.427c-.35-.607-.451-1.175-.301-1.689.213-.728.872-1.17 1.072-1.29a1.793 1.793 0 0 0 1.686-1.786V6.555a1.792 1.792 0 0 0-1.791-1.791h-.17V2.967A2.97 2.97 0 0 0 15.921.001h-2.115a2.97 2.97 0 0 0-2.967 2.966v1.797h-.169a1.796 1.796 0 0 0-1.753 1.418l-.002.012h-.506a1.354 1.354 0 0 1-1.352-1.352V2.074A2.076 2.076 0 0 0 4.983 0a2.076 2.076 0 0 0-2.074 2.074v5.964a1.54 1.54 0 0 0-.646.317L.564 9.762a1.546 1.546 0 0 0-.562 1.192v4.997a1.553 1.553 0 0 0 1.551 1.552h3.435a1.553 1.553 0 0 0 1.551-1.551v-4.989-.003c0-.483-.222-.915-.569-1.198l-.003-.002-1.736-1.413a1.546 1.546 0 0 0-.59-.298l-.011-.002V2.075c0-.745.606-1.352 1.352-1.352s1.352.607 1.352 1.352v2.768a2.076 2.076 0 0 0 2.074 2.074h.47v1.187c0 .953.748 1.732 1.687 1.786.2.119.854.554 1.069 1.285.152.515.051 1.085-.3 1.694a4.072 4.072 0 0 1-1.426 1.426c-.142.086-.242.15-.341.217l.034-.021.007.012.709.388a4.805 4.805 0 0 0 1.643-1.661c.453-.788.577-1.548.366-2.26a2.744 2.744 0 0 0-.626-1.075h.909v.438c0 .086.069.155.155.155s.155-.069.155-.155v-.438h.463v.774a.155.155 0 0 0 .31 0v-.774h.52v2.219c0 .086.069.155.155.155s.155-.069.155-.155V9.895h2.613c-.304.432-.636 1.175-.586 2.329a.155.155 0 0 0 .155.148h.007a.156.156 0 0 0 .148-.155v-.007c-.055-1.265.377-1.981.666-2.315h.5a2.75 2.75 0 0 0-.626 1.075c-.21.712-.087 1.472.366 2.26a4.806 4.806 0 0 0 1.677 1.683 8.768 8.768 0 0 1 4.243 7.543 8.766 8.766 0 0 1-2.584 6.239 8.769 8.769 0 0 1-6.365 2.583 8.752 8.752 0 0 1-6.216-2.706 8.762 8.762 0 0 1-2.479-6.321 8.751 8.751 0 0 1 2.357-5.804l-.005.005-.143-.636-.162-.088a9.469 9.469 0 0 0-2.77 6.497v.01A9.479 9.479 0 0 0 8 29.074a9.471 9.471 0 0 0 6.726 2.928l.136.001c2.55 0 4.947-.993 6.749-2.796s2.796-4.2 2.796-6.75a9.488 9.488 0 0 0-4.591-8.16zM5.509 10.32a.828.828 0 0 1 .306.643v4.988a.829.829 0 0 1-.829.829H1.551a.83.83 0 0 1-.829-.829v-4.994c0-.248.11-.48.3-.638l1.7-1.407a.826.826 0 0 1 1.054-.004l-.001-.001zm6.052-7.354A2.247 2.247 0 0 1 13.805.722h2.116a2.247 2.247 0 0 1 2.245 2.244v1.797h-6.605zm-.892 2.52h8.388c.5 0 .92.346 1.036.811H9.633c.12-.469.538-.81 1.036-.811zm0 3.686A1.07 1.07 0 0 1 9.6 8.103v-1.29h10.526v1.29a1.07 1.07 0 0 1-1.069 1.069z"/><path d="M13.537 2.319a.423.423 0 1 1-.845.001.423.423 0 0 1 .845-.001zM15.212 3.713a.423.423 0 1 1-.845.001.423.423 0 0 1 .845-.001zM17.035 2.319a.423.423 0 1 1-.845.001.423.423 0 0 1 .845-.001zM14.037 8.57h-3.13a.672.672 0 0 1-.671-.671v-.416c0-.086-.069-.155-.155-.155s-.155.069-.155.155v.416a.98.98 0 0 0 .98.98h3.13a.155.155 0 0 0 0-.31zm2.322 0h-1.496a.155.155 0 0 0 0 .31h1.496a.155.155 0 0 0 0-.31zM8.12 18.742a7.611 7.611 0 0 0-.985 4.069v-.014c.136 3.984 3.333 7.245 7.315 7.452a7.733 7.733 0 0 0 7.121-11.571.609.609 0 0 0-.879-.203 2.71 2.71 0 0 1-1.598.518h-.008c-.674 0-1.29-.244-1.766-.648l.004.003a.592.592 0 0 0-.767.001l.001-.001a2.717 2.717 0 0 1-1.763.645h-.008a2.722 2.722 0 0 1-1.767-.648l.004.003a.592.592 0 0 0-.767.001l.001-.001a2.717 2.717 0 0 1-1.763.645h-.008a2.712 2.712 0 0 1-1.51-.456l.01.006a.607.607 0 0 0-.866.199zm.553 6.327a.258.258 0 0 1-.352-.093l-.001-.001c-.25-.434-.362-1.229-.374-1.318a.259.259 0 0 1 .512-.069v.001c.029.215.14.836.309 1.129a.259.259 0 0 1-.093.352l-.001.001zm.216-5.281c-.006.014-.625 1.387-.528 2.729l.001.019a.258.258 0 0 1-.238.257h-.001l-.019.001a.258.258 0 0 1-.257-.238v-.001c-.107-1.477.545-2.92.573-2.981a.259.259 0 0 1 .489.115c0 .036-.007.07-.021.101l.001-.002zm10.3 2.306a.493.493 0 0 1 0 .986.493.493 0 0 1 0-.986zm-.986 1.749a.947.947 0 0 1 0 1.892.947.947 0 0 1 0-1.892zm-2.693-.184a.338.338 0 1 1 0 .676.338.338 0 1 1 0-.676zm2.561-8.809a.154.154 0 0 0 .217-.029.152.152 0 0 0 .031-.094.154.154 0 0 0-.061-.123c-.88-.668-1.269-1.708-1.273-1.718a.155.155 0 1 0-.29.108v-.001c.017.046.422 1.134 1.376 1.858zm-7.405 2.471c.01.006.018.016.021.028l.159.709c.01.044.073.044.083 0l.159-.709a.046.046 0 0 1 .021-.028l.29-.158a.042.042 0 0 0 0-.074l-.296-.162a.046.046 0 0 1-.017-.017l-.162-.296c-.008-.013-.021-.022-.037-.022s-.03.009-.037.022l-.162.296a.046.046 0 0 1-.017.017l-.296.162a.042.042 0 0 0 0 .074zm1.019-1.512a.032.032 0 0 1 .015.019l.111.491c.007.031.051.031.057 0l.11-.491a.035.035 0 0 1 .014-.02l.2-.11c.009-.005.016-.015.016-.026s-.006-.021-.015-.026l-.204-.112a.043.043 0 0 1-.012-.011l-.112-.205c-.005-.009-.015-.016-.026-.016s-.021.006-.026.015l-.112.205a.025.025 0 0 1-.012.011l-.205.112c-.009.005-.015.015-.015.026s.006.021.015.026zm-9.969-4.307a1.574 1.574 0 0 0 .497 1.259l.001.001v.483c0 .207.14.382.331.434.062.017.123-.031.127-.095l.007-.109c0-.058.047-.104.104-.104h.164c.058 0 .104.047.104.104v.091c0 .071.058.128.128.128h.229a.128.128 0 0 0 .128-.128v-.091c0-.058.047-.104.104-.104h.164c.058 0 .104.047.104.104l.007.109c.005.064.066.111.127.095a.45.45 0 0 0 .331-.434v-.483a1.583 1.583 0 0 0-1.187-2.735h.005a1.589 1.589 0 0 0-1.478 1.475zm.943.858a.405.405 0 1 1 0-.81.405.405 0 1 1 0 .81zm1.272-.81h.012a.405.405 0 1 1 0 .81H3.93h.001a.405.405 0 0 1 0-.81h.001zm.109 3.855l-.424-.424.396-.396a.265.265 0 0 0 .374-.375.265.265 0 0 0-.257-.067h.002a.263.263 0 0 0-.441-.254.264.264 0 0 0 0 .374l-.396.396-.396-.396a.264.264 0 1 0-.373-.374.262.262 0 0 0-.067.256v-.002a.266.266 0 0 0-.255.067.265.265 0 0 0 .374.374l.396.396-.424.424a.264.264 0 1 0-.374.373.265.265 0 0 0 .256.068h-.002a.264.264 0 1 0 .441-.12l.424-.424.424.424a.264.264 0 1 0 .441.118v.002a.264.264 0 0 0 .254-.441.264.264 0 0 0-.374 0zm5.982-.277l-.612-.335a.088.088 0 0 1-.035-.034l-.335-.612a.088.088 0 1 0-.154-.001l-.335.612a.088.088 0 0 1-.034.035l-.612.335a.088.088 0 1 0-.001.154l.6.328a.086.086 0 0 1 .043.057v.001l.33 1.466c.021.091.151.091.171 0l.33-1.466a.091.091 0 0 1 .043-.058l.6-.328a.088.088 0 1 0 .001-.154z"/></svg>