<svg xmlns="http://www.w3.org/2000/svg" viewBox="0 0 32 32"><path d="M6.474 24.42a.781.781 0 1 0 1.106 1.106.782.782 0 0 0-1.107-1.105zm.737.497a.261.261 0 1 1-.37-.368.261.261 0 1 1 .37.368zm17.209-.497a.781.781 0 1 0 1.106 1.106.782.782 0 0 0-1.107-1.105zm.737.497a.261.261 0 1 1-.37-.368.261.261 0 1 1 .37.368zm4.085-9.565a.781.781 0 0 0-1.345.544.779.779 0 0 0 .782.782.782.782 0 0 0 .562-1.327zm-.368.498a.262.262 0 0 1-.447-.186.262.262 0 0 1 .524.001.258.258 0 0 1-.077.185zm-26.117-.498a.782.782 0 1 0 1.107 1.106.78.78 0 0 0-.57-1.318.779.779 0 0 0-.535.212zm.737.498a.262.262 0 0 1-.447-.186.262.262 0 0 1 .524.001.258.258 0 0 1-.077.185zm22.032-8.27a.783.783 0 1 0-1.106-1.106.782.782 0 0 0 1.107 1.105zm-.738-.979a.262.262 0 0 1 .447.186.262.262 0 0 1-.524-.001c0-.072.029-.138.077-.185zm-8.236-2.832a.783.783 0 1 0-1.106-1.106.783.783 0 0 0 1.107 1.106zm-.737-.978a.261.261 0 1 1 .37.368.261.261 0 1 1-.37-.368zm.737 26.358a.782.782 0 1 0-1.106-1.106.78.78 0 0 0 1.105 1.105zm-.737-.98a.262.262 0 0 1 .447.186.262.262 0 0 1-.524-.001c0-.072.029-.138.077-.185zM7.58 7.58a.783.783 0 1 0-1.106-1.106.782.782 0 0 0 1.107 1.105zm-.738-.979a.262.262 0 0 1 .447.186.262.262 0 0 1-.524-.001c0-.072.029-.138.077-.185z"/><path d="M16 0C7.178 0 0 7.177 0 16s7.177 16 16 16 16-7.177 16-16S24.823 0 16 0zm0 31.179C7.63 31.179.821 24.37.821 16S7.63.821 16 .821 31.179 7.63 31.179 16c0 8.37-6.809 15.179-15.179 15.179z"/><path d="M16 4.965c-6.085 0-11.035 4.951-11.035 11.036S9.915 27.036 16 27.036s11.035-4.95 11.035-11.035S22.084 4.965 16 4.965zm0 21.249c-1.313 0-2.569-.249-3.724-.703v-1.32a.176.176 0 0 0-.352 0v1.174a8.268 8.268 0 0 1-.495-.23l.057.026v-1.469a.176.176 0 0 0-.352 0v1.287a9.93 9.93 0 0 1-.484-.279l.047.027v-1.533a.176.176 0 0 0-.352 0v1.308a9.367 9.367 0 0 1-.463-.327l.025.018v-1.498a.176.176 0 0 0-.352 0v1.224a10.43 10.43 0 0 1-.445-.384l.008.007v-1.345a.176.176 0 0 0-.352 0v1.008A10.187 10.187 0 0 1 5.784 16c0-5.632 4.582-10.214 10.214-10.214S26.212 10.368 26.212 16c0 5.631-4.582 10.213-10.214 10.213z"/><path d="M16.176 6.528A.176.176 0 0 0 16 6.352c-5.268 0-9.553 4.285-9.553 9.553a.176.176 0 0 0 .352 0c0-5.074 4.128-9.201 9.202-9.201a.176.176 0 0 0 .176-.176zm-.084 18.671a.176.176 0 0 0 0 .352c5.268 0 9.553-4.285 9.553-9.553a.176.176 0 0 0-.352 0c0 5.073-4.128 9.201-9.201 9.201zM20.896 16c0-2.7-2.196-4.897-4.896-4.897S11.103 13.3 11.103 16 13.3 20.896 16 20.896s4.896-2.197 4.896-4.896zm-8.972 0c0-2.247 1.828-4.076 4.075-4.076s4.075 1.829 4.075 4.076-1.829 4.075-4.075 4.075-4.075-1.828-4.075-4.075z"/><path d="M19.104 16v-.05a3.104 3.104 0 1 0-6.208 0v.053V16a3.104 3.104 0 0 0 6.208.002v-.003zM16 14.094A1.908 1.908 0 0 0 14.094 16a.176.176 0 0 1-.352 0A2.26 2.26 0 0 1 16 13.742a.176.176 0 0 1 0 .352zm5.902 14.83c-5.944 3.048-11.744.032-11.802.002a.176.176 0 0 0-.166.31h.001c.04.021 2.687 1.401 6.255 1.401 1.796 0 3.826-.35 5.873-1.399a.177.177 0 0 0-.162-.313h.001z"/></svg>