<svg xmlns="http://www.w3.org/2000/svg" viewBox="0 0 29 32"><path d="M29.271 3.416a2.297 2.297 0 0 0-2.293-2.283h-.005c-.951 0-1.766.582-2.109 1.408l-.006.015a3.282 3.282 0 0 1-3.033 2.04h-.008a3.298 3.298 0 0 1-2.973-1.885l-.009-.02C18.077 1.056 16.439 0 14.661 0s-3.416 1.056-4.174 2.691a3.303 3.303 0 0 1-2.981 1.905h-.008a3.277 3.277 0 0 1-3.025-2.017l-.008-.022a2.289 2.289 0 0 0-2.116-1.424h-.004A2.297 2.297 0 0 0 .052 3.416l-.054 13.922c0 8.085 6.578 14.663 14.663 14.663S29.324 25.42 29.324 17.33zM14.662 31.179C7.03 31.179.82 24.97.82 17.339l.054-13.92a1.474 1.474 0 0 1 1.472-1.465c.598 0 1.132.359 1.36.915.626 1.508 2.087 2.549 3.791 2.549h.01-.001a4.123 4.123 0 0 0 3.727-2.381c.624-1.345 1.969-2.215 3.428-2.215s2.805.87 3.429 2.215a4.129 4.129 0 0 0 3.726 2.381 4.092 4.092 0 0 0 3.8-2.549 1.468 1.468 0 0 1 1.358-.914h.002c.81.001 1.467.656 1.472 1.465l.054 13.911c.001 7.636-6.208 13.849-13.841 13.849z"/><path d="M26.714 3.107a.585.585 0 0 0-.542.366c-.742 1.789-2.475 3.024-4.496 3.024h-.012.001a4.887 4.887 0 0 1-4.42-2.824c-.472-1.017-1.485-1.674-2.582-1.674s-2.111.657-2.582 1.674c-.795 1.679-2.474 2.82-4.419 2.824H7.65a4.857 4.857 0 0 1-4.485-2.992l-.012-.032a.586.586 0 0 0-.542-.366.582.582 0 0 0-.588.585L1.97 17.309c0 6.999 5.694 12.693 12.693 12.693s12.693-5.694 12.693-12.694l-.053-13.615v-.002a.582.582 0 0 0-.582-.582h-.007zM14.662 29.18c-6.546 0-11.872-5.325-11.872-11.87l.049-12.656c1.018 1.609 2.789 2.663 4.806 2.663h.015-.001a5.712 5.712 0 0 0 5.15-3.265l.015-.035c.338-.728 1.059-1.198 1.837-1.198s1.5.47 1.837 1.198c.16.344.352.667.571.966v2.641a.176.176 0 0 0 .352 0V5.416c.175.195.362.377.561.545v3.015a.176.176 0 1 0 .352 0v-2.74a5.4 5.4 0 0 0 .548.349v2.938a.176.176 0 0 0 .352 0V6.766c.24.114.488.211.743.291v1.918a.176.176 0 0 0 .352 0v-1.82c.207.053.46.099.718.127l.025.002v1.691a.176.176 0 1 0 .352 0V7.31a4.775 4.775 0 0 0 .743-.019v.879a.176.176 0 0 0 .352 0v-.921a5.675 5.675 0 0 0 3.951-2.573l.014-.023.049 12.654c-.002 6.545-5.327 11.871-11.874 11.871z"/><path d="M5.491 9.345a.782.782 0 1 1-1.564 0 .782.782 0 0 1 1.564 0zM5.491 13.872a.782.782 0 1 1-1.564 0 .782.782 0 0 1 1.564 0zM5.491 18.4a.782.782 0 1 1-1.564 0 .782.782 0 0 1 1.564 0zM15.444 27.432a.782.782 0 1 1-1.564 0 .782.782 0 0 1 1.564 0zM10.753 25.868a.782.782 0 1 1-1.564 0 .782.782 0 0 1 1.564 0zM7.29 23.052a.782.782 0 1 1-1.564 0 .782.782 0 0 1 1.564 0zM25.554 9.345a.782.782 0 1 1-1.564 0 .782.782 0 0 1 1.564 0zM25.554 13.872a.782.782 0 1 1-1.564 0 .782.782 0 0 1 1.564 0zM25.554 18.4a.782.782 0 1 1-1.564 0 .782.782 0 0 1 1.564 0zM20.293 25.868a.782.782 0 1 1-1.564 0 .782.782 0 0 1 1.564 0zM23.755 23.052a.782.782 0 1 1-1.564 0 .782.782 0 0 1 1.564 0zM27.876 5.102a.176.176 0 0 0-.176.176v9.091a.176.176 0 0 0 .352 0V5.278a.176.176 0 0 0-.176-.176zm0 10.03a.176.176 0 0 0-.176.176v1.76a.176.176 0 0 0 .352 0v-1.76a.176.176 0 0 0-.176-.176z"/></svg>