<svg xmlns="http://www.w3.org/2000/svg" viewBox="0 0 11 32"><path d="M5.15 2.085a.37.37 0 1 1-.74 0 .37.37 0 0 1 .74 0zM6.618 3.306a.37.37 0 1 1-.74 0 .37.37 0 0 1 .74 0zM8.215 2.085a.37.37 0 1 1-.74 0 .37.37 0 0 1 .74 0z"/><path d="M9.89 4.206V2.175A2.178 2.178 0 0 0 7.716 0H4.908a2.176 2.176 0 0 0-2.174 2.175v2.032a1.83 1.83 0 0 0-1.497 1.795V7.58a1.829 1.829 0 0 0 1.234 1.727l.013.004v1.147l.089-.162a.319.319 0 0 1 .559-.002l.001.002.089.162V9.407h3.96v.789a.158.158 0 0 0 .316 0v-.789h.447v2.262a.158.158 0 0 0 .316 0V9.407h.447v3.682a.158.158 0 0 0 .316 0V9.407h.383v18.767c0 1.705-1.387 3.092-3.092 3.092s-3.092-1.387-3.092-3.092V13.863l-.057.256a.318.318 0 0 1-.31.249h-.001-.002a.316.316 0 0 1-.309-.247v-.002l-.057-.255v14.311c0 2.111 1.718 3.828 3.828 3.828s3.828-1.717 3.828-3.828V9.313c.73-.25 1.246-.93 1.248-1.731V6.004a1.832 1.832 0 0 0-1.487-1.793l-.011-.002zM3.47 2.175A1.439 1.439 0 0 1 4.908.737h2.808a1.439 1.439 0 0 1 1.438 1.438v2H3.47zm-.407 2.736h6.498c.51 0 .938.353 1.056.827H2.006a1.093 1.093 0 0 1 1.056-.827zm6.498 3.758H3.063a1.091 1.091 0 0 1-1.09-1.09V6.264h8.678v1.315a1.09 1.09 0 0 1-1.09 1.09z"/><path d="M6.496 8.056H3.305a.686.686 0 0 1-.684-.684v-.424-.008a.158.158 0 0 0-.316 0v.432a1 1 0 0 0 .999 1h3.191a.159.159 0 0 0 .001-.316zm2.367 0H7.338a.158.158 0 0 0 0 .316h1.525a.158.158 0 1 0 0-.316h-.001zm-6.874 6.371l-.409-.224a.057.057 0 0 1-.023-.023l-.224-.409c-.01-.018-.029-.031-.051-.031s-.041.012-.051.03l-.224.409a.057.057 0 0 1-.023.023l-.409.224c-.018.01-.031.03-.031.052s.012.041.03.051l.401.219a.059.059 0 0 1 .029.038l.22.98c.014.061.101.061.115 0l.22-.98a.056.056 0 0 1 .029-.038l.4-.219c.018-.01.031-.03.031-.052s-.012-.041-.03-.051zM.738 11.801l-.209-.114a.034.034 0 0 1-.012-.012l-.114-.209c-.005-.009-.015-.015-.026-.015s-.021.006-.026.015l-.114.209a.034.034 0 0 1-.012.012l-.209.114c-.009.005-.015.015-.015.026s.006.021.015.026l.204.112a.029.029 0 0 1 .015.019l.112.5c.007.031.052.031.059 0l.112-.5a.028.028 0 0 1 .015-.02l.204-.112c.01-.005.016-.015.016-.027s-.006-.021-.015-.026zm3.207 2.496v13.312c0 1.417 1.06 2.566 2.367 2.566s2.367-1.149 2.367-2.566V14.297a.192.192 0 0 0-.147-.187h-.001a1.654 1.654 0 0 1-.782-.429.2.2 0 0 0-.278 0 1.644 1.644 0 0 1-1.157.473h-.002-.001a1.65 1.65 0 0 1-1.158-.473.196.196 0 0 0-.278 0 1.66 1.66 0 0 1-.77.426l-.011.002a.192.192 0 0 0-.149.187zm3.503 10.995a.505.505 0 0 1 .001 1.01.505.505 0 0 1-.001-1.01zm-.856 1.915a.345.345 0 0 1 0 .69.345.345 0 0 1 0-.69zM4.426 14.776a.263.263 0 0 1 .526 0v5.559a.263.263 0 0 1-.526 0zm0 6.895a.263.263 0 0 1 .526 0v1.954a.263.263 0 0 1-.526 0zm-1.463-7.863l.347-1.544a.092.092 0 0 1 .045-.06l.631-.345c.029-.016.048-.046.048-.081s-.019-.065-.048-.081l-.644-.352a.096.096 0 0 1-.036-.036l-.352-.644c-.016-.029-.046-.048-.081-.048s-.065.019-.081.048l-.352.644a.096.096 0 0 1-.036.036l-.644.352c-.029.016-.048.046-.048.081s.019.065.048.081l.631.345c.023.013.04.035.046.061l.347 1.544c.022.096.159.096.181 0z"/></svg>