<svg xmlns="http://www.w3.org/2000/svg" viewBox="0 0 26 32"><path d="M14.574 26.631l-1.583-.866a.233.233 0 0 1-.09-.089l-.001-.001-.866-1.583a.227.227 0 0 0-.399-.001l-.001.001-.866 1.583a.233.233 0 0 1-.089.09l-.001.001-1.583.866a.227.227 0 0 0-.001.399l.001.001 1.551.849a.23.23 0 0 1 .113.15l.853 3.795c.053.237.391.237.444 0l.853-3.795a.228.228 0 0 1 .112-.149l.001-.001 1.551-.849a.227.227 0 0 0 .001-.399l-.001-.001zm11.395-19.44l-4.283-2.343a.619.619 0 0 1-.243-.241l-.002-.003L19.099.321a.616.616 0 0 0-1.08 0l-2.342 4.283a.621.621 0 0 1-.242.243l-.003.002-4.283 2.344a.615.615 0 0 0 0 1.08l4.197 2.296a.616.616 0 0 1 .305.405l2.308 10.267c.144.641 1.057.641 1.201 0l2.307-10.267a.616.616 0 0 1 .305-.405l4.197-2.296a.615.615 0 0 0 0-1.08zm-11.311-.668l-.56.311a.164.164 0 0 1-.224-.064v-.001a.168.168 0 0 1 .063-.226h.001l.56-.311a.166.166 0 0 1 .162.289h-.001zm2.897-2.754l-.629 1.132a1.748 1.748 0 0 1-.604.633l-.007.004-1.14.697a.166.166 0 0 1-.173-.283h.001l1.14-.697c.207-.128.375-.302.491-.509l.004-.007.628-1.131a.167.167 0 0 1 .311.081c0 .03-.008.057-.021.082V3.77zM9.254 15.155l-2.618-1.432a.385.385 0 0 1-.149-.148l-.001-.002-1.432-2.618a.377.377 0 0 0-.659-.002l-.001.002-1.432 2.618a.372.372 0 0 1-.148.149l-.002.001-2.618 1.432a.377.377 0 0 0-.002.659l.002.001 2.566 1.403c.094.052.162.14.186.245l.001.003 1.41 6.276c.088.391.646.391.734 0l1.41-6.276a.376.376 0 0 1 .185-.246l.002-.001 2.566-1.403a.376.376 0 0 0 .001-.659l-.002-.001zm-5.787 2.639l-.126-.603a.483.483 0 0 0-.234-.32l-.002-.001-.302-.168a.166.166 0 1 1 .162-.29h-.001l.302.168a.807.807 0 0 1 .399.542l.126.604a.166.166 0 0 1-.324.069v-.001zm.425 1.405a.164.164 0 0 1-.192-.131v-.001l-.109-.591a.166.166 0 0 1 .131-.193h.001a.165.165 0 0 1 .192.132v.001l.109.591a.166.166 0 0 1-.131.193h-.001z"/></svg>