<svg xmlns="http://www.w3.org/2000/svg" viewBox="0 0 16 32"><path d="M15.961 28.539l-3.067-6.647.057-.024a.675.675 0 0 0 .357-.888l.002.004-.251-.594a.675.675 0 0 0-.887-.357l.004-.002-.787.332-.802-1.922a.12.12 0 0 0-.221.093v-.001l.803 1.923-.226.096v-.001l-.501-1.146a.121.121 0 0 0-.106-.064.12.12 0 0 0-.113.16V19.5l.499 1.145-.203.086-.303-.7a.12.12 0 0 0-.107-.067.12.12 0 0 0-.112.162v-.001l.302.699-.257.109-.262-.606a.12.12 0 1 0-.22.096v-.001l.261.604-1.159.489L.575 5.911 1.578.741l4.406 2.886 5.547 16.677.517-.218L6.484 3.359a.284.284 0 0 0-.111-.145l-.001-.001L1.536.045a.281.281 0 0 0-.429.179v.002L.006 5.901a.28.28 0 0 0 .026.182l8.111 15.651-.131.055a.675.675 0 0 0-.357.887l-.002-.004.251.594a.675.675 0 0 0 .887.357l-.004.002.057-.024 2.626 6.834A2.455 2.455 0 0 0 13.747 32c.342 0 .668-.071.963-.199l-.016.006a2.435 2.435 0 0 0 1.32-1.35l.006-.016a2.417 2.417 0 0 0-.066-1.918l.006.015zm-.482.296l-.135.057a.63.63 0 0 0-.337.34l-.002.004-.371.912a.7.7 0 0 1-.913.382l.005.002-1.013-.411a.626.626 0 0 0-.486.005l.004-.002-.241.102-.214-.556 3.423-1.446.254.549c.01.021.019.041.027.062zm-4.539-1.339l3.283-1.387.387.839-3.339 1.41zm-.417-1.087l3.213-1.357.387.839-3.268 1.38zm-.418-1.087l3.142-1.327.387.839-3.198 1.351zm-.417-1.087l3.072-1.297.387.839-3.128 1.321zm1.508-3.228a.12.12 0 0 1-.062.157h-.001l-.504.213a.12.12 0 0 1-.157-.063v-.001a.12.12 0 0 1 .064-.157h.001l.504-.213a.12.12 0 0 1 .157.064zm-2.917 1.384a.12.12 0 0 1-.163-.112.12.12 0 0 1 .068-.108h.001l1.873-.8a.12.12 0 0 1 .094.22h-.001zm4.099-.281l.282.61-3.058 1.291-.241-.628zm-1.02 6.473l3.353-1.416.387.839-3.409 1.44z"/><path d="M9.395 19.378a.12.12 0 0 0 .111-.167v.001L2.586 2.827a.122.122 0 0 0-.108-.068.12.12 0 0 0-.112.162V2.92l6.92 16.385a.121.121 0 0 0 .111.073zm-5.987-9.252l-1.24-2.5a.12.12 0 1 0-.215.107v-.001l1.24 2.5a.12.12 0 1 0 .215-.107v.001zm.248.993a.12.12 0 1 0 .215-.107v.001l-.269-.543a.12.12 0 1 0-.215.107v-.001z"/></svg>