<svg xmlns="http://www.w3.org/2000/svg" viewBox="0 0 37 32"><path d="M7.668 16.348l.771.421a.112.112 0 0 1 .056.075l.424 1.887c.027.118.194.118.221 0l.424-1.887a.119.119 0 0 1 .056-.075l.771-.421a.113.113 0 0 0 0-.199l-.787-.431a.108.108 0 0 1-.045-.045l-.431-.787a.113.113 0 0 0-.199 0l-.431.787a.108.108 0 0 1-.045.045l-.787.431a.114.114 0 0 0 0 .199zM7.259 21.36l.309.169c.011.006.02.017.022.03l.17.757a.046.046 0 0 0 .089 0l.17-.757a.044.044 0 0 1 .023-.03l.309-.169a.045.045 0 0 0 0-.079l-.316-.173a.04.04 0 0 1-.018-.018l-.172-.316a.045.045 0 0 0-.08 0l-.172.316a.052.052 0 0 1-.018.018l-.316.173a.045.045 0 0 0 0 .079zM5.546 18.169l.309.169c.011.006.02.017.023.03l.17.757c.01.047.078.047.088 0l.17-.757a.046.046 0 0 1 .022-.03l.309-.169c.032-.017.032-.063 0-.079l-.316-.173a.045.045 0 0 1-.018-.018l-.173-.316a.045.045 0 0 0-.08 0l-.173.316a.04.04 0 0 1-.018.018l-.316.173a.045.045 0 0 0 0 .079z"/><path d="M36.67 27.84l-2.318-2.462a.385.385 0 0 0-.404-.101l-2.857.963a.385.385 0 0 0 .123.751h1.941l.645.932c.002.003.008.011.006.025s-.011.019-.014.021a2.723 2.723 0 0 1-1.54.475h-1.074a4.024 4.024 0 0 1-3.069-1.418l-.928-1.091a.566.566 0 0 0 .117-.343V23.86a.568.568 0 0 0-.272-.483.876.876 0 0 0 .007-.229l-.663-6.217a.094.094 0 0 1 .017-.067l1.001-1.462a3.798 3.798 0 0 0 .625-2.702l-.823-5.626a.09.09 0 0 1 .023-.079.1.1 0 0 1 .097-.032l3.602.78a.857.857 0 0 0 1.005-.561.859.859 0 0 0-.271-.963L24.258.195a.867.867 0 0 0-1.147.042l-7.552 7.152a1.712 1.712 0 0 0-.481 1.667l.179.696a.1.1 0 0 1-.062.118 2.46 2.46 0 0 0-1.464 1.468c-.274.752-.8 2.21-1.747 4.881-1.273 3.589-1.75 5.85-1.92 6.879a.898.898 0 0 0-.005.248.568.568 0 0 0-.329.515v1.732c0 .142.054.269.138.369l-.906 1.065a4.024 4.024 0 0 1-3.069 1.418H4.819a2.72 2.72 0 0 1-1.54-.475c-.003-.002-.011-.008-.014-.021s.003-.022.005-.025l.645-.932h1.943a.385.385 0 0 0 .099-.757l-2.835-.956a.386.386 0 0 0-.404.101L.4 27.842a1.457 1.457 0 0 0 .03 2.038l.638.637a5.036 5.036 0 0 0 3.585 1.485h27.763a5.039 5.039 0 0 0 3.585-1.485l.638-.637a1.457 1.457 0 0 0 .029-2.037zm-.576 1.493l-.638.638a4.27 4.27 0 0 1-2.629 1.24v-.517a.165.165 0 0 0-.33 0v.534l-.082.002h-.304v-1.315a.165.165 0 0 0-.33 0v1.315h-.467v-1.032a.165.165 0 0 0-.33 0v1.032h-.467v-.756a.165.165 0 0 0-.33 0v.756h-.605v-.536a.165.165 0 0 0-.33 0v.536h-.495v-.399a.165.165 0 0 0-.33 0v.399H4.654a4.274 4.274 0 0 1-3.041-1.259l-.637-.638a.689.689 0 0 1-.014-.965l2.148-2.282.47.159a.386.386 0 0 0-.183.142l-.76 1.098a.803.803 0 0 0 .208 1.121c.584.399 1.267.61 1.974.61h1.074c1.41 0 2.742-.616 3.656-1.69l.993-1.168h8.011a1.4 1.4 0 0 1-.038-.319v-2.226c0-.043.003-.086.006-.129l.008-.058.009-.065.016-.072.012-.048a2.047 2.047 0 0 1 .049-.149h-7.067c.291-1.979 1.623-5.846 1.637-5.887a.165.165 0 0 0-.312-.108c-.059.171-1.379 4.002-1.658 5.995h-.381a.092.092 0 0 1-.013-.067c.167-1.004.633-3.214 1.887-6.747a691.008 691.008 0 0 1 1.745-4.875c.17-.468.537-.836 1.006-1.008a.867.867 0 0 0 .542-1.032l-.178-.695a.938.938 0 0 1 .264-.916L23.639.8a.098.098 0 0 1 .069-.027c.016 0 .04.004.062.022l7.388 6.024c.016.013.055.045.032.108-.005.013-.037.084-.116.067l-3.602-.78a.87.87 0 0 0-1.045.976l.823 5.626a3.03 3.03 0 0 1-.499 2.155l-1.001 1.462a.868.868 0 0 0-.147.583l.663 6.217a.097.097 0 0 1-.014.062h-.537c.01.025.018.051.026.076l.023.073.012.048.016.072a.725.725 0 0 1 .009.065 1.154 1.154 0 0 1 .014.187v2.227a1.4 1.4 0 0 1-.038.319h.75l.993 1.168a4.791 4.791 0 0 0 3.656 1.69h1.074c.707 0 1.39-.211 1.974-.61a.801.801 0 0 0 .207-1.121l-.76-1.098a.386.386 0 0 0-.183-.142l.469-.159 2.149 2.282a.687.687 0 0 1-.011.965z"/><path d="M24.034 23.883h-3.737c-.119 0-.216.087-.216.193v1.699c0 .106.097.193.216.193h3.737c.119 0 .216-.086.216-.193v-1.699c0-.106-.097-.193-.216-.193z"/><path d="M25.366 23.678l-.004-.022a.995.995 0 0 0-.015-.075l-.008-.03-.003-.009-.002-.006a1 1 0 0 0-.027-.077l-.005-.012-.015-.035a.975.975 0 0 0-.887-.573h-4.473a.973.973 0 0 0-.851.502 1.4 1.4 0 0 0-.051.106l-.005.012a.893.893 0 0 0-.027.078l-.002.006-.003.009-.008.03a.829.829 0 0 0-.015.075l-.004.022a.88.88 0 0 0-.01.135v2.226a.905.905 0 0 0 .01.123l.002.013c.002.013.003.025.006.037l.013.06.004.016c.111.416.49.725.941.725H24.4c.451 0 .83-.308.941-.725l.004-.016.013-.06.006-.037.002-.013.004-.033a.888.888 0 0 0 .005-.09v-2.227a.892.892 0 0 0-.008-.116l-.003-.018zm-.676.432v1.665a.637.637 0 0 1-.01.107l-.005.023c-.006.024-.011.048-.019.071l-.011.027a.963.963 0 0 1-.03.066l-.014.023a.634.634 0 0 1-.041.06l-.033.041a.683.683 0 0 1-.235.164.667.667 0 0 1-.258.051h-3.737a.67.67 0 0 1-.334-.089l-.015-.009a.659.659 0 0 1-.131-.104l-.013-.014a.423.423 0 0 1-.033-.041c-.015-.019-.028-.04-.041-.06a.51.51 0 0 1-.044-.089l-.011-.027a.571.571 0 0 1-.019-.071l-.006-.023a.637.637 0 0 1-.01-.106v-1.699c0-.349.294-.633.657-.633h3.737c.362 0 .657.284.657.633v.033zM25.007 17.775c.01.083.082.144.164.144l.021-.001a.165.165 0 0 0 .143-.184l-.109-.858c.002-.189.051-.376.143-.541l.743-1.053c.053-.074.035-.177-.04-.23s-.178-.035-.23.04l-.748 1.06-.008.014a1.459 1.459 0 0 0-.19.742zM25.426 18.339a.165.165 0 0 0-.328.04l.129 1.046c.01.084.081.145.164.145l.02-.001a.165.165 0 0 0 .144-.184zM25.971 6.858c.008.002.016.002.024.002a.165.165 0 0 0 .163-.14c.005-.034.136-.832 1.029-.832a.165.165 0 0 0 0-.33c-.939 0-1.297.728-1.355 1.113a.166.166 0 0 0 .139.188zM12.332 30.428H5.73a.165.165 0 0 0 0 .33h6.602a.165.165 0 0 0 0-.33zM13.872 30.428h-.844a.165.165 0 0 0 0 .33h.844a.165.165 0 0 0 0-.33zM13.919 14.8a.165.165 0 0 0-.205.111l-.422 1.428a.166.166 0 0 0 .158.212.166.166 0 0 0 .158-.118l.421-1.428a.165.165 0 0 0-.111-.205z"/></svg>