<svg xmlns="http://www.w3.org/2000/svg" viewBox="0 0 512 512"><path d="M128.17 102.4h-.085c-4.71 0-8.491 3.823-8.491 8.533s3.857 8.533 8.576 8.533 8.533-3.823 8.533-8.533-3.814-8.533-8.533-8.533zm256 0h-.085c-4.71 0-8.491 3.823-8.491 8.533s3.866 8.533 8.576 8.533c4.719 0 8.533-3.823 8.533-8.533s-3.814-8.533-8.533-8.533zm-85.333 0h-.085c-4.71 0-8.491 3.823-8.491 8.533s3.866 8.533 8.576 8.533c4.719 0 8.533-3.823 8.533-8.533s-3.814-8.533-8.533-8.533zm-85.333 0h-.085c-4.71 0-8.491 3.823-8.491 8.533s3.866 8.533 8.576 8.533c4.719 0 8.533-3.823 8.533-8.533s-3.814-8.533-8.533-8.533zm0 307.2c4.719 0 8.533-3.823 8.533-8.533s-3.814-8.533-8.533-8.533h-.085c-4.71 0-8.491 3.823-8.491 8.533s3.865 8.533 8.576 8.533z"/><path d="M34.048 153.6h443.733a.544.544 0 0 1 .171 0 8.536 8.536 0 0 0 8.533-8.533 8.474 8.474 0 0 0-.828-3.661l-16.666-66.68a8.528 8.528 0 0 0-8.277-6.46h-6.306c-17.34-52.361-38.238-65.758-40.644-67.132A8.555 8.555 0 0 0 409.514 0h-76.8c-.102 0-.188.051-.29.06-.461.017-.913.179-1.382.273-.64.128-1.271.222-1.869.503-.077.034-.171.026-.247.06-.367.188-.606.503-.939.725-.435.307-.93.495-1.306.879l-11.034 11.034L304.614 2.5a8.513 8.513 0 0 0-6.033-2.5H102.314a8.549 8.549 0 0 0-4.25 1.135C95.658 2.509 74.76 15.906 57.42 68.267h-6.306a8.526 8.526 0 0 0-8.277 6.46L25.77 142.993a8.535 8.535 0 0 0 1.553 7.322 8.521 8.521 0 0 0 6.725 3.285zm372.65-136.533c4.454 3.755 17.553 17.101 29.687 51.2h-77.218c-5.018-24.32-10.172-41.045-13.815-51.2h61.346zm-142.25 0h30.601l14.566 14.566a8.523 8.523 0 0 0 12.066 0l7.91-7.91c3.191 9.028 7.68 23.637 12.143 44.544h-77.286v-51.2zm-79.719 0h62.652v51.2h-77.286c5.819-27.222 11.665-43.759 14.634-51.2zm-79.624 0h61.372c-3.644 10.155-8.789 26.871-13.815 51.2H75.443c12.185-34.245 25.335-47.557 29.662-51.2zM57.779 85.333h390.417c.009 0 .017.009.026.009s.017-.009.026-.009h5.803l12.8 51.2H44.979l12.8-51.2zM477.781 358.4h-5.649c3.686-30.771 5.649-65.041 5.649-102.4 0-27.571-1.015-53.658-3.012-77.508-.393-4.702-4.506-8.218-9.216-7.799-4.693.401-8.183 4.523-7.791 9.216 1.963 23.39 2.953 48.99 2.953 76.092 0 37.504-1.988 71.799-5.76 102.4h-83.831c2.782-31.735 4.258-66.039 4.258-102.4 0-26.888-.777-52.907-2.304-77.338a8.513 8.513 0 0 0-9.045-7.979c-4.702.299-8.277 4.343-7.987 9.045 1.51 24.081 2.27 49.741 2.27 76.271 0 36.429-1.493 70.758-4.309 102.4H264.45V179.2a8.536 8.536 0 0 0-8.533-8.533 8.536 8.536 0 0 0-8.533 8.533v179.2h-89.54c-2.833-31.684-4.326-65.997-4.326-102.4 0-26.53.759-52.19 2.27-76.271.29-4.702-3.285-8.747-7.987-9.045-4.702-.265-8.755 3.285-9.045 7.979-1.527 24.431-2.304 50.449-2.304 77.338 0 36.335 1.485 70.622 4.267 102.4h-83.84c-3.772-30.601-5.76-64.896-5.76-102.4 0-27.102.99-52.702 2.953-76.092.393-4.693-3.098-8.815-7.791-9.216-4.727-.41-8.823 3.098-9.216 7.799-1.997 23.851-3.012 49.937-3.012 77.508 0 37.359 1.963 71.629 5.649 102.4h-5.649a8.52 8.52 0 0 0-6.724 3.285 8.534 8.534 0 0 0-1.553 7.322l17.067 68.267a8.536 8.536 0 0 0 8.277 6.46h409.6a8.536 8.536 0 0 0 8.277-6.46l17.067-68.267a8.509 8.509 0 0 0-1.553-7.322 8.541 8.541 0 0 0-6.73-3.285zm-23.731 68.267H57.779l-12.8-51.2h101.76c1.033.435 2.142.708 3.311.708.273 0 .555-.008.845-.034.794-.085 1.476-.401 2.185-.674h313.77l-12.8 51.2z"/><path d="M298.837 409.6c4.719 0 8.533-3.823 8.533-8.533s-3.814-8.533-8.533-8.533h-.085c-4.71 0-8.491 3.823-8.491 8.533s3.866 8.533 8.576 8.533zm85.333 0c4.719 0 8.533-3.823 8.533-8.533s-3.814-8.533-8.533-8.533h-.085c-4.71 0-8.491 3.823-8.491 8.533s3.866 8.533 8.576 8.533zm54.69 51.772c-4.233-2.065-9.344-.307-11.409 3.925-9.105 18.628-17.451 26.88-20.727 29.636h-61.389c2.048-5.7 4.557-13.355 7.27-23.373a8.529 8.529 0 0 0-6.016-10.462c-4.531-1.22-9.233 1.459-10.462 6.007-3.712 13.705-7.014 22.81-9.02 27.827h-62.66v-25.6a8.536 8.536 0 0 0-8.533-8.533 8.536 8.536 0 0 0-8.533 8.533v25.6h-5l-14.566-14.566a8.525 8.525 0 0 0-12.066 0l-14.566 14.566h-16.452c-2.005-5.018-5.308-14.123-9.011-27.819-1.229-4.548-5.914-7.236-10.47-6.007-4.54 1.229-7.236 5.914-6.007 10.462 2.714 10.018 5.205 17.664 7.253 23.364h-61.372c-3.362-2.825-11.614-11.025-20.625-29.389-2.082-4.233-7.194-5.99-11.426-3.908-4.233 2.082-5.973 7.194-3.9 11.418 14.089 28.706 27.418 36.966 28.894 37.811a8.524 8.524 0 0 0 4.25 1.135h102.4a8.546 8.546 0 0 0 6.033-2.5l11.034-11.034 11.034 11.034a8.546 8.546 0 0 0 6.033 2.5h170.667a8.527 8.527 0 0 0 4.25-1.135c1.485-.845 14.899-9.156 29.013-38.076a8.536 8.536 0 0 0-3.921-11.416zm-310.69-68.839h-.085c-4.71 0-8.491 3.823-8.491 8.533s3.857 8.533 8.576 8.533 8.533-3.823 8.533-8.533-3.814-8.533-8.533-8.533z"/></svg>