<svg xmlns="http://www.w3.org/2000/svg" viewBox="0 0 510.083 510.083"><path d="M456.116 68.347c-15.232-15.232-33.988-26.675-54.391-33.212L385.46 9.936a8.478 8.478 0 0 0-4.241-3.388L364.775.523a8.527 8.527 0 0 0-7.825 1.016 8.525 8.525 0 0 0-3.644 6.997V68.27a8.53 8.53 0 0 0 8.533 8.533c25.421 0 45.722 14.976 58.283 27.529 32.947 32.956 32.947 86.588 0 119.535-32.964 32.964-86.579 32.947-119.535.009-3.516-3.524-6.818-7.526-9.822-11.904a8.521 8.521 0 0 0-6.246-3.661 8.544 8.544 0 0 0-6.818 2.458l-34.039 34.039c-3.328 3.328-3.328 8.73 0 12.066 3.337 3.328 8.738 3.328 12.066 0l27.128-27.128a99.023 99.023 0 0 0 5.666 6.187c39.603 39.612 104.073 39.612 143.667 0 39.612-39.603 39.612-104.055 0-143.667-18.816-18.825-40.03-29.798-61.815-32.085V20.748l2.295.836 16.401 25.412a8.533 8.533 0 0 0 4.762 3.567c18.867 5.547 36.233 15.863 50.219 29.85 46.148 46.148 46.14 121.233 0 167.39-41.728 41.711-108.527 46.148-155.392 10.325a8.546 8.546 0 0 0-11.221.742l-25.045 25.062c-1.852-2.099-3.652-4.233-5.641-6.229-25.583-25.574-59.597-39.663-95.761-39.663-36.147 0-70.144 14.071-95.718 39.629-3.2-3.183-7.433-4.941-11.938-4.941h-.009c-4.54 0-8.806 1.766-12.015 4.975L19.33 289.675c-6.613 6.63-6.613 17.408.009 24.03L210.75 505.116c3.311 3.311 7.654 4.966 12.006 4.966s8.713-1.655 12.032-4.966l11.972-11.964c6.596-6.613 6.605-17.348.043-23.979 25.549-25.574 39.612-59.554 39.612-95.701 0-27.537-8.209-53.794-23.381-76.058l21.342-21.342c53.231 36.164 125.781 29.747 171.742-16.205 52.794-52.803 52.794-138.725-.002-191.52zM269.347 373.473c0 31.607-12.305 61.338-34.662 83.686l-5.99 5.982a8.538 8.538 0 0 0-2.5 6.033c0 2.193.836 4.378 2.5 6.042l5.99 5.871-11.861 11.964-191.42-191.318 11.853-11.955L204.775 451.28c3.328 3.336 8.73 3.336 12.066 0 3.328-3.328 3.328-8.73 0-12.066L67.346 289.727c22.349-22.323 52.062-34.62 83.644-34.62 31.607 0 61.329 12.305 83.695 34.671 22.357 22.349 34.662 52.07 34.662 83.695z"/></svg>