<svg xmlns="http://www.w3.org/2000/svg" viewBox="0 0 512 512"><path d="M469.333 0c-13.338 0-25.941 6.434-33.954 17.067H76.621C68.608 6.434 56.004 0 42.667 0 19.14 0 0 19.14 0 42.667c0 23.526 19.14 42.667 42.667 42.667 13.338 0 25.941-6.434 33.954-17.067h306.671c4.71 0 8.533-3.823 8.533-8.533s-3.823-8.533-8.533-8.533H72.064a8.525 8.525 0 0 0-7.373 4.241c-4.676 8.03-12.911 12.826-22.025 12.826-14.114 0-25.6-11.486-25.6-25.6s11.486-25.6 25.6-25.6c9.114 0 17.348 4.796 22.025 12.826a8.524 8.524 0 0 0 7.373 4.241h367.872a8.525 8.525 0 0 0 7.373-4.241c4.676-8.03 12.911-12.826 22.025-12.826 14.114 0 25.6 11.486 25.6 25.6s-11.486 25.6-25.6 25.6c-9.114 0-17.348-4.796-22.025-12.826a8.524 8.524 0 0 0-7.373-4.241h-21.803a8.536 8.536 0 0 0-8.533 8.533v378.052L256 494.37l-153.6-56.584V93.867a8.536 8.536 0 0 0-8.533-8.533 8.536 8.536 0 0 0-8.533 8.533v349.867a8.528 8.528 0 0 0 5.581 8.004l162.133 59.733c.956.35 1.954.529 2.953.529s1.997-.179 2.953-.529l162.133-59.733a8.53 8.53 0 0 0 5.581-8.004V68.267h8.713c8.013 10.633 20.617 17.067 33.954 17.067 23.526 0 42.667-19.14 42.667-42.667C512 19.14 492.86 0 469.333 0z"/><path d="M136.294 274.97c-7.799 4.497-13.38 11.768-15.71 20.471-2.33 8.695-1.135 17.775 3.371 25.574 2.961 5.12 7.219 9.318 12.339 12.254a33.238 33.238 0 0 0 4.446 16.802c5.999 10.402 17.195 16.862 29.21 16.862a33.746 33.746 0 0 0 16.828-4.514c7.799-4.506 13.38-11.776 15.71-20.471 1.579-5.879 1.536-11.93-.043-17.647L256 293.376l53.564 30.925c-3.951 14.43 2.116 30.293 15.659 38.118 5.197 2.995 10.957 4.523 16.802 4.523 2.927 0 5.871-.384 8.772-1.161 8.704-2.338 15.974-7.919 20.463-15.71 2.961-5.12 4.471-10.914 4.446-16.811 5.12-2.927 9.387-7.125 12.348-12.245 9.284-16.102 3.755-36.762-12.339-46.046-7.799-4.506-16.879-5.717-25.583-3.371-5.879 1.579-11.102 4.634-15.258 8.858l-28.245-16.307 28.262-16.316c6.263 6.315 14.891 10.018 23.996 10.018a33.662 33.662 0 0 0 16.828-4.523c16.102-9.293 21.632-29.943 12.339-46.054-2.961-5.111-7.228-9.31-12.339-12.237.026-5.897-1.485-11.699-4.437-16.811-6.007-10.402-17.203-16.862-29.227-16.862a33.737 33.737 0 0 0-16.819 4.514c-13.551 7.825-19.618 23.689-15.667 38.11L256 234.923l-53.564-30.925c3.951-14.43-2.116-30.293-15.667-38.118-7.799-4.497-16.887-5.692-25.574-3.362-8.695 2.338-15.966 7.919-20.454 15.71-2.961 5.12-4.471 10.914-4.454 16.811-5.112 2.927-9.378 7.125-12.339 12.254-9.284 16.094-3.755 36.753 12.339 46.037 7.782 4.497 16.87 5.7 25.583 3.371 5.879-1.579 11.102-4.634 15.258-8.858l28.245 16.307-28.262 16.316c-10.31-10.403-27.786-13.023-40.817-5.496zm196.498 23.995a8.546 8.546 0 0 0 6.477.853 8.535 8.535 0 0 0 5.18-3.985c2.219-3.849 5.811-6.596 10.103-7.748a16.53 16.53 0 0 1 12.629 1.664c7.945 4.582 10.675 14.78 6.093 22.733-2.586 4.471-6.485 6.494-9.301 7.407a8.546 8.546 0 0 0-5.717 9.899c.623 2.893.819 7.279-1.775 11.75a16.492 16.492 0 0 1-10.095 7.757 16.51 16.51 0 0 1-12.629-1.664c-7.945-4.582-10.675-14.788-6.093-22.733a8.536 8.536 0 0 0-3.123-11.656l-51.473-29.713 16.495-9.523 43.229 24.959zm-153.583-69.632a8.55 8.55 0 0 0-6.477-.853 8.535 8.535 0 0 0-5.18 3.985c-2.219 3.849-5.811 6.596-10.103 7.748-4.284 1.178-8.781.563-12.629-1.664-7.945-4.582-10.675-14.78-6.093-22.733 2.586-4.463 6.485-6.494 9.301-7.407a8.528 8.528 0 0 0 5.709-9.89c-.614-2.901-.811-7.279 1.783-11.759a16.52 16.52 0 0 1 10.095-7.757c4.284-1.161 8.772-.563 12.629 1.664 7.945 4.582 10.675 14.788 6.093 22.733a8.536 8.536 0 0 0 3.123 11.656l51.473 29.722-16.495 9.515-43.229-24.96zm145.331-14.276a8.547 8.547 0 0 0 3.123-11.665c-4.582-7.945-1.843-18.142 6.101-22.724 7.723-4.454 18.321-1.536 22.724 6.093 2.586 4.463 2.389 8.858 1.766 11.75a8.548 8.548 0 0 0 5.717 9.899c2.816.913 6.716 2.944 9.301 7.407 4.591 7.953 1.852 18.15-6.093 22.733-7.714 4.471-18.321 1.545-22.733-6.084-2.364-4.087-7.586-5.495-11.657-3.132L187.46 313.242a8.535 8.535 0 0 0-3.977 5.188 8.51 8.51 0 0 0 .853 6.477c2.219 3.849 2.816 8.329 1.664 12.621a16.527 16.527 0 0 1-7.748 10.103c-7.731 4.454-18.313 1.562-22.733-6.101-2.586-4.454-2.389-8.849-1.775-11.75a8.537 8.537 0 0 0-5.717-9.89c-2.807-.913-6.707-2.935-9.293-7.415-2.219-3.849-2.816-8.329-1.664-12.621s3.9-7.885 7.757-10.103a16.611 16.611 0 0 1 8.294-2.236c5.939 0 11.469 3.191 14.43 8.32a8.52 8.52 0 0 0 5.18 3.977 8.59 8.59 0 0 0 6.477-.845l145.332-83.91z"/></svg>