<svg xmlns="http://www.w3.org/2000/svg" viewBox="0 0 512 512"><path d="M503.467 85.333h-435.2V76.62C78.9 68.607 85.334 56.003 85.334 42.666 85.333 19.14 66.193 0 42.667 0 19.14 0 0 19.14 0 42.667c0 13.338 6.434 25.941 17.067 33.954V486.4a8.536 8.536 0 0 0 8.533 8.533 8.536 8.536 0 0 0 8.533-8.533V72.064a8.525 8.525 0 0 0-4.241-7.373c-8.03-4.676-12.826-12.911-12.826-22.025 0-14.114 11.486-25.6 25.6-25.6s25.6 11.486 25.6 25.6c0 9.114-4.796 17.348-12.826 22.025a8.524 8.524 0 0 0-4.241 7.373v21.803a8.536 8.536 0 0 0 8.533 8.533h435.2v290.133H93.867c-4.71 0-8.533 3.823-8.533 8.533s3.823 8.533 8.533 8.533h409.6a8.53 8.53 0 0 0 8.533-8.533v-307.2a8.53 8.53 0 0 0-8.533-8.533z"/><path d="M59.733 120.175a8.536 8.536 0 0 0-8.533 8.533v374.758c0 4.71 3.823 8.533 8.533 8.533s8.533-3.823 8.533-8.533V128.708c.001-4.71-3.822-8.533-8.533-8.533zm110.695 137.728c-7.799 4.497-13.38 11.767-15.71 20.471-2.33 8.695-1.126 17.775 3.371 25.574 2.961 5.12 7.219 9.318 12.339 12.254a33.238 33.238 0 0 0 4.446 16.802c5.999 10.402 17.195 16.862 29.21 16.862a33.77 33.77 0 0 0 16.828-4.514c7.799-4.506 13.38-11.776 15.701-20.471a33.387 33.387 0 0 0-.034-17.647l53.555-30.925 53.564 30.925c-3.942 14.43 2.116 30.302 15.659 38.118 5.205 2.995 10.957 4.523 16.802 4.523 2.927 0 5.871-.384 8.781-1.16 8.704-2.338 15.966-7.91 20.454-15.71 2.961-5.111 4.471-10.906 4.446-16.811 5.12-2.927 9.387-7.125 12.348-12.245 9.293-16.102 3.755-36.753-12.339-46.046-7.808-4.506-16.879-5.7-25.583-3.371-5.879 1.579-11.11 4.634-15.266 8.858l-28.237-16.307 28.262-16.316c6.263 6.315 14.891 10.018 24.004 10.018 5.88 0 11.708-1.562 16.819-4.523 16.094-9.293 21.641-29.943 12.339-46.054a33.446 33.446 0 0 0-12.348-12.237 33.394 33.394 0 0 0-4.429-16.811c-5.999-10.394-17.203-16.862-29.218-16.862a33.77 33.77 0 0 0-16.828 4.514c-7.799 4.506-13.372 11.776-15.71 20.463-1.57 5.879-1.536 11.938.034 17.655l-53.555 30.925-53.564-30.925c3.942-14.43-2.116-30.293-15.667-38.118-7.799-4.497-16.879-5.7-25.574-3.362s-15.966 7.919-20.454 15.71c-2.961 5.12-4.471 10.914-4.454 16.811-5.111 2.927-9.378 7.125-12.339 12.245-9.293 16.102-3.755 36.762 12.339 46.046 7.791 4.497 16.87 5.692 25.583 3.371 5.879-1.579 11.102-4.634 15.258-8.858l28.245 16.307-28.262 16.316c-10.31-10.402-27.794-13.021-40.816-5.495zm196.497 23.996a8.582 8.582 0 0 0 6.477.853 8.513 8.513 0 0 0 5.18-3.985c2.219-3.849 5.811-6.596 10.103-7.748 4.318-1.152 8.789-.555 12.629 1.664 7.945 4.582 10.667 14.78 6.093 22.733-2.594 4.471-6.494 6.494-9.31 7.407a8.548 8.548 0 0 0-5.709 9.907c.623 2.884.811 7.27-1.775 11.742-2.21 3.857-5.794 6.605-10.095 7.757-4.284 1.152-8.764.563-12.629-1.664-7.945-4.582-10.684-14.78-6.093-22.733 2.364-4.079.964-9.301-3.123-11.657L307.2 266.462l16.495-9.523 43.23 24.96zm-153.583-69.632a8.516 8.516 0 0 0-6.477-.853 8.535 8.535 0 0 0-5.18 3.985c-2.219 3.849-5.811 6.596-10.104 7.748-4.292 1.169-8.781.563-12.629-1.664-7.945-4.582-10.675-14.78-6.093-22.733 2.586-4.463 6.485-6.494 9.301-7.407a8.528 8.528 0 0 0 5.709-9.89c-.614-2.901-.811-7.279 1.783-11.759a16.52 16.52 0 0 1 10.095-7.757c4.284-1.161 8.772-.563 12.629 1.664 7.945 4.582 10.675 14.788 6.093 22.733-2.355 4.079-.956 9.301 3.123 11.657l51.465 29.722-16.486 9.515-43.229-24.961zm145.331-14.277c4.087-2.364 5.487-7.578 3.123-11.665a16.517 16.517 0 0 1-1.655-12.621 16.509 16.509 0 0 1 7.757-10.103c7.706-4.463 18.33-1.553 22.724 6.084 2.586 4.48 2.389 8.858 1.766 11.75a8.538 8.538 0 0 0 5.709 9.907c2.816.913 6.716 2.944 9.31 7.407 4.582 7.953 1.852 18.142-6.093 22.741-7.731 4.446-18.313 1.536-22.733-6.101-2.364-4.079-7.595-5.47-11.657-3.123l-145.331 83.908a8.535 8.535 0 0 0-3.977 5.188 8.51 8.51 0 0 0 .853 6.477c2.219 3.849 2.816 8.328 1.664 12.621a16.527 16.527 0 0 1-7.748 10.103c-7.723 4.463-18.313 1.562-22.733-6.101-2.586-4.454-2.389-8.849-1.775-11.75a8.542 8.542 0 0 0-5.717-9.89c-2.807-.913-6.707-2.935-9.293-7.415-2.219-3.849-2.816-8.328-1.664-12.621 1.152-4.292 3.9-7.885 7.757-10.103a16.611 16.611 0 0 1 8.294-2.236c5.939 0 11.469 3.191 14.43 8.32a8.52 8.52 0 0 0 5.18 3.977 8.549 8.549 0 0 0 6.477-.845l145.332-83.909z"/></svg>