<svg xmlns="http://www.w3.org/2000/svg" viewBox="0 0 512.002 512.002"><path d="M435.202 128.001c23.526 0 42.667-19.14 42.667-42.667 0-23.526-19.14-42.667-42.667-42.667-23.526 0-42.667 19.14-42.667 42.667.001 23.527 19.141 42.667 42.667 42.667zm0-68.267c14.114 0 25.6 11.486 25.6 25.6s-11.486 25.6-25.6 25.6-25.6-11.486-25.6-25.6 11.486-25.6 25.6-25.6zm-198.656 237.79L51.202 482.868l-36.634-36.634a8.525 8.525 0 0 0-12.066 0 8.525 8.525 0 0 0 0 12.066l42.667 42.667a8.51 8.51 0 0 0 6.033 2.5 8.509 8.509 0 0 0 6.033-2.5L248.612 309.59c3.328-3.328 3.328-8.73 0-12.066-3.336-3.328-8.738-3.328-12.066 0z"/><path d="M47.669 435.201l-6.63 6.63c-3.337 3.336-3.337 8.738 0 12.066a8.473 8.473 0 0 0 6.033 2.5 8.504 8.504 0 0 0 6.033-2.5l170.086-170.086c3.337-3.336 3.337-8.738 0-12.066-3.328-3.337-8.73-3.337-12.066 0L93.869 389.002l-11.034-11.034a8.525 8.525 0 0 0-12.066 0 8.525 8.525 0 0 0 0 12.066l11.034 11.034-22.067 22.067-28.1-28.1a8.523 8.523 0 0 0-12.066 0 8.523 8.523 0 0 0 0 12.066l28.099 28.1zm361.933-281.6a8.536 8.536 0 0 0-8.533-8.533c-14.114 0-25.6-11.486-25.6-25.6 0-4.71-3.823-8.533-8.533-8.533s-8.533 3.823-8.533 8.533c0 14.114-11.486 25.6-25.6 25.6a8.536 8.536 0 0 0-8.533 8.533 8.536 8.536 0 0 0 8.533 8.533c14.114 0 25.6 11.486 25.6 25.6 0 4.71 3.823 8.533 8.533 8.533s8.533-3.823 8.533-8.533c0-14.114 11.486-25.6 25.6-25.6a8.536 8.536 0 0 0 8.533-8.533zm-42.667 8.559a43.272 43.272 0 0 0-8.559-8.559 43.272 43.272 0 0 0 8.559-8.559 43.272 43.272 0 0 0 8.559 8.559 43.272 43.272 0 0 0-8.559 8.559z"/><path d="M470.368 153.601c24.704-12.783 41.634-38.588 41.634-68.267 0-42.342-34.458-76.8-76.8-76.8-29.687 0-55.484 16.93-68.267 41.634-12.783-24.704-38.579-41.634-68.267-41.634-42.342 0-76.8 34.458-76.8 76.8 0 29.679 16.93 55.484 41.634 68.267-24.704 12.783-41.634 38.588-41.634 68.267 0 42.342 34.458 76.8 76.8 76.8 29.688 0 55.484-16.93 68.267-41.634 12.783 24.704 38.579 41.634 68.267 41.634 42.342 0 76.8-34.458 76.8-76.8 0-29.679-16.93-55.484-41.634-68.267zm-35.166 128c-32.939 0-59.733-26.795-59.733-59.733 0-4.71-3.823-8.533-8.533-8.533s-8.533 3.823-8.533 8.533c0 32.939-26.795 59.733-59.733 59.733s-59.733-26.795-59.733-59.733c0-32.939 26.795-59.733 59.733-59.733a8.536 8.536 0 0 0 8.533-8.533 8.536 8.536 0 0 0-8.533-8.533c-32.939 0-59.733-26.795-59.733-59.733s26.795-59.733 59.733-59.733 59.733 26.795 59.733 59.733c0 4.71 3.823 8.533 8.533 8.533s8.533-3.823 8.533-8.533c0-32.939 26.795-59.733 59.733-59.733s59.733 26.795 59.733 59.733-26.795 59.733-59.733 59.733a8.536 8.536 0 0 0-8.533 8.533 8.536 8.536 0 0 0 8.533 8.533c32.939 0 59.733 26.795 59.733 59.733 0 32.938-26.794 59.733-59.733 59.733z"/><path d="M435.202 179.201c-23.526 0-42.667 19.14-42.667 42.667 0 23.526 19.14 42.667 42.667 42.667 23.526 0 42.667-19.14 42.667-42.667s-19.14-42.667-42.667-42.667zm0 68.267c-14.114 0-25.6-11.486-25.6-25.6s11.486-25.6 25.6-25.6 25.6 11.486 25.6 25.6-11.486 25.6-25.6 25.6zm-136.533-68.267c-23.526 0-42.667 19.14-42.667 42.667 0 23.526 19.14 42.667 42.667 42.667 23.526 0 42.667-19.14 42.667-42.667s-19.141-42.667-42.667-42.667zm0 68.267c-14.114 0-25.6-11.486-25.6-25.6s11.486-25.6 25.6-25.6 25.6 11.486 25.6 25.6-11.486 25.6-25.6 25.6zm42.667-162.134c0-23.526-19.14-42.667-42.667-42.667-23.526 0-42.667 19.14-42.667 42.667 0 23.526 19.14 42.667 42.667 42.667 23.526 0 42.667-19.14 42.667-42.667zm-42.667 25.6c-14.114 0-25.6-11.486-25.6-25.6s11.486-25.6 25.6-25.6 25.6 11.486 25.6 25.6-11.486 25.6-25.6 25.6z"/></svg>