<svg xmlns="http://www.w3.org/2000/svg" viewBox="0 0 512.019 512.019"><path d="M507.042 76.461L435.549 4.969c-6.648-6.622-17.442-6.63-24.073.009L399.564 16.89a16.947 16.947 0 0 0-4.983 12.041c0 4.548 1.775 8.823 4.992 12.032l41.685 41.702c3.354 3.354 8.798 3.354 12.16 0 3.354-3.354 3.354-8.806 0-12.16l-41.694-41.463 11.665-11.913 71.492 71.245-11.674 11.93-5.939-5.965a8.598 8.598 0 0 0-6.084-2.526h-.009a8.566 8.566 0 0 0-6.076 2.517l-41.711 41.702c-6.101 6.093-20.378 20.378-20.378 47.77v35.746c0 19.541-8.371 40.542-21.325 53.487L167.253 487.477c-9.472 9.472-26.018 9.481-35.499 0L24.533 380.256c-9.788-9.788-9.788-25.711 0-35.499l214.443-214.443c12.945-12.945 33.946-21.308 53.495-21.308h35.746c27.375 0 41.668-14.285 47.761-20.395l17.903-17.877c3.362-3.362 3.362-8.806 0-12.16-3.354-3.362-8.798-3.354-12.16-.009l-17.903 17.894c-5.743 5.743-15.343 15.351-35.601 15.351h-35.746c-24.235 0-49.399 10.095-65.655 26.342L12.381 332.606c-16.495 16.486-16.495 43.315 0 59.81l107.213 107.213c7.987 7.987 18.611 12.39 29.909 12.39s21.922-4.403 29.901-12.39l214.443-214.434c16.256-16.247 26.359-41.404 26.359-65.647v-35.746c0-20.275 9.6-29.875 15.343-35.618l35.618-35.61c6.63 6.502 17.34 6.468 23.945-.128l11.938-11.921c6.613-6.631 6.613-17.434-.008-24.064z"/><path d="M66.141 353.914c2.014.017 4.019.973 5.803 2.756l65.519 65.519c3.362 3.362 8.806 3.362 12.16 0a8.58 8.58 0 0 0 0-12.151l-65.519-65.519c-4.975-4.975-11.298-7.74-17.818-7.791h-.196c-6.571 0-12.954 2.756-17.971 7.782-5.419 5.419-8.235 11.742-8.141 18.295.094 6.34 2.91 12.467 8.141 17.69l71.475 71.484c8.209 8.209 18.799 12.749 29.815 12.774h.111c11.034 0 21.649-4.531 29.892-12.774 0-.009 0-.017.009-.017l142.959-142.95c16.461-16.486 16.461-43.315-.008-59.81l-83.396-83.396c-3.226-3.226-8.934-3.226-12.16 0L83.857 308.781c-3.354 3.354-3.354 8.798 0 12.151l83.396 83.396c4.736 4.736 7.347 11.042 7.347 17.749 0 6.69-2.611 12.996-7.339 17.741h-.009c-4.992 5.001-11.29 7.748-17.732 7.748h-.06c-6.443-.026-12.732-2.773-17.707-7.748L60.27 368.335c-1.399-1.391-3.063-3.533-3.098-5.777-.034-2.27 1.664-4.454 3.106-5.888 1.81-1.818 3.559-2.927 5.863-2.756zm35.951-39.057L232.9 184.041l77.303 77.312c9.788 9.796 9.788 25.719.009 35.507L191.325 415.746c-1.323-8.9-5.444-17.101-11.921-23.578l-77.312-77.311zm265.174-119.143v35.746c0 6.733-6.972 15.292-9.395 17.741a8.58 8.58 0 0 0 0 12.151 8.558 8.558 0 0 0 6.067 2.526 8.61 8.61 0 0 0 6.084-2.517c1.476-1.476 14.438-14.865 14.438-29.901v-35.746c0-4.745-3.849-8.602-8.593-8.602a8.605 8.605 0 0 0-8.601 8.602z"/></svg>