<svg xmlns="http://www.w3.org/2000/svg" viewBox="0 0 512 512"><path d="M486.153 249.702c-1.57-26.948-13.329-132.463-100.386-145.843 10.385-11.93 23.177-30.131 23.791-48.179.367-10.65-3.336-19.925-10.991-27.58-18.79-18.79-36.727-9.498-51.132-2.014-7.979 4.139-15.505 8.047-23.168 8.047-7.219 0-11.29-3.857-18.441-11.23C296.474 13.235 283.657 0 256 0c-23.62 0-34.364 9.6-43.844 18.074-9.651 8.619-17.98 16.06-41.489 16.06-10.624 0-20.984-6.605-31.949-13.594-18.748-11.947-42.087-26.838-67.951-.973-8.764 8.764-12.792 19.183-11.947 30.967 1.63 23.023 22.477 45.594 35.866 57.847-5.666 4.702-9.353 11.699-9.353 19.618 0 14.114 11.486 25.6 25.6 25.6h30.746c-2.5 9.165-5.146 23.287-5.146 42.667 0 4.71 3.823 8.533 8.533 8.533s8.533-3.823 8.533-8.533c0-21.717 3.618-35.891 5.879-42.667h79.454v8.533c0 4.71 3.823 8.533 8.533 8.533s8.533-3.823 8.533-8.533V153.6h20.966c1.852 3.703 4.634 11.537 4.634 25.6a8.536 8.536 0 0 0 8.533 8.533 8.536 8.536 0 0 0 8.533-8.533c0-11.17-1.51-19.439-3.405-25.6h56.363c-10.59 19.55-25.25 57.31-8.764 95.428-.964 2.133-1.527 4.48-1.527 6.972 0 9.412 7.654 17.067 17.067 17.067 9.412 0 17.067-7.654 17.067-17.067 0-9.412-7.654-17.067-17.067-17.067-.393 0-.76.094-1.143.119-12.1-32.418 2.586-65.357 11.187-80.418 18.577 20.668 68.898 90.76 74.692 246.801-4.301 4.087-17.289 15.351-36.233 21.666a8.543 8.543 0 0 0-5.402 10.795 8.55 8.55 0 0 0 8.098 5.845c.896 0 1.801-.145 2.697-.444 13.065-4.352 23.654-10.718 31.343-16.273.026 2.731.094 5.393.094 8.175 0 24.013-54.545 59.733-204.8 59.733s-204.8-35.721-204.8-59.733c0-2.671.102-5.154.128-7.782 7.893 5.453 18.534 11.622 31.309 15.881a8.495 8.495 0 0 0 2.697.444 8.55 8.55 0 0 0 8.098-5.845c1.493-4.471-.93-9.301-5.402-10.795-17.34-5.777-30.601-15.94-36.292-20.804 4.642-129.485 39.808-199.62 61.38-230.775a8.544 8.544 0 0 0-2.159-11.878 8.533 8.533 0 0 0-11.878 2.159C59.29 198.63 22.127 272.341 17.545 407.177c-.444 1.459-.444 2.961-.085 4.437-.222 7.697-.393 15.488-.393 23.586 0 46.652 87.091 76.8 221.867 76.8S460.8 481.852 460.8 435.2c0-223.403-84.924-293.905-88.533-296.798-.111-.085-.239-.094-.341-.171-.811-.589-1.673-1.092-2.637-1.365-.051-.009-.094-.009-.145-.026a8.68 8.68 0 0 0-2.21-.307h-256c-4.702 0-8.533-3.831-8.533-8.533s3.831-8.533 8.533-8.533h256c41.975 0 71.902 22.426 88.943 66.654 10.001 25.95 12.57 52.309 13.227 63.846-4.949 2.987-8.303 8.371-8.303 14.566 0 9.412 7.654 17.067 17.067 17.067 9.412 0 17.067-7.654 17.067-17.067-.002-6.391-3.577-11.904-8.782-14.831zM363.614 102.4H113.852c-11.878-9.472-36.591-33.075-38.016-53.069-.469-6.724 1.818-12.518 6.997-17.698 15.454-15.462 26.65-9.506 46.711 3.294 11.964 7.629 25.515 16.273 41.122 16.273 30.02 0 42.684-11.315 52.855-20.403 8.593-7.672 15.377-13.73 32.478-13.73 20.429 0 28.757 8.602 37.564 17.707 7.458 7.697 15.915 16.427 30.703 16.427 11.819 0 22.025-5.291 31.027-9.967 14.729-7.646 21.649-10.615 31.206-1.067 4.233 4.233 6.195 9.114 6.008 14.916-.571 17.177-19.302 38.272-28.893 47.317z"/><path d="M238.933 460.8a8.536 8.536 0 0 0 8.533-8.533 8.536 8.536 0 0 0-8.533-8.533c-66.688 0-117.555-8.337-118.067-8.414-4.599-.751-9.037 2.372-9.813 7.014-.777 4.642 2.364 9.037 7.006 9.813 2.124.359 52.684 8.653 120.874 8.653z"/></svg>