<svg xmlns="http://www.w3.org/2000/svg" viewBox="0 0 512 512"><path d="M418.133 401.067a8.53 8.53 0 0 0-8.533-8.533c-35.507 0-126.652-2.867-205.781-29.423-89.941-30.182-135.552-80.572-135.552-149.769 0-119.236 50.244-196.275 128-196.275 17.161 0 31.838 6.391 41.361 17.997 5.854 7.142 9.438 15.889 10.795 25.566.026.307.085.589.137.887.87 6.972.623 14.404-.93 22.144-.922 4.617 2.082 9.114 6.699 10.035a8.518 8.518 0 0 0 10.035-6.69c.35-1.741.538-3.456.785-5.18 9.839 15.821 7.578 31.607 4.506 41.182-17.775-10.76-33.758-3.038-34.534-2.637-4.215 2.108-5.931 7.228-3.823 11.443a8.547 8.547 0 0 0 11.452 3.823c.111-.068 11.691-5.658 24.286 6.929a8.503 8.503 0 0 0 6.033 2.5c.35 0 .691-.017 1.041-.06a8.55 8.55 0 0 0 6.272-4.079c9.916-16.521 18.876-54.989-15.437-85.077-2.039-11.802-6.733-22.596-14.123-31.607C238.003 8.61 218.633 0 196.267 0 109.5 0 51.2 85.734 51.2 213.342c0 77.338 49.527 133.171 147.191 165.948 81.51 27.358 174.857 30.31 211.209 30.31a8.53 8.53 0 0 0 8.533-8.533z"/><path d="M187.733 68.267c0 9.412 7.654 17.067 17.067 17.067s17.067-7.654 17.067-17.067c0-9.412-7.654-17.067-17.067-17.067s-17.067 7.654-17.067 17.067zM355.9 215.834C319.232 179.157 242.338 153.6 196.267 153.6c-62.285 0-93.867 22.963-93.867 68.267 0 64.58 119.151 136.533 290.133 136.533 4.719 0 8.533-3.823 8.533-8.533s-3.814-8.533-8.533-8.533c-153.788 0-273.067-64.222-273.067-119.467 0-23.834 8.73-51.2 76.8-51.2 15.59 0 33.698 3.012 52.036 8.064-13.244 14.865-32.239 45.679-25.071 95.548a8.54 8.54 0 0 0 16.904-2.431c-7.552-52.48 17.749-79.701 26.53-87.424 12.655 4.403 25.02 9.694 36.412 15.531-13.773 13.986-36.582 44.817-29.926 91.392.606 4.25 4.258 7.322 8.44 7.322.401 0 .811-.026 1.22-.085 4.668-.666 7.902-4.992 7.236-9.66-6.255-43.759 18.347-71.04 28.518-80.265 9.916 6.118 18.628 12.604 25.267 19.243 1.63 1.63 4.045 4.181 6.818 7.262-15.053 11.639-32.512 36.002-26.266 73.446.691 4.164 4.309 7.125 8.405 7.125.469 0 .93-.034 1.408-.119 4.651-.768 7.791-5.171 7.014-9.822-5.513-33.101 11.255-50.586 20.446-57.489 28.911 36.591 78.319 116.685 81.877 240.939-53.675-29.611-68.676-57.301-68.992-57.907-2.116-4.181-7.228-5.871-11.426-3.772-4.216 2.116-5.931 7.236-3.823 11.452.751 1.502 19.149 37.077 89.156 72.09a8.577 8.577 0 0 0 3.814.896 8.535 8.535 0 0 0 8.533-8.533C460.8 333.909 380.51 240.444 355.9 215.834z"/></svg>