<svg xmlns="http://www.w3.org/2000/svg" viewBox="0 0 512 512"><path d="M501.939 494.379c-2.21.367-4.574.555-7.006.555-19.618 0-26.283-11.955-26.505-12.348-1.425-2.85-4.344-4.608-7.526-4.659-3.038-.034-6.17 1.741-7.68 4.548-.273.503-6.938 12.459-26.556 12.459-19.618 0-26.283-11.955-26.505-12.348-1.425-2.85-4.344-4.608-7.526-4.659-3.524-.034-6.161 1.741-7.68 4.548-.273.503-6.938 12.459-26.556 12.459-19.618 0-26.283-11.955-26.505-12.348-1.425-2.85-4.344-4.608-7.526-4.659-3.388-.034-6.161 1.741-7.68 4.548-.273.503-6.938 12.459-26.556 12.459-19.618 0-26.283-11.955-26.505-12.348-1.417-2.85-4.343-4.608-7.526-4.659a8.604 8.604 0 0 0-7.68 4.548c-.273.503-6.938 12.459-26.556 12.459-19.618 0-26.283-11.955-26.505-12.348-1.425-2.85-4.343-4.608-7.526-4.659-3.098-.034-6.17 1.741-7.68 4.548-.273.503-6.938 12.459-26.556 12.459-19.618 0-26.283-11.955-26.505-12.348-1.425-2.85-4.343-4.608-7.526-4.659-2.953-.034-6.17 1.741-7.68 4.548-.273.503-6.938 12.459-26.556 12.459-19.618 0-26.283-11.955-26.505-12.348-1.417-2.85-4.343-4.608-7.526-4.659-3.448-.034-6.161 1.741-7.68 4.548-.273.503-6.938 12.459-26.556 12.459-2.449 0-4.608-.179-6.972-.58-4.676-.819-9.054 2.347-9.847 6.989-.785 4.642 2.347 9.054 6.997 9.839 3.294.555 6.426.819 9.822.819 16.879 0 27.733-6.391 34.133-12.254C57.6 505.609 68.446 512 85.333 512c16.879 0 27.733-6.391 34.133-12.254 6.4 5.862 17.254 12.254 34.133 12.254s27.733-6.391 34.133-12.254c6.4 5.862 17.254 12.254 34.133 12.254s27.733-6.391 34.133-12.254c6.4 5.862 17.246 12.254 34.133 12.254s27.733-6.391 34.133-12.254c6.4 5.862 17.246 12.254 34.133 12.254 16.879 0 27.733-6.391 34.133-12.254 6.4 5.862 17.246 12.254 34.133 12.254s27.733-6.391 34.133-12.254c6.4 5.862 17.246 12.254 34.133 12.254a61.14 61.14 0 0 0 9.796-.776c4.642-.777 7.782-5.163 7.023-9.813-.755-4.651-5.064-7.775-9.809-7.032zM203.58 157.739a8.533 8.533 0 0 0-11.708-2.918L153.6 177.783l-38.272-22.963c-4.045-2.432-9.284-1.109-11.708 2.918a8.528 8.528 0 0 0 2.918 11.708l30.481 18.287-30.481 18.287a8.528 8.528 0 0 0-2.918 11.708 8.52 8.52 0 0 0 7.322 4.139 8.51 8.51 0 0 0 4.386-1.22l38.272-22.963 38.272 22.963a8.48 8.48 0 0 0 4.386 1.22 8.519 8.519 0 0 0 7.322-4.139 8.528 8.528 0 0 0-2.918-11.708l-30.481-18.287 30.481-18.287a8.527 8.527 0 0 0 2.918-11.707zm-30.413 220.228l-25.754 25.754c-9.481-4.284-21.41-2.722-28.979 4.847l-8.533 8.525c-4.838 4.838-7.501 11.273-7.501 18.108s2.662 13.269 7.501 18.099c4.83 4.838 11.264 7.501 18.099 7.501s13.269-2.662 18.099-7.501l8.533-8.525c4.83-4.838 7.501-11.273 7.501-18.108 0-3.874-.939-7.578-2.569-10.974l25.668-25.66a8.525 8.525 0 0 0 0-12.066 8.522 8.522 0 0 0-12.065 0zM142.566 432.7l-8.533 8.533c-3.234 3.226-8.832 3.226-12.066 0-1.621-1.613-2.5-3.755-2.5-6.033s.879-4.42 2.5-6.033l8.533-8.533a8.475 8.475 0 0 1 6.033-2.5c2.116 0 4.07.836 5.641 2.236.111.12.145.282.256.401.119.111.282.154.401.256 1.399 1.562 2.236 3.524 2.236 5.641a8.438 8.438 0 0 1-2.501 6.032z"/><path d="M76.8 307.2h145.067v8.533c0 4.71 3.814 8.533 8.533 8.533s8.533-3.823 8.533-8.533V307.2h136.533a8.541 8.541 0 0 0 7.569-4.591 8.511 8.511 0 0 0-.58-8.832c-57.472-82.108-58.189-232.533-58.189-234.044a8.534 8.534 0 0 0-4.506-7.526 8.55 8.55 0 0 0-8.764.427C308.762 54.127 256 89.933 256 145.067c0 4.71 3.814 8.533 8.533 8.533s8.533-3.823 8.533-8.533c0-30.387 20.557-54.682 34.603-67.729 1.8 40.687 10.479 142.387 52.164 212.796H83.849c-14.865-80.324-5.171-144 28.843-189.329 35.319-47.07 88.081-61.338 109.21-65.297.666 105.472 12.066 182.34 34.79 234.795 1.877 4.326 6.895 6.323 11.23 4.437 4.318-1.869 6.306-6.895 4.437-11.221-22.494-51.9-33.425-129.724-33.425-237.918V8.533c0-4.71-3.814-8.533-8.533-8.533s-8.533 3.823-8.533 8.533v9.6c-21.325 3.439-81.621 17.672-122.675 72.226-38.144 50.688-48.495 121.335-30.763 209.98a8.532 8.532 0 0 0 8.37 6.861zm181.7 70.767l-25.754 25.754c-9.481-4.284-21.41-2.722-28.979 4.847l-8.533 8.525c-4.83 4.838-7.501 11.273-7.501 18.108s2.671 13.269 7.501 18.099c4.83 4.838 11.264 7.501 18.099 7.501s13.269-2.662 18.099-7.501l8.533-8.525a25.448 25.448 0 0 0 7.501-18.108c0-3.874-.939-7.578-2.569-10.974l25.668-25.66a8.523 8.523 0 0 0 0-12.066 8.522 8.522 0 0 0-12.065 0zM227.9 432.7l-8.533 8.533c-3.234 3.226-8.832 3.226-12.066 0-1.621-1.613-2.5-3.755-2.5-6.033s.879-4.42 2.5-6.033l8.533-8.533a8.475 8.475 0 0 1 6.033-2.5c2.116 0 4.07.836 5.641 2.236.111.12.145.282.256.401.12.111.282.154.401.256 1.399 1.562 2.236 3.524 2.236 5.641a8.447 8.447 0 0 1-2.501 6.032z"/><path d="M503.467 221.867h-34.133c-23.125 0-42.667 19.541-42.667 42.667v34.133c0 23.125-19.541 42.667-42.667 42.667H68.267c-3.029 0-5.82-5.12-9.438-12.348-4.599-9.19-10.889-21.786-24.695-21.786h-25.6A8.53 8.53 0 0 0 0 315.733V384c0 41.207 19.26 57.233 46.464 75.366 3.925 2.62 9.225 1.544 11.836-2.364 2.62-3.925 1.562-9.225-2.364-11.836C31.104 428.621 17.067 417.613 17.067 384v-59.733h17.067c3.021 0 5.82 5.12 9.429 12.348 4.599 9.19 10.897 21.786 24.704 21.786H384c32.375 0 59.733-27.358 59.733-59.733v-34.133c0-13.636 11.964-25.6 25.6-25.6h25.6v15.889c-.93.64-2.62 1.476-3.814 2.082-4.958 2.475-13.252 6.622-13.252 16.162v76.8c0 62.993-29.449 77.713-63.548 94.763-4.216 2.116-5.931 7.236-3.814 11.452a8.504 8.504 0 0 0 7.637 4.719c1.28 0 2.586-.29 3.806-.896 34.21-17.109 72.986-36.497 72.986-110.037v-75.622c.93-.631 2.62-1.476 3.814-2.074C503.706 269.688 512 265.54 512 256v-25.6a8.53 8.53 0 0 0-8.533-8.533z"/><path d="M355.9 377.967a8.525 8.525 0 0 0-12.066 0l-25.754 25.754c-9.481-4.284-21.41-2.722-28.979 4.847l-8.533 8.525c-4.838 4.838-7.501 11.273-7.501 18.108s2.662 13.269 7.501 18.099c4.83 4.838 11.264 7.501 18.099 7.501s13.269-2.662 18.099-7.501l8.533-8.525c4.83-4.838 7.501-11.273 7.501-18.108 0-3.874-.939-7.578-2.568-10.974l25.668-25.66a8.525 8.525 0 0 0 0-12.066zM313.233 432.7l-8.533 8.533c-3.234 3.226-8.832 3.226-12.066 0-1.621-1.613-2.5-3.755-2.5-6.033s.879-4.42 2.5-6.033l8.533-8.533a8.475 8.475 0 0 1 6.033-2.5c2.116 0 4.07.836 5.641 2.236.111.12.145.282.256.401.119.111.282.154.401.256 1.399 1.562 2.236 3.524 2.236 5.641a8.48 8.48 0 0 1-2.501 6.032z"/></svg>