<svg xmlns="http://www.w3.org/2000/svg" viewBox="0 0 512.009 512.009"><path d="M149.807 197.7c-3.925-2.628-9.216-1.562-11.836 2.364-.777 1.161-18.833 29.03-9.847 82.944 2.637 15.829 13.141 25.617 18.27 29.542l7.646 22.946a8.534 8.534 0 0 0 8.098 5.837h18.202l7.484 52.412a8.537 8.537 0 0 0 8.448 7.322h119.467a8.529 8.529 0 0 0 8.448-7.322l7.484-52.412h18.202a8.508 8.508 0 0 0 8.09-5.837l7.697-23.057c4.847-3.908 14.865-13.628 18.227-29.431 8.986-53.914-9.071-81.783-9.847-82.944-2.603-3.9-7.842-4.941-11.759-2.372-3.917 2.568-5.018 7.842-2.475 11.784.154.239 15.036 24.038 7.33 70.349-2.816 13.15-13.252 20.139-13.303 20.173a8.504 8.504 0 0 0-3.516 4.506l-6.596 19.763h-19.447a8.529 8.529 0 0 0-8.448 7.322L308.339 384h-18.202v-25.6c0-4.71-3.814-8.533-8.533-8.533s-8.533 3.823-8.533 8.533V384h-34.133v-25.6c0-4.71-3.823-8.533-8.533-8.533s-8.533 3.823-8.533 8.533V384H203.67l-7.484-52.412a8.537 8.537 0 0 0-8.448-7.322H168.29l-6.588-19.763a8.568 8.568 0 0 0-3.703-4.617c-.111-.068-10.906-6.869-13.047-19.695-7.723-46.379 6.912-70.17 7.253-70.707 2.568-3.916 1.502-9.181-2.398-11.784z"/><path d="M34.743 199.441c1.724 4.292 6.562 6.426 10.914 4.821.674-.256 68.949-25.062 210.347-25.062 6.391 0 12.45.102 18.543.196l-32.435 21.581c-3.063-2.901-7.168-4.71-11.708-4.71h-51.2c-9.412 0-17.067 7.654-17.067 17.067V230.4c0 6.75 1.442 12.928 3.891 18.44l-8.627 5.743c-3.917 2.62-4.975 7.919-2.364 11.836a8.537 8.537 0 0 0 7.108 3.806 8.56 8.56 0 0 0 4.727-1.434l9.284-6.195c7.424 6.528 17.254 10.47 28.646 10.47 24.328 0 42.667-18.338 42.667-42.667v-12.493l56.661-37.692c108.774 4.651 161.63 23.825 162.219 24.047a8.69 8.69 0 0 0 2.978.538c3.396 0 6.605-2.031 7.936-5.359l17.067-42.667a8.57 8.57 0 0 0-.188-6.758 8.58 8.58 0 0 0-5.043-4.514c-.495-.162-50.313-16.956-82.91-41.395-8.619-6.468-15.087-17.323-22.579-29.884C364.958 42.897 339.392 0 256.004 0c-79.01 0-102.084 38.195-120.627 68.89-8.866 14.669-16.521 27.341-28.834 34.731-41.54 24.926-83.686 41.89-84.113 42.061-4.369 1.749-6.502 6.716-4.753 11.093l17.066 42.666zM230.404 230.4c0 14.831-10.769 25.6-25.6 25.6-15.309 0-25.6-10.291-25.6-25.6v-17.067h51.2V230.4zM115.332 118.246c15.94-9.566 25.028-24.61 34.654-40.533C168 47.898 186.628 17.067 256.004 17.067c73.685 0 94.549 35.012 112.947 65.894 8.073 13.534 15.684 26.308 26.999 34.799 26.769 20.079 62.942 34.816 79.24 40.892l-10.803 27.008c-21.965-6.647-89.455-23.526-208.384-23.526-118.929 0-186.419 16.879-208.384 23.526l-10.974-27.426c14.397-6.17 46.329-20.574 78.687-39.988z"/><path d="M206.025 123.861a8.52 8.52 0 0 0 7.322 4.139 8.49 8.49 0 0 0 4.386-1.22l38.272-22.963 38.272 22.963a8.501 8.501 0 0 0 4.386 1.22 8.519 8.519 0 0 0 7.322-4.139 8.528 8.528 0 0 0-2.918-11.708l-30.481-18.287 30.481-18.287a8.528 8.528 0 0 0 2.918-11.708c-2.423-4.028-7.663-5.359-11.708-2.918l-38.272 22.963-38.272-22.963c-4.053-2.441-9.293-1.126-11.708 2.918a8.528 8.528 0 0 0 2.918 11.708l30.473 18.287-30.473 18.287a8.529 8.529 0 0 0-2.918 11.708zm101.179 149.206c14.114 0 25.6-11.486 25.6-25.6s-11.486-25.6-25.6-25.6-25.6 11.486-25.6 25.6 11.486 25.6 25.6 25.6zm0-34.134c4.71 0 8.533 3.831 8.533 8.533s-3.823 8.533-8.533 8.533-8.533-3.831-8.533-8.533c0-4.701 3.823-8.533 8.533-8.533zm204.544 262.46l-8.525-34.125c-5.086-20.344-31.326-35.482-54.204-42.854-4.463-1.468-9.293 1.015-10.743 5.495-1.442 4.489 1.016 9.301 5.513 10.743 22.536 7.27 40.166 19.917 42.871 30.754l8.533 34.133a8.535 8.535 0 0 0 8.269 6.46c.683 0 1.382-.077 2.074-.256a8.53 8.53 0 0 0 6.212-10.35zm-91.725-84.855c-19.115-4.343-38.963-6.938-53.086-6.938a8.52 8.52 0 0 0-7.629 4.719l-42.667 85.333c-2.116 4.215-.401 9.335 3.814 11.452 4.207 2.108 9.336.401 11.452-3.823l40.243-80.495c9.685.427 21.786 1.963 33.98 4.284l-29.952 69.001c-1.886 4.318.102 9.344 4.429 11.221a8.374 8.374 0 0 0 3.388.717 8.534 8.534 0 0 0 7.834-5.146l34.125-78.601a8.532 8.532 0 0 0-5.931-11.724zm-80.119-3.141a8.524 8.524 0 0 0-11.836-2.364l-72.064 48.043-72.064-48.043a8.581 8.581 0 0 0-4.736-1.434h-34.133c-34.688 0-126.148 17.152-136.277 57.66L.26 501.393a8.534 8.534 0 0 0 16.555 4.147l8.533-34.133c6.571-26.291 81.596-44.74 119.723-44.74h31.548l70.852 47.232v29.568a8.536 8.536 0 0 0 8.533 8.533 8.536 8.536 0 0 0 8.533-8.533v-29.568l73.003-48.666c3.926-2.611 4.984-7.91 2.364-11.836z"/><path d="M222.127 486.4h-.085c-4.71 0-8.491 3.823-8.491 8.533s3.866 8.533 8.576 8.533c4.719 0 8.533-3.823 8.533-8.533s-3.814-8.533-8.533-8.533z"/></svg>