<svg xmlns="http://www.w3.org/2000/svg" viewBox="0 0 512.009 512.009"><path d="M247.471 349.867c-4.71 0-8.533 3.823-8.533 8.533s3.823 8.533 8.533 8.533h17.067c4.71 0 8.533-3.823 8.533-8.533s-3.823-8.533-8.533-8.533h-17.067zm76.8-34.134c0-14.114-11.486-25.6-25.6-25.6-4.71 0-8.533 3.823-8.533 8.533s3.823 8.533 8.533 8.533c4.702 0 8.533 3.831 8.533 8.533s-3.831 8.533-8.533 8.533c-.222 0-22.238-.171-36.634-14.566a8.525 8.525 0 0 0-12.066 0c-14.259 14.259-36.437 14.566-36.634 14.566-4.702 0-8.533-3.831-8.533-8.533s3.831-8.533 8.533-8.533c4.71 0 8.533-3.823 8.533-8.533s-3.823-8.533-8.533-8.533c-14.114 0-25.6 11.486-25.6 25.6s11.486 25.6 25.6 25.6c1.075 0 23.987-.179 42.667-14.319 18.68 14.14 41.591 14.319 42.667 14.319 14.114 0 25.6-11.486 25.6-25.6zM34.743 199.441c1.724 4.292 6.562 6.426 10.914 4.821.674-.256 68.949-25.062 210.347-25.062 6.391 0 12.459.102 18.543.196l-32.435 21.581c-3.063-2.901-7.168-4.71-11.708-4.71h-51.2c-9.412 0-17.067 7.654-17.067 17.067V230.4c0 6.75 1.442 12.928 3.891 18.44l-20.07 13.38c-3.925 2.611-4.983 7.91-2.372 11.836a8.528 8.528 0 0 0 7.108 3.797c1.63 0 3.268-.461 4.727-1.434l20.736-13.824c7.424 6.528 17.254 10.47 28.646 10.47 24.328 0 42.667-18.338 42.667-42.667v-12.493l56.661-37.692c108.766 4.651 161.63 23.825 162.219 24.047a8.69 8.69 0 0 0 2.978.538c3.396 0 6.605-2.031 7.936-5.359l17.067-42.667a8.536 8.536 0 0 0-.188-6.758 8.53 8.53 0 0 0-5.043-4.514c-.495-.162-50.321-16.956-82.91-41.395-8.619-6.468-15.087-17.323-22.571-29.884C364.949 42.897 339.383 0 256.004 0c-79.01 0-102.084 38.195-120.627 68.89-8.866 14.669-16.521 27.341-28.834 34.731-41.54 24.926-83.686 41.89-84.113 42.061-4.369 1.749-6.502 6.716-4.753 11.093l17.066 42.666zM230.404 230.4c0 14.831-10.769 25.6-25.6 25.6-15.309 0-25.6-10.291-25.6-25.6v-17.067h51.2V230.4zM115.332 118.246c15.94-9.566 25.028-24.61 34.654-40.533C168 47.898 186.628 17.067 256.004 17.067c73.685 0 94.549 35.012 112.947 65.894 8.064 13.534 15.684 26.308 26.999 34.799 26.769 20.079 62.942 34.816 79.24 40.892l-10.803 27.008c-21.965-6.647-89.455-23.526-208.384-23.526-118.929 0-186.419 16.879-208.384 23.526l-10.974-27.426c14.397-6.17 46.329-20.574 78.687-39.988zm396.416 383.147l-8.533-34.125c-5.077-20.344-31.326-35.482-54.187-42.854-4.489-1.459-9.301 1.015-10.743 5.495-1.451 4.489 1.015 9.301 5.495 10.743 22.545 7.27 40.175 19.917 42.88 30.754l8.533 34.133a8.535 8.535 0 0 0 10.351 6.204 8.531 8.531 0 0 0 6.204-10.35z"/><path d="M206.025 123.861a8.52 8.52 0 0 0 7.322 4.139 8.49 8.49 0 0 0 4.386-1.22l38.272-22.963 38.272 22.963a8.501 8.501 0 0 0 4.386 1.22 8.519 8.519 0 0 0 7.322-4.139 8.528 8.528 0 0 0-2.918-11.708l-30.473-18.287 30.473-18.287a8.528 8.528 0 0 0 2.918-11.708c-2.423-4.045-7.663-5.35-11.708-2.918l-38.272 22.963-38.272-22.963c-4.053-2.441-9.293-1.126-11.708 2.918a8.528 8.528 0 0 0 2.918 11.708l30.473 18.287-30.473 18.287a8.529 8.529 0 0 0-2.918 11.708zM332.804 230.4a8.536 8.536 0 0 0-8.533-8.533h-34.133c-4.71 0-8.533 3.823-8.533 8.533s3.823 8.533 8.533 8.533h8.533c0 4.71 3.823 8.533 8.533 8.533s8.533-3.823 8.533-8.533h8.533c4.711 0 8.534-3.823 8.534-8.533zm-110.677 256h-.085c-4.71 0-8.491 3.823-8.491 8.533s3.857 8.533 8.576 8.533 8.533-3.823 8.533-8.533-3.814-8.533-8.533-8.533zm33.877-8.533a8.536 8.536 0 0 0-8.533 8.533v17.067a8.536 8.536 0 0 0 8.533 8.533 8.536 8.536 0 0 0 8.533-8.533V486.4c.001-4.71-3.822-8.533-8.533-8.533z"/><path d="M256.004 460.8c.512 0 1.024-.043 1.527-.137 92.843-16.879 108.655-73.933 109.38-108.237 13.278-21.094 21.214-50.773 24.158-63.283 10.692-3.081 18.534-12.945 18.534-24.61V230.4c0-14.114-11.486-25.6-25.6-25.6a8.536 8.536 0 0 0-8.533 8.533 8.536 8.536 0 0 0 8.533 8.533c4.702 0 8.533 3.831 8.533 8.533v34.133c0 4.702-3.831 8.533-8.533 8.533a8.534 8.534 0 0 0-8.371 6.861c-.068.384-7.228 35.507-20.975 59.699l-19.157-6.391c-4.48-1.502-9.301.93-10.795 5.402-1.493 4.471.93 9.301 5.402 10.795l19.575 6.519c-1.911 33.672-20.599 73.847-93.679 87.637-73.071-13.79-91.767-53.965-93.679-87.637l19.575-6.519c4.471-1.493 6.895-6.323 5.402-10.795-1.493-4.471-6.306-6.903-10.795-5.402l-19.157 6.391c-13.722-24.149-20.907-59.324-20.983-59.699a8.518 8.518 0 0 0-8.363-6.861c-4.702 0-8.533-3.831-8.533-8.533V230.4c0-4.702 3.831-8.533 8.533-8.533a8.536 8.536 0 0 0 8.533-8.533 8.536 8.536 0 0 0-8.533-8.533c-14.114 0-25.6 11.486-25.6 25.6v34.133c0 11.665 7.842 21.53 18.534 24.61 2.944 12.51 10.88 42.189 24.158 63.283.725 34.304 16.538 91.358 109.38 108.237a8.44 8.44 0 0 0 1.529.136zm-110.933-51.2c-34.688 0-126.148 17.152-136.277 57.66L.26 501.393a8.534 8.534 0 0 0 16.555 4.147l8.533-34.133c6.571-26.291 81.596-44.74 119.723-44.74 4.71 0 8.533-3.823 8.533-8.533s-3.823-8.534-8.533-8.534zm274.952 6.938c-19.115-4.343-38.955-6.938-53.086-6.938a8.52 8.52 0 0 0-7.629 4.719l-42.675 85.333c-2.108 4.215-.393 9.335 3.823 11.452a8.542 8.542 0 0 0 11.452-3.823l40.243-80.495c9.685.427 21.794 1.963 33.98 4.284l-29.952 69.001a8.526 8.526 0 0 0 4.429 11.221 8.401 8.401 0 0 0 3.388.717 8.534 8.534 0 0 0 7.834-5.146l34.133-78.601a8.58 8.58 0 0 0-.222-7.262 8.532 8.532 0 0 0-5.718-4.462z"/></svg>