<svg xmlns="http://www.w3.org/2000/svg" viewBox="0 0 512 512"><path d="M378.829 196.958l-59.281-25.395c-11.401-5.692-12.348-16.213-12.348-26.496V102.4c9.404 0 17.067-7.654 17.067-17.067V51.2c0-9.412-7.663-17.067-17.067-17.067h-17.067v-25.6A8.53 8.53 0 0 0 281.6 0h-51.2a8.53 8.53 0 0 0-8.533 8.533v25.6H204.8c-9.412 0-17.067 7.654-17.067 17.067v34.133c0 9.412 7.654 17.067 17.067 17.067v42.667c0 10.283-.947 20.804-11.895 26.291l-60.186 25.805c-19.55 9.779-30.319 27.639-30.319 50.304v221.867c0 23.526 19.14 42.667 42.667 42.667h221.867c23.526 0 42.667-19.14 42.667-42.667V247.467c-.001-22.665-10.77-40.525-30.772-50.509zM238.933 17.067h34.133v17.067h-34.133V17.067zm153.6 409.6H145.067c-4.719 0-8.533 3.823-8.533 8.533s3.814 8.533 8.533 8.533h247.467v25.6c0 14.114-11.486 25.6-25.6 25.6H145.067c-14.114 0-25.6-11.486-25.6-25.6V307.2h247.467c4.719 0 8.533-3.823 8.533-8.533s-3.814-8.533-8.533-8.533H119.467v-42.667c0-16.085 7.228-28.203 20.429-34.825l60.186-25.813c21.786-10.889 21.786-32.529 21.786-41.762V102.4h42.667a8.53 8.53 0 0 0 8.533-8.533 8.53 8.53 0 0 0-8.533-8.533H204.8V51.2h102.4v34.133h-8.533a8.53 8.53 0 0 0-8.533 8.533v51.2c0 9.233 0 30.874 22.238 41.976l59.281 25.387c13.653 6.835 20.881 18.953 20.881 35.038v179.2z"/><path d="M305.98 336.939a8.528 8.528 0 0 0-11.708-2.918L256 356.983l-38.272-22.963a8.527 8.527 0 0 0-11.708 2.918 8.528 8.528 0 0 0 2.918 11.708l30.481 18.287-30.481 18.287a8.528 8.528 0 0 0-2.918 11.708 8.52 8.52 0 0 0 7.322 4.139 8.51 8.51 0 0 0 4.386-1.22L256 376.883l38.272 22.963a8.48 8.48 0 0 0 4.386 1.22 8.519 8.519 0 0 0 7.322-4.139 8.528 8.528 0 0 0-2.918-11.708l-30.481-18.287 30.481-18.287a8.526 8.526 0 0 0 2.918-11.706zm56.234-109.91a9.96 9.96 0 0 0-.811-.35l-34.133-12.8c-4.429-1.647-9.344.572-10.999 4.992-1.647 4.412.589 9.327 4.992 10.982l33.169 12.442c.964.879 3.968 4.369 3.968 13.705 0 4.71 3.814 8.533 8.533 8.533s8.533-3.823 8.533-8.533c.001-21.709-11.895-28.288-13.252-28.971z"/></svg>