<svg xmlns="http://www.w3.org/2000/svg" viewBox="0 0 512 512"><path d="M221.867 179.2a8.53 8.53 0 0 0 8.533 8.533h102.4c4.719 0 8.533-3.823 8.533-8.533s-3.814-8.533-8.533-8.533H230.4a8.53 8.53 0 0 0-8.533 8.533zm-76.8 59.733h102.4c4.719 0 8.533-3.823 8.533-8.533s-3.814-8.533-8.533-8.533h-102.4c-4.719 0-8.533 3.823-8.533 8.533s3.814 8.533 8.533 8.533zm0-51.2h51.2c4.719 0 8.533-3.823 8.533-8.533s-3.814-8.533-8.533-8.533h-51.2c-4.719 0-8.533 3.823-8.533 8.533s3.814 8.533 8.533 8.533zm102.4-68.266h-102.4c-4.719 0-8.533 3.823-8.533 8.533s3.814 8.533 8.533 8.533h102.4c4.719 0 8.533-3.823 8.533-8.533s-3.814-8.533-8.533-8.533zm34.133 256c-4.719 0-8.533 3.823-8.533 8.533s3.814 8.533 8.533 8.533h34.133c4.719 0 8.533-3.823 8.533-8.533s-3.814-8.533-8.533-8.533H281.6z"/><path d="M102.4 17.067h298.667c14.114 0 25.6 11.486 25.6 25.6v93.867h-25.6a8.53 8.53 0 0 0-6.033 14.566l31.633 31.633v146.534L412.1 343.825a8.532 8.532 0 0 0-2.5 6.042c0 2.261.896 4.429 2.5 6.033l14.566 14.566v47.667c0 4.71 3.814 8.533 8.533 8.533s8.533-3.823 8.533-8.533v-51.209a8.56 8.56 0 0 0-2.5-6.033L430.2 349.867l11.034-11.034a8.56 8.56 0 0 0 2.5-6.033V179.2a8.546 8.546 0 0 0-2.5-6.033L421.666 153.6H435.2a8.53 8.53 0 0 0 8.533-8.533v-102.4C443.733 19.14 424.593 0 401.067 0H102.4c-4.719 0-8.533 3.823-8.533 8.533s3.814 8.534 8.533 8.534z"/><path d="M358.4 332.8a8.53 8.53 0 0 0-8.533-8.533h-102.4a8.53 8.53 0 0 0-8.533 8.533 8.53 8.53 0 0 0 8.533 8.533h102.4a8.53 8.53 0 0 0 8.533-8.533zm-213.333 59.733h102.4c4.719 0 8.533-3.823 8.533-8.533s-3.814-8.533-8.533-8.533h-102.4c-4.719 0-8.533 3.823-8.533 8.533s3.814 8.533 8.533 8.533zm204.8-170.666H281.6c-4.719 0-8.533 3.823-8.533 8.533s3.814 8.533 8.533 8.533h68.267c4.719 0 8.533-3.823 8.533-8.533s-3.814-8.533-8.533-8.533zM332.8 290.133c4.719 0 8.533-3.823 8.533-8.533s-3.814-8.533-8.533-8.533h-51.2c-4.719 0-8.533 3.823-8.533 8.533s3.814 8.533 8.533 8.533h51.2z"/><path d="M503.467 443.733H366.933c-2.27 0-4.437.896-6.033 2.5l-2.5 2.5-2.5-2.5a8.51 8.51 0 0 0-6.033-2.5h-204.8a8.53 8.53 0 0 0-8.533 8.533v17.067c0 14.114-11.486 25.6-25.6 25.6s-25.6-11.486-25.6-25.6v-47.667L99.9 407.1a8.523 8.523 0 0 0 0-12.066l-14.566-14.566V42.667C85.333 19.14 66.193 0 42.667 0 19.14 0 0 19.14 0 42.667v153.6c0 2.261.896 4.429 2.5 6.033l11.034 11.034L2.5 224.367A8.513 8.513 0 0 0 0 230.4v102.4a8.53 8.53 0 0 0 8.533 8.533h34.133a8.53 8.53 0 0 0 8.533-8.533 8.53 8.53 0 0 0-8.533-8.533h-25.6v-90.334l14.566-14.566a8.523 8.523 0 0 0 0-12.066l-14.566-14.575V42.667c0-14.114 11.486-25.6 25.6-25.6s25.6 11.486 25.6 25.6V384c0 2.261.896 4.429 2.5 6.033L81.8 401.067 70.767 412.1a8.513 8.513 0 0 0-2.5 6.033v51.2c0 23.526 19.14 42.667 42.667 42.667 23.526 0 42.667-19.14 42.667-42.667V460.8h192.734l6.033 6.033a8.523 8.523 0 0 0 12.066 0l6.033-6.033h124.467v8.533c0 14.114-11.486 25.6-25.6 25.6h-307.2c-4.719 0-8.533 3.823-8.533 8.533s3.814 8.533 8.533 8.533h307.2C492.86 512 512 492.86 512 469.333v-17.067a8.53 8.53 0 0 0-8.533-8.533z"/><path d="M145.067 290.133h51.2c4.719 0 8.533-3.823 8.533-8.533s-3.814-8.533-8.533-8.533h-51.2c-4.719 0-8.533 3.823-8.533 8.533s3.814 8.533 8.533 8.533zm0 51.2h17.067a8.53 8.53 0 0 0 8.533-8.533 8.53 8.53 0 0 0-8.533-8.533h-17.067a8.53 8.53 0 0 0-8.533 8.533 8.53 8.53 0 0 0 8.533 8.533zm51.2-17.066a8.53 8.53 0 0 0-8.533 8.533 8.53 8.53 0 0 0 8.533 8.533h17.067a8.53 8.53 0 0 0 8.533-8.533 8.53 8.53 0 0 0-8.533-8.533h-17.067zm51.2-51.2H230.4c-4.719 0-8.533 3.823-8.533 8.533s3.814 8.533 8.533 8.533h17.067c4.719 0 8.533-3.823 8.533-8.533s-3.814-8.533-8.533-8.533z"/></svg>