<svg xmlns="http://www.w3.org/2000/svg" viewBox="0 0 512 512"><path d="M156.1 377.967l-57.344 57.344a8.531 8.531 0 0 0 1.161 13.039c6.903 4.796 11.017 12.638 11.017 20.983 0 14.114-11.486 25.6-25.6 25.6s-25.6-11.486-25.6-25.6c0-2.347.427-4.796 1.348-7.706a8.547 8.547 0 0 0-2.099-8.619 8.55 8.55 0 0 0-8.619-2.091c-2.901.922-5.342 1.348-7.697 1.348-14.114 0-25.6-11.486-25.6-25.6s11.486-25.6 25.6-25.6c8.337 0 16.179 4.122 20.983 11.017a8.556 8.556 0 0 0 6.255 3.627c2.517.196 5-.683 6.784-2.466l40.277-40.277a8.525 8.525 0 0 0 0-12.066 8.525 8.525 0 0 0-12.066 0l-33.911 33.911C63.258 387.925 53.197 384 42.667 384 19.14 384 0 403.14 0 426.667s19.14 42.667 42.667 42.667c0 23.526 19.14 42.667 42.667 42.667C108.86 512 128 492.86 128 469.333c0-10.53-3.925-20.591-10.812-28.322l50.978-50.978a8.525 8.525 0 0 0 0-12.066 8.523 8.523 0 0 0-12.066 0zm212.6-256.734l44.544-44.544a8.533 8.533 0 0 0 2.466-6.784 8.581 8.581 0 0 0-3.627-6.255c-6.904-4.796-11.017-12.638-11.017-20.983 0-14.114 11.486-25.6 25.6-25.6s25.6 11.486 25.6 25.6c0 2.338-.427 4.796-1.357 7.706a8.564 8.564 0 0 0 2.108 8.619 8.507 8.507 0 0 0 8.619 2.091c2.893-.922 5.342-1.348 7.697-1.348 14.114 0 25.6 11.486 25.6 25.6s-11.486 25.6-25.6 25.6c-8.337 0-16.179-4.122-20.983-11.017a8.584 8.584 0 0 0-6.255-3.627c-2.56-.213-5.001.683-6.784 2.466L390.767 143.3a8.523 8.523 0 0 0 0 12.066 8.51 8.51 0 0 0 6.033 2.5 8.509 8.509 0 0 0 6.033-2.5l38.178-38.178c7.731 6.886 17.792 10.812 28.322 10.812C492.86 128 512 108.86 512 85.333c0-23.526-19.14-42.667-42.667-42.667C469.333 19.14 450.193 0 426.667 0S384 19.14 384 42.667c0 10.53 3.925 20.591 10.812 28.322l-38.178 38.178a8.525 8.525 0 0 0 0 12.066 8.523 8.523 0 0 0 12.066 0zM42.667 128c10.53 0 20.591-3.925 28.322-10.812l38.178 38.178c1.664 1.664 3.849 2.5 6.033 2.5s4.369-.836 6.033-2.5a8.525 8.525 0 0 0 0-12.066L76.689 98.756c-1.784-1.784-4.301-2.671-6.784-2.466a8.581 8.581 0 0 0-6.255 3.627c-4.796 6.903-12.638 11.017-20.983 11.017-14.114 0-25.6-11.486-25.6-25.6s11.486-25.6 25.6-25.6c2.338 0 4.796.427 7.706 1.357a8.537 8.537 0 0 0 8.61-2.108 8.55 8.55 0 0 0 2.108-8.61c-.93-2.91-1.357-5.367-1.357-7.706 0-14.114 11.486-25.6 25.6-25.6s25.6 11.486 25.6 25.6c0 8.346-4.113 16.188-11.017 20.983-2.074 1.451-3.405 3.738-3.627 6.255s.683 5 2.466 6.784l44.544 44.544a8.525 8.525 0 0 0 12.066 0 8.523 8.523 0 0 0 0-12.066l-38.178-38.178C124.075 63.258 128 53.197 128 42.667 128 19.14 108.86 0 85.333 0 61.807 0 42.667 19.14 42.667 42.667 19.14 42.667 0 61.807 0 85.333 0 108.86 19.14 128 42.667 128zM307.2 290.133c18.825 0 34.133-15.309 34.133-34.133 0-18.825-15.309-34.133-34.133-34.133S273.067 237.175 273.067 256c0 18.825 15.308 34.133 34.133 34.133zm0-51.2c9.412 0 17.067 7.654 17.067 17.067 0 9.412-7.654 17.067-17.067 17.067s-17.067-7.654-17.067-17.067c0-9.412 7.655-17.067 17.067-17.067z"/><path d="M375.467 358.4a8.532 8.532 0 0 0 8.414-7.125l8.107-48.597C403.831 289.92 409.6 274.62 409.6 256c0-84.693-68.907-153.6-153.6-153.6S102.4 171.307 102.4 256c0 18.347 5.922 34.031 17.621 46.677l8.098 48.597a8.532 8.532 0 0 0 8.414 7.125h34.133c6.886 0 8.311 7.27 8.653 9.941l8.533 51.2a8.523 8.523 0 0 0 8.414 7.125h51.2c4.71 0 8.533-3.823 8.533-8.533s-3.823-8.533-8.533-8.533h-8.533V384c0-4.71-3.823-8.533-8.533-8.533s-8.533 3.823-8.533 8.533v25.6h-18.372l-7.27-43.546c-.887-8.55-7.381-24.721-25.557-24.721h-26.906l-7.347-44.075a8.523 8.523 0 0 0-2.381-4.634c-9.805-9.788-14.566-21.768-14.566-36.625 0-75.281 61.252-136.533 136.533-136.533S392.533 180.719 392.533 256c0 19.78-8.311 30.387-14.566 36.625a8.58 8.58 0 0 0-2.381 4.634l-7.347 44.075h-26.906c-17.169 0-24.183 15.88-25.481 24.192l-7.347 44.075h-18.372V384c0-4.71-3.823-8.533-8.533-8.533s-8.533 3.823-8.533 8.533v34.133a8.536 8.536 0 0 0 8.533 8.533h34.133a8.523 8.523 0 0 0 8.414-7.125l8.542-51.226c.171-1.015 1.903-9.916 8.644-9.916h34.134z"/><path d="M238.933 341.333h34.133c.06-.009.111 0 .171 0a8.536 8.536 0 0 0 8.533-8.533c0-.657-.077-1.297-.213-1.911-.546-12.143-6.357-32.222-25.557-32.222-20.25 0-25.6 22.332-25.6 34.133a8.536 8.536 0 0 0 8.533 8.533zm17.067-25.6c4.045 0 6.178 4.267 7.296 8.533h-14.592c1.118-4.266 3.251-8.533 7.296-8.533zm-51.2-93.866c-18.825 0-34.133 15.309-34.133 34.133 0 18.825 15.309 34.133 34.133 34.133s34.133-15.309 34.133-34.133c0-18.825-15.308-34.133-34.133-34.133zm0 51.2c-9.412 0-17.067-7.654-17.067-17.067 0-9.412 7.654-17.067 17.067-17.067 9.412 0 17.067 7.654 17.067 17.067 0 9.412-7.655 17.067-17.067 17.067zM469.333 384c-10.53 0-20.591 3.925-28.322 10.812L407.1 360.9a8.525 8.525 0 0 0-12.066 0 8.523 8.523 0 0 0 0 12.066l40.277 40.277c1.783 1.784 4.275 2.662 6.784 2.466a8.556 8.556 0 0 0 6.255-3.627c4.796-6.904 12.638-11.017 20.983-11.017 14.114 0 25.6 11.486 25.6 25.6s-11.486 25.6-25.6 25.6c-2.338 0-4.796-.427-7.706-1.357-3.038-.956-6.357-.145-8.61 2.108s-3.063 5.572-2.108 8.61c.93 2.918 1.357 5.367 1.357 7.706 0 14.114-11.486 25.6-25.6 25.6s-25.6-11.486-25.6-25.6c0-8.346 4.113-16.188 11.017-20.983a8.584 8.584 0 0 0 3.627-6.255 8.535 8.535 0 0 0-2.466-6.784L355.9 377.967a8.525 8.525 0 0 0-12.066 0 8.523 8.523 0 0 0 0 12.066l50.978 50.978C387.925 448.742 384 458.803 384 469.333 384 492.86 403.14 512 426.667 512s42.667-19.14 42.667-42.667c23.526 0 42.667-19.14 42.667-42.667S492.86 384 469.333 384z"/></svg>