<svg xmlns="http://www.w3.org/2000/svg" viewBox="0 0 512.002 512.002"><path d="M77.048 119.469a8.536 8.536 0 0 0 8.533-8.533 8.536 8.536 0 0 0-8.533-8.533h-.085c-4.71 0-8.491 3.823-8.491 8.533 0 4.71 3.857 8.533 8.576 8.533zm38.144 85.333c7.074 0 12.8-5.726 12.8-12.8 0-7.074-5.726-12.8-12.8-12.8-7.074 0-12.8 5.726-12.8 12.8 0 7.074 5.725 12.8 12.8 12.8zm384 85.334c-7.074 0-12.8 5.726-12.8 12.8 0 7.074 5.726 12.8 12.8 12.8 7.074 0 12.8-5.726 12.8-12.8 0-7.075-5.726-12.8-12.8-12.8zM162.125 68.269c14.114 0 25.6-11.486 25.6-25.6s-11.486-25.6-25.6-25.6-25.6 11.486-25.6 25.6 11.486 25.6 25.6 25.6zm0-34.133c4.702 0 8.533 3.831 8.533 8.533s-3.831 8.533-8.533 8.533-8.533-3.831-8.533-8.533 3.831-8.533 8.533-8.533zm42.667 162.133c0-29.636 11.537-57.489 32.495-78.438 3.328-3.337 3.328-8.738 0-12.066-3.337-3.337-8.738-3.337-12.066 0-24.175 24.175-37.495 56.311-37.495 90.505a8.536 8.536 0 0 0 8.533 8.533c4.71-.001 8.533-3.824 8.533-8.534zm113.006-2.074c-11.955-11.947-27.844-18.526-44.74-18.526-16.905 0-32.785 6.579-45.124 18.944a79886.07 79886.07 0 0 1-56.294 64.282c-.026.026-.043.051-.068.077-69.538 79.334-151.765 172.877-159.087 180.19-16.631 16.64-16.631 43.708 0 60.348 8.064 8.055 18.773 12.493 30.174 12.493s22.11-4.437 30.174-12.493c9.574-9.583 164.156-145.118 244.966-215.834 24.661-24.67 24.661-64.811-.001-89.481zm-44.74-1.459c12.339 0 23.945 4.804 32.674 13.525 7.322 7.33 11.511 16.546 12.902 26.069l-72.969-30.404c7.912-5.87 17.367-9.19 27.393-9.19zM60.766 487.443c-9.677 9.66-26.539 9.66-36.215 0-9.984-9.984-9.984-26.231 0-36.215 7.868-7.851 91.076-102.554 151.893-171.938a162.465 162.465 0 0 0 24.636 31.625 162.439 162.439 0 0 0 31.616 24.627c-69.453 60.893-164.011 143.974-171.93 151.901zm178.159-168.149c-9.284-5.811-17.946-12.612-25.779-20.446-9.882-9.89-18.116-21.077-24.73-33.212 5.487-6.263 10.701-12.211 15.573-17.784l34.935 14.558v56.884zm17.067-4.164v-45.611l35.294 14.703c-8.85 7.748-21.018 18.398-35.294 30.908zm50.15-43.913c-.102.094-.384.333-.538.478L215.85 234.31c6.903-7.893 12.672-14.481 16.879-19.294l84.966 35.405c-1.936 7.655-5.665 14.9-11.553 20.796zm1.049 44.519a8.536 8.536 0 0 0 8.533 8.533c34.185 0 66.33-13.312 90.505-37.495 3.337-3.328 3.337-8.73 0-12.066-3.328-3.328-8.73-3.328-12.066 0-20.949 20.958-48.811 32.495-78.438 32.495-4.711-.001-8.534 3.822-8.534 8.533z"/><path d="M491.17 138.003c-2.338-1.596-5.308-1.903-7.953-.862-23.748 9.506-41.19 4.216-50.739-.887 19.294-16.478 59.102-59.955 45.21-129.391a8.52 8.52 0 0 0-4.617-5.99 8.476 8.476 0 0 0-7.561.034c-35.388 17.69-76.629 22.989-116.514 28.109-53.768 6.912-109.363 14.054-147.916 52.608-36.966 36.966-53.888 89.847-45.261 141.474.776 4.651 5.171 7.782 9.822 7.014 4.642-.777 7.782-5.18 7.006-9.822-7.714-46.199 7.424-93.525 40.499-126.601 34.432-34.432 84.753-40.892 138.027-47.744 37.547-4.821 76.245-9.796 111.505-24.926 8.371 71.083-46.635 106.735-49.075 108.279a8.54 8.54 0 0 0-3.959 6.272 8.55 8.55 0 0 0 2.449 6.997c1.101 1.101 25.293 24.67 65.519 14.353-2.398 57.225-22.315 104.934-59.307 141.926-35.43 35.43-85.811 49.988-134.758 38.895-4.591-1.024-9.165 1.843-10.206 6.443a8.531 8.531 0 0 0 6.443 10.206 164.08 164.08 0 0 0 36.241 4.07c42.479-.008 83.482-16.683 114.347-47.548 42.837-42.829 64.555-98.628 64.555-165.845a8.538 8.538 0 0 0-3.757-7.064zM247.714 375.469h-.085c-4.71 0-8.491 3.823-8.491 8.533s3.857 8.533 8.576 8.533 8.533-3.823 8.533-8.533-3.814-8.533-8.533-8.533z"/></svg>