<svg xmlns="http://www.w3.org/2000/svg" viewBox="0 0 512 512"><path d="M469.333 17.067H307.2V8.533A8.53 8.53 0 0 0 298.667 0h-85.333a8.53 8.53 0 0 0-8.533 8.533v8.533H42.667C19.14 17.067 0 36.207 0 59.733v187.733A8.53 8.53 0 0 0 8.533 256h460.8a8.53 8.53 0 0 0 8.533-8.533v-179.2c0-9.412-7.654-17.067-17.067-17.067h-128c-4.719 0-8.533 3.823-8.533 8.533s3.814 8.533 8.533 8.533h128v170.667h-17.067v-25.6a8.53 8.53 0 0 0-8.533-8.533H384a8.53 8.53 0 0 0-8.533 8.533 8.53 8.53 0 0 0 8.533 8.533h42.667v17.067h-85.333v-17.067h8.533a8.53 8.53 0 0 0 8.533-8.533v-25.6h76.8c4.719 0 8.533-3.823 8.533-8.533s-3.814-8.533-8.533-8.533h-68.975l-10.334-17.903 59.119-34.133 8.533 14.78-18.21 10.505c-4.079 2.364-5.487 7.578-3.123 11.657 2.355 4.079 7.578 5.478 11.657 3.132l25.6-14.78a8.578 8.578 0 0 0 3.977-5.18 8.546 8.546 0 0 0-.853-6.477l-17.067-29.559c-2.364-4.087-7.586-5.478-11.657-3.123l-73.899 42.667a8.516 8.516 0 0 0-3.977 5.18 8.54 8.54 0 0 0 .853 6.477l10.018 17.365c-3.226 1.22-5.53 4.275-5.53 7.927v25.6H332.8a8.53 8.53 0 0 0-8.533 8.533v25.6h-18.645c-3.533-9.916-12.911-17.067-24.021-17.067-11.11 0-20.489 7.151-24.021 17.067h-46.72c9.327-18.799 15.249-40.38 17.843-51.2h1.698a8.53 8.53 0 0 0 8.533-8.533v-34.133a8.53 8.53 0 0 0-8.533-8.533h-27.179c-3.533-9.916-12.911-17.067-24.021-17.067s-20.489 7.151-24.021 17.067h-20.224c.964-2.679 1.579-5.53 1.579-8.533 0-14.114-11.486-25.6-25.6-25.6s-25.6 11.486-25.6 25.6c0 3.004.614 5.854 1.579 8.533H76.8a8.53 8.53 0 0 0-8.533 8.533V179.2a8.53 8.53 0 0 0 8.533 8.533h1.698c2.594 10.82 8.516 32.401 17.843 51.2H17.067v-179.2c0-14.114 11.486-25.6 25.6-25.6H204.8v25.6c0 15.078 10.522 25.6 25.6 25.6h51.2c15.078 0 25.6-10.522 25.6-25.6v-25.6h162.133c14.114 0 25.6 11.486 25.6 25.6v409.6c0 14.114-11.486 25.6-25.6 25.6H42.667c-14.114 0-25.6-11.486-25.6-25.6V281.6c0-4.71-3.814-8.533-8.533-8.533S0 276.89 0 281.6v187.733C0 492.86 19.14 512 42.667 512h426.667C492.86 512 512 492.86 512 469.333v-409.6c0-23.526-19.14-42.666-42.667-42.666zm-358.4 102.4c4.71 0 8.533 3.831 8.533 8.533s-3.823 8.533-8.533 8.533-8.533-3.831-8.533-8.533 3.823-8.533 8.533-8.533zm-14.831 68.266H179.2c4.719 0 8.533-3.823 8.533-8.533s-3.814-8.533-8.533-8.533H85.333V153.6h136.533v17.067a8.534 8.534 0 0 0-8.371 6.861c-.077.393-7.578 37.205-21.973 61.406h-75.844c-9.72-16.342-16.299-38.443-19.576-51.201zm194.031-128c0 5.666-2.876 8.533-8.533 8.533h-17.067v-8.533c0-4.71-3.814-8.533-8.533-8.533s-8.533 3.823-8.533 8.533v8.533H230.4c-5.658 0-8.533-2.867-8.533-8.533V17.067h68.267v42.666z"/><path d="M196.267 409.6h-102.4c-4.719 0-8.533 3.823-8.533 8.533s3.814 8.533 8.533 8.533h102.4c4.719 0 8.533-3.823 8.533-8.533s-3.814-8.533-8.533-8.533zm102.4 0H332.8c4.719 0 8.533-3.823 8.533-8.533s-3.814-8.533-8.533-8.533h-34.133c-4.719 0-8.533 3.823-8.533 8.533s3.814 8.533 8.533 8.533z"/><path d="M213.333 273.067H42.667a8.53 8.53 0 0 0-8.533 8.533v187.733a8.53 8.53 0 0 0 8.533 8.533h426.667a8.53 8.53 0 0 0 8.533-8.533V281.6a8.53 8.53 0 0 0-8.533-8.533H247.467c-4.719 0-8.533 3.823-8.533 8.533s3.814 8.533 8.533 8.533h42.667v34.133c0 18.825-15.309 34.133-34.133 34.133-18.825 0-34.133-15.309-34.133-34.133V281.6a8.533 8.533 0 0 0-8.535-8.533zM256 375.467c28.237 0 51.2-22.963 51.2-51.2v-34.133h153.6V358.4h-59.733c-4.719 0-8.533 3.823-8.533 8.533s3.814 8.533 8.533 8.533H460.8V460.8H51.2v-85.333h25.6c4.719 0 8.533-3.823 8.533-8.533S81.519 358.4 76.8 358.4H51.2v-68.267h153.6v34.133c0 28.237 22.963 51.201 51.2 51.201zM290.133 128c0-14.114-11.486-25.6-25.6-25.6s-25.6 11.486-25.6 25.6 11.486 25.6 25.6 25.6 25.6-11.486 25.6-25.6zm-25.6 8.533c-4.71 0-8.533-3.831-8.533-8.533s3.823-8.533 8.533-8.533c4.71 0 8.533 3.831 8.533 8.533s-3.822 8.533-8.533 8.533zM51.2 51.2c-9.412 0-17.067 7.654-17.067 17.067v145.067c0 4.71 3.814 8.533 8.533 8.533s8.533-3.823 8.533-8.533V68.267h128c4.719 0 8.533-3.823 8.533-8.533S183.919 51.2 179.2 51.2h-128zm247.467 153.6c14.114 0 25.6-11.486 25.6-25.6s-11.486-25.6-25.6-25.6-25.6 11.486-25.6 25.6 11.486 25.6 25.6 25.6zm0-34.133c4.71 0 8.533 3.831 8.533 8.533s-3.823 8.533-8.533 8.533-8.533-3.831-8.533-8.533c-.001-4.702 3.822-8.533 8.533-8.533z"/><path d="M264.533 324.267v-8.533c0-4.71-3.814-8.533-8.533-8.533s-8.533 3.823-8.533 8.533v8.533c0 4.71 3.814 8.533 8.533 8.533s8.533-3.823 8.533-8.533z"/></svg>