<svg xmlns="http://www.w3.org/2000/svg" viewBox="0 0 520.678 520.678"><path d="M269.017 260.339v-8.678c0-4.79-3.888-8.678-8.678-8.678s-8.678 3.888-8.678 8.678v8.678c0 4.79 3.888 8.678 8.678 8.678s8.678-3.888 8.678-8.678z"/><path d="M407.864 69.424h-295.05c-48.657 0-90.095 31.024-105.889 74.283-.208.399-.33.824-.469 1.267C2.343 156.663 0 169.168 0 182.237c0 4.79 3.888 8.678 8.678 8.678h208.271c4.79 0 8.678-3.888 8.678-8.678 0-3.957 1.501-8.678 8.678-8.678h52.068c5.753 0 8.678 2.916 8.678 8.678a8.676 8.676 0 0 0 8.678 8.678h173.559c4.799 0 8.678-3.888 8.678-8.678s-3.879-8.678-8.678-8.678H311.14c-3.254-10.544-12.54-17.356-24.767-17.356h-52.068c-12.227 0-21.521 6.812-24.776 17.356H17.746a94.724 94.724 0 0 1 3.228-17.356h57.127c4.79 0 8.678-3.888 8.678-8.678 0-4.79-3.888-8.678-8.678-8.678H27.83c15.829-30.876 47.963-52.068 84.983-52.068h295.051c29.575 0 56.051 13.529 73.572 34.712h-90.928a8.676 8.676 0 0 0-8.678 8.678 8.676 8.676 0 0 0 8.678 8.678h102.279c6.691 13.034 10.535 27.761 10.535 43.39v225.627c0 14.353-11.681 26.034-26.034 26.034H43.39c-14.353 0-26.034-11.681-26.034-26.034V216.949c0-4.79-3.888-8.678-8.678-8.678S0 212.159 0 216.949v190.915c0 23.925 19.465 43.39 43.39 43.39h433.898c23.925 0 43.39-19.465 43.39-43.39V182.237c0-62.212-50.61-112.813-112.814-112.813z"/><path d="M303.729 347.119h34.712c4.799 0 8.678-3.888 8.678-8.678s-3.879-8.678-8.678-8.678h-34.712c-4.799 0-8.678 3.888-8.678 8.678s3.879 8.678 8.678 8.678zm-104.136 0H95.458c-4.79 0-8.678 3.888-8.678 8.678s3.888 8.678 8.678 8.678h104.136c4.79 0 8.678-3.888 8.678-8.678s-3.889-8.678-8.679-8.678z"/><path d="M216.949 208.271H43.39c-4.79 0-8.678 3.888-8.678 8.678v190.915c0 4.79 3.888 8.678 8.678 8.678h433.898a8.676 8.676 0 0 0 8.678-8.678V216.949a8.676 8.676 0 0 0-8.678-8.678H251.661c-4.79 0-8.678 3.888-8.678 8.678s3.888 8.678 8.678 8.678h43.39v34.712c0 19.144-15.568 34.712-34.712 34.712s-34.712-15.568-34.712-34.712v-43.39c0-4.79-3.888-8.678-8.678-8.678zm43.39 104.136c28.715 0 52.068-23.352 52.068-52.068v-34.712H468.61v69.424h-60.746c-4.799 0-8.678 3.888-8.678 8.678s3.879 8.678 8.678 8.678h60.746v86.78H52.068v-86.78h26.034c4.79 0 8.678-3.888 8.678-8.678s-3.888-8.678-8.678-8.678H52.068v-69.424h156.203v34.712c0 28.715 23.353 52.068 52.068 52.068zM147.525 104.136c-4.79 0-8.678 3.888-8.678 8.678 0 4.79 3.888 8.678 8.678 8.678h34.712c4.79 0 8.678-3.888 8.678-8.678 0-4.79-3.888-8.678-8.678-8.678h-34.712z"/></svg>