<svg xmlns="http://www.w3.org/2000/svg" viewBox="0 0 512 512"><path d="M237.585 194.935a8.61 8.61 0 0 0 2.714.452 8.543 8.543 0 0 0 8.09-5.828c5.052-15.044 7.313-25.156 7.415-25.574a8.544 8.544 0 0 0-6.485-10.18c-4.557-.99-9.156 1.877-10.189 6.477-.009.094-2.176 9.728-6.921 23.851a8.526 8.526 0 0 0 5.376 10.802zm-21.12 27.708c-3.746 7.672-7.765 14.976-11.947 21.726-2.475 4.002-1.246 9.267 2.765 11.742a8.462 8.462 0 0 0 4.48 1.28 8.552 8.552 0 0 0 7.27-4.036c4.463-7.228 8.764-15.036 12.766-23.202 2.065-4.232.316-9.344-3.917-11.418-4.232-2.057-9.343-.316-11.417 3.908zM309.7 355.9a8.51 8.51 0 0 0 6.033 2.5 8.509 8.509 0 0 0 6.033-2.5 8.523 8.523 0 0 0 0-12.066L287.633 309.7a8.525 8.525 0 0 0-12.066 0l-28.1 28.1-11.034-11.034a8.523 8.523 0 0 0-12.066 0L190.234 360.9a8.525 8.525 0 0 0 0 12.066 8.523 8.523 0 0 0 12.066 0l28.1-28.1 28.1 28.1a8.51 8.51 0 0 0 6.033 2.5 8.509 8.509 0 0 0 6.033-2.5 8.523 8.523 0 0 0 0-12.066l-11.034-11.034 22.067-22.067L309.7 355.9zm-183.995 80.827l-85.12 23.398c-5.751 1.442-10.496.683-14.413-2.372-5.53-4.318-9.105-13.167-9.105-22.554v-235.4l14.566-14.575a8.526 8.526 0 0 0 2.5-6.025c0-2.27-.905-4.437-2.5-6.033L17.067 158.6v-43.537c0-19.669 21.564-28.032 27.938-30.063l116.813-33.365 48.597 17.673a8.515 8.515 0 0 0 10.94-5.111c1.613-4.429-.683-9.318-5.103-10.931l-51.2-18.62a8.51 8.51 0 0 0-5.257-.179L40.09 68.668C15.36 76.501 0 94.285 0 115.063v47.07c0 2.261.896 4.429 2.5 6.033L13.534 179.2 2.5 190.234a8.513 8.513 0 0 0-2.5 6.033V435.2c0 14.669 6.007 28.467 15.684 36.011 4.241 3.302 10.709 6.673 19.567 6.673 2.961 0 6.178-.375 9.677-1.254l85.299-23.441a8.539 8.539 0 0 0 5.965-10.496c-1.246-4.54-5.999-7.211-10.487-5.966zm121.762-300.194A8.53 8.53 0 0 0 256 128V17.067h80.06l-10.889 21.786a8.515 8.515 0 0 0 0 7.629l10.889 21.786H281.6c-4.719 0-8.533 3.823-8.533 8.533s3.814 8.533 8.533 8.533h68.267c2.961 0 5.7-1.536 7.262-4.045a8.517 8.517 0 0 0 .367-8.303L342.34 42.667l15.155-30.319a8.517 8.517 0 0 0-.367-8.303A8.554 8.554 0 0 0 349.867 0h-102.4a8.53 8.53 0 0 0-8.533 8.533V128a8.53 8.53 0 0 0 8.533 8.533zm130.5 236.433a8.523 8.523 0 0 0 12.066 0l11.034-11.034 11.034 11.034a8.51 8.51 0 0 0 6.033 2.5 8.509 8.509 0 0 0 6.033-2.5 8.525 8.525 0 0 0 0-12.066L407.1 343.834a8.523 8.523 0 0 0-12.066 0L377.967 360.9a8.523 8.523 0 0 0 0 12.066zM412.1 241.434L395.034 258.5a8.523 8.523 0 0 0 0 12.066 8.523 8.523 0 0 0 12.066 0l11.034-11.034 11.034 11.034a8.51 8.51 0 0 0 6.033 2.5 8.509 8.509 0 0 0 6.033-2.5 8.523 8.523 0 0 0 0-12.066l-17.067-17.067a8.525 8.525 0 0 0-12.067.001zm29.133-5.001l11.034-11.034 11.034 11.034a8.51 8.51 0 0 0 6.033 2.5 8.509 8.509 0 0 0 6.033-2.5 8.525 8.525 0 0 0 0-12.066L458.3 207.3a8.523 8.523 0 0 0-12.066 0l-17.067 17.067a8.525 8.525 0 0 0 0 12.066 8.523 8.523 0 0 0 12.066 0z"/><path d="M125.329 306.057c-7.373 1.195-15.036 1.57-23.083.614-4.71-.529-8.926 2.79-9.481 7.467s2.79 8.926 7.467 9.481c3.618.435 7.219.648 10.701.648 5.803 0 11.563-.461 17.152-1.374 4.651-.751 7.808-5.137 7.049-9.788-.76-4.651-5.06-7.842-9.805-7.048zm-81.724-24.133c-3.891-2.654-9.199-1.638-11.844 2.261a8.526 8.526 0 0 0 2.261 11.853c7.697 5.222 15.42 9.813 22.963 13.636a8.51 8.51 0 0 0 3.849.922c3.115 0 6.118-1.707 7.612-4.676 2.142-4.207.452-9.335-3.746-11.469-6.904-3.498-13.995-7.714-21.095-12.527zM512 366.925V110.933c0-15.556-5.222-28.646-14.344-35.925-5.478-4.378-15.198-8.883-30.601-5.367l-119.467 33.067a8.533 8.533 0 0 0-6.255 8.226v358.4c0 4.71 3.814 8.533 8.533 8.533s8.533-3.823 8.533-8.533V117.427l112.828-31.241c6.75-1.544 12.066-.811 15.787 2.167 4.958 3.951 7.919 12.399 7.919 22.579v252.459l-14.566 14.575a8.515 8.515 0 0 0 0 12.058l14.566 14.575V435.2c0 8.568-3.345 18.355-27.938 25.933l-116.813 33.365-132.096-48.034-5.035-19.123a8.515 8.515 0 0 0-4.915-5.683 8.574 8.574 0 0 0-7.509.41l-19.951 11.187-10.01-3.891v-123.47l.009-.009c7.245-4.813 14.31-10.65 21-17.357 3.328-3.328 3.328-8.73-.008-12.066-3.337-3.319-8.747-3.328-12.075.009a127.182 127.182 0 0 1-8.926 8.149V76.8c0-4.71-3.814-8.533-8.533-8.533S153.6 72.09 153.6 76.8v358.4a8.52 8.52 0 0 0 5.444 7.953l19.2 7.467a8.507 8.507 0 0 0 7.262-.512l13.841-7.757 3.371 12.774a8.534 8.534 0 0 0 5.333 5.854l138.897 50.509a8.59 8.59 0 0 0 2.918.512c.794 0 1.579-.111 2.338-.333l119.637-34.176C481.775 474.436 512 465.135 512 435.2v-34.133a8.546 8.546 0 0 0-2.5-6.033L498.466 384l11.034-11.034a8.563 8.563 0 0 0 2.5-6.041z"/></svg>