<svg xmlns="http://www.w3.org/2000/svg" viewBox="0 0 512 512"><path d="M89.301 256l14.532 21.803a8.535 8.535 0 0 0 14.2 0L132.565 256H153.6c4.719 0 8.533-3.823 8.533-8.533s-3.814-8.533-8.533-8.533h-21.035l-14.532-21.803c-3.166-4.745-11.034-4.745-14.199 0l-14.532 21.803H68.267c-4.719 0-8.533 3.823-8.533 8.533S63.548 256 68.267 256h21.034zm21.632-18.748l6.81 10.214-6.81 10.214-6.81-10.214 6.81-10.214zm136.534 52.881h102.4a8.53 8.53 0 0 0 8.533-8.533v-34.133a8.53 8.53 0 0 0-8.533-8.533h-51.2c-4.719 0-8.533 3.823-8.533 8.533s3.814 8.533 8.533 8.533h42.667v17.067H256V256h8.533a8.53 8.53 0 0 0 8.533-8.533v-25.6h76.8c4.719 0 8.533-3.823 8.533-8.533s-3.814-8.533-8.533-8.533h-68.975l-10.334-17.903 59.119-34.133 8.533 14.78L320 178.048c-4.087 2.364-5.487 7.578-3.123 11.657 2.355 4.087 7.578 5.478 11.656 3.132l25.6-14.78a8.578 8.578 0 0 0 3.977-5.18 8.54 8.54 0 0 0-.853-6.477l-17.067-29.559c-2.355-4.087-7.586-5.487-11.657-3.123l-73.899 42.667a8.516 8.516 0 0 0-3.977 5.18 8.54 8.54 0 0 0 .853 6.477l10.018 17.365c-3.217 1.22-5.53 4.275-5.53 7.927v25.6h-8.533a8.53 8.53 0 0 0-8.533 8.533V281.6a8.533 8.533 0 0 0 8.535 8.533zm42.922 102.4a8.536 8.536 0 0 0-8.533-8.533h-.094c-4.702 0-8.482 3.823-8.482 8.533s3.857 8.533 8.576 8.533c4.71.001 8.533-3.822 8.533-8.533z"/><path d="M174.029 461.491c-44.877-19.234-40.713-79.966-38.417-97.954 39.808-10.88 69.188-47.266 69.188-90.47v-85.333c9.412 0 17.067-7.654 17.067-17.067V153.6c0-9.412-7.654-17.067-17.067-17.067H17.067C7.654 136.533 0 144.188 0 153.6v17.067c0 9.412 7.654 17.067 17.067 17.067h145.067a8.53 8.53 0 0 0 8.533-8.533 8.53 8.53 0 0 0-8.533-8.533H17.067V153.6H204.8v17.067h-8.533a8.53 8.53 0 0 0-8.533 8.533v93.867c0 37.103-26.453 68.139-61.491 75.255l-.009.009a77.246 77.246 0 0 1-15.3 1.536c-42.351 0-76.8-34.458-76.8-76.8v-59.733c0-4.71-3.814-8.533-8.533-8.533s-8.533 3.823-8.533 8.533v59.733c0 51.755 42.112 93.867 93.867 93.867 2.398 0 4.753-.188 7.1-.358-2.125 21.06-2.799 66.022 25.02 94.225H78.72c15.394-15.676 24.183-38.63 25.702-67.823.247-4.71-3.371-8.721-8.081-8.969-4.668-.256-8.713 3.371-8.969 8.081-1.271 24.474-9.173 56.388-39.535 69.402a8.542 8.542 0 0 0-5.001 9.557 8.54 8.54 0 0 0 8.363 6.818h119.467a8.525 8.525 0 0 0 8.354-6.818 8.526 8.526 0 0 0-4.991-9.558zm320.904-34.824h-230.4c-4.719 0-8.533 3.823-8.533 8.533s3.814 8.533 8.533 8.533h230.4V460.8H221.867v-17.067h8.533a8.53 8.53 0 0 0 8.533-8.533V384c0-4.71-3.814-8.533-8.533-8.533s-8.533 3.823-8.533 8.533v42.667c-9.412 0-17.067 7.654-17.067 17.067V460.8c0 9.412 7.654 17.067 17.067 17.067h273.067c9.404 0 17.067-7.654 17.067-17.067v-17.067c-.001-9.412-7.664-17.066-17.068-17.066zm8.534-324.267H435.2a8.53 8.53 0 0 0-8.533 8.533 8.53 8.53 0 0 0 8.533 8.533h59.733v17.067H486.4a8.53 8.53 0 0 0-8.533 8.533v68.267a8.53 8.53 0 0 0 8.533 8.533v17.067a8.53 8.53 0 0 0-8.533 8.533v25.6h-85.333V256h59.733c4.719 0 8.533-3.823 8.533-8.533s-3.814-8.533-8.533-8.533h-51.2v-17.067h51.2c4.719 0 8.533-3.823 8.533-8.533s-3.814-8.533-8.533-8.533h-59.733v-17.067h59.733a8.53 8.53 0 0 0 8.533-8.533 8.53 8.53 0 0 0-8.533-8.533h-59.733V153.6h59.733c4.719 0 8.533-3.823 8.533-8.533s-3.814-8.533-8.533-8.533H409.6v-25.6a8.53 8.53 0 0 0-8.533-8.533h-25.6V85.333h68.267c4.719 0 8.533-3.823 8.533-8.533s-3.814-8.533-8.533-8.533H384V51.2h85.333v25.6c0 4.71 3.814 8.533 8.533 8.533S486.4 81.51 486.4 76.8V42.667a8.53 8.53 0 0 0-8.533-8.533h-102.4a8.53 8.53 0 0 0-8.533 8.533v25.6a8.53 8.53 0 0 0-8.533 8.533v34.133a8.53 8.53 0 0 0 8.533 8.533h25.6v17.067H384a8.53 8.53 0 0 0-8.533 8.533v68.267a8.53 8.53 0 0 0 8.533 8.533v17.067a8.53 8.53 0 0 0-8.533 8.533V281.6a8.53 8.53 0 0 0 8.533 8.533h102.4a8.53 8.53 0 0 0 8.533-8.533V256a8.53 8.53 0 0 0 8.533-8.533v-34.133a8.53 8.53 0 0 0-8.533-8.533v-51.2h8.533a8.53 8.53 0 0 0 8.533-8.533v-34.133a8.53 8.53 0 0 0-8.532-8.535z"/><path d="M341.589 392.533a8.536 8.536 0 0 0-8.533-8.533h-.094c-4.702 0-8.482 3.823-8.482 8.533s3.857 8.533 8.576 8.533c4.71.001 8.533-3.822 8.533-8.533z"/><path d="M494.933 307.2H221.867c-9.412 0-17.067 7.654-17.067 17.067v17.067c0 9.412 7.654 17.067 17.067 17.067h230.4a8.53 8.53 0 0 0 8.533-8.533 8.53 8.53 0 0 0-8.533-8.533h-230.4v-17.067h273.067v17.067H486.4a8.53 8.53 0 0 0-8.533 8.533v61.867c0 4.71 3.814 8.533 8.533 8.533s8.533-3.823 8.533-8.533V358.4c9.404 0 17.067-7.654 17.067-17.067v-17.067c0-9.412-7.663-17.066-17.067-17.066z"/><path d="M443.989 392.533a8.536 8.536 0 0 0-8.533-8.533h-.094c-4.702 0-8.482 3.823-8.482 8.533s3.857 8.533 8.576 8.533c4.71.001 8.533-3.822 8.533-8.533zm-51.2 0a8.536 8.536 0 0 0-8.533-8.533h-.094c-4.702 0-8.482 3.823-8.482 8.533s3.857 8.533 8.576 8.533c4.71.001 8.533-3.822 8.533-8.533z"/></svg>