<svg xmlns="http://www.w3.org/2000/svg" viewBox="0 0 495.791 495.791"><path d="M412.771 241.351a139.498 139.498 0 0 1 23.36 5.616l14.312 4.768-5.592-27.928a79.745 79.745 0 0 0-28.336-46.568c-14.056-11.248-31.728-17.448-49.744-17.448h-14.872v-20.904l21.056 7.024 2.528-7.592c4.552-13.656 5.472-28.424 2.752-42.528h26.608l-9.312-18.608c-14.112-28.216-36.048-51.408-63.448-67.064-25.296-14.464-58.104-13.336-82.36 2.832l-1.824 1.224-1.832-1.224c-24.256-16.168-57.064-17.296-82.36-2.832-27.4 15.656-49.336 38.848-63.448 67.064l-9.312 18.608h26.608c-2.712 14.104-1.8 28.872 2.752 42.528l2.528 7.592 21.064-7.024v20.904h-14.872c-18.016 0-35.688 6.2-49.744 17.456a79.733 79.733 0 0 0-28.344 46.568l-5.592 27.928 14.312-4.768a139.875 139.875 0 0 1 23.36-5.616l-2.152 2.152c-16.104 16.096-24.968 37.504-24.968 60.28v8h24.664c3.824 22.672 23.592 40 47.336 40h8v144h95.112l15.896-135.128c.12-.992 1.856-1 1.976 0l15.904 135.128h95.112v-144h8c23.744 0 43.512-17.328 47.336-40h24.664v-8c0-22.776-8.864-44.184-24.976-60.288l-2.152-2.152zm-276.872 94.44h-8c-14.864 0-27.288-10.24-30.864-24h38.864v24zm232 0h-8v-24h38.864c-3.575 13.76-16 24-30.864 24zm40-40h-48v-48h-16v232h-64.888l-14.232-120.984c-1.008-8.56-8.256-15.016-16.88-15.016-8.624 0-15.872 6.456-16.88 15.008l-14.232 120.992h-64.888v-232h-16v48H72.355c1.768-15.472 8.656-29.8 19.832-40.976l31.024-31.024h-19.312a155.295 155.295 0 0 0-37.56 4.592l.288-1.432a63.718 63.718 0 0 1 22.656-37.216c11.232-8.992 25.344-13.944 39.744-13.944h30.872v-59.096l-26.488 8.824c-2.384-11.648-1.696-23.888 2.072-35.2l3.512-10.528h-22.048c12.712-23.328 31.536-42.544 54.696-55.784 20.128-11.504 46.256-10.616 65.552 2.256l10.704 7.144 10.704-7.136c19.304-12.872 45.432-13.752 65.552-2.256 23.16 13.232 41.976 32.448 54.696 55.784h-22.048l3.504 10.528c3.768 11.312 4.456 23.552 2.072 35.2l-26.48-8.832v59.096h30.872c14.4 0 28.512 4.952 39.752 13.944a63.746 63.746 0 0 1 22.648 37.216l.288 1.432a155.295 155.295 0 0 0-37.56-4.592h-19.312l31.024 31.024c11.176 11.176 18.064 25.504 19.832 40.976h-15.544z"/><path d="M263.899 95.791h16v16h-16zm-48 0h16v16h-16z"/><path d="M295.899 147.791c0-1.368-.144-2.704-.408-4h.408c13.232 0 24-10.768 24-24v-27.16c0-20.456-6-40.264-17.344-57.28l-13.312 8.872a87.01 87.01 0 0 1 13.464 33.96l-31.4-25.12-23.408 23.416-23.408-23.408-31.4 25.12c2.016-12.088 6.576-23.632 13.464-33.96l-13.312-8.872c-11.344 17.008-17.344 36.816-17.344 57.272v27.16c0 13.232 10.768 24 24 24h.408a20.012 20.012 0 0 0-.408 4v55.312l15.392-15.392c5.904 5.648 16.208 12.08 32.608 12.08s26.704-6.432 32.608-12.08l15.392 15.392v-55.312zm-78.143 14.832l-1.856 1.856v-16.688c0-2.208 1.792-4 4-4s4 1.792 4 4a20.832 20.832 0 0 1-6.144 14.832zm30.143 21.168c-11.072 0-17.68-4.056-21.296-7.392l2.472-2.472c1.88-1.88 3.496-3.96 4.904-6.144h27.848c1.416 2.184 3.024 4.256 4.904 6.144l2.472 2.472c-3.624 3.336-10.232 7.392-21.304 7.392zm-8-32v-8c0-4.408 3.592-8 8-8 4.408 0 8 3.592 8 8v8h-16zm40 12.688l-1.856-1.856a20.828 20.828 0 0 1-6.144-14.832c0-2.208 1.792-4 4-4s4 1.792 4 4v16.688zm-14.24-36.688c-4.392-4.872-10.696-8-17.76-8-7.064 0-13.36 3.128-17.76 8h-30.24c-4.408 0-8-3.592-8-8V99.639l31.408-25.128 24.592 24.592 24.592-24.592 31.408 25.128v20.152c0 4.408-3.592 8-8 8h-30.24zm-25.76 112h16v24h-16zm72 48h16v24h-16zm-144 0h16v24h-16zm72 16h16v24h-16zm72 56h16v24h-16zm-144 0h16v24h-16zm120 64h16v24h-16zm-96 0h16v24h-16zm-8-208h16v24h-16zm-40-24h16v24h-16zm152 24h16v24h-16zm40-24h16v24h-16z"/></svg>