<svg xmlns="http://www.w3.org/2000/svg" viewBox="0 0 496 496"><path d="M262.66 104h16v16h-16zm-64 0h16v16h-16zm40 56c-8.824 0-16-7.176-16-16h-16c0 17.648 14.352 32 32 32s32-14.352 32-32h-16c0 8.824-7.176 16-16 16z"/><path d="M402.628 441.048c-24.712-14.12-56.856-39.896-76.88-65.552 1.6.296 3.232.504 4.912.504 15.44 0 28-12.56 28-28v-81.832c0-4.376-.632-8.704-1.552-12.968 14.92-5.824 25.552-20.256 25.552-37.2 0-19.32-13.768-35.488-32.008-39.2.008-.264.008-.536.008-.8 0-9.128-1.016-19.328-8-27.296V104c0-57.344-46.656-104-104-104s-104 46.656-104 104v44.704c-6.984 7.968-8 18.168-8 27.296 0 .264 0 .536.008.8-18.24 3.712-32.008 19.88-32.008 39.2 0 16.944 10.632 31.376 25.552 37.192-.92 4.272-1.552 8.592-1.552 12.976V348c0 15.44 12.56 28 28 28 4.328 0 8.376-1.072 12.032-2.824-1.2 21.104-10.552 41.408-68.152 75.968l-8.784 5.272 7.248 7.248c1.184 1.184 25.496 24.704 77.656 32.088V496h152v-9.184c51.592-11.928 82.88-31.184 84.24-32.032l11.344-7.096-11.616-6.64zM125.404 238.136c-8.656-3.632-14.744-12.184-14.744-22.136 0-13.232 10.768-24 23.504-24.016l12.168.552-2.76-10.464c-.624-2.328-.912-4.264-.912-6.072 0-9.624 1.48-14.664 5.264-17.976l2.736-2.392V104c0-48.52 39.48-88 88-88s88 39.48 88 88v51.632l2.736 2.392c3.784 3.312 5.264 8.352 5.264 17.976 0 1.808-.288 3.744-.904 6.072l-2.76 10.464 10.816-.432c.456-.008.896-.064.848-.104 13.232 0 24 10.768 24 24 0 9.952-6.088 18.504-14.736 22.136-1.656-3.304-3.536-6.496-5.76-9.464-9.68-12.92-23.792-21.496-39.72-24.152l-19.784-3.296v-11.712c14.688-13.192 24-32.264 24-53.512v-30.056C310.66 82.816 291.844 64 268.716 64c-11.2 0-21.736 4.36-29.656 12.288l-.4.4-.4-.4C230.332 68.36 219.804 64 208.604 64c-23.128 0-41.944 18.816-41.944 41.944V136c0 21.248 9.312 40.32 24 53.512v11.712l-19.776 3.296c-15.928 2.656-30.04 11.232-39.72 24.152-2.224 2.968-4.104 6.16-5.76 9.464zm101.544 58.84c-7.928-7.928-12.288-18.464-12.288-29.664a3.319 3.319 0 0 1 3.312-3.312c.872 0 1.728.352 2.344.968l18.344 18.344 18.344-18.344c1.904-1.912 5.656-.352 5.656 2.344 0 11.2-4.36 21.736-12.288 29.664l-11.712 11.712-11.712-11.712zm.4 23.024H174.66v-40h25.44a57.557 57.557 0 0 0 15.536 28.288L227.348 320zm29.464-71.752c-4.192.552-8.08 2.368-11.12 5.408l-7.032 7.032-7.032-7.032c-3.04-3.04-6.928-4.856-11.12-5.408l-13.848-41.552V200.4c9.656 4.816 20.496 7.6 32 7.6 11.504 0 22.344-2.784 32-7.6v6.296l-13.848 41.552zM238.66 192c-30.88 0-56-25.12-56-56v-30.056C182.66 91.64 194.3 80 208.604 80c6.928 0 13.44 2.696 18.344 7.6l11.712 11.712L250.372 87.6c4.904-4.896 11.416-7.6 18.344-7.6 14.304 0 25.944 11.64 25.944 25.944V136c0 30.88-25.12 56-56 56zm-80 64v92c0 6.616-5.384 12-12 12s-12-5.384-12-12v-81.832c0-9.992 3.304-19.896 9.296-27.896 7.208-9.616 17.704-15.992 29.56-17.968l19.712-3.288 11.976 35.92c-3.192 2.84-5.448 6.68-6.208 11.064H174.66v-8h-16zm72 224h-14.528c4.232-5.36 9.248-12.2 14.528-20.448V480zm72-136v136h-56v-48h-.592c8.56-17.672 16.304-38.688 20.744-62.536l-15.728-2.928c-11.336 60.88-46.664 103.232-55.872 113.44-45.376-.68-73.536-14.752-86.48-23.256 67.208-42.672 66.648-69.064 66.04-96.928-.056-2.56-.112-5.144-.112-7.792h-.408c.192-1.32.408-2.632.408-4v-12h79.776c-.192 5.04-.504 10.096-1.064 15.112l15.904 1.768c.624-5.608.952-11.248 1.152-16.88h32.232v8zm0-24h-52.688l11.712-11.712A57.522 57.522 0 0 0 277.22 280h25.44v40zm0-64v8h-24.336c-.768-4.384-3.016-8.224-6.208-11.064l11.976-35.92 19.712 3.288c11.848 1.976 22.352 8.352 29.56 17.968 6 8 9.296 17.904 9.296 27.896V348c0 6.616-5.384 12-12 12s-12-5.384-12-12v-92h-16zm16 214.368V392.08c18.336 21.528 42.768 41.64 63.968 55.464-12.592 6.216-34.792 15.728-63.968 22.824z"/></svg>