<svg xmlns="http://www.w3.org/2000/svg" viewBox="0 0 496 496"><path d="M260.003 88h16v16h-16zm-96 0h16v16h-16zm120 152h16v24h-16zm-136 0h16v24h-16zm112 96h16v24h-16zm-96 0h16v24h-16zm104 80h16v24h-16zm-112 0h16v24h-16zm56-200h16v24h-16zm0 72h16v24h-16z"/><path d="M468.291 102.512c-4.768-4.256-11.12-6.312-17.36-5.576-69.36 7.824-96.512 62.776-106.12 91.864l-16.344-24.52 26.344-8.784-20.248-20.248L364.003 96h-20.656c9.4-24.512 25.016-46.04 45.6-62.504a18.716 18.716 0 0 0 7.056-14.688C396.003 8.44 387.563 0 377.195 0h-2.6c-33.856 0-67.296 5.36-99.448 15.888C259.147 5.84 240.251 0 220.003 0s-39.144 5.84-55.144 15.888C132.707 5.36 99.259 0 65.411 0h-2.6C52.443 0 44.003 8.44 44.003 18.808a18.716 18.716 0 0 0 7.056 14.688c20.584 16.472 36.2 38 45.6 62.504H68.003l29.44 39.248-20.248 20.248 26.344 8.784L85.059 192h21.72c-2.576.968-5.168 1.92-7.616 3.136-19.448 9.664-34.36 27.032-40.904 47.656L21.395 358.84a29.468 29.468 0 0 0 .152 18.4l.776 2.336A29.923 29.923 0 0 0 50.723 400c13.168 0 24.976-8.824 28.712-21.456l28.472-96.232 16.096 47.024V496h79.856v-95.856c0-8.904 7.248-16.144 16.144-16.144s16.144 7.24 16.144 16.144V496h79.856V366.88c15.44-2.544 29.936-6.392 38.496-8.872l6.08 20.544C364.307 391.176 376.115 400 389.283 400a29.935 29.935 0 0 0 28.408-20.44l.776-2.312a29.518 29.518 0 0 0 .152-18.416l-5.72-18.008c14.192-7.112 47.104-29.536 47.104-84.824 0-28-5.208-40.752-9.808-52-3.456-8.488-6.192-15.184-6.192-28 0-2.872.392-5.544.96-8.12l12.04-9.632-4.896-6.112c4.488-6.176 9.968-10.736 14.072-13.616 6.152-4.312 9.824-11.336 9.824-18.784 0-6.568-2.816-12.84-7.712-17.224zM343.803 192a128.734 128.734 0 0 0-1.216 4.112c-.592-.312-1.144-.68-1.736-.976-2.456-1.216-5.04-2.168-7.616-3.136h10.568zm-17.52-96h-2.584c-.784-10.288-3.104-20.152-6.68-29.392 8.264-6.816 18.528-10.536 29.36-10.592C337.923 68.288 331.163 81.72 326.283 96zm48.312-80h2.6a2.806 2.806 0 0 1 2.808 2.808A2.78 2.78 0 0 1 378.947 21c-7.216 5.776-13.824 12.176-19.912 19h-12.408c-13.384 0-26.088 4.232-36.704 11.952-5.208-8.968-11.656-17.12-19.2-24.136A303.146 303.146 0 0 1 374.595 16zM80.971 40c-6.088-6.824-12.696-13.224-19.912-19a2.806 2.806 0 0 1 1.752-5h2.6c28.448 0 56.608 3.976 83.872 11.816-7.552 7.016-13.992 15.168-19.2 24.136C119.467 44.232 106.763 40 93.379 40H80.971zm12.656 16.016c10.84.056 21.104 3.784 29.36 10.592A103.302 103.302 0 0 0 116.307 96h-2.592a163.676 163.676 0 0 0-20.088-39.984zM100.003 112h32v-8c0-48.52 39.48-88 88-88s88 39.48 88 88v8h24l-18.56 24.752 11.752 11.752-21.656 7.216 13.52 20.28h-46.688l-8.12 9.288c-7.208 8.224-20.984 8.664-28.696.96l-10.536-10.536c6.136-.68 11.856-3.272 16.296-7.704l13.376-13.376c4.72-4.72 7.312-10.992 7.312-17.664 0-10.6-6.664-19.616-16-23.232V91.312l21.656-21.656-11.312-11.312-26.344 26.344V112h-16V84.688l-26.344-26.344-11.312 11.312 21.656 21.656v22.424c-9.336 3.616-16 12.632-16 23.232 0 6.672 2.592 12.944 7.312 17.656L200.691 168c4.44 4.432 10.152 7.024 16.296 7.704l-10.544 10.544c-7.72 7.704-21.496 7.256-28.68-.96L169.627 176h-54.68l13.52-20.28-21.656-7.216 11.752-11.752L100.003 112zm112 44.68l-13.376-13.376a8.868 8.868 0 0 1-2.624-6.336c0-4.944 4.024-8.968 8.968-8.968h30.064c4.944 0 8.968 4.024 8.968 8.968a8.9 8.9 0 0 1-2.624 6.344l-13.376 13.368c-4.248 4.248-11.752 4.248-16 0zm104 193.976v-21.32l16.104-47.016 17.848 60.336c-7.672 2.216-20.392 5.608-33.952 8zm87.288 21.52l-.776 2.312A13.936 13.936 0 0 1 389.283 384c-6.136 0-11.624-4.112-13.368-9.992L333.211 229.68l-33.208 96.984V480h-47.856v-79.856c0-17.728-14.424-32.144-32.144-32.144s-32.144 14.416-32.144 32.144V480h-47.856V326.664l-33.208-96.984-42.704 144.328c-1.744 5.88-7.24 9.992-13.368 9.992a13.94 13.94 0 0 1-13.232-9.504l-.776-2.336a13.597 13.597 0 0 1-.072-8.48l36.856-116.04c5.24-16.512 17.184-30.424 32.784-38.168a64.377 64.377 0 0 1 8.488-3.496L156.915 192h5.456l3.344 3.832A35.703 35.703 0 0 0 192.547 208c9.52 0 18.48-3.704 25.2-10.44l2.256-2.248 2.24 2.24c6.736 6.736 15.688 10.448 25.216 10.448a35.654 35.654 0 0 0 26.832-12.176l3.344-3.824h5.456l42.152 13.968c2.896.96 5.76 2.136 8.488 3.496 15.592 7.744 27.536 21.664 32.784 38.168l36.856 116.04a13.73 13.73 0 0 1-.08 8.504zm4.688-46.832l-26.224-82.552c-4.624-14.568-13.488-27.448-25.112-37.2 1.104-4.904 3.608-14.336 8.496-25.432l10.808 21.624 1.744-.584-10.688 8.552 10 12.496 24.72-19.776 5.216 15.648 27.944-9.312c.168.408.336.832.496 1.24 4.24 10.368 8.624 21.096 8.624 45.952 0 43.92-24.104 62.72-36.024 69.344zm7.064-133.528l13.12-10.496c.264 4.656.888 8.664 1.712 12.288l-12.808 4.272-2.024-6.064zm41.952-66.4c-8.216 5.768-20.616 16.792-26.144 33.256l-21.2 16.96-.584-1.76-25.008 8.336-9.72-19.44c14.008-22.384 38-45.384 78.392-49.936 2.4-.272 4.096.896 4.904 1.616a7.102 7.102 0 0 1 2.368 5.288c0 2.24-1.128 4.36-3.008 5.68z"/></svg>