<svg xmlns="http://www.w3.org/2000/svg" viewBox="0 0 496 496"><path d="M240 144h16v16h-16zm16-32v16h8c26.472 0 48-21.528 48-48V64h-8c-26.472 0-48 21.528-48 48zm39.984-30.984c-.456 14.432-10.504 26.488-23.968 29.968.456-14.432 10.504-26.488 23.968-29.968zM240 112c0-26.472-21.528-48-48-48h-8v16c0 26.472 21.528 48 48 48h8v-16zm-39.984-30.984c13.464 3.488 23.512 15.536 23.968 29.968-13.464-3.48-23.512-15.536-23.968-29.968zM272 248h16v16h-16zm-64 0h16v16h-16z"/><path d="M360 0c-13.232 0-24 10.768-24 24 0 10.416 6.712 19.216 16 22.528v23.584a7.95 7.95 0 0 1-4.424 7.152l-11.824 5.912C333.232 36.904 294.896 0 248 0s-85.232 36.904-87.752 83.176l-11.824-5.912A7.95 7.95 0 0 1 144 70.112V46.528c9.288-3.312 16-12.112 16-22.528 0-13.232-10.768-24-24-24s-24 10.768-24 24c0 10.416 6.712 19.216 16 22.528v23.584c0 9.152 5.088 17.368 13.264 21.464L160 100.944V104c0 30.816 15.952 57.936 40 73.664v15.184l-29.656 3.312C150.768 198.952 136 215.976 136 235.752V340c0 15.44 12.56 28 28 28 4.312 0 8.352-1.064 12-2.808V496h64V368c0-4.408 3.584-8 8-8s8 3.592 8 8v128h64V365.192c3.648 1.744 7.688 2.808 12 2.808 15.44 0 28-12.56 28-28V235.752c0-19.776-14.768-36.8-34.584-39.632L296 192.84v-15.184c24.048-15.728 40-42.848 40-73.664v-3.056l18.736-9.368C362.912 87.488 368 79.264 368 70.112V46.528c9.288-3.312 16-12.112 16-22.528 0-13.232-10.768-24-24-24zM136 32c-4.416 0-8-3.592-8-8s3.584-8 8-8 8 3.592 8 8-3.584 8-8 8zm187.392 179.992c11.752 1.68 20.608 11.896 20.608 23.76V340c0 6.616-5.384 12-12 12s-12-5.384-12-12v-92h-16v92c0 1.368.216 2.68.408 4H304v136h-32V368c0-13.232-10.768-24-24-24s-24 10.768-24 24v112h-32V344h-.408c.192-1.32.408-2.632.408-4v-92h-16v92c0 6.616-5.384 12-12 12s-12-5.384-12-12V235.752c0-11.864 8.856-22.08 20.368-23.728L216 207.16v-21.272c9.936 3.896 20.704 6.112 32 6.112s22.064-2.216 32-6.112v21.272l43.392 4.832zM320 104c0 39.696-32.296 72-72 72s-72-32.304-72-72V88c0-39.696 32.296-72 72-72s72 32.304 72 72v16zm40-72c-4.416 0-8-3.592-8-8s3.584-8 8-8 8 3.592 8 8-3.584 8-8 8z"/></svg>