<svg xmlns="http://www.w3.org/2000/svg" viewBox="0 0 497.24 497.24"><path d="M280.62 121.24h16v16h-16zm-80 0h16v16h-16zm48 48c-8.824 0-16-7.176-16-16h-16c0 17.648 14.352 32 32 32s32-14.352 32-32h-16c0 8.824-7.176 16-16 16z"/><path d="M458.796 1.24c-36.832 0-72.76 6.696-106.992 19.776l-2.048-8.192-38.792 23.272c-3.192-12.48-10.88-23.496-21.88-30.832L281.196 0l-4.16 2.072C257.212 12 235.012 17.24 212.844 17.24h-5.392a71.164 71.164 0 0 0-31.68 7.48c-3.192 1.592-6.192 3.432-9.056 5.432C126.804 11.288 82.612 1.24 38.444 1.24H.62v143.432c0 38.616 15.04 74.92 42.344 102.224 12.16 12.16 26.496 22.056 42.112 29.216l-.424.304A29.297 29.297 0 0 0 72.62 300.04c0 7.456 2.896 14.2 7.512 19.368-15.344 31.08-23.512 65.68-23.512 100.336v13.496h31.432c37.248 0 72.264-14.104 99.2-39.6 1.736.416 3.512.832 5.368 1.24v102.36h112V394.888c1.856-.408 3.632-.824 5.368-1.24 26.936 25.488 61.952 39.6 99.2 39.6h31.432v-13.496c0-34.664-8.168-69.264-23.512-100.344 4.616-5.168 7.512-11.912 7.512-19.368 0-9.312-4.496-18.144-12.032-23.616l-.424-.312c15.616-7.152 29.952-17.056 42.112-29.216 27.304-27.312 42.344-63.616 42.344-102.224V1.24h-37.824zM366.18 106.016l-1.4 5.592a33.778 33.778 0 0 1-14.064 19.952 33.763 33.763 0 0 1-18.768 5.68h-3.328v-12.544c10.44-10.064 23.44-16.56 37.56-18.68zM182.932 39.032a55.035 55.035 0 0 1 24.52-5.792h5.392c23.08 0 46.184-5.112 67.136-14.816l.232.16A36.777 36.777 0 0 1 296.62 49.24v14.128l42.656-25.592a260.743 260.743 0 0 1 5.344 52.448v5.232a84.297 84.297 0 0 0-16 8.6V97.24h-22.064c-19.752 0-38.312-7.688-52.28-21.656l-5.656-5.656-5.656 5.656c-13.968 13.968-32.528 21.656-52.28 21.656H168.62v6.816a84.297 84.297 0 0 0-16-8.6v-7.384c0-20.904 11.616-39.696 30.312-49.04zm125.752 190.992c10.96 1.832 21.504 6.256 30.504 12.792l63.992 46.544a13.226 13.226 0 0 1 5.44 10.68c0 7.28-5.92 13.2-13.2 13.2h-4.112c-2.728 0-5.344-.824-7.576-2.384l-72.512-50.76c-4.184-15.424-18.152-26.856-34.88-26.856-9.688 0-18.808 3.776-25.656 10.624l-2.064 2.064-2.064-2.056c-6.848-6.856-15.968-10.632-25.656-10.632-16.728 0-30.704 11.432-34.88 26.856l-72.512 50.76a13.152 13.152 0 0 1-7.576 2.384h-4.112c-7.28 0-13.2-5.92-13.2-13.2 0-4.208 2.032-8.2 5.44-10.68l63.992-46.536c9-6.536 19.544-10.968 30.504-12.792l36.064-6.016v-10.464c7.584 2.384 15.64 3.688 24 3.688s16.416-1.304 24-3.688v10.464l36.064 6.008zM248.62 201.24c-35.288 0-64-28.712-64-64v-24h6.064c21.448 0 41.744-7.456 57.936-21.144 16.192 13.688 36.496 21.144 57.936 21.144h6.064v24c0 35.288-28.712 64-64 64zm-80-76.544v12.544h-3.328a33.809 33.809 0 0 1-18.776-5.68 33.754 33.754 0 0 1-14.064-19.952l-1.4-5.592c14.128 2.12 27.12 8.616 37.568 18.68zM54.276 235.584c-24.28-24.288-37.656-56.576-37.656-90.912V17.24h21.824c39.6 0 79.224 8.52 115.408 24.584-10.92 12.6-17.232 28.832-17.232 46.248v2.696a85.676 85.676 0 0 0-16-1.528h-10.248l6.568 26.248a49.694 49.694 0 0 0 20.704 29.376 49.687 49.687 0 0 0 27.648 8.376h4.944c4.624 22.712 18.944 41.888 38.384 53.176v4.048l-22.688 3.784c-13.4 2.232-26.296 7.64-37.288 15.64l-48.424 35.216c-17.184-6.44-32.952-16.536-45.944-29.52zM88.052 417.24H72.636c.376-30.824 7.704-61.52 21.136-89.272 2.576.744 5.24 1.272 8.048 1.272h4.112a29.062 29.062 0 0 0 16.752-5.28l61.936-43.352v38.512l-35.504 62.136 8.536 3.416c.512.2 4.576 1.8 11.288 3.92-22.824 18.544-51.072 28.648-80.888 28.648zm152.568 64h-32v-83.328c9.824 1.576 20.608 2.776 32 3.168v80.16zm48 0h-32v-80.16c11.392-.392 22.176-1.592 32-3.168v83.328zm-40-96c-32.904 0-62.232-7.888-76.28-12.384l24.92-43.616h67.36v-16h-64v-43.712c0-11.184 9.104-20.288 20.28-20.288 5.416 0 10.504 2.112 14.344 5.944l13.376 13.368 13.376-13.368a20.158 20.158 0 0 1 14.344-5.944c11.176 0 20.28 9.104 20.28 20.288v43.712h-16v16h19.36l24.92 43.624c-14.008 4.496-43.28 12.376-76.28 12.376zm175.984 32.008h-15.416v-.008c-29.816 0-58.064-10.104-80.888-28.648 6.704-2.12 10.776-3.712 11.288-3.92l8.536-3.416-35.504-62.136v-38.512l61.936 43.36a29.062 29.062 0 0 0 16.752 5.28h4.112c2.808 0 5.472-.528 8.048-1.272 13.44 27.752 20.768 58.44 21.136 89.272zm56.016-272.576c0 34.336-13.376 66.624-37.656 90.912-12.992 12.984-28.76 23.088-45.944 29.512l-48.424-35.216c-10.992-8-23.888-13.4-37.288-15.64l-22.688-3.776v-4.048c19.44-11.288 33.76-30.464 38.384-53.176h4.944a49.743 49.743 0 0 0 27.648-8.368 49.718 49.718 0 0 0 20.704-29.376l6.568-26.256H376.62c-5.432 0-10.776.536-16 1.528v-.544c0-17.92-1.832-35.816-5.296-53.392C388.388 23.88 423.14 17.24 458.796 17.24h21.824v127.432z"/><path d="M87.372 222l-9.584 12.824a113.311 113.311 0 0 0 15.096 9.512l7.44-14.168A97.77 97.77 0 0 1 87.372 222zM48.62 41.248h-16v103.424c0 30.072 11.712 58.344 32.968 79.6L76.9 212.96c-18.232-18.24-28.28-42.496-28.28-68.288V41.248zm348.296 188.928l7.44 14.168a113.311 113.311 0 0 0 15.096-9.512l-9.576-12.824a98.69 98.69 0 0 1-12.96 8.168zm51.704-85.504c0 25.8-10.048 50.048-28.28 68.288l11.312 11.312c21.256-21.256 32.968-49.528 32.968-79.6V41.248h-16v103.424z"/></svg>