<svg xmlns="http://www.w3.org/2000/svg" viewBox="0 0 496 496"><path d="M399.44 408c17.952 0 32.56-14.608 32.56-32.56a32.407 32.407 0 0 0-5.472-18.064L388.944 301c9.896-9.808 18.656-20.784 25.912-32.88l4.312-7.184L368 233.376V120C368 53.832 314.168 0 248 0S128 53.832 128 120v113.376l-51.168 27.552 4.312 7.184c7.256 12.096 16.016 23.072 25.912 32.88l-37.584 56.376A32.452 32.452 0 0 0 64 375.44C64 393.392 78.608 408 96.56 408h.504l-25.32 44.304 18.184-4.544c.272-.072 28.648-6.832 57.264 14.64C180.696 487.52 206.136 496 248 496s67.304-8.48 100.8-33.6c28.344-21.256 56.12-14.904 57.264-14.64l18.184 4.544L398.928 408h.512zM144 120c0-57.344 46.656-104 104-104s104 46.656 104 104v104.76l-34.712-18.696C328.968 191.128 336 172.392 336 152v-32c0-10.416-6.712-19.216-16-22.528V80h-16v16h-16V80h-16v16h-16V80h-16v16h-16V80h-16v16h-16V80h-16v17.472c-9.288 3.312-16 12.112-16 22.528v32c0 20.392 7.032 39.128 18.712 54.064L144 224.76V120zm104 104c-39.704 0-72-32.296-72-72v-32c0-4.416 3.584-8 8-8h128c4.416 0 8 3.584 8 8v32c0 39.704-32.296 72-72 72zm14.376 14.72l-15.616 27.328-14.224-27.496C237.568 239.448 242.72 240 248 240c4.904 0 9.688-.504 14.376-1.28zM98.096 392H96.56C87.432 392 80 384.568 80 375.44c0-3.28.96-6.464 2.784-9.184l36.256-54.392c7.4 6.04 15.352 11.408 23.744 16.144l-34.536 60.44c-2.904 2.264-6.456 3.552-10.152 3.552zm242.952 56.344l-64.824-125.32-14.216 7.344L327.84 457.64C302.608 474.36 281.464 480 248 480c-38.352 0-60.512-7.392-91.2-30.4-20.328-15.248-40.656-18.704-54.28-18.88l88.432-154.752-13.888-7.936-26.344 46.104c-20.56-11.576-38.112-27.656-51.336-47.176l90.728-48.856a88.154 88.154 0 0 0 20.88 13.624l42.888 82.912 14.216-7.344-12.584-24.32 29.2-51.104a88.308 88.308 0 0 0 21.176-13.76l90.728 48.856c-13.216 19.52-30.776 35.608-51.336 47.176l-26.344-46.104-13.888 7.936 88.44 154.744c-13.216.176-32.736 3.52-52.44 17.624zm46.712-59.896L353.216 328c8.392-4.728 16.344-10.104 23.744-16.144l36.256 54.392A16.492 16.492 0 0 1 416 375.44c0 9.136-7.432 16.56-16.56 16.56h-1.528c-3.696 0-7.24-1.288-10.152-3.552z"/><path d="M280 136h16v16h-16zm-80 0h16v16h-16zm48 56c-8.824 0-16-7.176-16-16h-16c0 17.648 14.352 32 32 32s32-14.352 32-32h-16c0 8.824-7.176 16-16 16zm-72 168v40h8c22.056 0 40-17.944 40-40v-40h-8c-22.056 0-40 17.944-40 40zm32 0c0 10.432-6.688 19.328-16 22.632V360c0-10.432 6.688-19.328 16-22.632V360zm32 24v40c0 22.056 17.944 40 40 40h8v-40c0-22.056-17.944-40-40-40h-8zm16 17.368c9.312 3.304 16 12.2 16 22.632v22.632c-9.312-3.304-16-12.2-16-22.632v-22.632z"/></svg>