<svg xmlns="http://www.w3.org/2000/svg" viewBox="0 0 491.312 491.312"><path d="M392.968 91.312L380.28 78.624c-12.456-12.456-29.008-19.312-46.624-19.312-2.416 0-4.752.32-7.024.832a65.535 65.535 0 0 0 8.56-32.432V9.776h-17.936c-17.616 0-34.168 6.856-46.624 19.312-.072.072-.128.168-.2.24-3.104-6.064-7.128-11.688-12.088-16.64L245.656 0l-12.688 12.688a66.023 66.023 0 0 0-12.088 16.64c-.072-.072-.128-.168-.2-.24-12.456-12.456-29.008-19.312-46.624-19.312h-17.944v17.936c0 11.56 3.008 22.64 8.56 32.432-2.264-.512-4.6-.832-7.016-.832-17.616 0-34.168 6.856-46.624 19.312L98.344 91.312 111.032 104c11.632 11.632 26.856 18.304 43.168 19.144-2.816 4.76-4.544 10.248-4.544 16.168 0 15.48 11.056 28.424 25.688 31.36 1.968 9.008 5.592 17.408 10.592 24.816-16.208.896-31.336 7.56-42.912 19.128l-12.68 12.696 11.312 11.312a61.765 61.765 0 0 0-16 41.536v63.152c0 14.064 10.464 25.632 24 27.592v54.536l40-24v89.872h112V401.44l40 24v-54.536c13.536-1.96 24-13.528 24-27.592v-63.16a61.765 61.765 0 0 0-16-41.536l11.312-11.304-12.688-12.688c-11.568-11.568-26.696-18.232-42.912-19.128 5-7.408 8.624-15.808 10.592-24.816 14.64-2.944 25.696-15.888 25.696-31.368 0-5.92-1.728-11.408-4.544-16.168 16.312-.84 31.536-7.512 43.168-19.144l12.688-12.688zM272.776 76.104c5.752 4.848 12.872 7.608 20.48 7.608 3.448 0 6.768-.68 9.952-1.72-.92 2.968-1.552 6.056-1.552 9.32v7.904c-14.288-.368-27.896-4.728-39.512-12.624a32.034 32.034 0 0 0 10.632-10.488zm16.384 183.8c1.328-.352 2.688-.592 4.096-.592a15.91 15.91 0 0 1 11.32 4.688c9.432 9.432 14.624 21.976 14.624 35.312v1.944h-1.944c-13.336 0-25.88-5.192-35.312-14.632a15.891 15.891 0 0 1-4.688-11.312c0-1.408.24-2.768.592-4.096l21.064 21.064 11.312-11.312-21.064-21.064zm-43.504-48.592c-30.88 0-56-25.12-56-56v-40.088c20.72-.44 40.296-7.792 56-21.056 15.704 13.264 35.28 20.616 56 21.056v40.088c0 30.88-25.12 56-56 56zm-53.248 80.968l21.064-21.064c.344 1.328.584 2.688.584 4.096 0 4.272-1.664 8.288-4.688 11.312-9.432 9.432-21.976 14.632-35.312 14.632h-1.944v-1.944h.008c0-13.336 5.192-25.88 14.624-35.312 4.008-4.008 9.976-5.296 15.312-3.992l-20.96 20.96 11.312 11.312zm-10.752 24.496a65.224 65.224 0 0 0 33.048-13.6c2.312 13.248 8.56 25.456 18.264 35.16l8.88 8.88c-27.592-.744-50.864-9.192-60.192-13.104v-17.336zm48-25.064c0-5.896 3.24-11 8-13.776v29.776h16v-29.776c4.76 2.776 8 7.88 8 13.776 0 13.336-5.192 25.88-14.624 35.312l-1.376 1.376-1.376-1.376c-9.432-9.432-14.624-21.968-14.624-35.312zm16-32.4c-13.232 0-24-10.768-24-24v-12.2c7.52 2.672 15.576 4.2 24 4.2s16.48-1.528 24-4.2v12.2c0 13.232-10.768 24-24 24zM244.28 24l1.376-1.376L247.032 24c9.432 9.432 14.624 21.976 14.624 35.312 0 5.896-3.24 11-8 13.776V43.312h-16v29.776c-4.76-2.776-8-7.88-8-13.776 0-13.336 5.192-25.88 14.624-35.312zm-15.112 62.592c-11.616 7.896-25.224 12.256-39.512 12.624v-7.904c0-3.264-.632-6.352-1.544-9.32 3.184 1.04 6.504 1.72 9.952 1.72 7.6 0 14.72-2.76 20.472-7.608a32.034 32.034 0 0 0 10.632 10.488zm-71.512 20.72c-13.336 0-25.88-5.192-35.312-14.624l-1.376-1.376 1.376-1.376c9.432-9.432 21.976-14.624 35.312-14.624 5.896 0 11 3.24 13.776 8h-29.776v16h29.776c-2.776 4.76-7.88 8-13.776 8zm16 45.776c-4.76-2.776-8-7.88-8-13.776s3.24-11 8-13.776v27.552zM172.12 27.72v-1.944h1.944c13.336 0 25.88 5.192 35.312 14.624a15.896 15.896 0 0 1 4.688 11.32c0 1.408-.24 2.768-.592 4.096l-21.064-21.064-11.312 11.312 20.96 20.96c-5.336 1.304-11.304.016-15.312-3.992-9.432-9.432-14.624-21.976-14.624-35.312zm-17.776 198.216c9.432-9.432 21.976-14.624 35.312-14.624 5.896 0 11 3.24 13.776 8h-29.776v16h29.776c-2.776 4.76-7.88 8-13.776 8-13.336 0-25.88-5.192-35.312-14.624l-1.376-1.376 1.376-1.376zm-.688 129.376c-6.616 0-12-5.384-12-12v-63.16c0-11.792 4.52-22.912 12.392-31.312a65.122 65.122 0 0 0 17.656 7.96c-10.064 11.88-15.584 26.768-15.584 42.512v17.944h9.536v26.056c0 6.616-5.384 12-12 12zm84 120h-32V421.2l5.808 11.616 26.192-26.192v68.688zm48 0h-32v-68.688l26.192 26.192 5.808-11.616v54.112zm39.992-78.128l-35.288-21.176-14.896 29.8L245.656 376l-29.808 29.808-14.896-29.8-35.296 21.176v-28.68a27.987 27.987 0 0 0 14.824-17.6c13.048 5 37.112 12.408 65.176 12.408 10.88 0 22.168-1.136 33.544-3.368l-3.088-15.704c-9.016 1.776-17.888 2.64-26.544 2.872l8.768-8.768c9.704-9.704 15.952-21.912 18.264-35.16 9.576 7.536 20.928 12.216 33.048 13.6v17.344c-3.904 1.64-10.176 4.072-18.224 6.4l4.456 15.368a191.281 191.281 0 0 0 14.944-5 27.978 27.978 0 0 0 14.824 17.608v28.68zm24.008-117.032v63.16c0 6.616-5.384 12-12 12s-12-5.384-12-12v-26.056h9.536v-17.944c0-15.752-5.52-30.632-15.584-42.512a64.88 64.88 0 0 0 17.656-7.96c7.864 8.4 12.392 19.52 12.392 31.312zm-12.688-54.216l1.376 1.376-1.376 1.376c-9.432 9.432-21.976 14.624-35.312 14.624-5.896 0-11-3.24-13.776-8h29.776v-16H287.88c2.776-4.76 7.88-8 13.776-8 13.336 0 25.88 5.192 35.312 14.624zM304.576 63.024c-4.008 4.008-9.976 5.296-15.312 3.992l20.96-20.96-11.312-11.312-21.064 21.064c-.352-1.328-.592-2.688-.592-4.096 0-4.272 1.664-8.288 4.688-11.312 9.432-9.432 21.976-14.624 35.312-14.624h1.944v1.936c0 13.336-5.192 25.88-14.624 35.312zm13.08 90.064v-27.552c4.76 2.776 8 7.88 8 13.776s-3.24 11-8 13.776zm51.312-60.4c-9.432 9.432-21.976 14.624-35.312 14.624-5.896 0-11-3.24-13.776-8h29.776v-16H319.88c2.776-4.76 7.88-8 13.776-8 13.336 0 25.88 5.192 35.312 14.624l1.376 1.376-1.376 1.376z"/><path d="M269.656 131.312h16v16h-16zm-64 0h16v16h-16zm40 48c-8.824 0-16-7.176-16-16h-16c0 17.648 14.352 32 32 32s32-14.352 32-32h-16c0 8.824-7.176 16-16 16z"/></svg>