<svg xmlns="http://www.w3.org/2000/svg" viewBox="0 0 495.986 495.986"><path d="M425.905 397.578c-13.28-7.592-24.792-18.336-33.272-31.064-10.88-16.328-16.64-35.328-16.64-54.944v-5.888c0-16.696 5.168-33.864 14.96-49.664 17.088-27.6 25.736-59.384 25-91.896C413.977 76.826 344.193 4.842 257.105.226c-46.656-2.36-90.936 13.816-124.712 45.856-33.792 32.056-52.4 75.352-52.4 121.904 0 30.736 8.456 60.832 24.456 87.056 10.168 16.68 15.544 34.728 15.544 52.184v4.344c0 19.616-5.76 38.616-16.64 54.944-8.488 12.728-19.992 23.472-33.272 31.064l-52.6 30.064 37.704 7.536a180.235 180.235 0 0 0 106.4-11.096c-9.2 21.68-22.6 41.6-39.24 58.24l-13.664 13.664h35.76c42.344 0 80.848-21.112 103.552-55.936 22.704 34.824 61.208 55.936 103.552 55.936h35.76l-13.656-13.656c-16.64-16.64-30.04-36.568-39.24-58.24a179.263 179.263 0 0 0 21.296 7.592l4.424-15.376a164.584 164.584 0 0 1-36.168-15.264l-18.168-10.392 8.304 24.936c7.808 23.416 20.048 45.376 35.8 64.384-40.424-.6-76.616-23.304-94.744-59.56l-7.16-14.312-7.16 14.312c-18.128 36.256-54.32 58.96-94.744 59.56 15.752-19.008 27.992-40.976 35.808-64.392l8.288-24.92-18.168 10.384a164.39 164.39 0 0 1-109.44 19.248l15.432-8.824c15.432-8.824 28.8-21.296 38.648-36.08 12.64-18.96 19.328-41.032 19.328-63.824v-4.344c0-20.4-6.184-41.328-17.888-60.512a151.156 151.156 0 0 1-22.104-78.72c0-42.128 16.832-81.296 47.416-110.296 30.552-28.984 70.552-43.776 112.848-41.488 78.792 4.168 141.904 69.296 143.696 148.272.664 29.416-7.152 58.16-22.608 83.12-11.352 18.328-17.352 38.416-17.352 58.088v5.888c0 22.792 6.688 44.856 19.328 63.824 9.848 14.784 23.216 27.256 38.648 36.08l15.432 8.824a163.805 163.805 0 0 1-56.048-.032l-2.736 15.768c22 3.824 44.28 3.544 66.184-.84l37.704-7.536-52.6-30.08z"/><path d="M199.993 247.986c-13.232 0-24 10.768-24 24 0 39.704 32.296 72 72 72s72-32.296 72-72c0-13.232-10.768-24-24-24h-96zm104 24c0 30.872-25.128 56-56 56s-56-25.128-56-56c0-4.416 3.584-8 8-8h8v24h16v-24h48v24h16v-24h8c4.416 0 8 3.584 8 8zm46.944-116.032l2.264-3.968-2.264-3.968c-1.352-2.368-32.944-56.048-96.288-59.68a63.157 63.157 0 0 0-13.312 0c-63.344 3.632-94.936 57.312-96.288 59.68l-2.264 3.968 2.264 3.968c1.352 2.368 32.944 56.048 96.288 59.68a63.157 63.157 0 0 0 13.312 0c63.344-3.632 94.936-57.312 96.288-59.68zm-159.584 25.728c-15.392-10.744-25.416-23.408-29.824-29.712 4.4-6.328 14.424-19.04 29.88-29.8a63.504 63.504 0 0 0-7.416 29.816c0 10.72 2.68 20.816 7.36 29.696zm38.48 14.712c-17.488-7.176-29.84-24.368-29.84-44.408s12.352-37.232 29.84-44.408c-5.56 17.312-5.84 40.4-5.84 44.408s.28 27.096 5.84 44.408zm18.16 2.224c-3.328-5.392-8-21.536-8-46.632s4.672-41.24 8-46.632c3.328 5.392 8 21.536 8 46.632s-4.672 41.24-8 46.632zm18.16-2.224c5.56-17.312 5.84-40.4 5.84-44.408s-.28-27.096-5.84-44.408c17.488 7.176 29.84 24.368 29.84 44.408s-12.352 37.232-29.84 44.408zm38.424-14.592a63.504 63.504 0 0 0 7.416-29.816c0-10.72-2.68-20.816-7.36-29.696 15.384 10.744 25.416 23.408 29.816 29.712-4.392 6.328-14.416 19.04-29.872 29.8z"/></svg>