<svg xmlns="http://www.w3.org/2000/svg" viewBox="0 0 496 496"><path d="M432 120V24h-48v16h-48c0-22.056-17.944-40-40-40h-96c-22.056 0-40 17.944-40 40H93.576L64 59.72v24.56L93.576 104H160v24h-24.68c-22.112 0-42.912 11.784-54.296 30.752A63.3 63.3 0 0 0 72 191.32V328h16v28c0 19.848 16.152 36 36 36 7.4 0 14.272-2.256 20-6.096V496h208V385.904c5.728 3.84 12.6 6.096 20 6.096 19.848 0 36-16.152 36-36v-28h16V191.32a63.35 63.35 0 0 0-9.024-32.576C403.592 139.784 382.792 128 360.68 128H336v-24h48v16h48zm-32-80h16v64h-16V40zm-224 0c0-13.232 10.768-24 24-24h96c13.232 0 24 10.768 24 24v96c0 39.704-32.296 72-72 72s-72-32.296-72-72V40zm96 180.592V240c0 13.232-10.768 24-24 24s-24-10.768-24-24v-19.408c7.64 2.168 15.672 3.408 24 3.408s16.36-1.24 24-3.408zM97.344 87.28L80 75.72v-7.44L98.424 56h4.136l-5.216 31.28zm31.88.72H113.44l5.336-32h15.784l-5.336 32zm16.216 0l5.336-32H160v32h-14.56zM144 336v20c0 11.032-8.968 20-20 20s-20-8.968-20-20v-28h40v8zm0-24H88V191.32a47.395 47.395 0 0 1 6.744-24.344C103.248 152.808 118.8 144 135.32 144h25.088c2.784 30.704 21.4 56.848 47.592 70.288V344h-48V224h-16v88zm96 168h-80V360h64v-24h16v144zm96 0h-80V336h16v24h64v120zm56-124c0 11.032-8.968 20-20 20s-20-8.968-20-20v-28h40v28zm-31.32-212c16.52 0 32.072 8.808 40.576 22.968A47.445 47.445 0 0 1 408 191.32V312h-56v-88h-16v120h-48v-40h-16v16h-48v-48.208c6.704 5.08 14.96 8.208 24 8.208s17.296-3.128 24-8.208V288h16v-73.712c26.2-13.44 44.808-39.584 47.592-70.288h25.088zm-15.456-56H336V56h14.56l-5.336 32zm16.216 0l5.336-32H384v32h-22.56z"/><path d="M216 144h64v16h-64zm-8-64h16V64h16v16h16V64h16v16h16V64h16V48h-16V32h-16v16h-16V32h-16v16h-16V32h-16v16h-16v16h16zm72 24h16v16h-16zm-80 0h16v16h-16z"/></svg>