<svg xmlns="http://www.w3.org/2000/svg" viewBox="0 0 498.032 498.032"><path d="M138.032 161.016v-16c0-13.232-10.768-24-24-24s-24 10.768-24 24v16c0 13.232 10.768 24 24 24s24-10.768 24-24zm-16 0c0 4.416-3.592 8-8 8s-8-3.584-8-8v-16c0-4.416 3.592-8 8-8s8 3.584 8 8v16zm72 24c13.232 0 24-10.768 24-24v-16c0-13.232-10.768-24-24-24s-24 10.768-24 24v16c0 13.232 10.768 24 24 24zm-8-40c0-4.416 3.592-8 8-8s8 3.584 8 8v16c0 4.416-3.592 8-8 8s-8-3.584-8-8v-16z"/><path d="M412.688 59.208l4.792-22.76c.368-1.736.552-3.512.552-5.264V26.68c0-14.152-11.512-25.664-25.664-25.664-12.064 0-22.632 8.568-25.12 20.376l-56.272 267.296c-17.096-11.136-32.312-24.696-45.088-40.664-.832-1.04-1.728-2.008-2.648-2.952l26.688-34.312c15.544-19.992 24.104-44.944 24.104-70.264 0-20.896-5.864-41.648-16.68-59.48h38.8c9.856 0 17.88-8.024 17.88-17.888 0-6.816-3.784-12.936-9.888-16L304.448 27.28C270.072 10.096 231.608 1.016 193.2 1.016h-15.648c-47.984 0-94.712 16.912-131.584 47.632-27.92 23.272-43.936 57.464-43.936 93.816 0 24.184 7.088 47.608 20.504 67.744l24.512 36.768c-5.064 3.816-9.68 8.248-13.544 13.408a68.503 68.503 0 0 0-10.168 19.408L0 349.808l22.48 8.432-17.552 35.096A27.56 27.56 0 0 0 2.032 405.6c0 15.12 12.304 27.416 27.416 27.416h1.592c.112 0 .216-.024.328-.024-8.736 14.808-18 29.312-27.888 43.432l-1.448 2.072v18.52h296v-.168c.56.04 1.096.168 1.664.168 12.064 0 22.632-8.568 25.12-20.376l19.32-91.768c6.24-5.752 9.896-13.824 9.896-22.48 0-4.232-.904-8.344-2.592-12.224l37.576-178.488c53.328 38.488 85.28 111.6 85.664 112.496l2.08 4.84h21.272v-88c0-77.8-48.528-120.56-85.344-141.808zm-29.776-34.52c.936-4.448 4.912-7.672 9.456-7.672 5.328 0 9.664 4.336 9.664 9.664v4.496c0 .656-.072 1.328-.208 1.984l-3.856 18.312c-7.832-3.744-14.44-6.328-19.024-7.952l3.968-18.832zM35.856 201.328C24.2 183.84 18.032 163.48 18.032 142.464c0-31.584 13.92-61.296 38.176-81.512 34-28.336 77.096-43.936 121.336-43.936h15.648c35.944 0 71.936 8.496 104.096 24.568l39.688 19.84a1.905 1.905 0 0 1 1.056 1.704c0 1.04-.848 1.888-1.888 1.888H266.04l12.304 16.424c12.696 16.92 19.688 37.888 19.688 59.056 0 21.784-7.36 43.24-20.736 60.44l-27.352 35.168c-4.784-1.984-9.944-3.088-15.288-3.088h-5.848c18.408-19.152 29.224-44.888 29.224-72 0-28.528-11.328-55.144-31.88-74.936-20.552-19.776-47.6-30.08-76.176-28.984-53.864 2.056-98.68 47.576-99.912 101.48-.656 28.36 10.432 55.216 29.776 74.984-6.576.824-12.936 2.68-18.952 5.32l-25.032-37.552zm126.176 39.688v32h-16v-32h-16v32h-8c-4.408 0-8-3.584-8-8v-25.552l-3.992-2.312c-27.872-16.152-44.728-46.12-43.992-78.2 1.048-45.608 38.96-84.128 84.52-85.864a85.135 85.135 0 0 1 3.488-.072c22.896 0 44.448 8.656 61 24.592 17.392 16.752 26.976 39.264 26.976 63.408 0 31.232-16.864 60.408-44.008 76.136l-3.992 2.312v25.552c0 4.416-3.592 8-8 8h-8v-32h-16zm-130.992 176h-1.592c-6.296 0-11.416-5.12-11.416-11.416 0-1.768.416-3.528 1.208-5.112l18.304-36.616 25.104 9.416c-1.408 3.064-2.928 6.072-4.376 9.104L40.824 411.48a11.472 11.472 0 0 1-9.784 5.536zm-11.272 63.992c19.936-28.976 37.464-59.448 52.64-91.072l.48-.808-.08-.048c12.128-25.352 22.768-51.432 31.688-78.184l1.12-3.36-15.176-5.064-1.12 3.36c-5.968 17.912-12.776 35.488-20.232 52.776l-49.032-18.384 18.464-55.392a52.163 52.163 0 0 1 7.784-14.864c9.848-13.128 25.52-20.96 41.92-20.96h9.808v16c0 13.232 10.768 24 24 24h64c13.232 0 24-10.768 24-24v-16h24.624c7.328 0 14.16 3.28 18.744 9.008 15.136 18.92 33.336 34.864 54.04 47.488l-.744 3.528-41.08 41.072-44.816-38.408c-.672-1.96-1.4-3.896-2.056-5.864l-1.12-3.36-15.176 5.064 1.12 3.36c17.52 52.56 41.504 102.864 71.232 149.632l-.216 1.04a25.735 25.735 0 0 0-.552 5.28v4.496c0 3.424.704 6.68 1.92 9.664H19.768zm280.888-143.304l-3.936 18.688-7.376-7.376 11.312-11.312zm-68.416 4.888l34.208 29.328 11.584-11.584 14.752 14.752-13.216 62.8a664.038 664.038 0 0 1-47.328-95.296zm76.92 130.752c-.944 4.448-4.92 7.672-9.464 7.672-5.328 0-9.664-4.336-9.664-9.664v-4.496c0-.656.072-1.328.208-1.984l65.44-310.856c6.528 2.24 12.84 5.104 18.92 8.48l-65.44 310.848zm172.872-210.832c-16.376-31.896-59.328-103.464-123.04-124.208l16.64-79.024c25.552 9.352 106.4 46.488 106.4 141.736v61.496z"/><path d="M396.804 138.406l-15.743-2.86 8.718-47.998 15.742 2.86zm-266.772 54.61h16v16h-16zm32 0h16v16h-16z"/></svg>