<svg xmlns="http://www.w3.org/2000/svg" viewBox="0 0 496 496"><path d="M200 120h16v16h-16zm80 0h16v16h-16zm13.656 45.656l-11.312-11.312C282.208 154.48 268.448 168 248 168c-20.208 0-34.224-13.544-34.368-13.68l-11.288 11.336c.304.304 3.552 3.4 8.968 6.952l-9.968 14.952 13.312 8.872 11.08-16.616C232.152 182.2 239.56 184 248 184s15.848-1.8 22.264-4.184l11.08 16.616 13.312-8.872-9.968-14.952c5.416-3.552 8.664-6.648 8.968-6.952zM256 360h16v16h-16zm48 8h16v16h-16zm-88 8h16v16h-16zm-32-16h16v16h-16z"/><path d="M392 88v-8.168l-8.168.168c-13.328.28-24.328 2.064-33.368 4.592C356.424 76.592 360 66.72 360 56c0-26.472-21.528-48-48-48-10.08 0-19.64 3.104-27.68 8.864C275.296 6.288 262.072 0 248 0s-27.296 6.288-36.32 16.864C203.64 11.104 194.08 8 184 8c-26.472 0-48 21.528-48 48 0 10.72 3.576 20.592 9.536 28.592-9.04-2.528-20.032-4.304-33.368-4.592L104 79.832V88c0 .592.808 55.152 57.832 62.992C155.392 158.648 152 167.128 152 176c0 10.688 4.976 20.544 13.536 28.952l-4.92 1.408C136.704 213.184 120 235.328 120 260.2V340c0 15.44 12.56 28 28 28 .184 0 .352-.048.528-.056L130.216 400h27.896c3.56 0 6.896 1 9.888 2.608V496h72v-74.952c.64.296 1.288.544 1.92.856l5.712 2.856 8.368-3.344V496h72v-85.648c3.76-6.36 10.408-10.352 17.888-10.352h29.664l-23.176-32.44C365.728 365.44 376 353.936 376 340v-79.8c0-24.872-16.704-47.016-40.616-53.84l-4.92-1.408C339.024 196.544 344 186.688 344 176c0-8.872-3.392-17.352-9.832-25.008C391.192 143.152 392 88.592 392 88zM184 24c8.864 0 17.136 3.624 23.296 10.216l7.512 8.032 5.328-9.624C225.816 22.368 236.496 16 248 16c11.504 0 22.184 6.368 27.856 16.624l5.328 9.624 7.512-8.032C294.864 27.624 303.136 24 312 24c17.648 0 32 14.352 32 32s-14.352 32-32 32c-11.504 0-22.184-6.368-27.856-16.624l-5.328-9.624-7.512 8.032C265.136 76.376 256.864 80 248 80s-17.136-3.624-23.296-10.216l-7.512-8.032-5.328 9.624C206.184 81.632 195.504 88 184 88c-17.648 0-32-14.352-32-32s14.352-32 32-32zm64 240c-23.4 0-42.904-16.832-47.128-39.016C214.728 229.448 230.752 232 248 232s33.272-2.552 47.128-7.016C290.904 247.168 271.4 264 248 264zm8 24c0 4.416-3.592 8-8 8-4.408 0-8-3.584-8-8s3.592-8 8-8 8 3.584 8 8zm-8-72c-43.36 0-80-18.32-80-40 0-9.264 7.016-16.656 12.904-21.224l3.096-2.408V104c14.072 0 27.296-6.288 36.32-16.864 16.096 11.528 39.272 11.528 55.368 0C284.704 97.712 297.928 104 312 104v48.368l3.096 2.408C320.984 159.344 328 166.736 328 176c0 21.68-36.64 40-80 40zM121.064 96.48c30.392 2.584 43.248 14.128 46.936 18.256v20.888c-34.504-3.12-44.216-26.28-46.936-39.144zM224 480h-40v-63.752l1.944-.488c12.56-3.144 25.6-3.136 38.056-.24V480zm88 0h-40v-64h-.256c13.16-3.424 26.808-3.96 40.256-1.512V480zm4.184-81.04c-20.768-4.048-42-2.048-61.784 5.856l-6.04 2.424a97.183 97.183 0 0 0-60.528-8.256C180.944 389.608 170.04 384 158.112 384h-.328l22.856-40h135.24l28.592 40.024c-11.36.432-21.672 5.952-28.288 14.936zm14.808-177.208C348.072 226.624 360 242.44 360 260.2V340c0 6.616-5.384 12-12 12s-12-5.384-12-12v-84h-16v72H176v-72h-16v84c0 6.616-5.384 12-12 12s-12-5.384-12-12v-79.8c0-17.768 11.928-33.576 29.008-38.456l16.944-4.84c.704.384 1.424.76 2.144 1.136.864 27.072 18.576 49.912 43 58.384-1.912 3.448-3.096 7.36-3.096 11.576 0 13.232 10.768 24 24 24s24-10.768 24-24c0-4.216-1.184-8.128-3.104-11.576 24.424-8.472 42.144-31.312 43-58.384.728-.376 1.44-.752 2.152-1.136l16.944 4.848zM328 135.632v-20.896c3.688-4.136 16.56-15.688 47-18.256-2.624 12.872-12.216 36.056-47 39.152z"/></svg>