<svg xmlns="http://www.w3.org/2000/svg" viewBox="0 0 496 496"><path d="M424 352h-.888C433.52 341.824 440 327.664 440 312c0-30.872-25.12-56-56-56h-1.968c-2.216-8.536-6.032-26.344-6.032-48 0-10.464 3.608-19.48 7.432-29.032C387.64 168.44 392 157.536 392 144c0-31-12.736-49.144-20.328-57.192C367.6 82.48 361.888 80 356.008 80c-10.792 0-19.912 8.072-21.208 18.776-2.704 22.376-7.472 45.72-23.92 64.896a127.885 127.885 0 0 0-21.704 35.848A127.74 127.74 0 0 0 280 247.168V256h-80.656c.4-1.52.704-3.056 1.136-4.568l4.528-15.848c4.336-15.192 7.888-30.568 10.744-46.064l46.472-18.592-39.288-39.288c.328-5.136.6-10.272.776-15.424l40.472-30.352-45.688-18.28c-.648-1.888-1.296-3.768-2.056-5.608l9.352-56.096-48.44 9.688C161.896 5.768 143.624 0 124 0 68.856 0 24 44.856 24 100v18.232c0 12.52 1.744 24.984 5.184 37.04l2.984 10.448c4.584 16.04 12.912 30.448 24.344 42.28H56c0 30.08-7.536 59.984-21.8 86.472L13.176 333.52C4.552 349.52 0 367.592 0 385.776 0 446.552 49.448 496 110.224 496H424c39.696 0 72-32.296 72-72s-32.304-72-72-72zM231.816 90.144l-8.008 6.008c-.12-3.216-.384-6.4-.808-9.528l8.816 3.52zm-10.632 62.352l12.584 12.584-14.944 5.976a498.29 498.29 0 0 0 2.36-18.56zM296 247.168c0-14.352 2.704-28.384 8.032-41.704a112.016 112.016 0 0 1 19-31.376c19.272-22.48 24.792-49.712 27.656-73.392.504-4.168 6.328-6.112 9.336-2.92C365.992 104.112 376 118.528 376 144c0 10.464-3.608 19.48-7.432 29.032C364.36 183.56 360 194.464 360 208c0 20.424 3.104 37.632 5.544 48H296v-8.832zM384 272c22.056 0 40 17.944 40 40 0 16.384-9.92 30.456-24.048 36.64L368 316.688 332.688 352h-9.376L288 316.688 252.688 352H232c-2.096 0-4.112-.304-6.12-.616L233.76 312H192c0-13.448 1.352-26.816 3.784-40H384zm-3.312 80h-25.376L368 339.312 380.688 352zm-80 0h-25.376L288 339.312 300.688 352zm-86.448-24l-3.544 17.728c-6.712-4.256-12.088-10.392-15.304-17.728h18.848zM206.2 26.12l-2.328 13.968c-3.064-4.072-6.376-7.944-10.008-11.504L206.2 26.12zM61.632 271.128c13.904 9.992 30.272 15.752 47.584 16.64-2.784 8.064-6.024 15.96-9.84 23.584l-4.256 8.512c-17.296-.648-33.512-7.2-46.376-18.72a197.891 197.891 0 0 0 12.888-30.016zm4.736-16.504c2.696-11.128 4.48-22.48 5.216-33.928C82.84 228.024 96.112 232 109.616 232h4.776c1.8 0 3.6-.088 5.384-.232A196.513 196.513 0 0 1 113.912 272c-17.6-.008-34.24-6.152-47.544-17.376zm-39.112 86.472l13.704-25.44c13.32 10.944 29.344 17.68 46.432 19.664l-.4.8A66.573 66.573 0 0 0 80 365.752c0 .76.088 1.496.112 2.248h-6.176c-18.728 0-36.352-6.984-50.032-19.616 1.064-2.456 2.088-4.928 3.352-7.288zm44.432 130.568a94.765 94.765 0 0 1-39.128-32.648c5.08-.584 10.128-1.408 15.112-2.52l-3.504-15.616c-6.64 1.488-13.408 2.256-20.2 2.68C18.872 411.976 16 399.216 16 385.776c0-7.072.912-14.104 2.48-20.984C34.256 377.2 53.56 384 73.944 384h8.672a66.166 66.166 0 0 0 7.36 16.544c-9.448 6.632-19.672 12.024-30.576 15.928l5.4 15.056c12.568-4.496 24.32-10.76 35.16-18.48a66.256 66.256 0 0 0 25.152 15.424C115 448.04 97.72 462.984 76.6 470.024l-4.912 1.64zM149.08 480h-38.864c-4.736 0-9.36-.464-13.912-1.144 19.72-10.256 35.496-26.72 44.904-47.112 1.672.128 3.336.256 5.04.256h29.272c-2.128 18.736-11.672 36.088-26.44 48zm69.896 0h-47.16c11.168-13.584 18.072-30.36 19.704-48h40.008c-1.056 16.616-5.24 33.04-12.552 48zm73.544 0c1.944-4.592 3.736-9.248 5.192-14l-15.296-4.672c-1.952 6.384-4.472 12.656-7.416 18.672h-38.4c6.424-15.2 10.232-31.528 11.16-48h39.888c-.296 4.728-.76 9.44-1.576 14.088l15.76 2.76c.976-5.552 1.504-11.2 1.816-16.848H312c28.152 0 51.456 20.912 55.36 48h-74.84zM424 480h-40.472c-4-35.944-34.536-64-71.528-64H146.248C118.544 416 96 393.464 96 365.752c0-7.76 1.832-15.528 5.304-22.472l12.384-24.776c13.92-27.832 21.496-58.848 22.176-89.968 7.944-2.576 15.432-6.528 22.008-11.792C174.48 203.464 184 183.648 184 162.392h-16c0 16.376-7.336 31.632-20.128 41.864C138.416 211.832 126.52 216 114.384 216h-4.776c-12.136 0-24.024-4.168-33.496-11.752-13.824-11.056-23.696-25.896-28.568-42.92l-2.976-10.448A118.942 118.942 0 0 1 40 118.232V100c0-46.32 37.68-84 84-84 39.032 0 71.84 26.8 81.224 62.944l-.192.488.352.144C207.032 86.128 208 92.944 208 100c0 44.376-6.176 88.504-18.368 131.184l-4.528 15.848A236.307 236.307 0 0 0 176 312c0 30.872 25.12 56 56 56h192c30.88 0 56 25.128 56 56s-25.12 56-56 56z"/><path d="M160 64c-13.232 0-24 10.768-24 24s10.768 24 24 24 24-10.768 24-24-10.768-24-24-24zm0 32c-4.408 0-8-3.584-8-8s3.592-8 8-8 8 3.584 8 8-3.592 8-8 8zM80 64c-13.232 0-24 10.768-24 24s10.768 24 24 24 24-10.768 24-24-10.768-24-24-24zm0 32c-4.408 0-8-3.584-8-8s3.592-8 8-8 8 3.584 8 8-3.592 8-8 8z"/></svg>