<svg xmlns="http://www.w3.org/2000/svg" viewBox="0 0 496 496"><path d="M459.2 263.48L256 29.016V0h-16v29.008L36.8 263.48a19.627 19.627 0 0 0-4.8 12.864C32 287.176 40.824 296 51.656 296c25.744 0 49.728 11.528 65.808 31.632l9.288 11.608 21.264-17.008c12.6-10.08 27.984-16.248 43.984-17.808V344c0 22.28 13.112 41.504 32 50.52V440c0 30.872 25.128 56 56 56s56-25.128 56-56v-8c0-13.232-10.768-24-24-24s-24 10.768-24 24v8c0 4.416-3.584 8-8 8s-8-3.584-8-8v-45.48c18.888-9.008 32-28.24 32-50.52v-39.576c16 1.56 31.384 7.728 43.984 17.816l21.264 17 9.296-11.608C394.616 307.528 418.6 296 444.344 296c10.832 0 19.656-8.824 19.656-19.656 0-4.728-1.704-9.296-4.8-12.864zm-333.376 49.552C106.832 292.032 80.2 280 51.656 280A3.66 3.66 0 0 1 48 276.344c0-.872.312-1.728.888-2.384L227.92 67.384l-28.624 68.688C177.576 136.456 160 154.184 160 176c0 11.6 5.04 21.968 12.96 29.288l-47.136 107.744zM200 152c13.232 0 24 10.768 24 24s-10.768 24-24 24-24-10.768-24-24 10.768-24 24-24zm80 312c13.232 0 24-10.768 24-24v-8c0-4.416 3.584-8 8-8s8 3.584 8 8v8c0 22.056-17.944 40-40 40s-40-17.944-40-40v-40.64c2.624.376 5.28.64 8 .64 2.72 0 5.376-.264 8-.64V440c0 13.232 10.768 24 24 24zm8-120c0 19.312-13.768 35.472-32 39.192V304h-16v79.192c-18.232-3.72-32-19.872-32-39.192v-88h80v88zm16-55.656V240H192v48.344c-15.736 1.288-30.968 6.392-44.352 14.696l39.136-89.464c4.16 1.472 8.56 2.424 13.216 2.424 22.056 0 40-17.944 40-40 0-16.608-10.184-30.872-24.624-36.904L248 60.8l32.624 78.296C266.184 145.136 256 159.392 256 176c0 22.056 17.944 40 40 40 4.656 0 9.056-.952 13.208-2.416l39.144 89.464c-13.384-8.312-28.616-13.416-44.352-14.704zM296 152c13.232 0 24 10.768 24 24s-10.768 24-24 24-24-10.768-24-24 10.768-24 24-24zm148.344 128c-28.544 0-55.176 12.032-74.168 33.024L323.04 205.288C330.96 197.968 336 187.6 336 176c0-21.816-17.576-39.544-39.304-39.928l-28.624-68.696 179.04 206.584c.576.656.888 1.512.888 2.384a3.66 3.66 0 0 1-3.656 3.656z"/><path d="M288 168h16v16h-16zm-96 0h16v16h-16zm48 104h16v16h-16z"/></svg>