<svg xmlns="http://www.w3.org/2000/svg" viewBox="0 0 496 496"><path d="M248 0C155.368 0 80 75.368 80 168v203.312l24-24 16 16 16-16 8 8V496h87.064l16-128h1.872l16 128H352V355.312l8-8 16 16 16-16 24 24V168C416 75.368 340.632 0 248 0zm152 332.688l-8-8-16 16-16-16-8 8V160h-16v320h-56.936l-16-128h-30.128l-16 128H160V160h-16v172.688l-8-8-16 16-16-16-8 8V168c0-83.816 68.184-152 152-152s152 68.184 152 152v164.688z"/><path d="M312 96c0-13.232-10.768-24-24-24s-24 10.768-24 24 10.768 24 24 24 24-10.768 24-24zm-32 0c0-4.416 3.584-8 8-8s8 3.584 8 8-3.584 8-8 8-8-3.584-8-8zm-72-24c-13.232 0-24 10.768-24 24s10.768 24 24 24 24-10.768 24-24-10.768-24-24-24zm0 32c-4.416 0-8-3.584-8-8s3.584-8 8-8 8 3.584 8 8-3.584 8-8 8zm-32 72h16v16h-16zm112-8h16v16h-16zm-32 32h16v16h-16zm-64 40h16v16h-16zm-80-40h16v16h-16zm0 80h16v16h-16zm256-64h16v16h-16zm0 48h16v16h-16zm-72-24h16v16h-16zm-112 72h16v16h-16zm120-16h16v16h-16zm-104 72h16v16h-16zm80-24h16v16h-16zm8 88h16v16h-16zm-112 16h16v16h-16zm64-184h16v16h-16z"/></svg>