<svg xmlns="http://www.w3.org/2000/svg" viewBox="0 0 496 496"><path d="M452 408h-10.12c1.792-9.848 4.8-19.48 9.272-28.424 8.408-16.8 12.848-35.624 12.848-54.408v-2.816c0-35.536-27.832-65.296-62.04-66.328-21.072-.544-40.84 9.344-53.2 25.88-1.536-1.296-3.144-2.496-4.76-3.656V248.68c0-40.08-32.6-72.68-72.672-72.68a47.276 47.276 0 0 1-24.344-6.744C232.808 160.752 224 145.2 224 128.68V112C224 50.24 173.76 0 112 0S0 50.24 0 112v6.312c0 35.216 9.312 69.392 26.904 99.656C15.544 225.12 8 237.688 8 251.752V332c0 14.064 10.464 25.632 24 27.592V496h54.864l14.608-94.968C102.28 395.8 106.704 392 112 392s9.72 3.8 10.528 9.032L137.136 496H192v-64h95.192l18.824 64H376v-44.112l1.896 3.04C393.976 480.648 421.672 496 452 496c24.264 0 44-19.744 44-44s-19.736-44-44-44zM36 344c-6.616 0-12-5.384-12-12v-80.248c0-11.864 8.856-22.08 20.608-23.752l25.712-3.68L96.456 240H64c-13.232 0-24 10.768-24 24v16c0 7.064 3.128 13.36 8 17.76V332c0 6.616-5.384 12-12 12zm76-144c-35.288 0-64-28.712-64-64v-24h128v24c0 35.288-28.712 64-64 64zm32 9.272v2.2l-32 19.2-32-19.2v-2.2c9.808 4.304 20.624 6.728 32 6.728 11.376 0 22.192-2.424 32-6.728zM160 256c4.408 0 8 3.584 8 8v16c0 4.416-3.592 8-8 8H64c-4.408 0-8-3.584-8-8v-16c0-4.416 3.592-8 8-8h96zm16 224h-25.136l-12.52-81.408C136.328 385.504 125.248 376 112 376s-24.328 9.504-26.336 22.592L73.136 480H48V357.192c8.264-3.96 14.232-11.808 15.592-21.192H80v-16H64v-16h96v16H96v16h64.408c1.36 9.384 7.328 17.232 15.592 21.192V480zm12-136c-6.616 0-12-5.384-12-12v-34.24c4.872-4.392 8-10.696 8-17.76v-16c0-13.232-10.768-24-24-24h-32.456l26.128-15.68 25.72 3.68C191.144 229.672 200 239.88 200 251.752V332c0 6.616-5.384 12-12 12zm172 32v104h-42.016l-38.312-130.256-15.352 4.512L282.488 416H192v-56.408c13.536-1.96 24-13.528 24-27.592v-52h16v-16h-16v-12.248c0-19.776-14.768-36.8-34.336-39.592L160 209.064V200h-.208C179.296 185.4 192 162.184 192 136V80h-16v16h-24V80h-16v16H88V80H72v16H48V80H32v56c0 26.184 12.704 49.4 32.208 64H64v9.064l-21.656 3.096c-.072.008-.136.04-.208.048C25.08 183.832 16 151.576 16 118.312V112c0-52.936 43.064-96 96-96s96 43.064 96 96v16.68c0 22.112 11.784 42.912 30.744 54.296A63.335 63.335 0 0 0 271.328 192C302.576 192 328 217.432 328 248.68v20.76a76.163 76.163 0 0 0-28.288-5.44H248v16h51.712c16.104 0 31.24 6.272 42.632 17.656C353.728 309.048 360 324.176 360 340.28V376zm92 104c-24.776 0-47.408-12.544-60.536-33.544l-3.04-4.872A81.657 81.657 0 0 1 376 398.264V340.28c0-17.152-5.68-33.4-16.056-46.712 9.08-13.752 24.696-22.088 41.536-21.544 25.656.768 46.52 23.344 46.52 50.328v2.816c0 16.32-3.856 32.664-11.16 47.256-8.4 16.8-12.84 35.624-12.84 54.408V448h16v-21.168c0-.944.144-1.888.168-2.832H452c15.44 0 28 12.56 28 28s-12.56 28-28 28z"/><path d="M320 320h16v16h-16zm-40-24h16v16h-16zm-48 32h16v16h-16zm-88 48h16v16h-16zm-40-24h16v16h-16zm-40 24h16v16H64zm248 16h16v16h-16zm-104-8h16v16h-16zm-64-256h16v16h-16zm-80 0h16v16H64zm40 40h16v16h-16z"/></svg>