<svg xmlns="http://www.w3.org/2000/svg" viewBox="0 0 496 496"><path d="M288 96h16v16h-16zm-96 0h16v16h-16z"/><path d="M369.464 164.128l-31.664-7.92c2.296-3.928 4.4-7.976 6.176-12.208H344v-.064c5.136-12.304 8-25.792 8-39.936s-2.864-27.632-8-39.936V64h-.024C328.272 26.456 291.176 0 248 0s-80.272 26.456-95.976 64H152v.064c-5.136 12.304-8 25.792-8 39.936s2.864 27.632 8 39.936V144h.024c1.536 3.664 3.296 7.2 5.224 10.64l-32.192 8.784C93.816 171.944 72 200.504 72 232.88V352h64v144h96V384c0-8.824 7.176-16 16-16s16 7.176 16 16v112h96V352h64V233.968a71.868 71.868 0 0 0-54.536-69.84zM283.68 23.632c18.4 8.2 33.448 22.512 42.608 40.368h-18.976l-32-32 8.368-8.368zM284.688 64h-41.376L264 43.312 284.688 64zM248 16c6.408 0 12.632.728 18.656 2.032L240 44.688l-22.96-22.96C226.688 18.088 237.096 16 248 16zm-46.12 13.192L228.688 56l-8 8h-50.976c7.36-14.336 18.528-26.36 32.168-34.808zM163.408 80h169.176C334.76 87.64 336 95.672 336 104s-1.24 16.36-3.408 24H224v16h102.288c-14.6 28.448-44.168 48-78.288 48s-63.688-19.552-78.288-48H208v-16h-44.592c-2.168-7.64-3.408-15.672-3.408-24s1.24-16.36 3.408-24zM88 275.312L112.688 300 88 324.688v-49.376zM136 336H99.312L124 311.312l12 12V336zm80 92.68l-19.512 19.512 11.312 11.312 8.2-8.192V480h-28.688l9.728-9.728-11.312-11.312-21.04 21.04H152v-68.688l36-36 28 28v25.368zm-64-39.992v-49.376L176.688 364 152 388.688zM344 480h-64v-12.688l52-52 12 12V480zm64-144h-48v-28.688l48-48V336zm.008-99.312l-48 48V248h-16v68.688L333.68 306.36l-11.312 11.312L344 339.312v65.376l-190.48-190.48-11.312 11.312L320.688 404 280 444.688V384c0-17.648-14.352-32-32-32-16.616 0-30.152 12.776-31.696 28.992L152 316.688V248h-16v52.688l-48-48V232.88c0-16.576 7.448-31.76 19.4-42.168l24 24 11.312-11.312-21.584-21.584c2.608-1.168 5.304-2.192 8.128-2.968l37.416-10.208c9.624 12.08 21.888 21.92 35.904 28.76l-.24.24 109.84 109.84 11.312-11.312L295.312 268l58.512-58.512-11.312-11.312L284 256.688l-49.696-49.696c4.496.592 9.04 1.008 13.696 1.008 32.184 0 60.992-14.704 80.088-37.736l33.872 8.464-8.136 8.136 11.312 11.312 13.352-13.352c17.816 9.584 29.52 28.144 29.52 49.144v2.72z"/></svg>