<svg xmlns="http://www.w3.org/2000/svg" viewBox="0 0 496 496"><path d="M388.44 465.344c-27.296-18.2-47.936-61.576-56.264-95.744l38.552 46.616 4.56-13.68a319.212 319.212 0 0 0 16.408-101.128V283.24a77.581 77.581 0 0 0-10.736-39.36c-3.6-6.104-7.984-11.584-12.968-16.4V120c0-66.168-53.832-120-120-120S128 53.832 128 120v107.48c-4.984 4.816-9.376 10.296-12.976 16.4a77.653 77.653 0 0 0-10.728 39.36v18.168c0 34.44 5.52 68.464 16.408 101.128l4.56 13.68 38.552-46.616c-8.328 34.168-28.96 77.544-56.264 95.744l-5.872 3.92 3.16 6.32C105.888 477.664 116.32 496 160 496c21.136 0 32.424-6.184 43.344-12.168C214.456 477.752 224.952 472 248 472s33.544 5.752 44.656 11.832C303.576 489.816 314.864 496 336 496c43.68 0 54.112-18.336 55.16-20.424l3.16-6.32-5.88-3.912zM144.008 120C144 62.656 190.656 16 248 16s104 46.656 104 104v95.648c-5.16-2.88-10.64-5.256-16.44-6.92l-23.928-6.864c-.96-5.52-4.016-10.28-8.32-13.504C323.224 172.208 336 147.576 336 120V88h-30.056c-19.312 0-37.616-10.224-51.544-28.8l-6.4-8.536-6.4 8.536C227.672 77.776 209.368 88 190.056 88H160v32c0 27.576 12.776 52.208 32.696 68.352-4.304 3.232-7.36 7.992-8.32 13.504l-23.928 6.864c-5.8 1.664-11.28 4.04-16.44 6.92V120zM248 192c-39.696 0-72-32.304-72-72v-16h14.056c21.184 0 41.856-9.904 57.944-27.48C264.088 94.096 284.76 104 305.944 104H320v16c0 39.696-32.304 72-72 72zm48 13.544v36.912c0 3.512-3.512 6.224-6.912 5.368L256 227.52v-7.04l33.08-20.304c3.416-.856 6.92 1.848 6.92 5.368zm-56 14.936v7.048l-33.088 20.304c-3.408.848-6.912-1.864-6.912-5.376v-36.912a5.552 5.552 0 0 1 5.544-5.544c.464 0 .928.056 1.376.168L240 220.48zm-80 73.288v55.352l-28.408 34.344a302.922 302.922 0 0 1-11.296-82.064v-18.168A61.6 61.6 0 0 1 128.808 252c8.032-13.632 20.832-23.536 36.04-27.896L184 218.616v23.84c0 11.88 9.664 21.544 21.544 21.544 2.592 0 5.136-.464 7.56-1.376l34.864-21.256 33.544 20.584 1.368.664a21.38 21.38 0 0 0 7.576 1.384c11.88 0 21.544-9.664 21.544-21.544v-23.84l19.144 5.488c15.208 4.36 28.008 14.264 36.04 27.896a61.53 61.53 0 0 1 8.52 31.232V301.4c0 27.824-3.792 55.36-11.296 82.064L336 349.12v-55.352l18.528-6.176-5.064-15.176L320 282.232V296h-16.752c-11.368-19.536-32.432-32-55.248-32s-43.88 12.456-55.248 32H176v-13.768l-29.472-9.824-5.064 15.176L160 293.768zM224 312c8.824 0 16 7.176 16 16s-7.176 16-16 16h-48v-32h48zm-11.736-16c8.992-9.984 21.968-16 35.736-16 13.776 0 26.752 6.016 35.744 16H272c-9.6 0-18.128 4.336-24 11.056-5.872-6.72-14.4-11.056-24-11.056h-11.736zM224 360c9.6 0 18.128-4.336 24-11.056 5.872 6.72 14.4 11.056 24 11.056h11.736c-8.992 9.984-21.968 16-35.736 16-13.776 0-26.752-6.016-35.736-16H224zm48-16c-8.824 0-16-7.176-16-16s7.176-16 16-16h48v32h-48zm64 136c-17.04 0-25.664-4.728-35.664-10.192C288.528 463.336 275.144 456 248 456s-40.528 7.336-52.336 13.808C185.664 475.272 177.04 480 160 480c-19.456 0-30.144-4-35.656-7.304 28-23.6 48.056-67.608 55.984-103.28l2.088-9.416h10.336c11.368 19.536 32.432 32 55.248 32 22.816 0 43.88-12.456 55.248-32h10.336l2.096 9.416c7.92 35.664 27.968 79.648 55.952 103.256C366.072 476.024 355.384 480 336 480z"/><path d="M288 112h16v16h-16zm-96 0h16v16h-16zm56 56c-13.232 0-24-10.768-24-24h-16c0 22.056 17.944 40 40 40s40-17.944 40-40h-16c0 13.232-10.768 24-24 24z"/></svg>