<svg xmlns="http://www.w3.org/2000/svg" viewBox="0 0 496 496"><path d="M329.24 104h16v16h-16zm-80 0h16v16h-16zm24 64h48v16h-48z"/><path d="M464.264 275.72l-74.056-74.064c.384-.904.84-1.768 1.152-2.72a36.559 36.559 0 0 0 1.88-11.584v-39.8c9.52-5.552 16-15.76 16-27.552V88c0-48.52-39.48-88-88-88h-48c-48.52 0-88 39.48-88 88v32c0 11.792 6.48 22 16 27.552v14.496l-46.672 14a88.429 88.429 0 0 0-41.216 26.64 116.787 116.787 0 0 0-38.336-30.744l-52.256-26.12 7.28 43.608c7.408 44.464 31.28 83.448 67.2 110.424V352c0 79.4 64.6 144 144 144s144-64.6 144-144v-68.688l35.72 35.72c5.784 5.784 13.472 8.968 21.648 8.968 16.896 0 30.632-13.744 30.632-30.624 0-8.192-3.184-15.872-8.976-21.656zm-79.328-141.784c.136-1.968.304-3.928.304-5.936v-21.776c4.76 2.776 8 7.88 8 13.776 0 6.016-3.376 11.208-8.304 13.936zM201.24 88c0-39.704 32.304-72 72-72h48c39.696 0 72 32.296 72 72v4.448a31.44 31.44 0 0 0-8-3.312V72h-30.056c-19.752 0-38.328-7.688-52.288-21.656l-5.656-5.656-5.656 5.656C277.616 64.312 259.048 72 239.296 72H209.24v17.136a31.73 31.73 0 0 0-8 3.312V88zm96 112c-16.408 0-31.504-5.576-43.624-14.856L270.184 152h54.112l16.568 33.144C328.744 194.424 313.648 200 297.24 200zm15.608 14.528c-.912 14.816-4.728 29.456-11.528 42.664-1.4 2.736-6.76 2.744-8.168-.008-6.792-13.2-10.608-27.84-11.52-42.656 5.072.92 10.272 1.472 15.608 1.472s10.536-.552 15.608-1.472zM269.624 240h-1.072a19.182 19.182 0 0 1-13.656-5.656 19.196 19.196 0 0 1-5.656-13.656v-19.024c5.04 3.296 10.44 6.056 16.12 8.272.16 10.152 1.632 20.256 4.264 30.064zm59.496-30.072c5.68-2.216 11.08-4.976 16.12-8.272v19.024c0 5.16-2.008 10.008-5.664 13.656-3.64 3.656-8.488 5.664-13.648 5.664h-1.072c2.632-9.808 4.104-19.912 4.264-30.072zm9.488-65.088c-2.728-5.448-8.208-8.84-14.312-8.84h-54.112c-6.104 0-11.584 3.392-14.312 8.84l-14.344 28.696C231.36 161.12 225.24 145.264 225.24 128V88h14.056c21.448 0 41.752-7.456 57.944-21.144C313.432 80.544 333.736 88 355.184 88h14.056v40c0 17.264-6.12 33.12-16.288 45.536l-14.344-28.696zM233.24 188.216v19.2c-6.896-1.6-12.632-6.6-14.944-13.528a20.63 20.63 0 0 1-1.056-6.536v-18.28l.808-2.952a88.277 88.277 0 0 0 15.192 22.096zm128-.008a88.16 88.16 0 0 0 16-23.768v22.904c0 2.224-.352 4.424-1.056 6.528-2.312 6.928-8.048 11.936-14.944 13.528v-19.192zm-152-81.984V128c0 2.008.168 3.968.304 5.936-4.928-2.728-8.304-7.92-8.304-13.936 0-5.896 3.24-11 8-13.776zm-112 170.192v3.024c-27.296-23.976-45.376-56.32-51.424-92.632l-2.096-12.632 24.144 12.08a100.847 100.847 0 0 1 38.72 34.176l6.656 9.992 6.656-9.984c9.28-13.928 23.232-24.248 39.272-29.064l38.56-11.568-2.104 7.704c-9.656 35.408-29.8 67.176-57.368 91.128l-.248-3.616c-.728-10.672-9.672-19.024-20.36-19.024-11.248 0-20.408 9.16-20.408 20.416zm100 75.584c2.632 0 5.136-.48 7.552-1.168-5.76 10.192-16.568 17.168-29.088 17.168-17.416 0-32.104-13.6-33.432-30.896l-2.68-39.056c10.84-8.352 20.784-17.712 29.648-28.008V324c0 15.44 12.56 28 28 28zm172 0c0 70.576-57.424 128-128 128s-128-57.424-128-128v-75.584a4.413 4.413 0 0 1 4.408-4.416 4.426 4.426 0 0 1 4.4 4.112l4.264 62.16C128.288 363.904 149.984 384 175.704 384c27.312 0 49.536-22.224 49.536-49.536v-9.52l7.8 3.896c19.824 9.92 42.024 15.16 64.2 15.16 22.176 0 44.376-5.24 64.2-15.16l7.8-3.896V352zm73.368-40c-3.904 0-7.584-1.52-10.344-4.28l-63.024-63.032v62.368l-14.96 7.48c-35.224 17.624-78.856 17.624-114.088 0l-14.952-7.48V240h-16v84c0 6.616-5.384 12-12 12s-12-5.384-12-12v-75.312c8.688-13.304 15.88-27.576 21.24-42.64a36.474 36.474 0 0 0 27.048 17.608c.696 8.296 4.096 16.04 10.048 22 6.672 6.672 15.536 10.344 24.976 10.344h6.624c1.208 2.856 2.328 5.752 3.752 8.504 3.464 6.744 10.48 10.928 18.32 10.928s14.856-4.184 18.312-10.92c1.416-2.76 2.544-5.656 3.752-8.512h6.624c9.44 0 18.304-3.672 24.976-10.344 5.952-5.96 9.352-13.704 10.048-22a36.498 36.498 0 0 0 19.784-8.848l72.224 72.224a14.765 14.765 0 0 1 4.272 10.344c0 8.064-6.56 14.624-14.632 14.624z"/><path d="M241.24 272h16v16h-16zm96 0h16v16h-16zm-96 120c8.472 0 16.336-3.864 22.16-10.896l-12.32-10.2c-5.456 6.576-14.224 6.576-19.68 0l-12.32 10.2c5.824 7.032 13.688 10.896 22.16 10.896zm78.16-21.104l-12.32 10.2c5.824 7.04 13.688 10.904 22.16 10.904s16.336-3.864 22.16-10.896l-12.32-10.2c-5.456 6.576-14.224 6.576-19.68-.008zm-48 40l-12.32 10.2c5.824 7.04 13.688 10.904 22.16 10.904s16.336-3.864 22.16-10.896l-12.32-10.2c-5.456 6.576-14.224 6.576-19.68-.008zm-104-8l-12.32 10.2c5.824 7.04 13.688 10.904 22.16 10.904s16.336-3.864 22.16-10.896l-12.32-10.2c-5.456 6.576-14.224 6.576-19.68-.008zm48 40l-12.32 10.2c5.824 7.04 13.688 10.904 22.16 10.904s16.336-3.864 22.16-10.896l-12.32-10.2c-5.456 6.576-14.224 6.576-19.68-.008z"/></svg>