<svg xmlns="http://www.w3.org/2000/svg" viewBox="0 0 496 496"><path d="M272 120h16v16h-16zm-64 0h16v16h-16z"/><path d="M463.32 416h27.992l-19.64-19.64C458.544 383.224 441.088 376 422.52 376a69.924 69.924 0 0 0-31.088 7.336l-4.704 2.352c-6.72 3.376-14.752 3.36-21.472 0-8.168-4.096-13.256-12.32-13.256-21.464 0-13.952-1.392-27.96-4.128-41.624l-2.016-10.104c29.696 5.344 57.864 15.864 83.752 31.4l22.488 13.488c2.952 1.776 6.208 2.664 9.48 2.664 3.112 0 6.216-.816 9.08-2.424 5.84-3.32 9.344-9.312 9.344-16.048 0-6.176-3.072-11.904-8.808-15.728A34.063 34.063 0 0 1 456 297.456c0-9.12 3.552-17.688 10-24.144L483.312 256l-17.704-17.712c-6.192-6.192-9.608-14.424-9.608-23.184 0-11.456 6.104-22.232 15.92-28.128l15.232-9.136c5.456-3.28 8.848-9.264 8.848-15.624 0-10.048-8.168-18.216-18.216-18.216-42.064 0-82.512 12.752-116.984 36.872l-26.16 18.312c-3.072-1.216-6.264-2.208-9.68-2.632L296 192.936v-3.424c11-9.88 18.968-23.048 22.264-37.984 20.096-2.264 37.392-15.136 45.048-34.272L371.824 96H347.68C355.312 87.496 360 76.304 360 64c0-27.84-23.56-50.568-52.168-47.8C298.76 5.976 285.696 0 272 0c-8.464 0-16.656 2.256-24 6.568C240.656 2.256 232.464 0 224 0c-13.696 0-26.76 5.976-35.832 16.2A43.237 43.237 0 0 0 184 16c-26.472 0-48 21.528-48 48 0 12.304 4.688 23.496 12.32 32h-24.144l8.504 21.264c7.656 19.128 24.952 32.008 45.048 34.272 3.304 14.936 11.264 28.104 22.264 37.984v3.424l-28.96 3.624c-3.408.424-6.608 1.408-9.68 2.632l-26.16-18.312C100.736 156.752 60.28 144 18.216 144 8.168 144 0 152.168 0 162.216c0 6.36 3.392 12.344 8.84 15.624l15.232 9.136C33.896 192.864 40 203.648 40 215.104c0 8.76-3.416 17-9.608 23.192L12.688 256 30 273.312c6.448 6.456 10 15.024 10 24.144 0 11.44-5.68 22.056-15.792 28.8A18.363 18.363 0 0 0 16 341.576c0 6.736 3.504 12.728 9.352 16.048 2.856 1.608 5.976 2.424 9.088 2.424 3.256 0 6.512-.888 9.472-2.664L66.4 343.896c25.888-15.536 54.056-26.056 83.752-31.4l-2.016 10.104A211.904 211.904 0 0 0 144 364.224c0 9.144-5.088 17.368-13.264 21.464-6.72 3.376-14.752 3.36-21.472 0l-4.704-2.352A69.916 69.916 0 0 0 73.48 376c-18.56 0-36.024 7.224-49.152 20.36L4.688 416H32.68c13.808 0 27.36 3.76 39.2 10.856 1.912 1.152 3.952 2.032 5.936 3.032-24.384 7.944-45.824 23.688-60.48 45.664l-11.48 17.216 74.512-18.632c18.4-4.584 38.28-1.624 54.496 8.112l9.6 5.76A56.068 56.068 0 0 0 173.296 496H176c17.184 0 34.232-5.68 48.008-16 13.736-10.312 34.24-10.312 47.992 0 13.768 10.32 30.816 16 48 16h2.704a56.016 56.016 0 0 0 28.816-7.984l9.6-5.76c16.224-9.736 36.112-12.696 54.496-8.112l74.512 18.632-11.48-17.216c-14.648-21.976-36.088-37.72-60.48-45.664 1.984-1 4.024-1.888 5.936-3.032A76.304 76.304 0 0 1 463.32 416zm-93.352-222.016C401.736 171.752 439.016 160 477.784 160a2.216 2.216 0 0 1 1.136 4.12l-15.232 9.136C449.08 182.024 440 198.056 440 215.104c0 13.032 5.08 25.288 14.296 34.504l6.392 6.392-6 6C445.216 271.472 440 284.064 440 297.456c0 16.8 8.344 32.392 22.928 42.112a2.408 2.408 0 0 1 1.072 2.008c0 1.232-.776 1.856-1.232 2.12-.464.248-1.368.6-2.44-.032l-22.488-13.488c-24.984-14.992-51.952-25.648-80.328-31.744 1.544-3.168 2.488-6.68 2.488-10.432v-16h3.16c17.28 0 34.024 5.072 48.408 14.656l8.872-13.312C403.416 262 383.608 256 363.16 256H360v-19.472l8.68-5.208a107.757 107.757 0 0 1 26.752-11.464l-4.248-15.424a123.126 123.126 0 0 0-30.736 13.168l-4.04 2.424a40.156 40.156 0 0 0-7.528-11.28l21.088-14.76zm-230.376 26.048l-4.04-2.424A123.508 123.508 0 0 0 72 200v16c19.488 0 38.616 5.304 55.32 15.328l8.68 5.2V256h-3.16c-9.12 0-18.2 1.208-27.008 3.592l4.184 15.44A87.632 87.632 0 0 1 132.84 272H136v16c0 3.752.944 7.264 2.488 10.432-28.376 6.104-55.352 16.76-80.328 31.744l-22.488 13.488c-1.08.632-1.984.28-2.44.032-.456-.256-1.232-.88-1.232-2.12 0-.816.4-1.56 1.68-2.416A50.031 50.031 0 0 0 56 297.456c0-13.392-5.216-25.984-14.688-35.456l-6-6 6.392-6.392C50.92 240.392 56 228.136 56 215.104c0-17.04-9.08-33.08-23.688-41.848L17.08 164.12a2.216 2.216 0 0 1 1.136-4.12c38.768 0 76.048 11.752 107.816 33.984l21.088 14.768c-3.128 3.288-5.656 7.096-7.528 11.28zM348.168 112c-5.088 12.088-15.672 20.512-28.168 23.088V112h28.168zM176 135.088c-12.496-2.576-23.08-11-28.168-23.088H176v23.088zM152 64c0-17.648 14.352-32 32-32 1.888 0 3.872.2 6.056.624l5.016.96 2.984-4.152C204.088 21.016 213.792 16 224 16c6.856 0 13.496 2.272 19.176 6.56L248 26.2l4.824-3.64C258.504 18.272 265.144 16 272 16c10.208 0 19.912 5.016 25.944 13.424l2.984 4.152 5.016-.96C308.128 32.2 310.112 32 312 32c17.648 0 32 14.352 32 32s-14.352 32-32 32c-10.208 0-19.912-5.016-25.944-13.424l-2.984-4.152-5.016.96c-2.184.416-4.168.616-6.056.616-6.856 0-13.496-2.272-19.176-6.56L248 69.8l-4.824 3.64C237.496 77.728 230.856 80 224 80c-1.888 0-3.872-.2-6.056-.624l-5.016-.96-2.984 4.152C203.912 90.984 194.208 96 184 96c-17.648 0-32-14.352-32-32zm40 72v-24.752c10.688-1.84 20.552-7.248 27.832-15.448 10.136.968 19.64-1.352 28.168-6.368 8.536 5.016 18.064 7.336 28.168 6.368 7.28 8.2 17.144 13.608 27.832 15.448V136c0 30.88-25.128 56-56 56s-56-25.12-56-56zm-40 100.248c0-12.08 9.04-22.32 21.024-23.816L216 207.064V200.4c9.656 4.816 20.496 7.6 32 7.6 11.504 0 22.344-2.776 32-7.6v6.656l42.976 5.368C334.96 213.928 344 224.168 344 236.248V288c0 4.416-3.584 8-8 8h-72c-4.416 0-8-3.584-8-8s3.584-8 8-8h64v-15.64c0-22.256-18.104-40.36-40.36-40.36a40.542 40.542 0 0 0-18.056 4.264L248 239.056l-21.584-10.792A40.567 40.567 0 0 0 208.36 224c-22.256 0-40.36 18.104-40.36 40.36V280h64c4.416 0 8 3.584 8 8s-3.584 8-8 8h-72c-4.416 0-8-3.584-8-8v-51.752zm96 33.88A23.896 23.896 0 0 0 232 264h-48c.192-13.264 11.048-24 24.36-24 3.768 0 7.528.888 10.896 2.576L248 256.944l28.744-14.368A24.413 24.413 0 0 1 287.64 240c13.312 0 24.168 10.736 24.36 24h-48a23.896 23.896 0 0 0-16 6.128zM376 440h6.312c25.296 0 49.216 9.504 67.408 26.176l-30.224-7.544c-22.48-5.64-46.784-1.992-66.608 9.904l-9.6 5.76A40.006 40.006 0 0 1 322.704 480H320c-13.752 0-27.392-4.544-38.4-12.8-19.248-14.456-47.96-14.456-67.192 0C203.392 475.456 189.752 480 176 480h-2.704c-7.24 0-14.36-1.968-20.576-5.704l-9.6-5.76c-19.832-11.896-44.144-15.544-66.608-9.904l-30.224 7.544C64.472 449.504 88.392 440 113.688 440H144v-16h-24.68a76.273 76.273 0 0 1-39.2-10.856 92.22 92.22 0 0 0-35.888-12.416c15.512-10.096 36.488-11.416 53.176-3.08l4.704 2.352c11.2 5.608 24.576 5.608 35.784 0C151.528 393.168 160 379.472 160 364.224c0-12.896 1.28-25.848 3.816-38.488L166.56 312H232c6.144 0 11.752-2.32 16-6.128A23.896 23.896 0 0 0 264 312h65.44l2.744 13.744a195.963 195.963 0 0 1 3.816 38.48c0 15.24 8.472 28.944 22.112 35.776 11.2 5.608 24.576 5.608 35.784 0l4.704-2.352c16.704-8.336 37.672-7.016 53.176 3.08a92.22 92.22 0 0 0-35.888 12.416A76.323 76.323 0 0 1 376.68 424H352v16h24z"/><path d="M97.832 279.336l-6.392-14.672a103.149 103.149 0 0 0-15.88 8.68l8.872 13.312a87.612 87.612 0 0 1 13.4-7.32zM424 216v-16c-5.384 0-10.832.36-16.176 1.064l2.096 15.856c4.656-.608 9.392-.92 14.08-.92zm-184-56h16v16h-16z"/></svg>