<svg xmlns="http://www.w3.org/2000/svg" viewBox="0 0 496 496"><path d="M280 160h16v16h-16zm-80 0h16v16h-16zm40 32h16v16h-16z"/><path d="M477.064 382.248l-9.096-5.192c-36.384-20.8-68.832-47.328-96.416-78.856l-1.136-1.296.896-.904H392v-8c0-28.2-16.336-52.6-40.008-64.408C372.696 199.136 384 168.576 384 136c0-20.016-4.296-39.296-12.776-57.4L441.96 0H248c-74.992 0-136 61.008-136 136 0 32.576 11.296 63.136 32.008 87.592C120.336 235.4 104 259.8 104 288v8h20.688l.896.896-1.136 1.296c-27.584 31.528-60.032 58.064-96.416 78.856l-9.096 5.192 16.784 16.784c14.304 14.304 32.8 22.856 52.72 24.6-.272 3.52-.44 7.048-.44 10.576V496h320v-61.8c0-3.536-.168-7.056-.432-10.568 19.912-1.744 38.416-10.296 52.72-24.6l16.776-16.784zM375.432 280H288c-4.416 0-8-3.584-8-8v-29.6c7.44-2.64 14.48-6.104 20.952-10.4H320c28.168 0 51.536 20.896 55.432 48zM248 232c-44.112 0-80-35.888-80-80 0-2.632.144-5.28.44-8h21.624c21.448 0 41.744-7.456 57.936-21.144C264.192 136.544 284.496 144 305.936 144h21.624c.296 2.72.44 5.368.44 8 0 44.112-35.888 80-80 80zm16 14.552V264h-40v-19.16c7.688 1.992 15.696 3.16 24 3.16 5.464 0 10.784-.568 16-1.448zM222.528 280h42.952c3.312 9.288 12.112 16 22.528 16h12.688l-37.376 37.376c-1.272 1.272-2.36 2.704-3.328 4.208a48.466 48.466 0 0 0-23.976 0c-.96-1.512-2.048-2.936-3.328-4.208L195.312 296H200c10.416 0 19.216-6.712 22.528-16zm-1.152 64.688a9.028 9.028 0 0 1 2.624 6.344c0 4.944-4.024 8.968-8.968 8.968a9.028 9.028 0 0 1-6.344-2.624l-61.208-61.208.152-.168h25.056l48.688 48.688zM216 392v-8c0-2.824.488-5.544 1.2-8.216 12.008-1.056 21.52-10.56 22.584-22.568a32.167 32.167 0 0 1 16.44 0c1.064 12.008 10.576 21.512 22.584 22.568.704 2.664 1.192 5.392 1.192 8.216v8h-64zm64 16c0 17.648-14.352 32-32 32s-32-14.352-32-32h64zm-8-56.968c0-2.36.952-4.672 2.624-6.344L323.312 296h25.056l.152.168-61.208 61.208a9.028 9.028 0 0 1-6.344 2.624c-4.944 0-8.968-4.024-8.968-8.968zM128 136c0-66.168 53.832-120 120-120h158.04l-54.032 60.032 2.544 4.912C363.48 98.192 368 116.712 368 136c0 30.792-11.52 59.488-32.36 81.76-5.04-1.12-10.264-1.76-15.64-1.76h-.648C334.624 198.992 344 176.6 344 152c0-5.664-.536-11.376-1.656-17.448l-1.2-6.552h-35.2c-19.752 0-38.312-7.688-52.28-21.656L248 100.688l-5.656 5.656C228.376 120.312 209.816 128 190.064 128h-35.2l-1.2 6.552C152.536 140.624 152 146.336 152 152c0 24.6 9.376 46.992 24.648 64H176c-5.376 0-10.6.64-15.64 1.76C139.512 195.496 128 166.792 128 136zm-7.432 144c3.896-27.104 27.264-48 55.432-48h19.048c4.096 2.72 8.448 5.08 12.952 7.16V272c0 4.416-3.584 8-8 8h-79.432zM90.616 407.744c-16.464-1.264-31.784-8.224-43.584-20.024l-2.072-2.072a391.141 391.141 0 0 0 91.528-76.92l.432-.488 11.224 11.224-10.512 8.76c-21.368 17.816-36.696 41.352-44.328 68.08-1.08 3.776-1.936 7.6-2.688 11.44zM392 480H104v-45.8c0-11.344 1.576-22.616 4.696-33.504 6.744-23.624 20.296-44.44 39.184-60.176l11.632-9.688 37.864 37.864c1.272 1.272 2.696 2.36 4.2 3.32C200.568 375.904 200 379.904 200 384v24c0 26.472 21.528 48 48 48s48-21.528 48-48v-24c0-4.096-.568-8.096-1.576-11.992 1.504-.96 2.928-2.048 4.2-3.32l37.864-37.864 11.632 9.688c18.888 15.744 32.448 36.552 39.184 60.184A121.549 121.549 0 0 1 392 434.2V480zm56.968-92.28c-11.8 11.8-27.12 18.76-43.592 20.016-.752-3.84-1.608-7.664-2.688-11.432-7.632-26.736-22.96-50.272-44.328-68.088l-10.512-8.76 11.224-11.224.432.488c26.48 30.256 57.224 56.096 91.528 76.92l-2.064 2.08z"/><path d="M304 32h16v16h-16zm-56 16h40V32h-40c-37.008 0-71.52 19.92-90.08 51.992l13.84 8.016C187.472 64.864 216.68 48 248 48z"/></svg>