<svg xmlns="http://www.w3.org/2000/svg" viewBox="0 0 496 496"><path d="M448.388 56a40.105 40.105 0 0 0-13.096-29.6c-8.312-7.56-19.608-11.304-30.808-10.216-20.24 1.936-36.096 20.024-36.096 41.192V112c0 7.088 1.88 13.896 5.488 20-3.608 6.104-5.488 12.912-5.488 20 0 8.528 2.824 16.864 8 23.792v17.704a68.137 68.137 0 0 0-30.568-13.368l-18.128-3.024c.416-2.992.696-6.024.696-9.104v-4.944L310.268 154c.208-.888.432-1.768.608-2.664 14.544-3.008 25.512-15.912 25.512-31.336v-16c0-57.344-46.656-104-104-104s-104 46.656-104 104v24c0 15.736 11.44 28.784 26.424 31.44l-18.424 12.28V176c0 .408.048.808.056 1.216l-17.488 2.912c-17.44 2.904-32.888 12.296-43.504 26.44a68.635 68.635 0 0 0-13.088 32.016L47.612 349.256l64.872 24.328c-3.744 26.096-8.736 52.016-15.136 77.616L86.14 496h292.496l-11.208-44.808c-6.4-25.592-11.392-51.512-15.136-77.616l24.096-9.032V464c0 17.648 14.352 32 32 32s32-14.352 32-32V175.792c5.176-6.928 8-15.264 8-23.792 0-7.088-1.88-13.896-5.488-20 3.608-6.104 5.488-12.912 5.488-20V56zM323.62 192.648l19.576 3.264c4.8.8 9.384 2.264 13.688 4.28l-16.496 16.496-19.056-19.056c.824-1.632 1.608-3.288 2.288-4.984zM329.076 228l-12.688 12.688L299.7 224l9.376-9.376c1.112-1.112 2.128-2.296 3.152-3.472L329.076 228zm-24 24l-12.688 12.688L275.7 248l12.688-12.688L305.076 252zm7.312-118.224v-27.544c4.76 2.776 8 7.88 8 13.776s-3.24 10.992-8 13.768zm-168-5.776c0-5.896 3.24-11 8-13.776V136c0 2.008.152 3.968.304 5.936-4.928-2.728-8.304-7.92-8.304-13.936zm8-43.16v12.288a31.482 31.482 0 0 0-7.816 3.216C146.508 53.528 185.1 16 232.388 16c44.424 0 81.168 33.12 87.072 75.944a31.983 31.983 0 0 0-7.072-2.816V84.84c0-24.72-20.12-44.84-44.84-44.84a44.737 44.737 0 0 0-24.872 7.528l-10.288 6.856-10.28-6.856A44.762 44.762 0 0 0 197.228 40c-24.72 0-44.84 20.12-44.84 44.84zM258.972 136h-53.168c-6.584 0-12.416 3.952-15.032 10.552l-9.184 28.216c-8.248-10.776-13.2-24.192-13.2-38.768V84.84c0-15.904 12.936-28.84 28.84-28.84 5.712 0 11.24 1.672 16 4.84l19.16 12.776 19.16-12.768a28.702 28.702 0 0 1 16-4.848c15.904 0 28.84 12.936 28.84 28.84V136c0 14.584-4.96 28-13.2 38.768l-9.36-28.712c-2.44-6.104-8.272-10.056-14.856-10.056zm11.48 51.328c-10.656 7.92-23.8 12.672-38.064 12.672s-27.416-4.752-38.064-12.672L205.804 152l52.984-.496 11.664 35.824zm-108.488-13.424C175.492 198.944 201.98 216 232.388 216c32.232 0 60-19.2 72.656-46.728l7.112 3.552c-1.104 11.52-6.12 22.2-14.4 30.488l-57.368 57.376c-4.28 4.264-11.72 4.264-16 0l-63.032-63.032c-4.808-4.808-7.824-10.928-8.696-17.552l9.304-6.2zM189.076 248l-16.688 16.688L159.7 252l16.688-16.688L189.076 248zm-24-24l-16.688 16.688L135.7 228l16.688-16.688L165.076 224zm-43.496-28.088l17.992-3a46.169 46.169 0 0 0 2.752 5.832l-17.936 17.944-16.496-16.496a52.73 52.73 0 0 1 13.688-4.28zM192.388 480h-85.752l6.232-24.928A788.538 788.538 0 0 0 136.388 264h-16c0 31.192-1.912 62.376-5.68 93.32l-49.544-18.584 13.072-98.04a52.5 52.5 0 0 1 10.024-24.528c1.864-2.48 3.936-4.744 6.16-6.832l97.968 97.976V480zM183.7 276l16.688-16.688L213.076 272l-16.688 16.688L183.7 276zm72.688 204h-33.576l6.016-4.008-8.88-13.312-11.56 7.704v-59.072l35.448 35.448-14.416 9.608 8.872 13.312 18.096-12.064V480zm0-43.312L220.94 401.24l35.448-23.632v59.08zm0-80l-16.624-16.624-11.312 11.312 15.384 15.384-35.448 23.632V331.32l10.328 10.328 11.312-11.312-2.616-2.616c1.648.168 3.312.28 4.976.28 8.472 0 16.784-2.416 24-6.736v35.424zm-2.344-53.656c-5.704 5.704-13.592 8.968-21.656 8.968-8.064 0-15.952-3.264-21.656-8.968L207.7 300l20.416-20.416c1.408.216 2.824.416 4.272.416s2.864-.2 4.272-.416L257.076 300l-3.032 3.032zM251.7 272l12.688-12.688L281.076 276l-12.688 12.688L251.7 272zm124.688 75.448l-26.32 9.872a772.304 772.304 0 0 1-5.68-93.32h-16c0 64.352 7.912 128.64 23.52 191.072L358.14 480h-85.752V307.312l97.976-97.976a52.503 52.503 0 0 1 6.024 6.664v131.448zm48 116.552c0 8.824-7.176 16-16 16s-16-7.176-16-16V212.128l.496-.304c-.152-.248-.344-.488-.496-.736V184h32v280zm1.976-296.304l-.264.304h-35.424l-.264-.304c-2.752-3.136-6.024-8.416-6.024-15.696 0-5.4 1.872-10.576 5.432-14.976l.824-1.024h35.48l.832 1.024c3.56 4.4 5.432 9.576 5.432 14.976 0 7.28-3.272 12.56-6.024 15.696zM432.388 112c0 2.752-.496 5.44-1.448 8h-45.112a23.05 23.05 0 0 1-1.44-8V57.376c0-13.008 9.504-24.104 21.616-25.264.808-.08 1.6-.112 2.4-.112 6 0 11.656 2.168 16.128 6.24A24.054 24.054 0 0 1 432.388 56v56z"/><path d="M216.388 168h32v16h-32zm-32-72h16v16h-16zm80 0h16v16h-16z"/></svg>