<svg xmlns="http://www.w3.org/2000/svg" viewBox="0 0 501.928 501.928"><path d="M386.968 197.928c0-17.648-14.352-32-32-32v-32c0-36.848-17.944-70.696-48-91.688V0l-34.792 20.296-21.208-16.504-21.208 16.496L194.968 0v42.232c-30.064 20.992-48.008 54.84-48.008 91.696v32c-17.648 0-32 14.352-32 32 0 15.456 11.016 28.384 25.608 31.352-6.24 9.792-9.6 21.024-9.6 32.648a60.716 60.716 0 0 0 10.216 33.752l5.784 8.672v49.576c0 15.44 12.56 28 28 28 4.312 0 8.352-1.064 12-2.808v18.808h8v104h112v-104h8V379.12c3.648 1.744 7.688 2.808 12 2.808 15.44 0 28-12.56 28-28v-49.576l5.784-8.672a60.716 60.716 0 0 0 10.216-33.752c0-11.624-3.36-22.864-9.592-32.648 14.584-2.976 25.592-15.904 25.592-31.352zm-176-170.072L231.04 39.56l19.928-15.496 19.928 15.504 20.072-11.712v26.072h-80V27.856zm-24 322.072v4c0 6.616-5.384 12-12 12s-12-5.384-12-12v-44h24v40zm56 136h-32v-88h32v88zm48 0h-32v-88h32v88zm8-104h-96v-24h96v24zm-96-40v-16h24v16h-24zm40 0v-16h16v16h-16zm56 0h-24v-16h24v16zm40 12c0 6.616-5.384 12-12 12s-12-5.384-12-12v-44h24v44zm8.472-67.128l-4.752 7.128h-27.72v-16h-16v32h-96v-32h-16v16h-27.72l-4.752-7.128c-4.92-7.384-7.528-15.992-7.528-24.872s2.608-17.488 7.528-24.872l4.752-7.128h52.528c3.72 18.232 19.872 32 39.192 32s35.472-13.768 39.192-32h52.528l4.752 7.128c4.92 7.384 7.528 15.992 7.528 24.872s-2.608 17.488-7.528 24.872zm-96.472-72.872c-30.88 0-56-25.12-56-56v-32h35.312l20.688-20.688 20.688 20.688h35.312v32c0 30.88-25.12 56-56 56zm23.6 11.944c-1.896 11.352-11.72 20.056-23.6 20.056s-21.704-8.704-23.6-20.056c7.408 2.584 15.328 4.056 23.6 4.056 8.272 0 16.192-1.472 23.6-4.056zm80.4-11.944H296.12c16.352-13.208 26.848-33.392 26.848-56v-32c0-8.824-7.176-16-16-16H278.28l-27.312-27.312-27.312 27.312h-28.688c-8.824 0-16 7.176-16 16v32c0 22.608 10.496 42.792 26.848 56H146.96c-8.824 0-16-7.176-16-16s7.176-16 16-16h16v-48c0-27.648 11.808-53.32 32.008-71.384v7.384h112v-7.376c20.192 18.064 32 43.728 32 71.376v48h16c8.824 0 16 7.176 16 16s-7.176 16-16 16z"/><path d="M298.968 245.928h16v16h-16zm-112 0h16v16h-16zm88-104h16v16h-16zm-64 0h16v16h-16zm32 40h16v16h-16z"/></svg>