<svg xmlns="http://www.w3.org/2000/svg" viewBox="0 0 496.002 496.002"><path d="M279.997 72.001h16v16h-16zm-80 0h16v16h-16zm48 91.312l35.312-35.312-35.312-35.312-35.312 35.312 35.312 35.312zm12.688-35.312l-12.688 12.688-12.688-12.688 12.688-12.688 12.688 12.688z"/><path d="M495.941 187.145l.056-6.256c.312-34.952-13.752-69.208-38.576-93.976l-.76-.76c-14.432-14.4-34.488-22.336-54.84-22.144l-1.2.016c-27.224.432-52.816 10.888-72.616 29.352v-.536c0-18.248-4.776-35.984-13.856-51.672l.192-.192c8.808-8.808 13.656-20.52 13.656-32.976v-8h-72c-48.52 0-88 39.48-88 88v5.528c-19.8-18.56-45.44-29.064-72.704-29.504l-1.2-.016c-20.448-.328-40.376 7.744-54.8 22.152l-.752.752C13.733 111.689-.315 145.945.005 181.105l.048 6.056c.16 20.808 6.352 40.96 17.92 58.28 9.272 13.88 14.168 30.048 14.168 46.736 0 17.688-2.832 35.152-8.432 51.904l-13.768 41.24 37.544-21.424c8.088-4.616 15.24-10.376 21.544-16.88 6.792 12.432 19.832 20.984 34.968 20.984 12.128 0 24.024-4.168 33.488-11.744l3.384-2.712-7.408 19.768 8.336 2.384c1.136.32 14.864 4.192 34.2 8.08v112.224h64V391.849c2.68.088 5.352.152 8 .152s5.32-.064 8-.152v104.152h64V383.777c13.976-2.808 24.976-5.592 30.44-7.056l84.32 50.232 31.688-52.808 19.6 11.168-13.776-41.24a163.51 163.51 0 0 1-8.44-51.896c0-16.688 4.904-32.84 14.184-46.728 11.568-17.336 17.776-37.488 17.928-58.304zM183.997 88.001c0-39.696 32.304-72 72-72h54.952c-1.376 5.12-4.072 9.808-7.92 13.656l-9.32 9.32 3.64 5.456a87.038 87.038 0 0 1 14.648 48.408v92.208l-16-10.664-24 16-24-16-24 16-24-16-16 10.664V88.001zm16 105.616l24 16 24-16 24 16 24-16 32 21.336v-36.344l17.976 5.136c14.304 4.088 25.088 15.664 28.16 30.224l10.8 51.288-29.368 5.872-11.784-49-7.784 1.872-7.952-.88-7.016 63.16-137.32-81.808 16.288-10.856zm188.232 87.296l11.48 54.528c.192.92.288 1.872.288 2.824 0 7.568-6.168 13.736-14.176 13.736-6.52 0-12.192-4.648-13.536-11.344l-12.976-53.96 28.92-5.784zm-41.848 20.48l-10.176-6.072-.064-.184 2.76-24.848 7.48 31.104zm-218.888 42.368a37.781 37.781 0 0 1-23.496 8.24c-11.616 0-21.328-8.304-23.52-19.28 7.184-11.016 12.208-23.464 14.44-36.832a86.736 86.736 0 0 0 1.168-14.168v-33.44h-16v33.44c0 3.856-.32 7.744-.952 11.536-2.136 12.808-7.328 24.624-14.848 34.744h-.288c0 .112.032.216.032.328-6.528 8.688-14.744 16.128-24.48 21.68l-1.184.672.512-1.536a179.43 179.43 0 0 0 9.256-56.968c0-19.864-5.832-39.096-16.864-55.616-9.824-14.72-15.088-31.84-15.224-49.504l-.048-6.304c-.28-30.68 12.064-60.76 33.848-82.52l.752-.752c11.376-11.36 27.296-17.688 43.224-17.472l1.2.016c24.28.384 47.096 10.04 64.264 27.184l8.712 8.696v45.848l-21.584 5.392c-4.232 1.056-8.256 2.616-12.064 4.584-5.448-20.528-24.128-35.728-46.352-35.728-26.472 0-48 21.528-48 48s21.528 48 48 48c5.616 0 10.984-1.024 16-2.8v58.8c0 13.232 10.768 24 24 24h28.456l-4.6 12.272-24.36 19.488zm40.504-165.512v16.864l-19.672-11.72c.672-.208 1.28-.552 1.968-.72l17.704-4.424zm-48 5.752c0 17.648-14.352 32-32 32s-32-14.352-32-32 14.352-32 32-32 32 14.352 32 32zm92 88c6.616 0 12 5.384 12 12s-5.384 12-12 12h-84c-4.408 0-8-3.584-8-8v-48.56l27.792 16.56h-3.792v16h68zm12 208h-32v-16h32v16zm0-32h-32v-61.272c10.072 1.688 20.952 3.168 32 4.128v57.144zm80 32h-32v-16h32v16zm0-32h-32v-57.144c11.048-.96 21.928-2.44 32-4.128v61.272zm-56-72c-35.528 0-76.184-9.16-93.4-13.488l18.944-50.512h38.456c6.984 0 13.296-2.664 18.208-6.904l100.632 59.952c-20.192 4.616-53.232 10.952-82.84 10.952zm181.24 29.048L238.813 291.601c.696-2.432 1.184-4.952 1.184-7.6 0-15.44-12.56-28-28-28h-32.944l-59.816-35.632c7.816-6.728 13.456-15.896 15.688-26.336l33.072 19.704v1.216l.96-.64 153.944 91.712.16.488.416-.136 28.128 16.76 5.04 20.968c2.776 13.848 15.032 23.904 29.6 23.904 9.136 0 17.216-4.224 22.672-10.72l36.08 21.488-15.76 26.272zm-13.824-72.392a95.853 95.853 0 0 0 18.32 20.768l-18.176-10.824c.216-1.424.44-2.848.44-4.336 0-1.88-.232-3.76-.584-5.608zm32.408-40.488c0 19.4 3.12 38.568 9.264 56.968l.512 1.544-1.2-.688c-21.168-12.064-35.616-32.752-39.624-56.744a70.986 70.986 0 0 1-.96-11.544v-33.44h-16v10.056l-10.032-47.664c-4.288-20.376-19.392-36.592-39.416-42.312l-22.368-6.376v-46.24l8.536-8.512c17.184-17.144 40.032-26.8 64.336-27.184l1.2-.016c16.096-.304 31.896 6.112 43.272 17.464l.76.76c21.808 21.76 34.16 51.832 33.88 82.72l-.048 6.08a90.117 90.117 0 0 1-15.24 49.512c-11.032 16.528-16.872 35.76-16.872 55.616z"/><path d="M73.229 120.113c5.256-5.264 12.416-8.4 19.968-8.112l1.336.024c11.416.176 22.48 3.504 31.984 9.624l8.656-13.464c-12.024-7.728-25.992-11.936-40.368-12.168l-1.36-.016c-11.616-.088-23.24 4.504-31.504 12.776l-.744.728 11.248 11.376.784-.768zM148 118.534l11.047 11.04-11.311 11.32-11.048-11.04zm199.837-.005l-11.064 11.04 11.304 11.328 11.064-11.04c10.608-10.592 24.728-16.888 39.76-17.744l-.904-15.976c-18.952 1.08-36.768 9.032-50.16 22.392zm69.432-20l-5.128 15.16c4.168 1.408 7.768 3.608 10.696 6.528l.664.664 11.312-11.312-.672-.672c-4.688-4.68-10.368-8.168-16.872-10.368z"/></svg>