<svg xmlns="http://www.w3.org/2000/svg" viewBox="0 0 502.928 502.928"><path d="M433.712 312.064V262.72c9.656-7.312 16-18.784 16-31.792 0-22.056-17.944-40-40-40s-40 17.944-40 40c0 13.016 6.344 24.488 16 31.792v28.84c-26.824-10.224-51.592-24.704-73.752-43.168l-4.616-3.848c9.032-12.952 14.368-28.664 14.368-45.616h9.304c16.776 0 32.536-6.528 44.4-18.392a62.49 62.49 0 0 0 13.904-21.08l16.208-40.528h-19.816c-5.36 0-10.696.448-16 1.128v-8.048c0-7.992-3.112-15.504-8.768-21.16-3.752-3.752-5.04-9.208-3.36-14.248l7.224-21.672h-11.096c-15.376 0-29.952 5.224-41.688 14.84a86.96 86.96 0 0 0-12.968-31.248l-8.104-12.152-23.448 23.448c-11.208-17.872-27.312-32.592-46.216-42.04L205.728 0l4.216 16.872a81.24 81.24 0 0 1-2.592 47.792c-3.664-5.152-5.64-11.288-5.64-17.736V27.616L186.688 42.64c-12.408 12.4-20.512 27.96-23.592 44.856-5.984-6.664-9.384-15.376-9.384-24.568V43.616l-13.656 13.656c-16.792 16.792-26.096 39.064-26.304 62.784-5.32-.68-10.664-1.128-16.04-1.128H77.896l16.208 40.528a62.253 62.253 0 0 0 13.904 21.08c11.864 11.864 27.624 18.392 44.4 18.392h9.304c0 16.144 4.84 31.16 13.096 43.744L155.8 250.28a55.94 55.94 0 0 0-24.776 19.448 418.654 418.654 0 0 1-72.496 78.112l-13.312 11.088 18.496 15.424c21.528 17.928 47.976 28.912 75.664 31.768-5.096 15.232-11.456 30.048-19.168 44.192l-18.312 33.56 9.616 2.752c2.336.664 57.912 16.304 130.2 16.304s127.864-15.64 130.2-16.304l9.616-2.752-18.312-33.56c-17.552-32.176-28.48-67.728-32.136-104.12 15.208 19.304 33.872 35.92 54.632 49.016v83.72c0 13.232 10.768 24 24 24s24-10.768 24-24V373.792c13.76-3.576 24-15.992 24-30.864s-10.24-27.288-24-30.864zM381.872 135l-7.416 18.52a46.535 46.535 0 0 1-10.352 15.704c-8.84 8.84-20.584 13.704-33.088 13.704h-9.304V155.12c17.624-12.264 38.696-19.368 60.16-20.12zM161.72 182.928h-9.312c-12.496 0-24.248-4.864-33.088-13.704a46.489 46.489 0 0 1-10.352-15.712l-7.408-18.52c21.464.752 42.528 7.856 60.16 20.12v27.816zm7.784-41.848c-12.144-8.216-25.632-14.328-39.792-18v-2.208c0-14.168 3.96-27.72 11.344-39.408a52.806 52.806 0 0 0 20.184 25.432l16.472 10.984v-14.952c0-13.808 4.016-27 11.488-38.24a46.374 46.374 0 0 0 10.168 15.208l12.528 12.528 6.216-12.416a97.157 97.157 0 0 0 10.072-49.344c12.76 9.328 23.28 21.664 30.36 35.84l4.968 9.928 24.824-24.824c6.152 10.752 9.376 22.856 9.376 35.32v19.312L318.4 85.552c6.656-6.648 14.848-11.192 23.784-13.296-3.256 10.624-.432 22.016 7.456 29.904a13.829 13.829 0 0 1 4.08 9.84v11.08c-14.16 3.672-27.648 9.784-39.792 18l-31.712-23.784-40.504 24.304-40.496-24.304-31.712 23.784zm72.208 121.848c-35.288 0-64-28.712-64-64v-44l24.496-18.368 39.504 23.696 39.504-23.696 24.496 18.368v44c0 35.288-28.712 64-64 64zm23.552 12.456c-2.096 11.104-11.84 19.544-23.552 19.544s-21.456-8.44-23.552-19.544c7.448 2.296 15.36 3.544 23.552 3.544s16.104-1.248 23.552-3.544zm120.448 100.704c-20.064-14.152-37.624-32.024-51.216-52.408l-20.784-31.176v26.424c0 48.44 12.256 96.512 35.456 139.04l8.576 15.72c-17.952 4.184-58.864 12.336-108.032 13.16v-143.92h-16v143.92c-49.168-.824-90.08-8.968-108.024-13.16l8.576-15.72c23.192-42.528 35.448-90.6 35.448-139.04h-16c0 24.2-3.328 48.288-9.624 71.576-25.656-2-50.256-11.896-70.128-28.456l-3.752-3.12a434.085 434.085 0 0 0 73.84-79.904 39.973 39.973 0 0 1 17.696-13.888l23.648-9.456c4.856 4.824 10.36 8.976 16.32 12.432v2.816c0 19.312 13.768 35.472 32 39.192v16.808h16V310.12c18.232-3.72 32-19.872 32-39.192v-2.824a80.55 80.55 0 0 0 15.208-11.424l4.8 4c25.072 20.896 53.328 36.936 83.992 47.864v67.544zm32 102.84c0 4.416-3.592 8-8 8-4.408 0-8-3.584-8-8V270.12a39.963 39.963 0 0 0 16 0v208.808zm-8-224c-13.232 0-24-10.768-24-24s10.768-24 24-24 24 10.768 24 24-10.768 24-24 24zm24 101.776v-27.552c4.76 2.776 8 7.88 8 13.776s-3.24 11-8 13.776z"/><path d="M193.712 166.928h16v16h-16zm80 0h16v16h-16zm.944 36.232c-.28.48-7.032 11.768-32.944 11.768s-32.664-11.288-32.944-11.768l-14.216 7.344c.432.864 2.464 4.48 7.16 8.44v19.984h16v-11.44c6.32 2.04 14.168 3.44 24 3.44s17.68-1.4 24-3.44v11.44h16v-19.984c4.696-3.952 6.728-7.576 7.16-8.44l-14.216-7.344z"/></svg>