<svg xmlns="http://www.w3.org/2000/svg" viewBox="0 0 496 496"><path d="M290.355 138.343l11.313 11.314-15.997 15.997-11.314-11.313zm-84.699.001l15.998 15.998-11.314 11.313-15.997-15.997zM264 205.792V216h16v-16.552c8.32-4.6 13.272-9.408 13.656-9.792l-11.312-11.312C282.2 178.48 268.456 192 248 192c-20.208 0-34.224-13.544-34.368-13.68l-11.288 11.336c.384.384 5.336 5.192 13.656 9.792V216h16v-10.208c4.888 1.288 10.184 2.208 16 2.208 5.816 0 11.112-.92 16-2.208z"/><path d="M480.528 157.624L494.944 136H480a152.436 152.436 0 0 0-78.416 21.72c-31.064 18.64-56.992 45.12-74.976 76.584l-3.368 5.904c-1.392-.12-2.792-.208-4.208-.208H296v-4.992c28.648-16.632 48-47.568 48-83.008 0-4.168-.36-8.24-.872-12.264l2.216-3.328A36.777 36.777 0 0 1 376 120h8v-8c0-14.472 3.424-28.952 9.888-41.888l12.28-24.584-18.84 3.136c-13.904 2.32-27.184 6.616-39.648 12.552 5.752-16.064 5.768-33.912-.752-50.2A17.47 17.47 0 0 0 330.648 0c-9.672 0-17.544 7.864-17.544 17.536 0 11.832-5.296 22.856-14.528 30.248l-17.68 14.144C270.608 58.16 259.568 56 248 56c-11.28 0-22.064 2.056-32.128 5.648l-17.328-13.864C189.296 40.392 184 29.368 184 17.536 184 7.864 176.136 0 166.464 0c-7.216 0-13.616 4.328-16.288 11.024-6.592 16.488-6.496 34.592-.52 50.816-12.848-6.272-26.584-10.768-40.976-13.168l-18.84-3.136 12.28 24.584C108.576 83.048 112 97.528 112 112v8h8a36.777 36.777 0 0 1 30.656 16.408l2.216 3.328C152.36 143.76 152 147.832 152 152c0 35.44 19.352 66.384 48 83.008V240h-23.032c-1.416 0-2.816.088-4.208.208l-3.368-5.904c-17.984-31.464-43.912-57.952-74.976-76.584A152.436 152.436 0 0 0 16 136H1.056l14.416 21.624c14.008 21.016 14.664 48.6 1.672 70.256l-3.592 5.992 7.968 6.384C43.432 257.792 56 283.936 56 312v8h8c23.04 0 44.712 10.152 59.464 27.848l4.536 5.448V368c0 17.648 14.352 32 32 32 5.856 0 11.272-1.696 16-4.448v7.048c-10.6 4.144-37.408 13.864-66.072 18.648 1.24-4.296 2.072-8.696 2.072-13.248 0-17.648-14.352-32-32-32s-32 14.352-32 32 14.352 32 32 32c.176 0 .352-.016.528-.016C70.784 450.68 58.192 459.936 48 466.28V448H32v48h48v-16H56.152c13.2-8.168 33.592-22.8 45.752-41.432C131.688 435 160.68 425.448 176 419.744V496h144V395.552c4.728 2.752 10.144 4.448 16 4.448 17.648 0 32-14.352 32-32v-14.704l4.536-5.448C387.288 330.152 408.96 320 432 320h8v-8c0-28.064 12.568-54.208 34.488-71.744l7.968-6.384-3.592-5.992c-13-21.656-12.344-49.232 1.664-70.256zM80 424c-8.824 0-16-7.176-16-16s7.176-16 16-16 16 7.176 16 16-7.176 16-16 16zM377.608 67.104a110.596 110.596 0 0 0-9.352 37.464c-11.4 1.68-21.872 7.072-29.92 15.272a95.826 95.826 0 0 0-13.352-24.944c.76-.656 1.552-1.272 2.328-1.912l.024.024.096-.128c14.736-12.104 31.728-20.888 50.176-25.776zm-69.04-6.824c13.048-10.44 20.528-26.016 20.528-42.736 0-1.48 2.432-1.944 2.976-.568 7.32 18.304 4.216 39.232-8.104 54.632l-7.936 9.92c-.536.448-1.08.88-1.608 1.336a96.411 96.411 0 0 0-17.48-13.288l11.624-9.296zM248 72c29.096 0 54.544 15.664 68.544 38.96l-38.368-16.448L248 124.688l-30.168-30.176-38.368 16.448C193.456 87.664 218.904 72 248 72zm-82.968-55.04c.552-1.36 2.968-.896 2.968.576 0 16.72 7.488 32.296 20.536 42.736l11.136 8.912a96.587 96.587 0 0 0-17.776 13.376L173.12 71.6c-12.304-15.4-15.408-36.328-8.088-54.64zm-37.288 87.608a110.235 110.235 0 0 0-9.36-37.464c19.472 5.152 37.352 14.616 52.632 27.792a95.588 95.588 0 0 0-13.352 24.944c-8.048-8.2-18.52-13.592-29.92-15.272zM168 152c0-6.856.96-13.48 2.592-19.84l43.584-18.672L248 147.312l33.832-33.824 43.584 18.672C327.04 138.52 328 145.144 328 152c0 44.112-35.888 80-80 80s-80-35.888-80-80zm-81.824 19.44c13.608 8.168 26.112 18.008 37.312 29.152-39.288 2.064-67.4 9.656-84.312 15.896 6-21.176 3.44-44.28-7.832-63.616a136.229 136.229 0 0 1 54.832 18.568zM128 288.968v40.496c-14.352-13.536-32.528-22.088-52.072-24.592l3.96-8.904a190.829 190.829 0 0 1 8.4-16.656l-13.92-7.888c-2.2 3.88-4.24 7.888-6.2 11.928-5.136-18.752-15.376-35.728-29.696-49.336 13.616-5.632 40.688-14.456 80.976-17.168-13.952 12-26.328 25.656-36.712 41.072L96 266.856c12.208-18.128 27.368-33.648 44.848-46.584 5.352 6.976 10.28 14.304 14.664 21.968l1.232 2.16c-5.28 2.4-10.168 5.712-14.392 9.936C133.096 263.6 128 275.896 128 288.968zM352 368c0 8.824-7.176 16-16 16s-16-7.176-16-16v-80h-16v192h-48v-92.688l21.656-21.656-11.312-11.312L248 372.688l-18.344-18.344-11.312 11.312L240 387.312V480h-48V288h-16v80c0 8.824-7.176 16-16 16s-16-7.176-16-16v-79.032c0-8.672 3.52-17.168 9.656-23.312 6.224-6.224 14.504-9.656 23.312-9.656H216v-13.6c10.024 3.56 20.768 5.6 32 5.6s21.976-2.04 32-5.6V256h39.032c8.816 0 17.088 3.432 23.312 9.656 6.136 6.144 9.656 14.64 9.656 23.312V368zm16-38.536v-40.496c0-13.072-5.096-25.368-14.344-34.624-4.224-4.224-9.104-7.536-14.392-9.936l1.232-2.16c4.408-7.704 9.352-15.056 14.744-22.064 26.464 19.6 47.448 45.584 60.872 75.792l3.96 8.904c-19.544 2.496-37.72 11.048-52.072 24.584zm88.84-112.936a207.817 207.817 0 0 0-12.472-4.168l-4.608 15.32c7.416 2.224 13.312 4.432 17.816 6.312-14.376 13.632-24.632 30.664-29.76 49.472-12.344-25.536-29.68-48.128-51.04-66.544 16.512 1.104 32.296 3.24 47.008 6.568l3.528-15.6c-17.112-3.88-35.464-6.32-54.76-7.336 11.192-11.128 23.672-20.952 37.272-29.112a136.433 136.433 0 0 1 54.832-18.568c-11.28 19.352-13.832 42.464-7.816 63.656z"/></svg>