<svg xmlns="http://www.w3.org/2000/svg" viewBox="0 0 496 496"><path d="M414.648 80c-19.488 0-38.744 3.272-57.032 9.52C347.096 38.352 301.464 0 248 0c-53.848 0-99.056 37.36-109.624 89.52C120.088 83.272 100.84 80 81.352 80H64l29.376 39.168a45.23 45.23 0 0 1 5.816 10.336C108.536 152.888 130.848 168 156.04 168h10.072c3.976 10.128 9.768 19.32 16.984 27.224l-12.424 2.488c-9.176 1.832-17.976 5.776-25.456 11.384C129.432 220.928 120 239.784 120 259.512V296h8v44c0 11.24 6.696 20.88 16.272 25.336l-3.96 6.6 8.72 3.488c.672.272 7.504 2.936 18.968 6.056V496h72V391.864c2.64.072 5.28.136 8 .136 2.72 0 5.36-.064 8-.136V496h72V381.48c11.464-3.112 18.296-5.784 18.968-6.056l8.72-3.488-3.96-6.6C361.304 360.88 368 351.24 368 340v-44h8v-36.488c0-19.736-9.432-38.584-25.208-50.424a63.537 63.537 0 0 0-25.464-11.384l-12.424-2.488c7.216-7.904 13.016-17.096 16.984-27.224h10.072c25.184 0 47.504-15.112 56.848-38.496a44.895 44.895 0 0 1 5.816-10.336L432 80h-17.352zM156.04 152c-18.608 0-35.088-11.16-41.992-28.44a61.24 61.24 0 0 0-7.872-14l-9.632-12.84c22.28 2.12 43.896 8.936 63.464 19.952V136c0 5.472.568 10.8 1.528 16h-5.496zM168 336v4c0 6.616-5.384 12-12 12s-12-5.384-12-12v-44h24v40zm56 144h-40v-16h40v16zm0-32h-40v-62.672c11.208 2.36 24.752 4.512 40 5.696V448zm88 32h-40v-16h40v16zm0-32h-40v-56.968c15.248-1.192 28.792-3.336 40-5.696V448zm-64-72c-34.992 0-63.672-6.488-79.552-11.056 9.176-4.6 15.552-14 15.552-24.944v-4h33.136c3.576 13.76 15.992 24 30.864 24s27.288-10.24 30.864-24H312v4c0 10.944 6.376 20.344 15.552 24.944C311.672 369.512 282.992 376 248 376zm-16-48c0-8.824 7.176-16 16-16s16 7.176 16 16-7.176 16-16 16-16-7.176-16-16zm120 12c0 6.616-5.384 12-12 12s-12-5.384-12-12v-44h24v44zm-29.8-126.6a47.327 47.327 0 0 1 18.984 8.488C352.968 230.72 360 244.792 360 259.512V280h-32v-32h-16v72h-33.136c-3.576-13.76-15.992-24-30.864-24s-27.288 10.24-30.864 24H184v-72h-16v32h-32v-20.488c0-14.728 7.032-28.792 18.824-37.632a47.386 47.386 0 0 1 18.992-8.496l24.432-4.888c3.112 2.144 6.376 4.04 9.76 5.776V216c0 22.056 17.944 40 40 40s40-17.944 40-40v-1.712c3.376-1.736 6.648-3.64 9.76-5.776L322.2 213.4zm-97.72 7.312C231.976 222.8 239.84 224 248 224s16.024-1.2 23.52-3.288C269.328 231.696 259.624 240 248 240c-11.624 0-21.328-8.304-23.52-19.288zM320 136c0 39.696-32.296 72-72 72s-72-32.304-72-72V98.248l3.768 3.008C201.32 118.504 228.4 128 256 128h8v-17.168c17.064 9.816 36.344 15.664 56 16.912V136zm0-48v23.704c-21.312-1.552-42.08-9.264-59.2-22.104L248 80v31.696c-21.168-1.624-41.592-9.616-58.232-22.928L178.808 80H160v18.56a166.361 166.361 0 0 0-6.52-3.056C161.376 50.064 201.656 16 248 16c46.792 0 86.68 34.232 94.576 79.472A182.035 182.035 0 0 0 336 98.56V88h-16zm69.832 21.568a61.24 61.24 0 0 0-7.872 14c-6.912 17.272-23.392 28.432-42 28.432h-5.488c.96-5.2 1.528-10.528 1.528-16v-19.328c19.568-11.016 41.184-17.832 63.464-19.952l-9.632 12.848z"/><path d="M280 136h16v16h-16zm-80 0h16v16h-16zm40 40h16v16h-16z"/></svg>