<svg xmlns="http://www.w3.org/2000/svg" viewBox="0 0 495.788 495.788"><path d="M230.958 223.788h33.872c34.776 0 63.064-28.296 63.064-63.064 0-6.8-1.096-13.504-3.232-19.936l-4.128-12.384 3.352-6.712a38.225 38.225 0 0 0 4.008-16.992v-2.912c0-20.952-17.048-38-38-38-8.168 0-16.256 2.696-22.8 7.6l-19.2 14.4-19.2-14.4c-6.544-4.904-14.632-7.6-22.8-7.6-20.952 0-38 17.048-38 38v2.912a38.309 38.309 0 0 0 4.008 17l3.352 6.704-4.12 12.376a62.969 62.969 0 0 0-3.24 19.944c0 34.768 28.288 63.064 63.064 63.064zm-44.744-109.24a22.27 22.27 0 0 1-2.32-9.848v-2.912c0-12.136 9.864-22 22-22 4.728 0 9.416 1.56 13.2 4.4l28.8 21.6 28.8-21.6a22.16 22.16 0 0 1 13.2-4.4c12.136 0 22 9.864 22 22v2.912c0 3.392-.808 6.8-2.32 9.84l-6.32 12.624 6.224 18.68c1.6 4.8 2.416 9.808 2.416 14.872 0 25.96-21.112 47.072-47.064 47.072h-33.872c-25.952 0-47.064-21.112-47.064-47.064a46.8 46.8 0 0 1 2.424-14.88l6.216-18.672-6.32-12.624z"/><path d="M271.894 103.788h16v16h-16zm-64 0h16v16h-16zm-32 174.056c0 23.128 18.816 41.944 41.936 41.944 11.208 0 21.744-4.36 29.656-12.28l.408-.408.4.4c7.92 7.928 18.448 12.288 29.664 12.288 23.12 0 41.936-18.816 41.936-41.944v-38.056h-144v38.056zm16-22.056h112v22.056c0 14.304-11.632 25.944-25.936 25.944-6.936 0-13.448-2.696-18.344-7.6l-11.72-11.712-11.728 11.712c-4.888 4.904-11.4 7.6-18.336 7.6-14.304 0-25.936-11.64-25.936-25.944v-22.056z"/><path d="M271.894 271.788h16v16h-16zm-64 0h16v16h-16z"/><path d="M397.55 210.132c-11.824-11.832-27.544-18.344-44.28-18.344h-2.456a59.434 59.434 0 0 0 9.08-31.624 59.291 59.291 0 0 0-3.064-18.848l-4.504-13.528 3.488-10.424a79.917 79.917 0 0 0 4.08-25.224c0-30.408-16.896-57.744-44.096-71.344l-18.856-9.432c-30.296-15.152-67.8-15.152-98.096 0l-18.856 9.432c-27.2 13.6-44.096 40.936-44.096 71.344a79.518 79.518 0 0 0 4.096 25.224l3.472 10.424-4.504 13.52a59.376 59.376 0 0 0-3.064 18.856 59.434 59.434 0 0 0 9.08 31.624h-2.456c-16.736 0-32.464 6.512-44.28 18.344-11.832 11.832-18.344 27.56-18.344 44.288v109.368c0 24.264 19.744 44 44 44 10.624 0 20.384-3.792 28-10.088v98.088h78.776l15.808-94.8c.232-1.392 2.608-1.392 2.84 0l15.8 94.8h78.776V397.7c7.616 6.296 17.376 10.088 28 10.088 24.256 0 44-19.736 44-44V254.42c0-16.728-6.512-32.456-18.344-44.288zM151.894 363.788c0 15.44-12.56 28-28 28s-28-12.56-28-28v-15.72l16-10.664 24 16 16-10.664v21.048zm248 0c0 15.44-12.56 28-28 28s-28-12.56-28-28v-21.056l16 10.664 24-16 16 10.664v15.728zm0-34.944l-16-10.664-24 16-16-10.664v-43.728h-16v200H278.67l-13.576-81.424a17.376 17.376 0 0 0-17.2-14.576c-8.56 0-15.8 6.128-17.2 14.576l-13.576 81.424h-49.224v-200h-16v43.72l-16 10.664-24-16-16 10.664v-74.424c0-12.456 4.848-24.168 13.656-32.976 8.808-8.8 20.512-13.648 32.968-13.648h32.328l-15.632-23.44a43.45 43.45 0 0 1-7.32-24.184c0-4.704.752-9.344 2.232-13.792l6.2-18.584-5.168-15.48a63.949 63.949 0 0 1-3.264-20.168c0-24.312 13.504-46.168 35.248-57.032l18.856-9.432c25.872-12.944 57.904-12.944 83.784 0l18.856 9.432c21.752 10.872 35.256 32.728 35.256 57.032a63.9 63.9 0 0 1-3.264 20.16l-5.168 15.488 6.192 18.592a43.266 43.266 0 0 1 2.24 13.784c0 8.64-2.528 17-7.32 24.184l-15.632 23.44h32.328c12.456 0 24.168 4.848 32.968 13.656 8.808 8.808 13.656 20.52 13.656 32.976v74.424z"/><path d="M359.894 231.788h16v24h-16zm0 56h16v24h-16zm-240-48h16v24h-16zm0 48h16v24h-16zm120 48h16v24h-16zm48 40h16v24h-16zm-96 0h16v24h-16zm96 56h16v24h-16zm-96 0h16v24h-16zm40-248c0-8.824 7.176-16 16-16s16 7.176 16 16h16c0-17.648-14.352-32-32-32s-32 14.352-32 32h16z"/></svg>