<svg xmlns="http://www.w3.org/2000/svg" viewBox="0 0 496 496"><path d="M280 104h16v16h-16zm-80 0h16v16h-16zm8 72h8v8h16v-8h32v8h16v-8h8v-16h-80z"/><path d="M445.656 458.344C445.2 457.888 400 411.72 400 328c0-50.792-4.864-102.256-31.888-130.352.592-22.768 9.656-44.104 25.824-60.28l8.4-8.4A19.157 19.157 0 0 0 408 115.312C408 104.664 399.336 96 388.688 96h-11.072l21.336-32H384c-17.376 0-33.704 6.696-46.096 18.832l17.736-59.128c1.688-5.632.648-11.568-2.864-16.28-4.912-6.608-13.952-9.16-21.616-6.104L297.4 14.824C290.144 9.48 273.632 0 248 0c-25.632 0-42.144 9.48-49.408 14.824L164.832 1.32c-7.664-3.056-16.704-.504-21.616 6.104-3.512 4.712-4.552 10.648-2.864 16.288l17.736 59.128C145.704 70.696 129.376 64 112 64H97.048l21.336 32h-11.072C96.664 96 88 104.664 88 115.312c0 5.16 2.008 10.008 5.656 13.656l8.4 8.4c16.168 16.168 25.232 37.504 25.824 60.28C100.864 225.744 96 277.208 96 328c0 83.336-45.208 129.896-45.656 130.344l-7.248 7.248 8.784 5.272c1.656.992 40.552 23.608 124.12 25.008V496h144v-.136c83.56-1.4 122.456-24.008 124.12-25.008l8.784-5.264-7.248-7.248zM388.688 112a3.319 3.319 0 0 1 3.312 3.312c0 .872-.352 1.728-.968 2.344l-8.4 8.4c-16.408 16.408-26.576 37.328-29.592 59.944-7.784-4.448-16.68-7.688-27.184-9.104C332.304 164.664 336 150.768 336 136v-8h2.664c12.48 0 23.8-6.16 30.712-16h19.312zm-40-17.376c5.296-5.296 11.576-9.256 18.424-11.712l-3.56 5.344a37.239 37.239 0 0 0-4.392 8.976A21.579 21.579 0 0 1 338.664 112H336v-4.688l12.688-12.688zM155.68 19.112c-.304-1.016.112-1.776.376-2.136.344-.472 1.552-1.336 2.832-.8l38.136 15.256 4.864 1.88 3.72-3.608C206.192 29.144 220.072 16 248 16s41.808 13.144 42.344 13.656l3.728 3.728 43.032-17.208c1.272-.536 2.48.328 2.832.8.272.36.68 1.128.376 2.136l-14.736 49.12C316.256 55.968 301.568 48 285.016 48a50.813 50.813 0 0 0-28.28 8.56L248 62.384l-8.736-5.824a50.813 50.813 0 0 0-28.28-8.56c-16.552 0-31.248 7.968-40.56 20.224L155.68 19.112zm113.672 202.16c9.6-2.408 18.584-6.336 26.648-11.608v41.04c-6.664-3.016-15.712-6.368-26.36-8.504 1.472-3.104 2.36-6.536 2.36-10.2 0-3.872-1.008-7.488-2.648-10.728zM248 208c-39.696 0-72-32.304-72-72V98.984C176 79.696 191.696 64 210.984 64c6.936 0 13.64 2.032 19.408 5.872L248 81.616l17.608-11.736A34.842 34.842 0 0 1 285.016 64C304.304 64 320 79.696 320 98.984V136c0 39.696-32.304 72-72 72zm-16 64v-14.584c5-.872 10.36-1.416 16-1.416 5.624 0 10.992.552 16 1.432V272h-32zm32 16v16c0 8.824-7.176 16-16 16s-16-7.176-16-16v-16h32zm-24-56c0-4.408 3.592-8 8-8 4.408 0 8 3.592 8 8s-3.592 8-8 8c-4.408 0-8-3.592-8-8zm-13.64 10.2c-10.648 2.136-19.696 5.488-26.36 8.504v-41.04c8.064 5.272 17.048 9.208 26.648 11.608-1.64 3.24-2.648 6.856-2.648 10.728 0 3.664.888 7.096 2.36 10.2zM147.312 94.624L160 107.312V112h-2.664a21.579 21.579 0 0 1-20.496-14.768 37.604 37.604 0 0 0-4.384-8.968l-3.568-5.352c6.848 2.456 13.128 6.416 18.424 11.712zm-33.936 31.432l-8.408-8.4a3.339 3.339 0 0 1-.968-2.344 3.319 3.319 0 0 1 3.312-3.312h19.312c6.912 9.84 18.232 16 30.712 16H160v8c0 14.768 3.696 28.664 10.152 40.896-10.504 1.416-19.4 4.656-27.184 9.104-3.016-22.616-13.184-43.536-29.592-59.944zM176 479.896c-49.912-.864-83-9.688-100.592-16.104 50.272-25.28 79.216-58.92 100.592-94.936v111.04zm-94.04-37.824C95.944 418.464 112 380.056 112 328c0-95.464 19.296-133.984 68.336-135.824 1.16 1.4 2.424 2.712 3.664 4.032v82.736l12.44-8.296c.104-.072 5.48-3.584 14.352-7.152-7.08 13.4-13.504 27.12-19.744 40.504C166.6 356.448 143.32 406.352 81.96 442.072zM240 480h-48V368h48v112zm64-128h-16v16h16v112h-48V368h16v-16h-80v-12.848c4.68-9.448 9.136-18.936 13.544-28.384 3.392-7.28 6.888-14.672 10.456-22.032V304c0 17.648 14.352 32 32 32s32-14.352 32-32v-15.264c3.568 7.36 7.064 14.752 10.456 22.032 4.4 9.448 8.864 18.936 13.544 28.384V352zm.96-48c-6.232-13.368-12.648-27.072-19.72-40.456 8.832 3.552 14.224 7.04 14.328 7.112L312 278.952v-82.744c1.248-1.32 2.504-2.64 3.664-4.032C364.704 194.016 384 232.536 384 328c0 52.056 16.048 90.464 30.04 114.072C352.68 406.36 329.408 356.456 304.96 304zM320 479.896v-111.04c21.376 36.016 50.32 69.656 100.592 94.936-17.6 6.416-50.688 15.232-100.592 16.104z"/></svg>