<svg xmlns="http://www.w3.org/2000/svg" viewBox="0 0 496 496"><path d="M328 320h-8.624c42.432-19.92 75.576-57.16 89.504-104H424c13.232 0 24-10.768 24-24v-48c0-13.232-10.768-24-24-24h-15.112C387.784 49.072 322.592 0 248 0S108.216 49.072 87.112 120H72c-13.232 0-24 10.768-24 24v48c0 13.232 10.768 24 24 24h15.112c13.936 46.832 47.08 84.08 89.52 104H168C75.36 320 0 395.36 0 488v8h496v-8c0-92.64-75.36-168-168-168zM248 16c65.888 0 123.704 42.288 144.184 104H103.816C124.288 58.288 182.112 16 248 16zM72 200c-4.408 0-8-3.592-8-8v-16h320v-16H64v-16c0-4.408 3.592-8 8-8h352c4.408 0 8 3.592 8 8v16h-32v16h32v16c0 4.408-3.592 8-8 8H72zm31.816 16h288.368C371.712 277.712 313.888 320 248 320c-65.88 0-123.712-42.296-144.184-104zM168 336h160c6.144 0 12.176.48 18.128 1.2C335.696 352.096 309.44 376 248 376s-87.696-23.904-98.128-38.8c5.952-.72 11.984-1.2 18.128-1.2zm72 144H16.208c2.896-55.504 35.728-103.176 82.584-127.248 8.216 18.408 39.896 68.568 141.208 71.104V480zM113.4 346.264c6.304-2.44 12.824-4.408 19.504-6C142.856 357.744 172.04 392 248 392s105.144-34.256 115.096-51.736c3.6.856 7.176 1.76 10.672 2.872C366.856 362.408 340.712 408 248 408c-99.424 0-128.016-46.824-134.6-61.736zM256 480v-56.168c93.976-2.688 123.768-52.168 132.52-75.128 51.44 22.44 88.208 72.44 91.28 131.296H256z"/><path d="M272 272c0-17.944-10.544-32-24-32s-24 14.056-24 32c0 17.944 10.544 32 24 32s24-14.056 24-32zm-32 0c0-9.768 4.736-16 8-16 3.264 0 8 6.232 8 16s-4.736 16-8 16c-3.264 0-8-6.232-8-16zM168.632 78C190.544 58.656 218.736 48 248 48V32c-33.168 0-65.112 12.072-89.96 34l10.592 12zM130.2 99.992l13.848 8.016A120.808 120.808 0 0 1 154.32 93l-12.496-10A136.855 136.855 0 0 0 130.2 99.992z"/></svg>