<svg xmlns="http://www.w3.org/2000/svg" viewBox="0 0 496.741 496.741"><path d="M248.371 184.372c-35.288 0-64 28.712-64 64s28.712 64 64 64 64-28.712 64-64-28.712-64-64-64zm0 112c-26.472 0-48-21.528-48-48s21.528-48 48-48 48 21.528 48 48-21.528 48-48 48z"/><path d="M248.371 224.372c-13.232 0-24 10.768-24 24s10.768 24 24 24 24-10.768 24-24-10.768-24-24-24zm0 32c-4.408 0-8-3.592-8-8 0-4.408 3.592-8 8-8s8 3.592 8 8-3.592 8-8 8zm176 168c0-53.168-12.488-93.832-37.104-120.84l-11.832 10.784c21.856 23.968 32.936 61 32.936 110.056h16z"/><path d="M424.371 152.372h8c35.128 0 63.728-28.44 64-63.504.536-4.792 3.032-35.616-18.12-59.872-16.56-18.992-42.76-28.624-77.88-28.624-88.664 0-188.92.12-191.864 160.784-.488.224-1.008.384-1.488.616l-20.88-20.88-4.936 4.936c-19.088-13.064-28.832-37.656-28.832-73.456v-8c0-35.128-28.44-63.728-63.504-64-4.792-.536-35.608-3.032-59.872 18.12C10.003 35.052.371 61.252.371 96.372c0 88.664.12 188.92 160.784 191.864.224.488.384 1.008.616 1.488l-20.88 20.88 4.936 4.936c-13.064 19.088-37.656 28.832-73.456 28.832h-8c-35.128 0-63.728 28.44-64 63.504-.536 4.792-3.032 35.616 18.12 59.872 16.56 18.992 42.76 28.624 77.88 28.624 88.664 0 188.92-.12 191.864-160.784.488-.224 1.008-.384 1.488-.616l20.88 20.88 4.936-4.936c19.088 13.064 28.832 37.656 28.832 73.456v8c0 35.128 28.44 63.728 63.504 64 1.152.128 3.808.368 7.512.368 11.712 0 33.928-2.424 52.36-18.496 18.992-16.552 28.624-42.752 28.624-77.872 0-88.664-.12-188.92-160.784-191.864-.224-.488-.384-1.008-.616-1.488l20.88-20.88-4.936-4.936c13.064-19.088 37.656-28.832 73.456-28.832zm-296 64V270.1c-103.432-12.688-112-78.488-112-173.728 0-30.2 7.744-52.312 23.008-65.704 20.24-17.76 47.64-14.4 47.904-14.368l1.088.072c26.472 0 48 21.528 48 48v8c0 47.432 16.264 72.12 33.312 84.984l-28.792 28.792 20.88 20.88c-.024.048-.04.104-.064.16-19.792-4.672-73.336-27.224-73.336-134.816h-16c0 94.776 40.472 130.56 68.736 144h-12.736zm-32 264c-30.2 0-52.312-7.744-65.704-23.008-17.76-20.232-14.4-47.656-14.368-47.904l.072-1.088c0-26.472 21.528-48 48-48h8c47.432 0 72.12-16.264 84.984-33.312l28.792 28.792 20.88-20.88c.048.024.104.04.16.064-4.672 19.792-27.224 73.336-134.816 73.336v16c94.776 0 130.56-40.472 144-68.736v12.736h53.728c-12.688 103.432-78.488 112-173.728 112zm272-200v-53.728c103.432 12.688 112 78.488 112 173.728 0 30.2-7.744 52.312-23.008 65.704-20.24 17.76-47.648 14.4-47.904 14.368l-1.088-.072c-26.472 0-48-21.528-48-48v-8c0-47.432-16.264-72.12-33.312-84.984l28.792-28.792-20.88-20.88c.008-.024.016-.048.032-.072 7.072 1.744 18.504 5.776 30.136 15.016l9.952-12.52a97.952 97.952 0 0 0-18.856-11.768h12.136zm-16-48v32h-25.448l-1.648 5.816c-1.72 6.064-4.096 11.832-7.072 17.16l-2.952 5.28 17.976 17.976-22.632 22.632-17.976-17.976-5.272 2.944c-5.32 2.976-11.096 5.352-17.16 7.072l-5.816 1.648v25.448h-32v-25.448l-5.816-1.648c-6.064-1.72-11.832-4.096-17.16-7.072l-5.28-2.952-17.976 17.976-22.632-22.632 17.976-17.976-2.952-5.28c-2.976-5.32-5.352-11.096-7.072-17.16l-1.64-5.808h-25.448v-32h25.448l1.648-5.816c1.72-6.064 4.096-11.832 7.072-17.16l2.952-5.28-17.976-17.976 22.632-22.632 17.976 17.976 5.28-2.952c5.32-2.976 11.096-5.352 17.16-7.072l5.808-1.64v-25.448h32v25.448l5.816 1.648c6.064 1.72 11.832 4.096 17.16 7.072l5.28 2.952 17.976-17.976 22.632 22.632-17.976 17.976 2.952 5.28c2.976 5.32 5.352 11.096 7.072 17.16l1.64 5.808h25.448zm-12.984-62.688l-28.792-28.792-20.88 20.88c-.048-.024-.104-.04-.16-.064 4.672-19.792 27.224-73.336 134.816-73.336v-16c-94.776 0-130.56 40.472-144 68.736v-12.736h-53.728c12.688-103.432 78.488-112 173.728-112 30.2 0 52.312 7.744 65.704 23.008 17.76 20.232 14.4 47.656 14.368 47.904l-.072 1.088c0 26.472-21.528 48-48 48h-8c-47.432 0-72.12 16.264-84.984 33.312z"/></svg>