<svg xmlns="http://www.w3.org/2000/svg" viewBox="0 0 496.656 496.656"><path d="M496.16 240.928C492.392 107.448 382.712 0 248.336 0S4.28 107.448.512 240.928l-.512.064.336 7.376c.192 4.232 5.696 104.648 82.336 181.288 59.744 59.744 124.648 67 152.656 67 6.632 0 11.064-.392 13-.608 1.936.216 6.368.608 13 .608 28.016 0 92.912-7.264 152.656-67 76.64-76.64 82.144-177.048 82.336-181.288l.336-7.376-.496-.064zM209.32 19.344c-12.888 14.232-30.584 37.168-46.16 69.304-32.184-6.04-52.632-14.328-62.744-19.232C131.08 43.968 168.4 26.304 209.32 19.344zM87.656 80.888c8.216 4.592 30.328 15.232 68.712 22.808C141.264 139.328 129.528 184.6 128.48 240H34.256c-7.2-.568-13.2-.64-17.704-.52 2.264-62.2 29.104-118.192 71.104-158.592zm56.68 221c6.144 4.96 12.28 10.312 18.344 16.376 11.504 11.504 21.296 23.648 29.656 35.936v66.496l-48-48v-70.808zM99.136 256h29.4c.096 5.144.232 10.264.52 15.352A221.534 221.534 0 0 0 99.136 256zm29.2 34.016v66.672l-48-48v-42.464c15.032 5.152 31.36 12.68 48 23.792zm-64-28.584v31.256L27.648 256h3.776c8.952.664 20.176 2.208 32.912 5.432zm-45 8.88L53.024 304H27.456c-3.912-12.984-6.464-24.464-8.12-33.688zM32.784 320h36.24l48 48H55.288c-9.704-16.48-17.016-32.84-22.504-48zm61.208 98.344c-11-11-20.416-22.592-28.528-34.344h67.56l48 48H109.04c-5.04-4.224-10.064-8.672-15.048-13.656zM130.624 448h66.4l32.424 32.424c-21.336-.936-59.192-6.768-98.824-32.424zm77.712-11.312v-55.656c17.256 33.04 25.304 64.4 28.968 84.624l-28.968-28.968zm32-180.688v158.016c-11.656-33.128-31.728-72.448-66.344-107.072-9.272-9.272-18.672-17.264-28.04-24.192-.784-8.784-1.24-17.728-1.424-26.76h95.808V256zm0-16H144.48c1.104-54.448 13.248-98.848 28.472-133.392 19.072 2.912 41.52 4.896 67.384 5.248V240zm0-144.144c-22.832-.328-42.928-1.976-60.192-4.424 21.768-43.008 46.832-67.848 54.712-75.008 1.816-.104 3.648-.16 5.48-.224v79.656zm155.92-26.44c-10.112 4.896-30.56 13.184-62.744 19.232-15.576-32.136-33.272-55.072-46.16-69.304 40.92 6.96 78.24 24.624 108.904 50.072zM256.336 16.2c1.832.064 3.664.112 5.48.216 7.88 7.168 32.944 32.008 54.712 75.024-17.264 2.448-37.36 4.088-60.192 4.424V16.2zm-.008 239.8h64v-16h-64V111.856c25.864-.36 48.312-2.336 67.384-5.248 15.224 34.544 27.368 78.944 28.472 133.392h-15.848v16h15.8c-.184 9.032-.632 17.976-1.424 26.76-9.368 6.928-18.76 14.92-28.04 24.192-34.616 34.616-54.688 73.936-66.344 107.072V256zm96.008 45.888v70.8l-48 48V354.2c8.36-12.28 18.152-24.424 29.656-35.936 6.064-6.064 12.2-11.416 18.344-16.376zm-92.968 163.768c3.664-20.224 11.712-51.584 28.968-84.624v55.656l-28.968 28.968zm7.896 14.72L299.648 448h66.344c-39.52 25.512-77.36 31.4-98.728 32.376zm135.416-62.032c-4.984 4.984-10.016 9.432-15.056 13.656h-71.976l48-48h67.56c-8.112 11.752-17.528 23.344-28.528 34.344zm-35.064-146.992c.288-5.088.424-10.208.52-15.352h29.384a222.315 222.315 0 0 0-29.904 15.352zm48.72-5.104v42.44l-48 48v-66.656c16.624-11.088 32.96-18.624 48-23.784zM441.376 368H379.64l48.008-48h36.24c-5.488 15.16-12.8 31.52-22.512 48zm27.84-64h-25.568l33.688-33.688c-1.656 9.216-4.208 20.704-8.12 33.688zm-36.88-11.312v-31.232c12.824-3.248 24.12-4.792 33.128-5.456h3.56l-36.688 36.688zM462.352 240h-94.16c-1.048-55.4-12.784-100.672-27.888-136.304C378.68 96.12 400.8 85.48 409.016 80.888c42 40.392 68.84 96.392 71.104 158.584-4.52-.112-10.544-.04-17.768.528z"/></svg>