<svg xmlns="http://www.w3.org/2000/svg" viewBox="0 0 496 496"><path d="M347.864 208H424c17.648 0 32-14.352 32-32V95.28c22.664-3.824 40-23.536 40-47.28 0-26.472-21.528-48-48-48s-48 21.528-48 48c0 23.736 17.336 43.448 40 47.28V176c0 8.824-7.176 16-16 16h-65.152A127.683 127.683 0 0 0 376 128c0-35.312-14.072-68.192-39.616-92.584C310.864 11.04 277.36-1.456 241.944.144 176.24 3.168 122.72 57.048 120.104 122.792c-.992 24.92 5.112 48.712 16.944 69.208H72c-8.824 0-16-7.176-16-16V95.28C78.664 91.456 96 71.744 96 48 96 21.528 74.472 0 48 0S0 21.528 0 48c0 23.736 17.336 43.448 40 47.28V176c0 17.648 14.352 32 32 32h76.04a128.525 128.525 0 0 0 37.256 31.544L190.28 256H184c-8.824 0-16 7.176-16 16-30.872 0-56 25.12-56 56v112c0 22.056-17.944 40-40 40H32v16h40c30.872 0 56-25.12 56-56V328c0-22.056 17.944-40 40-40 0 8.824 7.176 16 16 16h20.848l3.28 10.792c6.168 16.568 22.184 27.704 39.872 27.704s33.712-11.136 40.032-28.168L291.16 304H312c8.824 0 16-7.176 16-16 22.056 0 40 17.944 40 40v112c0 30.88 25.128 56 56 56h40v-16h-40c-22.056 0-40-17.944-40-40V328c0-30.88-25.128-56-56-56 0-8.824-7.176-16-16-16h-6.288l4.992-16.456c14.552-8.184 27.064-18.968 37.16-31.544zM416 48c0-17.648 14.352-32 32-32s32 14.352 32 32-14.352 32-32 32-32-14.352-32-32zM48 80c-17.648 0-32-14.352-32-32s14.352-32 32-32 32 14.352 32 32-14.352 32-32 32zm264 192v16h-40v16h2.448l-1.576 5.208c-3.84 10.336-13.84 17.28-24.872 17.28s-21.032-6.944-24.72-16.816L221.56 304H256v-16h-72v-16h128zm-11.744-44.976l-2.944 1.56L289 256h-33v-80.72c22.664-3.824 40-23.536 40-47.28 0-26.472-21.528-48-48-48s-48 21.528-48 48c0 23.736 17.336 43.448 40 47.28V256h-33l-8.312-27.416-2.944-1.56c-38.52-20.376-61.384-60.072-59.656-103.6 2.288-57.512 49.12-104.648 106.592-107.304 30.976-1.424 60.312 9.528 82.656 30.864C347.688 68.336 360 97.104 360 128c0 41.584-22.888 79.528-59.744 99.024zM248 160c-17.648 0-32-14.352-32-32s14.352-32 32-32 32 14.352 32 32-14.352 32-32 32z"/><path d="M40 40h16v16H40zm400 0h16v16h-16z"/></svg>