<svg xmlns="http://www.w3.org/2000/svg" viewBox="0 0 496 496"><path d="M472 312v-66.808l-72.264-90.336c.088-.952.264-1.896.264-2.856 0-16.208-12.16-29.504-27.816-31.576l-78.944-98.68C282.184 7.928 265.696 0 248 0s-34.184 7.928-45.24 21.744l-78.944 98.68C108.16 122.496 96 135.792 96 152c0 1.016.184 2 .28 3L24 253.376V312c-13.232 0-24 10.768-24 24v48c0 13.232 10.768 24 24 24h32v64c0 13.232 10.768 24 24 24h32c13.232 0 24-10.768 24-24v-64h40v48c0 22.056 17.944 40 40 40 13.072 0 24.696-6.304 32-16.024 7.304 9.72 18.928 16.024 32 16.024 22.056 0 40-17.944 40-40v-48h40v64c0 13.232 10.768 24 24 24h32c13.232 0 24-10.768 24-24v-64h32c13.232 0 24-10.768 24-24v-48c0-13.232-10.768-24-24-24zm-80-72v-66.96c.32-.368.552-.792.856-1.168L456 250.808V312H320v-72h72zM215.256 31.736c8-10 19.928-15.736 32.744-15.736s24.744 5.736 32.744 15.736l73.288 91.608C343.4 128.552 336 139.384 336 152c0 7.728 2.872 15.216 8 21.04V192h-72v-4.68c28.032-11.296 44.536-41 38.864-71.528-4.72-25.32-24.84-45.632-50.088-50.536-19.168-3.744-38.648 1.136-53.464 13.344C192.496 90.808 184 108.816 184 128c0 26.048 16.176 49.632 40 59.312V192h-72v-18.96c5.128-5.824 8-13.312 8-21.04 0-12.616-7.4-23.448-18.032-28.656l73.288-91.608zM120 472c0 4.408-3.584 8-8 8H80c-4.416 0-8-3.592-8-8v-64h48v64zm56-96v16H24c-4.416 0-8-3.592-8-8v-48c0-4.408 3.584-8 8-8h152v48zm0-64H40v-53.376l63.44-86.344c.2.248.352.528.56.768V240h72v72zm128-88v232c0 13.232-10.768 24-24 24s-24-10.768-24-24V280h-16v176c0 13.232-10.768 24-24 24s-24-10.768-24-24V224h-72v-57.784l-2.64-2.384c-3.464-3.112-5.36-7.32-5.36-11.832 0-8.824 7.176-16 16-16s16 7.176 16 16c0 4.512-1.896 8.72-5.36 11.832l-2.64 2.384V208h104v-32.32l-5.72-1.704C214.104 167.968 200 149.064 200 128c0-14.392 6.376-27.896 17.504-37.064 11.12-9.168 25.816-12.8 40.216-9.992 18.856 3.672 33.888 18.848 37.416 37.76 4.544 24.488-9.816 48.248-33.416 55.272L256 175.68V208h104v-41.784l-2.64-2.384c-3.464-3.112-5.36-7.32-5.36-11.832 0-8.824 7.176-16 16-16s16 7.176 16 16c0 4.512-1.896 8.72-5.36 11.832l-2.64 2.384V224h-72zm120 248c0 4.408-3.584 8-8 8h-32c-4.416 0-8-3.592-8-8v-64h48v64zm56-88c0 4.408-3.584 8-8 8H320v-64h152c4.416 0 8 3.592 8 8v48z"/></svg>