<svg xmlns="http://www.w3.org/2000/svg" viewBox="0 0 496 496"><path d="M208 144h16v16h-16zm64 0h16v16h-16z"/><path d="M440 0c-30.872 0-56 25.12-56 56 0 22.28 13.112 41.512 32 50.52V208h-56v-16c13.232 0 24-10.768 24-24v-16c0-13.232-10.768-24-24-24h-4.344L248 3.784 140.344 128H136c-13.232 0-24 10.768-24 24v16c0 13.232 10.768 24 24 24v16H80V106.52c18.888-9.008 32-28.24 32-50.52 0-30.88-25.128-56-56-56S0 25.12 0 56c0 22.28 13.112 41.512 32 50.52V256h104v72.04c-9.96 7.504-16 19.344-16 31.96 0 13.784 7.008 25.96 17.656 33.16C131.712 398.976 128 407.048 128 416c0 5.856 1.696 11.272 4.448 16H40v64h120c13.232 0 24-10.768 24-24v-35.056c4.92-5.624 8-12.896 8-20.944 0-8.952-3.712-17.024-9.656-22.84 8.528-5.768 14.72-14.736 16.848-25.16h97.616c2.128 10.424 8.32 19.392 16.848 25.16C307.712 398.976 304 407.048 304 416c0 8.04 3.08 15.312 8 20.944V472c0 13.232 10.768 24 24 24h120v-64h-92.448c2.752-4.728 4.448-10.144 4.448-16 0-8.952-3.712-17.024-9.656-22.84C368.992 385.96 376 373.784 376 360c0-12.616-6.04-24.456-16-31.96V256h104V106.52c18.888-9.008 32-28.24 32-50.52 0-30.88-25.128-56-56-56zM16 56c0-22.056 17.944-40 40-40s40 17.944 40 40-17.944 40-40 40-40-17.944-40-40zm32 104v-16h16v16H48zm16 16v16H48v-16h16zm-16-48v-16.64c2.624.376 5.28.64 8 .64 2.72 0 5.376-.264 8-.64V128H48zm24 112H48v-32h16v16h8v16zM248 28.216L334.48 128H312v.248c-7.296-9.8-18.872-16.248-32-16.248s-24.704 6.448-32 16.248c-7.296-9.8-18.872-16.248-32-16.248s-24.704 6.448-32 16.248V128h-22.48L248 28.216zM344 192v80H152v-80h192zm-152-40c0-13.232 10.768-24 24-24s24 10.768 24 24-10.768 24-24 24-24-10.768-24-24zm55.8 24c.064-.088.136-.16.2-.248.064.088.136.16.208.248h-.408zm8.2-24c0-13.232 10.768-24 24-24s24 10.768 24 24-10.768 24-24 24-24-10.768-24-24zm-128 16v-16c0-4.408 3.584-8 8-8h40.808a39.963 39.963 0 0 0-.808 8c0 9.04 3.128 17.296 8.208 24H136c-4.416 0-8-3.592-8-8zm-24 72H88v-16h16v16zm16 0v-16h16v16h-16zm-16 240H56v-32h48v32zm64-8c0 4.408-3.584 8-8 8h-40v-32h48v24zm-8-40c-8.824 0-16-7.176-16-16s7.176-16 16-16 16 7.176 16 16-7.176 16-16 16zm0-48c-13.232 0-24-10.768-24-24 0-3.904 1.064-7.64 2.816-11.008C143.816 360.168 154.984 368 168 368h14.528c-3.312 9.288-12.112 16-22.528 16zm8-32c-8.824 0-16-7.176-16-16v-48h192v48c0 8.824-7.176 16-16 16H168zm152 64c0-8.824 7.176-16 16-16s16 7.176 16 16-7.176 16-16 16-16-7.176-16-16zm72 32h48v32h-48v-32zm-16 0v32h-40c-4.416 0-8-3.592-8-8v-24h48zm-40-64c-10.416 0-19.216-6.712-22.528-16H328c13.016 0 24.184-7.832 29.184-19.008C358.936 352.36 360 356.096 360 360c0 13.232-10.768 24-24 24zm-24.208-208c5.08-6.704 8.208-14.96 8.208-24 0-2.736-.28-5.416-.808-8H360c4.416 0 8 3.592 8 8v16c0 4.408-3.584 8-8 8h-48.208zM408 240h-48v-16h48v16zm40 0h-24v-16h8v-16h16v32zm0-48h-16v-16h16v16zm0-32h-16v-16h16v16zm0-32h-16v-16.64c2.624.376 5.28.64 8 .64 2.72 0 5.376-.264 8-.64V128zm-8-32c-22.056 0-40-17.944-40-40s17.944-40 40-40 40 17.944 40 40-17.944 40-40 40z"/></svg>