<svg xmlns="http://www.w3.org/2000/svg" viewBox="0 0 496 496"><path d="M248 64c-70.576 0-128 57.424-128 128s57.424 128 128 128 128-57.424 128-128S318.576 64 248 64zm-34.576 21.528a221.294 221.294 0 0 0-12.448 24.912c-7.552-4.048-12.016-8.56-14.496-11.928a111.43 111.43 0 0 1 26.944-12.984zm-39.528 22.72c3.992 5.288 10.688 11.76 21.416 17.152-5.72 16.768-10.144 36.544-11.04 58.6h-47.864c2.136-30.096 16.184-56.88 37.488-75.752zm0 167.504c-21.304-18.872-35.352-45.656-37.488-75.752h47.864c.896 22.056 5.32 41.832 11.04 58.6-10.728 5.392-17.424 11.864-21.416 17.152zm12.64 9.768c2.496-3.32 6.968-7.808 14.488-11.856 4.168 9.824 8.504 18.128 12.408 24.816a111.626 111.626 0 0 1-26.896-12.96zM240 303.592c-1.504-.104-3.016-.168-4.496-.336-4.056-5.744-12.024-18.088-19.44-35.448 6.608-1.792 14.512-3.088 23.936-3.568v39.352zm0-55.32c-11.616.536-21.408 2.184-29.632 4.552-5.176-15.24-9.2-33.088-10.088-52.824H240v48.272zM240 184h-39.72c.896-19.736 4.912-37.584 10.088-52.824 8.224 2.368 18.016 4.016 29.632 4.552V184zm0-64.232c-9.44-.472-17.36-1.736-23.96-3.512 7.424-17.392 15.408-29.76 19.464-35.512 1.488-.168 3-.232 4.496-.336v39.36zm69.464-21.288c-2.496 3.32-6.968 7.808-14.488 11.856-4.168-9.824-8.504-18.128-12.408-24.816a111.626 111.626 0 0 1 26.896 12.96zM256 80.408c1.504.104 3.016.168 4.496.336 4.056 5.744 12.024 18.088 19.44 35.448-6.608 1.792-14.512 3.088-23.936 3.568V80.408zm0 55.32c11.616-.536 21.408-2.184 29.632-4.552 5.176 15.24 9.2 33.088 10.088 52.824H256v-48.272zM256 200h39.72c-.896 19.736-4.912 37.584-10.088 52.824-8.224-2.368-18.016-4.016-29.632-4.552V200zm4.496 103.256c-1.488.168-3 .232-4.496.336v-39.36c9.44.472 17.36 1.736 23.96 3.512-7.424 17.392-15.408 29.76-19.464 35.512zm22.08-4.784a221.294 221.294 0 0 0 12.448-24.912c7.552 4.048 12.016 8.56 14.496 11.928a111.43 111.43 0 0 1-26.944 12.984zm39.528-22.72c-3.992-5.288-10.688-11.76-21.416-17.152 5.72-16.768 10.144-36.544 11.04-58.6h47.864c-2.136 30.096-16.184 56.88-37.488 75.752zM311.728 184c-.896-22.056-5.32-41.832-11.04-58.6 10.728-5.392 17.424-11.864 21.416-17.152 21.304 18.872 35.352 45.664 37.488 75.752h-47.864z"/><path d="M411.192 152c-4.056-16.576-10.608-32.36-19.56-47.064l20.416-20.424-56.56-56.56-20.424 20.416C320.36 39.416 304.576 32.856 288 28.808V0h-80v28.808c-16.576 4.056-32.36 10.608-47.064 19.56l-20.424-20.416-56.56 56.56 20.416 20.424C95.416 119.64 88.864 135.424 84.808 152H56v80h28.808c4.056 16.576 10.608 32.36 19.56 47.064L83.952 299.48l56.56 56.568 20.424-20.416c14.704 8.952 30.488 15.504 47.064 19.56v18.456l-70.728 110.016 13.456 8.656L220.368 384H240v112h16V384h19.632l69.64 108.328 13.456-8.656L288 373.656V355.2c16.576-4.056 32.36-10.608 47.064-19.56l20.424 20.416 56.56-56.568-20.416-20.416c8.952-14.704 15.504-30.488 19.56-47.064H440V152h-28.808zM424 216h-25.752l-1.304 6.408c-3.856 19.024-11.32 36.984-22.168 53.368l-3.608 5.448 18.256 18.256-33.936 33.944-18.264-18.256-5.448 3.608c-16.384 10.848-34.344 18.312-53.368 22.168L272 342.248V368h-48v-25.752l-6.408-1.304c-19.024-3.856-36.984-11.32-53.368-22.168l-5.448-3.608-18.264 18.256-33.936-33.944 18.256-18.256-3.608-5.448c-10.848-16.384-18.312-34.344-22.168-53.368L97.752 216H72v-48h25.752l1.304-6.408c3.856-19.024 11.32-36.984 22.168-53.368l3.608-5.448-18.256-18.264 33.936-33.936 18.264 18.256 5.448-3.608c16.384-10.848 34.344-18.312 53.368-22.168L224 41.752V16h48v25.752l6.408 1.304c19.024 3.856 36.984 11.32 53.368 22.168l5.448 3.608 18.264-18.256 33.936 33.936-18.256 18.264 3.608 5.448c10.848 16.384 18.312 34.344 22.168 53.368l1.304 6.408H424v48z"/></svg>