<svg xmlns="http://www.w3.org/2000/svg" viewBox="0 0 497.12 497.12"><path d="M248.56 268.56c-26.472 0-48 21.528-48 48s21.528 48 48 48 48-21.528 48-48-21.528-48-48-48zm0 80c-17.648 0-32-14.352-32-32s14.352-32 32-32 32 14.352 32 32-14.352 32-32 32z"/><path d="M299.472 220.392l-15.584 15.584a91.581 91.581 0 0 0-3.328-1.392V212.56h-64v22.024c-1.112.44-2.216.904-3.328 1.392l-15.584-15.584-45.256 45.256 15.584 15.584a91.581 91.581 0 0 0-1.392 3.328H144.56v64h22.024c.44 1.112.904 2.216 1.392 3.328l-15.584 15.584 45.256 45.256 15.584-15.584c1.104.488 2.216.952 3.328 1.392v22.024h64v-22.024a97.963 97.963 0 0 0 3.328-1.392l15.584 15.584 45.256-45.256-15.584-15.584a91.581 91.581 0 0 0 1.392-3.328h22.024v-64h-22.024a97.963 97.963 0 0 0-1.392-3.328l15.584-15.584-45.256-45.256zm37.088 80.168v32h-17.536l-1.76 5.6c-1.224 3.888-2.864 7.808-4.88 11.664l-2.72 5.208 12.448 12.448-22.632 22.632-12.448-12.448-5.208 2.72c-3.848 2.016-7.776 3.656-11.664 4.88l-5.6 1.76v17.536h-32v-17.536l-5.6-1.76c-3.888-1.224-7.808-2.864-11.664-4.88l-5.208-2.72-12.448 12.448-22.632-22.632 12.448-12.448-2.72-5.208c-2.016-3.848-3.656-7.776-4.88-11.664l-1.76-5.6H160.56v-32h17.536l1.76-5.6c1.224-3.888 2.864-7.808 4.88-11.664l2.72-5.208-12.448-12.448 22.632-22.632 12.448 12.448 5.208-2.72c3.848-2.016 7.776-3.656 11.664-4.88l5.6-1.76V228.56h32v17.536l5.6 1.76c3.888 1.224 7.808 2.864 11.664 4.88l5.208 2.72 12.448-12.448 22.632 22.632-12.448 12.448 2.72 5.208c2.016 3.848 3.656 7.776 4.88 11.664l1.76 5.6h17.536z"/><path d="M248.56 172.56c-79.4 0-144 64.6-144 144s64.6 144 144 144 144-64.6 144-144-64.6-144-144-144zm0 272c-70.576 0-128-57.424-128-128s57.424-128 128-128 128 57.424 128 128-57.424 128-128 128z"/><path d="M496.04 313.712c-.384-1.016-23.696-60.184-78.928-109.072l75.816-49.376-8.736-13.408-79.936 52.064c-38.032-29.76-89.144-53.36-155.696-53.36s-117.664 23.6-155.696 53.36l-79.936-52.064-8.736 13.408 75.816 49.376C24.776 253.528 1.472 312.696 1.08 313.712L0 316.56l1.088 2.848C1.744 321.136 69.12 492.56 248.56 492.56s246.816-171.424 247.48-173.152l1.08-2.848-1.08-2.848zM248.56 476.56c-155.792 0-221.904-138.24-231.336-160 9.432-21.76 75.544-160 231.336-160s221.904 138.24 231.336 160c-9.432 21.76-75.544 160-231.336 160zm-8-472h16v120h-16zm-80.795 12.81l37.08 114.135-15.218 4.944-37.081-114.135z"/><path d="M71.66 59.462l70.535 97.08-12.944 9.404-70.535-97.079zm353.831-.068l12.944 9.404-70.535 97.08-12.944-9.405zm-88.156-42.002l15.217 4.943-37.078 114.126-15.217-4.944z"/></svg>