<svg xmlns="http://www.w3.org/2000/svg" viewBox="0 0 496 496"><path d="M489.432 136.004L191.304 26.172C181.368 10.476 163.904.004 144 .004c-30.872 0-56 25.128-56 56V179.06c-3.824 4.376-6.48 9.752-7.472 15.736l-33.848 16.92 9.56 38.224 15.512-3.872-6.44-25.776 16.992-8.496c4.72 11.816 16.216 20.208 29.696 20.208s24.976-8.392 29.688-20.208l16.992 8.496-6.44 25.776 15.512 3.872 9.56-38.224-33.848-16.92c-.816-4.928-2.72-9.464-5.52-13.368l35.368-77.816a56.395 56.395 0 0 0 12.232-10.216l101.104 108.328-22.016 18.472 16.8 20.016a251.03 251.03 0 0 0-14.384 17.136l-22.624-13.064-32 55.424 22.584 13.04c-3.16 7.608-5.84 15.4-8.232 23.248H48c-26.472 0-48 21.528-48 48s21.528 48 48 48v64h16v-64h16v64h16v-64h336v64h16v-64h16v64h16v-64h16V136.004h-6.568zm-377.432 80c-8.824 0-16-7.176-16-16s7.176-16 16-16 16 7.176 16 16-7.176 16-16 16zm13.16-45.088c-4.024-1.832-8.456-2.912-13.16-2.912-2.776 0-5.424.464-8 1.136V95.116c10.176 10.408 24.336 16.888 40 16.888 2.808 0 5.552-.272 8.248-.68l-27.088 59.592zM144 96.004c-22.056 0-40-17.944-40-40s17.944-40 40-40 40 17.944 40 40-17.944 40-40 40zM194.664 79.7C198.048 72.492 200 64.484 200 56.004c0-3.392-.352-6.696-.936-9.92l244.08 89.92H432v26.064c-7.4.952-14.784 2.248-22.056 3.864l-8.904-24.48-60.136 21.896 8.896 24.464a250.908 250.908 0 0 0-19.376 11.224l-16.76-19.976-14.728 12.36L194.664 79.7zm39.632 214.152l16-27.704 21.192 12.232 4.232-5.856a232.87 232.87 0 0 1 22.16-26.4l5.056-5.176-15.744-18.776 24.504-20.56 15.72 18.728 5.976-4.08c9.544-6.512 19.584-12.336 29.84-17.288l6.504-3.152-8.344-22.904 30.072-10.944 8.344 22.92 7.016-1.776a230.806 230.806 0 0 1 33.96-5.96l7.2-.72v-24.432h32v40.656c-5.32-.384-10.672-.656-15.984-.656-92.08 0-173.056 57.672-203.544 144h-16.832c2.584-7.896 5.448-15.736 8.872-23.32l2.976-6.592-21.176-12.24zM48 416.004c-17.648 0-32-14.352-32-32s14.352-32 32-32 32 14.352 32 32-14.352 32-32 32zm60.32 0H83.68c7.632-8.504 12.32-19.696 12.32-32s-4.688-23.496-12.32-32h24.648c-7.64 8.504-12.328 19.696-12.328 32 0 12.304 4.688 23.496 12.32 32zm35.68 0c-17.648 0-32-14.352-32-32s14.352-32 32-32 32 14.352 32 32-14.352 32-32 32zm60.32 0h-24.64c7.632-8.504 12.32-19.696 12.32-32s-4.688-23.496-12.32-32h24.648c-7.64 8.504-12.328 19.696-12.328 32 0 12.304 4.688 23.496 12.32 32zm35.68 0c-17.648 0-32-14.352-32-32s14.352-32 32-32 32 14.352 32 32-14.352 32-32 32zm60.32 0h-24.64c7.632-8.504 12.32-19.696 12.32-32s-4.688-23.496-12.32-32h24.648c-7.64 8.504-12.328 19.696-12.328 32 0 12.304 4.688 23.496 12.32 32zm35.68 0c-17.648 0-32-14.352-32-32s14.352-32 32-32 32 14.352 32 32-14.352 32-32 32zm60.32 0h-24.64c7.632-8.504 12.32-19.696 12.32-32s-4.688-23.496-12.32-32h24.648c-7.64 8.504-12.328 19.696-12.328 32 0 12.304 4.688 23.496 12.32 32zm35.68 0c-17.648 0-32-14.352-32-32s14.352-32 32-32 32 14.352 32 32-14.352 32-32 32zm48-32v32h-12.32c7.632-8.504 12.32-19.696 12.32-32 0-12.304-4.688-23.496-12.32-32H480v32zm0-126.944c-5.52-.632-10.88-1.056-16-1.056v16c5.056 0 10.416.472 16 1.176v62.824H348.848c21.936-35.168 58.44-58.448 100.032-63.072l-1.768-15.904c-49.768 5.536-93.016 34.944-116.744 78.976h-52.88c29.632-76.968 103.152-128 186.512-128 5.312 0 10.664.288 16 .712v48.344z"/><path d="M144 32.004c-13.232 0-24 10.768-24 24s10.768 24 24 24 24-10.768 24-24-10.768-24-24-24zm0 32c-4.416 0-8-3.584-8-8s3.584-8 8-8 8 3.584 8 8-3.584 8-8 8zm106.872 16.554l103.989 40-5.744 14.932-103.988-40zM40 376.004h16v16H40zm96 0h16v16h-16zm96 0h16v16h-16zm96 0h16v16h-16zm96 0h16v16h-16z"/></svg>