<svg xmlns="http://www.w3.org/2000/svg" viewBox="0 0 496 496"><path d="M448 192h-80c-8.824 0-16 7.176-16 16v176c0 8.824 7.176 16 16 16h80c8.824 0 16-7.176 16-16V208c0-8.824-7.176-16-16-16zm-80 192V208h80l.016 176H368zm40 32c-13.232 0-24 10.768-24 24s10.768 24 24 24 24-10.768 24-24-10.768-24-24-24zm0 32c-4.416 0-8-3.584-8-8s3.584-8 8-8 8 3.584 8 8-3.584 8-8 8z"/><path d="M0 0v256h208v192h-16v48h112v-48h-16V256h32v216c0 13.232 10.768 24 24 24h128c13.232 0 24-10.768 24-24V0H0zm288 480h-80v-16h80v16zm-64-80v-16h32v-16h-32v-16h32v-16h-32v-16h32v-16h-32v-16h32v-16h-32v-16h48v192h-48v-32h32v-16h-32zm96-216v24H48V48h400v112H344c-13.232 0-24 10.768-24 24zm160 64v224c0 4.416-3.584 8-8 8H344c-4.416 0-8-3.584-8-8V184c0-4.416 3.584-8 8-8h128c4.416 0 8 3.584 8 8v64zm0-86.528c-2.512-.896-5.184-1.472-8-1.472h-8V32H32v192h288v16H16V16h464v145.472z"/><path d="M264 144c-13.232 0-24 10.768-24 24s10.768 24 24 24 24-10.768 24-24-10.768-24-24-24zm0 32c-4.416 0-8-3.584-8-8s3.584-8 8-8 8 3.584 8 8-3.584 8-8 8zm-8-72c-30.872 0-56 25.128-56 56h16c0-22.056 17.944-40 40-40v-16z"/><path d="M256 80V64h-8c-52.936 0-96 43.064-96 96h16c0-44.112 35.888-80 80-80h8z"/></svg>