<svg xmlns="http://www.w3.org/2000/svg" viewBox="0 0 496 496"><path d="M32 384h64v-64H32v64zm16-48h32v32H48v-32zm64 48h64v-64h-64v64zm16-48h32v32h-32v-32zm-96-48h64v-64H32v64zm16-48h32v32H48v-32zm-16-48h64v-64H32v64zm16-48h32v32H48v-32zM32 96h64V32H32v64zm16-48h32v32H48V48z"/><path d="M480 88V0H344v10.112C334.92 3.76 323.896 0 312 0c-2.912 0-5.752.288-8.544.72C296.992.216 284.528 0 280 0c-25.792 0-50.144 6.016-72 16.44V0H0v496h207.992l.16-176.216c5.728 2.696 11.592 5.2 17.704 7.272 2.512 6.408 8.648 17.824 22.144 25.392V376h-16v16h16v72c0 17.648 14.352 32 32 32s32-14.352 32-32v-72h16v-16h-16v-23.544c13.496-7.568 19.64-18.984 22.144-25.392 3.36-1.136 6.608-2.456 9.856-3.784V496h152V88h-16zM360 16h104v72h-36.064C412.728 59.808 389.4 36.248 360 20.344V16zM259.736 83.2l33.928 88.208C296.56 178.936 303.928 184 312 184s15.44-5.064 18.336-12.592l32.8-85.264C386.64 110.216 400 139.496 400 168c0 66.168-53.832 120-120 120-27.032 0-51.92-9.088-72-24.224V72.12c13.984-10.536 30.352-18.096 48.28-21.688A58.174 58.174 0 0 0 256 56v7.088a55.852 55.852 0 0 0 3.736 20.112zM312 16c22.056 0 40 17.944 40 40v7.088c0 4.928-.896 9.76-2.664 14.36L315.4 165.656c-1.072 2.816-5.728 2.816-6.808 0l-33.928-88.2A39.985 39.985 0 0 1 272 63.088V56c0-22.056 17.944-40 40-40zM192.008 480H16V16h176v9.168c-5.544 3.432-10.904 7.12-16 11.152V32h-64v64h16.44C118.016 117.856 112 142.208 112 168c0 19.544 3.416 38.384 9.592 56H112v64h50.304a167.088 167.088 0 0 0 29.856 23.24L192.008 480zm-29.36-432c-9.76 9.552-18.264 20.328-25.48 32H128V48h34.648zM128 240h.16a166.392 166.392 0 0 0 19.808 32H128v-32zm168 224c0 8.824-7.176 16-16 16s-16-7.176-16-16v-72h32v72zm0-88h-32v-17.664c4.776 1.032 10.048 1.664 16 1.664s11.224-.632 16-1.664V376zm29.44-62.92l-4.288 1.344-1.088 4.36C319.024 322.992 312.176 344 280 344s-39.024-21.008-40.064-25.216l-1.088-4.36-4.288-1.344C170.824 293.136 128 234.832 128 168c0-81.272 64.16-147.656 144.464-151.616-4.888 4.872-8.848 10.664-11.68 17.056-25.928 3.672-49.288 14.6-68.216 30.56H192v.496C162.544 89.6 144 126.872 144 168c0 41.44 18.68 78.544 48 103.504V272h.544c23.664 19.936 54.16 32 87.456 32 74.992 0 136-61.008 136-136 0-35.392-17.616-71.488-48.256-99.632.168-1.752.256-3.512.256-5.28V56c0-4.512-.592-8.88-1.608-13.088C407.336 71.032 432 117.144 432 168c0 66.832-42.824 125.136-106.56 145.08zM192 86.584v162.728c-19.792-21.408-32-49.92-32-81.312 0-31.208 12.104-59.888 32-81.416zM480 480H360v-24h120v24zm0-40h-16V248h-16v192h-16v-32h-16v32h-56V315.76c53.664-28.872 88-84.88 88-147.76a168.8 168.8 0 0 0-12.584-64H480v336z"/><path d="M432 48h16v16h-16zM312 80c13.232 0 24-10.768 24-24s-10.768-24-24-24-24 10.768-24 24 10.768 24 24 24zm0-32c4.408 0 8 3.584 8 8s-3.592 8-8 8c-4.408 0-8-3.584-8-8s3.592-8 8-8zm136 168h16v16h-16zm-32 160h16v16h-16z"/></svg>