<svg xmlns="http://www.w3.org/2000/svg" viewBox="0 0 496 496"><path d="M437.08 225.152C442.768 234.048 452.68 240 464 240c17.648 0 32-14.352 32-32v-48c0-17.648-14.352-32-32-32-13.112 0-24.384 7.944-29.32 19.256C414.464 62.904 338.456 0 248 0S81.536 62.904 61.32 147.256C56.384 135.944 45.112 128 32 128c-17.648 0-32 14.352-32 32v48c0 17.648 14.352 32 32 32 11.32 0 21.232-5.952 26.92-14.848a190.264 190.264 0 0 0 10.792 37.976l-.152.488c.056.016.28.088.392.12 19.48 48.16 57.92 86.656 106.04 106.2V392H96c-52.936 0-96 43.064-96 96v8h496v-8c0-52.936-43.064-96-96-96h-80v-22.064c60.4-24.528 105.56-78.928 117.08-144.784zM448 160c0-8.824 7.176-16 16-16s16 7.176 16 16v48c0 8.824-7.176 16-16 16s-16-7.176-16-16v-48zM48 208c0 8.824-7.176 16-16 16s-16-7.176-16-16v-48c0-8.824 7.176-16 16-16s16 7.176 16 16v48zm367.864 36.92c-18.808 5.472-57.392 14.368-117.992 17.736-5.904-2.48-9.872-8.2-9.872-14.656v-48c0-8.824 7.176-16 16-16h43.632c25.632 8.224 48.128 10.472 64.688 10.472 4.288 0 8.176-.144 11.632-.368-.208 17.68-3.008 34.744-8.088 50.816zm-139.736 18.624c-9 .272-18.296.456-28.128.456-9.928 0-19.216-.136-28.208-.32C222.448 258.984 224 253.64 224 248v-48c0-17.648-14.352-32-32-32h-5.592c19.904-10.504 40.752-24.976 61.592-44.824 20.888 19.888 41.768 34.312 61.704 44.824H304c-17.648 0-32 14.352-32 32v48c0 5.584 1.52 10.88 4.128 15.544zM248 16c92.32 0 168.216 71.472 175.392 161.984-29.912 1.848-100.664-2.568-169.736-71.64L248 100.688l-5.656 5.656c-47.04 47.04-94.664 63.52-126.328 69.072-18.072 3.176-33.12 3.24-43.408 2.584C79.776 87.48 155.672 16 248 16zM72.056 194.096c16.784 1.088 44.064.304 76.408-10.096H192c8.824 0 16 7.176 16 16v48c0 6.728-4.232 12.728-10.536 15.016-64.384-2.52-100.976-9.352-115.496-12.712-6.208-17.632-9.68-36.536-9.912-56.208zM357.064 408H400c41.408 0 75.576 31.632 79.6 72H16.4c4.024-40.368 38.192-72 79.6-72h50.168c5.856 14.576 27.4 48 101.832 48 75.56 0 101.68-34.4 109.064-48zm-19.152 0c-10.256 12.656-34.928 32-89.912 32-55.608 0-76.384-19.736-83.96-32H192v-32.352c17.728 5.416 36.528 8.352 56 8.352s38.272-2.936 56-8.352V408h33.912zM248 368c-69.744 0-130.144-40.776-158.608-99.736C114.456 273.112 164.616 280 248 280c79.392 0 132.2-9.472 160.824-16.632C381.392 324.944 319.648 368 248 368z"/><path d="M112 248h80v-48h-80v48zm16-32h48v16h-48v-16zm176 32h80v-48h-80v48zm16-32h48v16h-48v-16zm-72 104c-33.048 0-41.008-11.896-41.08-12.016l-13.984 7.768c1.096 2.08 12 20.248 55.064 20.248s53.968-18.168 55.064-20.248l-13.984-7.768c-.072.12-8.032 12.016-41.08 12.016zM208 80V64c-62.952 0-109.04 80.648-110.976 84.08l13.944 7.84C111.4 155.168 154.304 80 208 80zm170.824 54.832l12.76-9.656C370.464 97.264 336.744 64 296 64v16c35.968 0 67.328 34.352 82.824 54.832zm14.208 21.088l13.944-7.84c-.112-.2-2.864-5.08-7.832-12.384l-13.224 9c4.544 6.696 7.08 11.184 7.112 11.224z"/></svg>