<svg xmlns="http://www.w3.org/2000/svg" viewBox="0 0 496 496"><path d="M423.392 296H456c22.056 0 40-17.944 40-40V128c0-22.056-17.944-40-40-40h-42.384c-36-53.064-96.8-88-165.616-88C154.04 0 75.048 65.152 53.712 152.64 48 147.32 40.4 144 32 144c-17.648 0-32 14.352-32 32v48c0 17.648 14.352 32 32 32 8.4 0 16-3.32 21.712-8.64C68.736 308.976 112.336 359.504 169.656 384H104C46.656 384 0 430.656 0 488v8h496v-8c0-57.344-46.656-104-104-104h-65.656c41.336-17.664 75.544-48.864 97.048-88zM48 224c0 8.824-7.176 16-16 16s-16-7.176-16-16v-48c0-8.824 7.176-16 16-16s16 7.176 16 16v48zM240 16.2v100.344c-53.144 50.608-143.288 52.76-173.248 51.952C81.304 84.56 152.872 19.952 240 16.2zm0 463.8H16.36c4.056-44.792 41.808-80 87.64-80h20.112c8.736 10.24 39.536 37.912 115.888 39.784V480zm0-56.208c-49.048-1.28-77.08-13.808-91.632-23.792H240v23.792zm.016-40C142.24 379.592 64 298.776 64 200c0-5.224.272-10.376.704-15.488 3.376.128 7.528.232 12.376.232 36.432 0 110.48-5.744 162.928-47.128v198.088c-50.6-2.968-64.024-33.376-64.592-34.736l-14.832 6c.712 1.768 17.488 41.48 79.432 44.712v32.112zM456 104c10.416 0 19.216 6.712 22.528 16H464v16h16v16h-16v16h16v16h-16v16h16v16h-16v16h16v16h-16v16h14.528c-3.312 9.288-12.112 16-22.528 16h-24.752A198.811 198.811 0 0 0 448 200c0-34.768-8.936-67.488-24.608-96H456zM256 16.2a182.756 182.756 0 0 1 40 6.192V48h-40V16.2zm0 47.8h40v16h-40V64zm0 32h40v12c0 11.032-8.976 20-20 20h-20V96zm0 48h20c19.848 0 36-16.152 36-36V27.496C382 53.552 432 121.04 432 200c0 28.656-6.592 55.8-18.328 80H336c-22.056 0-40 17.944-40 40v57.608a183.236 183.236 0 0 1-40 6.192V144zm104 256h32c45.832 0 83.584 35.208 87.64 80H360v-80zm-16 0v16h-48v16h48v16h-48v16h48v16h-88v-80h88zm-32-27.496V320c0-13.232 10.768-24 24-24h68.896c-21.392 34.848-54.064 62.048-92.896 76.504z"/><path d="M376 416h16v16h-16zm32 0h16v16h-16zM184 184h16v40h-16zm160 80c30.88 0 56-25.128 56-56s-25.12-56-56-56-56 25.128-56 56 25.12 56 56 56zm0-16c-10.128 0-19.28-3.904-26.336-10.128C322.6 234.928 330.784 232 344 232c13.24 0 21.432 2.944 26.344 5.856C363.288 244.088 354.128 248 344 248zm0-80c10.128 0 19.28 3.904 26.336 10.128C365.4 181.072 357.216 184 344 184c-13.24 0-21.432-2.944-26.344-5.856C324.712 171.912 333.872 168 344 168zm-36.04 22.952C315.168 195.656 326.52 200 344 200s28.832-4.344 36.04-9.048C382.504 196.144 384 201.88 384 208s-1.496 11.856-3.96 17.048C372.832 220.344 361.48 216 344 216s-28.832 4.344-36.04 9.048C305.496 219.856 304 214.12 304 208s1.496-11.856 3.96-17.048z"/></svg>