<svg xmlns="http://www.w3.org/2000/svg" viewBox="0 0 496 496"><path d="M448.356 208a207.546 207.546 0 0 0-7.344-27.424l37.992-21.936-40-69.28-38.016 21.952a211.263 211.263 0 0 0-20.072-20.072l21.952-38.016-69.28-40-21.936 37.992a208.788 208.788 0 0 0-27.424-7.344V0h-80v43.872c-85.912 16.792-153.08 87.248-165.664 174.2L11.532 234.28c-4.848 2.92-7.76 8.048-7.76 13.72s2.904 10.8 7.768 13.72l26.88 16.128c11.296 78.592 66.352 143.592 141.808 167.968V496h128v-50.136c1.136-.368 2.288-.696 3.424-1.088l21.936 37.992 69.28-40-21.952-38.016a211.263 211.263 0 0 0 20.072-20.072l38.016 21.952 40-69.28-37.992-21.936a207.546 207.546 0 0 0 7.344-27.424h43.872V208h-43.872zM83.324 143.992h88.904V144c4.416 0 8 3.584 8 8v40.912a8.001 8.001 0 0 1-7.528 7.984l-116 6.824c4.944-23.016 14.16-44.496 26.624-63.728zM151.156 128c7.576-5.904 15.608-11.048 24.048-15.368l6.52 14.632c-1.08.56-2.176 1.08-3.24 1.664-2.016-.544-4.08-.928-6.256-.928h-21.072zm141.072 352h-96v-29.68c15.656 3.704 31.736 5.68 48 5.68 16.232 0 32.312-1.984 48-5.712V480zm184-208h-41.4l-1.08 6.728a191.153 191.153 0 0 1-10.016 37.432l-2.424 6.368 35.832 20.688-24 41.56-35.84-20.696-4.304 5.264a193.474 193.474 0 0 1-27.416 27.416l-5.264 4.304 20.696 35.84-41.56 24-20.696-35.832-6.368 2.424a192.41 192.41 0 0 1-14.4 4.832c-34.856 10.176-72.792 10.152-107.48.048-54.488-15.848-98-54.52-120.792-104.376h46.512v-16H63.236c-4.504-12.8-7.736-26.192-9.456-40.032l-.488-3.864L19.772 248l33.656-20.184.488-3.864c0-.008 0-.024.008-.032l119.704-7.048c2.264-.128 4.4-.672 6.448-1.384-4.976 9.776-7.848 20.8-7.848 32.512 0 39.704 32.296 72 72 72s72-32.296 72-72-32.296-72-72-72c-18.528 0-35.392 7.096-48.168 18.64.04-.584.168-1.136.168-1.728V152c0-4.552-1.344-8.76-3.552-12.392C208.684 132 226.356 128 244.228 128c66.168 0 120 53.832 120 120s-53.832 120-120 120c-11.856 0-23.48-1.808-34.688-5.192 2.104-13.936-8.6-29.488-26.744-37.392-20.704-9-42.072-4.192-48.68 10.984-6.592 15.16 4.44 34.096 25.12 43.104 7.048 3.064 14.168 4.528 20.76 4.528 8.48 0 16.04-2.472 21.472-7.032a134.985 134.985 0 0 0 34.768 6.648V416h8c92.632 0 168-75.368 168-168s-75.368-168-168-168c-44.32 0-85.816 17.088-117.384 48H94.804c29.096-36.216 70.952-61.84 118.704-69.52l6.72-1.088V16h48v41.4l6.728 1.08a191.153 191.153 0 0 1 37.432 10.016l6.368 2.424 20.696-35.832 41.56 24-20.696 35.84 5.264 4.304a193.474 193.474 0 0 1 27.416 27.416l4.304 5.264 35.84-20.696 24 41.56-35.832 20.696 2.424 6.368a191.153 191.153 0 0 1 10.016 37.432l1.08 6.728h41.4v48zm-288-24c0-30.872 25.128-56 56-56s56 25.128 56 56-25.128 56-56 56-56-25.128-56-56zm1.592-141.856a149.052 149.052 0 0 1 15.04-4.856l3.32 15.616a137.45 137.45 0 0 0-11.856 3.848l-6.504-14.608zm30.712-8.136a154.735 154.735 0 0 1 15.696-1.616v15.864c-4.152.248-8.28.72-12.384 1.344l-3.312-15.592zm31.696 14.4v-16c5.312.28 10.536.816 15.696 1.632l-3.336 15.656a133.86 133.86 0 0 0-12.36-1.288zM280.252 117l3.328-15.648a150.869 150.869 0 0 1 15.016 4.872l-6.52 14.632A131.644 131.644 0 0 0 280.252 117zm26.456 10.328l6.504-14.608a153.21 153.21 0 0 1 13.68 7.888l-9.424 12.976a135.538 135.538 0 0 0-10.76-6.256zm43.664 205.48c2.592-3.24 5.056-6.576 7.344-10.048l13.92 8.032c-2.888 4.424-6.04 8.648-9.36 12.736l-11.904-10.72zm1.16 22.568a154.395 154.395 0 0 1-11.744 10.544l-9.328-12.84c3.208-2.64 6.28-5.44 9.24-8.36l11.832 10.656zm14.136-46.496a135.158 135.158 0 0 0 5.088-11.352l15.256 4.96c-1.904 4.928-4.016 9.76-6.4 14.44l-13.944-8.048zm10.008-26.584c1.04-3.992 1.904-8.04 2.584-12.168l15.928 1.672a149.612 149.612 0 0 1-3.256 15.456l-15.256-4.96zm4.24-28.072c.088-2.08.312-4.12.312-6.224s-.224-4.144-.312-6.224l15.912-1.672c.136 2.632.4 5.232.4 7.896s-.248 5.264-.384 7.896l-15.928-1.672zm-1.656-28.352a135.662 135.662 0 0 0-2.584-12.168l15.232-4.952c1.352 5.056 2.44 10.2 3.272 15.448l-15.92 1.672zm-7.504-27.4a132.625 132.625 0 0 0-5.088-11.352l13.88-8.016a148.32 148.32 0 0 1 6.416 14.424l-15.208 4.944zm-13.04-25.232c-2.288-3.472-4.752-6.808-7.344-10.048l11.92-10.736c3.312 4.088 6.384 8.368 9.264 12.784l-13.84 8zm-18.024-21.96c-2.96-2.92-6.024-5.72-9.24-8.36l9.392-12.928c4.096 3.328 8.048 6.816 11.776 10.544l-11.928 10.744zm-12.84 224.056a152.961 152.961 0 0 1-13.648 7.92l-6.496-14.584a135.538 135.538 0 0 0 10.76-6.256l9.384 12.92zm-28.248 14.48c-4.888 1.872-9.88 3.544-15.008 4.92l-3.344-15.728c4.024-1.112 7.96-2.4 11.824-3.856l6.528 14.664zm-30.656 8.288c-5.168.816-10.4 1.408-15.72 1.68v-16.192c4.176-.248 8.296-.672 12.36-1.288l3.36 15.8zm-74.704-35.952c-2.552 5.84-14.504 8.384-27.616 2.68-13.096-5.704-19.384-16.192-16.832-22.048 1.544-3.56 6.584-5.896 13.24-5.896 4.288 0 9.24.968 14.376 3.2 13.088 5.704 19.376 16.2 16.832 22.064z"/><path d="M84.228 160h16v16h-16zm32 0h48v16h-48z"/></svg>