<svg xmlns="http://www.w3.org/2000/svg" viewBox="0 0 496 496"><path d="M336 144h16v16h-16zM144 336h16v16h-16zm192 0h16v16h-16zM144 144h16v16h-16z"/><path d="M448 400c-10.352 0-19.92 3.328-27.768 8.92L384 372.688V336h25.136c3.576 13.768 15.992 24 30.864 24 17.648 0 32-14.352 32-32s-14.352-32-32-32c-14.872 0-27.288 10.232-30.864 24H384v-64h25.136c3.576 13.768 15.992 24 30.864 24 17.648 0 32-14.352 32-32s-14.352-32-32-32c-14.872 0-27.288 10.232-30.864 24H384v-64h25.136c3.576 13.768 15.992 24 30.864 24 17.648 0 32-14.352 32-32s-14.352-32-32-32c-14.872 0-27.288 10.232-30.864 24H384v-36.688l36.232-36.232C428.08 92.672 437.648 96 448 96c26.472 0 48-21.528 48-48S474.472 0 448 0s-48 21.528-48 48c0 10.352 3.328 19.92 8.92 27.768L372.688 112H336V86.864c13.768-3.576 24-15.992 24-30.864 0-17.648-14.352-32-32-32s-32 14.352-32 32c0 14.872 10.232 27.288 24 30.864V112h-64V86.864c13.768-3.576 24-15.992 24-30.864 0-17.648-14.352-32-32-32s-32 14.352-32 32c0 14.872 10.232 27.288 24 30.864V112h-64V86.864c13.768-3.576 24-15.992 24-30.864 0-17.648-14.352-32-32-32s-32 14.352-32 32c0 14.872 10.232 27.288 24 30.864V112h-37.096L84.032 79.608C91.456 71.152 96 60.112 96 48 96 21.528 74.472 0 48 0S0 21.528 0 48s21.528 48 48 48c8.48 0 16.44-2.232 23.368-6.112L112 123.752V160H86.864C83.288 146.232 70.872 136 56 136c-17.648 0-32 14.352-32 32s14.352 32 32 32c14.872 0 27.288-10.232 30.864-24H112v64H86.864C83.288 226.232 70.872 216 56 216c-17.648 0-32 14.352-32 32s14.352 32 32 32c14.872 0 27.288-10.232 30.864-24H112v64H86.864C83.288 306.232 70.872 296 56 296c-17.648 0-32 14.352-32 32s14.352 32 32 32c14.872 0 27.288-10.232 30.864-24H112v36.248l-40.632 33.864C64.44 402.232 56.48 400 48 400c-26.472 0-48 21.528-48 48s21.528 48 48 48 48-21.528 48-48c0-12.112-4.544-23.152-11.968-31.608L122.904 384H160v25.136c-13.768 3.576-24 15.992-24 30.864 0 17.648 14.352 32 32 32s32-14.352 32-32c0-14.872-10.232-27.288-24-30.864V384h64v25.136c-13.768 3.576-24 15.992-24 30.864 0 17.648 14.352 32 32 32s32-14.352 32-32c0-14.872-10.232-27.288-24-30.864V384h64v25.136c-13.768 3.576-24 15.992-24 30.864 0 17.648 14.352 32 32 32s32-14.352 32-32c0-14.872-10.232-27.288-24-30.864V384h36.688l36.232 36.232C403.328 428.08 400 437.648 400 448c0 26.472 21.528 48 48 48s48-21.528 48-48-21.528-48-48-48zm-8-88c8.824 0 16 7.176 16 16s-7.176 16-16 16-16-7.176-16-16 7.176-16 16-16zm0-80c8.824 0 16 7.176 16 16s-7.176 16-16 16-16-7.176-16-16 7.176-16 16-16zm0-80c8.824 0 16 7.176 16 16s-7.176 16-16 16-16-7.176-16-16 7.176-16 16-16zm8-136c17.648 0 32 14.352 32 32s-14.352 32-32 32-32-14.352-32-32 14.352-32 32-32zM48 80c-17.648 0-32-14.352-32-32s14.352-32 32-32 32 14.352 32 32-14.352 32-32 32zm8 104c-8.824 0-16-7.176-16-16s7.176-16 16-16 16 7.176 16 16-7.176 16-16 16zm0 80c-8.824 0-16-7.176-16-16s7.176-16 16-16 16 7.176 16 16-7.176 16-16 16zm0 80c-8.824 0-16-7.176-16-16s7.176-16 16-16 16 7.176 16 16-7.176 16-16 16zm-8 136c-17.648 0-32-14.352-32-32s14.352-32 32-32 32 14.352 32 32-14.352 32-32 32zM312 56c0-8.824 7.176-16 16-16s16 7.176 16 16-7.176 16-16 16-16-7.176-16-16zm-80 0c0-8.824 7.176-16 16-16s16 7.176 16 16-7.176 16-16 16-16-7.176-16-16zm-80 0c0-8.824 7.176-16 16-16s16 7.176 16 16-7.176 16-16 16-16-7.176-16-16zm32 384c0 8.824-7.176 16-16 16s-16-7.176-16-16 7.176-16 16-16 16 7.176 16 16zm80 0c0 8.824-7.176 16-16 16s-16-7.176-16-16 7.176-16 16-16 16 7.176 16 16zm80 0c0 8.824-7.176 16-16 16s-16-7.176-16-16 7.176-16 16-16 16 7.176 16 16zm24-72H128V128h240v240zm80 112c-17.648 0-32-14.352-32-32s14.352-32 32-32 32 14.352 32 32-14.352 32-32 32z"/><path d="M320 216h-16v-16c0-30.872-25.128-56-56-56s-56 25.128-56 56v16h-16v136h144V216zm-112-16c0-22.056 17.944-40 40-40s40 17.944 40 40v16h-80v-16zm96 136h-48v-25.136c13.768-3.576 24-15.992 24-30.864 0-17.648-14.352-32-32-32s-32 14.352-32 32c0 14.872 10.232 27.288 24 30.864V336h-48V232h112v104zm-56-40c-8.824 0-16-7.176-16-16s7.176-16 16-16 16 7.176 16 16-7.176 16-16 16z"/></svg>