<svg xmlns="http://www.w3.org/2000/svg" viewBox="0 0 495.849 495.849"><path d="M484.75 353.069l2.368-2.368c4.536-4.528 7.032-10.56 7.032-16.976 0-6.408-2.496-12.44-7.032-16.968-9.368-9.368-24.592-9.36-33.944 0l-2.376 2.376c-31.6-17.648-71.192-13.968-99.04 9.096-12.848-13.816-21.112-26.224-23.84-30.552v-69.728c0-8.824-7.176-16-16-16H284.71c-2.552-5.04-7.032-14.744-11.192-27.824 28.664-8.672 50.952-31.272 59.096-60.176h3.312c13.232 0 24-10.768 24-24s-10.768-24-24-24h-3.36c-10.6-37.448-45.168-64-84.64-64s-74.04 26.552-84.64 64h-3.36c-13.232 0-24 10.768-24 24s10.768 24 24 24h3.312c8.144 28.896 30.416 51.496 59.064 60.168-4.16 13.064-8.632 22.784-11.176 27.832h-27.2c-8.824 0-16 7.176-16 16v69.72c-2.728 4.328-10.992 16.736-23.84 30.552-27.808-23.032-67.496-26.68-99.04-9.096l-2.376-2.376c-9.36-9.36-24.584-9.368-33.944 0-4.536 4.528-7.032 10.56-7.032 16.968 0 6.416 2.496 12.448 7.032 16.968l2.376 2.376c-18.976 33.984-13.312 77.2 14.592 105.112 16.96 16.96 39.592 25.728 62.352 25.728 14.696 0 29.456-3.656 42.784-11.104l2.344 2.344c4.68 4.68 10.824 7.016 16.976 7.016 6.144 0 12.288-2.336 16.968-7.016 4.536-4.528 7.032-10.56 7.032-16.968 0-6.416-2.496-12.448-7.032-16.968l-2.464-2.464c12.024-21.488 14.48-46.752 6.808-70.128 25.88-10.728 55.48-20.664 76.464-20.664 20.968 0 50.576 9.936 76.464 20.672-7.672 23.376-5.216 48.632 6.808 70.12l-2.456 2.456c-4.536 4.528-7.032 10.56-7.032 16.976 0 6.408 2.496 12.44 7.032 16.968 4.68 4.68 10.824 7.016 16.968 7.016 6.152 0 12.296-2.336 16.976-7.016l2.344-2.344c13.328 7.448 28.08 11.104 42.784 11.104 22.768-.008 45.392-8.768 62.352-25.728 27.887-27.904 33.559-71.12 14.584-105.104zm-20.264-25.008c3.12-3.12 8.2-3.12 11.32.008a7.946 7.946 0 0 1 2.344 5.656 7.932 7.932 0 0 1-2.344 5.656l-40.4 40.4c-1.36-2.304-2.912-4.512-4.856-6.456-1.944-1.952-4.184-3.464-6.528-4.792l40.464-40.472zm-25.568 2.952l-33.464 33.464c-.792.056-1.576.104-2.36.216l.032-.072c-.24-.104-21.8-9.672-39.816-25.112 21.496-16.968 51-20.24 75.608-8.496zm-14.992 64.936c0 4.272-1.664 8.288-4.688 11.312-6.048 6.048-16.576 6.048-22.624 0a15.891 15.891 0 0 1-4.688-11.312c0-4.272 1.664-8.288 4.688-11.312a15.891 15.891 0 0 1 11.312-4.688c4.272 0 8.288 1.664 11.312 4.688a15.891 15.891 0 0 1 4.688 11.312zM269.214 168.573c-2.84-12.096-4.904-26.032-5.192-41.12a31.76 31.76 0 0 0 4.848-3.496h46.92c-7.536 21.408-24.784 37.896-46.576 44.616zm-21.496-36.648c.072 0 .136.024.208.024s.136-.024.208-.024c1.416 35.8 11.904 64.664 18.84 80.024h-38.088c6.928-15.36 17.416-44.224 18.832-80.024zm-15.792-31.976c0-8.824 7.176-16 16-16s16 7.176 16 16-7.176 16-16 16-16-7.176-16-16zm104-8c4.408 0 8 3.584 8 8s-3.592 8-8 8H278.79c.672-2.576 1.136-5.224 1.136-8s-.464-5.424-1.136-8h57.136zm-88-64c30.736 0 57.808 19.696 67.832 48H268.87c-5.632-4.92-12.904-8-20.944-8s-15.312 3.08-20.944 8h-46.888c10.024-28.304 37.096-48 67.832-48zm-88 80c-4.408 0-8-3.584-8-8s3.592-8 8-8h57.136c-.672 2.576-1.136 5.224-1.136 8s.464 5.424 1.136 8h-57.136zm20.144 16h46.92a32.159 32.159 0 0 0 4.848 3.496c-.296 15.064-2.368 29.008-5.216 41.12-21.792-6.728-39.024-23.208-46.552-44.616zm3.856 104h128l.008 80H183.926v-80zm-51.376 111.56c-18.016 15.448-39.584 25.008-39.824 25.112l.032.072c-.784-.112-1.568-.16-2.36-.216l-33.464-33.464c24.568-11.696 54.128-8.456 75.616 8.496zm-28.624 56.44c0 4.272-1.664 8.288-4.688 11.312-6.048 6.048-16.576 6.048-22.624 0a15.891 15.891 0 0 1-4.688-11.312c0-4.272 1.664-8.288 4.688-11.312a15.891 15.891 0 0 1 11.312-4.688c4.272 0 8.288 1.664 11.312 4.688s4.688 7.04 4.688 11.312zm-83.88-67.88c3.128-3.128 8.2-3.128 11.32 0l40.464 40.472c-2.336 1.32-4.576 2.84-6.528 4.792-1.944 1.944-3.496 4.152-4.856 6.456l-40.4-40.408a7.925 7.925 0 0 1-2.336-5.648 7.906 7.906 0 0 1 2.336-5.664zm16.968 118.792c-21.728-21.728-26.944-54.808-14.024-81.912l33.144 33.144c.52 7.728 3.64 14.952 9.168 20.472 5.528 5.528 12.752 8.648 20.48 9.168l33.144 33.144c-27.112 12.936-60.184 7.728-81.912-14.016zm118.792 16.968c-3.12 3.128-8.192 3.128-11.32 0l-40.4-40.4c2.304-1.36 4.512-2.912 6.456-4.856 1.944-1.944 3.496-4.152 4.856-6.456l40.408 40.408a7.925 7.925 0 0 1 2.336 5.648 7.905 7.905 0 0 1-2.336 5.656zm-2.92-36.856l-33.168-33.168c-.016-.296-.056-.592-.088-.88 6.408-3.36 20.24-10.416 37.144-17.968 5.303 17.288 3.904 35.776-3.888 52.016zm95.04-95.024c-42.6 0-112.744 34.808-133.768 45.76-1.032-1.48-2.168-2.896-3.456-4.2 10.584-5.728 26.488-15.52 39.448-28.472 9.464-9.464 16.912-18.6 22.36-25.912 2.904 2.968 6.944 4.824 11.416 4.824h128c4.472 0 8.512-1.856 11.416-4.824 5.448 7.304 12.888 16.44 22.36 25.912 12.96 12.96 28.864 22.744 39.448 28.472-1.288 1.304-2.424 2.72-3.456 4.2-21.024-10.952-91.168-45.76-133.768-45.76zm91.152 43.008c16.904 7.552 30.736 14.608 37.144 17.968-.024.296-.064.584-.088.88l-33.168 33.168c-7.793-16.24-9.192-34.728-3.888-52.016zm12.28 88.872c-3.112 3.128-8.192 3.128-11.312 0a7.946 7.946 0 0 1-2.344-5.656c0-2.144.832-4.144 2.344-5.656l40.4-40.4c1.36 2.304 2.912 4.512 4.856 6.456 1.944 1.944 4.152 3.496 6.456 4.856l-40.4 40.4zm107.479-16.968c-21.728 21.728-54.8 26.952-81.904 14.024l33.144-33.144c7.728-.512 14.952-3.632 20.48-9.168 5.528-5.52 8.648-12.744 9.168-20.472l33.144-33.144c12.921 27.096 7.705 60.176-14.032 81.904z"/><path d="M247.926 243.949c-13.232 0-24 10.768-24 24s10.768 24 24 24 24-10.768 24-24-10.768-24-24-24zm0 32c-4.408 0-8-3.584-8-8s3.592-8 8-8 8 3.584 8 8-3.592 8-8 8zM203.174 54.237l11.184 11.44a48.112 48.112 0 0 1 8.864-6.856l-8.24-13.728a64.43 64.43 0 0 0-11.808 9.144zm44.752-2.288c12.608 0 24.528 4.864 33.56 13.72l11.192-11.44c-12.04-11.784-27.928-18.28-44.752-18.28-6.232 0-12.384.896-18.296 2.664l4.584 15.328a47.94 47.94 0 0 1 13.712-1.992zm-208 344h-16c0 23.328 12.704 44.824 33.168 56.096l7.712-14.016c-15.344-8.456-24.88-24.576-24.88-42.08zm32.384 62.08a64.118 64.118 0 0 0 15.616 1.92v-16c-3.984 0-7.92-.488-11.704-1.44l-3.912 15.52zm335.616-14.08v16c22.6 0 43.08-11.56 54.8-30.92l-13.688-8.28c-8.792 14.528-24.16 23.2-41.112 23.2zm46.048-34.408l15.352 4.512a63.912 63.912 0 0 0 2.6-18.104h-16c0 4.624-.656 9.2-1.952 13.592z"/></svg>