<svg xmlns="http://www.w3.org/2000/svg" viewBox="0 0 496 496"><path d="M248 0c-8.024 0-16.04.52-24 1.288V0h-64v22.032c-1.112.44-2.216.896-3.32 1.392L141.088 7.84l-41.84 41.832-.064-.08C36.152 96.936 0 169.256 0 248c0 100.728 59.52 189.768 152 228.576V496h176v-13.36C428.688 448.384 496 354.928 496 248 496 111.248 384.744 0 248 0zm-24 17.352c3.424-.352 6.84-.696 10.288-.896l-6.968 6.968a78.932 78.932 0 0 0-3.32-1.392v-4.68zm-82.912 13.112l12.44 12.448 5.208-2.72c3.872-2.024 7.8-3.664 11.664-4.88l5.6-1.776V16h32v17.536l5.6 1.768c3.864 1.216 7.792 2.856 11.664 4.88l5.208 2.72 12.44-12.448 22.632 22.624-12.448 12.448 2.72 5.2c2.016 3.856 3.656 7.784 4.88 11.672l1.768 5.6H280v32h-17.536l-1.76 5.592c-1.224 3.888-2.864 7.816-4.88 11.672l-2.72 5.2 12.448 12.448-22.632 22.624-12.44-12.448-5.208 2.72c-.416.216-.84.384-1.264.592v-18.584c14.872-10.416 24-27.504 24-45.824 0-30.872-25.12-56-56-56s-56 25.128-56 56c0 18.32 9.128 35.408 24 45.824v18.576c-.416-.208-.84-.376-1.264-.592l-5.208-2.72-12.44 12.448-22.632-22.624 12.448-12.448-2.72-5.2c-2.016-3.856-3.656-7.784-4.88-11.672L121.536 120H104V88h17.536l1.76-5.592c1.224-3.888 2.864-7.816 4.88-11.672l2.72-5.2-12.448-12.448 22.64-22.624zM336 256c-6.584 0-12.704 2-17.8 5.416C313.824 248.96 301.936 240 288 240c-6.584 0-12.704 2-17.8 5.416C265.824 232.96 253.936 224 240 224a31.757 31.757 0 0 0-16 4.296v-42.328a78.932 78.932 0 0 0 3.32-1.392l15.592 15.584 45.256-45.248-15.584-15.584a97.963 97.963 0 0 0 1.392-3.328H296V72h-22.024a97.963 97.963 0 0 0-1.392-3.328l2.544-2.544C364.824 79.392 432 156.768 432 248c0 54.216-23.712 105-64.344 139.776.104-1.264.344-2.488.344-3.776v-96c0-17.648-14.352-32-32-32zM192 72c-17.648 0-32 14.352-32 32 0 4.16.856 8.208 2.384 11.992-1.504 3.696-2.368 7.72-2.376 11.952C154.912 121.12 152 112.744 152 104c0-22.056 17.944-40 40-40s40 17.944 40 40c0 8.752-2.912 17.12-8.008 23.944-.008-4.232-.872-8.248-2.376-11.952C223.152 112.208 224 108.16 224 104c0-17.648-14.352-32-32-32zm15.488 28.168C202.872 97.592 197.648 96 192 96s-10.872 1.592-15.488 4.168C178.24 93.2 184.504 88 192 88c7.496 0 13.76 5.2 15.488 12.168zm-66.392 99.992l15.592-15.584c1.104.496 2.208.952 3.32 1.392v66.328H160A31.757 31.757 0 0 0 144 248c-17.648 0-32 14.352-32 32v91.896c-30.704-33.72-48-77.88-48-123.912C64 207.056 77.152 168.36 102.016 136h8.016c.44 1.112.904 2.216 1.392 3.328L95.84 154.912l45.256 45.248zM106.752 64.008l4.664 4.664A146.94 146.94 0 0 0 110.024 72H96.872c3.208-2.744 6.512-5.4 9.88-7.992zM152 459.112C69.04 421.496 16 339.96 16 248c0-64.512 25.944-124.408 72-168.048v48.176c-26.12 34.792-40 76.144-40 119.856 0 56.456 23.96 110.28 65.752 148.184 4.76 18.04 19.608 32.032 38.248 35.168v27.776zM320 416h-8v64H168v-64h-8c-17.648 0-32-14.352-32-32V280c0-8.824 7.176-16 16-16s16 7.176 16 16v32h16V128c0-8.824 7.176-16 16-16s16 7.176 16 16v216h16v-88c0-8.824 7.176-16 16-16s16 7.176 16 16v88h16v-72c0-8.824 7.176-16 16-16s16 7.176 16 16v72h16v-56c0-8.824 7.176-16 16-16s16 7.176 16 16v96c0 17.648-14.352 32-32 32zm8 49.656v-34.32c12.072-2.032 22.52-8.672 29.752-17.944l.848 1.272C414.576 377.44 448 315.136 448 248c0-95.888-68.28-177.68-160.952-196.032L251.152 16.08C377.624 17.784 480 121.136 480 248c0 98.192-60.688 184.208-152 217.656z"/><path d="M308.432 126.312c5.056 2.512 10 5.376 14.704 8.496l8.864-13.32a152.512 152.512 0 0 0-16.44-9.504l-7.128 14.328zM400 248c0-44.936-19.8-87.32-54.32-116.28l-10.28 12.264C366.288 169.888 384 207.808 384 248h16z"/></svg>