<svg xmlns="http://www.w3.org/2000/svg" viewBox="0 0 496 496"><path d="M280 96c0 13.232 10.768 24 24 24s24-10.768 24-24-10.768-24-24-24-24 10.768-24 24zm32 0c0 4.408-3.592 8-8 8-4.408 0-8-3.592-8-8s3.592-8 8-8c4.408 0 8 3.592 8 8zm-144 0c0 13.232 10.768 24 24 24s24-10.768 24-24-10.768-24-24-24-24 10.768-24 24zm32 0c0 4.408-3.592 8-8 8s-8-3.592-8-8 3.592-8 8-8 8 3.592 8 8zm16 280h24v16h-24zm40 0h24v16h-24z"/><path d="M472 232h-56v-16H296v-24h64c13.232 0 24-10.768 24-24v-32h32V56h-32V24c0-13.232-10.768-24-24-24H136c-13.232 0-24 10.768-24 24v32H80v80h32v32c0 13.232 10.768 24 24 24h64v24H80v16H24c-13.232 0-24 10.768-24 24v128c0 13.232 10.768 24 24 24h8v88h16v-88h32v88h336v-88h32v88h16v-88h8c13.232 0 24-10.768 24-24V256c0-13.232-10.768-24-24-24zM384 72h16v48h-16V72zm-272 48H96V72h16v48zM80 392H24c-4.408 0-8-3.592-8-8V256c0-4.408 3.592-8 8-8h8v128h16V248h32v144zm48-336V24c0-4.408 3.592-8 8-8h224c4.408 0 8 3.592 8 8v64h-16.72c-3.832-22.664-23.544-40-47.28-40s-43.448 17.336-47.28 40h-17.44c-3.832-22.664-23.544-40-47.28-40s-43.448 17.336-47.28 40H128V56zm208 40c0 17.648-14.352 32-32 32s-32-14.352-32-32 14.352-32 32-32 32 14.352 32 32zm-112 0c0 17.648-14.352 32-32 32s-32-14.352-32-32 14.352-32 32-32 32 14.352 32 32zm-88 80c-4.408 0-8-3.592-8-8v-64h16.72c3.824 22.664 23.536 40 47.28 40s43.448-17.336 47.28-40h17.448c3.824 22.664 23.536 40 47.28 40s43.448-17.336 47.28-40H368v64c0 4.408-3.592 8-8 8H136zm144 16v24h-64v-24h64zm54.176 40c-14.096 13.168-41.92 32-86.176 32s-72.08-18.832-86.176-32h172.352zM197.12 320l-29.048-62.936C186.104 268.944 212.36 280 248 280s61.896-11.056 79.928-22.936L298.88 320H197.12zM296 336v64c0 4.408-3.592 8-8 8h-80c-4.408 0-8-3.592-8-8v-64h96zM96 232h42.88L184 329.76v41.88c-62.04-7.304-84.472-52.976-88-61.224V232zm304 216h-16v16h16v16H96v-16h272v-16H96V340.76c14.936 19.04 42.248 42.144 88 46.944V400c0 13.232 10.768 24 24 24h80c13.232 0 24-10.768 24-24v-12.296c45.752-4.8 73.064-27.904 88-46.944V448zm0-137.616c-3.384 7.768-26.208 53.896-88 61.248V329.76L357.12 232H400v78.384zM480 384c0 4.408-3.592 8-8 8h-56V248h32v96h16v-96h8c4.408 0 8 3.592 8 8v128z"/><path d="M448 360h16v16h-16z"/></svg>