<svg xmlns="http://www.w3.org/2000/svg" viewBox="0 0 496 496"><path d="M448 280v-16h16c17.648 0 32-14.352 32-32v-64c0-17.648-14.352-32-32-32h-16v-16C448 53.832 394.168 0 328 0H168C101.832 0 48 53.832 48 120v16H32c-17.648 0-32 14.352-32 32v64c0 17.648 14.352 32 32 32h16v16c0 44.464 24.368 83.272 60.392 104H104C46.656 384 0 430.656 0 488v8h496v-8c0-57.344-46.656-104-104-104h-4.392C423.632 363.272 448 324.464 448 280zm0-72v-56h16c8.824 0 16 7.176 16 16v64c0 8.824-7.176 16-16 16h-16v-40zM48 192v56H32c-8.824 0-16-7.176-16-16v-64c0-8.824 7.176-16 16-16h16v40zM328 16c57.344 0 104 46.656 104 104v24.208C417.4 124.704 394.184 112 368 112h-72V32c0-5.856-1.696-11.272-4.448-16H328zM216 48h16V32h-16c0-8.824 7.176-16 16-16h32c8.824 0 16 7.176 16 16h-32v16h32v16h-64V48zm0 48V80h64v16h-16v16h16c0 8.824-7.176 16-16 16h-32c-8.824 0-16-7.176-16-16h32V96h-32zM64 120c0-57.344 46.656-104 104-104h36.448C201.696 20.728 200 26.144 200 32v80h-72c-26.184 0-49.4 12.704-64 32.208V120zm0 72c0-35.288 28.712-64 64-64h76.448c5.552 9.52 15.76 16 27.552 16h32c11.792 0 22-6.48 27.552-16H368c35.288 0 64 28.712 64 64v16c0 35.288-28.712 64-64 64H128c-35.288 0-64-28.712-64-64v-16zm0 88v-24.208C78.6 275.296 101.816 288 128 288h240c26.184 0 49.4-12.704 64-32.208V280c0 11.168-1.816 21.912-5.088 32H336c-13.232 0-24 10.768-24 24v48H184v-48c0-13.232-10.768-24-24-24H69.088C65.816 301.912 64 291.168 64 280zm11.832 48H160c4.408 0 8 3.584 8 8v48c-40.032 0-74.792-22.768-92.168-56zM392 400c45.832 0 83.584 35.208 87.64 80H16.36c4.056-44.792 41.808-80 87.64-80h288zm-64-16v-48c0-4.416 3.592-8 8-8h84.168c-17.376 33.232-52.136 56-92.168 56z"/><path d="M136 256c30.88 0 56-25.128 56-56s-25.12-56-56-56-56 25.128-56 56 25.12 56 56 56zm8-95.192C159.648 164 172 176.352 175.192 192H144v-31.192zM144 208h31.192C172 223.648 159.648 236 144 239.192V208zm-16-47.192V192H96.808C100 176.352 112.352 164 128 160.808zM128 208v31.192C112.352 236 100 223.648 96.808 208H128zm232 48c30.88 0 56-25.128 56-56s-25.12-56-56-56-56 25.128-56 56 25.12 56 56 56zm8-95.192C383.648 164 396 176.352 399.192 192H368v-31.192zM368 208h31.192C396 223.648 383.648 236 368 239.192V208zm-16-47.192V192h-31.192C324 176.352 336.352 164 352 160.808zM352 208v31.192C336.352 236 324 223.648 320.808 208H352zM248 376c17.648 0 32-14.352 32-32s-14.352-32-32-32-32 14.352-32 32 14.352 32 32 32zm0-48c8.824 0 16 7.176 16 16s-7.176 16-16 16-16-7.176-16-16 7.176-16 16-16z"/></svg>