<svg xmlns="http://www.w3.org/2000/svg" viewBox="0 0 496 496"><path d="M328.576 283.328a83.97 83.97 0 0 0 1.392-3.328H360v-64h-30.032a83.97 83.97 0 0 0-1.392-3.328l21.24-21.248-45.248-45.248-21.24 21.24a97.963 97.963 0 0 0-3.328-1.392V136h-64v30.024c-1.112.44-2.216.904-3.328 1.392l-21.24-21.24-45.248 45.248 21.24 21.248a79.238 79.238 0 0 0-1.392 3.328H136v64h30.032a83.97 83.97 0 0 0 1.392 3.328l-21.24 21.24 45.248 45.248 21.24-21.24a83.97 83.97 0 0 0 3.328 1.392V360h64v-30.032a83.97 83.97 0 0 0 3.328-1.392l21.24 21.24 45.248-45.248-21.24-21.24zm-24.008 43.864l-18.096-18.104-5.208 2.72c-3.872 2.024-7.808 3.664-11.672 4.88L264 318.464V344h-32v-25.536l-5.592-1.768c-3.864-1.216-7.8-2.856-11.672-4.88l-5.208-2.72-18.096 18.104-22.624-22.624 18.104-18.096-2.72-5.208c-2.024-3.872-3.664-7.808-4.88-11.672l-1.776-5.6H152v-32h25.536l1.768-5.6c1.216-3.864 2.856-7.792 4.88-11.664l2.72-5.208-18.104-18.104 22.624-22.624 18.104 18.104 5.2-2.72c3.856-2.016 7.784-3.656 11.672-4.88l5.6-1.768V152h32v25.536l5.592 1.76c3.888 1.224 7.816 2.864 11.672 4.88l5.2 2.72 18.104-18.104 22.624 22.624-18.104 18.104 2.72 5.208c2.024 3.872 3.664 7.8 4.88 11.664l1.768 5.6H344v32h-25.536l-1.768 5.592c-1.216 3.864-2.856 7.8-4.88 11.672l-2.72 5.208L327.2 304.56l-22.632 22.632z"/><path d="M273.376 200c-8.184 0-15.872 3.184-21.656 8.976l-3.72 3.712-3.72-3.712c-5.784-5.792-13.464-8.976-21.656-8.976-16.88 0-30.624 13.736-30.624 30.632 0 8.176 3.184 15.864 8.968 21.656L248 299.312l47.032-47.032c5.784-5.784 8.968-13.472 8.968-21.648C304 213.736 290.256 200 273.376 200zm10.344 40.976L248 276.688l-35.72-35.712a14.555 14.555 0 0 1-4.28-10.344c0-8.072 6.56-14.632 14.624-14.632 3.848 0 7.616 1.56 10.344 4.288L248 235.312l15.032-15.032a14.738 14.738 0 0 1 10.344-4.28c8.064 0 14.624 6.56 14.624 14.632 0 3.904-1.52 7.576-4.28 10.344z"/><path d="M411.648 32.336L405.8 26.48C388.712 9.4 366.008 0 341.864 0H330.4c-18.952 0-37.128 5.824-52.544 16.84-13.632 9.736-23.768 26.128-30.112 43.568-6.496-17.832-16.608-34.28-29.608-43.568C202.72 5.824 184.544 0 165.592 0h-11.464c-24.144 0-46.84 9.4-63.928 26.48l-5.848 5.848C29.952 86.728 0 159.056 0 235.984v19.848c0 64.152 24.984 124.464 70.344 169.824C115.704 471.016 176.016 496 240.168 496h15.664c64.152 0 124.464-24.984 169.824-70.344C471.016 380.296 496 319.984 496 255.832v-19.848c0-76.928-29.952-149.256-84.352-203.648zM480 255.832c0 59.88-23.32 116.168-65.656 158.512C372 456.68 315.712 480 255.832 480h-15.664C180.296 480 124 456.68 81.664 414.344 39.32 372 16 315.712 16 255.832v-19.848c0-72.656 28.288-140.96 79.664-192.336l5.848-5.848C115.576 23.744 134.264 16 154.136 16H165.6c15.6 0 30.552 4.792 43.248 13.864C227.48 43.176 240 78.944 240 104h16c0-.784-.048-1.608-.072-2.408H256c0-24.32 11.656-57.8 31.16-71.728C299.848 20.792 314.808 16 330.408 16h11.464c19.864 0 38.552 7.744 52.616 21.792l5.848 5.848C451.712 95.016 480 163.328 480 235.984v19.848z"/><path d="M248 384c-22.056 0-40 17.944-40 40s17.944 40 40 40 40-17.944 40-40-17.944-40-40-40zm0 64c-13.232 0-24-10.768-24-24s10.768-24 24-24 24 10.768 24 24-10.768 24-24 24zm88-336c22.056 0 40-17.944 40-40s-17.944-40-40-40-40 17.944-40 40 17.944 40 40 40zm0-64c13.232 0 24 10.768 24 24s-10.768 24-24 24-24-10.768-24-24 10.768-24 24-24zm-176 64c22.056 0 40-17.944 40-40s-17.944-40-40-40-40 17.944-40 40 17.944 40 40 40zm0-64c13.232 0 24 10.768 24 24s-10.768 24-24 24-24-10.768-24-24 10.768-24 24-24zm178.384 288.368l-4.768 15.264C333.872 351.72 360 360.16 360 384c0 23.624-25.336 32.024-26.384 32.368l4.768 15.264C339.92 431.16 376 419.48 376 384s-36.08-47.16-37.616-47.632zm-175.968 15.256L160 344l-2.384-7.632C156.08 336.84 120 348.52 120 384s36.08 47.16 37.616 47.632l4.768-15.264C162.128 416.28 136 407.84 136 384c0-23.624 25.336-32.024 26.416-32.376zM72.728 256c-14.496 0-26.664-13.224-26.768-13.336l-11.92 10.672c.68.76 16.952 18.664 38.688 18.664 20.88 0 43.2-16.928 44.144-17.656l-9.736-12.696C101.928 245.64 85.6 256 72.728 256zm317.232-13.336l-11.92 10.672c.68.76 16.952 18.664 38.688 18.664 20.88 0 43.2-16.928 44.144-17.656l-9.736-12.696C445.928 245.64 429.6 256 416.728 256c-14.504 0-26.664-13.224-26.768-13.336zM128 176v-16c-44.192 0-47.888-38.96-48.024-40.616l-15.952 1.2C65.424 139.752 80.584 176 128 176zm248 0c47.416 0 62.576-36.248 63.976-55.416l-15.952-1.2C423.888 121.04 420.192 160 376 160v16z"/></svg>