<svg xmlns="http://www.w3.org/2000/svg" viewBox="0 0 496 496"><path d="M376 160V48c0-8.824-7.176-16-16-16H136c-8.824 0-16 7.176-16 16v112c0 8.824 7.176 16 16 16h224c8.824 0 16-7.176 16-16zm-240 0V48h224l.008 112H136z"/><path d="M472 192h-68.448c2.752-4.728 4.448-10.144 4.448-16V32c0-17.648-14.352-32-32-32H120c-17.648 0-32 14.352-32 32v144c0 5.856 1.696 11.272 4.448 16H24c-13.232 0-24 10.768-24 24v108.592c0 5.168 3.152 9.608 8.024 11.32 4.064 1.448 8.392.624 11.584-2.032l12.304-5.168 11.52 5.112a11.744 11.744 0 0 0 7.608 2.8 12.14 12.14 0 0 0 4.048-.696c4.872-1.712 8.032-6.16 8.032-11.328V256H128v56c0 9.032 3.16 17.688 8.736 24.728-.44 2.368-.736 4.784-.736 7.272 0 13.128 6.448 24.704 16.248 32-9.8 7.296-16.248 18.872-16.248 32 0 9.04 3.128 17.296 8.208 24H128v64h96v-64h-16.208c5.08-6.704 8.208-14.96 8.208-24 0-13.128-6.448-24.704-16.248-32 7.76-5.776 13.44-14.192 15.44-24h65.616c2 9.808 7.68 18.224 15.44 24-9.8 7.296-16.248 18.872-16.248 32 0 9.04 3.128 17.296 8.208 24H272v64h96v-64h-16.208c5.08-6.704 8.208-14.96 8.208-24 0-13.128-6.448-24.704-16.248-32 9.8-7.296 16.248-18.872 16.248-32 0-2.448-.296-4.824-.72-7.152 5.576-7.024 8.72-15.752 8.72-24.848v-56h64.872v68.592c0 5.168 3.16 9.616 8.032 11.328a12.14 12.14 0 0 0 4.048.696 11.74 11.74 0 0 0 7.536-2.736l12.296-5.168 11.52 5.112c3.192 2.704 7.568 3.528 11.664 2.096 4.88-1.72 8.032-6.16 8.032-11.328V216c0-13.232-10.768-24-24-24zM47.128 317.952l-15.04-6.664L16 318.048V304h31.128v13.952zm0-29.952H16v-32h31.128v32zM128 240H16v-24c0-4.408 3.584-8 8-8h104v32zm80 208v32h-64v-32h64zm-8-40c0 13.232-10.768 24-24 24s-24-10.768-24-24 10.768-24 24-24 24 10.768 24 24zm-24-40c-13.232 0-24-10.768-24-24s10.768-24 24-24 24 10.768 24 24-10.768 24-24 24zm176 80v32h-64v-32h64zm-8-40c0 13.232-10.768 24-24 24s-24-10.768-24-24 10.768-24 24-24 24 10.768 24 24zm-24-40c-13.232 0-24-10.768-24-24s10.768-24 24-24 24 10.768 24 24-10.768 24-24 24zm32-112v56c0 2.368-.464 4.648-1.136 6.872C343.52 309.872 332.488 304 320 304c-19.312 0-35.472 13.768-39.192 32h-65.616c-3.72-18.232-19.872-32-39.192-32-12.504 0-23.552 5.888-30.896 14.904C144.44 316.68 144 314.368 144 312V208h208v48zm0-64H120c-8.824 0-16-7.176-16-16V32c0-8.824 7.176-16 16-16h256c8.824 0 16 7.176 16 16v144c0 8.824-7.176 16-16 16h-24zm128 125.952l-15.04-6.664-16.088 6.76V304H480v13.952zM480 288h-31.128v-32H480v32zm0-48H368v-32h104c4.416 0 8 3.592 8 8v24z"/><path d="M240 224h16v64h-16zm0 80h16v16h-16zm-88-176h16v16h-16zm32 0h144v16H184z"/></svg>