<svg xmlns="http://www.w3.org/2000/svg" viewBox="0 0 496 496"><path d="M136 224c-25.04 0-52 7.512-52 24 0 16.496 26.96 24 52 24 5.936 0 11.696-.4 17.136-1.168C175.296 267.68 188 259.36 188 248c0-16.488-26.96-24-52-24zm14.872 30.992h-.008c-4.688.672-9.688 1.008-14.864 1.008-20.568 0-32.656-5.168-35.568-8 2.912-2.832 15-8 35.568-8 20.536 0 32.632 5.16 35.56 7.992-1.992 1.872-8.512 5.272-20.688 7z"/><path d="M282 0h-68C96 0 0 96 0 214v68c0 118 96 214 214 214h68c118 0 214-96 214-214v-68C496 96 400 0 282 0zm0 16c30.032 0 58.504 6.752 84.032 18.768-4.832 8.688-18.808 26.8-54.576 37.28C299.536 46.72 287.664 27.64 279.704 16H282zm-50 296v-40h32v40h66.296c-6.184 35.528-16.736 67.04-28 92.976C286.856 401.888 268.912 400 248 400c-21.2 0-39.096 1.944-54.272 5.112-11.272-25.936-21.832-57.488-28.032-93.112H232zM56 296v-96h160v96H56zm176-40v-16h32v16h-32zm48 40v-40h30.4c4.648 7.232 15.912 12.48 32.464 14.832 5.44.768 11.2 1.168 17.136 1.168 20.552 0 42.368-5.072 49.536-16H440v40H280zm44.44-48.008C327.368 245.16 339.464 240 360 240c20.568 0 32.656 5.168 35.568 8-2.912 2.832-15 8-35.568 8-5.176 0-10.176-.336-14.864-1.008h-.008c-12.176-1.736-18.696-5.128-20.688-7zM409.536 240c-7.168-10.928-28.984-16-49.536-16s-42.368 5.072-49.536 16H280v-40h160v40h-30.464zM264 184v40h-32v-40h-66.296c6.2-35.592 16.768-67.152 28.056-93.112C208.928 94.056 226.816 96 248 96c21.2 0 39.096-1.944 54.272-5.112 11.272 25.936 21.832 57.488 28.032 93.112H264zm-3.96-168c5.44 7.312 20.224 28.32 35.392 59.872C282.112 78.424 266.464 80 248 80c-18.456 0-34.088-1.568-47.4-4.128C215.76 44.344 230.528 23.32 235.968 16h24.072zM214 16h2.296c-7.96 11.64-19.832 30.72-31.752 56.048-35.768-10.48-49.744-28.592-54.576-37.28C155.496 22.752 183.968 16 214 16zM16 214c0-73.424 40.208-137.6 99.736-171.784 6.2 11.584 22.472 32.616 62.176 44.664-11.552 27.08-22.256 59.872-28.456 97.12H40v56H16v-26zm99.736 239.784C56.208 419.6 16 355.432 16 282v-26h24v56h109.456c6.2 37.248 16.904 70.04 28.456 97.12-39.704 12.048-55.976 33.088-62.176 44.664zM214 480c-30.032 0-58.504-6.752-84.032-18.768 4.832-8.688 18.808-26.8 54.576-37.28 11.92 25.32 23.792 44.408 31.752 56.048H214zm21.968 0c-5.44-7.304-20.224-28.312-35.392-59.872C213.896 417.576 229.536 416 248 416c18.184 0 33.856 1.528 47.448 4.024-15.176 31.584-29.968 52.648-35.408 59.976h-24.072zM282 480h-2.296c7.992-11.68 19.92-30.872 31.88-56.328 34.376 9.416 51.72 25.328 59.528 35.064C344.304 472.304 314.04 480 282 480zm198-197.992c0 71.328-37.928 133.952-94.672 168.816-8.648-11.768-28-30.896-67.104-42.024 11.504-27.024 22.144-59.696 28.32-96.792H456v-56h24v26zM480 240h-24v-56H346.544c-6.2-37.248-16.904-70.04-28.456-97.12 39.696-12.048 55.976-33.088 62.176-44.664C439.792 76.4 480 140.576 480 214v26z"/></svg>