<svg xmlns="http://www.w3.org/2000/svg" viewBox="0 0 496 496"><path d="M496 56c0-44.296-162.224-56-248-56S0 11.704 0 56c0 42.96 152.544 55.256 240 55.968v48.76c-21.664 3.656-38.4 21.84-39.84 44.168C171.424 221.504 152 252.496 152 288v31.032c-4.952-4.888-10.456-9.08-16.456-12.496-1.952-18.472-13.616-31.04-31.544-33.872v-32.856c41.568-1.88 72-18.36 72-39.808 0-22.808-34.392-40-80-40s-80 17.192-80 40c0 21.448 30.432 37.928 72 39.808v32.856c-17.928 2.84-29.6 15.408-31.544 33.888C32.328 320.344 16 346.28 16 376v120h464V376c0-29.72-16.328-55.656-40.456-69.448-1.952-18.48-13.616-31.048-31.544-33.888v-32.856c41.568-1.88 72-18.36 72-39.808 0-22.808-34.392-40-80-40s-80 17.192-80 40c0 21.448 30.432 37.928 72 39.808v32.856c-17.928 2.84-29.592 15.4-31.544 33.872-6 3.416-11.504 7.608-16.456 12.496V288c0-35.504-19.424-66.496-48.16-83.104-1.44-22.336-18.176-40.512-39.84-44.176v-48.76c87.456-.704 240-13 240-55.96zM32 200c0-9.784 24.936-24 64-24s64 14.216 64 24-24.936 24-64 24-64-14.216-64-24zm64 88c11.944 0 17.968 4.952 21.032 10.84C110.28 297.024 103.24 296 96 296c-7.296 0-14.344 1.064-21.064 2.904C77.984 292.992 84.016 288 96 288zm-64 96h32v32h16v-32h24v64H80v-16H64v16H32v-64zm120 96H32v-16h120v16zm0-32h-32v-64h32v64zm0-80H32.552c3.96-31.52 30.872-56 63.448-56 23.576 0 44.728 12.728 56 33.256V368zm312 80h-32v-64h32v64zM336 200c0-9.784 24.936-24 64-24s64 14.216 64 24-24.936 24-64 24-64-14.216-64-24zm64 88c11.984 0 18.016 4.992 21.064 10.904-6.72-1.84-13.768-2.904-21.064-2.904-7.24 0-14.28 1.024-21.032 2.84C382.032 292.952 388.056 288 400 288zm-56 57.256C355.272 324.728 376.424 312 400 312c32.576 0 59.488 24.48 63.448 56H344v-22.744zM344 384h32v16h16v-16h24v64h-24v-32h-16v32h-32v-64zm0 80h120v16H344v-16zm-16-48h-16v16h16v48H168v-48h128v-16H168V296h40v88h80v-88h40v120zm-88-96v48h-16v-48h16zm-16-16v-48h16v48h-16zm48 16v48h-16v-48h16zm-16-16v-48h16v48h-16zm71.592-24H288v-40h-80v40h-39.592c4.024-40.368 38.184-72 79.592-72s75.568 31.632 79.592 72zm-49.72-83.176C268.464 193.728 258.432 192 248 192s-20.464 1.728-29.872 4.824C222.68 184.696 234.304 176 248 176s25.32 8.696 29.872 20.824zM248 96C97.888 96 16 69.576 16 56s81.888-40 232-40 232 26.424 232 40-81.888 40-232 40z"/><path d="M248 32c-81.656 0-88 18.368-88 24s6.344 24 88 24 88-18.368 88-24-6.344-24-88-24zm0 32c-34.872 0-58.208-4.408-67.984-8 9.776-3.592 33.112-8 67.984-8s58.208 4.408 67.984 8c-9.776 3.592-33.112 8-67.984 8zM72 192h48v16H72zm304 0h48v16h-48z"/></svg>