<svg xmlns="http://www.w3.org/2000/svg" viewBox="0 0 496 496"><path d="M248 160c-48.52 0-88 39.48-88 88s39.48 88 88 88 88-39.48 88-88-39.48-88-88-88zm0 160c-39.696 0-72-32.296-72-72 0-39.696 32.304-72 72-72s72 32.304 72 72c0 39.704-32.304 72-72 72z"/><path d="M384 160h-16.808c-3.72-18.232-19.872-32-39.192-32h-.488l-8-128H176.488l-8 128H168c-22.056 0-40 17.944-40 40v32H96v96h32v32c0 22.056 17.944 40 40 40h.488l8 128H319.52l8-128h.48c22.056 0 40-17.944 40-40h16c8.824 0 16-7.176 16-16v-16c0-8.824-7.176-16-16-16h-16v-40h16c8.824 0 16-7.176 16-16v-48c0-8.824-7.176-16-16-16zM128 280h-16v-64h16v64zm63.512-264H304.48l7 112H184.512l7-112zM352 328c0 13.232-10.768 24-24 24h-32v16h15.488l-7 112H191.512l-7-112H280v-16H168c-13.232 0-24-10.768-24-24V168c0-13.232 10.768-24 24-24h160c13.232 0 24 10.768 24 24v160zm32-32v16h-16v-16h16zm0-72h-16v-16h16v16zm0-32h-16v-16h16v16z"/><path d="M240 384h16v16h-16zm0 64h16v16h-16zm0-416h16v16h-16zm0 64h16v16h-16zm8 176c-13.376 0-20.848 7.808-23.16 12.424l14.184 7.392c.24-.392 2.472-3.816 8.976-3.816 6.504 0 8.736 3.424 8.84 3.576l14.312-7.16C268.848 279.808 261.376 272 248 272zm0-64c-37.864 0-54.2 26.776-54.88 27.912l13.76 8.168C207 243.88 219.136 224 248 224c28.488 0 40.648 19.312 41.12 20.088l13.76-8.168C302.2 234.776 285.864 208 248 208z"/><path d="M248 240c-26.744 0-38.392 19.104-38.88 19.912l13.712 8.24C223.144 267.656 230.616 256 248 256s24.856 11.656 25.12 12.088l13.76-8.168c-.488-.816-12.136-19.92-38.88-19.92z"/></svg>