<svg xmlns="http://www.w3.org/2000/svg" viewBox="0 0 496 496"><path d="M248 32c-39.704 0-72 32.304-72 72s32.296 72 72 72 72-32.304 72-72-32.296-72-72-72zm0 128c-30.872 0-56-25.12-56-56s25.128-56 56-56 56 25.12 56 56-25.128 56-56 56z"/><path d="M248 72c-17.648 0-32 14.352-32 32s14.352 32 32 32 32-14.352 32-32-14.352-32-32-32zm0 48c-8.824 0-16-7.176-16-16s7.176-16 16-16 16 7.176 16 16-7.176 16-16 16z"/><path d="M352 112V40c0-22.056-17.944-40-40-40H184c-22.056 0-40 17.944-40 40v72H0v208h195.048C169.136 337.208 152 366.632 152 400v8h43.568l32.112 51.376c-2.296 3.672-3.68 7.976-3.68 12.624 0 13.232 10.768 24 24 24s24-10.768 24-24c0-4.648-1.384-8.952-3.68-12.624L300.432 408H344v-8c0-33.368-17.136-62.792-43.048-80H496V112H352zM72 304H16v-80h56v80zm72 0H88v-80h56v80zm0-96H88v-48H72v48H16v-80h56v16h16v-16h56v80zm104 272c-4.416 0-8-3.592-8-8 0-4.408 3.584-8 8-8s8 3.592 8 8c0 4.408-3.584 8-8 8zm7.704-30.616c-2.432-.832-4.992-1.384-7.704-1.384-2.712 0-5.272.552-7.704 1.384L214.432 408h67.136l-25.864 41.384zM327.6 392H168.4c2.072-20.816 12.208-39.264 27.168-52.296C201.984 352.792 217.456 368 248 368s46.016-15.208 52.432-28.296C315.4 352.736 325.528 371.184 327.6 392zm-118.68-61.696C220.496 323.792 233.8 320 248 320c14.208 0 27.52 3.792 39.096 10.312C284.56 337.272 275.92 352 248 352c-27.752 0-36.472-14.56-39.08-21.696zM336 272h-16v16h16v16H160v-16h144v-16H160v-16h176v16zm0-32H160V40c0-13.232 10.768-24 24-24h128c13.232 0 24 10.768 24 24v200zm72 64h-56v-80h56v80zm0-96h-56v-80h56v80zm72 96h-56v-80h56v80zm0-96h-56v-80h56v80z"/></svg>