<svg xmlns="http://www.w3.org/2000/svg" viewBox="0 0 496.023 496.023"><path d="M248.026 40.012c-52.936 0-96 43.064-96 96v64h192v-64c0-52.936-43.064-96-96-96zm80 144h-160v-48c0-44.112 35.888-80 80-80s80 35.888 80 80v48z"/><path d="M184.026 136.012h16c0-26.96 21.928-48.888 48.888-48.888v-16c-35.776 0-64.888 29.104-64.888 64.888z"/><path d="M490.546 360.772l-106.52-115.88v-108.88c0-74.992-61.008-136-136-136s-136 61.008-136 136v108.88L5.082 361.276c-5.672 7.296-6.672 16.984-2.616 25.28 4.056 8.296 12.328 13.456 21.56 13.456h112v72c0 13.232 10.768 24 24 24h176c13.232 0 24-10.768 24-24v-72h112c9.232 0 17.504-5.16 21.56-13.456 4.056-8.296 3.056-17.984-3.04-25.784zm-378.52 23.24h-88c-3.128 0-5.816-1.672-7.184-4.488-1.376-2.808-1.048-5.96.448-7.928l94.736-103.056v115.472zm232 88c0 4.408-3.584 8-8 8h-40v-48h-16v48h-64v-16h-16v16h-40c-4.416 0-8-3.592-8-8v-72h48v48h16v-48h64v16h16v-16h48v72zm-155.056-88l58.624-117.256 52.12 117.256H188.97zm179.056 0h-50.8L262.218 260.26c-2.536-5.72-8-9.36-14.248-9.504h-.384c-6.104 0-11.552 3.368-14.296 8.848l-62.208 124.408h-43.056v-248c0-66.168 53.832-120 120-120s120 53.832 120 120v248zm111.184-4.488c-1.368 2.816-4.056 4.488-7.184 4.488h-88v-115.48l94.32 102.568c1.912 2.464 2.24 5.616.864 8.424z"/><path d="M184.026 152.012h16v16h-16z"/></svg>