<svg xmlns="http://www.w3.org/2000/svg" viewBox="0 0 496 496"><path d="M488.384 444.392l-55.016-61.888c33.496-34.48 55.4-79.344 61.112-130.904a32.083 32.083 0 0 0-7.984-24.912A32.037 32.037 0 0 0 462.624 216H440v-24C440 86.136 353.864 0 248 0S56 86.136 56 192v24H33.376c-9.096 0-17.8 3.888-23.872 10.68a32.083 32.083 0 0 0-7.984 24.912c5.712 51.56 27.616 96.432 61.112 130.912L7.608 444.4A30.117 30.117 0 0 0 0 464.416v1.44C0 482.48 13.52 496 30.144 496c8.528 0 16.696-3.64 22.4-9.976l58.888-65.424c28.336 16.584 60.968 27.848 96.568 32.68V456c0 22.056 17.944 40 40 40s40-17.944 40-40v-2.72c35.6-4.832 68.232-16.096 96.576-32.688l58.888 65.424a30.18 30.18 0 0 0 22.4 9.976C482.48 496 496 482.48 496 465.856v-1.44a30.12 30.12 0 0 0-7.616-20.024zM72 192c0-97.048 78.952-176 176-176s176 78.952 176 176v24H72v-24zm-54.576 57.832c-.512-4.6.912-9.024 4-12.48S28.76 232 33.376 232h429.248c4.616 0 8.856 1.896 11.952 5.352 3.088 3.456 4.504 7.88 4 12.48C476.12 272 470.392 292.824 461.888 312H423.36c-3.904-27.096-27.208-48-55.36-48s-51.456 20.904-55.36 48H183.36c-3.904-27.096-27.208-48-55.36-48s-51.456 20.904-55.36 48H34.112c-8.504-19.176-14.232-40-16.688-62.168zM408 320c0 22.056-17.944 40-40 40s-40-17.944-40-40 17.944-40 40-40 40 17.944 40 40zm-240 0c0 22.056-17.944 40-40 40s-40-17.944-40-40 17.944-40 40-40 40 17.944 40 40zM40.648 475.32A14.15 14.15 0 0 1 30.144 480C22.344 480 16 473.656 16 465.856v-1.44c0-3.464 1.272-6.808 3.568-9.392l54.616-61.44a230.246 230.246 0 0 0 23.488 18.384L40.648 475.32zM272 456c0 13.232-10.768 24-24 24s-24-10.768-24-24v-.952c7.88.624 15.88.952 24 .952s16.12-.328 24-.952V456zm-24-16c-53.136 0-100.944-14.536-139.184-40H328v-16H88v.224C69.416 368.288 53.864 349.376 42.032 328h30.6c3.904 27.096 27.208 48 55.36 48s51.456-20.904 55.36-48h129.28c3.904 27.096 27.208 48 55.36 48s51.456-20.904 55.36-48h30.608c-11.824 21.376-27.384 40.288-45.968 56.224V384h-64v16h43.192c-38.24 25.464-86.048 40-139.184 40zm232 25.856c0 7.8-6.344 14.144-14.144 14.144-4 0-7.832-1.704-10.504-4.68l-57.024-63.36a228.022 228.022 0 0 0 23.488-18.384l54.608 61.44a14.163 14.163 0 0 1 3.576 9.4v1.44z"/><path d="M104 320c0 13.232 10.768 24 24 24s24-10.768 24-24-10.768-24-24-24-24 10.768-24 24zm32 0c0 4.408-3.584 8-8 8s-8-3.592-8-8c0-4.408 3.584-8 8-8s8 3.592 8 8zm208 0c0 13.232 10.768 24 24 24s24-10.768 24-24-10.768-24-24-24-24 10.768-24 24zm32 0c0 4.408-3.584 8-8 8s-8-3.592-8-8c0-4.408 3.584-8 8-8s8 3.592 8 8zM91.552 158.32l15.64 3.352C121.312 95.808 180.528 48 248 48V32c-74.968 0-140.768 53.128-156.448 126.32zM88 192h16c0-5.056.264-10.16.792-15.168l-15.92-1.656A163.862 163.862 0 0 0 88 192z"/></svg>