<svg xmlns="http://www.w3.org/2000/svg" viewBox="0 0 496.001 496.001"><path d="M440.657 47.105C407.561 15.169 363.993-1.551 317.881.113c-89.264 3.176-161.88 80.208-161.88 171.72v39l-55.856 50.272a24.655 24.655 0 0 0-8.144 18.288c0 13.568 11.04 24.608 24.608 24.608h42.448c10.08 51.864 45.016 96.92 92.944 119.736v72.264h176v-92.288c40.728-32.136 64-79.912 64-131.712v-104c0-46.008-18.232-88.944-51.344-120.896zm35.344 224.896c0 48.064-22.168 92.312-60.808 121.392l-3.192 2.4v84.208h-144v-66.64l-4.792-2.096c-47.52-20.784-81.816-65.408-89.504-116.464l-1.024-6.8h-56.072a8.61 8.61 0 0 1-8.608-8.608 8.614 8.614 0 0 1 2.848-6.392l61.152-55.04v-46.128c0-83 65.696-152.864 146.448-155.736 41.64-1.496 81.152 13.616 111.088 42.512 29.968 28.92 46.464 67.768 46.464 109.392v104z"/><path d="M115.889 172.689l2.368-7.768h21.12v-16h-16.232l2.808-9.2c13.472-10.472 21.424-26.608 21.424-43.72 0-16.6-7.352-32.184-20.168-42.752-12.816-10.568-29.656-14.8-46.24-11.56-21.872 4.248-39.304 21.848-43.376 43.792-3.88 20.92 3.928 41.448 20.456 54.24l2.808 9.2h-16.24v16h21.12l2.368 7.768c2.408 11.216 12.384 19.312 23.896 19.312s21.488-8.096 23.888-19.312zm-44.12-42.808l-2.264-1.584c-12.872-8.992-19.072-24.28-16.176-39.896 2.88-15.536 15.216-28 30.696-31.008a42.816 42.816 0 0 1 8.064-.784c9.136 0 17.784 3.08 24.952 8.992 9.12 7.52 14.344 18.6 14.344 30.408 0 12.84-6.312 24.912-16.88 32.296l-2.264 1.584-5.816 19.04h-6.424v-32.96c7.92-3.184 13.536-10.912 13.536-19.96 0-11.872-9.664-21.536-21.536-21.536s-21.536 9.656-21.536 21.528c0 9.04 5.624 16.776 13.536 19.96v32.96h-6.44l-5.792-19.04zm25.768-33.88a5.543 5.543 0 0 1-5.536 5.536 5.538 5.538 0 0 1-5.536-5.536 5.543 5.543 0 0 1 5.536-5.536 5.548 5.548 0 0 1 5.536 5.536zm-13.816 73.176l-1.296-4.256h19.104l-1.056 3.456-.2.808c-.768 3.952-4.248 6.816-8.272 6.816s-7.504-2.864-8.28-6.824zm.28-161.176h16v20.312h-16zM35.427 28.118l14.357 14.357-11.313 11.313-14.357-14.357zM4.001 88.001h20.312v16H4.001zm144.566-59.885l11.314 11.314-14.357 14.357-11.314-11.314zm175.434 9.597c-61.76 0-112 36.912-112 82.288 0 40.432 39.928 74.072 92.32 80.936 16.728 14.64 41.2 23.064 67.68 23.064 36.848 0 68.432-16.576 81.52-40 .912-.344 1.568-.624 1.712-.68l-.64-1.448c3.44-6.84 5.408-14.184 5.408-21.872 0-16.912-9.16-32.536-24.288-44.128-2.952-43.448-51.848-78.16-111.712-78.16zm120 122.288c0 3.728-.704 7.352-1.92 10.84-6.816 1.736-17.544 3.16-26.08-1.768l-8 13.856c7.112 4.104 14.808 5.472 21.888 5.488-13.12 11.856-34.152 19.584-57.888 19.584-12.456 0-24.52-2.272-35.168-6.304 7.12-.592 14.144-1.624 20.968-3.192l-3.592-15.592c-9.72 2.24-19.88 3.376-30.2 3.376-47.44 0-86.848-23.904-94.544-55.176 4.536 1.016 9.752 1.832 15.024 1.832 7.824 0 15.664-1.776 21.168-7.288l-11.312-11.312c-4.12 4.128-16.296 2.672-25.928-.04 4.208-33.888 45.432-60.592 95.584-60.592 6.088 0 12.024.44 17.8 1.184 1.152 4.776 1.832 11.936-1.52 16.912-4.552 6.768-15.72 8.192-24.28 8.192v16c18.168 0 30.832-5.168 37.624-15.36 4.872-7.312 5.504-15.64 4.848-22.432 29.416 7.856 51.832 25.392 59.016 46.952-8.56-3.768-18.112-6.504-28.36-7.96l-2.248 15.84c33.096 4.704 57.12 24.456 57.12 46.96z"/><path d="M310.729 144.481l-5.64 14.968c.344.136 3.8 1.424 9.416 1.424 8.872 0 23.144-3.208 39.152-19.216l-11.312-11.312c-18.264 18.264-31.096 14.312-31.616 14.136z"/></svg>