<svg xmlns="http://www.w3.org/2000/svg" viewBox="0 0 512 512"><path d="M447.046 162.75c5.922-.156 30.568-1.802 46.853-18.084 18.219-18.219 18.113-46.928 18.1-48.141l-.082-7.331-7.33-.081c-1.252-.007-29.921-.116-48.14 18.101-3.924 3.924-6.994 8.335-9.401 12.853V98.219c5.056-5.543 19.554-23.335 19.554-45.071 0-25.766-20.374-45.99-21.241-46.839l-5.24-5.126-5.24 5.126c-.867.848-21.241 21.073-21.241 46.839 0 20.285 12.623 37.129 18.419 43.793v21.093c-2.219-3.802-4.933-7.488-8.265-10.82-18.219-18.219-46.897-18.086-48.141-18.101l-7.331.081-.081 7.331c-.013 1.213-.117 29.921 18.102 48.141 15.385 15.385 38.244 17.702 45.716 18.043v16.34H263.245V162.75c5.922-.156 30.568-1.802 46.853-18.084 18.218-18.219 18.114-46.928 18.101-48.141l-.081-7.331-7.331-.081c-1.231-.007-29.923-.116-48.141 18.101-3.924 3.924-6.994 8.335-9.401 12.853V98.219c5.055-5.543 19.554-23.335 19.554-45.07 0-25.766-20.374-45.99-21.241-46.839l-5.24-5.126-5.24 5.126c-.867.848-21.241 21.073-21.241 46.839 0 20.285 12.623 37.129 18.419 43.793v21.092c-2.219-3.802-4.933-7.487-8.265-10.819-18.22-18.219-46.904-18.086-48.141-18.101l-7.331.081-.081 7.331c-.013 1.213-.117 29.921 18.102 48.141 15.385 15.385 38.244 17.702 45.716 18.043v16.34H79.444v-16.299c5.922-.156 30.568-1.802 46.853-18.084 18.218-18.219 18.114-46.928 18.101-48.141l-.081-7.331-7.331-.081c-1.239-.007-29.922-.116-48.141 18.102-3.924 3.924-6.994 8.336-9.401 12.853v-21.85c5.056-5.543 19.554-23.335 19.554-45.071 0-25.766-20.374-45.99-21.241-46.839l-5.24-5.126-5.24 5.126c-.867.848-21.241 21.073-21.241 46.839 0 20.285 12.623 37.129 18.419 43.793v21.092c-2.219-3.802-4.933-7.487-8.265-10.819C37.968 88.995 9.278 89.129 8.049 89.113l-7.33.081-.082 7.331c-.013 1.213-.119 29.921 18.101 48.141 15.385 15.385 38.244 17.702 45.716 18.043v16.34H0v14.989h64.454v26.481h14.989v-26.481h168.812v26.481h14.989v-26.481h168.812v26.481h14.989v-26.481h64.59v-14.989h-64.591V162.75zm20.002-44.936c8.644-8.645 21.17-11.841 29.293-13.021-1.163 8.102-4.345 20.575-13.042 29.272-8.635 8.634-21.138 11.832-29.268 13.015 1.185-8.129 4.382-20.632 13.017-29.266zm-70.107 16.252c-8.645-8.644-11.841-21.17-13.021-29.294 8.102 1.164 20.575 4.346 29.272 13.043 8.634 8.635 11.832 21.138 13.015 29.267-8.129-1.185-20.634-4.383-29.266-13.016zm-113.695-16.252c8.644-8.645 21.17-11.841 29.294-13.021-1.164 8.102-4.346 20.575-13.043 29.272-8.635 8.634-21.138 11.832-29.268 13.015 1.186-8.129 4.383-20.632 13.017-29.266zm-70.107 16.252c-8.645-8.644-11.841-21.17-13.021-29.294 8.102 1.164 20.575 4.346 29.272 13.044 8.635 8.634 11.832 21.137 13.016 29.266-8.13-1.185-20.633-4.383-29.267-13.016zM99.445 117.814c8.644-8.645 21.17-11.841 29.294-13.021-1.164 8.102-4.346 20.575-13.043 29.272-8.635 8.634-21.138 11.832-29.267 13.015 1.185-8.129 4.383-20.632 13.016-29.266zm-70.108 16.252c-8.636-8.636-11.834-21.143-13.016-29.267 8.129 1.184 20.633 4.382 29.267 13.016 8.635 8.634 11.832 21.137 13.016 29.266-8.129-1.184-20.633-4.382-29.267-13.015zm43.18-51.019c-4.911-6.585-11.492-17.688-11.492-29.898 0-12.212 6.583-23.318 11.492-29.9 4.911 6.586 11.492 17.69 11.492 29.9-.001 12.21-6.582 23.313-11.492 29.898zm183.801 0c-4.911-6.585-11.492-17.688-11.492-29.898 0-12.212 6.583-23.318 11.492-29.9 4.911 6.586 11.492 17.69 11.492 29.9 0 12.21-6.581 23.313-11.492 29.898zm172.31-29.898c0-12.212 6.583-23.318 11.492-29.9 4.911 6.586 11.492 17.69 11.492 29.9 0 12.209-6.581 23.312-11.492 29.898-4.911-6.585-11.492-17.688-11.492-29.898zm83.37 287.203l-.081-7.331-7.33-.081c-1.252-.001-29.921-.116-48.14 18.101-3.924 3.924-6.994 8.335-9.401 12.853v-21.848c4.503-4.936 16.491-19.588 19.063-38.086h45.529v-14.989h-45.691c-3.468-21.836-19.812-38.076-20.587-38.833l-5.24-5.126-5.24 5.126c-.775.757-17.12 16.998-20.587 38.833H282.145c-3.468-21.836-19.812-38.076-20.587-38.833l-5.24-5.126-5.24 5.126c-.775.757-17.12 16.998-20.587 38.833H98.344c-3.468-21.836-19.812-38.076-20.587-38.833l-5.24-5.126-5.24 5.126c-.775.757-17.12 16.998-20.587 38.833H0v14.989h46.528c2.378 17.113 12.811 30.926 17.926 36.808v21.092c-2.219-3.802-4.933-7.487-8.265-10.819-18.22-18.219-46.91-18.081-48.14-18.101l-7.33.081-.082 7.331c-.013 1.213-.119 29.921 18.101 48.141 15.385 15.385 38.244 17.702 45.716 18.043v46.819h14.989v-46.778c5.922-.156 30.568-1.802 46.853-18.084 18.218-18.219 18.114-46.928 18.101-48.141l-.081-7.331-7.331-.081c-1.239-.001-29.922-.116-48.141 18.102-3.924 3.924-6.994 8.336-9.401 12.853v-21.848c4.503-4.936 16.491-19.588 19.063-38.086h131.823c2.378 17.113 12.811 30.926 17.926 36.808v21.092c-2.219-3.802-4.934-7.487-8.265-10.819-18.22-18.219-46.904-18.081-48.141-18.101l-7.331.081-.081 7.331c-.013 1.213-.117 29.921 18.102 48.141 15.385 15.385 38.244 17.702 45.716 18.043v46.819h14.989v-46.778c5.922-.156 30.568-1.802 46.853-18.084 18.218-18.219 18.114-46.928 18.101-48.141l-.081-7.331-7.331-.081c-1.231-.001-29.923-.116-48.141 18.101-3.924 3.924-6.994 8.335-9.401 12.853v-21.847c4.503-4.936 16.491-19.588 19.062-38.086h131.823c2.378 17.113 12.811 30.926 17.926 36.808v21.093c-2.219-3.802-4.934-7.488-8.265-10.82-18.219-18.219-46.897-18.081-48.141-18.101l-7.331.081-.081 7.331c-.013 1.213-.117 29.921 18.102 48.141 15.385 15.385 38.244 17.702 45.716 18.043v46.819h14.989v-46.778c5.922-.156 30.568-1.802 46.853-18.084 18.22-18.222 18.114-46.93 18.101-48.143zM29.337 377.893c-8.636-8.636-11.834-21.143-13.016-29.267 8.129 1.184 20.633 4.382 29.267 13.016 8.635 8.634 11.832 21.137 13.016 29.266-8.129-1.184-20.633-4.382-29.267-13.015zm70.108-16.251c8.644-8.645 21.17-11.841 29.294-13.021-1.164 8.102-4.346 20.575-13.043 29.272-8.635 8.634-21.138 11.832-29.267 13.015 1.185-8.129 4.383-20.633 13.016-29.266zm-26.928-34.768c-4.911-6.585-11.492-17.688-11.492-29.898 0-12.212 6.583-23.317 11.492-29.9 4.911 6.586 11.492 17.689 11.492 29.9-.001 12.21-6.582 23.313-11.492 29.898zm140.622 51.019c-8.645-8.644-11.841-21.17-13.021-29.294 8.102 1.164 20.575 4.346 29.272 13.044 8.635 8.634 11.832 21.137 13.016 29.266-8.13-1.185-20.633-4.383-29.267-13.016zm70.107-16.251c8.644-8.645 21.17-11.841 29.294-13.021-1.164 8.102-4.346 20.575-13.043 29.272-8.635 8.634-21.138 11.832-29.268 13.015 1.186-8.129 4.383-20.633 13.017-29.266zm-26.928-34.768c-4.911-6.585-11.492-17.688-11.492-29.898 0-12.212 6.583-23.317 11.492-29.9 4.911 6.586 11.492 17.689 11.492 29.9 0 12.21-6.581 23.313-11.492 29.898zm140.623 51.019c-8.645-8.644-11.841-21.17-13.021-29.294 8.102 1.164 20.575 4.346 29.272 13.043 8.634 8.635 11.832 21.138 13.015 29.267-8.129-1.185-20.634-4.383-29.266-13.016zm43.179-51.019c-4.911-6.585-11.492-17.688-11.492-29.898 0-12.212 6.583-23.317 11.492-29.9 4.911 6.586 11.492 17.689 11.492 29.9 0 12.21-6.581 23.313-11.492 29.898zm43.18 51.019c-8.635 8.634-21.138 11.832-29.268 13.015 1.185-8.129 4.382-20.632 13.016-29.266 8.644-8.645 21.17-11.841 29.293-13.021-1.163 8.102-4.344 20.574-13.041 29.272zM0 495.827h511.637v14.989H0zm19.986-267.81h14.989v14.989H19.986z"/><path d="M151.892 263.992h14.989v14.989h-14.989zm-38.972-20.985h14.989v14.989H112.92zm26.981-32.977h14.989v14.989h-14.989zm51.963 34.975h14.989v14.989h-14.989zm-20.985-34.975h14.989v14.989h-14.989zm-51.963 245.826h14.989v14.989h-14.989zM17.987 466.848h14.989v14.989H17.987zm124.912-42.97h14.989v14.989h-14.989zM168.88 392.9h14.989v14.989H168.88zm-10.992-39.971h14.989v14.989h-14.989zm17.987 104.925h14.989v14.989h-14.989zm14.99-38.972h14.989v14.989h-14.989zm104.925-4.997h14.989v14.989H295.79zm15.989 54.962h14.989v14.989h-14.989zm16.988-37.974h14.989v14.989h-14.989zm21.984-37.973h14.989v14.989h-14.989zm-10.992-39.971h14.989v14.989h-14.989zm17.987 104.925h14.989v14.989h-14.989zm32.977-34.975h14.989v14.989h-14.989zm76.945 34.975h14.989v14.989h-14.989zm14.99-34.975h14.989v14.989h-14.989zM305.783 243.007h14.989v14.989h-14.989zm8.994-32.977h14.989v14.989h-14.989zm32.976 45.967h14.989v14.989h-14.989zm10.993-45.967h14.989v14.989h-14.989zm122.913 0h14.989v14.989h-14.989zm-10.993 34.975h14.989v14.989h-14.989z"/></svg>