<svg xmlns="http://www.w3.org/2000/svg" viewBox="0 0 512 512"><path d="M214.5 30.25h15v14.444h-15zm70 0h15v14.444h-15zm-35-21h15v14.444h-15zm0 29.444h15v49h-15zm154 35.336h15v14.445h-15zm70 0h15v14.445h-15zm-35-21h15v14.445h-15zm0 29.44h15v49h-15zm-413-41.44h15v14.445h-15zm70 0h15v14.445h-15zm-35-21h15v14.445h-15zm0 29.44h15v49h-15z"/><path d="M487.597 299.75c.581-2.1.903-4.268.903-6.5v-37.333l-.009-1.111c0-.063.009-.124.009-.186v-37.333l-.009-1.11c0-.063.009-.124.009-.186v-37.334l-.009-1.11c0-.063.009-.124.009-.186v-73.889h-15v41.5h-55v-41.5h-15V293.25c0 2.232.322 4.4.903 6.5H375.5v-41.5h-15v41.5h-20v-41.5h-15v41.5h-61v-10.587c10.584-5.457 35-20.159 35-39.69v-37.334l-.009-1.11c0-.063.009-.124.009-.186v-37.334l-.009-1.11c0-.063.009-.124.009-.186V134.88l-.009-1.111c0-.063.009-.124.009-.186V59.694h-15v41.5h-55v-41.5h-15v189.779c0 19.531 24.416 34.234 35 39.69v10.587h-65v-41.5h-15v41.5h-20v-41.5h-15v41.5h-59v-38.439c10.584-5.457 35-20.159 35-39.691v-37.333l-.06-.002c.024-.43.06-.858.06-1.293v-37.334l-.06-.002c.024-.43.06-.858.06-1.293V70.474h-15v41.5h-55v-41.5h-15v151.148c0 19.531 24.416 34.234 35 39.691v38.439H0v15h60.5v41.5h15v-41.5h174v92.723h15V314.75h148.879c8.006 8.643 18.927 14.998 25.121 18.191V451.25h15V332.941c6.194-3.193 17.114-9.548 25.121-18.191H512v-15h-24.403zM95.498 182.991c0 6.774-7.979 14.286-16.409 20.073a101.822 101.822 0 0 1-1.054.715l-.167.112c-.301.2-.602.396-.904.592l-.27.176c-.263.169-.525.335-.787.5l-.382.241c-.231.145-.462.286-.692.427l-.45.277c-.212.129-.422.254-.633.379-.164.098-.329.198-.493.294l-.592.345c-.171.099-.342.2-.512.297a144.316 144.316 0 0 1-1.853 1.037l-.266.146c-.699.379-1.38.736-2.036 1.07-9.922-5.047-25.656-15.546-27.343-25.064l-.002-.01a9.876 9.876 0 0 1-.114-.881 8.848 8.848 0 0 1-.038-.726v-12.206l.106.09a67.986 67.986 0 0 0 1.751 1.468c.264.215.528.426.794.636.361.287.723.57 1.086.848.17.131.341.26.511.389a96.498 96.498 0 0 0 3.347 2.419c.102.07.203.141.305.21a108.017 108.017 0 0 0 4.599 2.98l.175.107c.535.326 1.059.641 1.574.944l.19.112c.529.31 1.044.607 1.547.892l.101.057c.814.46 1.589.886 2.321 1.278l.122.065c.428.229.839.445 1.232.649l.237.123c.336.173.656.337.963.491l.282.142c.273.136.53.264.776.384l.28.137.426.206.458.218.344.162.185.086.463.213.061.028.201.091 1.888.845 1.174.526v-.002l3.064-1.372.221-.1.024-.011a49.466 49.466 0 0 0 .778-.359l.132-.062c.226-.106.475-.225.745-.355l.012-.006c4.319-2.08 14.045-7.17 22.522-14.497v12.174zM40.5 126.972h55v17.389c0 7.086-8.73 14.979-17.575 20.862a91.888 91.888 0 0 1-1.075.704l-.117.076c-.324.208-.647.413-.969.616l-.196.124c-.301.188-.601.373-.901.556l-.247.151c-.287.174-.572.344-.856.514l-.273.163c-.279.165-.555.325-.831.484l-.279.162a98.12 98.12 0 0 1-.851.482l-.231.131a89.533 89.533 0 0 1-3.102 1.656c-9.922-5.047-25.656-15.546-27.343-25.064l-.002-.011a9.902 9.902 0 0 1-.114-.88 8.848 8.848 0 0 1-.038-.726v-17.389zm27.492 121.331C57.399 242.926 40.5 231.525 40.5 221.62v-12.206c.052.045.106.089.158.135a82.8 82.8 0 0 0 1.704 1.428 100.297 100.297 0 0 0 1.881 1.486c.164.126.328.25.492.374.472.357.943.707 1.415 1.05l.405.293c.522.375 1.041.74 1.559 1.098l.278.192a107.775 107.775 0 0 0 4.768 3.084c.542.331 1.073.649 1.594.957l.18.106c.535.313 1.056.614 1.565.902l.081.046a118.22 118.22 0 0 0 3.679 1.994l.237.123c.336.173.656.337.963.491l.282.142c.273.136.53.264.776.384l.28.137.426.206.458.218.344.162.185.086.463.213.061.028.201.091 1.888.845 1.174.526.003-.003 3.064-1.372.221-.1.024-.011a49.466 49.466 0 0 0 .778-.359l.132-.062c.226-.106.475-.225.745-.355l.012-.006c4.319-2.08 14.045-7.169 22.522-14.496v12.173c0 9.864-16.915 21.289-27.506 26.683zm216.509-88.295v12.206c0 .241-.018.484-.038.728-.023.281-.06.563-.109.846l-.008.049c-1.694 9.478-17.429 19.993-27.351 25.058-9.923-5.048-25.654-15.547-27.341-25.064l-.001-.009a9.946 9.946 0 0 1-.114-.882 8.848 8.848 0 0 1-.038-.726v-12.206c.035.031.07.059.105.089a67.986 67.986 0 0 0 1.751 1.468c.264.215.528.426.794.636.361.287.723.57 1.086.848.17.131.341.26.511.389a96.498 96.498 0 0 0 3.347 2.419c.102.07.203.141.305.21a108.017 108.017 0 0 0 4.599 2.98l.175.107c.535.326 1.059.641 1.574.944l.19.112c.529.31 1.044.607 1.547.892l.101.057c.814.46 1.589.886 2.321 1.278l.122.065c.428.229.839.445 1.232.649l.237.123c.336.173.656.337.963.491l.282.142c.273.136.53.264.776.384l.28.137.426.206.458.218.344.162.185.086.463.213.061.028.201.091 3.064 1.372 3.064-1.372.201-.091.061-.028c.135-.061.288-.132.463-.213l.185-.086.344-.162a104.488 104.488 0 0 0 .884-.424l.28-.137a76.553 76.553 0 0 0 1.058-.526c.307-.155.627-.318.963-.491l.237-.123c.394-.204.804-.421 1.232-.649l.122-.065a122.87 122.87 0 0 0 2.324-1.279l.089-.051c.505-.286 1.024-.585 1.555-.896l.19-.112c.515-.303 1.04-.618 1.574-.944l.175-.107a107.387 107.387 0 0 0 4.904-3.19c.51-.352 1.021-.712 1.534-1.081l.417-.302a89.606 89.606 0 0 0 4.569-3.554c.325-.271.648-.545.969-.823l.106-.09zM229.5 116.193h55v17.39c0 .242-.018.486-.038.729-.023.279-.06.558-.109.839l-.009.057c-1.696 9.477-17.429 19.99-27.35 25.055-9.922-5.047-25.652-15.545-27.34-25.061l-.003-.018a9.766 9.766 0 0 1-.113-.874 8.896 8.896 0 0 1-.038-.728v-17.389zm-.001 82.444l.106.09a67.986 67.986 0 0 0 1.751 1.468c.264.215.528.426.794.636.361.287.723.57 1.086.848.17.131.341.26.511.389a96.498 96.498 0 0 0 3.347 2.419c.102.07.203.141.305.21a108.017 108.017 0 0 0 4.599 2.98l.175.107c.535.326 1.059.641 1.574.944l.19.112c.529.31 1.044.607 1.547.892l.101.057c.814.46 1.589.886 2.321 1.278l.122.065c.428.229.839.445 1.232.649l.237.123c.336.173.656.337.963.491l.282.142c.273.136.53.264.776.384l.28.137.426.206.458.218.344.162.185.086.463.213.061.028.201.091 3.064 1.372 3.064-1.372.201-.091.061-.028c.135-.061.288-.132.463-.213l.185-.086.344-.162a104.488 104.488 0 0 0 .884-.424l.28-.137a76.553 76.553 0 0 0 1.058-.526c.307-.155.627-.318.963-.491l.237-.123c.394-.204.804-.421 1.232-.649l.122-.065a122.87 122.87 0 0 0 2.324-1.279l.089-.051c.505-.286 1.024-.585 1.555-.896l.19-.112c.515-.303 1.04-.618 1.574-.944l.175-.107a107.387 107.387 0 0 0 4.904-3.19c.51-.352 1.021-.712 1.534-1.081l.417-.302a89.606 89.606 0 0 0 4.569-3.554c.325-.271.648-.545.969-.823l.106-.09v12.206a10.028 10.028 0 0 1-.148 1.573l-.008.049c-1.694 9.478-17.429 19.993-27.351 25.058-9.923-5.048-25.654-15.547-27.341-25.064l-.001-.009a9.946 9.946 0 0 1-.114-.882 8.848 8.848 0 0 1-.038-.726v-12.206zm27.496 77.52c-10.596-5.38-27.495-16.78-27.495-26.684v-12.206l.106.09a67.986 67.986 0 0 0 1.751 1.468c.264.215.528.426.794.636.361.287.723.57 1.086.848.17.131.341.26.511.389a96.498 96.498 0 0 0 3.347 2.419c.102.07.203.141.305.21a108.017 108.017 0 0 0 4.599 2.98l.175.107c.535.326 1.059.641 1.574.944l.19.112c.529.31 1.044.607 1.547.892l.101.057c.814.46 1.589.886 2.321 1.278l.122.065c.428.229.839.445 1.232.649l.237.123c.336.173.656.337.963.491l.282.142c.273.136.53.264.776.384l.28.137.426.206.458.218.344.162.185.086.463.213.061.028.201.091 3.064 1.372 3.064-1.372.201-.091.061-.028c.135-.061.288-.132.463-.213l.185-.086.344-.162a104.488 104.488 0 0 0 .884-.424l.28-.137a76.553 76.553 0 0 0 1.058-.526c.307-.155.627-.318.963-.491l.237-.123c.394-.204.804-.421 1.232-.649l.122-.065a122.87 122.87 0 0 0 2.324-1.279l.089-.051c.505-.286 1.024-.585 1.555-.896l.19-.112c.515-.303 1.04-.618 1.574-.944l.175-.107a107.387 107.387 0 0 0 4.904-3.19c.51-.352 1.021-.712 1.534-1.081l.417-.302a89.606 89.606 0 0 0 4.569-3.554c.325-.271.648-.545.969-.823l.106-.09v12.206c0 9.863-16.915 21.289-27.506 26.683zm161.504-116.184h55v17.388h.001c0 .241-.018.485-.038.728-.023.281-.06.563-.109.846l-.008.05c-1.694 9.478-17.429 19.993-27.351 25.058-9.923-5.048-25.654-15.546-27.341-25.064l-.002-.01a9.876 9.876 0 0 1-.114-.881 8.848 8.848 0 0 1-.038-.726v-17.389zm.159 82.576a82.8 82.8 0 0 0 1.704 1.428 100.297 100.297 0 0 0 1.881 1.486c.164.126.328.25.492.374.472.357.943.707 1.415 1.05l.405.293c.522.375 1.041.74 1.559 1.098l.278.192a107.775 107.775 0 0 0 4.768 3.084c.542.331 1.073.649 1.594.957l.18.106c.535.313 1.056.614 1.565.902l.081.046a118.22 118.22 0 0 0 3.679 1.994l.237.123c.336.173.656.337.963.491l.282.142c.273.136.53.264.776.384l.28.137.426.206.458.218.344.162.185.086.463.213.061.028.201.091 3.064 1.372 3.064-1.372.201-.091.061-.028c.135-.061.288-.132.463-.213l.185-.086.344-.162a104.488 104.488 0 0 0 .884-.424l.28-.137a76.553 76.553 0 0 0 1.058-.526c.307-.155.627-.318.963-.491l.237-.123c.401-.208.82-.429 1.256-.662l.092-.049c.735-.394 1.515-.822 2.334-1.285l.07-.04c.511-.289 1.035-.592 1.573-.906l.18-.106a117.955 117.955 0 0 0 1.747-1.051 107.775 107.775 0 0 0 4.615-2.99l.278-.192a97.64 97.64 0 0 0 1.559-1.098l.405-.293c.472-.343.943-.693 1.415-1.05.164-.124.328-.248.492-.374a82.812 82.812 0 0 0 1.881-1.486 73.115 73.115 0 0 0 1.704-1.428c.052-.045.106-.089.158-.135v12.206c0 .242-.018.486-.038.729a9.014 9.014 0 0 1-.107.84l-.009.057c-1.696 9.477-17.429 19.99-27.35 25.055-9.923-5.047-25.652-15.545-27.341-25.062l-.002-.016a9.435 9.435 0 0 1-.113-.875 8.896 8.896 0 0 1-.038-.728v-12.206c.052.045.106.089.158.135zm54.843 50.702c-.001 9.863-16.916 21.288-27.507 26.682-10.595-5.377-27.494-16.777-27.494-26.683v-12.206l.106.09a67.986 67.986 0 0 0 1.751 1.468c.264.215.528.426.794.636.361.287.723.57 1.086.848.17.131.341.26.511.389a96.498 96.498 0 0 0 3.347 2.419c.102.07.203.141.305.21a108.017 108.017 0 0 0 4.599 2.98l.175.107c.535.326 1.059.641 1.574.944l.19.112c.529.31 1.044.607 1.547.892l.101.057c.814.46 1.589.886 2.321 1.278l.122.065c.428.229.839.445 1.232.649l.237.123c.336.173.656.337.963.491l.282.142c.273.136.53.264.776.384l.28.137.426.206.458.218.344.162.185.086.463.213.061.028.201.091 3.064 1.372 3.064-1.372.201-.091.061-.028c.135-.061.288-.132.463-.213l.185-.086.344-.162a104.488 104.488 0 0 0 .884-.424l.28-.137a76.553 76.553 0 0 0 1.058-.526c.307-.155.627-.318.963-.491l.237-.123c.394-.204.804-.421 1.232-.649l.122-.065a122.87 122.87 0 0 0 2.324-1.279l.089-.051c.505-.286 1.024-.585 1.555-.896l.19-.112c.515-.303 1.04-.618 1.574-.944l.175-.107a107.387 107.387 0 0 0 4.904-3.19c.51-.352 1.021-.712 1.534-1.081l.417-.302a89.606 89.606 0 0 0 4.569-3.554c.325-.271.648-.545.969-.823l.106-.09v12.206zm0-77.258c0 .241-.018.484-.038.728-.023.281-.06.563-.109.845l-.008.05c-1.695 9.477-17.429 19.992-27.351 25.057-9.923-5.048-25.654-15.547-27.341-25.063l-.001-.009a9.924 9.924 0 0 1-.114-.881 8.848 8.848 0 0 1-.038-.726v-12.207c.035.031.07.059.105.089a67.986 67.986 0 0 0 1.751 1.468c.264.215.528.426.794.636.361.287.723.57 1.086.848.17.131.341.26.511.389a96.498 96.498 0 0 0 3.347 2.419c.102.07.203.141.305.21a108.017 108.017 0 0 0 4.599 2.98l.175.107c.535.326 1.059.641 1.574.944l.19.112c.529.31 1.044.607 1.547.892l.101.057c.814.46 1.589.886 2.321 1.278l.122.065c.428.229.839.445 1.232.649l.237.123c.336.173.656.337.963.491l.282.142c.273.136.53.264.776.384l.28.137.426.206.458.218.344.162.185.086.463.213.061.028.201.091 3.064 1.372 3.064-1.372.201-.091.061-.028c.135-.061.288-.132.463-.213l.185-.086.344-.162a104.488 104.488 0 0 0 .884-.424l.28-.137a76.553 76.553 0 0 0 1.058-.526c.307-.155.627-.318.963-.491l.237-.123c.394-.204.804-.421 1.232-.649l.122-.065a122.87 122.87 0 0 0 2.324-1.279l.089-.051c.505-.286 1.024-.585 1.555-.896l.19-.112c.515-.303 1.04-.618 1.574-.944l.175-.107a107.387 107.387 0 0 0 4.904-3.19c.51-.352 1.021-.712 1.534-1.081l.417-.302a89.606 89.606 0 0 0 4.569-3.554c.325-.271.648-.545.969-.823l.106-.09v12.206z"/><path d="M134.5 229.25h15v14h-15zm35-31h15v15h-15zm0 30h15v15h-15zm191 1h15v14h-15zm-35-31h15v15h-15zm0 30h15v15h-15zM94 373.75h15v15H94zm30 0h15v15h-15zm-94 0h49v15H30zm188 0h15v15h-15zm-64 0h49v15h-49zm303 114h15v15h-15zm-64 0h49v15h-49zm94 0h15v15h-15zm-140-147h15v15h-15zm-64 0h49v15h-49zm124 0h15v15h-15zm-30 0h15v15h-15zm-94 96h49v15h-49zm94 0h45v15h-45zm-30 0h15v15h-15zm-255 44h15v15H92zm-64 0h49v15H28zm94 0h15v15h-15zm94 0h15v15h-15zm30 0h15v15h-15zm-94 0h49v15h-49z"/></svg>