<svg xmlns="http://www.w3.org/2000/svg" viewBox="0 0 512 512"><path d="M244 377.75h40v15h-40zm200 0h15v15h-15zm-85 0h40v15h-40zm-60 0h15v15h-15zm115 0h15v15h-15zm60 0h30v15h-30zm-145 0h15v15h-15zM75 417.5h140v15H75zm185 0h40v15h-40zm-240 0h40v15H20zm210 0h15v15h-15zm85 0h35v15h-35zm-126 39.75h60v15h-60zm-30 0h15v15h-15zm-55 0h40v15h-40zm160 0h40v15h-40zm55 0h15v15h-15zm105 0h17v15h-17zm-75 0h60v15h-60zM215.5 72.5v42h15v-42c0-15.163 12.336-27.5 27.5-27.5V30c-23.435 0-42.5 19.065-42.5 42.5zm178 31.5h15v15h-15z"/><path d="M482.577 338l-30.321-136.833 6.78 8.569 40.199-40.199-46-36.399 58.265 6.788v-56.85l-58.265 6.788 46-36.399-40.199-40.199-36.399 46L429.425 1h-56.85l6.788 58.265-36.399-46-22.467 22.467C307.595 13.751 284.013 0 258 0c-39.977 0-72.5 32.523-72.5 72.5v42.227L135 89.089l-93.395 47.416 6.79 13.375 14.105-7.161v18.277l-62 33V237h23v101H0v15h512v-15h-29.423zm-24.66-41.95l-42.104-27.223 31.552-20.4 10.552 47.623zm-35.28-132.315l8.279 10.463 12.987 58.606-34.403 22.244V222h19.925l-6.788-58.265zM97.506 285L83.5 311.351v-52.702L97.506 285zm-8.526-48h34.039L106 269.02 88.98 237zm-2.657 101L106 300.98 125.677 338H86.323zm41.177-28.531L114.494 285l13.006-24.469v48.938zM155.006 285L142.5 308.529v-47.057L155.006 285zm-8.526-48h34.039L163.5 269.02 146.48 237zm-2.658 101l19.678-37.02L183.177 338h-39.355zm42.678-25.708L171.994 285l14.506-27.291v54.583zm45 25.708h-30V222h-133v116h-30V222h-23v-18.996l62-33v-34.9l57.5-29.192 57.5 29.192v34.9l62 33V222h-23v116zm84-154.5V338h-69V237h23v-43.004l-62-33v-18.277l14.105 7.161 6.79-13.375-27.895-14.162V72.5c0-31.706 25.794-57.5 57.5-57.5 21.961 0 41.74 12.353 51.443 31.786l-6.678 6.678L315.5 63.541v22.447l-25-2.913v56.85l25-2.913v22.447l-12.735 10.077 13.964 13.964H315.5zm64.966-56.32l-5.076-12.247-69.89 8.143v-23.15l69.89 8.143 5.076-12.247-55.18-43.663 16.371-16.371 43.663 55.18 12.247-5.076L389.425 16h23.15l-8.143 69.89 12.247 5.076 43.663-55.18 16.371 16.371-55.18 43.663 5.076 12.247 69.89-8.143v23.15l-69.89-8.143-5.076 12.247 55.18 43.663-16.371 16.371-43.663-55.18-12.247 5.076 8.143 69.89h-23.15l8.143-69.89-12.247-5.076-43.663 55.18-16.371-16.371 55.179-43.661zM330.5 147.589v-12.325l18.265-2.128-18.265 14.453zm0-59.854V75.411l18.265 14.453-18.265-2.129zm0 109.536l12.464 12.464 6.78-8.569-19.244 86.846v-90.741zm24.386 50.026l33.301 21.531-44.439 28.732 11.138-50.263zM394.5 338h-59.713l4.683-21.134.602.931 54.428-35.19V338zm0-82.952l-36.152-23.374 12.736-57.475 8.279-10.463L372.575 222H394.5v33.048zm15 82.952v-55.393l53.037 34.291L467.213 338H409.5zM135 497h15v15h-15zM0 497h120v15H0zm165 0h110v15H165zm260 0h15v15h-15zm-135 0h120v15H290zm165 0h57v15h-57z"/><path d="M107.5 144v55h55v-55h-55zm40 40h-25v-25h25v25z"/></svg>