<svg xmlns="http://www.w3.org/2000/svg" viewBox="0 0 512 512"><path d="M494.374 270.027l17.125-122.217v-.523c0-19.903-15.556-36.231-35.148-37.486l27.436-27.437-10.627-10.627-37.172 37.173.806.806h-34.461l27.349-27.349-10.627-10.628-32.261 32.259V66.726h-15.029v37.271l-32.26-32.26-10.627 10.628 27.711 27.712a37.349 37.349 0 0 0-16.386 6.454v-4.812h-7.515c-6.017 0-11.879.661-17.534 1.885v-55.49c0-31.768-25.844-57.613-57.613-57.613-31.768 0-57.612 25.844-57.612 57.613v55.489a82.857 82.857 0 0 0-17.534-1.885h-7.515v30.325c-19.315-13.838-42.397-21.308-66.63-21.308-30.644 0-59.453 11.933-81.121 33.602-16.507 16.507-27.463 37.322-31.685 60.197-3.442 18.645-2.24 37.618 3.41 55.493H0v241.472h512V270.027h-17.626zm-20.448-145.283c12.269 0 22.279 9.849 22.539 22.057l-7.86 56.096h-21.692v15.029h19.586l-7.3 52.102h-38.93l17.125-122.217v-.523c0-8.453-2.807-16.26-7.535-22.544h24.067zm-92.18 0h38.074c12.269 0 22.28 9.849 22.539 22.057l-7.86 56.096H393.77v15.029h38.623l-7.3 52.102h-48.618l-12.917-92.18h40.232v-15.029h-42.338l-2.244-16.017c.258-12.209 10.269-22.058 22.538-22.058zm-36.571 2.417v11.538h-.001a37.526 37.526 0 0 0-1.002 8.589v.523l17.126 122.217h-76.439v-75.45h.397c0-1.75-.073-3.483-.18-5.205 2.48-32.487 27.923-58.652 60.099-62.212zm-65.751-30.994l10.041 10.041-10.041 10.042-10.041-10.042 10.041-10.041zm-10.037-31.289l10.036-10.037 10.036 10.036-10.036 10.036-10.036-10.035zm10.038 72.627l7.17 7.17a82.983 82.983 0 0 0-9.052 15.051 82.868 82.868 0 0 0-7.471-12.867l9.353-9.354zm20.666-41.926l-10.041-10.04 10.036-10.035 10.039 10.039-10.034 10.036zm7.981 29.234a83.357 83.357 0 0 0-11.353 8.73l-6.667-6.667 10.041-10.042 7.979 7.979zm2.647-18.608l9.406-9.407v18.813l-9.406-9.406zm9.322-50.656c.05.849.084 1.702.084 2.564v16.175l-9.411-9.411 9.327-9.328zm-4.546-16.709l-15.409 15.409-10.037-10.036 16.875-16.877a42.778 42.778 0 0 1 8.571 11.504zm-37.953-23.31a42.33 42.33 0 0 1 16.574 3.359l-14.695 14.697-15.73-15.731a42.4 42.4 0 0 1 13.851-2.325zm-18.787 101.306l10.042 10.041-8.503 8.505a83.352 83.352 0 0 0-11.013-9.072l9.474-9.474zm-10.033-31.29l10.039-10.041 10.035 10.034-10.04 10.041-10.034-10.034zm1.416-59.99l18.657 18.657-10.036 10.038-17.837-17.836a42.86 42.86 0 0 1 9.216-10.859zm-15.179 32.558c0-2.03.152-4.024.428-5.979l12.745 12.744-10.039 10.04-3.134-3.135v-13.67zm0 41.196l3.136-3.136 10.033 10.034-12.493 12.493c-.226-.099-.448-.208-.675-.306V99.31zm-25.049 27.851c32.177 3.56 57.621 29.725 60.099 62.211a83.87 83.87 0 0 0-.18 5.206v75.449h-32.182c5.65-17.875 6.851-36.848 3.41-55.493-4.175-22.621-14.945-43.22-31.147-59.638v-27.735zm11.875 142.866h-21.228c13.657-18.802 22.056-38.797 24.823-57.469 4.422 18.71 3.376 38.653-3.595 57.469zM57.756 164.966c18.83-18.831 43.865-29.201 70.495-29.201 7.791 0 15.443.895 22.847 2.622-26.475 3.958-54.685 19.091-77.757 42.162a172.13 172.13 0 0 0-6.787 7.187l11.219 10a158.235 158.235 0 0 1 6.196-6.559c24.297-24.297 54.446-38.804 80.649-38.804 4.416 0 8.606.429 12.532 1.269-13.528 5.505-30.085 16.021-47.913 30.626l9.525 11.627c28.486-23.335 48.457-31.615 56.903-31.615 1.766 0 2.748.353 3.079.683h.001c.332.332.685 1.316.685 3.082 0 3.352-1.396 13.311-14.323 33.378l12.635 8.139c4.251-6.599 8.953-14.744 12.287-22.889 4.985 23.756-5.314 55.792-28.584 83.352h-35.332a394.101 394.101 0 0 0 8.491-8.212 382.535 382.535 0 0 0 4.393-4.461l-10.792-10.459a367.465 367.465 0 0 1-24.547 23.133H71.061c4.469-6.985 9.852-14.419 15.936-21.979l-11.709-9.422c-8.787 10.917-16.255 21.682-21.798 31.401h-8.272c.5-19.244 8.997-41.419 23.529-61.172l-12.106-8.906c-13.809 18.77-22.598 39.038-25.466 58.325-7.893-33.278 1.749-68.476 26.581-93.307zM496.971 496.47H15.029v-60.451H496.97v60.451zm0-75.481H15.029v-60.452H496.97v60.452zm0-75.481H15.029v-60.451H496.97v60.451z"/><path d="M176.822 213.391c-5.499 7.45-11.748 15.095-18.574 22.724l11.201 10.022c7.138-7.981 13.688-15.994 19.465-23.82l-12.092-8.926zm-81.26 2.194a380.753 380.753 0 0 0-10.369 11.295l11.277 9.935a370.374 370.374 0 0 1 9.959-10.849l-10.867-10.381zm22.013-21.323a385.387 385.387 0 0 0-11.218 10.451l10.459 10.792a371.297 371.297 0 0 1 10.779-10.042l-10.02-11.201zm182.313 14.562h15.029v13.611h-15.029zm20.083-55.665c-12.487 9.883-19.805 24.647-20.075 40.507l15.027.257c.193-11.339 5.433-21.901 14.375-28.979l-9.327-11.785zM37.573 300.086h90.176v15.029H37.573zm105.206 0h15.029v15.029h-15.029zm60.117 0h56.611v15.029h-56.611zm-30.058 0h15.029v15.029h-15.029zm232.955 0h68.634v15.029h-68.634zm-153.3 75.147h56.611v15.029h-56.611zm71.64 0h15.029v15.029h-15.029zm30.059 0h15.029v15.029h-15.029zm30.058 0h90.176v15.029H384.25zm-316.618 0h15.029v15.029H67.632zm-30.059 0h15.029v15.029H37.573zm60.118 0h15.029v15.029H97.691zM37.573 450.38h90.176v15.029H37.573zm165.323 0h56.611v15.029h-56.611zm-60.117 0h15.029v15.029h-15.029zm30.059 0h15.029v15.029h-15.029zm232.955 0h68.634v15.029h-68.634z"/></svg>