<svg xmlns="http://www.w3.org/2000/svg" viewBox="0 0 512.002 512.002"><path d="M486.677 343.365l-14.662 5.76a96.015 96.015 0 0 0-27.641 16.728l-19.564-81.987-19.564 81.987a96.024 96.024 0 0 0-27.64-16.728l-14.662-5.76 4.786 15.008c13.954 43.767 21.404 91.661 21.603 138.643h-37.938v-55.515h-29.966V188.787h-24.972V82.906h64.927V37.458C361.383 16.803 344.579 0 323.925 0H184.083c-20.655 0-37.458 16.803-37.458 37.458v45.449h64.927v105.88H186.58v252.715h-29.966v55.515h-36.939c.198-46.981 7.647-94.877 21.603-138.643l4.786-15.008-14.662 5.76a96.046 96.046 0 0 0-27.64 16.728l-19.564-81.986-19.564 81.986a96.024 96.024 0 0 0-27.64-16.728l-14.662-5.76 4.786 15.008c13.952 43.766 21.402 91.661 21.6 138.643H31.254V512h450.491v-14.983h-21.457c.198-46.981 7.647-94.877 21.603-138.643l4.786-15.009zM63.714 497.017c-.174-42.493-6.111-85.72-17.273-126.187a80.795 80.795 0 0 1 16.692 14.673l9.562 11.102 11.499-48.188 11.499 48.188 9.562-11.102a80.707 80.707 0 0 1 16.692-14.673c-11.162 40.466-17.1 83.694-17.273 126.187h-40.96zm97.893-429.094V37.458c0-12.392 10.082-22.475 22.475-22.475h139.842c12.393 0 22.475 10.083 22.475 22.475v30.466H161.607zm119.865 14.983v105.88h-54.938V82.906h54.938zm-79.91 120.864h104.882v237.732H201.562V203.77zM336.41 497.017H171.596v-40.532H336.41v40.532zm108.881 0h-40.962c-.174-42.493-6.111-85.72-17.273-126.187a80.795 80.795 0 0 1 16.692 14.673l9.562 11.102 11.499-48.188 11.499 48.188 9.562-11.102a80.733 80.733 0 0 1 16.692-14.673c-11.16 40.467-17.097 83.694-17.271 126.187zM68.213 157.822h14.983v14.983H68.213z"/><path d="M98.18 157.822h83.905v14.983H98.18zm-59.933 0H53.23v14.983H38.247zm0-53.939H53.23v14.983H38.247zm59.933 0h83.905v14.983H98.18zm-29.967 0h14.983v14.983H68.213zm-7.991 26.969h121.862v14.983H60.222zm-29.966 0h14.983v14.983H30.256zm-29.967 0h14.983v14.983H.289zm458.484 26.97h14.983v14.983h-14.983zm-128.855 0h83.905v14.983h-83.905zm98.888 0h14.983v14.983h-14.983zm29.967-53.939h14.983v14.983h-14.983zm-29.967 0h14.983v14.983h-14.983zm-98.888 0h83.905v14.983h-83.905zm166.812 26.969h14.983v14.983H496.73zm-166.812 0H451.78v14.983H329.918zm136.846 0h14.983v14.983h-14.983zM1.288 497.019h14.983v14.983H1.288zm495.442 0h14.983v14.983H496.73zM216.545 325.133h14.983v49.944h-14.983zm0-32.963h14.983v17.98h-14.983zm54.439-254.213h19.977V52.94h-19.977zm-84.905 0H256V52.94h-69.921zm60.432 89.899h14.983v14.983h-14.983zm0 29.966h14.983v14.983h-14.983zm0-59.933h14.983v14.983h-14.983zm29.966 206.268h14.983v26.97h-14.983zm-19.478-85.404v14.983h19.478v55.438h14.983v-70.421zm-32.962 192.782h14.983v14.983h-14.983zm29.966 0h29.966v14.983h-29.966zm-57.935 58.934h15.982v14.983h-15.982zm30.965 0h83.905v14.983h-83.905z"/></svg>