<svg xmlns="http://www.w3.org/2000/svg" viewBox="0 0 512 512"><path d="M98.656 250.941h42.498v15.178H98.656zm273.202 0h44.522v15.178h-44.522z"/><path d="M454.324 288.907v-68.322h-23.779V174.04H349.09V15.178h22.261c12.553 0 22.767 10.214 22.767 22.767v15.977a22.644 22.644 0 0 0-7.589-1.305h-22.767v54.134c0 12.553 10.214 22.767 22.767 22.767s22.767-10.214 22.767-22.767V37.945C409.296 17.021 392.275 0 371.352 0H141.66c-20.923 0-37.945 17.021-37.945 37.945v68.807c0 12.553 10.214 22.767 22.767 22.767s22.767-10.214 22.767-22.767V52.617h-22.767c-2.66 0-5.214.463-7.589 1.305V37.945c0-12.553 10.214-22.767 22.767-22.767h22.261V174.04H84.49v46.545H60.711v67.458c-12.432 2.779-21.755 13.894-21.755 27.151v168.98C38.957 499.517 51.44 512 66.783 512h54.64c15.343 0 27.826-12.483 27.826-27.826v-89.549h213.502v89.549c0 15.343 12.483 27.826 27.826 27.826h54.64c15.343 0 27.826-12.483 27.826-27.826v-168.98c.001-12.154-7.836-22.507-18.719-26.287zm-60.205-182.156c0 4.185-3.404 7.589-7.589 7.589-4.185 0-7.589-3.404-7.589-7.589V67.794h7.589c4.185 0 7.589 3.404 7.589 7.589v31.368zM126.482 67.794h7.589v38.956c0 4.185-3.404 7.589-7.589 7.589-4.185 0-7.589-3.404-7.589-7.589V75.383c0-4.185 3.404-7.589 7.589-7.589zm222.609 121.423h66.277v31.368h-66.277v-31.368zM179.099 15.178h154.814v333.913h-13.154V220.585h-81.961v-68.806h-15.684V62.122l-17.906-17.907-10.733 10.733 13.461 13.46v83.371h-14.672v197.312h-14.166V15.178zm59.699 303.557v-18.719h66.783v18.719h-66.783zm66.783 15.178v15.178h-66.783v-15.178h66.783zm-66.783-49.075v-18.719h66.783v18.719h-66.783zm0-33.897v-15.178h66.783v15.178h-66.783zm-15.177-83.984v182.134h-15.178V166.957h15.178zm-123.953 22.26h64.253v31.368H99.668v-31.368zm34.403 140.041h-28.838v15.178h28.838v26.713h-28.838v15.178h28.838v26.713h-28.838v15.178h28.838v26.713h-28.838v15.178h28.838v14.065c0 6.975-5.674 12.648-12.648 12.648h-54.64c-6.975 0-12.648-5.673-12.648-12.648v-14.065h28.838v-15.178H54.134v-26.713h28.838V413.04H54.134v-26.713h28.838v-15.178H54.134v-26.713h28.838v-15.178H54.134v-14.065c0-6.975 5.673-12.648 12.648-12.648h54.64c6.975 0 12.648 5.673 12.648 12.648v14.065zm-12.648-41.89H75.889v-51.605h88.032v113.328h-14.672v-33.897c0-15.343-12.483-27.826-27.826-27.826zm241.328 92.079H149.249v-15.178h213.502v15.178zm0-64.253v33.897h-13.66V235.763h90.055v51.605h-48.569c-15.343 0-27.826 12.483-27.826 27.826zm95.115 14.064h-28.838v15.178h28.838v26.713h-28.838v15.178h28.838v26.713h-28.838v15.178h28.838v26.713h-28.838v15.178h28.838v14.065c0 6.975-5.673 12.648-12.648 12.648h-54.64c-6.975 0-12.648-5.673-12.648-12.648v-14.065h28.838v-15.178H377.93v-26.713h28.838V413.04H377.93v-26.713h28.838v-15.178H377.93v-26.713h28.838v-15.178H377.93v-14.065c0-6.975 5.673-12.648 12.648-12.648h54.64c6.975 0 12.648 5.673 12.648 12.648v14.065z"/></svg>