<svg xmlns="http://www.w3.org/2000/svg" viewBox="0 0 512 512"><path d="M334.615 142.211h50.394v15.118h-50.394zm-115.402-22.173h42.331v15.118h-42.331zM159.46 281.512a276.355 276.355 0 0 0-51.268 6.836l3.4 14.73a261.29 261.29 0 0 1 48.457-6.46l-.589-15.106zm-66.302 10.757c-33.303 9.705-64.169 25.466-91.743 46.845l9.263 11.946c26.065-20.209 55.239-35.106 86.71-44.278l-4.23-14.513zm81.837-10.93l-.252 15.116c4.894.082 9.834.302 14.678.655l1.099-15.079a278.575 278.575 0 0 0-15.525-.692zm-30.638 123.079a154.205 154.205 0 0 0-15.508 3.454l4.044 14.567a139.346 139.346 0 0 1 13.986-3.115l-2.522-14.906zM38 476.411a155.164 155.164 0 0 0-13.758 28.595l14.224 5.122a140.04 140.04 0 0 1 12.415-25.804L38 476.411zm75.789-63.508c-26.387 10.355-49.485 27.789-66.794 50.418l12.008 9.185c15.633-20.438 36.488-36.182 60.31-45.531l-5.524-14.072zm240.538-137.902a275.923 275.923 0 0 0-12.681 8.962l9.069 12.096c3.91-2.93 7.942-5.78 11.987-8.471l-8.375-12.587zM464.49 232.15c-34.334 5.321-66.972 16.968-97.007 34.613l7.659 13.036c28.382-16.676 59.223-27.681 91.663-32.71l-2.315-14.939zM263.179 411.678l-14.112-5.423c-12.119 31.531-18.264 64.77-18.264 98.793 0 .866 0 1.743.011 2.608l15.116-.177c-.009-.807-.009-1.624-.009-2.431 0-32.162 5.806-63.575 17.258-93.37zM506.96 228.89c-9.022 0-18.125.442-27.056 1.314l1.471 15.048a264.231 264.231 0 0 1 25.587-1.244c.258.001.525-.001.784.007l.446-15.112a42.171 42.171 0 0 0-1.232-.013zm-177.473 64.729c-31.729 26.675-57.466 60.657-74.427 98.271l13.782 6.215c16.034-35.56 40.37-67.689 70.373-92.915l-9.728-11.571zm177.472 56.216a155.142 155.142 0 0 0-39.45 5.081l3.844 14.62a140.066 140.066 0 0 1 35.607-4.583c.262.001.525-.001.784.007l.446-15.112a42.066 42.066 0 0 0-1.231-.013zM381.71 413.469a155.096 155.096 0 0 0-20.113 37.148l14.154 5.317a139.998 139.998 0 0 1 18.153-33.528l-12.194-8.937zm21.246-23.544a157.29 157.29 0 0 0-11.221 11.233l11.225 10.128c3.189-3.534 6.6-6.948 10.138-10.147l-10.142-11.214zm49.418-30.182a155.12 155.12 0 0 0-37.118 20.145l8.951 12.185a139.91 139.91 0 0 1 33.498-18.183l-5.331-14.147zM371.41 469.591l-14.626-3.829a155.244 155.244 0 0 0-5.015 41.894l15.116-.177c-.009-.807-.019-1.624-.019-2.431 0-12.011 1.529-23.94 4.544-35.457zM456.063.606a22.59 22.59 0 0 0-15.118 5.788A22.59 22.59 0 0 0 425.827.606c-12.504 0-22.677 10.174-22.677 22.677h15.118c0-4.169 3.391-7.559 7.559-7.559s7.559 3.391 7.559 7.559h15.118c0-4.169 3.391-7.559 7.559-7.559 4.169 0 7.559 3.391 7.559 7.559h15.118c0-12.504-10.173-22.677-22.677-22.677zm33.26 69.039a22.59 22.59 0 0 0-15.118 5.788 22.584 22.584 0 0 0-15.118-5.788c-12.504 0-22.677 10.173-22.677 22.677h15.118c0-4.169 3.391-7.559 7.559-7.559 4.169 0 7.559 3.391 7.559 7.559h15.118c0-4.169 3.391-7.559 7.559-7.559 4.169 0 7.559 3.391 7.559 7.559H512c0-12.503-10.173-22.677-22.677-22.677zM57.5 1.972a73.658 73.658 0 0 0-15.649 5.513l6.597 13.602a58.473 58.473 0 0 1 12.432-4.379L57.5 1.972zM27.84 16.338a74.812 74.812 0 0 0-11.699 11.725l11.819 9.428a59.563 59.563 0 0 1 9.333-9.353l-9.453-11.8zM74.079.101h-.097l.097 15.118c4.397.001 8.781.488 13.028 1.449l3.339-14.744A74.25 74.25 0 0 0 74.079.101zm57.518 87.066a58.54 58.54 0 0 1-4.336 12.453l13.627 6.547a73.71 73.71 0 0 0 5.458-15.672l-14.749-3.328zM20.967 99.772l-13.608 6.586a74.468 74.468 0 0 0 8.841 14.015l11.809-9.441a59.135 59.135 0 0 1-7.042-11.16zm16.384 20.499l-9.433 11.815a74.41 74.41 0 0 0 14.027 8.835l6.576-13.612a59.24 59.24 0 0 1-11.17-7.038zM106.114 7.392l-6.559 13.622a59.2 59.2 0 0 1 11.181 7.023l9.416-11.829a74.42 74.42 0 0 0-14.038-8.816zm14.136 103.413a59.635 59.635 0 0 1-9.319 9.365l9.468 11.785a74.77 74.77 0 0 0 11.683-11.741l-11.832-9.409zM7.314 42.094a73.7 73.7 0 0 0-5.481 15.665l14.742 3.35a58.574 58.574 0 0 1 4.355-12.446L7.314 42.094zm66.88 91.048l-.116-.001c-4.428 0-8.839-.495-13.112-1.469l-3.362 14.74a74.187 74.187 0 0 0 16.475 1.847l.194.001-.079-15.118zm57.693-105.241l-11.793 9.459a59.162 59.162 0 0 1 7.057 11.149l13.598-6.605a74.333 74.333 0 0 0-8.862-14.003zm14.387 29.649l-14.732 3.393a59.141 59.141 0 0 1 1.498 13.11l15.118-.035a74.268 74.268 0 0 0-1.884-16.468zM15.118 74.224L0 74.232a74.171 74.171 0 0 0 1.859 16.475l14.738-3.372a58.998 58.998 0 0 1-1.479-13.111zm84.669 53.01a58.56 58.56 0 0 1-12.429 4.398l3.404 14.73a73.765 73.765 0 0 0 15.641-5.534l-6.616-13.594zM74.078 31.346c-23.62 0-42.835 19.215-42.835 42.835s19.215 42.835 42.835 42.835 42.835-19.215 42.835-42.835-19.216-42.835-42.835-42.835zm0 70.551c-15.282 0-27.717-12.434-27.717-27.717 0-15.282 12.434-27.717 27.717-27.717s27.717 12.434 27.717 27.717c-.001 15.283-12.435 27.717-27.717 27.717zM69.26 366.955C42.609 381.15 18.687 401.283.081 425.176l11.929 9.288c17.31-22.23 39.564-40.96 64.356-54.166l-7.106-13.343zm59.203-143.534c-44.684 5.565-87.145 19.846-126.202 42.446l7.571 13.084c37.295-21.579 77.837-35.214 120.5-40.529l-1.869-15.001zm-15.016 258.272a95.062 95.062 0 0 0-20.81 21.542l12.39 8.664a79.99 79.99 0 0 1 17.507-18.124l-9.087-12.082z"/><path d="M445 174.134a335.441 335.441 0 0 0-15.647 3.315v-58.187l-20.33-30.494-42.538-26.179H242.516l-2.14-1.317-44.678 27.495-20.33 30.494v101.604c-1.681-.025-3.361-.04-5.039-.04-8.814 0-17.724.348-26.485 1.033l1.181 15.073a323.82 323.82 0 0 1 60.935.981 319.224 319.224 0 0 1 75.125 17.726A337.5 337.5 0 0 0 246.508 292a274.865 274.865 0 0 0-40.527-8.408l-1.943 14.992a259.998 259.998 0 0 1 32.428 6.327 337.393 337.393 0 0 0-25.845 40.65 216.507 216.507 0 0 0-40.292-3.791c-30.234 0-59.499 6.165-86.983 18.325l6.116 13.825c25.546-11.301 52.752-17.031 80.866-17.031 11.078 0 22.177.933 33.116 2.76a336.417 336.417 0 0 0-17.246 43.411 156.45 156.45 0 0 0-15.868-.816h-.045c-3.376 0-6.792.111-10.154.331l.987 15.087c3.036-.199 6.119-.299 9.17-.299h.042c3.834 0 7.69.178 11.533.495a335.211 335.211 0 0 0-8.857 44.902c-.9-.026-1.793-.042-2.676-.042-15.123 0-29.579 3.461-42.967 10.285l6.867 13.468c11.241-5.731 23.387-8.635 36.1-8.635.366 0 .739.01 1.109.015a336.1 336.1 0 0 0-1.109 27.198c0 .906.001 1.802.021 2.698l15.114-.357c-.019-.777-.018-1.555-.018-2.341.001-106.127 52.508-205.401 140.458-265.559l-8.536-12.479a339.572 339.572 0 0 0-11.985 8.591V129.109h108.851V181.4c-29.466 8.44-57.59 20.888-83.924 37.185l7.956 12.857c33.77-20.899 70.615-35.18 109.509-42.447L445 174.134zm-187.993 58.04a334.372 334.372 0 0 0-33.26-7.09v-55.659h33.26v62.749zm33.26 10.77a333.914 333.914 0 0 0-18.142-6.355v-82.283h-63.496v68.702c-.334-.038-.666-.083-1-.12a335.94 335.94 0 0 0-17.142-1.453V123.84l15.954-23.931 33.936-20.883 33.936 20.883 15.954 23.931v119.104zm11.605-128.952l-16.816-25.223-17.971-11.06h95.122l36.076 22.199 9.389 14.084h-105.8zm205.088 54.424c-5.291.001-10.648.126-15.922.372l.706 15.102a326.766 326.766 0 0 1 15.218-.356c.256-.002.525-.001.784.007l.446-15.112a42.171 42.171 0 0 0-1.232-.013zm-31.341 1.448a334.108 334.108 0 0 0-15.358 1.781l2.088 14.972a320.69 320.69 0 0 1 14.662-1.7l-1.392-15.053zm-165.952 298.97l-14.869-2.722a216.747 216.747 0 0 0-3.523 38.936c0 .906.001 1.802.021 2.698l15.114-.357c-.019-.777-.018-1.555-.018-2.341 0-12.161 1.103-24.346 3.275-36.214zM506.96 289.362c-18.159 0-36.213 2.273-53.66 6.758l3.763 14.641c16.219-4.169 33.007-6.281 49.898-6.281.256-.001.525-.001.784.007l.447-15.112a42.171 42.171 0 0 0-1.232-.013zm-68.679 11.21a215.256 215.256 0 0 0-38.046 17.094l7.504 13.124a200.107 200.107 0 0 1 35.367-15.89l-4.825-14.328zM386.94 325.92a217.355 217.355 0 0 0-12.668 9.196l9.317 11.905a201.942 201.942 0 0 1 11.782-8.552l-8.431-12.549zM362.3 345.2c-31.375 28.419-53.547 64.943-64.12 105.619l14.632 3.803c9.829-37.818 30.452-71.781 59.637-98.218L362.3 345.2zm72.38 126.404l-13.716-6.357c-5.801 12.516-8.743 25.906-8.743 39.799 0 .939.012 1.868.045 2.795l15.108-.551a61.928 61.928 0 0 1-.035-2.245c-.001-11.681 2.47-22.931 7.341-33.441zm72.28-61.298c-10.463.001-20.749 1.697-30.57 5.043l4.876 14.311c8.248-2.811 16.893-4.236 25.695-4.236.263.002.526-.001.784.007l.447-15.112a42.171 42.171 0 0 0-1.232-.013zm-45.581 11.668c-12.766 7.021-23.918 17.062-32.25 29.043l12.411 8.631c7.009-10.077 16.388-18.524 27.123-24.426l-7.284-13.248z"/></svg>