<svg xmlns="http://www.w3.org/2000/svg" viewBox="0 0 512 512"><path d="M83.337 58.885h15.185v14.971H83.337zM29.942 229.552v106.791h74.854V229.552H29.942zm59.883 91.82H44.912V307.4h44.912v13.972zm0-28.943H44.912v-47.906h44.912v47.906zm148.709-62.877v106.791h63.875V229.552h-63.875zm48.905 91.82h-33.934V307.4h33.934v13.972zm0-28.943h-33.934v-47.906h33.934v47.906zm28.943-62.877v106.791h63.875V229.552h-63.875zm48.905 91.82h-33.934V307.4h33.934v13.972zm0-28.943h-33.934v-47.906h33.934v47.906zm29.941-62.877v106.791h63.875V229.552h-63.875zm48.905 91.82h-33.934V307.4h33.934v13.972zm0-28.943h-33.934v-47.906h33.934v47.906z"/><path d="M512 244.522V199.61h-52.897v-38.924H347.808L243.069 58.885H113.492v14.971h123.5l89.336 86.83H209.591v38.924H0v221.567h30.348c2.664 18.044 18.248 31.938 37.021 31.938s34.357-13.894 37.021-31.938h149.522c2.664 18.044 18.248 31.938 37.021 31.938s34.357-13.894 37.021-31.938h79.658c2.664 18.044 18.248 31.938 37.021 31.938 18.772 0 34.357-13.894 37.021-31.938H512v-99.805h-21.957v-76.85H512zm-287.439-68.865h219.571v23.953H224.561v-23.953zM67.368 438.144c-12.383 0-22.456-10.074-22.456-22.456s10.073-22.456 22.456-22.456 22.456 10.074 22.456 22.456-10.073 22.456-22.456 22.456zm97.31-31.937h-29.942V244.522h29.942v161.685zm44.913 0h-29.942V244.522h29.942v161.685zm81.341 31.937c-12.382 0-22.456-10.074-22.456-22.456s10.074-22.456 22.456-22.456 22.456 10.074 22.456 22.456-10.074 22.456-22.456 22.456zm153.7 0c-12.382 0-22.456-10.074-22.456-22.456s10.074-22.456 22.456-22.456 22.456 10.074 22.456 22.456-10.075 22.456-22.456 22.456zm52.397-101.801v69.864h-16.19c-4.209-16.061-18.845-27.945-36.207-27.945s-31.999 11.885-36.207 27.945H327.14c-4.209-16.061-18.845-27.945-36.207-27.945-17.362 0-31.998 11.885-36.207 27.945h-30.163V229.552H119.766v176.655h-16.19c-4.209-16.061-18.845-27.945-36.207-27.945-17.362 0-31.998 11.885-36.207 27.945h-16.19V214.581H497.03v14.971h-21.957v106.791h21.956z"/><path d="M303.906 350.316h14.971v14.971h-14.971zm32.936 0h14.971v14.971h-14.971zm-65.871 0h14.971v14.971h-14.971zm-32.936 0h14.971v14.971h-14.971zm230.55 0h12.975v14.971h-12.975zm-32.936 0h14.971v14.971h-14.971zm-65.871 0h14.971v14.971h-14.971zm32.935 0h14.971v14.971h-14.971zm-373.27 0h14.971v14.971H29.443zm30.44 57.887h14.971v14.971H59.883zm223.563 0h14.971v14.971h-14.971zm154.698 0h14.971v14.971h-14.971z"/></svg>