<svg xmlns="http://www.w3.org/2000/svg" viewBox="0 0 512 512"><path d="M74.072 257.001c0 17.927-9.036 34.455-24.172 44.21l8.134 12.619c19.444-12.531 31.052-33.776 31.052-56.829H74.072zm-35.978 49.876a52.28 52.28 0 0 1-16.564 2.676h-.008l-.002 15.015h.01a67.27 67.27 0 0 0 21.312-3.446l-4.748-14.245zm190.629-110.435h15.015v15.015h-15.015zm86.585-9.009c-9.23 0-17.657 4.693-22.542 12.553l12.752 7.926c2.126-3.421 5.786-5.464 9.79-5.464s7.664 2.043 9.79 5.464l12.752-7.926c-4.885-7.86-13.312-12.553-22.542-12.553zm63.562 0v15.015c6.347 0 11.511 5.164 11.511 11.511h15.015c0-14.626-11.9-26.526-26.526-26.526zM194.69 255.5h15.015v15.015H194.69zm-72.07 67.065c-12.419 0-22.522 10.104-22.522 22.522s10.103 22.522 22.522 22.522 22.522-10.104 22.522-22.522-10.103-22.522-22.522-22.522zm0 30.029c-4.14 0-7.507-3.367-7.507-7.507s3.367-7.507 7.507-7.507 7.507 3.367 7.507 7.507-3.367 7.507-7.507 7.507zm185.181-30.029c-12.419 0-22.522 10.104-22.522 22.522s10.103 22.522 22.522 22.522 22.522-10.104 22.522-22.522-10.103-22.522-22.522-22.522zm0 30.029c-4.14 0-7.507-3.367-7.507-7.507s3.367-7.507 7.507-7.507 7.507 3.367 7.507 7.507-3.367 7.507-7.507 7.507zm188.183-126.123H512v15.015h-16.016zm-45.044 0h30.029v15.015H450.94zm0 35.034H512v15.015h-61.06zm0 35.035h30.029v15.015H450.94z"/><path d="M395.286 159.841c.061-.98.1-1.96.1-2.938 0-26.217-21.33-47.546-47.546-47.546-13.06 0-25.203 5.25-34.049 14.375-8.64-8.86-20.694-14.375-34.017-14.375-26.217 0-47.546 21.33-47.546 47.546 0 1.302.074 2.606.182 3.908-8.552 3.121-16.142 8.256-22.204 14.821v-44.254H105.603c-20.698 0-37.537 16.838-37.537 37.537v59.601L0 250.539v101.055h65.442c3.243 28.684 27.642 51.05 57.178 51.05s53.935-22.366 57.178-51.05h70.824c3.243 28.684 27.642 51.05 57.178 51.05 29.536 0 53.935-22.366 57.178-51.05h66.444V234.826a56.07 56.07 0 0 0 4.004-20.867c-.001-25.477-16.937-47.066-40.14-54.118zm-47.446-35.47c17.938 0 32.532 14.593 32.532 32.532 0 .179-.012.358-.015.539-.495-.013-.988-.038-1.486-.038a56.558 56.558 0 0 0-31.781 9.802 56.256 56.256 0 0 0-19.815-8.516c.022-.596.046-1.191.046-1.787a47.253 47.253 0 0 0-4.684-20.568c6.145-7.558 15.295-11.964 25.203-11.964zm-32.532 48.047c22.905 0 41.541 18.635 41.541 41.541 0 4.288-.647 8.479-1.925 12.512h-79.23a41.244 41.244 0 0 1-1.925-12.512c-.002-22.905 18.634-41.541 41.539-41.541zm-35.535-48.047c17.938 0 32.532 14.593 32.532 32.532 0 .194-.011.388-.015.583a56.21 56.21 0 0 0-28.764 9.72 56.555 56.555 0 0 0-31.781-9.802c-1.51 0-3.003.077-4.484.194-.005-.231-.02-.463-.02-.695 0-17.938 14.595-32.532 32.532-32.532zm-69.568 89.588c0-22.905 18.635-41.541 41.541-41.541a41.517 41.517 0 0 1 20.212 5.27c-8.235 9.827-13.205 22.477-13.205 36.27 0 4.252.48 8.431 1.407 12.512h-49.955v-12.511zm-127.124 2.486l.715.715 42.468-42.467-10.616-10.617-32.567 32.566v-27.726c0-12.418 10.103-22.522 22.522-22.522h27.726l-7.065 7.065 10.616 10.617 17.683-17.682h6.593v12.711L120.2 200.061l10.616 10.617 30.341-30.34v46.132h-46.132l5.175-5.175-10.616-10.617-15.793 15.792h-10.71v-10.025zm-68.066 45.016l29.028-9.391v4.931c0 12.418-10.103 22.522-22.522 22.522h-6.506v-18.062zM122.62 387.629c-23.458 0-42.542-19.084-42.542-42.542 0-23.458 19.084-42.542 42.542-42.542s42.542 19.084 42.542 42.542c-.001 23.458-19.084 42.542-42.542 42.542zm185.181 0c-23.458 0-42.542-19.084-42.542-42.542 0-23.458 19.084-42.542 42.542-42.542 23.458 0 42.542 19.084 42.542 42.542-.001 23.458-19.085 42.542-42.542 42.542zM416.407 255.5H224.719v15.015h191.687v66.065h-51.683c-4.125-27.716-28.077-49.048-56.923-49.048-28.845 0-52.798 21.332-56.923 49.048h-71.335c-4.125-27.716-28.077-49.048-56.923-49.048s-52.798 21.332-56.923 49.048H15.015v-42.041h6.506c20.698 0 37.537-16.838 37.537-37.537v-9.789l17.702-5.727h99.412v-95.093h19.019v95.093h221.216V255.5zm2.07-29.029h-48.021a56.374 56.374 0 0 0 1.407-12.512c0-13.793-4.97-26.445-13.205-36.27a41.52 41.52 0 0 1 20.212-5.27c22.905 0 41.541 18.635 41.541 41.541 0 4.287-.655 8.477-1.934 12.511z"/></svg>