<svg xmlns="http://www.w3.org/2000/svg" viewBox="0 0 512 512"><path d="M63.873 30.416v157.149H302.13V30.416H63.873zm223.05 141.94H79.081V45.624h207.842v126.732z"/><path d="M96.824 139.913h20.277v15.208H96.824zm152.079 0h20.277v15.208h-20.277zm-12.649-31.938l17.56-10.138 7.604 13.17-17.56 10.138zM209.37 86.651l10.138-17.56 13.17 7.604-10.138 17.56zm-33.972-25.312h15.208v20.277h-15.208zm-42.081 15.346l13.17-7.604 10.139 17.56-13.17 7.604zM104.57 111.01l7.605-13.17 17.56 10.139-7.604 13.17zm46.49-3.584l13.17-7.604 25.346 43.9-13.17 7.604z"/><path d="M473.473 133.83V84.883l-30.452-22.556-9.053 12.22 24.297 17.997v41.286h-15.208v23.812l-30.416 20.277v62.367h15.208v30.416h15.208v159.683c0 12.019-9.779 21.798-21.798 21.798s-21.798-9.779-21.798-21.798V317.846c0-20.405-16.601-37.006-37.006-37.006h-50.186v-62.86h20.277V0H33.457v217.98h20.277v248.396H23.319V512h319.366v-45.624h-30.416V296.048h50.186c12.019 0 21.798 9.779 21.798 21.798v112.539c0 20.405 16.601 37.006 37.006 37.006s37.006-16.601 37.006-37.006V270.701h15.208v-30.416h15.208V133.83h-15.208zM327.477 481.584v15.208H38.527v-15.208h288.95zM68.943 466.376V217.98h228.119v248.396H68.943zM48.665 202.772V15.208h268.673v187.564H48.665zm409.6 52.721h-15.208v-15.208h15.208v15.208zm15.208-30.416H427.85v-39.019l30.416-20.277v-16.743h15.208v76.039z"/><path d="M215.952 242.313v96.317h65.901v-96.317h-65.901zm50.694 81.109H231.16v-65.901h35.485v65.901zM175.398 435.96h15.208v15.208h-15.208zm-30.416 0h15.208v15.208h-15.208zm60.832 0h15.208v15.208h-15.208zM84.15 429.37h15.208v15.208H84.15zm0-45.623h15.208v30.416H84.15zm182.496 15.207h15.208v15.208h-15.208zm0-45.623h15.208v30.416h-15.208zm-91.248-5.07h15.208v15.208h-15.208zm0-45.623h15.208v30.416h-15.208zm-91.248-31.43h15.208v-22.812h22.812v-15.208H84.15zm0 15.208h15.208v15.208H84.15zm53.228-53.228h15.208v15.208h-15.208zM94.289 60.832v29.909h15.208V76.04h14.701V60.832z"/></svg>