<svg xmlns="http://www.w3.org/2000/svg" viewBox="0 0 512 512"><path d="M512 221.022v-96.317h-45.624V91.247H435.96V75.274c17.333-3.532 30.416-18.893 30.416-37.254 0-20.965-17.055-38.02-38.02-38.02s-38.02 17.055-38.02 38.02c0 18.361 13.083 33.722 30.416 37.254v15.973h-30.416v33.457H121.663V91.247H91.247V75.274c17.333-3.532 30.416-18.893 30.416-37.254 0-20.965-17.055-38.02-38.02-38.02-20.965 0-38.02 17.055-38.02 38.02 0 18.361 13.083 33.722 30.416 37.254v15.973H45.624v33.457H0v96.317h45.624v25.347H0v96.317h45.624v123.691H30.416V512h106.455v-45.624h-15.208V342.685h268.673v123.691h-15.208V512h106.455v-45.624h-15.208V342.685H512v-96.317h-45.624v-25.347H512zM405.545 38.02c0-12.578 10.234-22.812 22.812-22.812 12.578 0 22.812 10.234 22.812 22.812 0 12.578-10.234 22.812-22.812 22.812-12.578 0-22.812-10.234-22.812-22.812zm0 68.435h45.624v18.25h-45.624v-18.25zm86.95 33.458l-65.901 65.901h-121.88l65.909-65.901h121.872zm-41.327 81.109v25.347h-45.624v-25.347h45.624zm-60.831 0v25.347H121.663v-25.347h268.674zm-41.221-81.109l-65.909 65.901h-50.173l65.901-65.901h50.181zm-71.69 0l-65.901 65.901h-50.192l65.901-65.901h50.192zM60.832 38.02c0-12.578 10.234-22.812 22.812-22.812 12.578 0 22.812 10.234 22.812 22.812 0 12.578-10.234 22.812-22.812 22.812-12.578 0-22.812-10.234-22.812-22.812zm0 68.435h45.624v18.25H60.832v-18.25zm-45.624 33.458h47.136l-47.136 47.136v-47.136zm2.744 65.901l65.901-65.901h121.871l-65.901 65.901H17.952zm88.503 15.208v25.347H60.832v-25.347h45.623zm-91.247 40.554h47.136l-47.136 47.136v-47.136zm106.455 235.216h-76.04v-15.208h76.04v15.208zm-60.831-30.416V342.685h45.624v123.691H60.832zm-42.88-138.899l65.901-65.901h121.871l-65.901 65.901H17.952zm143.381 0l65.901-65.901h50.192l-65.901 65.901h-50.192zm71.701 0l65.901-65.901h50.181l-65.909 65.901h-50.173zm233.342 169.315h-76.04v-15.208h76.04v15.208zm-60.831-30.416V342.685h45.624v123.691h-45.624zm91.247-138.899h-48.688l48.688-48.688v48.688zm-4.297-65.901l-65.901 65.901h-121.88l65.909-65.901h121.872zm-44.391-55.762l48.688-48.688v48.688h-48.688z"/><path d="M76.04 428.356h15.208v15.208H76.04zm0-55.762h15.208v40.554H76.04zm344.713 38.527h15.208v15.208h-15.208zm0-55.763h15.208v40.555h-15.208zM108.714 165.243l17.02-17.019 10.753 10.754-17.02 17.019zm-10.752 32.263L87.21 186.752 97.962 176l10.753 10.754zm297.511-32.261l17.02-17.019 10.753 10.754-17.019 17.019zm-10.748 32.263l-10.753-10.753 10.752-10.753 10.754 10.753zM97.962 319.17l-10.754-10.754 10.753-10.753 10.754 10.754zm10.751-32.265l17.02-17.019 10.753 10.754-17.02 17.019zm276.012 32.267l-10.754-10.754 10.753-10.752 10.754 10.753zm10.747-32.265l17.02-17.02 10.753 10.754-17.02 17.02z"/></svg>