<svg xmlns="http://www.w3.org/2000/svg" viewBox="0 0 512 512"><path d="M256 213.925c-37.736 0-68.436 30.7-68.436 68.436s30.7 68.436 68.436 68.436 68.436-30.7 68.436-68.436-30.7-68.436-68.436-68.436zm0 121.663c-29.349 0-53.228-23.878-53.228-53.228S226.65 229.132 256 229.132s53.228 23.878 53.228 53.228-23.879 53.228-53.228 53.228z"/><path d="M256 244.341c-20.965 0-38.02 17.055-38.02 38.02 0 20.965 17.055 38.02 38.02 38.02s38.02-17.055 38.02-38.02c0-20.965-17.055-38.02-38.02-38.02zm0 60.831c-12.578 0-22.812-10.234-22.812-22.812 0-12.578 10.234-22.812 22.812-22.812 12.578 0 22.812 10.234 22.812 22.812 0 12.578-10.234 22.812-22.812 22.812z"/><path d="M435.96 259.549v-20.277h-30.416v-15.208h-50.693v-36.499h25.347v-55.762h-25.347v-2.535c0-41.041-25.143-76.316-60.832-91.243V0h-76.04v38.024c-35.689 14.927-60.832 50.202-60.832 91.243v2.535h-25.346v55.762h25.346v36.499h-50.693v15.208H76.04v20.277H45.624v45.624H76.04v20.277h30.416v15.208h50.693v115.58h-40.554V512h278.812v-55.762h-40.554v-115.58h50.693V325.45h30.416v-20.277h30.416v-45.624H435.96zM76.04 289.964H60.832v-15.208H76.04v15.208zm30.415 20.278H91.247V254.48h15.208v55.762zM233.188 15.208h45.624v17.869A98.775 98.775 0 0 0 256 30.416a98.83 98.83 0 0 0-22.812 2.661V15.208zm-60.832 114.059c0-46.121 37.523-83.644 83.644-83.644s83.644 37.523 83.644 83.644v2.535H172.356v-2.535zM121.663 325.45v-86.178h35.485v86.178h-35.485zm258.535 145.996v25.347H131.802v-25.347h248.396zm-207.842-15.208V187.564h167.287v268.673H172.356zM147.01 172.356V147.01h217.98v25.347H147.01zM390.337 325.45h-35.485v-86.178h35.485v86.178zm30.416-15.208h-15.208V254.48h15.208v55.762zm30.415-20.278H435.96v-15.208h15.208v15.208z"/><path d="M248.396 274.756h15.208v15.208h-15.208zM202.772 403.01h-15.208v38.02h27.882v-15.208h-12.674zm-15.208-30.416h15.208v15.208h-15.208zm43.089 53.228h15.208v15.208h-15.208zm78.575-13.687h15.208v15.208h-15.208zm0-65.901h15.208v50.693h-15.208zM256 60.832c-3.431 0-6.883.259-10.26.768l2.271 15.038A53.66 53.66 0 0 1 256 76.04c15.323-.001 29.922 6.639 40.057 18.216L307.5 84.24c-13.023-14.878-31.794-23.409-51.5-23.408zm61.055 37.535l-13.558 6.887a52.872 52.872 0 0 1 4.474 12.48l14.848-3.293a68.054 68.054 0 0 0-5.764-16.074zM205.813 82.782c-7.984 8.615-13.645 19.169-16.367 30.518l14.788 3.546c2.115-8.817 6.518-17.021 12.733-23.726l-11.154-10.338zm71.561 280.455A83.606 83.606 0 0 1 256 366.004a83.32 83.32 0 0 1-26.018-4.141l-4.741 14.45A98.518 98.518 0 0 0 256 381.212a98.847 98.847 0 0 0 25.263-3.272l-3.889-14.703zm23.669-168.857l-6.95 13.527c9.912 5.093 18.597 12.008 25.819 20.557l11.617-9.814c-8.524-10.091-18.781-18.255-30.486-24.27z"/></svg>