<svg xmlns="http://www.w3.org/2000/svg" viewBox="0 0 512 512"><path d="M496.107 466.376L460.622 91.247h-94.946L351.63 239.752l15.141 1.432 5.07-53.619h82.614l26.375 278.812h-49.94V325.45h-30.416v-40.36l-136.871-79.842v70.97l-121.663-70.97v70.97l-121.663-70.97v261.128H0V512h512v-45.624h-15.893zM379.514 106.455h67.271l3.357 35.485h-73.983l3.355-35.485zm-6.234 65.901l1.439-15.208h76.861l1.439 15.208H373.28zm-337.795 59.37l121.663 70.97v-70.97l121.663 70.97v-70.97l106.455 62.099v46.832h30.416v125.719H35.485v-234.65zm461.307 265.066H15.208v-15.208h481.584v15.208z"/><path d="M60.832 354.852v76.04h126.733v-76.04H60.832zm55.762 60.831H76.04v-15.208h40.554v15.208zm0-30.416H76.04v-15.208h40.554v15.208zm55.762 30.416h-40.554v-15.208h40.554v15.208zm0-30.416h-40.554v-15.208h40.554v15.208zm40.555-30.415v76.04h126.733v-76.04H212.911zm55.762 60.831h-40.554v-15.208h40.554v15.208zm0-30.416h-40.554v-15.208h40.554v15.208zm55.763 30.416h-40.554v-15.208h40.554v15.208zm0-30.416h-40.554v-15.208h40.554v15.208zM339.137 0h-87.192c-15.374 0-27.881 12.508-27.881 27.881 0 6.989-5.685 12.673-12.673 12.673h-26.36c-15.374 0-27.881 12.508-27.881 27.881 0 15.373 12.507 27.881 27.881 27.881h82.123c15.374 0 27.881-12.508 27.881-27.881 0-6.989 5.685-12.673 12.673-12.673h31.43c15.374 0 27.881-12.508 27.881-27.881C367.018 12.508 354.511 0 339.137 0zm0 40.554h-31.43c-15.374 0-27.881 12.508-27.881 27.881 0 6.989-5.685 12.673-12.673 12.673H185.03c-6.989 0-12.673-5.685-12.673-12.673 0-6.989 5.685-12.673 12.673-12.673h26.36c15.374 0 27.881-12.508 27.881-27.881 0-6.989 5.685-12.673 12.673-12.673h87.192c6.989 0 12.673 5.685 12.673 12.673.001 6.989-5.684 12.673-12.672 12.673zm-171.343 77.054H135.35c-4.193 0-7.604-3.411-7.604-7.604 0-12.578-10.233-22.812-22.812-22.812H22.812C10.233 87.192 0 97.426 0 110.004s10.233 22.812 22.812 22.812h32.444c4.193 0 7.604 3.411 7.604 7.604 0 12.578 10.233 22.812 22.812 22.812h82.123c12.579 0 22.812-10.234 22.812-22.812-.001-12.578-10.234-22.812-22.813-22.812zm0 30.416H85.671c-4.193 0-7.604-3.411-7.604-7.604 0-12.578-10.233-22.812-22.812-22.812H22.812c-4.193 0-7.604-3.411-7.604-7.604s3.411-7.604 7.604-7.604h82.123c4.193 0 7.604 3.411 7.604 7.604 0 12.578 10.233 22.812 22.812 22.812h32.444c4.193 0 7.604 3.411 7.604 7.604-.001 4.193-3.412 7.604-7.605 7.604zM381.212 35.992h15.208V51.2h-15.208zm30.416 20.277h15.208v15.208h-15.208zm30.416-30.416h15.208v15.208h-15.208zM401.489 5.576h15.208v15.208h-15.208zm-69.14 292.581l-34.56-20.16 7.663-13.137 34.56 20.16zm13.156 7.683l7.664-13.137 13.136 7.664-7.663 13.136zm-134.815-7.68L176.13 278l7.663-13.137 34.56 20.16zm13.147 7.682l7.664-13.137 13.136 7.663-7.663 13.137zm-134.804-7.679l-34.561-20.161 7.663-13.137 34.561 20.161zm13.136 7.681l7.663-13.137 13.137 7.664-7.664 13.136zm283.098 113.388h15.208v15.208h-15.208zm-22.812-63.367v15.208h22.812v32.951h15.208v-48.159zm19.495-113.277l3.69-39.041 15.142 1.431-3.69 39.042zm45.438-18.294l15.142-1.432 3.559 37.651-15.142 1.431zm4.992 52.79l15.143-1.432 1.431 15.143-15.142 1.43zm11.692 123.628l15.142-1.431 1.642 17.372-15.142 1.431zm3.075 32.511l15.143-1.43 1.43 15.141-15.141 1.431zm-216.494 7.807h15.208v15.208h-15.208zm30.416 0h40.554v15.208h-40.554z"/><path d="M249.917 40.554h18.25v15.208h-18.25z"/></svg>