<svg xmlns="http://www.w3.org/2000/svg" viewBox="0 0 512 512"><path d="M326.638 120.235v-15.029h-19.934L274.64 65.127h-37.282l-32.063 40.078h-19.934v15.029h16.961l9.03 68.133H199.89v15.029h33.566v109.71l-15.029 55.108v128.755h-22.544V512h120.235v-15.029h-22.544V368.215l-15.029-55.108v-109.71h33.566v-15.029h-11.462l9.03-68.133h16.959zm-82.056-40.078h22.836l20.039 25.049h-62.914l20.039-25.049zm33.962 416.814h-45.088V376.736h45.088v120.235zm-15.029-293.574v103.202h-15.029V203.397h15.029zm-15.03-48.595c0-4.144 3.371-7.515 7.515-7.515s7.515 3.371 7.515 7.515-3.371 7.515-7.515 7.515-7.515-3.371-7.515-7.515zm16.805 166.826l10.93 40.078h-40.44l10.93-40.078h18.58zm20.196-133.26h-21.971v-12.314c8.746-3.102 15.029-11.455 15.029-21.251 0-12.43-10.113-22.544-22.544-22.544s-22.544 10.114-22.544 22.544c0 9.796 6.283 18.149 15.029 21.251v12.314h-21.971l-9.03-68.133h77.031l-9.029 68.133zM143.38 116.562l-14.95-1.542a129.6 129.6 0 0 0-.652 15.934l15.026-.312a114.282 114.282 0 0 1 .576-14.08zM231.296 2.39a128.45 128.45 0 0 0-15.438 4.028l4.692 14.278a113.689 113.689 0 0 1 13.628-3.556l-2.882-14.75zm-95.443 80.907a127.995 127.995 0 0 0-4.638 15.265l14.625 3.464a113.213 113.213 0 0 1 4.093-13.47l-14.08-5.259zm64.508-70.636a127.971 127.971 0 0 0-13.922 7.812l8.162 12.621a112.956 112.956 0 0 1 12.279-6.89l-6.519-13.543zM151.065 54.48a127.85 127.85 0 0 0-8.355 13.59l13.27 7.055a112.81 112.81 0 0 1 7.371-11.986l-12.286-8.659zm160.249-41.975l-6.481 13.559a112.712 112.712 0 0 1 12.29 6.851l8.127-12.642a127.898 127.898 0 0 0-13.936-7.768zm49.404 41.668l-12.26 8.693a112.778 112.778 0 0 1 7.41 11.973l13.251-7.092a127.962 127.962 0 0 0-8.401-13.574zM280.362 2.322L277.52 17.08c4.601.886 9.188 2.068 13.634 3.517l4.655-14.289a128.417 128.417 0 0 0-15.447-3.986zM256.003 0c-2.65.02-5.439.086-8.15.257l.948 15c2.395-.151 4.848-.254 7.199-.227 2.283 0 4.602.07 6.892.208l.906-15.002C261.208.079 258.584 0 256.003 0zM376.02 82.962l-14.064 5.297a113.543 113.543 0 0 1 4.132 13.464l14.615-3.505a128.734 128.734 0 0 0-4.683-15.256zM360.166 172.7a113.036 113.036 0 0 1-6.318 12.574l12.979 7.578a127.476 127.476 0 0 0 7.164-14.257l-13.825-5.895zm7.814-27.676c-.69 4.636-1.677 9.27-2.935 13.775l14.476 4.039a128.663 128.663 0 0 0 3.323-15.6l-14.864-2.214zm-22.374 52.458c-2.86 3.69-5.99 7.252-9.304 10.587l10.66 10.595a130.059 130.059 0 0 0 10.523-11.975l-11.879-9.207zm37.928-82.811l-14.946 1.583a114.454 114.454 0 0 1 .614 14.078l15.027.268a129.153 129.153 0 0 0-.695-15.929zm-216.933 83.077l-11.854 9.238a129.603 129.603 0 0 0 10.566 11.951l10.627-10.628a114.494 114.494 0 0 1-9.339-10.561zm-22.535-52.417l-14.859 2.254a128.973 128.973 0 0 0 3.368 15.594l14.465-4.08c-1.269-4.5-2.27-9.133-2.974-13.768zm7.893 27.661l-13.809 5.934a127.621 127.621 0 0 0 7.21 14.244l12.957-7.615a112.48 112.48 0 0 1-6.358-12.563zm21.079-142.553a129.936 129.936 0 0 0-11.488 11.048l11.06 10.178a114.95 114.95 0 0 1 10.16-9.772l-9.732-11.454zm173.648 7.124a130.098 130.098 0 0 0-8.014-7.37l-9.702 11.479a115.226 115.226 0 0 1 10.192 9.744l11.029-10.21a132.23 132.23 0 0 0-3.505-3.643z"/><path d="M248.485 414.309h15.029v24.047h-15.029z"/></svg>