<svg xmlns="http://www.w3.org/2000/svg" viewBox="0 0 512 512"><path d="M466.912 223.559v35.068h-95.365l-11.209-78.153h56.476v35.068h45.088v-85.166h-45.088v35.068h-58.632L346.83 86.291h15.878v35.068h45.088V36.193h-45.088v35.068H340.87L256 .88l-84.871 70.38h-21.838V36.192h-45.088v85.166h45.088V86.29h15.878l-11.352 79.155H95.186v-35.068H50.098v85.166h45.088v-35.068h56.476l-11.209 78.153H45.088v-35.069H0v85.166h45.088v-35.069h93.21l-25.579 178.348h-51.6v59.115h112.219v-59.115h-45.437l1.646-11.477 125.951-86.88 127.063 87.647 1.536 10.711H338.66v59.115h112.219v-59.115h-51.6L373.7 273.657h93.21v35.068H512v-85.166h-45.088zm-35.069-78.153h15.029v20.039h-15.029v-20.039zm0 35.068h15.029v20.039h-15.029v-20.039zM377.738 51.222h15.029v20.039h-15.029V51.222zm0 35.069h15.029v20.039h-15.029V86.291zM134.262 106.33h-15.029V86.291h15.029v20.039zm0-35.069h-15.029V51.222h15.029v20.039zM80.157 200.514h-15.03v-20.039h15.029v20.039zm0-35.069h-15.03v-20.039h15.029v20.039zM30.059 293.696h-15.03v-20.039h15.029v20.039zm0-35.069h-15.03v-20.039h15.029v20.039zm128.25 208.407v29.057h-82.16v-29.057h82.16zm277.542 0v29.057h-82.16v-29.057h82.16zM355.03 249.34l-79.814-34.992 70.37-30.852 9.444 65.844zm-27.313-83.895H183.281l72.218-34.878 72.218 34.878zM198.38 86.29h114.236l-57.118 27.586L198.38 86.29zm116.668 94.184l-58.547 25.668-58.547-25.668h117.094zm23.732 78.153H174.222l82.279-36.073 82.279 36.073zm2.784-103.185l-68.785-33.22 59.874-28.917 8.911 62.137zM256 20.405l61.326 50.856H194.674L256 20.405zm-76.718 73.352l58.936 28.464-67.708 32.7 8.772-61.164zm-12.81 89.325l71.313 31.266-80.884 35.461 9.571-66.727zm-34.017 237.181l19.772-137.854 90.039 62.108-109.811 75.746zm33.551-146.608h178.986v.001l-89.493 61.731-89.493-61.732zm213.65 147.375l-110.922-76.513 90.95-62.737 19.972 139.25zm117.315-127.334h-15.029v-20.039h15.029v20.039zm0-35.069h-15.029v-20.039h15.029v20.039z"/></svg>