<svg xmlns="http://www.w3.org/2000/svg" viewBox="0 0 512 512"><path d="M86.331 194.37h14.971v14.971H86.331zm325.365 0h14.971v14.971h-14.971z"/><path d="M439.358 122.76h-12.691V94.815h40.92V49.903h-179.15V29.942h-9.981V0h-44.912v29.942h-9.981v19.961H43.914v44.912h42.417v27.945H73.64L44.912 146.7v23.601l12.147 71.227h73.514l12.147-71.226v-23.601l-28.728-23.941h-12.691V94.815h19.897c-1.51 7.417 1.574 15.335 8.349 19.6l9.509 5.985 7.974-12.67-9.509-5.985a3.757 3.757 0 0 1-1.178-5.174 3.755 3.755 0 0 1 5.174-1.178 65.617 65.617 0 0 1 27.538 35.583l3.992 12.539a59.441 59.441 0 0 0 24.946 32.236c4.273 2.689 9.11 4.074 14.038 4.074a26.664 26.664 0 0 0 11.53-2.629v19.421h9.981V297.15l-10.979 21.957V497.03H126.75V512h258.495v-14.971h-95.813V319.106l-10.979-21.957V196.616h9.981V177.18a26.68 26.68 0 0 0 11.563 2.644c4.926 0 9.765-1.385 14.036-4.074a59.437 59.437 0 0 0 24.947-32.235l3.992-12.539a65.623 65.623 0 0 1 27.537-35.583 3.758 3.758 0 0 1 5.175 1.177 3.757 3.757 0 0 1-1.178 5.175L365 107.73l7.974 12.67 9.509-5.985c6.775-4.264 9.859-12.183 8.349-19.6h20.863v27.945h-12.691l-28.728 23.94v23.601l12.147 71.227h73.514l12.147-71.226v-23.601l-28.726-23.941zM117.941 226.557H69.693l-8.426-49.404h65.098l-8.424 49.404zm-9.369-88.826l19.179 15.982v8.47H59.883v-8.47l19.179-15.982h29.51zm114.991-8.39l-13.441-8.459-7.974 12.67 16.049 10.101c5.356 3.371 6.971 10.472 3.6 15.827a11.406 11.406 0 0 1-7.168 5.078c-2.989.68-6.064.156-8.66-1.478a44.442 44.442 0 0 1-18.656-24.106l-3.992-12.539c-3.798-11.933-10.335-22.738-18.948-31.62h59.19v34.526zm0-49.497H58.885V64.873h164.678v14.971zm24.952-64.873h14.971v14.971h-14.971V14.971zm-9.981 29.941h34.932v136.733h-34.932V44.912zm35.93 452.117h-36.928V322.641l10.979-21.957V196.616h14.971v104.068l10.979 21.957v174.388zm54.247-370.595l-3.992 12.54a44.45 44.45 0 0 1-18.656 24.105 11.393 11.393 0 0 1-8.659 1.478 11.406 11.406 0 0 1-7.168-5.078 11.395 11.395 0 0 1-1.478-8.66 11.406 11.406 0 0 1 5.078-7.168l16.049-10.101-7.974-12.67-13.474 8.481V94.815h59.222c-8.613 8.882-15.15 19.687-18.948 31.619zm-40.274-46.59V64.873h164.179v14.971H288.437zm154.868 146.713h-48.248l-8.426-49.404h65.098l-8.424 49.404zm9.81-64.374h-67.867v-8.47l19.179-15.982h29.51l19.179 15.982v8.47z"/></svg>