<svg xmlns="http://www.w3.org/2000/svg" viewBox="0 0 512 512"><path d="M352.175 395.578c-32.098 0-58.211 26.113-58.211 58.211S320.077 512 352.175 512s58.211-26.113 58.211-58.211-26.113-58.211-58.211-58.211zm0 101.236c-23.725 0-43.026-19.301-43.026-43.026 0-23.725 19.301-43.026 43.026-43.026 23.725 0 43.026 19.301 43.026 43.026 0 23.726-19.302 43.026-43.026 43.026z"/><path d="M352.175 425.949c-15.351 0-27.84 12.49-27.84 27.84s12.49 27.84 27.84 27.84 27.84-12.49 27.84-27.84-12.489-27.84-27.84-27.84zm0 40.494c-6.978 0-12.655-5.676-12.655-12.655 0-6.978 5.676-12.655 12.655-12.655 6.978 0 12.655 5.676 12.655 12.655 0 6.979-5.678 12.655-12.655 12.655z"/><path d="M339.974 123.251l6.056-16.65-12.119-25.947 18.822-51.76-42.81-15.566-18.822 51.751-2.274 1.062-4.174-13.775-36.788-20.693h-44.052l-13.765 26.419L156.51 0l-39.452 22.778 26.705 46.253-32.356 35.593 8.194 18.627H91.49v45.557h25.309v86.941l26.322 23.285v195.003c0 20.934 17.03 37.964 37.964 37.964h114.549v-15.185H181.085c-12.56 0-22.778-10.219-22.778-22.778V272.191l-26.322-23.284v-95.285h-25.309v-15.185h237.906v239.425h15.185V123.251h-19.793zM137.801 28.336l13.15-7.593 24.513 42.459-16.804 1.26-20.859-36.126zm57.553 94.915H136.19l-6.911-15.712 25.019-27.52 34.005-2.551 14.191 14.191-11.712 22.448 4.572 9.144zm53.059 0h-36.082l-4.499-8.998 8.616-16.515 22.644-3.903 16.064 10.866-6.743 18.55zm-5.876-45.418l-27.63 4.764-13.481-13.48 11.598-22.26h30.863L271.89 62.61l3.037 10.023-9.772 4.565-4.65 12.79-17.968-12.155zm87.072 29.491l-5.793 15.927h-59.245l12.706-34.955 25.947-12.119 15.78-43.389 14.268 5.187-15.782 43.402 12.119 25.947zm45.344 15.927V340.91h45.557V123.251h-45.557zm30.371 202.473h-15.186V138.436h15.186v187.288z"/><path d="M214.493 272.069c-18.142 0-32.902 14.759-32.902 32.902v136.67h15.185v-136.67c0-9.768 7.948-17.716 17.716-17.716s17.716 7.948 17.716 17.716v116.422h15.186V304.971c.001-18.143-14.759-32.902-32.901-32.902zm92.125 0c-20.934 0-37.964 17.03-37.964 37.964v70.866h15.186v-70.866c0-12.559 10.219-22.778 22.778-22.778h21.26v-15.186h-21.26zm-115.41 194.374h15.185v15.186h-15.185zm30.372 0h40.495v15.186H221.58zm-74.413-236.382h15.186v15.186h-15.186zm167.041 7.086h15.186v15.186h-15.186zm.003 131.603h15.185v15.185h-15.185zm0-45.557h15.185v30.371h-15.185zm-160.46-169.571h15.186v15.186h-15.186zm30.371 0h35.433v15.186h-35.433zm126.546 0h15.186v15.186h-15.186zm-75.928 0h60.742v15.186H234.74zm26.322 84.026h15.186v15.185h-15.186zm-60.742 0h15.186v15.185H200.32zm30.371 0h15.186v15.185h-15.186zM158.81 92.885h15.185v15.186H158.81zm132.62 4.049h15.185v15.185H291.43z"/></svg>