<svg xmlns="http://www.w3.org/2000/svg" viewBox="0 0 512 512"><path d="M497.5 381v-30h-15V206h-10v-35h-45v35h-10v53.458l-14.412-37.121c-11.522-29.677-31.498-54.868-57.769-72.851C319.049 131.505 288.335 122 256.5 122s-62.549 9.505-88.819 27.486c-26.271 17.982-46.247 43.174-57.769 72.852L95.5 259.459V206h-10v-35h-45v35h-10v145h-15v30H0v15h512v-15h-14.5zm-55-195h15v20h-15v-20zm-10 35h35v26h-35v-26zm0 41h35v89h-35v-89zm-48.143-45.1a145.983 145.983 0 0 1 4.748 10.866L414.043 292h-29.686v-75.1zm-48.143-55.681a140.812 140.812 0 0 1 33.143 31.308V292h-33.143V161.219zm-48.143-20.735a141.29 141.29 0 0 1 33.143 11.919V292h-33.143V140.484zm-48.143-2.539A145.568 145.568 0 0 1 256.5 137c5.594 0 11.124.321 16.571.945V292h-33.143V137.945zm-48.142 14.458a141.29 141.29 0 0 1 33.143-11.919V292h-33.143V152.403zm-48.143 40.125a140.796 140.796 0 0 1 33.143-31.309V292h-33.143v-99.472zm-19.748 35.239a145.364 145.364 0 0 1 4.748-10.865V292H98.957l24.938-64.233zM95.5 307h322v15h-322v-15zm-40-121h15v20h-15v-20zm-10 35h35v26h-35v-26zm0 41h35v89h-35v-89zm50 119h-65v-15h65v15zm307 0h-292v-30h-15v-14h322v14h-15v30zm80 0h-65v-15h65v15zM333 34H183c-5.238 0-9.5-4.262-9.5-9.5C173.5 10.99 162.509 0 149 0H39C24.664 0 13 11.663 13 26s11.664 26 26 26h65c5.238 0 9.5 4.262 9.5 9.5 0 13.51 10.991 24.5 24.5 24.5h195c14.336 0 26-11.663 26-26s-11.664-26-26-26zm0 37H138c-5.238 0-9.5-4.262-9.5-9.5 0-13.51-10.991-24.5-24.5-24.5H39c-6.065 0-11-4.935-11-11s4.935-11 11-11h110c5.238 0 9.5 4.262 9.5 9.5 0 13.51 10.991 24.5 24.5 24.5h150c6.065 0 11 4.935 11 11s-4.935 11-11 11zM484 0h-91c-15.164 0-27.5 12.337-27.5 27.5S377.836 55 393 55h91c15.164 0 27.5-12.337 27.5-27.5S499.164 0 484 0zm0 40h-91c-6.893 0-12.5-5.607-12.5-12.5S386.107 15 393 15h91c6.893 0 12.5 5.607 12.5 12.5S490.893 40 484 40zM88.5 97c-8.951 0-16.999 3.94-22.5 10.178C60.499 100.94 52.451 97 43.5 97c-16.542 0-30 13.458-30 30h15c0-8.271 6.729-15 15-15s15 6.729 15 15h15c0-8.271 6.729-15 15-15s15 6.729 15 15h15c0-16.542-13.458-30-30-30zm370-16.5c-8.951 0-16.999 3.94-22.5 10.178-5.501-6.238-13.549-10.178-22.5-10.178-16.542 0-30 13.458-30 30h15c0-8.271 6.729-15 15-15s15 6.729 15 15h15c0-8.271 6.729-15 15-15s15 6.729 15 15h15c0-16.542-13.458-30-30-30zM139 421h15v15h-15zm-103 0h58v15H36zm73 0h15v15h-15zm60 0h58v15h-58zm73 0h14v15h-14zm112 76h15v15h-15zm30 0h15v15h-15zm-103 0h58v15h-58zm133 0h58v15h-58zm73 0h14v15h-14zm-177-38h15v15h-15zm-98 0h83v15h-83zm128 0h15v15h-15zm51-38h15v15h-15zm30 0h50v15h-50zm65 0h15v15h-15zM28 476h15v15H28zm30 0h50v15H58zm65 0h15v15h-15z"/></svg>