<svg xmlns="http://www.w3.org/2000/svg" viewBox="0 0 512 512"><path d="M30.97 248.507h14.985v14.985H30.97zm140.862 0h14.985v14.985h-14.985zm152.851-1.998h14.985v14.985h-14.985zm-93.208-46.256l31.47-31.47 10.595 10.597-31.469 31.468zm15.965 23.477l22.477-22.479 10.596 10.596-22.478 22.478zm77.957-31.48l22.478-22.478 10.596 10.595-22.478 22.478zm-161.1-3.745l14.983-14.982 10.596 10.595-14.983 14.983zm-67.679.003l14.983-14.983 10.596 10.596-14.983 14.983zm-69.958.002l14.983-14.983 10.596 10.596-14.983 14.982zm331.687 11.242l22.478-22.478 10.595 10.595-22.478 22.478zm42.262 97.708c-28.921 0-52.449 23.529-52.449 52.449 0 28.92 23.528 52.449 52.449 52.449s52.449-23.529 52.449-52.449c0-28.921-23.528-52.449-52.449-52.449zm0 89.912c-20.658 0-37.463-16.806-37.463-37.463s16.806-37.463 37.463-37.463 37.463 16.806 37.463 37.463-16.805 37.463-37.463 37.463z"/><path d="M400.609 327.43c-12.395 0-22.478 10.084-22.478 22.478 0 12.394 10.083 22.478 22.478 22.478s22.478-10.084 22.478-22.478c0-12.394-10.083-22.478-22.478-22.478zm0 29.971c-4.132 0-7.493-3.361-7.493-7.493s3.361-7.493 7.493-7.493 7.493 3.361 7.493 7.493c-.001 4.132-3.361 7.493-7.493 7.493zM112.89 297.46c-28.921 0-52.449 23.529-52.449 52.449 0 28.92 23.528 52.449 52.449 52.449s52.449-23.529 52.449-52.449c0-28.921-23.528-52.449-52.449-52.449zm0 89.912c-20.658 0-37.463-16.806-37.463-37.463s16.806-37.463 37.463-37.463 37.463 16.806 37.463 37.463-16.805 37.463-37.463 37.463z"/><path d="M112.89 327.43c-12.395 0-22.478 10.084-22.478 22.478 0 12.394 10.083 22.478 22.478 22.478s22.478-10.084 22.478-22.478c0-12.394-10.083-22.478-22.478-22.478zm0 29.971c-4.132 0-7.493-3.361-7.493-7.493s3.361-7.493 7.493-7.493 7.493 3.361 7.493 7.493c-.001 4.132-3.361 7.493-7.493 7.493z"/><path d="M474.537 220.535h-11.489v-17.273c8.721-3.093 14.985-11.422 14.985-21.189v-26.974c0-9.767-6.265-18.096-14.985-21.189v-7.782c0-15.148-12.324-27.473-27.473-27.473h-44.767c-6.433-11.005-18.246-17.982-31.442-17.982H36.964c-17.539 0-32.222 12.448-35.687 28.972H.5V358.4h47.589l5.571-54.726a22.419 22.419 0 0 1 22.367-20.201h73.728a22.419 22.419 0 0 1 22.367 20.2l5.571 54.727H335.81l5.571-54.726a22.419 22.419 0 0 1 22.367-20.201h73.728a22.419 22.419 0 0 1 22.367 20.2l5.571 54.727H512V257.998c0-20.658-16.806-37.463-37.463-37.463zm-18.982-72.929c4.132 0 7.493 3.361 7.493 7.493v26.974c0 4.132-3.361 7.493-7.493 7.493s-7.493-3.361-7.493-7.493v-26.974c0-4.132 3.361-7.493 7.493-7.493zm-19.98-33.967c6.886 0 12.488 5.602 12.488 12.488v7.782c-8.72 3.093-14.985 11.422-14.985 21.189v26.974c0 9.767 6.265 18.096 14.985 21.189v17.273h-17.978l-30.146-95.906h.004l-3.454-10.989h39.086zm-42.084 40.46l20.885 66.435H309.198v-66.435h84.293zM36.964 95.657h322.401c9.057 0 17.011 5.575 20.13 13.986H16.834c3.046-8.16 10.921-13.986 20.13-13.986zm-21.479 28.971H384.23l4.554 14.486H15.485v-14.486zm119.55 29.471v66.435H82.752v-66.435h52.283zm-119.55 0h52.282v66.435H15.485v-66.435zm186.817 189.316h-11.073l-4.2-41.261a37.362 37.362 0 0 0-37.276-33.666H76.026a37.364 37.364 0 0 0-37.276 33.667l-4.2 41.26H15.485V235.52h186.818v107.895zm0-122.88H150.02V154.1h52.282v66.435zm91.911 122.88h-76.925v-51.949h32.468V276.48h-32.468v-13.986h76.925v80.921zm0-95.907h-76.925v-93.409h76.925v93.409zm202.802 95.907h-18.066l-4.2-41.261a37.362 37.362 0 0 0-37.276-33.666h-73.728a37.364 37.364 0 0 0-37.276 33.667l-4.2 41.26h-13.071V235.52h141.398c3.358 23.817 22.464 42.63 46.419 45.547v62.348zm0-77.474c-15.682-2.677-28.156-14.879-31.237-30.421h8.758c12.395 0 22.478 10.084 22.478 22.478v7.943zM285.721 411.348h14.985v14.985h-14.985zm29.971 0h49.951v14.985h-49.951zm-59.942 0h14.985v14.985H255.75zm-28.971-30.969h78.923v14.985h-78.923zM18.981 416.343h14.985v14.985H18.981zm29.971 0h14.985v14.985H48.952zm29.971 0h49.951v14.985H78.923zM0 386.373h46.954v14.985H0z"/></svg>