<svg xmlns="http://www.w3.org/2000/svg" viewBox="0 0 512 512"><path d="M495.516 496.265h14.985v14.985h-14.985zm-29.971 0h14.985v14.985h-14.985zM512 345.413V179.575h-74.927v35.965h-36.964v-48.952h24.976V31.719h-24.976V.749H25.475v30.97H.5v134.868h24.976v329.678H0v14.985h450.56v-14.985h-50.451V309.448h36.964v35.965H512zM452.059 194.56h44.956v135.867h-44.956V194.56zM40.461 15.735h344.663v15.984H40.461V15.735zm64.602 242.763v14.403c0 9.686-7.88 17.566-17.566 17.566s-17.566-7.88-17.566-17.566v-14.403h35.132zm-35.131-14.986v-3.331c0-20.948 15.19-38.414 35.132-41.965v45.296H69.932zm109.975 252.753H94.99V304.572a32.596 32.596 0 0 0 17.566-10.919c5.976 7.203 14.99 11.799 25.06 11.799 10.069 0 19.083-4.597 25.059-11.799 4.375 5.273 10.38 9.144 17.233 10.842v191.77zm-24.726-237.767v14.403c0 9.686-7.88 17.566-17.566 17.566-9.687 0-17.567-7.88-17.567-17.566v-14.403h35.133zm-35.132-14.986v-45.955h35.133v45.955h-35.133zm50.118 29.389v-14.403H205.3v14.403c0 9.686-7.88 17.566-17.567 17.566-9.686-.001-17.566-7.881-17.566-17.566zm0-29.389v-45.955H205.3v45.955h-35.133zm160.427 252.753H194.893V304.648a32.594 32.594 0 0 0 17.9-10.996c5.975 7.203 14.989 11.799 25.059 11.799 10.069 0 19.083-4.596 25.059-11.799 5.976 7.203 14.99 11.799 25.06 11.799 10.069 0 19.083-4.596 25.059-11.799a32.593 32.593 0 0 0 17.567 10.919v191.694zm-75.177-237.767v14.403c0 9.686-7.88 17.566-17.566 17.566-9.685 0-17.566-7.88-17.566-17.566v-14.403h35.132zm-35.132-14.986v-45.955h35.132v45.955h-35.132zm50.117 0v-45.955h35.133v45.955h-35.133zm35.133 14.986v14.403c0 9.686-7.88 17.566-17.566 17.566-9.687 0-17.567-7.88-17.567-17.566v-14.403h35.133zm14.985 14.403v-14.403h35.133v14.403c0 9.686-7.88 17.566-17.566 17.566-9.687-.001-17.567-7.881-17.567-17.566zm0-29.389v-45.296c19.943 3.552 35.133 21.018 35.133 41.966v3.33H320.52zm64.604 252.753H345.58V304.572c14.348-3.394 25.059-16.301 25.059-31.671v-32.718c0-29.226-21.881-53.422-50.118-57.107H105.063c-28.236 3.686-50.117 27.881-50.117 57.106v32.719c0 15.37 10.711 28.277 25.059 31.671v191.694H40.461V166.587h344.663v329.678zM15.485 151.602V46.704H410.1v104.898H15.485zm384.624 142.86v-63.938h36.964v63.938h-36.964z"/><path d="M110.392 357.401h14.985v59.941h-14.985zm-8.991-278.228V64.187H30.97v69.932h70.431v-14.985H45.955V79.173zm22.978-14.986v69.932h14.985V112.64h47.953v21.479h14.985V64.187h-77.923zm62.938 33.468h-47.953V79.173h47.953v18.482zm106.396-18.482V64.187h-76.425v69.932h14.985V112.64h61.44V97.655h-61.44V79.173zm92.909 0V64.187h-76.425v70.432h76.425v-14.986h-61.44v-12.737h61.44V91.91h-61.44V79.173zm80.422 130.372h14.985v14.985h-14.985zm0 59.942h14.985v14.985h-14.985zm0-29.971h14.985v14.985h-14.985zm0 59.942h14.985v14.985h-14.985zM235.968 383.56l28.963-28.962 10.596 10.596-28.963 28.963zm-22.481 22.48l11.89-11.89 10.596 10.596-11.89 11.89zm83.017-39.547l11.89-11.89L318.99 365.2l-11.89 11.89zm-39.56 39.563l28.963-28.963 10.596 10.596-28.963 28.963zm-43.732 62.237h98.903v14.985h-98.903z"/></svg>