<svg xmlns="http://www.w3.org/2000/svg" viewBox="0 0 512 512"><path d="M193.123 264.483v214.581h125.754V264.483H193.123zm110.783 199.611h-95.813v-184.64h95.813v184.64z"/><path d="M219.072 338.339h14.971v59.883h-14.971z"/><path d="M501.021 44.912H512V0H0v44.912h10.979v318.462c-5.988 7.654-9.482 17.223-9.482 27.362 0 10.324 3.551 19.828 9.482 27.379V512h490.043v-95.648c6.531-7.735 10.48-17.717 10.48-28.609 0-10.827-4.012-21.037-10.801-28.943h.321V44.912zM16.468 390.737c0-12.4 7.841-23.541 19.512-27.722l5.892-2.111-1.035-6.173a30.002 30.002 0 0 1-.416-4.914c0-16.235 13.207-29.443 29.442-29.443s29.443 13.207 29.443 29.443c0 .824-.041 1.683-.125 2.624l-.507 5.697 5.364 1.986c11.498 4.258 19.221 15.357 19.221 27.619 0 16.235-13.207 29.443-29.443 29.443a29.165 29.165 0 0 1-15.47-4.399v-8.669l30.812-10.271-4.735-14.202-26.077 8.692v-47.501h-14.97v47.501l-26.077-8.692-4.735 14.202 30.812 10.271v10.31a29.239 29.239 0 0 1-17.466 5.753c-16.235-.002-29.442-13.209-29.442-29.444zm390.72-245.022h23.687l23.738 51.058v23.796c0 8.255-6.716 14.971-14.971 14.971-8.255 0-14.971-6.716-14.971-14.971V193.8l-17.483-48.085zm-40.134 0h24.204l18.443 50.722v24.132c0 8.255-6.716 14.971-14.971 14.971s-14.971-6.716-14.971-14.971v-26.415l-12.705-48.439zm-283.218-14.97V74.854h344.328v55.891H83.836zm236.039 64.973v24.851c0 8.255-6.716 14.971-14.971 14.971h-1.996c-8.255 0-14.971-6.716-14.971-14.971v-74.854h23.888l8.05 50.003zm-46.908-50.003v74.854c0 8.255-6.716 14.971-14.971 14.971h-4.99c-8.255 0-14.971-6.716-14.971-14.971v-74.854h34.932zm-49.903 0v74.854c0 8.255-6.716 14.971-14.971 14.971h-.998c-8.255 0-14.971-6.716-14.971-14.971v-24.851l8.049-50.002h22.891zM102.3 196.437l18.443-50.722h24.204l-12.705 48.438v26.415c0 8.255-6.716 14.971-14.971 14.971s-14.971-6.716-14.971-14.971v-24.131zM87.329 193.8v26.769c0 8.255-6.716 14.971-14.971 14.971-8.255 0-14.971-6.716-14.971-14.971v-23.796l23.738-51.058h23.687L87.329 193.8zm355.806 56.5c14.869-1.737 26.448-14.404 26.448-29.731v-27.105l-26.448-56.889V59.883H68.865v76.692l-26.448 56.889v27.105c0 15.327 11.579 27.994 26.448 29.731v55.128c-21.781.484-39.746 16.714-42.916 37.74V44.912H486.05v293.499c-5.048-18.979-22.369-33.008-42.916-33.008V250.3zM40.421 497.029H25.949v-66.637a44.12 44.12 0 0 0 19.961 4.758c6.092 0 12.01-1.234 17.466-3.57v12.552H40.421v52.897zm45.91 0h-30.94v-37.926h30.94v37.926zm76.85 0h-61.879v-52.897H78.347v-14.76a44.238 44.238 0 0 0 15.47 2.784c24.489 0 44.413-19.924 44.413-44.413 0-16.65-9.444-31.878-23.978-39.437-.636-18.951-13.208-34.918-30.416-40.638v-59.449a30.076 30.076 0 0 0 10.979-7.878c5.49 6.229 13.52 10.169 22.456 10.169 8.937 0 16.966-3.94 22.456-10.169 5.49 6.229 13.52 10.169 22.456 10.169.334 0 .666-.014.998-.025v246.544zm13.973-276.46c0 8.255-6.716 14.971-14.971 14.971s-14.971-6.716-14.971-14.971v-24.485l13.211-50.369h24.587l-7.857 48.805v26.049zm156.694 276.46H178.152V245.878a30.137 30.137 0 0 0 6.487-5.536c5.49 6.229 13.52 10.169 22.456 10.169h.998c8.937 0 16.966-3.94 22.456-10.169 5.49 6.229 13.52 10.169 22.456 10.169h4.99c8.937 0 16.966-3.94 22.456-10.169 5.49 6.229 13.52 10.169 22.456 10.169h1.996c8.937 0 16.966-3.94 22.456-10.169a30.137 30.137 0 0 0 6.487 5.536v251.151zm.998-276.46V194.52l-7.857-48.805h24.587l13.211 50.369v24.485c0 8.255-6.716 14.971-14.971 14.971s-14.97-6.716-14.97-14.971zm78.846 276.46h-64.873V250.486c.332.011.664.025.998.025 8.937 0 16.966-3.94 22.456-10.169 5.49 6.229 13.52 10.169 22.456 10.169 8.937 0 16.966-3.94 22.456-10.169a30.08 30.08 0 0 0 10.979 7.878v59.787c-17.145 6.158-29.443 22.573-29.443 41.81 0 .493.009.987.025 1.483-14.55 7.552-23.978 22.738-23.978 39.437 0 24.489 19.924 44.413 44.413 44.413 6.092 0 12.01-1.234 17.466-3.57v12.552h-22.955v52.897zm45.91 0h-30.94v-37.926h30.94v37.926zm26.449 0h-11.478v-52.897h-22.955v-14.76a44.238 44.238 0 0 0 15.47 2.784 44.139 44.139 0 0 0 18.963-4.262v69.135zm-18.963-79.844a29.165 29.165 0 0 1-15.47-4.399v-8.669l30.812-10.271-4.735-14.202-26.077 8.692v-47.501h-14.971v47.501l-26.077-8.692-4.735 14.202 30.812 10.271v10.31a29.239 29.239 0 0 1-17.466 5.753c-16.235 0-29.443-13.207-29.443-29.443 0-12.4 7.841-23.541 19.512-27.722l5.892-2.111-1.035-6.173a29.892 29.892 0 0 1-.416-4.914c0-16.235 13.207-29.443 29.443-29.443s29.443 13.207 29.443 29.443c0 .824-.041 1.683-.125 2.624l-.507 5.697 5.364 1.986c11.497 4.258 19.221 15.357 19.221 27.619 0 16.235-13.207 29.442-29.442 29.442zm29.941-387.243H14.971V14.971h482.058v14.971z"/><path d="M398.721 87.329v13.973h-71.859v13.973h85.832V87.329zm-106.292 13.973h19.462v13.973h-19.462zM99.306 88.328v25.949h13.973V102.3h22.955V88.328zm51.899 0h15.47v13.973h-15.47zM98.807 265.981h13.973v30.94H98.807zm35.93 18.962h13.973v46.908h-13.973zm223.563-9.98h13.973v40.92H358.3zm36.928-7.984h13.973v25.949h-13.973zM372.273 445.63h13.973v39.922h-13.973zm-237.536 1.996h13.973v32.936h-13.973z"/></svg>