<svg xmlns="http://www.w3.org/2000/svg" viewBox="0 0 512 512"><path d="M482.603 183.113h-36.386a197.062 197.062 0 0 0-12.523-34.186l25.24-43.412-29.398-50.565H370.83l-7.658 13.172a196.064 196.064 0 0 0-53.876-24.639L284.352.578h-58.704l-24.944 42.904a196.326 196.326 0 0 0-53.151 24.166l-7.385-12.698H81.463l-29.397 50.564 24.69 42.468a196.314 196.314 0 0 0-12.979 35.131h-34.38L0 233.677l29.397 50.564h34.388a196.6 196.6 0 0 0 16.989 43.041l-13.688 23.544 29.397 50.564h53.705a197.377 197.377 0 0 0 18.189 10.102l-47.237 93.137 13.395 6.794 6.547-12.909h227.834l6.547 12.909 13.394-6.794-47.239-93.14a196.964 196.964 0 0 0 18.19-10.098h54.707l29.397-50.564-14.21-24.442a196.486 196.486 0 0 0 16.511-42.142h36.389v-.001L512 233.677l-29.397-50.564zm-8.642 15.019l16.3 28.036H416.24l16.3-28.036h41.421zm-53.068-57.073h-41.422l-16.3-28.036h74.021l-16.299 28.036zm-41.421-71.09h41.422l16.3 28.036h-74.021l16.299-28.036zm-8.642 86.109h49.64a181.96 181.96 0 0 1 10.156 27.034h-6.729L397.41 228.67h-34.895c-1.105-24.012-10.111-45.998-24.478-63.406l24.114-24.114 8.679 14.928zm-147.594 180.45a107.026 107.026 0 0 0 25.755 4.614v30.208h-23.345l-21.947 37.748a181.305 181.305 0 0 1-14.737-4.992l34.274-67.578zm-7.268-18.872a92.775 92.775 0 0 1-18.706-11.617l10.701-10.702a77.694 77.694 0 0 0 14.81 8.901l-6.805 13.418zm14.179 5.247l6.965-13.731a77.076 77.076 0 0 0 11.879 1.848v15.074a92.151 92.151 0 0 1-18.844-3.191zm4.14 63.467h41.423l16.3 28.036h-74.022l16.299-28.036zm57.722 43.055l-16.3 28.036h-41.423l-16.3-28.036h74.023zm-7.659-58.074h-20.34v-30.419a106.896 106.896 0 0 0 22.751-4.405l34.272 67.575a181.313 181.313 0 0 1-14.737 4.995l-21.946-37.746zm-20.34-45.496v-15.12a77.02 77.02 0 0 0 8.876-1.564l6.965 13.732a91.964 91.964 0 0 1-15.841 2.952zm23.214-21.616a77.698 77.698 0 0 0 16.492-10.223l10.672 10.672a92.849 92.849 0 0 1-20.359 12.968l-6.805-13.417zm-32.226-7.983c-34.506 0-62.579-28.073-62.579-62.579s28.074-62.579 62.579-62.579c34.507 0 62.579 28.073 62.579 62.579.001 34.507-28.072 62.579-62.579 62.579zm-6.007-139.922c-16.604 1.279-31.76 7.792-43.81 17.908l-10.658-10.657c14.818-12.802 33.725-20.99 54.466-22.324l.002 15.073zm-54.331 28.625c-9.798 12.112-16.024 27.216-17.081 43.711h-15.061c1.104-20.632 8.994-39.49 21.47-54.383l10.672 10.672zm-16.592 58.73c2.043 15.772 8.827 30.07 18.889 41.413l-10.641 10.641c-12.759-14.105-21.241-32.145-23.392-52.055h15.144zm85.942-87.071v-15.12c20.307 1.971 38.715 10.522 53.056 23.495l-10.641 10.643c-11.583-10.275-26.247-17.138-42.415-19.018zm67.919 87.071h15.144c-2.07 19.167-10.008 36.602-21.981 50.461l-10.657-10.658c9.295-11.072 15.547-24.77 17.494-39.803zm.489-15.02v.001c-1.008-15.739-6.722-30.213-15.758-42.029l10.702-10.702c11.693 14.625 19.054 32.854 20.118 52.73h-15.062zM355.609 81.13l-14.176 24.384 12.909 22.204-26.651 26.651c-17.088-15.675-39.237-25.912-63.681-27.947v-24.713h20.341L309.123 59.1a181.121 181.121 0 0 1 46.486 22.03zM234.287 15.598h41.423l16.3 28.036h-74.022l16.299-28.036zm57.722 43.055l-16.3 28.036h-41.423l-16.3-28.036h74.023zm-91.134.447l24.771 42.608h23.345v24.503c-24.88 1.376-47.529 11.24-65.102 26.737l-26.497-26.497 12.172-20.938-14.453-24.86A181.414 181.414 0 0 1 200.875 59.1zm-27.538 104.537c-15.165 17.656-24.714 40.265-25.854 65.034h-32.894l-26.487-45.558h-8.731a181.3 181.3 0 0 1 10.145-27.035h50.651l9.416-16.195 23.754 23.754zM90.104 69.969h41.422l16.3 28.036H73.805l16.299-28.036zm-16.299 43.055h74.022l-16.3 28.036H90.104l-16.299-28.036zm-35.767 85.108h41.423l16.3 28.036H21.739l16.299-28.036zm0 71.09l-16.3-28.036h74.023l-16.3 28.036H38.038zm41.321 15.019h8.744l23.576-40.551h36.154c2.229 24.047 12.398 45.826 27.859 62.679l-10.72 10.72-9.783-16.828H96.482l-6.713 11.546a181.523 181.523 0 0 1-10.41-27.566zm83.486 59.075H88.824l16.3-28.036h41.423l16.298 28.036zm-16.299 43.054h-41.423l-16.3-28.036h74.022l-16.299 28.036zm14.88 4.29l23.159-39.834-11.805-20.306 13.805-13.805a107.911 107.911 0 0 0 22.586 14.34l-34 67.037a182.444 182.444 0 0 1-13.745-7.432zm199.872 92.833h-212.6l33.437-65.929a196.279 196.279 0 0 0 14.555 5.115l28.954 49.8h58.704l28.954-49.801a196.866 196.866 0 0 0 14.556-5.111l33.44 65.926zm-26.474-85.403l-33.999-67.035a107.998 107.998 0 0 0 24.214-15.716l13.916 13.916-12.541 21.57 22.9 39.388a181.767 181.767 0 0 1-14.49 7.877zm71.05-11.72h-41.422l-16.3-28.036h74.021l-16.299 28.036zm-57.721-43.054l16.3-28.036h41.422l16.3 28.036h-74.022zm72.518-32.468l-6.155-10.586h-58.705l-9.047 15.561-11.037-11.037c14.662-16.625 24.278-37.795 26.439-61.096h38.155l23.576 40.551h6.717a181.403 181.403 0 0 1-9.943 26.607zm53.29-41.626h-41.422l-16.3-28.036h74.021l-16.299 28.036z"/><path d="M254.998 191.123c-23.465 0-42.554 19.089-42.554 42.554s19.089 42.554 42.554 42.554 42.554-19.089 42.554-42.554-19.089-42.554-42.554-42.554zm0 70.089c-15.183 0-27.535-12.353-27.535-27.535s12.352-27.535 27.535-27.535c15.182 0 27.535 12.353 27.535 27.535s-12.353 27.535-27.535 27.535z"/></svg>