<svg xmlns="http://www.w3.org/2000/svg" viewBox="0 0 512 512"><path d="M0 493.5h512v15H0zm481.5-90V267.008l-111.691-75.177L226.5 297.205V321h15v-16.205l128.691-94.626 96.309 64.823V403.5h-25v-90h-75v90h-81.018c-.189-14.177-8.351-26.93-20.855-33.113-.057-.28-.126-.556-.189-.834-.06-.266-.116-.532-.18-.796-.094-.383-.198-.762-.302-1.141-.066-.241-.127-.485-.198-.724a41.63 41.63 0 0 0-.401-1.27c-.061-.185-.115-.373-.178-.557-.206-.6-.424-1.195-.655-1.782-.051-.129-.108-.254-.16-.382a43.145 43.145 0 0 0-.575-1.364c-.097-.216-.201-.427-.301-.642-.166-.355-.331-.711-.506-1.061-.118-.236-.244-.467-.367-.701a41.788 41.788 0 0 0-.512-.958c-.134-.241-.275-.477-.414-.715-.176-.301-.352-.602-.535-.898-.148-.239-.301-.475-.453-.711a37.52 37.52 0 0 0-1.05-1.55 44.318 44.318 0 0 0-1.113-1.496 40.634 40.634 0 0 0-1.843-2.204c-.188-.21-.376-.42-.568-.626a40.812 40.812 0 0 0-.706-.735c-.194-.199-.388-.399-.586-.594-.248-.243-.501-.48-.755-.718-.197-.184-.392-.371-.592-.552-.269-.243-.546-.478-.821-.713-.193-.165-.384-.334-.58-.496-.311-.256-.629-.502-.947-.75-.169-.132-.335-.268-.507-.398-.49-.369-.989-.729-1.495-1.077-.087-.06-.178-.115-.265-.174-.425-.287-.853-.57-1.288-.842-.194-.121-.393-.234-.589-.352-.335-.202-.67-.404-1.011-.597-.226-.127-.456-.247-.684-.37-.319-.172-.637-.345-.96-.509-.242-.123-.488-.239-.732-.357-.317-.153-.634-.307-.956-.452-.253-.115-.51-.224-.766-.334a40.607 40.607 0 0 0-.962-.402 45.38 45.38 0 0 0-1.77-.663 41.625 41.625 0 0 0-3.651-1.093c-.276-.069-.552-.138-.829-.202-.349-.08-.701-.153-1.053-.225-.276-.056-.551-.114-.828-.164a43.828 43.828 0 0 0-1.095-.181c-.272-.043-.542-.088-.816-.125-.385-.053-.774-.094-1.163-.137-.258-.028-.514-.061-.773-.085a43.327 43.327 0 0 0-1.309-.092c-.218-.013-.434-.033-.653-.043a41.629 41.629 0 0 0-3.857-.002c-.206.009-.41.026-.616.038-.415.024-.831.05-1.243.087-.24.021-.478.049-.716.074-.376.04-.751.081-1.124.131-.25.033-.499.071-.749.109a42.23 42.23 0 0 0-1.825.317 47.378 47.378 0 0 0-1.791.392c-.358.087-.713.18-1.067.276-.231.062-.462.123-.692.189-.378.109-.753.228-1.127.347-.2.064-.401.123-.599.19-.485.163-.964.336-1.442.516-.084.031-.169.059-.252.091a42.28 42.28 0 0 0-1.663.68c-.161.07-.319.146-.479.218-.386.173-.77.347-1.15.531-.202.098-.401.201-.601.302-.333.168-.665.337-.993.513-.212.114-.422.232-.633.35-.311.174-.621.351-.928.532a44.18 44.18 0 0 0-3.025 1.971c-.192.137-.384.272-.574.412a40.39 40.39 0 0 0-.909.694c-.168.131-.338.259-.504.392-.358.288-.71.584-1.059.883-.101.087-.205.169-.305.257-.447.391-.886.79-1.316 1.199-.107.102-.21.209-.317.312-.32.31-.637.622-.947.941-.15.155-.296.315-.444.472a40.27 40.27 0 0 0-.768.833c-.159.178-.313.359-.469.54-.233.27-.464.542-.69.818-.157.191-.311.385-.465.579a40.09 40.09 0 0 0-1.088 1.434c-.208.286-.41.577-.611.868-.138.201-.277.401-.412.605a43.42 43.42 0 0 0-.597.934c-.121.194-.245.386-.363.582-.217.359-.425.724-.631 1.091-.088.156-.18.308-.265.465a43.54 43.54 0 0 0-.828 1.591c-.055.112-.105.227-.159.339-.207.429-.409.859-.602 1.296-.09.203-.172.411-.259.616a41.27 41.27 0 0 0-.435 1.06c-.09.231-.175.466-.261.699a39.37 39.37 0 0 0-.607 1.757c-.058.181-.122.358-.177.54C165.664 367.961 152.5 381.972 152.5 399c0 1.51.116 3.013.324 4.5H134.5v-43.466c30.937-3.719 55-30.111 55-62.034v-70c0-34.463-28.038-62.5-62.5-62.5-2.327 0-4.65.138-6.959.396l-.253-5.591c-.908-20.077-17.363-35.805-37.461-35.805H50.544c-20.007 0-36.459 15.653-37.454 35.636l-8.014 161c-.516 10.358 3.138 20.2 10.286 27.714 7.149 7.513 16.797 11.65 27.167 11.65H58.5v43H0v15h512v-15h-30.5zm-423-125.607l-9.197-9.197-10.606 10.607L58.5 299.107V345.5H42.53c-6.222 0-12.011-2.482-16.3-6.99s-6.481-10.413-6.172-16.628l8.014-161c.597-11.99 10.468-21.382 22.472-21.382h31.783a22.462 22.462 0 0 1 22.477 21.482l7.285 161c.28 6.197-1.926 12.08-6.212 16.564-4.286 4.483-10.062 6.953-16.265 6.953H73.5v-23.393l23.803-23.803-10.606-10.607L73.5 300.893V255h-15v22.893zm61 125.607h-46v-43h16.112c5.74 0 11.26-1.273 16.258-3.682a61.832 61.832 0 0 0 13.63 3.219V403.5zm.49-58.517c4.975-6.834 7.472-15.071 7.083-23.679l-6.352-140.385A47.893 47.893 0 0 1 127 180.5c26.191 0 47.5 21.309 47.5 47.5v70c0 26.191-21.309 47.5-47.5 47.5-2.366 0-4.705-.176-7.01-.517zm48.101 58.516A17.513 17.513 0 0 1 167.5 399c0-9.649 7.851-17.5 17.5-17.5.76 0 1.535.054 2.305.16l7.44 1.026 1.016-7.441C197.609 361.708 209.319 351.5 223 351.5c2.673 0 5.259.376 7.704 1.08a27.444 27.444 0 0 1 4.689 1.832c8.2 4.111 14.052 12.211 14.979 21.958l.456 4.795 4.551 1.58c8.884 3.083 14.891 11.384 15.099 20.754H168.091zm258.409.001h-45v-75h45v75z"/><path d="M457.5 214.689V152.5h-45v31.899l-43.45-29.248-169.493 124.627 8.886 12.084 160.988-118.373 130.381 87.763 8.376-12.443-50.688-34.12zm-15-10.097l-15-10.097V167.5h15v37.092zM290.5 314.5v55h55v-55h-55zm40 40h-25v-25h25v25zM115 3.5C94.322 3.5 77.5 20.322 77.5 41S94.322 78.5 115 78.5s37.5-16.822 37.5-37.5S135.678 3.5 115 3.5zm0 60c-12.407 0-22.5-10.094-22.5-22.5s10.093-22.5 22.5-22.5 22.5 10.094 22.5 22.5-10.093 22.5-22.5 22.5zm236-25h-81c-12.407 0-22.5 10.094-22.5 22.5 0 4.136-3.364 7.5-7.5 7.5h-32c-12.407 0-22.5 10.094-22.5 22.5s10.093 22.5 22.5 22.5h81c12.407 0 22.5-10.094 22.5-22.5 0-4.136 3.364-7.5 7.5-7.5h32c12.407 0 22.5-10.094 22.5-22.5S363.407 38.5 351 38.5zm0 30h-32c-12.407 0-22.5 10.094-22.5 22.5 0 4.136-3.364 7.5-7.5 7.5h-81c-4.136 0-7.5-3.364-7.5-7.5s3.364-7.5 7.5-7.5h32c12.407 0 22.5-10.094 22.5-22.5 0-4.136 3.364-7.5 7.5-7.5h81c4.136 0 7.5 3.364 7.5 7.5s-3.364 7.5-7.5 7.5zm76.5-8.5h15v15h-15zm0 60h15v15h-15zm0-30h15v15h-15zm40-30h15v15h-15zm0-30h15v15h-15zm0 60h15v15h-15zM89.495 154.5H50.544v15h24.614l1.171 25.869 14.984-.678zm-12.487 55.86l14.984-.679.678 14.984-14.984.678zm61.7-12.679l-5.416 13.988c6.704 2.596 11.208 9.159 11.208 16.331v30h15v-30c0-13.319-8.355-25.504-20.792-30.319zM144.5 273h15v15h-15z"/><path d="M300.441 298.704l-8.885-12.083 12.084-8.886 8.885 12.083zm15.303-29.864l25.833-18.993 8.885 12.085-25.832 18.994zm99.172 7.593l-42.112-28.346 8.376-12.444 42.112 28.346zm12.455 8.361l8.376-12.444 12.444 8.376-8.376 12.444zM216 364.5v15c4.687 0 8.5 3.813 8.5 8.5h15c0-12.958-10.542-23.5-23.5-23.5zm-189 66h51v15H27zm46 28h14v15H73zm-45 12h29v15H28zm86-32h44v15h-44zm41 28h27v15h-27zm45-27h29v15h-29zm68-12h22v15h-22zm-37 40h34v15h-34zm60-17h38v15h-38zm60-13h41v15h-41zm37 29h19v15h-19zm35-30h30v15h-30zm21 30h20v15h-20zm28-28h27v15h-27z"/></svg>