<svg xmlns="http://www.w3.org/2000/svg" viewBox="0 0 511.999 511.999"><path d="M130.793 372.954l-2.543 14.783a39.185 39.185 0 0 1 11.791 4.037l7.051-13.238a54.166 54.166 0 0 0-16.299-5.582zM161 426.536v.129c0 4.217-.659 8.362-1.958 12.323l14.252 4.676A54.415 54.415 0 0 0 176 426.665v-.246l-15 .117zm-50.807-53.196a54.17 54.17 0 0 0-16.073 6.192l7.544 12.965a39.22 39.22 0 0 1 11.631-4.481l-3.102-14.676zM92.1 453.046l-11.16 10.023a54.622 54.622 0 0 0 13.364 10.835l7.495-12.994a39.64 39.64 0 0 1-9.699-7.864zm71.026-61.56l-11.452 9.688a39.442 39.442 0 0 1 6.454 10.672l13.902-5.633a54.375 54.375 0 0 0-8.904-14.727zm-34.723 74.08a40.316 40.316 0 0 1-12.491.208l-2.101 14.852a55.175 55.175 0 0 0 17.192-.287l-2.6-14.773zm23.37-13.525a39.644 39.644 0 0 1-9.43 8.185l7.928 12.734a54.634 54.634 0 0 0 12.991-11.276l-11.489-9.643zm-73.19-58.969a54.294 54.294 0 0 0-8.349 15.061l14.106 5.1a39.365 39.365 0 0 1 6.048-10.907l-11.805-9.254zm3.439 34.929l-14.991.5a54.336 54.336 0 0 0 3.278 16.899l14.086-5.156a39.34 39.34 0 0 1-2.373-12.243zm347.424 38.118c-4.184.2-8.452-.26-12.486-1.375l-3.994 14.459a54.584 54.584 0 0 0 14.534 1.962c.896 0 1.788-.021 2.673-.064l-.727-14.982zm-34.098-16.503l-12.199 8.729a54.692 54.692 0 0 0 12.168 12.307l8.865-12.1a39.673 39.673 0 0 1-8.834-8.936zm58.48 6.495a39.436 39.436 0 0 1-10.557 6.782l5.993 13.75a54.377 54.377 0 0 0 14.567-9.354l-10.003-11.178zm-6.614-80.268l-5.428 13.983a39.382 39.382 0 0 1 10.827 6.349l9.542-11.574a54.405 54.405 0 0 0-14.941-8.758zm19.284 57.145a39.156 39.156 0 0 1-3.942 11.9l13.302 6.932a54.101 54.101 0 0 0 5.45-16.453l-14.81-2.379zm8.298-33.417l-13.01 7.467a39.085 39.085 0 0 1 4.425 11.728l14.701-2.98a54.121 54.121 0 0 0-6.116-16.215zM30 315.165v37.5h15v-22.5h22.5v-15zm163.5 0v15H216v22.5h15v-37.5zm-4.682-250.42l13.51-6.516 6.516 13.51-13.51 6.517zm105.364 6.392l6.543-13.5 13.5 6.544-6.544 13.5zm-41.932-36.98l-36.396 17.551 6.516 13.512 29.864-14.403 28.429 13.781 6.543-13.498z"/><path d="M427.5 342.165a84.03 84.03 0 0 0-31.022 5.925l-8.857-14.12C399.847 331.178 409 320.224 409 307.165c0-15.163-12.336-27.5-27.5-27.5h-40c-15.164 0-27.5 12.337-27.5 27.5s12.336 27.5 27.5 27.5h2.815l-46.17 91.5H260V284.354l27.461-25.689H316.5v-15h-34.961L260 263.815v-112.15h196V99.466L252.508.835 48 99.455v52.21h197v105H0v184.5h38.271c6.899 39.705 41.582 70 83.229 70s76.331-30.295 83.229-70H344.27c6.899 39.705 41.582 70 83.229 70 46.593 0 84.5-37.906 84.5-84.5s-37.906-84.5-84.499-84.5zm-306 154c-38.322 0-69.5-31.178-69.5-69.5s31.178-69.5 69.5-69.5 69.5 31.178 69.5 69.5-31.178 69.5-69.5 69.5zm123.5-70h-39.013c-.271-46.363-38.062-84-84.487-84s-84.216 37.637-84.487 84H15v-126h230v126zm0-141H15v-13.5h230v13.5zm-3.364-148.5v-23.5h-15v23.5h-20.727v-23.5h-15v23.5h-20.728v-23.5h-15v23.5h-20.727v-23.5h-15v23.5H98.727v-23.5h-15v23.5H63v-27.79l189.492-91.38L441 108.864v27.801h-20.727v-23.5h-15v23.5h-20.728v-23.5h-15v23.5h-20.727v-23.5h-15v23.5H313.09v-23.5h-15v23.5h-20.727v-23.5h-15v23.5h-20.727zm99.864 183c-6.893 0-12.5-5.607-12.5-12.5s5.607-12.5 12.5-12.5h40c6.893 0 12.5 5.607 12.5 12.5s-5.607 12.5-12.5 12.5h-40zm1.513 106.5h-28.066l46.17-91.5h9.235l12.669 20.198c-23.869 14.84-39.832 41.229-40.008 71.302zm47.973-58.601l24.964 39.801c-6.42 3.856-10.762 10.823-10.937 18.8h-47c.176-24.727 13.327-46.418 32.973-58.601zM427.5 496.165c-33.35 0-61.278-23.616-67.967-55h50.782c4.131 4.888 10.3 8 17.186 8 12.407 0 22.5-10.094 22.5-22.5 0-10.892-7.781-19.999-18.075-22.061l-27.314-43.548a69.163 69.163 0 0 1 22.89-3.891c38.322 0 69.5 31.178 69.5 69.5s-31.18 69.5-69.502 69.5zm-7.5-69.5c0-4.136 3.364-7.5 7.5-7.5s7.5 3.364 7.5 7.5-3.364 7.5-7.5 7.5-7.5-3.364-7.5-7.5z"/><path d="M121.5 404.165c-12.407 0-22.5 10.094-22.5 22.5s10.093 22.5 22.5 22.5 22.5-10.094 22.5-22.5-10.093-22.5-22.5-22.5zm0 30c-4.136 0-7.5-3.364-7.5-7.5s3.364-7.5 7.5-7.5 7.5 3.364 7.5 7.5-3.364 7.5-7.5 7.5z"/></svg>