<svg xmlns="http://www.w3.org/2000/svg" viewBox="0 0 512.003 512.003"><path d="M183.119 63.554l14.328 4.957c2.948-8.52 10.979-14.244 19.984-14.244v-15.16c-15.462 0-29.251 9.825-34.312 24.447zm-19.581 15.222c-22.731 1.915-41.489 19.73-44.601 42.358l15.018 2.066c2.155-15.662 15.132-27.991 30.857-29.317l-1.274-15.107zm-96.776 93.331l15.018 2.066c.881-6.406 6.397-11.236 12.83-11.235l.316.003.327-15.156c-14.23-.32-26.555 10.24-28.491 24.322zm127.142-22.402c-6.531 7.788-16.04 12.256-26.086 12.256a34.86 34.86 0 0 1-4.728-.326 34.43 34.43 0 0 1-7.627-1.974l-5.435 14.153a49.608 49.608 0 0 0 10.994 2.84 50.23 50.23 0 0 0 6.795.467c14.542 0 28.284-6.442 37.703-17.674l-11.616-9.742zm58.331.294l-11.716 9.623a78.767 78.767 0 0 0 21.685 18.373l7.555-13.145a63.644 63.644 0 0 1-17.524-14.851zm74.092 18.379a63.086 63.086 0 0 1-24.598 4.972c-2.923 0-5.893-.205-8.824-.608a64.408 64.408 0 0 1-10.773-2.437l-4.606 14.444a79.704 79.704 0 0 0 13.312 3.012c3.614.496 7.279.749 10.891.749a78.172 78.172 0 0 0 30.479-6.158l-5.881-13.974zm65.839 89.605l-12.081 9.16c4.896 6.457 11.592 10.991 19.362 13.114l3.993-14.626c-4.516-1.233-8.416-3.878-11.274-7.648zm42.556-38.684l-10.687 10.753c4.067 4.043 6.307 9.378 6.307 15.024 0 .984-.069 1.984-.203 2.968-1.155 8.395-7.444 15.494-15.649 17.665l3.879 14.656c14.264-3.775 24.778-15.65 26.788-30.258.229-1.669.345-3.362.345-5.031 0-9.713-3.829-18.868-10.78-25.777zm.349-92.416c-7.956-10.496-19.506-17.262-32.522-19.052l-2.065 15.019c9.003 1.238 16.996 5.923 22.506 13.191 5.509 7.269 7.863 16.231 6.624 25.237l15.018 2.066c1.791-13.018-1.605-25.965-9.561-36.461zm-122.68-95.825a80.344 80.344 0 0 0-10.9-.75c-15.181 0-29.978 4.381-42.793 12.671l8.233 12.73c12.832-8.3 28.172-11.726 43.395-9.632 15.053 2.07 28.871 9.374 38.907 20.566l11.287-10.12c-12.429-13.863-29.522-22.906-48.129-25.465zm57.914 39.045l-13.172 7.504a64.64 64.64 0 0 1 6.541 16.361l14.71-3.672a79.839 79.839 0 0 0-8.079-20.193z"/><path d="M460.652 202.789a79.298 79.298 0 0 0 14.018-35.314c5.98-43.472-24.523-83.704-67.996-89.683l-.308-.041c-5.702-18.871-16.355-35.789-31.025-49.191-16.398-14.979-36.737-24.503-58.816-27.54a109.42 109.42 0 0 0-70.518 14.166A66.377 66.377 0 0 0 226.6 9.417c-29.828-4.1-58.649 12.425-70.38 39.699-15.975 2.343-31.073 9.599-42.94 20.719-13.244 12.409-21.902 29.163-24.38 47.177l-.097.732c-26.557 2.631-48.353 23.154-52.076 50.234-2.13 15.479 1.896 30.861 11.336 43.311s23.163 20.481 38.642 22.61a58.421 58.421 0 0 0 33.166-5.142l32.404 18.709V361.41h-19.709v45.481h116.23V361.41h-19.709v-69.595l34.364 19.84v185.189h-86.414v15.16h227.406v-15.16h-86.414V313.735l41.483-23.95c10.524 11.731 24.701 19.299 40.491 21.471a67.66 67.66 0 0 0 9.232.634c14.456 0 28.453-4.681 40.172-13.566 14.203-10.768 23.361-26.422 25.79-44.077 2.569-18.703-2.701-37.105-14.545-51.458zm-308.379 27.167l-18.36-10.6a58.153 58.153 0 0 0 9.962-11.753l8.398 4.848v17.505zm81.36 146.61v15.16h-85.909v-15.16h85.909zm-19.709-128.521v17.506l-46.492-26.842v-17.505l46.492 26.841zm-40.361-40.808c18.408-1.314 35.771-8.987 49.242-21.939a108.913 108.913 0 0 0 40.644 26.647v47.188l-89.886-51.896zm40.361 75.819v78.349h-46.492V256.214l46.492 26.842zm88.941 21.921v191.86h-24.257V302.896l-49.524-28.593v-17.506l49.524 28.593v-69.031c2.671.573 5.369 1.064 8.098 1.439a109.781 109.781 0 0 0 16.159 1.01v68.664l41.983-24.24a66.14 66.14 0 0 0 5.815 14.15l-47.798 27.595zm39.538-57.838l-24.377 14.074v-43.637a108.916 108.916 0 0 0 20.916-5.31 79.508 79.508 0 0 0 8.436 7.49 66.568 66.568 0 0 0-4.385 16.302 67.394 67.394 0 0 0-.59 11.081zm117.773 5.037c-1.877 13.644-8.955 25.741-19.93 34.062-10.975 8.321-24.533 11.872-38.179 9.994-13.644-1.877-25.741-8.955-34.062-19.93-8.321-10.975-11.87-24.534-9.994-38.178a51.396 51.396 0 0 1 5.616-17.318l3.306-6.17-5.889-3.785a64.55 64.55 0 0 1-14.243-12.453l-3.597-4.226-5.116 2.153c-15.51 6.527-32.566 8.759-49.317 6.454-23.57-3.242-44.869-15.151-59.967-33.534l-5.797-7.058-5.869 6.999c-14.353 17.116-36.108 25.522-58.179 22.486a64.714 64.714 0 0 1-14.364-3.706l-6.957-2.671-2.789 6.91c-7.434 18.413-26.384 29.385-46.082 26.671-11.468-1.578-21.634-7.526-28.627-16.749-6.993-9.224-9.976-20.619-8.399-32.087 3.005-21.839 21.855-37.899 43.875-37.412l7.452.173.298-7.449c.085-2.134.271-4.246.549-6.278 4.071-29.598 28.611-52.899 58.348-55.404l4.914-.414 1.613-4.66c8.006-23.136 31.446-37.504 55.738-34.161a51.328 51.328 0 0 1 18.118 6.066l3.983 2.228 3.832-2.479a94.23 94.23 0 0 1 63.993-14.211c38.393 5.281 69.26 32.991 78.636 70.593l1.339 5.37 5.522.36c1.798.117 3.278.26 4.654.45 35.19 4.84 59.883 37.408 55.042 72.598a64.198 64.198 0 0 1-14.676 32.856l-4.535 5.343 4.971 4.94c11.614 11.538 16.994 27.44 14.769 43.627zm-313.463 244.66h15.16v15.16h-15.16zm272.888 0h15.16v15.16h-15.16z"/></svg>