<svg xmlns="http://www.w3.org/2000/svg" viewBox="0 0 512 512"><path d="M349.012 386.366h-20.064v-96.897L512 209.664 458.883 87.875c-5.291-12.132-19.465-17.696-31.598-12.406a23.848 23.848 0 0 0-12.748 13.23 23.843 23.843 0 0 0 .341 18.368l21.149 48.488-37.962 16.557c-9.178 4.003-16.248 11.34-19.907 20.661-3.349 8.53-3.464 17.785-.392 26.329l-63.09 27.517c-10.582-12.099-26.114-19.763-43.412-19.763-31.807 0-57.684 25.876-57.684 57.684v6.173l-60.216 26.264c-8.992-17.345-30.084-25.016-48.249-17.092l-37.962 16.557-21.148-48.489a23.849 23.849 0 0 0-13.23-12.747 23.836 23.836 0 0 0-18.367.341C2.275 260.838-3.29 275.013 2.001 287.144L55.12 408.932l158.46-69.113v46.546h-20.064v37.118h-31.099v15.048H380.11v-15.048h-31.099v-37.117zm43.154-188.092a22.287 22.287 0 0 1 11.915-12.367l51.756-22.573-27.164-62.282a8.89 8.89 0 0 1-.127-6.853 8.895 8.895 0 0 1 4.755-4.936 8.904 8.904 0 0 1 3.568-.746c3.455 0 6.754 2.01 8.22 5.375l35.124 80.531-88.61 38.647c-1.5-4.841-1.316-10.01.563-14.796zm94.063-10.059l5.961 13.67-164.311 71.635a57.211 57.211 0 0 0-4.736-14.174l163.086-71.131zm-257.601 96.327c0-23.51 19.126-42.636 42.636-42.636s42.636 19.126 42.636 42.636v101.824h-85.272V284.542zM50.919 361.659l-35.124-80.531c-1.974-4.526.101-9.814 4.628-11.79a8.931 8.931 0 0 1 3.577-.751 8.95 8.95 0 0 1 3.275.624 8.897 8.897 0 0 1 4.936 4.756l27.166 62.282 51.754-22.573c10.559-4.605 22.77-.415 28.397 9.335l-88.609 38.648zm11.978 27.464l-5.962-13.671 102.533-44.719 54.113-23.601v16.272L62.897 389.123zm271.067 34.361h-125.4v-22.07h125.399v22.07z"/><path d="M271.264 259.462c-15.211 0-27.588 12.375-27.588 27.588s12.376 27.588 27.588 27.588c15.211 0 27.588-12.375 27.588-27.588s-12.376-27.588-27.588-27.588zm0 40.128c-6.915 0-12.54-5.625-12.54-12.54s5.625-12.54 12.54-12.54c6.915 0 12.54 5.625 12.54 12.54s-5.625 12.54-12.54 12.54zM132.322 423.479h15.048v15.048h-15.048zm262.837 0h15.048v15.048h-15.048zM244.68 327.775h15.048v42.134H244.68z"/></svg>