<svg xmlns="http://www.w3.org/2000/svg" viewBox="0 0 512 512"><path d="M241.518 180.687h29.941v14.971h-29.941zm7.985 214.541h40.92v14.971h-40.92zm175.657 0h40.92v14.971h-40.92zm8.985-214.538v14.971h32.437v29.346h14.97V180.69zm-39.426-62.92h14.971v14.971h-14.971zm-29.942 0h14.971v14.971h-14.971zm-29.941 0h14.971v14.971h-14.971zm-29.942 0h14.971v14.971h-14.971zm28.944 217.076h14.971v13.973h-14.971zm132.741 4.99h14.971v17.965h-14.971zm0-67.867h14.971v52.897h-14.971zM64.866 57.887h14.971v14.971H64.866z"/><path d="M157.353 404.211h46.742v20.959h-27.446v14.971h334.86l-.52-285.543L357.802 33.892 204.094 154.595v66.972H83.458L3.486 362.815v41.395h103.631v92.819H67.86V512h128.749v-14.971h-39.256v-92.818zm46.336-22.014l-12.233-17.793 68.143-120.357 8.308 14.173-64.218 123.977zm-103.627-58.829l5.355-9.481 5.354-9.482H150.8l-5.354 9.482-5.355 9.481h-40.029zm31.575 14.971l-10.709 18.963H80.9l10.708-18.963h40.029zm-12.413-48.904l5.355-9.481 5.355-9.482h40.029l-5.355 9.482-5.355 9.481h-40.029zm29.605 48.904h40.18l-10.736 18.963h-40.152l10.708-18.963zm8.455-14.971l5.355-9.481 5.355-9.482h40.229l-10.737 18.963h-40.202zm19.162-33.933l5.355-9.481 5.355-9.482h40.279l-10.737 18.963h-40.252zM395.72 425.17h-75.852V282.448h75.852V425.17zM357.787 52.939l124.13 97.81H233.232l124.555-97.81zm-138.722 112.78h276.973l.472 259.45h-85.818V267.478H304.898V425.17h-85.832v-39.423h-.355L285 257.773l-21.225-36.205h-44.71v-55.849zm-12.748 70.819h40.329l-10.736 18.963h-40.301l10.708-18.963zm-57.221 0h40.029l-10.709 18.963h-40.029l10.709-18.963zm-56.911 0h39.717l-10.708 18.963H81.449l10.736-18.963zm-19.213 33.934h39.767l-5.354 9.482-5.355 9.481H62.236l10.736-18.963zM53.76 304.405h39.817l-5.354 9.482-5.355 9.481H43.024l10.736-18.963zm-19.212 33.934h39.866l-10.708 18.963H23.811l10.737-18.963zM18.457 389.24v-16.967h160.242l11.665 16.967H18.457zm123.925 107.789h-20.293V404.21h20.293v92.819zM119.59 123.697a62.848 62.848 0 0 1-10.542 7.677l7.502 12.955a77.76 77.76 0 0 0 13.063-9.511l-10.023-11.121zm15.259-20.983a62.442 62.442 0 0 1-6.527 11.287l12.106 8.807a77.31 77.31 0 0 0 8.094-13.999l-13.673-6.095zm-113.988.062l-13.667 6.109a77.456 77.456 0 0 0 8.106 13.987l12.097-8.82a62.352 62.352 0 0 1-6.536-11.276zm76.287 33.907a62.151 62.151 0 0 1-12.746 2.703l1.555 14.891a77.227 77.227 0 0 0 15.821-3.356l-4.63-14.238zm-61.01-12.945l-10.013 11.128a77.633 77.633 0 0 0 13.078 9.502l7.486-12.964a62.496 62.496 0 0 1-10.551-7.666zm104.081-46.545v.156c0 4.372-.454 8.738-1.349 12.974l14.647 3.097a77.877 77.877 0 0 0 1.673-16.071v-.156h-14.971zm-81.62 59.511l-4.615 14.242a77.132 77.132 0 0 0 15.827 3.339l1.539-14.892a62.092 62.092 0 0 1-12.751-2.689zM77.843 0h-.015c-2.729 0-5.484.145-8.189.43l1.572 14.888a63.175 63.175 0 0 1 6.618-.347h.012c2.143 0 4.305.11 6.424.326L85.786.403A78.746 78.746 0 0 0 77.843 0zM7.126 45.967a76.977 76.977 0 0 0-4.978 15.396l14.65 3.08a62.018 62.018 0 0 1 4.008-12.397l-13.68-6.079zm8.337 31.452l-14.971.018a77.856 77.856 0 0 0 1.692 16.068l14.643-3.113c-.9-4.235-1.359-8.6-1.364-12.973zm10.542-57.48A77.912 77.912 0 0 0 15.204 31.96l12.116 8.794a62.763 62.763 0 0 1 8.72-9.705l-10.035-11.11zm75.613-16.213L97.02 17.973a62.085 62.085 0 0 1 11.912 5.285l7.473-12.972a76.98 76.98 0 0 0-14.787-6.56zm27.874 16.045l-10 11.14a62.86 62.86 0 0 1 8.751 9.677l12.087-8.833a77.995 77.995 0 0 0-10.838-11.984zM53.823 3.804a77.1 77.1 0 0 0-14.764 6.608l7.515 12.948a62.204 62.204 0 0 1 11.893-5.324L53.823 3.804zm94.631 41.93l-13.661 6.125a61.954 61.954 0 0 1 4.049 12.381l14.64-3.13a77.052 77.052 0 0 0-5.028-15.376zM77.841 29.942c-26.14 0-47.407 21.267-47.407 47.407s21.267 47.407 47.407 47.407 47.407-21.267 47.407-47.407-21.267-47.407-47.407-47.407zm0 79.844c-17.885 0-32.437-14.552-32.437-32.437s14.552-32.437 32.437-32.437 32.437 14.552 32.437 32.437-14.551 32.437-32.437 32.437z"/><path d="M357.794 180.647c-29.168 0-52.897 23.73-52.897 52.897v18.963H410.69v-18.963c.001-29.167-23.728-52.897-52.896-52.897zm37.926 56.889h-75.852v-3.992c0-20.912 17.014-37.926 37.926-37.926s37.926 17.014 37.926 37.926v3.992z"/></svg>