<svg xmlns="http://www.w3.org/2000/svg" viewBox="0 0 512 512"><path d="M480.205 466.655V188.54h29.862L431.973 32.352h-30.507v15.115h21.166l62.979 125.958H26.389L89.368 47.467h21.166V32.352H80.027L1.933 188.54h29.862v278.115H1.565V512h508.87v-45.345h-30.23zM46.91 188.54h418.18v278.115H313.94v-91.697H198.059v91.697H46.91V188.54zm251.916 201.533v76.582h-35.268v-76.582h35.268zm-50.383 0v76.582h-35.268v-76.582h35.268zM495.32 496.885H16.68V481.77h478.64v15.115z"/><path d="M240.237 32.356h31.52v15.115h-31.52zM175.387 0l-57.941 57.941v91.3h115.881v-91.3L175.387 0zm42.826 134.126h-85.651V64.201l42.826-42.826 42.826 42.826v69.925z"/><path d="M200.884 68.248c-6.811-6.811-15.866-10.561-25.497-10.561s-18.686 3.752-25.497 10.561l-2.214 2.214v48.549h55.422V70.462l-2.214-2.214zm-12.901 35.648h-25.192V77.011c7.428-5.599 17.764-5.599 25.192 0v26.885zM336.613 0l-57.941 57.941v91.3h115.881v-91.3L336.613 0zm42.826 134.126h-85.651V64.201l42.826-42.826 42.826 42.826v69.925z"/><path d="M362.11 68.248c-6.811-6.811-15.866-10.561-25.497-10.561s-18.686 3.752-25.497 10.561l-2.214 2.214v48.549h55.422V70.462l-2.214-2.214zm-12.901 35.648h-25.192V77.011c7.427-5.599 17.764-5.599 25.192 0v26.885zM77.14 210.709v65.498h65.498v-65.498H77.14zm50.383 50.383H92.255v-35.268h35.268v35.268zm30.23-50.383v65.498h65.498v-65.498h-65.498zm50.383 50.383h-35.268v-35.268h35.268v35.268zm-50.383 30.23v65.498h65.498v-65.498h-65.498zm50.383 50.383h-35.268v-35.268h35.268v35.268zM77.14 291.322v65.498h65.498v-65.498H77.14zm50.383 50.383H92.255v-35.268h35.268v35.268zm161.226-130.996v65.498h65.498v-65.498h-65.498zm50.383 50.383h-35.268v-35.268h35.268v35.268zm30.23-50.383v65.498h65.498v-65.498h-65.498zm50.383 50.383h-35.268v-35.268h35.268v35.268zm-50.383 30.23v65.498h65.498v-65.498h-65.498zm50.383 50.383h-35.268v-35.268h35.268v35.268zm-130.996-50.383v65.498h65.498v-65.498h-65.498zm50.383 50.383h-35.268v-35.268h35.268v35.268zM62.025 435.418H77.14v15.115H62.025zm30.23 0h60.46v15.115h-60.46zm75.574 0h15.115v15.115h-15.115zm161.227 0h15.115v15.115h-15.115zm30.23 0h60.46v15.115h-60.46zm75.574 0h15.115v15.115H434.86zm.531-294.816l13.52-6.76 6.759 13.52-13.52 6.759zm-27.497-54.987l13.518-6.76 20.74 41.482-13.518 6.759zM66.81 160.183l-13.518-6.76 6.76-13.52 13.518 6.76zm-.003-33.801l14.695-29.389 13.518 6.76-14.695 29.388zm191.712 147.306h15.115v15.115h-15.115zm0-55.422h15.115v40.307h-15.115zm116.385 153.669h15.115v15.115h-15.115zm30.23 0h40.307v15.115h-40.307zm-272.069 0h40.307v15.115h-40.307zm-30.23 0h15.115v15.115h-15.115z"/></svg>