<svg xmlns="http://www.w3.org/2000/svg" viewBox="0 0 512 512"><path d="M457.287 279.703l22.663 22.663 32.05-32.05L338.936 97.252 212.494 223.694H0v45.326h19.138v195.983H0v45.326h508.656v-45.326h-51.369v-185.3zM15.109 253.911v-15.109h203.644l120.184-120.184 151.697 151.696L479.95 281 338.936 139.986 225.011 253.911H15.109zm281.019 100.295v110.796h-75.543V349.17h15.109v-45.326H49.355v45.326h15.109v115.833H34.246V269.02h197.022l107.668-107.667 103.242 103.242v200.407h-60.434V354.206h-85.616zm70.507 15.108v95.688h-55.398v-95.688h55.398zM64.463 334.061v-15.109h156.122v15.109H64.463zm141.014 15.109v115.833H79.572V349.17h125.905zm288.07 130.941v15.109H15.109v-15.109h478.438z"/><path d="M338.936 203.12c-23.605 0-42.808 19.203-42.808 42.808v73.025h85.615v-73.025c.001-23.605-19.202-42.808-42.807-42.808zm-7.554 100.724h-20.145v-25.181h20.145v25.181zm0-40.29h-20.145v-17.627c0-12.654 8.533-23.346 20.145-26.643v44.27zm35.253 40.29H346.49v-25.181h20.145v25.181zm0-40.29H346.49v-44.27c11.611 3.298 20.145 13.99 20.145 26.643v17.627zm122.637-152.476c-4.843-12.309-16.88-20.769-30.474-20.769a32.631 32.631 0 0 0-23.938 10.408 27.162 27.162 0 0 0-4.265-.335c-15.274 0-27.699 12.425-27.699 27.699 0 15.274 12.425 27.699 27.699 27.699h53.384c12.497 0 22.663-10.166 22.663-22.663-.001-10.675-7.418-19.648-17.37-22.039zm-5.293 29.592h-53.384c-6.943 0-12.591-5.648-12.591-12.591s5.648-12.589 12.591-12.589c1.499 0 2.998.28 4.454.833l5.672 2.151 3.326-5.073c3.278-4.999 8.792-7.983 14.751-7.983 8.359 0 15.625 5.935 17.276 14.11l1.264 6.261 6.384-.206c.126-.004.252-.011.396-.02 4.101.075 7.415 3.434 7.415 7.553 0 4.166-3.388 7.554-7.554 7.554zM398.62 37.55c-4.843-12.31-16.88-20.769-30.474-20.769a32.631 32.631 0 0 0-23.938 10.408 27.162 27.162 0 0 0-4.265-.335c-15.274 0-27.699 12.425-27.699 27.699 0 15.274 12.425 27.699 27.699 27.699h53.384c12.497 0 22.663-10.166 22.663-22.663 0-10.675-7.417-19.649-17.37-22.039zm-5.293 29.593h-53.384c-6.943 0-12.591-5.648-12.591-12.59 0-6.943 5.648-12.591 12.591-12.591 1.499 0 2.998.28 4.454.833l5.672 2.151 3.326-5.073c3.278-4.999 8.792-7.983 14.751-7.983 8.359 0 15.625 5.935 17.276 14.11l1.264 6.261 6.384-.206c.126-.004.252-.011.396-.02 4.101.076 7.415 3.436 7.415 7.554 0 4.165-3.388 7.554-7.554 7.554zM157.129 91.316c-.595 0-1.192.014-1.787.041-9.25-16.716-26.837-27.237-46.258-27.237-14.966 0-28.865 6.142-38.859 17.015a39.203 39.203 0 0 0-7.373-.698c-18.026 0-33.628 12.518-38.032 29.491C10.724 112.481 0 124.844 0 139.664c0 16.662 13.555 30.217 30.217 30.217h126.912c21.661 0 39.282-17.622 39.282-39.282s-17.621-39.283-39.282-39.283zm.001 63.457H30.217c-8.331 0-15.109-6.778-15.109-15.109s6.778-15.11 15.109-15.11c.232 0 .461.008.692.019l7.255.323.608-7.238c1.043-12.399 11.62-22.113 24.079-22.113 2.619 0 5.207.423 7.694 1.258l5.144 1.727 3.279-4.324c7.219-9.519 18.196-14.979 30.115-14.979a37.705 37.705 0 0 1 34.849 23.179l2.388 5.693 6.055-1.206a24.376 24.376 0 0 1 4.755-.469c13.329 0 24.174 10.845 24.174 24.174 0 13.331-10.845 24.175-24.174 24.175zM227.132 1.672c-23.605 0-42.808 19.203-42.808 42.808s19.203 42.808 42.808 42.808S269.94 68.084 269.94 44.48c0-23.605-19.203-42.808-42.808-42.808zm0 70.507c-15.274 0-27.699-12.426-27.699-27.699 0-15.273 12.425-27.699 27.699-27.699s27.699 12.425 27.699 27.699c.001 15.274-12.425 27.699-27.699 27.699zm32.353 189.989l12.879-12.879 10.682 10.683-12.879 12.88zm-10.681 32.054l-10.683-10.683 10.683-10.683 10.683 10.683zm163.157 133.009h15.109v15.109h-15.109zm0-45.326h15.109v30.217h-15.109zm0-69.5h15.109v15.109h-15.109zm-5.087-61.746l-10.682 10.682 15.769 15.77v20.186h15.109v-26.444zm-80.528 158.945h15.109v15.109h-15.109zm-60.435-42.808h15.109v15.109h-15.109zm0-55.398h15.109v40.29h-15.109zm-30.217 117.847h15.109v15.109h-15.109zm0-55.398h15.109v40.29h-15.109zM92.162 429.749h15.109v15.109H92.162zm85.616 0h15.109v15.109h-15.109zm-55.398 0h40.29v15.109h-40.29zm-30.218-30.217h15.109v15.109H92.162zm85.616 0h15.109v15.109h-15.109zm-55.398 0h40.29v15.109h-40.29zm-30.218-30.218h15.109v15.109H92.162zm85.616 0h15.109v15.109h-15.109zm-55.398 0h40.29v15.109h-40.29z"/><path d="M115.329 124.555h47.34v15.109h-47.34zm-60.434 0h15.109v15.109H54.895zm30.217 0h15.109v15.109H85.112z"/></svg>