<svg xmlns="http://www.w3.org/2000/svg" viewBox="0 0 512 512"><path d="M474.015 446.961h-66.826v-22.553c10.209-.77 27.745-3.945 39.948-16.148 17.787-17.788 16.397-46.915 16.328-48.146l-.369-6.706-6.706-.37c-1.23-.07-30.36-1.458-48.147 16.329-3.71 3.711-6.577 7.918-8.805 12.259-2.228-4.341-5.094-8.548-8.805-12.259-17.787-17.786-46.917-16.397-48.147-16.329l-6.706.37-.369 6.706c-.068 1.231-1.459 30.358 16.328 48.146 12.407 12.407 30.322 15.481 40.449 16.184v22.517H267.179v-22.553c10.21-.77 27.745-3.945 39.948-16.148 17.787-17.788 16.397-46.915 16.328-48.146l-.369-6.706-6.706-.37c-1.229-.07-30.36-1.458-48.147 16.329-3.71 3.711-6.577 7.918-8.805 12.259-2.227-4.341-5.094-8.548-8.805-12.259-17.787-17.786-46.917-16.397-48.147-16.329l-6.706.37-.369 6.706c-.068 1.231-1.459 30.358 16.328 48.146 12.407 12.407 30.322 15.481 40.449 16.184v22.517h-125.01v-22.553c10.21-.77 27.745-3.945 39.948-16.148 17.787-17.788 16.397-46.915 16.328-48.146l-.369-6.706-6.706-.37c-1.231-.07-30.36-1.458-48.147 16.329-3.71 3.711-6.577 7.918-8.805 12.259-2.227-4.341-5.094-8.548-8.805-12.259-17.787-17.786-46.917-16.397-48.147-16.329l-6.706.37-.369 6.706c-.068 1.231-1.459 30.358 16.328 48.146 12.407 12.407 30.322 15.481 40.449 16.184v22.517H37.985c-20.679 0-37.503 16.823-37.503 37.503V512h511.035v-27.537c0-20.679-16.823-37.502-37.502-37.502zm-111.668-49.309c-8.442-8.442-10.968-21.31-11.697-29.356 8.064.747 20.985 3.287 29.375 11.677 8.441 8.441 10.967 21.305 11.697 29.356-8.064-.747-20.985-3.287-29.375-11.677zm-140.009 0c-8.442-8.442-10.968-21.31-11.697-29.356 8.064.747 20.985 3.287 29.375 11.677 8.441 8.441 10.967 21.305 11.697 29.356-8.065-.747-20.986-3.287-29.375-11.677zm-140.01 0c-8.442-8.442-10.968-21.31-11.697-29.356 8.064.747 20.985 3.287 29.375 11.677 8.441 8.441 10.967 21.305 11.697 29.356-8.064-.747-20.985-3.287-29.375-11.677zm336.523-17.678c8.442-8.442 21.31-10.967 29.356-11.697-.747 8.065-3.287 20.985-11.678 29.376-8.44 8.441-21.305 10.966-29.356 11.696.747-8.065 3.288-20.985 11.678-29.375zm-140.009 0c8.442-8.442 21.31-10.967 29.356-11.697-.747 8.065-3.287 20.985-11.678 29.376-8.44 8.441-21.305 10.966-29.356 11.696.747-8.065 3.287-20.985 11.678-29.375zm-140.01 0c8.442-8.442 21.31-10.967 29.356-11.697-.747 8.065-3.287 20.985-11.678 29.376-8.44 8.441-21.305 10.966-29.356 11.696.747-8.065 3.287-20.985 11.678-29.375zm357.685 117.025H15.484v-12.536c0-12.408 10.095-22.502 22.502-22.502h436.03c12.407 0 22.502 10.094 22.502 22.502v12.536zm-24.123-377.84c10.481-12.888 16.183-28.846 16.183-45.685 0-19.385-7.549-37.611-21.256-51.318-29.544-29.543-77.61-29.541-107.153 0-19.977 19.977-27.137 49.774-18.612 76.599l-48.734 48.735 46.25 46.25-55.134 4.807 3.345 41.622 104.191 5.972 15.2 15.2 103.951-103.952-38.231-38.23zM370.776 32.763c23.694-23.693 62.245-23.692 85.938 0 10.875 10.875 16.863 25.333 16.863 40.711-.001 12.824-4.178 25-11.869 35l-64.935-64.935-42.837 42.837c-3.392-19.309 2.739-39.512 16.84-53.613zm-56.741 114.728l82.738-82.738 12.022 12.022-82.738 82.738-12.022-12.022zm92.637 92.637l-8.636-8.635-96.851-5.551-1.104-13.744 72.352-6.308-35.77-35.769 82.738-82.738 70.008 70.009-82.737 82.736zm-175.914.288l2.625 14.769a78.043 78.043 0 0 1 13.616-1.203v-15.001c-5.421 0-10.886.482-16.241 1.435zm-19.842 5.951c-5.136 2.237-9.981 4.965-14.4 8.111l8.698 12.222c3.573-2.543 7.508-4.756 11.693-6.579l-5.991-13.754zm-44.673 56.676c-.966 5.103-1.539 10.51-1.7 16.067l14.995.435c.138-4.769.624-9.382 1.444-13.71l-14.739-2.792zm15.015-34.023a73.8 73.8 0 0 0-8.699 14.198l13.589 6.355a58.728 58.728 0 0 1 6.924-11.309l-11.814-9.244zm72.61-66.036h14.141v15.001h-14.141zm-54.337 2.298a111.277 111.277 0 0 0-15.478 4.305l5.063 14.121a96.447 96.447 0 0 1 13.384-3.722l-2.969-14.704zM118.4 271.883a126.713 126.713 0 0 0-5.568 14.932l14.358 4.345a111.095 111.095 0 0 1 4.906-13.157l-13.696-6.12zm104.598-68.904c-1.119 0-2.232.015-3.338.045l.402 14.996c.973-.027 1.952-.04 2.936-.04h11.864v-15.001h-11.864zM108.554 306.545a121.154 121.154 0 0 0-1.063 15.942h15.001c-.001-4.619.313-9.317.932-13.962l-14.87-1.98zm57.057-88.322a110.587 110.587 0 0 0-13.226 9.139l9.401 11.69a95.847 95.847 0 0 1 11.428-7.896l-7.603-12.933zm-27.842 23.212a120.215 120.215 0 0 0-9.667 12.732l12.524 8.259a105.216 105.216 0 0 1 8.455-11.138l-11.312-9.853z"/><path d="M369.566 181.786l-10.607-10.608 10.607-10.606 10.607 10.607zm10.578 10.591l10.607-10.607 10.607 10.606-10.608 10.607zm61.533-61.504l-10.608 10.607 15.911 15.911-15.911 15.911 10.608 10.607 26.518-26.518zM59.987 474.992h20.001v15.001H59.987zm74.003 0h54.004v15.001H133.99zm109.007 0h21.001v15.001h-21.001zm53.004 0h102.007v15.001H296.001zm136.009 0h35.002v15.001H432.01z"/></svg>