<svg xmlns="http://www.w3.org/2000/svg" viewBox="0 0 512 512"><path d="M197.5 174v50h50v-50h-50zm35 35h-20v-20h20v20zm33-35v50h50v-50h-50zm35 35h-20v-20h20v20zm-103 33v50h50v-50h-50zm35 35h-20v-20h20v20zm33-35v50h50v-50h-50zm35 35h-20v-20h20v20zm-103 29v50h50v-50h-50zm35 35h-20v-20h20v20zm33-35v50h50v-50h-50zm35 35h-20v-20h20v20z"/><path d="M433 96.229l-63.5 29.514V79.094l-66-22V47.5C303.5 21.309 282.191 0 256 0s-47.5 21.309-47.5 47.5v9.594l-66 22v66.552a69.27 69.27 0 0 1-26-54.146V84h-75v7.5a69.287 69.287 0 0 1-36.579 61.141L.5 155.013V512h511V132.715L433 96.229zM142.5 497h-127V364h127v133zm0-148h-127V216h127v133zm0-148h-127v-37.12A84.236 84.236 0 0 0 56.169 99h45.662a84.236 84.236 0 0 0 40.669 64.88V201zm141 296h-55v-80.5c0-15.164 12.337-27.5 27.5-27.5s27.5 12.336 27.5 27.5V497zm71 0h-56v-80.5c0-23.435-19.065-42.5-42.5-42.5s-42.5 19.065-42.5 42.5V497h-56V145h197v352zm0-367h-197V89.906l66-22V47.5c0-17.92 14.579-32.5 32.5-32.5s32.5 14.58 32.5 32.5v20.406l66 22V130zm142 367h-127V343h127v154zm0-169h-127V183h127v145zm0-160h-127v-25.715l63.5-29.514 63.5 29.514V168z"/><path d="M390.5 203.5h15v92h-15zm35 0h15v92h-15zm35 0h15v92h-15zm-424 42h15v70h-15zm35 0h15v70h-15zm35 0h15v70h-15zm-70 151h15v70h-15zm35 0h15v70h-15zm35 0h15v70h-15zm284-26h15v92h-15zm35 0h15v92h-15zm35 0h15v92h-15zm-211-332h15v15h-15zm176 95h15v15h-15zM233.5 97h15v15h-15zm-30 0h15v15h-15zm60 0h15v15h-15zm30 0h15v15h-15zm20 319h15v50h-15zm-129 0h15v50h-15zM59 155h14v15H59zm29-17h14v15H88zm-22-21h14v15H66zm22 48h14v15H88zm28 7h14v15h-14zm-88 0h14v15H28z"/></svg>