<svg xmlns="http://www.w3.org/2000/svg" viewBox="0 0 512 512"><path d="M362 195.483v105h50v-105h-50zm35 90h-20v-75h20v75zm-178-166c-13.785 0-25 11.215-25 25v58h50v-58c0-13.785-11.215-25-25-25zm10 68h-20v-43c0-5.514 4.486-10 10-10s10 4.486 10 10v43zm56-68c-13.785 0-25 11.215-25 25v58h50v-58c0-13.785-11.215-25-25-25zm10 68h-20v-43c0-5.514 4.486-10 10-10s10 4.486 10 10v43zm-76 66c-13.785 0-25 11.215-25 25v58h50v-58c0-13.785-11.215-25-25-25zm10 68h-20v-43c0-5.514 4.486-10 10-10s10 4.486 10 10v43zm56-68c-13.785 0-25 11.215-25 25v58h50v-58c0-13.785-11.215-25-25-25zm10 68h-20v-43c0-5.514 4.486-10 10-10s10 4.486 10 10v43zm-76 76c-13.785 0-25 11.215-25 25v58h50v-58c0-13.785-11.215-25-25-25zm10 68h-20v-43c0-5.514 4.486-10 10-10s10 4.486 10 10v43zm56-68c-13.785 0-25 11.215-25 25v58h50v-58c0-13.785-11.215-25-25-25zm10 68h-20v-43c0-5.514 4.486-10 10-10s10 4.486 10 10v43zm135-270v105h50v-105h-50zm35 90h-20v-75h20v75zm-103 88v105h50v-105h-50zm35 90h-20v-75h20v75zm33-90v105h50v-105h-50zm35 90h-20v-75h20v75z"/><path d="M472.5 86.483v-35h-25v-24h-55v24h-25v35H343V48.445L251.5.517 160 48.445v70.038h-20.25v-19.5c0-28.949-23.551-52.5-52.5-52.5s-52.5 23.551-52.5 52.5v19.5H0v393h512v-425h-39.5zm-359 410h-55v-58.5c0-15.164 12.336-27.5 27.5-27.5s27.5 12.336 27.5 27.5v58.5zm46 0h-31v-58.5c0-23.435-19.065-42.5-42.5-42.5s-42.5 19.065-42.5 42.5v58.5H15v-121h144.5v121zm0-136H15v-227h34.75v-34.5c0-20.678 16.822-37.5 37.5-37.5s37.5 16.822 37.5 37.5v34.5h34.75v227zM328 496.484H175V374.817h153v121.667zm0-136.667H175V238.15h153v121.667zm0-136.667H175V101.483h153V223.15zm0-136.667H175V57.521l76.5-40.071L328 57.521v28.962zm169 410H343v-154h154v154zm0-169H343v-154h154v154zm0-169H343v-57h39.5v-35h25v-24h25v24h25v35H497v57z"/><path d="M31.25 156.483v50h50v-50h-50zm35 35h-20v-20h20v20zm29.75-35v50h50v-50H96zm35 35h-20v-20h20v20zm-99.75 31v50h50v-50h-50zm35 35h-20v-20h20v20zm29.75-35v50h50v-50H96zm35 35h-20v-20h20v20zm-99.75 31v50h50v-50h-50zm35 35h-20v-20h20v20zm29.75-35v50h50v-50H96zm35 35h-20v-20h20v20zm-51.25-234.5h15v31h-15zM214 56.483h15v15h-15zm60 0h15v15h-15zm-30 0h15v15h-15zm138.5 66h15v15h-15zm60 0h15v15h-15zm-30 0h15v15h-15z"/></svg>