<svg xmlns="http://www.w3.org/2000/svg" viewBox="0 0 512 512"><path d="M234.5 93h33v15h-33zm-143 41.9l-43.826 22.956 6.96 13.288L91.5 151.833l36.866 19.311 6.96-13.288zm367.5 9.6c0 4.136-3.364 7.5-7.5 7.5-3.319 0-6.136-2.168-7.122-5.161.08-.769.122-1.549.122-2.339H429c0 .79.042 1.57.122 2.339-.986 2.993-3.803 5.161-7.122 5.161-4.136 0-7.5-3.364-7.5-7.5H399c0 4.136-3.364 7.5-7.5 7.5s-7.5-3.364-7.5-7.5h-15c0 12.407 10.093 22.5 22.5 22.5 5.88 0 11.237-2.269 15.25-5.975 4.013 3.706 9.37 5.975 15.25 5.975 5.64 0 10.797-2.09 14.75-5.531 3.953 3.44 9.11 5.531 14.75 5.531 12.407 0 22.5-10.093 22.5-22.5h-15zm-11.5 35c0 4.136-3.364 7.5-7.5 7.5s-7.5-3.364-7.5-7.5H417c0 4.136-3.364 7.5-7.5 7.5s-7.5-3.364-7.5-7.5h-15c0 12.407 10.093 22.5 22.5 22.5 5.88 0 11.237-2.269 15.25-5.975 4.013 3.706 9.37 5.975 15.25 5.975 12.407 0 22.5-10.093 22.5-22.5h-15zM263 350h15v15h-15zm30 0h15v15h-15zm-90 0h15v15h-15zm30 0h15v15h-15zm-33-177v50h50v-50h-50zm35 35h-20v-20h20v20zm28-35v50h50v-50h-50zm35 35h-20v-20h20v20zm64 43v105h50V251h-50zm35 90h-20v-75h20v75zM59 220c-13.785 0-25 11.215-25 25v58h50v-58c0-13.785-11.215-25-25-25zm10 68H49v-43c0-5.514 4.486-10 10-10s10 4.486 10 10v43zm56-68c-13.785 0-25 11.215-25 25v58h50v-58c0-13.785-11.215-25-25-25zm10 68h-20v-43c0-5.514 4.486-10 10-10s10 4.486 10 10v43zm-76 88c-13.785 0-25 11.215-25 25v58h50v-58c0-13.785-11.215-25-25-25zm10 68H49v-43c0-5.514 4.486-10 10-10s10 4.486 10 10v43zm56-68c-13.785 0-25 11.215-25 25v58h50v-58c0-13.785-11.215-25-25-25zm10 68h-20v-43c0-5.514 4.486-10 10-10s10 4.486 10 10v43zm295-193v105h50V251h-50zm35 90h-20v-75h20v75zm-103 33v105h50V374h-50zm35 90h-20v-75h20v75zm33-90v105h50V374h-50zm35 90h-20v-75h20v75zM200 235v50h50v-50h-50zm35 35h-20v-20h20v20zm28-35v50h50v-50h-50zm35 35h-20v-20h20v20z"/><path d="M340.603 115l-.148-.13A139.867 139.867 0 0 1 293 9.897V0h-75v9.897a139.867 139.867 0 0 1-47.455 104.973L168 117.11v23.995l-76.5-40.072L0 148.962V512h512V115H340.603zM168 497H15V353h153v144zm0-159H15V202h153v136zm0-151H15v-28.962l76.5-40.071 76.5 40.071V187zm114 310h-53v-73.5c0-14.612 11.888-26.5 26.5-26.5s26.5 11.888 26.5 26.5V497zm46 0h-31v-73.5c0-22.883-18.617-41.5-41.5-41.5S214 400.617 214 423.5V497h-31V335h145v162zm0-177H183V158h145v162zm0-177H183v-14h36.5v-15h-26.738a154.92 154.92 0 0 0 34.114-61H254.5V38h-24.073a154.75 154.75 0 0 0 2.489-23h45.168a154.762 154.762 0 0 0 10.455 51H267.5v15h27.801a154.847 154.847 0 0 0 22.937 33H291.5v15H328v14zm169 354H343V229h154v268zm0-283H343v-84h154v84z"/></svg>