<svg xmlns="http://www.w3.org/2000/svg" viewBox="0 0 512 512"><path d="M50.693 344.713v106.455h70.97V344.713h-70.97zm55.762 91.247H65.901v-15.208h40.554v15.208zm0-30.415H65.901v-45.624h40.554v45.624zm283.882-60.832v106.455h70.97V344.713h-70.97zm55.762 91.247h-40.554v-15.208h40.554v15.208zm0-30.415h-40.554v-45.624h40.554v45.624z"/><path d="M512 278.812V147.01H286.956L256 116.054l-30.956 30.956H119.636v-25.346h10.139V76.04H43.596v45.624h10.139v25.346H0v131.802h20.277v187.564H0V512h512v-45.624h-20.277V278.812H512zM256 137.561l152.695 152.695-10.754 10.754L256 159.069l-141.941 141.94-10.754-10.754L256 137.561zm162.758 141.251h57.757v187.564H375.129V299.703l22.812 22.812 32.261-32.261-11.444-11.442zM256 333.56c-23.76 0-43.089 19.329-43.089 43.089v89.727h-60.832v-181.88L256 180.575l103.921 103.921v181.881h-60.832V376.65c0-23.76-19.329-43.09-43.089-43.09zm27.881 43.09v89.727h-55.762V376.65c0-15.374 12.507-27.881 27.881-27.881s27.881 12.506 27.881 27.881zm-169.822-54.134l22.812-22.812v166.672H35.485V278.812h57.757l-11.443 11.443 32.26 32.261zM58.804 91.247h55.762v15.208H58.804V91.247zm45.624 30.416v25.346H68.943v-25.346h35.485zm-89.22 141.941V162.218h194.628L108.45 263.604H15.208zm481.584 217.98v15.208H15.208v-15.208h481.584zm-93.242-217.98L302.164 162.218h194.628v101.386H403.55zM250.59 27.374c-7.982 0-15.19 3.371-20.277 8.764-5.088-5.393-12.295-8.764-20.277-8.764A27.887 27.887 0 0 0 184.479 44.1l13.936 6.089a12.683 12.683 0 0 1 11.622-7.607c6.989 0 12.673 5.685 12.673 12.673v7.097h15.208v-7.097c0-6.989 5.685-12.673 12.673-12.673 5.041 0 9.603 2.986 11.622 7.607l13.935-6.089a27.89 27.89 0 0 0-25.558-16.726zm127.747 50.693c-7.982 0-15.19 3.371-20.277 8.764-5.088-5.393-12.295-8.764-20.277-8.764a27.887 27.887 0 0 0-25.557 16.726l13.936 6.089a12.683 12.683 0 0 1 11.622-7.607c6.989 0 12.673 5.685 12.673 12.673v7.097h15.208v-7.097c0-6.989 5.685-12.673 12.673-12.673 5.041 0 9.603 2.986 11.622 7.607l13.935-6.089a27.892 27.892 0 0 0-25.558-16.726zM474.321 0c-7.982 0-15.19 3.371-20.277 8.764C448.956 3.371 441.748 0 433.766 0a27.887 27.887 0 0 0-25.557 16.726l13.936 6.089a12.683 12.683 0 0 1 11.622-7.607c6.989 0 12.673 5.685 12.673 12.673v7.097h15.208v-7.097c0-6.989 5.685-12.673 12.673-12.673 5.041 0 9.603 2.986 11.622 7.607l13.936-6.089A27.891 27.891 0 0 0 474.321 0zM58.804 16.729h15.208v15.208H58.804zm0 30.416h15.208v15.208H58.804zM99.358 1.521h15.208v15.208H99.358zm0 30.416h15.208v15.208H99.358z"/><path d="M256 233.188c-20.965 0-38.02 17.055-38.02 38.02 0 20.965 17.055 38.02 38.02 38.02s38.02-17.055 38.02-38.02c0-20.965-17.055-38.02-38.02-38.02zm-7.604 59.524c-8.85-3.139-15.208-11.591-15.208-21.504 0-9.914 6.358-18.365 15.208-21.504v43.008zm15.208 0v-43.008c8.85 3.139 15.208 11.59 15.208 21.504 0 9.913-6.358 18.365-15.208 21.504zm-96.317 134.631h15.208v15.208h-15.208zm0-45.624h15.208v30.416h-15.208zm17.236-45.624h15.208v15.208h-15.208zm0-45.624h15.208v30.416h-15.208zm144.982 83.137h15.208v15.208h-15.208zm0-65.901h15.208V358.4h-15.208zM50.693 291.485h15.208v40.554H50.693zm395.406 0h15.208v40.554h-15.208zM30.416 177.426v38.02h15.208v-22.812h22.812v-15.208zm212.911 229.639h15.208v15.208h-15.208zM40.048 235.216h21.291v15.208H40.048zm33.457-18.25h34.471v15.208H73.505zm16.222-34.471h17.236v15.208H89.727zm31.429 16.222h25.347v15.208h-25.347zm28.389-26.361h20.277v15.208h-20.277zm294.019 5.07v15.208h22.812v22.812h15.208v-38.02zm7.097 57.79h21.291v15.208h-21.291zm-46.637-18.25h34.471v15.208h-34.471zm1.014-34.471h17.236v15.208h-17.236zm-39.541 16.222h25.346v15.208h-25.346zm-23.319-26.361h20.277v15.208h-20.277z"/></svg>