<svg xmlns="http://www.w3.org/2000/svg" viewBox="0 0 512 512"><path d="M455.406 167.743l22.717 22.717 32.126-32.127L351.917 0 256 95.917 160.083 0 1.751 158.332l32.126 32.127 22.717-22.717v298.823H16.208V512h479.584v-45.434h-40.386V167.743zm-421.528 1.299l-10.709-10.709L160.083 21.418 256 117.335l95.917-95.917 136.916 136.915-10.708 10.709L351.918 42.835l-95.917 95.917-95.917-95.917L33.878 169.042zm360.949 267.234V325.215h-85.82v111.062h-20.193v30.29h-25.241V152.598l88.344-88.344 88.344 88.344v313.968H415.02v-30.29h-20.193zm5.048 15.145v15.145h-95.917v-15.145h95.917zm-75.724-15.145v-95.917h55.531v95.917h-55.531zm-121.158.001V325.216h-85.82v111.062H96.98v30.289H71.739V152.599l88.344-88.344 88.344 88.344v313.968h-25.241v-30.289h-20.193zm5.049 15.144v15.145h-95.917v-15.145h95.917zm-75.724-15.145v-95.917h55.531v95.917h-55.531zm348.329 45.434v15.145H31.353V481.71h449.294z"/><path d="M167.656 236.365v65.627h65.627v-65.627h-65.627zm50.482 50.483H182.8V251.51h35.338v35.338zM86.883 236.365v65.627h65.627v-65.627H86.883zm50.483 50.483h-35.338V251.51h35.338v35.338zm30.29-131.255v65.627h65.627v-65.627h-65.627zm50.482 50.483H182.8v-35.338h35.338v35.338zM86.883 155.593v65.627h65.627v-65.627H86.883zm50.483 50.483h-35.338v-35.338h35.338v35.338zm222.123 30.289v65.627h65.627v-65.627h-65.627zm50.483 50.483h-35.338V251.51h35.338v35.338zm-131.255-50.483v65.627h65.627v-65.627h-65.627zm50.483 50.483h-35.338V251.51H329.2v35.338zm30.289-131.255v65.627h65.627v-65.627h-65.627zm50.483 50.483h-35.338v-35.338h35.338v35.338zm-131.255-50.483v65.627h65.627v-65.627h-65.627zm50.483 50.483h-35.338v-35.338H329.2v35.338zM38.925 32.42H54.07v15.145H38.925zm30.287 0h15.145v15.145H69.212zm-60.576 0h15.145v15.145H8.636zm479.581 0h15.145v15.145h-15.145zm-30.29 0h15.145v15.145h-15.145zm-30.289 0h15.145v15.145h-15.145zM160.084 85.67l-45.741 45.74 10.709 10.708 35.033-35.03 13.614 13.613 10.709-10.709zm24.319 45.73l10.709-10.709L205.82 131.4l-10.71 10.709zm225.569 240.763h15.145v15.145h-15.145zm0-55.53h15.145v40.386h-15.145zM351.918 85.67l-45.741 45.74 10.709 10.708 35.033-35.03 13.614 13.613 10.708-10.709zm24.311 45.725l10.709-10.709 10.708 10.708-10.709 10.71zm-97.512 268.029h15.145v15.145h-15.145zm0-45.434h15.145v30.29h-15.145zM86.883 376.202h15.145v15.145H86.883zm0-45.434h15.145v30.289H86.883zm61.586 48.467h15.145v15.145h-15.145zm191.834 0h15.145v15.145h-15.145z"/></svg>