<svg xmlns="http://www.w3.org/2000/svg" viewBox="0 0 512 512"><path d="M442 3.5c-26.191 0-47.5 21.309-47.5 47.5s21.309 47.5 47.5 47.5 47.5-21.309 47.5-47.5S468.191 3.5 442 3.5zm0 80c-17.921 0-32.5-14.58-32.5-32.5s14.579-32.5 32.5-32.5 32.5 14.58 32.5 32.5-14.579 32.5-32.5 32.5zm-61 14h-55c-15.163 0-27.5 12.336-27.5 27.5 0 6.893-5.607 12.5-12.5 12.5h-16c-15.163 0-27.5 12.336-27.5 27.5s12.337 27.5 27.5 27.5h61c15.163 0 27.5-12.336 27.5-27.5 0-6.893 5.607-12.5 12.5-12.5h10c15.163 0 27.5-12.336 27.5-27.5S396.163 97.5 381 97.5zm0 40h-10c-15.163 0-27.5 12.336-27.5 27.5 0 6.893-5.607 12.5-12.5 12.5h-61c-6.893 0-12.5-5.607-12.5-12.5s5.607-12.5 12.5-12.5h16c15.163 0 27.5-12.336 27.5-27.5 0-6.893 5.607-12.5 12.5-12.5h55c6.893 0 12.5 5.607 12.5 12.5s-5.607 12.5-12.5 12.5zm-95-117H179c-15.163 0-27.5 12.336-27.5 27.5 0 6.893-5.607 12.5-12.5 12.5h-36c-15.163 0-27.5 12.336-27.5 27.5 0 6.893-5.607 12.5-12.5 12.5H31c-15.163 0-27.5 12.336-27.5 27.5s12.337 27.5 27.5 27.5h99c15.163 0 27.5-12.336 27.5-27.5 0-6.893 5.607-12.5 12.5-12.5h25c15.163 0 27.5-12.336 27.5-27.5 0-6.893 5.607-12.5 12.5-12.5h51c15.163 0 27.5-12.336 27.5-27.5S301.163 20.5 286 20.5zm0 40h-51c-15.163 0-27.5 12.336-27.5 27.5 0 6.893-5.607 12.5-12.5 12.5h-25c-15.163 0-27.5 12.336-27.5 27.5 0 6.893-5.607 12.5-12.5 12.5H31c-6.893 0-12.5-5.607-12.5-12.5s5.607-12.5 12.5-12.5h32c15.163 0 27.5-12.336 27.5-27.5 0-6.893 5.607-12.5 12.5-12.5h36c15.163 0 27.5-12.336 27.5-27.5 0-6.893 5.607-12.5 12.5-12.5h107c6.893 0 12.5 5.607 12.5 12.5s-5.607 12.5-12.5 12.5z"/><path d="M495.5 493.5v-50c0-16.542-13.458-30-30-30-4.265 0-8.323.901-12 2.512v-37.978c30.937-3.719 55-30.111 55-62.034v-80c0-34.462-28.037-62.5-62.5-62.5-27.559 0-50.993 17.938-59.282 42.745C360.472 224.204 342.5 248.167 342.5 276v40c0 31.923 24.063 58.315 55 62.034v45.098c-5.483-5.919-13.315-9.632-22-9.632-8.954 0-16.999 3.948-22.5 10.189-5.501-6.241-13.546-10.189-22.5-10.189s-16.999 3.948-22.5 10.189c-5.501-6.241-13.546-10.189-22.5-10.189a29.81 29.81 0 0 0-15 4.036v-48.43l22.5 22.5 31.819-31.82L163 197.967l-64.5 64.5V236.5h10v-45h-75v45h10v80.967l-42.319 42.32L33 391.606l22.5-22.5v48.43a29.81 29.81 0 0 0-15-4.036c-16.542 0-30 13.458-30 30v50H0v15h512v-15h-16.5zm-440 0h-30v-50c0-8.271 6.729-15 15-15s15 6.729 15 15v50zm-7-287h45v15h-45v-15zm35 30v40.967l-25 25V236.5h25zM33 370.394l-10.606-10.607L163 219.18l140.606 140.606L293 370.394l-130-130-130 130zM195.5 493.5h-65v-105h65v105zm60 0h-45v-120h-95v120h-45V354.106l92.5-92.5 92.5 92.5V493.5zm45 0h-30v-50c0-8.271 6.729-15 15-15s15 6.729 15 15v50zm45 0h-30v-50c0-8.271 6.729-15 15-15s15 6.729 15 15v50zm45 0h-30v-50c0-8.271 6.729-15 15-15s15 6.729 15 15v50zm14.5-130c-26.191 0-47.5-21.309-47.5-47.5v-40c0-18.366 10.296-34.513 26.061-42.409A62.111 62.111 0 0 0 383.5 236v80c0 18.99 8.525 36.018 21.936 47.49-.146.001-.29.01-.436.01zm30.5 130h-30v-50c0-8.271 6.729-15 15-15s15 6.729 15 15v50zm3-73.984a29.846 29.846 0 0 0-18-6.016 29.88 29.88 0 0 0-8 1.092v-36.557a61.995 61.995 0 0 0 13.02-2.999 62.003 62.003 0 0 0 12.98 2.998v41.482zm.001-56.614c-22.64-3.607-40-23.263-40-46.902v-80h-.001c0-26.191 21.309-47.5 47.5-47.5s47.5 21.309 47.5 47.5v80c0 23.639-17.36 43.295-40 46.902v-22.795l23.804-23.804-10.607-10.606-13.197 13.196V273h-15v22.893l-9.196-9.196-10.607 10.606 19.804 19.804v45.795zM480.5 493.5h-30v-50c0-8.271 6.729-15 15-15s15 6.729 15 15v50z"/><path d="M246 227.5h15v15h-15zm60 0h15v15h-15zm-30 0h15v15h-15zM225.5 436h15v15h-15zm0-45h15v30h-15zm-140 65h15v15h-15zm0-45h15v30h-15zm21.833-72.517l12.788-12.787 10.605 10.605-12.788 12.787zm-10.59 31.832L86.137 359.71l10.605-10.606 10.607 10.607zM163 282.82l-21.303 21.304 10.607 10.606L163 304.033l17.271 17.27 10.607-10.606zm49.09 70.284l10.607-10.606 10.606 10.605-10.607 10.607zm-21.212-21.212l10.607-10.606 10.605 10.606-10.606 10.606zM446.001 203.5a32.526 32.526 0 0 0-20.808 7.548l9.615 11.514A17.486 17.486 0 0 1 446 218.5c9.649 0 17.5 7.851 17.5 17.5v2h15.001v-2c0-17.92-14.579-32.5-32.5-32.5zM463.5 253h15v15h-15zM175 60.5h24v15h-24zm-72 40h28v15h-28zm42.5 333h15v15h-15z"/></svg>