<svg xmlns="http://www.w3.org/2000/svg" viewBox="0 0 512 512"><path d="M70.621 354.365v95.842h186.64v-95.842H70.621zm30.266 80.709H85.754v-15.642a57.53 57.53 0 0 0 15.133-4.12v19.762zm-15.133-30.948v-34.628h34.628c-3.146 17.586-17.042 31.482-34.628 34.628zm126.108 30.948H116.02v-29.223c10.537-9.089 17.774-21.888 19.668-36.354h56.507c1.894 14.465 9.131 27.265 19.668 36.354v29.223zm30.266 0h-15.133v-19.763a57.53 57.53 0 0 0 15.133 4.12v15.643zm0-30.948c-17.587-3.146-31.483-17.042-34.628-34.628h34.628v34.628z"/><path d="M390.936 177.813l-18.916 25.222H108.958v-25.222h10.089v-45.399H43.381v45.399H53.47v25.222H0v136.197h20.177v171.507H489.3V339.232H512L390.936 177.813zM58.514 147.547h45.399v15.133H58.514v-15.133zm35.311 30.266v25.222H68.603v-25.222h25.222zM15.133 324.099V218.167H360.67l-79.448 105.931H15.133zm277.438 171.507H35.31V339.232h257.261v156.374zm126.109 0h-55.488v-85.754h55.488v85.754zm55.487 0h-40.355V394.719h-85.754v100.887h-40.355V339.232h166.463v156.374zM300.138 324.099l90.798-121.064 90.798 121.064H300.138zm156.633-215.273c-4.853-12.329-16.91-20.803-30.524-20.803-9.2 0-17.828 3.819-23.977 10.425a27.252 27.252 0 0 0-4.272-.336c-15.297 0-27.744 12.445-27.744 27.744S382.7 153.6 397.998 153.6h53.47c12.516 0 22.699-10.182 22.699-22.699 0-10.693-7.429-19.68-17.396-22.075zm-5.302 29.642h-53.47c-6.954 0-12.611-5.657-12.611-12.611 0-6.954 5.656-12.612 12.61-12.612 1.501 0 3.002.281 4.46.834l5.681 2.156 3.332-5.082c3.283-5.007 8.806-7.996 14.776-7.996 8.373 0 15.651 5.944 17.304 14.134l1.267 6.271 6.394-.207c.127-.004.252-.011.396-.02 4.107.075 7.426 3.439 7.426 7.565.002 4.174-3.392 7.568-7.565 7.568zM210.601 26.987c-.483 0-.966.009-1.45.028-8.856-15.814-25.561-25.754-44-25.754-14.198 0-27.389 5.795-36.911 16.06a37.44 37.44 0 0 0-6.823-.624c-17.153 0-32.011 11.848-36.316 27.954-13.4 2.555-23.56 14.359-23.56 28.492 0 15.994 13.011 29.005 29.005 29.005h120.055c20.722 0 37.58-16.858 37.58-37.58 0-20.723-16.858-37.581-37.58-37.581zm0 60.028H90.546c-7.649 0-13.872-6.223-13.872-13.872s6.223-13.872 13.872-13.872c.214 0 .427.008.639.017l7.265.322.609-7.247c.969-11.514 10.79-20.534 22.359-20.534 2.431 0 4.834.393 7.145 1.168l5.153 1.73L137 30.396c6.748-8.899 17.01-14.003 28.152-14.003a35.249 35.249 0 0 1 32.577 21.668l2.392 5.703 6.064-1.209a22.63 22.63 0 0 1 4.416-.437c12.378.001 22.447 10.07 22.447 22.448 0 12.379-10.069 22.449-22.447 22.449zm116.776-71.63c-20.861 0-37.832 16.971-37.832 37.833 0 20.861 16.971 37.833 37.832 37.833S365.21 74.08 365.21 53.218s-16.971-37.833-37.833-37.833zm0 60.532c-12.516 0-22.699-10.182-22.699-22.7 0-12.517 10.183-22.699 22.699-22.699 12.516 0 22.7 10.182 22.7 22.699 0 12.518-10.184 22.7-22.7 22.7z"/><path d="M288.369 135.439c-7.942 0-15.115 3.354-20.177 8.721-5.063-5.366-12.236-8.721-20.177-8.721a27.754 27.754 0 0 0-25.431 16.644l13.867 6.059a12.623 12.623 0 0 1 11.565-7.57c6.954 0 12.611 5.657 12.611 12.611v7.062h15.133v-7.062c0-6.954 5.657-12.611 12.611-12.611 5.016 0 9.556 2.971 11.566 7.57l13.866-6.06a27.76 27.76 0 0 0-25.434-16.643zm89.956 309.724h15.133v15.133h-15.133zM59.019 465.34h15.133v15.133H59.019zm30.266 0h40.355v15.133H89.285zm334.692-167.807l12.106-9.08 9.08 12.107-12.107 9.08zm-41.364-55.153l12.106-9.079 32.284 43.045-12.107 9.08zM30.266 233.3v37.833h15.133v-22.699h22.7V233.3zm173.021 0h15.133v15.133h-15.133zm30.266 0h40.355v15.133h-40.355zm42.372 72.64l-12.106-9.08 9.08-12.107 12.106 9.08zm6.053-33.294l27.24-36.32 12.106 9.08-27.24 36.32zM150.069 56.749h15.133v15.133h-15.133zm-30.266 0h15.133v15.133h-15.133zm60.532 0h30.266v15.133h-30.266zM47.921 293.833h15.133v15.133H47.921zm30.266 0h30.266v15.133H78.187zm80.71-9.08h40.355v15.133h-40.355zm72.638 14.124h15.133v15.133h-15.133zm191.685 55.488v15.133h20.681v20.681h15.133v-35.814zm-42.373 0h20.177v15.133h-20.177zm-30.266 0h15.133v15.133h-15.133z"/></svg>