<svg xmlns="http://www.w3.org/2000/svg" viewBox="0 0 512 512"><path d="M446.634 294.493v-90.029h-55.039v34.992l-41.529-41.529-47.033 47.033L256 197.926l-47.033 47.033-47.033-47.033L0 359.859l31.842 31.842 22.516-22.516v139.492h403.284V369.186l22.516 22.516L512 359.859l-65.366-65.366zm-40.028-75.019h25.018v60.009l-25.018-25.018v-34.991zm-374.764 151l-10.615-10.615 140.706-140.705 36.419 36.419-10.613 10.614-25.805-25.805L31.842 370.474zm116.582 123.193H69.369V354.175l92.565-92.565 15.191 15.191-83.058 83.058 31.842 31.842 22.516-22.516v124.482zm-22.515-123.194l-10.614-10.614L256 219.154l140.706 140.705-10.615 10.614-22.516-22.516L256 240.382 148.424 347.958l-22.515 22.515zm157.61 123.194H228.48v-57.54c0-15.175 12.345-27.519 27.519-27.519s27.519 12.345 27.519 27.519v57.54zm65.046 0H298.53v-57.54c0-23.451-19.078-42.53-42.53-42.53s-42.53 19.078-42.53 42.53v57.54h-50.035V354.175L256 261.61l92.565 92.565v139.492zm94.066 0h-79.056V369.186l22.516 22.516 31.842-31.842-83.058-83.058 15.191-15.191 92.565 92.565v139.491zm-92.565-253.285l-25.805 25.805-10.615-10.614 36.42-36.419 140.706 140.705-10.614 10.615-130.092-130.092zm61.543-69.442h15.011v15.011h-15.011zm0-60.042h15.011v15.011h-15.011zm0 30.021h15.011v15.011h-15.011zm30.021-30.021h15.011v15.011H441.63zm0 30.021h15.011v15.011H441.63zm0-60.042h15.011v15.01H441.63zm30.022-30.021h15.011v15.011h-15.011zm0 30.021h15.011v15.01h-15.011zm0 30.021h15.011v15.011h-15.011zM113.9 3.322c-26.209 0-47.533 21.324-47.533 47.533S87.69 98.388 113.9 98.388c26.209 0 47.533-21.324 47.533-47.533.001-26.209-21.324-47.533-47.533-47.533zm0 80.057c-17.933 0-32.523-14.59-32.523-32.523S95.966 18.333 113.9 18.333c17.933 0 32.523 14.59 32.523 32.523s-14.59 32.523-32.523 32.523zm254.179-4.003h-36.025c-6.898 0-12.509-5.611-12.509-12.509 0-15.175-12.345-27.519-27.519-27.519h-86.06c-15.175 0-27.519 12.345-27.519 27.519s12.345 27.519 27.519 27.519h31.022c6.898 0 12.509 5.611 12.509 12.509 0 15.175 12.345 27.519 27.519 27.519h91.064c15.175 0 27.519-12.345 27.519-27.519-.001-15.174-12.346-27.519-27.52-27.519zm0 40.028h-91.064c-6.898 0-12.509-5.611-12.509-12.509 0-15.175-12.345-27.519-27.519-27.519h-31.022c-6.898 0-12.509-5.611-12.509-12.509s5.611-12.509 12.509-12.509h86.06c6.898 0 12.509 5.611 12.509 12.509 0 15.175 12.345 27.519 27.519 27.519h36.025c6.898 0 12.509 5.611 12.509 12.509.001 6.898-5.61 12.509-12.508 12.509zm-221.156 3.002H76.874c-12.416 0-22.516 10.1-22.516 22.516 0 4.139-3.366 7.505-7.505 7.505H25.838c-12.416 0-22.516 10.1-22.516 22.516s10.1 22.516 22.516 22.516h70.049c12.416 0 22.516-10.1 22.516-22.516 0-4.139 3.366-7.505 7.505-7.505h21.015c12.416 0 22.516-10.1 22.516-22.516 0-12.416-10.1-22.516-22.516-22.516zm0 30.021h-21.015c-12.416 0-22.516 10.1-22.516 22.516 0 4.139-3.366 7.505-7.505 7.505H25.838c-4.139 0-7.505-3.366-7.505-7.505s3.366-7.505 7.505-7.505h21.015c12.416 0 22.516-10.1 22.516-22.516 0-4.139 3.366-7.505 7.505-7.505h70.049c4.139 0 7.505 3.366 7.505 7.505s-3.366 7.505-7.505 7.505z"/><path d="M84.379 456.141H99.39v15.011H84.379zm0-45.032H99.39v30.021H84.379zm328.231 26.018h15.011v15.011H412.61zm0-55.038h15.011v40.028H412.61zm-234.165 35.024h15.01v15.011h-15.01zm0-55.038h15.01v40.028h-15.01zm50.232-51.914l10.613 10.614 16.709-16.709 22.287 22.286 10.613-10.613-32.9-32.9zm81.448 48.033l10.613-10.613 10.614 10.613-10.614 10.614zm-10.612-10.61L288.9 336.971l10.613-10.614 10.614 10.614zm-46.015 118.564h15.011v15.011h-15.011zm0-35.025h15.011v20.014h-15.011z"/></svg>