<svg xmlns="http://www.w3.org/2000/svg" viewBox="0 0 512.001 512.001"><path d="M189.741 144.241L0 289.082l27.672 36.249 24.232-18.497V511.89h400.305V355.593l25.391 15.296 23.533-39.064-311.392-187.584zm35.458 352.449h-65.873v-83.608c0-18.161 14.776-32.936 32.936-32.936 18.161 0 32.936 14.776 32.936 32.936v83.608zm90.196-.001h-74.994v-83.608c0-26.543-21.595-48.138-48.138-48.138s-48.138 21.595-48.138 48.138v83.608H67.104V295.23l125.663-95.926 122.627 73.872v223.513zm121.611.001h-106.41V282.333l106.41 64.102V496.69zm35.416-146.666L191.759 180.949 30.531 304.024l-9.224-12.083L190.75 162.595l289.516 174.407-7.844 13.022z"/><path d="M82.306 406.494v45.604h45.604v-45.604H82.306zm30.403 30.403H97.507v-15.201h15.201v15.201zm142.893-30.403v45.604h45.604v-45.604h-45.604zm30.403 30.403h-15.201v-15.201h15.201v15.201zm60.806-81.074v96.276h76.007v-96.276h-76.007zm30.403 81.074h-15.201v-15.201h15.201v15.201zm0-30.403h-15.201v-35.47h15.201v35.47zm30.403 30.403h-15.201v-15.201h15.201v15.201zm0-30.403h-15.201v-35.47h15.201v35.47zM192.263 252.453c-23.75 0-43.071 19.321-43.071 43.071 0 23.75 19.322 43.071 43.071 43.071 23.75 0 43.071-19.321 43.071-43.071 0-23.75-19.321-43.071-43.071-43.071zm0 70.94c-15.368 0-27.869-12.502-27.869-27.869 0-15.368 12.503-27.869 27.869-27.869 15.368 0 27.869 12.502 27.869 27.869 0 15.367-12.502 27.869-27.869 27.869zm255.409-171.368a83.4 83.4 0 0 1-13.901-.49l-1.814 15.093a97.879 97.879 0 0 0 16.445.581l-.73-15.184zm27.076-5.921a83.033 83.033 0 0 1-13.285 4.097l3.243 14.852a98.197 98.197 0 0 0 15.725-4.85l-5.683-14.099zm-90.241-18.459l-10.722 10.776a99.143 99.143 0 0 0 12.583 10.59l8.791-12.402a83.91 83.91 0 0 1-10.652-8.964zm22.643 16.056l-6.635 13.677a99.93 99.93 0 0 0 15.329 5.931l4.297-14.582c-4.444-1.31-8.814-3-12.991-5.026zm91.248-12.098a84.427 84.427 0 0 1-11.226 8.24l7.95 12.957a99.548 99.548 0 0 0 13.253-9.728l-9.977-11.469zM443.594.11c-12.305 0-24.365 3.302-34.875 9.55l7.768 13.067c8.161-4.852 17.534-7.416 27.106-7.416 29.338 0 53.205 23.867 53.205 53.205s-23.867 53.205-53.205 53.205c-16.895 0-32.409-7.758-42.566-21.285l-12.156 9.128c13.055 17.387 33.001 27.36 54.723 27.36 37.72 0 68.407-30.687 68.407-68.407S481.314.11 443.594.11z"/><path d="M397.989 31.525h-92.222c-15.368 0-27.869 12.502-27.869 27.869 0 6.986-5.682 12.668-12.668 12.668h-41.551c-15.368 0-27.869 12.502-27.869 27.869s12.503 27.869 27.869 27.869h97.289c15.368 0 27.869-12.502 27.869-27.869 0-6.986 5.682-12.668 12.668-12.668h36.483c15.368 0 27.869-12.502 27.869-27.869.001-15.367-12.5-27.869-27.868-27.869zm0 40.537h-36.483c-15.368 0-27.869 12.502-27.869 27.869 0 6.986-5.682 12.668-12.668 12.668H223.68c-6.986 0-12.668-5.682-12.668-12.668s5.683-12.668 12.668-12.668h41.551c15.368 0 27.869-12.502 27.869-27.869 0-6.986 5.682-12.668 12.668-12.668h92.222c6.986 0 12.668 5.682 12.668 12.668-.001 6.986-5.683 12.668-12.669 12.668zM87.88 43.686c-7.979 0-15.183 3.37-20.269 8.76-5.085-5.39-12.29-8.76-20.269-8.76a27.878 27.878 0 0 0-25.547 16.719l13.93 6.087a12.679 12.679 0 0 1 11.617-7.604c6.986 0 12.668 5.682 12.668 12.668v7.094h15.201v-7.094c0-6.986 5.682-12.668 12.668-12.668 5.039 0 9.599 2.984 11.617 7.604l13.93-6.087A27.88 27.88 0 0 0 87.88 43.686zm53.038 60.806c-7.979 0-15.183 3.37-20.269 8.76-5.085-5.39-12.29-8.76-20.269-8.76a27.878 27.878 0 0 0-25.547 16.719l13.93 6.087a12.679 12.679 0 0 1 11.617-7.604c6.986 0 12.668 5.682 12.668 12.668v7.094h15.201v-7.094c0-6.986 5.682-12.668 12.668-12.668 5.039 0 9.599 2.985 11.617 7.604l13.93-6.087a27.877 27.877 0 0 0-25.546-16.719zm287.134 91.209c-7.979 0-15.183 3.37-20.269 8.76-5.085-5.39-12.29-8.76-20.269-8.76a27.878 27.878 0 0 0-25.547 16.719l13.93 6.087a12.679 12.679 0 0 1 11.617-7.604c6.986 0 12.668 5.682 12.668 12.668v7.094h15.201v-7.094c0-6.986 5.682-12.668 12.668-12.668 5.039 0 9.599 2.985 11.617 7.604l13.93-6.087a27.88 27.88 0 0 0-25.546-16.719zm-316.409 84.654L82.306 302.75v32.298h15.201V310.27l23.361-17.832zm-29.337 69.894h15.201v15.201H82.306zm260.789-24.901l7.844-13.022 30.727 18.51-7.844 13.021zm-79.451-47.86l-18.14-10.928 7.844-13.022 18.14 10.928zm13.021 7.847l7.845-13.022 13.022 7.844-7.845 13.022zm8.327 82.142h15.201v15.201h-15.201zm0-55.738h15.201v40.537h-15.201zM174.533 440.446h15.201v15.201h-15.201zM443.596 30.512h-.003c-3.429 0-6.835.459-10.124 1.364l4.032 14.657a22.945 22.945 0 0 1 6.092-.82 22.663 22.663 0 0 1 12.307 3.616l8.235-12.777a37.828 37.828 0 0 0-20.539-6.04zm33.341 19.78l-13.329 7.309a22.768 22.768 0 0 1 2.787 10.915h15.201a37.987 37.987 0 0 0-4.659-18.224z"/><path d="M306.775 72.064h15.201v15.201h-15.201z"/></svg>