<svg xmlns="http://www.w3.org/2000/svg" viewBox="0 0 512 512"><path d="M367 3.5c-19.721 0-37.603 12.409-44.496 30.877l14.053 5.245C341.272 26.989 353.507 18.5 367 18.5c17.921 0 32.5 14.58 32.5 32.5a32.53 32.53 0 0 1-13.847 26.609l8.613 12.281A47.545 47.545 0 0 0 414.5 51c0-26.191-21.309-47.5-47.5-47.5z"/><path d="M345 54.5h-41c-6.893 0-12.5-5.607-12.5-12.5 0-15.164-12.337-27.5-27.5-27.5h-81c-15.163 0-27.5 12.336-27.5 27.5s12.337 27.5 27.5 27.5h26c6.893 0 12.5 5.607 12.5 12.5 0 15.164 12.337 27.5 27.5 27.5h96c15.163 0 27.5-12.336 27.5-27.5S360.163 54.5 345 54.5zm0 40h-96c-6.893 0-12.5-5.607-12.5-12.5 0-15.164-12.337-27.5-27.5-27.5h-26c-6.893 0-12.5-5.607-12.5-12.5s5.607-12.5 12.5-12.5h81c6.893 0 12.5 5.607 12.5 12.5 0 15.164 12.337 27.5 27.5 27.5h41c6.893 0 12.5 5.607 12.5 12.5s-5.607 12.5-12.5 12.5zm-186-8H87c-12.406 0-22.5 10.093-22.5 22.5 0 4.136-3.364 7.5-7.5 7.5H26c-12.406 0-22.5 10.093-22.5 22.5s10.094 22.5 22.5 22.5h80c12.406 0 22.5-10.093 22.5-22.5 0-4.136 3.364-7.5 7.5-7.5h23c12.406 0 22.5-10.093 22.5-22.5S171.406 86.5 159 86.5zm0 30h-23c-12.406 0-22.5 10.093-22.5 22.5 0 4.136-3.364 7.5-7.5 7.5H26c-4.136 0-7.5-3.364-7.5-7.5s3.364-7.5 7.5-7.5h31c12.406 0 22.5-10.093 22.5-22.5 0-4.136 3.364-7.5 7.5-7.5h72c4.136 0 7.5 3.364 7.5 7.5s-3.364 7.5-7.5 7.5zm349.5 377v-30h-15v-280h-45v15H405c-18.369 0-33.684 13.279-36.878 30.739-14.628 3.165-25.622 16.2-25.622 31.761 0 17.92 14.579 32.5 32.5 32.5s32.5-14.58 32.5-32.5c0-15.006-10.225-27.663-24.072-31.385 2.76-9.305 11.383-16.115 21.572-16.115h43.5v250h-15v30h-33v-35H418v-15h-32.5v-15H403v-15h-17.5v-15H403v-15h-17.5V371h-15v12.5h-85V371h-15v12.5H253v15h17.5v15H253v15h17.5v15H238v15h17.5v35h-92V391.342c51.213-2.862 92-45.426 92-97.342 0-53.762-43.738-97.5-97.5-97.5-22.213 0-43.133 7.276-60.499 21.042l9.318 11.755C121.507 217.654 139.205 211.5 158 211.5c45.49 0 82.5 37.009 82.5 82.5 0 43.641-34.067 79.454-77 82.296v-9.189l32.804-32.804-10.607-10.606-22.197 22.196V302h-15v22.893l-17.196-17.196-10.607 10.606 27.804 27.804v29.833c-7.12-.813-14.071-2.523-20.748-5.157l-5.504 13.954a96.667 96.667 0 0 0 26.252 6.302V493.5h-85v-75.544c25.407-3.651 45-25.554 45-51.956v-90c0-28.949-23.552-52.5-52.5-52.5S3.5 247.051 3.5 276v90c0 26.402 19.593 48.304 45 51.956V493.5H0v15h512v-15h-3.5zM392.5 261c0 9.649-7.851 17.5-17.5 17.5s-17.5-7.851-17.5-17.5 7.851-17.5 17.5-17.5 17.5 7.851 17.5 17.5zM76.697 345.697L63.5 358.893V313h-15v22.893l-9.196-9.196-10.607 10.606L48.5 357.107v45.638c-17.096-3.484-30-18.635-30-36.745v-90c0-20.678 16.822-37.5 37.5-37.5s37.5 16.822 37.5 37.5v90c0 18.11-12.904 33.261-30 36.745v-22.638l23.804-23.804-10.607-10.606zM285.5 398.5h85v15h-85v-15zm0 30h85v15h-85v-15zm100 65h-115v-35h115v35zm78-295h15v265h-15v-265zm30 295h-45v-15h45v15zm-57.5-362h15v15h-15zm-60 0h15v15h-15zm30 0h15v15h-15z"/><path d="M33.5 279h15v20h-15zM56 253.5v15c4.136 0 7.5 3.364 7.5 7.5h15c0-12.407-10.094-22.5-22.5-22.5zm78.376-22.774c-6.54 2.443-12.675 5.917-18.238 10.326l9.318 11.755c4.332-3.434 9.099-6.136 14.169-8.029 5.821-2.175 12.004-3.278 18.375-3.278v-15c-8.17 0-16.118 1.422-23.624 4.226zm89.847 50.175a66.985 66.985 0 0 0-8.453-21.788c-7.289-12.028-17.935-21.359-30.786-26.983l-6.014 13.741c9.861 4.315 18.374 11.779 23.971 21.015a52.062 52.062 0 0 1 6.567 16.922l14.715-2.907zm-13.8 15.972a52.174 52.174 0 0 1-2.334 12.871l14.307 4.511a67.328 67.328 0 0 0 3.006-16.57l-14.979-.812zM168 275.5h22v15h-22zm-42-10h20v15h-20z"/></svg>