<svg xmlns="http://www.w3.org/2000/svg" viewBox="0 0 512 512"><path d="M512 70.862V25.949H80.842V0H35.93v25.949H0v44.912h35.93V512H512V323.969l-101.302-71.127-60.881 42.747-60.881-42.747-60.881 42.747-60.881-42.747-86.331 60.616V70.862h46.908v22.955H94.815v145.715H512V93.817h-32.936V70.862H512zM479.064 40.92h17.965v14.971h-17.965V40.92zM35.93 55.891H14.971V40.92H35.93v14.971zm29.941 268.078v173.06h-14.97V14.971h14.971v308.998zm121.763 173.06h-54.893V384.25h54.893v112.779zm128.748 0h-54.893V378.261h54.893v118.768zm128.749 0h-54.893V384.25h54.893v112.779zm-34.433-225.895l86.331 60.616v165.279h-36.928v-127.75h-69.864v-27.017l19.153 13.448 8.602-12.252-55.15-38.722 47.856-33.602zm-121.762 0l86.331 60.616v165.279h-43.914V363.29h-84.834v133.739h-43.914V331.75l86.331-60.616zm-121.763 0l47.855 33.6-55.15 38.722 8.602 12.252 19.154-13.448v27.017H117.77v127.75H80.842V331.75l86.331-60.616zM142.721 40.92h321.372v14.971H142.721V40.92zm0 29.942h321.372v22.955H142.721V70.862zM80.842 55.891V40.92h46.908v14.971H80.842zm416.187 52.897v115.774H109.786V108.788h387.243z"/><path d="M443.967 331.098l-37.573-26.38 8.602-12.251 37.572 26.38zm12.239 8.589l8.602-12.252 14.05 9.864-8.602 12.252zm-348.612 9.869l-8.602-12.252 14.05-9.864 8.602 12.252zm17.693-30.727l37.573-26.38 8.602 12.251-37.573 26.38zM346.324 430.16h14.971v14.971h-14.971zm0-29.942h14.971v14.971h-14.971zm0-29.941h14.971v14.971h-14.971zm-129.747 0h14.971v14.971h-14.971zm0 59.883h14.971v14.971h-14.971zm0-29.942h14.971v14.971h-14.971zm30.94-73.855h82.838v14.971h-82.838zm-63.044-204.601h-53.728v51.899h53.728c14.309 0 25.949-11.641 25.949-25.949s-11.64-25.95-25.949-25.95zm0 36.928h-38.757v-21.957h38.757c6.053 0 10.979 4.925 10.979 10.979-.001 6.053-4.926 10.978-10.979 10.978z"/><path d="M182.976 158.69h-52.231v48.405h14.971V173.66h37.26c6.88 0 12.476 5.596 12.476 12.476v20.959h14.971v-20.959c-.001-15.134-12.314-27.446-27.447-27.446zm46.905-.998h63.875v14.971h-63.875z"/><path d="M293.759 136.733v-14.971h-71.36v85.833h71.36v-14.971h-56.39v-55.891zm76.351-14.472v59.2l-48.429-59.699h-17.442v86.332h14.971V142.48l52.823 65.115h13.048v-85.334zm25.447.499h82.838v14.971h-82.838z"/><path d="M429.491 130.246h14.971v76.85h-14.971z"/></svg>