<svg xmlns="http://www.w3.org/2000/svg" viewBox="0 0 512 512"><path d="M283.785 275.576h21.723v-15.155h-21.723c-11.978 0-21.723 9.745-21.723 21.723v2.021c0 11.978 9.745 21.723 21.723 21.723a6.575 6.575 0 0 1 6.567 6.567v2.021a6.575 6.575 0 0 1-6.567 6.567h-21.723v15.155h21.723c11.978 0 21.723-9.745 21.723-21.723v-2.021c0-11.978-9.745-21.723-21.723-21.723a6.575 6.575 0 0 1-6.567-6.567v-2.021a6.574 6.574 0 0 1 6.567-6.567zm59.106-15.155c-12.534 0-22.733 10.198-22.733 22.733v30.311c0 12.535 10.198 22.733 22.733 22.733s22.733-10.198 22.733-22.733v-30.311c0-12.536-10.199-22.733-22.733-22.733zm7.577 53.044c0 4.179-3.399 7.578-7.578 7.578s-7.578-3.399-7.578-7.578v-30.311c0-4.179 3.399-7.578 7.578-7.578s7.578 3.399 7.578 7.578v30.311zm45.467 7.577v-60.116h-15.156v75.272h42.94v-15.156zm60.116-60.621H438.37v75.777h17.681c15.32 0 27.785-12.464 27.785-27.785v-20.207c0-15.321-12.465-27.785-27.785-27.785zm12.629 47.992c0 6.964-5.665 12.629-12.63 12.629h-2.526v-45.466h2.526c6.964 0 12.63 5.665 12.63 12.629v20.208z"/><path d="M399.976 230.11v-40.414h-55.57v40.414H233.267v45.466h-15.155V159.385h30.311v53.044h15.155v-53.044h30.311v53.044h15.155V144.23H202.956v146.502h30.311v75.777h111.139V512h55.57V366.508h111.139V230.11H399.976zm-40.414-25.259h25.259v25.259h-25.259v-25.259zm25.259 291.994h-25.259V366.508h25.259v130.337zM495.96 351.353H248.422V245.265H495.96v106.088z"/><path d="M190.327 0L100.91 64.579V22.987H35.237v89.022L.885 136.819V512h327.861v-15.155h-50.013V384.19h-15.155v112.655h-65.673V350.343h17.681v-15.155H101.92v161.657H16.04V144.568L190.327 18.695l174.287 125.873v29.467h15.155v-18.521l48.606 35.105 8.874-12.286L190.327 0zm-73.251 350.343h65.673v146.502h-65.673V350.343zM85.755 75.524l-35.363 25.54V38.142h35.363v37.382z"/><path d="M152.442 416.015h15.155v15.155h-15.155zm60.622 0h15.155v15.155h-15.155zM71.61 144.23v146.502h106.088V144.23H71.61zm45.466 131.346H86.765v-35.363h30.311v35.363zm0-50.518H86.765v-65.673h30.311v65.673zm45.466 50.518h-30.311v-35.363h30.311v35.363zm0-50.518h-30.311v-65.673h30.311v65.673zm257.14-156.605h15.155v15.155h-15.155zm30.311 0h15.155v15.155h-15.155zm-60.622 0h15.155v15.155h-15.155zm-75.275 321.799h15.155v30.311h-15.155zm0 45.466h15.155v15.155h-15.155zm-36.427-316.566l8.873-12.287 12.287 8.873-8.874 12.287zm-12.29-8.862l-42.112-30.414 8.874-12.286 42.112 30.413zM31.195 403.386H46.35v15.155H31.195zm15.156 63.148v-32.837H31.195v47.992h47.992v-15.155zM31.195 252.843H46.35v15.155H31.195zm0-55.57H46.35v40.414H31.195zM136.71 76.113l49.184-35.522 8.874 12.286L145.582 88.4zm-15.704 30.032l-8.873-12.286 12.286-8.873 8.873 12.286zm8.703 259.352h40.414v15.155h-40.414zm103.562 88.406h15.155v30.311h-15.155z"/></svg>