<svg xmlns="http://www.w3.org/2000/svg" viewBox="0 0 512 512"><path d="M256 117.615c-20.698 0-37.537 16.838-37.537 37.537v44.544h75.073v-44.544c.001-20.699-16.838-37.537-37.536-37.537zm-7.507 67.065h-15.015v-29.529c0-9.788 6.277-18.132 15.015-21.231v50.76zm30.029 0h-15.015v-50.76c8.738 3.099 15.015 11.443 15.015 21.231v29.529zM148.395 357.849c-16.558 0-30.029 13.471-30.029 30.029v56.055h60.059v-56.055c-.001-16.557-13.472-30.029-30.03-30.029zm15.015 71.07h-30.03v-41.04c0-8.279 6.736-15.015 15.015-15.015s15.015 6.736 15.015 15.015v41.04zm200.696-71.07c-16.558 0-30.029 13.471-30.029 30.029v56.055h60.059v-56.055c-.001-16.557-13.472-30.029-30.03-30.029zm15.014 71.07h-30.029v-41.04c0-8.279 6.736-15.015 15.015-15.015s15.015 6.736 15.015 15.015v41.04z"/><path d="M338.581 263.894V138.936l23.088 16.931 8.879-12.108-107.04-78.496v-31.73h22.522V18.518h-22.522V0h-15.015v18.518h-22.522v15.015h22.522v31.73l-107.04 78.496 8.879 12.108 23.088-16.931v124.958L47.005 337.948l7.589 12.955 24.733-14.488V512h353.345V336.415l24.733 14.488 7.589-12.955-126.413-74.054zM188.434 127.926L256 78.378l67.566 49.548v127.173L256 215.519l-67.566 39.58V127.926zm60.059 369.059h-35.034V361.389l35.034-23.123v158.719zm50.049 0h-35.034V338.266l35.034 23.123v135.596zm119.116 0H313.556V353.309L256 315.322l-57.556 37.987v143.676H94.342V327.619L256 232.92l161.658 94.698v169.367z"/><path d="M148.067 330.943l-7.59-12.954 25.91-15.18 7.59 12.954zm31.283-35.703l21.195-12.413 7.588 12.955-21.194 12.413zm150.073 15.468l-43.187-25.3 7.59-12.956 43.186 25.3zm12.949 7.631l7.59-12.954 13.927 8.16-7.59 12.953zM116.864 458.948h15.015v15.015h-15.015zm45.044 0h15.015v15.015h-15.015zm173.169 0h15.015v15.015h-15.015zm45.044 0h15.015v15.015h-15.015z"/></svg>