<svg xmlns="http://www.w3.org/2000/svg" viewBox="0 0 512.003 512.003"><path d="M248 142.156h15.034v15.034H248zm91.71 94.546h14.032v15.034H339.71zm-181.415 0h14.032v15.034h-14.032zm177.907 188.602h15.034V467.4h-15.034zm-174.399 0h15.034V467.4h-15.034z"/><path d="M403.358 176.588l-17.836-11.215L511.915 38.98 472.934 0 337.652 135.283l-82.133-51.622-81.535 51.253L39.218.149.239 39.13 126.11 165.001l-18.429 11.588v188.667L.088 472.846l38.981 38.98 88.656-88.656v73.795h-22.552V512h301.691v-15.034H383.31v-74.763l89.475 89.474 38.98-38.98-108.407-108.409v-187.7zm-15.035 8.306v17.396h-39.718l26.014-26.014 13.704 8.618zm-265.609 0l14.299-8.99 26.386 26.386h-40.685v-17.396zm0 135.667h29.659l-29.659 29.659v-29.659zm180.915 176.405h-96.22v-84.193h96.22v84.193zm64.648 0h-49.614v-99.227H192.374v99.227H142.76v-88.831l41.469-41.469h143.547l40.501 40.501v89.799zm122.227-24.27l-17.719 17.719-189.342-189.342-10.631 10.63 39.93 39.928h-113.48l39.929-39.928-10.631-10.63L39.069 490.564l-17.72-17.719 189.493-189.492-10.631-10.63-32.803 32.803h-44.693v-19.377h49.614v-15.034h-49.614v-19.377h20.547v-15.034h-20.547v-19.377h55.72l21.778 21.778 10.631-10.63L21.499 39.13l17.719-17.719L228.56 210.753l10.631-10.63-54.305-54.304 70.632-44.4 71.229 44.77-53.936 53.936 10.631 10.63L472.934 21.262l17.72 17.719-189.493 189.49 10.631 10.63 21.778-21.778h54.752V236.7h-19.545v15.034h19.545v19.377h-48.611v15.034h48.611v19.377h-43.726l-32.803-32.803-10.631 10.63 189.342 189.347zM388.323 320.561v28.692l-28.692-28.692h28.692z"/><path d="M421.899 496.969h14.032v15.034h-14.032zm-346.794 0h15.034v15.034H75.105zm180.896-273.63c-17.962 0-32.575 14.613-32.575 32.575 0 17.961 14.612 32.575 32.575 32.575s32.575-14.613 32.575-32.575c0-17.962-14.612-32.575-32.575-32.575zm0 50.114c-9.671 0-17.54-7.869-17.54-17.54s7.869-17.54 17.54-17.54 17.54 7.869 17.54 17.54c.001 9.671-7.867 17.54-17.54 17.54zM208.459 34.935a225.34 225.34 0 0 0-15.083 3.778l4.153 14.449a211.818 211.818 0 0 1 14.078-3.526l-3.148-14.701zm-29.872 8.586a226.13 226.13 0 0 0-14.421 5.818l6.104 13.739c4.4-1.954 8.926-3.782 13.458-5.429l-5.141-14.128zM256 29.905c-10.061 0-20.216.678-30.184 2.013l1.997 14.901a213.044 213.044 0 0 1 28.188-1.879c39.363 0 77.752 10.898 111.016 31.514l7.92-12.779C339.292 41.581 298.164 29.905 256 29.905zM150.182 56.142a225.524 225.524 0 0 0-13.117 7.531l7.92 12.778a210.51 210.51 0 0 1 12.238-7.026l-7.041-13.283zM76.54 144.895l-12.779-7.92c-22.091 35.639-33.766 76.766-33.766 118.937 0 10.063.678 20.218 2.014 30.185l14.901-1.998a212.83 212.83 0 0 1-1.88-28.188c-.001-39.369 10.895-77.758 31.51-111.016zm-26.812 155.41l-14.702 3.15a227.474 227.474 0 0 0 3.778 15.082l14.45-4.151a212.528 212.528 0 0 1-3.526-14.081zm19.788 54.385l-13.284 7.04a225.059 225.059 0 0 0 7.531 13.118l12.779-7.92a210.596 210.596 0 0 1-7.026-12.238zM57.74 328.186l-14.128 5.139a225.599 225.599 0 0 0 5.819 14.423l13.738-6.107a211.259 211.259 0 0 1-5.429-13.455zm390.502-191.211l-12.779 7.92a210.753 210.753 0 0 1 7.028 12.24l13.282-7.042a225.71 225.71 0 0 0-7.531-13.118zm31.756 88.753l-14.901 1.996a213.07 213.07 0 0 1 1.879 28.189c0 39.362-10.898 77.751-31.515 111.016l12.779 7.92c22.093-35.646 33.77-76.773 33.77-118.937 0-10.061-.677-20.215-2.012-30.184zm-17.422-61.651l-13.738 6.107a210.435 210.435 0 0 1 5.429 13.455l14.128-5.139a225.015 225.015 0 0 0-5.819-14.423zm10.627 29.211l-14.45 4.151a212.04 212.04 0 0 1 3.527 14.08l14.702-3.15a228.077 228.077 0 0 0-3.779-15.081z"/></svg>