<svg xmlns="http://www.w3.org/2000/svg" viewBox="0 0 511.999 511.999"><path d="M446.408 255.858l27.623-19.731-61.299-85.819-175.716-70.286L61.3 150.308 0 236.127l27.625 19.731v209.533H12.488v45.41h449.056v-45.41h-15.137V255.858zm-425.292-23.25l49.923-69.893 165.977-66.391 165.977 66.391 49.924 69.893-12.317 8.797-47.346-66.284-156.237-62.495-156.238 62.496-47.346 66.284-12.317-8.798zm107.419 91.508v141.276H42.76V254.389h.001l47.756-66.86 146.497-58.599 146.497 58.599 47.757 66.861v211.002h-85.775V324.116H128.535zm201.824 15.136v126.139h-85.775V339.252h85.775zm-100.911 0v126.139h-85.775V339.252h85.775zm216.96 156.412H27.625v-15.137h418.783v15.137z"/><path d="M156.282 364.482h60.547v15.137h-60.547zm0 30.274h60.547v15.137h-60.547zm0 30.273h60.547v15.137h-60.547zm100.911-60.547h60.547v15.137h-60.547zm0 30.274h60.547v15.137h-60.547zm0 30.273h60.547v15.137h-60.547zm-68.11-246.227v95.866h95.866v-95.866h-95.866zm70.026 15.137l-22.093 22.093-22.094-22.093h44.187zm-54.889 10.704l22.093 22.093-22.093 22.094v-44.187zm10.701 54.888l22.094-22.093 22.093 22.093h-44.187zm54.89-10.703l-22.093-22.093 22.093-22.093v44.186zm-181.64-9.479v55.501h55.501v-55.501H88.171zm40.365 40.365h-25.228v-25.228h25.228v25.228zm201.823-40.365v55.501h55.501v-55.501h-55.501zm40.365 40.365h-25.228v-25.228h25.228v25.228z"/><path d="M413.611 1.198c-52.698 0-95.868 41.203-98.281 93.803l15.121.694c2.04-44.501 38.569-79.361 83.159-79.361 45.905 0 83.252 37.346 83.252 83.252v2.523H368.2v15.137h128.662v85.775h-24.723v15.137h24.723v85.775h-35.824v15.137h35.824v85.775h-35.824v15.137h35.824v75.684h-20.687v15.137h35.824V99.587C512 45.336 467.862 1.198 413.611 1.198z"/><path d="M400.997 272.145h15.137v40.365h-15.137zm0 55.502h15.137v15.137h-15.137zM57.898 427.549h15.137v15.137H57.898zm0-45.41h15.137v30.273H57.898zm118.571-88.298h15.137v15.137h-15.137zm30.274 0h30.273v15.137h-30.273zm135.421-90.246L301.65 187.39l5.621-14.054 40.513 16.205zm14.05 5.615l5.62-14.054 14.055 5.62-5.62 14.054zm16.534-164.18l9.07 12.118c9.211-6.895 20.205-10.54 31.793-10.54 10.799 0 21.194 3.243 30.062 9.379l8.613-12.447c-11.41-7.894-24.783-12.068-38.674-12.068-14.884-.001-29.015 4.688-40.864 13.558zm92.188 9.817L453.532 64.8a53.294 53.294 0 0 1 7.39 10.958l13.505-6.835a68.441 68.441 0 0 0-9.491-14.076zm1.654 115.378h15.137v15.137H466.59zm0-38.347h15.137v23.21H466.59zm0 244.206h15.137v15.137H466.59zm0-45.41h15.137v30.273H466.59z"/></svg>