<svg xmlns="http://www.w3.org/2000/svg" viewBox="0 0 512 512"><path d="M267.628 283.667H207.66v-33.2h-55.335v33.201H80.282L.406 363.544v146.492h347.099V363.544l-79.877-79.877zm-100.212-18.108h25.152v35.213h-25.152v-35.213zm14.086 229.387H15.498v-120.73h166.004v120.73zM26.168 359.125l60.365-60.365h65.792v17.103h55.335V298.76h38.628l-60.365 60.365H26.168zM282.11 494.946h-35.213v-67.911c0-9.708 7.899-17.606 17.606-17.606s17.606 7.899 17.606 17.606v67.911zm50.304 0h-35.213v-67.911c0-18.029-14.669-32.698-32.698-32.698s-32.698 14.669-32.698 32.698v67.911h-35.213V369.795l67.911-67.911 67.911 67.911v125.151zm32.694-114.696h146.888v15.091H365.108zm-2.371-132.204c-18.533 16.722-36.039 32.516-58.348 44.35l7.072 13.332c23.959-12.709 42.985-29.876 61.385-46.477C408.818 226.795 442.795 196.14 512 196.14v-15.091c-75.007-.001-112.756 34.058-149.263 66.997zm-96.187-35.98c-27.317-24.643-55.391-49.935-101.146-59.359v-17.615c19.989-3.576 35.213-21.076 35.213-42.078v-33.2c0-23.578-19.181-42.759-42.759-42.759-11.87 0-22.622 4.864-30.377 12.702-6.08-16.217-21.735-27.793-40.049-27.793-23.578 0-42.759 19.181-42.759 42.759v48.292c0 21.002 15.224 38.503 35.213 42.078v18.974C44.183 162.782 20.205 181.082 0 198.544l9.868 11.419c17.996-15.552 39.205-31.82 70.019-40.222v17.847h15.091v-21.166c9.377-1.586 19.554-2.477 30.686-2.477 8.799 0 16.975.544 24.649 1.532v22.111h15.091v-19.45c39.935 9.061 64.935 31.587 91.036 55.134 17.884 16.135 36.377 32.817 59.986 44.917l6.884-13.43c-21.85-11.199-38.808-26.497-56.76-42.693zM87.433 120.683c-15.256 0-27.667-12.412-27.667-27.667V44.723c0-15.256 12.411-27.667 27.667-27.667 15.256 0 27.667 12.411 27.667 27.667v48.292c0 15.257-12.411 27.668-27.667 27.668zm62.88 29.579c-7.726-.915-15.917-1.408-24.649-1.408-11.061 0-21.24.808-30.686 2.246v-16.006c11.437-2.046 21.311-8.646 27.667-17.861 6.356 9.214 16.23 15.815 27.667 17.861v15.168zm7.546-29.579c-15.256 0-27.667-12.411-27.667-27.667V59.815c0-15.256 12.411-27.667 27.667-27.667 15.256 0 27.667 12.411 27.667 27.667v33.201c0 15.256-12.411 27.667-27.667 27.667z"/><path d="M451.966 85.47c-77.518 0-116.547 35.208-154.29 69.257-10.91 9.843-22.192 20.019-34.159 29.025l9.074 12.058c12.504-9.408 24.038-19.814 35.194-29.877 37.266-33.618 72.465-65.371 144.182-65.371 19.343 0 36.652 2.278 52.913 6.963l4.178-14.502c-17.64-5.083-36.315-7.553-57.092-7.553zM35.619 399.368v55.335h55.335v-55.335H35.619zm40.244 40.243H50.711v-25.152h25.152v25.152zm30.182-40.243v55.335h55.335v-55.335h-55.335zm40.244 40.243h-25.152v-25.152h25.152v25.152zM33.104 467.782h15.091v15.091H33.104zm30.183 0h30.182v15.091H63.287zM283.1 363.169l-27.957-27.956 10.67-10.67 27.956 27.956zm10.667 10.667l10.67-10.67 10.67 10.67-10.67 10.67zM92.785 313.851l-24.773 24.773 10.671 10.67 20.353-20.352h37.695v-15.091zm258.641-16.342l9.262 11.915a362.217 362.217 0 0 0 11.95-9.726l-9.753-11.516a348.821 348.821 0 0 1-11.459 9.327zm40.868-35.437c-3.092 2.747-6.195 5.548-9.355 8.398-2.918 2.632-5.851 5.279-8.819 7.923l10.039 11.268c2.992-2.665 5.949-5.332 8.907-8.001 3.113-2.809 6.188-5.584 9.252-8.305l-10.024-11.283zm47.86-34.748l6.865 13.439A127.746 127.746 0 0 1 460.038 235l-5.318-14.122a142.557 142.557 0 0 0-14.566 6.446zm54.049-15.302c-8.425.777-16.594 2.155-24.281 4.097l3.695 14.631c6.931-1.751 14.323-2.995 21.971-3.7l-1.385-15.028zm-124.793-9.787l9.512 11.717a295.579 295.579 0 0 1 11.638-9.002l-8.921-12.173a309.31 309.31 0 0 0-12.229 9.458zm48.809-31.517c-8.085 3.834-15.859 8.167-23.767 13.245l8.153 12.699c7.361-4.726 14.583-8.752 22.081-12.308l-6.467-13.636zm-373.141 31.19c-11.964 7.808-22.982 17.259-33.106 26.309l10.058 11.252c9.682-8.654 20.173-17.664 31.296-24.923l-8.248-12.638zm144.336 7.313c13.251 7.341 24.914 17.016 35.542 26.376l9.975-11.326c-11.268-9.923-23.694-20.213-38.203-28.252l-7.314 13.202zm56.917 25.254l-.095-.085-10.095 11.217.083.074c3.63 3.276 7.385 6.663 11.215 10.043l9.984-11.316c-3.768-3.324-7.491-6.684-11.092-9.933z"/><path d="M344.29 154.214l9.448 11.767c4.082-3.277 7.894-6.152 11.653-8.79l-8.667-12.354c-4.029 2.826-8.096 5.893-12.434 9.377zm25.68-17.867l7.563 13.059a138.72 138.72 0 0 1 12.723-6.531l-6.177-13.769a154.294 154.294 0 0 0-14.109 7.241zm28.951-12.949l4.638 14.36c14.612-4.721 30.447-7.014 48.409-7.013v-15.091c-19.56-.001-36.912 2.533-53.047 7.744zM84.917 77.924h15.091v15.091H84.917zm0-33.201h15.091v18.11H84.917zm70.422 15.09h15.091v33.201h-15.091zm218.824 355.65h21.128v15.091h-21.128zm19.115 30.183h54.328v15.091h-54.328zm45.274-34.207h31.189v15.091h-31.189zm28.17 60.365h24.146v15.091h-24.146zm-58.353 13.079h39.237v15.091h-39.237zm-45.273-7.043h24.146v15.091h-24.146zm119.724-40.243h19.116v15.091H482.82z"/></svg>