<svg xmlns="http://www.w3.org/2000/svg" viewBox="0 0 406.824 406.824"><path d="M168.368 153.559a4 4 0 0 0 4-4v-14.955a4 4 0 0 0-8 0v14.955a4 4 0 0 0 4 4zm41.809 20.037a3.998 3.998 0 0 0-1.372-5.487 3.999 3.999 0 0 0-5.488 1.372c-5.69 9.484-17.06 9.094-17.581 9.064-2.191-.073-4.078 1.573-4.2 3.773a4 4 0 0 0 3.771 4.216c.077.004.348.017.782.017 3.406 0 16.798-.802 24.088-12.955zm-18.36-104.932c2.186 0 4.406.144 6.598.427a4 4 0 0 0 1.026-7.933 59.72 59.72 0 0 0-7.624-.493 4 4 0 0 0 0 7.999zm20.208 4.121c13.249 5.597 23.77 16.36 28.864 29.531a4 4 0 1 0 7.46-2.887c-5.872-15.181-17.978-27.578-33.212-34.014a4 4 0 1 0-3.112 7.37z"/><path d="M326.003 238.547h-16.361c-11.521 0-20.896-9.374-20.896-20.896 0-5.575 2.176-10.82 6.129-14.773 3.938-3.948 9.182-6.122 14.767-6.122a4 4 0 0 0 0-8c-7.726 0-14.981 3.009-20.427 8.469-5.461 5.461-8.469 12.715-8.469 20.427 0 15.933 12.963 28.896 28.896 28.896h16.361c40.153 0 72.82 32.667 72.82 72.82v2.853c0 19.455-7.571 37.741-21.317 51.488-13.769 13.756-32.06 21.332-51.503 21.332-32.852 0-61.613-22.223-70.206-53.495h22.463a4 4 0 0 0 4-4v-39.489a4 4 0 0 0-4-4h-10.888V118.254c0-40.741-32.089-74.126-72.32-76.214V5.426a4 4 0 0 0-8 0V42.04c-40.23 2.088-72.319 35.473-72.319 76.214v175.802h-10.888a4 4 0 0 0-4 4v39.489a4 4 0 0 0 4 4h23.328c-1.969 31.127-27.904 55.853-59.52 55.853-15.94 0-30.918-6.206-42.178-17.478C14.206 368.662 8 353.684 8 337.744v-2.357c0-32.893 26.761-59.653 59.654-59.653H81.21c13.58 0 24.628-11.048 24.628-24.628 0-6.571-2.563-12.755-7.219-17.41s-10.838-7.219-17.41-7.219a4 4 0 0 0 0 8c4.435 0 8.609 1.731 11.752 4.875a16.517 16.517 0 0 1 4.876 11.754c0 9.169-7.459 16.628-16.628 16.628H67.654C30.35 267.734 0 298.083 0 335.387v2.357c0 18.078 7.04 35.066 19.818 47.833 12.769 12.781 29.757 19.82 47.835 19.82a67.262 67.262 0 0 0 37.93-11.663c.35-.13 2.25-1.444 4.478-2.868 7.201-4.602 25.183-14.872 50.052-20.622 40.938-9.464 81.291-3.127 120.067 18.835 2.435 1.379 8.177 4.755 8.646 4.844 11.217 5.838 23.895 9.115 37.176 9.115 21.579 0 41.878-8.407 57.158-23.674 15.259-15.26 23.662-35.555 23.662-57.146v-2.853c.002-44.562-36.254-80.818-80.819-80.818zm-203.27-120.293c0-37.672 30.648-68.319 68.319-68.319s68.32 30.647 68.32 68.319v175.802H230.72l-4.854-39.591v-75.313c11.906-1.276 21.21-11.387 21.21-23.633v-21.735a4.002 4.002 0 0 0-3.256-3.931 4.005 4.005 0 0 0-4.468 2.469c-1.611 4.101-7.277 14.858-13.486 15.089v-32.813c0-15.48-12.594-28.074-28.074-28.074h-27.491c-15.48 0-28.074 12.594-28.074 28.074v4.893c-7.385 5.758-11.986 13.799-11.986 22.69s4.601 16.933 11.986 22.69v24.962h-3.374a4 4 0 0 0 0 8h10.458v9.069a4 4 0 0 0 8 0v-9.069h5.644c.961 0 1.914.065 2.859.167v8.903a4 4 0 0 0 8 0v-6.779c5.184 2.264 9.648 6.106 12.605 11.104 1.204 2.036 1.214 4.397.027 6.478-1.203 2.109-3.362 3.369-5.776 3.369h-23.74c-2.209 0-4 1.734-4 3.943s1.791 4 4 4h.35l-9.77 65.04h-24.776V118.254zm77.728 155.373a4 4 0 0 0-4 4v16.429h-14.79v-25.858a4 4 0 0 0-8 0v25.858h-18.073l7.415-49.363h13.872a4 4 0 0 0 0-8h-12.67l1.145-7.619h15.31c5.324 0 10.081-2.769 12.726-7.405 2.611-4.578 2.577-10.004-.091-14.515-6.321-10.684-17.951-17.321-30.35-17.321h-12.728v-20.136c5.764 2.638 12.426 4.154 19.525 4.154 21.787 0 39.511-14.207 39.511-31.671s-17.725-31.671-39.511-31.671c-7.099 0-13.761 1.516-19.525 4.154v-.066c0-11.069 9.005-20.074 20.074-20.074h27.491c11.069 0 20.074 9.005 20.074 20.074v127.597h-14.261a4 4 0 0 0 0 8h14.261v4.516c0 .163 4.794 39.347 4.794 39.347h-18.198v-16.429a4.002 4.002 0 0 0-4.001-4.001zm-30.709-155.118c17.375 0 31.511 10.619 31.511 23.671s-14.136 23.671-31.511 23.671-31.511-10.619-31.511-23.671 14.135-23.671 31.511-23.671zm56.114 36.926c5.14-.064 9.628-3.177 13.21-7.266v7.35c0 7.827-5.731 14.322-13.21 15.546v-15.63zm-118.02 146.621H274.26v31.489H107.846v-31.489zm50.115 60.476a177.4 177.4 0 0 0-33.107 11.27 67.186 67.186 0 0 0 10.34-32.257h112.327c2.711 11.039 7.679 21.104 14.334 29.76-41.55-17.017-78.397-14.722-103.894-8.773z"/></svg>