<svg xmlns="http://www.w3.org/2000/svg" viewBox="0 0 378.845 378.845"><path d="M134.979 109.125a37.258 37.258 0 0 1 1.13 4.415 4 4 0 1 0 7.858-1.504 45.44 45.44 0 0 0-1.374-5.366 3.996 3.996 0 0 0-5.034-2.579 3.998 3.998 0 0 0-2.58 5.034zM94.22 78.258a4 4 0 0 0 3.993 4.007c11.55.02 22.862 5.549 30.261 14.792.79.986 1.952 1.5 3.126 1.5a4 4 0 0 0 3.12-6.5c-8.899-11.117-22.542-17.769-36.493-17.792h-.007a4 4 0 0 0-4 3.993zm17.336 134.929H93.583a4 4 0 0 0 0 8h17.973a4 4 0 0 0 0-8z"/><path d="M377.673 242.862l-12.267-12.268c-7.85-7.85-20.083-8.705-28.89-2.578l-8.015-8.014c1.206.16 2.019.266 2.062.266.869 0 1.72-.283 2.42-.814a4.006 4.006 0 0 0 1.543-2.645l9.951-72.923a4 4 0 0 0-3.421-4.504l-17.196-2.352c-11-1.501-21.256 5.228-24.561 15.436l-38.82-5.295a44.343 44.343 0 0 0-8.204-.351v-17.683c0-8.423-3.279-16.332-9.226-22.266-5.931-5.945-13.836-9.22-22.26-9.22-8.409 0-16.315 3.275-22.262 9.224-5.946 5.949-9.218 13.856-9.211 22.262v21.354h-15.472l-15.866-15.867a61.745 61.745 0 0 0 1.788-14.738c0-34.102-27.744-61.846-61.846-61.846-31.075 0-56.86 23.04-61.195 52.932l-28.49 28.49C2.925 144.772 0 151.833 0 159.344c0 7.51 2.925 14.571 8.236 19.882l64.601 64.601v6.694c0 24.257 19.734 43.991 43.99 43.991h6.281l3.159 3.157c15.425 15.425 35.679 23.135 55.94 23.135 20.257 0 40.521-7.714 55.941-23.135l39.558-39.414 42.269 42.305c.781.781 1.805 1.172 2.828 1.172s2.048-.391 2.828-1.172l52.042-52.042a4 4 0 0 0 0-5.656zm-95.967 8.08v-30.279a29.83 29.83 0 0 0 17.152-8.493 29.985 29.985 0 0 0 4.588-5.909l17.293 17.292-33.211 33.211-5.822-5.822zm-46.572-39.163l-17.416-17.416 1.157-8.467c.005-.037.012-.072.018-.108a30.31 30.31 0 0 0 13.273 3.069c4.67 0 9.251-1.112 13.443-3.237l7.228 9.51a44.477 44.477 0 0 0-6.236 5.183l-11.467 11.466zm18.592-57.006a21.96 21.96 0 0 1-.04 8.322c-1.133 5.765-4.443 10.743-9.321 14.019s-10.737 4.458-16.504 3.322a21.87 21.87 0 0 1-6.912-2.618c2.37-6.185 6.408-11.608 11.811-15.716 6.128-4.659 13.415-7.177 20.966-7.329zm23.98 32.654a43.86 43.86 0 0 0-17.818 3.759l-7.664-10.083c4.789-4.312 8.047-10.028 9.312-16.464.602-3.062.717-6.142.368-9.199l22.125 3.018-3.954 29.037a43.335 43.335 0 0 0-2.369-.068zm0 8c7.004 0 13.698 1.996 19.447 5.704a21.973 21.973 0 0 1-3.951 5.382c-8.576 8.575-22.53 8.576-31.106 0a21.94 21.94 0 0 1-3.924-5.327c5.769-3.744 12.495-5.759 19.534-5.759zm49.436 16.336l-6.327-.865 8.876-64.996 6.32.864-8.869 64.997zm-25.311-50.878a4.002 4.002 0 0 0 4.503-3.423c1.042-7.636 7.845-13.081 15.424-12.591l-8.218 60.17-4.729-4.729c-5.826-5.826-13-9.809-20.817-11.674l3.962-29.101 9.875 1.348zm-73.912-5.152a43.869 43.869 0 0 0-12.247 14.384l-18.355-18.355s.01-23.253.022-23.564h46.913c.012.313.023 19.77.023 19.77a43.85 43.85 0 0 0-16.356 7.765zm-7.129-50.081c6.283 0 12.177 2.439 16.603 6.877a23.371 23.371 0 0 1 5.129 7.669h-43.455a23.43 23.43 0 0 1 5.12-7.667 23.322 23.322 0 0 1 16.603-6.879zm-28.057 52.839s19.485 19.443 19.681 19.579a44.51 44.51 0 0 0-1.464 6.745l-.334 2.447-28.77-28.77h10.887zm36.745 58.945l-12.316 12.315-71.1-71.099a61.875 61.875 0 0 0 9.144-15.489l74.272 74.273zm-77.71-97.55c0 1.862-.095 3.702-.281 5.516-13.12 12.749-30.839 18.138-46.117 14.177-.293-5.015-2.362-9.694-5.945-13.275a20.358 20.358 0 0 0-14.492-6.004c-.878 0-1.744.075-2.601.183-7.531-16.336-2.581-37.634 12.607-52.821a56.81 56.81 0 0 1 1.657-1.587c.442-.011.882-.034 1.327-.034 29.689 0 53.845 24.155 53.845 53.845zM84.933 128.3c3.337 0 6.476 1.3 8.836 3.66s3.66 5.499 3.66 8.837-1.3 6.476-3.66 8.836-5.499 3.66-8.836 3.66c-3.338 0-6.477-1.3-8.837-3.661-2.36-2.359-3.66-5.497-3.66-8.835s1.3-6.477 3.66-8.837 5.499-3.66 8.837-3.66zm-.839-60.451c-13.183 16.702-16.886 38.038-9.386 55.2a20.558 20.558 0 0 0-4.268 3.256c-3.872 3.871-6.004 9.019-6.004 14.493s2.133 10.622 6.004 14.492a20.359 20.359 0 0 0 14.493 6.004 20.36 20.36 0 0 0 14.492-6.003 20.405 20.405 0 0 0 4.847-7.744 48.728 48.728 0 0 0 11.263 1.306c11.302 0 22.917-3.753 33.056-10.752-7.483 20.754-27.368 35.633-50.668 35.633-29.691 0-53.847-24.155-53.847-53.847-.001-24.911 17.007-45.918 40.018-52.038zM72.837 193.034l-53.43-53.43 16.743-16.743c1.137 23.9 15.909 44.276 36.686 53.536v16.637zm-42.544-3.064l14.084-14.084 6.308 6.308-14.084 14.084-6.308-6.308zM8 159.344c0-5.307 2.048-10.294 5.758-14.077l24.963 24.963-14.084 14.084-10.744-10.744A19.989 19.989 0 0 1 8 159.344zm34.257 42.59l14.084-14.084 16.496 16.496v28.168l-30.58-30.58zm39.132 54.822a20.437 20.437 0 0 1 23.001 4.162c6.479 6.479 7.768 16.592 3.44 24.455-13.535-3.497-23.998-14.694-26.441-28.617zm34.787 29.74a28.298 28.298 0 0 0-2.65-27.016l19.934-19.935h23.702c.314 0 .625.012.937.024v46.92c-.311.011-41.706.011-41.923.007zm64.47-23.467c0 9.786-6.018 18.189-14.547 21.712v-43.426c8.528 3.524 14.547 11.928 14.547 21.714zm51.846 28.984c-26.868 26.865-70.06 27.699-97.939 2.499h22.609c17.36 0 31.483-14.123 31.483-31.483s-14.123-31.484-31.483-31.484h-21.358v-44.36a4 4 0 0 0-8 0v46.704l-19.648 19.648a28.384 28.384 0 0 0-27.319-5.152v-69.071a61.67 61.67 0 0 0 17.085 2.419c16.559 0 31.607-6.554 42.719-17.189l70.864 70.863-9.691 9.691a3.997 3.997 0 0 0 0 5.656 3.997 3.997 0 0 0 5.656 0l44.422-44.421a30.003 30.003 0 0 0 4.546 5.836 29.837 29.837 0 0 0 17.268 8.507v30.266l-41.214 41.071zm60.693-29.594l33.211-33.21 7.042 7.042a3.997 3.997 0 0 0 5.656 0c5.449-5.447 14.157-5.668 19.889-.693l-46.349 46.348-19.449-19.487zm29.618 29.656l-4.513-4.513 46.386-46.385 4.512 4.513-46.385 46.385z"/></svg>