<svg xmlns="http://www.w3.org/2000/svg" viewBox="0 0 305.625 305.625"><path d="M257.392 164.423V109.35a12.264 12.264 0 0 0 3.666-8.75V78.325c0-13.76-11.011-24.989-24.683-25.359V24.339C236.375 10.918 225.458 0 212.037 0H109.223C87.182 0 69.25 17.932 69.25 39.974v12.992c-13.672.37-24.682 11.599-24.682 25.359V100.6c0 3.415 1.4 6.507 3.654 8.739v55.087c-16.771 9.108-28.183 26.883-28.183 47.275v89.924a4 4 0 0 0 4 4h257.549a4 4 0 0 0 4-4v-89.924c-.001-20.394-11.418-38.171-28.196-47.278zm20.195 64.115H261.29v-17.792h16.273c.006.319.024 17.792.024 17.792zm-28.195-67.63a53.503 53.503 0 0 0-17.559-2.96h-16.09c10.545-12.414 17.505-27.962 19.226-45.042 0 0 14.209-.021 14.423-.032v48.034zM152.809 29.985c41.124 0 74.581 33.457 74.581 74.581s-33.457 74.581-74.581 74.581-74.581-33.457-74.581-74.581 33.457-74.581 74.581-74.581zM97.635 165.948c14.636 13.169 33.983 21.199 55.174 21.199s40.538-8.03 55.174-21.199h13.412c-17.101 19.839-42.186 31.475-68.583 31.475-26.403 0-51.493-11.636-68.594-31.475h13.417zm-17.439 7.514c17.642 19.217 42.386 30.795 68.616 31.868v92.294H80.196V173.462zm76.617 31.869c26.23-1.074 50.975-12.656 68.616-31.881v124.175h-68.616v-92.294zm96.245-127.006V100.6a4.311 4.311 0 0 1-4.306 4.306h-13.371c0-.114.009-.226.009-.34 0-16.005-4.591-30.95-12.504-43.618h12.796c9.581 0 17.376 7.795 17.376 17.377zM109.223 8h102.814c9.009 0 16.338 7.33 16.338 16.339v28.609h-11.174c-15.148-18.859-38.377-30.963-64.392-30.963S103.564 34.09 88.416 52.948H77.279l-.029-12.974C77.25 22.344 91.593 8 109.223 8zM52.567 78.325c0-9.582 7.795-17.376 17.376-17.376h12.789c-7.913 12.667-12.505 27.613-12.505 43.618 0 .114.008.226.009.34H56.873a4.31 4.31 0 0 1-4.305-4.306V78.325zm3.654 34.548c.217.011 14.427.033 14.427.033 1.721 17.08 8.68 32.628 19.226 45.042H73.78a53.478 53.478 0 0 0-17.559 2.962v-48.037zm-28.183 98.828c0-24.697 19.668-44.874 44.158-45.713v131.637H28.038v-85.924zm205.391 85.924V165.988c21.452.74 39.198 16.309 43.273 36.758H257.29a4 4 0 0 0-4 4v25.792a4 4 0 0 0 4 4h20.297v61.087h-44.158z"/><path d="M211.368 232.933h-40.314a4 4 0 0 0-4 4v17.25a4 4 0 0 0 4 4h40.314a4 4 0 0 0 4-4v-17.25a4 4 0 0 0-4-4zm-4 17.251h-32.314v-9.25h32.314v9.25zm-3.182-212.716h15.707a4 4 0 0 0 4-4v-7.042c0-7.737-6.294-14.031-14.03-14.031h-5.677a4 4 0 0 0-4 4v17.073a4 4 0 0 0 4 4zm4-17.073h1.677a6.038 6.038 0 0 1 6.03 6.031v3.042h-7.707v-9.073zm-55.377 150.562c35.773 0 64.877-28.368 64.877-63.236 0-16.66-6.757-30.184-19.541-39.108-11.257-7.858-26.934-12.012-45.336-12.012-18.403 0-34.08 4.154-45.336 12.012-12.784 8.924-19.541 22.447-19.541 39.107 0 34.869 29.104 63.237 64.877 63.237zm-40.757-95.785c9.907-6.916 24-10.572 40.757-10.572 16.756 0 30.85 3.656 40.757 10.572 10.696 7.467 16.12 18.417 16.12 32.548 0 30.458-25.515 55.236-56.877 55.236s-56.877-24.779-56.877-55.236c0-14.13 5.423-25.081 16.12-32.548z"/><path d="M163.168 78.863c.831.119 1.658.255 2.483.408a4 4 0 0 0 1.463-7.865 68.565 68.565 0 0 0-2.811-.462 4 4 0 0 0-1.135 7.919zm15.142 4.552c13.453 5.916 16.279 18.033 16.281 27.156a4 4 0 0 0 4 3.999h.001a4 4 0 0 0 3.999-4.001c-.003-16.262-7.483-28.506-21.061-34.478a4 4 0 1 0-3.22 7.324z"/></svg>