<svg xmlns="http://www.w3.org/2000/svg" viewBox="0 0 435.015 435.015"><path d="M135.961 174.815c21.243 0 38.526-16.865 38.526-37.595 0-18.951-14.762-30.724-38.526-30.724-23.763 0-38.525 11.772-38.525 30.724-.001 20.729 17.282 37.595 38.525 37.595zm0-60.319c27.551 0 30.526 15.892 30.526 22.724 0 16.318-13.694 29.595-30.526 29.595s-30.525-13.276-30.525-29.595c-.001-6.832 2.974-22.724 30.525-22.724z"/><path d="M137.061 124.736c1.34 0 2.663.069 3.932.206a4.001 4.001 0 0 0 4.406-3.547 4 4 0 0 0-3.548-4.406 44.73 44.73 0 0 0-4.79-.253 4 4 0 0 0 0 8zm12.829 2.912c3.74 2.289 5.974 6.304 5.975 10.739a4 4 0 0 0 4 3.999h.001a4 4 0 0 0 3.999-4.001c-.002-7.242-3.665-13.807-9.798-17.562a4.001 4.001 0 0 0-4.177 6.825z"/><path d="M431.015 42.683H264.006a4 4 0 0 0-4 4v118.945a22.79 22.79 0 0 0-3.86-.336H176.74c6.24-8.428 9.938-18.846 9.938-30.113 0-27.966-22.751-50.718-50.717-50.718-27.965 0-50.717 22.752-50.717 50.718 0 11.268 3.698 21.686 9.938 30.113h-6.156c-8.997 0-17.806 3.649-24.168 10.011L6.536 233.615c-8.715 8.728-8.714 22.919.002 31.635 4.231 4.231 9.849 6.562 15.819 6.562 5.981 0 11.6-2.331 15.818-6.561l34.712-34.704v123.271c-9.536 1.217-16.93 9.383-16.93 19.243v15.271a4 4 0 0 0 4 4h66.14a4 4 0 0 0 3.995-3.796l4.096-80.204h4.718l4.096 80.204a4 4 0 0 0 3.995 3.796h64.96a4 4 0 0 0 4-4v-15.271c0-9.325-6.611-17.135-15.39-18.984V210.032h56.02c1.157 0 2.299-.087 3.42-.258v178.558a4 4 0 0 0 8 0V206.903a22.55 22.55 0 0 0 4.68-3.714c4.251-4.409 6.47-10.213 6.247-16.337-.269-7.665-4.617-14.404-10.927-18.228v-5.171h163.009a4 4 0 0 0 4-4V46.683a4.002 4.002 0 0 0-4.001-4zm-178.87 159.349h-30v-28.74h30v28.74zm-100.762 5.633a3.988 3.988 0 0 0-3.755-2.666h-23.333a4 4 0 0 0-4 4v4.333h-16.113c-5.175 0-9.385-4.21-9.385-9.385v-30.655h7.759c8.93 7.837 20.618 12.604 33.405 12.604a50.386 50.386 0 0 0 25.835-7.098v19.801c0 4.999-4.067 9.066-9.066 9.066h-1.347zm-3.481 119.997h44.664v6.666h-44.323l-.341-6.666zm44.664-61.342c-6.878-.124-12.437-5.749-12.437-12.655 0-11.396-9.271-20.666-20.667-20.666h-7.835v-4.634h40.938v37.955zm-48.938-53.321v28.666h-15.333v-28.666h15.333zm-7.667-120.538c23.554 0 42.717 19.163 42.717 42.718 0 23.554-19.163 42.717-42.717 42.717s-42.717-19.163-42.717-42.717c0-23.555 19.163-42.718 42.717-42.718zM35.346 256.766l-20.323-20.324 22.345-22.341 20.324 20.324-22.346 22.341zm-23.151 2.828c-4.617-4.618-5.416-11.624-2.419-17.084l19.514 19.514a14.258 14.258 0 0 1-6.934 1.788 14.278 14.278 0 0 1-10.161-4.218zm51.154-30.825l-20.324-20.324 27.49-27.485c4.345-4.346 10.182-7.032 16.282-7.564v30.552c0 9.586 7.799 17.385 17.385 17.385h16.113v24.333a4 4 0 0 0 4 4h23.333a4 4 0 0 0 4-4V241h7.835c6.984 0 12.667 5.682 12.667 12.666 0 11.318 9.148 20.53 20.437 20.655V281H80.886v-42.667h1.577c6.25 0 11.333 5.084 11.333 11.333 0 10.661 8.673 19.334 19.333 19.334h11.532c1.653 4.653 6.087 8 11.3 8 6.617 0 12-5.383 12-12s-5.383-12-12-12c-5.213 0-9.647 3.347-11.3 8h-11.532c-6.249 0-11.333-5.084-11.333-11.334 0-10.66-8.673-19.333-19.333-19.333h-1.577v-9.44a4 4 0 0 0-6.828-2.829l-10.709 10.705zm61.5 105.559H80.886v-6.666h44.303l-.34 6.666zm7.112-69.329c0-2.206 1.794-4 4-4s4 1.794 4 4-1.794 4-4 4-4-1.794-4-4zm-56.663 96.666h22.164a4 4 0 0 0 0-8H80.886v-11.337h43.554l-1.498 29.334H64.051c.691-5.608 5.462-9.967 11.247-9.997zm13.398 17.997v4.67H79.03v-4.67h9.666zm8 0h9.667v4.67h-9.667v-4.67zm-32.74 0h7.074v4.67h-7.074v-4.67zm50.407 4.67v-4.67h8.171l-.239 4.67h-7.932zm16.023-84a4 4 0 0 0-3.995 3.796l-.793 15.534H80.886v-30.663h111.68v30.663h-45.072l-.793-15.534a4 4 0 0 0-3.995-3.796h-12.32zm20.172 79.33h7.138v4.67h-6.899l-.239-4.67zm42.472 0v4.67h-9.667v-4.67h9.667zm-17.667 4.67h-9.667v-4.67h9.667v4.67zm25.667 0v-4.67h6.926v4.67h-6.926zm6.831-12.67H150.15l-1.498-29.334h43.915v11.337h-18.545a4 4 0 0 0 0 8h22.603c5.779.03 10.546 4.389 11.236 9.997zm-11.295-169.63a4 4 0 0 0-4 4v14.333h-40.938v-4.7h1.102c9.411 0 17.066-7.656 17.066-17.066v-25.307h44.349v28.74h-17.579zm70.361-4.396a14.247 14.247 0 0 1-6.782 3.938v-27.725c6.015 1.673 10.573 6.991 10.794 13.29.142 3.937-1.282 7.666-4.012 10.497zm160.088-42.183H268.006V50.683h159.009v104.77z"/></svg>