<svg xmlns="http://www.w3.org/2000/svg" viewBox="0 0 431 431"><path d="M427 175.041h-99.136l-32.862-37.174a3.999 3.999 0 0 0-3.011-1.367h-17.867l-14.715-16.648a4.002 4.002 0 0 0-2.998-1.352H219.5V84.552c5.403-1.703 9.333-6.76 9.333-12.718 0-7.353-5.981-13.334-13.333-13.334s-13.333 5.981-13.333 13.334c0 5.958 3.93 11.015 9.333 12.718V118.5h-36.91a4.001 4.001 0 0 0-2.998 1.352L156.877 136.5H139.01a3.999 3.999 0 0 0-3.011 1.367l-32.862 37.174H4a4 4 0 0 0 0 8h21.002l36.117 27.399a3.995 3.995 0 0 0 2.417.813h24.416C90.926 221.863 100.691 229.5 112 229.5c2.182 0 4.301-.3 6.332-.834a106.703 106.703 0 0 0 8.246 5.014l-38.194 79.083a14.954 14.954 0 0 0-2.744-.263c-8.271 0-15 6.729-15 15s6.729 15 15 15 15-6.729 15-15c0-4.463-1.97-8.465-5.073-11.215l38.147-78.985c21.309 9.96 48.528 15.686 77.786 16.165v89.593c-6.332 1.757-11 7.557-11 14.442 0 8.271 6.729 15 15 15s15-6.729 15-15c0-6.885-4.668-12.685-11-14.442v-89.593c29.264-.479 56.487-6.207 77.798-16.17l38.225 79.162c-2.993 2.744-4.884 6.672-4.884 11.043 0 8.271 6.729 15 15 15s15-6.729 15-15-6.729-15-15-15c-1.026 0-2.029.105-2.997.302l-38.209-79.128a107.029 107.029 0 0 0 8.234-5.008c2.031.534 4.15.834 6.333.834 11.31 0 21.075-7.637 24.049-18.246h24.415c.873 0 1.722-.285 2.417-.813l36.117-27.399H427a4 4 0 0 0 0-8.001zM215.5 66.5a5.34 5.34 0 0 1 5.333 5.334 5.34 5.34 0 0 1-5.333 5.333 5.34 5.34 0 0 1-5.333-5.333A5.34 5.34 0 0 1 215.5 66.5zm-129.86 268c-3.86 0-7-3.141-7-7s3.14-7 7-7 7 3.141 7 7-3.14 7-7 7zm267-7c0 3.859-3.14 7-7 7s-7-3.141-7-7 3.14-7 7-7 7 3.141 7 7zm-35.454-152.459h-6.4L288.005 144.5h2.179l27.002 30.541zm-16.38 0h-20.903L264.78 144.5h13.245l22.781 30.541zm-140.781 0l15.122-30.541h23.497l-4.323 30.541h-34.296zm46.7-30.541h17.55l4.325 30.541h-26.199l4.324-30.541zm29.955 30.541l-4.324-30.541h23.498l15.122 30.541H236.68zM176.394 126.5h78.213l8.839 10h-95.892l8.84-10zm-10.175 18l-15.121 30.541h-20.903l22.781-30.541h13.243zm-25.402 0h2.177l-22.778 30.541h-6.4l27.001-30.541zm-44.422 66.754h31.211c-2.631 6.069-8.701 10.246-15.606 10.246-6.904 0-12.973-4.177-15.605-10.246zM222.5 357.5c0 3.859-3.14 7-7 7s-7-3.141-7-7 3.14-7 7-7 7 3.141 7 7zm-3-112.039V236.5a4 4 0 0 0-8 0v8.961c-32.705-.578-63.551-8.219-84.655-20.867a24.982 24.982 0 0 0 9.204-13.34h55.402c2.974 10.609 12.739 18.246 24.049 18.246 11.31 0 21.075-7.637 24.049-18.246h55.402a24.98 24.98 0 0 0 9.204 13.34c-21.104 12.649-51.949 20.289-84.655 20.867zm-19.605-34.207h31.211c-2.631 6.069-8.701 10.246-15.606 10.246-6.904 0-12.973-4.177-15.605-10.246zM319 221.5c-6.904 0-12.974-4.177-15.606-10.246h31.211c-2.63 6.069-8.7 10.246-15.605 10.246zm47.118-18.246H64.882l-8.049-6.106h317.335l-8.05 6.106zm18.595-14.107H46.287l-8.049-6.106h354.524l-8.049 6.106z"/></svg>