<svg xmlns="http://www.w3.org/2000/svg" viewBox="0 0 359.256 359.256"><path d="M179.628 43.543c-76.35 0-138.465 62.115-138.465 138.465s62.115 138.465 138.465 138.465 138.465-62.115 138.465-138.465S255.978 43.543 179.628 43.543zm0 268.93c-71.939 0-130.465-58.526-130.465-130.465 0-71.938 58.526-130.465 130.465-130.465s130.465 58.526 130.465 130.465-58.526 130.465-130.465 130.465z"/><path d="M358.143 197.248l-11.549-12.04a34.578 34.578 0 0 1-4.207-42.646l8.565-13.423a4.001 4.001 0 0 0-1.705-5.788l-16.881-7.74c-13.998-6.417-22.149-21.531-19.821-36.754l2.272-14.86a4 4 0 0 0-3.751-4.6l-19.76-1c-14.447-.731-27.043-10.502-31.346-24.313l-4.686-15.044a4 4 0 0 0-5.213-2.56l-18.257 6.788a34.523 34.523 0 0 1-12.073 2.174c-9.333 0-18.409-3.843-24.902-10.542L182.501 2.178a4.001 4.001 0 0 0-5.746 0L164.427 14.9c-6.493 6.7-15.569 10.542-24.9 10.542h-.001c-4.132 0-8.194-.731-12.074-2.174l-18.257-6.788a4 4 0 0 0-5.213 2.56l-4.686 15.044c-4.303 13.81-16.899 23.581-31.346 24.312l-19.76 1a3.999 3.999 0 0 0-3.751 4.6l2.272 14.86c2.328 15.223-5.823 30.337-19.821 36.754l-16.881 7.74a3.999 3.999 0 0 0-1.705 5.788l8.565 13.423a34.578 34.578 0 0 1-4.207 42.646l-11.549 12.04a3.998 3.998 0 0 0 .566 6.027l14.458 10.296c12.874 9.168 17.917 25.879 12.264 40.639l-5.445 14.215a3.997 3.997 0 0 0 2.767 5.311l18.857 4.71a34.593 34.593 0 0 1 26.178 31.161l1.08 15.104a4 4 0 0 0 4.569 3.673l19.736-2.89a34.807 34.807 0 0 1 5.034-.368c12.134 0 23.538 6.478 29.759 16.905l8.541 14.313a3.997 3.997 0 0 0 5.599 1.314l15.8-10.162c5.604-3.605 12.089-5.51 18.753-5.51s13.148 1.905 18.753 5.51l15.799 10.162a4.003 4.003 0 0 0 5.6-1.314l8.541-14.313c6.222-10.427 17.625-16.905 29.759-16.905 1.676 0 3.37.124 5.034.368l19.736 2.89a3.999 3.999 0 0 0 4.569-3.673l1.08-15.104a34.59 34.59 0 0 1 26.178-31.161l18.857-4.71a4 4 0 0 0 2.767-5.311l-5.444-14.215c-5.653-14.759-.61-31.47 12.263-40.639l14.458-10.296a4 4 0 0 0 1.662-2.884 4.013 4.013 0 0 0-1.098-3.142zm-19.665 9.806c-15.845 11.284-22.051 31.852-15.093 50.017l3.829 9.998-14.476 3.616a42.575 42.575 0 0 0-32.219 38.352l-.773 10.807-15.474-2.266a42.977 42.977 0 0 0-6.193-.452c-14.936 0-28.972 7.972-36.629 20.805l-6.421 10.76-12.32-7.924c-6.898-4.437-14.879-6.782-23.081-6.782s-16.183 2.345-23.081 6.782l-12.32 7.924-6.421-10.76c-7.658-12.833-21.693-20.805-36.629-20.805-2.063 0-4.146.152-6.193.452l-15.474 2.266-.773-10.807a42.575 42.575 0 0 0-32.219-38.352l-14.476-3.616 3.83-9.998c6.958-18.165.75-38.732-15.094-50.017l-10.687-7.61 8.344-8.698a42.557 42.557 0 0 0 5.178-52.488l-6.094-9.55 12.705-5.825c17.229-7.899 27.26-26.5 24.395-45.236l-1.603-10.484 15.339-.776c17.781-.901 33.285-12.926 38.579-29.924l3.431-11.013 14.299 5.316a42.515 42.515 0 0 0 14.861 2.676h.002c11.483 0 22.654-4.729 30.646-12.975l9.456-9.757 9.456 9.757c7.992 8.246 19.162 12.975 30.647 12.975a42.5 42.5 0 0 0 14.861-2.676l14.299-5.316 3.431 11.013c5.294 16.998 20.798 29.023 38.579 29.924l15.339.776-1.604 10.484c-2.865 18.735 7.167 37.337 24.395 45.236l12.705 5.825-6.094 9.55a42.556 42.556 0 0 0 5.178 52.488l8.344 8.698-10.687 7.61z"/></svg>