<svg xmlns="http://www.w3.org/2000/svg" viewBox="0 0 367.998 367.998"><path d="M286.155 46.539c-16.026-21.428-38.851-37.581-64.27-45.484a4 4 0 0 0-5.188 3.82v5.746h-10.349C202.25 4.331 193.774 0 184 0s-18.251 4.331-22.349 10.62H151.3V4.874a4 4 0 0 0-5.188-3.82c-25.419 7.903-48.243 24.057-64.27 45.484-16.577 22.163-25.339 48.546-25.339 76.296 0 20.602 5.029 41.044 14.552 59.188v181.976a4 4 0 0 0 4 4h217.886a4 4 0 0 0 4-4V182.022c9.523-18.144 14.552-38.586 14.552-59.188.001-27.749-8.761-54.132-25.338-76.295zM216.698 18.62v110.7h-15.499V97.083c4.782-3.49 7.771-8.411 7.771-13.86l-.017-64.603h7.745zM200.97 83.224c0 6.041-7.771 11.146-16.971 11.146s-16.971-5.104-16.971-11.146v-50.05c4.458 3.173 10.423 5.118 16.971 5.118s12.512-1.945 16.971-5.118v50.05zM184 102.369c3.248 0 6.35-.483 9.199-1.352v28.303H174.8v-28.304a31.524 31.524 0 0 0 9.2 1.353zM184 8c9.199 0 16.971 5.104 16.971 11.146 0 6.041-7.771 11.146-16.971 11.146s-16.971-5.104-16.971-11.146C167.029 13.104 174.8 8 184 8zm-24.954 10.62l-.017 64.603c0 5.449 2.989 10.369 7.771 13.859v32.237h-15.5V18.62h7.746zm129.896 166.405v15.362H79.056v-15.362h209.886zM79.056 208.388h209.886v67.145H79.056v-67.145zm97.447 151.61h-70.058V310.91h70.058v49.088zm8 0V306.91a4 4 0 0 0-4-4h-78.058a4 4 0 0 0-4 4v53.088h-19.39v-76.466h209.886v76.466H184.503zm106.002-182.973H77.493c-8.496-16.681-12.988-35.36-12.988-54.19 0-26.01 8.211-50.735 23.745-71.505 13.925-18.617 33.322-32.987 55.051-40.888V133.32a4 4 0 0 0 4 4h73.397a4 4 0 0 0 4-4V10.442c21.729 7.9 41.126 22.271 55.051 40.888 15.534 20.77 23.745 45.495 23.745 71.505 0 18.83-4.493 37.51-12.989 54.19z"/><path d="M107.942 237.96h-14a4 4 0 0 0 0 8h14a4 4 0 0 0 0-8zm140 0h-14a4 4 0 0 0 0 8h14a4 4 0 0 0 0-8zm-28 0h-14a4 4 0 0 0 0 8h14a4 4 0 0 0 0-8zm56 0h-14a4 4 0 0 0 0 8h14a4 4 0 0 0 0-8zm-84 0h-14a4 4 0 0 0 0 8h14a4 4 0 0 0 0-8zm-28 0h-14a4 4 0 0 0 0 8h14a4 4 0 0 0 0-8zm-28 0h-14a4 4 0 0 0 0 8h14a4 4 0 0 0 0-8zM240.76 27.255a4 4 0 1 0-4.087 6.877A103.747 103.747 0 0 1 251.6 44.913c.757.656 1.69.979 2.619.979a4 4 0 0 0 2.623-7.022 111.757 111.757 0 0 0-16.082-11.615zm28.073 23.739a3.999 3.999 0 0 0-5.638-.462 3.999 3.999 0 0 0-.462 5.638c15.78 18.597 24.471 42.292 24.471 66.721a4 4 0 0 0 8 0c.001-26.323-9.365-51.856-26.371-71.897z"/></svg>