<svg xmlns="http://www.w3.org/2000/svg" viewBox="0 0 338.651 338.651"><path d="M337.479 291.58L228.798 182.898a4 4 0 0 0-5.656 0l-16.993 16.993-9.658-9.658 18.379-18.379a3.999 3.999 0 0 0 0-5.657l-18.38-18.38 9.057-9.057 16.994 16.994a4 4 0 0 0 5.656 0L336.879 47.072a4.002 4.002 0 0 0 0-5.658L297.236 1.772a4 4 0 0 0-5.656 0l-87.219 87.219-.003.002-.002.003-21.458 21.458a3.999 3.999 0 0 0 0 5.657l16.991 16.992-9.057 9.057-18.379-18.379a4 4 0 0 0-5.656 0l-18.379 18.379-9.658-9.658 16.992-16.992a3.999 3.999 0 0 0 0-5.657L47.071 1.171a3.999 3.999 0 0 0-5.656 0L1.772 40.814a4.002 4.002 0 0 0 0 5.658l108.683 108.682a4 4 0 0 0 5.656 0l16.993-16.993 9.658 9.657-18.379 18.379a3.999 3.999 0 0 0 0 5.657l18.378 18.378-10.259 10.259-16.992-16.992a4 4 0 0 0-5.656 0L1.172 292.181a4 4 0 0 0 0 5.657l39.643 39.642c.781.781 1.805 1.171 2.828 1.171s2.048-.391 2.828-1.171l108.682-108.682a4.002 4.002 0 0 0 0-5.658l-16.994-16.993 10.259-10.259 18.38 18.38a4 4 0 0 0 5.656 0l18.38-18.38 9.658 9.658-16.993 16.992a4.002 4.002 0 0 0 0 5.658l108.682 108.682c.781.781 1.805 1.171 2.828 1.171s2.048-.391 2.828-1.171l39.643-39.642a4 4 0 0 0-.001-5.656zM225.368 147.269l-14.165-14.166 15.804-15.804 14.165 14.165-15.804 15.805zm3.739-71.71l14.163 14.163-16.264 16.264-14.163-14.163 16.264-16.264zm21.92-21.92l14.163 14.164-16.264 16.263-14.163-14.163 16.264-16.264zm21.921-21.921l14.164 14.164-16.264 16.264-14.164-14.164 16.264-16.264zm17.721 50.249l-14.165-14.165 16.264-16.264 14.165 14.165-16.264 16.264zm-21.92 21.92l-14.165-14.165 16.264-16.263 14.165 14.165-16.264 16.263zm-19.822-8.508l14.165 14.165-16.263 16.263-14.165-14.165 16.263-16.263zm63.663-35.332l-14.165-14.165 15.803-15.803 14.165 14.165-15.803 15.803zm-18.182-49.789l14.164 14.164-15.803 15.803-14.164-14.164 15.803-15.803zM191.384 113.283l15.803-15.803 14.163 14.163-15.804 15.804-14.162-14.164zm-58.28 13.563L117.3 111.043l14.164-14.164 15.803 15.803-14.163 14.164zm-57.545-17.903l14.164-14.164 16.264 16.264-14.164 14.164-16.264-16.264zm-21.92-21.92l14.164-14.164 16.264 16.263-14.164 14.165-16.264-16.264zm-21.921-21.92l14.164-14.164 16.263 16.263-14.163 14.164-16.264-16.263zm50.249-17.722L67.803 61.545 51.539 45.282l14.164-14.164 16.264 16.263zm21.92 21.92L89.723 83.465 73.459 67.202l14.164-14.164 16.264 16.263zM95.38 89.122l14.164-14.164 16.264 16.264-14.164 14.164L95.38 89.122zM44.243 9.657l15.804 15.804-14.164 14.164-15.804-15.804L44.243 9.657zM24.422 29.478l15.804 15.804-14.164 14.164-15.804-15.803 14.164-14.165zm88.861 117.189l-15.804-15.804 14.164-14.164 15.804 15.803-14.164 14.165zm-.601 45.317l14.164 14.164-15.803 15.803-14.164-14.164 15.803-15.803zm-3.739 71.71l-14.165-14.165 16.264-16.264 14.165 14.165-16.264 16.264zm-21.92 21.92l-14.165-14.166 16.263-16.263 14.165 14.165-16.263 16.264zm-21.92 21.92l-14.166-14.166L67.2 277.105l14.165 14.166-16.262 16.263zm-17.722-50.249l14.163 14.163-16.263 16.263-14.163-14.163 16.263-16.263zm21.92-21.92l14.163 14.164-16.263 16.263-14.163-14.163 16.263-16.264zm19.82 8.507l-14.163-14.164 16.264-16.264 14.164 14.164-16.265 16.264zm-63.66 35.334l14.163 14.163-15.804 15.803-14.163-14.163 15.804-15.803zm18.182 49.789l-14.166-14.166 15.804-15.804 14.166 14.166-15.804 15.804zM146.667 225.97l-15.803 15.803-14.165-14.165 15.803-15.803 14.165 14.165zm22.959-20.186l-36.758-36.759 36.758-36.759 18.364 18.364.013.016.016.013 18.365 18.365-36.758 36.76zm87.659 84.886l14.165-14.165 16.264 16.264-14.165 14.165-16.264-16.264zm-21.92-21.92l14.164-14.165 16.263 16.263-14.165 14.165-16.262-16.263zm-21.92-21.921l14.164-14.164 16.264 16.263-14.164 14.165-16.264-16.264zm50.248-17.722l-14.164 14.164-16.264-16.263 14.165-14.164 16.263 16.263zm21.921 21.921l-14.164 14.164-16.263-16.263 14.164-14.164 16.263 16.263zm-8.508 19.82l14.164-14.164 16.264 16.264-14.164 14.164-16.264-16.264zm-51.136-79.465l15.804 15.804-14.165 14.164-15.804-15.804 14.165-14.164zm-19.822 19.822l15.804 15.804-14.164 14.164-15.803-15.804 14.163-14.164zm88.861 117.189l-15.803-15.803 14.165-14.165 15.803 15.803-14.165 14.165zm19.821-19.821l-15.803-15.803 14.164-14.164 15.803 15.803-14.164 14.164z"/><path d="M169.626 154.025a14.9 14.9 0 0 0-10.606 4.393c-5.849 5.849-5.849 15.365 0 21.214 2.833 2.833 6.6 4.394 10.606 4.394s7.773-1.561 10.606-4.394c5.849-5.849 5.849-15.365 0-21.214a14.9 14.9 0 0 0-10.606-4.393zm4.95 19.95c-1.322 1.322-3.08 2.051-4.95 2.051s-3.628-.729-4.95-2.051a7.008 7.008 0 0 1 0-9.899c1.322-1.322 3.08-2.05 4.95-2.05s3.628.728 4.95 2.05a7.006 7.006 0 0 1 0 9.899z"/></svg>