<svg xmlns="http://www.w3.org/2000/svg" viewBox="0 0 449.51 449.51"><path d="M350.523 216.825a4 4 0 0 0 3.968-4.542 130.48 130.48 0 0 0-3.901-18.438 4.001 4.001 0 0 0-7.687 2.219 122.36 122.36 0 0 1 3.661 17.303 4.002 4.002 0 0 0 3.959 3.458zm1.019 5.776a4 4 0 0 0-3.894 4.104c.869 33.081-11.864 65.598-34.934 89.216a4 4 0 1 0 5.722 5.59c24.572-25.155 38.134-59.787 37.208-95.016a4.006 4.006 0 0 0-4.102-3.894zm-47.68 101.527a123.647 123.647 0 0 1-22.967 15.235c-21.084 10.826-44.637 15.318-68.112 13.001-22.871-2.261-44.584-10.819-62.795-24.75a4 4 0 1 0-4.86 6.354c19.393 14.836 42.516 23.95 66.868 26.357 4.285.424 8.569.634 12.845.634 20.681 0 41.1-4.925 59.708-14.479a131.655 131.655 0 0 0 24.456-16.224 4 4 0 1 0-5.143-6.128zm-174.399-16.432a4 4 0 1 0-6.206 5.048 130.572 130.572 0 0 0 10.451 11.393 3.99 3.99 0 0 0 2.781 1.125 4 4 0 0 0 2.782-6.874 122.976 122.976 0 0 1-9.808-10.692zm-40.975-96.508a4 4 0 0 0 4.611-3.276c.301-1.781.641-3.572 1.011-5.324a4 4 0 1 0-7.828-1.65 142.097 142.097 0 0 0-1.07 5.64 3.998 3.998 0 0 0 3.276 4.61zm3.727-17.956a4.003 4.003 0 0 0 5.002-2.642 134.907 134.907 0 0 1 4.196-11.66c7.083-17.148 17.999-33.006 31.565-45.86a4 4 0 0 0-5.502-5.808c-14.378 13.623-25.947 30.433-33.457 48.613a142.465 142.465 0 0 0-4.447 12.355 4 4 0 0 0 2.643 5.002zm52.043-70.678c.81 0 1.627-.246 2.335-.755 15.51-11.175 33.64-19.045 52.43-22.761 20.784-4.108 42.608-3.115 63.115 2.874a133.81 133.81 0 0 1 35.723 16.453 4 4 0 1 0 4.377-6.697 141.822 141.822 0 0 0-37.857-17.436c-21.734-6.348-44.87-7.4-66.91-3.042-19.909 3.936-39.12 12.276-55.555 24.117a4.001 4.001 0 0 0 2.342 7.247z"/><path d="M449.177 115.083a3.999 3.999 0 0 0-5.028-2.164l-70.314 25.441a78.805 78.805 0 0 1-26.878 4.71c-17.07 0-33.437-5.361-47.332-15.503-21.604-15.761-48.23-24.441-74.974-24.441-19.964 0-39.967 4.853-57.848 14.033-42.921 22.038-69.338 65.721-68.943 114.003.217 26.73-12.67 51.626-34.474 66.597l-61.65 42.315a4 4 0 1 0 4.091 6.856l116.025-59.572c20.813 37.412 59.916 60.486 102.998 60.486 18.8 0 36.871-4.384 53.709-13.029 27.987-14.37 48.704-38.781 58.335-68.737 9.221-28.684 7.22-59.159-5.582-86.266l116.024-59.573a4 4 0 0 0 1.841-5.156zm-125.018 59.408a3.998 3.998 0 0 0-1.731 5.385c13.395 26.086 15.827 55.83 6.851 83.752s-28.287 50.676-54.373 64.069c-15.696 8.06-32.538 12.146-50.055 12.146-41.408 0-78.87-22.863-97.768-59.668a4 4 0 0 0-5.386-1.732L58.055 311.12l9.86-6.768c23.999-16.478 38.185-43.863 37.946-73.257-.371-45.241 24.382-86.172 64.597-106.821 16.994-8.726 35.228-13.15 54.193-13.15 25.062 0 50.013 8.134 70.258 22.904 15.273 11.148 33.271 17.041 52.047 17.041a86.755 86.755 0 0 0 29.6-5.188l11.246-4.069-63.643 32.679z"/><path d="M289.515 209.26a4 4 0 0 0-2.874 4.873c2.254 8.735 2.625 17.692 1.104 26.623a4 4 0 1 0 7.886 1.343c1.712-10.05 1.294-20.131-1.244-29.965a4.001 4.001 0 0 0-4.872-2.874zm-7.35 57.295a4 4 0 0 0-5.583.912 63.84 63.84 0 0 1-5 6.111 4 4 0 0 0 5.864 5.442 71.739 71.739 0 0 0 5.63-6.882 4 4 0 0 0-.911-5.583zm-28.271 20.408c-12.896 6.623-27.215 8.66-41.412 5.892a4 4 0 1 0-1.53 7.852 72.528 72.528 0 0 0 13.889 1.351c11.295 0 22.406-2.689 32.708-7.978a4 4 0 0 0-3.655-7.117zm-65.621-4.294a63.739 63.739 0 0 1-9.242-7.775 3.998 3.998 0 0 0-5.656-.053 3.998 3.998 0 0 0-.053 5.656 71.69 71.69 0 0 0 10.405 8.755 3.996 3.996 0 0 0 5.565-1.019 4 4 0 0 0-1.019-5.564zm93.292-114.223a4 4 0 0 0-1.381-3.506 85.763 85.763 0 0 0-55.536-20.429c-13.634 0-26.738 3.179-38.95 9.449-30.914 15.873-49.024 48.524-46.138 83.183a4.003 4.003 0 0 0 5.813 3.227l134.045-68.825a4.004 4.004 0 0 0 2.147-3.099zm-134.303 61.96c-.173-29.112 15.882-55.873 42.091-69.329 11.069-5.684 22.945-8.566 35.295-8.566a77.77 77.77 0 0 1 45.569 14.764l-122.955 63.131zm-17.246 11.502a4 4 0 0 0 3.99-4.332 91.075 91.075 0 0 1 2.234-28.948 4 4 0 0 0-7.778-1.874 99.068 99.068 0 0 0-2.429 31.486 4.002 4.002 0 0 0 3.983 3.668z"/><path d="M135.455 197.148a4 4 0 0 0 5.227-2.163c8.242-19.879 23.339-36.248 42.511-46.091 22.664-11.636 48.364-13.305 72.364-4.699a4 4 0 1 0 2.7-7.53c-25.728-9.227-54.419-7.363-78.718 5.112-20.855 10.708-37.279 28.517-46.246 50.144a4 4 0 0 0 2.162 5.227zm130.741-48.359a91.196 91.196 0 0 1 17.727 11.813 3.983 3.983 0 0 0 2.591.954 4 4 0 0 0 2.595-7.046 99.24 99.24 0 0 0-19.284-12.851c-1.971-1.003-4.377-.218-5.379 1.75s-.218 4.378 1.75 5.38zm55.115 12.29l-7.78 3.994a4 4 0 0 0 3.653 7.117l7.78-3.994a4 4 0 0 0-3.653-7.117zm-21.507 19.542c.615 0 1.239-.143 1.824-.443l3.59-1.843a4 4 0 0 0-3.654-7.116l-3.59 1.843a4 4 0 0 0 1.83 7.559zm-13.201-1.722l-88.562 45.472a4 4 0 0 0 3.655 7.118l88.562-45.472a4 4 0 0 0-3.655-7.118zm-99.333 51.002l-43.683 22.429a4 4 0 0 0 3.655 7.118l43.683-22.429a4 4 0 0 0-3.655-7.118zm-50.864 30.613a4.001 4.001 0 0 0-5.386-1.731l-12.566 6.452a4 4 0 0 0 3.655 7.118l12.566-6.452a4.002 4.002 0 0 0 1.731-5.387zm-31.7 41.27l-15.558 7.989a4 4 0 1 0 3.655 7.116l15.558-7.989a4 4 0 1 0-3.655-7.116zm-28.724 14.748l-42.485 21.814a4 4 0 0 0 3.655 7.118l42.485-21.814a4 4 0 0 0-3.655-7.118zm339.926-166.034c.615 0 1.239-.143 1.824-.443l11.369-5.838a4 4 0 0 0-3.654-7.116l-11.369 5.838a4 4 0 0 0 1.83 7.559zm-14.996 3.697a4 4 0 0 0-5.386-1.731l-5.386 2.765a4 4 0 0 0 3.655 7.118l5.386-2.765a4.003 4.003 0 0 0 1.731-5.387zm-21.542 6.564l-25.133 12.904a4 4 0 0 0 3.655 7.118l25.133-12.904a4 4 0 0 0-3.655-7.118zm-69.676 21.156l-173.535 89.101a4 4 0 0 0 3.655 7.118l10.794-5.542c15.237 26.592 43.309 42.954 74.212 42.956h.004c13.646 0 26.762-3.182 38.984-9.458 20.317-10.432 35.356-28.151 42.347-49.895 6.581-20.469 5.281-42.195-3.597-61.622l10.789-5.54a4 4 0 0 0-3.653-7.118zm-11.155 71.831c-6.336 19.709-19.968 35.771-38.385 45.226-11.082 5.69-22.967 8.575-35.33 8.575h-.004c-27.891-.001-53.243-14.693-67.097-38.609l137.716-70.71c7.906 17.522 9.026 37.084 3.1 55.518zm-262.88 15.992c11.124 0 20.174-9.05 20.174-20.174s-9.05-20.174-20.174-20.174c-11.124 0-20.173 9.05-20.173 20.174s9.049 20.174 20.173 20.174zm0-32.348c6.713 0 12.174 5.461 12.174 12.174s-5.461 12.174-12.174 12.174c-6.712 0-12.173-5.461-12.173-12.174s5.46-12.174 12.173-12.174zm386.552 34.052c-13.799 0-25.026 11.227-25.026 25.026s11.227 25.026 25.026 25.026 25.026-11.227 25.026-25.026-11.226-25.026-25.026-25.026zm0 42.052c-9.388 0-17.026-7.638-17.026-17.026s7.638-17.026 17.026-17.026 17.026 7.638 17.026 17.026-7.637 17.026-17.026 17.026z"/></svg>