<svg xmlns="http://www.w3.org/2000/svg" viewBox="0 0 421.781 421.781"><path d="M210.891 386.4c10.216 0 18.528-8.312 18.528-18.528s-8.312-18.528-18.528-18.528-18.528 8.312-18.528 18.528 8.311 18.528 18.528 18.528zm0-29.056c5.805 0 10.528 4.723 10.528 10.528s-4.723 10.528-10.528 10.528-10.528-4.723-10.528-10.528 4.722-10.528 10.528-10.528z"/><path d="M259.493 20.298C246.541 7.234 229.321.031 210.997.003h-.02l-.087-.002c-.052 0-.103.004-.155.004l-.075.002c-37.781.126-68.481 31.155-68.481 69.283v33.907c0 .056 64.879 217.396 64.879 217.396a.505.505 0 0 0 .006.02c.26.852-.319 1.722-1.21 1.722h-23.186a15.02 15.02 0 0 0-14.593 11.463l-14.665 60.163a11.704 11.704 0 0 0 4.977 12.567c.557.361 1.063.685 1.449.92a98.046 98.046 0 0 0 51.05 14.334 97.863 97.863 0 0 0 52.295-15.107l.102-.063a11.675 11.675 0 0 0 5.083-12.636l-14.669-60.179a15.019 15.019 0 0 0-14.592-11.462h-23.183c-.891 0-1.47-.87-1.21-1.722a.505.505 0 0 1 .006-.02s64.879-217.339 64.879-217.396V69.289c.005-18.512-7.137-35.91-20.104-48.991zm.424 372.783h-11.52l-6.623-47.884h6.471l11.672 47.884zm-26.224-47.884l6.623 47.884h-58.849l6.623-47.884h45.603zm-60.307 47.884h-11.525l11.672-47.884h6.476l-6.623 47.884zm-8.592 8h92.188a89.921 89.921 0 0 1-46.093 12.7 90.046 90.046 0 0 1-46.095-12.7zm81.134-65.39l.367 1.506h-70.813l.367-1.506a7.002 7.002 0 0 1 6.819-5.357h56.44a7.002 7.002 0 0 1 6.82 5.357zm25.674-266.402v20.833c-6.134-4.291-15.331-7.571-25.945-9.786v-20.88c0-19.17-7.735-37.001-21.195-49.91 11.029 2.529 21.157 8.122 29.35 16.385 11.472 11.572 17.79 26.97 17.79 43.358zM210.841 8.778c16.836 11.437 26.815 30.194 26.815 50.677v19.449c-8.581-1.295-17.748-1.961-26.766-1.961-9.053 0-18.255.671-26.865 1.975V59.455c.001-20.483 9.98-39.24 26.816-50.677zm60.06 96.175c-2.766 4.768-13.744 10.119-31.008 13.093l3.844-30.073c17.708 3.608 27.822 9.759 27.862 14.647l-.698 2.333zm-60.01 15.404c-7.539 0-14.484-.42-20.787-1.142l-4.167-32.599c7.36-1.048 15.716-1.673 24.954-1.673s17.595.625 24.954 1.673l-4.167 32.599c-6.304.723-13.248 1.142-20.787 1.142zm19.753 6.944L210.89 281.835l-19.754-154.534c6.473.697 13.153 1.057 19.754 1.057s13.281-.36 19.754-1.057zm-52.599-39.327l3.844 30.073c-17.264-2.974-28.242-8.325-31.008-13.093l-.698-2.333c.04-4.888 10.154-11.039 27.862-14.647zm4.888 38.243l19.157 149.867-47.329-158.163c7.31 3.772 17.221 6.558 28.172 8.296zm55.915 0c10.951-1.738 20.862-4.524 28.172-8.296l-47.329 158.163 19.157-149.867zM197.165 9.599c-13.425 12.904-21.139 30.712-21.139 49.856v20.901c-10.572 2.215-19.731 5.488-25.846 9.766V69.289c0-29.029 20.101-53.391 46.985-59.69z"/></svg>