<svg xmlns="http://www.w3.org/2000/svg" viewBox="0 0 312.103 312.103"><path d="M176.018 19.966c-75.038 0-136.085 61.047-136.085 136.085s61.048 136.085 136.085 136.085 136.085-61.048 136.085-136.085S251.055 19.966 176.018 19.966zm124.261 104.996l-22.499-1.282a3.998 3.998 0 0 0-3.054 6.823l7.51 7.504a6.971 6.971 0 0 1 2.058 5.283 6.972 6.972 0 0 1-2.505 5.09c-3.653 3.072-5.787 4.683-6.991 5.52-2.502-2.6-7.928-9.22-15.849-19.869l2.317-7.889a8.713 8.713 0 0 0-4.313-10.152l-31.488-16.458a4 4 0 0 0-3.117-.25l-16.802 5.597a.412.412 0 0 1-.381-.066l-7.203-5.6c-.047-.037-.173-.135-.158-.354a.393.393 0 0 1 .103-.25l23.65-9.68a4 4 0 0 0 .274-7.28l-16.519-8.259 9.453-12.493a16.926 16.926 0 0 1 13.911-6.678l8.011.224-3.093 2.857a4 4 0 0 0-.31 5.557l10.305 11.899a4 4 0 0 0 5.795.266l13.522-12.987c18.007 16.655 31.235 38.4 37.373 62.927zm-43.405 49.354a3.998 3.998 0 0 0 3.467 2.949l6.865.687.089.135-20.902 65.844a2.16 2.16 0 0 1-2.066 1.512h-9.432a2.168 2.168 0 0 1-2.128-1.758l-10.938-56.875a4 4 0 0 0-3.319-3.198l-20.329-3.131-14.311-32.585 28.614-13.285 35.524 6.459 8.866 33.246zm-6.437-122.453a129.34 129.34 0 0 1 6.408 4.904l-9.963 9.569-5.012-5.788c-.001.001 8.366-8.012 8.567-8.685zM140.058 35.219c.071.66.031 1.88-.928 2.976-.763.871-1.347 1.883-1.885 2.908l-13.581 25.871a4.7 4.7 0 0 1-4.017 2.513l-8.33.257c-2.495.077-5.043.729-7.575 1.937a3.98 3.98 0 0 1-3.027.141 3.85 3.85 0 0 1-2.225-2.028s-5.213-11.354-5.192-11.451c13.297-11.274 28.915-19.887 46.027-25.013a3.94 3.94 0 0 1 .733 1.889zm-69.355 48.02l-.395 8.635a11.533 11.533 0 0 0 10.405 12.012 11.653 11.653 0 0 1 8.285 4.741c1.842 2.532 2.499 5.559 1.849 8.524a14.016 14.016 0 0 1-1.938 4.637l-11.877 18.334c-4.927 7.604-6.923 16.787-5.766 25.668l-23.317-8.529c-.004-.404-.015-.806-.015-1.211-.002-27.027 8.421-52.122 22.769-72.811zm105.315 200.897c-67.308 0-122.657-52.187-127.709-118.223l26.988 9.871s21.17 31.134 23.359 35.329c1.415 2.711 11.932 28.97 11.932 28.97a23 23 0 0 1 1.165 3.828c1.456 6.742 7.777 25.58 33.543 32.021a4.01 4.01 0 0 0 4.731-2.506c.444-1.182.225-2.511-.427-3.592-18.101-30 4.417-52.269 5.378-53.197a4 4 0 0 0 1.235-3.042l-1.19-32.129a4 4 0 0 0-3.837-3.849l-28.746-1.15-19.364-11.391a3.992 3.992 0 0 0-2.853-.466l-20.188 4.25c-2.283-8.217-.95-17.196 3.71-24.389l11.877-18.334a21.987 21.987 0 0 0 3.039-7.276c1.128-5.153-.036-10.599-3.195-14.941a19.66 19.66 0 0 0-13.944-7.993c-1.876-.186-3.312-1.741-3.226-3.624l.918-20.039a129.1 129.1 0 0 1 7.752-8.182l4.286 9.117a11.846 11.846 0 0 0 6.775 6.157c1.301.464 2.669.694 4.034.694 1.766 0 3.526-.386 5.126-1.149 1.525-.728 2.999-1.118 4.378-1.161l8.33-.257a12.698 12.698 0 0 0 10.852-6.791l13.39-25.507c.383-.73.801-1.445 1.318-2.087a11.817 11.817 0 0 0 2.557-8.732 12.074 12.074 0 0 0-.783-3.138 128.02 128.02 0 0 1 28.788-3.263c24.323 0 47.084 6.816 66.474 18.637l-13.591-.379c-8.01-.212-15.678 3.458-20.514 9.848l-12.284 16.233c-.431.569-.751 1.229-.847 1.937a4.014 4.014 0 0 0 2.174 4.153l12.942 6.471s-16.164 6.628-16.313 6.712c-2.958 1.681-4.652 4.992-4.175 8.494.305 2.239 1.59 4.231 3.374 5.618l6.997 5.44a8.383 8.383 0 0 0 7.821 1.34l15.189-5.06 29.983 15.671a.691.691 0 0 1 .343.808s-2.673 9.233-2.716 9.569l-38.208-6.947a4.001 4.001 0 0 0-2.399.307l-33.319 15.469a4 4 0 0 0-1.978 5.236l16.769 38.183a4 4 0 0 0 3.054 2.345l19.712 3.036 10.405 54.107a10.183 10.183 0 0 0 9.985 8.247h9.432c4.45 0 8.344-2.85 9.691-7.091l20.902-65.844c.856-2.696.263-5.63-1.642-7.811-1.398-1.601-3.423-2.519-5.538-2.731l-3.849-.385-6.475-24.283c13.195 17.299 14.967 17.315 16.972 17.315 1.756 0 3.579-.564 12.55-8.109a15.084 15.084 0 0 0 5.349-10.87 15.072 15.072 0 0 0-4.396-11.285l-.084-.084 14.228.811a128.315 128.315 0 0 1 2.068 22.975c0 70.629-57.459 128.088-128.085 128.088zm-37.771-19.176c-13.574-6.561-17.636-18.63-18.792-23.374-.289-1.185-1.596-4.859-1.596-4.859l-9.814-24.089c-.662-1.804-2.995-6.804-4.906-9.513l-18.096-27.144 15.312-3.224 18.892 11.113a4.019 4.019 0 0 0 1.87.55l26.048 1.042.992 26.77c-4.777 5.391-20.547 25.993-9.91 52.728zM47.267 43.618c0-13.031-10.602-23.633-23.633-23.633S0 30.587 0 43.618s10.602 23.633 23.633 23.633 23.634-10.602 23.634-23.633zM23.633 59.251C15.013 59.251 8 52.238 8 43.618s7.013-15.633 15.633-15.633 15.633 7.013 15.633 15.633-7.013 15.633-15.633 15.633z"/></svg>