<svg xmlns="http://www.w3.org/2000/svg" viewBox="0 0 341.797 341.797"><path d="M303.297 109.149C303.297 48.964 243.903 0 170.899 0 97.894 0 38.501 48.964 38.501 109.149c0 15.659 3.933 30.775 11.688 44.927 6.589 12.025 8.033 26.471 4.075 40.709-4.999 11.492-3.534 24.133 4.037 34.729l61.416 85.951c11.958 16.735 30.613 26.333 51.182 26.333 20.567 0 39.223-9.598 51.181-26.333l61.417-85.951c7.57-10.595 9.035-23.236 4.036-34.728-3.957-14.239-2.513-28.685 4.075-40.708 7.756-14.154 11.689-29.27 11.689-44.929zm-103.631 86.587a37.226 37.226 0 0 0 2.022 9.499 21.1 21.1 0 0 0-3.167-.264c-.735 0-1.462.04-2.183.121a48.293 48.293 0 0 1 3.328-9.356zm12.517 12.884a29.2 29.2 0 0 1-4.633-15.832c0-3.771.707-7.437 2.085-10.911 6.75-6.485 15.58-11.129 26.426-13.841 4.84-1.21 9.364-1.858 13.474-1.944a29.47 29.47 0 0 1 16.989 26.696c0 6.444-2.043 12.528-5.889 17.638-2.769 1.956-5.881 3.42-9.343 4.043-4.084.735-8.04 1.108-11.76 1.108-11.29 0-18.993-3.339-25.789-6.286l-1.56-.671zm55.219-37.788c7.354 5.13 9.529 12.913 10.068 15.519a67.34 67.34 0 0 1-2.951 6.686c.001-.083.005-.165.005-.248-.001-8.063-2.597-15.694-7.122-21.957zm17.191-20.6c-3.329 6.076-5.522 12.673-6.557 19.535-5.447-6.404-14.206-11.693-27.566-11.693-5.007 0-10.508.741-16.349 2.201-14.217 3.554-24.022 9.897-30.762 16.599l-.019-.018c-.053.055-.093.12-.143.178a54.867 54.867 0 0 0-9.309 12.414c-6.019 11.001-6.461 20.645-6.477 21.05a4.002 4.002 0 0 0 5.723 3.766c1.822-.871 3.584-1.294 5.388-1.294 3.593 0 7.32 1.616 12.039 3.662 7.138 3.094 16.021 6.946 28.971 6.946 4.193 0 8.627-.416 13.178-1.235 13.809-2.485 22.82-14.409 27.819-23.537 3.487 8.733 2.256 17.944-3.541 26.056l-61.417 85.951c-10.437 14.607-26.719 22.984-44.671 22.984-17.953 0-34.235-8.377-44.672-22.984l-61.416-85.951c-5.852-8.188-7.051-17.493-3.443-26.299 4.972 9.158 14.023 21.272 27.953 23.78 4.551.819 8.984 1.235 13.178 1.235h.001c12.947 0 21.832-3.852 28.97-6.946 4.719-2.046 8.446-3.662 12.039-3.662 1.804 0 3.565.423 5.388 1.294a4.002 4.002 0 0 0 5.723-3.766c-.016-.405-.458-10.048-6.477-21.05-5.526-10.102-16.992-23.364-40.233-29.174-5.841-1.46-11.342-2.201-16.349-2.201-13.525 0-22.332 5.422-27.764 11.932-1.02-6.948-3.223-13.628-6.592-19.776-7.103-12.961-10.704-26.783-10.704-41.083C46.501 53.375 102.305 8 170.899 8c68.593 0 124.397 45.375 124.397 101.149.001 14.3-3.601 28.122-10.703 41.083zm-138.864 54.864a19.72 19.72 0 0 0-2.221-.125c-1.159 0-2.295.117-3.421.3a37.203 37.203 0 0 0 2.07-10.126 47.062 47.062 0 0 1 3.572 9.951zm-13.757-23.646a29.005 29.005 0 0 1 2.275 11.338 29.276 29.276 0 0 1-4.733 15.975c-.408.176-.815.35-1.226.529-6.796 2.946-14.499 6.286-25.789 6.286-3.72 0-7.676-.373-11.76-1.108-3.703-.667-7.003-2.309-9.918-4.484-3.623-5.04-5.548-10.971-5.548-17.198a29.467 29.467 0 0 1 16.997-26.7c4.17.067 8.77.717 13.699 1.949 11.723 2.931 20.062 7.889 26.003 13.413zm-64.69 11.1a67.5 67.5 0 0 1-2.721-6.201c.533-2.57 2.633-10.052 9.588-15.171a37.448 37.448 0 0 0-6.867 21.372z"/><path d="M148.888 293.491a4 4 0 1 0-2.806 7.491c7.687 2.88 17.439 4.467 27.462 4.467 10.02 0 19.768-1.586 27.447-4.467a4 4 0 0 0-2.808-7.49c-6.805 2.552-15.555 3.958-24.639 3.958-9.088-.001-17.844-1.407-24.656-3.959zm1.931-30.925a4 4 0 0 0 4-4c0-4.871 2.23-7.977 3.397-7.977s3.398 3.106 3.398 7.977-2.231 7.978-3.398 7.978a4 4 0 0 0 0 8c6.392 0 11.398-7.018 11.398-15.978 0-8.959-5.007-15.977-11.398-15.977s-11.397 7.018-11.397 15.977a4 4 0 0 0 4 4zm21.364-4c0 8.959 5.007 15.978 11.397 15.978a4 4 0 0 0 0-8c-1.167 0-3.397-3.107-3.397-7.978s2.23-7.977 3.397-7.977 3.397 3.106 3.397 7.977a4 4 0 0 0 8 0c0-8.959-5.007-15.977-11.397-15.977s-11.397 7.018-11.397 15.977zm84.846-211.649a4 4 0 0 0-5.166 6.108c11.253 9.517 19.754 22.531 23.937 36.646 4.337 14.637 3.979 29.604-1.037 43.281a4 4 0 0 0 7.512 2.754c11.288-30.79 1.144-66.472-25.246-88.789zm-12.798-10.118c-3.734-2.565-6.875-4.48-9.884-6.027a4 4 0 1 0-3.658 7.114c2.7 1.389 5.564 3.138 9.013 5.507a3.998 3.998 0 0 0 5.562-1.033 4 4 0 0 0-1.033-5.561z"/></svg>