<svg xmlns="http://www.w3.org/2000/svg" viewBox="0 0 315.829 315.829"><path d="M136.385 81.332a4 4 0 0 0 0 8c11.246 0 21.532 4.156 29.429 11h-35.448a4 4 0 0 0 0 8h42.714a44.753 44.753 0 0 1 7.552 17.849H92.12a44.416 44.416 0 0 1 4.094-12.153 4 4 0 0 0-7.137-3.615c-3.777 7.457-5.692 15.504-5.692 23.919v95.096c0 29.224 23.775 53 53 53s53-23.776 53-53v-95.096c0-29.224-23.776-53-53-53zm44.996 52.849c0 .051.004.1.004.151v17.699h-59.02a4 4 0 0 0 0 8h59.02v17.849h-90v-17.849h14a4 4 0 0 0 0-8h-14v-17.699c0-.051.004-.1.004-.151h89.992zm-74.425 129.247h58.857c-7.896 6.844-18.183 11-29.429 11s-21.531-4.156-29.428-11zm66.123-8H99.691a44.753 44.753 0 0 1-7.552-17.849h74.227a4 4 0 0 0 0-8H91.389c0-.051-.004-.1-.004-.151v-17.699h58.48a4 4 0 0 0 0-8h-58.48V185.88h90v17.849h-10.52a4 4 0 0 0 0 8h10.52v17.699c0 9.681-3.084 18.651-8.306 26z"/><path d="M136.385 64.332c-37.764 0-68.487 30.723-68.487 68.487v97.513c0 37.764 30.724 68.487 68.487 68.487a4 4 0 0 0 0-8c-33.353 0-60.487-27.134-60.487-60.487v-97.513c0-33.353 27.135-60.487 60.487-60.487s60.487 27.134 60.487 60.487v97.513a4 4 0 0 0 8 0v-97.513c0-37.764-30.724-68.487-68.487-68.487zM31.102 187.997c-8.822 0-15.999 7.177-15.999 16 0 8.822 7.177 15.999 15.999 15.999a4 4 0 0 0 0-8c-4.411 0-7.999-3.588-7.999-7.999s3.588-8 7.999-8 7.999 3.588 7.999 8a4 4 0 0 0 8 0c0-8.823-7.177-16-15.999-16zm12.146-96.49a4 4 0 0 0-4-4C22.018 87.507 8 73.489 8 56.258S22.018 25.01 39.248 25.01s31.248 14.018 31.248 31.248a4 4 0 0 0 8 0c0-21.642-17.606-39.248-39.248-39.248S0 34.617 0 56.258s17.606 39.249 39.248 39.249a4 4 0 0 0 4-4z"/><path d="M39.248 29.391a4 4 0 0 0 0 8c10.403 0 18.867 8.464 18.867 18.867 0 10.404-8.464 18.868-18.867 18.868s-18.867-8.464-18.867-18.868a4 4 0 0 0-8 0c0 14.815 12.053 26.868 26.867 26.868s26.867-12.053 26.867-26.868c0-14.814-12.052-26.867-26.867-26.867zm231 150.953c-25.134 0-45.582 20.448-45.582 45.582s20.448 45.582 45.582 45.582a4 4 0 0 0 0-8c-20.723 0-37.582-16.859-37.582-37.582s16.859-37.582 37.582-37.582 37.581 16.859 37.581 37.582a4 4 0 0 0 8 0c0-25.134-20.447-45.582-45.581-45.582z"/><path d="M270.248 193.164a4 4 0 0 0 0 8c13.653 0 24.762 11.108 24.762 24.762 0 13.653-11.108 24.761-24.762 24.761s-24.762-11.108-24.762-24.761a4 4 0 0 0-8 0c0 18.064 14.697 32.761 32.762 32.761s32.762-14.697 32.762-32.761c0-18.066-14.697-32.762-32.762-32.762z"/></svg>