<svg xmlns="http://www.w3.org/2000/svg" viewBox="0 0 361.768 361.768"><path d="M356.927 174.836a4.796 4.796 0 0 1-4.795-4.989c.029-.731.044-1.465.044-2.202a4.795 4.795 0 0 1 9.59 0c0 .866-.018 1.729-.053 2.589a4.792 4.792 0 0 1-4.786 4.602zm-129.434 83.593l-.076-.001a157.134 157.134 0 0 1-4.977-.156 4.797 4.797 0 0 1 .453-9.581c1.548.073 3.105.122 4.672.146a4.795 4.795 0 0 1 4.72 4.869 4.795 4.795 0 0 1-4.792 4.723zm16.875-.538a4.795 4.795 0 0 1-.359-9.577c1.569-.12 3.129-.26 4.68-.421a4.805 4.805 0 0 1 5.263 4.277 4.795 4.795 0 0 1-4.277 5.263c-1.636.169-3.281.317-4.936.443a4.23 4.23 0 0 1-.371.015zm-38.49-1.369c-.258 0-.518-.02-.78-.064a142.645 142.645 0 0 1-4.911-.89 4.796 4.796 0 0 1 1.872-9.406c1.506.3 3.05.579 4.588.831a4.794 4.794 0 0 1 3.958 5.507 4.798 4.798 0 0 1-4.727 4.022zm59.999-1.577a4.797 4.797 0 0 1-.932-9.5c1.542-.307 3.071-.635 4.587-.982a4.793 4.793 0 0 1 5.744 3.604 4.794 4.794 0 0 1-3.604 5.744c-1.604.368-3.222.714-4.854 1.039a4.665 4.665 0 0 1-.941.095zm-81.078-3.603c-.505 0-1.019-.08-1.524-.249a132.38 132.38 0 0 1-4.722-1.684 4.795 4.795 0 0 1 3.397-8.969c1.432.543 2.903 1.067 4.371 1.559a4.796 4.796 0 0 1-1.522 9.343zm102.055-2.003a4.796 4.796 0 0 1-1.544-9.336c1.487-.505 2.956-1.03 4.406-1.574a4.796 4.796 0 0 1 3.368 8.98 160.612 160.612 0 0 1-4.686 1.675 4.837 4.837 0 0 1-1.544.255zm-121.915-6.732a4.77 4.77 0 0 1-2.344-.615 105.308 105.308 0 0 1-4.349-2.58 4.796 4.796 0 0 1 5.093-8.127 96.122 96.122 0 0 0 3.952 2.345 4.795 4.795 0 0 1-2.352 8.977zm141.909-1.721a4.796 4.796 0 0 1-2.203-9.058 129.918 129.918 0 0 0 4.096-2.207 4.795 4.795 0 1 1 4.704 8.358 138.017 138.017 0 0 1-4.403 2.373 4.781 4.781 0 0 1-2.194.534zm-159.462-10.981a4.779 4.779 0 0 1-3.276-1.295 81.264 81.264 0 0 1-3.635-3.625 4.796 4.796 0 1 1 6.991-6.567 70.307 70.307 0 0 0 3.199 3.191 4.795 4.795 0 0 1-3.279 8.296zm177.818-.58a4.796 4.796 0 0 1-2.923-8.6 101.637 101.637 0 0 0 3.595-2.888 4.796 4.796 0 0 1 6.175 7.339 113.15 113.15 0 0 1-3.931 3.157 4.772 4.772 0 0 1-2.916.992zm15.672-14.966a4.795 4.795 0 0 1-3.694-7.85 77.732 77.732 0 0 0 2.79-3.584 4.796 4.796 0 0 1 7.74 5.664 88.119 88.119 0 0 1-3.137 4.029 4.783 4.783 0 0 1-3.699 1.741zm-206.772-1.502a4.797 4.797 0 0 1-4.242-2.551 58.827 58.827 0 0 1-2.25-4.744 4.796 4.796 0 1 1 8.843-3.715 48.853 48.853 0 0 0 1.883 3.968 4.796 4.796 0 0 1-4.234 7.042zm218.075-16.943a4.796 4.796 0 0 1-4.422-6.648 59.376 59.376 0 0 0 1.567-4.177 4.795 4.795 0 1 1 9.1 3.026 69.013 69.013 0 0 1-1.82 4.853 4.796 4.796 0 0 1-4.425 2.946zM163.718 66.552l-.061-.001c-.777-.009-1.557-.014-2.339-.014a4.795 4.795 0 0 1 0-9.59c.822 0 1.641.005 2.459.015a4.795 4.795 0 0 1-.059 9.59zm42.368 153.552a4.796 4.796 0 0 1-.613-9.551 141.15 141.15 0 0 0 4.615-.68 4.795 4.795 0 1 1 1.559 9.463c-1.628.268-3.289.513-4.936.728-.21.027-.419.04-.625.04zm21.243-4.455a4.795 4.795 0 0 1-1.356-9.396c1.488-.439 2.98-.91 4.434-1.398a4.796 4.796 0 0 1 3.055 9.091 136.109 136.109 0 0 1-4.774 1.506c-.453.134-.91.197-1.359.197zm20.195-7.938a4.796 4.796 0 0 1-2.164-9.078 99.948 99.948 0 0 0 4.064-2.168 4.794 4.794 0 0 1 6.532 1.823 4.794 4.794 0 0 1-1.823 6.532 112.234 112.234 0 0 1-4.452 2.377 4.798 4.798 0 0 1-2.157.514zm18.178-11.805a4.794 4.794 0 0 1-3.07-8.48 75.346 75.346 0 0 0 3.399-3.005 4.797 4.797 0 0 1 6.569 6.989 85.062 85.062 0 0 1-3.832 3.388 4.787 4.787 0 0 1-3.066 1.108zm14.434-16.106a4.795 4.795 0 0 1-4.037-7.377 53.018 53.018 0 0 0 2.223-3.821 4.796 4.796 0 0 1 8.487 4.467 62.675 62.675 0 0 1-2.627 4.516 4.791 4.791 0 0 1-4.046 2.215zm7.759-20.103a4.795 4.795 0 0 1-4.746-5.52c.218-1.428.364-2.879.436-4.315a4.803 4.803 0 0 1 5.027-4.552 4.796 4.796 0 0 1 4.552 5.027 52.27 52.27 0 0 1-.534 5.287 4.796 4.796 0 0 1-4.735 4.073zm-1.236-21.535a4.798 4.798 0 0 1-4.65-3.638 57.624 57.624 0 0 0-1.243-4.274 4.796 4.796 0 0 1 9.098-3.034 67.268 67.268 0 0 1 1.452 4.99 4.795 4.795 0 0 1-4.657 5.956zm-8.658-19.801a4.79 4.79 0 0 1-4.043-2.21 71.822 71.822 0 0 0-2.559-3.729 4.796 4.796 0 0 1 7.736-5.67 82.39 82.39 0 0 1 2.901 4.226 4.797 4.797 0 0 1-4.035 7.383zm-14.003-16.527a4.779 4.779 0 0 1-3.256-1.276 95.853 95.853 0 0 0-3.448-3.039 4.796 4.796 0 0 1 6.169-7.343 106.69 106.69 0 0 1 3.792 3.344 4.794 4.794 0 0 1-3.257 8.314zm-17.339-13.03a4.763 4.763 0 0 1-2.503-.709 124.148 124.148 0 0 0-4.005-2.352 4.796 4.796 0 0 1 4.701-8.36c1.467.825 2.92 1.679 4.32 2.538a4.794 4.794 0 0 1 1.579 6.595 4.793 4.793 0 0 1-4.092 2.288zm-19.363-9.789a4.782 4.782 0 0 1-1.821-.361 152.007 152.007 0 0 0-4.353-1.71 4.795 4.795 0 0 1-2.807-6.173 4.794 4.794 0 0 1 6.173-2.807c1.564.586 3.108 1.194 4.633 1.82a4.796 4.796 0 0 1-1.825 9.231zm-20.597-6.836c-.397 0-.801-.05-1.204-.154a165.74 165.74 0 0 0-4.559-1.109 4.796 4.796 0 0 1 2.136-9.35c1.622.371 3.229.762 4.822 1.174a4.796 4.796 0 0 1-1.195 9.439zm-21.317-4.103c-.205 0-.413-.013-.623-.04a174.701 174.701 0 0 0-4.669-.543 4.796 4.796 0 0 1 .982-9.54c1.651.17 3.292.361 4.921.572a4.797 4.797 0 0 1-.611 9.551zM4.795 198.918A4.795 4.795 0 0 1 0 194.123c0-.868.018-1.732.053-2.593.109-2.646 2.342-4.691 4.989-4.594a4.796 4.796 0 0 1 4.594 4.989c-.03.731-.045 1.463-.045 2.199a4.796 4.796 0 0 1-4.796 4.794zm3.099-18.956a4.794 4.794 0 0 1-4.551-6.309 69.013 69.013 0 0 1 1.82-4.853 4.796 4.796 0 0 1 8.848 3.702 59.376 59.376 0 0 0-1.567 4.177 4.799 4.799 0 0 1-4.55 3.283zm221.843-17.102a4.798 4.798 0 0 1-4.424-2.939 48.853 48.853 0 0 0-1.883-3.968 4.796 4.796 0 0 1 8.475-4.491 58.989 58.989 0 0 1 2.25 4.744 4.796 4.796 0 0 1-4.418 6.654zm-211.816-2.053a4.796 4.796 0 0 1-3.866-7.628 87.08 87.08 0 0 1 3.138-4.03 4.795 4.795 0 1 1 7.392 6.11 77.194 77.194 0 0 0-2.79 3.584 4.792 4.792 0 0 1-3.874 1.964zm14.884-15.751a4.796 4.796 0 0 1-3.09-8.465 113.15 113.15 0 0 1 3.931-3.157 4.795 4.795 0 1 1 5.839 7.609 101.637 101.637 0 0 0-3.595 2.888 4.783 4.783 0 0 1-3.085 1.125zm184.993-.195a4.784 4.784 0 0 1-3.496-1.512 70.823 70.823 0 0 0-3.199-3.191 4.795 4.795 0 1 1 6.555-7.001 81.264 81.264 0 0 1 3.635 3.625 4.797 4.797 0 0 1-3.495 8.079zM50.679 132.764a4.795 4.795 0 0 1-2.357-8.975 138.017 138.017 0 0 1 4.403-2.373 4.795 4.795 0 1 1 4.397 8.523 129.918 129.918 0 0 0-4.096 2.207 4.756 4.756 0 0 1-2.347.618zm150.291-1.549c-.87 0-1.75-.236-2.542-.732a96.122 96.122 0 0 0-3.952-2.345 4.795 4.795 0 1 1 4.696-8.362c1.478.83 2.942 1.698 4.349 2.58a4.796 4.796 0 0 1-2.551 8.859zm-130.601-7.569a4.797 4.797 0 0 1-1.684-9.286 160.612 160.612 0 0 1 4.686-1.675 4.796 4.796 0 0 1 3.088 9.08c-1.487.505-2.956 1.03-4.406 1.574a4.775 4.775 0 0 1-1.684.307zm111.146-2.006c-.565 0-1.139-.1-1.698-.312a119.397 119.397 0 0 0-4.371-1.559 4.796 4.796 0 0 1 3.046-9.094 132.38 132.38 0 0 1 4.722 1.684 4.795 4.795 0 0 1-1.699 9.281zm-90.354-4.215a4.797 4.797 0 0 1-1.066-9.471c1.604-.368 3.222-.714 4.854-1.039a4.797 4.797 0 0 1 1.874 9.406c-1.542.307-3.071.635-4.587.982a4.791 4.791 0 0 1-1.075.122zm69.489-1.727a4.73 4.73 0 0 1-.941-.094c-1.506-.3-3.05-.579-4.588-.831a4.794 4.794 0 0 1-3.958-5.507 4.791 4.791 0 0 1 5.507-3.958c1.646.269 3.299.568 4.911.89a4.796 4.796 0 0 1-.931 9.5zm-48.07-1.799a4.796 4.796 0 0 1-.486-9.566c1.635-.169 3.28-.317 4.935-.443a4.795 4.795 0 1 1 .729 9.563c-1.569.12-3.129.26-4.68.421a5.206 5.206 0 0 1-.498.025zm26.524-.819c-.076 0-.153-.002-.23-.005a146.932 146.932 0 0 0-4.672-.146 4.796 4.796 0 0 1-4.72-4.869c.042-2.649 2.281-4.751 4.869-4.72 1.669.026 3.328.078 4.977.156a4.797 4.797 0 0 1 4.564 5.017 4.798 4.798 0 0 1-4.788 4.567zm61.346 191.742c-.823 0-1.644-.005-2.462-.016a4.796 4.796 0 0 1 .126-9.589c.776.01 1.555.015 2.336.015a4.795 4.795 0 0 1 0 9.59zm-19.258-.981c-.164 0-.33-.009-.497-.026-1.651-.17-3.292-.361-4.921-.572a4.797 4.797 0 0 1 1.234-9.512c1.546.201 3.103.382 4.669.543a4.796 4.796 0 0 1-.485 9.567zm-21.425-3.518a4.81 4.81 0 0 1-1.072-.122 175.823 175.823 0 0 1-4.822-1.174 4.796 4.796 0 0 1 2.4-9.286c1.506.389 3.026.759 4.559 1.109a4.796 4.796 0 0 1-1.065 9.473zm-20.804-6.213a4.778 4.778 0 0 1-1.682-.306 157.56 157.56 0 0 1-4.633-1.82 4.796 4.796 0 0 1 3.645-8.871c1.432.589 2.884 1.159 4.353 1.71a4.796 4.796 0 1 1-1.683 9.287zm-19.702-9.111a4.771 4.771 0 0 1-2.346-.616 132.298 132.298 0 0 1-4.32-2.538 4.795 4.795 0 1 1 5.016-8.174c1.296.795 2.644 1.586 4.005 2.352a4.794 4.794 0 0 1 1.829 6.53 4.79 4.79 0 0 1-4.184 2.446zm-17.875-12.284a4.78 4.78 0 0 1-3.083-1.124 106.69 106.69 0 0 1-3.792-3.344 4.794 4.794 0 0 1-.262-6.776 4.793 4.793 0 0 1 6.776-.262 95.853 95.853 0 0 0 3.448 3.039 4.796 4.796 0 0 1-3.087 8.467zm-14.881-15.739a4.79 4.79 0 0 1-3.872-1.961 82.39 82.39 0 0 1-2.901-4.226 4.797 4.797 0 0 1 8.077-5.173c.8 1.25 1.661 2.504 2.559 3.729a4.796 4.796 0 0 1-3.863 7.631zM76.451 237.83a4.795 4.795 0 0 1-4.548-3.28 67.268 67.268 0 0 1-1.452-4.99 4.795 4.795 0 1 1 9.306-2.318A57.624 57.624 0 0 0 81 231.516a4.796 4.796 0 0 1-4.549 6.314zm-3.053-21.368a4.796 4.796 0 0 1-4.794-5.033 52.27 52.27 0 0 1 .534-5.287 4.795 4.795 0 1 1 9.481 1.447 42.952 42.952 0 0 0-.436 4.315 4.796 4.796 0 0 1-4.785 4.558zm5.801-20.734a4.796 4.796 0 0 1-4.24-7.03c.8-1.52 1.684-3.039 2.627-4.516a4.795 4.795 0 0 1 8.083 5.161 53.018 53.018 0 0 0-2.223 3.821 4.793 4.793 0 0 1-4.247 2.564zm13.254-17.079a4.796 4.796 0 0 1-3.285-8.29A85.062 85.062 0 0 1 93 166.971a4.795 4.795 0 1 1 6.135 7.371 75.346 75.346 0 0 0-3.399 3.005 4.774 4.774 0 0 1-3.283 1.302zm17.541-12.728a4.795 4.795 0 0 1-2.359-8.973 112.234 112.234 0 0 1 4.452-2.377 4.796 4.796 0 0 1 4.321 8.563 99.948 99.948 0 0 0-4.064 2.168 4.771 4.771 0 0 1-2.35.619zm19.839-8.757a4.797 4.797 0 0 1-1.527-9.342 136.109 136.109 0 0 1 4.774-1.506 4.796 4.796 0 0 1 2.714 9.198c-1.488.439-2.98.91-4.434 1.398a4.763 4.763 0 0 1-1.527.252zm21.061-5.205a4.796 4.796 0 0 1-.774-9.527c1.628-.268 3.289-.513 4.936-.728 2.622-.334 5.032 1.511 5.374 4.137a4.795 4.795 0 0 1-4.136 5.374c-1.541.201-3.094.43-4.615.68a4.87 4.87 0 0 1-.785.064zm142.639-58.521a4.774 4.774 0 0 1-2.762-.879c-.623-.44-1.253-.876-1.893-1.308a4.796 4.796 0 0 1 5.368-7.948c.695.47 1.381.944 2.058 1.422a4.794 4.794 0 0 1 1.15 6.683 4.79 4.79 0 0 1-3.921 2.03zM227.29 233.663a4.796 4.796 0 0 1-.24-9.584c1.536-.078 3.07-.18 4.6-.307a4.796 4.796 0 0 1 .79 9.558c-1.63.135-3.265.244-4.903.327a5.09 5.09 0 0 1-.247.006zm-16.648-.077c-.097 0-.194-.003-.291-.009a154.092 154.092 0 0 1-4.903-.372 4.795 4.795 0 1 1 .882-9.55c1.528.141 3.06.257 4.594.349a4.794 4.794 0 0 1-.282 9.582zm37.894-2.55a4.797 4.797 0 0 1-.934-9.499c1.497-.299 3.008-.628 4.49-.978a4.795 4.795 0 1 1 2.202 9.334c-1.589.375-3.209.728-4.814 1.048a4.68 4.68 0 0 1-.944.095zm-59.115-.277c-.327 0-.658-.034-.99-.104a141.676 141.676 0 0 1-4.807-1.097 4.795 4.795 0 0 1-3.506-5.805 4.792 4.792 0 0 1 5.805-3.506c1.468.362 2.975.706 4.48 1.022a4.795 4.795 0 0 1 3.707 5.679 4.8 4.8 0 0 1-4.689 3.811zm79.706-5.573a4.797 4.797 0 0 1-1.692-9.284 113.2 113.2 0 0 0 4.242-1.696 4.796 4.796 0 0 1 3.74 8.832 124.767 124.767 0 0 1-4.599 1.839 4.816 4.816 0 0 1-1.691.309zm-100.239-.497c-.58 0-1.17-.106-1.743-.33-1.537-.6-3.077-1.237-4.579-1.894a4.795 4.795 0 0 1-2.471-6.315 4.792 4.792 0 0 1 6.315-2.471c1.385.605 2.806 1.194 4.223 1.747a4.795 4.795 0 0 1-1.745 9.263zm119.458-8.897a4.796 4.796 0 0 1-2.534-8.87 96.754 96.754 0 0 0 3.064-1.986l.732-.501a4.796 4.796 0 0 1 5.43 7.906l-.777.531a103.592 103.592 0 0 1-3.389 2.197 4.77 4.77 0 0 1-2.526.723zm16.929-13.061a4.796 4.796 0 0 1-3.308-8.267 88.116 88.116 0 0 0 3.189-3.196 4.795 4.795 0 1 1 6.962 6.596 98.395 98.395 0 0 1-3.536 3.543 4.777 4.777 0 0 1-3.307 1.324zm13.543-16.518a4.795 4.795 0 0 1-4.074-7.318 67.818 67.818 0 0 0 2.21-3.852 4.794 4.794 0 0 1 6.482-1.991 4.794 4.794 0 0 1 1.991 6.482 76.357 76.357 0 0 1-2.526 4.405 4.79 4.79 0 0 1-4.083 2.274zm8.29-19.657a4.795 4.795 0 0 1-4.668-5.912c.341-1.424.629-2.872.857-4.305a4.795 4.795 0 1 1 9.471 1.507 66.844 66.844 0 0 1-1.001 5.03 4.797 4.797 0 0 1-4.659 3.68zm1.234-21.268a4.796 4.796 0 0 1-4.752-4.199 53.293 53.293 0 0 0-.722-4.307 4.796 4.796 0 0 1 9.386-1.972c.354 1.685.641 3.396.852 5.085a4.794 4.794 0 0 1-4.764 5.393zm-6.359-20.345a4.796 4.796 0 0 1-4.278-2.622 65.963 65.963 0 0 0-2.146-3.882 4.796 4.796 0 0 1 8.235-4.917 75.752 75.752 0 0 1 2.459 4.449 4.796 4.796 0 0 1-4.27 6.972zm-12.307-17.457a4.783 4.783 0 0 1-3.527-1.545 89.413 89.413 0 0 0-3.145-3.24 4.793 4.793 0 0 1-.071-6.781 4.793 4.793 0 0 1 6.781-.071 98.04 98.04 0 0 1 3.487 3.592 4.795 4.795 0 0 1-3.525 8.045zM42.54 110.794a4.794 4.794 0 0 1-2.689-8.768 118.17 118.17 0 0 1 2.075-1.373 4.795 4.795 0 0 1 5.212 8.05c-.644.417-1.282.84-1.915 1.268a4.784 4.784 0 0 1-2.683.823zm194.596 84.593a4.796 4.796 0 0 1-3.551-8.017 62.517 62.517 0 0 0 2.931-3.473 4.796 4.796 0 0 1 7.551 5.913 72.733 72.733 0 0 1-3.378 4.003 4.783 4.783 0 0 1-3.553 1.574zm11.656-18.529a4.795 4.795 0 0 1-4.474-6.519 45.738 45.738 0 0 0 1.391-4.204 4.796 4.796 0 1 1 9.241 2.569 55.625 55.625 0 0 1-1.682 5.081 4.797 4.797 0 0 1-4.476 3.073zm3.102-21.598a4.797 4.797 0 0 1-4.771-4.368 43.17 43.17 0 0 0-.618-4.355 4.795 4.795 0 1 1 9.414-1.832c.342 1.759.597 3.553.756 5.33a4.796 4.796 0 0 1-4.781 5.225zm-6.709-20.785a4.794 4.794 0 0 1-4.164-2.409 54.16 54.16 0 0 0-2.399-3.8 4.795 4.795 0 1 1 7.894-5.446 64.74 64.74 0 0 1 2.823 4.472 4.795 4.795 0 0 1-4.154 7.183zm-14.025-16.849a4.776 4.776 0 0 1-3.17-1.199 78.914 78.914 0 0 0-3.547-2.945 4.796 4.796 0 0 1 5.911-7.553 88.191 88.191 0 0 1 3.98 3.306 4.795 4.795 0 0 1-3.174 8.391zm-18.082-12.495a4.77 4.77 0 0 1-2.328-.606 129.652 129.652 0 0 0-4.166-2.219 4.796 4.796 0 0 1 4.355-8.545c1.506.768 3.012 1.57 4.475 2.384a4.794 4.794 0 0 1-2.336 8.986zm-153.587-3.98a4.796 4.796 0 0 1-2.063-9.128 147.375 147.375 0 0 1 4.608-2.092 4.795 4.795 0 1 1 3.812 8.8 135.617 135.617 0 0 0-4.302 1.953 4.751 4.751 0 0 1-2.055.467zm133.576-5.153c-.55 0-1.109-.095-1.655-.296a147.867 147.867 0 0 0-4.478-1.565 4.796 4.796 0 0 1 3.023-9.103c1.601.532 3.204 1.093 4.766 1.667a4.795 4.795 0 0 1-1.656 9.297zM80.006 93.229a4.795 4.795 0 0 1-1.402-9.381c1.601-.49 3.214-.957 4.837-1.401a4.795 4.795 0 1 1 2.531 9.251c-1.531.419-3.052.859-4.562 1.321-.467.143-.939.21-1.404.21zm91.935-3.383c-.343 0-.69-.037-1.038-.114a171.084 171.084 0 0 0-4.663-.96 4.795 4.795 0 1 1 1.803-9.419c1.65.316 3.293.654 4.928 1.015a4.795 4.795 0 0 1-1.03 9.478zm-70.522-1.66a4.796 4.796 0 0 1-.795-9.524c1.648-.279 3.304-.537 4.964-.772a4.796 4.796 0 0 1 1.344 9.496c-1.573.223-3.142.467-4.705.732a4.842 4.842 0 0 1-.808.068zm48.777-1.743a5.07 5.07 0 0 1-.459-.022c-1.581-.15-3.166-.279-4.753-.388a4.796 4.796 0 0 1-4.456-5.113 4.788 4.788 0 0 1 5.113-4.456c1.671.115 3.338.251 5.003.409a4.795 4.795 0 0 1-.448 9.57zm-26.896-.621a4.795 4.795 0 0 1-.228-9.585 194.62 194.62 0 0 1 5.014-.178 4.796 4.796 0 1 1 .217 9.589c-1.589.036-3.178.092-4.766.169-.08.003-.159.005-.237.005zM70.201 279.287a4.77 4.77 0 0 1-2.682-.824c-.694-.469-1.379-.943-2.054-1.42a4.795 4.795 0 1 1 5.532-7.834c.623.44 1.254.877 1.895 1.31a4.796 4.796 0 0 1-2.691 8.768zm-14.792-11.998a4.777 4.777 0 0 1-3.354-1.369 96.543 96.543 0 0 1-3.488-3.597 4.795 4.795 0 1 1 7.059-6.493 88.313 88.313 0 0 0 3.139 3.238 4.793 4.793 0 0 1-3.356 8.221zm-13.282-16.728a4.792 4.792 0 0 1-4.129-2.35 75.516 75.516 0 0 1-2.445-4.456 4.795 4.795 0 1 1 8.56-4.326 66.414 66.414 0 0 0 2.135 3.889 4.796 4.796 0 0 1-4.121 7.243zm-7.86-19.831a4.8 4.8 0 0 1-4.687-3.802 65.125 65.125 0 0 1-.866-5.069 4.796 4.796 0 0 1 9.511-1.237c.186 1.435.434 2.887.738 4.317a4.796 4.796 0 0 1-4.696 5.791zm-.593-21.296a4.795 4.795 0 0 1-4.745-5.53c.26-1.678.592-3.375.988-5.042a4.795 4.795 0 1 1 9.332 2.212 55.916 55.916 0 0 0-.842 4.298 4.798 4.798 0 0 1-4.733 4.062zm6.824-20.195a4.795 4.795 0 0 1-4.227-7.052 77.413 77.413 0 0 1 2.536-4.399 4.796 4.796 0 0 1 8.146 5.064 67.003 67.003 0 0 0-2.219 3.847 4.8 4.8 0 0 1-4.236 2.54zM53.1 171.991a4.794 4.794 0 0 1-3.474-8.1 97.733 97.733 0 0 1 3.544-3.538 4.795 4.795 0 1 1 6.599 6.959 88.109 88.109 0 0 0-3.194 3.188 4.783 4.783 0 0 1-3.475 1.491zm16.332-13.805a4.795 4.795 0 0 1-2.724-8.745l.814-.556a103.755 103.755 0 0 1 3.357-2.176 4.796 4.796 0 0 1 5.061 8.148c-1.032.641-3.793 2.484-3.793 2.484a4.775 4.775 0 0 1-2.715.845zm127.827-9.702c-.642 0-1.295-.13-1.921-.404a110.631 110.631 0 0 0-4.221-1.744 4.796 4.796 0 0 1 3.483-8.937c1.545.602 3.087 1.24 4.584 1.895a4.796 4.796 0 0 1-1.925 9.19zm-109.054-.534a4.797 4.797 0 0 1-1.874-9.212 125.435 125.435 0 0 1 4.598-1.84 4.796 4.796 0 0 1 3.387 8.973 113.216 113.216 0 0 0-4.242 1.698 4.777 4.777 0 0 1-1.869.381zm88.773-6.293c-.379 0-.766-.046-1.151-.14a132.86 132.86 0 0 0-4.482-1.022 4.795 4.795 0 1 1 1.972-9.386c1.608.338 3.225.707 4.805 1.096a4.795 4.795 0 0 1-1.144 9.452zm-68.428-.315a4.795 4.795 0 0 1-1.097-9.463c1.583-.373 3.203-.726 4.812-1.048a4.796 4.796 0 0 1 1.881 9.405c-1.503.3-3.014.63-4.492.978a4.918 4.918 0 0 1-1.104.128zm47.314-3.211c-.148 0-.296-.007-.445-.02a143.394 143.394 0 0 0-4.596-.349 4.794 4.794 0 0 1-4.5-5.073c.158-2.644 2.443-4.65 5.073-4.5 1.637.098 3.271.221 4.901.371a4.796 4.796 0 0 1-.433 9.571zm-26.168-.117a4.795 4.795 0 0 1-.39-9.575 153.82 153.82 0 0 1 4.904-.327c2.63-.143 4.897 1.902 5.031 4.548a4.796 4.796 0 0 1-4.548 5.031c-1.535.077-3.069.18-4.599.306a4.43 4.43 0 0 1-.398.017zm187.546 123.872a4.795 4.795 0 0 1-2.612-8.82c.643-.417 1.282-.839 1.915-1.267a4.794 4.794 0 0 1 6.659 1.284 4.794 4.794 0 0 1-1.284 6.659c-.685.464-1.377.922-2.074 1.374a4.785 4.785 0 0 1-2.604.77zm-83.678 23.812a4.795 4.795 0 0 1-.115-9.589c1.59-.039 3.181-.097 4.769-.176a4.796 4.796 0 0 1 .475 9.579c-1.669.083-3.339.145-5.01.186h-.119zm-17.111-.36c-.108 0-.217-.004-.326-.011a185.607 185.607 0 0 1-5.008-.404 4.796 4.796 0 0 1-4.323-5.226c.249-2.637 2.603-4.56 5.226-4.323 1.579.149 3.163.277 4.749.383a4.797 4.797 0 0 1 4.464 5.106 4.799 4.799 0 0 1-4.782 4.475zm39.042-1.44a4.796 4.796 0 0 1-.666-9.544 175.75 175.75 0 0 0 4.707-.731 4.795 4.795 0 0 1 1.6 9.456 182.11 182.11 0 0 1-4.962.77 4.761 4.761 0 0 1-.679.049zm-60.872-1.362c-.3 0-.604-.028-.909-.087-1.65-.316-3.293-.655-4.927-1.017a4.795 4.795 0 1 1 2.073-9.364c1.546.342 3.1.663 4.661.962a4.795 4.795 0 0 1-.898 9.506zm82.43-3.058a4.796 4.796 0 0 1-1.258-9.423c1.531-.418 3.052-.857 4.562-1.318a4.795 4.795 0 1 1 2.799 9.173c-1.602.489-3.215.955-4.839 1.397a4.766 4.766 0 0 1-1.264.171zm-103.735-2.477c-.502 0-1.013-.08-1.517-.247a156.612 156.612 0 0 1-4.763-1.671 4.795 4.795 0 1 1 3.318-8.998c1.48.546 2.973 1.068 4.478 1.57a4.795 4.795 0 0 1-1.516 9.346zm124.51-4.77a4.796 4.796 0 0 1-1.906-9.198 134.993 134.993 0 0 0 4.302-1.952 4.794 4.794 0 0 1 6.389 2.274 4.794 4.794 0 0 1-2.274 6.389 143.32 143.32 0 0 1-4.609 2.091 4.771 4.771 0 0 1-1.902.396zm-144.824-3.693a4.776 4.776 0 0 1-2.175-.525 137.2 137.2 0 0 1-4.476-2.388 4.795 4.795 0 0 1 4.672-8.376c1.355.756 2.755 1.503 4.162 2.221a4.795 4.795 0 0 1-2.183 9.068zm-18.634-11.677a4.77 4.77 0 0 1-2.951-1.019 87.224 87.224 0 0 1-3.981-3.306 4.795 4.795 0 1 1 6.344-7.192 78.525 78.525 0 0 0 3.546 2.944 4.794 4.794 0 0 1 .822 6.731 4.783 4.783 0 0 1-3.78 1.842zm-15.164-15.837a4.788 4.788 0 0 1-3.951-2.073 64.628 64.628 0 0 1-2.822-4.47 4.796 4.796 0 0 1 8.316-4.778 54.154 54.154 0 0 0 2.401 3.801 4.795 4.795 0 0 1-3.944 7.52zm-8.655-20.076a4.797 4.797 0 0 1-4.702-3.88 52.617 52.617 0 0 1-.756-5.33 4.796 4.796 0 0 1 4.348-5.205 4.794 4.794 0 0 1 5.205 4.348 43.17 43.17 0 0 0 .618 4.355 4.795 4.795 0 0 1-4.713 5.712zm.888-21.797a4.796 4.796 0 0 1-4.624-6.079 55.475 55.475 0 0 1 1.682-5.084 4.795 4.795 0 1 1 8.95 3.446 45.89 45.89 0 0 0-1.39 4.202 4.797 4.797 0 0 1-4.618 3.515zm10.03-19.437a4.795 4.795 0 0 1-3.772-7.752 73.593 73.593 0 0 1 3.376-4.002 4.795 4.795 0 1 1 7.106 6.44 63.481 63.481 0 0 0-2.932 3.475 4.783 4.783 0 0 1-3.778 1.839zm61.853 31.165a4.796 4.796 0 0 1-.208-9.587 50.13 50.13 0 0 0 4.358-.383 4.796 4.796 0 0 1 1.261 9.507c-1.707.227-3.455.38-5.195.457a3.948 3.948 0 0 1-.216.006zm-16.61-1.831a4.83 4.83 0 0 1-1.283-.175 51.022 51.022 0 0 1-5.021-1.672 4.796 4.796 0 0 1 3.507-8.927c1.306.513 2.676.969 4.073 1.356a4.796 4.796 0 0 1-1.276 9.418zm37.332-3.56a4.794 4.794 0 0 1-4.23-2.53 4.794 4.794 0 0 1 1.959-6.492 32.06 32.06 0 0 0 3.531-2.198 4.796 4.796 0 0 1 5.606 7.782 41.753 41.753 0 0 1-4.604 2.867 4.757 4.757 0 0 1-2.262.571zm-55.605-7.317a4.783 4.783 0 0 1-3.67-1.706 27.308 27.308 0 0 1-3.259-4.804 4.794 4.794 0 0 1 1.995-6.481 4.793 4.793 0 0 1 6.481 1.995 17.743 17.743 0 0 0 2.119 3.112 4.796 4.796 0 0 1-3.666 7.884zm69.309-8.515a4.795 4.795 0 0 1-4.673-5.891 12.677 12.677 0 0 0 .324-3.448 4.795 4.795 0 1 1 9.581-.431 22.299 22.299 0 0 1-.568 6.067 4.796 4.796 0 0 1-4.664 3.703zm-72.457-11.601a4.795 4.795 0 0 1-4.342-6.826 26.555 26.555 0 0 1 3.055-4.98 4.797 4.797 0 0 1 7.589 5.865 16.924 16.924 0 0 0-1.954 3.174 4.796 4.796 0 0 1-4.348 2.767zm65.337-7.634c-1.134 0-2.274-.4-3.187-1.214A27.229 27.229 0 0 0 204.59 167a32.673 32.673 0 0 0-3.607-2.11 4.795 4.795 0 1 1 4.314-8.566 42.428 42.428 0 0 1 4.667 2.731 36.826 36.826 0 0 1 3.855 2.988 4.794 4.794 0 0 1 .392 6.77 4.782 4.782 0 0 1-3.583 1.608zm-49.405-6.212a4.796 4.796 0 0 1-1.858-9.218 50.404 50.404 0 0 1 4.99-1.787 4.795 4.795 0 1 1 2.76 9.186 40.738 40.738 0 0 0-4.037 1.444 4.778 4.778 0 0 1-1.855.375zm25.879-3.432a5.04 5.04 0 0 1-.546-.031 50.656 50.656 0 0 0-4.367-.303 4.795 4.795 0 0 1-4.669-4.918c.068-2.647 2.231-4.764 4.918-4.669 1.736.045 3.485.166 5.198.361a4.796 4.796 0 0 1-.534 9.56z"/></svg>