<svg xmlns="http://www.w3.org/2000/svg" viewBox="0 0 354.105 354.105"><path d="M339.474 122.371a14.53 14.53 0 0 0-6.63 1.605v-6.907c0-1.25-.584-2.429-1.58-3.185l-22.147-16.832a4.002 4.002 0 0 0-6.42 3.185v3.382l-8.64-6.566a4.002 4.002 0 0 0-6.42 3.185v3.865c-19.495-17.869-56.661-27.248-108.596-27.248-15.869 0-32.347 1.96-48.641 5.123L46.381 58.96c-5.281-1.453-10.802.461-14.049 4.882-3.246 4.42-3.424 10.255-.455 14.864l17.737 27.54a619.845 619.845 0 0 0-32.046 13.648C10.802 123 6.6 129.555 6.599 137.001c0 7.447 4.203 14.004 10.968 17.11a621.318 621.318 0 0 0 20.555 8.991 37.444 37.444 0 0 1-4.795 36.831c-10.114 13.355-19.316 25.329-27.351 35.59a28.147 28.147 0 0 0-5.571 22.093 27.863 27.863 0 0 0 12.499 18.771c10.793 6.84 24.116 12.851 39.597 17.866a28.002 28.002 0 0 0 8.642 1.37 27.942 27.942 0 0 0 14.819-4.261 27.954 27.954 0 0 0 12.895-19.847c2.678-19.03 4.844-35.036 6.438-47.576a23.251 23.251 0 0 1 8.641-15.357 37.711 37.711 0 0 0 24.881 26.513 3.994 3.994 0 0 0 4.062-.728 3.994 3.994 0 0 0 1.364-3.011c0-.74-.204-1.482-.617-2.136-3.005-4.972-8.016-15.744-8.29-25.051 1.971.246 3.939.491 5.915.739 28.408 3.567 57.782 7.256 75.427 5.51 8.079-.794 15.409-6.313 22.369-16.831 30.396-4.904 48.191-14.213 58.59-23.717v3.894a3.998 3.998 0 0 0 3.999 4c.859 0 1.712-.276 2.421-.815l8.64-6.566v3.382a3.998 3.998 0 0 0 3.999 4c.859 0 1.712-.276 2.421-.815l22.147-16.832a3.998 3.998 0 0 0 1.58-3.185v-6.907a14.517 14.517 0 0 0 6.63 1.605c8.067 0 14.631-6.563 14.631-14.63s-6.564-14.63-14.631-14.63zM36.8 134.002h250.837v6H36.8c.102-.992.159-1.993.159-3s-.057-2.008-.159-3zm250.837-18.073v10.073H34.807a29.026 29.026 0 0 0-2.064-4.124c36.353-15.788 94.819-37.023 146.298-37.023 54.947 0 93.406 11.028 108.596 31.074zM38.603 74.374c-1.769-2.746-.312-5.131.178-5.797.488-.667 2.329-2.77 5.479-1.904l69.182 19.025c-19.959 4.869-39.196 11.204-56.2 17.615L38.603 74.374zm-24.004 62.628c0-4.348 2.358-8.025 6.309-9.839a586.204 586.204 0 0 1 4.414-2.004c2.349 3.477 3.638 7.584 3.638 11.843s-1.289 8.367-3.638 11.844a630.501 630.501 0 0 1-4.416-2.004c-3.95-1.815-6.307-5.492-6.307-9.84zm96.642 67.653a23.225 23.225 0 0 1 6.078-1.113c.019 6.454 1.854 13.003 3.914 18.334a29.713 29.713 0 0 1-9.992-17.221zm94.651-2.196c-16.746 1.658-45.672-1.973-73.644-5.486-3.299-.414-10.216-1.268-10.216-1.268a31.243 31.243 0 0 0-16.881 2.765c-9.789 4.608-16.441 13.756-17.793 24.465-1.59 12.502-3.751 28.472-6.424 47.466a19.972 19.972 0 0 1-9.213 14.179 19.932 19.932 0 0 1-16.754 2.064c-14.844-4.809-27.555-10.533-37.779-17.013-4.774-3.028-7.935-7.778-8.899-13.373a20.139 20.139 0 0 1 3.986-15.803c8.061-10.294 17.289-22.303 27.429-35.691a45.443 45.443 0 0 0 8.054-37.745c36.66 14.539 86.424 30.13 131.283 30.13 14.618 0 27.497-.735 38.856-2.034-3.997 4.527-7.962 6.947-12.005 7.344zm-26.851-13.31c-51.445 0-109.928-21.236-146.298-37.024a29.02 29.02 0 0 0 2.063-4.124h252.83v10.073c-15.195 20.047-53.653 31.075-108.595 31.075zm116.596-23.448v-57.399l7.06 5.365v46.67l-7.06 5.364zm29.207-10.752l-14.147 10.752v-57.399l14.147 10.752v35.895zm14.63-11.317a6.639 6.639 0 0 1-6.63-6.63 6.639 6.639 0 0 1 6.63-6.631 6.639 6.639 0 0 1 6.631 6.631 6.639 6.639 0 0 1-6.631 6.63z"/><path d="M145.023 121.448c7.823 0 14.188-6.364 14.188-14.188s-6.364-14.188-14.188-14.188-14.188 6.364-14.188 14.188 6.365 14.188 14.188 14.188zm0-20.375c3.412 0 6.188 2.775 6.188 6.188s-2.775 6.188-6.188 6.188-6.188-2.775-6.188-6.188 2.776-6.188 6.188-6.188zm44.737 20.375c7.823 0 14.188-6.364 14.188-14.188s-6.364-14.188-14.188-14.188-14.188 6.364-14.188 14.188 6.365 14.188 14.188 14.188zm0-20.375c3.412 0 6.188 2.775 6.188 6.188s-2.775 6.188-6.188 6.188-6.188-2.775-6.188-6.188 2.776-6.188 6.188-6.188zm44.737 20.375c7.823 0 14.188-6.364 14.188-14.188s-6.364-14.188-14.188-14.188-14.188 6.364-14.188 14.188 6.365 14.188 14.188 14.188zm0-20.375c3.412 0 6.188 2.775 6.188 6.188s-2.775 6.188-6.188 6.188-6.188-2.775-6.188-6.188 2.776-6.188 6.188-6.188zM62.893 199.701c-4.345 0-8.447 1.757-11.553 4.946l-20.287 20.836a27.453 27.453 0 0 0 8.653 44.293c3.529 1.546 7.236 2.329 11.021 2.33h.002c14.822 0 26.868-11.616 27.424-26.445l1.09-29.06c.168-4.481-1.412-8.686-4.449-11.839a16.612 16.612 0 0 0-11.901-5.061zm7.265 45.661c-.394 10.512-8.929 18.745-19.432 18.744-2.672 0-5.3-.559-7.81-1.658-5.931-2.598-10.044-7.732-11.285-14.087s.638-12.659 5.154-17.298l20.287-20.836c2.033-2.088 4.287-2.526 5.82-2.526 2.303 0 4.539.952 6.138 2.611 1.072 1.113 2.327 3.056 2.217 5.988l-1.089 29.062z"/></svg>