<svg xmlns="http://www.w3.org/2000/svg" viewBox="0 0 400.226 400.226"><path d="M399.054 326.783l-30.627-30.627a4.002 4.002 0 0 0-5.658 0l-15.165 15.165-3.532-3.531 15.166-15.166a4 4 0 0 0 0-5.656l-30.627-30.627a4 4 0 0 0-5.657 0l-15.165 15.165-3.531-3.531 15.165-15.165a4 4 0 0 0 0-5.656l-30.627-30.628a4.002 4.002 0 0 0-5.658 0l-15.165 15.165-7.145-7.146 54.792-54.792a3.991 3.991 0 0 0 1.13-2.258l8.921-61.916a3.998 3.998 0 0 0-1.13-3.398l-26.498-26.497a4 4 0 0 0-3.399-1.131l-61.916 8.921a3.999 3.999 0 0 0-2.258 1.131l-54.792 54.792-7.146-7.146 15.165-15.166a4 4 0 0 0 0-5.656L153.07 80.802a4.002 4.002 0 0 0-5.658 0l-15.165 15.165-3.531-3.531 15.165-15.165a4 4 0 0 0 0-5.656l-30.627-30.628a4.002 4.002 0 0 0-5.658 0L92.435 56.152l-3.531-3.531 15.165-15.165a4 4 0 0 0 0-5.656L73.442 1.172a3.999 3.999 0 0 0-5.657 0L52.621 16.336l-7.125-7.125a4 4 0 1 0-5.657 5.656l7.126 7.126-24.97 24.97-7.125-7.125a4 4 0 1 0-5.657 5.656l7.126 7.126L1.171 67.785a4 4 0 0 0 0 5.656l30.627 30.627a3.989 3.989 0 0 0 2.829 1.172 3.992 3.992 0 0 0 2.829-1.172L52.62 88.904l3.531 3.532-15.165 15.165a4 4 0 0 0 0 5.656l30.627 30.627a3.989 3.989 0 0 0 2.829 1.172 3.992 3.992 0 0 0 2.829-1.172l15.165-15.165 3.531 3.532-15.165 15.165a4 4 0 0 0 0 5.656l30.627 30.627a4.002 4.002 0 0 0 5.658 0l15.165-15.165 7.145 7.145-15.165 15.165a4 4 0 0 0 0 5.656l18.113 18.113-29.578 8.318a4 4 0 0 0-1.745 6.679l59.593 59.593a4 4 0 0 0 6.679-1.744l8.325-29.573 18.107 18.107a4.002 4.002 0 0 0 5.658 0l15.165-15.165 7.145 7.146-15.165 15.165a4 4 0 0 0 0 5.656l30.627 30.627a3.989 3.989 0 0 0 2.829 1.172 3.992 3.992 0 0 0 2.829-1.172l15.165-15.165 3.531 3.531-15.165 15.165a4 4 0 0 0 0 5.656l30.627 30.627c.781.781 1.805 1.172 2.829 1.172s2.047-.391 2.829-1.172l15.165-15.165 3.532 3.531-15.166 15.166a4 4 0 0 0 0 5.656l30.627 30.627a4.002 4.002 0 0 0 5.658 0l15.165-15.165 7.125 7.125c.781.781 1.805 1.172 2.829 1.172s2.047-.391 2.829-1.172a4 4 0 0 0 0-5.656l-7.126-7.125 24.97-24.971 7.125 7.125a3.989 3.989 0 0 0 2.829 1.172 3.988 3.988 0 0 0 2.828-1.172 3.997 3.997 0 0 0 0-5.656l-7.125-7.126 15.165-15.165a4.002 4.002 0 0 0-.006-5.654zm-181.205-70.571l-18.01-18.01 47.138-47.139c5.051-5.05 7.832-11.765 7.832-18.907s-2.781-13.857-7.832-18.907c-5.05-5.051-11.765-7.833-18.908-7.833-7.142 0-13.857 2.782-18.908 7.833l-47.138 47.138-18.01-18.01 77.802-77.802 73.835 73.835-77.801 77.802zm-49.972-50.366l46.941-46.94c3.54-3.539 8.245-5.489 13.25-5.489s9.711 1.95 13.251 5.489c3.539 3.54 5.488 8.245 5.488 13.251s-1.949 9.711-5.489 13.251l-46.94 46.94-26.501-26.502zm139.259-38.921l-5.829 5.829-73.835-73.835 5.829-5.829 73.835 73.835zm10.333-60.504l-7.496 52.027-68.196-68.195 52.027-7.496 23.665 23.664zM34.627 95.583l-24.97-24.97L70.614 9.657l24.97 24.97-60.957 60.956zm23.65-12.336l24.97-24.97 3.531 3.531-24.97 24.97-3.531-3.531zm16.165 52.151l-24.97-24.97 60.957-60.957 24.97 24.971-60.957 60.956zm23.65-12.335l24.971-24.97 3.531 3.531-24.971 24.971-3.531-3.532zm16.165 52.151l-24.97-24.97 60.957-60.957 24.97 24.97-60.957 60.957zm23.65-12.336l24.97-24.97 7.146 7.146-24.97 24.97-7.146-7.146zm33.535 115.841l-49.935-49.935 27.323-7.684 30.301 30.301-7.689 27.318zm35.11-11.21l-73.836-73.836 5.64-5.64 73.836 73.836-5.64 5.64zm23.651-12.337l24.97-24.97 7.145 7.146-24.97 24.97-7.145-7.146zm19.778 55.766l-24.97-24.97 60.957-60.957 24.97 24.971-60.957 60.956zm23.65-12.336l24.971-24.971 3.531 3.531-24.971 24.971-3.531-3.531zm16.165 52.151l-24.97-24.97 60.957-60.957 24.971 24.97-60.958 60.957zm23.65-12.336l24.971-24.971 3.532 3.531-24.971 24.971-3.532-3.531zm16.166 52.151l-24.97-24.97 60.957-60.957 24.97 24.97-60.957 60.957z"/></svg>