<svg xmlns="http://www.w3.org/2000/svg" viewBox="0 0 401.294 401.294"><path d="M115.342 188.015c-7.025 0-12.741 5.716-12.741 12.741s5.716 12.741 12.741 12.741c7.026 0 12.742-5.716 12.742-12.741s-5.716-12.741-12.742-12.741zm0 17.482c-2.614 0-4.741-2.127-4.741-4.741s2.127-4.741 4.741-4.741c2.615 0 4.742 2.127 4.742 4.741s-2.127 4.741-4.742 4.741z"/><path d="M397.294 164.141a4 4 0 0 0 4-4V89.215a4 4 0 0 0-4-4h-33.219a4 4 0 0 0-4 4v70.926a4 4 0 0 0 4 4h12.61v8.999H340.48a34.647 34.647 0 0 0-20.986-7.094c-17.762 0-32.434 13.455-34.376 30.706h-3.421v-9.79a4 4 0 0 0-4-4h-28.993l-6.173-11.125a4 4 0 0 0-3.498-2.059H199.52v-6.524h16.196a4 4 0 0 0 4-4V73.281a4 4 0 0 0-4-4H175.45a4 4 0 0 0-4 4v85.972a4 4 0 0 0 4 4h16.069v6.524h-38.468a4 4 0 0 0-4 4v22.974h-4.52c-1.97-15.047-14.865-26.705-30.44-26.705a30.675 30.675 0 0 0-25.326 13.331 30.673 30.673 0 0 0-25.326-13.331H44.653v-5.905h6.324a4 4 0 0 0 4-4V89.215a4 4 0 0 0-4-4H17.758a4 4 0 0 0-4 4v70.926a4 4 0 0 0 4 4h6.325v5.905H4a4 4 0 0 0-4 4v53.419a4 4 0 0 0 4 4h20.083v5.905h-6.325a4 4 0 0 0-4 4v70.927a4 4 0 0 0 4 4h33.219a4 4 0 0 0 4-4V241.37a4 4 0 0 0-4-4h-6.325v-5.905h18.789a30.675 30.675 0 0 0 25.326-13.331 30.679 30.679 0 0 0 25.326 13.331c15.578 0 28.476-11.663 30.441-26.714h4.518v22.765a4 4 0 0 0 4 4h38.468v6.524h-16.069a4 4 0 0 0-4 4v85.972a4 4 0 0 0 4 4h40.266a4 4 0 0 0 4-4V242.04a4 4 0 0 0-4-4h-16.196v-6.524h39.513a4.002 4.002 0 0 0 3.498-2.059l6.173-11.125h28.993a4 4 0 0 0 4-4v-9.581h3.447c2.037 17.151 16.66 30.497 34.35 30.497a34.653 34.653 0 0 0 20.978-7.087h36.214v9.209h-12.61a4 4 0 0 0-4 4v70.927a4 4 0 0 0 4 4h33.219a4 4 0 0 0 4-4V241.37a4 4 0 0 0-4-4h-12.609v-9.209h12.435a4 4 0 0 0 4-4V177.14a4 4 0 0 0-4-4h-12.435v-8.999h12.607zm-197.773-8.888v-13.221h12.196v13.221h-12.196zm-8-42.986h-12.069V98.502h12.069v13.765zm8-13.765h12.196v13.765h-12.196V98.502zm-8 21.765v13.765h-12.069v-13.765h12.069zm8 0h12.196v13.765h-12.196v-13.765zm12.196-29.765h-12.196V77.281h12.196v13.221zm-20.196-13.221v13.221h-12.069V77.281h12.069zm-12.07 77.972v-13.221h12.069v13.221h-12.069zM24.689 223.466v-45.419h22.038v45.419H24.689zm30.038-45.42h6.641v45.419h-6.641v-45.419zm-7.75-49.368v9.956H21.758v-9.956h25.219zm-25.219-8v-9.957h25.219v9.957H21.758zm25.219-27.463v9.507H21.758v-9.507h25.219zm-25.219 53.419h25.219v9.507H21.758v-9.507zm10.325 17.507h4.569v5.905h-4.569v-5.905zM8 178.046h8.689v45.419H8v-45.419zm13.758 94.788v-9.956h25.219v9.956H21.758zm25.219 8v9.956H21.758v-9.956h25.219zm-25.219 27.464v-9.507h25.219v9.507H21.758zm25.219-53.42H21.758v-9.507h25.219v9.507zm-10.325-17.507h-4.569v-5.905h4.569v5.905zm32.716-14.704v-43.822a22.656 22.656 0 0 1 15.31 13.918v15.987a22.657 22.657 0 0 1-15.31 13.917zm44.725.799a22.676 22.676 0 0 1-21.415-15.184v-15.05a22.675 22.675 0 0 1 21.415-15.185c12.522 0 22.709 10.188 22.709 22.71 0 12.521-10.187 22.709-22.709 22.709zm77.428 22.574v13.221h-12.069V246.04h12.069zm8 42.987h12.196v13.765h-12.196v-13.765zm-8 13.765h-12.069v-13.765h12.069v13.765zm8-21.765v-13.765h12.196v13.765h-12.196zm-8 0h-12.069v-13.765h12.069v13.765zm-12.07 29.765h12.069v13.221h-12.069v-13.221zm20.07 13.22v-13.221h12.196v13.221h-12.196zm12.196-77.972v13.221h-12.196V246.04h12.196zm-54.665-68.262h11.046v45.739h-11.046v-45.739zm79.626 45.738h-60.58v-45.739h60.58l5.311 9.571v26.596l-5.311 9.572zm37.018-13.184h-23.707v-19.371h23.707v19.371zm94.379 62.502v-9.956h25.219v9.956h-25.219zm25.219 8v9.956h-25.219v-9.956h25.219zm-25.219 27.464v-9.507h25.219v9.507h-25.219zm25.219-53.42h-25.219v-9.507h25.219v9.507zm-100.402-54.231c0-8.817 4.315-16.641 10.94-21.484v42.968c-6.625-4.843-10.94-12.668-10.94-21.484zm26.601 26.601c-2.663 0-5.234-.398-7.661-1.129v-50.944a26.527 26.527 0 0 1 7.661-1.129 26.626 26.626 0 0 1 17.036 6.175c.248.208.521.368.803.506v39.849c-.29.141-.57.304-.821.513a26.622 26.622 0 0 1-17.018 6.159zm73.626-7.087h-47.787V181.14h47.787v39.021zm.175-91.483v9.956h-25.219v-9.956h25.219zm-25.219-8v-9.957h25.219v9.957h-25.219zm25.219-27.463v9.507h-25.219v-9.507h25.219zm-25.219 53.419h25.219v9.507h-25.219v-9.507z"/></svg>