<svg xmlns="http://www.w3.org/2000/svg" viewBox="0 0 611.998 611.998"><path d="M539.776 131.64c-46.571-46.573-108.494-72.221-174.359-72.221S237.632 85.068 191.058 131.64c-96.142 96.142-96.142 252.575 0 348.718 46.573 46.573 108.494 72.221 174.359 72.221s127.786-25.648 174.359-72.221c46.574-46.573 72.223-108.494 72.223-174.359s-25.647-127.786-72.223-174.359zM375.169 405.983c-12.849 11.452-28.27 18.565-40.247 18.565-3.901 0-9.259-.794-12.626-4.57-3.823-4.287-4.311-11.821-1.337-20.669 3.484-10.375 11.047-21.12 21.292-30.252 12.849-11.452 28.27-18.565 40.247-18.565 3.901 0 9.259.794 12.626 4.568 9.699 10.882-2.733 35.57-19.955 50.923zm-59.521 27.38c5.126 3.72 11.674 5.68 19.274 5.68 15.617 0 34.268-8.313 49.89-22.24 23.566-21.006 33.496-48.135 25.096-65.431.069-.069.138-.134.205-.203l.245-.245c56.354-56.355 104.89-119.767 140.932-183.964a230.499 230.499 0 0 1 24.597 40.957c-35.262 61.327-80.521 119.83-134.614 173.92-54.098 54.099-112.607 99.362-173.935 134.623a230.447 230.447 0 0 1-40.961-24.599c30.178-16.937 60.136-36.571 89.271-58.498zM466.754 97.09c-35.38 61.735-80.828 120.58-135.241 174.991-54.389 54.389-113.209 99.824-174.915 135.197a231.045 231.045 0 0 1-14.05-36.725c56.493-34.46 110.419-77.182 160.338-127.099 49.957-49.957 92.703-103.921 127.17-160.452a229.307 229.307 0 0 1 36.698 14.088zm-265.444 44.8c43.835-43.835 102.116-67.977 164.109-67.977 7.242 0 14.43.342 21.555.995-31.234 48.087-68.655 94.211-111.341 137.176a7.247 7.247 0 0 0 .034 10.25 7.228 7.228 0 0 0 5.108 2.107 7.226 7.226 0 0 0 5.142-2.14c44.565-44.857 84.642-94.977 116.958-145.384 4.187.676 8.346 1.459 12.472 2.359-33.458 54.163-74.692 105.911-122.709 153.927-47.981 47.981-99.69 89.192-153.82 122.642-16.314-74.713 4.517-155.981 62.492-213.955zm-37.988 278.24c62.996-36.051 123.004-82.362 178.439-137.797 55.457-55.457 101.781-115.487 137.837-178.506 18.062 10.238 34.849 22.985 49.928 38.064a237.554 237.554 0 0 1 11.953 12.874c-35.656 64.768-84.421 128.944-141.318 185.854-4.865-3.019-10.834-4.622-17.665-4.622-15.617 0-34.269 8.313-49.892 22.24-12.097 10.783-21.113 23.731-25.389 36.457-3.457 10.294-3.575 19.665-.495 27.248-30.198 22.709-61.277 42.902-92.54 60.113a236.657 236.657 0 0 1-12.872-11.95c-15.228-15.229-27.882-32.071-37.986-49.975zm366.205 49.976c-43.835 43.835-102.116 67.977-164.109 67.977a234.512 234.512 0 0 1-44.659-4.276c18.864-11.87 37.661-24.833 55.998-38.625a7.248 7.248 0 0 0-8.714-11.584c-19.855 14.934-46.393 32.45-67.363 45.368a228.673 228.673 0 0 1-16.596-5.487c58.968-35.049 115.237-79.19 167.435-131.388 52.192-52.19 96.333-108.454 131.381-167.423a228.468 228.468 0 0 1 5.512 16.69c-23.941 38.799-55.866 83.002-87.51 118.944a7.246 7.246 0 0 0 5.436 12.036 7.231 7.231 0 0 0 5.443-2.459c30.673-34.837 58.031-71.308 81.446-108.536a234.601 234.601 0 0 1 4.276 44.652c.001 61.995-24.139 120.276-67.976 164.111zM42.824 195.905C19.212 195.905 0 215.115 0 238.727s19.212 42.822 42.824 42.822 42.822-19.21 42.822-42.822-19.211-42.822-42.822-42.822zm0 71.148c-15.619 0-28.328-12.707-28.328-28.326S27.205 210.4 42.824 210.4s28.326 12.707 28.326 28.326-12.707 28.327-28.326 28.327z"/><path d="M337.815 406.147c-4.829-5.418.615-18.151 12.159-28.441s24.817-14.24 29.646-8.822c4.829 5.417-.615 18.151-12.159 28.441-11.545 10.29-24.817 14.24-29.646 8.822z"/></svg>