<svg xmlns="http://www.w3.org/2000/svg" viewBox="0 0 435.31 435.31"><path d="M142.698 162.894c-13.076 0-23.715 10.639-23.715 23.715s10.639 23.715 23.715 23.715 23.715-10.639 23.715-23.715-10.639-23.715-23.715-23.715zm15.715 23.715a15.6 15.6 0 0 1-2.154 7.903l-21.464-21.464a15.604 15.604 0 0 1 7.904-2.154c8.664 0 15.714 7.05 15.714 15.715zm-31.43 0c0-2.883.794-5.578 2.154-7.904l21.464 21.464a15.595 15.595 0 0 1-7.904 2.155c-8.664 0-15.714-7.05-15.714-15.715z"/><path d="M421.735 173.034c-6.094 0-11.261 4.036-12.972 9.575h-4.674v-13.782a4 4 0 0 0-4-4h-14.278v-1.313a4 4 0 0 0-8 0v1.313h-11.997v-1.313a4 4 0 0 0-8 0v1.313h-14.588a4 4 0 0 0-4 4v1.672h-53.291c-5.404-9.598-15.672-18.29-30.192-25.327-21.385-10.366-49.729-16.074-79.811-16.074-2.2 0-4.388.04-6.567.101v-6.746h34.596a4 4 0 0 0 3.17-6.439L190.66 94.608a4 4 0 0 0-3.17-1.561h-16.211c-30.393 0-60.646 7.564-87.489 21.875a4 4 0 0 0 1.882 7.529h34.574v13.793c-8.708 2.411-16.829 5.39-24.125 8.927-13.806 6.691-23.767 14.879-29.359 23.919H45.814a4 4 0 0 0-4 4v27.037a4 4 0 0 0 4 4h20.947c1.995 3.226 4.548 6.342 7.633 9.321l-9.321 20.665a25.658 25.658 0 0 0-2.793-.152c-6.283 0-12.279 2.336-16.895 6.371l-.685-.316a4 4 0 0 0-5.308 1.956 3.989 3.989 0 0 0 .853 4.531c-.028.046-.059.09-.087.137l-5.132 8.765-1.301-.6a4 4 0 1 0-3.351 7.264l.591.272-5.09 8.693-1.678-.774a4 4 0 0 0-3.351 7.264l.968.446-5.09 8.693-2.068-.954a4 4 0 0 0-3.351 7.264l1.358.626-3.171 5.417a25.495 25.495 0 0 0-1.658 3.397l-2.161-.997a4 4 0 0 0-3.351 7.264l3.712 1.712a25.592 25.592 0 0 0 1.126 9.25 25.664 25.664 0 0 0 13.711 15.582l10.136 4.675a25.411 25.411 0 0 0 10.716 2.363c6.77 0 13.109-2.69 17.794-7.202l3.724 1.718a4.003 4.003 0 0 0 5.308-1.956 4 4 0 0 0-1.957-5.308l-2.172-1.002a25.37 25.37 0 0 0 1.424-3.202l2.216-6.16 1.462.674a4.003 4.003 0 0 0 5.308-1.956 4 4 0 0 0-1.957-5.308l-2.094-.966 3.407-9.469 1.123.518a4.003 4.003 0 0 0 5.308-1.956 4 4 0 0 0-1.957-5.308l-1.755-.809 3.408-9.47.77.355a4 4 0 0 0 3.351-7.264l-1.402-.646 3.465-9.655c.179.024.358.058.536.058a4.002 4.002 0 0 0 1.678-7.633l-.798-.368a25.398 25.398 0 0 0-2.907-12.271l9.267-20.547c.608.308 1.221.615 1.845.917a124.64 124.64 0 0 0 4.539 2.077l-1.755 3.733c-3.047 6.485-3.386 13.769-.953 20.507 2.432 6.736 7.341 12.122 13.821 15.163a26.6 26.6 0 0 0 11.358 2.546c10.073 0 19.747-5.704 24.315-15.415l6.381-13.587c7.206.694 14.601 1.05 22.105 1.05 3.381 0 6.852-.077 10.315-.23a4 4 0 0 0 3.824-3.996v-6.218c4.781-.258 9.445-.679 13.968-1.255v5.04a4 4 0 0 0 8 0v-6.247a159.41 159.41 0 0 0 13.404-2.902v4.085a4 4 0 0 0 8 0v-6.456c4.803-1.584 9.29-3.373 13.405-5.346v2.208a4 4 0 0 0 8 0v-6.571c6.5-4.016 11.681-8.568 15.246-13.513h69.132v1.673a4 4 0 0 0 4 4h14.588v1.312a4 4 0 0 0 8 0v-1.312h11.997v1.312a4 4 0 0 0 8 0v-1.312h14.278a4 4 0 0 0 4-4v-13.783h4.674c1.711 5.539 6.879 9.575 12.972 9.575 7.485 0 13.575-6.09 13.575-13.575s-6.087-13.575-13.572-13.575zm-318.174-58.582c21.431-8.804 44.532-13.404 67.718-13.404h14.242l10.315 13.404h-92.275zm24.684 8h33.119v7.113c-11.545.722-22.692 2.289-33.119 4.657v-11.77zm-78.431 73.676v-19.037h13.224c-.994 3.109-1.509 6.289-1.509 9.519s.515 6.41 1.509 9.519H49.814zm-8.087 138.134c-2.546 0-5.024-.548-7.366-1.627l-10.136-4.675c-4.571-2.108-7.92-5.915-9.43-10.717a17.937 17.937 0 0 1-.666-3.12l37.3 17.204a17.59 17.59 0 0 1-9.702 2.935zm16.593-11.661a17.534 17.534 0 0 1-1.163 2.56l-42.034-19.387a17.96 17.96 0 0 1 1.277-2.716l3.566-6.091 40.806 18.821-2.452 6.813zm5.17-14.369L24.026 290.03l5.09-8.693 37.782 17.426-3.408 9.469zm6.126-17.024l-36.439-16.807 5.09-8.693 34.757 16.031-3.408 9.469zm-27.289-32.436s4.985-8.487 5.111-8.684l31.673 14.608c-.087.285-3.369 9.487-3.369 9.487l-33.415-15.411zm11.412-14.587a17.628 17.628 0 0 1 8.542-2.224c2.554 0 5.033.546 7.368 1.622 5.321 2.455 8.847 7.173 9.912 12.511l-25.822-11.909zm25.707-3.635a25.94 25.94 0 0 0-3.391-2.566 29.424 29.424 0 0 0-3.176-1.716l7.867-17.441a83.256 83.256 0 0 0 6.515 4.397l-7.815 17.326zm60.759 12.705c-4.419 9.395-15.646 13.445-25.03 9.032a18.684 18.684 0 0 1-9.699-10.64 18.688 18.688 0 0 1 .669-14.388l1.957-4.164c1.201.441 2.424.864 3.656 1.279-1.126 8.265 1.096 16.567 6.33 23.25a3.99 3.99 0 0 0 3.152 1.534 4 4 0 0 0 3.146-6.466c-3.601-4.598-5.28-10.229-4.841-15.914 8.156 2.295 16.847 4.073 25.907 5.304l-5.247 11.173zm41.865-66.4v49.18c-2.065.058-4.119.086-6.139.086-28.897 0-56.002-5.424-76.322-15.272-19.397-9.402-30.081-21.562-30.081-34.239s10.683-24.837 30.081-34.239c20.174-9.778 47.038-15.188 75.702-15.265v8.122a4 4 0 0 0 8 0v-7.996c2.991.097 5.962.24 8.898.453v7.543a4 4 0 0 0 8 0v-6.801c3.007.332 5.975.723 8.898 1.177v5.625a4 4 0 0 0 8 0v-4.224c13.006 2.588 24.934 6.417 35.146 11.367 17.482 8.474 27.886 19.188 29.77 30.485H186.07a3.997 3.997 0 0 0-4 3.998zm8 38.815v-34.814h13.968v33.458c-4.53.617-9.192 1.081-13.968 1.356zm21.969-2.642v-32.172h13.404v29.064a151.23 151.23 0 0 1-13.404 3.108zm21.404-5.648v-26.524h13.405v20.699c-4.011 2.136-8.508 4.089-13.405 5.825zm21.405-10.8v-15.725h12.27c-1.458 5.629-5.774 10.975-12.27 15.725zm19.44-11.861c.434-1.271.771-2.56.999-3.864h11.041c2.2 0 3.988-1.769 4-3.969.003-.093-.044-2.282-.143-3.277a31.45 31.45 0 0 0-.944-5.111h49.984v16.221h-64.937zm72.938 5.673v-27.565h10.588v27.565h-10.588zm18.588 0v-27.565h11.997v27.565h-11.997zm30.274 0H385.81v-27.565h10.278v27.565zm25.647-8.208c-3.074 0-5.575-2.501-5.575-5.575s2.501-5.575 5.575-5.575 5.575 2.501 5.575 5.575-2.501 5.575-5.575 5.575z"/></svg>