<svg xmlns="http://www.w3.org/2000/svg" viewBox="0 0 446.495 446.495"><path d="M316.238 328.324V120.185l-17.58-39.183c-1.345-3.01-4.229-4.88-7.528-4.88s-6.184 1.87-7.525 4.874l-9.962 22.203c-2.488-36.915-17.255-71.915-42.216-99.563a11.03 11.03 0 0 0-8.181-3.637 11.029 11.029 0 0 0-8.177 3.636c-24.962 27.647-39.729 62.647-42.217 99.563L162.893 81c-1.346-3.01-4.23-4.879-7.529-4.879-3.298 0-6.182 1.87-7.525 4.874l-17.583 39.188v208.136a36.358 36.358 0 0 0-5.718 19.579v17.434a3.998 3.998 0 0 0 3.392 3.953l2.326.358v24.64l-4.067 35.282a3.998 3.998 0 0 0 3.974 4.458h8.206l-.506 8.225a4.002 4.002 0 0 0 3.993 4.246h27.019a4 4 0 0 0 3.993-4.246l-.506-8.225h8.208a3.998 3.998 0 0 0 3.974-4.458l-4.069-35.303v-16.897l8.389 1.29v37.826a4 4 0 0 0 4 4h22.844a4 4 0 0 0 4-4v-20.946h7.08v20.946a4 4 0 0 0 4 4h22.844a4 4 0 0 0 4-4l-.003-37.826 8.396-1.291v16.906l-4.068 35.295a3.999 3.999 0 0 0 3.973 4.458h8.207l-.506 8.225a3.997 3.997 0 0 0 3.992 4.246h27.02a4 4 0 0 0 3.992-4.246l-.506-8.225h8.207a3.998 3.998 0 0 0 3.973-4.458l-4.068-35.295v-24.627l2.327-.358a4 4 0 0 0 3.393-3.953v-17.434a36.404 36.404 0 0 0-5.723-19.574zm-58.61 42.239V351.9h56.33v10.002l-56.33 8.661zm-85.156-245.522v149.304a137.707 137.707 0 0 1-18.034 25.908l-16.183 18.334V125.041h34.217zm-32.818 204.051l20.782-23.546a145.53 145.53 0 0 0 28.425-48.729v87.082h-56.039a28.306 28.306 0 0 1 6.832-14.807zm65.829-178.702h35.523a219.292 219.292 0 0 1 8.607 59.644h-52.737a219.248 219.248 0 0 1 8.607-59.644zm2.464-8a221.201 221.201 0 0 1 3.275-9.231c2.323-6.113 7.733-8.292 12.022-8.292 4.288 0 9.699 2.178 12.022 8.292a224.122 224.122 0 0 1 3.275 9.231h-30.594zm-11.086 75.643h52.767v129.801h-52.767V218.033zm60.767 125.866v-87.073a145.526 145.526 0 0 0 28.423 48.721l20.792 23.546a28.392 28.392 0 0 1 6.83 14.807h-56.045zm16.393-218.858h34.217v193.547l-16.19-18.335a137.607 137.607 0 0 1-18.026-25.893V125.041zm16.885-40.775c.034-.077.063-.144.224-.144s.189.066.227.149l14.703 32.77H276.2l14.706-32.775zM221.007 8.995c1.158-1.283 3.319-1.285 4.481.002 20.353 22.544 33.583 50.226 38.444 79.788h-81.37c4.86-29.563 18.09-57.244 38.445-79.79zm-40.535 105.378c0-5.907.335-11.777.987-17.588h83.551v-.239a157.913 157.913 0 0 1 1.012 17.827v142.172a137.49 137.49 0 0 1-8.396-47.31h-.021c-.251-27.058-5.238-53.599-14.859-78.919-3.105-8.171-10.76-13.45-19.501-13.45-8.741 0-16.395 5.279-19.5 13.45-9.621 25.32-14.608 51.861-14.859 78.919h-.024c0 16.276-2.887 32.264-8.389 47.288v-142.15zm-25.333-30.107c.035-.077.064-.144.224-.144s.192.07.227.149l14.702 32.77h-29.859l14.706-32.775zm9.48 354.229h-18.511l.275-4.471h17.96l.276 4.471zm-29.969-12.471l3.17-27.503h35.09l3.17 27.503h-41.43zm37.822-35.532h-34.217v-19.618l34.217 5.262v14.356zm-39.935-28.591v-10.002h56.323v18.664l-56.323-8.662zm79.167 50.581H196.86v-25.447c0-9.019 6.369-16.577 14.844-18.417v43.864zm15.08-48.291v23.345h-7.08v-23.345a4 4 0 0 0-4-4c-7.337 0-13.993 2.961-18.844 7.749v-12.106h52.767v12.106c-4.85-4.787-11.507-7.749-18.844-7.749a4 4 0 0 0-3.999 4zm8 48.291v-43.864c8.455 1.835 14.809 9.362 14.841 18.35l.003 25.514h-14.844zm65.601 26.013h-18.512l.275-4.471h17.962l.275 4.471zm-29.971-12.471l3.17-27.503h35.091l3.17 27.503h-41.431zm37.824-35.532h-34.217v-14.357l34.217-5.261v19.618z"/><path d="M210.813 191.725c0-5.598 4.554-10.152 10.152-10.152v-8c-10.009 0-18.152 8.144-18.152 18.152h8zm24.863 0h8c0-10.009-8.144-18.152-18.152-18.152v8c5.597-.001 10.152 4.554 10.152 10.152z"/></svg>