<svg xmlns="http://www.w3.org/2000/svg" viewBox="0 0 435.73 435.73"><path d="M281.825 214.622c-5.835-35.901-14.041-65.517-23.105-83.39-2.12-4.178-7.76-5.977-16.113-7.765l21.302-29.81c3.437-4.811 4.123-10.555 1.902-15.811-1.325-4.906-.821-9.852 1.426-13.954 3.233-5.901 4.873-12.209 4.873-18.749C272.109 20.252 247.777 0 217.868 0s-54.241 20.252-54.241 45.145c0 6.54 1.64 12.848 4.873 18.749 2.248 4.103 2.751 9.048 1.426 13.954-2.221 5.256-1.534 11.001 1.902 15.81l21.151 29.6c-7.498 1.147-15.064 2.478-17.774 8.03-8.506 17.424-16.239 47.137-21.775 83.667-4.798 31.659-7.523 65.528-7.291 90.599.057 5.904 4.526 10.852 10.176 11.263l.057.004.087.007c2.966.211 5.819-.812 8.028-2.889 2.343-2.203 3.665-5.362 3.63-8.665-.347-34.398 5.052-84.78 14.033-118.494l.551 7.22a355.317 355.317 0 0 1 1.024 26.907v204.191c0 5.863 5.561 10.634 12.396 10.634 6.834 0 12.395-4.771 12.395-10.634V271.226a31.335 31.335 0 0 0 18.701.001v153.87c0 5.863 5.561 10.634 12.396 10.634 6.834 0 12.395-4.771 12.395-10.634V220.905c0-8.943.345-17.996 1.025-26.907l.552-7.23c8.989 33.716 14.387 84.106 14.032 118.51-.029 3.308 1.3 6.468 3.646 8.669 2.208 2.071 5.058 3.092 8.014 2.88a2.303 2.303 0 0 0 .142-.011c5.648-.41 10.118-5.36 10.177-11.273.236-25.534-2.669-59.522-7.771-90.921zM176.685 84.908c4.492 4.328 11.062 6.967 18.147 6.967 4.996 0 9.784-1.273 13.847-3.683 4.014-2.382 6.41-6.635 6.411-11.378 0-4.741-2.396-8.993-6.407-11.374-4.065-2.413-8.855-3.688-13.851-3.688-6.345 0-12.276 2.111-16.67 5.656a25.38 25.38 0 0 0-2.648-7.358c-2.58-4.71-3.889-9.725-3.889-14.905C171.626 24.663 192.371 8 217.868 8s46.241 16.663 46.241 37.145c0 5.181-1.309 10.195-3.889 14.905a25.38 25.38 0 0 0-2.648 7.358c-4.394-3.545-10.325-5.656-16.67-5.656-4.995 0-9.785 1.275-13.851 3.688-4.012 2.381-6.407 6.634-6.406 11.375 0 4.742 2.396 8.995 6.411 11.377 4.062 2.409 8.85 3.683 13.846 3.683 7.085 0 13.655-2.638 18.147-6.964-.14 1.263-.618 2.649-1.652 4.096l-24.032 33.632c-3.621 5.067-9.27 7.974-15.498 7.974s-11.877-2.906-15.498-7.974l-24.033-33.633c-1.034-1.447-1.512-2.835-1.651-4.098zm3.619-8.093c2.654-4.284 8.253-7.063 14.528-7.063 3.56 0 6.937.888 9.768 2.567 1.559.926 2.49 2.606 2.49 4.495-.001 1.89-.933 3.571-2.492 4.497-2.828 1.677-6.205 2.563-9.766 2.563-6.267.001-11.866-2.776-14.528-7.059zm75.127 0c-2.662 4.282-8.261 7.06-14.528 7.06-3.561 0-6.938-.887-9.765-2.563-1.561-.926-2.492-2.606-2.492-4.497 0-1.889.931-3.569 2.49-4.495 2.83-1.68 6.207-2.567 9.767-2.567 6.275-.001 11.874 2.778 14.528 7.062zm26.161 228.651c-.017 1.75-1.189 3.212-2.682 3.364a5.603 5.603 0 0 0-.307.022c-.879.033-1.487-.381-1.869-.74-.722-.677-1.13-1.685-1.12-2.759.379-36.852-6.636-106.168-20.794-140.465a3.992 3.992 0 0 0-4.325-2.424 3.999 3.999 0 0 0-3.36 3.646l-2.081 27.278a362.902 362.902 0 0 0-1.049 27.517v204.191c0 1.243-1.879 2.634-4.395 2.634s-4.396-1.391-4.396-2.634V265.188a4 4 0 0 0-5.934-3.502c-7.147 3.946-15.685 3.947-22.834 0a4 4 0 0 0-5.934 3.502v159.908c0 1.243-1.879 2.634-4.395 2.634s-4.396-1.391-4.396-2.634V220.905c0-9.142-.353-18.398-1.048-27.516l-2.082-27.279a4 4 0 0 0-7.685-1.221c-14.145 34.288-21.164 103.606-20.793 140.466.012 1.075-.393 2.079-1.11 2.754-.384.36-1.025.779-1.879.743a4.175 4.175 0 0 0-.307-.022c-1.493-.153-2.665-1.609-2.682-3.353-.429-46.225 10.113-133.519 28.256-170.682.969-1.983 8.535-3.135 12.601-3.754a181.59 181.59 0 0 0 3.539-.564c5.051 5.207 11.897 8.134 19.334 8.134 7.421 0 14.254-2.914 19.301-8.1l.654.133c3.741.756 12.501 2.526 13.762 4.206 18.291 36.06 30.495 118.859 30.01 170.616z"/><path d="M212.146 120.873h11.444a4 4 0 0 0 0-8h-11.444a4 4 0 0 0 0 8zm5.719 113.317a4 4 0 0 0-4 4v3.434a4 4 0 0 0 8 0v-3.434a4 4 0 0 0-4-4z"/></svg>