<svg xmlns="http://www.w3.org/2000/svg" viewBox="0 0 315.019 315.019"><path d="M150.663 42.849c-75.037 0-136.085 61.047-136.085 136.085s61.048 136.085 136.085 136.085 136.085-61.048 136.085-136.085S225.7 42.849 150.663 42.849zm94.519 49.737c-29.712 5.486-51.027 3.084-63.407-7.169-15.656-12.975-38.951-22.615-69.365-28.733a127.635 127.635 0 0 1 38.253-5.835c37.388 0 71.082 16.104 94.519 41.737zM49.864 99.992c7.659 4.116 14.848 7.336 20.496 9.16l1.405.455c11.474 3.718 26.173 8.48 38.353 8.48 9.974 0 18.259-3.194 21.701-12.769 1.564-4.354 1.492-8.272-.214-11.644-3.639-7.188-13.464-10.107-25.902-13.801-2.913-.865-5.924-1.76-8.986-2.75-4.31-1.395-10.33-3.021-17.181-4.657a128.054 128.054 0 0 1 18.388-10.249c35.034 5.547 62.249 15.687 78.747 29.361 9.52 7.883 23.149 11.833 40.721 11.833 9.978 0 21.246-1.291 33.734-3.842a128.647 128.647 0 0 1 8.394 11.942c-7.815.09-15.483.207-23.256.357-32.772.63-51.646 9.594-69.899 18.262-16.304 7.742-31.704 15.056-56.158 15.056-19.363 0-45.543-6.853-75.875-19.812a128.196 128.196 0 0 1 15.532-25.382zm21.138-21.281c9.393 2.083 17.789 4.256 23.251 6.023 3.154 1.021 6.213 1.929 9.171 2.808 9.751 2.896 18.96 5.631 21.043 9.745.436.861.892 2.351-.177 5.326-4.637 12.897-27.272 6.767-50.06-.616l-1.41-.457c-4.853-1.568-11.026-4.306-17.697-7.817a129.197 129.197 0 0 1 15.879-15.012zM23.02 168.333c35.942 5.647 57.003 15.954 59.452 29.178.284 1.535-.071 2.922-1.119 4.364-2.927 4.03-13.653 11.492-52.407 16.946a127.578 127.578 0 0 1-6.367-39.887c-.001-3.57.153-7.104.441-10.601zm23.365 84.896c22.439-3.993 52.181-14.162 77.357-39.338 42.857-42.857 53.898-42.857 78.089-42.857 9.532 0 21.889 5.026 34.971 10.348 13.57 5.52 27.555 11.194 41.059 12.592a127.15 127.15 0 0 1-3.832 19.44c-9.441.149-18.893-1.263-28.848-2.765-23.035-3.475-49.144-7.414-80.863 8.749-36.661 18.676-56.554 50.852-67.026 75.957-20.42-9.398-37.963-24.01-50.907-42.126zm68.931 48.827a127.412 127.412 0 0 1-10.656-3.586c9.935-23.833 28.755-54.35 63.288-71.943 29.436-14.998 53.129-11.422 76.039-7.966 9.394 1.417 18.359 2.748 27.51 2.855a127.576 127.576 0 0 1-11.117 23.543c-29.036-6.441-59.028-1.667-89.203 14.214-24.231 12.752-43.497 30.024-55.861 42.883zm35.347 4.963c-9.027 0-17.837-.944-26.341-2.729 11.947-11.958 29.304-26.84 50.581-38.037 27.413-14.427 54.562-19.154 80.787-14.093-23.175 33.139-61.609 54.859-105.027 54.859zM278.55 186.003c-12.347-1.311-25.739-6.745-38.734-12.031-13.827-5.625-26.889-10.938-37.985-10.938-27.418 0-40.278 1.733-83.745 45.2-25.043 25.043-54.972 34.354-76.548 37.691a127.75 127.75 0 0 1-9.795-19.422c31.269-4.529 49.643-11.06 56.083-19.926 2.324-3.201 3.193-6.839 2.513-10.521-3.943-21.297-37.42-31.136-66.412-35.676a127.048 127.048 0 0 1 7.275-27.643c31.702 13.558 58.277 20.448 79.003 20.448 26.258 0 42.448-7.689 59.59-15.83 17.488-8.305 35.571-16.893 66.622-17.49 9.222-.177 18.305-.308 27.659-.402 9.362 17.782 14.672 38.016 14.672 59.47 0 2.373-.07 4.729-.198 7.07zM269.668 0c-16.968 0-30.772 13.805-30.772 30.772 0 16.968 13.805 30.773 30.772 30.773S300.44 47.74 300.44 30.772C300.441 13.805 286.636 0 269.668 0zm0 53.545c-12.557 0-22.772-10.216-22.772-22.773C246.896 18.216 257.112 8 269.668 8s22.772 10.216 22.772 22.772c.001 12.558-10.215 22.773-22.772 22.773z"/></svg>