<svg xmlns="http://www.w3.org/2000/svg" viewBox="0 0 431.955 431.955"><path d="M131.547 295.24a13.674 13.674 0 0 0-9.712 4.078 13.676 13.676 0 0 0-3.984 9.751c.037 7.552 6.21 13.695 13.761 13.695h.068a13.674 13.674 0 0 0 9.712-4.078 13.676 13.676 0 0 0 3.984-9.751c-.037-7.552-6.211-13.695-13.829-13.695zm4.16 17.817a5.72 5.72 0 0 1-4.066 1.707h-.029a5.774 5.774 0 0 1-5.761-5.734 5.728 5.728 0 0 1 1.668-4.083 5.737 5.737 0 0 1 4.096-1.707 5.774 5.774 0 0 1 5.761 5.734 5.725 5.725 0 0 1-1.669 4.083zm110.876-17.817a13.674 13.674 0 0 0-9.712 4.078 13.676 13.676 0 0 0-3.984 9.751c.037 7.552 6.21 13.695 13.761 13.695h.068a13.674 13.674 0 0 0 9.712-4.078 13.676 13.676 0 0 0 3.984-9.751c-.037-7.552-6.211-13.695-13.829-13.695zm4.16 17.817a5.72 5.72 0 0 1-4.066 1.707h-.029a5.774 5.774 0 0 1-5.761-5.734 5.728 5.728 0 0 1 1.668-4.083 5.737 5.737 0 0 1 4.096-1.707 5.774 5.774 0 0 1 5.761 5.734 5.725 5.725 0 0 1-1.669 4.083zm110.941 9.707h.068a13.674 13.674 0 0 0 9.712-4.078 13.676 13.676 0 0 0 3.984-9.751c-.037-7.552-6.21-13.695-13.829-13.695a13.674 13.674 0 0 0-9.712 4.078 13.676 13.676 0 0 0-3.984 9.751c.037 7.552 6.21 13.695 13.761 13.695zm-4.093-17.817a5.737 5.737 0 0 1 4.096-1.707 5.774 5.774 0 0 1 5.761 5.734 5.728 5.728 0 0 1-1.668 4.083 5.72 5.72 0 0 1-4.066 1.707h-.029a5.774 5.774 0 0 1-5.761-5.734 5.715 5.715 0 0 1 1.667-4.083z"/><path d="M327.627 261.98h33.855a3.972 3.972 0 0 0 2.638-1.014l.03.033 66.48-59.788a4.003 4.003 0 0 0 0-5.95l-33.01-29.684a4 4 0 0 0-5.35.001l-32.576 29.301h-24.819v-13.037a4 4 0 0 0-4-4h-39.05a4 4 0 0 0-4 4v13.037h-82.053c-1.514-10.033-8.435-18.308-17.677-21.769v-38.275h21.348a4 4 0 0 0 4-4V84.17a4 4 0 0 0-4-4h-62a4 4 0 0 0-4 4v46.666a4 4 0 0 0 4 4h21.342v38.278c-9.237 3.47-16.162 11.762-17.669 21.766h-19.294a4 4 0 0 0-4 4v36.248l-35.406 21.503-46.63-46.63c4.045-7.009 3.093-16.135-2.895-22.123l-15.792-15.792a4 4 0 1 0-5.657 5.656l15.792 15.792c4.029 4.029 4.029 10.585 0 14.614a10.267 10.267 0 0 1-7.306 3.026 10.27 10.27 0 0 1-7.307-3.026L6.829 192.357a4 4 0 1 0-5.657 5.656l15.792 15.792a18.21 18.21 0 0 0 12.964 5.37c3.79 0 7.397-1.154 10.443-3.276l48.609 48.609a3.997 3.997 0 0 0 4.905.591l33.938-20.611v13.492a4 4 0 0 0 4 4h26.687l-17.157 9.213a38.712 38.712 0 0 0-5.933-1.046 3.997 3.997 0 0 0-3.994-3.929h-.02a3.998 3.998 0 0 0-3.976 3.963 38.654 38.654 0 0 0-20.604 8.652 3.998 3.998 0 0 0-5.608.066 3.997 3.997 0 0 0-.013 5.609 38.664 38.664 0 0 0-8.453 20.688 3.996 3.996 0 0 0 .04 7.99c.834 7.758 3.958 14.844 8.674 20.573a3.999 3.999 0 0 0 5.683 5.624c5.773 4.66 12.887 7.715 20.656 8.473a3.998 3.998 0 0 0 3.994 3.928h.02a3.997 3.997 0 0 0 3.975-3.962 38.668 38.668 0 0 0 20.605-8.652 3.987 3.987 0 0 0 5.607-.068 3.996 3.996 0 0 0 .013-5.607 38.664 38.664 0 0 0 8.453-20.688 3.996 3.996 0 0 0-.04-7.99c-.834-7.758-3.958-14.844-8.675-20.574a3.998 3.998 0 0 0-5.683-5.624 39.326 39.326 0 0 0-5.123-3.501l24.469-13.139h105.458l-18.568 11.278a38.645 38.645 0 0 0-11.855-3.111 3.997 3.997 0 0 0-3.994-3.929h-.02a3.997 3.997 0 0 0-3.975 3.963 38.654 38.654 0 0 0-20.604 8.652 3.998 3.998 0 0 0-5.608.066 3.997 3.997 0 0 0-.013 5.609 38.664 38.664 0 0 0-8.453 20.688 3.996 3.996 0 0 0 .04 7.99c.834 7.758 3.958 14.844 8.674 20.573a3.999 3.999 0 0 0 5.684 5.624c5.773 4.66 12.887 7.715 20.656 8.473a3.998 3.998 0 0 0 3.994 3.928h.02a3.997 3.997 0 0 0 3.975-3.962 38.66 38.66 0 0 0 20.605-8.652 3.985 3.985 0 0 0 5.607-.068 3.996 3.996 0 0 0 .013-5.607 38.664 38.664 0 0 0 8.453-20.688 3.996 3.996 0 0 0-.04-7.99c-.834-7.758-3.958-14.844-8.675-20.574a3.998 3.998 0 0 0-5.683-5.624 39.389 39.389 0 0 0-.968-.759l21.815-13.25c2.439 3.886 6.75 6.487 11.655 6.487h.066c5.128-.025 9.588-2.872 11.935-7.053l22.616 13.736c-.451.34-.895.691-1.333 1.052a3.998 3.998 0 0 0-5.608.066 3.997 3.997 0 0 0-.013 5.609 38.664 38.664 0 0 0-8.453 20.688 3.996 3.996 0 0 0 .04 7.99c.834 7.758 3.958 14.844 8.674 20.573a3.999 3.999 0 0 0 5.684 5.624c5.773 4.66 12.887 7.715 20.656 8.473a3.998 3.998 0 0 0 3.994 3.928h.02a3.997 3.997 0 0 0 3.975-3.962 38.66 38.66 0 0 0 20.605-8.652 3.985 3.985 0 0 0 5.607-.068 3.996 3.996 0 0 0 .013-5.607 38.664 38.664 0 0 0 8.453-20.688 3.996 3.996 0 0 0-.04-7.99c-.834-7.758-3.958-14.844-8.675-20.574a3.998 3.998 0 0 0-5.683-5.624c-5.773-4.66-12.887-7.715-20.656-8.473a3.997 3.997 0 0 0-3.994-3.929h-.02a3.997 3.997 0 0 0-3.975 3.963 38.758 38.758 0 0 0-11.412 3.013l-18.462-11.211zm-175.534 26.342a3.988 3.988 0 0 0 3.56 1.086 30.904 30.904 0 0 1 6.807 16.132 3.999 3.999 0 0 0 .033 6.625 30.73 30.73 0 0 1-6.618 16.2 3.996 3.996 0 0 0-3.584 1.116 3.997 3.997 0 0 0-1.081 3.594 30.73 30.73 0 0 1-16.137 6.775 3.997 3.997 0 0 0-3.301-1.743h-.02a3.997 3.997 0 0 0-3.306 1.777c-6.084-.621-11.656-3.018-16.196-6.656a3.992 3.992 0 0 0-4.679-4.632 30.909 30.909 0 0 1-6.808-16.133 3.999 3.999 0 0 0-.033-6.625 30.731 30.731 0 0 1 6.62-16.202 3.99 3.99 0 0 0 3.583-1.114 3.997 3.997 0 0 0 1.082-3.595 30.73 30.73 0 0 1 16.137-6.775 3.994 3.994 0 0 0 3.3 1.742h.02a4 4 0 0 0 3.306-1.776c6.084.621 11.656 3.018 16.197 6.656a3.988 3.988 0 0 0 1.118 3.548zm115.037 0a3.988 3.988 0 0 0 3.56 1.086 30.904 30.904 0 0 1 6.807 16.132 3.999 3.999 0 0 0 .033 6.625 30.73 30.73 0 0 1-6.618 16.2 3.996 3.996 0 0 0-3.584 1.116 3.997 3.997 0 0 0-1.081 3.594 30.73 30.73 0 0 1-16.136 6.775 3.997 3.997 0 0 0-3.301-1.743h-.02a3.997 3.997 0 0 0-3.306 1.777c-6.084-.621-11.656-3.018-16.196-6.656a3.995 3.995 0 0 0-4.679-4.632 30.909 30.909 0 0 1-6.808-16.133 3.999 3.999 0 0 0-.033-6.625 30.731 30.731 0 0 1 6.62-16.202 3.99 3.99 0 0 0 3.583-1.114 3.997 3.997 0 0 0 1.082-3.595 30.733 30.733 0 0 1 16.137-6.775 3.994 3.994 0 0 0 3.3 1.742h.02a3.997 3.997 0 0 0 3.305-1.776c6.084.621 11.656 3.018 16.196 6.656a3.989 3.989 0 0 0 1.119 3.548zm98.352-67.404l40.855-36.742 3.36 3.021-44.215 39.762v-6.041zm0 28.123V237.72l50.197-45.143 6.294 5.66-56.491 50.804zm29.464-75.108l5.41 4.865-34.874 31.361v-9.724l29.464-26.502zm-99.121 11.91h31.05v9.037h-31.05v-9.037zm-90.382-59.007h-4.678V88.17h4.678v38.666zm-54-38.666h41.322v38.666h-41.322V88.17zm25.342 46.666h3.31v36.581a27.697 27.697 0 0 0-1.661-.055h-.128c-.511.002-1.018.021-1.521.052v-36.578zm1.558 44.527h.091c9.402 0 17.3 6.655 19.209 15.518h-38.398c1.895-8.81 9.751-15.475 19.098-15.518zm-42.521 74.617v-14.351l11.496-6.981c2.499 2.537 5.966 4.116 9.791 4.116h.068a13.678 13.678 0 0 0 9.713-4.078 13.673 13.673 0 0 0 3.983-9.751c-.036-7.552-6.209-13.695-13.829-13.695a13.678 13.678 0 0 0-9.713 4.078 13.673 13.673 0 0 0-3.983 9.751c.004.848.096 1.674.248 2.479l-7.774 4.721V202.88h221.66v51.1h-40.539c-1.509-5.966-6.924-10.407-13.397-10.407-2.172.011-4.219.54-6.043 1.449l-37.331-22.68c.012-.247.035-.49.034-.74-.037-7.552-6.211-13.696-13.83-13.696-7.588.037-13.732 6.241-13.696 13.83.001.136.018.269.022.404l-59.295 31.84h-37.585zm15.525-30.95c-.008-1.539.585-2.989 1.668-4.083s2.527-1.7 4.096-1.707a5.774 5.774 0 0 1 5.761 5.734c.008 1.539-.585 2.989-1.668 4.083s-2.527 1.7-4.067 1.707h-.029a5.774 5.774 0 0 1-5.761-5.734zm100.859-1.389a5.77 5.77 0 0 1-5.735 5.79h-.029a5.774 5.774 0 0 1-5.761-5.734c-.015-3.178 2.558-5.775 5.762-5.791 3.162 0 5.747 2.573 5.763 5.735zm-16.842 8.151c2.51 3.411 6.539 5.639 11.077 5.639h.068c4.431-.022 8.358-2.155 10.861-5.429l34.161 20.754a13.68 13.68 0 0 0-1.251 3.224h-99.962l45.046-24.188zm68.277 33.306h-.028a5.775 5.775 0 0 1-5.763-5.735c-.015-3.177 2.558-5.774 5.764-5.79a5.774 5.774 0 0 1 5.761 5.734 5.768 5.768 0 0 1-5.734 5.791zm54.583 15.055a3.994 3.994 0 0 0 3.3 1.742h.02a3.997 3.997 0 0 0 3.305-1.776c6.084.621 11.656 3.018 16.196 6.656a3.992 3.992 0 0 0 1.12 3.547 3.988 3.988 0 0 0 3.56 1.086 30.904 30.904 0 0 1 6.807 16.132 3.999 3.999 0 0 0 .033 6.625 30.73 30.73 0 0 1-6.618 16.2 3.996 3.996 0 0 0-3.584 1.116 3.997 3.997 0 0 0-1.081 3.594 30.73 30.73 0 0 1-16.136 6.775 3.997 3.997 0 0 0-3.301-1.743h-.02a3.995 3.995 0 0 0-3.306 1.777c-6.084-.621-11.656-3.018-16.196-6.656a3.995 3.995 0 0 0-4.679-4.632 30.909 30.909 0 0 1-6.808-16.133 3.999 3.999 0 0 0-.033-6.625 30.731 30.731 0 0 1 6.62-16.202 3.99 3.99 0 0 0 3.583-1.114 3.997 3.997 0 0 0 1.082-3.595 30.725 30.725 0 0 1 16.136-6.774z"/><path d="M171.71 93.063c-7.588.037-13.732 6.24-13.696 13.829.037 7.552 6.211 13.696 13.763 13.696h.066c7.588-.037 13.732-6.241 13.696-13.83-.037-7.551-6.21-13.695-13.829-13.695zm.095 19.525h-.028a5.775 5.775 0 0 1-5.763-5.735c-.015-3.177 2.558-5.774 5.764-5.79a5.774 5.774 0 0 1 5.761 5.734 5.769 5.769 0 0 1-5.734 5.791zm141.627 107.758h30a4 4 0 0 0 0-8h-30a4 4 0 0 0 0 8zm0 11.334h30a4 4 0 0 0 0-8h-30a4 4 0 0 0 0 8z"/></svg>