<svg xmlns="http://www.w3.org/2000/svg" viewBox="0 0 353.985 353.985"><path d="M75.956 330.431h.001c2.707 0 5.439-.229 8.12-.68 21.248-3.576 40.126-19.705 46.977-40.134 3.017-8.998 3.803-18.345 4.563-27.385l1.396-16.607c.315-3.75.792-9.417-2.243-14.002-2.977-4.497-8.464-6.874-15.87-6.874-.471 0-.938.01-1.4.029a53.383 53.383 0 0 0-32.903 13.119c-.539.471-1.069.954-1.6 1.438-1.576 1.436-3.063 2.793-4.663 3.681-1.342.746-2.948 1.263-4.648 1.811-.73.235-1.461.472-2.182.726-20.813 7.347-34.244 31.795-30.576 55.657 1.046 6.806 3.13 12.234 6.371 16.595 5.964 8.023 16.409 12.625 28.657 12.626zm6.793-8.569a41.097 41.097 0 0 1-6.792.569h-.001c-1.41 0-2.781-.081-4.118-.223.736-5.082 5.108-9.002 10.391-9.002 4.212 0 7.922 2.524 9.58 6.203a49.244 49.244 0 0 1-9.06 2.453zm39.76-32.202c-4.452-.859-7.826-4.78-7.826-9.479 0-5.325 4.333-9.658 9.658-9.658.834 0 1.645.104 2.428.305-.633 5.546-1.56 11.055-3.3 16.244a46.088 46.088 0 0 1-.96 2.588zm-48.341-36.565c.652-.23 1.312-.442 1.972-.655 1.992-.642 4.052-1.306 6.079-2.432 2.415-1.341 4.323-3.081 6.167-4.763.49-.446.979-.893 1.477-1.328a45.365 45.365 0 0 1 27.956-11.147 27.55 27.55 0 0 1 1.08-.022c2.623 0 7.305.428 9.199 3.29 1.388 2.097 1.248 5.278.942 8.916l-1.396 16.607-.107 1.258a17.702 17.702 0 0 0-3.196-.296c-9.737 0-17.658 7.921-17.658 17.658 0 7.822 5.117 14.463 12.176 16.776-4.79 7.901-11.726 14.552-19.803 19.084-2.944-6.43-9.448-10.836-16.827-10.836-9.082 0-16.641 6.579-18.201 15.218-4.313-1.598-7.867-4.106-10.308-7.39-2.41-3.243-4.054-7.629-4.885-13.038-3.103-20.188 8.024-40.789 25.333-46.9zm224.889-109.773l-65.565 65.566a4 4 0 1 0 5.658 5.657l65.565-65.566a4 4 0 1 0-5.658-5.657zm-93.624 93.625l-7.919 7.877a4 4 0 0 0 5.642 5.672l7.919-7.877a4 4 0 0 0-5.642-5.672z"/><path d="M184.54 258.024c-4.058 4.171-70.784 70.173-70.784 70.173-6.74 6.051-13.105 11.767-21.147 14.856-7.833 3.01-16.494 3.734-24.391 2.038a3.997 3.997 0 0 0-4.75 3.071 3.999 3.999 0 0 0 3.071 4.75 48.963 48.963 0 0 0 10.267 1.072 52.297 52.297 0 0 0 18.674-3.464c9.418-3.619 16.639-10.102 23.622-16.371 0 0 67.122-66.383 71.173-70.548a4 4 0 1 0-5.735-5.577zM54.287 340.468a44.649 44.649 0 0 1-6.213-3.902 4 4 0 1 0-4.8 6.4 52.774 52.774 0 0 0 7.326 4.602 4 4 0 0 0 3.687-7.1zM33.604 266.59a4 4 0 1 0-6.674-4.41c-13.335 20.183-12.038 46.686 3.306 67.52a3.996 3.996 0 0 0 5.593.848 4 4 0 0 0 .849-5.593c-13.333-18.102-14.54-41.012-3.074-58.365zm11.013-12.995l54.533-55.286a4 4 0 0 0-5.696-5.618l-54.533 55.286a4 4 0 0 0 5.696 5.618zm63.384-65.901a3.99 3.99 0 0 0 2.807-1.15l4.42-4.357a4 4 0 0 0-5.618-5.696l-4.416 4.352a4 4 0 0 0 2.807 6.851zm30.928-30.655a3.983 3.983 0 0 0 2.821-1.165L291.55 6.835a4 4 0 0 0-5.643-5.671l-149.8 149.039a4 4 0 0 0 2.822 6.836zm74.043-48.064a4.001 4.001 0 0 0-5.657 0L106.453 209.837a4 4 0 1 0 5.658 5.657l100.862-100.861a4.002 4.002 0 0 0-.001-5.658zM285.271 68.6a4 4 0 0 0-5.657 0L179.195 169.018a4 4 0 1 0 5.658 5.657L285.271 74.257a4 4 0 0 0 0-5.657zM165.533 182.68l-18.335 18.335a4 4 0 1 0 5.658 5.657l18.335-18.335a4 4 0 1 0-5.658-5.657zm85.307-53.382l-8.133 8.132a3.999 3.999 0 0 0 2.829 6.829 3.991 3.991 0 0 0 2.828-1.171l8.133-8.132a4 4 0 1 0-5.657-5.658zm-37.237 37.236l-67.428 67.428a4 4 0 1 0 5.658 5.657l67.428-67.428a4 4 0 1 0-5.658-5.657zM335.055 50.739a4 4 0 0 0-5.657 0l-69.105 69.105a4 4 0 1 0 5.658 5.657l69.105-69.105a4.001 4.001 0 0 0-.001-5.657zM152.427 270.948l46.118-46.119a4 4 0 0 0-5.657-5.657l-46.118 46.119a4 4 0 0 0 5.657 5.657zM313.535 98.526l-23.377 23.376a4 4 0 1 0 5.658 5.657l23.377-23.376a4 4 0 1 0-5.658-5.657zM77.108 288.734c8.011 0 14.528-6.517 14.528-14.528s-6.518-14.528-14.528-14.528-14.528 6.518-14.528 14.528 6.517 14.528 14.528 14.528zm0-21.056c3.6 0 6.528 2.929 6.528 6.528s-2.929 6.528-6.528 6.528-6.528-2.928-6.528-6.528 2.928-6.528 6.528-6.528z"/></svg>