<svg xmlns="http://www.w3.org/2000/svg" viewBox="0 0 402.585 402.585"><path d="M115.108 279.739a15.634 15.634 0 0 0-5.938-1.17 15.67 15.67 0 0 0-14.562 9.785c-1.588 3.888-1.565 8.162.062 12.034s4.664 6.879 8.553 8.466c1.9.776 3.898 1.17 5.938 1.17a15.67 15.67 0 0 0 14.562-9.785c3.277-8.026-.587-17.222-8.615-20.5zm1.208 17.477a7.7 7.7 0 0 1-7.155 4.809 7.682 7.682 0 0 1-2.915-.576 7.676 7.676 0 0 1-4.201-4.159 7.672 7.672 0 0 1-.03-5.911 7.7 7.7 0 0 1 7.155-4.809c.998 0 1.979.194 2.915.576 3.942 1.61 5.841 6.127 4.231 10.07z"/><path d="M398.619 255.066l-.934-.008a18.903 18.903 0 0 0-2.597-6.423l.663-.652a4 4 0 0 0-5.609-5.705l-.663.652a18.902 18.902 0 0 0-6.378-2.705l.008-.933a4 4 0 0 0-3.966-4.034h-.035a4 4 0 0 0-3.999 3.966l-.008.931a19.002 19.002 0 0 0-6.557 2.715l-9.198-9.198a4.001 4.001 0 0 0-2.828-1.172h-8.308l9.538-75.646h10.684a4.001 4.001 0 0 0 2.339-7.245c-39.333-28.342-97.929-44.597-160.764-44.597-40.653 0-79.523 6.812-112.558 19.292v-21.362a4 4 0 0 0-4-4H87.33V84.007h17.633v9.491a4 4 0 0 0 8 0v-9.491h6.839v9.491a4 4 0 0 0 8 0v-9.491h6.84v9.491a4 4 0 0 0 8 0v-9.491h6.84v9.491a4 4 0 0 0 8 0v-9.491h6.84v9.491a4 4 0 0 0 8 0v-9.491h6.84v9.491a4 4 0 0 0 8 0v-9.491h6.84v9.491a4 4 0 0 0 8 0v-9.491h6.84v9.491a4 4 0 0 0 8 0v-9.491h6.84v9.491a4 4 0 0 0 8 0v-9.491h6.84v9.491a4 4 0 0 0 8 0V65.167a4 4 0 0 0-8 0v10.84h-6.84v-10.84a4 4 0 0 0-8 0v10.84h-6.84v-10.84a4 4 0 0 0-8 0v10.84h-6.84v-10.84a4 4 0 0 0-8 0v10.84h-6.84v-10.84a4 4 0 0 0-8 0v10.84h-6.84v-10.84a4 4 0 0 0-8 0v10.84h-6.84v-10.84a4 4 0 0 0-8 0v10.84h-6.84v-10.84a4 4 0 0 0-8 0v10.84h-6.84v-10.84a4 4 0 0 0-8 0v10.84h-6.839v-10.84a4 4 0 0 0-8 0v10.84H83.33a4 4 0 0 0-4 4v18.935h-6.118a4 4 0 0 0-4 4v34.189c-7.095 3.849-13.772 8.013-19.969 12.478a4 4 0 0 0 2.339 7.245h10.683l4.868 38.606-41.196 19.649c-2.716-3.101-6.693-5.071-11.129-5.071C6.644 210.037 0 216.68 0 224.845s6.644 14.808 14.809 14.808 14.808-6.643 14.808-14.808c0-.86-.089-1.698-.231-2.518l38.802-18.507 3.617 28.679h-8.309a4 4 0 0 0 0 8h9.318l2.796 22.175a46.123 46.123 0 0 0-7.434 10.57l-.619-.253a4 4 0 1 0-3.024 7.406l.626.255c-2.892 9.303-2.669 18.956.158 27.732l-.632.266a4 4 0 1 0 3.099 7.375l.632-.266c4.29 8.161 11.03 15.075 19.698 19.521l-.255.625a4 4 0 0 0 7.406 3.024l.253-.62a45.687 45.687 0 0 0 13.63 2.084c4.892 0 9.643-.767 14.123-2.2l.246.585a4.002 4.002 0 0 0 5.237 2.138 4 4 0 0 0 2.138-5.237l-.241-.573a45.904 45.904 0 0 0 19.503-19.756l.619.253a4 4 0 0 0 3.024-7.406l-.626-.255c2.891-9.303 2.669-18.956-.158-27.731l.633-.266a4 4 0 1 0-3.099-7.375l-.633.266a46.489 46.489 0 0 0-1.512-2.659h22.337a46.732 46.732 0 0 0-1.721 3.069l-.619-.253a4 4 0 0 0-3.024 7.406l.626.255c-2.891 9.303-2.669 18.956.158 27.731l-.633.266a4 4 0 1 0 3.099 7.375l.633-.266c4.29 8.161 11.029 15.075 19.698 19.521l-.255.625a4 4 0 0 0 7.406 3.024l.253-.62a45.687 45.687 0 0 0 13.63 2.084c4.893 0 9.643-.767 14.124-2.2l.246.585a4 4 0 1 0 7.375-3.097l-.241-.574a45.904 45.904 0 0 0 19.503-19.756l.619.253a4 4 0 0 0 3.024-7.406l-.626-.255c2.891-9.303 2.669-18.956-.158-27.731l.633-.266a4 4 0 1 0-3.099-7.375l-.633.266a46.489 46.489 0 0 0-1.512-2.659h22.337a46.732 46.732 0 0 0-1.721 3.069l-.619-.253a4 4 0 1 0-3.024 7.406l.626.255c-2.891 9.303-2.669 18.956.158 27.731l-.633.266a4 4 0 1 0 3.099 7.375l.633-.266c4.29 8.161 11.029 15.075 19.698 19.521l-.255.625a4 4 0 0 0 7.406 3.024l.253-.62a45.687 45.687 0 0 0 13.63 2.084c4.893 0 9.643-.767 14.124-2.2l.246.585a4 4 0 1 0 7.375-3.097l-.241-.574a45.904 45.904 0 0 0 19.503-19.756l.619.253a4 4 0 0 0 3.024-7.406l-.626-.255c2.891-9.303 2.669-18.956-.158-27.731l.633-.266a4 4 0 1 0-3.099-7.375l-.633.266a46.222 46.222 0 0 0-7.202-10.112l2.802-22.223h7.659l8.036 8.036a19.01 19.01 0 0 0-2.624 6.207l-.938-.008h-.035a4 4 0 0 0-.033 8l.934.008a19.015 19.015 0 0 0 2.608 6.413l-.675.663a4 4 0 1 0 5.61 5.705l.675-.664a19.023 19.023 0 0 0 6.367 2.715l-.008.934a4 4 0 0 0 3.966 4.034h.035a4 4 0 0 0 3.999-3.966l.008-.93a19.001 19.001 0 0 0 6.403-2.621l.673.684a3.988 3.988 0 0 0 2.853 1.195 4 4 0 0 0 2.853-6.804l-.67-.681a19.033 19.033 0 0 0 2.718-6.361l.938.008h.035a4.004 4.004 0 0 0 .032-8.006zm-383.81-23.414c-3.754 0-6.809-3.054-6.809-6.808s3.055-6.808 6.809-6.808 6.808 3.054 6.808 6.808-3.054 6.808-6.808 6.808zm230.222-82.798v-34.092c18.906 1.905 37.078 5.343 54.038 10.183v23.909h-54.038zm62.038-21.496c17.697 5.645 33.923 12.862 48.087 21.496h-48.087v-21.496zm-70.038-13.306v34.802h-54.05v-34.802a351.564 351.564 0 0 1 54.05 0zm-116.099 34.802v-23.906c16.963-4.842 35.139-8.281 54.05-10.186v34.093h-54.05zm-43.72-41.913h12.236v20.545a229.478 229.478 0 0 0-12.236 5.527v-26.072zm35.72 20.42v21.492H64.856c14.161-8.631 30.383-15.848 48.076-21.492zm236.752 29.493l-.906 7.189H71.235l-.907-7.189h279.356zM75.793 200.192l18.794-8.964a4 4 0 0 0-3.443-7.221l-16.405 7.825-2.495-19.789h275.525l-7.623 60.456H79.868l-4.075-32.307zm51.328 127.7c-1.111-.927-2.678-1.233-4.105-.632-1.429.601-2.31 1.938-2.422 3.385a38.275 38.275 0 0 1-11.445 1.748c-3.755 0-7.456-.557-11.044-1.652-.134-1.437-1.025-2.755-2.454-3.338-1.426-.583-2.983-.267-4.084.663a37.907 37.907 0 0 1-15.977-15.835c.912-1.11 1.209-2.665.614-4.082-.596-1.416-1.914-2.293-3.345-2.418a37.919 37.919 0 0 1-.132-22.486 3.991 3.991 0 0 0 3.333-2.462c.581-1.423.268-2.974-.656-4.075a37.913 37.913 0 0 1 15.794-16c.718.6 1.627.939 2.568.939.517 0 1.041-.101 1.547-.313 1.43-.601 2.31-1.938 2.422-3.385a38.288 38.288 0 0 1 11.447-1.748c3.755 0 7.456.557 11.044 1.652.134 1.437 1.025 2.755 2.454 3.338a3.991 3.991 0 0 0 1.511.298c.949 0 1.865-.345 2.585-.955a37.912 37.912 0 0 1 15.966 15.829c-.912 1.11-1.209 2.665-.613 4.082a3.99 3.99 0 0 0 3.347 2.426 37.915 37.915 0 0 1 .127 22.487c-1.434.136-2.749 1.027-3.332 2.454-.581 1.423-.268 2.975.656 4.076a37.916 37.916 0 0 1-15.806 16.004zm100.844-.001c-1.111-.927-2.678-1.232-4.104-.632-1.43.601-2.31 1.938-2.422 3.384a38.288 38.288 0 0 1-11.447 1.749c-3.755 0-7.456-.557-11.044-1.652-.134-1.437-1.025-2.755-2.454-3.338-1.425-.583-2.983-.267-4.084.663a37.912 37.912 0 0 1-15.977-15.835c.912-1.11 1.209-2.665.613-4.082-.595-1.416-1.914-2.293-3.345-2.418a37.903 37.903 0 0 1-.132-22.486 3.993 3.993 0 0 0 3.333-2.462c.581-1.423.268-2.974-.656-4.075a37.913 37.913 0 0 1 15.794-16c.718.6 1.627.939 2.568.939.517 0 1.041-.101 1.547-.313 1.43-.601 2.31-1.938 2.422-3.385a38.288 38.288 0 0 1 11.447-1.748c3.755 0 7.456.557 11.044 1.652.134 1.437 1.025 2.755 2.454 3.338a3.991 3.991 0 0 0 1.511.298c.949 0 1.865-.345 2.585-.955a37.912 37.912 0 0 1 15.966 15.829c-.912 1.11-1.209 2.665-.613 4.082a3.99 3.99 0 0 0 3.347 2.426 37.915 37.915 0 0 1 .127 22.487c-1.434.136-2.749 1.027-3.332 2.454-.581 1.423-.268 2.975.656 4.076a37.906 37.906 0 0 1-15.804 16.004zm100.843 0c-1.111-.927-2.678-1.232-4.104-.632-1.43.601-2.31 1.938-2.422 3.384a38.288 38.288 0 0 1-11.447 1.749c-3.755 0-7.456-.557-11.044-1.652-.134-1.437-1.025-2.755-2.454-3.338-1.426-.583-2.983-.267-4.084.663a37.907 37.907 0 0 1-15.977-15.835c.912-1.11 1.209-2.665.613-4.082-.596-1.416-1.914-2.293-3.345-2.418a37.903 37.903 0 0 1-.132-22.486 3.99 3.99 0 0 0 3.334-2.462c.581-1.423.268-2.975-.656-4.076a37.914 37.914 0 0 1 15.793-15.999c.718.6 1.627.939 2.568.939.517 0 1.041-.101 1.547-.313 1.43-.601 2.31-1.938 2.422-3.385a38.288 38.288 0 0 1 11.447-1.748c3.755 0 7.456.557 11.044 1.652.134 1.437 1.025 2.755 2.454 3.338a3.991 3.991 0 0 0 1.511.298c.949 0 1.865-.345 2.585-.955a37.912 37.912 0 0 1 15.966 15.829c-.912 1.11-1.209 2.665-.613 4.082a3.99 3.99 0 0 0 3.347 2.426 37.915 37.915 0 0 1 .127 22.487c-1.433.137-2.748 1.028-3.33 2.453-.581 1.423-.268 2.974.656 4.075a37.91 37.91 0 0 1-15.806 16.006zm8.317-71.445a45.806 45.806 0 0 0-5.224-3.132l.255-.625a4 4 0 0 0-7.406-3.024l-.253.62a45.688 45.688 0 0 0-13.631-2.084c-4.893 0-9.643.767-14.124 2.2l-.246-.585a4 4 0 1 0-7.375 3.097l.241.574a45.798 45.798 0 0 0-11.59 8.687h-34.738a45.685 45.685 0 0 0-11.977-8.861l.255-.625a4 4 0 0 0-7.406-3.024l-.253.62a45.688 45.688 0 0 0-13.631-2.084c-4.893 0-9.643.767-14.124 2.2l-.246-.585a4 4 0 1 0-7.375 3.097l.241.574a45.798 45.798 0 0 0-11.59 8.687H142.19a45.685 45.685 0 0 0-11.977-8.861l.255-.625a4 4 0 0 0-7.406-3.024l-.253.62a45.688 45.688 0 0 0-13.631-2.084c-4.893 0-9.643.767-14.124 2.2l-.246-.585a4 4 0 1 0-7.375 3.097l.241.574a45.88 45.88 0 0 0-4.796 2.917l-2.006-15.906h258.26l-2.007 15.95zm30.681 2.361c.013-1.565.358-3.052.96-4.402l6.78 6.78c.78.781 1.805 1.172 2.828 1.172s2.048-.391 2.828-1.172a3.997 3.997 0 0 0 0-5.656l-6.775-6.775a11.246 11.246 0 0 1 4.61-.989 11.057 11.057 0 0 1 7.846 3.328 11.057 11.057 0 0 1 3.195 7.902c-.051 6.088-5.045 11.042-11.132 11.042l-.099-.001c-6.139-.052-11.093-5.089-11.041-11.229z"/><path d="M215.951 279.739a15.634 15.634 0 0 0-5.938-1.17 15.67 15.67 0 0 0-14.562 9.785c-3.277 8.026.587 17.223 8.614 20.5 1.9.776 3.898 1.17 5.938 1.17a15.67 15.67 0 0 0 14.562-9.785c1.588-3.888 1.565-8.162-.062-12.034s-4.663-6.879-8.552-8.466zm1.208 17.477a7.7 7.7 0 0 1-7.155 4.809 7.682 7.682 0 0 1-2.915-.576c-3.942-1.61-5.841-6.127-4.231-10.07a7.7 7.7 0 0 1 7.155-4.809c.998 0 1.979.194 2.915.576a7.676 7.676 0 0 1 4.201 4.159 7.677 7.677 0 0 1 .03 5.911zm99.635-17.477a15.634 15.634 0 0 0-5.938-1.17 15.67 15.67 0 0 0-14.562 9.785c-1.588 3.888-1.565 8.162.062 12.034s4.664 6.879 8.553 8.466c1.9.776 3.898 1.17 5.938 1.17a15.67 15.67 0 0 0 14.562-9.785c3.277-8.026-.588-17.222-8.615-20.5zm1.208 17.477a7.7 7.7 0 0 1-7.155 4.809 7.682 7.682 0 0 1-2.915-.576 7.676 7.676 0 0 1-4.201-4.159 7.672 7.672 0 0 1-.03-5.911 7.7 7.7 0 0 1 7.155-4.809c.998 0 1.979.194 2.915.576 3.942 1.61 5.84 6.127 4.231 10.07zM210.006 184.818c-10.482 0-19.011 8.528-19.011 19.011s8.528 19.011 19.011 19.011 19.011-8.528 19.011-19.011-8.529-19.011-19.011-19.011zm0 30.022c-6.071 0-11.011-4.939-11.011-11.011s4.939-11.011 11.011-11.011 11.011 4.939 11.011 11.011-4.94 11.011-11.011 11.011zm-73.254-30.022c-10.482 0-19.011 8.528-19.011 19.011s8.528 19.011 19.011 19.011 19.011-8.528 19.011-19.011-8.529-19.011-19.011-19.011zm0 30.022c-6.071 0-11.011-4.939-11.011-11.011s4.939-11.011 11.011-11.011 11.011 4.939 11.011 11.011-4.94 11.011-11.011 11.011zm146.508-30.022c-10.482 0-19.011 8.528-19.011 19.011s8.528 19.011 19.011 19.011c10.483 0 19.012-8.528 19.012-19.011s-8.529-19.011-19.012-19.011zm0 30.022c-6.071 0-11.011-4.939-11.011-11.011s4.939-11.011 11.011-11.011c6.072 0 11.012 4.939 11.012 11.011s-4.94 11.011-11.012 11.011z"/></svg>