<svg xmlns="http://www.w3.org/2000/svg" viewBox="0 0 311.94 311.94"><path d="M148.297 39.769c-36.35 0-70.524 14.155-96.227 39.858-53.06 53.06-53.06 139.394 0 192.454 25.703 25.703 59.877 39.858 96.227 39.858s70.524-14.155 96.227-39.858c53.06-53.06 53.06-139.394 0-192.454-25.703-25.703-59.877-39.858-96.227-39.858zM271.474 165.86c-8.235-5.915-18.998-2.783-29.532 8.588-8.691 9.382-15.31 21.945-19.67 37.341a4 4 0 1 0 7.697 2.179c4.013-14.169 10.016-25.637 17.842-34.084 3.54-3.822 12.475-12.208 18.997-7.527 8.074 5.799 7.154 21.44 6.385 27.895-1.709 14.318-7.573 26.757-15.687 33.274-2.358 1.895-5.645 3.751-7.902 1.84-2.635-2.23-3.822-7.371-3.344-14.476a4.002 4.002 0 0 0-7.983-.537c-.672 9.986 1.399 17.091 6.158 21.119 2.164 1.832 4.646 2.741 7.302 2.741 1.832 0 3.748-.447 5.699-1.306a127.996 127.996 0 0 1-18.569 23.516 130.82 130.82 0 0 1-4.873 4.625c-3.667-4.799-6.198-12.047-7.225-20.88a4 4 0 1 0-7.948.925c1.23 10.565 4.34 19.14 9.059 25.132-16.61 13.223-36.039 21.995-56.813 25.702 5.189-6.479 10.531-16.472 12.156-31.099a4 4 0 1 0-7.951-.883c-2.288 20.594-12.727 30.327-17.241 33.631-3.223.241-6.469.364-9.735.364-34.213 0-66.378-13.323-90.57-37.516-33.004-33.004-44.189-79.685-33.57-121.967 11.195 1.303 26.82 4.299 43.035 11.16a4.003 4.003 0 0 0 5.243-2.125 4 4 0 0 0-2.125-5.242c-16.441-6.957-32.288-10.139-43.936-11.586 6.01-18.804 16.459-36.485 31.354-51.379C68.941 74.071 81.87 65.197 95.92 58.898a36.27 36.27 0 0 0-2.252 2.627c-5.132 6.638-6.665 13.818-4.432 20.764a4 4 0 0 0 7.616-2.448c-3.119-9.701 6.766-18.895 16.179-23.821 8.789-4.599 19.379-7.341 31.542-8.193a131.84 131.84 0 0 1 3.724-.058c12.251 0 24.237 1.717 35.691 5.022a66.24 66.24 0 0 1 6.793 2.972c5.949 3.025 9.001 6.12 9.604 9.737.85 5.096-4.18 9.225-6.381 10.763-11.526 8.055-26.655 7.89-37.317 6.332a3.995 3.995 0 0 0-4.536 3.38 4 4 0 0 0 3.38 4.536c3.699.54 7.881.924 12.299.924 10.028 0 21.264-1.981 30.757-8.614 7.284-5.089 10.815-11.882 9.689-18.635a15.868 15.868 0 0 0-.409-1.783 127.884 127.884 0 0 1 24.165 16.52c-8.145 14.582-23.589 20.575-35.122 23.032a4 4 0 0 0 1.668 7.824c12.722-2.711 29.678-9.305 39.469-25.296.273.269.551.531.823.803 23.661 23.662 36.104 54.354 37.344 85.415-1.287-1.834-2.844-3.479-4.74-4.841z"/><path d="M137.556 85.235a4 4 0 0 0 3.789-7.045c-1.062-.571-6.264-3.626-4.383-7.716 1.226-2.667 4.829-4.64 11.012-6.032 6.876-1.548 17.445-1.943 24.605 2.034 1.188.66 1.884 1.448 1.862 2.11-.027.803-.928 2.024-2.877 2.94a4 4 0 0 0 3.402 7.24c4.54-2.133 7.332-5.838 7.47-9.91.128-3.778-2.05-7.195-5.973-9.374-9.12-5.066-21.604-4.792-30.247-2.845-5.602 1.261-13.409 3.721-16.523 10.494-3.061 6.654.099 13.93 7.863 18.104zm-37.064 11.521c2.997 2.273 6.354 4.294 10.263 6.181a3.999 3.999 0 0 0 5.34-1.865 4 4 0 0 0-1.864-5.341c-3.424-1.652-6.337-3.402-8.906-5.35a3.999 3.999 0 1 0-4.833 6.375zm78.599 15.001c.047.001 4.807-.026 7.63-.253a4 4 0 0 0 3.667-4.308c-.177-2.203-2.137-3.843-4.308-3.667-4.037.325-6.639.235-6.68.233-2.181-.089-4.063 1.634-4.149 3.84a4.002 4.002 0 0 0 3.84 4.155zm22.776 21.862c.336 0 9.337-2.448 13.524-3.81a4 4 0 1 0-2.475-7.608 218.53 218.53 0 0 1-12.062 3.547 4.002 4.002 0 1 0 1.013 7.871zm-14.25-4.882c-46.298 8.716-77.082-4.029-94.75-16.257a3.999 3.999 0 1 0-4.552 6.578c14.605 10.108 37.502 20.561 69.73 20.561 9.526 0 19.871-.914 31.054-3.02a3.999 3.999 0 0 0 3.19-4.671 4.003 4.003 0 0 0-4.672-3.191zM77.141 110.083a3.982 3.982 0 0 0 2.733 1.081 4 4 0 0 0 2.735-6.92c-3.733-3.497-5.615-5.951-5.675-6.029a4 4 0 0 0-6.396 4.805c.092.121 2.267 3.001 6.603 7.063zm-35.992 61.909a162.888 162.888 0 0 0-4.938-.763 4 4 0 0 0-1.1 7.924c1.563.217 5.149.783 5.373.783a4 4 0 0 0 .665-7.944zm12.64 10.985c13.524 3.751 45.748 15.723 52.875 45.778a4.002 4.002 0 0 0 4.815 2.969 4 4 0 0 0 2.969-4.815c-3.121-13.162-10.671-24.582-22.441-33.944-9.71-7.724-22.186-13.843-36.079-17.697a4 4 0 0 0-2.139 7.709zm56.526 59.183a4.001 4.001 0 0 0-5.311 1.948 20.124 20.124 0 0 1-4.093 5.843 4 4 0 1 0 5.636 5.677 28.13 28.13 0 0 0 5.715-8.157 4 4 0 0 0-1.947-5.311zm-20.06 13.308c-8.356 1.642-17.778-1.182-24.588-7.365-12.756-11.582-12.75-24.255-8.729-29.174 3.817-4.669 8.713-5.013 12.147-4.479 6.578 1.022 13.085 6.143 15.473 12.175a4 4 0 1 0 7.438-2.944c-3.473-8.774-12.187-15.66-21.683-17.136-7.773-1.208-14.724 1.392-19.57 7.321-10.192 12.469-.554 30.991 9.545 40.16 6.995 6.351 16.232 9.895 25.219 9.894 2.12 0 4.228-.197 6.288-.602a4.001 4.001 0 0 0-1.54-7.85z"/><path d="M82.824 236.937c-2.256 1.781-4.846 1.359-6.622.692-3.652-1.372-6.874-4.924-7.496-8.263a4 4 0 1 0-7.865 1.465c1.129 6.061 6.289 11.936 12.547 14.287 1.924.723 3.86 1.08 5.739 1.08 3.157 0 6.152-1.008 8.651-2.98a4 4 0 0 0-4.954-6.281zm26.234-64.045a4 4 0 0 0-5.409 5.895c10.774 9.886 29.278 29.985 32.162 53.524 1.465 11.963-1.974 23.543-9.683 32.606-3.238 3.808-6.859 6.886-10.763 9.15a4 4 0 0 0 2.011 7.461c.681 0 1.372-.174 2.003-.541 4.693-2.722 9.014-6.385 12.843-10.887 9.176-10.787 13.271-24.552 11.53-38.762-3.196-26.086-23.109-47.815-34.694-58.446zm-15.047-2.058a3.996 3.996 0 0 0 5.595-.83 3.999 3.999 0 0 0-.831-5.595 130.762 130.762 0 0 0-5.871-4.108 4 4 0 0 0-4.407 6.677 122.593 122.593 0 0 1 5.514 3.856zm57.574 2.742a4 4 0 0 0-6.576 4.555c.312.451 30.974 45.477 13.988 80.185a4 4 0 0 0 7.186 3.516c7.945-16.236 7.9-36.706-.13-59.195-5.964-16.7-14.125-28.565-14.468-29.061zm106.144 24.029c2.204-1.072 3.393 3.135 3.063 8.028a4 4 0 0 0 7.982.539c.482-7.146-1.438-12.739-5.267-15.344-2.692-1.832-5.965-1.991-9.21-.45a4 4 0 0 0-1.897 5.33c.948 1.996 3.344 2.863 5.329 1.897zm-38.677 29.898a96.089 96.089 0 0 0-.563 5.801 4 4 0 0 0 7.983.532c.117-1.762.291-3.552.517-5.322a4 4 0 0 0-7.937-1.011zm-3.495-56.957a4 4 0 1 0 6.705 4.363c11.387-17.501 23.308-27.803 36.441-31.495a4 4 0 0 0-2.164-7.701c-15.084 4.24-28.491 15.634-40.982 34.833zm-8.577 42.822a4 4 0 0 0-7.861-1.483c-6.977 36.974 4.454 68.118 4.943 69.425a4 4 0 0 0 5.145 2.342 4.003 4.003 0 0 0 2.348-5.146c-.112-.3-11.122-30.441-4.575-65.138zM271.124 0c-15.738 0-28.542 12.804-28.542 28.542 0 15.738 12.804 28.542 28.542 28.542 15.737 0 28.541-12.804 28.541-28.542C299.665 12.804 286.861 0 271.124 0zm0 49.083c-11.327 0-20.542-9.215-20.542-20.542S259.797 8 271.124 8c11.326 0 20.541 9.215 20.541 20.542s-9.215 20.541-20.541 20.541z"/></svg>