<svg xmlns="http://www.w3.org/2000/svg" viewBox="0 0 395.299 395.299"><path d="M340.412 387.299h-71.444v-36.17h15.795a4 4 0 0 0 4-4v-34.354a4 4 0 0 0-4-4h-17.02l-40.783-93.067c52.141-10.867 94.619-50.649 108.728-102.215a3.999 3.999 0 0 0-3.859-5.055h-59.647l-70.528-70.527V28.74c6.137-1.749 10.648-7.394 10.648-14.084 0-8.08-6.574-14.654-14.654-14.654s-14.654 6.574-14.654 14.654c0 6.694 4.517 12.341 10.659 14.086v9.167l-70.529 70.528H63.469a3.999 3.999 0 0 0-3.858 5.056c14.203 51.844 56.492 91.317 108.733 102.199l-40.789 93.082h-17.02a4 4 0 0 0-4 4v34.354a4 4 0 0 0 4 4h15.795v36.17H54.887a4 4 0 0 0 0 8h285.525a4 4 0 0 0 0-7.999zM197.654 51.19l20.978 57.246h-41.956l20.978-57.246zm29.499 57.247L207.651 55.22l53.218 53.217h-33.716zm-36.158-93.783c0-3.669 2.985-6.654 6.654-6.654s6.654 2.985 6.654 6.654-2.985 6.654-6.654 6.654-6.654-2.985-6.654-6.654zm-3.337 40.565l-19.502 53.218h-33.717l53.219-53.218zm138.822 61.218a132.244 132.244 0 0 1-1.711 5.019H70.525a134.56 134.56 0 0 1-1.707-5.019H326.48zM73.698 129.455h247.897c-17.555 40.268-54.253 70.236-97.918 78.757l-2.061-4.703c-4.234-9.662-13.417-15.664-23.966-15.664s-19.732 6.002-23.966 15.664l-2.06 4.7c-43.78-8.546-80.358-38.329-97.926-78.754zM181.01 206.72c2.939-6.708 9.315-10.875 16.639-10.875s13.7 4.167 16.639 10.875l44.721 102.055h-57.36V230.66c6.14-1.747 10.654-7.393 10.654-14.084 0-8.08-6.574-14.654-14.654-14.654s-14.654 6.574-14.654 14.654c0 6.692 4.514 12.338 10.654 14.084v78.115h-57.36L181.01 206.72zm16.639 16.509c-3.669 0-6.654-2.984-6.654-6.653s2.985-6.654 6.654-6.654 6.654 2.985 6.654 6.654-2.985 6.653-6.654 6.653zm-83.114 93.545h166.228v26.354H114.535v-26.354zm146.433 34.355v12.731H134.33v-12.731h126.638zm-126.638 36.17V371.86h126.638v15.438H134.33z"/></svg>