<svg xmlns="http://www.w3.org/2000/svg" viewBox="0 0 337.9 337.9"><path d="M304.834 260.561h-15.703c24.448-28.597 37.82-64.67 37.82-102.561 0-87.121-70.878-158-158-158-42.235 0-81.91 16.326-111.715 45.971C27.388 75.657 10.95 115.23 10.95 157.4c0 38.254 13.376 74.537 37.83 103.16H33.076a4 4 0 0 0-4 4v69.34a4 4 0 0 0 4 4h271.758a4 4 0 0 0 4-4v-69.34a4 4 0 0 0-4-3.999zm-38.175 0l16.144-28.211 7.811 13.408a151.435 151.435 0 0 1-12.219 14.803h-11.736zm-186.952 0l-18.344-32.21h62.373l-18.152 32.21H79.707zm89.244-227.123l31.73 54.212h-62.745l31.015-54.212zm-37.764 49.899L99.847 29.3h62.255l-30.915 54.037zm152.142 132.918L251.942 161.4h62.347l-30.96 54.855zM175.847 161.4h62.347l-30.961 54.854-31.386-54.854zm-76.095 0h62.347l-30.961 54.854L99.752 161.4zm69.167-11.945L137.283 95.65h62.701l-31.065 53.805zm37.843-49.546L238.07 153.4h-62.191l30.883-53.491zM161.958 153.4H99.799l30.867-53.219 31.292 53.219zm90 0l30.899-53.764 31.324 53.764h-62.223zm-6.944-3.972L213.539 95.65h62.382l-30.907 53.778zm-69.04-119.827h62.191l-30.883 53.491-31.308-53.491zM92.823 149.482L61.025 95.65h63.022l-31.224 53.832zm-38.252-49.028L85.847 153.4H23.72l30.851-52.946zM86.004 161.4l-30.961 54.854L23.657 161.4h62.347zm6.875 4.096l31.386 54.855H61.917l30.962-54.855zm76.095 0l31.386 54.855h-62.348l30.962-54.855zm76.095 0l31.386 54.855h-62.348l30.962-54.855zm73.372 4.825c-1.982 24.385-9.828 47.664-22.843 68.099l-7.92-13.595 30.763-54.504zm-30.962-78.642l8.053-14.074c12.567 19.717 20.649 42.552 22.818 67.062l-30.871-52.988zm-73.591-4.029l31.395-54.378 31.684 54.378h-63.079zm-38.111-66.049l7.391-12.922a148.82 148.82 0 0 1 48.161 12.922h-55.552zm-68.974-.301c15.033-6.798 31.182-11.086 47.922-12.637L162.09 21.3h-55.287zm17.638 66.35H61.978l30.878-54.459 31.585 54.459zM19.482 144.784c2.009-24.22 9.782-47.234 22.67-67.436l8.311 14.267-30.981 53.169zm30.702 79.087l-7.918 14.443c-12.924-20.377-20.742-43.644-22.774-68.084l30.692 53.641zm80.43 8.57l16.14 28.119h-31.986l15.846-28.119zm25.364 28.12l-18.488-32.21h62.311l-18.288 32.21h-25.535zm50.726-28.165l16.285 28.164h-32.276l15.991-28.164zm25.526 28.165l-18.624-32.21h62.269l-18.432 32.21H232.23zm58.296-190.314l-7.154 12.504-27.233-46.739a151.293 151.293 0 0 1 34.387 34.235zM174.279 8.105l-5.26 9.196-5.362-9.2c1.76-.06 3.523-.101 5.293-.101 1.785 0 3.559.043 5.329.105zM62.877 51.643a151.15 151.15 0 0 1 19.682-16.509L55.066 83.623l-7.92-13.594a150.686 150.686 0 0 1 15.731-18.386zM47.308 245.759l7.241-13.209 15.952 28.011H59.515a150.262 150.262 0 0 1-12.207-14.802zM300.834 329.9H37.076v-61.34h263.758v61.34z"/><path d="M47.955 290.063h242a4 4 0 0 0 0-8h-242a4 4 0 0 0 0 8zm0 26.334h242a4 4 0 0 0 0-8h-242a4 4 0 0 0 0 8z"/></svg>