<svg xmlns="http://www.w3.org/2000/svg" viewBox="0 0 409.268 409.268"><path d="M191.851 283.893a4 4 0 0 0-4 4v23.519a4 4 0 0 0 8 0v-23.519a4 4 0 0 0-4-4zm29.576 29.283v-24.693a4 4 0 0 0-8 0v24.693a4 4 0 0 0 8 0zm-.539 26.043a6.593 6.593 0 0 1-1.708.235 4 4 0 0 0 0 8 14.58 14.58 0 0 0 3.788-.511 4 4 0 0 0-2.08-7.724z"/><path d="M409.268 356.096c0-7.738-3.633-14.807-9.704-19.28a26.49 26.49 0 0 0 2.648-11.588c0-9.37-4.868-17.619-12.203-22.368.103-.961.157-1.933.157-2.91 0-15.015-12.212-27.23-27.222-27.23-14.286 0-26.028 11.069-27.128 25.082-12.559 2.138-22.154 13.092-22.154 26.251 0 2.251.277 4.461.828 6.608a14.6 14.6 0 0 0-7.093 9.016 28.622 28.622 0 0 0-3.552-.222c-12.41 0-23.178 8.059-26.956 19.458-3.151-1.125-6.515-1.527-10.035-1.02-2.271-8.326-9.81-14.322-18.865-14.322-.375 0-.749.011-1.12.031.081-.627.123-1.265.123-1.911 0-7.988-6.457-14.497-14.426-14.582-2.255-5.224-7.466-8.82-13.387-8.82a4 4 0 0 0 0 8 6.59 6.59 0 0 1 6.516 5.714 4 4 0 0 0 5.002 3.342 6.666 6.666 0 0 1 1.712-.236 6.59 6.59 0 0 1 6.583 6.583 6.54 6.54 0 0 1-4.2 6.128c-1.131.44-2.026 1.363-2.364 2.528-.585 2.018.87 4.053.87 4.053a4 4 0 0 0 6.339.748c2.211-2.307 5.177-3.577 8.352-3.577 6.334 0 11.413 4.965 11.563 11.304a4 4 0 0 0 5.395 3.655c.546-.203 2.594-.848 4.798-.848 2.731 0 5.364.828 7.612 2.396a4.003 4.003 0 0 0 6.256-2.785c1.273-10.169 9.972-17.837 20.233-17.837 2.02 0 4.02.297 5.944.883a4.001 4.001 0 0 0 5.144-4.218 6.928 6.928 0 0 1-.034-.664c0-2.21 1.115-4.184 2.838-5.383 3.324 4.813 8.73 8.035 14.823 8.435a3.999 3.999 0 0 0 .525-7.982c-4.4-.29-8.119-3.097-9.872-7.005-.434-.967-1.552-3.592-1.552-7.467 0-10.275 8.36-18.636 18.636-18.636 5.031 0 9.709 1.971 13.187 5.472-5.125 8.939-3.899 20.556 3.729 28.183.78.781 1.805 1.172 2.828 1.172s2.048-.391 2.828-1.172a3.997 3.997 0 0 0 0-5.656c-5.883-5.884-6.002-15.382-.358-21.413l.429-.456a18.61 18.61 0 0 1 12.635-4.954c10.276 0 18.637 8.36 18.637 18.636 0 3.836-1.159 7.521-3.352 10.657a3.997 3.997 0 0 0 1.503 5.876c5.492 2.722 8.904 8.214 8.904 14.335 0 7.27-4.905 13.63-11.928 15.468a4.002 4.002 0 0 0-2.829 4.983 16.296 16.296 0 0 1 .642 4.886H22.115c-.002-.116.011-1.16.042-1.565.084-1.121.285-2.233.6-3.321a4 4 0 0 0-2.829-4.983C12.905 369.726 8 363.366 8 356.096c0-4.764 2.074-9.14 5.579-12.133a35.14 35.14 0 0 1 1.559-1.17c5.725-3.737 13.838-3.688 18.959 1.432.781.781 1.804 1.172 2.828 1.172s2.047-.391 2.829-1.172a4 4 0 0 0 0-5.656c-6.196-6.197-15.128-8.003-22.941-5.459a18.511 18.511 0 0 1-1.757-7.882c0-10.275 8.36-18.636 18.636-18.636 4.524 0 8.839 1.663 12.211 4.598a23.287 23.287 0 0 0-2.396 10.323c0 6.248 2.436 12.125 6.859 16.548.781.781 1.804 1.172 2.828 1.172s2.047-.391 2.829-1.172a4 4 0 0 0 0-5.656 15.305 15.305 0 0 1-4.516-10.892c0-3.975 1.511-7.714 4.242-10.59 3.481-3.523 8.173-5.506 13.22-5.506 10.276 0 18.636 8.36 18.636 18.636 0 2.572-.517 5.067-1.537 7.414a4.002 4.002 0 0 0 2.934 5.526c2.56.479 4.519 2.415 5.138 4.848-8.568 4.068-14.158 13.151-13.304 23.143a4 4 0 0 0 7.971-.681c-.62-7.256 3.928-13.771 10.57-15.941 2.372-.746 5.243-.906 6.044-.906 10.261 0 18.959 7.668 20.233 17.837a4 4 0 0 0 6.255 2.785c2.325-1.621 5.282-2.425 8.215-2.361 1.812 0 3.68.514 4.603.867l.012.004c3.393 1.458 5.776 4.832 5.776 8.752a4 4 0 0 0 8 0c0-6.341-3.397-11.89-8.456-14.966 1.26-5.034 5.84-8.803 11.217-8.803 3.175 0 6.142 1.271 8.353 3.577a4 4 0 0 0 6.339-.748s1.634-2.233.87-4.053c-.47-1.118-1.233-2.088-2.364-2.528a6.54 6.54 0 0 1-4.2-6.128 6.59 6.59 0 0 1 6.583-6.583c.55 0 1.126.079 1.711.236a4 4 0 0 0 5.002-3.341 6.591 6.591 0 0 1 6.516-5.715 4 4 0 0 0 0-8c-5.92 0-11.13 3.597-13.386 8.82-7.969.085-14.426 6.594-14.426 14.582 0 .646.042 1.284.123 1.911a19.869 19.869 0 0 0-1.121-.031c-8.894 0-16.514 6.087-18.84 14.313a21.312 21.312 0 0 0-10.06 1.028c-3.778-11.4-14.546-19.458-26.956-19.458a28.43 28.43 0 0 0-3.552.222 14.61 14.61 0 0 0-7.093-9.016c.55-2.146.828-4.357.828-6.608 0-14.687-11.949-26.636-26.636-26.636-6.935 0-13.405 2.61-18.313 7.283a26.603 26.603 0 0 0-16.964-6.107c-14.688 0-26.636 11.949-26.636 26.636 0 4.057.907 7.996 2.648 11.588C3.633 341.29 0 348.358 0 356.096a24.005 24.005 0 0 0 14.302 21.953 24.236 24.236 0 0 0 .373 8.236 3.999 3.999 0 0 0 3.908 3.146h372.102a4 4 0 0 0 3.908-3.147c.374-1.715.563-3.464.563-5.2 0-1.016-.063-2.029-.191-3.035a24.005 24.005 0 0 0 14.303-21.953zM358.612 304.7a26.29 26.29 0 0 0-14.738-7.043c1.138-9.524 9.249-16.937 19.071-16.937 10.417 0 18.906 8.339 19.194 18.693-2.1-.534-4.299-.82-6.564-.82a26.594 26.594 0 0 0-16.963 6.107z"/><path d="M186.813 373.23a4 4 0 0 0 3.948 4.675 4.002 4.002 0 0 0 3.938-3.326 14.795 14.795 0 0 1 12.361-12.142 14.799 14.799 0 0 1 14.866 6.876 4 4 0 0 0 6.811-4.197 22.798 22.798 0 0 0-22.89-10.587c-.365.056-.721.137-1.08.21-2.276-7.815-9.263-13.504-17.499-14.047-2.205-.155-4.109 1.524-4.254 3.729a4 4 0 0 0 3.729 4.254c5.12.337 9.419 4.039 10.525 9.025a22.767 22.767 0 0 0-10.455 15.53zm-9.514-91.92h54.68a4 4 0 0 0 4-4v-59.089c0-.744-.207-1.473-.599-2.105l-13.953-22.537V58.861a4.01 4.01 0 0 0-.242-1.372l-12.788-35.025a4 4 0 0 0-7.515 0l-12.788 35.025a3.987 3.987 0 0 0-.243 1.372V193.58l-13.953 22.536a3.995 3.995 0 0 0-.599 2.105v59.089a4 4 0 0 0 4 4zm36.128-218.449v5.229h-17.576v-5.229h17.576zM195.851 273.31V76.09h17.576v197.22h-17.576zm32.128-53.951v53.951h-6.552v-64.533l6.552 10.582zm-23.34-183.86l7.069 19.362H197.57l7.069-19.362zm-23.34 183.86l6.552-10.582v64.533h-6.552v-53.951z"/></svg>