<svg xmlns="http://www.w3.org/2000/svg" viewBox="0 0 265.423 265.423"><path d="M178.689 144.714c52.71-52.71 86.132-138.415 86.463-139.274a4.002 4.002 0 0 0-5.171-5.172c-.86.332-86.565 33.754-139.275 86.464-8.581 8.581-15.959 16.57-22.168 24.013l-10.158-2.289c7.048-17.806 10.429-32.508 10.662-33.541a4.001 4.001 0 0 0-5.869-4.364c-1.579.892-38.902 22.154-60.387 51.041-11.011 14.805-16.817 26.156-17.75 34.704a4.002 4.002 0 0 0 1.589 3.644l18.829 14.003a4.005 4.005 0 0 0 3.947.474c6.105-2.584 12.977-8.438 20.85-17.764l12.899 2.908a32.727 32.727 0 0 0-.027 2.69l-14.11 14.11a4 4 0 0 0 0 5.656l24.395 24.396a3.989 3.989 0 0 0 2.829 1.172 3.992 3.992 0 0 0 2.829-1.172l14.12-14.119c.362.012.724.025 1.091.025.522 0 1.05-.016 1.581-.041l2.91 12.893c-9.325 7.873-15.179 14.745-17.762 20.849a3.998 3.998 0 0 0 .474 3.946l14.003 18.828a4 4 0 0 0 3.643 1.59c8.547-.933 19.898-6.738 34.704-17.749 28.887-21.485 50.15-58.809 51.042-60.387a4 4 0 0 0-4.365-5.869c-1.032.232-15.736 3.614-33.544 10.663l-2.286-10.138c7.428-6.211 15.407-13.586 24.012-22.19zm41.988-68.44a110.181 110.181 0 0 1-31.527-31.527c26.944-16.301 52.071-27.837 64.873-33.348-5.508 12.8-17.041 37.926-33.346 64.875zm-94.314 16.113c16.565-16.565 36.509-31.196 55.974-43.438a118.255 118.255 0 0 0 34.137 34.138c-12.24 19.459-26.872 39.4-43.443 55.971-30.455 30.455-52.945 45.26-68.755 45.26-6.154 0-11.269-2.249-16.097-7.076-7.308-7.308-8.891-15.574-5.132-26.806 4.916-14.692 19.489-34.221 43.316-58.049zm-88.09 73.679l-14.916-11.093c1.527-6.898 6.847-16.506 15.849-28.609 14.469-19.453 37.249-35.72 49.478-43.65-4.078 13.993-13.103 40.49-27.571 59.944-9.003 12.104-16.673 19.962-22.84 23.408zm27.542-16.362c.568-.744 1.138-1.495 1.716-2.272 7.214-9.7 13.09-20.861 17.73-31.478l7.704 1.736c-8.757 11.369-14.55 21.378-17.504 30.208a51.749 51.749 0 0 0-1.083 3.737l-8.563-1.931zm20.422 48.222l-18.738-18.738 7.511-7.511c1.554 4.026 4.049 7.758 7.512 11.221 3.483 3.483 7.203 5.977 11.222 7.521l-7.507 7.507zm52.818 28.288c-12.104 9.002-21.709 14.322-28.608 15.849l-11.093-14.915c3.447-6.167 11.305-13.837 23.409-22.839 19.454-14.47 45.951-23.494 59.944-27.571-7.932 12.227-24.198 35.007-43.652 49.476zm10.41-46.054c-10.616 4.64-21.778 10.515-31.477 17.729-.778.579-1.53 1.149-2.275 1.718l-1.928-8.543c9.786-2.453 20.97-8.558 33.95-18.573l1.73 7.669z"/><path d="M172.264 113.241a19.371 19.371 0 0 0 13.789-5.712c3.684-3.683 5.712-8.579 5.712-13.788s-2.028-10.105-5.711-13.788a19.37 19.37 0 0 0-13.789-5.712 19.369 19.369 0 0 0-13.788 5.712c-3.684 3.683-5.712 8.579-5.712 13.788s2.028 10.105 5.712 13.788a19.363 19.363 0 0 0 13.787 5.712zm-8.132-27.632a11.424 11.424 0 0 1 8.131-3.368c3.072 0 5.96 1.196 8.132 3.368 2.172 2.172 3.368 5.061 3.368 8.132s-1.196 5.96-3.368 8.132a11.425 11.425 0 0 1-8.132 3.368 11.427 11.427 0 0 1-8.132-3.368c-2.172-2.172-3.368-5.061-3.368-8.132s1.197-5.96 3.369-8.132zM35.502 194.423c-19.575 0-35.5 15.925-35.5 35.5v31.5a4 4 0 0 0 4 4h31.5c19.575 0 35.5-15.925 35.5-35.5s-15.925-35.5-35.5-35.5zM46.16 207.12c6.697 0 12.145 5.448 12.145 12.146 0 6.696-5.448 12.145-12.145 12.145H34.015v-12.145c0-6.698 5.448-12.146 12.145-12.146zm-10.658 50.303h-27.5v-27.5c0-15.036 12.132-27.285 27.12-27.49-5.478 3.604-9.108 9.799-9.108 16.833v16.145a4 4 0 0 0 4 4H46.16c7.034 0 13.229-3.63 16.833-9.108-.205 14.987-12.454 27.12-27.491 27.12zM215.69 68.984a3.999 3.999 0 0 0 5.577-.953c2.309-3.259 6.74-11.083 13.172-23.255a4 4 0 0 0-7.073-3.738c-7.81 14.78-11.178 20.323-12.627 22.37a3.998 3.998 0 0 0 .951 5.576zm18.547-32.428a4 4 0 0 0 5.391-1.716c2.243-4.338 3.743-7.294 3.743-7.294a4 4 0 0 0-7.134-3.621c-.003.007-1.492 2.939-3.716 7.241a4 4 0 0 0 1.716 5.39z"/></svg>