<svg xmlns="http://www.w3.org/2000/svg" viewBox="0 0 379.581 379.581"><path d="M372.263 7.317c-9.934-9.934-28.202-9.752-54.296.54-23.346 9.208-52.19 26.355-83.503 49.609a139.956 139.956 0 0 0-74.375-4.153c-26.16 5.668-50.038 18.713-69.051 37.726-19.013 19.013-32.058 42.89-37.726 69.051a139.956 139.956 0 0 0 4.152 74.375c-23.253 31.313-40.4 60.157-49.609 83.503-10.292 26.094-10.474 44.361-.54 54.295 4.879 4.878 11.767 7.317 20.605 7.317 9.159 0 20.412-2.62 33.691-7.857 23.343-9.207 52.183-26.35 83.489-49.598a139.77 139.77 0 0 0 44.66 7.329c9.94 0 19.908-1.06 29.729-3.188 26.16-5.667 50.037-18.713 69.05-37.726 19.014-19.013 32.06-42.89 37.727-69.051a139.953 139.953 0 0 0-4.152-74.374c23.253-31.312 40.4-60.157 49.608-83.504 10.293-26.092 10.476-44.36.541-54.294zM61.132 161.784c5.342-24.656 17.64-47.163 35.564-65.087 17.924-17.925 40.432-30.223 65.087-35.564 24.02-5.205 48.934-3.628 72.051 4.558a130.5 130.5 0 0 1 25.342 12.182 132.03 132.03 0 0 1 23.708 18.825 132.297 132.297 0 0 1 17.566 21.742c-16.841 30.031-46.095 66.83-80.639 101.373-34.546 34.545-71.343 63.799-101.373 80.639a132.249 132.249 0 0 1-21.742-17.565 132.06 132.06 0 0 1-18.826-23.71 130.49 130.49 0 0 1-12.181-25.341c-8.185-23.117-9.761-48.032-4.557-72.052zm243.59-51.349a140.733 140.733 0 0 0-16.181-19.396 140.587 140.587 0 0 0-19.395-16.18c21.271-10.734 37.206-13.613 43.198-7.622 5.991 5.993 3.111 21.927-7.622 43.198zM74.859 269.146a140.56 140.56 0 0 0 16.18 19.396 140.658 140.658 0 0 0 19.395 16.18c-21.272 10.734-37.205 13.613-43.196 7.621-5.992-5.992-3.113-21.926 7.621-43.197zm243.59-51.349c-5.342 24.656-17.64 47.163-35.564 65.087-17.925 17.925-40.432 30.223-65.088 35.564a131.98 131.98 0 0 1-64.826-2.25c28.493-21.809 58.336-48.13 86.717-76.51 28.381-28.381 54.702-58.225 76.511-86.717a132.004 132.004 0 0 1 2.25 64.826zm45.832-159.119c-9.117 23.115-26.346 51.934-49.823 83.339-22.446 30.027-50.258 61.845-80.426 92.014-30.169 30.168-61.987 57.979-92.015 80.427-31.405 23.477-60.224 40.706-83.339 49.823-22.212 8.76-38.443 9.585-45.704 2.325-7.262-7.261-6.436-23.492 2.325-45.703 8.549-21.673 24.228-48.361 45.503-77.494 2.58 6.212 5.62 12.23 9.066 17.988-14.787 27.677-17.663 47.227-8.287 56.603 3.608 3.607 8.721 5.402 15.225 5.402 10.809 0 25.457-4.958 43.409-14.786 31.036-16.988 69.399-47.294 105.253-83.148 35.854-35.853 66.16-74.216 83.149-105.253 15.742-28.754 18.986-49.029 9.383-58.634-9.373-9.375-28.926-6.5-56.603 8.288a138.528 138.528 0 0 0-17.988-9.066c29.133-21.275 55.82-36.955 77.494-45.503 22.209-8.76 38.442-9.587 45.704-2.325 7.261 7.261 6.435 23.492-2.326 45.703z"/></svg>