<svg xmlns="http://www.w3.org/2000/svg" viewBox="0 0 284.346 284.346"><path d="M271.771 255.494a4.004 4.004 0 0 0-3.229-2.723l-11.8-1.715-5.276-10.692a4 4 0 0 0-7.174-.001l-5.277 10.692-11.8 1.715a3.999 3.999 0 0 0-2.216 6.823l8.538 8.323-2.016 11.752a3.997 3.997 0 0 0 1.591 3.912 3.998 3.998 0 0 0 4.213.305l10.555-5.548 10.554 5.548a4.005 4.005 0 0 0 4.213-.305 4 4 0 0 0 1.591-3.912l-2.016-11.752 8.538-8.323a4 4 0 0 0 1.011-4.099zm-16.64 8.162a4.001 4.001 0 0 0-1.15 3.541l1.001 5.836-5.241-2.755a4.004 4.004 0 0 0-3.723 0l-5.242 2.756 1.001-5.837a4.001 4.001 0 0 0-1.15-3.541l-4.24-4.133 5.86-.852a4.001 4.001 0 0 0 3.012-2.188l2.621-5.31 2.62 5.31a3.997 3.997 0 0 0 3.012 2.188l5.86.852-4.241 4.133zM34.371 32.236a524.304 524.304 0 0 1 11.933 7.221 3.997 3.997 0 0 0 5.511-1.278 4 4 0 0 0-1.277-5.511 536.908 536.908 0 0 0-12.117-7.333 4 4 0 1 0-4.05 6.901zm75.892 43.739a529.915 529.915 0 0 0-43.576-32.823 4 4 0 1 0-4.476 6.63 521.898 521.898 0 0 1 42.916 32.326 519.97 519.97 0 0 1 66.573 66.965 517.59 517.59 0 0 1 53.339 78.028 4 4 0 1 0 6.99-3.89 525.705 525.705 0 0 0-54.165-79.237 528.005 528.005 0 0 0-67.601-67.999zM91.035 93.832C70.855 77.905 47.024 63.099 18.18 48.567a4 4 0 0 0-3.6 7.144c28.358 14.287 51.746 28.81 71.499 44.399.734.58 1.607.86 2.476.86a3.998 3.998 0 0 0 2.48-7.138zm17.95 13.911a4 4 0 1 0-5.037 6.215 523.238 523.238 0 0 1 8.473 7.018 3.982 3.982 0 0 0 2.582.946 4.001 4.001 0 0 0 2.586-7.054 539.44 539.44 0 0 0-8.604-7.125z"/><path d="M154.343 149.108a528.087 528.087 0 0 0-21.655-20.96 4 4 0 1 0-5.396 5.906 519.177 519.177 0 0 1 21.325 20.641 521.483 521.483 0 0 1 64.784 81.284 3.998 3.998 0 0 0 5.53 1.193 4 4 0 0 0 1.192-5.53 529.697 529.697 0 0 0-65.78-82.534zM52.349 7.367c40.877 26.235 78.917 60.094 113.063 100.636a3.993 3.993 0 0 0 3.062 1.423 4 4 0 0 0 3.057-6.576C136.867 61.693 98.222 27.303 56.67.634a4 4 0 1 0-4.321 6.733zM229.794 204.21a4 4 0 1 0 7.126-3.634c-14.82-29.073-32.82-57.027-53.499-83.086a4 4 0 1 0-6.267 4.973c20.35 25.643 38.06 53.146 52.64 81.747zm6.773 13.739a499.352 499.352 0 0 1 3.048 6.559 4 4 0 1 0 7.279-3.317 509.585 509.585 0 0 0-3.097-6.666 4 4 0 0 0-7.23 3.424z"/></svg>