<svg xmlns="http://www.w3.org/2000/svg" viewBox="0 0 456.343 456.343"><path d="M16.422 209.554C7.367 209.554 0 216.921 0 225.976s7.367 16.421 16.422 16.421 16.421-7.367 16.421-16.421c0-9.055-7.366-16.422-16.421-16.422zm0 24.843c-4.644 0-8.422-3.778-8.422-8.421 0-4.644 3.778-8.422 8.422-8.422s8.421 3.778 8.421 8.422c0 4.643-3.778 8.421-8.421 8.421zm390.955-21.738c-7.343 0-13.316 5.974-13.316 13.316 0 7.342 5.974 13.316 13.316 13.316s13.316-5.974 13.316-13.316c0-7.342-5.973-13.316-13.316-13.316zm0 18.633a5.322 5.322 0 0 1-5.316-5.316c0-2.932 2.385-5.316 5.316-5.316s5.316 2.385 5.316 5.316a5.322 5.322 0 0 1-5.316 5.316z"/><circle cx="448.191" cy="225.976" r="8.152"/><path d="M240.343 225.976c0 9.911 8.063 17.974 17.974 17.974s17.975-8.063 17.975-17.974-8.063-17.975-17.975-17.975-17.974 8.064-17.974 17.975zm27.948 0c0 5.5-4.475 9.974-9.975 9.974-5.499 0-9.974-4.475-9.974-9.974 0-5.5 4.475-9.975 9.974-9.975 5.5 0 9.975 4.475 9.975 9.975z"/><path d="M338.17 186.929c-9.102 0-17.48 3.139-24.127 8.38l-5.652-2.586c-6.614-3.038-10.463-10.176-9.356-17.364l1.195-7.832a3.999 3.999 0 0 0-3.753-4.598l-10.406-.52c-6.831-.351-12.781-4.965-14.808-11.488l-2.472-7.926a3.993 3.993 0 0 0-2.056-2.399 3.994 3.994 0 0 0-3.155-.159l-9.626 3.575c-6.072 2.269-12.93.719-17.459-3.945l-6.496-6.708a4 4 0 0 0-5.748.001l-6.494 6.706a16.347 16.347 0 0 1-17.458 3.944l-9.63-3.573a4 4 0 0 0-5.211 2.564l-2.459 7.921c-2.035 6.521-7.985 11.138-14.802 11.488l-10.411.521a4 4 0 0 0-3.754 4.598l1.195 7.832c1.097 7.188-2.756 14.328-9.365 17.363l-8.885 4.07a4.002 4.002 0 0 0-1.708 5.786l4.508 7.075a16.355 16.355 0 0 1-1.986 20.151l-6.081 6.341a4 4 0 0 0 .568 6.028l7.614 5.415c6.081 4.339 8.463 12.234 5.793 19.197l-2.875 7.489a4.004 4.004 0 0 0 2.765 5.314l9.941 2.485a16.35 16.35 0 0 1 12.369 14.718l.568 7.95a4 4 0 0 0 4.565 3.674l10.403-1.515a16.32 16.32 0 0 1 16.427 7.802l4.496 7.548a3.999 3.999 0 0 0 5.601 1.317l8.33-5.36c5.374-3.46 12.328-3.46 17.708-.001l8.317 5.359a3.998 3.998 0 0 0 5.601-1.311l4.508-7.549a16.317 16.317 0 0 1 16.433-7.805l10.399 1.514a4 4 0 0 0 4.566-3.674l.567-7.95c.505-7.086 5.472-13 12.359-14.718l9.938-2.484a4 4 0 0 0 2.766-5.309l-2.864-7.491a16.33 16.33 0 0 1 1.153-14.099c7.127 7.583 17.237 12.333 28.44 12.333 21.531 0 39.048-17.516 39.048-39.047s-17.513-39.048-39.044-39.048zm-37.066 82.718l1.252 3.274-5.559 1.389a24.31 24.31 0 0 0-18.402 21.911l-.261 3.656-6.136-.893a24.294 24.294 0 0 0-24.458 11.62l-2.386 3.995-4.843-3.121c-8.014-5.15-18.365-5.15-26.367.001l-4.847 3.119-2.379-3.994a24.304 24.304 0 0 0-24.455-11.621l-6.14.894-.262-3.662c-.767-10.551-8.167-19.354-18.411-21.904l-5.554-1.389 1.256-3.272c3.975-10.368.432-22.118-8.621-28.578l-3.844-2.734 2.876-2.999a24.336 24.336 0 0 0 2.958-29.987l-2.04-3.201 4.713-2.159c9.839-4.518 15.57-15.145 13.938-25.842l-.527-3.455 5.994-.3c10.151-.521 19.006-7.39 22.036-17.1l1.208-3.893 5.663 2.101a24.34 24.34 0 0 0 25.994-5.874l3.622-3.741 3.626 3.745c6.745 6.945 16.95 9.249 25.994 5.872l5.664-2.104 1.214 3.894c3.016 9.707 11.871 16.578 22.041 17.1l5.989.299-.526 3.45c-1.646 10.697 4.08 21.325 13.931 25.849l2.87 1.313c-5.499 6.73-8.805 15.319-8.805 24.667a38.805 38.805 0 0 0 5.521 19.989 24.328 24.328 0 0 0-3.537 23.685zm37.066-12.624c-17.119 0-31.047-13.928-31.047-31.047s13.928-31.047 31.047-31.047c17.12 0 31.048 13.928 31.048 31.047s-13.928 31.047-31.048 31.047z"/><path d="M227.125 164.024c-23.97 0-45.781 12.942-57.296 33.87-10.836 4.72-18.434 15.528-18.434 28.083 0 10.889 5.719 20.462 14.305 25.891 9.399 25.755 33.888 42.96 61.425 42.96 36.069 0 65.414-29.339 65.414-65.402s-29.346-65.402-65.414-65.402zm-67.731 61.952c0-12.472 10.146-22.618 22.618-22.618 12.471 0 22.618 10.146 22.618 22.618 0 12.471-10.146 22.618-22.618 22.618-12.471 0-22.618-10.147-22.618-22.618zm67.731 60.851a57.38 57.38 0 0 1-50.866-30.783c1.865.356 3.787.55 5.754.55 16.883 0 30.618-13.735 30.618-30.618s-13.735-30.618-30.618-30.618c-.373 0-.743.015-1.113.028 10.717-14.59 27.739-23.362 46.225-23.362 31.658 0 57.414 25.75 57.414 57.401s-25.757 57.402-57.414 57.402zm-108.2-97.912c-4.911-4.91-14.263-3.618-26.379 3.594a34.47 34.47 0 0 0-6.918-.701c-9.126 0-17.707 3.554-24.16 10.007-8.419 8.419-11.51 20.173-9.288 31.048-7.228 12.13-8.526 21.493-3.612 26.408 1.967 1.967 4.644 2.942 7.923 2.942 4.242 0 9.506-1.657 15.535-4.885a34.09 34.09 0 0 0 13.602 2.814c9.126 0 17.706-3.554 24.16-10.007 6.453-6.454 10.007-15.034 10.007-24.16 0-4.756-.974-9.361-2.812-13.597 5.729-10.698 6.451-18.954 1.942-23.463zm-51.8 18.558c4.942-4.943 11.514-7.665 18.503-7.665s13.561 2.722 18.503 7.665a26.322 26.322 0 0 1 3.739 4.713c-4.003 6.516-9.558 13.404-16.093 19.938-6.54 6.541-13.426 12.095-19.939 16.093a26.322 26.322 0 0 1-4.713-3.739c-10.202-10.202-10.202-26.802 0-37.005zm-12.899 46.142c-.979-.978-1.043-4.593 1.711-10.745a34.075 34.075 0 0 0 7.979 9.489c-5.506 2.283-8.77 2.178-9.69 1.256zm49.905-9.136c-4.942 4.942-11.513 7.664-18.502 7.664a26.42 26.42 0 0 1-4.602-.409c5.482-3.869 11.068-8.612 16.409-13.952 5.337-5.337 10.079-10.924 13.951-16.409.266 1.505.409 3.043.409 4.603-.001 6.989-2.722 13.56-7.665 18.503zm5.657-42.662a34.317 34.317 0 0 0-7.255-5.538c6.147-2.75 9.758-2.685 10.735-1.706.921.921 1.026 4.182-1.258 9.69a34.31 34.31 0 0 0-2.222-2.446z"/></svg>