<svg xmlns="http://www.w3.org/2000/svg" viewBox="0 0 396 396"><path d="M392 336.957h-18.636L331.265 234.36a4.002 4.002 0 0 0-2.116-2.154l-32.92-14.2v-.834a4 4 0 0 0-4-4h-26.173l-2.046-8.628h.851a3.998 3.998 0 0 0 3.721-5.469l-15.589-39.493a4.001 4.001 0 0 0-3.721-2.531h-5.21c11.111-11.732 17.524-27.462 17.524-43.808a63.574 63.574 0 0 0-8.567-31.893l-12.215-24.105C232.584 41.026 216.183 30.95 198 30.95s-34.584 10.076-42.804 26.295L142.981 81.35a63.574 63.574 0 0 0-8.567 31.893c0 4.752.558 9.449 1.599 14.015h-23.234a4 4 0 0 0-4 4v8.066C101.27 146.121 97 155.698 97 165.9s4.27 19.781 11.779 26.577v8.066a4 4 0 0 0 4 4h19.211l-2.046 8.628h-26.173a4 4 0 0 0-4 4v.834l-32.92 14.2a4.006 4.006 0 0 0-2.116 2.154L22.636 336.957H4a4 4 0 0 0-4 4c0 13.285 10.808 24.093 24.093 24.093h2.079c13.285 0 24.093-10.808 24.093-24.093a4 4 0 0 0-4-4H31.283l8.969-21.857 32.259-10.092h98.407l-2.165 14.822a4 4 0 0 0 3.958 4.578H194v12.549h-17.479a4 4 0 0 0-4 4c0 13.285 10.808 24.093 24.093 24.093h2.079c13.285 0 24.093-10.808 24.093-24.093a4 4 0 0 0-4-4H202v-12.549h21.289a4 4 0 0 0 3.958-4.578l-2.165-14.822h98.407l32.259 10.092 8.969 21.857h-14.981a4 4 0 0 0-4 4c0 13.285 10.808 24.093 24.093 24.093h2.079c13.285 0 24.093-10.808 24.093-24.093a4.002 4.002 0 0 0-4.001-4zM26.171 357.05h-2.079c-7.493 0-13.807-5.148-15.59-12.093H41.76c-1.782 6.944-8.095 12.093-15.589 12.093zm172.522 0h-2.079c-7.493 0-13.807-5.148-15.59-12.093h33.258c-1.782 6.944-8.096 12.093-15.589 12.093zm122.481-119.571l-24.946 31.307v-42.067l24.946 10.76zM198 230.312l-17.225-9.14h34.45L198 230.312zm-34.292-9.14l28.772 15.267-34.611 60.569h-31.737v-75.836h37.576zM194 249.902v47.105h-26.917L194 249.902zm8 0l26.917 47.105H202v-47.105zm1.521-13.464l28.772-15.267h37.576v75.836h-31.737l-34.611-60.569zm55.46-39.894h-7.456l-6.163-31.493h1.188l12.431 31.493zm-121.962 0l12.431-31.493h1.188l-6.163 31.493h-7.456zm7.883-66.753l30.18 27.26H163.81c-9.109-7.112-15.609-16.579-18.908-27.26zm-2.488-16.548c0-7.971 1.711-15.83 4.98-23.021h31.017v7.93l-35.98 15.669c-.002-.194-.017-.384-.017-.578zM194 54.193v28.028h-21.141l10.09-28.028H194zm19.051 0l10.09 28.028H202V54.193h11.051zm40.535 59.05c0 .193-.015.384-.017.577l-35.98-15.669v-7.93h31.017a55.674 55.674 0 0 1 4.98 23.022zm-75.175 36.033l-31.672-28.606 31.672-13.793v42.399zm8 7.775V90.222h23.179v66.829h-23.179zm31.178-50.174l31.672 13.793-31.672 28.606v-42.399zm-58.799 58.174h21.061l-2.641 31.493h-24.583l6.163-31.493zm29.089 0h20.243l2.641 31.493h-25.526l2.642-31.493zm30.912 31.493l-2.641-31.493h21.061l6.163 31.493h-24.583zm2.126-39.493l30.18-27.26c-3.298 10.681-9.799 20.148-18.908 27.26h-11.272zm12.751-96.189l10.824 21.359h-12.849l-10.09-28.028h7.856a40.438 40.438 0 0 1 4.259 6.669zm-12.675-14.669h-45.986C181.6 41.557 189.568 38.95 198 38.95s16.4 2.607 22.993 7.243zm-58.661 14.669a40.396 40.396 0 0 1 4.259-6.669h7.856l-10.09 28.028h-12.849l10.824-21.359zM105 165.9c0-5.008 1.333-9.817 3.779-14.016v28.032A27.78 27.78 0 0 1 105 165.9zm11.779-30.642h21.609a64.137 64.137 0 0 0 13.551 21.793h-5.21a4.001 4.001 0 0 0-3.721 2.531l-14.59 36.962h-11.639v-61.286zm23.433 69.286h115.576l2.046 8.628H138.166l2.046-8.628zm-40.441 64.242l-24.946-31.307 24.946-10.76v42.067zM71.9 297.008c-.405 0-.808.062-1.194.183l-26.507 8.293 25.353-61.785 30.221 37.926v15.384H71.9zm35.871-75.836h10.361v75.836h-10.361v-75.836zm69.566 95.236l1.665-11.4H194v11.4h-16.663zm41.326 0H202v-11.4h14.997l1.666 11.4zm69.566-19.4h-10.361v-75.836h10.361v75.836zm37.065.182a3.999 3.999 0 0 0-1.194-.183h-27.872v-15.384l30.221-37.926 25.353 61.785-26.508-8.292zm46.613 59.86h-2.079c-7.493 0-13.807-5.148-15.59-12.093h33.258c-1.782 6.944-8.096 12.093-15.589 12.093z"/><path d="M149.333 265.716c8.822 0 16-7.178 16-16s-7.178-16-16-16-16 7.178-16 16 7.178 16 16 16zm0-24c4.411 0 8 3.589 8 8s-3.589 8-8 8-8-3.589-8-8 3.589-8 8-8zm98.667-8c-8.822 0-16 7.178-16 16s7.178 16 16 16 16-7.178 16-16-7.178-16-16-16zm0 24c-4.411 0-8-3.589-8-8s3.589-8 8-8 8 3.589 8 8-3.589 8-8 8z"/></svg>