<svg xmlns="http://www.w3.org/2000/svg" viewBox="0 0 374.457 374.457"><path d="M295.032 101.74a22.167 22.167 0 0 0 15.779-6.536c8.701-8.701 8.701-22.858 0-31.558a22.167 22.167 0 0 0-15.779-6.537 22.17 22.17 0 0 0-15.779 6.536c-8.701 8.701-8.701 22.858 0 31.559a22.173 22.173 0 0 0 15.779 6.536zm-10.123-32.438a14.224 14.224 0 0 1 10.123-4.193c3.824 0 7.419 1.489 10.123 4.193 5.581 5.581 5.581 14.663 0 20.245a14.222 14.222 0 0 1-10.123 4.193 14.227 14.227 0 0 1-10.123-4.192c-5.581-5.583-5.581-14.665 0-20.246zm-79.592 99.838c-3.504-3.504-8.163-5.435-13.119-5.435s-9.615 1.93-13.119 5.435c-7.233 7.233-7.233 19.004 0 26.238 3.504 3.504 8.163 5.434 13.119 5.434s9.614-1.93 13.118-5.434c3.505-3.504 5.435-8.163 5.435-13.119s-1.93-9.615-5.434-13.119zm-5.657 20.581a10.485 10.485 0 0 1-7.462 3.09 10.49 10.49 0 0 1-7.463-3.09c-4.114-4.115-4.114-10.81 0-14.924a10.482 10.482 0 0 1 7.463-3.091c2.818 0 5.469 1.098 7.462 3.091 1.993 1.993 3.091 4.643 3.091 7.462s-1.098 5.469-3.091 7.462z"/><path d="M373.285 318.413L268.203 213.331a4 4 0 0 0-5.656 0L250.078 225.8l-8.31-8.31 30.934-30.934a59.895 59.895 0 0 0 14.869-60.187 60.434 60.434 0 0 0 17.796 2.696c16.01 0 31.06-6.234 42.378-17.552 11.326-11.326 17.563-26.384 17.563-42.4a59.875 59.875 0 0 0-4.223-22.151l10.536-10.536a4.002 4.002 0 0 0 0-5.658L343.688 2.834a4 4 0 0 0-5.656 0L327.496 13.37a59.894 59.894 0 0 0-22.151-4.222c-16.017 0-31.074 6.237-42.399 17.563a59.891 59.891 0 0 0-14.87 60.188 60.429 60.429 0 0 0-17.796-2.696c-16.009 0-31.06 6.233-42.378 17.552l-30.935 30.935-8.31-8.31 12.468-12.468a3.999 3.999 0 0 0 0-5.657L56.043 1.171a4 4 0 0 0-5.656 0L1.172 50.387a3.999 3.999 0 0 0 0 5.657l105.082 105.082a4 4 0 0 0 5.656 0l12.468-12.468 8.31 8.31-8.124 8.124-.002.001-.001.002-24.724 24.724a3.999 3.999 0 0 0 0 5.657l79.144 79.144a4 4 0 0 0 5.656 0l32.852-32.852 8.31 8.31-12.468 12.468a4.002 4.002 0 0 0 0 5.658l105.082 105.082c.78.781 1.805 1.171 2.828 1.171s2.048-.391 2.828-1.171l49.216-49.215a4.002 4.002 0 0 0 0-5.658zm-98.928-.497l43.559-43.559 20.946 20.947-43.559 43.558-20.946-20.946zm-26.603-26.603l43.559-43.558 20.946 20.946-43.559 43.558-20.946-20.946zm-41.219-49.904l-73.487-73.487 43.269-43.269 73.487 73.487-43.269 43.269zM342.089 32.368c9.296 9.296 14.628 21.494 15.166 34.551l-49.717-49.717c13.057.538 25.255 5.87 34.551 15.166zM340.86 11.32l22.276 22.276-5.735 5.736a60.278 60.278 0 0 0-9.656-12.621 60.272 60.272 0 0 0-12.62-9.656l5.735-5.735zm-72.258 21.048c7.786-7.786 17.61-12.783 28.266-14.522l59.743 59.743c-1.739 10.656-6.737 20.481-14.522 28.266-9.808 9.808-22.849 15.209-36.722 15.209-8.007 0-16.006-1.874-23.137-5.417l-23.423-23.423a51.905 51.905 0 0 1 9.795-59.856zm-16.166 64.799l24.877 24.877a51.887 51.887 0 0 1-5.026 52.731l-72.606-72.606c8.831-6.467 19.445-9.966 30.599-9.966a52.271 52.271 0 0 1 22.156 4.964zm-58.878 10.245l.027-.026 73.486 73.487-.025.026-11.585 11.585-73.488-73.488 11.585-11.584zm-131.36-1.655l43.558-43.559 20.947 20.947-43.559 43.558-20.946-20.946zM35.595 79.153l43.558-43.558 20.946 20.947L56.541 100.1 35.595 79.153zm17.62-69.496l20.281 20.281-43.558 43.559L9.657 53.216 53.215 9.657zm55.867 142.984L88.801 132.36l43.559-43.558 20.281 20.281-31.087 31.088-.003.002-.002.003-12.467 12.465zm20.953-9.64l12.966-12.966 8.31 8.31-12.966 12.966-8.31-8.31zm51.774 123.134l-73.486-73.487 19.069-19.069 73.487 73.487-19.07 19.069zm41.337-30.023l12.965-12.965 8.31 8.31-12.966 12.965-8.309-8.31zm42.229-14.296l20.281 20.281-43.559 43.558-20.281-20.281 43.559-43.558zM321.241 364.8l-20.281-20.281 43.559-43.558 20.281 20.281-43.559 43.558z"/></svg>