<svg xmlns="http://www.w3.org/2000/svg" viewBox="0 0 305.245 305.245"><path d="M304.522 224.795L264.009 58.588a34.348 34.348 0 0 0-33.453-26.279h-27.047V20.37h7.447a4 4 0 0 0 0-8H94.274a4 4 0 0 0 0 8h7.446v11.939H74.673A34.349 34.349 0 0 0 41.22 58.588L.718 224.752c-2.534 10.396 1.78 21.299 10.735 27.129a160.42 160.42 0 0 0 3.835 2.436 263.735 263.735 0 0 0 137.326 38.559c49.918 0 98.615-14.084 140.825-40.729l.114-.073c9.128-5.787 13.536-16.749 10.969-27.279zM22.214 170.342c2.248 1.974 4.867 3.253 7.689 3.677.741.114 1.483.171 2.225.171 3.344 0 6.666-1.154 9.722-3.396 5.554-4.077 9.624-11.456 10.887-19.733 1.273-8.276-.4-16.533-4.478-22.087-2.739-3.73-6.343-6.031-10.414-6.653a14.473 14.473 0 0 0-3.911-.06l7.616-31.245h32.919l-18.05 126.657H10.677l11.537-47.331zm9.52-39.06c1.642-.946 3.282-1.306 4.895-1.055 2.443.373 4.166 2.099 5.181 3.481 2.848 3.879 3.977 9.911 3.019 16.14-.95 6.229-3.834 11.648-7.714 14.496-1.383 1.014-3.543 2.147-6.008 1.766-3.416-.513-5.473-3.601-6.482-5.658l7.109-29.17zm14.614-59.955H258.88l2.849 11.688H43.499l2.849-11.688zm36.201 19.688h140.145l18.05 126.657H64.499l18.05-126.657zm166.276 126.657l-18.05-126.657h32.904l7.615 31.243a14.406 14.406 0 0 0-3.891.061c-4.079.623-7.683 2.924-10.422 6.654-4.077 5.554-5.751 13.811-4.479 22.082 1.265 8.283 5.335 15.662 10.89 19.738 3.056 2.244 6.379 3.398 9.717 3.398.737 0 1.477-.057 2.213-.17 2.827-.425 5.446-1.702 7.695-3.673l11.535 47.323h-45.727zm31.783-57.206c-1.012 2.057-3.068 5.133-6.49 5.647-2.45.375-4.61-.754-5.992-1.769-3.88-2.847-6.764-8.267-7.716-14.501-.957-6.224.172-12.256 3.02-16.135 1.015-1.383 2.737-3.108 5.188-3.482 1.599-.25 3.236.107 4.875 1.048l7.115 29.192zM109.72 20.37h85.789v11.939H109.72V20.37zM74.673 40.309h155.883a26.37 26.37 0 0 1 25.682 20.174l.693 2.844H48.298l.693-2.844a26.37 26.37 0 0 1 25.682-20.174zm214.598 205.009l-.101.063c-40.931 25.837-88.151 39.494-136.556 39.494a255.746 255.746 0 0 1-133.163-37.39 150.51 150.51 0 0 1-3.633-2.31c-5.351-3.483-8.274-9.619-7.762-15.857.073-.891.67-3.647.67-3.647h287.775s.53 2.341.612 3.003c.811 6.554-2.187 13.057-7.842 16.644z"/><path d="M216.854 178.422a2086.96 2086.96 0 0 1-13.339-55.224c-1.758-7.631-8.661-12.853-16.646-12.407-11.357.681-22.883 1.026-34.256 1.026s-22.894-.346-34.244-1.026c-7.944-.449-14.886 4.774-16.647 12.42a2079.574 2079.574 0 0 1-13.331 55.192c-1.097 4.198-.232 8.693 2.372 12.335 2.984 4.173 7.812 6.797 13.243 7.197 16.107 1.189 32.463 1.792 48.614 1.792s32.507-.603 48.614-1.792c5.431-.401 10.257-3.025 13.242-7.199 2.604-3.641 3.469-8.136 2.378-12.314zm-8.885 7.661c-1.6 2.236-4.269 3.648-7.324 3.874-15.911 1.175-32.069 1.771-48.024 1.771s-32.113-.596-48.025-1.771c-3.056-.226-5.726-1.637-7.325-3.873-1.236-1.729-1.641-3.738-1.134-5.678a2091.113 2091.113 0 0 0 13.384-55.411c.833-3.611 4.15-6.232 7.888-6.232.162 0 .324.005.485.015 11.507.689 23.188 1.04 34.721 1.04s23.219-.351 34.732-1.04c3.974-.236 7.492 2.392 8.371 6.205a2089.638 2089.638 0 0 0 13.392 55.442c.5 1.92.095 3.93-1.141 5.658z"/><path d="M152.62 130.606c-14.422 0-26.155 11.054-26.155 24.64s11.733 24.64 26.155 24.64 26.154-11.054 26.154-24.64-11.732-24.64-26.154-24.64zm0 41.279c-10.011 0-18.155-7.465-18.155-16.64s8.145-16.64 18.155-16.64 18.154 7.465 18.154 16.64-8.143 16.64-18.154 16.64z"/></svg>