<svg xmlns="http://www.w3.org/2000/svg" viewBox="0 0 462.309 462.309"><path d="M304.48 240.914v-35.686c0-6.382-3.556-11.947-8.788-14.827v-1.994c0-.777-.227-1.538-.652-2.189l-16.599-25.387a4 4 0 0 0-3.348-1.811h-9.67V70.282A91.655 91.655 0 0 0 233.774.977a3.996 3.996 0 0 0-5.238 0 91.654 91.654 0 0 0-31.65 69.305v88.739h-9.67a4 4 0 0 0-3.348 1.811l-16.599 25.387a3.998 3.998 0 0 0-.652 2.189v1.994c-5.232 2.879-8.788 8.444-8.788 14.827v35.686c0 6.382 3.556 11.947 8.788 14.827v75.739a19.697 19.697 0 0 0-4.788-.61 4 4 0 0 0-4 4v81.84c0 6.845 3.493 12.888 8.788 16.446v11.073a4 4 0 0 0 4 4h3.519v10.08a4 4 0 0 0 4 4h15.135a4 4 0 0 0 4-4v-10.08h3.615a4 4 0 0 0 4-4V428.7h3.629v10.092a4 4 0 0 0 4 4h7.806v15.517a4 4 0 0 0 4 4h15.134a4 4 0 0 0 4-4v-15.517h6.341a4 4 0 0 0 4-4V428.7h3.629v15.528a4 4 0 0 0 4 4h3.616v10.08a4 4 0 0 0 4 4h15.134a4 4 0 0 0 4-4v-10.08h3.519a4 4 0 0 0 4-4v-11.073c5.295-3.558 8.788-9.601 8.788-16.446v-81.84a4 4 0 0 0-4-4 19.69 19.69 0 0 0-4.788.61V255.74c5.23-2.878 8.786-8.443 8.786-14.826zm-8 0c0 4.915-3.999 8.914-8.914 8.914h-5.544v-53.514h5.544c4.915 0 8.914 3.999 8.914 8.914v35.686zm-23.551-73.892l13.922 21.293h-8.83a4 4 0 0 0-4 4v8.205h-8.599v-33.498h7.507zm-84.642 41.498h8.599v5.182h-8.599v-5.182zm16.598-79.578h52.538v37.403h-52.538v-37.403zm52.538-8h-52.538V88.421h52.538v32.521zm-52.538 53.403h52.538v8.216h-52.538v-8.216zm60.538 34.175h8.599v5.182h-8.599v-5.182zM231.155 9.392a83.658 83.658 0 0 1 26.269 60.891v10.139h-52.538v-10.14a83.652 83.652 0 0 1 26.269-60.89zm-41.775 157.63h7.506v33.498h-8.599v-8.205a4 4 0 0 0-4-4h-8.83l13.923-21.293zm-23.551 38.207c0-4.915 3.999-8.914 8.914-8.914h5.544v53.514h-5.544c-4.915 0-8.914-3.999-8.914-8.914v-35.686zm8.788 52.599h9.67a4 4 0 0 0 4-4v-32.127h8.599v187.282h-8.599v-31.33c0-4.461-2.756-8.291-6.655-9.876v-17.104c0-6.045-2.73-11.459-7.015-15.094v-77.751zm-8.788 81.74c4.545 1.643 7.803 6.001 7.803 11.105v20.325a4 4 0 0 0 4 4 2.658 2.658 0 0 1 2.655 2.655v50.858h-2.655c-6.508 0-11.803-5.294-11.803-11.802v-77.141zm11.802 96.944h6.655a4 4 0 0 0 4-4v-15.528h8.599v23.245h-22.269v-3.971c.986.151 1.988.254 3.015.254zm11.639 17.797h-7.135v-6.08h7.135v6.08zm46.184 0h-7.134v-11.517h7.134v11.517zm10.341-19.517h-29.28V428.7h29.28v6.092zm-40.91-14.092V190.56h52.538V420.7h-52.538zm75.288 33.609h-7.134v-6.08h7.134v6.08zm7.519-14.08h-22.269v-23.245h8.599v15.528a4 4 0 0 0 4 4h6.656c1.027 0 2.028-.103 3.014-.254v3.971zm8.788-23.519c0 6.508-5.294 11.802-11.802 11.802h-2.656v-50.858a2.658 2.658 0 0 1 2.656-2.655 4 4 0 0 0 4-4v-20.325c0-5.104 3.257-9.463 7.802-11.104v77.14zm-8.788-81.131c-4.283 3.635-7.014 9.049-7.014 15.094v17.104c-3.899 1.584-6.656 5.414-6.656 9.876v31.33h-8.599V221.701h8.599v32.127a4 4 0 0 0 4 4h9.67v77.751z"/><path d="M212.602 104.043h37.104a4 4 0 0 0 0-8h-37.104a4 4 0 0 0 0 8z"/></svg>