<svg xmlns="http://www.w3.org/2000/svg" viewBox="0 0 431.604 431.604"><path d="M355.517 357.74v-28.411a50.403 50.403 0 0 0-12.631-33.388l-29.789-33.739a201.584 201.584 0 0 1-6.991-8.401v-86.542a4 4 0 0 0-4-4h-38.768v-29.557c0-39.628-7.137-78.502-21.213-115.545C237.868 6.957 227.781 0 215.8 0s-22.068 6.957-26.324 18.157c-14.076 37.044-21.213 75.919-21.213 115.545v29.557h-38.768a4 4 0 0 0-4 4v86.537a200.555 200.555 0 0 1-6.997 8.406L88.72 295.938a50.357 50.357 0 0 0-12.634 33.391v28.411l92.18 14.17-.005 55.693a4 4 0 0 0 4 4h32.734a4 4 0 0 0 4-4v-31.747h13.608v31.747a4 4 0 0 0 4 4h32.734a4 4 0 0 0 4-4l-.001-55.693 92.181-14.17zm-116.22-44.481h-47v-16h47v16zm4-24h-55a4 4 0 0 0-4 4v20h-8.035v-89h79.076v89h-8.041v-20a4 4 0 0 0-4-4zm-75.035 4h-34.768v-13.8h34.768v13.8zm0-21.8h-34.768v-13.8h34.768v13.8zm0-65.4h-34.768v-13.8h34.768v13.8zm0 8v13.801h-34.768v-13.801h34.768zm0 21.8v13.8h-34.768v-13.8h34.768zm-34.768 65.4h34.768v12h-34.768v-12zm121.841-167.755h-79.071c.019-30.263 4.323-60.073 12.786-88.93h53.5a315.992 315.992 0 0 1 12.785 88.93zm8.003 58.755h34.768v13.8h-34.768v-13.8zm0 109h34.768v12h-34.768v-12zm0-87.2h34.768v13.801h-34.768v-13.801zm0 21.8h34.768v13.8h-34.768v-13.8zm0 21.8h34.768v13.8h-34.768v-13.8zm0 21.8h34.768v13.8h-34.768v-13.8zm-87.076-108.2h79.076v45h-79.076v-45zm79.076-29.755v21.755h-79.076v-21.755h79.076zm8 222.313v-23.49h84.179v10.55l-84.179 12.94zm43.76-96.321l29.791 33.74a42.407 42.407 0 0 1 10.628 28.093v2.998h-84.179v-11.068h38.768a4 4 0 0 0 4-4v-50.924c.333.384.657.781.992 1.161zm-8.992-96.237v13h-34.768v-13h34.768zM196.954 20.999C200.596 11.414 209.077 8 215.8 8c6.723 0 15.204 3.414 18.846 12.999a320.006 320.006 0 0 1 5.447 15.575h-48.585a319.3 319.3 0 0 1 5.446-15.575zm-28.692 150.26v13h-34.768v-13h34.768zM94.716 301.235l29.781-33.74c.338-.383.662-.781.998-1.167v50.931a4 4 0 0 0 4 4h38.768v11.068H84.087v-2.998a42.37 42.37 0 0 1 10.629-28.094zm-10.629 39.092h84.175v23.489l-84.175-12.939v-10.55zm116.909 83.277h-24.734l.005-38.408c.104-14.392 10.839-26.303 24.729-28.245v66.653zm21.608-70.931v35.184h-13.608v-35.184a4 4 0 0 0-4-4c-11.625 0-21.998 5.434-28.734 13.888v-41.302h79.076v41.302c-6.736-8.454-17.109-13.888-28.734-13.888a4 4 0 0 0-4 4zm8 70.931V356.95c13.944 1.95 24.712 13.946 24.733 28.414l.001 38.239h-24.734z"/><path d="M186.588 105.537h8c0-8.977 7.303-16.279 16.28-16.279v-8c-13.388 0-24.28 10.891-24.28 24.279zm50.423 0h8c0-13.388-10.892-24.279-24.28-24.279v8c8.977 0 16.28 7.303 16.28 16.279zM215.8 177.259c-9.649 0-17.5 7.851-17.5 17.5s7.851 17.5 17.5 17.5 17.5-7.851 17.5-17.5-7.851-17.5-17.5-17.5zm0 27c-5.238 0-9.5-4.262-9.5-9.5s4.262-9.5 9.5-9.5 9.5 4.262 9.5 9.5-4.262 9.5-9.5 9.5zm0 28c-14.612 0-26.5 11.888-26.5 26.5s11.888 26.5 26.5 26.5 26.5-11.888 26.5-26.5-11.888-26.5-26.5-26.5zm0 45c-10.201 0-18.5-8.299-18.5-18.5s8.299-18.5 18.5-18.5 18.5 8.299 18.5 18.5-8.299 18.5-18.5 18.5z"/><circle cx="215.8" cy="258.759" r="9.342"/></svg>