<svg xmlns="http://www.w3.org/2000/svg" viewBox="0 0 454.04 454.04"><path d="M452.869 160.233l-25.236-25.236a4 4 0 0 0-5.657 5.657l8.843 8.843-5.165 5.165-8.843-8.843a4 4 0 0 0-5.657 5.657l8.843 8.843-5.165 5.165-8.843-8.843a4 4 0 0 0-5.657 5.657l8.843 8.843-5.165 5.165-8.843-8.843a4 4 0 0 0-5.657 5.657l8.843 8.843-5.165 5.165-8.843-8.843a4 4 0 0 0-5.657 5.657l8.843 8.843-5.165 5.165-8.843-8.843a4 4 0 0 0-5.657 5.657l8.843 8.843-5.165 5.165-8.843-8.843a4 4 0 0 0-5.657 5.657l8.842 8.842-5.165 5.165-8.842-8.842a4 4 0 0 0-5.657 5.657l8.842 8.842-5.165 5.165-8.842-8.843a4 4 0 0 0-5.657 5.657l8.842 8.843-61.561 61.561-41.115-33.581V145.609c0-21.993-3.594-43.703-10.709-64.607-.547-1.625-2.084-2.675-3.799-2.678h-.006a3.985 3.985 0 0 0-3.777 2.684 199.83 199.83 0 0 0-10.708 64.602v118.358l-41.215 33.663-61.561-61.561 8.842-8.843a4 4 0 0 0-5.657-5.657l-8.842 8.842-5.165-5.165 8.842-8.842a4 4 0 0 0-5.657-5.657l-8.842 8.842-5.165-5.165 8.843-8.843a4 4 0 0 0-5.657-5.657l-8.843 8.843-5.165-5.165 8.843-8.843a4 4 0 0 0-5.657-5.657l-8.843 8.843-5.165-5.165 8.843-8.843a4 4 0 0 0-5.657-5.657l-8.843 8.843-5.165-5.165 8.843-8.843a4 4 0 0 0-5.657-5.657l-8.843 8.843-5.165-5.165 8.843-8.843a4 4 0 0 0-5.657-5.657l-8.843 8.843-5.165-5.165 8.843-8.843a4 4 0 0 0-5.657-5.657l-8.843 8.843-5.165-5.165 8.843-8.843a4 4 0 0 0-5.657-5.657l-25.23 25.24a3.999 3.999 0 0 0 0 5.657l108.673 108.673 27.476 63.363a3.997 3.997 0 0 0 1.55 1.8l25.078 15.673v16.316a4 4 0 0 0 4 4h118.145a4 4 0 0 0 4-4V355.4l25.078-15.673a4.003 4.003 0 0 0 1.55-1.8l27.476-63.363L452.869 165.89a4 4 0 0 0 0-5.657zm-274.044 156.18l-7.908 7.908-30.059-30.059 7.908-7.908 30.059 30.059zM9.657 163.061l7.908-7.908L143.11 280.697l-7.908 7.908L9.657 163.061zm134.508 170.54l-18.925-43.643 42.848 42.848c.781.781 1.805 1.171 2.829 1.171s2.047-.391 2.829-1.171l8.415-8.415 22.742 24.792h-35.807l-24.931-15.582zM210 367.716h-38.052v-10.533H210v10.533zm2.57-22.01l-17-18.531 17-24.297v42.828zm0-56.783l-22.539 32.214-2.257-2.46a3.995 3.995 0 0 0 .708-2.263 4.003 4.003 0 0 0-1.171-2.829l-.601-.601 25.861-26.189v2.128zm0-13.515l-31.518 31.918-4.011-4.011 35.529-29.019v1.112zm92.704 10.946l7.908 7.908-30.059 30.059-7.908-7.908 30.059-30.059zm-63.704-11.976L277 303.315l-4.011 4.011-31.418-31.817v-1.131zm0 12.517l25.761 26.088-.601.601a4 4 0 0 0-1.171 2.829c0 .815.253 1.601.708 2.263l-2.257 2.46-22.44-32.072v-2.169zm-14.5-190.858a191.529 191.529 0 0 1 2.997 13.083h-5.994c.849-4.389 1.84-8.754 2.997-13.083zm6.5 271.679h-13v-17.557h13v17.557zm0-25.557h-13v-103.5h13v103.5zm0-111.5h-13v-8h13v8zm0-16h-13v-69.05c0-9.571.734-19.082 2.143-28.488h8.713a192.212 192.212 0 0 1 2.143 28.488v69.05zm8 88.361l16.9 24.155-16.9 18.423V303.02zm40.522 64.696H244.04v-10.533h38.052v10.533zm27.783-34.115l-24.93 15.582h-35.807l22.742-24.792 8.415 8.415c.781.781 1.805 1.171 2.829 1.171s2.047-.391 2.829-1.171l42.848-42.848-18.926 43.643zm8.964-44.996l-7.908-7.908 125.545-125.544 7.908 7.908-125.545 125.544z"/></svg>