<svg xmlns="http://www.w3.org/2000/svg" viewBox="0 0 449.818 449.818"><path d="M345.835 441.818h-7.07l.082-.036-27.126-61.205a3.997 3.997 0 0 0-1.483-1.736l-20.853-13.5v-.048a4 4 0 0 0-4-4h-15.283l-8.407-33.006a4 4 0 0 0-3.876-3.013h-.196c6.071-7.473 9.528-16.91 9.528-26.684a42.248 42.248 0 0 0-5.26-20.415c-.122-.22-8.233-16.173-8.233-16.173-3.354-6.616-8.741-11.697-15.186-14.677l46.205-53.705a4.002 4.002 0 0 0 .968-2.608V54.545a4 4 0 0 0-4-4h-31.119l11.013-45.606A4.002 4.002 0 0 0 257.653 0H188.86a4.005 4.005 0 0 0-3.143 1.525 4.003 4.003 0 0 0-.745 3.414l11.014 45.605h-27.814a4 4 0 0 0-4 4v136.467c0 .957.343 1.883.968 2.608l46.205 53.705c-6.445 2.98-11.832 8.061-15.185 14.678 0 0-8.013 15.775-8.092 15.916a42.25 42.25 0 0 0-5.401 20.671c0 2.553.24 5.083.696 7.562h-.666c-8.703 0-15.784 7.081-15.784 15.784v20.9c0 7.936 5.892 14.503 13.528 15.604l-.726 2.852h-15.283a4 4 0 0 0-4 4v.048l-20.852 13.5a3.99 3.99 0 0 0-1.483 1.736l-27.125 61.205.082.036h-7.071a4 4 0 0 0 0 8h22.934a4 4 0 0 0 0-8h-7.21l5.627-12.697 19.255-6.024h76.32v18.721h-7.467a4 4 0 0 0 0 8h22.935a4 4 0 0 0 0-8h-7.467v-18.721h76.319l19.256 6.024 5.627 12.696h-7.211a4 4 0 0 0 0 8h22.935a3.998 3.998 0 1 0-.001-7.997zm-44.023-58.903l-12.427 12.868V374.87l12.427 8.045zm-45.364-97.667a34.292 34.292 0 0 1 2.704 13.342c0 10.497-4.654 20.145-12.798 26.684h-7.44v-40.025h17.534zm-31.539-32.906a24.12 24.12 0 0 1 15.911 5.952h-31.823a24.122 24.122 0 0 1 15.912-5.952zm4.001 24.906v-10.954h4.82l4.832 10.954h-9.652zm-8.001-10.954v10.954h-9.652l4.831-10.954h4.821zm10.006 18.954v40.025h-12.011v-40.025h12.011zm16.391-8l-4.832-10.954h4.392l5.551 10.954h-5.111zm-75.135-90.236v-15.88h105.476v15.88H172.171zm0-23.88v-5.205h105.476v5.205H172.171zm0-13.205v-5.204h105.476v5.204H172.171zm100.757 45.085l-26.39 30.668h-43.264l-26.385-30.668h96.039zm-33.267 38.668l-8.663 10.069h-12.176l-8.663-10.069h29.502zm37.986-129.621h-21.763V72.444h21.763v31.615zm-80.729-83.734h52.677l-1.088 4.503h-50.502l-1.087-4.503zm3.019 12.503h46.639l-1.09 4.513h-44.459l-1.09-4.513zM252.572 8l-1.044 4.325h-56.541L193.941 8h58.631zm-49.613 37.341h40.595l-1.257 5.204h-38.081l-1.257-5.204zm74.688 13.204v5.899h-25.763a4 4 0 0 0-4 4v39.614a4 4 0 0 0 4 4h25.763v24.664H172.171v-24.664h25.759a4 4 0 0 0 4-4V68.444a4 4 0 0 0-4-4h-25.759v-5.899h105.476zm-105.476 45.514V72.444h21.759v31.614h-21.759zm30.782 162.235h4.392l-4.831 10.954h-5.111l5.55-10.954zm7.951 18.954v40.025h-7.44c-8.143-6.539-12.797-16.187-12.797-26.684 0-4.603.929-9.143 2.703-13.342h17.534zm-35.99 57.588v-20.9c0-4.292 3.492-7.784 7.784-7.784h2.982a42.638 42.638 0 0 0 6.515 11.122h-.196a3.999 3.999 0 0 0-3.876 3.013l-5.685 22.321c-4.172-.14-7.524-3.568-7.524-7.772zm20.193-9.563h59.603l7.137 28.019h-73.876l7.136-28.019zm29.802 43.245l-9.565-7.226h19.129l-9.564 7.226zm-64.476 19.264l-12.426-12.867 12.426-8.045v20.912zm-16.455 19.316c-.405 0-.808.062-1.194.183l-13.137 4.11 13.358-30.14 17.428 18.047v7.8h-16.455zm24.455-45.806h33.641l17.457 13.189-21.098 32.616h-30v-45.805zm39.527 45.806l12.949-20.018v20.018H207.96zm20.95-20.017l12.948 20.017H228.91v-20.017zm52.475 20.017h-30l-21.098-32.616 17.457-13.189h33.64v45.805zm25.65.182a3.999 3.999 0 0 0-1.194-.183h-16.455v-7.8l17.429-18.048 13.358 30.141-13.138-4.11z"/></svg>