<svg xmlns="http://www.w3.org/2000/svg" viewBox="0 0 368.213 368.213"><path d="M367.041 309.778L255.273 198.011a4 4 0 0 0-5.656 0l-22.9 22.9-8.456-8.456 34.22-34.22 8.113 8.113a3.999 3.999 0 0 0 6.525-1.302l10.912-26.419a4 4 0 0 0-.869-4.355L248.38 125.49l14.141-14.14a4 4 0 1 0-5.656-5.657l-14.141 14.141-28.783-28.784a4.002 4.002 0 0 0-4.355-.869l-26.419 10.912a4.002 4.002 0 0 0-1.302 6.526l8.114 8.114-34.22 34.219-8.456-8.456 22.9-22.9a4 4 0 0 0 0-5.657L58.435 1.171a4.003 4.003 0 0 0-5.658 0L1.172 52.778a4 4 0 0 0 0 5.657L112.94 170.203a3.988 3.988 0 0 0 2.829 1.171 3.995 3.995 0 0 0 2.829-1.171l23.049-23.049 8.456 8.456-45.533 45.533a4 4 0 0 0 0 5.657l8.2 8.2-19.231 19.231a4 4 0 0 0 0 5.657l34.786 34.786c.781.781 1.805 1.171 2.829 1.171s2.047-.391 2.829-1.171l19.231-19.231 8.201 8.201c.781.781 1.805 1.171 2.829 1.171s2.047-.391 2.829-1.171l45.533-45.533 8.456 8.456-23.049 23.049a3.999 3.999 0 0 0 0 5.657l111.768 111.768a4 4 0 0 0 5.656 0l51.605-51.606a4.001 4.001 0 0 0-.001-5.657zM87.363 41.413l10.221 10.221-45.95 45.949-10.221-10.22 45.95-45.95zM35.756 81.705l-10.221-10.22 45.949-45.949 10.221 10.221-45.949 45.948zm67.485-24.413l10.221 10.221-45.949 45.949-10.221-10.221 45.949-45.949zm15.878 15.877L129.34 83.39l-45.95 45.95-10.221-10.221 45.95-45.95zm15.878 15.879l10.221 10.221-45.949 45.949-10.221-10.221 45.949-45.949zM55.606 9.657l10.221 10.221-45.949 45.949L9.657 55.606 55.606 9.657zm60.162 152.06l-10.843-10.843 45.949-45.949 10.842 10.842-45.948 45.95zm61.202 80.716l-51.189-51.189 57.976-57.976 51.189 51.188-57.976 57.977zm33.203-143.838l59.446 59.446-7.605 18.413L191.76 106.2l18.413-7.605zm36.652 73.983l-6.221 6.221-51.189-51.189 6.221-6.221 51.189 51.189zm-115.671 93.611l-29.129-29.129 16.403-16.402 29.129 29.129-16.403 16.402zm33.089-11.029l-51.189-51.189 7.07-7.07 51.189 51.189-7.07 7.07zm120.58-16.286l10.222 10.222-45.949 45.949-10.221-10.221 45.948-45.95zm-51.606 40.292l-10.221-10.221 45.948-45.949 10.221 10.221-45.948 45.949zm67.484-24.414l10.221 10.222-45.949 45.948-10.221-10.221 45.949-45.949zm15.878 15.878l10.221 10.221-45.949 45.949-10.221-10.221 45.949-45.949zm15.878 15.878l10.221 10.221-45.949 45.948-10.221-10.221 45.949-45.948zm-80.012-80.012l10.843 10.843-45.948 45.949-10.843-10.843 45.948-45.949zm60.162 152.06l-10.221-10.221 45.949-45.948 10.221 10.221-45.949 45.948z"/><path d="M180.504 153.205l-33.089 33.089a4 4 0 0 0 0 5.657l28.847 28.847a3.988 3.988 0 0 0 2.829 1.171 3.995 3.995 0 0 0 2.829-1.171l33.089-33.089a4.002 4.002 0 0 0 0-5.658l-28.848-28.847a4.003 4.003 0 0 0-5.657.001zm-1.413 59.108l-23.19-23.19 27.433-27.433 23.19 23.19-27.433 27.433z"/></svg>