<svg xmlns="http://www.w3.org/2000/svg" viewBox="0 0 376.887 376.887"><path d="M268.822 345.886c10.294 10.293 23.98 15.963 38.537 15.963 14.558 0 28.244-5.669 38.538-15.963 10.293-10.294 15.962-23.98 15.962-38.538 0-14.557-5.669-28.244-15.962-38.538-7.011-7.011-15.598-11.871-24.961-14.261L186.439 2.119a4 4 0 0 0-7.06 3.762l131.66 247.104a55.475 55.475 0 0 0-3.679-.136c-4.792 0-9.486.626-13.999 1.818L167.329 81.051a3.997 3.997 0 0 0-5.586-.887 3.999 3.999 0 0 0-.887 5.586l124.619 171.67a54.477 54.477 0 0 0-16.653 11.39 54.43 54.43 0 0 0-11.39 16.653L85.761 160.845a3.998 3.998 0 0 0-5.586.887 3.998 3.998 0 0 0 .887 5.586L254.677 293.35a54.807 54.807 0 0 0-1.818 13.999c0 1.234.056 2.458.136 3.678L5.891 179.368a4 4 0 0 0-3.762 7.06L254.56 320.925c2.391 9.363 7.251 17.95 14.262 24.961zm-7.962-38.537c0-12.42 4.836-24.098 13.62-32.88 8.782-8.783 20.459-13.62 32.88-13.62 2.802 0 5.562.259 8.263.741l7.299 13.699a3.999 3.999 0 1 0 7.06-3.762l-3.506-6.58a46.483 46.483 0 0 1 13.764 9.522c8.783 8.783 13.62 20.46 13.62 32.88 0 12.421-4.836 24.098-13.62 32.88-8.782 8.783-20.459 13.62-32.88 13.62-12.42 0-24.098-4.837-32.88-13.62a46.483 46.483 0 0 1-9.522-13.764l6.58 3.506a4.002 4.002 0 0 0 3.762-7.06l-13.699-7.299a47.015 47.015 0 0 1-.741-8.263zm10.746 50.115a61.788 61.788 0 0 1-7.782-6.582 4 4 0 0 0-5.656 5.658 69.845 69.845 0 0 0 8.791 7.435 3.993 3.993 0 0 0 5.579-.932 4 4 0 0 0-.932-5.579z"/><path d="M371.337 279.981a3.998 3.998 0 0 0-5.249-2.108 3.999 3.999 0 0 0-2.108 5.249c7.495 17.562 6.152 38.774-3.505 55.358-9.454 16.234-26.411 27.409-45.359 29.891a61.06 61.06 0 0 1-31.856-4.369 4 4 0 0 0-3.135 7.361 69.12 69.12 0 0 0 36.03 4.941c21.389-2.802 40.542-15.437 51.233-33.798 11.069-19.009 12.545-42.383 3.949-62.525zm-15.072-10.044a3.992 3.992 0 0 0 3.175 1.563 4 4 0 0 0 3.17-6.437 70.962 70.962 0 0 0-6.058-6.905 4 4 0 1 0-5.66 5.654 62.898 62.898 0 0 1 5.373 6.125z"/><path d="M288.861 343.649a41.132 41.132 0 0 0 6.157 2.486 4.002 4.002 0 0 0 2.386-7.636 33.131 33.131 0 0 1-4.956-2.001 4 4 0 1 0-3.587 7.151zm20.078 4.24c.076 0 .152-.002.229-.006 14.382-.812 27.329-9.298 33.788-22.148a4 4 0 1 0-7.147-3.593c-5.178 10.3-15.558 17.103-27.091 17.753a4 4 0 0 0 .221 7.994z"/></svg>