<svg xmlns="http://www.w3.org/2000/svg" viewBox="0 0 368.258 368.258"><path d="M342.445 45.471l-28.98-43.683a3.998 3.998 0 0 0-5.544-1.122l-44.182 29.313a3.999 3.999 0 0 0-1.122 5.544l1.066 1.607-94.415 62.64-1.929-2.908a3.998 3.998 0 0 0-5.544-1.122l-14.791 9.813a3.998 3.998 0 0 0-1.122 5.544l1.93 2.909-53.185 35.284a3.998 3.998 0 0 0-1.122 5.544l.286.431-36.284 24.073a3.998 3.998 0 0 0-1.122 5.545l2.219 3.344-31.669 21.017a4 4 0 0 0 1.447 7.26l21.834 4.251a4.002 4.002 0 0 0 2.977-.594l18.468-12.254 2.156 3.25a3.998 3.998 0 0 0 5.544 1.122l36.285-24.073s1.371 1.956 2.826 2.141c.266.034.528.079.793.079.781 0 1.551-.229 2.211-.667l53.185-35.286 13.45 20.273-40.508 26.874a4.002 4.002 0 0 0-1.122 5.544l8.415 12.685a3.997 3.997 0 0 0 5.546 1.121l4.716-3.131v54.712l-88.869 88.88a4 4 0 0 0 2.829 6.828h28.539a4 4 0 0 0 2.828-1.172l54.673-54.673v3.372a4 4 0 0 0 4 4h15.688a4 4 0 0 0 4-4v-3.373l54.664 54.674a4.005 4.005 0 0 0 2.829 1.172h28.551a4 4 0 0 0 2.828-6.828l-88.872-88.883v-70.424l12.1-8.031 4.097 6.176a3.995 3.995 0 0 0 5.544 1.122l14.791-9.813a3.998 3.998 0 0 0 1.122-5.544l-16.012-24.135 6.54-4.339 3.572 5.383a3.997 3.997 0 0 0 5.544 1.121 4 4 0 0 0 1.122-5.545l-11.565-17.432a4 4 0 0 0-5.544-1.121 4 4 0 0 0-1.122 5.545l3.571 5.382-6.539 4.339-9.948-14.994 94.416-62.64 1.066 1.607a3.995 3.995 0 0 0 5.544 1.122l44.182-29.312a3.998 3.998 0 0 0 1.71-2.54 4.019 4.019 0 0 0-.592-3.004zM50.134 212.59l-10.647-2.073 23.54-15.622 4.21 6.345-17.103 11.35zm28.137-9.189l-13.009-19.607 32.951-21.862 13.009 19.609-32.951 21.86zm42.114-22.52l-18.003-27.135 49.851-33.074 18.003 27.135-49.851 33.074zm38.963 31.21l-3.991-6.017 9.799-6.501v8.661l-5.808 3.857zm-53.351 148.167H88.772l76.384-76.395V301.1l-59.159 59.158zm74.847-48.473h-7.688v-115a3.844 3.844 0 1 1 7.688 0v115zm84.388 48.473h-17.237l-59.15-59.161V283.86l76.387 76.398zm-76.844-167.436a11.026 11.026 0 0 0-4.215-5.865l8.359-5.545 3.99 6.014-8.134 5.396zm21.109-.31l-54.737-82.504 8.124-5.391 54.737 82.504-8.124 5.391zm-35.807-86.075l83.925-55.681 18.003 27.135-83.926 55.68-18.002-27.134zm108.594-32.968l-18.003-27.135 3.824-2.537 18.003 27.135-3.824 2.537zm13.768-2.02l-24.558-37.015 37.515-24.89 24.558 37.016-37.515 24.889z"/></svg>