<svg xmlns="http://www.w3.org/2000/svg" viewBox="0 0 420.333 420.333"><path d="M75.301 79.581a490.714 490.714 0 0 0 85.043 16.345c5.057 6.842 15.683 12.101 29.122 14.777v12.429a4 4 0 0 0 4 4h33.402a4 4 0 0 0 4-4v-12.429c13.438-2.676 24.064-7.935 29.121-14.777a490.714 490.714 0 0 0 85.043-16.345 3.999 3.999 0 0 0 1.754-6.649 119.834 119.834 0 0 0-78.387-35.672 32.321 32.321 0 0 0-2.039-.05C256.865 14.837 234.653 0 210.167 0c-24.486 0-46.698 14.836-56.193 37.208a33.109 33.109 0 0 0-2.04.052c-29.693 1.788-57.531 14.456-78.387 35.672a4.001 4.001 0 0 0-1.016 3.823 4.001 4.001 0 0 0 2.77 2.826zM210.166 90.47A482.77 482.77 0 0 1 98.537 77.383h223.26A482.84 482.84 0 0 1 210.166 90.47zm12.702 28.662h-25.402v-7.184c4.073.466 8.326.714 12.701.714s8.628-.248 12.701-.714v7.184zm-12.701-14.47c-15.612 0-28.121-3.235-35.968-7.523a491.12 491.12 0 0 0 35.967 1.331c12.015 0 24.011-.453 35.968-1.331-7.847 4.288-20.356 7.523-35.967 7.523zm0-96.662c20.534 0 39.225 12.007 47.923 30.317a32.832 32.832 0 0 0-4.101 1.381c-13.962 5.793-28.705 8.73-43.821 8.73s-29.86-2.938-43.822-8.73a32.783 32.783 0 0 0-4.101-1.382C170.942 20.007 189.634 8 210.167 8zm-57.753 37.246a24.407 24.407 0 0 1 10.864 1.841c14.939 6.198 30.715 9.342 46.889 9.342s31.949-3.144 46.888-9.342a24.427 24.427 0 0 1 10.864-1.841 111.8 111.8 0 0 1 62.957 24.137H89.458a111.794 111.794 0 0 1 62.956-24.137z"/><path d="M225.818 23.803c4.31 1.808 10.089 5.23 13.151 11.276a3.998 3.998 0 0 0 5.376 1.76 4 4 0 0 0 1.761-5.376c-4.161-8.215-11.647-12.712-17.194-15.038a4 4 0 0 0-3.094 7.378zm124.943 390.891l-125.255-279.11a4 4 0 1 0-7.299 3.275l125.255 279.11a4.001 4.001 0 0 0 5.287 2.011 3.998 3.998 0 0 0 2.012-5.286zM200.114 133.572a4.002 4.002 0 0 0-5.287 2.012L69.572 414.694a4 4 0 0 0 7.299 3.276l125.255-279.11a4.001 4.001 0 0 0-2.012-5.288zm53.43 160.561c-9.521-1.56-41.302-7.841-50.563-23.212-.119-.197-.246-.386-.372-.577a3.994 3.994 0 0 0 .796-5.08l-5.595-9.225a3.998 3.998 0 0 0-5.667-1.234c-1.796 1.218-2.179 3.724-1.054 5.579l1.74 2.869a16.827 16.827 0 0 0-2.668-.474l-4.828-7.961c-1.083-1.786-3.357-2.589-5.238-1.681a4.001 4.001 0 0 0-1.692 5.682l3.258 5.373a16.63 16.63 0 0 0-3.925 2.479 259.455 259.455 0 0 1-10.135 8.161c-.646.495-1.181 1.152-1.44 1.923a4.013 4.013 0 0 0 1.766 4.777c9.563 5.577 12.869 11.471 14.416 19.358.005.049.02.098.028.147.669 3.471 1.007 7.325 1.388 11.71.064.736.129 1.479.197 2.233.612 6.817-.41 13.722-3.251 19.948-2.728 5.978-5.92 9.224-6.011 9.315a4 4 0 0 0 5.586 5.727c.385-.374 8.192-8.118 11.153-22.164a95.64 95.64 0 0 0 6.925 4.826c-.5 7.213-5.457 17.976-7.512 21.834a4 4 0 0 0 7.058 3.766c.75-1.405 6.144-11.738 7.93-21.236 5.925 3.177 13.224 6.474 22.005 9.43-2.706 5.17-8.427 9.622-10.77 11.1a4 4 0 0 0 4.251 6.778c.463-.291 10.214-6.486 14.251-15.487 1.53.434 3.084.86 4.691 1.268a12.04 12.04 0 0 0 2.963.378h.002c.49 0 .967-.037 1.436-.095-2.655 10.503-8.101 16.898-8.174 16.982a4 4 0 0 0 6.009 5.282c.357-.405 8.37-9.641 10.868-24.759l.004-.024c.305-1.872.945-3.685 1.997-5.263 3.936-5.906 6.496-14.124 8.241-21.026.658-2.605 1.985-8.527 2.119-9.098a15.165 15.165 0 0 0-2.142-11.856 15.025 15.025 0 0 0-10.041-6.473zm-1.31 36.86a31.579 31.579 0 0 1-6.083-1.755c-3.867-1.539-7.308-3.738-9.439-6.035-1.716-1.849-1.975-3.112-1.875-3.361.418-1.049 6.291-2.375 14.676.973a32.245 32.245 0 0 1 5.221 2.656c-.848 2.91-1.683 5.4-2.5 7.522zm-34.286-38.698c3.992 1.829 8.646 3.586 14.065 5.192a7.711 7.711 0 0 1-6.448 3.5c-4.24 0-7.69-3.45-7.69-7.691 0-.338.031-.671.073-1.001zm-22.623 26.506c-.88 0-1.728-.085-2.532-.252a38.946 38.946 0 0 1-.503-.452c-.215-2.081-.39-4.089-.561-6.043-.24-2.753-.472-5.401-.791-7.953 5.065 1.412 12.248 7.45 12.635 9.793 0 2.321-3.387 4.907-8.248 4.907zm47.904 23.66a4.06 4.06 0 0 1-.997-.132c-18.588-4.717-31.705-11.438-39.961-16.74 5.539-2.035 9.302-6.447 9.302-11.696 0-4.951-5.205-9.684-8.308-12.063-1.807-1.386-8.064-5.836-13.892-6.016-1.833-6.658-5.273-12.606-12.573-18.018a249.225 249.225 0 0 0 6.12-5.033 8.702 8.702 0 0 1 5.638-2.07c1.591 0 3.154.436 4.521 1.259 1.214.731 2.269 1.804 3.05 3.1 2.151 3.57 6.369 8.533 14.51 13.418a15.72 15.72 0 0 0-.763 4.826c0 8.652 7.039 15.691 15.69 15.691 6.349 0 11.922-3.829 14.372-9.402a181.89 181.89 0 0 0 12.314 2.443 6.926 6.926 0 0 1 4.684 3.02 7.053 7.053 0 0 1 1.006 5.582c-.14.593-.896 3.932-1.102 4.801a41.652 41.652 0 0 0-4.36-2.045c-11.834-4.726-22.378-3.257-25.073 3.493-.839 2.105-1.508 6.435 3.442 11.768 2.955 3.184 7.339 6.034 12.34 8.024a40.865 40.865 0 0 0 5.418 1.738c-2.048 3.083-3.883 4.052-5.378 4.052z"/></svg>