<svg xmlns="http://www.w3.org/2000/svg" viewBox="0 0 399.755 399.755"><path d="M199.881 184.183c11.855 0 21.5-9.645 21.5-21.5s-9.645-21.5-21.5-21.5-21.5 9.645-21.5 21.5 9.645 21.5 21.5 21.5zm0-35c7.444 0 13.5 6.056 13.5 13.5s-6.056 13.5-13.5 13.5-13.5-6.056-13.5-13.5 6.056-13.5 13.5-13.5zm-30.299 207.572c0 16.707 13.592 30.299 30.299 30.299s30.299-13.592 30.299-30.299-13.592-30.299-30.299-30.299-30.299 13.592-30.299 30.299zm52.598 0c0 12.295-10.003 22.299-22.299 22.299s-22.299-10.003-22.299-22.299 10.003-22.299 22.299-22.299 22.299 10.004 22.299 22.299z"/><path d="M305.158 364.228c-1.656-55.276-46.105-99.981-101.277-102.054v-37.937c7.634-1.741 13.422-8.34 13.943-16.365 12.399-4.938 22.305-14.852 27.229-27.248 8.03-.515 14.636-6.303 16.378-13.941h19.577c1.826 8.004 8.988 14 17.536 14 9.925 0 18-8.075 18-18s-8.075-18-18-18c-8.549 0-15.71 5.996-17.536 14h-19.577c-1.744-7.645-8.361-13.438-16.402-13.943-4.931-12.372-14.826-22.261-27.202-27.183-.494-8.053-6.292-14.683-13.946-16.428V72.333h12.467c1.533 6.713 6.82 12 13.533 13.532v11.468a4 4 0 0 0 8 0V85.867a18.042 18.042 0 0 0 13.539-13.534h8.691c1.63 4.373 5.836 7.501 10.77 7.501 6.342 0 11.502-5.16 11.502-11.501 0-6.342-5.16-11.502-11.502-11.502-4.934 0-9.14 3.129-10.77 7.502h-8.69c-1.531-6.718-6.823-12.009-13.54-13.541V39.333a4 4 0 0 0-8 0v11.461a18.037 18.037 0 0 0-13.534 13.539h-12.466V35.536c8.003-1.826 14-8.988 14-17.536 0-9.925-8.075-18-18-18s-18 8.075-18 18c0 8.549 5.997 15.711 14 17.536v28.797h-12.46c-1.531-6.718-6.823-12.009-13.54-13.541V39.333a4 4 0 0 0-8 0v11.461a18.037 18.037 0 0 0-13.534 13.539h-8.696c-1.63-4.373-5.836-7.502-10.77-7.502-6.342 0-11.502 5.16-11.502 11.502 0 6.342 5.16 11.501 11.502 11.501 4.934 0 9.14-3.129 10.77-7.501h8.697c1.533 6.713 6.82 12 13.533 13.532v11.468a4 4 0 0 0 8 0V85.867a18.042 18.042 0 0 0 13.539-13.534h12.461v28.797c-7.653 1.747-13.449 8.377-13.942 16.43-12.379 4.922-22.275 14.809-27.206 27.18-8.043.503-14.663 6.296-16.408 13.943h-19.578c-1.826-8.004-8.988-14-17.536-14-9.925 0-18 8.075-18 18s8.075 18 18 18c8.549 0 15.71-5.996 17.536-14h19.578c1.743 7.64 8.352 13.429 16.385 13.942 4.926 12.402 14.833 22.315 27.233 27.247.52 8.024 6.306 14.623 13.939 16.365v37.938c-55.175 2.07-99.628 46.776-101.284 102.054-7.985 1.839-13.964 8.991-13.964 17.527 0 9.925 8.075 18 18 18s18-8.075 18-18c0-8.56-6.011-15.73-14.03-17.544 1.659-50.859 42.521-91.971 93.278-94.032v43.769c-21.841 2.025-39 20.446-39 42.807 0 23.71 19.29 43 43 43s43-19.29 43-43c0-22.361-17.159-40.782-39-42.807V270.18c50.755 2.064 91.613 43.175 93.271 94.031-8.019 1.814-14.03 8.984-14.03 17.544 0 9.925 8.075 18 18 18s18-8.075 18-18c-.001-8.536-5.979-15.688-13.965-17.527zM270.881 64.832a3.506 3.506 0 0 1 3.502 3.502c0 1.931-1.571 3.501-3.502 3.501s-3.502-1.571-3.502-3.501a3.505 3.505 0 0 1 3.502-3.502zm-36.997-6.502c5.514 0 10 4.486 10 10s-4.486 10-10 10-10-4.486-10-10 4.486-10 10-10zM189.881 18c0-5.514 4.486-10 10-10s10 4.486 10 10-4.486 10-10 10-10-4.486-10-10zm-61 53.835a3.506 3.506 0 0 1-3.502-3.501c0-1.931 1.571-3.502 3.502-3.502s3.502 1.571 3.502 3.502a3.506 3.506 0 0 1-3.502 3.501zm37.003 6.495c-5.514 0-10-4.486-10-10s4.486-10 10-10 10 4.486 10 10-4.486 10-10 10zm-64.673 94.353c-5.514 0-10-4.486-10-10s4.486-10 10-10 10 4.486 10 10-4.486 10-10 10zm7.422 209.072c0 5.514-4.486 10-10 10s-10-4.486-10-10 4.486-10 10-10 10 4.486 10 10zm189.911-229.072c5.514 0 10 4.486 10 10s-4.486 10-10 10-10-4.486-10-10 4.487-10 10-10zm-44.649 10c0 5.514-4.486 10-10 10s-10-4.486-10-10 4.486-10 10-10 10 4.486 10 10zm-54.012-54.016c5.514 0 10 4.486 10 10s-4.486 10-10 10-10-4.486-10-10 4.486-10 10-10zm-54.021 54.016c0-5.514 4.486-10 10-10s10 4.486 10 10-4.486 10-10 10-10-4.486-10-10zm16.971 16.594c6.473-2.73 11.028-9.139 11.028-16.594 0-7.446-4.545-13.85-11.006-16.585a40.752 40.752 0 0 1 20.449-20.422c2.739 6.453 9.139 10.99 16.578 10.99 7.44 0 13.84-4.538 16.579-10.991a40.752 40.752 0 0 1 20.444 20.421c-6.464 2.734-11.011 9.139-11.011 16.587 0 7.456 4.558 13.867 11.033 16.595a40.79 40.79 0 0 1-20.446 20.465c-2.726-6.48-9.139-11.043-16.599-11.043s-13.873 4.563-16.599 11.043a40.77 40.77 0 0 1-20.45-20.466zm27.05 27.423c0-5.514 4.486-10 10-10s10 4.486 10 10-4.486 10-10 10-10-4.486-10-10zm44.998 150.055c0 19.299-15.701 35-35 35s-35-15.701-35-35 15.701-35 35-35 35 15.702 35 35zm66.241 35c-5.514 0-10-4.486-10-10s4.486-10 10-10 10 4.486 10 10-4.486 10-10 10z"/></svg>