<svg xmlns="http://www.w3.org/2000/svg" viewBox="0 0 338.767 338.767"><path d="M298.973 73.157c-25.702-25.703-59.877-39.858-96.227-39.858s-70.523 14.155-96.227 39.858c-53.06 53.06-53.06 139.394 0 192.454 25.703 25.703 59.877 39.858 96.227 39.858s70.524-14.155 96.227-39.858c53.059-53.061 53.059-139.395 0-192.454zm-5.657 186.796c-11.681 11.681-25.225 20.819-39.956 27.156 17.744-11.698 34.215-26.208 48.558-42.92a4 4 0 0 0-6.071-5.21c-20.23 23.57-48.084 44.664-75.601 57.302a130.046 130.046 0 0 1-17.501 1.188c-4.154 0-8.276-.2-12.359-.589a227.77 227.77 0 0 0 50.872-25.52 4 4 0 1 0-4.451-6.647 219.84 219.84 0 0 1-63.873 29.279 126.568 126.568 0 0 1-14.791-4.477 196.5 196.5 0 0 0 12.128-3.313 4 4 0 0 0-2.355-7.646 187.176 187.176 0 0 1-22.518 5.427c-11.638-5.838-22.419-13.502-31.997-22.834a230.793 230.793 0 0 0 13.555-3.076 3.999 3.999 0 0 0 2.864-4.878 3.997 3.997 0 0 0-4.878-2.864 223.392 223.392 0 0 1-18.137 3.902 127.148 127.148 0 0 1-23.597-38.872 229.289 229.289 0 0 0 23.246-7.289 4 4 0 1 0-2.798-7.494 221.228 221.228 0 0 1-23.078 7.202 128.33 128.33 0 0 1-3.992-16.555c17.341-5.604 33.99-13.242 49.518-22.786a4 4 0 1 0-4.19-6.815c-14.584 8.964-30.193 16.189-46.445 21.555a129.216 129.216 0 0 1-.465-22.234c8.314-3.591 16.365-7.688 23.955-12.209a4 4 0 0 0-4.093-6.873 199.531 199.531 0 0 1-18.932 9.917 128.31 128.31 0 0 1 5.69-23.995c12.924-7.601 26.339-17.69 37.186-27.603a4 4 0 1 0-5.396-5.905 222.613 222.613 0 0 1-26.729 20.916c6.137-13.178 14.632-25.519 25.492-36.379 24.192-24.192 56.357-37.516 90.57-37.516 4.656 0 9.271.255 13.836.743a225.355 225.355 0 0 1-4.393 12.113 4 4 0 0 0 3.719 5.473 4.002 4.002 0 0 0 3.721-2.529 233.063 233.063 0 0 0 5.002-13.947 127.206 127.206 0 0 1 16.52 3.984c-6.004 23.81-15.831 46.266-29.255 66.792a4 4 0 0 0 6.696 4.379c13.785-21.077 23.913-44.115 30.148-68.536 14.147 5.434 27.287 13.409 38.866 23.679a216.049 216.049 0 0 1-9.118 35.272 4 4 0 0 0 7.548 2.649 224.573 224.573 0 0 0 8.495-31.309c16.699 17.153 27.627 37.862 32.781 59.675-6.798 23.85-17.03 45.879-30.438 65.486a4 4 0 0 0 6.604 4.516c11.018-16.112 19.958-33.794 26.699-52.727 3.538 36.789-8.748 74.828-36.862 102.942zM23.633 96.726C10.602 96.726 0 107.328 0 120.359s10.602 23.633 23.633 23.633 23.634-10.602 23.634-23.633-10.603-23.633-23.634-23.633zm0 39.266c-8.62 0-15.633-7.013-15.633-15.633s7.013-15.633 15.633-15.633 15.634 7.013 15.634 15.633-7.014 15.633-15.634 15.633z"/><path d="M197.27 216.666a4 4 0 1 0 4.586 6.555c22.879-16.008 42.555-36.287 58.479-60.273a235.077 235.077 0 0 0 12.288-20.754 4 4 0 0 0-7.086-3.715 226.745 226.745 0 0 1-11.866 20.044c-15.37 23.149-34.347 42.711-56.401 58.143zm-32.61 19.253a205.418 205.418 0 0 1-14.757 6.314 4 4 0 0 0 2.855 7.472 213.527 213.527 0 0 0 15.333-6.561 4 4 0 1 0-3.431-7.225zm75.758-89.358a4 4 0 0 0-6.533-4.617c-30.046 42.51-72.305 73.713-118.993 87.863a4 4 0 0 0 2.32 7.656c48.383-14.663 92.138-46.946 123.206-90.902zm-109.397-21.457c22.662-18.894 41.814-42.449 55.387-68.119a4.001 4.001 0 0 0-7.072-3.739c-13.09 24.758-31.568 47.481-53.438 65.714a4 4 0 0 0 5.123 6.144zm173.562 37.626a4.002 4.002 0 0 0 5.297-1.987 229.089 229.089 0 0 0 2.44-5.563 4 4 0 0 0-7.367-3.117 228.613 228.613 0 0 1-2.356 5.37 4 4 0 0 0 1.986 5.297zm-3.502 7.115a4 4 0 0 0-5.438 1.557 240.56 240.56 0 0 1-18.58 28.495c-25.229 33.293-57.633 58.594-93.705 73.166a4 4 0 0 0 2.996 7.418c37.412-15.114 70.983-41.308 97.085-75.752a248.64 248.64 0 0 0 19.2-29.446 4 4 0 0 0-1.558-5.438zM190.943 141.11a212.347 212.347 0 0 1-12.827 13.222 4 4 0 0 0 5.494 5.814 219.42 219.42 0 0 0 13.313-13.723 3.999 3.999 0 1 0-5.98-5.313zm-29.62-10.397a4 4 0 1 0 5.48 5.828c18.801-17.681 32.125-35.242 40.733-53.688a4 4 0 0 0-7.25-3.383c-8.17 17.509-20.915 34.271-38.963 51.243zm-13.105 11.63a485.166 485.166 0 0 1-10.644 8.706 4 4 0 1 0 4.982 6.258 490.34 490.34 0 0 0 10.817-8.849 4 4 0 0 0-5.155-6.115z"/></svg>