<svg xmlns="http://www.w3.org/2000/svg" viewBox="0 0 325.402 325.402"><path d="M189.317 26.616c-75.038 0-136.085 61.048-136.085 136.085s61.047 136.085 136.085 136.085 136.085-61.047 136.085-136.085S264.354 26.616 189.317 26.616zm114.537 78.799c-19.285 81.007-76.736 147.79-154.087 179.114a127.043 127.043 0 0 1-15.309-6.102c80.857-31.451 141.937-101.332 162.187-185.549a128.35 128.35 0 0 1 7.209 12.537zM163.18 139.149c26.371-28.772 46.301-63.476 57.841-100.56a127.417 127.417 0 0 1 36.729 15.887c-19.382 87.483-83.595 159.155-168.504 188.074a128.007 128.007 0 0 1-20.7-37.19c35.734-14.765 68.396-37.583 94.634-66.211zm-97.083 58.568a127.141 127.141 0 0 1-3.383-15.516C125 152.771 174.179 99.363 198.318 34.937a127.68 127.68 0 0 1 14.865 1.918c-11.221 35.723-30.474 69.147-55.901 96.888-25.304 27.609-56.763 49.647-91.185 63.974zm123.22-163.101c.192 0 .382.006.573.007-23.415 60.543-69.7 110.809-128.17 139.196a128.966 128.966 0 0 1-.488-11.118c0-70.626 57.458-128.085 128.085-128.085zM94.827 249.08c85.048-30.115 149.458-102 170.022-189.755a129.154 129.154 0 0 1 25.562 24.818c-18.383 87.024-81.532 159.278-165.428 189.276a128.964 128.964 0 0 1-30.156-24.339zm67.417 38.818c71.824-32.367 125.65-94.933 146.817-170.653a127.168 127.168 0 0 1 8.052 36.946c-20.52 57.053-60.724 105.217-113.336 135.774a128.093 128.093 0 0 1-41.533-2.067zm63.449-2.382c39.622-27.44 71.097-65.121 90.95-108.895-5.626 51.82-42.283 94.456-90.95 108.895zM23.633 45.849C10.602 45.849 0 56.451 0 69.483s10.602 23.633 23.633 23.633 23.633-10.602 23.633-23.633-10.601-23.634-23.633-23.634zm0 39.267C15.013 85.116 8 78.103 8 69.483S15.013 53.85 23.633 53.85s15.633 7.013 15.633 15.633-7.013 15.633-15.633 15.633z"/></svg>