<svg xmlns="http://www.w3.org/2000/svg" viewBox="0 0 496 496"><path d="M48 0h16v384H48zm400 264h-16v216H64v-80H48v80H0v16h496v-16h-48zm-16-32h16v16h-16zm0-232h16v216h-16zM0 168h16v16H0zm480-32h16v16h-16zM16 264h16v16H16zm280-152c0-26.472-21.528-48-48-48s-48 21.528-48 48 21.528 48 48 48 48-21.528 48-48zm-48 32c-17.648 0-32-14.352-32-32s14.352-32 32-32 32 14.352 32 32-14.352 32-32 32z"/><path d="M172.728 315.424a24.029 24.029 0 0 0 19.296-3.376 23.982 23.982 0 0 0 7.992-8.992v16.416L191.448 448h48.04l8-120h1.032l8 120h48.04L296 320v-16.912a24.044 24.044 0 0 0 7.976 8.96c5.656 3.808 12.696 5.048 19.288 3.376 12.312-3.072 20.168-15.256 17.872-27.744l-17.832-97.056C320.824 173.168 305.64 160 288 160h-80c-17.64 0-32.824 13.168-35.256 30.312l-17.88 97.376c-2.296 12.48 5.56 24.664 17.864 27.736zM224.512 432h-15.968l1.064-16h15.968l-1.064 16zm38.976-120h-30.976l-5.864 88h-15.976L216 320v-40h64.008l.008 40.528L285.312 400h-15.96l-5.864-88zm8 120l-1.064-16h15.96l1.064 16h-15.96zm53.92-141.44c.768 4.2-1.872 8.304-6.016 9.344h-.008a8.004 8.004 0 0 1-6.488-1.144c-1.936-1.304-3.168-3.28-3.504-5.584l-9.144-64 13.272-3.32 11.888 64.704zM288 176c9.728 0 18.096 7.256 19.52 17.2l3.104 16.896-12.648 3.16-2.056-14.392L280 200l.008 64H256v-61.336L276 176h12zm-32 0l-8 10.664L240 176h16zm-67.464 16.888C189.904 183.256 198.272 176 208 176h12l20 26.664V264h-24v-64l-15.92-1.136-2.056 14.392-12.648-3.16 3.16-17.208zm-17.944 97.688l11.888-64.712 13.272 3.32-9.144 64a7.989 7.989 0 0 1-3.504 5.584c-1.92 1.296-4.216 1.704-6.496 1.144-4.144-1.04-6.784-5.144-6.016-9.336zM112 0h16v248h-16zm0 264h16v16h-16zm256-48h16v184h-16zm0 200h16v16h-16zM304 0h16v72h-16zm0 88h16v16h-16zM128 336h16v96h-16zm0 112h16v16h-16zm48-408h16v96h-16zm144 376h16v48h-16zm64-400h16v72h-16zm0 88h16v16h-16zM16 384h16v16H16zm64 16h16v16H80zm384-120h16v16h-16zm16 104h16v16h-16z"/></svg>