<svg xmlns="http://www.w3.org/2000/svg" viewBox="0 0 495.996 495.996"><path d="M447.273 95.524c-3.28-19.072-18.16-34.52-37.008-38.464-14.456-3.024-29.232.496-40.512 9.664-11.272 9.168-17.744 22.76-17.744 37.272 0 5.536.984 10.992 2.92 16.272l-19.288 38.568c-14.648 8.664-23.632 24.192-23.632 41.16 0 1.888.168 3.696.384 5.352l-2.072 4.144a11.726 11.726 0 0 1-10.536 6.504c-6.496 0-11.776-5.28-11.776-11.776v-9.92c5.24-7.904 8-16.944 8-26.304s-2.76-18.4-8-26.304V74.3c7.288-10.984 9.704-24.016 6.808-36.984-4.048-18.144-18.92-32.744-37.016-36.344-14.424-2.888-29.064.736-40.216 9.896-11.168 9.168-17.576 22.696-17.576 37.128 0 9.36 2.76 18.4 8 26.304v67.392c-5.24 7.904-8 16.944-8 26.304s2.76 18.4 8 26.304v9.92c0 6.496-5.28 11.776-11.776 11.776a11.717 11.717 0 0 1-10.536-6.504l-2.072-4.152c.216-1.648.384-3.456.384-5.344 0-16.968-8.984-32.504-23.632-41.16l-19.288-38.576c3.352-9.168 3.824-18.896 1.344-28.376-4.744-18.112-19.528-31.888-37.68-35.112-14.176-2.52-28.632 1.264-39.544 10.408-10.936 9.16-17.2 22.576-17.2 36.816 0 17.888 10 34.224 25.744 42.48L90.457 184.9a47.619 47.619 0 0 0-2.448 15.096c0 18.632 11.08 35.68 27.912 43.472l20.088 46.192v34.864c0 29.936 8.392 59.176 24.256 84.568l15.744 25.2v61.704h16V429.7l-18.176-29.088a143.333 143.333 0 0 1-21.824-76.088v-38.192l-24.048-55.296-3.168-1.184c-12.432-4.688-20.784-16.68-20.784-29.856 0-4.208.832-8.336 2.464-12.272l1.304-3.136-21.776-50.08-2.864-1.264c-11.624-5.12-19.128-16.608-19.128-29.248 0-9.496 4.176-18.44 11.472-24.544 7.384-6.184 16.752-8.656 26.48-6.92 11.832 2.104 21.88 11.504 24.992 23.408 1.896 7.24 1.256 14.416-1.912 21.32l-1.592 3.488 24.896 49.792 2.304 1.2c10.704 5.552 17.36 16.392 17.36 28.256 0 1.768-.264 3.6-.56 5.32l-.432 2.576 4.368 8.752c4.744 9.472 14.264 15.352 24.848 15.352 15.312 0 27.776-12.464 27.776-27.776v-15.096l-1.584-2.128c-4.2-5.632-6.416-12.2-6.416-19s2.216-13.368 6.416-19.008l1.584-2.128V69.132l-1.584-2.128c-4.2-5.64-6.416-12.208-6.416-19.008 0-9.624 4.272-18.64 11.72-24.76 7.552-6.184 17.112-8.504 26.944-6.576 11.976 2.392 21.832 12.088 24.528 24.144 2.064 9.256.072 18.56-5.608 26.2l-1.584 2.128v77.736l1.584 2.128c4.2 5.632 6.416 12.2 6.416 19s-2.216 13.368-6.416 19.008l-1.584 2.128v15.096c0 15.304 12.464 27.768 27.776 27.768 10.584 0 20.112-5.88 24.848-15.36l4.368-8.744-.432-2.576c-.296-1.72-.56-3.552-.56-5.32 0-11.864 6.656-22.704 17.368-28.264l2.304-1.2 24.904-49.792-1.608-3.496c-1.968-4.288-2.968-8.744-2.968-13.248 0-9.68 4.312-18.736 11.832-24.848 7.624-6.192 17.264-8.488 27.16-6.424 12.28 2.568 22.36 13.064 24.504 25.52 2.528 14.648-5.136 29.048-18.624 35l-2.864 1.264-21.776 50.08 1.304 3.136c1.632 3.936 2.464 8.064 2.464 12.272 0 13.176-8.352 25.168-20.792 29.848l-3.168 1.184-24.04 55.304v38.192c0 26.936-7.544 53.248-21.824 76.088L304.009 429.7v66.296h16v-61.704l15.744-25.192a159.448 159.448 0 0 0 24.256-84.576V289.66l20.088-46.192c16.832-7.792 27.912-24.84 27.912-43.472 0-5.16-.824-10.216-2.448-15.104l16.704-38.424c18.4-9.641 28.6-30.12 25.008-50.944z"/><path d="M200.06 408.97L184.067 281l15.877-1.984 15.991 127.97zm80.02-1.982l15.992-127.969 15.877 1.984-15.992 127.97zm-40.071-134.992h16v104h-16zm0 120h16v16h-16z"/></svg>