<svg xmlns="http://www.w3.org/2000/svg" viewBox="0 0 496 496"><path d="M72 280h112V176H72v104zm96-40h-32v-24h32v24zm-80-48h80v8h-48v56h48v8H88v-72z"/><path d="M96 208h16v16H96zm0 24h16v16H96z"/><path d="M496 160V0H272v208h-16.448c-2.752-24.792-18.136-45.808-39.552-56.48V88c0-48.52-39.48-88-88-88S40 39.48 40 88v63.6C16.336 163.408 0 187.8 0 216v80c0 26.472 21.528 48 48 48v152h160V270.632a24.07 24.07 0 0 0 8 1.368h56v224h16V272c17.648 0 32-14.352 32-32s-14.352-32-32-32v-48h208zM288 16h192v32H288V16zm0 48h192v32H288V64zm0 48h192v32H288v-32zM56 88c0-39.704 32.296-72 72-72s72 32.296 72 72v57.864c-5.152-1.176-10.496-1.864-16-1.864h-25.088C178.616 133.08 192 112.08 192 88c0-35.288-28.712-64-64-64S64 52.712 64 88c0 24.08 13.384 45.08 33.088 56H72c-5.504 0-10.848.68-16 1.856V88zm64-20c0 15.44 12.56 28 28 28 12.464 0 22.928-8.24 26.544-19.52C175.456 80.176 176 84.024 176 88c0 26.472-21.528 48-48 48s-48-21.528-48-48 21.528-48 48-48c3.976 0 7.824.544 11.52 1.456C128.24 45.072 120 55.536 120 68zm28-12c6.616 0 12 5.384 12 12s-5.384 12-12 12-12-5.384-12-12 5.384-12 12-12zM48 328c-17.648 0-32-14.352-32-32h32v32zm72 152H64v-16h56v16zm72 0h-56v-16h56v16zm0-88h-16v16h16v40h-56v-40h24v-16h-24v-32h-16v32h-16v16h16v40H64v-40h24v-16H64v-64h16v8h16v-8h24v8h16v-8h24v8h16v-8h16v64zm48-168v32h-24c-4.416 0-8-3.584-8-8v-48h-16v112h-16v-8h-16v8h-24v-8h-16v8H96v-8H80v8H64V200H48v80H16v-64c0-30.872 25.128-56 56-56h112c30.872 0 56 25.128 56 56v8zm32 32h-16v-32h16v32zm32-16c0 8.824-7.176 16-16 16v-32c8.824 0 16 7.176 16 16z"/></svg>