<svg xmlns="http://www.w3.org/2000/svg" viewBox="0 0 496 496"><path d="M480 480v-64h-32v-56h16v-16h-16v-32h32v-96h-32v-16C448 89.72 358.28 0 248 0S48 89.72 48 200v16H16v96h32v32H32v16h16v56H16v64H0v16h496v-16h-16zm-32-248h16v24h-16v-24zm0 40h16v24h-16v-24zM248 16c58.976 0 111.52 27.92 145.216 71.2l-9.256-3.368C347.776 70.672 309.888 64 271.368 64h-46.736c-38.52 0-76.408 6.672-112.592 19.832l-9.256 3.368C136.48 43.92 189.024 16 248 16zM64 200c0-32.816 8.672-63.616 23.784-90.32l29.72-10.808C151.936 86.352 187.984 80 224.632 80h46.736c36.648 0 72.696 6.352 107.128 18.864l29.72 10.808C423.328 136.384 432 167.184 432 200v216h-16v-16h-16v16h-16v-16h-16v16h-16v-16h-16v16h-16v-16h-16v16h-16v-16h-16v16h-16v-16h-16v16h-16v-16h-16v16h-16v-16h-16v16h-16v-16h-16v16h-16v-16h-16v16H96v-16H80v16H64V200zm-32 32h16v24H32v-24zm0 64v-24h16v24H32zm432 152h-32v16h32v16H32v-16h384v-16H32v-16h432v16z"/><path d="M216 384h64c74.992 0 136-61.008 136-136v-32c0-30.872-25.128-56-56-56H136c-30.872 0-56 25.128-56 56v32c0 74.992 61.008 136 136 136zM96 216c0-22.056 17.944-40 40-40h224c22.056 0 40 17.944 40 40v32c0 66.168-53.832 120-120 120h-64c-66.168 0-120-53.832-120-120v-32z"/><path d="M176 208v-16h-40c-13.232 0-24 10.768-24 24v40h16v-40c0-4.416 3.584-8 8-8h40zm16-16h16v16h-16z"/></svg>