<svg xmlns="http://www.w3.org/2000/svg" viewBox="0 0 496 496"><path d="M392 240c-22.976 0-44.392-10.288-58.744-28.232l-14.024-17.528C301.832 172.48 275.864 160 248 160s-53.832 12.48-71.224 34.232l-14.04 17.528C148.392 229.712 126.976 240 104 240H0v16h104c22.976 0 44.392 10.288 58.744 28.232l14.024 17.528C194.168 323.52 220.136 336 248 336s53.832-12.48 71.224-34.232l14.04-17.528C347.608 266.288 369.024 256 392 256h104v-16H392zm-71.224 34.232l-14.04 17.528C292.392 309.712 270.976 320 248 320s-44.392-10.288-58.744-28.232l-14.024-17.528c-9.24-11.552-20.944-20.392-34.016-26.232 13.072-5.84 24.768-14.68 34.008-26.232l14.04-17.528C203.608 186.288 225.024 176 248 176s44.392 10.288 58.744 28.232l14.024 17.528c9.24 11.552 20.944 20.392 34.016 26.232-13.08 5.848-24.776 14.688-34.008 26.24z"/><path d="M248 192c-30.872 0-56 25.128-56 56s25.128 56 56 56 56-25.128 56-56-25.128-56-56-56zm0 96c-22.056 0-40-17.944-40-40s17.944-40 40-40 40 17.944 40 40-17.944 40-40 40zm-8-208h16v64h-16zm0-80h16v32h-16zm0 48h16v16h-16zM106.5 157.069l55.423 32-8 13.855-55.423-32zm-69.28-40.003l27.711 16-8 13.855-27.71-16zm41.57 24.01l13.848 7.998-8 13.855-13.849-7.997zm124.139 12.87l-13.858 7.998-15.997-27.715 13.858-7.998zM130.924 29.215l48 83.134-13.857 8-47.999-83.134zM240 352h16v32h-16zm0 48h16v96h-16zm-99.941-98.924l13.848-7.997 8 13.855-13.847 7.998zM29.213 365.062l96.99-56 8 13.857-96.99 55.999zm312.834-71.942l13.848 7.997-8 13.855-13.849-7.997zm116.72 85.804l-96.99-56 8-13.855 96.99 55.999zm-271.827-9.156l-13.857-7.999 15.997-27.715 13.857 7.999zm-40.006 69.274l-13.858-7.998 31.994-55.431 13.858 7.998zm-15.995 27.708l-13.858-7.999 7.999-13.857 13.857 7.998zm178.139-340.538l13.858 7.998-15.997 27.715-13.858-7.998zm39.979-69.288l13.858 7.998-31.994 55.432-13.858-7.999zm16.013-27.7l13.857 7.999-7.999 13.857-13.857-7.998zM293.066 342.05l13.858-7.998 7.994 13.85-13.858 7.999zm16.02 27.749l13.858-7.999 7.994 13.851-13.857 7.998zm55.982 96.998l-40-69.278 13.857-8 39.999 69.278zm-9.214-271.869l-13.848 7.997-8.001-13.855 13.848-7.997zm110.921-64.021l-96.99 56-8-13.857 96.99-55.999z"/></svg>