<svg xmlns="http://www.w3.org/2000/svg" viewBox="0 0 497.088 497.088"><path d="M336.544 248.544c0-48.52-39.48-88-88-88s-88 39.48-88 88 39.48 88 88 88 88-39.48 88-88zm-160 0c0-39.704 32.296-72 72-72s72 32.296 72 72-32.296 72-72 72-72-32.296-72-72z"/><path d="M304.544 248.544c0-30.872-25.128-56-56-56s-56 25.128-56 56 25.128 56 56 56 56-25.128 56-56zm-96 0c0-22.056 17.944-40 40-40s40 17.944 40 40-17.944 40-40 40-40-17.944-40-40z"/><path d="M272.544 248.544c0-13.232-10.768-24-24-24s-24 10.768-24 24 10.768 24 24 24 24-10.768 24-24zm-32 0c0-4.416 3.584-8 8-8s8 3.584 8 8-3.584 8-8 8-8-3.584-8-8z"/><path d="M190.528 353.512c6.096 3.384 12.544 6.184 19.232 8.472l-.392.304c26.872 34.704 64.336 61.784 102.784 74.304l4.952-15.216c-14.776-4.808-49.744-19.08-82.088-53.648 4.448.504 8.952.816 13.528.816 2.584 0 5.112-.224 7.648-.384l-.28.488c38.64 21.84 75.024 29.616 107.248 29.616 79.136 0 133.176-46.904 133.928-47.576l-10.616-11.96c-3.8 3.36-90.232 77.784-204.816 25.064 6.84-1.968 13.408-4.56 19.688-7.656l-.072.544a227.982 227.982 0 0 0 28.704 1.808c34.296 0 68.328-7.616 96.504-21.936l-7.248-14.264c-13.872 7.048-48.728 21.68-96.096 20.096 5.56-4.432 10.688-9.36 15.376-14.696l.16.576c147.8-41.056 157.768-181.824 157.84-183.24l-15.968-.936c-.072 1.24-8.464 118.312-127.04 162.488 3.384-6.096 6.184-12.544 8.472-19.232l.304.392c34.704-26.872 61.784-64.336 74.304-102.784L421.368 180c-4.808 14.776-19.08 49.744-53.648 82.088.512-4.464.824-8.968.824-13.544 0-2.584-.224-5.112-.384-7.648l.488.28C444.136 107.632 351.632 1.048 350.688 0l-11.96 10.616c3.36 3.808 77.784 90.216 25.064 204.816-1.968-6.84-4.56-13.408-7.656-19.688l.544.072c5.528-43.52-1.808-89.168-20.136-125.2l-14.264 7.248c7.048 13.864 21.696 48.736 20.096 96.104-4.432-5.56-9.368-10.688-14.704-15.384l.576-.16C287.2 10.608 146.432.64 145.016.56l-.936 15.968c1.24.072 118.312 8.464 162.488 127.04-6.096-3.384-12.544-6.184-19.232-8.472l.392-.304c-26.872-34.704-64.336-61.784-102.784-74.304l-4.952 15.216c14.776 4.808 49.744 19.08 82.088 53.648-4.456-.496-8.96-.808-13.536-.808-2.584 0-5.112.224-7.648.384l.28-.488C107.656 52.968 1.056 145.456 0 146.4l10.616 11.96c3.8-3.352 90.24-77.776 204.816-25.064-6.84 1.968-13.408 4.56-19.688 7.656l.072-.544c-43.52-5.536-89.168 1.808-125.2 20.136l7.248 14.264c13.864-7.04 48.728-21.696 96.104-20.096-5.56 4.432-10.688 9.368-15.384 14.696l-.16-.576C10.608 209.888.64 350.656.56 352.072l15.968.936c.072-1.24 8.464-118.312 127.04-162.488-3.384 6.096-6.184 12.544-8.472 19.232l-.304-.392c-34.704 26.872-61.784 64.336-74.304 102.784l15.216 4.952c4.808-14.776 19.08-49.744 53.648-82.088-.496 4.456-.808 8.96-.808 13.536 0 2.584.224 5.112.384 7.648l-.488-.28C52.952 389.456 145.456 496.04 146.4 497.088l11.96-10.616c-3.36-3.808-77.784-90.216-25.064-204.816 1.968 6.84 4.56 13.408 7.656 19.688l-.544-.072c-5.528 43.52 1.808 89.168 20.136 125.2l14.264-7.248c-7.048-13.864-21.696-48.736-20.096-96.104 4.432 5.56 9.368 10.688 14.704 15.384l-.576.16c41.056 147.8 181.824 157.768 183.24 157.84l.936-15.968c-1.24-.048-118.312-8.44-162.488-127.024zm-45.984-104.968c0-57.344 46.656-104 104-104s104 46.656 104 104-46.656 104-104 104-104-46.656-104-104z"/><path d="M120.544 48.544h16v16h-16zm-32-32h16v16h-16zm-64 56h16v16h-16zm0 120h16v16h-16zm32 168h16v16h-16zm-32 32h16v16h-16zm136 64h16v16h-16zm56 24h16v16h-16zm136-48h16v16h-16zm48-16h16v16h-16zm72 56h16v16h-16zm-8-184h16v16h-16zm-32-184h16v16h-16zm16-48h16v16h-16zm-152-32h16v16h-16zm-32-24h16v16h-16z"/></svg>