<svg xmlns="http://www.w3.org/2000/svg" viewBox="0 0 496 496"><path d="M464 168c-11.296 0-21.192 5.92-26.888 14.784L392 169.248V120h-16v44.448l-32-9.6V120h-16v30.048l-43.32-12.992C264.744 110.696 230.112 96 184 96c-6.488 0-13.056.296-19.656.808C162.264 94.256 160 90.568 160 88c0-2.288 1.816-5.512 3.688-8h14.736l24-16H224c13.232 0 24-10.768 24-24s-10.768-24-24-24h-21.576l-24-16H32v80h15.824C49.28 80.112 56 81.4 56 96c0 16.088-8.344 32.688-12.44 39.872C17.28 153.4 0 175.544 0 200c0 30.712 27.208 57.792 65.344 76.616C67.888 282.032 80 309.216 80 336c0 12.224-10.84 33.28-22.328 55.568-12.264 23.816-26.168 50.808-31.44 75.744-1.472 6.96.28 14.152 4.808 19.728 4.616 5.696 11.464 8.96 18.776 8.96H160c13.232 0 24-10.768 24-24v-88c0-5.592-.192-10.88-.472-16H234c20.952 0 38-17.048 38-38 0-8.168-2.704-16.264-7.6-22.8l-12.936-17.248c13.56-6.744 24.744-15.8 33.216-27.008L328 249.952V280h16v-34.848l32-9.6V280h16v-49.248l45.112-13.536C442.808 226.08 452.704 232 464 232c17.648 0 32-14.352 32-32s-14.352-32-32-32zM208 32h16c4.416 0 8 3.584 8 8s-3.584 8-8 8h-16V32zM48 64V16h125.576L192 28.28v23.44L173.576 64H48zm21.256 16h76.264c-.912 2.496-1.52 5.2-1.52 8 0 3.872 1.176 7.544 2.712 10.76-28.048 4.016-55.848 12.272-79.576 23.728C69.88 114.464 72 105.296 72 96c0-6.512-1.064-11.752-2.744-16zM128 384H88v16h40v16H72v16h56v16H64v16h64v16H49.816a8.162 8.162 0 0 1-6.352-3.04c-.856-1.064-2.208-3.304-1.568-6.336 4.824-22.832 18.2-48.816 30.008-71.728C84.832 373.792 96 352.112 96 336h8c10.416 0 19.216 6.712 22.528 16H104v16h24v16zm40 88c0 4.416-3.584 8-8 8h-16V360c0-22.056-17.944-40-40-40h-9.16c-1.76-12.984-5.248-25.072-8.52-34.272 21.176 8.064 44.448 13.752 67.68 16.456 3.52 8.368 14 37.04 14 81.816v88zm83.6-155.192c2.84 3.768 4.4 8.456 4.4 13.192 0 12.136-9.864 22-22 22h-51.784c-2.48-22.032-7.056-38.4-10.536-48.344 4.128.208 8.24.344 12.32.344 19.56 0 37.008-2.688 52.2-7.736l15.4 20.544zM184 288c-75.624 0-168-40.608-168-88 0-19.168 15.112-37.216 38.112-51.928l.544.36c.072-.112.36-.544.752-1.168C89.272 126.056 139.52 112 184 112c66.096 0 104 32.08 104 88s-37.904 88-104 88zm144-54.752l-31.856 9.552C301.28 230.216 304 215.904 304 200s-2.72-30.216-7.856-42.8L328 166.752v66.496zm48-14.4l-32 9.6v-56.896l32 9.6v37.696zm56.2-16.864L392 214.048v-28.096l40.2 12.064c-.04.664-.2 1.304-.2 1.984s.16 1.32.2 1.984zM464 216c-8.824 0-16-7.176-16-16s7.176-16 16-16 16 7.176 16 16-7.176 16-16 16z"/><path d="M264 32h64v16h-64zm80 0h16v16h-16zm32 0h120v16H376zM224 160c-22.056 0-40 17.944-40 40s17.944 40 40 40 40-17.944 40-40-17.944-40-40-40zm0 64c-13.232 0-24-10.768-24-24s10.768-24 24-24 24 10.768 24 24-10.768 24-24 24zm-104-32h48v16h-48zm-32 0h16v16H88z"/></svg>