<svg xmlns="http://www.w3.org/2000/svg" viewBox="0 0 496 496"><path d="M460.408 332.608l-151.376-59.224L240 181.336V0H32v184c0 46.736-4.48 69.968-8.808 92.448C19.496 295.64 16 313.784 16 344v56H0v96h48v-16h16v16h48v-16h16v16h48v-16h80v16h48v-16h16v16h48v-16h16v16h48v-16h16v16h48V384.76c0-23.216-13.968-43.68-35.592-52.152zM240 208h-32v-56h16v34.664L240 208zm-16-104h-16V48h16v56zM48 16h176v16h-32v16H48V16zm0 48h144v24H48V64zm0 40h144v16h32v16h-32v16H48v-48zm0 80v-16h144v24H47.952c.024-2.6.048-5.256.048-8zm-9.088 95.472c3.48-18.128 7.352-38.264 8.64-71.472H192v16h60l46.968 62.616 83.048 32.504c-23.672 25.832-36.992 58.784-37.84 93.912-24.136-1.568-48.288-3.56-72.056-5.544-30.896-2.584-60.608-5.04-88.464-6.392C180.024 333.728 124.248 280 56 280H38.808a12.3 12.3 0 0 1 .104-.528zM480 480h-16v-16h-48v16h-16v-16h-48v16h-16v-16h-48v16h-16v-16H160v16h-16v-16H96v16H80v-16H32v16H16v-32h16v-16H16v-16h32v-16H32v-56c0-20.16 1.664-34.712 3.88-48H56c59.208 0 107.696 46.208 111.616 104.44-8.04-.264-15.952-.44-23.616-.44H64v16h80c37.84 0 81.048 3.608 126.792 7.432C321.272 427.64 373.48 432 424 432h56v48zm0-64h-56c-21.016 0-42.416-.872-63.872-2.08.672-33.344 13.872-64.616 37.528-88.264l-.688-.688 57.608 22.544C470.024 353.56 480 368.176 480 384.76V416z"/><path d="M48 432h16v16H48z"/></svg>