<svg xmlns="http://www.w3.org/2000/svg" viewBox="0 0 496 496"><path d="M432 256V0H64v256H0v240h496V256h-64zM80 16h336v240H80V16zm160 464H16V272h224v208zm240 0H256V272h224v208z"/><path d="M360.256 37.8l-15.728-1.432c-64-5.816-129.064-5.816-193.064 0L135.736 37.8c-18.112 1.648-32.56 15.376-35.144 33.384C97.544 92.616 96 114.424 96 136s1.544 43.384 4.6 64.816c2.576 18.008 17.032 31.728 35.144 33.376l15.728 1.432c32 2.904 64.472 4.376 96.528 4.376 32.056 0 64.528-1.472 96.528-4.376l15.728-1.432c18.112-1.648 32.56-15.376 35.144-33.384 3.056-21.424 4.6-43.232 4.6-64.808s-1.544-43.384-4.6-64.816c-2.576-18.008-17.032-31.736-35.144-33.384zm19.296 160.744a22.982 22.982 0 0 1-20.752 19.712l-15.728 1.432c-63.032 5.72-127.128 5.72-190.16 0l-15.728-1.432a22.99 22.99 0 0 1-20.752-19.712A446.293 446.293 0 0 1 112 136c0-20.832 1.496-41.872 4.448-62.544A22.982 22.982 0 0 1 137.2 53.744l15.728-1.432C184.44 49.456 216.432 48 248 48s63.56 1.456 95.08 4.312l15.728 1.432a22.99 22.99 0 0 1 20.752 19.712A445.096 445.096 0 0 1 384 136c0 20.832-1.496 41.872-4.448 62.544zM32 384h192v-96H32v96zm136-80h40v24h-40v-24zm0 40h40v24h-40v-24zm-64-40h48v24h-48v-24zm0 40h48v24h-48v-24zm-56-40h40v24H48v-24zm0 40h40v24H48v-24zm16 56c-17.648 0-32 14.352-32 32s14.352 32 32 32 32-14.352 32-32-14.352-32-32-32zm0 48c-8.824 0-16-7.176-16-16s7.176-16 16-16 16 7.176 16 16-7.176 16-16 16zm64-48c-17.648 0-32 14.352-32 32s14.352 32 32 32 32-14.352 32-32-14.352-32-32-32zm0 48c-8.824 0-16-7.176-16-16s7.176-16 16-16 16 7.176 16 16-7.176 16-16 16zm64-48c-17.648 0-32 14.352-32 32s14.352 32 32 32 32-14.352 32-32-14.352-32-32-32zm0 48c-8.824 0-16-7.176-16-16s7.176-16 16-16 16 7.176 16 16-7.176 16-16 16z"/><path d="M152 72h16v16h-16zm0 32h16v16h-16zm16-16h16v16h-16zm-32 0h16v16h-16zm152 56h16v16h-16zm0 32h16v16h-16zm16-16h16v16h-16zm-32 0h16v16h-16zm0 304h64V288h-64v176zm16-32h16v-16h-16V304h32v144h-32v-16zm64 32h64V288h-64v176zm16-112h16v-16h-16v-32h32v144h-32v-96zm64-64h32v16h-32zm0 32h32v16h-32zm0 32h32v16h-32zm0 32h32v16h-32zm0 32h32v16h-32zm0 32h32v16h-32z"/></svg>