<svg xmlns="http://www.w3.org/2000/svg" viewBox="0 0 496 496"><path d="M492.104 121.32c2.544-4.792 3.896-10.184 3.896-16.144C496 86.88 481.12 72 462.824 72c-12.048 0-23.168 6.536-29.008 17.072L432 92.336V44c0-15.44-12.56-28-28-28a27.855 27.855 0 0 0-13.352 3.392C387.008 8.152 376.44 0 364 0s-23.008 8.152-26.648 19.392A27.855 27.855 0 0 0 324 16c-12.44 0-23.008 8.152-26.648 19.392A27.855 27.855 0 0 0 284 32c-15.44 0-28 12.56-28 28v292h-16V60c0-15.44-12.56-28-28-28a27.855 27.855 0 0 0-13.352 3.392C195.008 24.152 184.44 16 172 16a27.855 27.855 0 0 0-13.352 3.392C155.008 8.152 144.44 0 132 0s-23.008 8.152-26.648 19.392A27.855 27.855 0 0 0 92 16c-15.44 0-28 12.56-28 28v48.336l-1.816-3.264C56.344 78.536 45.224 72 33.176 72 14.88 72 0 86.88 0 105.704a33.383 33.383 0 0 0 3.896 15.616L64 234v118H48v64h16v80h16v-80h144v80h16v-80h16v80h16v-80h144v80h16v-80h16v-64h-16V234l60.104-112.68zm-474.08-7.528c-1.328-2.48-2.024-5.28-2.024-8.616C16 95.704 23.704 88 33.176 88c6.24 0 11.992 3.384 15.024 8.832L83.288 160H88c30.872 0 56 25.128 56 56v24h16v-24c0-38.088-29.736-69.368-67.2-71.84L80 121.128V44c0-6.616 5.384-12 12-12s12 5.384 12 12v84h16V28c0-6.616 5.384-12 12-12s12 5.384 12 12v100h16V44c0-6.616 5.384-12 12-12s12 5.384 12 12v84h16V60c0-6.616 5.384-12 12-12s12 5.384 12 12v260h-16v16h16v16H80v-16h112v-16H80v-90L18.024 113.792zM240 400h-16v-16h-16v16h-16v-16h-16v16h-16v-16h-16v16h-16v-16h-16v16H96v-16H80v16H64v-32h176v32zm192 0h-16v-16h-16v16h-16v-16h-16v16h-16v-16h-16v16h-16v-16h-16v16h-16v-16h-16v16h-16v-32h176v32zm-16-170v90h-16v16h16v16H272v-16h112v-16H272V60c0-6.616 5.384-12 12-12s12 5.384 12 12v68h16V44c0-6.616 5.384-12 12-12s12 5.384 12 12v84h16V28c0-6.616 5.384-12 12-12s12 5.384 12 12v100h16V44c0-6.616 5.384-12 12-12s12 5.384 12 12v77.128l-12.8 23.032C365.728 146.64 336 177.92 336 216v24h16v-24c0-30.872 25.128-56 56-56h4.712L447.8 96.832A17.19 17.19 0 0 1 462.824 88C472.296 88 480 95.704 480 105.704c0 2.816-.696 5.608-2.024 8.088L416 230z"/></svg>