<svg xmlns="http://www.w3.org/2000/svg" viewBox="0 0 501.673 501.673"><path d="M434.344 240.004L224.456 449.892c-23.064 23.064-53.728 35.768-86.344 35.768C70.784 485.66 16 430.876 16 363.548c0-32.616 12.704-63.28 35.768-86.344L309.656 19.316 298.344 8.004 40.456 265.892C14.368 291.98 0 326.66 0 363.548c0 76.16 61.952 138.112 138.112 138.112 36.888 0 71.568-14.368 97.656-40.456l209.888-209.888-11.312-11.312z"/><path d="M168 309.66c-17.648 0-32 14.352-32 32s14.352 32 32 32 32-14.352 32-32-14.352-32-32-32zm0 48c-8.824 0-16-7.176-16-16s7.176-16 16-16 16 7.176 16 16-7.176 16-16 16zm-48 32c-13.232 0-24 10.768-24 24s10.768 24 24 24 24-10.768 24-24-10.768-24-24-24zm0 32c-4.416 0-8-3.584-8-8s3.584-8 8-8 8 3.584 8 8-3.584 8-8 8zM389.657 35.277l-96.001 96-11.314-11.313 96.001-96zm79.994 8.009L357.654 155.283 346.34 143.97 458.338 31.972zm4.708-27.272L490.356.017 501.67 11.33l-15.997 15.998z"/><path d="M426.344 152.004L237.008 341.34a103.706 103.706 0 0 0-22.12-43.256l126.768-126.768-11.312-11.312-126.768 126.768a103.706 103.706 0 0 0-43.256-22.12l117.336-117.336-11.312-11.312-125.88 125.88c-1.496-.064-2.96-.224-4.464-.224-57.344 0-104 46.656-104 104s46.656 104 104 104 104-46.656 104-104c0-1.504-.16-2.968-.224-4.464l197.88-197.88-11.312-11.312zM63.696 315.628C68.92 320.108 72 326.58 72 333.66c0 13.096-10.552 23.736-23.592 23.96a87.42 87.42 0 0 1 15.288-41.992zM136 453.66c-45.84 0-83.552-35.24-87.6-80.04 21.872-.224 39.6-18.04 39.6-39.96 0-11.944-5.24-22.84-14.08-30.304 13.176-13.128 30.512-22.024 49.808-24.736l-25.384 25.384 11.312 11.312 36.952-36.952C190.136 283.628 224 320.732 224 365.66c0 48.52-39.48 88-88 88zm317.678-306.364l-11.313-11.314 15.997-15.997 11.314 11.313zm24.002 71.997l-15.997 15.997-11.313-11.313 15.997-15.998z"/><path d="M189.654 419.316l-11.314-11.314 15.997-15.997 11.314 11.313zM288 485.66h16v16h-16zm0-32h16v16h-16zm16 16h16v16h-16zm-32 0h16v16h-16zm176-32h16v16h-16zm0-32h16v16h-16zm16 16h16v16h-16zm-32 0h16v16h-16zm-400-240h16v16H32zm0-32h16v16H32zm16 16h16v16H48zm-32 0h16v16H16zm64-128h16v16H80zm0-32h16v16H80zm16 16h16v16H96zm-32 0h16v16H64zm368 296h16v16h-16zm0-32h16v16h-16zm16 16h16v16h-16zm-32 0h16v16h-16z"/></svg>