<svg xmlns="http://www.w3.org/2000/svg" viewBox="0 0 496 496"><path d="M436.32 348.824c18.112-27.76 27.68-59.96 27.68-93.112V240h32v-16h-16.2C475.56 99.776 373.24 0 248 0S20.44 99.776 16.2 224H0v16h32v15.712c0 33.152 9.568 65.352 27.68 93.112l45.544 69.832c3.584 5.496 7.48 10.704 11.6 15.68l-70.128 8.768C20.08 446.432 0 469.168 0 496h16c0-18.776 14.048-34.696 32.68-37.024l81.6-10.2C161.608 478.792 203.464 496 248 496s86.392-17.208 117.72-47.224l81.6 10.2C465.952 461.304 480 477.224 480 496h16c0-26.832-20.08-49.568-46.696-52.896l-70.128-8.768c4.12-4.976 8.016-10.184 11.6-15.68l45.544-69.832zM33.368 208H408v-16H35.776C54.592 91.952 142.568 16 248 16s193.408 75.952 212.224 176H424v16h38.632c.584 5.28.968 10.616 1.16 16H32.2c.2-5.384.576-10.72 1.168-16zM408 240v45.528c0 17.816-10.48 34.088-26.696 41.456l-25.232 11.472C334.16 348.408 320 370.4 320 394.472 320 419.576 299.576 440 274.472 440h-52.936C196.424 440 176 419.576 176 394.472c0-24.072-14.16-46.064-36.072-56.016l-25.232-11.472C98.48 319.616 88 303.344 88 285.528V240h320zm-30.632 169.92C348.76 453.808 300.392 480 248 480c-52.392 0-100.76-26.192-129.368-70.08l-45.544-69.832C56.672 314.92 48 285.752 48 255.712V240h24v45.528c0 24.072 14.16 46.064 36.072 56.016l25.232 11.472C149.52 360.384 160 376.656 160 394.472 160 428.4 187.6 456 221.528 456h52.936C308.4 456 336 428.4 336 394.472c0-17.816 10.48-34.088 26.696-41.456l25.232-11.472C409.84 331.592 424 309.6 424 285.528V240h24v15.712c0 30.04-8.672 59.208-25.088 84.376l-45.544 69.832z"/><path d="M120 272c0 17.648 17.944 32 40 32s40-14.352 40-32-17.944-32-40-32-40 14.352-40 32zm40-16c13.008 0 24 7.328 24 16s-10.992 16-24 16-24-7.328-24-16 10.992-16 24-16zm136 16c0 17.648 17.944 32 40 32s40-14.352 40-32-17.944-32-40-32-40 14.352-40 32zm40-16c13.008 0 24 7.328 24 16s-10.992 16-24 16-24-7.328-24-16 10.992-16 24-16zm-144 80l16 .096c.096-3.696 1.552-8.096 8-8.096s7.904 4.4 8 8v16h16v-16c0-9.648-6.392-24-24-24s-24 14.352-24 24zm80 .096c.096-3.696 1.552-8.096 8-8.096s7.904 4.4 8 8.096l8-.096h8c0-9.648-6.392-24-24-24s-24 14.352-24 24v16h16v-15.904zM240 392v14.592c-.76.464-2.92 1.408-8 1.408-10.736 0-16.808-11.504-16.864-11.624l-14.288 7.2c.408.84 10.448 20.424 31.152 20.424 7.36 0 12.464-1.48 16-3.536 3.536 2.056 8.64 3.536 16 3.536 20.704 0 30.744-19.584 31.16-20.424l-14.288-7.2c-.064.12-6.136 11.624-16.872 11.624-5.08 0-7.24-.944-8-1.408V392h-16z"/></svg>