<svg xmlns="http://www.w3.org/2000/svg" viewBox="0 0 496 496"><path d="M248 0C5.552 0 .032 150.336 0 152v16c0 25.176 19.496 45.848 44.176 47.808l99.68 115.016L112 389.984V416H96c-22.056 0-40 17.944-40 40s17.944 40 40 40h96c22.056 0 40-17.944 40-40 0-9.04-3.128-17.296-8.208-24H272.2c-5.072 6.704-8.2 14.96-8.2 24 0 22.056 17.944 40 40 40h96c22.056 0 40-17.944 40-40s-17.944-40-40-40h-16v-26.016l-31.856-59.16 99.68-115.016C476.504 213.848 496 193.176 496 168v-16.152C495.968 150.336 490.448 0 248 0zM112 480H96c-10.416 0-19.216-6.712-22.528-16H112v16zm0-32H73.472c3.312-9.288 12.112-16 22.528-16h16v16zM256 25.208c21.736 20.336 64 69.32 64 142.792 0 17.648-14.352 32-32 32s-32-14.352-32-32V25.208zm23.736.984c44.16 17.016 116.84 58.04 120.048 143.96C398.656 186.784 384.912 200 368 200c-17.648 0-32-14.352-32-32 0-67.528-31.896-115.208-56.264-141.808zM248 194.504C256.608 207.456 271.32 216 288 216s31.392-8.544 40-21.496a48.09 48.09 0 0 0 29.728 20.304l-23.592 82.568L324.784 280H304v-16h16v-16H176v16h16v16h-20.784l-9.36 17.384-23.592-82.568a48.07 48.07 0 0 0 29.728-20.304C176.608 207.456 191.32 216 208 216s31.392-8.544 40-21.496zM332.456 328h-38.2l-4.928-32h25.896l17.232 32zM240 368v16h-30.672l6.152-40h65.04l6.152 40H256v-16h-16zm-22.064-40l4.928-32h50.272l4.92 32h-60.12zM208 280v-16h80v16h-80zm-1.32 16l-4.92 32h-38.2l17.224-32h25.896zM240 25.208V168c0 17.648-14.352 32-32 32s-32-14.352-32-32c0-73.472 42.264-122.456 64-142.792zM160 168c0 17.648-14.352 32-32 32-16.928 0-30.68-13.24-31.784-29.896 3.2-87.376 76.344-127.912 120.544-144.44C192.32 52.152 160 100.016 160 168zm-144 0v-15.832c.12-5.064 5.024-113.792 176.616-133.184C145.504 40.952 84.072 85.376 80.296 168H80c0 17.648-14.352 32-32 32s-32-14.352-32-32zm47.28 45.416c10.176-3.44 18.872-10.12 24.72-18.912 7.536 11.328 19.744 19.288 33.848 21.104l27.872 97.544-86.44-99.736zM154.928 344h44.36l-6.152 40H176v-16h-16v16h-26.608l21.536-40zM160 480h-32v-16h32v16zm0-32h-32v-16h32v16zm32 32h-16v-16h38.528c-3.312 9.288-12.112 16-22.528 16zm-16-32v-16h16c10.416 0 19.216 6.712 22.528 16H176zm144 32h-16c-10.416 0-19.216-6.712-22.528-16H320v16zm0-32h-38.528c3.312-9.288 12.112-16 22.528-16h16v16zm48 32h-32v-16h32v16zm0-32h-32v-16h32v16zm16-16h16c10.416 0 19.216 6.712 22.528 16H384v-16zm0 32h38.528c-3.312 9.288-12.112 16-22.528 16h-16v-16zm-16-48H128v-16h240v16zm-5.392-32H336v-16h-16v16h-17.136l-6.152-40h44.36l21.536 40zm-16.328-70.848l27.872-97.544c14.112-1.808 26.32-9.768 33.848-21.104 5.848 8.792 14.544 15.472 24.72 18.904l-86.44 99.744zM480 168c0 17.648-14.352 32-32 32s-32-14.352-32-32h-.296c-3.776-82.624-65.208-127.048-112.32-149.016C474.976 38.376 479.88 147.088 480 152v16z"/></svg>