<svg xmlns="http://www.w3.org/2000/svg" viewBox="0 0 496 496"><path d="M496 344V216h-24.2C467.56 96.184 368.832 0 248 0S28.44 96.184 24.2 216H0v128h16v136H0v16h496v-16h-16V344h16zm-40.208-128h-66.856l43.752-87.496c13.696 26.392 21.912 56.048 23.104 87.496zm-80.016-9.432L325.336 112h97.72l-47.28 94.568zM197.336 112h101.328L248 206.992 197.336 112zm37.328 104H133.336L184 121.008 234.664 216zM312 121.008L362.664 216H261.336L312 121.008zM411.776 96h-86.184l28.296-50.928C376.216 58.328 395.832 75.648 411.776 96zM339.84 37.432l-27.464 49.424L278.048 18.2a206.437 206.437 0 0 1 61.792 19.232zM248 16c3.76 0 7.496.112 11.208.312L299.056 96H196.944l39.848-79.688c3.712-.2 7.448-.312 11.208-.312zm-30.04 2.2l-34.336 68.656-27.456-49.424A206.208 206.208 0 0 1 217.96 18.2zm-75.848 26.872L170.408 96H84.224c15.944-20.352 35.56-37.672 57.888-50.928zM170.664 112l-50.432 94.568L72.944 112h97.72zM63.312 128.504L107.056 216H40.2c1.2-31.44 9.408-61.104 23.112-87.496zM48 480H32V344h16v136zm96 0H64V344h80v136zm32 0h-16V344h16v136zm64-64h-16v16h16v48h-48V376h48v40zm64 64h-48v-48h16v-16h-16v-40h48v104zm0-120H192v-16h112v16zm32 120h-16V344h16v136zm96 0h-80V344h80v136zm32 0h-16V344h16v136zM16 328v-64h432v-16H16v-16h464v16h-16v16h16v64H16z"/></svg>