<svg xmlns="http://www.w3.org/2000/svg" viewBox="0 0 496 496"><path d="M232 208c-30.872 0-56 25.128-56 56s25.128 56 56 56 56-25.128 56-56-25.128-56-56-56zm0 96c-22.056 0-40-17.944-40-40s17.944-40 40-40 40 17.944 40 40-17.944 40-40 40z"/><path d="M232 240c-13.232 0-24 10.768-24 24s10.768 24 24 24 24-10.768 24-24-10.768-24-24-24zm0 32c-4.416 0-8-3.584-8-8s3.584-8 8-8 8 3.584 8 8-3.584 8-8 8zm113.376 56c-8.176 0-15.872 3.184-21.656 8.968l-18.752 18.752c-5.784 5.784-8.968 13.472-8.968 21.656 0 16.88 13.744 30.624 30.624 30.624 8.176 0 15.872-3.184 21.656-8.968l18.752-18.752c5.784-5.776 8.968-13.472 8.968-21.656 0-16.88-13.744-30.624-30.624-30.624zm10.344 40.968l-18.752 18.752a14.724 14.724 0 0 1-10.344 4.28C318.56 392 312 385.44 312 377.376c0-3.848 1.56-7.624 4.28-10.344l18.752-18.752a14.724 14.724 0 0 1 10.344-4.28c8.064 0 14.624 6.56 14.624 14.624 0 3.856-1.56 7.624-4.28 10.344zM137.376 128c-8.176 0-15.872 3.184-21.656 8.968L96.968 155.72C91.184 161.504 88 169.192 88 177.376 88 194.256 101.744 208 118.624 208c8.176 0 15.872-3.184 21.656-8.968l18.752-18.752c5.784-5.776 8.968-13.472 8.968-21.656 0-16.88-13.744-30.624-30.624-30.624zm10.344 40.968l-18.752 18.752a14.724 14.724 0 0 1-10.344 4.28C110.56 192 104 185.44 104 177.376c0-3.848 1.56-7.624 4.28-10.344l18.752-18.752a14.724 14.724 0 0 1 10.344-4.28c8.064 0 14.624 6.56 14.624 14.624 0 3.856-1.56 7.624-4.28 10.344z"/><path d="M472 224c-5.832 0-11.744-.672-17.624-1.992-10.576-84.904-72.08-154.416-155.104-175.472C297.248 39.552 296 32.016 296 24c0-13.232-10.768-24-24-24h-48c-13.232 0-24 10.768-24 24 0 8.008-1.256 15.552-3.296 22.544-68.296 17.36-123.768 68.92-146.024 136.072C39.712 188.6 30.096 192 24 192c-13.232 0-24 10.768-24 24v64c0 13.232 10.768 24 24 24 10.816 0 19.832 3.832 26.04 7.568 4.064 12.68 9.328 24.776 15.56 36.184-5.872 12.72-13.88 26.08-24.616 37.224l-.008.008c-.424.44-.816.92-1.248 1.352l.072.072c-4.792 5.416-7.8 12.44-7.8 20.216 0 8.176 3.184 15.872 8.968 21.656l26.752 26.752C73.504 460.816 81.192 464 89.376 464c7.776 0 14.808-3.008 20.224-7.808l.064.056c.256-.28.552-.504.816-.776.28-.264.56-.52.832-.792 10.936-11.016 25.576-18.136 39.88-22.648a206.767 206.767 0 0 0 35.552 14.68c2.832 4.776 9.328 16.696 12.056 30.04C201.064 487.896 210.936 496 222.272 496h51.144c11.896 0 21.864-8.552 23.712-20.352 1.368-8.848 4.464-20.672 11.224-28.48 6.784-2.032 13.392-4.464 19.88-7.16 27.976.16 56.072 30.272 56.52 30.76 5.808 5.96 13.584 9.232 21.872 9.232 8.176 0 15.872-3.184 21.656-8.968l18.752-18.752c5.784-5.776 8.968-13.472 8.968-21.656 0-8.44-3.4-16.312-9.664-22.256-13.464-12.376-27.752-29.608-29.904-38.272 9.616-13.352 17.832-27.952 24.248-43.744C451.088 322.136 461.608 320 472 320c13.232 0 24-10.768 24-24v-48c0-13.232-10.768-24-24-24zM224 16h48c4.416 0 8 3.584 8 8s-3.584 8-8 8h-48c-4.416 0-8-3.584-8-8s3.584-8 8-8zM100.016 443.344c-.28.28-.576.536-.848.816-2.6 2.36-6.016 3.84-9.792 3.84-3.856 0-7.624-1.56-10.344-4.28L52.28 416.968A14.724 14.724 0 0 1 48 406.624c0-3.96 1.6-7.552 4.168-10.192.064-.064.12-.136.184-.2A14.59 14.59 0 0 1 62.624 392c3.848 0 7.624 1.56 10.344 4.28l26.752 26.752c2.72 2.72 4.28 6.488 4.28 10.344s-1.528 7.352-3.984 9.968zm181.296 29.848c-.608 3.952-3.936 6.808-7.896 6.808h-51.144c-3.824 0-7.032-2.656-7.816-6.464-1.632-8-4.352-15.424-7.088-21.592C220.72 454.6 234.328 456 248 456c13.288 0 26.288-1.368 38.968-3.744-2.968 7.256-4.696 14.728-5.656 20.936zm154.104-53.128c2.952 2.8 4.584 6.552 4.584 10.56 0 3.848-1.56 7.624-4.28 10.344l-18.752 18.752c-5.504 5.504-15.456 5.312-20.608.048-1.024-1.12-20.144-21.6-44.864-31.04 20.28-11.584 38.408-26.672 53.784-44.536 8.768 15.696 25.848 31.928 30.136 35.872zm-4.192-107.08l-3.016 1.344-1.192 3.08C398.12 391.872 327.848 440 248 440c-24.512 0-48.824-4.752-71.44-13.8 13.44-2.096 23.208-2.2 23.448-2.2L200 408c-2.248 0-45.896.296-80.488 20.384-1.024-6.28-3.896-12.08-8.48-16.664L84.28 384.968c-4.48-4.48-10.12-7.352-16.232-8.44 21.416-32.664 27.552-69.376 27.848-71.264l-15.8-2.536c-.04.232-1.824 10.744-6.616 25.088-3.48-7.656-6.536-15.584-9.04-23.768l-.832-2.736-2.376-1.584C53.216 294.376 40.248 288 24 288c-4.416 0-8-3.584-8-8v-64c0-4.416 3.584-8 8-8 12.08 0 26.952-7.072 37.304-12.992l2.72-1.56.936-2.984c18.68-59.408 65.392-106.016 123.888-125.008-10.816 19.944-25.624 32.12-25.856 32.312L173 110.256c1.488-1.2 31.592-25.824 40.48-64.784C216.672 47.04 220.208 48 224 48h48c3.792 0 7.328-.96 10.52-2.536 8.888 38.96 38.992 63.584 40.48 64.784l10-12.504c-.24-.184-15.152-12.368-25.968-32.44 72.304 23.256 124.568 87.208 132.04 163.832l.52 5.392 5.2 1.512c1.904.552 3.816 1.016 5.728 1.456-1.56 3.192-2.52 6.72-2.52 10.504v48c0 3.792.968 7.336 2.544 10.536a106.994 106.994 0 0 0-19.32 6.448zM480 296c0 4.416-3.584 8-8 8s-8-3.584-8-8v-48c0-4.416 3.584-8 8-8s8 3.584 8 8v48z"/><path d="M349.528 138.216l-11.064 11.56C367.408 177.456 384 213.248 384 248h16c0-39.096-18.4-79.104-50.472-109.784zM138.376 373.65l-15.997-15.997 11.313-11.314 15.998 15.997zM232 96h16v16h-16zm72 160h16v16h-16zm95.392 32h16v16h-16z"/></svg>