<svg xmlns="http://www.w3.org/2000/svg" viewBox="0 0 496 496"><path d="M72 192c-13.232 0-24 10.768-24 24s10.768 24 24 24 24-10.768 24-24-10.768-24-24-24zm0 32c-4.416 0-8-3.584-8-8s3.584-8 8-8 8 3.584 8 8-3.584 8-8 8z"/><path d="M453.04 150.168l.024-.056L329.68 96H312V80h-16V0h-16v80h-64V0h-16v80h-16v16h-17.68L42.936 150.112l.024.056C17.696 161.36 0 186.632 0 216c0 21.256 9.312 40.328 24 53.512V344l17.752 72H104v19.312L140.688 472h55.032l16 24h113.224l16-32h31.336L392 434.424V416h62.248l17.504-70.064.224-76.408C486.688 256.336 496 237.264 496 216c0-29.368-17.696-54.64-42.96-65.832zM312 112h14.32l78.856 34.584c-21.992 5.968-39.8 22.08-48.096 43.016L329.888 176H312v-64zm-112 64h64v-16h-64V96h96v64h-16v16h16v16h-96v-16zm-30.32-64H184v64h-17.888l-27.192 13.592c-8.288-20.936-26.104-37.04-48.096-43.016L169.68 112zM104 304H88v16h16v16H88v16h16v16H88v16h16v16H54.248L40 343.016V280.4c9.656 4.824 20.496 7.6 32 7.6 11.504 0 22.344-2.776 32-7.6V304zm-32-32c-30.872 0-56-25.128-56-56s25.128-56 56-56 56 25.128 56 56-25.128 56-56 56zm304 136v21.576L363.72 448h-32.664l-16 32H220.28l-16-24h-56.968L120 428.688v-120.84L194.808 248H245.2l40 32h54.688L376 330.56V408zm0-104.96L348.12 264h-57.312l-40-32H189.2L120 287.352v-17.84c14.688-13.192 24-32.264 24-53.512 0-3.616-.352-7.144-.872-10.616L169.888 192H184v16h128v-16h14.112l26.76 13.384c-.52 3.472-.872 7-.872 10.616 0 21.256 9.312 40.328 24 53.512v33.528zm80 39.976L441.752 400H392v-16h16v-16h-16v-16h16v-16h-16v-16h16v-16h-16v-23.6c9.656 4.816 20.496 7.6 32 7.6 11.504 0 22.344-2.776 32-7.6v62.616zM424 272c-30.872 0-56-25.128-56-56s25.128-56 56-56 56 25.128 56 56-25.128 56-56 56z"/><path d="M424 192c-13.232 0-24 10.768-24 24s10.768 24 24 24 24-10.768 24-24-10.768-24-24-24zm0 32c-4.416 0-8-3.584-8-8s3.584-8 8-8 8 3.584 8 8-3.584 8-8 8zm-216 56c-13.232 0-24 10.768-24 24s10.768 24 24 24 24-10.768 24-24-10.768-24-24-24zm0 32c-4.416 0-8-3.584-8-8s3.584-8 8-8 8 3.584 8 8-3.584 8-8 8zm64 88c-17.648 0-32 14.352-32 32s14.352 32 32 32 32-14.352 32-32-14.352-32-32-32zm0 48c-8.824 0-16-7.176-16-16s7.176-16 16-16 16 7.176 16 16-7.176 16-16 16zm16-112c0 17.648 14.352 32 32 32s32-14.352 32-32-14.352-32-32-32-32 14.352-32 32zm48 0c0 8.824-7.176 16-16 16s-16-7.176-16-16 7.176-16 16-16 16 7.176 16 16zm-176 56c-13.232 0-24 10.768-24 24s10.768 24 24 24 24-10.768 24-24-10.768-24-24-24zm0 32c-4.416 0-8-3.584-8-8s3.584-8 8-8 8 3.584 8 8-3.584 8-8 8zm-24-88h16v16h-16zm112-48h16v16h-16zm96 112h16v16h-16zm-128-32h16v16h-16z"/></svg>