<svg xmlns="http://www.w3.org/2000/svg" viewBox="0 0 496 496"><path d="M336 400h-16v-38.704l16-48V212.944l62.536-31.272 5.736-17.208 12.08 8.048c-.104 1.168-.352 2.296-.352 3.488 0 8.632 2.816 16.584 7.488 23.136l-8.72 17.44-16.672-11.672-44.6 62.456 13.016 9.296 15.968-22.352 24.352 17.04-13.48 20.224 13.312 8.872 13.28-19.92 29.432 20.6-15.88 22.232 13.016 9.296L491.2 270.08l-25.648-17.96 13.264-43.352C489.176 201.536 496 189.568 496 176c0-18.272-12.384-33.552-29.152-38.312l-41.568-36.216 8.136-24.408L396.8 49.6C354.16 17.616 301.312 0 248 0S141.84 17.616 99.2 49.6L62.584 77.064l8.136 24.408-41.568 36.216C12.384 142.448 0 157.728 0 176c0 13.568 6.824 25.536 17.184 32.776l13.264 43.352L4.8 270.08l44.696 62.568 13.016-9.296-15.88-22.232 29.432-20.6 13.28 19.92 13.312-8.872-13.48-20.224 24.352-17.04 15.968 22.352 13.016-9.296-44.6-62.456-16.672 11.672-8.72-17.44C77.184 192.584 80 184.632 80 176c0-1.192-.248-2.32-.352-3.48l12.08-8.048 5.736 17.208L160 212.944v100.352l16 48V400h-16v-16H0v112h160v-32h176v32h160V384H336v16zm-192 16h-16v16h16v16h-16v16h16v16H16v-16h96v-16H16v-16h96v-16H16v-16h128v16zm176-105.296L306.232 352H189.768L176 310.704V304h16v16h16v-16h16v16h16v-16h16v16h16v-16h16v16h16v-16h16v6.704zM304 368v32H192v-32h112zm16-112h-16v16h16v16H176v-16h16v-16h-16v-16h144v16zm148.8 17.92l-10.136 14.184-66.888-46.824 10.128-14.176L468.8 273.92zm-40.776-48.072l7.768-15.528c5.952 3.52 12.8 5.68 20.208 5.68 1.368 0 2.664-.272 4-.408l-8.224 26.88-23.752-16.624zM480 176c0 13.232-10.768 24-24 24s-24-10.768-24-24 10.768-24 24-24 24 10.768 24 24zm-36.816-37.704c-9.384 3.2-17.136 9.736-21.928 18.264l-11.744-7.824 10.272-30.816 23.4 20.376zm-28.6-55.36l-29.12 87.392-27.768 13.88L396.08 69.056l18.504 13.88zM16 176c0-13.232 10.768-24 24-24s24 10.768 24 24-10.768 24-24 24-24-10.768-24-24zm51.984 49.848l-23.76 16.624L36 215.592c1.336.136 2.632.408 4 .408 7.408 0 14.256-2.16 20.216-5.68l7.768 15.528zm26.104 1.248l10.136 14.184-66.888 46.824L27.2 273.92l66.888-46.824zM74.736 156.56c-4.792-8.528-12.536-15.064-21.928-18.264L76.2 117.92l10.272 30.816-11.736 7.824zm35.8 13.768l-29.12-87.392 18.504-13.88 38.384 115.152-27.768-13.88zm48 24L113.488 59.176C152.552 31.384 200.024 16 248 16s95.448 15.384 134.512 43.176l-45.048 135.152L320 203.056V224H176v-20.944l-17.464-8.728zM336 448H160v-32h176v32zm16 16h96v-16h-96v-16h96v-16h-96v-16h128v16h-16v16h16v16h-16v16h16v16H352v-16z"/><path d="M248 192c44.112 0 80-35.888 80-80s-35.888-80-80-80-80 35.888-80 80 35.888 80 80 80zm0-144c35.288 0 64 28.712 64 64s-28.712 64-64 64-64-28.712-64-64 28.712-64 64-64z"/><path d="M248 80V64c-26.472 0-48 21.528-48 48h16c0-17.648 14.352-32 32-32zm-40 176h80v16h-80z"/></svg>