<svg xmlns="http://www.w3.org/2000/svg" viewBox="0 0 496 496"><path d="M480 480V256h-16v-32h-16v32h-16V32h-16V16h-16v16h-16V0h-16v32h-16V16h-16v16h-16v328.648c-12.504 1.808-24.056 7.744-32.728 16.944-4.712-3.192-9.864-5.6-15.272-7.224V352h16V224l-16-64.984V90.488c0-19.216-7.488-37.28-21.072-50.864L240 28.688V0h-16v28.688l-10.928 10.928C199.488 53.2 192 71.264 192 90.488v68.528l-15.76 63.048L176 352h16v9.032c-3.368.864-6.512 2.296-9.368 4.16-.344.224-.68.456-1.016.688-1.328.944-2.6 1.968-3.768 3.112-.208.2-.432.376-.632.584-1.104 1.128-2.096 2.368-3.024 3.664-.536.736-1.016 1.512-1.496 2.296-.136.232-.312.44-.44.68-4.656-.48-9.048-.192-13.648.808C148.296 361.44 130.976 352 112 352c-1.816 0-3.616.096-5.424.272-1.616.16-3.2.408-4.776.704-.128.024-.256.032-.384.056C95.08 333.688 76.912 320 56 320c-14.528 0-27.936 6.48-37 17.608-.448-.136-.904-.184-1.352-.296-.928-.232-1.848-.456-2.8-.616C12.576 336.28 10.296 336 8 336H0v16h8c3.496 0 7 .84 10.424 2.504l.48.232C26.64 358.728 32 366.712 32 376c0 13.232-10.768 24-24 24H0v16h8c22.056 0 40-17.944 40-40 0-12.32-5.72-23.216-14.504-30.56C39.416 339.448 47.408 336 56 336c14.008 0 26.16 9.264 30.296 22.304C68.328 367.64 56 386.392 56 408c0 30.872 25.128 56 56 56v-16c-22.056 0-40-17.944-40-40 0-17.976 12-33.048 28.36-38.072 1.552-.472 3.112-.952 4.68-1.224.976-.176 2-.2 3-.304 16.24-1.592 32.192 6.864 39.648 21.608l3.168 6.256 6.624-2.32c3.768-1.312 7.064-1.896 10.536-1.872C168.048 409.688 182.376 424 200 424v-16c-8.824 0-16-7.176-16-16 0-1.008.12-1.992.296-2.944l.48-1.616c1-3.336 2.984-6.104 5.552-8.104.104-.08.2-.176.304-.248 1.2-.88 2.536-1.56 3.944-2.08.28-.104.576-.184.864-.272 1.456-.432 2.976-.736 4.56-.736h8v-24h48v32c10.032 0 19.648 3.776 27.088 10.632l6.768 6.24 5.24-7.576C301.024 384.712 310 378.928 320 376.88V432H128v48H0v16h496v-16h-16zM272 304h-16v-40h16v40zm-64.152-168H240v-16h-32.104l.08-24H240V80h-31c2.064-10.952 7.336-21.024 15.384-29.072L232 43.312l7.616 7.616C250.176 61.496 256 75.536 256 90.488V152h-48.208l.056-16zm-1.608 32h51.728l11.816 48H194.24l12-48zM192 232h80v16h-80v-16zm48 32v40h-16v-40h16zm-48 0h16v40h-16v-40zm0 72v-16h80v16h-80zm128 144H144v-32h176v32zm96 0h-80v-2.24l80-26.664V480zm0-45.76l-80 26.664V432h80v2.24zm0-18.24h-80v-2.24l80-26.664V416zm0-45.76l-80 26.664V368h80v2.24zm0-18.24h-80v-2.24l80-26.664V352zm0-45.76l-80 26.664V304h80v2.24zm0-18.24h-80v-2.24l80-26.664V288zm0-45.76l-80 26.664V240h80v2.24zm0-18.24h-80v-2.24l80-26.664V224zm0-45.76l-80 26.664V176h80v2.24zm0-18.24h-80v-2.24l80-26.664V160zm0-45.76l-80 26.664V112h80v2.24zM416 96h-80v-2.24l80-26.664V96zm0-45.76l-80 26.664V48h80v2.24zM464 288h-16v16h16v16h-16v16h16v16h-16v16h16v16h-16v16h16v16h-16v16h16v16h-16v16h16v16h-32V272h32v16z"/></svg>