<svg xmlns="http://www.w3.org/2000/svg" viewBox="0 0 496 496"><path d="M320 0v56h-40V32h-64v24h-40V0H0v128h176V72h40v8h-24v144h32v19.688c-32.416 10.224-56 40.56-56 76.312v8h72v16h16v-16h72v-8c0-35.752-23.584-66.088-56-76.312V224h32V80h-24v-8h40v56h176V0H320zM40 112H16V72h24v40zm0-56H16V16h24v40zm40 56H56V72h24v40zm0-56H56V16h24v40zm40 56H96V72h24v40zm0-56H96V16h24v40zm40 56h-24V72h24v40zm0-56h-24V16h24v40zm72-8h32v32h-32V48zm79.504 264h-127c3.944-31.52 30.92-56 63.504-56s59.544 24.48 63.496 56zM240 240.408V224h16v16.408a80.058 80.058 0 0 0-8-.408c-2.704 0-5.368.144-8 .408zM288 96v16h-16v16h16v80h-80v-80h48v-16h-48V96h80zm72 16h-24V72h24v40zm0-56h-24V16h24v40zm40 56h-24V72h24v40zm0-56h-24V16h24v40zm40 56h-24V72h24v40zm0-56h-24V16h24v40zm40 56h-24V72h24v40zm0-56h-24V16h24v40zM280 344h-16c0 8.824-7.176 16-16 16s-16-7.176-16-16h-16c0 17.648 14.352 32 32 32s32-14.352 32-32z"/><path d="M192 344h-16c0 39.704 32.296 72 72 72s72-32.296 72-72h-16c0 30.872-25.128 56-56 56s-56-25.128-56-56z"/><path d="M136 344c0 61.76 50.24 112 112 112s112-50.24 112-112h-16c0 52.936-43.064 96-96 96s-96-43.064-96-96h-16z"/><path d="M248 480c-74.992 0-136-61.008-136-136H96c0 83.816 68.184 152 152 152s152-68.184 152-152h-16c0 74.992-61.008 136-136 136z"/></svg>