<svg xmlns="http://www.w3.org/2000/svg" viewBox="0 0 496 496"><path d="M360 268.916h136v-232H256v-32h-16v32H0v232h136v32h89.784L10.896 478.748l10.2 12.328 193.912-160.48-93.792 150.08 13.56 8.488L248 308.012l113.216 181.144 13.56-8.488-93.792-150.064 193.912 160.48 10.2-12.328-214.88-177.84H360v-32zm56-216h24v32h16v-32h24v168h-64v-168zm-80 0h24v32h16v-32h24v168h-64v-168zm-80 0h24v32h16v-32h24v168h-64v-168zm-80 0h24v32h16v-32h24v168h-64v-168zm-80 0h24v32h16v-32h24v168H96v-168zm-80 0h24v32h16v-32h24v168H16v-168zm0 200v-16h464v16H16zm328 32H152v-16h192v16z"/></svg>