<svg xmlns="http://www.w3.org/2000/svg" viewBox="0 0 496 496"><path d="M331.632 160L280 100.992V64h-24V48h-16v16h-24v36.992L164.368 160H40v8c0 63.688 35.632 119.216 88 147.696V400h72v3.248l-88 48V496h272v-44.752l-88-48V400h72v-84.304c52.368-28.48 88-84.008 88-147.696v-8H331.632zm-124.264 96h81.264L248 314.048 207.368 256zm25.264 64H208c-18.576 0-36.32-3.488-52.792-9.616l36.568-48.752L232.632 320zm-25.264-80L248 181.952 288.632 240h-81.264zm96.864 21.632l36.568 48.752C324.32 316.512 306.576 320 288 320h-24.632l40.864-58.368zM344.64 176L304 234.048 263.368 176h81.272zm15.36 5.952L400.632 240h-81.264L360 181.952zM310.368 160H256v-48h12.368l42 48zM232 80h32v16h-32V80zm-4.368 32H240v48h-54.368l42-48zm5.008 64L192 234.048 151.368 176h81.272zm-56.008 64H95.368L136 181.952 176.632 240zm-102.296 0c-10.416-19.256-16.928-40.912-18.128-64h64.424l-44.8 64h-1.496zm9.848 16H176l-35.896 47.864c-22.32-11.2-41.536-27.672-55.92-47.864zM144 384v-60.736a167.707 167.707 0 0 0 16 5.664V368h40v16h-56zm48 96h-24v-16h-16v16h-24v-19.248L210.04 416h12.872L192 453.104V480zm24-80v-16h64v16h-64zm72 80h-32v-16h-16v16h-32v-21.104L243.752 416h8.496L288 458.896V480zm80-19.248V480h-24v-16h-16v16h-24v-26.896L273.088 416h12.872L368 460.752zM280 352v16h-64v-16h-40v-19.144c10.368 2.016 21.048 3.144 32 3.144h80c10.952 0 21.632-1.128 32-3.144V352h-40zm72 32h-56v-16h40v-39.072c5.456-1.632 10.792-3.504 16-5.664V384zm3.896-80.136L320 256h91.824c-14.392 20.192-33.608 36.664-55.928 47.864zM421.656 240h-1.496l-44.8-64h64.424c-1.2 23.088-7.712 44.744-18.128 64zM360 32h16v32h-16zm0-32h16v16h-16zm-64 0h16v32h-16z"/><path d="M424 32h16v112h-16zm0-32h16v16h-16zM120 48h16v96h-16zm0-48h16v32h-16zM56 32h16v64H56zm0-32h16v16H56zm128 32h16v72h-16zm0-32h16v16h-16zm56 0h16v32h-16zm56 48h16v56h-16zm64 32h16v64h-16zM56 112h16v32H56z"/></svg>