<svg xmlns="http://www.w3.org/2000/svg" viewBox="0 0 496 496"><path d="M386.256 167.84C358.512 120.184 307 88 248 88s-110.512 32.184-138.256 79.84C39.984 185.512 0 214.624 0 248c0 33.824 43.04 63.04 109.52 80.088C138.104 377.416 190.944 408 248 408c56.976 0 109.944-30.608 138.512-79.92C452.976 311.032 496 281.824 496 248c0-33.376-39.992-62.488-109.744-80.16zM248 104c79.4 0 144 64.6 144 144 0 7.384-.728 14.744-1.84 22.016C359.832 279.952 310.584 288 248 288c-17.304 0-33.472-.664-48.632-1.768.32-2.056.632-4.12.632-6.232 0-22.056-17.944-40-40-40-20.112 0-36.64 14.968-39.424 34.32a236.862 236.862 0 0 1-14.728-4.304C104.728 262.744 104 255.384 104 248c0-79.4 64.6-144 144-144zm-64 176c0 1.656-.168 3.288-.488 4.872-17.616-1.76-33.464-4.16-47.296-7C137.312 265.648 147.496 256 160 256c13.232 0 24 10.768 24 24zm88.216 109.856C273.32 377.64 283.496 368 296 368c6.912 0 13.336 3 17.816 7.96a143.954 143.954 0 0 1-41.6 13.896zm55.528-22.04C320.272 358.04 308.632 352 296 352c-21.96 0-39.824 17.8-39.976 39.728-2.664.152-5.336.272-8.024.272-46.088 0-89.12-22.184-116.056-58.824C166.392 340.096 205.792 344 248 344c42.2 0 81.584-3.904 116.032-10.816-10.08 13.696-22.384 25.392-36.288 34.632zM248 328c-138.776 0-232-41.368-232-80 0-22.816 31.84-45.544 84.12-60.936a158.564 158.564 0 0 0-8.432 27.056C68.096 223.416 56 234.784 56 248c0 36.768 96.584 56 192 56s192-19.232 192-56c0-13.216-12.104-24.584-35.688-33.88a158.255 158.255 0 0 0-8.432-27.048C448.16 202.456 480 225.192 480 248c0 38.632-93.224 80-232 80zM88.744 263.296C77.928 258.08 72 252.728 72 248c0-3.52 4.68-9.168 16.768-15.176-.472 5-.768 10.056-.768 15.176 0 5.104.264 10.216.744 15.296zm318.488-30.464C419.32 238.832 424 244.48 424 248c0 4.728-5.928 10.08-16.736 15.288.488-5.08.736-10.184.736-15.288 0-5.12-.296-10.176-.768-15.168z"/><path d="M192 184c13.232 0 24-10.768 24-24s-10.768-24-24-24-24 10.768-24 24 10.768 24 24 24zm0-32c4.416 0 8 3.584 8 8s-3.584 8-8 8-8-3.584-8-8 3.584-8 8-8zm112 88c17.648 0 32-14.352 32-32s-14.352-32-32-32-32 14.352-32 32 14.352 32 32 32zm0-48c8.824 0 16 7.176 16 16s-7.176 16-16 16-16-7.176-16-16 7.176-16 16-16zM216 0h16v16h-16zm0 32h16v16h-16zm16-16h16v16h-16zm-32 0h16v16h-16zM56 80h16v16H56zm0 32h16v16H56zm16-16h16v16H72zm-32 0h16v16H40zm424 24h16v16h-16zm0 32h16v16h-16zm16-16h16v16h-16zm-32 0h16v16h-16zM320 448h16v16h-16zm0 32h16v16h-16zm16-16h16v16h-16zm-32 0h16v16h-16zM56 400h16v16H56zm0 32h16v16H56zm16-16h16v16H72zm-32 0h16v16H40zm360-72h16v16h-16zm0 32h16v16h-16zm16-16h16v16h-16zm-32 0h16v16h-16zM264 48h16v16h-16zm136-32h16v16h-16zM0 352h16v16H0zm184 96h16v16h-16zM104 32h16v16h-16zm328 400h16v16h-16z"/></svg>