<svg xmlns="http://www.w3.org/2000/svg" viewBox="0 0 496 496"><path d="M496 165.336L372 0H124L0 165.336V368h35.056L0 438.112V496h144v-57.888L108.944 368h102.112L176 438.112V496h144v-57.888L284.944 368h102.112L352 438.112V496h144v-57.888L460.944 368H496V165.336zM472 160H256V96h168l48 64zm-40 16v176h-16V176h16zM272 288v-16h128v16H272zm128 16v16H272v-16h128zm-128-48v-16h128v16H272zm0-32v-16h128v16H272zm0-32v-16h128v16H272zM132 16h36v16h16V16h56v16h16V16h48v16h16V16h44l48 64H240v80H24L132 16zm124 160v176h-16V176h16zM96 288v-16h128v16H96zm128 16v16H96v-16h128zM96 256v-16h128v16H96zm0-32v-16h128v16H96zm0-32v-16h128v16H96zm-16-16v176H64V176h16zm-64 0h32v16H16v-16zm0 32h32v16H16v-16zm0 32h32v16H16v-16zm0 32h32v16H16v-16zm0 32h32v16H16v-16zm0 48v-16h32v16H16zm107.056 80H104v16h24v32H16v-32h72v-16H20.944l32-64h38.112l32 64zM96 352v-16h128v16H96zm203.056 80H280v16h24v32H192v-32h72v-16h-67.056l32-64h38.112l32 64zM272 352v-16h128v16H272zm203.056 80H456v16h24v32H368v-32h72v-16h-67.056l32-64h38.112l32 64zM480 352h-32v-16h32v16zm0-32h-32v-16h32v16zm0-32h-32v-16h32v16zm0-32h-32v-16h32v16zm0-32h-32v-16h32v16zm0-32h-32v-16h32v16z"/></svg>