<svg xmlns="http://www.w3.org/2000/svg" viewBox="0 0 496 496"><path d="M344 102.288V96c0-52.936-43.064-96-96-96s-96 43.064-96 96v6.288l-104 232V392h400v-57.712l-104-232zM427.648 328H384v-80h7.784l35.864 80zM169.616 80H296V64H174.728C187.104 35.784 215.272 16 248 16c32.728 0 60.896 19.784 73.272 48H312v16h14.384A79.866 79.866 0 0 1 328 96H168c0-5.48.56-10.832 1.616-16zm-4.44 32h165.64l53.792 120H368v96H128v-96h-16.616l53.792-120zm-60.96 136H112v80H68.352l35.864-80zM432 376h-32v-16h-16v16h-32v-16h-16v16h-32v-16h-16v16h-32v-16h-16v16h-32v-16h-16v16h-32v-16h-16v16h-32v-16H96v16H64v-32h368v32z"/><path d="M248 312c48.52 0 88-39.48 88-88s-39.48-88-88-88-88 39.48-88 88 39.48 88 88 88zm0-160c39.704 0 72 32.296 72 72s-32.296 72-72 72-72-32.296-72-72 32.296-72 72-72z"/><path d="M248 184v-16c-30.872 0-56 25.128-56 56h16c0-22.056 17.944-40 40-40zM72 464h16v32H72zm336-56h16v56h-16zm0 72h16v16h-16zm-288-72h16v56h-16zm0 72h16v16h-16zm48-72h16v16h-16zm0 32h16v56h-16zm48-32h16v56h-16zm0 72h16v16h-16zm48-72h16v88h-16zm48 0h16v72h-16zm48 0h16v40h-16zm0 56h16v32h-16zM72 408h16v40H72z"/></svg>