<svg xmlns="http://www.w3.org/2000/svg" viewBox="0 0 496 496"><path d="M0 288v16c105.864 0 192 86.136 192 192h16c0-114.696-93.304-208-208-208z"/><path d="M40 336c-22.056 0-40 17.944-40 40s17.944 40 40 40 40-17.944 40-40-17.944-40-40-40zm0 64c-13.232 0-24-10.768-24-24s10.768-24 24-24 24 10.768 24 24-10.768 24-24 24zm104 24c-13.232 0-24 10.768-24 24s10.768 24 24 24 24-10.768 24-24-10.768-24-24-24zm0 32c-4.416 0-8-3.584-8-8s3.584-8 8-8 8 3.584 8 8-3.584 8-8 8zm-112 0h16v16H32zm72-88h16v16h-16zm351.632-231.336C451.776 60.68 388.92 0 312 0S172.224 60.68 168.368 136.664C145.528 140.336 128 160.136 128 184c0 26.472 21.528 48 48 48h96v24h-8c-13.232 0-24 10.768-24 24v32c0 13.232 10.768 24 24 24h96c13.232 0 24-10.768 24-24v-32c0-13.232-10.768-24-24-24h-8v-24h96c26.472 0 48-21.528 48-48 0-23.864-17.528-43.664-40.368-47.336zM312 16c67.88 0 123.432 53.152 127.592 120H368V40h-80v32h-64v64h-39.592C188.568 69.152 244.12 16 312 16zm40 40v80h-48V56h48zm-64 32v48h-48V88h48zm72 184c4.416 0 8 3.584 8 8v32c0 4.416-3.584 8-8 8h-96c-4.416 0-8-3.584-8-8v-32c0-4.416 3.584-8 8-8h96zm-72-16v-24h48v24h-48zm190.864-64c-3.576 13.768-15.992 24-30.864 24H176c-14.872 0-27.288-10.232-30.864-24H424v-16H145.136c3.576-13.768 15.992-24 30.864-24h272c14.872 0 27.288 10.232 30.864 24H440v16h38.864z"/><path d="M256 104h16v16h-16zm64-32h16v16h-16zm0 32h16v16h-16zM96 0h16v16H96zm0 32h16v16H96zm16-16h16v16h-16zm-32 0h16v16H80zM16 144h16v16H16zm0 32h16v16H16zm16-16h16v16H32zm-32 0h16v16H0zm144 96h16v16h-16zm0 32h16v16h-16zm16-16h16v16h-16zm-32 0h16v16h-16zM464 0h16v16h-16zm0 32h16v16h-16zm16-16h16v16h-16zm-32 0h16v16h-16zm16 384h16v16h-16zm0 32h16v16h-16zm16-16h16v16h-16zm-32 0h16v16h-16zm-104 32h16v16h-16zm0 32h16v16h-16zm16-16h16v16h-16zm-32 0h16v16h-16z"/></svg>