<svg xmlns="http://www.w3.org/2000/svg" viewBox="0 0 496 496"><path d="M208 248c0-22.056 17.944-40 40-40v-16c-30.872 0-56 25.128-56 56h16z"/><path d="M336 118.112V80h32V64h-32V0H160v64h-32v16h32v38.112C62.608 131.976 0 166.904 0 208v80c0 41.768 65.624 76.512 160 89.984V416h-32v16h32v64h176v-64h32v-16h-32v-38.016c94.376-13.472 160-48.216 160-89.984v-80c0-41.096-62.608-76.024-160-89.888zM176 16h144v16H176V16zm0 32h16v16h16V48h16v16h16V48h16v16h16V48h16v16h16V48h16v83.448H176V48zm72 128c39.704 0 72 32.296 72 72 0 13.208-3.728 25.928-10.512 37.144C290.224 286.992 269.664 288 248 288s-42.224-1.008-61.488-2.856C179.728 273.928 176 261.208 176 248c0-39.704 32.296-72 72-72zm-40-6.288V147.44h80v22.28c-12.016-6.168-25.592-9.72-40-9.72-14.408 0-27.984 3.552-40 9.712zm-48-35.432v13.16h32v32.728c-5.56 4.6-10.472 9.928-14.768 15.736-60.128 6.72-111.416 21.928-142.752 42.288C22.488 228.48 16 218.144 16 208c0-31.392 58.8-61.2 144-73.72zm7.28 148.664c-51.36-6.72-92.112-19.56-118.32-34.864 27.456-16 69.176-28.296 118.216-34.824A87.546 87.546 0 0 0 160 248c0 12.136 2.528 23.976 7.28 34.944zM320 480H176v-16h144v16zm0-32h-16v-16h-16v16h-16v-16h-16v16h-16v-16h-16v16h-16v-16h-16v16h-16v-67.976C198.712 382.6 222.856 384 248 384s49.288-1.4 72-3.976V448zm160-160c0 38.632-93.224 80-232 80S16 326.632 16 288v-5.48C51.112 318.808 140.536 344 248 344s196.888-25.192 232-61.48V288zm0-40c0 38.632-93.224 80-232 80S16 286.632 16 248v-5.48C51.112 278.808 140.536 304 248 304s196.888-25.192 232-61.48V248zm-151.176-34.744c49.048 6.528 90.768 18.824 118.216 34.824-26.208 15.304-66.96 28.144-118.32 34.864C333.472 271.976 336 260.136 336 248a87.546 87.546 0 0 0-7.176-34.744zM461.512 238.2c-31.328-20.368-82.624-35.568-142.752-42.288-4.288-5.816-9.2-11.136-14.768-15.736v-32.728h32v-13.16C421.2 146.8 480 176.608 480 208c0 10.144-6.488 20.48-18.488 30.2z"/></svg>