<svg xmlns="http://www.w3.org/2000/svg" viewBox="0 0 496 496"><path d="M232 136c26.472 0 48-21.528 48-48s-21.528-48-48-48-48 21.528-48 48 21.528 48 48 48zm0-80c17.648 0 32 14.352 32 32s-14.352 32-32 32-32-14.352-32-32 14.352-32 32-32zM88 232c-13.232 0-24 10.768-24 24s10.768 24 24 24 24-10.768 24-24-10.768-24-24-24zm0 32c-4.416 0-8-3.584-8-8s3.584-8 8-8 8 3.584 8 8-3.584 8-8 8z"/><path d="M426.408 264H496v-80h-48v32h-16C432 96.896 335.104 0 216 0S0 96.896 0 216s96.896 216 216 216c15.416 0 30.456-1.824 45.064-4.952L249.552 480H0v16h496v-16H390.448L366.68 370.656c29.144-28.344 50.272-65.04 59.728-106.656zM464 200h16v48h-16v-48zm-16 32v16h-48v-16h48zM312 480h-46.072l12.488-57.416A214.582 214.582 0 0 0 312 409.248V480zm0-88.744c-9.48 5.208-19.384 9.688-29.672 13.32L302.448 312H312v79.256zM312 296h-32v16h6.072L264.8 409.832C249.104 413.792 232.776 416 216 416c-110.28 0-200-89.72-200-200S105.72 16 216 16s200 89.72 200 200h-16v-16H168v-16h-16v112h16v-16h144v16zm72-80v48H216v-48h168zm-184 0v48h-32v-48h32zm174.072 264H328v-79.584c8.704-5.296 17.104-11.064 24.96-17.512L374.072 480zm-46.064-98.472V312h9.544l11.52 52.984c-6.672 5.952-13.656 11.528-21.064 16.544zm34.568-29.776L353.928 312H360v-16h-32v-16h72v-16h9.968c-8.28 33.592-24.88 63.504-47.392 87.752z"/><path d="M200 408c17.648 0 32-14.352 32-32s-14.352-32-32-32-32 14.352-32 32 14.352 32 32 32zm0-48c8.824 0 16 7.176 16 16s-7.176 16-16 16-16-7.176-16-16 7.176-16 16-16zm144-256h16v16h-16zM56 136h16v16H56zm176 176h16v16h-16zm-32-152h16v16h-16z"/></svg>