<svg xmlns="http://www.w3.org/2000/svg" viewBox="0 0 496 496"><path d="M448 268.136V232h-32v-64C416 75.368 340.632 0 248 0S80 75.368 80 168v64H48v36.136C16.272 280.32 0 295.032 0 312c0 21.24 26.408 38.024 66.448 50.032L89.888 448H160v16h16v-16h144v16h16v-16h70.112l23.448-85.968C469.592 350.024 496 333.24 496 312c0-16.968-16.272-31.68-48-43.864zM64 248h16v48h16V168c0-83.816 68.184-152 152-152s152 68.184 152 152v128h16v-48h16v51.36c-8.36 4.32-32.56 14.792-80 21.808v-42.024c0-30.76-22.128-56.424-51.296-61.984 3.656-4.776 6.288-10.424 7.336-16.728l1.728-10.376a21.887 21.887 0 0 1 9.408-14.544A37.731 37.731 0 0 0 336 144.064v-28.56C336 78.28 305.72 48 268.504 48h-41C190.28 48 160 78.28 160 115.504v28.56a37.695 37.695 0 0 0 16.832 31.44 21.889 21.889 0 0 1 9.408 14.536l1.728 10.384c1.048 6.312 3.68 11.952 7.336 16.728C166.128 222.72 144 248.376 144 279.144v42.024c-47.48-7.024-71.68-17.512-80-21.808V248zm240 46.528c9.288-3.312 16-12.112 16-22.528 0-13.232-10.768-24-24-24s-24 10.768-24 24c0 10.416 6.712 19.216 16 22.528v32.576c-12.408.568-25.688.896-40 .896s-27.584-.328-40-.896v-32.576c9.288-3.312 16-12.112 16-22.528 0-13.232-10.768-24-24-24s-24 10.768-24 24c0 10.416 6.712 19.216 16 22.528v31.656c-11.552-.776-22.184-1.768-32-2.92v-44.128C160 253.152 181.152 232 207.144 232h81.72C314.848 232 336 253.152 336 279.144v44.128c-9.816 1.152-20.448 2.144-32 2.92v-31.664zM296 280c-4.416 0-8-3.584-8-8s3.584-8 8-8 8 3.584 8 8-3.584 8-8 8zm-96 0c-4.416 0-8-3.584-8-8s3.584-8 8-8 8 3.584 8 8-3.584 8-8 8zm2.016-92.592c-1.72-10.264-7.664-19.464-16.312-25.216A21.737 21.737 0 0 1 176 144.064v-28.56C176 87.104 199.104 64 227.504 64h41C296.896 64 320 87.104 320 115.504v28.56c0 7.296-3.624 14.08-9.704 18.128-8.648 5.76-14.592 14.952-16.312 25.224l-1.728 10.384a21.71 21.71 0 0 1-21.488 18.2H225.24a21.724 21.724 0 0 1-21.496-18.2l-1.728-10.392zM393.888 432H384v-16h-16v16h-16v-16h-16v16h-16v-16h-16v16h-16v-16h-16v16h-16v-16h-16v16h-16v-16h-16v16h-16v-16h-16v16h-16v-16h-16v16h-16v-16h-16v16h-9.888l-17.76-65.128C130.616 378.144 190.16 384 248 384c57.84 0 117.384-5.856 163.648-17.128L393.888 432zM248 368c-143.744 0-232-32.616-232-56 0-8.432 11.8-18.12 32-26.688v22.88l3.448 2.384C53.424 311.944 101.424 344 248 344s194.576-32.056 196.552-33.424l3.448-2.384v-22.88c20.2 8.568 32 18.248 32 26.688 0 23.384-88.256 56-232 56z"/><path d="M240 120c0-13.232-10.768-24-24-24s-24 10.768-24 24 10.768 24 24 24 24-10.768 24-24zm-32 0c0-4.416 3.584-8 8-8s8 3.584 8 8-3.584 8-8 8-8-3.584-8-8zm72 24c13.232 0 24-10.768 24-24s-10.768-24-24-24-24 10.768-24 24 10.768 24 24 24zm0-32c4.416 0 8 3.584 8 8s-3.584 8-8 8-8-3.584-8-8 3.584-8 8-8zm-56 64h48v16h-48zM88 464h16v32H88zm304 0h16v32h-16zm-72 16h16v16h-16zm-160 0h16v16h-16zm80-16h16v16h-16z"/></svg>