<svg xmlns="http://www.w3.org/2000/svg" viewBox="0 0 512 512"><path d="M375.723 213.333a8.536 8.536 0 0 0 8.533-8.533 8.536 8.536 0 0 0-8.533-8.533h-.085c-4.71 0-8.491 3.823-8.491 8.533 0 4.71 3.865 8.533 8.576 8.533z"/><path d="M324.267 204.8c0 28.237 22.963 51.2 51.2 51.2 28.237 0 51.2-22.963 51.2-51.2 0-28.237-22.963-51.2-51.2-51.2-28.237 0-51.2 22.963-51.2 51.2zm51.2-34.133c18.825 0 34.133 15.309 34.133 34.133s-15.309 34.133-34.133 34.133c-18.825 0-34.133-15.309-34.133-34.133s15.308-34.133 34.133-34.133zM170.641 88.132c.205 0 .401-.009.597-.017 26.47-1.852 54.989-2.782 84.762-2.782 29.628 0 58.027.93 84.395 2.756 4.634.299 8.772-3.217 9.105-7.919.324-4.702-3.226-8.781-7.927-9.105-26.761-1.86-55.552-2.799-85.572-2.799-30.174 0-59.093.947-85.939 2.825-4.702.324-8.252 4.403-7.927 9.097a8.54 8.54 0 0 0 8.506 7.944zM230.4 273.067c-4.719 0-8.533 3.823-8.533 8.533s3.814 8.533 8.533 8.533h51.2c4.719 0 8.533-3.823 8.533-8.533s-3.814-8.533-8.533-8.533h-51.2zm102.4 99.558a8.525 8.525 0 0 0-8.533 8.533v113.775h-128v-17.067h102.4c4.719 0 8.533-3.823 8.533-8.533s-3.814-8.533-8.533-8.533h-102.4v-17.067h102.4c4.719 0 8.533-3.823 8.533-8.533s-3.814-8.533-8.533-8.533h-102.4V409.6h102.4c4.719 0 8.533-3.823 8.533-8.533s-3.814-8.533-8.533-8.533h-102.4V380.8c0-4.71-3.814-8.533-8.533-8.533s-8.533 3.823-8.533 8.533v114.133c0 9.412 7.654 17.067 17.067 17.067h128c9.412 0 17.067-7.654 17.067-17.067V381.158a8.528 8.528 0 0 0-8.535-8.533zM85.333 204.8c0 28.237 22.963 51.2 51.2 51.2s51.2-22.963 51.2-51.2c0-28.237-22.963-51.2-51.2-51.2s-51.2 22.963-51.2 51.2zm85.334 0c0 18.825-15.309 34.133-34.133 34.133S102.4 223.625 102.4 204.8s15.309-34.133 34.133-34.133 34.134 15.308 34.134 34.133z"/><path d="M493.713 123.605c-9.455-15.761-27.895-30.575-47.607-37.931-.922-.273-21.666-6.178-62.114-11.008l4.224-23.893C400.324 48.751 409.6 38.272 409.6 25.6 409.6 11.486 398.114 0 384 0s-25.6 11.486-25.6 25.6c0 9.523 5.291 17.749 13.022 22.161l-5.777 32.708c-.043.247.043.478.017.725 0 .017-.009.026-.009.034-.008.043.017.085.017.137-.077 1.033-.008 2.031.273 2.978.119.469.375.87.572 1.314.239.469.418.964.742 1.382.546.768 1.237 1.391 1.997 1.937.068.051.12.111.188.154 1.118.751 2.347 1.331 3.78 1.485 44.194 4.745 67.422 11.247 67.516 11.247 15.454 5.794 30.865 18.065 38.571 30.891.162.23 15.625 24.346 15.625 80.58 0 56.235-15.462 80.35-15.659 80.64-7.305 11.093-22.383 25.446-37.871 30.618-.597.171-60.45 16.742-185.404 16.742-124.766 0-184.636-16.529-184.73-16.529-16.017-5.999-30.711-17.69-38.536-30.822-.162-.247-15.667-24.849-15.667-80.648 0-55.799 15.505-80.401 15.599-80.555 7.782-11.511 23.031-26.044 38.084-30.746.23-.068 23.185-6.938 67.422-11.725 2.244.137 4.318-.768 5.956-2.287a8.532 8.532 0 0 0 2.569-7.808l-6.059-32.486c7.706-4.42 12.962-12.629 12.962-22.127C153.6 11.486 142.114 0 128 0s-25.6 11.486-25.6 25.6c0 12.689 9.31 23.177 21.444 25.182l4.378 23.484c-40.704 4.89-61.534 11.162-62.498 11.452-19.132 5.981-37.487 23.142-47.224 37.546-.759 1.135-18.5 28.459-18.5 90.069s17.741 88.934 18.27 89.702C27.785 319.018 45.799 333.49 65.929 341c2.483.717 62.344 17.4 190.071 17.4s187.588-16.683 190.43-17.502c19.823-6.605 37.939-23.612 47.019-37.427.759-1.109 18.551-27.955 18.551-90.138s-17.792-89.028-18.287-89.728zM375.467 25.6c0-4.702 3.823-8.533 8.533-8.533s8.533 3.831 8.533 8.533-3.823 8.533-8.533 8.533-8.533-3.831-8.533-8.533zM128 34.133c-4.71 0-8.533-3.831-8.533-8.533s3.823-8.533 8.533-8.533 8.533 3.831 8.533 8.533-3.823 8.533-8.533 8.533z"/><path d="M128.213 204.8c0 4.71 3.866 8.533 8.576 8.533a8.536 8.536 0 0 0 8.533-8.533 8.536 8.536 0 0 0-8.533-8.533h-.085c-4.71 0-8.491 3.823-8.491 8.533z"/></svg>