<svg xmlns="http://www.w3.org/2000/svg" viewBox="0 0 512.145 512.145"><path d="M179.409 71.671C202.611 58.283 229.124 51.2 256.073 51.2c26.982 0 53.513 7.1 76.732 20.514a8.442 8.442 0 0 0 4.267 1.152 8.535 8.535 0 0 0 7.398-4.267c2.364-4.079.964-9.301-3.115-11.657-25.813-14.925-55.296-22.81-85.282-22.81-29.943 0-59.4 7.868-85.197 22.758-4.087 2.355-5.487 7.578-3.132 11.657 2.364 4.08 7.586 5.471 11.665 3.124zm76.664 116.062c-9.412 0-17.067 7.654-17.067 17.067 0 9.412 7.654 17.067 17.067 17.067 9.412 0 17.067-7.654 17.067-17.067-.001-9.412-7.655-17.067-17.067-17.067z"/><path d="M329.971 162.133c-2.355-4.087-7.586-5.495-11.665-3.123l-7.936 4.582a68.94 68.94 0 0 0-13.09-13.09l4.582-7.945c2.364-4.079.964-9.301-3.123-11.656a8.536 8.536 0 0 0-11.656 3.123l-4.531 7.851c-5.641-2.372-11.674-3.959-17.946-4.753V128a8.53 8.53 0 0 0-8.533-8.533A8.53 8.53 0 0 0 247.54 128v9.122c-6.272.794-12.305 2.381-17.946 4.753l-4.531-7.851c-2.364-4.087-7.586-5.487-11.657-3.132-4.087 2.364-5.487 7.578-3.123 11.665l4.582 7.945a68.65 68.65 0 0 0-13.09 13.09l-7.945-4.591c-4.079-2.364-9.301-.956-11.657 3.132-2.364 4.079-.956 9.293 3.123 11.656l7.859 4.531a67.934 67.934 0 0 0-5.35 26.479c0 37.641 30.626 68.267 68.267 68.267 37.641 0 68.267-30.626 68.267-68.267a68.062 68.062 0 0 0-5.342-26.47l7.859-4.54c4.071-2.363 5.479-7.577 3.115-11.656zM256.073 256c-28.237 0-51.2-22.963-51.2-51.2 0-28.237 22.963-51.2 51.2-51.2s51.2 22.963 51.2 51.2c0 28.237-22.964 51.2-51.2 51.2z"/><path d="M510.903 451.959c-2.295-8.585-7.723-15.795-15.317-20.378l-47.027-37.606c-.222-.145-21.82-14.967-21.82-35.575V204.8c0-46.541-18.97-90.863-52.335-122.982l32.862-33.169c3.328 1.587 7.006 2.551 10.94 2.551 14.114 0 25.6-11.486 25.6-25.6S432.32 0 418.206 0s-25.6 11.486-25.6 25.6c0 3.951.973 7.654 2.586 11l-39.159 39.518a8.534 8.534 0 0 0-2.466 6.34 8.552 8.552 0 0 0 2.944 6.118c33.783 29.235 53.163 71.595 53.163 116.224v153.6c0 29.824 28.203 48.964 28.8 49.331l46.925 37.555a9.05 9.05 0 0 0 1.067.734 16.974 16.974 0 0 1 7.962 10.359 16.916 16.916 0 0 1-1.715 12.945c-4.702 8.166-15.155 10.957-23.142 6.349L362.91 410.846a8.534 8.534 0 0 0-10.155.947 8.522 8.522 0 0 0-1.988 9.993l22.545 47.548c2.372 4.087 3.14 9.003 2.133 13.491-.998 4.429-3.618 8.064-7.373 10.232-8.875 5.12-19.396.009-24.499-6.98l-46.165-72.525a8.561 8.561 0 0 0-9.003-3.763 8.539 8.539 0 0 0-6.647 7.134l-8.533 59.733c-.06.401-.085.811-.085 1.212 0 9.412-7.654 17.067-17.067 17.067-9.412 0-17.067-7.654-17.067-17.067 0-.401-.026-.811-.085-1.212l-8.533-59.733a8.53 8.53 0 0 0-6.647-7.134 8.517 8.517 0 0 0-9.003 3.772l-45.815 72.124c-6.135 8.516-17.545 11.742-25.378 7.194-4.292-2.475-6.067-6.238-6.793-8.96-1.271-4.719-.478-10.027 2.483-15.223l21.76-46.225a8.525 8.525 0 0 0-12.118-10.94l-106.129 64.04c-8.149 4.685-18.611 1.911-23.313-6.238a16.943 16.943 0 0 1-1.715-12.954 16.97 16.97 0 0 1 7.962-10.359 8.867 8.867 0 0 0 1.05-.725l46.541-37.146c1.195-.802 29.201-19.942 29.201-49.749V204.8c0-44.809 19.507-87.287 53.513-116.523a8.518 8.518 0 0 0 2.961-6.161 8.504 8.504 0 0 0-2.509-6.357l-39.45-39.219c1.596-3.328 2.552-7.014 2.552-10.94 0-14.114-11.486-25.6-25.6-25.6s-25.6 11.486-25.6 25.6 11.486 25.6 25.6 25.6c3.951 0 7.646-.973 10.991-2.577l33.109 32.905a170.537 170.537 0 0 0-52.634 123.273v153.6c0 20.625-21.453 35.447-22.212 35.994l-46.626 37.188c-7.595 4.582-13.03 11.793-15.326 20.378-2.372 8.806-1.152 18.014 3.405 25.907 9.412 16.299 30.336 21.897 46.78 12.407l82.15-49.579-9.446 20.096c-4.881 8.439-6.289 18.483-3.866 27.546 2.21 8.243 7.441 15.113 14.746 19.319 15.488 8.96 36.497 3.686 48.034-12.416l33.715-53.043 5.188 36.318c.34 18.525 15.521 33.484 34.124 33.484s33.783-14.959 34.125-33.485l5.188-36.352 34.091 53.521c7.723 10.615 19.396 16.461 30.899 16.461 5.615 0 11.187-1.391 16.23-4.309 7.936-4.582 13.431-12.134 15.488-21.274 1.971-8.747.546-17.903-3.678-25.156l-10.035-21.188 82.483 50.142c16.29 9.395 37.222 3.806 46.635-12.493 4.556-7.902 5.777-17.101 3.404-25.908zM418.206 17.067c4.71 0 8.533 3.831 8.533 8.533s-3.823 8.533-8.533 8.533c-2.278 0-4.318-.922-5.845-2.372-.06-.068-.077-.154-.145-.222-.06-.06-.137-.068-.188-.119-1.442-1.536-2.355-3.558-2.355-5.82 0-4.702 3.822-8.533 8.533-8.533zM100.279 31.181c-.145.12-.333.171-.469.307-.136.137-.179.316-.307.461-1.493 1.314-3.413 2.185-5.564 2.185-4.71 0-8.533-3.831-8.533-8.533s3.823-8.533 8.533-8.533 8.533 3.831 8.533 8.533c.001 2.149-.878 4.078-2.193 5.58z"/><path d="M154.893 311.356c-2.423 4.036-1.109 9.276 2.918 11.691 1.826 1.101 45.303 26.82 98.261 26.82s96.435-25.719 98.261-26.82c4.028-2.415 5.342-7.654 2.918-11.691-2.406-4.036-7.629-5.367-11.699-2.944-.41.239-41.387 24.388-89.481 24.388S167 308.651 166.59 308.412a8.522 8.522 0 0 0-11.697 2.944z"/></svg>