<svg xmlns="http://www.w3.org/2000/svg" viewBox="0 0 512 512"><path d="M86.674 201.541a221.027 221.027 0 0 0-11.887 35.046c-1.135 4.574 1.655 9.199 6.229 10.334a8.505 8.505 0 0 0 2.057.247c3.831 0 7.313-2.594 8.277-6.477a203.054 203.054 0 0 1 10.965-32.324c1.877-4.318-.094-9.353-4.412-11.23a8.502 8.502 0 0 0-11.229 4.404zm423.21 57.89c-.648-4.676-5-7.936-9.617-7.287-4.668.649-7.936 4.958-7.287 9.626a207.833 207.833 0 0 1 1.954 28.365c0 112.111-90.539 203.46-202.342 204.791-30.345-19.388-58.786-43.127-46.114-72.695 22.75-53.094 1.579-72.892-7.467-81.348l-1.698-1.613c-2.586-2.577-5.495-4.335-8.073-5.879-6.246-3.746-7.927-4.753-4.574-14.814 2.219-6.682 5.171-9.796 8.576-13.406 7.893-8.346 13.926-16.648 13.926-40.781 0-14.046-7.125-25.25-19.55-30.737-14.089-6.229-32.905-4.028-42.854 5-6.212 5.649-8.303 13.338-5.726 21.077 6.084 18.219-7.817 44.553-33.792 64.034-6.878 5.163-8.926 2.799-10.155 1.382-7.62-8.781-7.031-33.758-.776-40.004 4.19-4.19 5.436-9.54 3.328-14.31-6.912-15.684-51.012-14.473-59.75-14.054-.375.017-.683.196-1.033.265a8.516 8.516 0 0 0-1.459.358c-.606.222-1.135.512-1.672.853a8.08 8.08 0 0 0-1.075.794c-.461.418-.845.87-1.203 1.382-.29.393-.546.794-.768 1.246-.256.538-.418 1.084-.563 1.673-.077.316-.265.58-.307.913-1.084 8.823-1.545 16.563-1.545 25.873 0 102.315 69.282 190.882 168.474 215.39a8.454 8.454 0 0 0 2.048.256c3.831 0 7.322-2.603 8.277-6.494 1.135-4.574-1.664-9.199-6.238-10.325-91.555-22.623-155.495-104.39-155.495-198.828 0-5.914.222-11.145.674-16.469 14.396-.051 26.692 1.638 32.939 3.55-9.788 15.283-8.713 45.329 3.251 59.119 8.576 9.873 21.018 10.291 33.289 1.084 32.785-24.585 48.384-57.207 39.74-83.081-.273-.845-.546-1.638 1.024-3.063 4.489-4.079 15.915-5.803 24.465-2.014 6.315 2.79 9.387 7.74 9.387 15.13 0 19.26-3.883 23.373-9.259 29.056-3.985 4.224-8.951 9.472-12.373 19.738-7.672 23.049 4.634 30.438 11.989 34.85 1.903 1.135 3.695 2.21 4.787 3.302a86.639 86.639 0 0 0 2.108 2.014c7.501 7.014 21.47 20.079 3.439 62.157-20.446 47.71 32.273 80.973 54.784 95.181a8.607 8.607 0 0 0 4.557 1.314C412.468 512 512 412.468 512 290.134c0-10.223-.708-20.548-2.116-30.703z"/><path d="M392.5 294.571c-2.466.708-5.837 1.673-6.733 1.741-11.793 0-19.268 9.131-24.721 15.795-2.091 2.551-5.769 7.33-8.243 7.177-3.857-1.929-7.91-2.901-12.049-2.901-10.061 0-18.773 5.982-20.719 14.242-1.374 5.803.648 13.747 10.419 18.637 13.858 6.929 28.186 14.089 34.56 20.463 4.386 4.386 11.972 6.904 20.821 6.904 13.44 0 31.309-6.528 37.444-24.943 2.424-7.253 8.218-12.8 13.824-18.168 6.502-6.229 12.655-12.1 12.74-20.548.06-4.984-2.15-9.745-6.554-14.157-5.999-5.999-14.165-9.037-24.286-9.037-9.71-.001-19.421 2.773-26.503 4.795zm40.277 18.168c-.401 1.681-4.651 5.751-7.475 8.457-6.443 6.161-14.455 13.833-18.21 25.096-4.215 12.638-18.449 13.269-21.257 13.269-4.975 0-8.098-1.314-8.747-1.894-8.346-8.346-23.236-15.795-39.006-23.671-.034-.017-.06-.026-.094-.043 1.604-.649 4.565-.708 7.185.597 2.756 1.382 5.581 2.082 8.405 2.082 9.446 0 15.411-7.287 20.668-13.713 3.849-4.693 7.808-9.54 11.52-9.54 3.038 0 6.554-1.007 11.418-2.398 6.46-1.843 14.498-4.139 21.82-4.139 5.504 0 9.498 1.323 12.211 4.036 1.187 1.195 1.502 1.861 1.562 1.861zM210.398 101.436c25.25-10.684 52.079-16.102 79.735-16.102 14.49 0 28.894 1.51 42.923 4.506-.307 12.279 4.992 20.702 8.405 26.112.939 1.502 2.236 3.55 2.389 3.831 0 30.609-6.255 35.584-6.187 35.601-13.833 0-36.531 12.356-45.065 28.288-5.24 9.771-4.813 20.113 1.186 29.124 4.113 6.17 7.654 13.03 11.085 19.669 7.253 14.046 15.309 29.628 27.93 29.628 2.68 0 5.564-.7 8.687-2.261 9.95-4.975 17.084-19.123 23.979-32.794 3.038-6.025 7.501-14.865 10.146-17.673 8.661 1.178 12.894 9.011 18.62 21.419 4.215 9.131 8.576 18.56 17.143 22.844 14.421 7.211 61.841-.341 88.047-11.469.35-.145.589-.435.913-.623.503-.299.981-.58 1.408-.964.41-.375.725-.785 1.05-1.22.333-.435.64-.862.879-1.348.247-.495.384-1.007.521-1.536.145-.529.273-1.033.316-1.579.034-.572-.034-1.118-.119-1.698-.043-.375.034-.734-.068-1.109-17.911-66.219-66.56-121.301-130.15-147.337-4.361-1.792-9.353.299-11.136 4.659a8.533 8.533 0 0 0 4.668 11.127c56.311 23.066 99.874 70.835 117.922 128.649-26.547 9.353-60.553 12.177-66.62 9.182-3.209-1.604-6.434-8.576-9.276-14.729-5.948-12.885-14.097-30.532-34.901-31.454-10.837-.572-16.811 11.733-24.602 27.179-4.574 9.062-11.477 22.767-16.981 25.464-3.166-.742-9.455-12.919-13.21-20.19-3.473-6.724-7.407-14.345-12.049-21.299-2.517-3.772-2.62-7.356-.341-11.605 5.862-10.94 23.45-19.277 30.02-19.277 15.428 0 23.253-17.715 23.253-52.668 0-4.966-2.552-9.011-5.009-12.928-3.618-5.726-7.347-11.657-5.137-21.777.981-4.497-1.783-8.969-6.246-10.095-17.673-4.454-35.977-6.716-54.391-6.716-29.952 0-59.017 5.871-86.383 17.451-4.344 1.835-6.374 6.844-4.531 11.179 1.833 4.343 6.842 6.374 11.177 4.539zM104.551 91.008a8.536 8.536 0 0 0 6.383 2.859 8.53 8.53 0 0 0 5.675-2.15 8.56 8.56 0 0 0 .708-12.058l-22.758-25.6c-3.14-3.516-8.525-3.823-12.058-.708a8.56 8.56 0 0 0-.708 12.058l22.758 25.599zm192.111 323.004c-10.65 0-23.142 12.254-27.699 23.253-3.558 8.593-2.5 16.606 2.91 22.016 5.094 5.094 12.655 8.021 20.745 8.021 8.09 0 15.65-2.927 20.753-8.021 5.666-5.666 7.049-13.995 3.891-23.441-2.125-6.383-6.332-13.133-11.255-18.057-2.442-2.431-5.753-3.771-9.345-3.771zm4.642 33.195c-3.789 3.789-13.636 3.686-17.323.094-.12-.367-.111-2.5 2.15-6.229 2.944-4.864 7.1-8.294 9.353-9.515 2.423 2.876 4.523 6.477 5.589 9.677.948 2.824 1.033 5.171.231 5.973z"/><path d="M145.067 204.8c32.939 0 59.733-26.795 59.733-59.733 0-13.056-4.693-25.754-14.362-38.818C177.741 89.08 118.52 4.489 117.923 3.644c-2.705-3.866-8.021-4.804-11.878-2.099-3.866 2.705-4.804 8.021-2.099 11.878 2.441 3.49 59.947 85.623 72.772 102.98 7.415 10.01 11.017 19.396 11.017 28.663 0 23.526-19.14 42.667-42.667 42.667-9.37 0-18.398-3.558-29.261-11.537-16.776-12.322-98.893-69.811-102.383-72.252-3.849-2.697-9.173-1.758-11.878 2.099s-1.766 9.173 2.099 11.878c.845.597 85.444 59.819 102.059 72.03 8.677 6.376 22.203 14.849 39.363 14.849z"/><path d="M102.4 145.067c0 4.71 3.823 8.533 8.533 8.533s8.533-3.823 8.533-8.533c0-14.114 11.486-25.6 25.6-25.6 4.71 0 8.533-3.823 8.533-8.533s-3.823-8.533-8.533-8.533c-23.525-.001-42.666 19.14-42.666 42.666zM2.859 49.05l25.6 22.75a8.538 8.538 0 0 0 12.058-.708c3.123-3.524 2.807-8.917-.708-12.049l-25.6-22.758c-3.533-3.132-8.917-2.807-12.058.708a8.558 8.558 0 0 0 .708 12.057zm62.549 32.742a8.54 8.54 0 0 0-12.049.708c-3.132 3.524-2.816 8.917.7 12.049l25.6 22.758a8.493 8.493 0 0 0 5.675 2.159 8.5 8.5 0 0 0 6.374-2.859c3.132-3.524 2.816-8.917-.7-12.049l-25.6-22.766zm-3.507-38.766a8.536 8.536 0 0 0 6.383 2.859 8.576 8.576 0 0 0 5.675-2.15c3.516-3.14 3.831-8.533.708-12.058L49.05 2.859a8.56 8.56 0 0 0-12.058-.708 8.56 8.56 0 0 0-.708 12.058l25.617 28.817z"/></svg>