<svg xmlns="http://www.w3.org/2000/svg" viewBox="0 0 512.256 512.256"><path d="M503.467 170.795H435.2c-4.71 0-8.533 3.823-8.533 8.533s3.823 8.533 8.533 8.533h68.267c4.71 0 8.533-3.823 8.533-8.533s-3.823-8.533-8.533-8.533zm.256-68.267a8.53 8.53 0 0 0 8.533-8.533 8.53 8.53 0 0 0-8.533-8.533h-.085c-4.71 0-8.491 3.823-8.491 8.533 0 4.71 3.865 8.533 8.576 8.533zM401.067 34.261h8.533v8.533c0 4.71 3.823 8.533 8.533 8.533s8.533-3.823 8.533-8.533v-8.533h8.533a8.536 8.536 0 0 0 8.533-8.533 8.536 8.536 0 0 0-8.533-8.533h-8.533V8.661c0-4.71-3.823-8.533-8.533-8.533S409.6 3.951 409.6 8.661v8.533h-8.533a8.536 8.536 0 0 0-8.533 8.533c-.001 4.711 3.822 8.534 8.533 8.534zm-187.734 102.4h-.162c10.761-14.285 17.229-31.983 17.229-51.2 0-47.053-38.281-85.333-85.333-85.333S59.733 38.409 59.733 85.461c0 19.217 6.468 36.915 17.229 51.2H76.8c-42.342 0-76.8 34.458-76.8 76.8v128c0 14.114 11.486 25.6 25.6 25.6h25.6v136.533a8.536 8.536 0 0 0 8.533 8.533H128a8.536 8.536 0 0 0 8.533-8.533V350.097c.102-3.942 1.664-8.636 8.533-8.636s8.431 4.693 8.533 8.533v153.6a8.536 8.536 0 0 0 8.533 8.533H230.4a8.536 8.536 0 0 0 8.533-8.533V367.061h25.6c14.114 0 25.6-11.486 25.6-25.6v-128c0-42.342-34.457-76.8-76.8-76.8zM145.067 17.195c25.429 0 47.616 14.003 59.358 34.671-13.056-4.582-32.666-9.071-59.358-9.071-26.547 0-46.157 4.437-59.307 8.994 11.759-20.625 33.911-34.594 59.307-34.594zM76.8 85.461c0-3.994.418-7.893 1.075-11.708 7.168-3.934 29.065-13.892 67.191-13.892 39.023 0 60.749 10.419 67.217 14.114.64 3.746 1.05 7.569 1.05 11.486a67.799 67.799 0 0 1-5.692 27.204c-5.632 1.929-23.97 6.929-62.575 6.929-38.716 0-57.045-5.035-62.575-6.929A67.811 67.811 0 0 1 76.8 85.461zm116.804 47.932c-12.382 12.535-29.559 20.335-48.538 20.335-18.978 0-36.156-7.799-48.538-20.335 11.204 1.783 26.931 3.268 48.538 3.268 21.607 0 37.334-1.484 48.538-3.268zM51.2 349.995H25.6c-4.702 0-8.533-3.831-8.533-8.533v-25.6H51.2v34.133zm68.267 145.066h-51.2v-25.6c0-4.702 3.831-8.533 8.533-8.533h34.133c4.702 0 8.533 3.831 8.533 8.533v25.6zm102.4 0h-51.2v-25.6c0-4.702 3.831-8.533 8.533-8.533h34.133c4.702 0 8.533 3.831 8.533 8.533v25.6zm51.2-153.6c0 4.702-3.831 8.533-8.533 8.533h-25.6v-34.133h34.133v25.6zm0-42.666h-34.133v-68.267c0-4.71-3.823-8.533-8.533-8.533s-8.533 3.823-8.533 8.533v214.903c-2.68-.956-5.521-1.57-8.533-1.57H179.2c-3.012 0-5.854.614-8.533 1.57v-95.437c0-10.291-6.818-25.6-25.6-25.6-18.782 0-25.6 15.309-25.6 25.6v95.437c-2.679-.956-5.521-1.57-8.533-1.57H76.8c-3.012 0-5.854.614-8.533 1.57v-206.37c0-4.71-3.823-8.533-8.533-8.533s-8.533 3.823-8.533 8.533v59.733H17.067v-85.333c0-32.939 26.795-59.733 59.733-59.733h17.28c14.251 10.667 31.863 17.067 50.987 17.067 19.123 0 36.736-6.4 50.987-17.067h17.28c32.939 0 59.733 26.795 59.733 59.733v85.334zm59.733-204.8a8.536 8.536 0 0 0 8.533-8.533c4.71 0 8.533-3.823 8.533-8.533s-3.823-8.533-8.533-8.533a8.536 8.536 0 0 0-8.533-8.533 8.536 8.536 0 0 0-8.533 8.533c-4.71 0-8.533 3.823-8.533 8.533s3.823 8.533 8.533 8.533a8.536 8.536 0 0 0 8.533 8.533zm170.667 162.133c4.71 0 8.533-3.823 8.533-8.533s-3.823-8.533-8.533-8.533H341.333v-17.067h59.733a8.536 8.536 0 0 0 8.533-8.533v-34.133a8.536 8.536 0 0 0-8.533-8.533H332.8a8.536 8.536 0 0 0-8.533 8.533v324.267a8.536 8.536 0 0 0 8.533 8.533 8.536 8.536 0 0 0 8.533-8.533V290.261h162.133c4.71 0 8.533-3.823 8.533-8.533s-3.823-8.533-8.533-8.533H341.333v-17.067h162.134zm-162.134-68.267h51.2v17.067h-51.2v-17.067z"/><path d="M503.467 204.928H435.2a8.536 8.536 0 0 0-8.533 8.533 8.536 8.536 0 0 0 8.533 8.533h68.267a8.536 8.536 0 0 0 8.533-8.533 8.536 8.536 0 0 0-8.533-8.533z"/></svg>