<svg xmlns="http://www.w3.org/2000/svg" viewBox="0 0 512 512"><path d="M456.081 427.563c-4.198-2.099-9.327-.393-11.435 3.814-2.116 4.207-.41 9.336 3.797 11.452.461.23 46.49 23.834 46.49 60.638 0 4.71 3.823 8.533 8.533 8.533s8.533-3.823 8.533-8.533c.001-47.394-53.631-74.761-55.918-75.904zm-400.162 0C53.632 428.706 0 456.073 0 503.467 0 508.177 3.823 512 8.533 512s8.533-3.823 8.533-8.533c0-36.804 46.029-60.407 46.49-60.638 4.207-2.116 5.914-7.245 3.797-11.452-2.107-4.207-7.219-5.905-11.434-3.814zM116.267 230.4c4.71 0 8.849-3.746 8.849-8.465 0-4.71-3.507-8.457-8.218-8.457-1.587-.956-5.965-8.823-5.965-25.745 0-7.083 10.547-36.147 16.171-47.386 17.118-34.253 42.138-37.948 52.096-37.948 1.954 0 2.859.657 3.541 1.365 2.611 2.688 3.635 8.465 3.908 12.535-34.227 36.77-50.116 101.222-50.116 165.299 0 9.532.529 18.492 1.57 26.607.597 4.685 4.89 8.013 9.549 7.381a8.52 8.52 0 0 0 7.373-9.549c-.939-7.407-1.425-15.625-1.425-24.439 0-89.199 31.659-179.2 102.4-179.2s102.4 90.001 102.4 179.2c0 9.199-.521 17.715-1.545 25.31-.623 4.676 2.654 8.969 7.322 9.6a8.542 8.542 0 0 0 9.6-7.321c1.118-8.346 1.69-17.63 1.69-27.588 0-64.068-15.889-128.521-50.108-165.291.265-4.096 1.297-9.856 3.9-12.544.683-.708 1.587-1.365 3.541-1.365 9.958 0 34.978 3.695 52.096 37.948 5.623 11.238 16.171 40.303 16.171 47.386 0 16.205-3.831 24.141-5.478 25.609a8.536 8.536 0 0 0 .503 17.058c13.594 0 22.042-16.35 22.042-42.667 0-12.322-13.5-46.071-17.963-55.014-21.385-42.769-54.238-47.386-67.371-47.386-6.212 0-11.699 2.287-15.855 6.613-3.098 3.217-5.043 7.219-6.34 11.179C295.296 91.844 277.154 85.333 256 85.333c-21.154 0-39.296 6.511-54.605 17.792-1.297-3.959-3.243-7.962-6.34-11.179-4.156-4.326-9.643-6.613-15.855-6.613-13.133 0-45.986 4.617-67.371 47.386-4.463 8.943-17.963 42.692-17.963 55.014.001 25.925 8.79 42.667 22.401 42.667z"/><path d="M221.867 332.8c12.919 0 25.933-4.352 34.133-12.826 8.201 8.474 21.214 12.826 34.133 12.826 4.71 0 8.533-3.823 8.533-8.533s-3.823-8.533-8.533-8.533c-6.989 0-18.773-2.313-23.475-9.89 13.722-3.294 23.475-12.706 23.475-24.243 0-14.353-14.993-25.6-34.133-25.6s-34.133 11.247-34.133 25.6c0 11.537 9.754 20.949 23.475 24.243-4.702 7.578-16.486 9.89-23.475 9.89-4.71 0-8.533 3.823-8.533 8.533s3.822 8.533 8.533 8.533zm17.066-51.2c0-3.396 6.81-8.533 17.067-8.533 10.419 0 17.067 5.052 17.067 8.533 0 3.482-6.648 8.533-17.067 8.533-10.257 0-17.067-5.137-17.067-8.533zm68.267-76.8c0-9.412-7.654-17.067-17.067-17.067-9.412 0-17.067 7.654-17.067 17.067 0 9.412 7.654 17.067 17.067 17.067S307.2 214.212 307.2 204.8z"/><path d="M256 0C163.866 0 84.693 56.465 51.2 136.593V49.63c9.916-3.541 17.067-12.919 17.067-24.03 0-14.114-11.486-25.6-25.6-25.6s-25.6 11.486-25.6 25.6c0 11.11 7.151 20.489 17.067 24.021v172.245c0 53.786 19.243 103.142 51.2 141.594v67.354c0 2.628 1.22 5.12 3.294 6.733 48.316 37.547 106.189 57.387 167.373 57.387s119.066-19.84 167.373-57.387a8.544 8.544 0 0 0 3.294-6.733V363.46c31.957-38.451 51.2-87.808 51.2-141.594C477.867 99.533 378.334 0 256 0zM42.667 34.133c-4.702 0-8.533-3.831-8.533-8.533s3.831-8.533 8.533-8.533S51.2 20.898 51.2 25.6s-3.831 8.533-8.533 8.533zM409.6 426.598c-44.612 33.553-97.63 51.268-153.6 51.268s-108.979-17.715-153.6-51.268v-44.86c39.902 38.349 94.029 61.995 153.6 61.995s113.698-23.646 153.6-61.995v44.86zm3.575-73.617c-1.109.811-2.039 1.818-2.654 3.063-37.572 43.221-92.894 70.622-154.522 70.622-112.922 0-204.8-91.878-204.8-204.8s91.878-204.8 204.8-204.8 204.8 91.878 204.8 204.8c.001 49.844-17.919 95.566-47.624 131.115z"/><path d="M238.933 204.8c0-9.412-7.654-17.067-17.067-17.067-9.412 0-17.067 7.654-17.067 17.067 0 9.412 7.654 17.067 17.067 17.067s17.067-7.655 17.067-17.067zM404.48 308.907c-.657.495-66.935 49.493-148.48 49.493-81.34 0-147.823-49.007-148.48-49.493-3.78-2.825-9.122-2.057-11.947 1.715-2.825 3.772-2.065 9.114 1.707 11.938 2.876 2.159 71.543 52.907 158.72 52.907s155.844-50.748 158.72-52.907c3.772-2.825 4.531-8.175 1.707-11.947-2.816-3.763-8.167-4.531-11.947-1.706z"/></svg>