<svg xmlns="http://www.w3.org/2000/svg" viewBox="0 0 512 512"><path d="M456.081 427.563c-4.207-2.099-9.327-.393-11.435 3.814-2.116 4.207-.41 9.336 3.797 11.452.461.23 46.49 23.842 46.49 60.638 0 4.71 3.823 8.533 8.533 8.533s8.533-3.823 8.533-8.533c.001-47.394-53.631-74.761-55.918-75.904zM256 0C163.866 0 84.693 56.465 51.2 136.593V49.63c9.916-3.541 17.067-12.919 17.067-24.03 0-14.114-11.486-25.6-25.6-25.6s-25.6 11.486-25.6 25.6c0 11.11 7.151 20.489 17.067 24.021v172.245c0 53.786 19.243 103.142 51.2 141.594v67.354c0 2.628 1.22 5.12 3.294 6.733 48.316 37.547 106.189 57.387 167.373 57.387s119.066-19.84 167.373-57.387a8.544 8.544 0 0 0 3.294-6.733V363.46c31.957-38.451 51.2-87.808 51.2-141.594C477.867 99.533 378.334 0 256 0zM42.667 34.133c-4.702 0-8.533-3.831-8.533-8.533s3.831-8.533 8.533-8.533S51.2 20.898 51.2 25.6s-3.831 8.533-8.533 8.533zM409.6 426.598c-44.612 33.553-97.63 51.268-153.6 51.268s-108.979-17.715-153.6-51.268v-44.86c39.902 38.349 94.029 61.995 153.6 61.995s113.698-23.646 153.6-61.995v44.86zm3.575-73.617c-1.109.811-2.039 1.818-2.654 3.063-37.572 43.221-92.894 70.622-154.522 70.622-112.922 0-204.8-91.878-204.8-204.8s91.878-204.8 204.8-204.8 204.8 91.878 204.8 204.8c.001 49.844-17.919 95.566-47.624 131.115zM55.919 427.563C53.632 428.706 0 456.073 0 503.467 0 508.177 3.823 512 8.533 512s8.533-3.823 8.533-8.533c0-36.796 46.029-60.407 46.49-60.638 4.207-2.116 5.914-7.245 3.797-11.452-2.107-4.207-7.227-5.905-11.434-3.814z"/><path d="M136.823 271.701c.623 9.446 2.654 26.325 9.139 39.313a8.54 8.54 0 0 0 7.646 4.719c1.28 0 2.586-.29 3.806-.896 4.215-2.116 5.931-7.236 3.823-11.452-7.509-15.019-7.637-38.622-7.637-38.861-.009-4.702-3.823-8.525-8.533-8.525-4.702 0-8.533-3.831-8.533-8.533v-34.133c0-2.313.922-4.412 2.423-5.948 3.396 7.62 10.607 14.481 23.177 14.481a8.541 8.541 0 0 0 7.637-4.719c7.083-14.174 4.634-35.234 2.475-53.82-.222-1.894-.435-3.755-.64-5.564 39.458 11.665 113.766 11.58 152.661-.282v38.784a8.536 8.536 0 0 0 8.533 8.533 8.536 8.536 0 0 0 8.533-8.533v-51.2c0-2.961-1.536-5.7-4.045-7.262a8.56 8.56 0 0 0-8.303-.375c-32 16-131.038 16-163.038 0a8.563 8.563 0 0 0-8.303.375 8.557 8.557 0 0 0-4.045 7.262c0 5.666.819 12.74 1.69 20.233 1.459 12.518 3.2 27.52 1.229 37.871-2.21-1.707-2.859-4.471-2.918-6.904a8.536 8.536 0 0 0-8.533-8.533c-14.114 0-25.6 11.486-25.6 25.6v34.133c0 11.232 7.27 20.797 17.356 24.236z"/><path d="M281.6 238.933h8.533c0 4.71 3.823 8.533 8.533 8.533s8.533-3.823 8.533-8.533h8.533c4.71 0 8.533-3.823 8.533-8.533s-3.823-8.533-8.533-8.533H281.6c-4.71 0-8.533 3.823-8.533 8.533s3.823 8.533 8.533 8.533z"/><path d="M128 179.2a8.536 8.536 0 0 0 8.533-8.533v-8.533c0-9.609 3.354-93.867 119.467-93.867 84.634 0 102.4 51.046 102.4 93.867v34.133a8.536 8.536 0 0 0 8.533 8.533c4.702 0 8.533 3.831 8.533 8.533v34.133c0 4.702-3.831 8.533-8.533 8.533-4.71 0-8.525 3.823-8.533 8.525 0 .222-.111 20.574-6.127 35.507-8.201 2.014-31.479 6.579-72.269 7.074-3.567-9.865-12.928-16.973-24.004-16.973-14.114 0-25.6 11.486-25.6 25.6s11.486 25.6 25.6 25.6c11.136 0 20.531-7.185 24.047-17.126 55.424-.64 79.992-8.559 81.05-8.909a8.539 8.539 0 0 0 4.941-4.284c6.485-12.988 8.516-29.867 9.139-39.313 10.086-3.439 17.357-13.005 17.357-24.235v-34.133c0-11.128-7.134-20.617-17.067-24.141v-27.059C375.467 91.631 331.921 51.2 256 51.2c-53.461 0-92.39 16.256-115.703 48.316-19.823 27.264-20.83 56.943-20.83 62.618v8.533A8.536 8.536 0 0 0 128 179.2zm128 145.067c-4.702 0-8.533-3.831-8.533-8.533s3.831-8.533 8.533-8.533 8.533 3.831 8.533 8.533-3.831 8.533-8.533 8.533z"/><path d="M416.427 310.613c-2.816-3.763-8.158-4.531-11.947-1.707-.657.496-66.935 49.494-148.48 49.494-81.34 0-147.823-49.007-148.48-49.493-3.78-2.825-9.122-2.057-11.947 1.715-2.825 3.772-2.065 9.114 1.707 11.938 2.876 2.159 71.543 52.907 158.72 52.907s155.844-50.748 158.72-52.907c3.772-2.825 4.531-8.175 1.707-11.947zM238.933 230.4a8.536 8.536 0 0 0-8.533-8.533h-34.133c-4.71 0-8.533 3.823-8.533 8.533s3.823 8.533 8.533 8.533h8.533a8.536 8.536 0 0 0 8.533 8.533 8.536 8.536 0 0 0 8.533-8.533h8.533c4.711 0 8.534-3.823 8.534-8.533z"/></svg>