<svg xmlns="http://www.w3.org/2000/svg" viewBox="0 0 512.139 512.139"><path d="M388.312 103.566c-101.555-59.247-223.386-58.667-283.401 1.34-65.613 65.613-34.867 194.415 36.454 265.745a8.538 8.538 0 0 0 6.033 2.5 8.509 8.509 0 0 0 6.033-2.5 8.523 8.523 0 0 0 0-12.066c-72.764-72.764-90.138-187.93-36.454-241.613 53.803-53.794 169.225-53.222 262.733 1.34 4.079 2.372 9.301.998 11.674-3.072 2.372-4.071.99-9.293-3.072-11.674z"/><path d="M222.048 382.333c-.93 4.617 2.074 9.114 6.69 10.035 8.909 1.783 18.039 2.645 27.196 2.645 37.359 0 75.204-14.327 99.977-39.108 37.726-37.726 40.252-116.634-21.461-178.338-11.025-11.025-33.229-21.291-51.644-23.876-4.796-.674-8.986 2.594-9.643 7.262-.657 4.668 2.586 8.986 7.253 9.634 15.949 2.244 34.577 11.657 41.967 19.046 42.419 42.411 61.158 114.5 21.461 154.206-26.564 26.564-72.542 39.663-111.761 31.804-4.608-.922-9.122 2.065-10.035 6.69z"/><path d="M275.578 219.372c16.41 16.401 23.1 32.06 23.1 54.025 0 4.71 3.814 8.533 8.533 8.533s8.533-3.823 8.533-8.533c0-26.283-8.67-46.66-28.1-66.091-14.601-14.592-34.202-21.461-55.202-19.422-21.333 2.116-41.182 13.329-51.797 29.252-2.62 3.925-1.562 9.224 2.364 11.836s9.225 1.553 11.836-2.364c7.74-11.614 23.159-20.139 39.287-21.734 15.812-1.587 30.532 3.584 41.446 14.498z"/><path d="M120.374 397.258c-2.108 4.215-.393 9.335 3.823 11.452 46.251 23.117 105.89 36.975 160.367 36.975 49.997 0 95.65-11.682 122.547-38.579 65.613-65.613 34.867-194.415-36.454-265.745-3.336-3.336-8.738-3.336-12.066 0a8.525 8.525 0 0 0 0 12.066c72.764 72.764 90.138 187.93 36.454 241.613-49.613 49.596-179.883 40.073-263.219-1.604-4.216-2.1-9.328-.394-11.452 3.822z"/><path d="M283.283 119.643c-44.51-8.909-96.794 6.084-127.172 36.463-37.726 37.726-40.252 116.634 21.461 178.338 10.931 10.94 34.159 21.658 51.763 23.893.367.051.725.068 1.084.068 4.233 0 7.91-3.149 8.457-7.458.597-4.676-2.714-8.943-7.39-9.54-14.959-1.903-34.432-11.614-41.847-19.029-42.419-42.411-61.158-114.5-21.461-154.206 26.573-26.564 72.525-39.629 111.761-31.804 4.617.896 9.114-2.065 10.035-6.69.93-4.616-2.074-9.113-6.691-10.035zm186.061-85.504h8.533v8.533a8.53 8.53 0 0 0 8.533 8.533 8.53 8.53 0 0 0 8.533-8.533v-8.533h8.533c4.719 0 8.533-3.823 8.533-8.533s-3.814-8.533-8.533-8.533h-8.533V8.539A8.53 8.53 0 0 0 486.41.006a8.53 8.53 0 0 0-8.533 8.533v8.533h-8.533c-4.719 0-8.533 3.823-8.533 8.533s3.814 8.534 8.533 8.534zM76.76 41.537c77.67-50.15 260.233-20.361 361.728 59.059a8.48 8.48 0 0 0 5.248 1.809 8.5 8.5 0 0 0 6.724-3.277c2.91-3.712 2.253-9.071-1.459-11.981C342.761 4.033 150.223-26.243 67.492 27.201c-3.959 2.56-5.086 7.842-2.534 11.802a8.531 8.531 0 0 0 11.802 2.534z"/><path d="M280.869 327.643c16.512 0 31.65-5.146 40.909-14.404a8.525 8.525 0 0 0 0-12.066 8.523 8.523 0 0 0-12.066 0c-12.732 12.723-49.937 14.797-73.267-8.533-14.669-14.669-14.635-26.965-14.575-49.271l.009-4.429c0-4.719-3.814-8.533-8.533-8.533s-8.533 3.814-8.533 8.533l-.009 4.378c-.068 23.296-.119 41.702 19.576 61.389 15.836 15.845 37.109 22.936 56.489 22.936zM469.6 119.472h-.085c-4.71 0-8.491 3.823-8.491 8.533 0 4.71 3.866 8.533 8.576 8.533a8.536 8.536 0 0 0 8.533-8.533c.001-4.71-3.822-8.533-8.533-8.533zM188 42.672a8.536 8.536 0 0 0-8.533-8.533h-.085c-4.71 0-8.491 3.823-8.491 8.533s3.866 8.533 8.576 8.533S188 47.383 188 42.672zm264.534 384h-.085c-4.71 0-8.491 3.823-8.491 8.533 0 4.71 3.866 8.533 8.576 8.533a8.536 8.536 0 0 0 8.533-8.533 8.536 8.536 0 0 0-8.533-8.533zm-358.4 68.267h-.085c-4.71 0-8.491 3.823-8.491 8.533s3.866 8.533 8.576 8.533c4.71 0 8.533-3.823 8.533-8.533s-3.823-8.533-8.533-8.533z"/><path d="M509.536 326.022c-8.439-74.539-36.309-143.701-78.455-194.756a8.547 8.547 0 0 0-12.023-1.143 8.527 8.527 0 0 0-1.143 12.006c90.701 109.85 91.793 277.24 52.727 339.755-2.5 3.994-1.28 9.259 2.714 11.759a8.496 8.496 0 0 0 4.514 1.297 8.544 8.544 0 0 0 7.245-4.011c22.843-36.558 31.982-98.211 24.421-164.907zm-78.515 147.106c-78.217 46.49-258.645 15.343-357.495-61.722-3.721-2.91-9.088-2.236-11.981 1.485-2.893 3.721-2.236 9.079 1.485 11.981 70.682 55.1 177.911 87.262 266.436 87.262 43.435 0 82.381-7.748 110.268-24.329 4.053-2.406 5.385-7.646 2.978-11.699-2.398-4.053-7.655-5.368-11.691-2.978zM81.359 381.232a8.539 8.539 0 0 0 6.588 3.098 8.538 8.538 0 0 0 6.562-13.978C3.492 260.349 2.264 92.72 41.38 30.128c2.5-3.994 1.28-9.259-2.714-11.759-3.994-2.5-9.267-1.28-11.759 2.714C4.073 57.623-4.998 119.387 2.673 186.305c8.542 74.701 36.497 143.924 78.686 194.927zM8.8 460.806h-.085c-4.71 0-8.491 3.823-8.491 8.533s3.866 8.533 8.576 8.533 8.533-3.823 8.533-8.533-3.822-8.533-8.533-8.533zm25.344-102.4c0-4.71-3.814-8.533-8.533-8.533s-8.533 3.823-8.533 8.533a8.53 8.53 0 0 0-8.533 8.533 8.53 8.53 0 0 0 8.533 8.533c0 4.71 3.814 8.533 8.533 8.533s8.533-3.823 8.533-8.533a8.53 8.53 0 0 0 8.533-8.533 8.53 8.53 0 0 0-8.533-8.533z"/></svg>