<svg xmlns="http://www.w3.org/2000/svg" viewBox="0 0 512 512"><path d="M35.106 144c4.139 2.278 9.327.777 11.597-3.345C88.789 64.427 168.994 17.067 256 17.067c65.766 0 127.992 26.547 172.74 73.267-21.376 9.412-36.207 30.908-36.207 54.733 0 32.939 26.803 59.733 59.733 59.733 17.4 0 33.903-7.569 45.278-20.77.222-.256.299-.58.478-.862.324-.478.623-.947.845-1.485a9.264 9.264 0 0 0 .452-1.579 8.662 8.662 0 0 0 .179-1.562c.008-.597-.085-1.169-.196-1.758-.068-.316-.009-.631-.111-.947a252.66 252.66 0 0 0-30.908-63.531c-2.628-3.908-7.953-4.941-11.844-2.313a8.529 8.529 0 0 0-2.304 11.844c11.401 16.922 20.42 35.268 27.11 54.519a42.587 42.587 0 0 1-28.979 11.375c-23.526 0-42.667-19.14-42.667-42.667 0-20.506 15.445-38.596 35.917-42.086a8.528 8.528 0 0 0 6.588-5.513 8.512 8.512 0 0 0-1.536-8.448C402.133 32.444 331.213 0 256 0 162.773 0 76.86 50.739 31.77 132.412c-2.287 4.121-.785 9.31 3.336 11.588zm357.393 248.533c18.825 0 34.133-15.309 34.133-34.133s-15.309-34.133-34.133-34.133-34.133 15.309-34.133 34.133 15.309 34.133 34.133 34.133zm0-51.2c9.412 0 17.067 7.654 17.067 17.067s-7.654 17.067-17.067 17.067c-9.404 0-17.067-7.654-17.067-17.067s7.664-17.067 17.067-17.067z"/><path d="M350.089 136.533c4.71 0 8.533-3.823 8.533-8.533s-3.823-8.533-8.533-8.533h-.085c-4.71 0-8.491 3.823-8.491 8.533s3.865 8.533 8.576 8.533zm76.578 115.2c0 7.057 5.743 12.8 12.8 12.8s12.8-5.743 12.8-12.8-5.743-12.8-12.8-12.8-12.8 5.743-12.8 12.8zM333.056 409.6h-.085c-4.71 0-8.491 3.823-8.491 8.533s3.866 8.533 8.576 8.533 8.533-3.823 8.533-8.533-3.823-8.533-8.533-8.533zM128.222 187.733h-.085c-4.71 0-8.491 3.823-8.491 8.533s3.866 8.533 8.576 8.533 8.533-3.823 8.533-8.533-3.823-8.533-8.533-8.533zm-77.056 128c0 14.114 11.486 25.6 25.6 25.6s25.6-11.486 25.6-25.6-11.486-25.6-25.6-25.6-25.6 11.486-25.6 25.6zm34.133 0c0 4.702-3.823 8.533-8.533 8.533s-8.533-3.831-8.533-8.533 3.823-8.533 8.533-8.533 8.533 3.831 8.533 8.533zM149.333 128c7.057 0 12.8-5.743 12.8-12.8s-5.743-12.8-12.8-12.8-12.8 5.743-12.8 12.8 5.743 12.8 12.8 12.8z"/><path d="M507.529 208.077c-.879-4.634-5.325-7.689-9.967-6.801-4.634.879-7.68 5.342-6.801 9.975A241.685 241.685 0 0 1 494.934 256c0 131.746-107.187 238.933-238.933 238.933S17.067 387.746 17.067 256c0-5.862.205-11.75.631-17.579 2.432.341 5.043.512 7.868.512 23.526 0 42.667-19.14 42.667-42.667a42.542 42.542 0 0 0-40.951-42.633c-3.755-.111-6.895 1.988-8.252 5.316-5.205 12.826-9.532 26.462-12.51 39.424-1.058 4.591 1.809 9.173 6.409 10.232 4.574 1.05 9.173-1.809 10.223-6.409 2.304-10.018 5.47-20.489 9.276-30.618a25.533 25.533 0 0 1 18.739 24.687c0 14.114-11.486 25.6-25.6 25.6-5.009 0-8.678-.674-11.554-2.125a8.546 8.546 0 0 0-7.893.102 8.54 8.54 0 0 0-4.429 6.536A258.023 258.023 0 0 0 0 256c0 141.158 114.842 256 256 256s256-114.842 256-256a258.94 258.94 0 0 0-4.471-47.923z"/><path d="M170.633 384c0 23.526 19.14 42.667 42.667 42.667 23.526 0 42.667-19.14 42.667-42.667 0-23.526-19.14-42.667-42.667-42.667S170.633 360.474 170.633 384zm68.266 0c0 14.114-11.486 25.6-25.6 25.6s-25.6-11.486-25.6-25.6 11.486-25.6 25.6-25.6 25.6 11.486 25.6 25.6zm42.701-81.067c0 7.057 5.743 12.8 12.8 12.8s12.8-5.743 12.8-12.8-5.743-12.8-12.8-12.8-12.8 5.743-12.8 12.8zm-8.567-81.066c0-18.825-15.309-34.133-34.133-34.133s-34.133 15.309-34.133 34.133S220.075 256 238.899 256s34.134-15.309 34.134-34.133zm-34.134 17.066c-9.404 0-17.067-7.654-17.067-17.067 0-9.412 7.663-17.067 17.067-17.067 9.412 0 17.067 7.654 17.067 17.067s-7.655 17.067-17.067 17.067zM324.233 76.8c0-14.114-11.486-25.6-25.6-25.6s-25.6 11.486-25.6 25.6 11.486 25.6 25.6 25.6 25.6-11.486 25.6-25.6zm-25.6 8.533c-4.71 0-8.533-3.831-8.533-8.533s3.823-8.533 8.533-8.533c4.71 0 8.533 3.831 8.533 8.533s-3.823 8.533-8.533 8.533z"/></svg>