<svg xmlns="http://www.w3.org/2000/svg" viewBox="0 0 512.011 512.011"><path d="M365.293 476.273a103.367 103.367 0 0 0 18.961 1.749c6.11 0 12.237-.538 18.21-1.613 4.642-.828 7.723-5.265 6.895-9.899-.836-4.642-5.248-7.74-9.907-6.895-10.189 1.818-20.89 1.783-31.01-.119-4.676-.853-9.096 2.185-9.967 6.81-.862 4.634 2.185 9.097 6.818 9.967zm61.585-13.67a8.533 8.533 0 0 0 4.668-1.391c17.903-11.716 31.505-28.399 39.322-48.256 1.724-4.378-.435-9.335-4.821-11.068-4.386-1.732-9.336.435-11.068 4.821-6.511 16.538-17.843 30.447-32.777 40.218-3.942 2.586-5.052 7.876-2.466 11.819a8.509 8.509 0 0 0 7.142 3.857zm-.281-112.581c0-14.114-11.477-25.6-25.6-25.6-14.114 0-25.6 11.486-25.6 25.6 0 14.123 11.486 25.6 25.6 25.6 14.123 0 25.6-11.477 25.6-25.6zm-25.6 8.534c-4.702 0-8.533-3.823-8.533-8.533 0-4.702 3.831-8.533 8.533-8.533 4.71 0 8.533 3.831 8.533 8.533a8.536 8.536 0 0 1-8.533 8.533zm-68.113-119.621a8.473 8.473 0 0 0 5.547-2.057c3.584-3.063 3.994-8.448.93-12.032l-26.266-30.66c-3.063-3.584-8.456-4.002-12.032-.93-3.575 3.063-3.994 8.448-.93 12.023l26.274 30.669a8.5 8.5 0 0 0 6.477 2.987z"/><path d="M256.084 375.494c.043 16.009 3.132 31.471 9.165 45.935a8.531 8.531 0 0 0 11.161 4.591c4.352-1.818 6.409-6.818 4.591-11.162-5.171-12.39-7.817-25.651-7.851-39.415-.094-38.016 15.198-51.772 32.896-67.703 8.115-7.305 16.521-14.857 24.021-25.045 7.091-9.626 30.191-9.626 45.483-9.626 4.301 0 8.764 2.56 14.404 5.794 8.866 5.094 19.891 11.426 36.642 11.426a8.53 8.53 0 0 0 8.533-8.533 8.536 8.536 0 0 0-8.533-8.533c-12.194 0-20.301-4.651-28.143-9.156-6.912-3.968-14.054-8.064-22.904-8.064-19.84 0-47.01 0-59.221 16.572-6.468 8.781-14.217 15.744-21.7 22.477-19.003 17.108-38.664 34.789-38.544 80.442zm22.024-196.616a8.513 8.513 0 0 0 6.579 3.089c1.92 0 3.849-.64 5.444-1.963 3.627-3.012 4.13-8.388 1.118-12.015l-27.264-32.905c-3.004-3.627-8.388-4.13-12.015-1.118-3.627 3.004-4.13 8.38-1.126 12.015l27.264 32.897z"/><path d="M319.93 384.156c-7.057 0-12.8 5.743-12.8 12.8 0 7.066 5.743 12.8 12.8 12.8s12.8-5.734 12.8-12.8c0-7.057-5.743-12.8-12.8-12.8zm19.806-47.898a85.928 85.928 0 0 1 9.796-11.708 85.813 85.813 0 0 1 12.22-10.146c3.891-2.662 4.881-7.979 2.219-11.861-2.645-3.883-7.962-4.881-11.853-2.227a103.703 103.703 0 0 0-14.652 12.16 104.243 104.243 0 0 0-11.733 14.012 8.54 8.54 0 0 0 2.116 11.887 8.555 8.555 0 0 0 11.887-2.117zM204.884 213.327a8.475 8.475 0 0 0 6.033-2.5c3.328-3.328 3.328-8.73 0-12.066l-34.116-34.108c-3.337-3.337-8.738-3.337-12.066 0a8.523 8.523 0 0 0 0 12.066l34.116 34.108a8.475 8.475 0 0 0 6.033 2.5zm153.6 200.542c0 7.057 5.743 12.8 12.8 12.8s12.8-5.743 12.8-12.8-5.743-12.8-12.8-12.8-12.8 5.743-12.8 12.8zM81.202 194.562c-3.601-3.046-8.986-2.611-12.023.981-3.046 3.601-2.611 8.986.981 12.032l36.002 30.532a8.517 8.517 0 0 0 5.513 2.022 8.53 8.53 0 0 0 6.519-3.012 8.531 8.531 0 0 0-.99-12.023l-36.002-30.532zM28.201 40.186a8.51 8.51 0 0 0 6.033 2.5 8.522 8.522 0 0 0 6.033-2.5c3.328-3.337 3.328-8.738 0-12.066L14.65 2.502c-3.337-3.337-8.738-3.337-12.066 0-3.336 3.328-3.336 8.73 0 12.066l25.617 25.618zm51.166 51.165a8.51 8.51 0 0 0 6.033 2.5 8.509 8.509 0 0 0 6.033-2.5c3.336-3.337 3.336-8.738 0-12.066L65.85 53.702c-3.337-3.336-8.738-3.336-12.066 0-3.337 3.328-3.337 8.73 0 12.066l25.583 25.583z"/><path d="M507.416 369.308c-2.065-8.252-4.019-16.051-4.019-27.819 0-31.804-12.356-46.839-22.298-58.923-1.69-2.057-3.337-4.053-4.855-6.084L271.444 3.415a8.534 8.534 0 0 0-11.947-1.707 8.527 8.527 0 0 0-1.707 11.947l204.8 273.058c1.664 2.236 3.473 4.429 5.333 6.69 9.045 11.008 18.406 22.4 18.406 48.085 0 13.875 2.304 23.066 4.531 31.966 2.065 8.209 4.002 15.966 4.002 27.614 0 9.463-1.741 13.858-3.755 18.953-2.236 5.649-4.779 12.058-4.779 23.868 0 19.746-23.808 31.949-44.826 42.718l-1.732.896c-14.652 7.509-41.267 7.415-60.484 7.432h-3.738c-7.646 0-15.309-4.173-23.415-8.585-5.316-2.893-10.803-5.888-16.657-7.876-6.588-2.227-13.039-3.669-19.268-5.052-11.332-2.526-21.12-4.702-29.406-10.914l-273.067-204.8c-3.78-2.842-9.122-2.057-11.947 1.707a8.527 8.527 0 0 0 1.707 11.947l273.067 204.8c11.23 8.414 23.791 11.213 35.942 13.918 5.786 1.289 11.776 2.628 17.485 4.557 4.463 1.519 9.088 4.036 13.986 6.699 9.173 5.001 19.584 10.667 31.573 10.667h3.712c1.391.009 2.807.009 4.232.009 21.461 0 46.882-.512 64.068-9.327l1.724-.887c24.115-12.348 54.11-27.725 54.11-57.907 0-8.559 1.579-12.535 3.575-17.587 2.33-5.862 4.958-12.51 4.958-25.233.003-13.758-2.292-22.914-4.511-31.763zM3.096 151.571l37.734 32a8.484 8.484 0 0 0 5.513 2.031 8.503 8.503 0 0 0 6.511-3.012 8.534 8.534 0 0 0-.981-12.032l-37.734-32c-3.61-3.046-8.986-2.603-12.032.99s-2.604 8.977.989 12.023z"/><path d="M147.489 250.362a8.521 8.521 0 0 0-12.041.845c-3.089 3.558-2.714 8.943.845 12.032l31.394 27.281a8.538 8.538 0 0 0 12.04-.844c3.089-3.558 2.705-8.951-.853-12.041l-31.385-27.273zm46.191 62.805l31.334 26.18a8.456 8.456 0 0 0 5.461 1.988 8.537 8.537 0 0 0 5.479-15.086l-31.334-26.18c-3.61-3.029-8.994-2.534-12.023 1.075-3.022 3.618-2.536 9.002 1.083 12.023zm70.937-40.098a8.509 8.509 0 0 0 6.033-2.5c3.328-3.336 3.328-8.738 0-12.066l-34.125-34.125c-3.336-3.337-8.738-3.337-12.066 0-3.337 3.328-3.337 8.73 0 12.066l34.125 34.125a8.51 8.51 0 0 0 6.033 2.5zm-93.67-220.826a8.524 8.524 0 0 0 6.519 3.021 8.51 8.51 0 0 0 5.513-2.014c3.593-3.046 4.045-8.431 1.007-12.032L151.67 3.023a8.544 8.544 0 0 0-12.032-1.007c-3.601 3.046-4.045 8.431-1.007 12.032l32.316 38.195zm54.767 64.7a8.488 8.488 0 0 0 6.536 3.046 8.488 8.488 0 0 0 5.487-1.997c3.61-3.029 4.079-8.405 1.05-12.023l-30.43-36.258c-3.029-3.601-8.414-4.07-12.032-1.05-3.601 3.038-4.079 8.414-1.05 12.023l30.439 36.259zm-86.605 34.15a8.51 8.51 0 0 0 6.033 2.5 8.509 8.509 0 0 0 6.033-2.5c3.337-3.337 3.337-8.738 0-12.066l-34.125-34.125c-3.337-3.337-8.738-3.337-12.066 0-3.337 3.328-3.337 8.73 0 12.066l34.125 34.125z"/></svg>