<svg xmlns="http://www.w3.org/2000/svg" viewBox="0 0 512 512"><path d="M46.677 110.199a8.63 8.63 0 0 0 3.038-.555c4.403-1.69 6.613-6.613 4.932-11.017-5.291-13.867-7.97-27.204-7.97-39.629 0-12.425 2.68-25.762 7.97-39.629 1.681-4.403-.529-9.327-4.932-11.017-4.369-1.655-9.335.521-11.017 4.941-6.033 15.812-9.088 31.189-9.088 45.705s3.055 29.892 9.088 45.705a8.537 8.537 0 0 0 7.979 5.496zM35.029 404.147c2.125 4.215 7.245 5.931 11.452 3.823 4.215-2.116 5.931-7.236 3.823-11.452l-31.991-63.991 80.29-128.461h314.795l80.29 128.461-31.991 63.991c-2.108 4.215-.393 9.335 3.823 11.452a8.554 8.554 0 0 0 3.806.896 8.54 8.54 0 0 0 7.646-4.719l34.133-68.267a8.562 8.562 0 0 0-.401-8.337L425.37 191.01a8.541 8.541 0 0 0-7.236-4.011H93.867a8.54 8.54 0 0 0-7.236 4.011L1.297 327.543a8.562 8.562 0 0 0-.401 8.337l34.133 68.267zM307.2 135.689V161.4c0 4.71 3.814 8.533 8.533 8.533s8.533-3.823 8.533-8.533v-25.702c9.907-3.541 17.067-12.919 17.067-24.03 0-3.942-.964-7.629-2.569-10.965l51.337-51.337c3.328 1.604 7.023 2.569 10.965 2.569s7.637-.964 10.965-2.569l40.286 40.286c-15.07 6.588-25.651 21.606-25.651 39.083 0 11.401 4.446 22.118 12.501 30.174 3.328 3.319 8.738 3.328 12.075-.009a8.543 8.543 0 0 0-.008-12.075c-4.838-4.821-7.501-11.247-7.501-18.091 0-14.114 11.486-25.6 25.6-25.6s25.6 11.486 25.6 25.6c0 6.844-2.662 13.269-7.501 18.091a8.542 8.542 0 0 0-.009 12.075 8.53 8.53 0 0 0 6.042 2.5 8.534 8.534 0 0 0 6.033-2.492c8.055-8.055 12.501-18.773 12.501-30.174 0-22.178-17.075-40.252-38.733-42.274l-49.169-49.161c1.604-3.336 2.569-7.023 2.569-10.965 0-14.114-11.486-25.6-25.6-25.6s-25.6 11.486-25.6 25.6c0 3.942.964 7.629 2.569 10.965l-51.337 51.337c-3.328-1.604-7.023-2.569-10.965-2.569-14.114 0-25.6 11.486-25.6 25.6 0 11.111 7.16 20.489 17.067 24.022zm93.867-117.888c4.71 0 8.533 3.831 8.533 8.533 0 2.261-.922 4.301-2.364 5.837-.06.051-.145.068-.205.128s-.077.137-.128.196c-1.527 1.451-3.567 2.372-5.837 2.372-2.039 0-3.84-.819-5.308-2.014-.188-.23-.264-.512-.486-.725-.213-.222-.495-.299-.725-.486-1.195-1.468-2.014-3.268-2.014-5.308 0-4.702 3.823-8.533 8.534-8.533zm-85.334 85.333c4.71 0 8.533 3.831 8.533 8.533s-3.823 8.533-8.533 8.533-8.533-3.831-8.533-8.533 3.823-8.533 8.533-8.533z"/><path d="M42.667 332.066a8.53 8.53 0 0 0 8.533 8.533h409.6c4.719 0 8.533-3.823 8.533-8.533s-3.814-8.533-8.533-8.533H51.2a8.53 8.53 0 0 0-8.533 8.533zM76.8 91.819a8.43 8.43 0 0 0 3.038-.563c4.412-1.681 6.613-6.613 4.941-11.017-2.637-6.886-3.968-14.037-3.968-21.239s1.331-14.353 3.968-21.24c1.672-4.403-.529-9.335-4.941-11.017-4.361-1.664-9.327.521-11.017 4.932-3.371 8.841-5.077 18.031-5.077 27.324 0 9.293 1.707 18.483 5.077 27.324a8.555 8.555 0 0 0 7.979 5.496zm99.371-.564a8.413 8.413 0 0 0 3.029.563 8.542 8.542 0 0 0 7.979-5.504c3.371-8.858 5.077-18.048 5.077-27.315 0-9.267-1.707-18.458-5.077-27.315a8.528 8.528 0 0 0-11.008-4.941c-4.412 1.673-6.622 6.605-4.949 11.008 2.637 6.912 3.968 14.063 3.968 21.248s-1.331 14.336-3.968 21.248c-1.673 4.404.537 9.336 4.949 11.008zm-56.704 206.678v-25.6h42.667c4.719 0 8.533-3.823 8.533-8.533s-3.814-8.533-8.533-8.533h-51.2a8.53 8.53 0 0 0-8.533 8.533v34.133c0 4.71 3.814 8.533 8.533 8.533s8.533-3.823 8.533-8.533zm86.826-188.288a8.547 8.547 0 0 0 11.008-4.94c6.033-15.838 9.088-31.224 9.088-45.705 0-14.481-3.055-29.867-9.088-45.705-1.673-4.403-6.63-6.605-11.008-4.941-4.412 1.681-6.622 6.613-4.941 11.017 5.291 13.892 7.97 27.23 7.97 39.629s-2.68 25.737-7.97 39.629c-1.68 4.402.53 9.335 4.941 11.016zm-86.826-26.624V161.4c0 4.71 3.814 8.533 8.533 8.533s8.533-3.823 8.533-8.533V83.03C146.44 79.489 153.6 70.111 153.6 59c0-14.114-11.486-25.6-25.6-25.6S102.4 44.886 102.4 59c0 11.11 7.159 20.488 17.067 24.021zM128 50.466c4.71 0 8.533 3.831 8.533 8.533s-3.823 8.533-8.533 8.533-8.533-3.831-8.533-8.533c0-4.701 3.823-8.533 8.533-8.533zm128.256 358.4h-.085c-4.71 0-8.491 3.823-8.491 8.533 0 4.71 3.866 8.533 8.576 8.533a8.536 8.536 0 0 0 8.533-8.533 8.536 8.536 0 0 0-8.533-8.533zm8.277 85.333H179.2c-4.719 0-8.533 3.823-8.533 8.533s3.814 8.533 8.533 8.533h85.333c4.719 0 8.533-3.823 8.533-8.533s-3.814-8.533-8.533-8.533zm68.267 0h-17.067c-4.719 0-8.533 3.823-8.533 8.533s3.814 8.533 8.533 8.533H332.8c4.719 0 8.533-3.823 8.533-8.533s-3.814-8.533-8.533-8.533z"/><path d="M315.75 417.374c-.034-8.286-6.153-12.51-10.829-14.95a50.547 50.547 0 0 0-3.729-8.96c1.638-4.975 3.089-12.279-2.953-18.313-4.702-4.685-12.211-4.89-18.287-2.927a49.987 49.987 0 0 0-8.934-3.729c-2.364-4.685-6.502-10.837-15.036-10.837-8.26.017-12.484 6.11-14.942 10.812a50.953 50.953 0 0 0-8.969 3.738c-2.253-.759-4.83-1.425-7.603-1.425-4.139 0-7.834 1.51-10.692 4.369-5.897 5.871-4.531 13.227-2.935 18.261a50.115 50.115 0 0 0-3.746 8.977c-4.668 2.355-10.829 6.494-10.829 15.01 0 8.269 6.11 12.501 10.812 14.959a50.081 50.081 0 0 0 3.738 8.977c-1.638 4.966-3.081 12.262 2.953 18.295 4.693 4.702 12.151 4.915 18.261 2.935a50.2 50.2 0 0 0 8.96 3.746c2.364 4.651 6.494 10.82 15.01 10.82 8.277 0 12.501-6.093 14.959-10.803a50.55 50.55 0 0 0 8.986-3.746c2.261.76 4.838 1.434 7.603 1.434 4.139 0 7.825-1.502 10.735-4.395 5.837-5.897 4.471-13.227 2.884-18.261a49.65 49.65 0 0 0 3.746-8.96c4.659-2.355 10.82-6.494 10.837-15.027zm-20.881.913l-1.015.512a8.55 8.55 0 0 0-4.531 5.837c-.836 3.9-2.406 7.654-4.668 11.162a8.546 8.546 0 0 0-.905 7.313l.64 1.894c.128.35.273.777.418 1.203a70.974 70.974 0 0 1-1.963-.708l-1.118-.367a8.516 8.516 0 0 0-7.313.922c-3.499 2.253-7.253 3.823-11.179 4.668a8.58 8.58 0 0 0-5.837 4.531l-.503.998c-.017.043-.358.751-.375.794-.154.324-.341.7-.529 1.092-.29-.606-.597-1.263-.887-1.886l-.503-.998a8.573 8.573 0 0 0-5.837-4.531c-3.917-.845-7.671-2.415-11.17-4.668a8.543 8.543 0 0 0-4.617-1.357c-.913 0-1.826.145-2.714.435l-1.109.375c-.034.009-.768.273-.811.29-.35.12-.742.256-1.152.401.222-.649.478-1.34.717-1.997l.367-1.109a8.546 8.546 0 0 0-.93-7.287c-2.244-3.49-3.823-7.253-4.668-11.187a8.568 8.568 0 0 0-4.531-5.82l-1.766-.87a56.092 56.092 0 0 1-1.109-.538c.606-.299 1.254-.597 1.877-.888l.998-.503a8.562 8.562 0 0 0 4.531-5.82c.845-3.934 2.423-7.706 4.668-11.187a8.536 8.536 0 0 0 .93-7.279l-.367-1.118c-.017-.06-.273-.785-.299-.845-.119-.341-.256-.751-.401-1.169.614.213 1.28.461 1.946.7l1.109.375a8.605 8.605 0 0 0 7.347-.913c3.482-2.253 7.236-3.823 11.153-4.668a8.554 8.554 0 0 0 5.845-4.548l.853-1.741c.162-.333.35-.734.555-1.135.29.614.597 1.271.887 1.903l.512 1.007a8.531 8.531 0 0 0 5.828 4.514c3.9.845 7.646 2.406 11.145 4.659a8.526 8.526 0 0 0 7.33.922l1.886-.649c.367-.128.785-.273 1.212-.418-.213.64-.469 1.323-.708 1.963l-.375 1.135a8.516 8.516 0 0 0 .922 7.313c2.253 3.482 3.823 7.228 4.659 11.145a8.538 8.538 0 0 0 4.531 5.828l1.758.87c.333.162.742.35 1.143.555-.605.299-1.254.598-1.877.888zm97.92 7.646a8.536 8.536 0 0 0 8.533-8.533 8.536 8.536 0 0 0-8.533-8.533h-.085c-4.71 0-8.491 3.823-8.491 8.533 0 4.71 3.866 8.533 8.576 8.533zm110.678 68.266H366.933c-4.719 0-8.533 3.823-8.533 8.533s3.814 8.533 8.533 8.533h136.533c4.719 0 8.533-3.823 8.533-8.533s-3.813-8.533-8.532-8.533z"/><path d="M368.563 462.566a50.2 50.2 0 0 0 8.96 3.746c2.364 4.651 6.494 10.82 15.01 10.82 8.277 0 12.501-6.093 14.959-10.803a50.55 50.55 0 0 0 8.986-3.746c2.261.76 4.838 1.434 7.603 1.434 4.139 0 7.825-1.502 10.735-4.395 5.837-5.897 4.471-13.227 2.884-18.261a49.65 49.65 0 0 0 3.746-8.96c4.659-2.355 10.82-6.494 10.837-15.027-.034-8.286-6.153-12.51-10.829-14.95a50.547 50.547 0 0 0-3.729-8.96c1.638-4.975 3.089-12.279-2.953-18.313-4.702-4.685-12.203-4.89-18.287-2.927a49.987 49.987 0 0 0-8.934-3.729c-2.364-4.685-6.502-10.837-15.036-10.837-8.26.017-12.484 6.11-14.942 10.812a50.953 50.953 0 0 0-8.969 3.738c-2.253-.759-4.83-1.425-7.603-1.425-4.139 0-7.834 1.51-10.692 4.369-5.897 5.871-4.531 13.227-2.935 18.261a50.188 50.188 0 0 0-3.746 8.977c-4.668 2.355-10.829 6.494-10.829 15.01 0 8.269 6.11 12.501 10.812 14.959a50.081 50.081 0 0 0 3.738 8.977c-1.638 4.966-3.081 12.262 2.953 18.295 4.693 4.702 12.16 4.915 18.261 2.935zm-13.883-43.767l-1.766-.87a56.092 56.092 0 0 1-1.109-.538c.606-.299 1.254-.597 1.877-.888l.998-.503a8.562 8.562 0 0 0 4.531-5.82c.845-3.934 2.423-7.706 4.668-11.187a8.536 8.536 0 0 0 .93-7.279l-.367-1.118c-.017-.06-.273-.785-.299-.845-.119-.341-.256-.751-.401-1.169.614.213 1.28.461 1.946.7l1.109.375a8.605 8.605 0 0 0 7.347-.913c3.482-2.253 7.236-3.823 11.153-4.668a8.554 8.554 0 0 0 5.845-4.548l.853-1.741c.162-.333.35-.734.555-1.135.29.614.597 1.271.887 1.903l.512 1.007a8.531 8.531 0 0 0 5.828 4.514c3.9.845 7.646 2.406 11.145 4.659a8.526 8.526 0 0 0 7.33.922l1.886-.649c.367-.128.785-.273 1.212-.418-.213.64-.469 1.323-.708 1.963l-.375 1.135a8.516 8.516 0 0 0 .922 7.313c2.253 3.482 3.823 7.228 4.659 11.145a8.538 8.538 0 0 0 4.531 5.828l1.758.87c.333.162.742.35 1.143.555-.606.299-1.254.597-1.877.888l-1.016.512a8.55 8.55 0 0 0-4.531 5.837c-.836 3.9-2.406 7.654-4.668 11.162a8.546 8.546 0 0 0-.905 7.313l.64 1.894c.128.35.273.777.418 1.203a70.974 70.974 0 0 1-1.963-.708l-1.118-.367a8.52 8.52 0 0 0-7.313.922c-3.499 2.253-7.253 3.823-11.179 4.668a8.58 8.58 0 0 0-5.837 4.531l-.504.998c-.017.043-.358.751-.375.794-.154.324-.341.7-.529 1.092-.29-.606-.597-1.263-.888-1.886l-.503-.998a8.57 8.57 0 0 0-5.837-4.531c-3.917-.845-7.672-2.415-11.17-4.668a8.543 8.543 0 0 0-4.617-1.357c-.913 0-1.826.145-2.714.435l-1.109.375c-.034.009-.768.273-.811.29-.35.12-.742.256-1.152.401.222-.649.478-1.34.717-1.997l.367-1.109a8.546 8.546 0 0 0-.93-7.287c-2.244-3.49-3.823-7.253-4.668-11.187a8.553 8.553 0 0 0-4.528-5.82zM204.8 297.933v-25.6h42.667c4.719 0 8.533-3.823 8.533-8.533s-3.814-8.533-8.533-8.533h-51.2a8.53 8.53 0 0 0-8.533 8.533v34.133c0 4.71 3.814 8.533 8.533 8.533s8.533-3.823 8.533-8.533zm-25.583 119.441c-.034-8.286-6.153-12.51-10.829-14.95a50.547 50.547 0 0 0-3.729-8.96c1.638-4.975 3.089-12.279-2.953-18.313-4.693-4.685-12.211-4.89-18.287-2.927a49.987 49.987 0 0 0-8.934-3.729c-2.364-4.685-6.502-10.837-15.036-10.837-8.26.017-12.484 6.11-14.942 10.812a50.953 50.953 0 0 0-8.969 3.738c-2.253-.759-4.83-1.425-7.603-1.425-4.139 0-7.834 1.51-10.692 4.369-5.896 5.871-4.531 13.227-2.935 18.261a50.115 50.115 0 0 0-3.746 8.977c-4.668 2.355-10.829 6.494-10.829 15.01 0 8.269 6.11 12.501 10.812 14.959a50.081 50.081 0 0 0 3.738 8.977c-1.638 4.966-3.081 12.262 2.953 18.295 4.693 4.702 12.151 4.915 18.261 2.935a50.2 50.2 0 0 0 8.96 3.746c2.364 4.651 6.494 10.82 15.01 10.82 8.277 0 12.501-6.093 14.959-10.803a50.55 50.55 0 0 0 8.986-3.746c2.261.76 4.838 1.434 7.603 1.434 4.139 0 7.825-1.502 10.735-4.395 5.837-5.897 4.471-13.227 2.884-18.261a49.65 49.65 0 0 0 3.746-8.96c4.659-2.355 10.82-6.494 10.837-15.027zm-20.881.913l-1.015.512a8.55 8.55 0 0 0-4.531 5.837c-.836 3.9-2.406 7.654-4.668 11.162a8.542 8.542 0 0 0-.904 7.313l.64 1.894c.128.35.273.777.418 1.203a70.974 70.974 0 0 1-1.963-.708l-1.118-.367a8.516 8.516 0 0 0-7.313.922c-3.499 2.253-7.253 3.823-11.179 4.668a8.58 8.58 0 0 0-5.837 4.531l-.503.998c-.017.043-.358.751-.375.794-.154.324-.341.7-.529 1.092-.29-.606-.597-1.263-.887-1.886l-.503-.998a8.573 8.573 0 0 0-5.837-4.531c-3.917-.845-7.671-2.415-11.17-4.668a8.543 8.543 0 0 0-4.617-1.357c-.913 0-1.826.145-2.714.435l-1.109.375c-.034.009-.768.273-.811.29-.35.12-.742.256-1.152.401.222-.649.478-1.34.717-1.997l.367-1.109a8.546 8.546 0 0 0-.93-7.287c-2.244-3.49-3.823-7.253-4.668-11.187a8.568 8.568 0 0 0-4.531-5.82l-1.766-.87a56.092 56.092 0 0 1-1.109-.538c.606-.299 1.254-.597 1.877-.888l.997-.503a8.562 8.562 0 0 0 4.531-5.82c.845-3.934 2.423-7.706 4.668-11.187a8.536 8.536 0 0 0 .93-7.279l-.367-1.118c-.017-.06-.273-.785-.299-.845-.12-.341-.256-.751-.401-1.169.614.213 1.28.461 1.946.7l1.109.375a8.605 8.605 0 0 0 7.347-.913c3.482-2.253 7.236-3.823 11.153-4.668a8.554 8.554 0 0 0 5.845-4.548l.862-1.741c.154-.333.341-.734.546-1.135.29.614.597 1.271.887 1.903l.512 1.007a8.531 8.531 0 0 0 5.828 4.514c3.9.845 7.646 2.406 11.145 4.659a8.525 8.525 0 0 0 7.33.922l1.886-.649c.367-.128.785-.273 1.212-.418-.213.64-.469 1.323-.708 1.963l-.375 1.135a8.516 8.516 0 0 0 .922 7.313c2.253 3.482 3.823 7.228 4.659 11.145a8.538 8.538 0 0 0 4.531 5.828l1.758.87c.333.162.742.35 1.143.555-.606.299-1.254.598-1.877.888zm131.797-120.354v-25.6H332.8c4.719 0 8.533-3.823 8.533-8.533s-3.814-8.533-8.533-8.533h-51.2a8.53 8.53 0 0 0-8.533 8.533v34.133a8.53 8.53 0 0 0 8.533 8.533 8.53 8.53 0 0 0 8.533-8.533zm85.334 0v-25.6h42.667c4.719 0 8.533-3.823 8.533-8.533s-3.814-8.533-8.533-8.533h-51.2a8.53 8.53 0 0 0-8.533 8.533v34.133c0 4.71 3.814 8.533 8.533 8.533s8.533-3.823 8.533-8.533z"/><path d="M119.723 408.866h-.085c-4.71 0-8.491 3.823-8.491 8.533 0 4.71 3.866 8.533 8.576 8.533s8.533-3.823 8.533-8.533a8.536 8.536 0 0 0-8.533-8.533zM128 494.199H8.533c-4.719 0-8.533 3.823-8.533 8.533s3.814 8.533 8.533 8.533H128c4.719 0 8.533-3.823 8.533-8.533s-3.814-8.533-8.533-8.533z"/></svg>