<svg xmlns="http://www.w3.org/2000/svg" viewBox="0 0 512.043 512.043"><path d="M8.576 136.555h-.085c-4.71 0-8.491 3.823-8.491 8.533 0 4.71 3.866 8.533 8.576 8.533s8.533-3.823 8.533-8.533a8.536 8.536 0 0 0-8.533-8.533zm102.4-119.467c4.71 0 8.533-3.823 8.533-8.533S115.686.022 110.976.022h-.085c-4.71 0-8.491 3.823-8.491 8.533s3.866 8.533 8.576 8.533zm392.533 153.6h-.085c-4.71 0-8.491 3.823-8.491 8.533s3.866 8.533 8.576 8.533 8.533-3.823 8.533-8.533-3.822-8.533-8.533-8.533zm-173.235-37.436c-14.404-9.438-30.583-16.29-47.898-19.703-4.625-.939-9.105 2.091-10.027 6.724-.904 4.617 2.099 9.105 6.724 10.018 44.092 8.704 80.196 42.359 92.006 85.76a8.537 8.537 0 0 0 8.226 6.298c.742 0 1.493-.102 2.244-.299 4.548-1.237 7.236-5.931 5.99-10.479-2.662-9.788-6.434-19.123-11.128-27.913l33.826-33.826a16.936 16.936 0 0 0 12.066 5.001c4.557 0 8.841-1.775 12.066-5.001l24.132-24.132h.009c3.319 3.328 7.697 4.992 12.066 4.992s8.738-1.664 12.066-4.992l24.149-24.141c6.639-6.656 6.639-17.476-.009-24.132L434.381 5.022c-6.673-6.665-17.493-6.647-24.141 0l-24.141 24.141c-6.648 6.647-6.648 17.468 0 24.132l-24.132 24.132c-6.656 6.656-6.656 17.485 0 24.132l-31.693 31.693zm67.9-67.891l30.165 30.165c3.328 3.337 8.73 3.337 12.066 0 3.328-3.328 3.328-8.73 0-12.066l-36.198-36.198-6.033-6.033 24.132-24.141 72.414 72.405-24.141 24.132-6.042-6.033a8.66 8.66 0 0 0-2.824-1.869 8.52 8.52 0 0 0-9.242 1.869l-30.165 30.174-42.24-42.24-6.033-6.033 24.141-24.132zm-24.141 48.265l24.141 24.141-30.95 30.959c-6.639-9.336-14.456-17.749-23.142-25.148l29.951-29.952z"/><path d="M16.853 273.088c0 9.412 7.654 17.067 17.067 17.067v179.2a8.53 8.53 0 0 0 8.533 8.533 8.53 8.53 0 0 0 8.533-8.533v-179.2h375.467c4.719 0 8.533-3.823 8.533-8.533s-3.814-8.533-8.533-8.533H33.92v-17.067h8.533a8.53 8.53 0 0 0 8.533-8.533c0-110.054 89.958-196.267 204.8-196.267 30.49 0 55.791 2.176 80.154 12.8 4.335 1.903 9.353-.094 11.23-4.412 1.886-4.318-.094-9.344-4.42-11.23-28.646-12.501-58.726-14.225-86.963-14.225-121.429 0-217.131 89.284-221.653 204.8h-.214c-9.412 0-17.067 7.654-17.067 17.067v17.066zM33.92 51.221a8.53 8.53 0 0 0 8.533 8.533 8.53 8.53 0 0 0 8.533-8.533 8.53 8.53 0 0 0 8.533-8.533 8.53 8.53 0 0 0-8.533-8.533 8.53 8.53 0 0 0-8.533-8.533 8.53 8.53 0 0 0-8.533 8.533 8.53 8.53 0 0 0-8.533 8.533 8.53 8.53 0 0 0 8.533 8.533z"/><path d="M213.12 477.888a8.53 8.53 0 0 0 8.533-8.533v-76.8c0-28.237-22.963-51.2-51.2-51.2-28.237 0-51.2 22.963-51.2 51.2v76.8a8.53 8.53 0 0 0 8.533 8.533 8.53 8.53 0 0 0 8.533-8.533v-76.8c0-18.825 15.309-34.133 34.133-34.133s34.133 15.309 34.133 34.133v76.8a8.534 8.534 0 0 0 8.535 8.533zm59.733-110.933c0 14.114 11.486 25.6 25.6 25.6s25.6-11.486 25.6-25.6-11.486-25.6-25.6-25.6-25.6 11.486-25.6 25.6zm34.134 0c0 4.702-3.823 8.533-8.533 8.533s-8.533-3.831-8.533-8.533 3.823-8.533 8.533-8.533 8.533 3.831 8.533 8.533z"/><path d="M477.653 238.955h-.393c-.922-24.585-5.641-48.614-14.481-71.475-1.698-4.403-6.673-6.579-11.034-4.881a8.518 8.518 0 0 0-4.881 11.034c8.081 20.898 12.416 42.854 13.329 65.323H76.587c-4.719 0-8.533 3.823-8.533 8.533s3.814 8.533 8.533 8.533h401.067v17.067h-8.533a8.53 8.53 0 0 0-8.533 8.533v187.733a8.53 8.53 0 0 0 8.533 8.533 8.53 8.53 0 0 0 8.533-8.533v-179.2c9.412 0 17.067-7.654 17.067-17.067v-17.067c-.001-9.412-7.655-17.066-17.068-17.066z"/><path d="M358.187 366.955c0 14.114 11.486 25.6 25.6 25.6s25.6-11.486 25.6-25.6-11.486-25.6-25.6-25.6-25.6 11.486-25.6 25.6zm34.133 0c0 4.702-3.823 8.533-8.533 8.533s-8.533-3.831-8.533-8.533 3.823-8.533 8.533-8.533 8.533 3.831 8.533 8.533zm93.867 128h-460.8c-4.719 0-8.533 3.823-8.533 8.533s3.814 8.533 8.533 8.533h460.8c4.719 0 8.533-3.823 8.533-8.533s-3.814-8.533-8.533-8.533z"/></svg>