<svg xmlns="http://www.w3.org/2000/svg" viewBox="0 0 512 512"><path d="M13.739 204.553a8.536 8.536 0 0 0 10.342-6.229C50.526 91.597 145.894 17.067 256 17.067c17.289 0 34.466 1.843 51.191 5.495-.759 14.362 5.291 23.962 9.515 30.66 1.186 1.886 2.816 4.463 2.978 5.171 0 35.251-7.125 42.667-8.533 42.667-15.351 0-41.566 14.319-51.081 32.094-5.82 10.872-5.35 22.374 1.314 32.375 4.813 7.219 8.943 15.215 12.928 22.938 8.218 15.915 17.34 33.579 31.351 33.579 2.884 0 5.973-.751 9.31-2.415 11.136-5.572 19.302-21.76 27.196-37.427 3.763-7.458 9.336-18.509 12.493-21.325 11.196 1.101 16.35 10.547 23.347 25.711 4.787 10.368 9.737 21.094 19.243 25.848 16.435 8.226 70.835-.538 100.992-13.338.35-.154.589-.444.913-.631.503-.299.981-.58 1.408-.964.41-.367.725-.777 1.05-1.22.333-.435.64-.862.879-1.348.247-.495.384-.998.521-1.527.145-.529.273-1.041.307-1.587.043-.572-.034-1.118-.111-1.698-.043-.375.034-.734-.068-1.109-20.659-76.399-76.8-139.955-150.17-170.001-4.36-1.792-9.344.299-11.127 4.659-1.783 4.361.299 9.344 4.659 11.128 66.116 27.085 117.146 83.345 137.95 151.364-31.787 11.554-72.149 14.72-79.573 10.999-4.147-2.074-7.825-10.027-11.375-17.724-6.758-14.635-16.009-34.671-39.305-35.703-11.622-.427-18.108 12.621-27.264 30.788-5.709 11.307-13.517 26.803-19.601 29.841-4.412 2.27-11.571-11.563-17.852-23.723-4.011-7.765-8.559-16.572-13.901-24.576-3.183-4.779-3.336-9.506-.469-14.865 7.134-13.329 27.93-23.074 36.036-23.074 16.99 0 25.6-20.096 25.6-59.733 0-5.367-2.722-9.685-5.606-14.268-4.335-6.878-8.823-13.995-6.135-26.274.99-4.506-1.784-8.969-6.246-10.103C298.368 2.611 277.257 0 256 0 138.035 0 35.857 79.863 7.509 194.21c-1.126 4.574 1.656 9.208 6.23 10.343zm361.378 57.907c-3.132.896-7.031 2.014-8.183 2.074-13.03 0-21.12 9.882-27.622 17.826-2.978 3.644-7.484 9.148-9.711 9.148-.375 0-.905-.162-1.519-.478-4.284-2.142-8.772-3.217-13.355-3.217-11.042 0-20.591 6.502-22.707 15.471-1.468 6.229.742 14.771 11.366 20.087 16.171 8.081 32.896 16.444 40.448 23.996 4.83 4.83 13.278 7.603 23.185 7.603 15.138 0 35.251-7.339 42.146-28.006 2.91-8.73 10.069-15.582 16.384-21.623 7.339-7.023 14.259-13.653 14.362-22.869.06-5.402-2.364-10.598-7.211-15.437-6.69-6.69-15.846-10.086-27.204-10.086-11.077-.002-22.23 3.181-30.379 5.511zm47.727 19.823c-.017 2.039-5.478 7.27-9.097 10.726-7.364 7.049-16.529 15.812-20.779 28.561-4.011 12.041-16.034 16.333-25.95 16.333-6.434 0-10.266-1.749-11.119-2.603-9.515-9.515-26.692-18.108-44.885-27.204-.998-.495-1.647-.964-2.031-1.297 1.374-1.331 6.699-2.884 11.469-.495 3.012 1.502 6.093 2.27 9.148 2.27 10.308-.008 17.007-8.183 22.921-15.411 5.717-6.98 9.813-11.563 14.413-11.563 3.328 0 7.33-1.143 12.877-2.731 7.177-2.048 16.998-4.855 25.685-4.855 6.767 0 11.716 1.664 15.138 5.086 1.826 1.826 2.218 2.918 2.21 3.183zM263.586 401.067c-11.819 0-25.754 13.764-30.874 26.129-3.908 9.429-2.782 18.193 3.072 24.047 5.658 5.658 14.08 8.9 23.1 8.9 9.028 0 17.451-3.243 23.1-8.9 12.996-12.988 2.833-34.833-8.533-46.199-2.603-2.603-6.016-3.977-9.865-3.977zm6.332 38.11c-4.881 4.89-17.178 4.89-22.067 0-.742-.742-.282-3.004.341-4.71 2.705-7.424 10.658-14.626 14.404-16.077 6.562 7.295 10.368 17.749 7.322 20.787z"/><path d="M509.568 220.57c-.64-4.668-5.001-7.919-9.626-7.279-4.659.64-7.927 4.949-7.279 9.626a241.37 241.37 0 0 1 2.27 33.084c0 130.927-105.856 237.594-236.476 238.925-35.814-22.844-69.495-50.884-54.349-86.229 26.027-60.723 1.937-83.217-8.354-92.834a79.205 79.205 0 0 1-1.988-1.894c-2.876-2.876-6.187-4.864-9.105-6.613-7.381-4.429-10.138-6.084-5.896-18.79 2.679-8.03 6.187-11.75 10.257-16.051 9.242-9.779 15.778-18.825 15.778-46.379 0-15.727-7.97-28.262-21.862-34.406-15.906-7.04-37.086-4.591-48.23 5.564-6.801 6.178-9.079 14.566-6.272 23.006 7.347 22.033-8.61 52.497-39.689 75.81-8.986 6.733-12.006 3.268-13.628 1.399-9.395-10.829-8.585-40.508-.819-48.273 6.409-6.4 4.634-12.672 3.567-15.07C70.042 216.422 16 218.377 9.865 218.675c-.367.017-.666.188-1.024.256-.529.094-1.033.196-1.527.384a8.11 8.11 0 0 0-1.562.794 8.398 8.398 0 0 0-1.186.879 8.013 8.013 0 0 0-1.118 1.289c-.307.418-.58.845-.811 1.323-.247.529-.401 1.067-.546 1.638-.077.324-.265.589-.307.93C.529 236.416 0 245.342 0 256c0 118.05 79.932 220.254 194.381 248.533a8.544 8.544 0 0 0 10.334-6.238 8.53 8.53 0 0 0-6.238-10.334C91.665 461.568 17.067 366.182 17.067 256c0-7.33.273-13.773.888-20.471 18.893-.205 34.697 2.21 41.643 4.762-11.895 16.538-11.025 52.659 2.628 68.395 9.429 10.871 23.168 11.264 36.762 1.075 37.547-28.16 55.467-65.391 45.645-94.857-.461-1.391-.725-2.918 1.553-4.983 5.513-5.018 19.456-7.185 29.85-2.586 7.765 3.43 11.699 9.754 11.699 18.799 0 22.895-4.907 28.083-11.119 34.654-4.523 4.796-10.172 10.76-14.046 22.383-8.559 25.694 5.129 33.903 13.303 38.81 2.278 1.374 4.437 2.662 5.828 4.053.708.708 1.519 1.468 2.406 2.304 8.96 8.363 25.617 23.927 4.318 73.634-23.262 54.281 37.205 92.425 63.019 108.715a8.607 8.607 0 0 0 4.557 1.314c141.158 0 256-114.842 256-256a259.365 259.365 0 0 0-2.433-35.431z"/></svg>