<svg xmlns="http://www.w3.org/2000/svg" viewBox="0 0 512.002 512.002"><path d="M247.468 264.535v153.6a8.536 8.536 0 0 0 8.533 8.533 8.536 8.536 0 0 0 8.533-8.533v-153.6a8.536 8.536 0 0 0-8.533-8.533 8.536 8.536 0 0 0-8.533 8.533zm42.666-110.933c0-18.825-15.309-34.133-34.133-34.133s-34.133 15.309-34.133 34.133c0 18.825 15.309 34.133 34.133 34.133s34.133-15.308 34.133-34.133zm-34.133 17.067c-9.412 0-17.067-7.654-17.067-17.067 0-9.412 7.654-17.067 17.067-17.067 9.412 0 17.067 7.654 17.067 17.067 0 9.412-7.655 17.067-17.067 17.067z"/><path d="M179.201 392.535a8.536 8.536 0 0 0 8.533-8.533V145.069c0-.503.461-45.585 29.116-83.524 7.535 2.816 21.171 6.724 39.151 6.724 18.031 0 31.625-3.925 39.117-6.75 28.552 37.845 29.15 83.055 29.15 83.55v238.933c0 4.71 3.823 8.533 8.533 8.533s8.533-3.823 8.533-8.533V145.069c0-2.586-.512-63.787-45.167-108.433L262.034 2.502a8.525 8.525 0 0 0-12.066 0l-34.133 34.133c-44.655 44.646-45.167 105.847-45.167 108.433v238.933a8.536 8.536 0 0 0 8.533 8.534zm76.8-371.933l26.957 26.957c-6.511 1.843-15.718 3.644-26.957 3.644-11.204 0-20.429-1.792-26.965-3.635l26.965-26.966zm-179.2 423.133a8.536 8.536 0 0 0-8.533 8.533v17.067c0 4.71 3.823 8.533 8.533 8.533s8.533-3.823 8.533-8.533v-17.067a8.536 8.536 0 0 0-8.533-8.533zm34.133 0a8.536 8.536 0 0 0-8.533 8.533v51.2a8.536 8.536 0 0 0 8.533 8.533 8.536 8.536 0 0 0 8.533-8.533v-51.2c.001-4.71-3.822-8.533-8.533-8.533zm324.267 0a8.536 8.536 0 0 0-8.533 8.533v17.067c0 4.71 3.823 8.533 8.533 8.533s8.533-3.823 8.533-8.533v-17.067a8.536 8.536 0 0 0-8.533-8.533z"/><path d="M408.961 318.654l-16.427-8.192v-62.993c0-14.114-11.486-25.6-25.6-25.6-4.71 0-8.533 3.823-8.533 8.533s3.823 8.533 8.533 8.533c4.702 0 8.533 3.831 8.533 8.533v68.267a8.541 8.541 0 0 0 4.719 7.637l21.231 10.59c13.73 6.767 42.317 20.847 42.317 32.973v42.667h-93.867c-2.244 0-4.42.904-6.016 2.483-.324.316-32.657 31.65-87.851 31.65s-87.526-31.334-87.834-31.633a8.513 8.513 0 0 0-6.033-2.5H68.268v-42.667c0-12.126 28.587-26.206 42.317-32.973l21.231-10.59a8.542 8.542 0 0 0 4.719-7.637v-68.267c0-4.702 3.831-8.533 8.533-8.533 4.71 0 8.533-3.823 8.533-8.533s-3.823-8.533-8.533-8.533c-14.114 0-25.6 11.486-25.6 25.6v62.993l-16.427 8.192c-20.642 10.172-51.84 25.54-51.84 48.282v51.2a8.536 8.536 0 0 0 8.533 8.533h99.089c9.557 8.32 43.563 34.133 97.178 34.133s87.62-25.813 97.178-34.133h99.089a8.536 8.536 0 0 0 8.533-8.533v-51.2c0-22.742-31.198-38.11-51.84-48.282z"/><path d="M145.068 443.735a8.536 8.536 0 0 0-8.533 8.533v34.133c0 4.71 3.823 8.533 8.533 8.533s8.533-3.823 8.533-8.533v-34.133a8.536 8.536 0 0 0-8.533-8.533zm256 0a8.536 8.536 0 0 0-8.533 8.533v51.2c0 4.71 3.823 8.533 8.533 8.533s8.533-3.823 8.533-8.533v-51.2a8.536 8.536 0 0 0-8.533-8.533zm-34.134 0a8.536 8.536 0 0 0-8.533 8.533v34.133c0 4.71 3.823 8.533 8.533 8.533s8.533-3.823 8.533-8.533v-34.133c.001-4.71-3.822-8.533-8.533-8.533z"/></svg>