<svg xmlns="http://www.w3.org/2000/svg" viewBox="0 0 512.002 512.002"><path d="M298.669 170.669a8.509 8.509 0 0 0 6.033-2.5 8.525 8.525 0 0 0 0-12.066l-51.2-51.2a8.523 8.523 0 0 0-12.066 0 8.525 8.525 0 0 0 0 12.066l51.2 51.2a8.509 8.509 0 0 0 6.033 2.5z"/><path d="M503.469 204.802h-128v-17.067c0-4.83-.794-21.393-11.034-31.633l-102.4-102.4a8.523 8.523 0 0 0-12.066 0l-153.6 153.6a8.523 8.523 0 0 0 0 12.066 8.523 8.523 0 0 0 12.066 0L256.002 71.802l96.367 96.367c3.61 3.61 6.033 11.469 6.033 19.567v17.067h-42.667a8.53 8.53 0 0 0-8.533 8.533 8.53 8.53 0 0 0 8.533 8.533h42.667v25.6c0 9.105-1.971 15.505-6.033 19.567l-36.634 36.634-45.167-45.167a8.525 8.525 0 0 0-12.066 0 8.525 8.525 0 0 0 0 12.066l45.167 45.167-36.634 36.634c-4.446 4.446-13.022 6.033-19.567 6.033h-25.6v-42.667a8.536 8.536 0 0 0-8.533-8.533 8.536 8.536 0 0 0-8.533 8.533v42.667h-17.067c-5.052 0-14.319-.785-19.567-6.033l-99.9-99.9v-44.134L210.835 65.769a8.533 8.533 0 0 0 1.852-9.301 8.547 8.547 0 0 0-7.885-5.265h-51.2a8.526 8.526 0 0 0-6.033 2.5l-40.9 40.9-27.392-27.392c6.417-12.322 4.838-29.295-4.975-39.108l-25.6-25.6a8.525 8.525 0 0 0-12.066 0L2.502 36.636a8.525 8.525 0 0 0 0 12.066l25.6 25.6c5.658 5.658 14.071 8.9 23.1 8.9a34.756 34.756 0 0 0 16.009-3.925l27.392 27.392-40.9 40.9a8.523 8.523 0 0 0 0 12.066 8.523 8.523 0 0 0 12.066 0l46.071-46.063c.333-.256.725-.384 1.041-.691.307-.316.435-.708.691-1.05l43.563-43.563h27.068l-130.5 130.5a8.513 8.513 0 0 0-2.5 6.033v51.2c0 2.261.896 4.437 2.5 6.033l102.4 102.4c9.114 9.122 22.229 11.034 31.633 11.034h17.067v128a8.536 8.536 0 0 0 8.533 8.533 8.536 8.536 0 0 0 8.533-8.533v-128h25.6c6.195 0 21.675-1.075 31.633-11.034l36.634-36.634 130.5 130.5a8.51 8.51 0 0 0 6.033 2.5 8.509 8.509 0 0 0 6.033-2.5 8.523 8.523 0 0 0 0-12.066l-130.5-130.5 36.634-36.634c7.322-7.322 11.034-17.963 11.034-31.633v-25.6h128a8.53 8.53 0 0 0 8.533-8.533 8.532 8.532 0 0 0-8.534-8.532zM62.236 62.236c-4.881 4.881-17.186 4.881-22.067 0L20.602 42.669l22.067-22.067 19.567 19.567c5.154 5.154 5.154 16.913 0 22.067z"/><path d="M116.969 241.436a8.525 8.525 0 0 0-12.066 0 8.523 8.523 0 0 0 0 12.066l51.2 51.2a8.51 8.51 0 0 0 6.033 2.5 8.509 8.509 0 0 0 6.033-2.5 8.525 8.525 0 0 0 0-12.066l-51.2-51.2zm53.7-28.1c0 23.526 19.14 42.667 42.667 42.667 23.526 0 42.667-19.14 42.667-42.667 0-23.526-19.14-42.667-42.667-42.667s-42.667 19.14-42.667 42.667zm68.266 0c0 14.114-11.486 25.6-25.6 25.6s-25.6-11.486-25.6-25.6 11.486-25.6 25.6-25.6c14.115-.001 25.6 11.485 25.6 25.6z"/></svg>