<svg xmlns="http://www.w3.org/2000/svg" viewBox="0 0 512 512"><path d="M195.661 76.194c-3.328 3.328-3.328 8.738 0 12.066 3.336 3.337 8.738 3.337 12.066 0C220.621 75.366 237.773 68.267 256 68.267c18.236 0 35.379 7.1 48.282 19.994 1.664 1.664 3.849 2.5 6.033 2.5s4.361-.836 6.033-2.5c3.328-3.328 3.328-8.738 0-12.066C300.228 60.075 278.793 51.2 256 51.2c-22.784 0-44.22 8.875-60.339 24.994zM256 221.867c54.4 0 92.638-34.56 102.289-92.459a8.552 8.552 0 0 0-1.903-6.921 8.563 8.563 0 0 0-6.519-3.021H162.133a8.541 8.541 0 0 0-6.511 3.021 8.552 8.552 0 0 0-1.903 6.921c9.652 57.899 47.89 92.459 102.281 92.459zm83.405-85.334C328.781 179.499 298.189 204.8 256 204.8c-42.18 0-72.772-25.301-83.405-68.267h166.81z"/><path d="M171.529 52.062C194.091 29.491 224.085 17.067 256 17.067c31.923 0 61.918 12.425 84.48 34.995a8.51 8.51 0 0 0 6.033 2.5 8.509 8.509 0 0 0 6.033-2.5c3.337-3.328 3.337-8.73 0-12.066C326.767 14.208 292.48 0 256 0c-36.471 0-70.758 14.208-96.538 39.996-3.336 3.337-3.336 8.738 0 12.066 3.337 3.336 8.739 3.336 12.067 0zm7.671 221.005H8.533A8.536 8.536 0 0 0 0 281.6v187.733a8.53 8.53 0 0 0 8.533 8.533H179.2a8.525 8.525 0 0 0 8.533-8.533 8.53 8.53 0 0 0-8.533-8.533H17.067V290.133H179.2a8.525 8.525 0 0 0 8.533-8.533 8.53 8.53 0 0 0-8.533-8.533zm103.433-38.69c-3.328 3.328-3.328 8.738.009 12.066 4.83 4.83 7.492 11.255 7.492 18.091v204.8c0 14.123-11.477 25.6-25.6 25.6h-17.067c-14.114 0-25.6-11.477-25.6-25.6v-204.8c0-6.835 2.662-13.261 7.501-18.091 3.337-3.328 3.337-8.738.009-12.066-3.328-3.336-8.73-3.336-12.066-.008-8.064 8.047-12.51 18.765-12.51 30.165v204.8c0 23.526 19.149 42.667 42.667 42.667h17.067c23.526 0 42.667-19.14 42.667-42.667v-204.8c0-11.401-4.437-22.118-12.501-30.165-3.347-3.338-8.74-3.338-12.068.008zm220.834 38.69H332.8a8.536 8.536 0 0 0-8.533 8.533 8.53 8.53 0 0 0 8.533 8.533h162.133V460.8H332.8a8.536 8.536 0 0 0-8.533 8.533 8.53 8.53 0 0 0 8.533 8.533h170.667a8.525 8.525 0 0 0 8.533-8.533V281.6a8.53 8.53 0 0 0-8.533-8.533z"/><path d="M179.2 358.4a8.525 8.525 0 0 0 8.533-8.533 8.53 8.53 0 0 0-8.533-8.533h-25.6v-25.6a8.53 8.53 0 0 0-8.533-8.533 8.536 8.536 0 0 0-8.533 8.533v25.6h-51.2v-25.6a8.53 8.53 0 0 0-8.533-8.533 8.536 8.536 0 0 0-8.533 8.533v25.6h-25.6a8.536 8.536 0 0 0-8.533 8.533 8.53 8.53 0 0 0 8.533 8.533h25.6v34.133h-25.6a8.536 8.536 0 0 0-8.533 8.533 8.53 8.53 0 0 0 8.533 8.533h25.6v25.6a8.53 8.53 0 0 0 8.533 8.533 8.525 8.525 0 0 0 8.533-8.533v-25.6h51.2v25.6a8.53 8.53 0 0 0 8.533 8.533 8.525 8.525 0 0 0 8.533-8.533v-25.6h25.6a8.525 8.525 0 0 0 8.533-8.533 8.53 8.53 0 0 0-8.533-8.533h-25.6V358.4h25.6zm-42.667 34.133h-51.2V358.4h51.2v34.133zm230.4-85.333a8.536 8.536 0 0 0-8.533 8.533v25.6h-25.6a8.536 8.536 0 0 0-8.533 8.533 8.53 8.53 0 0 0 8.533 8.533h25.6v34.133h-25.6a8.536 8.536 0 0 0-8.533 8.533 8.53 8.53 0 0 0 8.533 8.533h25.6v25.6a8.53 8.53 0 0 0 8.533 8.533 8.525 8.525 0 0 0 8.533-8.533v-25.6h51.2v25.6a8.53 8.53 0 0 0 8.533 8.533 8.525 8.525 0 0 0 8.533-8.533v-25.6h25.6a8.525 8.525 0 0 0 8.533-8.533 8.53 8.53 0 0 0-8.533-8.533h-25.6V358.4h25.6a8.525 8.525 0 0 0 8.533-8.533 8.53 8.53 0 0 0-8.533-8.533h-25.6v-25.6a8.53 8.53 0 0 0-8.533-8.533 8.536 8.536 0 0 0-8.533 8.533v25.6h-51.2v-25.6a8.53 8.53 0 0 0-8.533-8.534zm59.734 51.2v34.133h-51.2V358.4h51.2z"/></svg>