<svg xmlns="http://www.w3.org/2000/svg" viewBox="0 0 512.183 512.183"><path d="M392.505 337.198c0-7.057-5.743-12.8-12.8-12.8s-12.8 5.743-12.8 12.8 5.743 12.8 12.8 12.8 12.8-5.743 12.8-12.8zm-102.4 55.466c0-18.825-15.309-34.133-34.133-34.133s-34.133 15.309-34.133 34.133 15.309 34.133 34.133 34.133 34.133-15.308 34.133-34.133zm-51.2 0c0-9.412 7.654-17.067 17.067-17.067 9.412 0 17.067 7.654 17.067 17.067 0 9.412-7.654 17.067-17.067 17.067s-17.067-7.654-17.067-17.067z"/><path d="M468.767 238.143a8.538 8.538 0 0 0-8.158 8.9c3.9 87.834-48.58 168.218-130.586 200.03-82.022 31.812-174.976 7.834-231.322-59.648-3.004-3.618-8.397-4.113-12.015-1.084a8.528 8.528 0 0 0-1.084 12.015c43.059 51.576 105.83 79.684 170.274 79.684 26.923 0 54.136-4.907 80.307-15.061 88.849-34.458 145.707-121.54 141.474-216.695-.203-4.719-4.64-8.269-8.89-8.141zM98.105 273.198c-7.057 0-12.8 5.743-12.8 12.8s5.743 12.8 12.8 12.8 12.8-5.743 12.8-12.8-5.743-12.8-12.8-12.8zm251.733-102.4c-14.114 0-25.6 11.486-25.6 25.6s11.486 25.6 25.6 25.6 25.6-11.486 25.6-25.6-11.486-25.6-25.6-25.6zm0 34.133c-4.71 0-8.533-3.831-8.533-8.533s3.823-8.533 8.533-8.533c4.71 0 8.533 3.831 8.533 8.533.001 4.702-3.822 8.533-8.533 8.533zm-187.733-68.267c-23.526 0-42.667 19.14-42.667 42.667 0 23.526 19.14 42.667 42.667 42.667 23.526 0 42.667-19.14 42.667-42.667 0-23.526-19.141-42.667-42.667-42.667zm0 68.267c-14.114 0-25.6-11.486-25.6-25.6s11.486-25.6 25.6-25.6 25.6 11.486 25.6 25.6-11.486 25.6-25.6 25.6zm115.2-93.867c-7.057 0-12.8 5.743-12.8 12.8s5.743 12.8 12.8 12.8 12.8-5.743 12.8-12.8-5.743-12.8-12.8-12.8z"/><path d="M510.547 157.392c-3.891-10.052-14.08-16.606-30.285-19.482-4.625-.887-9.062 2.261-9.89 6.904s2.27 9.071 6.912 9.89c9.634 1.715 15.804 4.864 17.348 8.858 2.278 5.871-3.516 18.159-24.124 35.942-2.031-7.706-4.489-15.343-7.697-23.603-21.427-55.253-63.087-98.85-117.316-122.769-54.212-23.919-114.5-25.284-169.754-3.849C120.479 70.71 76.883 112.37 52.964 166.599 29.045 220.82 27.68 281.116 49.115 336.361c3.26 8.431 6.656 15.872 10.445 23.066-27.187.879-39.714-4.224-41.984-10.069-1.673-4.301.777-11.358 6.545-18.876 2.876-3.738 2.167-9.097-1.57-11.964-3.746-2.867-9.105-2.15-11.964 1.579-9.711 12.655-12.885 25.233-8.926 35.43 5.436 14.029 22.938 21.069 52.19 21.069 11.827 0 25.583-1.152 41.233-3.456 49.92-7.356 115.823-26.308 185.574-53.367 69.572-26.982 130.978-57.549 172.902-86.059 45.467-30.925 64.632-56.602 56.987-76.322zM443.969 219.6c-40.892 27.802-101.077 57.728-169.481 84.267-68.6 26.607-133.188 45.21-181.888 52.386a346.717 346.717 0 0 1-14.293 1.801c-5.043-8.695-9.25-17.468-13.278-27.861-19.789-50.995-18.526-106.65 3.55-156.706S130.907 84.971 181.902 65.19c51.012-19.78 106.65-18.517 156.706 3.558 50.057 22.076 88.516 62.327 108.288 113.323 3.985 10.249 6.758 19.456 8.883 29.124a355.795 355.795 0 0 1-11.81 8.405z"/><path d="M234.638 239.064c-11.768 0-21.333 9.574-21.333 21.333 0 11.759 9.566 21.333 21.333 21.333 11.767 0 21.333-9.574 21.333-21.333.001-11.758-9.565-21.333-21.333-21.333zm0 25.6c-2.347 0-4.267-1.911-4.267-4.267s1.92-4.267 4.267-4.267c2.347 0 4.267 1.911 4.267 4.267s-1.92 4.267-4.267 4.267z"/></svg>