<svg xmlns="http://www.w3.org/2000/svg" viewBox="0 0 511.837 511.837"><path d="M156.818 96.332a188.85 188.85 0 0 0-28.792 22.067c-3.447 3.209-3.635 8.61-.418 12.066a8.491 8.491 0 0 0 6.238 2.705 8.5 8.5 0 0 0 5.82-2.287 171.063 171.063 0 0 1 26.189-20.07c4.002-2.492 5.214-7.757 2.722-11.759-2.483-3.993-7.749-5.222-11.759-2.722zm67.592-25.608a186.064 186.064 0 0 0-35.046 9.489c-4.412 1.672-6.63 6.605-4.949 11.008a8.522 8.522 0 0 0 10.999 4.958 168.9 168.9 0 0 1 31.829-8.627c4.651-.794 7.782-5.188 7.006-9.839-.793-4.642-5.231-7.817-9.839-6.989zm-74.316-30.183a8.56 8.56 0 0 0 3.644-.819 237.197 237.197 0 0 1 29.969-11.768 8.524 8.524 0 0 0 5.564-10.709c-1.417-4.48-6.212-6.972-10.701-5.564a253.211 253.211 0 0 0-32.128 12.612c-4.258 2.022-6.084 7.108-4.07 11.366a8.529 8.529 0 0 0 7.722 4.882zm-55.8 36.284c1.98 0 3.959-.683 5.572-2.065a239.732 239.732 0 0 1 25.754-19.337c3.951-2.577 5.069-7.859 2.492-11.81-2.568-3.951-7.842-5.069-11.81-2.5a258.604 258.604 0 0 0-27.571 20.71c-3.576 3.072-3.977 8.465-.905 12.041a8.555 8.555 0 0 0 6.468 2.961zm-48.896 48.333a8.54 8.54 0 0 0 4.745 1.442c2.756 0 5.444-1.314 7.091-3.772a243.621 243.621 0 0 1 19.703-25.464c3.123-3.524 2.807-8.917-.725-12.041-3.524-3.132-8.917-2.825-12.041.717a258.169 258.169 0 0 0-21.103 27.273 8.544 8.544 0 0 0 2.33 11.845zm-27.23 60.715a8.49 8.49 0 0 0 2.697.444 8.55 8.55 0 0 0 8.098-5.845 237.72 237.72 0 0 1 12.194-29.79c2.074-4.233.333-9.344-3.9-11.418-4.233-2.099-9.344-.341-11.418 3.891a255.534 255.534 0 0 0-13.073 31.932c-1.484 4.471.931 9.301 5.402 10.786zm71.603 2.329a8.53 8.53 0 0 0 11.332-4.147 171.5 171.5 0 0 1 16.708-28.442c2.765-3.814 1.92-9.156-1.903-11.921-3.806-2.773-9.156-1.92-11.913 1.894a188.998 188.998 0 0 0-18.372 31.283c-1.987 4.276-.127 9.345 4.148 11.333zM73.49 211.669c-.845 3.473-1.382 7.023-2.031 10.556-16.384 2.483-29.03 16.538-29.03 33.613 0 18.825 15.309 34.133 34.133 34.133 18.825 0 34.133-15.309 34.133-34.133 0-2.116-.239-4.207-.631-6.272-.162-.819-.41-1.596-.614-2.398-.324-1.186-.657-2.364-1.101-3.516-.341-.896-.742-1.749-1.161-2.603-.478-.99-.99-1.937-1.57-2.876a32.61 32.61 0 0 0-1.655-2.492c-.23-.316-.41-.674-.657-.99-.145-.179-.358-.265-.512-.427-.939-1.143-1.886-2.261-2.97-3.268-.043-.043-.06-.102-.111-.154-.247-.23-.555-.393-.819-.614-1.399-1.22-2.859-2.347-4.429-3.328-.171-.094-.341-.171-.503-.273a34.383 34.383 0 0 0-5.649-2.714h-.009a188.976 188.976 0 0 1 1.766-8.243c1.109-4.582-1.707-9.19-6.289-10.3-4.557-1.099-9.182 1.717-10.291 6.299zm4.198 27.213c.077.008.137.06.205.06a17.05 17.05 0 0 1 10.283 4.48c.017.017.043.026.068.043a17.085 17.085 0 0 1 1.801 2.031 16.477 16.477 0 0 1 2.475 4.463c.102.273.179.563.265.845.503 1.621.845 3.294.845 5.035 0 9.412-7.654 17.067-17.067 17.067-9.404 0-17.067-7.654-17.067-17.067 0-9.412 7.663-17.067 17.067-17.067.383-.001.741.084 1.125.11zM324.25 99.464a170.668 170.668 0 0 1 28.783 16.12 8.49 8.49 0 0 0 4.864 1.527 8.519 8.519 0 0 0 7.014-3.669c2.697-3.866 1.732-9.182-2.142-11.878a187.997 187.997 0 0 0-31.667-17.732c-4.344-1.894-9.353.077-11.238 4.386-1.894 4.317.077 9.352 4.386 11.246zm73.703-35.584c2.364 1.749 4.617 3.669 6.929 5.513-2.5 4.745-4.053 10.061-4.053 15.778 0 18.825 15.309 34.133 34.133 34.133s34.133-15.309 34.133-34.133c0-18.825-15.309-34.133-34.133-34.133-6.903 0-13.312 2.091-18.688 5.632-2.714-2.193-5.367-4.437-8.149-6.502-3.797-2.79-9.131-2.005-11.947 1.775-2.799 3.788-2.006 9.13 1.775 11.937zm24.806 9.395c.034-.034.077-.043.102-.077.034-.034.034-.077.068-.111a17.005 17.005 0 0 1 12.032-4.983c9.412 0 17.067 7.654 17.067 17.067 0 9.412-7.654 17.067-17.067 17.067-9.404 0-17.067-7.654-17.067-17.067.001-4.634 1.87-8.824 4.865-11.896zM418.8 180.838c-4.378 1.758-6.485 6.733-4.727 11.11a170.734 170.734 0 0 1 9.318 31.633c.776 4.087 4.352 6.929 8.371 6.929.538 0 1.067-.051 1.613-.154a8.53 8.53 0 0 0 6.776-9.984 186.644 186.644 0 0 0-10.249-34.816c-1.784-4.377-6.776-6.467-11.102-4.718zM213.539 20.488c.478 0 .964-.034 1.459-.12a238.864 238.864 0 0 1 32.017-3.302c4.702-.171 8.388-4.13 8.218-8.841-.171-4.71-4.173-8.422-8.841-8.218a256.415 256.415 0 0 0-34.295 3.541c-4.642.794-7.757 5.205-6.963 9.856a8.529 8.529 0 0 0 8.405 7.084zm164.668 116.446a171.409 171.409 0 0 1 20.599 25.771 8.522 8.522 0 0 0 7.159 3.874 8.476 8.476 0 0 0 4.651-1.382c3.942-2.577 5.06-7.859 2.492-11.81a188.285 188.285 0 0 0-22.673-28.339c-3.268-3.388-8.678-3.456-12.066-.179-3.371 3.293-3.448 8.686-.162 12.065zm104.96 45.449a239.635 239.635 0 0 1 7.799 31.232c.734 4.13 4.326 7.031 8.388 7.031.503 0 .998-.043 1.51-.137 4.642-.828 7.723-5.257 6.895-9.899a253.917 253.917 0 0 0-8.363-33.485 8.524 8.524 0 0 0-10.752-5.487c-4.479 1.452-6.928 6.264-5.477 10.745zm-20.037-45.219a245.644 245.644 0 0 1 7.697 14.558 8.532 8.532 0 0 0 11.41 3.942c4.233-2.057 5.999-7.168 3.942-11.401a252.528 252.528 0 0 0-8.252-15.599c-2.338-4.079-7.552-5.495-11.648-3.149-4.087 2.348-5.504 7.562-3.149 11.649zM251.845 76.475c-.119 4.71 3.61 8.627 8.32 8.747a171.626 171.626 0 0 1 32.742 4.002 8.579 8.579 0 0 0 1.852.205 8.548 8.548 0 0 0 8.329-6.69 8.544 8.544 0 0 0-6.485-10.18 188.593 188.593 0 0 0-36.011-4.395c-.068-.009-.145-.009-.213-.009-4.617 0-8.406 3.678-8.534 8.32zm27.358-58.436a239.509 239.509 0 0 1 31.761 5.282c.657.154 1.323.23 1.971.23 3.866 0 7.373-2.637 8.294-6.562 1.092-4.582-1.749-9.182-6.332-10.274a255.135 255.135 0 0 0-34.031-5.658c-4.762-.503-8.866 2.97-9.318 7.654a8.529 8.529 0 0 0 7.655 9.328zM8.176 251.682c.154.008.299.017.444.017a8.534 8.534 0 0 0 8.516-8.107 240.4 240.4 0 0 1 3.772-31.966c.87-4.634-2.185-9.097-6.81-9.958a8.5 8.5 0 0 0-9.958 6.818A257.229 257.229 0 0 0 .087 242.73c-.231 4.711 3.395 8.713 8.089 8.952zM341.701 32.853a238.454 238.454 0 0 1 29.167 13.611 8.512 8.512 0 0 0 4.122 1.067 8.532 8.532 0 0 0 7.475-4.412 8.533 8.533 0 0 0-3.345-11.597 256.274 256.274 0 0 0-31.266-14.583c-4.378-1.698-9.335.478-11.034 4.881-1.698 4.394.486 9.335 4.881 11.033zm86.272 388.616a240.416 240.416 0 0 1-23.825 21.658c-3.695 2.927-4.318 8.303-1.382 11.989a8.508 8.508 0 0 0 6.69 3.234c1.86 0 3.721-.606 5.291-1.843a257.607 257.607 0 0 0 25.523-23.202c3.268-3.396 3.157-8.798-.23-12.066-3.406-3.26-8.799-3.166-12.067.23zm-15.59-62.088a188.539 188.539 0 0 0 17.024-32.06c1.792-4.352-.282-9.344-4.634-11.136-4.335-1.792-9.353.265-11.153 4.634a170.452 170.452 0 0 1-15.471 29.133 8.53 8.53 0 0 0 2.406 11.827 8.46 8.46 0 0 0 4.702 1.425 8.551 8.551 0 0 0 7.126-3.823zm-35.021 16.205a170.415 170.415 0 0 1-25.31 21.18c-3.883 2.662-4.873 7.97-2.219 11.861a8.527 8.527 0 0 0 7.057 3.712 8.526 8.526 0 0 0 4.813-1.493 188.809 188.809 0 0 0 27.827-23.287c3.311-3.362 3.26-8.764-.102-12.075-3.354-3.303-8.772-3.26-12.066.102zm-58.914 110.873a237.834 237.834 0 0 1-31.556 6.306 8.527 8.527 0 0 0-7.364 9.557 8.532 8.532 0 0 0 8.448 7.433c.367 0 .734-.017 1.109-.068a255.978 255.978 0 0 0 33.826-6.75c4.548-1.237 7.236-5.922 5.999-10.47-1.229-4.549-5.914-7.219-10.462-6.008zm4.719-73.787a169.824 169.824 0 0 1-31.42 10.035c-4.608.981-7.543 5.521-6.554 10.129.862 4.002 4.403 6.741 8.337 6.741.589 0 1.195-.06 1.801-.188a186.951 186.951 0 0 0 34.586-11.042c4.318-1.86 6.323-6.878 4.454-11.213-1.86-4.334-6.904-6.314-11.204-4.462zm51.268-170.624c-.529-4.685-4.753-8.03-9.446-7.501-4.685.538-8.047 4.77-7.501 9.455.452 3.908.674 7.893.674 11.836 0 54.827-43.307 99.729-97.519 102.281-3.797-7.364-10.624-23.927-5.325-39.851 1.587-4.745 4.915-5.564 15.497-5.922 9.651-.324 27.614-.93 27.614-22.374 0-19.251-12.032-24.687-19.226-27.93-6.144-2.765-6.374-3.251-6.374-6.204 0-16.538 4.591-27.793 14.037-34.415 23.185-16.299 67.942-.393 68.386-.23a8.53 8.53 0 0 0 9.062-2.116 8.527 8.527 0 0 0 1.749-9.131c-18.27-44.698-61.559-73.574-110.302-73.574-22.682 0-43.844 6.468-61.926 17.493-1.527.418-2.927 1.229-4.045 2.466-32.213 21.427-53.495 58.01-53.495 99.507 0 48.401 28.868 91.708 73.549 110.328a8.535 8.535 0 0 0 11.162-4.599c1.818-4.352-.239-9.353-4.591-11.162-38.306-15.957-63.053-53.077-63.053-94.566 0-3.567.196-7.083.546-10.556a34.648 34.648 0 0 0 5.103 1.758c.785.205 1.647.29 2.372.265 16.606 0 23.586-6.366 28.698-11.017 4.139-3.772 6.63-6.05 15.112-6.05 9.532 0 17.621-6.511 21.112-16.998 4.13-12.399 1.963-31.71-15.249-49.382 13.534-6.605 28.663-10.419 44.706-10.419 35.413 0 67.465 17.766 85.931 46.472-18.236-3.678-45.5-5.854-64.597 7.518-14.157 9.907-21.333 26.197-21.333 48.41 0 14.353 10.274 18.987 16.418 21.76 6.306 2.842 9.182 4.147 9.182 12.373 0 4.471 0 4.941-11.128 5.316-9.54.324-25.523.862-31.095 17.587-9.745 29.218 8.73 57.438 9.523 58.633a8.545 8.545 0 0 0 7.1 3.797c65.877 0 119.467-53.589 119.467-119.467a120.51 120.51 0 0 0-.795-13.791zm-164.327-34.211c-.853 2.577-2.594 5.333-4.915 5.333-15.087 0-21.478 5.828-26.615 10.505-4.198 3.831-7.031 6.409-16.299 6.554-2.475-.759-3.985-1.741-4.898-2.492 6.374-22.298 20.122-41.455 38.451-54.758 15.463 14.003 16.495 28.211 14.276 34.858zm167.518 253.568a238.664 238.664 0 0 1-28.732 14.541c-4.343 1.835-6.366 6.844-4.531 11.187 1.374 3.251 4.54 5.205 7.859 5.205a8.58 8.58 0 0 0 3.319-.674 254.257 254.257 0 0 0 30.805-15.59 8.532 8.532 0 0 0 2.97-11.699c-2.405-4.053-7.645-5.367-11.69-2.97zm133.905-216.507c-.205-4.71-4.19-8.192-8.892-8.158-4.71.205-8.363 4.181-8.158 8.892.137 3.388.213 6.784.213 10.206 0 7.33-.333 14.729-.998 21.99-.427 4.693 3.029 8.849 7.723 9.276.265.017.529.034.785.034a8.536 8.536 0 0 0 8.491-7.757 260.893 260.893 0 0 0 1.067-23.543c0-3.661-.077-7.314-.231-10.94zm-76.535 3.029h-.034a8.529 8.529 0 0 0-8.533 8.499 172.556 172.556 0 0 1-3.268 32.828 8.532 8.532 0 0 0 6.699 10.035 8.531 8.531 0 0 0 10.035-6.707c2.355-11.785 3.558-23.936 3.601-36.096a8.531 8.531 0 0 0-8.5-8.559zm63.863 55.279c-4.617-1.015-9.173 1.818-10.232 6.4a237.608 237.608 0 0 1-9.335 30.805c-1.664 4.412.563 9.336 4.958 11a8.449 8.449 0 0 0 3.029.563 8.542 8.542 0 0 0 7.979-5.521 255.386 255.386 0 0 0 10.001-33.015c1.059-4.591-1.809-9.174-6.4-10.232zm-21.393 63.019c-4.139-2.261-9.327-.708-11.571 3.43a239.814 239.814 0 0 1-17.22 27.179 8.533 8.533 0 0 0 1.843 11.921 8.465 8.465 0 0 0 5.035 1.655 8.527 8.527 0 0 0 6.895-3.49 256.462 256.462 0 0 0 18.449-29.133c2.253-4.138.708-9.318-3.431-11.562zm-283.161 48.853a170.621 170.621 0 0 1-29.449-14.839c-3.968-2.526-9.259-1.34-11.767 2.645-2.526 3.985-1.331 9.259 2.645 11.776a186.433 186.433 0 0 0 32.418 16.333 8.451 8.451 0 0 0 3.081.58 8.536 8.536 0 0 0 7.953-5.453c1.698-4.403-.478-9.344-4.881-11.042zm-62.072 45.321a241.363 241.363 0 0 1-26.351-18.475c-3.686-2.97-9.054-2.381-12.006 1.28-2.953 3.669-2.381 9.045 1.289 11.998a258.57 258.57 0 0 0 28.228 19.797 8.48 8.48 0 0 0 4.412 1.229c2.884 0 5.709-1.459 7.305-4.113 2.448-4.028 1.151-9.276-2.877-11.716zM96.376 337.843c4.284-1.954 6.178-7.014 4.224-11.298a174.152 174.152 0 0 1-6.025-15.095c-1.519-4.454-6.374-6.852-10.837-5.299a8.527 8.527 0 0 0-5.291 10.846 184.874 184.874 0 0 0 6.622 16.623 8.538 8.538 0 0 0 11.307 4.223zm-34.679 57.412c-2.748-3.814-8.073-4.685-11.913-1.937a8.532 8.532 0 0 0-1.937 11.904 257.043 257.043 0 0 0 21.973 26.581 8.522 8.522 0 0 0 6.204 2.671 8.489 8.489 0 0 0 5.862-2.338 8.542 8.542 0 0 0 .333-12.066 239.935 239.935 0 0 1-20.522-24.815z"/><path d="M213.095 247.304c-8.772 0-15.744 9.156-19.115 14.618-6.579 10.633-11.981 27.597-5.581 40.397 4.548 9.105 11.298 10.462 14.916 10.462 8.465 0 15.147-6.818 19.251-12.518 3.678-5.103 7.595-12.723 7.595-18.825.001-11.077.001-34.134-17.066-34.134zm-9.096 47.992c-.102-.171-.222-.367-.333-.606-1.69-3.371-1.391-9.114.794-15.343 2.091-5.931 5.248-10.675 7.569-13.218.589 2.56 1.067 7.142 1.067 15.215-.274 3.404-5.65 11.835-9.097 13.952zm-86.878 59.818c-2.739-3.831-8.064-4.71-11.913-1.98-3.831 2.748-4.71 8.081-1.971 11.904a189.785 189.785 0 0 0 23.842 27.349 8.482 8.482 0 0 0 5.862 2.33 8.51 8.51 0 0 0 6.204-2.671c3.243-3.422 3.089-8.823-.333-12.058a171.284 171.284 0 0 1-21.691-24.874zm-85.598-16.589c-1.647-4.42-6.562-6.69-10.965-5.052a8.532 8.532 0 0 0-5.052 10.957 257.19 257.19 0 0 0 14.106 31.497 8.532 8.532 0 0 0 7.543 4.523 8.54 8.54 0 0 0 3.994-.99c4.164-2.21 5.751-7.381 3.533-11.546a238.39 238.39 0 0 1-13.159-29.389zm227.456 87.954l-3.217.026c-9.975 0-19.968-.87-29.679-2.577-4.651-.811-9.071 2.287-9.89 6.929-.802 4.642 2.295 9.062 6.938 9.882a189.135 189.135 0 0 0 32.631 2.833l3.533-.026c4.71-.094 8.456-3.985 8.38-8.695-.103-4.712-4.31-8.441-8.696-8.372zM191.13 485.93a240.046 240.046 0 0 1-30.336-10.769c-4.335-1.894-9.344.12-11.221 4.437a8.537 8.537 0 0 0 4.437 11.221 256.225 256.225 0 0 0 32.521 11.546 8.538 8.538 0 0 0 10.513-5.913c1.28-4.54-1.374-9.25-5.914-10.522zm63.616 8.841a241.202 241.202 0 0 1-32.111-2.278c-4.685-.657-8.977 2.62-9.626 7.287-.649 4.668 2.611 8.977 7.279 9.626a259.384 259.384 0 0 0 34.389 2.432h.034a8.529 8.529 0 0 0 8.533-8.499c.019-4.711-3.779-8.551-8.498-8.568zM22.452 307.618a237.3 237.3 0 0 1-4.796-31.821c-.393-4.685-4.565-8.192-9.207-7.799a8.53 8.53 0 0 0-7.808 9.199 257.011 257.011 0 0 0 5.146 34.108 8.54 8.54 0 0 0 8.329 6.69c.606 0 1.229-.06 1.852-.196 4.598-1.016 7.499-5.582 6.484-10.181z"/></svg>