<svg xmlns="http://www.w3.org/2000/svg" viewBox="0 0 512.155 512.155"><path d="M324.359 213.397c0 9.412 7.654 17.067 17.067 17.067 9.412 0 17.067-7.654 17.067-17.067 0-9.412-7.654-17.067-17.067-17.067s-17.067 7.654-17.067 17.067z"/><path d="M510.317 137.211c-13.244-36.446-96.461-29.858-144.896-22.699-4.651.691-7.876 5.026-7.185 9.694.683 4.659 5 7.868 9.685 7.194 79.616-11.785 121.31-2.236 126.362 11.648 4.07 11.179-7.97 34.97-53.99 68.181-41.515 29.961-100.258 59.861-161.161 82.022-60.911 22.178-125.141 37.026-176.205 40.764-56.619 4.139-81.126-6.34-85.197-17.519-6.093-16.751 31.889-59.042 114.219-104.704.154-.043.299-.085.452-.145 4.326-1.544 6.562-6.409 5.205-10.76l-.043-.119c-.017-.06-.043-.12-.051-.171a5.875 5.875 0 0 0-.137-.35l-17.118-47.027c-9.259-25.446-8.055-52.975 3.388-77.525 11.443-24.542 31.761-43.162 57.216-52.42C233.375 4.16 291.666 31.348 310.807 83.87l15.735 43.273c-17.655 22.025-45.739 39.543-87.91 54.886-30.054 10.931-55.177 16.41-76.8 16.725-4.719.068-8.474 3.951-8.405 8.661.068 4.71 3.644 8.482 8.653 8.405 23.569-.35 50.509-6.161 82.389-17.749 47.727-17.382 79.053-37.837 98.56-64.401a8.49 8.49 0 0 0 1.143-7.97l-17.331-47.667C304.493 16.661 236.38-15.083 175.025 7.231c-29.73 10.829-53.478 32.58-66.85 61.252-13.372 28.672-14.771 60.843-3.951 90.573l14.729 40.465C80.348 221.392-13.749 279.897 1.696 322.333c8.525 23.415 43.11 29.662 77.585 29.662 8.431 0 16.853-.375 24.883-.964 52.574-3.84 118.468-19.055 180.804-41.737 62.319-22.682 122.573-53.385 165.308-84.224 33.246-24.004 70.657-58.726 60.041-87.859zM372.231 302.348c-2.586-3.942-7.876-5.026-11.819-2.44-3.934 2.586-5.026 7.876-2.449 11.81l78.729 119.697a8.521 8.521 0 0 0 7.142 3.849 8.49 8.49 0 0 0 4.685-1.408c3.934-2.586 5.026-7.876 2.44-11.81l-78.728-119.698zm-141.654 55.74c-.546-4.676-4.736-8.081-9.472-7.484-4.676.555-8.03 4.787-7.484 9.463l16.93 144.452c.503 4.344 4.19 7.543 8.465 7.543.324 0 .666-.017.998-.06 4.685-.546 8.038-4.787 7.484-9.464l-16.921-144.45zm71.032-27.947c-1.604-4.42-6.528-6.724-10.931-5.103a8.53 8.53 0 0 0-5.103 10.94l46.285 127.121c1.254 3.456 4.531 5.615 8.013 5.615.973 0 1.963-.171 2.918-.521a8.53 8.53 0 0 0 5.103-10.94l-46.285-127.112z"/><path d="M247.559 247.53c0 9.412 7.654 17.067 17.067 17.067 9.412 0 17.067-7.654 17.067-17.067s-7.654-17.067-17.067-17.067-17.067 7.655-17.067 17.067zm179.2-76.8c0-9.412-7.654-17.067-17.067-17.067-9.412 0-17.067 7.654-17.067 17.067 0 9.412 7.654 17.067 17.067 17.067 9.412 0 17.067-7.655 17.067-17.067zM85.425 281.663c0 9.412 7.654 17.067 17.067 17.067 9.412 0 17.067-7.654 17.067-17.067 0-9.412-7.654-17.067-17.067-17.067-9.412.001-17.067 7.655-17.067 17.067zm85.334-8.533c0 9.412 7.654 17.067 17.067 17.067s17.067-7.654 17.067-17.067c0-9.412-7.654-17.067-17.067-17.067s-17.067 7.655-17.067 17.067zm80.537-190.464a8.475 8.475 0 0 0 6.025 2.5 8.532 8.532 0 0 0 6.042-2.509c3.319-3.336 3.319-8.738-.017-12.066-11.128-11.119-25.916-18.039-41.609-19.49-4.898-.444-8.849 3.021-9.293 7.706a8.53 8.53 0 0 0 7.706 9.284c11.759 1.092 22.818 6.272 31.146 14.575z"/></svg>