<svg xmlns="http://www.w3.org/2000/svg" viewBox="0 0 512 512"><path d="M221.867 145.067a8.536 8.536 0 0 0-8.533-8.533h-68.267a8.536 8.536 0 0 0-8.533 8.533 8.536 8.536 0 0 0 8.533 8.533h68.267a8.536 8.536 0 0 0 8.533-8.533zm-8.534 59.733H281.6c4.719 0 8.533-3.823 8.533-8.533s-3.814-8.533-8.533-8.533h-68.267c-4.71 0-8.533 3.823-8.533 8.533s3.823 8.533 8.533 8.533zm162.134-8.533A8.53 8.53 0 0 0 384 204.8h34.133c4.719 0 8.533-3.823 8.533-8.533s-3.814-8.533-8.533-8.533H384a8.53 8.53 0 0 0-8.533 8.533zM384 85.333h-68.267a8.53 8.53 0 0 0-8.533 8.533 8.53 8.53 0 0 0 8.533 8.533H384a8.53 8.53 0 0 0 8.533-8.533A8.53 8.53 0 0 0 384 85.333zM93.867 256c4.71 0 8.533-3.823 8.533-8.533s-3.823-8.533-8.533-8.533h-51.2c-4.71 0-8.533 3.823-8.533 8.533S37.956 256 42.667 256h51.2z"/><path d="M488.482 341.931a8.41 8.41 0 0 0-4.745-.597h-82.671c-4.719 0-8.533 3.823-8.533 8.533s3.814 8.533 8.533 8.533h70.895c-5.709 12.066-12.442 23.407-19.891 34.133H384c-4.719 0-8.533 3.823-8.533 8.533s3.814 8.533 8.533 8.533h55.031c-44.57 53.248-110.839 85.333-183.031 85.333C124.254 494.933 17.067 387.746 17.067 256c0-8.141.41-16.367 1.237-24.448.469-4.685-2.953-8.875-7.637-9.344a8.509 8.509 0 0 0-9.353 7.629A262.373 262.373 0 0 0 0 256c0 141.158 114.842 256 256 256 103.825 0 196.403-61.739 236.339-157.448.589-.896.998-1.911 1.237-3.004.82-3.968-1.373-8.013-5.094-9.617z"/><path d="M119.467 349.867A8.536 8.536 0 0 0 128 358.4h34.133c4.71 0 8.533-3.823 8.533-8.533s-3.823-8.533-8.533-8.533H128c-4.71-.001-8.533 3.822-8.533 8.533zm17.066-102.4a8.536 8.536 0 0 0 8.533 8.533H230.4c4.71 0 8.533-3.823 8.533-8.533s-3.823-8.533-8.533-8.533h-85.333c-4.711-.001-8.534 3.822-8.534 8.533zM256 349.867a8.536 8.536 0 0 0 8.533 8.533h85.333c4.719 0 8.533-3.823 8.533-8.533s-3.814-8.533-8.533-8.533h-85.333c-4.71-.001-8.533 3.822-8.533 8.533z"/><path d="M256 0C137.975 0 35.78 79.906 7.475 194.321c-1.109 4.489 1.57 8.986 6.025 10.223a8.434 8.434 0 0 0 3.183.256h145.451c4.71 0 8.533-3.823 8.533-8.533s-3.823-8.533-8.533-8.533H26.948C56.9 86.699 149.547 17.067 256 17.067c131.746 0 238.933 107.187 238.933 238.933 0 22.409-3.098 44.587-9.199 65.92-1.297 4.531 1.314 9.259 5.845 10.547.785.23 1.579.333 2.364.333 3.703 0 7.125-2.44 8.192-6.187C508.681 303.761 512 280.004 512 256 512 114.842 397.158 0 256 0zm59.733 392.533c-4.719 0-8.533 3.823-8.533 8.533s3.814 8.533 8.533 8.533H332.8c4.719 0 8.533-3.823 8.533-8.533s-3.814-8.533-8.533-8.533h-17.067zm-85.333 0c-4.71 0-8.533 3.823-8.533 8.533s3.823 8.533 8.533 8.533h34.133c4.719 0 8.533-3.823 8.533-8.533s-3.814-8.533-8.533-8.533H230.4z"/></svg>