<svg xmlns="http://www.w3.org/2000/svg" viewBox="0 0 1024 1024"><path d="M432.454 228.585c0 17.573-14.245 31.818-31.818 31.818s-31.818-14.245-31.818-31.818 14.245-31.818 31.818-31.818 31.818 14.245 31.818 31.818zM655.177 228.585c0 17.573-14.245 31.818-31.818 31.818s-31.818-14.245-31.818-31.818 14.245-31.818 31.818-31.818 31.818 14.245 31.818 31.818zM386.994 337.745c0 69.493 56.074 126.027 125.002 126.027s125.002-56.535 125.002-126.027c0-60.505-42.058-91.185-125.002-91.185s-125.002 30.68-125.002 91.185zm110.297-74.987a2.447 2.447 0 0 1-2.447 2.43c-.058-.01-.11 0-.164 0-9.584 0-19.105 6.417-22.681 15.309a2.452 2.452 0 0 1-2.271 1.534 2.45 2.45 0 0 1-2.265-3.38l-.006.016c4.359-10.842 15.534-18.378 27.214-18.378h.188a2.448 2.448 0 0 1 2.433 2.447v.021-.001zm-23.641-1.259c-8.639 5.805-13.961 14.893-13.961 28.608 0 28.889 23.418 52.759 52.308 52.759s52.308-23.87 52.308-52.759c0-13.716-5.321-22.803-13.958-28.608 49.986 7.868 74.414 33.016 74.414 76.245 0 62.744-50.585 113.789-112.765 113.789s-112.765-51.045-112.765-113.789c-.003-43.231 24.428-68.379 74.417-76.245z"/><path d="M473.201 415.649c16.489 0 30.942-8.901 38.796-22.153 7.854 13.251 22.304 22.153 38.796 22.153 24.846 0 45.063-20.214 45.063-45.062a6.118 6.118 0 1 0-12.236 0c0 18.1-14.726 32.824-32.826 32.824-16.954 0-30.949-12.918-32.652-29.426.083-1.121.127-2.254.127-3.398a6.118 6.118 0 0 0-6.118-6.118h-.302a6.118 6.118 0 0 0-6.118 6.118c0 1.143.044 2.276.127 3.398-1.703 16.509-15.698 29.426-32.652 29.426-18.102 0-32.826-14.725-32.826-32.824a6.118 6.118 0 1 0-12.236 0c-.003 24.846 20.214 45.062 45.062 45.062z"/><path d="M867.182 546.018c-33.695-20.412-56.352-28.601-76.342-35.822-19.66-7.105-38.231-13.817-65.391-31.435l-17.311-11.229a341.056 341.056 0 0 0-15.079-21.423c43.213-45.09 69.809-106.23 69.809-173.467 0-13.214-1.036-26.188-3.014-38.854 19.228-6.24 35.671-16.502 49.019-29.856 23.034-23.034 33.773-51.659 31.054-82.785-2.508-28.729-16.791-57.45-40.21-80.865C773.744 14.307 742.056.001 710.5.001c-27.585 0-53.128 10.963-73.866 31.696a122.974 122.974 0 0 0-13.212 15.716l-.258.383c-33.526-16.643-71.271-26.022-111.171-26.022s-77.645 9.379-111.171 26.022c-4.221-5.99-8.645-11.25-13.475-16.105l.006.006C366.617 10.961 341.078.001 313.492.001c-31.561 0-63.244 14.306-89.219 40.281-23.418 23.418-37.697 52.137-40.207 80.865-2.716 31.125 8.018 59.751 31.054 82.785 13.349 13.353 29.789 23.614 48.158 29.614l.859.243c-1.915 11.667-3.011 25.114-3.011 38.816v.04-.001c0 67.238 26.592 128.377 69.809 173.467-4.618 5.976-9.581 12.958-14.279 20.128l-.797 1.295-17.311 11.229c-27.16 17.62-45.729 24.329-65.391 31.435-19.992 7.222-42.65 15.409-76.342 35.822-30.496 18.471-43.455 51.383-33.82 85.893 9.861 35.317 40.756 59.986 75.128 59.988h.007c13.312 0 26.857-3.483 40.247-10.351l.677-.38c8.723-5.284 16.337-10.65 23.105-16.261 4.295 46.493 22.093 88.755 51.574 122.645-9.063 43.339-20.163 107.436-24.233 152.01-1.924 21.086 4.298 40.162 17.997 55.169 16.727 18.324 43.805 29.264 72.439 29.267h.01c38.703 0 79.693-21.183 84.014-68.505 2.015-22.048 2.9-61.396 3.388-88.5 14.534 2.11 29.441 3.245 44.651 3.245s30.121-1.138 44.651-3.248c.489 27.048 1.376 66.469 3.389 88.501 4.322 47.323 45.314 68.505 84.021 68.505h.004c28.625 0 55.706-10.939 72.429-29.257 13.702-15.008 19.928-34.089 17.999-55.179-4.065-44.522-15.15-108.559-24.21-151.902 29.868-34.004 47.414-75.709 51.594-122.72 6.757 5.6 14.355 10.956 23.062 16.227l.677.38c13.387 6.868 26.929 10.351 40.251 10.351h.01c34.368 0 65.26-24.662 75.124-59.974 9.648-34.513-3.311-67.431-33.814-85.905zm-124.555-31.924c14.898 7.483 27.581 12.067 40.724 16.815 19.958 7.211 40.597 14.671 72.422 33.947 22.008 13.332 30.986 36.189 24.016 61.141-2.264 8.099-6.521 16.421-12.502 23.621-5.879 2.436-12.512 3.762-19.694 3.762h-.004c-12.292 0-25.528-3.732-39.157-10.994-23.687-14.348-36.777-26.877-46.106-38.412-1.845-29.546-8.513-59.976-19.694-89.88zM652.213 47.269c16.516-16.516 36.671-25.243 58.288-25.243 25.675 0 51.829 12.014 73.643 33.83 19.761 19.761 31.778 43.629 33.837 67.206 2.134 24.428-6.4 47.01-24.683 65.29-10.365 10.377-23.008 18.475-37.115 23.479l-.696.215c-2.912-11.718-6.053-21.464-9.75-30.93l.586 1.705c9.906-3.64 18.363-9.132 25.329-16.11l.001-.001c11.848-11.846 17.176-25.638 15.833-40.981-1.434-16.418-10.307-33.543-24.987-48.223-15.802-15.802-34.755-24.865-51.995-24.865-13.512 0-25.841 5.475-36.642 16.278a69.802 69.802 0 0 0-5.969 6.851l-.124.169a252.956 252.956 0 0 0-25.165-17.525 100.526 100.526 0 0 1 9.608-11.143zm-69.027 7.879a19.847 19.847 0 0 1-3.503 5.59l.017-.02c-2.611 2.91-5.845 5.343-9.264 7.915-3.161 2.382-6.434 4.843-9.379 7.83-7.969 8.087-12.309 19.805-11.902 32.145.185 5.974 1.465 11.602 3.647 16.755l-.115-.306c-8.069-4.789-15.126-11.341-20.342-19.061a4.894 4.894 0 1 0-8.731 1.353l-.011-.017c-4.387 14.641-2.996 30.691 3.45 44.437-12.556-4.577-24.899-9.903-35.496-17.821-15.243-11.391-24.277-27.225-24.169-42.358v-.036a4.894 4.894 0 0 0-7.449-4.175l.021-.013c-6.693 4.109-12.166 9.575-16.166 16.049l-.121.209c-2.409-19.336 3.977-39.735 17.203-54.071 15.326-3.662 32.924-5.761 51.012-5.761h.115-.006.115c25.411 0 49.854 4.155 72.681 11.824l-1.609-.47zm-343.338.707c21.817-21.814 47.971-33.83 73.646-33.83 21.614 0 41.769 8.73 58.285 25.243a100.751 100.751 0 0 1 9.423 10.879l.188.262c-9.637 5.907-17.848 11.686-25.68 17.92l.515-.396a69.577 69.577 0 0 0-6.095-7.02l.003.003c-10.801-10.803-23.126-16.278-36.639-16.278-17.243 0-36.196 9.063-51.998 24.865-14.681 14.681-23.552 31.805-24.987 48.223-1.342 15.346 3.987 29.135 15.836 40.981a68.875 68.875 0 0 0 24.851 15.958l.477.154c-3.112 7.761-6.25 17.506-8.79 27.493l-.374 1.733c-14.803-5.22-27.447-13.317-37.811-23.694l-.001-.001c-36.311-36.311-32.55-90.798 9.151-132.496zm47.896 171.079c.108-.521.223-1.037.333-1.559 17.247-81.809 78.32-147.643 157.417-171.713-12.441 19.8-15.81 45.392-7.565 67.434.73 1.875 2.521 3.179 4.617 3.179.108 0 .216-.003.323-.01l-.014.001a4.9 4.9 0 0 0 4.431-3.79l.006-.033c1.645-7.401 5.641-14.335 11.143-19.625 2.804 15.153 12.546 29.973 27.262 40.971 15.496 11.577 33.651 17.788 51.21 23.795a4.894 4.894 0 0 0 5.39-7.706l.007.01c-8.496-10.573-12.482-24.401-11.242-37.828 9.159 9.861 21.11 17.271 34.004 20.897a4.894 4.894 0 0 0 4.581-8.362l-.004-.004c-6.484-5.771-10.388-14.629-10.705-24.299-.316-9.672 2.998-18.767 9.095-24.955 2.436-2.471 5.279-4.614 8.292-6.879 3.644-2.742 7.411-5.577 10.661-9.196a29.623 29.623 0 0 0 5.39-8.654l.071-.199c72.4 27.279 127.442 90.25 143.557 167.356.074.35.152.7.223 1.05 2.934 13.749 4.614 29.543 4.614 45.73v.097-.006c0 104.49-70.393 192.844-166.248 220.14-1.924.546-3.857 1.07-5.798 1.567-2.126.622-5.947 1.52-9.802 2.326l-1.549.27c-1.111.225-2.227.433-3.344.643-1.249.287-3.971.763-6.709 1.189l-1.303.166c-.808.12-1.618.228-2.427.34-1.801.292-4.859.67-7.935.989l-.987.083c-.536.054-1.077.095-1.613.144a230.17 230.17 0 0 1-9.749.7c-.279.014-.561.02-.842.031-3.5.159-7.01.252-10.534.252s-7.034-.092-10.534-.252c-.279-.013-.561-.017-.842-.031-3.955-.201-7.33-.45-10.682-.773l.932.073c-.536-.048-1.071-.091-1.608-.144a221.394 221.394 0 0 1-10.177-1.221l1.242.147c-.802-.11-1.611-.218-2.41-.337-4.039-.593-6.767-1.069-9.477-1.591l1.448.233c-1.108-.208-2.218-.414-3.321-.639-7.364-1.484-13.138-2.927-18.822-4.58l1.642.408C353.55 465.47 283.167 377.116 283.167 272.635v-.185c0-16.11 1.669-31.832 4.842-47l-.26 1.485zM156.719 649.621c-5.987-7.204-10.247-15.534-12.509-23.636-6.967-24.947 2.012-47.798 24.016-61.129 31.825-19.276 52.465-26.736 72.422-33.947 13.141-4.748 25.827-9.332 40.722-16.812-11.183 29.903-17.849 60.331-19.694 89.88-9.321 11.533-22.378 24.04-45.932 38.313-13.808 7.36-27.038 11.092-39.322 11.092h-.007c-7.184 0-13.814-1.326-19.693-3.762zm71.267 12.499c-10.137 5.145-20.18 7.749-29.855 7.749h-.004c-11.67 0-21.77-3.819-30.082-9.729 2.719.37 5.506.582 8.368.582h.007c13.502 0 27.894-4.024 42.953-12.057 19.854-12.03 32.537-22.85 41.816-32.907-.03 1.632-.058 3.262-.058 4.887 0 3.6.102 7.211.259 10.816-.054 1.271-.108 2.535-.144 3.8-8.524 9.689-19.211 18.314-33.26 26.857zm159.844 339.481a81.297 81.297 0 0 1-7.884.371h-.01c-22.549 0-43.546-8.258-56.171-22.089-9.546-10.458-13.696-23.351-12.329-38.316 3.564-39.02 12.659-93.483 20.924-135.105.267.242.548.468.815.707.67.595 1.329 1.199 2.008 1.784.337.292.696.561 1.036.852a224.843 224.843 0 0 0 16.433 12.838l.704.474c20.875 14.685 44.559 26.185 70.429 34.16-.455 28.136-1.302 70.224-3.449 93.744-2.389 26.174-15.907 42.612-32.508 50.578zm54.194-48.11c-2.185 23.929-17.316 37.525-35.051 43.914 10.919-10.307 18.824-25.386 20.682-45.715 2.114-23.202 2.981-64.06 3.443-92.266 4.7 1.308 9.455 2.521 14.289 3.6-.47 26.807-1.329 68.192-3.364 90.468zm17.712-110.01l-1.125-.215c-2.875-.546-5.72-1.15-8.544-1.781l-1.584-.357c-5.483-1.235-9.336-2.249-13.148-3.358l1.66.414c-.521-.144-1.037-.293-1.554-.442-91.287-26.345-151.99-100.076-152.277-194.398l.969-1.204-.33-4.344a185.492 185.492 0 0 1-.356-6.085l-.017-.484c2.739-57.705 25.885-119.632 63.454-169.718a248.316 248.316 0 0 0 99.79 53.436l1.743.397c1.115.292 2.237.568 3.361.847 2.46.691 6.673 1.645 10.924 2.49l1.575.26c1.309.252 2.617.509 3.933.741 2.665.47 5.353.888 8.047 1.275.938.135 1.87.272 2.807.394 3.005.397 6.031.734 9.066 1.023.748.068 1.495.137 2.244.198 3.201.275 6.417.497 9.652.652.504.024 1.013.04 1.52.057a251.5 251.5 0 0 0 10.449.235c3.5 0 6.98-.091 10.446-.235.509-.02 1.016-.034 1.525-.057 3.231-.152 6.444-.374 9.641-.652 4.848-.408 8.73-.839 12.585-1.36l-1.282.142c.955-.125 1.902-.262 2.851-.398 2.665-.381 5.318-.795 7.956-1.261 1.353-.24 2.702-.502 4.048-.764 5.88-1.118 10.122-2.079 14.321-3.144l-1.737.374c40.607-10.211 75.85-29.189 105.036-54.886l-.276.238c37.569 50.086 60.715 112.02 63.454 169.728a221.272 221.272 0 0 1-.415 7.279l.043-.724-.33 4.35.969 1.204c-.285 94.322-60.987 168.053-152.274 194.398-.516.149-1.033.299-1.554.442-1.441.407-2.891.805-4.344 1.187a264.059 264.059 0 0 1-7.144 1.757c-.526.122-1.054.24-1.581.357a266.998 266.998 0 0 1-8.547 1.781l-1.125.215c-16.638 3.103-34.109 4.734-52.261 4.734-18.155-.004-35.623-1.635-52.261-4.737zm143.921 108.028c-2.161-23.643-3.008-66.161-3.46-94.231 25.872-7.973 49.555-19.47 70.432-34.153l.526-.37c6.294-4.47 11.708-8.718 16.916-13.197l-.3.252c.343-.292.703-.561 1.04-.857.707-.612 1.393-1.238 2.09-1.86.242-.213.492-.418.731-.635 8.265 41.627 17.36 96.096 20.921 135.105 1.369 14.969-2.783 27.864-12.33 38.326-12.625 13.825-33.617 22.079-56.161 22.079h-.004c-3.005 0-6.077-.169-9.176-.509-16.014-8.187-28.9-24.455-31.225-49.952zm-21.685 1.982c-2.036-22.267-2.898-63.733-3.365-90.468a280.594 280.594 0 0 0 14.281-3.6c.46 28.163 1.325 69.433 3.453 92.753 1.811 19.834 9.393 34.664 19.908 44.946-17.402-6.504-32.124-20.054-34.277-43.632zm243.899-283.622c-9.685 0-19.73-2.607-29.862-7.746-14.052-8.544-24.733-17.169-33.26-26.858a254.854 254.854 0 0 0-.144-3.792c.157-3.598.259-7.211.259-10.825 0-1.625-.031-3.26-.058-4.894 9.295 10.072 22.021 20.92 41.99 33.012 14.884 7.932 29.28 11.959 42.785 11.959h.004c2.861 0 5.654-.211 8.376-.582-8.312 5.91-18.413 9.732-30.085 9.729h-.004z"/><path d="M523.119 747.945l18.038-18.038-11.124-11.124-18.036 18.038-18.036-18.038-11.122 11.122 18.036 18.041-18.036 18.033 11.122 11.124 18.036-18.038 18.036 18.038 11.124-11.122zm89.814-45.031l75.723-72.158c20.894-19.915 21.689-52.998 1.781-73.895-19.915-20.9-53.004-21.695-73.901-1.781l-3.605 3.432-3.603-3.432c-20.9-19.915-53.984-19.12-73.898 1.781-19.918 20.897-19.12 53.983 1.781 73.895l75.719 72.158z"/></svg>