<svg xmlns="http://www.w3.org/2000/svg" viewBox="0 0 499.32 499.32"><path d="M249.66 166.624l27.312-27.312L249.66 112l-27.312 27.312 27.312 27.312zm4.688-27.312L249.66 144l-4.688-4.688 4.688-4.688 4.688 4.688zm19.312-40h16v16h-16zm-64 0h16v16h-16z"/><path d="M497.66 67.312V49.344l-65.816 59.24a88.41 88.41 0 0 1-59.232 22.728c-20.352 0-40.216 6.064-57.144 17.112 9.184-11.04 14.192-24.8 14.192-39.328 0-18.832-8.432-36.376-23.136-48.136l-16.68-13.344c-5.384-11.088-13.232-20.664-22.808-30.24L249.66 0l-17.368 17.368c-9.576 9.576-17.424 19.152-22.808 30.24l-16.68 13.344c-14.712 11.768-23.144 29.312-23.144 48.144 0 14.536 5.008 28.296 14.192 39.328-16.928-11.048-36.792-17.112-57.144-17.112a88.41 88.41 0 0 1-59.232-22.728L1.66 49.344v17.968c0 43.2 10.936 86.08 31.624 124.016l10.8 19.8c-10.864-.968-20.96-5.664-28.768-13.472L1.66 184v19.312c0 26.288 9.64 51.096 27.232 70.384a67.792 67.792 0 0 1-15.656-5.544L1.66 262.368v12.944c0 27.904 12.632 53.736 34.664 70.872 27.464 21.36 61.752 33.128 96.552 33.128h10.16c-17.264 21.008-39.416 37.88-64.528 48.648l-10.856 4.656 8.352 8.352c1.4 1.4 34.744 34.344 69.656 34.344 20.008 0 36.952-8.296 48-15.584v18.64c-4.92 5.624-8 12.896-8 20.944h16c0-8.824 7.176-16 16-16s16 7.176 16 16h16c0-8.04-3.08-15.312-8-20.944v-80.64l1.344-2.016a88.143 88.143 0 0 0 6.656-11.888 88.143 88.143 0 0 0 6.656 11.888l1.344 2.024v80.64c-4.92 5.624-8 12.896-8 20.944h16c0-8.824 7.176-16 16-16s16 7.176 16 16h16c0-8.04-3.08-15.312-8-20.944v-18.64c11.048 7.28 27.992 15.576 48 15.576 34.912 0 68.256-32.944 69.656-34.344l8.352-8.352-10.856-4.656c-25.112-10.768-47.272-27.64-64.528-48.648h10.16c34.8 0 69.088-11.768 96.552-33.128 22.032-17.136 34.664-42.968 34.664-70.872v-12.944l-11.576 5.792a68.167 68.167 0 0 1-15.656 5.544c17.592-19.296 27.232-44.104 27.232-70.392V184l-13.656 13.656c-7.808 7.808-17.896 12.504-28.768 13.472l10.8-19.8c20.688-37.936 31.624-80.816 31.624-124.016zm-295.504 6.704c-.288 2.992-.496 6.048-.496 9.296h16c0-9.912 1.792-18.2 4.944-25.712l.056-.048-.024-.032c4.44-10.544 11.624-19.504 20.968-28.848l6.056-6.048 6.056 6.056c9.344 9.344 16.536 18.304 20.968 28.848l-.024.032.056.048c3.152 7.504 4.944 15.792 4.944 25.704h16c0-3.248-.208-6.304-.496-9.296 10.472 8.704 16.496 21.424 16.496 35.08 0 12.192-4.744 23.656-13.368 32.272l-3.216 3.216c-9.944 9.936-15.416 23.16-15.416 37.216 0 10.424 3.056 20.52 9.128 29.624a40.793 40.793 0 0 1 6.872 22.704c0 3.152-.384 6.248-1.088 9.264a173.994 173.994 0 0 1-30.352-31.336l-16.56-22.08-16.552 22.08a173.732 173.732 0 0 1-30.352 31.336 40.644 40.644 0 0 1-1.096-9.264c0-8.112 2.376-15.96 7.16-23.136a52.445 52.445 0 0 0 8.84-29.192c0-14.056-5.472-27.28-15.416-37.216l-3.216-3.216c-8.624-8.624-13.368-20.08-13.368-32.272 0-13.656 6.024-26.376 16.496-35.08zM289.54 258.48c-2.512 3.392-5.504 6.448-9.024 8.96l-2.08 1.488a33.574 33.574 0 0 0-7.256-10.088 52.396 52.396 0 0 0 6.184-10.832 188 188 0 0 0 9.312 7.968c.992.792 1.92 1.656 2.864 2.504zm-49.984 11.576c.552.4 1.064.848 1.64 1.224l8.464 5.648 8.472-5.648c.568-.384 1.088-.824 1.64-1.224a17.747 17.747 0 0 1 5.232 8.472L249.66 289.48l-15.336-10.952a17.687 17.687 0 0 1 5.232-8.472zm-4.856-34.96c3.912-4.328 7.704-8.768 11.208-13.44l3.752-5.008 3.76 5.008c3.504 4.672 7.288 9.112 11.208 13.44-1.992 9.136-7.192 17.264-14.968 22.6-7.776-5.336-12.976-13.464-14.96-22.6zm-6.56 23.736a33.534 33.534 0 0 0-7.264 10.096l-2.08-1.488c-3.512-2.512-6.504-5.568-9.024-8.96.944-.848 1.872-1.712 2.864-2.504 3.2-2.56 6.296-5.224 9.32-7.976a52.974 52.974 0 0 0 6.184 10.832zm-95.264 104.48c-31.256 0-62.056-10.568-86.728-29.76-14.832-11.536-24.488-27.888-27.488-46.032a84.17 84.17 0 0 0 24.888 3.792h25.424l-25.368-25.368c-12.672-12.672-21.032-28.504-24.336-45.728 8.84 4.64 18.744 7.096 29.024 7.096H71.14l-23.808-43.648C30.9 153.536 21.02 120.072 18.38 85.92l38.392 34.552c19.224 17.312 44.064 26.84 69.936 26.84 13.784 0 27.296 3.312 39.504 9.392-16.024-2.968-33.112.032-47 9.296-10.432 6.952-24.664 6.952-35.096 0L50.7 143.72l14.792 44.384c6.088 18.272 18.272 34.224 34.304 44.912a70.864 70.864 0 0 1 23.256 25.624c-12.088-4.832-25.032-7.328-38.232-7.328H62.348l47.544 47.544a23.204 23.204 0 0 1 6.096 10.776 39.121 39.121 0 0 0 38.016 29.68v-16a23.166 23.166 0 0 1-22.496-17.56 39.122 39.122 0 0 0-10.312-18.2l-18.36-18.36a87.099 87.099 0 0 1 30.376 12.784l17.208 11.472-5.592-22.416c-5.264-21.048-18.104-39.28-36.168-51.32-13.08-8.72-23.024-21.744-28-36.656l-.24-.72c14.928 7.44 33.536 6.4 47.76-3.088 14.904-9.928 35.12-10.416 50.464-1.2l21.72 13.032a38.057 38.057 0 0 1-5.152 11.472c-2.624 3.944-4.608 8.2-6.168 12.592-6.76-7.672-15.416-13.6-25.152-16.848a57.693 57.693 0 0 0-18.36-2.984H121.66l26.232 34.976a29.017 29.017 0 0 1 5.768 17.304c0 15.032 7.464 28.984 19.968 37.312l.696.464a86.223 86.223 0 0 0-2.032 7.976 136.464 136.464 0 0 0-2.632 26.608c0 5.216.368 10.408.96 15.56l-10.36 18.656c-1.736 3.128-3.664 6.136-5.592 9.144h-21.792zm57.24-107.352a84.75 84.75 0 0 0-9.408 14.088c-6.872-5.448-11.048-13.592-11.048-22.456 0-9.64-3.184-19.192-8.968-26.904l-6.328-8.44c1.504.328 3 .728 4.472 1.224 8.832 2.944 16.536 8.824 21.696 16.568l5.368 8.056a56.87 56.87 0 0 0 4.216 17.864zm3.544 183.816c-6.352 5.448-25.008 19.536-48 19.536-18.92 0-38.544-13.176-49.52-21.968 32.744-16.76 60.192-43.168 78.104-75.408l1.376-2.48c3.216 10.552 7.648 20.744 13.376 30.288l4.664 7.784v42.248zm32 28.672c-2.576-.672-5.224-1.136-8-1.136s-5.424.464-8 1.136v-65.136h16v65.136zm64 0c-2.576-.672-5.224-1.136-8-1.136s-5.424.464-8 1.136v-65.136h16v65.136zm6.952-86.936l-3.48 5.8H269.94l-.312-.472c-7.824-11.744-11.968-25.408-11.968-39.528h-16c0 14.12-4.144 27.784-11.968 39.528l-.312.472h-23.192l-3.48-5.8a119.706 119.706 0 0 1-17.048-61.56c0-7.856.784-15.752 2.328-23.464 1.864-9.328 5.68-18.08 11.024-25.808 3.056 3.648 6.552 6.96 10.496 9.776l40.152 28.688 40.16-28.68c3.952-2.824 7.448-6.128 10.496-9.776 5.344 7.728 9.16 16.48 11.024 25.808 1.536 7.704 2.32 15.6 2.32 23.456 0 21.68-5.896 42.968-17.048 61.56zm12.592-125.552a56.87 56.87 0 0 0 4.216-17.864l5.368-8.056c5.16-7.744 12.864-13.624 21.696-16.568a42.062 42.062 0 0 1 4.472-1.224l-6.328 8.44c-5.784 7.712-8.968 17.264-8.968 26.904 0 8.864-4.176 17.008-11.048 22.456a85.082 85.082 0 0 0-9.408-14.088zm93.992 181.392c-10.952 8.792-30.544 21.96-49.536 21.96-22.848 0-41.616-14.112-48-19.552v-42.232l4.664-7.776c5.728-9.544 10.16-19.736 13.376-30.288l1.376 2.48c17.92 32.232 45.368 58.648 78.12 75.408zm47.832-210.04c10.28 0 20.176-2.456 29.024-7.096-3.312 17.216-11.664 33.056-24.336 45.728l-25.368 25.368h25.424a84.21 84.21 0 0 0 24.888-3.792c-3 18.152-12.656 34.496-27.488 46.032-24.672 19.192-55.472 29.76-86.728 29.76h-21.792c-1.928-3-3.856-6.016-5.592-9.144l-10.36-18.656c.592-5.152.96-10.344.96-15.56 0-8.904-.888-17.856-2.64-26.608-.544-2.704-1.24-5.352-2.032-7.976l.696-.464c12.512-8.328 19.976-22.28 19.976-37.312 0-6.2 2.048-12.344 5.768-17.304l26.232-34.976h-23.872c-6.256 0-12.432 1-18.36 2.984-9.752 3.248-18.408 9.184-25.176 16.864-1.608-4.496-3.664-8.888-6.44-13.04-2.272-3.4-3.864-7.136-4.88-11.032l21.736-13.04c15.344-9.208 35.472-8.8 50.568 1.272 14.024 9.344 32.72 10.448 47.656 3.008l-.24.72c-4.968 14.912-14.912 27.936-28 36.656-18.064 12.04-30.904 30.272-36.168 51.328l-5.592 22.416 17.208-11.472a87.099 87.099 0 0 1 30.376-12.784l-18.36 18.36a39.23 39.23 0 0 0-10.312 18.2 23.15 23.15 0 0 1-22.488 17.56v16a39.128 39.128 0 0 0 38.016-29.68 23.204 23.204 0 0 1 6.096-10.776l47.544-47.544H414.5c-13.208 0-26.144 2.496-38.232 7.328 5.472-10.248 13.416-19.056 23.256-25.624 16.032-10.688 28.208-26.64 34.304-44.904l14.792-44.384-33.416 22.28c-10.432 6.952-24.552 7.024-35.2-.072-13.76-9.176-30.88-12.176-46.936-9.2 12.216-6.104 25.744-9.424 39.544-9.424 25.864 0 50.704-9.528 69.936-26.832l38.392-34.552c-2.648 34.152-12.52 67.616-28.952 97.744l-23.808 43.64h22.848z"/><path d="M117.66 115.312c19.848 0 36-16.152 36-36a81.985 81.985 0 0 0-4.2-25.912l-10.32-30.936-10.848 21.696L97.66 3.312v25.576a39.543 39.543 0 0 1-6.656 21.984l-1.344 2.016a47.503 47.503 0 0 0-8 26.424c0 19.848 16.152 36 36 36zm-14.688-53.544l1.344-2.016a55.972 55.972 0 0 0 6.256-12.56l20.456 27.28 4.96-9.92a65.761 65.761 0 0 1 1.672 14.76c0 11.024-8.976 20-20 20s-20-8.976-20-20a31.48 31.48 0 0 1 5.312-17.544zm278.688 53.544c19.848 0 36-16.152 36-36a47.523 47.523 0 0 0-8-26.424l-1.344-2.016a39.543 39.543 0 0 1-6.656-21.984V3.312l-30.632 40.84-10.848-21.696L349.86 53.4a81.985 81.985 0 0 0-4.2 25.912c0 19.848 16.152 36 36 36zm-18.328-50.768l4.96 9.92 20.456-27.28a55.804 55.804 0 0 0 6.256 12.56l1.344 2.016a31.525 31.525 0 0 1 5.312 17.552c0 11.024-8.976 20-20 20s-20-8.976-20-20c0-4.992.56-9.928 1.672-14.768z"/></svg>