<svg xmlns="http://www.w3.org/2000/svg" viewBox="0 0 496 496"><path d="M488.664 211.432l-14.92-29.832C477.72 173.92 480 165.232 480 156c0-29.952-23.656-54.416-53.264-55.864C418.752 94.664 388.792 76 352 76s-66.752 18.664-74.736 24.136C247.656 101.584 224 126.048 224 156c0 9.232 2.28 17.92 6.256 25.6l-14.92 29.832c-.976 1.96-1.8 3.992-2.584 6.032-3.072-9.12-4.752-18.72-4.752-28.336a39.914 39.914 0 0 0-17.816-33.28L96 93.048v16.304c0 29.064-7.904 57.608-22.856 82.528l-3.712 6.184 13.112 9.832c12.856 9.648 22.728 23 28.288 38.048-7.04 3.432-13.584 7.64-19.528 12.576l-27.912-41.864C53.32 201.568 48 183.944 48 164.984c0-15 3.848-29.856 11.136-42.968l24.512-44.104c10.688 2.872 22.312 1.056 31.976-5.376 5.376-3.592 11.56-5.456 18.104-5.296l67.888 1.232-61.712-44.08C128.56 16.288 115.192 12 101.248 12h-2.64c-24.4 0-46.336 13.56-57.232 35.368L15.504 99.096C5.36 119.368 0 142.136 0 164.92v.896a143 143 0 0 0 21.24 75.016l39.256 63.752C57.56 313.976 56 323.784 56 333.736V484h117.416l30.464-76.152c17.112 2.12 38.84 3.712 65.864 4.048L298.584 484h106.832L440 397.536v-49.232a68.347 68.347 0 0 0 3-6.512l8.64-8.64c10.136-10.136 16.712-22.864 19.2-36.68l4.8-4.8C488.768 278.544 496 261.088 496 242.52a69.924 69.924 0 0 0-7.336-31.088zM464 156c0 19.312-13.768 35.472-32 39.192v-8.328c13.76-3.576 24-16 24-30.864 0-17.648-14.352-32-32-32-6.336 0-12.432 1.944-17.64 5.408a46.807 46.807 0 0 0-8.6-3.464C404.952 119.68 414.224 116 424 116c22.056 0 40 17.944 40 40zm-32.088 13.824a47.322 47.322 0 0 0-11.576-29.344c1.192-.288 2.416-.48 3.664-.48 8.824 0 16 7.176 16 16 0 5.936-3.28 11.064-8.088 13.824zm-82.776 108.552l2.864-1.432 2.856 1.432A53.557 53.557 0 0 0 378.688 284c.296 0 .584-.04.88-.048C374.024 293.496 363.808 300 352 300c-11.808 0-22.024-6.504-27.576-16.048.296.008.584.048.88.048a53.557 53.557 0 0 0 23.832-5.624zM344 239.312a3.319 3.319 0 0 1 3.312-3.312h9.376a3.319 3.319 0 0 1 3.312 3.312c0 .872-.352 1.728-.968 2.344L352 248.688l-7.032-7.032a3.339 3.339 0 0 1-.968-2.344zM378.696 268c-5.76 0-11.528-1.36-16.68-3.936l-1.84-.92 10.168-10.168A19.214 19.214 0 0 0 376 239.312c0-1.784-.32-3.48-.776-5.12l.536-.136A61.129 61.129 0 0 1 373.944 220H388c11.024 0 20-8.976 20-20s-8.976-20-20-20l2.4-3.2-12.8-9.6-4.216 5.616c-10.376 13.84-15.664 30.432-15.44 47.312-.416-.032-.824-.128-1.256-.128h-9.376c-.432 0-.84.096-1.264.128.232-16.88-5.064-33.48-15.44-47.312L326.4 167.2l-12.8 9.6 2.4 3.2c-11.024 0-20 8.976-20 20s8.976 20 20 20h14.056c-.072 4.688-.648 9.4-1.816 14.056l.536.136c-.456 1.64-.776 3.336-.776 5.12 0 5.16 2.008 10.008 5.656 13.656l10.168 10.168-1.84.92a37.387 37.387 0 0 1-16.68 3.944C304.736 268 288 251.264 288 230.696V171.6c0-17.424 14.176-31.6 31.6-31.6 8.44 0 16.376 3.288 22.344 9.256L352 159.312l10.056-10.056C368.024 143.288 375.96 140 384.4 140c17.424 0 31.6 14.176 31.6 31.6v59.096C416 251.264 399.264 268 378.696 268zm-2.784-64a60.397 60.397 0 0 1 2.64-8H388c2.208 0 4 1.792 4 4s-1.792 4-4 4h-12.088zm-47.824 0H316c-2.208 0-4-1.792-4-4s1.792-4 4-4h9.448a61.588 61.588 0 0 1 2.64 8zM352 92c19.88 0 37.792 6.496 50.144 12.496-9.792 4.168-18.264 11.144-24.376 20.12-9.616 1.344-18.568 5.416-25.768 12.112-7.192-6.696-16.144-10.768-25.768-12.112-6.12-8.984-14.6-15.968-24.408-20.136C314.136 98.488 332.032 92 352 92zm-72 24c9.776 0 19.048 3.68 26.24 9.944-3 .88-5.88 2.04-8.6 3.464C292.432 125.944 286.336 124 280 124c-17.648 0-32 14.352-32 32 0 14.864 10.24 27.288 24 30.864v8.328c-18.232-3.72-32-19.872-32-39.192 0-22.056 17.944-40 40-40zm3.664 24.48a47.322 47.322 0 0 0-11.576 29.344C267.28 167.064 264 161.936 264 156c0-8.824 7.176-16 16-16 1.248 0 2.472.192 3.664.48zm-91.168 57.04c1.088 13.36 4.592 26.536 10.584 38.52l5.104 10.216c.904 17.16 7.936 33.176 20.176 45.416l.328.328h-41.456a61.447 61.447 0 0 1-31.608-8.752 61.144 61.144 0 0 1-25.352-29.728l62.224-56zm-80.992-74.912L174.48 164.6c-26.568 1.64-52.552 7-77.592 16.04 8.112-18.36 13.104-37.968 14.616-58.032zm-15.64 75.536c29.464-11.504 60.368-17.56 92.064-18.04l-63.408 57.072c-6.2-15.112-16.08-28.592-28.656-39.032zM98.608 28h2.64c10.592 0 20.744 3.256 29.36 9.408l19.776 14.12-16.36-.296c-9.616-.064-19.168 2.584-27.632 8.224-6.768 4.504-15.504 5.04-22.808 1.384h-.008l-1.712-.856-5.136-2.576v.008l-17.56-8.776C68.048 35.76 82.624 28 98.608 28zM51.576 62.728l17.368 8.688-6.136 11.04-16.88-8.44 5.648-11.288zm16.616 223.816L34.864 232.44A126.957 126.957 0 0 1 16 165.816v-.896c0-20.32 4.776-40.608 13.816-58.664l8.96-17.92 16.256 8.128-9.88 17.776C36.544 129.72 32 147.264 32 165.688c0 21.424 6.248 42.12 18.08 59.848l29.608 44.408a98.662 98.662 0 0 0-8.832 11.984c-.944 1.512-1.808 3.064-2.664 4.616zM162.584 468h-30.768l27.536-68.856c6.28 1.904 15.472 4.208 28.224 6.352L162.584 468zM264 395.832c-62.48-1.256-93.376-9.648-104-13.304v-37.84l-26.344-26.344-11.312 11.312L144 351.312v43.152L114.584 468H72V333.736a81.657 81.657 0 0 1 12.424-43.32c7.832-12.544 18.84-22.336 31.84-29.056 6.392 14.768 17.144 27.216 31.128 35.6a77.451 77.451 0 0 0 39.84 11.04h49.088c3.432 9.328 8.8 17.912 16.04 25.152l8.64 8.64a68.347 68.347 0 0 0 3 6.512v47.528zm160-1.376L394.584 468H360v-64h-16v64h-34.584L280 394.464v-25.776l16 15.984V356c0-8.848 2.512-17.888 6.864-25.408 6.44 9.592 18.824 23.68 41.136 37.792V388h16v-19.608c22.312-14.112 34.696-28.208 41.136-37.792 4.352 7.512 6.864 16.552 6.864 25.4v28.672l16-15.992v25.776zm47.12-122.384c-2.152-12.712-8.168-24.432-17.464-33.728l-11.312 11.312c8.808 8.808 13.656 20.512 13.656 32.976V284c0 10.672-3.104 20.864-8.88 29.552-2.144-12.712-8.168-24.432-17.464-33.728l-11.312 11.312c7.664 7.664 12.328 17.536 13.408 28.176-.592 9.4-3.472 18.368-8.616 26.104-2.176-13.36-8.376-25.976-17.48-35.08l-8.984-8.88-4.24 11.936c-.072.208-7.496 20.224-40.44 41.2-32.944-20.976-40.36-40.992-40.408-41.128l-4.096-12.28-9.152 9.152c-9.104 9.104-15.304 21.72-17.48 35.08-5.144-7.744-8.024-16.704-8.616-26.104 1.08-10.648 5.744-20.512 13.408-28.176l-11.312-11.312c-9.304 9.296-15.32 21.008-17.464 33.728C251.104 304.864 248 294.672 248 284v-1.368c0-12.456 4.848-24.168 13.656-32.976l-11.312-11.312c-9.304 9.304-15.32 21.016-17.464 33.728-5.776-8.688-8.88-18.88-8.88-29.552a53.77 53.77 0 0 1 5.648-23.928l11.28-22.552A55.831 55.831 0 0 0 272 211.36v19.336c0 22.44 13.96 41.648 33.632 49.496C311.04 300.76 329.752 316 352 316s40.96-15.24 46.368-35.808C418.04 272.336 432 253.136 432 230.696V211.36a55.831 55.831 0 0 0 31.072-15.32l11.28 22.552A53.77 53.77 0 0 1 480 242.52c0 10.672-3.104 20.864-8.88 29.552z"/></svg>