<svg xmlns="http://www.w3.org/2000/svg" viewBox="0 0 496 496"><path d="M250.343 210.368l24.002-24.002 11.314 11.313-24.002 24.002zm-16.015 11.292l-24.002-24.001 11.313-11.314 24.002 24.002zM280 216h16v16h-16zm-80 0h16v16h-16z"/><path d="M455.304 271.832l-3.592-3.216C427.936 247.24 399.168 232.032 368.4 224c30.76-8.032 59.536-23.24 83.312-44.616l3.592-3.224a20.339 20.339 0 0 0 5.736-21.376 20.324 20.324 0 0 0-17.208-13.928l-4.792-.496c-18.512-1.928-37.064-1.112-55.32 2.104.112-2.152.28-4.296.28-6.464v-8h-16c-1.648 0-3.28.136-4.92.2 11.032-18.608 18.96-38.72 23.512-60.048l1-4.704c1.672-7.84-1.44-15.96-7.928-20.664-6.48-4.704-15.16-5.16-22.112-1.152l-4.168 2.416c-27.68 16-51.032 38.664-68.176 65.44 1.872-31.744-3.704-63.808-16.688-93.016l-1.96-4.416A20.336 20.336 0 0 0 248 0a20.33 20.33 0 0 0-18.56 12.064l-1.952 4.4c-12.984 29.216-18.56 61.28-16.688 93.024-17.144-26.776-40.504-49.44-68.176-65.44l-4.176-2.416c-6.936-4.016-15.616-3.56-22.104 1.152a20.309 20.309 0 0 0-7.928 20.664l1 4.712c4.552 21.32 12.472 41.44 23.512 60.04-1.648-.064-3.28-.2-4.928-.2h-16v8c0 2.16.168 4.312.288 6.456-18.256-3.216-36.8-4.024-55.32-2.104l-4.8.496a20.324 20.324 0 0 0-17.208 13.928 20.339 20.339 0 0 0 5.736 21.376l3.584 3.224c23.776 21.376 52.544 36.584 83.312 44.616-30.76 8.032-59.536 23.24-83.312 44.616l-3.584 3.232a20.339 20.339 0 0 0-5.736 21.376 20.324 20.324 0 0 0 17.208 13.928l4.792.496c6.824.712 13.68 1.064 20.536 1.064 20.584 0 41.136-3.368 60.736-9.6l5.84 3.896c-16.816 22.808-28.744 49.064-34.664 76.84l-1 4.712c-1.672 7.84 1.44 15.96 7.928 20.664a20.325 20.325 0 0 0 11.944 3.872c3.504 0 7.008-.904 10.168-2.72l4.168-2.416c.576-.336 1.104-.728 1.68-1.064a318.954 318.954 0 0 0 16.12 87.64l1.816 5.472h43.528l1.824-5.472c8.728-26.184 13.944-53.256 15.696-80.696C229.264 413.28 237.352 416 248 416s18.736-2.72 24.712-6.168c1.752 27.448 6.968 54.512 15.696 80.696l1.824 5.472h43.528l1.824-5.472a318.943 318.943 0 0 0 16.112-87.64c.568.336 1.104.736 1.68 1.064l4.176 2.416a20.275 20.275 0 0 0 10.168 2.72 20.301 20.301 0 0 0 19.864-24.536l-1-4.72c-5.896-27.64-17.888-54.072-34.664-76.84l5.624-3.752c19.752 6.312 40.048 9.488 60.568 9.488 6.952 0 13.936-.36 20.92-1.096l4.8-.496a20.324 20.324 0 0 0 17.208-13.928 20.339 20.339 0 0 0-5.736-21.376zM143.992 384.136c-3.08 2.048-6.176 4.112-9.392 5.968l-4.168 2.416a4.316 4.316 0 0 1-4.696-.248 4.316 4.316 0 0 1-1.68-4.384l1-4.712c1.824-8.56 4.328-16.936 7.344-25.12 2.928-.872 7.24-1.576 11.592-.48v26.56zM144 341.24a34.78 34.78 0 0 0-4.312-.296c.816-1.664 1.688-3.304 2.552-4.944H144v5.24zm219.576 16.8c3.032 8.208 5.544 16.592 7.368 25.128l1 4.72a4.306 4.306 0 0 1-1.688 4.384 4.3 4.3 0 0 1-4.688.248l-4.176-2.416c-3.192-1.848-6.296-3.912-9.392-5.96v-26.632c4.296-1.072 8.624-.344 11.576.528zM352 336h1.8c.88 1.664 1.696 3.352 2.52 5.048-1.416 0-2.832.016-4.32.208V336zm59.2-180.488c8.712-.32 17.448-.152 26.176.76l4.8.496a4.307 4.307 0 0 1 3.648 2.952c.52 1.624.048 3.4-1.216 4.536l-3.584 3.224c-6.52 5.864-13.52 11.128-20.784 15.968-4.088-1.456-10.288-4.68-12.464-11.368-2.184-6.72.968-12.992 3.424-16.568zm-29.616 3.592c3.696-.752 7.4-1.504 11.12-2.032-1.856 5.68-2.568 12.528-.152 19.96 2.408 7.4 6.968 12.504 11.784 16.008-14.872 7.88-30.808 13.632-47.272 17.224 12.36-14.84 20.72-32.448 24.52-51.16zm-37.68 42.064l-8.896 10.36c-1.208-8.44-3.584-16.488-7.016-23.992 8.496-7.432 19.24-11.536 30.64-11.536h.976c-3.944 9.056-9.192 17.56-15.704 25.168zM367.68 144a99.62 99.62 0 0 1-2.624 16h-6.432c-14.232 0-27.72 4.76-38.712 13.448a88.765 88.765 0 0 0-10.824-12.648c17.528-10.808 37.968-16.736 58.592-16.8zm-6.28-86.104l4.168-2.416a4.33 4.33 0 0 1 4.696.248 4.316 4.316 0 0 1 1.68 4.384l-1 4.712c-1.84 8.64-4.48 16.976-7.496 25.168-4.152 1.216-11.016 2.216-16.688-1.904-5.688-4.136-6.84-11.024-6.968-15.36 6.848-5.416 14.016-10.44 21.608-14.832zm-35.64 26.976c1.848 5.664 5.296 11.584 11.584 16.16 6.248 4.536 12.888 5.992 18.8 6.016-3.984 8.152-8.424 16.096-13.632 23.648-16.608 3.4-32.496 10.064-46.544 19.624-3.544-2.312-7.272-4.344-11.144-6.136 9.632-22.296 23.568-42.504 40.936-59.312zM242.104 22.96l1.952-4.4c1.384-3.112 6.504-3.104 7.88 0l1.96 4.408c3.56 8.016 6.4 16.296 8.768 24.696C260.016 51.104 255.032 56 248 56s-12.008-4.896-14.664-8.336c2.36-8.408 5.208-16.688 8.768-24.704zm-12.976 42.776C233.952 69.232 240.224 72 248 72s14.048-2.768 18.872-6.264c4.16 23.776 3.568 48.288-1.736 71.96C259.584 136.6 253.864 136 248 136s-11.584.6-17.136 1.704c-5.296-23.672-5.896-48.192-1.736-71.968zM170.24 84.872c17.36 16.808 31.304 37.016 40.928 59.312-3.872 1.792-7.6 3.824-11.144 6.136-14.048-9.56-29.936-16.216-46.544-19.624-5.208-7.552-9.64-15.496-13.624-23.648 5.92-.032 12.56-1.48 18.8-6.016 6.296-4.576 9.744-10.496 11.584-16.16zm-37.688 5.112c-3.016-8.184-5.656-16.52-7.496-25.152l-1-4.72a4.306 4.306 0 0 1 1.688-4.384 4.333 4.333 0 0 1 4.688-.248l4.176 2.416c7.592 4.392 14.76 9.416 21.608 14.824-.128 4.344-1.28 11.232-6.968 15.368-5.648 4.104-12.52 3.112-16.696 1.896zm54.36 70.816a88.765 88.765 0 0 0-10.824 12.648c-11-8.688-24.48-13.448-38.72-13.448h-6.432a100.517 100.517 0 0 1-2.624-16c20.632.064 41.072 5.992 58.6 16.8zm-18.888 26.736c-3.448 7.496-5.832 15.552-7.032 23.992l-8.88-10.36c-6.52-7.608-11.76-16.112-15.704-25.168h.976c11.4 0 22.144 4.104 30.64 11.536zm-79.8-15.448c-2.168 6.688-8.368 9.912-12.464 11.368-7.264-4.84-14.256-10.104-20.784-15.968l-3.576-3.224a4.31 4.31 0 0 1-1.216-4.536 4.303 4.303 0 0 1 3.648-2.96l4.8-.496c8.72-.912 17.456-1.08 26.168-.744 2.456 3.576 5.608 9.848 3.424 16.56zm3.432 20.952c4.816-3.504 9.384-8.616 11.784-16.016 2.416-7.432 1.704-14.272-.152-19.952 3.728.528 7.424 1.272 11.12 2.032 3.808 18.712 12.168 36.32 24.52 51.16-16.464-3.584-32.408-9.344-47.272-17.224zm-6.872 99.464c-8.728.336-17.48.136-26.16-.776l-4.8-.496a4.307 4.307 0 0 1-3.648-2.952 4.322 4.322 0 0 1 1.216-4.536l3.584-3.224c6.52-5.864 13.52-11.128 20.784-15.968 4.088 1.456 10.288 4.68 12.464 11.368 2.184 6.728-.984 13.016-3.44 16.584zm38.376-5.56a185.753 185.753 0 0 1-19.84 3.904c1.832-5.664 2.52-12.48.12-19.88-2.408-7.4-6.968-12.504-11.784-16.008 14.728-7.808 30.496-13.536 46.792-17.128l-15.952 7.976 24.944 24.952-24.28 16.184zM208 389.392c0 30.808-4.648 61.256-13.824 90.608h-20.352A303.14 303.14 0 0 1 160 389.4v-53.88c8.568-.792 16.896-2.856 24.784-6.04 2.432 16.256 10.952 30.536 23.216 40.392v19.52zM248 400c-14.96 0-21.8-7.336-24.008-10.36 0-.08.008-.16.008-.232v-10.112c7.416 3.008 15.512 4.704 24 4.704a63.562 63.562 0 0 0 24-4.712V389.4c0 .08.008.16.008.232C269.8 392.664 262.96 400 248 400zm0-32c-25.912 0-47.04-20.648-47.92-46.352 5.216-3.4 10.032-7.408 14.448-11.864C221.68 320.72 233.984 328 248 328c14.016 0 26.32-7.28 33.464-18.216 4.416 4.456 9.232 8.464 14.448 11.864C295.04 347.352 273.912 368 248 368zm0-75.056c4.664 5.336 10.984 9.152 18.24 10.48-4.408 5.2-10.904 8.576-18.24 8.576s-13.832-3.376-18.24-8.584c7.256-1.328 13.576-5.136 18.24-10.472zM240 256v-8h16v8c0 4.408-3.592 8-8 8-4.408 0-8-3.592-8-8zm96 133.408c0 30.792-4.648 61.24-13.824 90.592h-20.352A303.14 303.14 0 0 1 288 389.4v-19.52c12.272-9.856 20.784-24.136 23.216-40.392 7.888 3.184 16.216 5.248 24.784 6.04v53.88zM345.576 288l-20.672 13.784 11.904 17.848c-17.264-1.752-33.456-9.784-45.336-22.424C299.04 291.352 304 282.288 304 272h-16c0 8.824-7.176 16-16 16-6.648 0-12.352-4.08-14.768-9.856C265.896 274.52 272 265.96 272 256v-24h-48v24c0 9.96 6.104 18.52 14.768 22.144C236.352 283.92 230.648 288 224 288c-8.824 0-16-7.176-16-16h-16c0 10.288 4.96 19.352 12.528 25.208-11.88 12.64-28.072 20.664-45.336 22.424l11.904-17.848L150.424 288l22.136-14.76-23.056-23.048L176 236.944V224c0-39.696 32.304-72 72-72s72 32.304 72 72v12.944l26.496 13.248-23.056 23.048L345.576 288zm46.992-17.032c-2.416 7.424-1.712 14.264.136 19.936A182.627 182.627 0 0 1 372.928 287l-24.368-16.248 24.944-24.952-15.952-7.976c16.296 3.592 32.072 9.32 46.8 17.128-4.816 3.504-9.384 8.616-11.784 16.016zm53.256 17.304a4.303 4.303 0 0 1-3.648 2.96l-4.8.496c-8.728.912-17.44 1.16-26.104.832-2.464-3.56-5.688-9.88-3.488-16.648 2.168-6.688 8.368-9.912 12.464-11.368 7.264 4.84 14.256 10.104 20.784 15.968l3.584 3.224a4.353 4.353 0 0 1 1.208 4.536z"/></svg>