<svg xmlns="http://www.w3.org/2000/svg" viewBox="0 0 497.616 497.616"><path d="M240.804 33.616h16v16h-16zm32 96h16v16h-16zm-64 0h16v16h-16zm32 24h16v16h-16z"/><path d="M360.628 326.128c-1.264-17.496-11.936-32.392-26.984-39.688l.152-.088c16.656-10 27.008-28.272 27.008-47.712 0-7.92-1.88-15.624-5.368-22.648 16.872-4.688 29.368-20.024 29.368-38.376 0-19.32-13.768-35.48-32-39.192v-26.16a89.85 89.85 0 0 0-12.792-46.184c-7.664-12.776-20.72-21.376-35.208-23.744v-5L248.804 0l-56 37.336v5c-14.488 2.368-27.544 10.968-35.208 23.744a89.85 89.85 0 0 0-12.792 46.184v26.16c-18.232 3.712-32 19.88-32 39.192 0 18.352 12.496 33.688 29.368 38.384-3.488 7.024-5.368 14.72-5.368 22.64 0 19.432 10.352 37.712 27.008 47.704l.152.088c-15.048 7.296-25.72 22.184-26.984 39.688L36.252 426.856l8.12 5.416c3.992 2.672 99.224 65.344 204.432 65.344s200.44-62.672 204.44-65.344l8.12-5.416-100.736-100.728zM208.804 45.896l40-26.664 40 26.664v11.72h-80v-11.72zm-80 131.72c0-13.232 10.768-24 24-24h8v-41.352a73.845 73.845 0 0 1 10.504-37.952c4.784-7.96 12.632-13.552 21.496-15.696v15h112v-15c8.864 2.144 16.712 7.736 21.496 15.688a73.916 73.916 0 0 1 10.504 37.96v41.352h8c13.232 0 24 10.768 24 24s-10.768 24-24 24v.136c-5.928-5.624-13.064-9.904-21.016-12.176l-25.928-7.408c14.08-13.152 22.944-31.816 22.944-52.552V97.608h-38.136a68.041 68.041 0 0 1-30.288-7.152l-3.592-1.776-3.568 1.784a68.158 68.158 0 0 1-30.28 7.144h-38.136v32.008c0 20.736 8.864 39.4 22.944 52.552l-25.928 7.408c-7.952 2.272-15.088 6.552-21.016 12.176v-.136c-13.232 0-24-10.768-24-24zm120 8c-30.872 0-56-25.12-56-56v-16.008h22.136c11.6 0 23.224-2.464 33.864-7.16 10.624 4.696 22.248 7.168 33.864 7.168h22.136v16c0 30.88-25.128 56-56 56zm14.584 14.512c-2.504 5.576-8.088 9.488-14.584 9.488s-12.08-3.912-14.584-9.488c4.712.976 9.592 1.488 14.584 1.488s9.872-.512 14.584-1.488zM152.804 238.64a34.939 34.939 0 0 1 5.88-19.432 35.077 35.077 0 0 1 19.52-14.248l38.488-11c.048.024.104.048.152.072.24 17.456 14.456 31.584 31.96 31.584s31.72-14.128 31.96-31.576c.048-.024.104-.048.152-.072l38.488 11a35.077 35.077 0 0 1 19.52 14.248 34.894 34.894 0 0 1 5.88 19.424c0 13.84-7.376 26.864-19.24 33.992l-11.512 6.912-25.2-25.2c.472-11.736 5.264-22.704 13.616-31.064l-11.312-11.312c-11.344 11.344-17.736 26.288-18.248 42.248l-13.752 13.752-5.664 5.648-4.688 4.688-10.344-10.344-13.752-13.752c-.512-15.96-6.904-30.896-18.248-42.248l-11.312 11.312c8.352 8.36 13.152 19.328 13.616 31.064l-25.2 25.2-11.512-6.912c-11.872-7.112-19.248-20.136-19.248-33.984zm111.032 54.688l-3.72-3.712 4.688-4.688 20.688 20.688-13.064 13.064c.152-1.224.376-2.432.376-3.696 0-8.176-3.184-15.864-8.968-21.656zm12.28-19.712l4.688-4.688 20.688 20.688-4.688 4.688-20.688-20.688zm-43.312 11.312l19.72 19.712a14.555 14.555 0 0 1 4.28 10.344c0 8.072-6.56 14.632-14.624 14.632-3.848 0-7.616-1.56-10.344-4.288l-19.72-19.712 20.688-20.688zm-32 9.376l-4.688-4.688 20.688-20.688 4.688 4.688-20.688 20.688zm-19.008 3.616l19.008 19.008 19.72 19.712c5.784 5.792 13.464 8.976 21.656 8.976 2.304 0 4.536-.304 6.696-.792 2.144.472 4.328.792 6.552.792 8.184 0 15.872-3.184 21.656-8.976l19.72-19.712 19.008-19.008c16.224 1.544 28.992 15.08 28.992 31.696 0 17.648-14.352 32-32 32-7.12 0-13.944-2.44-19.752-7.048l-10.448-8.296-2.4 13.12c-2.776 15.2-15.976 26.224-31.4 26.224s-28.624-11.024-31.408-26.216l-2.4-13.12-10.448 8.296c-5.8 4.6-12.624 7.04-19.744 7.04-17.648 0-32-14.352-32-32 0-16.616 12.768-30.152 28.992-31.696zm-45.792 161.448c-34.408-12.696-61.456-27.56-74.392-35.248l29.896-29.896c11.952 2.408 50.504 12.712 71.688 46.776-11.536.6-22.072 7.52-27.192 18.368zm15.144 5.248c3.864-6.328 11.76-9.328 18.984-6.776 6.576 2.32 10.624 8.536 10.608 15.144a384.297 384.297 0 0 1-29.592-8.368zm148.728 11.992c-16.552 3.08-33.696 5.008-51.072 5.008-17.776 0-35.328-2.032-52.248-5.24 1.048-9.736-2.472-19.296-9.264-26.064 7.12-5.944 25-16.696 61.512-16.696 35.856 0 53.744 10.368 61.088 16.328-7.192 6.704-11.08 16.472-10.016 26.664zm15.72-3.304c0-7.256 4.936-13.848 12.296-15.584a15.946 15.946 0 0 1 12.088 1.968c2.184 1.352 3.912 3.216 5.208 5.352a378.314 378.314 0 0 1-29.592 8.264zm44.944-13.528a31.745 31.745 0 0 0-12.144-13.68c-4.416-2.736-9.336-4.176-14.368-4.56 8.848-14.584 21.712-26.472 38.512-35.336l-7.472-14.152c-20.632 10.896-36.224 25.8-46.584 44.336-10.608-8.08-31.768-18.768-69.68-18.768-37.88 0-59.032 10.664-69.648 18.744-19.816-35.448-54.52-49.848-74.376-55.408l34.96-34.96c6.72 18.416 24.352 31.624 45.064 31.624 7.04 0 13.864-1.552 20.168-4.552 7.528 17.048 24.528 28.552 43.832 28.552s36.304-11.504 43.832-28.552a46.715 46.715 0 0 0 20.168 4.552c20.712 0 38.344-13.208 45.064-31.624l34.984 34.984c-3.256.92-6.888 2.064-10.816 3.52l5.544 15.008c7.912-2.928 14.584-4.512 18.504-5.296l29.928 29.928c-13.072 7.76-40.552 22.856-75.472 35.64z"/></svg>