<svg xmlns="http://www.w3.org/2000/svg" viewBox="0 0 496 496"><path d="M76 312c0 17.648 14.352 32 32 32s32-14.352 32-32v-32H76v32zm16-16h32v16c0 8.824-7.176 16-16 16s-16-7.176-16-16v-16zm174.656-75.56l-13.272-8.928c-.032.04-2.6 3.712-8.088 7.888l9.688 12.736c7.64-5.816 11.28-11.112 11.672-11.696zM204 248c14.272 0 27.32-2.824 38.784-8.392l-7-14.392C226.52 229.72 215.832 232 204 232c-34.832 0-48.808-19.656-49.384-20.496l-13.272 8.928C142.096 221.56 160.216 248 204 248z"/><path d="M452 192h-43.312L344 256.688l-1.376-1.376c-4.648-4.648-11.08-7.312-17.656-7.312-2.528 0-4.912.488-7.216 1.192l-18.04-41.232a40.007 40.007 0 0 0-36.64-23.96H249.16a72.202 72.202 0 0 0 22.792-32.4C287.72 149.632 300 136.296 300 120V96c0-52.936-43.064-96-96-96s-96 43.064-96 96v24c0 16.296 12.28 29.632 28.056 31.6a72.202 72.202 0 0 0 22.792 32.4h-15.072c-15.24 0-28.952 8.472-35.776 22.112l-14.2 28.392a38.92 38.92 0 0 0-4.536 1.92l-32 16C49.088 256.512 44 264.736 44 273.888V312c0 35.288 28.712 64 64 64 5.576 0 10.96-.792 16.128-2.136l-9.864 19.72 4.08 4.08c1.144 1.152 8.536 7.752 29.024 12.712l-6.448 32.232-20.296 10.152C112.832 456.64 108 464.464 108 473.168 108 485.76 118.24 496 130.832 496h36.048c11.408 0 21.304-8.12 23.528-19.296l12.144-60.728c.504 0 .944.024 1.448.024.496 0 .944-.024 1.44-.024l12.144 60.728C219.816 487.88 229.712 496 241.12 496h36.048C289.76 496 300 485.76 300 473.168c0-8.704-4.832-16.528-12.624-20.424l-20.296-10.152-6.336-31.688c24.392-4.952 35.024-11.8 35.696-12.248l5.4-3.6-19.936-49.84L308 371.312l11.688-11.688c14.672-1.712 26.232-13.272 27.944-27.944l.368-.368 5.376 5.376c4.648 4.648 11.08 7.312 17.656 7.312C384.8 344 396 332.8 396 319.032c0-6.672-2.592-12.944-7.312-17.656L387.312 300 452 235.312V192zm-176.304-58.064c.168-1.96.304-3.928.304-5.936v-21.776c4.76 2.776 8 7.88 8 13.776 0 6.016-3.376 11.208-8.304 13.936zM124 120c0-5.896 3.24-11 8-13.776V128c0 2.008.136 3.976.304 5.936-4.928-2.728-8.304-7.92-8.304-13.936zm9.24-31.248c-3.248.704-6.256 1.992-9.056 3.6C126.112 49.936 161.12 16 204 16s77.888 33.936 79.816 76.352c-2.8-1.608-5.808-2.896-9.056-3.6C271.664 79.072 262.688 72 252 72a11.25 11.25 0 0 1-8-3.312l-16-16-16 16A11.25 11.25 0 0 1 204 72h-48c-10.688 0-19.664 7.072-22.76 16.752zM148 128V96c0-4.408 3.584-8 8-8h48c7.288 0 14.152-2.84 19.312-8L228 75.312 232.688 80c5.168 5.16 12.024 8 19.312 8 4.416 0 8 3.592 8 8v32c0 30.88-25.128 56-56 56s-56-25.12-56-56zm-25.688 85.264C126.408 205.08 134.624 200 143.776 200H180v-4.2c7.52 2.672 15.576 4.2 24 4.2s16.48-1.528 24-4.2v4.2h35.072a24.024 24.024 0 0 1 21.992 14.376l6.384 14.6C281.776 237.464 248.008 264 204 264c-12.816 0-25.872-2.336-38.824-6.824-1.848-1.888-3.984-3.528-6.44-4.752l-32-16c-4.368-2.176-9.12-3.536-13.968-4.072l9.544-19.088zM268 296l13.144 31.552-4.504 4.504-8.64-21.6V296zm-88 8h-8v-28.128c10.68 2.68 21.392 4.128 32 4.128 17.824 0 34.008-3.776 48-9.048V304h-72zm32 16v16h-16v-16h16zm-104 40c-26.472 0-48-21.528-48-48v-38.112a7.95 7.95 0 0 1 4.424-7.152l32-16C100 248.944 104 248 108 248s8 .944 11.576 2.736l32 16a7.95 7.95 0 0 1 4.424 7.152V312c0 26.472-21.528 48-48 48zm66.728 113.568A8.017 8.017 0 0 1 166.88 480h-36.048c-3.76 0-6.832-3.064-6.832-6.832a6.783 6.783 0 0 1 3.784-6.112l27.296-13.648L157.76 440h23.68l-6.712 33.568zM184.64 424h-23.68l2.128-10.632c6.736.976 14.528 1.704 23.256 2.16L184.64 424zm38.72 0l-1.696-8.472c8.552-.424 16.344-1.112 23.28-2.016L247.04 424h-23.68zm56.856 43.056a6.783 6.783 0 0 1 3.784 6.112c0 3.768-3.072 6.832-6.832 6.832H241.12c-3.808 0-7.104-2.704-7.84-6.432L226.56 440h23.68l2.68 13.408 27.296 13.648zM204 400c-41.32 0-61.424-6.872-69.616-10.864l13.632-27.264c12.632-10.16 21.312-25 23.432-41.872H180v32h48v-32h26.584l27.248 68.12C271.656 392.384 247.416 400 204 400zm72.496-125.192l-5.256-12.624c11.832-6.352 21.008-13.064 26.904-17.896l6.336 14.472c-.624.904-1.12 1.888-1.632 2.872l-26.352 13.176zm6.176 14.8l18.552-9.272c1.184 3.832 3.176 7.376 6.088 10.288l5.376 5.376-19.312 19.312-10.704-25.704zM308 348.688L295.312 336 324 307.312 336.688 320 308 348.688zM371.032 328c-2.36 0-4.672-.96-6.344-2.624l-46.064-46.064a8.9 8.9 0 0 1-2.624-6.344c0-4.944 4.024-8.968 8.968-8.968 2.36 0 4.672.96 6.344 2.624l46.064 46.064a8.9 8.9 0 0 1 2.624 6.344c0 4.944-4.024 8.968-8.968 8.968zM436 228.688l-60 60L355.312 268l60-60H436v20.688z"/><path d="M228 104h16v16h-16zm-64 0h16v16h-16zm32 48h16v16h-16z"/></svg>