<svg xmlns="http://www.w3.org/2000/svg" viewBox="0 0 499.376 499.376"><path d="M201.688 105.688h16v16h-16zm80 0h16v16h-16zm-40 40h16v16h-16z"/><path d="M499.376 266.096l-2.904-4.648c-24.104-38.576-29.016-85.208-13.48-127.96l10.12-27.8h-11.424c-57.76 0-99.144 23.712-119.472 38.608-.304-2.184-.528-4.392-.528-6.608 0-8.272 13.736-14.784 18.528-16.408l17.936-6.016-16.84-8.704c-.12-.064-11.624-6.136-11.624-16.872 0-13.84 7.088-28.288 7.168-28.432l10.616-21.4-57.784 28.888v-3.056c0-35.288-28.712-64-64-64h-32c-35.288 0-64 28.712-64 64v3.056l-57.776-28.88 10.608 21.384c.08.152 7.168 14.6 7.168 28.44 0 10.736-11.504 16.808-11.576 16.84l-17.272 8.64 18.32 6.112c3.912 1.304 18.528 7.912 18.528 16.408 0 2.216-.224 4.424-.528 6.608-20.328-14.896-61.712-38.608-119.472-38.608H6.264l10.12 27.808c15.536 42.744 10.624 89.384-13.48 127.96L0 266.104l4.016 5.36c27.424 36.56 32.92 85.216 14.36 126.984L10 417.288l93.608-40.96c11.176 7.368 18.08 19.904 18.08 33.36v8h8c26.56 0 50.44 14.76 62.312 38.504l1.688 3.384v38.112h112v-38.112l1.688-3.376c11.872-23.752 35.752-38.512 62.312-38.512h8v-8c0-13.456 6.904-25.992 18.08-33.36l93.608 40.952L481 398.44c-18.56-41.768-13.064-90.424 14.36-126.984l4.016-5.36zM329.688 113.688V86.632l26.008-13c-1.168 4.968-2.008 10.488-2.008 16.056 0 9.784 4.376 17.184 9.072 22.312-8.096 5.016-17.072 13.36-17.072 25.688 0 5.568.84 11.088 2.008 16.056l-23.312-11.656c3.376-8.84 5.304-18.384 5.304-28.4zm-144-48c0-26.472 21.528-48 48-48h32c26.472 0 48 21.528 48 48v16h-16v-24h-16v24h-24v-24h-16v24h-24v-24h-16v24h-16v-16zm0 32h128v16c0 35.288-28.712 64-64 64s-64-28.712-64-64v-16zm133.824 113.704a23.965 23.965 0 0 1 18.176 23.28v103.016c0 4.408-3.584 8-8 8s-8-3.592-8-8v-72c0-26.472-21.528-48-48-48-8.464 0-16.656 2.256-24 6.568-7.344-4.312-15.536-6.568-24-6.568-26.472 0-48 21.528-48 48v72c0 4.408-3.584 8-8 8s-8-3.592-8-8V234.672a23.965 23.965 0 0 1 18.176-23.28l45.824-11.456V190a79.885 79.885 0 0 0 24 3.688c8.36 0 16.416-1.304 24-3.688v9.936l45.824 11.456zm-53.824 38.296c-6.168 0-11.744 2.408-16 6.24-4.256-3.84-9.832-6.24-16-6.24-13.232 0-24 10.768-24 24h16c0-4.408 3.584-8 8-8s8 3.592 8 8c0 13.232-10.768 24-24 24s-24-10.768-24-24v-8c0-17.648 14.352-32 32-32 6.856 0 13.496 2.272 19.176 6.56l4.824 3.64 4.824-3.64c5.68-4.288 12.32-6.56 19.176-6.56 17.648 0 32 14.352 32 32v8c0 13.232-10.768 24-24 24s-24-10.768-24-24c0-4.408 3.584-8 8-8s8 3.592 8 8h16c0-13.232-10.768-24-24-24zM136.616 112c4.696-5.128 9.072-12.528 9.072-22.312 0-5.568-.84-11.088-2.008-16.056l26.008 13v27.056c0 10.016 1.928 19.56 5.304 28.4l-23.312 11.656c1.168-4.968 2.008-10.488 2.008-16.056 0-12.328-8.976-20.672-17.072-25.688zM39.6 386.864c11.976-41.224 4.712-86.096-20.312-121.608 24.272-41.832 28.736-91.536 12.128-137.232l-2.168-5.984c52.104 3.208 88.64 27.368 103.432 39.032-1.184 3.048-2.128 4.992-2.152 5.048l-10.616 21.4 62.256-31.12a80.476 80.476 0 0 0 27.528 26.464v4.576L176 195.864c-8.552 2.136-15.808 6.96-21.112 13.384-17.344-9.968-36.048-16.968-55.752-20.616l-2.904 15.736c18.104 3.352 35.288 9.808 51.192 19.024-1.064 3.6-1.736 7.368-1.736 11.28v18.304c-27.504-12.584-57.752-19.288-88-19.288v16c30.168 0 60.376 7.128 87.352 20.624l.648.32v35.504a153.387 153.387 0 0 0-13.112-7.56l-7.28 14.24c7.184 3.68 13.976 8.104 20.392 12.96v11.912c0 .912.168 1.768.272 2.656L39.6 386.864zm154.088 43.512c-12.496-14.112-29.32-23.576-47.984-27.088 13.288-13.824 29.608-24.28 47.984-30.48v57.568zm3.344-96.04l-5.128 15.4 1.784.896v5.288l-4.584 1.528c-20.84 6.944-39.36 18.704-54.472 34.28-2.928-8.568-7.832-16.384-14.432-22.656l32.672-14.296c4.336 4.264 10.272 6.912 16.816 6.912 13.232 0 24-10.768 24-24V305.48c2.424 1.84 5.008 3.464 7.816 4.712-.408 8.208-1.856 16.312-4.472 24.144zm44.656 147.352h-32V358.632l32 16v107.056zm-30.216-140.056l.744-2.232a106.235 106.235 0 0 0 5.16-25.744c.104 0 .2.032.312.032 13.128 0 24.704-6.448 32-16.248 7.296 9.8 18.872 16.248 32 16.248.112 0 .208-.032.32-.032a106.54 106.54 0 0 0 5.152 25.736l.752 2.24-38.224 19.112-38.216-19.112zm78.216 140.056h-32V374.632l32-16v123.056zm16-51.312v-56.224c16.512 7.768 31.776 17.6 45.584 29.504-17.72 3.848-33.616 13.208-45.584 26.72zm58.496-36.888c-17.408-15.448-37.024-27.856-58.496-37.072v-5.784l1.784-.888-5.136-15.408c-2.608-7.824-4.056-15.928-4.464-24.136 2.816-1.248 5.392-2.88 7.816-4.712v32.2c0 13.232 10.768 24 24 24 6.544 0 12.48-2.648 16.816-6.912l32.672 14.296c-7.048 6.696-12.168 15.152-14.992 24.416zm95.592-6.624l-106.352-46.528c.096-.88.264-1.736.264-2.648v-11.992c19.008-14.376 41.392-23.664 65.056-26.808l-2.112-15.856c-22.504 2.992-43.952 10.984-62.944 23.184V270.64l.648-.328c5.92-2.96 12.04-5.64 18.176-7.96l-5.656-14.968c-4.432 1.672-8.824 3.576-13.168 5.568V234.68c0-3.928-.672-7.696-1.744-11.312 24.416-14.152 52.144-21.68 80.392-21.68h1.352v-16h-1.352c-30.864 0-61.144 8.176-87.872 23.536-5.296-6.408-12.544-11.224-21.088-13.352l-33.688-8.432v-4.576a80.476 80.476 0 0 0 27.528-26.464l62.248 31.112-10.608-21.384c-.024-.048-.976-2-2.152-5.048 14.8-11.664 51.328-35.824 103.432-39.032l-2.168 5.984c-16.608 45.696-12.152 95.392 12.128 137.232-25.032 35.504-32.296 80.376-20.32 121.6z"/><path d="M433.856 297.72l15.832-.032v-16l-16.168.032zm7.832-64.032c-19.856 0-39.6 2.8-58.688 8.32l4.44 15.368a195.139 195.139 0 0 1 54.248-7.688v-16zm-392 48v16h12.776c16.592 0 32.88 2.952 48.416 8.776l5.608-14.984a153.415 153.415 0 0 0-54.024-9.792H49.688zm31.304-79.392l1.392-15.936a176.04 176.04 0 0 0-15.344-.672h-1.352v16h1.352c4.624 0 9.32.2 13.952.608z"/></svg>