<svg xmlns="http://www.w3.org/2000/svg" viewBox="0 0 496 496"><path d="M192 120h16v16h-16zm-80 0h16v16h-16zm48 64c-6.448 0-7.904-4.4-8-8.096l-8 .096h-8c0 9.648 6.392 24 24 24s24-14.352 24-24l-16-.096c-.096 3.696-1.552 8.096-8 8.096zm-40 80h16v16h-16zm64 0h16v16h-16z"/><path d="M487.384 392H488v-2.736c.064-.224.088-.464.16-.688a204.013 204.013 0 0 0 7.84-56c0-25.72-10.016-49.896-28.2-68.088C457.168 253.848 443.032 248 428 248c-15.032 0-29.168 5.848-39.8 16.488l-14.4 14.4C356.992 264.64 335.288 256 311.576 256h-40.008c-2.136-18.288-16.44-33.032-35.152-35.12L200 216.832v-2.552c26.2-13.44 44.808-39.584 47.592-70.288H264c12.048 0 23.976-3.976 33.592-11.2C311.624 122.28 320 105.528 320 88V72h-8c-19.616 0-39.072 4.704-56.632 13.336C250.048 37.408 209.328 0 160 0S69.952 37.408 64.632 85.336C47.072 76.704 27.616 72 8 72H0v16c0 17.528 8.376 34.28 22.4 44.8C32.024 140.024 43.952 144 56 144h16.408c2.784 30.704 21.4 56.848 47.592 70.288v2.552l-36.416 4.048C63.296 223.144 48 240.232 48 260.64V324c0 11.568 7.056 21.52 17.088 25.784L97.584 496h124.832l16.624-74.8c6.84 1.528 15.208 2.8 24.96 2.8 14.64 0 26.4-2.768 34.056-5.208 1.424 4.68 2.944 9.336 4.672 13.936L312 457.456V496h62.152l22.04-82.648c1.776 5.288 3.96 10.44 6.856 15.264 10.152 16.912 26.168 29.2 45.128 34.616l41.816 11.944-5.024-30.096c-2.936-17.56-2.008-35.808 2.416-53.08zM248 108.176c16.488-11.472 35.984-18.424 56-19.888-.096 12.424-6.064 24.248-16.008 31.712-6.864 5.16-15.392 8-23.992 8h-16v-19.824zM72 128H56c-8.6 0-17.128-2.84-24-8-9.936-7.464-15.904-19.288-16-31.712 20.016 1.456 39.512 8.416 56 19.888V128zm8.08-33.648C80.968 51.016 116.448 16 160 16s79.032 35.016 79.92 78.36c-.728.496-1.464.992-2.184 1.504-26.496-.736-50.944-14.096-65.704-36.232L160 41.576l-12.032 18.048c-14.76 22.136-39.208 35.504-65.704 36.232-.72-.512-1.448-1-2.184-1.504zm36.344 70.912l-7.704 21.192C95.92 173.456 88 155.64 88 136v-24.328c28.888-2.352 55.248-17.384 72-41.296 16.752 23.912 43.112 38.944 72 41.296V136c0 19.632-7.92 37.44-20.704 50.44l-7.352-20.312-.368-.856c-4.088-8.184-12.32-13.272-21.464-13.272h-44.216c-9.152 0-17.376 5.088-21.472 13.264zm81.664 31.72C187.032 203.92 174 208 160 208s-27.032-4.08-38.096-11.016l9.008-24.904a7.969 7.969 0 0 1 6.976-4.08h44.216c2.92 0 5.56 1.552 6.976 4.08l9.008 24.904zM216 256v48h-16v16h16v4c0 13.432 9.52 24.672 22.168 27.368L209.584 480H168V344h-16v136h-41.584L81.84 351.368C94.48 348.672 104 337.432 104 324v-4h80v-16h-80v-48H88v68c0 6.616-5.384 12-12 12s-12-5.384-12-12v-63.36c0-12.24 9.176-22.496 21.352-23.848L136 231.168v-10.576c7.64 2.168 15.672 3.408 24 3.408s16.36-1.24 24-3.408v10.576l50.648 5.624C246.824 238.144 256 248.4 256 260.64V324c0 6.616-5.384 12-12 12s-12-5.384-12-12v-68h-16zm176 104v6.952L361.848 480H328v-25.456l-10.288-27.448C308.608 402.856 304 377.424 304 351.504V328h-16v23.504a230.77 230.77 0 0 0 5.88 51.856C287.616 405.424 277.2 408 264 408c-8.424 0-15.624-1.096-21.488-2.408l12.408-55.808C264.944 345.52 272 335.568 272 324v-52h39.576C355.92 272 392 308.08 392 352.424V360zm77.144 92.576l.752-.496.128.752-.88-.256zm-28.6-141.344a49.878 49.878 0 0 1 26.168 24.088A50.349 50.349 0 0 1 472 357.704v29.872c-5.064 19.552-6.144 40.24-2.832 60.128l.36 2.168-1.112-1.664A73.777 73.777 0 0 1 456 407.184v-5.248c0-24.024-9.36-46.608-26.344-63.592l-11.312 11.312C432.312 363.624 440 382.184 440 401.936v5.248c0 13.8 3.176 27.256 9.184 39.512-13.544-4.72-24.984-13.928-32.424-26.32a61.455 61.455 0 0 1-8.76-31.608V360h-.12l.12-7.576c0-23.712-8.64-45.408-22.888-62.224l14.4-14.4C407.128 268.184 417.24 264 428 264s20.872 4.184 28.488 11.8c13.544 13.544 21.6 31.08 23.184 49.944-7.36-13.296-19.008-23.688-33.192-29.368l-19.504-7.808-5.936 14.856 19.504 7.808z"/><path d="M96 352h16v24H96zm24 40h16v24h-16zm64-56h16v24h-16zm8 56h16v24h-16zm96-104h16v16h-16zm48 24h16v16h-16zm32 40h16v16h-16zm-24 56h16v16h-16zm-24-40h16v16h-16zm-64 8h16v16h-16z"/></svg>