<svg xmlns="http://www.w3.org/2000/svg" viewBox="0 0 496.008 496.008"><path d="M216 32.004h64v16h-64zm64 104h16v16h-16zm-80 0h16v16h-16zm40 32h16v16h-16zm44.232 232.521l-3.937-14.43 15.434-4.212 3.937 14.431zm-82.681 37.605l-15.436-4.211 14.187-51.997 15.436 4.212z"/><path d="M474.488 130.764l-7.712-18.512c-8.168-19.584-27.16-32.248-48.384-32.248-14 0-27.16 5.456-37.056 15.352l-21.928 21.928c-2.504-26.216-14.144-50.544-32.968-69.048a22.624 22.624 0 0 0 1.56-8.232c0-22.808-34.392-40-80-40s-80 17.192-80 40c0 2.84.536 5.592 1.56 8.232-18.824 18.504-30.464 42.832-32.968 69.048l-21.928-21.928c-9.896-9.896-23.056-15.352-37.056-15.352-21.224 0-40.216 12.664-48.376 32.248l-7.712 18.512C7.24 165.028 0 201.22 0 238.34c0 39.384 8.112 77.608 24.112 113.6l4.808 10.824c3.536 7.976 11.464 13.176 20.176 13.24l.904.008h.168c7.48 0 14.296-3.776 18.256-10.128 3.984-6.384 4.344-14.216 1.192-20.488l-1.312-3.104c-4.32-10.184-6.936-20.832-8.016-31.592 2.216 5.312 4.704 10.512 7.688 15.504l8.672 14.464c4.216 6.992 11.888 11.336 20.048 11.336 5.36 0 10.376-1.936 14.448-5.176 5.552 8.088 14.752 13.176 24.92 13.176h2.16c2.048 0 4.056-.2 6.008-.592L94.496 473.804l3.848 3.848c.752.76 18.656 18.352 45.656 18.352 14.424 0 22.192-5.176 28.44-9.344 5.576-3.72 9.984-6.656 19.56-6.656 7.968 0 10.696 1.904 15.216 5.048 7.008 4.88 15.736 10.952 40.784 10.952s33.776-6.072 40.784-10.952c4.52-3.144 7.248-5.048 15.216-5.048 9.576 0 13.984 2.936 19.56 6.656 6.248 4.168 14.016 9.344 28.44 9.344 27 0 44.904-17.592 45.656-18.344l3.848-3.848-49.736-114.392c1.952.384 3.96.584 6.008.584h2.16c10.168 0 19.368-5.088 24.92-13.176 4.064 3.24 9.08 5.176 14.448 5.176 8.16 0 15.832-4.344 20.032-11.344l8.672-14.464c2.992-4.984 5.48-10.192 7.688-15.504-1.072 10.76-3.696 21.408-8.016 31.6l-1.104 2.64c-3.368 6.728-3 14.56.984 20.944 3.96 6.352 10.768 10.128 18.264 10.128h1.072c8.72-.064 16.648-5.264 20.184-13.232l4.816-10.824c16-35.992 24.112-74.216 24.112-113.6-.008-37.128-7.248-73.32-21.52-107.584zM248 16.004c39.064 0 64 14.216 64 24s-24.936 24-64 24-64-14.216-64-24 24.936-24 64-24zm-96 112c0-25.24 9.856-49.144 27.288-67 13.712 11.552 38.752 19 68.712 19s55-7.448 68.712-19c17.432 17.856 27.288 41.76 27.288 67 0 17.192 5.68 34.24 16 48l1.168 1.56A34.327 34.327 0 0 1 368 198.052a34.322 34.322 0 0 1-3.608 15.272c-4.904 9.8-8.216 20.344-10.224 31.128l-4.76-10.392a39.982 39.982 0 0 0-25.376-21.8l-32.44-9.272C313.48 188.708 328 164.036 328 136.004v-32h-12.224c-22.176 0-44.376-5.24-64.2-15.16L248 87.06l-3.576 1.792c-19.824 9.912-42.024 15.152-64.2 15.152H168v32c0 28.032 14.52 52.704 36.408 66.992l-32.44 9.272a39.96 39.96 0 0 0-25.376 21.8l-4.76 10.392c-2.008-10.784-5.32-21.328-10.224-31.128a34.33 34.33 0 0 1-3.608-15.28c0-7.344 2.424-14.624 6.832-20.488l1.168-1.56c10.32-13.76 16-30.808 16-48zm96 72c-35.288 0-64-28.712-64-64v-16.048c22.056-.528 44.024-5.704 64-15.064 19.976 9.36 41.944 14.536 64 15.064v16.048c0 35.288-28.712 64-64 64zm21.936 12.872c-3.72 11.24-12.136 19.128-21.936 19.128s-18.216-7.888-21.936-19.128c6.976 1.992 14.32 3.128 21.936 3.128s14.96-1.136 21.936-3.128zm-156.208 92.912c-3.912-16.464-2.744-33.696 3.664-49.736l2.024-5.064-14.848-5.944-2.032 5.072c-9.792 24.496-9.464 51.36.936 75.624.992 2.32.768 4.848-.624 6.96-2.808 4.248-9.84 4.104-12.464-.272l-8.672-14.464a102.415 102.415 0 0 1-13.28-36.072 103.393 103.393 0 0 1 3.888-49.52l7.28-21.832-15.176-5.064-7.28 21.832c-3.216 9.64-5.088 19.68-5.76 29.8-10.944 29.76-10.176 62.216 2.2 91.424l1.52 3.56c1.232 2.472.24 4.544-.248 5.328-.496.784-1.88 2.84-4.712 2.592l-.912-.008a6.292 6.292 0 0 1-5.688-3.736l-4.816-10.824C23.648 311.516 16 275.484 16 238.34c0-35 6.824-69.12 20.28-101.424L44 118.412c5.664-13.616 18.856-22.408 33.608-22.408 9.728 0 18.864 3.792 25.744 10.664l31.768 31.768c-1.688 10.088-5.76 19.768-11.912 27.968l-1.168 1.56c-6.48 8.624-10.04 19.304-10.04 30.088a50.367 50.367 0 0 0 5.296 22.424c7 14.008 10.704 29.696 10.704 45.36v8.808l-14.272 31.144zm24.496 38.216h-2.16a14.283 14.283 0 0 1-13.56-9.768c-1.208-3.624-.928-7.496.896-11.16l3.144-6.856 27.52 13.76L151 336.1c-2.432 4.88-7.328 7.904-12.776 7.904zm244.048 125.688c-5.536 4.048-16.352 10.312-30.272 10.312-9.576 0-13.984-2.936-19.56-6.656-3.68-2.456-7.936-5.24-13.72-7.128l-15.4-56.48-15.44 4.208 13.68 50.152c-11.272.504-16.936 4.352-21.912 7.816-4.856 3.376-9.936 6.832-23.64 7.792v-95.704h-16v95.712c-13.704-.968-18.784-4.416-23.64-7.792-4.976-3.464-10.64-7.312-21.912-7.816l3.264-11.976-15.44-4.208-4.992 18.304c-5.792 1.888-10.04 4.672-13.72 7.128-5.584 3.712-9.992 6.648-19.568 6.648-13.784 0-24.68-6.296-30.256-10.336l77.592-178.472-14.496-6.768-15.624 31.24-28.008-14 9.928-21.664H144v-1.88l17.136-37.4a23.996 23.996 0 0 1 15.224-13.08l34.512-9.864c5.912 17.688 20.312 30.224 37.128 30.224s31.216-12.536 37.12-30.216l34.512 9.864a23.973 23.973 0 0 1 15.224 13.08L352 278.124v1.88h.864l9.928 21.664-28.008 14.008-15.624-31.24-14.496 6.768 77.608 178.488zm-8.776-135.464a14.28 14.28 0 0 1-13.56 9.776h-2.16a14.218 14.218 0 0 1-12.784-7.896l-3.064-6.12 27.528-13.76 3.256 7.104a14.173 14.173 0 0 1 .784 10.896zm83.776 11.216l-4.816 10.832a6.288 6.288 0 0 1-5.696 3.728l-.888.008h-.048c-2.76 0-4.184-1.808-4.672-2.592-.488-.784-1.48-2.856-.032-5.792l1.312-3.096c12.376-29.208 13.152-61.664 2.2-91.424-.672-10.12-2.544-20.16-5.76-29.8l-7.28-21.832-15.176 5.064 7.28 21.832a103.393 103.393 0 0 1 3.888 49.52 102.57 102.57 0 0 1-13.28 36.072l-8.672 14.464c-2.624 4.368-9.664 4.512-12.464.272-1.384-2.104-1.616-4.64-.624-6.96 10.4-24.264 10.728-51.128.92-75.64l-2.024-5.064-14.848 5.944 2.024 5.064c6.416 16.04 7.584 33.264 3.672 49.728L368 274.636v-8.8c0-15.664 3.704-31.344 10.704-45.352A50.4 50.4 0 0 0 384 198.052c0-10.784-3.56-21.472-10.032-30.088l-1.168-1.56c-6.152-8.208-10.232-17.88-11.92-27.968l31.768-31.768c6.88-6.872 16.016-10.664 25.744-10.664A36.309 36.309 0 0 1 452 118.412l7.712 18.512C473.176 169.22 480 203.348 480 238.34c0 37.144-7.648 73.176-22.728 107.104z"/></svg>