<svg xmlns="http://www.w3.org/2000/svg" viewBox="0 0 496 496"><path d="M192 32h16v16h-16zm0 32h16v16h-16zm-72 232c-22.056 0-40 17.944-40 40s17.944 40 40 40 40-17.944 40-40-17.944-40-40-40zm0 64c-13.232 0-24-10.768-24-24s10.768-24 24-24 24 10.768 24 24-10.768 24-24 24zm-8-88h16v16h-16zm-31.602 13.082l11.313 11.314-11.313 11.313-11.314-11.313zM56 328h16v16H56zm24.397 58.91l-11.314-11.314 11.314-11.314 11.313 11.314zM112 384h16v16h-16zm36.294-8.416l11.314-11.314 11.313 11.314-11.313 11.313zM168 328h16v16h-16zm-8.39-42.923l11.313 11.314-11.313 11.314-11.314-11.314zM224 120h16v16h-16zm-64 0h16v16h-16zm40 64c-8.824 0-16-7.176-16-16h-16c0 17.648 14.352 32 32 32s32-14.352 32-32h-16c0 8.824-7.176 16-16 16z"/><path d="M464 15.64l-87.048 67.704-38.184 145.096-18.296-9.144C329.736 213.68 336 203.6 336 192c0-17.648-14.352-32-32-32v-56c0-12.056-2.168-23.584-5.96-34.36 19.28-7.28 33.512-24.208 36.952-44.864l.768-4.592c.84-5.032-.56-10.16-3.856-14.048A17.289 17.289 0 0 0 318.672 0a17.253 17.253 0 0 0-14.416 7.72A36.488 36.488 0 0 1 273.832 24h-7.472C248.336 9.024 225.208 0 200 0s-48.336 9.024-66.36 24h-5.792A36.513 36.513 0 0 1 97.424 7.736 17.23 17.23 0 0 0 83.008 0a17.26 17.26 0 0 0-13.224 6.136 17.274 17.274 0 0 0-3.864 14.032l.768 4.6c3.352 20.128 16.912 36.8 35.448 44.368C98.232 80.064 96 91.76 96 104v56c-17.648 0-32 14.352-32 32 0 15.2 10.672 27.904 24.912 31.144C83.424 229.992 80 238.56 80 248v9.712c-28.448 14.6-48 44.176-48 78.288 0 48.52 39.48 88 88 88 8.328 0 16.36-1.24 24-3.408V496h112v-85.184c33.992-7.064 58.152-18.952 59.576-19.664l7.48-3.736L280 309.928v-33.424l29.904 13.8-9.856 19.712c-3.128 6.248-3.128 13.72 0 19.96l.84 1.68c3.8 7.616 11.448 12.344 19.952 12.344 6.992 0 13.672-3.336 17.856-8.928l12.432-25.736 16.584 7.656a32.619 32.619 0 0 0 13.72 3.008h1.848c18.04 0 32.72-14.68 32.72-32.72 0-12.48-6.928-23.696-18.088-29.272l-16.384-8.192L464 122.36V15.64zm-146.424.936c.512-.776 1.776-.504 2.112-.112.176.208.376.568.288 1.08l-.768 4.6c-2.536 15.248-13.192 27.672-27.552 32.8-2.96-5.504-6.432-10.68-10.296-15.544 14.664-2.104 27.848-10.272 36.216-22.824zM82.472 22.152l-.768-4.608a1.294 1.294 0 0 1 .288-1.072c.336-.4 1.576-.68 2.12.128 8.08 12.112 20.672 20.096 34.736 22.536-3.84 4.8-7.32 9.904-10.272 15.336-13.64-5.424-23.656-17.584-26.104-32.32zM80 192c0-8.824 7.176-16 16-16h16v-72c0-37.224 23.272-69.048 56-81.888V88h-16c-13.232 0-24 10.768-24 24v48c0 18.448 7.032 35.248 18.488 48H96c-8.824 0-16-7.176-16-16zm120 24c-30.872 0-56-25.128-56-56v-48c0-4.416 3.584-8 8-8h96c4.416 0 8 3.584 8 8v48c0 30.872-25.128 56-56 56zm14.584 14.512C212.08 236.088 206.496 240 200 240s-12.08-3.912-14.584-9.488c4.712.976 9.592 1.488 14.584 1.488s9.872-.512 14.584-1.488zM96 248c0-8.816 4.832-16.456 11.936-20.624l8.328 20.816c-6.992.296-13.776 1.376-20.256 3.224V248H96zm24 160c-39.704 0-72-32.296-72-72s32.296-72 72-72 72 32.296 72 72-32.296 72-72 72zm72 72h-32v-32h32v32zm0-48h-32v-17.712c1.6-.824 3.16-1.704 4.704-2.624 9.248 1.76 18.368 2.984 27.296 3.648V432zm48 48h-32v-32h32v32zm0-48h-32v-16c11.096 0 21.848-.912 32-2.36V432zm60.776-51.736C285.4 386.704 248.736 400 208 400c-8.384 0-17.048-.624-25.872-1.736C198.096 382.32 208 360.296 208 336c0-5.472-.568-10.8-1.528-16H232v-16h-30.112c-11.2-28.56-36.88-49.824-67.984-54.792L123.816 224h43.344c.288.152.592.28.88.424C168.28 241.872 182.496 256 200 256s31.72-14.128 31.96-31.576c.288-.144.592-.272.88-.424h44.064L264 262.704V304h-16v16h19.296l33.48 60.264zM253.512 208C264.968 195.248 272 178.448 272 160v-48c0-13.232-10.768-24-24-24h-16V64h-16v24h-32V17.528c5.2-.96 10.528-1.528 16-1.528s10.8.568 16 1.528V48h16V22.112c32.728 12.84 56 44.664 56 81.888v72h16c8.824 0 16 7.176 16 16s-7.176 16-16 16h-50.488zm28.344 51.736L293.432 225c3.16.712 6.232 1.776 9.128 3.224l30.712 15.352-16.208 32.408-35.208-16.248zm43.64 66.224c-2.784 3.016-8.424 2.288-10.288-1.456l-.84-1.696a6.286 6.286 0 0 1 0-5.632l33.216-66.448 11.344 5.672-33.432 69.56zm65.264-53.64c5.704 2.848 9.24 8.584 9.24 14.96 0 9.216-7.504 16.72-16.72 16.72h-1.848c-2.44 0-4.8-.512-7.008-1.536l-16.328-7.544 15.144-31.36 17.52 8.76zM448 117.64l-79.216 122.424 64.944-140.712-14.528-6.704-65.488 141.888 37.336-141.88 43.904-34.152-10.216 22.144 14.528 6.704L448 68.424v49.216z"/></svg>