<svg xmlns="http://www.w3.org/2000/svg" viewBox="0 0 496 496"><path d="M264 176h16v16h-16zm-48 0h16v16h-16z"/><path d="M403.776 72c-8.576 0-17.152.752-25.624 2.136C381.4 67.16 384 58.376 384 48c0-19.032-8.768-33.536-13.984-40.48-3.52-4.704-9.2-7.52-15.192-7.52-10.144 0-18.52 8-19.088 18.208-1.192 21.336-5.976 31.456-9.056 35.856C317.2 45.36 304.6 40 290.744 40c-14.224 0-27.592 5.536-37.656 15.6L248 60.688l-5.088-5.088C232.848 45.536 219.488 40 205.256 40 191.4 40 178.8 45.36 169.32 54.064c-3.072-4.4-7.864-14.52-9.056-35.848C159.704 8 151.32 0 141.176 0c-5.992 0-11.672 2.816-15.184 7.504C120.768 14.464 112 28.968 112 48c0 10.376 2.6 19.16 5.848 26.136C109.376 72.752 100.8 72 92.224 72H68.896l10.608 31.816A47.02 47.02 0 0 0 124.168 136c9.328 0 18.36-2.736 26.12-7.904l5.368-3.576c3.04 13.136 7.92 25.84 14.648 37.616L182.784 184H161.16a47.192 47.192 0 0 0-20.944 4.944l-2.328 1.168C121.92 198.096 112 214.152 112 232v112c0 17.648 14.352 32 32 32v30.248l6.064 1.504c.68.168 9.304 2.272 25.936 4.312V496h64v-80.064c2.632.032 5.248.064 8 .064s5.368-.032 8-.064V496h64v-83.928c16.632-2.04 25.256-4.144 25.936-4.312l6.064-1.512V376c17.648 0 32-14.352 32-32V232c0-17.848-9.92-33.904-25.888-41.888l-2.336-1.168A47.167 47.167 0 0 0 334.832 184h-21.624l12.488-21.864c6.728-11.776 11.608-24.48 14.648-37.616l5.368 3.576a46.997 46.997 0 0 0 26.12 7.904 47.018 47.018 0 0 0 44.656-32.184L427.104 72h-23.328zm-262.368 42.784a31.057 31.057 0 0 1-17.24 5.216c-13.4 0-25.24-8.536-29.488-21.248L91.104 88h1.128c20.632 0 41.28 4.6 60.032 13.224.112 2 .312 3.984.52 5.976l-11.376 7.584zm11.448-30.744a158.05 158.05 0 0 0-12.448-4.504C137.408 76.296 128 64.864 128 48c0-14.384 6.76-25.52 10.8-30.896 1.392-1.848 5.344-.776 5.504 2 1.592 28.544 9.24 41.816 14.76 47.768a52.835 52.835 0 0 0-6.208 17.168zm-7.808 120.384l2.32-1.168a31.13 31.13 0 0 1 13.8-3.256h26.224c.128.296.32.552.456.84l-6.904 6.904a55.81 55.81 0 0 1-21.704 13.416 55.605 55.605 0 0 1-17.544 2.84H129.04c2.232-8.408 7.952-15.552 16.008-19.576zM176 231.088v17.672c-.912.408-1.752.928-2.68 1.296-4.344 1.736-8.8 3.032-13.32 4.008v-16.488c1.44-.384 2.88-.768 4.304-1.24 4.056-1.352 7.944-3.184 11.696-5.248zM128 240h13.696c.768 0 1.536-.064 2.304-.096v16.024c-.512.008-1.024.072-1.536.072H128v-16zm16 120c-8.824 0-16-7.176-16-16v-72h14.464c5.92 0 11.776-.568 17.536-1.608V344c0 8.824-7.176 16-16 16zm80 120h-32v-32h32v32zm0-48h-32v-18.272c9.168.8 19.8 1.48 32 1.88V432zm80 48h-32v-32h32v32zm0-48h-32v-16.392c12.2-.4 22.832-1.08 32-1.88V432zm32-38.52c-11.944 2.184-41.448 6.52-88 6.52s-76.056-4.336-88-6.52v-21.928c9.52-5.552 16-15.76 16-27.552v-8h112v-16H176v-53.96c1.08-.392 2.184-.696 3.256-1.128 16.488-6.6 30.84-17.544 41.664-31.616C225.696 241.352 234.216 248 248 248s22.304-6.648 27.08-14.696c10.824 14.064 25.176 25.008 41.664 31.608 1.072.432 2.176.736 3.256 1.128V320h-16v16h16v8c0 11.792 6.48 22 16 27.552v21.928zM272 208c-6.912 0-13.296-2.952-17.976-8.304L248 192.808l-6.024 6.888C237.296 205.048 230.912 208 224 208c-13.232 0-24-10.768-24-24s10.768-24 24-24c6.912 0 13.296 2.952 17.976 8.304l6.024 6.888 6.024-6.888C258.704 162.952 265.088 160 272 160c13.232 0 24 10.768 24 24s-10.768 24-24 24zm26.456 5.768l5.288 5.288c.08.08.176.152.256.232v20.24c-6.376-4.744-12.112-10.336-16.928-16.752l-1.08-1.44c4.64-1.744 8.824-4.328 12.464-7.568zm-35.736 8.984C261.048 227.176 257.168 232 248 232c-9.08 0-13.024-4.752-14.728-9.248 5.296-1.296 10.336-3.56 14.728-6.896 4.392 3.328 9.424 5.6 14.72 6.896zM210 221.336l-1.072 1.432c-4.816 6.424-10.552 12.016-16.928 16.76v-20.24c.08-.08.176-.144.256-.232l5.288-5.288c3.64 3.24 7.816 5.824 12.456 7.568zm110 27.432v-17.672c3.752 2.064 7.64 3.888 11.696 5.24 1.424.464 2.864.856 4.304 1.24v16.488c-4.52-.976-8.976-2.272-13.32-4.008-.928-.368-1.768-.888-2.68-1.288zM368 344c0 8.824-7.176 16-16 16s-16-7.176-16-16v-73.608c5.76 1.04 11.616 1.608 17.536 1.608H368v72zm0-88h-14.464c-.52 0-1.024-.064-1.536-.072v-16.024c.768.032 1.536.096 2.304.096H368v16zm-33.168-56c4.752 0 9.528 1.128 13.792 3.256l2.328 1.168c8.056 4.024 13.776 11.168 16.008 19.576h-12.656c-5.976 0-11.88-.96-17.544-2.848a55.698 55.698 0 0 1-21.704-13.408l-6.904-6.904c.136-.288.328-.544.456-.84h26.224zm-23.016-45.808l-5.488 9.608c-5.664-9.584-15.08-16.696-26.328-18.992v-3.824c0-7.016.456-14.024 1.36-20.984H292c11.032 0 20-8.968 20-20s-8.968-20-20-20a23.347 23.347 0 0 0-22.68 17.704 179.184 179.184 0 0 0-5.32 43.28v3.944c-5.776 1.208-11.256 3.616-16 7.224-4.744-3.608-10.224-6.008-16-7.224v-3.944c0-14.56-1.792-29.128-5.328-43.28A23.331 23.331 0 0 0 204 80c-11.032 0-20 8.968-20 20s8.968 20 20 20h10.64c.904 6.96 1.36 13.968 1.36 20.984v3.824c-11.248 2.296-20.664 9.408-26.328 18.992l-5.488-9.608A123.06 123.06 0 0 1 168 93.256C168 72.712 184.712 56 205.256 56c9.952 0 19.304 3.872 26.344 10.912l16.4 16.4 16.4-16.4C271.44 59.872 280.792 56 290.744 56 311.288 56 328 72.712 328 93.256c0 21.336-5.6 42.408-16.184 60.936zM284.264 104c.184-.808.384-1.616.576-2.424A7.378 7.378 0 0 1 292 96c2.2 0 4 1.8 4 4s-1.8 4-4 4h-7.736zm-72.528 0H204c-2.2 0-4-1.8-4-4s1.8-4 4-4a7.362 7.362 0 0 1 7.152 5.576c.2.808.392 1.608.584 2.424zm125.2-37.136c5.528-5.944 13.176-19.216 14.768-47.768.168-2.76 4.104-3.864 5.504-1.976C361.24 22.48 368 33.616 368 48c0 16.888-9.44 28.336-12.408 31.528a160.409 160.409 0 0 0-12.448 4.504 52.717 52.717 0 0 0-6.208-17.168zm64.384 31.888A31.041 31.041 0 0 1 371.832 120c-6.16 0-12.12-1.808-17.24-5.216l-11.368-7.584c.2-1.992.4-3.976.52-5.976C362.496 92.6 383.136 88 403.776 88h1.128l-3.584 10.752z"/><path d="M288 272h16v16h-16zm-96 0h16v16h-16z"/></svg>