<svg xmlns="http://www.w3.org/2000/svg" viewBox="0 0 496 496"><path d="M184 120h16v16h-16zm112 0h16v16h-16z"/><path d="M348.416 228.88L312 224.832V217.8c24.304-19.056 40-48.6 40-81.808v-24.144c13.352-.776 24-11.776 24-25.32V40h-50.232C307.712 14.952 279.056 0 248 0c-31.056 0-59.712 14.944-77.768 40H120v46.528c0 13.544 10.648 24.544 24 25.32V136c0 33.2 15.696 62.752 40 81.808v7.032l-36.424 4.048C127.296 231.144 112 248.232 112 268.64V336c0 17.648 14.352 32 32 32 5.856 0 11.272-1.696 16-4.448V496h79.448l8-112h1.104l8 112H336V363.552c4.728 2.752 10.144 4.448 16 4.448 17.648 0 32-14.352 32-32v-67.36c0-20.408-15.296-37.496-35.584-39.76zM145.464 96c-5.216 0-9.464-4.248-9.464-9.472V56h136V40h-80.944c14.888-15.168 35.2-24 56.944-24s42.056 8.832 56.944 24H288v16h72v30.528c0 5.224-4.248 9.472-9.464 9.472H348l-27.128-36.176-33.464 33.464L248 61.76l-39.408 31.52-33.456-33.464L148 96h-2.536zM160 136v-29.336l16.864-22.488 30.536 30.536L248 82.24l40.592 32.48 30.536-30.536L336 106.664V136c0 44.352-33.008 81.04-75.728 87.04l39.04-39.04L248 132.688 196.688 184l39.04 39.04C193.008 217.04 160 180.352 160 136zm108.688 56L248 212.688 227.312 192h41.376zm-41.376-16L248 155.312 268.688 176h-41.376zm-2.76 304H176V368h32v16h23.408l-6.856 96zM176 352v-16h32v16h-32zm48 16v-32h48v32h-48zm96 112h-48.552l-6.856-96H288v-16h32v112zm0-128h-32v-16h32v16zm48-16c0 8.824-7.176 16-16 16s-16-7.176-16-16v-56h-16v40H176v-40h-16v56c0 8.824-7.176 16-16 16s-16-7.176-16-16v-67.36c0-12.24 9.176-22.496 21.344-23.848L200 239.168v-11c14.376 7.52 30.68 11.832 48 11.832s33.624-4.312 48-11.832v11l50.648 5.624C358.824 246.144 368 256.4 368 268.64V336z"/><path d="M221.656 263.032l-11.312-11.312c-5.704 5.704-14.984 5.704-20.688 0l-11.312 11.312c5.968 5.968 13.816 8.952 21.656 8.952 7.84 0 15.688-2.984 21.656-8.952zm36.688-11.312c-5.704 5.704-14.984 5.704-20.688 0l-11.312 11.312c5.968 5.968 13.816 8.952 21.656 8.952s15.688-2.984 21.656-8.952l-11.312-11.312zm27.312 0l-11.312 11.312c5.968 5.968 13.816 8.952 21.656 8.952 7.84 0 15.688-2.984 21.656-8.952l-11.312-11.312c-5.704 5.704-14.984 5.704-20.688 0zm-80 40l-11.312 11.312c5.968 5.968 13.816 8.952 21.656 8.952 7.84 0 15.688-2.984 21.656-8.952l-11.312-11.312c-5.704 5.704-14.984 5.704-20.688 0zm64 0l-11.312 11.312c5.968 5.968 13.816 8.952 21.656 8.952 7.84 0 15.688-2.984 21.656-8.952l-11.312-11.312c-5.704 5.704-14.984 5.704-20.688 0z"/></svg>