<svg xmlns="http://www.w3.org/2000/svg" viewBox="0 0 496 496"><path d="M395.776 64c-8.832 0-17.656.776-26.376 2.248 5.952-12 12.432-28.944 14.152-48.408a16.44 16.44 0 0 0-4.24-12.52A16.343 16.343 0 0 0 367.272 0c-7.44 0-13.816 5.048-15.864 12.552-2.992 10.976-17.472 17.336-24.144 19.32C316.16 12.848 295.576 0 272 0h-48c-23.576 0-44.16 12.848-55.264 31.872-6.672-1.984-21.152-8.344-24.144-19.32C142.544 5.048 136.168 0 128.728 0c-4.568 0-8.96 1.936-12.048 5.312a16.413 16.413 0 0 0-4.24 12.512c1.728 19.464 8.2 36.416 14.16 48.416-8.72-1.464-17.544-2.24-26.376-2.24h-16.04l14.968 37.408c4.152 10.392 11.264 19.16 20.568 25.352 5.216 3.48 10.96 5.896 16.944 7.416-5.456 6.888-8.664 15.536-8.664 24.808 0 8.688 2.904 17.104 8.144 24-5.24 6.896-8.144 15.312-8.144 24 0 5.96 1.4 11.568 3.752 16.656C119.288 235.248 112 251.488 112 268.84V336c0 17.648 14.352 32 32 32 5.856 0 11.272-1.696 16-4.448V496h78.416L248 452.872 257.584 496H336V363.552c4.728 2.752 10.144 4.448 16 4.448 17.648 0 32-14.352 32-32v-67.16c0-17.352-7.288-33.6-19.752-45.2 2.352-5.088 3.752-10.696 3.752-16.656 0-8.688-2.904-17.104-8.144-24 5.24-6.896 8.144-15.312 8.144-24 0-9.272-3.208-17.92-8.656-24.808 5.984-1.528 11.72-3.936 16.944-7.416a54.83 54.83 0 0 0 20.568-25.352L411.816 64h-16.04zM366.84 16.76c.136-.496.384-.776.776-.336-2.256 25.432-14.104 46.552-19.424 54.904a160.33 160.33 0 0 0-12.2 4.368V64c0-6.016-.896-11.816-2.448-17.336 8.288-2.8 28.24-11.328 33.296-29.904zM336 144v-7.568c9.496 3.368 16 12.312 16 22.552 0 6.912-2.952 13.296-8.304 17.976l-6.888 6.024 6.888 6.024c5.352 4.68 8.304 11.064 8.304 17.976 0 13.232-10.768 24-24 24-11.712 0-21.464-8.448-23.552-19.56C323.712 195.264 336 171.048 336 144zM176 64c0-26.472 21.528-48 48-48h48c26.472 0 48 21.528 48 48v8c0 17.648-14.352 32-32 32s-32-14.352-32-32h-16c0 17.648-14.352 32-32 32s-32-14.352-32-32v-8zm0 43.68c8.504 7.632 19.696 12.32 32 12.32 16.688 0 31.392-8.568 40-21.52 8.608 12.96 23.312 21.52 40 21.52 12.304 0 23.496-4.688 32-12.32V144c0 20.296-8.48 38.624-22.032 51.728l-14.448-24.08C279.208 164.464 271.328 160 262.944 160h-29.88c-8.384 0-16.272 4.464-20.576 11.648l-14.448 24.08C184.48 182.624 176 164.296 176 144v-36.32zm109.184 97.848C274.32 212.128 261.616 216 248 216c-13.616 0-26.32-3.872-37.192-10.464L226.2 179.88a8.026 8.026 0 0 1 6.856-3.88h29.88a8.034 8.034 0 0 1 6.856 3.88l15.392 25.648zm-93.632 5.896c-2.088 11.12-11.84 19.56-23.552 19.56-13.232 0-24-10.768-24-24 0-6.912 2.952-13.296 8.304-17.976l6.888-6.024-6.888-6.024c-5.352-4.68-8.304-11.064-8.304-17.976 0-10.232 6.504-19.184 16-22.552V144c0 27.048 12.288 51.264 31.552 67.424zM129.16 16.76c5.064 18.576 25.016 27.104 33.296 29.904C160.896 52.184 160 57.984 160 64v11.696c-4-1.616-8.064-3.08-12.192-4.368-5.296-8.36-17.104-29.568-19.104-55.336.056.024.312.248.456.768zm-.568 96.688A38.917 38.917 0 0 1 114 95.472l-6.104-15.256c17.984.976 35.736 5.512 52.104 13.016V120h-9.76a38.906 38.906 0 0 1-21.648-6.552zM368 268.848V336c0 8.824-7.176 16-16 16s-16-7.176-16-16v-72h-16v56h-16v16h16v144h-49.584L248 379.128 225.584 480H176V336h112v-16H176v-56h-16v72c0 8.824-7.176 16-16 16s-16-7.176-16-16v-67.16c0-12.256 4.912-23.752 13.352-32.248 7.088 6.392 16.376 10.392 26.648 10.392 17.136 0 31.672-10.888 37.352-26.064C218 227.96 232.528 232 248 232s30-4.04 42.648-11.08c5.688 15.176 20.216 26.064 37.352 26.064 10.272 0 19.56-4 26.648-10.392 8.44 8.504 13.352 20 13.352 32.256zm14-173.384a38.898 38.898 0 0 1-14.592 17.984A38.906 38.906 0 0 1 345.76 120H336V93.224c16.368-7.496 34.112-12.04 52.104-13.016L382 95.464z"/><path d="M280 128h16v16h-16zm-80 0h16v16h-16zm40 64h16v16h-16zm48 80h16v16h-16zm-96 0h16v16h-16zm0 80h16v24h-16zm16 40h16v24h-16zm-16 40h16v24h-16zm96-80h16v24h-16zm-16 40h16v24h-16zm16 40h16v24h-16zm-48-80h16v16h-16z"/></svg>