<svg xmlns="http://www.w3.org/2000/svg" viewBox="0 0 496 496"><path d="M391.712 127.104c-4.944.592-10.232.896-15.712.896v16c6.12 0 12.048-.344 17.616-1.008l-1.904-15.888zM325.2 258.4l9.592-12.8c-5.624-4.224-7.2-8.136-7.208-8.136l-15.168 5.064c.28.856 3.072 8.584 12.784 15.872z"/><path d="M479.848 416H480v-.632c1.024-4.808 2.368-9.56 4.096-14.176A186.34 186.34 0 0 0 496 335.544a93.06 93.06 0 0 0-13.256-47.856C473.976 273.08 457.936 264 440.896 264c-13.032 0-25.288 5.08-34.504 14.296l-7.224 7.224c-2.704-3.712-5.632-7.296-8.944-10.608l-3.6-3.6c15.416-1.856 26.864-7.888 33.96-18.128 10.464-15.088 8.24-34.992 5.608-46.568 5.848-2.344 11.344-5.288 16.32-8.872C456.368 187.768 464 174.36 464 160c0-23.648-8.008-39.344-13.448-47.36 12.144-16.848 14.72-36.656 13.448-49.088C463.752 46.112 449.496 32 432 32c-6.84 0-13.392 2.144-18.928 6.184-3.904 2.864-8.12 6.552-13 10.824C381.248 65.472 355.48 88 320 88c-.28 0-.528.032-.808.032-2.968-14.624-14.008-26.208-28.192-30.304 3.232-9.568 5-19.64 5-29.728 0-15.44-12.56-28-28-28s-28 12.56-28 28c0 6.024-1.992 11.984-5.6 16.808l-10.496 14c-20.048-12.04-43.016-18.632-66.72-18.784L152 40c-72.2 0-80 33.568-80 48 0 .456.056.88.072 1.328C52.672 78.144 30.44 72 8 72H0v23.032c0 13.08 5.096 25.376 14.344 34.624C23.592 138.904 35.888 144 48.968 144h.712c-1.056 5.216-1.68 10.56-1.68 16v11.36c0 20.184 6.672 40.192 18.784 56.352a77.373 77.373 0 0 1 10.008 17.824c4.072 10.176 10.92 18.552 19.504 24.528.016.368.032.728.056 1.096l-.304-.032L71.064 496h111.104l25.024-95.088c22.16 8.592 45.28 13.552 69.008 14.784 2.04 5.808 4.68 11.392 8.136 16.52C268.416 434.032 256 447.592 256 464c0 17.648 14.352 32 32 32h64.504c27.216 0 50.424-17.248 59.432-41.36.456.856.792 1.76 1.272 2.6C426.872 481.152 452.464 496 480 496h10.608l-9.056-31.68c-4.472-15.68-5-32.384-1.704-48.32zM320 104c41.488 0 71.04-25.84 90.6-42.944 4.608-4.024 8.584-7.504 11.928-9.96A15.939 15.939 0 0 1 432 48c8.824 0 16 7.176 16 16l.048.88c.216 1.92 4.68 47.216-43.528 59.824l4.048 15.488c12.888-3.368 22.92-8.856 30.76-15.448C443.24 131.536 448 143.168 448 160c0 9.08-5.272 17.872-14.832 24.776-17.976 12.944-45.712 15.928-70.632 7.64l-5.064 15.168c11.168 3.728 22.672 5.544 33.864 5.544 6.64 0 13.16-.68 19.448-1.944 1.92 8.952 3.392 23.16-3.352 32.888C401.952 251.984 391.376 256 376 256c-11.968 0-22.232-1.576-30.504-4.696l-5.64 14.968c3.56 1.344 7.464 2.36 11.528 3.232C349.896 276.84 344.864 288 328 288c-25.504 0-32.168-17.84-32.44-18.608l-.48.16c.584-3.096.92-6.288.92-9.552 0-18.48-14.048-33.576-32-35.592v-18.616c13.936-4.968 24-18.168 24-33.792 0-15.12-2.688-29.912-7.616-43.896C282.624 122.248 291.832 104 320 104zm-112.192 72c.08-1.544.192-3.088.192-4.64V160c0-5.48-.56-10.832-1.616-16h.648c13.08 0 25.376-5.096 34.624-14.344 5.688-5.688 9.784-12.528 12.112-19.992C265.576 128.184 272 149.72 272 172c0 11.032-8.976 20-20.016 20-11.016 0-19.984-8.968-19.984-19.984 0-6.624 5.392-12.016 12.488-12.016h.008a3.39 3.39 0 0 1 2.44 1.008c.68.688 1.064 1.632 1.064 3.352a3.626 3.626 0 0 1-1.072 2.576 3.61 3.61 0 0 1-2.576 1.064H240v16h4.36c5.24 0 10.168-2.04 13.88-5.744 3.712-3.712 5.76-8.648 5.76-14.592 0-5.304-2.048-10.264-5.768-13.976-3.672-3.672-8.544-5.688-14.2-5.688h-.024C228.56 144 216 156.568 216 172.016c0 18.472 14.048 33.56 32 35.584v18.616c-13.936 4.968-24 18.168-24 33.792 0 15.44 12.56 28 28 28h4v-16h-4c-6.616 0-12-5.384-12-12 0-11.032 8.968-20 20-20s20 8.968 20 20c0 19.848-16.152 36-36 36s-36-16.16-36-36.008v-84h-.192zm-6.536-48c-.496-1.128-1.056-2.224-1.608-3.328a86.826 86.826 0 0 1 35.144-12.04c-1.288 2.048-2.744 3.984-4.472 5.712C224.2 124.48 215.712 128 207.032 128h-5.76zm45.92-73.592C252.872 46.832 256 37.464 256 28c0-6.616 5.384-12 12-12s12 5.384 12 12c0 11.848-2.808 23.712-8.104 34.312l-7.056 14.112 14.312 7.16 5.552-11.104c9.024 1.8 16.16 8.704 18.448 17.544-14.552 3.616-24.496 11.648-30.768 19.912A132.18 132.18 0 0 0 256 85.96V72h-8c-1.888 0-3.768.144-5.648.232a123.211 123.211 0 0 0-5.264-4.344l10.104-13.48zM240 88.288v6.744c0 .384-.104.76-.112 1.152-17.272.824-33.92 5.936-48.696 14.936a81.096 81.096 0 0 0-4.224-5C202.792 95.848 221.184 89.664 240 88.288zM152 56l5.056.016c22.528.144 44.272 6.936 62.84 19.224-16.16 3.664-31.568 10.44-45.184 19.952C161.552 85.672 145.44 80 128 80v16c11.272 0 21.856 2.952 31.072 8.096C150.728 107.944 139.288 112 128 112c-12.024 0-40-2.336-40-24 0-20.336 23.328-32 64-32zM16 95.032v-6.744c18.808 1.376 37.184 7.552 53.016 17.816-1.48 1.616-2.952 3.24-4.288 4.96C49.976 102.096 33.352 97 16.112 96.184c-.008-.392-.112-.768-.112-1.152zM54.752 128h-5.784c-8.68 0-17.168-3.52-23.312-9.656-1.72-1.72-3.176-3.664-4.472-5.712a86.919 86.919 0 0 1 35.072 11.992c-.536 1.112-1.008 2.248-1.504 3.376zm36.896 111.584a93.437 93.437 0 0 0-12.072-21.472C69.528 204.712 64 188.112 64 171.36V160c0-17.328 6.944-33.616 19.168-45.616C92.72 123.16 108.072 128 128 128c18.128 0 35.816-8 45.312-13.144C184.856 126.44 192 142.4 192 160v11.36c0 16.752-5.528 33.352-15.576 46.744a93.994 93.994 0 0 0-12.072 21.48c-1.216 3.048-2.864 5.808-4.728 8.376-8.472-.128-14.312-4.28-18.112-8.656C152.088 236.792 160 227.328 160 216c0-10.416-6.712-19.216-16-22.528v-1.704c0-8.008 1.064-16.024 3.112-23.776H164c11.032 0 20-8.968 20-20S175.032 128 164 128c-10.456 0-19.848 5.808-24.52 15.16-7.512 15.008-11.48 31.824-11.48 48.616 0-16.792-3.968-33.6-11.48-48.616C111.848 133.808 102.456 128 92 128c-11.032 0-20 8.968-20 20s8.968 20 20 20h16.888c2.048 7.752 3.112 15.768 3.112 23.776v1.704c-9.288 3.312-16 12.112-16 22.528 0 11.328 7.912 20.792 18.488 23.296-3.8 4.368-9.64 8.528-18.12 8.656-1.856-2.568-3.504-5.328-4.72-8.376zM128 248.056c3.656 4.688 8.816 9.488 15.824 12.584A40.37 40.37 0 0 1 127.72 264c-5.52 0-10.792-1.216-15.616-3.328 7.04-3.096 12.224-7.912 15.896-12.616zM120 224c-4.416 0-8-3.584-8-8s3.584-8 8-8h16c4.416 0 8 3.584 8 8s-3.584 8-8 8h-16zm32.968-72c.264-.56.536-1.128.824-1.688A11.356 11.356 0 0 1 164 144c2.2 0 4 1.8 4 4s-1.8 4-4 4h-11.032zm-49.936 0H92c-2.2 0-4-1.8-4-4s1.8-4 4-4c4.352 0 8.264 2.424 10.208 6.312.288.56.56 1.128.824 1.688zm9.872 328H88.936l18.296-164.624c5.36 11.744 12.592 22.632 21.544 32.352L112.904 480zm287.104-47.496H400C400 458.696 378.696 480 352.504 480H288c-8.824 0-16-7.176-16-16s7.176-16 16-16h34.96l-15.904-14.008C294.944 423.336 288 408.032 288 392c0-30.872 25.128-56 56-56v-16c-39.704 0-72 32.296-72 72 0 2.48.304 4.92.552 7.368a206.079 206.079 0 0 1-61.256-14.064l12.44-47.264-15.472-4.08L169.832 480h-40.824l22.928-191.048-15.888-1.904-4.632 38.608c-9.944-14.208-16.232-30.512-18.44-47.8 4.888 1.352 10 2.144 15.304 2.144 22.552 0 42.544-13.528 50.928-34.48a77.707 77.707 0 0 1 10.008-17.824c.984-1.312 1.872-2.688 2.784-4.048V260c0 28.672 23.328 52 52 52 18.64 0 34.976-9.896 44.16-24.672C295.024 295.28 307.264 304 328 304c24.976 0 35.416-16.296 38.72-29.968l12.2 12.2c13.592 13.6 21.088 31.68 21.088 50.912v95.36zm42.008-112.216a48.963 48.963 0 0 1 13.696 13.696A49.196 49.196 0 0 1 464 361.368v52.168c-2.08 10.4-2.656 21.072-1.888 31.648-3.944-10.912-6.112-22.496-6.112-34.44 0-13.504-3.184-27.024-9.224-39.088l-7.616-15.232-14.312 7.16 7.616 15.232A71.756 71.756 0 0 1 440 410.744c0 23.848 7.112 46.592 20.264 65.872-13.792-4.752-25.728-14.296-33.16-27.312a84.289 84.289 0 0 1-11.104-41.8v-70.36c0-13.168-2.968-25.848-8.416-37.416l10.12-10.12c6.192-6.192 14.44-9.608 23.192-9.608 11.456 0 22.232 6.104 28.128 15.92A77.084 77.084 0 0 1 480 335.544c0 5.344-.272 10.656-.768 15.944a65.244 65.244 0 0 0-10.208-26.376 65.135 65.135 0 0 0-18.136-18.136l-14.456-9.632-8.872 13.312 14.456 9.632z"/></svg>