<svg xmlns="http://www.w3.org/2000/svg" viewBox="0 0 496 496"><path d="M496 101.592c0-30.28-13.224-59.024-36.288-78.848l-6.832-5.872-5.032 7.472c-8.944 13.304-23.84 21.248-39.848 21.248-16.488 0-31.528-8.68-40.224-22.088l.064-.336-.304-.064c-2.352-3.704-4.32-7.688-5.592-12.032l-2.528-8.664-8.296 3.552C312.784 22.368 288 59.904 288 101.592c0 42.152 25.592 80.016 64.184 96.032-4.64 8.776-9.8 17.272-15.576 25.352l-5.224 7.32-19.568-6.528c-.904-17.64-14.472-31.824-31.816-33.768v-48.408c0-5.472-.28-10.776-.696-16h4.008l-4.4-4.4c-2.32-22.744-8.648-42.952-18.88-60.328l23.28-23.272H264c-6.776 0-13.544.56-20.216 1.64-20.312-21.36-47.72-33.64-75.784-33.64-72.2 0-80 33.568-80 48 0 .456.056.88.072 1.328C68.672 43.736 46.44 37.592 24 37.592H4.688L33.856 66.76C37.76 70.672 40 76.072 40 81.592s-2.24 10.92-6.144 14.832L4.688 125.592H24c13.336 0 25.88 5.192 35.312 14.624l5.096 5.096c1.568 17.288 7.936 34.072 18.368 47.992a77.373 77.373 0 0 1 10.008 17.824c4.024 10.048 10.776 18.336 19.208 24.296v12.76l-18.936 7.576c-37.808 15.112-69.744 42.92-89.936 78.256A23.626 23.626 0 0 0 0 345.744v4.216c0 6.688 2.816 12.704 7.304 17.008C15.968 386.288 16 394.392 16 413.592v23.992l14.4-19.192c9.696-12.92 23.536-22.024 38.88-26.192l-16.928 21.168C49.536 416.856 48 421.264 48 425.752c0 6.488 3.176 12.208 8 15.832v52.008l16.168-12.136c15.224-11.408 35.248-13.2 52.248-4.712l7.16 3.576 3.576-7.16a86.082 86.082 0 0 1 45.032-41.44l14.856-5.936-3.888-7.784c-8.768-17.52-9.864-37.856-3.264-56.248 22.184 10.48 46.04 16.84 70.592 18.968l22.704 49.192c15.608 33.832 49.76 55.68 87 55.68 52.832 0 95.816-42.984 95.816-95.816 0-33.168-10.056-65.072-29.08-92.248-7.624-10.896-16.688-20.712-26.784-29.328l3.376-40.464c.672-8.056.768-16.104.464-24.128C459.904 194.176 496 151.432 496 101.592zm-48.264-53.936c2.704-2.144 5.288-4.44 7.632-7.024C471.112 56.984 480 78.768 480 101.592c0 1.656-.144 3.288-.24 4.928l-17.128 17.136c-16.176 16.168-37.512 25.232-60.288 25.824-1.688-5.176-3.528-10.296-5.64-15.336 27.416-21.12 45.856-52.056 51.032-86.488zm-86.744 9.768l2.784-13.904C375.448 54.736 391.144 61.592 408 61.592c7.376 0 14.544-1.32 21.304-3.704a118.68 118.68 0 0 1-39.48 61.464l-10.12-20.24-1.68 11.72c-14.192-13.56-20.984-33.624-17.032-53.408zm-54.672 64.16c4.28 6.016 9.232 11.512 14.976 16.28l10.216-12.312c-7.472-6.192-13.472-13.752-17.832-22.464l-8.248-16.504c4.552-26.336 20.744-49.352 44.448-62.256.304.656.712 1.24 1.04 1.88l-5.616 28.08c-5.768 28.84 6.184 58.328 29.912 75.12a219.517 219.517 0 0 1-2.328 12.016c-9.592-.432-19.112-2.76-27.696-7l-7.08 14.344c9.536 4.712 20.008 7.504 30.632 8.416a224.71 224.71 0 0 1-9.608 26.008c-26.824-10.816-46.368-34.04-52.816-61.608zm43.304 110.688c17.088-23.904 29.68-50.984 37.056-79.432a183.356 183.356 0 0 1 8.896 73.56l-2.536 30.432c-11.608-7.736-24.176-14.048-37.44-18.464l-8.344-2.784 2.368-3.312zm-86.368-106.648c.448 5.192.744 10.48.744 15.968V191.8c-13.936 4.968-24 18.168-24 33.792 0 15.44 12.56 28 28 28h4v-16h-4c-6.616 0-12-5.384-12-12 0-11.032 8.968-20 20-20s20 8.968 20 20c0 19.848-16.152 36-36 36s-36-16.152-36-36v-80.688l4.688-4.688c9.256-9.256 21.512-14.4 34.568-14.592zm-13.912-51.176c4.312 8.368 7.656 17.472 10.072 27.248l-5.272-5.272C250.24 92.512 248 87.112 248 81.592c0-2.456.504-4.864 1.344-7.144zm-6.752-18.76C235.856 62.544 232 71.968 232 81.592c0 9.736 3.944 19.256 10.832 26.144l4.08 4.088A65.144 65.144 0 0 0 223.88 123.2c-.576-19.104-7.928-37.368-20.712-51.432 12.008-7.768 25.408-13.328 39.424-16.08zM168 21.592c20.664 0 40.976 7.984 57.328 22.096-13.52 4.296-26.344 10.76-37.76 19.256l-.008-.008c-.216.152-22.232 14.656-43.56 14.656-12.024 0-40-2.336-40-24 0-20.336 23.328-32 64-32zm24.96 49.28l-.064.072-.896-1.352.96 1.28zM64.136 123.2c-6.904-5.312-14.712-9.168-23.04-11.384l4.08-4.088C52.056 100.848 56 91.328 56 81.592c0-9.624-3.856-19.048-10.592-25.904 14.048 2.76 27.464 8.336 39.504 16.128-12.816 14.048-20.208 32.128-20.776 51.384zm43.512 81.976a93.437 93.437 0 0 0-12.072-21.472c-10.048-13.4-15.576-30-15.576-46.752v-11.36c0-17.328 6.944-33.616 19.168-45.616 9.552 8.776 24.904 13.616 44.832 13.616 18.096 0 35.752-7.976 45.264-13.112C201.168 92.432 208 108.64 208 125.592v11.36c0 16.752-5.528 33.352-15.576 46.744a93.994 93.994 0 0 0-12.072 21.48c-1.216 3.048-2.864 5.808-4.728 8.376-8.472-.128-14.312-4.28-18.112-8.656C168.088 202.384 176 192.92 176 181.592c0-10.416-6.712-19.216-16-22.528v-1.704c0-8.008 1.064-16.024 3.112-23.776H180c11.032 0 20-8.968 20-20s-8.968-19.992-20-19.992c-10.456 0-19.848 5.808-24.52 15.16-7.512 15.008-11.48 31.824-11.48 48.616 0-16.792-3.968-33.6-11.48-48.616-4.672-9.352-14.064-15.16-24.52-15.16-11.032 0-20 8.968-20 20s8.968 20 20 20h16.888c2.048 7.752 3.112 15.768 3.112 23.776v1.704c-9.288 3.312-16 12.112-16 22.528 0 11.328 7.912 20.792 18.488 23.296-3.8 4.368-9.64 8.528-18.12 8.656-1.856-2.568-3.504-5.328-4.72-8.376zM144 213.648c3.656 4.688 8.816 9.488 15.824 12.584a40.37 40.37 0 0 1-16.104 3.36c-5.52 0-10.792-1.216-15.616-3.328 7.04-3.096 12.224-7.912 15.896-12.616zm-8-24.056c-4.416 0-8-3.584-8-8s3.584-8 8-8h16c4.416 0 8 3.584 8 8s-3.584 8-8 8h-16zm32.968-72c.264-.56.536-1.128.824-1.688A11.356 11.356 0 0 1 180 109.592c2.2 0 4 1.8 4 4s-1.8 4-4 4h-11.032zm-49.936 0H108c-2.2 0-4-1.8-4-4s1.8-4 4-4c4.352 0 8.264 2.424 10.208 6.312.288.56.56 1.128.824 1.688zM20.136 356.64A340.124 340.124 0 0 0 16 348.096v-2.352c0-1.32.344-2.632 1.008-3.784C35.416 309.736 64.536 284.4 99 270.608l13-5.2v10.168c-3.04 2.272-5.968 4.672-8.64 7.344-10.168 10.168-17.168 22.632-20.696 36.192l-18.616 7.448c-13.96 5.584-25.736 15.144-34.064 27.632a7.606 7.606 0 0 1-6.352 3.4c-1.28 0-2.432-.392-3.496-.952zm11.376 37.504c-.568-6.8-1.832-13.2-4.512-20.976 6.584-.952 12.544-4.48 16.288-10.104 6.52-9.792 15.752-17.272 26.688-21.648l10.112-4.048c-.008.656-.088 1.288-.088 1.944v34.664c-17.848 1.648-34.816 8.768-48.488 20.168zM72 462.752v-17.568c2.336-.384 4.624-1.024 6.704-2.208l28.688-16.392 8.696 30.44c-14.872-3.272-30.416-1.344-44.088 5.728zm97.104-60.704l-3.92-2.616-8.872 13.312 10.936 7.288a101.956 101.956 0 0 0-36.48 30.112l-9.072-31.752 3.8-2.176c6.12-3.496 10.352-9.472 11.64-16.264l7.92 5.28 8.872-13.312-13.368-8.912 8.912-44.168 11.72 7.808c4.04 2.696 8.168 5.208 12.36 7.6a87.926 87.926 0 0 0-4.448 47.8zm107.4-20.456h.024c8.992 0 17.792-2.52 25.44-7.296 3.4-2.128 6.864-4.112 10.36-6.032.536 13.368 2 26.688 4.528 39.848l-35.04-15.016-5.312-11.504zm145.312-74.888c17.128 24.472 26.184 53.2 26.184 83.072 0 44.008-35.808 79.816-79.816 79.816-31.024 0-59.48-18.2-72.472-46.368l-3.896-8.432 39.144 16.776 3.688-5.536a45.794 45.794 0 0 1 38.184-20.44H408v-8c0-19.696 4.656-39.424 13.472-57.048l7.472-14.952H416a230.845 230.845 0 0 0-122.504 35.136 32.04 32.04 0 0 1-16.968 4.864c-38.024 0-74.832-11.152-106.456-32.232l-3.36-2.24 50.168-5.568-1.768-15.904-77.808 8.648-15.84 78.52c-.432 2.344-1.848 4.36-3.904 5.528L70.768 429.08a3.877 3.877 0 0 1-1.92.512H67.84a3.851 3.851 0 0 1-3.84-3.84c0-.864.296-1.728.84-2.4L96 384.4v-45.088c0-17.032 6.632-33.04 18.672-45.08a64.07 64.07 0 0 1 22.688-14.6l49.456-18.544-5.624-14.984-49.448 18.544c-1.272.48-2.496 1.096-3.744 1.64v-23.056a57.258 57.258 0 0 0 16.28 2.36c22.552 0 42.544-13.528 50.928-34.48a77.707 77.707 0 0 1 10.008-17.824c.984-1.312 1.872-2.688 2.784-4.048v36.352c0 28.672 23.328 52 52 52 23.672 0 43.656-15.912 49.928-37.592l40.616 13.536c28.632 9.552 53.952 28.432 71.272 53.168zm-63.856 42.96c14.728-4.128 29.88-6.784 45.264-7.696-5.576 13.304-9.016 27.48-10.416 41.84-5.76-3.624-11.272-7.696-16.312-12.288l-10.784 11.832c2.424 2.208 5.008 4.232 7.584 6.248h-.456c-15.064 0-29.28 5.504-40.376 15.088-2.768-14.592-4.216-29.4-4.384-44.24 4.648-2.088 9.36-3.976 14.12-5.72 3.984 6.536 8.496 12.752 13.584 18.52l12-10.576c-3.608-4.088-6.84-8.464-9.824-13.008zm52.816-162.192c-.896-7.48-2.304-14.88-4.04-22.208 24.888-1.576 48.088-11.784 66.096-29.288-11.064 25.704-34.04 45.344-62.056 51.496z"/><path d="M448 93.592h16v16h-16zm-64-24h16v16h-16zm-64 8h16v16h-16z"/></svg>