<svg xmlns="http://www.w3.org/2000/svg" viewBox="0 0 496 496"><path d="M381.656 160h-16v-16h-16v-16h16c13.232 0 24-10.768 24-24V64c0-13.232-10.768-24-24-24h-16V24h-54.064c-19.752 0-38.312-7.688-52.28-21.656L240.968 0h-51.312v51.056l-31.568-15.784c-.592-9.6-4.208-18.36-10.776-24.928l-5.656-5.656L82.344 64 88 69.656c7.168 7.168 16.88 11.064 27.52 11.064.584 0 1.176-.016 1.776-.04 6.24-.248 12.296-2.016 17.8-4.792l54.56 47.744V144h-16v16h-16c-17.648 0-32 14.352-32 32v112c0 17.648 14.352 32 32 32 5.856 0 11.272-1.696 16-4.448V336h32v160h128V336h32v-4.448c4.728 2.752 10.144 4.448 16 4.448 17.648 0 32-14.352 32-32V192c0-17.648-14.352-32-32-32zm-32-104h16c4.416 0 8 3.584 8 8v40c0 4.416-3.584 8-8 8h-16V56zM142.36 38.984c-.272 6.792-3.096 13.344-7.728 17.976s-11.192 7.464-17.984 7.736c-3.776.144-7.368-.488-10.552-1.824l34.44-34.44c1.344 3.184 1.968 6.776 1.824 10.552zM173.656 272v32c0 8.824-7.176 16-16 16s-16-7.176-16-16v-84.448c4.728 2.752 10.144 4.448 16 4.448h16v48zm0-64h-16c-8.824 0-16-7.176-16-16s7.176-16 16-16h16v32zM147.928 65.856c3.464-4.048 6.12-8.736 7.88-13.832l33.848 16.92v33.424l-41.728-36.512zM261.656 480h-40v-57.472c2.512.896 5.184 1.472 8 1.472h24c2.816 0 5.488-.576 8-1.472V480zm-8-72h-24c-4.416 0-8-3.584-8-8s3.584-8 8-8h24c4.416 0 8 3.584 8 8s-3.584 8-8 8zm8-30.528c-2.512-.896-5.184-1.472-8-1.472h-24c-2.816 0-5.488.576-8 1.472V336h40v41.472zm56 102.528h-40v-57.472c2.512.896 5.184 1.472 8 1.472h24c2.816 0 5.488-.576 8-1.472V480zm-8-72h-24c-4.416 0-8-3.584-8-8s3.584-8 8-8h24c4.416 0 8 3.584 8 8s-3.584 8-8 8zm8-30.528c-2.512-.896-5.184-1.472-8-1.472h-24c-2.816 0-5.488.576-8 1.472V336h40v41.472zm32-105.472v48h-160V160h112v-16h-96V16h28.776c16.68 15.504 38.272 24 61.168 24h38.056v104h-16v16h32v112zm48 32c0 8.824-7.176 16-16 16s-16-7.176-16-16v-80h16c5.856 0 11.272-1.696 16-4.448V304zm-16-96h-16v-32h16c8.824 0 16 7.176 16 16s-7.176 16-16 16z"/><path d="M237.656 64h16v16h-16zm48 0h16v16h-16zm-48 48h64v16h-64zm-32 128h128v-64h-128v64zm16-48h96v32h-16v-16h-16v16h-32v-16h-16v16h-16v-32z"/></svg>