<svg xmlns="http://www.w3.org/2000/svg" viewBox="0 0 497.864 497.864"><path d="M184.932 232c0 13.232 10.768 24 24 24s24-10.768 24-24-10.768-24-24-24-24 10.768-24 24zm32 0c0 4.416-3.592 8-8 8s-8-3.584-8-8 3.592-8 8-8 8 3.584 8 8zm72-24c-13.232 0-24 10.768-24 24s10.768 24 24 24 24-10.768 24-24-10.768-24-24-24zm0 32c-4.408 0-8-3.584-8-8s3.592-8 8-8c4.408 0 8 3.584 8 8s-3.592 8-8 8zm-88-192h16v16h-16zm88 16h16v16h-16zm24 64h16v16h-16zm-72-24h16v16h-16zm-80 8h16v16h-16zm40 40h16v16h-16zm80 8h16v16h-16z"/><path d="M480.932 104c-28.776 0-44.168 28.568-59.04 56.208-13.24 24.576-25.736 47.792-44.96 47.792-21.072 0-29.184-12.064-31.552-16.728 15.128-20.448 23.552-45.296 23.552-71.272 0-66.168-53.832-120-120-120s-120 53.832-120 120c0 26.128 8.472 50.856 23.608 71.264C150.172 195.92 141.98 208 120.932 208c-19.224 0-31.72-23.216-44.96-47.792C61.1 132.568 45.708 104 16.932 104H1.98l8.296 12.44c.144.216 14.656 22.408 14.656 59.56 0 34.84 0 103.376 57.264 117.44C59.62 310.176 24.932 342.624 24.932 384c0 57.648 16.464 75.784 18.344 77.656l13.656 13.656V456c0-.504.4-50.744 34.976-64.568 8.296-3.32 18.064-6.664 28.408-10.192 19.648-6.72 40.472-13.888 57.032-22.816-4.232 22.472-3.552 53.264 16.8 85.824 28.712 45.936 100.736 53.616 145.656 53.616 21.096-.008 36.224-1.696 38.064-1.912l35.568-4.184-33.968-11.344C354.284 472 288.932 442.592 288.932 408c0-29.784 9.952-49.656 16.368-59.392 17.376 13.832 45.904 23.616 72.248 32.624 10.344 3.528 20.112 6.872 28.408 10.192 34.424 13.768 34.976 64.08 34.976 64.592l.056 19.232 13.6-13.592c1.88-1.872 18.344-20.008 18.344-77.656 0-41.376-34.688-73.824-57.264-90.56 57.264-14.064 57.264-82.6 57.264-117.44 0-36.816 14.52-59.36 14.656-59.56l8.296-12.44h-14.952zm-336 16c0-57.344 46.656-104 104-104s104 46.656 104 104c0 28.808-11.96 55.968-32.8 75.592-8.4-7.208-19.288-11.592-31.2-11.592-16.688 0-31.392 8.568-40 21.52-8.608-12.96-23.312-21.52-40-21.52-11.928 0-22.832 4.4-31.232 11.624C156.828 176 144.932 148.968 144.932 120zm176 112c0 17.648-14.352 32-32 32s-32-14.352-32-32 14.352-32 32-32 32 14.352 32 32zm-80 0c0 17.648-14.352 32-32 32s-32-14.352-32-32 14.352-32 32-32 32 14.352 32 32zm216-56c0 52.624-4.944 104-64 104h-30.776l26.888 14.992c.68.376 67.888 38.432 67.888 89.008 0 18.936-1.896 32.968-4.28 43.136-5.096-18.496-16.272-40.776-40.744-50.56-8.68-3.472-18.64-6.872-29.176-10.48-32.84-11.232-77.8-26.6-77.8-46.096h-16c0 6.104 1.888 11.616 5.152 16.664-7.68 10.536-21.152 34.264-21.152 71.336 0 33.576 38.832 59.136 68.488 73.752-.448.008-.896.008-1.352.008-41.664 0-107.744-6.624-132.352-46-22.752-36.408-18.048-69.872-9.768-91.984 6.824-6.872 10.984-14.664 10.984-23.776h-16c0 19.496-44.96 34.864-77.792 46.096-10.544 3.6-20.496 7.008-29.176 10.48-24.472 9.792-35.648 32.064-40.744 50.544-2.392-10.168-4.288-24.2-4.288-43.12 0-50.576 67.208-88.632 67.888-89.008L135.716 280h-30.784c-59.056 0-64-51.376-64-104 0-21.672-4.44-38.928-8.832-50.704 11.344 8.24 20.384 25.024 29.792 42.496C76.764 195.432 92.156 224 120.932 224c23.656 0 36.256-11.336 42.432-19.952 1.32 1.336 2.728 2.584 4.12 3.864-4.144 7.088-6.552 15.304-6.552 24.088 0 26.472 21.528 48 48 48 16.688 0 31.392-8.568 40-21.52 8.608 12.96 23.312 21.52 40 21.52 26.472 0 48-21.528 48-48 0-8.792-2.416-17.016-6.56-24.112 1.384-1.28 2.808-2.528 4.12-3.864C340.66 212.648 353.26 224 376.932 224c28.776 0 44.168-28.568 59.04-56.208 9.408-17.472 18.448-34.248 29.792-42.496-4.392 11.776-8.832 29.032-8.832 50.704z"/></svg>