<svg xmlns="http://www.w3.org/2000/svg" viewBox="0 0 496 496"><path d="M155.312 200l-18.328-18.328L143.176 160H148c11.024 0 20-8.968 20-20s-8.976-20-20-20c-5.912 0-11.168 3.968-12.792 9.648l-11.168 39.08-4.04-4.04-4.04 4.04-11.168-39.08C103.168 123.968 97.912 120 92 120c-11.024 0-20 8.968-20 20s8.976 20 20 20h4.824l6.192 21.672L84.688 200 120 235.312 155.312 200zm-5.416-63.52A4.007 4.007 0 0 1 152 140c0 2.2-1.792 4-4 4h-.248l2.144-7.52zM92 144c-2.208 0-4-1.8-4-4 0-1.512.848-2.84 2.104-3.52l2.144 7.52H92zm28 43.312L132.688 200 120 212.688 107.312 200 120 187.312z"/><path d="M472 88c-39.696 0-72 32.296-72 72 0 14.232 9.4 26.176 22.264 30.328-5.816 21.984-6.552 45.256-1.56 67.72l2.176 9.8a46.9 46.9 0 0 1 1.12 10.184c0 15.936-7.912 30.4-20.936 39.04-6.48-10.176-15.104-19.032-25.76-25.688-15.504-9.696-32.088-17.68-49.304-23.952v-36.248l15.816-4.52a65.75 65.75 0 0 0 21.608-10.736C382.064 203.456 392 183.584 392 162.792v-20.864c10.16-11.92 16-27.24 16-43.136V77.84a223.407 223.407 0 0 0 37.28-25.152A29.742 29.742 0 0 0 456 29.792C456 13.368 442.64 0 426.208 0h-6.472c-3.384 0-6.72.568-9.92 1.696L307.808 37.704c-21.4 7.544-39.608 22.424-51.288 41.88a97.677 97.677 0 0 0-11.504 28.624L216.56 233.416 192 226.048v-62.296l41.2-34.336a18.84 18.84 0 0 0 6.8-14.512C240 104.48 231.52 96 221.104 96h-55.952c-12.36-9.984-28.064-16-45.152-16s-32.792 6.016-45.152 16H18.896C8.48 96 0 104.48 0 114.896a18.84 18.84 0 0 0 6.8 14.512L48 163.752v66.36l-22.472 44.944L40 272.16v16.24c0 27.672 10.776 53.688 30.344 73.256 5.944 5.952 12.592 11.04 19.736 15.352l-8.896 9.784A35.32 35.32 0 0 0 72 410.56v2.112C72 432.152 87.848 448 107.328 448a35.245 35.245 0 0 0 26.968-12.504l34.624-40.92c11.272 2.248 22.2 5.928 32.488 11.08l6.032 3.016c18.96 9.48 40.064 14.68 61.264 15.224L290.048 496H360v-49.864a25.54 25.54 0 0 1 15.496-23.504c20.6-8.832 34.952-27.216 39.128-48.664l1.488-.592c24.464-9.792 43.656-28.512 54.024-52.728l1.88-4.4C477.32 303.904 480 290.832 480 277.4c0-15.232-3.6-30.496-10.416-44.12-6.584-13.176-10.84-27.52-12.624-42.152C479.16 186.92 496 167.4 496 144V88h-24zm-211.376 23.76a81.788 81.788 0 0 1 9.616-23.936c9.76-16.28 24.992-28.72 42.888-35.024l102.008-36.008a13.702 13.702 0 0 1 4.6-.792h6.472C433.816 16 440 22.184 440 29.792c0 4.112-1.808 7.968-4.96 10.592-22.728 18.936-48.696 32.56-77.184 40.496l4.288 15.408c10.28-2.856 20.224-6.472 29.856-10.688v13.192c0 15.792-7.536 30.864-20.176 40.336a50.006 50.006 0 0 1-16.4 8.144l-45.624 13.04 4.4 15.392 45.616-13.04A65.497 65.497 0 0 0 376 155.576v7.216c0 15.792-7.536 30.864-20.176 40.336a50.006 50.006 0 0 1-16.4 8.144l-45.624 13.04 4.4 15.392 13.8-3.952v43.336c0 3.552-1.448 7.04-3.96 9.56-3.696 3.696-9.28 4.912-14.192 3.152l-68.488-24.904 35.264-155.136zm-47.608 137.296l-3.608 15.872-9.968-19.944 13.576 4.072zM221.112 112a2.894 2.894 0 0 1 2.888 2.896 2.86 2.86 0 0 1-1.04 2.216l-31.52 26.272c-1.384-11.504-5.448-22.2-11.608-31.384h41.28zM17.04 117.12a2.876 2.876 0 0 1-1.04-2.224c0-1.6 1.296-2.896 2.896-2.896h41.28c-6.168 9.192-10.232 19.88-11.608 31.384L17.04 117.12zM64 233.888V152c0-30.872 25.12-56 56-56s56 25.128 56 56v81.888l9.528 19.056L152 246.24v22.448l-18.92-18.92L120 282.464l-13.08-32.696L88 268.688V246.24l-33.528 6.704L64 233.888zm305.192 174.04A41.526 41.526 0 0 0 344 446.136V480h-42.048L280 406.832v-45.288l15.432-38.568-14.856-5.936L264 358.464v49.048c-17.128-1.128-34.064-5.48-49.408-13.152l-6.032-3.016c-8.952-4.48-18.344-7.976-28-10.52l33.552-39.648-12.208-10.328-79.816 94.32a19.35 19.35 0 0 1-14.76 6.832C96.664 432 88 423.328 88 412.672v-2.112a19.27 19.27 0 0 1 5.024-13l72.896-80.176-11.832-10.768-53.024 58.32c-7.104-3.944-13.624-8.816-19.4-14.6C65.112 333.8 56 311.8 56 288.4v-19.44l16-3.2v41.552l29.08-29.08L120 325.536l18.92-47.304 29.08 29.08V265.76l39.424 7.888-.784 3.464 81.744 29.72a29.477 29.477 0 0 0 10.04 1.768c7.712 0 15.312-3.016 20.936-8.632 4.248-4.256 7.048-9.784 8.12-15.664 14.384 5.6 28.272 12.48 41.344 20.648C388.344 317.152 400 338.176 400 361.2a50.793 50.793 0 0 1-30.808 46.728zM464 277.4a82.129 82.129 0 0 1-6.68 32.544l-1.88 4.4c-7.896 18.416-21.92 32.984-39.768 41.656-.536-8.592-2.256-16.92-5.288-24.72C428.744 319.84 440 300.008 440 278.032a62.66 62.66 0 0 0-1.504-13.656l-2.176-9.8c-5.128-23.056-3.608-47.096 4-69.176 1.296 19.088 6.392 37.936 14.944 55.04 5.72 11.408 8.736 24.192 8.736 36.96zM480 144c0 14.872-10.24 27.288-24 30.864v-49.288l-14.656 21.984c-5.792 8.68-10.48 17.968-14.208 27.6C420.704 173.096 416 167.112 416 160c0-30.872 25.12-56 56-56h8v40z"/><path d="M342.258 84.623l3.467 15.618-16 3.552-3.468-15.618z"/></svg>