<svg xmlns="http://www.w3.org/2000/svg" viewBox="0 0 496 496"><path d="M120 128h16v16h-16zm80 0h16v16h-16zm-40 48h16v16h-16z"/><path d="M429.472 200.408c-26.36 8.792-48.352 27.496-61.472 51.6-13.112-24.112-35.104-42.816-61.472-51.6L296 196.904V248.2c0 22.04 5.208 44.112 15.064 63.832 6.872 13.744 15.864 26.224 26.608 36.96l8.568 8.976c-2.064 10.024-6.92 19.416-14.168 26.656-9.92 9.912-23.112 15.376-37.144 15.376a52.018 52.018 0 0 1-50.544-39.464l-3.4-13.6 26.928-15.384A24.058 24.058 0 0 0 280 310.712V112C280 50.24 229.76 0 168 0S56 50.24 56 112v198.712c0 8.592 4.632 16.576 12.096 20.832l27.472 15.704c-4.128 31.472 3.088 63.152 20.768 89.672l.48.712c24.36 36.552 65.12 58.368 109.04 58.368h36.528c52.104 0 99.68-32.672 118.384-81.312 6.888-17.92 9.568-37.328 7.92-56.44l9.512-9.136a142.66 142.66 0 0 0 26.736-37.088c9.856-19.72 15.064-41.792 15.064-63.832v-51.296l-10.528 3.512zM72 112c0-52.936 43.064-96 96-96s96 43.064 96 96v112.208c-6.704-5.08-14.96-8.208-24-8.208h-32v-2.824c23.872-13.856 40-39.64 40-69.176V98.8l-6.64-2.952 10.104-17.264-20.592-8.92L216 51.28l-14.872 18.384-9.456 4.096L168 63.248 88 98.8V144c0 29.536 16.128 55.32 40 69.176V216H96c-9.04 0-17.296 3.128-24 8.208V112zm144 4.48l16 4.072V144c0 35.288-28.712 64-64 64s-64-28.712-64-64v-34.8l64-28.448 18.656 8.296 5.496 9.392 1.728 23.672L216 116.48zm-12.528-30.4l7.632-3.304L216 76.72l4.904 6.064 7.632 3.304-4.376 7.472-.608 8.328-7.552-1.92-7.544 1.92-.608-8.328-4.376-7.48zM76.032 317.664A8.028 8.028 0 0 1 72 310.712V256c0-13.232 10.768-24 24-24h48v-11.688c7.584 2.392 15.64 3.688 24 3.688s16.416-1.296 24-3.688V232h48c13.232 0 24 10.768 24 24v54.712a8.015 8.015 0 0 1-4.032 6.944l-44.512 25.44a6.835 6.835 0 0 1-3.392.904h-5.232a6.839 6.839 0 0 1-6.832-6.832 6.79 6.79 0 0 1 3.776-6.112L248 308.944V272c0-13.232-10.768-24-24-24-16.936 0-33.888 4-49.04 11.576l-6.96 3.48-6.96-3.48C145.888 252 128.936 248 112 248c-13.232 0-24 10.768-24 24v36.944l44.216 22.104a6.803 6.803 0 0 1 3.784 6.12 6.839 6.839 0 0 1-6.832 6.832h-5.232a6.912 6.912 0 0 1-3.392-.896l-44.512-25.44zm120.584-.92c-4.864 2.432-8.376 6.496-10.48 11.256h-36.272c-2.104-4.76-5.624-8.824-10.488-11.256L104 299.056V272c0-4.408 3.592-8 8-8a94.124 94.124 0 0 1 41.888 9.888L168 280.944l14.112-7.056A94.124 94.124 0 0 1 224 264c4.408 0 8 3.592 8 8v27.056l-35.384 17.688zm169.216 92.208C349.488 451.448 307.912 480 262.384 480h-36.528c-38.552 0-74.336-19.152-95.728-51.232l-.48-.712c-14.296-21.448-20.888-46.736-19.008-72.184l1.968 1.128c3.44 1.96 7.36 3 11.328 3h5.232c10.192 0 18.744-6.76 21.672-16h34.32c2.928 9.24 11.48 16 21.672 16h5.232c3.968 0 7.888-1.04 11.328-3.008l3.16-1.808 2.312 9.232A67.989 67.989 0 0 0 294.928 416c18.304 0 35.512-7.128 48.464-20.072 10.416-10.416 17.304-24.184 19.384-38.768l4.024-28.176c.168-1.136 2.128-1.12 2.264.016l3.304 26.416c2.256 18.048-.008 36.56-6.536 53.536zM424 248.192c0 19.568-4.624 39.168-13.376 56.672-6.104 12.208-14.088 23.288-23.624 32.824l-.648.624-1.408-11.296c-1.072-8.56-8.384-15.016-17.016-15.016-8.472 0-15.768 6.328-16.968 14.712l-1.616 11.328-.232-.24a126.484 126.484 0 0 1-23.736-32.936C316.624 287.36 312 267.76 312 248.192V219.84c22.68 10.824 40.384 30.624 48.408 54.688L368 297.304l7.592-22.768c8.024-24.072 25.728-43.872 48.408-54.688v28.344z"/></svg>