<svg xmlns="http://www.w3.org/2000/svg" viewBox="0 0 496 496"><path d="M360.003 208c0-30.872-25.12-56-56-56h-16.888c10.408-10.176 16.888-24.336 16.888-40V75.312l16-16V24h-26.688c-6.464-14.104-24.04-24-45.312-24s-38.848 9.896-45.312 24h-26.688v35.312l16 16V112c0 15.664 6.48 29.824 16.888 40h-16.888c-30.88 0-56 25.128-56 56v56h-16v16h16v44c0 15.44 12.56 28 28 28 4.312 0 8.352-1.064 12-2.808V496h144V349.192c3.648 1.744 7.688 2.808 12 2.808 15.44 0 28-12.56 28-28v-44h16v-16h-16v-56zm-112-192c10.184 0 19.336 3.2 25.248 8h-50.496c5.912-4.8 15.064-8 25.248-8zm-56 36.688V40h112v12.688L292.691 64h-89.376l-11.312-11.312zm64 27.312v40h-16V80h16zm-48 32V80h16v56h48V80h16v32c0 22.056-17.944 40-40 40s-40-17.944-40-40zm51.68 54.752l-11.68 23.36-11.68-23.352c3.776.8 7.672 1.24 11.68 1.24s7.904-.44 11.68-1.248zM176.003 312v12c0 6.616-5.384 12-12 12s-12-5.384-12-12v-44h24v32zm64 168h-48v-16h48v16zm64 0h-48v-16h48v16zm40-156c0 6.616-5.384 12-12 12s-12-5.384-12-12v-44h24v44zm0-60h-24v-56h-16v240h-112V208h-16v56h-24v-56c0-22.056 17.944-40 40-40h27.056l20.944 41.888V248h16v-38.112L276.947 168h27.056c22.056 0 40 17.944 40 40v56z"/><path d="M240.003 264h16v16h-16zM455.291 63.08C447.651 53.496 436.243 48 424.003 48v16c7.344 0 14.192 3.296 18.776 9.056 4.664 5.832 6.28 13.192 4.56 20.704-1.952 8.56-9.016 15.624-17.584 17.584-7.504 1.72-14.864.096-20.704-4.56-5.744-4.592-9.048-11.44-9.048-18.784V56c0-13.232 10.768-24 24-24h8V0h-16v16.808c-18.232 3.712-32 19.872-32 39.192v32c0 12.24 5.496 23.648 15.072 31.288 7.152 5.704 15.92 8.704 24.968 8.704 3.08 0 6.184-.344 9.28-1.056 14.648-3.344 26.272-14.968 29.624-29.616 2.776-12.176-.016-24.656-7.656-34.24z"/><path d="M416.003 80h16v16h-16zm-344 56v16c7.344 0 14.192 3.296 18.776 9.056 4.664 5.832 6.28 13.192 4.56 20.704-1.952 8.56-9.016 15.624-17.584 17.584-7.512 1.728-14.864.096-20.704-4.56-5.744-4.592-9.048-11.44-9.048-18.784v-32c0-13.232 10.768-24 24-24h8V88h-16v16.808c-18.232 3.712-32 19.872-32 39.192v32c0 12.24 5.496 23.648 15.072 31.288 7.152 5.704 15.92 8.704 24.968 8.704 3.08 0 6.184-.344 9.28-1.056 14.648-3.344 26.272-14.968 29.624-29.616 2.776-12.176-.008-24.656-7.656-34.24C95.643 141.496 84.243 136 72.003 136z"/><path d="M64.003 168h16v16h-16z"/></svg>