<svg xmlns="http://www.w3.org/2000/svg" viewBox="0 0 496 496"><path d="M192 120h16v16h-16zm-64 0h16v16h-16z"/><path d="M396.848 282.288l-48.072-21.368 14.736-24.56L288 202.8V152h60.72c15.04 0 27.28-12.24 27.28-27.28 0-4.416-1.064-8.792-3.064-12.648C331.68 32.472 272.296 0 168 0h-.096C101.792.008 48 53.84 48 120v84.048c-30.056 21.76-48 56.344-48 93.64V352h16v36c0 15.44 12.56 28 28 28 .096 0 .184-.024.272-.024a387.3 387.3 0 0 1-29.784 59.216L1.68 496h332.64l-12.816-20.816c-30.976-50.328-49.888-106.84-55.624-165.296l41.16 20.584 9.232-15.384 51.016 25.504a32.447 32.447 0 0 0 14.44 3.408h2.032c17.784 0 32.24-14.464 32.24-32.24a32.272 32.272 0 0 0-19.152-29.472zM64 120c0-57.336 46.608-103.992 103.904-104h.104c98.656 0 152.152 29.008 190.728 103.44a11.524 11.524 0 0 1 1.264 5.28c0 6.216-5.064 11.28-11.28 11.28H288V96h-16v108.688l-104 104-104-104V120zM44 400c-6.616 0-12-5.384-12-12v-36h31.664c-3.248 15.392-7.472 30.552-12.56 45.432C49.032 398.984 46.624 400 44 400zm256.952-90.472l-36.416-18.208c-.32-6.424-.536-12.864-.536-19.32h-16a403.387 403.387 0 0 0 57.712 208H30.288a403.106 403.106 0 0 0 49.688-128H80v-.104A404.01 404.01 0 0 0 88 272H72c0 21.544-1.824 42.936-5.352 64H16v-38.312c0-31.256 14.648-60.28 39.272-79.104L168 331.312l113.768-113.768 58.712 26.096-39.528 65.888zM383.76 328h-2.032a16.25 16.25 0 0 1-7.264-1.72l-49.928-24.96 15.944-26.576 49.872 22.168A16.264 16.264 0 0 1 400 311.76c0 8.952-7.288 16.24-16.24 16.24zM432 192v16c26.472 0 48 21.528 48 48s-21.528 48-48 48c-2.296 0-4.608-.168-6.872-.496l-2.264 15.84c3.008.44 6.08.656 9.136.656 35.288 0 64-28.712 64-64s-28.712-64-64-64zm8.12-119.176c.848 12.88 6.272 24.88 15.496 34.104 5.408 5.408 8.384 12.6 8.384 20.256 0 11.784-7.072 22.224-18.008 26.608l-16.96 6.784 5.936 14.848 16.96-6.784C468.984 161.824 480 145.544 480 127.184c0-11.936-4.648-23.152-13.08-31.576C459.88 88.56 456 79.2 456 69.24V24l-24 32c-10.32 13.76-16 30.808-16 48h16c0-10.88 2.84-21.688 8.12-31.176z"/><path d="M360 204v12h16v-12c0-10.016 4.792-19.584 12.808-25.6C400.824 169.376 408 155.024 408 140v-12l6.4 4.8c6.016 4.504 9.6 11.688 9.6 19.2h16c0-12.52-5.976-24.488-16-32l-32-24v44c0 10.016-4.792 19.584-12.808 25.6C367.176 174.624 360 188.976 360 204zm72 84c17.648 0 32-14.352 32-32s-14.352-32-32-32-32 14.352-32 32 14.352 32 32 32zm0-48c8.824 0 16 7.176 16 16s-7.176 16-16 16-16-7.176-16-16 7.176-16 16-16z"/><path d="M425.288 192l1.232-.408-5.048-15.184-1.24.416A41.23 41.23 0 0 0 392 216h16a25.272 25.272 0 0 1 17.288-24zm-229.016 36.8c5.464-4.096 9.264-10.008 10.872-16.536C227.44 199.032 240 176.36 240 152v-40c0-13.232-10.768-24-24-24h-96c-13.232 0-24 10.768-24 24v40c0 24.36 12.552 47.04 32.856 60.256 1.6 6.536 5.408 12.44 10.872 16.536L168 250l28.272-21.2zm-65.72-35.32C118.952 182.968 112 167.952 112 152v-40c0-4.408 3.584-8 8-8h96c4.416 0 8 3.592 8 8v40c0 15.952-6.96 30.96-18.552 41.472C200.872 183.2 190.616 176 178.664 176h-21.328c-11.952 0-22.216 7.208-26.784 17.48zM144 205.336c0-7.352 5.984-13.336 13.336-13.336h21.328c7.352 0 13.336 5.984 13.336 13.336 0 4.176-1.992 8.16-5.328 10.664L168 230l-18.664-14A13.39 13.39 0 0 1 144 205.336z"/></svg>