<svg xmlns="http://www.w3.org/2000/svg" viewBox="0 0 496 496"><path d="M435.144 360.72C401.688 291.016 384 213.304 384 136 384 61.008 322.992 0 248 0S112 61.008 112 136c0 77.304-17.688 155.016-51.144 224.72L11.288 464h34.328a91.578 91.578 0 0 1 45.32 12.032A151.735 151.735 0 0 0 166.12 496c23.408 0 46.832-5.528 67.768-16l17.208-8.6a43.189 43.189 0 0 0 11.16-5.832l1.952 1.944C282.568 485.88 306.992 496 332.976 496c19.264 0 37.92-5.648 53.944-16.336C402.304 469.416 420.192 464 438.664 464h46.048l-49.568-103.28zM248 232c8.192 0 16.088-1.208 23.608-3.312-.8 23.976-3.832 47.776-9.032 70.92-.928-2.808-1.728-5.656-2.728-8.416l-21.736-59.784c3.248.368 6.544.592 9.888.592zm-72-88v-40h7.992c24.224 0 47.504-10.176 64.008-27.616C264.504 93.824 287.784 104 312.008 104H320v40c0 39.696-32.296 72-72 72s-72-32.304-72-72zm202.048 322.352A80.996 80.996 0 0 1 332.976 480c-21.712 0-42.12-8.456-57.464-23.8l-2.288-2.288A42.965 42.965 0 0 0 280 430.704V407.52c0-26.32-3.144-52.488-9.056-78.08l5.168-16.928c7.368-29.456 11.2-59.752 11.688-90.128C316.36 207.816 336 178.192 336 144V88h-23.992c-22.544 0-44.08-10.768-57.608-28.8l-6.4-8.536-6.4 8.536C228.072 77.232 206.536 88 183.992 88H160v56c0 38.56 24.968 71.328 59.56 83.192l25.264 69.464a295.786 295.786 0 0 1 6.432 19.848A331.237 331.237 0 0 1 264 407.512v23.184a27.083 27.083 0 0 1-18.528 25.712l-18.744 9.272c-39.784 19.912-89.248 18.52-127.848-3.544A107.543 107.543 0 0 0 45.616 448h-8.904l38.568-80.36C109.776 295.792 128 215.688 128 136c0-66.168 53.832-120 120-120s120 53.832 120 120c0 79.688 18.224 159.792 52.72 231.64L459.288 448h-20.624c-21.632 0-42.592 6.344-60.616 18.352z"/><path d="M192 128h16v16h-16zm96 0h16v16h-16zm-48 56h16v16h-16zm192-64c13.232 0 24-10.768 24-24 0-6.816-2-13.416-5.784-19.096L432 49.576l-18.216 27.336A34.285 34.285 0 0 0 408 96c0 13.232 10.768 24 24 24zm-4.904-34.216l4.904-7.36 4.904 7.352A18.415 18.415 0 0 1 440 96c0 4.408-3.584 8-8 8s-8-3.592-8-8a18.37 18.37 0 0 1 3.096-10.216zM48 216c13.232 0 24-10.768 24-24 0-6.816-2-13.416-5.784-19.096L48 145.576l-18.216 27.336A34.285 34.285 0 0 0 24 192c0 13.232 10.768 24 24 24zm-4.904-34.216l4.904-7.36 4.904 7.352A18.415 18.415 0 0 1 56 192c0 4.408-3.584 8-8 8s-8-3.592-8-8a18.37 18.37 0 0 1 3.096-10.216zM216 392c13.232 0 24-10.768 24-24 0-6.808-2-13.408-5.784-19.096L216 321.576l-18.216 27.336A34.323 34.323 0 0 0 192 368c0 13.232 10.768 24 24 24zm-4.904-34.216l4.904-7.36 4.904 7.352A18.434 18.434 0 0 1 224 368c0 4.416-3.584 8-8 8s-8-3.584-8-8c0-3.64 1.072-7.176 3.096-10.216zM352 217.576l-18.216 27.336A34.285 34.285 0 0 0 328 264c0 13.232 10.768 24 24 24s24-10.768 24-24c0-6.816-2-13.416-5.784-19.096L352 217.576zM352 272c-4.416 0-8-3.584-8-8a18.37 18.37 0 0 1 3.096-10.216l4.904-7.36 4.904 7.352A18.415 18.415 0 0 1 360 264c0 4.416-3.584 8-8 8zM152 393.576l-18.216 27.336A34.323 34.323 0 0 0 128 440c0 13.232 10.768 24 24 24s24-10.768 24-24c0-6.808-2-13.408-5.784-19.096L152 393.576zM152 448c-4.416 0-8-3.584-8-8 0-3.64 1.072-7.176 3.096-10.216l4.904-7.36 4.904 7.352A18.434 18.434 0 0 1 160 440c0 4.416-3.584 8-8 8zm186.216-67.096L320 353.576l-18.216 27.336A34.323 34.323 0 0 0 296 400c0 13.232 10.768 24 24 24s24-10.768 24-24c0-6.808-2-13.408-5.784-19.096zM320 408c-4.416 0-8-3.584-8-8 0-3.64 1.072-7.176 3.096-10.216l4.904-7.36 4.904 7.352A18.434 18.434 0 0 1 328 400c0 4.416-3.584 8-8 8zM133.784 236.912A34.285 34.285 0 0 0 128 256c0 13.232 10.768 24 24 24s24-10.768 24-24c0-6.816-2-13.416-5.784-19.096L152 209.576l-18.216 27.336zM160 256c0 4.416-3.584 8-8 8s-8-3.584-8-8a18.37 18.37 0 0 1 3.096-10.216l4.904-7.36 4.904 7.352A18.415 18.415 0 0 1 160 256zm256-40c0 13.232 10.768 24 24 24s24-10.768 24-24-10.768-24-24-24-24 10.768-24 24zm32 0c0 4.408-3.584 8-8 8s-8-3.592-8-8 3.584-8 8-8 8 3.592 8 8zM48 312c13.232 0 24-10.768 24-24s-10.768-24-24-24-24 10.768-24 24 10.768 24 24 24zm0-32c4.416 0 8 3.584 8 8s-3.584 8-8 8-8-3.584-8-8 3.584-8 8-8zM88 80c13.232 0 24-10.768 24-24s-10.768-24-24-24-24 10.768-24 24 10.768 24 24 24zm0-32c4.416 0 8 3.592 8 8s-3.584 8-8 8-8-3.592-8-8 3.584-8 8-8zm104 224h16v16h-16zm-72 40h16v16h-16zm96 104h16v16h-16zm-144-8h16v16H72zm336 8h16v16h-16zm-64 24h16v16h-16zm0-120h16v16h-16zm-48-40h16v16h-16zm40-96h16v16h-16zm-200-40h16v16h-16zm152-96h16v16h-16zm-96 0h16v16h-16z"/></svg>