<svg xmlns="http://www.w3.org/2000/svg" viewBox="0 0 496 496"><path d="M248 136c26.472 0 48-21.528 48-48s-21.528-48-48-48-48 21.528-48 48 21.528 48 48 48zm0-80c10.368 0 19.504 5.032 25.352 12.696C267.056 70.392 258.408 72 248 72c-10.328 0-19-1.624-25.336-3.328C228.52 61.024 237.64 56 248 56zm8 32c0 4.408-3.584 8-8 8s-8-3.592-8-8c0-.104.04-.208.048-.312 2.56.176 5.184.312 7.952.312s5.392-.136 7.952-.312c.008.104.048.208.048.312zm-39.552-4.424c2.288.664 4.888 1.312 7.736 1.912-.088.832-.184 1.664-.184 2.512 0 13.232 10.768 24 24 24s24-10.768 24-24c0-.848-.096-1.68-.184-2.512 2.848-.608 5.448-1.248 7.736-1.912.208 1.456.448 2.912.448 4.424 0 17.648-14.352 32-32 32s-32-14.352-32-32c0-1.512.24-2.968.448-4.424zM248 160c-12.152 0-18.184-5.512-18.44-5.744l-11.216 11.4C219.4 166.712 229.224 176 248 176s28.6-9.288 29.656-10.344l-11.216-11.4c-.256.232-6.288 5.744-18.44 5.744z"/><path d="M346.984 184.44l-36.016-7.208c10.168-5.848 17.72-14.84 21.728-25.472C356.968 149.4 376 128.888 376 104c0-25.816-20.504-46.88-46.08-47.904C317.112 23.32 285.264 0 248 0s-69.112 23.32-81.92 56.096C140.504 57.12 120 78.184 120 104c0 24.888 19.032 45.4 43.312 47.76 4.008 10.624 11.56 19.624 21.728 25.472l-36.016 7.208C122.928 189.656 104 212.752 104 239.352V352c0 17.648 14.352 32 32 32 6.776 0 13.04-2.144 18.216-5.744 3.368 1.688 8.008 3.84 13.784 6.16V496h72v-96.208c2.64.104 5.28.208 8 .208 2.72 0 5.36-.104 8-.208V496h72V384.416c5.776-2.32 10.416-4.472 13.784-6.16 5.176 3.6 11.44 5.744 18.216 5.744 17.648 0 32-14.352 32-32V239.352c0-26.6-18.928-49.696-45.016-54.912zM360 104c0 14.888-10.264 27.32-24.056 30.88 0-.256.056-.504.056-.768V88c0-5.232-.544-10.328-1.424-15.304C349.08 75.736 360 88.608 360 104zm-199.944 30.88C146.264 131.32 136 118.888 136 104c0-15.392 10.92-28.264 25.424-31.304C160.544 77.672 160 82.768 160 88v46.112c0 .256.048.512.056.768zm15.944-.768V88c0-39.696 32.296-72 72-72s72 32.304 72 72v46.112c0 12.92-7.176 24.528-18.736 30.312a50.14 50.14 0 0 0-17.592 14.68L280 184c-7.512 10.016-19.48 16-32 16s-24.488-5.984-32-16l-3.672-4.88a49.993 49.993 0 0 0-17.592-14.688c-11.56-5.784-18.736-17.4-18.736-30.32zM224 480h-40v-24h40v24zm0-40h-40v-49.872c11.256 3.512 24.808 6.68 40 8.44V440zm88 40h-40v-24h40v24zm0-40h-40v-41.44c15.192-1.752 28.744-4.928 40-8.44V440zm-64-56c-38.216 0-68.856-11.776-83.136-18.416C166.824 361.44 168 356.872 168 352v-16h160v16c0 4.88 1.184 9.456 3.144 13.6C316.912 372.248 286.368 384 248 384zm-80-64v-16h48v16h-48zm64 0v-16h32v16h-32zm144 32c0 8.824-7.176 16-16 16s-16-7.176-16-16V224h-16v64h-16v16h16v16h-48v-16h16v-16H168v-64h-16v128c0 8.824-7.176 16-16 16s-16-7.176-16-16V239.352c0-19 13.52-35.504 32.16-39.224l43.792-8.752 3.136-3.136c.136.176.32.304.456.48l3.656 4.88c10.512 14.024 27.264 22.4 44.8 22.4s34.28-8.376 44.8-22.392l3.672-4.896c.128-.176.312-.304.448-.472l3.136 3.136 43.792 8.752C362.48 203.848 376 220.352 376 239.352V352z"/><path d="M296 232h16v16h-16zm-112 0h16v16h-16z"/></svg>