<svg xmlns="http://www.w3.org/2000/svg" viewBox="0 0 500.496 500.496"><path d="M274.248 138.248h16v16h-16zm-64 0h16v16h-16zm32 48h16v16h-16z"/><path d="M442.936 226.952c15.04-19.328 25.672-41.176 31.608-64.928l25.952-103.776h-24.488c-42.688 0-83.376 16.144-114.328 44.792C356.04 46.528 308.224 2.248 250.248 2.248S144.456 46.528 138.816 103.04A168.144 168.144 0 0 0 24.488 58.248H0l25.944 103.776c5.936 23.76 16.568 45.608 31.608 64.936 8.088 10.4 17.672 19.144 28.224 26.288-31.064 16.32-51.528 48.928-51.528 85 0 44.752 30.072 82.288 72.032 92.92l-2.656 2.984 4.544 5.296c2.064 2.408 51.44 58.8 142.08 58.8s140.016-56.392 142.072-58.8l4.544-5.296-2.656-2.984c41.968-10.632 72.04-48.168 72.04-92.92 0-36.08-20.464-68.68-51.528-85 10.552-7.152 20.136-15.896 28.216-26.296zm-288.688-56.704v-56c0-52.936 43.064-96 96-96s96 43.064 96 96v56h16c13.232 0 24 10.768 24 24s-10.768 24-24 24h-35.68c-2.728-1.416-5.608-2.568-8.656-3.336l-6.192-1.544c11.56-13.872 18.528-31.696 18.528-51.12v-32c0-13.232-10.768-24-24-24h-112c-13.232 0-24 10.768-24 24v32c0 19.424 6.968 37.248 18.528 51.12l-6.192 1.544c-3.04.76-5.92 1.92-8.656 3.336h-35.68c-13.232 0-24-10.768-24-24s10.768-24 24-24h16zm180.96 83.808l46.096 92.192h16.944c6.616 0 12 5.384 12 12s-5.384 12-12 12H375l-43.784-80.264 3.992-35.928zm-84.96 4.192c-14.12 0-26-9.256-30.232-21.976a79.427 79.427 0 0 0 30.232 5.976 79.427 79.427 0 0 0 30.232-5.976c-4.232 12.72-16.112 21.976-30.232 21.976zm8 24c0 4.416-3.592 8-8 8-4.408 0-8-3.584-8-8s3.592-8 8-8 8 3.584 8 8zm-8-56c-35.288 0-64-28.712-64-64v-32c0-4.408 3.592-8 8-8h112c4.408 0 8 3.592 8 8v32c0 35.288-28.712 64-64 64zm-80.968 63.736l-43.784 80.264h-23.248c-6.616 0-12-5.384-12-12s5.384-12 12-12h16.944l46.096-92.192 3.992 35.928zm-99.096-72.848c-13.656-17.56-23.32-37.408-28.712-58.992L20.496 74.248h4c43.576 0 84.848 18.608 113.76 51.08v28.92c-22.056 0-40 17.944-40 40s17.944 40 40 40h19.28c-.312.552-.736 1.016-1.024 1.584l-10.96 21.92c-29.72-2.384-56.848-16.8-75.368-40.616zM50.248 338.248c0-33.752 21.472-63.912 52.84-75.24a121.344 121.344 0 0 0 34.8 10.056l-28.584 57.184h-7.056c-15.44 0-28 12.56-28 28s12.56 28 28 28H135l34.008-62.352c-3.512 27.648-15.136 53.736-33.856 74.792l-16.56 18.632c-39.248-5.68-68.344-38.872-68.344-79.072zm200 144c-67.72 0-111.12-35.064-125.056-48.272l12.6-14.176c24.04 18.328 61.936 38.448 112.456 38.448 29.168 0 57.144-6.728 83.136-19.984l-7.272-14.248c-23.72 12.096-49.24 18.232-75.864 18.232-45.504 0-79.824-17.92-101.856-34.512 24.384-28.16 37.856-64.04 37.856-101.344 0-5.696-.32-11.448-.952-17.112l-6.168-55.472c2.24-1.48 4.664-2.696 7.336-3.368l15.792-3.944c.096 19.088 11.4 35.528 27.648 43.168-2.28 3.664-3.656 7.952-3.656 12.584 0 13.232 10.768 24 24 24s24-10.768 24-24c0-4.632-1.376-8.92-3.656-12.584 16.24-7.64 27.544-24.08 27.648-43.168l15.792 3.944c2.672.664 5.088 1.888 7.336 3.368L315.2 289.28a154.842 154.842 0 0 0-.952 17.112c0 37.28 13.456 73.136 37.808 101.288-4.448 3.344-9 6.568-13.72 9.472l8.392 13.624c5.48-3.376 10.768-7.128 15.912-11.048L375.32 434c-13.872 13.2-57.08 48.248-125.072 48.248zm200-144c0 40.2-29.096 73.392-68.344 79.072l-16.56-18.632c-18.72-21.056-30.344-47.136-33.856-74.792l34.008 62.352h32.752c15.44 0 28-12.56 28-28s-12.56-28-28-28h-7.056L362.6 273.064a121.525 121.525 0 0 0 34.8-10.056c31.376 11.328 52.848 41.488 52.848 75.24zm-95.304-80.496l-10.96-21.92c-.288-.568-.712-1.032-1.024-1.584h19.288c22.056 0 40-17.944 40-40s-17.944-40-40-40v-28.92c28.904-32.472 70.184-51.08 113.76-51.08h4l-20.976 83.896c-5.392 21.584-15.056 41.424-28.712 58.992-18.528 23.816-45.656 38.232-75.376 40.616z"/></svg>