<svg xmlns="http://www.w3.org/2000/svg" viewBox="0 0 496.144 496.144"><path d="M440.072 336c-7.72 0-15.232 1.664-22.208 4.688-2.12-4.472-4.72-8.672-7.776-12.496 5.888-9.008 5.984-18.8 5.984-26.96a159.25 159.25 0 0 0-6.144-43.832l-6.12-21.424a97.351 97.351 0 0 1-3.736-26.704c0-28.928 12.744-56.144 34.976-74.664l6.224-5.192a18.84 18.84 0 0 0 6.8-14.512c0-10.424-8.48-18.904-18.896-18.904h-2.208c-3.288 0-6.528.864-9.376 2.496l-5.296 3.024c-32.64 18.656-58.312 48.144-72.272 83.048-7.928 19.832-11.952 40.72-11.952 62.088V308c0 1.672-.16 3.312-.448 4.936A64.373 64.373 0 0 0 305 335.56c-1.616.28-3.264.44-4.928.44-15.44 0-28-12.56-28-28v-3.936c0-27.088-19.336-50.256-45.984-55.096l-42.016-7.64v-3.04c21.504-11.032 37.864-30.624 44.592-54.288h2.44c13.08 0 25.376-5.096 34.624-14.344 9.248-9.248 14.344-21.544 14.344-34.624V96h-24.408C251.56 42.392 206.72 0 152.072 0h-24C73.424 0 28.584 42.392 24.48 96H.072v39.032c0 13.08 5.096 25.376 14.344 34.624C23.664 178.904 35.96 184 49.04 184h10.44c6.728 23.656 23.08 43.256 44.592 54.288v3.04l-42.016 7.64c-26.648 4.84-45.984 28.008-45.984 55.096V336c0 22.056 17.944 40 40 40h16.064c.64 18.32 6.424 35.856 16.984 50.984l1.96 2.8c29.024 41.592 76.528 66.368 127.2 66.36h.752l1.984-.008c30.528-.152 60.672-9.16 86.368-25.528-2.112 5.4-3.312 11.256-3.312 17.392v8h112v-8c0-16.336-8.216-30.768-20.712-39.44a87.161 87.161 0 0 0 15.624-8.832c8.768 5.352 18.744 8.272 29.088 8.272 30.88 0 56-25.128 56-56s-25.12-56-56-56zm-96-89.352c0-19.312 3.64-38.2 10.808-56.136 12.632-31.568 35.84-58.24 65.352-75.104l5.296-3.024c.44-.248.936-.384 1.44-.384h2.208c1.6 0 2.896 1.296 2.896 2.896 0 .864-.376 1.672-1.048 2.224l-6.224 5.192c-25.888 21.568-40.728 53.264-40.728 86.96 0 10.512 1.464 20.976 4.352 31.096l6.12 21.416a143.647 143.647 0 0 1 5.52 39.448c0 5.744-.048 10.928-1.92 15.456a63.776 63.776 0 0 0-17.184-9.112c1.928-3.448 3.112-7.36 3.112-11.576 0-13.232-10.768-24-24-24-6.168 0-11.744 2.408-16 6.24v-31.592zm24 49.352c0 4.416-3.592 8-8 8-4.408 0-8-3.584-8-8s3.592-8 8-8c4.408 0 8 3.584 8 8zm-8 24c23.736 0 43.448 17.336 47.28 40h-94.56c3.832-22.664 23.544-40 47.28-40zm-88.552 21.416a43.796 43.796 0 0 0 26.68 10.488 62.953 62.953 0 0 0-1.576 8.096h-32.76c4.032-5.328 6.704-11.656 7.656-18.584zM264.072 112v23.032c0 8.808-3.432 17.088-9.656 23.312-6.088 6.088-14.16 9.456-22.744 9.6.232-2.624.4-5.264.4-7.944v-42.128A46.338 46.338 0 0 1 254.704 112h9.368zm-85.52-91.912c33.744 10.672 58.664 41.184 61.208 77.768a61.803 61.803 0 0 0-21.816 10.136l-60.76-30.384c15.6-5.456 26.888-20.168 26.888-37.608 0-7.28-2.104-14.024-5.52-19.912zM144.072 16c13.232 0 24 10.768 24 24s-10.768 24-24 24-24-10.768-24-24 10.768-24 24-24zM49.04 168c-8.808 0-17.088-3.432-23.312-9.656s-9.656-14.512-9.656-23.312V112h9.368c11.4 0 22.136 4.104 30.632 11.528V160c0 2.704.168 5.36.408 8h-7.44zm-8.656-70.144c2.768-39.872 32.136-72.512 70.496-80.144A39.748 39.748 0 0 0 104.072 40c0 17.44 11.288 32.152 26.888 37.608L65.384 110.4c-7.328-6.088-15.856-10.312-25-12.544zM72.072 160v-35.056l72-36 72 36V160c0 39.696-32.304 72-72 72s-72-32.304-72-72zm96 84.592v1.056c-2.208 3.024-9.056 10.352-24 10.352-15.016 0-21.856-7.392-24-10.336v-1.072c7.64 2.168 15.672 3.408 24 3.408s16.36-1.24 24-3.408zM56.072 360c-13.232 0-24-10.768-24-24v-31.936c0-19.344 13.816-35.896 32.84-39.36l43.584-7.928c5.088 6.064 16 15.224 35.576 15.224s30.488-9.16 35.568-15.224l43.584 7.928c19.032 3.464 32.848 20.016 32.848 39.36V336c0 13.232-10.768 24-24 24h-40v-32h16v16h16v-16h16v-16h-72c-9.6 0-18.128 4.336-24 11.056-5.872-6.72-14.4-11.056-24-11.056h-72v16h16v16h16v-16h16v32h-40zm120-32v32h-8c-8.824 0-16-7.176-16-16s7.176-16 16-16h8zm-40 16c0 8.824-7.176 16-16 16h-8v-32h8c8.824 0 16 7.176 16 16zm173.472 105.608c-25.248 19.536-56.712 30.368-88.6 30.528l-1.984.008c-45.624.392-88.6-22.024-114.776-59.52l-1.96-2.8C93.56 405.408 88.76 391.032 88.12 376h31.952c9.6 0 18.128-4.336 24-11.056 5.872 6.72 14.4 11.056 24 11.056h25.472c-.896 2.512-1.472 5.184-1.472 8v6.68l6.568 1.184c41.792 7.608 78.096 23.072 107.904 45.968 3.152 2.416 6.456 4.544 9.84 6.496l-6.84 5.28zM399.064 480h-77.976c3.56-13.792 16.104-24 30.992-24h15.992c14.88 0 27.424 10.208 30.992 24zm-38.992-40c-15.992 0-31.128-5.136-43.776-14.848-29.6-22.736-65.04-38.584-105.472-47.176a7.936 7.936 0 0 1 5.248-1.976h215.536c-4.032 36.496-34.768 64-71.536 64zm80-8c-5.632 0-11.104-1.216-16.168-3.464a87.378 87.378 0 0 0 10.376-13.296c1.896.472 3.832.76 5.792.76 13.232 0 24-10.768 24-24 0-10.44-6.744-19.256-16.072-22.544l.544-9.456H423.52c-.176-1.384-.368-2.76-.632-4.112A39.867 39.867 0 0 1 440.072 352c22.056 0 40 17.944 40 40s-17.944 40-40 40zm2.024-32.408a89.842 89.842 0 0 0 3.872-12.888c1.272 1.416 2.104 3.24 2.104 5.296 0 3.696-2.568 6.672-5.976 7.592z"/><path d="M136.072 32h16v16h-16zm40 104h16v16h-16zm-80 0h16v16h-16zm87.592 42.528l-15.168-5.104c-.256.76-6.632 18.576-24.424 18.576s-24.168-17.816-24.424-18.576l-15.168 5.104c.408 1.208 10.168 29.472 39.592 29.472s39.184-28.264 39.592-29.472z"/></svg>