<svg xmlns="http://www.w3.org/2000/svg" viewBox="0 0 496 496"><path d="M272 280c-15.904 0-31.12 6.808-41.736 18.664l11.92 10.672A40.063 40.063 0 0 1 272 296c22.056 0 40 17.944 40 40s-17.944 40-40 40a40.084 40.084 0 0 1-29.816-13.328l-11.92 10.672C240.888 385.2 256.096 392 272 392c30.88 0 56-25.128 56-56s-25.12-56-56-56z"/><path d="M261.656 357.656L272 347.312l10.344 10.344 11.312-11.312L283.312 336l10.344-10.344-11.312-11.312L272 324.688l-10.344-10.344-11.312 11.312L260.688 336l-10.344 10.344z"/><path d="M385.464 188.12l-1.64-.408c-7.552-12.144-16.704-23.208-27.184-32.96 2.112-8.592 3.36-17.52 3.36-26.752 0-54.6-39.576-100.96-92.864-110.16l-1.24-4.352C263.624 5.544 256.264 0 248 0c-8.264 0-15.624 5.544-17.888 13.496l-1.248 4.344C175.576 27.04 136 73.4 136 128c0 9.232 1.248 18.16 3.36 26.752-10.488 9.752-19.632 20.808-27.184 32.96l-1.64.408A71.897 71.897 0 0 0 56 257.968V358.64c0 17.8 13.304 32.432 30.296 33.32 8.808.36 17.304-2.648 23.736-8.752a32.183 32.183 0 0 0 9.224-16.376c5.128 7.008 10.808 13.496 16.904 19.488L144.592 496H240v-24c0-4.416 3.592-8 8-8s8 3.584 8 8v24h95.408l8.464-110.064c6.128-6.032 11.936-12.384 17.032-19.352 3.272 14.024 15.008 24.616 29.384 25.376 8.816.36 17.304-2.648 23.736-8.752A32.11 32.11 0 0 0 440 360V257.968a71.897 71.897 0 0 0-54.536-69.848zM245.496 17.888c.64-2.224 4.368-2.224 5.008 0L256.824 40h-17.648l6.32-22.112zm-21.6 17.352l-7.592 26.56 15.384 4.4 2.92-10.2H261.4l2.912 10.2 15.384-4.4-7.592-26.56C313.832 46.024 344 83.872 344 128c0 52.936-43.064 96-96 96s-96-43.064-96-96c0-44.128 30.168-81.976 71.896-92.76zM424 360c0 4.432-1.768 8.552-4.992 11.6-3.216 3.064-7.448 4.592-11.88 4.376-8.344-.44-15.128-8.208-15.128-17.336v-76.752c0-14.08-7.824-26.744-20.424-33.04l-7.16 14.312C371.56 266.728 376 273.904 376 281.888v55.672c-13.392 26.104-34.008 47.28-59.808 61.24l7.616 14.08c6.656-3.6 12.872-7.776 18.888-12.208L339.048 448H288v16h49.824l-1.232 16H272v-8c0-13.232-10.768-24-24-24s-24 10.768-24 24v8h-64.592l-1.232-16H208v-16h-51.048l-3.616-47c26.872 19.816 59.744 31 94.664 31 21.208 0 41.808-4.096 61.216-12.168l-6.152-14.768C285.616 412.32 267.088 416 248 416c-54.312 0-103.168-30.024-128-78.432v-55.672c0-7.984 4.44-15.168 11.576-18.736l-7.16-14.312C111.824 255.152 104 267.816 104 281.888V360c0 4.432-1.768 8.552-4.992 11.6-3.216 3.064-7.464 4.592-11.88 4.376C78.784 375.536 72 367.768 72 358.64V257.968a55.92 55.92 0 0 1 42.416-54.328l8.064-2.016 1.704-2.872c5.816-9.808 12.808-18.832 20.728-27C161.984 211.832 201.76 240 248 240s86.016-28.168 103.088-68.248c7.92 8.168 14.912 17.192 20.728 27l1.696 2.872 8.064 2.016A55.918 55.918 0 0 1 424 257.968V360z"/><path d="M200 136c13.232 0 24-10.768 24-24s-10.768-24-24-24-24 10.768-24 24 10.768 24 24 24zm0-32c4.408 0 8 3.592 8 8s-3.592 8-8 8-8-3.592-8-8 3.592-8 8-8zm96 32c13.232 0 24-10.768 24-24s-10.768-24-24-24-24 10.768-24 24 10.768 24 24 24zm0-32c4.408 0 8 3.592 8 8s-3.592 8-8 8c-4.408 0-8-3.592-8-8s3.592-8 8-8zm-96 80h16v16h16v-16h32v16h16v-16h16v-16h-96z"/></svg>