<svg xmlns="http://www.w3.org/2000/svg" viewBox="0 0 496 496"><path d="M403.312 96l-5.656-5.656c-12.52-12.52-28.096-20.864-45.04-24.4C362.4 53.392 368 37.872 368 21.48 368 9.632 358.368 0 346.52 0a21.431 21.431 0 0 0-20.832 16.272C324.464 21.168 322.432 25.8 320 30.2V19.312C320 8.664 311.336 0 300.688 0c-3.904 0-7.728 1.232-10.92 3.416l.104-.432A105.208 105.208 0 0 0 264.968 0c-13.088 0-25.384 5.096-34.624 14.344-2.736 2.736-5.064 5.768-7.048 8.984-2.88-5.032-6.392-9.744-10.608-13.952l-3.712-3.712A19.424 19.424 0 0 0 195.312 0C184.664 0 176 8.664 176 19.312V30.2c-2.432-4.408-4.464-9.032-5.688-13.936A21.44 21.44 0 0 0 149.48 0C137.632 0 128 9.632 128 21.48c0 16.392 5.6 31.912 15.384 44.472-16.944 3.536-32.52 11.872-45.04 24.4L92.688 96l5.656 5.656c15.36 15.368 35.32 24.408 56.768 26.008l-35.304 26.472 41.952 16.784-25.992 25.992 39.024 7.808c-4.192 1.568-8.208 3.568-12.08 5.928-3.232-1.64-6.84-2.648-10.712-2.648-13.232 0-24 10.768-24 24 0 5.736 1.64 11.056 4.296 15.712C129.504 255.488 128 263.624 128 272v88c0 17.648 14.352 32 32 32 5.856 0 11.272-1.696 16-4.448V496h144V387.552c4.728 2.752 10.144 4.448 16 4.448 17.648 0 32-14.352 32-32v-88c0-8.368-1.488-16.52-4.288-24.296C366.36 243.04 368 237.736 368 232c0-13.232-10.768-24-24-24-3.872 0-7.48 1.008-10.72 2.64-3.864-2.352-7.888-4.352-12.08-5.928l39.032-7.808-25.992-25.992 41.952-16.784-35.304-26.472c21.448-1.6 41.408-10.648 56.768-26.008L403.312 96zm-87.856-35.712c12.68-10.152 21.816-24.4 25.744-40.136A5.483 5.483 0 0 1 352 21.48a56.388 56.388 0 0 1-25.168 47.016l-11.504 7.672a85.908 85.908 0 0 0-8.384-9.072l8.512-6.808zM294.624 20.68l3.728-3.712c1.88-1.896 5.648-.36 5.648 2.344v29.64l-10.152 8.12c-4.28-2.648-8.784-4.936-13.536-6.736 1.256-11.2 6.224-21.568 14.312-29.656zm-52.968 4.976C247.88 19.432 256.16 16 264.968 16c4.008 0 8.008.336 11.976.872C268.584 28.144 264 41.704 264 56v6.032l5.8 1.664c5.68 1.624 11.048 4.12 16.024 7.296-6.2 3.528-11.632 8.232-15.96 13.968l-22.872-15.248-11.144 11.136A133.514 133.514 0 0 1 232 48.968c0-8.672 3.52-17.168 9.656-23.312zm-17.96 70.728l4.816 14.424 20.504-20.512 25.2 16.8 7.128-10.688c4.264-6.4 10.32-11.232 17.504-13.984l-.408-1.064C311.744 95.264 320 115.016 320 136c0 18.52-10.624 43.92-24.2 62.056-.848-13.832-10.44-25.224-23.36-28.784.424-5.824 1.208-11.624 2.696-17.272H292c11.032 0 20-8.976 20-20s-8.968-20-20.224-20c-10.312 0-19.584 5.728-24.192 14.96-6.52 13.04-10.216 27.448-11.168 42.016-2.936.736-5.776 1.848-8.416 3.392-2.632-1.544-5.472-2.656-8.416-3.392-.952-14.568-4.648-28.976-11.168-42.008-4.6-9.24-13.88-14.968-24.416-14.968-11.032 0-20 8.976-20 20s8.968 20 20 20h16.856c1.496 5.648 2.272 11.448 2.696 17.272-12.92 3.56-22.512 14.952-23.36 28.776C186.624 179.912 176 154.52 176 136c0-28.208 16.488-53.568 41.656-65.272 1.272 8.688 3.24 17.272 6.04 25.656zM264 216c-3.88 0-7.656-1.48-10.648-4.168L248 207.008l-5.352 4.824C239.656 214.52 235.88 216 232 216c-8.824 0-16-7.176-16-16s7.176-16 16-16c3.88 0 7.656 1.48 10.648 4.168l5.352 4.824 5.352-4.824C256.344 185.48 260.12 184 264 184c8.824 0 16 7.176 16 16s-7.176 16-16 16zm1.92 15.808C261.52 236.792 255.152 240 248 240c-7.152 0-13.52-3.208-17.92-8.192.648.04 1.264.192 1.92.192 5.64 0 11.152-1.52 16-4.36a31.645 31.645 0 0 0 16 4.36c.656 0 1.272-.152 1.92-.192zM280.968 136c.304-.632.608-1.264.92-1.888C283.776 130.336 287.56 128 292 128c2.2 0 4 1.792 4 4s-1.8 4-4 4h-11.032zm-65.936 0H204c-2.2 0-4-1.792-4-4s1.8-4 4.224-4c4.208 0 8 2.336 9.88 6.112.32.624.624 1.256.928 1.888zM192 19.312c0-2.704 3.752-4.256 5.656-2.344l3.72 3.72c8.984 8.984 14.064 20.792 14.536 33.424a88.45 88.45 0 0 0-10.984 5.184L192 48.952v-29.64zM149.48 16a5.485 5.485 0 0 1 5.32 4.144c3.928 15.744 13.072 29.992 25.744 40.136l10.68 8.544a87.423 87.423 0 0 0-8.752 8.544l-13.296-8.872A56.376 56.376 0 0 1 144 21.48a5.483 5.483 0 0 1 5.48-5.48zm2.712 133.856l8.28-6.216c.36 3.32.944 6.736 1.72 10.216l-10-4zM161.936 112c-16.888 0-32.92-5.632-45.944-16 12.04-9.584 26.656-15.056 42.128-15.84.736.536 1.408 1.136 2.168 1.648L172.88 90.2c-4.12 6.752-7.288 14.096-9.48 21.8h-1.464zm6.296 75.088l4.24-4.24c.92 1.912 1.904 3.8 2.904 5.672l-7.144-1.432zM152 224c4.416 0 8 3.592 8 8h16c0-3.392-.728-6.616-2-9.544 6.44-3.392 13.464-5.376 20.76-6.048.48.52.952 1.048 1.432 1.552l-16.448 20.552C174.92 244.544 167.728 248 160 248c-8.824 0-16-7.176-16-16 0-4.408 3.584-8 8-8zm24 136c0 8.824-7.176 16-16 16s-16-7.176-16-16v-14.56l32 5.336V360zm64 120h-48v-16h48v16zm64 0h-48v-16h48v16zm48-120c0 8.824-7.176 16-16 16s-16-7.176-16-16v-9.224l32-5.336V360zm0-30.776l-32 5.336V280h-16v72h-16v16h16v80h-48v-56h-16v56h-48v-80h80v-16h-80v-72h-16v54.56l-32-5.336V272c0-4 .44-7.928 1.264-11.768C149.696 262.56 154.656 264 160 264c12.616 0 24.368-5.648 32.24-15.496l16.016-20.024c.808.56 1.616 1.088 2.424 1.584C216.408 245.176 230.912 256 248 256s31.592-10.824 37.312-25.928a59.843 59.843 0 0 0 2.432-1.584l16.016 20.016C311.632 258.352 323.384 264 336 264c5.336 0 10.296-1.44 14.728-3.76C351.544 264.08 352 268 352 272v57.224zm-30-106.76a23.83 23.83 0 0 0-2 9.536h16c0-4.408 3.584-8 8-8s8 3.592 8 8c0 8.824-7.176 16-16 16-7.728 0-14.92-3.456-19.744-9.488l-16.44-20.552c.48-.504.96-1.032 1.432-1.552 7.296.68 14.312 2.656 20.752 6.056zm-1.368-33.952c1-1.872 1.976-3.76 2.904-5.672l4.24 4.24-7.144 1.432zm23.176-38.656l-10 4c.776-3.48 1.36-6.896 1.712-10.216l8.288 6.216zM334.064 112h-1.072c-2-7.968-4.936-15.56-8.752-22.544l11.48-7.656c.76-.504 1.432-1.112 2.168-1.648 15.48.784 30.096 6.256 42.128 15.84C366.984 106.368 350.952 112 334.064 112z"/><path d="M208 272h16v16h-16zm64 0h16v16h-16z"/></svg>