<svg xmlns="http://www.w3.org/2000/svg" viewBox="0 0 494.952 494.952"><path d="M219.476 123.776c0-3.928.224-7.856.552-11.776h7.448c13.232 0 24-10.768 24-24 0-11.568-8.224-21.24-19.128-23.496.744-1.648 1.472-3.304 2.28-4.92l-14.312-7.16c-11.008 22.032-16.84 46.712-16.84 71.352V128h16v-4.224zM226.388 80h1.088c4.416 0 8 3.592 8 8s-3.584 8-8 8h-5.208a146.654 146.654 0 0 1 4.12-16zm-62.912 32h7.448c.328 3.92.552 7.848.552 11.776V128h16v-4.224c0-24.648-5.832-49.32-16.84-71.352l-14.312 7.16c.808 1.616 1.536 3.272 2.28 4.92C147.7 66.76 139.476 76.432 139.476 88c0 13.232 10.768 24 24 24zm0-32h1.088a143.09 143.09 0 0 1 4.12 16h-5.208c-4.416 0-8-3.592-8-8s3.584-8 8-8z"/><path d="M432.948 176.408c-26.36 8.784-48.352 27.488-61.472 51.6-13.12-24.112-35.112-42.816-61.472-51.6l-6.392-2.128c2.472-5.992 3.864-12.376 3.864-18.944v-12.208c1.704-1.736 3.328-3.56 4.8-5.52 7.224-9.632 11.2-21.56 11.2-33.6v-12.84c.552-.504 1.128-.976 1.656-1.504 9.248-9.264 14.344-21.56 14.344-34.632V24h-12.224c-21.984 0-43.984 4.664-64.12 13.488C248.948 15.008 223.956 0 195.476 0c-28.48 0-53.472 15.008-67.648 37.488C107.684 28.664 85.684 24 63.7 24H51.476v31.032c0 13.072 5.096 25.368 14.344 34.624.528.528 1.104 1 1.656 1.504V104c0 12.04 3.976 23.976 11.2 33.6 1.472 1.968 3.096 3.784 4.8 5.52v12.208a49.66 49.66 0 0 0 8.368 27.648c1.328 1.992 2.896 3.768 4.472 5.528-12.992 10.544-20.84 26.504-20.84 43.496v96c0 17.648 14.352 32 32 32 5.856 0 11.272-1.696 16-4.448v139.4l32-21.336 30.84 20.568 8.464-101.544c.064-.728 1.328-.728 1.392 0l8.464 101.544 30.84-20.568 32 21.336v-23.016c51.472-.672 98.256-33.12 116.768-81.24 6.888-17.904 9.568-37.312 7.928-56.448l9.504-9.128a142.37 142.37 0 0 0 26.736-37.088c9.856-19.712 15.064-41.784 15.064-63.84v-51.296l-10.528 3.512zM315.476 328v-38.288c6.744 13.064 15.384 24.984 25.672 35.272l8.56 8.968c-2.056 10.016-6.912 19.416-14.16 26.656-9.92 9.928-23.12 15.392-37.152 15.392-11.192 0-21.976-3.784-30.92-10.416v-10.032c4.728 2.752 10.144 4.448 16 4.448 17.648 0 32-14.352 32-32zm-48 0v-24h32v24c0 8.824-7.176 16-16 16s-16-7.176-16-16zm32-135.128c-1.512-1.552-3.144-2.992-4.84-4.368 1.576-1.76 3.144-3.536 4.48-5.528.136-.208.232-.44.368-.648v10.544h-.008zm8-88.872c0 8.6-2.84 17.128-8 24-5.888 7.848-14.52 13.168-24 15.128V104h15.032c5.888 0 11.6-1.088 16.968-3.064V104zm16-63.952v14.984c0 8.672-3.52 17.168-9.656 23.312C307.596 84.568 299.316 88 290.508 88h-15.032v-8c0-9.856-1.88-19.264-5.152-27.992 16.776-7.24 34.888-11.472 53.152-11.96zm-50.56 119.632a55.959 55.959 0 0 0 18.56-5.176v.832a33.7 33.7 0 0 1-5.68 18.768 33.826 33.826 0 0 1-19.952 14.064l-6.368 1.584v-9.848a47.681 47.681 0 0 0 13.44-20.224zM131.476 80c0-35.288 28.712-64 64-64s64 28.712 64 64v64.4c0 17.424-14.168 31.6-31.592 31.6h-.008c-8.44 0-16.368-3.288-22.336-9.256l-10.064-10.056-10.064 10.056c-5.968 5.968-13.896 9.256-22.344 9.256-17.424 0-31.592-14.176-31.592-31.6V80zm112 109.32v5.12c0 6.608-2.568 12.824-7.24 17.496a24.746 24.746 0 0 1-11.496 6.504l-6.216 1.552c.592-3.48.952-7.016.952-10.624v-4.432c3.248-3.72 5.648-8.152 6.904-13.08.512.016.992.144 1.504.144 5.464 0 10.704-.976 15.592-2.68zm-48 10.68c-7.144 0-13.144-4.736-15.192-11.216a47.433 47.433 0 0 0 15.192-9.52 47.347 47.347 0 0 0 15.192 9.52C208.62 195.264 202.62 200 195.476 200zm7.584 14.992c-.888 7.392-3.424 14.4-7.584 20.52-4.16-6.12-6.696-13.128-7.584-20.52 2.44.6 4.96 1.008 7.584 1.008 2.624 0 5.144-.408 7.584-1.008zM172.42 220l-6.216-1.552a24.786 24.786 0 0 1-11.496-6.504 24.637 24.637 0 0 1-7.232-17.504v-5.12c4.896 1.704 10.128 2.68 15.6 2.68.504 0 .984-.12 1.488-.136 1.256 4.928 3.656 9.36 6.904 13.08v4.432c0 3.6.36 7.144.952 10.624zm-40.944-40.096v9.856l-6.368-1.592a33.813 33.813 0 0 1-19.952-14.056 33.783 33.783 0 0 1-5.68-18.776v-.832a56.397 56.397 0 0 0 18.56 5.176 47.681 47.681 0 0 0 13.44 20.224zM77.132 78.344c-6.136-6.144-9.656-14.64-9.656-23.312V40.048c18.264.488 36.376 4.712 53.152 11.96-3.272 8.728-5.152 18.136-5.152 27.992v8h-15.032c-8.816 0-17.088-3.432-23.312-9.656zM91.476 128c-5.16-6.872-8-15.4-8-24v-3.064c5.368 1.976 11.08 3.064 16.968 3.064h15.032v39.128c-9.48-1.96-18.112-7.28-24-15.128zm32 200c0 8.824-7.176 16-16 16s-16-7.176-16-16v-24h32v24zm49.16 137.824l-17.16-11.44-16 10.664V440h35.312l-2.152 25.824zm78.84-.776l-16-10.664-17.16 11.432L216.164 440h35.312v25.048zm117.832-80.096c-16.152 41.992-56.936 70.312-101.832 70.984V408h-16v16h-36.64l-2.728-32.688c-.712-8.584-8.016-15.312-16.632-15.312-8.616 0-15.92 6.728-16.632 15.312L176.116 424h-36.64V240h-16v48h-32v-56c0-13.368 6.808-25.816 17.848-33.208 3.752 2.064 7.672 3.832 11.904 4.888l12.328 3.08c1.944 6.128 5.168 11.8 9.84 16.48a40.645 40.645 0 0 0 18.928 10.712l16.064 4.016a62.588 62.588 0 0 0 11.416 15.68l5.672 5.672 5.656-5.664a62.588 62.588 0 0 0 11.416-15.68l16.064-4.016a40.744 40.744 0 0 0 18.928-10.712c4.68-4.672 7.896-10.352 9.84-16.48l12.328-3.08c4.232-1.056 8.16-2.824 11.904-4.888 11.048 7.384 17.864 19.84 17.864 33.2v56h-32v-48h-16v152h16v-7.496c9.52 4.856 20.104 7.496 30.92 7.496 18.304 0 35.512-7.128 48.472-20.072 10.416-10.416 17.296-24.184 19.384-38.768l4.024-28.168c.16-1.128 2.136-1.12 2.264.008l3.304 26.408c2.248 18.072-.008 36.584-6.536 53.544zm58.168-160.76c0 19.576-4.624 39.168-13.384 56.672a126.39 126.39 0 0 1-23.616 32.816l-.648.624-1.416-11.288c-1.072-8.56-8.376-15.016-17.008-15.016-8.472 0-15.768 6.328-16.976 14.712l-1.616 11.32-.224-.232a126.38 126.38 0 0 1-23.736-32.936c-8.752-17.496-13.376-37.088-13.376-56.672V195.84c22.68 10.824 40.392 30.616 48.416 54.688l7.584 22.776 7.584-22.768c8.024-24.072 25.736-43.872 48.416-54.688v28.344z"/><path d="M219.476 248h16v16h-16zm-72 32h16v16h-16zm48 16h16v16h-16zm16 32h16v16h-16zm16 40h16v16h-16zm-56-56h16v16h-16zm-24 40h16v16h-16zm120-136h16v16h-16zm-168 24h16v16h-16zm184 168h16v16h-16zm48-16h16v16h-16z"/></svg>