<svg xmlns="http://www.w3.org/2000/svg" viewBox="0 0 501.336 501.336"><path d="M250.668 184.648l27.312-27.312-27.312-27.312-27.312 27.312 27.312 27.312zm4.688-27.312l-4.688 4.688-4.688-4.688 4.688-4.688 4.688 4.688zm43.312-24c13.232 0 24-10.768 24-24s-10.768-24-24-24-24 10.768-24 24 10.768 24 24 24zm0-32c4.408 0 8 3.592 8 8s-3.592 8-8 8c-4.408 0-8-3.592-8-8s3.592-8 8-8zm-72 8c0-13.232-10.768-24-24-24s-24 10.768-24 24 10.768 24 24 24 24-10.768 24-24zm-32 0c0-4.408 3.592-8 8-8s8 3.592 8 8-3.592 8-8 8-8-3.592-8-8zm229.656 157.36l15.816 2.424a516.158 516.158 0 0 1 2.408-14.352l-15.744-2.864a495.858 495.858 0 0 0-2.48 14.792z"/><path d="M476.452 146.096l-2.192-5.712c-10.824-28.144-38.352-47.048-68.504-47.048-19.352 0-37.544 7.464-51.336 20.992.072-1.664.248-3.304.248-4.992 0-27.056-2.688-54.24-8-80.792l-3.096-15.424-20.04 20.04L298.668 0l-24.864 33.152-23.136-23.128-23.136 23.136L202.668 0l-24.864 33.152-20.04-20.04-3.096 15.432a412.768 412.768 0 0 0-8 80.792c0 1.688.176 3.328.256 4.992-13.8-13.528-31.992-20.992-51.344-20.992-30.152 0-57.68 18.904-68.496 47.04l-2.2 5.72C10.14 184.416 2.668 224.672 2.668 265.728c0 29.648 3.96 59.184 11.768 87.784l26.168 95.848.256.768c2.584 6.704 9.144 11.208 16.32 11.208 9.4 0 17.096-7.464 17.472-16.776l2.128-13.624c1.072-6.896 1.984-13.8 2.792-20.712 3.408 5.52 7.384 10.712 12.072 15.392l9.952 9.952 4.504-11.264c8.224-20.576 13.416-41.96 15.512-63.832 6.288 7.328 14.08 13.184 22.912 17.328l-9.368 14.72 7.936 3.968c.872.432 14.536 7.072 42.96 11.88l-6.536 39.208-56.096 22.44 29.2 9.736-32.376 21.584h127.368l-12.736-25.464 6.96-62.656c2.912.056 5.784.12 8.832.12 3.048 0 5.92-.064 8.832-.12l6.96 62.656-12.736 25.464h127.368l-32.376-21.584 29.2-9.736-56.096-22.44-6.536-39.208c28.424-4.808 42.088-11.44 42.96-11.88l7.936-3.968-9.368-14.72c8.832-4.144 16.624-10 22.912-17.328 2.096 21.872 7.288 43.264 15.512 63.832l4.504 11.264 9.952-9.952c4.68-4.68 8.664-9.88 12.072-15.4.808 6.92 1.712 13.824 2.784 20.72l2.128 13.624c.384 9.312 8.072 16.776 17.48 16.776 7.184 0 13.744-4.504 16.32-11.208l26.424-96.616a333.393 333.393 0 0 0 11.768-87.784c0-41.056-7.472-81.312-22.216-119.632zM298.668 26.672l13.44 17.92-13.44 13.432-13.44-13.44 13.44-17.912zm-96 0l13.44 17.92-13.44 13.432-13.44-13.44 13.44-17.912zM167.82 45.8l34.848 34.848 48-48 48 48 34.864-34.864a397.37 397.37 0 0 1 5.136 63.552c0 48.52-39.48 88-88 88s-88-39.48-88-88c0-21.096 1.704-42.264 5.152-63.536zm82.848 167.536c-8.288 0-15.6 4.224-19.912 10.624a40.047 40.047 0 0 1-16.024-17.16c11.216 4.152 23.288 6.536 35.936 6.536s24.72-2.384 35.944-6.536c-3.472 7.136-9.04 13.128-16.032 17.16-4.312-6.4-11.624-10.624-19.912-10.624zm8 24c0 4.408-3.592 8-8 8-4.408 0-8-3.592-8-8s3.592-8 8-8 8 3.592 8 8zm-152 100.92c0 23.12-3.656 45.816-10.872 67.632-8.36-11.616-12.872-25.632-12.872-40.424h-.016a536.145 536.145 0 0 0-8.368-113.56l-15.744 2.856c10.456 57.512 11.184 115.952 2.168 173.704l-2.2 14.152-.096 1.232c0 1.36-2.104 1.896-2.776.736l-26.016-95.288a317.083 317.083 0 0 1-11.208-83.568c0-39.088 7.112-77.408 21.144-113.88l2.2-5.72c8.464-22.008 29.992-36.792 53.568-36.792 15.328 0 29.744 5.968 40.584 16.808l15.824 15.824c4.944 14.904 13.152 28.296 23.808 39.368h-1.352c-15.248 0-28.96 8.472-35.776 22.112l-39.16 78.312c-3.088 6.184-3.592 13.2-1.4 19.768a25.686 25.686 0 0 0 8.56 12.16v24.568zm47.248 8.592l-4.464 15.624c-9.88-5.12-17.864-13.2-22.936-23.344l-10.384-20.76a25.62 25.62 0 0 0 14.728-.472c6.56-2.184 11.872-6.8 14.968-12.984l24.84-49.688 22.816 45.64-20.384 32.032c2.24-16.472 1.384-33.296-2.672-49.504l-15.52 3.88a115.297 115.297 0 0 1-.992 59.576zm67.808 138.488h-48.632l15.624-10.416-18.8-6.264 23.904-9.56 8.072-48.464a379.515 379.515 0 0 0 23.912 2.04l-7.352 66.136 3.272 6.528zm109.696-16.688l-18.8 6.264 15.624 10.424h-48.632l3.264-6.536-7.352-66.136a379.515 379.515 0 0 0 23.912-2.04l8.08 48.464 23.904 9.56zm-80.752-71.312c-48.592 0-78.528-7.504-92-11.952l1.2-1.88.2.064.2-.688 46.792-73.544h19.608v8c0 13.232 10.768 24 24 24s24-10.768 24-24v-8h19.608l46.8 73.536.2.688.2-.064 1.2 1.88c-13.496 4.456-43.432 11.96-92.008 11.96zm-8-80v-8h16v8c0 4.408-3.592 8-8 8-4.408 0-8-3.592-8-8zm132.16 21.792c-5.072 10.152-13.056 18.224-22.936 23.344l-4.464-15.624c-5.544-19.4-5.888-40-.992-59.576l-15.52-3.88c-4.056 16.208-4.912 33.032-2.672 49.496l-20.384-32.032 22.808-45.632 24.84 49.688c3.096 6.184 8.408 10.792 14.968 12.984a25.955 25.955 0 0 0 8.216 1.344c2.208 0 4.392-.352 6.544-.928l-10.408 20.816zm13.216-42.664a9.814 9.814 0 0 1-4.96 5.72c-4.88 2.432-10.832.456-13.264-4.424l-39.152-78.312-36.944 73.888h-86.112l-36.944-73.888-39.16 78.312c-2.44 4.872-8.392 6.864-13.264 4.424a9.794 9.794 0 0 1-4.96-5.72 9.812 9.812 0 0 1 .536-7.544l39.16-78.312c4.088-8.192 12.312-13.272 21.464-13.272h20.224v-.504c.2.128.416.248.616.376 2.648 18.592 14.56 34.648 31.64 42.68 1.296 12.024 11.384 21.448 23.744 21.448s22.448-9.424 23.744-21.44c17.072-8.032 28.992-24.088 31.64-42.68.208-.128.416-.248.616-.376v.496h20.224c9.152 0 17.376 5.08 21.464 13.264l39.16 78.312a9.834 9.834 0 0 1 .528 7.552zm83.416 52.84l-26.016 95.288c-.664 1.152-2.776.616-2.776-.744l-2.304-15.376a521.27 521.27 0 0 1-2.224-145l-15.872-1.984c-3.48 27.888-4.68 55.96-3.776 83.976h-.072c0 14.8-4.512 28.816-12.872 40.432-7.224-21.824-10.88-44.52-10.88-67.64v-24.568a25.74 25.74 0 0 0 8.56-12.16c2.184-6.56 1.688-13.584-1.4-19.768l-39.16-78.312c-6.816-13.64-20.528-22.112-35.776-22.112h-1.352c10.648-11.072 18.864-24.464 23.808-39.368l15.824-15.824c10.84-10.84 25.256-16.808 40.584-16.808 23.576 0 45.104 14.784 53.568 36.792l2.2 5.712c14.032 36.48 21.144 74.8 21.144 113.888 0 28.224-3.768 56.344-11.208 83.576z"/></svg>