<svg xmlns="http://www.w3.org/2000/svg" viewBox="0 0 496 496"><path d="M224 0v56c0 10.416 6.712 19.216 16 22.528V200c0 99.288-79.056 180.408-177.528 183.832C59.12 374.632 50.352 368 40 368H0v128h40c10.416 0 19.216-6.712 22.528-16H152c180.856 0 328-147.144 328-328V78.528c9.288-3.312 16-12.112 16-22.528V0H224zM48 472c0 4.408-3.592 8-8 8H16v-96h24c4.408 0 8 3.592 8 8v80zm64-8H96v-16H80v16H64v-64.2a202.501 202.501 0 0 0 16-1.288V432h16v-36.024c5.424-1.104 10.744-2.48 16-4.016V464zm32 0h-16v-77.464a200.698 200.698 0 0 0 16-6.992V464zm314.864-256H440v16h15.52C423.512 358.92 303.712 460.152 160 463.8v-93.032c51.048-31.208 87.04-84.656 94.512-146.768H424v-16H255.8c.104-2.656.2-5.32.2-8v-24h206.984a311.667 311.667 0 0 1-4.12 32zM464 152c0 2.68-.136 5.336-.2 8H256v-32h208v24zm0-40H256V80h208v32zm16-56c0 4.408-3.592 8-8 8H248c-4.408 0-8-3.592-8-8V16h240v40z"/><path d="M336 240c-22.056 0-40 17.944-40 40s17.944 40 40 40 40-17.944 40-40-17.944-40-40-40zm0 64c-13.232 0-24-10.768-24-24s10.768-24 24-24 24 10.768 24 24-10.768 24-24 24zm-56 16c-17.648 0-32 14.352-32 32s14.352 32 32 32 32-14.352 32-32-14.352-32-32-32zm0 48c-8.824 0-16-7.176-16-16s7.176-16 16-16 16 7.176 16 16-7.176 16-16 16zm-64 8c-13.232 0-24 10.768-24 24s10.768 24 24 24 24-10.768 24-24-10.768-24-24-24zm0 32c-4.408 0-8-3.592-8-8 0-4.408 3.592-8 8-8s8 3.592 8 8c0 4.408-3.592 8-8 8zm40-376h16v16h-16zm32 0h16v16h-16zm32 0h16v16h-16zm32 0h16v16h-16zm32 0h16v16h-16zm32 0h16v16h-16zm32 0h16v16h-16z"/></svg>