<svg xmlns="http://www.w3.org/2000/svg" viewBox="0 0 496 496"><path d="M496 232c0-13.232-10.768-24-24-24h-60.856c-8.24-63.288-24.968-121.04-32.152-144H384c17.648 0 32-14.352 32-32S401.648 0 384 0H32C14.352 0 0 14.352 0 32s14.352 32 32 32h4.8C26.8 94.36 0 184.672 0 280c0 116.808 39.008 207.408 40.664 211.2l2.104 4.8h418.176l2.208-4.424C464.168 489.544 488 441.048 488 368c0-53.232-12.632-93.32-19.888-112H472c13.232 0 24-10.768 24-24zm-100.976-24H264c-13.232 0-24 10.768-24 24s10.768 24 24 24h3.888c-5.712 14.712-14.704 42.744-18.296 80H107.096C105.08 317.048 104 298.24 104 280c0-25.208 2.024-52.12 5.848-80h284.064c.384 2.656.752 5.32 1.112 8zm-97.2 192h-32.168A314.163 314.163 0 0 1 264 368a311.8 311.8 0 0 1 1.664-32h31.064a398.478 398.478 0 0 0-.728 24c0 13.584.72 27.08 1.824 40zm-30.12-80c4.96-32.008 13.592-54.848 17.472-64h24.16C306 268.432 300.824 291.128 298 320h-30.296zm117.632-168h-79.672c-8.112-39.408-17.68-72.048-22.672-88h79.216c4.064 12.6 14.328 46.128 23.128 88zM32 48c-8.824 0-16-7.176-16-16s7.176-16 16-16h352c8.824 0 16 7.176 16 16s-7.176 16-16 16H32zm21.664 16.008h71.109a614.892 614.892 0 0 0-4.341 13.656l15.304 4.68a554.563 554.563 0 0 1 5.928-18.336h124.544c4.048 12.56 14.328 46.096 23.12 88H118.16c3.712-18.048 7.96-36.112 12.936-53.832l-15.408-4.328c-5.376 19.144-9.96 38.672-13.888 58.16H30.104c8.872-43.008 19.384-75.792 23.56-88zM26.992 168h361.544a802.77 802.77 0 0 1 2.856 16H24.232c.88-5.448 1.8-10.776 2.76-16zM16 280c0-27.576 2.352-54.664 5.84-80h71.872C89.984 227.824 88 254.728 88 280c0 18.264 1.048 37.064 3.008 56h-71.92C17.176 318.216 16 299.464 16 280zm8 91.328A580.145 580.145 0 0 1 21.016 352h227.4c-.24 5.208-.416 10.512-.416 16H24v3.328zM53.376 480c-4.872-12.36-17.808-47.784-27.096-96h71.68c8.44 45.168 19.984 79.368 26.256 96h-70.84zm88 0c-4.888-12.384-17.896-47.888-27.144-96h134.192c2.168 45.248 12.96 79.248 19.464 96H141.376zM296 480h-10.824c-3.88-9.152-12.504-31.992-17.472-64h31.704c3.176 27.936 7.792 51.392 10.544 64H296zm16-120c0-8.296.296-16.304.776-24h110.448c.48 7.688.776 15.696.776 24 0 13.608-.776 27.176-1.912 40H313.912C312.76 387.048 312 373.52 312 360zm2.112-40c3.144-30.592 9-53.936 11.848-64h84.088c2.848 10.048 8.712 33.368 11.848 64H314.112zm136.712 160h-24.792c.84-3.864 1.848-8.736 2.952-14.496l-15.712-3.008A591.048 591.048 0 0 1 409.648 480h-83.296c-2.408-10.752-7.392-34.896-10.808-64h104.904a648.414 648.414 0 0 1-4.336 30.68l15.784 2.632a661.814 661.814 0 0 0 4.656-33.32h31.744c-4.968 32.016-13.592 54.856-17.472 64.008zM472 368a311.8 311.8 0 0 1-1.664 32h-32.184c1.104-12.832 1.848-26.392 1.848-40 0-8.296-.264-16.312-.72-24h31.064A314.163 314.163 0 0 1 472 368zm-3.704-48H438c-2.824-28.872-8-51.568-11.336-64h24.16c3.88 9.152 12.504 31.992 17.472 64zm-7.352-80H264c-4.408 0-8-3.592-8-8s3.592-8 8-8h208c4.408 0 8 3.592 8 8s-3.592 8-8 8h-11.056z"/></svg>