<svg xmlns="http://www.w3.org/2000/svg" viewBox="0 0 496 496"><path d="M408 176h-60.544a187.073 187.073 0 0 0-1.072-3.12C368.256 165.248 384 144.44 384 120c0-19.44-9.968-36.592-25.056-46.632l.024-.032c-.344-.232-.72-.384-1.072-.6a55.502 55.502 0 0 0-4.992-2.816c-.664-.328-1.32-.656-1.992-.96-2.104-.944-4.248-1.8-6.48-2.48-.368-.112-.752-.184-1.12-.288-1.976-.56-4-1.008-6.056-1.352-.648-.104-1.288-.208-1.944-.296-2.4-.328-4.832-.544-7.312-.544-2.832 0-5.624.24-8.376.656C315.936 28.392 285.224 0 248 0c-25.056 0-47.144 12.888-60.04 32.36C174.792 12.416 152.496 0 128 0 91.2 0 60.76 27.752 56.536 64H56c-2.488 0-4.912.216-7.312.536-.648.08-1.296.184-1.944.296-2.056.344-4.08.784-6.056 1.352-.368.104-.752.176-1.12.288-2.232.688-4.376 1.536-6.48 2.488a45.13 45.13 0 0 0-1.984.952 55.638 55.638 0 0 0-5 2.816c-.344.224-.728.376-1.072.6l.024.032C9.968 83.408 0 100.56 0 120c0 27.088 19.336 49.736 44.928 54.888C38.032 195.176 24 245.544 24 320c0 96.192 23.416 167.536 24.408 170.528L50.232 496H341.76l1.824-5.472c.352-1.048 3.456-10.608 7.336-26.528H408c48.52 0 88-39.48 88-88V264c0-48.52-39.48-88-88-88zm-56.248 128h-71.64c.024-2 .04-4 .056-6 5.696 3.776 12.504 6 19.832 6a35.739 35.739 0 0 0 15.416-3.464C327.92 294.608 336 281.832 336 268v-74.584c6.208 22.088 14.296 59.944 15.752 110.584zM16 120c0-16.344 9.88-30.384 23.96-36.584.512-.224 1.048-.4 1.568-.6a40.557 40.557 0 0 1 5.288-1.648c.648-.152 1.296-.312 1.96-.44C51.128 80.296 53.528 80 56 80c2.08 0 4.272.2 6.688.616l.112.008c14.072 2.44 26.048 12.264 30.92 26.024l15.088-5.336c-6.024-17.024-19.816-29.728-36.528-34.824C75.056 38.184 98.984 16 128 16c22.456 0 42.632 13.328 51.48 33.96A71.732 71.732 0 0 0 176 72h16c0-30.88 25.12-56 56-56 30.048 0 54.584 23.808 55.872 53.552-13.104 6.28-23.632 17.496-28.68 31.76l15.088 5.336c4.856-13.728 16.8-23.536 30.824-26l.192-.032C323.752 80.2 325.944 80 328 80c2.472 0 4.872.296 7.232.728.656.12 1.304.28 1.96.44 1.816.432 3.576.976 5.288 1.648.52.2 1.056.376 1.568.6C358.12 89.616 368 103.656 368 120c0 22.056-17.944 40-40 40h-8v108c0 7.688-4.496 14.784-11.448 18.088A19.884 19.884 0 0 1 300 288c-11.024 0-20-8.976-20-20V160h-56v148c0 11.024-8.976 20-20 20s-20-8.976-20-20v-92h-16v20c0 11.024-8.976 20-20 20-3 0-5.872-.648-8.552-1.912C132.496 250.784 128 243.688 128 236v-76H56c-22.056 0-40-17.944-40-40zm248.112 184H240V176h24v92c0 1.48.264 2.888.44 4.328l-.432.016c.344 8.024.232 20.008.104 31.656zM168 265.904V304h-39.832c.208-12.768.664-25.208 1.384-37.184 1 .6 1.976 1.216 3.04 1.72A35.678 35.678 0 0 0 148 272c7.4 0 14.272-2.256 20-6.096zM61.512 176H112v60c0 4.704 1 9.256 2.72 13.488-1.4 17.208-2.248 35.512-2.56 54.512H40.24c1.984-68.584 16.184-113.848 21.272-128zm.4 304c-4.232-14.456-15.32-56.456-19.888-112h71.736c4 55.36 13.864 94.28 19.208 112H61.912zm268.168 0h-71.056c4.2-13.96 11.224-41.016 16-79l-15.872-2c-5.232 41.6-13.368 69.96-16.896 81h-92.512c-4.352-13.592-15.584-53.408-19.944-112h132.416c-.384 5.2-.808 10.312-1.288 15.208l15.92 1.576c.536-5.392.992-11.04 1.408-16.792h71.712C345.4 423.48 334.312 465.528 330.08 480zm21-128H40.92c-.568-10.32-.92-20.984-.92-32h130.208c4.968 13.936 18.168 24 33.792 24s28.816-10.064 33.792-24H352c0 11.016-.352 21.68-.92 32zM480 376c0 39.696-32.304 72-72 72h-53.448c1.536-7.224 3.072-15.256 4.56-24H408c26.472 0 48-21.528 48-48V264c0-26.472-21.528-48-48-48h-50.032c-1.896-9.208-3.848-17.2-5.704-24H408c39.696 0 72 32.304 72 72v112zM360.928 232H408c17.648 0 32 14.352 32 32v112c0 17.648-14.352 32-32 32h-46.384c3.632-25.32 6.384-55.152 6.384-88 0-34.816-3.088-64.296-7.072-88z"/><path d="M96 128h128v16H96zm-32 0h16v16H64z"/></svg>