<svg xmlns="http://www.w3.org/2000/svg" viewBox="0 0 496 496"><path d="M484.424 229.264L400 187.056V240h-24.144C372.816 19.256 246.44.744 240.992.064L208 0v240h-32v-3.312L139.312 200H0v27.312L20.688 248 0 268.688V296h139.312L176 259.312V256h32v240h32.496l.496-.064c5.448-.68 131.824-19.192 134.864-239.936H400v52.944l84.424-42.208C491.56 263.168 496 255.984 496 248s-4.44-15.168-11.576-18.736zM132.688 216l24 24h-25.376l-24-24h25.376zM16 220.688V216h20.688l24 24H35.312L16 220.688zM16 280v-4.688L35.312 256h25.376l-24 24H16zm43.312 0l24-24H96v-16H83.312l-24-24h25.376l32 32-32 32H59.312zm73.376 0h-25.376l24-24h25.376l-24 24zM224 40.144l14.944.264c17.792 4.608 94.512 34.24 96.944 199.592H224V40.144zM224 256h111.888c-2.432 165.416-79.144 195-96.936 199.592l-14.952.264V256zm15.44 224H224v-8.136l16.144-.28 1.736-.224C260.264 466.928 352 435.328 352 248c0-187.256-91.736-218.912-110.12-223.352L224 24.2V16h15.408C247.104 17.28 360 39.8 360 248c0 209.216-111.472 230.608-120.56 232zM416 283.056V256h54.112L416 283.056zM416 240v-27.056L470.112 240H416z"/></svg>