<svg xmlns="http://www.w3.org/2000/svg" viewBox="0 0 496 496"><path d="M474.529 147.072l-1.8-4.024-4.36-.632c-44.656-6.472-76.536-33.28-92.208-77.52-5.408-15.28-8.152-32.712-8.152-51.816V0h-240v13.08c0 19.104-2.744 36.536-8.16 51.816-15.672 44.24-47.552 71.048-92.208 77.52l-4.36.632-1.8 4.024C7.233 179 .009 212.96.009 248c0 69.032 27.68 133.136 77.928 180.496C124.457 472.344 184.289 496 247.833 496c5.064 0 10.16-.152 15.264-.456 121.768-7.208 221.504-104.256 231.968-225.736 3.632-42.048-3.472-84.488-20.536-122.736zm4.6 121.368c-9.8 113.624-103.08 204.4-216.984 211.144-64.632 3.832-126.24-18.44-173.224-62.72C41.897 372.544 16.009 312.576 16.009 248c0-31.336 6.176-61.752 18.368-90.456 48.584-8.48 83.304-38.576 100.552-87.304 5.744-16.2 8.792-34.44 9.056-54.24h208.048c.264 19.8 3.312 38.032 9.056 54.24 17.248 48.728 51.968 78.832 100.552 87.304 14.92 35.128 20.808 72.416 17.488 110.896z"/><path d="M437.873 184.944l-4-1.256c-48.968-15.32-84.56-50.848-102.952-102.76-2.968-8.384-5.368-17.28-7.128-26.448L322.545 48H173.473l-1.248 6.488c-1.76 9.168-4.168 18.064-7.128 26.432-18.392 51.92-53.984 87.456-102.944 102.76l-4.008 1.256-1.24 4.016c-5.904 19.04-8.896 38.904-8.896 59.048 0 110.28 89.72 200 200 200 4.048 0 8.144-.112 12.24-.36 98.168-5.816 178.56-84.04 186.992-181.952 2.272-26.304-.464-52.12-8.12-76.736l-1.248-4.008zm-6.568 79.368c-7.768 90.056-81.712 162-172.008 167.36C152.953 437.952 64.009 353.184 64.009 248c0-17.152 2.352-34.072 7-50.368 51.84-17.528 89.536-55.952 109.168-111.36 2.528-7.128 4.672-14.592 6.408-22.264h122.856c1.736 7.664 3.872 15.136 6.408 22.272 19.616 55.4 57.32 93.824 109.176 111.36 6.144 21.432 8.248 43.848 6.28 66.672z"/><path d="M278.417 396.976l3.184 15.68c32.728-6.664 62.552-22.936 86.24-47.048L356.433 354.4c-21.448 21.824-48.432 36.552-78.016 42.576zm-21 2.752c-3.16.184-6.296.272-9.408.272v16a172.902 172.902 0 0 0 16.784-.808l-1.56-15.92a176.09 176.09 0 0 1-5.816.456zm61.424-187.192c.72-4.08 1.168-8.256 1.168-12.536 0-39.696-32.296-72-72-72s-72 32.304-72 72c0 4.28.448 8.456 1.168 12.536-28.528 9.576-49.16 36.512-49.16 68.224 0 39.696 32.296 72 72 72 18.448 0 35.248-7.032 48-18.488 12.752 11.448 29.552 18.488 48 18.488 39.704 0 72-32.304 72-72 0-31.712-20.64-58.656-49.176-68.224zM248.009 144c30.872 0 56 25.12 56 56 0 3.112-.32 6.152-.808 9.128-2.36-.232-4.76-.36-7.184-.36-3.144 0-6.216.272-9.248.664.76-3.144 1.24-6.296 1.24-9.432 0-22.056-17.944-40-40-40s-40 17.944-40 40c0 3.144.48 6.296 1.248 9.424-3.032-.392-6.104-.664-9.24-.664-2.432 0-4.832.128-7.2.368-.488-2.976-.808-6.016-.808-9.128 0-30.88 25.128-56 56-56zm22.84 124.224c8.344-2.8 16.032-7.048 22.704-12.512l7.504 1.592c10.984 2.336 18.96 12.192 18.96 23.456 0 13.232-10.768 24-24 24-6.936 0-13.328-2.912-17.976-8.2l-6.552-7.44c.32-2.744.528-5.528.528-8.36 0-4.28-.448-8.456-1.168-12.536zm-22.832-40.984c-6.112-5.488-13.128-9.976-20.84-13.128l-2.144-7.264c-.68-2.288-1.024-4.592-1.024-6.848 0-13.232 10.768-24 24-24s24 10.768 24 24c0 2.256-.344 4.552-1.016 6.84l-2.152 7.28c-7.712 3.16-14.72 7.64-20.824 13.12zm2.104 28.648c-.712.032-1.4.112-2.112.112-.704 0-1.392-.08-2.096-.104a55.439 55.439 0 0 1 2.104-3.832 57.174 57.174 0 0 1 2.104 3.824zm-25.576 33.24l-6.544 7.424c-4.656 5.296-11.048 8.208-17.984 8.208-13.232 0-24-10.768-24-24 0-11.256 7.968-21.12 18.944-23.448l7.512-1.6c6.672 5.464 14.36 9.712 22.712 12.512-.72 4.08-1.168 8.248-1.168 12.536 0 2.832.208 5.616.528 8.368zm-26.64-64.256c.704-.024 1.4-.104 2.104-.104 14.36-.008 27.432 5.472 37.352 14.384-3.032 4.256-5.656 8.824-7.712 13.696-13.872-4.832-25.256-14.96-31.744-27.976zm2.128 111.888c-30.888 0-56.016-25.12-56.016-56 0-24.44 15.76-45.216 37.632-52.84 2.16 5.104 4.944 9.872 8.168 14.296-17.344 4.576-29.792 20.424-29.792 38.536 0 22.056 17.944 40 40 40 11.288 0 21.624-4.656 29.304-12.992 2.112 5.208 4.832 10.088 8.048 14.608-9.92 8.912-22.992 14.392-37.344 14.392zm47.984-27.304c-5.048-8.408-8-18.2-8-28.696 0-3.112.32-6.152.808-9.128 2.368.24 4.76.368 7.184.368 2.432 0 4.832-.128 7.2-.368.488 2.976.808 6.016.808 9.128 0 10.496-2.952 20.288-8 28.696zm47.992-84.696c.704 0 1.392.08 2.096.104-6.48 13.016-17.856 23.136-31.728 27.976-2.056-4.872-4.68-9.432-7.712-13.688 9.92-8.912 22.992-14.392 37.344-14.392zm.008 112c-14.352 0-27.424-5.48-37.344-14.392a71.744 71.744 0 0 0 8.04-14.6c7.68 8.336 18.016 12.992 29.304 12.992 22.056 0 40-17.944 40-40 0-18.12-12.456-33.968-29.808-38.544 3.224-4.432 6.008-9.192 8.16-14.296 21.872 7.624 37.648 28.4 37.648 52.848 0 30.872-25.128 55.992-56 55.992z"/></svg>