<svg xmlns="http://www.w3.org/2000/svg" viewBox="0 0 496 496"><path d="M448 384v-80h-48V192h-32v-48h24V0h-80v64h-24V0h-80v64h-24V0h-80v144h24v48H96v112H48v80H0v112h496V384h-48zm-16-64v64h-48v-64h48zm-112 0h48v64h-48v-64zm-16-16v-40h32v40h-32zm48 0v-40h32v40h-32zm32-96v40h-32v-24h-16v24h-32v-32c0-2.72-.264-5.376-.64-8H384zm-224 40v-40h32.64c-.376 2.624-.64 5.28-.64 8v32h-32zm32 16v40h-32v-40h32zm-48-72v-48h208v48h-53.48c-9.008-18.888-28.24-32-50.52-32s-41.504 13.112-50.52 32H144zm64 96h32v16h-32v-16zm0-16v-56c0-22.056 17.944-40 40-40s40 17.944 40 40v56h-80zm80 16v16h-32v-16h32zm-32 32h48v64h-48v-64zm72-304h48v48h-48V16zm-104 0h48v48h-48V16zm-104 0h48v48h-48V16zm0 112V80h256v48H120zm-8 80h32v40h-32v-40zm0 56h32v40h-32v-40zm-48 56h48v16h16v-16h48v64h-48v-32h-16v32H64v-64zm32 160H16v-80h80v80zm96 0h-80v-80h80v80zm0-160h48v64h-48v-64zm96 160h-80v-80h80v80zm192 0h-80v-16h-16v16h-80v-80h80v48h16v-48h80v80z"/></svg>