<svg xmlns="http://www.w3.org/2000/svg" viewBox="0 0 496 496"><path d="M376 0H120C53.832 0 0 53.832 0 120v376h496V120C496 53.832 442.168 0 376 0zM16 176h66.488c-3.952 4.392-7.392 9.24-10.168 14.504-4.288-4-10-6.504-16.32-6.504-13.232 0-24 10.768-24 24s10.768 24 24 24c2.816 0 5.488-.576 8-1.472V240H16v-64zm120 64c44.112 0 80 35.888 80 80s-35.888 80-80 80-80-35.888-80-80 35.888-80 80-80zm-24-12.84V224c0-13.232 10.768-24 24-24s24 10.768 24 24v3.16c-7.688-1.992-15.696-3.16-24-3.16s-16.312 1.168-24 3.16zm80 15.024a96.038 96.038 0 0 0-16-9.344V224c0-22.056-17.944-40-40-40s-40 17.944-40 40v8.84a96.038 96.038 0 0 0-16 9.344V224c0-30.872 25.128-56 56-56s56 25.128 56 56v18.184zM64 208c0 4.416-3.584 8-8 8s-8-3.584-8-8 3.584-8 8-8 8 3.584 8 8zm-48 48h48.648C49.376 273.008 40 295.4 40 320c0 33.376 17.136 62.792 43.048 80H16V256zm240 224H16v-64h240v64zm0-80h-67.048C214.864 382.792 232 353.376 232 320c0-24.6-9.376-46.992-24.648-64H256v144zm0-160h-48v-9.472c2.512.896 5.184 1.472 8 1.472 13.232 0 24-10.768 24-24s-10.768-24-24-24c-6.32 0-12.032 2.504-16.32 6.504-2.784-5.264-6.224-10.112-10.168-14.504H256v64zm-48-32c0-4.416 3.584-8 8-8s8 3.584 8 8-3.584 8-8 8-8-3.584-8-8zm48-88v40h-87.16c-9.856-5.08-21-8-32.84-8-11.84 0-22.976 2.92-32.84 8H16v-40C16 62.656 62.656 16 120 16h196.384C280.36 36.728 256 75.536 256 120zm16 136h32v144h-32V256zm208 192v32H272v-64h208v32zm-160-48V256h112v144H320zm160 0h-32V256h32v144zm0-192v32H272v-64h208v32zm-160-48v-40c0-30.872 25.128-56 56-56s56 25.128 56 56v40H320zm160 0h-32v-40c0-39.704-32.296-72-72-72s-72 32.296-72 72v40h-32v-40c0-57.344 46.656-104 104-104s104 46.656 104 104v40z"/><path d="M32.44 111.208l15.92 1.576C52.024 75.848 82.824 48 120 48V32c-45.448 0-83.088 34.056-87.56 79.208zM32 128h16v16H32zm80 248h48v-50.96c5.128-5.832 8-13.312 8-21.04 0-17.648-14.352-32-32-32s-32 14.352-32 32c0 7.728 2.872 15.208 8 21.04V376zm24-88c8.824 0 16 7.176 16 16 0 4.512-1.904 8.72-5.36 11.832l-2.64 2.384V360h-16v-41.784l-2.64-2.384c-3.456-3.112-5.36-7.32-5.36-11.832 0-8.824 7.176-16 16-16zm160-56c13.232 0 24-10.768 24-24s-10.768-24-24-24-24 10.768-24 24 10.768 24 24 24zm0-32c4.416 0 8 3.584 8 8s-3.584 8-8 8-8-3.584-8-8 3.584-8 8-8zm80 32c13.232 0 24-10.768 24-24s-10.768-24-24-24-24 10.768-24 24 10.768 24 24 24zm0-32c4.416 0 8 3.584 8 8s-3.584 8-8 8-8-3.584-8-8 3.584-8 8-8zm80-16c-13.232 0-24 10.768-24 24s10.768 24 24 24 24-10.768 24-24-10.768-24-24-24zm0 32c-4.416 0-8-3.584-8-8s3.584-8 8-8 8 3.584 8 8-3.584 8-8 8zM296 472c13.232 0 24-10.768 24-24s-10.768-24-24-24-24 10.768-24 24 10.768 24 24 24zm0-32c4.416 0 8 3.584 8 8s-3.584 8-8 8-8-3.584-8-8 3.584-8 8-8zm80 32c13.232 0 24-10.768 24-24s-10.768-24-24-24-24 10.768-24 24 10.768 24 24 24zm0-32c4.416 0 8 3.584 8 8s-3.584 8-8 8-8-3.584-8-8 3.584-8 8-8zm80-16c-13.232 0-24 10.768-24 24s10.768 24 24 24 24-10.768 24-24-10.768-24-24-24zm0 32c-4.416 0-8-3.584-8-8s3.584-8 8-8 8 3.584 8 8-3.584 8-8 8zM56 472c13.232 0 24-10.768 24-24s-10.768-24-24-24-24 10.768-24 24 10.768 24 24 24zm0-32c4.416 0 8 3.584 8 8s-3.584 8-8 8-8-3.584-8-8 3.584-8 8-8zm80 32c13.232 0 24-10.768 24-24s-10.768-24-24-24-24 10.768-24 24 10.768 24 24 24zm0-32c4.416 0 8 3.584 8 8s-3.584 8-8 8-8-3.584-8-8 3.584-8 8-8zm80 32c13.232 0 24-10.768 24-24s-10.768-24-24-24-24 10.768-24 24 10.768 24 24 24zm0-32c4.416 0 8 3.584 8 8s-3.584 8-8 8-8-3.584-8-8 3.584-8 8-8z"/></svg>