<svg xmlns="http://www.w3.org/2000/svg" viewBox="0 0 496 496"><path d="M488 210.224V83.744c4.832-3.712 8-9.48 8-16.032 0-4.016-1.176-7.904-3.064-10.688l-26.632-48A20.253 20.253 0 0 0 449.424 0h-2.848c-6.8 0-13.112 3.376-17.216 9.592l-25.952 46.88A20.19 20.19 0 0 0 400 67.72c0 6.544 3.168 12.32 8 16.032v34.264c-27.488-6.84-106.824-31.768-118.52-93.832C286.84 10.168 274.664 0 260.536 0c-12.024 0-22.696 7.088-27.192 18.056-5.704 13.896-12.176 38.08-15.352 78.832C212.016 96.36 206.008 96 200 96 89.72 96 0 185.72 0 296s89.72 200 200 200 200-89.72 200-200c0-34.92-9.104-68.88-26.264-98.952 13.872-5.544 26.248-9.072 34.264-11.064v24.24c-4.76 2.776-8 7.88-8 13.776v16c0 5.896 3.24 11 8 13.776V480c0 8.824 7.176 16 16 16h48c8.824 0 16-7.176 16-16V253.776c4.76-2.776 8-7.88 8-13.776v-16c0-5.896-3.24-11-8-13.776zM248.144 24.136c2.024-4.944 6.888-8.136 12.392-8.136 4.672 0 8.832 2.512 11.256 6.328C266.528 32.368 248 72.752 248 144c0 74.296 19.984 127.608 23.96 137.472-2.4 3.944-6.656 6.528-11.424 6.528-1.896 0-3.648-.496-5.296-1.192-.008-.04 0-.088-.008-.136l-.2.032c-3.048-1.352-5.584-3.68-6.88-6.848-1.912-4.664-4.24-11.504-6.52-21.112l.112-.096c-.056-.064-.12-.112-.168-.168C236.672 237.8 232 204.368 232 152c0-77.024 10.112-113.176 16.144-127.864zM240 392v17a119.193 119.193 0 0 1-32 6.6v-64.24a55.8 55.8 0 0 0 32-16.248V376h16v-72.352c1.48.232 3 .352 4.536.352 12.32 0 23.144-7.736 27.464-19v92.304c-9.184 9.928-19.952 18.352-32 24.744V392h-16zm-6.664-106.064c1.536 3.752 3.84 7.008 6.632 9.728.008.112.032.224.032.336 0 22.056-17.944 40-40 40s-40-17.944-40-40 17.944-40 40-40c10.048 0 19.704 3.816 27.048 10.552 2.072 7.984 4.232 14.368 6.288 19.384zM192 351.368V415.6c-11.16-.744-21.88-3-32-6.6v-73.88a55.896 55.896 0 0 0 32 16.248zm-32-94.48v-73.88a119.193 119.193 0 0 1 32-6.6v64.232a55.8 55.8 0 0 0-32 16.248zm62.464-12.152c-4.592-2.016-9.464-3.36-14.464-4.088v-64.272c2.816.184 5.6.488 8.384.872.872 28.2 3.168 50.248 6.08 67.488zM384 296c0 101.456-82.544 184-184 184S16 397.456 16 296s82.544-184 184-184c5.656 0 11.32.344 16.936.856-.6 11.808-.936 24.816-.936 39.144 0 3.112.04 6.072.072 9.056C210.736 160.432 205.376 160 200 160c-74.992 0-136 61.008-136 136s61.008 136 136 136 136-61.008 136-136c0-23.344-5.936-45.944-17.176-66.088 12.064-11.048 26.288-19.712 40.152-26.392C375.312 231.536 384 263.304 384 296zM96 336v19.608C85.88 338.024 80 317.704 80 296c0-21.704 5.88-42.024 16-59.608V320h16V214.696c9.184-9.928 19.952-18.352 32-24.744v212.104c-12.048-6.392-22.816-14.816-32-24.744V336H96zm208 19.608V246.504a105.648 105.648 0 0 1 3.232-4.296A119.42 119.42 0 0 1 320 296c0 21.704-5.88 42.024-16 59.608zM408 169.48c-23.584 5.304-102.128 27.128-127.816 86.52C273.32 233.128 264 193.072 264 144c0-47.064 8.584-79.912 15.232-98.344C303.84 106.808 384.112 129.152 408 134.52v34.96zm9.056-104.696l25.952-46.88A4.294 4.294 0 0 1 446.576 16h2.848c1.432 0 2.768.712 3.224 1.344l26.632 48c.472.704.72 1.528.72 2.376 0 2.36-1.92 4.28-4.28 4.28h-55.44c-2.36 0-4.28-1.92-4.28-4.28 0-.848.248-1.672 1.056-2.936zM472 88v120h-48V88h48zm0 344h-16v16h16v32h-48v-32h16v-16h-16v-32h48v32zm0-48h-48v-32h48v32zm0-48h-48v-32h48v32zm0-48h-48v-32h48v32zm-56-48v-16h64l.008 16H416z"/><path d="M168 296c0 17.648 14.352 32 32 32s32-14.352 32-32-14.352-32-32-32-32 14.352-32 32zm48 0c0 8.824-7.176 16-16 16s-16-7.176-16-16 7.176-16 16-16 16 7.176 16 16zm-24-168h16v16h-16zM86.862 171.55l11.314 11.314-11.314 11.313-11.313-11.313zM32 288h16v16H32zm54.845 132.44l-11.313-11.313 11.313-11.314 11.314 11.314zM192 448h16v16h-16zm121.129-27.545l-11.314-11.313 11.314-11.314 11.313 11.314zM352 288h16v16h-16z"/></svg>