<svg xmlns="http://www.w3.org/2000/svg" viewBox="0 0 496.016 496.016"><path d="M389.016 297.063c26.016-8.088 49.72-23 68.24-43.68 29.216-32.616 42.632-74.76 37.792-118.648C487.248 64.119 430.232 7.783 359.48.775c-48.032-4.728-93.984 12.6-126.592 47.592C152.384 52.119 88 118.599 88 200.007c0 13.232-10.768 24-24 24H48c-26.472 0-48 21.528-48 48v8c0 23.736 17.336 43.448 40 47.28v8.72c0 5.32 1.104 10.592 3.216 15.528C31.256 366.335 24 390.351 24 416.007c0 44.856 21.088 80 48 80s48-35.144 48-80c0-14.136-2.2-27.936-6.296-40h31.328c3.448 21.24 17.448 83.6 66.32 118.504l2.088 1.496H496v-152h-8c-40.752 0-82.536-32.584-98.984-46.944zm56.328-54.352c-13.416 14.976-29.888 26.536-48.008 34.272l-4.128-15.104-15.44 4.216 4.44 16.248c-12.312 3.624-25.136 5.664-38.208 5.664-20.872 0-40.04-7.336-55.144-19.52l42.736-61.912c4 .904 8.136 1.432 12.408 1.432 5.984 0 11.744-.968 17.152-2.712l12.256 44.824 15.44-4.216-13.08-47.824A56.392 56.392 0 0 0 390 183.871l73.816 32.384c-5.056 9.368-11.144 18.272-18.472 26.456zm-129.072-42.12l-39.048 56.568C264.024 241.767 256 221.823 256 200.007c0-48.52 39.48-88 88-88 22.056 0 40 17.944 40 40s-17.944 40-40 40-40-17.944-40-40h-16c0 20.784 11.408 38.92 28.272 48.584zm162.872-64.112c2.512 22.752-.616 44.904-8.616 65.24l-73.376-32.192c1.824-5.52 2.848-11.4 2.848-17.52 0-3.608-.376-7.12-1.024-10.544l72.704-36.352c3.664 9.984 6.264 20.464 7.464 31.368zm-13.856-46.064l-71.624 35.816a56.367 56.367 0 0 0-22.12-22.928l25.392-76.536c29.544 12.52 53.848 35.184 68.352 63.648zm-107.392-73.72c8.232.816 16.232 2.408 23.976 4.648l-25.264 76.152c-4.056-.944-8.264-1.488-12.608-1.488-8.544 0-16.808 1.152-24.76 3.104l-28.856-72.128c20.848-8.936 43.912-12.608 67.512-10.288zm-114.92 44.248a136.808 136.808 0 0 1 33.048-26.76l27.952 69.856c-6.016 2.52-11.728 5.608-17.104 9.16l-.184-1.088c-47.424 7.864-51.376-14.648-52.672-22.056-1.776-10.048 1.576-20.928 8.96-29.112zM72 480.007c-3.944 0-8-1.824-11.848-5.128l36.072-18.04C89.912 471.327 80.68 480.007 72 480.007zm30.36-44.12l-52.12 26.064c-2.344-4.36-4.392-9.432-6.04-15.088l15.336-7.552-7.064-14.36-11.56 5.688A118.819 118.819 0 0 1 40 416.007c0-1.032.088-2.048.112-3.08l59.184-29.128c1.584 5.144 2.744 10.64 3.52 16.368l-34.344 16.904 7.064 14.36 28.432-13.992c-.072 6.52-.624 12.712-1.608 18.448zM480 480.007H218.616c-50.488-37.848-58.576-112.048-58.656-112.808l-.736-7.192H88.832l4.44 8.92-51.136 25.168c2.912-15.08 8.656-28.072 16.328-35.616l4.56-4.48-3.376-5.44C57.232 344.647 56 340.423 56 336.007v-8h88v-16H48c-17.648 0-32-14.352-32-32v-8c0-17.648 14.352-32 32-32h16c22.056 0 40-17.944 40-40 0-68.704 51.248-125.52 117.504-134.592-3.64 8.736-4.856 18.272-3.256 27.408 3.088 17.544 14.568 36.56 49.336 36.88C250.52 148.239 240 172.887 240 200.007c0 57.344 46.656 104 104 104 8.968 0 17.816-.984 26.536-2.536l-.192.192c2.272 2.272 53.968 53.352 109.656 58.008v120.336z"/><path d="M40 256.007h16v16H40zm128-112h-2.536l-26.608 18.752-.856 2.368c-1.328 3.648-2 7.312-2 10.88 0 17.648 14.352 32 32 32s32-14.352 32-32-14.352-32-32-32zm0 48c-8.824 0-16-7.176-16-16 0-1.048.128-2.104.376-3.2l17.928-12.632c7.736 1.112 13.696 7.792 13.696 15.832 0 8.824-7.176 16-16 16z"/></svg>