<svg xmlns="http://www.w3.org/2000/svg" viewBox="0 0 496.001 496.001"><path d="M371.529 426.833c1.736 4.6 3.304 9.688 4.664 15.12l15.512-3.888c-1.504-6.024-3.256-11.696-5.208-16.864l-14.968 5.632z"/><path d="M490.769 344.505c-59.936-22.472-111.168-78.816-129.376-109.048-4.368-7.24-13-22.136-21.76-37.344l39.712-71.528c3.504-6.296 3.44-14.088-.168-20.328-4.32-7.488-12.952-11.504-21.696-9.96l-76.496 15.864a165.686 165.686 0 0 0-8.408-7.136l-8.784-87.08c-1.136-8.568-7.552-15.584-15.968-17.448-7.048-1.592-14.488.704-19.464 5.928l-58.976 62.16a166.546 166.546 0 0 0-17.656.744l-64.12-57.16c-6.624-5.56-16.096-6.416-23.6-2.064-6.224 3.616-10.176 10.328-10.296 17.528l-1.448 86.128 1.136.016c-55.832 52.152-70.712 137.76-30.92 206.688l8.216 14.24 1.8-.752 11.488 11.88a20.129 20.129 0 0 0 14.488 6.152c3.456 0 6.928-.88 10.08-2.704 5.848-3.368 9.6-9.416 10.048-16.168l.952-14.712 10.016 10.36a20.129 20.129 0 0 0 14.488 6.152c3.456 0 6.928-.88 10.088-2.704a20.183 20.183 0 0 0 10.04-16.168l1.336-20.696 1.536-.64c8.448-3.984 18.712-.768 23.368 7.312 4.744 8.216 2.448 18.496-5.656 24.128l-82.496 63.2 8.232 14.24c19.84 34.384 63.96 46.208 98.376 26.344l59.512-34.6c9.464 20.016 35.352 71.752 61.92 98.32l2.328 2.352h203.312V346.457l-5.184-1.952zM360.497 112.017a4.66 4.66 0 0 1 4.824 2.248 4.592 4.592 0 0 1 .04 4.56l-35.032 63.096c-9.184-16-16.68-29.16-16.856-29.464a169.948 169.948 0 0 0-19.096-26.728l66.12-13.712zm-120.52-94.568a4.634 4.634 0 0 1 4.376-1.328c1.888.416 3.328 1.992 3.552 3.68l7.368 73.12c-13.48-8.176-28.16-14.544-43.816-18.744-7.096-1.896-14.24-3.152-21.4-4.12l49.92-52.608zM69.713 27.905a4.642 4.642 0 0 1 2.312-3.936c1.688-.976 3.816-.792 5.128.304l54.096 48.224a168.19 168.19 0 0 0-47.272 18.464c-5.424 3.128-10.56 6.568-15.496 10.192l1.232-73.248zm-7.08 304.176c-.096 1.4-.856 2.648-2.072 3.344a4.148 4.148 0 0 1-5.072-.712l-7.104-7.352 14.952-6.208-.704 10.928zm45.568-17.072a4.166 4.166 0 0 1-2.072 3.344 4.15 4.15 0 0 1-5.072-.712l-8.376-8.664 16.344-6.784-.824 12.816zm191.136 164.992c-10.68-11.336-21.352-27.192-30.696-42.904 12.616-8.832 33.12-20.384 48.584-18.88 6.128.632 10.944 3.296 14.728 8.144 4.832 6.176 7.248 15.432 5.632 21.52-3.96 14.816-12.936 15.32-15.896 15.496-4.72.176-8.968-2.312-10.392-6.128-.712-1.888-1.888-5.048 5.232-9.16l-8-13.856c-17.024 9.832-14.216 23.288-12.216 28.624 3.712 9.904 13.728 16.528 24.712 16.528.52 0 1.056-.016 1.576-.048 14.928-.84 26.032-10.816 30.44-27.336 3.392-12.704-1.824-26.984-8.48-35.504-6.52-8.344-15.176-13.12-25.728-14.192-20.912-2.208-44.68 11.496-58.184 20.848a628.76 628.76 0 0 1-10.576-19.968c10.992-6.32 36.44-19.184 61.88-19.184 24.544 0 41.264 8.92 52.616 28.08l13.768-8.16c-14.32-24.168-36.04-35.92-66.384-35.92-28.656 0-56.112 13.448-68.952 20.776-2.304-4.848-3.672-7.888-3.736-8.024l-3.624-8.152-74.808 43.496c-26.744 15.44-61.056 6.24-76.496-20.496l-1.208-2.088 71.048-54.44c14.448-10.032 18.872-29.824 10.088-45.048-8.808-15.232-28.16-21.28-43.712-13.936l-83.008 34.456-1.2-2.088c-41.904-72.576-16.952-165.728 55.632-207.64 35.168-20.296 76.128-25.688 115.336-15.184 39.216 10.512 72 35.664 92.272 70.792.416.736 3.496 6.128 7.888 13.808-18.12 10.656-63.096 41.032-69.472 83.104-3.752 24.72 6.336 48.848 29.976 71.728l11.128-11.504c-19.688-19.056-28.192-38.496-25.288-57.8 5.272-34.928 45.504-62.032 61.632-71.608 3.632 6.328 7.544 13.136 11.424 19.872-14.264 6.368-41.368 20.752-50.712 41.592-4.344 9.68-4.528 19.56-.568 29.384 4.048 10.032 13.816 21.68 26.512 25.104 4.112 1.104 8.08 1.648 11.84 1.648 11.36 0 20.888-4.952 27.048-14.344 6.368-9.704 5.904-22.456-1.128-31-3.616-4.408-13.864-13.576-30.904-3.752l8 13.856c7.112-4.104 9.264-1.512 10.544.048 2.584 3.152 2.632 8.216.112 12.072-1.616 2.472-6.528 10-21.36 6.016-6.096-1.64-12.896-8.36-15.832-15.632-2.304-5.704-2.2-11.208.32-16.832 6.928-15.48 30.352-28.256 44.168-34.24 5.264 9.072 9.896 17 12.768 21.76 18.8 31.2 70.792 88.632 132.264 113.744v122.552H299.337z"/><path d="M103.953 144.001c-17.648 0-32 14.352-32 32s14.352 32 32 32 32-14.352 32-32-14.352-32-32-32zm0 48c-8.824 0-16-7.176-16-16s7.176-16 16-16 16 7.176 16 16-7.176 16-16 16z"/></svg>