<svg xmlns="http://www.w3.org/2000/svg" viewBox="0 0 496 496"><path d="M471.56 192c-40.44 0-78.024 17.28-104.264 47.624C360.72 234.88 352.712 232 344 232c-17.232 0-31.816 11.016-37.432 26.32a39.425 39.425 0 0 0-2.816-2.32H304v-40h72V48h16V32h-88V0h-48v32h-88v16h16v168h72v40h.248a43.337 43.337 0 0 0-2.816 2.32C247.816 243.016 233.232 232 216 232c-17.248 0-31.848 11.04-37.456 26.376-18.216-17.712-18.584-52.144-18.616-53.232l-3.968-38.808A51.436 51.436 0 0 0 104.656 120H80c-23.744 0-43.512 17.328-47.336 40H24c-13.232 0-24 10.768-24 24v32c0 13.232 10.768 24 24 24h24c13.232 0 24 10.768 24 24v74.192C72 425.208 142.792 496 229.808 496H282.2c87.008 0 157.8-70.792 157.8-157.808a135.784 135.784 0 0 1 47.464-103.2A24.414 24.414 0 0 0 496 216.44c0-13.48-10.96-24.44-24.44-24.44zM344 248c13.232 0 24 10.768 24 24s-10.768 24-24 24-24-10.768-24-24 10.768-24 24-24zM272 16h16v16h-16V16zm-72 184V48h160v152H200zm88 16v32.808a39.963 39.963 0 0 0-16 0V216h16zm-8 48c13.232 0 24 10.768 24 24s-10.768 24-24 24-24-10.768-24-24 10.768-24 24-24zm-64-16c13.232 0 24 10.768 24 24s-10.768 24-24 24-24-10.768-24-24 10.768-24 24-24zM93.272 376H128v32h-21.48c-5.672-9.976-10.112-20.712-13.248-32zm188.92 104H229.8c-45.928 0-86.704-22.04-112.632-56h277.664c-25.936 33.96-66.712 56-112.64 56zM144 408v-32h32v32h-32zm48 0v-32h32v32h-32zm48 0v-32h32v32h-32zm48 0v-32h32v32h-32zm48 0v-32h32v32h-32zm69.48 0H384v-32h34.728c-3.128 11.288-7.576 22.024-13.248 32zm71.568-185.152C443.336 251.752 424 293.792 424 338.192c0 7.432-.744 14.68-1.856 21.808H89.856a142.378 142.378 0 0 1-1.56-16H120v-16H88v-16h32v-16H88v-16h16v-16H88c0-22.056-17.944-40-40-40H24c-4.408 0-8-3.584-8-8v-8h32v-16H16v-8c0-4.416 3.592-8 8-8h24v-8c0-17.648 14.352-32 32-32h24.656a35.481 35.481 0 0 1 35.392 31.96l3.928 38.44c.072 5.36 1.696 51.4 32.512 70.44C178.912 296.592 195.6 312 216 312c10.232 0 19.48-3.976 26.568-10.32C248.184 316.984 262.768 328 280 328s31.816-11.016 37.432-26.32C324.52 308.024 333.768 312 344 312c22.056 0 40-17.944 40-40 0-7.448-2.176-14.344-5.736-20.32C401.496 223.952 435.168 208 471.56 208c4.656 0 8.44 3.784 8.44 8.44a8.42 8.42 0 0 1-2.952 6.408z"/><path d="M208 264h16v16h-16zm64 16h16v16h-16zm64-16h16v16h-16zM280 64c-30.88 0-56 25.128-56 56s25.12 56 56 56c11.072 0 21.784-3.224 30.968-9.336l-8.856-13.328A39.803 39.803 0 0 1 280 160c-22.056 0-40-17.944-40-40s17.944-40 40-40 40 17.944 40 40a39.921 39.921 0 0 1-10.184 26.664l11.92 10.672A55.873 55.873 0 0 0 336 120c0-30.872-25.12-56-56-56z"/></svg>