<svg xmlns="http://www.w3.org/2000/svg" viewBox="0 0 496 496"><path d="M490.484 6.128A19.543 19.543 0 0 0 476.316 0h-1.128c-9.792 0-17.92 7.152-19.32 16.992-2.496 17.432-16.408 46.832-79.576 54.12C349.348 28.464 301.908 0 247.836 0c-54.056 0-101.488 28.448-128.44 71.08-62.912-7.344-76.776-36.688-79.264-54.088C38.724 7.152 30.596 0 20.812 0h-1.128A19.543 19.543 0 0 0 5.516 6.128C1.828 10.032-.116 15.352.196 20.704 4.86 101.096 53.7 129.344 82.412 139.048 71.476 144.144 63.836 155.16 63.836 168c0 10.296 4.968 19.368 12.536 25.224-13.36 17.344-42.888 65.928-12.744 125.96-17.896 48.176-16.44 87.936 4.4 118.184C107.98 495.336 203.78 496 207.836 496h8v-91.96c10.28 2.496 20.96 3.96 32 3.96s21.72-1.464 32-3.96V496h8c4.056 0 99.856-.664 139.808-58.632 20.848-30.24 22.296-70.008 4.4-118.184 30.144-60.032.616-108.616-12.744-125.96 7.568-5.856 12.536-14.928 12.536-25.224 0-12.704-7.496-23.6-18.24-28.768 8.32-2.76 18.304-7.064 28.472-13.832 22.616-15.064 50.296-45.456 53.736-104.696.312-5.352-1.632-10.672-5.32-14.576zm-266.648 12.12c7.808-1.392 15.8-2.248 24-2.248s16.192.856 24 2.248V48h16V22.024c50.6 15.6 88.608 60.008 94.976 113.976h-94.976V64h-16v72h-48V18.248zM339.148 152h41.376l-32 32h-41.376l32-32zm-54.624 32h-41.376l32-32h41.376l-32 32zm-32-32l-32 32h-41.376l32-32h41.376zm-96 32h-41.376l32-32h41.376l-32 32zm51.312-161.976V136H112.86c6.368-53.968 44.376-98.376 94.976-113.976zm-191.664-2.24a3.522 3.522 0 0 1 .984-2.672A3.437 3.437 0 0 1 19.684 16h1.128c1.744 0 3.208 1.368 3.48 3.256 2.464 17.24 16 56.392 86.76 66.888a150.695 150.695 0 0 0-12.992 40.904c-19.616-3.896-76.976-22.504-81.888-107.264zM95.836 152h28.688l-31.696 31.696c-7.384-1.416-12.992-7.904-12.992-15.696 0-8.824 7.176-16 16-16zm104 327.664c-23.04-1.472-89.696-9.336-118.656-51.416-15.928-23.136-18.144-53.696-6.784-90.928 6.368 9.256 14.168 18.72 23.784 28.336l11.312-11.312C31.18 276.024 81.1 211.552 91.716 199.584c1.36.176 2.712.416 4.12.416h16v8.808c-18.232 3.72-32 19.872-32 39.192 0 19.632 14.24 35.92 32.92 39.288 5.776 51.384 40.312 94.072 87.08 111.8v80.576zm-88-254.192v45.056c-9.288-3.312-16-12.112-16-22.528s6.712-19.216 16-22.528zm136 166.528c-66.168 0-120-53.832-120-120v-72h240v72c0 66.168-53.832 120-120 120zm178.728-148.584c9.24 37.568-4.344 74.888-40.384 110.928l11.312 11.312c9.616-9.616 17.416-19.072 23.784-28.336 11.36 37.224 9.144 67.792-6.784 90.928-28.96 42.08-95.616 49.944-118.656 51.416v-80.576c46.768-17.728 81.304-60.416 87.08-111.8 18.68-3.368 32.92-19.656 32.92-39.288 0-19.312-13.768-35.472-32-39.192V200h16c1.4 0 2.736-.24 4.08-.416 4.48 5.096 17 20.856 22.648 43.832zm-42.728 27.112v-45.056c9.288 3.312 16 12.112 16 22.528s-6.712 19.216-16 22.528zm32-102.528c0 8.824-7.176 16-16 16h-28.688l31.696-31.696c7.384 1.416 12.992 7.904 12.992 15.696zm-18.224-40.92a150.49 150.49 0 0 0-12.968-40.88c71.032-10.432 84.6-49.68 87.064-66.952.272-1.88 1.736-3.248 3.48-3.248h1.128c1.296 0 2.144.696 2.528 1.112.4.424 1.056 1.328.984 2.672-4.92 84.84-62.896 103.44-82.216 107.296z"/><path d="M239.836 32h16v16h-16zm0 32h16v16h-16zm0 32h16v16h-16zm72 136c-13.232 0-24 10.768-24 24s10.768 24 24 24 24-10.768 24-24-10.768-24-24-24zm0 32c-4.408 0-8-3.584-8-8s3.592-8 8-8c4.408 0 8 3.584 8 8s-3.592 8-8 8zm-104-8c0-13.232-10.768-24-24-24s-24 10.768-24 24 10.768 24 24 24 24-10.768 24-24zm-32 0c0-4.416 3.592-8 8-8s8 3.584 8 8-3.592 8-8 8-8-3.584-8-8zm72 96c-54.976 0-55.984-46.072-56-48.032l-8 .032h-8c0 .64.824 64 72 64s72-63.36 72-64h-16c0 1.96-.64 48-56 48z"/></svg>