<svg xmlns="http://www.w3.org/2000/svg" viewBox="0 0 496 496"><path d="M200 288c0-17.648-14.352-32-32-32s-32 14.352-32 32 14.352 32 32 32 32-14.352 32-32zm-32 16c-8.824 0-16-7.176-16-16s7.176-16 16-16 16 7.176 16 16-7.176 16-16 16zm160-48c-17.648 0-32 14.352-32 32s14.352 32 32 32 32-14.352 32-32-14.352-32-32-32zm0 48c-8.824 0-16-7.176-16-16s7.176-16 16-16 16 7.176 16 16-7.176 16-16 16zm-32 80h-96c-13.232 0-24 10.768-24 24v32c0 13.232 10.768 24 24 24h96c13.232 0 24-10.768 24-24v-32c0-13.232-10.768-24-24-24zm8 56c0 4.416-3.592 8-8 8h-8v-16h-16v16h-16v-16h-16v16h-16v-16h-16v16h-8c-4.408 0-8-3.584-8-8v-32c0-4.416 3.592-8 8-8h8v16h16v-16h16v16h16v-16h16v16h16v-16h8c4.408 0 8 3.584 8 8v32zm-67.056-72h22.112c11.552 0 20.944-9.4 20.944-20.944 0-3.232-.768-6.48-2.208-9.368l-11.056-22.112C263.168 308.44 255.984 304 248 304s-15.168 4.44-18.736 11.576l-11.056 22.112a21.134 21.134 0 0 0-2.208 9.368C216 358.6 225.392 368 236.944 368zm-4.424-23.16l11.056-22.112c.848-1.68 2.536-2.728 4.424-2.728s3.576 1.048 4.424 2.736l11.056 22.112a4.947 4.947 0 0 1-4.424 7.152h-22.112a4.947 4.947 0 0 1-4.944-4.944c0-.768.176-1.536.52-2.216z"/><path d="M467.584 295.304A63.247 63.247 0 0 0 472 272c0-26.8-16.576-49.768-40-59.288V173.96c25.064-8.264 64-32.568 64-77.96 0-51.552-43.08-83.912-56.28-92.608A20.484 20.484 0 0 0 428.432 0C417.168 0 408 9.168 408 20.432v1.672c0 2.04.288 3.968.872 5.896C410.544 33.488 416 52.856 416 72c0 11.04-15.096 18.456-25.888 22.032C360.288 46.768 307.664 16 248 16S135.712 46.768 105.888 94.032C95.096 90.456 80 83.04 80 72c0-19.144 5.456-38.512 7.128-44.008A19.95 19.95 0 0 0 88 22.104v-1.672C88 9.168 78.832 0 67.568 0c-4 0-7.904 1.168-11.288 3.4C43.08 12.088 0 44.448 0 96c0 45.4 38.936 69.696 64 77.96v38.752C40.576 222.232 24 245.2 24 272a63.247 63.247 0 0 0 4.416 23.304C10.288 311.968 0 335.208 0 360c0 44.44 33.472 81.816 77.088 87.232C86.12 467.032 105.968 480 128 480c8.528 0 16.824-1.96 24.392-5.632C162.72 487.528 178.72 496 196.448 496h103.104c17.728 0 33.728-8.472 44.056-21.632C351.176 478.04 359.472 480 368 480c22.032 0 41.88-12.968 50.912-32.768C462.528 441.816 496 404.44 496 360c0-24.792-10.288-48.032-28.416-64.696zM432 72c0-21.352-5.992-42.648-7.824-48.664a3.89 3.89 0 0 1-.176-1.232v-1.672c0-3.32 4.04-5.552 6.92-3.672C442.432 24.336 480 52.456 480 96c0 46.352-49.72 61.952-57.064 64h-8.848c-2.632-18.464-8.048-35.912-16.032-51.816C411.832 103.16 432 92.344 432 72zM80 208v-32h336v32H80zm184 16v48h-32v-48h32zm16-80h16v-16h-16v-16h16V96h-16V80h16V64h-16V35.464C340.688 48.352 388.032 97.16 397.936 160H280v-16zM232 32.888c5.264-.552 10.592-.888 16-.888s10.736.336 16 .888V160h-32V32.888zm-16 2.576V64h-16v16h16v16h-16v16h16v16h-16v16h16v16H98.064C107.968 97.16 155.312 48.352 216 35.464zM16 96c0-43.544 37.568-71.664 49.072-79.232C67.96 14.856 72 17.112 72 20.432v1.672c0 .464-.048.832-.176 1.224C69.992 29.352 64 50.648 64 72c0 20.344 20.168 31.16 33.936 36.184-7.984 15.896-13.4 33.344-16.032 51.816h-8.848C65.72 157.952 16 142.352 16 96zm112 368c-16.992 0-32.168-10.808-37.752-26.888l-.136-.384C88.744 432.648 88 428.376 88 424a39.823 39.823 0 0 1 6.664-22.112l-13.328-8.856C75.224 402.224 72 412.928 72 424c0 2.072.296 4.104.52 6.144C40.104 423.008 16 394.088 16 360c0-18.968 7.4-36.816 20.504-50.208 4.992 6.8 11.184 12.648 18.512 17.064l8.248-13.704c-7.816-4.712-14.024-11.504-18.112-19.624C41.744 286.76 40 279.52 40 272c0-23.736 17.336-43.448 40-47.28v93.072a71.904 71.904 0 0 0 43.64 66.176l8.296 3.552a7.99 7.99 0 0 1 4.832 6.752l3.848 50.016a55.478 55.478 0 0 0 3.76 16.16C139.256 462.76 133.704 464 128 464zm215.28-70.952l-3.848 50.016C337.84 463.776 320.32 480 299.552 480H196.448c-20.768 0-38.288-16.224-39.88-36.936l-3.848-50.016a23.938 23.938 0 0 0-14.48-20.216l-8.304-3.552A55.972 55.972 0 0 1 96 317.8V224h120v64h64v-64h120v93.8a55.963 55.963 0 0 1-33.936 51.48l-8.32 3.552a23.95 23.95 0 0 0-14.464 20.216zm80.2 37.096c.224-2.04.52-4.072.52-6.144 0-11.072-3.224-21.776-9.336-30.968l-13.328 8.856A39.823 39.823 0 0 1 408 424c0 4.376-.744 8.648-2.12 12.728l-.136.384C400.168 453.192 384.992 464 368 464c-5.704 0-11.256-1.24-16.376-3.544 2.008-5.072 3.328-10.488 3.76-16.16l3.848-50.016a8.007 8.007 0 0 1 4.824-6.752l8.312-3.552A71.918 71.918 0 0 0 416 317.8v-93.08c22.664 3.824 40 23.536 40 47.28 0 7.52-1.744 14.76-5.16 21.52-4.088 8.12-10.296 14.92-18.112 19.624l8.248 13.704c7.328-4.408 13.52-10.264 18.512-17.064C472.6 323.184 480 341.032 480 360c0 34.088-24.104 63.008-56.52 70.144z"/></svg>