<svg xmlns="http://www.w3.org/2000/svg" viewBox="0 0 496 496"><path d="M248 95.989c13.232 0 24-10.768 24-24s-10.768-24-24-24-24 10.768-24 24 10.768 24 24 24zm0-32c4.416 0 8 3.584 8 8s-3.584 8-8 8-8-3.584-8-8 3.584-8 8-8zm-8 143.992h16v16h-16z"/><path d="M493.192 273.021l-50.64-86.816c-3.68-6.304-10.488-10.216-17.784-10.216h-1.528c-7.296 0-14.112 3.912-17.8 10.216l-50.624 86.808A20.583 20.583 0 0 0 352 283.397c0 11.352 9.24 20.592 20.592 20.592h9.496c-9.28 35.912-36.264 64.272-71.728 75.208l-29.216-219.208H296c8.824 0 16-7.176 16-16v-16c0-8.824-7.176-16-16-16h-5.288l18.512-43.184c2.592-6.048 1.264-12.96-3.392-17.608L259.32 4.685c-6.232-6.232-16.392-6.232-22.624 0l-46.528 46.504c-4.656 4.648-5.984 11.56-3.392 17.608l18.512 43.192H200c-8.824 0-16 7.176-16 16v16c0 8.824 7.176 16 16 16h14.856l-29.224 219.208c-35.464-10.936-62.448-39.304-71.728-75.208h9.496c11.36 0 20.6-9.24 20.6-20.592 0-3.648-.976-7.24-2.808-10.376l-50.64-86.816c-3.68-6.304-10.488-10.216-17.784-10.216h-1.536c-7.296 0-14.112 3.912-17.8 10.216L2.816 273.013A20.583 20.583 0 0 0 0 283.397c0 11.352 9.24 20.592 20.592 20.592h12.344l.304 2.416C46.752 414.485 139.08 495.989 248 495.989s201.248-81.504 214.76-189.584l.304-2.416h12.344c11.352 0 20.592-9.24 20.592-20.592 0-3.648-.976-7.24-2.808-10.376zM201.488 62.501L248 15.989l46.512 46.512-21.2 49.488h-50.616l-21.208-49.488zM200 143.989v-16h96l.016 16H200zm-179.408 144A4.602 4.602 0 0 1 16 283.397c0-.816.216-1.608.632-2.312l50.624-86.816a4.628 4.628 0 0 1 3.976-2.28h1.528c1.632 0 3.152.872 3.968 2.28l50.64 86.824c.416.696.632 1.488.632 2.304a4.602 4.602 0 0 1-4.592 4.592H20.592zm28.528 16.432l-.056-.432H97.48c9.936 44.496 43.328 79.536 87.352 91.56l17 33.064c-35.624-7.64-67.784-28.04-89.84-57.432l-12.8 9.608c26.904 35.856 67.456 59.456 111.728 65.496l16.768 32.608c-91.816-9.336-166.904-81.176-178.568-174.472zM240 239.989v228.024l-39.744-77.456 30.752-230.568H240v32h16v-32h8.992l30.752 230.568L256 467.829v-227.84h-16zm206.88 64.432c-11.664 93.296-86.752 165.136-178.576 174.472l16.768-32.608c44.264-6.04 84.824-29.64 111.728-65.496l-12.8-9.608c-22.056 29.392-54.216 49.784-89.84 57.432l17-33.064c44.032-12.024 77.424-47.056 87.352-91.56h48.416l-.048.432zm28.528-16.432H372.592a4.602 4.602 0 0 1-4.592-4.592c0-.816.216-1.608.632-2.312l50.624-86.816a4.628 4.628 0 0 1 3.976-2.28h1.528c1.632 0 3.152.872 3.968 2.28l50.64 86.824c.416.696.632 1.488.632 2.304a4.602 4.602 0 0 1-4.592 4.592z"/><path d="M406.88 365.717a168.55 168.55 0 0 0 8.416-16.096l-14.56-6.64a153.038 153.038 0 0 1-7.608 14.568l13.752 8.168zM95.272 342.989l-14.56 6.64a167.682 167.682 0 0 0 8.416 16.096l13.752-8.168a151.3 151.3 0 0 1-7.608-14.568z"/></svg>