<svg xmlns="http://www.w3.org/2000/svg" viewBox="0 0 495.999 495.999"><path d="M495.967 93.738c-1.16-41.696-36.016-76.552-77.712-77.712-22.024-.488-42.424 7.44-58.04 22.624-11.712 11.392-19.48 25.704-22.632 41.344H158.415c-3.152-15.64-10.92-29.952-22.632-41.344-15.608-15.184-36.224-23.008-58.04-22.624C36.047 17.186 1.191 52.042.031 93.738c-.6 21.816 7.432 42.424 22.624 58.04 12.864 13.232 29.472 21.36 47.488 23.552l-21.152 41.856c-6.152 12.176-10.296 22.472-13.064 32.392-9.32 33.536-8.464 68.736 1.376 101.296v1.12c.104 0 .208-.016.312-.016 5.832 18.856 14.688 36.8 26.384 52.992v1.008c.256 0 .496-.024.752-.024 4.296 5.856 8.928 11.504 13.96 16.856 22.896 24.312 52.08 41.648 83.824 50.488l.024.208c.152-.016.296-.056.448-.072 15.56 4.28 31.72 6.56 48.08 6.56h73.832c16.376 0 32.56-2.288 48.144-6.584.192.024.368.064.552.096l.032-.264c31.68-8.856 60.8-26.168 83.648-50.432 5.032-5.352 9.664-11 13.96-16.864.312 0 .608.032.92.032v-1.232c11.624-16.128 20.416-34.008 26.216-52.776.16 0 .312.024.48.024v-1.728c9.672-32.392 10.464-67.36 1.2-100.688-2.768-9.92-6.912-20.208-13.064-32.392l-21.152-41.856c18.016-2.2 34.616-10.328 47.488-23.552 15.192-15.616 23.224-36.232 22.624-58.04zm-340.928 34.68c3.064-8.656 4.96-23.576 4.96-32.424h176c0 8.848 1.896 23.768 4.84 32.072l9.664 31.928h-30.504v-9.472c9.288-3.312 16-12.112 16-22.528 0-13.232-10.768-24-24-24s-24 10.768-24 24c0 10.416 6.712 19.216 16 22.528v9.472h-48v-9.472c9.288-3.312 16-12.112 16-22.528 0-13.232-10.768-24-24-24s-24 10.768-24 24c0 10.416 6.712 19.216 16 22.528v9.472h-48v-9.472c9.288-3.312 16-12.112 16-22.528 0-13.232-10.768-24-24-24s-24 10.768-24 24c0 10.416 6.712 19.216 16 22.528v9.472h-30.512l9.552-31.576zm148.96 255.576v20.008c-9.384 2.528-19.088 3.992-28.968 3.992h-19.032v-232h48v192h16v-192h35.352l27.4 90.536c10.248 37.16.888 76.36-25.04 104.888-10.624 11.688-23.52 20.856-37.712 27.096v-14.52h-16zm-56-248c-4.416 0-8-3.584-8-8s3.584-8 8-8 8 3.584 8 8-3.584 8-8 8zm56-8c0-4.416 3.584-8 8-8s8 3.584 8 8-3.584 8-8 8-8-3.584-8-8zm-128 80v190.52c-14.192-6.24-27.088-15.408-37.712-27.096-25.928-28.52-35.288-67.728-25.096-104.688l27.456-90.736h35.352v16h16v-16h48v232h-19.032c-9.88 0-19.584-1.464-28.968-3.992V207.994h-16zm0-80c0-4.416 3.584-8 8-8s8 3.584 8 8-3.584 8-8 8-8-3.584-8-8zM34.127 140.618c-12.16-12.496-18.576-28.984-18.096-46.448.92-33.344 28.808-61.224 62.152-62.152 17.632-.712 33.952 5.936 46.448 18.096 12.488 12.152 19.368 28.448 19.368 45.88 0 7.408-1.656 20.352-4.16 27.432l-12.256 40.512c-10.368 13.352-26.664 27.912-50.224 32.576l18.712-37.04c7.936-15.712 13.056-31.896 15.224-48.136.928-7.016 1.168-12.384.688-15.976-.176-9.248-4.32-17.92-11.424-23.888-7.256-6.104-16.824-8.632-26.304-6.984-12.912 2.264-23.512 12.88-25.776 25.816-.96 5.512-.496 11.168 1.32 16.32 4.512 12.784 16.648 21.368 30.2 21.368v-16a16.034 16.034 0 0 1-15.104-10.688c-.92-2.624-1.144-5.4-.64-8.248 1.104-6.312 6.472-11.696 12.776-12.8 4.864-.864 9.56.376 13.248 3.48a15.963 15.963 0 0 1 5.72 12.256l.112 1.336c.24 1.392.2 5.344-.664 11.896-1.928 14.456-6.52 28.928-13.648 43.032l-3.856 7.632c-16.648-.52-32.152-7.272-43.816-19.272zm17.224 113.24c2.472-8.88 6.256-18.24 11.92-29.456l5.344-10.584c20.296-1.392 36.568-8.744 49.376-18.184l-11.688 38.632c-11.192 14.928-30.032 32.216-58.48 35.736.928-5.408 2.04-10.8 3.528-16.144zm-5.544 32.464c21.136-1.72 37.928-9.696 50.968-19.688-2.768 11.576-3.936 23.288-3.48 34.848-8.888 13.6-23.088 28.72-43.72 33.176-3.576-15.784-4.904-32.072-3.768-48.336zm26.936 103.024a166.422 166.422 0 0 1-18.904-39.216c18.152-4.088 32.072-14.544 42.392-26.152 3.4 15.32 9.656 29.976 18.576 43.256-9.52 10.152-23.248 19.76-42.064 22.112zm17.616 22.488c-2.448-2.6-4.8-5.28-7.064-8.024 17.84-4.112 31.416-13.568 41.392-23.688.592.68 1.144 1.384 1.752 2.056 9.12 10.032 19.72 18.44 31.304 25.032-11.24 11.008-27.296 20.624-49.016 21.12-6.456-5.064-12.688-10.456-18.368-16.496zm38.168 29.984c19.48-4.872 34.056-15.912 44.472-27.352a127.556 127.556 0 0 0 40.424 9.128c-9.936 14.656-25.632 29.184-49.592 33.352-12.312-3.68-24.16-8.736-35.304-15.128zm156.384 22.176h-73.832c-5.592 0-11.16-.304-16.688-.864 17.96-10.064 29.928-25.336 37.68-39.136h32.016c7.744 13.8 19.712 29.064 37.664 39.128-5.568.576-11.192.872-16.84.872zm47.328-7.072c-23.912-4.184-39.584-18.704-49.504-33.336 13.968-.856 27.592-3.96 40.392-9.168 10.4 11.432 24.944 22.472 44.392 27.368a166.923 166.923 0 0 1-35.28 15.136zm73.392-45.088c-5.672 6.032-11.896 11.416-18.352 16.48-21.672-.544-37.704-10.16-48.92-21.168 11.536-6.584 22.096-14.968 31.192-24.976.64-.704 1.216-1.44 1.832-2.152 9.96 10.128 23.52 19.608 41.344 23.744a153.712 153.712 0 0 1-7.096 8.072zm17.64-22.496c-18.808-2.392-32.504-12.048-42-22.208 8.904-13.296 15.144-27.968 18.528-43.312 10.296 11.64 24.224 22.152 42.384 26.288a167.022 167.022 0 0 1-18.912 39.232zm23.168-54.72c-20.696-4.528-34.888-19.784-43.744-33.424.424-11.512-.752-23.176-3.512-34.728 13.04 10.04 29.848 18.08 51.016 19.832 1.128 16.256-.2 32.544-3.76 48.32zM427.375 213.81l5.352 10.584c5.664 11.208 9.456 20.568 11.92 29.456 1.48 5.344 2.6 10.728 3.52 16.136-28.568-3.592-47.44-21.096-58.576-36.072l-11.64-38.456c12.808 9.496 29.096 16.92 49.424 18.352zm-9.32-53.92l-3.856-7.632c-7.128-14.104-11.72-28.576-13.648-43.024-.864-6.56-.904-10.512-.664-11.904l.112-1.336c0-4.744 2.088-9.208 5.72-12.256 3.688-3.104 8.416-4.336 13.248-3.48 6.304 1.104 11.672 6.488 12.776 12.8.496 2.848.28 5.624-.648 8.256a16.02 16.02 0 0 1-15.096 10.68v16c13.552 0 25.688-8.584 30.176-21.36 1.832-5.168 2.288-10.816 1.328-16.328-2.256-12.928-12.856-23.544-25.776-25.816-9.488-1.648-19.048.888-26.304 6.984a31.955 31.955 0 0 0-11.424 23.888c-.48 3.592-.24 8.96.688 15.984 2.168 16.224 7.288 32.416 15.224 48.128l18.696 37c-23.672-4.752-40-19.512-50.328-32.936l-12.248-40.472c-2.376-6.72-4.032-19.664-4.032-27.072 0-17.432 6.88-33.728 19.376-45.872 12.496-12.16 29.08-18.816 46.448-18.096 33.344.92 61.224 28.808 62.152 62.152.488 17.464-5.936 33.952-18.096 46.448-11.672 11.992-27.176 18.744-43.824 19.264z"/></svg>