<svg xmlns="http://www.w3.org/2000/svg" viewBox="0 0 496 496"><path d="M491.428 392c0-13.128-6.448-24.704-16.248-32 9.8-7.296 16.248-18.872 16.248-32 0-19.312-13.768-35.472-32-39.192V216c0-119.104-96.896-216-216-216-112.6 0-207.472 87.584-216 200v89.352c0 29.072-7.904 57.608-22.856 82.528l13.72 8.232a176.486 176.486 0 0 0 25.136-90.76L43.404 208h16.024v16h16v-16h16.04l-.04 81.352c0 17.752-2.92 35.256-8.688 52.056l15.144 5.184a175.956 175.956 0 0 0 9.544-57.24v-88.904c7.816-68.696 66.2-120.448 136-120.448 74.992 0 136 61.008 136 136v72h-120c-22.056 0-40 17.944-40 40 0 9.04 3.128 17.296 8.208 24h-48.208c-22.056 0-40 17.944-40 40 0 13.128 6.448 24.704 16.248 32-9.8 7.296-16.248 18.872-16.248 32 0 22.056 17.944 40 40 40h272c22.056 0 40-17.944 40-40 0-13.128-6.448-24.704-16.248-32 9.8-7.296 16.248-18.872 16.248-32zm-29.232-85.336c7.808 3.968 13.232 11.992 13.232 21.336 0 13.232-10.768 24-24 24H433.86l28.336-45.336zM343.86 368h37.136l-30 48H313.86l30-48zm-48.864 48H257.86l30-48h37.136l-30 48zm104.864-48h37.136l-30 48H369.86l30-48zm15.136-16H377.86l30-48h37.136l-30 48zm11.744-64c6.4-4.696 12.04-9.328 16.688-13.392V288H426.74zm16.688-72v36.728c-6.024 6.008-24.144 23.136-46.24 35.272h-1.76v-43.736c22.504-15.112 37.272-38.936 45.888-57.112 1.368 9.424 2.112 19.048 2.112 28.848zM400.396 92.28c15.584 19.728 27.528 42.44 34.824 67.136-2.432 7.624-14.68 42.568-39.792 64.744V216c0-16.816-2.856-32.96-7.928-48.096 13.568-24.992 14.568-54.64 12.896-75.624zM92.604 192H44.268a195.129 195.129 0 0 1 3.992-22.2c3.928-3.632 32.88-29.552 66.92-36.744-11.384 17.4-19.152 37.376-22.576 58.944zM243.428 64c-16.84 0-33.016 2.84-48.232 7.848-8.896-4.816-19.032-8.4-30.216-10.616l-3.112 15.688a102.77 102.77 0 0 1 12.576 3.36c-17.368 8.704-32.784 20.664-45.584 35.048-28.584 1.024-54.816 15.256-71.952 27.2 9.624-24.104 23.84-45.888 41.52-64.328 5.584-1.208 25.76-5.072 48.384-3.328l1.232-15.952c-10.344-.8-20.104-.544-28.488.12 19.832-15.584 42.592-27.552 67.264-34.856 7.616 2.44 42.936 14.816 65.12 40.24-2.832-.152-5.64-.424-8.512-.424zm30.296 3.048c-14.928-24.264-40.184-39.944-59.176-48.952A199.137 199.137 0 0 1 243.428 16c16.152 0 31.848 1.976 46.904 5.608 5.416 5.984 29.712 34.352 36.232 67.296-15.832-10.392-33.664-17.96-52.84-21.856zm105.232 80.512c-8.696-17.16-20.536-32.408-34.792-45.072-.696-28.568-14.76-54.872-26.744-72.24 23.904 9.56 45.528 23.584 63.864 41.064 1.784 8.32 8.48 44.664-2.328 76.248zM388.996 304l-30 48H321.86l30-48h37.136zm-56 0l-30 48H265.86l30-48h37.136zm-73.568 0h17.568l-28.336 45.336c-7.808-3.968-13.232-11.992-13.232-21.336 0-13.232 10.768-24 24-24zm-104 88c0-13.232 10.768-24 24-24h33.568l-8.352 13.36 13.56 8.488L231.86 368h37.136l-30 48H201.86l7.352-11.76-13.56-8.488L182.996 416h-3.568c-13.232 0-24-10.768-24-24zm24 88c-13.232 0-24-10.768-24-24s10.768-24 24-24h33.568l-30 48h-3.568zm22.432 0l30-48h37.136l-30 48H201.86zm56 0l30-48h37.136l-30 48H257.86zm112 0l7.352-11.76-13.568-8.48L350.996 480H313.86l30-48h37.136l-7.352 11.76 13.56 8.488L399.86 432h37.136l-30 48H369.86zm105.568-24c0 13.232-10.768 24-24 24H425.86l29.736-47.576c11.248 1.984 19.832 11.768 19.832 23.576zm-24-40H425.86l29.736-47.576c11.248 1.984 19.832 11.768 19.832 23.576 0 13.232-10.768 24-24 24z"/><path d="M75.428 240h-16v49.352c0 29.072-7.904 57.608-22.856 82.528l13.72 8.232a176.486 176.486 0 0 0 25.136-90.76V240zm-6.856 131.88l13.72 8.232a177.444 177.444 0 0 0 8.864-16.768l-14.528-6.704c-2.4 5.2-5.112 10.328-8.056 15.24z"/></svg>