<svg xmlns="http://www.w3.org/2000/svg" viewBox="0 0 496 496"><path d="M464 128H288v-16h3.472c11.32 0 20.528-9.208 20.528-20.528 0-3.72-1.008-7.376-2.928-10.56l-42.096-70.168C263 4.12 255.728 0 248 0s-15 4.12-18.976 10.744l-42.096 70.168A20.454 20.454 0 0 0 184 91.472c0 11.32 9.208 20.528 20.528 20.528H208v16H32c-17.648 0-32 14.352-32 32v80c0 17.648 14.352 32 32 32 5.856 0 11.272-1.696 16-4.448v134.136C48 413.992 58.008 424 70.312 424c9.176 0 17.304-5.504 20.712-14.024l25.424-63.568c1.168-2.92 5.928-2.912 7.088-.008l25.92 64.808c3.112 7.776 10.528 12.8 18.896 12.8 7.76 0 14.736-4.312 18.208-11.248L208 369.888V496h16V344h16v56h32v96h16v-96h40v-44c0-6.616 5.384-12 12-12s12 5.384 12 12v60h96V267.552c4.728 2.752 10.144 4.448 16 4.448 17.648 0 32-14.352 32-32v-80c0-17.648-14.352-32-32-32zM48 240c0 8.824-7.176 16-16 16s-16-7.176-16-16v-80c0-8.824 7.176-16 16-16s16 7.176 16 16v80zm279.592-96c-2.608 26.16-17.904 48.584-39.592 61.176V144h39.592zM204.528 96A4.534 4.534 0 0 1 200 91.472a4.5 4.5 0 0 1 .648-2.328l42.096-70.168C243.84 17.144 245.856 16 248 16s4.16 1.144 5.256 2.976l42.096 70.168c.424.696.648 1.504.648 2.328A4.534 4.534 0 0 1 291.472 96h-86.944zM208 144v61.176c-21.688-12.592-36.984-35.016-39.592-61.176H208zm-40.624 43.936a97.426 97.426 0 0 0 11.192 14.184L84.688 296H64v-4.688l103.376-103.376zM140.688 144l-14.408 14.408 11.312 11.312 16.056-16.064c1.264 6.776 3.304 13.264 5.912 19.464L64 268.688v-25.376L128.32 179l-11.312-11.312-53.008 53v-25.376L115.312 144h25.376zm-48 0L64 172.688V160c0-5.856-1.696-11.272-4.448-16h33.136zM240 328h-28.944l-38.8 77.592c-1.536 3.096-6.656 2.864-7.936-.328l-25.92-64.808C135.368 332.888 128.144 328 120 328s-15.368 4.888-18.4 12.464L76.168 404.04a6.272 6.272 0 0 1-5.856 3.96A6.32 6.32 0 0 1 64 401.688V312h176v16zm0-32h-36.688L240 259.312V296zm.008-59.32L180.688 296h-25.376l10.344-10.344-11.312-11.312L132.688 296h-25.376l83.216-83.216c4.912 3.688 10.2 6.888 15.784 9.592l-41.68 41.672 11.312 11.312 46.816-46.808a95.111 95.111 0 0 0 17.248 3.056v5.072zM224 212.312V112h48v100.312c-7.584 2.384-15.64 3.688-24 3.688s-16.416-1.304-24-3.688zM432 400h-64v-44c0-15.44-12.56-28-28-28s-28 12.56-28 28v28h-56v-72h176v88zm0-240v136H256v-64.384c46.56-3.864 83.808-41.056 87.664-87.616h92.784c-2.752 4.728-4.448 10.144-4.448 16zm48 80c0 8.824-7.176 16-16 16s-16-7.176-16-16v-80c0-8.824 7.176-16 16-16s16 7.176 16 16v80z"/><path d="M304 264h112v16H304zm-32 0h16v16h-16z"/></svg>