<svg xmlns="http://www.w3.org/2000/svg" viewBox="0 0 496 496"><path d="M439.376 320.424c-1.4-13.144-5.808-42.512-18.744-74.432 26.512-5.632 46.36-18.616 59.088-38.688 30.808-48.592 9.456-124.928 2.168-147.168C479.52 52.872 472.776 48 465.112 48c-9.16 0-16.72 6.832-17.592 15.912-2.712 28.4-17.232 93.672-91.76 95.88C329.104 140.76 294.088 128 248 128s-81.104 12.76-107.76 31.792c-74.528-2.208-89.048-67.48-91.76-95.888C47.608 54.832 40.048 48 30.888 48c-7.664 0-14.408 4.872-16.784 12.128-7.28 22.24-28.64 98.576 2.168 147.168C29 227.376 48.848 240.352 75.36 245.984c-12.936 31.92-17.352 61.288-18.744 74.432C24.792 324.096 0 351.2 0 384c0 35.288 28.712 64 64 64h368c35.288 0 64-28.712 64-64 0-32.8-24.792-59.904-56.624-63.576zM463.448 65.44c.144-1.52 2.76-1.792 3.24-.328 6.728 20.552 26.576 90.936-.48 133.616-10.816 17.064-28.44 27.824-52.296 32.192-9.6-19.744-22.712-39.608-40.584-56.576 74.656-11.816 87.84-85.096 90.12-108.904zM304 224h16v-16h-16v-16h16v-16h-16v-24.096c41.352 12.624 73.088 40.416 94.624 83.232.816 1.624 1.544 3.248 2.312 4.864H304v-16zm0 64h80v-16h-80v-16h103.744a248.67 248.67 0 0 1 5.488 16H400v16h17.592c2.984 12.496 4.624 23.072 5.48 30.272C413.44 313.28 391.328 304 360 304c-20.104 0-38.832 3.376-56 9.992V288zm-96-140.144c12.56-2.52 25.872-3.856 40-3.856s27.44 1.336 40 3.856V272h-80V147.856zM288 288v33.392c-.8.432-1.624.816-2.416 1.256-9.024-5.56-19.192-8.808-29.584-9.944V288h32zm-80 0h32v24.704c-10.392 1.136-20.56 4.384-29.584 9.944-.792-.448-1.616-.824-2.416-1.256V288zm-16-136.096V176h-16v16h16v16h-16v16h16v16H95.064c.768-1.624 1.496-3.248 2.312-4.864 21.536-42.816 53.28-70.608 94.624-83.232zM192 256v16H82.768a248.67 248.67 0 0 1 5.488-16H192zM29.792 198.728c-27.056-42.68-7.208-113.064-.48-133.616.48-1.464 3.096-1.184 3.24.32 2.28 23.824 15.464 97.104 90.12 108.904-17.872 16.968-30.984 36.84-40.584 56.576-23.856-4.36-41.48-15.12-52.296-32.184zM78.416 288H192v26c-17.168-6.616-35.896-10-56-10-31.328 0-53.44 9.28-63.064 14.272.856-7.2 2.488-17.776 5.48-30.272zM432 432H64c-26.472 0-48-21.528-48-48s21.528-48 48-48 48 21.528 48 48h16c0-24.824-14.24-46.344-34.952-56.952C103.24 323.48 117.816 320 136 320c26.424 0 50.128 6.36 70.472 18.896l4.544 2.8 4.336-3.12c19.216-13.84 46.096-13.84 65.312 0l4.336 3.12 4.544-2.8C309.872 326.36 333.584 320 360 320c18.056 0 32.656 3.496 42.896 7.072C382.208 337.688 368 359.2 368 384h16c0-26.472 21.528-48 48-48s48 21.528 48 48-21.528 48-48 48z"/><path d="M248 152c-13.232 0-24 10.768-24 24s10.768 24 24 24 24-10.768 24-24-10.768-24-24-24zm0 32c-4.408 0-8-3.584-8-8s3.592-8 8-8 8 3.584 8 8-3.592 8-8 8zm0 32c-13.232 0-24 10.768-24 24s10.768 24 24 24 24-10.768 24-24-10.768-24-24-24zm0 32c-4.408 0-8-3.584-8-8s3.592-8 8-8 8 3.584 8 8-3.592 8-8 8zM54.256 202.384c4.248 3.392 9.216 6.232 14.776 8.448l5.904-14.872c-4.088-1.624-7.688-3.664-10.696-6.072l-9.984 12.496zm-6.28-51.008l-15.952 1.248c1.144 14.528 5.152 27.856 11.28 37.528l13.512-8.56c-4.76-7.512-7.904-18.24-8.84-30.216z"/></svg>