<svg xmlns="http://www.w3.org/2000/svg" viewBox="0 0 496 496"><path d="M464 432h-22.104l20.872-97.4A55.97 55.97 0 0 0 464 322.96c0-13.232-4.696-25.824-13.192-35.856C463.28 270.096 496 218.408 496 144c0-78.544-48.496-126.448-63.36-139.256C429.096 1.688 424.512 0 419.76 0a19.845 19.845 0 0 0-16.632 8.968 19.63 19.63 0 0 0-1.632 18.64c13.184 30.528 24.704 91.68-42.704 162.152L320 148.816V0H176v148.816l-38.776 40.952C69.8 119.288 81.32 58.136 94.504 27.6c2.64-6.104 2.024-13.072-1.632-18.64A19.846 19.846 0 0 0 76.24 0c-4.752 0-9.336 1.688-12.88 4.744C48.496 17.552 0 65.456 0 144c0 74.408 32.72 126.096 45.192 143.104C36.696 297.136 32 309.728 32 322.96c0 3.896.416 7.808 1.232 11.648L54.104 432H32c-17.648 0-32 14.352-32 32s14.352 32 32 32h432c17.648 0 32-14.352 32-32s-14.352-32-32-32zm-16.88-100.744L425.528 432H369.76l20.8-104h56.904c-.136 1.088-.12 2.184-.344 3.256zM367.952 203.32a258.435 258.435 0 0 0 12.104-13.336c5.648 15.312 18.104 41.456 41.072 56.688l8.84-13.336c-25.992-17.232-36.608-53.336-38.024-58.56 26-36.032 50.976-91.608 24.232-153.52-.68-1.592-.096-2.872.32-3.504A3.854 3.854 0 0 1 419.76 16c.928 0 1.792.304 2.44.864C435.752 28.552 480 72.256 480 144c0 40.688-10.768 74.384-21.888 98.424-5.672-.232-11.152-1.24-16.304-3.104l-5.44 15.048c4.496 1.624 9.176 2.712 13.968 3.384-4.848 8.728-9.248 15.392-12.28 19.6l-1.008.16c-.832.152-20.52 2.912-44.992-18.936-24.872-22.2-24.176-53.32-24.104-55.256zM320 172.08l31.952 33.728c.208 10.504 3.184 41.256 29.456 64.704 23.536 21.016 44.568 23.36 53.76 23.128l1.984 2.104c4.4 4.648 7.392 10.248 9.128 16.256h-58.72L320 236.928V172.08zm0 88.768L366.04 312H320v-51.152zM374.24 328l-20.8 104H256v-33.504c4.36-1.52 8.288-4.128 11.232-7.904L315.912 328h58.328zM256 378.968V261.032L301.864 320 256 378.968zM304 16v46.624L271.368 16H304zm-48 5.952l48 68.576V193.2l-48-60V21.952zm-.008 136.856l48 60v77.88l-36.768-47.28c-2.936-3.776-6.864-6.384-11.232-7.904v-82.696zM192 90.528l20.416-29.168-13.112-9.176L192 62.616V16h32.632l-17.976 25.68 13.112 9.168L240 21.952V133.2l-48 60V90.528zm0 128.272l48-60v82.704c-4.36 1.52-8.288 4.136-11.224 7.904L192 296.68V218.8zm48 42.24v117.928L194.136 320 240 261.04zM180.088 328l48.68 62.592c2.936 3.768 6.864 6.384 11.224 7.904L240 432h-97.44l-20.8-104h58.328zm-50.128-16L176 260.848V312h-46.04zm14.088-106.192L176 172.08v64.856L108.44 312H49.72c1.736-6.008 4.728-11.616 9.128-16.264l1.984-2.096c9.168.24 30.216-2.112 53.76-23.128 26.264-23.448 29.248-54.2 29.456-64.704zm-106.24 36.424C26.712 218.2 16 184.576 16 144 16 72.256 60.248 28.552 73.808 16.864c.648-.56 1.512-.864 2.432-.864a3.854 3.854 0 0 1 3.264 1.752c.416.632 1 1.912.32 3.504-26.736 61.904-1.76 117.48 24.232 153.512-1.704 6.24-19.192 65.232-66.248 67.464zm78.224-52.144a253.368 253.368 0 0 0 12.008 13.224c.08 2.144.688 33.136-24.104 55.256-24.464 21.832-44.168 19.08-44.896 18.952l-1.12-.2c-3.024-4.216-7.424-10.872-12.264-19.584 38.136-5.472 60.712-41.04 70.376-67.648zM48.88 331.264c-.232-1.08-.208-2.176-.344-3.264h56.904l20.8 104H70.472L48.88 331.264zM464 480H32c-8.824 0-16-7.176-16-16s7.176-16 16-16h432c8.824 0 16 7.176 16 16s-7.176 16-16 16z"/><path d="M48 456h16v16H48zm64 0h16v16h-16zm64 0h16v16h-16zm64 0h16v16h-16zm64 0h16v16h-16zm64 0h16v16h-16zm64 0h16v16h-16z"/></svg>