<svg xmlns="http://www.w3.org/2000/svg" viewBox="0 0 496.432 496.432"><path d="M240.216 176h16v16h-16zm-72 0h16v16h-16zm136 0h16v16h-16zm-112 64c-13.232 0-24 10.768-24 24s10.768 24 24 24 24-10.768 24-24-10.768-24-24-24zm0 32c-4.408 0-8-3.584-8-8s3.592-8 8-8 8 3.584 8 8-3.592 8-8 8zm112 16c13.232 0 24-10.768 24-24s-10.768-24-24-24-24 10.768-24 24 10.768 24 24 24zm0-32c4.408 0 8 3.584 8 8s-3.592 8-8 8c-4.408 0-8-3.584-8-8s3.592-8 8-8zM78.104 157.72c4.28 4.2 8.888 7.952 13.688 11.144l8.864-13.312c-3.968-2.64-7.784-5.76-11.352-9.248l-11.2 11.416zM60.416 96.656l-15.168 5.096c5.368 15.968 12.248 29.888 20.448 41.392l13.024-9.296c-7.28-10.216-13.44-22.72-18.304-37.192z"/><path d="M496.216 24v-5.88c0-9.992-8.128-18.12-18.12-18.12-6.408 0-12.4 3.432-15.624 8.952C453.184 24.824 404.192 104 352.216 104h-8v.16c-13.312-18.656-33.576-36.712-64-44.336V27.056L258.104 16h-19.776l-22.112 11.056v32.768c-30.424 7.624-50.688 25.672-64 44.336V104h-8C92.24 104 43.248 24.824 33.96 8.952 30.728 3.432 24.744 0 18.336 0 8.344 0 .216 8.128.216 18.12V24c0 1.848 1.6 177.312 128 191.056v1.672c-17.832 3.008-32.368 15.84-37.744 32.76l-7.376 2.456a62.633 62.633 0 0 0-42.88 59.496 62.536 62.536 0 0 0 10.528 34.784l6.816 10.216.224-.152c-.928 4.304-1.568 8.672-1.568 13.16 0 16.68 6.496 32.368 18.288 44.16l7.824 7.824c3.2 13.56 10.024 26.024 20.12 36.12l17.304 17.304c-3.712 3.2-8.496 5.144-13.648 5.144-7.984 0-15.168-4.44-18.736-11.576l-8-16-14.312 7.16 8 16c6.016 12.032 17.832 19.712 31.16 20.376l25.384.04a40.006 40.006 0 0 0 30.232-13.8l24.296-28.04c9.152 11.68 28.008 30.24 61.552 41.416l2.536.856 2.528-.84c33.544-11.176 52.408-29.744 61.56-41.416l24.296 28.04A40.046 40.046 0 0 0 366.832 496h25.384v-.048c13.32-.664 25.144-8.344 31.16-20.376l8-16-14.312-7.16-8 16C405.488 475.56 398.312 480 390.328 480c-5.152 0-9.928-1.944-13.648-5.152l17.304-17.304c10.096-10.096 16.92-22.56 20.12-36.12l7.824-7.824c11.792-11.784 18.288-27.472 18.288-44.152 0-4.48-.64-8.856-1.568-13.16l.224.152 6.816-10.216a62.575 62.575 0 0 0 10.528-34.784 62.633 62.633 0 0 0-42.88-59.496l-7.376-2.456c-5.384-16.92-19.912-29.752-37.744-32.76v-1.672c126.4-13.744 128-189.208 128-191.056zm-19.928-6.968c.968-1.64 3.928-.832 3.928 1.088V24c0 1.56-1.224 138.592-89.664 169.688.992-3.08 1.664-6.288 1.664-9.688 0-15.416-10.952-28.304-25.48-31.32-1.8-6.96-5.624-19.208-12.792-32.744 58.44-1.52 108.336-78.984 122.344-102.904zM232.216 36.944L242.104 32h12.224l9.888 4.944v19.992c-5.104-.576-10.4-.936-16-.936s-10.896.36-16 .944v-20zm8 35.304V120h16V72.248c65.496 4.056 87.544 57.648 93.88 79.752h-93.88v-16h-16v16h-93.912c6.264-22.096 28.176-75.712 93.912-79.752zM105.96 193.944c-32.872-11.216-57.4-38.072-73.104-80.36C16.448 69.448 16.216 24.448 16.216 24v-5.88c0-1.92 2.96-2.736 3.936-1.088 14 23.92 63.904 101.384 122.336 102.896-7.168 13.536-10.992 25.784-12.792 32.744-14.528 3.024-25.48 15.912-25.48 31.328 0 3.496.704 6.792 1.744 9.944zm22.256 39.192v61.728c-13.76-3.576-24-15.992-24-30.864s10.24-27.288 24-30.864zm-63.496 105.2l-.664-.992a46.576 46.576 0 0 1-7.84-25.904 46.647 46.647 0 0 1 31.944-44.32l.216-.072a47.627 47.627 0 0 0 8.904 24.912l-29.432 41.2c-1.184 1.656-2.12 3.432-3.128 5.176zm15.96 57.688c-5.456-7.744-8.464-16.912-8.464-26.576 0-9.736 2.992-19.064 8.656-26.992l27.936-39.104a47.59 47.59 0 0 0 19.416 7.928v22.056c-26.2 10.376-44.616 34.632-47.544 62.688zm46.872 63.992l-13.792-13.792c-11.312-11.304-17.544-26.352-17.544-42.36 0-26.944 18.152-50.712 44.152-57.8l19.736-5.384-32.552 119.336zM186.104 216H310.32l-49.688 24.84 7.16 14.312L346.104 216h6.112v112.432l-26.08-7.112C317.056 310.664 303.672 304 289 304c-17.048 0-32.064 8.808-40.784 22.096-8.728-13.288-23.76-22.096-40.848-22.096-14.624 0-28 6.664-37.072 17.32l-26.08 7.112V216h6.112l78.312 39.16 7.16-14.312L186.104 216zm-38.36 255.72a24.01 24.01 0 0 1-10.352 6.984 36.77 36.77 0 0 0 4.36-9.928l33.984-124.616c3.88-14.216 16.888-24.16 31.688-24.16 18.088 0 32.792 14.712 32.792 32.792 0 7.88-2.848 15.504-8.008 21.472l-84.464 97.456zm100.472 7.816c-30.808-10.928-46.896-28.864-53.352-37.752l49.44-57.048c1.472-1.704 2.704-3.568 3.92-5.44 1.216 1.872 2.44 3.736 3.92 5.44l49.44 57.04c-6.488 8.92-22.576 26.84-53.368 37.76zm100.48-7.816l-84.472-97.456a32.844 32.844 0 0 1-8.008-21.472c0-18.08 14.704-32.792 32.848-32.792 14.744 0 27.752 9.936 31.632 24.16l33.992 124.616a37.02 37.02 0 0 0 4.36 9.928 23.916 23.916 0 0 1-10.352-6.984zm33.976-25.488l-13.792 13.792-32.552-119.336 19.736 5.384c26 7.088 44.152 30.848 44.152 57.792 0 16.008-6.232 31.056-17.544 42.368zm25.384-179.184l.216.072a46.647 46.647 0 0 1 31.944 44.32 46.576 46.576 0 0 1-7.84 25.904l-.664.992c-1.008-1.744-1.944-3.52-3.128-5.176l-29.432-41.2a47.671 47.671 0 0 0 8.904-24.912zm7.512 75.408c5.656 7.928 8.648 17.256 8.648 26.992 0 9.664-3.008 18.832-8.456 26.576-2.928-28.064-21.344-52.312-47.544-62.688V311.28a47.7 47.7 0 0 0 19.416-7.928l27.936 39.104zM392.216 264c0 14.872-10.24 27.288-24 30.864v-61.728c13.76 3.576 24 15.992 24 30.864zm-28-64.568c-3.88.36-7.864.568-12 .568h-208c-4.152 0-8.168-.248-12.128-.608-6.816-1.832-11.872-8.008-11.872-15.392 0-8.824 7.176-16 16-16h224c8.824 0 16 7.176 16 16 0 7.432-5.12 13.648-12 15.432z"/></svg>