<svg xmlns="http://www.w3.org/2000/svg" viewBox="0 0 496.016 496.016"><path d="M488.016 192.008c-39.704 0-72-32.304-72-72v-120h-104v56H184v-56H80v120c0 39.696-32.296 72-72 72H0v56l49.448 248h397.128l49.288-246.432.152-57.568h-8zm-180.688-120h4.688v36.688l-20.688-20.688 16-16zm-27.312 68.688l-20.688-20.688 20.688-20.688 20.688 20.688-20.688 20.688zm2.504 25.128a63.898 63.898 0 0 1-10.456 5.456l7.952-7.96 2.504 2.504zm24.768-29.776c-2.952 7.248-7.216 13.808-12.464 19.456l-3.496-3.496 15.96-15.96zm-22.584-64.04l-4.688 4.688-4.688-4.688h9.376zm-41.376 0h9.376l16 16-20.688 20.688-20.688-20.688 16-16zm-27.312 68.688l-20.688-20.688 20.688-20.688 20.688 20.688-20.688 20.688zm7.968 30.592a64.132 64.132 0 0 1-10.48-5.456l2.512-2.512 7.968 7.968zm-19.28-19.28l-3.504 3.504c-5.256-5.656-9.528-12.224-12.48-19.496l15.984 15.992zm16-80l-4.688 4.688-4.688-4.688h9.376zm-36.704 0h4.704l16 16-20.688 20.688-.016-.016V72.008zm56.016 408h-116.64l116.64-82.088v82.088zm0-101.64L95.584 480.008H62.552l-7.096-35.472 184.56-129.864v63.696zm0-83.248L52.032 427.392l-11.168-55.848 199.152-140.136v63.712zm0-83.272L37.44 354.408l-13.28-66.4h31.856v-16H20.96l-3.2-16h38.256v-16H16v-32.36c44.792-4.056 80-41.816 80-87.64v-104h24.016v104h16v-104H168v96c0 25.84 12.368 48.784 31.44 63.424l2.232 2.232.32-.32c10.856 7.672 23.672 12.744 37.56 14.208l.464.456v19.84zm-12.688-59.84l20.688-20.688 20.688 20.688-20.688 20.688-20.688-20.688zm28.688 328v-82.072l116.632 82.072H256.016zm187.968-52.616l-9.816-6.912-9.2 13.08 15.592 10.976-7.096 35.472H400.44L256.016 378.376v-63.704l155.296 109.28 9.2-13.08L256.016 295.12v-63.704l199.136 140.128-11.168 55.848zm36.032-187.384h-40v16h38.24l-3.2 16h-35.04v16h31.84l-13.28 66.4-202.56-142.552v-19.848l.456-.456c13.896-1.464 26.704-6.544 37.56-14.208l.328.328 2.264-2.264c19.04-14.648 31.392-37.576 31.392-63.4v-96h32v104h16v-104h24v104c0 45.832 35.208 83.584 80 87.64v32.36z"/></svg>