<svg xmlns="http://www.w3.org/2000/svg" viewBox="0 0 496 496"><path d="M248 200c-26.472 0-48 21.528-48 48s21.528 48 48 48 48-21.528 48-48-21.528-48-48-48zm0 80c-17.648 0-32-14.352-32-32s14.352-32 32-32 32 14.352 32 32-14.352 32-32 32z"/><path d="M424.296 73.784c-.344-.368-.584-.792-.936-1.152-.376-.376-.816-.632-1.2-.992C377.344 27.384 315.816 0 248 0S118.656 27.384 73.84 71.648c-.384.352-.832.616-1.2.992-.36.36-.6.784-.936 1.152C27.408 118.608 0 180.152 0 248c0 67.832 27.4 129.376 71.68 174.192.344.376.6.808.96 1.168s.792.616 1.168.96C118.624 468.6 180.168 496 248 496s129.376-27.4 174.192-71.68c.376-.344.808-.6 1.168-.96s.616-.792.96-1.168C468.6 377.376 496 315.832 496 248c0-67.848-27.408-129.392-71.704-174.216zm-.936 55.424c5.592-5.592 9.096-12.464 10.68-19.664 22.504 30.16 37.832 65.96 43.504 104.856-6.24-4.008-13.6-6.4-21.544-6.4-10.176 0-19.376 3.936-26.448 10.224-4.672-28.584-15.96-54.952-32.216-77.52 9.824-.552 19.008-4.48 26.024-11.496zM480 248c0 13.232-10.768 24-24 24s-24-10.768-24-24 10.768-24 24-24 24 10.768 24 24zM348.408 382.36C320.368 403.384 285.672 416 248 416s-72.368-12.616-100.424-33.64l63.472-63.472C222.12 324.68 234.672 328 248 328s25.88-3.32 36.944-9.112l45.4 45.4 11.312-11.312-43.072-43.072a80.414 80.414 0 0 0 11.312-11.312l62.216 62.216A167.655 167.655 0 0 1 360.8 372.12l-9.616-9.608-11.312 11.312 8.536 8.536zM312 248c0 35.288-28.712 64-64 64s-64-28.712-64-64 28.712-64 64-64 64 28.712 64 64zm-13.4-61.904l62.216-62.216c3.944 3.592 7.72 7.36 11.312 11.312l-62.216 62.216a80.414 80.414 0 0 0-11.312-11.312zm-112.504 11.312l-62.424-62.424c3.584-3.936 7.4-7.664 11.368-11.264l62.376 62.376a80.047 80.047 0 0 0-11.32 11.312zm-8.976 13.648C171.32 222.12 168 234.672 168 248s3.32 25.88 9.112 36.944l-63.472 63.472C92.616 320.368 80 285.672 80 248c0-37 12.144-72.04 33.488-100.576l63.632 63.632zm8.968 87.536a80.414 80.414 0 0 0 11.312 11.312l-62.216 62.216a171.461 171.461 0 0 1-11.312-11.312l62.216-62.216zm132.8-13.64C324.68 273.88 328 261.328 328 248s-3.32-25.88-9.112-36.944l63.48-63.48C403.384 175.632 416 210.328 416 248s-12.616 72.368-33.64 100.424l-63.472-63.472zM410.896 83c.688.68 1.368 1.368 2.048 2.048 8.352 9.416 8.12 23.824-.896 32.84-9.064 9.064-24.872 9.064-33.936 0-9.36-9.36-9.36-24.584 0-33.944 4.528-4.528 10.552-7.024 16.968-7.024 5.912 0 11.432 2.2 15.816 6.08zM281.6 18.464c38.872 5.664 74.664 20.984 104.816 43.472-7.368 1.616-14.152 5.24-19.616 10.704-7.224 7.224-10.952 16.56-11.48 26.04-22.576-16.272-48.952-27.56-77.536-32.232C284.064 59.376 288 50.176 288 40c0-7.944-2.392-15.304-6.4-21.536zM248 16c13.232 0 24 10.768 24 24s-10.768 24-24 24-24-10.768-24-24 10.768-24 24-24zm-33.592 2.456C210.392 24.696 208 32.056 208 40c0 10.168 3.928 19.352 10.2 26.424a182.48 182.48 0 0 0-43.784 12.88l6.408 14.664C202.056 84.696 224.648 80 248 80c37.672 0 72.368 12.616 100.424 33.64l-63.472 63.472C273.88 171.32 261.328 168 248 168s-25.88 3.32-36.952 9.112l-63.632-63.632c6.856-5.128 14.112-9.816 21.832-13.92l-7.512-14.128a185.001 185.001 0 0 0-21.064 13.096c-.56-9.432-4.28-18.704-11.464-25.896-5.464-5.464-12.248-9.08-19.616-10.704 30.152-22.488 65.936-37.8 104.816-43.472zM83.056 85.048c.68-.688 1.36-1.368 2.048-2.048 4.384-3.88 9.904-6.08 15.816-6.08 6.416 0 12.44 2.496 16.968 7.024 9.36 9.36 9.36 24.584 0 33.944-9.064 9.064-24.872 9.064-33.936 0-9.016-9.016-9.256-23.432-.896-32.84zm-21.088 24.496c1.576 7.2 5.08 14.072 10.672 19.664 6.984 6.984 16.128 10.904 25.912 11.48-16.408 22.84-27.448 49.328-32.048 77.576C59.424 211.96 50.2 208 40 208c-7.944 0-15.304 2.392-21.536 6.4 5.672-38.896 20.992-74.696 43.504-104.856zM40 224c13.232 0 24 10.768 24 24s-10.768 24-24 24-24-10.768-24-24 10.768-24 24-24zm32.64 142.792c-5.464 5.464-9.08 12.248-10.704 19.616-22.488-30.144-37.808-65.936-43.472-104.808C24.696 285.608 32.056 288 40 288c10.176 0 19.376-3.936 26.448-10.224 4.672 28.584 15.96 54.952 32.216 77.52-9.824.552-19.008 4.488-26.024 11.496zm12.328 46.072a148.972 148.972 0 0 1-1.944-1.952c-3.888-4.384-6.096-9.92-6.096-15.832 0-6.416 2.496-12.44 7.032-16.968 4.536-4.528 10.552-7.032 16.968-7.032s12.44 2.496 16.968 7.032 7.032 10.552 7.032 16.968-2.496 12.44-7.032 16.968c-8.752 8.752-23.744 8.968-32.928.816zM214.4 477.536c-38.872-5.664-74.656-20.984-104.808-43.472 7.368-1.624 14.152-5.24 19.608-10.704 7.016-7.008 10.944-16.2 11.496-26.024 22.568 16.264 48.944 27.544 77.52 32.216C211.936 436.624 208 445.824 208 456c0 7.944 2.392 15.304 6.4 21.536zM248 480c-13.232 0-24-10.768-24-24s10.768-24 24-24 24 10.768 24 24-10.768 24-24 24zm33.592-2.464C285.608 471.304 288 463.944 288 456c0-10.176-3.936-19.376-10.224-26.448 28.584-4.672 54.952-15.96 77.52-32.216.552 9.824 4.488 19.008 11.496 26.024 5.464 5.464 12.248 9.08 19.616 10.704-30.152 22.488-65.936 37.8-104.816 43.472zm131.392-66.624c-.648.656-1.296 1.304-1.944 1.952-9.184 8.152-24.176 7.936-32.928-.816-4.528-4.528-7.032-10.552-7.032-16.968s2.496-12.44 7.032-16.968c4.536-4.528 10.552-7.032 16.968-7.032s12.44 2.496 16.968 7.032c4.528 4.536 7.032 10.552 7.032 16.968 0 5.92-2.208 11.448-6.096 15.832zm21.08-24.504c-1.624-7.368-5.24-14.152-10.704-19.608-7.008-7.016-16.2-10.944-26.024-11.496 16.264-22.568 27.544-48.944 32.216-77.52C436.624 284.064 445.824 288 456 288c7.944 0 15.304-2.392 21.536-6.4-5.664 38.872-20.984 74.656-43.472 104.808z"/></svg>