<svg xmlns="http://www.w3.org/2000/svg" viewBox="0 0 496.042 496.042"><path d="M494.959 29.264c2.528-7.648.552-15.936-5.136-21.624-5.504-5.52-13.568-7.552-21.064-5.328L298.247 53.32l-50.232 75.168-48.64-72.768-1.592-2.392L27.279 2.32A21.148 21.148 0 0 0 6.223 7.64C.527 13.336-1.449 21.624 1.087 29.264l53.944 163.504.84 2.576 101.36 68.96-29.56 44.216c-5.456-1.16-11.064-1.8-16.776-1.8-21.376 0-41.464 8.32-56.568 23.44l-5.656 5.672 28.28 28.28-62.216 62.224c-7.552 7.544-11.72 17.592-11.72 28.28s4.168 20.736 11.72 28.28c7.544 7.552 17.592 11.72 28.28 11.72s20.736-4.168 28.28-11.72l62.232-62.224 28.288 28.288 5.656-5.656c20.72-20.712 27.592-50.048 20.784-76.56l59.76-40.664 59.768 40.664c-6.8 26.512.072 55.84 20.792 76.552l5.656 5.656 28.28-28.28 62.224 62.216c7.8 7.8 18.04 11.696 28.28 11.696 10.248 0 20.496-3.896 28.288-11.696 15.592-15.592 15.592-40.968 0-56.56l-62.224-62.224 28.28-28.28-5.656-5.656c-15.112-15.12-35.192-23.44-56.568-23.44-5.712 0-11.32.64-16.776 1.8l-29.56-44.224 101.368-68.952 54.792-166.088zM170.455 273.312l25.32 17.224-34.248 34.248c-5.544-4.544-11.632-8.216-18.064-11.088l26.992-40.384zM26.047 471.592c-4.528-4.528-7.032-10.552-7.032-16.968 0-3.632.88-7.104 2.4-10.288l31.8 31.8c-8.888 4.008-20.08 2.544-27.168-4.544zm39.592-5.664l-33.936-33.936 11.312-11.312 33.944 33.936-11.32 11.312zm22.632-22.624l-33.944-33.936 11.312-11.32 21.856 21.856 11.312-11.312-21.856-21.856 11.312-11.312 33.944 33.944-33.936 33.936zm73.192-17.32l-89.816-89.808c11.168-8.712 24.84-13.44 39.248-13.44 17.056 0 33.088 6.632 45.176 18.672l.16.16c22.96 23.048 24.704 59.36 5.232 84.416zm21.072-74.704c-2.624-5.32-5.824-10.424-9.704-15.168l36.408-36.408 24.544 16.704-51.248 34.872zm287.464 120.312c-7.368 7.368-18.336 8.84-27.248 4.616l31.864-31.856c4.232 8.912 2.752 19.872-4.616 27.24zm-5.656-39.6l-33.944 33.936-11.312-11.304 33.944-33.944 11.312 11.312zm-22.624-22.624l-33.944 33.944-11.32-11.32 33.944-33.944 11.32 11.32zm-22.632-22.632l-33.944 33.944-11.312-11.312 33.944-33.944 11.312 11.312zm-33.952-64c14.408 0 28.08 4.728 39.256 13.44l-89.808 89.808c-19.504-25.088-17.736-61.464 5.304-84.496 12.088-12.096 28.16-18.752 45.248-18.752zm-32.56-9.032c-6.392 2.856-12.448 6.504-17.96 11.016l-33.072-33.072-11.312 11.312 33.056 33.056c-3.92 4.768-7.144 9.904-9.784 15.264L69.367 185.184 18.615 31.344l261.288 261.288 11.312-11.312-261.6-261.6L187.679 67l164.896 246.704zm-22.664-62.688l-28.832-43.144L449.543 59.4l-11.312-11.312-146.216 146.216-34.376-51.432L308.359 67l158.32-47.36-17.4 17.4 11.312 11.312 16.744-16.744-50.672 153.576-96.752 65.832z"/></svg>