<svg xmlns="http://www.w3.org/2000/svg" viewBox="0 0 496.004 496.004"><path d="M456.002 416.002h-24v-130.28c15.672 11 37.192 10.576 50.984-2.032 8.144-7.456 12.76-17.624 13.008-28.648.24-11.016-3.912-21.376-11.696-29.16l-28.296-28.408V48.002h16v-48h-144v48h16v37.024l-76.688-77c-10.152-10.192-28.48-10.192-38.624 0L11.714 225.874C3.922 233.666-.238 244.026.01 255.042s4.864 21.192 13.008 28.648c7.264 6.648 16.688 9.928 26.272 9.928 8.608 0 17.288-2.736 24.712-7.952v130.336h-24c-22.056 0-40 17.944-40 40s17.944 40 40 40h416c22.056 0 40-17.944 40-40s-17.943-40-40-40zm-112-400h112v16h-112v-16zm96 64v16h-32v16h32v69.408l-80-80.32V48.002h80v16h-16v16h16zM58.45 269.65c-9.76 9.784-25.304 10.784-34.632 2.24-4.888-4.48-7.664-10.592-7.816-17.2-.144-6.616 2.352-12.832 7.032-17.52L240.026 19.314c2.096-2.104 5-3.312 7.976-3.312s5.88 1.208 7.976 3.312l217 217.872c4.672 4.672 7.168 10.896 7.024 17.504-.152 6.608-2.92 12.712-7.816 17.2-9.336 8.528-24.864 7.512-34.632-2.24l-5.552-5.552v-.096h-.096l-31.904-31.904v-.096h-.096l-71.904-71.904v-.096h-.096L259.314 91.41c-6.232-6.224-16.376-6.232-22.624 0l-60.592 60.592h-.096v.096L64.098 264.002h-.096v.096l-5.552 5.552zm21.552 10.352h32v16h-32v-16zm376 200h-416c-13.232 0-24-10.768-24-24s10.768-24 24-24h56v-16h-16v-32h32v-16h-32v-56h48v-48h-41.28l65.28-65.28v1.28h40v-16h-25.28l16-16h41.28v-16h-25.28l49.28-49.28 57.28 57.28h-17.28v16h33.28l56 56h-17.28v16h33.28l22.72 22.72v33.28h-16v16h16v24h-48v48h48v24h-96v-144h-144v144h-64v16h344c13.232 0 24 10.768 24 24s-10.768 24-24 24zm-40-120v16h-32v-16h32zm-112-72v128h-112v-128h112z"/><path d="M200.002 336.002h16v16h-16zm120-144h-64v48h64v-48zm-16 32h-32v-16h32v16zm-120 0h40v16h-40zm-56 104h32v16h-32zm208-56h32v16h-32z"/></svg>