<svg xmlns="http://www.w3.org/2000/svg" viewBox="0 0 496 496"><path d="M491.088 121.028C483.624 87.452 454.392 64.004 420 64.004c-11.024 0-20 8.976-20 20 0 10.96 12.808 17.544 16.728 19.304l.552.224c12.512 4.52 16.184 43.24 14.72 68.464 0 61.784-45.696 114.68-103.864 122.864 1.408-61.608 16.872-88.736 29.968-100.592 12.584-11.408 24.504-10.36 24.904-10.32l13.84 1.728-5.496-12.824C369.04 120.788 414.8 20.364 415.264 19.356l.736-1.6V.004h-8c-24.336 0-48.24 6.232-69.136 18.016-47.856 27-122.512 78.984-146.864 150.648V24.412c0-10.544-6.336-19.824-15.776-23.08-10.248-3.552-21.56.24-27.52 9.192l-40.984 61.48H91.904C63.288 72.004 40 95.292 40 123.908v19.96l-17.704.072C10 143.996 0 154.044 0 166.34c0 1.792.176 3.44.528 5.032C5.408 193.22 24.352 229.364 96 231.868v59.816c0 54.816 22.6 108.432 62.016 147.096 37.696 36.984 86.608 57.216 138.104 57.216 1.248 0 2.496-.008 3.744-.032C408.008 493.916 496 404.212 496 296.004v-130.24c0-15.024-1.656-30.072-4.912-44.736zm-291.096 94.976C200 127.876 291.928 62.868 346.72 31.956c15.952-9 33.904-14.336 52.376-15.64-7.496 17.184-36.816 89.016-28.248 142.232-23.12-5.776-68.72-19.72-85.2-36.208l-11.312 11.312c19.28 19.28 65.208 33.208 87.464 39.072-4.416 2.064-9.12 4.96-13.832 9.12-22.768 20.104-34.8 58.456-35.872 114-31.064 0-60.48-11.528-83.056-33.136-13.072-12.512-22.8-27.448-29.048-43.784v-2.92zM224 464.676a179.955 179.955 0 0 1-14.344-7.144A94.917 94.917 0 0 1 224 430.404v34.272zm64 15.088c-5.368-.24-10.712-.696-16-1.416v-46.344h-16v43.4c-5.408-1.248-10.736-2.776-16-4.528v-56.984a94.89 94.89 0 0 1 16-10.488v12.6h16v-19.128a95.148 95.148 0 0 1 16-3.432v86.32zm32-1.376a185.111 185.111 0 0 1-16 1.384V392.78a94.04 94.04 0 0 1 16 2.064v83.544zm48-13.248v-9.136h-16v15.168c-5.24 1.696-10.568 3.184-16 4.4V399.82a96.36 96.36 0 0 1 16 8.448v31.736h16v-18.712a94.775 94.775 0 0 1 21.184 33.032A183.756 183.756 0 0 1 368 465.14zm112-169.136c0 13.048-1.424 25.784-4.064 38.104C465.368 323.9 446.56 312.004 416 312.004v16c34.048 0 49.84 17.344 54.936 24.56a183.43 183.43 0 0 1-9.36 23.16c-10.2-10.52-29.392-23.72-61.576-23.72v16c31.288 0 47.152 14.64 53.472 22.616-13.008 21.48-30.304 40.12-50.64 54.768C385.784 404.42 345 376.62 300 376.62c-46.912 0-88.2 29.256-104.264 72.392a188.389 188.389 0 0 1-26.52-21.656C132.856 391.676 112 342.228 112 291.684v-75.68h-8c-20.472 0-37.752-2.944-51.544-8.52 19.576-2.224 37.72-11.736 49.736-26.416l-12.384-10.136c-10.792 13.2-28.056 21.072-46.168 21.072H28.88c-6.328-6.728-10.648-14.784-12.736-24.12A7.346 7.346 0 0 1 16 166.34c0-3.512 2.856-6.376 6.368-6.392L56 159.796v-35.888c0-19.792 16.112-35.904 35.904-35.904h24.376l45.736-68.6c1.96-2.944 5.576-4.136 8.984-2.944 2.944 1.016 5 4.288 5 7.952v151.592c0 11.4 1.544 22.504 4.224 33.248-16.616 3.104-38.024 12.96-43.984 36.808l15.52 3.88c4.624-18.52 23.048-23.8 33.296-25.312 4.528 11.848 10.728 23 18.496 33.224-13.448 3.752-29.736 13.88-35.32 36.208l15.52 3.872c6.176-24.688 29.872-25.872 32.088-25.928.736.736 1.384 1.536 2.136 2.256 27.064 25.896 62.68 39.28 100.16 37.6 72.824-3.2 129.864-64.648 129.848-139.4.728-12.184 2.912-73.312-24.928-83.856-2.776-1.288-6.544-3.896-7.056-4.6 0-2.208 1.792-4 4-4 26.832 0 49.648 18.296 55.472 44.496A190.347 190.347 0 0 1 480 165.764v130.24z"/><path d="M96 104.004c-13.232 0-24 10.768-24 24s10.768 24 24 24 24-10.768 24-24-10.768-24-24-24zm0 32c-4.408 0-8-3.592-8-8s3.592-8 8-8 8 3.592 8 8-3.592 8-8 8z"/></svg>