<svg xmlns="http://www.w3.org/2000/svg" viewBox="0 0 494.386 494.386"><path d="M480.33 367.212c-9.064-9.072-21.12-14.064-33.944-14.064-10.112 0-19.752 3.112-27.824 8.864L374.89 318.34c36.688-62.184 26.768-142.944-24.672-194.384L258.522 32.26c-1.304-8.6-4.584-15.904-10.12-21.44-28.544-28.552-103.088 1.264-169.704 67.88-66.616 66.616-96.432 141.16-67.888 169.712 5.552 5.552 12.856 8.88 21.496 10.176l91.648 91.648c51.44 51.44 132.176 61.368 194.376 24.672l43.68 43.68c-13.328 18.736-11.6 44.968 5.184 61.76 9.36 9.36 21.648 14.032 33.944 14.032 12.296 0 24.584-4.672 33.944-14.032 8.496-8.496 13.328-19.576 13.888-31.36 11.792-.568 22.872-5.408 31.36-13.896 9.064-9.064 14.056-21.12 14.056-33.936 0-12.816-4.992-24.888-14.056-33.944zM22.122 237.1C3.394 218.372 26.666 153.356 90.01 90.02c49.152-49.152 99.296-74.168 128.056-74.168 8.304 0 14.832 2.088 19.024 6.288 18.728 18.728-4.544 83.744-67.88 147.08-63.344 63.344-128.344 86.6-147.088 67.88zm298.48 117.432l-5.44 3.52c-56.56 36.592-132.216 28.544-179.896-19.136l-80.912-80.912c35.312-5.912 82.44-33.752 126.168-77.48 43.792-43.792 71.536-90.928 77.392-126.256l81 81c47.672 47.68 55.728 123.336 19.136 179.904l-3.512 5.432 18.32 18.312-33.936 33.936-18.32-18.32zm148.416 69.24c-7.144 7.152-17.08 10.392-27.288 8.904l-10.632-1.552 1.56 10.624c1.496 10.184-1.752 20.136-8.896 27.28-12.48 12.472-32.784 12.472-45.256 0-12.472-12.48-12.472-32.784 0-45.256l5.656-5.656-33.936-33.936 33.936-33.936 33.944 33.944 5.656-5.656c12.096-12.096 33.168-12.096 45.256 0 6.04 6.048 9.368 14.08 9.368 22.624s-3.328 16.568-9.368 22.616z"/><path d="M282.642 339.38l6.48 14.624a125.371 125.371 0 0 0 17.36-9.384l-8.696-13.44a109.502 109.502 0 0 1-15.144 8.2zM157.89 316.292l-50.912-50.912-11.312 11.312 50.912 50.912c24.2 24.2 57.048 37.352 90.664 37.352 11.08 0 22.248-1.432 33.216-4.368l-4.136-15.456c-38.72 10.352-80.28-.688-108.432-28.84zM198.906 78.06c-8.296 15.688-24.112 40.312-52.328 68.528-37.624 37.624-76.344 59.792-98.144 64.128 3.816-17.072 20.496-54.368 64.192-98.072C150.21 75.06 188.89 52.9 210.698 48.532c-1.072 4.736-3.176 11.328-7 19.768l14.576 6.6c6.736-14.88 10.104-27.992 9.232-35.968l-.72-6.664-6.68-.456c-.608-.04-1.344-.08-2.216-.08-22.624 0-68.752 21.784-116.568 69.6-51.384 51.392-71.648 100.512-69.624 118.984l.728 6.656 6.68.456c.616.04 1.352.08 2.216.08 22.624 0 68.752-21.784 116.568-69.6 29.632-29.632 46.352-55.704 55.16-72.36l-14.144-7.488z"/><path d="M169.204 101.341l-67.875 67.876-11.314-11.314 67.876-67.875z"/></svg>