<svg xmlns="http://www.w3.org/2000/svg" viewBox="0 0 496.344 496.344"><path d="M472.168 127.708V88.172h24v-64H305.2c-14.52-14.792-34.712-24-57.032-24s-42.512 9.208-57.032 24H.168v64h24v39.536L0 345.244 53.824 483.62c2.96 7.624 10.168 12.552 18.344 12.552s15.384-4.928 18.352-12.56l45.072-115.888 38.464 115.392c2.608 7.808 9.888 13.056 18.112 13.056s15.504-5.248 18.12-13.056l37.88-113.648 37.88 113.656c2.616 7.8 9.896 13.048 18.12 13.048s15.504-5.248 18.12-13.056l38.464-115.384 45.072 115.888c2.96 7.624 10.168 12.552 18.344 12.552 8.176 0 15.384-4.928 18.352-12.56l53.104-136.544.72-1.832-24.176-217.528zm8-87.536v32H327.76c-1.152-11.576-4.848-22.4-10.416-32h162.824zm-24 59.312v20.688H435.48l20.688-20.688zm-43.312 20.688H387.48l32-32h25.376l-32 32zm-64-32l-30.752 30.752c5.16-9.28 8.552-19.68 9.656-30.752h21.096zm-332.688-16v-32h162.824c-5.576 9.6-9.264 20.424-10.416 32H16.168zm162.824 48H155.48l16.28-16.28c1.784 5.744 4.264 11.168 7.232 16.28zm-87.512-32h25.376l-32 32H59.48l32-32zM40.168 116.86V88.172h28.688L40.168 116.86zm88 225.808L79.104 468.836l-4.728-85.032-15.968.888 4.32 77.704L16.336 343.1l22.992-206.928h88.84v206.496zm4.688-222.496H107.48l32-32h25.376l-32 32zm107.312 222.704l-40 120V224.172h-16v238.712l-40-120V136.172h46.968c12.768 13 29.912 21.688 49.032 23.592v183.112zm-56-262.704c0-35.288 28.712-64 64-64s64 28.712 64 64-28.712 64-64 64-64-28.712-64-64zm168 262.712l-40 119.992v-22.36h-16v22.368l-40-120v-183.12c19.128-1.904 36.264-10.592 49.032-23.592h46.968v206.712zM339.48 120.172l32-32h25.376l-32 32H339.48zm94.128 342.224l6.544-117.776.048-.752-11.896-89.224-15.856 2.12 11.696 87.728-6.904 124.36-49.072-126.184V136.172h88.84L480 343.1l-46.392 119.296z"/><path d="M248.168 32.172c-26.472 0-48 21.528-48 48s21.528 48 48 48 48-21.528 48-48-21.528-48-48-48zm0 80c-17.648 0-32-14.352-32-32s14.352-32 32-32 32 14.352 32 32-14.352 32-32 32zm48 112h16v200.08h-16zM73.496 367.892L72.2 344.484l15.896-119.256-15.856-2.112L56.136 343.86l1.392 24.92zM410.47 241.835l-2.218-16.613 15.86-2.118 2.218 16.612z"/></svg>