<svg xmlns="http://www.w3.org/2000/svg" viewBox="0 0 496 496"><path d="M188 288c30.872 0 56 25.12 56 56 0 12.88-4.248 24.984-12.28 35l12.488 10.008C254.392 376.304 260 360.32 260 344c0-39.696-32.296-72-72-72v16zm21 107.936l6 14.832a71.865 71.865 0 0 0 18.008-10.56l-10.016-12.488A56.201 56.201 0 0 1 209 395.936z"/><path d="M460 136c0-13.128-6.448-24.704-16.248-32C453.552 96.704 460 85.128 460 72c0-22.056-17.944-40-40-40-5.872 0-11.416 1.344-16.44 3.632C401.344 15.648 384.56 0 364 0c-13.128 0-24.704 6.448-32 16.248C324.704 6.448 313.128 0 300 0s-24.704 6.448-32 16.248C260.704 6.448 249.128 0 236 0c-22.056 0-40 17.944-40 40 0 3.168.464 6.208 1.16 9.16-2.952-.696-5.992-1.16-9.16-1.16-22.056 0-40 17.944-40 40 0 13.128 6.448 24.704 16.248 32-9.8 7.296-16.248 18.872-16.248 32s6.448 24.704 16.248 32c-9.8 7.296-16.248 18.872-16.248 32 0 10.928 4.424 20.824 11.552 28.056a103.81 103.81 0 0 0-14.376 5.28l-42.6-16.392c-7.36-3.664-16.224-2.248-22.048 3.576-5.824 5.816-7.264 14.672-3.888 21.352l16.704 43.312c-.92 2.016-1.744 4.072-2.536 6.16l-41.744 18.544C41.24 328.488 36 335.768 36 344s5.24 15.512 12.344 17.84L90.8 380.672c.792 2.08 1.616 4.136 2.536 6.152l-16.4 42.608a19.086 19.086 0 0 0 3.576 22.04c3.752 3.752 8.76 5.68 13.632 5.68 2.696 0 5.344-.592 7.72-1.792l43.312-16.704c2.016.92 4.072 1.744 6.152 2.536l18.552 41.752C172.496 490.752 179.776 496 188 496s15.504-5.248 17.84-12.344l18.824-42.456c2.08-.792 4.136-1.616 6.152-2.536l42.6 16.392a19.128 19.128 0 0 0 8.552 2.024c4.944 0 9.832-1.928 13.496-5.6 5.824-5.816 7.264-14.672 3.888-21.352l-16.704-43.312c.92-2.016 1.744-4.072 2.536-6.16l41.744-18.544C334.76 359.512 340 352.232 340 344s-5.24-15.512-12.344-17.84L285.2 307.328c-.792-2.08-1.616-4.136-2.536-6.152l16.4-42.608a19.086 19.086 0 0 0-3.576-22.04c-5.824-5.832-14.68-7.272-21.352-3.888l-43.312 16.704a102.79 102.79 0 0 0-14.376-5.28C223.576 236.824 228 226.928 228 216c0-13.128-6.448-24.704-16.248-32 9.8-7.296 16.248-18.872 16.248-32s-6.448-24.704-16.248-32c9.8-7.296 16.248-18.872 16.248-32 0-3.168-.464-6.208-1.16-9.16 2.952.696 5.992 1.16 9.16 1.16 13.128 0 24.704-6.448 32-16.248C275.296 73.552 286.872 80 300 80s24.704-6.448 32-16.248C339.296 73.552 350.872 80 364 80c5.872 0 11.416-1.344 16.44-3.632 1.248 11.304 7.12 21.168 15.808 27.632-9.8 7.296-16.248 18.872-16.248 32s6.448 24.704 16.248 32c-9.8 7.296-16.248 18.872-16.248 32 0 13.016 6.344 24.488 16 31.792V272h-16v184c0 22.056 17.944 40 40 40s40-17.944 40-40V272h-16v-40.208c9.656-7.312 16-18.784 16-31.792 0-13.128-6.448-24.704-16.248-32 9.8-7.296 16.248-18.872 16.248-32zM85.488 360.832L54.12 346.944C52.848 346.52 52 345.336 52 344s.848-2.52 2.832-3.216l30.656-13.592C84.592 332.672 84 338.264 84 344c0 5.744.592 11.336 1.488 16.832zm205.024-33.664l31.368 13.888c1.272.424 2.12 1.608 2.12 2.944s-.848 2.52-2.832 3.216l-30.656 13.592c.896-5.48 1.488-11.072 1.488-16.808 0-5.744-.592-11.336-1.488-16.832zM91.248 251.416a3.108 3.108 0 0 1 .592-3.584c.936-.936 2.368-1.168 4.272-.264l31.304 12.072c-9.168 6.6-17.2 14.64-23.8 23.808l-12.368-32.032zm4.168 189.328a3.096 3.096 0 0 1-3.576-.584c-.944-.944-1.176-2.384-.28-4.272l12.08-31.32c6.6 9.168 14.64 17.2 23.808 23.8l-32.032 12.376zm95.528 37.128c-.856 2.544-4.76 3.248-6.168-.704l-13.592-30.656c5.488.896 11.08 1.488 16.816 1.488 5.744 0 11.336-.592 16.832-1.488l-13.888 31.36zm93.808-41.288a3.108 3.108 0 0 1-.592 3.584c-.936.944-2.368 1.176-4.272.264l-31.304-12.072c9.168-6.6 17.2-14.64 23.8-23.808l12.368 32.032zm-4.168-189.328a3.083 3.083 0 0 1 3.576.584c.944.944 1.176 2.384.28 4.272l-12.08 31.32c-6.6-9.168-14.64-17.2-23.808-23.8l32.032-12.376zM276 344c0 48.52-39.48 88-88 88s-88-39.48-88-88 39.48-88 88-88 88 39.48 88 88zm-64-128c0 13.232-10.768 24-24 24s-24-10.768-24-24 10.768-24 24-24 24 10.768 24 24zm0-64c0 13.232-10.768 24-24 24s-24-10.768-24-24 10.768-24 24-24 24 10.768 24 24zm-24-40c-13.232 0-24-10.768-24-24s10.768-24 24-24 24 10.768 24 24-10.768 24-24 24zm48-48c-13.232 0-24-10.768-24-24s10.768-24 24-24 24 10.768 24 24-10.768 24-24 24zm64 0c-13.232 0-24-10.768-24-24s10.768-24 24-24 24 10.768 24 24-10.768 24-24 24zm64 0c-13.232 0-24-10.768-24-24s10.768-24 24-24 24 10.768 24 24-10.768 24-24 24zm32 8c0-13.232 10.768-24 24-24s24 10.768 24 24-10.768 24-24 24-24-10.768-24-24zm48 384c0 13.232-10.768 24-24 24s-24-10.768-24-24V320h48v136zm0-152h-48v-16h48v16zm-32-32v-32.808a39.963 39.963 0 0 0 16 0V272h-16zm32-72c0 13.232-10.768 24-24 24s-24-10.768-24-24 10.768-24 24-24 24 10.768 24 24zm-24-40c-13.232 0-24-10.768-24-24s10.768-24 24-24 24 10.768 24 24-10.768 24-24 24z"/></svg>