<svg xmlns="http://www.w3.org/2000/svg" viewBox="0 0 496 496"><path d="M467.536 14.16A23.139 23.139 0 0 0 446.168 0c-11.544 0-21.4 8.448-22.92 19.656C415.848 74.12 354.168 80 328 80c-15.816 0-31.864-3.752-40-5.984V64h5.576C303.736 64 312 55.736 312 45.576a18.39 18.39 0 0 0-8.2-15.328L267.096 5.776c-11.36-7.56-26.832-7.56-38.184 0l-36.704 24.472A18.378 18.378 0 0 0 184 45.576C184 55.736 192.264 64 202.424 64H208v10.016C199.864 76.248 183.816 80 168 80c-26.168 0-87.848-5.88-95.24-60.344C71.232 8.448 61.384 0 49.832 0a23.144 23.144 0 0 0-21.368 14.152C19.904 34.392 0 88.336 0 152s19.904 117.608 28.464 137.84A23.139 23.139 0 0 0 49.832 304c11.544 0 21.4-8.448 22.92-19.656C80.152 229.88 141.832 224 168 224c15.816 0 31.864 3.752 40 5.984V296c-17.648 0-32 14.352-32 32s14.352 32 32 32v136h80V360c17.648 0 32-14.352 32-32s-14.352-32-32-32v-66.016c8.136-2.232 24.184-5.984 40-5.984 26.168 0 87.848 5.88 95.24 60.344C424.768 295.552 434.616 304 446.168 304c9.352 0 17.744-5.552 21.376-14.152C476.096 269.608 496 215.664 496 152S476.096 34.392 467.536 14.16zM49.832 288a7.192 7.192 0 0 1-6.64-4.384C35.016 264.28 16 212.744 16 152S35.016 39.72 43.192 20.384A7.192 7.192 0 0 1 49.832 16c3.248 0 5.944 2.096 6.768 4.952C55.336 23.92 32 79.632 32 152s23.336 128.08 24.608 131.048c-.824 2.856-3.528 4.952-6.776 4.952zM168 208c-51 0-87.84 18.048-103.528 49.376C57.584 235.4 48 196.824 48 152c0-44.728 9.592-83.344 16.488-105.36C80.176 77.96 117.016 96 168 96c15.28 0 30.336-3.008 40-5.432v122.864c-9.664-2.424-24.72-5.432-40-5.432zm104 182.112l-27.16 54.312 14.312 7.16L272 425.888V480h-27.056l6.208-12.424-14.312-7.16L227.056 480H224v-38.272L261.152 360H272v30.112zm-48 12.96V360h19.576L224 403.072zM304 328c0 8.824-7.176 16-16 16h-80c-8.824 0-16-7.176-16-16s7.176-16 16-16h80c8.824 0 16 7.176 16 16zm-80-32V64h48v232h-48zM208 48h-5.576A2.428 2.428 0 0 1 200 45.576a2.42 2.42 0 0 1 1.08-2.016l36.704-24.472a18.426 18.426 0 0 1 20.432.008l36.704 24.472c.672.44 1.08 1.2 1.08 2.008A2.428 2.428 0 0 1 293.576 48H208zm120 160c-15.28 0-30.336 3.008-40 5.432V90.568C297.664 92.992 312.72 96 328 96c51 0 87.84-18.048 103.528-49.376C438.416 68.6 448 107.176 448 152c0 44.728-9.592 83.344-16.488 105.36C415.824 226.04 378.984 208 328 208zm124.808 75.616a7.192 7.192 0 0 1-6.64 4.384c-3.248 0-5.944-2.096-6.768-4.952C440.664 280.08 464 224.368 464 152S440.664 23.92 439.392 20.952c.824-2.856 3.528-4.952 6.776-4.952a7.192 7.192 0 0 1 6.64 4.384C460.984 39.72 480 91.256 480 152s-19.016 112.28-27.192 131.616z"/><path d="M67.496 201.104c.792 5.664 1.68 11.12 2.64 16.336l15.736-2.888c-.912-5-1.776-10.232-2.528-15.664l-15.848 2.216zM80 152c0-20.376 1.976-41.416 5.864-62.552l-15.736-2.896C66.064 108.64 64 130.656 64 152c0 10.832.536 21.976 1.608 33.128l15.92-1.52C80.512 172.952 80 162.32 80 152z"/></svg>