<svg xmlns="http://www.w3.org/2000/svg" viewBox="0 0 497.448 497.448"><path d="M482.577 251.936c8.488-5.76 14.08-15.48 14.08-26.488 0-17.648-14.352-32-32-32s-32 14.352-32 32c0 11.76 6.448 21.952 15.928 27.512-.48 5.16-2.952 16.592-14.72 29.168-17.712 18.928-57.232 41.04-145.208 46.2v-70.88h112v-8c0-81.112-63.912-147.392-144-151.592v-9.984l130.136-28.92c8.16-1.816 13.864-8.92 13.864-17.288A17.649 17.649 0 0 0 385.865 24.2L240.657 0v97.848c-80.088 4.208-144 70.488-144 151.6v8h112v70.88c-87.984-5.16-127.496-27.272-145.208-46.2-11.768-12.576-14.232-24.008-14.72-29.168 9.48-5.56 15.928-15.752 15.928-27.512 0-17.648-14.352-32-32-32s-32 14.352-32 32c0 11.12 5.72 20.92 14.36 26.656-8.064 21.752-31.904 99.152 9.544 162.28 36.184 55.112 111.584 83.064 224.096 83.064v-16c-106.72 0-177.6-25.488-210.664-75.76-37.344-56.784-14.616-129.728-7.76-148.48.816.056 1.592.24 2.424.24.192 0 .376-.056.568-.056 1.312 8.232 5.416 21.304 17.808 34.872 22.152 24.264 74.424 53.184 197.624 53.184s175.472-28.92 197.624-53.184c12.392-13.568 16.496-26.64 17.808-34.872.192 0 .376.056.568.056.944 0 1.832-.2 2.752-.28 6.848 18.704 29.624 91.704-7.744 148.52-33.064 50.272-103.944 75.76-210.672 75.76v16c112.512 0 187.912-27.952 224.096-83.064 41.552-63.28 17.496-140.912 9.488-162.448zm-113.92-66.128c8.944 16.8 14.6 35.608 15.768 55.64h-15.768v-55.64zm-112-166.912l126.576 21.096c.824.128 1.424.84 1.424 1.672 0 .808-.544 1.488-1.336 1.664L256.657 71.472V18.896zm-128 222.552h-15.768c1.168-20.032 6.824-38.84 15.768-55.64v55.64zm-96 0c-8.824 0-16-7.176-16-16s7.176-16 16-16 16 7.176 16 16-7.176 16-16 16zm272-115.768c5.528 2.512 10.896 5.32 16 8.52v75.248h16v-63.424c5.76 4.904 11.128 10.248 16 16.04v79.384h-16v-16h-16v16h-16V125.68zm-64-11.84c2.664-.16 5.304-.392 8-.392s5.336.232 8 .392v127.608h-16V113.84zm-80 127.608h-16v-79.384c4.872-5.792 10.24-11.136 16-16.04v95.424zm32-80v80h-16V134.2c5.104-3.2 10.472-6.008 16-8.52v19.768h16v-25.952c5.208-1.608 10.552-2.856 16-3.832v125.784h-16v-80h-16zm80 167.576c-7.688.256-15.624.424-24 .424s-16.312-.168-24-.424v-71.576h48v71.576zm0-213.36c5.448.976 10.792 2.224 16 3.832v121.952h-16V115.664zm192 125.784c-8.824 0-16-7.176-16-16s7.176-16 16-16 16 7.176 16 16-7.176 16-16 16z"/><path d="M304.657 413.448c0-30.88-25.12-56-56-56s-56 25.12-56 56 25.12 56 56 56 56-25.12 56-56zm-56 40c-22.056 0-40-17.944-40-40s17.944-40 40-40 40 17.944 40 40-17.944 40-40 40z"/><path d="M248.657 389.448c-13.232 0-24 10.768-24 24s10.768 24 24 24 24-10.768 24-24-10.768-24-24-24zm0 32c-4.408 0-8-3.592-8-8 0-4.408 3.592-8 8-8s8 3.592 8 8c0 4.408-3.592 8-8 8zm-184-28c0 30.88 25.12 56 56 56s56-25.12 56-56-25.12-56-56-56-56 25.12-56 56zm96 0c0 22.056-17.944 40-40 40s-40-17.944-40-40 17.944-40 40-40 40 17.944 40 40z"/><path d="M96.657 393.448c0 13.232 10.768 24 24 24s24-10.768 24-24-10.768-24-24-24-24 10.768-24 24zm32 0c0 4.408-3.592 8-8 8s-8-3.592-8-8c0-4.408 3.592-8 8-8s8 3.592 8 8zm304 0c0-30.88-25.12-56-56-56s-56 25.12-56 56 25.12 56 56 56 56-25.12 56-56zm-96 0c0-22.056 17.944-40 40-40s40 17.944 40 40-17.944 40-40 40-40-17.944-40-40z"/><path d="M400.657 393.448c0-13.232-10.768-24-24-24s-24 10.768-24 24 10.768 24 24 24 24-10.768 24-24zm-32 0c0-4.408 3.592-8 8-8 4.408 0 8 3.592 8 8 0 4.408-3.592 8-8 8-4.408 0-8-3.592-8-8z"/></svg>