<svg xmlns="http://www.w3.org/2000/svg" viewBox="0 0 447.795 447.795"><path d="M443.795 278.25h-19.804v-13.003a4 4 0 0 0-4-4h-24.337v-13.002a4 4 0 0 0-4-4h-20.936v-13.003a4 4 0 0 0-4-4h-18.67V214.24a4 4 0 0 0-4-4h-13.003v-13.003a4 4 0 0 0-4-4h-18.67v-13.002a4 4 0 0 0-4-4h-13.002v-13.002a4 4 0 0 0-4-4h-20.37V123.56a4 4 0 0 0-4-4h-78.211a4 4 0 0 0-4 4v35.673h-20.37a4 4 0 0 0-4 4v13.002h-13.003a4 4 0 0 0-4 4v13.002h-18.67a4 4 0 0 0-4 4v13.003h-13.002a4 4 0 0 0-4 4v13.002h-18.67a4 4 0 0 0-4 4v13.003H56.141a4 4 0 0 0-4 4v13.002H27.803a4 4 0 0 0-4 4v13.003H4a4 4 0 0 0-4 4v41.984a4 4 0 0 0 4 4h439.795a4 4 0 0 0 4-4V282.25a4 4 0 0 0-4-4zm-27.804 0H276.932l-.707-9.003h139.766v9.003zM187.598 167.233h9.833l-6.7 153.001h-15.145l12.012-153.001zm54.764 0l.346 7.904h-37.614l.346-7.904h36.922zm5.845 133.687h-48.622l.568-12.964h47.488l.566 12.964zm-44.382-96.818h40.149l.567 12.964h-41.283l.567-12.964zm-.918 20.963h41.984l.567 12.963H202.34l.567-12.963zm40.717-28.963h-39.449l.568-12.964h38.314l.567 12.964zm3.666 83.854h-46.787l.568-12.964h45.653l.566 12.964zm-45.869-20.964l.568-12.964h43.818l.567 12.964h-44.953zm-2.186 49.928h49.322l.495 11.314H198.74l.495-11.314zm51.134-141.687h9.824l12.012 153.001H257.06l-6.691-153.001zm137.285 94.014H275.597l-.707-9.002h112.764v9.002zm-24.936-17.002h-88.455l-.707-9.003h89.162v9.003zm-22.67-17.003h-67.12l-.707-9.002h67.827v9.002zm-17.003-17.002h-51.452l-.707-9.003h52.159v9.003zm-22.67-17.003h-30.117l-.707-9.002h30.824v9.002zm-17.002-17.002h-14.45l-.707-9.002h15.156v9.002zm-94.581-48.674h70.211v31.673h-31.105v-15.837a4 4 0 0 0-8 0v15.837h-31.105v-31.673zm-24.37 39.672h15.153l-.707 9.002h-14.446v-9.002zm-17.003 17.002h30.821l-.707 9.002h-30.114v-9.002zm-22.67 17.002h52.156l-.707 9.003h-51.449v-9.003zm-17.002 17.003h67.823l-.707 9.002h-67.116v-9.002zm-22.67 17.002h89.158l-.707 9.003H85.077v-9.003zm-24.936 17.003H172.9l-.707 9.002H60.141v-9.002zm-28.338 17.002h139.763l-.707 9.003H31.803v-9.003zM8 286.25h162.231l-2.668 33.984H8V286.25zm431.795 33.984H280.228l-2.668-33.984h162.235v33.984z"/></svg>