<svg xmlns="http://www.w3.org/2000/svg" viewBox="0 0 406.856 406.856"><path d="M39.596 239.621c-8.143 0-14.768 8.246-14.768 18.382 0 10.136 6.624 18.382 14.768 18.382 8.143 0 14.768-8.246 14.768-18.382-.001-10.136-6.625-18.382-14.768-18.382zm0 28.763c-3.668 0-6.768-4.754-6.768-10.382 0-5.627 3.099-10.382 6.768-10.382 3.668 0 6.768 4.754 6.768 10.382-.001 5.628-3.1 10.382-6.768 10.382zm309.747-33.842a4 4 0 0 0 4 4h8.145v11.555a4 4 0 0 0 8 0v-11.555h8.145a4 4 0 0 0 0-8h-8.145v-11.555a4 4 0 0 0-8 0v11.555h-8.145a4 4 0 0 0-4 4z"/><path d="M404.131 93.123l-99.714-33.551a4.006 4.006 0 0 0-2.551 0l-98.439 33.122-98.438-33.122a4.006 4.006 0 0 0-2.551 0L2.725 93.123A4 4 0 0 0 0 96.914v246.579a3.998 3.998 0 0 0 5.276 3.791l98.438-33.122 98.438 33.122a4.006 4.006 0 0 0 2.551 0l98.439-33.122 98.439 33.122a3.998 3.998 0 0 0 5.276-3.791V96.914a4.002 4.002 0 0 0-2.726-3.791zm-196.703 6.665l91.714-30.859v98.312L207.428 251.9V99.788zm-99.714-30.859l91.714 30.859v152.64l-91.714-77.375V68.929zm0 116.591l91.714 77.375v75.031l-91.714-30.859V185.52zm99.714 77.268l91.714-84.659v128.939l-91.714 30.859v-75.139zM8 99.788l91.714-30.859v105.877L51.54 228.647a4 4 0 1 0 5.962 5.334l42.212-47.178v120.264L8 337.926V99.788zm390.856 238.138l-91.714-30.859V178.969l40.753 42.645a4.001 4.001 0 0 0 5.785-5.528l-46.537-48.698V68.929l91.714 30.859v238.138z"/></svg>