<svg xmlns="http://www.w3.org/2000/svg" viewBox="0 0 375.22 375.22"><path d="M4 291.431l367.22-.003a4 4 0 0 0 2.828-6.828L229.939 140.49a4.002 4.002 0 0 0-5.658 0l-64.172 64.173-36.67-36.67a3.997 3.997 0 0 0-5.656 0L1.172 284.603a3.997 3.997 0 0 0-.867 4.358A3.998 3.998 0 0 0 4 291.431zm234.874-8.003l-22.03-22.03h122.689l22.031 22.03h-122.69zm-80.951-69.638H83.298l14.66-14.66h45.305l14.66 14.66zm8 8l14.67 14.67H60.628l14.67-14.67h90.625zm165.61 31.608H208.844l-20.01-20.01h122.689l20.01 20.01zm-142.94-8.938l14.67 14.67H37.958l14.67-14.67h135.965zm86.909-47.092h-96.785l20.004-20.004h56.777l20.004 20.004zm-48.392-48.392l20.388 20.388h-40.776l20.388-20.388zm-56.393 56.392h112.785l20.021 20.02H180.834l-15.069-15.069 4.952-4.951zm-50.107-28.89l14.652 14.652h-29.305l14.653-14.652zM29.958 267.13h181.305l16.298 16.298H83v.003H13.657l16.301-16.301zM73.6 145.789c17.094 0 31-13.906 31-31s-13.906-31-31-31-31 13.906-31 31c0 17.093 13.906 31 31 31zm0-54c12.683 0 23 10.317 23 23s-10.317 23-23 23-23-10.317-23-23 10.317-23 23-23z"/></svg>