<svg xmlns="http://www.w3.org/2000/svg" viewBox="0 0 373 373"><path d="M207.503 82.517V67.464c10.06-6.915 16-18.137 16-30.464 0-20.402-16.598-37-37-37s-37 16.598-37 37c0 12.327 5.94 23.548 16 30.464v15.052C94.911 92.728 40.5 153.624 40.5 227c0 80.505 65.495 146 146 146s146-65.495 146-146c0-73.373-54.409-134.269-124.997-144.483zm-50-45.517c0-15.991 13.009-29 29-29 15.99 0 29 13.009 29 29 0 8.315-3.449 15.988-9.437 21.422C203.017 50.582 195.408 45 186.503 45c-8.906 0-16.514 5.581-19.563 13.422-5.988-5.434-9.437-13.108-9.437-21.422zm16 29c0-7.168 5.831-13 13-13 7.168 0 13 5.832 13 13v15.586c-4.286-.381-8.62-.586-13.003-.586-4.381 0-8.714.205-12.997.585V66zM186.5 365c-76.093 0-138-61.907-138-138s61.907-138 138-138c76.094 0 138 61.907 138 138s-61.906 138-138 138z"/><path d="M186.5 113.956c-62.332 0-113.044 50.711-113.044 113.044 0 62.332 50.712 113.044 113.044 113.044 62.333 0 113.044-50.711 113.044-113.044S248.833 113.956 186.5 113.956zm4.003 218.004V302.5a4 4 0 0 0-8 0v29.46C127.755 329.901 83.601 285.747 81.54 231h29.463a4 4 0 0 0 0-8H81.54c2.061-54.748 46.215-98.901 100.963-100.961V151.5a4 4 0 0 0 8 0v-29.46C245.248 124.102 289.4 168.255 291.46 223h-29.457a4 4 0 0 0 0 8h29.457c-2.061 54.746-46.212 98.898-100.957 100.96z"/><path d="M226.201 152.487a87.513 87.513 0 0 1 3.194 1.796 3.997 3.997 0 0 0 5.478-1.408 4 4 0 0 0-1.408-5.479 92.54 92.54 0 0 0-3.493-1.964 4 4 0 1 0-3.771 7.055zm45.782 55.875a4 4 0 0 0 3.87-5.023c-3.948-14.949-11.7-28.8-22.42-40.056a4 4 0 0 0-5.793 5.517c9.792 10.283 16.873 22.933 20.479 36.583a4.002 4.002 0 0 0 3.864 2.979zm-64.049-.906a4.001 4.001 0 0 0-1.891-1.89l-68.102-32.455a4 4 0 0 0-5.331 5.331l32.455 68.102a4 4 0 0 0 1.89 1.89l68.102 32.455c.55.262 1.137.389 1.72.389h.032a3.999 3.999 0 0 0 3.417-6.061l-32.292-67.761zm-63.247-22.269l52.805 25.165-27.64 27.639-25.165-52.804zm30.821 58.462l27.64-27.64 25.165 52.804-52.805-25.164z"/></svg>