<svg xmlns="http://www.w3.org/2000/svg" viewBox="0 0 369 369"><path d="M362.25 288.767H358V154.462c6.333-1.756 11-7.557 11-14.442 0-8.271-6.728-15-15-15s-15 6.729-15 15c0 6.885 4.667 12.686 11 14.442v12.771H112.316a70.45 70.45 0 0 0 17.06-12.572 4.001 4.001 0 0 0 0-5.656c-13.267-13.267-30.904-20.573-49.666-20.573-18.762 0-36.399 7.307-49.666 20.573a4.001 4.001 0 0 0 0 5.656 70.417 70.417 0 0 0 17.06 12.572H19v-65.558c6.333-1.756 11-7.557 11-14.442 0-8.271-6.729-15-15-15s-15 6.729-15 15c0 6.885 4.667 12.686 11 14.442v187.092H6.75a4 4 0 0 0 0 8h16.5a4 4 0 0 0 0-8H19v-24.534h331v24.534h-4.25a4 4 0 0 0 0 8h16.5a4 4 0 0 0 0-8zM347 140.02c0-3.859 3.141-7 7-7s7 3.141 7 7-3.141 7-7 7-7-3.141-7-7zm3 98.213H122.75v-63h54.905l66.269 33.585a3.998 3.998 0 0 0 3.618 0l66.269-33.585H350v63zm-154.645-63h100.758l-50.379 25.532-50.379-25.532zm-156.636-23.4c11.35-9.962 25.752-15.401 40.991-15.401s29.642 5.439 40.991 15.401c-11.35 9.96-25.753 15.4-40.991 15.4s-29.642-5.441-40.991-15.4zm76.031 23.4v49H19v-49h95.75zM8 87.233c0-3.859 3.141-7 7-7s7 3.141 7 7-3.141 7-7 7-7-3.141-7-7zm11 169v-24h95.75v10a4 4 0 0 0 4 4H350v10H19z"/></svg>