<svg xmlns="http://www.w3.org/2000/svg" viewBox="0 0 306.525 306.525"><path d="M247.296 106.528c-1.291-10.146-7.14-18.748-15.316-23.854l11.085-1.379c7.834-1.017 14.698-5.101 19.328-11.502 4.629-6.401 6.36-14.199 4.872-21.959l-5.108-26.632C259.801 8.917 249.024 0 236.532 0a26.31 26.31 0 0 0-5.046.491L73.913 31.367c-12.657 2.48-23.11 11.096-27.964 23.046l-6.817 16.785c-.15.369-.244.758-.279 1.155-.699 7.966 1.887 15.596 7.28 21.483 5.332 5.82 12.888 9.158 20.731 9.158.389 0 .781-.021 1.172-.037-11.275 5.075-18.79 15.995-19.385 28.508l-7.028 147.898a3.986 3.986 0 0 0-.004.19c0 12.767 10.387 23.153 23.153 23.153h30.466c5.804 0 11.193-2.325 15.174-6.548 3.982-4.223 5.987-9.739 5.647-15.501l-8.751-172.382a14.208 14.208 0 0 0-4.354-9.551l66.49-8.271c-10.645 6.637-17.488 18.446-17.488 31.438v148.765c0 19.777 16.09 35.868 35.868 35.868h41.14a38.579 38.579 0 0 0 28.942-13.076 38.58 38.58 0 0 0 9.317-30.361l-19.927-156.559zM52.032 88.434c-3.731-4.072-5.584-9.311-5.252-14.807l6.581-16.204a29.996 29.996 0 0 1 22.09-18.204L233.024 8.343A18.215 18.215 0 0 1 236.532 8c8.661 0 16.134 6.186 17.768 14.709l5.108 26.632c1.068 5.57-.174 11.169-3.498 15.764-3.323 4.595-8.25 7.527-13.854 8.254L69.409 94.836c-6.481.808-12.983-1.606-17.377-6.402zm56.039 192.662a12.736 12.736 0 0 1-3.48 9.575 12.735 12.735 0 0 1-9.354 4.036H64.771c-8.326 0-15.104-6.749-15.153-15.064l7.023-147.799a24.92 24.92 0 0 1 16.549-22.351l17.797-6.368a6.25 6.25 0 0 1 2.111-.372 6.233 6.233 0 0 1 6.22 5.929l8.753 172.414zm143.831 7.066a30.578 30.578 0 0 1-22.939 10.363h-41.14c-15.366 0-27.868-12.502-27.868-27.868V121.893c0-13.022 8.77-24.529 21.326-27.983l26.642-7.326a25.127 25.127 0 0 1 6.664-.906c12.537 0 23.187 9.399 24.773 21.861l19.926 156.559a30.575 30.575 0 0 1-7.384 24.064z"/></svg>