<svg xmlns="http://www.w3.org/2000/svg" viewBox="0 0 379.85 379.85"><path d="M364.822 107.182h-22.707V73.998a4 4 0 0 0-4-4H159.852a4 4 0 0 0-4 4v109.449H32.369a4 4 0 0 0-4 4v13.503H14.445C6.48 200.949 0 207.429 0 215.394v.392c0 28.741 22.867 52.228 51.362 53.256a95.056 95.056 0 0 0 26.048 21.091v15.72a4 4 0 0 0 4 4h83.466a4 4 0 0 0 4-4v-15.72a95.383 95.383 0 0 0 18.586-13.384 94.327 94.327 0 0 0 6.667 5.37v23.729a4 4 0 0 0 4 4h101.709a4 4 0 0 0 4-4v-23.725c20.19-14.747 33.488-36.873 37.209-61.225 23.313-8.564 38.803-30.621 38.803-55.667v-43.019c0-8.288-6.741-15.03-15.028-15.03zM8 215.785v-.392a6.452 6.452 0 0 1 6.445-6.445H28.4c.353 18.689 6.127 36.404 16.211 51.296C23.776 256.177 8 237.793 8 215.785zm155.864 67.952h-17.686a4 4 0 0 0 0 8h14.698v10.116H85.41v-10.116h4.992a4 4 0 0 0 0-8h-7.98c-28.428-15.136-46.053-44.395-46.053-76.604v-15.686h173.547v15.686c.001 32.209-17.625 61.468-46.052 76.604zm170.251-76.861c0 27.418-13.278 53.186-35.571 69.191h-16.751a4 4 0 0 0 0 8h14.045v17.781h-93.709v-17.781h14.044a4 4 0 0 0 0-8H199.43a86.684 86.684 0 0 1-6.309-4.996c15.724-17.165 24.795-39.791 24.795-63.938v-19.686a4 4 0 0 0-4-4h-50.065V77.998h170.263v128.878zm37.735-41.646c0 20.318-11.781 38.363-29.876 46.642.089-1.659.141-3.324.141-4.996v-91.693h22.707a7.036 7.036 0 0 1 7.028 7.028v43.019z"/><path d="M317.883 205.96a4 4 0 0 0 4-4v-71.087a4 4 0 0 0-8 0v71.087a4 4 0 0 0 4 4zm0-91.868a4 4 0 0 0 4-4V96.968a4 4 0 0 0-8 0v13.124a4 4 0 0 0 4 4zm-121.396 86.13a4 4 0 0 0-4 4v13.124a4 4 0 0 0 8 0v-13.124a4 4 0 0 0-4-4z"/></svg>