<svg xmlns="http://www.w3.org/2000/svg" viewBox="0 0 414.796 414.796"><path d="M143.408 0a4 4 0 0 0-4 4v103.362h-13.267V4a4 4 0 0 0-8 0v103.362h-12.689V4a4 4 0 0 0-8 0v103.362H84.185V4a4 4 0 0 0-8 0v108.816c0 18.283 13.852 33.386 31.611 35.381v141.391a21.262 21.262 0 0 0-17.2 18.731l-7.752 74.349a29.15 29.15 0 0 0 7.328 22.505 29.155 29.155 0 0 0 21.624 9.622 29.154 29.154 0 0 0 21.624-9.622 29.158 29.158 0 0 0 7.328-22.505l-7.752-74.349a21.263 21.263 0 0 0-17.2-18.731v-141.39c17.759-1.995 31.612-17.098 31.612-35.381V4a4 4 0 0 0-4-4zm-15.931 399.818a21.143 21.143 0 0 1-15.681 6.978 21.14 21.14 0 0 1-15.681-6.978 21.143 21.143 0 0 1-5.375-12.732h42.112a21.143 21.143 0 0 1-5.375 12.732zm-2.438-90.669l7.292 69.937h-41.07l7.292-69.937a13.284 13.284 0 0 1 13.243-11.934c6.84 0 12.534 5.131 13.243 11.934zm-13.243-168.721c-14.368 0-26.207-11.029-27.496-25.066h54.991c-1.288 14.037-13.127 25.066-27.495 25.066zm226.815-56.74c0-21.979-5.003-42.704-14.087-58.355C315.042 8.997 302.199 0 288.359 0s-26.683 8.997-36.165 25.332c-9.084 15.651-14.087 36.376-14.087 58.355 0 39.39 16.797 62.681 46.252 64.597v141.304a21.262 21.262 0 0 0-17.2 18.731l-7.752 74.349a29.153 29.153 0 0 0 7.328 22.505 29.155 29.155 0 0 0 21.624 9.622 29.152 29.152 0 0 0 21.624-9.622 29.158 29.158 0 0 0 7.328-22.505l-7.753-74.349a21.259 21.259 0 0 0-17.2-18.731V148.284c29.456-1.915 46.253-25.207 46.253-64.596zm-92.504 0c0-20.591 4.619-39.889 13.006-54.34C267.103 15.582 277.49 8 288.359 8s21.255 7.582 29.246 21.348c8.387 14.451 13.006 33.749 13.006 54.34 0 36.59-15.005 56.741-42.252 56.741-27.247-.001-42.252-20.152-42.252-56.741zm57.933 316.13a21.14 21.14 0 0 1-15.682 6.978 21.14 21.14 0 0 1-15.681-6.978 21.143 21.143 0 0 1-5.375-12.732h42.112a21.13 21.13 0 0 1-5.374 12.732zm-2.438-90.669l7.292 69.937h-41.07l7.292-69.937a13.283 13.283 0 0 1 13.243-11.934c6.84 0 12.534 5.131 13.243 11.934z"/></svg>