<svg xmlns="http://www.w3.org/2000/svg" viewBox="0 0 445.709 445.709"><path d="M445.508 348.426l-29.547-89.574a3.99 3.99 0 0 0-4.295-2.716l-11.923 1.489-22.762-47.275a3.996 3.996 0 0 0-5.631-1.712l-30.958 18.211-25.366 7.247a3.999 3.999 0 0 0-2.287 1.716l-15.388 24.459-4.149-1.509-21.465-46.506a4 4 0 0 0-3.136-2.292l-12.508-1.565-23.103-53.311a4 4 0 0 0-3.63-2.409h-.04a4 4 0 0 0-3.638 2.337l-28.964 63.357-13.513 6.756a4.003 4.003 0 0 0-1.962 2.189l-10.167 27.453-27.71-25.322a4 4 0 0 0-4.354-.688l-15.841 7.2-11.846-52.459a4 4 0 0 0-7.122-1.492L55.875 247.6l-4.224-6.335a4.009 4.009 0 0 0-3.713-1.763 4.003 4.003 0 0 0-3.307 2.44L.309 348.138A4 4 0 0 0 4 353.679h343.511l.014.001.009-.001h94.176a4 4 0 0 0 3.798-5.253zM343.079 234.401c.325-.093.638-.227.93-.398l27.65-16.266 14.366 29.839-38.565 8.069-12.934-18.801 8.553-2.443zm-54.178 31.309l8.705 3.166.016.006 10.025 3.646 33.633 73.151H117.776l34.385-64.677 13.924 1.547a3.992 3.992 0 0 0 4.192-2.586l6.257-16.895.001-.002 4.391-11.857 8.441 9.678a4 4 0 0 0 2.879 1.369 4.058 4.058 0 0 0 2.964-1.17l15.551-15.552 7.333 24.934a4 4 0 0 0 7.166 1.09l15.862-23.793 22.413 20.813a4 4 0 0 0 6.346-1.24l9.283-19.893 7.47 16.184a4.012 4.012 0 0 0 2.267 2.081zm-87.342-40.812a4.01 4.01 0 0 0 1.849-1.915l25.815-56.469 20.438 47.162a4 4 0 0 0 3.174 2.378l12.569 1.572 9.373 20.307-9.821 21.045-21.832-20.273a4.001 4.001 0 0 0-6.049.713l-13.719 20.578-6.818-23.183a4 4 0 0 0-6.666-1.699l-17.288 17.288-8.491-9.735 4.106-11.088 13.36-6.681zm-96.107-31.095l10.647 47.15-13.961 23.268-17.066-7.758a3.999 3.999 0 0 0-4.629.966l-12.561 13.956-7.546-16.351 45.116-61.231zM49.14 251.915l3.072 4.608 10.95 23.726a3.996 3.996 0 0 0 3.632 2.324 4.004 4.004 0 0 0 2.974-1.324l14.661-16.29 17.648 8.021c1.852.842 4.04.16 5.085-1.584l15.981-26.634 16.778-7.627 28.158 25.732-4.217 11.386-13.516-1.502a3.984 3.984 0 0 0-3.974 2.098l-37.657 70.83H10.004l39.136-93.764zm300.945 93.764l-35.868-78.011a3.998 3.998 0 0 0-2.267-2.088l-6.909-2.513 13.653-21.7 7.717-2.205 15.968 23.21a3.996 3.996 0 0 0 4.114 1.647L389.6 255l4.182 8.686a3.98 3.98 0 0 0 4.101 2.233l11.511-1.438 26.784 81.197h-86.093zm-39.46-185.65c18.748 0 34-15.252 34-34 0-18.748-15.252-34-34-34-18.748 0-34 15.252-34 34 0 18.748 15.252 34 34 34zm0-60c14.337 0 26 11.663 26 26s-11.663 26-26 26-26-11.663-26-26 11.663-26 26-26z"/></svg>