<svg xmlns="http://www.w3.org/2000/svg" viewBox="0 0 391.3 391.3"><path d="M361.162 259.702l-116.635-67.105V75.996l4.294 2.471a3.999 3.999 0 0 0 5.462-1.472 4 4 0 0 0-1.472-5.462L199.65 40.947V20h9.5a4 4 0 0 0 0-8h-9.5V4a4 4 0 0 0-8 0v8h-9.5a4 4 0 0 0 0 8h9.5v20.948l-53.161 30.586a4 4 0 0 0 3.989 6.934l4.299-2.473v116.601L30.139 259.702a4 4 0 0 0 3.989 6.934l48.011-27.622V387.3a4 4 0 0 0 4 4h219.022a4 4 0 0 0 4-4V239.014l48.011 27.622a3.999 3.999 0 0 0 5.462-1.472 4.001 4.001 0 0 0-1.472-5.462zM191.65 383.3h-23.519v-68.617l23.519-19.242V383.3zm8-87.86l23.518 19.242V383.3H199.65v-87.86zm30.052 14.251l-31.519-25.787a4.002 4.002 0 0 0-5.066 0l-31.519 25.787a3.999 3.999 0 0 0-1.467 3.096V356H90.139V236.84h84.511V265a4 4 0 0 0 4 4h34a4 4 0 0 0 4-4v-28.16h84.511V356h-69.992v-43.213c0-1.2-.538-2.336-1.467-3.096zM195.65 196c-11.58 0-21 9.421-21 21v11.84H99.822l95.828-55.134 95.827 55.134H216.65V217c0-11.579-9.421-21-21-21zm13 21v44h-26v-44c0-7.168 5.831-13 13-13 7.168 0 13 5.832 13 13zm-26.003-80v-18c0-7.168 5.832-13 13-13s13 5.832 13 13v18h-26zm13-39c-11.579 0-21 9.421-21 21v18h-19.87V91h81.75v46h-19.88v-18c0-11.579-9.421-21-21-21zm40.88-15h-81.75v-9.25h81.75V83zM195.65 47.876l31.067 17.874h-62.135l31.068-17.874zM154.777 145h81.75v42.994l-38.882-22.37a3.998 3.998 0 0 0-3.99 0l-38.878 22.368V145zM90.139 364h69.992v19.3H90.139V364zm141.03 19.3V364h69.992v19.3h-69.992z"/><path d="M251.15 279h9.5v23.261a4 4 0 0 0 8 0V279h9.5a4 4 0 0 0 0-8h-9.5v-8a4 4 0 0 0-8 0v8h-9.5a4 4 0 0 0 0 8zm-111-8h-9.5v-8a4 4 0 0 0-8 0v8h-9.5a4 4 0 0 0 0 8h9.5v23.261a4 4 0 0 0 8 0V279h9.5a4 4 0 0 0 0-8z"/></svg>