<svg xmlns="http://www.w3.org/2000/svg" viewBox="0 0 404.848 404.848"><path d="M51.278 170.279a5.91 5.91 0 0 0-5.91 5.909v20.236h11.82v-20.236a5.91 5.91 0 0 0-5.91-5.909zm-22.565 22.564a5.91 5.91 0 0 0-5.91 5.909v20.236h11.819v-20.236a5.908 5.908 0 0 0-5.909-5.909zm76.827 29.19a5.91 5.91 0 0 0-11.82 0v20.236h11.819v-20.236zm205.587 0a5.91 5.91 0 0 0-11.82 0v20.236h11.819v-20.236zM208.334 206.99a5.91 5.91 0 0 0-11.82 0v20.236h11.819V206.99zm0-39.398a5.91 5.91 0 0 0-11.82 0v20.236h11.819v-20.236z"/><path d="M400.848 118.553a4 4 0 0 0-4 4v6.028h-10.087v-6.028a4 4 0 0 0-8 0v6.028h-10.088v-6.028a4 4 0 0 0-8 0v6.028h-10.087v-6.028a4 4 0 0 0-8 0v6.028h-10.088v-6.028a4 4 0 0 0-8 0v29.369c0 1.813 1.213 3.325 2.865 3.816v35.074h-9.191v-7.461a4 4 0 0 0-8 0v7.461h-8.477v-7.461a4 4 0 0 0-8 0v7.461h-10.624v-29.966h1.73a4 4 0 0 0 4-4v-31.851a4 4 0 0 0-8 0v6.361h-11.818v-6.361a4 4 0 0 0-8 0v6.361h-11.818v-6.361a4 4 0 0 0-8 0v6.361h-11.818v-6.361a4 4 0 0 0-8 0v16.39h-7.233v-7.461a4 4 0 0 0-8 0v7.461h-7.379v-7.461a4 4 0 0 0-8 0v7.461h-7.233v-16.39a4 4 0 0 0-8 0v6.361h-11.818v-6.361a4 4 0 0 0-8 0v6.361h-11.819v-6.361a4 4 0 0 0-8 0v6.361h-11.818v-6.361a4 4 0 0 0-8 0v31.851a4 4 0 0 0 4 4h1.73v29.966h-10.624v-7.461a4 4 0 0 0-8 0v7.461h-8.476v-7.461a4 4 0 0 0-8 0v7.461h-9.192v-35.074c1.652-.491 2.865-2.004 2.865-3.816v-29.369a4 4 0 0 0-8 0v6.028H62.262v-6.028a4 4 0 0 0-8 0v6.028H44.175v-6.028a4 4 0 0 0-8 0v6.028H26.087v-6.028a4 4 0 0 0-8 0v6.028H8v-6.028a4 4 0 0 0-8 0v29.369c0 1.813 1.213 3.325 2.865 3.816v126.557a4 4 0 0 0 4 4h391.118a4 4 0 0 0 4-4V155.739c1.652-.491 2.865-2.004 2.865-3.816v-29.369a4 4 0 0 0-4-4.001zm-4 29.369h-64.35v-11.341h64.35v11.341zm-69.484 50.891v79.482h-44.292v-79.482h44.292zm-46.562-45.966h-51.455v-13.489h51.455v13.489zm-59.455-3.461v7.461a4 4 0 0 0 4 4h1.73v117.448h-9.551v-25.781c0-7.903-6.43-14.334-14.333-14.334h-1.54c-7.903 0-14.333 6.431-14.333 14.334v25.781h-9.55V160.847h1.73a4 4 0 0 0 4-4v-7.461h37.847zm-45.846 3.461h-51.456v-13.489h51.456v13.489zm-53.725 45.966v79.482H77.484v-79.482h44.292zM72.35 147.922H8v-11.341h64.35v11.341zm-61.485 8h58.619v122.373H10.865V155.922zm118.911 4.925h6.088v1.205a4 4 0 0 0 8 0v-1.205h11.819v1.205a4 4 0 0 0 8 0v-1.205h6.088v117.448h-39.995V160.847zm65.545 117.448v-25.781a6.341 6.341 0 0 1 6.333-6.334h1.54a6.341 6.341 0 0 1 6.333 6.334v25.781h-14.206zm39.757-117.448h6.088v1.205a4 4 0 0 0 8 0v-1.205h11.818v1.205a4 4 0 0 0 8 0v-1.205h6.088v117.448h-39.994V160.847zm158.905 117.448h-58.619V155.922h58.619v122.373z"/><path d="M359.48 176.188a5.91 5.91 0 1 0-11.82 0v20.236h11.819v-20.236zm22.564 22.564a5.91 5.91 0 1 0-11.82 0v20.236h11.82v-20.236z"/></svg>