<svg xmlns="http://www.w3.org/2000/svg" viewBox="0 0 421.239 421.239"><path d="M19.593 125.57l135.922-20.389a4 4 0 0 0 3.406-3.956v-11.65a4 4 0 0 0-3.406-3.956L19.593 65.231a4 4 0 0 0-1.188 7.912L150.921 93.02v4.762L18.406 117.658a4 4 0 0 0 1.187 7.912zm383.24-7.912L270.317 97.781V93.02l132.517-19.876a4 4 0 1 0-1.188-7.912L265.723 85.619a4 4 0 0 0-3.406 3.956v11.65a4 4 0 0 0 3.406 3.956l135.923 20.389a4.002 4.002 0 0 0 1.187-7.912z"/><path d="M396.388 409.373c-5.513 5.163-14.152 5.165-19.665 0-8.582-8.035-22.022-8.035-30.603 0-5.515 5.165-14.152 5.163-19.665 0-8.581-8.036-22.023-8.034-30.603 0-5.514 5.163-14.151 5.165-19.665 0a22.193 22.193 0 0 0-9.676-5.297l-15.275-257.241h6.894a4 4 0 0 0 4-4v-24.272a4 4 0 0 0-4-4h-6.035V75.961h11.246a4 4 0 0 0 4-4c0-29.452-23.494-53.505-52.723-54.44V4a4 4 0 0 0-8 0v13.521c-29.229.935-52.724 24.988-52.724 54.44a4 4 0 0 0 4 4h11.246v38.603h-6.035a4 4 0 0 0-4 4v24.272a4 4 0 0 0 4 4h6.901l-15.275 257.24a22.208 22.208 0 0 0-9.683 5.298c-5.514 5.164-14.15 5.164-19.664 0-8.58-8.035-22.022-8.035-30.603 0-5.513 5.163-14.152 5.165-19.665 0-8.582-8.035-22.023-8.035-30.603 0-5.515 5.165-14.152 5.163-19.665 0a3.997 3.997 0 0 0-5.654.186 4 4 0 0 0 .186 5.654c8.581 8.035 22.023 8.035 30.603 0 5.514-5.164 14.151-5.164 19.665 0 8.579 8.035 22.021 8.033 30.603 0 5.514-5.164 14.151-5.164 19.665 0 8.579 8.035 22.022 8.033 30.602 0 5.513-5.163 14.152-5.165 19.665 0 8.58 8.035 22.023 8.035 30.603 0 5.513-5.163 14.152-5.165 19.665 0 8.58 8.035 22.022 8.035 30.602 0 5.515-5.165 14.152-5.163 19.665 0 8.579 8.035 22.021 8.035 30.602 0 5.515-5.165 14.152-5.163 19.665 0 4.29 4.018 9.796 6.026 15.301 6.026 5.506 0 11.012-2.009 15.302-6.026 5.514-5.164 14.151-5.164 19.665 0 8.579 8.035 22.021 8.033 30.603 0a4 4 0 0 0-5.468-5.841zM206.62 76.238v38.325h-13.845V76.238h13.845zm8 0h13.845v38.325H214.62V76.238zm21.844 0h7.632v38.325h-7.632V76.238zm-28.083-50.762h4.476c24.285 0 44.28 18.718 46.314 42.485h-97.104c2.034-23.768 22.029-42.485 46.314-42.485zm-31.239 50.762h7.633v38.325h-7.633V76.238zm-10.035 46.325h87.024v16.272h-87.024v-16.272zm9.987 39.902l68.055 16.812 1.94 32.676-71.879-17.769 1.884-31.719zm.482-8.12l.446-7.506h65.201l1.43 24.075-67.077-16.569zm-2.847 47.96l72.857 18.011 2.642 44.498-78.066-19.29 2.567-43.219zm75.996 70.871l1.94 32.678-82.869-20.478 1.884-31.73 79.045 19.53zm2.437 41.041l2.642 44.497-89.056-22.009 2.566-43.209 83.848 20.721zm3.139 52.859l1.94 32.678-93.86-23.188 1.885-31.74 90.035 22.25zm-30.381 42.297c-8.579-8.034-22.021-8.034-30.603 0-5.514 5.164-14.151 5.164-19.665 0-3.657-3.425-8.2-5.376-12.871-5.881l1.117-18.806 86.381 21.34a22.196 22.196 0 0 0-4.694 3.347c-5.513 5.165-14.151 5.163-19.665 0z"/></svg>