<svg xmlns="http://www.w3.org/2000/svg" viewBox="0 0 408.67 408.67"><path d="M404.67 194.837h-9.977a139.644 139.644 0 0 0-.234-4.929c-1.018-15.272-7.286-41.864-37.063-50.916-15.934-4.844-33.745-6.581-43.527-6.76a368.609 368.609 0 0 0-6.907-.065c-6.169 0-12.035.162-17.608.478-55.641-17.087-114.404-17.087-170.044 0a311.33 311.33 0 0 0-17.608-.478c-2.257 0-4.559.021-6.907.065-9.782.179-27.832 1.916-43.527 6.76-29.739 9.178-36.045 35.643-37.063 50.916-.11 1.652-.184 3.293-.235 4.929H4a4 4 0 0 0 0 8h9.96c.745 26.224 9.236 49.603 24.07 65.458 12.574 13.44 28.999 20.545 47.5 20.545 42.297 0 98.181-38.468 110.746-93.668a45.752 45.752 0 0 0 .425-18.165 21.906 21.906 0 0 0 7.631 1.366c2.682 0 5.252-.484 7.631-1.366a45.752 45.752 0 0 0 .426 18.165c12.565 55.2 68.449 93.668 110.746 93.668 18.501 0 34.926-7.104 47.501-20.545 14.833-15.855 23.325-39.234 24.069-65.458h9.965a4 4 0 0 0 0-8zM267.218 134.98c-15.287 2.494-27.354 6.639-36.058 12.414a43.524 43.524 0 0 0-5.358 4.196c-2.191-9.837-10.982-17.217-21.47-17.217s-19.28 7.379-21.47 17.217a43.456 43.456 0 0 0-5.358-4.197c-8.703-5.775-20.771-9.92-36.057-12.414 41.484-9.536 84.288-9.536 125.771.001zm-78.742 58.417c-5.425 23.836-20.187 46.259-41.565 63.14-19.274 15.218-42.22 24.304-61.38 24.304-16.23 0-30.636-6.227-41.659-18.01-14.187-15.165-22.004-38.123-21.97-63.906.001-.03.009-.057.009-.087 0-.034-.009-.066-.01-.099.008-2.737.102-5.505.288-8.299 1.945-29.186 18.113-39.888 31.322-43.768 15.828-4.648 32.342-6.274 41.432-6.441 2.298-.042 4.55-.063 6.76-.063 32.999 0 57.682 4.805 71.379 13.893 12.652 8.395 18.838 24.203 15.394 39.336zm1.857-37.023c0-7.72 6.28-14 14-14s14 6.28 14 14-6.28 14-14 14-14-6.281-14-14zm174.461 106.457c-11.023 11.782-25.428 18.01-41.659 18.01-19.161 0-42.107-9.086-61.38-24.304-21.378-16.881-36.14-39.304-41.565-63.14-3.445-15.133 2.741-30.941 15.394-39.337 13.697-9.088 38.38-13.893 71.379-13.893 2.21 0 4.461.021 6.76.063 9.089.167 25.615 1.668 41.432 6.441 13.179 3.977 29.376 14.582 31.322 43.768.187 2.812.281 5.597.288 8.351 0 .016-.005.031-.005.047 0 .014.004.027.004.042.044 25.801-7.774 48.777-21.97 63.952z"/><path d="M167.959 167.325a4 4 0 0 0-.68 5.616c3.23 4.121 4.868 9.47 4.868 15.899a4 4 0 0 0 8 0c0-8.262-2.211-15.271-6.572-20.835a4 4 0 0 0-5.616-.68zm-10.313-9.979c-2.843-.885-4.84-1.123-5.059-1.147a3.991 3.991 0 0 0-4.406 3.519 4.008 4.008 0 0 0 3.508 4.431c.015.002 1.472.181 3.577.837a4.003 4.003 0 0 0 2.38-7.64zm203.048 2.915a4 4 0 1 0-4.713 6.465c8.582 6.257 12.933 16.164 12.933 29.448a4 4 0 0 0 8 0c0-19.908-8.821-30.518-16.22-35.913zm-17.785-7.512c-2.618-.487-4.322-.564-4.508-.571-2.21-.059-4.052 1.629-4.144 3.831a4.005 4.005 0 0 0 3.824 4.162c.013.001 1.321.063 3.363.443a4.002 4.002 0 0 0 4.665-3.201 4 4 0 0 0-3.2-4.664z"/></svg>