<svg xmlns="http://www.w3.org/2000/svg" viewBox="0 0 457.947 457.947"><path d="M457.505 242.363a4.006 4.006 0 0 0-.811-2.221c-1.436-1.888-36.362-46.238-139.103-46.238-1.622 0-3.215.001-4.809.003l-67.067-36.41a4 4 0 0 0-5.526 5.22l14.806 31.42c-28.785.128-53.541.099-76.028-.88l5.623-23.549a4.002 4.002 0 0 0-3.625-4.92l-14.563-.971a4.02 4.02 0 0 0-3.683 1.912l-3.096 5.089c-29.336.358-43.674 10.594-48.353 14.831-2.134-.433-7.153-1.471-7.536-1.446-3.037.203-74.72 5.31-102.657 35.242a3.997 3.997 0 0 0-1.075 2.837l.97 35.92a4.003 4.003 0 0 0 2.4 3.559l37.859 16.51c.435.19.9.301 1.375.327l4.521.254c7.319 13.157 21.362 22.082 37.455 22.082 14.356 0 27.076-7.106 34.852-17.978l206.261 1.478c7.847 10.033 20.052 16.5 33.746 16.5 13.695 0 25.899-6.467 33.746-16.5 0 0 9.134.019 10.995.019 4.647 0 13.767-.107 23.065-.816 20.824-1.587 29.586-4.933 30.242-11.542 1-9.896.056-28.926.016-29.732zm-22.623-10.784l-5.994 1.35a15.104 15.104 0 0 1-11.771-2.168 15.104 15.104 0 0 1-6.574-10.002l-.456-2.535a150.12 150.12 0 0 1 11.288 5.268c5.285 2.75 9.764 5.507 13.507 8.087zM252.63 170.354l43.452 23.59c-9.083.031-30.314.141-32.264.151l-11.188-23.741zm17.131 31.711c5.677-.03 11.429-.06 17.311-.086 1.851 1.627 6.378 6.297 9.539 15.352 6.525 18.696 2.534 41.89-2.386 58.996l-94.419-.496c-13.834-13.436-30.552-33.74-34.316-56.084-1.547-9.184-.369-15.818.557-19.158 29.62 1.858 62.69 1.689 103.714 1.476zm-101.47-30.104l7.417.495-4.871 20.398c-4.98-.277-9.857-.609-14.647-1.003l12.101-19.89zm-42.461 13.692c5.697-2.725 15.098-5.875 28.821-6.662l-7.329 12.046c-8.615-.875-16.994-1.978-25.255-3.375a47.44 47.44 0 0 1 3.763-2.009zm-71.97 23.306l-9.886 5.233-19.658-1.982c6.766-3.571 14.302-6.53 21.97-8.977l7.574 5.726zm30.722 83.976c-19.208 0-34.835-15.627-34.835-34.835s15.627-34.835 34.835-34.835 34.835 15.627 34.835 34.835-15.626 34.835-34.835 34.835zm39.265-17.74a42.573 42.573 0 0 0 3.57-17.096c0-23.619-19.216-42.835-42.835-42.835s-42.835 19.216-42.835 42.835c0 4.34.654 8.53 1.86 12.481l-32.615-14.223H26.33a4 4 0 0 0 0-8H8.708l-.664-24.611a53.728 53.728 0 0 1 5.291-4.603s31.307 3.15 31.441 3.15a4 4 0 0 0 1.871-.465l16.505-8.738a3.998 3.998 0 0 0 .541-6.726l-7.834-5.923c22.663-6.024 44.138-7.921 47.849-8.215 17.602 3.912 35.252 6.325 54.197 7.795-2.66 11.23-4.122 39.188 30.586 75.748l-64.644-.574zm235.595 17.74c-19.208 0-34.835-15.627-34.835-34.835s15.627-34.835 34.835-34.835 34.835 15.627 34.835 34.835-15.627 34.835-34.835 34.835zm41.648-16.5h-2.945a42.578 42.578 0 0 0 4.131-18.335c0-23.619-19.216-42.835-42.835-42.835s-42.835 19.216-42.835 42.835a42.578 42.578 0 0 0 4.131 18.335l-18.215-.064c11.556-41.856 2.553-64.162-4.823-74.432 6.422-.021 13.023-.034 19.89-.034 36.67 0 64.144 5.957 83.763 12.943l1.317 7.327c1.132 6.298 4.691 11.715 10.025 15.253 3.862 2.563 8.272 3.885 12.783 3.885 1.716 0 3.447-.191 5.168-.579l12.513-2.818c3.294 2.815 5.397 5.03 6.418 6.184.11 2.535.332 8.328.365 14.312h-20.699a4 4 0 0 0 0 8h20.597a82.436 82.436 0 0 1-.276 4.549c-3.069 3.293-25.422 5.834-48.473 5.474z"/><path d="M359.442 230.662c-15.129 0-27.438 12.308-27.438 27.438 0 15.129 12.309 27.438 27.438 27.438S386.88 273.23 386.88 258.1c-.001-15.129-12.309-27.438-27.438-27.438zm0 46.875c-10.718 0-19.438-8.72-19.438-19.438s8.72-19.438 19.438-19.438c10.718 0 19.438 8.72 19.438 19.438s-8.72 19.438-19.438 19.438zm-274.86-46.875c-15.129 0-27.438 12.308-27.438 27.438 0 15.129 12.309 27.438 27.438 27.438S112.02 273.23 112.02 258.1c0-15.129-12.309-27.438-27.438-27.438zm0 46.875c-10.718 0-19.438-8.72-19.438-19.438s8.72-19.438 19.438-19.438c10.718 0 19.438 8.72 19.438 19.438s-8.72 19.438-19.438 19.438zm93.205-58.156h17.476a4 4 0 0 0 0-8h-17.476a4 4 0 0 0 0 8z"/></svg>