<svg xmlns="http://www.w3.org/2000/svg" viewBox="0 0 412.979 412.979"><path d="M361.876 129.692l-27.767-24.295a3.998 3.998 0 0 0-2.634-.99H218.628V37.431c5.177-3.766 8.562-9.854 8.562-16.731 0-11.414-9.286-20.7-20.7-20.7s-20.7 9.286-20.7 20.7c0 6.877 3.385 12.965 8.562 16.731v26.478H81.503a4 4 0 0 0-2.634.99L51.103 89.194a4 4 0 0 0 0 6.02l27.766 24.295a4 4 0 0 0 2.634.99h112.849v27.864h-60.787a4 4 0 0 0-2.634.99l-27.766 24.295a4 4 0 0 0 0 6.02l27.766 24.295a4 4 0 0 0 2.634.99h60.787v204.025a4 4 0 0 0 8 0V42.792h8.277V408.98a4 4 0 0 0 8 0V160.997h112.848a4 4 0 0 0 2.634-.99l27.767-24.295a4 4 0 0 0-.002-6.02zM206.49 8c7.003 0 12.7 5.697 12.7 12.7s-5.697 12.7-12.7 12.7c-7.003 0-12.7-5.697-12.7-12.7S199.487 8 206.49 8zM83.005 112.499L59.811 92.204l23.194-20.295h111.346v40.59H83.005zm52.062 84.455l-23.194-20.295 23.194-20.295h59.284v40.59h-59.284zm194.906-43.957H218.628v-40.59h111.345l23.195 20.295-23.195 20.295z"/></svg>