<svg xmlns="http://www.w3.org/2000/svg" viewBox="0 0 343.711 343.711"><path d="M339.711 253.124h-1.357v-36.643h1.357a4 4 0 0 0 0-8h-1.471c-1.805-30.935-26.87-55.718-57.922-57.074V81.763c0-28.399-21.826-51.786-49.583-54.295v-9.107c0-5.448-4.437-9.88-9.89-9.88h-97.981c-5.448 0-9.88 4.432-9.88 9.88v9.106c-27.76 2.505-49.591 25.893-49.591 54.296v69.644c-31.051 1.356-56.117 26.139-57.922 57.074H4a4 4 0 0 0 0 8h1.357v36.643H4a4 4 0 0 0 0 8h1.357v12.259c0 14.41 11.724 26.133 26.134 26.133h31.901v2.436c0 18.349 14.928 33.277 33.277 33.277H247.04c18.35 0 33.277-14.928 33.277-33.277v-2.436h31.901c14.41 0 26.134-11.723 26.134-26.133v-12.259h1.357a4 4 0 0 0 .002-8zm-9.358 0h-50.035v-36.643h50.035v36.643zm-.134-44.643h-49.901v-49.074c26.64 1.34 48.116 22.552 49.901 49.074zM272.268 79.78c-7.681 19.919-20.984 36.963-38.531 49.319a107.489 107.489 0 0 1-18.597 10.499v-14.617h4.482a4 4 0 0 0 4-4v-16.964a4 4 0 0 0-4-4h-4.482V35.233h10.648c24.993 0 45.437 19.808 46.48 44.547zm-135.216 28.238v8.964h-8.964v-8.964h8.964zm4 16.963a4 4 0 0 0 4-4v-16.964a4 4 0 0 0-4-4h-4.482V35.233h70.57v64.784h-4.482a4 4 0 0 0-4 4v16.964a4 4 0 0 0 4 4h4.482v17.755c-11.243 3.9-23.126 5.924-35.285 5.924s-24.042-2.024-35.285-5.924v-17.755h4.482zm65.606-8v-8.964h8.965v8.964h-8.965zm-83.793-100.5h97.981c1.042 0 1.89.843 1.89 1.88v8.872h-101.75v-8.872a1.881 1.881 0 0 1 1.879-1.88zm-4.943 18.752h10.648v64.784h-4.482a4 4 0 0 0-4 4v16.964a4 4 0 0 0 4 4h4.482v14.617a107.563 107.563 0 0 1-18.597-10.499C92.427 116.743 79.124 99.7 71.443 79.78c1.043-24.739 21.487-44.547 46.479-44.547zM63.393 159.407v49.074H13.492c1.785-26.522 23.261-47.734 49.901-49.074zm-50.036 57.074h50.035v36.643H13.357v-36.643zm18.134 75.035c-9.999 0-18.134-8.135-18.134-18.133v-12.259h50.035v30.392H31.491zm240.827 10.436c0 13.938-11.339 25.277-25.277 25.277H96.67c-13.938 0-25.277-11.339-25.277-25.277V98.291c8.378 14.716 19.902 27.44 33.976 37.35a115.4 115.4 0 0 0 23.202 12.653v19.546a4 4 0 0 0 8 0v-16.66c11.298 3.615 23.166 5.48 35.285 5.48s23.987-1.865 35.285-5.48v16.659a4 4 0 0 0 8 0v-19.546a115.274 115.274 0 0 0 23.202-12.653c14.069-9.906 25.598-22.62 33.976-37.329v203.641zm58.035-28.57c0 9.999-8.135 18.133-18.134 18.133h-31.901v-30.392h50.035v12.259z"/><path d="M236.34 200.445H107.371c-4.312 0-7.818 3.507-7.818 7.818v58.029c0 21.765 17.707 39.473 39.473 39.473h65.66c21.766 0 39.473-17.707 39.473-39.473v-58.029c-.001-4.31-3.508-7.818-7.819-7.818zm-64.485 26.786a4 4 0 0 0-4 4v12.964h-32.634c-15.257 0-27.669-12.412-27.669-27.669v-8.081h128.605v8.081c0 15.257-12.412 27.669-27.669 27.669h-32.634v-12.964c.001-2.209-1.79-4-3.999-4zm64.303 39.062c0 17.354-14.118 31.473-31.473 31.473h-65.66c-17.355 0-31.473-14.119-31.473-31.473v-27.289c6.546 8.042 16.516 13.191 27.669 13.191h32.634v21.893a4 4 0 0 0 8 0v-21.893h32.634c11.153 0 21.123-5.149 27.669-13.191v27.289z"/></svg>