<svg xmlns="http://www.w3.org/2000/svg" viewBox="0 0 430.198 430.198"><path d="M377.255 352.408a4.005 4.005 0 0 0-.522-3.685c-.77-1.068-2.045-1.698-3.33-1.66l-90.68 1.941v-21.229l75.88 13.642a4.002 4.002 0 0 0 4.456-5.333l-80.588-216.411a4 4 0 1 0-7.749 1.396v228.107l-6.798.146V4a4 4 0 0 0-7.6-1.743L104.58 323.966a4 4 0 0 0 3.6 5.743h.023l151.72-.882v20.666l-8.295.178v-13.099a4.004 4.004 0 0 0-4.256-3.992l-70.629 4.531a4 4 0 0 0-3.744 3.992v10.251l-95.691 2.048a4 4 0 0 0-3.771 5.06l2.798 10.176H62.907a4 4 0 0 0-4 4v19.246a3.993 3.993 0 0 0-5.116.596 4 4 0 0 0 .185 5.654c8.106 7.592 20.804 7.592 28.91 0 5.04-4.719 12.934-4.719 17.972 0 8.105 7.592 20.805 7.591 28.91 0 5.039-4.72 12.933-4.72 17.972 0 8.105 7.591 20.804 7.592 28.91 0 5.039-4.72 12.933-4.72 17.972 0 8.106 7.592 20.804 7.591 28.91 0 5.039-4.719 12.933-4.72 17.972 0 8.105 7.591 20.804 7.592 28.91 0 5.04-4.72 12.934-4.719 17.972 0 4.053 3.796 9.254 5.694 14.455 5.694 5.201 0 10.402-1.898 14.455-5.694 5.039-4.72 12.934-4.719 17.972 0 8.105 7.592 20.804 7.592 28.91 0a4 4 0 0 0-5.469-5.839c-3.927 3.678-9.583 4.476-14.275 2.422 23.769-17.582 32.449-41.268 32.821-42.309zm-94.532-209.134l70.391 189.029-70.391-12.655V143.274zM236.51 320.963l-98.718-47.24 9.97-20.594 112.163 53.666v14.031l-23.415.137zm-18.311.107l-52.383.305-41.481-19.856 9.97-20.594 83.894 40.145zm41.725-262.749l-14.497-6.934 9.969-20.593 4.527 2.166v25.361zm0 8.868v25.368l-27.953-13.375 9.97-20.594 17.983 8.601zm0 34.237v25.351l-41.406-19.805 9.968-20.589 31.438 15.043zm0 34.219v25.369l-54.862-26.248 9.97-20.594 44.892 21.473zm0 34.238v25.359l-68.312-32.692 9.964-20.583 58.348 27.916zm0 34.228v25.36l-81.771-39.12 9.973-20.601 71.798 34.361zm0 34.228v25.36l-95.223-45.561 9.966-20.586 85.257 40.787zm0 34.228v25.36l-108.677-51.998 9.968-20.59 98.709 47.228zm0-248.475l-1.041-.498 1.041-2.151v2.649zM120.85 308.719l26.661 12.762-32.931.191 6.27-12.953zm60.149 36.135l62.629-4.018v9.005l-62.629 1.341v-6.328zM66.907 395.736v-19.098h11.629l3.42 12.436a20.986 20.986 0 0 0-4.539 3.221c-2.917 2.732-6.788 3.871-10.51 3.441zm270.616-5.916c-7.974-4.999-18.597-4.174-25.696 2.475-5.039 4.72-12.933 4.72-17.972 0-8.106-7.592-20.804-7.591-28.91 0-5.039 4.72-12.933 4.72-17.972 0-8.105-7.592-20.804-7.592-28.91 0-5.039 4.72-12.934 4.72-17.972 0-8.105-7.592-20.804-7.592-28.91 0-5.039 4.72-12.933 4.72-17.972 0-8.105-7.592-20.804-7.592-28.91 0-5.04 4.719-12.934 4.72-17.973 0-4.642-4.348-10.789-6.193-16.718-5.562l-6.997-25.443 284.649-6.094c-4.011 8.007-13.23 23.175-29.737 34.624z"/><circle cx="341.196" cy="367.361" r="5.128"/><path d="M358.708 418.666c-5.039 4.72-12.933 4.72-17.972 0-8.105-7.592-20.804-7.591-28.91 0-5.039 4.72-12.933 4.72-17.972 0-8.106-7.592-20.804-7.591-28.91 0-5.039 4.719-12.933 4.72-17.972 0-8.105-7.592-20.804-7.593-28.91 0-5.039 4.72-12.934 4.719-17.972 0-8.105-7.592-20.804-7.592-28.91 0-5.039 4.72-12.933 4.719-17.972 0-8.105-7.592-20.804-7.592-28.91 0-5.04 4.719-12.934 4.719-17.973 0-8.106-7.592-20.805-7.592-28.91 0-5.039 4.72-12.933 4.719-17.972 0a4 4 0 0 0-5.469 5.839c8.106 7.592 20.804 7.592 28.91 0 5.04-4.719 12.934-4.719 17.972 0 8.105 7.592 20.805 7.591 28.91 0 5.039-4.72 12.933-4.72 17.972 0 8.105 7.591 20.804 7.592 28.91 0 5.039-4.72 12.933-4.72 17.972 0 8.106 7.592 20.804 7.591 28.91 0 5.039-4.719 12.933-4.72 17.972 0 8.105 7.591 20.804 7.592 28.91 0 5.04-4.72 12.934-4.719 17.972 0 4.053 3.796 9.254 5.694 14.455 5.694 5.201 0 10.402-1.898 14.455-5.694 5.039-4.72 12.934-4.719 17.972 0 8.105 7.592 20.804 7.592 28.91 0a4 4 0 0 0-5.468-5.839z"/></svg>