<svg xmlns="http://www.w3.org/2000/svg" viewBox="0 0 445.763 445.763"><path d="M439.028 383.481c-6.392 5.986-16.406 5.987-22.8 0-9.46-8.86-24.279-8.859-33.737 0-6.393 5.987-16.407 5.987-22.8 0-9.458-8.859-24.278-8.86-33.736 0-6.393 5.986-16.409 5.986-22.8 0-9.459-8.86-24.278-8.859-33.737 0-6.393 5.986-16.407 5.987-22.8 0-9.458-8.859-24.277-8.86-33.737 0-6.393 5.988-16.407 5.987-22.8 0-9.458-8.86-24.277-8.859-33.737 0-6.393 5.987-16.406 5.987-22.799 0-9.459-8.859-24.278-8.859-33.737 0-6.393 5.986-16.407 5.987-22.8 0-9.458-8.859-24.277-8.86-33.737 0-6.393 5.986-16.407 5.987-22.8 0a3.999 3.999 0 1 0-5.468 5.839c9.459 8.86 24.278 8.858 33.737 0 6.392-5.987 16.406-5.988 22.8 0 9.458 8.858 24.277 8.86 33.737 0 6.393-5.987 16.407-5.987 22.8 0 9.457 8.858 24.277 8.859 33.736 0 6.392-5.987 16.408-5.987 22.8 0 9.459 8.858 24.278 8.86 33.737 0 6.394-5.987 16.408-5.986 22.8 0 9.46 8.86 24.279 8.858 33.737 0 6.392-5.987 16.406-5.988 22.8 0 9.458 8.859 24.277 8.859 33.737 0 6.393-5.987 16.406-5.987 22.799 0 9.459 8.859 24.278 8.859 33.737 0 6.391-5.987 16.405-5.988 22.8 0 4.729 4.43 10.799 6.645 16.868 6.645 6.07 0 12.14-2.215 16.869-6.645a4 4 0 0 0-5.469-5.839zm0-32.097c-6.392 5.986-16.406 5.987-22.8 0-9.46-8.86-24.279-8.859-33.737 0-6.393 5.987-16.407 5.987-22.8 0-9.458-8.859-24.278-8.86-33.736 0-6.393 5.986-16.409 5.986-22.8 0-9.459-8.86-24.278-8.859-33.737 0-6.393 5.986-16.407 5.987-22.8 0-9.458-8.859-24.277-8.86-33.737 0-6.393 5.988-16.407 5.987-22.8 0-9.458-8.86-24.277-8.859-33.737 0-6.393 5.987-16.406 5.987-22.799 0-9.459-8.859-24.278-8.859-33.737 0-6.393 5.986-16.407 5.987-22.8 0-9.458-8.859-24.277-8.86-33.737 0-6.393 5.986-16.407 5.987-22.8 0a3.999 3.999 0 1 0-5.468 5.839c9.459 8.86 24.278 8.859 33.737 0 6.392-5.987 16.406-5.988 22.8 0 9.458 8.859 24.277 8.86 33.737 0 6.393-5.987 16.407-5.987 22.8 0 9.457 8.858 24.277 8.859 33.736 0 6.392-5.987 16.408-5.987 22.8 0 9.459 8.859 24.278 8.86 33.737 0 6.394-5.987 16.408-5.986 22.8 0 9.46 8.86 24.279 8.859 33.737 0 6.392-5.987 16.406-5.988 22.8 0 9.458 8.86 24.277 8.859 33.737 0 6.393-5.987 16.406-5.987 22.799 0 9.459 8.859 24.278 8.859 33.737 0 6.391-5.987 16.405-5.988 22.8 0 4.729 4.43 10.799 6.645 16.868 6.645 6.07 0 12.14-2.215 16.869-6.645a4 4 0 0 0-5.469-5.839zm-282.684-32.701c-6.393 5.987-16.406 5.987-22.799 0-9.459-8.859-24.278-8.859-33.737 0-6.393 5.986-16.407 5.987-22.8 0-9.458-8.858-24.277-8.86-33.737 0-6.393 5.986-16.407 5.987-22.8 0a4 4 0 0 0-5.468 5.839c9.459 8.86 24.278 8.859 33.737 0 6.392-5.987 16.406-5.988 22.8 0 9.458 8.859 24.277 8.86 33.737 0 6.393-5.987 16.407-5.987 22.8 0 9.457 8.858 24.277 8.859 33.736 0 6.392-5.987 16.408-5.987 22.8 0 9.459 8.859 24.278 8.86 33.737 0 6.394-5.987 16.408-5.986 22.8 0 9.46 8.86 24.279 8.859 33.737 0 6.392-5.987 16.406-5.988 22.8 0 9.458 8.86 24.277 8.859 33.737 0 6.393-5.987 16.406-5.987 22.799 0 9.459 8.859 24.278 8.859 33.737 0 6.391-5.987 16.405-5.988 22.8 0 4.729 4.43 10.799 6.645 16.868 6.645 6.07 0 12.14-2.215 16.869-6.645a4 4 0 0 0-5.468-5.839c-6.392 5.986-16.406 5.987-22.8 0-9.46-8.86-24.279-8.858-33.737 0-6.393 5.987-16.407 5.987-22.8 0-9.458-8.859-24.278-8.86-33.736 0-6.393 5.986-16.409 5.986-22.8 0-9.459-8.86-24.278-8.858-33.737 0-6.393 5.986-16.407 5.987-22.8 0-9.458-8.858-24.277-8.86-33.737 0-6.393 5.988-16.407 5.987-22.8 0-9.459-8.86-24.278-8.86-33.738 0zm111.527-92.608c3.344-3.73 8.134-5.87 13.143-5.87s9.799 2.14 13.143 5.87a4 4 0 0 0 5.957 0 17.674 17.674 0 0 1 13.143-5.87c5.009 0 9.799 2.14 13.143 5.87a3.989 3.989 0 0 0 2.979 1.331 4 4 0 0 0 2.978-6.669 25.675 25.675 0 0 0-19.1-8.531 25.68 25.68 0 0 0-16.121 5.702 25.68 25.68 0 0 0-16.121-5.702 25.678 25.678 0 0 0-19.1 8.531 3.998 3.998 0 0 0 .31 5.648 3.998 3.998 0 0 0 5.646-.31zm77.21-80.938a17.667 17.667 0 0 1 13.142-5.87c5.009 0 9.799 2.14 13.141 5.87a4.001 4.001 0 0 0 5.957 0 17.667 17.667 0 0 1 13.144-5.87c5.009 0 9.799 2.14 13.141 5.87a3.99 3.99 0 0 0 2.98 1.331 4 4 0 0 0 2.979-6.669 25.678 25.678 0 0 0-19.1-8.531h-.001a25.686 25.686 0 0 0-16.121 5.701 25.677 25.677 0 0 0-16.12-5.701 25.68 25.68 0 0 0-19.101 8.531 4 4 0 0 0 .311 5.648 4 4 0 0 0 5.648-.31zM99.552 194.29c24.785 0 44.949-20.164 44.949-44.948 0-24.785-20.164-44.949-44.949-44.949-24.784 0-44.948 20.164-44.948 44.949 0 24.784 20.164 44.948 44.948 44.948zm0-81.897c20.374 0 36.949 16.575 36.949 36.949s-16.575 36.948-36.949 36.948c-20.373 0-36.948-16.575-36.948-36.948 0-20.374 16.575-36.949 36.948-36.949zm-64.73 107.341l23.552-23.551a4 4 0 1 0-5.656-5.657l-23.552 23.551a3.999 3.999 0 0 0 2.828 6.828c1.024 0 2.048-.39 2.828-1.171zm108.744-110.401a3.99 3.99 0 0 0 2.828-1.171l23.552-23.552a4 4 0 1 0-5.656-5.657l-23.552 23.552a3.999 3.999 0 0 0 2.828 6.828zm-102.252 40.01a4 4 0 0 0-4-4H4a4 4 0 0 0 0 8h33.314a4 4 0 0 0 4-4zm116.485 0a4 4 0 0 0 4 4h33.303a4 4 0 0 0 0-8h-33.303a4 4 0 0 0-4 4zM52.718 108.162a3.985 3.985 0 0 0 2.828 1.171 3.999 3.999 0 0 0 2.828-6.828L34.822 78.953a4 4 0 1 0-5.656 5.657l23.552 23.552zm114.4 112.743a3.999 3.999 0 0 0 2.828-6.828l-23.552-23.551a4 4 0 1 0-5.656 5.657l23.552 23.551a3.987 3.987 0 0 0 2.828 1.171zM99.557 91.102a4 4 0 0 0 4-4V53.798a4 4 0 0 0-8 0v33.303a4 4 0 0 0 4 4.001zm4 153.787v-33.303a4 4 0 0 0-8 0v33.303a4 4 0 0 0 8 0z"/></svg>