<svg xmlns="http://www.w3.org/2000/svg" viewBox="0 0 372.479 372.479"><path d="M187.74 78.652c-14.697 0-26.655-11.957-26.655-26.654 0-14.698 11.958-26.655 26.655-26.655 14.698 0 26.655 11.957 26.655 26.655 0 14.697-11.957 26.654-26.655 26.654zm0-45.309c-10.286 0-18.655 8.369-18.655 18.655s8.369 18.654 18.655 18.654c10.287 0 18.655-8.368 18.655-18.654s-8.368-18.655-18.655-18.655z"/><path d="M186.24 372.479c-.298 0-.596-.033-.889-.1-38.095-8.683-65.694-29.495-82.14-45.426-11.749-11.382-19.553-21.811-23.611-27.778l-7.074 10.099a4.002 4.002 0 0 1-3.276 1.705h-.046a4.003 4.003 0 0 1-3.282-1.781c-12.837-19.252-17.461-42.672-13.37-67.729 3.07-18.805 9.875-31.807 10.163-32.351a4.001 4.001 0 0 1 3.471-2.128l.064-.001a4 4 0 0 1 3.473 2.016c18.548 32.459 38.716 51.604 46.788 57.192a4.003 4.003 0 1 1-.65 6.949l-8.991 3.985c16.622 15.09 36.793 24.968 58.871 28.819V151.993h-63.205c-4.296 6.236-10.842 9.894-17.908 9.894-12.553 0-22.766-11.616-22.766-25.894 0-14.277 10.212-25.893 22.766-25.893 7.065 0 13.611 3.657 17.908 9.894h63.205V99.113c-18.313-8.533-29.999-26.74-29.999-47.115C135.742 23.326 159.069 0 187.74 0c28.672 0 51.998 23.326 51.998 51.998a51.886 51.886 0 0 1-32.998 48.404v19.592h63.204c4.297-6.236 10.843-9.894 17.908-9.894 12.553 0 22.765 11.615 22.765 25.893 0 14.277-10.212 25.894-22.765 25.894-7.065 0-13.611-3.657-17.908-9.894H206.74v153.959c22.078-3.852 42.248-13.729 58.871-28.819l-8.991-3.985a4 4 0 1 1-.646-6.953c8.067-5.584 28.235-24.73 46.783-57.189a4.001 4.001 0 0 1 7.009.113c.288.544 7.092 13.546 10.163 32.351 4.091 25.057-.532 48.477-13.37 67.729a3.998 3.998 0 0 1-3.282 1.781h-.046a4 4 0 0 1-3.276-1.705l-7.074-10.099c-4.059 5.968-11.863 16.398-23.612 27.778-16.445 15.931-44.044 36.743-82.139 45.426a4.06 4.06 0 0 1-.89.099zM79.749 287.99a3.996 3.996 0 0 1 3.469 2.009c.335.581 34.26 58.277 103.021 74.375 68.89-16.127 102.686-73.792 103.021-74.375a4 4 0 0 1 3.289-2.005 3.971 3.971 0 0 1 3.456 1.701l7.007 10.004c17.898-31.707 8.232-65.716 2.694-79.955-16.254 26.67-31.861 41.966-39.801 48.77l8.415 3.729a4 4 0 0 1 1.207 6.486c-19.722 19.722-44.706 32.12-72.251 35.855a3.999 3.999 0 0 1-4.538-3.964V147.993a4 4 0 0 1 4-4h69.418c1.445 0 2.777.779 3.485 2.038 2.77 4.919 7.333 7.855 12.208 7.855 8.142 0 14.765-8.027 14.765-17.894s-6.624-17.893-14.765-17.893c-4.875 0-9.438 2.937-12.208 7.855a4 4 0 0 1-3.485 2.038H202.74a4 4 0 0 1-4-4v-26.4a4 4 0 0 1 2.75-3.8 43.908 43.908 0 0 0 30.248-41.794C231.738 27.737 212.001 8 187.74 8c-24.26 0-43.997 19.737-43.997 43.998 0 18.013 10.794 34.022 27.5 40.787a4.001 4.001 0 0 1 2.499 3.708v27.501a4 4 0 0 1-4 4h-69.419a4 4 0 0 1-3.486-2.038c-2.769-4.919-7.332-7.855-12.207-7.855-8.142 0-14.766 8.026-14.766 17.893s6.624 17.894 14.766 17.894c4.875 0 9.438-2.937 12.207-7.855a4 4 0 0 1 3.486-2.038h69.419a4 4 0 0 1 4 4v162.626a4.002 4.002 0 0 1-4.538 3.964c-27.546-3.734-52.53-16.133-72.252-35.855a4.002 4.002 0 0 1 1.208-6.486l8.414-3.729c-7.939-6.802-23.542-22.096-39.794-48.756-5.521 14.262-15.16 48.303 2.688 79.94l7.006-10.003a3.997 3.997 0 0 1 3.275-1.706z"/></svg>