<svg xmlns="http://www.w3.org/2000/svg" viewBox="0 0 396.21 396.21"><path d="M375.925 276.23a6.855 6.855 0 0 0-6.557-4.791c-1.48 0-2.895.469-4.089 1.354l-21.416 15.89a26.772 26.772 0 0 0-9.873 14.539l-7.503 28.136c-1.918 7.195 1.833 14.748 8.725 17.566l3.925 1.605a14.784 14.784 0 0 0 5.617 1.107 14.783 14.783 0 0 0 13.235-8.113l17.241-33.867c4.496-8.832 5.317-18.897 2.313-28.342l-1.618-5.084zm-7.823 29.798l-17.241 33.867a6.823 6.823 0 0 1-6.106 3.742 6.797 6.797 0 0 1-2.588-.512l-3.925-1.605a6.861 6.861 0 0 1-4.023-8.102l7.503-28.135a18.725 18.725 0 0 1 6.91-10.176l20.15-14.949 1.14 3.582c2.362 7.428 1.715 15.343-1.82 22.288zm-46.544-48.908a45.05 45.05 0 0 1 17.278-43.171l20.13-15.27a50.582 50.582 0 0 0 19.179-31.033l1.014-5.408a21.686 21.686 0 0 0-4.642-17.899 21.685 21.685 0 0 0-16.736-7.859c-9.542 0-21.853-6.85-26.882-14.958l-29.111-46.926C286.065 49.252 262.116 29.3 234.289 18.39a12.102 12.102 0 0 0-4.426-.836 12.217 12.217 0 0 0-10.448 5.938l-3.395 5.699c-2.692 4.519-7.634 7.326-12.897 7.327-2.06 0-4.069-.42-5.973-1.247l-10.337-4.494a14.983 14.983 0 0 1-8.355-9.343 14.986 14.986 0 0 1 1.653-12.426 5.222 5.222 0 0 0 .313-5.027 5.206 5.206 0 0 0-4.054-2.966 119.158 119.158 0 0 0-17.852-.991l-35.143.718c-28.041.571-53.358 15.293-67.724 39.379L23.165 94.582c-9.115 15.281-8.591 34.697 1.335 49.465l15.983 23.78a33.215 33.215 0 0 0 27.608 14.713 33.66 33.66 0 0 0 4.255-.272l51.29-6.603c6.941-.896 13.911 1.707 18.58 6.895 3.832 4.256 5.74 9.667 5.436 15.343-1.141 1.647-1.686 3.604-1.518 5.563.213 2.49 1.563 4.784 3.7 6.292l10.182 7.188c11.845 8.361 16.821 23.774 12.102 37.483l-3.368 9.783a77.462 77.462 0 0 0 .832 52.629l23.074 60.723a27.487 27.487 0 0 0 24.524 17.714l20.845.906a27.458 27.458 0 0 0 19.733-7.156l17.277-15.754a37.555 37.555 0 0 0 12.094-24.142l1.147-11.764c.894-9.166 5.873-17.244 13.659-22.162l5.313-3.355a37.556 37.556 0 0 0 17.044-37.807l-2.734-16.924zM123.538 8.74l35.143-.718c4.222-.087 8.476.076 12.744.483a22.972 22.972 0 0 0-.613 15.283 22.971 22.971 0 0 0 12.812 14.324l10.337 4.494a22.827 22.827 0 0 0 9.163 1.911c8.066-.001 15.642-4.305 19.77-11.233l3.396-5.699a4.178 4.178 0 0 1 3.575-2.032c.517 0 1.025.097 1.567.308 26.169 10.26 48.741 29.065 63.559 52.95l12.147 19.581-38.85 69.625-26.725-43.829 1.426-24.25a3.996 3.996 0 0 0-1.917-3.653l-41.997-25.499a4.002 4.002 0 0 0-5.331 1.094l-5.441 7.617-13.389-7.303a4.002 4.002 0 0 0-3.991.093l-39.575 24.027-66.994-54.995C77.551 21.345 99.423 9.232 123.538 8.74zm2.883 158.746c-1.262 0-2.542.082-3.806.244l-51.29 6.602a25.346 25.346 0 0 1-3.233.207 25.228 25.228 0 0 1-20.969-11.176l-15.983-23.78c-8.208-12.212-8.642-28.268-1.104-40.904L60.14 48.21l68.321 56.086a4 4 0 0 0 4.614.327l40.028-24.304 12.334 6.729-1.4 57.426-34.843 33.946a28.241 28.241 0 0 0-1.032-1.213c-5.561-6.178-13.486-9.721-21.741-9.721zm49.895 99.329l3.368-9.783c5.87-17.052-.32-36.224-15.053-46.622l-10.183-7.188c-.203-.144-.331-.307-.342-.439-.012-.132.087-.314.263-.49a4.01 4.01 0 0 0 1.15-2.41 29.36 29.36 0 0 0-2.123-14.388l37.391-36.428a3.999 3.999 0 0 0 1.208-2.768l1.47-60.268 4.629-6.48 36.765 22.322-1.357 23.096a3.995 3.995 0 0 0 .578 2.316l36.727 60.23-12.821 78.349-31.84 6.922a4 4 0 0 0-3.15 3.896l-.07 22.608-49.783-.974c-1.368-10.539-.324-21.34 3.173-31.501zm93.331 100.547l-17.276 15.754c-3.813 3.475-8.801 5.31-13.996 5.075l-20.845-.906a19.497 19.497 0 0 1-17.394-12.564l-23.074-60.723a68.94 68.94 0 0 1-2.393-7.65l67.366 1.318 38.073 31.058-.94 9.63a29.556 29.556 0 0 1-9.521 19.008zm33.333-62.274l-5.314 3.355c-7.872 4.972-13.474 12.491-16.009 21.221l-35.635-29.07a3.999 3.999 0 0 0-2.45-.899l-12.647-.247.06-19.526 31.357-6.817a4 4 0 0 0 3.098-3.263l13.5-82.496a3.998 3.998 0 0 0-.532-2.727l-5.338-8.754 38.89-69.695 12.141 19.57c6.52 10.509 21.314 18.741 33.681 18.741 4.103 0 7.96 1.811 10.581 4.969a13.717 13.717 0 0 1 2.934 11.316l-1.014 5.408a42.59 42.59 0 0 1-16.15 26.134l-20.13 15.27a53.03 53.03 0 0 0-20.34 50.821l2.737 16.925a29.573 29.573 0 0 1-13.42 29.764z"/></svg>