<svg xmlns="http://www.w3.org/2000/svg" viewBox="0 0 408.732 408.732"><path d="M394.068 169.756l-39.537-57.51-10.013-45.892c-1.283-5.876-6.575-10.142-12.583-10.142-.75 0-1.507.066-2.249.197-2.613.467-5.144-1.306-5.646-3.874l-7.324-37.438a4.004 4.004 0 0 0-3.661-3.224A4.028 4.028 0 0 0 309 14.585l-18.053 53.462a14.901 14.901 0 0 1-14.137 10.13c-2.961 0-5.839-.893-8.324-2.58l-22.013-14.952a10.844 10.844 0 0 1-3.765-13.56 18.935 18.935 0 0 0 .321-15.087 18.937 18.937 0 0 0-10.835-10.504l-16.917-6.344a18.81 18.81 0 0 0-6.628-1.203 18.924 18.924 0 0 0-12.059 4.352l-30.396 25.223a15.529 15.529 0 0 1-9.896 3.57c-2.476 0-4.947-.604-7.146-1.748a22.654 22.654 0 0 0-10.406-2.547 22.476 22.476 0 0 0-17.613 8.443l-46.869 58.381-51.757 23.696C3.493 142.021-5.05 163.94 3.057 183.216l27.788 66.072a17.72 17.72 0 0 1-1.137 15.935l-1.221 2.037a17.601 17.601 0 0 0-1.622 14.587 17.6 17.6 0 0 0 9.99 10.751 39.483 39.483 0 0 0 15.173 3.016 39.443 39.443 0 0 0 16.596-3.636l41.419-19.066a150.311 150.311 0 0 1 14.765-5.87l47.359-15.977a31.728 31.728 0 0 1 10.156-1.672c11.38 0 21.957 6.139 27.604 16.02l8.335 14.588a11.456 11.456 0 0 0 9.928 5.756c3.195 0 6.266-1.356 8.425-3.721l5.601-6.135a3.867 3.867 0 0 1 2.884-1.283c1.298 0 2.945.649 3.675 2.475l9.456 23.64a44.188 44.188 0 0 0 39.965 27.792l23.673.592c.467.012.932.018 1.397.018 19.253-.001 37.456-10.205 47.506-26.631l25.715-42.035a83.552 83.552 0 0 0 12.174-39.952c.761-17.937-4.42-35.965-14.593-50.761zM276.809 86.178h.002a22.897 22.897 0 0 0 21.716-15.571l13.23-39.183 4.431 22.647c1.182 6.034 6.497 10.414 12.64 10.414.749 0 1.506-.066 2.249-.197 2.55-.46 5.077 1.262 5.625 3.771l10.18 46.658c.11.507.318.986.612 1.413l39.982 58.158c9.196 13.375 13.88 29.672 13.19 45.889a74.598 74.598 0 0 1-.374 4.915l-111.483-7.176 1.971-29.788a4.003 4.003 0 0 0-3.898-4.263l-26.07-.608 3.357-100.933c3.775 2.518 8.14 3.854 12.64 3.854zM171.304 49.679L201.7 24.456c2.953-2.453 7.164-3.166 10.768-1.815l16.918 6.344a10.771 10.771 0 0 1 6.244 6.054 10.763 10.763 0 0 1-.186 8.693 18.816 18.816 0 0 0 6.534 23.53l14.361 9.755-3.527 106.054-84.631-1.973-5.386-126.942a23.48 23.48 0 0 0 8.509-4.477zM122.25 259.464a158.549 158.549 0 0 0-15.554 6.183l-41.418 19.066a31.498 31.498 0 0 1-13.251 2.903c-4.178 0-8.253-.811-12.114-2.408a9.603 9.603 0 0 1-5.452-5.867 9.6 9.6 0 0 1 .886-7.963l1.221-2.036a25.749 25.749 0 0 0 1.651-23.152l-27.788-66.073c-6.422-15.269.346-32.63 15.405-39.525l52.618-24.09a3.986 3.986 0 0 0 1.454-1.133l47.462-59.12a14.515 14.515 0 0 1 11.375-5.451c2.324 0 4.646.568 6.716 1.645a23.608 23.608 0 0 0 9.366 2.602l8.09 190.701-40.667 13.718zm143.407 38.3l-9.456-23.64c-1.823-4.559-6.181-7.504-11.103-7.504-3.379 0-6.501 1.381-8.792 3.889l-5.601 6.135a3.376 3.376 0 0 1-2.517 1.115 3.393 3.393 0 0 1-2.981-1.725l-8.336-14.588c-7.067-12.368-20.306-20.051-34.549-20.051-3.902 0-7.767.579-11.51 1.713l-2.291-53.999 114.001 2.657-7.879 119.096a36.174 36.174 0 0 1-8.986-13.098zm124.003-41.468l-25.715 42.034c-8.607 14.067-24.194 22.806-40.682 22.807-.398 0-.798-.005-1.198-.016l-23.673-.592a36.163 36.163 0 0 1-16.091-4.238l5.98-90.391 110.708 7.126a75.456 75.456 0 0 1-9.329 23.27zm-59.629 101.826l-16.469-1.372c-3.943-.318-7.595 1.333-9.95 4.418a11.247 11.247 0 0 0-1.925 9.858l6.243 22.893a4.001 4.001 0 0 0 6.834 1.623l20.896-23.219a8.474 8.474 0 0 0 1.589-8.846 8.474 8.474 0 0 0-7.218-5.355zm-.318 8.848l-15.993 17.772-4.314-15.821a3.264 3.264 0 0 1 .563-2.896 3.295 3.295 0 0 1 2.929-1.302l16.469 1.372a.473.473 0 0 1 .445.33.471.471 0 0 1-.099.545z"/></svg>