<svg xmlns="http://www.w3.org/2000/svg" viewBox="0 0 434.266 434.266"><path d="M432.748 135.864l-14.629-34.676a14.434 14.434 0 0 0-13.327-8.837c-2.605 0-5.171.714-7.42 2.063a6.427 6.427 0 0 1-3.307.921 6.421 6.421 0 0 1-5.78-3.567l-2.065-4.131a14.37 14.37 0 0 0-12.924-7.987h-8.918a14.414 14.414 0 0 0-12.06 6.49l-27.807 42.132a2.636 2.636 0 0 1-2.205 1.186l-4.656-.24c-1.325-.07-1.963-.979-2.176-1.365-.213-.388-.639-1.413.012-2.569a10.637 10.637 0 0 0 .744-8.806 10.634 10.634 0 0 0-6.162-6.33l-12.222-4.753a11.043 11.043 0 0 1-6.455-6.728 11.037 11.037 0 0 1 .98-9.272 11.083 11.083 0 0 1 5.858-4.758l34.127-11.84a49.037 49.037 0 0 0 18.491-11.585c3.277-3.277 4.212-7.97 2.441-12.246-1.75-4.224-5.811-6.953-10.346-6.953-.279 0-5.706.377-5.706.377a34.067 34.067 0 0 0-8.332 1.659l-19.717 6.572-60.152-2.577a57.547 57.547 0 0 1-16.569-3.183l-11.521-4.032a65.486 65.486 0 0 0-21.679-3.685 65.532 65.532 0 0 0-20.763 3.371l-.09.03a57.52 57.52 0 0 1-18.222 2.957c-4.033 0-8.078-.427-12.023-1.269l-39.242-8.371a71.495 71.495 0 0 0-14.881-1.569 71.072 71.072 0 0 0-25.206 4.602l-17.127 6.471a71.31 71.31 0 0 0-18.338 10.232L7.836 73.286a20.12 20.12 0 0 0 3.852 34.2l4.391 2.026c4.74 2.188 10.333 2.432 15.246.663l31.114-11.202c6.893-2.482 14.76-1.854 21.173 1.683a29.297 29.297 0 0 1 15.142 25.648 114.39 114.39 0 0 1-15.898 58.156 56.322 56.322 0 0 0-7.127 37.347 384.175 384.175 0 0 0 20.045 75.685 6.948 6.948 0 0 0 6.548 4.531c3.182 0 5.896-2.057 6.753-5.117l1.831-6.537c.022-.08.064-.23.318-.23.136 0 .187.047.25.152l10.205 17.01a14.545 14.545 0 0 1 2.074 7.486 22.522 22.522 0 0 0 9.936 18.693l25.642 17.309a23.798 23.798 0 0 0 13.361 4.087c.986 0 1.983-.061 2.962-.185 4.35-.547 8.814.773 12.17 3.587l30.305 25.389 17.507 15.224a12.552 12.552 0 0 0 16.27.171l12.408-10.34a4 4 0 1 0-1.994-7.033l-13.055-1.865-13.079-9.154a5.61 5.61 0 0 1-2.026-6.599l.551-1.448c1.583-4.155 1.082-8.663-1.376-12.369-2.457-3.706-6.416-5.923-10.859-6.081a5.527 5.527 0 0 1-4.594-2.69 5.525 5.525 0 0 1-.281-5.316l5.593-11.844c1.145-2.426.981-5.212-.439-7.452-1.431-2.258-3.954-3.661-6.584-3.661-1.354 0-2.707.37-3.912 1.07l-12.275 7.127c-4.05 2.352-9.128 2.672-13.445.848-7.507-3.176-11.151-11.917-8.124-19.485l5.506-13.766c4.089-10.223 13.444-17.141 24.416-18.055l25.927-2.16a13.419 13.419 0 0 1 13.927 9.292c1.185 3.685 4.45 6.066 8.318 6.066 3.934 0 7.31-2.538 8.401-6.316l3.228-11.174c3.167-10.959 10.793-20.25 20.924-25.49a44.72 44.72 0 0 0 19.229-19.188l.924-1.776a43.252 43.252 0 0 1 15.89-16.997l13.927-8.477a221.261 221.261 0 0 1 43.053-20.213 10.295 10.295 0 0 0 6.626-7.141c.878-3.346.03-6.887-2.269-9.473l-3.708-4.172a1.274 1.274 0 0 1-.269-1.277c.086-.267.326-.736.963-.88l21.673-4.877c.759-.167 1.264.382 1.375.541.176.252.344.664.147 1.197a10.316 10.316 0 0 0 1.213 9.462 10.366 10.366 0 0 0 9.833 4.333c5.954-.794 11.079-4.24 14.061-9.454 2.981-5.213 3.352-11.377 1.018-16.911zM59.729 91.447l-31.114 11.202a12.176 12.176 0 0 1-9.184-.399l-4.391-2.026A12.123 12.123 0 0 1 8.025 88.44a12.125 12.125 0 0 1 4.695-8.817l25.54-19.688a63.274 63.274 0 0 1 16.281-9.084l17.128-6.471a63.108 63.108 0 0 1 22.378-4.086c4.432 0 8.877.469 13.212 1.394l30.535 6.514-47.953 46.88a37.674 37.674 0 0 0-2.365-1.43c-8.403-4.637-18.714-5.456-27.747-2.205zm116.764 194.586l-5.506 13.766c-4.634 11.583.944 24.963 12.435 29.823a22.942 22.942 0 0 0 8.991 1.824c4.066 0 8.074-1.079 11.588-3.121l11.649-6.763-5.284 11.189a13.578 13.578 0 0 0 .683 12.893 13.575 13.575 0 0 0 11.141 6.523 5.549 5.549 0 0 1 4.478 2.508 5.554 5.554 0 0 1 .567 5.102l-.551 1.448a13.598 13.598 0 0 0 4.914 15.999l13.862 9.703a4.016 4.016 0 0 0 1.729.683l5.092.728-5.497 4.58c-1.658 1.382-4.268 1.355-5.898-.063l-17.563-15.271-30.36-25.436a23.917 23.917 0 0 0-15.339-5.577c-.986 0-1.982.062-2.961.185-3.81.47-7.678-.45-10.856-2.596l-25.642-17.309a14.533 14.533 0 0 1-6.411-12.063c0-4.088-1.111-8.101-3.214-11.603l-10.205-17.01c-1.517-2.527-4.174-4.036-7.11-4.036-3.782 0-7.006 2.44-8.022 6.072l-1.008 3.602c-3.671-9.962-6.894-20.102-9.711-30.355l15.096-5.489 22.508 10.316c.155.07.314.132.477.183l48.131 14.989a37.452 37.452 0 0 0-2.203 4.576zm144.452-89.662a51.262 51.262 0 0 0-18.828 20.14l-.924 1.776a36.753 36.753 0 0 1-15.808 15.773c-12.073 6.244-21.161 17.315-24.934 30.375l-3.228 11.174c-.046.161-.155.536-.715.536-.537 0-.653-.36-.702-.514a21.382 21.382 0 0 0-20.416-14.891c-.595 0-1.198.024-1.792.074l-25.926 2.16c-9.393.783-17.846 5.024-23.98 11.659l-50.505-15.729-23.768-10.893a4.002 4.002 0 0 0-3.034-.122l-15.952 5.801c-2.757-10.944-5.047-22.004-6.804-33.133a48.288 48.288 0 0 1 5.226-30.451h242.379l-10.289 6.265zm103.84-47.567a11.024 11.024 0 0 1-8.173 5.496 2.546 2.546 0 0 1-.335.022c-1.065 0-1.669-.7-1.878-1.001a2.257 2.257 0 0 1-.269-2.121c1.068-2.9.67-6.012-1.092-8.539-2.148-3.078-6.013-4.596-9.693-3.77l-21.673 4.877A9.233 9.233 0 0 0 374.85 150a9.228 9.228 0 0 0 1.905 9.044l3.708 4.172c.745.838.605 1.768.51 2.129a2.295 2.295 0 0 1-1.489 1.605 229.254 229.254 0 0 0-34.516 15.157H93.27a122.403 122.403 0 0 0 13.484-55.803A37.28 37.28 0 0 0 96.06 100.19l51.145-50.001a65.752 65.752 0 0 0 12.989 1.313 65.532 65.532 0 0 0 20.763-3.371l.09-.03a57.524 57.524 0 0 1 18.222-2.957 57.51 57.51 0 0 1 19.037 3.235l11.521 4.032a65.537 65.537 0 0 0 18.869 3.624l60.889 2.609c.487.024.974-.047 1.437-.201l20.416-6.806a26.022 26.022 0 0 1 6.372-1.269s5.045-.357 5.137-.357c1.967 0 2.759 1.542 2.955 2.015.249.6.677 2.144-.707 3.528a40.984 40.984 0 0 1-15.456 9.683l-34.128 11.84a19.099 19.099 0 0 0-10.096 8.201 19.021 19.021 0 0 0-1.69 15.979 19.021 19.021 0 0 0 11.125 11.592l12.223 4.754a2.608 2.608 0 0 1 1.529 1.571c.151.424.33 1.271-.185 2.187a10.58 10.58 0 0 0-.049 10.348 10.578 10.578 0 0 0 8.766 5.497l4.515.237a10.635 10.635 0 0 0 9.442-4.765l27.807-42.132a6.433 6.433 0 0 1 5.383-2.897h8.918a6.416 6.416 0 0 1 5.769 3.565l2.065 4.131c2.464 4.929 7.421 7.99 12.936 7.989 2.608 0 5.174-.713 7.422-2.062a6.422 6.422 0 0 1 3.304-.923 6.45 6.45 0 0 1 5.956 3.946l14.629 34.676a11.039 11.039 0 0 1-.595 9.833z"/></svg>