<svg xmlns="http://www.w3.org/2000/svg" viewBox="0 0 416.058 416.058"><path d="M334.675 117.601c-2.433-9.59-9.084-17.226-18.25-20.949l-56.296-22.87a14.184 14.184 0 0 1-7.081-6.305l-8.458-15.425a22.156 22.156 0 0 0-20.427-11.477c-5.146.229-10.04-2.391-12.707-6.74l-5.538-9.036c-5.559-9.07-14.702-15.607-25.084-17.935L154.487.959A39.543 39.543 0 0 0 145.835 0a39.67 39.67 0 0 0-25.158 9.025l-11.331 9.332c-6.799 5.599-8.463 15.489-3.87 23.005a9.773 9.773 0 0 1-.387 10.791L89.341 74.2c-9.535 13.349-11.566 30.402-5.435 45.617l10.715 26.589c5.043 12.515 14.217 23.186 25.832 30.048 16.192 9.568 26.881 25.751 29.327 44.399l19.898 151.725c.034.253.091.502.171.744l3.952 11.857c5.947 17.84 22.574 30.06 41.374 30.407l25.394.47a1.876 1.876 0 0 0 .094.001 4 4 0 0 0 2.294-7.277l-11.719-9.698c-9.891-8.185-15.442-20.242-15.232-33.08l.346-21.126a25.182 25.182 0 0 1 13.963-22.181l.947-.474c6.997-3.498 10.408-11.733 7.934-19.156a7.776 7.776 0 0 1 .89-6.78 7.779 7.779 0 0 1 5.884-3.49l.534-.045a15.81 15.81 0 0 0 14.053-11.994l7.293-29.694c2.597-10.575 10.33-18.901 20.685-22.272a39.172 39.172 0 0 0 27.109-37.337v-22.798a22.839 22.839 0 0 1 5.185-14.469l7.786-9.47c6.283-7.642 8.493-17.526 6.06-27.115zM224.527 48.567a14.124 14.124 0 0 1 13.05 7.331l1.433 2.613-30.516 6.721-10.945-20.931 5.157-9.436 1.93 3.149c4.174 6.811 11.862 10.902 19.891 10.553zM152.739 8.765l26.346 5.905c7.544 1.691 14.26 6.174 18.751 12.427l-18.804 34.4-15.705 3.112a3.993 3.993 0 0 0 .271-2.16l-4-26a3.998 3.998 0 0 0-1.208-2.3l-24.986-23.587A31.62 31.62 0 0 1 145.835 8c2.317 0 4.64.257 6.904.765zm-41.14 48.039a17.759 17.759 0 0 0 .704-19.613c-2.527-4.135-1.612-9.577 2.129-12.657l11.331-9.332c.161-.133.328-.258.492-.388l25.645 24.21 3.614 23.488-12.759 28.92-40.009-22.234 8.853-12.394zm-20.273 60.023c-5.104-12.667-3.413-26.864 4.525-37.977l2.216-3.102 41.052 22.814-17.345 29.486-21.388 11.26-9.06-22.481zm33.196 52.74c-9.073-5.361-16.425-13.397-21.012-22.863l22.997-12.108a3.998 3.998 0 0 0 1.584-1.511l20-34 11.298-25.541 23.032-4.563a3.997 3.997 0 0 0 2.732-2.005l7.781-14.234 7.463 14.274-.614.135a4 4 0 0 0-2.271 1.417l-31 39a3.998 3.998 0 0 0-.869 2.489v38c0 1.245.58 2.419 1.568 3.176l42.891 32.853-28.393 22.148a4.001 4.001 0 0 0-1.511 3.63l4.993 41.656-22.992 2.516-4.488-34.224c-2.767-21.103-14.863-39.417-33.189-50.245zm84.854 208.769l-32.105-9.385-1.341-10.224 32.116 4.779-.039 2.366a50.388 50.388 0 0 0 1.369 12.464zm16.763 26.91l3.143 2.601-13.957-.258c-15.419-.286-29.056-10.308-33.933-24.939l-1.537-4.61 32.694 9.557c3.092 6.731 7.693 12.768 13.59 17.649zm-17.785-60.501l-.175 10.693-33.33-4.96-11.608-88.508 23.98-2.624 29.533 63.848a33.149 33.149 0 0 0-8.4 21.551zm77.704-123.563c-13.004 4.234-22.716 14.691-25.978 27.972l-7.293 29.694a7.817 7.817 0 0 1-6.949 5.93l-.535.045a15.732 15.732 0 0 0-11.896 7.06 15.732 15.732 0 0 0-1.801 13.713c1.224 3.67-.463 7.741-3.924 9.472l-.947.474a33.386 33.386 0 0 0-3.704 2.168l-29.491-63.755-5.13-42.798 29.187-22.767 85.156 19.859a31.207 31.207 0 0 1-16.695 12.933zm36.377-81.546l-7.786 9.47a30.853 30.853 0 0 0-7.005 19.549v22.798c0 3.251-.51 6.403-1.443 9.383l-87.809-20.477-44.748-34.274v-34.629l29.248-36.796 40.125-8.838 3.017 5.502a22.214 22.214 0 0 0 11.084 9.871l56.296 22.87c6.784 2.756 11.707 8.406 13.507 15.504 1.8 7.096.164 14.411-4.486 20.067z"/></svg>