<svg xmlns="http://www.w3.org/2000/svg" viewBox="0 0 512.43 512.43"><path d="M74.96 51.886c-4.565 1.143-7.347 5.777-6.204 10.351 1.143 4.574 5.786 7.364 10.351 6.204 36.659-9.173 163.362-30.08 275.831 77.116l-13.517 13.517c-57.028-54.758-115.61-79.36-188.877-79.36-21.111 0-43.486 2.014-68.386 6.17-4.582.759-7.714 5.052-7.031 9.66l42.044 285.867-27.699 27.699-29.431-7.356c-4.557-1.152-9.207 1.638-10.351 6.204-1.143 4.574 1.638 9.208 6.204 10.351l19.507 4.881-11.529 11.52-29.431-7.356c-4.557-1.152-9.207 1.638-10.351 6.204-1.143 4.574 1.638 9.207 6.204 10.351l19.507 4.881-11.52 11.529-29.44-7.364c-4.557-1.143-9.207 1.638-10.351 6.204-1.143 4.574 1.638 9.208 6.204 10.351l29.167 7.296 7.296 29.167a8.535 8.535 0 0 0 10.351 6.204c4.565-1.143 7.347-5.769 6.204-10.351l-7.364-29.44 11.529-11.529 4.881 19.516a8.535 8.535 0 0 0 10.351 6.204c4.565-1.143 7.347-5.768 6.204-10.351l-7.364-29.448 11.529-11.529 4.881 19.524a8.535 8.535 0 0 0 10.351 6.204c4.565-1.143 7.347-5.769 6.204-10.351l-7.364-29.457 27.665-27.674 285.909 42.044c.427.068.845.094 1.254.094 4.105 0 7.714-2.961 8.405-7.125 18.193-109.133-3.166-184.329-73.31-257.34l13.534-13.551c107.281 112.563 86.383 239.275 77.218 275.942-1.143 4.574 1.638 9.207 6.204 10.351a8.535 8.535 0 0 0 10.351-6.204c9.882-39.552 32.785-177.92-87.612-298.308C252.854 19.083 114.503 42.004 74.96 51.886zm20.275 49.518c20.668-3.106 39.492-4.625 57.31-4.625 68.395 0 123.255 23.057 176.819 74.359L134.207 366.365 95.235 101.404zm316.024 316.024l-265.011-38.98 195.157-195.217c63.966 66.756 84.608 135.671 69.854 234.197zM509.682 2.486C507.387.208 503.99-.595 500.935.455l-76.8 25.95a8.534 8.534 0 0 0-5.777 7.501 8.52 8.52 0 0 0 4.693 8.218L446.594 53.9 386.7 113.795c-3.337 3.328-3.337 8.73 0 12.066a8.51 8.51 0 0 0 6.033 2.5 8.509 8.509 0 0 0 6.033-2.5l59.896-59.896 11.776 23.544a8.535 8.535 0 0 0 7.629 4.719c.205 0 .41-.009.614-.026a8.527 8.527 0 0 0 7.484-5.82l25.6-77.158a8.545 8.545 0 0 0-2.083-8.738zM476.47 63.414l-7.834-15.676a8.56 8.56 0 0 0-3.823-3.814l-15.812-7.91 41.173-13.909-13.704 41.309z"/></svg>