<svg xmlns="http://www.w3.org/2000/svg" viewBox="0 0 512.329 512.329"><path d="M270.566 122.135c-3.328-3.337-8.73-3.337-12.066 0-3.336 3.328-3.336 8.73 0 12.066l119.467 119.467a8.51 8.51 0 0 0 6.033 2.5 8.509 8.509 0 0 0 6.033-2.5c3.337-3.337 3.337-8.738 0-12.066L270.566 122.135zm-219.195 330.3c-4.71 0-8.491 3.823-8.491 8.533 0 4.71 3.866 8.533 8.576 8.533a8.53 8.53 0 0 0 8.533-8.533 8.53 8.53 0 0 0-8.533-8.533h-.085z"/><path d="M502.349 192.151a8.59 8.59 0 0 0-7.415-4.25c-34.338 0-73.267 0-121.967-48.7-2.338-2.347-4.471-4.642-6.588-6.938l34.688-34.697 13.534 13.534-19.533 19.533c-3.337 3.328-3.337 8.73 0 12.066 1.664 1.664 3.849 2.5 6.033 2.5s4.369-.836 6.033-2.5l25.566-25.566c3.337-3.336 3.337-8.738 0-12.066l-25.6-25.6c-3.328-3.336-8.73-3.336-12.066 0l-39.765 39.765c-30.908-39.569-31.002-72.491-31.002-101.999a8.521 8.521 0 0 0-4.301-7.407c-.683-.401-17.186-9.668-42.633-9.668-23.023 0-58.3 7.834-95.633 45.175-72.03 72.03-37.035 135.595-35.507 138.257a8.53 8.53 0 0 0 7.407 4.309c34.347 0 73.267 0 121.967 48.7 2.347 2.338 4.48 4.642 6.596 6.938L85.171 440.531a8.521 8.521 0 0 0-1.997 8.926c1.451 4.045 2.159 7.808 2.159 11.511 0 18.816-15.309 34.133-34.133 34.133-18.816 0-34.133-15.317-34.133-34.133 0-18.825 15.317-34.133 34.133-34.133 3.721 0 7.484.7 11.503 2.159a8.528 8.528 0 0 0 8.934-1.997L253.534 245.1c3.337-3.337 3.337-8.738 0-12.066a8.523 8.523 0 0 0-12.066 0L63.189 411.305c-4.036-1.024-8.055-1.536-11.989-1.536-28.228 0-51.2 22.963-51.2 51.2 0 28.228 22.972 51.2 51.2 51.2 28.237 0 51.2-22.972 51.2-51.2 0-3.985-.503-7.945-1.536-11.998l192.401-192.41c30.908 39.569 31.002 72.482 31.002 102.008a8.54 8.54 0 0 0 4.301 7.407c.691.393 17.195 9.651 42.633 9.651 23.023 0 58.308-7.834 95.633-45.158 72.421-72.432 37.059-135.664 35.515-138.318zm-47.582 126.251c-26.274 26.274-55.177 40.158-83.567 40.158-13.79 0-24.346-3.277-29.875-5.47-.128-30.362-2.475-69.862-41.301-115.098-.043-.043-.06-.102-.094-.154-.017-.017-.043-.026-.068-.043-3.763-4.378-7.748-8.781-12.228-13.261-50.876-50.876-95.224-53.555-128.572-53.692-5.589-14.046-18.022-60.715 34.705-113.442 26.658-26.658 54.775-40.175 83.567-40.175 13.781 0 24.354 3.285 29.875 5.478.128 30.319 2.483 69.743 41.114 114.876.102.119.145.282.265.401.051.051.119.068.171.12 3.746 4.343 7.697 8.721 12.143 13.167 50.893 50.893 95.258 53.555 128.649 53.692 5.63 13.936 18.259 60.4-34.784 113.443z"/></svg>