<svg xmlns="http://www.w3.org/2000/svg" viewBox="0 0 512.002 512.002"><path d="M128.001 204.801c4.71 0 8.533-3.823 8.533-8.533s-3.823-8.533-8.533-8.533c-14.114 0-25.6 11.486-25.6 25.6v34.133c0 12.211 8.585 22.443 20.045 24.994 6.485 12.783 26.598 51.823 41.122 73.609 15.821 23.723 48.862 63.531 92.433 63.531 43.571 0 76.612-39.808 92.433-63.531 14.524-21.786 34.637-60.826 41.122-73.609 11.452-2.551 20.045-12.783 20.045-24.994v-34.133c0-14.114-11.486-25.6-25.6-25.6-4.719 0-8.533 3.823-8.533 8.533s3.814 8.533 8.533 8.533c4.71 0 8.533 3.831 8.533 8.533v34.133c0 4.702-3.823 8.533-8.533 8.533a8.541 8.541 0 0 0-7.637 4.719c-.247.503-25.557 51.021-42.129 75.878-5.914 8.883-14.532 20.309-25.182 30.532-2.338-.606-32.367-8.653-47.019-23.296a8.523 8.523 0 0 0-12.066 0c-14.643 14.643-44.681 22.69-47.01 23.296-10.658-10.223-19.268-21.649-25.19-30.532-16.572-24.858-41.882-75.375-42.129-75.878a8.542 8.542 0 0 0-7.637-4.719c-4.702 0-8.533-3.831-8.533-8.533v-34.133c-.001-4.702 3.83-8.533 8.532-8.533zm128 156.39c11.665 9.071 26.743 15.3 37.12 18.884-11.093 7.398-23.603 12.459-37.12 12.459-13.517 0-26.027-5.06-37.12-12.459 10.376-3.583 25.463-9.813 37.12-18.884z"/><path d="M256.001 247.468a8.536 8.536 0 0 0-8.533 8.533v22.707c-15.198 19.558-50.842 19.959-51.208 19.959-4.71.017-8.525 3.84-8.516 8.542.009 4.71 3.814 8.525 8.525 8.525 1.724 0 38.135-.265 59.733-20.958 21.598 20.693 58.018 20.958 59.733 20.958 4.719 0 8.533-3.823 8.533-8.533s-3.814-8.533-8.533-8.533c-10.24 0-38.528-3.78-51.2-20.139v-22.528a8.537 8.537 0 0 0-8.534-8.533zm-132.83-74.036c3.584 2.466 8.457 1.826 11.298-1.468.23-.265 23.595-26.897 53.265-26.897 10.095 0 15.539 1.408 22.434 3.183 9.225 2.389 20.71 5.35 45.833 5.35 23.467 0 34.935-2.569 45.056-4.83 8.892-1.988 16.572-3.703 31.744-3.703 28.578 0 43.204 24.55 43.793 25.566a8.531 8.531 0 0 0 5.504 4.087 8.502 8.502 0 0 0 1.903.213 8.57 8.57 0 0 0 4.83-1.502c12.023-8.26 71.97-50.927 71.97-79.565 0-13.466-6.613-45.329-67.917-50.509-4.574-.35-8.815 3.098-9.216 7.791s3.081 8.823 7.782 9.225c19.524 1.647 52.284 8.192 52.284 33.493 0 13.338-31.787 41.813-57.737 60.663-8.218-10.086-25.822-26.53-53.197-26.53-17.058 0-26.419 2.091-35.465 4.113-9.711 2.176-19.755 4.42-41.336 4.42-22.955 0-32.845-2.551-41.566-4.804-7.424-1.92-14.447-3.729-26.701-3.729-28.305 0-50.842 17.826-60.766 27.23-26.121-18.833-58.701-47.855-58.701-61.363 0-21.692 24.883-34.133 68.267-34.133 27.597 0 41.156 7.748 55.501 15.94 15.65 8.943 31.829 18.193 63.966 18.193s48.06-9.216 63.462-18.125c11.349-6.571 22.067-12.774 39.996-15.01a8.531 8.531 0 0 0 6.596-4.693 8.532 8.532 0 0 0-.29-8.09C364.611 45.994 336.767-.001 255.999-.001c-29.448 0-55.185 6.11-76.493 18.167-4.096 2.321-5.538 7.526-3.217 11.631 2.313 4.096 7.526 5.555 11.631 3.226 18.705-10.59 41.609-15.957 68.079-15.957 48.307 0 74.615 17.852 86.673 29.568-13.099 3.533-22.545 9.003-31.761 14.328C296.84 69.111 283.553 76.8 255.999 76.8c-27.597 0-41.156-7.748-55.501-15.94-15.65-8.951-31.829-18.193-63.966-18.193-77.013 0-85.333 35.806-85.333 51.2.002 28.638 59.949 71.305 71.972 79.565zm175.497 48.436c0 4.71 3.814 8.533 8.533 8.533s8.533-3.823 8.533-8.533h8.533a8.53 8.53 0 0 0 8.533-8.533 8.53 8.53 0 0 0-8.533-8.533h-34.133a8.53 8.53 0 0 0-8.533 8.533 8.53 8.53 0 0 0 8.533 8.533h8.534zm213.077 279.526l-8.533-34.133c-8.124-32.495-36.617-49.007-84.651-49.109l.017-.017c5.171-8.969 8.977-23.142-2.33-39.765a8.537 8.537 0 0 0-2.739-2.56l-42.257-24.772c-4.087-2.398-9.31-1.015-11.674 3.046a8.535 8.535 0 0 0 3.038 11.682l40.508 23.74c4.352 7.134 4.54 13.389.674 20.087-2.833 4.898-6.349 7.543-11.213 8.695l-29.85-22.878a8.553 8.553 0 0 0-11.972 1.587c-2.859 3.738-2.15 9.097 1.587 11.964l29.815 22.844c.102 4.983-1.604 9.25-5.487 13.133-3.994 3.994-8.064 5.666-13.082 5.504l-22.912-29.824c-2.867-3.729-8.218-4.437-11.964-1.57-3.738 2.876-4.446 8.235-1.57 11.972l22.886 29.773c-1.195 4.838-3.942 8.525-8.704 11.273-4.881 2.825-9.25 3.362-14.054 1.92l-14.413-34.731c-1.809-4.361-6.792-6.409-11.162-4.617-4.344 1.809-6.417 6.801-4.608 11.153l14.404 34.688c-2.406 4.369-6.016 7.211-11.324 8.636-5.461 1.459-9.822.845-14.08-1.784l-4.932-37.282c-.614-4.659-4.872-7.987-9.574-7.339-4.676.623-7.962 4.907-7.339 9.583l4.924 37.231c-3.447 3.601-7.671 5.41-13.175 5.41-5.649 0-9.694-1.715-13.133-5.367l4.89-37.291c.606-4.676-2.688-8.96-7.356-9.574-4.651-.589-8.96 2.679-9.574 7.356l-4.873 37.239c-4.275 2.586-8.823 3.234-14.123 1.818-5.453-1.459-8.926-4.173-11.298-8.585l14.37-34.756c1.801-4.352-.273-9.344-4.625-11.145-4.335-1.784-9.344.273-11.153 4.634l-14.353 34.714c-4.787 1.382-9.344.836-14.106-1.92-4.89-2.816-7.535-6.332-8.687-11.204l22.878-29.85c2.867-3.746 2.15-9.105-1.587-11.972-3.738-2.85-9.088-2.142-11.964 1.587l-22.844 29.815c-4.992.094-9.25-1.604-13.133-5.487-3.994-4.002-5.649-8.081-5.495-13.09l29.824-22.904c3.729-2.876 4.429-8.235 1.562-11.972-2.867-3.738-8.226-4.437-11.964-1.562l-29.79 22.878c-4.838-1.186-8.516-3.934-11.255-8.695-3.934-6.81-3.772-12.587.708-20.147l40.457-23.689c4.07-2.381 5.436-7.612 3.055-11.674-2.372-4.062-7.603-5.436-11.674-3.055l-42.283 24.755a8.587 8.587 0 0 0-2.833 2.705c-3.294 5.052-13.295 20.429-2.219 39.629.008.017.017.017.017.026-48.034.102-76.527 16.614-84.651 49.109L.254 501.393c-1.143 4.574 1.638 9.207 6.204 10.351a8.535 8.535 0 0 0 10.351-6.204l8.533-34.133c6.093-24.363 28.51-36.207 68.523-36.207 4.104 0 7.381-2.97 8.192-6.835a33.322 33.322 0 0 0 10.633 5.845c.427 8.55 3.959 16.188 10.564 22.801 6.485 6.485 14.251 10.052 22.775 10.539 2.62 8.158 8.013 14.618 16.102 19.285 7.945 4.591 16.367 6.042 24.73 4.301 4.642 7.194 11.529 12.049 20.548 14.464 8.866 2.372 17.374 1.587 25.003-2.253 6.34 5.751 14.242 8.653 23.586 8.653 9.182 0 17.203-2.97 23.569-8.653 7.629 3.917 16.017 4.668 25.02 2.253 8.858-2.372 15.838-7.305 20.523-14.447 8.388 1.792 16.657.367 24.755-4.309 7.945-4.591 13.397-11.162 16.077-19.277 8.55-.418 16.188-3.951 22.801-10.556 6.485-6.485 10.052-14.251 10.547-22.784a32.28 32.28 0 0 0 10.658-5.803c.836 3.84 4.096 6.775 8.183 6.775 40.021 0 62.43 11.844 68.523 36.207l8.533 34.133a8.535 8.535 0 0 0 8.269 6.46c.683 0 1.382-.077 2.074-.256a8.533 8.533 0 0 0 6.215-10.349zM221.868 204.801h-34.133a8.536 8.536 0 0 0-8.533 8.533 8.536 8.536 0 0 0 8.533 8.533h8.533a8.536 8.536 0 0 0 8.533 8.533 8.536 8.536 0 0 0 8.533-8.533h8.533a8.536 8.536 0 0 0 8.533-8.533c.001-4.71-3.822-8.533-8.532-8.533zm25.6 110.933c-4.71 0-8.533 3.823-8.533 8.533s3.823 8.533 8.533 8.533h17.067c4.719 0 8.533-3.823 8.533-8.533s-3.814-8.533-8.533-8.533h-17.067z"/></svg>