<svg xmlns="http://www.w3.org/2000/svg" viewBox="0 0 512 512"><path d="M170.667 435.2c-3.106 0-6.025.836-8.533 2.295-5.018-2.918-12.049-2.918-17.067 0-5.018-2.918-12.049-2.918-17.067 0-5.018-2.918-12.049-2.918-17.067 0-5.018-2.918-12.049-2.918-17.067 0-5.018-2.918-12.049-2.918-17.067 0-5.018-2.918-12.049-2.918-17.067 0-5.018-2.918-12.049-2.918-17.067 0-5.018-2.918-12.049-2.918-17.067 0a16.93 16.93 0 0 0-8.533-2.295V136.533h17.067v25.6a8.53 8.53 0 0 0 8.533 8.533H76.8a8.53 8.53 0 0 0 8.533-8.533v-25.6H102.4V409.6c0 4.71 3.814 8.533 8.533 8.533s8.533-3.823 8.533-8.533V128a8.53 8.53 0 0 0-8.533-8.533H76.8A8.53 8.53 0 0 0 68.267 128v25.6H51.2V128a8.53 8.53 0 0 0-8.533-8.533H8.533A8.53 8.53 0 0 0 0 128v358.4a8.53 8.53 0 0 0 8.533 8.533H179.2a8.53 8.53 0 0 0 8.533-8.533v-34.133c0-9.413-7.663-17.067-17.066-17.067zm0 42.667h-153.6v-25.6c0 4.71 3.814 8.533 8.533 8.533s8.533-3.823 8.533-8.533c0 4.71 3.814 8.533 8.533 8.533s8.533-3.823 8.533-8.533c0 4.71 3.814 8.533 8.533 8.533s8.533-3.823 8.533-8.533c0 4.71 3.814 8.533 8.533 8.533s8.533-3.823 8.533-8.533a8.53 8.53 0 0 0 8.533 8.533 8.53 8.53 0 0 0 8.533-8.533c0 4.71 3.814 8.533 8.533 8.533s8.533-3.823 8.533-8.533c0 4.71 3.814 8.533 8.533 8.533s8.533-3.823 8.533-8.533c0 4.71 3.814 8.533 8.533 8.533s8.533-3.823 8.533-8.533c0 4.71 3.814 8.533 8.533 8.533s8.533-3.823 8.533-8.533v25.6zM230.4 153.6a8.53 8.53 0 0 0 8.533-8.533V34.133H307.2v34.133h-42.667c-4.719 0-8.533 3.823-8.533 8.533s3.814 8.533 8.533 8.533h51.2a8.53 8.53 0 0 0 8.533-8.533V25.6a8.53 8.53 0 0 0-8.533-8.533H230.4a8.53 8.53 0 0 0-8.533 8.533v119.467a8.53 8.53 0 0 0 8.533 8.533zm-85.333 34.133h17.067v25.6a8.53 8.53 0 0 0 8.533 8.533H204.8a8.53 8.53 0 0 0 8.533-8.533v-25.6H230.4v25.6a8.53 8.53 0 0 0 8.533 8.533h34.133a8.53 8.53 0 0 0 8.533-8.533v-25.6h17.067v25.6a8.53 8.53 0 0 0 8.533 8.533h34.133a8.53 8.53 0 0 0 8.533-8.533v-25.6h17.067a8.53 8.53 0 0 0 8.533-8.533 8.53 8.53 0 0 0-8.533-8.533h-25.6a8.53 8.53 0 0 0-8.533 8.533v25.6h-17.067v-25.6a8.53 8.53 0 0 0-8.533-8.533h-34.133a8.53 8.53 0 0 0-8.533 8.533v25.6h-17.067v-25.6a8.53 8.53 0 0 0-8.533-8.533H204.8a8.53 8.53 0 0 0-8.533 8.533v25.6H179.2v-25.6a8.53 8.53 0 0 0-8.533-8.533h-25.6a8.53 8.53 0 0 0-8.533 8.533 8.53 8.53 0 0 0 8.533 8.533zm358.4-68.266h-34.133a8.53 8.53 0 0 0-8.533 8.533v25.6h-17.067V128a8.53 8.53 0 0 0-8.533-8.533h-34.133a8.53 8.53 0 0 0-8.533 8.533v281.6a8.53 8.53 0 0 0 8.533 8.533 8.53 8.53 0 0 0 8.533-8.533V136.533h17.067v25.6a8.53 8.53 0 0 0 8.533 8.533h34.133a8.53 8.53 0 0 0 8.533-8.533v-25.6h17.067V435.2c-3.106 0-6.025.836-8.533 2.295-5.018-2.918-12.049-2.918-17.067 0-5.018-2.918-12.049-2.918-17.067 0-5.018-2.918-12.049-2.918-17.067 0-5.018-2.918-12.049-2.918-17.067 0-5.018-2.918-12.049-2.918-17.067 0-5.018-2.918-12.049-2.918-17.067 0-5.018-2.918-12.049-2.918-17.067 0-5.018-2.918-12.049-2.918-17.067 0a16.93 16.93 0 0 0-8.533-2.295c-9.412 0-17.067 7.654-17.067 17.067V486.4a8.53 8.53 0 0 0 8.533 8.533h170.667a8.53 8.53 0 0 0 8.533-8.533V128a8.528 8.528 0 0 0-8.531-8.533zm-8.534 358.4h-153.6v-25.6c0 4.71 3.814 8.533 8.533 8.533s8.533-3.823 8.533-8.533c0 4.71 3.814 8.533 8.533 8.533s8.533-3.823 8.533-8.533a8.53 8.53 0 0 0 8.533 8.533 8.53 8.53 0 0 0 8.533-8.533 8.53 8.53 0 0 0 8.533 8.533 8.53 8.53 0 0 0 8.533-8.533c0 4.71 3.814 8.533 8.533 8.533s8.533-3.823 8.533-8.533c0 4.71 3.814 8.533 8.533 8.533s8.533-3.823 8.533-8.533a8.53 8.53 0 0 0 8.533 8.533 8.53 8.53 0 0 0 8.533-8.533c0 4.71 3.814 8.533 8.533 8.533s8.533-3.823 8.533-8.533c0 4.71 3.814 8.533 8.533 8.533s8.533-3.823 8.533-8.533v25.6z"/><path d="M204.8 281.6c0-14.114-11.486-25.6-25.6-25.6s-25.6 11.486-25.6 25.6v34.133a8.53 8.53 0 0 0 8.533 8.533h34.133a8.53 8.53 0 0 0 8.533-8.533V281.6zm-17.067 25.6h-17.067v-25.6c0-4.702 3.823-8.533 8.533-8.533s8.533 3.831 8.533 8.533v25.6zm170.667 8.533V281.6c0-14.114-11.486-25.6-25.6-25.6s-25.6 11.486-25.6 25.6v34.133a8.53 8.53 0 0 0 8.533 8.533h34.133a8.53 8.53 0 0 0 8.534-8.533zm-17.067-8.533h-17.067v-25.6c0-4.702 3.823-8.533 8.533-8.533 4.71 0 8.533 3.831 8.533 8.533v25.6zM256 358.4c-28.237 0-51.2 22.963-51.2 51.2v76.8a8.53 8.53 0 0 0 8.533 8.533h85.333a8.53 8.53 0 0 0 8.533-8.533v-76.8c.001-28.237-22.962-51.2-51.199-51.2zm34.133 119.467h-68.267V460.8h68.267v17.067zm0-34.134h-68.267v-17.067h68.267v17.067zM221.867 409.6c0-18.825 15.309-34.133 34.133-34.133 18.825 0 34.133 15.309 34.133 34.133h-68.266z"/></svg>