<svg xmlns="http://www.w3.org/2000/svg" viewBox="0 0 512.498 512.498"><path d="M164.865 386.862l-102.4 102.4c-8.141 8.149-13.909 8.141-22.059.009l-17.075-17.075c-3.968-3.977-5.99-7.68-5.999-11.008-.009-3.345 2.005-7.074 5.999-11.059l102.4-102.4c3.337-3.336 3.337-8.738 0-12.066a8.523 8.523 0 0 0-12.066 0l-102.4 102.4c-14.686 14.677-14.686 31.514 0 46.2l17.075 17.075c7.45 7.441 15.266 11.162 23.091 11.162s15.65-3.721 23.1-11.17l102.4-102.4c3.337-3.336 3.337-8.738 0-12.066a8.521 8.521 0 0 0-12.066-.002z"/><path d="M404.728 119.93l53.965-53.965 11.776 23.544a8.535 8.535 0 0 0 7.629 4.719c.205 0 .41-.009.614-.026a8.527 8.527 0 0 0 7.484-5.82l25.6-77.158a8.526 8.526 0 0 0-2.082-8.738c-2.295-2.278-5.683-3.081-8.747-2.031l-76.8 25.95a8.534 8.534 0 0 0-5.777 7.501 8.52 8.52 0 0 0 4.693 8.218L446.626 53.9l-53.982 53.973C285.748 5.84 151.331.54 145.554.361c-2.688-.188-5.222 1.101-6.903 3.174a8.548 8.548 0 0 0-1.63 7.424l8.533 34.133c.947 3.797 4.83 6.46 8.747 6.46 1.741 0 10.078.137 24.132 2.483L136.841 366.16c-.026.171.06.324.051.495-.068.87.051 1.698.247 2.543.077.341.068.691.196 1.024.41 1.126 1.024 2.193 1.929 3.106a8.423 8.423 0 0 0 2.799 1.852 8.354 8.354 0 0 0 4.36.571l57.856-7.706c.008 0 .026-.008.034-.008l254.199-33.877c2.56 15.505 2.509 24.405 2.509 24.508-.034 3.942 2.637 7.415 6.46 8.371l34.142 8.533a8.512 8.512 0 0 0 7.245-1.493 8.542 8.542 0 0 0 3.362-6.579c.129-5.496 1.81-133.658-107.502-247.57zm85.478-97.826l-13.705 41.31-7.834-15.676a8.56 8.56 0 0 0-3.823-3.814l-15.812-7.91 41.174-13.91zm-12.373 329.925c-.401-6.059-1.425-15.966-3.994-29.047a8.524 8.524 0 0 0-9.506-6.818l-236.109 31.462 144.973-144.964c3.337-3.337 3.337-8.738 0-12.066-3.328-3.337-8.73-3.337-12.066 0L200.38 351.346l-31.223 4.156 197.897-197.905c47.59 49.775 70.63 100.813 81.579 135.467 1.143 3.635 4.506 5.965 8.132 5.965.853 0 1.715-.128 2.569-.401 4.497-1.417 6.989-6.212 5.572-10.709-11.972-37.888-37.589-94.413-91.708-148.523-54.195-54.204-110.814-79.829-148.77-91.785-4.489-1.417-9.284 1.084-10.701 5.581-1.417 4.489 1.084 9.284 5.581 10.692 34.705 10.94 85.828 33.988 135.68 81.647L157.082 343.435l4.164-31.232 160.751-160.742c3.337-3.336 3.337-8.738 0-12.066-3.328-3.337-8.73-3.337-12.066 0L164.958 284.359 196.42 48.233a8.53 8.53 0 0 0-6.801-9.498c-13.056-2.594-22.801-3.61-29.065-4.011l-4.096-16.384c35.192 3.729 144.683 21.931 230.272 107.52 91.546 91.537 105.839 196.864 108.041 230.409l-16.938-4.24zM51.602 452.628c-4.71 0-8.491 3.823-8.491 8.533s3.866 8.533 8.576 8.533c4.719 0 8.533-3.823 8.533-8.533s-3.814-8.533-8.533-8.533h-.085z"/></svg>