<svg xmlns="http://www.w3.org/2000/svg" viewBox="0 0 512 512"><path d="M327.467 228.531a8.54 8.54 0 0 0 11.998-1.34l22.69-28.365 4.941 24.713c.811 4.053 4.378 6.861 8.363 6.861.546 0 1.118-.051 1.681-.171 4.617-.922 7.62-5.419 6.69-10.035l-6.895-34.5c9.156-3.9 15.599-12.988 15.599-23.561 0-14.114-11.486-25.6-25.6-25.6s-25.6 11.486-25.6 25.6c0 8.841 4.497 16.64 11.332 21.24l-26.53 33.169c-2.945 3.678-2.347 9.045 1.331 11.989zm39.466-74.931c4.71 0 8.533 3.831 8.533 8.533s-3.823 8.533-8.533 8.533-8.533-3.831-8.533-8.533 3.823-8.533 8.533-8.533z"/><path d="M477.867 102.4c-18.825 0-34.133 15.309-34.133 34.133 0 10.684 5.035 20.122 12.749 26.385L335.838 283.554l-68.036-166.315c12.996-4.83 22.332-17.246 22.332-31.906 0-18.825-15.309-34.133-34.133-34.133-18.825 0-34.133 15.309-34.133 34.133 0 14.66 9.335 27.076 22.332 31.906l-68.036 166.315L55.518 162.918c7.714-6.263 12.749-15.701 12.749-26.385 0-18.825-15.309-34.133-34.133-34.133C15.309 102.4 0 117.709 0 136.533s15.309 34.133 34.133 34.133c.41 0 .794-.111 1.195-.119l33.041 214.75a8.533 8.533 0 0 0 8.431 7.236h324.267c4.719 0 8.533-3.823 8.533-8.533s-3.814-8.533-8.533-8.533H84.122L55.066 186.598 173.167 304.7a8.497 8.497 0 0 0 7.714 2.33 8.532 8.532 0 0 0 6.221-5.137L256 133.47l68.898 168.422a8.54 8.54 0 0 0 13.935 2.807l118.101-118.101-30.165 196.105c-.222 1.391.034 2.79.572 4.087l-.58 56.943H85.333v-25.6c0-4.71-3.814-8.533-8.533-8.533s-8.533 3.823-8.533 8.533v34.133a8.53 8.53 0 0 0 8.533 8.533h358.4a8.535 8.535 0 0 0 8.533-8.448l.708-68.267a6.746 6.746 0 0 0-.307-2.048l32.538-211.49c.401.009.785.119 1.195.119 18.825 0 34.133-15.309 34.133-34.133S496.691 102.4 477.867 102.4zM34.133 153.6c-9.412 0-17.067-7.654-17.067-17.067s7.654-17.067 17.067-17.067c9.404 0 17.067 7.654 17.067 17.067S43.537 153.6 34.133 153.6zm204.8-68.267c0-9.412 7.663-17.067 17.067-17.067 9.412 0 17.067 7.654 17.067 17.067 0 9.412-7.654 17.067-17.067 17.067-9.404 0-17.067-7.654-17.067-17.067zM477.867 153.6c-9.412 0-17.067-7.654-17.067-17.067s7.654-17.067 17.067-17.067c9.404 0 17.067 7.654 17.067 17.067S487.27 153.6 477.867 153.6z"/><path d="M135.066 185.694l-6.903 34.5c-.922 4.617 2.082 9.114 6.699 10.035.563.12 1.118.171 1.681.171 3.985 0 7.552-2.807 8.354-6.861l4.949-24.713 22.69 28.365a8.54 8.54 0 0 0 11.998 1.34 8.53 8.53 0 0 0 1.331-11.989l-26.53-33.169c6.835-4.599 11.332-12.399 11.332-21.24 0-14.114-11.486-25.6-25.6-25.6s-25.6 11.486-25.6 25.6c0 10.573 6.442 19.661 15.599 23.561zm10.001-32.094c4.71 0 8.533 3.831 8.533 8.533s-3.823 8.533-8.533 8.533c-4.71 0-8.533-3.831-8.533-8.533-.001-4.702 3.822-8.533 8.533-8.533z"/></svg>