<svg xmlns="http://www.w3.org/2000/svg" viewBox="0 0 512 512"><path d="M153.856 245.393a8.509 8.509 0 0 0 1.553 7.322 8.518 8.518 0 0 0 6.724 3.285c1.374 0 3.072.631 4.77 1.545-13.483 19.345-11.93 45.884 4.659 79.07a8.545 8.545 0 0 0 7.057 4.702c3.004.188 5.914-1.203 7.62-3.695 5.879-8.576 11.639-15.104 16.572-19.908 2.33 13.773 11.742 32.896 39.194 55.774a8.488 8.488 0 0 0 5.461 1.98c1.57 0 3.14-.427 4.54-1.306a8.541 8.541 0 0 0 3.738-9.301c-6.554-26.197 3.891-32.836 4.07-32.956 4.216-2.116 5.931-7.236 3.823-11.452-2.108-4.207-7.228-5.931-11.452-3.814-.725.358-13.815 7.211-15.454 28.416-24.303-26.761-16.29-41.651-16.299-41.651a8.531 8.531 0 1 0-11-12.322c-.64.324-13.346 7.006-28.356 25.071-9.472-24.107-8.09-41.83 4.13-53.931a8.541 8.541 0 0 0 .077-12.049c-.742-.759-5.487-5.436-12.023-8.516 9.446-19.294 31.027-19.78 32.017-19.789a8.533 8.533 0 0 0 7.893-5.299 8.523 8.523 0 0 0-1.911-9.31c-4.531-4.471-8.858-11.494-8.482-13.491 2.918-2.918 11.307-.435 15.113 1.519a8.57 8.57 0 0 0 7.859.051 8.54 8.54 0 0 0 4.565-6.391c1.152-8.055 5.444-18.278 8.619-18.278 6.187 0 8.713 10.283 8.73 10.325a8.528 8.528 0 0 0 8.337 6.741h25.6c9.446 0 22.033 14.814 29.551 23.663 2.722 3.2 5.111 6.007 7.083 7.97 4.514 4.514 9.993 5.888 14.387 6.989 6.699 1.673 8.713 2.176 8.713 12.578 0 8.533-2.458 8.533-8.994 8.533-.751-.009-1.946-.179-3.456-.358-9.847-1.126-28.194-3.277-39.27 6.579-3.652 3.26-8.013 9.259-8.013 19.379 0 15.992 13.926 22.69 25.6 24.806v14.78c-11.554-4.241-30.43-12.954-44.996-28.373-3.234-3.43-8.636-3.584-12.058-.35-3.43 3.234-3.584 8.636-.35 12.066 25.941 27.469 62.456 36.224 64 36.582a8.569 8.569 0 0 0 7.245-1.63 8.522 8.522 0 0 0 3.226-6.682v-34.133c0-4.693-3.814-8.499-8.508-8.533-.171 0-17.092-.478-17.092-8.533 0-4.113 1.306-5.751 2.295-6.622 5.359-4.779 19.78-3.098 25.941-2.381 2.406.282 4.292.469 5.419.469 17.306 0 26.078-8.61 26.078-25.6 0-23.731-13.542-27.119-21.632-29.141-2.842-.708-5.291-1.323-6.468-2.492-1.707-1.707-3.772-4.164-6.144-6.946-10.641-12.527-25.216-29.687-42.556-29.687h-19.456c-3.558-8.141-10.846-17.067-23.211-17.067-13.449 0-20.087 13.099-23.159 22.852-8.175-1.937-18.065-1.758-25.062 5.248-3.251 3.251-4.958 7.45-4.941 12.134.017 4.719 1.843 9.412 4.164 13.491-14.09 4.412-30.388 15.3-36.08 38.067z"/><path d="M469.333 0c-13.338 0-25.941 6.434-33.954 17.067H76.621C68.608 6.434 56.004 0 42.667 0 19.14 0 0 19.14 0 42.667c0 23.526 19.14 42.667 42.667 42.667 13.338 0 25.941-6.434 33.954-17.067h306.671c4.71 0 8.533-3.823 8.533-8.533s-3.823-8.533-8.533-8.533H72.064a8.525 8.525 0 0 0-7.373 4.241c-4.676 8.03-12.911 12.826-22.025 12.826-14.114 0-25.6-11.486-25.6-25.6s11.486-25.6 25.6-25.6c9.114 0 17.348 4.796 22.025 12.826a8.524 8.524 0 0 0 7.373 4.241h367.872a8.525 8.525 0 0 0 7.373-4.241c4.676-8.03 12.911-12.826 22.025-12.826 14.114 0 25.6 11.486 25.6 25.6s-11.486 25.6-25.6 25.6c-9.114 0-17.348-4.796-22.025-12.826a8.524 8.524 0 0 0-7.373-4.241h-21.803a8.536 8.536 0 0 0-8.533 8.533v378.052l-145.067 53.436v-90.155c0-4.71-3.823-8.533-8.533-8.533s-8.533 3.823-8.533 8.533v90.155L102.4 437.786V93.867a8.536 8.536 0 0 0-8.533-8.533 8.536 8.536 0 0 0-8.533 8.533v349.867a8.549 8.549 0 0 0 5.581 8.013l162.133 59.725c.956.35 1.954.529 2.953.529s1.997-.179 2.953-.529l162.133-59.725a8.549 8.549 0 0 0 5.581-8.013V68.267h8.713c8.013 10.633 20.617 17.067 33.954 17.067 23.526 0 42.667-19.14 42.667-42.667C512 19.14 492.86 0 469.333 0z"/><path d="M290.389 213.333a8.53 8.53 0 0 0-8.533-8.533h-.085c-4.71 0-8.491 3.823-8.491 8.533 0 4.71 3.866 8.533 8.576 8.533a8.53 8.53 0 0 0 8.533-8.533zM264.533 128V93.867c0-4.71-3.823-8.533-8.533-8.533s-8.533 3.823-8.533 8.533V128c0 4.71 3.823 8.533 8.533 8.533s8.533-3.823 8.533-8.533z"/></svg>