<svg xmlns="http://www.w3.org/2000/svg" viewBox="0 0 512 512"><path d="M503.467 85.333h-435.2V76.62C78.9 68.607 85.334 56.003 85.334 42.666 85.333 19.14 66.193 0 42.667 0 19.14 0 0 19.14 0 42.667c0 13.338 6.434 25.941 17.067 33.954V486.4a8.536 8.536 0 0 0 8.533 8.533 8.536 8.536 0 0 0 8.533-8.533V72.064a8.525 8.525 0 0 0-4.241-7.373c-8.03-4.676-12.826-12.911-12.826-22.025 0-14.114 11.486-25.6 25.6-25.6s25.6 11.486 25.6 25.6c0 9.114-4.796 17.348-12.826 22.025a8.524 8.524 0 0 0-4.241 7.373v21.803a8.536 8.536 0 0 0 8.533 8.533h435.2v136.533h-76.8c-4.719 0-8.533 3.823-8.533 8.533s3.814 8.533 8.533 8.533h76.8v136.533H93.867c-4.71 0-8.533 3.823-8.533 8.533s3.823 8.533 8.533 8.533h409.6a8.53 8.53 0 0 0 8.533-8.533v-307.2a8.53 8.53 0 0 0-8.533-8.532z"/><path d="M59.733 120.175c-4.71 0-8.533 3.823-8.533 8.542v374.75c0 4.71 3.823 8.533 8.533 8.533s8.533-3.823 8.533-8.533v-374.75c.001-4.719-3.822-8.542-8.533-8.542zm128.256 108.151a8.509 8.509 0 0 0 1.553 7.322 8.518 8.518 0 0 0 6.724 3.285c1.374 0 3.072.631 4.77 1.545-13.483 19.345-11.93 45.884 4.659 79.07a8.545 8.545 0 0 0 7.057 4.702 8.523 8.523 0 0 0 7.62-3.695c5.879-8.576 11.639-15.104 16.572-19.908 2.33 13.773 11.742 32.896 39.185 55.774a8.545 8.545 0 0 0 5.47 1.98c1.57 0 3.14-.427 4.531-1.306a8.533 8.533 0 0 0 3.746-9.301c-6.554-26.197 3.891-32.836 4.07-32.956 4.215-2.116 5.931-7.236 3.814-11.452a8.522 8.522 0 0 0-11.443-3.823c-.725.367-13.815 7.219-15.454 28.425-24.303-26.761-16.29-41.651-16.299-41.651a8.537 8.537 0 0 0-.734-10.419 8.518 8.518 0 0 0-10.266-1.903c-.64.324-13.346 7.006-28.356 25.071-9.472-24.107-8.09-41.83 4.13-53.931a8.541 8.541 0 0 0 .077-12.049c-.742-.759-5.487-5.436-12.023-8.516 9.446-19.294 31.027-19.78 32.017-19.789a8.533 8.533 0 0 0 7.893-5.299 8.523 8.523 0 0 0-1.911-9.31c-4.531-4.471-8.858-11.494-8.482-13.491 2.918-2.927 11.307-.444 15.113 1.519a8.57 8.57 0 0 0 7.859.051 8.54 8.54 0 0 0 4.565-6.391c1.152-8.055 5.444-18.278 8.619-18.278 6.187 0 8.713 10.283 8.721 10.325a8.544 8.544 0 0 0 8.346 6.741H307.2c6.178 0 19.012 5.487 45.167 31.633 4.514 4.514 9.993 5.888 14.387 6.989 6.699 1.673 8.713 2.176 8.713 12.578 0 8.533-2.449 8.533-9.003 8.533-.742-.009-1.937-.179-3.447-.358-9.847-1.135-28.186-3.277-39.279 6.579-3.644 3.26-8.004 9.259-8.004 19.379 0 15.991 13.926 22.69 25.6 24.806v14.78c-11.546-4.241-30.421-12.954-44.996-28.373a8.517 8.517 0 0 0-12.058-.35c-3.43 3.234-3.584 8.636-.35 12.066 25.933 27.469 62.464 36.224 64 36.582 2.509.572 5.205-.009 7.245-1.63a8.546 8.546 0 0 0 3.226-6.682v-34.133c0-4.693-3.814-8.499-8.508-8.533-.171 0-17.092-.478-17.092-8.533 0-4.113 1.306-5.751 2.296-6.622 5.359-4.779 19.78-3.106 25.941-2.381 2.406.282 4.292.469 5.419.469 17.306 0 26.078-8.61 26.078-25.6 0-23.731-13.542-27.119-21.632-29.141-2.842-.708-5.291-1.323-6.468-2.492-17.06-17.059-38.974-36.634-57.235-36.634h-10.923c-3.558-8.141-10.846-17.067-23.211-17.067-13.449 0-20.088 13.099-23.159 22.852-8.166-1.946-18.057-1.758-25.062 5.248-3.251 3.251-4.958 7.45-4.941 12.134.017 4.719 1.843 9.412 4.164 13.491-14.088 4.413-30.387 15.302-36.079 38.068zM93.867 256h68.267c4.71 0 8.533-3.823 8.533-8.533s-3.823-8.533-8.533-8.533H93.867c-4.71 0-8.533 3.823-8.533 8.533S89.156 256 93.867 256z"/><path d="M324.523 196.267a8.536 8.536 0 0 0-8.533-8.533h-.085c-4.71 0-8.491 3.823-8.491 8.533s3.866 8.533 8.576 8.533a8.536 8.536 0 0 0 8.533-8.533z"/></svg>