<svg xmlns="http://www.w3.org/2000/svg" viewBox="0 0 512 512"><path d="M440.678 307.285c-4.676-.7-8.994 2.569-9.66 7.236-3.746 26.197-28.996 155.281-162.219 178.901V375.467c0-4.71-3.823-8.533-8.533-8.533s-8.533 3.823-8.533 8.533v117.965C132.898 471.97 88.183 357.717 80.947 314.325c-.777-4.634-5.146-7.808-9.822-7.006-4.642.768-7.782 5.171-7.006 9.822 7.996 48.009 58.633 176.597 195.021 194.782a8.354 8.354 0 0 0 2.252 0c119.39-15.915 175.095-114.987 186.522-194.978.666-4.668-2.576-8.994-7.236-9.66z"/><path d="M462.857 190.541a8.523 8.523 0 0 0-6.323-2.807h-9.745c-12.8-84.907-58.487-137.455-126.345-144.435-4.779-.503-8.883 2.918-9.361 7.612-.486 4.685 2.918 8.875 7.612 9.361 80.435 8.277 104.004 85.606 110.891 127.462H82.483c9.899-56.132 46.396-119.97 120.619-127.846 4.685-.503 8.081-4.702 7.586-9.387-.495-4.685-4.71-8.013-9.387-7.586-85.043 9.028-125.909 81.971-136.073 144.819h-9.762a8.527 8.527 0 0 0-6.323 2.807 8.532 8.532 0 0 0-2.167 6.579l8.533 85.333a8.543 8.543 0 0 0 6.007 7.313L257.783 349.5a8.792 8.792 0 0 0 2.483.367c.87 0 1.749-.137 2.586-.401l187.733-59.733a8.513 8.513 0 0 0 5.905-7.279l8.533-85.333a8.529 8.529 0 0 0-2.166-6.58zm-22.793 84.633l-179.857 57.224-188.279-57.31-7.032-70.288h33.237v55.108a8.53 8.53 0 0 0 8.533 8.533 8.53 8.53 0 0 0 8.533-8.533V204.8h34.133v68.267c0 4.71 3.823 8.533 8.533 8.533s8.533-3.823 8.533-8.533V204.8h34.133v85.333c0 4.71 3.823 8.533 8.533 8.533s8.533-3.823 8.533-8.533V204.8h34.133v102.4c0 4.71 3.823 8.533 8.533 8.533s8.533-3.823 8.533-8.533V204.8h34.133v85.333c0 4.71 3.823 8.533 8.533 8.533s8.533-3.823 8.533-8.533V204.8h34.133v68.267c0 4.71 3.823 8.533 8.533 8.533s8.533-3.823 8.533-8.533V204.8h34.133v55.108a8.53 8.53 0 0 0 8.533 8.533 8.53 8.53 0 0 0 8.533-8.533V204.8h24.704l-7.033 70.374z"/><path d="M234.667 110.933a8.536 8.536 0 0 0 8.533 8.533h8.533v42.667c0 4.71 3.823 8.533 8.533 8.533s8.533-3.823 8.533-8.533v-42.667h8.533a8.536 8.536 0 0 0 8.533-8.533c0-32.444 19.576-96.35 19.772-96.99a8.565 8.565 0 0 0-.913-7.031 8.517 8.517 0 0 0-5.922-3.908A250.366 250.366 0 0 0 260.325.009c-.017 0-.043-.009-.06-.009s-.043.009-.06.009a250.492 250.492 0 0 0-38.477 2.995 8.517 8.517 0 0 0-5.922 3.908 8.565 8.565 0 0 0-.913 7.031c.198.64 19.774 64.547 19.774 96.99zm17.066-93.619v25.353c0 4.71 3.823 8.533 8.533 8.533s8.533-3.823 8.533-8.533V17.314c5.897.213 11.802.572 17.681 1.246-5.094 17.809-15.386 56.363-17.348 83.84H251.4c-1.971-27.477-12.254-66.031-17.348-83.84 5.88-.674 11.785-1.033 17.681-1.246z"/></svg>