<svg xmlns="http://www.w3.org/2000/svg" viewBox="0 0 512.005 512.005"><path d="M138.21 94.031c-4.599-.922-9.122 2.074-10.044 6.699l-8.533 42.667a8.569 8.569 0 0 0 1.348 6.519 8.505 8.505 0 0 0 5.623 3.567c2.116.358 52.779 8.653 129.399 8.653s127.283-8.294 129.399-8.653a8.499 8.499 0 0 0 5.623-3.567 8.532 8.532 0 0 0 1.34-6.519l-8.533-42.667c-.913-4.617-5.359-7.612-10.035-6.699-4.617.93-7.62 5.427-6.699 10.044l6.767 33.835c-17.63 2.347-60.723 7.159-117.862 7.159-57.071 0-100.216-4.813-117.871-7.159l6.767-33.835c.931-4.617-2.073-9.114-6.689-10.044zM85.337 409.602c-38.596 0-63.565 18.654-76.544 57.66L.26 501.395c-1.152 4.574 1.638 9.207 6.212 10.351a8.272 8.272 0 0 0 2.074.256 8.535 8.535 0 0 0 8.269-6.46l8.346-33.51c10.462-31.369 29.022-45.363 60.177-45.363 4.719 0 8.533-3.823 8.533-8.533s-3.815-8.534-8.534-8.534zm298.667-238.933c-4.719 0-8.533 3.823-8.533 8.533s3.814 8.533 8.533 8.533c4.71 0 8.533 3.831 8.533 8.533v34.133c0 4.702-3.823 8.533-8.533 8.533a8.55 8.55 0 0 0-7.996 5.538c-.247.674-25.446 67.644-41.771 92.126l-1.399 2.116c-10.223 15.514-24.235 36.753-76.834 36.753-52.599 0-66.611-21.239-76.834-36.753l-1.399-2.116c-16.324-24.482-41.523-91.452-41.779-92.126a8.53 8.53 0 0 0-7.987-5.538c-4.71 0-8.533-3.831-8.533-8.533v-34.133c0-4.702 3.823-8.533 8.533-8.533 4.719 0 8.533-3.823 8.533-8.533s-3.814-8.533-8.533-8.533c-14.114 0-25.6 11.486-25.6 25.6v34.133c0 11.989 8.286 22.076 19.43 24.849 6.229 16.196 26.803 68.42 41.737 90.82l1.348 2.039c10.957 16.614 29.295 44.424 91.085 44.424s80.128-27.81 91.085-44.424l1.348-2.039c14.933-22.4 35.507-74.624 41.737-90.82 11.145-2.773 19.43-12.86 19.43-24.849v-34.133c-.001-14.114-11.487-25.6-25.601-25.6z"/><path d="M371.263 372.772a8.52 8.52 0 0 0-11.989-1.331c-3.678 2.944-4.275 8.311-1.331 11.998 13.611 16.998 22.05 30.916 27.085 40.542-12.339-3.917-31.514-11.554-56.03-26.146a8.524 8.524 0 0 0-9.557.563 8.536 8.536 0 0 0-3.029 9.088c7.757 27.486 10.163 47.991 10.761 60.919-9.481-8.704-23.552-23.68-39.723-47.411a8.497 8.497 0 0 0-8.892-3.533 8.531 8.531 0 0 0-6.579 6.963c-4.591 28.186-11.076 47.778-16 59.75-4.898-11.895-11.332-31.411-15.949-59.75a8.543 8.543 0 0 0-6.579-6.963 8.48 8.48 0 0 0-8.892 3.533c-16.051 23.561-30.191 38.579-39.714 47.352.589-12.937 3.012-33.425 10.752-60.86a8.536 8.536 0 0 0-3.029-9.088c-2.765-2.133-6.545-2.347-9.557-.563-24.516 14.592-43.691 22.229-56.03 26.146 5.043-9.643 13.491-23.578 27.127-40.602a8.534 8.534 0 0 0-1.331-11.998c-3.678-2.935-9.045-2.33-11.989 1.331-29.346 36.659-36.497 60.314-36.796 61.295a8.57 8.57 0 0 0 1.664 7.893c1.843 2.193 4.608 3.328 7.492 2.987 1.058-.119 23.39-2.842 61.082-22.588-9.31 41.532-6.17 63.795-6.007 64.853a8.55 8.55 0 0 0 4.83 6.468 8.602 8.602 0 0 0 8.064-.461c.913-.555 19.994-12.459 45.815-46.285 9.114 41.574 21.376 60.425 21.965 61.312a8.532 8.532 0 0 0 14.216 0c.589-.888 12.851-19.738 21.965-61.312 25.83 33.835 44.911 45.73 45.815 46.285 2.423 1.485 5.453 1.655 8.064.452a8.537 8.537 0 0 0 4.83-6.46c.162-1.058 3.302-23.322-6.007-64.853 37.692 19.746 60.023 22.468 61.082 22.588 2.893.341 5.649-.794 7.492-2.987a8.544 8.544 0 0 0 1.655-7.893c-.291-.98-7.434-24.617-36.746-61.234zm-98.193-116.77c0-9.412-7.654-17.067-17.067-17.067-9.412 0-17.067 7.654-17.067 17.067 0 9.412 7.654 17.067 17.067 17.067s17.067-7.654 17.067-17.067zm187.734-110.933c0-10.778-6.707-19.977-16.162-23.748 2.048-17.886 5.973-62.566-.998-97.391a8.532 8.532 0 0 0-8.363-6.861c-52.625 0-85.854 36.548-100.83 57.941L306.598 5.361c-.009-.026-.034-.051-.051-.077-.043-.119-.128-.205-.179-.316a8.045 8.045 0 0 0-1.451-2.142 4.992 4.992 0 0 0-.572-.563 8.269 8.269 0 0 0-2.014-1.365c-.162-.077-.299-.188-.461-.247a8.308 8.308 0 0 0-2.44-.614c-.171-.017-.324.026-.486.017-.102 0-.171-.051-.273-.051h-85.333c-.102 0-.188.051-.29.06-.162 0-.307-.043-.469-.026a8.37 8.37 0 0 0-2.441.614c-.171.06-.299.171-.461.247a8.094 8.094 0 0 0-2.014 1.365 5.074 5.074 0 0 0-.572.563 8.071 8.071 0 0 0-1.451 2.15c-.051.111-.137.188-.179.299-.017.034-.043.06-.051.085l-27.853 69.641C162.59 53.608 129.395 17.068 76.804 17.068a8.534 8.534 0 0 0-8.371 6.861c-6.963 34.825-3.089 79.514-1.067 97.391-9.446 3.763-16.162 12.971-16.162 23.748 0 14.114 11.486 25.6 25.6 25.6s25.6-11.486 25.6-25.6c0-8.994-4.685-16.887-11.725-21.453 8.883-12.049 24.371-33.331 35.891-50.611 2.62-3.925 1.562-9.225-2.364-11.836a8.524 8.524 0 0 0-11.836 2.364c-9.045 13.559-20.608 29.679-29.372 41.702-1.51-18.876-2.645-46.942.93-70.818 57.387 4.531 87.339 62.669 87.646 63.283.196.375.521.631.759.964.35.512.674 1.024 1.135 1.451.461.418.99.691 1.519.998.367.205.649.521 1.05.683.085.034.162.017.247.043.606.222 1.254.265 1.894.341.461.051.896.196 1.348.179.546-.026 1.067-.222 1.604-.35.555-.128 1.101-.205 1.63-.444.085-.043.179-.034.265-.077.401-.196.657-.538 1.007-.794.495-.341.998-.649 1.408-1.092.418-.452.683-.981.998-1.51.213-.367.521-.649.691-1.05l27.878-69.726 27.921 44.664c-7.467 4.471-12.527 12.57-12.527 21.888 0 14.114 11.486 25.6 25.6 25.6s25.6-11.486 25.6-25.6c0-9.318-5.06-17.417-12.527-21.888l27.921-44.664 27.878 69.726c.35.87.836 1.638 1.408 2.313.068.085.179.145.256.23a8.342 8.342 0 0 0 2.15 1.673c.111.068.179.179.299.239.145.077.316.06.461.128a8.087 8.087 0 0 0 2.278.614c.256.034.512.111.768.12.102.008.196.043.307.043.461 0 .913-.188 1.374-.265.529-.085 1.05-.111 1.553-.299.077-.026.154-.009.239-.043.393-.154.648-.452 1.007-.657.546-.324 1.092-.597 1.57-1.033.452-.41.76-.913 1.101-1.408.247-.35.589-.606.785-1.007.307-.614 30.08-58.76 87.723-63.275 3.567 23.885 2.406 51.968.87 70.844-8.755-12.015-20.326-28.151-29.338-41.719-2.628-3.925-7.927-4.992-11.836-2.381a8.538 8.538 0 0 0-2.381 11.836c11.494 17.289 26.974 38.571 35.857 50.62-7.04 4.565-11.725 12.459-11.725 21.453 0 14.114 11.486 25.6 25.6 25.6s25.605-11.484 25.605-25.598zm-375.467 0c0 4.702-3.823 8.533-8.533 8.533s-8.533-3.831-8.533-8.533 3.823-8.533 8.533-8.533 8.533 3.831 8.533 8.533zm170.667-42.667c-4.71 0-8.533-3.831-8.533-8.533s3.823-8.533 8.533-8.533 8.533 3.831 8.533 8.533-3.823 8.533-8.533 8.533zm0-41.702l-27.273-43.631h54.545L256.004 60.7zm170.666 84.369c0-4.702 3.823-8.533 8.533-8.533 4.71 0 8.533 3.831 8.533 8.533s-3.823 8.533-8.533 8.533c-4.71 0-8.533-3.831-8.533-8.533zM256.004 341.336c32.265 0 47.437-26.556 50.944-40.593a8.509 8.509 0 0 0-1.553-7.322 8.518 8.518 0 0 0-6.724-3.285h-85.333a8.52 8.52 0 0 0-6.724 3.285 8.508 8.508 0 0 0-1.553 7.322c3.506 14.037 18.678 40.593 50.943 40.593zm29.662-34.134c-4.787 7.817-13.807 17.067-29.662 17.067s-24.875-9.259-29.67-17.067h59.332zm226.082 194.193l-8.721-34.756c-12.792-38.383-37.769-57.037-76.356-57.037-4.719 0-8.533 3.823-8.533 8.533s3.814 8.533 8.533 8.533c31.155 0 49.715 13.995 59.989 44.74l8.533 34.133a8.535 8.535 0 0 0 8.269 6.46c.683 0 1.382-.077 2.074-.256a8.535 8.535 0 0 0 6.212-10.35zM315.737 221.869h8.533a8.53 8.53 0 0 0 8.533-8.533 8.53 8.53 0 0 0-8.533-8.533h-34.133a8.53 8.53 0 0 0-8.533 8.533 8.53 8.53 0 0 0 8.533 8.533h8.533a8.53 8.53 0 0 0 8.533 8.533 8.53 8.53 0 0 0 8.534-8.533zm-102.4 0h8.533a8.53 8.53 0 0 0 8.533-8.533 8.53 8.53 0 0 0-8.533-8.533h-34.133a8.53 8.53 0 0 0-8.533 8.533 8.53 8.53 0 0 0 8.533 8.533h8.533c0 4.71 3.814 8.533 8.533 8.533s8.534-3.823 8.534-8.533z"/></svg>