<svg xmlns="http://www.w3.org/2000/svg" viewBox="0 0 512.011 512.011"><path d="M187.739 221.868a8.536 8.536 0 0 0-8.533 8.533 8.536 8.536 0 0 0 8.533 8.533h8.533c0 4.71 3.823 8.533 8.533 8.533s8.533-3.823 8.533-8.533h8.533a8.536 8.536 0 0 0 8.533-8.533 8.536 8.536 0 0 0-8.533-8.533h-34.132zm102.4 0a8.536 8.536 0 0 0-8.533 8.533 8.536 8.536 0 0 0 8.533 8.533h8.533c0 4.71 3.823 8.533 8.533 8.533s8.533-3.823 8.533-8.533h8.533a8.536 8.536 0 0 0 8.533-8.533 8.536 8.536 0 0 0-8.533-8.533h-34.132zM119.472 66.689v112.512a8.536 8.536 0 0 0 8.533 8.533h221.867a8.536 8.536 0 0 0 8.533-8.533 8.536 8.536 0 0 0-8.533-8.533H136.539V75.684l63.531 42.351c3.755 2.509 8.832 1.638 11.563-1.98l44.373-59.17 44.373 59.17c2.722 3.627 7.808 4.489 11.563 1.98l63.531-42.351v103.518a8.536 8.536 0 0 0 8.533 8.533 8.536 8.536 0 0 0 8.533-8.533V66.698c9.916-3.541 17.067-12.919 17.067-24.03 0-14.114-11.486-25.6-25.6-25.6s-25.6 11.486-25.6 25.6c0 7.296 3.106 13.858 8.03 18.526l-57.25 38.161-39.245-52.326c7.006-4.574 11.665-12.45 11.665-21.427 0-14.114-11.486-25.6-25.6-25.6s-25.6 11.486-25.6 25.6c0 8.977 4.659 16.853 11.665 21.427l-39.245 52.326-57.25-38.161c4.924-4.668 8.03-11.23 8.03-18.526 0-14.114-11.486-25.6-25.6-25.6s-25.6 11.486-25.6 25.6c0 11.111 7.151 20.489 17.066 24.021zm264.534-32.554c4.702 0 8.533 3.831 8.533 8.533s-3.831 8.533-8.533 8.533-8.533-3.831-8.533-8.533c-.001-4.702 3.831-8.533 8.533-8.533zm-128-17.067c4.702 0 8.533 3.831 8.533 8.533s-3.831 8.533-8.533 8.533-8.533-3.831-8.533-8.533 3.831-8.533 8.533-8.533zm-128 17.067c4.702 0 8.533 3.831 8.533 8.533s-3.831 8.533-8.533 8.533-8.533-3.831-8.533-8.533c-.001-4.702 3.831-8.533 8.533-8.533zm383.565 466.637c-8.482-25.412-30.831-49.118-31.778-50.116-3.251-3.413-8.653-3.541-12.066-.307-3.413 3.251-3.55 8.653-.307 12.066.205.213 20.668 21.914 27.955 43.75a8.558 8.558 0 0 0 8.098 5.845c.896 0 1.801-.154 2.697-.444 4.47-1.493 6.894-6.323 5.401-10.794zm-55.484-73.199c-17.365-8.687-52.156-17.971-97.681-17.971a8.536 8.536 0 0 0-8.533 8.533 8.536 8.536 0 0 0 8.533 8.533c33.024 0 59.998 5.231 77.397 11.059-53.931 41.95-115.285 53.948-132.548 56.602-18.884-24.311-43.46-32.725-44.553-33.092a8.575 8.575 0 0 0-5.393 0c-1.092.367-25.668 8.781-44.552 33.092-17.271-2.654-78.618-14.652-132.548-56.602 17.399-5.828 44.373-11.059 77.397-11.059a8.536 8.536 0 0 0 8.533-8.533 8.536 8.536 0 0 0-8.533-8.533c-45.525 0-80.316 9.284-97.681 17.971a8.508 8.508 0 0 0-4.651 6.545 8.545 8.545 0 0 0 2.842 7.501c69.521 60.834 154.086 69.982 157.653 70.34a8.567 8.567 0 0 0 7.868-3.627c12.621-18.176 29.833-26.974 36.386-29.824 6.562 2.825 23.637 11.52 36.352 29.824a8.531 8.531 0 0 0 7.868 3.626c3.567-.358 88.132-9.506 157.653-70.34a8.548 8.548 0 0 0 2.842-7.501 8.507 8.507 0 0 0-4.651-6.544z"/><path d="M256.262 494.935h-.085c-4.71 0-8.491 3.823-8.491 8.533s3.857 8.533 8.576 8.533c4.71 0 8.533-3.823 8.533-8.533s-3.823-8.533-8.533-8.533zm-8.79-153.6h17.067c4.71 0 8.533-3.823 8.533-8.533s-3.823-8.533-8.533-8.533h-17.067c-4.71 0-8.533 3.823-8.533 8.533s3.823 8.533 8.533 8.533zM32.219 450.655c-.947.998-23.296 24.704-31.778 50.116-1.493 4.471.93 9.301 5.402 10.795.896.29 1.801.444 2.697.444a8.558 8.558 0 0 0 8.098-5.845c7.253-21.751 27.75-43.537 27.964-43.75 3.234-3.422 3.089-8.823-.324-12.066-3.415-3.244-8.816-3.098-12.059.306z"/><path d="M122.493 289.538l14.387 27.955c.136.631.256 1.246.538 1.835 9.045 77.943 53.205 124.407 118.588 124.407 48.486 0 108.356-21.837 119.014-125.56l14.532-28.646c11.46-2.543 20.053-12.783 20.053-24.994v-17.067c0-12.023-6.699-21.163-17.067-24.363v-9.771a8.536 8.536 0 0 0-8.533-8.533 8.536 8.536 0 0 0-8.533 8.533v17.067a8.536 8.536 0 0 0 8.533 8.533c5.666 0 8.533 2.867 8.533 8.533v17.067c0 4.702-3.831 8.533-8.533 8.533a8.533 8.533 0 0 0-7.612 4.668l-16.811 33.143c-10.965 9.737-34.253 16.939-48.495 20.386-7.014-20.591-23.04-41.131-55.083-41.131s-48.068 20.54-55.083 41.131c-14.046-3.396-36.898-10.453-48.043-19.994l-17.289-33.579a8.537 8.537 0 0 0-7.586-4.625c-4.702 0-8.533-3.831-8.533-8.533v-17.067c0-5.265 3.268-8.533 8.533-8.533a8.536 8.536 0 0 0 8.533-8.533v-17.067c0-4.71-3.823-8.533-8.533-8.533s-8.533 3.823-8.533 8.533v9.882c-10.146 3.362-17.067 12.681-17.067 24.252v17.067c.003 12.229 8.613 22.478 20.09 25.004zm74.53 58.359c-.503 3.763-.751 7.33-.751 10.505 0 4.702 3.806 8.516 8.516 8.525h.017c4.693 0 8.516-3.806 8.533-8.508.009-2.091.717-51.217 42.667-51.217s42.658 49.126 42.667 51.2c0 4.71 3.823 8.533 8.533 8.533s8.533-3.823 8.533-8.533c0-3.174-.247-6.741-.751-10.505 9.907-2.355 26.445-6.955 40.559-14.14-10.965 61.602-44.331 92.911-99.541 92.911-51.115 0-87.083-34.287-98.927-92.612 13.987 7.006 30.183 11.52 39.945 13.841z"/></svg>