<svg xmlns="http://www.w3.org/2000/svg" viewBox="0 0 512 512"><path d="M349.423 104.908c1.493-4.471-.922-9.301-5.393-10.795l-25.6-8.533a8.536 8.536 0 0 0-8.73 2.065 8.518 8.518 0 0 0-2.057 8.73l8.533 25.6c1.186 3.576 4.514 5.837 8.09 5.837a8.31 8.31 0 0 0 2.697-.444c4.471-1.485 6.886-6.323 5.393-10.795l-3.132-9.404 9.412 3.132a8.501 8.501 0 0 0 10.787-5.393zM309.7 202.111a8.506 8.506 0 0 0 8.73 2.056l25.6-8.533c4.471-1.485 6.886-6.323 5.393-10.795a8.514 8.514 0 0 0-10.786-5.393l-9.412 3.14 3.132-9.412c1.493-4.471-.922-9.301-5.393-10.795a8.507 8.507 0 0 0-10.786 5.393l-8.533 25.6a8.53 8.53 0 0 0 2.055 8.739z"/><path d="M507.281 137.241l-12.971-6.485c-2.628-20.548-10.394-41.276-21.939-58.214l21.658-43.315a8.51 8.51 0 0 0-1.596-9.847c-2.603-2.603-6.562-3.226-9.847-1.604L439.27 39.44c-16.939-11.546-37.675-19.319-58.223-21.939l-6.485-12.979c-2.893-5.777-12.365-5.777-15.266 0l-6.477 12.979c-20.574 2.628-41.301 10.394-58.223 21.939l-43.315-21.666a8.517 8.517 0 0 0-9.847 1.604 8.526 8.526 0 0 0-1.604 9.847l21.666 43.324c-11.247 16.606-19.157 37.717-21.905 58.189l-13.005 6.502c-2.893 1.451-4.719 4.403-4.719 7.637s1.826 6.187 4.719 7.629l13.005 6.502c2.62 19.874 9.711 39.501 20.079 55.467L63.189 410.947c-4.036-1.024-8.055-1.536-11.989-1.536-28.237 0-51.2 22.963-51.2 51.2 0 28.228 22.963 51.2 51.2 51.2s51.2-22.972 51.2-51.2c0-3.985-.512-7.945-1.545-11.998l212.378-212.369c3.337-3.337 3.337-8.738 0-12.066a8.523 8.523 0 0 0-12.066 0L85.163 440.174a8.537 8.537 0 0 0-1.997 8.926c1.459 4.045 2.167 7.808 2.167 11.511 0 18.816-15.309 34.133-34.133 34.133s-34.133-15.317-34.133-34.133c0-18.825 15.309-34.133 34.133-34.133 3.721 0 7.484.7 11.503 2.159a8.511 8.511 0 0 0 8.926-1.997l216.004-215.996c3.336-3.337 3.336-8.738 0-12.066a8.523 8.523 0 0 0-12.066 0l-3.499 3.499c-6.033-10.044-10.692-21.555-13.5-33.579l2.15 1.075a8.517 8.517 0 0 0 11.443-3.814c2.116-4.215.401-9.344-3.814-11.452l-18.867-9.429 18.867-9.438a8.526 8.526 0 0 0 3.814-11.452c-2.108-4.216-7.236-5.922-11.443-3.814l-2.065 1.033c3.755-15.59 10.658-30.839 19.593-42.761a8.54 8.54 0 0 0 .811-8.943l-12.51-25.011 25.02 12.51a8.539 8.539 0 0 0 8.943-.811c12.271-9.207 27.315-16.068 42.812-19.712l-1.092 2.176a8.536 8.536 0 0 0 3.823 11.452 8.526 8.526 0 0 0 11.443-3.814l9.438-18.867 9.429 18.867a8.54 8.54 0 0 0 7.646 4.719c1.28 0 2.586-.29 3.806-.905a8.525 8.525 0 0 0 3.814-11.452l-1.084-2.176c15.488 3.635 30.532 10.496 42.82 19.712a8.52 8.52 0 0 0 8.934.811l25.02-12.51-12.51 25.011a8.54 8.54 0 0 0 .811 8.943c9.216 12.297 16.068 27.324 19.712 42.82l-2.185-1.092c-4.207-2.108-9.335-.401-11.452 3.814a8.536 8.536 0 0 0 3.823 11.452l18.867 9.438-18.867 9.429c-4.216 2.108-5.931 7.236-3.823 11.452a8.54 8.54 0 0 0 7.646 4.719c1.28 0 2.586-.29 3.806-.905l2.185-1.092c-3.644 15.497-10.496 30.532-19.712 42.829a8.523 8.523 0 0 0-.811 8.934l12.51 25.011-25.02-12.501a8.537 8.537 0 0 0-8.943.802c-11.716 8.798-26.231 13.193-41.694 17.425 2.031-4.198.333-9.25-3.849-11.341-4.215-2.108-9.344-.393-11.452 3.814l-9.429 18.876-9.438-18.876c-2.108-4.207-7.228-5.922-11.443-3.814-4.216 2.108-5.931 7.236-3.823 11.452l1.041 2.082c-2.756-.64-5.487-1.323-8.064-2.099-2.68-.794-5.325-1.69-7.91-2.688-4.378-1.673-9.327.495-11.034 4.898a8.53 8.53 0 0 0 4.907 11.025 119.994 119.994 0 0 0 9.156 3.123c7.253 2.167 15.317 3.874 22.494 4.83l6.477 12.962c1.451 2.893 4.403 4.719 7.637 4.719s6.187-1.826 7.629-4.719l6.852-13.713a809.304 809.304 0 0 1 10.487-2.901c16.171-4.386 32.845-8.909 47.309-18.33l43.375 21.692a8.52 8.52 0 0 0 9.847-1.595 8.525 8.525 0 0 0 1.596-9.856l-21.658-43.315c11.546-16.93 19.311-37.658 21.939-58.206l12.971-6.494c2.893-1.442 4.719-4.395 4.719-7.629s-1.824-6.187-4.717-7.637z"/><path d="M51.362 452.078c-4.702 0-8.482 3.823-8.482 8.533s3.857 8.533 8.576 8.533c4.71 0 8.533-3.823 8.533-8.533s-3.823-8.533-8.533-8.533h-.094zm355.541-324.711a8.31 8.31 0 0 0 2.697.444c3.575 0 6.903-2.261 8.09-5.837l8.533-25.6a8.519 8.519 0 0 0-2.057-8.73 8.504 8.504 0 0 0-8.73-2.065l-25.6 8.533a8.53 8.53 0 0 0-5.393 10.795 8.5 8.5 0 0 0 10.786 5.393l9.412-3.132-3.132 9.404c-1.492 4.472.923 9.311 5.394 10.795zm-17.066 68.267l25.6 8.533a8.378 8.378 0 0 0 2.697.444 8.532 8.532 0 0 0 8.09-11.238l-8.533-25.6a8.507 8.507 0 0 0-10.786-5.393 8.53 8.53 0 0 0-5.393 10.795l3.132 9.412-9.412-3.14a8.514 8.514 0 0 0-10.786 5.393c-1.496 4.471.919 9.309 5.391 10.794z"/></svg>