<svg xmlns="http://www.w3.org/2000/svg" viewBox="0 0 512.009 512.009"><path d="M275.663 326.673c-.265.247-6.699 6.127-19.661 6.127-12.774 0-19.209-5.709-19.652-6.118a8.522 8.522 0 0 0-11.981.085 8.525 8.525 0 0 0 0 12.066c1.126 1.126 11.605 11.034 31.633 11.034s30.507-9.907 31.633-11.034c3.294-3.294 3.285-8.567.043-11.913-3.234-3.344-8.61-3.438-12.015-.247zm23.006-96.273c-14.054 0-22.101 8.252-24.636 13.124-2.125 4.087-.555 8.969 3.456 11.238 4.011 2.287 9.165.794 11.563-3.132.077-.128.495-.623 1.084-1.195V256c0 4.71 3.823 8.533 8.533 8.533s8.533-3.823 8.533-8.533v-5.615c.555.529.922.964.964 1.024a8.536 8.536 0 0 0 11.512 3.627c4.181-2.176 5.803-7.33 3.627-11.511-2.534-4.873-10.581-13.125-24.636-13.125z"/><path d="M70.351 285.056c1.929 14.396 9.378 26.837 19.874 34.031-3.524 7.569-4.89 16.043-4.89 22.246 0 40.192 31.582 68.267 76.8 68.267 4.71 0 8.533-3.823 8.533-8.533s-3.823-8.533-8.533-8.533c-29.73 0-59.733-15.838-59.733-51.2 0-6.144 1.997-15.002 6.383-19.925a8.545 8.545 0 0 0-3.687-13.773c-9.225-3.072-16.222-12.826-17.826-24.849-1.596-11.878 2.645-22.426 11.332-28.22a8.542 8.542 0 0 0 2.901-10.914c-7.637-15.266-7.637-15.266-7.637-38.852 0-21.521 22.485-60.177 52.471-68.267h219.23c30.046 8.081 52.565 46.746 52.565 68.267 0 23.492 0 23.492-7.637 38.869a8.535 8.535 0 0 0 2.884 10.888c8.636 5.786 12.834 16.35 11.238 28.245-1.596 11.836-8.721 21.82-17.732 24.841a8.539 8.539 0 0 0-5.598 6.135 8.54 8.54 0 0 0 2.278 7.987c6.033 6.033 6.033 13.227 6.033 19.567 0 35.362-30.003 51.2-59.733 51.2-4.71 0-8.533 3.823-8.533 8.533s3.823 8.533 8.533 8.533c45.218 0 76.8-28.075 76.8-68.267 0-5.666 0-14.148-4.395-22.622 10.155-7.245 17.357-19.499 19.26-33.638 2.108-15.71-2.603-30.131-12.749-39.936 6.212-12.988 6.417-16.828 6.417-40.337 0-28.774-25.421-69.367-58.377-82.458l11.349-54.494c12.126-2.014 21.427-12.493 21.427-25.182 0-14.114-11.486-25.6-25.6-25.6s-25.6 11.486-25.6 25.6c0 9.506 5.265 17.715 12.979 22.135l-11.392 54.665H152.015L140.632 64.8c7.706-4.42 12.971-12.629 12.971-22.135 0-14.114-11.486-25.6-25.6-25.6s-25.6 11.486-25.6 25.6c0 12.689 9.301 23.168 21.427 25.182l11.341 54.46c-32.947 13.056-58.368 53.7-58.368 82.492 0 23.484.205 27.418 6.4 40.329-10.206 9.805-14.951 24.227-12.852 39.928zM384.003 34.133c4.702 0 8.533 3.831 8.533 8.533s-3.831 8.533-8.533 8.533-8.533-3.831-8.533-8.533c-.001-4.701 3.831-8.533 8.533-8.533zm-256 17.067c-4.702 0-8.533-3.831-8.533-8.533s3.831-8.533 8.533-8.533 8.533 3.831 8.533 8.533-3.831 8.533-8.533 8.533z"/><path d="M173.118 102.042l82.884-24.866 82.884 24.866a8.467 8.467 0 0 0 2.458.367 8.533 8.533 0 0 0 8.166-6.093c1.357-4.514-1.212-9.267-5.726-10.624l-79.249-23.774V49.63c9.916-3.541 17.067-12.919 17.067-24.03 0-14.114-11.486-25.6-25.6-25.6s-25.6 11.486-25.6 25.6c0 11.11 7.151 20.489 17.067 24.021v12.297L168.22 85.692c-4.514 1.357-7.083 6.11-5.726 10.624 1.366 4.522 6.136 7.057 10.624 5.726zm82.885-84.975c4.702 0 8.533 3.831 8.533 8.533s-3.831 8.533-8.533 8.533-8.533-3.831-8.533-8.533c-.001-4.702 3.831-8.533 8.533-8.533zM375.29 219.759c3.721 1.109 6.144 1.732 6.639 1.852a8.535 8.535 0 0 0 10.351-6.204c1.143-4.574-1.638-9.207-6.204-10.351-17.929-4.489-67.217-21.615-79.77-46.737a8.532 8.532 0 0 0-5.325-4.395 8.51 8.51 0 0 0-6.835.973c-65.34 40.841-165.146 41.37-166.153 41.37a8.542 8.542 0 0 0-8.525 8.542c0 4.702 3.823 8.525 8.533 8.525.666 0 3.703-.017 8.576-.196-.008.068-.043.128-.043.196 0 34.859 16.998 104.286 26.496 123.281 9.028 18.057 36.497 72.986 92.971 72.986s83.942-54.929 92.971-72.986c8.944-17.895 24.535-80.504 26.318-116.856zM256.003 392.533c-45.926 0-69.845-47.838-77.696-63.548-7.774-15.531-24.704-82.654-24.704-115.652 0-.418-.179-.785-.239-1.186 33.647-2.637 94.251-11.102 142.481-38.409 14.387 19.524 42.351 32.802 62.541 40.337-.239 33.237-16.973 99.49-24.678 114.91-7.86 15.71-31.779 63.548-77.705 63.548z"/><path d="M221.869 250.385c.546.529.922.964.964 1.024a8.536 8.536 0 0 0 11.512 3.627c4.181-2.176 5.803-7.33 3.627-11.511-2.534-4.873-10.581-13.124-24.636-13.124s-22.101 8.252-24.636 13.124c-2.125 4.087-.555 8.969 3.456 11.238 4.011 2.287 9.156.794 11.563-3.132.077-.128.495-.623 1.084-1.195V256c0 4.71 3.823 8.533 8.533 8.533s8.533-3.823 8.533-8.533v-5.615zm-26.035 188.467c-4.71 0-8.491 3.823-8.491 8.533s3.866 8.533 8.576 8.533c4.719 0 8.533-3.823 8.533-8.533s-3.814-8.533-8.533-8.533h-.085zm-67.831-140.185v8.533a8.536 8.536 0 0 0 8.533 8.533 8.536 8.536 0 0 0 8.533-8.533v-8.533a8.536 8.536 0 0 0-8.533-8.533c-4.71-.001-8.533 3.822-8.533 8.533zM337.53 430.942c4.719 0 8.533-3.823 8.533-8.533s-3.814-8.533-8.533-8.533h-.085c-4.71 0-8.491 3.823-8.491 8.533s3.866 8.533 8.576 8.533zm37.939-140.809a8.536 8.536 0 0 0-8.533 8.533v8.533a8.536 8.536 0 0 0 8.533 8.533 8.536 8.536 0 0 0 8.533-8.533v-8.533c.001-4.71-3.822-8.533-8.533-8.533z"/><path d="M511.567 500.77c-9.899-29.696-74.991-73.745-144.631-73.745a8.571 8.571 0 0 0-7.62 4.685c-1.306 2.577-32.896 63.223-103.313 63.223-70.409 0-101.999-60.971-103.305-63.565a8.565 8.565 0 0 0-7.629-4.702c-87.996 0-134.699 44.314-144.631 74.103a8.542 8.542 0 0 0 5.402 10.795c4.48 1.493 9.301-.93 10.795-5.402 7.876-23.62 48.239-60.8 123.46-62.379C149.805 460.126 186.157 512 256.003 512c69.786 0 106.138-51.541 115.883-67.831 64.785 2.039 117.325 43.503 123.486 61.995a8.55 8.55 0 0 0 8.098 5.845c.896 0 1.801-.145 2.697-.444 4.47-1.494 6.894-6.323 5.4-10.795z"/><path d="M256.173 460.8c-4.71 0-8.491 3.823-8.491 8.533s3.857 8.533 8.576 8.533 8.533-3.823 8.533-8.533-3.814-8.533-8.533-8.533h-.085zm60.322-21.956c-4.71 0-8.491 3.823-8.491 8.533s3.866 8.533 8.576 8.533c4.719 0 8.533-3.823 8.533-8.533s-3.814-8.533-8.533-8.533h-.085zm-28.219 16.298c-4.71 0-8.491 3.823-8.491 8.533 0 4.71 3.857 8.533 8.576 8.533a8.536 8.536 0 0 0 8.533-8.533 8.536 8.536 0 0 0-8.533-8.533h-.085zm-64.205 0c-4.71 0-8.491 3.823-8.491 8.533 0 4.71 3.857 8.533 8.576 8.533a8.536 8.536 0 0 0 8.533-8.533 8.536 8.536 0 0 0-8.533-8.533h-.085zm-49.195-41.258c-4.71 0-8.491 3.823-8.491 8.533 0 4.71 3.866 8.533 8.576 8.533a8.53 8.53 0 0 0 8.533-8.533 8.53 8.53 0 0 0-8.533-8.533h-.085z"/></svg>