<svg xmlns="http://www.w3.org/2000/svg" viewBox="0 0 512.005 512.005"><path d="M452.269 41.964c-2.193 0-4.19.819-5.692 2.176-13.798 4.54-79.812 24.132-190.575 24.132-104.516 0-169.182-17.442-187.733-23.228V22.465c23.578 10.351 80.555 28.74 187.733 28.74 145.971 0 198.818-34.116 201.003-35.567 3.908-2.603 4.958-7.868 2.372-11.785s-7.876-5.001-11.81-2.441c-.495.333-51.763 32.725-191.565 32.725S64.933 1.746 64.472 1.439a8.517 8.517 0 0 0-8.764-.427 8.538 8.538 0 0 0-4.506 7.526v42.667a8.55 8.55 0 0 0 5.538 7.996c2.782 1.041 68.258 24.934 190.729 26.035v59.836a8.536 8.536 0 0 0 8.533 8.533 8.536 8.536 0 0 0 8.533-8.533v-59.81c94.66-.845 155.29-15.309 179.2-22.34v193.084h-59.733c-4.71 0-8.533 3.823-8.533 8.533s3.823 8.533 8.533 8.533h59.733v34.133c0 100.651-79.633 183.04-179.2 187.52v-76.587a8.536 8.536 0 0 0-8.533-8.533 8.536 8.536 0 0 0-8.533 8.533v76.587c-99.567-4.48-179.2-86.869-179.2-187.52v-34.133h59.733c4.71 0 8.533-3.823 8.533-8.533s-3.823-8.533-8.533-8.533H68.269V85.339a8.536 8.536 0 0 0-8.533-8.533 8.536 8.536 0 0 0-8.533 8.533v221.867c0 112.922 91.878 204.8 204.8 204.8s204.8-91.878 204.8-204.8V50.497a8.53 8.53 0 0 0-8.534-8.533z"/><path d="M290.392 230.405a8.53 8.53 0 0 0-8.533-8.533h-.085c-4.71 0-8.491 3.823-8.491 8.533 0 4.71 3.857 8.533 8.576 8.533a8.53 8.53 0 0 0 8.533-8.533z"/><path d="M153.859 262.465a8.509 8.509 0 0 0 1.553 7.322 8.518 8.518 0 0 0 6.724 3.285c1.374 0 3.072.631 4.77 1.545-13.483 19.345-11.93 45.884 4.659 79.07a8.545 8.545 0 0 0 7.057 4.702c3.055.188 5.905-1.203 7.62-3.695 5.879-8.576 11.639-15.104 16.572-19.908 2.33 13.773 11.742 32.896 39.194 55.774a8.488 8.488 0 0 0 5.461 1.98c1.57 0 3.14-.427 4.54-1.306a8.541 8.541 0 0 0 3.738-9.301c-6.554-26.197 3.891-32.836 4.07-32.956 4.215-2.108 5.931-7.236 3.823-11.452s-7.228-5.939-11.452-3.814c-.725.358-13.815 7.211-15.454 28.416-24.303-26.761-16.29-41.651-16.299-41.651a8.537 8.537 0 0 0-.734-10.419 8.528 8.528 0 0 0-10.274-1.903c-.631.324-13.338 7.006-28.348 25.071-9.472-24.107-8.081-41.83 4.13-53.931a8.541 8.541 0 0 0 .077-12.049c-.742-.76-5.487-5.436-12.023-8.516 9.446-19.294 31.027-19.78 32.017-19.789a8.533 8.533 0 0 0 7.893-5.299 8.523 8.523 0 0 0-1.911-9.31c-4.531-4.471-8.858-11.494-8.482-13.491 2.927-2.927 11.307-.444 15.113 1.519a8.57 8.57 0 0 0 7.859.051 8.54 8.54 0 0 0 4.565-6.391c1.161-8.055 5.444-18.278 8.619-18.278 6.187 0 8.713 10.283 8.73 10.325a8.528 8.528 0 0 0 8.337 6.741h17.067c6.178 0 19.021 5.487 45.167 31.633 4.514 4.514 9.993 5.888 14.396 6.989 6.69 1.672 8.704 2.176 8.704 12.578 0 8.533-2.458 8.533-8.994 8.533-.751-.009-1.946-.179-3.456-.35-9.847-1.143-28.186-3.285-39.27 6.571-3.652 3.26-8.013 9.259-8.013 19.379 0 15.992 13.926 22.69 25.6 24.806v14.78c-11.554-4.241-30.43-12.954-44.996-28.382a8.526 8.526 0 0 0-12.058-.341c-3.43 3.234-3.584 8.636-.35 12.066 25.941 27.469 62.455 36.224 64 36.582a8.572 8.572 0 0 0 7.245-1.63 8.522 8.522 0 0 0 3.226-6.682v-34.133c0-4.693-3.814-8.499-8.508-8.533-.171 0-17.092-.478-17.092-8.533 0-4.113 1.306-5.751 2.295-6.622 5.359-4.779 19.789-3.106 25.941-2.381 2.406.282 4.292.469 5.419.469 17.306 0 26.078-8.61 26.078-25.6 0-23.731-13.542-27.119-21.632-29.141-2.842-.708-5.291-1.323-6.468-2.492-17.05-17.058-38.972-36.634-57.233-36.634h-10.923c-3.558-8.141-10.846-17.067-23.211-17.067-13.449 0-20.087 13.099-23.159 22.852-8.183-1.946-18.057-1.758-25.062 5.248-3.251 3.251-4.958 7.45-4.949 12.134.026 4.719 1.852 9.412 4.173 13.491-14.091 4.413-30.39 15.301-36.081 38.068z"/></svg>