<svg xmlns="http://www.w3.org/2000/svg" viewBox="0 0 511.983 511.983"><path d="M125.491 267.021a8.523 8.523 0 0 0-12.066 0c-25.301 25.293-25.813 53.094-1.707 78.507l-53.896 53.888-8.866-8.798c-6.647-6.656-17.468-6.673-24.098-.043L4.992 410.449c-6.656 6.647-6.656 17.476 0 24.132l72.397 72.405a17.031 17.031 0 0 0 12.075 4.992c4.369 0 8.747-1.664 12.066-4.992l19.866-19.857c3.482-3.482 5.163-8.346 4.625-13.346-.495-4.582-2.756-8.994-6.536-12.774l-6.912-6.878 53.837-53.828c25.762 24.525 52.873 23.927 78.549-1.749a8.523 8.523 0 0 0 0-12.066L125.491 267.021zm51.158 119.424l-4.301-4.241c-3.336-3.285-8.695-3.268-12.023.043l-59.836 59.844-13.449-13.389c-3.336-3.328-8.73-3.311-12.075.026-3.328 3.337-3.311 8.738.026 12.066l32.435 32.299c1.263 1.254 1.587 2.236 1.86 2.014l-19.831 19.814-72.397-72.405 19.857-19.806 14.925 14.814c3.328 3.302 8.721 3.294 12.041-.026l59.827-59.836 15.317 15.352a8.538 8.538 0 0 0 12.066.017c3.345-3.328 3.345-8.738.017-12.075l-25.617-25.668c-9.591-9.6-14.473-19.021-14.498-28.023-.017-7.049 2.935-14.362 8.798-21.803l106.752 106.743c-16.939 13.474-32.572 11.58-49.894-5.76zm110.976-209.758L430.933 33.378l45.773-10.172-171.281 171.281a8.523 8.523 0 0 0 0 12.066 8.51 8.51 0 0 0 6.033 2.5 8.509 8.509 0 0 0 6.033-2.5L488.764 35.281l-10.163 45.764-143.309 143.309a8.523 8.523 0 0 0 0 12.066 8.51 8.51 0 0 0 6.033 2.5 8.509 8.509 0 0 0 6.033-2.5L492.425 91.354a8.521 8.521 0 0 0 2.304-4.181l17.067-76.8c.111-.521.12-1.05.137-1.57.009-.128.043-.256.043-.384a8.547 8.547 0 0 0-.546-2.816c-.077-.205-.171-.393-.265-.589-.418-.922-.939-1.792-1.673-2.526-.734-.734-1.604-1.254-2.517-1.673-.205-.094-.393-.188-.597-.265-.904-.324-1.843-.529-2.807-.546-.145 0-.273.034-.418.043-.521.017-1.033.034-1.544.145l-76.8 17.067a8.516 8.516 0 0 0-4.181 2.295l-145.07 145.067c-3.337 3.337-3.337 8.73 0 12.066s8.73 3.336 12.067 0zm219.366 233.762l-19.857-19.866c-6.007-6.016-16.922-7.296-26.129 1.92l-6.861 6.895-53.837-53.828c24.516-25.754 23.936-52.864-1.749-78.549a8.523 8.523 0 0 0-12.066 0L267.025 386.487a8.523 8.523 0 0 0 0 12.066c25.301 25.301 53.111 25.813 78.507 1.707l53.897 53.897-8.806 8.866c-6.656 6.656-6.673 17.468-.034 24.098l19.866 19.866c3.319 3.328 7.697 4.992 12.066 4.992s8.747-1.664 12.075-4.992l72.397-72.397c6.654-6.656 6.654-17.493-.002-24.141zm-84.472 84.472l-19.806-19.857 14.814-14.925c3.302-3.337 3.294-8.721-.026-12.041l-59.836-59.836 15.352-15.309c3.345-3.328 3.345-8.73.017-12.075-3.336-3.328-8.738-3.337-12.066-.009l-25.677 25.617c-9.6 9.591-19.029 14.473-28.023 14.498h-.077c-7.023 0-14.31-2.953-21.726-8.806l106.743-106.735c13.483 16.922 11.563 32.555-5.769 49.886l-4.233 4.301c-3.285 3.345-3.268 8.713.051 12.023l59.836 59.836-13.397 13.449c-3.319 3.336-3.302 8.747.026 12.066a8.526 8.526 0 0 0 12.075-.026l32.29-32.427c1.263-1.254 2.219-1.587 2.022-1.86l19.814 19.831-72.404 72.399zM281.591 349.854a8.509 8.509 0 0 0 6.033-2.5 8.525 8.525 0 0 0 0-12.066L33.382 81.045 23.219 35.281l282.206 282.206a8.51 8.51 0 0 0 6.033 2.5 8.509 8.509 0 0 0 6.033-2.5 8.523 8.523 0 0 0 0-12.066L35.277 23.206 81.05 33.378 335.292 287.62a8.523 8.523 0 0 0 12.066 0 8.525 8.525 0 0 0 0-12.066l-256-256a8.513 8.513 0 0 0-4.181-2.295L10.377.192C9.865.081 9.353.064 8.832.047 8.687.038 8.559.004 8.414.004 7.441.021 6.511.226 5.606.55c-.204.077-.392.171-.588.265-.922.41-1.792.939-2.526 1.673-.734.733-1.263 1.604-1.673 2.525-.094.197-.188.384-.264.589a8.547 8.547 0 0 0-.546 2.816c0 .128.034.256.043.384.017.521.026 1.05.137 1.57l17.067 76.8a8.521 8.521 0 0 0 2.304 4.181l164.634 164.634-19.567 19.567a8.523 8.523 0 0 0 0 12.066c1.664 1.664 3.849 2.5 6.033 2.5s4.369-.836 6.033-2.5l19.567-19.567 17.8 17.801-19.567 19.567a8.523 8.523 0 0 0 0 12.066 8.51 8.51 0 0 0 6.033 2.5 8.509 8.509 0 0 0 6.033-2.5l19.567-19.567 17.801 17.801-19.567 19.567a8.523 8.523 0 0 0 0 12.066c1.664 1.664 3.849 2.5 6.033 2.5s4.369-.836 6.033-2.5l19.567-19.567 19.567 19.567a8.502 8.502 0 0 0 6.031 2.5z"/></svg>