<svg xmlns="http://www.w3.org/2000/svg" viewBox="0 0 511.974 511.974"><path d="M125.423 215.808c-3.328-3.337-8.73-3.337-12.066 0-25.899 25.899-25.899 54.434 0 80.333l23.868 23.868-79.403 79.403-8.866-8.798c-6.647-6.656-17.468-6.673-24.098-.043L4.992 410.445c-6.656 6.647-6.656 17.476 0 24.132l72.397 72.405a17.031 17.031 0 0 0 12.075 4.992c4.369 0 8.747-1.664 12.066-4.992l19.866-19.857c3.482-3.482 5.163-8.346 4.625-13.346-.495-4.582-2.756-8.994-6.536-12.774l-6.912-6.878 79.386-79.377 23.799 23.791c26.283 26.274 54.05 26.274 80.333 0a8.525 8.525 0 0 0 0-12.066L125.423 215.808zm102.4 170.667l-29.833-29.833a8.54 8.54 0 0 0-12.066 0l-85.436 85.444-13.448-13.388c-3.336-3.328-8.73-3.311-12.075.026-3.328 3.337-3.311 8.738.026 12.066l32.435 32.299c1.263 1.254 1.587 2.202 1.86 2.014l-19.831 19.814-72.397-72.405 19.857-19.806L51.84 417.52c3.328 3.302 8.721 3.294 12.041-.026l85.41-85.41 15.343 15.334a8.523 8.523 0 0 0 12.066 0c3.336-3.337 3.336-8.738 0-12.066l-51.277-51.277c-17.289-17.289-19.2-32.922-5.717-49.843l157.969 157.961c-16.922 13.473-32.555 11.57-49.852-5.718zM511.428 5.598c-.077-.205-.171-.393-.265-.589-.418-.922-.939-1.792-1.673-2.526-.734-.734-1.604-1.254-2.517-1.673-.205-.094-.393-.188-.597-.265-.904-.324-1.843-.529-2.807-.546-.145 0-.273.034-.418.043-.521.017-1.033.034-1.544.145l-153.6 34.133a8.533 8.533 0 0 0-4.975 3.209l-153.6 204.8a8.527 8.527 0 0 0 1.707 11.947 8.517 8.517 0 0 0 11.947-1.707L354.79 50.295l121.916-27.093L224.358 275.55a8.523 8.523 0 0 0 0 12.066c1.664 1.664 3.849 2.5 6.033 2.5s4.369-.836 6.033-2.5l252.34-252.339-27.085 121.907L259.405 308.89a8.527 8.527 0 0 0-1.707 11.947 8.516 8.516 0 0 0 6.835 3.413 8.484 8.484 0 0 0 5.112-1.707l204.8-153.6a8.545 8.545 0 0 0 3.217-4.975l34.133-153.6c.111-.521.12-1.05.137-1.57.009-.128.043-.256.043-.384a8.614 8.614 0 0 0-.547-2.816z"/></svg>