<svg xmlns="http://www.w3.org/2000/svg" viewBox="0 0 512 512"><path d="M503.467 477.867H8.533A8.53 8.53 0 0 0 0 486.4v17.067C0 508.177 3.814 512 8.533 512s8.533-3.823 8.533-8.533v-8.533h477.867v8.533a8.53 8.53 0 0 0 8.533 8.533 8.53 8.53 0 0 0 8.533-8.533V486.4a8.53 8.53 0 0 0-8.532-8.533zM409.6 281.6v170.667c0 4.71 3.814 8.533 8.533 8.533s8.533-3.823 8.533-8.533V281.6c0-4.71-3.814-8.533-8.533-8.533s-8.533 3.823-8.533 8.533zM375.467 59.733v153.6a8.53 8.53 0 0 0 8.533 8.533 8.53 8.53 0 0 0 8.533-8.533v-153.6A8.53 8.53 0 0 0 384 51.2a8.53 8.53 0 0 0-8.533 8.533z"/><path d="M93.867 76.8c4.719 0 8.533-3.823 8.533-8.533s-3.814-8.533-8.533-8.533c-4.71 0-8.533-3.831-8.533-8.533 0-5.436 6.11-12.954 19.755-17.502.503-.162 51.447-16.631 150.912-16.631 97.63 0 150.477 16.495 151.057 16.683 13.474 4.207 19.61 11.998 19.61 17.451 0 4.702-3.823 8.533-8.533 8.533-4.719 0-8.533 3.823-8.533 8.533s3.814 8.533 8.533 8.533c14.114 0 25.6-11.486 25.6-25.6 0-14.507-12.399-27.75-31.522-33.724C409.984 16.759 356.625 0 256 0 153.395 0 101.845 16.794 99.703 17.502 80.307 23.97 68.267 36.881 68.267 51.2c0 14.114 11.486 25.6 25.6 25.6z"/><path d="M324.267 59.733a8.534 8.534 0 0 0-5.837-8.098c-1.101-.367-27.315-8.969-62.43-8.969-35.115 0-61.338 8.602-62.43 8.969a8.534 8.534 0 0 0-5.837 8.098c0 14.831-10.769 25.6-25.6 25.6a8.53 8.53 0 0 0-8.533 8.533V281.6a8.53 8.53 0 0 0 8.533 8.533h187.733a8.53 8.53 0 0 0 8.533-8.533V93.867a8.53 8.53 0 0 0-8.533-8.533c-15.547-.001-25.599-10.053-25.599-25.601zm17.066 213.334H170.667V101.615c17.869-3.345 31.095-17.135 33.673-35.328 8.943-2.347 28.22-6.554 51.661-6.554 23.305 0 42.624 4.198 51.618 6.554 2.423 18.782 15.317 32.239 33.715 35.405v171.375z"/><path d="M59.733 290.133c4.719 0 8.533-3.823 8.533-8.533s-3.814-8.533-8.533-8.533c-4.71 0-8.533-3.831-8.533-8.533s3.823-8.533 8.533-8.533h59.733v196.267a8.53 8.53 0 0 0 8.533 8.533h256a8.53 8.53 0 0 0 8.533-8.533V256h59.733c4.71 0 8.533 3.831 8.533 8.533s-3.823 8.533-8.533 8.533c-4.719 0-8.533 3.823-8.533 8.533s3.814 8.533 8.533 8.533c14.114 0 25.6-11.486 25.6-25.6s-11.486-25.6-25.6-25.6H384a8.53 8.53 0 0 0-8.533 8.533V307.2H136.533v-59.733a8.53 8.53 0 0 0-8.533-8.533H59.733c-14.114 0-25.6 11.486-25.6 25.6s11.486 25.599 25.6 25.599zm76.8 34.134h238.933v119.467H136.533V324.267z"/><path d="M85.333 281.6v170.667a8.53 8.53 0 0 0 8.533 8.533 8.53 8.53 0 0 0 8.533-8.533V281.6a8.53 8.53 0 0 0-8.533-8.533 8.531 8.531 0 0 0-8.533 8.533zm34.134-221.867v153.6c0 4.71 3.814 8.533 8.533 8.533s8.533-3.823 8.533-8.533v-153.6c0-4.71-3.814-8.533-8.533-8.533s-8.533 3.823-8.533 8.533z"/></svg>