<svg xmlns="http://www.w3.org/2000/svg" viewBox="0 0 512.001 512.001"><path d="M239.19 264.531a8.536 8.536 0 0 0-8.533-8.533h-.094c-4.702 0-8.482 3.823-8.482 8.533s3.857 8.533 8.576 8.533a8.536 8.536 0 0 0 8.533-8.533z"/><path d="M475.998 3.197a8.533 8.533 0 0 0-7.851-3.115 8.555 8.555 0 0 0-6.69 5.163c-.41.973-41.438 97.152-111.59 97.152H51.2c0-9.412-7.663-17.067-17.067-17.067H17.067C7.655 85.331 0 92.985 0 102.397v51.2c0 9.412 7.654 17.067 17.067 17.067h17.067c9.404 0 17.067-7.654 17.067-17.067h17.067v349.867a8.536 8.536 0 0 0 5.265 7.885 8.516 8.516 0 0 0 9.301-1.852L102.4 489.93l19.567 19.567a8.523 8.523 0 0 0 12.066 0L153.6 489.93l19.567 19.567a8.523 8.523 0 0 0 12.066 0L204.8 489.93l19.567 19.567a8.523 8.523 0 0 0 12.066 0L256 489.93l19.567 19.567a8.523 8.523 0 0 0 12.066 0L307.2 489.93l19.567 19.567a8.535 8.535 0 0 0 9.301 1.852 8.535 8.535 0 0 0 5.265-7.885V179.197a8.53 8.53 0 0 0-8.533-8.533 8.53 8.53 0 0 0-8.533 8.533v303.667l-11.034-11.034a8.523 8.523 0 0 0-12.066 0L281.6 491.398l-19.567-19.567a8.523 8.523 0 0 0-12.066 0L230.4 491.398l-19.567-19.567a8.523 8.523 0 0 0-12.066 0L179.2 491.398l-19.567-19.567a8.523 8.523 0 0 0-12.066 0L128 491.398l-19.567-19.567a8.523 8.523 0 0 0-12.066 0l-11.034 11.034V145.064a8.53 8.53 0 0 0-8.533-8.533H51.2v-17.067h298.667c64.222 0 105.131-64.043 120.516-93.397 9.549 17.237 24.55 52.224 24.55 101.931 0 50.586-15.539 85.931-25.045 102.827-16.811-28.544-61.858-94.293-120.021-94.293H110.934c-4.719 0-8.533 3.823-8.533 8.533s3.814 8.533 8.533 8.533h238.933c62.165 0 111.351 96.708 111.829 97.69a8.576 8.576 0 0 0 7.638 4.71 8.548 8.548 0 0 0 6.664-3.2c1.468-1.843 36.002-45.909 36.002-124.8S477.466 5.041 475.998 3.197zM34.142 145.098v8.499H17.067v-51.2h17.067v8.533l.008 34.099c0 .017-.008.026-.008.034s.008.018.008.035z"/><path d="M249.763 317.642c5.35-4.779 19.78-3.106 25.941-2.381 2.406.282 4.292.469 5.419.469 17.306 0 26.078-8.61 26.078-25.6 0-23.731-13.542-27.119-21.632-29.141-2.842-.708-5.291-1.323-6.468-2.492-17.058-17.058-38.972-36.634-57.233-36.634h-10.923c-3.558-8.141-10.846-17.067-23.211-17.067-13.449 0-20.079 13.099-23.159 22.852-8.183-1.954-18.057-1.766-25.062 5.248-3.251 3.251-4.958 7.45-4.949 12.134.026 4.719 1.843 9.412 4.173 13.491-14.097 4.412-30.387 15.3-36.079 38.067a8.509 8.509 0 0 0 1.553 7.322 8.518 8.518 0 0 0 6.724 3.285c1.374 0 3.072.631 4.77 1.545-13.483 19.345-11.93 45.884 4.659 79.07a8.545 8.545 0 0 0 7.057 4.702 8.504 8.504 0 0 0 7.62-3.695c5.88-8.576 11.648-15.104 16.572-19.908 2.33 13.773 11.75 32.896 39.185 55.774a8.53 8.53 0 0 0 5.47 1.98c1.57 0 3.14-.427 4.531-1.306a8.533 8.533 0 0 0 3.746-9.301c-6.554-26.197 3.891-32.836 4.07-32.956 4.215-2.116 5.931-7.236 3.814-11.452-2.116-4.216-7.228-5.931-11.443-3.814-.725.358-13.815 7.211-15.454 28.416-24.303-26.76-16.29-41.651-16.299-41.651a8.526 8.526 0 0 0-.734-10.419c-2.603-2.901-6.835-3.686-10.266-1.903-.631.324-13.355 7.006-28.356 25.071-9.472-24.107-8.09-41.83 4.13-53.931 3.336-3.311 3.379-8.695.085-12.049-.751-.759-5.504-5.436-12.032-8.516 9.446-19.294 31.027-19.78 32.017-19.789a8.524 8.524 0 0 0 7.893-5.299 8.509 8.509 0 0 0-1.911-9.31c-4.531-4.471-8.858-11.494-8.482-13.491 2.918-2.944 11.307-.444 15.112 1.519a8.553 8.553 0 0 0 7.851.051 8.551 8.551 0 0 0 4.574-6.391c1.152-8.055 5.444-18.278 8.619-18.278 6.187 0 8.704 10.283 8.721 10.325a8.544 8.544 0 0 0 8.346 6.741h17.067c6.178 0 19.012 5.487 45.167 31.633 4.514 4.514 9.993 5.888 14.387 6.989 6.699 1.673 8.713 2.176 8.713 12.578 0 8.533-2.449 8.533-9.003 8.533-.742-.009-1.937-.179-3.447-.35-9.839-1.143-28.177-3.277-39.279 6.571-3.644 3.26-8.004 9.259-8.004 19.379 0 15.991 13.926 22.69 25.6 24.806v14.78c-11.546-4.241-30.421-12.954-44.996-28.382-3.226-3.422-8.636-3.584-12.066-.341-3.422 3.234-3.576 8.636-.341 12.066 25.933 27.469 62.464 36.224 64 36.582 2.526.563 5.197-.009 7.245-1.63a8.546 8.546 0 0 0 3.226-6.682v-34.133c0-4.693-3.814-8.499-8.508-8.533-.171 0-17.092-.478-17.092-8.533-.002-4.112 1.304-5.75 2.294-6.621z"/></svg>