<svg xmlns="http://www.w3.org/2000/svg" viewBox="0 0 512 512"><path d="M373.106 32.749H111.66c-13.515 0-24.511 10.995-24.511 24.511s10.996 24.51 24.511 24.51h143.251c4.506 0 8.17 3.665 8.17 8.17s-3.665 8.17-8.17 8.17H8.17A8.17 8.17 0 0 0 0 106.28a8.17 8.17 0 0 0 8.17 8.17h246.74c13.515 0 24.511-10.995 24.511-24.511s-10.996-24.509-24.51-24.509H111.66c-4.506 0-8.17-3.665-8.17-8.17s3.665-8.17 8.17-8.17h261.447a8.17 8.17 0 0 0 8.17-8.17 8.17 8.17 0 0 0-8.171-8.171zm130.724 0h-98.043a8.17 8.17 0 0 0-8.17 8.17 8.17 8.17 0 0 0 8.17 8.17h98.043a8.17 8.17 0 0 0 8.17-8.17 8.17 8.17 0 0 0-8.17-8.17z"/><path d="M503.83 98.111H322.451c-4.506 0-8.17-3.665-8.17-8.17s3.665-8.17 8.17-8.17H503.83a8.17 8.17 0 0 0 8.17-8.17 8.17 8.17 0 0 0-8.17-8.17H322.451c-13.515 0-24.511 10.995-24.511 24.511s10.996 24.511 24.511 24.511H503.83a8.17 8.17 0 0 0 8.17-8.17 8.17 8.17 0 0 0-8.17-8.172zM65.449 32.749H8.17A8.17 8.17 0 0 0 0 40.919a8.17 8.17 0 0 0 8.17 8.17h57.279a8.17 8.17 0 0 0 8.17-8.17 8.17 8.17 0 0 0-8.17-8.17zM503.83 354.111h-74.077v-21.787h25.055c13.515 0 24.511-10.995 24.511-24.511 0-1.729-.192-3.488-.57-5.232L445.524 150.07c-2.435-11.17-12.504-19.278-23.941-19.278s-21.505 8.107-23.941 19.278l-28.067 128.836-5.159 23.681a24.655 24.655 0 0 0-.569 5.227c0 13.516 10.996 24.511 24.511 24.511h25.055v21.787H297.94v-21.787h25.055c13.515 0 24.511-10.995 24.511-24.511 0-1.729-.192-3.488-.57-5.232L313.711 150.07c-2.435-11.17-12.504-19.278-23.941-19.278s-21.505 8.107-23.941 19.278l-28.07 128.845-5.156 23.664a24.577 24.577 0 0 0-.57 5.233c0 13.516 10.996 24.511 24.511 24.511H281.6v21.787h-84.975v-58.713l1.852 1.852a8.15 8.15 0 0 0 5.778 2.393 8.145 8.145 0 0 0 5.778-2.393 8.17 8.17 0 0 0 0-11.554l-81.702-81.702a8.17 8.17 0 0 0-11.555 0L86.88 233.89v-24.12c0-4.512-3.657-8.17-8.17-8.17s-8.17 3.658-8.17 8.17v40.46l-35.465 35.465a8.17 8.17 0 0 0 0 11.554 8.17 8.17 0 0 0 11.555 0l1.852-1.852v58.713H8.17c-4.513 0-8.17 3.658-8.17 8.17s3.657 8.17 8.17 8.17h495.66a8.17 8.17 0 1 0 0-16.339zm-373.107 0h-16.34v-54.468h16.34v54.468zm49.562-.001h-33.221v-62.638a8.17 8.17 0 0 0-8.17-8.17h-32.681a8.17 8.17 0 0 0-8.17 8.17v62.638H64.821v-75.054l57.732-57.732 57.732 57.732v75.054zm76.259-38.127c-4.505 0-8.169-3.666-8.169-8.17 0-.568.066-1.158.196-1.753l3.771-17.311H301.1a8.17 8.17 0 0 0 8.17-8.17 8.17 8.17 0 0 0-8.17-8.17h-45.199l25.894-118.858c.81-3.719 4.164-6.419 7.974-6.419s7.164 2.699 7.974 6.417l33.224 152.505c.131.601.197 1.193.197 1.758 0 4.506-3.665 8.17-8.17 8.17h-66.45zm131.812 0c-4.504 0-8.169-3.666-8.169-8.17 0-.565.066-1.157.196-1.753l3.771-17.311h48.758a8.17 8.17 0 0 0 8.17-8.17 8.17 8.17 0 0 0-8.17-8.17h-45.199l25.894-118.858c.81-3.719 4.164-6.419 7.974-6.419s7.164 2.699 7.974 6.417l33.224 152.505c.131.601.197 1.193.197 1.758 0 4.506-3.665 8.17-8.17 8.17h-66.45zM264.17 430.23h-16.34a8.17 8.17 0 0 0-8.17 8.17 8.17 8.17 0 0 0 8.17 8.17h16.34a8.17 8.17 0 0 0 8.17-8.17 8.17 8.17 0 0 0-8.17-8.17zm206.979 32.681h-16.34a8.17 8.17 0 0 0-8.17 8.17 8.17 8.17 0 0 0 8.17 8.17h16.34a8.17 8.17 0 0 0 8.17-8.17 8.17 8.17 0 0 0-8.17-8.17zm-446.638 0H8.17a8.17 8.17 0 0 0-8.17 8.17 8.17 8.17 0 0 0 8.17 8.17h16.34a8.17 8.17 0 0 0 8.17-8.17 8.168 8.168 0 0 0-8.169-8.17zM503.83 430.23h-16.34a8.17 8.17 0 0 0-8.17 8.17 8.17 8.17 0 0 0 8.17 8.17h16.34a8.17 8.17 0 0 0 8.17-8.17 8.17 8.17 0 0 0-8.17-8.17zm-305.021-43.575h-16.34c-4.513 0-8.17 3.658-8.17 8.17s3.657 8.17 8.17 8.17h16.34c4.513 0 8.17-3.658 8.17-8.17s-3.657-8.17-8.17-8.17z"/></svg>