<svg xmlns="http://www.w3.org/2000/svg" viewBox="0 0 512 512"><path d="M40.851 441.191a8.17 8.17 0 0 0-8.17 8.17v10.894c0 4.513 3.658 8.17 8.17 8.17s8.17-3.657 8.17-8.17v-10.894a8.17 8.17 0 0 0-8.17-8.17zm32.681 43.575a8.17 8.17 0 0 0-8.17 8.17v10.894c0 4.513 3.658 8.17 8.17 8.17s8.17-3.657 8.17-8.17v-10.894a8.17 8.17 0 0 0-8.17-8.17zm32.681-21.787a8.17 8.17 0 0 0-8.17 8.17v10.894c0 4.513 3.658 8.17 8.17 8.17s8.17-3.657 8.17-8.17v-10.894a8.17 8.17 0 0 0-8.17-8.17zm364.936-21.788a8.169 8.169 0 0 0-8.17 8.17v10.894c0 4.513 3.657 8.17 8.17 8.17s8.17-3.657 8.17-8.17v-10.894a8.169 8.169 0 0 0-8.17-8.17zm-152.511 43.575a8.169 8.169 0 0 0-8.17 8.17v10.894c0 4.513 3.657 8.17 8.17 8.17s8.17-3.657 8.17-8.17v-10.894a8.168 8.168 0 0 0-8.17-8.17zm32.681-21.787a8.169 8.169 0 0 0-8.17 8.17v10.894c0 4.513 3.657 8.17 8.17 8.17s8.17-3.657 8.17-8.17v-10.894a8.169 8.169 0 0 0-8.17-8.17zm-152.51 0a8.17 8.17 0 0 0-8.17 8.17v10.894c0 4.513 3.658 8.17 8.17 8.17s8.17-3.657 8.17-8.17v-10.894a8.17 8.17 0 0 0-8.17-8.17zm305.021-54.468h-24.511V8.17a8.169 8.169 0 0 0-8.17-8.17h-32.681a8.169 8.169 0 0 0-8.17 8.17v35.202a94.846 94.846 0 0 0-9.16-10.642c-14.42-14.419-32.575-23.459-51.122-25.455a8.2 8.2 0 0 0-6.652 2.345 8.172 8.172 0 0 0-2.345 6.652c1.996 18.545 11.036 36.701 25.454 51.122 12.521 12.521 27.86 20.978 43.825 24.296v25.716c0 4.513 3.657 8.17 8.17 8.17s8.17-3.657 8.17-8.17V16.34h16.34v119.83h-24.511a8.169 8.169 0 0 0-8.17 8.17v35.202a94.846 94.846 0 0 0-9.16-10.642c-14.42-14.419-32.575-23.459-51.122-25.455a8.194 8.194 0 0 0-6.652 2.345 8.172 8.172 0 0 0-2.345 6.652c1.996 18.546 11.036 36.702 25.454 51.122 12.521 12.521 27.86 20.978 43.825 24.296v25.715c0 4.513 3.657 8.17 8.17 8.17s8.17-3.657 8.17-8.17V152.511h16.34v119.83h-24.511a8.169 8.169 0 0 0-8.17 8.17v128H344.63v-51.709c15.965-3.318 31.304-11.776 43.825-24.297 14.418-14.419 23.458-32.574 25.454-51.12a8.172 8.172 0 0 0-2.345-6.652 8.178 8.178 0 0 0-6.652-2.345c-18.545 1.996-36.701 11.036-51.122 25.455a94.743 94.743 0 0 0-9.16 10.642V8.17A8.169 8.169 0 0 0 336.46 0h-32.681a8.169 8.169 0 0 0-8.17 8.17v109.235a8.169 8.169 0 0 0 8.17 8.17 8.169 8.169 0 0 0 8.17-8.17V16.34h16.34v119.83h-24.511a8.169 8.169 0 0 0-8.17 8.17v109.235a8.169 8.169 0 0 0 8.17 8.17 8.169 8.169 0 0 0 8.17-8.17V152.511h16.34v119.83h-24.511a8.169 8.169 0 0 0-8.17 8.17v128h-16.34V8.17a8.169 8.169 0 0 0-8.17-8.17h-32.681a8.17 8.17 0 0 0-8.17 8.17v109.235a8.17 8.17 0 0 0 8.17 8.17 8.17 8.17 0 0 0 8.17-8.17V16.34h16.34v119.83h-24.511a8.17 8.17 0 0 0-8.17 8.17v109.235a8.17 8.17 0 0 0 8.17 8.17 8.17 8.17 0 0 0 8.17-8.17V152.511h16.34v119.83h-24.511a8.17 8.17 0 0 0-8.17 8.17v128h-16.34V8.17a8.17 8.17 0 0 0-8.17-8.17h-32.681a8.17 8.17 0 0 0-8.17 8.17v67.883a94.66 94.66 0 0 0-9.162-10.642c-14.419-14.419-32.574-23.459-51.12-25.455a8.179 8.179 0 0 0-6.652 2.345 8.176 8.176 0 0 0-2.346 6.652c1.996 18.545 11.036 36.701 25.455 51.12 14.419 14.42 32.574 23.461 51.12 25.455a8.156 8.156 0 0 0 1.688.006c.195-.02.386-.053.576-.086.071-.012.143-.019.214-.033a8.07 8.07 0 0 0 .677-.17l.095-.024c.229-.07.452-.151.673-.241.025-.01.052-.017.077-.028.216-.089.425-.191.631-.297.03-.015.062-.028.093-.045.196-.105.385-.221.571-.341.038-.025.078-.046.117-.071.19-.127.371-.265.55-.407.031-.024.063-.045.094-.07a8.24 8.24 0 0 0 1.175-1.187c.05-.062.094-.126.142-.19.127-.167.251-.338.365-.514.049-.076.095-.155.141-.232a7.902 7.902 0 0 0 .642-1.331c.03-.082.062-.162.089-.244.066-.195.122-.394.173-.596.021-.083.045-.163.063-.246.045-.203.078-.41.108-.618.012-.084.029-.167.038-.252.024-.218.034-.439.04-.661.002-.074.011-.148.011-.223.004-.022.004-101.086.004-101.086h16.34v119.83h-24.511a8.17 8.17 0 0 0-8.17 8.17v109.235a8.17 8.17 0 0 0 8.17 8.17 8.17 8.17 0 0 0 8.17-8.17V152.511h16.34v119.83h-24.511a8.17 8.17 0 0 0-8.17 8.17v27.974a94.758 94.758 0 0 0-9.162-10.643c-14.42-14.418-32.575-23.458-51.12-25.454a8.185 8.185 0 0 0-6.652 2.345 8.176 8.176 0 0 0-2.346 6.652c1.997 18.545 11.036 36.701 25.455 51.122 12.521 12.52 27.859 20.978 43.824 24.296v51.709h-83.18V227.86c15.965-3.318 31.304-11.776 43.824-24.296 14.42-14.419 23.461-32.574 25.455-51.123a8.168 8.168 0 0 0-8.998-8.996c-18.546 1.996-36.702 11.036-51.12 25.455a94.57 94.57 0 0 0-9.161 10.643V8.17A8.17 8.17 0 0 0 73.532 0H40.851a8.17 8.17 0 0 0-8.17 8.17v109.235c0 4.513 3.658 8.17 8.17 8.17s8.17-3.657 8.17-8.17V16.34h16.34v119.83h-24.51a8.17 8.17 0 0 0-8.17 8.17v109.235c0 4.513 3.658 8.17 8.17 8.17s8.17-3.657 8.17-8.17V152.511h16.34v119.83h-24.51a8.17 8.17 0 0 0-8.17 8.17v128H8.17c-4.512 0-8.17 3.657-8.17 8.17s3.658 8.17 8.17 8.17h495.66c4.513 0 8.17-3.657 8.17-8.17s-3.657-8.17-8.17-8.17zM398.028 55.84c-8.768-8.769-15.092-19.13-18.417-29.973 10.842 3.325 21.204 9.65 29.972 18.418 8.768 8.767 15.092 19.128 18.417 29.972-10.843-3.325-21.204-9.65-29.972-18.417zm0 136.169c-8.768-8.767-15.092-19.129-18.417-29.972 10.842 3.325 21.204 9.65 29.972 18.418 8.768 8.767 15.092 19.128 18.417 29.972-10.843-3.325-21.204-9.65-29.972-18.418zm-32.682 117.388c8.768-8.768 19.13-15.092 29.973-18.417-3.325 10.842-9.648 21.203-18.416 29.972-8.768 8.768-19.13 15.092-29.973 18.417 3.324-10.844 9.649-21.205 18.416-29.972zM132.616 88.52c-8.767-8.768-15.092-19.13-18.417-29.973 10.844 3.325 21.203 9.65 29.972 18.418 8.767 8.767 15.093 19.129 18.417 29.972-10.843-3.325-21.204-9.648-29.972-18.417zm0 232.432c-8.767-8.768-15.092-19.13-18.417-29.973 10.844 3.325 21.203 9.648 29.972 18.416 8.767 8.769 15.092 19.13 18.417 29.973-10.843-3.324-21.204-9.649-29.972-18.416zm-30.197-140.498c8.767-8.767 19.129-15.092 29.972-18.417-3.324 10.842-9.65 21.204-18.418 29.973-8.768 8.768-19.129 15.092-29.972 18.417 3.323-10.843 9.649-21.205 18.418-29.973zM65.362 408.511h-16.34v-119.83h16.34v119.83zm132.205 0h-16.34v-119.83h16.34v119.83zm65.361 0h-16.34v-119.83h16.34v119.83zm65.362 0h-16.34v-119.83h16.34v119.83zm134.689 0h-16.34v-119.83h16.34v119.83z"/></svg>