<svg xmlns="http://www.w3.org/2000/svg" viewBox="0 0 511.999 511.999"><path d="M255.999 20.427c-31.535 0-57.191 25.656-57.191 57.191s25.656 57.191 57.191 57.191 57.191-25.656 57.191-57.191-25.656-57.191-57.191-57.191zm0 98.042c-22.526 0-40.851-18.325-40.851-40.851s18.326-40.851 40.851-40.851c22.526 0 40.851 18.325 40.851 40.851s-18.325 40.851-40.851 40.851zm220.05-1.421c-8.146 0-15.908 3.134-21.787 8.463-5.879-5.329-13.641-8.463-21.787-8.463-4.513 0-8.17 3.657-8.17 8.17s3.658 8.17 8.17 8.17c6.196 0 11.728 3.466 14.437 9.047a8.172 8.172 0 0 0 14.7 0c2.709-5.581 8.241-9.047 14.437-9.047 4.513 0 8.17-3.657 8.17-8.17s-3.657-8.17-8.17-8.17zM79.524 84.367c-8.146 0-15.908 3.134-21.787 8.463-5.879-5.329-13.641-8.463-21.787-8.463-4.513 0-8.17 3.657-8.17 8.17s3.658 8.17 8.17 8.17c6.196 0 11.728 3.466 14.437 9.047a8.172 8.172 0 0 0 14.7 0c2.709-5.581 8.241-9.047 14.437-9.047 4.513 0 8.17-3.657 8.17-8.17s-3.657-8.17-8.17-8.17zm99.131 46.328c-8.146 0-15.908 3.133-21.787 8.463-5.879-5.33-13.641-8.463-21.787-8.463a8.169 8.169 0 0 0-8.17 8.17 8.17 8.17 0 0 0 8.17 8.17c6.196 0 11.729 3.466 14.437 9.046a8.172 8.172 0 0 0 14.7 0c2.708-5.58 8.241-9.046 14.437-9.046a8.169 8.169 0 0 0 8.17-8.17 8.169 8.169 0 0 0-8.17-8.17zm-13.617 138.65h-16.34c-4.513 0-8.17 3.657-8.17 8.17s3.657 8.17 8.17 8.17h16.34c4.513 0 8.17-3.657 8.17-8.17s-3.656-8.17-8.17-8.17zm198.263 49.021h-16.34a8.169 8.169 0 0 0-8.17 8.17 8.169 8.169 0 0 0 8.17 8.17h16.34a8.169 8.169 0 0 0 8.17-8.17 8.169 8.169 0 0 0-8.17-8.17zm49.566-32.681h-16.34c-4.513 0-8.17 3.657-8.17 8.17s3.657 8.17 8.17 8.17h16.34c4.513 0 8.17-3.657 8.17-8.17s-3.657-8.17-8.17-8.17zm94.529-95.586a8.168 8.168 0 0 0-10.918 3.78c-7.922 16.313-24.099 26.445-42.217 26.445s-34.294-10.133-42.217-26.445a8.169 8.169 0 0 0-14.698 0c-7.922 16.313-24.099 26.445-42.217 26.445s-34.294-10.133-42.217-26.445a8.169 8.169 0 0 0-14.698 0c-7.922 16.313-24.099 26.445-42.217 26.445s-34.294-10.133-42.217-26.445a8.169 8.169 0 0 0-14.698 0c-7.922 16.313-24.099 26.445-42.217 26.445s-34.294-10.133-42.217-26.445a8.169 8.169 0 0 0-14.698 0c-7.922 16.313-24.099 26.445-42.217 26.445s-34.294-10.133-42.217-26.445a8.166 8.166 0 0 0-10.917-3.78 8.17 8.17 0 0 0-3.78 10.918c10.517 21.656 32.856 35.648 56.914 35.648 19.409 0 37.698-9.106 49.566-23.996 11.867 14.89 30.157 23.996 49.566 23.996 19.409 0 37.698-9.106 49.566-23.996 11.867 14.89 30.157 23.996 49.566 23.996 19.409 0 37.698-9.106 49.566-23.996 11.867 14.89 30.157 23.996 49.566 23.996 19.409 0 37.698-9.106 49.566-23.996 11.867 14.89 30.157 23.996 49.566 23.996 24.058 0 46.399-13.993 56.914-35.648a8.166 8.166 0 0 0-3.779-10.918zm-3.568 193.628H255.999c-13.515 0-24.51-10.996-24.51-24.51 0-22.526-18.325-40.851-40.851-40.851H8.171a8.169 8.169 0 0 0-8.17 8.17 8.17 8.17 0 0 0 8.17 8.17h182.467c13.515 0 24.51 10.996 24.51 24.51 0 22.526 18.325 40.851 40.851 40.851h247.828a8.169 8.169 0 0 0 8.17-8.17 8.167 8.167 0 0 0-8.169-8.17zM40.852 361.94H8.171c-4.513 0-8.17 3.657-8.17 8.17s3.657 8.17 8.17 8.17h32.681c4.513 0 8.17-3.657 8.17-8.17s-3.657-8.17-8.17-8.17z"/><path d="M180.52 361.94H73.533c-4.513 0-8.17 3.657-8.17 8.17s3.657 8.17 8.17 8.17H180.52c4.513 0 8.17-3.657 8.17-8.17s-3.657-8.17-8.17-8.17zm323.308 65.361H255.999c-22.201 0-43.08-10.913-55.851-29.193a8.171 8.171 0 0 0-13.396 9.358c15.826 22.65 41.712 36.173 69.246 36.173h247.828a8.169 8.169 0 0 0 8.17-8.17 8.166 8.166 0 0 0-8.168-8.168z"/><circle cx="81.702" cy="450.721" r="8.17"/><circle cx="49.021" cy="483.402" r="8.17"/><circle cx="430.295" cy="483.402" r="8.17"/></svg>