<svg xmlns="http://www.w3.org/2000/svg" viewBox="0 0 512 512"><path d="M503.83 174.298h-41.396v-21.787h41.396a8.17 8.17 0 0 0 7.549-11.294l-49.566-119.83a8.168 8.168 0 0 0-15.099 0l-49.566 119.83a8.173 8.173 0 0 0 7.549 11.294h41.396v21.787H197.718v-21.787h41.396a8.17 8.17 0 0 0 7.55-11.294l-49.566-119.83a8.168 8.168 0 0 0-15.099 0l-49.566 119.83a8.17 8.17 0 0 0 7.55 11.294h41.396v21.787H65.907v-21.787h41.396a8.17 8.17 0 0 0 7.55-11.294L65.287 21.388a8.17 8.17 0 0 0-15.1 0L.62 141.217a8.17 8.17 0 0 0 7.55 11.294h41.396v21.787H8.171a8.17 8.17 0 0 0 0 16.34h495.66a8.17 8.17 0 0 0-.001-16.34zM20.392 136.17l37.344-90.284L95.08 136.17H20.392zm131.812 0l37.346-90.284 37.344 90.284h-74.69zm264.715 0l37.346-90.284 37.344 90.284h-74.69zm86.911 266.894H373.107a8.17 8.17 0 0 0-8.17 8.17 8.17 8.17 0 0 0 8.17 8.17H503.83a8.17 8.17 0 0 0 8.17-8.17 8.17 8.17 0 0 0-8.17-8.17z"/><path d="M503.83 305.021H209.702c-31.536 0-57.192 25.656-57.192 57.191s25.656 57.191 57.192 57.191h130.723a8.17 8.17 0 0 0 8.17-8.17 8.17 8.17 0 0 0-8.17-8.17H209.702c-22.526 0-40.851-18.325-40.851-40.851s18.325-40.851 40.851-40.851H503.83a8.17 8.17 0 0 0 0-16.34zm-299.574-98.042H8.171a8.17 8.17 0 0 0 0 16.34h196.085c13.516 0 24.511 10.995 24.511 24.511s-10.995 24.511-24.511 24.511H73.532a8.17 8.17 0 0 0 0 16.34h130.723c22.526 0 40.851-18.325 40.851-40.851s-18.325-40.851-40.85-40.851zM40.851 272.341H8.171a8.17 8.17 0 0 0 0 16.34h32.681a8.17 8.17 0 1 0-.001-16.34zm397.617-65.362h-136.17c-22.526 0-40.851 18.325-40.851 40.851s18.325 40.851 40.851 40.851h136.17c22.526 0 40.851-18.325 40.851-40.851s-18.325-40.851-40.851-40.851zm0 65.362h-136.17c-13.515 0-24.511-10.995-24.511-24.511s10.996-24.511 24.511-24.511h136.17c13.515 0 24.511 10.995 24.511 24.511s-10.996 24.511-24.511 24.511zm-354.042 32.68H29.958C13.44 305.021 0 318.461 0 334.979s13.439 29.957 29.957 29.957h54.468c16.519 0 29.957-13.438 29.957-29.957.001-16.519-13.437-29.958-29.956-29.958zm0 43.575H29.958c-7.509 0-13.617-6.108-13.617-13.617 0-7.509 6.109-13.617 13.617-13.617h54.468c7.509 0 13.617 6.108 13.617 13.617 0 7.509-6.108 13.617-13.617 13.617zM503.83 479.319H258.724c-7.509 0-13.617-6.17-13.617-13.753 0-7.508 6.109-13.617 13.613-13.617l245.106.136a8.172 8.172 0 0 0 8.175-8.166 8.172 8.172 0 0 0-8.166-8.175l-245.111-.136c-16.519 0-29.957 13.438-29.957 29.957 0 16.594 13.439 30.094 29.957 30.094H503.83c4.513 0 8.17-3.658 8.17-8.17s-3.657-8.17-8.17-8.17z"/><path d="M503.83 337.702H307.745a8.17 8.17 0 0 0-8.17 8.17 8.17 8.17 0 0 0 8.17 8.17H503.83a8.17 8.17 0 0 0 8.17-8.17 8.17 8.17 0 0 0-8.17-8.17zm-228.766 0h-65.362a8.17 8.17 0 0 0 0 16.34h65.362a8.17 8.17 0 0 0 8.17-8.17 8.17 8.17 0 0 0-8.17-8.17zm228.766 32.681H384a8.17 8.17 0 0 0-8.17 8.17 8.17 8.17 0 0 0 8.17 8.17h119.83a8.17 8.17 0 0 0 8.17-8.17 8.17 8.17 0 0 0-8.17-8.17zM138.894 239.66H8.171a8.17 8.17 0 0 0 0 16.34h130.723a8.17 8.17 0 0 0 0-16.34z"/></svg>