<svg xmlns="http://www.w3.org/2000/svg" viewBox="0 0 511.999 511.999"><path d="M503.827 74.349h-23.149v-16.34h23.149a8.169 8.169 0 0 0 8.17-8.17 8.169 8.169 0 0 0-8.17-8.17H8.17A8.169 8.169 0 0 0 0 49.839a8.169 8.169 0 0 0 8.17 8.17h25.328v16.34H8.17c-4.513 0-8.17 3.657-8.17 8.17s3.657 8.17 8.17 8.17h495.656c4.513 0 8.17-3.657 8.17-8.17s-3.656-8.17-8.169-8.17zm-408.781 0H49.838v-16.34h45.208v16.34zm61.549 0h-45.208v-16.34h45.208v16.34zm61.548 0h-45.208v-16.34h45.208v16.34zm61.549 0h-45.208v-16.34h45.208v16.34zm61.548 0h-45.208v-16.34h45.208v16.34zm61.549 0h-45.208v-16.34h45.208v16.34zm61.548 0h-45.208v-16.34h45.208v16.34zm-208.339 43.575c-59.166 0-107.301 48.135-107.301 107.301v40.851a8.169 8.169 0 0 0 8.17 8.17 8.169 8.169 0 0 0 8.17-8.17v-40.851c0-50.156 40.805-90.961 90.961-90.961s90.961 40.805 90.961 90.961v40.851a8.17 8.17 0 0 0 8.17 8.17 8.169 8.169 0 0 0 8.17-8.17v-40.851c.001-59.166-48.134-107.301-107.301-107.301zm-247.828 0a8.169 8.169 0 0 0-8.17 8.17 8.169 8.169 0 0 0 8.17 8.17c50.156 0 90.961 40.805 90.961 90.961v9.804a8.17 8.17 0 0 0 8.17 8.17 8.169 8.169 0 0 0 8.17-8.17v-9.804c.001-59.166-48.135-107.301-107.301-107.301zm495.657 0c-59.166 0-107.301 48.135-107.301 107.301v9.804a8.169 8.169 0 0 0 8.17 8.17 8.169 8.169 0 0 0 8.17-8.17v-9.804c0-50.156 40.805-90.961 90.961-90.961a8.169 8.169 0 0 0 8.17-8.17 8.169 8.169 0 0 0-8.17-8.17z"/><path d="M507.396 260.361a8.168 8.168 0 0 0-10.918 3.78c-7.922 16.313-24.099 26.445-42.217 26.445s-34.294-10.133-42.217-26.445a8.169 8.169 0 0 0-14.698 0c-7.922 16.313-24.099 26.445-42.217 26.445s-34.294-10.133-42.217-26.445a8.169 8.169 0 0 0-14.698 0c-7.922 16.313-24.099 26.445-42.217 26.445s-34.294-10.133-42.217-26.445a8.169 8.169 0 0 0-14.698 0c-7.922 16.313-24.099 26.445-42.217 26.445s-34.294-10.133-42.217-26.445a8.169 8.169 0 0 0-14.698 0c-7.922 16.313-24.099 26.445-42.217 26.445s-34.294-10.133-42.217-26.445a8.166 8.166 0 0 0-10.917-3.78 8.169 8.169 0 0 0-3.78 10.917c10.516 21.655 32.856 35.648 56.914 35.648 19.409 0 37.698-9.106 49.566-23.996 11.867 14.89 30.157 23.996 49.566 23.996s37.698-9.106 49.566-23.996c11.867 14.89 30.157 23.996 49.566 23.996 19.409 0 37.698-9.106 49.566-23.996 11.867 14.89 30.157 23.996 49.566 23.996s37.698-9.106 49.566-23.996c11.867 14.89 30.157 23.996 49.566 23.996 24.058 0 46.399-13.993 56.914-35.648a8.168 8.168 0 0 0-3.779-10.917zm-342.359 95.587h-16.34c-4.513 0-8.17 3.657-8.17 8.17s3.657 8.17 8.17 8.17h16.34c4.513 0 8.17-3.657 8.17-8.17s-3.657-8.17-8.17-8.17zm247.829 98.042h-16.34c-4.513 0-8.17 3.657-8.17 8.17s3.657 8.17 8.17 8.17h16.34c4.513 0 8.17-3.657 8.17-8.17s-3.657-8.17-8.17-8.17zm49.565-32.681h-16.34a8.169 8.169 0 0 0-8.17 8.17 8.169 8.169 0 0 0 8.17 8.17h16.34a8.169 8.169 0 0 0 8.17-8.17 8.169 8.169 0 0 0-8.17-8.17zM363.3 388.628h-16.34a8.169 8.169 0 0 0-8.17 8.17 8.169 8.169 0 0 0 8.17 8.17h16.34a8.169 8.169 0 0 0 8.17-8.17 8.169 8.169 0 0 0-8.17-8.17zm-297.394 0h-16.34a8.169 8.169 0 0 0-8.17 8.17 8.169 8.169 0 0 0 8.17 8.17h16.34a8.169 8.169 0 0 0 8.17-8.17 8.169 8.169 0 0 0-8.17-8.17z"/></svg>