<svg xmlns="http://www.w3.org/2000/svg" viewBox="0 0 512 512"><path d="M510.911 347.243l-56.306-97.82h13.821a8.172 8.172 0 0 0 7.081-12.247l-56.306-97.82h13.821a8.172 8.172 0 0 0 7.081-12.247L369.294 4.094a8.17 8.17 0 0 0-14.162 0l-70.808 123.015a8.172 8.172 0 0 0 7.081 12.247h13.821l-5.012 8.707a8.17 8.17 0 0 0 14.161 8.153l12.061-20.954a8.172 8.172 0 0 0-7.081-12.247h-13.821l56.678-98.467 56.678 98.467h-13.82a8.172 8.172 0 0 0-7.081 12.247l56.306 97.821h-13.821a8.172 8.172 0 0 0-7.081 12.247l56.306 97.819h-94.806a8.17 8.17 0 0 0 0 16.34H503.83a8.172 8.172 0 0 0 7.081-12.246z"/><path d="M503.83 408.511H370.383V273.002l7.84 7.84c1.595 1.595 3.686 2.393 5.777 2.393s4.182-.797 5.777-2.393a8.17 8.17 0 0 0 0-11.554L201.862 81.373a8.17 8.17 0 0 0-11.554 0l-51.595 51.595v-45.82a8.17 8.17 0 0 0-8.17-8.17H92.415a8.17 8.17 0 0 0-8.17 8.17v100.287L2.393 269.287a8.17 8.17 0 0 0 0 11.554 8.17 8.17 0 0 0 11.554 0l7.84-7.839v135.509H8.17a8.17 8.17 0 0 0 0 16.34h495.66a8.17 8.17 0 0 0 0-16.34zM100.585 95.319h21.787v53.989l-21.787 21.787V95.319zm-2.4 101.285l97.9-97.9 146.404 146.403H49.683l48.502-48.503zm37.985 211.907H38.128v-16.34h98.043v16.34zm0-32.681H38.128v-16.34h98.043v16.34zm0-65.362h-32.681a8.17 8.17 0 0 0 0 16.34h32.681v16.34H38.128v-16.34h32.681a8.17 8.17 0 0 0 0-16.34H38.128v-16.34h98.043v16.34zm0-32.681H38.128v-16.34h98.043v16.34zm103.49 73.521v57.203h-87.149V261.447h87.149v89.861zm114.383 24.522h-32.681a8.17 8.17 0 0 0 0 16.34h32.681v16.34H256v-16.34h32.681a8.17 8.17 0 0 0 0-16.34H256v-16.34h98.043v16.34zm0-32.681H256v-16.34h98.043v16.34zm0-32.681H256v-16.34h98.043v16.34zm0-32.681H256v-16.34h98.043v16.34zM40.851 441.191a8.17 8.17 0 0 0-8.17 8.17v10.894a8.17 8.17 0 0 0 16.34 0v-10.894a8.17 8.17 0 0 0-8.17-8.17zm32.681 43.575a8.17 8.17 0 0 0-8.17 8.17v10.894a8.17 8.17 0 0 0 16.34 0v-10.894a8.17 8.17 0 0 0-8.17-8.17zm32.681-21.787a8.17 8.17 0 0 0-8.17 8.17v10.894a8.17 8.17 0 0 0 16.34 0v-10.894a8.17 8.17 0 0 0-8.17-8.17zm364.936-21.788a8.17 8.17 0 0 0-8.17 8.17v10.894a8.17 8.17 0 0 0 16.34 0v-10.894a8.17 8.17 0 0 0-8.17-8.17zm-152.511 43.575a8.17 8.17 0 0 0-8.17 8.17v10.894a8.17 8.17 0 0 0 16.34 0v-10.894a8.17 8.17 0 0 0-8.17-8.17zm32.681-21.787a8.17 8.17 0 0 0-8.17 8.17v10.894a8.17 8.17 0 0 0 16.34 0v-10.894a8.17 8.17 0 0 0-8.17-8.17zm-152.51 0a8.17 8.17 0 0 0-8.17 8.17v10.894a8.17 8.17 0 0 0 16.34 0v-10.894a8.17 8.17 0 0 0-8.17-8.17z"/></svg>