<svg xmlns="http://www.w3.org/2000/svg" viewBox="0 0 512 512"><path d="M503.83 430.298H256v-24.511c0-21.024 17.104-38.128 38.128-38.128h19.064a8.17 8.17 0 0 0 8.17-8.17c0-21.024 17.104-38.128 38.128-38.128h32.681c21.024 0 38.128 17.104 38.128 38.128v46.298c0 4.513 3.658 8.17 8.17 8.17s8.17-3.657 8.17-8.17v-46.298c0-27.258-20.126-49.9-46.298-53.854v-22.402c0-21.024 17.104-38.128 38.128-38.128h32.681a8.17 8.17 0 0 0 8.17-8.17V73.532a8.17 8.17 0 0 0-8.17-8.17h-24.511V8.17c0-4.513-3.658-8.17-8.17-8.17s-8.17 3.657-8.17 8.17v130.723c0 4.506-3.665 8.17-8.17 8.17-4.506 0-8.17-3.665-8.17-8.17V51.745c0-4.513-3.658-8.17-8.17-8.17s-8.17 3.657-8.17 8.17v13.617h-24.511a8.17 8.17 0 0 0-8.17 8.17v130.723c0 4.506-3.665 8.17-8.17 8.17-4.506 0-8.17-3.665-8.17-8.17V73.532a8.17 8.17 0 0 0-8.17-8.17h-32.681a8.17 8.17 0 0 0-8.17 8.17v65.362c0 4.506-3.665 8.17-8.17 8.17-4.506 0-8.17-3.665-8.17-8.17V8.17c0-4.513-3.658-8.17-8.17-8.17s-8.17 3.657-8.17 8.17v57.191h-84.426a8.17 8.17 0 0 0-8.17 8.17v125.277c0 7.509-6.108 13.617-13.617 13.617s-13.617-6.108-13.617-13.617V8.17c0-4.513-3.658-8.17-8.17-8.17s-8.17 3.657-8.17 8.17v57.191h-24.511a8.17 8.17 0 0 0-8.17 8.17v65.362c0 4.506-3.665 8.17-8.17 8.17-4.506 0-8.17-3.665-8.17-8.17V8.17c0-4.513-3.658-8.17-8.17-8.17s-8.17 3.657-8.17 8.17v57.191H40.851a8.17 8.17 0 0 0-8.17 8.17v163.404a8.169 8.169 0 0 0 8.134 8.17l19.1.083c21.024 0 38.128 17.104 38.128 38.128v146.981H8.17c-4.512 0-8.17 3.657-8.17 8.17s3.658 8.17 8.17 8.17h495.66a8.17 8.17 0 1 0 0-16.339zm-307.745 0h-49.021V275.064c0-7.509 6.108-13.617 13.617-13.617s13.617 6.108 13.617 13.617v32.681a8.17 8.17 0 0 0 8.17 8.17c7.509 0 13.617 6.108 13.617 13.617v100.766zm43.575-24.511v24.511h-27.234V329.532c0-13.687-9.227-25.26-21.787-28.826v-25.642c0-16.518-13.438-29.957-29.957-29.957s-29.957 13.439-29.957 29.957v155.234h-16.34V283.317c0-30.034-24.434-54.468-54.432-54.468l-10.93-.048V81.702h16.34v57.191c0 13.515 10.995 24.511 24.511 24.511s24.511-10.996 24.511-24.511V81.702h16.34v117.106c0 16.518 13.438 29.957 29.957 29.957s29.957-13.44 29.957-29.957V81.702h76.255v57.191c0 13.515 10.995 24.511 24.511 24.511s24.511-10.996 24.511-24.511V81.702h16.34v122.553c0 13.515 10.995 24.511 24.511 24.511s24.511-10.996 24.511-24.511V81.702h16.34v57.191c0 13.515 10.995 24.511 24.511 24.511s24.511-10.996 24.511-24.511V81.702h16.34v147.064h-24.511c-30.034 0-54.468 24.434-54.468 54.468v21.787H359.49c-27.258 0-49.905 20.125-53.856 46.298h-11.506c-30.034 0-54.468 24.435-54.468 54.468zM51.745 462.979H40.851c-4.512 0-8.17 3.657-8.17 8.17s3.658 8.17 8.17 8.17h10.894c4.512 0 8.17-3.657 8.17-8.17s-3.658-8.17-8.17-8.17zm108.936 32.681h-10.894c-4.512 0-8.17 3.657-8.17 8.17s3.658 8.17 8.17 8.17h10.894c4.512 0 8.17-3.657 8.17-8.17s-3.658-8.17-8.17-8.17zm266.893-32.681H416.68c-4.512 0-8.17 3.657-8.17 8.17s3.658 8.17 8.17 8.17h10.894c4.512 0 8.17-3.657 8.17-8.17s-3.657-8.17-8.17-8.17zM84.426 495.66H73.532c-4.512 0-8.17 3.657-8.17 8.17s3.658 8.17 8.17 8.17h10.894c4.512 0 8.17-3.657 8.17-8.17s-3.658-8.17-8.17-8.17zm386.723-32.681h-10.894c-4.512 0-8.17 3.657-8.17 8.17s3.658 8.17 8.17 8.17h10.894c4.512 0 8.17-3.657 8.17-8.17s-3.658-8.17-8.17-8.17z"/></svg>