<svg xmlns="http://www.w3.org/2000/svg" viewBox="0 0 512 512"><path d="M330.349 0H172.391c-16.711 0-30.755 11.638-34.453 27.234H36.221C16.699 27.234.817 43.116.817 62.638s15.882 35.404 35.404 35.404h131.813a8.169 8.169 0 0 0 8.17-8.17 8.169 8.169 0 0 0-8.17-8.17H36.221c-10.511 0-19.064-8.553-19.064-19.064s8.553-19.064 19.064-19.064h108.936a8.169 8.169 0 0 0 8.17-8.17c0-10.511 8.553-19.064 19.064-19.064h157.957c4.513 0 8.17-3.657 8.17-8.17S334.862 0 330.349 0zm124.732 370.383a8.169 8.169 0 0 0-8.17 8.17v10.894a8.169 8.169 0 0 0 8.17 8.17 8.169 8.169 0 0 0 8.17-8.17v-10.894a8.169 8.169 0 0 0-8.17-8.17zm0-43.574a8.169 8.169 0 0 0-8.17 8.17v10.894a8.169 8.169 0 0 0 8.17 8.17 8.169 8.169 0 0 0 8.17-8.17v-10.894a8.169 8.169 0 0 0-8.17-8.17zm0-43.575a8.169 8.169 0 0 0-8.17 8.17v10.894a8.169 8.169 0 0 0 8.17 8.17 8.169 8.169 0 0 0 8.17-8.17v-10.894a8.169 8.169 0 0 0-8.17-8.17zm-95.864 87.149a8.169 8.169 0 0 0-8.17 8.17v10.894c0 4.513 3.657 8.17 8.17 8.17s8.17-3.657 8.17-8.17v-10.894a8.169 8.169 0 0 0-8.17-8.17zm0-43.574a8.169 8.169 0 0 0-8.17 8.17v10.894c0 4.513 3.657 8.17 8.17 8.17s8.17-3.657 8.17-8.17v-10.894a8.169 8.169 0 0 0-8.17-8.17zm0-43.575a8.169 8.169 0 0 0-8.17 8.17v10.894c0 4.513 3.657 8.17 8.17 8.17s8.17-3.657 8.17-8.17v-10.894a8.169 8.169 0 0 0-8.17-8.17zm0-43.574a8.169 8.169 0 0 0-8.17 8.17v10.894c0 4.513 3.657 8.17 8.17 8.17s8.17-3.657 8.17-8.17V247.83a8.169 8.169 0 0 0-8.17-8.17zM56.919 419.404a8.169 8.169 0 0 0-8.17 8.17v10.894a8.169 8.169 0 0 0 8.17 8.17 8.169 8.169 0 0 0 8.17-8.17v-10.894a8.169 8.169 0 0 0-8.17-8.17zm0-92.595a8.169 8.169 0 0 0-8.17 8.17v10.894a8.169 8.169 0 0 0 8.17 8.17 8.169 8.169 0 0 0 8.17-8.17v-10.894a8.169 8.169 0 0 0-8.17-8.17zm0-43.575a8.169 8.169 0 0 0-8.17 8.17v10.894a8.169 8.169 0 0 0 8.17 8.17 8.169 8.169 0 0 0 8.17-8.17v-10.894a8.169 8.169 0 0 0-8.17-8.17zm0-43.574a8.169 8.169 0 0 0-8.17 8.17v10.894a8.169 8.169 0 0 0 8.17 8.17 8.169 8.169 0 0 0 8.17-8.17V247.83a8.169 8.169 0 0 0-8.17-8.17zm95.864 87.149a8.169 8.169 0 0 0-8.17 8.17v10.894a8.169 8.169 0 0 0 8.17 8.17 8.169 8.169 0 0 0 8.17-8.17v-10.894a8.169 8.169 0 0 0-8.17-8.17zm0-43.575a8.169 8.169 0 0 0-8.17 8.17v10.894a8.169 8.169 0 0 0 8.17 8.17 8.169 8.169 0 0 0 8.17-8.17v-10.894a8.169 8.169 0 0 0-8.17-8.17zm0-43.574a8.169 8.169 0 0 0-8.17 8.17v10.894a8.169 8.169 0 0 0 8.17 8.17 8.169 8.169 0 0 0 8.17-8.17V247.83a8.169 8.169 0 0 0-8.17-8.17zm0-43.575a8.169 8.169 0 0 0-8.17 8.17v10.894a8.169 8.169 0 0 0 8.17 8.17 8.169 8.169 0 0 0 8.17-8.17v-10.894a8.169 8.169 0 0 0-8.17-8.17zm0-43.574a8.169 8.169 0 0 0-8.17 8.17v10.894a8.169 8.169 0 0 0 8.17 8.17 8.169 8.169 0 0 0 8.17-8.17v-10.894a8.169 8.169 0 0 0-8.17-8.17zm322.996-65.362h-32.681c-4.513 0-8.17 3.657-8.17 8.17s3.657 8.17 8.17 8.17h32.681c10.511 0 19.064 8.553 19.064 19.064s-8.553 19.064-19.064 19.064h-81.702c-10.511 0-19.064-8.553-19.064-19.064s8.553-19.064 19.064-19.064h16.34c4.513 0 8.17-3.657 8.17-8.17s-3.657-8.17-8.17-8.17h-16.34c-19.522 0-35.404 15.882-35.404 35.404 0 19.522 15.882 35.404 35.404 35.404h81.702c19.522 0 35.404-15.882 35.404-35.404s-15.882-35.404-35.404-35.404zm-218.962 272.34a8.169 8.169 0 0 0-8.17 8.17v10.894c0 4.513 3.657 8.17 8.17 8.17s8.17-3.657 8.17-8.17V367.66a8.17 8.17 0 0 0-8.17-8.171zm0-43.574a8.169 8.169 0 0 0-8.17 8.17v10.894c0 4.513 3.657 8.17 8.17 8.17s8.17-3.657 8.17-8.17v-10.894a8.169 8.169 0 0 0-8.17-8.17zm0-43.575a8.169 8.169 0 0 0-8.17 8.17v10.894c0 4.513 3.657 8.17 8.17 8.17s8.17-3.657 8.17-8.17V280.51a8.169 8.169 0 0 0-8.17-8.17zm0-43.574a8.169 8.169 0 0 0-8.17 8.17v10.894c0 4.513 3.657 8.17 8.17 8.17s8.17-3.657 8.17-8.17v-10.894a8.169 8.169 0 0 0-8.17-8.17zm0-43.574a8.169 8.169 0 0 0-8.17 8.17v10.894c0 4.513 3.657 8.17 8.17 8.17s8.17-3.657 8.17-8.17v-10.894a8.168 8.168 0 0 0-8.17-8.17zm23.421-65.362h-46.843a8.169 8.169 0 0 0-8.17 8.17 8.169 8.169 0 0 0 8.17 8.17h46.843a8.169 8.169 0 0 0 8.17-8.17 8.168 8.168 0 0 0-8.17-8.17z"/><path d="M503.013 239.66h-39.762v-24.511a8.169 8.169 0 0 0-8.17-8.17 8.169 8.169 0 0 0-8.17 8.17v24.511H415.32v-24.511a8.17 8.17 0 0 0-5.534-7.733l-88.696-30.237V89.872a8.169 8.169 0 0 0-8.17-8.17h-16.071a40.582 40.582 0 0 0-3.917-10.894h102.78c19.522 0 35.404-15.882 35.404-35.404C431.115 15.882 415.233 0 395.711 0H363.03c-4.513 0-8.17 3.657-8.17 8.17s3.657 8.17 8.17 8.17h32.681c10.511 0 19.064 8.553 19.064 19.064s-8.553 19.064-19.064 19.064H277.179a40.602 40.602 0 0 0-20.362-5.447c-19.727 0-36.234 14.057-40.031 32.681h-16.071a8.169 8.169 0 0 0-8.17 8.17v29.957h-87.694a8.169 8.169 0 0 0-8.17 8.17v78.979H65.089v-24.511a8.169 8.169 0 0 0-8.17-8.17 8.169 8.169 0 0 0-8.17 8.17v24.511H8.987a8.169 8.169 0 0 0-8.17 8.17V503.83a8.169 8.169 0 0 0 8.17 8.17h494.026a8.169 8.169 0 0 0 8.17-8.17v-256a8.169 8.169 0 0 0-8.17-8.17zm-406.332 256H65.089v-24.511a8.169 8.169 0 0 0-8.17-8.17 8.169 8.169 0 0 0-8.17 8.17v24.511H17.157v-92.596H96.68v92.596zm95.864-92.596h-2.723a8.169 8.169 0 0 0-8.17 8.17 8.169 8.169 0 0 0 8.17 8.17h2.723v76.255h-79.523v-160.68c0-4.513-3.657-8.17-8.17-8.17s-8.17 3.657-8.17 8.17v51.745H17.157V223.319H96.68v78.979c0 4.513 3.657 8.17 8.17 8.17s8.17-3.657 8.17-8.17V136.17h79.523v266.894zm112.204 92.596h-39.762v-24.511c0-4.513-3.657-8.17-8.17-8.17s-8.17 3.657-8.17 8.17v24.511h-39.762v-76.255h95.864v76.255zm0-318.09a8.157 8.157 0 0 0 0 9.798v215.696h-95.864V168.851h95.864v8.719zm0-25.059h-95.864V98.043h15.251a8.169 8.169 0 0 0 8.17-8.17c0-13.515 10.996-24.511 24.511-24.511 13.515 0 24.511 10.996 24.511 24.511a8.169 8.169 0 0 0 8.17 8.17h15.251v54.468zM494.843 495.66h-31.591v-24.511a8.169 8.169 0 0 0-8.17-8.17 8.169 8.169 0 0 0-8.17 8.17v24.511h-31.591v-49.021h79.523v49.021zm0-65.362H415.32v-40.851c0-4.513-3.657-8.17-8.17-8.17s-8.17 3.657-8.17 8.17V495.66h-77.889v-76.255h2.723a8.169 8.169 0 0 0 8.17-8.17 8.169 8.169 0 0 0-8.17-8.17h-2.723V194.442l77.889 26.553v135.77c0 4.513 3.657 8.17 8.17 8.17s8.17-3.657 8.17-8.17V256h79.523v174.298z"/><circle cx="256.817" cy="89.872" r="8.17"/></svg>