<svg xmlns="http://www.w3.org/2000/svg" viewBox="0 0 512 512"><path d="M476.049 21.759c-8.146 0-15.908 3.133-21.787 8.463-5.879-5.33-13.641-8.463-21.787-8.463-4.512 0-8.17 3.657-8.17 8.17s3.658 8.17 8.17 8.17c6.196 0 11.728 3.466 14.437 9.046a8.17 8.17 0 0 0 14.7 0c2.709-5.58 8.242-9.046 14.437-9.046 4.512 0 8.17-3.657 8.17-8.17s-3.658-8.17-8.17-8.17zm-396.525 0c-8.146 0-15.908 3.133-21.787 8.463-5.879-5.33-13.641-8.463-21.787-8.463-4.512 0-8.17 3.657-8.17 8.17s3.658 8.17 8.17 8.17c6.196 0 11.728 3.466 14.437 9.046a8.17 8.17 0 0 0 14.7 0c2.709-5.58 8.242-9.046 14.437-9.046 4.512 0 8.17-3.657 8.17-8.17s-3.658-8.17-8.17-8.17zm99.131 46.328c-8.146 0-15.908 3.133-21.787 8.463-5.879-5.33-13.641-8.463-21.787-8.463-4.512 0-8.17 3.657-8.17 8.17s3.658 8.17 8.17 8.17c6.196 0 11.728 3.466 14.437 9.046a8.17 8.17 0 0 0 14.7 0c2.709-5.58 8.242-9.046 14.437-9.046 4.512 0 8.17-3.657 8.17-8.17s-3.658-8.17-8.17-8.17zm-13.617 340.452h-16.34c-4.512 0-8.17 3.657-8.17 8.17s3.658 8.17 8.17 8.17h16.34c4.512 0 8.17-3.657 8.17-8.17s-3.658-8.17-8.17-8.17zM462.432 473.9h-16.34c-4.512 0-8.17 3.657-8.17 8.17s3.658 8.17 8.17 8.17h16.34c4.512 0 8.17-3.657 8.17-8.17s-3.658-8.17-8.17-8.17zm-99.131-32.68h-16.34c-4.512 0-8.17 3.657-8.17 8.17s3.658 8.17 8.17 8.17h16.34c4.512 0 8.17-3.657 8.17-8.17s-3.658-8.17-8.17-8.17zm-297.394 0h-16.34c-4.512 0-8.17 3.657-8.17 8.17s3.658 8.17 8.17 8.17h16.34c4.512 0 8.17-3.657 8.17-8.17s-3.658-8.17-8.17-8.17zm441.489-128.267a8.167 8.167 0 0 0-10.919 3.78c-7.922 16.313-24.099 26.445-42.216 26.445s-34.294-10.133-42.216-26.445a8.172 8.172 0 0 0-14.7 0c-7.922 16.313-24.099 26.445-42.216 26.445s-34.294-10.133-42.216-26.445a8.172 8.172 0 0 0-14.7 0c-7.922 16.313-24.099 26.445-42.216 26.445s-34.294-10.133-42.216-26.445a8.172 8.172 0 0 0-14.7 0c-7.922 16.313-24.099 26.445-42.216 26.445s-34.294-10.133-42.216-26.445a8.172 8.172 0 0 0-14.7 0c-7.922 16.313-24.099 26.445-42.216 26.445s-34.294-10.133-42.216-26.445a8.17 8.17 0 0 0-10.919-3.78c-4.059 1.972-5.752 6.86-3.78 10.917 10.517 21.655 32.857 35.648 56.915 35.648 19.409 0 37.699-9.106 49.566-23.996 11.866 14.89 30.156 23.996 49.565 23.996s37.699-9.106 49.566-23.996c11.866 14.89 30.157 23.996 49.566 23.996s37.699-9.106 49.566-23.996c11.866 14.89 30.157 23.996 49.566 23.996 19.409 0 37.699-9.106 49.565-23.996 11.866 14.89 30.157 23.996 49.566 23.996 24.057 0 46.398-13.993 56.915-35.648a8.166 8.166 0 0 0-3.778-10.917z"/><path d="M503.827 125.307H222.229c-22.526 0-40.851 18.325-40.851 40.851v14.437c-18.622 3.796-32.681 20.303-32.681 40.03v98.042a8.17 8.17 0 0 0 8.17 8.17 8.17 8.17 0 0 0 8.17-8.17v-98.042c0-13.515 10.995-24.51 24.51-24.51a8.17 8.17 0 0 0 8.17-8.17v-21.787c0-13.515 10.995-24.51 24.51-24.51h25.6v177.02a8.17 8.17 0 0 0 8.17 8.17 8.17 8.17 0 0 0 8.17-8.17v-177.02h33.225v144.339c0 4.513 3.658 8.17 8.17 8.17s8.17-3.657 8.17-8.17V141.648h115.471v71.628c-18.622 3.796-32.681 20.303-32.681 40.03v34.315c0 4.513 3.658 8.17 8.17 8.17s8.17-3.657 8.17-8.17v-34.315c0-13.515 10.995-24.51 24.51-24.51a8.17 8.17 0 0 0 8.17-8.17v-78.978h58.28c4.512 0 8.17-3.657 8.17-8.17s-3.653-8.171-8.165-8.171z"/></svg>