<svg xmlns="http://www.w3.org/2000/svg" viewBox="0 0 512 512"><path d="M228.605 250.34c-22.309-12.975-52.826-29.355-91.117-40.935-38.724-11.713-81.024-17.406-129.318-17.406-4.513 0-8.17 3.657-8.17 8.17s3.657 8.17 8.17 8.17c96.048 0 154.302 22.436 212.22 56.125a8.166 8.166 0 0 0 11.17-2.954 8.17 8.17 0 0 0-2.955-11.17z"/><path d="M503.83 191.999c-126.228 0-190.223 39.382-252.112 77.467C189.006 308.059 129.772 344.51 8.17 344.51c-4.513 0-8.17 3.657-8.17 8.17s3.657 8.17 8.17 8.17c126.228 0 190.223-39.382 252.112-77.467 62.711-38.593 121.945-75.044 243.547-75.044 4.513 0 8.17-3.657 8.17-8.17s-3.656-8.17-8.169-8.17zM256 53.106c-31.535 0-57.191 25.657-57.191 57.192s25.657 57.191 57.191 57.191 57.191-25.657 57.191-57.191c0-31.535-25.656-57.192-57.191-57.192zm0 98.042c-22.526 0-40.851-18.325-40.851-40.851S233.474 69.446 256 69.446s40.851 18.325 40.851 40.851-18.325 40.851-40.851 40.851z"/><path d="M256.001 20.426c-42.573 0-79.613 30.242-88.072 71.907a8.17 8.17 0 0 0 16.012 3.251c6.92-34.082 37.223-58.818 72.058-58.818 40.546 0 73.532 32.986 73.532 73.532 0 14.478-4.215 28.494-12.188 40.536a8.17 8.17 0 0 0 2.301 11.323 8.164 8.164 0 0 0 11.322-2.3c9.751-14.725 14.906-31.861 14.906-49.557.001-49.557-40.316-89.874-89.871-89.874zm51.857 153.515a8.17 8.17 0 0 0-11.323-2.301c-12.041 7.974-26.058 12.189-40.535 12.189-34.835 0-65.138-24.736-72.058-58.817-.897-4.422-5.212-7.282-9.632-6.38a8.166 8.166 0 0 0-6.38 9.632c8.458 41.664 45.497 71.906 88.07 71.906 17.697 0 34.833-5.154 49.557-14.906a8.17 8.17 0 0 0 2.301-11.323z"/><circle cx="49.021" cy="242.023" r="8.17"/><circle cx="81.702" cy="274.704" r="8.17"/><circle cx="397.617" cy="450.723" r="8.17"/><circle cx="430.298" cy="483.404" r="8.17"/><circle cx="462.979" cy="274.704" r="8.17"/><circle cx="81.702" cy="450.723" r="8.17"/></svg>