<svg xmlns="http://www.w3.org/2000/svg" viewBox="0 0 512.001 512.001"><path d="M503.83 407.421c-13.787 0-21.07 2.561-27.495 4.82-5.945 2.089-11.077 3.894-22.076 3.894s-16.131-1.805-22.076-3.894c-6.425-2.259-13.708-4.82-27.495-4.82-13.786 0-21.068 2.561-27.492 4.82-5.944 2.089-11.076 3.894-22.073 3.894s-16.129-1.805-22.073-3.894c-6.424-2.259-13.707-4.82-27.493-4.82s-21.067 2.561-27.492 4.82c-5.943 2.089-11.076 3.894-22.072 3.894s-16.128-1.805-22.07-3.894c-6.425-2.259-13.706-4.82-27.492-4.82s-21.068 2.561-27.493 4.82c-5.944 2.089-11.076 3.894-22.073 3.894-10.996 0-16.129-1.805-22.072-3.894-6.425-2.259-13.707-4.82-27.492-4.82s-21.068 2.561-27.492 4.82c-5.944 2.089-11.077 3.894-22.073 3.894s-16.129-1.805-22.072-3.894c-6.425-2.259-13.707-4.82-27.493-4.82-4.512 0-8.17 3.657-8.17 8.17s3.658 8.17 8.17 8.17c10.997 0 16.129 1.805 22.072 3.894 6.425 2.259 13.707 4.82 27.493 4.82 13.786 0 21.068-2.561 27.493-4.82 5.943-2.089 11.076-3.894 22.072-3.894 10.996 0 16.129 1.805 22.072 3.894 6.425 2.259 13.707 4.82 27.492 4.82 13.786 0 21.068-2.561 27.493-4.82 5.944-2.089 11.076-3.894 22.073-3.894 10.996 0 16.128 1.805 22.07 3.894 6.425 2.259 13.706 4.82 27.492 4.82s21.067-2.561 27.492-4.82c5.943-2.089 11.076-3.894 22.072-3.894 10.997 0 16.13 1.805 22.073 3.894 6.424 2.259 13.707 4.82 27.493 4.82s21.068-2.561 27.493-4.82c5.942-2.089 11.076-3.894 22.072-3.894 10.998 0 16.131 1.805 22.076 3.894 6.425 2.259 13.709 4.82 27.495 4.82 13.787 0 21.07-2.561 27.495-4.82 5.945-2.089 11.077-3.894 22.076-3.894 4.512 0 8.17-3.657 8.17-8.17s-3.658-8.17-8.17-8.17zm0-54.468c-13.787 0-21.07 2.561-27.495 4.82-5.945 2.089-11.077 3.894-22.076 3.894s-16.131-1.805-22.076-3.894c-6.425-2.259-13.708-4.82-27.495-4.82-13.786 0-21.068 2.561-27.492 4.82-5.944 2.089-11.076 3.894-22.073 3.894s-16.129-1.805-22.073-3.894c-6.424-2.259-13.707-4.82-27.493-4.82s-21.067 2.561-27.492 4.82c-5.943 2.089-11.076 3.894-22.072 3.894s-16.128-1.805-22.07-3.894c-6.425-2.259-13.706-4.82-27.492-4.82s-21.068 2.561-27.493 4.82c-5.944 2.089-11.076 3.894-22.073 3.894-10.996 0-16.129-1.805-22.072-3.894-6.425-2.259-13.707-4.82-27.492-4.82s-21.068 2.561-27.492 4.82c-5.944 2.089-11.077 3.894-22.073 3.894s-16.129-1.805-22.072-3.894c-6.425-2.259-13.707-4.82-27.493-4.82-4.512 0-8.17 3.657-8.17 8.17s3.658 8.17 8.17 8.17c10.997 0 16.129 1.805 22.072 3.894 6.425 2.259 13.707 4.82 27.493 4.82 13.786 0 21.068-2.561 27.493-4.82 5.943-2.089 11.076-3.894 22.072-3.894 10.996 0 16.129 1.805 22.072 3.894 6.425 2.259 13.707 4.82 27.492 4.82 13.786 0 21.068-2.561 27.493-4.82 5.944-2.089 11.076-3.894 22.073-3.894 10.996 0 16.128 1.805 22.07 3.894 6.425 2.259 13.706 4.82 27.492 4.82s21.067-2.561 27.492-4.82c5.943-2.089 11.076-3.894 22.072-3.894 10.997 0 16.13 1.805 22.073 3.894 6.424 2.259 13.707 4.82 27.493 4.82s21.068-2.561 27.493-4.82c5.942-2.089 11.076-3.894 22.072-3.894 10.998 0 16.131 1.805 22.076 3.894 6.425 2.259 13.709 4.82 27.495 4.82 13.787 0 21.07-2.561 27.495-4.82 5.945-2.089 11.077-3.894 22.076-3.894 4.512 0 8.17-3.657 8.17-8.17s-3.658-8.17-8.17-8.17zm0-54.469c-13.786 0-21.067 2.561-27.492 4.82-5.944 2.089-11.076 3.894-22.072 3.894-10.997 0-16.129-1.805-22.073-3.894-6.425-2.259-13.707-4.82-27.493-4.82-13.787 0-21.07 2.561-27.498 4.819-2.528.889-4.916 1.729-7.654 2.393a8.17 8.17 0 0 0-6.011 9.867 8.166 8.166 0 0 0 9.867 6.012c3.532-.857 6.422-1.874 9.217-2.856 5.946-2.089 11.08-3.894 22.078-3.894 10.997 0 16.129 1.805 22.073 3.894 6.425 2.259 13.707 4.82 27.493 4.82 13.786 0 21.067-2.561 27.492-4.82 5.944-2.089 11.076-3.894 22.072-3.894 4.512 0 8.17-3.657 8.17-8.17s-3.657-8.171-8.169-8.171zm-163.107 7.212c-2.739-.664-5.127-1.504-7.655-2.393-6.426-2.258-13.711-4.819-27.498-4.819-13.786 0-21.067 2.561-27.492 4.82-5.942 2.089-11.076 3.894-22.07 3.894-10.996 0-16.129-1.805-22.072-3.894-6.425-2.259-13.707-4.82-27.492-4.82-13.786 0-21.068 2.561-27.493 4.82-5.944 2.089-11.076 3.894-22.074 3.894-10.996 0-16.129-1.805-22.072-3.894-6.424-2.258-13.706-4.819-27.492-4.819-13.787 0-21.07 2.561-27.495 4.82-5.945 2.089-11.078 3.894-22.076 3.894-10.998 0-16.131-1.805-22.076-3.894-6.425-2.259-13.708-4.82-27.495-4.82-4.512 0-8.17 3.657-8.17 8.17s3.658 8.17 8.17 8.17c10.998 0 16.131 1.805 22.076 3.894 6.425 2.259 13.708 4.82 27.495 4.82s21.07-2.561 27.495-4.82c5.944-2.089 11.078-3.894 22.076-3.894 10.997 0 16.129 1.805 22.072 3.894 6.425 2.259 13.707 4.82 27.492 4.82 13.787 0 21.068-2.561 27.493-4.82 5.944-2.089 11.076-3.894 22.073-3.894 10.996 0 16.129 1.805 22.072 3.894 6.425 2.259 13.707 4.82 27.492 4.82s21.067-2.561 27.492-4.82c5.943-2.089 11.076-3.894 22.072-3.894 10.999 0 16.133 1.805 22.079 3.894 2.795.983 5.686 1.999 9.218 2.856a8.168 8.168 0 0 0 9.867-6.012 8.168 8.168 0 0 0-6.012-9.867zm163.107-61.68c-13.787 0-21.07 2.561-27.495 4.82-4.238 1.489-8.073 2.83-13.906 3.481V98.587a8.17 8.17 0 0 0-8.17-8.17h-65.362a8.17 8.17 0 0 0-8.17 8.17v31.324c0 4.513 3.658 8.17 8.17 8.17s8.17-3.657 8.17-8.17v-23.153h49.021v145.56c-5.831-.649-9.668-1.991-13.906-3.48-4.913-1.728-10.339-3.628-18.781-4.428v-45.535a8.14 8.14 0 0 0 2.717.479 8.171 8.171 0 0 0 4.909-14.706l-61.004-45.753a8.169 8.169 0 0 0-9.804 0l-61.004 45.753a8.171 8.171 0 0 0 7.626 14.24v45.522c-8.439.801-13.864 2.701-18.777 4.428-5.942 2.089-11.076 3.894-22.072 3.894s-16.128-1.805-22.07-3.894c-6.425-2.259-13.706-4.82-27.492-4.82s-21.068 2.561-27.493 4.82c-5.944 2.089-11.076 3.894-22.073 3.894-10.996 0-16.129-1.805-22.072-3.894-6.425-2.259-13.707-4.82-27.492-4.82s-21.068 2.561-27.492 4.82c-5.942 2.089-11.076 3.894-22.071 3.894-10.996 0-16.129-1.805-22.072-3.894-6.425-2.259-13.707-4.82-27.493-4.82-4.512 0-8.17 3.657-8.17 8.17s3.658 8.17 8.17 8.17c10.997 0 16.129 1.805 22.072 3.894 6.425 2.259 13.707 4.82 27.493 4.82 13.786 0 21.068-2.561 27.493-4.82 5.943-2.089 11.076-3.894 22.072-3.894 10.996 0 16.129 1.805 22.072 3.894 6.425 2.259 13.707 4.82 27.492 4.82 13.786 0 21.068-2.561 27.493-4.82 5.944-2.089 11.076-3.894 22.073-3.894 10.996 0 16.128 1.805 22.07 3.894 6.425 2.259 13.706 4.82 27.492 4.82s21.067-2.561 27.492-4.82c5.839-2.053 10.909-3.827 21.515-3.889.207-.001.375-.005.557-.005 10.997 0 16.13 1.805 22.073 3.894 6.424 2.259 13.707 4.82 27.493 4.82s21.068-2.561 27.493-4.82c5.942-2.089 11.076-3.894 22.072-3.894.182 0 .35.004.528.005 10.637.062 15.708 1.837 21.548 3.889 6.425 2.259 13.709 4.82 27.495 4.82 13.787 0 21.07-2.561 27.495-4.82 5.945-2.089 11.077-3.894 22.076-3.894a8.172 8.172 0 0 0-.001-16.342zm-106.767.297c-9.07.734-14.747 2.722-19.868 4.523-4.237 1.489-8.072 2.83-13.902 3.481v-28.453a8.17 8.17 0 0 0-8.17-8.17 8.17 8.17 0 0 0-8.17 8.17v28.453c-5.83-.649-9.666-1.99-13.902-3.481-5.121-1.801-10.798-3.789-19.868-4.523v-57.215l41.94-31.455 41.94 31.455v57.215zM155.772 57.736c-31.536 0-57.192 25.657-57.192 57.191s25.656 57.191 57.192 57.191 57.191-25.657 57.191-57.191-25.656-57.191-57.191-57.191zm0 98.042c-22.526 0-40.851-18.325-40.851-40.851s18.325-40.851 40.851-40.851 40.851 18.325 40.851 40.851-18.326 40.851-40.851 40.851z"/><path d="M155.773 25.056c-42.574 0-79.614 30.242-88.072 71.907a8.168 8.168 0 0 0 6.38 9.631c4.425.903 8.736-1.959 9.632-6.38 6.919-34.082 37.224-58.818 72.058-58.818 40.546 0 73.532 32.986 73.532 73.532 0 14.479-4.215 28.496-12.188 40.535a8.171 8.171 0 0 0 13.623 9.024c9.751-14.725 14.906-31.862 14.906-49.558.002-49.556-40.315-89.873-89.871-89.873zm51.858 153.515c-2.491-3.763-7.561-4.791-11.324-2.301-12.041 7.973-26.057 12.188-40.535 12.188-34.834 0-65.139-24.736-72.057-58.817a8.17 8.17 0 0 0-16.013 3.252c8.457 41.665 45.496 71.907 88.071 71.907 17.697 0 34.833-5.154 49.558-14.906a8.17 8.17 0 0 0 2.3-11.323zm-65.18 290.53c-2.739-.664-5.127-1.504-7.655-2.393-6.426-2.258-13.71-4.819-27.497-4.819-13.786 0-21.068 2.561-27.493 4.82-5.942 2.089-11.076 3.894-22.072 3.894-10.997 0-16.129-1.805-22.072-3.894-6.426-2.259-13.707-4.82-27.493-4.82-4.512 0-8.17 3.657-8.17 8.17s3.658 8.17 8.17 8.17c10.996 0 16.129 1.805 22.072 3.894 6.425 2.259 13.706 4.82 27.493 4.82 13.786 0 21.068-2.561 27.492-4.82 5.943-2.089 11.076-3.894 22.073-3.894 10.998 0 16.132 1.805 22.078 3.894 2.795.983 5.686 1.999 9.217 2.856a8.167 8.167 0 0 0 9.867-6.012c1.067-4.383-1.625-8.8-6.01-9.866zm361.379-7.212c-13.787 0-21.07 2.561-27.495 4.82-5.945 2.089-11.077 3.894-22.076 3.894s-16.131-1.805-22.076-3.894c-6.425-2.259-13.708-4.82-27.495-4.82-13.786 0-21.068 2.561-27.493 4.82-5.942 2.089-11.076 3.894-22.072 3.894-10.997 0-16.129-1.805-22.073-3.894-6.424-2.259-13.707-4.82-27.493-4.82s-21.067 2.561-27.492 4.82c-5.943 2.089-11.076 3.894-22.072 3.894s-16.128-1.805-22.07-3.894c-6.425-2.259-13.707-4.82-27.492-4.82-13.787 0-21.072 2.561-27.498 4.819-2.528.889-4.916 1.729-7.655 2.393a8.17 8.17 0 0 0-6.012 9.867 8.168 8.168 0 0 0 9.867 6.012c3.532-.857 6.423-1.874 9.218-2.856 5.946-2.089 11.08-3.894 22.079-3.894 10.996 0 16.129 1.805 22.072 3.894 6.425 2.259 13.707 4.82 27.492 4.82 13.786 0 21.067-2.561 27.492-4.82 5.942-2.089 11.076-3.894 22.072-3.894 10.997 0 16.129 1.805 22.073 3.894 6.424 2.259 13.707 4.82 27.493 4.82 13.786 0 21.068-2.561 27.493-4.82 5.942-2.089 11.076-3.894 22.072-3.894 10.998 0 16.132 1.805 22.076 3.894 6.425 2.259 13.708 4.82 27.495 4.82s21.07-2.561 27.495-4.82c5.945-2.089 11.077-3.894 22.076-3.894a8.171 8.171 0 0 0-.001-16.341z"/></svg>