<svg xmlns="http://www.w3.org/2000/svg" viewBox="0 0 512 512"><path d="M416.681 413.957H8.17a8.17 8.17 0 0 0-8.17 8.17 8.17 8.17 0 0 0 8.17 8.17h408.511a8.17 8.17 0 0 0 0-16.34zm87.149 32.681H226.043a8.17 8.17 0 0 0-8.17 8.17 8.17 8.17 0 0 0 8.17 8.17H503.83a8.17 8.17 0 0 0 8.17-8.17 8.17 8.17 0 0 0-8.17-8.17zm-310.468 0H95.319a8.17 8.17 0 0 0-8.17 8.17 8.17 8.17 0 0 0 8.17 8.17h98.043a8.17 8.17 0 0 0 8.17-8.17 8.17 8.17 0 0 0-8.17-8.17zm310.468 32.681h-98.043c-4.513 0-8.17 3.658-8.17 8.17s3.657 8.17 8.17 8.17h98.043c4.513 0 8.17-3.658 8.17-8.17s-3.657-8.17-8.17-8.17zm-179.745-375.83h-136.17c-19.522 0-35.404 15.883-35.404 35.404s15.882 35.404 35.404 35.404h81.702c4.513 0 8.17-3.658 8.17-8.17s-3.657-8.17-8.17-8.17h-81.702c-10.511 0-19.064-8.553-19.064-19.064s8.553-19.064 19.064-19.064h136.17c10.511 0 19.064 8.553 19.064 19.064s-8.553 19.064-19.064 19.064h-21.787c-4.513 0-8.17 3.658-8.17 8.17s3.657 8.17 8.17 8.17h21.787c19.522 0 35.404-15.883 35.404-35.404s-15.881-35.404-35.404-35.404zM215.149 16.34h-81.702c-19.522 0-35.404 15.883-35.404 35.404s15.882 35.404 35.404 35.404h81.702c19.522 0 35.404-15.883 35.404-35.404S234.671 16.34 215.149 16.34zm0 54.469h-81.702c-10.511 0-19.064-8.553-19.064-19.064s8.553-19.064 19.064-19.064h81.702c10.511 0 19.064 8.553 19.064 19.064s-8.553 19.064-19.064 19.064zm-32.681 277.242h-4.008l-24.132-140.363c-4.319-25.121-26.895-45.95-52.044-49.27l-2.74-15.935c-3.697-21.501-24.453-38.994-46.271-38.994H8.17a8.17 8.17 0 0 0-8.17 8.17 8.17 8.17 0 0 0 8.17 8.17h45.104c13.982 0 27.797 11.642 30.166 25.422l3.827 22.26a8.171 8.171 0 0 0 8.053 6.786c19.887 0 39.536 16.558 42.906 36.158l23.656 137.595H8.17A8.17 8.17 0 0 0 0 356.22a8.17 8.17 0 0 0 8.17 8.17h174.297c10.652 0 19.738 6.83 23.111 16.34H8.17A8.17 8.17 0 0 0 0 388.9a8.17 8.17 0 0 0 8.17 8.17h206.979a8.17 8.17 0 0 0 8.17-8.17c0-22.524-18.325-40.849-40.851-40.849zm147.064 16.34h174.297a8.17 8.17 0 0 0 8.17-8.17 8.17 8.17 0 0 0-8.17-8.17H350.12l23.655-137.595c3.369-19.6 23.018-36.158 42.906-36.158a8.173 8.173 0 0 0 8.053-6.786l3.827-22.259c2.369-13.78 16.184-25.422 30.166-25.422h45.104a8.17 8.17 0 0 0 8.17-8.17 8.17 8.17 0 0 0-8.17-8.17h-45.104c-21.817 0-42.573 17.493-46.271 38.994l-2.74 15.934c-25.149 3.319-47.726 24.149-52.044 49.27L333.54 348.051h-4.008c-22.526 0-40.851 18.325-40.851 40.851a8.17 8.17 0 0 0 8.17 8.17H503.83a8.17 8.17 0 0 0 8.17-8.17 8.17 8.17 0 0 0-8.17-8.17H306.421c3.373-9.51 12.459-16.341 23.111-16.341z"/><path d="M313.27 315.915h-50.384l-7.37-42.866c-4.714-27.42-31.186-49.729-59.01-49.729h-13.694c-4.513 0-8.17 3.658-8.17 8.17s3.657 8.17 8.17 8.17h13.694c19.887 0 39.536 16.558 42.906 36.158l6.892 40.097H198.73a8.17 8.17 0 0 0-8.169 8.17 8.17 8.17 0 0 0 8.17 8.17H313.27a8.17 8.17 0 0 0 8.17-8.17 8.17 8.17 0 0 0-8.17-8.17z"/></svg>