<svg xmlns="http://www.w3.org/2000/svg" viewBox="0 0 512 512"><path d="M503.83 457.532h-74.44v-21.787h74.439a8.172 8.172 0 0 0 7.081-12.246l-29.908-51.959h2.175a8.172 8.172 0 0 0 7.081-12.246l-29.908-51.959h2.174a8.172 8.172 0 0 0 7.081-12.246l-41.304-71.76a8.17 8.17 0 0 0-14.162 0l-41.305 71.76a8.17 8.17 0 0 0 7.081 12.246h2.174l-29.907 51.959a8.17 8.17 0 0 0 7.081 12.246h2.174l-22.828 39.657-22.826-39.657h2.174a8.172 8.172 0 0 0 7.081-12.246l-29.908-51.959h2.175a8.172 8.172 0 0 0 7.081-12.246l-41.305-71.761a8.17 8.17 0 0 0-14.162 0l-41.305 71.76a8.17 8.17 0 0 0 7.081 12.246h2.174l-29.908 51.959a8.17 8.17 0 0 0 7.081 12.246h2.175l-27.551 47.865H22.3l29.908-51.959a8.17 8.17 0 0 0-7.081-12.246h-2.174l29.908-51.959a8.17 8.17 0 0 0-7.081-12.246h-2.175l27.175-47.212 27.175 47.212h-2.175a8.172 8.172 0 0 0-7.081 12.246l29.908 51.959h-2.175a8.172 8.172 0 0 0-7.081 12.246l18.103 31.45a8.172 8.172 0 0 0 11.157 3.006 8.168 8.168 0 0 0 3.004-11.156l-11.054-19.204h2.175a8.172 8.172 0 0 0 7.081-12.246l-29.908-51.959h2.175a8.172 8.172 0 0 0 7.081-12.246L97.86 223.33a8.17 8.17 0 0 0-14.162 0l-41.305 71.76a8.17 8.17 0 0 0 7.081 12.246h2.175L21.74 359.294a8.17 8.17 0 0 0 7.081 12.246h2.174L1.088 423.5a8.17 8.17 0 0 0 7.081 12.246H82.61v21.787H8.17a8.17 8.17 0 0 0-8.17 8.17 8.17 8.17 0 0 0 8.17 8.17h495.66a8.169 8.169 0 0 0 8.17-8.17 8.17 8.17 0 0 0-8.17-8.171zm-121.182-90.087a8.17 8.17 0 0 0-7.081-12.246h-2.174L403.3 303.24a8.17 8.17 0 0 0-7.081-12.246h-2.174l27.175-47.212 27.174 47.212h-2.174a8.172 8.172 0 0 0-7.081 12.246l29.908 51.959h-2.175a8.172 8.172 0 0 0-7.081 12.246l29.908 51.959H352.74l29.908-51.959zm-165.22 0a8.17 8.17 0 0 0-7.081-12.246h-2.175l29.908-51.959a8.17 8.17 0 0 0-7.081-12.246h-2.174L256 243.782l27.175 47.212H281a8.172 8.172 0 0 0-7.081 12.246l29.908 51.959h-2.174a8.172 8.172 0 0 0-7.081 12.246l29.908 51.96H187.519l29.909-51.96zm30.402 90.087H98.95v-21.787h148.88v21.787zm165.22 0H264.17v-21.787h74.282l.149.001.149-.001h74.299v21.787zM285.003 46.058a8.221 8.221 0 0 0-.94-.541A56.812 56.812 0 0 0 256 38.128c-31.536 0-57.191 25.657-57.191 57.191S224.465 152.51 256 152.51a56.813 56.813 0 0 0 28.249-7.495c.214-.11.422-.231.625-.359 16.924-9.944 28.317-28.329 28.317-49.336 0-20.954-11.334-39.302-28.188-49.262zM256 136.17c-22.526 0-40.851-18.325-40.851-40.851S233.474 54.468 256 54.468c2.812 0 5.557.285 8.209.829-10.334 10.567-16.38 24.916-16.38 40.022 0 15.106 6.046 29.455 16.38 40.022a40.816 40.816 0 0 1-8.209.829zm24.517-8.197c-10.181-7.666-16.347-19.773-16.347-32.654s6.166-24.988 16.347-32.654c9.912 7.461 16.334 19.321 16.334 32.654s-6.422 25.193-16.334 32.654z"/><circle cx="462.979" cy="87.149" r="8.17"/><circle cx="364.936" cy="54.468" r="8.17"/><circle cx="430.298" cy="119.83" r="8.17"/><circle cx="332.255" cy="185.192" r="8.17"/><circle cx="364.936" cy="217.872" r="8.17"/><circle cx="81.702" cy="152.511" r="8.17"/><circle cx="147.064" cy="54.468" r="8.17"/><circle cx="179.745" cy="217.872" r="8.17"/><circle cx="49.021" cy="119.83" r="8.17"/></svg>