<svg xmlns="http://www.w3.org/2000/svg" viewBox="0 0 512 512"><path d="M503.83 408.511H370.383V359.49H503.83a8.172 8.172 0 0 0 7.081-12.247l-56.306-97.82h13.821a8.172 8.172 0 0 0 7.081-12.247l-56.306-97.82h13.821a8.172 8.172 0 0 0 7.081-12.247L369.294 4.094a8.17 8.17 0 0 0-14.162 0l-70.808 123.015a8.172 8.172 0 0 0 7.081 12.247h13.821l-38.171 66.316a8.17 8.17 0 1 0 14.161 8.152l45.221-78.563a8.172 8.172 0 0 0-7.081-12.247h-13.821l56.678-98.467 56.678 98.467H405.07a8.172 8.172 0 0 0-7.081 12.247l56.306 97.821h-13.821a8.172 8.172 0 0 0-7.081 12.247l56.306 97.82H327.673a8.17 8.17 0 0 0 0 16.34h26.369v49.021H157.957v-49.021h133.447a8.172 8.172 0 0 0 7.081-12.247l-56.306-97.82H256c4.534 0 8.192-3.658 8.192-8.17a8.14 8.14 0 0 0-1.388-4.558l-56.029-97.339h13.821c4.534 0 8.192-3.658 8.192-8.17a8.14 8.14 0 0 0-1.388-4.558L156.868 4.094a8.169 8.169 0 0 0-14.162 0L71.898 127.11a8.172 8.172 0 0 0 7.081 12.247H92.8l-56.306 97.82a8.172 8.172 0 0 0 7.081 12.247h13.821L1.089 347.243A8.172 8.172 0 0 0 8.17 359.49h133.447v49.021H8.17a8.17 8.17 0 0 0 0 16.34h495.66a8.17 8.17 0 0 0 0-16.34zM22.3 343.149l56.306-97.82a8.172 8.172 0 0 0-7.081-12.247h-13.82l56.306-97.821a8.172 8.172 0 0 0-7.081-12.247H93.109l56.678-98.467 56.678 98.467h-13.821a8.172 8.172 0 0 0-7.081 12.247l56.306 97.821h-13.821a8.172 8.172 0 0 0-7.081 12.247l56.306 97.82H22.3zm18.551 98.042a8.17 8.17 0 0 0-8.17 8.17v10.894a8.17 8.17 0 0 0 16.34 0v-10.894a8.17 8.17 0 0 0-8.17-8.17zm32.681 43.575a8.17 8.17 0 0 0-8.17 8.17v10.894a8.17 8.17 0 0 0 16.34 0v-10.894a8.17 8.17 0 0 0-8.17-8.17zm32.681-21.787a8.17 8.17 0 0 0-8.17 8.17v10.894a8.17 8.17 0 0 0 16.34 0v-10.894a8.17 8.17 0 0 0-8.17-8.17zm364.936-21.788a8.17 8.17 0 0 0-8.17 8.17v10.894a8.17 8.17 0 0 0 16.34 0v-10.894a8.17 8.17 0 0 0-8.17-8.17zm-152.511 43.575a8.17 8.17 0 0 0-8.17 8.17v10.894a8.17 8.17 0 0 0 16.34 0v-10.894a8.17 8.17 0 0 0-8.17-8.17zm32.681-21.787a8.17 8.17 0 0 0-8.17 8.17v10.894a8.17 8.17 0 0 0 16.34 0v-10.894a8.17 8.17 0 0 0-8.17-8.17zm-152.51 0a8.17 8.17 0 0 0-8.17 8.17v10.894a8.17 8.17 0 0 0 16.34 0v-10.894a8.17 8.17 0 0 0-8.17-8.17z"/><path d="M117.106 254.869a8.17 8.17 0 0 0-8.17 8.17v10.894a8.17 8.17 0 0 0 16.34 0v-10.894a8.169 8.169 0 0 0-8.17-8.17zm32.681-32.681a8.17 8.17 0 0 0-8.17 8.17v10.894a8.17 8.17 0 0 0 16.34 0v-10.894a8.17 8.17 0 0 0-8.17-8.17zm212.426-58.784a8.17 8.17 0 0 0-8.17 8.17v10.894a8.17 8.17 0 0 0 16.34 0v-10.894a8.17 8.17 0 0 0-8.17-8.17zm32.681 108.936a8.17 8.17 0 0 0-8.17 8.17v10.894a8.17 8.17 0 0 0 16.34 0V280.51a8.17 8.17 0 0 0-8.17-8.17z"/></svg>