<svg xmlns="http://www.w3.org/2000/svg" viewBox="0 0 512 512"><path d="M231.489 435.677h-16.34a8.17 8.17 0 0 0 0 16.34h16.34a8.17 8.17 0 0 0 0-16.34zm239.66 43.574h-16.34a8.17 8.17 0 0 0 0 16.34h16.34a8.17 8.17 0 0 0 0-16.34zm32.681-32.681h-16.34a8.17 8.17 0 0 0 0 16.34h16.34a8.17 8.17 0 0 0 0-16.34zm-479.319 0H8.17a8.17 8.17 0 0 0 0 16.34h16.34a8.17 8.17 0 0 0 .001-16.34zm87.149 32.681H95.32a8.17 8.17 0 0 0 0 16.34h16.34a8.17 8.17 0 0 0 0-16.34zm87.149-76.255h-16.34a8.17 8.17 0 0 0 0 16.34h16.34a8.17 8.17 0 0 0 0-16.34zm305.021-32.545h-41.396v-21.787h25.055c13.516 0 24.511-10.995 24.511-24.511a24.69 24.69 0 0 0-.57-5.232L478.205 166.41c-2.435-11.17-12.504-19.278-23.941-19.278s-21.505 8.108-23.94 19.278l-28.067 128.835-5.157 23.674a24.607 24.607 0 0 0-.571 5.233c0 13.516 10.995 24.511 24.511 24.511h25.055v21.787H330.259v-21.787h25.055c13.516 0 24.511-10.995 24.511-24.511a24.69 24.69 0 0 0-.57-5.232l-33.226-152.51c-2.435-11.17-12.504-19.278-23.941-19.278s-21.505 8.108-23.94 19.278l-28.067 128.836-5.157 23.674a24.6 24.6 0 0 0-.571 5.233c0 13.516 10.995 24.511 24.511 24.511h25.055v21.787H198.082v-21.787h25.055c13.516 0 24.511-10.995 24.511-24.511 0-1.735-.192-3.496-.571-5.232L213.852 166.41c-2.435-11.17-12.503-19.278-23.94-19.278s-21.505 8.107-23.941 19.278l-28.073 128.856-5.154 23.655a24.657 24.657 0 0 0-.57 5.23c0 13.516 10.995 24.511 24.511 24.511h25.055v21.787H65.906v-21.787h25.055c13.516 0 24.511-10.995 24.511-24.511 0-1.735-.192-3.496-.571-5.232l-33.225-152.51c-2.435-11.17-12.503-19.277-23.94-19.277-11.437 0-21.505 8.107-23.941 19.278L5.724 295.267.57 318.922a24.666 24.666 0 0 0-.57 5.231c0 13.516 10.995 24.511 24.511 24.511h25.055v21.787H8.17a8.17 8.17 0 0 0 0 16.34h495.66a8.17 8.17 0 0 0 0-16.34zM24.511 332.323c-4.506 0-8.17-3.666-8.17-8.17 0-.568.066-1.157.196-1.753l3.771-17.311h48.758a8.17 8.17 0 0 0 0-16.34H23.868l25.894-118.858c.81-3.719 4.165-6.419 7.974-6.419s7.164 2.699 7.974 6.417l33.226 152.512c.13.596.196 1.185.196 1.752 0 4.506-3.665 8.17-8.17 8.17H24.511zm132.175 0c-4.505 0-8.17-3.666-8.17-8.17 0-.568.066-1.157.196-1.753l3.771-17.311h48.758a8.17 8.17 0 0 0 0-16.34h-45.198l25.894-118.858c.81-3.719 4.165-6.419 7.974-6.419s7.164 2.699 7.974 6.417l33.226 152.512c.13.596.196 1.185.196 1.752 0 4.506-3.665 8.17-8.17 8.17h-66.451zm132.177.001c-4.506-.001-8.17-3.667-8.17-8.171 0-.566.066-1.156.196-1.753l3.771-17.311h48.758a8.17 8.17 0 0 0 0-16.34H288.22l25.894-118.859c.81-3.719 4.164-6.417 7.974-6.417s7.164 2.699 7.974 6.417l33.226 152.51c.131.597.196 1.187.196 1.755 0 4.506-3.665 8.17-8.17 8.17h-66.451zm132.175 0c-4.506-.001-8.17-3.667-8.17-8.171 0-.566.066-1.156.196-1.753l3.771-17.311h48.758a8.17 8.17 0 0 0 0-16.34h-45.198L446.29 169.89c.81-3.719 4.164-6.417 7.974-6.417s7.164 2.699 7.974 6.417l33.226 152.51c.131.597.196 1.187.196 1.755 0 4.506-3.665 8.17-8.17 8.17h-66.452zm55.558-272.341h-126.23c.624-2.649.953-5.384.953-8.17 0-19.521-15.883-35.404-35.404-35.404H147.064c-16.711 0-30.755 11.638-34.452 27.234H35.404C15.883 43.643 0 59.525 0 79.047s15.883 35.404 35.404 35.404h168.851c16.711 0 30.755-11.638 34.452-27.234h26.606a35.318 35.318 0 0 0-.962 8.17c0 19.521 15.883 35.404 35.404 35.404h72.08a8.17 8.17 0 0 0 0-16.34h-72.08c-10.511 0-19.064-8.553-19.064-19.064s8.553-19.064 19.064-19.064h176.84c10.511 0 19.064 8.553 19.064 19.064s-8.553 19.064-19.064 19.064h-72.08a8.17 8.17 0 0 0 0 16.34h72.08c19.521 0 35.404-15.883 35.404-35.404s-15.882-35.404-35.403-35.404zm-143.464 0h-33.376c-10.015 0-19.065 4.186-25.511 10.894h-42.756a8.17 8.17 0 0 0-8.17 8.17c0 10.511-8.553 19.064-19.064 19.064H35.404c-10.511 0-19.064-8.553-19.064-19.064s8.553-19.064 19.064-19.064h84.425a8.17 8.17 0 0 0 8.17-8.17c0-10.511 8.553-19.064 19.064-19.064h168.851c10.511 0 19.064 8.553 19.064 19.064a18.909 18.909 0 0 1-1.846 8.17z"/></svg>