<svg xmlns="http://www.w3.org/2000/svg" viewBox="0 0 512 512"><path d="M256 16.34c-31.536 0-57.191 25.656-57.191 57.191s25.656 57.191 57.191 57.191 57.191-25.656 57.191-57.191S287.536 16.34 256 16.34zm0 98.043c-22.526 0-40.851-18.325-40.851-40.851S233.474 32.681 256 32.681s40.851 18.325 40.851 40.851-18.325 40.851-40.851 40.851zm160.681 299.574H8.17a8.17 8.17 0 0 0 0 16.34h408.511a8.17 8.17 0 0 0 0-16.34zm87.149 32.681H226.043a8.17 8.17 0 0 0 0 16.34H503.83a8.17 8.17 0 0 0 0-16.34zm-310.468 0H95.319a8.17 8.17 0 0 0 0 16.34h98.043a8.17 8.17 0 0 0 0-16.34zm310.468 32.681h-98.043a8.17 8.17 0 0 0 0 16.34h98.043a8.17 8.17 0 0 0 0-16.34z"/><path d="M503.83 381.277h-38.086c-3.796-18.622-20.301-32.678-40.029-32.678h-25.883l-25.791-139.48c4.011-19.009 23.207-34.821 42.64-34.821a8.172 8.172 0 0 0 8.053-6.786l3.827-22.259c2.368-13.78 16.182-25.424 30.166-25.424h45.104a8.17 8.17 0 0 0 0-16.34h-45.104c-21.817 0-42.573 17.493-46.271 38.994l-2.74 15.934c-22.845 3.015-43.564 20.48-50.407 42.483H152.69c-6.842-22.003-27.562-39.468-50.407-42.483l-2.74-15.935c-3.696-21.5-24.453-38.993-46.27-38.993H8.17a8.17 8.17 0 0 0 0 16.34h45.104c13.982 0 27.797 11.642 30.166 25.422l3.827 22.26a8.17 8.17 0 0 0 8.053 6.786c19.433 0 38.629 15.812 42.64 34.821l-25.795 139.476H86.281c-19.728 0-36.233 14.057-40.029 32.681H8.17a8.17 8.17 0 0 0 0 16.34h132.58a8.17 8.17 0 0 0 0-16.34H63.176c3.373-9.509 12.454-16.34 23.105-16.34h54.468a8.17 8.17 0 0 0 0-16.34h-11.968l24.293-131.354h29.393v98.673H158.24a8.17 8.17 0 0 0 0 16.34h194.977a8.17 8.17 0 0 0 0-16.34H264.17V244.38a8.17 8.17 0 0 0-16.34 0v71.535h-49.021v-98.673h16.34v41.482a8.17 8.17 0 0 0 16.34 0v-41.482h127.436l24.289 131.357h-11.968a8.17 8.17 0 0 0 0 16.34h54.469c10.65 0 19.731 6.829 23.104 16.337H173.431a8.17 8.17 0 0 0 0 16.34h284.892c.025 0 .049.003.074.003.025 0 .049-.003.074-.003h45.359a8.17 8.17 0 0 0 0-16.339z"/></svg>