<svg xmlns="http://www.w3.org/2000/svg" viewBox="0 0 512 512"><path d="M462.979 16.409H35.404C15.882 16.409 0 32.291 0 51.813s15.882 35.404 35.404 35.404h55.419c3.698 15.596 17.742 27.234 34.453 27.234h73.532a8.17 8.17 0 0 0 8.17-8.17 8.17 8.17 0 0 0-8.17-8.17h-73.532c-10.511 0-19.064-8.553-19.064-19.064a8.17 8.17 0 0 0-8.17-8.17H35.404c-10.511 0-19.064-8.553-19.064-19.064s8.553-19.064 19.064-19.064h427.574c18.02 0 32.681 14.661 32.681 32.681s-14.661 32.681-32.681 32.681H231.489a8.17 8.17 0 0 0-8.17 8.17 8.17 8.17 0 0 0 8.17 8.17h231.489c27.03 0 49.021-21.991 49.021-49.021s-21.99-49.021-49.02-49.021zm40.851 354.042H217.872V276.64l21.452-72.56a8.186 8.186 0 0 0 .336-2.316v-54.63h264.17a8.17 8.17 0 1 0 0-16.341H231.49a8.17 8.17 0 0 0-8.17 8.17v61.619l-20.881 70.629-42.172 43.432a8.172 8.172 0 0 0-2.308 5.692v50.118H8.17c-4.513 0-8.17 3.658-8.17 8.17s3.657 8.17 8.17 8.17h495.66a8.171 8.171 0 0 0 0-16.342zm-302.298.001h-27.234v-46.805l27.234-28.047v74.852z"/><path d="M503.83 193.592H264.17c-4.513 0-8.17 3.658-8.17 8.17s3.657 8.17 8.17 8.17h89.872V345.94c0 4.512 3.657 8.17 8.17 8.17s8.17-3.658 8.17-8.17V209.933h92.596V345.94c0 4.512 3.657 8.17 8.17 8.17s8.17-3.658 8.17-8.17V209.933h24.511c4.513 0 8.17-3.658 8.17-8.17s-3.656-8.171-8.169-8.171z"/><path d="M438.468 226.273a8.17 8.17 0 0 0-8.17 8.17V345.94c0 4.512 3.657 8.17 8.17 8.17s8.17-3.658 8.17-8.17V234.443a8.17 8.17 0 0 0-8.17-8.17zM160.681 402.996H62.638c-16.518 0-29.957 13.438-29.957 29.957S46.12 462.91 62.638 462.91h98.043c16.518 0 29.957-13.438 29.957-29.957s-13.439-29.957-29.957-29.957zm0 43.574H62.638c-7.509 0-13.617-6.108-13.617-13.617s6.108-13.617 13.617-13.617h98.043c7.509 0 13.617 6.108 13.617 13.617s-6.108 13.617-13.617 13.617zm103.489 10.894h-16.34c-4.513 0-8.17 3.658-8.17 8.17s3.657 8.17 8.17 8.17h16.34c4.513 0 8.17-3.658 8.17-8.17s-3.657-8.17-8.17-8.17zm206.979 21.787h-16.34c-4.513 0-8.17 3.658-8.17 8.17s3.657 8.17 8.17 8.17h16.34c4.513 0 8.17-3.658 8.17-8.17s-3.657-8.17-8.17-8.17zm-446.638 0H8.17c-4.513 0-8.17 3.658-8.17 8.17s3.657 8.17 8.17 8.17h16.34c4.513 0 8.17-3.658 8.17-8.17s-3.656-8.17-8.169-8.17zM503.83 446.57h-16.34c-4.513 0-8.17 3.658-8.17 8.17s3.657 8.17 8.17 8.17h16.34c4.513 0 8.17-3.658 8.17-8.17s-3.657-8.17-8.17-8.17zm-272.341-21.787h-16.34c-4.513 0-8.17 3.658-8.17 8.17s3.657 8.17 8.17 8.17h16.34c4.513 0 8.17-3.658 8.17-8.17s-3.656-8.17-8.17-8.17z"/></svg>