<svg xmlns="http://www.w3.org/2000/svg" viewBox="0 0 512 512"><path d="M206.979 0c-31.535 0-57.192 25.657-57.192 57.192s25.657 57.191 57.192 57.191 57.191-25.657 57.191-57.191C264.171 25.657 238.514 0 206.979 0zm0 98.043c-22.526 0-40.851-18.325-40.851-40.851s18.325-40.851 40.851-40.851 40.851 18.325 40.851 40.851-18.325 40.851-40.851 40.851zm21.625 131.871c-22.309-12.975-52.826-29.355-91.117-40.935-17.761-5.372-36.287-9.462-55.785-12.333v-18.235c18.624-3.795 32.681-20.3 32.681-40.029V63.915c0-22.526-18.325-40.851-40.851-40.851s-40.85 18.325-40.85 40.851v54.468c0 19.728 14.057 36.233 32.681 40.029v16.143c-18.151-1.985-37.148-2.981-57.191-2.981-4.513 0-8.17 3.657-8.17 8.17s3.657 8.17 8.17 8.17c23.21 0 44.195 1.321 63.52 3.783a8.214 8.214 0 0 0 1.694.209c59.781 7.864 103.489 26.821 147.005 52.131a8.166 8.166 0 0 0 11.17-2.954 8.171 8.171 0 0 0-2.957-11.169zM49.022 118.383V63.915c0-13.515 10.996-24.511 24.511-24.511 13.515 0 24.511 10.996 24.511 24.511v54.468c0 13.515-10.996 24.511-24.511 24.511-13.515 0-24.511-10.996-24.511-24.511z"/><path d="M503.83 171.574c-20.643 0-39.614 1.059-57.191 2.988v-16.149c18.624-3.795 32.681-20.3 32.681-40.029V63.917c0-22.526-18.325-40.851-40.851-40.851s-40.851 18.325-40.851 40.851v54.468c0 19.728 14.057 36.233 32.681 40.029v18.244c-31.273 4.616-57.934 12.098-81.702 21.283V184.7c18.624-3.795 32.681-20.3 32.681-40.029V90.202c0-22.526-18.325-40.851-40.851-40.851s-40.851 18.325-40.851 40.851v54.468c0 19.728 14.057 36.233 32.681 40.029v19.995c-29.884 13.176-55.385 28.868-80.538 44.347-62.711 38.593-121.945 75.044-243.547 75.044-4.513 0-8.17 3.657-8.17 8.17s3.657 8.17 8.17 8.17c126.228 0 190.223-39.382 252.112-77.467 26.406-16.25 52.197-32.12 82.285-45.05a8.134 8.134 0 0 0 2.03-.861c26.784-11.317 57.021-20.288 94.104-25.142a8.178 8.178 0 0 0 1.639-.212c19.184-2.435 40.188-3.778 63.488-3.778a8.169 8.169 0 0 0 8.17-8.17 8.17 8.17 0 0 0-8.17-8.171zm-163.404-2.393c-13.515 0-24.511-10.996-24.511-24.511V90.202c0-13.515 10.996-24.511 24.511-24.511s24.511 10.996 24.511 24.511v54.468c0 13.515-10.996 24.511-24.511 24.511zm98.043-26.285c-13.515 0-24.511-10.996-24.511-24.511V63.917c0-13.515 10.996-24.511 24.511-24.511s24.511 10.996 24.511 24.511v54.468c-.001 13.515-10.997 24.511-24.511 24.511zM72.988 452.085a8.169 8.169 0 0 0-8.17 8.17v10.894c0 4.513 3.657 8.17 8.17 8.17s8.17-3.657 8.17-8.17v-10.894a8.169 8.169 0 0 0-8.17-8.17zm234.213-98.042a8.169 8.169 0 0 0-8.17 8.17v10.894c0 4.513 3.657 8.17 8.17 8.17s8.17-3.657 8.17-8.17v-10.894a8.169 8.169 0 0 0-8.17-8.17zm130.723 65.361a8.169 8.169 0 0 0-8.17 8.17v10.894c0 4.513 3.657 8.17 8.17 8.17s8.17-3.657 8.17-8.17v-10.894a8.169 8.169 0 0 0-8.17-8.17zm-32.681 32.681a8.169 8.169 0 0 0-8.17 8.17v10.894c0 4.513 3.657 8.17 8.17 8.17s8.17-3.657 8.17-8.17v-10.894a8.169 8.169 0 0 0-8.17-8.17zm-266.894 32.681a8.169 8.169 0 0 0-8.17 8.17v10.894a8.169 8.169 0 0 0 8.17 8.17 8.169 8.169 0 0 0 8.17-8.17v-10.894a8.168 8.168 0 0 0-8.17-8.17z"/></svg>