<svg xmlns="http://www.w3.org/2000/svg" viewBox="0 0 512 512"><path d="M503.83 283.233H397.617v-77.352a8.174 8.174 0 0 0-2.308-5.692l-42.171-43.432-21.216-71.763a8.17 8.17 0 0 0-2.295-3.689l-68.085-62.801a8.17 8.17 0 0 0-11.079 0l-68.085 62.801a8.157 8.157 0 0 0-2.295 3.689l-21.216 71.764-42.171 43.432a8.172 8.172 0 0 0-2.308 5.692v52.841a8.17 8.17 0 0 0 16.34 0v-49.528l27.234-28.047v77.575a8.17 8.17 0 0 0 16.34 0v-96.535l20.812-70.4L256 35.625l60.89 56.164 20.812 70.399v121.046H264.17v-46.137a8.17 8.17 0 0 0-16.34 0v46.137H8.17a8.17 8.17 0 0 0 0 16.34h495.66a8.17 8.17 0 1 0 0-16.341zm-122.553 0h-27.234V181.147l27.234 28.047v74.039zm35.404 32.681H8.17a8.17 8.17 0 0 0 0 16.34h408.511a8.17 8.17 0 0 0 0-16.34zM226.043 479.318h-27.632l-19.529-39.055a8.17 8.17 0 0 0-7.307-4.516H40.851a8.17 8.17 0 0 0-8.17 8.17v35.401H8.17a8.17 8.17 0 0 0 0 16.34h217.872a8.17 8.17 0 0 0 .001-16.34zm-177.022 0v-27.231h117.504l13.617 27.231H49.021zM503.83 348.595H226.043a8.17 8.17 0 0 0 0 16.34H503.83a8.17 8.17 0 0 0 0-16.34zm-310.468 0H95.319a8.17 8.17 0 0 0 0 16.34h98.043a8.17 8.17 0 0 0 0-16.34zm310.468 98.043h-98.043a8.17 8.17 0 0 0 0 16.34h98.043a8.17 8.17 0 0 0 0-16.34zm0-32.681h-24.511V389.45a8.17 8.17 0 0 0-8.17-8.17h-32.681a8.167 8.167 0 0 0-7.307 4.516l-14.082 28.161h-19.461V389.45a8.17 8.17 0 0 0-8.17-8.17h-92.596a8.167 8.167 0 0 0-7.307 4.516l-14.082 28.161H256a8.17 8.17 0 0 0 0 16.34h247.83a8.17 8.17 0 0 0 0-16.34zm-122.553 0h-87.545l8.169-16.337h79.376v16.337zm81.702 0h-27.631l8.169-16.337h19.461v16.337z"/><path d="M303.313 106.47a8.17 8.17 0 0 0-11.545-.466L256 138.996l-35.77-32.995a8.17 8.17 0 0 0-11.545.466 8.17 8.17 0 0 0 .466 11.545l38.679 35.678v50.726a8.17 8.17 0 0 0 16.34 0V153.69l38.677-35.676a8.169 8.169 0 0 0 .466-11.544z"/></svg>