<svg xmlns="http://www.w3.org/2000/svg" viewBox="0 0 511.999 511.999"><path d="M165.038 370.926h-16.34c-4.513 0-8.17 3.657-8.17 8.17s3.657 8.17 8.17 8.17h16.34c4.513 0 8.17-3.657 8.17-8.17s-3.656-8.17-8.17-8.17zm247.829 98.042h-16.34c-4.513 0-8.17 3.657-8.17 8.17s3.657 8.17 8.17 8.17h16.34c4.513 0 8.17-3.657 8.17-8.17s-3.657-8.17-8.17-8.17zm49.565-32.681h-16.34a8.169 8.169 0 0 0-8.17 8.17 8.169 8.169 0 0 0 8.17 8.17h16.34a8.169 8.169 0 0 0 8.17-8.17 8.169 8.169 0 0 0-8.17-8.17zm-99.131-32.68h-16.34a8.169 8.169 0 0 0-8.17 8.17 8.169 8.169 0 0 0 8.17 8.17h16.34a8.169 8.169 0 0 0 8.17-8.17 8.169 8.169 0 0 0-8.17-8.17zm-297.394 0h-16.34a8.169 8.169 0 0 0-8.17 8.17 8.169 8.169 0 0 0 8.17 8.17h16.34a8.169 8.169 0 0 0 8.17-8.17 8.169 8.169 0 0 0-8.17-8.17zm314.388-138.141c-28.963-34.825-71.881-56.419-116.125-58.803V92.874c18.624 3.795 32.681 20.3 32.681 40.028a8.169 8.169 0 0 0 8.17 8.17 8.169 8.169 0 0 0 8.17-8.17c0-23.967-14.826-44.524-35.782-53.018a40.851 40.851 0 0 1 13.254-2.202c10.904 0 21.164 4.253 28.886 11.976a8.15 8.15 0 0 0 5.778 2.392 8.17 8.17 0 0 0 5.778-13.947c-10.81-10.81-25.172-16.762-40.441-16.762-7.78 0-15.321 1.552-22.281 4.498 6.674-13.499 20.587-22.809 36.638-22.809 4.513 0 8.17-3.657 8.17-8.17s-3.657-8.17-8.17-8.17c-20.777 0-39.004 11.14-49.021 27.758-10.017-16.619-28.244-27.758-49.021-27.758-4.513 0-8.17 3.657-8.17 8.17s3.657 8.17 8.17 8.17c16.052 0 29.964 9.31 36.638 22.809-6.959-2.946-14.5-4.498-22.281-4.498-15.27 0-29.632 5.952-40.441 16.762a8.17 8.17 0 1 0 11.555 11.555c7.722-7.724 17.982-11.976 28.886-11.976 4.58 0 9.042.759 13.254 2.202-20.956 8.494-35.782 29.051-35.782 53.018 0 4.513 3.657 8.17 8.17 8.17s8.17-3.657 8.17-8.17c0-19.728 14.057-36.233 32.681-40.028v113.789c-44.244 2.385-87.161 23.981-116.125 58.805a8.171 8.171 0 1 0 12.564 10.449c27.674-33.276 69.443-53.142 111.731-53.142s84.057 19.865 111.731 53.141a8.172 8.172 0 0 0 12.565-10.45z"/><path d="M507.398 275.34a8.168 8.168 0 0 0-10.918 3.78c-7.922 16.313-24.099 26.445-42.217 26.445s-34.294-10.133-42.217-26.445a8.169 8.169 0 0 0-14.698 0c-7.922 16.313-24.099 26.445-42.217 26.445s-34.294-10.133-42.217-26.445a8.169 8.169 0 0 0-14.698 0c-7.922 16.313-24.099 26.445-42.217 26.445s-34.294-10.133-42.217-26.445a8.169 8.169 0 0 0-14.698 0c-7.922 16.313-24.099 26.445-42.217 26.445s-34.294-10.133-42.217-26.445a8.169 8.169 0 0 0-14.698 0c-7.922 16.313-24.099 26.445-42.217 26.445S23.44 295.433 15.517 279.12A8.166 8.166 0 0 0 4.6 275.34a8.17 8.17 0 0 0-3.78 10.918c10.516 21.655 32.856 35.648 56.914 35.648 19.409 0 37.698-9.106 49.566-23.996 11.867 14.89 30.157 23.996 49.566 23.996 19.409 0 37.698-9.106 49.566-23.996 11.867 14.89 30.157 23.996 49.566 23.996 19.409 0 37.698-9.106 49.566-23.996 11.867 14.89 30.157 23.996 49.566 23.996 19.409 0 37.698-9.106 49.566-23.996 11.867 14.89 30.157 23.996 49.566 23.996 24.058 0 46.399-13.993 56.914-35.648a8.169 8.169 0 0 0-3.778-10.918z"/></svg>