<svg xmlns="http://www.w3.org/2000/svg" viewBox="0 0 512.001 512.001"><path d="M503.829 157.957h-41.396V136.17h41.396a8.17 8.17 0 0 0 7.549-11.294L461.813 5.047a8.17 8.17 0 0 0-15.099 0l-49.566 119.829a8.173 8.173 0 0 0 7.549 11.294h41.396v21.787h-47.158l-28.121-49.21c-10.409-18.219-35.002-32.492-55.987-32.492h-45.27a8.17 8.17 0 0 0-8.17 8.17 8.17 8.17 0 0 0 8.17 8.17h45.27c15.145 0 34.288 11.109 41.801 24.259l23.488 41.103H282.53l-46.796-81.89c-10.409-18.219-35.002-32.492-55.987-32.492H8.172a8.17 8.17 0 0 0-8.17 8.17 8.17 8.17 0 0 0 8.17 8.17h171.574c15.145 0 34.288 11.109 41.801 24.259l42.162 73.783H73.533a8.17 8.17 0 0 0-8.17 8.17 8.17 8.17 0 0 0 8.17 8.17h430.296a8.17 8.17 0 0 0 8.17-8.17 8.17 8.17 0 0 0-8.17-8.17zm-86.91-38.128l37.344-90.284 37.344 90.284h-74.688zM40.852 157.957H8.172a8.17 8.17 0 0 0-8.17 8.17 8.17 8.17 0 0 0 8.17 8.17h32.681a8.17 8.17 0 0 0 8.17-8.17 8.17 8.17 0 0 0-8.171-8.17zm375.829 32.68H8.172a8.17 8.17 0 0 0-8.17 8.17 8.17 8.17 0 0 0 8.17 8.17h408.509a8.17 8.17 0 0 0 0-16.34zm87.148 32.681H226.043a8.17 8.17 0 0 0-8.17 8.17 8.17 8.17 0 0 0 8.17 8.17h277.786a8.17 8.17 0 0 0 0-16.34zm-310.467 0H95.32a8.17 8.17 0 0 0-8.17 8.17 8.17 8.17 0 0 0 8.17 8.17h98.042a8.17 8.17 0 0 0 8.17-8.17 8.168 8.168 0 0 0-8.17-8.17zm310.467 65.362H357.23a8.17 8.17 0 0 0-8.17 8.17 8.17 8.17 0 0 0 8.17 8.17h146.599a8.17 8.17 0 0 0 0-16.34zm-368.843 65.361H8.172a8.17 8.17 0 0 0-8.17 8.17 8.17 8.17 0 0 0 8.17 8.17h126.814a8.17 8.17 0 0 0 8.17-8.17 8.17 8.17 0 0 0-8.17-8.17zm-10.383 32.681h-51.07a8.17 8.17 0 0 0-8.17 8.17 8.17 8.17 0 0 0 8.17 8.17h51.07a8.17 8.17 0 0 0 8.17-8.17 8.168 8.168 0 0 0-8.17-8.17zm269.928 114.704l-63.677-206.952a8 8 0 0 0-.46-1.16 8.21 8.21 0 0 0-.67-1.151c-.039-.056-.081-.108-.122-.162a8.24 8.24 0 0 0-.696-.828l-.066-.073a8.287 8.287 0 0 0-1.036-.877 8.094 8.094 0 0 0-.964-.601c-.037-.02-.076-.036-.114-.054a7.965 7.965 0 0 0-1.014-.429c-.045-.015-.087-.034-.133-.048a8.136 8.136 0 0 0-1.122-.277c-.075-.013-.151-.024-.227-.035a8.09 8.09 0 0 0-1.193-.097H188.964a8.09 8.09 0 0 0-1.193.097 8.244 8.244 0 0 0-1.349.312c-.045.015-.088.033-.133.049a8.25 8.25 0 0 0-1.013.429c-.038.02-.077.035-.114.054-.337.178-.657.38-.964.601-.061.044-.12.089-.18.134-.302.23-.59.474-.856.743-.023.023-.044.049-.066.073a7.982 7.982 0 0 0-.696.828c-.04.054-.083.107-.121.162-.22.313-.416.642-.59.984-.028.054-.053.111-.081.167-.18.373-.338.758-.46 1.16L117.47 501.427a8.17 8.17 0 1 0 15.617 4.806l10.962-35.63h223.903l10.962 35.628a8.172 8.172 0 0 0 10.211 5.406 8.169 8.169 0 0 0 5.406-10.211zM194.998 305.02h122.006l7.709 25.055H187.288l7.71-25.055zm-12.738 41.396h147.48l7.709 25.055H174.551l7.709-25.055zm-33.183 107.846l7.709-25.055h82.874a8.17 8.17 0 0 0 8.17-8.17 8.17 8.17 0 0 0-8.17-8.17h-77.847l7.709-25.055h172.955l7.709 25.055h-77.847a8.17 8.17 0 0 0-8.17 8.17 8.17 8.17 0 0 0 8.17 8.17h82.874l7.709 25.055H149.077z"/></svg>