<svg xmlns="http://www.w3.org/2000/svg" viewBox="0 0 512 512"><path d="M40.851 441.191a8.17 8.17 0 0 0-8.17 8.17v10.894c0 4.512 3.657 8.17 8.17 8.17s8.17-3.658 8.17-8.17v-10.894a8.17 8.17 0 0 0-8.17-8.17zm32.681 43.575a8.17 8.17 0 0 0-8.17 8.17v10.894c0 4.512 3.657 8.17 8.17 8.17s8.17-3.658 8.17-8.17v-10.894a8.17 8.17 0 0 0-8.17-8.17zm32.681-21.787a8.17 8.17 0 0 0-8.17 8.17v10.894a8.17 8.17 0 0 0 8.17 8.17 8.17 8.17 0 0 0 8.17-8.17v-10.894a8.17 8.17 0 0 0-8.17-8.17zm364.936-21.788a8.17 8.17 0 0 0-8.17 8.17v10.894c0 4.512 3.657 8.17 8.17 8.17s8.17-3.658 8.17-8.17v-10.894a8.17 8.17 0 0 0-8.17-8.17zm-152.511 43.575a8.17 8.17 0 0 0-8.17 8.17v10.894c0 4.512 3.657 8.17 8.17 8.17s8.17-3.658 8.17-8.17v-10.894a8.168 8.168 0 0 0-8.17-8.17zm32.681-21.787a8.17 8.17 0 0 0-8.17 8.17v10.894c0 4.512 3.657 8.17 8.17 8.17s8.17-3.658 8.17-8.17v-10.894a8.17 8.17 0 0 0-8.17-8.17zm-152.51 0a8.17 8.17 0 0 0-8.17 8.17v10.894c0 4.512 3.657 8.17 8.17 8.17s8.17-3.658 8.17-8.17v-10.894a8.17 8.17 0 0 0-8.17-8.17zM256 152.511c-31.535 0-57.191 25.656-57.191 57.192v130.723a8.17 8.17 0 0 0 8.17 8.17h98.043a8.17 8.17 0 0 0 8.17-8.17V209.702c-.001-31.536-25.657-57.191-57.192-57.191zm-24.511 179.744h-16.34V217.872h16.34v114.383zm32.681 0h-16.34V217.872h16.34v114.383zM256 185.192a8.17 8.17 0 0 0-8.17 8.17v8.17h-31.858c3.795-18.624 20.3-32.681 40.029-32.681s36.233 14.057 40.029 32.681h-31.86v-8.17a8.17 8.17 0 0 0-8.17-8.17zm40.851 147.063h-16.34V217.872h16.34v114.383z"/><path d="M480.681 193.362V146.18C498.547 142.275 512 125.841 512 106.213V73.532c0-4.512-3.657-8.17-8.17-8.17s-8.17 3.658-8.17 8.17v32.681c0 10.471-6.234 19.424-14.979 22.93V29.957a8.17 8.17 0 0 0-8.17-8.17 8.17 8.17 0 0 0-8.17 8.17v163.404c0 10.471-6.234 19.424-14.979 22.93V8.17a8.17 8.17 0 0 0-8.17-8.17 8.17 8.17 0 0 0-8.17 8.17v153.653c-8.744-3.504-14.979-12.459-14.979-22.93V29.957a8.17 8.17 0 0 0-8.17-8.17 8.17 8.17 0 0 0-8.17 8.17v66.504c-8.744-3.506-14.979-12.459-14.979-22.93V51.745a8.17 8.17 0 0 0-8.17-8.17 8.17 8.17 0 0 0-8.17 8.17v21.787c0 19.628 13.453 36.062 31.319 39.966v25.395c0 19.628 13.453 36.062 31.319 39.966V303.44c-8.744-3.504-14.979-12.459-14.979-22.93v-65.362a8.17 8.17 0 0 0-8.17-8.17 8.17 8.17 0 0 0-8.17 8.17v65.362c0 19.628 13.453 36.062 31.319 39.966v88.035H384V182.468a8.173 8.173 0 0 0-2.392-5.777l-30.289-30.289v-29.296a8.17 8.17 0 0 0-8.17-8.17H168.851a8.17 8.17 0 0 0-8.17 8.17v29.296l-30.289 30.289a8.17 8.17 0 0 0-2.392 5.777v226.043H78.979V276.903c17.867-3.904 31.319-20.338 31.319-39.967v-32.681a8.17 8.17 0 0 0-8.17-8.17 8.17 8.17 0 0 0-8.17 8.17v32.681c0 10.471-6.234 19.424-14.979 22.93V146.18c15.559-3.4 27.76-16.306 30.655-32.546 18.196-3.638 31.984-20.233 31.984-40.103V51.745a8.17 8.17 0 0 0-8.17-8.17 8.17 8.17 0 0 0-8.17 8.17v21.787c0 10.471-6.234 19.424-14.979 22.93V51.745a8.17 8.17 0 0 0-8.17-8.17 8.17 8.17 0 0 0-8.17 8.17v54.468c0 10.471-6.236 19.424-14.979 22.929V8.17A8.17 8.17 0 0 0 70.81 0a8.17 8.17 0 0 0-8.17 8.17v186.334c-8.746-3.504-14.98-12.459-14.98-22.93V29.957c0-4.512-3.657-8.17-8.17-8.17s-8.17 3.658-8.17 8.17v131.866c-8.744-3.506-14.979-12.459-14.979-22.93V73.532a8.17 8.17 0 1 0-16.341 0v65.362c0 19.87 13.788 36.464 31.984 40.102 2.894 16.24 15.095 29.146 30.655 32.546v196.97H8.17c-4.513 0-8.17 3.658-8.17 8.17s3.657 8.17 8.17 8.17h495.66c4.513 0 8.17-3.658 8.17-8.17s-3.657-8.17-8.17-8.17h-54.468V233.328c17.866-3.904 31.319-20.338 31.319-39.966zM334.979 408.511H177.021v-35.404c0-4.512-3.657-8.17-8.17-8.17s-8.17 3.658-8.17 8.17v35.404h-16.34V185.852l16.34-16.34v170.914c0 4.512 3.657 8.17 8.17 8.17s8.17-3.658 8.17-8.17V125.277h157.957v283.234zm32.681 0h-16.34V169.512l16.34 16.339v222.66z"/></svg>