<svg xmlns="http://www.w3.org/2000/svg" viewBox="0 0 512.001 512.001"><path d="M511.906 17.838c-.679-4.462-4.856-7.531-9.304-6.851L341.807 35.412a8.17 8.17 0 0 0-6.851 9.304 8.173 8.173 0 0 0 9.305 6.851l160.794-24.424a8.17 8.17 0 0 0 6.851-9.305zM166.037 93.129c-.678-4.462-4.845-7.524-9.305-6.851L6.946 109.03A8.17 8.17 0 1 0 9.4 125.185l149.786-22.752a8.17 8.17 0 0 0 6.851-9.304zm296.396 251.109h-16.34c-4.513 0-8.17 3.657-8.17 8.17s3.657 8.17 8.17 8.17h16.34c4.513 0 8.17-3.657 8.17-8.17s-3.657-8.17-8.17-8.17zM65.908 376.919h-16.34a8.17 8.17 0 0 0-8.17 8.17 8.17 8.17 0 0 0 8.17 8.17h16.34a8.17 8.17 0 0 0 8.17-8.17 8.17 8.17 0 0 0-8.17-8.17z"/><path d="M503.829 408.51h-174.87l-9.02-124.022c10.291 6.891 22.519 10.729 35.192 10.729 19.409 0 37.698-9.106 49.566-23.996 11.867 14.89 30.157 23.996 49.566 23.996 24.058 0 46.399-13.993 56.914-35.648a8.167 8.167 0 0 0-3.78-10.917 8.168 8.168 0 0 0-10.918 3.78c-7.922 16.313-24.099 26.445-42.217 26.445s-34.294-10.133-42.217-26.445a8.169 8.169 0 1 0-14.698 0c-7.922 16.313-24.099 26.445-42.217 26.445-14.409 0-28.04-6.694-36.908-17.995l-9.862-135.604h13.001a8.169 8.169 0 0 0 8.17-8.17V84.427a8.169 8.169 0 0 0-8.17-8.17h-24.51v-16.82a8.14 8.14 0 0 0 2.717.479 8.171 8.171 0 0 0 4.909-14.706l-40.306-30.23V8.172a8.169 8.169 0 0 0-8.17-8.17 8.17 8.17 0 0 0-8.17 8.17v6.808l-40.306 30.23a8.17 8.17 0 0 0 7.626 14.241v16.805h-24.51a8.17 8.17 0 0 0-8.17 8.17v32.681a8.17 8.17 0 0 0 8.17 8.17h13.001l-9.862 135.604c-8.868 11.301-22.5 17.995-36.908 17.995-18.118 0-34.294-10.133-42.216-26.445a8.17 8.17 0 0 0-14.7 0c-7.922 16.313-24.099 26.445-42.216 26.445s-34.294-10.134-42.216-26.445a8.171 8.171 0 0 0-14.699 7.137c10.518 21.655 32.858 35.648 56.916 35.648 19.409 0 37.699-9.106 49.566-23.996 11.866 14.89 30.157 23.996 49.566 23.996 12.672 0 24.9-3.838 35.192-10.729l-9.02 124.022h-25.082a8.17 8.17 0 0 0-8.17 8.17v87.148a8.17 8.17 0 0 0 8.17 8.17 8.17 8.17 0 0 0 8.17-8.17V424.85h337.7a8.169 8.169 0 1 0-.004-16.34zM296.851 92.597h16.34v16.34h-16.34v-16.34zM231.49 47.661L256 29.278l24.51 18.383v28.596h-49.02V47.661zm49.021 44.936v16.34h-16.34v-16.34h16.34zm-49.021 0h16.34v16.34h-16.34v-16.34zm-11.467 32.681h71.953l6.14 84.425h-84.232l6.139-84.425zm-21.214-16.34v-16.34h16.34v16.34h-16.34zm.616 299.572l6.141-84.425h43.107a8.17 8.17 0 0 0 8.17-8.17 8.17 8.17 0 0 0-8.17-8.17h-41.918l5.942-81.702h86.609l5.942 81.702h-23.895a8.169 8.169 0 0 0-8.17 8.17 8.169 8.169 0 0 0 8.17 8.17h25.082l6.14 84.425h-113.15zm305.63-299.48l-32.681-4.964a8.171 8.171 0 0 0-2.453 16.155l32.681 4.964a8.172 8.172 0 0 0 2.453-16.155z"/><path d="M439.694 99.101l-84.425-12.823c-4.46-.67-8.627 2.388-9.304 6.851a8.169 8.169 0 0 0 6.851 9.304l84.425 12.823a8.172 8.172 0 0 0 9.304-6.851 8.17 8.17 0 0 0-6.851-9.304zM42.079 15.952l-32.68-4.964C4.937 10.317.771 13.377.094 17.839a8.172 8.172 0 0 0 6.851 9.304l32.681 4.964a8.173 8.173 0 0 0 9.305-6.851 8.172 8.172 0 0 0-6.852-9.304zm128.115 19.461L74.76 20.915a8.17 8.17 0 0 0-2.454 16.155l95.434 14.497a8.173 8.173 0 0 0 9.305-6.851 8.168 8.168 0 0 0-6.851-9.303z"/></svg>