<svg xmlns="http://www.w3.org/2000/svg" viewBox="0 0 512.001 512.001"><path d="M165.04 80.073H148.7a8.17 8.17 0 0 0 0 16.34h16.34a8.17 8.17 0 0 0 0-16.34zm198.262 49.021h-16.34a8.17 8.17 0 0 0 0 16.34h16.34a8.17 8.17 0 0 0 0-16.34zm49.565-32.681h-16.34a8.17 8.17 0 0 0 0 16.34h16.34a8.17 8.17 0 0 0 0-16.34zM507.398.826a8.169 8.169 0 0 0-10.919 3.78c-7.922 16.313-24.099 26.446-42.216 26.446S419.97 20.919 412.048 4.606a8.172 8.172 0 0 0-14.7 0c-7.922 16.313-24.099 26.446-42.216 26.446s-34.294-10.133-42.216-26.446a8.172 8.172 0 0 0-14.7 0C290.294 20.919 274.117 31.052 256 31.052s-34.294-10.133-42.216-26.446a8.172 8.172 0 0 0-14.7 0c-7.922 16.313-24.099 26.446-42.216 26.446s-34.294-10.133-42.216-26.446a8.172 8.172 0 0 0-14.7 0C92.033 20.919 75.857 31.052 57.74 31.052S23.443 20.918 15.522 4.606A8.17 8.17 0 0 0 .823 11.745C11.34 33.398 33.68 47.392 57.738 47.392c19.409 0 37.699-9.106 49.566-23.996 11.866 14.89 30.157 23.996 49.566 23.996s37.699-9.106 49.565-23.996c11.866 14.89 30.157 23.996 49.566 23.996s37.699-9.106 49.566-23.996c11.866 14.89 30.157 23.996 49.566 23.996s37.699-9.106 49.566-23.996c11.866 14.89 30.157 23.996 49.566 23.996 24.057 0 46.399-13.993 56.915-35.648A8.171 8.171 0 0 0 507.398.826zM73.534 441.192a8.17 8.17 0 0 0-8.17 8.17v10.894a8.17 8.17 0 0 0 16.34 0v-10.894a8.17 8.17 0 0 0-8.17-8.17zm-32.681-32.681a8.17 8.17 0 0 0-8.17 8.17v10.893a8.17 8.17 0 0 0 16.34 0v-10.893a8.17 8.17 0 0 0-8.17-8.17zm198.517 32.681a8.17 8.17 0 0 0-8.17 8.17v10.894a8.17 8.17 0 0 0 16.34 0v-10.894a8.169 8.169 0 0 0-8.17-8.17zm231.778-163.403a8.17 8.17 0 0 0-8.17 8.17v10.893a8.17 8.17 0 0 0 16.34 0v-10.893a8.17 8.17 0 0 0-8.17-8.17zm-87.693-43.574a8.17 8.17 0 0 0-8.17 8.17v10.893a8.17 8.17 0 0 0 16.34 0v-10.893a8.17 8.17 0 0 0-8.17-8.17zm-32.681 32.681a8.17 8.17 0 0 0-8.17 8.17v10.894a8.17 8.17 0 0 0 16.34 0v-10.894a8.17 8.17 0 0 0-8.17-8.17zm132.193 155.331c0-9.584-5.554-17.961-13.686-21.973.591-9.049-3.886-18.046-12.185-22.838a24.49 24.49 0 0 0-25.874.854 24.49 24.49 0 0 0-25.873-.854c-8.3 4.791-12.777 13.79-12.187 22.838-8.132 4.012-13.686 12.389-13.686 21.972 0 9.584 5.554 17.961 13.686 21.973-.59 9.048 3.887 18.046 12.187 22.838a24.485 24.485 0 0 0 17.702 2.667v34.124a8.17 8.17 0 0 0 16.34 0v-34.124a24.488 24.488 0 0 0 17.702-2.665c8.3-4.791 12.777-13.79 12.187-22.838 8.134-4.012 13.687-12.389 13.687-21.974zm-24.014 8.136a8.17 8.17 0 0 0-6.821 11.812c1.929 3.855.521 8.561-3.208 10.714a8.002 8.002 0 0 1-4.052 1.093 8.162 8.162 0 0 1-6.83-3.671 8.413 8.413 0 0 0-.577-.766c-.051-.061-.108-.118-.161-.178a8.484 8.484 0 0 0-.699-.695 8.19 8.19 0 0 0-.524-.422c-.066-.049-.13-.1-.197-.147a8.156 8.156 0 0 0-1.629-.877c-.069-.027-.138-.05-.207-.076a8.16 8.16 0 0 0-1.627-.415c-.084-.012-.166-.028-.251-.038a8.234 8.234 0 0 0-.948-.059c-.321 0-.636.023-.948.059-.084.01-.167.026-.251.038a7.394 7.394 0 0 0-.688.131c-.087.021-.173.044-.259.066a8.16 8.16 0 0 0-.68.218c-.069.025-.138.048-.207.076a8.16 8.16 0 0 0-1.629.877c-.068.047-.131.098-.197.147a8.124 8.124 0 0 0-1.223 1.117c-.053.06-.109.115-.161.178-.2.237-.389.487-.562.746a8.175 8.175 0 0 1-6.844 3.691 8.002 8.002 0 0 1-4.052-1.093c-3.728-2.153-5.137-6.859-3.208-10.714a8.168 8.168 0 0 0-6.821-11.812c-4.303-.256-7.673-3.83-7.673-8.135s3.37-7.878 7.673-8.134a8.17 8.17 0 0 0 6.821-11.812c-1.929-3.855-.521-8.561 3.208-10.714a8.003 8.003 0 0 1 4.052-1.094 8.16 8.16 0 0 1 6.83 3.672 8.17 8.17 0 0 0 13.638 0 8.16 8.16 0 0 1 6.83-3.672c1.432 0 2.795.368 4.052 1.094 3.728 2.153 5.137 6.859 3.208 10.714a8.168 8.168 0 0 0 6.82 11.812c4.303.256 7.673 3.83 7.673 8.134.003 4.305-3.368 7.878-7.671 8.135zm-84.921-62.603c0-9.584-5.554-17.961-13.686-21.973.591-9.049-3.886-18.046-12.185-22.838a24.49 24.49 0 0 0-25.874.854 24.49 24.49 0 0 0-25.873-.854c-8.3 4.791-12.777 13.79-12.187 22.838-8.132 4.012-13.686 12.389-13.686 21.972 0 9.584 5.554 17.961 13.686 21.973-.59 9.048 3.887 18.046 12.187 22.838a24.485 24.485 0 0 0 17.702 2.667v88.592a8.17 8.17 0 0 0 16.34 0v-88.592a24.488 24.488 0 0 0 17.702-2.665c8.3-4.791 12.777-13.79 12.187-22.838 8.133-4.013 13.687-12.39 13.687-21.974zm-24.014 8.135a8.17 8.17 0 0 0-6.821 11.812c1.929 3.855.521 8.561-3.208 10.714a8.002 8.002 0 0 1-4.052 1.093 8.162 8.162 0 0 1-6.83-3.671 8.413 8.413 0 0 0-.577-.766c-.051-.061-.108-.118-.161-.178a8.484 8.484 0 0 0-.699-.695 8.19 8.19 0 0 0-.524-.422c-.066-.049-.13-.1-.197-.147a8.156 8.156 0 0 0-1.629-.877c-.069-.027-.138-.05-.207-.076a8.16 8.16 0 0 0-1.627-.415c-.084-.012-.166-.028-.251-.038a8.234 8.234 0 0 0-.948-.059c-.321 0-.636.023-.948.059-.084.01-.167.026-.251.038a7.394 7.394 0 0 0-.688.131c-.087.021-.173.044-.259.066a8.16 8.16 0 0 0-.68.218c-.069.025-.138.048-.207.076a8.16 8.16 0 0 0-1.629.877c-.068.047-.131.098-.197.147a8.124 8.124 0 0 0-1.223 1.117c-.053.06-.109.115-.161.178-.2.237-.389.487-.562.746a8.175 8.175 0 0 1-6.844 3.691 8.002 8.002 0 0 1-4.052-1.093c-3.728-2.153-5.137-6.859-3.208-10.714a8.168 8.168 0 0 0-6.821-11.812c-4.303-.256-7.673-3.83-7.673-8.135s3.37-7.878 7.673-8.134a8.17 8.17 0 0 0 6.821-11.812c-1.929-3.855-.521-8.561 3.208-10.714a8.013 8.013 0 0 1 4.052-1.094 8.16 8.16 0 0 1 6.83 3.672 8.17 8.17 0 0 0 13.638 0 8.163 8.163 0 0 1 6.83-3.672c1.432 0 2.795.368 4.052 1.094 3.728 2.153 5.137 6.859 3.208 10.714a8.168 8.168 0 0 0 6.821 11.812c4.303.256 7.673 3.83 7.673 8.134.002 4.305-3.369 7.878-7.672 8.135zm-141.822 35.438c0-9.583-5.555-17.959-13.686-21.972.591-9.049-3.886-18.047-12.187-22.838a24.493 24.493 0 0 0-25.874.854 24.488 24.488 0 0 0-13.65-4.137 24.478 24.478 0 0 0-12.223 3.283c-8.3 4.791-12.777 13.79-12.187 22.838-8.132 4.012-13.685 12.389-13.685 21.972s5.553 17.961 13.685 21.973c-.59 9.048 3.887 18.046 12.188 22.838a24.485 24.485 0 0 0 17.702 2.667v45.017a8.17 8.17 0 0 0 16.34 0v-45.017a24.488 24.488 0 0 0 17.702-2.667c8.301-4.792 12.778-13.79 12.187-22.838 8.135-4.012 13.688-12.389 13.688-21.973zm-24.014 8.136a8.17 8.17 0 0 0-6.821 11.813c1.929 3.855.521 8.56-3.208 10.713a8.012 8.012 0 0 1-4.052 1.093 8.16 8.16 0 0 1-6.83-3.672 8.625 8.625 0 0 0-.576-.765c-.052-.062-.11-.12-.164-.181a8.064 8.064 0 0 0-.473-.488c-.074-.07-.149-.137-.225-.205a8.19 8.19 0 0 0-.524-.422c-.065-.049-.129-.1-.196-.146a8.037 8.037 0 0 0-1.63-.877c-.068-.027-.137-.05-.206-.075a7.6 7.6 0 0 0-.939-.284 8.786 8.786 0 0 0-.688-.131c-.084-.012-.166-.028-.251-.038-.312-.036-.626-.059-.948-.059s-.636.023-.948.059c-.084.01-.167.026-.251.038a7.394 7.394 0 0 0-.688.131c-.087.021-.173.044-.259.066a8.16 8.16 0 0 0-.68.218c-.069.025-.138.048-.207.076a8.16 8.16 0 0 0-1.629.877c-.068.047-.131.098-.197.147a8.124 8.124 0 0 0-1.223 1.117c-.053.06-.109.115-.161.178a8.174 8.174 0 0 0-.562.746 8.175 8.175 0 0 1-6.844 3.691 8.018 8.018 0 0 1-4.053-1.093c-3.728-2.153-5.137-6.859-3.208-10.714a8.168 8.168 0 0 0-6.82-11.812c-4.303-.256-7.673-3.83-7.673-8.135s3.37-7.878 7.673-8.134a8.168 8.168 0 0 0 6.82-11.812c-1.929-3.855-.521-8.561 3.208-10.714a8.003 8.003 0 0 1 4.052-1.094 8.16 8.16 0 0 1 6.83 3.672 8.17 8.17 0 0 0 13.638 0 8.157 8.157 0 0 1 6.83-3.672c1.432 0 2.795.368 4.053 1.094 3.728 2.153 5.137 6.857 3.207 10.713a8.17 8.17 0 0 0 6.82 11.813c4.303.256 7.673 3.83 7.673 8.134.004 4.304-3.367 7.877-7.67 8.134zm319.646-258.785c-75.794 0-129.146 14.202-173.082 33.794-.153-.009-.303-.023-.456-.023H8.173a8.17 8.17 0 0 0 0 16.34h289.805c-16.043 8.769-31.116 18.038-46.06 27.234H73.534a8.17 8.17 0 0 0 0 16.34h151.481C170.92 286.363 112.5 313.194 8.173 313.194a8.17 8.17 0 0 0 0 16.34c126.227 0 190.222-39.381 252.11-77.466 62.711-38.591 121.944-75.043 243.545-75.043a8.171 8.171 0 0 0 0-16.341z"/><path d="M40.853 238.028H8.173a8.17 8.17 0 0 0 0 16.34h32.681a8.17 8.17 0 1 0-.001-16.34z"/></svg>