<svg xmlns="http://www.w3.org/2000/svg" viewBox="0 0 512 512"><path d="M503.83 158.071H8.17a8.17 8.17 0 0 0 0 16.34h495.66a8.17 8.17 0 0 0 0-16.34zm0 130.723H351.319a8.17 8.17 0 0 0 0 16.34H503.83a8.17 8.17 0 0 0 0-16.34zM384 223.432H106.213a8.17 8.17 0 0 0 0 16.34H384a8.17 8.17 0 0 0 0-16.34zm-65.362 65.362h-32.681a8.17 8.17 0 0 0 0 16.34h32.681a8.17 8.17 0 0 0 0-16.34zm185.192 32.681H384a8.17 8.17 0 0 0 0 16.34h119.83a8.17 8.17 0 0 0 0-16.34zm-32.681 130.723H324.085a8.17 8.17 0 0 0 0 16.34h147.064a8.17 8.17 0 0 0 0-16.34zM384 190.752H8.17a8.17 8.17 0 0 0 0 16.34H384a8.17 8.17 0 0 0 0-16.34zm119.83 0h-87.149a8.17 8.17 0 0 0 0 16.34h87.149a8.17 8.17 0 0 0 0-16.34z"/><path d="M503.83 354.156H258.723c-31.536 0-57.191-25.656-57.191-57.192 0-22.526-18.325-40.851-40.851-40.851H8.17a8.17 8.17 0 0 0 0 16.34h152.511c13.516 0 24.511 10.995 24.511 24.511 0 40.546 32.986 73.532 73.532 73.532H503.83a8.17 8.17 0 0 0 0-16.34zm.006 32.567l-157.964-.136c-13.688 0-25.26 9.227-28.824 21.787H204.255a8.17 8.17 0 0 0 0 16.34h119.83a8.17 8.17 0 0 0 8.17-8.17c0-7.509 6.108-13.617 13.61-13.617l157.957.136a8.17 8.17 0 1 0 .014-16.34zM73.532 223.432H8.17a8.17 8.17 0 0 0 0 16.34h65.362a8.17 8.17 0 0 0 0-16.34zm98.042 141.617a8.17 8.17 0 0 0-8.17 8.17v35.155h-49.021V373.22a8.17 8.17 0 0 0-16.34 0v35.155h-16.34V373.22a8.17 8.17 0 0 0-16.34 0v35.155h-16.34V373.22a8.17 8.17 0 0 0-16.34 0v35.155H8.17a8.17 8.17 0 0 0 0 16.34h24.511v79.115a8.17 8.17 0 0 0 16.34 0v-79.115h16.34v79.115a8.17 8.17 0 0 0 16.34 0v-79.115h16.34v79.115a8.17 8.17 0 0 0 16.34 0v-79.115h49.021v79.115a8.17 8.17 0 0 0 16.34 0V373.22a8.167 8.167 0 0 0-8.168-8.171zm119.83 87.149h-87.149a8.17 8.17 0 0 0 0 16.34h87.149a8.17 8.17 0 0 0 0-16.34zM476.596 70.922h-128c-19.521 0-35.404 15.883-35.404 35.404s15.883 35.404 35.404 35.404h128c19.521 0 35.404-15.883 35.404-35.404s-15.883-35.404-35.404-35.404zm0 54.468h-128c-10.511 0-19.064-8.553-19.064-19.064s8.553-19.064 19.064-19.064h128c10.511 0 19.064 8.553 19.064 19.064s-8.553 19.064-19.064 19.064zM272.34 27.234h-55.42C213.223 11.638 199.179 0 182.468 0H35.404C15.883 0 0 15.883 0 35.404c0 19.521 15.883 35.404 35.404 35.404h55.42c3.697 15.596 17.741 27.234 34.452 27.234h92.596a8.17 8.17 0 0 0 0-16.34h-92.596c-10.511 0-19.064-8.553-19.064-19.064a8.17 8.17 0 0 0-8.17-8.17H35.404c-10.511 0-19.064-8.553-19.064-19.064S24.893 16.34 35.404 16.34h147.064c10.511 0 19.064 8.553 19.064 19.064a8.17 8.17 0 0 0 8.17 8.17h62.638c10.511 0 19.064 8.553 19.064 19.064s-8.553 19.064-19.064 19.064h-21.787a8.17 8.17 0 0 0 0 16.34h21.787c19.521 0 35.404-15.883 35.404-35.404s-15.882-35.404-35.404-35.404z"/></svg>