<svg xmlns="http://www.w3.org/2000/svg" viewBox="0 0 512 512"><path d="M390.536 49.021c-31.535 0-57.192 25.657-57.192 57.191s25.657 57.191 57.192 57.191 57.191-25.657 57.191-57.191-25.656-57.191-57.191-57.191zm0 98.043c-22.526 0-40.851-18.325-40.851-40.851s18.325-40.851 40.851-40.851 40.851 18.325 40.851 40.851-18.325 40.851-40.851 40.851z"/><path d="M390.536 16.34c-19.615 0-38.252 6.209-53.897 17.957-15.119 11.353-26.489 27.516-32.014 45.508a8.173 8.173 0 0 0 5.413 10.21c4.311 1.32 8.883-1.099 10.208-5.413 9.535-31.055 37.783-51.921 70.29-51.921 40.546 0 73.532 32.986 73.532 73.532a73.459 73.459 0 0 1-9.731 36.539 8.169 8.169 0 0 0 3.015 11.153 8.167 8.167 0 0 0 11.154-3.016 89.81 89.81 0 0 0 11.902-44.677c.001-49.554-40.317-89.872-89.872-89.872zM503.83 264.17h-32.458l-5.484-75.406a8.173 8.173 0 0 0-2.372-5.185l-21.787-21.787a8.18 8.18 0 0 0-9.197-1.643l-42.483 19.586c-28.99-.19-55.004-17.264-66.742-43.723l-1.075-14.788a8.177 8.177 0 0 0-3.807-6.329l-52.091-32.681a8.17 8.17 0 0 0-11.65 3.267l-30.589 61.177c-19.952 2.548-36.501 19.443-37.984 39.84l-5.648 77.67h-41.345l-5.484-75.406a8.17 8.17 0 0 0-4.729-6.828l-47.259-21.787a8.172 8.172 0 0 0-9.197 1.643l-21.787 21.787a8.178 8.178 0 0 0-2.372 5.185l-5.484 75.406H8.17c-4.513 0-8.17 3.657-8.17 8.17s3.657 8.17 8.17 8.17h33.448l-7.826 107.607a8.17 8.17 0 0 0 8.149 8.763h98.043a8.172 8.172 0 0 0 8.149-8.763l-7.826-107.607h38.968l-12.579 172.97a8.17 8.17 0 0 0 8.149 8.763h163.404a8.168 8.168 0 0 0 8.149-8.763l-12.579-172.969h40.057l-7.826 107.607a8.17 8.17 0 0 0 8.149 8.763h98.064a8.169 8.169 0 0 0 8.083-9.37l-7.782-107h31.269a8.169 8.169 0 1 0-.003-16.339zM50.726 380.54l13.64-187.557 15.611-15.609 37.708 17.384 13.51 185.782H50.726zm132.902 65.362l18.779-258.217c.985-13.56 13.305-25.017 26.902-25.017a8.167 8.167 0 0 0 7.307-4.516l28.656-57.311 40.961 25.698.882 12.13c.005.063.008.126.014.191l22.331 307.043H183.628zM375.061 264.17h-42.433l-6.961-95.714a89.67 89.67 0 0 0 54.39 27.015l-4.996 68.699zm7.92 116.37l13.51-185.782 37.708-17.384 15.611 15.609 13.64 187.557h-80.469z"/><path d="M142.162 435.745a8.169 8.169 0 0 0-8.17 8.17v10.894a8.169 8.169 0 0 0 8.17 8.17 8.169 8.169 0 0 0 8.17-8.17v-10.894a8.169 8.169 0 0 0-8.17-8.17zm228.766 0a8.169 8.169 0 0 0-8.17 8.17v10.894c0 4.513 3.657 8.17 8.17 8.17s8.17-3.657 8.17-8.17v-10.894a8.169 8.169 0 0 0-8.17-8.17zm67.54 32.681a8.169 8.169 0 0 0-8.17 8.17v10.894c0 4.513 3.657 8.17 8.17 8.17s8.17-3.657 8.17-8.17v-10.894a8.169 8.169 0 0 0-8.17-8.17zm-328.987 0a8.169 8.169 0 0 0-8.17 8.17v10.894a8.169 8.169 0 0 0 8.17 8.17 8.169 8.169 0 0 0 8.17-8.17v-10.894a8.169 8.169 0 0 0-8.17-8.17z"/><circle cx="423.217" cy="315.174" r="8.17"/><circle cx="272.885" cy="380.536" r="8.17"/><circle cx="240.204" cy="413.217" r="8.17"/></svg>