<svg xmlns="http://www.w3.org/2000/svg" viewBox="0 0 511.999 511.999"><path d="M503.828 348.595H8.171a8.17 8.17 0 0 0-8.17 8.17 8.17 8.17 0 0 0 8.17 8.17h495.657a8.17 8.17 0 0 0 8.17-8.17 8.169 8.169 0 0 0-8.17-8.17zm0 32.68H8.171a8.17 8.17 0 0 0-8.17 8.17 8.17 8.17 0 0 0 8.17 8.17h495.657a8.17 8.17 0 0 0 8.17-8.17 8.169 8.169 0 0 0-8.17-8.17zm-87.148 32.681H8.171a8.17 8.17 0 0 0-8.17 8.17 8.17 8.17 0 0 0 8.17 8.17H416.68a8.17 8.17 0 0 0 0-16.34zm87.148 32.681H226.042a8.17 8.17 0 0 0-8.17 8.17 8.17 8.17 0 0 0 8.17 8.17h277.786a8.17 8.17 0 0 0 8.17-8.17 8.169 8.169 0 0 0-8.17-8.17zm-310.466 0H95.32a8.17 8.17 0 0 0-8.17 8.17 8.17 8.17 0 0 0 8.17 8.17h98.042a8.17 8.17 0 0 0 0-16.34zm310.466 32.68h-98.042a8.17 8.17 0 0 0-8.17 8.17 8.17 8.17 0 0 0 8.17 8.17h98.042a8.17 8.17 0 0 0 8.17-8.17 8.17 8.17 0 0 0-8.17-8.17zm-84.712-237.48a8.171 8.171 0 0 0-11.555 0l-8.959 8.959-32.35-32.35a8.17 8.17 0 0 0-11.555 0l-32.35 32.351-8.962-8.961a8.168 8.168 0 0 0-11.554 0 8.168 8.168 0 0 0 .001 11.554l14.738 14.738a8.14 8.14 0 0 0 5.777 2.393c2.09 0 4.182-.797 5.778-2.393l32.349-32.351 32.35 32.351a8.168 8.168 0 0 0 11.556 0l14.736-14.737a8.17 8.17 0 0 0 0-11.554zm-208.951.003a8.17 8.17 0 0 0-11.555 0l-8.96 8.96-32.35-32.351a8.17 8.17 0 0 0-11.555 0l-32.35 32.35-8.96-8.96a8.168 8.168 0 0 0-11.554 0 8.168 8.168 0 0 0-.001 11.554l14.737 14.738a8.168 8.168 0 0 0 11.556 0l32.35-32.351 32.35 32.351a8.17 8.17 0 0 0 11.555 0l14.737-14.737a8.17 8.17 0 0 0 0-11.554z"/><path d="M510.617 319.539L367.266 105.298a8.17 8.17 0 0 0-13.58 0l-97.687 145.993-97.686-145.99a8.171 8.171 0 0 0-13.58 0L1.381 319.54a8.17 8.17 0 1 0 13.58 9.087l136.561-204.092 94.644 141.446-35.836 53.555a8.17 8.17 0 0 0 13.581 9.087l38.836-58.039c.045-.065.089-.13.131-.196l97.596-145.857 136.563 204.095a8.16 8.16 0 0 0 6.798 3.628 8.172 8.172 0 0 0 6.782-12.715z"/><path d="M256 16.341c-31.535 0-57.191 25.655-57.191 57.191s25.656 57.191 57.191 57.191 57.191-25.655 57.191-57.191S287.534 16.341 256 16.341zm0 98.042c-22.526 0-40.851-18.325-40.851-40.851S233.474 32.681 256 32.681s40.851 18.325 40.851 40.851-18.326 40.851-40.851 40.851z"/></svg>