<svg xmlns="http://www.w3.org/2000/svg" viewBox="0 0 511.999 511.999"><path d="M368.078 286.256l26.815-40.076 102.146 152.657a8.16 8.16 0 0 0 6.798 3.628 8.17 8.17 0 0 0 6.783-12.715L401.683 226.945a8.17 8.17 0 0 0-13.58 0l-29.855 44.619-95.457-142.661a8.17 8.17 0 0 0-13.58 0l-95.459 142.661-29.855-44.619a8.169 8.169 0 0 0-13.58 0L1.382 389.75a8.17 8.17 0 0 0 13.581 9.087l102.145-152.656 26.815 40.075L1.38 499.284a8.17 8.17 0 0 0 13.581 9.087L256 148.137l95.4 142.577c.014.023.031.045.045.068l145.593 217.589a8.16 8.16 0 0 0 6.798 3.628 8.17 8.17 0 0 0 6.783-12.715L368.078 286.256z"/><path d="M390.845 379.331a8.17 8.17 0 0 0-11.555 0l-8.909 8.909-32.35-32.349a8.17 8.17 0 0 0-11.555 0l-32.35 32.351-32.35-32.351a8.171 8.171 0 0 0-11.555 0l-32.351 32.351-32.351-32.351a8.17 8.17 0 0 0-11.554 0l-32.351 32.351-8.91-8.91a8.17 8.17 0 0 0-11.554 0 8.17 8.17 0 0 0 0 11.554l14.687 14.687a8.17 8.17 0 0 0 11.554 0l32.351-32.351 32.351 32.351a8.17 8.17 0 0 0 11.554 0L256 373.221l32.35 32.351a8.15 8.15 0 0 0 5.778 2.393c2.09 0 4.182-.797 5.778-2.393l32.35-32.351 32.35 32.351a8.168 8.168 0 0 0 11.556 0l14.686-14.687a8.17 8.17 0 0 0-.003-11.554zM394.893.001h-168.85a8.17 8.17 0 0 0 0 16.34h168.85c10.511 0 19.064 8.553 19.064 19.064s-8.553 19.064-19.064 19.064H256a8.17 8.17 0 0 0-8.17 8.17c0 10.511-8.553 19.064-19.064 19.064H35.405c-10.511 0-19.064-8.553-19.064-19.064s8.551-19.064 19.064-19.064h108.936a8.17 8.17 0 0 0 8.17-8.17c0-10.511 8.552-19.064 19.064-19.064h21.787a8.17 8.17 0 0 0 0-16.34h-21.787c-16.711 0-30.755 11.638-34.452 27.234H35.405C15.884 27.235.001 43.118.001 62.639c0 19.521 15.882 35.404 35.404 35.404h193.361c16.711 0 30.755-11.638 34.453-27.234h131.674c19.522 0 35.404-15.883 35.404-35.404 0-19.522-15.881-35.404-35.404-35.404zm81.702 92.595H362.213c-19.522 0-35.404 15.883-35.404 35.404s15.882 35.404 35.404 35.404h114.383C496.118 163.404 512 147.521 512 128s-15.883-35.404-35.405-35.404zm0 54.468H362.213c-10.511 0-19.064-8.552-19.064-19.064s8.553-19.064 19.064-19.064h114.383c10.511 0 19.064 8.552 19.064 19.064s-8.554 19.064-19.065 19.064zM108.937 446.092a8.17 8.17 0 0 0-8.17 8.17v10.894a8.17 8.17 0 0 0 16.34 0v-10.894a8.17 8.17 0 0 0-8.17-8.17zm294.126 0a8.17 8.17 0 0 0-8.17 8.17v10.894a8.17 8.17 0 0 0 8.17 8.17 8.17 8.17 0 0 0 8.17-8.17v-10.894a8.169 8.169 0 0 0-8.17-8.17zm-223.318-21.787a8.17 8.17 0 0 0-8.17 8.17v10.894a8.17 8.17 0 0 0 16.34 0v-10.894a8.17 8.17 0 0 0-8.17-8.17z"/></svg>