<svg xmlns="http://www.w3.org/2000/svg" viewBox="0 0 512 512"><path d="M165.038 370.926h-16.34c-4.512 0-8.17 3.657-8.17 8.17s3.658 8.17 8.17 8.17h16.34c4.512 0 8.17-3.657 8.17-8.17s-3.658-8.17-8.17-8.17zm247.828 98.042h-16.34a8.17 8.17 0 0 0-8.17 8.17 8.17 8.17 0 0 0 8.17 8.17h16.34a8.17 8.17 0 0 0 8.17-8.17 8.17 8.17 0 0 0-8.17-8.17zm49.566-32.68h-16.34c-4.512 0-8.17 3.657-8.17 8.17s3.658 8.17 8.17 8.17h16.34c4.512 0 8.17-3.657 8.17-8.17s-3.658-8.17-8.17-8.17zm-99.131-32.681h-16.34a8.17 8.17 0 0 0-8.17 8.17 8.17 8.17 0 0 0 8.17 8.17h16.34a8.17 8.17 0 0 0 8.17-8.17 8.17 8.17 0 0 0-8.17-8.17zm-297.394 0h-16.34a8.17 8.17 0 0 0-8.17 8.17 8.17 8.17 0 0 0 8.17 8.17h16.34a8.17 8.17 0 0 0 8.17-8.17 8.17 8.17 0 0 0-8.17-8.17zM255.999 26.691c-31.536 0-57.191 25.656-57.191 57.191 0 31.535 25.655 57.191 57.191 57.191s57.191-25.656 57.191-57.191c0-31.535-25.655-57.191-57.191-57.191zm0 98.042c-22.526 0-40.851-18.325-40.851-40.851s18.325-40.851 40.851-40.851 40.851 18.325 40.851 40.851-18.325 40.851-40.851 40.851zm220.05-1.423c-8.146 0-15.908 3.133-21.787 8.464-5.879-5.331-13.641-8.464-21.787-8.464a8.17 8.17 0 0 0-8.17 8.17 8.17 8.17 0 0 0 8.17 8.17c6.196 0 11.728 3.467 14.437 9.047a8.17 8.17 0 0 0 14.7 0c2.71-5.58 8.242-9.047 14.437-9.047a8.17 8.17 0 0 0 8.17-8.17 8.17 8.17 0 0 0-8.17-8.17zm-297.394 92.656c-8.146 0-15.908 3.133-21.787 8.463-5.879-5.33-13.641-8.463-21.787-8.463a8.17 8.17 0 0 0-8.17 8.17 8.17 8.17 0 0 0 8.17 8.17c6.196 0 11.728 3.466 14.437 9.046a8.17 8.17 0 0 0 14.7 0c2.709-5.58 8.242-9.046 14.437-9.046a8.17 8.17 0 0 0 8.17-8.17 8.17 8.17 0 0 0-8.17-8.17zm198.263-46.328c-8.146 0-15.908 3.133-21.787 8.463-5.879-5.33-13.641-8.463-21.787-8.463-4.512 0-8.17 3.657-8.17 8.17s3.658 8.17 8.17 8.17c6.196 0 11.728 3.466 14.437 9.046a8.17 8.17 0 0 0 14.7 0c2.709-5.58 8.242-9.046 14.437-9.046 4.512 0 8.17-3.657 8.17-8.17s-3.658-8.17-8.17-8.17zM507.396 275.34a8.167 8.167 0 0 0-10.919 3.78c-7.921 16.313-24.098 26.445-42.216 26.445s-34.294-10.133-42.216-26.445a8.172 8.172 0 0 0-14.7 0c-7.922 16.313-24.099 26.445-42.216 26.445s-34.294-10.133-42.216-26.445a8.172 8.172 0 0 0-14.7 0c-7.922 16.313-24.099 26.445-42.216 26.445s-34.294-10.133-42.216-26.445a8.172 8.172 0 0 0-14.7 0c-7.922 16.313-24.099 26.445-42.216 26.445s-34.294-10.133-42.216-26.445a8.172 8.172 0 0 0-14.7 0c-7.922 16.313-24.099 26.445-42.216 26.445-18.118 0-34.295-10.133-42.216-26.445a8.171 8.171 0 0 0-14.699 7.138c10.516 21.655 32.857 35.648 56.915 35.648 19.409 0 37.699-9.106 49.566-23.996 11.866 14.89 30.156 23.996 49.565 23.996s37.699-9.106 49.566-23.996c11.866 14.89 30.157 23.996 49.566 23.996s37.699-9.106 49.566-23.996c11.866 14.89 30.157 23.996 49.566 23.996 19.409 0 37.699-9.106 49.565-23.996 11.866 14.89 30.157 23.996 49.566 23.996 24.058 0 46.399-13.993 56.915-35.648a8.166 8.166 0 0 0-3.778-10.918z"/></svg>