<svg xmlns="http://www.w3.org/2000/svg" viewBox="0 0 511.999 511.999"><path d="M255.999 191.454H114.384v-16.34h8.17a8.17 8.17 0 0 0 8.17-8.17 8.17 8.17 0 0 0-8.17-8.17h-16.34a8.17 8.17 0 0 0-8.17 8.17v24.51H49.022v-16.34h8.17a8.17 8.17 0 0 0 8.17-8.17 8.17 8.17 0 0 0-8.17-8.17h-16.34a8.17 8.17 0 0 0-8.17 8.17v24.51H8.172c-4.512 0-8.17 3.657-8.17 8.17s3.658 8.17 8.17 8.17H247.83v78.978c0 4.513 3.658 8.17 8.17 8.17s8.17-3.657 8.17-8.17v-87.148a8.17 8.17 0 0 0-8.171-8.17zm0-159.045c-31.536 0-57.191 25.656-57.191 57.191 0 31.535 25.655 57.191 57.191 57.191S313.19 121.134 313.19 89.6c0-31.535-25.655-57.191-57.191-57.191zm0 98.042c-22.526 0-40.851-18.325-40.851-40.851s18.325-40.851 40.851-40.851S296.85 67.074 296.85 89.6s-18.325 40.851-40.851 40.851z"/><path d="M507.396 281.058a8.166 8.166 0 0 0-10.919 3.78c-7.9 16.269-24.014 26.387-42.074 26.441l-92.204-159.054a8.17 8.17 0 0 0-15.239 4.098v154.232c-14.708-2.553-27.339-11.907-34.046-25.716a8.17 8.17 0 0 0-14.7 0c-7.922 16.313-24.099 26.445-42.216 26.445s-34.294-10.133-42.216-26.445a8.17 8.17 0 0 0-14.7 0c-7.922 16.313-24.099 26.445-42.216 26.445s-34.294-10.133-42.216-26.445a8.17 8.17 0 0 0-14.7 0c-7.922 16.313-24.099 26.445-42.216 26.445-18.118 0-34.295-10.133-42.216-26.445a8.17 8.17 0 1 0-14.699 7.138c10.516 21.655 32.857 35.648 56.915 35.648 19.409 0 37.699-9.106 49.566-23.996 11.866 14.89 30.157 23.996 49.566 23.996s37.699-9.106 49.566-23.996c11.866 14.89 30.156 23.996 49.565 23.996s37.699-9.106 49.566-23.996c10.183 12.778 25.103 21.277 41.395 23.437v60.474H235.303a8.171 8.171 0 0 0-7.492 11.429l27.945 64.275c-7.752-.04-15.412-1.999-22.168-5.683a8.168 8.168 0 0 0-11.084 3.26 8.169 8.169 0 0 0 3.262 11.084c9.219 5.028 19.675 7.686 30.236 7.686 4.223 0 8.388-.455 12.45-1.284a8.216 8.216 0 0 0 1.731-.354 63.965 63.965 0 0 0 35.384-22.358c11.866 14.89 30.157 23.996 49.566 23.996s37.699-9.106 49.566-23.996a63.968 63.968 0 0 0 35.389 22.359c.576.186 1.16.303 1.743.357 4.058.826 8.216 1.28 12.433 1.28 10.56 0 21.015-2.657 30.235-7.684a8.17 8.17 0 1 0-7.821-14.347c-6.756 3.683-14.417 5.642-22.168 5.683l27.945-64.275a8.172 8.172 0 0 0-7.492-11.429H363.301V186.706l79.116 136.476.097.167 18.265 31.507h-72.968c-4.512 0-8.17 3.657-8.17 8.17s3.658 8.17 8.17 8.17h87.148a8.17 8.17 0 0 0 7.069-12.269l-18.549-31.997c20.417-3.057 38.541-16.098 47.698-34.956a8.168 8.168 0 0 0-3.781-10.916zm-44.898 122.819l-24.557 56.483c-11.154-4.101-20.465-12.376-25.895-23.558a8.172 8.172 0 0 0-14.7 0c-7.922 16.313-24.099 26.445-42.216 26.445s-34.294-10.133-42.216-26.445a8.172 8.172 0 0 0-14.7 0c-5.43 11.182-14.741 19.457-25.895 23.558l-24.557-56.483h214.736z"/><path d="M165.038 376.644h-16.34c-4.512 0-8.17 3.657-8.17 8.17s3.658 8.17 8.17 8.17h16.34c4.512 0 8.17-3.657 8.17-8.17s-3.657-8.17-8.17-8.17zm-99.131 32.681h-16.34c-4.512 0-8.17 3.657-8.17 8.17s3.658 8.17 8.17 8.17h16.34c4.512 0 8.17-3.657 8.17-8.17s-3.658-8.17-8.17-8.17z"/></svg>