<svg xmlns="http://www.w3.org/2000/svg" viewBox="0 0 512 512"><path d="M435.907 65.766H267.414c-4.504 0-8.153 3.649-8.153 8.153s3.649 8.153 8.153 8.153h168.493c10.489 0 19.023 8.534 19.023 19.023 0 10.489-8.534 19.023-19.023 19.023H297.308a8.151 8.151 0 0 0-8.153 8.153c0 10.489-8.534 19.023-19.023 19.023H77.18c-10.489 0-19.023-8.534-19.023-19.023 0-10.489 8.534-19.023 19.023-19.023h108.705a8.152 8.152 0 0 0 8.153-8.153c0-10.489 8.534-19.023 19.023-19.023h21.741a8.152 8.152 0 0 0 8.153-8.153 8.152 8.152 0 0 0-8.153-8.153h-21.741c-16.675 0-30.69 11.613-34.379 27.176H77.18c-19.48 0-35.329 15.848-35.329 35.329S57.7 163.6 77.18 163.6h192.951c16.675 0 30.69-11.613 34.38-27.176h131.395c19.481 0 35.329-15.848 35.329-35.329.001-19.48-15.847-35.329-35.328-35.329zm40.764 92.4h-114.14c-19.481 0-35.329 15.848-35.329 35.329s15.848 35.329 35.329 35.329h114.14c19.481 0 35.329-15.848 35.329-35.329s-15.848-35.329-35.329-35.329zm0 54.352h-114.14c-10.489 0-19.023-8.534-19.023-19.023s8.534-19.023 19.023-19.023h114.14c10.489 0 19.023 8.534 19.023 19.023s-8.534 19.023-19.023 19.023zM150.556.544H36.416c-19.48 0-35.329 15.848-35.329 35.329s15.849 35.329 35.329 35.329h114.14c19.48 0 35.329-15.848 35.329-35.329S170.036.544 150.556.544zm0 54.352H36.416c-10.489 0-19.023-8.534-19.023-19.023S25.927 16.85 36.416 16.85h114.14c10.489 0 19.023 8.534 19.023 19.023s-8.534 19.023-19.023 19.023zM502.76 247.847H336.985v-2.718c0-4.504-3.649-8.153-8.153-8.153s-8.153 3.649-8.153 8.153v2.718h-38.047v-2.718c0-4.504-3.649-8.153-8.153-8.153s-8.153 3.649-8.153 8.153v2.718H81.529v-2.718c0-4.504-3.65-8.153-8.153-8.153s-8.153 3.649-8.153 8.153v2.718H48.917v-2.718c0-4.504-3.65-8.153-8.153-8.153s-8.153 3.649-8.153 8.153v2.718H8.153C3.65 247.847 0 251.496 0 256s3.65 8.153 8.153 8.153H502.76c4.504 0 8.153-3.649 8.153-8.153s-3.649-8.153-8.153-8.153zM40.764 356.552a8.152 8.152 0 0 0-8.153 8.153v10.87c0 4.504 3.65 8.153 8.153 8.153s8.153-3.649 8.153-8.153v-10.87a8.152 8.152 0 0 0-8.153-8.153zm298.939 29.894a8.151 8.151 0 0 0-8.153 8.153v10.87a8.151 8.151 0 0 0 8.153 8.153 8.151 8.151 0 0 0 8.153-8.153v-10.87a8.152 8.152 0 0 0-8.153-8.153zm-32.612 32.611a8.151 8.151 0 0 0-8.153 8.153v10.87c0 4.504 3.649 8.153 8.153 8.153s8.153-3.649 8.153-8.153v-10.87a8.152 8.152 0 0 0-8.153-8.153zm65.223-105.987a8.151 8.151 0 0 0-8.153 8.153v10.87a8.151 8.151 0 0 0 8.153 8.153 8.151 8.151 0 0 0 8.153-8.153v-10.87a8.151 8.151 0 0 0-8.153-8.153zm97.835 32.612a8.151 8.151 0 0 0-8.153 8.153v10.87a8.151 8.151 0 0 0 8.153 8.153 8.151 8.151 0 0 0 8.153-8.153v-10.87a8.152 8.152 0 0 0-8.153-8.153zM171.21 313.07a8.152 8.152 0 0 0-8.153 8.153v10.87c0 4.504 3.65 8.153 8.153 8.153s8.153-3.649 8.153-8.153v-10.87a8.152 8.152 0 0 0-8.153-8.153zm65.223 32.612a8.152 8.152 0 0 0-8.153 8.153v10.87a8.152 8.152 0 0 0 8.153 8.153 8.152 8.152 0 0 0 8.153-8.153v-10.87a8.152 8.152 0 0 0-8.153-8.153zm0 138.598a8.152 8.152 0 0 0-8.153 8.153v10.87a8.152 8.152 0 0 0 8.153 8.153 8.152 8.152 0 0 0 8.153-8.153v-10.87a8.153 8.153 0 0 0-8.153-8.153zm-32.611-203.821a8.152 8.152 0 0 0-8.153 8.153v10.871c0 4.504 3.65 8.153 8.153 8.153s8.153-3.649 8.153-8.153v-10.871a8.153 8.153 0 0 0-8.153-8.153zm201.104 171.21a8.151 8.151 0 0 0-8.153 8.153v10.87c0 4.504 3.649 8.153 8.153 8.153s8.153-3.649 8.153-8.153v-10.87a8.152 8.152 0 0 0-8.153-8.153z"/></svg>