<svg xmlns="http://www.w3.org/2000/svg" viewBox="0 0 512 512"><path d="M503.83 287.32h-61.157V173.759c18.624 3.795 32.681 20.3 32.681 40.029a8.17 8.17 0 0 0 16.34 0c0-23.967-14.826-44.525-35.783-53.018a40.866 40.866 0 0 1 13.254-2.203c10.904 0 21.163 4.253 28.887 11.976a8.145 8.145 0 0 0 5.777 2.393 8.14 8.14 0 0 0 5.777-2.393 8.17 8.17 0 0 0 0-11.554c-10.81-10.81-25.172-16.763-40.44-16.763-7.78 0-15.322 1.552-22.281 4.498 6.674-13.499 20.587-22.809 36.638-22.809a8.17 8.17 0 0 0 0-16.34c-20.779 0-39.005 11.14-49.021 27.758-10.017-16.618-28.243-27.758-49.021-27.758a8.17 8.17 0 0 0 0 16.34c16.052 0 29.964 9.31 36.638 22.809-6.959-2.946-14.5-4.498-22.281-4.498-15.268 0-29.631 5.953-40.44 16.763a8.17 8.17 0 0 0 0 11.554 8.17 8.17 0 0 0 11.554 0c7.724-7.724 17.982-11.976 28.887-11.976 4.58 0 9.043.759 13.254 2.203-20.957 8.494-35.783 29.051-35.783 53.018a8.17 8.17 0 0 0 16.34 0c0-19.728 14.057-36.233 32.681-40.029V287.32H271.34V173.759c18.624 3.795 32.681 20.3 32.681 40.029a8.17 8.17 0 0 0 16.34 0c0-23.967-14.826-44.525-35.783-53.018a40.866 40.866 0 0 1 13.254-2.203c10.905 0 21.163 4.253 28.887 11.976a8.145 8.145 0 0 0 5.777 2.393c2.09 0 4.182-.797 5.777-2.393a8.17 8.17 0 0 0 0-11.554c-10.81-10.81-25.172-16.763-40.44-16.763-7.78 0-15.322 1.552-22.281 4.498 6.675-13.499 20.587-22.809 36.639-22.809a8.17 8.17 0 0 0 0-16.34c-20.779 0-39.005 11.14-49.021 27.758-10.017-16.618-28.243-27.758-49.021-27.758a8.17 8.17 0 0 0 0 16.34c16.052 0 29.964 9.31 36.638 22.809-6.959-2.946-14.5-4.498-22.281-4.498-15.268 0-29.631 5.953-40.44 16.763a8.17 8.17 0 0 0 0 11.554 8.17 8.17 0 0 0 11.554 0c7.724-7.724 17.982-11.976 28.887-11.976 4.58 0 9.043.759 13.254 2.203-20.957 8.494-35.783 29.051-35.783 53.018a8.17 8.17 0 0 0 16.34 0c0-19.728 14.057-36.233 32.681-40.029V287.32H78.662L214.198 50.132c7.514-13.15 26.658-24.259 41.802-24.259h247.83a8.17 8.17 0 0 0 0-16.34H256c-20.984 0-45.578 14.272-55.989 32.491L59.842 287.32H22.25l79.508-139.141c5.45-9.537 17.592-18.529 30.214-22.374a8.17 8.17 0 0 0-4.761-15.631c-16.59 5.054-32.148 16.789-39.639 29.898L1.077 291.436a8.168 8.168 0 0 0 7.094 12.224h495.66a8.17 8.17 0 1 0-.001-16.34zm0 32.681H8.171a8.17 8.17 0 0 0 0 16.34h495.66a8.17 8.17 0 1 0-.001-16.34zm-87.149 32.68H8.171a8.17 8.17 0 0 0 0 16.34h408.511a8.17 8.17 0 1 0-.001-16.34zm87.149 32.681H226.043a8.17 8.17 0 0 0 0 16.34H503.83a8.17 8.17 0 0 0 0-16.34zm-310.468 0H95.32a8.17 8.17 0 0 0 0 16.34h98.043a8.17 8.17 0 1 0-.001-16.34zm-87.149 32.682H8.171a8.17 8.17 0 0 0 0 16.34h98.043a8.17 8.17 0 1 0-.001-16.34zm397.617-.001H256c-22.526 0-40.851 18.325-40.851 40.851 0 13.516-10.995 24.511-24.511 24.511H8.171a8.17 8.17 0 0 0 0 16.34h182.468c22.526 0 40.851-18.325 40.851-40.851 0-13.516 10.995-24.511 24.511-24.511h247.83a8.17 8.17 0 1 0-.001-16.34z"/><circle cx="397.617" cy="461.617" r="8.17"/><circle cx="430.298" cy="494.298" r="8.17"/></svg>