<svg xmlns="http://www.w3.org/2000/svg" viewBox="0 0 512 512"><path d="M503.83 473.872H8.17a8.17 8.17 0 0 0 0 16.34h495.66a8.17 8.17 0 0 0 0-16.34zM149.787 375.83h-14.439c-3.795-18.624-20.3-32.681-40.029-32.681H73.532c-19.728 0-36.233 14.057-40.029 32.681H8.17a8.17 8.17 0 0 0 0 16.34h141.617a8.17 8.17 0 0 0 0-16.34zm-99.36 0c3.373-9.509 12.454-16.34 23.105-16.34h21.787c10.652 0 19.733 6.831 23.105 16.34H50.427zm453.403 0h-25.333c-3.795-18.624-20.3-32.681-40.029-32.681h-21.787c-19.728 0-36.233 14.057-40.029 32.681h-25.333a8.17 8.17 0 0 0 0 16.34H503.83a8.17 8.17 0 0 0 0-16.34zm-110.255 0c3.373-9.509 12.454-16.34 23.105-16.34h21.787c10.652 0 19.733 6.831 23.105 16.34h-67.997zm-69.49 65.361h-32.681a8.17 8.17 0 0 0 0 16.34h32.681a8.17 8.17 0 0 0 0-16.34zm43.575 0h-10.894a8.17 8.17 0 0 0 0 16.34h10.894a8.17 8.17 0 0 0 0-16.34zm136.17 0h-32.681a8.17 8.17 0 0 0 0 16.34h32.681a8.17 8.17 0 0 0 0-16.34zM318.638 375.83h-32.681a8.17 8.17 0 0 0 0 16.34h32.681a8.17 8.17 0 0 0 0-16.34zM40.851 408.511H8.17a8.17 8.17 0 0 0 0 16.34h32.681a8.17 8.17 0 0 0 0-16.34zm179.745-65.362h-10.894a8.17 8.17 0 0 0 0 16.34h10.894a8.17 8.17 0 0 0 0-16.34zm65.361 0h-32.681a8.17 8.17 0 0 0 0 16.34h32.681a8.17 8.17 0 0 0 0-16.34zm185.192-65.362h-39.37v-24.511a8.17 8.17 0 0 0-16.34 0v24.511h-16.34V175.12c18.624 3.795 32.681 20.3 32.681 40.029a8.17 8.17 0 0 0 16.34 0c0-23.967-14.826-44.525-35.783-53.018a40.866 40.866 0 0 1 13.254-2.203c10.905 0 21.163 4.253 28.887 11.976a8.145 8.145 0 0 0 5.777 2.393 8.14 8.14 0 0 0 5.777-2.393 8.17 8.17 0 0 0 0-11.554c-10.81-10.81-25.172-16.763-40.44-16.763-7.78 0-15.322 1.552-22.281 4.498 6.676-13.499 20.588-22.809 36.64-22.809a8.17 8.17 0 0 0 0-16.34c-20.778 0-39.005 11.14-49.021 27.758-10.017-16.618-28.243-27.758-49.021-27.758a8.17 8.17 0 0 0 0 16.34c16.052 0 29.964 9.31 36.638 22.809-6.959-2.946-14.5-4.498-22.281-4.498-15.268 0-29.631 5.953-40.44 16.763a8.17 8.17 0 0 0 0 11.554 8.17 8.17 0 0 0 11.554 0c7.724-7.724 17.982-11.976 28.887-11.976 4.58 0 9.043.759 13.254 2.203-20.957 8.494-35.783 29.051-35.783 53.018a8.17 8.17 0 0 0 16.34 0c0-19.728 14.057-36.233 32.681-40.029v102.667h-16.34v-24.511a8.17 8.17 0 0 0-16.34 0v24.511h-53.225v-46.298a8.17 8.17 0 0 0-16.34 0v46.298h-16.34V87.971c18.624 3.795 32.681 20.3 32.681 40.029a8.17 8.17 0 0 0 16.34 0c0-23.967-14.826-44.525-35.783-53.018a40.866 40.866 0 0 1 13.254-2.203c10.905 0 21.163 4.253 28.887 11.976a8.143 8.143 0 0 0 5.778 2.393 8.139 8.139 0 0 0 5.777-2.393 8.17 8.17 0 0 0 0-11.554c-10.81-10.81-25.172-16.763-40.44-16.763-7.78 0-15.322 1.552-22.281 4.498 6.674-13.499 20.587-22.809 36.638-22.809a8.17 8.17 0 0 0 0-16.34c-20.779 0-39.005 11.14-49.021 27.758-10.017-16.618-28.243-27.758-49.021-27.758a8.17 8.17 0 0 0 0 16.34c16.052 0 29.964 9.31 36.638 22.809-6.959-2.946-14.5-4.498-22.281-4.498-15.268 0-29.631 5.953-40.44 16.763a8.17 8.17 0 0 0 0 11.554 8.17 8.17 0 0 0 11.554 0c7.724-7.724 17.982-11.976 28.887-11.976 4.58 0 9.043.759 13.254 2.203-20.956 8.493-35.782 29.051-35.782 53.018a8.17 8.17 0 0 0 16.34 0c0-19.728 14.057-36.233 32.681-40.029v189.816h-16.34v-46.298a8.17 8.17 0 0 0-16.34 0v46.298h-53.226v-24.511a8.17 8.17 0 0 0-16.34 0v24.511h-16.34V175.12c18.624 3.795 32.681 20.3 32.681 40.029a8.17 8.17 0 0 0 16.34 0c0-23.967-14.826-44.525-35.783-53.018a40.866 40.866 0 0 1 13.254-2.203c10.904 0 21.163 4.253 28.887 11.976a8.145 8.145 0 0 0 5.777 2.393 8.14 8.14 0 0 0 5.777-2.393 8.17 8.17 0 0 0 0-11.554c-10.81-10.81-25.172-16.763-40.44-16.763-7.78 0-15.322 1.552-22.281 4.498 6.676-13.499 20.588-22.809 36.64-22.809a8.17 8.17 0 0 0 0-16.34c-20.779 0-39.005 11.14-49.021 27.758-10.017-16.618-28.244-27.758-49.021-27.758a8.17 8.17 0 0 0 0 16.34c16.052 0 29.964 9.31 36.638 22.809-6.959-2.946-14.5-4.498-22.281-4.498-15.268 0-29.631 5.953-40.44 16.763a8.17 8.17 0 0 0 0 11.554 8.17 8.17 0 0 0 11.554 0c7.724-7.724 17.982-11.976 28.887-11.976 4.58 0 9.043.759 13.254 2.203-20.957 8.493-35.782 29.051-35.782 53.018a8.17 8.17 0 0 0 16.34 0c0-19.728 14.057-36.233 32.681-40.029v102.667h-16.34v-24.511a8.17 8.17 0 0 0-16.34 0v24.511h-39.37C18.325 277.787 0 296.112 0 318.638a8.17 8.17 0 0 0 8.17 8.17h495.66a8.17 8.17 0 0 0 8.17-8.17c0-22.526-18.325-40.851-40.851-40.851zM17.74 310.468c3.372-9.51 12.459-16.34 23.111-16.34h430.298c10.652 0 19.739 6.83 23.111 16.34H17.74zm240.983 130.723H233.39c-3.795-18.624-20.3-32.681-40.029-32.681H128c-19.728 0-36.233 14.057-40.029 32.681H62.638a8.17 8.17 0 0 0 0 16.34h196.085a8.17 8.17 0 0 0 0-16.34zm-153.828 0c3.373-9.509 12.454-16.34 23.105-16.34h65.362c10.652 0 19.733 6.831 23.105 16.34H104.895z"/></svg>