<svg xmlns="http://www.w3.org/2000/svg" viewBox="0 0 512 512"><path d="M256.544.542c-40.46 0-73.376 32.916-73.376 73.376s32.916 73.376 73.376 73.376 73.376-32.916 73.376-73.376S297.003.542 256.544.542zm0 130.446c-31.469 0-57.07-25.602-57.07-57.07s25.601-57.07 57.07-57.07 57.07 25.602 57.07 57.07-25.601 57.07-57.07 57.07z"/><path d="M502.76 247.846h-24.459V231.54h25.546a8.154 8.154 0 0 0 7.535-11.267l-33.698-81.529a8.154 8.154 0 0 0-15.068 0l-33.699 81.529a8.152 8.152 0 0 0 7.535 11.267h25.546v16.306h-83.703V231.54h25.546a8.154 8.154 0 0 0 7.535-11.267l-33.698-81.529a8.154 8.154 0 0 0-15.068 0l-33.699 81.529a8.152 8.152 0 0 0 7.535 11.267h25.546v16.306h-211.98V231.54h25.546a8.154 8.154 0 0 0 7.535-11.267l-33.698-81.529a8.154 8.154 0 0 0-15.068 0l-33.699 81.529a8.152 8.152 0 0 0 7.535 11.267h25.546v16.306H50.004V231.54H75.55a8.154 8.154 0 0 0 7.535-11.267l-33.698-81.529a8.154 8.154 0 0 0-15.068 0l-33.7 81.529a8.152 8.152 0 0 0 7.535 11.267H33.7v16.306H8.153c-4.503 0-8.153 3.649-8.153 8.153s3.65 8.153 8.153 8.153h182.999l-72.847 236.753a8.153 8.153 0 0 0 5.395 10.19 8.115 8.115 0 0 0 2.4.363 8.157 8.157 0 0 0 7.79-5.757l74.323-241.549h96.661L379.196 505.7a8.156 8.156 0 0 0 7.79 5.757c.794 0 1.602-.116 2.4-.363a8.153 8.153 0 0 0 5.395-10.19l-72.848-236.753H502.76c4.503 0 8.153-3.649 8.153-8.153s-3.65-8.152-8.153-8.152zM20.344 215.234l21.507-52.033 21.507 52.033H20.344zm100.01 0l21.506-52.033 21.507 52.033h-43.013zm228.28 0l21.506-52.033 21.507 52.033h-43.013zm100.008 0l21.506-52.033 21.507 52.033h-43.013z"/><path d="M438.624 356.551a8.152 8.152 0 0 0-8.153 8.153v10.87c0 4.504 3.65 8.153 8.153 8.153s8.153-3.649 8.153-8.153v-10.87a8.152 8.152 0 0 0-8.153-8.153zm-331.55 21.741a8.152 8.152 0 0 0-8.153 8.153v10.87a8.152 8.152 0 0 0 8.153 8.153 8.152 8.152 0 0 0 8.153-8.153v-10.87a8.152 8.152 0 0 0-8.153-8.153zM74.463 345.68a8.152 8.152 0 0 0-8.153 8.153v10.87c0 4.504 3.65 8.153 8.153 8.153s8.153-3.649 8.153-8.153v-10.87a8.153 8.153 0 0 0-8.153-8.153zm331.55-32.611a8.152 8.152 0 0 0-8.153 8.153v10.87c0 4.504 3.65 8.153 8.153 8.153s8.153-3.649 8.153-8.153v-10.87a8.153 8.153 0 0 0-8.153-8.153zM41.851 451.667a8.152 8.152 0 0 0-8.153 8.153v10.871c0 4.504 3.65 8.153 8.153 8.153s8.153-3.649 8.153-8.153V459.82a8.153 8.153 0 0 0-8.153-8.153zm214.693-.906a8.152 8.152 0 0 0-8.153 8.153v44.389c0 4.504 3.65 8.153 8.153 8.153s8.153-3.649 8.153-8.153v-44.388a8.154 8.154 0 0 0-8.153-8.154zm0-82.434a8.152 8.152 0 0 0-8.153 8.153v38.953c0 4.504 3.65 8.153 8.153 8.153s8.153-3.649 8.153-8.153V376.48a8.153 8.153 0 0 0-8.153-8.153zm0-87.87a8.152 8.152 0 0 0-8.153 8.153v44.387c0 4.504 3.65 8.153 8.153 8.153s8.153-3.649 8.153-8.153V288.61a8.154 8.154 0 0 0-8.153-8.153z"/></svg>