<svg xmlns="http://www.w3.org/2000/svg" viewBox="0 0 512 512"><path d="M40.851 446.638a8.17 8.17 0 0 0-8.17 8.17v10.894a8.17 8.17 0 0 0 16.34 0v-10.894a8.17 8.17 0 0 0-8.17-8.17zM8.17 413.957a8.17 8.17 0 0 0-8.17 8.17v10.894a8.17 8.17 0 0 0 16.34 0v-10.894a8.17 8.17 0 0 0-8.17-8.17zm98.043 0a8.17 8.17 0 0 0-8.17 8.17v10.894a8.17 8.17 0 0 0 16.34 0v-10.894a8.17 8.17 0 0 0-8.17-8.17zm299.574-314.28a8.17 8.17 0 0 0-8.17 8.17v297.94c0 4.512 3.657 8.17 8.17 8.17s8.17-3.658 8.17-8.17v-297.94a8.17 8.17 0 0 0-8.17-8.17zm32.681 0a8.17 8.17 0 0 0-8.17 8.17v297.94c0 4.512 3.657 8.17 8.17 8.17s8.17-3.658 8.17-8.17v-297.94a8.17 8.17 0 0 0-8.17-8.17z"/><path d="M495.66 464.384v-18.221c3.171-1.123 5.447-4.14 5.447-7.695a8.17 8.17 0 0 0-8.17-8.17H479.32V359.49h24.511c4.513 0 8.17-3.658 8.17-8.17s-3.657-8.17-8.17-8.17H479.32V83.336h2.723c4.513 0 8.17-3.658 8.17-8.17s-3.657-8.17-8.17-8.17h-2.723V8.17A8.17 8.17 0 0 0 471.15 0h-98.043a8.17 8.17 0 0 0-8.17 8.17v58.826h-2.723c-4.513 0-8.17 3.658-8.17 8.17s3.657 8.17 8.17 8.17h2.723v259.813h-16.554c-1.601-31.804-12.546-61.844-31.911-87.323a8.17 8.17 0 0 0-13.01 9.887c17.184 22.611 26.95 49.236 28.536 77.436h-48.763V177.021a8.17 8.17 0 0 0-8.17-8.17h-29.297l-30.286-30.286a7.97 7.97 0 0 0-.594-.537c-.053-.044-.111-.081-.164-.123a8.151 8.151 0 0 0-.477-.353c-.051-.035-.106-.063-.158-.096a8.5 8.5 0 0 0-.529-.317c-.039-.022-.082-.038-.122-.059a8.239 8.239 0 0 0-.601-.284c-.029-.012-.06-.021-.088-.033a8.01 8.01 0 0 0-.662-.237c-.033-.01-.066-.016-.099-.025a8.403 8.403 0 0 0-.674-.169c-.069-.014-.139-.02-.208-.032-.194-.034-.387-.068-.585-.087a8.196 8.196 0 0 0-.816-.041H177.02a8.17 8.17 0 0 0-8.17 8.17v50.515c-36.246 5.005-69.593 22.45-94.561 49.628-24.983 27.194-39.509 61.964-41.393 98.665H8.17a8.17 8.17 0 0 0 0 16.34h160.681v70.808h-13.617a8.17 8.17 0 0 0-8.17 8.17c0 3.556 2.276 6.572 5.447 7.695v18.221c-9.509 3.373-16.34 12.454-16.34 23.105 0 13.516 10.995 24.511 24.511 24.511h130.723c13.515 0 24.511-10.995 24.511-24.511 0-10.651-6.831-19.733-16.34-23.105v-18.221c3.171-1.123 5.447-4.14 5.447-7.695a8.17 8.17 0 0 0-8.17-8.17h-13.617V359.49h81.702v70.808h-13.617a8.17 8.17 0 0 0-8.17 8.17c0 3.556 2.276 6.572 5.447 7.695v18.221c-9.509 3.373-16.34 12.454-16.34 23.105 0 13.516 10.996 24.511 24.511 24.511h130.723C501.004 512 512 501.005 512 487.489c0-10.65-6.831-19.732-16.34-23.105zM185.192 152.511h16.34v253.277a8.17 8.17 0 0 0 16.34 0V164.064l16.34 16.34v61.978a8.17 8.17 0 0 0 16.34 0v-57.191h16.34v245.106H185.19V152.511zM49.258 343.149c3.746-67.079 53.349-121.675 119.593-131.781v131.781H49.258zm119.593 103.489h114.383v16.34H168.851v-16.34zm122.553 32.681c4.506 0 8.17 3.665 8.17 8.17 0 4.506-3.665 8.17-8.17 8.17H160.681c-4.506 0-8.17-3.665-8.17-8.17 0-4.506 3.665-8.17 8.17-8.17h130.723zM381.277 16.34h81.702v50.655h-81.702V16.34zm0 66.996h81.702v346.962h-81.702V83.336zm-16.341 363.302h114.383v16.34H364.936v-16.34zm122.553 49.022H356.766c-4.506 0-8.17-3.665-8.17-8.17 0-4.506 3.665-8.17 8.17-8.17h130.723c4.506 0 8.17 3.665 8.17 8.17.001 4.505-3.664 8.17-8.17 8.17z"/><path d="M242.383 266.894a8.17 8.17 0 0 0-8.17 8.17v130.723a8.17 8.17 0 0 0 16.34 0V275.064a8.17 8.17 0 0 0-8.17-8.17zM98.043 65.362H35.404C15.883 65.362 0 81.245 0 100.766s15.883 35.404 35.404 35.404h62.638c19.521 0 35.404-15.883 35.404-35.404s-15.882-35.404-35.403-35.404zm0 54.468H35.404c-10.511 0-19.064-8.553-19.064-19.064s8.553-19.064 19.064-19.064h62.638c10.511 0 19.064 8.553 19.064 19.064s-8.552 19.064-19.063 19.064zM283.234 0H166.128c-19.521 0-35.404 15.883-35.404 35.404 0 19.521 15.883 35.404 35.404 35.404h117.106c19.522 0 35.404-15.883 35.404-35.404C318.638 15.883 302.756 0 283.234 0zm0 54.468H166.128c-10.511 0-19.064-8.553-19.064-19.064s8.553-19.064 19.064-19.064h117.106c10.511 0 19.064 8.553 19.064 19.064 0 10.512-8.553 19.064-19.064 19.064z"/></svg>