<svg xmlns="http://www.w3.org/2000/svg" viewBox="0 0 512 512"><path d="M503.83 381.277h-24.511v-24.511c0-4.512-3.657-8.17-8.17-8.17s-8.17 3.658-8.17 8.17v24.511h-16.34v-24.511c0-4.512-3.657-8.17-8.17-8.17s-8.17 3.658-8.17 8.17v24.511h-16.34v-24.511c0-4.512-3.657-8.17-8.17-8.17s-8.17 3.658-8.17 8.17v24.511h-49.021v-24.511c0-4.512-3.657-8.17-8.17-8.17s-8.17 3.658-8.17 8.17v24.511h-16.34v-24.511c0-4.512-3.657-8.17-8.17-8.17s-8.17 3.658-8.17 8.17v24.511H264.17v-98.01h35.404c25.751 0 47.164-18.911 51.093-43.574h14.268c13.533 0 24.543-11.01 24.543-24.543s-11.01-24.544-24.543-24.544h-25.347c-3.827-18.586-20.328-32.614-40.014-32.614h-87.149c-19.687 0-36.189 14.029-40.013 32.614h-25.348c-13.533 0-24.543 11.01-24.543 24.544s11.01 24.543 24.543 24.543h14.268c3.929 24.663 25.342 43.574 51.093 43.574h35.404v32.678h-46.71a8.17 8.17 0 0 0-8.17 8.17 8.17 8.17 0 0 0 8.17 8.17h46.71v48.992h-42.275l-28.102-49.178c-10.411-18.22-35.003-32.492-55.989-32.492H8.17a8.17 8.17 0 0 0-8.17 8.17 8.17 8.17 0 0 0 8.17 8.17h113.294c15.144 0 34.288 11.109 41.801 24.259l23.47 41.071H8.17a8.17 8.17 0 0 0-8.17 8.17 8.17 8.17 0 0 0 8.17 8.17h495.66a8.17 8.17 0 0 0 8.17-8.17 8.17 8.17 0 0 0-8.17-8.17zM264.17 265.964v-26.272h26.272c-3.077 12.97-13.302 23.195-26.272 26.272zm35.404.962h-5.889c6.939-7.382 11.744-16.788 13.409-27.234h26.922c-3.699 15.595-17.732 27.234-34.442 27.234zm-152.51-43.574c-4.523 0-8.203-3.68-8.203-8.203s3.68-8.204 8.203-8.204h32.683a8.17 8.17 0 0 0 8.17-8.154c.026-13.487 11.021-24.461 24.508-24.461h87.149c13.487 0 24.483 10.973 24.51 24.461a8.17 8.17 0 0 0 8.17 8.154h32.682c4.523 0 8.203 3.68 8.203 8.204s-3.68 8.203-8.203 8.203H147.064zm65.362 43.574c-16.71 0-30.743-11.64-34.442-27.234h26.922c1.665 10.446 6.469 19.853 13.409 27.234h-5.889zm35.404-.962c-12.97-3.076-23.195-13.302-26.272-26.272h26.272v26.272zM256 16.34c-31.535 0-57.191 25.656-57.191 57.191s25.657 57.191 57.191 57.191 57.191-25.656 57.191-57.191S287.535 16.34 256 16.34zm0 98.043c-22.526 0-40.851-18.325-40.851-40.851S233.474 32.681 256 32.681s40.851 18.325 40.851 40.851-18.325 40.851-40.851 40.851zm149.787 321.362a8.17 8.17 0 0 0-8.17 8.17v32.681c0 4.512 3.657 8.17 8.17 8.17s8.17-3.658 8.17-8.17v-32.681a8.17 8.17 0 0 0-8.17-8.17zm-32.681 10.893a8.17 8.17 0 0 0-8.17 8.17v32.681c0 4.512 3.657 8.17 8.17 8.17s8.17-3.658 8.17-8.17v-32.681a8.168 8.168 0 0 0-8.17-8.17zm98.043 0a8.17 8.17 0 0 0-8.17 8.17v32.681c0 4.512 3.657 8.17 8.17 8.17s8.17-3.658 8.17-8.17v-32.681a8.17 8.17 0 0 0-8.17-8.17zm-261.447-21.787a8.17 8.17 0 0 0-8.17 8.17v32.681c0 4.512 3.657 8.17 8.17 8.17s8.17-3.658 8.17-8.17v-32.681a8.17 8.17 0 0 0-8.17-8.17zM40.851 446.638a8.17 8.17 0 0 0-8.17 8.17v32.681c0 4.512 3.657 8.17 8.17 8.17s8.17-3.658 8.17-8.17v-32.681a8.17 8.17 0 0 0-8.17-8.17zm136.17 0a8.17 8.17 0 0 0-8.17 8.17v32.681c0 4.512 3.657 8.17 8.17 8.17s8.17-3.658 8.17-8.17v-32.681a8.168 8.168 0 0 0-8.17-8.17zm-32.681-21.787a8.17 8.17 0 0 0-8.17 8.17v32.681a8.17 8.17 0 0 0 8.17 8.17 8.17 8.17 0 0 0 8.17-8.17v-32.681a8.168 8.168 0 0 0-8.17-8.17z"/><path d="M503.83 315.943H287.591a8.17 8.17 0 0 0-8.17 8.17 8.17 8.17 0 0 0 8.17 8.17H503.83a8.17 8.17 0 0 0 8.17-8.17 8.17 8.17 0 0 0-8.17-8.17z"/></svg>