<svg xmlns="http://www.w3.org/2000/svg" viewBox="0 0 511.999 511.999"><path d="M203.57 235.415l-9.842-29.526 10.033-30.097a8.17 8.17 0 0 0-7.751-10.754c-14.24 0-27.715 5.221-38.127 14.565a56.808 56.808 0 0 0-21.051-11.96c2.77-3.21 2.641-8.059-.406-11.106a8.172 8.172 0 0 0-11.555 0l-8.619 8.619c-22.758 1.399-42.748 16.312-50.421 38.009a8.183 8.183 0 0 0 0 5.447c7.672 21.698 27.663 36.611 50.421 38.009l8.619 8.619a8.15 8.15 0 0 0 5.778 2.392 8.15 8.15 0 0 0 5.778-2.392c3.046-3.047 3.177-7.896.406-11.106a56.824 56.824 0 0 0 21.051-11.96c10.41 9.346 23.885 14.567 38.125 14.567 4.534 0 8.192-3.657 8.192-8.17 0-1.12-.225-2.186-.631-3.156zm-26.206-26.942l6.72 20.16c-7.715-2.348-14.628-6.964-19.849-13.423a8.17 8.17 0 0 0-12.708 0c-7.803 9.653-19.384 15.19-31.773 15.19-16.298 0-30.994-9.737-37.443-24.51 6.449-14.775 21.145-24.51 37.443-24.51 12.389 0 23.97 5.537 31.773 15.191a8.17 8.17 0 0 0 12.708 0c5.221-6.461 12.134-11.077 19.849-13.424l-6.72 20.16a8.18 8.18 0 0 0 0 5.166zm268.664-18.811l-9.842-29.526 10.033-30.097a8.17 8.17 0 0 0-7.751-10.754c-14.24 0-27.715 5.221-38.127 14.565a56.808 56.808 0 0 0-21.051-11.96c2.77-3.21 2.641-8.059-.406-11.106a8.172 8.172 0 0 0-11.555 0l-8.619 8.619c-22.758 1.399-42.747 16.312-50.42 38.009a8.183 8.183 0 0 0 0 5.447c7.672 21.698 27.662 36.611 50.42 38.009l8.619 8.619a8.15 8.15 0 0 0 5.778 2.392 8.15 8.15 0 0 0 5.778-2.392c3.046-3.047 3.177-7.896.406-11.106a56.824 56.824 0 0 0 21.051-11.96c10.41 9.346 23.885 14.567 38.125 14.567 4.534 0 8.192-3.657 8.192-8.17a8.173 8.173 0 0 0-.631-3.156zm-26.206-26.942l6.72 20.16c-7.715-2.348-14.628-6.964-19.849-13.423a8.17 8.17 0 0 0-12.708 0c-7.803 9.653-19.384 15.19-31.773 15.19-16.297 0-30.993-9.737-37.442-24.51 6.449-14.775 21.145-24.51 37.442-24.51 12.389 0 23.97 5.537 31.773 15.191a8.17 8.17 0 0 0 12.708 0c5.221-6.461 12.134-11.077 19.849-13.424l-6.72 20.16a8.167 8.167 0 0 0 0 5.166zm87.574-136.842a8.168 8.168 0 0 0-10.918 3.78c-7.922 16.313-24.099 26.445-42.217 26.445s-34.294-10.133-42.217-26.445a8.169 8.169 0 0 0-14.698 0c-7.922 16.313-24.099 26.445-42.217 26.445s-34.294-10.133-42.217-26.445a8.169 8.169 0 0 0-14.698 0c-7.922 16.313-24.099 26.445-42.217 26.445S221.703 45.97 213.78 29.658a8.169 8.169 0 0 0-14.698 0c-7.922 16.313-24.099 26.445-42.217 26.445s-34.294-10.133-42.217-26.445a8.169 8.169 0 0 0-14.698 0c-7.922 16.313-24.099 26.445-42.217 26.445S23.439 45.971 15.516 29.658a8.166 8.166 0 0 0-10.917-3.78 8.169 8.169 0 0 0-3.78 10.917c10.517 21.656 32.856 35.648 56.914 35.648 19.409 0 37.698-9.106 49.566-23.996 11.867 14.89 30.157 23.996 49.566 23.996 19.409 0 37.698-9.106 49.566-23.996 11.867 14.89 30.157 23.996 49.566 23.996 19.409 0 37.698-9.106 49.566-23.996 11.867 14.89 30.157 23.996 49.566 23.996 19.409 0 37.698-9.106 49.566-23.996 11.867 14.89 30.157 23.996 49.566 23.996 24.058 0 46.399-13.993 56.914-35.648a8.165 8.165 0 0 0-3.779-10.917zM460.74 412.696c-5.589-22.851-24.644-40.061-47.878-43.368v-17.741c16.214-3.304 28.954-16.246 31.983-32.555 18.967-3.523 33.378-20.181 33.378-40.154a8.169 8.169 0 0 0-8.17-8.17 8.169 8.169 0 0 0-8.17 8.17c0 10.651-6.831 19.733-16.34 23.105v-23.105c0-4.513-3.657-8.17-8.17-8.17s-8.17 3.657-8.17 8.17v32.681c0 10.651-6.831 19.733-16.34 23.105V257.09a8.169 8.169 0 0 0-8.17-8.17 8.169 8.169 0 0 0-8.17 8.17v55.786c-9.509-3.373-16.34-12.455-16.34-23.105V257.09a8.169 8.169 0 0 0-8.17-8.17 8.169 8.169 0 0 0-8.17 8.17v23.105c-9.509-3.373-16.34-12.455-16.34-23.105 0-4.513-3.657-8.17-8.17-8.17s-8.17 3.657-8.17 8.17c0 19.972 14.411 36.631 33.378 40.154 3.029 16.311 15.769 29.251 31.983 32.555v39.549a57.516 57.516 0 0 0-37.126 21.349 57.113 57.113 0 0 0-4.266-.16c-31.836 0-57.736 25.899-57.736 57.736v13.961c-8.755.768-14.312 2.711-19.329 4.476-4.235 1.489-8.071 2.83-13.901 3.48v-38.535c18.624-3.795 32.681-20.3 32.681-40.028v-3.546c18.624-3.795 32.681-20.3 32.681-40.028a8.169 8.169 0 0 0-8.17-8.17 8.169 8.169 0 0 0-8.17 8.17c0 10.651-6.831 19.733-16.34 23.105v-23.105c0-4.513-3.657-8.17-8.17-8.17s-8.17 3.657-8.17 8.17v43.574c0 10.651-6.831 19.733-16.34 23.105v-55.786a8.169 8.169 0 0 0-8.17-8.17 8.169 8.169 0 0 0-8.17 8.17v77.573c-9.509-3.373-16.34-12.455-16.34-23.105v-32.681c0-4.513-3.657-8.17-8.17-8.17s-8.17 3.657-8.17 8.17v23.105c-9.509-3.373-16.34-12.455-16.34-23.105 0-4.513-3.657-8.17-8.17-8.17s-8.17 3.657-8.17 8.17c0 19.972 14.411 36.631 33.378 40.154 3.029 16.311 15.769 29.251 31.983 32.555v16.748c-5.83-.649-9.665-1.99-13.901-3.48-6.424-2.259-13.706-4.82-27.491-4.82-13.786 0-21.068 2.561-27.493 4.82-5.942 2.089-11.076 3.894-22.073 3.894-10.996 0-16.129-1.805-22.071-3.894-5.016-1.765-10.572-3.707-19.323-4.476v-17.507c18.624-3.795 32.681-20.3 32.681-40.028 0-4.513-3.657-8.17-8.17-8.17s-8.17 3.657-8.17 8.17c0 10.651-6.831 19.733-16.34 23.105v-55.786a8.169 8.169 0 0 0-8.17-8.17 8.169 8.169 0 0 0-8.17 8.17v33.999c-9.509-3.373-16.34-12.455-16.34-23.105v-32.681c0-4.513-3.657-8.17-8.17-8.17s-8.17 3.657-8.17 8.17v23.105c-9.509-3.373-16.34-12.455-16.34-23.105 0-4.513-3.657-8.17-8.17-8.17s-8.17 3.657-8.17 8.17c0 19.972 14.411 36.631 33.378 40.154 3.029 16.311 15.769 29.251 31.983 32.555v39.294c-8.75.769-14.305 2.711-19.322 4.476-5.942 2.089-11.076 3.894-22.071 3.894-10.997 0-16.13-1.805-22.073-3.894-6.425-2.259-13.707-4.82-27.492-4.82a8.169 8.169 0 0 0-8.17 8.17 8.169 8.169 0 0 0 8.17 8.17c10.996 0 16.129 1.805 22.071 3.894 6.425 2.259 13.707 4.82 27.493 4.82 13.785 0 21.067-2.561 27.492-4.82 5.942-2.089 11.076-3.894 22.073-3.894 10.996 0 16.129 1.805 22.071 3.894 6.424 2.259 13.706 4.82 27.492 4.82s21.068-2.561 27.493-4.82c5.942-2.089 11.075-3.894 22.072-3.894 10.996 0 16.128 1.805 22.07 3.894 6.424 2.259 13.706 4.82 27.492 4.82s21.068-2.561 27.492-4.82c5.942-2.089 11.075-3.894 22.071-3.894 10.997 0 16.13 1.805 22.073 3.894 6.425 2.259 13.707 4.82 27.493 4.82s21.068-2.561 27.493-4.82c5.942-2.089 11.075-3.894 22.071-3.894 10.998 0 16.131 1.805 22.075 3.894 6.426 2.259 13.71 4.82 27.496 4.82s21.07-2.561 27.494-4.82c5.945-2.089 11.078-3.894 22.077-3.894a8.169 8.169 0 0 0 8.17-8.17c-.007-29.647-22.469-54.133-51.265-57.364zm15.591 54.012c-5.944 2.089-11.077 3.894-22.075 3.894-10.999 0-16.132-1.805-22.077-3.894-6.425-2.259-13.707-4.82-27.494-4.82-13.785 0-21.067 2.561-27.492 4.82-5.942 2.089-11.075 3.894-22.073 3.894-10.997 0-16.13-1.805-22.072-3.894-5.015-1.764-10.569-3.706-19.315-4.475v-13.962c0-22.825 18.57-41.395 41.396-41.395 2.228 0 4.499.187 6.753.558a8.146 8.146 0 0 0 8.159-3.585c7.693-11.747 20.645-18.76 34.65-18.76 18.057 0 33.676 11.657 39.223 28.184a57.688 57.688 0 0 0-33.632 19.384 8.17 8.17 0 0 0 .925 11.518 8.169 8.169 0 0 0 11.518-.925 41.36 41.36 0 0 1 31.264-14.58l.095-.002c.059 0 .119-.004.178-.004 20.172 0 37.02 14.504 40.665 33.631-8.342.808-13.715 2.697-18.596 4.413z"/><circle cx="291.479" cy="124.73" r="8.17"/><circle cx="351.862" cy="440.643" r="8.17"/><circle cx="81.702" cy="137.802" r="8.17"/><circle cx="49.021" cy="170.483" r="8.17"/></svg>