<svg xmlns="http://www.w3.org/2000/svg" viewBox="0 0 511.999 511.999"><path d="M257.088 201.562c-31.836 0-57.736 25.899-57.736 57.736v28.323a8.169 8.169 0 0 0 8.17 8.17 8.169 8.169 0 0 0 8.17-8.17v-28.323c0-22.825 18.57-41.396 41.395-41.396s41.396 18.57 41.396 41.396v28.323a8.17 8.17 0 0 0 16.34 0v-28.323c.001-31.837-25.899-57.736-57.735-57.736zm-92.051 206.977h-16.34c-4.513 0-8.17 3.657-8.17 8.17s3.657 8.17 8.17 8.17h16.34c4.513 0 8.17-3.657 8.17-8.17s-3.657-8.17-8.17-8.17zM462.431 473.9h-16.34a8.169 8.169 0 0 0-8.17 8.17 8.169 8.169 0 0 0 8.17 8.17h16.34a8.169 8.169 0 0 0 8.17-8.17 8.169 8.169 0 0 0-8.17-8.17zM363.3 441.22h-16.34a8.169 8.169 0 0 0-8.17 8.17 8.169 8.169 0 0 0 8.17 8.17h16.34a8.169 8.169 0 0 0 8.17-8.17 8.169 8.169 0 0 0-8.17-8.17zm-297.394 0h-16.34a8.169 8.169 0 0 0-8.17 8.17 8.169 8.169 0 0 0 8.17 8.17h16.34a8.169 8.169 0 0 0 8.17-8.17 8.169 8.169 0 0 0-8.17-8.17zm441.49-128.268a8.168 8.168 0 0 0-10.918 3.78c-7.922 16.313-24.099 26.445-42.217 26.445s-34.294-10.133-42.217-26.445a8.169 8.169 0 0 0-14.698 0c-7.922 16.313-24.099 26.445-42.217 26.445s-34.294-10.133-42.217-26.445a8.169 8.169 0 0 0-14.698 0c-7.922 16.313-24.099 26.445-42.217 26.445s-34.294-10.133-42.217-26.445a8.169 8.169 0 0 0-14.698 0c-7.922 16.313-24.099 26.445-42.217 26.445s-34.294-10.133-42.217-26.445a8.169 8.169 0 0 0-14.698 0c-7.922 16.313-24.099 26.445-42.217 26.445s-34.294-10.133-42.217-26.445a8.166 8.166 0 0 0-10.917-3.78 8.17 8.17 0 0 0-3.78 10.918c10.516 21.655 32.856 35.648 56.914 35.648 19.409 0 37.698-9.106 49.566-23.996 11.867 14.89 30.157 23.996 49.566 23.996s37.698-9.106 49.566-23.996c11.867 14.89 30.157 23.996 49.566 23.996 19.409 0 37.698-9.106 49.566-23.996 11.867 14.89 30.157 23.996 49.566 23.996s37.698-9.106 49.566-23.996c11.867 14.89 30.157 23.996 49.566 23.996 24.058 0 46.399-13.993 56.914-35.648a8.17 8.17 0 0 0-3.779-10.918z"/><path d="M503.827 125.307H231.362c3.699-15.594 17.732-27.234 34.442-27.234h238.024a8.169 8.169 0 0 0 8.17-8.17 8.169 8.169 0 0 0-8.17-8.17H265.804c-26.003 0-47.58 19.284-51.201 44.299-18.892 3.584-33.224 20.208-33.224 40.126v14.437c-18.624 3.796-32.681 20.303-32.681 40.031v98.042a8.169 8.169 0 0 0 8.17 8.17 8.169 8.169 0 0 0 8.17-8.17v-98.042c0-13.515 10.996-24.51 24.51-24.51a8.169 8.169 0 0 0 8.17-8.17v-21.787c0-13.515 10.996-24.51 24.51-24.51h124.731v177.02c0 4.513 3.657 8.17 8.17 8.17s8.17-3.657 8.17-8.17v-177.02h65.906v71.628c-18.624 3.796-32.681 20.303-32.681 40.031v34.315a8.169 8.169 0 0 0 8.17 8.17 8.169 8.169 0 0 0 8.17-8.17v-34.315c0-13.515 10.996-24.51 24.51-24.51a8.169 8.169 0 0 0 8.17-8.17V141.65h58.281c4.513 0 8.17-3.657 8.17-8.17s-3.655-8.173-8.168-8.173zM178.654 21.758c-8.146 0-15.908 3.133-21.787 8.463-5.879-5.33-13.641-8.463-21.787-8.463a8.169 8.169 0 0 0-8.17 8.17 8.17 8.17 0 0 0 8.17 8.17c6.196 0 11.729 3.466 14.437 9.046a8.172 8.172 0 0 0 14.7 0c2.708-5.58 8.241-9.046 14.437-9.046a8.169 8.169 0 0 0 8.17-8.17 8.169 8.169 0 0 0-8.17-8.17zM79.523 68.085c-8.146 0-15.908 3.133-21.787 8.463-5.879-5.33-13.641-8.463-21.787-8.463-4.513 0-8.17 3.657-8.17 8.17s3.658 8.17 8.17 8.17c6.196 0 11.729 3.466 14.437 9.046a8.172 8.172 0 0 0 14.7 0c2.708-5.58 8.241-9.046 14.437-9.046 4.513 0 8.17-3.657 8.17-8.17s-3.657-8.17-8.17-8.17z"/></svg>