<svg xmlns="http://www.w3.org/2000/svg" viewBox="0 0 512 512"><path d="M81.702 405.787a8.17 8.17 0 0 0-8.17 8.17v10.894a8.17 8.17 0 0 0 16.34 0v-10.894a8.17 8.17 0 0 0-8.17-8.17zm32.681 21.787a8.17 8.17 0 0 0-8.17 8.17v10.894a8.17 8.17 0 0 0 16.34 0v-10.894a8.17 8.17 0 0 0-8.17-8.17z"/><path d="M157.616 387.064c-10.562-23.484-33.573-38.469-59.574-38.469-26.001 0-49.011 14.984-59.574 38.469C14.984 397.627 0 420.637 0 446.638 0 482.679 29.321 512 65.362 512h65.362c36.04 0 65.362-29.321 65.362-65.362-.001-26.001-14.985-49.011-38.47-59.574zM130.723 495.66H65.362c-27.03 0-49.021-21.991-49.021-49.021 0-20.396 12.294-38.34 31.322-45.714a8.17 8.17 0 0 0 4.666-4.666c7.374-19.028 25.318-31.322 45.714-31.322s38.34 12.295 45.714 31.322a8.17 8.17 0 0 0 4.666 4.666c19.028 7.374 31.322 25.318 31.322 45.714 0 27.03-21.991 49.021-49.022 49.021zm246.741-163.405a8.17 8.17 0 0 0-8.17 8.17v10.894a8.17 8.17 0 0 0 16.34 0v-10.894a8.17 8.17 0 0 0-8.17-8.17zm32.681 21.788a8.17 8.17 0 0 0-8.17 8.17v10.894a8.17 8.17 0 0 0 16.34 0v-10.894a8.17 8.17 0 0 0-8.17-8.17zm29.412-43.575a8.17 8.17 0 0 0-8.17 8.17v10.894a8.17 8.17 0 0 0 16.34 0v-10.894a8.169 8.169 0 0 0-8.17-8.17z"/><path d="M473.531 289.022c-10.562-23.484-33.573-38.469-59.574-38.469s-49.011 14.984-59.574 38.469c-23.484 10.563-38.469 33.573-38.469 59.574 0 36.04 29.321 65.362 65.362 65.362h65.362c36.04 0 65.362-29.321 65.362-65.362 0-26.001-14.984-49.012-38.469-59.574zm-26.893 108.595h-65.362c-27.03 0-49.021-21.991-49.021-49.021 0-20.396 12.295-38.34 31.322-45.714a8.17 8.17 0 0 0 4.666-4.666c7.374-19.028 25.318-31.322 45.714-31.322s38.34 12.295 45.714 31.322a8.17 8.17 0 0 0 4.666 4.666c19.028 7.374 31.322 25.318 31.322 45.714.001 27.03-21.99 49.021-49.021 49.021zm-275.064-136.17a8.17 8.17 0 0 0-8.17 8.17v21.787c0 10.652-6.831 19.733-16.34 23.105v-55.786a8.17 8.17 0 0 0-16.34 0v55.786c-9.509-3.373-16.34-12.454-16.34-23.105v-21.787a8.17 8.17 0 0 0-16.34 0v21.787c0 22.526 18.325 40.851 40.851 40.851s40.851-18.325 40.851-40.851v-21.787a8.172 8.172 0 0 0-8.172-8.17zm100.766 65.362a8.17 8.17 0 0 0-8.17 8.17v21.787c0 10.652-6.831 19.733-16.34 23.105v-55.786a8.17 8.17 0 0 0-16.34 0v55.786c-9.509-3.373-16.34-12.454-16.34-23.105v-21.787a8.17 8.17 0 0 0-16.34 0v21.787c0 22.526 18.325 40.851 40.851 40.851s40.851-18.325 40.851-40.851v-21.787a8.172 8.172 0 0 0-8.172-8.17zm231.49-108.937h-80.371l-10.83-48.736c-3.448-15.514-18.596-27.667-34.489-27.667h-14.175c-9.333-13.194-24.968-21.787-40.293-21.787H188.329c-15.325 0-30.961 8.593-40.293 21.787h-14.175c-15.892 0-31.041 12.153-34.489 27.667l-10.83 48.736H8.17a8.17 8.17 0 0 0 0 16.34h495.66a8.17 8.17 0 0 0 0-16.34zm-152.511 0h-19.478v-57.339a8.17 8.17 0 0 0-16.34 0v57.339H264.17v-57.339a8.17 8.17 0 0 0-16.34 0v57.339H105.28l10.043-45.191c1.76-7.922 10.423-14.871 18.538-14.871h10.48v35.551a8.17 8.17 0 0 0 16.34 0v-41.423c4.564-6.989 11.811-12.339 19.478-14.655v55.93a8.17 8.17 0 0 0 16.34 0v-57.191h127.172c10.385 0 21.474 6.461 27.648 15.916v65.934zm16.341 0V157.81h10.48c8.115 0 16.777 6.949 18.538 14.871l10.043 45.191H367.66zM256 0c-25.529 0-46.298 20.769-46.298 46.298 0 25.529 20.769 46.298 46.298 46.298s46.298-20.769 46.298-46.298C302.298 20.769 281.529 0 256 0zm0 76.255c-16.519 0-29.957-13.438-29.957-29.957S239.481 16.341 256 16.341s29.957 13.438 29.957 29.957S272.519 76.255 256 76.255zm220.596-43.574h-95.319c-19.521 0-35.404 15.883-35.404 35.404s15.883 35.404 35.404 35.404h95.319c19.521 0 35.404-15.883 35.404-35.404s-15.883-35.404-35.404-35.404zm0 54.468h-95.319c-10.511 0-19.064-8.553-19.064-19.064s8.553-19.064 19.064-19.064h95.319c10.511 0 19.064 8.553 19.064 19.064s-8.553 19.064-19.064 19.064zM76.255 0H35.404C15.883 0 0 15.883 0 35.404c0 19.521 15.883 35.404 35.404 35.404h40.851c19.521 0 35.404-15.883 35.404-35.404C111.66 15.883 95.777 0 76.255 0zm0 54.468H35.404c-10.511 0-19.064-8.553-19.064-19.064S24.893 16.34 35.404 16.34h40.851c10.511 0 19.064 8.553 19.064 19.064 0 10.512-8.552 19.064-19.064 19.064zM40.851 250.553a8.17 8.17 0 0 0-8.17 8.17v65.362a8.17 8.17 0 0 0 16.34 0v-65.362a8.17 8.17 0 0 0-8.17-8.17zm32.681 32.681a8.17 8.17 0 0 0-8.17 8.17v32.681a8.17 8.17 0 0 0 16.34 0v-32.681a8.17 8.17 0 0 0-8.17-8.17zm231.489-32.681a8.17 8.17 0 0 0-8.17 8.17v32.681a8.17 8.17 0 0 0 16.34 0v-32.681a8.17 8.17 0 0 0-8.17-8.17zm-16.34 212.426a8.17 8.17 0 0 0-8.17 8.17v32.681a8.17 8.17 0 0 0 16.34 0v-32.681a8.17 8.17 0 0 0-8.17-8.17zm-65.362 0a8.17 8.17 0 0 0-8.17 8.17v32.681a8.17 8.17 0 0 0 16.34 0v-32.681a8.17 8.17 0 0 0-8.17-8.17zM256 430.298a8.17 8.17 0 0 0-8.17 8.17v65.362a8.17 8.17 0 0 0 16.34 0v-65.362a8.17 8.17 0 0 0-8.17-8.17zm65.362 32.681a8.17 8.17 0 0 0-8.17 8.17v32.681a8.17 8.17 0 0 0 16.34 0v-32.681a8.17 8.17 0 0 0-8.17-8.17zm149.787-32.681a8.17 8.17 0 0 0-8.17 8.17v32.681a8.17 8.17 0 0 0 16.34 0v-32.681a8.17 8.17 0 0 0-8.17-8.17zm-32.681 0a8.17 8.17 0 0 0-8.17 8.17v32.681a8.17 8.17 0 0 0 16.34 0v-32.681a8.17 8.17 0 0 0-8.17-8.17z"/></svg>