<svg xmlns="http://www.w3.org/2000/svg" viewBox="0 0 512 512"><path d="M165.038 326.808h-16.34c-4.512 0-8.17 3.657-8.17 8.17s3.658 8.17 8.17 8.17h16.34c4.512 0 8.17-3.657 8.17-8.17s-3.658-8.17-8.17-8.17zm247.828 98.041h-16.34a8.17 8.17 0 0 0-8.17 8.17 8.17 8.17 0 0 0 8.17 8.17h16.34a8.17 8.17 0 0 0 8.17-8.17 8.17 8.17 0 0 0-8.17-8.17zm49.566-32.68h-16.34c-4.512 0-8.17 3.657-8.17 8.17s3.658 8.17 8.17 8.17h16.34c4.512 0 8.17-3.657 8.17-8.17s-3.658-8.17-8.17-8.17zm-99.131-32.681h-16.34a8.17 8.17 0 0 0-8.17 8.17 8.17 8.17 0 0 0 8.17 8.17h16.34a8.17 8.17 0 0 0 8.17-8.17 8.17 8.17 0 0 0-8.17-8.17zm-297.394 0h-16.34a8.17 8.17 0 0 0-8.17 8.17 8.17 8.17 0 0 0 8.17 8.17h16.34a8.17 8.17 0 0 0 8.17-8.17 8.17 8.17 0 0 0-8.17-8.17zm441.489-128.267a8.167 8.167 0 0 0-10.919 3.78c-7.921 16.313-24.098 26.445-42.216 26.445s-34.294-10.133-42.216-26.445a8.172 8.172 0 0 0-14.7 0c-7.922 16.313-24.099 26.445-42.216 26.445s-34.294-10.133-42.216-26.445a8.172 8.172 0 0 0-14.7 0c-7.922 16.313-24.099 26.445-42.216 26.445s-34.294-10.133-42.216-26.445a8.172 8.172 0 0 0-14.7 0c-7.922 16.313-24.099 26.445-42.216 26.445s-34.294-10.133-42.216-26.445a8.172 8.172 0 0 0-14.7 0c-7.922 16.313-24.099 26.445-42.216 26.445-18.118 0-34.295-10.133-42.216-26.445a8.172 8.172 0 0 0-10.919-3.78 8.168 8.168 0 0 0-3.78 10.917c10.516 21.655 32.857 35.648 56.915 35.648 19.409 0 37.699-9.106 49.566-23.996 11.866 14.89 30.156 23.996 49.565 23.996s37.699-9.106 49.566-23.996c11.866 14.89 30.157 23.996 49.566 23.996s37.699-9.106 49.566-23.996c11.866 14.89 30.157 23.996 49.566 23.996 19.409 0 37.699-9.106 49.565-23.996 11.866 14.89 30.157 23.996 49.566 23.996 24.058 0 46.399-13.993 56.915-35.648a8.165 8.165 0 0 0-3.778-10.917zm-96.211-26.519c-5.415-36.879-23.955-70.741-52.202-95.35A156.761 156.761 0 0 0 255.998 70.81c-37.881 0-74.456 13.688-102.985 38.542-28.247 24.608-46.787 58.471-52.202 95.35a8.17 8.17 0 0 0 16.167 2.374c10.039-68.37 69.806-119.927 139.02-119.927 69.214 0 128.98 51.557 139.02 119.927a8.171 8.171 0 0 0 16.167-2.374z"/></svg>