<svg xmlns="http://www.w3.org/2000/svg" viewBox="0 0 512 512"><path d="M503.83 136.17H346.334l42.163-73.785c7.513-13.149 26.656-24.258 41.801-24.258h73.532c4.513 0 8.17-3.658 8.17-8.17s-3.657-8.17-8.17-8.17h-73.532c-20.985 0-45.579 14.273-55.989 32.491l-12.617 22.08c-12.304-12.86-31.267-21.891-47.956-21.891H198.264c-8.749 0-18.307 2.461-27.638 7.118a8.17 8.17 0 0 0-3.662 10.959 8.169 8.169 0 0 0 10.959 3.662c6.975-3.482 14.2-5.399 20.342-5.399h115.472c13.711 0 30.696 9.104 39.365 20.585l-25.587 44.777H184.486L137.69 54.28c-10.409-18.22-35.002-32.492-55.988-32.492H8.17c-4.513 0-8.17 3.658-8.17 8.17s3.657 8.17 8.17 8.17h73.532c15.145 0 34.288 11.109 41.801 24.259l42.163 73.784h-59.453c-4.513 0-8.17 3.658-8.17 8.17s3.657 8.17 8.17 8.17H503.83a8.17 8.17 0 1 0 0-16.341zm-430.298 0H8.17c-4.513 0-8.17 3.658-8.17 8.17s3.657 8.17 8.17 8.17h65.362c4.513 0 8.17-3.658 8.17-8.17s-3.657-8.17-8.17-8.17zm343.149 32.681H8.17c-4.513 0-8.17 3.658-8.17 8.17s3.657 8.17 8.17 8.17h408.511c4.513 0 8.17-3.658 8.17-8.17s-3.657-8.17-8.17-8.17zm87.149 32.681H226.043c-4.513 0-8.17 3.658-8.17 8.17s3.657 8.17 8.17 8.17H503.83c4.513 0 8.17-3.658 8.17-8.17s-3.657-8.17-8.17-8.17zm-310.468 0H95.319c-4.513 0-8.17 3.658-8.17 8.17s3.657 8.17 8.17 8.17h98.043c4.513 0 8.17-3.658 8.17-8.17s-3.657-8.17-8.17-8.17zM503.83 452.085a8.172 8.172 0 0 0 7.081-12.247l-29.908-51.959h2.175c4.534 0 8.192-3.658 8.192-8.17a8.14 8.14 0 0 0-1.388-4.558l-29.631-51.478h2.174c4.534 0 8.192-3.658 8.192-8.17a8.14 8.14 0 0 0-1.388-4.558l-15.953-27.711h50.453c4.513 0 8.17-3.658 8.17-8.17s-3.657-8.17-8.17-8.17h-59.858l-15.67-27.225a8.17 8.17 0 0 0-14.162 0l-15.672 27.225H338.61c-4.513 0-8.17 3.658-8.17 8.17s3.657 8.17 8.17 8.17h50.453l-16.228 28.194a8.172 8.172 0 0 0 7.081 12.247h2.174l-29.907 51.96a8.172 8.172 0 0 0 7.081 12.247h2.174l-22.828 39.657-22.826-39.657h2.174c4.534 0 8.192-3.658 8.192-8.17a8.14 8.14 0 0 0-1.388-4.558l-29.631-51.478h2.175c4.534 0 8.192-3.658 8.192-8.17a8.14 8.14 0 0 0-1.388-4.558l-41.028-71.277a8.17 8.17 0 0 0-14.162 0l-41.305 71.76a8.172 8.172 0 0 0 7.081 12.247h2.175l-29.908 51.959a8.172 8.172 0 0 0 7.081 12.247h2.174l-22.826 39.657-22.828-39.657h2.174c4.534 0 8.192-3.658 8.192-8.17a8.14 8.14 0 0 0-1.388-4.558l-29.63-51.478h2.174c4.534 0 8.192-3.658 8.192-8.17a8.14 8.14 0 0 0-1.388-4.558l-41.028-71.277a8.17 8.17 0 0 0-14.162 0l-41.304 71.76a8.172 8.172 0 0 0 7.081 12.247h2.174l-29.913 51.956a8.172 8.172 0 0 0 7.081 12.247h2.175L1.089 439.839a8.172 8.172 0 0 0 7.081 12.247h74.44v21.787H8.17c-4.513 0-8.17 3.658-8.17 8.17s3.657 8.17 8.17 8.17h495.66c4.513 0 8.17-3.658 8.17-8.17s-3.657-8.17-8.17-8.17h-74.44v-21.787h74.44zm-286.402-68.3a8.172 8.172 0 0 0-7.081-12.247h-2.174l29.908-51.959A8.172 8.172 0 0 0 231 307.332h-2.175L256 260.122l27.175 47.211H281a8.172 8.172 0 0 0-7.081 12.247l29.908 51.959h-2.174a8.172 8.172 0 0 0-7.081 12.247l29.907 51.959H187.521l29.907-51.96zM22.3 435.745l29.908-51.959a8.172 8.172 0 0 0-7.081-12.247h-2.175L72.86 319.58a8.172 8.172 0 0 0-7.081-12.247h-2.174l27.174-47.211 27.175 47.211h-2.174a8.172 8.172 0 0 0-7.081 12.247l29.907 51.96h-2.174a8.172 8.172 0 0 0-7.081 12.247l29.908 51.958H22.3zm225.53 38.127H98.95v-21.787h148.88v21.787zm165.22 0H264.17v-21.787h148.88v21.787zm-60.31-38.127l29.908-51.959a8.172 8.172 0 0 0-7.081-12.247h-2.174l29.907-51.96a8.172 8.172 0 0 0-7.081-12.247h-2.174l27.175-47.211 27.174 47.211h-2.174a8.172 8.172 0 0 0-7.081 12.247l29.908 51.961h-2.175a8.172 8.172 0 0 0-7.081 12.247l29.908 51.958H352.74z"/></svg>