<svg xmlns="http://www.w3.org/2000/svg" viewBox="0 0 512 512"><path d="M29.957 441.191a8.17 8.17 0 0 0-8.17 8.17v10.894a8.17 8.17 0 0 0 16.34 0v-10.894a8.17 8.17 0 0 0-8.17-8.17zm32.681 43.575a8.17 8.17 0 0 0-8.17 8.17v10.894a8.17 8.17 0 0 0 16.34 0v-10.894a8.17 8.17 0 0 0-8.17-8.17zm98.043-87.149a8.17 8.17 0 0 0-8.17 8.17v10.894a8.17 8.17 0 0 0 16.34 0v-10.894a8.17 8.17 0 0 0-8.17-8.17zm54.468-21.787a8.17 8.17 0 0 0-8.17 8.17v10.894a8.17 8.17 0 0 0 16.34 0V384a8.17 8.17 0 0 0-8.17-8.17zm-119.83 87.149a8.17 8.17 0 0 0-8.17 8.17v10.894a8.17 8.17 0 0 0 16.34 0v-10.894a8.17 8.17 0 0 0-8.17-8.17zM503.83 212.426H353.22c-3.795-18.624-20.3-32.681-40.029-32.681h-25.795l-5.619-32.681h140.35c4.513 0 8.17-3.658 8.17-8.17s-3.657-8.17-8.17-8.17H228.766c-10.511 0-19.064-8.553-19.064-19.064a8.17 8.17 0 0 0-8.17-8.17H84.426c-10.511 0-19.064-8.553-19.064-19.064s8.553-19.064 19.064-19.064h201.532c10.511 0 19.064 8.553 19.064 19.064a8.17 8.17 0 0 0 8.17 8.17h163.404c10.511 0 19.064 8.553 19.064 19.064s-8.553 19.064-19.064 19.064h-21.787c-4.513 0-8.17 3.658-8.17 8.17s3.657 8.17 8.17 8.17h21.787c19.522 0 35.404-15.883 35.404-35.404s-15.882-35.404-35.404-35.404H320.411c-3.698-15.596-17.741-27.234-34.453-27.234h-64.61l-1.723-10.028C215.927 17.493 195.17 0 173.353 0H8.17a8.17 8.17 0 0 0 0 16.34h165.183c13.982 0 27.797 11.642 30.166 25.422l1.248 7.258H84.426c-19.521 0-35.404 15.883-35.404 35.404s15.883 35.404 35.404 35.404h109.888c3.697 15.596 17.741 27.234 34.452 27.234h36.432l5.619 32.681H8.17a8.17 8.17 0 0 0 0 16.34h305.022c10.651 0 19.733 6.831 23.105 16.34H8.17a8.17 8.17 0 0 0 0 16.34h495.66a8.17 8.17 0 1 0 0-16.337zm-87.149 32.68H8.17a8.17 8.17 0 0 0 0 16.34h408.511c4.513 0 8.17-3.658 8.17-8.17s-3.657-8.17-8.17-8.17zm87.149 32.681H226.043a8.17 8.17 0 0 0 0 16.34H503.83c4.513 0 8.17-3.658 8.17-8.17s-3.657-8.17-8.17-8.17zm-310.468 0H95.319a8.17 8.17 0 0 0 0 16.34h98.043a8.17 8.17 0 0 0 0-16.34zm310.468 32.681h-98.043c-4.513 0-8.17 3.658-8.17 8.17s3.657 8.17 8.17 8.17h98.043c4.513 0 8.17-3.658 8.17-8.17s-3.657-8.17-8.17-8.17zm0 141.617H307.745c-13.515 0-24.511-10.995-24.511-24.511s10.996-24.511 24.511-24.511H503.83c4.513 0 8.17-3.658 8.17-8.17s-3.657-8.17-8.17-8.17H307.745c-22.526 0-40.851 18.325-40.851 40.851s18.325 40.851 40.851 40.851H503.83c4.513 0 8.17-3.658 8.17-8.17s-3.657-8.17-8.17-8.17zm0-108.936H200.712c-3.796-18.623-20.302-32.681-40.031-32.681H8.17a8.17 8.17 0 0 0 0 16.34h152.511c13.516 0 24.511 10.995 24.511 24.511a8.17 8.17 0 0 0 8.17 8.17H503.83c4.513 0 8.17-3.658 8.17-8.17s-3.657-8.17-8.17-8.17z"/><path d="M416.681 419.404h-76.255c-4.513 0-8.17 3.658-8.17 8.17s3.657 8.17 8.17 8.17h76.255c4.513 0 8.17-3.658 8.17-8.17s-3.657-8.17-8.17-8.17z"/></svg>