<svg xmlns="http://www.w3.org/2000/svg" viewBox="0 0 512 512"><path d="M503.83 262.536h-24.52v-49.501a8.14 8.14 0 0 0 2.717.479 8.171 8.171 0 0 0 4.909-14.706l-61.004-45.753a8.169 8.169 0 0 0-9.804 0l-61.004 45.753a8.171 8.171 0 0 0 7.626 14.241v49.486h-38.13v-49.501a8.14 8.14 0 0 0 2.717.479 8.17 8.17 0 0 0 4.909-14.706l-40.306-30.23v-39.489c0-4.513-3.658-8.17-8.17-8.17s-8.17 3.657-8.17 8.17v39.489l-40.306 30.23a8.17 8.17 0 0 0 7.626 14.241v49.486h-57.89l-46.795-81.893c-10.412-18.219-35.006-32.49-55.989-32.49H8.715c-4.512 0-8.17 3.657-8.17 8.17s3.658 8.17 8.17 8.17h73.532c15.144 0 34.288 11.108 41.802 24.258l42.162 73.785H8.17a8.17 8.17 0 0 0-8.17 8.17 8.17 8.17 0 0 0 8.17 8.17h234.747v16.34h-2.723a8.17 8.17 0 0 0-8.17 8.17 8.17 8.17 0 0 0 8.17 8.17h2.723v170.485a8.17 8.17 0 0 0 8.17 8.17h196.085a8.17 8.17 0 0 0 8.17-8.17V403.06h2.723a8.17 8.17 0 0 0 7.377-11.683l-21.787-45.753a8.173 8.173 0 0 0-7.376-4.657h-111.66v-29.413h2.723a8.17 8.17 0 0 0 8.17-8.17 8.17 8.17 0 0 0-8.17-8.17h-2.723v-16.34H503.83a8.17 8.17 0 1 0 0-16.338zM308.28 473.872h-16.34v-24.511c0-4.513-3.658-8.17-8.17-8.17s-8.17 3.657-8.17 8.17v24.511h-16.34V311.557h49.021v162.315zm0-178.655h-49.021V201.26l24.511-18.383 24.511 18.383v93.957zm130.723 178.655H324.62v-70.808h114.383v70.808zm-7.883-116.561l14.006 29.413H324.62v-29.413h106.5zm31.849-94.775h-33.77v-24.511c0-4.513-3.658-8.17-8.17-8.17s-8.17 3.657-8.17 8.17v24.511h-33.77V201.26l41.94-31.455 41.94 31.455v61.276z"/><path d="M208.078 421.038l-57.736-43.302v-20.905a8.14 8.14 0 0 0 2.717.479 8.171 8.171 0 0 0 4.909-14.706l-61.004-45.753a8.169 8.169 0 0 0-9.804 0l-61.004 45.753a8.171 8.171 0 0 0 7.626 14.241v57.657a8.17 8.17 0 0 0 8.17 8.17h10.894c4.512 0 8.17-3.657 8.17-8.17s-3.658-8.17-8.17-8.17H50.12v-61.277L92.06 313.6 134 345.055v32.681l-33.77 25.328v-21.243a8.17 8.17 0 0 0-8.17-8.17 8.17 8.17 0 0 0-8.17 8.17v32.681c0 .266.015.528.039.788l-7.665 5.749a8.171 8.171 0 0 0 7.626 14.24v57.658a8.17 8.17 0 0 0 8.17 8.17h100.221a8.17 8.17 0 0 0 8.17-8.17v-57.671a8.14 8.14 0 0 0 2.717.479 8.17 8.17 0 0 0 4.91-14.707zm-23.966 63.728h-33.77v-24.511c0-4.513-3.658-8.17-8.17-8.17s-8.17 3.657-8.17 8.17v24.511h-33.77v-61.277l41.94-31.455 41.94 31.455v61.277zM436.289 10.894h-32.681c-4.512 0-8.17 3.657-8.17 8.17s3.658 8.17 8.17 8.17h32.681c10.511 0 19.064 8.553 19.064 19.064s-8.553 19.064-19.064 19.064H297.396a8.17 8.17 0 0 0-8.17 8.17c0 10.511-8.553 19.064-19.064 19.064H76.8c-10.511 0-19.064-8.553-19.064-19.064S66.289 54.468 76.8 54.468h108.936a8.17 8.17 0 0 0 8.17-8.17c0-10.511 8.553-19.064 19.064-19.064h157.957c4.512 0 8.17-3.657 8.17-8.17s-3.658-8.17-8.17-8.17H212.97c-16.711 0-30.755 11.638-34.452 27.234H76.8c-19.521 0-35.404 15.882-35.404 35.404s15.883 35.404 35.404 35.404h193.362c16.711 0 30.755-11.638 34.452-27.234h131.675c19.521 0 35.404-15.882 35.404-35.404.001-19.523-15.882-35.404-35.404-35.404zM41.94 462.979a8.17 8.17 0 0 0-8.17 8.17v10.894c0 4.513 3.658 8.17 8.17 8.17s8.17-3.657 8.17-8.17v-10.894a8.168 8.168 0 0 0-8.17-8.17zm163.405-119.83a8.17 8.17 0 0 0-8.17 8.17v10.894a8.17 8.17 0 0 0 8.17 8.17 8.17 8.17 0 0 0 8.17-8.17v-10.894a8.17 8.17 0 0 0-8.17-8.17zm266.893-47.932a8.17 8.17 0 0 0-8.17 8.17v10.894c0 4.513 3.658 8.17 8.17 8.17s8.17-3.657 8.17-8.17v-10.894a8.169 8.169 0 0 0-8.17-8.17z"/><circle cx="283.768" cy="224.409" r="8.17"/></svg>