<svg xmlns="http://www.w3.org/2000/svg" viewBox="0 0 512 512"><path d="M503.83 381.277h-44.457L330.085 188.055c-5.74-8.577-16.925-15.657-27.787-18.191v-55.481h65.362c16.711 0 30.755-11.638 34.453-27.234h74.483c19.522 0 35.404-15.883 35.404-35.404S496.118 16.34 476.596 16.34H35.404C15.883 16.34 0 32.223 0 51.745s15.883 35.404 35.404 35.404h74.484c3.697 15.596 17.741 27.234 34.452 27.234h65.362v55.481c-10.862 2.534-22.048 9.615-27.786 18.191L52.628 381.277H8.17a8.17 8.17 0 0 0 0 16.34h495.659a8.17 8.17 0 0 0 8.17-8.17 8.168 8.168 0 0 0-8.169-8.17zM144.34 98.043c-10.511 0-19.064-8.553-19.064-19.064a8.17 8.17 0 0 0-8.17-8.17H35.404c-10.511 0-19.064-8.552-19.064-19.064s8.553-19.064 19.064-19.064h441.191c10.511 0 19.064 8.553 19.064 19.064s-8.551 19.064-19.064 19.064h-81.702a8.17 8.17 0 0 0-8.17 8.17c0 10.511-8.553 19.064-19.064 19.064h-73.532a8.17 8.17 0 0 0-8.17 8.17v62.638H264.17v-29.957c0-4.512-3.657-8.17-8.17-8.17s-8.17 3.658-8.17 8.17v29.957h-21.787v-54.468H256a8.17 8.17 0 0 0 0-16.34H144.34zM72.289 381.277l123.207-184.134c4.185-6.255 14.851-11.951 22.377-11.951h76.255c7.525 0 18.191 5.696 22.377 11.951l123.208 184.134H72.289zm131.966 65.497h-10.894a8.17 8.17 0 0 0 0 16.34h10.894a8.17 8.17 0 0 0 0-16.34zm299.575 32.545h-32.681c-4.513 0-8.17 3.658-8.17 8.17s3.657 8.17 8.17 8.17h32.681c4.513 0 8.17-3.658 8.17-8.17s-3.657-8.17-8.17-8.17zm-462.979 0H8.17a8.17 8.17 0 0 0 0 16.34h32.681a8.17 8.17 0 0 0 0-16.34zm397.617 0h-76.255c-4.513 0-8.17 3.658-8.17 8.17s3.657 8.17 8.17 8.17h76.255c4.513 0 8.17-3.658 8.17-8.17s-3.657-8.17-8.17-8.17zm-277.787-32.545h-36.804c-3.372-9.51-12.459-16.34-23.111-16.34H89.872c-10.652 0-19.739 6.83-23.111 16.34H51.745a8.17 8.17 0 0 0 0 16.34h21.787a8.17 8.17 0 0 0 8.17-8.17c0-4.506 3.665-8.17 8.17-8.17h10.894c4.506 0 8.17 3.665 8.17 8.17a8.17 8.17 0 0 0 8.17 8.17h43.574a8.17 8.17 0 0 0 .001-16.34zm81.702-32.817h-38.128a8.17 8.17 0 0 0 0 16.34h38.128a8.17 8.17 0 0 0 0-16.34z"/><path d="M310.468 223.319a8.17 8.17 0 0 0-8.17 8.17v76.255c0 6.007-4.887 10.894-10.894 10.894-6.007 0-10.894-4.887-10.894-10.894v-76.255a8.17 8.17 0 0 0-8.17-8.17h-32.68a8.17 8.17 0 0 0-8.17 8.17v43.574c0 6.007-4.887 10.894-10.894 10.894-6.007 0-10.894-4.887-10.894-10.894v-43.574a8.17 8.17 0 0 0-16.34 0v43.574c0 15.017 12.217 27.234 27.234 27.234s27.234-12.217 27.234-27.234V239.66h16.34v68.085c0 15.017 12.217 27.234 27.234 27.234 15.017 0 27.234-12.217 27.234-27.234V231.49a8.17 8.17 0 0 0-8.17-8.171z"/></svg>