<svg xmlns="http://www.w3.org/2000/svg" viewBox="0 0 512 512"><path d="M114.383 147.064a8.17 8.17 0 0 0-8.17 8.17v168.851c0 4.512 3.657 8.17 8.17 8.17s8.17-3.658 8.17-8.17V155.234a8.17 8.17 0 0 0-8.17-8.17zm0-98.043a8.17 8.17 0 0 0-8.17 8.17v65.362c0 4.512 3.657 8.17 8.17 8.17s8.17-3.658 8.17-8.17V57.192a8.17 8.17 0 0 0-8.17-8.171zm217.872 332.256h-152.51a8.17 8.17 0 0 0-8.17 8.17 8.17 8.17 0 0 0 8.17 8.17h152.511a8.17 8.17 0 0 0 8.17-8.17 8.17 8.17 0 0 0-8.171-8.17zm32.681 32.68H147.064a8.17 8.17 0 0 0-8.17 8.17 8.17 8.17 0 0 0 8.17 8.17h217.872a8.17 8.17 0 0 0 0-16.34zm-32.681 32.681h-152.51a8.17 8.17 0 0 0-8.17 8.17 8.17 8.17 0 0 0 8.17 8.17h152.511a8.17 8.17 0 0 0 8.17-8.17 8.17 8.17 0 0 0-8.171-8.17zm32.681 32.681H147.064c-4.513 0-8.17 3.658-8.17 8.17s3.657 8.17 8.17 8.17h217.872c4.513 0 8.17-3.658 8.17-8.17s-3.657-8.17-8.17-8.17zm-217.872-32.681H8.17a8.17 8.17 0 0 0-8.17 8.17 8.17 8.17 0 0 0 8.17 8.17h138.894a8.17 8.17 0 0 0 8.17-8.17 8.17 8.17 0 0 0-8.17-8.17zm356.766 0H364.936a8.17 8.17 0 0 0-8.17 8.17 8.17 8.17 0 0 0 8.17 8.17H503.83a8.17 8.17 0 0 0 8.17-8.17 8.17 8.17 0 0 0-8.17-8.17zm-32.681 32.681h-73.532c-4.513 0-8.17 3.658-8.17 8.17s3.657 8.17 8.17 8.17h73.532c4.513 0 8.17-3.658 8.17-8.17s-3.657-8.17-8.17-8.17zm-356.766 0H40.851c-4.513 0-8.17 3.658-8.17 8.17s3.657 8.17 8.17 8.17h73.532c4.513 0 8.17-3.658 8.17-8.17s-3.657-8.17-8.17-8.17zM256 114.383a8.17 8.17 0 0 0-8.17 8.17V280.51c0 4.512 3.657 8.17 8.17 8.17s8.17-3.658 8.17-8.17V122.553a8.17 8.17 0 0 0-8.17-8.17zm0-65.362a8.17 8.17 0 0 0-8.17 8.17v32.681c0 4.512 3.657 8.17 8.17 8.17s8.17-3.658 8.17-8.17v-32.68a8.17 8.17 0 0 0-8.17-8.171zM223.319 244.49a8.17 8.17 0 0 0-8.17 8.17v32.681c0 4.512 3.657 8.17 8.17 8.17s8.17-3.658 8.17-8.17V252.66a8.17 8.17 0 0 0-8.17-8.17zm0-162.788a8.17 8.17 0 0 0-8.17 8.17v130.107c0 4.512 3.657 8.17 8.17 8.17s8.17-3.658 8.17-8.17V89.872a8.17 8.17 0 0 0-8.17-8.17zm65.362 0a8.17 8.17 0 0 0-8.17 8.17V285.34c0 4.512 3.657 8.17 8.17 8.17s8.17-3.658 8.17-8.17V89.872a8.17 8.17 0 0 0-8.17-8.17z"/><path d="M503.83 381.277h-33.504c-3.257-15.982-15.875-28.601-31.857-31.858V65.362h65.362a8.17 8.17 0 0 0 8.17-8.17 8.17 8.17 0 0 0-8.17-8.17h-66.184c-3.795-18.624-20.3-32.681-40.029-32.681s-36.233 14.057-40.029 32.681h-28.878c-3.796-18.624-20.301-32.681-40.03-32.681h-65.362c-19.728 0-36.233 14.057-40.029 32.681h-28.878c-3.796-18.624-20.301-32.681-40.03-32.681S78.15 30.398 74.354 49.021H8.17A8.17 8.17 0 0 0 0 57.191a8.17 8.17 0 0 0 8.17 8.17h65.362v284.057c-15.982 3.257-28.6 15.876-31.857 31.858H8.17a8.17 8.17 0 0 0-8.17 8.17 8.17 8.17 0 0 0 8.17 8.17h138.894a8.17 8.17 0 0 0 8.17-8.17c0-19.521 15.882-35.404 35.403-35.404.307 0 .609-.02.907-.053.08-.009.157-.025.235-.036.222-.032.441-.068.657-.117.086-.02.171-.044.256-.066a7.393 7.393 0 0 0 .863-.276c.198-.076.391-.159.582-.249.08-.037.158-.074.236-.113.2-.103.394-.216.584-.334.06-.037.122-.071.182-.11.245-.162.483-.336.708-.523.029-.024.057-.052.085-.077.193-.164.378-.337.555-.519.066-.068.127-.139.191-.21.138-.153.272-.308.399-.471.029-.037.063-.07.091-.108 14.046-18.696 35.488-29.418 58.832-29.418s44.786 10.723 58.831 29.417c.028.038.062.071.091.108.126.162.26.318.399.471.063.07.125.143.191.21.176.182.362.354.555.519.029.025.056.053.085.077.225.187.463.361.708.523.06.039.122.073.182.11.19.119.383.232.584.334.078.04.157.076.236.113a7.89 7.89 0 0 0 .835.342c.2.069.403.129.61.183.085.022.17.047.256.066.216.049.436.085.657.117.078.011.156.027.235.036.298.033.6.053.907.053 19.521 0 35.403 15.883 35.403 35.404a8.17 8.17 0 0 0 8.17 8.17h138.894a8.17 8.17 0 0 0 .001-16.338zm-321.363-42.923c-22.001 3.506-39.424 20.922-42.928 42.923H58.598c3.373-9.509 12.454-16.34 23.104-16.34h48.216a8.17 8.17 0 0 0 8.17-8.17 8.17 8.17 0 0 0-8.17-8.17H89.872V57.192c0-13.516 10.996-24.511 24.511-24.511 13.515 0 24.511 10.995 24.511 24.511v276.301c0 4.512 3.657 8.17 8.17 8.17s8.17-3.658 8.17-8.17V65.362h27.234l-.001 272.992zM256 305.021c-21.29 0-41.285 7.297-57.193 20.491l.001-268.321c0-13.516 10.996-24.511 24.511-24.511h65.362c13.515 0 24.511 10.995 24.511 24.511l.001 268.321c-15.908-13.194-35.902-20.491-57.193-20.491zm116.461 76.256c-3.504-22.001-20.928-39.417-42.928-42.923l-.001-272.992h27.234v268.131c0 4.512 3.657 8.17 8.17 8.17s8.17-3.658 8.17-8.17V57.192c0-13.516 10.996-24.511 24.511-24.511 13.515 0 24.511 10.995 24.511 24.511v291.404h-40.046a8.17 8.17 0 0 0-8.17 8.17 8.17 8.17 0 0 0 8.17 8.17h48.216c10.651 0 19.732 6.831 23.104 16.34h-80.941z"/><path d="M397.617 147.064a8.17 8.17 0 0 0-8.17 8.17v168.851a8.17 8.17 0 0 0 8.17 8.17 8.17 8.17 0 0 0 8.17-8.17V155.234a8.17 8.17 0 0 0-8.17-8.17zm0-98.043a8.17 8.17 0 0 0-8.17 8.17v65.362a8.17 8.17 0 0 0 8.17 8.17 8.17 8.17 0 0 0 8.17-8.17V57.192a8.17 8.17 0 0 0-8.17-8.171z"/></svg>