<svg xmlns="http://www.w3.org/2000/svg" viewBox="0 0 512 512"><path d="M503.83 272.34h-46.3V108.936h2.723c16.519 0 29.957-13.439 29.957-29.957v-2.723h13.617a8.168 8.168 0 0 0 8.17-8.187c-.058-28.523-23.308-51.728-51.83-51.728h-86.979c-28.522 0-51.772 23.206-51.83 51.728a8.172 8.172 0 0 0 8.17 8.187h13.617v2.723c0 16.518 13.438 29.957 29.957 29.957h2.723V272.34h-78.977v-87.149h2.723c16.519 0 29.957-13.44 29.957-29.957v-2.723h13.617a8.168 8.168 0 0 0 8.17-8.187c-.058-28.523-23.308-51.728-51.83-51.728H212.51c-28.522 0-51.772 23.206-51.83 51.728a8.172 8.172 0 0 0 8.17 8.187h13.617v2.723c0 16.518 13.438 29.957 29.957 29.957h2.723v62.638c0 4.513 3.658 8.17 8.17 8.17s8.17-3.657 8.17-8.17v-62.638h49.021v87.149H136.172V108.936h2.723c16.519 0 29.957-13.439 29.957-29.957v-2.723h13.617a8.168 8.168 0 0 0 8.17-8.187c-.058-28.523-23.308-51.728-51.83-51.728H51.832C23.31 16.341.06 39.547.002 68.069a8.172 8.172 0 0 0 8.17 8.187h13.617v2.723c0 16.518 13.438 29.957 29.957 29.957h2.723V272.34H8.17A8.17 8.17 0 0 0 0 280.51a8.17 8.17 0 0 0 8.17 8.17h495.66a8.17 8.17 0 0 0 8.17-8.17 8.17 8.17 0 0 0-8.17-8.17zM152.513 78.979c0 7.509-6.108 13.617-13.617 13.617H95.321c-7.509 0-13.617-6.108-13.617-13.617v-2.723h70.808v2.723zM17.314 59.915c3.734-15.596 17.805-27.234 34.518-27.234h86.979c16.713 0 30.783 11.638 34.519 27.234H17.314zm34.433 32.681c-7.509 0-13.617-6.108-13.617-13.617v-2.723h27.234v2.723a29.75 29.75 0 0 0 3.288 13.617H51.747zm68.085 179.744H70.811V108.936h49.021V272.34zm58.161-136.17c3.734-15.596 17.805-27.234 34.518-27.234h86.979c16.713 0 30.783 11.638 34.519 27.234H177.993zm102.518 19.064c0 7.509-6.108 13.617-13.617 13.617h-54.468c-7.509 0-13.617-6.108-13.617-13.617v-2.723h81.702v2.723zm16.34 0v-2.723h16.34v2.723c0 7.509-6.108 13.617-13.617 13.617h-6.011a29.763 29.763 0 0 0 3.288-13.617zM473.87 78.979c0 7.509-6.108 13.617-13.617 13.617h-43.574c-7.509 0-13.617-6.108-13.617-13.617v-2.723h70.808v2.723zM338.672 59.915c3.734-15.596 17.805-27.234 34.517-27.234h86.979c16.713 0 30.783 11.638 34.519 27.234H338.672zm34.432 32.681c-7.509 0-13.617-6.108-13.617-13.617v-2.723h27.234v2.723a29.75 29.75 0 0 0 3.288 13.617h-16.905zm68.085 179.744h-49.021V108.936h49.021V272.34zm62.641 130.724h-87.149a8.17 8.17 0 0 0-8.17 8.17 8.17 8.17 0 0 0 8.17 8.17h87.149a8.17 8.17 0 0 0 8.17-8.17 8.17 8.17 0 0 0-8.17-8.17zm-119.83 0H8.17a8.17 8.17 0 0 0-8.17 8.17 8.17 8.17 0 0 0 8.17 8.17H384a8.17 8.17 0 0 0 8.17-8.17 8.17 8.17 0 0 0-8.17-8.17zm119.83-98.043H8.17a8.17 8.17 0 0 0-8.17 8.17 8.17 8.17 0 0 0 8.17 8.17h495.66a8.17 8.17 0 0 0 8.17-8.17 8.17 8.17 0 0 0-8.17-8.17zm-87.151 130.588l-408.511.136a8.17 8.17 0 0 0 .002 16.34l408.511-.136c7.509 0 13.617 6.108 13.617 13.617 0 7.584-6.108 13.753-13.617 13.753H8.17a8.17 8.17 0 0 0-8.17 8.17 8.17 8.17 0 0 0 8.17 8.17h408.511c16.519 0 29.957-13.5 29.957-30.094 0-16.517-13.438-29.956-29.959-29.956zm-141.615-97.907h-65.362a8.17 8.17 0 0 0-8.17 8.17 8.17 8.17 0 0 0 8.17 8.17h65.362a8.17 8.17 0 0 0 8.17-8.17 8.17 8.17 0 0 0-8.17-8.17zm163.404 0H307.745a8.17 8.17 0 0 0-8.17 8.17 8.17 8.17 0 0 0 8.17 8.17h130.723a8.17 8.17 0 0 0 8.17-8.17 8.17 8.17 0 0 0-8.17-8.17zm-326.808 0H8.17a8.17 8.17 0 0 0-8.17 8.17 8.17 8.17 0 0 0 8.17 8.17h103.49a8.17 8.17 0 0 0 8.17-8.17 8.17 8.17 0 0 0-8.17-8.17zm392.17 32.681H351.319a8.17 8.17 0 0 0-8.17 8.17 8.17 8.17 0 0 0 8.17 8.17H503.83a8.17 8.17 0 0 0 8.17-8.17 8.17 8.17 0 0 0-8.17-8.17z"/></svg>