<svg xmlns="http://www.w3.org/2000/svg" viewBox="0 0 470 470"><circle cx="203.787" cy="406.467" r="7.5"/><circle cx="302.787" cy="318.467" r="7.5"/><circle cx="273.787" cy="293.578" r="7.5"/><path d="M351.651 275.654c-7.971-19.243-22.958-34.231-42.202-42.202-9.536-3.95-19.564-5.953-29.806-5.953-12.997 0-25.788 3.288-37.144 9.423v-26.001a7.5 7.5 0 0 0-15 0v26.001c-11.356-6.135-24.147-9.423-37.144-9.423-10.242 0-20.27 2.003-29.806 5.953-19.243 7.971-34.231 22.958-42.202 42.202-7.971 19.243-7.971 40.439 0 59.682L161.6 439.755C169.21 458.128 186.978 470 206.864 470a48.7 48.7 0 0 0 18.726-3.739A49.011 49.011 0 0 0 235 461.1a48.981 48.981 0 0 0 9.41 5.161A48.696 48.696 0 0 0 263.136 470c19.886 0 37.654-11.872 45.264-30.245l43.251-104.419c7.971-19.243 7.972-40.439 0-59.682zm-13.858 53.942l-43.251 104.419A33.894 33.894 0 0 1 263.136 455c-4.457 0-8.826-.874-12.986-2.597a33.846 33.846 0 0 1-10.06-6.427c-1.437-1.328-3.264-1.992-5.09-1.992s-3.654.664-5.09 1.992a33.853 33.853 0 0 1-10.06 6.427A33.764 33.764 0 0 1 206.864 455a33.894 33.894 0 0 1-31.406-20.985l-43.251-104.419c-6.438-15.542-6.438-32.66 0-48.202s18.542-27.646 34.084-34.083c7.707-3.192 15.804-4.811 24.065-4.811 14.483 0 28.654 5.055 39.903 14.232.341.273.681.502 1.038.706.024.014.047.03.071.043.337.187.692.343 1.059.477.054.02.107.041.161.059.35.119.712.213 1.083.279.062.011.125.019.187.029.373.057.753.096 1.143.096s.769-.039 1.143-.096c.063-.01.125-.017.187-.029.372-.067.733-.16 1.083-.279.054-.018.107-.039.161-.059.366-.134.722-.29 1.059-.477.024-.013.047-.03.071-.043a7.474 7.474 0 0 0 1.014-.689c11.273-9.194 25.444-14.249 39.927-14.249 8.262 0 16.359 1.619 24.065 4.811 15.542 6.438 27.646 18.542 34.084 34.083s6.436 32.66-.002 48.202zm-217.898-91.175a7.5 7.5 0 0 0 7.5-7.5V7.5a7.5 7.5 0 0 0-15 0v223.421a7.5 7.5 0 0 0 7.5 7.5zm57.552-115.084a7.5 7.5 0 0 0 7.5-7.5V7.5a7.5 7.5 0 0 0-15 0v108.337a7.5 7.5 0 0 0 7.5 7.5zm0 90a7.5 7.5 0 0 0 7.5-7.5v-60a7.5 7.5 0 0 0-15 0v60a7.5 7.5 0 0 0 7.5 7.5zM235 188.421a7.5 7.5 0 0 0 7.5-7.5V7.5a7.5 7.5 0 0 0-15 0v173.421a7.5 7.5 0 0 0 7.5 7.5zm57.553 24.917a7.5 7.5 0 0 0 7.5-7.5V7.5a7.5 7.5 0 0 0-15 0v198.338a7.5 7.5 0 0 0 7.5 7.5zM350.105 75a7.5 7.5 0 0 0 7.5-7.5v-60a7.5 7.5 0 0 0-15 0v60a7.5 7.5 0 0 0 7.5 7.5zm0 163.421a7.5 7.5 0 0 0 7.5-7.5V97.5a7.5 7.5 0 0 0-15 0v133.421a7.5 7.5 0 0 0 7.5 7.5z"/></svg>