<svg xmlns="http://www.w3.org/2000/svg" viewBox="0 0 470 470"><path d="M398.559 166.02c-8.85-3.404-18.292-6.493-28.22-9.265 2.563-9.984 4.609-19.706 6.087-29.073 7.689-48.757-.808-82.959-23.925-96.306-6.72-3.88-14.443-5.848-22.954-5.848-26.882 0-60.85 19.965-95.118 53.681-7.486-7.352-15.006-14.105-22.502-20.167-38.379-31.038-72.25-40.781-95.365-27.434-14.856 8.577-23.891 26.093-26.126 50.652a7.498 7.498 0 0 0 6.789 8.148c4.138.382 7.772-2.664 8.148-6.789 1.238-13.594 5.484-31.398 18.688-39.021 17.11-9.881 45.699-.365 78.434 26.106 7.143 5.776 14.314 12.217 21.461 19.233-14.373 15.293-28.676 32.894-42.41 52.347-24.16 2.199-47.172 5.888-68.291 10.948-3.698-14.376-6.238-28.093-7.491-40.827a7.49 7.49 0 0 0-8.198-6.729 7.499 7.499 0 0 0-6.729 8.198c1.326 13.474 4.008 27.966 7.917 43.133-9.596 2.706-18.73 5.712-27.311 9.012C25.371 183.739 0 208.199 0 234.892s25.371 51.153 71.441 68.872c8.85 3.404 18.292 6.493 28.22 9.265-2.563 9.984-4.609 19.706-6.087 29.073-7.689 48.757.808 82.959 23.925 96.306 6.72 3.88 14.443 5.848 22.954 5.848 26.573 0 60.071-19.516 93.938-52.531 7.255 7.086 14.54 13.609 21.803 19.482 27.161 21.966 52.059 33.266 72.489 33.265 8.438-.001 16.119-1.93 22.876-5.831 23.117-13.347 31.614-47.549 23.925-96.306-1.477-9.366-3.523-19.087-6.086-29.07 15.439-4.252 29.64-9.26 42.218-14.96a7.5 7.5 0 0 0 3.735-9.927 7.499 7.499 0 0 0-9.927-3.735c-11.912 5.398-25.377 10.15-40.042 14.192-6.063-20.261-14.137-41.412-23.976-62.808 10.281-22.122 18.685-44.004 24.943-64.936C422.014 186.677 455 211.293 455 234.892c0 15.247-13.296 27.827-24.45 35.694a7.5 7.5 0 0 0 8.646 12.258C459.349 268.629 470 252.047 470 234.892c0-26.693-25.371-51.153-71.441-68.872zM329.546 40.529c5.844 0 11.044 1.291 15.454 3.838 17.112 9.88 23.166 39.396 16.607 80.979-1.405 8.907-3.35 18.159-5.789 27.669-21.207-5.028-44.299-8.68-68.532-10.835-13.596-19.242-27.866-36.839-42.375-52.253a326.396 326.396 0 0 1 7.964-7.602c29.252-26.953 56.48-41.796 76.671-41.796zm-95.096 60.152c11.317 12.062 22.5 25.517 33.323 40.102a602.537 602.537 0 0 0-32.773-.891c-11.431 0-22.738.321-33.855.947 10.808-14.56 22.006-28.07 33.305-40.158zm-.053 269.657c-11.718-12.42-23.296-26.341-34.486-41.466a600.956 600.956 0 0 0 35.089 1.02c11.419 0 22.732-.333 33.871-.969-11.18 15.064-22.777 29.01-34.474 41.415zm.603-55.446c-16.115 0-31.578-.624-46.314-1.784a581.82 581.82 0 0 1-23.907-37.984 577.675 577.675 0 0 1-20.657-39.155 580.792 580.792 0 0 1 21.596-41.077 573.598 573.598 0 0 1 24.177-38.307c14.374-1.099 29.429-1.693 45.105-1.693 15.273 0 29.956.564 43.994 1.609a581.404 581.404 0 0 1 24.349 38.623 581.254 581.254 0 0 1 21.5 40.873 582.715 582.715 0 0 1-20.56 38.894 573.62 573.62 0 0 1-24.13 38.239A576.594 576.594 0 0 1 235 314.892zm-65.615-3.655c-18.453-2.132-35.582-5.129-51.205-8.81 4.744-15.789 10.758-32.16 17.929-48.79a594 594 0 0 0 15.679 28.987 601.47 601.47 0 0 0 17.597 28.613zm1.19-152.829a598.7 598.7 0 0 0-17.847 28.984 601.367 601.367 0 0 0-16.677 30.928c-7.543-17.318-13.858-34.376-18.788-50.749 16.203-3.859 34.042-6.983 53.312-9.163zM15 234.892c0-23.472 32.634-47.951 87.757-63.55 6.235 20.802 14.601 42.62 24.805 64.647-9.813 21.362-17.865 42.477-23.913 62.705C47.986 283.107 15 258.491 15 234.892zm125.454 194.363c-5.844 0-11.044-1.291-15.454-3.838-17.112-9.88-23.166-39.396-16.607-80.979 1.405-8.907 3.35-18.159 5.789-27.669 20.518 4.865 42.8 8.441 66.173 10.619 13.951 19.807 28.618 37.883 43.53 53.648a324.655 324.655 0 0 1-6.76 6.423c-29.252 26.954-56.48 41.796-76.671 41.796zm220.214-84.584c6.559 41.583.505 71.099-16.607 80.979-17.113 9.879-45.699.364-78.434-26.106-6.893-5.574-13.814-11.767-20.712-18.499 14.761-15.578 29.462-33.603 43.563-53.579 23.432-2.151 45.822-5.697 66.389-10.509 2.445 9.526 4.394 18.793 5.801 27.714zm-9.83-42.153c-16.064 3.733-33.311 6.67-51.339 8.745a598.804 598.804 0 0 0 17.773-28.871 602.935 602.935 0 0 0 15.579-28.757c7.195 16.66 13.228 33.063 17.987 48.883zm-17.918-84.145a600.756 600.756 0 0 0-16.587-30.749 600.647 600.647 0 0 0-18.077-29.348c19.355 2.146 37.276 5.243 53.564 9.081-4.955 16.493-11.302 33.623-18.9 51.016z"/><path d="M235 197.392c-20.678 0-37.5 16.822-37.5 37.5s16.822 37.5 37.5 37.5 37.5-16.822 37.5-37.5-16.822-37.5-37.5-37.5zm0 60c-12.406 0-22.5-10.094-22.5-22.5s10.094-22.5 22.5-22.5 22.5 10.094 22.5 22.5-10.094 22.5-22.5 22.5z"/></svg>