<svg xmlns="http://www.w3.org/2000/svg" viewBox="0 0 470 470"><path d="M235 135.95a7.5 7.5 0 0 0 7.5-7.5v-30c0-4.142-3.357-7.5-7.5-7.5s-7.5 3.358-7.5 7.5v30a7.5 7.5 0 0 0 7.5 7.5zm0 222.848a7.5 7.5 0 0 0 7.5-7.5V158.45c0-4.142-3.357-7.5-7.5-7.5s-7.5 3.358-7.5 7.5v192.848a7.5 7.5 0 0 0 7.5 7.5z"/><path d="M462.5 75.527a7.5 7.5 0 0 0-7.5 7.5v314.035H263.732a11.976 11.976 0 0 0-9.675 4.907l-6.429 7.502-25.254.002-6.432-7.502a11.988 11.988 0 0 0-9.676-4.909H15V83.027c0-4.142-3.357-7.5-7.5-7.5S0 78.885 0 83.027v321.535a7.5 7.5 0 0 0 7.5 7.5h197.337l8.396 9.793a7.5 7.5 0 0 0 5.694 2.618l32.152-.003c2.189 0 4.27-.957 5.694-2.62l8.389-9.789H462.5a7.5 7.5 0 0 0 7.5-7.5V83.027a7.5 7.5 0 0 0-7.5-7.5z"/><path d="M37.5 382.062h168.768a26.957 26.957 0 0 1 22.488 12.063 7.501 7.501 0 0 0 12.489-.001 26.951 26.951 0 0 1 22.487-12.062H432.5a7.5 7.5 0 0 0 7.5-7.5V53.027a7.5 7.5 0 0 0-7.5-7.5H263.732A41.874 41.874 0 0 0 235 56.9a41.88 41.88 0 0 0-28.732-11.373H37.5a7.5 7.5 0 0 0-7.5 7.5v321.535a7.5 7.5 0 0 0 7.5 7.5zM45 60.527h161.268c9.056 0 17.462 4.514 22.486 12.075a7.498 7.498 0 0 0 12.493 0c5.023-7.561 13.429-12.074 22.485-12.074H425v306.535H263.732a41.9 41.9 0 0 0-28.733 11.363 41.898 41.898 0 0 0-28.731-11.363H45V60.527z"/><path d="M195 85.527H77.5c-4.143 0-7.5 3.358-7.5 7.5s3.357 7.5 7.5 7.5H195c4.143 0 7.5-3.358 7.5-7.5s-3.357-7.5-7.5-7.5zm0 30H77.5c-4.143 0-7.5 3.358-7.5 7.5s3.357 7.5 7.5 7.5H195c4.143 0 7.5-3.358 7.5-7.5s-3.357-7.5-7.5-7.5zm0 30H77.5c-4.143 0-7.5 3.358-7.5 7.5s3.357 7.5 7.5 7.5H195c4.143 0 7.5-3.358 7.5-7.5s-3.357-7.5-7.5-7.5zm0 30H77.5c-4.143 0-7.5 3.358-7.5 7.5s3.357 7.5 7.5 7.5H195c4.143 0 7.5-3.358 7.5-7.5s-3.357-7.5-7.5-7.5zm0 30H77.5c-4.143 0-7.5 3.358-7.5 7.5s3.357 7.5 7.5 7.5H195c4.143 0 7.5-3.358 7.5-7.5s-3.357-7.5-7.5-7.5zm-117.5 45h58.75c4.143 0 7.5-3.358 7.5-7.5s-3.357-7.5-7.5-7.5H77.5c-4.143 0-7.5 3.358-7.5 7.5s3.357 7.5 7.5 7.5zm117.5 15H77.5a7.5 7.5 0 0 0-7.5 7.5v61.535a7.5 7.5 0 0 0 7.5 7.5H195a7.5 7.5 0 0 0 7.5-7.5v-61.535a7.5 7.5 0 0 0-7.5-7.5zm-7.5 61.535H85v-46.535h102.5v46.535zm77.5-105h117.5c4.143 0 7.5-3.358 7.5-7.5s-3.357-7.5-7.5-7.5H265c-4.143 0-7.5 3.358-7.5 7.5s3.357 7.5 7.5 7.5zm0 30h117.5c4.143 0 7.5-3.358 7.5-7.5s-3.357-7.5-7.5-7.5H265c-4.143 0-7.5 3.358-7.5 7.5s3.357 7.5 7.5 7.5zm0 30h117.5c4.143 0 7.5-3.358 7.5-7.5s-3.357-7.5-7.5-7.5H265c-4.143 0-7.5 3.358-7.5 7.5s3.357 7.5 7.5 7.5zm0 30h117.5c4.143 0 7.5-3.358 7.5-7.5s-3.357-7.5-7.5-7.5H265c-4.143 0-7.5 3.358-7.5 7.5s3.357 7.5 7.5 7.5zm0 30h58.75c4.143 0 7.5-3.358 7.5-7.5s-3.357-7.5-7.5-7.5H265c-4.143 0-7.5 3.358-7.5 7.5s3.357 7.5 7.5 7.5zm0-165c-4.143 0-7.5 3.358-7.5 7.5s3.357 7.5 7.5 7.5c10.753 0 19.776-2.708 27.572-7.136a7.533 7.533 0 0 0 1.125-.654c12.538-7.501 21.85-19.482 30.053-31.738 8.2 12.251 17.508 24.228 30.039 31.729.365.259.754.485 1.164.676 7.79 4.419 16.806 7.122 27.548 7.122 4.143 0 7.5-3.358 7.5-7.5s-3.357-7.5-7.5-7.5c-6.348 0-11.895-1.239-16.875-3.451v-69.633c4.98-2.212 10.527-3.451 16.875-3.451 4.143 0 7.5-3.358 7.5-7.5s-3.357-7.5-7.5-7.5c-10.746 0-19.765 2.705-27.558 7.127-.403.19-.788.412-1.148.667-12.534 7.501-21.843 19.479-30.044 31.732-8.205-12.258-17.518-24.24-30.059-31.741a7.452 7.452 0 0 0-1.109-.644c-7.798-4.431-16.824-7.141-27.582-7.141-4.143 0-7.5 3.358-7.5 7.5s3.357 7.5 7.5 7.5c6.348 0 11.895 1.239 16.875 3.451v69.633c-4.981 2.213-10.528 3.452-16.876 3.452zm85.625-62.267v47.999c-6.457-6.591-12.117-14.957-17.957-23.999 5.84-9.043 11.5-17.41 17.957-24zm-53.75 0c6.457 6.591 12.117 14.957 17.957 23.999-5.841 9.042-11.5 17.409-17.957 23.999v-47.998z"/></svg>