<svg xmlns="http://www.w3.org/2000/svg" viewBox="0 0 470 470"><path d="M311.25 353.75H250a7.5 7.5 0 0 0-7.5 7.5v61.25a7.5 7.5 0 0 0 7.5 7.5h61.25a7.5 7.5 0 0 0 7.5-7.5v-61.25a7.5 7.5 0 0 0-7.5-7.5zm-7.5 61.25H257.5v-46.25h46.25V415zM220 353.75h-61.25a7.5 7.5 0 0 0-7.5 7.5v61.25a7.5 7.5 0 0 0 7.5 7.5H220a7.5 7.5 0 0 0 7.5-7.5v-61.25a7.5 7.5 0 0 0-7.5-7.5zM212.5 415h-46.25v-46.25h46.25V415zm7.5-152.5h-61.25a7.5 7.5 0 0 0-7.5 7.5v61.25a7.5 7.5 0 0 0 7.5 7.5H220a7.5 7.5 0 0 0 7.5-7.5V270a7.5 7.5 0 0 0-7.5-7.5zm-7.5 61.25h-46.25V277.5h46.25v46.25zm-83.75 30H67.5a7.5 7.5 0 0 0-7.5 7.5v61.25a7.5 7.5 0 0 0 7.5 7.5h61.25a7.5 7.5 0 0 0 7.5-7.5v-61.25a7.5 7.5 0 0 0-7.5-7.5zm-7.5 61.25H75v-46.25h46.25V415zM402.5 202.5h-61.25a7.5 7.5 0 0 0-7.5 7.5v30a7.5 7.5 0 0 0 7.5 7.5h61.25a7.5 7.5 0 0 0 7.5-7.5v-30a7.5 7.5 0 0 0-7.5-7.5zm-7.5 30h-46.25v-15H395v15zm-83.75 30H250a7.5 7.5 0 0 0-7.5 7.5v61.25a7.5 7.5 0 0 0 7.5 7.5h61.25a7.5 7.5 0 0 0 7.5-7.5V270a7.5 7.5 0 0 0-7.5-7.5zm-7.5 61.25H257.5V277.5h46.25v46.25zm-175-61.25H67.5A7.5 7.5 0 0 0 60 270v61.25a7.5 7.5 0 0 0 7.5 7.5h61.25a7.5 7.5 0 0 0 7.5-7.5V270a7.5 7.5 0 0 0-7.5-7.5zm-7.5 61.25H75V277.5h46.25v46.25zm190-121.25H250a7.5 7.5 0 0 0-7.5 7.5v30a7.5 7.5 0 0 0 7.5 7.5h61.25a7.5 7.5 0 0 0 7.5-7.5v-30a7.5 7.5 0 0 0-7.5-7.5zm-7.5 30H257.5v-15h46.25v15z"/><path d="M402.5 0h-335C46.822 0 30 16.822 30 37.5v395c0 20.678 16.822 37.5 37.5 37.5h335c20.678 0 37.5-16.822 37.5-37.5v-395C440 16.822 423.178 0 402.5 0zM425 432.5c0 12.407-10.094 22.5-22.5 22.5h-335C55.094 455 45 444.907 45 432.5v-395C45 25.093 55.094 15 67.5 15h335c12.406 0 22.5 10.093 22.5 22.5v395z"/><path d="M402.5 262.5h-61.25a7.5 7.5 0 0 0-7.5 7.5v152.5a7.5 7.5 0 0 0 7.5 7.5h61.25a7.5 7.5 0 0 0 7.5-7.5V330c0-4.142-3.357-7.5-7.5-7.5s-7.5 3.358-7.5 7.5v85h-46.25V277.5H395V300c0 4.142 3.357 7.5 7.5 7.5s7.5-3.358 7.5-7.5v-30a7.5 7.5 0 0 0-7.5-7.5zm0-222.5h-335a7.5 7.5 0 0 0-7.5 7.5V170a7.5 7.5 0 0 0 7.5 7.5h61.25c4.143 0 7.5-3.358 7.5-7.5s-3.357-7.5-7.5-7.5H75V55h320v107.5H158.75c-4.143 0-7.5 3.358-7.5 7.5s3.357 7.5 7.5 7.5H402.5a7.5 7.5 0 0 0 7.5-7.5V47.5a7.5 7.5 0 0 0-7.5-7.5z"/><path d="M342.5 85h30c4.143 0 7.5-3.358 7.5-7.5s-3.357-7.5-7.5-7.5h-30c-4.143 0-7.5 3.358-7.5 7.5s3.357 7.5 7.5 7.5zm0 60h30c4.143 0 7.5-3.358 7.5-7.5s-3.357-7.5-7.5-7.5h-30c-4.143 0-7.5 3.358-7.5 7.5s3.357 7.5 7.5 7.5zm-7.5-27.5c0 4.142 3.357 7.5 7.5 7.5s7.5-3.358 7.5-7.5v-20c0-4.142-3.357-7.5-7.5-7.5s-7.5 3.358-7.5 7.5v20z"/></svg>