<svg xmlns="http://www.w3.org/2000/svg" viewBox="0 0 470 470"><path d="M401.17 68.83C356.784 24.444 297.771 0 235 0 177.985 0 122.992 20.685 80.152 58.243c-3.115 2.73-3.426 7.47-.695 10.584s7.469 3.427 10.584.695C130.144 34.363 181.625 15 235 15c121.309 0 220 98.691 220 220s-98.691 220-220 220S15 356.309 15 235c0-53.376 19.363-104.857 54.523-144.96a7.501 7.501 0 0 0-11.279-9.889C20.685 122.991 0 177.984 0 235c0 62.771 24.444 121.784 68.83 166.17S172.229 470 235 470s121.784-24.444 166.17-68.83S470 297.771 470 235s-24.444-121.784-68.83-166.17z"/><path d="M305.71 295.104a7.5 7.5 0 0 0-10.606.001 85.347 85.347 0 0 1-11.279 9.469l-7.553-13.083C293.672 278.743 305 258.174 305 235c0-38.598-31.402-70-70-70-26.523 0-49.648 14.828-61.521 36.63l-13.974-5.738a85.193 85.193 0 0 1 15.391-20.995 7.5 7.5 0 0 0-10.606-10.607C145.402 183.177 135 208.289 135 235c0 4.143 3.358 7.5 7.5 7.5s7.5-3.357 7.5-7.5a85.247 85.247 0 0 1 3.801-25.236l13.982 5.741A69.771 69.771 0 0 0 165 235c0 38.598 31.402 70 70 70a69.57 69.57 0 0 0 28.291-5.994l7.55 13.078a84.233 84.233 0 0 1-13.83 5.04 7.502 7.502 0 0 0 1.931 14.748 7.52 7.52 0 0 0 1.941-.256 99.502 99.502 0 0 0 24.064-9.971c.019-.011.039-.017.057-.028.038-.022.073-.049.11-.071a100.31 100.31 0 0 0 20.596-15.836 7.497 7.497 0 0 0 0-10.606zM180 235c0-30.327 24.673-55 55-55s55 24.673 55 55-24.673 55-55 55-55-24.673-55-55zm112.504 99.614C275.108 344.68 255.224 350 235 350c-4.142 0-7.5 3.357-7.5 7.5s3.358 7.5 7.5 7.5c22.858 0 45.34-6.018 65.016-17.403a7.497 7.497 0 0 0 2.735-10.247 7.497 7.497 0 0 0-10.247-2.736z"/><path d="M169.984 122.403C129.9 145.596 105 188.74 105 235c0 4.143 3.358 7.5 7.5 7.5s7.5-3.357 7.5-7.5c0-40.924 22.031-79.094 57.496-99.614a7.5 7.5 0 1 0-7.512-12.983zm-48.121-.541c-19.892 19.893-34.225 44.692-41.449 71.721a7.5 7.5 0 0 0 14.491 3.874c6.544-24.484 19.534-46.956 37.564-64.986a7.5 7.5 0 0 0-10.606-10.609z"/><path d="M379.966 369.329a7.5 7.5 0 0 0 10.576-.801C422.436 331.411 440 283.989 440 235c0-113.037-91.963-205-205-205-113.038 0-205 91.963-205 205s91.962 205 205 205c48.989 0 96.411-17.564 133.528-49.458a7.5 7.5 0 1 0-9.775-11.377C324.354 408.722 280.404 425 235 425c-104.766 0-190-85.233-190-190S130.234 45 235 45c104.767 0 190 85.233 190 190 0 45.404-16.278 89.354-45.835 123.753a7.5 7.5 0 0 0 .801 10.576z"/><circle cx="204.5" cy="385.5" r="7.5"/><circle cx="187.5" cy="90" r="7.5"/><path d="M235.008 133.887c12.417 0 23.333-8.384 26.549-20.388 3.925-14.647-4.799-29.756-19.445-33.68a27.568 27.568 0 0 0-7.131-.942c-12.416 0-23.333 8.384-26.55 20.388-3.924 14.647 4.8 29.756 19.446 33.68 2.333.624 4.733.942 7.131.942zm-12.087-30.741c1.462-5.458 6.422-9.27 12.061-9.27 1.088 0 2.181.145 3.249.431 6.657 1.784 10.622 8.651 8.839 15.31-1.463 5.458-6.422 9.27-12.061 9.27-1.088 0-2.181-.145-3.249-.431-6.658-1.784-10.623-8.652-8.839-15.31zm-88.51 252.997c.223.214.457.421.712.61.027.02.056.033.083.052 1.907 1.564 3.838 3.1 5.82 4.576a27.276 27.276 0 0 0 16.407 5.443c8.657 0 16.909-4.142 22.074-11.078 9.055-12.163 6.527-29.425-5.635-38.48a103.116 103.116 0 0 1-21.138-21.138c-5.166-6.937-13.417-11.077-22.073-11.077-5.951 0-11.625 1.883-16.407 5.444-12.163 9.056-14.689 26.318-5.634 38.48a158.077 158.077 0 0 0 25.791 27.168zm-11.199-53.618a12.386 12.386 0 0 1 7.448-2.475c3.999 0 7.659 1.836 10.042 5.036l-1.816 1.352a7.501 7.501 0 0 0 4.484 13.516 7.47 7.47 0 0 0 4.473-1.484l2.598-1.934a118.209 118.209 0 0 0 14.471 12.762c5.528 4.116 6.677 11.963 2.562 17.491-2.383 3.2-6.043 5.036-10.042 5.036-2.699 0-5.275-.855-7.449-2.474l1.613-2.167a7.5 7.5 0 0 0-1.538-10.494 7.498 7.498 0 0 0-10.495 1.537l-1.137 1.527a143.12 143.12 0 0 1-17.778-19.736c-4.113-5.529-2.964-13.375 2.564-17.493zm220.222 9.297a27.328 27.328 0 0 0 10.88 2.254 27.49 27.49 0 0 0 25.262-16.615 159.151 159.151 0 0 0 2.752-6.871c.014-.031.033-.058.047-.089.125-.291.224-.586.311-.882a158.12 158.12 0 0 0 8.752-36.427c.691-5.924-.516-11.777-3.49-16.929-4.328-7.497-12.04-12.572-20.631-13.577a27.724 27.724 0 0 0-3.217-.188c-13.938 0-25.671 10.45-27.29 24.308a103.185 103.185 0 0 1-7.736 28.875c-2.909 6.745-3.017 14.22-.305 21.046 2.711 6.826 7.919 12.187 14.665 15.095zm20.665-74.324c.488 0 .985.028 1.476.086 3.963.464 7.383 2.716 9.382 6.18a12.385 12.385 0 0 1 1.582 7.687 143.235 143.235 0 0 1-5.528 25.981l-1.748-.754a7.499 7.499 0 0 0-9.856 3.917 7.498 7.498 0 0 0 3.917 9.856l2.48 1.07a12.501 12.501 0 0 1-11.489 7.555c-1.697 0-3.36-.346-4.94-1.027a12.42 12.42 0 0 1-6.666-6.861 12.421 12.421 0 0 1 .139-9.567 118.179 118.179 0 0 0 6.151-18.287l3.215.376a7.501 7.501 0 0 0 1.742-14.898l-2.247-.263c.734-6.301 6.062-11.051 12.39-11.051zm-24.759-52.549c5.951 0 11.625-1.883 16.407-5.444 5.892-4.387 9.722-10.806 10.786-18.073s-.766-14.516-5.152-20.407c-7.496-10.067-16.16-19.164-25.792-27.168a7.625 7.625 0 0 0-.711-.61c-.034-.026-.071-.046-.106-.071a158.822 158.822 0 0 0-5.797-4.557c-4.783-3.561-10.456-5.443-16.407-5.443-8.657 0-16.908 4.142-22.073 11.078-9.056 12.162-6.528 29.425 5.635 38.48a103.14 103.14 0 0 1 21.138 21.138c5.165 6.937 13.417 11.077 22.072 11.077zm-34.253-44.246c-5.528-4.116-6.678-11.963-2.562-17.491 2.383-3.2 6.043-5.036 10.042-5.036 2.699 0 5.274.855 7.448 2.475l-1.612 2.167a7.5 7.5 0 1 0 12.031 8.957l1.137-1.527a143.12 143.12 0 0 1 17.778 19.736c1.994 2.678 2.825 5.972 2.342 9.275s-2.225 6.221-4.904 8.216a12.383 12.383 0 0 1-7.447 2.475c-3.998 0-7.659-1.836-10.042-5.036l1.815-1.352a7.5 7.5 0 0 0-8.959-12.031l-2.597 1.934a118.041 118.041 0 0 0-14.47-12.762z"/></svg>