<svg xmlns="http://www.w3.org/2000/svg" viewBox="0 0 470 470"><path d="M329.955 63.08h-15.007a7.5 7.5 0 0 0 0 15h15.007c8.591 0 15.58 6.989 15.58 15.579v345.762c0 8.59-6.989 15.579-15.58 15.579H65.045c-8.591 0-15.58-6.989-15.58-15.579V93.659c0-8.59 6.989-15.579 15.58-15.579h15.007a7.5 7.5 0 0 0 0-15H65.045c-16.862 0-30.58 13.718-30.58 30.579v345.762c0 16.861 13.718 30.579 30.58 30.579h264.91c16.862 0 30.58-13.718 30.58-30.579V93.659c0-16.862-13.718-30.579-30.58-30.579zm105.58 332.545V145.92a7.392 7.392 0 0 0-.111-1.236 7.517 7.517 0 0 0-.241-1.032l-17.486-56.307a7.5 7.5 0 0 0-14.326 0l-17.487 56.31a7.621 7.621 0 0 0-.24 1.029c-.012.074-.024.147-.034.221a7.538 7.538 0 0 0-.076 1.014v273.455c0 11.373 9.252 20.625 20.625 20.625h8.75c11.373 0 20.625-9.252 20.625-20.625.001.001.001-23.748.001-23.749zm-25-280.767l7.317 23.563h-14.635l7.318-23.563zm-10 38.562h20v234.705h-20V153.42zm20 265.955A5.63 5.63 0 0 1 414.91 425h-8.75a5.63 5.63 0 0 1-5.625-5.625v-16.25h20v16.25z"/><path d="M274.947 346.913H120.053a7.5 7.5 0 0 0 0 15h154.895a7.5 7.5 0 1 0-.001-15zm-77.447 30h-77.447a7.5 7.5 0 0 0 0 15H197.5a7.5 7.5 0 0 0 0-15z"/><path d="M64.465 100.579V432.5a7.5 7.5 0 0 0 7.5 7.5h251.069a7.5 7.5 0 0 0 7.5-7.5V100.579a7.5 7.5 0 0 0-7.5-7.5h-30.587v-22.5c0-16.862-13.718-30.58-30.579-30.58h-17.459C240.803 17.359 221.14 0 197.5 0s-43.303 17.359-46.909 40h-17.459c-16.861 0-30.579 13.718-30.579 30.58v22.5H71.965a7.499 7.499 0 0 0-7.5 7.499zm53.088-29.999c0-8.591 6.989-15.58 15.579-15.58h24.367a7.5 7.5 0 0 0 7.5-7.5C165 29.58 179.579 15 197.5 15s32.5 14.58 32.501 32.5a7.5 7.5 0 0 0 7.5 7.5h24.367c8.59 0 15.579 6.989 15.579 15.58v52.5H117.553v-52.5zm-38.088 37.499h23.087v22.5a7.5 7.5 0 0 0 7.5 7.5h174.895a7.5 7.5 0 0 0 7.5-7.5v-22.5h23.087V425H79.465V108.079z"/><path d="M197.5 35a7.5 7.5 0 0 0-7.5 7.5v10a7.5 7.5 0 0 0 15 0v-10a7.5 7.5 0 0 0-7.5-7.5zm77.447 136.167h-10a7.5 7.5 0 0 0 0 15h2.5v90.746h-2.5a7.5 7.5 0 0 0 0 15h10a7.5 7.5 0 0 0 7.5-7.5V178.667a7.5 7.5 0 0 0-7.5-7.5zM120.053 331.913h114.895a7.5 7.5 0 0 0 7.5-7.5v-10a7.5 7.5 0 0 0-15 0v2.5h-99.895v-2.5a7.5 7.5 0 0 0-15 0v10a7.5 7.5 0 0 0 7.5 7.5zm0-40h114.895a7.5 7.5 0 0 0 7.5-7.5V178.667a7.5 7.5 0 0 0-7.5-7.5H120.053a7.5 7.5 0 0 0-7.5 7.5v20a7.5 7.5 0 0 0 15 0v-12.5h99.895v90.746h-99.895v-48.246a7.5 7.5 0 0 0-15 0v55.746a7.5 7.5 0 0 0 7.5 7.5z"/></svg>