<svg xmlns="http://www.w3.org/2000/svg" viewBox="0 0 470 470"><path d="M401.17 68.83C356.784 24.444 297.771 0 235 0S113.216 24.444 68.83 68.83C24.444 113.215 0 172.229 0 235c0 62.771 24.444 121.784 68.83 166.17S172.229 470 235 470s121.784-24.444 166.17-68.83S470 297.771 470 235c0-62.771-24.444-121.785-68.83-166.17zM227.5 454.858C109.652 450.889 15 353.797 15 235S109.652 19.111 227.5 15.142v439.716zm15-257.918c17.813 3.504 31.294 19.234 31.294 38.06s-13.481 34.555-31.294 38.06v-76.12zm0 91.32c26.123-3.662 46.294-26.144 46.294-53.26s-20.171-49.598-46.294-53.26v-30.181c42.701 3.808 76.294 39.766 76.294 83.441s-33.593 79.633-76.294 83.441V288.26zm0 45.251c50.985-3.845 91.294-46.559 91.294-98.511s-40.309-94.666-91.294-98.511V98.311c72.011 3.908 129.396 63.72 129.396 136.689S314.511 367.781 242.5 371.689v-38.178zm0 121.347V439.85c46.24-1.701 90.716-19.073 125.965-49.373a7.5 7.5 0 1 0-9.777-11.375c-32.53 27.962-73.534 44.047-116.188 45.741v-38.132c80.286-3.923 144.396-70.469 144.396-151.711S322.786 87.213 242.5 83.289V45.161C343.802 49.115 425 132.746 425 235c0 45.329-16.301 89.255-45.898 123.688a7.5 7.5 0 0 0 .799 10.577 7.467 7.467 0 0 0 4.885 1.813c2.11 0 4.208-.886 5.691-2.611C422.412 331.314 440 283.915 440 235c0-110.526-87.925-200.886-197.5-204.848v-15.01C360.348 19.111 455 116.203 455 235s-94.652 215.889-212.5 219.858z"/><path d="M67.26 248.701c-7.592 0-13.768-6.176-13.768-13.768v-57.287c0-4.142-3.357-7.5-7.5-7.5s-7.5 3.358-7.5 7.5v57.287c0 13.268 9.031 24.461 21.268 27.769v17.115c-6.664 3.77-12.585 8.917-17.388 15.272a7.5 7.5 0 0 0 11.967 9.044c4.197-5.553 9.555-9.844 15.608-12.68.33-.127.65-.272.955-.442a41.752 41.752 0 0 1 16.779-3.489c23.027 0 41.762 18.735 41.762 41.763v6.331a7.5 7.5 0 0 0 7.5 7.5h22.313c14.287 0 25.911 11.624 25.911 25.911 0 12.196-8.648 22.86-20.563 25.357a7.499 7.499 0 0 0-5.962 7.34v18.39c0 4.142 3.357 7.5 7.5 7.5s7.5-3.358 7.5-7.5V407.33c15.679-5.909 26.524-21.146 26.524-38.302 0-22.559-18.353-40.911-40.911-40.911h-14.824c-.623-30.763-25.841-55.594-56.75-55.594-4.416 0-8.743.503-12.922 1.467v-11.287c12.236-3.308 21.268-14.502 21.268-27.769v-8.769c11.232.271 30.32.063 48.201-.257v2.357c0 4.142 3.357 7.5 7.5 7.5s7.5-3.358 7.5-7.5v-109.19c10.51-5.948 17.271-17.247 17.271-29.566 0-18.715-15.226-33.941-33.941-33.941h-4.663c-4.143 0-7.5 3.358-7.5 7.5s3.357 7.5 7.5 7.5h4.663c10.444 0 18.941 8.497 18.941 18.941 0 7.893-4.972 15.035-12.372 17.771a7.501 7.501 0 0 0-4.899 7.035v96.588c-24.909.431-50.294.558-54.097.035a7.498 7.498 0 0 0-9.104 7.327v16.669c0 7.591-6.175 13.767-13.767 13.767zM201.529 71.826a7.498 7.498 0 0 0 10.117-3.184 7.5 7.5 0 0 0-3.184-10.117 57.976 57.976 0 0 1-20.567-18.039 7.5 7.5 0 1 0-12.277 8.617c6.672 9.507 15.632 17.365 25.911 22.723z"/><path d="M113.043 247.409v2.964c0 4.142 3.357 7.5 7.5 7.5s7.5-3.358 7.5-7.5v-2.964c0-4.142-3.357-7.5-7.5-7.5s-7.5 3.358-7.5 7.5z"/></svg>