<svg xmlns="http://www.w3.org/2000/svg" viewBox="0 0 470 470"><path d="M462.5 0H7.5A7.5 7.5 0 0 0 0 7.5v455a7.5 7.5 0 0 0 7.5 7.5h455a7.5 7.5 0 0 0 7.5-7.5V7.5a7.5 7.5 0 0 0-7.5-7.5zM455 455H15V15h440v440z"/><circle cx="207" cy="382" r="7.5"/><path d="M172.5 342.5v40a7.5 7.5 0 0 0 15 0v-40a7.5 7.5 0 0 0-15 0zm110 0v40c0 4.142 3.357 7.5 7.5 7.5s7.5-3.358 7.5-7.5v-40c0-4.142-3.357-7.5-7.5-7.5s-7.5 3.358-7.5 7.5zm-37-7.5c-12.407 0-22.5 10.093-22.5 22.5v10c0 12.407 10.093 22.5 22.5 22.5 12.406 0 22.5-10.093 22.5-22.5v-10c0-12.407-10.094-22.5-22.5-22.5zm7.5 32.5c0 4.136-3.364 7.5-7.5 7.5s-7.5-3.364-7.5-7.5v-10c0-4.136 3.364-7.5 7.5-7.5s7.5 3.364 7.5 7.5v10zm67-52.811a7.5 7.5 0 0 0 5.452-2.35l28.336-30a7.5 7.5 0 0 0-10.905-10.3L320 296.267l-22.884-24.228a7.5 7.5 0 0 0-10.904 0l-22.884 24.228-22.884-24.228a7.5 7.5 0 0 0-10.905.001l-22.879 24.226-22.88-24.226a7.502 7.502 0 0 0-10.906 0l-22.879 24.226-22.879-24.226a7.498 7.498 0 0 0-10.602-.303 7.5 7.5 0 0 0-.303 10.602l28.332 30a7.502 7.502 0 0 0 10.906 0l22.879-24.226 22.88 24.226a7.502 7.502 0 0 0 10.906 0l22.88-24.227 22.883 24.227a7.5 7.5 0 0 0 10.904 0l22.884-24.228 22.884 24.228a7.496 7.496 0 0 0 5.451 2.35zM202 80.622h-30a7.5 7.5 0 0 0-7.5 7.5v153.756a7.5 7.5 0 0 0 7.5 7.5h30a7.5 7.5 0 0 0 7.5-7.5V187.5h51v54.378a7.5 7.5 0 0 0 7.5 7.5h30a7.5 7.5 0 0 0 7.5-7.5V88.122a7.5 7.5 0 0 0-7.5-7.5h-30a7.5 7.5 0 0 0-7.5 7.5V142.5h-51V88.122a7.5 7.5 0 0 0-7.5-7.5zm66 76.878a7.5 7.5 0 0 0 7.5-7.5V95.622h15v138.756h-15V180a7.5 7.5 0 0 0-7.5-7.5h-66a7.5 7.5 0 0 0-7.5 7.5v54.378h-15V95.622h15V150a7.5 7.5 0 0 0 7.5 7.5h66z"/><path d="M37.5 440h395a7.5 7.5 0 0 0 7.5-7.5v-60c0-4.142-3.357-7.5-7.5-7.5s-7.5 3.358-7.5 7.5V425H45V45h380v297.5c0 4.142 3.357 7.5 7.5 7.5s7.5-3.358 7.5-7.5v-305a7.5 7.5 0 0 0-7.5-7.5h-395a7.5 7.5 0 0 0-7.5 7.5v395a7.5 7.5 0 0 0 7.5 7.5z"/><path d="M80 87.5v40a7.5 7.5 0 0 0 15 0v-40a7.5 7.5 0 0 0-15 0z"/></svg>