<svg xmlns="http://www.w3.org/2000/svg" viewBox="0 0 470.03 470.03"><path d="M377.53 189.821V74.873c11.234-1.248 20-10.796 20-22.358 0-12.407-10.093-22.5-22.5-22.5h-100c-12.407 0-22.5 10.093-22.5 22.5 0 11.561 8.766 21.11 20 22.358v114.95c-22.675 8.812-42.852 23.265-58.606 42.033a7.5 7.5 0 0 0 5.74 12.322c2.14 0 4.265-.911 5.748-2.678 15.171-18.073 34.906-31.682 57.072-39.356a7.5 7.5 0 0 0 5.046-7.087V75.015h42.5a7.5 7.5 0 0 0 0-15h-55c-4.136 0-7.5-3.364-7.5-7.5s3.364-7.5 7.5-7.5h100c4.136 0 7.5 3.364 7.5 7.5s-3.364 7.5-7.5 7.5h-15a7.5 7.5 0 0 0 0 15h2.5v120.041a7.5 7.5 0 0 0 5.046 7.087c52.309 18.11 87.454 67.488 87.454 122.871 0 71.682-58.318 130-130 130-16.899 0-33.349-3.202-48.892-9.516a7.5 7.5 0 1 0-5.645 13.896c17.345 7.046 35.693 10.619 54.537 10.619 79.953 0 145-65.047 145-145 0-59.971-36.952-113.631-92.5-135.192z"/><circle cx="380.923" cy="351.39" r="7.5"/><circle cx="350.923" cy="381.39" r="7.5"/><path d="M282.67 415.62a7.5 7.5 0 0 0-6.362 13.584c15.316 7.174 31.708 10.812 48.722 10.812 63.411 0 115-51.589 115-115 0-20.213-5.323-40.098-15.394-57.506a7.492 7.492 0 0 0-7.525-3.672l-2.73.38a7.456 7.456 0 0 0-1.014.213c-11.338 3.218-17.453 8.129-22.366 12.075-5.443 4.372-9.04 7.26-19.416 7.26-8.861 0-12.859-3.435-18.393-8.189-6.125-5.262-13.748-11.811-28.167-11.811-14.418 0-22.04 6.549-28.165 11.812-5.533 4.754-9.53 8.188-18.389 8.188-10.375 0-13.97-2.888-19.413-7.26-4.913-3.946-11.027-8.857-22.363-12.075a7.322 7.322 0 0 0-1.015-.213l-2.73-.38a7.49 7.49 0 0 0-7.515 3.655c-.065.111-.128.224-.197.352a7.5 7.5 0 0 0 7.718 11.138l.125.018c8.09 2.378 12.219 5.694 16.584 9.201 6.466 5.194 13.153 10.565 28.806 10.565 14.418 0 22.04-6.549 28.165-11.812 5.533-4.754 9.53-8.188 18.389-8.188 8.861 0 12.859 3.435 18.393 8.189 6.125 5.262 13.748 11.811 28.167 11.811 15.654 0 22.341-5.371 28.809-10.564 3.853-3.095 7.52-6.04 13.89-8.325 7.045 13.921 10.747 29.414 10.747 45.139 0 55.14-44.86 100-100 100-14.799-.002-29.051-3.163-42.361-9.397z"/><path d="M181.03 193.796V44.873c11.234-1.248 20-10.796 20-22.358 0-12.407-10.093-22.5-22.5-22.5h-100c-12.407 0-22.5 10.093-22.5 22.5 0 11.561 8.766 21.11 20 22.358v120.184a7.5 7.5 0 0 0 15 0V45.015h42.5a7.5 7.5 0 0 0 0-15h-55c-4.136 0-7.5-3.364-7.5-7.5s3.364-7.5 7.5-7.5h100c4.136 0 7.5 3.364 7.5 7.5s-3.364 7.5-7.5 7.5h-15a7.5 7.5 0 0 0 0 15h2.5v150.042c0 .834.139 1.663.412 2.451l72.889 210.754c4.402 12.728 3.409 24.535-2.795 33.246-6.205 8.71-17.038 13.508-30.505 13.508h-155c-13.467 0-24.301-4.797-30.506-13.508-6.204-8.711-7.197-20.518-2.795-33.245L90.619 197.51a7.5 7.5 0 0 0-14.176-4.904L3.553 403.359c-6.032 17.439-4.343 34.078 4.754 46.85 9.097 12.772 24.27 19.806 42.723 19.806h155c18.453 0 33.626-7.034 42.723-19.806 9.097-12.772 10.786-29.411 4.754-46.85L181.03 193.796z"/><path d="M64.652 348.792a7.5 7.5 0 0 0-11.685 3.475l-21.062 60.899c-2.772 8.016-2.475 14.991.837 19.64 3.312 4.649 9.806 7.21 18.288 7.21h155c8.481 0 14.976-2.561 18.287-7.21 3.313-4.649 3.61-11.625.837-19.64l-21.063-60.901a7.498 7.498 0 0 0-11.684-3.474c-4.091 3.173-7.964 5.601-17.323 5.601-8.86 0-12.859-3.435-18.393-8.189-6.125-5.262-13.748-11.811-28.167-11.811-14.418 0-22.04 6.549-28.165 11.812-5.533 4.754-9.53 8.188-18.39 8.188-9.356-.002-13.228-2.428-17.317-5.6zm45.483 8.787c5.533-4.754 9.53-8.188 18.389-8.188 8.861 0 12.859 3.435 18.393 8.189 6.125 5.262 13.748 11.811 28.167 11.811 7.84 0 13.484-1.404 17.89-3.379l18.004 52.057c1.064 3.077 1.123 5.092 1.018 5.961-.787.383-2.71.986-5.966.986h-155c-3.256 0-5.179-.603-5.966-.986-.105-.869-.046-2.884 1.018-5.961l18.003-52.055c4.404 1.975 10.047 3.378 17.885 3.378 14.419-.002 22.041-6.551 28.165-11.813z"/></svg>