<svg xmlns="http://www.w3.org/2000/svg" viewBox="0 0 470 470"><path d="M325 0c-79.953 0-145 65.047-145 145 0 37.284 14.149 71.323 37.354 97.039l-9.915 9.915-8.183-8.265a7.666 7.666 0 0 0-.576-.653 7.727 7.727 0 0 0-.607-.543l-6.438-6.502a7.5 7.5 0 0 0-10.66 10.554l1.785 1.803L2.197 428.913a7.5 7.5 0 0 0 0 10.606l28.284 28.284c1.465 1.464 3.385 2.197 5.304 2.197s3.839-.732 5.304-2.197l180.369-180.369 1.732 1.75a7.479 7.479 0 0 0 5.33 2.223 7.5 7.5 0 0 0 5.33-12.777l-15.856-16.016 9.968-9.968C253.678 275.851 287.717 290 325 290c79.953 0 145-65.047 145-145S404.953 0 325 0zM35.784 451.894l-17.678-17.678 175.208-175.208 17.589 17.766-175.119 175.12zM325 275c-71.683 0-130-58.318-130-130S253.318 15 325 15s130 58.318 130 130-58.317 130-130 130z"/><path d="M325 30c-63.411 0-115 51.589-115 115s51.589 115 115 115c25.191 0 49.114-8 69.181-23.134a7.5 7.5 0 1 0-9.031-11.976C367.705 238.046 346.906 245 325 245c-55.141 0-100-44.86-100-100S269.86 45 325 45s100 44.86 100 100c0 21.907-6.954 42.706-20.11 60.149a7.5 7.5 0 1 0 11.977 9.032C432 194.115 440 170.193 440 145c0-63.411-51.589-115-115-115z"/><path d="M325 205c-4.143 0-7.5 3.358-7.5 7.5s3.357 7.5 7.5 7.5c41.355 0 75-33.645 75-75s-33.645-75-75-75a74.793 74.793 0 0 0-39.922 11.518 7.5 7.5 0 0 0-2.348 10.344 7.5 7.5 0 0 0 10.344 2.348A59.808 59.808 0 0 1 325 85c33.084 0 60 26.916 60 60s-26.916 60-60 60zm-63.482-99.921A74.787 74.787 0 0 0 250 145c0 4.142 3.357 7.5 7.5 7.5s7.5-3.358 7.5-7.5a59.81 59.81 0 0 1 9.209-31.925 7.5 7.5 0 0 0-12.691-7.996z"/></svg>