<svg xmlns="http://www.w3.org/2000/svg" viewBox="0 0 470 470"><path d="M432.5 0h-130a7.5 7.5 0 0 0-7.5 7.5V265c0 33.084-26.916 60-60 60s-60-26.916-60-60V7.5a7.5 7.5 0 0 0-7.5-7.5h-130A7.5 7.5 0 0 0 30 7.5V265c0 113.037 91.962 205 205 205s205-91.963 205-205V7.5a7.5 7.5 0 0 0-7.5-7.5zM160 15v75H45V15h115zm75 440c-104.767 0-190-85.233-190-190V105h115v160c0 41.355 33.645 75 75 75s75-33.645 75-75V105h62.5c4.142 0 7.5-3.357 7.5-7.5s-3.358-7.5-7.5-7.5H310V15h115v75h-22.5c-4.142 0-7.5 3.357-7.5 7.5s3.358 7.5 7.5 7.5H425v160c0 104.767-85.233 190-190 190z"/><circle cx="143" cy="386" r="7.5"/><circle cx="113" cy="356" r="7.5"/><circle cx="387.199" cy="170.676" r="7.5"/></svg>