<svg xmlns="http://www.w3.org/2000/svg" viewBox="0 0 470 470"><path d="M272.09 146.464a7.5 7.5 0 0 0 0-15h-.627V99.27c0-10.963-8.919-19.883-19.883-19.883H28.01c-10.963 0-19.883 8.919-19.883 19.883v32.194H7.5a7.5 7.5 0 0 0 0 15h18.45v17.917l-9.202 5.27C7.356 175.029 0 188.403 0 200.1v237.635C0 455.526 14.474 470 32.266 470h215.059c17.792 0 32.266-14.474 32.266-32.266V200.1c0-11.696-7.356-25.071-16.749-30.449l-9.202-5.269v-17.917h18.45zm-7.5 291.27c0 9.521-7.745 17.266-17.266 17.266H32.266C22.745 455 15 447.255 15 437.734v-17.266h249.59v17.266zm0-32.265H15V260.292h249.59v145.177zm-9.202-222.802c4.816 2.758 9.202 11.066 9.202 17.432v45.193H15V200.1c0-6.366 4.386-14.674 9.202-17.432l12.976-7.43a7.5 7.5 0 0 0 3.773-6.508v-22.266h197.69v22.266a7.498 7.498 0 0 0 3.773 6.508l12.974 7.429zM23.127 131.464V99.27c0-2.647 2.236-4.883 4.883-4.883h29.784v14.577a7.5 7.5 0 0 0 15 0V94.387h34.667v14.577a7.5 7.5 0 0 0 15 0V94.387h34.667v14.577a7.5 7.5 0 0 0 15 0V94.387h34.667v14.577a7.5 7.5 0 0 0 15 0V94.387h29.785c2.647 0 4.883 2.236 4.883 4.883v32.194H23.127z"/><path d="M94.927 378.352h89.736c25.073 0 45.471-20.398 45.471-45.471s-20.398-45.471-45.471-45.471H94.927c-25.073 0-45.471 20.398-45.471 45.471s20.398 45.471 45.471 45.471zm52.368-75.942h37.368c16.802 0 30.471 13.669 30.471 30.471s-13.669 30.471-30.471 30.471h-37.368V302.41zm-52.368 0h37.368v60.942H94.927c-16.802 0-30.471-13.669-30.471-30.471s13.669-30.471 30.471-30.471zM216.14 161.229h-92.69a7.5 7.5 0 0 0 0 15h92.69a7.5 7.5 0 0 0 0-15zm-122.69 0h-30a7.5 7.5 0 0 0 0 15h30a7.5 7.5 0 0 0 0-15zM306.064 432.5a7.5 7.5 0 0 0 15 0v-60a7.5 7.5 0 0 0-15 0v60zm7.5-82.5a7.5 7.5 0 0 0 7.5-7.5v-305a7.5 7.5 0 0 0-15 0v305a7.5 7.5 0 0 0 7.5 7.5z"/><path d="M413.5 0H213.628c-31.154 0-56.5 25.346-56.5 56.5a7.5 7.5 0 0 0 15 0c0-22.883 18.617-41.5 41.5-41.5H413.5c22.883 0 41.5 18.617 41.5 41.5v357c0 22.883-18.617 41.5-41.5 41.5H296.269a7.5 7.5 0 0 0 0 15H413.5c31.154 0 56.5-25.346 56.5-56.5v-357C470 25.346 444.654 0 413.5 0z"/><path d="M388.032 117.645c20.188 0 36.613-16.424 36.613-36.613 0-20.188-16.424-36.612-36.613-36.612s-36.613 16.424-36.613 36.612c0 20.189 16.425 36.613 36.613 36.613zm0-58.225c11.917 0 21.613 9.695 21.613 21.612 0 11.917-9.695 21.613-21.613 21.613s-21.613-9.695-21.613-21.613c0-11.917 9.696-21.612 21.613-21.612zm0 160.87c20.188 0 36.613-16.424 36.613-36.613 0-20.188-16.424-36.612-36.613-36.612s-36.613 16.424-36.613 36.612c0 20.189 16.425 36.613 36.613 36.613zm0-58.225c11.917 0 21.613 9.695 21.613 21.612 0 11.917-9.695 21.613-21.613 21.613s-21.613-9.695-21.613-21.613c0-11.917 9.696-21.612 21.613-21.612zm0 160.87c20.188 0 36.613-16.424 36.613-36.612 0-20.188-16.424-36.613-36.613-36.613s-36.613 16.424-36.613 36.613c0 20.188 16.425 36.612 36.613 36.612zm0-58.225c11.917 0 21.613 9.695 21.613 21.613 0 11.917-9.695 21.612-21.613 21.612s-21.613-9.695-21.613-21.612c0-11.918 9.696-21.613 21.613-21.613zm0 160.87c20.188 0 36.613-16.424 36.613-36.612 0-20.188-16.424-36.613-36.613-36.613s-36.613 16.424-36.613 36.613c0 20.188 16.425 36.612 36.613 36.612zm0-58.225c11.917 0 21.613 9.695 21.613 21.613 0 11.917-9.695 21.612-21.613 21.612s-21.613-9.695-21.613-21.612c0-11.918 9.696-21.613 21.613-21.613zM227.023 63.103a21.491 21.491 0 0 1 12.074-3.683c4.419 0 8.666 1.322 12.28 3.824a7.465 7.465 0 0 0 4.261 1.333 7.501 7.501 0 0 0 4.275-13.668c-6.134-4.246-13.333-6.49-20.816-6.49a36.443 36.443 0 0 0-20.467 6.251c-3.433 2.318-4.337 6.979-2.019 10.413s6.98 4.338 10.412 2.02z"/></svg>