<svg xmlns="http://www.w3.org/2000/svg" viewBox="0 0 470 470"><path d="M387.5 0C342.01 0 305 37.01 305 82.5c0 22.474 9.044 42.868 23.67 57.762l-54.837 96.19C261.647 232.273 248.585 230 235 230s-26.647 2.273-38.833 6.452l-54.837-96.19C155.956 125.368 165 104.974 165 82.5c0-16.245-4.731-31.976-13.683-45.492a7.5 7.5 0 0 0-12.506 8.282C146.131 56.343 150 69.21 150 82.5c0 37.22-30.28 67.5-67.5 67.5S15 119.72 15 82.5 45.28 15 82.5 15c13.29 0 26.157 3.869 37.211 11.188a7.5 7.5 0 0 0 8.282-12.506C114.476 4.731 98.745 0 82.5 0 37.01 0 0 37.01 0 82.5S37.01 165 82.5 165a82.32 82.32 0 0 0 19.759-2.409l54.846 96.205C131.353 280.823 115 313.536 115 350c0 66.168 53.832 120 120 120 26.555 0 51.724-8.505 72.784-24.596a7.5 7.5 0 0 0-9.106-11.92C280.255 447.561 258.235 455 235 455c-57.897 0-105-47.103-105-105s47.103-105 105-105 105 47.103 105 105c0 23.235-7.439 45.255-21.516 63.679a7.5 7.5 0 0 0 1.407 10.513 7.499 7.499 0 0 0 10.513-1.407C346.495 401.724 355 376.555 355 350c0-36.464-16.353-69.177-42.105-91.204l54.846-96.205A82.32 82.32 0 0 0 387.5 165c45.49 0 82.5-37.01 82.5-82.5S432.99 0 387.5 0zM116.661 157.565a82.51 82.51 0 0 0 13.021-7.448l52.527 92.138a120.055 120.055 0 0 0-13.018 7.451l-52.53-92.141zm184.149 92.142a120.055 120.055 0 0 0-13.018-7.451l52.527-92.138a82.5 82.5 0 0 0 13.021 7.448l-52.53 92.141zM387.5 150c-37.22 0-67.5-30.28-67.5-67.5S350.28 15 387.5 15 455 45.28 455 82.5 424.72 150 387.5 150z"/><circle cx="204.5" cy="410.5" r="7.5"/><circle cx="174.5" cy="380.5" r="7.5"/></svg>