<svg xmlns="http://www.w3.org/2000/svg" viewBox="0 0 470 470"><path d="M250.893 173.727l29.224 16.873a7.499 7.499 0 0 0 10.245-2.745 7.5 7.5 0 0 0-2.745-10.245l-29.224-16.873a7.5 7.5 0 0 0-10.245 2.745 7.498 7.498 0 0 0 2.745 10.245zm-84.404 36.901a7.5 7.5 0 0 0-7.5 7.5v33.745a7.5 7.5 0 0 0 15 0v-33.745a7.5 7.5 0 0 0-7.5-7.5zM280.118 279.4l-29.224 16.873a7.5 7.5 0 0 0 7.5 12.99l29.224-16.873a7.5 7.5 0 0 0-7.5-12.99z"/><path d="M432.021 321.25c-7.437 0-14.19 2.973-19.145 7.786l-52.702-30.428c.545-2.156.837-4.411.837-6.733 0-12.563-8.472-23.178-20-26.452v-60.846c11.528-3.274 20-13.889 20-26.452 0-2.323-.292-4.578-.837-6.734l52.702-30.427c4.955 4.814 11.708 7.786 19.146 7.786 15.164 0 27.5-12.336 27.5-27.5s-12.336-27.5-27.5-27.5-27.5 12.336-27.5 27.5c0 2.323.292 4.578.837 6.734l-52.702 30.428c-4.955-4.814-11.708-7.786-19.145-7.786-7.437 0-14.19 2.973-19.145 7.786l-52.702-30.427c.545-2.156.837-4.411.837-6.733 0-12.563-8.472-23.178-20-26.452V7.5a7.5 7.5 0 0 0-15 0v87.298c-11.528 3.274-20 13.889-20 26.452 0 2.323.292 4.578.837 6.734l-52.702 30.427c-4.955-4.813-11.708-7.786-19.145-7.786s-14.19 2.973-19.145 7.786l-52.702-30.428c.545-2.156.837-4.411.837-6.733 0-15.164-12.336-27.5-27.5-27.5s-27.5 12.336-27.5 27.5 12.336 27.5 27.5 27.5c7.438 0 14.19-2.973 19.146-7.786l52.702 30.428a27.441 27.441 0 0 0-.837 6.734c0 12.563 8.472 23.178 20 26.452v60.846c-11.528 3.274-20 13.889-20 26.452 0 2.323.292 4.578.837 6.734l-52.702 30.428c-4.955-4.814-11.708-7.786-19.145-7.786-15.164 0-27.5 12.336-27.5 27.5s12.336 27.5 27.5 27.5 27.5-12.336 27.5-27.5c0-2.323-.292-4.578-.837-6.734l52.702-30.428c4.955 4.814 11.708 7.786 19.145 7.786s14.19-2.973 19.145-7.786l52.702 30.427a27.441 27.441 0 0 0-.837 6.734c0 12.563 8.472 23.178 20 26.452V462.5a7.5 7.5 0 0 0 15 0v-87.298c11.528-3.274 20-13.889 20-26.452 0-2.323-.292-4.578-.837-6.734l52.702-30.427c4.955 4.814 11.708 7.786 19.145 7.786 7.438 0 14.19-2.973 19.146-7.786l52.702 30.428a27.441 27.441 0 0 0-.837 6.734c0 15.164 12.336 27.5 27.5 27.5s27.5-12.336 27.5-27.5-12.339-27.501-27.503-27.501zm0-212.5c6.893 0 12.5 5.607 12.5 12.5s-5.607 12.5-12.5 12.5-12.5-5.607-12.5-12.5 5.607-12.5 12.5-12.5zm-394.042 25c-6.893 0-12.5-5.607-12.5-12.5s5.607-12.5 12.5-12.5 12.5 5.607 12.5 12.5-5.607 12.5-12.5 12.5zm0 227.5c-6.893 0-12.5-5.607-12.5-12.5s5.607-12.5 12.5-12.5 12.5 5.607 12.5 12.5-5.607 12.5-12.5 12.5zM333.51 165.625c6.893 0 12.5 5.607 12.5 12.5s-5.607 12.5-12.5 12.5-12.5-5.607-12.5-12.5 5.608-12.5 12.5-12.5zM235 108.75c6.893 0 12.5 5.607 12.5 12.5s-5.607 12.5-12.5 12.5-12.5-5.607-12.5-12.5 5.607-12.5 12.5-12.5zm-111.01 69.375c0-6.893 5.607-12.5 12.5-12.5s12.5 5.607 12.5 12.5-5.607 12.5-12.5 12.5-12.5-5.607-12.5-12.5zm12.5 126.25c-6.893 0-12.5-5.607-12.5-12.5s5.607-12.5 12.5-12.5 12.5 5.607 12.5 12.5-5.608 12.5-12.5 12.5zM235 361.25c-6.893 0-12.5-5.607-12.5-12.5s5.607-12.5 12.5-12.5 12.5 5.607 12.5 12.5-5.607 12.5-12.5 12.5zm71.01-69.375c0 2.323.292 4.578.837 6.734l-52.702 30.427c-4.955-4.813-11.708-7.786-19.145-7.786s-14.19 2.973-19.145 7.786l-52.702-30.427c.545-2.156.837-4.411.837-6.734 0-12.563-8.472-23.178-20-26.452v-60.846c11.528-3.274 20-13.889 20-26.452 0-2.323-.292-4.578-.837-6.734l52.702-30.427c4.955 4.814 11.708 7.786 19.145 7.786 7.438 0 14.19-2.973 19.146-7.786l52.702 30.427a27.441 27.441 0 0 0-.837 6.734c0 12.563 8.472 23.178 20 26.452v60.846c-11.529 3.274-20.001 13.889-20.001 26.452zm27.5 12.5c-6.893 0-12.5-5.607-12.5-12.5 0-6.891 5.605-12.497 12.495-12.5 6.9.003 12.505 5.609 12.505 12.5 0 6.893-5.607 12.5-12.5 12.5zm98.511 56.875c-6.893 0-12.5-5.607-12.5-12.5s5.607-12.5 12.5-12.5 12.5 5.607 12.5 12.5-5.607 12.5-12.5 12.5z"/></svg>