<svg xmlns="http://www.w3.org/2000/svg" viewBox="0 0 470.004 470.004"><path d="M275.833 176.986a44.628 44.628 0 0 0-17.155-3.425c-5.557 0-11.04 1.065-16.176 3.049v-18.319a7.5 7.5 0 0 0-15 0v18.319c-5.136-1.984-10.62-3.049-16.177-3.049a44.61 44.61 0 0 0-17.155 3.425c-22.862 9.47-33.757 35.774-24.287 58.635l22.938 55.377a29.418 29.418 0 0 0 27.26 18.214c3.878 0 7.673-.757 11.278-2.25a29.49 29.49 0 0 0 3.644-1.81 29.598 29.598 0 0 0 3.642 1.809 29.318 29.318 0 0 0 11.279 2.251 29.417 29.417 0 0 0 27.259-18.214l22.938-55.377c9.469-22.862-1.427-49.166-24.288-58.635zm10.43 52.895l-22.939 55.377a14.462 14.462 0 0 1-13.4 8.954c-1.898 0-3.763-.374-5.539-1.109a14.45 14.45 0 0 1-4.292-2.741c-1.437-1.328-3.264-1.992-5.09-1.992s-3.653.664-5.09 1.992a14.428 14.428 0 0 1-4.293 2.741 14.409 14.409 0 0 1-5.539 1.109 14.462 14.462 0 0 1-13.401-8.955l-22.938-55.377c-6.305-15.22.949-32.732 16.169-39.037a29.69 29.69 0 0 1 11.415-2.283 30.038 30.038 0 0 1 18.935 6.755 8.02 8.02 0 0 0 1.037.705c.025.014.048.031.073.044.337.187.692.343 1.059.477l.16.059c.35.119.711.213 1.083.279.063.011.126.019.19.029.372.057.75.095 1.138.096a7.668 7.668 0 0 0 1.141-.095c.065-.01.13-.018.195-.03a7.288 7.288 0 0 0 1.076-.278c.057-.019.113-.042.17-.062a7.463 7.463 0 0 0 1.05-.473c.028-.015.054-.033.081-.049a7.476 7.476 0 0 0 1.003-.683c5.367-4.375 12.09-6.774 18.962-6.774 3.917 0 7.758.768 11.415 2.283 15.219 6.306 22.472 23.817 16.169 39.038z"/><circle cx="259.228" cy="219.211" r="7.5"/><path d="M371.627 144.748c-17.322-8.976-35.701-16.168-54.754-21.5a7.44 7.44 0 0 0-1.277-.356c-25.947-7.137-53.127-10.825-80.594-10.825-27.472 0-54.655 3.689-80.605 10.828-.426.08-.848.195-1.26.351-19.055 5.333-37.437 12.525-54.761 21.502-40.163 20.812-73.752 50.595-97.139 86.131a7.502 7.502 0 0 0 0 8.246c23.387 35.536 56.977 65.319 97.139 86.13 17.356 8.993 35.773 16.196 54.866 21.531a7.42 7.42 0 0 0 1.002.279c25.996 7.167 53.232 10.871 80.758 10.871 27.526 0 54.764-3.705 80.761-10.872.337-.071.67-.159.997-.278 19.094-5.336 37.511-12.538 54.867-21.532 40.162-20.811 73.753-50.595 97.139-86.13a7.498 7.498 0 0 0 0-8.246c-23.386-35.535-56.977-65.319-97.139-86.13zM16.548 235.002c26.405-38.201 64.978-68.042 109.864-86.574-19.476 24.289-30.234 54.492-30.234 86.574s10.758 62.285 30.234 86.574c-44.886-18.533-83.459-48.374-109.864-86.574zm294.49 97.71c-24.313 6.681-49.918 10.225-76.036 10.225-26.118 0-51.723-3.544-76.036-10.225-30.387-23.661-47.787-59.169-47.787-97.71s17.4-74.049 47.788-97.71c24.313-6.681 49.917-10.225 76.036-10.225 26.118 0 51.723 3.544 76.036 10.225 30.386 23.662 47.786 59.169 47.786 97.71-.001 38.541-17.401 74.048-47.787 97.71zm32.553-11.137c19.476-24.288 30.233-54.491 30.233-86.573 0-32.082-10.757-62.285-30.233-86.574 44.886 18.532 83.459 48.373 109.864 86.574-26.405 38.2-64.977 68.041-109.864 86.573z"/><path d="M383.13 347.452c-44.801 23.215-96.022 35.485-148.128 35.485-52.106 0-103.329-12.271-148.128-35.485a7.5 7.5 0 0 0-6.902 13.318c46.923 24.315 100.532 37.167 155.03 37.167 54.498 0 108.106-12.852 155.029-37.167a7.5 7.5 0 0 0-6.901-13.318zM7.5 179.219a7.475 7.475 0 0 0 5.356-2.25C34.097 155.304 59 136.994 86.874 122.551c44.8-23.214 96.022-35.484 148.128-35.484 43.297 0 86.826 8.672 125.879 25.079a7.499 7.499 0 0 0 9.82-4.01 7.5 7.5 0 0 0-4.01-9.819c-40.878-17.172-86.415-26.25-131.69-26.25-54.498 0-108.106 12.852-155.029 37.166-29.287 15.176-55.472 34.434-77.828 57.236a7.5 7.5 0 0 0 5.356 12.75zm379.844-54.433c26.18 14.084 49.665 31.642 69.805 52.184a7.477 7.477 0 0 0 5.355 2.25 7.47 7.47 0 0 0 5.25-2.145 7.5 7.5 0 0 0 .105-10.606c-21.198-21.623-45.896-40.091-73.408-54.893a7.5 7.5 0 0 0-7.107 13.21z"/></svg>