<svg xmlns="http://www.w3.org/2000/svg" viewBox="0 0 470 470"><path d="M401.17 68.83C356.784 24.444 297.771 0 235 0 172.229 0 113.215 24.444 68.83 68.83 24.444 113.215 0 172.229 0 235s24.444 121.785 68.83 166.17C113.215 445.556 172.229 470 235 470c62.771 0 121.784-24.444 166.17-68.83C445.556 356.785 470 297.771 470 235s-24.444-121.785-68.83-166.17zM235 455c-121.309 0-220-98.691-220-220S113.691 15 235 15s220 98.691 220 220-98.691 220-220 220z"/><circle cx="146.737" cy="272.5" r="7.5"/><circle cx="247.208" cy="169.456" r="7.5"/><path d="M275.871 218.633c0 12.407 10.094 22.5 22.5 22.5s22.5-10.093 22.5-22.5-10.094-22.5-22.5-22.5-22.5 10.094-22.5 22.5zm30 0c0 4.136-3.364 7.5-7.5 7.5s-7.5-3.364-7.5-7.5 3.364-7.5 7.5-7.5 7.5 3.365 7.5 7.5zM235 70c-12.407 0-22.5 10.093-22.5 22.5S222.593 115 235 115c12.406 0 22.5-10.093 22.5-22.5S247.406 70 235 70zm0 30c-4.136 0-7.5-3.364-7.5-7.5s3.364-7.5 7.5-7.5 7.5 3.364 7.5 7.5-3.364 7.5-7.5 7.5zm142.5 157.5c12.406 0 22.5-10.093 22.5-22.5s-10.094-22.5-22.5-22.5S355 222.593 355 235s10.094 22.5 22.5 22.5zm0-30c4.136 0 7.5 3.364 7.5 7.5s-3.364 7.5-7.5 7.5-7.5-3.364-7.5-7.5 3.364-7.5 7.5-7.5zm-246.578 82.227c-12.407 0-22.5 10.093-22.5 22.5s10.093 22.5 22.5 22.5 22.5-10.093 22.5-22.5-10.093-22.5-22.5-22.5zm0 30c-4.136 0-7.5-3.364-7.5-7.5s3.364-7.5 7.5-7.5 7.5 3.364 7.5 7.5-3.364 7.5-7.5 7.5zM235 400c20.678 0 37.5-16.822 37.5-37.5S255.678 325 235 325s-37.5 16.822-37.5 37.5S214.322 400 235 400zm0-60c12.406 0 22.5 10.093 22.5 22.5S247.406 385 235 385c-12.407 0-22.5-10.093-22.5-22.5S222.593 340 235 340zm-30-60c20.678 0 37.5-16.822 37.5-37.5S225.678 205 205 205s-37.5 16.822-37.5 37.5S184.322 280 205 280zm0-60c12.407 0 22.5 10.093 22.5 22.5S217.407 265 205 265s-22.5-10.093-22.5-22.5S192.593 220 205 220zm163.136-69.281c0-20.678-16.822-37.5-37.5-37.5s-37.5 16.822-37.5 37.5 16.822 37.5 37.5 37.5 37.5-16.823 37.5-37.5zm-60 0c0-12.407 10.094-22.5 22.5-22.5s22.5 10.093 22.5 22.5-10.094 22.5-22.5 22.5-22.5-10.094-22.5-22.5z"/><path d="M235 30C121.962 30 30 121.962 30 235s91.962 205 205 205c48.915 0 96.314-17.587 133.465-49.523a7.5 7.5 0 1 0-9.777-11.375C324.256 408.7 280.329 425 235 425c-104.766 0-190-85.234-190-190S130.234 45 235 45c104.767 0 190 85.234 190 190 0 45.329-16.301 89.255-45.898 123.687a7.5 7.5 0 0 0 11.375 9.779C422.412 331.314 440 283.915 440 235c0-113.038-91.963-205-205-205z"/><path d="M199.415 151.915c0-26.191-21.309-47.5-47.5-47.5s-47.5 21.309-47.5 47.5c0 6.43 1.266 12.671 3.762 18.552a7.499 7.499 0 0 0 9.835 3.972 7.5 7.5 0 0 0 3.973-9.834 32.29 32.29 0 0 1-2.57-12.689c0-17.92 14.58-32.5 32.5-32.5s32.5 14.58 32.5 32.5-14.58 32.5-32.5 32.5a32.29 32.29 0 0 1-12.689-2.57 7.501 7.501 0 0 0-5.863 13.807 47.202 47.202 0 0 0 18.552 3.763c26.191-.001 47.5-21.31 47.5-47.501z"/></svg>