<svg xmlns="http://www.w3.org/2000/svg" viewBox="0 0 470.001 470.001"><path d="M433.912 225.28h-41.017c-8.703-30.166-26.873-57.333-51.62-76.992-27.111-21.537-59.782-32.921-94.479-32.921-25.275 0-50.319 6.338-72.426 18.33l-29.528 16.017v-7.799c0-14.383-11.701-26.084-26.084-26.084s-26.084 11.701-26.084 26.084v36.096l-22.168 12.025v-28.121c0-4.466 2.658-8.476 6.772-10.216a7.5 7.5 0 0 0 3.986-9.829 7.5 7.5 0 0 0-9.829-3.986 26.045 26.045 0 0 0-15.929 24.031v36.257L5.623 225.229c-.567.308-1.126.627-1.685.948l-.168.097a7.5 7.5 0 0 0 3.731 14.007h426.412c11.628 0 21.088 9.46 21.088 21.088s-9.46 21.088-21.088 21.088H160.322c-19.899 0-36.088 16.189-36.088 36.088s16.189 36.088 36.088 36.088H309.68a7.5 7.5 0 0 0 0-15H160.322c-11.628 0-21.088-9.46-21.088-21.088s9.46-21.088 21.088-21.088h273.591c19.899 0 36.088-16.189 36.088-36.088s-16.189-36.089-36.089-36.089zm-186.788 0c3.396-14.315 16.278-25 31.617-25h32.755a7.5 7.5 0 0 0 0-15h-32.755c-23.639 0-43.295 17.36-46.902 40H36.99l29.564-16.036.054-.029 37.143-20.147a7.501 7.501 0 0 0 3.924-6.593v-40.561c0-6.112 4.972-11.084 11.084-11.084s11.084 4.972 11.084 11.084v20.4a7.501 7.501 0 0 0 11.076 6.593l40.604-22.024c19.918-10.804 42.489-16.515 65.274-16.515 60.02 0 112.346 38.566 130.432 94.913H247.124z"/><circle cx="209.741" cy="185.179" r="7.5"/><circle cx="238.741" cy="160.291" r="7.5"/></svg>