<svg xmlns="http://www.w3.org/2000/svg" viewBox="0 0 470 470"><path d="M467.803 377.323L345.778 255.297a7.5 7.5 0 0 0-10.606 0l-30.487 30.487-10.607-10.607 80.111-80.111a7.5 7.5 0 0 0 0-10.606l-3.719-3.719 30.052-30.052a7.498 7.498 0 0 0 2.169-5.946l-3.146-36.559c-.474-5.508-3.655-12.343-7.564-16.253L378.07 78.019c-3.909-3.909-10.744-7.089-16.252-7.564l-36.56-3.146c-.061-.005-.122-.002-.183-.006a7.463 7.463 0 0 0-.56-.017c-.098.001-.194.009-.291.014a7.116 7.116 0 0 0-.484.038c-.101.012-.2.027-.3.043a6.886 6.886 0 0 0-.755.159 8.07 8.07 0 0 0-.481.146c-.085.029-.17.057-.253.089-.166.063-.33.135-.492.21-.073.034-.147.065-.219.102-.168.085-.332.18-.495.278-.063.038-.128.072-.189.112a7.894 7.894 0 0 0-.492.352c-.051.039-.104.073-.154.113a7.679 7.679 0 0 0-.598.535L289.26 99.531l-3.719-3.719a7.5 7.5 0 0 0-10.606 0l-80.111 80.111-10.607-10.607 30.487-30.487a7.5 7.5 0 0 0 0-10.606L92.677 2.197a7.5 7.5 0 0 0-10.606 0l-71.58 71.58a7.5 7.5 0 0 0 0 10.606l122.026 122.026c1.464 1.464 3.384 2.197 5.303 2.197s3.839-.732 5.303-2.197l30.487-30.487 10.607 10.607-76.943 76.943a7.5 7.5 0 0 0 0 10.606l26.667 26.667-12.041 12.041c-25.787-18.545-56.636-28.558-89.03-28.558-8.921 0-17.895.784-26.671 2.331a7.5 7.5 0 0 0-4.002 12.689l40.259 40.259-6.707 65.303a7.499 7.499 0 0 0 2.158 6.069l21.213 21.213a7.499 7.499 0 0 0 6.07 2.158l65.303-6.706 40.259 40.259a7.501 7.501 0 0 0 12.689-4.002c6.893-39.12-1.763-79.01-23.341-111.435l12.73-12.73 23.091 23.091c1.464 1.464 3.384 2.197 5.303 2.197s3.839-.732 5.303-2.197l76.943-76.943 10.607 10.607-30.487 30.487a7.5 7.5 0 0 0 0 10.606L385.616 459.51c1.464 1.464 3.384 2.197 5.303 2.197s3.839-.732 5.303-2.197l71.58-71.58a7.498 7.498 0 0 0 .001-10.607zm-269.01-247.797l-13.253 13.253-50.407-50.407 13.253-13.253 50.407 50.407zM26.401 79.08l13.253-13.253 34.497 34.497c1.464 1.464 3.384 2.197 5.303 2.197s3.839-.732 5.303-2.197a7.5 7.5 0 0 0 0-10.606L50.261 55.22l13.253-13.253 34.497 34.497c1.464 1.464 3.384 2.197 5.303 2.197s3.839-.732 5.303-2.197a7.5 7.5 0 0 0 0-10.606L74.12 31.36l13.253-13.253 50.407 50.406-18.554 18.553-23.862 23.861-18.558 18.558L26.401 79.08zM137.82 190.499l-50.407-50.407 13.253-13.253 50.407 50.407-13.253 13.253zm30.491-30.491l-6.632 6.632-50.407-50.407 13.253-13.253 50.407 50.407-6.621 6.621zm156.304-74.62l34.027 34.027c1.464 1.464 3.384 2.197 5.303 2.197s3.839-.732 5.303-2.197a7.5 7.5 0 0 0 0-10.606l-24.793-24.793 16.075 1.383c1.971.17 5.534 1.829 6.933 3.227l13.91 13.91c1.398 1.399 3.057 4.962 3.227 6.933l2.846 33.082-27.584 27.584-59.997-59.997 24.75-24.75zM67.205 418.964l-16.169-16.169 5.095-49.613 60.687 60.687-49.613 5.095zm103.262 27.341L23.695 299.533a138.57 138.57 0 0 1 9.176-.305c31.183 0 60.783 10.28 84.933 29.232l.151.121a140.186 140.186 0 0 1 12.43 11.034c28.231 28.233 42.679 67.248 40.082 106.69zM151.084 340.17a152.67 152.67 0 0 0-10.093-11.161 156.161 156.161 0 0 0-7.283-6.818l10.839-10.839 17.678 17.678-11.141 11.14zm50.141 6.647l-78.042-78.042 157.054-157.054 78.042 78.042-157.054 157.054zm78.276-14.637l13.253-13.253 34.497 34.497c1.464 1.464 3.384 2.197 5.303 2.197s3.839-.732 5.303-2.197a7.5 7.5 0 0 0 0-10.606l-34.497-34.497 6.622-6.622 6.632-6.632 34.497 34.497c1.464 1.464 3.384 2.197 5.303 2.197s3.839-.732 5.303-2.197a7.5 7.5 0 0 0 0-10.606l-34.497-34.497 13.253-13.253 50.406 50.406-60.973 60.973-50.405-50.407zm111.42 111.42l-50.406-50.406 13.253-13.253 50.406 50.406-13.253 13.253zm23.86-23.86l-50.406-50.406 13.253-13.253 50.406 50.406-13.253 13.253zm23.859-23.86l-50.406-50.406 13.253-13.253 50.406 50.406-13.253 13.253zM27.301 421.486a7.5 7.5 0 0 0-10.606 0 7.5 7.5 0 0 0 0 10.606l21.213 21.213c1.464 1.464 3.384 2.197 5.303 2.197s3.839-.732 5.303-2.197a7.5 7.5 0 0 0 0-10.606l-21.213-21.213z"/></svg>