<svg xmlns="http://www.w3.org/2000/svg" viewBox="0 0 470 470"><path d="M208.958 228.542c63.01 0 114.271-51.262 114.271-114.271S271.968 0 208.958 0c-63.009 0-114.27 51.262-114.27 114.271s51.261 114.271 114.27 114.271zm0-213.542c54.738 0 99.271 44.533 99.271 99.271s-44.533 99.271-99.271 99.271-99.271-44.533-99.271-99.271S154.22 15 208.958 15zm87.743 326.928h-17.962a7.5 7.5 0 0 0-7.5 7.5l-.001 15.248-54.779 74.872v-56.966l71.292-97.441c14.836 6.617 28.901 15.163 41.953 25.559a7.5 7.5 0 0 0 9.346-11.734c-37.309-29.716-82.293-45.424-130.09-45.424-27.653 0-54.062 5.412-78.242 15.212a7.416 7.416 0 0 0-1.574.644c-22.248 9.23-42.571 22.19-60.177 38.107-.103.068-.209.13-.31.203a7.477 7.477 0 0 0-1.487 1.451C25.89 347.358 0 401.958 0 462.5a7.5 7.5 0 0 0 15 0c0-53.604 21.861-102.197 57.132-137.338l20.994 28.694a7.5 7.5 0 0 0 6.053 3.071h32.5v10.198c0 1.592.507 3.144 1.447 4.429l69.779 95.375c.031.043.069.08.101.122.114.149.233.293.357.432.063.071.125.141.19.209.138.144.284.28.433.413.053.047.104.098.158.144.208.174.425.338.651.489.03.02.062.036.092.056.199.129.403.248.614.358.065.034.131.063.197.095a7.267 7.267 0 0 0 1.353.498c.079.021.158.043.238.061.2.045.403.08.608.109.073.01.145.025.219.033.276.031.556.05.84.05s.564-.019.84-.05c.074-.008.146-.023.219-.033a7.65 7.65 0 0 0 .608-.109c.08-.018.159-.04.238-.061a7.613 7.613 0 0 0 .796-.255c.19-.073.375-.155.557-.243.066-.032.132-.061.197-.095.211-.11.416-.229.614-.358.03-.02.062-.036.092-.056.226-.151.443-.315.651-.489.055-.046.105-.097.158-.144.149-.133.295-.269.433-.413.065-.068.127-.139.19-.209.125-.14.243-.284.357-.432.032-.042.07-.079.101-.122l69.78-95.375a7.501 7.501 0 0 0 1.447-4.429v-10.198h10.462c4.143 0 7.5-3.358 7.5-7.5s-3.353-7.499-7.495-7.499zm-95.243 97.619l-54.78-74.873v-15.247a7.5 7.5 0 0 0-7.5-7.5h-36.194l-19.75-26.994a194.429 194.429 0 0 1 47.012-29.686l71.212 97.333v56.967zm7.5-72.118l-64.319-87.911c20.138-7.099 41.783-10.976 64.319-10.976 22.319 0 43.975 3.693 64.396 10.87l-64.396 88.017z"/><path d="M193.959 144.209a7.5 7.5 0 0 0 7.5-7.5c0-4.136 3.365-7.5 7.5-7.5 4.136 0 7.5 3.364 7.5 7.5a7.5 7.5 0 0 0 7.5 7.5h41.648c12.958 0 23.5-10.542 23.5-23.5V97.46c0-12.958-10.542-23.5-23.5-23.5H152.311c-12.958 0-23.5 10.542-23.5 23.5v23.249c0 12.958 10.542 23.5 23.5 23.5h41.648zm-50.148-23.5V97.46c0-4.687 3.813-8.5 8.5-8.5h113.296c4.687 0 8.5 3.813 8.5 8.5v23.249c0 4.687-3.813 8.5-8.5 8.5h-35.433c-3.095-8.73-11.437-15-21.215-15s-18.12 6.27-21.215 15H152.31c-4.686 0-8.499-3.813-8.499-8.5zm272.98 194.447v-79.114a7.5 7.5 0 0 0-7.5-7.5h-37.958a7.5 7.5 0 0 0-7.5 7.5v79.114c-31.604 11.122-53.21 41.239-53.21 75.155 0 43.94 35.748 79.689 79.688 79.689C434.252 470 470 434.252 470 390.312c0-33.916-21.605-64.034-53.209-75.156zM390.311 455c-33.131 0-60.509-25.042-64.24-57.189H402.5c4.143 0 7.5-3.358 7.5-7.5s-3.357-7.5-7.5-7.5h-76.432c3.035-25.931 21.599-47.934 47.231-54.904a7.5 7.5 0 0 0 5.532-7.237v-77.128h22.958v77.128a7.5 7.5 0 0 0 5.532 7.237c25.632 6.97 44.196 28.973 47.231 54.904H432.5c-4.143 0-7.5 3.358-7.5 7.5s3.357 7.5 7.5 7.5h22.051c-3.73 32.148-31.108 57.189-64.24 57.189z"/></svg>