<svg xmlns="http://www.w3.org/2000/svg" viewBox="0 0 470 470"><path d="M168.757 205.591l-7.525-2.445a7.5 7.5 0 0 0-4.635 14.265l7.507 2.439c-1.044 4.889-1.604 9.954-1.604 15.149s.561 10.261 1.604 15.149l-7.507 2.439a7.499 7.499 0 0 0-4.815 9.45 7.49 7.49 0 0 0 9.45 4.816l7.525-2.445a72.845 72.845 0 0 0 17.814 24.488l-4.661 6.416a7.5 7.5 0 1 0 12.134 8.817l4.657-6.411c8.637 5.018 18.389 8.319 28.798 9.394V315c0 4.142 3.357 7.5 7.5 7.5s7.5-3.358 7.5-7.5v-7.887c10.409-1.075 20.161-4.376 28.798-9.394l4.657 6.411a7.488 7.488 0 0 0 6.073 3.092 7.499 7.499 0 0 0 6.061-11.909l-4.661-6.416a72.845 72.845 0 0 0 17.814-24.488l7.524 2.445c.77.25 1.551.369 2.319.369a7.503 7.503 0 0 0 2.316-14.635l-7.506-2.439c1.044-4.889 1.604-9.954 1.604-15.15s-.561-10.261-1.604-15.15l7.506-2.439a7.5 7.5 0 1 0-4.635-14.266l-7.524 2.445a72.845 72.845 0 0 0-17.814-24.488l4.661-6.416a7.5 7.5 0 1 0-12.135-8.816l-4.657 6.411c-8.637-5.018-18.389-8.319-28.798-9.394V155c0-4.142-3.357-7.5-7.5-7.5s-7.5 3.358-7.5 7.5v7.887c-10.409 1.075-20.161 4.376-28.798 9.394l-4.657-6.411a7.501 7.501 0 0 0-10.476-1.66 7.499 7.499 0 0 0-1.659 10.476l4.661 6.416a72.88 72.88 0 0 0-17.812 24.489zM235 177.5c31.706 0 57.5 25.794 57.5 57.5s-25.794 57.5-57.5 57.5-57.5-25.794-57.5-57.5 25.794-57.5 57.5-57.5z"/><path d="M401.17 68.83C356.784 24.444 297.771 0 235 0S113.216 24.444 68.83 68.83 0 172.229 0 235s24.444 121.784 68.83 166.17S172.229 470 235 470c40.195 0 79.866-10.326 114.725-29.86a7.5 7.5 0 1 0-7.333-13.085C309.769 445.336 272.633 455 235 455c-121.309 0-220-98.691-220-220S113.691 15 235 15s220 98.691 220 220c0 37.63-9.669 74.769-27.961 107.403a7.5 7.5 0 0 0 13.084 7.334C459.669 314.868 470 275.192 470 235c0-62.771-24.444-121.784-68.83-166.17z"/><path d="M395.867 355.867c-22.056 0-40 17.944-40 40s17.944 40 40 40 40-17.944 40-40-17.944-40-40-40zm0 65c-13.785 0-25-11.215-25-25s11.215-25 25-25 25 11.215 25 25-11.215 25-25 25zm-274.888-71.846c31.437 31.436 72.729 47.154 114.021 47.154s82.585-15.718 114.021-47.154c62.871-62.872 62.871-165.17 0-228.042-45.445-45.445-113.45-59.574-173.251-36a7.498 7.498 0 0 0-2.554 12.281 7.504 7.504 0 0 0 8.215 1.61c54.205-21.297 115.805-8.464 156.982 32.714 57.023 57.023 57.023 149.806 0 206.829-28.515 28.515-65.958 42.771-103.414 42.767-37.447-.003-74.906-14.259-103.414-42.767-41.217-41.217-54.03-102.898-32.645-157.141a7.501 7.501 0 0 0-13.956-5.502c-23.575 59.804-9.447 127.809 35.995 173.251z"/><path d="M126.282 86.282c-10.685 0-20.729 4.161-28.283 11.716-7.556 7.555-11.717 17.6-11.717 28.284s4.161 20.729 11.716 28.284 17.6 11.716 28.284 11.716 20.729-4.161 28.285-11.716c15.595-15.596 15.595-40.972-.001-56.568-7.554-7.555-17.599-11.716-28.284-11.716zm17.678 57.678c-4.722 4.722-11 7.323-17.678 7.323s-12.955-2.601-17.678-7.323c-4.722-4.722-7.322-11-7.322-17.678s2.601-12.956 7.323-17.678c4.722-4.722 10.999-7.322 17.677-7.322s12.956 2.601 17.678 7.322c9.747 9.748 9.747 25.608 0 35.356z"/></svg>