<svg xmlns="http://www.w3.org/2000/svg" viewBox="0 0 470 470"><path d="M462.5 425H45V7.5C45 3.358 41.643 0 37.5 0S30 3.358 30 7.5v63.333H7.5c-4.143 0-7.5 3.358-7.5 7.5s3.357 7.5 7.5 7.5H30v55.833H7.5c-4.143 0-7.5 3.358-7.5 7.5s3.357 7.5 7.5 7.5H30V212.5H7.5c-4.143 0-7.5 3.358-7.5 7.5s3.357 7.5 7.5 7.5H30v55.833H7.5c-4.143 0-7.5 3.358-7.5 7.5s3.357 7.5 7.5 7.5H30v55.833H7.5c-4.143 0-7.5 3.358-7.5 7.5s3.357 7.5 7.5 7.5H30V432.5a7.5 7.5 0 0 0 7.5 7.5h110.833v22.5c0 4.142 3.357 7.5 7.5 7.5s7.5-3.358 7.5-7.5V440h173.334v22.5c0 4.142 3.357 7.5 7.5 7.5s7.5-3.358 7.5-7.5V440H462.5c4.143 0 7.5-3.358 7.5-7.5s-3.357-7.5-7.5-7.5z"/><path d="M77.5 410a7.5 7.5 0 0 0 7.5-7.5v-175h63.333v175c0 4.142 3.357 7.5 7.5 7.5s7.5-3.358 7.5-7.5V298.333H222.5V402.5c0 4.142 3.357 7.5 7.5 7.5s7.5-3.358 7.5-7.5V290.833a7.5 7.5 0 0 0-7.5-7.5h-66.667V220a7.5 7.5 0 0 0-7.5-7.5H77.5A7.5 7.5 0 0 0 70 220v182.5a7.5 7.5 0 0 0 7.5 7.5zm192.5 0a7.5 7.5 0 0 0 7.5-7.5V85.833h59.167V402.5c0 4.142 3.357 7.5 7.5 7.5s7.5-3.358 7.5-7.5V156.667H415V402.5c0 4.142 3.357 7.5 7.5 7.5s7.5-3.358 7.5-7.5V149.167a7.5 7.5 0 0 0-7.5-7.5h-70.833V78.333a7.5 7.5 0 0 0-7.5-7.5H270a7.5 7.5 0 0 0-7.5 7.5V402.5a7.5 7.5 0 0 0 7.5 7.5z"/></svg>