<svg xmlns="http://www.w3.org/2000/svg" viewBox="0 0 470.005 470.005"><path d="M469.432 96.718L431.288 4.632a7.498 7.498 0 0 0-9.799-4.059L295.15 52.905a7.5 7.5 0 0 0-4.059 9.799l.995 2.402-206.151 85.39a7.497 7.497 0 0 0-4.059 9.799l.995 2.403-78.238 32.409a7.5 7.5 0 0 0-4.059 9.799l22.682 54.759a7.497 7.497 0 0 0 9.799 4.059l78.239-32.407.995 2.403a7.502 7.502 0 0 0 6.932 4.632c.956 0 1.929-.184 2.867-.573l185.363-76.78a7.5 7.5 0 0 0 4.059-9.799 7.498 7.498 0 0 0-9.799-4.059l-178.435 73.91-24.673-59.564 199.223-82.52 31.407 75.825a7.497 7.497 0 0 0 9.799 4.059l27.713-11.479 98.627-40.853a7.497 7.497 0 0 0 4.059-4.059 7.493 7.493 0 0 0 .001-5.742zm-363.878 120.74l-71.31 29.537-16.941-40.901 71.31-29.537 16.941 40.901zm234.667-75.337l-31.407-75.824-.995-2.403 13.859-5.741 32.402 78.227-13.859 5.741zm27.717-11.481l-32.402-78.227 84.766-35.111 32.403 78.227-84.767 35.111zm-85.476 189.542h.13c4.143 0 7.5-3.358 7.5-7.5s-3.357-7.5-7.5-7.5h-4.301l-6.815-24.509a7.5 7.5 0 0 0-7.226-5.491h-21.747v-54.809l24.616-10.197a7.5 7.5 0 0 0-5.74-13.858l-29.257 12.119-.067.028-29.17 12.083a7.5 7.5 0 0 0-4.059 9.799 7.502 7.502 0 0 0 6.932 4.632c.956 0 1.929-.184 2.867-.573l18.877-7.819v48.596h-21.747a7.501 7.501 0 0 0-7.226 5.491l-6.815 24.509h-4.301c-4.143 0-7.5 3.358-7.5 7.5s3.357 7.5 7.5 7.5h.13l-39.014 140.312a7.5 7.5 0 1 0 14.451 4.018l40.132-144.33h24.39v142.321c0 4.142 3.357 7.5 7.5 7.5s7.5-3.358 7.5-7.5V320.182h24.39l40.132 144.33a7.504 7.504 0 0 0 7.222 5.493 7.5 7.5 0 0 0 7.23-9.511l-39.014-140.312zm-75.177-15l4.171-15h47.096l4.171 15h-55.438z"/></svg>