<svg xmlns="http://www.w3.org/2000/svg" viewBox="0 0 470.02 470.02"><path d="M426.873 43.148c-8.5-8.5-19.8-13.18-31.82-13.18s-23.32 4.681-31.82 13.18l-42.426 42.426a7.5 7.5 0 0 0 0 10.606l53.033 53.033a7.5 7.5 0 0 0 10.608 0l10.605-10.605 31.821-31.821c17.543-17.545 17.543-46.093-.001-63.639zm-63.64 74.247l5.303-5.303a7.5 7.5 0 0 0-10.607-10.606l-5.303 5.303-15.91-15.91 5.298-5.298c11.701-11.703 30.736-11.703 42.432-.005 11.697 11.697 11.697 30.729 0 42.427l-5.303 5.303-15.91-15.911zm53.032-21.213l-8.127 8.128c-.584-10.684-4.941-21.198-13.084-29.341-8.144-8.144-18.658-12.501-29.342-13.085l8.127-8.128c5.667-5.667 13.201-8.787 21.214-8.787 8.014 0 15.547 3.121 21.213 8.787 11.696 11.696 11.696 30.728-.001 42.426z"/><path d="M448.086 21.935C433.941 7.79 415.107 0 395.053 0s-38.888 7.79-53.033 21.936l-77.782 77.782a7.5 7.5 0 0 0 0 10.606l15.91 15.91-26.512 26.512L48.57 357.812c-11.751 11.752-15.619 28.437-11.629 43.449L6.592 431.609c-4.25 4.25-6.591 9.9-6.591 15.91s2.341 11.66 6.59 15.91c4.25 4.25 9.9 6.59 15.91 6.59s11.66-2.341 15.91-6.59l30.325-30.325c3.756 1 7.663 1.527 11.653 1.527 12.021 0 23.32-4.681 31.82-13.18l45.962-45.962a7.5 7.5 0 0 0 0-10.606 7.501 7.501 0 0 0-10.607 0l-45.962 45.962c-11.695 11.697-30.729 11.697-42.426 0s-11.697-30.73 0-42.427l8.838-8.838 1.767 1.767a7.48 7.48 0 0 0 5.304 2.197 7.5 7.5 0 0 0 5.304-12.803l-1.768-1.768 21.213-21.213 1.768 1.768c1.465 1.464 3.385 2.197 5.304 2.197s3.839-.732 5.304-2.197a7.5 7.5 0 0 0 0-10.606l-1.768-1.768 21.213-21.213 1.767 1.767a7.476 7.476 0 0 0 5.304 2.197 7.498 7.498 0 0 0 5.304-12.802l-1.768-1.768 21.213-21.213 1.768 1.768c1.465 1.464 3.385 2.197 5.304 2.197s3.839-.732 5.304-2.197a7.5 7.5 0 0 0 0-10.606l-1.768-1.768 21.213-21.213 1.767 1.767a7.476 7.476 0 0 0 5.304 2.197 7.498 7.498 0 0 0 5.304-12.802l-1.768-1.768 21.213-21.213 1.768 1.768c1.465 1.464 3.385 2.197 5.304 2.197s3.839-.732 5.304-2.197a7.5 7.5 0 0 0 0-10.606l-1.768-1.768 21.213-21.213 1.767 1.767c1.465 1.464 3.385 2.197 5.304 2.197s3.839-.732 5.304-2.197a7.5 7.5 0 0 0 0-10.606l-1.768-1.768 21.213-21.213 15.91 15.91-235.8 235.792a7.5 7.5 0 0 0 5.304 12.803 7.478 7.478 0 0 0 5.304-2.197l235.797-235.796 15.91 15.91-164.404 164.402a7.5 7.5 0 0 0 5.304 12.803 7.478 7.478 0 0 0 5.304-2.197l164.402-164.402 15.909 15.909c1.465 1.464 3.385 2.197 5.304 2.197s3.839-.732 5.304-2.197L448.087 128c29.242-29.242 29.242-76.822-.001-106.065zM27.804 452.823c-1.416 1.417-3.3 2.197-5.303 2.197s-3.887-.78-5.304-2.197c-1.416-1.417-2.196-3.3-2.196-5.303s.78-3.886 2.197-5.303l26.519-26.519a45.054 45.054 0 0 0 4.852 5.753 45.507 45.507 0 0 0 5.75 4.857l-26.515 26.515zm409.675-335.428L365 189.873l-15.905-15.905-26.517-26.517-26.517-26.517-15.915-15.915 72.479-72.479C363.939 21.23 379.006 15 395.053 15s31.114 6.229 42.426 17.542c23.395 23.394 23.395 61.458 0 84.853z"/></svg>