<svg xmlns="http://www.w3.org/2000/svg" viewBox="0 0 465.021 465.021"><path d="M461.114 387.344a741.99 741.99 0 0 0-30.194-8.45v-58.982l-.342.307a25.27 25.27 0 0 0 .342-4.116c0-9.516-5.268-18.111-13.746-22.431l-16.374-8.344v-11.51c0-6.337-3.635-11.78-9.487-14.204-3.653-1.513-7.528-1.583-11.015-.332l-29.195-29.194a5.548 5.548 0 0 0 3.88-1.619 5.535 5.535 0 0 0 1.61-3.88c0-1.45-.59-2.87-1.61-3.89a5.505 5.505 0 0 0-7.781 0 5.502 5.502 0 0 0-1.608 3.88l-3.991-3.991a5.52 5.52 0 0 0 3.88-1.609 5.517 5.517 0 0 0 0-7.78 5.498 5.498 0 0 0-7.78 0 5.463 5.463 0 0 0-1.611 3.878l-3.989-3.989a5.52 5.52 0 0 0 3.88-1.609c2.14-2.15 2.14-5.64 0-7.78a5.498 5.498 0 0 0-7.78 0 5.463 5.463 0 0 0-1.611 3.878l-1.756-1.756a50.085 50.085 0 0 0-2.422-2.25c.06.002.119.018.179.018 1.45 0 2.859-.59 3.89-1.61a5.576 5.576 0 0 0 1.61-3.89c0-1.45-.59-2.87-1.61-3.89a5.505 5.505 0 0 0-7.781 0 5.544 5.544 0 0 0-1.609 3.89c0 .543.107 1.073.265 1.586-19.203-12.897-45.445-11.006-62.558 5.65v-40.386h1.5a5.5 5.5 0 0 0 0-11h-1.5v-14.716h18.137c9.488 0 17.208-7.72 17.208-17.209s-7.72-17.208-17.208-17.208H255.34a21.857 21.857 0 0 0 2.959-10.999c0-12.13-9.869-21.999-21.999-21.999s-21.999 9.869-21.999 21.999c0 4.005 1.081 7.761 2.959 10.999h-17.597c-9.488 0-17.208 7.72-17.208 17.208 0 9.489 7.72 17.209 17.208 17.209h18.133v14.716H216.3a5.5 5.5 0 0 0 0 11h1.496v173h-9.06a5.5 5.5 0 0 0-5.5 5.5v14.978a750.822 750.822 0 0 0-27.401 2.011l-14.187-24.367a100.457 100.457 0 0 0 21.641-18.824l1.459 1.111a5.475 5.475 0 0 0 3.33 1.126 5.499 5.499 0 0 0 3.338-9.874l-1.415-1.078c5.328-7.783 9.557-16.348 12.553-25.501l1.821.481a5.494 5.494 0 0 0 6.723-3.911 5.5 5.5 0 0 0-3.911-6.723l-1.768-.467a100.458 100.458 0 0 0 1.933-28.357l1.821-.247a5.5 5.5 0 1 0-1.471-10.901l-1.766.239c-1.736-9.27-4.802-18.316-9.156-26.907l1.635-.952a5.5 5.5 0 1 0-5.539-9.503l-1.58.92a100.407 100.407 0 0 0-18.684-21.418l1.118-1.468a5.498 5.498 0 0 0-1.047-7.707 5.5 5.5 0 0 0-7.707 1.047l-1.078 1.417a100.321 100.321 0 0 0-25.523-12.56 5.5 5.5 0 0 0-4.022-6.211 5.5 5.5 0 0 0-6.543 3.36 100.446 100.446 0 0 0-28.386-1.941l-.248-1.831a5.496 5.496 0 0 0-6.19-4.709 5.5 5.5 0 0 0-4.71 6.19l.239 1.766c-9.27 1.735-18.316 4.801-26.906 9.154l-.951-1.634a5.5 5.5 0 1 0-9.508 5.531l.925 1.589a99.99 99.99 0 0 0-21.385 18.705l-1.504-1.145a5.5 5.5 0 1 0-6.66 8.754l1.467 1.117a100.954 100.954 0 0 0-12.556 25.473l-1.878-.496a5.5 5.5 0 0 0-2.803 10.637l1.816.479a101.03 101.03 0 0 0-1.928 28.336l-1.884.255a5.5 5.5 0 0 0 1.48 10.899l1.813-.246a99.937 99.937 0 0 0 9.104 26.915l-1.63.949a5.5 5.5 0 0 0 5.532 9.509l1.594-.928a100.01 100.01 0 0 0 18.695 21.396l-1.136 1.492a5.499 5.499 0 0 0 4.37 8.834 5.49 5.49 0 0 0 4.378-2.166l1.12-1.47a100.972 100.972 0 0 0 25.23 12.489l-8.325 31.536a743.41 743.41 0 0 0-39.359 10.753 5.5 5.5 0 0 0 3.191 10.527 729.95 729.95 0 0 1 32.964-9.143l-1.439 5.449a5.502 5.502 0 0 0 5.322 6.905 5.502 5.502 0 0 0 5.314-4.098l2.963-11.224a737.558 737.558 0 0 1 65.933-12.345 733.574 733.574 0 0 1 27.999-3.368l9.608 16.502a5.496 5.496 0 0 0 7.521 1.986 5.499 5.499 0 0 0 1.985-7.52l-7.042-12.096a739.795 739.795 0 0 1 119.027-.475c53.206 4.091 106.014 13.992 156.955 29.429a5.496 5.496 0 0 0 1.597.238 5.504 5.504 0 0 0 5.262-3.906 5.507 5.507 0 0 0-3.672-6.862zm-305.008-62.803l-28.777-49.426a32.458 32.458 0 0 0 1.546-1.314l45.626 34.744a89.473 89.473 0 0 1-18.395 15.996zm-67.838-64.057c-6.006-10.312-2.502-23.588 7.81-29.594a21.511 21.511 0 0 1 10.855-2.936c7.456 0 14.724 3.852 18.738 10.746a21.509 21.509 0 0 1 2.225 16.415 21.505 21.505 0 0 1-10.034 13.179c-10.313 6.006-23.589 2.503-29.594-7.81zm17.068 21.69l7.694 56.824c-1.971.13-3.941.197-5.909.197a90.155 90.155 0 0 1-18.384-1.911l14.593-55.278c.666.077 1.335.134 2.006.168zm10.924-1.303c.478-.142.956-.286 1.43-.451l28.866 49.579a88.979 88.979 0 0 1-22.616 7.596l-7.68-56.724zm64.963 18.966l-45.548-34.685c.279-.518.543-1.045.795-1.579l55.413 14.63c-2.597 7.74-6.18 15.002-10.66 21.634zm13.536-32.252L139.44 252.98c.063-.587.106-1.174.137-1.761l56.83-7.695a89.438 89.438 0 0 1-1.648 24.061zm.243-34.97l-56.734 7.682a32.158 32.158 0 0 0-.55-1.667l49.524-28.846c3.637 7.307 6.238 14.974 7.76 22.831zm-13.233-32.374l-49.439 28.796a32.186 32.186 0 0 0-1.149-1.338l34.741-45.636a89.419 89.419 0 0 1 15.847 18.178zm-59.242 20.666a33.513 33.513 0 0 0-1.573-.792l14.63-55.432c7.739 2.596 15 6.178 21.631 10.658l-34.688 45.566zm-15.706-60.973c6.043 0 12.117.627 18.145 1.87l-14.606 55.342a33.923 33.923 0 0 0-1.746-.136l-7.709-56.878a89.026 89.026 0 0 1 5.916-.198zm-16.824 1.62l7.692 56.748c-.564.167-1.125.352-1.683.551l-28.854-49.555a89.367 89.367 0 0 1 22.845-7.744zm-32.378 13.233l28.792 49.449c-.456.369-.898.751-1.33 1.141l-45.625-34.733a89.04 89.04 0 0 1 18.163-15.857zm-24.865 24.58l45.533 34.663a32.034 32.034 0 0 0-.791 1.571l-55.41-14.62a89.911 89.911 0 0 1 10.668-21.614zm-13.533 32.234l55.302 14.592a31.96 31.96 0 0 0-.136 1.752l-56.818 7.701a89.95 89.95 0 0 1 1.652-24.045zm-.251 34.956l56.708-7.686c.167.565.352 1.126.552 1.685l-49.548 28.85a89.01 89.01 0 0 1-7.712-22.849zm13.2 32.381l49.453-28.795c.371.458.747.912 1.139 1.346L48.03 317.1a89.014 89.014 0 0 1-15.86-18.162zM56.754 323.8l34.67-45.528c.441.238.882.476 1.333.693l-14.633 55.427a89.932 89.932 0 0 1-21.37-10.592zm83.59 38.721a749.197 749.197 0 0 0-50.338 8.834 719.664 719.664 0 0 0-10.895 2.391l6.815-25.817a101.213 101.213 0 0 0 21.212 2.264c2.454 0 4.912-.1 7.369-.281l.255 1.88a5.5 5.5 0 1 0 10.9-1.471l-.246-1.819a99.959 99.959 0 0 0 26.682-8.983l11.707 20.107a750.177 750.177 0 0 0-23.461 2.895zM400.8 341.278h4.944c5.254 0 10.135-1.62 14.176-4.383v33.011c-10.992-2.907-19.12-12.935-19.12-24.828v-3.8zm11.379-37.806a14.112 14.112 0 0 1 7.74 12.63c0 7.816-6.359 14.176-14.176 14.176H400.8v-32.605l11.379 5.799zm-25.076-33.695c.633.262 2.696 1.328 2.696 4.041v71.26c0 10.614 4.536 20.184 11.766 26.888a750.33 750.33 0 0 0-26.202-5.13v-89.133l6.977-6.975c1.918-1.919 4.13-1.213 4.763-.951zm-137.176 1.288a49.843 49.843 0 0 0 14.287 12.167 39.869 39.869 0 0 0-1.614 11.245c0 .162.01.323.012.485h-.012v60.54a753.972 753.972 0 0 0-12.673-.199v-84.238zm23.672 50.838c.217.228.428.46.651.684a39.651 39.651 0 0 0 13.804 8.992v24.983a741.31 741.31 0 0 0-14.455-.707v-33.952zm8.43-7.094c-5.437-5.436-8.43-12.656-8.43-20.331s2.993-14.895 8.428-20.329l.562-.562c5.431-5.431 12.651-8.421 20.331-8.421s14.9 2.991 20.331 8.421l20.33 20.331-20.892 20.892c-5.428 5.432-12.646 8.423-20.326 8.423s-14.902-2.992-20.334-8.424zm48.441 7.778l8.457-8.455v47.149a751.13 751.13 0 0 0-14.436-1.699v-32.067a40.184 40.184 0 0 0 5.979-4.928zm19.457-19.454l14.437-14.434v76.261a754.691 754.691 0 0 0-14.437-2.2v-59.627zm-87.87-91.534c15.164-15.163 39.837-15.164 55.001 0l54.426 54.426-20.124 20.115-20.332-20.332c-7.508-7.508-17.49-11.643-28.108-11.643s-20.601 4.135-28.107 11.641l-.563.562a40.1 40.1 0 0 0-5.459 6.81 39.018 39.018 0 0 1-7.465-5.848c-7.351-7.351-11.399-17.117-11.399-27.5 0-10.38 4.05-20.151 11.374-27.484l.756-.747zM236.3 80.807c6.064 0 10.999 4.934 10.999 10.999s-4.935 10.999-10.999 10.999-10.999-4.934-10.999-10.999 4.934-10.999 10.999-10.999zm-36.637 45.416a6.215 6.215 0 0 1-6.208-6.209 6.215 6.215 0 0 1 6.208-6.208h73.273a6.215 6.215 0 0 1 6.208 6.208 6.215 6.215 0 0 1-6.208 6.209h-73.273zm29.133 11H243.8v14.716h-15.004v-14.716zm0 25.716H243.8v55.348c-3.034 6.326-4.694 13.268-4.847 20.458l-.026 97.194h-10.131v-173zm-14.56 184h24.69v8.368a750.04 750.04 0 0 0-24.69.59v-8.958zm84.818 10.343v-23.195c1.095.09 2.197.145 3.309.145 3.822 0 7.557-.544 11.128-1.58v25.821c-3.891-.361-7.783-.7-11.679-.999-.918-.069-1.839-.125-2.758-.192z"/><path d="M121.461 253.417a14.886 14.886 0 0 0-1.541-11.367 14.888 14.888 0 0 0-9.125-6.948 14.887 14.887 0 0 0-11.366 1.54 14.884 14.884 0 0 0-6.949 9.127 14.887 14.887 0 0 0 1.54 11.366c2.781 4.775 7.813 7.442 12.977 7.442 2.559 0 5.15-.655 7.517-2.033a14.894 14.894 0 0 0 6.947-9.127zm-10.636-2.807a3.953 3.953 0 0 1-1.848 2.427 3.993 3.993 0 0 1-5.452-1.438 3.96 3.96 0 0 1-.41-3.024 3.96 3.96 0 0 1 1.849-2.428 3.97 3.97 0 0 1 3.023-.409 3.961 3.961 0 0 1 2.428 1.848l.001.001c.535.92.681 1.994.409 3.023zm157.274 10.588a5.5 5.5 0 0 0 5.5-5.5v-28.735a5.5 5.5 0 0 0-11 0v28.735a5.5 5.5 0 0 0 5.5 5.5zm25.455 15.553a5.5 5.5 0 0 0-5.5 5.5v24.78a5.5 5.5 0 0 0 11 0v-24.78a5.5 5.5 0 0 0-5.5-5.5zm0-27.273a5.5 5.5 0 0 0 5.5-5.5v-29.947a5.5 5.5 0 0 0-11 0v29.947a5.5 5.5 0 0 0 5.5 5.5zm25.437 57.386a5.5 5.5 0 0 0 5.5-5.5v-14.06a5.5 5.5 0 0 0-11 0v14.06a5.5 5.5 0 0 0 5.5 5.5zm0-56.666a5.5 5.5 0 0 0 5.5-5.5v-13.393a5.5 5.5 0 0 0-11 0v13.393a5.5 5.5 0 0 0 5.5 5.5zm25.436 18.499a5.5 5.5 0 0 0 5.5-5.5v-6.833a5.5 5.5 0 0 0-11 0v6.833a5.5 5.5 0 0 0 5.5 5.5zM62.299 101.794a5.5 5.5 0 0 0 5.488 5.145h88.058a5.5 5.5 0 0 0 5.352-4.232 25.05 25.05 0 0 0 .691-5.768c0-13.785-11.215-25-25-25-3.533 0-6.959.733-10.125 2.148-5.455-6.361-13.489-10.148-22.026-10.148-10.78 0-20.719 6.123-25.678 15.532-9.668 2.145-16.822 10.771-16.822 20.968 0 .396.022.784.05 1.173l.012.182zm20.826-11.817a5.5 5.5 0 0 0 4.816-3.512c2.659-6.894 9.408-11.526 16.795-11.526 6.466 0 12.469 3.502 15.666 9.141a5.5 5.5 0 0 0 8.092 1.682c2.453-1.846 5.355-2.822 8.394-2.822 7.383 0 13.45 5.746 13.965 13h-76.6a10.497 10.497 0 0 1 8.872-5.963zm225.183 60.798a5.501 5.501 0 0 0 5.49 5.165h110.073a5.501 5.501 0 0 0 5.353-4.234 30.03 30.03 0 0 0 .826-6.891c0-11.975-7.086-22.321-17.282-27.082.112-1.027.187-2.06.187-3.103 0-15.715-12.785-28.5-28.5-28.5a28.458 28.458 0 0 0-26.829 18.895c-12.255.847-23.308 8.227-28.816 19.167-11.781 2.305-20.574 12.687-20.574 24.998 0 .447.025.885.056 1.324l.016.261zm76.148-53.646c9.649 0 17.5 7.851 17.5 17.5 0 .123-.011.244-.013.366a29.532 29.532 0 0 0-14.801 2.948 35.013 35.013 0 0 0-18.002-11.764c3-5.454 8.786-9.05 15.316-9.05zm-51.564 37.61a5.5 5.5 0 0 0 4.816-3.511c3.527-9.145 12.48-15.288 22.277-15.288 8.576 0 16.538 4.645 20.778 12.122a5.5 5.5 0 0 0 8.092 1.682c3.306-2.489 7.22-3.804 11.319-3.804 10.408 0 18.875 8.467 18.875 18.875v.125h-99.178c1.738-5.64 6.84-9.846 13.021-10.201z"/></svg>