<svg xmlns="http://www.w3.org/2000/svg" viewBox="0 0 459.783 459.783"><path d="M285.019 148.957c.401 0 .804-.009 1.206-.028 6.849-.314 13.165-3.277 17.786-8.343a5 5 0 0 0-.324-7.063c-5.065-4.621-11.64-6.989-18.476-6.677-6.849.314-13.165 3.277-17.786 8.343a5 5 0 0 0 .324 7.063c4.768 4.348 10.86 6.705 17.27 6.705zm.651-12.123a15.698 15.698 0 0 1 5.713.792 15.669 15.669 0 0 1-5.617 1.313 15.698 15.698 0 0 1-5.713-.792 15.669 15.669 0 0 1 5.617-1.313zM117.04 92.776a25.564 25.564 0 0 0 11.598 2.795c2.678 0 5.369-.424 7.989-1.279 6.518-2.127 11.817-6.665 14.922-12.777a5 5 0 0 0-2.193-6.722c-6.112-3.104-13.066-3.643-19.587-1.516-6.518 2.127-11.817 6.665-14.922 12.777a5 5 0 0 0 2.193 6.722zm15.831-9.993a15.704 15.704 0 0 1 5.718-.758c-1.481 1.211-3.19 2.149-5.064 2.761s-3.801.862-5.718.758a15.663 15.663 0 0 1 5.064-2.761zm55.848-15.109c1.934.446 3.884.667 5.82.667 4.754 0 9.423-1.329 13.554-3.911 5.814-3.634 9.865-9.314 11.407-15.995a5 5 0 0 0-3.748-5.996c-6.682-1.542-13.563-.39-19.375 3.244-5.813 3.633-9.864 9.313-11.406 15.994a5 5 0 0 0 3.748 5.997zm12.958-13.51a15.657 15.657 0 0 1 5.368-2.112 15.652 15.652 0 0 1-4.251 3.898 15.679 15.679 0 0 1-5.368 2.113 15.655 15.655 0 0 1 4.251-3.899zm93.842 28.296c4.321 0 8.709-.915 12.881-2.847a5.005 5.005 0 0 0 2.436-6.639c-7.129-15.39-25.447-22.11-40.839-14.983a5.005 5.005 0 0 0-2.436 6.639c5.196 11.218 16.338 17.83 27.958 17.83zm3.033-10.226a20.848 20.848 0 0 1-18.708-6.863 20.842 20.842 0 0 1 18.708 6.863zm127.226 116.305c-6.386-2.491-13.361-2.345-19.641.409-6.278 2.755-11.107 7.791-13.598 14.178a5 5 0 0 0 2.842 6.475 25.64 25.64 0 0 0 9.333 1.768c3.504 0 7.002-.727 10.307-2.177 6.278-2.755 11.107-7.791 13.599-14.178a5 5 0 0 0-2.842-6.475zm-14.776 11.495a15.652 15.652 0 0 1-5.616 1.314 15.64 15.64 0 0 1 4.77-3.244 15.658 15.658 0 0 1 5.617-1.314 15.657 15.657 0 0 1-4.771 3.244zM67.742 350.003a5.003 5.003 0 0 0-2.842-6.475c-13.181-5.143-28.097 1.401-33.239 14.587a5.003 5.003 0 0 0 2.842 6.475 25.534 25.534 0 0 0 9.296 1.755c10.272 0 19.992-6.211 23.943-16.342zm-12.87 1.787a15.765 15.765 0 0 1-10.342 4.539 15.76 15.76 0 0 1 10.342-4.539z"/><path d="M75.619 358.945c-18.888-.653-34.826 14.189-35.484 33.098a5.003 5.003 0 0 0 4.823 5.171c.408.014.816.021 1.223.021 8.712 0 16.972-3.249 23.374-9.221 6.703-6.251 10.569-14.739 10.888-23.898a5.001 5.001 0 0 0-4.824-5.171zm-12.884 21.756c-3.336 3.111-7.382 5.179-11.744 6.057 2.431-8.79 9.665-15.539 18.602-17.351-1.179 4.29-3.523 8.183-6.858 11.294zm302.171-119.783a5 5 0 0 0-1.328 6.946c4.96 7.302 13.047 11.239 21.272 11.239 4.963 0 9.977-1.434 14.382-4.425a4.997 4.997 0 0 0 1.329-6.946c-7.952-11.709-23.945-14.765-35.655-6.814zm11.618 5.819a15.763 15.763 0 0 1 11.092 2.12c-3.825.69-7.794-.07-11.092-2.12zM76.904 285.68a5 5 0 0 0-1.328 6.946c4.96 7.303 13.047 11.239 21.272 11.239 4.963 0 9.977-1.434 14.382-4.426a4.997 4.997 0 0 0 1.328-6.946c-7.95-11.708-23.944-14.764-35.654-6.813zm11.618 5.82c3.819-.688 7.793.07 11.092 2.12a15.775 15.775 0 0 1-11.092-2.12zm139.875 78.175a4.997 4.997 0 0 0-1.329 6.946c4.96 7.303 13.047 11.239 21.272 11.239 4.963 0 9.977-1.434 14.383-4.426a5 5 0 0 0 1.328-6.946c-7.951-11.707-23.947-14.763-35.654-6.813zm11.617 5.82a15.753 15.753 0 0 1 11.092 2.12 15.771 15.771 0 0 1-11.092-2.12zm-127.473-23.704c-7.544-4.503-16.388-5.799-24.907-3.65a5 5 0 0 0-3.624 6.072c3.759 14.895 17.187 24.846 31.893 24.846 2.656 0 5.355-.325 8.045-1.003a4.999 4.999 0 0 0 3.624-6.071c-2.15-8.52-7.488-15.691-15.031-20.194zm-16.735 5.341c4.051.015 8.04 1.114 11.609 3.245s6.43 5.121 8.365 8.68c-8.298-.045-15.997-4.641-19.974-11.925z"/><path d="M455.478 243.97a533.055 533.055 0 0 0-88.278-12.038 353.103 353.103 0 0 1 7.213-56.275c11.395-7.143 23.201-13.576 35.137-19.118a5.5 5.5 0 1 0-4.633-9.977 328.594 328.594 0 0 0-27.002 14.125 355.87 355.87 0 0 1 4.736-16.773c.91-2.914 1.8-5.645 2.704-8.302a329.135 329.135 0 0 1 25.456-10.172 667.013 667.013 0 0 0 13.983 10.451 5.479 5.479 0 0 0 3.229 1.051 5.5 5.5 0 0 0 3.238-9.95 633.943 633.943 0 0 1-7.755-5.726 307.248 307.248 0 0 1 7.49-2.196 5.5 5.5 0 0 0 3.826-6.772 5.502 5.502 0 0 0-6.771-3.827c-12.601 3.503-25.187 7.843-37.558 12.943a344.804 344.804 0 0 1 4.185-10.32 329.55 329.55 0 0 1 27.08-22.754 5.5 5.5 0 1 0-6.607-8.794 339.037 339.037 0 0 0-22.187 18.208 329.33 329.33 0 0 1-4.061-17.295 356.907 356.907 0 0 1 14.964-12.966 5.5 5.5 0 1 0-6.963-8.515 366.28 366.28 0 0 0-10.374 8.825 341.281 341.281 0 0 1-2.741-19.797 5.5 5.5 0 1 0-10.938 1.179 350.319 350.319 0 0 0 4.632 30.404 339.39 339.39 0 0 0 6.749 27.941 354.25 354.25 0 0 0-8.264 21.569 355.53 355.53 0 0 1-14.275-27.728 5.499 5.499 0 1 0-9.992 4.6 364.647 364.647 0 0 0 19.73 37.074c-2.799 9.252-5.266 18.663-7.306 28.027-4.321 19.823-6.966 40.113-7.916 60.395a532.351 532.351 0 0 0-13.961-.257c-36.485-21.664-76.691-36.691-118.359-44.389a203.702 203.702 0 0 1 2.519-15.681 229.257 229.257 0 0 1 11.392-3.365 5 5 0 0 0 3.543-6.119 4.997 4.997 0 0 0-6.119-3.543c-2.065.55-4.137 1.141-6.208 1.754a205.84 205.84 0 0 1 3.199-10.989c3.89-.794 7.804-1.495 11.676-2.08a5 5 0 1 0-1.494-9.887c-2.102.317-4.217.673-6.333 1.052a212.149 212.149 0 0 1 2.324-5.796 193.004 193.004 0 0 1 12.247-4.325 5 5 0 0 0 3.27-6.27 4.998 4.998 0 0 0-6.27-3.27 201.925 201.925 0 0 0-8.011 2.712c.09-4.036.29-8.085.629-12.109a5.002 5.002 0 0 0-4.562-5.403 5.006 5.006 0 0 0-5.403 4.562c-.54 6.395-.78 12.857-.717 19.228a223.982 223.982 0 0 0-2.218 5.43 224.939 224.939 0 0 1-4.807-7.103 5 5 0 1 0-8.393 5.437 234.493 234.493 0 0 0 9.095 13.036 216.19 216.19 0 0 0-1.488 4.648 389.598 389.598 0 0 1-7.404-4.846 5.001 5.001 0 0 0-5.582 8.297 396.376 396.376 0 0 0 10.184 6.601 213.902 213.902 0 0 0-4.936 26.354 358.408 358.408 0 0 0-40.186-3.984 184.999 184.999 0 0 1 1.783-36.435 336.12 336.12 0 0 1 11.555-1.153 5 5 0 0 0 4.584-5.385c-.222-2.753-2.651-4.807-5.385-4.583-2.97.239-5.959.529-8.947.848.068-.33.132-.677.202-1.002.348-1.638.724-3.259 1.11-4.865a198.558 198.558 0 0 1 12.004-3.445 5 5 0 0 0-2.447-9.696 207.737 207.737 0 0 0-6.404 1.735c.352-1.14.692-2.289 1.064-3.413a168.519 168.519 0 0 1 14.865-8.817 5 5 0 1 0-4.647-8.855 177.162 177.162 0 0 0-11.82 6.821 175.662 175.662 0 0 1-4.319-15.088 5 5 0 1 0-9.728 2.314 184.396 184.396 0 0 0 6.163 20.488 195.291 195.291 0 0 0-3.543 11.989 211.737 211.737 0 0 1-4.305-4.54 5 5 0 0 0-7.365 6.765 221.423 221.423 0 0 0 9.034 9.265 194.953 194.953 0 0 0-3.486 46.775c-35.508-.504-71 4.254-105.063 13.988a437.978 437.978 0 0 1 1.854-12.892 417.09 417.09 0 0 1 37.077-16.835 764.503 764.503 0 0 0 15.44 10.205 5.496 5.496 0 0 0 7.601-1.655 5.5 5.5 0 0 0-1.655-7.6 750.422 750.422 0 0 1-14.046-9.27 406.23 406.23 0 0 1 7.699-18.967 5.5 5.5 0 0 0-10.082-4.4 416.678 416.678 0 0 0-8.595 21.285 426.43 426.43 0 0 0-31.084 13.737 435.776 435.776 0 0 1 9.212-38.606c10.522-4.55 21.246-8.699 31.931-12.308a5.5 5.5 0 1 0-3.52-10.422c-1.305.441-2.612.907-3.918 1.363a419.2 419.2 0 0 1 4.413-17.775 5.499 5.499 0 1 0-10.613-2.891 430.896 430.896 0 0 0-6.029 25.145 431.77 431.77 0 0 0-11.727 4.685 420.74 420.74 0 0 1-.084-30.949 5.499 5.499 0 0 0-5.31-5.684c-3.008-.121-5.58 2.273-5.685 5.309a430.9 430.9 0 0 0 .414 38.515 448.215 448.215 0 0 0-8.884 22.271 461.097 461.097 0 0 1-11.419-16.921 467.77 467.77 0 0 1 5.114-25.698 5.5 5.5 0 0 0-4.138-6.586 5.497 5.497 0 0 0-6.587 4.137 478.345 478.345 0 0 0-4.397 21.532c-2.724-1.164-5.449-2.322-8.17-3.494a5.5 5.5 0 1 0-4.35 10.103 3196.76 3196.76 0 0 0 13.051 5.581 468.978 468.978 0 0 0 16.453 24.002 455.645 455.645 0 0 0-3.631 11.318 1094.963 1094.963 0 0 1-21.195-10.666 476.626 476.626 0 0 1-10.9-15.662 5.5 5.5 0 0 0-9.154 6.097 484.867 484.867 0 0 0 8.333 12.102 465.612 465.612 0 0 0-8.213 4.831 5.498 5.498 0 0 0-1.867 7.55 5.5 5.5 0 0 0 7.551 1.868 459.637 459.637 0 0 1 10.676-6.248 1113.288 1113.288 0 0 0 21.635 10.839 462.995 462.995 0 0 0-5.14 20.086 358.753 358.753 0 0 0-33.663 13.928 5.5 5.5 0 0 0-2.607 7.328 5.498 5.498 0 0 0 7.328 2.607 347.37 347.37 0 0 1 26.177-11.134c-6.683 32.961-9.799 66.697-9.175 100.292a533.302 533.302 0 0 0-20.256 2.934 5.5 5.5 0 1 0 1.787 10.853c67.314-11.085 135.268-8.818 201.974 6.74 65.712 15.326 126.986 42.763 182.122 81.549a5.494 5.494 0 0 0 7.662-1.334 5.5 5.5 0 0 0-1.334-7.663c-56.295-39.603-118.858-67.617-185.952-83.265-50.063-11.675-100.814-16.01-151.49-13-4.044-28.446-5.195-57.46-3.494-86.375a473.385 473.385 0 0 1 28.689-11.247 5.501 5.501 0 0 0-3.67-10.37 482.915 482.915 0 0 0-24.119 9.28c.183-2.103.382-4.204.595-6.305 37.412-11.219 76.697-16.218 115.846-14.582a347.381 347.381 0 0 1 39.732 3.967 219.016 219.016 0 0 0-.544 19.426 5 5 0 0 0 4.997 4.915l.087-.001a4.998 4.998 0 0 0 4.914-5.084c-.101-5.883.056-11.731.445-17.544 33.924 6.365 66.836 17.738 97.434 33.729-9.146.328-18.294.87-27.438 1.668-54.905 4.794-108.415 17.974-159.043 39.173a5.5 5.5 0 0 0 4.248 10.146c49.578-20.76 101.98-33.666 155.752-38.361 53.428-4.665 107.017-1.124 159.276 10.524a5.499 5.499 0 0 0 6.564-4.171 5.49 5.49 0 0 0-4.168-6.558zM35.843 313.669c-.553-34.108 2.837-68.359 9.988-101.736-2.933 33.6-2.1 67.459 2.547 100.579-4.18.336-8.358.721-12.535 1.157z"/><path d="M304.868 260.376c-27.67 0-48.536 11.07-48.536 25.749s20.866 25.749 48.536 25.749c5.516 0 10.888-.458 16.015-1.363 4.889 4.216 13.248 6.729 22.93 6.729 15.956 0 27.537-6.674 27.537-15.869 0-7.099-7.118-12.818-17.948-14.959.002-.096.003-.191.003-.287 0-14.68-20.867-25.749-48.537-25.749zm55.446 40.996c-.736 1.454-6.481 4.868-16.501 4.868-8.995 0-15.129-2.865-16.442-4.801a5.503 5.503 0 0 0-5.715-2.288c-5.281 1.143-10.93 1.722-16.787 1.722-10.703 0-20.679-1.92-28.09-5.408-5.915-2.783-9.446-6.275-9.446-9.341s3.531-6.559 9.446-9.341c7.411-3.487 17.387-5.408 28.09-5.408 10.547 0 20.785 1.971 28.089 5.408 5.916 2.783 9.447 6.275 9.447 9.341 0 .768-.215 1.542-.656 2.367a5.5 5.5 0 0 0 4.523 8.087c8.636.513 13.387 3.528 14.042 4.794zm-215.428-56.173c3.203.436 6.507.657 9.844.657 21.829 0 38.291-8.998 38.291-20.929s-16.462-20.929-38.291-20.929c-19.194 0-34.238 6.957-37.591 16.747-7.736 2.455-12.394 7.163-12.394 12.782 0 8.446 10.427 14.577 24.792 14.577 5.705 0 11.072-1.023 15.349-2.905zm-21.848-14.627a5.5 5.5 0 0 0 4.411-5.581l-.008-.164c.192-3.521 10.518-9.829 27.288-9.829 16.93 0 27.291 6.428 27.291 9.929s-10.361 9.929-27.291 9.929c-3.357 0-6.664-.261-9.826-.775a5.488 5.488 0 0 0-3.479.58c-2.856 1.53-7.3 2.443-11.887 2.443-7.625 0-12.299-2.272-13.569-3.569.8-.79 3.067-2.156 7.07-2.963z"/></svg>