<svg xmlns="http://www.w3.org/2000/svg" viewBox="0 0 464.983 464.983"><path d="M288.688 59.313a5 5 0 0 0 4.99 4.69h70.682a5 5 0 0 0 4.866-3.849 20.74 20.74 0 0 0 .57-4.764c0-11.388-9.264-20.652-20.652-20.652a20.44 20.44 0 0 0-7.968 1.602c-4.481-5.037-10.962-8.023-17.839-8.023-8.779 0-16.879 4.935-21.001 12.542-7.89 1.876-13.697 8.972-13.697 17.341 0 .323.018.64.04.958l.009.155zm17.335-8.926a5.002 5.002 0 0 0 4.378-3.192c2.048-5.31 7.247-8.877 12.935-8.877 4.979 0 9.603 2.698 12.066 7.041a5.001 5.001 0 0 0 7.356 1.528 10.548 10.548 0 0 1 6.385-2.147c5.403 0 9.879 4.044 10.562 9.264h-59.844a7.833 7.833 0 0 1 6.162-3.617zM56.19 125.309a5 5 0 0 0 4.99 4.69h54.172a5 5 0 0 0 4.866-3.85c.311-1.314.468-2.632.468-3.919 0-9.372-7.625-16.996-16.996-16.996-2.002 0-3.953.346-5.792 1.017a19.498 19.498 0 0 0-13.986-5.939c-6.982 0-13.438 3.829-16.871 9.773-6.305 1.737-10.891 7.514-10.891 14.298 0 .274.015.544.033.814l.007.112zm14.518-5.747a4.999 4.999 0 0 0 4.378-3.192c1.397-3.623 4.944-6.057 8.824-6.057a9.483 9.483 0 0 1 8.231 4.804 5 5 0 0 0 7.357 1.528 6.922 6.922 0 0 1 4.191-1.411c3.078 0 5.698 1.998 6.631 4.764H68.957a4.849 4.849 0 0 1 1.751-.436zm360.926 168.667c-14.278 0-21.642 28.307-21.642 40.385 0 11.101 5.432 17.469 16.141 19.012v17.271a5.5 5.5 0 1 0 11 0v-17.271c10.709-1.542 16.142-7.91 16.142-19.012.001-12.077-7.362-40.385-21.641-40.385zm0 48.777c-7.854 0-10.642-1.268-10.642-8.392 0-12.304 7.152-28.711 10.6-29.388 3.531.676 10.683 17.083 10.683 29.388.001 7.124-2.788 8.392-10.641 8.392zm-184.309-183.34a5.5 5.5 0 0 0 5.5-5.5V137.5a5.5 5.5 0 1 0-11 0v10.667a5.5 5.5 0 0 0 5.5 5.499zm-49.058 33a5.5 5.5 0 0 0-5.5 5.5v10.667a5.5 5.5 0 1 0 11 0v-10.667a5.5 5.5 0 0 0-5.5-5.5zm71.333 21.667a5.5 5.5 0 0 0 5.5-5.5v-10.667a5.5 5.5 0 1 0-11 0v10.667a5.5 5.5 0 0 0 5.5 5.5z"/><path d="M450.465 263.998a730.57 730.57 0 0 0-9.829-2.905c-8.372-2.411-17.217-1.791-25.166 1.705l-35.122-5.976c.182-1.048.203-2.143.05-3.255-.615-4.457-4.182-7.951-8.604-8.779a745.235 745.235 0 0 0-17.404-3.039v-7.937c7.735-1.388 11.663-6.277 11.663-14.613 0-8.318-5.124-30.204-16.662-30.204s-16.662 21.886-16.662 30.204c0 8.335 3.927 13.224 11.662 14.612v6.373a751.021 751.021 0 0 0-25.968-3.407v-89.14a5.5 5.5 0 0 0 4.95-5.472v-16.117a5.5 5.5 0 0 0-5.5-5.5h-3.575l-8.422-28.891c-.568-1.948-2.102-3.529-4.082-3.973a5.506 5.506 0 0 0-6.523 3.822l-8.466 29.042h-3.575a5.5 5.5 0 0 0-5.5 5.5v16.117a5.5 5.5 0 0 0 4.95 5.472v19.354h-15.246v-47.166c0-.628-.11-1.229-.304-1.792l-14.596-43.246a5.5 5.5 0 0 0-5.211-3.741c-1.197 0-2.324.39-3.245 1.064l-14.333-42.466V5.736c0-2.873-2.1-5.438-4.96-5.71a5.5 5.5 0 0 0-6.04 5.474v24.146L200.73 83.02a5.47 5.47 0 0 0-.296 1.768v82.206h-15.246V147.64a5.5 5.5 0 0 0 4.95-5.472v-16.117a5.5 5.5 0 0 0-5.5-5.5h-3.578l-8.423-28.892c-.568-1.949-2.103-3.529-4.084-3.972a5.507 5.507 0 0 0-6.521 3.823l-8.466 29.042h-3.57a5.5 5.5 0 0 0-5.5 5.5v16.117a5.5 5.5 0 0 0 4.95 5.472v89.14a748.903 748.903 0 0 0-25.968 3.407v-6.373c7.735-1.388 11.662-6.277 11.662-14.613 0-8.318-5.124-30.204-16.662-30.204s-16.662 21.886-16.662 30.204c0 8.335 3.928 13.225 11.662 14.613v7.937a749.216 749.216 0 0 0-17.378 3.034c-4.056.76-7.463 3.736-8.434 7.747a10.555 10.555 0 0 0-.197 3.916l-35.485 6.146c-7.72-3.355-16.414-3.904-24.761-1.5a729.68 729.68 0 0 0-9.821 2.902c-2.747.833-4.583 3.592-4.013 6.405a5.5 5.5 0 0 0 6.992 4.186 722.24 722.24 0 0 1 9.886-2.923c6.462-1.86 13.188-1.23 18.938 1.773 10.148 5.3 24.002 10.042 41.232 14.125-6.885 16.118-10.674 35.664-10.674 47.444 0 28.119 19.759 32.263 31.932 32.875v10.375a797.672 797.672 0 0 0-96.146 4.481c-2.859.308-5.187 2.679-5.148 5.554.045 3.291 2.904 5.748 6.09 5.408a786.786 786.786 0 0 1 95.203-4.442v17.292c0 2.873 2.1 5.438 4.96 5.71a5.5 5.5 0 0 0 6.04-5.474v-17.302a782.898 782.898 0 0 1 90.947 7.844c-27.12 6.977-66.902 21.06-93.524 47.527-2.258 2.245-2.424 6.001-.088 8.165a5.483 5.483 0 0 0 3.737 1.464 5.482 5.482 0 0 0 3.889-1.611c37.935-37.935 107.958-49.327 116.237-50.557a734.18 734.18 0 0 1 38.903 8.354c-13.529 8.732-36.761 26.847-37.034 48.431-.037 2.96 2.098 5.632 5.049 5.865a5.5 5.5 0 0 0 5.948-5.482c0-19.354 29.255-38.767 40.528-44.614.21-.109.447-.218.695-.326 36.497 9.73 71.213 22.126 103.77 37.13a5.501 5.501 0 0 0 7.503-3.203c.945-2.712-.509-5.691-3.12-6.889-1.633-.749-3.286-1.474-4.929-2.212 24.726-25.951 34.055-46.608 28.488-63.008-9.271-27.313-57.438-35.607-110.245-42.328-33.187-4.224-46.244-9.539-51.34-12.807-1.715-1.1-2.563-3.051-2.526-5.088a5.4 5.4 0 0 0-.023-.609l-1.364-14.438c67.978-2.387 125.367-12.593 154.164-27.498 5.975-3.093 12.804-3.777 19.23-1.928a718.89 718.89 0 0 1 9.893 2.926 5.501 5.501 0 0 0 6.992-4.186c.574-2.816-1.262-5.575-4.009-6.408zM342.727 219.2c0-7.66 4.159-18.122 6.662-20.042 2.503 1.92 6.662 12.382 6.662 20.042 0 3.731-.546 5.037-6.662 5.037s-6.662-1.306-6.662-5.037zM300.55 112.699l2.288 7.851h-4.577l2.289-7.851zm-11.821 18.85h23.642v5.117h-23.642v-5.117zm18.692 16.117v108.326h-13.742V147.666h13.742zm5.5 119.327a5.5 5.5 0 0 0 5.5-5.5v-13.649a739.12 739.12 0 0 1 49.578 7.427c-19.343 8.799-59.51 15.222-106.52 17.031l-.502-5.31h51.944zM247.322 93.747l6.945 20.58h-13.891l6.946-20.58zm9.112 31.58v41.666h-18.216v-41.666h18.216zm-32.19-77.58l10.645 31.54h-21.29l10.645-31.54zm-12.81 42.54h25.447l-9.376 27.781.005.002a5.493 5.493 0 0 0-.292 1.758v47.166h-15.784V90.287zm-26.246 87.706h97.491v78h-22.246v-31.496c0-14.612-11.888-26.5-26.5-26.5s-26.5 11.888-26.5 26.5v31.496h-22.245v-78zm64.74 89l4.114 43.552h-40.218l4.114-43.552h31.99zm-31.495-11v-31.496c0-8.547 6.953-15.5 15.5-15.5s15.5 6.953 15.5 15.5v31.496h-31zm-79.852 20.892c19.093 3.195 41.862 5.408 66.77 6.384l-.646 6.839c-21.607-.744-42.316-2.304-61.677-4.647-1.371-3.028-2.854-5.914-4.447-8.576zm28.732-164.187l2.289 7.851h-4.577l2.288-7.851zm-11.817 18.851h23.642v5.117h-23.642v-5.117zm18.692 16.117v108.326h-13.742V147.666h13.742zM111.816 219.2c0-7.66 4.159-18.122 6.662-20.042 2.503 1.92 6.662 12.382 6.662 20.042 0 3.731-.546 5.037-6.662 5.037s-6.662-1.306-6.662-5.037zm37.63 28.643v13.649a5.5 5.5 0 0 0 5.5 5.5h51.943l-.502 5.31c-30.901-1.189-58.833-4.374-79.849-8.915-2.921-1.852-6.04-2.895-9.343-2.895-.668 0-1.328.048-1.981.131-5.992-1.658-11.162-3.449-15.347-5.353a740.343 740.343 0 0 1 49.579-7.427zm-78.764 22.675l26.219-4.542a97.67 97.67 0 0 0 5.401 2.102c-2.456 2.618-4.732 5.802-6.821 9.366-9.226-2.114-17.56-4.445-24.799-6.926zm20.081 64.488c0-22.622 12.974-58.639 24.208-63.063 2.346.614 4.791 1.208 7.335 1.781 10.455 8.656 21.323 40.578 21.323 61.282 0 16.23-6.917 21.983-26.433 21.983s-26.433-5.753-26.433-21.983zm31.932 32.874c12.173-.612 31.934-4.755 31.934-32.875 0-9.536-2.484-24.16-7.081-37.937 17.773 1.982 36.596 3.322 56.122 4.01l-1.174 12.425c-3.56 3.669-11.158 13.03-7.89 23.373 3.922 12.415 21.297 19.966 53.117 23.085 32.865 3.222 57.64 6.864 75.741 11.133 31.054 7.324 34.685 14.76 35.059 16.864.375 2.114-.711 10.003-29.361 24.129-34.477-10.775-70.684-19.083-108.314-24.833-32.496-4.965-65.285-7.876-98.153-8.776V367.88zm195.367-22.935c47.253 6.014 93.993 13.667 101.217 34.952 4.265 12.567-5.432 30.983-28.82 54.762a642.976 642.976 0 0 0-46.719-17.811c19.205-10.851 27.393-20.776 25.613-30.811-1.948-10.981-15.727-19.131-43.364-25.649-18.584-4.383-43.834-8.103-77.193-11.374-36.115-3.541-42.588-11.971-43.695-15.431-1.338-4.184 2.379-9.333 4.911-12.038h44.584c-.026.274.017.577.159.919 4.239 10.245 24.946 17.599 63.307 22.481zm-54.9-54.824l-.647-6.851c46.952-1.84 86.328-8.072 107.744-16.995l26.124 4.525c-30.522 10.313-78.97 17.448-133.221 19.321z"/></svg>