<svg xmlns="http://www.w3.org/2000/svg" viewBox="0 0 441.297 441.297"><path d="M437.198 306.708A746.17 746.17 0 0 0 261.74 275.82l-16.052-61.702c63.992 2.165 127.291 12.618 188.514 31.17a5.503 5.503 0 0 0 6.994-4.209c.557-2.803-1.262-5.548-3.998-6.377a748.583 748.583 0 0 0-23.492-6.686l6.451-36.47a5.332 5.332 0 0 0 .049-1.7c-.365-2.491-2.235-4.29-4.504-4.691l-80.091-14.164a5.522 5.522 0 0 0-5.843 2.871c-.273.509-.44 1.071-.54 1.64l-1.756 9.932a30.752 30.752 0 0 1-19.63-3.698l3.06-27.081c.092-.818.047-1.657-.211-2.438a5.496 5.496 0 0 0-3.398-3.493c-1.863-.658-3.735-1.281-5.496-2.178-24.288-12.374-51.09-34.102-76.149-61.8v-22.69h17.682a5 5 0 0 0 5-5V42.557a5 5 0 0 0-5-5h-22.682a5 5 0 0 0-5 5v42.186c-25.061 27.698-51.865 49.428-76.152 61.801-1.759.896-3.629 1.52-5.491 2.177a5.5 5.5 0 0 0-3.401 3.494c-.259.781-.304 1.62-.211 2.438l2.811 24.882.224 1.982a30.759 30.759 0 0 1-19.594 3.974l-1.776-10.043a5.293 5.293 0 0 0-.547-1.626c-1.209-2.198-3.569-3.229-5.827-2.832l-80.073 14.16a5.33 5.33 0 0 0-1.614.537c-2.214 1.197-3.262 3.571-2.861 5.84l6.454 36.488a746.53 746.53 0 0 0-23.46 6.676c-2.749.832-4.595 3.59-4.026 6.405a5.502 5.502 0 0 0 6.99 4.191c61.224-18.551 124.524-29.005 188.516-31.17l-16.052 61.702A746.218 746.218 0 0 0 4.132 306.697c-2.749.832-4.596 3.59-4.027 6.405a5.501 5.501 0 0 0 6.99 4.191 735.086 735.086 0 0 1 160.292-29.677l-18.396 122.609a5.5 5.5 0 1 0 10.879 1.632l18.749-124.965c13.976-.795 27.991-1.199 42.031-1.199s28.055.404 42.031 1.199l18.749 124.965a5.502 5.502 0 0 0 6.256 4.623 5.5 5.5 0 0 0 4.623-6.255l-18.396-122.609a735.077 735.077 0 0 1 160.291 29.677 5.503 5.503 0 0 0 6.994-4.209c.556-2.803-1.264-5.548-4-6.376zM146.831 202.182l-4.829-42.781h10.325l3.875 46.064c-2.971.256-5.94.53-8.907.821l-.464-4.104zm16.535-42.781h13.156l2.305 44.453c-3.89.217-7.776.467-11.659.745l-3.802-45.198zm24.17 0h14.385l.386 21.694c-3.047 2.792-4.972 6.79-4.972 11.239v10.722a753.71 753.71 0 0 0-7.522.272l-2.277-43.927zm33.113-53.141c5.634 17.338 11.446 31.719 17.023 42.141h-34.046c5.576-10.423 11.388-24.803 17.023-42.141zM294 206.286a735.934 735.934 0 0 0-8.904-.821l3.875-46.064h10.327L294 206.286zm-19.87-1.687c-3.883-.277-7.77-.528-11.659-.745l2.305-44.453h13.156l-3.802 45.198zm-22.646-1.271a723.8 723.8 0 0 0-7.522-.271v-10.722c0-4.448-1.925-8.446-4.971-11.238l.386-21.695h14.385l-2.278 43.926zm-38.247-26.258l-.315-17.669h15.453l-.314 17.669h-14.824zm-4.902 15.264a4.27 4.27 0 0 1 4.264-4.264h16.1a4.27 4.27 0 0 1 4.264 4.264v10.46c-4.102-.067-8.207-.106-12.313-.106s-8.211.039-12.313.106v-10.46zm194.692 32.908a745.675 745.675 0 0 0-46.625-10.154l5.016-28.364 46.953 8.304-5.344 30.214zm-63.915-42.463l11.473 2.029-5.016 28.366a746.019 746.019 0 0 0-11.504-1.853l5.047-28.542zm-16.075 13.98c.814 0 1.63-.026 2.445-.074l-2.307 13.043a747.919 747.919 0 0 0-18.238-2.286l1.592-14.089a41.778 41.778 0 0 0 16.508 3.406zm-40.23-48.358h-32.46c-3.926-6.307-10.079-18.351-17.483-40.221 16.569 16.329 33.575 30.021 49.943 40.221zM225.649 47.557h12.682v4.499h-12.682v-4.499zm-17.215 60.622c-7.403 21.869-13.557 33.914-17.483 40.222H158.49c16.367-10.201 33.374-23.892 49.944-40.222zm-90.575 88.58a41.784 41.784 0 0 0 16.888-3.566l1.609 14.249a748.294 748.294 0 0 0-18.235 2.286l-2.304-13.031c.681.033 1.362.062 2.042.062zm-10.627 14.562c-3.84.588-7.675 1.205-11.504 1.853l-5.016-28.366 11.473-2.029 5.047 28.542zm-74.306-16.294l46.953-8.304 5.016 28.364a745.52 745.52 0 0 0-46.625 10.154l-5.344-30.214zm158.137 80.256l15.992-61.471a741.663 741.663 0 0 1 27.187 0l15.991 61.471c-9.847-.388-19.71-.589-29.585-.589s-19.738.201-29.585.589z"/><path d="M57.092 94.086h94.475a5.5 5.5 0 0 0 5.49-5.169l.015-.225c.026-.39.049-.781.049-1.178 0-10.813-7.631-19.952-17.914-22.144-5.224-10.058-15.802-16.615-27.281-16.615-9.144 0-17.742 4.101-23.522 10.976a26.126 26.126 0 0 0-10.972-2.393c-14.568 0-26.421 11.852-26.421 26.421 0 1.996.245 4.047.729 6.094a5.5 5.5 0 0 0 5.352 4.233zm20.339-25.749c3.347 0 6.544 1.075 9.247 3.108a5.5 5.5 0 0 0 8.091-1.682c3.502-6.174 10.075-10.01 17.156-10.01 8.089 0 15.48 5.073 18.393 12.623a5.5 5.5 0 0 0 4.816 3.511 11.664 11.664 0 0 1 10.111 7.198h-83.22c.352-8.192 7.127-14.748 15.406-14.748zm219.335 10.749h119.239a5.5 5.5 0 0 0 5.489-5.155l.019-.273c.032-.473.061-.945.061-1.427 0-13.192-9.478-24.304-22.138-26.673-6.231-12.569-19.281-20.804-33.464-20.804-11.489 0-22.271 5.329-29.289 14.204a31.526 31.526 0 0 0-14.247-3.372c-17.592 0-31.904 14.313-31.904 31.905 0 2.406.297 4.882.882 7.358a5.497 5.497 0 0 0 5.352 4.237zm25.67-32.498c4.541 0 8.876 1.457 12.537 4.212a5.502 5.502 0 0 0 8.092-1.681c4.675-8.243 13.452-13.364 22.907-13.364 10.801 0 20.671 6.773 24.561 16.855a5.498 5.498 0 0 0 4.815 3.511c7.107.408 12.934 5.381 14.686 11.965H301.541c-.007-.199-.01-.397-.01-.594 0-11.526 9.378-20.904 20.905-20.904z"/></svg>