<svg xmlns="http://www.w3.org/2000/svg" viewBox="0 0 441.297 441.297"><path d="M437.198 343.271a745.913 745.913 0 0 0-82.626-19.945V196.297a5.5 5.5 0 0 0-3.627-5.172l-17.192-6.226v-44.152a5.5 5.5 0 0 0-3.627-5.171l-25.693-9.306V87.577a5.5 5.5 0 0 0-3.629-5.172l-25.691-9.297V41.437a5.5 5.5 0 0 0-3.626-5.171l-48.96-17.74a5.495 5.495 0 0 0-3.747 0l-48.96 17.74a5.5 5.5 0 0 0-3.626 5.171v31.671l-25.701 9.297a5.5 5.5 0 0 0-3.629 5.172v38.693l-25.693 9.306a5.5 5.5 0 0 0-3.627 5.171v44.152l-17.193 6.226a5.5 5.5 0 0 0-3.627 5.171v127.03a745.64 745.64 0 0 0-82.593 19.935c-2.748.832-4.594 3.59-4.025 6.404a5.501 5.501 0 0 0 6.99 4.191 734.596 734.596 0 0 1 100.838-22.947c8.347-1.29 16.854-1.137 25.164.372 24.88 4.517 35.644 25.165 37.301 41.475 1.679 16.521-4.794 39.193-28.526 48.856-2.763 1.125-4.351 4.189-3.365 7.005a5.501 5.501 0 0 0 7.244 3.292c24.346-9.785 38.316-33.441 35.59-60.265-2.104-20.706-13.672-37.505-30.773-46.053 2.272-.216 4.545-.422 6.82-.618 3.894 1.384 9.317 3.448 11.977 4.762a5.502 5.502 0 0 0 7.79-6.192c.733-.043 1.466-.085 2.2-.126 18.306-1.026 36.508 4.534 50.707 16.133 6.613 5.402 12.37 11.877 17.061 19.284 12.723 20.09 16.689 44.804 10.891 67.835-.718 2.853.826 5.906 3.634 6.784a5.503 5.503 0 0 0 6.981-3.893c6.606-26.001 2.154-53.925-12.213-76.612-8.184-12.923-19.224-23.325-32.234-30.675 71.306.34 141.947 10.956 210.021 31.583a5.503 5.503 0 0 0 6.994-4.209c.556-2.803-1.264-5.548-4-6.376zm-93.627-143.116v121.249a753.767 753.767 0 0 0-9.82-1.561V196.598l9.82 3.557zm-20.82-55.55v173.637a745.373 745.373 0 0 0-18.32-2.288v-12.502l7.49 2.712a5.502 5.502 0 0 0 3.745-10.343l-11.235-4.068v-6.302l7.49 2.712a5.502 5.502 0 0 0 3.745-10.343l-11.235-4.068v-6.303l7.49 2.712a5.502 5.502 0 0 0 3.745-10.343l-11.235-4.068v-6.302l7.49 2.712a5.502 5.502 0 0 0 3.745-10.343l-11.235-4.068v-6.303l7.49 2.712a5.502 5.502 0 0 0 3.745-10.343l-11.235-4.068v-6.302l7.49 2.712a5.502 5.502 0 0 0 3.745-10.343l-11.235-4.068v-6.303l7.49 2.712a5.502 5.502 0 0 0 3.745-10.343l-11.235-4.068v-6.302l7.49 2.712a5.502 5.502 0 0 0 3.745-10.343l-11.235-4.068v-6.303l7.49 2.712a5.502 5.502 0 0 0 3.745-10.343l-11.235-4.068v-9.773l18.32 6.637zm-29.32-53.169v223.365a746.384 746.384 0 0 0-18.32-1.565v-16.538l6.104 2.21a5.503 5.503 0 0 0 7.044-3.299 5.5 5.5 0 0 0-3.299-7.044L275.111 285v-7.299l6.104 2.21a5.502 5.502 0 0 0 3.745-10.343l-9.849-3.566v-7.299l6.104 2.21a5.502 5.502 0 0 0 3.745-10.343l-9.849-3.566v-7.299l6.104 2.21a5.502 5.502 0 0 0 3.745-10.343l-9.849-3.566v-7.299l6.104 2.21a5.502 5.502 0 0 0 3.745-10.343l-9.849-3.566v-7.299l6.104 2.21a5.502 5.502 0 0 0 3.745-10.343l-9.849-3.566v-7.299l6.104 2.21a5.502 5.502 0 0 0 3.745-10.343l-9.849-3.566v-7.299l6.104 2.21a5.502 5.502 0 0 0 3.745-10.343l-9.849-3.566v-7.299l6.104 2.21a5.502 5.502 0 0 0 3.745-10.343l-9.849-3.566v-7.299l6.104 2.21a5.502 5.502 0 0 0 3.745-10.343l-9.849-3.566v-7.299l6.104 2.21a5.502 5.502 0 0 0 3.745-10.343l-9.849-3.566V84.806l18.32 6.63zm-29.32 221.086a749.794 749.794 0 0 0-37.96-1.239V31.54l37.96 13.754v267.228zM215.151 31.54v279.743a750.964 750.964 0 0 0-37.96 1.239V45.294l37.96-13.754zm-48.96 53.265v10.21l-9.855 3.569a5.5 5.5 0 0 0 3.745 10.343l6.11-2.212v7.299l-9.855 3.569a5.5 5.5 0 0 0 3.745 10.343l6.11-2.212v7.299l-9.855 3.569a5.5 5.5 0 0 0 3.745 10.343l6.11-2.212v7.299l-9.855 3.569a5.5 5.5 0 0 0 3.745 10.343l6.11-2.212v7.299l-9.855 3.569a5.5 5.5 0 0 0 3.745 10.343l6.11-2.212v7.299l-9.855 3.569a5.5 5.5 0 0 0 3.745 10.343l6.11-2.212v7.299l-9.855 3.569a5.5 5.5 0 0 0 3.745 10.343l6.11-2.212v7.299l-9.855 3.569a5.5 5.5 0 0 0 3.745 10.343l6.11-2.212v7.299l-9.855 3.569a5.5 5.5 0 0 0 3.745 10.343l6.11-2.212v7.299l-9.855 3.569a5.5 5.5 0 0 0 3.745 10.343l6.11-2.212v7.299l-9.855 3.569a5.5 5.5 0 0 0 3.745 10.343l6.11-2.213v16.539c-6.119.445-12.229.97-18.33 1.565V91.436l18.33-6.631zm-29.33 53.164v9.774l-11.231 4.067a5.5 5.5 0 0 0 3.745 10.343l7.486-2.711v6.303l-11.231 4.067a5.5 5.5 0 0 0 3.745 10.343l7.486-2.711v6.302l-11.231 4.067a5.5 5.5 0 0 0 3.745 10.343l7.486-2.711v6.303l-11.231 4.067a5.5 5.5 0 0 0 3.745 10.343l7.486-2.711v6.302l-11.231 4.067a5.5 5.5 0 0 0 3.745 10.343l7.486-2.711v6.303l-11.231 4.067a5.5 5.5 0 0 0 3.745 10.343l7.486-2.711v6.302l-11.231 4.067a5.5 5.5 0 0 0 3.745 10.343l7.486-2.711v6.303l-11.231 4.067a5.5 5.5 0 0 0 3.745 10.343l7.486-2.711v6.302l-11.231 4.067a5.5 5.5 0 0 0 3.745 10.343l7.486-2.711v12.501a745.373 745.373 0 0 0-18.32 2.288V144.605l18.32-6.636zm-39.14 62.186l9.82-3.556v123.245a737.117 737.117 0 0 0-9.82 1.561v-121.25z"/><path d="M233.746 56.266l20.05 7.26a5.502 5.502 0 0 0 3.745-10.343l-20.05-7.26a5.5 5.5 0 1 0-3.745 10.343zm-48.117 7.59c.622 0 1.254-.106 1.873-.33l20.04-7.26a5.5 5.5 0 0 0 3.297-7.045 5.499 5.499 0 0 0-7.044-3.298l-20.04 7.26a5.5 5.5 0 0 0-3.297 7.044 5.5 5.5 0 0 0 5.171 3.629zm48.117 15.92l20.05 7.26a5.502 5.502 0 0 0 3.745-10.343l-20.05-7.26a5.5 5.5 0 1 0-3.745 10.343zm-48.117 7.59c.622 0 1.254-.106 1.873-.33l20.04-7.26a5.5 5.5 0 0 0 3.297-7.045 5.499 5.499 0 0 0-7.044-3.298l-20.04 7.26a5.5 5.5 0 0 0-3.297 7.044 5.5 5.5 0 0 0 5.171 3.629zm48.117 15.92l20.05 7.26a5.502 5.502 0 0 0 3.745-10.343l-20.05-7.26a5.5 5.5 0 0 0-3.745 10.343zm-48.117 7.59c.622 0 1.254-.106 1.873-.33l20.04-7.26a5.5 5.5 0 0 0-3.747-10.343l-20.04 7.26a5.5 5.5 0 0 0-3.297 7.044 5.5 5.5 0 0 0 5.171 3.629zm48.117 15.92l20.05 7.26a5.502 5.502 0 0 0 3.745-10.343l-20.05-7.26a5.5 5.5 0 1 0-3.745 10.343zm-48.117 7.59c.622 0 1.254-.106 1.873-.33l20.04-7.26a5.5 5.5 0 0 0 3.297-7.045 5.499 5.499 0 0 0-7.044-3.298l-20.04 7.26a5.5 5.5 0 0 0-3.297 7.044 5.5 5.5 0 0 0 5.171 3.629zm71.99 36.348l-20.05-7.26a5.5 5.5 0 0 0-3.745 10.343l20.05 7.26a5.502 5.502 0 0 0 3.745-10.343zm-53.747-7.26l-20.04 7.26a5.5 5.5 0 1 0 3.747 10.342l20.04-7.26a5.499 5.499 0 0 0 3.297-7.044 5.5 5.5 0 0 0-7.044-3.298zm53.747 30.77l-20.05-7.26a5.5 5.5 0 1 0-3.745 10.343l20.05 7.26a5.502 5.502 0 0 0 3.745-10.343zm-53.747-7.259l-20.04 7.26a5.5 5.5 0 1 0 3.747 10.342l20.04-7.26a5.499 5.499 0 0 0 3.297-7.044 5.497 5.497 0 0 0-7.044-3.298zm53.747-39.761l-20.05-7.26a5.5 5.5 0 0 0-3.745 10.343l20.05 7.26a5.502 5.502 0 0 0 3.745-10.343zm-53.747-7.26l-20.04 7.26a5.5 5.5 0 1 0 3.747 10.342l20.04-7.26a5.499 5.499 0 0 0 3.297-7.044 5.497 5.497 0 0 0-7.044-3.298zm53.747 77.791l-20.05-7.26a5.5 5.5 0 0 0-3.745 10.343l20.05 7.26a5.502 5.502 0 0 0 3.745-10.343zm-53.747-7.26l-20.04 7.26a5.5 5.5 0 1 0 3.747 10.342l20.04-7.26a5.499 5.499 0 0 0 3.297-7.044 5.497 5.497 0 0 0-7.044-3.298zm53.747 30.77l-20.05-7.26a5.5 5.5 0 0 0-3.745 10.343l20.05 7.26a5.502 5.502 0 0 0 3.745-10.343zm-53.747-7.26l-20.04 7.26a5.5 5.5 0 1 0 3.747 10.342l20.04-7.26a5.499 5.499 0 0 0 3.297-7.044 5.5 5.5 0 0 0-7.044-3.298zm53.747 30.77l-20.05-7.26a5.5 5.5 0 1 0-3.745 10.343l20.05 7.26a5.502 5.502 0 0 0 3.745-10.343zm-53.747-7.26l-20.04 7.26a5.5 5.5 0 1 0 3.747 10.342l20.04-7.26a5.499 5.499 0 0 0 3.297-7.044 5.498 5.498 0 0 0-7.044-3.298zm53.747 30.77l-20.05-7.26a5.5 5.5 0 0 0-3.745 10.343l20.05 7.26a5.502 5.502 0 0 0 3.745-10.343zm-53.747-7.259l-20.04 7.26a5.5 5.5 0 1 0 3.747 10.342l20.04-7.26a5.499 5.499 0 0 0 3.297-7.044 5.497 5.497 0 0 0-7.044-3.298zm15.971 118.89a5.5 5.5 0 0 0 5.467-6.16 99.76 99.76 0 0 0-5.468-22.624 5.5 5.5 0 0 0-10.316 3.818 88.704 88.704 0 0 1 4.863 20.126 5.502 5.502 0 0 0 5.454 4.84zm-10.658-49.523a91.948 91.948 0 0 0-15.478-17.523 5.5 5.5 0 0 0-7.244 8.278 80.938 80.938 0 0 1 13.623 15.428 5.493 5.493 0 0 0 4.554 2.409 5.5 5.5 0 0 0 4.545-8.592zm11.362 60.557a5.502 5.502 0 0 0-6.1 4.826 85.263 85.263 0 0 1-2.039 11.074 5.5 5.5 0 1 0 10.661 2.709 96.236 96.236 0 0 0 2.304-12.509 5.5 5.5 0 0 0-4.826-6.1zm116.317-286.044h75.81a5.5 5.5 0 0 0 5.49-5.163l.011-.169c.023-.341.042-.682.042-1.029 0-9.021-6.244-16.67-14.737-18.719-4.455-8.171-13.171-13.469-22.617-13.469-7.383 0-14.342 3.191-19.171 8.578a22.057 22.057 0 0 0-8.509-1.691c-12.29 0-22.288 9.998-22.288 22.288 0 1.685.207 3.414.615 5.139a5.504 5.504 0 0 0 5.354 4.235zm16.321-20.662c2.449 0 4.789.787 6.766 2.275a5.499 5.499 0 0 0 8.092-1.681 14.771 14.771 0 0 1 12.822-7.481c6.045 0 11.569 3.791 13.746 9.433a5.5 5.5 0 0 0 4.816 3.511 8.268 8.268 0 0 1 6.363 3.604h-63.775c.789-5.456 5.498-9.661 11.17-9.661zM31.408 58.139H140.24a5.5 5.5 0 0 0 5.489-5.154l.017-.247c.03-.442.057-.885.057-1.335 0-12.192-8.701-22.475-20.363-24.772C119.63 15.119 107.619 7.59 94.573 7.59c-10.502 0-20.366 4.811-26.866 12.843a29.255 29.255 0 0 0-12.87-2.955c-16.322 0-29.6 13.279-29.6 29.6 0 2.235.275 4.532.818 6.827a5.501 5.501 0 0 0 5.353 4.234zm4.829-11.062c0-10.256 8.344-18.6 18.6-18.6 4.039 0 7.896 1.296 11.154 3.748a5.498 5.498 0 0 0 8.091-1.682c4.182-7.374 12.033-11.954 20.49-11.954 9.661 0 18.49 6.059 21.968 15.076a5.5 5.5 0 0 0 4.816 3.511c6.057.348 11.06 4.45 12.792 9.962H36.237v-.061z"/></svg>