<svg xmlns="http://www.w3.org/2000/svg" viewBox="0 0 441.303 441.303"><path d="M437.396 279.747a745.391 745.391 0 0 0-38.036-10.43l-3.038-13.971a5.499 5.499 0 0 0-3.994-4.155l-18-4.667a5.508 5.508 0 0 0-6.168 2.618l-6.717 11.884a744.237 744.237 0 0 0-13.98-2.54l-4.526-17.358a5.502 5.502 0 0 0-4.019-3.956l-23.671-5.773-1.512-11.595a5.499 5.499 0 0 0-5.8-4.778l-74 4.667a5.5 5.5 0 0 0-4.507 2.901l-3.974 7.45-26.462 3.007a5.501 5.501 0 0 0-4.154 2.736l-7.21 12.618a748.401 748.401 0 0 0-45.76 3.423l-1.853-11.404a5.001 5.001 0 0 0-6.107-4.059l-17.391 4.191a5.003 5.003 0 0 0-3.754 4l-1.958 11.206a746.476 746.476 0 0 0-46.901 8.493l-1.669-9.034 9.712-1.794a5 5 0 0 0 4.009-5.825l-2.635-14.266a5 5 0 1 0-9.834 1.816l1.727 9.349-4.795.886-2.559-13.854a5 5 0 0 0-9.834 1.816l2.559 13.854-4.796.886-1.727-9.349a5 5 0 1 0-9.834 1.816l2.635 14.266a4.998 4.998 0 0 0 5.825 4.008l9.714-1.794 1.734 9.387a746.209 746.209 0 0 0-50.23 13.321 5.5 5.5 0 0 0 3.189 10.527 734.408 734.408 0 0 1 49.04-13.022l2.299 12.444a5.002 5.002 0 0 0 5.825 4.009 5 5 0 0 0 4.009-5.825l-2.365-12.803c50.748-10.899 102.578-16.403 154.748-16.403 72.506 0 144.355 10.632 213.555 31.6a5.503 5.503 0 0 0 6.859-3.669 5.498 5.498 0 0 0-3.669-6.855zm-61.739-21.514l10.636 2.757 1.198 5.51a739.507 739.507 0 0 0-14.694-3.208l2.86-5.059zm-40.069-1.693a745.758 745.758 0 0 0-17.107-2.454l-1.588-10.964 16.229 3.958 2.466 9.46zm-213.538-7.03l8.96-2.159.908 5.59c-3.572.426-7.14.883-10.705 1.361l.837-4.792zm78.511-1.565l2.446-4.28 26.563-3.018a5.498 5.498 0 0 0 4.231-2.876l3.89-7.292 65.804-4.15 3.669 26.357a749.49 749.49 0 0 0-106.603-4.741zm20.091-101.828c22.882 0 41.498-18.616 41.498-41.498s-18.616-41.498-41.498-41.498-41.498 18.616-41.498 41.498 18.616 41.498 41.498 41.498zm0-71.996c16.816 0 30.498 13.681 30.498 30.498s-13.682 30.498-30.498 30.498-30.498-13.681-30.498-30.498 13.681-30.498 30.498-30.498zm-57.995 294.061h-1.426l3.766-10.669a5.004 5.004 0 0 0-.555-4.438l-5.334-8a5.002 5.002 0 0 0-5.167-2.124l-28.008 5.76-2.804-4.273a4.995 4.995 0 0 0-4.585-2.24l-24.666 2a5 5 0 0 0-4.003 2.622l-11.55 21.361h-6.043a5 5 0 1 0 0 10h90.375a5 5 0 1 0 0-9.999zm-37.041 0H89.775l7.626-14.237 18.993-1.54 10.353 15.776h-1.131zm24.492 0h-12.193a4.95 4.95 0 0 0-.786-2.41l-5.293-8.065 20.82-4.282 2.079 3.117-4.627 11.64z"/></svg>