<svg xmlns="http://www.w3.org/2000/svg" viewBox="0 0 458.132 458.132"><path d="M458.104 421.151a5.502 5.502 0 0 0-6.017-4.93c-17.321 1.721-36.023 2.593-55.586 2.593-70.19 0-104.005-6.545-133.84-12.319-23.064-4.464-44.849-8.681-79.16-8.681-77.007 0-173.663 31.923-177.739 33.282a5.5 5.5 0 1 0 3.478 10.435c.981-.327 99.023-32.718 174.261-32.718 33.256 0 53.56 3.93 77.069 8.48 30.32 5.869 64.686 12.52 135.931 12.52 19.925 0 38.993-.891 56.674-2.647a5.497 5.497 0 0 0 4.929-6.015zM252.316 97.315c22.332 0 40.5-18.168 40.5-40.5s-18.168-40.5-40.5-40.5-40.5 18.168-40.5 40.5 18.168 40.5 40.5 40.5zm0-70c16.266 0 29.5 13.234 29.5 29.5s-13.234 29.5-29.5 29.5-29.5-13.234-29.5-29.5 13.234-29.5 29.5-29.5zm-129.9 349.5c.811.024 6.515.185 15.813.185 15.775 0 41.888-.461 71.953-2.827 66.001-5.193 118.688-16.583 156.598-33.853 27.321-12.442 56.72-23.25 87.38-32.122a5.499 5.499 0 0 0 3.754-6.812 5.498 5.498 0 0 0-6.812-3.754 690.407 690.407 0 0 0-18.439 5.64l-.334-.244c-.531-.482-13.282-11.917-37.681-22.724-22.328-9.889-59.172-21.123-107.878-18.481-22.452 1.217-45.794 5.627-73.401 13.861-12.936-16.14-25.921-36.045-38.268-60.616-.728-1.449-3.339-8.427-3.727-9.635 15.099-5.833 86.501-29.989 163.062.979a274.264 274.264 0 0 0 13.314 4.982c37.372 12.873 72.104 15.963 96.83 15.963 2.874 0 5.615-.042 8.207-.115a5.5 5.5 0 0 0 5.343-5.653c-.085-3.037-2.624-5.437-5.652-5.343-20.348.577-50.083-.853-83.153-9.748 18.464-4.716 46.94-11.074 68.333-11.686 4.376-.124 9.363-.111 14.823.041a5.5 5.5 0 0 0 .304-10.996c-5.665-.157-10.859-.17-15.439-.04-31.526.902-77.103 13.56-87.643 16.602a260.79 260.79 0 0 1-11.138-4.203c-47.115-19.058-92.008-17.972-121.374-13.704-29.621 4.304-49.442 12.436-52.749 13.855-12.55-9.4-41.582-15.019-88.477-17.142-36.354-1.647-70.329-.419-70.667-.406a5.5 5.5 0 0 0-5.292 5.7c.112 3.036 2.679 5.4 5.7 5.292.334-.013 33.854-1.224 69.761.402 61.737 2.795 79.044 11.361 83.866 16.219 1.634 1.646 1.778 2.845 1.744 3.604-.776 17.429-31.057 19.779-60.576 19.779h-.985c-10.348-.01-25.995-.008-39.384 2.81-18.112 3.812-27.533 11.917-28 24.089-.241 6.289 1.885 11.813 6.32 16.421 5.175 5.377 13.421 9.309 24.51 11.687 10.021 2.148 19.019 2.315 21.538 2.315.7 0 1.683-.023 2.897-.054 8.524-.208 34.456-.851 43.616 8.084 2.038 1.989 2.987 4.26 2.987 7.148 0 2.268-.726 4.032-2.283 5.551-7.507 7.323-29.682 6.771-40.339 6.503a212.072 212.072 0 0 0-4.894-.088H64.172a38.045 38.045 0 0 0-35.038 23.14l-12.121 28.394H5.5a5.5 5.5 0 1 0 0 11h116.916zm198.786-73.5c2.955-1.563 6.476-2.727 10.433-2.756 3.595-.024 7.276.896 10.98 2.756h-21.413zm15.269 10a20.53 20.53 0 0 0-.975 4.978l-5.266-1.347-.605-3.63h6.846zm-49.106-40.508c46.274-2.511 81.201 8.046 102.351 17.345 14.66 6.445 24.91 13.189 30.437 17.25-20.069 6.847-39.471 14.5-57.933 22.908a230.902 230.902 0 0 1-11.391 4.799 20.562 20.562 0 0 0-3.493-9.376 10.635 10.635 0 0 1-.141-11.882l.35-.536h9.949a5.001 5.001 0 0 0 3.536-8.535c-9.513-9.513-19.437-14.273-29.472-14.221-12.252.093-21.17 7.413-25.396 11.769a6.473 6.473 0 0 0-1.319 7.04 6.459 6.459 0 0 0 5.96 3.947h8.683l1.415 8.488a5 5 0 0 0 3.693 4.022l13.196 3.376c.391.75.817 1.487 1.306 2.197a10.622 10.622 0 0 1 1.878 6.046v1.306a325.853 325.853 0 0 1-18.884 5.923c-6.24-.287-52.29-4.346-101.002-59.791 24.77-7.12 45.952-10.973 66.277-12.075zM39.251 341.739a27.06 27.06 0 0 1 24.921-16.458h22.312c1.247 0 2.813.04 4.619.085 18.127.452 38.304.12 48.294-9.625 3.665-3.575 5.603-8.218 5.603-13.426 0-5.885-2.122-10.939-6.306-15.021-11.059-10.79-33.366-11.656-51.569-11.207-1.101.027-1.991.05-2.625.05-9.647 0-30.031-2.222-38.123-10.629-2.345-2.438-3.379-5.098-3.253-8.372.626-16.337 39.701-16.357 56.388-16.32h.988c15.017 0 30.705-.444 43.707-3.666 10.901-2.701 18.62-7.09 23.137-13.091 20.056 38.792 52.839 87.143 100.591 114.024 10.95 6.164 20.851 10.164 29.145 12.769-81.836 17.696-173.226 15.005-174.399 14.967a5.463 5.463 0 0 0-.181-.003H28.974l10.277-24.077z"/></svg>