<svg xmlns="http://www.w3.org/2000/svg" viewBox="0 0 447.984 447.984"><path d="M443.409 335.88a503.184 503.184 0 0 0-33.039-4.507c2.294-5.893 2.578-11.954.833-18.106-2.515-8.864-9.219-17.558-19.965-25.922a731.877 731.877 0 0 1 47.529 12.654 5.503 5.503 0 0 0 6.859-3.668 5.5 5.5 0 0 0-3.669-6.859 743.401 743.401 0 0 0-60.944-15.665v-84.311a5.5 5.5 0 0 0-5.5-5.5H365.06l-2.406-89.647a5.5 5.5 0 0 0-5.498-5.353h-14.42a5.5 5.5 0 0 0-5.498 5.353l-2.406 89.647h-10.45a5.5 5.5 0 0 0-5.5 5.5v19.544l-24.74-3.702v-32.842a5.5 5.5 0 0 0-5.5-5.5h-10.45l-2.406-89.647a5.5 5.5 0 0 0-5.498-5.353h-14.42a5.5 5.5 0 0 0-5.498 5.353l-2.406 89.647h-2.367l-1.946-72.647a5.5 5.5 0 0 0-5.498-5.353h-14.42a5.5 5.5 0 0 0-5.498 5.354l-2.406 89.646h-10.445a5.5 5.5 0 0 0-5.5 5.5v15.5h-9.74v-32.5a5.5 5.5 0 0 0-5.5-5.5h-10.45l-2.407-89.647a5.5 5.5 0 0 0-5.498-5.353h-14.42a5.5 5.5 0 0 0-5.498 5.353l-2.406 89.647h-10.45a5.5 5.5 0 0 0-5.5 5.5v91.265c-2.334.305-4.668.602-7 .929v-36.194a5.5 5.5 0 0 0-5.5-5.5H102.9l-2.45-115.617a5.5 5.5 0 0 0-5.499-5.383H82.076a5.5 5.5 0 0 0-5.499 5.383l-2.45 115.617H59.512a5.5 5.5 0 0 0-5.5 5.5v46.196a481.058 481.058 0 0 0-48.652-1.227 5.5 5.5 0 0 0-5.357 5.639c.077 3.037 2.615 5.45 5.639 5.357 83.152-2.131 165.069 17.816 237.826 57.764a502.332 502.332 0 0 0-79.926 26.197 5.5 5.5 0 1 0 4.291 10.128 490.548 490.548 0 0 1 103.651-30.957 145.891 145.891 0 0 0-6.5 4.328c-20.119 14.2-45.799 40.401-53.881 84.585a5.5 5.5 0 0 0 10.82 1.98c5.926-32.395 22.433-58.414 49.061-77.335 20.064-14.257 38.68-18.929 38.866-18.974l.012-.004a487.367 487.367 0 0 1 20.425-1.622c-.926 1.722-.926 3.872.224 5.62a5.497 5.497 0 0 0 7.618 1.574c4.331-2.847 8.982-5.522 13.826-7.978a486.488 486.488 0 0 1 15.517.031c-6.588 14.031-17.936 46.021-16.455 97.857a5.5 5.5 0 0 0 5.495 5.343c.053 0 .106 0 .16-.002a5.5 5.5 0 0 0 5.341-5.655c-1.614-56.483 12.875-88.347 17.615-97.189a491.726 491.726 0 0 1 61.933 6.574 5.505 5.505 0 0 0 6.348-4.496 5.507 5.507 0 0 0-4.5-6.35zm-42.788-19.611c1.349 4.756.722 9.367-1.904 14.022a501.511 501.511 0 0 0-27.722-1.435c2.931-11.664 1.758-22.444-3.54-32.126-3.872-7.076-9.577-12.806-15.84-17.413 2.167.376 4.329.777 6.492 1.173 10.846 4.646 37.835 19.29 42.514 35.779zm-30.609-99.578l-19.13-2.863v-18.833h19.13v21.696zm-24.176-32.696l1.772-66.019h4.676l1.772 66.019h-8.22zm5.966-84l.188 6.981h-4.086l.188-6.981h3.71zm-21.92 95h10v17.187l-10-1.496v-15.691zm40.13 32.818v43.736a748.505 748.505 0 0 0-75.87-10.931v-44.159l75.87 11.354zm-86.87 31.871a750.231 750.231 0 0 0-19.13-1.256v-80.433h19.13v81.689zm-48.528-91.858a5.493 5.493 0 0 0-2.603 4.668v11.5h-5.18l1.773-66.019h4.675l1.335 49.851zm-74.602 66.269h72v6h-72v-6zm72-11h-72v-7.1h72v7.1zm-72 28h72v6.374a750.427 750.427 0 0 0-72 2.803v-9.177zm83-73.1h10v79.943a741.216 741.216 0 0 0-10-.292v-79.651zm15.955-11l1.772-66.019h4.676l1.772 66.019h-8.22zm5.966-84l.188 6.981h-4.086l.188-6.981h3.71zm-32.136 17l.187 6.981H228.9l.188-6.981h3.709zm-21.915 95h21.13v10h-21.13v-10zm-31.74 10h-19.13v-27h19.13v27zm-24.176-38l1.772-66.019h4.677l1.773 66.019h-8.222zm5.966-84l.188 6.981h-4.086l.188-6.981h3.71zm-21.92 95h10v83.321c-3.335.34-6.668.705-10 1.09v-84.411zm-29 88.328c-4.338.675-8.672 1.38-13 2.132v-34.46h13v32.328zM90.071 136.995h-3.119l.063-2.998h2.992l.064 2.998zm-.509-24l.212 10.002h-2.525l.212-10.002h2.101zm-2.843 35h3.585l1.589 75H85.13l1.589-75zm-.707 86v36.462a741.846 741.846 0 0 0-21 4.3v-40.762h21zm10.232 45.779c71.282-12.65 144.035-14.693 215.661-6.23 4.448 1.015 35.055 8.647 45.901 28.468 4.333 7.919 4.927 16.689 1.811 26.708a499.486 499.486 0 0 0-100.074 9.963c-50.679-29.545-105.995-49.413-163.299-58.909zm39.768-237.779h10.5c3.584 0 6.5 2.916 6.5 6.5v11a5.5 5.5 0 0 0 11 0v-11c0-9.649-7.851-17.5-17.5-17.5h-10.5c-4.963 0-9-4.038-9-9s4.037-9 9-9h292.5a5.5 5.5 0 0 0 0-11h-292.5c-11.028 0-20 8.972-20 20s8.971 20 20 20z"/><path d="M316.512 44.995h-37c-10.201 0-18.5 8.299-18.5 18.5a5.5 5.5 0 0 0 11 0c0-4.136 3.364-7.5 7.5-7.5h37c8.547 0 15.5-6.953 15.5-15.5s-6.953-15.5-15.5-15.5h-146a5.5 5.5 0 0 0 0 11h146c2.481 0 4.5 2.019 4.5 4.5s-2.019 4.5-4.5 4.5zm68.364 6c7.168 0 13-5.832 13-13s-5.832-13-13-13h-22.864c-7.168 0-13 5.832-13 13s5.832 13 13 13h22.864zm-24.864-13c0-1.103.897-2 2-2h22.864c1.103 0 2 .897 2 2s-.897 2-2 2h-22.864c-1.103 0-2-.897-2-2zm-5.5 45.139a5.5 5.5 0 0 0 5.5-5.5c0-4.212 3.427-7.639 7.639-7.639h47.861a5.5 5.5 0 0 0 0-11H367.65c-10.277 0-18.639 8.361-18.639 18.639a5.502 5.502 0 0 0 5.501 5.5zm-65-1.139h48a5.5 5.5 0 0 0 0-11h-48a5.5 5.5 0 0 0 0 11z"/><path d="M194.512 47.995a5.5 5.5 0 0 0 0 11h53a5.5 5.5 0 0 0 0-11h-53zm-89 28c-9.098 0-16.5 7.402-16.5 16.5a5.5 5.5 0 0 0 11 0c0-3.033 2.468-5.5 5.5-5.5h27a5.5 5.5 0 0 0 0-11h-27z"/><path d="M81.512 93.995a5.5 5.5 0 0 0 5.5-5.5V77.507c0-6.348 5.164-11.512 11.512-11.512h43.988a5.5 5.5 0 0 0 0-11H98.523c-12.413 0-22.512 10.099-22.512 22.512v10.988a5.502 5.502 0 0 0 5.501 5.5zm205.459 310.539a5.496 5.496 0 0 0-6.772 3.825c-3.704 13.32-4.257 24.108-4.257 29.354 0 1.937.075 3.053.084 3.173a5.495 5.495 0 0 0 5.866 5.09 5.504 5.504 0 0 0 5.106-5.862c0-.008-.057-.865-.057-2.401 0-4.685.501-14.345 3.854-26.406a5.5 5.5 0 0 0-3.824-6.773zm23.354-48.21c-7.664 7.788-14.199 16.503-19.424 25.903a5.499 5.499 0 0 0 4.803 8.172 5.5 5.5 0 0 0 4.813-2.829c4.742-8.534 10.681-16.451 17.648-23.531a5.5 5.5 0 0 0-7.84-7.715z"/></svg>