<svg xmlns="http://www.w3.org/2000/svg" viewBox="0 0 441.302 441.302"><path d="M43.435 100.065a5.5 5.5 0 0 0 5.489 5.151h93.562a5.499 5.499 0 0 0 5.352-4.234c.481-2.031.725-4.066.725-6.048 0-14.457-11.762-26.219-26.219-26.219-3.792 0-7.467.805-10.852 2.358-5.733-6.802-14.252-10.858-23.309-10.858-11.38 0-21.868 6.495-27.054 16.46C50.933 78.862 43.37 87.928 43.37 98.654c0 .408.023.808.051 1.209l.014.202zM65.2 87.194a5.5 5.5 0 0 0 4.816-3.511c2.877-7.457 10.177-12.467 18.167-12.467 6.993 0 13.486 3.788 16.944 9.886a5.5 5.5 0 0 0 8.091 1.682c2.667-2.007 5.822-3.067 9.125-3.067 8.151 0 14.826 6.44 15.202 14.5H55.263c1.653-3.928 5.433-6.764 9.937-7.023zm151.014 43.058h82.554a5.5 5.5 0 0 0 5.489-5.156l.012-.18c.025-.365.046-.73.046-1.101 0-9.668-6.746-17.856-15.885-19.958-4.733-8.852-14.123-14.604-24.303-14.604-8.018 0-15.569 3.518-20.744 9.44a23.537 23.537 0 0 0-9.398-1.94c-13.113 0-23.781 10.668-23.781 23.781 0 1.8.221 3.646.657 5.486a5.503 5.503 0 0 0 5.353 4.232zm17.773-22.5c2.773 0 5.423.891 7.663 2.577a5.502 5.502 0 0 0 8.091-1.682c2.937-5.178 8.45-8.395 14.388-8.395 6.783 0 12.982 4.254 15.425 10.586a5.5 5.5 0 0 0 4.816 3.511 9.496 9.496 0 0 1 7.774 4.903H221.27c.644-6.448 6.102-11.5 12.717-11.5zm84.301-35.644h94.474a5.5 5.5 0 0 0 5.489-5.154l.014-.209c.028-.401.051-.802.051-1.209 0-10.813-7.631-19.952-17.915-22.144-5.223-10.058-15.801-16.614-27.281-16.614-9.144 0-17.742 4.1-23.522 10.976a26.126 26.126 0 0 0-10.972-2.393c-14.568 0-26.42 11.852-26.42 26.421 0 1.997.246 4.047.73 6.094a5.5 5.5 0 0 0 5.352 4.232zm20.338-25.749c3.348 0 6.545 1.075 9.246 3.108a5.497 5.497 0 0 0 8.092-1.681c3.501-6.174 10.075-10.01 17.156-10.01 8.089 0 15.48 5.073 18.393 12.623a5.5 5.5 0 0 0 4.816 3.511c4.598.264 8.452 3.175 10.112 7.198H323.22c.353-8.193 7.128-14.749 15.406-14.749zm97.177 189.211a5.5 5.5 0 0 0 1.593-10.765 745.684 745.684 0 0 0-99.78-22.892c19.693-19.27 36.646-29.436 50.494-29.864a735.216 735.216 0 0 1 46.097 12.348 5.503 5.503 0 0 0 6.859-3.668 5.5 5.5 0 0 0-3.669-6.859c-70.233-21.281-143.157-32.072-216.745-32.072-73.587 0-146.511 10.791-216.744 32.072a5.5 5.5 0 0 0 3.189 10.528 734.736 734.736 0 0 1 106.557-23.809c-14.792 10.636-30.956 26.81-48.384 48.44a745.696 745.696 0 0 0-61.362 15.777 5.5 5.5 0 0 0 3.189 10.528c3.101-.94 6.209-1.851 9.321-2.749 12.32.321 29.457 6.686 44.043 16.427 16.652 11.121 28.658 25.464 34.202 40.717a745.669 745.669 0 0 0-90.755 21.402 5.5 5.5 0 0 0 3.189 10.528 734.887 734.887 0 0 1 134.506-27.357c-9.018 5.042-18.198 11.235-27.078 18.387-21.541 17.35-50.904 47.81-68.463 94.397a5.5 5.5 0 0 0 5.146 7.441 5.501 5.501 0 0 0 5.147-3.562c16.686-44.268 44.595-73.219 65.07-89.71 20.165-16.242 42.345-27.472 58.819-30.092a739.837 739.837 0 0 1 40.407-1.104c3.45 0 6.899.037 10.346.085-31.924 15.429-70.896 49.474-96.237 103.994a5.501 5.501 0 0 0 9.975 4.637c32.293-69.477 90.46-106.725 120.666-107.331a740.58 740.58 0 0 1 51.406 4.92c-9.742 4.166-19.921 10.178-29.903 17.786-24.384 18.583-47.118 45.969-65.745 79.198a5.5 5.5 0 1 0 9.596 5.378c17.897-31.928 39.619-58.148 62.816-75.827 26.319-20.058 44.859-22.224 51.608-22.224.058 0 .115-.007.173-.009a734.892 734.892 0 0 1 55.262 11.682c-30.511 10.5-61.055 40.082-92.693 89.629a5.5 5.5 0 0 0 4.631 8.46 5.497 5.497 0 0 0 4.641-2.541c37.935-59.41 73.276-88.489 108.012-88.895a747.51 747.51 0 0 1 9.001 2.657 5.503 5.503 0 0 0 6.859-3.668 5.5 5.5 0 0 0-3.669-6.859 745.815 745.815 0 0 0-69.755-17.506c-5.477-26.371-22.353-51.808-47.656-71.753-6.737-5.311-13.79-10-20.873-13.957a734.771 734.771 0 0 1 135.094 27.419 5.567 5.567 0 0 0 1.597.236zm-206.749-82.722a739.649 739.649 0 0 1 53.541 2.55c-13.457 7.484-28.187 20.036-44.058 37.555a750.507 750.507 0 0 0-17.886-.22 750.63 750.63 0 0 0-52.629 1.853c23.855-26.202 44.798-40.571 61.032-41.738zm-84.161 3.844a738.026 738.026 0 0 1 53.484-3.553c-14.089 8.974-29.51 23.254-46.13 42.717a746.257 746.257 0 0 0-69.838 9.742c24.192-28.213 45.491-45.035 62.484-48.906zm-39.209 131.236c-10.052-30.406-39.758-52.493-65.956-61.668a733.87 733.87 0 0 1 51.429-11.084c1.561-.278 4.687-.79 4.687-.79 13.361 0 32.599 7.632 49.011 19.444 18 12.955 30.745 29.248 36.327 46.271a747.275 747.275 0 0 0-75.498 7.827zm114.967-8.871c-9.391 0-18.771.178-28.136.529-5.796-20.301-20.35-39.653-41.235-54.685-8.555-6.157-17.711-11.214-26.644-14.886a740.775 740.775 0 0 1 52.861-4.992c14.428.985 34.232 9.76 51.412 22.662 11.898 8.935 32.193 27.365 38.764 52.848a752.2 752.2 0 0 0-47.022-1.476zm92.524-48.548c21.801 17.185 36.758 38.603 42.633 60.84a746.808 746.808 0 0 0-76.649-10.002c-4.759-22.72-20.219-44.865-43.645-62.457-7.926-5.953-16.443-11.062-24.884-15.076 3.339-.046 6.679-.082 10.021-.082 13.31 0 26.598.362 39.851 1.076 15.542 2.307 35.414 12.096 52.673 25.701zm10.948-30.603a747.848 747.848 0 0 0-70.992-6.465c21.924-22.706 41.219-34.861 56.198-35.303a734.641 734.641 0 0 1 56.625 9.107c-12.789 6.141-26.777 17.06-41.831 32.661z"/></svg>