<svg xmlns="http://www.w3.org/2000/svg" viewBox="0 0 441.302 441.302"><path d="M437.396 195.907c-70.233-21.282-143.157-32.072-216.745-32.072-18.893 0-37.742.717-56.514 2.134v-16.144h2.173a5.498 5.498 0 0 0 5.452-6.221l-4.333-32.788a5.496 5.496 0 0 0-2.809-4.102L138.169 92.21a5.502 5.502 0 0 0-5.289 0l-65.027 34.792a5.497 5.497 0 0 0-2.824 3.746l-5 24a5.501 5.501 0 0 0 6.578 6.491l2.307-.513v18.639a745.492 745.492 0 0 0-65.006 16.541 5.5 5.5 0 0 0 3.189 10.528 734.736 734.736 0 0 1 96.044-22.187L3.899 214.499a5.5 5.5 0 0 0 3.206 10.523l157.035-48.019a736.023 736.023 0 0 1 18.681-1.193l-126.31 48.869a5.5 5.5 0 1 0 3.969 10.259l155.286-60.079c1.627-.011 3.255-.022 4.883-.022 16.338 0 32.643.545 48.892 1.621l-158.127 90.476a5.499 5.499 0 0 0-2.042 7.505 5.5 5.5 0 0 0 7.506 2.043L288.993 178a736.032 736.032 0 0 1 39.827 4.794l-83.243 86.645a5.5 5.5 0 0 0 7.933 7.622l88.56-92.18a734.028 734.028 0 0 1 44.727 8.905l-14.383 31.753a5.5 5.5 0 0 0 10.019 4.538l15.257-33.681a735.166 735.166 0 0 1 36.516 10.038 5.503 5.503 0 0 0 6.859-3.668 5.501 5.501 0 0 0-3.669-6.859zm-298.83-27.569c-2.029.224-4.056.458-6.083.698V152.37h6.083v15.968zm-3.041-65.032l21.364 11.714 3.146 23.805h-1.398a5.5 5.5 0 0 0-5.5 5.5v22.555a845.5 845.5 0 0 0-3.571.334V146.87a5.5 5.5 0 0 0-5.5-5.5h-17.083a5.5 5.5 0 0 0-5.5 5.5v23.555c-1.19.159-2.381.313-3.57.478v-26.579a5.5 5.5 0 0 0-5.5-5.5h-1.398l3.146-23.805 21.364-11.713zm-60.256 32.225l26.96-14.18-2.482 18.779-27.212 8.523 2.734-13.122zm4.644 22.374l27-8.08v22.692a745.086 745.086 0 0 0-27 4.658v-19.27zm228.723-34.714h75.81a5.5 5.5 0 0 0 5.49-5.163l.011-.169c.023-.341.042-.682.042-1.029 0-9.021-6.245-16.67-14.737-18.719-4.455-8.171-13.171-13.469-22.617-13.469-7.382 0-14.341 3.191-19.171 8.578a22.052 22.052 0 0 0-8.508-1.691c-12.29 0-22.288 9.998-22.288 22.288 0 1.684.207 3.413.615 5.139a5.502 5.502 0 0 0 5.353 4.235zm16.321-20.662c2.448 0 4.788.787 6.766 2.276a5.501 5.501 0 0 0 8.092-1.682 14.772 14.772 0 0 1 12.822-7.482c6.045 0 11.569 3.791 13.746 9.433a5.5 5.5 0 0 0 4.816 3.511 8.27 8.27 0 0 1 6.363 3.604h-63.775c.789-5.455 5.498-9.66 11.17-9.66zM54.848 51.214a5.5 5.5 0 0 0 5.489 5.156H165.51a5.5 5.5 0 0 0 5.352-4.233c.528-2.232.796-4.467.796-6.642 0-15.875-12.915-28.79-28.79-28.79-4.34 0-8.54.961-12.386 2.811-6.318-7.737-15.859-12.366-26.014-12.366-12.646 0-24.292 7.281-29.952 18.422-11.31 2.271-19.739 12.262-19.739 24.103 0 .439.025.87.055 1.302l.016.237zm23.747-15.101a5.5 5.5 0 0 0 4.816-3.511c3.335-8.644 11.797-14.451 21.057-14.451 8.106 0 15.632 4.391 19.641 11.459a5.502 5.502 0 0 0 8.092 1.681c3.116-2.345 6.805-3.585 10.667-3.585 9.768 0 17.722 7.913 17.79 17.665H66.477c1.72-5.134 6.432-8.931 12.118-9.258zm6.015 246.156L2.77 329.097a5.499 5.499 0 0 0-2.042 7.505 5.5 5.5 0 0 0 7.506 2.043l81.84-46.827a5.501 5.501 0 0 0-5.464-9.549zm132.36 16.947L98.352 422.682a5.5 5.5 0 0 0 7.933 7.622l118.618-123.466a5.5 5.5 0 0 0-7.933-7.622zm154.373-57.983a5.5 5.5 0 0 0-7.279 2.741l-82.621 182.407a5.5 5.5 0 1 0 10.021 4.538l82.621-182.407a5.501 5.501 0 0 0-2.742-7.279z"/><path d="M5.504 255.812c.66 0 1.331-.12 1.983-.372l31.702-12.265a5.5 5.5 0 1 0-3.969-10.259L3.519 245.181a5.5 5.5 0 0 0 1.985 10.631z"/></svg>