<svg xmlns="http://www.w3.org/2000/svg" viewBox="0 0 441.257 441.257"><path d="M131.892 102.71c19.023 0 34.5-15.477 34.5-34.5s-15.477-34.5-34.5-34.5-34.5 15.477-34.5 34.5 15.477 34.5 34.5 34.5zm0-58c12.958 0 23.5 10.542 23.5 23.5s-10.542 23.5-23.5 23.5-23.5-10.542-23.5-23.5 10.542-23.5 23.5-23.5zM440.95 187.279a5.5 5.5 0 0 0-4.688-3.658c-.019-.002-.029-.011-.049-.013a766.931 766.931 0 0 0-36.82-2.637v-13.386c9.721-1.537 14.658-7.46 14.658-17.697 0-6.23-1.842-14.826-4.691-21.901-5.087-12.627-11.219-15.278-15.467-15.278s-10.38 2.65-15.467 15.278c-2.85 7.075-4.691 15.671-4.691 21.901 0 10.237 4.937 16.159 14.658 17.697v12.937a759.168 759.168 0 0 0-20.633-.401c-.172-.052-7.749-1.55-11.367-2.219v-13.317c9.721-1.537 14.658-7.46 14.658-17.697 0-6.23-1.842-14.826-4.691-21.901-5.087-12.627-11.219-15.278-15.467-15.278s-10.38 2.65-15.467 15.278c-2.85 7.075-4.691 15.671-4.691 21.901 0 10.237 4.937 16.159 14.658 17.697v11.371c-91.295-15.454-185.239-13.689-275.972 5.002l-5.914-24.554 3.988 3.187a5.481 5.481 0 0 0 3.43 1.203 5.5 5.5 0 0 0 3.438-9.797l-20.704-16.542L70.2 113.752a5.5 5.5 0 0 0-.864-7.73 5.497 5.497 0 0 0-7.729.864l-16.541 20.703-20.703-16.541a5.5 5.5 0 1 0-6.867 8.594L38.2 136.184l-16.541 20.703a5.5 5.5 0 1 0 8.594 6.866l3.187-3.989-.416 29.66a741.853 741.853 0 0 0-29.114 8.152 5.502 5.502 0 1 0 3.19 10.527c98.087-29.71 201.913-38.544 303.346-26.125a741.393 741.393 0 0 0-93.463 12.601c-72.519 14.536-142.05 39.496-206.662 74.185a5.499 5.499 0 0 0 2.607 10.346c.878 0 1.769-.211 2.597-.655 63.657-34.176 132.165-58.767 203.621-73.09 48.534-9.729 97.692-14.567 146.836-14.495.128.004 6.272.028 9.217.069-116.456 22.798-227.798 94.925-318.608 207.657a5.5 5.5 0 0 0 8.566 6.9c99.64-123.692 224.168-197.563 352.496-209.613-59.951 47.582-109.262 114.878-146.733 200.319a5.5 5.5 0 1 0 10.074 4.418c39.729-90.59 92.881-160.257 157.978-207.066a5.504 5.504 0 0 0 1.978-6.275zm-56.216-37.39c0-10.5 5.953-24.69 9.158-26.134 3.205 1.444 9.158 15.635 9.158 26.134 0 5.339-1.323 7.115-9.158 7.115s-9.158-1.777-9.158-7.115zm-43-3c0-10.5 5.953-24.69 9.158-26.134 3.205 1.444 9.158 15.635 9.158 26.134 0 5.339-1.323 7.115-9.158 7.115s-9.158-1.777-9.158-7.115zm-297.1-1.14l2.157-2.7 2.705 2.162 9.163 38.043a740.279 740.279 0 0 0-14.599 3.402l.574-40.907z"/></svg>