<svg xmlns="http://www.w3.org/2000/svg" viewBox="0 0 459.782 459.782"><path d="M165.974 238.181c53.771 4.695 106.173 17.602 155.751 38.361a5.476 5.476 0 0 0 2.122.428 5.5 5.5 0 0 0 2.127-10.575c-50.628-21.199-104.138-34.379-159.042-39.173a536.735 536.735 0 0 0-27.437-1.668c45.353-23.703 95.789-37.268 147.065-39.408 56.877-2.375 114.061 9.253 165.361 33.625a5.5 5.5 0 1 0 4.721-9.936 357.614 357.614 0 0 0-17.96-7.923v-27.595c9.148-3.618 15.64-12.545 15.64-22.964v-8.8a24.533 24.533 0 0 0-7.23-17.459 24.551 24.551 0 0 0-9.313-5.84c-1.623-10.677-10.11-19.127-20.804-20.697-3.525-9.335-12.549-15.994-23.102-15.994-7.741 0-14.657 3.584-19.187 9.177-4.53-5.593-11.447-9.177-19.188-9.177s-14.657 3.584-19.187 9.177c-4.53-5.593-11.447-9.177-19.188-9.177s-14.657 3.584-19.187 9.177c-4.53-5.593-11.447-9.177-19.188-9.177-10.596 0-19.652 6.712-23.146 16.106-11.582 2.03-20.415 12.155-20.415 24.31v8.807c0 11.722 8.215 21.555 19.188 24.062v22.062c-48.234 6.342-94.987 22.449-136.84 47.301A532.87 532.87 0 0 0 4.305 237.97a5.499 5.499 0 0 0-4.171 6.565 5.502 5.502 0 0 0 6.565 4.172c52.258-11.65 105.848-15.191 159.275-10.526zm118.587-115.202c0-7.547 6.14-13.687 13.688-13.687 7.547 0 13.687 6.14 13.687 13.687v8.807c0 7.547-6.14 13.687-13.687 13.687s-13.688-6.14-13.688-13.687v-8.807zm38.374 0c0-7.547 6.14-13.687 13.688-13.687 7.547 0 13.687 6.14 13.687 13.687v8.807c0 7.547-6.14 13.687-13.687 13.687s-13.688-6.14-13.688-13.687v-8.807zm38.375 0c0-7.547 6.14-13.687 13.688-13.687 7.547 0 13.687 6.14 13.687 13.687v8.807c0 7.547-6.14 13.687-13.687 13.687s-13.688-6.14-13.688-13.687v-8.807zm43.913 32.106a24.487 24.487 0 0 0 2.649 7.923v27.896a362.365 362.365 0 0 0-8.188-2.416V152.32a24.598 24.598 0 0 0 5.539 2.765zm-101.475.763a24.564 24.564 0 0 0 8.187-3.529v22.697a360.345 360.345 0 0 0-8.187-.155v-19.013zm19.187-3.529a24.56 24.56 0 0 0 8.188 3.529v20.253a367.04 367.04 0 0 0-8.188-.587v-23.195zm19.188 3.529a24.564 24.564 0 0 0 8.187-3.529v25.895a368.912 368.912 0 0 0-8.187-1.029v-21.337zm19.187-3.529a24.56 24.56 0 0 0 8.188 3.529v25.516a359.755 359.755 0 0 0-8.188-1.472v-27.573zm19.187 3.529a24.564 24.564 0 0 0 8.187-3.529v33.258a364.142 364.142 0 0 0-8.187-1.928v-27.801zm-94.396 19.308c-.514.021-1.027.053-1.54.076v-22.913a24.56 24.56 0 0 0 8.188 3.529v19.099c-2.217.051-4.433.116-6.648.209zm132.771 19.319v-20.903a24.49 24.49 0 0 0 8.81 2.387v21.657a365.842 365.842 0 0 0-8.81-3.141zm19.187-62.689v-.011c.435.341.857.701 1.253 1.098a13.6 13.6 0 0 1 4.009 9.681v8.8c0 7.549-6.141 13.69-13.69 13.69-4.365 0-8.251-2.061-10.759-5.253v-3.942c10.972-2.508 19.187-12.341 19.187-24.063zm-11-8.807v8.807c0 7.547-6.14 13.687-13.687 13.687s-13.688-6.14-13.688-13.687v-8.807c0-7.547 6.14-13.687 13.688-13.687 7.547 0 13.687 6.14 13.687 13.687zm-33.188-29.415c4.744 0 8.93 2.428 11.386 6.105a24.781 24.781 0 0 0-11.073 7.8 24.772 24.772 0 0 0-11.58-7.972c2.472-3.58 6.598-5.933 11.267-5.933zm-38.375 0c4.744 0 8.93 2.428 11.386 6.105a24.781 24.781 0 0 0-11.073 7.8 24.772 24.772 0 0 0-11.58-7.972c2.472-3.58 6.598-5.933 11.267-5.933zm-38.374 0c4.744 0 8.93 2.428 11.386 6.105a24.781 24.781 0 0 0-11.073 7.8 24.772 24.772 0 0 0-11.58-7.972c2.472-3.58 6.598-5.933 11.267-5.933zm-38.375 0c4.744 0 8.93 2.428 11.386 6.105a24.781 24.781 0 0 0-11.073 7.8 24.772 24.772 0 0 0-11.58-7.972c2.472-3.58 6.598-5.933 11.267-5.933zm-32.561 38.222v-8.807c0-7.547 6.14-13.687 13.688-13.687 7.547 0 13.687 6.14 13.687 13.687v8.807c0 7.547-6.14 13.687-13.687 13.687-7.548 0-13.688-6.14-13.688-13.687zm19.188 24.062a24.564 24.564 0 0 0 8.187-3.529v23.589c-2.733.211-5.462.454-8.187.727v-20.787zm189.801 156.016a530.773 530.773 0 0 0-52.89-6.009c-14.47-8.911-32.215-18.847-47.15-26.196a5.5 5.5 0 0 0-4.856 9.87 517.804 517.804 0 0 1 28.898 15.381c-43.605-.823-87.188 3.789-130.259 13.834-67.094 15.648-129.657 43.662-185.953 83.265a5.5 5.5 0 0 0 6.329 8.997c55.135-38.786 116.41-66.224 182.122-81.549 66.705-15.557 134.658-17.825 201.972-6.739a5.501 5.501 0 0 0 1.787-10.854z"/><path d="M48.892 132.31a25.365 25.365 0 0 0-.693 5.808c0 .449.026.891.057 1.333l.018.259a5.5 5.5 0 0 0 5.489 5.158h110.073a5.501 5.501 0 0 0 5.353-4.234c.548-2.317.826-4.635.826-6.891 0-16.473-13.402-29.875-29.875-29.875a29.532 29.532 0 0 0-13.034 3.005 34.982 34.982 0 0 0-7.553-6.943c.274-2.032.429-4.089.429-6.157 0-25.365-20.636-46-46-46s-46 20.635-46 46c-.001 15.732 7.914 30.091 20.91 38.537zm75.501-12.648a5.5 5.5 0 0 0 4.426-.99c3.307-2.488 7.221-3.803 11.319-3.803 10.408 0 18.875 8.467 18.875 18.875v.125H59.837c1.736-5.64 6.837-9.845 13.02-10.201a5.5 5.5 0 0 0 4.816-3.511c3.528-9.144 12.48-15.288 22.277-15.288 8.576 0 16.538 4.645 20.779 12.122a5.497 5.497 0 0 0 3.664 2.671zM73.981 58.773c19.299 0 35 15.701 35 35 0 .433-.02.863-.036 1.294a34.665 34.665 0 0 0-8.996-1.2c-13.181 0-25.316 7.614-31.176 19.251-6.086 1.191-11.361 4.549-15.052 9.203-9.197-6.513-14.74-17.055-14.74-28.549 0-19.298 15.701-34.999 35-34.999z"/></svg>