<svg xmlns="http://www.w3.org/2000/svg" viewBox="0 0 441.303 441.303"><path d="M437.396 368.119a745.678 745.678 0 0 0-99.549-22.854V310.65a36.27 36.27 0 0 1 23.785 1.623 8.896 8.896 0 0 0 3.517.726c3.184 0 6.147-1.747 7.734-4.559 1.588-2.814 1.533-6.156-.148-8.941l-20.701-34.283c.376.14.752.283 1.123.441a8.868 8.868 0 0 0 10.188-2.36 8.867 8.867 0 0 0 .896-10.422l-16.199-26.823c.195.076.393.146.586.228 3.56 1.512 7.656.565 10.191-2.358s2.896-7.111.896-10.423v-.001l-31.514-52.184a5.5 5.5 0 0 0-9.416 0l-17.715 29.334-23.415-38.786a5.501 5.501 0 0 0-9.417 0l-21.362 35.381-28.221-46.731a5.5 5.5 0 0 0-9.416 0l-28.221 46.732-21.363-35.383a5.498 5.498 0 0 0-9.417 0l-23.414 38.786-17.715-29.334a5.5 5.5 0 0 0-9.416 0L68.18 213.498c-2 3.312-1.641 7.5.895 10.423a8.867 8.867 0 0 0 10.192 2.359c.194-.082.391-.152.587-.228l-16.2 26.825a8.867 8.867 0 0 0 .897 10.42 8.87 8.87 0 0 0 10.196 2.356c.37-.158.743-.304 1.118-.444L55.16 299.498c-1.682 2.784-1.737 6.126-.149 8.941 1.587 2.813 4.551 4.56 7.735 4.56a8.863 8.863 0 0 0 3.503-.72 36.288 36.288 0 0 1 23.799-1.628v36.864A745.577 745.577 0 0 0 3.906 368.12a5.5 5.5 0 0 0 3.19 10.527c69.199-20.968 141.05-31.6 213.556-31.6s144.355 10.632 213.555 31.6a5.503 5.503 0 0 0 6.859-3.668 5.503 5.503 0 0 0-3.67-6.86zm-318.205-57.578a36.437 36.437 0 0 1 7.143-1.102v32.566c-2.383.302-4.763.615-7.143.94v-32.404zm18.142-.032a36.294 36.294 0 0 1 5.226 1.772c.626.266 1.27.451 1.918.567v27.076c-2.383.243-4.764.499-7.144.765v-30.18zm2.396-86.588c2.03-2.34 2.638-5.487 1.785-8.35a20.257 20.257 0 0 1 7.073 2.787l3.43 2.16a5.5 5.5 0 0 0 5.863 0l3.438-2.164a20.276 20.276 0 0 1 18.758-1.529 8.893 8.893 0 0 0 3.193.704l-12.467 20.644a9.08 9.08 0 0 0-1.284 5.317 37.03 37.03 0 0 0-14.566 5.25 37.012 37.012 0 0 0-15.544-5.376l-10.455-17.312c.196.076.393.146.587.228a8.864 8.864 0 0 0 10.189-2.359zm148.438.001a8.867 8.867 0 0 0 10.191 2.358c.194-.082.391-.152.587-.228l-10.456 17.312a37.027 37.027 0 0 0-15.542 5.376 37.035 37.035 0 0 0-14.555-5.248 9.057 9.057 0 0 0-1.296-5.32l-12.466-20.641a8.855 8.855 0 0 0 3.183-.702c6.072-2.576 13.195-1.992 18.771 1.53l3.43 2.16a5.5 5.5 0 0 0 5.864 0l3.438-2.166a20.22 20.22 0 0 1 7.064-2.781c-.853 2.863-.244 6.01 1.787 8.35zm-12.257 72.829h-9.465c1.417-2.764 1.372-6.097-.29-8.85l-19.787-32.77a26.168 26.168 0 0 1 8.447-.954 25.948 25.948 0 0 1 12.424 3.967l2.77 1.75a5.497 5.497 0 0 0 5.876 0l2.767-1.748a26.106 26.106 0 0 1 2.856-1.56 8.748 8.748 0 0 0 1.09 5.228c1.587 2.812 4.552 4.559 7.735 4.559a8.863 8.863 0 0 0 3.503-.72c.367-.156.741-.298 1.116-.437l-19.042 31.535zm-36.462-9.866a50.293 50.293 0 0 0-17.404 3.1 49.962 49.962 0 0 0-8.095 3.845 49.996 49.996 0 0 0-8.101-3.846c-10.356-3.814-21.512-4.121-31.939-.954l23.898-39.578a28.093 28.093 0 0 1 10.258 3.925l2.949 1.86a5.497 5.497 0 0 0 5.868 0l2.953-1.862a28.08 28.08 0 0 1 10.255-3.924l23.896 39.576a49.96 49.96 0 0 0-14.538-2.142zm-13.193-78.505l18.741 31.032a39.183 39.183 0 0 0-12.311-1.309 39.054 39.054 0 0 0-18.721 5.97l-.017.01-.013-.009a39.061 39.061 0 0 0-18.742-5.972c-4.173-.208-8.316.219-12.284 1.299l18.733-31.019a21.966 21.966 0 0 1 5.713 2.546l3.656 2.309a5.5 5.5 0 0 0 5.873 0l3.658-2.309a21.979 21.979 0 0 1 5.714-2.548zm-88.692 57.994c3.185 0 6.148-1.747 7.735-4.56a8.75 8.75 0 0 0 1.089-5.228c.979.458 1.933.978 2.853 1.558l2.77 1.75a5.497 5.497 0 0 0 5.876 0l2.767-1.748a25.94 25.94 0 0 1 12.428-3.97c2.844-.151 5.72.182 8.449.952L161.741 287.9c-1.662 2.753-1.759 6.032-.305 8.85h-9.45l-19.041-31.535c.371.138.74.278 1.104.432a8.837 8.837 0 0 0 3.514.727zm17.914 41.377h7.143V338.3c-2.382.185-4.763.381-7.143.589v-31.138zm18.143-6.947a39.35 39.35 0 0 1 7.143-2.16v38.468c-2.382.127-4.763.264-7.143.413v-36.721zm18.142-2.784c2.401.205 4.791.631 7.144 1.282v37.063c-2.382.069-4.763.15-7.144.242V298.02zm18.144 6.242l1.09.693a5.494 5.494 0 0 0 5.903 0l.149-.095v31.203c-2.382.011-4.762.034-7.143.068v-31.869zm18.142-4.683a39.263 39.263 0 0 1 8.084-1.552v38.185a777.41 777.41 0 0 0-8.084-.127v-36.506zm19.084-.938a38.912 38.912 0 0 1 7.144 2.163v35.999c-2.38-.107-4.761-.201-7.144-.285v-37.877zm18.144 9.11h7.143v30.089a737.86 737.86 0 0 0-7.143-.459v-29.63zm18.142 5.096a8.937 8.937 0 0 0 1.925-.569 36.221 36.221 0 0 1 5.218-1.769v28.804c-2.379-.223-4.76-.435-7.143-.635v-25.831zm18.143-3.408c2.417.13 4.804.499 7.143 1.101v30.695c-2.379-.281-4.76-.551-7.143-.809v-30.987zm18.143 5.984l.84.534a5.498 5.498 0 0 0 5.901-.001l.402-.256v27.911c-2.379-.341-4.761-.67-7.144-.988v-27.2zm11.26-14.115a47.22 47.22 0 0 0-7.471 3.529 47.254 47.254 0 0 0-7.479-3.531 47.487 47.487 0 0 0-16.429-2.925 47.2 47.2 0 0 0-12.88 1.774l21.83-36.152a25.989 25.989 0 0 1 9.259 3.598l2.767 1.744c.896.565 1.914.847 2.933.847s2.037-.282 2.934-.848l2.769-1.746a25.99 25.99 0 0 1 9.255-3.596l21.83 36.153c-9.599-2.722-19.812-2.348-29.318 1.153zm10.078-48.663a36.949 36.949 0 0 0-17.548 5.544 36.944 36.944 0 0 0-17.547-5.544 37.076 37.076 0 0 0-10.833 1.029l16.998-28.146a20.251 20.251 0 0 1 5.016 2.273l3.429 2.165a5.5 5.5 0 0 0 5.874-.001l3.428-2.164a20.274 20.274 0 0 1 5.017-2.273l16.99 28.133c-3.504-.867-7.06-1.204-10.824-1.016zm-17.548-77.848l23.912 39.596a31.317 31.317 0 0 0-23.421 4.105l-.491.31-.492-.311a31.294 31.294 0 0 0-23.421-4.105l23.913-39.595zm-50.547-9.451l21.698 35.943-1.839 3.045a31.05 31.05 0 0 0-19.361 4.716l-.498.314-.492-.31a31.27 31.27 0 0 0-16.718-4.84c-.953 0-1.899.053-2.84.139.811-1.965.886-4.154.24-6.197l19.81-32.81zm-58.999-11.351l26.268 43.496a33.027 33.027 0 0 0-25.546 4.135l-.722.455-.72-.455a33.025 33.025 0 0 0-25.547-4.134l26.267-43.497zm-59 11.351l19.811 32.812c-.645 2.042-.57 4.231.24 6.195a31.568 31.568 0 0 0-2.842-.139 31.258 31.258 0 0 0-16.71 4.836l-.5.315-.489-.308a31.057 31.057 0 0 0-19.369-4.722l-1.839-3.045 21.698-35.944zm-50.546 9.451l23.912 39.596a31.31 31.31 0 0 0-23.42 4.105l-.492.311-.492-.311a31.294 31.294 0 0 0-23.42-4.105l23.912-39.596zm-11.381 50.73a20.267 20.267 0 0 1 5.016 2.273l3.429 2.165a5.5 5.5 0 0 0 5.874 0l3.429-2.165a20.228 20.228 0 0 1 5.016-2.272l16.997 28.145a37.045 37.045 0 0 0-10.83-1.027 36.949 36.949 0 0 0-17.549 5.544 36.966 36.966 0 0 0-17.567-5.545c-3.662-.183-7.302.15-10.804 1.016l16.989-28.134zm-25.407 74.629l21.83-36.154a26.005 26.005 0 0 1 9.259 3.597l2.766 1.744a5.497 5.497 0 0 0 5.868 0l2.769-1.746a25.991 25.991 0 0 1 9.256-3.595l21.829 36.152a47.21 47.21 0 0 0-12.88-1.774c-5.618 0-11.146.984-16.437 2.928a47.211 47.211 0 0 0-7.471 3.529 47.204 47.204 0 0 0-7.476-3.53c-9.498-3.499-19.708-3.874-29.313-1.151zm33.434 15.544l.402.256a5.49 5.49 0 0 0 5.902 0l.838-.533v29.112a746.57 746.57 0 0 0-7.143 1.121V315.7zm-45.1-164.282c24.537 0 44.5-19.963 44.5-44.5a45.15 45.15 0 0 0-.331-5.364 5.502 5.502 0 0 0-10.524-1.492 19.146 19.146 0 0 1-17.654 11.689c-10.568 0-19.166-8.598-19.166-19.167 0-8.405 5.619-15.956 13.666-18.362a5.5 5.5 0 0 0-.323-10.625 44.726 44.726 0 0 0-10.167-1.18c-24.537 0-44.5 19.963-44.5 44.5s19.962 44.501 44.499 44.501zm-8.013-77.032c-3.891 5.135-6.163 11.494-6.163 18.198 0 16.634 13.532 30.167 30.166 30.167 5.564 0 10.87-1.518 15.441-4.239-4.728 12.776-17.033 21.906-31.432 21.906-18.472 0-33.5-15.028-33.5-33.5.001-15.711 10.873-28.931 25.488-32.532z"/><circle cx="231.948" cy="107.584" r="6.333"/><circle cx="310.615" cy="82.918" r="6.333"/><circle cx="346.281" cy="143.251" r="6.333"/><circle cx="147.948" cy="72.918" r="6.333"/><circle cx="42.615" cy="195.584" r="6.333"/></svg>