<svg xmlns="http://www.w3.org/2000/svg" viewBox="0 0 441.302 441.302"><path d="M7.096 296.19c69.199-20.968 141.049-31.6 213.555-31.6s144.355 10.632 213.555 31.6a5.503 5.503 0 0 0 6.859-3.668 5.5 5.5 0 0 0-3.669-6.859 745.827 745.827 0 0 0-79.863-19.466v-17.581c8.04-.821 19.7-4.621 19.7-22.228 0-8.15-2.421-19.426-6.169-28.727-5.099-12.658-11.68-19.348-19.031-19.348s-13.933 6.69-19.031 19.348c-3.748 9.301-6.169 20.577-6.169 28.727 0 17.607 11.66 21.407 19.7 22.228v15.627a746.355 746.355 0 0 0-51.385-6.942V236.27c8.969-.779 22.591-4.724 22.591-24.748 0-15.765-9.844-54.323-28.091-54.323-8.073 0-15.361 7.498-21.075 21.682-4.262 10.578-7.015 23.39-7.015 32.641 0 20.024 13.621 23.969 22.59 24.748v20.016a749.48 749.48 0 0 0-57.996-2.669v-28.064c10.119-.684 25.48-4.618 25.48-27.283 0-17.578-10.856-60.57-30.98-60.57-20.125 0-30.981 42.991-30.981 60.57 0 22.666 15.362 26.599 25.481 27.283v28.064a750.404 750.404 0 0 0-57.994 2.669V236.27c8.969-.779 22.588-4.726 22.588-24.748 0-15.765-9.844-54.323-28.09-54.323-8.073 0-15.361 7.498-21.076 21.682-4.262 10.578-7.015 23.39-7.015 32.641 0 20.026 13.624 23.97 22.593 24.748v21.031a746.412 746.412 0 0 0-51.387 6.942v-15.627c8.04-.821 19.7-4.621 19.7-22.228 0-8.15-2.421-19.426-6.168-28.727-5.1-12.658-11.681-19.348-19.032-19.348s-13.932 6.69-19.031 19.348c-3.747 9.301-6.168 20.577-6.168 28.727 0 17.607 11.66 21.407 19.7 22.228v17.581a745.827 745.827 0 0 0-79.863 19.466 5.5 5.5 0 0 0 3.187 10.527zm330.736-69.803c0-6.749 2.159-16.642 5.372-24.617 4.097-10.17 7.84-12.459 8.828-12.459s4.731 2.289 8.828 12.459c3.213 7.975 5.372 17.868 5.372 24.617 0 7.761-2.125 11.455-14.2 11.455-9.621 0-14.2-1.714-14.2-11.455zm-65.274-14.867c0-7.833 2.499-19.298 6.218-28.53 4.714-11.701 9.173-14.792 10.872-14.792s6.159 3.092 10.873 14.792c3.719 9.232 6.218 20.698 6.218 28.53 0 10.555-4.153 13.943-17.091 13.943s-17.09-3.388-17.09-13.943zm-137.994 0c0-7.833 2.499-19.298 6.218-28.53 4.714-11.701 9.173-14.792 10.873-14.792s6.158 3.092 10.872 14.792c3.719 9.232 6.218 20.698 6.218 28.53 0 10.555-4.153 13.943-17.09 13.943-12.938 0-17.091-3.388-17.091-13.943zM75.07 226.387c0-6.749 2.159-16.642 5.372-24.617 4.097-10.17 7.84-12.459 8.828-12.459s4.731 2.289 8.829 12.459c3.213 7.975 5.372 17.868 5.372 24.617 0 7.761-2.125 11.455-14.2 11.455-9.622 0-14.201-1.714-14.201-11.455zm125.6-28.119c0-19.92 11.951-49.57 19.981-49.57 8.029 0 19.98 29.649 19.98 49.57 0 12.438-4.855 16.43-19.98 16.43-15.126.001-19.981-3.992-19.981-16.43z"/><path d="M437.396 316.663c-70.233-21.281-143.157-32.072-216.744-32.072-73.587 0-146.511 10.791-216.745 32.072a5.5 5.5 0 0 0 3.189 10.528c69.199-20.968 141.049-31.6 213.555-31.6s144.355 10.632 213.555 31.6a5.503 5.503 0 0 0 6.859-3.668 5.502 5.502 0 0 0-3.669-6.86z"/><path d="M437.396 347.664c-70.233-21.281-143.157-32.072-216.744-32.072-73.587 0-146.511 10.791-216.745 32.072a5.5 5.5 0 0 0 3.189 10.528c69.199-20.968 141.049-31.6 213.555-31.6s144.355 10.632 213.555 31.6a5.503 5.503 0 0 0 6.859-3.668 5.502 5.502 0 0 0-3.669-6.86z"/><path d="M437.396 378.665c-70.233-21.281-143.157-32.072-216.744-32.072-73.587 0-146.511 10.791-216.745 32.072a5.5 5.5 0 0 0 3.189 10.528c69.199-20.968 141.049-31.6 213.555-31.6s144.355 10.632 213.555 31.6a5.503 5.503 0 0 0 6.859-3.668 5.502 5.502 0 0 0-3.669-6.86zM45.023 97.714a5.5 5.5 0 0 0 5.489 5.158h110.073a5.501 5.501 0 0 0 5.353-4.234c.548-2.317.826-4.635.826-6.891 0-16.473-13.402-29.875-29.875-29.875a29.532 29.532 0 0 0-13.034 3.005c-6.563-8.132-16.536-13.005-27.155-13.005-13.182 0-25.316 7.614-31.176 19.252C53.743 73.429 44.95 83.81 44.95 96.122c0 .451.026.894.057 1.337l.016.255zm24.583-16.043a5.5 5.5 0 0 0 4.816-3.511c3.527-9.144 12.48-15.288 22.277-15.288 8.576 0 16.538 4.645 20.778 12.122a5.502 5.502 0 0 0 8.092 1.682c3.306-2.489 7.22-3.804 11.319-3.804 10.408 0 18.875 8.467 18.875 18.875v.125H56.587c1.736-5.64 6.837-9.846 13.019-10.201zm256.652 57.184h83.594a5.5 5.5 0 0 0 5.439-4.686c.177-1.18.259-2.2.259-3.208 0-11.852-9.643-21.495-21.495-21.495-1.983 0-3.954.278-5.854.819-4.861-6.035-12.212-9.63-20.146-9.63s-15.284 3.594-20.146 9.63a21.378 21.378 0 0 0-5.854-.819c-11.853 0-21.495 9.643-21.495 21.495 0 1 .085 2.052.261 3.215a5.497 5.497 0 0 0 5.437 4.679zm15.796-18.39c1.841 0 3.591.469 5.202 1.393a5.497 5.497 0 0 0 7.605-2.213c2.59-4.929 7.645-7.991 13.193-7.991s10.604 3.062 13.192 7.991a5.5 5.5 0 0 0 7.605 2.213 10.332 10.332 0 0 1 5.202-1.393c4.706 0 8.699 3.114 10.026 7.389h-72.054c1.329-4.275 5.323-7.389 10.029-7.389z"/></svg>