<svg xmlns="http://www.w3.org/2000/svg" viewBox="0 0 443.971 443.971"><path d="M434.65 338.12c-41.064 8.792-79.538 10.536-116.436 8.87 3.15-7.75 4.845-16.638 4.845-25.797 0-28.693-15.791-51.17-35.95-51.17h-58.71c-20.153 0-35.939 22.477-35.939 51.17 0 3.981.321 7.891.938 11.697-63.511-8.639-124.536-14.337-189.49 5.345a5.5 5.5 0 0 0 3.189 10.527c69.856-21.167 136.01-11.867 206.048-2.021 41.691 5.861 84.229 11.841 129.485 11.841 30.061 0 61.324-2.64 94.323-9.705a5.5 5.5 0 1 0-2.303-10.757zm-122.591-16.928c0 9.219-1.983 18.02-5.625 25.158-2.991-.193-5.97-.412-8.942-.644.537-.812.955-1.521 1.219-1.996 2.411-4.345 5.285-11.779 5.285-22.519a5.5 5.5 0 0 0-11 0c0 10.621-3.56 17.42-5.884 20.145-2.324-2.725-5.884-9.524-5.884-20.145 0-12.527 4.953-19.739 6.988-21.216a5.5 5.5 0 0 0-1.104-10.889c-5.825 0-10.35 7.338-11.598 9.587-2.412 4.345-5.286 11.778-5.286 22.518 0 10.712 2.859 18.133 5.266 22.483-3.135-.332-6.262-.675-9.379-1.034-2.588-6.422-3.946-13.772-3.946-21.448 0-21.774 11.421-40.17 24.939-40.17 13.525 0 24.951 18.396 24.951 40.17zm-107.162 13.285c-.95-4.255-1.438-8.706-1.438-13.284 0-21.774 11.421-40.17 24.939-40.17h36.212c-8.238 9.299-13.442 23.706-13.442 40.17 0 6.96.981 13.721 2.832 19.985-13.228-1.663-26.32-3.502-39.326-5.331-3.267-.459-6.524-.916-9.777-1.37zM394.953 154.39c19.023 0 34.5-15.477 34.5-34.5s-15.477-34.5-34.5-34.5-34.5 15.477-34.5 34.5 15.476 34.5 34.5 34.5zm0-58c12.958 0 23.5 10.542 23.5 23.5s-10.542 23.5-23.5 23.5-23.5-10.542-23.5-23.5 10.542-23.5 23.5-23.5z"/><path d="M35.453 306.89a5.5 5.5 0 0 0 5.5 5.5h69.881c13.925 0 24.833-15.154 24.833-34.5s-10.908-34.5-24.833-34.5H73.55c-13.925 0-24.833 15.154-24.833 34.5 0 9.163 2.45 17.382 6.506 23.5h-14.27a5.5 5.5 0 0 0-5.5 5.5zm89.213-29c0 12.738-6.335 23.5-13.833 23.5S97 290.628 97 277.89s6.335-23.5 13.833-23.5 13.833 10.761 13.833 23.5zm-64.949 0c0-12.738 6.335-23.5 13.833-23.5h18.956C88.451 260.507 86 268.727 86 277.89s2.45 17.382 6.506 23.5H73.55c-7.498 0-13.833-10.762-13.833-23.5zm380.346-54.394a739.841 739.841 0 0 0-40.097-10.905c-2.168-12.119-10.036-20.861-19.68-20.861h-28.493c-5.831 0-11.009 3.2-14.675 8.406a749.754 749.754 0 0 0-78.379-7.85 21.504 21.504 0 0 0 1.194-7.141c0-9.41-5.646-16.781-12.855-16.781h-15.146c-7.208 0-12.854 7.371-12.854 16.781 0 2.243.329 4.365.916 6.304-9.078.039-18.151.244-27.214.613-2.805-8.666-9.16-14.582-16.731-14.582h-24.638c-8.893 0-16.109 8.159-17.864 19.354-42.96 5.181-85.655 14.137-126.973 26.663a5.5 5.5 0 1 0 3.192 10.527c40.31-12.22 81.95-20.993 123.857-26.12.491 2.872 1.342 5.536 2.491 7.904H111.62a5.5 5.5 0 0 0 0 11h64.429c10.033 0 17.932-10.385 18.26-23.799a739.917 739.917 0 0 1 138.23 7.555 37.967 37.967 0 0 0-1.022 8.829c0 6.307 1.473 12.059 3.984 16.664h-29.729a5.5 5.5 0 0 0 0 11h74.515c10.218 0 18.441-9.815 20.004-23.062a729.999 729.999 0 0 1 36.586 10.029 5.503 5.503 0 0 0 6.858-3.671 5.501 5.501 0 0 0-3.672-6.857zm-295.928-21.352c0-7.82 3.841-13.664 7.275-13.664h9.339c-1.887 3.888-2.978 8.572-2.978 13.664s1.091 9.775 2.978 13.664h-9.339c-3.434-.001-7.275-5.844-7.275-13.664zm31.913 13.663c-3.435 0-7.276-5.843-7.276-13.664s3.842-13.664 7.276-13.664 7.275 5.843 7.275 13.664-3.84 13.664-7.275 13.664zm73.885-30.663c0 3.949-1.667 6.22-2.555 6.683l-.649-.024c-.9-.523-2.505-2.788-2.505-6.66 0-4.45 2.121-6.781 2.854-6.781s2.855 2.333 2.855 6.782zm-18.001-6.781h3.356a21.633 21.633 0 0 0-1.064 6.781c0 2.274.336 4.424.938 6.385-1.33-.021-2.66-.029-3.99-.043-.905-.867-2.094-3.01-2.094-6.342 0-4.449 2.121-6.781 2.854-6.781zm110.584 41.03c0-9.82 4.889-16.663 9.276-16.663h12.202c-2.511 4.605-3.984 10.356-3.984 16.663s1.473 12.059 3.984 16.664h-12.202c-4.387-.001-9.276-6.844-9.276-16.664zm37.77 16.663c-4.387 0-9.275-6.843-9.275-16.664 0-9.82 4.889-16.663 9.275-16.663 4.388 0 9.276 6.843 9.276 16.663 0 9.821-4.889 16.664-9.276 16.664z"/></svg>