<svg xmlns="http://www.w3.org/2000/svg" viewBox="0 0 441.303 441.303"><path d="M437.396 258.832c-58.714-17.791-119.309-28.245-180.599-31.197a130.213 130.213 0 0 1 9.013-22.599c.39 3.188.562 7.215.031 11.811a5.499 5.499 0 0 0 5.471 6.131 5.5 5.5 0 0 0 5.457-4.87c.507-4.397.49-8.39.222-11.823a32.821 32.821 0 0 1 6.337 10.388 5.503 5.503 0 0 0 7.097 3.184 5.501 5.501 0 0 0 3.185-7.097c-3.276-8.606-8.493-14.524-13.344-18.468.856-.051 1.775-.06 2.76-.013a5.48 5.48 0 0 0 5.756-5.232 5.499 5.499 0 0 0-5.232-5.755c-6.785-.328-11.781 1.208-15.047 2.776-4.305-4.77-13.561-11.943-28.746-8.989a5.5 5.5 0 0 0 2.099 10.798c5.302-1.031 9.453-.207 12.566 1.213-4.567 1.397-9.605 3.783-13.574 7.856a5.5 5.5 0 0 0 7.879 7.677c2.033-2.087 4.636-3.501 7.224-4.464a141.241 141.241 0 0 0-10.469 27.019 749.802 749.802 0 0 0-22.153-.405 141.312 141.312 0 0 0-14.854-46.59c3.197.693 6.596 1.953 9.174 4.226a5.478 5.478 0 0 0 3.637 1.376 5.5 5.5 0 0 0 3.641-9.624c-3.794-3.348-8.419-5.278-12.758-6.381 2.906-1.018 6.572-1.47 11.069-.596a5.496 5.496 0 0 0 6.448-4.349 5.5 5.5 0 0 0-4.349-6.449c-14.765-2.87-23.928 3.832-28.381 8.59-5.87-2.53-16.748-5.582-28.712-.797a5.5 5.5 0 0 0-3.063 7.149 5.498 5.498 0 0 0 7.149 3.064c4.827-1.93 9.433-2.014 13.245-1.404-6.125 4.761-13.037 12.671-15.949 25.19a5.5 5.5 0 0 0 10.715 2.492c1.541-6.628 4.547-11.527 7.761-15.089a61.455 61.455 0 0 0 .221 11.835 5.5 5.5 0 1 0 10.928-1.261 50.083 50.083 0 0 1 .033-11.808 130.304 130.304 0 0 1 12.928 40.466c-70.722.793-140.757 11.552-208.305 32.02a5.5 5.5 0 0 0 3.189 10.527c66.877-20.265 136.23-30.873 206.259-31.562.052.852.093 1.705.128 2.559-26.488 1.781-50.175 16.095-64.145 39.059a5.501 5.501 0 0 0 2.896 8.054c21.479 7.454 43.978 11.233 66.87 11.233s45.392-3.779 66.87-11.233a5.501 5.501 0 0 0 2.896-8.054c-8.802-14.47-21.465-25.503-36.253-32.133.39-2.94.879-5.864 1.468-8.766a735.316 735.316 0 0 1 180.122 30.843 5.503 5.503 0 0 0 6.859-3.669 5.502 5.502 0 0 0-3.67-6.859zm-161.864 20.476c-18.235 5.573-37.183 8.395-56.428 8.395s-38.192-2.821-56.428-8.395c13.306-17.743 33.927-28.144 56.428-28.144a71.13 71.13 0 0 1 21.733 3.379 140.704 140.704 0 0 0-.349 9.814 5.5 5.5 0 0 0 11 0c0-1.782.05-3.56.123-5.337 9.281 4.803 17.464 11.678 23.921 20.288zm-33.459-35.896a82.026 82.026 0 0 0-17.579-3.075c-.032-.855-.08-1.708-.128-2.561 6.208.031 12.411.139 18.607.325a141.772 141.772 0 0 0-.9 5.311zm37.68-123.382a5.5 5.5 0 0 0 5.489 5.151h93.562a5.501 5.501 0 0 0 5.353-4.235c.48-2.032.724-4.066.724-6.046 0-14.457-11.762-26.219-26.219-26.219-3.792 0-7.467.805-10.851 2.358-5.734-6.802-14.253-10.858-23.31-10.858-11.381 0-21.867 6.495-27.054 16.46-10.195 2.186-17.759 11.252-17.759 21.977 0 .408.023.809.051 1.21l.014.202zm21.766-12.871a5.5 5.5 0 0 0 4.816-3.511c2.876-7.457 10.177-12.467 18.166-12.467 6.993 0 13.485 3.788 16.944 9.886a5.498 5.498 0 0 0 8.092 1.68c2.665-2.006 5.82-3.067 9.124-3.067 8.15 0 14.825 6.441 15.202 14.5h-82.282c1.653-3.927 5.434-6.763 9.938-7.021z"/><path d="M90.422 171.169c-4.88-4.48-11.218-6.976-17.992-6.976-14.741 0-26.734 11.993-26.734 26.734a5.5 5.5 0 0 0 5.5 5.5h64.642a5.5 5.5 0 0 0 5.5-5.5c0-12.009-9.77-21.778-21.778-21.778a21.8 21.8 0 0 0-9.138 2.02zm18.404 14.258H57.688c2.234-5.972 8-10.234 14.742-10.234 4.981 0 9.566 2.304 12.578 6.32a5.505 5.505 0 0 0 3.706 2.156 5.497 5.497 0 0 0 4.129-1.16 10.654 10.654 0 0 1 6.716-2.36c3.936 0 7.385 2.12 9.267 5.278zm-46.539-32.793c21.505 0 39-17.495 39-39s-17.495-39-39-39-39 17.495-39 39 17.495 39 39 39zm0-67c15.439 0 28 12.561 28 28s-12.561 28-28 28-28-12.561-28-28 12.56-28 28-28zm4.571 182.54H47.359a5.5 5.5 0 0 0 0 11h19.499a5.5 5.5 0 0 0 0-11zm34.124 23.211h-9.75a5.5 5.5 0 0 0 0 11h9.75a5.5 5.5 0 0 0 0-11zm276.986-.713a5.5 5.5 0 0 0-5.5-5.5h-9.75a5.5 5.5 0 0 0 0 11h9.75a5.5 5.5 0 0 0 5.5-5.5zm-71.872 33.498h-9.749a5.5 5.5 0 0 0 0 11h9.749a5.5 5.5 0 0 0 0-11zm-156.742-1.5h-19.499a5.5 5.5 0 0 0 0 11h19.499a5.5 5.5 0 0 0 0-11zm-88.495 16.499H41.36a5.5 5.5 0 0 0 0 11h19.499a5.5 5.5 0 0 0 0-11zm331.483 16.5h-19.499a5.5 5.5 0 0 0 0 11h19.499a5.5 5.5 0 0 0 0-11zm-77.996-106.495h-19.499a5.5 5.5 0 0 0 0 11h19.499a5.5 5.5 0 0 0 0-11z"/></svg>