<svg xmlns="http://www.w3.org/2000/svg" viewBox="0 0 443.862 443.862"><path d="M164.481 144.724c12.958 0 23.499-10.542 23.499-23.499s-10.542-23.499-23.499-23.499-23.499 10.542-23.499 23.499 10.542 23.499 23.499 23.499zm0-35.998c6.892 0 12.499 5.607 12.499 12.499s-5.607 12.499-12.499 12.499-12.499-5.607-12.499-12.499 5.607-12.499 12.499-12.499zm23.499 125.532c0-10.352-10.322-18.461-23.499-18.461s-23.499 8.109-23.499 18.461 10.322 18.461 23.499 18.461 23.499-8.109 23.499-18.461zm-35.998 0c0-3.529 5.133-7.461 12.499-7.461s12.499 3.932 12.499 7.461-5.133 7.461-12.499 7.461-12.499-3.932-12.499-7.461zm-47.499 9.729H94.65a5.5 5.5 0 1 0 0 11h9.833a5.5 5.5 0 1 0 0-11zm-3.999 17.732a5.5 5.5 0 0 0 5.5 5.5h16.499a5.5 5.5 0 1 0 0-11h-16.499a5.5 5.5 0 0 0-5.5 5.5zm101.492 3.499a5.5 5.5 0 0 0 5.5 5.5h16.5a5.5 5.5 0 1 0 0-11h-16.5a5.5 5.5 0 0 0-5.5 5.5zm37.501-7.999a5.5 5.5 0 1 0 0-11h-16.5a5.5 5.5 0 1 0 0 11h16.5z"/><path d="M441.445 159.933l-31-21a5.49 5.49 0 0 0-4.163-.839l-6.81 1.362-13.904-16.512a5.5 5.5 0 0 0-6.108-1.618l-55.349 20.392-9.302-2.537a5.502 5.502 0 0 0-3.807.338l-38.292 18.188-7.155-1.59a5.505 5.505 0 0 0-3.354.312l-44.01 18.81a749.201 749.201 0 0 0-98.14 6.762l-50.985-20.865a5.502 5.502 0 0 0-4.318.065l-11.05 4.915-45.63-24.083a5.5 5.5 0 1 0-5.135 9.729l47.99 25.33a5.5 5.5 0 0 0 4.803.161l11.345-5.046L98.8 185.192a745.75 745.75 0 0 0-94.893 22.1 5.5 5.5 0 0 0 3.189 10.527 734.63 734.63 0 0 1 89.355-21.076l-29.336 20.204-10.328-7.732a5.5 5.5 0 0 0-6.949.291l-47.99 42.62a5.5 5.5 0 0 0 7.304 8.225l44.634-39.64 9.897 7.41a5.5 5.5 0 0 0 6.416.127l51.295-35.327a737.877 737.877 0 0 1 96.825-6.68l43.737 19.9a5.494 5.494 0 0 0 3.749.385l6.925-1.748 38.117 20.57c1.3.702 2.829.851 4.24.413l9.091-2.817 55.157 23.087a5.5 5.5 0 0 0 6.543-1.799l10.319-13.927c.842 2.367 1.163 4.848.811 7.446-1.891 13.992-28.587 30.868-71.414 45.144-.622.207-1.251.411-1.877.616.279-1.643.435-3.444.435-5.429 0-7.957-2.363-18.964-6.02-28.041-4.991-12.39-11.448-18.939-18.673-18.939-2.994 0-5.853 1.142-8.534 3.341-4.952-7.475-10.008-9.289-13.738-9.289-7.225 0-13.681 6.55-18.672 18.943-3.656 9.078-6.018 20.083-6.018 28.037 0 17.184 11.317 20.958 19.19 21.786v3.438c-23.528 4.941-46.586 8.062-65.397 8.632-38.312 1.163-83.303.953-128.176-9.096-.112-7.905-2.442-18.587-6.009-27.442-4.992-12.39-11.449-18.939-18.673-18.939s-13.681 6.549-18.673 18.939c-1.613 4.003-2.973 8.382-3.991 12.709-7.753-3.163-15.348-6.651-22.637-10.435a5.5 5.5 0 1 0-5.069 9.763c8.311 4.314 17.005 8.25 25.874 11.78a49.689 49.689 0 0 0-.198 4.225c0 17.184 11.319 20.957 19.193 21.786v21.357a5.5 5.5 0 1 0 11 0V319.28c5.969-.628 13.916-2.95 17.413-11.521 34.738 7.711 69.344 9.717 100.965 9.717 10.106 0 19.91-.204 29.313-.489 18.793-.569 41.663-3.603 65.063-8.406v6.702a5.5 5.5 0 1 0 11 0v-9.081a531.505 531.505 0 0 0 11.271-2.691v17.715a5.5 5.5 0 1 0 11 0v-20.602a465.308 465.308 0 0 0 24.113-7.291c34.168-11.39 75.582-30.021 78.836-54.106 1.728-12.792-5.168-24.152-20.519-33.938a735.005 735.005 0 0 1 46.914 12.533 5.503 5.503 0 0 0 6.859-3.669 5.5 5.5 0 0 0-3.669-6.858c-62.394-18.906-126.911-29.525-192.13-31.662l19.629-8.39 7.273 1.616a5.503 5.503 0 0 0 3.553-.401l38.159-18.126 9.034 2.464a5.507 5.507 0 0 0 3.349-.145l53.378-19.666 13.514 16.048a5.503 5.503 0 0 0 5.286 1.85l7.743-1.548 29.094 19.709a5.5 5.5 0 0 0 7.638-1.469 5.498 5.498 0 0 0-1.465-7.642zM53.336 308.512c-10.622 0-13.693-2.472-13.693-11.019 0-6.559 2.099-16.176 5.223-23.93 3.668-9.104 7.29-12.05 8.47-12.05s4.802 2.945 8.47 12.05c3.124 7.754 5.223 17.372 5.223 23.93 0 8.547-3.071 11.019-13.693 11.019zm246.026-66.411c1.18 0 4.802 2.945 8.47 12.05 3.124 7.754 5.223 17.372 5.223 23.931 0 8.547-3.071 11.019-13.693 11.019s-13.693-2.472-13.693-11.019c0-6.559 2.099-16.176 5.223-23.931 3.668-9.105 7.291-12.05 8.47-12.05zm-35.961 30.032c0-6.557 2.099-16.172 5.222-23.928 3.667-9.106 7.289-12.052 8.468-12.052.75 0 3.348 1.504 6.486 7.675a62.005 62.005 0 0 0-2.887 6.212c-3.657 9.077-6.02 20.084-6.02 28.041 0 1.831.139 3.496.378 5.035-8.971-.327-11.647-3.012-11.647-10.983zm52.313-79.76c2.592.436 23.464 4.082 43.572 11.596 10.812 4.041 22.693 9.674 30.187 16.802l-9.965 13.448-53.023-22.194a5.513 5.513 0 0 0-3.751-.18l-8.793 2.724-37.967-20.489a5.497 5.497 0 0 0-3.958-.492l-7.055 1.781-17.859-8.675a737.709 737.709 0 0 1 68.612 5.679z"/></svg>