<svg xmlns="http://www.w3.org/2000/svg" viewBox="0 0 459.782 459.782"><path d="M116.176 116.085a5 5 0 0 0 4.99 4.688h57.788a5 5 0 0 0 4.866-3.849 17.84 17.84 0 0 0 .491-4.104c0-9.813-7.984-17.797-17.797-17.797-2.17 0-4.283.388-6.269 1.141a20.467 20.467 0 0 0-14.831-6.391c-7.375 0-14.19 4.07-17.776 10.377-6.652 1.769-11.505 7.835-11.505 14.966 0 .287.016.568.035.849l.008.12zm15.136-6.447a4.998 4.998 0 0 0 4.377-3.192c1.541-3.992 5.449-6.674 9.725-6.674a10.45 10.45 0 0 1 9.071 5.293 5.001 5.001 0 0 0 7.356 1.529 7.717 7.717 0 0 1 4.673-1.572c3.591 0 6.623 2.44 7.524 5.75h-45.766a5.476 5.476 0 0 1 3.04-1.134zm167.891-9.87a5 5 0 0 0 4.99 4.689h70.682a5 5 0 0 0 4.866-3.85c.378-1.599.569-3.201.569-4.762 0-11.388-9.265-20.652-20.652-20.652-2.771 0-5.464.546-7.968 1.602-4.48-5.037-10.962-8.023-17.839-8.023-8.778 0-16.879 4.935-21.002 12.541-7.89 1.877-13.697 8.972-13.697 17.342 0 .322.019.639.04.956l.011.157zm17.335-8.927a5.002 5.002 0 0 0 4.378-3.192c2.049-5.31 7.247-8.877 12.936-8.877a13.9 13.9 0 0 1 12.065 7.041 5 5 0 0 0 7.356 1.528 10.541 10.541 0 0 1 6.385-2.147c5.403 0 9.88 4.044 10.563 9.264h-59.845a7.838 7.838 0 0 1 6.162-3.617zm138.538 182.328c-15.02-2.193-30.481-3.915-46.171-5.178l34.781-59.818v14.599a5.5 5.5 0 0 0 11 0v-35a5.5 5.5 0 0 0-7.855-4.97l-23.816 11.282 6.299-12.898c8.531-6.174 16.521-12.656 23.656-19.422a5.5 5.5 0 1 0-7.568-7.981c-14.949 14.176-34.109 27.188-54.218 38.663-19.412-8.016-29.989-17.175-39.359-25.294-3.145-2.725-6.114-5.298-9.285-7.737a5.5 5.5 0 0 0-6.342-.258c-13.321 8.62-40.44 14.68-49.043 16.448-23.231-21.843-40.901-41.24-53.461-55.031-3.739-4.111-9.901-6.358-16.923-6.152-7.134.205-13.402 2.807-16.769 6.962-16.654 20.569-45.848 46.213-73.38 68.525-7.908-1.555-34.319-7.666-58.385-23.71a5.5 5.5 0 0 0-7.474 1.307C44.416 189.619 5.21 220.119 4.816 220.425a5.5 5.5 0 1 0 6.738 8.694c.953-.738 14.292-11.117 28.738-24.239l1.721 4.761a5.5 5.5 0 0 0 8.472 2.53L64.18 201.9l12.266 4.089a5.497 5.497 0 0 0 6.606-2.657l6.949-13.208a189.057 189.057 0 0 0 25.639 8.58c-27.264 21.609-50.823 38.596-55.795 42.157-19.073 3.563-37.808 8.149-55.978 13.805a5.5 5.5 0 1 0 3.269 10.503c51.534-16.039 108.992-23.692 166.167-22.127 48.292 1.321 95.815 9.256 139.083 23.079-13.322.55-26.52 1.418-39.456 2.65-70.07 6.675-131.585 23.348-178.042 48.229a797.57 797.57 0 0 0-89.977 4.592 5.5 5.5 0 1 0 1.18 10.936c67.558-7.289 135.753-5.798 202.695 4.43 65.895 10.068 127.318 28.083 182.566 53.545a5.503 5.503 0 0 0 7.297-2.693 5.5 5.5 0 0 0-2.693-7.297c-56.183-25.893-118.597-44.205-185.508-54.429a793.558 793.558 0 0 0-91.697-8.583c101.18-45.696 241.188-47.11 334.735-33.448a5.5 5.5 0 1 0 1.59-10.884zM75.493 194.077l-10.568-3.523a5.498 5.498 0 0 0-5.039.818l-10.054 7.541-.799-2.21c6.344-6.129 12.468-12.518 17.409-18.59a161.016 161.016 0 0 0 13.524 7.464l-4.473 8.5zm331.03 8.707l-23.707 28.976-6.997-3.817a5.504 5.504 0 0 0-5.238-.016l-52.684 28.323a461.853 461.853 0 0 0-24.945-7.383c26.142-9.347 75.733-28.814 118.134-55.426l-4.563 9.343zm-144.811 38.873l-8.187-33.202a5.5 5.5 0 0 0-2.568-3.434l-10.327-6.024-8.791-22.971 29.51 24.706 24.734 27.703a5.505 5.505 0 0 0 5.55 1.643l6.86-1.871 3.172 5.641c-14.294 5.436-24.765 8.94-28.567 10.182a495.933 495.933 0 0 0-11.386-2.373zm77.014-71.217c1.937 1.593 3.879 3.276 5.896 5.023 2.799 2.425 5.701 4.938 8.885 7.488l-11.983 8.23-6.861-9.606a5.495 5.495 0 0 0-5.555-2.196l-8.377 1.675.019-3.007c6.411-2.179 12.735-4.727 17.976-7.607zm-29 11.011l-.041 6.286a5.502 5.502 0 0 0 6.579 5.429l11.513-2.302 7.933 11.106a5.495 5.495 0 0 0 7.589 1.337l19.578-13.446c4.642 3.117 9.942 6.226 16.223 9.242-13.962 7.441-28.064 14.129-41.257 19.935a708.092 708.092 0 0 1-40.828-34.326c3.677-.857 8.057-1.95 12.711-3.261zm16.604 42.533a774.992 774.992 0 0 1-14.307 5.841l-6.043-10.749a5.494 5.494 0 0 0-6.241-2.611l-7.717 2.104-21.549-24.135-2.258-21.756c16.175 15.843 35.483 33.385 58.115 51.306zm-117.78-95.68c1.09-1.346 4.372-2.771 8.536-2.89 3.68-.115 6.939.875 8.474 2.561 8.01 8.795 18.076 19.847 30.315 32.354l2.44 23.518-32.598-27.292a5.5 5.5 0 0 0-7.42.328l-12.388 12.388-1.716-3.775a5.498 5.498 0 0 0-8.058-2.301l-21.272 14.181 4.49-18.446c11.341-10.657 21.49-21.108 29.197-30.626zm-58.282 103.554a549.04 549.04 0 0 0-24.918.954l44.186-38.663 27.319-18.212 1.238 2.723-9.307 18.613h-8.601a5.499 5.499 0 0 0-4.32 2.096l-25.597 32.489zm14.542-59.695l-3.557 14.617-54.243 47.463a536.617 536.617 0 0 0-23.121 2.708c19.896-14.743 52.316-39.512 80.921-64.788zm-.495 59.64l18.539-23.531h9.332a5.498 5.498 0 0 0 4.919-3.041l11.601-23.201 9.874-9.874 12.469 32.581a5.499 5.499 0 0 0 2.365 2.785l9.989 5.827 6.442 26.125c-28.006-4.823-56.732-7.385-85.53-7.671zm179.004 33.643a428.565 428.565 0 0 0-11.297-4.299l41.146-22.12 8.385 4.574a5.501 5.501 0 0 0 6.891-1.346l26.216-32.042 20.862-9.883-38.828 66.778a803.45 803.45 0 0 0-53.375-1.662z"/></svg>