<svg xmlns="http://www.w3.org/2000/svg" viewBox="0 0 460.027 460.027"><path d="M455.42 322.493c-28.138-4.634-56.386-6.98-84.611-7.049a669.29 669.29 0 0 0-43.128-24.753l8.559-15.711a5.5 5.5 0 0 0-9.66-5.263l-8.611 15.807c-.023.042-.039.085-.061.127a659.625 659.625 0 0 0-20.65-9.986l.374-.686a5.5 5.5 0 1 0-9.66-5.262l-.77 1.413a651.793 651.793 0 0 0-53.363-20.792l6.19-11.363a5.5 5.5 0 1 0-9.66-5.262l-7.146 13.117a644.474 644.474 0 0 0-22.406-6.747l.604-1.108a5.5 5.5 0 1 0-9.66-5.262l-1.842 3.382a634.344 634.344 0 0 0-54.058-11.719 348.964 348.964 0 0 1 70.324-18.138l-3.42 6.278a5.499 5.499 0 0 0 4.825 8.132 5.496 5.496 0 0 0 4.834-2.87l7.238-13.286a350.189 350.189 0 0 1 27.129-1.923l-5.419 9.946a5.5 5.5 0 1 0 9.66 5.262l8.385-15.39a347.19 347.19 0 0 1 25.507 1.054l-4.943 9.074a5.5 5.5 0 1 0 9.66 5.262l7.194-13.207a349.645 349.645 0 0 1 24.128 3.587l-2.374 4.357a5.5 5.5 0 1 0 9.66 5.262l4.004-7.35a353.077 353.077 0 0 1 24.498 6.274 5.486 5.486 0 0 0 2.645 3.276 5.478 5.478 0 0 0 6.11-.578c30.126 9.728 58.924 23.485 85.359 40.915a5.497 5.497 0 0 0 7.619-1.564 5.501 5.501 0 0 0-1.564-7.62c-26.571-17.52-55.457-31.437-85.668-41.421l4.216-7.74a5.5 5.5 0 1 0-9.66-5.262l-5.255 9.647a364.526 364.526 0 0 0-23.112-6.045 5.5 5.5 0 0 0-10.241-3.603l-.707 1.297a360.732 360.732 0 0 0-33.64-4.918c-25.645-2.513-51.477-2.225-76.974.766-.242.015-.484.04-.721.086-27.959 3.337-55.507 9.934-81.957 19.69a5.5 5.5 0 0 0-9.919-4.713l-6.786 12.456a618.42 618.42 0 0 0-24.495-2.909l4.6-8.444a5.499 5.499 0 1 0-9.659-5.261l-6.889 12.646a608.552 608.552 0 0 0-25.285-1.467L59.091 209a5.5 5.5 0 0 0-9.659-5.262l-7.008 12.865a603.471 603.471 0 0 0-26.16.126l3.998-7.337a5.5 5.5 0 1 0-9.659-5.263l-7.336 13.464a5.499 5.499 0 0 0-3.261 5.27c.137 3.035 2.707 5.373 5.742 5.247 59.559-2.684 119.658 3.692 178.749 18.939l-1.346 2.47a5.499 5.499 0 0 0 4.825 8.132 5.499 5.499 0 0 0 4.835-2.87l2.61-4.791a636.474 636.474 0 0 1 55.299 18.094 5.478 5.478 0 0 0-1.356 1.632l-3.632 6.667a5.5 5.5 0 1 0 9.66 5.262l3.632-6.667a5.47 5.47 0 0 0 .603-3.447 645.5 645.5 0 0 1 24.92 10.463 5.462 5.462 0 0 0 1.993 1.85 5.478 5.478 0 0 0 2.626.671c.275 0 .548-.026.818-.067a652.753 652.753 0 0 1 60.204 31.355c-33.831 1.249-67.582 5.77-101.026 13.569-67.093 15.648-129.657 43.663-185.952 83.265a5.5 5.5 0 0 0 6.329 8.997c55.135-38.787 116.41-66.224 182.122-81.549 66.705-15.558 134.657-17.825 201.973-6.74a5.5 5.5 0 1 0 1.786-10.852zM38.037 141.216h6.843l-3.657 6.713a5.5 5.5 0 0 0 9.658 5.262l6.525-11.976H83.49l-3.443 6.321a5.5 5.5 0 0 0 9.66 5.262l6.31-11.583h26.084l-4.543 8.34a5.499 5.499 0 1 0 9.659 5.261l7.41-13.602h26.083l-6.81 12.501a5.5 5.5 0 0 0 9.658 5.262l8.611-15.807c.341-.626.543-1.29.625-1.957h3.739a5.5 5.5 0 0 0 5.487-5.125c.504-7.376-1.894-14.51-6.751-20.088-4.861-5.582-11.6-8.934-18.976-9.438a28.102 28.102 0 0 0-3.915.006c-2.389-15.175-15.101-27.344-30.971-28.428-10.376-.706-20.269 3.348-27.111 10.828-5.224-4.042-11.523-6.451-18.261-6.911-8.977-.609-17.651 2.306-24.431 8.218-6.78 5.913-10.851 14.111-11.464 23.086a33.775 33.775 0 0 0-.038 3.911 30.35 30.35 0 0 0-7.554 18.066 5.498 5.498 0 0 0 1.468 4.129 5.496 5.496 0 0 0 4.021 1.749zm11.541-17.931a5.501 5.501 0 0 0 1.676-4.699 22.875 22.875 0 0 1-.137-4.473 22.526 22.526 0 0 1 7.72-15.545c4.565-3.982 10.405-5.95 16.451-5.534a22.486 22.486 0 0 1 12.938 5.202c-4.198 10.783 2.756 21.767 3.094 22.288a5.47 5.47 0 0 0 4.605 2.504 5.494 5.494 0 0 0 2.967-.871c2.549-1.63 3.295-5.026 1.679-7.584-.048-.075-4.286-6.901-2.011-12.524.236-.584 1.903-3.219 2.316-3.779a22.584 22.584 0 0 1 19.785-9.153c12.264.838 21.727 11.507 21.095 23.783a5.5 5.5 0 0 0 7.271 5.487 16.558 16.558 0 0 1 6.52-.849 16.553 16.553 0 0 1 11.43 5.687 16.66 16.66 0 0 1 3.637 6.99H44.862a19.5 19.5 0 0 1 4.716-6.93zm197.827 8.283l-5.414 9.938a5.5 5.5 0 1 0 9.66 5.262l7.383-13.553h26.081l-4.516 8.29a5.5 5.5 0 1 0 9.66 5.262l7.383-13.553h26.08l-4.516 8.29a5.5 5.5 0 1 0 9.66 5.262l7.383-13.553h26.081l-4.516 8.29a5.5 5.5 0 1 0 9.66 5.262l7.383-13.553h26.08l-4.516 8.29a5.5 5.5 0 1 0 9.66 5.262l8.611-15.807c.433-.795.645-1.65.665-2.497 4.121-3.567 6.743-8.822 6.743-14.687 0-8.65-5.68-15.999-13.505-18.512a41.398 41.398 0 0 0 1.687-11.66c0-22.747-18.507-41.253-41.254-41.253a40.982 40.982 0 0 0-18.851 4.557c-4.781-5.917-12.07-9.52-19.838-9.52-8.942 0-16.951 4.552-21.532 11.808-5.663-2.819-11.892-4.287-18.319-4.287-22.747 0-41.254 18.506-41.254 41.254 0 3 .317 5.952.947 8.834-8.291 2.22-14.413 9.798-14.413 18.779.002 7.947 4.796 14.782 11.637 17.795zm7.803-26.228c.418 0 .881.043 1.415.133a5.5 5.5 0 0 0 5.979-7.562 30.047 30.047 0 0 1-2.365-11.746c0-16.682 13.572-30.254 30.254-30.254 4.743 0 9.34 1.091 13.512 3.184 1.391.698 4.086 2.469 4.094 2.475.023.016.862.619 1.922 1.711 1.866 1.922 4.419 5.357 4.419 9.768a5.5 5.5 0 0 0 11 0c0-8.149-4.352-14.142-7.61-17.489 2.551-4.389 7.245-7.171 12.515-7.171 5.577 0 10.723 3.276 13.108 8.347a5.502 5.502 0 0 0 8.15 2.15 30.043 30.043 0 0 1 17.43-5.534c16.682 0 30.254 13.572 30.254 30.253 0 4.871-1.13 9.53-3.359 13.849a5.502 5.502 0 0 0 5.616 7.974 8.473 8.473 0 0 1 1.125-.089c4.652 0 8.438 3.785 8.438 8.438 0 4.653-3.785 8.438-8.438 8.438H255.208c-4.652 0-8.438-3.785-8.438-8.438 0-4.652 3.785-8.437 8.438-8.437z"/><path d="M319.216 116.962a5.5 5.5 0 0 0 5.5-5.5c0-4.859 3.953-8.813 8.813-8.813a8.766 8.766 0 0 1 7.911 4.924 5.501 5.501 0 0 0 9.867-4.863 20.01 20.01 0 0 0-3.278-4.761 11.442 11.442 0 0 1 8.311-3.573 11.37 11.37 0 0 1 8.096 3.354 5.5 5.5 0 1 0 7.779-7.777 22.301 22.301 0 0 0-15.875-6.577 22.427 22.427 0 0 0-17.889 8.895 20.033 20.033 0 0 0-4.923-.622c-10.925 0-19.813 8.888-19.813 19.813a5.5 5.5 0 0 0 5.501 5.5zm73.666 42.543a5.5 5.5 0 0 0-7.461 2.198l-8.611 15.807a5.5 5.5 0 1 0 9.66 5.262l8.611-15.807a5.5 5.5 0 0 0-2.199-7.46zm-46.689 74.207l-8.611 15.807a5.5 5.5 0 1 0 9.66 5.262l8.611-15.807a5.5 5.5 0 1 0-9.66-5.262zm-38.607 0l-8.611 15.807a5.5 5.5 0 1 0 9.66 5.262l8.611-15.807a5.5 5.5 0 1 0-9.66-5.262zm46.688-74.207a5.5 5.5 0 0 0-7.461 2.198l-8.611 15.807a5.5 5.5 0 1 0 9.66 5.262l8.611-15.807a5.498 5.498 0 0 0-2.199-7.46zm-38.608 0a5.5 5.5 0 0 0-7.461 2.198l-8.611 15.807a5.5 5.5 0 1 0 9.66 5.262l8.611-15.807a5.5 5.5 0 0 0-2.199-7.46zm-46.689 74.207l-8.611 15.807a5.5 5.5 0 1 0 9.66 5.262l8.611-15.807a5.5 5.5 0 1 0-9.66-5.262zm-57.028 50.804a5.496 5.496 0 0 0 4.834-2.87l3.632-6.667a5.5 5.5 0 1 0-9.659-5.263l-3.632 6.667a5.5 5.5 0 0 0 4.825 8.133zm57.647-122.812l-8.61 15.807a5.5 5.5 0 1 0 9.66 5.262l8.61-15.807a5.5 5.5 0 1 0-9.66-5.262zM173.34 284.516a5.496 5.496 0 0 0 4.834-2.87l3.632-6.667a5.5 5.5 0 1 0-9.659-5.263l-3.632 6.667a5.5 5.5 0 0 0 4.825 8.133zm51.237-99.544a5.499 5.499 0 0 0 7.461-2.199l8.61-15.807a5.5 5.5 0 1 0-9.66-5.262l-8.61 15.807a5.5 5.5 0 0 0 2.199 7.461zm-81.68-11.058l-8.611 15.806a5.5 5.5 0 1 0 9.658 5.262l8.611-15.806a5.5 5.5 0 1 0-9.658-5.262zm-36.342-4.161l-8.611 15.807a5.5 5.5 0 1 0 9.66 5.261l8.61-15.807a5.5 5.5 0 1 0-9.659-5.261zm-37.51-2.02l-8.61 15.807a5.5 5.5 0 0 0 9.659 5.262l8.61-15.807a5.5 5.5 0 0 0-9.659-5.262zm-45.24 23.66a5.496 5.496 0 0 0 7.46-2.199l8.612-15.806a5.5 5.5 0 1 0-9.659-5.263l-8.612 15.806a5.502 5.502 0 0 0 2.199 7.462z"/></svg>