<svg xmlns="http://www.w3.org/2000/svg" viewBox="0 0 430.344 430.344"><path d="M119.889 233.546c0-11.498-3.432-27.447-8.744-40.631-4.86-12.065-13.186-26.446-25.249-26.446-5.195 0-9.695 2.671-13.525 6.672-5.133-10.548-12.539-20.174-22.472-20.174-12.064 0-20.39 14.382-25.249 26.447-5.31 13.183-8.741 29.133-8.741 40.634 0 25.203 17.402 29.245 28.488 29.894v34.151a5.5 5.5 0 1 0 11 0v-34.148c5.649 10.766 16.973 13.029 24.998 13.498v34.149a5.5 5.5 0 1 0 11 0v-34.148c11.089-.65 28.494-4.692 28.494-29.898zM26.91 220.047c0-10.049 3.192-24.727 7.944-36.524 5.813-14.435 11.738-19.556 15.045-19.556 3.671 0 9.645 6.114 15.079 19.67-1.665 3.062-3.108 6.243-4.33 9.278-5.312 13.184-8.744 29.133-8.744 40.631 0 1.956.11 3.779.308 5.489-.742.021-1.511.032-2.313.032-17.188-.001-22.989-4.8-22.989-19.02zm59.061 32.52c-.025 0-.049-.004-.074-.004s-.049.003-.074.004c-17.132-.014-22.918-4.82-22.918-19.021 0-10.046 3.193-24.722 7.947-36.521 5.815-14.435 11.739-19.557 15.045-19.557s9.23 5.122 15.045 19.557c4.753 11.799 7.947 26.475 7.947 36.521 0 14.201-5.786 19.007-22.918 19.021z"/><path d="M425.004 118.901a164.627 164.627 0 0 0-17.308.427v-7.686c6.106-1.256 11.627-5.118 11.627-14.985 0-8.435-5.267-30.627-17.127-30.627S385.07 88.222 385.07 96.657c0 9.867 5.521 13.729 11.626 14.985v8.891c-17.97 2.562-35.997 8.026-53.985 16.395l-34.779-5.509c-1.038-.414-1.989-.762-2.664-1.021-39.424-15.101-80.676-25.272-122.671-30.283-3.296-13.396-10.331-28.206-20.953-28.206-9.773 0-16.508 12.538-20.09 24.977a515.708 515.708 0 0 0-30.179-.27v-4.155c6.106-1.256 11.627-5.118 11.627-14.985 0-8.435-5.266-30.627-17.126-30.627S88.748 69.041 88.748 77.476c0 9.866 5.521 13.729 11.626 14.985v4.48c-9.01.371-18.005.981-26.976 1.825v-3.622c6.106-1.256 11.626-5.119 11.626-14.985 0-8.435-5.266-30.627-17.126-30.627S50.772 71.724 50.772 80.159c0 9.867 5.521 13.729 11.626 14.985v4.785a510.964 510.964 0 0 0-54.042 9.201 5.5 5.5 0 0 0 2.428 10.729c42.05-9.521 85.208-13.563 128.386-12.057-.428 2.895-.648 5.534-.648 7.689 0 15.875 10.267 19.551 17.62 20.404v19.203a5.5 5.5 0 1 0 11 0v-19.203c7.353-.853 17.621-4.528 17.621-20.404 0-1.215-.069-2.582-.205-4.062a502.523 502.523 0 0 1 93.997 21.154c-21.388 2.483-47.797 7.408-72.651 14.965-30.424 9.25-69.055 25.797-80.319 52.092-3.712 8.666-3.549 16.374.483 22.91 12.076 19.576 56.489 22.271 103.51 25.125 34.977 2.123 74.619 4.529 84.071 15.325 1.371 1.566 1.919 3.148 1.776 5.13-.849 11.761-38.901 21.727-55.224 25.466-34.25 7.846-78.637 13.915-121.563 19.784-78.14 10.684-126.582 17.914-137.42 31.353a5.5 5.5 0 1 0 8.563 6.905c2.032-2.519 10.354-7.698 43.259-14.08 24-4.654 54.645-8.844 87.088-13.28 111.201-15.204 184.242-27.271 186.267-55.358.356-4.941-1.147-9.371-4.471-13.166-12.478-14.252-49.182-16.479-91.681-19.059-40.188-2.439-85.736-5.203-94.815-19.92-2.072-3.359-1.985-7.547.267-12.804 7.597-17.736 32.981-33.607 73.408-45.899 34.332-10.438 71.613-15.715 93.587-16.345l7.159 1.134c-16.974 2.469-36.649 5.958-55.962 10.47-38.253 8.936-64.234 19.26-77.221 30.685-2.941 2.587-10.754 9.459-7.783 16.624 3.963 9.56 21.42 8.822 64.057 6.063 55.177-3.571 138.563-8.968 166.881 25.061 10.263 12.333 14.535 24.782 13.062 38.058-3.722 33.54-43.116 63.846-69.184 83.901-16.302 12.541-22.947 17.857-23.702 23.55a5.5 5.5 0 0 0 10.836 1.844c1.452-2.735 11.07-10.135 19.572-16.676 27.545-21.191 69.172-53.215 73.409-91.406 1.796-16.178-3.433-31.758-15.539-46.307-31.898-38.332-115.214-32.94-176.047-29.002-20.318 1.315-45.22 2.927-52.28.646.646-.865 1.829-2.202 3.982-4.096 21.342-18.774 84.632-32.284 128.776-38.685a286.05 286.05 0 0 0-7.453 4.983 5.5 5.5 0 0 0 6.256 9.049c37.777-26.117 75.867-38.801 113.173-37.725a5.5 5.5 0 0 0 5.658-5.338 5.498 5.498 0 0 0-5.336-5.659zm-22.808-41.516c2.41 2.473 6.127 12.274 6.127 19.272 0 3.187 0 4.506-6.127 4.506-3.186 0-4.537-.469-5.111-.862-.839-.575-1.015-2.299-1.015-3.645 0-6.996 3.717-16.798 6.126-19.271zm-334.298 7.28c-3.186 0-4.538-.469-5.111-.862-.839-.575-1.015-2.3-1.015-3.645 0-6.997 3.717-16.798 6.126-19.272 2.41 2.474 6.126 12.275 6.126 19.272 0 3.188 0 4.507-6.126 4.507zm37.977-2.682c-3.186 0-4.538-.469-5.111-.862-.839-.575-1.015-2.3-1.015-3.645 0-6.997 3.717-16.798 6.126-19.272 2.409 2.474 6.126 12.275 6.126 19.272 0 3.188 0 4.507-6.126 4.507zm55.809 43.172l-.041-.002-.041.002c-9.48-.006-12.079-2.089-12.079-9.664 0-5.876 1.958-14.841 4.763-21.801 3.313-8.225 6.553-10.78 7.358-10.78s4.044 2.555 7.358 10.78c2.804 6.96 4.763 15.925 4.763 21.801-.001 7.576-2.601 9.658-12.081 9.664z"/></svg>