<svg xmlns="http://www.w3.org/2000/svg" viewBox="0 0 454.519 454.519"><path d="M37.13 75.083a5.5 5.5 0 0 0 5.353 4.235h90.548a5.5 5.5 0 0 0 5.49-5.163l.014-.208c.026-.384.048-.767.048-1.157 0-10.437-7.339-19.262-17.246-21.425-4.516-8.617-13.112-14.539-22.759-15.721C96.317 20.761 83.435 9.319 67.931 9.319c-17.093 0-31 13.907-31 31 0 5.229 1.3 10.255 3.756 14.765a25.4 25.4 0 0 0-4.262 14.108c0 1.929.237 3.912.705 5.891zm75.322-16.717a5.502 5.502 0 0 0 4.816 3.512 10.953 10.953 0 0 1 9.357 6.441H47.451c.452-7.619 6.794-13.679 14.525-13.679 3.158 0 6.175 1.014 8.725 2.933a5.498 5.498 0 0 0 8.091-1.681c3.315-5.846 9.54-9.478 16.244-9.478 7.659 0 14.658 4.803 17.416 11.952zM67.931 20.319c9.684 0 17.778 6.92 19.608 16.073a29.79 29.79 0 0 0-15.11 9.49 25.269 25.269 0 0 0-10.453-2.242c-4.682 0-9.07 1.272-12.848 3.479a19.938 19.938 0 0 1-1.198-6.801c.001-11.027 8.973-19.999 20.001-19.999zM78.43 329.318h-3.999V289.82a5.501 5.501 0 0 0-10.006-3.154l-20.999 29.999a5.5 5.5 0 0 0 4.505 8.654H63.43v3.999h-5.5a5.5 5.5 0 1 0 0 11h20.5a5.5 5.5 0 1 0 0-11zm-14.999-14.999h-4.936l4.936-7.051v7.051zm32.442-100.586a5.503 5.503 0 0 0-7.31-2.659c-4.239 1.977-8.988 2.186-13.374.584a5.5 5.5 0 1 0-3.771 10.333 28.455 28.455 0 0 0 9.768 1.739c4.104 0 8.195-.899 12.028-2.688a5.5 5.5 0 0 0 2.659-7.309zm89.304 39.614c4.104 0 8.194-.899 12.027-2.688a5.5 5.5 0 0 0-4.651-9.969 17.352 17.352 0 0 1-13.374.584 5.5 5.5 0 0 0-3.771 10.333 28.434 28.434 0 0 0 9.769 1.74zm80.235-18.683a28.457 28.457 0 0 0 9.769 1.739c4.104 0 8.194-.899 12.027-2.688a5.5 5.5 0 0 0-4.651-9.969 17.352 17.352 0 0 1-13.374.584 5.501 5.501 0 0 0-3.771 10.334zm-38.165 45.656a5.5 5.5 0 0 0-3.771 10.333 28.432 28.432 0 0 0 9.768 1.739c4.104 0 8.195-.9 12.028-2.688a5.5 5.5 0 0 0-4.653-9.968 17.342 17.342 0 0 1-13.372.584zm-114.771 16.333a28.433 28.433 0 0 0 9.769 1.739c4.104 0 8.195-.9 12.028-2.688a5.501 5.501 0 0 0-4.651-9.969 17.339 17.339 0 0 1-13.374.584 5.5 5.5 0 0 0-3.772 10.334zm-68.002-94.047a28.455 28.455 0 0 0 9.768 1.739c4.104 0 8.195-.899 12.028-2.688a5.5 5.5 0 0 0-4.651-9.969c-4.24 1.977-8.988 2.186-13.374.584a5.5 5.5 0 0 0-3.771 10.334zm212.083 1.141a17.347 17.347 0 0 1-13.374.584 5.5 5.5 0 0 0-3.772 10.333 28.457 28.457 0 0 0 9.769 1.739c4.104 0 8.194-.899 12.027-2.688a5.5 5.5 0 0 0-4.65-9.968zM109.181 373.403c4.104 0 8.194-.899 12.027-2.688a5.5 5.5 0 0 0-4.651-9.969 17.348 17.348 0 0 1-13.374.584 5.5 5.5 0 1 0-3.771 10.333 28.434 28.434 0 0 0 9.769 1.74zM438.009 328c-9.553-4.805-18.34-.758-23.245 3.323a34.318 34.318 0 0 0-6.768-1.038c-7.796-.379-14.064 2.303-18.101 7.75a5 5 0 1 0 8.035 5.953c1.889-2.55 4.714-3.497 7.487-3.696-2.284 3.143-4.627 7.382-5.417 12.307a4.999 4.999 0 0 0 4.943 5.793 5.001 5.001 0 0 0 4.931-4.209c.476-2.964 1.935-5.655 3.418-7.742a86.247 86.247 0 0 1-1.192 37.36 32.81 32.81 0 0 0-7.829 2.519 5.502 5.502 0 1 0 2.329 10.486c.778 0 1.569-.167 2.321-.517 5.236-2.443 11.104-2.699 16.522-.721a5.504 5.504 0 0 0 7.053-3.28 5.501 5.501 0 0 0-3.281-7.053 32.725 32.725 0 0 0-6.776-1.679 96.248 96.248 0 0 0 1.22-35.819c1.98 1.594 3.665 3.263 4.49 4.779a4.996 4.996 0 0 0 6.781 2.002 5 5 0 0 0 2.002-6.782c-2.388-4.387-7.413-8.379-11.656-11.186 2.295-.877 5.156-1.167 8.24.383a4.999 4.999 0 0 0 6.713-2.22 4.998 4.998 0 0 0-2.22-6.713zm-58.386 35.09c.857-.051 1.776-.06 2.762-.013a5.498 5.498 0 0 0 5.756-5.232 5.499 5.499 0 0 0-5.232-5.755c-6.788-.326-11.783 1.209-15.047 2.776-4.304-4.77-13.56-11.942-28.747-8.988a5.5 5.5 0 0 0 2.099 10.798c5.303-1.031 9.453-.208 12.566 1.213-4.567 1.397-9.605 3.783-13.573 7.856a5.499 5.499 0 0 0 3.94 9.338 5.483 5.483 0 0 0 3.939-1.662c2.032-2.086 4.635-3.5 7.223-4.464a141.289 141.289 0 0 0-15.445 63.097 32.747 32.747 0 0 0-8.661 2.66 5.5 5.5 0 0 0 4.65 9.969c5.236-2.444 11.104-2.7 16.521-.722a5.5 5.5 0 0 0 3.772-10.333 32.915 32.915 0 0 0-5.284-1.437 130.288 130.288 0 0 1 14.308-58.356c.39 3.188.562 7.215.031 11.811a5.499 5.499 0 0 0 5.471 6.131 5.5 5.5 0 0 0 5.457-4.87c.508-4.399.49-8.394.222-11.829a32.827 32.827 0 0 1 6.337 10.394 5.503 5.503 0 0 0 7.097 3.184 5.5 5.5 0 0 0 3.185-7.097c-3.278-8.607-8.496-14.524-13.347-18.469zm-66.062 31.395l-36-11a5.496 5.496 0 0 0-4.779.767l-17 12a5.5 5.5 0 0 0 1.474 9.725l37 12a5.505 5.505 0 0 0 5.165-.963l16-13a5.502 5.502 0 0 0-1.86-9.529zm-18.755 12.106l-23.705-7.688 5.822-4.11 23.548 7.195-5.665 4.603z"/><path d="M371.361 172.8c-3.576-2.003-7.55-3.894-11.955-5.679l2.931-13.548 10.24-3.393a5.497 5.497 0 0 0 3.458-3.394l4.519-12.828a5.5 5.5 0 0 0-10.375-3.655l-3.622 10.283-10.66 3.532a5.5 5.5 0 0 0-3.646 4.058l-3.281 15.163c-6.031-1.961-12.682-3.79-20.013-5.503a176.13 176.13 0 0 0-4.279-.86l-.835-19.176 12.234-11.13 4.863 7.165a5.494 5.494 0 0 0 7.64 1.462 5.5 5.5 0 0 0 1.462-7.64l-7.904-11.645-5.241-19.506 39.035-13.514 1.061 27.688a5.498 5.498 0 0 0 5.054 5.271l28.358 2.289 10.959 8.078-.69 34.158a5.5 5.5 0 0 0 5.388 5.61l.113.001a5.5 5.5 0 0 0 5.497-5.389l.748-37.006a5.504 5.504 0 0 0-2.235-4.539l-13.187-9.72-9.653-26.12 41.253-8.866a5.5 5.5 0 0 0-2.295-10.758l-46.338 9.95-17.706-3.66a5.508 5.508 0 0 0-2.913.189l-25.073 8.68-5.542-15.156a5.497 5.497 0 0 0-3.927-3.47l-7.598-1.755-5.909-24.062a5.498 5.498 0 0 0-4.558-4.132 5.504 5.504 0 0 0-5.538 2.679l-13.334 22.929-7.744 3.835a5.502 5.502 0 0 0-2.883 3.55l-4.875 18.824-4.104-.578a5.508 5.508 0 0 0-1.591.008l-15.125 2.289a5.5 5.5 0 0 0-4.671 5.178l-1.134 24.009-8.36 2.354a5.498 5.498 0 0 0-4.008 5.37l.374 27.13c-78.964-6.565-160.406-2.415-248.606 3.388a5.5 5.5 0 0 0-5.127 5.849 5.508 5.508 0 0 0 5.849 5.127c114.834-7.555 218.102-12.321 318.859 5.93 33.993 7.746 52.702 17.759 58.88 31.511 4.972 11.067 2.223 25.853-8.404 45.2-48.76 88.765-270.748 161.845-272.985 162.573a5.5 5.5 0 0 0 3.403 10.461c.568-.185 57.489-18.81 119.817-48.442 68.441-32.539 116.663-65.111 143.874-97.122-1.959 4.647-5.442 9.616-11.998 15.357-6.983 6.115-8.967 13.415-10.716 19.856-2.325 8.563-4.006 14.749-16.112 19.107-1.822.656-3.766 1.344-5.808 2.067-27.868 9.867-69.981 24.778-82.052 52.941-4.232 9.875-20.971 20.698-47.133 30.474-20.851 7.791-40.572 12.284-40.769 12.328a5.5 5.5 0 0 0 2.423 10.73c.829-.188 20.547-4.675 42.084-12.712 29.912-11.163 47.914-23.438 53.505-36.486 10.172-23.735 51.136-38.239 75.611-46.905 2.062-.73 4.023-1.424 5.863-2.087 17.494-6.298 20.548-17.54 23.001-26.573 1.536-5.654 2.862-10.537 7.347-14.464 16.326-14.296 17.552-26.248 18.536-35.852.438-4.271.816-7.961 2.504-11.351.017-.034 1.444-2.774 2.097-4.091 9.938-20.027 11.891-36.272 5.943-49.512-.213-.474-.45-.937-.682-1.402 4.373 2.162 8.991 4.632 13.594 7.406 17.116 10.312 37.423 26.932 36.965 47.542a5.501 5.501 0 0 0 5.377 5.621l.124.001a5.501 5.501 0 0 0 5.497-5.378c1.041-46.819-74.644-73.316-83.146-76.142zm24.518-88.77l8.383 22.68-16.465-1.329-.888-23.206 8.97 1.855zm-72.018-33.773l3.468 14.12a5.498 5.498 0 0 0 4.103 4.047l7.99 1.846 4.453 12.179-15.011 4.785-10.958-26.736 5.955-10.241zm-16.604 18.202l1.673-.829 7.272 17.82-12.876-1.814 3.931-15.177zm6.328 86.636c-16.202-2.62-32.465-4.679-48.826-6.254l-.331-24.045 6.433-1.812 14.192 5-.515 10.896a5.499 5.499 0 0 0 5.498 5.759 5.5 5.5 0 0 0 5.49-5.24l.708-14.983a5.501 5.501 0 0 0-3.667-5.447l-15.834-5.578.915-19.377 5.409-.819 2.221 11.942a5.502 5.502 0 0 0 6.413 4.401 5.5 5.5 0 0 0 4.401-6.413l-1.795-9.651 31.589 4.451 4.998 18.599-16.35 14.874a5.506 5.506 0 0 0-1.794 4.307l.845 19.39z"/></svg>