<svg xmlns="http://www.w3.org/2000/svg" viewBox="0 0 467.771 467.771"><path d="M149.803 99.635c17.645 0 32-14.355 32-32s-14.355-32-32-32-32 14.355-32 32 14.355 32 32 32zm0-53c11.58 0 21 9.42 21 21s-9.42 21-21 21-21-9.42-21-21 9.42-21 21-21zm-5.502 63.144v30.66a5.5 5.5 0 1 0 11 0v-30.66a5.5 5.5 0 1 0-11 0zm5.5-78.78a5.5 5.5 0 0 0 5.5-5.5V8.439a5.5 5.5 0 1 0-11 0v17.06a5.5 5.5 0 0 0 5.5 5.5zm-33.687 62.548l-9.903 9.903a5.5 5.5 0 1 0 7.778 7.778l9.903-9.903a5.5 5.5 0 1 0-7.778-7.778zm63.484-50.206a5.484 5.484 0 0 0 3.889-1.611l28.753-28.752a5.5 5.5 0 1 0-7.778-7.778l-28.753 28.752a5.5 5.5 0 0 0 3.889 9.389zM81.701 73.138h25.96a5.5 5.5 0 1 0 0-11h-25.96a5.5 5.5 0 1 0 0 11zm110.24-11a5.5 5.5 0 1 0 0 11h20.26a5.5 5.5 0 1 0 0-11h-20.26zM116.114 41.73c1.074 1.074 2.481 1.611 3.889 1.611s2.815-.537 3.889-1.611a5.5 5.5 0 0 0 0-7.778l-8.854-8.854a5.5 5.5 0 1 0-7.778 7.778l8.854 8.854zm59.595 51.817a5.5 5.5 0 0 0 0 7.778l37.024 37.024c1.074 1.074 2.481 1.611 3.889 1.611s2.815-.537 3.889-1.611a5.5 5.5 0 0 0 0-7.778l-37.024-37.024a5.5 5.5 0 0 0-7.778 0z"/><path d="M463.467 290.793a532.595 532.595 0 0 0-92.893-12.25V218.58l29.292-24.785a5.5 5.5 0 1 0-7.105-8.397l-22.186 18.773v-21.568l20.303-16.496 16.993 4.147a5.503 5.503 0 0 0 6.648-4.039 5.5 5.5 0 0 0-4.039-6.647l-8.885-2.168 5.181-4.21c6.757-1.042 12.708-4.646 16.761-10.155 4.063-5.522 5.732-12.297 4.7-19.075a4.999 4.999 0 0 0-5.695-4.191c-6.778 1.032-12.749 4.642-16.812 10.164-3.062 4.161-4.762 9.033-4.974 14.082-.24.141-.48.281-.702.462l-29.479 23.952v-8.743l14.495-28.266a5.501 5.501 0 0 0-9.788-5.02l-11.598 22.617-10.959-11.313 6.539-14.307a5.5 5.5 0 1 0-10.005-4.573l-4.752 10.397L332.6 116.93c1.359-12.678-6.921-24.717-19.647-27.706a5.001 5.001 0 0 0-6.011 3.724c-1.568 6.674-.443 13.56 3.168 19.388 3.098 5 7.711 8.704 13.173 10.646.177.262.368.519.596.754l35.697 36.848v18.093l-23.667-17.531a5.5 5.5 0 1 0-6.547 8.839l30.214 22.381v85.816c-1.406-.032-7.696-.124-9.31-.133-32.898-19.538-68.825-33.674-106.121-41.91v-18.674l10.621-5.712a5.5 5.5 0 0 0 2.239-7.449 5.5 5.5 0 0 0-7.449-2.239l-5.411 2.91v-9.355l10.384-5.584a5 5 0 1 0-4.736-8.806l-5.647 3.037v-5.141l9.389-8.512a5 5 0 1 0-6.717-7.409l-6.14 5.566-5.026-10.091a5.001 5.001 0 0 0-8.952 4.458l7.445 14.947v4.408l-7.416-4.44a5 5 0 1 0-5.136 8.58l12.553 7.515v3.25l-8.695-2.321a5.002 5.002 0 0 0-2.579 9.663l11.274 3.01v26.331a359.086 359.086 0 0 0-44.954-5.698v-32.632l11.274-3.01a5 5 0 0 0-2.579-9.663l-8.695 2.321v-4.59l10.714-6.127a5 5 0 1 0-4.964-8.68l-5.75 3.288v-2.533l10.783-12.596a5 5 0 1 0-7.597-6.503l-8.349 9.753-10.199-10.916a5 5 0 1 0-7.307 6.827l12.668 13.559v9.661l-5.647-3.037a5 5 0 1 0-4.736 8.806l10.383 5.584v39.997c-36.639-1.276-73.361 3.073-108.62 12.733l-.192-2.117 33.952-25.585 19.397 5.29a5.503 5.503 0 0 0 6.754-3.859 5.5 5.5 0 0 0-3.859-6.753l-17.777-4.848.647-16.176c14.309-.46 26.85-10.912 29.383-25.559a5.5 5.5 0 0 0-4.482-6.357c-8.117-1.403-16.291.437-23.022 5.183-6.731 4.746-11.211 11.829-12.614 19.944-.09.52-.974 24.295-.974 24.295l-28.575 21.532-3.295-36.315 26.767-22.152a5.5 5.5 0 1 0-7.014-8.474l-4.097 3.39-3.437-14.802c13.32-6.595 20.293-22.1 15.759-36.744a5.501 5.501 0 0 0-6.881-3.627c-7.867 2.436-14.315 7.791-18.155 15.076-2.663 5.052-3.851 10.613-3.517 16.17.148 2.458 1.93 10.967 1.93 10.967l4.829 20.799-10.233 8.469-13.834-26.042a5.497 5.497 0 0 0-7.438-2.276 5.5 5.5 0 0 0-2.276 7.438l16.28 30.645-1.176 21.09-18.335-11.705-4.174-20.035c1.523-7.806.022-15.763-4.276-22.488-4.435-6.94-11.307-11.737-19.35-13.508a5.498 5.498 0 0 0-6.554 4.188c-1.771 8.043-.304 16.294 4.13 23.234 3.731 5.838 9.191 10.152 15.617 12.431l2.845 13.654-9.828-.578c-3.02-.173-5.635 2.136-5.813 5.168a5.5 5.5 0 0 0 5.168 5.813l15.571.916 24.296 15.51-.534 9.57-25.946-4.702-16.076-10.402a5.5 5.5 0 0 0-5.975 9.235l10.378 6.715-5.69 4.267a5.5 5.5 0 0 0 3.304 9.901 5.468 5.468 0 0 0 3.295-1.101l10.081-7.56 26.013 4.714-.223 4A359.22 359.22 0 0 0 11.13 262.66c-2.744 1.303-3.911 4.584-2.607 7.328s4.584 3.912 7.328 2.607a348.123 348.123 0 0 1 34.833-14.284l-5.692 102.056a532.886 532.886 0 0 0-32.395 4.321 5.5 5.5 0 0 0 1.787 10.853c67.313-11.085 135.267-8.818 201.973 6.74 65.712 15.326 126.987 42.763 182.122 81.549a5.473 5.473 0 0 0 3.16 1.002 5.5 5.5 0 0 0 3.169-9.999 535.717 535.717 0 0 0-55.269-34.064c-28.839-23.912-27.567-54.039 4.111-97.596 6.498-8.935 7.963-17.045 4.355-24.104-2.014-3.94-5.625-7.285-10.758-10.032a517.52 517.52 0 0 1 6.104.039c4.162 3.378 16.592 15.525 6.985 33.831-1.859 3.543-3.903 7.119-5.879 10.577-9.096 15.915-18.501 32.372-11.788 49.383 7.246 18.358 32.637 33.714 79.909 48.325a5.503 5.503 0 0 0 6.879-3.63 5.5 5.5 0 0 0-3.631-6.879c-43.229-13.361-67.083-27.052-72.925-41.854-4.775-12.099 2.584-24.976 11.106-39.886 2.024-3.542 4.118-7.206 6.069-10.924 8.316-15.845 4.619-29.356-1.602-38.559a521.489 521.489 0 0 1 92.6 12.069 5.499 5.499 0 1 0 2.393-10.736zM417.99 131.928a15.674 15.674 0 0 1-2.509 5.18 15.667 15.667 0 0 1-4.198 3.937 15.762 15.762 0 0 1 6.707-9.117zm-99.381-24.857a15.654 15.654 0 0 1-2.091-5.376c1.528 1.152 2.844 2.59 3.882 4.266s1.74 3.495 2.091 5.376a15.686 15.686 0 0 1-3.882-4.266zM117.71 168.837a19.754 19.754 0 0 1 8.072-3.349 19.936 19.936 0 0 1-13.937 9.827 19.761 19.761 0 0 1 5.865-6.478zm-39.122-41.741a19.755 19.755 0 0 1 5.67-6.65 19.935 19.935 0 0 1-7.952 15.086 19.782 19.782 0 0 1 2.282-8.436zm-64.456 35.893a19.767 19.767 0 0 1-2.978-8.216 19.936 19.936 0 0 1 9.183 14.37 19.773 19.773 0 0 1-6.205-6.154zm47.351 99.228l8.725 96.183c-4.715.254-9.429.578-14.143.959l5.418-97.142zm286.727 41.86c1.568 3.068.405 7.316-3.457 12.627-17.185 23.629-25.943 43.938-26.777 62.087-.483 10.536 1.772 20.391 6.727 29.488-33.736-15.856-69.111-28.141-105.849-36.71-45.504-10.612-91.577-15.159-137.645-13.64l-7.148-78.805 28.708-15.364a5.499 5.499 0 0 0 2.254-7.444 5.499 5.499 0 0 0-7.444-2.254l-24.597 13.164-1.403-15.468c35.538-9.95 72.647-14.331 109.633-12.787a348 348 0 0 1 52.932 6.312v12.32a5 5 0 0 0 10 0v-10.189c29.216 6.665 57.539 17.068 84.118 30.957-9.14.323-18.283.879-27.421 1.677-54.905 4.794-108.415 17.974-159.042 39.173a5.499 5.499 0 0 0 2.127 10.574c.708 0 1.428-.138 2.122-.428 49.214-20.607 101.213-33.466 154.569-38.246.002 0 8.602.224 13.237.684 14.95 1.482 30.858 5.428 34.356 12.272z"/></svg>