<svg xmlns="http://www.w3.org/2000/svg" viewBox="0 0 447.505 447.505"><path d="M338.439 128.362h64.642a5.5 5.5 0 0 0 5.5-5.5c0-12.009-9.77-21.778-21.778-21.778-3.161 0-6.286.701-9.137 2.02-4.88-4.48-11.218-6.976-17.992-6.976-14.741 0-26.734 11.993-26.734 26.734a5.499 5.499 0 0 0 5.499 5.5zm21.234-21.234c4.981 0 9.566 2.304 12.578 6.32a5.498 5.498 0 0 0 7.835.996 10.655 10.655 0 0 1 6.716-2.361c3.936 0 7.385 2.12 9.267 5.278h-51.138c2.235-5.97 8-10.233 14.742-10.233zm-289.72-3.039h87.14a5.5 5.5 0 0 0 5.5-5.5c0-15.133-12.312-27.444-27.443-27.444a27.493 27.493 0 0 0-12.672 3.115c-6.345-6.279-14.814-9.797-23.899-9.797-18.816 0-34.125 15.308-34.125 34.125a5.5 5.5 0 0 0 5.499 5.501zm28.625-28.625c7.322 0 14.062 3.385 18.488 9.286a5.501 5.501 0 0 0 7.833.996c2.948-2.356 6.492-3.601 10.25-3.601 7.139 0 13.229 4.573 15.497 10.944H76.114c2.473-10.106 11.607-17.625 22.464-17.625zm340.076 296.812a745.38 745.38 0 0 0-33.376-9.272l5.351-44.273c.163-1.338-.942-3.788-.942-3.788l-26.202-37.768a5.499 5.499 0 0 0-3.859-2.325l-63.301-7.522a5.51 5.51 0 0 0-4.055 1.133 5.494 5.494 0 0 0-2.065 3.668l-8.744 72.31a748.585 748.585 0 0 0-17.962-1.704V299.92a5.47 5.47 0 0 0-1.398-3.654l-33.582-37.638a5.5 5.5 0 0 0-4.104-1.838h-70.139a5.5 5.5 0 0 0-5.5 5.5l.001 79.801c-6.161.437-12.313.952-18.457 1.541l-4.543-37.542a5.501 5.501 0 0 0-2.066-3.668c-.108-.085-34.575-30.313-34.575-30.313a5.495 5.495 0 0 0-4.307-1.328l-63.03 7.909a5.498 5.498 0 0 0-4.784 6.134l9.357 76.248a745.24 745.24 0 0 0-41.206 11.204 5.5 5.5 0 0 0 3.189 10.527c69.199-20.968 141.049-31.6 213.555-31.6s144.356 10.632 213.556 31.6a5.503 5.503 0 0 0 6.859-3.669 5.503 5.503 0 0 0-3.671-6.858zm-44.994-61.137l-36.295-4.388 20.608-18.222 15.687 22.61zm-73.196-32.231l45.558 5.505-23.267 20.572-25.072-3.031 2.781-23.046zm-4.101 33.966l82.686 9.997-4.532 37.501a749.978 749.978 0 0 0-6.437-1.497l2.614-20.947a5.5 5.5 0 0 0-4.776-6.139l-20.342-2.539a5.509 5.509 0 0 0-4.06 1.117 5.506 5.506 0 0 0-2.08 3.66l-2.307 18.48a746 746 0 0 0-44.739-6.824l3.973-32.809zm60.927 43.625a742.01 742.01 0 0 0-9.334-1.918l1.714-13.734 9.427 1.177-1.807 14.475zm-132.875-85.948l21.301 23.87h-42.602l21.301-23.87zm-64.639-2.761h52.359l-23.764 26.63h-28.595v-26.63zm-73.257 16.666l20.844 18.325-20.685 2.509-15.844 1.913 15.685-22.747zm-12.591-1.119l-17.671 25.626-24.807 2.995-2.845-23.025 45.323-5.596zm-41.091 39.534l82.681-9.998 3.858 31.882c-1.857.206-3.713.422-5.569.642l-2.27-16.774a5.495 5.495 0 0 0-2.118-3.638 5.505 5.505 0 0 0-4.069-1.075l-20.32 2.75a5.5 5.5 0 0 0-4.713 6.188l2.288 16.915a745.72 745.72 0 0 0-45.454 8.789l-4.314-35.681zm59.118 13.952l9.42-1.275 1.519 11.225c-3.141.419-6.28.854-9.415 1.313l-1.524-11.263zm67.822 4.565V305.42h92.721v36.495a742.918 742.918 0 0 0-8.83-.549v-19.035a5.5 5.5 0 0 0-5.5-5.5h-20.5a5.5 5.5 0 0 0-5.5 5.5v17.95a746.024 746.024 0 0 0-10.259-.078c-14.073 0-28.122.398-42.132 1.185zm72.89-.548c-3.165-.13-6.332-.245-9.5-.334V327.83h9.5v13.01zm-12.673-120.913h-8.667a5.5 5.5 0 0 0 0 11h8.667a5.5 5.5 0 0 0 0-11zm-105.998 17.509c.221 0 .443-.013.667-.041l7.821-.946a5.5 5.5 0 0 0-1.32-10.92l-7.821.946a5.5 5.5 0 0 0 .653 10.961zm-88.019 16.697c.418 0 .843-.048 1.268-.148l6.728-1.587a5.5 5.5 0 0 0-2.525-10.706l-6.728 1.587a5.5 5.5 0 0 0 1.257 10.854zm264.793-27.657l-7.821-.946a5.5 5.5 0 0 0-1.32 10.92l7.821.946a5.502 5.502 0 0 0 1.32-10.92z"/><path d="M443.323 216.538l-40.396-9.979v.002l-.003-.001a5.504 5.504 0 0 0-4.425.801l-24.696 16.909a5.474 5.474 0 0 0-2.237 3.215l-6.022 24.392a726.525 726.525 0 0 0-8.151-1.543l6.621-53.97a5.5 5.5 0 0 0-4.784-6.134l-46.894-5.884a5.494 5.494 0 0 0-4.307 1.328l-25.296 22.239a5.488 5.488 0 0 0-2.435 3.932l-3.409 28.152a760.6 760.6 0 0 0-10.892-.713v-59.858a5.5 5.5 0 0 0-5.5-5.5h-52.181a5.497 5.497 0 0 0-4.104 1.838l-24.987 28s-1.397 2.255-1.397 3.662v31.858c-3.537.208-7.072.435-10.603.693l-6.458-53.4a5.498 5.498 0 0 0-6.12-4.801l-47.094 5.597a5.498 5.498 0 0 0-3.859 2.325l-19.479 28.109a5.477 5.477 0 0 0-.958 3.78l3.468 28.693c-3.45.634-6.896 1.293-10.337 1.975L65.55 206.323a5.498 5.498 0 0 0-6.615-4.089l-40.501 9.553a5.503 5.503 0 0 0-3.572 2.731L.594 240.828s-.841 2.516-.519 3.885l5.921 25.095-.83.247a5.5 5.5 0 1 0 3.19 10.527c69.199-20.968 141.049-31.6 213.555-31.6s144.356 10.632 213.556 31.6a5.5 5.5 0 0 0 3.189-10.527c-.893-.271-1.788-.532-2.682-.799l11.371-46.062a5.501 5.501 0 0 0-4.022-6.656zm-7.977 9.36l-2.714 10.999-13.325-3.29-7.101-13.426 23.14 5.717zm-35.722-5.978l5.371 10.154-14.85-3.666 9.479-6.488zm-47.202-19.446l-1.772 14.339-16.435-1.987-11.005-15.958 29.212 3.606zm-41.777-2.453l8.994 13.042-20.947-2.532 11.953-10.51zm-20.089 20.607l58.721 7.099-2.742 22.692a756.26 756.26 0 0 0-11.297-1.816l1.539-12.663a5.501 5.501 0 0 0-4.796-6.124 5.498 5.498 0 0 0-6.124 4.796l-1.507 12.399a747.626 747.626 0 0 0-36.49-4.12l2.696-22.263zm-35.56-33.701v17h-19.232l-15.17-17h34.402zm-46.682 2.76l12.707 14.239h-25.414l12.707-14.239zm-57.811 5.67l1.732 14.35-16.627 2.01-14.487-12.81 29.382-3.55zm-41.3 7.695L121 211.483l-20.777 2.512 8.98-12.943zm-14.368 24.675l58.721-7.099 2.693 22.239a746.559 746.559 0 0 0-36.492 4.107l-1.502-12.36a5.5 5.5 0 0 0-10.92 1.328l1.534 12.619a754.196 754.196 0 0 0-11.298 1.81l-2.736-22.644zm-38.729-11.525l2.603 11.026-13.357 3.151-12.444-8.707 23.198-5.47zM21.591 225.18l9.412 6.585-14.887 3.512 5.475-10.097zm-9.548 22.36l49.19-11.605 4.373 18.537a744.758 744.758 0 0 0-30.046 7.079l-2.582-10.944a5.5 5.5 0 0 0-10.705 2.526l2.65 11.231a746 746 0 0 0-8.358 2.342l-4.522-19.166zm201.453-9.505v-13.939a5.5 5.5 0 0 0-11 0v14.141c-4.56.118-9.117.277-13.67.478v-25.789h66.17v25.79a751.814 751.814 0 0 0-33.087-.733c-2.806 0-5.61.021-8.413.052zm182.032 20.358l2.63-10.651a5.5 5.5 0 1 0-10.679-2.637l-2.668 10.808c-2.823-.63-5.65-1.239-8.48-1.836l4.596-18.615 49.067 12.114-4.591 18.597a746.605 746.605 0 0 0-29.875-7.78z"/><path d="M418.659 248.233l-6.711-1.657a5.5 5.5 0 1 0-2.637 10.679l6.711 1.657a5.503 5.503 0 0 0 6.658-4.021 5.5 5.5 0 0 0-4.021-6.658zm-202.488 63.02h-21a5.5 5.5 0 0 0-5.5 5.5v14.5a5.5 5.5 0 0 0 5.5 5.5h21a5.5 5.5 0 0 0 5.5-5.5v-14.5a5.5 5.5 0 0 0-5.5-5.5zm-5.5 14.5h-10v-3.5h10v3.5zm137.261-4.673l-20.839-2.601a5.504 5.504 0 0 0-6.14 4.777l-1.796 14.388a5.5 5.5 0 0 0 4.776 6.139l20.839 2.601a5.503 5.503 0 0 0 6.14-4.777l1.796-14.388a5.5 5.5 0 0 0-4.776-6.139zm-7.254 13.707l-9.924-1.239.434-3.473 9.924 1.239-.434 3.473zm-248.606-6.798a5.499 5.499 0 0 0-6.188-4.713l-20.811 2.818a5.5 5.5 0 0 0-4.712 6.188l1.945 14.369a5.5 5.5 0 0 0 6.188 4.713l20.811-2.817a5.5 5.5 0 0 0 4.712-6.188l-1.945-14.37zm-19.604 11.737L72 336.257l9.91-1.342.469 3.468-9.911 1.343z"/></svg>