<svg xmlns="http://www.w3.org/2000/svg" viewBox="0 0 471.083 471.083"><path d="M461.128 297.043a533 533 0 0 0-92.893-12.264v-47.691c23.35-.873 47.829-8.23 47.829-46.562 0-18.571-5.79-45.421-14.407-66.811-14.003-34.76-28.895-42.056-38.921-42.056-18.166 0-31.192 22.871-38.921 42.056-8.618 21.39-14.407 48.24-14.407 66.811 0 38.332 24.479 45.689 47.829 46.562v47.331a528.825 528.825 0 0 0-9.342-.135c-32.706-19.427-67.801-33.368-104.248-41.591v-23.632c9.477-.758 24.206-4.783 24.206-26.156 0-16.778-10.409-57.812-29.705-57.812s-29.705 41.034-29.705 57.812c0 10 3.189 17.256 9.479 21.568 4.441 3.044 9.776 4.171 14.725 4.565v21.341a358.678 358.678 0 0 0-55.737-6.258V212.91c8.97-.779 22.595-4.725 22.595-24.752 0-15.768-9.845-54.333-28.095-54.333-8.075 0-15.363 7.499-21.079 21.686-4.263 10.58-7.017 23.395-7.017 32.647 0 20.028 13.625 23.974 22.595 24.752v21.014a367.072 367.072 0 0 0-24.064.701v-.026c0-23.095-7.209-56.507-17.94-83.144-17.247-42.809-35.324-51.795-47.452-51.795s-30.206 8.986-47.452 51.795c-10.731 26.636-17.94 60.049-17.94 83.144 0 12.778 2.235 22.738 6.062 30.492a347.285 347.285 0 0 0-8.33 3.823 5.5 5.5 0 0 0 4.726 9.933 345.727 345.727 0 0 1 9.782-4.462c9.792 11.149 24.294 15.322 39.141 16.681l-4.136 74.195a531.36 531.36 0 0 0-48.048 5.677 5.499 5.499 0 1 0 1.787 10.853c67.314-11.086 135.268-8.818 201.973 6.74 65.712 15.326 126.987 42.763 182.122 81.549a5.473 5.473 0 0 0 3.16 1.002 5.5 5.5 0 0 0 3.169-9.999c-56.295-39.603-118.859-67.617-185.952-83.265-40.383-9.418-81.215-14.065-122.094-13.93l-6.581-72.61c24.714-1.732 49.198-10.55 53.378-45.587 30.946-2.04 61.619-.034 91.426 5.899v7.57a5.5 5.5 0 1 0 11 0v-5.183c28.485 6.642 56.097 16.902 82.312 30.651-9.152.328-18.306.87-27.456 1.669-54.905 4.794-108.415 17.974-159.042 39.173a5.499 5.499 0 0 0 2.127 10.574c.708 0 1.428-.138 2.122-.428 49.578-20.76 101.98-33.666 155.751-38.361 53.43-4.666 107.019-1.124 159.276 10.524a5.499 5.499 0 1 0 2.392-10.736zM320.406 190.527c0-17.296 5.47-42.493 13.61-62.7 8.871-22.021 19.607-35.167 28.718-35.167s19.847 13.146 28.718 35.167c8.141 20.207 13.61 45.404 13.61 62.7 0 27.552-13.947 34.673-36.829 35.559v-26.052l19.292-16.323a5.5 5.5 0 1 0-7.105-8.397l-12.186 10.311v-19.689l14.495-28.266a5.501 5.501 0 0 0-9.788-5.02l-11.326 22.088-13.572-16.121a5.501 5.501 0 0 0-8.415 7.085l17.607 20.913v17.062l-10.155-4.539a5.5 5.5 0 1 0-4.489 10.043l14.644 6.545v30.36c-22.882-.885-36.829-8.006-36.829-35.559zm-100.966 2.379c0-8.438 2.689-20.782 6.691-30.716 4.455-11.059 9.351-16.096 12.014-16.096s7.559 5.037 12.014 16.096c4.002 9.934 6.691 22.278 6.691 30.716 0 11.607-4.545 15.333-18.705 15.333s-18.705-3.726-18.705-15.333zm-65.127-4.749c0-7.834 2.5-19.303 6.22-28.537 4.715-11.704 9.175-14.796 10.875-14.796s6.161 3.092 10.875 14.796c3.72 9.234 6.22 20.703 6.22 28.537 0 10.558-4.154 13.947-17.095 13.947s-17.095-3.389-17.095-13.947zM83.392 364.048c-4.677.114-9.354.287-14.031.526l4.067-72.952c1.012.016 2.021.023 3.025.023l.377-.001 6.562 72.404zm32.3-91.843c-7.528 5.161-18.34 7.844-33.727 8.346v-34.545l37.758-28.453a5.5 5.5 0 0 0-6.62-8.786l-31.138 23.464v-36.268l27.268-22.567a5.5 5.5 0 1 0-7.014-8.474L78.417 184.62l-13.833-26.04a5.5 5.5 0 1 0-9.714 5.162l16.096 30.298v22.341l-21.703-13.855a5.5 5.5 0 1 0-5.919 9.271l27.622 17.634v51.122c-15.4-.5-26.221-3.183-33.753-8.347-10.196-6.989-15.152-19.291-15.152-37.606 0-44.426 27.416-123.938 54.392-123.938 11.996 0 25.92 16.787 37.248 44.905 10.254 25.453 17.144 57.214 17.144 79.033-.001 18.314-4.957 30.615-15.153 37.605z"/><path d="M149.438 96.696c17.645 0 32-14.355 32-32s-14.355-32-32-32-32 14.355-32 32 14.354 32 32 32zm0-53c11.58 0 21 9.42 21 21s-9.42 21-21 21-21-9.42-21-21 9.42-21 21-21zm-5.502 63.143V137.5a5.5 5.5 0 1 0 11 0v-30.661a5.5 5.5 0 1 0-11 0zm5.5-78.779a5.5 5.5 0 0 0 5.5-5.5V5.5a5.5 5.5 0 1 0-11 0v17.06a5.5 5.5 0 0 0 5.5 5.5zm-33.687 62.548l-9.903 9.903a5.5 5.5 0 1 0 7.778 7.778l9.903-9.903a5.5 5.5 0 1 0-7.778-7.778zm63.484-50.206a5.484 5.484 0 0 0 3.889-1.611l28.753-28.752a5.5 5.5 0 1 0-7.778-7.778l-28.753 28.752a5.5 5.5 0 0 0 3.889 9.389zM81.335 70.199h25.96a5.5 5.5 0 1 0 0-11h-25.96a5.5 5.5 0 1 0 0 11zm142 0h68a5.5 5.5 0 1 0 0-11h-68a5.5 5.5 0 1 0 0 11zm-20.5 0a5.5 5.5 0 1 0 0-11h-11.259a5.5 5.5 0 1 0 0 11h11.259zm-87.086-31.408c1.074 1.074 2.481 1.611 3.889 1.611s2.815-.537 3.889-1.611a5.5 5.5 0 0 0 0-7.778l-8.854-8.853a5.5 5.5 0 1 0-7.778 7.778l8.854 8.853zm59.595 51.817a5.5 5.5 0 0 0 0 7.778l37.024 37.024c1.074 1.074 2.481 1.611 3.889 1.611s2.815-.537 3.889-1.611a5.5 5.5 0 0 0 0-7.778l-37.024-37.024a5.5 5.5 0 0 0-7.778 0z"/></svg>