<svg xmlns="http://www.w3.org/2000/svg" viewBox="0 0 441.302 441.302"><path d="M23.936 122.326a5.5 5.5 0 0 0 5.489 5.151h93.562a5.5 5.5 0 0 0 5.352-4.233c.481-2.031.725-4.066.725-6.048 0-14.457-11.762-26.219-26.219-26.219-3.792 0-7.467.805-10.852 2.358-5.733-6.802-14.252-10.858-23.309-10.858-11.38 0-21.868 6.495-27.054 16.46-10.195 2.186-17.759 11.252-17.759 21.977 0 .408.023.809.051 1.21l.014.202zm21.765-12.871a5.5 5.5 0 0 0 4.816-3.511c2.877-7.457 10.177-12.467 18.167-12.467 6.993 0 13.486 3.788 16.944 9.886a5.5 5.5 0 0 0 8.091 1.682c2.667-2.007 5.822-3.067 9.125-3.067 8.151 0 14.826 6.44 15.202 14.5H35.764a11.5 11.5 0 0 1 9.937-7.023zm391.695 139.29a746.127 746.127 0 0 0-169.869-30.604c-3.044-23.161-22.897-41.103-46.876-41.103-23.978 0-43.832 17.942-46.875 41.103A746.127 746.127 0 0 0 3.907 248.745a5.5 5.5 0 0 0 3.189 10.527c69.199-20.968 141.049-31.6 213.555-31.6s144.356 10.632 213.555 31.6a5.503 5.503 0 0 0 6.859-3.669 5.5 5.5 0 0 0-3.669-6.858zm-252.389-31.223c3.197-16.768 17.959-29.485 35.644-29.485s32.447 12.717 35.644 29.485a751.564 751.564 0 0 0-35.644-.85c-11.902 0-23.786.287-35.644.85zm98.732-47.738h64.641a5.5 5.5 0 0 0 5.5-5.5c0-12.009-9.77-21.778-21.778-21.778-3.162 0-6.286.701-9.137 2.02-4.881-4.48-11.218-6.976-17.992-6.976-14.741 0-26.734 11.993-26.734 26.735a5.5 5.5 0 0 0 5.5 5.499zm21.235-21.235c4.981 0 9.565 2.304 12.579 6.321a5.503 5.503 0 0 0 7.834.996 10.654 10.654 0 0 1 6.716-2.36c3.935 0 7.385 2.12 9.266 5.278h-51.138c2.235-5.972 8-10.235 14.743-10.235z"/><path d="M255.61 236.83h-19.16a5.5 5.5 0 1 0 0 11h19.161a5.5 5.5 0 1 0-.001-11zm-133.414 9H113.1a5.5 5.5 0 1 0 0 11h9.096a5.5 5.5 0 1 0 0-11zm96.743-9h-33.248a5.5 5.5 0 1 0 0 11h33.248a5.5 5.5 0 1 0 0-11zm42.779 22.2h-8.789a5.5 5.5 0 1 0 0 11h8.789a5.5 5.5 0 1 0 0-11zm55.721 0h-11.511a5.5 5.5 0 1 0 0 11h11.511a5.5 5.5 0 1 0 0-11zm-288.252 9H17.676a5.5 5.5 0 1 0 0 11h11.511a5.5 5.5 0 1 0 0-11zm169.163-3.5a5.5 5.5 0 0 0 5.5 5.5h32.09a5.5 5.5 0 1 0 0-11h-32.09a5.5 5.5 0 0 0-5.5 5.5zm-24.266 0a5.5 5.5 0 0 0 5.5 5.5h8.856a5.5 5.5 0 1 0 0-11h-8.856a5.5 5.5 0 0 0-5.5 5.5zm92.215 16.698h-27.94a5.5 5.5 0 1 0 0 11h27.94a5.5 5.5 0 1 0 0-11zm137.14 0h-8.595a5.5 5.5 0 1 0 0 11h8.595a5.5 5.5 0 1 0 0-11zm-301 8.144h-8.595a5.5 5.5 0 1 0 0 11h8.595a5.5 5.5 0 1 0 0-11zm67.064-2.644a5.5 5.5 0 0 0 5.5 5.5h46.937a5.5 5.5 0 1 0 0-11h-46.937a5.5 5.5 0 0 0-5.5 5.5zm103.668 16.699h-60.87a5.5 5.5 0 1 0 0 11h60.87a5.5 5.5 0 1 0 0-11zm-110.54 5.5a5.5 5.5 0 0 0 5.5 5.5h26.808a5.5 5.5 0 1 0 0-11h-26.808a5.5 5.5 0 0 0-5.5 5.5zm193.484-5.5h-15.252a5.5 5.5 0 1 0 0 11h15.252a5.5 5.5 0 1 0 0-11zm-302.86 8.144h-9.533a5.5 5.5 0 1 0 0 11h9.533a5.5 5.5 0 1 0 0-11zm203.426 19.555a5.5 5.5 0 0 0 5.5 5.5h18.711a5.5 5.5 0 1 0 0-11h-18.711a5.5 5.5 0 0 0-5.5 5.5zm-101.771 0a5.5 5.5 0 0 0 5.5 5.5h78.359a5.5 5.5 0 1 0 0-11H160.41a5.5 5.5 0 0 0-5.5 5.5zm133.53 16.699h-75.573a5.5 5.5 0 1 0 0 11h75.573a5.5 5.5 0 1 0 0-11zm-108.082 0h-27.496a5.5 5.5 0 1 0 0 11h27.496a5.5 5.5 0 1 0 0-11zm-12.177-193.823c7.168 0 13 5.832 13 13a5 5 0 0 0 10 0c0-7.168 5.832-13 13-13a5 5 0 0 0 0-10c-7.281 0-13.783 3.401-18 8.697-4.217-5.296-10.719-8.697-18-8.697a5 5 0 0 0 0 10z"/></svg>