<svg xmlns="http://www.w3.org/2000/svg" viewBox="0 0 448.391 448.391"><path d="M444.484 288.919a745.6 745.6 0 0 0-104.319-23.59c15.194-15.27 22.361-32.275 20.814-49.701-1.772-19.927-20.767-36.352-56.47-48.878a734.897 734.897 0 0 1 136.785 27.598 5.503 5.503 0 0 0 6.859-3.669 5.5 5.5 0 0 0-3.669-6.858 745.671 745.671 0 0 0-116.087-25.282l26.023-22.793 13.738.858a5.492 5.492 0 0 0 3.141-.754l44-26a5.5 5.5 0 0 0-5.596-9.47l-42.545 25.14-14.313-.895a5.496 5.496 0 0 0-3.967 1.352l-35.083 30.728a749.994 749.994 0 0 0-54.6-4.291l7.097-8.964 13.553-.847a5.502 5.502 0 0 0 3.487-1.542l32.22-31.273 10.527.81a5.505 5.505 0 0 0 4.734-2.07l17.349-21.914h24.339a5.51 5.51 0 0 0 2.493-.597l59-30a5.5 5.5 0 1 0-4.986-9.806l-57.825 29.403h-25.682a5.504 5.504 0 0 0-4.313 2.086l-17.184 21.706-10.082-.776a5.501 5.501 0 0 0-4.252 1.537l-32.542 31.584-13.971.873c-1.557.097-3 .852-3.969 2.075l-13.679 17.276a751.447 751.447 0 0 0-17.771-.229c-21.258 0-42.461.906-63.559 2.7l-33.404-24.752a5.501 5.501 0 0 0-4.722-.887l-19.567 5.336-40.91-27.59a5.502 5.502 0 0 0-7.417 1.184l-10.961 15.226L7.419 107.96a5.501 5.501 0 0 0-3.836 10.31l37.412 14.124-7.234 10.933a5.5 5.5 0 0 0 9.481 5.577l20.445-30.355 38.739 26.126a5.5 5.5 0 0 0 4.522.746l19.424-5.297 21.455 15.898a745.843 745.843 0 0 0-136.832 27.799 5.5 5.5 0 0 0 3.189 10.527 735.09 735.09 0 0 1 166.207-30.083c87.587 7.265 113.748 27.326 121.545 38.648 4.554 6.613 4.299 12.171 3.284 15.669-6.531 22.495-48.82 35.212-65.231 38.371a757.47 757.47 0 0 0-12.249-.105A747.861 747.861 0 0 0 78 271.964v-7.515c13.453-1.028 26.813-6.787 26.813-31.507 0-26.129-14.188-46.596-32.301-46.596s-32.301 20.467-32.301 46.596c0 24.705 13.344 30.472 26.789 31.505v9.856a745.994 745.994 0 0 0-56.005 14.616 5.5 5.5 0 0 0 3.189 10.527 734.84 734.84 0 0 1 52.815-13.882v14.55a5.5 5.5 0 1 0 11 0v-16.917a735.235 735.235 0 0 1 45.883-8.011c-19.962 15.569-40.29 36.936-60.658 63.8-19.86 26.193-32.001 47.521-32.508 48.417a5.499 5.499 0 0 0 4.781 8.212 5.5 5.5 0 0 0 4.79-2.789c.48-.847 48.433-84.636 107.036-120.592a734.08 734.08 0 0 1 18.455-1.786 242.972 242.972 0 0 0-12.69 12.368 5.5 5.5 0 1 0 7.952 7.6c7.837-8.2 15.723-15.349 23.466-21.299 6.356-.372 12.72-.662 19.091-.869-15.81 20.186-51.091 70.525-64.472 132.71a5.5 5.5 0 0 0 5.383 6.658 5.503 5.503 0 0 0 5.372-4.344c14.884-69.167 59.31-124.783 68.173-135.354 3.228-.042 6.457-.071 9.688-.071 72.506 0 144.356 10.632 213.555 31.6a5.503 5.503 0 0 0 6.859-3.669 5.502 5.502 0 0 0-3.671-6.859zM51.211 232.941c0-19.295 9.755-35.596 21.301-35.596s21.301 16.301 21.301 35.596c0 15.065-5.321 19.531-15.813 20.482v-19.822l6.252-10.715a5.5 5.5 0 0 0-1.979-7.522 5.498 5.498 0 0 0-7.522 1.979l-2.058 3.527-2.349-4.363a5.5 5.5 0 1 0-9.686 5.214L67 233.501v1.771l-4.616-2.841a5.5 5.5 0 0 0-5.766 9.368L67 248.188v5.233c-10.476-.956-15.789-5.427-15.789-20.48zm264.572-11.293c2.374-8.175.673-17.044-4.788-24.975-10.199-14.811-31.681-24.836-56.742-31.623 34.918 6.325 93.215 22.808 95.769 51.55 1.456 16.412-6.589 32.124-23.917 46.729a748.245 748.245 0 0 0-52.527-5.077c17.685-7.193 37.061-18.885 42.205-36.604z"/><path d="M145.319 299.624a5.5 5.5 0 0 0-7.74.769c-8.279 10.104-16.556 21.38-24.602 33.513a5.5 5.5 0 0 0 9.168 6.08c7.841-11.826 15.896-22.801 23.942-32.621a5.5 5.5 0 0 0-.768-7.741zm-37.205 52.087a5.5 5.5 0 0 0-7.544 1.893c-12.476 20.835-19.6 35.951-19.897 36.584a5.5 5.5 0 1 0 9.958 4.673c.07-.15 7.207-15.284 19.376-35.606a5.5 5.5 0 0 0-1.893-7.544zm264.345-119.245a5 5 0 0 0 5-5v-13.985c4.177-2.565 6.958-8.323 6.958-15.366 0-9.585-5.141-16.814-11.958-16.814s-11.958 7.229-11.958 16.814c0 7.043 2.781 12.801 6.958 15.366v13.985a5 5 0 0 0 5 5zm0-41.01c.738.722 1.958 3.043 1.958 6.659s-1.22 5.937-1.958 6.658c-.737-.722-1.958-3.043-1.958-6.658s1.22-5.937 1.958-6.659zM90.491 77.13a5 5 0 0 0 4.995 4.766h63.2a5 5 0 0 0 4.926-4.14c.308-1.763.463-3.524.463-5.236 0-13.438-8.344-23.963-18.995-23.963-2.304 0-4.58.529-6.709 1.535-4.084-5.858-10.003-9.315-16.366-9.315-8.482 0-15.922 5.934-19.574 15.361-7.024 2.404-11.98 10.277-11.98 19.787 0 .342.015.679.032 1.015l.008.19zm16.164-11.736a4.998 4.998 0 0 0 4.421-3.616c1.874-6.581 6.265-11.002 10.928-11.002 4.006 0 7.863 3.269 10.065 8.53a4.998 4.998 0 0 0 8.182 1.57c1.038-1.059 2.717-2.32 4.828-2.32 4.741 0 8.767 6.046 8.986 13.34h-53.101c1.026-3.82 3.42-6.325 5.691-6.502zm124.826 39.958a5 5 0 0 0 4.994 4.762h44.105a4.999 4.999 0 0 0 4.925-4.14c.23-1.315.346-2.632.346-3.914 0-10.225-6.486-18.234-14.767-18.234-1.422 0-2.828.251-4.173.736-3.092-3.895-7.355-6.165-11.93-6.165-6.257 0-11.936 4.335-14.804 11.047-5.156 2.125-8.729 7.985-8.729 14.992 0 .267.011.53.025.792l.008.124zm12.906-6.758a5 5 0 0 0 4.421-3.616c1.103-3.875 3.642-6.581 6.174-6.581 2.176 0 4.333 1.926 5.63 5.025a4.997 4.997 0 0 0 3.67 2.979 4.994 4.994 0 0 0 4.512-1.409c.522-.532 1.343-1.167 2.291-1.167 1.928 0 4.051 2.584 4.62 6.289h-33.147c.569-.929 1.26-1.476 1.829-1.52zm33.114 138.681a5 5 0 0 0 5-5v-11.036c4.781-2.56 8.076-8.72 8.076-16.098 0-9.744-5.742-17.376-13.072-17.376-7.33 0-13.071 7.633-13.071 17.376 0 7.374 3.291 13.532 8.067 16.094v11.04a5 5 0 0 0 5 5zm.004-39.512c.79 0 3.072 2.536 3.072 7.376s-2.282 7.377-3.072 7.377-3.071-2.537-3.071-7.377 2.282-7.376 3.071-7.376zm-32.004 55.012a5.5 5.5 0 0 0 5.5-5.5v-12.362c8.031-2.289 9.39-9.685 9.39-14.407 0-11.154-6.539-19.891-14.885-19.891-8.347 0-14.886 8.737-14.886 19.891 0 4.72 1.358 12.111 9.381 14.404v12.365a5.5 5.5 0 0 0 5.5 5.5zm.005-41.16c1.127 0 3.885 3.116 3.885 8.891 0 3.238 0 4.109-3.885 4.109-3.886 0-3.886-.871-3.886-4.109.001-5.776 2.758-8.891 3.886-8.891z"/></svg>