<svg xmlns="http://www.w3.org/2000/svg" viewBox="0 0 429.361 429.361"><path d="M425.262 69.661C313.799 35.923 194.333 28.778 79.45 48.906l-4.911-11.632a5.5 5.5 0 0 0-4.724-3.35L40.481 32.09 30.085 16.419c-.324-.489-.708-.944-1.17-1.305-2.016-1.577-4.674-1.553-6.598-.207L2.512 28.771C.159 30.418-.739 33.61.677 36.109a5.501 5.501 0 0 0 7.948 1.81l15.38-10.766 8.821 13.297a5.501 5.501 0 0 0 4.24 2.449l28.663 1.792 6.325 14.98L50.69 71.063l-13.303-8.314a5.508 5.508 0 0 0-4.345-.647L7.268 69.041c-2.773.747-4.704 3.441-4.223 6.273a5.5 5.5 0 0 0 6.856 4.41l23.687-6.377 13.968 8.73a5.497 5.497 0 0 0 5.503.189L76.35 69.845l5.996 14.201-6.651 11.639a5.497 5.497 0 0 0-.693 3.311l7.531 70.599-13.705 4.568c-.793.264-1.543.671-2.144 1.252-1.793 1.735-2.171 4.305-1.165 6.389l11.742 24.323-13.46 7.478a5.5 5.5 0 0 0-2.768 5.624l11.102 74.012c-7.07-.893-14.14.77-20.111 4.783-6.429 4.322-10.825 10.851-12.412 18.417-.61 2.908.969 5.951 3.832 6.745a5.5 5.5 0 0 0 6.883-4.238 18.375 18.375 0 0 1 7.833-11.795 18.37 18.37 0 0 1 13.879-2.801 18.44 18.44 0 0 1 14.934 18.525c-.019.881.12 1.769.52 2.554 1.371 2.691 4.339 3.705 6.874 2.776a14.462 14.462 0 0 1 7.766-.631c3.573.7 6.733 2.72 8.9 5.687 1.023 1.4 2.628 2.255 4.362 2.255h.076c1.736 0 3.39-.785 4.392-2.184 5.349-7.468 14.643-11.156 23.636-9.392a23.473 23.473 0 0 1 15.976 11.58 5.45 5.45 0 0 0 4.749 2.803h.044c1.936 0 3.755-1.002 4.722-2.679 3.1-5.37 9.274-8.185 15.336-6.992 3.775.74 7.04 2.896 9.201 6.075 1.569 2.308 2.332 5.074 2.407 7.865.05 1.862.007 2.812-.593 4.678-.559 1.737-.368 3.683.715 5.151a5.505 5.505 0 0 0 6.923 1.671 18.807 18.807 0 0 1 12.189-1.676 19.042 19.042 0 0 1 13.622 10.75c.377.823.884 1.594 1.591 2.157 2.099 1.672 4.902 1.599 6.853.094a14.491 14.491 0 0 1 11.64-2.768c7.774 1.524 12.884 9.033 11.481 16.802-.506 2.803.985 5.682 3.707 6.522a5.502 5.502 0 0 0 7.048-4.191c1.588-8.103-.873-16.075-5.967-21.826v-50.5l9.073-23.009 14.442 8.606a5.499 5.499 0 0 0 3.625.715l46.767-6.965c2.84-.423 5.068-2.876 4.918-5.743a5.5 5.5 0 0 0-6.304-5.171l-45.06 6.711-27.016-17.577 7.857-49.83 19.304-8.775a5.5 5.5 0 0 0 3.186-5.648l-1.18-10.045 44.387-26.875 22.939-.957 15.603 9.178a5.495 5.495 0 0 0 5.545.019l18.794-10.881c2.486-1.439 3.654-4.542 2.458-7.153a5.499 5.499 0 0 0-7.764-2.486l-16.222 9.392-14.233-8.373a5.473 5.473 0 0 0-3.018-.754l-21.284.888-.433-2.134 23.379-18.905a5.501 5.501 0 0 0 1.974-5.141l-2.532-15.927c10.268-1.165 33.91-2.01 52.795 11.177 2.332 1.628 5.603 1.389 7.469-.758a5.501 5.501 0 0 0-.973-8.122c-28.638-20.152-65.203-12.614-66.745-12.284a5.5 5.5 0 0 0-4.279 6.242l2.903 18.258-23.502 19.005a5.503 5.503 0 0 0-1.932 5.371l1.26 6.208-45.311 27.434a5.501 5.501 0 0 0-2.614 5.346l1.124 9.573-18.345 8.339a5.5 5.5 0 0 0-3.157 4.15l-8.831 56a5.5 5.5 0 0 0 2.103 5.234l8.516 6.479-10.303 26.126a5.5 5.5 0 0 0-.383 2.017v44.28a25.546 25.546 0 0 0-3.152-.837 25.446 25.446 0 0 0-15.135 1.685 30.042 30.042 0 0 0-18.57-11.918 29.85 29.85 0 0 0-10.278-.233c-.256-4.51-1.718-8.885-4.304-12.732-2.911-4.33-6.982-7.588-11.731-9.467v-54.74c0-2.873-2.1-5.438-4.96-5.71a5.5 5.5 0 0 0-6.04 5.474v53.229a25.543 25.543 0 0 0-15.402 6.426 34.432 34.432 0 0 0-18.952-10.722 34.183 34.183 0 0 0-3.646-.501v-64.996c0-2.873-2.1-5.438-4.96-5.71a5.5 5.5 0 0 0-6.04 5.474v66.06a34.705 34.705 0 0 0-15.673 8.451 25.933 25.933 0 0 0-1.362-1.019V261.65c0-2.873-2.1-5.438-4.96-5.71a5.5 5.5 0 0 0-6.04 5.474v55.156a25.27 25.27 0 0 0-5.584-.178 29.39 29.39 0 0 0-13.48-19.054L72.479 221.37l14.666-8.148a5.5 5.5 0 0 0 2.282-7.198l-11.281-23.369 12.067-4.022a5.5 5.5 0 0 0 3.73-5.801L86.131 99.6l7.118-12.456a5.501 5.501 0 0 0 .292-4.868L83.844 59.31a728.578 728.578 0 0 1 19.095-3.016v158.885c0 2.873 2.1 5.438 4.96 5.71a5.5 5.5 0 0 0 6.04-5.474V54.788a738.33 738.33 0 0 1 17.035-2.014v162.402c0 2.873 2.1 5.438 4.96 5.71a5.5 5.5 0 0 0 6.04-5.474V51.699c5.994-.54 11.995-.989 18-1.382v213.86c0 2.873 2.1 5.438 4.96 5.71a5.5 5.5 0 0 0 6.04-5.474V49.679c2.999-.152 5.999-.283 9-.398v63.896c0 2.873 2.1 5.438 4.96 5.71a5.5 5.5 0 0 0 6.04-5.474V48.941a741.631 741.631 0 0 1 26.048-.167c-4.776 4.626-7.721 11.09-7.721 18.167v30.236c0 2.873 2.1 5.438 4.96 5.71a5.5 5.5 0 0 0 6.04-5.474V66.94a14.3 14.3 0 0 1 12.566-14.194 214.74 214.74 0 0 1 46.489-.623c48.426 4.639 96.379 14.024 142.913 28.123a5.504 5.504 0 0 0 6.994-4.21c.555-2.802-1.265-5.547-4.001-6.375z"/><path d="M102.936 236.413v8a5.5 5.5 0 1 0 11 0v-8a5.5 5.5 0 1 0-11 0zm77.035-104v83a5.5 5.5 0 1 0 11 0v-83a5.5 5.5 0 1 0-11 0zm114.997-72.804a5.5 5.5 0 0 0-5.3-5.693l-7.562-.27c-5.316-.184-10.361 1.741-14.193 5.438s-5.941 8.666-5.941 13.99v106.338a5.5 5.5 0 1 0 11 0V73.075c0-2.312.916-4.469 2.58-6.074a8.362 8.362 0 0 1 6.162-2.361l7.562.27c3.045.124 5.584-2.265 5.692-5.301zm.503 113.304a5.5 5.5 0 0 0 5.5-5.5v-24a5.5 5.5 0 1 0-11 0v24a5.5 5.5 0 0 0 5.5 5.5z"/><path d="M355.71 73.089a5.5 5.5 0 0 0-3.562-6.915c-14.524-4.648-30.54-5.64-41.417-5.653h-.027c-5.543 0-10.751 2.153-14.668 6.065a20.533 20.533 0 0 0-6.063 14.626v44.201a5.5 5.5 0 1 0 11 0V81.212a9.608 9.608 0 0 1 2.836-6.843 9.69 9.69 0 0 1 6.896-2.848h.013c10.098.013 24.9.913 38.079 5.13a5.501 5.501 0 0 0 6.913-3.562z"/><path d="M310.971 97.413v56a5.5 5.5 0 1 0 11 0v-56a5.5 5.5 0 1 0-11 0zm-72.5 175.5a5.5 5.5 0 0 0-5.5 5.5v63a5.5 5.5 0 1 0 11 0v-63a5.5 5.5 0 0 0-5.5-5.5zm5.5-103.5a5.5 5.5 0 1 0-11 0v26a5.5 5.5 0 1 0 11 0v-26zm0-99a5.5 5.5 0 1 0-11 0v79a5.5 5.5 0 1 0 11 0v-79zm-45.566 300.128c-10.5-2.059-21.142 1.352-28.49 8.675a43.45 43.45 0 0 0-25.066-14.855c-14.401-2.824-29.208 1.893-39.358 12.147a31.53 31.53 0 0 0-14.902-7.379 31.515 31.515 0 0 0-10.114-.324c-2.484-14.958-13.976-27.123-29.363-30.139a5.499 5.499 0 0 0-6.456 4.339 5.502 5.502 0 0 0 4.339 6.456 25.899 25.899 0 0 1 20.973 26.072 5.501 5.501 0 0 0 7.396 5.292 20.656 20.656 0 0 1 11.107-.901c5.111 1.001 9.631 3.889 12.729 8.129a5.5 5.5 0 0 0 4.441 2.256h.012a5.498 5.498 0 0 0 4.443-2.276c7.42-10.254 20.232-15.31 32.636-12.877a32.51 32.51 0 0 1 22.119 16.027 5.5 5.5 0 0 0 4.752 2.808c1.994-.012 3.803-1.027 4.796-2.731 4.445-7.631 13.243-11.621 21.889-9.923 11.22 2.199 18.559 13.117 16.359 24.335-.149.76-.37 1.57-.693 2.549a5.499 5.499 0 0 0 5.223 7.228 5.502 5.502 0 0 0 5.221-3.775c.472-1.426.804-2.66 1.044-3.884 3.366-17.174-7.866-33.883-25.037-37.249zm143.082-235.628a5.5 5.5 0 0 0 5.5-5.5v-25.684c0-5.722 4.435-10.514 10.096-10.91 13.124-.919 33.983-.472 58.83 6.869a5.497 5.497 0 0 0 6.833-3.716 5.5 5.5 0 0 0-3.716-6.833c-26.42-7.806-48.687-8.273-62.714-7.293-11.399.798-20.329 10.41-20.329 21.884v25.684a5.5 5.5 0 0 0 5.5 5.499zm-132.188-17.5v201a5.5 5.5 0 1 0 11 0v-201a5.5 5.5 0 1 0-11 0z"/></svg>