<svg xmlns="http://www.w3.org/2000/svg" viewBox="0 0 466.098 466.098"><path d="M461.793 264.782a532.986 532.986 0 0 0-92.893-12.263V192.57l29.291-24.785a5.5 5.5 0 0 0-7.105-8.397L368.9 178.159v-21.567l20.304-16.497 16.993 4.147a5.502 5.502 0 0 0 6.647-4.039 5.499 5.499 0 0 0-4.039-6.647l-8.884-2.168 5.396-4.384a5.5 5.5 0 0 0-6.937-8.537l-29.48 23.951v-8.742l14.495-28.267a5.5 5.5 0 0 0-9.789-5.02l-11.598 22.616-10.959-11.312 6.539-14.307a5.5 5.5 0 1 0-10.004-4.573l-4.753 10.398-12.729-13.139a5.5 5.5 0 0 0-7.9 7.653l35.697 36.848v18.094l-23.667-17.531a5.5 5.5 0 1 0-6.547 8.839l30.214 22.38v85.803a528.033 528.033 0 0 0-9.335-.135c-32.891-19.531-68.809-33.661-106.095-41.895v-18.673l10.621-5.712a5.5 5.5 0 0 0 2.238-7.449 5.499 5.499 0 0 0-7.449-2.239l-5.41 2.91v-9.355l10.384-5.584a4.997 4.997 0 0 0 2.035-6.771 4.998 4.998 0 0 0-6.771-2.035l-5.647 3.037v-5.141l9.39-8.512a5 5 0 0 0-6.717-7.41l-6.141 5.567-5.026-10.091a5 5 0 1 0-8.951 4.458l7.445 14.947v4.408l-7.416-4.44a5 5 0 1 0-5.136 8.58l12.553 7.515v3.251l-8.695-2.321a5.002 5.002 0 0 0-2.579 9.663l11.274 3.01v26.33a359.086 359.086 0 0 0-44.954-5.698v-32.632l11.274-3.01a5 5 0 1 0-2.579-9.663l-8.695 2.321v-4.59l10.714-6.127a5 5 0 1 0-4.964-8.68l-5.75 3.288v-2.533l10.783-12.596a5 5 0 1 0-7.597-6.503l-8.349 9.753-10.199-10.916a5 5 0 1 0-7.307 6.827l12.669 13.559v9.662l-5.647-3.037a4.998 4.998 0 0 0-6.771 2.035 4.999 4.999 0 0 0 2.035 6.771l10.384 5.584v39.997c-36.638-1.275-73.361 3.074-108.62 12.734l-.192-2.118 33.953-25.585 19.397 5.29a5.503 5.503 0 0 0 6.754-3.859 5.5 5.5 0 0 0-3.859-6.753l-17.777-4.848.825-20.626a5.5 5.5 0 1 0-10.991-.439l-.896 22.396-28.575 21.532-3.294-36.319 26.767-22.152a5.5 5.5 0 1 0-7.014-8.474l-4.097 3.39-4.039-17.397a5.5 5.5 0 0 0-10.715 2.487l5.282 22.749-10.233 8.469-13.834-26.042a5.5 5.5 0 1 0-9.714 5.162l16.28 30.644-1.176 21.09-18.335-11.705-4.528-21.732a5.498 5.498 0 0 0-6.506-4.263 5.5 5.5 0 0 0-4.263 6.506l3.535 16.966-9.828-.578a5.5 5.5 0 1 0-.645 10.981l15.571.916 24.296 15.51-.534 9.57-25.946-4.702-16.079-10.402a5.5 5.5 0 0 0-5.975 9.235l10.378 6.715-5.69 4.267a5.5 5.5 0 0 0 3.304 9.901 5.468 5.468 0 0 0 3.295-1.101l10.081-7.56 26.012 4.714-.223 4a359.311 359.311 0 0 0-40.214 16.195 5.499 5.499 0 0 0-2.607 7.328 5.499 5.499 0 0 0 7.328 2.607 347.929 347.929 0 0 1 34.833-14.284l-5.692 102.056a532.886 532.886 0 0 0-32.395 4.321 5.499 5.499 0 1 0 1.787 10.853c67.313-11.086 135.266-8.818 201.973 6.739 65.712 15.326 126.986 42.763 182.122 81.549a5.494 5.494 0 0 0 7.662-1.334 5.5 5.5 0 0 0-1.334-7.663c-56.295-39.603-118.858-67.617-185.952-83.265-45.504-10.613-91.578-15.16-137.646-13.641l-7.148-78.804 28.708-15.365a5.499 5.499 0 0 0 2.254-7.444 5.499 5.499 0 0 0-7.444-2.254l-24.597 13.165-1.403-15.469c35.538-9.95 72.648-14.333 109.633-12.787a348 348 0 0 1 52.932 6.312v9.3c-9.74.911-19.229 5.086-26.67 12.527a5.5 5.5 0 1 0 7.778 7.778c12.672-12.671 33.291-12.672 45.962 0a5.5 5.5 0 0 0 7.777-7.778c-6.976-6.976-15.753-11.076-24.848-12.313v-7.383c29.222 6.666 57.551 17.073 84.134 30.966-9.146.328-18.294.87-27.438 1.668-54.904 4.794-108.414 17.973-159.042 39.172a5.499 5.499 0 0 0 2.127 10.574c.708 0 1.428-.138 2.122-.428 49.579-20.759 101.981-33.666 155.751-38.361 53.427-4.666 107.019-1.125 159.277 10.524 2.96.662 5.903-1.207 6.564-4.171s-1.206-5.9-4.171-6.56zM54.391 333.348l5.418-97.141 8.724 96.181c-4.715.255-9.429.578-14.142.96z"/><circle cx="102.501" cy="270.899" r="6.333"/><circle cx="140.167" cy="91.899" r="6.333"/><circle cx="182.85" cy="33.61" r="6.333"/><circle cx="246.167" cy="66.899" r="6.333"/><circle cx="280.167" cy="125.899" r="6.333"/><circle cx="315.167" cy="188.899" r="6.333"/><circle cx="186.501" cy="242.565" r="6.333"/><circle cx="150.501" cy="180.565" r="6.333"/><circle cx="415.167" cy="65.899" r="6.333"/><circle cx="437.167" cy="137.899" r="6.333"/><circle cx="408.167" cy="218.899" r="6.333"/><circle cx="25.501" cy="111.899" r="6.333"/></svg>