<svg xmlns="http://www.w3.org/2000/svg" viewBox="0 0 512 512"><path d="M471.871 49.975a7.966 7.966 0 0 0-5.384-4.023c-.199-.041-20.037-4.346-36.211-20.519-3.338-3.339-8.903-3.096-11.92.727-2.515 3.187-2.075 7.841.803 10.703 12.068 12.006 25.724 18.537 34.599 21.816-5.8 11.026-16.508 26.748-29.416 30.565-1.928.58-3.91.874-5.888.874-24.105 0-37.226-18.449-37.751-19.203-.008-.013-.019-.023-.028-.036-.087-.125-.186-.246-.282-.368-.084-.107-.162-.219-.251-.321l-12.134-14.154c-2.841-3.315-7.874-4.016-11.272-1.276a7.972 7.972 0 0 0-1.052 11.397l6.848 7.988c-4.507 2.171-9.182 1.991-15.633 1.735-7.559-.301-16.964-.675-28.105 3.376-16.376 5.956-28.565 23.84-35.442 36.519l-3.955-6.137c-5.851-9.079-9.971-19.21-11.707-29.871-2.09-12.83-.341-22.535 5.249-28.972 11.518-13.266 38.834-11.305 50.032-9.175l8.354 5.302a7.966 7.966 0 0 0 11.154-2.706c2.194-3.747.8-8.59-2.866-10.918l-6.84-4.341c-.324-1.644-.488-4.007.562-5.987 1.765-3.324 6.653-4.962 10.443-5.752 14.557-3.033 35.861-.569 53.126 6.128 4.057 1.574 8.806-.122 10.54-4.114a7.97 7.97 0 0 0-4.4-10.605C382.765.678 358.226-2.075 340.528 1.61c-10.502 2.187-17.703 6.942-21.405 14.135-1.569 3.047-2.275 6.114-2.482 8.945-14.898-1.424-41.143-1.115-55.708 15.615-10.595 12.169-12.75 30.065-6.467 53.298-11.869 2.318-20.673 14.778-20.673 30.264 0 17.191 10.847 30.657 24.693 30.657 1.264 0 2.515-.116 3.745-.343 5.554 15.57 15.007 29.672 27.348 40.782l-.701 1.49c-2.597 5.529-6.047 12.872-9.921 20.878-16.435.929-35.742 5.144-41.173 19.217-4.697 12.173 3.353 22.97 12.958 32.697-3.514 4.941-7.139 7.524-7.431 7.683-6.517 3.496-14.812 2.526-20.639-2.416a91.113 91.113 0 0 0-13.031-9.201c-10.65-6.214-22.589-10.178-34.85-11.623-4.084-16.876-13.54-36.718-35.208-46.496a7.97 7.97 0 0 0-10.786 4.583c-1.417 3.933.615 8.299 4.418 10.038 14.132 6.464 21.316 19.389 24.955 31.485-8.264.571-16.411 2.383-24.233 5.349-16.125-13.802-34.834-15.222-52.003-3.738-3.431 2.295-4.823 6.821-2.903 10.476a7.976 7.976 0 0 0 11.554 2.922c9.207-6.246 18.341-6.78 27.258-1.649a96.953 96.953 0 0 0-16.378 12.966c-16.493 16.211-26.248 37.018-27.471 58.586-1.395 24.363 7.187 47.828 23.258 65.848-7.36 12.011-20.379 18.045-31.013 21.053 5.953-13.73 9.67-36.091-2.427-68.319-12.503-33.29-12.922-88.096 8.201-118.593 9.542-13.779 22.4-20.791 38.219-20.846 4.28-.015 7.984-3.369 8.155-7.645a7.973 7.973 0 0 0-7.966-8.3c-21.145 0-38.958 9.583-51.516 27.713-24.385 35.204-24.245 95.41-10.023 133.277 17.689 47.126-3.716 66.798-4.566 67.553a7.974 7.974 0 0 0 5.377 14.064c1.761-.052 40.457-1.538 59.467-29.004 18.845 13.776 45.301 20.376 48.878 21.335v67.682A7.972 7.972 0 0 0 166.01 512h52.46a7.972 7.972 0 0 0 7.972-7.972v-68.703c26.764 2.514 51.537-.649 64.715-2.953v71.656a7.972 7.972 0 0 0 7.972 7.972h59.453a7.972 7.972 0 0 0 7.972-7.972V392.854c16.693-15.937 26.822-35.247 30.104-57.468.15-1.024.258-2.056.378-3.086a7.948 7.948 0 0 0 5.885 2.596 7.95 7.95 0 0 0 5.423-2.131c3.197-2.969 3.269-8.065.367-11.322a51.14 51.14 0 0 1-5.157-6.913c-3.256-5.208-1.521-8.549 16.228-20.638 13.262-9.033 28.292-19.272 28.292-35.974 0-27.679-40.488-33.375-58.936-34.532.296-3.716.772-7.116 1.475-10.044 14.904-6.987 26.449-18.829 34.337-35.275 7.579-15.802 11.422-35.077 11.422-57.288 0-6.478-.347-12.778-1.023-18.815 23.326-11.531 36.327-43.789 36.913-45.276a7.96 7.96 0 0 0-.391-6.713zM252.658 242.291c1.117-2.895 6.458-6.294 17.918-8.015a655.486 655.486 0 0 1-4.859 9.396 424.066 424.066 0 0 1-6.32 11.563c-4.607-5.002-7.95-9.809-6.739-12.944zm21.255 54.558c0 .222-.005.433-.014.637-5.925-4.358-10.785-8.951-14.312-13.604a63.936 63.936 0 0 0 2.729-3.436c5.955 5.853 11.597 12.119 11.597 16.403zm-88.319 199.206h-11.608v-5.894h11.608v5.894zm24.907 0h-8.962v-5.894h8.962v5.894zm0-21.839h-8.962v-43.003c2.912.714 5.907 1.346 8.962 1.911v41.092zm114.696 21.839h-18.092v-6.895h18.092v6.895zm25.416 0h-9.471v-6.895h9.471v6.895zm0-22.839h-9.471V411.6a144.29 144.29 0 0 0 9.471-5.911v67.527zm30.938-146.36c-11.488.765-23.69.17-36.382-1.811a7.973 7.973 0 0 0-2.458 15.754c9.975 1.557 19.709 2.338 29.107 2.338 2.351 0 4.675-.064 6.984-.162-4.24 15.518-12.86 29.163-25.746 40.661-6.689 5.986-14.638 11.442-23.628 16.216a7.973 7.973 0 0 0-4.232 7.041v66.324h-18.092V384.91c0-4.403-3.568-7.972-7.972-7.972s-7.972 3.57-7.972 7.972v31.241c-12.337 2.303-41.673 6.602-71.553 2.324-7.954-1.144-15.448-2.822-22.296-4.995a7.943 7.943 0 0 0-3.745-.932 7.972 7.972 0 0 0-7.972 7.972v53.697h-11.608v-44.151a7.982 7.982 0 0 0-6.445-7.825c-.088-.017-31.408-5.717-54.548-24.769C96.047 383.52 88.655 361.1 89.912 339.12c2.068-36.49 34.695-68.565 71.266-70.042a73.913 73.913 0 0 1 6.656.019 74.29 74.29 0 0 1 33.777 9.994 74.983 74.983 0 0 1 10.749 7.588c9.507 8.061 22.658 10.347 34.07 6.249 2.866 3.894 6.354 7.679 10.4 11.317a7.953 7.953 0 0 0-5.005 5.95 7.972 7.972 0 0 0 6.332 9.328c.601.115 3.107.552 6.485.552 3.325 0 7.494-.432 11.52-2.001 10.043 5.819 21.705 10.948 34.627 15.124a7.948 7.948 0 0 0 2.454.388 7.974 7.974 0 0 0 2.45-15.56c-10.029-3.241-19.34-7.2-27.556-11.617 1.035-2.595 1.72-5.741 1.72-9.558 0-11.265-9.126-20.865-18.726-30.069 4.752-8.128 10.542-19.009 17.779-33.616 6.938.065 12.025.565 12.204.584 4.375.454 8.296-2.734 8.747-7.112a7.97 7.97 0 0 0-7.113-8.747c-1.34-.138-3.482-.331-6.16-.49 1.901-3.963 3.888-8.148 5.962-12.553 16.001 10.272 34.363 15.674 53.675 15.674 6.06 0 11.852-.565 17.351-1.651-3.302 30.196 5.326 76.521 5.747 78.752l.049.239c2.181 9.876 2.892 19.599 2.179 28.994zm50.58-68.939c0 8.27-10.84 15.655-21.325 22.796-5.969 4.066-11.654 7.963-16.101 12.397-2.055-11.333-5.339-33.921-5.877-53.742 17.529 1.287 43.303 6.531 43.303 18.549zm-51.178-57.744c-7.259 2.919-15.578 4.399-24.727 4.399-19.031 0-36.974-6.222-51.888-17.993-14.479-11.429-24.914-27.523-29.384-45.315a7.975 7.975 0 0 0-12.849-4.171c-1.181.989-2.399 1.489-3.621 1.489-4.13 0-8.748-6.292-8.748-14.712s4.62-14.712 8.748-14.712c.638 0 1.27.153 1.911.432l17.303 26.848a7.971 7.971 0 0 0 14.132-1.429c3.651-9.388 16.59-35.012 32.413-40.766 8.194-2.979 14.91-2.712 22.023-2.429 8.287.33 17.466.695 26.837-5.345 7.608 7.762 22.892 19.595 45.35 19.595.423 0 .845-.032 1.268-.047.454 4.758.709 9.682.709 14.759 0 55.331-24.727 73.492-39.477 79.397z"/><path d="M368.448 300.313c-2.921-1.481-6.542-1.005-8.972 1.193-5.294 4.786-1.766 13.884 5.36 13.884 3.835 0 7.175-2.856 7.848-6.614.608-3.394-1.169-6.907-4.236-8.463zm-9.803-192.665a7.972 7.972 0 0 0-7.972 7.972v13.404a7.971 7.971 0 0 0 7.972 7.972 7.97 7.97 0 0 0 7.972-7.972V115.62a7.971 7.971 0 0 0-7.972-7.972zm34.027 0a7.972 7.972 0 0 0-7.972 7.972v13.404a7.971 7.971 0 0 0 7.972 7.972 7.972 7.972 0 0 0 7.972-7.972V115.62a7.97 7.97 0 0 0-7.972-7.972zm2.966 48.078a7.97 7.97 0 0 0-11.274 0 11.086 11.086 0 0 1-7.893 3.269 11.087 11.087 0 0 1-7.892-3.269c-3.113-3.112-8.162-3.114-11.274 0a7.97 7.97 0 0 0-.001 11.275c5.119 5.119 11.928 7.94 19.167 7.94 7.241 0 14.048-2.82 19.168-7.94a7.973 7.973 0 0 0-.001-11.275z"/></svg>