<svg xmlns="http://www.w3.org/2000/svg" viewBox="0 0 511.999 511.999"><path d="M490.924 297.567c-13.716-19.551-29.142-31.306-29.792-31.797a8.056 8.056 0 0 0-10.552 12.126c13.798 13.798 20.664 31.236 19.333 49.104-1.27 17.058-9.932 33.088-23.174 42.88l-.038.031c-.066.049-.133.095-.197.146l-.074.058-.052.04c-7.866 5.709-20.889 11.829-38.337 8.663-.185-.033-.365-.073-.549-.107 4.512-3.802 9.027-8.915 12.429-15.708 8.296-16.569 7.451-37.599-2.511-62.505a8.043 8.043 0 0 0-8.837-4.933c-3.743.639-6.533 3.822-6.693 7.617-.009.183-.917 18.368-13.332 28.305-7.046 5.639-16.792 7.741-28.994 6.29-12.987-39.207 3.479-91.551 3.677-92.17.953-3.075 22.985-75.971-7.815-132.534-14.971-27.492-39.803-46.26-73.81-55.782-14.955-4.186-58.604-9.692-98.078.004a8.057 8.057 0 0 0-5.902 9.745c1.062 4.321 5.43 6.965 9.745 5.901 36.013-8.846 76.812-3.797 89.89-.136 29.63 8.298 51.151 24.415 63.968 47.906 23.705 43.452 11.681 100.512 7.735 116.013-9.345 1.977-16.219-1.818-27.383-8.648-10.212-6.247-22.919-14.021-41.278-15.822-25.957-2.544-45.662 12.87-60.043 24.127-5.81 4.548-13.041 10.206-15.931 10.206-8.31 0-11.429-12.851-11.479-13.063-.982-4.321-5.273-7.044-9.603-6.078a8.055 8.055 0 0 0-6.116 9.611c.14.628 1.467 6.31 5.018 12.12 5.329 8.72 13.205 13.522 22.179 13.522 8.446 0 16.131-6.015 25.861-13.631 12.919-10.112 28.996-22.694 48.541-20.779 14.677 1.439 24.725 7.586 34.44 13.531 9.417 5.76 19.073 11.661 31.294 11.546-4.798 20.393-11.541 61.525 1.671 94.65 6.953 17.474 18.525 30.426 34.426 38.56-23.345-3.468-50.779-17.185-78.809-52.232-12.506-17.939-33.606-27.301-55.183-24.446-25.217 3.336-45.135 22.474-49.563 47.62-.727 4.13-1.6 8.179-2.588 12.088-28.866 22.969-54.716 34.445-77.039 34.229.681-.303 1.361-.599 2.041-.93 14.189-6.907 22.779-21.476 25.53-43.296 4.102-32.313-4.455-77.15-12.73-120.513-5.106-26.759-9.93-52.034-11.515-72.822-2.94-38.61 9.774-66.266 37.791-82.199a8.055 8.055 0 0 0 3.02-10.985 8.055 8.055 0 0 0-10.985-3.02c-15.691 8.923-27.592 21.039-35.374 36.01-8.794 16.918-12.332 37.582-10.518 61.419 1.654 21.692 6.56 47.4 11.754 74.618 7.636 40.012 15.51 81.308 13.044 110.872-12.233 4.674-33.437 9.812-47.69 3.516-6.519-2.881-11.122-7.896-14.031-15.275 4.852-14.55 16.65-26.274 33.506-33.17a8.054 8.054 0 0 0-1.47-15.354c-.749-.149-15.142-2.928-33.098.145 5.658-14.107 16.306-24.76 25.945-34.401a8.055 8.055 0 0 0-4.088-13.591c-1.396-.284-34.485-6.724-58.397 14.613-17.489 15.606-24.989 41.357-22.32 76.548-11.713 23.752-10.179 51.997 4.252 76.051 18.047 30.078 52.654 48.036 92.573 48.036 23.82 0 44.362-5.812 61.141-17.273 4.418 1.38 11.748 3.076 21.133 3.076 12.207 0 27.876-2.87 45.079-13.035 11.541-6.822 19.914-18.235 25.035-34.004 10.036 13.031 26.508 29.932 47.024 34.556a49.506 49.506 0 0 0 10.909 1.236c8.84 0 17.511-2.473 25.924-7.388 18.795 16.235 44.516 25.174 70.897 25.174 8.859 0 17.796-1.009 26.565-3.086a8.056 8.056 0 0 0 5.981-9.696 8.052 8.052 0 0 0-9.696-5.982c-22.753 5.391-47.421 2.161-67.184-7.932.162-.392.296-.799.395-1.221 1.698-7.267-6.938-12.682-12.784-8.176-.364.28-.691.582-.986.898a73.254 73.254 0 0 1-6.628-5.852c-6.619-6.619-16.932-18.33-26.058-34.629 26.917 21.023 52.213 26.795 71.835 26.794 2.299 0 4.522-.08 6.657-.222 30.749-2.054 52.189-17.265 56.146-20.274l.307-.236.002-.001a.022.022 0 0 1 .008-.005l.035-.027c.014-.011.029-.025.044-.035 16.91-12.548 27.963-32.938 29.575-54.569.187-2.508.247-5.009.186-7.494 8.304 16.161 11.316 32.309 9.001 48.222-2.634-2.697-7.055-3.622-10.569-1.014-2.708 2.01-3.882 5.576-2.912 8.805 1.006 3.351 4.203 5.723 7.706 5.723.936 0 1.843-.17 2.693-.478-6.111 18.986-18.319 33.918-35.656 43.421a8.057 8.057 0 1 0 7.744 14.129c23.46-12.858 39.189-33.809 45.489-60.589 6.302-26.774-.177-54.905-18.733-81.356zM75.243 371.236c7.118 3.145 14.894 4.314 22.52 4.314 10.385 0 20.487-2.168 28.276-4.461-2.884 8.565-7.405 14.278-13.665 17.325-16.43 8.002-31.576 4.592-40.518-9.121-2.602-3.992-4.437-8.539-5.497-13.35a41.832 41.832 0 0 0 8.884 5.293zm-46.796-81.044c1.367 1.346 3.229 2.223 5.456 2.223 3.805 0 7.147-2.771 7.895-6.488.65-3.231-.818-6.611-3.592-8.375a7.79 7.79 0 0 0-2.193-.946 41.87 41.87 0 0 1 4.741-5.035c8.593-7.716 19.217-10.541 27.933-11.393-8.799 10.064-16.961 22.185-20.446 37.867-9.382 3.8-17.591 9.134-24.576 15.954.606-9.038 2.198-16.987 4.782-23.807zm131.216 137.195c-8.664 6.56-18.744 11.178-30.112 13.855-2.334-3.83-7.837-5.529-11.918-2.336-1.499 1.173-2.466 2.847-2.851 4.651-3.302.279-6.682.435-10.16.435-8.375 0-16.461-.906-24.123-2.637 2.344-1.047 4.15-3.19 4.683-5.793 1.489-7.27-7.308-12.461-13.011-7.799-2.654 2.17-3.637 5.925-2.4 9.12a7.96 7.96 0 0 0 .965 1.741c-19.244-6.462-35.073-18.517-44.87-34.846-11.932-19.886-12.96-43.188-2.75-62.332 7.774-14.577 19.477-24.612 34.787-29.83 4.278-1.462 8.521-2.436 12.541-3.066-9.206 8.481-15.713 18.911-18.979 30.716l.003.001a.126.126 0 0 0-.003.01c-4.604 16.646-2.113 34.696 6.643 48.406.704 1.237 14.641 25.07 45.706 30.959a75.687 75.687 0 0 0 14.132 1.308c20.401 0 42.697-7.823 66.621-23.351-6.43 12.795-14.755 23.108-24.904 30.788zM329.017 415.3c-7.049 3.251-14.114 4.048-21.402 2.414-22.988-5.156-41.115-32.548-45.947-40.49a159.974 159.974 0 0 0 1.179-15.566 8.056 8.056 0 0 0-7.831-8.274c-4.433-.12-8.153 3.383-8.275 7.831-.159 5.783-.626 11.347-1.391 16.549-3.008 20.68-10.266 34.555-21.571 41.237-17.357 10.257-32.465 11.522-42.58 10.573 12.713-13.52 22.124-31.255 28.035-52.959.029-.096.065-.187.092-.284a183.903 183.903 0 0 0 3.551-16.023c3.203-18.191 17.593-32.032 35.809-34.441 15.668-2.072 31.002 4.797 40.033 17.94a42.737 42.737 0 0 1 5.393 10.887c9.051 27.516 23.842 48.034 34.905 60.606zm75.933-58.437c-2.467-2.175-6.182-2.942-9.441-1.004-3.145 1.869-4.605 5.755-3.566 9.245.414 1.391 1.222 2.596 2.259 3.549a36.673 36.673 0 0 1-6.393 3.523c-8.262-4.262-15.025-10.235-20.223-17.851 12.32-.142 22.769-3.597 31.168-10.373 4.407-3.555 7.806-7.694 10.425-11.936.886 9.054-.299 16.933-3.561 23.564-.217.439-.44.865-.668 1.283z"/><path d="M31.899 365.664c-2.822-1.516-6.39-1.157-8.874.852-5.773 4.669-2.329 14.309 5.079 14.309 3.828 0 7.202-2.816 7.912-6.566.649-3.423-1.052-6.949-4.117-8.595zm8.697 34.816c-5.549 4.758-2.097 14.18 5.231 14.18 3.803 0 7.147-2.773 7.895-6.488 1.475-7.324-7.45-12.559-13.126-7.692zm410.725 1.695c-5.445 4.812-1.902 14.097 5.333 14.097 3.956 0 7.371-2.985 7.965-6.876 1.111-7.288-7.824-12.06-13.298-7.221zm-44.889 14.31c-5.73 4.681-2.291 14.287 5.109 14.287 3.709 0 7.002-2.646 7.843-6.243 1.717-7.335-7.133-12.798-12.952-8.044zm-178.92-31.084c-3.046-2.008-7.162-1.731-9.878.729-5.346 4.845-1.801 14.029 5.409 14.029 3.77 0 7.1-2.73 7.881-6.404.676-3.172-.699-6.568-3.412-8.354zm7.892-41.994c-2.939-1.865-6.892-1.582-9.534.683-5.552 4.76-2.092 14.18 5.231 14.18 3.791 0 7.159-2.763 7.905-6.477.65-3.237-.827-6.625-3.602-8.386zm42.14 23.138c-2.54 2.093-3.567 5.617-2.534 8.746 1.075 3.26 4.209 5.534 7.649 5.534 3.814 0 7.134-2.772 7.896-6.488 1.484-7.255-7.318-12.486-13.011-7.792zm-28.107-183.076l-3.995-18.378a8.057 8.057 0 0 0-15.744 3.423l3.995 18.378a8.06 8.06 0 0 0 7.865 6.346 8.055 8.055 0 0 0 7.879-9.769zm51.801-26.458a8.06 8.06 0 0 0-8.414 7.682l-.962 21.168a8.056 8.056 0 1 0 16.095.732l.962-21.168a8.056 8.056 0 0 0-7.681-8.414zm-52.024-19.325c-4.895-1.522-9.165-4.083-12.694-7.61-7.162-7.162-14.526-10.107-21.893-8.758-11.085 2.033-16.362 13.115-16.928 14.373-1.825 4.058-.029 8.858 4.028 10.683 4.057 1.824 8.812.046 10.637-4.011.693-1.467 2.962-4.813 5.193-5.202 1.774-.308 4.526 1.264 7.569 4.307 5.394 5.394 11.888 9.298 19.303 11.603a8.075 8.075 0 0 0 2.394.365 8.062 8.062 0 0 0 7.692-5.666 8.054 8.054 0 0 0-5.301-10.084zm80.614-6.292c-.565-1.257-5.842-12.339-16.927-14.373-7.366-1.353-14.733 1.596-21.895 8.758-3.527 3.527-7.798 6.088-12.693 7.61a8.057 8.057 0 0 0 2.389 15.75c.792 0 1.597-.118 2.394-.365 7.415-2.305 13.91-6.209 19.304-11.603 3.042-3.043 5.8-4.614 7.568-4.307 2.227.387 4.492 3.72 5.189 5.192a8.055 8.055 0 0 0 10.627 3.988 8.054 8.054 0 0 0 4.044-10.65z"/></svg>