<svg xmlns="http://www.w3.org/2000/svg" viewBox="0 0 512.002 512.002"><path d="M257.561 85.491a8.312 8.312 0 0 0-8.312 8.312v16.395a8.312 8.312 0 0 0 16.624 0V93.802a8.311 8.311 0 0 0-8.312-8.311zm29.278 0a8.312 8.312 0 0 0-8.312 8.312v16.395a8.312 8.312 0 0 0 16.624 0V93.802a8.311 8.311 0 0 0-8.312-8.311zm38.83 395.762c-5.994-5.997-13.961-9.299-22.435-9.299h-19.795v-43.543a103.378 103.378 0 0 0 10.388-9.359c19.337-19.959 29.504-46.165 28.629-73.792-.145-4.588-4.006-8.175-8.57-8.045a8.313 8.313 0 0 0-8.045 8.571c.731 23.089-7.775 45-23.953 61.698-16.134 16.652-37.803 25.824-61.018 25.824h-1.842v-13.634c0-14.549-5.989-28.767-16.429-39.012-10.313-10.117-23.827-15.545-38.008-15.268-28.871.552-52.361 24.503-52.361 53.39 0 10.808 3.287 21.115 9.083 29.749l-73.708-8.647a208.077 208.077 0 0 0 37.172-30.333 8.312 8.312 0 0 0-11.918-11.588 191.47 191.47 0 0 1-55.423 39.659 8.311 8.311 0 1 0 2.592 15.765l124.793 14.641a13.971 13.971 0 0 1 7.226 12.238c0 17.498 14.235 31.734 31.733 31.734h142.875a8.312 8.312 0 0 0 8.312-8.312c-.001-8.472-3.302-16.44-9.298-22.437zm-141.888 14.122v.001c-8.332 0-15.11-6.778-15.11-15.111 0-12.043-7.088-22.999-18.057-27.912-13.219-5.919-21.76-19.097-21.76-33.571 0-19.894 16.174-36.389 36.056-36.769.23-.004.459-.007.688-.007 9.445 0 18.428 3.72 25.36 10.52 7.275 7.138 11.448 17.031 11.448 27.145v60.592a8.312 8.312 0 0 0 8.312 8.312h28.106c5.264 0 9.908 2.705 12.614 6.799h-67.657zm85.665.002c-3.663-13.478-15.999-23.422-30.621-23.422H219.03v-22.023h1.842c16.271 0 31.905-3.775 45.945-10.905v41.239a8.312 8.312 0 0 0 8.312 8.312h28.107c4.033 0 7.826 1.573 10.682 4.428a15.191 15.191 0 0 1 1.939 2.371h-46.411zm-.152-228.273c-15.031-15.032-46.312 3.209-52.43 7.019a8.309 8.309 0 0 0-2.663 11.441c2.422 3.896 7.546 5.092 11.444 2.674 11.78-7.307 28.279-12.996 31.895-9.38 6.351 6.352-1.263 20.313-1.325 20.425a8.31 8.31 0 0 0 7.196 12.458 8.305 8.305 0 0 0 7.21-4.166c5.311-9.225 11.011-28.133-1.327-40.471z"/><path d="M426.274 120.898c-15.145-27.619-44.103-44.777-75.574-44.777h-14.651c-8.595 0-16.274-4.471-20.04-11.669a39.238 39.238 0 0 0-30.656-20.875l-31.8-40.407a8.312 8.312 0 1 0-14.415 2.504l-11.439 34.221-39.527-24.59a8.31 8.31 0 1 0-12.638 8.088l5.5 44.041h-37.069a8.312 8.312 0 0 0-7.194 12.474l20.812 35.977-43.011 13.306a8.314 8.314 0 0 0-3.453 13.787l30.202 30.521-43.713 25.552a8.31 8.31 0 0 0-.391 14.107l30.403 20.112-35.468 24.688a8.312 8.312 0 0 0-.859 12.958l25.164 22.995-43.164 18.883a8.313 8.313 0 0 0-2.545 13.492l31.839 31.839c-3.484 6.204-7.293 12.231-11.458 18.024a8.312 8.312 0 0 0 1.897 11.601 8.27 8.27 0 0 0 4.844 1.564 8.302 8.302 0 0 0 6.756-3.461c20.554-28.594 33.638-62.201 37.837-97.189a930.514 930.514 0 0 1 5.753-40.387 928.538 928.538 0 0 1 36.688-146.499c8.497-25.017 31.953-41.827 58.367-41.827h37.85a22.688 22.688 0 0 1 20.156 12.206c6.644 12.697 19.966 20.584 34.769 20.584h14.651c25.399 0 48.773 13.851 61.001 36.151 2.13 3.879.607 7.259-.146 8.532-.76 1.286-3.012 4.274-7.488 4.274H270.795c-13.644 0-24.884 11.02-25.055 24.566-.132 10.444 3.864 20.264 11.25 27.649 7.256 7.257 16.9 11.253 27.156 11.253h97.401c4.468 0 8.163 3.516 8.237 7.835.104 6.265-2.255 12.172-6.644 16.634-4.391 4.464-10.254 6.923-16.513 6.923 0 0-114.516 6.437-126.603-9.974-1.913-2.598-3.428-4.494-3.428-7.478a8.312 8.312 0 0 0-16.624 0c0 7.586 3.035 14.397 8.779 19.695 13.789 12.721 41.558 14.861 58.682 14.861 2.3 0 4.404-.039 6.26-.095l9.031 65.977c.623 4.548 4.817 7.734 9.362 7.108a8.312 8.312 0 0 0 7.108-9.362l-4.359-31.845c11.041-5.856 23.886-9.73 27.024-6.591 6.351 6.352-1.263 20.313-1.325 20.425a8.31 8.31 0 1 0 14.404 8.293c5.313-9.227 11.012-28.135-1.325-40.472-10.497-10.498-28.917-4.766-41.161.944l-2.034-14.861h56.207c10.751 0 20.824-4.222 28.364-11.889 7.539-7.666 11.592-17.81 11.414-28.571-.156-9.126-5.432-17.087-13.068-21.201l16.248-33.804c6.766-1.486 12.632-5.67 16.275-11.83 4.595-7.756 4.748-17.101.416-24.99zM110.46 342.49l-19.345-19.345 30.621-13.395a193.39 193.39 0 0 1-11.276 32.74zm16.244-61.732l-16.518-15.094 20.728-14.429a952.001 952.001 0 0 0-4.21 29.523zm9.857-61.505l-19.032-12.589 24.71-14.445a947.787 947.787 0 0 0-5.678 27.034zm13.793-60.262l-17.78-17.967 24.927-7.712a944.401 944.401 0 0 0-7.147 25.679zm18.812-62.554c-.449 1.323-.884 2.653-1.328 3.98l-9.463-16.357h16.237a78.255 78.255 0 0 0-5.446 12.377zm27.532-37.726l-2.508-20.083 17.953 11.169a78.315 78.315 0 0 0-15.445 8.914zM244.08 43.33l5.939-17.769 13.985 17.769H244.08zm40.064 145.218c-5.814 0-11.284-2.267-15.401-6.384-4.19-4.19-6.457-9.76-6.382-15.685.041-3.27 2.06-6.09 4.924-7.387l22.609 29.457h-5.75zm3.511-30.221h37.607l-18.586 24.782-19.021-24.782zm35.719 30.22l18.904-25.204 21.342 25.204h-40.246zm56.237-6.84l-19.797-23.38h31.036l-11.239 23.38zm109.967-29.761c-6.279-6.279-14.627-9.738-23.508-9.738-8.88 0-17.228 3.459-23.508 9.738l-17.631 17.631a8.31 8.31 0 0 0 0 11.754l17.631 17.631c6.279 6.279 14.627 9.738 23.508 9.738 8.88 0 17.228-3.459 23.508-9.737 6.279-6.279 9.738-14.628 9.738-23.509s-3.459-17.228-9.738-23.508zm-11.755 35.262a16.512 16.512 0 0 1-11.754 4.868c-4.44 0-8.613-1.729-11.753-4.868l-11.754-11.754 11.754-11.754a16.512 16.512 0 0 1 11.753-4.868c4.44 0 8.614 1.729 11.754 4.868a16.51 16.51 0 0 1 4.868 11.754 16.505 16.505 0 0 1-4.868 11.754z"/></svg>