<svg xmlns="http://www.w3.org/2000/svg" viewBox="0 0 512 512"><path d="M350.426 29.703a74.568 74.568 0 0 0-24-7.714C317.082 8.331 301.498 0 284.832 0A50.179 50.179 0 0 0 256 9.077 50.174 50.174 0 0 0 227.168 0c-16.667 0-32.253 8.332-41.596 21.992-17.776 2.557-34.102 11.449-45.947 24.98a55.189 55.189 0 0 0-15.176-2.115c-30.531 0-55.369 24.838-55.369 55.369 0 9.901 2.585 19.433 7.521 27.875-5.515 9.142-8.405 19.526-8.405 30.346 0 18.019 8.408 35.082 22.362 46.167-5.617 10.724-8.557 22.637-8.557 34.866 0 9.979 1.924 19.677 5.719 28.825a7.895 7.895 0 0 0 7.293 4.87 7.893 7.893 0 0 0 7.286-10.918c-2.996-7.221-4.514-14.884-4.514-22.777a59.242 59.242 0 0 1 9.873-32.817 7.896 7.896 0 0 0-2.548-11.143c-13.034-7.745-21.131-21.951-21.131-37.074 0-9.294 2.912-18.148 8.42-25.604a7.892 7.892 0 0 0 .035-9.332c-4.953-6.808-7.571-14.859-7.571-23.284 0-21.828 17.758-39.585 39.585-39.585 5.12 0 10.126.974 14.875 2.896a7.89 7.89 0 0 0 9.281-2.591c10.134-13.557 25.568-22.194 42.344-23.696a7.89 7.89 0 0 0 6.151-3.951c6.161-10.803 17.682-17.514 30.068-17.514a34.474 34.474 0 0 1 23.473 9.203 7.892 7.892 0 0 0 10.718 0 34.468 34.468 0 0 1 23.472-9.203c12.386 0 23.908 6.711 30.068 17.515a7.89 7.89 0 0 0 6.154 3.951 58.965 58.965 0 0 1 22.086 6.453 7.893 7.893 0 0 0 7.288-14.001z"/><path d="M443.804 158.446a58.815 58.815 0 0 0-27.926-50.115 29.34 29.34 0 0 0 2.156-11.041c0-16.217-13.198-29.41-29.421-29.41-1.069 0-2.133.058-3.188.174-2.869-7.042-6.79-13.583-11.705-19.519a7.892 7.892 0 0 0-12.158 10.066 58.99 58.99 0 0 1 11.221 21.054 7.892 7.892 0 0 0 10.585 5.064 13.68 13.68 0 0 1 5.246-1.053c7.519 0 13.637 6.112 13.637 13.627 0 4.225-1.84 7.209-3.385 8.967a7.889 7.889 0 0 0 2.85 12.472 43.07 43.07 0 0 1 26.304 39.717c0 15.122-8.097 29.328-21.131 37.074a7.895 7.895 0 0 0-2.548 11.143 59.247 59.247 0 0 1 9.873 32.817 59.463 59.463 0 0 1-40.712 56.49 7.892 7.892 0 0 0-5.396 7.639l.014.587c.008.314.017.63.017.954 0 19.06-15.506 34.566-34.566 34.566-2.575 0-5.141-.29-7.628-.862a7.855 7.855 0 0 0-1.769-.201h-1.357V237.295a39.79 39.79 0 0 0 15.327-10.807c7.046-8.026 10.544-18.316 9.852-28.974-.283-4.35-4.042-7.65-8.387-7.362a7.893 7.893 0 0 0-7.364 8.387c.42 6.45-1.698 12.678-5.963 17.537a24.047 24.047 0 0 1-16.617 8.184 24.01 24.01 0 0 1-14.227-3.53 7.892 7.892 0 0 0-10.757 2.424c-6.338 9.766-16.624 15.8-28.221 16.554a36.426 36.426 0 0 1-34.83-19.806 7.89 7.89 0 0 0-12.539-2.06 24.195 24.195 0 0 1-15.314 6.823 24.048 24.048 0 0 1-17.537-5.963 24.045 24.045 0 0 1-8.184-16.617 7.89 7.89 0 0 0-8.387-7.362 7.893 7.893 0 0 0-7.364 8.387c.693 10.658 5.496 20.408 13.522 27.454 6.605 5.798 14.741 9.187 23.356 9.823v98.269h-1.357c-.596 0-1.189.067-1.769.201a34.13 34.13 0 0 1-7.628.862c-19.06 0-34.566-15.506-34.566-34.566 0-.477.019-.937.037-1.396a7.894 7.894 0 0 0-5.393-7.786c-8.976-2.989-17.227-8.175-23.864-14.994a7.892 7.892 0 0 0-11.312 11.007 75.828 75.828 0 0 0 24.89 16.97c1.949 25.996 23.723 46.549 50.208 46.549 3.45 0 6.894-.358 10.253-1.063h.502v15.014c-10.516-3.525-20.863-4.782-30.88-3.725a7.893 7.893 0 0 0-7.064 7.848v10.776a7.893 7.893 0 0 0 3.914 6.816c20.399 11.903 31.623 36.357 34.029 42.072v3.746c0 15.41-12.537 27.948-27.948 27.948a7.892 7.892 0 0 0 0 15.784h27.535c3.835 0 7.291 1.805 9.483 4.952 2.191 3.147 2.684 7.015 1.354 10.611l-1.883 5.09a7.893 7.893 0 0 0 11.535 9.462l30.584-18.808c9.966-6.127 22.347-6.128 32.312 0l30.585 18.808a7.873 7.873 0 0 0 4.133 1.169 7.891 7.891 0 0 0 7.402-10.63l-1.884-5.091c-1.331-3.597-.837-7.465 1.354-10.612 2.191-3.147 5.647-4.952 9.482-4.952h27.535a7.892 7.892 0 0 0 0-15.784c-15.41 0-27.948-12.537-27.948-27.947v-20.762a7.892 7.892 0 0 0-15.784 0v20.762c0 10.89 4.001 20.862 10.61 28.525a27.333 27.333 0 0 0-21.457 22.762l-15.764-9.693c-15.065-9.263-33.782-9.263-48.847 0l-15.764 9.693a27.315 27.315 0 0 0-4.607-11.622 27.352 27.352 0 0 0-16.848-11.14c6.609-7.663 10.61-17.636 10.61-28.525v-198.6a40.057 40.057 0 0 0 7.55-3.437 52.188 52.188 0 0 0 44.968 20.509c14.008-.911 27.095-7.529 36.185-18.052a39.608 39.608 0 0 0 13.363 2.663v154.057a7.892 7.892 0 0 0 15.784 0v-39.69h.501a49.967 49.967 0 0 0 10.253 1.063c26.481 0 48.252-20.55 50.207-46.538a75.221 75.221 0 0 0 46.221-69.482c0-12.23-2.939-24.142-8.557-34.866 13.958-11.086 22.366-28.149 22.366-46.168zm-254.621 243.25c-5.301-7.135-12.043-14.484-20.317-20.422 6.572.456 13.368 2.133 20.317 5.019v15.403z"/><path d="M253.864 269.247a7.892 7.892 0 0 0-7.892 7.892v26.274a7.892 7.892 0 0 0 15.784 0v-26.274a7.892 7.892 0 0 0-7.892-7.892zm31.536 0a7.892 7.892 0 0 0-7.892 7.892v26.274a7.892 7.892 0 0 0 15.784 0v-26.274a7.893 7.893 0 0 0-7.892-7.892zm10.213 51.816c-5.181-4.141-11.268-2.764-16.639-1.549-2.742.62-5.578 1.262-8.304 1.262s-5.562-.642-8.304-1.262c-5.371-1.214-11.457-2.592-16.639 1.549-4.995 3.99-5.573 10.755-5.573 15.496 0 21.832 13.403 38.933 30.515 38.933 17.112 0 30.515-17.101 30.515-38.933 0-4.741-.578-11.506-5.571-15.496zm-24.945 38.645c-7.985 0-14.731-10.601-14.731-23.149.001-.941.038-1.684.091-2.262a86.95 86.95 0 0 1 2.855.611c3.251.736 7.297 1.651 11.787 1.651 4.49 0 8.536-.915 11.786-1.651.885-.2 1.94-.439 2.855-.611.053.579.089 1.322.089 2.262-.001 12.548-6.747 23.149-14.732 23.149zm37.766-238.519c-19.581 0-35.512 15.931-35.512 35.512s15.931 35.512 35.512 35.512 35.512-15.931 35.512-35.512c-.001-19.581-15.931-35.512-35.512-35.512zm0 55.239c-10.878 0-19.728-8.85-19.728-19.728s8.85-19.728 19.728-19.728 19.728 8.85 19.728 19.728c-.001 10.879-8.85 19.728-19.728 19.728zM172.982 80.862c-19.581 0-35.512 15.931-35.512 35.512s15.931 35.512 35.512 35.512 35.512-15.931 35.512-35.512-15.931-35.512-35.512-35.512zm0 55.239c-10.878 0-19.728-8.85-19.728-19.728s8.85-19.728 19.728-19.728 19.728 8.85 19.728 19.728-8.85 19.728-19.728 19.728z"/></svg>