<svg xmlns="http://www.w3.org/2000/svg" viewBox="0 0 512.001 512.001"><path d="M389.889 468.526c-.844-13.873-2.115-27.437-3.783-40.312-.574-4.437-4.652-7.559-9.073-6.994a8.102 8.102 0 0 0-6.994 9.074c1.619 12.511 2.856 25.704 3.674 39.211.419 6.899-1.958 13.468-6.693 18.497-4.73 5.026-11.138 7.794-18.043 7.794-12.953 0-23.571-9.793-24.696-22.779-6.202-71.518-30.8-134.188-31.844-136.822-.009-.022-.023-.039-.032-.059a8.067 8.067 0 0 0-4.514-4.485c-4.16-1.646-8.866.386-10.514 4.544-1.044 2.632-25.634 65.284-31.84 136.789-1.129 13.005-11.748 22.811-24.7 22.811-6.909 0-13.32-2.769-18.054-7.798-4.728-5.023-7.102-11.581-6.684-18.467 2.05-33.859 8.736-96.208 30.482-133.356a8.1 8.1 0 0 0-2.899-11.083 8.1 8.1 0 0 0-11.084 2.899c-8.342 14.251-18.225 37.932-25.198 76.084-8.246-.377-22.682-2.584-29.526-12.942-8.674-13.127-4.02-37.122 13.46-69.391a8.102 8.102 0 0 0-14.246-7.718c-9.844 18.174-15.983 34.228-18.415 48.083-8.354-2.509-14.319-6.823-18.1-13.084-9.779-16.189-1.998-40.448-1.317-42.483 1.026-2.481 12.593-29.944 31.935-55.863A275.19 275.19 0 0 0 165.205 230a8.103 8.103 0 0 0-2.673-11.141 8.1 8.1 0 0 0-11.14 2.672 259.508 259.508 0 0 1-13.185 19.454c-21.416 28.697-33.541 58.409-34.046 59.659a7.882 7.882 0 0 0-.12.315c-.474 1.333-11.481 32.913 2.616 56.361 6.452 10.732 16.845 17.86 30.934 21.263.501 8.224 2.747 15.397 6.766 21.479 10.234 15.488 28.808 19.314 40.416 20.111-2.077 14.314-3.755 30.358-4.846 48.377-.69 11.391 3.237 22.241 11.058 30.552 7.828 8.316 18.429 12.895 29.852 12.895 21.421 0 38.98-16.17 40.841-37.613 3.866-44.54 15.436-86.361 23.233-110.614 7.796 24.241 19.362 66.042 23.231 110.644C309.999 495.843 327.556 512 348.98 512c11.418 0 22.017-4.579 29.841-12.891 7.828-8.318 11.759-19.178 11.068-30.583z"/><path d="M387.564 249.103c-12.132-17.714-25.108-32.926-30.071-38.586l-.588-85.803a8.102 8.102 0 0 0-8.101-8.046h-50.271V81.097c16.723-5.518 28.624-21.418 28.624-39.512C327.157 18.655 308.502 0 285.572 0c-7.304 0-14.297 1.856-20.523 5.41C258.824 1.856 251.83 0 244.526 0c-22.93 0-41.585 18.655-41.585 41.585 0 18.093 11.901 33.993 28.624 39.512v35.571h-37.536a8.1 8.1 0 0 0-8.028 7.012l-.324 2.388c-3.512 25.896-11.246 51.122-22.992 74.977a8.1 8.1 0 0 0 3.69 10.847 8.098 8.098 0 0 0 10.846-3.69c11.819-24.005 19.83-49.325 23.841-75.332h139.696l.554 80.802c.399 58.239 7.539 116.991 21.223 174.624a362.402 362.402 0 0 1 3.776 18.025 8.102 8.102 0 0 0 9.432 6.501 8.1 8.1 0 0 0 6.501-9.433 379.504 379.504 0 0 0-3.947-18.836 783.75 783.75 0 0 1-3.362-14.891c7.155-7.688 24.646-27.81 35.214-51.296 6.633-14.733-.755-37.39-22.585-69.263zM282.332 74.716v41.954h-34.566V74.714a8.1 8.1 0 0 0-6.935-8.017c-12.364-1.798-21.689-12.594-21.689-25.112 0-13.996 11.387-25.383 25.383-25.383 2.507 0 4.947.379 7.284 1.079l-3.425 3.593a8.102 8.102 0 0 0 11.726 11.182l10.295-10.796c4.411-3.3 9.64-5.056 15.166-5.056 13.996 0 25.383 11.387 25.383 25.383 0 12.518-9.325 23.314-21.689 25.112a8.1 8.1 0 0 0-6.933 8.017zm113.043 237.003c-6.724 14.942-16.858 28.708-24.501 37.957-7.113-37.553-11.415-75.434-12.84-113.187 5.026 6.318 10.767 13.882 16.249 21.896 25.239 36.892 22.526 50.15 21.092 53.334zm-161.11 150.582a8.1 8.1 0 0 0-8.101 8.101 5.407 5.407 0 0 1-5.401 5.401 5.407 5.407 0 0 1-5.401-5.401 8.1 8.1 0 0 0-8.101-8.101 8.1 8.1 0 0 0-8.101 8.101c0 11.912 9.691 21.603 21.603 21.603s21.603-9.691 21.603-21.603a8.1 8.1 0 0 0-8.101-8.101zm128.537 0a8.1 8.1 0 0 0-8.101 8.101 5.407 5.407 0 0 1-5.401 5.401 5.407 5.407 0 0 1-5.401-5.401c0-4.474-3.626-8.101-8.101-8.101s-8.101 3.627-8.101 8.101c0 11.912 9.691 21.603 21.603 21.603s21.603-9.691 21.603-21.603a8.1 8.1 0 0 0-8.101-8.101z"/><path d="M279.091 159.861a8.1 8.1 0 0 0-8.101 8.101v23.763a8.1 8.1 0 0 0 8.101 8.101 8.1 8.1 0 0 0 8.101-8.101v-23.763a8.1 8.1 0 0 0-8.101-8.101zm34.564 0a8.1 8.1 0 0 0-8.101 8.101v23.763a8.101 8.101 0 0 0 16.202 0v-23.763a8.1 8.1 0 0 0-8.101-8.101zm2.285 73.588a8.1 8.1 0 0 0-10.247-5.124c-15.569 5.19-39.338-6.241-47.181-11.084a8.103 8.103 0 0 0-11.147 2.617 8.1 8.1 0 0 0 2.611 11.155c1.165.724 24.183 14.816 46.806 14.816 4.765 0 9.515-.625 14.035-2.132a8.101 8.101 0 0 0 5.123-10.248z"/></svg>