<svg xmlns="http://www.w3.org/2000/svg" viewBox="0 0 512.005 512.005"><path d="M320.84 125.604a8.335 8.335 0 0 0-8.336 8.336v20.005a8.335 8.335 0 0 0 8.336 8.336 8.335 8.335 0 0 0 8.336-8.336V133.94a8.335 8.335 0 0 0-8.336-8.336zm56.68 0a8.335 8.335 0 0 0-8.336 8.336v20.005a8.335 8.335 0 0 0 8.336 8.336 8.335 8.335 0 0 0 8.336-8.336V133.94a8.335 8.335 0 0 0-8.336-8.336zm1.543 54.64H318.3a8.335 8.335 0 0 0-8.336 8.336c0 7.007 1.889 13.865 5.452 19.811 6.941 11.665 19.686 18.911 33.26 18.911 13.567 0 26.315-7.243 33.259-18.89a38.595 38.595 0 0 0 5.464-19.833 8.335 8.335 0 0 0-8.336-8.335zm-11.437 19.616c-4.022 6.744-11.106 10.771-18.949 10.771-7.846 0-14.922-4.023-18.946-10.785a21.643 21.643 0 0 1-1.464-2.93h40.83a21.732 21.732 0 0 1-1.471 2.944z"/><path d="M465.1 176.391c-3.938-3.94-10.842-3.111-13.537 2.486-1.513 3.14-.68 6.865 1.781 9.334 4.346 4.36 5.891 9.047 6.191 13.081l-1.867-1.268c-3.777-2.565-9.047-1.892-11.724 1.807a8.334 8.334 0 0 0 2.067 11.788l5.651 3.837c-22.344 28.909-63.56 37.296-84.954 39.724 29.522-14.984 46.534-49.091 47.283-95.432 5.066-6.327 8.623-15.301 10.584-26.748 1.44-8.401 1.533-15.435 1.536-16.902.144-2.886.956-25.761-7.838-50.707-12.493-35.444-38.257-57.853-74.506-64.805-30.047-5.762-59.13-1.882-86.448 11.536-4.126 2.026-6.166 6.975-4.235 11.147a8.337 8.337 0 0 0 11.262 3.977c24.088-11.911 49.75-15.372 76.279-10.284a.925.925 0 0 1 .056.011c3.691.71 6.887 3.023 8.787 6.265 8.975 15.305 5.538 26.997 4.395 29.98-2.196 2.543-10.65 11.699-26.202 21.292-16.811 10.368-45.593 23.365-87.235 26.405-6.081.436-12.492.66-19.057.668-4.547.004-8.507 3.518-8.653 8.062a8.336 8.336 0 0 0 8.331 8.61c2.247 0 4.471-.033 6.683-.081a106.496 106.496 0 0 0-3.016 9.038 21.648 21.648 0 0 0-2.177-.11c-14.777 0-26.352 14.402-26.352 32.788s11.576 32.788 26.352 32.788c1.42 0 2.825-.138 4.206-.408.98 2.781 2.087 5.511 3.291 8.191-5.316 6.266-10.872 11.876-16.592 16.778-17.261-11.81-29.199-25.582-35.603-41.053l6.96-4.725c3.508-2.382 4.923-7.024 3.001-10.803a8.339 8.339 0 0 0-12.13-3.15l-2.156 1.464c.299-4.046 1.853-8.742 6.216-13.107 2.342-2.343 3.231-5.848 1.933-8.897-1.42-3.334-4.266-5.087-7.203-5.306 3.552-7.981 7.002-15.524 10.599-22.267 8.84-16.576 28.254-47.658 59.064-69.898 3.678-2.654 4.836-7.806 2.314-11.576-2.634-3.939-7.984-4.881-11.798-2.14-33.697 24.223-54.744 57.868-64.29 75.766-4.704 8.817-9.014 18.558-13.576 28.871-4.412 9.972-8.958 20.229-14.009 29.921-25.129-2.63-58.394-1.021-84.632 18.275-17.483 12.857-23.518 27.619-23.767 28.242l.002.001a8.336 8.336 0 0 0 2.22 9.336c.782.691 19.486 17.077 47.673 29.632 21.007 9.357 41.725 14.051 61.482 14.051 13.476 0 26.503-2.194 38.868-6.572 12.546 19.143 29.082 33.976 49.32 44.181-2.885 11.383-6.403 23.717-10.489 36.768-5.868 18.77-11.48 34.415-14.158 41.688h-24.646c-17.742 0-32.753 12.317-36.68 29.01-21.423-11.228-20.648-25.714-17.834-36.156 8.476-31.478.857-61.491-22.033-86.79-16.861-18.636-36.025-28.068-36.833-28.461a8.338 8.338 0 0 0-9.784 13.136c.46.501 45.695 50.631 19.928 98.202-8.159 15.063-9.855 30.365-5.043 45.479 8.404 26.391 34.651 44.66 47.14 52.093-.118.437-.246.871-.347 1.313a37.505 37.505 0 0 0-.988 8.56c0 10.053 3.916 19.514 11.04 26.651 7.124 7.111 16.589 11.028 26.65 11.028h227.411c17.631 0 32.721-11.982 36.693-29.121.655-2.795.986-5.674.986-8.557 0-10.06-3.916-19.524-11.033-26.656-5.648-5.648-12.778-9.273-20.514-10.53a37.401 37.401 0 0 0 6.692-19.22l.002-.039c.041-.74.069-1.495.069-2.25 0-10.053-3.916-19.514-11.033-26.645-6.54-6.54-15.058-10.372-24.203-10.957-1.801-6.046-3.298-12.521-4.462-19.329-1.886-11.051-2.919-23.11-3.103-35.945 22.776-3.161 43.271-11.65 61.004-25.326 3.375-2.603 4.492-7.364 2.303-11.021a8.34 8.34 0 0 0-12.279-2.338c-13.508 10.468-28.912 17.463-45.925 20.913a29.028 29.028 0 0 0 2.298-8.954c.749-8.34-1.736-13.87-4.929-17.497.162-1.328.318-2.653.494-3.978 14.642-.957 48.437-5.062 77.071-22.621-3.435 5.337-7.448 10.814-12.106 16.14-3.026 3.461-2.963 8.812.436 11.907a8.306 8.306 0 0 0 5.611 2.174 8.317 8.317 0 0 0 6.264-2.832c23.376-26.594 32.185-56.215 33.572-61.289 1.889-4.496 8.953-24.621-8.072-41.644zM56.436 207.43c8.578-11.607 30.748-32.1 79.067-29.147-8.862 13.485-18.061 22.416-28.436 27.689-14.043 7.136-30.679 7.623-50.631 1.458zm37.027 25.347a181.793 181.793 0 0 1-9.353-4.466c38.477-.961 59.416-29.089 72.613-52.994a243.329 243.329 0 0 0 2.854-5.337 41.32 41.32 0 0 0 1.897 6.72c.267 7.111 2.244 34.823 16.691 63.869-25.763 8.3-54.206 5.697-84.702-7.792zM404.382 72.454c4.377 12.234 6.102 24.108 6.757 32.573-10.422-6.023-26.474-19.015-39.078-45.724 1.737-5.517 3.729-16.13-.317-29.284 14.921 9.297 25.856 23.479 32.638 42.435zm-163.78 145.492a106.733 106.733 0 0 0 16.187 19.057 5.48 5.48 0 0 1-.666.47c-.804.479-2.459 1.169-4.506.393a185.323 185.323 0 0 1-21.239-9.61 165.493 165.493 0 0 0 10.224-10.31zm-43.378 22.875c-4.749-8.121-8.32-16.363-11.004-24.137 7.144 7.181 15.6 13.841 25.341 19.945 12.952 8.134 25.725 13.642 34.154 16.828 6.27 2.379 13.173 1.774 18.938-1.659a21.958 21.958 0 0 0 5.25-4.362c17.632 11.892 38.57 18.367 59.991 18.367 5.922 0 11.615-.503 17.055-1.47l-.142.912c-.276 1.804-.522 3.632-.774 5.456a51.27 51.27 0 0 0-3.803-.498c-15.986-1.43-27.443 3.884-31.517 14.125l-6.624 1.18c-2.227-7.047-8.385-13.933-23.544-15.305-17.248-1.544-29.23 4.765-32.346 16.643-21.655-9.741-38.807-25.214-50.975-46.025zm76.472 81.388c.857.077 1.711.116 2.563.116 9.239 0 18.081-4.476 23.527-12.056l.01-.013a28.867 28.867 0 0 0 3.916-7.745l6.479-1.154c3.196 11.152 12.969 19.759 25.185 20.852.891.081 1.778.121 2.662.121 1.564 0 3.11-.138 4.631-.386.079 7.269.427 14.318 1.024 21.126l-11.643-7.742c-10.146-6.74-23.634-6.533-33.569.515l-12.847 9.128a12.924 12.924 0 0 1-12.531 1.384l-29.515-12.386c2.793-9.216 5.3-18.062 7.489-26.445 4.508 8.041 12.769 13.803 22.619 14.685zm-9.588-29.87c.43-4.763 6.581-5.696 11.33-5.696 1.38 0 2.643.079 3.612.166 10.029.907 9.76 3.917 9.421 7.717a12.098 12.098 0 0 1-2.228 6.021c-2.562 3.56-6.704 5.452-11.054 5.057-6.712-.602-11.682-6.556-11.081-13.265zm72.765 13.265c-6.71-.6-11.68-6.554-11.08-13.265.43-4.764 6.583-5.696 11.329-5.696 1.377 0 2.639.079 3.604.164 4.474.41 6.681 1.325 7.763 2.033.719.468 2.056 1.337 1.666 5.685a12.068 12.068 0 0 1-2.217 6.005c-.63.876-1.33 1.628-2.08 2.236l-.088.072a12.074 12.074 0 0 1-8.897 2.766zm-98.298 44.342l28.077 11.782c9.504 3.981 20.199 2.803 28.623-3.161l12.853-9.133c4.348-3.084 10.253-3.172 14.691-.224l23.853 15.862a184.1 184.1 0 0 0 2.916 12.863H229.023a950.87 950.87 0 0 0 9.552-27.989zm-105.237 99.741c-10.824-6.565-32.596-21.911-39.107-42.438-3.413-10.763-2.16-21.372 3.831-32.433 12.319-22.742 13.22-48.969 2.683-76.144 16.784 20.323 21.927 43.108 15.281 67.783-4.08 15.142-1.875 28.407 6.555 39.426 6.057 7.918 15.36 14.478 27.672 19.544a37.866 37.866 0 0 0 5.466 11.726 37.494 37.494 0 0 0-22.381 12.536zm270.778 9.758c3.451 3.459 5.551 7.904 6.041 12.693-7.083-.93-11.602-3.031-16.635-5.377-7.489-3.49-15.978-7.446-32.13-7.446a8.335 8.335 0 0 0-8.336 8.336 8.335 8.335 0 0 0 8.336 8.336c12.458 0 18.312 2.727 25.089 5.885 5.048 2.352 10.559 4.919 18.568 6.341-3.874 4.414-9.538 7.113-15.782 7.113H161.855a20.908 20.908 0 0 1-14.861-6.144c-3.45-3.457-5.548-7.897-6.041-12.68 7.089.93 11.611 3.032 16.647 5.378 7.49 3.489 15.979 7.444 32.13 7.444a94.18 94.18 0 0 0 5.735-.172c12.516-.805 19.889-4.241 26.392-7.274 6.78-3.161 12.634-5.891 25.101-5.891 12.456 0 18.309 2.729 25.085 5.888 7.489 3.492 15.979 7.449 32.131 7.449s24.641-3.958 32.131-7.449c1.748-.815 3.401-1.585 5.122-2.293a8.336 8.336 0 0 0 4.537-10.881 8.334 8.334 0 0 0-10.88-4.538c-2.075.854-3.981 1.743-5.823 2.601-6.778 3.16-12.629 5.888-25.086 5.888-12.457 0-18.31-2.729-25.086-5.888-7.489-3.492-15.978-7.449-32.13-7.449-16.163 0-24.655 3.959-32.146 7.452-5.92 2.76-11.032 5.144-20.395 5.745-1.503.092-3.08.14-4.688.14-12.457 0-18.312-2.727-25.089-5.885-5.045-2.351-10.552-4.915-18.55-6.336a20.938 20.938 0 0 1 15.764-7.129h227.411c5.615 0 10.891 2.184 14.85 6.143zm-39.645-64.838a20.882 20.882 0 0 1 14.861 6.155 21.57 21.57 0 0 1 2.163 2.574c-5.229-1.548-11.598-2.65-20.103-2.65-16.151 0-24.642 3.958-32.131 7.449-6.778 3.16-12.629 5.888-25.086 5.888-12.457 0-18.284-2.717-25.033-5.864a8.337 8.337 0 0 0-7.045 15.11c7.464 3.48 15.926 7.424 32.077 7.424s24.642-3.958 32.131-7.449c6.778-3.16 12.629-5.888 25.086-5.888 11.166 0 17.029 2.192 22.999 4.921-2.796 8.365-10.699 14.351-19.92 14.351H186.64a20.87 20.87 0 0 1-16.909-8.555c5.209 1.533 11.551 2.62 19.999 2.62 12.644 0 20.381-2.461 25.697-4.599 2.321-.93 4.42-1.908 6.451-2.854 6.774-3.158 12.625-5.884 25.081-5.884a8.335 8.335 0 0 0 8.336-8.336 8.335 8.335 0 0 0-8.336-8.336c-16.15 0-24.636 3.955-32.123 7.444-1.911.89-3.714 1.731-5.622 2.495-4.177 1.68-9.757 3.399-19.484 3.399-11.196 0-17.06-2.206-23.05-4.947 2.762-8.43 10.684-14.47 19.959-14.47h177.832zm-9.829-149.465c-7.377 2.647-15.702 3.989-24.75 3.989-21.031 0-41.52-7.369-57.693-20.748-9.568-7.919-17.287-17.516-22.94-28.529a90.129 90.129 0 0 1-7.211-19.166 8.336 8.336 0 0 0-13.423-4.368c-1.335 1.114-2.71 1.678-4.087 1.678-4.579 0-9.681-6.619-9.681-16.116s5.102-16.116 9.681-16.116c1.147 0 2.3.395 3.424 1.174a8.332 8.332 0 0 0 12.936-5.311 89.566 89.566 0 0 1 7.436-22.491c61.601-5.618 97.221-31.135 112.464-45.162 10.072 18.627 21.751 30.771 31.911 38.607l1.857 7.34.044.168c3.15 11.45 4.747 24.388 4.747 38.457.001 61.373-28.016 80.598-44.715 86.594z"/></svg>