<svg xmlns="http://www.w3.org/2000/svg" viewBox="0 0 512.002 512.002"><path d="M255.237 110.278a8.152 8.152 0 0 0-8.153 8.153v12.253a8.152 8.152 0 0 0 8.153 8.153 8.152 8.152 0 0 0 8.153-8.153v-12.253a8.152 8.152 0 0 0-8.153-8.153zm72.404 0a8.152 8.152 0 0 0-8.153 8.153v12.253a8.153 8.153 0 0 0 8.153 8.153 8.152 8.152 0 0 0 8.153-8.153v-12.253a8.152 8.152 0 0 0-8.153-8.153z"/><path d="M330.225 266.462v-26.258h26.378a8.152 8.152 0 0 0 8.153-8.153V59.484a8.152 8.152 0 0 0-8.153-8.153h-84.302v-9.907c7.832-3.22 13.366-10.925 13.366-19.905C285.668 9.654 276.014 0 264.149 0c-11.866 0-21.52 9.654-21.52 21.519 0 8.981 5.534 16.685 13.367 19.906v9.906H153.527a8.152 8.152 0 0 0-8.153 8.153v172.567a8.152 8.152 0 0 0 8.153 8.153h31.179v30.571a90.236 90.236 0 0 0-4.37 4.62c-25.799 29.273-28.814 69.827-26.8 98.692a8.153 8.153 0 1 0 16.266-1.136c-2.149-30.805 3.003-56.789 14.905-76.07v88.889a8.152 8.152 0 0 0 8.153 8.153h24.701c6.083 15.981 22.84 68.682-4.386 105.036a8.152 8.152 0 0 0 6.526 13.04h21.165c4.504 0 8.153-3.65 8.153-8.153s-3.649-8.153-8.153-8.153h-6.603c9.683-19.394 12.638-43.265 8.536-69.972-1.98-12.886-5.21-24.031-7.872-31.797h48.252c6.083 15.981 22.84 68.682-4.386 105.036a8.152 8.152 0 0 0 6.526 13.04h21.165c4.504 0 8.153-3.65 8.153-8.153s-3.649-8.153-8.153-8.153h-6.603c9.683-19.394 12.638-43.265 8.536-69.972-1.98-12.886-5.21-24.031-7.872-31.797h21.536a8.152 8.152 0 0 0 8.153-8.153V349.78a8.152 8.152 0 0 0-8.153-8.153 8.152 8.152 0 0 0-8.153 8.153v27.839H201.011V278.02c9.364-7.69 17.318-10.229 17.558-10.304a8.15 8.15 0 0 0 5.508-10.093 8.152 8.152 0 0 0-10.105-5.55c-.392.114-5.671 1.701-12.962 6.049v-17.916h112.91v86.746a8.152 8.152 0 0 0 8.153 8.153 8.152 8.152 0 0 0 8.153-8.153v-36.981c12.39 15.95 22.481 41.709 19.601 82.983a8.152 8.152 0 0 0 8.141 8.722 8.154 8.154 0 0 0 8.125-7.585c4.145-59.4-16.486-91.117-35.868-107.629zM264.149 16.306a5.22 5.22 0 0 1 5.214 5.214c0 2.875-2.338 5.215-5.214 5.215s-5.215-2.339-5.215-5.215a5.22 5.22 0 0 1 5.215-5.214zm-46.812 207.591V123.674c0-4.503-3.649-8.153-8.153-8.153s-8.153 3.65-8.153 8.153v100.225H161.68V67.637h39.351V98.67c0 4.503 3.649 8.153 8.153 8.153s8.153-3.65 8.153-8.153V67.637H348.45v91.652h-87.087c-12.173 0-22.077 9.904-22.077 22.077s9.903 22.077 22.077 22.077h87.087v20.454H217.337zm131.113-48.301v11.542h-17.111v-11.542h17.111zm-33.418 0v11.542h-20.453v-11.542h20.453zm-36.757 0v11.542h-16.911a5.778 5.778 0 0 1-5.771-5.771 5.778 5.778 0 0 1 5.771-5.771h16.911z"/></svg>