<svg xmlns="http://www.w3.org/2000/svg" viewBox="0 0 511.999 511.999"><path d="M445.956 158.739c0-41.182-18.755-80.204-52.81-109.878a8.315 8.315 0 0 0-11.733.806 8.315 8.315 0 0 0 .807 11.734c30.376 26.468 47.103 61.037 47.103 97.338 0 34.911-14.699 55.679-47.658 67.339-32.362 11.449-77.909 12.397-125.666 12.397-61.924 0-119.987-1.919-149.931-25.106a8.316 8.316 0 0 0-11.667 1.484 8.316 8.316 0 0 0 1.484 11.667c12.744 9.868 28.894 16.349 47.634 20.6l-14.302 22.576a8.316 8.316 0 1 0 8.567 12.623l33.434-6.306-12.985 42.263a8.318 8.318 0 0 0 12.562 9.363l1.702-1.134c-1.769 27.863-4.364 52.17-7.744 72.404a8.316 8.316 0 0 0 8.213 9.688 8.318 8.318 0 0 0 8.193-6.947c3.976-23.8 6.889-52.96 8.67-86.699l40.953-27.302 18.565 24.754a8.314 8.314 0 0 0 13.306 0l18.567-24.754 40.957 27.304c.727 13.661 1.633 26.6 2.714 38.62a23.896 23.896 0 0 0-2.446-.143c-14.248 0-25.609 6.177-32.069 10.753-6.46-4.574-17.823-10.753-32.07-10.753-10.425 0-20.946 7.178-32.085 14.775-8.843 6.032-19.628 13.396-24.691 11.857-1.495-1.006-2.345-1.626-2.412-1.674a8.316 8.316 0 0 0-10.833 12.561c1.956 1.956 4.007 3.383 6.13 4.361 6.437 4.185 18.247 11.183 32.164 16.25 25.822 9.4 47.685 8.035 63.782-3.863 9.863 7.352 20.988 10.124 32.167 10.123 3.737 0 7.478-.319 11.179-.872a294.753 294.753 0 0 0 2.374 10.489c4.261 17.214-2.054 35.111-16.091 45.597l-2.59 1.937c-17.872 13.342-39.105 20.395-61.402 20.395-22.297 0-43.529-7.052-61.395-20.391l-2.598-1.944c-14.034-10.483-20.35-28.381-16.088-45.595a8.317 8.317 0 0 0-16.146-3.998c-5.872 23.724 2.873 48.42 22.275 62.914l2.6 1.945c20.768 15.504 45.441 23.699 71.351 23.699 25.912 0 50.584-8.195 71.356-23.703l2.593-1.939c19.407-14.497 28.152-39.193 22.279-62.916a279.505 279.505 0 0 1-2.336-10.364c15.843-5.126 29.451-13.179 36.528-17.805 2.091-.977 4.116-2.392 6.045-4.321a8.315 8.315 0 0 0 .419-11.304 8.32 8.32 0 0 0-11.247-1.262c-.067.049-.919.671-2.418 1.679-5.063 1.527-15.848-5.825-24.69-11.857-4.177-2.85-8.269-5.641-12.299-8.016-1.048-10.473-1.958-21.739-2.72-33.681l1.695 1.131a8.308 8.308 0 0 0 4.612 1.396 8.316 8.316 0 0 0 7.949-10.759l-12.986-42.263 33.434 6.306a8.328 8.328 0 0 0 8.423-3.502 8.317 8.317 0 0 0 .144-9.121l-14.316-22.598c6.567-1.49 12.837-3.249 18.747-5.34 39.532-13.982 58.747-41.138 58.747-83.018zM345.154 381.947c4.588 3.129 9.52 6.493 14.553 9.25-19.031 9.1-46.168 16.94-63.452-.345a8.316 8.316 0 0 0-11.762 0c-17.286 17.287-44.423 9.445-63.453.345 5.033-2.757 9.965-6.121 14.553-9.25 8.164-5.57 17.419-11.882 22.711-11.882 15.104 0 26.11 10.606 26.19 10.684 3.221 3.225 8.473 3.219 11.731.03.11-.107 11.114-10.714 26.219-10.714 5.291 0 14.545 6.313 22.71 11.882zm-14.829-124.83a8.315 8.315 0 0 0-9.49 10.615l10.179 33.129-47.114-31.414a8.317 8.317 0 0 0-11.266 1.929l-16.633 22.177-16.633-22.177a8.316 8.316 0 0 0-11.267-1.929l-47.115 31.415 10.179-33.129a8.315 8.315 0 0 0-9.491-10.615l-28.16 5.311 7.633-12.048c27.871 4.149 60.188 4.728 94.854 4.728 33.707 0 66.401-.48 94.852-4.732l7.631 12.051-28.159-5.311zM373.488 33.96C339.729 11.743 299.102 0 255.999 0c-50.451 0-97.948 16.326-133.743 45.97-36.249 30.02-56.213 70.068-56.213 112.77 0 18.987 4.097 35.239 12.179 48.307a8.311 8.311 0 0 0 11.448 2.699 8.318 8.318 0 0 0 2.699-11.448c-6.522-10.546-9.693-23.487-9.693-39.559 0-78.357 77.753-142.106 173.323-142.106 39.844 0 77.309 10.796 108.346 31.221a8.317 8.317 0 0 0 9.143-13.894z"/><path d="M269.306 319.057a8.316 8.316 0 0 0-8.316 8.316v14.415c0 4.593 3.722 8.316 8.316 8.316s8.316-3.724 8.316-8.316v-14.415a8.314 8.314 0 0 0-8.316-8.316zm27.721 0a8.316 8.316 0 0 0-8.316 8.316v14.415a8.315 8.315 0 0 0 8.316 8.316 8.316 8.316 0 0 0 8.316-8.316v-14.415a8.314 8.314 0 0 0-8.316-8.316z"/></svg>