<svg xmlns="http://www.w3.org/2000/svg" viewBox="0 0 511.999 511.999"><path d="M501.737 341.501c-43.594-55.706-85.991-92.554-121.317-116.756 8.499-8.866 37.278-42.337 36.563-88.349-.565-36.275-19.265-70.893-55.582-102.89a8.056 8.056 0 0 0-10.65 12.088c32.712 28.821 49.575 59.401 50.12 90.89.443 25.475-10.03 46.97-19.424 61.043-2.944-16.466-12.371-28.676-19.227-35.67 1.398-7.074 2.307-14.564 2.713-22.415 5.176 3.937 9.555 7.975 13.273 11.693a8.054 8.054 0 0 0 11.391 0 8.054 8.054 0 0 0 0-11.391c-25.436-25.436-55.227-37.8-91.076-37.8-35.32 0-53.821-28.153-55.744-31.243l-14.58-30.271c4.619-4.539 13.763-12.388 26.512-17.974 25.027-10.964 51.197-7.859 77.78 9.226a8.055 8.055 0 0 0 11.131-2.421 8.054 8.054 0 0 0-2.421-11.131C302.082-7.012 269.059-1.418 248.244 7.7c-16.225 7.109-27.542 17.326-32.733 22.645-30.497-3.67-60.021 12.591-72.896 40.695-14.255 31.117-27.156 77.51-9.846 124.587-14.12 12.658-28.062 27.738-41.503 44.914a8.054 8.054 0 0 0 1.379 11.307 8.015 8.015 0 0 0 4.959 1.712 8.043 8.043 0 0 0 6.35-3.091c17.631-22.529 33.45-37.671 43.617-46.407 3.091-2.656 7.022-3.872 11.071-3.418 4.036.451 7.591 2.496 10.011 5.759l23.521 31.705a8.056 8.056 0 0 0 11.021 1.847l28.52-19.529c15.163 8.415 32.418 13.075 50.241 13.075 14.654 0 27.802-3.119 39.083-9.171 3.506 13.959 9.211 40.199 10.535 67.583.553 11.432.318 21.815-.685 31.155a8.018 8.018 0 0 0-.207 1.792c-3.741 31.191-16.382 50.33-37.782 57.017-9.272 2.898-17.721 4.154-25.418 4.153-42.492-.004-61.796-38.344-66.877-50.593 9.87-14.522 18.733-29.906 21.94-42.09a8.055 8.055 0 0 0-5.74-9.84 8.054 8.054 0 0 0-9.84 5.74c-5.349 20.325-30.773 53.323-44.978 70.649l-4.072-14.367c5.58-9.304 10.34-18.868 13.004-27.752a8.056 8.056 0 0 0-5.4-10.03 8.053 8.053 0 0 0-10.03 5.4c-5.723 19.075-23.43 43.013-35.694 58.053l-1.374-17.715c4.916-6.407 9.418-12.991 13.132-19.561a8.056 8.056 0 0 0-14.026-7.928c-12.294 21.751-34.869 44.468-50.461 58.76l4.582-26.455a308.901 308.901 0 0 0 15.946-20.44 8.055 8.055 0 0 0-13.11-9.362 293.09 293.09 0 0 1-16.503 21.019c-.071.083-.14.166-.207.251-8.477 9.803-16.532 17.735-23.434 23.915 15.456-38.072 33.732-72.499 54.497-102.621a8.056 8.056 0 0 0-13.264-9.144c-26.305 38.156-48.695 82.903-66.551 132.998a8.056 8.056 0 0 0 11.733 9.612c.702-.422 13.441-8.16 30.843-24.854L47.334 404.3a8.055 8.055 0 0 0 12.969 7.663c1.34-1.073 22.774-18.326 43.324-40.892l1.607 20.727a8.053 8.053 0 0 0 8.029 7.433 8.057 8.057 0 0 0 5.912-2.583c.954-1.03 13.993-15.196 27.025-33.377l4.422 15.601a8.055 8.055 0 0 0 13.79 3.134c.983-1.114 12.72-14.478 25.505-31.605 3.423 6.519 8.425 14.61 15.273 22.447-1.822 5.959-2.784 12.473-2.784 19.135 0 19.931 8.272 36.509 20.18 42.987l-13.534 29.33-7.939-7.938a8.054 8.054 0 0 0-11.391 0 8.054 8.054 0 0 0 0 11.391l8.652 8.652-24.674 14.099a8.056 8.056 0 0 0 7.992 13.989l14.456-8.26-1.831 4.883a8.056 8.056 0 0 0 15.084 5.656l29.872-69.537c12.612-3.05 22.38-16.553 25.154-34.671 2.349 15.192 9.637 27.162 19.353 32.419l-13.52 29.318-7.938-7.938a8.054 8.054 0 0 0-11.391 0 8.054 8.054 0 0 0 0 11.391l8.652 8.652-24.674 14.099a8.056 8.056 0 0 0 7.992 13.989l14.455-8.26-1.831 4.883a8.056 8.056 0 0 0 15.084 5.656l29.879-69.552c14.919-3.682 25.947-22.224 25.947-45.237 0-4.13-.366-8.182-1.077-12.105 3.229-3.53 6.044-7.413 8.483-11.587 9.471 6.05 16.044 9.881 16.385 10.079a8.049 8.049 0 0 0 8.223-.075 8.053 8.053 0 0 0 3.872-7.254l-.737-16.211c18.292 13.26 35.299 22.645 36.188 23.133a8.043 8.043 0 0 0 3.875.993 8.056 8.056 0 0 0 7.818-10.002l-5.025-20.172c26.63 14.914 52.416 24.508 54.027 25.102a8.052 8.052 0 0 0 8.866-2.275 8.054 8.054 0 0 0 1.015-9.096l-11.83-22.016c21.791 10.34 36.322 13.656 37.121 13.833a8.056 8.056 0 0 0 8.561-3.566 8.047 8.047 0 0 0-.463-9.264zm-267.922 80.286c-7.225 0-15.305-12.747-15.305-29.804 0-2.112.134-4.19.375-6.222 7.974 6.097 17.797 11.422 29.62 14.26-2.021 13.106-8.747 21.766-14.69 21.766zm61.208 0c-5.711 0-12.236-8.156-14.484-20.588 5.445-.793 11.157-2.07 17.161-3.945a65.521 65.521 0 0 0 12.624-5.441c0 .058.005.113.005.171-.001 17.056-8.081 29.803-15.306 29.803zm70.629-206.711a372.296 372.296 0 0 0-20.507-11.917c.26-.357.523-.708.779-1.07 4.46-6.326 8.16-13.556 11.1-21.541 6.015 8.388 10.957 20.066 8.628 34.528zm-189.544-23.943a30.646 30.646 0 0 0-15.676-6.501 30.638 30.638 0 0 0-13.86 1.661c-13.391-40.707-1.891-81.081 10.69-108.545 9.877-21.558 32.461-34.078 55.88-31.452l14.239 29.57c-2.008 13.786-14.245 86.833-51.273 115.267zm24.381 31.145l-13.972-18.834c4.412-3.466 8.502-7.418 12.289-11.737a103.67 103.67 0 0 0 18.481 19.068l-16.798 11.503zm81.464-4.889c-29.313 0-56.821-14.896-72.962-39.179 18.272-27.849 27.536-63.583 31.728-84.763 11.232 11.186 30.415 24.606 57.801 24.606 21.093 0 37.575 4.816 50.559 11.412l.001.392c-.001 26.318-6.542 87.532-67.127 87.532zm58.67 136.109c1.407-3.988 2.579-8.128 3.547-12.378.23.199.462.398.695.597l.678 14.915a580.255 580.255 0 0 1-4.92-3.134zm100.305-39.589a294.448 294.448 0 0 1-22.306-14.728 8.057 8.057 0 0 0-9.474 13.032 310.72 310.72 0 0 0 21.601 14.355l12.706 23.647c-19.3-8.623-47.886-23.032-66.45-39.805a8.054 8.054 0 0 0-11.377.577 8.054 8.054 0 0 0 .577 11.377c5.601 5.061 11.954 9.885 18.644 14.41l4.297 17.249c-9.131-5.792-20.749-13.683-31.26-22.398-4.003-3.31-7.591-6.534-10.719-9.623 3.935-41.835-6.834-88.106-11.525-105.66 34.716 18.411 83.401 52.203 135.368 113.022-8.575-3.716-18.827-8.75-30.082-15.455z"/><path d="M291.2 124.874a8.055 8.055 0 0 0-8.055 8.055v14.992a8.055 8.055 0 0 0 16.11 0v-14.992a8.055 8.055 0 0 0-8.055-8.055zm31.483 0a8.055 8.055 0 0 0-8.055 8.055v14.992a8.055 8.055 0 0 0 16.11 0v-14.992a8.055 8.055 0 0 0-8.055-8.055zm5.507 63.086a8.056 8.056 0 0 0-10.103-6.582c-12.634 3.472-20.897.855-25.41-1.703a8.026 8.026 0 0 0-9.064.789c-4.373 3.602-3.727 10.434 1.201 13.231 3.246 1.843 7.403 3.595 12.495 4.603 6.623 1.311 14.832 1.363 24.671-1.283 4.024-1.084 6.841-4.935 6.21-9.055zm-9.325 81.222a8.057 8.057 0 0 0-10.241 4.99l-10.427 30.239-12.074-20.434a8.036 8.036 0 0 0-7.454-3.941 8.057 8.057 0 0 0-6.886 4.865l-8.925 20.824-16.077-35.347a8.056 8.056 0 0 0-14.665 6.669l23.629 51.951a8.055 8.055 0 0 0 7.332 4.719h.089a8.054 8.054 0 0 0 7.315-4.881l9.852-22.988 12.861 21.765a8.055 8.055 0 1 0 14.55-1.472l16.109-46.718a8.053 8.053 0 0 0-4.988-10.241z"/></svg>