<svg xmlns="http://www.w3.org/2000/svg" viewBox="0 0 512.001 512.001"><path d="M233.579 117.078c-2.658 1.84-3.996 5.199-3.372 8.368.751 3.808 4.213 6.625 8.086 6.625 3.821 0 7.178-2.715 8.03-6.428 1.651-7.193-6.71-12.743-12.744-8.565zm22.882-3.608c-2.512 2.15-3.503 5.704-2.468 8.843 1.101 3.338 4.303 5.66 7.824 5.66 3.897 0 7.297-2.838 8.075-6.636 1.538-7.511-7.643-12.822-13.431-7.867z"/><path d="M510.857 117.427a8.24 8.24 0 0 0-9.861-3.576l-71.292 25.377 48.524-59.448a8.24 8.24 0 0 0-11.198-11.896l-96.576 69.563c-3.693 2.66-4.53 7.809-1.87 11.502s7.81 4.532 11.502 1.87l45.833-33.013-27.652 33.874a8.24 8.24 0 0 0 9.146 12.973l58.952-20.984-40.289 35.613a8.24 8.24 0 0 0 6.658 14.325l29.04-4.274-27.236 23.477a8.242 8.242 0 0 0 4.923 14.468l12.425.69c-22.894 23.213-73.781 70.965-114.647 81.761a59.376 59.376 0 0 0-3.766-3.37c3.405-13.857 3.126-28.371-.86-42.333l-18.748-65.512 48.395-34.859a8.24 8.24 0 0 0 1.87-11.502 8.238 8.238 0 0 0-11.502-1.87l-43.582 31.392-6.059-21.171 28.596-28.596a8.241 8.241 0 0 0-7.419-13.912l-31.555 6.215-1.865-6.503c-2.693-9.425-8.253-17.527-16.077-23.429-5.335-4.028-11.363-6.758-17.764-8.092 1.142-10.917 1.103-31.271-12.114-44.488a8.239 8.239 0 0 0-11.652 0 8.239 8.239 0 0 0 0 11.652c4.746 4.747 6.796 11.803 7.475 18.614-11.616-9.298-24.088-12.095-36.116-8.086a8.24 8.24 0 0 0 5.211 15.635c9.366-3.124 17.997 2.534 23.767 8.093-14.642 4.971-26.208 17.376-29.565 33.089l-11.38 53.471L44.978 67.884a8.242 8.242 0 0 0-10.816 1.038 8.238 8.238 0 0 0-.383 10.858l48.524 59.444-71.298-25.378a8.24 8.24 0 0 0-8.221 13.937l51.461 45.478-29.687-4.366a8.24 8.24 0 1 0-6.58 14.394l33.25 28.663-9.846.547a8.24 8.24 0 0 0-5.671 13.733c.658.733 16.392 18.187 39.166 38.654a8.208 8.208 0 0 0 5.505 2.112 8.239 8.239 0 0 0 5.511-14.368A592.529 592.529 0 0 1 60.1 227.964l12.437-.691a8.24 8.24 0 0 0 4.923-14.468l-27.236-23.478L79.28 193.6a8.241 8.241 0 0 0 6.656-14.327L45.649 143.67l58.948 20.982a8.24 8.24 0 1 0 9.146-12.974l-27.64-33.855 118.433 85.311a8.237 8.237 0 0 0 11.502-1.87 8.24 8.24 0 0 0-1.87-11.502l-7.031-5.065 12.888-60.559c2.774-12.985 14.417-22.409 27.681-22.409a28.056 28.056 0 0 1 17.033 5.71c4.944 3.73 8.456 8.849 10.163 14.818l1.479 5.156-4.614.909c-7.382 1.454-13.593 6.124-17.039 12.812-3.446 6.688-3.645 14.455-.547 21.311A24.499 24.499 0 0 0 276.5 176.85c4.588 0 9.072-1.313 12.952-3.733l27.314 95.445c2.757 9.655 3.3 19.631 1.648 29.304-4.191-1.207-8.635 1.064-10.067 5.235a8.24 8.24 0 0 0 5.12 10.468c5.997 2.058 12.258 6.998 17.178 13.554 9.098 12.122 10.389 25.312 5.466 29.007-4.923 3.696-17.228-1.229-26.326-13.352-3.484-4.642-6.011-9.697-7.304-14.618a8.24 8.24 0 0 0-15.938 4.192c.828 3.15 2.011 6.31 3.479 9.416a64.4 64.4 0 0 1-9.176 5.169c-.95-4.68-2.454-9.058-4.486-12.921a8.237 8.237 0 0 0-11.128-3.456 8.237 8.237 0 0 0-3.456 11.128c2.841 5.402 4.183 12.885 3.679 20.531-.994 15.123-8.604 25.977-14.75 25.568-2.663-.175-5.432-2.635-7.596-6.748-2.84-5.402-4.182-12.885-3.679-20.532.434-6.596 2.201-12.894 4.974-17.732a8.24 8.24 0 0 0-3.05-11.247c-3.948-2.262-8.984-.899-11.247 3.05-2.119 3.697-3.792 7.816-5.003 12.209-9.509-4.457-17.872-11.165-24.336-19.494a47.349 47.349 0 0 0 4.887-1.284c12.846-4.156 23.171-11.507 30.688-21.848a8.242 8.242 0 0 0-13.331-9.691c-5.5 7.568-12.837 12.754-22.43 15.858-20.728 6.706-55.11-8.334-96.805-42.353a8.24 8.24 0 0 0-10.418 12.77c19.329 15.77 37.046 27.641 53.081 35.592l-50.325 45.334a8.238 8.238 0 0 0 3.754 14.171l23.367 5.112-24.063 36.104a8.238 8.238 0 0 0 9.293 12.442l33.56-10.388-6.786 44.11a8.239 8.239 0 0 0 14.862 6.024l72.826-102.528c.383 8.092 2.301 15.716 5.601 21.991 3.978 7.564 9.806 12.717 16.422 14.681l14.814 34.373-5.719 10.069a8.241 8.241 0 0 0 7.157 12.312c2.867 0 5.655-1.5 7.172-4.172l5.407-9.519 26.385-.303a8.24 8.24 0 0 0-.094-16.479h-.097l-15.214.175 5.647-8.195a8.24 8.24 0 0 0-13.569-9.351l-6.217 9.022-8.61-19.978c10.519-5.821 18.404-19.785 19.806-37.008 6.065-2.233 11.804-5.135 17.15-8.721 9.793 11.603 22.247 18.126 33.16 18.126 2.819 0 5.529-.452 8.069-1.346l27.625 20.882v11.58c0 4.551 3.689 8.24 8.24 8.24s8.24-3.689 8.24-8.24v-10.948l22.793-13.295a8.24 8.24 0 1 0-8.303-14.235l-13.142 7.666.862-9.915a8.239 8.239 0 0 0-7.495-8.922c-4.533-.405-8.529 2.961-8.922 7.495l-.949 10.915-16.499-12.471c4.769-9.951 3.172-24.126-4.566-37.487 57.77-19.565 125.186-94.038 128.219-97.414a8.238 8.238 0 1 0-5.671-13.733l-9.853-.548 33.257-28.666a8.24 8.24 0 0 0-6.58-14.393l-29.678 4.367 51.453-45.48a8.26 8.26 0 0 0 1.628-10.366zM282.166 158.02c-1.889 1.888-4.48 2.696-7.105 2.216-2.627-.479-4.765-2.15-5.865-4.583a7.972 7.972 0 0 1 .179-6.972 7.973 7.973 0 0 1 5.575-4.193l25.835-5.088-18.619 18.62zM156.812 431.326l3.497-22.731a8.236 8.236 0 0 0-2.762-7.493 8.242 8.242 0 0 0-7.818-1.631l-23.984 7.424 17.895-26.843a8.239 8.239 0 0 0-5.096-12.621l-19.478-4.261 44.124-39.749c6.361 2.193 12.406 3.66 18.131 4.398a83.492 83.492 0 0 0 28.238 29.244l-52.747 74.263z"/></svg>