<svg xmlns="http://www.w3.org/2000/svg" viewBox="0 0 512.002 512.002"><path d="M145.692 312.198a8.54 8.54 0 0 0 9.282 0l62.512-40.477 62.523 40.477a8.545 8.545 0 0 0 9.282 0l62.522-40.477 62.523 40.477a8.545 8.545 0 0 0 9.281 0l23.008-14.889c1.881 11.437 2.832 22.435 2.832 32.826 0 4.716 3.822 8.539 8.539 8.539s8.539-3.823 8.539-8.539c0-15.266-1.87-31.648-5.556-48.692a8.538 8.538 0 0 0-12.985-5.364l-29.015 18.777-48.062-31.116c-1.57-12.002-3.99-24.503-7.239-37.357 34.466 8.111 62.512 5.634 79.959-7.279 11.979-8.867 18.312-22.298 18.312-38.842 0-38.008-32.362-75.057-84.776-97.48C372.414 67.108 349.118 0 299.096 0a8.538 8.538 0 0 0-5.904 14.709c.262.25 23.451 22.771 28.293 51.609a279.02 279.02 0 0 0-25.115-3.337c-17.268-34.281-39.947-52.37-65.801-52.37a8.535 8.535 0 0 0-7.915 5.351 8.548 8.548 0 0 0 2.003 9.349c.19.183 17.098 16.669 25.083 39.331-13.344 3.716-23.755 11.206-31.023 22.346-8.767 13.409-12.216 30.788-13.567 48.872-8.69-14.346-20.518-29.591-36.545-43.461-29.903-25.864-68.126-41.691-113.607-47.041-3.756-.441-7.377 1.66-8.857 5.158s-.467 7.556 2.478 9.953c.413.336 41.174 34.009 30.096 67.226a8.54 8.54 0 0 0 4.85 10.599c.319.131 31.897 13.56 31.897 51.149a8.541 8.541 0 0 0 6.85 8.371c.434.088 42.217 8.88 68.447 43.9-7.515 19.193-16.497 34.178-22.4 41.476l-18.022 11.67-29.004-18.776a8.537 8.537 0 0 0-12.986 5.364c-3.687 17.043-5.556 33.426-5.556 48.692 0 100.279 81.589 181.864 181.875 181.864 86.859 0 161.938-61.783 178.516-146.907a8.54 8.54 0 1 0-16.763-3.266c-15.021 77.12-83.048 133.094-161.753 133.094-90.869 0-164.797-73.923-164.797-164.785 0-10.389.951-21.388 2.832-32.824l22.991 14.882zm199.776-259.88c4.637 7.982 8.239 16.037 10.851 22.669a258.578 258.578 0 0 0-17.15-4.891c-1.463-17.219-8.445-32.586-15.73-44.313 7.82 5.885 15.18 14.746 22.029 26.535zM221.366 175.164l-.002-3.898c-.026-26.732-.056-57.031 11.651-74.937 4.821-7.389 11.581-12.331 20.515-14.992.639 6.51.25 12.858-1.21 18.947a8.538 8.538 0 0 0 6.311 10.295c.671.161 1.34.238 1.999.238a8.543 8.543 0 0 0 8.297-6.549c2.694-11.23 2.665-23.014-.084-35.017-2.857-12.538-8.291-23.743-13.904-32.791 9.183 6.879 18.941 18.678 28.178 38.292 6.673 14.163 9.902 26.073 9.935 26.193 1.218 4.553 5.896 7.262 10.45 6.044a8.538 8.538 0 0 0 6.05-10.452c-.099-.372-1.78-6.601-5.219-15.548a258.365 258.365 0 0 1 24.738 4.265c13.006 2.891 25.54 6.763 37.267 11.515 10.459 4.22 20.057 9.021 28.686 14.277a29.215 29.215 0 0 0-5.992 4.608 8.539 8.539 0 0 0 .001 12.077 8.54 8.54 0 0 0 12.076 0 11.876 11.876 0 0 1 8.454-3.502c1.974 0 3.875.478 5.573 1.375 13.85 12.006 23.309 25.422 27.416 39.216a8.174 8.174 0 0 0-5.76 1.462c-3.153 2.229-4.386 6.466-2.988 10.051 1.265 3.244 4.465 5.442 7.952 5.442a8.347 8.347 0 0 0 3.097-.606c-.205 10.623-4.023 18.77-11.374 24.213-15.171 11.229-44.118 11.488-79.423.713-.023-.007-.044-.017-.067-.024-24.726-7.534-51.597-20.323-77.707-36.985a8.537 8.537 0 0 0-11.791 2.605 8.538 8.538 0 0 0 2.605 11.792c25.849 16.496 52.52 29.404 77.447 37.512 3.092 10.961 5.573 21.669 7.425 32.027a8.512 8.512 0 0 0-4.791 1.361l-62.522 40.477-62.523-40.477a8.54 8.54 0 0 0-9.282 0l-12.432 8.05c10.885-23.049 20.948-54.332 20.948-87.269zm-89.09 7.597c-1.387-17.474-8.119-30.485-15.818-39.859a162.872 162.872 0 0 1 16.088 4.786 8.508 8.508 0 0 0 2.853.493 8.54 8.54 0 0 0 2.854-16.59c-17.01-6.031-31.62-8.341-40.927-9.217 2.67-21.911-8.429-41.937-19.317-55.809 31.115 7.023 57.752 20.006 79.421 38.749 25.863 22.38 39.709 48.781 46.857 67.482v.187c-13.288-13.074-28.258-23.887-44.713-32.245a8.539 8.539 0 0 0-11.48 3.747 8.538 8.538 0 0 0 3.746 11.48c19.361 9.834 36.481 23.441 50.944 40.462-1.246 9.097-3.195 17.928-5.592 26.287-23.008-25.399-52.047-36.192-64.916-39.953z"/><path d="M360.12 115.654c-5.483-5.483-12.775-8.504-20.53-8.504-7.755 0-15.046 3.021-20.53 8.504a8.539 8.539 0 1 0 12.074 12.076c2.259-2.259 5.261-3.502 8.455-3.502s6.195 1.243 8.453 3.502a8.516 8.516 0 0 0 6.039 2.501 8.539 8.539 0 0 0 6.039-14.577zm46.145 57.305c-3.215 2.144-4.596 6.34-3.294 9.977 1.2 3.357 4.473 5.668 8.042 5.668 4.11 0 7.697-3.051 8.406-7.083 1.28-7.265-7.054-12.629-13.154-8.562z"/></svg>