<svg xmlns="http://www.w3.org/2000/svg" viewBox="0 0 512 512"><path d="M431.467 338.244c-10.279-10.292-27.301-8.771-33.928-7.696-17.654-7.449-40.747-35.656-62.422-76.331a87.36 87.36 0 0 0 2.784-3.726c14.2-20.139 21.705-48.319 21.705-81.492 0-42.764-12.575-76.963-35.479-96.761-4.679-25.106-17.311-54.037-48.836-71.253a8.082 8.082 0 0 0-9.307 1.118 8.085 8.085 0 0 0-1.985 9.165c.104.246 6.192 14.687 9.807 35.228a99.14 99.14 0 0 0-8.931-.4c-6.195 0-12.377.57-18.402 1.654-11.184-17.001-28.004-32.53-53.304-39.684a8.083 8.083 0 0 0-8.832 3.163 8.081 8.081 0 0 0 .114 9.38c.196.268 14.356 19.884 23.034 47.415a116.834 116.834 0 0 0-23.014 17.477 8.079 8.079 0 0 0 5.646 13.856 8.045 8.045 0 0 0 5.644-2.301 100.913 100.913 0 0 1 15.917-12.671c1.099 5.598 1.892 11.388 2.234 17.311.418 7.258 3.851 14.083 9.42 18.721a26.202 26.202 0 0 0 16.731 6.042c1.067 0 2.14-.067 3.21-.2a26.261 26.261 0 0 0 18.132-10.855 26.074 26.074 0 0 0 4.207-20.559c-1.96-9.028-5.245-20.398-10.709-32.009a88.532 88.532 0 0 1 9.972-.586c3.812 0 7.513.252 11.048.744.851 10.691.725 22.248-1.235 33.888-1.206 7.17.625 14.587 5.022 20.348a26.187 26.187 0 0 0 18.141 10.13 26.274 26.274 0 0 0 20.093-6.55 26.086 26.086 0 0 0 8.675-19.109c.006-.633.005-1.291.005-1.948 10.956 17.188 16.825 40.971 16.825 69.242 0 90.786-54.12 100.588-77.389 100.588-46.208 0-86.325-31.252-97.559-75.999a8.08 8.08 0 0 0-13.009-4.236c-1.666 1.389-3.408 2.093-5.18 2.093-6.895 0-11.701-9.898-11.701-18.782 0-8.885 4.806-18.783 11.701-18.783 1.473 0 2.953.503 4.398 1.497a8.08 8.08 0 0 0 12.515-5.158 99.626 99.626 0 0 1 13.584-34.626 8.078 8.078 0 0 0-2.545-11.137 8.076 8.076 0 0 0-11.137 2.545 115.745 115.745 0 0 0-13.634 30.948 22.566 22.566 0 0 0-3.181-.225c-15.621 0-27.858 15.347-27.858 34.939s12.237 34.938 27.858 34.938c1.801 0 3.579-.21 5.318-.625a116.2 116.2 0 0 0 24.479 41.107c-13.416 26.565-41.45 72.313-65.645 82.463-6.626-1.076-23.651-2.598-33.93 7.696a8.077 8.077 0 0 0 .008 11.424 8.077 8.077 0 0 0 11.424-.008c3.03-3.033 8.675-3.767 13.608-3.699l-2.055 10.261a8.077 8.077 0 0 0 7.928 9.665 8.08 8.08 0 0 0 7.912-6.493l2.554-12.748c5.325-.377 13.409-1.161 22.377-2.782 15.188-2.744 27.43-6.873 36.601-12.307.401 1.067.813 2.129 1.246 3.18.025.059.059.111.085.169a97.714 97.714 0 0 0 4.644 9.645c-4.513 8.091-11.901 22.371-17.061 37.584-8.805 25.959-7.694 44.701 3.31 55.711 6.084 6.075 12.026 8.965 17.231 10.123l-4.46 55.303a8.08 8.08 0 0 0 11.976 7.711l18.032-10.021 12.176 9.364a8.077 8.077 0 0 0 12.807-4.637l14.695-65.554 14.692 65.554a8.073 8.073 0 0 0 7.882 6.312 8.078 8.078 0 0 0 4.928-1.676l12.166-9.362 18.03 10.021a8.079 8.079 0 0 0 11.976-7.712l-4.471-55.307c5.215-1.158 11.162-4.039 17.246-10.123 8.522-8.522 11.128-21.751 7.747-39.317a8.076 8.076 0 0 0-9.459-6.405 8.077 8.077 0 0 0-6.406 9.459c1.587 8.237 2.3 19.233-3.307 24.84-4.648 4.648-9.01 6.591-13.334 5.929-1.91-.29-3.92-1.081-5.971-2.356a8.078 8.078 0 0 0-11.124 2.602 8.078 8.078 0 0 0 2.602 11.124 35.074 35.074 0 0 0 5.686 2.865l.913 11.289h-29.263l-7.645-34.108a8.246 8.246 0 0 1 1.272-6.562c1.338-1.938 3.357-3.188 5.635-3.513a8.076 8.076 0 0 0 6.83-10.037l-7.461-28.888a8.082 8.082 0 0 0-9.245-5.931c-6.913 1.238-13.724 1.383-20.247.434a8.08 8.08 0 0 0-8.986 5.98l-7.313 28.411c-.572 2.224-.127 4.594 1.147 6.504 1.274 1.911 3.345 3.194 5.62 3.519a8.264 8.264 0 0 1 5.688 3.521 8.27 8.27 0 0 1 1.282 6.568l-7.644 34.103h-29.284l.909-11.277a34.848 34.848 0 0 0 5.719-2.883 8.077 8.077 0 0 0 2.586-11.127 8.075 8.075 0 0 0-11.127-2.586c-2.049 1.276-4.053 2.065-5.953 2.345l-.018.003-.023.002c-4.307.659-8.662-1.284-13.313-5.929-11.664-11.671 1.482-48.531 18.632-77.838a8.062 8.062 0 0 0 1.085-4.448c13.098 3.125 26.467 5.08 39.941 5.775a8.078 8.078 0 0 0 .832-16.134 205.099 205.099 0 0 1-49.305-8.69 91.568 91.568 0 0 1-2.734-8.818c-4.449-17.437-4.131-36.429.827-55.489 20.041 15.762 45.244 24.968 72.246 24.968 21.257 0 39.691-5.835 54.422-17.058 1.733 17.838 1.094 34.172-1.924 47.743a91.598 91.598 0 0 1-2.274 8.41 205.164 205.164 0 0 1-47.86 8.807 8.08 8.08 0 1 0 1.011 16.125c12.913-.809 25.723-2.778 38.277-5.819a8.062 8.062 0 0 0 .886 5.725c2.688 4.656 9.522 16.973 14.91 30.75a8.084 8.084 0 0 0 7.526 5.139 8.08 8.08 0 0 0 7.521-11.022c-4.534-11.595-9.885-22.018-13.647-28.832a87.562 87.562 0 0 0 5.243-11.543c.322-.856.625-1.736.925-2.616 9.175 5.441 21.423 9.573 36.621 12.319 8.972 1.621 17.06 2.405 22.388 2.781l2.553 12.746a8.082 8.082 0 0 0 9.507 6.336 8.079 8.079 0 0 0 6.335-9.507l-2.057-10.274c5.041-.055 10.667.766 13.609 3.711a8.078 8.078 0 0 0 11.424.008 8.075 8.075 0 0 0 .013-11.426zM248.225 106.071a9.94 9.94 0 0 1-6.953 4.163 9.85 9.85 0 0 1-7.599-2.226c-2.177-1.814-3.467-4.383-3.631-7.235-1.526-26.509-10.742-50.335-18.984-66.765 24.832 17.05 34.825 46.109 38.767 64.269.594 2.731.025 5.498-1.6 7.794zm62.239-4.535c-.029 2.794-1.199 5.366-3.295 7.242a9.938 9.938 0 0 1-7.705 2.513 9.845 9.845 0 0 1-6.911-3.859c-1.72-2.252-2.405-5.045-1.932-7.863 4.408-26.185.724-51.464-3.658-69.314 20.419 22.144 23.698 52.697 23.501 71.281zM145.943 327.071c8.351-8.449 16.98-19.358 25.835-32.677.656-.988 1.3-1.971 1.938-2.953.043 8.12.863 16.114 2.484 23.886-7.573 5.641-19.017 9.365-30.257 11.744zm160.733 146.958v-.001l1.254 15.504-9.484-5.27a8.08 8.08 0 0 0-8.851.659l-6.334 4.875-3.534-15.766h26.949zm-56.489-88.077a78.98 78.98 0 0 0 10.696-.222l3.822 14.799a24.535 24.535 0 0 0-9.138 8.849 24.566 24.566 0 0 0-9.133-8.845l3.753-14.581zm-45.732 88.076h26.966l-3.535 15.772-6.347-4.881a8.08 8.08 0 0 0-8.849-.657l-9.484 5.27 1.249-15.504zM335.318 314.97c1.377-7.635 2.139-15.784 2.279-24.414 10.548 16.41 20.15 28.157 28.547 36.555-11.501-2.425-23.232-6.265-30.826-12.141z"/><path d="M258.127 154.281a8.078 8.078 0 0 0-8.078 8.078v20.756a8.078 8.078 0 1 0 16.156 0v-20.756a8.078 8.078 0 0 0-8.078-8.078zm43.953 0a8.078 8.078 0 0 0-8.078 8.078v20.756a8.078 8.078 0 0 0 16.156 0v-20.756a8.077 8.077 0 0 0-8.078-8.078zm-6.217 48.847c-5.461-1.141-12.287-1.231-20.644-1.231s-15.185.091-20.644 1.231c-4.299.897-14.295 4.134-14.295 14.784 0 12.704 16.123 28.224 34.939 28.224 18.817 0 34.938-15.52 34.938-28.224 0-10.65-9.996-13.886-14.294-14.784zM275.22 229.98c-9.578 0-16.784-7.091-18.43-10.816 3.832-1.109 13.133-1.109 18.43-1.109 5.296 0 14.597 0 18.429 1.109-1.645 3.725-8.851 10.816-18.429 10.816z"/></svg>