<svg xmlns="http://www.w3.org/2000/svg" viewBox="0 0 511.999 511.999"><path d="M364.646 217.647c0-8.403-.562-16.44-1.633-24.07 3.519-9.849 15.746-50.991-5.393-98.563a8.084 8.084 0 0 0-14.775 6.564c9.578 21.557 11.309 41.788 10.376 57.408-2.106-4.543-4.477-8.803-7.141-12.717-4.275-6.28-10.767-10.326-18.282-11.395-7.566-1.078-15.33 1.127-21.287 6.049-6.848 5.66-16.816 8.904-27.348 8.904-11.545 0-22.459-3.948-29.193-10.561-9.808-9.634-25.229-10.128-35.868-1.151a104.855 104.855 0 0 0-25.491 31.98 28.284 28.284 0 0 0-8.612-1.359c-5.111 0-9.951 1.361-14.358 3.826-10.962-39.394.06-76.907 32.885-111.658 8.735-9.248 18.039-17.185 26.688-23.727-10.094 18.839-19.346 44.766-19.346 76.54a8.084 8.084 0 0 0 16.168 0c0-47.43 23.563-80.997 34.378-93.905 15.566 16.365 42.15 48.957 42.15 71.269a8.083 8.083 0 0 0 8.084 8.084 8.084 8.084 0 0 0 8.084-8.084c0-15.252-8.401-32.446-18.516-47.619 14.253 11.485 25.954 23.911 34.963 37.198a8.085 8.085 0 0 0 13.383-9.072c-18.502-27.29-46.985-51.07-84.66-70.675a8.082 8.082 0 0 0-7.228-.117c-1.454.697-35.952 17.441-65.584 48.669-38.986 41.086-50.871 87.839-34.536 135.477-6.398 9.397-10.284 22.177-10.284 36.463 0 29.534 16.572 52.669 37.726 52.669 4.139 0 8.202-.914 12.047-2.684a105.13 105.13 0 0 0 2.777 4.333l-20.17 195.023a8.082 8.082 0 0 0 8.041 8.915H218.8v24.253a8.084 8.084 0 0 0 8.084 8.084h26.947a8.084 8.084 0 0 0 0-16.168h-18.863v-16.168h43.116v24.253a8.083 8.083 0 0 0 8.084 8.084h26.947a8.084 8.084 0 0 0 8.084-8.084 8.084 8.084 0 0 0-8.084-8.084h-18.863v-16.168h60.901a8.085 8.085 0 0 0 8.019-9.118L340.66 296.097a77.518 77.518 0 0 0 4.653-5.958c12.647-17.939 19.333-43.007 19.333-72.492zm-18.688 245.847H191.655l7.674-74.192h16.422c3.52 15.807 9.151 32.85 18.129 48.56a8.084 8.084 0 0 0 15.038-2.986l5.829-45.576h19.021c4.466 0 8.084-3.62 8.084-8.084s-3.618-8.084-8.084-8.084h-16.953l3.959-30.955a8.083 8.083 0 0 0-6.992-9.045 8.083 8.083 0 0 0-9.045 6.993l-8.167 63.857c-12.026-36.372-10.258-72.716-10.235-73.166a8.084 8.084 0 0 0-7.624-8.514c-4.453-.234-8.272 3.165-8.52 7.623-.075 1.351-.979 19.442 2.565 43.208H201l8.3-80.246a104.443 104.443 0 0 0 16.071 12.591c16.648 10.588 35.923 16.185 55.738 16.185 17.246 0 32.416-4.302 44.918-12.609l8.27 64.08h-34.123a8.084 8.084 0 0 0-8.084 8.084 8.083 8.083 0 0 0 8.084 8.084h36.21l9.574 74.192zm-64.849-157.998c-33.446 0-63.416-18.497-78.458-48.327l-1.269-6.059a8.084 8.084 0 0 0-15.825 3.315l.407 1.943c-1.949 1.019-3.944 1.539-5.968 1.539-11.687-.001-21.559-16.716-21.559-36.502s9.872-36.501 21.558-36.501c2.657 0 5.297.902 7.843 2.682a8.086 8.086 0 0 0 12.099-3.532c5.35-12.912 13.852-24.524 24.588-33.582 4.156-3.506 10.355-3.363 14.113.329 9.833 9.656 24.603 15.195 40.522 15.195 14.228 0 27.95-4.594 37.647-12.605 2.458-2.031 5.636-2.948 8.713-2.507 2.956.42 5.509 2.013 7.193 4.486 10.313 15.149 15.764 36.684 15.764 62.278 0 26.413-6.564 87.848-67.368 87.848z"/><path d="M200.559 212.23c-1.81-3.3-8.427-14.17-17.601-15.48-4.184-.595-8.227.805-11.373 3.951a8.083 8.083 0 0 0 0 11.432 8.088 8.088 0 0 0 9.765 1.284c1.51 1.353 3.671 4.134 5.041 6.604a8.08 8.08 0 0 0 10.966 3.185 8.084 8.084 0 0 0 3.202-10.976zM270 188.631a8.084 8.084 0 0 0-8.084 8.084v21.558a8.083 8.083 0 0 0 8.084 8.084 8.084 8.084 0 0 0 8.084-8.084v-21.558a8.083 8.083 0 0 0-8.084-8.084zm40.96 0a8.084 8.084 0 0 0-8.084 8.084v21.558a8.083 8.083 0 0 0 8.084 8.084 8.084 8.084 0 0 0 8.084-8.084v-21.558a8.084 8.084 0 0 0-8.084-8.084zm27.276 46.558a8.084 8.084 0 0 0-11.197-2.312c-44.757 29.436-82.959 3.017-84.603 1.85a8.086 8.086 0 0 0-11.266 1.839 8.08 8.08 0 0 0 1.823 11.284c.5.36 12.457 8.883 31.05 12.91a90.933 90.933 0 0 0 19.243 2.066c15.151 0 33.459-3.828 52.638-16.441a8.084 8.084 0 0 0 2.312-11.196z"/></svg>