<svg xmlns="http://www.w3.org/2000/svg" viewBox="0 0 512 512"><path d="M289.4 84.392c-4.876-12.036-16.409-19.813-29.381-19.813s-24.505 7.776-29.381 19.813a8.031 8.031 0 0 0 0 6.033c4.876 12.035 16.409 19.813 29.381 19.813 12.972 0 24.505-7.777 29.381-19.813a8.031 8.031 0 0 0 0-6.033zm-29.381 9.777a15.56 15.56 0 0 1-12.871-6.762 15.558 15.558 0 0 1 12.871-6.762c5.236 0 9.996 2.571 12.871 6.762a15.557 15.557 0 0 1-12.871 6.762zm37.409 31.343c-3.17-1.972-7.283-1.475-9.952 1.116-2.541 2.618-3.086 6.657-1.205 9.81 1.729 2.898 5.236 4.439 8.54 3.737 6.876-1.46 8.639-10.92 2.617-14.663z"/><path d="M358.718 211.045c-7.035-7.33-16.882-10.507-29.279-9.433-7.058.615-14.067 1.155-20.973 1.63 4.104-13.557 7.986-23.749 9.575-27.763 6.584-5.6 12.809-12.519 18.52-20.677 14.91-21.298 23.812-47.626 23.812-70.427C360.374 37.851 322.523 0 275.998 0c-11.432 0-22.524 2.249-32.965 6.685a8.033 8.033 0 0 0-4.253 10.535 8.032 8.032 0 0 0 10.535 4.252c8.445-3.586 17.422-5.405 26.684-5.405 31.73 0 58.473 21.747 66.115 51.117a31.725 31.725 0 0 0-12.583-2.606c-12.972 0-24.505 7.776-29.381 19.813a8.031 8.031 0 0 0 0 6.033c4.876 12.035 16.409 19.813 29.381 19.813 3.967 0 7.797-.735 11.345-2.09-3.514 12.967-9.572 26.149-17.477 37.441-13.69 19.555-30.967 30.77-47.402 30.77-16.433 0-33.711-11.216-47.401-30.77-12.896-18.42-20.908-41.876-20.908-61.211a68.36 68.36 0 0 1 23.208-51.305 8.033 8.033 0 1 0-10.613-12.063 84.427 84.427 0 0 0-28.662 63.368c0 15.062 3.905 31.656 10.84 47.33-13.196 12.401-49.974 51.157-58.86 105.232-2.041 12.418.275 22.374 6.883 29.59 6.924 7.562 17.617 10.909 29.833 12.129-1.518 10.839-2.89 27.408-.749 44.568 3.67 29.405 16.585 51.328 37.352 63.401 10.876 6.325 15.19 17.317 16.892 25.423 4.562 21.723-2.99 49.461-19.706 72.386a17.254 17.254 0 0 0-1.45 18.071 17.272 17.272 0 0 0 15.469 9.491h60.28l.02.001h34.324a8.034 8.034 0 0 0 6.39-12.902l-16.06-21.079c11.461-27.298 14.092-60.297 7.813-98.18-.726-4.378-4.87-7.339-9.239-6.611a8.032 8.032 0 0 0-6.611 9.239c7.581 45.744-.443 75.956-8.51 93.247a8.032 8.032 0 0 0 .89 8.265l9.108 11.954h-14.77l-17.797-17.789c9.775-16.299 29.713-64.484-9.588-145.423 8.707-3.919 15.685-9.029 20.843-15.172 1 2.957 2.144 5.837 3.451 8.616 1.562 3.32 3.553 7.703 5.109 12.156a264.261 264.261 0 0 1 5.672 18.447 8.036 8.036 0 0 0 9.844 5.672 8.034 8.034 0 0 0 5.672-9.844 279.917 279.917 0 0 0-6.02-19.572c-1.798-5.15-4.011-10.025-5.737-13.696-8.597-18.281-9.003-42.235-5.996-65.426 6.234-.884 12.494-1.974 18.596-3.038 9.737-1.698 18.934-3.302 26.228-3.724 8.277-.476 10.565.834 10.938 1.099l.012.051a8.012 8.012 0 0 0 8.195 6.337 8.034 8.034 0 0 0 7.628-7.01c.118-.937 2.785-23.158-10.092-36.571zM329.531 94.169a15.56 15.56 0 0 1-12.871-6.762 15.558 15.558 0 0 1 12.871-6.762c5.236 0 9.996 2.571 12.871 6.762a15.556 15.556 0 0 1-12.871 6.762zM279.53 281.87c-.001.114.005.228.009.343.045 1.906.119 3.802.232 5.69-.341 15.691-10.084 26.733-29.032 32.861a8.034 8.034 0 0 0-4.654 11.353c14.26 27.401 30.053 68.226 24.309 107.112-3.391 22.958-12.874 34.595-12.933 34.668a8.034 8.034 0 0 0 .427 10.901l11.14 11.135h-40.904c-.195 0-.788 0-1.146-.703-.352-.694-.009-1.164.107-1.323 19.316-26.491 27.918-59.121 22.45-85.158-3.402-16.201-11.887-28.653-24.54-36.011-16.496-9.591-26.417-26.919-29.485-51.502-2.043-16.365-.514-32.248.954-42.012 8.325-.135 16.884-.776 25.106-1.391 9.857-.738 19.167-1.434 26.467-1.142 8.285.334 10.432 1.866 10.773 2.165l.008.055a8.034 8.034 0 0 0 15.813.877c.133-.578 1.289-5.852 1.2-12.796-.128-9.878-2.779-18.38-7.669-24.588-6.284-7.979-15.775-12.098-28.204-12.245-14.719-.174-26.875-.563-36.063-.96 2.412-8.932 8.393-17.537 11.077-20.705a8.035 8.035 0 0 0-12.228-10.423c-.567.663-11.96 14.183-15.143 30.262-2.332-.153-3.575-.253-3.625-.257a8.033 8.033 0 1 0-1.309 16.013c.853.07 21.293 1.713 57.1 2.135 7.415.088 12.564 2.077 15.742 6.084 2.129 2.685 3.277 6.165 3.827 9.682-2.107-.522-4.244-.854-6.281-1.055-9.031-.896-20.522-.034-32.687.877-21.855 1.639-49.056 3.678-58.037-6.132-3.154-3.446-4.096-8.723-2.878-16.134 7.36-44.786 36.878-78.962 50.722-92.869a133.694 133.694 0 0 0 5.255 8.128c16.985 24.261 38.494 37.622 60.564 37.622 6.81 0 13.568-1.277 20.155-3.749-7.438 22.397-17.348 58.981-16.619 93.192zm65.964-50.902h-.055c-9.066 0-20.396 1.976-32.392 4.068-4.325.755-8.729 1.515-13.11 2.204a325.415 325.415 0 0 1 3.959-17.591c8.814-.562 17.84-1.239 26.93-2.031 7.393-.638 12.713.841 16.268 4.519 2.383 2.466 3.864 5.82 4.756 9.267-2.149-.313-4.309-.434-6.356-.436z"/></svg>