<svg xmlns="http://www.w3.org/2000/svg" viewBox="0 0 511.996 511.996"><path d="M463.729 2.139a8.479 8.479 0 0 0-10.086-.872l-55.625 34.357h-38.741c-12.212-10.407-29.437-18.956-53.719-21.595-36.038-3.915-70.451-5.136-95.441 21.593h-17.842L136.651 1.266a8.478 8.478 0 0 0-10.086.872 8.48 8.48 0 0 0-2.066 9.91l24.005 51.8c4.235 9.141 11.807 16.114 20.854 19.781-11.984 22.26-4.375 48.197-3.986 49.481a8.483 8.483 0 0 0 13.5 4.092l9.117-7.486a97.72 97.72 0 0 0 6.022 15.08c-4.473 4.487-11.345 12.133-18.843 23.26a8.482 8.482 0 1 0 14.068 9.479c5.314-7.886 10.24-13.773 13.958-17.801 18.524 24.928 48.357 40.985 81.136 40.985h.78c15.983 0 31.543-3.771 45.627-10.971l6.695 28.568c2.013 8.59-2.776 17.307-11.139 20.275-15.738 5.584-42.562 10.96-80.979 4.84a8.483 8.483 0 0 0-2.668 16.752c12.996 2.069 24.818 2.919 35.478 2.918 16.73 0 30.57-2.094 41.544-4.838l-.642 7.864c-1.58 19.357-12.324 37.055-28.741 47.341a8.482 8.482 0 0 0 9.007 14.374 77.853 77.853 0 0 0 12.662-9.896l10.316 23.347a8.484 8.484 0 0 0 7.762 5.056 8.482 8.482 0 0 0 7.753-11.913l-13.814-31.262a80.112 80.112 0 0 0 3.605-6.337c16.482-.176 63.639-3.617 87.622-35.673 3.907-3.466 6.387-8.508 6.387-14.13 0-10.426-8.482-18.908-18.908-18.908-10.34 0-18.757 8.346-18.895 18.654-14.394-.257-27.991-1.009-37.216-2.206 6.919-8.055 9.955-19.139 7.38-30.129l-7.981-34.055 5.09-3.42h28.491c15.481 0 28.729-11.56 30.816-26.882L413 130.879a31.123 31.123 0 0 0-7.391-24.679 31.098 31.098 0 0 0-15.444-9.604 102.99 102.99 0 0 0-1.643-10.085h17.794c15.172 0 29.095-8.9 35.47-22.669l24.008-51.794a8.48 8.48 0 0 0-2.065-9.909zM163.895 56.715l-12.132-26.177 33.646 20.781a8.486 8.486 0 0 0 4.457 1.265h56.769a8.45 8.45 0 0 1 6.559 3.104 8.45 8.45 0 0 1 1.757 7.04 8.505 8.505 0 0 1-8.316 6.818h-62.653c-8.59-.001-16.476-5.037-20.087-12.831zM372.5 263.444c5.41.187 10.704.286 15.516.334-17.516 11.795-40.519 15-54.043 15.821a78.14 78.14 0 0 0 1.959-12.089l.614-7.516c7.14 1.586 18.205 2.837 35.954 3.45zm20.331-146.086c2.73 3.128 3.925 7.117 3.364 11.224l-2.636 19.21c-.949 6.965-6.972 12.217-14.01 12.217h-31.076a8.477 8.477 0 0 0-4.73 1.442l-12.099 8.13a83.176 83.176 0 0 1-46.533 14.177h-.78c-39.532 0-73.914-28.02-81.896-65.903l15.222-12.5a8.483 8.483 0 0 0-10.765-13.111l-27.229 22.36c-.292-8.51 1.103-19.45 8.106-28.096h58.866c12.087 0 22.579-8.601 24.95-20.453a25.353 25.353 0 0 0-5.273-21.121 25.352 25.352 0 0 0-19.677-9.313h-8.626c17.819-8.821 39.968-7.527 65.715-4.729 54.854 5.962 66.708 46.676 69.265 64.656h-27.15a31.09 31.09 0 0 0-23.425 10.651 31.14 31.14 0 0 0-7.393 24.688l1.654 12.061c-8.315 1.892-22.881 2.91-30.235-10.249a8.48 8.48 0 0 0-11.542-3.266 8.482 8.482 0 0 0-3.266 11.542c14.241 25.482 43.949 21.48 57.669 15.799a8.48 8.48 0 0 0 5.159-8.989l-2.634-19.195a14.17 14.17 0 0 1 3.365-11.234c2.727-3.123 6.506-4.842 10.646-4.842h36.335c4.146-.002 7.931 1.719 10.659 4.844zm33.563-60.644c-3.61 7.797-11.491 12.837-20.078 12.837h-22.962a95.416 95.416 0 0 0-3.095-6.905 89.342 89.342 0 0 0-5.861-10.058h26.027a8.493 8.493 0 0 0 4.457-1.265l33.643-20.78-12.131 26.171z"/><path d="M309.947 61.098a8.482 8.482 0 0 0-8.482 8.482v18.094a8.482 8.482 0 1 0 16.964 0V69.58a8.482 8.482 0 0 0-8.482-8.482zm30.157 0a8.482 8.482 0 0 0-8.482 8.482v16.209a8.482 8.482 0 1 0 16.964 0V69.58a8.483 8.483 0 0 0-8.482-8.482zm18.544 71.917c-1.319-3.125-4.425-5.236-7.831-5.236-3.393 0-6.53 2.11-7.831 5.236-1.416 3.404-.407 7.467 2.451 9.801 2.721 2.221 6.629 2.535 9.666.761 3.611-2.109 5.14-6.699 3.545-10.562zm21.804-4.58c-3.259-1.346-7.171-.507-9.532 2.135-2.463 2.755-2.881 6.87-.99 10.052 1.768 2.974 5.318 4.585 8.724 3.995 3.507-.606 6.279-3.411 6.903-6.903.68-3.818-1.488-7.832-5.105-9.279zM361.99 389.202l-13.116-29.667a8.482 8.482 0 0 0-15.515 6.857l13.111 29.672a13.506 13.506 0 0 1-3.019 15.188L304.846 448.1a8.48 8.48 0 0 0-1.564 10.242l2.95 5.331-16.942 3.516-9.289-21.378 34.606-36.641a8.483 8.483 0 0 0 .09-11.551l-43.628-47.665c-.13-5.798-.3-12.066-.517-18.857-.149-4.682-4.045-8.328-8.747-8.207a8.48 8.48 0 0 0-8.207 8.747c1.985 62.293-.154 77.222-1.01 80.603l-37.566 35.861a8.48 8.48 0 0 0-1.564 10.242l2.889 5.22-16.932 3.515-9.237-21.266 34.607-36.641a8.481 8.481 0 0 0 1.16-10.096l-10.678-18.311c-18.167-31.154-27.85-66.592-28.118-102.631 12.069-19.839 28.244-38.644 49.654-50.578a8.482 8.482 0 0 0 3.279-11.538 8.482 8.482 0 0 0-11.538-3.28c-29.875 16.652-54.956 47.501-72.529 89.214a287.294 287.294 0 0 0-3.839 9.591c.437-50.785 12.409-87.465 23.89-111.058a8.483 8.483 0 0 0-3.915-11.338 8.484 8.484 0 0 0-11.338 3.915c-14.882 30.586-30.563 81.577-24.119 154.412-9.141-1.354-18.261-4.208-25.524-9.672-11.054-8.319-16.428-21.372-16.428-39.908 0-32.552 8.372-50.532 15.099-64.978 11.109-23.857 16.047-39.524-13.563-74.569a26.417 26.417 0 0 0 2.285-10.761c0-14.654-11.922-26.575-26.576-26.575H53.896a8.482 8.482 0 0 0-8.482 8.481v18.094c0 14.654 11.922 26.576 26.575 26.576 4.599 0 8.928-1.176 12.705-3.24 10.351 12.493 15.706 22.102 16.704 29.901 1.009 7.877-2.151 14.662-6.935 24.932-7.042 15.121-16.685 35.831-16.685 72.138 0 23.916 7.817 41.914 23.233 53.492 10.994 8.258 24.523 12.081 37.84 13.464 2.656 7.233 9.593 12.418 17.737 12.418 8.544 0 15.773-5.701 18.109-13.495a176.964 176.964 0 0 0 12.237-2.207 223.255 223.255 0 0 0 13.679 27.741l7.481 12.829-34.092 36.097a8.48 8.48 0 0 0-1.613 9.203l25.829 59.461a8.48 8.48 0 0 0 12.703 3.528l10.943-7.797 22.606 6.734a8.481 8.481 0 0 0 9.842-12.237l-22.842-41.275 33.874-32.336c2.768-2.642 6.067-5.798 6.05-48.087l25.468 27.825-33.035 34.978a8.481 8.481 0 0 0-1.613 9.204l25.836 59.459a8.482 8.482 0 0 0 12.704 3.527l10.936-7.796 22.605 6.733a8.48 8.48 0 0 0 9.03-2.813 8.484 8.484 0 0 0 .812-9.424l-22.841-41.271 33.872-32.332c9.249-8.828 11.99-22.618 6.822-34.313zM71.986 157.196c-5.3 0-9.612-4.312-9.612-9.612v-9.612h9.612c5.3 0 9.612 4.312 9.612 9.612s-4.312 9.612-9.612 9.612zm99.711 189.846c-2.672-3.558-6.555-6.15-11.044-7.139 2.687-9.272 6.477-20.621 11.632-32.672a223.963 223.963 0 0 0 8.76 38.214 166.31 166.31 0 0 1-9.348 1.597zm51.035 138.147a8.484 8.484 0 0 0-7.343 1.221l-5.788 4.124-3.286-7.566 18.63-3.866 4.47 8.078-6.683-1.991zm89.825-.004a8.482 8.482 0 0 0-7.345 1.222l-5.781 4.122-3.237-7.449 18.637-3.868 4.407 7.964-6.681-1.991z"/></svg>