<svg xmlns="http://www.w3.org/2000/svg" viewBox="0 0 511.993 511.993"><path d="M307.107 134.062c-5.137-5.137-11.969-7.967-19.234-7.967-7.265 0-14.096 2.829-19.233 7.967a8 8 0 1 0 11.313 11.313c4.366-4.366 11.471-4.367 15.839 0a7.981 7.981 0 0 0 5.658 2.344 7.977 7.977 0 0 0 5.658-2.344 7.999 7.999 0 0 0-.001-11.313zm38.687 45.865a8 8 0 0 0-11.313 0 11.124 11.124 0 0 1-7.919 3.281 11.122 11.122 0 0 1-7.919-3.281c-3.125-3.123-8.191-3.124-11.313 0a8 8 0 0 0-.001 11.314c5.137 5.137 11.968 7.967 19.233 7.967s14.096-2.83 19.233-7.967a7.998 7.998 0 0 0-.001-11.314zm-34.586 166.175c-3.001-1.891-7.017-1.567-9.647.829-2.57 2.34-3.349 6.201-1.859 9.349 1.308 2.763 4.174 4.582 7.232 4.582 3.685 0 6.954-2.626 7.79-6.199.764-3.265-.682-6.774-3.516-8.561zm4.112-286.664a7.994 7.994 0 0 0-8.786-7.127c-13.896 1.447-27.463 3.985-40.322 7.54a8 8 0 0 0-5.578 9.843 8 8 0 0 0 9.843 5.578c12.007-3.321 24.697-5.692 37.715-7.047a8.003 8.003 0 0 0 7.128-8.787zM135.045 241.445a7.996 7.996 0 0 0-9.003-6.03c-25.044 3.883-41.399 13.851-48.612 29.628-12.131 26.535 7.51 58.438 8.352 59.783a8.005 8.005 0 0 0 8.849 3.484 8 8 0 0 0 5.926-7.439c.006-.165 1.062-16.807 17.716-28.282 24.676-16.999 17.106-49.757 16.772-51.144zm-25.847 37.968c-8.409 5.793-13.948 12.552-17.597 18.888-2.38-8.326-3.476-18.212.4-26.648 4.129-8.987 13.647-15.305 28.345-18.836.248 7.821-1.227 19.761-11.148 26.596z"/><path d="M438.133 300.187c-11.595 0-27.122-6.764-45.422-19.691 12.475-.151 22.809-3.758 30.861-10.822 21.934-19.24 17.079-56.389 16.863-57.961a7.999 7.999 0 0 0-15.099-2.442c-.073.148-7.852 14.898-27.745 18.546-19.444 3.565-28.89 19.132-33.145 29.717a392.896 392.896 0 0 1-13.712-13.105c21.911-12.474 36.122-36.315 40.658-69.526 6.597-2.242 18.498-6.817 30.007-13.957 30.405-18.862 33.277-39.933 30.333-54.286-5.835-28.444-25.188-37.43-39.321-43.993-6.092-2.829-10.634-5.044-13.44-7.711l16.626-12.29h25.098a8 8 0 0 0 8-8 8 8 0 0 0-8-8h-16.261l3.501-9.501a7.998 7.998 0 0 0-4.74-10.272 7.998 7.998 0 0 0-10.272 4.741l-6.639 18.021-13.918 10.287c-3.77-9.052-9.709-19.067-19.814-26.618-16.062-12.001-38.909-14.99-67.904-8.886-27.225 5.732-45.743 18.676-62.081 30.097l-.703.492-20.367-14.144V8a8 8 0 0 0-8-8 8 8 0 0 0-8 8v11.572l-22.606 8.694a8 8 0 0 0-4.595 10.338 8.003 8.003 0 0 0 7.469 5.131c.955 0 1.925-.172 2.869-.535l23.778-9.146 15.174 10.538c-15.383 9.469-30.677 14.853-53.717 8.989-29.856-7.599-58.799-2.066-81.5 15.579-20 15.548-31.94 38.541-31.94 61.507a7.998 7.998 0 0 0 4.778 7.315 8.011 8.011 0 0 0 8.629-1.419c.182-.166 13.839-12.467 32.915-18.78a225.83 225.83 0 0 0-14.035 19.651 8 8 0 0 0 2.448 11.045 8 8 0 0 0 11.045-2.447c13.924-21.849 27.153-33.819 27.276-33.93a8 8 0 0 0-5.322-13.972c-19.545 0-36.826 7.628-48.676 14.726 4.037-11.735 11.917-22.683 22.703-31.068 18.716-14.548 42.772-19.059 67.732-12.706 32.038 8.154 52.416-1.65 71.889-14.615l5.521 3.834a7.966 7.966 0 0 0 4.556 1.429 8 8 0 0 0 4.57-14.572l-.579-.402c14.58-10.111 30.123-20.046 52.064-24.666 24.301-5.118 42.815-3.082 55.03 6.046 7.609 5.686 12.091 13.517 15.056 20.991-9.242-3.362-19.1-6.066-26.934-6.066a8 8 0 0 0-8 8 8 8 0 0 0 8 8c9.499 0 31.367 9.216 43.376 14.395 3.54 2.154 7.392 3.949 11.201 5.717 13.459 6.25 26.172 12.154 30.386 32.695 2.781 13.559-4.905 26.114-22.841 37.317-7.113 4.443-14.544 7.81-20.381 10.122.061-1.94.102-3.889.102-5.857 0-8.256-.545-16.16-1.59-23.679 2.417 1.607 3.684 2.63 3.723 2.662a7.998 7.998 0 0 0 11.246-1.065 8 8 0 0 0-1.047-11.265c-2.173-1.804-54.261-43.924-143.559-21.877-.206.051-.411.11-.612.177l-71.892 23.965c11.778-11.27 29.675-25.033 54.64-35.771a8 8 0 1 0-6.323-14.699c-55.469 23.861-78.943 61.394-79.915 62.979a8.002 8.002 0 0 0 9.351 11.77l20.775-6.925c-1.337 2.653-2.365 5.581-3.021 8.717-31.86.046-62.862 12.53-90.078 36.389a186.538 186.538 0 0 0-11.009 10.484 212.772 212.772 0 0 1 10.031-24.729 7.998 7.998 0 0 0-3.745-10.675 8.001 8.001 0 0 0-10.676 3.745c-9.762 20.314-16.418 41.777-19.782 63.796a7.997 7.997 0 0 0 13.54 6.881c.008-.006.019-.01.026-.016 13.703-13.705 56.951-28.164 83.667-9.738 28.316 19.529 69.029 8.758 83.235 4.06a104.071 104.071 0 0 0 3.361 3.009c-2.204 4.911-6.505 13.156-14.034 23.147-4.464 1.334-17.349 4.378-30.061-.187l-19.347-14.256a8 8 0 0 0-9.491 12.881l9.932 7.317-15.276 7.943a8 8 0 0 0 3.697 15.099 7.96 7.96 0 0 0 3.684-.903l23.605-12.275c6.017 1.874 11.917 2.57 17.28 2.614-16.736 16.619-37.652 30.965-62.315 42.729a8 8 0 0 0 3.12 15.214c.396.016 2.481.093 5.854.093 7.827 0 22.587-.418 39.227-2.967l-2.634 6.256a8.001 8.001 0 0 0 14.746 6.21l6.844-16.255c8.475-2.132 16.954-4.918 24.849-8.574a101.155 101.155 0 0 0 6.671-3.391c-.532 3.407-1.275 7.082-2.291 10.762-3.173 11.488-7.909 18.935-12.995 20.435a7.994 7.994 0 0 0-3.472 2.113c-.03.028-.065.049-.094.079-1.119 1.19-27.267 29.619-14.229 69.921 1.057 3.267 2.451 6.664 4.142 10.096a8.001 8.001 0 1 0 14.352-7.074c-1.35-2.74-2.451-5.414-3.27-7.949a58.954 58.954 0 0 1-2.122-8.788c13.755 1.975 39.799 7.44 55.703 21.633 1.549 19.082.084 40.407-1.663 56.388-4.465-5.612-9.851-11.588-15.697-18.073-7.712-8.555-15.688-17.401-22.462-26.518a8.001 8.001 0 0 0-12.844 9.542c7.226 9.727 15.459 18.859 23.422 27.691 7.823 8.677 16.366 18.156 20.865 25.389h-6.948a8 8 0 0 0-8 8 8 8 0 0 0 8 8h40.533a8 8 0 0 0 8-8 8 8 0 0 0-8-8h-5.743c18.551-24.402 53.92-77.238 45.317-115.451 14.249-24.063 16.66-46.783 16.43-60.583 8.401 1.322 16.787 1.85 24.731 1.85 26.214 0 47.619-5.558 48.885-5.894a8 8 0 0 0 5.885-8.766 8.006 8.006 0 0 0-7.937-6.956zm-37.657-56.633c10.011-1.836 17.814-5.714 23.732-9.984-1.249 8.57-4.284 18.02-11.186 24.076-7.447 6.533-18.734 8.409-33.607 5.607 2.974-7.236 9.211-17.526 21.061-19.699zm-234.705-34.14c-20.553-14.174-46.662-13.628-68.23-7.401a167.532 167.532 0 0 1 8.007-7.465c24.471-21.325 51.043-32.106 79.077-32.11 2.716 13.761 12.518 23.684 24.528 23.684 1.361 0 2.708-.131 4.031-.39a102.543 102.543 0 0 0 14.881 27.755c-15.316 4.156-43.353 8.989-62.294-4.073zm60.188-36.709a7.997 7.997 0 0 0-12.882-4.193c-1.281 1.068-2.601 1.61-3.922 1.61-4.389 0-9.28-6.352-9.28-15.467s4.891-15.467 9.28-15.467c1.117 0 2.192.369 3.287 1.126a8 8 0 0 0 12.416-5.102 85.458 85.458 0 0 1 2.768-10.78l38.227-12.742c42.237-10.362 75.053-4.755 95.161 1.785a139.601 139.601 0 0 1 12.279 4.64c.74 3.089 1.374 6.278 1.89 9.57-9.589-3.411-20.723-1.289-28.387 6.374a8 8 0 1 0 11.314 11.313c4.367-4.367 11.471-4.367 15.838 0a7.967 7.967 0 0 0 2.932 1.857c.034 1.398.061 2.802.061 4.225 0 5.685-.279 11.252-.831 16.555-2.714 26.285-14.875 70.379-65.836 70.379-39.923 0-74.595-27.01-84.315-65.683zm74.13 302.674c1.569-15.708 2.687-35.422 1.313-53.787 5.492-3.822 17.553-11.137 32.291-13.555-5.098 22.373-20.04 47.943-33.604 67.342zm-.945-71.324c-.965-4.156-5.038-6.852-9.269-6.048a7.979 7.979 0 0 0-5.145 3.389c-19.292-11.694-43.051-16.081-55.269-17.644 1.275-9.223 4.692-16.673 7.715-21.726 4.653 4.655 11.601 10.574 20.948 15.858 11.886 6.719 29.457 13.332 52.567 13.332 7.597 0 15.802-.726 24.592-2.387.092.93.156 1.872.189 2.829-14.991 1.585-27.786 7.415-36.328 12.397zm37.307-31.787c-48.217 10.727-76.428-9.951-87.636-21.133 8.683-7.98 13.468-21.739 15.867-34.066a27.82 27.82 0 0 0 15.678 4.818c11.662 0 21.934-7.353 25.937-17.968h5.029c2.633 11.364 12.307 20.292 24.532 21.387.822.074 1.642.111 2.46.111 4.273 0 8.453-1.006 12.226-2.853-.145 11.614-2.593 30.188-14.093 49.704zm-67.843-77.927c0-.476.016-.852.053-1.249.158-1.76.73-3.062 3.089-4.111 1.977-.879 4.705-1.334 7.884-1.334 1.075 0 2.201.052 3.365.157 5.183.464 7.211 1.655 7.957 2.324.351.315 1.419 1.271 1.075 5.073-.581 6.443-6.288 11.221-12.726 10.641-6.047-.551-10.646-5.524-10.697-11.501zm58.048 2.299c.413-4.571 6.317-5.466 10.874-5.466 1.325 0 2.537.076 3.467.158 9.626.871 9.367 3.76 9.041 7.406a11.63 11.63 0 0 1-2.135 5.774c-2.459 3.42-6.437 5.237-10.612 4.859-6.441-.576-11.211-6.29-10.635-12.731zm38.794 6.908a28 28 0 0 0 .524-3.373c.751-8.39-1.31-22.765-23.542-24.778-14.794-1.322-25.549 3.373-29.804 12.523h-5.238c-1.155-4.626-3.549-7.733-5.754-9.709-4.01-3.593-9.638-5.668-17.202-6.345-5.147-.466-12.655-.411-19.185 2.494-6.351 2.826-10.525 7.784-12.006 14.101-4.544 4.026-10.259 7.644-16.997 10.758-15.025 6.957-32.915 10.447-48.103 12.178 16.937-10.898 31.655-23.261 43.971-36.954 12.835-14.258 20.295-26.962 24.33-35.214 15.779 9.668 34.271 15.157 53.833 15.157 8.812 0 17.022-1.12 24.583-3.295 5.812 6.057 18.449 18.731 33.99 31.347 12.038 9.767 23.264 17.436 33.617 22.976-11.35.715-24.358.525-37.017-1.866z"/></svg>