<svg xmlns="http://www.w3.org/2000/svg" viewBox="0 0 511.996 511.996"><path d="M235.969 300.063c-1.257-3.15-4.569-5.136-7.931-4.892-3.177.23-5.972 2.415-6.964 5.438-1.027 3.128.013 6.712 2.622 8.746a8.045 8.045 0 0 0 9.344.364c3.114-2.053 4.386-6.215 2.929-9.656zm62.863 1.485c-.69-3.323-3.447-5.929-6.833-6.34-3.164-.384-6.328 1.201-7.894 3.977-3.54 6.273 2.796 13.864 9.599 11.406 3.707-1.338 5.834-5.198 5.128-9.043zm-47.445-123.217l-3.279-13.137c-1.064-4.266-5.39-6.857-9.649-5.795a7.957 7.957 0 0 0-5.794 9.649l3.279 13.137a7.962 7.962 0 0 0 7.716 6.034c.639 0 1.287-.077 1.933-.239a7.956 7.956 0 0 0 5.794-9.649zm58.024-12.044l-3.279-13.137a7.962 7.962 0 0 0-9.649-5.795 7.957 7.957 0 0 0-5.794 9.649l3.279 13.137a7.96 7.96 0 0 0 7.716 6.034 7.957 7.957 0 0 0 7.727-9.888zm4.131 33.288a7.958 7.958 0 0 0-11.138-1.617c-11.542 8.619-27.111 11.097-41.641 6.634a7.959 7.959 0 0 0-4.673 15.216 65.055 65.055 0 0 0 19.09 2.875c13.262 0 26.209-4.104 36.746-11.969a7.958 7.958 0 0 0 1.616-11.139z"/><path d="M400.879 288.848a7.959 7.959 0 1 0-14.976 3.756c0 23.645-2.277 43.291-5.649 59.419-13.952-6.536-31.722-27.786-48.875-58.376 8.959-.654 15.359-1.742 15.732-1.807a7.958 7.958 0 0 0-2.185-15.758c-8.293.873-12.688-5.198-19.924-18.267 17.213-22.07 21.931-55.039 13.239-93.675-4.22-18.731-10.685-34.951-19.209-48.196-5.39-8.412-11.607-15.544-18.506-21.303 2.082-10.732 3.697-24.98 1.837-39.121-2.763-20.986-12.227-36.37-28.137-45.724-20.438-12.02-41.126-13.011-58.249-2.793-18.872 11.263-28.488 32.657-27.955 47.074.054 1.445.177 2.866.337 4.272-12.248-6.684-25.554-9.771-39.589-9.071-25.166 1.255-44.161 13.924-53.49 35.67-9.425 21.97-7.214 50.332 5.038 64.574 10.501 12.189 24.474 19.364 38.338 19.685a40.46 40.46 0 0 0 12.759-1.751 103.553 103.553 0 0 0-.971 9.588c-.768.086-1.53.213-2.285.383-7.052 1.581-12.972 6.759-16.239 14.204-2.947 6.719-3.59 14.78-1.808 22.697 3.941 17.522 18.039 28.783 32.112 25.63a21.153 21.153 0 0 0 4.094-1.369 104.725 104.725 0 0 0 7.685 10.728 7.945 7.945 0 0 0 6.17 2.926 7.957 7.957 0 0 0 6.159-12.991 89.116 89.116 0 0 1-10.493-16.153 7.962 7.962 0 0 0-6.37-4.338 7.97 7.97 0 0 0-7.058 3.092c-1.072 1.402-2.308 2.268-3.671 2.573-4.518 1.013-11.015-4.319-13.1-13.591-1.027-4.562-.715-9.23.855-12.808.711-1.621 2.325-4.435 5.154-5.069a5.256 5.256 0 0 1 1.266-.107c9.12 14.789 34.477 24.666 39.857 26.627a7.963 7.963 0 0 0 8.225-1.724 7.962 7.962 0 0 0 2.092-8.139c-8.797-27.978 7.248-53.221 12.888-60.912a25.95 25.95 0 0 0 10.159-3.998 26.009 26.009 0 0 0 8.846-10.139c7.839 2.443 20.359 5.429 34.763 5.429 12.444 0 26.288-2.25 39.707-8.99 5.673 10.431 10.126 22.716 13.261 36.637 6.968 30.971 4.492 57.292-6.864 75.509-4.75-5.832-11.576-11.07-21.548-10.361-10.768.766-18.686 6.7-22.304 16.723-2.512 7.002-2.466 14.408-.09 21.188-21.23 3.917-42.997.096-61.669-10.924a90.231 90.231 0 0 1-10.395-7.163 7.958 7.958 0 0 0-11.185 1.255 7.96 7.96 0 0 0 1.255 11.186 106.25 106.25 0 0 0 6.148 4.548 133.279 133.279 0 0 0-3.296 8.368c-10.786 22.188-36.238 65.096-57.982 74.424-6.087-.95-20.932-2.11-30.022 6.993a7.96 7.96 0 0 0 11.262 11.249c2.13-2.132 6.157-2.864 10.016-2.936l-1.561 7.793a7.958 7.958 0 0 0 7.812 9.522 7.962 7.962 0 0 0 7.796-6.398l2.072-10.349c11.206-.787 33.814-3.489 50.011-12.674.229.589.451 1.181.691 1.764.028.066.066.123.096.188a85.585 85.585 0 0 0 3.813 7.981c-2.584 4.654-6.086 11.358-9.451 19.054a7.958 7.958 0 0 0 4.105 10.48 7.942 7.942 0 0 0 3.183.669 7.961 7.961 0 0 0 7.297-4.773c4.364-9.982 9.087-18.327 10.916-21.451a7.945 7.945 0 0 0 1.037-3.161 194.642 194.642 0 0 0 43.719 4.967c14.861 0 29.718-1.699 44.196-5.077a7.938 7.938 0 0 0 1.057 4.219c14.344 24.841 25.403 55.954 15.793 65.565-5.671 5.67-9.52 5.083-10.788 4.89-1.532-.231-3.16-.877-4.835-1.917a7.957 7.957 0 0 0-10.96 2.564 7.96 7.96 0 0 0 2.564 10.96 31.815 31.815 0 0 0 4.546 2.341l.665 8.226h-23.665l-6.481-28.912a6.237 6.237 0 0 1 .962-4.964c1.011-1.466 2.54-2.413 4.251-2.657a7.952 7.952 0 0 0 5.594-3.424 7.966 7.966 0 0 0 1.124-6.464l-6.484-25.107a7.964 7.964 0 0 0-9.108-5.844c-5.91 1.058-11.73 1.182-17.296.372a7.957 7.957 0 0 0-8.854 5.892l-6.355 24.693c-.563 2.191-.132 4.525 1.126 6.407a8.039 8.039 0 0 0 5.531 3.466 6.252 6.252 0 0 1 4.306 2.665 6.26 6.26 0 0 1 .971 4.969l-6.479 28.906h-23.684l.662-8.214a31.644 31.644 0 0 0 4.577-2.358 7.96 7.96 0 0 0-8.413-13.513c-1.672 1.041-3.293 1.682-4.815 1.906l-.022.004-.019.002c-1.261.192-5.091.775-10.766-4.89-4.869-4.871-3.908-14.948-2.245-22.543a7.958 7.958 0 0 0-6.073-9.476 7.958 7.958 0 0 0-9.476 6.072c-3.654 16.69-1.455 29.205 6.542 37.206 5.13 5.122 10.16 7.714 14.639 8.863l-3.812 47.261a7.957 7.957 0 0 0 11.799 7.597l15.133-8.411 10.095 7.762a7.958 7.958 0 0 0 12.618-4.568l11.856-52.892 11.854 52.892a7.955 7.955 0 0 0 7.766 6.218 7.96 7.96 0 0 0 4.855-1.651l10.084-7.76 15.131 8.41a7.96 7.96 0 0 0 11.799-7.597l-3.82-47.264c4.488-1.148 9.523-3.734 14.654-8.865 19.076-19.076.358-60.181-10.987-80.748a76.904 76.904 0 0 0 4.363-9.694c.151-.402.289-.819.434-1.227 17.5 9.92 42.457 12.267 52.458 12.817-9.62 32.594-23.011 46.014-23.886 46.863l-.005.006c-2.575 2.488-3.231 6.495-1.346 9.727 8.387 14.373 23.624 22.782 39.646 22.782 4.197 0 8.451-.577 12.647-1.776l1.358-.393a7.96 7.96 0 0 0 5.036-4.353c4.024-8.853 7.152-18.249 9.3-27.924a7.96 7.96 0 0 0-6.047-9.494 7.96 7.96 0 0 0-9.493 6.047c-.682 3.077-1.502 6.11-2.404 9.111a30.88 30.88 0 0 0-10.219-7.293c-4.763-2.107-9.679-2.879-14.306-2.899 8.623-14.964 18.984-39.97 23.323-78.091 4.206 15.279 7.607 34.42 6.744 54.836a7.96 7.96 0 0 0 7.615 8.289c4.397.171 8.102-3.224 8.289-7.615 2.221-52.393-20.545-95.582-21.516-97.396zM141.116 122.88c-4.004-4.929-5.524-11.004-3.782-15.118 1.747-4.128 6.676-5.394 10.5-5.729 8.776-.767 17.772 3.739 26.788 13.381-1.963 2.37-3.84 4.82-5.593 7.351-.084.12-.163.243-.24.367a102.827 102.827 0 0 0-5.302 8.598c-12.667 1.145-19.776-5.657-22.371-8.85zm43.671 75.648c-8.202-4.288-15.968-9.6-18.534-14.342a88.444 88.444 0 0 1 4.842-30.564c.038-.097.074-.195.109-.294a88.574 88.574 0 0 1 4.534-10.714c.041-.084.083-.169.122-.254a87.406 87.406 0 0 1 6.246-10.501c.082-.118.16-.239.237-.361a92.738 92.738 0 0 1 2.333-3.175c1.609 2.433 3.187 5 4.722 7.701a25.715 25.715 0 0 0 9.464 9.531c-6.837 10.972-15.965 30.262-14.075 52.973zm32.523-67.073a9.917 9.917 0 0 1-5.49 1.677c-3.605 0-6.815-1.859-8.586-4.974-3.729-6.557-7.71-12.497-11.83-17.649-13.994-17.53-29.12-25.715-44.957-24.336-15.595 1.367-21.586 10.223-23.77 15.379-4.098 9.68-1.766 21.697 6.087 31.362 6.708 8.257 16.203 13.29 26.811 14.535-4.717 3.975-10.407 5.991-16.548 5.843-9.369-.216-19.081-5.378-26.643-14.156-7.269-8.448-10.072-30.203-2.475-47.914 4.813-11.221 15.601-24.847 39.657-26.047a62.028 62.028 0 0 1 3.129-.079c21.5 0 40.391 11.259 56.183 33.499 4.38 6.187 8.385 13.076 11.891 20.45a9.799 9.799 0 0 1 .93 4.708 9.976 9.976 0 0 1-4.389 7.702zm-.554-76.64c-.465 7.561 1.544 17.124 7.622 25.676-3.676-.334-7.079-1.661-10.059-3.946-6.231-4.782-10.018-13.187-10.389-23.058-.316-8.515 6.529-24.654 20.205-32.814 12.075-7.206 26.606-6.221 42.025 2.848 11.297 6.643 28.633 24.901 17.804 72.555-.018.08-.035.159-.051.239-.054.277-.117.539-.18.809-.797 3.393-4.042 5.728-7.541 5.426-3.661-.315-6.528-3.418-6.528-7.064 0-.362.031-.757.082-1.097.386-2.435.71-4.945.961-7.471 2.436-24.71-3.403-42.505-16.892-51.462-5.782-3.835-10.891-5.057-15.052-5.057-3.899 0-6.967 1.073-8.984 2.077-7.524 3.743-12.393 12.095-13.023 22.339zm38.569 22.749a86.196 86.196 0 0 0-11.137.42c-9.089-6.435-11.95-15.613-11.544-22.194.264-4.297 1.965-7.941 4.231-9.069 2.547-1.269 6.196.706 8.139 1.994 8.433 5.6 10.496 17.641 10.311 28.849zm-18.141 40.938a26.002 26.002 0 0 0-2.025-6.264 160.124 160.124 0 0 0-7.757-14.399 89.868 89.868 0 0 1 7.707-2.196l.109-.026c.248-.063.506-.125.857-.201 6.148-1.384 12.093-2.027 17.771-1.96-.061.683-.1 1.362-.1 2.027 0 11.837 9.261 21.907 21.086 22.924.652.055 1.3.083 1.944.083 6.831 0 13.188-3.086 17.495-8.071a75.19 75.19 0 0 1 6.38 7.141c-25.238 11.694-52.984 4.468-63.467.942zm-72.089 230.254c6.631-7.045 13.447-15.823 20.413-26.302l.029-.042c.194 5.87.857 11.656 2.001 17.312-5.769 4.136-14.023 7.04-22.443 9.032zm67.803 141.372l-4.352-3.347a7.958 7.958 0 0 0-8.719-.647l-6.71 3.729.875-10.865h21.399l-2.493 11.13zm24.654-69.99a22.22 22.22 0 0 0-6.853-6.406l2.896-11.252c2.603.094 5.225.04 7.866-.162l2.946 11.407a22.224 22.224 0 0 0-6.855 6.413zm37.722 65.995a7.96 7.96 0 0 0-8.721.649l-4.34 3.339-2.494-11.124h21.385l.879 10.865-6.709-3.729zm16.111-145.246a78.988 78.988 0 0 1-1.814 6.779c-33.435 10.234-69.818 10.309-103.297.208a78.14 78.14 0 0 1-2.203-7.16c-4.536-17.785-3.33-37.458 3.491-56.89.016-.045.04-.083.056-.127.707-2.02 1.489-4.043 2.324-6.059 14.329 6.924 29.9 10.485 45.664 10.485 7.754 0 15.552-.859 23.271-2.595.909-.208 1.821-.44 2.733-.672a33.264 33.264 0 0 0 14.987 7.355c4.73.965 10.026 1.569 15.809 1.808 2.238 17.614 1.896 33.744-1.021 46.868zm-11.61-64.274a17.266 17.266 0 0 1-9.741-5.785c-3.856-4.563-4.998-10.525-3.058-15.931 1.481-4.106 3.932-5.912 8.456-6.234.187-.013.371-.02.554-.02 4.048 0 7.39 3.3 12.474 12.196.798 1.394 1.585 2.823 2.378 4.257 2.294 4.158 4.878 8.84 8.07 13.121-7.268.036-13.73-.501-19.133-1.604zm28.112 62.802c.984-5.622 1.596-11.554 1.821-17.787 7.658 11.631 14.737 20.467 21.093 27.143-8.646-2.041-17.119-5.044-22.914-9.356zm56.438 86.876c2.6 1.157 4.777 3.004 6.569 5.565a29.977 29.977 0 0 1-19.247-6.724c4.153-.617 8.769-.58 12.678 1.159z"/></svg>