<svg xmlns="http://www.w3.org/2000/svg" viewBox="0 0 512 512"><path d="M395.677 168.377a8.228 8.228 0 0 0-16.248 1.834c0 15.847-5.005 46.487-36.68 80.891L275.784 26.085a8.225 8.225 0 0 0-7.885-5.881h-3.773V8.227A8.227 8.227 0 0 0 255.899 0a8.227 8.227 0 0 0-8.227 8.227v11.977H243.9a8.226 8.226 0 0 0-7.885 5.88l-36.75 123.476a8.228 8.228 0 0 0 15.772 4.694l15.286-51.362a81.813 81.813 0 0 0 9.97 2.249l-18.444 95.778a8.228 8.228 0 0 0 8.087 9.785c3.865 0 7.313-2.737 8.069-6.673l18.825-97.762a95.89 95.89 0 0 0 2.168-.076l11.534 89.572a8.228 8.228 0 0 0 9.211 7.109 8.225 8.225 0 0 0 7.108-9.21l-11.539-89.607c1.98-.428 4.003-.931 6.059-1.505l77.606 260.777a357.599 357.599 0 0 1-103.08 15.152 358.356 358.356 0 0 1-50.788-3.621l5.553-28.836a8.227 8.227 0 1 0-16.157-3.112l-5.631 29.237a357.95 357.95 0 0 1-36.057-8.819l10.891-36.587a106.018 106.018 0 0 0 14.53 7.662 8.2 8.2 0 0 0 3.261.678 8.23 8.23 0 0 0 7.556-4.964 8.225 8.225 0 0 0-4.286-10.817c-32.06-13.864-50.683-42.448-55.354-84.958a182.94 182.94 0 0 1-.968-13.517c5.325 11.009 12.334 21.899 20.952 32.474 16.209 19.894 32.304 31.693 32.981 32.184a8.228 8.228 0 0 0 9.679-13.307c-.15-.11-4.016-2.965-9.71-8.103l25.704-86.364a8.228 8.228 0 0 0-15.772-4.694l-23.182 77.893c-16.752-18.317-36.536-47.069-36.536-80.698a8.228 8.228 0 0 0-16.248-1.834c-.293 1.28-7.123 31.765-3.304 67.313 3.705 34.484 16.238 61.724 36.701 80.4l-14.979 50.321a8.227 8.227 0 0 0 5.342 10.171 374.015 374.015 0 0 0 87.541 17.276l29.317 35.217-15.533 22.44c-8.599 12.42-13.024 27.576-12.461 42.675a18.443 18.443 0 0 0 18.489 17.81h56.42a8.227 8.227 0 0 0 8.227-8.227c0-16.575-11.374-30.784-26.897-34.883l22.029-32.196a8.224 8.224 0 0 0 1.214-6.547l-8.963-37.754a374.19 374.19 0 0 0 72.264-15.812 8.227 8.227 0 0 0 5.342-10.171l-14.924-50.149c12.496-11.33 22.06-25.876 28.451-43.321a8.228 8.228 0 0 0-15.452-5.659c-4.423 12.079-10.569 22.484-18.329 31.068l-8.667-29.123c10.882-10.834 25.276-27.583 35.405-48.446-.25 7.044-.892 14.465-2.114 21.978a8.228 8.228 0 0 0 6.799 9.441 8.215 8.215 0 0 0 9.441-6.8c6.414-39.443-1.652-75.507-1.997-77.023zm-151.4-79.269a65.806 65.806 0 0 1-9.261-1.988l15.019-50.461h11.728l14.918 50.126c-10.975 3.039-21.841 3.824-32.404 2.323zm19.621 381.741a8.226 8.226 0 0 0 6.224 12.854l7.229.498c7.325.505 13.514 5.044 16.446 11.343h-46.371a2.039 2.039 0 0 1-2.045-1.969c-.433-11.568 2.957-23.178 9.545-32.693l19.095-27.583a8.224 8.224 0 0 0-.441-9.946l-23.709-28.479c2.008.032 4.016.059 6.027.059a376.2 376.2 0 0 0 27.015-.987l8.657 36.46-27.672 40.443z"/><path d="M319.876 239.472c-3.837-16.988-18.689-28.852-36.118-28.852-17.429 0-32.281 11.864-36.118 28.852a8.217 8.217 0 0 0 0 3.626c3.837 16.987 18.689 28.852 36.118 28.852 17.429 0 32.281-11.864 36.118-28.852a8.217 8.217 0 0 0 0-3.626zm-36.118 16.023c-8.899 0-16.845-5.873-19.568-14.209 2.722-8.336 10.669-14.21 19.568-14.21 8.899 0 16.845 5.874 19.568 14.21-2.722 8.334-10.668 14.209-19.568 14.209z"/><path d="M288.327 234.443c-6.225-4.098-14.498 1.832-12.492 9.034.941 3.38 4.005 5.849 7.515 6.028 3.432.176 6.688-1.904 8.005-5.069 1.483-3.563.213-7.864-3.028-9.993zm37.87 47.63a8.225 8.225 0 0 0-5.482-6.788 8.236 8.236 0 0 0-8.504 1.959c-20.226 20.227-50.563 5.495-51.823 4.868a8.226 8.226 0 0 0-11.917 6.855c-.081 1.359-1.802 33.491 14.66 50.967 6.971 7.4 15.964 11.153 26.729 11.153 9.715 0 18.107-3.674 24.266-10.624 16.365-18.464 12.559-54.358 12.071-58.39zm-16.015 20.339c-.818 12.499-3.712 21.883-8.37 27.137-3.074 3.469-6.872 5.083-11.953 5.083-6.123 0-10.941-1.948-14.729-5.957-6.328-6.697-8.938-18.173-9.867-27.325 3.438.963 7.435 1.85 11.78 2.383 12.343 1.517 23.618-.23 33.316-5.083a99.594 99.594 0 0 1-.177 3.762zm-84.145-79.739a8.222 8.222 0 0 0-9.634 6.524l-17.171 89.179a8.225 8.225 0 0 0 8.087 9.785c3.865 0 7.313-2.737 8.069-6.673l17.171-89.18a8.226 8.226 0 0 0-6.522-9.635z"/></svg>