<svg xmlns="http://www.w3.org/2000/svg" viewBox="0 0 512 512"><path d="M317.745 183.863a7.975 7.975 0 0 0-11.228 1.058 22.44 22.44 0 0 1-15.277 8.083c-6.001.567-11.87-1.241-16.518-5.088a7.975 7.975 0 0 0-10.17 12.286c6.975 5.774 15.56 8.855 24.5 8.855a39.93 39.93 0 0 0 3.682-.175c10.248-.964 19.504-5.863 26.068-13.79a7.974 7.974 0 0 0-1.057-11.229zM269.276 53.028l8.392-9.038a7.975 7.975 0 0 0-11.688-10.852l-8.442 9.092-6.895-6.344a7.976 7.976 0 0 0-10.799 11.737l6.842 6.294-8.35 8.992a7.976 7.976 0 0 0 11.689 10.853l8.4-9.046 8.002 7.362a7.942 7.942 0 0 0 5.397 2.105 7.976 7.976 0 0 0 5.401-13.843l-7.949-7.312zm-1.705 74.318a7.973 7.973 0 0 0-7.974 7.974v20.202a7.974 7.974 0 1 0 15.948 0V135.32a7.973 7.973 0 0 0-7.974-7.974z"/><path d="M440.619 113.34c-1.146-.711-2.935-1.982-4.44-3.755-2.974-3.504-3.435-7.166-1.497-11.873 7.581-18.411-4.585-32.114-14.611-36.833-3.983-1.875-8.766-.181-10.642 3.805-1.876 3.985-.197 8.721 3.788 10.595 2.624 1.294 10.861 6.297 6.717 16.36-4.142 10.059-2.305 18.702 1.887 25.249-13.992 6.357-23.752 20.455-23.752 36.798 0 16.798 10.307 31.231 24.928 37.317-23.669 13.817-59.051 29.794-81.964 23.363 7.61-16.072 11.598-35.998 11.598-58.566 0-17.565-2.34-33.332-6.956-47.069 7.586-.938 13.08-4.243 16.744-7.472 22.218-19.581 17.854-69.557 17.284-75.192a7.974 7.974 0 0 0-5.102-6.64 7.994 7.994 0 0 0-8.234 1.577c-.979.897-24.219 21.793-44.04 6.93l-1.907-1.439c-16.254-12.281-50.075-37.833-91.996-20.838-7.065 2.864-13.369 6.911-19.273 12.369a7.974 7.974 0 1 0 10.827 11.711c4.467-4.129 9.19-7.172 14.44-9.3 33.536-13.599 61.413 7.466 76.389 18.782l1.75 1.32 24.525 20.869a7.942 7.942 0 0 0 5.163 1.901 7.973 7.973 0 0 0 5.172-14.048l-1.077-.917c6.578-1.209 12.747-3.668 18.062-6.571a158.799 158.799 0 0 1-.473 12.128c-1.361 17.169-5.643 29.738-12.054 35.389-2.63 2.318-7.194 5.151-16.414 3.043-82.685-20.793-137.5 7.363-152.639 16.694-10.863-5.778-18.95-13.077-23.525-21.274a35.755 35.755 0 0 1-1.731-3.539c23.839-1.192 35.355-18.174 45.672-33.385 1.044-1.54 2.096-3.09 3.167-4.638a7.975 7.975 0 0 0-13.114-9.076 634.23 634.23 0 0 0-3.253 4.762c-11.41 16.825-19.656 28.983-41.533 25.999a7.974 7.974 0 0 0-9.05 7.768c-.019 1.173-.027 27.382 33.88 46.368a102.211 102.211 0 0 0-1.816 5.715 20.644 20.644 0 0 0-2.082-.105c-14.131 0-25.199 13.778-25.199 31.366 0 10.072 3.634 18.889 9.391 24.59l-1.308 7.847a7.975 7.975 0 0 0 15.732 2.623l.619-3.716c.255.01.508.023.766.023 1.356 0 2.697-.131 4.015-.388a102.124 102.124 0 0 0 13.699 26.118c-3.502 2.899-8.744 6.789-15.535 10.536a7.973 7.973 0 0 0-3.128 10.834 7.97 7.97 0 0 0 10.835 3.128c7.85-4.332 13.985-8.89 18.163-12.362a102.468 102.468 0 0 0 20.964 16.197c4.201 36.005 53.969 52.97 56.177 53.704a7.975 7.975 0 0 0 9.951-4.687l6.083-15.701c1.559 15.27 2.488 34.44.444 52.412a230.657 230.657 0 0 1-16.797 2.431 7.974 7.974 0 1 0 1.723 15.855c15.568-1.694 29.406-4.534 41.309-8.458.774 6.996 1.66 17.503 1.919 30.447-34.894 9.047-71.108 4.901-85.483 2.607.04-9.461-.149-17.342-.352-22.904 2.363.061 5.125.104 8.23.104 3.148 0 6.642-.045 10.404-.159a7.974 7.974 0 0 0 7.727-8.215 7.972 7.972 0 0 0-8.215-7.727c-7.674.235-14.221.155-18.817.02-1.879-26.776-13.319-46.194-21.988-57.297 1.182-.298 2.368-.601 3.56-.917a7.975 7.975 0 0 0-4.078-15.418c-49.718 13.148-90.288 10.09-117.32-8.841a76.918 76.918 0 0 1-7.822-6.269c28.448 11.818 52.917 9.871 70.12 5.081a7.975 7.975 0 0 0-4.278-15.364c-27.421 7.635-55.399 1.773-83.228-17.402h9.536a7.974 7.974 0 1 0 0-15.948h-2.524c.805-24.153 5.579-54.849 22.016-77.707 10.757-14.96 21.649-19.578 21.69-19.596a7.978 7.978 0 0 0 2.732-13.066c-7.383-7.383-8.63-19.161-3.705-35.003 4.101-13.194 11.063-24.017 11.129-24.118a7.975 7.975 0 0 0-10.851-11.151C95.997 34.461 78.516 51.68 65.786 72.313a7.975 7.975 0 0 0 13.574 8.374c6.215-10.072 13.711-19.247 22.414-27.454-3.847 13.206-5.281 28.62 1.974 41.411-14.579 10.126-42.107 37.888-44.874 104.107-2.636-17.431-5.997-57.253 9.474-96.1a7.975 7.975 0 0 0-14.817-5.901c-17.17 43.118-13.368 86.136-10.376 105.022h-2.054a7.974 7.974 0 1 0 0 15.948h9.166l-1.991 32.766a7.973 7.973 0 0 0 7.967 8.458 7.973 7.973 0 0 0 7.952-7.491l.292-4.807c4.555 5.719 10.544 11.817 18.344 17.421 13.954 10.026 30.834 16.454 50.171 19.101 6.739.923 13.783 1.383 21.118 1.383 12.198 0 25.203-1.282 38.922-3.821 6.696 7.056 24.024 28.464 24.024 61.049 0 .093.011.182.013.273.003.082-.002.162.003.243.017.252 1.612 25.553-.067 57.766-2.197 42.147-8.962 76.972-19.563 100.71a7.974 7.974 0 0 0 7.281 11.226h55.111a7.973 7.973 0 0 0 6.346-12.804l-14.031-18.441c5.752-5.406 14.512-15.028 22.508-29.409 2.822 30.974.17 51.342.136 51.594a7.975 7.975 0 0 0 7.9 9.059h65.212a7.976 7.976 0 0 0 7.611-5.594 7.972 7.972 0 0 0-3.068-8.933l-30.718-21.298c20.705-69.633 12.179-134.724 10.335-146.674 1.786-6.518 7.248-28.941 6.441-56.606 8.184-.47 21.179-2.23 36.145-8.014 22.375-8.646 53.658-28.322 76.666-72.903 15.994-5.385 27.547-20.51 27.547-38.293.001-21.554-16.971-39.222-38.255-40.341zm-274.871 46.012a7.931 7.931 0 0 0-5.515 1.098 24.14 24.14 0 0 1-.049-1.462c0-9.083 4.872-15.414 9.247-15.417l.527 17.896a7.924 7.924 0 0 0-4.21-2.115zm70.89 313.705a7.97 7.97 0 0 0-3.279 5.3 7.971 7.971 0 0 0 1.535 6.041l8.865 11.651H216.52c6.136-17.033 10.156-36.159 12.76-55.008 6.325 3.949 15.245 7.764 27.373 9.425-9.708 14.987-19.263 22.05-20.015 22.591zm28.356-37.804c-20.206-1.103-30.025-8.943-33.578-12.656 1.117-11.788 1.748-23.143 2.071-33.439 8.542 1.3 22.117 2.856 38.157 2.856 1.65 0 3.334-.022 5.033-.057-1.96 17.447-6.41 31.797-11.683 43.296zm62.932-328.335c1.985 4.644 3.643 9.697 4.963 15.092-13.257-9.781-28.61-16.365-43.557-20.785 11.963.687 24.851 2.46 38.594 5.693zm6.76 37.895c-2.723 7.402-8.27 12.315-14.335 12.315-8.726 0-16.099-10.225-16.099-22.328 0-3.599.635-7.072 1.817-10.195 10.64 5.037 20.601 11.615 28.617 20.208zm-144.713 43.718l-.043-.104c-2.375-5.872-3.58-12.153-3.767-18.486l-.918-31.12a85.603 85.603 0 0 1 4.55-15.322 94.702 94.702 0 0 1 5.975-3.492c-.72 5.36-1.27 11.697-1.231 18.448.118 20.76 5.782 37.291 16.501 48.505-5.188 2.711-12.714 4.851-21.067 1.571zm82.638 91.639c-4.544-2.006-10.724-5.073-16.821-9.165-8.398-5.637-14.361-11.593-17.886-17.802a102.817 102.817 0 0 0 32.325 5.199c3.793 0 7.479-.219 11.062-.637l-8.68 22.405zm-2.383-37.716a86.565 86.565 0 0 1-70.621-36.352c13.533-.399 24.782-7.702 30.07-13.103a7.975 7.975 0 0 0-1.323-12.246c-24.205-15.884-17.721-56.131-15.009-68.666a166.415 166.415 0 0 1 11.641-3.877c6.032-.033 36.527.336 66.288 10.444-1.938 5.01-2.971 10.512-2.971 16.145 0 21.107 14.376 38.277 32.047 38.277 5.713 0 11.142-1.806 15.854-5.007-2.264 29.109-14.131 74.385-65.976 74.385zm48.477.502c2.01 8.585 3.11 17.117 3.582 25.277-6.619-5.61-12.162-12.42-15.924-17.605a69.538 69.538 0 0 0 12.342-7.672zm-31.843 179.147c2.733-9.24 4.84-19.568 5.955-31.038 8.576-.786 17.477-2.123 26.407-4.212-.262 10.856-1.029 22.808-2.598 35.418-12.389 3.659-22.696 4.746-28.895 5.033a346.11 346.11 0 0 0-.869-5.201zm35.559 73.947H291.44c.675-10.367 1.119-29.008-1.558-52.878 5.93-.344 14.273-1.3 24.146-3.696-2.182 12.212-5.175 24.83-9.223 37.5a7.975 7.975 0 0 0 3.053 8.98l14.563 10.094zm-5.171-172.946a126.95 126.95 0 0 1-9.752 3.228c1.495-17.982.513-36.313-1.021-51.016 4.646 4.607 9.991 9.025 15.853 12.446-.839 16.315-3.6 29.342-5.08 35.342zm52.413-73.391c-13.581 5.361-25.366 6.879-32.308 7.264-1.055-8.847-2.854-17.991-5.67-27.139a79.47 79.47 0 0 0 1.063-1.42c17.999 6.801 42.412 3.312 72.74-10.43a266.035 266.035 0 0 0 15.482-7.655c-14.174 18.303-31.346 31.5-51.307 39.38zm68.809-71.574c-13.485 0-24.455-10.971-24.455-24.455 0-13.484 10.969-24.455 24.455-24.455s24.455 10.971 24.455 24.455c-.001 13.485-10.97 24.455-24.455 24.455z"/><path d="M289.324 306.265c-.934-3.348-4.004-5.76-7.484-5.848-3.333-.085-6.432 2-7.63 5.102-1.341 3.47-.048 7.414 3.006 9.501 6.026 3.977 14.053-1.778 12.108-8.755z"/></svg>