<svg xmlns="http://www.w3.org/2000/svg" viewBox="0 0 512.001 512.001"><path d="M256.783 97.858a8.436 8.436 0 0 0-8.436 8.436v16.872a8.436 8.436 0 0 0 16.872 0v-16.872a8.435 8.435 0 0 0-8.436-8.436zm35.431 0a8.436 8.436 0 0 0-8.436 8.436v16.872a8.436 8.436 0 0 0 16.872 0v-16.872a8.436 8.436 0 0 0-8.436-8.436z"/><path d="M391.067 311.195l-17.829-23.587-.002-.003c-1.24-1.652-29.175-38.073-74.163-29.99a516.223 516.223 0 0 0-2.846-11.855c4.395-1.094 8.078-2.22 10.504-3.327 39.427-17.992 46.473-56.148 47.164-77.292.381-11.703-5.201-23.075-14.932-30.422-4.408-3.327-8.417-8.413-11.928-15.127a148.563 148.563 0 0 0-2.139-11.457c11.143-11.836 17.676-26.028 19.408-42.276a8.436 8.436 0 0 0-7.495-9.282c-4.625-.496-8.788 2.86-9.282 7.495-.967 9.071-3.895 17.316-8.712 24.653a103.007 103.007 0 0 0-3.46-7.594c-6.259-12.286-14.489-22.092-24.465-29.309 6.4-10.793 16.12-21.103 29.044-30.779 1.917 4.496 4.132 10.543 5.733 17.468a8.438 8.438 0 0 0 10.12 6.319 8.435 8.435 0 0 0 6.319-10.12c-4.054-17.523-11.361-30.033-11.67-30.558a8.436 8.436 0 0 0-11.94-2.737c-19.188 12.769-33.378 26.922-42.327 42.158-10.244-4.283-21.789-6.475-34.495-6.475-14.455 0-28.374 2.768-41.496 8.22-7.462-13.347-20.547-28.75-43.326-43.907a8.43 8.43 0 0 0-6.559-1.199 8.427 8.427 0 0 0-5.381 3.937c-.432.732-10.614 18.203-13.543 40.96-2.708 21.031 1.588 39.646 12.489 54.995-1.567 6.17-3.737 19.416-6.271 50.281-1.476 17.969 2.361 35.971 10.817 51.305-9.436 15.135-35.698 60.925-27.67 89.978 2.557 9.254 8.439 16.311 17.01 20.411 3.998 1.912 8.28 2.714 12.796 2.713 7.363 0 15.341-2.139 23.675-5.072 2.839 28.262 3.25 57.132 1.201 85.954a8.435 8.435 0 0 0 8.424 9.035 8.437 8.437 0 0 0 8.406-7.839 528.07 528.07 0 0 0 1.188-25.401c10.191-6.137 45.095-23.137 103.426-11.189 2.036 32.518 1.328 67.972-5.387 101.097h-10.644c-2.211-21.205-9.472-44.822-29.138-57.78 2.724-9.578 4.426-19.665 4.426-29.956a8.436 8.436 0 0 0-16.872 0c0 38.555-29.057 75.913-37.591 86.051h-17.648a540.77 540.77 0 0 0 5.912-38.194 8.435 8.435 0 0 0-7.39-9.365 8.435 8.435 0 0 0-9.365 7.39c-3.22 27.325-8.697 54.831-16.278 81.752a8.437 8.437 0 0 0 8.12 10.723h69.178a8.435 8.435 0 0 0 8.081-10.86l-4.768-15.894c-2.824-9.416-9.19-16.999-17.469-21.418 7.317-9.485 17.951-24.983 25.783-43.577 26.956 22.86 17.286 81.231 17.176 81.862a8.438 8.438 0 0 0 8.311 9.883h60.739a8.437 8.437 0 0 0 8.344-9.688l-1.539-10.26c-2.395-15.964-14.723-27.995-30.232-30.277 10.084-52.372 6.345-108.764.151-151.834a573.459 573.459 0 0 0 9.278-3.856c14.116-5.977 29.841-12.629 38.697-9.711l-3.447 12.635a8.436 8.436 0 0 0 5.919 10.359 8.436 8.436 0 0 0 10.359-5.919l.544-1.997 7.499 9.92a8.422 8.422 0 0 0 6.737 3.35 8.399 8.399 0 0 0 5.081-1.708c3.713-2.805 4.449-8.096 1.64-11.813zM147.938 47.744c6.536 8.728 14.576 20.291 19.663 30.561a8.435 8.435 0 0 0 11.305 3.815 8.438 8.438 0 0 0 3.815-11.305c-8.396-16.949-23.32-36.145-29.672-43.998A104.956 104.956 0 0 1 155.363 21c41.382 30.959 37.616 59.029 37.424 60.276l.019-.108 16.602 3.013c.145-.797 1.634-9.917-2.524-23.375 11.002-4.532 22.67-6.831 34.79-6.831 27.145 0 46.876 11.714 58.645 34.817 4.971 9.757 8.403 21.372 10.2 34.524.125.916.4 1.804.813 2.631 4.828 9.655 10.704 17.136 17.464 22.239 5.359 4.046 8.437 10.179 8.234 16.405-.29 8.891-1.594 16.613-3.615 23.344-9.763-1.517-17.266-9.956-17.266-20.137 0-.396-.037-.783-.09-1.164h5.15a8.436 8.436 0 0 0 0-16.872h-28.282a8.436 8.436 0 0 0 0 16.872h6.439c-.053.381-.09.768-.09 1.164 0 11.251-9.154 20.405-20.405 20.405s-20.405-9.153-20.405-20.405a8.436 8.436 0 0 0-16.872 0c0 20.554 16.722 37.277 37.277 37.277 11.611 0 22-5.336 28.841-13.685a37.375 37.375 0 0 0 18.753 12.289c-7.43 12.122-17.614 19.239-26.74 23.404-9.017 4.115-50.971 10.242-58.053 10.242-41.923 0-64.611-21.743-76.264-39.984-8.428-13.193-12.337-29.379-11.008-45.572 1.449-17.635 2.754-29.031 3.803-36.38a93.395 93.395 0 0 0 6.021 4.575 8.395 8.395 0 0 0 4.817 1.516 8.435 8.435 0 0 0 4.832-15.358c-24.208-16.873-28.191-39.572-25.935-58.378zm33.71 241.104c-13.715 5.407-29.261 11.539-36.627 8.013-4.205-2.011-6.755-5.085-8.025-9.677-2.854-10.314 1.049-27.787 10.987-49.202 3.733-8.045 7.718-15.363 10.927-20.912 5.125 6.247 11.387 12.444 18.998 17.933l-7.962 22.67a79.797 79.797 0 0 0-12.842 3.422 8.437 8.437 0 0 0 5.674 15.89c18.632-6.655 34.248-3.146 45.804 2.742-8.945 2.03-18.177 5.669-26.934 9.121zm11.866 63.415a512.998 512.998 0 0 0-2.99-48.776c14.325-5.623 28.682-10.868 37.325-7.315l-3.498 12.829a8.436 8.436 0 0 0 5.92 10.359 8.438 8.438 0 0 0 10.359-5.92l2.175-7.977c3.564 2.731 6.557 6.06 6.557 9.133a8.436 8.436 0 0 0 16.872 0c0-16.093-17.113-25.783-23.395-28.796-3.016-3.559-10.624-11.732-22.071-18.529-10.403-6.175-21.388-9.679-32.612-10.53l4.551-12.959c13.162 6.308 29.278 10.416 48.965 10.416 4.731 0 22.008-2.105 37.992-4.98 3.534 14.112 11.754 50.062 15.828 93.604-50.392-9.312-84.499 1.156-101.978 9.441zm27.818 137.83l1.511 5.035h-46.815a555.366 555.366 0 0 0 4.486-18.56h24.489c7.703.809 14.097 6.086 16.329 13.525zm100.82 4.459l.086.571h-41.38c.426-4.524.793-10.339.804-16.872h21.563c9.55.002 17.509 6.857 18.927 16.301zm-10.698-204.008c-1.837.777-3.625 1.531-5.393 2.267a671.365 671.365 0 0 0-3.452-18.652c14.615-2.422 26.958 1.229 36.388 6.35-9.11 2.23-18.579 6.239-27.543 10.035z"/></svg>