<svg xmlns="http://www.w3.org/2000/svg" viewBox="0 0 512.001 512.001"><path d="M216.597 114.845a7.992 7.992 0 0 0-7.992 7.992v14.876a7.992 7.992 0 1 0 15.984 0v-14.876a7.992 7.992 0 0 0-7.992-7.992zm31.237 0a7.992 7.992 0 0 0-7.992 7.992v14.876a7.992 7.992 0 1 0 15.984 0v-14.876a7.992 7.992 0 0 0-7.992-7.992z"/><path d="M450.946 71.989l-91.518-22.462a7.992 7.992 0 0 0-9.667 5.857l-21.5 87.596c-3.509 14.296-1.24 29.103 6.388 41.693 5.8 9.574 14.177 16.987 24.14 21.535l-10.191 41.521h-26.837v-.536a7.992 7.992 0 0 0-7.992-7.992h-62.485a7.992 7.992 0 0 0-7.992 7.992c0 .18-.011.357-.014.536h-29.41v-12.893c39.615-3.44 65.846-32.222 71.878-78.031l14.005 12.218a7.966 7.966 0 0 0 5.252 1.97 7.993 7.993 0 0 0 5.257-14.015l-23.19-20.232c.002-.341.016-.672.016-1.013 0-4.436-.173-8.754-.498-12.963l19.796 19.194a7.962 7.962 0 0 0 5.563 2.254 7.991 7.991 0 0 0 5.564-13.73l-35.628-34.544c-.752-2.6-1.594-5.129-2.508-7.599a383.707 383.707 0 0 0 15.022-6.845 7.99 7.99 0 0 0 .992-13.83 404.724 404.724 0 0 1-35.733-27.036l-16.72-33.869a7.99 7.99 0 0 0-5.823-4.34c-37.42-6.384-76.474-.061-109.969 17.805l-6.688 3.568a7.992 7.992 0 0 0-4.195 6.299l-3.557 37.604a404.686 404.686 0 0 1-23.756 37.991 7.994 7.994 0 0 0 5.855 12.571c2.616.223 5.233.416 7.852.584L64.03 162.948a7.992 7.992 0 0 0 .747 11.278 7.957 7.957 0 0 0 5.262 1.98 7.975 7.975 0 0 0 6.016-2.727l30.248-34.539a99.242 99.242 0 0 0 1.964 16.798l-22.825 35.757a7.992 7.992 0 1 0 13.475 8.6l15.662-24.535c14.391 32.803 45.985 56.412 83.306 59.336v12.835h-29.41c-.002-.179-.014-.356-.014-.536a7.992 7.992 0 0 0-7.992-7.992H97.982a7.992 7.992 0 0 0-7.992 7.992v.536H62.959a7.992 7.992 0 1 0 0 15.984H89.99v36.227a7.992 7.992 0 0 0 7.992 7.992h37.113c-.27 3.571-.501 7.145-.694 10.692a7.993 7.993 0 0 0 7.549 8.413c4.409.228 8.174-3.143 8.413-7.549.338-6.239.802-12.568 1.382-18.809a7.993 7.993 0 0 0-7.958-8.732h-37.813v-36.763h47.097c3.868 25.668 26.075 45.408 52.804 45.408 26.729 0 48.935-19.74 52.804-45.408h47.097v36.763h-39.704a7.99 7.99 0 0 0-7.958 8.732 489.706 489.706 0 0 1-1.228 101.975 386.746 386.746 0 0 1-103.913 0 490.62 490.62 0 0 1-3.321-58.726 7.993 7.993 0 0 0-7.961-8.024h-.032a7.993 7.993 0 0 0-7.992 7.961 506.965 506.965 0 0 0 4.194 66.86 7.993 7.993 0 0 0 6.73 6.876 403.204 403.204 0 0 0 53.291 4.479v81.924a7.992 7.992 0 1 0 15.984 0v-81.968a403.308 403.308 0 0 0 51.399-4.435 7.992 7.992 0 0 0 6.73-6.876 505.976 505.976 0 0 0 2.766-102.792h39.005a7.992 7.992 0 0 0 7.992-7.992v-36.227h22.913l-42.89 174.745a7.993 7.993 0 0 0 15.524 3.81l56.842-231.591a55.01 55.01 0 0 0 7.731.569c9.945 0 19.733-2.712 28.456-7.997 12.59-7.628 21.456-19.702 24.965-33.998l7.47-30.436a7.993 7.993 0 0 0-5.857-9.667c-4.287-1.055-8.615 1.57-9.667 5.857l-5.565 22.674-75.995-18.652 17.69-72.072 6.174 1.515-8.728 35.558a7.993 7.993 0 0 0 15.524 3.81l8.728-35.557 21.573 5.295-13.299 54.186a7.993 7.993 0 0 0 15.524 3.81l13.299-54.186 17.2 4.221-6.52 26.564a7.993 7.993 0 0 0 15.524 3.81l8.425-34.326a7.989 7.989 0 0 0-5.853-9.669zM197.883 283.741c-11.234-2.455-20.595-9.968-25.567-20.027h25.567v20.027zm-87.941-180.496a419.62 419.62 0 0 0 15.239-25.076 343.893 343.893 0 0 0 87.983-10.883 7.992 7.992 0 1 0-3.995-15.478 327.045 327.045 0 0 1-79.887 10.366l2.487-26.297 2.898-1.545c29.195-15.573 63.048-21.476 95.769-16.779l11.762 23.825a326.934 326.934 0 0 1-11.989 4.24 7.993 7.993 0 1 0 5.022 15.176 345.665 345.665 0 0 0 16.494-5.931 419.42 419.42 0 0 0 23.174 18.002 368.868 368.868 0 0 1-164.957 30.38zm13.855 16.359c1.189.011 2.379.037 3.568.037 1.32 0 2.64-.014 3.96-.028l-9.061 14.196a83.562 83.562 0 0 1 1.533-14.205zm81.928 99.615c-38.124 0-70.338-25.691-80.297-60.661l25.271-39.588c.01-.015.017-.032.027-.047 4.377-.266 8.747-.606 13.11-1.021l-13.518 29.527a7.992 7.992 0 0 0 3.94 10.594 7.974 7.974 0 0 0 3.323.728 7.994 7.994 0 0 0 7.272-4.668l17.585-38.411a384.895 384.895 0 0 0 82.108-21.312c4.298 11.912 6.555 26.045 6.555 41.373 0 10.741-1.067 20.739-3.146 29.812-48.791 9.813-82.188-.073-82.663-.219a7.995 7.995 0 0 0-9.992 5.261 7.992 7.992 0 0 0 5.256 10.007c1.04.324 17.58 5.328 44.446 5.328 10.846 0 23.381-.818 37.251-3.088-2.099 4.697-4.55 9.016-7.365 12.889-11.329 15.591-27.869 23.496-49.163 23.496zm8.142 64.522v-20.027h25.567c-4.972 10.059-14.332 17.572-25.567 20.027zm203.212-110.732c-3.249 6.823-8.41 12.562-15.024 16.57-8.939 5.415-19.449 7.024-29.6 4.534-10.149-2.492-18.721-8.785-24.136-17.724-4.007-6.615-5.924-14.09-5.645-21.643l74.405 18.263z"/></svg>