<svg xmlns="http://www.w3.org/2000/svg" viewBox="0 0 512.004 512.004"><path d="M278.423 196.364a8.056 8.056 0 0 0-11.395 0c-10 9.998-26.267 9.999-36.27 0a8.056 8.056 0 0 0-11.395 0 8.056 8.056 0 0 0 .001 11.395c8.141 8.142 18.835 12.211 29.528 12.211 10.694 0 21.389-4.071 29.529-12.211a8.055 8.055 0 0 0 .002-11.395zm-50.743-52.218a8.058 8.058 0 0 0-8.058 8.058v15.041a8.058 8.058 0 0 0 16.116 0v-15.041a8.058 8.058 0 0 0-8.058-8.058zm45.632 0a8.058 8.058 0 0 0-8.058 8.058v15.041a8.058 8.058 0 1 0 16.116 0v-15.041a8.058 8.058 0 0 0-8.058-8.058zM162.663 76.623c-2.919-1.935-6.87-1.75-9.579.478-2.658 2.185-3.637 5.912-2.406 9.126 1.179 3.071 4.224 5.158 7.515 5.158 3.715 0 7.008-2.633 7.845-6.242.749-3.222-.614-6.689-3.375-8.52zm17.953 225.35c-2.867-3.417-7.95-3.858-11.356-.999a8.048 8.048 0 0 0-.988 11.356 8.007 8.007 0 0 0 6.167 2.879 8.04 8.04 0 0 0 5.177-1.891c3.405-2.858 3.858-7.94 1-11.345zm-58.295 64.945a8.07 8.07 0 0 0-11.023 2.911 8.063 8.063 0 0 0 6.963 12.119 8.067 8.067 0 0 0 6.973-4.007 8.072 8.072 0 0 0-2.913-11.023zm33.681 10.937a8.043 8.043 0 0 0-9.304-6.564c-4.383.752-7.327 4.921-6.575 9.304a8.065 8.065 0 0 0 7.929 6.693c.451 0 .914-.043 1.375-.118 4.383-.752 7.327-4.92 6.575-9.315zm-30.609-84.671a8.05 8.05 0 0 0-11.002-2.954c-3.857 2.224-5.177 7.155-2.955 11.012a8.047 8.047 0 0 0 6.983 4.029 8.025 8.025 0 0 0 4.018-1.074 8.062 8.062 0 0 0 2.956-11.013zm54.138 64.838c-3.406-2.879-8.487-2.451-11.355.945-2.88 3.395-2.45 8.488.945 11.356a8.034 8.034 0 0 0 5.2 1.902 8.059 8.059 0 0 0 6.156-2.847c2.869-3.394 2.449-8.487-.946-11.356zm-73.099-10.109a8.05 8.05 0 0 0-10.315-4.835 8.05 8.05 0 0 0-4.835 10.314 8.055 8.055 0 0 0 7.574 5.318 7.87 7.87 0 0 0 2.741-.484c4.189-1.503 6.348-6.123 4.835-10.313zm-4.75-35.111c-4.179-1.526-8.798.623-10.334 4.802-1.527 4.179.622 8.81 4.802 10.335a8.074 8.074 0 0 0 2.772.494 8.053 8.053 0 0 0 7.564-5.297v.011a8.073 8.073 0 0 0-4.804-10.345zm47.95-28.751c-4.383-.774-8.564 2.159-9.336 6.543-.764 4.385 2.158 8.564 6.542 9.336a9.02 9.02 0 0 0 1.409.118c3.834 0 7.24-2.75 7.929-6.661.773-4.383-2.162-8.563-6.544-9.336zm35.153 43.481a8.056 8.056 0 0 0-8.058 8.036v.172c-.023 4.448 3.567 8.069 8.026 8.09h.032c4.426 0 8.035-3.588 8.058-8.026v-.215a8.062 8.062 0 0 0-8.058-8.057zm-44.277-19.486c-15.191 0-27.549 12.357-27.549 27.548s12.358 27.548 27.549 27.548c15.19 0 27.548-12.357 27.548-27.548s-12.358-27.548-27.548-27.548zm0 38.98c-6.304 0-11.433-5.128-11.433-11.432s5.128-11.432 11.433-11.432c6.303 0 11.432 5.128 11.432 11.432s-5.128 11.432-11.432 11.432z"/><path d="M451.559 190.208l-1.696-27.131a8.058 8.058 0 0 0-10.536-7.159l-25.852 8.412a8.063 8.063 0 0 0-4.171 3.134l-43.059 63.364a8.058 8.058 0 1 0 13.329 9.057l41.509-61.083 13.343-4.343.876 14.003-98.389 144.785-14.218-9.662 42.778-62.953a8.058 8.058 0 1 0-13.329-9.057l-42.779 62.952-2.221-1.51a8.057 8.057 0 0 0-11.194 2.136 8.058 8.058 0 0 0 2.135 11.193l8.882 6.036.004.003 3.775 2.566a14.171 14.171 0 0 0-6.994 3.368c-2.64-2.556-5.993-6.015-9.356-10.074-8.979-10.837-13.725-20.669-13.725-28.433 0-21.033-7.547-36.826-13.196-45.706 7.852-5.003 14.686-11.548 20.349-19.58 12.609-17.883 19.273-42.867 19.273-72.255 0-9.77-.747-19.146-2.214-27.885-.063-4.359-.945-27.098-12.106-51.935-10.911-24.281-33.935-54.937-81.881-65.969l-1.066-9.337a8.058 8.058 0 0 0-16.011 1.826l1.083 9.491c-7.737 4.171-22.482 13.357-36.76 29.027L70.708 22.401a8.059 8.059 0 0 0-10.123 9.325c.684 3.42 6.448 29.764 22.88 36.92-.097 6.603 1.071 16.059 7.202 23.536 3.252 3.968 8.994 8.568 18.641 10.021 1.152 2.857 3.125 6.116 6.499 9.113 2.393 2.126 5.216 3.867 8.448 5.236-1.562 8.739-2.375 17.841-2.414 27.167-4.927 35.508-35.365 60.736-35.663 60.98a8.058 8.058 0 0 0 5.076 14.316c7.284 0 14.442-.568 21.448-1.69-6.514 11.527-20.938 24.404-30.944 31.416a8.054 8.054 0 0 0-3.068 9.024 8.056 8.056 0 0 0 7.685 5.638c35.816 0 62.97-13.078 73.891-19.319a105.385 105.385 0 0 0 4.84 3.552c-3.09 5.225-4.571 10.674-5.181 16.147a74.216 74.216 0 0 0-19.415-2.586c-11.729 0-22.956 2.654-33.371 7.888-3.976 1.998-5.579 6.842-3.581 10.818s6.836 5.58 10.818 3.581c8.148-4.096 16.941-6.171 26.133-6.171 32.138 0 58.284 26.146 58.284 58.285s-26.146 58.285-58.284 58.285-58.285-26.146-58.285-58.285c0-15.568 6.063-30.204 17.072-41.213a8.057 8.057 0 0 0-.001-11.396 8.058 8.058 0 0 0-11.395 0c-14.052 14.054-21.79 32.737-21.79 52.609 0 34.423 23.504 63.45 55.303 71.904-1.247 5.835-1.892 11.157-1.892 15.867a8.057 8.057 0 0 0 7.688 8.049l6.406.293c2.078 18.045.696 56.789-.117 71.799a8.054 8.054 0 0 0 8.044 8.494h18.264a8.058 8.058 0 0 0 8.058-8.058c0-4.254-3.3-7.731-7.48-8.029 17.763-22.79 21.123-48.663 21.553-61.989l14.088.647 12.793 70.804a8.06 8.06 0 0 0 7.933 6.626h18.262a8.058 8.058 0 0 0 8.058-8.058 8.058 8.058 0 0 0-8.058-8.058h-6.001c9.528-23.753 14.863-47.854 17.06-59.218a8.057 8.057 0 0 0 4.271-2.194 8.06 8.06 0 0 0 2.395-5.996c-.045-1.387-1.212-33.309-13.57-60.836 1.925-7.452 6.382-13.466 11.73-19.204 6.077 5.612 16.619 12.124 32.862 12.124 3.581 0 7.45-.332 11.597-1.044l-2.358 3.191a8.057 8.057 0 1 0 12.959 9.579l6.735-9.112c.162.005.32.025.484.025 7.849 0 14.235-6.386 14.235-14.235 0-.992-.103-1.959-.298-2.894l16.295 11.074a8.052 8.052 0 0 0 11.194-2.135 8.058 8.058 0 0 0-2.135-11.193l-2.222-1.509 99.938-147.066a8.104 8.104 0 0 0 1.375-5.038zM204.605 31.586c34.674 7.211 59.307 26.36 73.238 56.945a114.893 114.893 0 0 1 2.733 6.553c-7.594-2.82-15.7-4.959-24.293-6.343a8.05 8.05 0 0 0-9.236 6.674 8.057 8.057 0 0 0 6.674 9.236c12.129 1.952 23.101 5.544 32.701 10.658a130.45 130.45 0 0 1 1.465 8.736c-44.09-11.695-83.798-8.349-110.183-3.147-16.86 3.324-30.323 7.724-39.247 11.123.341-4.068.872-8.056 1.55-11.966a76.54 76.54 0 0 0 5.732.213c4.965 0 10.376-.424 16.227-1.273 8.359-1.213 15.665-4.714 21.189-9.852 5.418-1.487 22.679-5.76 43.652-6.224a8.057 8.057 0 1 0-.175-16.113c-.06 0-.12 0-.182.002-12.846.284-24.308 1.85-33.001 3.474 2.689-15.107-4.936-30.218-18.315-37.189 12.567-12.281 24.713-19.095 29.471-21.507zm-80.78 63.092c.189-2.209-.569-4.118-2.066-5.776-1.528-1.693-3.722-2.352-6.001-2.352-5.946 0-10.067-1.488-12.599-4.548-4.385-5.3-3.745-14.848-3.136-18.045a8.059 8.059 0 0 0-7.902-9.638c-4.332 0-8.346-5.709-11.298-12.25l83.387 23.928h-.001c9.895 2.84 15.724 13.225 12.996 23.151-2.005 7.293-8.732 12.617-17.555 13.898-21.093 3.062-29.605-.871-32.802-3.488-2.528-2.068-2.954-4.262-3.023-4.88zm-11.796 106.467c9.737-11.802 21.115-29.514 25.123-51.178 8.691-3.75 32.362-12.838 64.421-16.306-4.532 7.833-11.561 18.444-21.323 28.955-19.663 21.176-42.539 34.081-68.221 38.529zm-.881 43.791c8.929-8.939 17.923-20.41 20.412-32.096.497-.158.996-.309 1.492-.474a103.213 103.213 0 0 0 14.618 20.183c-7.788 3.96-20.471 9.343-36.522 12.387zm37-38.64c16.171-7.691 31.084-18.797 44.315-33.149 15.181-16.465 24.208-32.839 28.095-40.771 20.935-.572 44.425 1.611 69.067 8.898.898 6.648 1.36 13.684 1.36 20.997-.001 26.327-6.544 87.561-67.149 87.561-31.245 0-60.119-16.851-75.688-43.536zm106.896 58.41c-2.534 6.577-10.025 21.678-25.404 21.678-10.953 0-16.997-11.955-20.07-21.439 4.69.656 9.452 1.003 14.266 1.003 10.488 0 20.202-1.602 29.017-4.726a62.988 62.988 0 0 1 2.191 3.484zm-104.549 217.39c.454-15.568.659-35.779-.626-49.641l15.95.732c-.328 10.223-2.726 30.444-15.324 48.909zm69.127-7.57l-7.082-39.197 17.193.789c-1.773 8.705-5.056 23.018-10.111 38.408zm-83.356-58.828a81.235 81.235 0 0 1 1.099-5.784 74.4 74.4 0 0 0 3.143.08c26.307 0 49.452-13.738 62.684-34.404l22.21.844c6.691 15.91 9.443 33.569 10.534 43.835l-99.67-4.571zm110.343-85.853c-8.361 8.22-17.678 17.379-22.067 30.429l-13.686-.52a74.047 74.047 0 0 0 4.049-24.16c0-28.31-15.896-52.971-39.23-65.542.096-6.286 1.085-10.66 3.339-14.37a104.219 104.219 0 0 0 12.736 5.128c2.609 12.279 11.602 41.688 37.89 41.688 13.165 0 24.606-6.358 33.12-18.377a69.173 69.173 0 0 1 1.797 15.691c.001 12.389-8.317 20.566-17.948 30.033zm15.664 7.152c3.603-3.658 7.162-7.559 10.175-11.921 2.565 4.375 5.738 8.861 9.54 13.452a137.82 137.82 0 0 0 5.048 5.749c-12.72.797-20.541-3.623-24.763-7.28z"/></svg>