<svg xmlns="http://www.w3.org/2000/svg" viewBox="0 0 512 512"><path d="M325.918 195.665a8.44 8.44 0 0 0-11.935 0 11.736 11.736 0 0 1-8.356 3.462 11.737 11.737 0 0 1-8.355-3.462 8.44 8.44 0 0 0-11.935 0 8.44 8.44 0 0 0-.001 11.937c5.42 5.42 12.626 8.405 20.291 8.405 7.667 0 14.873-2.986 20.292-8.405a8.439 8.439 0 0 0-.001-11.937zm-43.235-59.149a8.44 8.44 0 0 0-8.44 8.44v18.005a8.44 8.44 0 0 0 16.88 0v-18.005a8.44 8.44 0 0 0-8.44-8.44zm46.139 0a8.44 8.44 0 0 0-8.44 8.44v18.005a8.44 8.44 0 0 0 16.88 0v-18.005a8.44 8.44 0 0 0-8.44-8.44zm-67.289 138.106c-3.076-1.442-6.814-.888-9.321 1.415-5.555 5.103-1.789 14.655 5.714 14.655 4.077 0 7.643-3.046 8.323-7.051.622-3.669-1.347-7.44-4.716-9.019z"/><path d="M361.353 293a8.44 8.44 0 0 0-13.896 9.585c5.946 8.619 10.668 18.179 14.15 28.625-10.55-16.226-24.43-33.122-41.226-43.989-.198-3.61-.257-7.558-.173-11.817a107.631 107.631 0 0 1 13.998 11.483 8.413 8.413 0 0 0 5.888 2.395 8.44 8.44 0 0 0 5.89-14.485c-7.383-7.194-15.658-13.439-24.639-18.637.088-.944.179-1.895.277-2.857 13.628-5.426 25.075-14.471 33.848-26.913 13.207-18.731 20.188-44.901 20.188-75.683 0-12.006-1.076-23.375-3.173-33.846 1.298-5.636 4.543-22.283 2.677-41.152-3.114-31.471-18.806-53.742-45.381-64.405a8.442 8.442 0 0 0-11.447 6.325l-.798 4.387C300.808 10.365 266.489-6.199 213.88 2.368a8.441 8.441 0 0 0-5.558 13.17l4.25 6.072a131.436 131.436 0 0 0-17.579 5.597 8.44 8.44 0 0 0-4.72 10.963c1.722 4.33 6.633 6.446 10.962 4.72 14.658-5.835 26.399-6.893 26.498-6.902a8.441 8.441 0 0 0 6.232-13.253l-3.759-5.369c57.564-4.593 85.598 24.711 86.823 26.027a8.44 8.44 0 0 0 14.537-4.182l1.358-7.473c14.708 9.228 23.235 24.383 25.393 45.193.611 5.887.629 11.584.352 16.684l-.185-.226C347.055 79.441 335.18 72.37 323.196 72.37c-8.418 0-15.428 2.485-20.839 7.386-5.071 4.595-12.052 6.09-18.217 3.899-21.589-7.664-42.434-.768-58.699 19.421-8.682 10.775-20.604 17.868-33.752 20.15-3.134-1.538-6.509-2.343-9.927-2.343-14.956 0-26.671 14.582-26.671 33.198 0 18.615 11.715 33.198 26.671 33.198 1.436 0 2.858-.138 4.254-.412a107.235 107.235 0 0 0 10.928 22.311l-19.812 22.801c-10.9-16.588-14.919-41.342-14.963-41.623a8.44 8.44 0 0 0-14.307-4.666l-3.629 3.629c-2.948-24.292-.151-46.489 8.365-66.159 7.695-17.775 17.466-26.762 17.534-26.824a8.44 8.44 0 1 0-5.611-14.747h-9.957c6.805-11.509 16.053-21.164 27.609-28.802a8.442 8.442 0 0 0-9.309-14.083c-18.137 11.988-31.496 28.175-39.704 48.111a8.44 8.44 0 0 0 7.804 11.654h5.786c-12.389 18.637-28.175 55.039-16.367 110.148a8.444 8.444 0 0 0 5.863 6.327c2.963.874 6.17.06 8.359-2.127l4.384-4.384c3.618 12.954 10.395 31.101 21.94 42.646a8.44 8.44 0 0 0 12.34-.432l24.098-27.73c.163.182.329.362.493.544a283.453 283.453 0 0 0-15.555 35.478 125.466 125.466 0 0 0-14.14 10.461c-20.856 17.838-45.717 51.489-45.717 110.509a8.44 8.44 0 0 0 16.329 2.998c.081-.214 8.277-21.611 22.79-43.65a197.766 197.766 0 0 1 4.675-6.785c-2.867 16.601-5.899 51.816 9.75 89.203a8.438 8.438 0 0 0 14.74 1.523l17.67-25.704 13.19 19.919 8.587 77.708h-19.835a8.44 8.44 0 0 0-8.44 8.44 8.44 8.44 0 0 0 8.44 8.44h29.259a8.439 8.439 0 0 0 8.389-9.367l-7.865-71.18a8.409 8.409 0 0 0 2.241-1.753l25.613-28.356 8.025 7.879 9.413 85.899h-19.843c-4.662 0-8.44 3.779-8.44 8.44s3.778 8.44 8.44 8.44h29.259a8.44 8.44 0 0 0 8.389-9.36l-8.272-75.48a8.433 8.433 0 0 0 9.07-1.185c1.589-1.348 38.553-33.5 21.034-86.043-1.491-7.901-3.957-16.196-7.362-24.758 25.923 26.738 41.569 67.229 41.758 67.727a8.441 8.441 0 0 0 9.413 5.304 8.44 8.44 0 0 0 6.916-8.302c.007-34.164-8.215-63.404-24.428-86.906zM199.488 173.125a8.44 8.44 0 0 0-13.59-4.424c-1.352 1.127-2.744 1.698-4.137 1.698-4.631 0-9.791-6.701-9.791-16.318 0-9.616 5.16-16.318 9.791-16.318 1.177 0 2.311.389 3.466 1.188a8.396 8.396 0 0 0 5.906 1.419c.002 0 .008.008.01.008l.655-.087c18.296-2.432 34.91-11.887 46.785-26.626 11.919-14.794 24.971-19.408 39.907-14.104 12.03 4.271 25.518 1.475 35.198-7.298 2.239-2.028 5.349-3.015 9.505-3.015 13.54 0 27.88 21.433 32.607 30.256 1.968 9.56 2.977 20.044 2.977 31.199 0 27.577-6.853 91.716-70.334 91.716-29.14 0-56.819-14.059-74.052-37.617a90.643 90.643 0 0 1-14.903-31.677zm108.88 234.392l-24.834-24.383a8.416 8.416 0 0 0-6.166-2.414 8.437 8.437 0 0 0-6.01 2.778L247.14 410.31l-21.564-32.565a8.437 8.437 0 0 0-6.964-3.78h-.073a8.442 8.442 0 0 0-6.956 3.659l-15.326 22.293c-7.318-25.946-5.637-49.497-3.684-62.383 11.723 5.453 32.656 13.541 59.662 17.102a8.44 8.44 0 0 0 2.207-16.735c-28.71-3.786-50.154-13.288-59.043-17.779.362-3.6.827-7.228 1.38-10.854 9.703-8.577 20.818-15.12 32.937-16.635a8.44 8.44 0 0 0 7.328-9.421 8.436 8.436 0 0 0-9.423-7.328c-30.706 3.839-54.886 30.531-71.121 55.529 6.417-19.436 17.123-35.717 32.051-48.672 19.531-16.952 39.477-21.701 39.733-21.76a8.441 8.441 0 0 0-3.708-16.468c-.368.082-3.972.916-9.551 3.013a266.213 266.213 0 0 1 5.645-12.018c19.06 15.196 42.971 23.798 67.777 23.798 5.469 0 10.736-.417 15.787-1.237-.514 6.196-.806 11.965-.898 17.34-.186-.133-.362-.278-.56-.396-3.179-1.892-7.345-1.483-10.065 1.04-5.491 5.09-1.798 14.642 5.729 14.642 1.922 0 3.719-.68 5.161-1.81.65 10.477 2.368 18.839 5.174 24.967 3.468 7.551 6.137 14.846 7.997 21.792a184.591 184.591 0 0 1-33.975 3.857 8.44 8.44 0 0 0-8.275 8.603c.091 4.66 3.988 8.392 8.604 8.274a201.565 201.565 0 0 0 37.85-4.348c6.389 27.153-5.272 46.514-12.608 55.487z"/></svg>