<svg xmlns="http://www.w3.org/2000/svg" viewBox="0 0 512 512"><path d="M373.949 5.003c-8.417-3.056-46.209-14.584-73.744 12.948a8.395 8.395 0 0 0 0 11.875 8.372 8.372 0 0 0 5.939 2.46c2.149 0 4.298-.82 5.939-2.46 7.736-7.736 16.746-11.237 25.293-12.485-5.961 4.743-11.139 10.742-15.211 17.809a69.248 69.248 0 0 0-4.747 10.034c-7.302 2.926-15.031 7.533-22.25 14.753a8.395 8.395 0 0 0 0 11.875 8.378 8.378 0 0 0 5.939 2.46c2.149 0 4.298-.82 5.939-2.46a51.262 51.262 0 0 1 5.82-5.005c-.882 15.821 3.182 32.434 12.139 47.894 15.415 26.61 13.907 59.826-4.137 91.132-18.653 32.361-51.559 55.849-78.242 55.849-25.293 0-49.227 4.617-69.219 13.348a8.398 8.398 0 0 0 6.724 15.392c17.887-7.814 39.497-11.944 62.495-11.944 32.828 0 70.985-26.424 92.794-64.258 21.123-36.649 22.625-75.992 4.118-107.938-9.093-15.697-12.005-32.682-8.606-47.829 8.738-2.052 15.356-1.157 15.905-1.076 4.574.718 8.85-2.395 9.588-6.96a8.4 8.4 0 0 0-6.953-9.628c-.448-.073-4.589-.692-10.803-.33 8.001-11.75 20.363-18.673 33.712-18.673 7.95 0 16.395.662 24.827 1.887-.223.137-.45.26-.667.422-2.84 2.127-4.005 5.968-2.901 9.327 1.12 3.406 4.388 5.761 7.973 5.761 4.052 0 7.556-2.987 8.267-6.958.465-2.598-.329-4.913-1.794-6.646 10.323 2.101 20.294 4.994 28.942 8.516 12.14 4.946 32.504 15.688 32.504 32.067 0 2.701-1.001 4.768-3.243 6.703-4.141 3.572-15.978 9.498-48.86 8.995-19.787-.298-37.304-2.869-37.479-2.894a8.398 8.398 0 0 0-2.472 16.612c1.341.2 4.525.653 8.988 1.154 2.459 14.128 3.46 30.057 2.975 47.454a8.396 8.396 0 0 0 8.399 8.631 8.399 8.399 0 0 0 8.39-8.164c.468-16.772-.397-32.323-2.532-46.439 24.16 1.441 58.112.688 73.555-12.627 5.937-5.117 9.074-11.835 9.074-19.426-.006-41.255-66.464-60.723-112.378-61.158zM268.051 354.39a8.39 8.39 0 0 0-8.858 7.91c-.027.487-.676 12.121-.991 29.344a8.398 8.398 0 0 0 8.243 8.55l.157.001a8.399 8.399 0 0 0 8.393-8.245c.306-16.876.96-28.585.966-28.701a8.398 8.398 0 0 0-7.91-8.859z"/><path d="M397.327 157.127c-4.615-.401-8.691 3.022-9.09 7.643-7.246 83.773-42.249 170.941-42.603 171.811l-.046.116c-4.514 11.631-15.629 37.637-27.415 58.107 2.281-24.845 5.738-42.693 5.776-42.892a8.398 8.398 0 0 0-6.627-9.854c-4.542-.89-8.962 2.074-9.854 6.624-.703 3.585-16.154 84.011-2.51 146.52h-23.637c-3.998-18.543-6.226-45.962-6.462-79.954-.032-4.638-3.82-8.388-8.457-8.338a8.397 8.397 0 0 0-8.338 8.457c.071 10.026.303 19.448.699 28.258-23.75 11.561-45.025 13.788-56.518 13.984 5.289-17.299 9.56-37.019 9.56-55.614a8.398 8.398 0 0 0-16.796 0c0 36.293-18.824 79.334-25.373 93.209h-23.779l14.676-75.463a8.398 8.398 0 1 0-16.488-3.206l-9.389 48.279c-7.475 6.917-19.841 12.539-33.633 16.989 16.102-18.773 22.775-44.664 19.835-77.003-4.279-47.081 9.241-81.979 40.187-103.722a8.399 8.399 0 0 0-9.657-13.743c-45.116 31.701-50.6 82.202-47.257 118.986 2.584 28.427-3.14 50.584-17.012 65.855-12.49 13.75-29.309 19.292-40.633 21.525-5.176.714-9.677 1.223-13.168 1.537A8.398 8.398 0 0 0 34.071 512c.642 0 7.091-.052 16.238-1.893 20.096-2.841 55.344-9.327 79.847-22.152l-2.731 14.044a8.4 8.4 0 0 0 8.244 10h39.217a8.398 8.398 0 0 0 7.463-4.546c.576-1.115 7.339-14.348 14.238-33.081a106.5 106.5 0 0 0 4.195.081c12.006 0 33.929-1.871 59.082-12.831 1.422 17.992 3.67 32.773 6.737 44.163a8.398 8.398 0 0 0 8.109 6.214h40.969l.027.002.031-.002h28.494a8.396 8.396 0 0 0 6.616-3.228 8.404 8.404 0 0 0 1.532-7.202c-.212-.849-19.994-82.402 5.492-150.445a410.91 410.91 0 0 0 3.353-8.291c1.795-4.434 36.315-90.682 43.745-176.614a8.397 8.397 0 0 0-7.642-9.092zm-75.126 338.075c-4.493-18.689-6.491-41.881-5.897-68.242 4.137-4.623 8.316-10.505 12.374-17.009-2.628 36.694 2.13 69.221 5.179 85.251h-11.656zm47.378-452.513c-5.853 4.935-2.211 14.813 5.424 14.813 3.951 0 7.461-2.892 8.23-6.763 1.519-7.643-7.725-13.049-13.654-8.05z"/></svg>