<svg xmlns="http://www.w3.org/2000/svg" viewBox="0 0 511.999 511.999"><path d="M479.988 135.098a8.26 8.26 0 0 0-10.781-4.493l-23.985 9.876-40.016-40.016 26.106-20.75a8.262 8.262 0 0 0 2.696-9.077l-8.551-25.655a8.26 8.26 0 0 0-15.67 5.222l6.725 20.174-28.393 22.568-49.457 29.416 3.334-24.034a8.256 8.256 0 0 0-7.045-9.314c-4.517-.632-8.689 2.527-9.314 7.045l-5.149 37.113-47.498 28.251 10.464-64.094 15.66-18.792a8.259 8.259 0 0 0-12.688-10.574l-9.694 11.632-27.278-45.009-3.211-27.294c-.533-4.53-4.634-7.766-9.167-7.237a8.258 8.258 0 0 0-7.237 9.167l1.147 9.746L210.549 3.4a8.258 8.258 0 0 0-11.574 1.564 8.258 8.258 0 0 0 1.564 11.574l32.988 25.133 4.677 57.678-26.61 66.525-34.243-18.677-2.923-30.272a8.258 8.258 0 1 0-16.441 1.589l1.85 19.129-32.353-17.648-20.251-30.376 18.587-40.271a8.259 8.259 0 0 0-4.038-10.96 8.258 8.258 0 0 0-10.96 4.038L95.007 76.693 67.421 51.735c-3.38-3.06-8.604-2.798-11.664.584a8.257 8.257 0 0 0 .584 11.664L91.496 95.79l19.619 29.429-50.274 50.273-23.805 7.935a8.26 8.26 0 0 0-5.224 10.446 8.26 8.26 0 0 0 10.446 5.224l14.785-4.929v17.618a8.258 8.258 0 0 0 16.516 0v-22.375l54.554-11.485 27.874 22.892-16.069 4.759a8.259 8.259 0 1 0 4.69 15.837l26.794-7.936 17.268 14.182v63.358l-20.514-20.55-7.924-20.601a8.26 8.26 0 0 0-15.416 5.928l5.201 13.522-34.296 8.573-19.783-19.783a8.258 8.258 0 0 0-11.679 11.679l23.09 23.09a8.258 8.258 0 0 0 7.842 2.173l43.348-10.836 30.132 30.186v38.796a8.258 8.258 0 0 0 16.516 0V223.757a8.258 8.258 0 0 0-3.017-6.382l-23.645-19.418-.03-.024-42.965-35.287a8.253 8.253 0 0 0-6.943-1.699l-37.806 7.96 32.427-32.426 85.422 46.593 9.406 39.192a8.262 8.262 0 0 0 8.024 6.333 8.259 8.259 0 0 0 8.037-10.188l-9.649-40.203 29.809-74.525a8.246 8.246 0 0 0 .564-3.735l-2.306-28.437 14.508 23.939-13.191 80.799a8.244 8.244 0 0 0 .527 4.49c.008.019.009.039.017.057l18.813 44.468a8.26 8.26 0 0 0 7.61 5.043 8.26 8.26 0 0 0 7.602-11.479l-16.007-37.835 119.128-70.853 23.178 23.178-22.141-6.428a8.26 8.26 0 0 0-8.463 2.43l-20.908 23.413a8.259 8.259 0 0 0 12.321 11.001l17.443-19.532 43.144 12.525 4.195 22.372a8.262 8.262 0 0 0 9.64 6.595 8.259 8.259 0 0 0 6.595-9.639l-3.894-20.763 22.865-9.415a8.255 8.255 0 0 0 4.491-10.779z"/><path d="M410.633 181.297a8.253 8.253 0 0 0-11.528-1.861L368.32 201.67a8.253 8.253 0 0 0-3.4 7.305l3.181 42.945-19.432 24.315-.004.005-15.767 19.73v-84.52l27.508-30.803a8.259 8.259 0 0 0-12.321-11.001l-29.607 33.153a8.263 8.263 0 0 0-2.099 5.501v222.704c0 11.908 4.442 22.798 11.757 31.099a29.329 29.329 0 0 0-23.575 24.963l-17.464-10.739c-16.231-9.981-36.396-9.979-52.626 0l-17.465 10.739a29.325 29.325 0 0 0-23.575-24.964c7.315-8.301 11.757-19.19 11.757-31.099v-49.729a8.258 8.258 0 0 0-16.516 0v49.729c0 16.862-13.718 30.578-30.579 30.578a8.258 8.258 0 0 0 0 16.516h29.838c4.253 0 8.086 2.002 10.516 5.492 2.43 3.491 2.977 7.779 1.502 11.769l-2.041 5.516a8.258 8.258 0 0 0 12.07 9.901l33.144-20.381c10.893-6.698 24.428-6.698 35.322 0l33.144 20.381a8.253 8.253 0 0 0 9.563-.65 8.257 8.257 0 0 0 2.508-9.251l-2.042-5.516c-1.475-3.989-.928-8.278 1.502-11.769 2.43-3.491 6.263-5.492 10.517-5.492h29.838a8.258 8.258 0 0 0 0-16.516c-16.862 0-30.579-13.718-30.579-30.578V322.427l25.841-32.336 37.605 3.46a8.257 8.257 0 0 0 8.979-7.467 8.26 8.26 0 0 0-7.467-8.98l-26.771-2.462 11.942-14.943a8.261 8.261 0 0 0 1.785-5.766l-3.08-41.575 27.044-19.532a8.258 8.258 0 0 0 1.86-11.529z"/><path d="M260.275 289.613a8.258 8.258 0 0 0-8.258 8.258v27.365a8.258 8.258 0 0 0 16.516 0v-27.365a8.258 8.258 0 0 0-8.258-8.258zm32.182 0a8.258 8.258 0 0 0-8.258 8.258v27.365a8.258 8.258 0 0 0 16.516 0v-27.365a8.257 8.257 0 0 0-8.258-8.258zm10.618 66.75a8.26 8.26 0 0 0-11.628 1.096 23.237 23.237 0 0 1-15.821 8.371 23.23 23.23 0 0 1-17.106-5.27 8.26 8.26 0 0 0-10.532 12.724c7.223 5.98 16.115 9.17 25.374 9.17 1.265 0 2.537-.059 3.812-.181 10.612-.999 20.199-6.072 26.996-14.282a8.26 8.26 0 0 0-1.095-11.628z"/></svg>