<svg xmlns="http://www.w3.org/2000/svg" viewBox="0 0 511.998 511.998"><path d="M478.079 114.966h.001c16.858-27.594 20.044-61.836 8.446-92.14l-2.239-5.846C480.591 7.337 471.895.891 461.593.154c-10.295-.736-19.818 4.41-24.845 13.426l-16.743 30.004a69.376 69.376 0 0 0-10.794-.844H370.03a109.215 109.215 0 0 0-5.371-19.087l-2.358-6.157C358.473 7.509 349.466.832 338.796.07c-6.41-.454-12.521 1.301-17.514 4.789-5.001-3.532-11.176-5.249-17.581-4.657-10.035.931-18.511 7.362-22.119 16.785l-2.23 5.829a104.615 104.615 0 0 0-5.792 22.094h-35.12a104.42 104.42 0 0 0-5.791-22.088l-2.233-5.837c-3.607-9.42-12.082-15.851-22.118-16.782-6.405-.596-12.58 1.122-17.581 4.656-4.995-3.491-11.108-5.246-17.512-4.788-10.67.763-19.676 7.44-23.505 17.429l-2.356 6.155a109.139 109.139 0 0 0-5.37 19.086H102.79c-3.638 0-7.25.285-10.794.844L75.252 13.583C70.224 4.564 60.699-.577 50.405.154 40.103.889 31.407 7.336 27.71 16.982l-2.238 5.844c-11.598 30.303-8.412 64.546 8.446 92.139v39.618a56.515 56.515 0 0 0-9.933 32.06c0 15.173 5.911 29.441 16.641 40.17 9.008 9.021 20.525 14.621 32.984 16.185 2.447 10.754 9.008 32.191 25.336 53.839-17.005 41.897-9.382 87.143 1.529 120.373l-2.182 1c-15.197 6.961-25.211 21.653-26.132 38.343a8.575 8.575 0 0 0 8.563 9.047h46.557c1.242 0 2.481-.078 3.715-.202-14.295 7.237-23.658 21.454-24.553 37.549a8.575 8.575 0 0 0 8.561 9.05h46.562c16.462 0 31.179-11.038 35.789-26.841 2-6.858 2.009-14.124.026-21.011-2.18-7.575-5.848-22.609-5.923-38.191-.008-1.758.04-3.464.12-5.139a392.7 392.7 0 0 0 64.297 5.303c5.902 0 11.809-.134 17.704-.401a8.575 8.575 0 0 0 8.177-8.955 8.565 8.565 0 0 0-8.955-8.178 375.124 375.124 0 0 1-78.471-4.706c2.108-6.937 5.365-12.732 9.774-17.314 3.284-3.412 3.181-8.84-.232-12.125s-8.84-3.181-12.125.232c-11.678 12.133-17.546 29.415-17.441 51.364.08 16.767 3.629 32.558 6.591 42.853a20.569 20.569 0 0 1-.01 11.467c-2.489 8.533-10.435 14.493-19.325 14.493H125.61a27.701 27.701 0 0 1 14.107-14.649l9.255-4.242a8.575 8.575 0 0 0 4.493-10.705c-12.393-34.348-16.048-65.723-10.862-93.255a8.576 8.576 0 0 0-6.84-10.015 8.573 8.573 0 0 0-10.015 6.84c-4.562 24.225-3.04 50.858 4.464 79.404a20.14 20.14 0 0 1-2.934.224h-35.95a27.687 27.687 0 0 1 14.11-14.65l9.25-4.242a8.575 8.575 0 0 0 4.491-10.705c-14.454-40.061-16.93-76.792-7.361-107.192 7.355 7.381 16.054 14.492 26.334 20.896a124.82 124.82 0 0 0-4.706 10.124 8.575 8.575 0 1 0 15.86 6.521c11.004-26.762 28.567-39.096 28.872-39.306a8.576 8.576 0 0 0-9.598-14.213c-.616.414-10.863 7.434-21.47 22.24-37.964-23.798-51.499-59.192-55.89-75.423 11.214-2.066 21.537-7.451 29.776-15.69a57.488 57.488 0 0 0 8.064-10.156 57.196 57.196 0 0 0 8.069 10.154 56.83 56.83 0 0 0 31.552 15.998 58.67 58.67 0 0 0 27.02 11.798l-5.323 48.473a8.575 8.575 0 0 0 17.047 1.872l5.303-48.281.199-1.817c12.929-1.674 24.884-7.511 34.259-16.886a59.954 59.954 0 0 0 8.812-11.221 59.79 59.79 0 0 0 8.819 11.221c9.362 9.375 21.315 15.215 34.253 16.887l.199 1.816 5.303 48.281 17.047-1.873s-3.565-32.456-5.323-48.475a58.66 58.66 0 0 0 27.01-11.795 56.842 56.842 0 0 0 31.56-15.995 57.337 57.337 0 0 0 8.074-10.16 57.34 57.34 0 0 0 8.069 10.161c8.209 8.209 18.493 13.586 29.664 15.667-4.384 16.212-17.901 51.59-55.823 75.396-10.608-14.788-20.849-21.803-21.432-22.196-3.918-2.635-9.212-1.596-11.863 2.311s-1.632 9.231 2.263 11.9c.162.111 16.342 11.398 27.398 35.884 14.7 32.556 13.773 73.868-2.682 119.473a8.573 8.573 0 0 0 4.493 10.705l9.255 4.242a27.698 27.698 0 0 1 14.107 14.649h-35.953c-8.89 0-16.836-5.96-19.325-14.493a20.56 20.56 0 0 1-.01-11.467c5.526-19.199 15.529-66.812-10.849-94.217a8.576 8.576 0 0 0-12.357 11.893c4.397 4.569 7.649 10.346 9.757 17.258a375.528 375.528 0 0 1-15.754 2.305 8.575 8.575 0 1 0 2.108 17.02 395.416 395.416 0 0 0 16.413-2.4c.083 1.696.131 3.423.123 5.206-.074 15.583-3.742 30.617-5.923 38.191a37.701 37.701 0 0 0 .026 21.011c4.61 15.803 19.327 26.841 35.789 26.841h46.562a8.575 8.575 0 0 0 8.561-9.05c-.894-16.093-10.256-30.309-24.549-37.546 1.226.122 2.457.2 3.691.2h46.557a8.576 8.576 0 0 0 8.563-9.047c-.922-16.689-10.934-31.381-26.129-38.341l-2.186-1.002c10.918-33.252 18.545-78.534 1.497-120.453 16.277-21.612 22.826-42.999 25.273-53.745 12.504-1.544 24.063-7.149 33.095-16.194 10.734-10.734 16.646-25.002 16.646-40.175a56.52 56.52 0 0 0-9.933-32.06v-39.612zM420.65 448.451h-35.953c-.986 0-1.967-.081-2.94-.225 8.523-32.72 11.865-73.265-5.405-110.574a123.568 123.568 0 0 0-2.529-5.15c10.272-6.41 18.964-13.525 26.312-20.908 9.595 30.414 7.128 67.169-7.337 107.262a8.576 8.576 0 0 0 4.491 10.705l9.253 4.243a27.667 27.667 0 0 1 14.108 14.647zm-64.915-328.069c11.211-18.305 16.672-39.406 16.099-60.492h37.375c4.451 0 8.838.559 13.06 1.666 22.762 5.912 38.66 26.489 38.66 50.041v26.642a56.467 56.467 0 0 0-29.736-8.429l-75.459-.001v-9.427zm-60.367-91.434l2.231-5.83c1.275-3.328 4.147-5.51 7.687-5.838 1.93-.176 3.751.231 5.317 1.104l-15.332 27.475a71.213 71.213 0 0 0-4.392-.587 87.312 87.312 0 0 1 4.489-16.324zM206.713 17.28c3.539.328 6.412 2.511 7.686 5.836l2.233 5.839a87.475 87.475 0 0 1 4.489 16.318c-1.478.148-2.94.349-4.39.584L201.4 18.385a9.105 9.105 0 0 1 5.313-1.105zM39.266 85.003c-5.321-18.216-4.697-37.967 2.223-56.046l2.235-5.839c1.307-3.407 4.26-5.598 7.903-5.857 3.64-.258 6.869 1.489 8.647 4.676l14.841 26.594c-16.352 7.158-29.096 20.346-35.849 36.472zm81.222 101.647v.008c-.003 10.575-4.133 20.531-11.622 28.033-7.495 7.495-17.46 11.622-28.06 11.622-10.603 0-20.562-4.126-28.048-11.622-7.495-7.495-11.622-17.456-11.622-28.048 0-21.881 17.795-39.683 39.67-39.683h15.453c3.09 11.817 12.412 21.139 24.229 24.229v15.461zm8.57-31.512c-6.101 0-11.436-3.289-14.364-8.178h14.368v-.001h14.36c-2.927 4.889-8.262 8.179-14.364 8.179zm27.207 7.241c-6.589 9.565-10.459 21.143-10.459 33.611 0 6.196.956 12.243 2.775 17.985-7.057-7.407-10.941-17.063-10.943-27.318v-15.471c7.555-1.978 14.089-6.503 18.627-12.6v3.793zm0-32.571l-75.461.001a56.458 56.458 0 0 0-29.736 8.429v-26.641c0-23.552 15.897-44.129 38.678-50.046a51.484 51.484 0 0 1 13.041-1.66h37.378c-.571 21.086 4.889 42.186 16.099 60.49v9.427zm7.095-100.023l2.355-6.15c1.441-3.757 4.697-6.171 8.712-6.458 4.005-.294 7.576 1.64 9.536 5.156l15.881 28.459c-17.478 7.552-31.383 21.831-38.458 39.554-6.033-19.621-5.506-41.015 1.974-60.561zm84.064 166.205c.002 11.262-4.393 21.868-12.37 29.856-7.978 7.978-18.586 12.371-29.87 12.371h-.009l-.046-.001c-11.267-.014-21.846-4.403-29.801-12.37-7.978-7.978-12.372-18.582-12.372-29.856 0-23.292 18.943-42.241 42.227-42.241h16.628c3.15 12.559 13.055 22.462 25.613 25.612v16.629zm8.572-32.72c-6.876 0-12.867-3.858-15.927-9.521h31.853c-3.058 5.663-9.05 9.521-15.926 9.521zm80.659 62.582c-7.965 7.974-18.566 12.365-29.853 12.365s-21.888-4.392-29.855-12.371c-7.978-7.978-12.371-18.581-12.371-29.856v-16.631c12.554-3.152 22.453-13.055 25.603-25.61h16.624a8.575 8.575 0 0 0 8.575-8.575 8.575 8.575 0 0 0-8.575-8.575H205.185c-11.68 0-22.574 3.405-31.768 9.253v-28.88c0-30.278 24.632-54.911 54.911-54.911h55.33c30.287 0 54.928 24.64 54.928 54.928v28.84a58.505 58.505 0 0 0-6.016-3.36 8.577 8.577 0 0 0-7.452 15.448c14.526 7.006 23.913 21.952 23.913 38.075 0 11.274-4.394 21.877-12.376 29.86zm13.957-135.498c-7.076-17.724-20.98-32.004-38.458-39.558l15.885-28.466c1.959-3.515 5.531-5.44 9.534-5.154 4.015.287 7.273 2.701 8.711 6.454l2.355 6.152c7.483 19.55 8.009 40.949 1.973 60.572zm23.747 96.288v.015c-.001 10.26-3.89 19.922-10.959 27.335a59.464 59.464 0 0 0 2.779-18.003c0-12.141-3.79-23.806-10.446-33.536v-3.865c4.538 6.095 11.071 10.618 18.625 12.596v15.458zm8.581-31.504c-6.102 0-11.437-3.291-14.365-8.181h14.36v.001h14.368c-2.927 4.89-8.261 8.18-14.363 8.18zm76.297 59.558c-7.481 7.491-17.44 11.618-28.043 11.618-10.6 0-20.565-4.128-28.057-11.618-7.495-7.506-11.623-17.462-11.627-28.037v-15.47c11.817-3.09 21.138-12.412 24.229-24.229h15.453c21.875 0 39.67 17.802 39.67 39.683.002 10.592-4.126 20.553-11.625 28.053zm13.495-129.694c-6.754-16.128-19.5-29.319-35.849-36.473l14.842-26.595c1.776-3.187 5.006-4.932 8.646-4.674 3.642.261 6.596 2.45 7.901 5.854l2.238 5.841c6.919 18.079 7.544 37.831 2.222 56.047z"/><path d="M423.067 92.821a8.575 8.575 0 0 0-8.575 8.575v11.779a8.575 8.575 0 0 0 8.575 8.575 8.575 8.575 0 0 0 8.575-8.575v-11.779a8.575 8.575 0 0 0-8.575-8.575zm-185.723 1.386a8.575 8.575 0 0 0-8.575 8.575v16.629c0 4.736 3.839 8.575 8.575 8.575s8.575-3.839 8.575-8.575v-16.629a8.575 8.575 0 0 0-8.575-8.575zm37.313 0a8.575 8.575 0 0 0-8.575 8.575v16.629a8.575 8.575 0 0 0 8.575 8.575 8.575 8.575 0 0 0 8.575-8.575v-16.629a8.575 8.575 0 0 0-8.575-8.575zM88.931 92.821a8.575 8.575 0 0 0-8.575 8.575v11.779a8.575 8.575 0 0 0 8.575 8.575 8.575 8.575 0 0 0 8.575-8.575v-11.779a8.575 8.575 0 0 0-8.575-8.575z"/></svg>