<svg xmlns="http://www.w3.org/2000/svg" viewBox="0 0 511.997 511.997"><path d="M492.843 143.163c-3.661-19.871-17.735-33.168-40.704-38.453-3.764-.866-7.46-1.438-10.93-1.811-3.698-7.345-12.593-21.79-30.309-35.005-10.409-7.764-21.758-13.535-33.518-17.763L331.198 2.426a7.968 7.968 0 0 0-13.688 5.765l.894 31.838c-14.062-.295-27.491.658-39.389 2.133a7.966 7.966 0 1 0-3.073 14.765l35.707 21.099c-5.478 4.193-12.343 10.31-19.372 18.78a7.966 7.966 0 1 0 12.261 10.175c13.209-15.917 25.542-22.064 25.633-22.108a7.964 7.964 0 1 0 .615-14.046L305.711 56.01c38.891-1.253 71.363 6.913 94.812 24.03 10.678 7.795 17.658 16.121 21.964 22.477-1.233.087-1.98.168-2.11.183a7.958 7.958 0 0 0-4.276 1.857c-17.051 14.554-21.944 38.087-13.055 57.797-22.46 6.501-63.475 13.983-73.829-4.289a7.967 7.967 0 0 0-13.863 7.855c5.611 9.9 15.389 16.061 29.187 18.463a198.523 198.523 0 0 0-3.379 32.531c-.607 30.548 6.517 56.738 20.601 75.74 3.426 4.623 6.08 9.168 8.105 13.598l-18.593-9.078a7.968 7.968 0 0 0-10.774 3.923l-8.257 18.58-16.269-14.854a7.965 7.965 0 0 0-9.791-.746l-26.915 17.943-9.347-23.125a123.68 123.68 0 0 0 12.937.901 7.968 7.968 0 0 0 .151-15.933c-41.215-.797-54.845-22.391-55.366-23.241a7.971 7.971 0 0 0-8.5-3.793c-8.052 1.666-13.956-1.028-17.987-4.415l6.316-1.202a7.967 7.967 0 1 0-2.98-15.653l-17.957 3.418c-6.467-.242-11.092-1.986-13.714-5.221-2.239-2.761-2.952-6.344-3.105-9.238l16.468-3.042a7.966 7.966 0 0 0 6.387-9.281c-.8-4.327-4.965-7.189-9.281-6.387l-22.533 4.162c-15.888 2.855-25.275-7.561-30.03-15.588l21.375-3.695a7.967 7.967 0 0 0 6.493-9.208c-.749-4.335-4.872-7.249-9.207-6.492l-29.938 5.176c-9.09-2.348-14.574-7.221-16.728-14.878-.784-2.785-1.001-5.509-.993-7.733l25.811-4.022a7.966 7.966 0 0 0 6.645-9.098 7.958 7.958 0 0 0-9.097-6.645l-31.127 4.85c-5.624-.28-10.156-2.954-13.838-8.174-1.427-2.023-1.811-4.571-1.055-6.992.773-2.474 2.59-4.397 4.983-5.273 19.552-7.163 43.054-10.029 69.853-8.524 4.406.235 8.155-3.115 8.401-7.508a7.968 7.968 0 0 0-7.507-8.401c-28.981-1.626-54.625 1.559-76.227 9.472-7.087 2.596-12.449 8.24-14.712 15.484-2.246 7.191-1.064 14.818 3.243 20.925 4.949 7.016 11.318 11.668 18.708 13.733-.026 6.022 1.049 14.34 5.874 21.946 4.727 7.451 11.93 12.69 21.45 15.614 5.411 12.97 18.661 30.716 40.725 31.45.133 1.658.382 3.435.802 5.267-13.623 1.456-26.468 7.23-37.101 16.857a73.58 73.58 0 0 0-3.621 3.536c-3.076-7.814-8.25-16.323-16.864-20.865-9.319-4.912-20.224-4.112-32.411 2.38-35.914 19.132-23.275 54.5-13.119 82.919 10.199 28.537 15.312 46.678.375 57.973a7.851 7.851 0 0 0-.574.481 22.663 22.663 0 0 0-9.493-2.093c-12.593 0-22.838 10.245-22.838 22.838 0 12.593 10.245 22.838 22.838 22.838s22.838-10.245 22.838-22.838c0-3.357-.747-6.536-2.052-9.409 23.882-19.201 13.293-48.897 3.91-75.151-11.263-31.516-17.018-51.443 5.605-63.494 7.23-3.851 13.106-4.646 17.466-2.359 7.447 3.905 11.16 16.412 12.38 22.96-8.025 14.236-12.43 31.47-12.43 49.911 0 20.07 5.393 41.754 15.186 61.06a7.966 7.966 0 0 0 10.709 3.501 7.967 7.967 0 0 0 3.501-10.709c-8.555-16.867-13.462-36.495-13.462-53.852 0-23.652 8.292-44.725 22.749-57.816 10.161-9.201 22.403-13.686 35.567-13.056 4.731 4.085 10.894 6.563 18.421 7.383 5.668 8.876 17.505 19.842 34.942 18.518 4.847 5.775 15.354 15.675 33.9 21.646l17.074 42.243a7.966 7.966 0 0 0 11.805 3.643l29.867-19.912 19.828 18.104a7.966 7.966 0 0 0 12.651-2.648l9.393-21.134 23.542 11.493c.786 10.101-1.238 18.999-3.921 26-7.027 18.327-21.263 31.91-34.884 38.706 1.995-18.185-.796-34.131-1.008-35.295a7.96 7.96 0 0 0-9.254-6.411c-4.326.782-7.201 4.925-6.424 9.252.021.11 1.983 11.237 1.328 24.691-.57 11.689-3.276 27.65-12.931 37.305-.289.29-1.765 1.737-2.477 1.528-2.557-.743-8.842-7.428-16.178-27.779-5.131-14.232-8.271-28.14-8.301-28.279a7.968 7.968 0 0 0-15.549 3.48c.135.601 3.356 14.898 8.809 30.057.893 2.484 1.79 4.831 2.692 7.061-31.46 9.698-57.569 10.811-76.628 9.17 5.465-9.012 6.963-19.951 4.085-30.104l-14.422-50.899a7.965 7.965 0 0 0-9.837-5.493 7.966 7.966 0 0 0-5.493 9.836l14.422 50.899a22.151 22.151 0 0 1-2.525 17.752l-40.732 65.169a7.967 7.967 0 0 0 6.757 12.189c4.152 0 8.043 1.841 10.675 5.052a13.825 13.825 0 0 1 2.764 5.57h-29.506l-10.808-24.319a18.672 18.672 0 0 1 1.344-17.703l23.743-37.067a7.967 7.967 0 0 0-2.914-11.302c-5.262-2.851-10.474-7.237-15.491-13.036a7.968 7.968 0 0 0-12.052 10.423c4.085 4.723 8.355 8.741 12.755 12.01l-19.458 30.379a34.564 34.564 0 0 0-2.487 32.768l12.91 29.05a7.968 7.968 0 0 0 7.281 4.731h80.21a7.965 7.965 0 0 0 7.804-6.366l.114-.557a29.615 29.615 0 0 0-6.155-24.678 29.695 29.695 0 0 0-10.381-8.09l25.056-40.079c16.266-1.038 35.056-4.156 55.91-10.789 3.687 6.342 7.512 10.823 11.572 13.578l2.616 12.028c.668 7.492-.132 15.687-4.995 20.55a7.966 7.966 0 1 0 11.267 11.266c.18-.18.354-.359.528-.542l4.111 18.908a7.968 7.968 0 0 0 7.785 6.274h24.432c4.401 0 7.967-3.567 7.967-7.967s-3.566-7.967-7.967-7.967H323.4l-9.45-43.456a80.176 80.176 0 0 0-1.149-7.295c2.133-.957 4.374-2.443 6.625-4.694 6.246-6.246 10.393-13.998 13.093-22.146 6.824-1.991 13.55-5.244 19.876-9.486 11.902 8.354 21.349 12.559 29.05 12.917l11.084 13.04-13.337 15.444h-16.537c-4.401 0-7.967 3.567-7.967 7.967s3.566 7.967 7.967 7.967h16.879l15.724 15.724a7.949 7.949 0 0 0 5.634 2.334 7.966 7.966 0 0 0 5.634-13.6l-12.822-12.822 15.342-17.765a7.967 7.967 0 0 0 .041-10.367l-12.439-14.634c1.569-2.092 2.905-4.825 3.713-8.434 3.267-14.622-.549-31.913-11.012-50.169 5.191-22.13.103-44.835-14.783-64.925-24.34-32.839-17.123-81.987-13.989-97.659 4.932-.074 10.197-.463 15.829-1.206 18.505-2.438 35.073-7.79 39.844-9.421h62.258c.291.281.58.566.867.853a7.97 7.97 0 0 0 8.683 1.727 7.966 7.966 0 0 0 4.918-7.36v-25.494a8.115 8.115 0 0 0-.133-1.441zM334.37 40.927l-.357-12.685 13.94 14.399a199.285 199.285 0 0 0-13.583-1.714zM41.856 402.588c-3.807 0-6.905-3.097-6.905-6.905s3.097-6.905 6.905-6.905 6.905 3.097 6.905 6.905-3.098 6.905-6.905 6.905zm141.886 70.665a7.963 7.963 0 0 0-.212 8.085 7.965 7.965 0 0 0 6.968 4.106c4.158 0 8.052 1.842 10.685 5.055a13.816 13.816 0 0 1 2.762 5.567h-21.601a29.642 29.642 0 0 0-6.568-15.671 29.722 29.722 0 0 0-10.374-8.085l25.76-41.217c5.375.713 11.4 1.243 18.028 1.452l-25.448 40.708zm201.068-78.469c-.553 2.475-1.205 2.606-1.438 2.652-.59.119-5.413.732-18.12-7.49 6.381-6.291 11.957-13.606 16.28-21.549 3.294 8.437 5.21 17.744 3.278 26.387zm34.385-235.837a33.615 33.615 0 0 1-2.088-4.249h11.484c8.469 0 16.712 1.455 24.45 4.249h-33.846zm57.846-5.628c-14.244-9.47-30.957-14.555-48.451-14.555h-12.628c-.392 0-.776.029-1.155.083a33.36 33.36 0 0 1 9.818-20.503c4.358-.246 13.939-.408 23.94 1.894 16.479 3.791 25.8 12.016 28.475 25.133v7.948z"/><path d="M363.714 90.29a7.966 7.966 0 0 0-7.967 7.967v14.871c0 4.4 3.566 7.967 7.967 7.967s7.967-3.567 7.967-7.967V98.257c0-4.4-3.566-7.967-7.967-7.967zm28.68 0a7.966 7.966 0 0 0-7.967 7.967v14.871c0 4.4 3.566 7.967 7.967 7.967a7.966 7.966 0 0 0 7.967-7.967V98.257c0-4.4-3.566-7.967-7.967-7.967zm-104.716 26.169a7.967 7.967 0 0 0-10.805 3.19c-14.309 26.301-21.615 57.906-21.826 94.214-13.997-23.874-20.79-50.634-20.185-79.645.269-12.857-8.228-24.031-20.662-27.174a331.59 331.59 0 0 0-32.418-6.486 7.966 7.966 0 0 0-2.34 15.759 315.572 315.572 0 0 1 30.854 6.175c5.198 1.313 8.749 5.998 8.637 11.394-1.725 82.642 52.061 124.831 54.352 126.586a7.914 7.914 0 0 0 4.832 1.642 7.953 7.953 0 0 0 6.318-3.11c2.68-3.48 2.031-8.479-1.443-11.167-.076-.06-4.772-3.738-11.172-10.883-3.262-43.52 3.126-80.425 19.048-109.69a7.966 7.966 0 0 0-3.19-10.805z"/></svg>