<svg xmlns="http://www.w3.org/2000/svg" viewBox="0 0 511.999 511.999"><path d="M294.683 154.479c-10.785-10.786-28.337-10.785-39.122 0a8.138 8.138 0 0 0 0 11.509c3.175 3.178 8.329 3.178 11.507 0 4.44-4.44 11.663-4.441 16.107 0a8.113 8.113 0 0 0 5.754 2.384 8.137 8.137 0 0 0 5.754-13.893z"/><path d="M458.674 324.764c-9.955-9.955-26.757-7.631-31.451-6.74-12.852-.305-30.287-8.531-50.856-23.94 15.605-7.138 44.527-9.178 62.175-8.599a8.159 8.159 0 0 0 7.449-4.298 8.139 8.139 0 0 0-.566-8.581c-23.02-32.063-57.216-41.74-75.953-44.661 2.059-4.163 3.874-8.593 5.434-13.27 11.771-1.072 37.987-5.722 58.232-25.798 17.179-17.035 25.89-40.909 25.89-70.96 0-34.635-24.074-69.316-64.396-92.771a8.138 8.138 0 1 0-8.184 14.069c35.257 20.508 56.305 49.93 56.305 78.702 0 25.48-7.052 45.427-20.958 59.288-13.752 13.706-31.492 18.675-42.534 20.481 1.803-9.638 2.732-19.99 2.732-30.943 0-11.623-1.023-22.575-3.05-32.686 2.356-.191 4.674-.448 6.943-.768 4.73-.671 9.225 2.212 10.484 6.785l.129.449a9.252 9.252 0 0 1-5.7 11.18 8.137 8.137 0 0 0 5.713 15.24c12.478-4.678 19.218-17.894 15.654-30.828l-.128-.446c-3.4-12.353-15.628-20.304-28.429-18.495-4.688.663-9.639 1.008-14.721 1.026a8.502 8.502 0 0 0-.357.001h-.096c-54.982 0-112.671-37.617-113.245-37.995a8.137 8.137 0 1 0-12.624 6.789c0 41.351-29.224 51.17-38.074 53.195-2.989-1.445-6.198-2.198-9.44-2.198-14.425 0-25.726 14.06-25.726 32.008s11.301 32.008 25.726 32.008c1.386 0 2.757-.133 4.102-.397 6.092 17.204 16.693 32.653 30.612 44.611-3.051 6.766-9.987 19.771-23.469 34.748-17.571 19.536-40.496 36.259-68.143 49.752-6.327-.928-20.642-1.813-29.517 7.062a8.137 8.137 0 0 0 0 11.508 8.137 8.137 0 0 0 11.508 0c2.011-2.009 5.778-2.734 9.451-2.834l-1.484 7.419a8.137 8.137 0 0 0 7.989 9.734c3.8 0 7.197-2.676 7.972-6.544l1.93-9.649c15.508-.069 53.575-1.766 83.432-15.592a103.287 103.287 0 0 0 7.061-3.591c-2.056 15.27-7.493 34.845-15.825 37.301a8.137 8.137 0 0 0-5.563 5.716c-7.491 28.2-25.574 45.29-53.815 50.912-3.136-10.348-10.292-22.946-26.604-28.121-21.562-6.829-34.012-21.9-34.119-22.03a8.137 8.137 0 0 0-14.454 4.391c-.17 1.974-3.45 43.2 16.789 64.078-20.239 20.878-16.959 62.105-16.789 64.078a8.139 8.139 0 0 0 14.452 4.393c.12-.15 12.329-15.121 34.12-22.033 9.555-3.027 17.121-9.155 22.18-17.867 11.228.885 22.039 1.349 32.39 1.349 40.598 0 74.367-6.804 100.686-20.327a8.139 8.139 0 0 0-7.439-14.476c-29.423 15.118-69.71 21.019-119.817 17.577 1.179-6.023 1.093-10.551 1.069-11.269a8.045 8.045 0 0 0-.19-1.427c.101-.47.175-.947.191-1.439.003-.09.01-.36.01-.775 35.799-6.848 53.644-28.313 62.478-49.314a100.068 100.068 0 0 0 18.612 13.544c12.09 6.835 29.965 13.562 53.473 13.562 3.807 0 7.766-.179 11.869-.561a99.536 99.536 0 0 1-9.669 8.64 8.138 8.138 0 0 0 10.033 12.817c10.388-8.131 19.144-17.781 26.023-28.683 16.805-26.623 18.934-54.782 18.569-70.118 8.549 1.344 17.083 1.883 25.167 1.883 17.197 0 32.349-2.351 41.294-4.112l1.624 8.121a8.142 8.142 0 0 0 9.577 6.385 8.137 8.137 0 0 0 6.384-9.575l-1.484-7.42c3.666.104 7.444.829 9.451 2.835a8.138 8.138 0 0 0 11.509 0 8.138 8.138 0 0 0-.004-11.506zm-356.118 70.888c6.844 5.019 15.981 10.352 27.212 13.909 9.535 3.024 14.021 10.592 16.096 17.82a8.113 8.113 0 0 0-1.105 2.882c-10.455-2.324-19.77-1.982-27.824 1.012-9.406-7.349-13.158-22.609-14.379-35.623zm42.02 61.634c-3.021 7.304-7.863 11.924-14.807 14.124-11.23 3.562-20.367 8.895-27.211 13.912 1.348-14.362 5.779-31.457 17.495-37.649 3.335-1.771 7.253-2.656 11.725-2.656 4.545 0 9.663.915 15.323 2.743-.377 2.679-1.107 6.087-2.525 9.526zm276.453-187.888c-17.518.8-43.231 3.762-58.351 13.753-9.709-8.221-18.033-16.222-23.642-21.851 7.976-4.553 14.958-10.607 20.869-18.098 10.285.924 38.749 5.334 61.124 26.196zm-208.895-81.039a8.141 8.141 0 0 0-7.891-6.154c-1.885 0-3.74.655-5.226 1.899-1.289 1.08-2.624 1.628-3.965 1.628-4.47 0-9.451-6.461-9.451-15.733s4.98-15.733 9.451-15.733c1.068 0 2.148.359 3.214 1.067a8.14 8.14 0 0 0 5.753 1.477c.57-.071 14.112-1.825 27.552-11.353 10.538-7.47 22.791-21.03 26.291-44.661 19.713 11.142 61.564 31.722 104.502 33.549.949 4.195 1.686 8.589 2.233 13.145a27.782 27.782 0 0 0-7.801-1.115c-7.391 0-14.34 2.879-19.565 8.104a8.137 8.137 0 0 0 5.754 13.893 8.11 8.11 0 0 0 5.754-2.384 11.32 11.32 0 0 1 8.059-3.338c3.041 0 5.898 1.184 8.043 3.333.277.277.573.521.876.749v.011c0 13.908-1.596 26.667-4.745 37.926-2.739 9.814-6.648 18.386-11.623 25.483-6.919 9.89-15.936 16.932-26.812 20.938-7.309 2.709-15.597 4.082-24.634 4.082-19.5 0-37.978-6.213-53.439-17.969-15.984-12.146-27.466-29.493-32.33-48.844zm112.383 208.429c-49.235 10.949-77.959-10.295-89.273-21.646 9.379-9.087 14.276-25.549 16.59-39.729a28.323 28.323 0 0 0 15.64 4.702c11.863 0 22.311-7.479 26.384-18.277h5.116c2.677 11.56 12.519 20.642 24.955 21.755.837.076 1.67.113 2.503.113 4.353 0 8.611-1.026 12.454-2.911.028 12.992-2.11 35.005-14.369 55.993zm-68.996-84.694c0-.483.015-.87.054-1.271.159-1.79.742-3.115 3.142-4.183 2.011-.894 4.786-1.357 8.019-1.357 1.094 0 2.238.053 3.424.161 5.273.471 7.335 1.684 8.094 2.364.357.32 1.443 1.293 1.094 5.16-.591 6.555-6.397 11.414-12.945 10.824-6.152-.56-10.831-5.618-10.882-11.698zm59.046 2.339c.42-4.649 6.424-5.561 11.061-5.561 1.348 0 2.58.077 3.526.162 9.791.886 9.529 3.825 9.197 7.533a11.815 11.815 0 0 1-2.175 5.878c-2.5 3.476-6.52 5.321-10.793 4.938-6.55-.586-11.402-6.399-10.816-12.95zm39.461 7.026c.244-1.13.427-2.274.533-3.432.764-8.535-1.332-23.157-23.948-25.203-15.047-1.345-25.987 3.431-30.317 12.738h-5.329c-1.175-4.706-3.61-7.866-5.853-9.876-4.079-3.654-9.804-5.766-17.498-6.454-5.235-.474-12.872-.418-19.516 2.537-6.457 2.872-10.702 7.913-12.212 14.343-4.622 4.095-10.436 7.776-17.291 10.945-15.286 7.078-33.481 10.627-48.931 12.388 17.228-11.086 32.199-23.661 44.727-37.59 13.072-14.522 20.665-27.461 24.765-35.854 16.418 10.123 35.141 15.446 54.741 15.446 8.899 0 17.271-1.147 24.982-3.374 5.9 6.15 18.77 19.062 34.603 31.915 12.258 9.945 23.682 17.749 34.222 23.387-11.533.723-24.771.528-37.678-1.916z"/><path d="M368.06 12.394C342.104 2.341 315.209-1.716 290.282.662c-25.301 2.413-47.512 11.532-64.679 26.482-19.862-12.117-45.523-9.623-62.975 6.304-15.801 14.412-33.62 41.745-31.324 90.977-49.779 9.117-68.344 37.653-74.14 49.932-8.951 18.965-8.217 39.314 2.015 55.828a54.698 54.698 0 0 0 2.293 3.382c14.149 23.543 51.826 66.403 112.265 66.403 1.567 0 3.154-.027 4.755-.081a8.137 8.137 0 0 0 7.854-8.411c-.153-4.491-3.933-8.006-8.411-7.855-33.188 1.136-58.035-11.469-75.279-25.576a51.34 51.34 0 0 0 6.471.417c10.337 0 20.365-3.187 29.108-9.603 20.691-15.184 28.169-43.927 18.647-71.592-4.667-16.638-7.647-32.335-8.861-46.657v-.001c-4.023-47.416 11.687-72.469 25.577-85.139 12.386-11.303 30.693-12.868 44.51-3.813 1.747 1.149 2.692 1.975 2.693 1.975a8.136 8.136 0 0 0 11.244-.253c15.054-15.054 35.727-24.223 59.783-26.517 22.423-2.137 46.748 1.565 70.353 10.707a8.138 8.138 0 0 0 5.879-15.177zM128.605 235.737c-13.008 9.546-29.892 8.464-45.166-2.894-4.265-3.169-7.773-6.947-10.425-11.23-7.272-11.736-7.684-26.429-1.133-40.31 4.645-9.841 19.612-32.555 60.844-40.584 1.631 12.953 4.497 26.765 8.553 41.183.044.158.093.315.148.47 6.062 17.431 4.45 40.692-12.821 53.365zm206.081-30.077a8.136 8.136 0 0 0-11.508 0c-4.443 4.442-11.672 4.442-16.113 0a8.138 8.138 0 0 0-11.508 0 8.136 8.136 0 0 0-.001 11.508c5.395 5.395 12.479 8.091 19.564 8.091 7.084 0 14.172-2.697 19.564-8.091a8.135 8.135 0 0 0 .002-11.508z"/></svg>