<svg xmlns="http://www.w3.org/2000/svg" viewBox="0 0 512 512"><path d="M312.071 162.016a8.19 8.19 0 0 0-11.499 1.385 11.385 11.385 0 0 1-7.647 4.302 11.398 11.398 0 0 1-8.45-2.366 8.19 8.19 0 0 0-10.115 12.882c4.954 3.891 10.94 5.949 17.141 5.949 1.12 0 2.25-.068 3.382-.203 7.384-.89 13.98-4.6 18.573-10.451a8.19 8.19 0 0 0-1.385-11.498zm51.1 45.736a43.803 43.803 0 0 0-2.567-1.853l.067-.151a8.189 8.189 0 1 0-14.98-6.621l-.153.346a43.706 43.706 0 0 0-26.885 2.804l-1.797-2.472a8.189 8.189 0 1 0-13.246 9.633l1.609 2.213a43.95 43.95 0 0 0-3.003 3.434 8.188 8.188 0 0 0 1.383 11.498 8.152 8.152 0 0 0 5.052 1.749 8.171 8.171 0 0 0 6.447-3.132c9.208-11.724 26.235-13.773 37.959-4.566 3.559 2.793 8.707 2.175 11.498-1.383a8.19 8.19 0 0 0-1.384-11.499z"/><path d="M409.14 228.722c-.201-.751-4.772-17.488-18.229-32.483.877-7.02 1.329-14.375 1.329-22.029 0-18.888-2.667-35.766-7.799-50.229 5.906-14.043 26.415-69.529-3.537-100.49C354.291-4.021 267.453-6.063 213.303 10.589a8.19 8.19 0 0 0 4.814 15.656c25.125-7.725 58.174-11.273 88.401-9.481 29.95 1.772 53.356 8.544 62.616 18.115 7.242 7.486 14.771 22.496 9.517 51.486-1.126 6.21-2.664 12.045-4.215 17.07-2.894-4.443-6.115-8.524-9.685-12.183-8.501-8.714-21.634-11.39-32.675-6.664-11.024 4.719-17.333 13.268-20.932 21.136-7.423-7.137-16.711-11.889-27.488-13.979-28.692-5.566-57.912 9.589-71.039 36.855a104.578 104.578 0 0 0-6.369 16.782 21.228 21.228 0 0 0-2.141-.109c-5.833 0-11.155 2.289-15.438 6.193-4.023-9.004-9.192-21.847-13.031-35.835-11.396-41.52-2.788-61.237 6.441-70.465 3.965-3.966 9.37-7.689 16.066-11.066a8.188 8.188 0 0 0 3.623-11 8.189 8.189 0 0 0-11-3.623c-8.253 4.162-15.073 8.909-20.271 14.108-38.121 38.122.071 119.174 8.521 135.788a40.526 40.526 0 0 0-.472 2.918c-7.919 4.374-24.169 15.105-34.875 34.138a8.19 8.19 0 0 0 2.674 10.881l21.037 13.674a8.185 8.185 0 0 0 11.33-2.404 8.189 8.189 0 0 0-2.402-11.329l-14.214-9.239c5.859-8.032 12.793-13.802 18.243-17.557 3.938 11.425 12.982 19.24 23.767 19.24 1.391 0 2.768-.134 4.121-.399 14.054 39.988 50.841 67.728 93.461 70.098l8.455 24.848-117.326-76.261a8.19 8.19 0 0 0-8.926 13.733l20.622 13.405c-10.241 27.765-20.054 68.554-14.516 114.991 4.899 41.119-3.998 77.89-24.412 100.881-14.305 16.111-33.258 24.627-54.81 24.627-4.524 0-8.189 3.667-8.189 8.189S106.25 512 110.774 512h201.624c28.968 0 52.3-22.681 53.119-51.634l2.543-89.282a8.19 8.19 0 0 0-7.953-8.419 8.167 8.167 0 0 0-8.42 7.954l-2.543 89.283c-.433 15.324-9.988 28.098-23.425 33.259 5.024-7.161 7.985-15.87 7.985-25.263V326.915l19.927-24.526-1.228 43.135a8.19 8.19 0 0 0 16.373.465l1.837-64.501 36.966-45.496a8.182 8.182 0 0 0 1.561-7.27zm-101.523 34.479c-40.874.002-76.366-27.648-86.311-67.236a8.194 8.194 0 0 0-7.941-6.195 8.194 8.194 0 0 0-5.249 1.902c-1.308 1.092-2.658 1.646-4.008 1.646-4.495 0-9.505-6.502-9.505-15.833s5.01-15.833 9.505-15.833c1.12 0 2.253.39 3.361 1.159a8.19 8.19 0 0 0 12.709-5.214 88.126 88.126 0 0 1 7.198-21.891c9.901-20.565 31.758-32.033 53.163-27.881 12.167 2.36 20.948 8.857 26.843 19.861a8.18 8.18 0 0 0 8.913 4.124c3.562-.752 6.201-3.787 6.475-7.416.014-.186 1.57-18.679 15.752-24.75 4.866-2.084 10.697-.862 14.505 3.043 12.281 12.59 19.79 31.552 22.078 55.383-.043.048-.09.092-.132.141a11.392 11.392 0 0 1-7.8 4.022 11.378 11.378 0 0 1-8.358-2.672 8.188 8.188 0 0 0-11.541.963 8.19 8.19 0 0 0 .963 11.542c5.073 4.291 11.367 6.588 17.936 6.588a27.922 27.922 0 0 0 9.666-1.712c-.469 28.023-8.637 86.259-68.222 86.259zm9.712 204.697c0 15.287-12.437 27.723-27.724 27.723h-126.92c5.421-3.91 10.487-8.502 15.148-13.752 23.866-26.88 33.963-67.258 28.428-113.696-4.932-41.36 3.252-78.027 12.357-103.883l98.709 64.161v139.447zm11.173-160.55l-9.665-28.404c22.663-2.612 41.123-13.293 53.818-31.297 5.959-8.452 10.593-18.482 13.865-29.78a75.286 75.286 0 0 1 5.5 11.306l-63.518 78.175z"/><path d="M294.365 334.116c-5.224 4.995-1.524 14.094 5.677 14.094 4.208 0 7.807-3.326 8.161-7.509.621-7.36-8.519-11.669-13.838-6.585zm.372 72.026c-2.561 2.16-3.549 5.848-2.408 9.001 1.164 3.217 4.287 5.429 7.712 5.429 4.157 0 7.735-3.254 8.149-7.387.719-7.177-7.963-11.674-13.453-7.043zm.26-36.397c-2.867 2.221-3.914 6.252-2.523 9.596 1.259 3.025 4.291 5.056 7.568 5.056 4.093 0 7.602-3.152 8.123-7.189.918-7.116-7.562-11.806-13.168-7.463zm8.544 71.421c-2.978-1.408-6.624-.854-9.053 1.374-5.378 4.931-1.716 14.219 5.556 14.219 4.156 0 7.734-3.269 8.149-7.392.34-3.403-1.567-6.743-4.652-8.201z"/></svg>