<svg xmlns="http://www.w3.org/2000/svg" viewBox="0 0 512 512"><path d="M314.358 278.723a8.364 8.364 0 0 0-10.146-6.087c-22.99 5.746-63.188-5.141-63.592-5.252a8.366 8.366 0 0 0-4.434 16.134c1.409.387 27.561 7.48 51.944 7.48 7.079 0 14.009-.598 20.141-2.131a8.364 8.364 0 0 0 6.087-10.144z"/><path d="M265.745 256.229c-5.969 4.862-2.364 14.829 5.304 14.829 3.862 0 7.309-2.76 8.155-6.527 1.711-7.621-7.433-13.21-13.459-8.302zm2.683-169.133a8.366 8.366 0 0 0-8.366 8.366v13.854a8.366 8.366 0 1 0 16.732 0V95.462a8.365 8.365 0 0 0-8.366-8.366zm55.93-4.351a8.366 8.366 0 0 0-8.366 8.366v12.627a8.366 8.366 0 1 0 16.732 0V91.111a8.366 8.366 0 0 0-8.366-8.366z"/><path d="M381.339 268.797c16.552-39.36-20.768-82.906-34.165-96.782 7.154-15.81 10.884-35.206 10.884-57.062C358.058 57.734 332.529 0 275.496 0c-8.633 0-17.109.703-25.194 2.09a8.367 8.367 0 0 0 2.829 16.491c7.154-1.228 14.677-1.849 22.365-1.849 21.041 0 37.681 9.987 49.455 29.683 10.559 17.663 16.375 42.004 16.375 68.538 0 4.899-.232 11.031-1.009 17.749a53.706 53.706 0 0 1-4.384 3.538v-.711a8.366 8.366 0 1 0-16.732 0v9.08c-10.658 3.431-23.191 4.585-37.541 3.39a145.3 145.3 0 0 1-9.197-1.07v-6.193a8.366 8.366 0 1 0-16.732 0v2.803c-7.229-1.855-11.766-3.536-11.852-3.568a8.366 8.366 0 1 0-5.901 15.657c.757.286 18.818 7.025 41.861 9.01 4.164.358 8.222.537 12.178.537 16.484 0 31.089-3.11 43.368-9.171-7.494 23.038-24.044 44.921-59.889 44.921-39.485 0-73.772-26.71-83.379-64.953a8.37 8.37 0 0 0-5.526-5.918 8.358 8.358 0 0 0-7.949 1.534c-1.192.995-2.412 1.5-3.624 1.5-4.16 0-8.81-6.395-8.811-14.851l.306-25.29 10.394 10.338a8.366 8.366 0 0 0 14.234-6.649c-3.073-35.665 10.635-59.933 40.745-72.132a8.366 8.366 0 0 0 4.612-10.895 8.365 8.365 0 0 0-10.895-4.612c-30.398 12.315-48.076 36.182-51.124 68.277l-10.194-10.138a8.365 8.365 0 0 0-14.264 5.83l-.544 45.169c0 17.767 11.219 31.685 25.542 31.685 1.257 0 2.502-.11 3.727-.328a102.234 102.234 0 0 0 21.86 35.805c-8.121 3.962-16.248 8.795-23.969 14.316a8.365 8.365 0 0 0 4.873 15.171 8.33 8.33 0 0 0 4.859-1.562c8.86-6.336 18.624-11.851 27.883-15.782 17.242 12.791 38.517 20.215 61.245 20.215 26.818 0 48.55-10.54 62.936-30.46 4.867 5.373 11.468 13.346 17.298 22.729 6.702 10.79 10.809 20.773 12.339 29.896a8.031 8.031 0 0 0-5.948 1.414c-2.84 2.017-4.115 5.691-3.199 9.039.978 3.575 4.344 6.141 8.056 6.141.279 0 .553-.018.825-.046a36.14 36.14 0 0 1-2.318 6.85l-9.496 5.683a8.366 8.366 0 0 0 8.593 14.357l4.094-2.451c2.778 5.604 6.576 13.937 9.91 23.602 1.765 5.114 3.504 10.934 4.85 17.06-8.75 6.671-19.613 11.804-32.37 15.286a8.366 8.366 0 1 0 4.405 16.14c11.397-3.111 21.572-7.425 30.425-12.869.23 7.046-.475 13.994-2.636 20.3-3.823 11.156-11.664 18.992-23.975 23.956-1.957.79-3.98 1.542-6.051 2.263l-.067.022c-27.573 9.587-64.754 13.106-96.978 8.969l-30.062-7.13a8.367 8.367 0 0 0-10.07 6.209 8.365 8.365 0 0 0 6.209 10.07l24.438 5.796 1.186 22.431v.002l-33.705.001c.123-.377.21-.614.237-.682 1.224-3.1.49-6.63-1.866-8.986-5.814-5.814-10.724-28.542-12.405-43.072a8.39 8.39 0 0 0-3.09-5.928c-.045-.04-.084-.086-.133-.124-12.281-9.548-19.285-21.699-20.934-36.214 22.663 6.962 75.405 21.232 126.951 21.232 7.229 0 14.439-.281 21.535-.902a8.365 8.365 0 1 0-1.46-16.667c-58.021 5.076-126.358-14.676-146.802-21.15a266.815 266.815 0 0 1 7.745-44.563c7.33-7.16 14.811-13.093 22.266-17.619a8.367 8.367 0 0 0-8.683-14.303c-9.149 5.554-18.243 12.847-27.03 21.674-16.106 16.177-32.499 38.719-43.988 55.728 2.683-37.254 16.823-68.58 42.214-93.381a8.366 8.366 0 0 0 .139-11.831 8.366 8.366 0 0 0-11.831-.139c-24.163 23.603-51.962 66.061-47.167 134.296a8.33 8.33 0 0 0 1.36 3.986c2.539 5.789 8.317 9.847 15.033 9.847 9.05 0 16.413-7.363 16.413-16.413 0-4.847-2.124-9.195-5.475-12.202 6.489-9.783 15.107-22.217 24.452-34.189a281.284 281.284 0 0 0-2.628 24.49c-1.493 23.783 7.098 44.2 24.864 59.28 1.31 9.875 5.161 33.264 13.483 45.83-2.098 8.349-4.753 26.579 4.071 47.665v25.053a8.367 8.367 0 0 0 8.366 8.366h56.765a8.366 8.366 0 0 0 8.366-8.366c0-14.257-8.54-26.549-20.769-32.053l9.02-28.559a31.104 31.104 0 0 0 1.397-10.996l-.998-18.872c8.852.753 17.885 1.01 26.9.79 2.185 7.209 4.637 12.852 7.412 17-2.096 8.36-4.735 26.567 4.073 47.624v25.067a8.366 8.366 0 0 0 8.366 8.366h56.765a8.366 8.366 0 0 0 8.366-8.366c0-14.259-8.542-26.553-20.774-32.055l9.01-28.525a30.87 30.87 0 0 0 1.413-10.898l-.75-31.911c.383-.151.783-.29 1.162-.443 16.846-6.791 28.132-18.247 33.545-34.05 12.264-35.792-10.386-83.074-17.753-96.953zM212.016 449.65h31.549l-5.953 18.847h-22.119c-2.446-6.976-3.348-13.402-3.477-18.847zm44.192 45.618h-38.02v-10.039h21.628c7.138 0 13.34 4.085 16.392 10.039zm51.554-82.346c13.96-1.284 27.554-3.689 40.016-7.154l.631 26.895c.002.083.006.165.01.248v.007h-33.694c.124-.377.21-.613.237-.682 1.224-3.1.49-6.63-1.866-8.986-.926-.926-2.945-3.567-5.334-10.328zm4.791 36.728h31.538l-5.952 18.847h-22.107c-2.447-6.976-3.35-13.402-3.479-18.847zm44.187 45.618h-38.02v-10.039h21.628c7.138 0 13.34 4.085 16.392 10.039z"/></svg>