<svg xmlns="http://www.w3.org/2000/svg" viewBox="0 0 512.002 512.002"><path d="M202.62 140.902a8.177 8.177 0 0 0-8.177 8.177v13.365a8.177 8.177 0 0 0 16.354 0v-13.365a8.178 8.178 0 0 0-8.177-8.177zm56.21-3.898a8.177 8.177 0 0 0-8.177 8.177v13.365a8.177 8.177 0 0 0 16.354 0V145.18a8.177 8.177 0 0 0-8.177-8.176zm1.49 43.499a8.178 8.178 0 0 0-11.513 1.085 21.938 21.938 0 0 1-14.937 7.903c-5.871.556-11.607-1.213-16.15-4.975a8.177 8.177 0 1 0-10.428 12.598c6.957 5.76 15.521 8.832 24.44 8.832 1.218 0 2.444-.058 3.672-.173 10.221-.963 19.455-5.848 26.002-13.755a8.18 8.18 0 0 0-1.086-11.515zM215.985 77.972a8.177 8.177 0 0 0-8.177 8.177v13.365a8.177 8.177 0 0 0 16.354 0V86.149a8.178 8.178 0 0 0-8.177-8.177zm6.126 275.109h-21.162a8.177 8.177 0 0 0 0 16.354h21.162a8.177 8.177 0 0 0 0-16.354zm-27.52-52.588c-2.759-2.37-6.844-2.623-9.873-.609-3.231 2.149-4.45 6.338-3.02 9.921 1.274 3.078 4.418 5.138 7.756 5.053 3.334-.085 6.383-2.283 7.495-5.425 1.116-3.151.18-6.76-2.358-8.94z"/><path d="M452.78 229.34c4.394-4.049 7.166-9.832 7.166-16.263v-.604c0-12.211-9.934-22.145-22.146-22.145h-.706c-3.971-27.054-27.328-47.894-55.468-47.894s-51.497 20.839-55.468 47.894h-.698c-12.211 0-22.145 9.934-22.145 22.145v.604c0 6.429 2.77 12.208 7.16 16.258a78.95 78.95 0 0 0-7.753 34.128c0 31.045 18.453 52.902 49.732 60.98-.529.474-1.054.948-1.574 1.418-7.888 7.126-15.34 13.856-26.857 13.856-20.732 0-35.521-21.264-39.017-26.8-2.019-20.295-5.27-39.193-10.434-51.943 11.891-26.369 23.769-59.911 23.769-88.706 0-6.63-.349-13.104-1.007-19.354 32.338-8.829 34.35-26.686 33.586-34.334-1.355-13.56-13.694-25.015-26.944-25.015-6.467 0-15.119 1.88-24.744 4.451-24.056-44.517-23.889-80.424-23.885-80.779a8.177 8.177 0 0 0-4.889-7.633C232.756 1.833 212.883-1.244 191.394.452a8.175 8.175 0 0 0-7.507 8.795c.357 4.503 4.301 7.868 8.795 7.507 16.86-1.333 32.478.655 46.502 5.912.466 7.324 2.05 21.173 7.298 38.943-1.112.249-2.24.476-3.383.692l-.056-.48c-.484-4.214-4.099-7.343-8.35-7.24l-40.097 1.113c-3.629.1-6.656 2.563-7.621 5.904a254.003 254.003 0 0 1-33.387-8.003l6.997-30.354a119.951 119.951 0 0 1 6.046-1.857 8.177 8.177 0 0 0-4.396-15.752c-7.217 2.015-11.598 3.837-11.781 3.913a8.18 8.18 0 0 0-4.811 5.706l-17.527 76.033c-11.455 1.201-20.999 4.477-27.242 7.17-7.876 3.399-13.452 10.571-14.554 18.716-1.055 7.81 1.28 17.995 15.723 26.259-5.662 1.234-10.885 4.722-14.774 9.999-4.438 6.024-6.883 13.9-6.883 22.177s2.444 16.153 6.883 22.177c4.919 6.675 11.971 10.503 19.348 10.503 1.087 0 2.166-.081 3.231-.241a99.561 99.561 0 0 0 5.826 17.383c-2.238 6.622-7.42 22.772-12.883 45.528a92.349 92.349 0 0 0-16.458 12.911c-32.096 31.604-36.45 80.373-34.449 115.72a8.175 8.175 0 0 0 8.626 7.701 8.175 8.175 0 0 0 7.701-8.626c-2.566-45.348 7.427-80.774 28.899-102.449.059-.06.119-.116.178-.174-6.448 32.37-12.002 72.889-12.002 116.451a8.177 8.177 0 0 0 6.146 7.921c.839.216 6.149 1.546 15.016 3.235v38.41a8.177 8.177 0 0 0 8.177 8.177h21.896v33.591a8.177 8.177 0 0 0 8.177 8.177h17.821a8.177 8.177 0 0 0 0-16.354h-9.644v-25.414h19.112a8.177 8.177 0 0 0 8.177-8.177v-30.313c4.987.182 10.122.297 15.39.331v29.982a8.177 8.177 0 0 0 8.177 8.177h21.895v33.591a8.177 8.177 0 0 0 8.177 8.177h17.821a8.177 8.177 0 0 0 0-16.354h-9.644v-25.414h19.112a8.177 8.177 0 0 0 8.177-8.177v-35.138a426.502 426.502 0 0 0 11.648-1.923 8.177 8.177 0 0 0 6.725-7.745c.099-2.685 1.353-38.472-.608-76.77 9.105 8.157 21.609 15.588 36.989 15.588 17.81 0 28.904-10.021 37.819-18.074 8.514-7.69 12.212-10.44 17.309-8.823 3.989 1.267 7.555 2.877 10.6 4.786a8.175 8.175 0 0 0 11.271-2.584 8.123 8.123 0 0 0 1.203-5.135c20.892-3.507 37.325-12.553 47.31-26.335a8.177 8.177 0 0 0-1.825-11.419 8.176 8.176 0 0 0-11.419 1.825c-9.914 13.685-29.328 21.221-54.665 21.221-56.455 0-62.55-33.616-62.55-48.07 0-9.85 2.317-19.523 6.723-28.24h111.652a62.575 62.575 0 0 1 6.723 28.24 57.09 57.09 0 0 1-.59 8.334 8.178 8.178 0 0 0 16.178 2.394c.508-3.435.765-7.044.765-10.727a78.906 78.906 0 0 0-7.747-34.12zM303.975 109.918c4.341 0 10.118 4.748 10.672 10.289.649 6.496-6.814 12.517-19.903 16.435-1.854-8.586-4.394-16.549-7.643-23.777 6.846-1.736 12.863-2.947 16.874-2.947zm-52.25-32.744a233.701 233.701 0 0 0 11.399 25.386c-4.893 1.412-9.965 2.864-14.919 4.179l-3.236-28.155c2.3-.412 4.551-.883 6.756-1.41zm-48.933-5.342l24.858-.69.171 1.473v.007l.001.007 4.34 37.77c-3.561.616-6.795.989-9.496.989-8.074 0-14.148-.88-20.842-2.715l.968-36.841zm-52.891-2.241a266.91 266.91 0 0 0 36.369 8.468l-.662 25.195c-1.138-.415-2.308-.843-3.533-1.292-5.451-1.996-11.631-4.257-19.115-6.838a78.498 78.498 0 0 0-18.041-3.92l4.982-21.613zm-43.28 122.344c-4.673.001-9.879-6.705-9.879-16.326s5.206-16.327 9.879-16.327c.057 0 .112.013.169.014l.957 32.513c-.374.08-.75.126-1.126.126zm6.607-61.123c-5.593-2.649-11.355-6.597-10.7-11.448.337-2.493 2.187-4.75 4.828-5.891 3.767-1.626 10.487-4.096 18.875-5.388a107.583 107.583 0 0 0-13.003 22.727zm3.973 150.864c7.602-3.754 13.078-4.769 13.255-4.8a8.177 8.177 0 0 0-2.653-16.135c-.269.044-2.425.412-5.845 1.458a579.506 579.506 0 0 1 4.855-17.51c6.542 8.999 14.689 17.382 24.432 25.105a8.146 8.146 0 0 0 5.074 1.769 8.178 8.178 0 0 0 5.085-14.586c-21.587-17.108-34.088-37.698-37.178-61.197l-1.217-41.294a90.33 90.33 0 0 1 2.723-10.465c4.403-13.488 11.996-25.831 22.044-35.923a60.669 60.669 0 0 1 9.852 2.489c.542.186 1.064.369 1.593.553-6.546 19.075-19.627 67.129 2.291 96.815 12.95 17.546 27.63 27.258 43.63 28.866 1.572.158 3.11.231 4.614.231 12.487 0 22.486-5.063 28.053-8.696 5.608 2.61 15.084 5.711 25.785 3.708a37.852 37.852 0 0 0 5.775-1.574c-10.171 27.568-23.708 52.285-29.581 62.491-10.84-2.573-35.99-9.557-60.052-23.576a8.175 8.175 0 0 0-11.181 2.949 8.177 8.177 0 0 0 2.949 11.181c12.513 7.29 25.14 12.781 36.207 16.834l-.185 24.867h-31.635a8.177 8.177 0 0 0-8.177 8.177v6.532c-10.942.024-32.891-.89-60.068-7.046a652.463 652.463 0 0 1 9.555-51.223zm138.146 58.228v-6.49a8.177 8.177 0 0 0-8.177-8.177h-23.294l.145-19.498c10.624 3.105 17.704 4.417 18.351 4.533a8.18 8.18 0 0 0 8.418-3.757c.65-1.055 6.2-10.139 13.291-23.864 2.135 9.588 3.694 20.914 4.828 32.853a8.165 8.165 0 0 0 .168 1.791c.666 7.325 1.175 14.858 1.561 22.343-6.725.345-11.958.341-15.291.266zm15.956 16.078c.125 4.116.22 8.154.288 12.073-7.185.397-12.751.395-16.243.316v-12.106h.001c1.125.023 2.415.038 3.862.038 3.266.001 7.339-.08 12.092-.321zm-32.308-14.393v39.337h-54.93v-39.337h54.93zm-133.494 7.592c27.495 6.098 49.704 7.131 61.588 7.131l.622-.001v12.103c-11.395.024-34.726-.974-63.442-7.834.379-3.848.789-7.649 1.232-11.399zm58.312 104.7h-41.008v-27.452c11.261 1.701 25.154 3.375 41.008 4.458v22.994zm43.04-38.304c-50.286.75-90.344-6.481-105.167-9.609.132-9.811.556-19.467 1.206-28.908 28.682 6.621 51.923 7.721 64.186 7.721l.633-.001v4.322a8.177 8.177 0 0 0 8.177 8.177h31.101l-.136 18.298zm46.064 38.304H211.91v-21.963a472.954 472.954 0 0 0 41.007-2.836v24.799zm18.567-43.862c-16.588 2.698-32.806 4.269-48.272 5.034l.132-17.774h23.828a8.177 8.177 0 0 0 8.177-8.177v-4.369c1.115.023 2.394.038 3.827.038 3.373 0 7.611-.086 12.57-.348.017 10.883-.131 19.898-.262 25.596zm-16.721-193.735c-7.315-.56-12.94-4.302-12.95-4.309a8.18 8.18 0 0 0-10.147.647c-.104.094-10.786 9.343-24.888 7.925-11.213-1.127-22.015-8.631-32.108-22.306-11.037-14.949-9.915-37.872-7.029-54.47 1.917-11.027 4.86-20.818 7-27.113l1.811.663c18.35 6.718 28.458 10.418 46.215 10.418 12.192 0 29.461-4.985 46.163-9.805l2.26-.652c4.286 8.811 7.365 19.058 9.132 30.601 1.172 7.683 1.766 15.887 1.766 24.384 0 9.876-1.634 20.532-4.268 31.315-6.502 9.088-14.223 13.365-22.957 12.702zm126.863-57.496c19.098 0 35.086 13.55 38.867 31.54H342.76c3.78-17.991 19.769-31.54 38.866-31.54zm61.966 54.288a5.798 5.798 0 0 1-5.792 5.791H325.46a5.798 5.798 0 0 1-5.791-5.791v-.604a5.798 5.798 0 0 1 5.791-5.791H437.8a5.799 5.799 0 0 1 5.792 5.791v.604z"/></svg>