<svg xmlns="http://www.w3.org/2000/svg" viewBox="0 0 512.004 512.004"><path d="M326.462 187.158a7.97 7.97 0 0 0-11.272 0c-4.351 4.352-11.429 4.35-15.78 0-3.114-3.113-8.159-3.113-11.272 0s-3.113 8.159 0 11.271c5.284 5.283 12.223 7.924 19.162 7.924 6.938 0 13.878-2.642 19.161-7.924a7.968 7.968 0 0 0 .001-11.271z"/><path d="M391.663 78.836c11.206-1.075 23.907-2.293 30.036-17.14a7.97 7.97 0 1 0-14.734-6.082c-2.225 5.391-5.374 6.257-16.824 7.355-10.109.969-23.778 2.289-36.876 13.144a75.586 75.586 0 0 0-5.273-6.356c4.505-7.703 10.733-21.423 6.657-33.242-2.137-6.194-5.642-10.16-8.457-13.347-4.073-4.611-5.041-5.707-2.423-12.226a7.97 7.97 0 1 0-14.792-5.94c-6.282 15.646.394 23.202 5.271 28.721 2.268 2.567 4.227 4.784 5.334 7.991 1.573 4.561-.992 11.707-3.966 17.445a70.613 70.613 0 0 0-14.426-7.42c-6.489-15.204-14.179-24.604-22.975-28.025-6.563-2.551-12.507-3.642-17.282-4.517-3.912-.717-7.604-1.394-9.043-2.506-1.338-1.034-1.537-4.706-1.537-6.801 0-4.402-3.567-7.97-7.97-7.97s-7.97 3.568-7.97 7.97c0 20.651 13.11 23.055 23.644 24.987 4.326.794 9.23 1.693 14.38 3.696 2.383.927 5.297 3.619 8.411 8.471a95.968 95.968 0 0 0-9.773-.49c-1.999 0-3.982.079-5.957.192-7.37-7.367-15.859-12.937-25.26-14.264-9.296-1.308-18.156 1.565-26.385 8.544a32.245 32.245 0 0 0-10.96.38c-9.109 1.884-16.805 8.008-23.91 15.503-7.884-1.347-16.109-.811-24.534 1.655-10.978 3.212-19.344 2.921-23.556-.819-3.057-2.714-4.295-7.832-3.313-13.69 1.109-6.612-.715-13.311-5.005-18.38-4.202-4.965-10.347-7.813-16.894-7.813-4.403 0-7.952 3.568-7.952 7.97 0 4.402 3.584 7.97 7.987 7.97 2.486 0 4.007 1.359 4.693 2.17 1.255 1.482 1.785 3.469 1.453 5.447-1.924 11.475 1.156 21.77 8.45 28.246 5.989 5.318 17.549 10.363 38.616 4.198a42.318 42.318 0 0 1 6.744-1.404c-8.866 10.732-17.991 21.071-27.136 21.517-5.51.266-11.8-3.103-18.717-10.02a7.97 7.97 0 0 0-11.272 0 7.969 7.969 0 0 0 0 11.271c9.883 9.883 19.483 14.705 29.297 14.705a30.255 30.255 0 0 0 7.761-1.017c-1.466 13.35.463 27.017 1.419 32.54-.966 3.362-1.491 7.007-1.491 10.833 0 .131.012.256.013.386v.078l.006.125c.012.824.04 1.641.1 2.446.333 12.639-1.639 35.129-9.728 44.369-1.063-4.679-1.998-9.873-2.948-15.522-3.222-19.178-6.875-40.914-26.232-40.914a7.969 7.969 0 0 0-7.97 7.97 7.969 7.969 0 0 0 7.97 7.97c5.45 0 7.795 11.446 10.513 27.616.842 5.008 1.759 10.442 3.002 15.885-2.818-.929-5.915-2.386-9.296-4.393-6.869-4.076-14.595-6.025-22.354-5.64l-10.955.548a7.97 7.97 0 0 0-7.561 8.358 7.953 7.953 0 0 0 8.358 7.562l10.954-.548c4.627-.232 9.257.954 13.423 3.427 8.338 4.949 16.008 7.563 22.956 7.841 5.119 11.266 13.36 20.272 27.742 22.164 1.31.172 2.608.258 3.894.258 6.666 0 12.993-2.315 18.852-6.907 5.87-4.601 11.253-11.584 16.119-20.883a102.359 102.359 0 0 0 15.51 15.141c-5.948 4.645-12.439 11.083-18.276 18.349a7.97 7.97 0 0 0 1.221 11.205 7.934 7.934 0 0 0 4.986 1.758 7.956 7.956 0 0 0 6.219-2.979c4.178-5.202 8.185-9.293 11.654-12.405l-2.017 32.645c-17.256 15.279-28.796 41.072-35.86 62.119-1.728-27.844 6.263-49.971 14.636-65.09a7.968 7.968 0 0 0-3.11-10.833 7.968 7.968 0 0 0-10.833 3.11c-12.982 23.435-25.173 61.667-9.539 110.715a7.984 7.984 0 0 0 8.094 5.534 7.972 7.972 0 0 0 7.336-6.507c.109-.591 10.163-53.73 33.947-81.154 3.422 11.651.9 18.345-2.543 27.484-2.391 6.346-5.1 13.538-6.216 23.241a54.118 54.118 0 0 0 1.671 20.942c.023.086.05.172.076.257a53.907 53.907 0 0 0 2.697 7.325 1069.92 1069.92 0 0 1 6.597 18.704c.058.186 1.327 4.762-6.317 22.923a7.97 7.97 0 0 0 7.342 11.064 7.971 7.971 0 0 0 7.348-4.88c7.036-16.713 9.104-27.282 6.708-34.272a1105.828 1105.828 0 0 0-6.805-19.283 7.563 7.563 0 0 0-.243-.591 37.93 37.93 0 0 1-2.047-5.535h-.002a5.35 5.35 0 0 0-.061-.206 38.288 38.288 0 0 1-1.13-14.631c.891-7.743 3.13-13.688 5.295-19.438 3.676-9.761 7.445-19.783 3.454-35.457l3.687.982a7.97 7.97 0 0 0 10.021-7.726c-.018-5.86 4.736-10.641 10.597-10.658h.031c5.845 0 10.609 4.747 10.626 10.595a7.97 7.97 0 0 0 7.97 7.947h.022a7.97 7.97 0 0 0 7.948-7.968v-.026c-.018-5.86 4.736-10.641 10.596-10.657.215 0 .425.005.632.017 2.996.165 5.636 1.778 7.245 4.427a9.964 9.964 0 0 1 .587 9.272l-3.439 7.616a9.6 9.6 0 0 0-.19.458c-12.288 32.461-16.596 77.321-12.808 133.333 1.92 28.401 5.465 52.169 7.585 64.711H207.725c7.373-12.408 19.506-33.013 29.398-52.586a7.97 7.97 0 0 0-14.228-7.187c-10.393 20.569-23.447 42.513-30.461 54.302-4.87 8.188-5.601 9.449-6.067 10.744a7.97 7.97 0 0 0 7.5 10.669H322.45a7.97 7.97 0 0 0 7.815-9.533c-.25-1.252-24.687-125.856 2.691-198.58l3.337-7.388a25.896 25.896 0 0 0-1.492-24.107 25.348 25.348 0 0 0-4.301-5.297c-.969-8.194-2.085-15.964-3.333-23.21 10.432-5.056 19.345-12.541 26.469-22.313 1.186 2.179 2.652 4.299 4.474 6.244 5.48 5.855 13.168 8.951 22.227 8.951 9.295 0 14.328-3.983 16.915-7.324 7.813-10.094 3.6-26.355-.116-40.702-.902-3.48-2.121-8.189-2.672-11.483h7.126a7.969 7.969 0 0 0 7.97-7.97 7.969 7.969 0 0 0-7.97-7.97h-11.689c-3.681 0-6.881 1.514-9.008 4.263-4.663 6.025-2.368 14.889.811 27.157 2.086 8.052 5.968 23.04 2.943 26.949-.768.992-3.03 1.14-4.309 1.14-4.644 0-8.095-1.263-10.551-3.863-4.211-4.458-5.076-12.271-5.075-16.01 5.732-14.786 8.719-32.332 8.719-51.857 0-3.767-.116-7.458-.336-11.072 4.192-.763 8.252-2.598 11.937-5.465 8.303-6.458 14.328-17.96 14.328-27.35 0-.562.067-.874.106-1.011 1.135-.71 5.363-.767 8.919.189a7.969 7.969 0 0 0 9.813-5.546 7.973 7.973 0 0 0-5.546-9.813c-2.395-.664-14.752-3.666-22.919 2.541-2.88 2.189-6.312 6.331-6.312 13.639 0 3.437-2.911 10.673-8.174 14.768-1.304 1.014-2.606 1.703-3.918 2.105-1.937-11.869-5.212-22.635-9.745-32.058.157-.146.307-.299.466-.443 9.741-8.843 19.842-9.812 29.613-10.749zM257.627 48.263c1.96.276 3.995.96 6.082 2.018a102.356 102.356 0 0 0-7.377 2.346 59.358 59.358 0 0 0-4.806-3.9 14.238 14.238 0 0 1 6.101-.464zm-31.889 8.749c4.988-1.03 9.818.395 14.29 3.159a102.8 102.8 0 0 0-14.398 9.981c-3.32-2.851-6.759-5.269-10.302-7.253 3.496-3.004 6.978-5.177 10.41-5.887zm-39.804 38.69c4.787-4.752 9.279-10.214 13.713-15.61a637.801 637.801 0 0 1 4.199-5.068c3.799 1.6 7.236 3.768 10.311 6.232a102 102 0 0 0-21.742 39.787 20.6 20.6 0 0 0-2.079-.105c-3.409 0-6.636.809-9.576 2.272-.401-10.616.611-22.124 5.174-27.508zm.116 127.118c-3.589 2.813-7.033 3.893-10.832 3.39-6.59-.867-10.989-4.515-14.204-10.418 11.095-6.947 16.191-21.558 18.469-35.119 3.271 1.899 6.942 2.963 10.852 2.963a20.91 20.91 0 0 0 4.011-.388 102.18 102.18 0 0 0 7.25 16.021c-4.337 10.241-9.505 18.816-15.546 23.551zm127.202 37.466c-7.234.022-13.792 2.947-18.574 7.666-4.809-4.692-11.389-7.6-18.619-7.557-11.156.033-20.708 6.973-24.609 16.752l-4.049-1.078 2.053-33.218a102.561 102.561 0 0 0 41.618 8.795c7.345 0 14.305-.798 20.84-2.357a415.356 415.356 0 0 1 1.652 11.005c-.103-.001-.207-.008-.312-.008zm-22.181-24.58c-29.44 0-56-14.749-71.745-38.029 2.695-7.349 5.184-15.588 7.455-24.715 5.638-22.649 7.857-42.35 7.948-43.176a7.968 7.968 0 0 0-7.043-8.799 7.956 7.956 0 0 0-8.799 7.043c-1.164 10.494-4.345 30.194-9.733 49.257a87.622 87.622 0 0 1-2.08-7.016 7.97 7.97 0 0 0-12.839-4.175c-1.271 1.062-2.583 1.6-3.899 1.6-4.375 0-9.251-6.328-9.251-15.409s4.875-15.409 9.251-15.409c1.09 0 2.192.379 3.272 1.128a7.968 7.968 0 0 0 12.367-5.076 86.105 86.105 0 0 1 19.195-40.047c5.444 7.338 8.312 13.971 8.604 14.664a7.97 7.97 0 0 0 14.708-6.147c-.197-.471-4.089-9.687-11.859-19.639a86.9 86.9 0 0 1 15.729-10.118c4.626 5.735 8.281 11.871 10.498 15.941a7.97 7.97 0 1 0 13.998-7.625c-2.878-5.283-5.876-10.052-8.971-14.302a86.2 86.2 0 0 1 10.828-2.269c4.218 5.135 8.44 11.459 12.512 18.828a7.968 7.968 0 0 0 10.831 3.121 7.972 7.972 0 0 0 3.121-10.831 161.637 161.637 0 0 0-7.116-11.716c3.93.334 7.609.943 11.041 1.807 1.544 4.272 3.067 9.116 4.532 14.598a7.974 7.974 0 0 0 7.695 5.915 7.97 7.97 0 0 0 7.706-10.029c-.122-.459-.248-.908-.372-1.36 25.364 18.766 28.834 56.319 28.834 75.378-.001 26.04-6.471 86.607-66.418 86.607z"/><path d="M280.445 123.063a7.969 7.969 0 0 0-7.97 7.97v17.003c0 4.402 3.567 7.97 7.97 7.97s7.97-3.568 7.97-7.97v-17.003a7.97 7.97 0 0 0-7.97-7.97zm54.196 0a7.969 7.969 0 0 0-7.97 7.97v17.003c0 4.402 3.567 7.97 7.97 7.97s7.97-3.568 7.97-7.97v-17.003a7.97 7.97 0 0 0-7.97-7.97z"/></svg>