<svg xmlns="http://www.w3.org/2000/svg" viewBox="0 0 512 512"><path d="M508.301 184.638c-1.023-4.401-5.425-7.139-9.824-6.116a8.181 8.181 0 0 0-6.115 9.824 126.723 126.723 0 0 1 3.272 28.663c0 52.755-21.414 97.095-63.647 131.789-27.37 22.483-55.162 33.493-62.782 36.256-7.625-1.915-35.136-9.866-62.208-30.556-42.015-32.109-63.318-78.369-63.318-137.49 0-49.253 28.944-93.892 73.048-114.346a23.654 23.654 0 0 0 8.507 16.21 23.768 23.768 0 0 0 19.035 5.127c12.125-2.011 20.646-12.751 19.818-24.982a170.245 170.245 0 0 0-.728-7.824c4.191-.204 8.399-.204 12.589 0a171.526 171.526 0 0 0-.728 7.824c-.829 12.231 7.692 22.971 19.818 24.982a23.773 23.773 0 0 0 19.037-5.128 23.655 23.655 0 0 0 8.505-16.215c28.488 13.213 51.286 36.774 63.441 65.994a8.185 8.185 0 0 0 7.559 5.042 8.184 8.184 0 0 0 7.552-11.329 142.04 142.04 0 0 0-12.03-22.807c5.272-7.299 8.125-16.039 8.125-25.219 0-23.812-19.373-43.186-43.185-43.186a43.146 43.146 0 0 0-29.586 11.742c1.532-8.691 4.249-18.007 8.943-26.487 9.331-16.856 24.652-26.784 45.538-29.508a8.184 8.184 0 0 0 .813-16.081c-1.613-.379-39.847-9.015-70.176 13.391-15.357 11.347-25.698 28.359-30.889 50.741a146.286 146.286 0 0 0-18.061 0c-5.19-22.382-15.531-39.395-30.889-50.742-30.329-22.401-68.563-13.765-70.176-13.387a8.183 8.183 0 0 0 .813 16.081c20.887 2.724 36.208 12.653 45.538 29.508 4.695 8.482 7.41 17.796 8.942 26.488-7.93-7.461-18.454-11.744-29.576-11.744-23.819 0-43.198 19.373-43.198 43.186 0 9.211 2.872 17.98 8.178 25.295-14.404 22.228-22.664 48.492-22.917 76.075-3.145 10.312-32.671 102.399-96.109 149.143a166.895 166.895 0 0 0-3.621 2.755c-9.031-5.642-15.758-13.222-20.023-22.602-6.454-14.195 6.402-30.389 28.344-55.373 6.496-7.397 13.214-15.048 19.523-23.16a8.184 8.184 0 0 0-12.919-10.046c-6.008 7.727-12.562 15.19-18.9 22.408-21.723 24.736-42.241 48.1-30.943 72.945 4.962 10.916 12.395 19.945 22.151 26.966-9.055 8.867-16.477 18.523-22.241 28.926-5.41-3.607-13.108-9.504-20.016-17.616-15.685-18.417-20.209-39.411-13.448-62.398 6.85-23.285 25.682-45.245 43.895-66.482 14.29-16.662 27.788-32.402 34.652-48.002 8.432-19.162 5.5-36.085-8.714-50.299-16.942-16.942-34.574-10.17-47.448-5.226-3.955 1.519-7.691 2.953-10.877 3.543-10.098 1.862-15.96-4.634-17.923-10.763-1.918-5.992-.872-13.841 7.872-17.924.219-.105.447-.201.673-.298.022.067.031.135.053.202 1.135 3.215 4.293 5.43 7.702 5.43 3.788 0 7.143-2.715 7.976-6.395a8.166 8.166 0 0 0-.38-4.766c24.6-7.326 45.483-5.828 60.988 4.527 18.669 12.47 28.951 37.041 28.951 69.189 0 12.051-3.708 24.322-11.339 37.51a8.182 8.182 0 1 0 14.166 8.195c9.11-15.748 13.538-30.699 13.538-45.705 0-37.789-12.866-67.194-36.226-82.798-16.244-10.847-45.243-19.783-91.171-.739l-.105.045-.269.116c-.543.232-1.074.463-1.539.685-14.623 6.829-21.4 22.338-16.478 37.715.217.68.466 1.357.732 2.032-3.618 3.351-8.194 8.51-11.921 15.647-16.06-.523-23.22 7.466-24.063 8.484a8.182 8.182 0 1 0 12.601 10.441c.021-.025 1.758-1.536 5.74-2.237a66.183 66.183 0 0 0-1.084 12.059 8.183 8.183 0 1 0 16.366 0c0-15.842 6.978-25.847 12.007-31 6.455 5.371 15.34 8.427 26.103 6.44 4.67-.864 9.297-2.639 13.77-4.358 13.145-5.048 21.022-7.469 30.009 1.52 19.74 19.739 3.542 40.71-26.788 76.074-18.435 21.497-39.332 45.862-47.172 72.517-8.361 28.426-2.452 55.43 17.089 78.093 8.935 10.364 18.766 17.519 25.11 21.542a118.348 118.348 0 0 0-5.596 19.789c-2.874 14.969 1.056 30.304 10.781 42.074 9.764 11.817 24.154 18.594 39.479 18.594l287.286.003c11.148 0 20.218-9.07 20.218-20.219v-3.044c0-8.972-5.877-16.587-13.981-19.223v-19.956a8.183 8.183 0 1 0-16.366 0v18.96h-29.612v-60.341c6.183-2.374 16.856-6.898 29.612-14.064v32.533a8.183 8.183 0 1 0 16.366 0v-42.583a235.635 235.635 0 0 0 18.092-13.372C487.763 324.36 512 274.283 512 217.007c0-10.927-1.245-21.818-3.699-32.369zM454.044 87.52c14.787-.001 26.819 12.031 26.819 26.819 0 3.846-.811 7.565-2.338 10.973a143.003 143.003 0 0 0-39.955-32.879 26.807 26.807 0 0 1 15.474-4.913zm-62.495 12.603c1.993-29.443 11.294-50.529 27.643-62.669 4.615-3.428 9.534-5.94 14.469-7.758-5.685 5.245-10.553 11.512-14.58 18.787-9.921 17.923-12.425 38.352-12.778 52.335-.053 2.137-.995 4.069-2.652 5.438a7.305 7.305 0 0 1-5.933 1.597c-3.772-.624-6.425-3.947-6.169-7.73zm-85.944-70.467c4.902 1.813 9.794 4.312 14.405 7.719 16.416 12.129 25.753 33.24 27.75 62.748.255 3.783-2.395 7.107-6.168 7.732a7.314 7.314 0 0 1-5.933-1.597c-1.657-1.369-2.6-3.3-2.653-5.439-.354-13.983-2.856-34.413-12.777-52.335-4.038-7.294-8.921-13.575-14.624-18.828zm-20.33 57.863a26.787 26.787 0 0 1 15.467 4.915c-15.372 8.528-28.847 19.764-39.926 32.955a26.761 26.761 0 0 1-2.373-11.05c0-14.788 12.037-26.82 26.832-26.82zm46.577 301.176c12.568 5.984 23.19 9.448 29.624 11.252v59.704h-29.624v-70.956zm-91.357 92.358l3.808 5.711h-25.559v-24.19h26.943l-5.537 9.964a8.185 8.185 0 0 0 .345 8.515zm23.477 5.712l-7.093-10.638 9.866-17.76a8.182 8.182 0 0 0-7.153-12.158h-25.226c-3.078-53.924-36.387-60.446-37.871-60.708a8.172 8.172 0 0 0-9.48 6.637 8.181 8.181 0 0 0 6.636 9.48c.231.041 21.69 4.995 24.314 44.592h-43.168a8.183 8.183 0 1 0 0 16.366h27.581v24.19h-72.08a34.744 34.744 0 0 1-26.863-12.654c-6.605-7.994-9.275-18.405-7.325-28.565 5.116-26.656 20.2-49.373 44.83-67.521 14.705-10.836 27.643-23.752 38.928-37.47l-.452 19.295a8.184 8.184 0 0 0 11.037 7.86l23.78-8.86-5.007 18.775a8.183 8.183 0 0 0 7.906 10.292h35.092l-10.341 33.319a8.187 8.187 0 0 0 1.138 7.156 8.19 8.19 0 0 0 6.375 3.447l30.815 1.141-7.399 29.595a8.183 8.183 0 0 0 5.928 9.916l22.856 5.797c-.04.524-.08 1.047-.08 1.582v3.044c0 1.317.136 2.602.378 3.85h-37.922zm51.514-26.113a20.108 20.108 0 0 0-5.584 2.86l-19.234-4.878 7.869-31.472a8.183 8.183 0 0 0-7.637-10.161l-30.218-1.119 10.465-33.72a8.184 8.184 0 0 0-7.815-10.608h-35.55l6.344-23.79a8.182 8.182 0 0 0-10.764-9.776l-27.306 10.173.712-30.407c14.978-22.34 26.035-44.951 33.607-62.881 9.666 57.658 40.577 92.844 67.251 113.067a192.776 192.776 0 0 0 17.856 12.008v80.704zm45.991 26.116l-39.773-.003a3.855 3.855 0 0 1-3.821-3.85v-3.044a3.858 3.858 0 0 1 3.853-3.854h39.741v10.751zm54.245-10.751h1.861a3.857 3.857 0 0 1 3.852 3.854v3.044a3.858 3.858 0 0 1-3.852 3.854h-39.74v-10.751l37.879-.001z"/><path d="M450.568 149.953c-11.381-14.057-31.027-19.094-47.777-12.249-10.519 4.298-21.666 6.478-33.136 6.478-11.466 0-22.612-2.179-33.127-6.474-16.862-6.888-36.672-1.653-48.175 12.731-15.146 18.944-23.212 42.771-22.714 67.093.545 26.77 11.35 52.052 30.425 71.187 19.074 19.137 44.32 30.023 71.087 30.654.846.02 1.69.029 2.532.029 27.34 0 53.06-10.458 72.665-29.607 20.216-19.746 31.349-46.181 31.349-74.435-.002-23.751-8.215-46.979-23.129-65.407zm-19.659 128.136c-17.029 16.634-39.53 25.493-63.375 24.923-22.531-.53-43.799-9.709-59.882-25.845-16.083-16.135-25.194-37.433-25.655-59.968-.419-20.501 6.377-40.58 19.136-56.539a25.63 25.63 0 0 1 19.948-9.609c3.126 0 6.269.588 9.255 1.807 12.49 5.103 25.719 7.69 39.317 7.69 13.603 0 26.834-2.589 39.327-7.693 10.124-4.137 21.991-1.094 28.864 7.397 12.567 15.523 19.486 35.096 19.486 55.11-.001 23.809-9.384 46.086-26.421 62.727z"/><path d="M420.349 227.304a8.183 8.183 0 0 0-8.183 8.183c0 9.465-7.701 17.164-17.164 17.164-8.178 0-15.027-5.753-16.741-13.422h3.274a8.183 8.183 0 1 0 0-16.366h-23.761a8.183 8.183 0 1 0 0 16.366h3.275c-1.714 7.669-8.564 13.422-16.741 13.422-9.465 0-17.163-7.7-17.163-17.164a8.183 8.183 0 1 0-16.366 0c0 18.489 15.041 33.53 33.529 33.53 10.114 0 19.195-4.499 25.347-11.603 6.152 7.104 15.233 11.603 25.346 11.603 18.489 0 33.53-15.041 33.53-33.53a8.181 8.181 0 0 0-8.182-8.183zm-70.359-49.505a8.183 8.183 0 0 0-8.183 8.183v16.388a8.183 8.183 0 0 0 16.366 0v-16.388a8.183 8.183 0 0 0-8.183-8.183zm39.328 0a8.183 8.183 0 0 0-8.183 8.183v16.388a8.183 8.183 0 0 0 16.366 0v-16.388a8.182 8.182 0 0 0-8.183-8.183zm-286.95-51.672c-3.154-1.673-7.101-1.09-9.639 1.424-5.079 5.028-1.33 13.965 5.783 13.965 3.924 0 7.401-2.904 8.063-6.778.587-3.44-1.118-6.974-4.207-8.611z"/></svg>