<svg xmlns="http://www.w3.org/2000/svg" viewBox="0 0 511.998 511.998"><path d="M339.157 193.925c-3.407-2.822-8.458-2.346-11.282 1.063a20.867 20.867 0 0 1-14.212 7.519 20.874 20.874 0 0 1-15.369-4.734c-3.406-2.822-8.459-2.346-11.282 1.063a8.012 8.012 0 0 0 1.063 11.282c6.704 5.55 14.955 8.511 23.55 8.511 1.174 0 2.355-.056 3.54-.167 9.849-.927 18.747-5.635 25.055-13.255a8.013 8.013 0 0 0-1.063-11.282zm-49.504-47.312a8.013 8.013 0 0 0-8.013 8.013v11.752a8.013 8.013 0 1 0 16.026 0v-11.752a8.012 8.012 0 0 0-8.013-8.013zm44.872 0a8.013 8.013 0 0 0-8.013 8.013v11.752a8.014 8.014 0 0 0 16.026 0v-11.752a8.012 8.012 0 0 0-8.013-8.013zm-16.699 167.531c-2.893-1.458-6.477-.989-8.911 1.146-2.437 2.139-3.306 5.655-2.231 8.7 1.115 3.153 4.203 5.322 7.543 5.322 4.008 0 7.441-3.089 7.948-7.037.426-3.321-1.368-6.628-4.349-8.131zm-4.515 26.989c-3.065 1.816-4.537 5.584-3.596 9.005.942 3.426 4.158 5.881 7.717 5.881 3.779 0 7.11-2.765 7.853-6.453 1.351-6.711-6.138-11.89-11.974-8.433zm6.983 94.34c-2.863 2.003-4.071 5.752-2.987 9.059 1.065 3.251 4.183 5.497 7.604 5.497 3.722 0 6.978-2.644 7.808-6.251 1.613-7.007-6.564-12.406-12.425-8.305z"/><path d="M402.25 372.278c-8.458-48.879-37.37-67.519-48.404-72.957l-2.993-12.78 5.972-6.129a8.014 8.014 0 0 0 1.777-8.37l-9.604-25.987a76.734 76.734 0 0 0 5.016-6.367c12.539-17.782 19.166-42.63 19.166-71.856 0-21.346-3.455-40.093-10.254-55.773l-1.067-54.016a8.012 8.012 0 0 0-5.614-7.488c-.688-.216-10.611-3.28-25.965-5.639-3.88-5.404-12.859-16.55-26.998-26.394-17.745-12.353-47.273-24.953-87.18-14.826a8.012 8.012 0 0 0-5.796 9.737 8.01 8.01 0 0 0 9.737 5.796c27.113-6.879 51.867-2.809 73.576 12.095 5.332 3.661 9.831 7.567 13.49 11.187a221.745 221.745 0 0 0-15.9-.291c-38.391.697-71.191 11.876-96.269 32.569l-6.687-6.178a8.014 8.014 0 0 0-10.876 11.772l5.827 5.384a131.774 131.774 0 0 0-6.052 6.853 8.012 8.012 0 0 0-.737 9.107l17.391 29.962c-.508 1.357-.99 2.723-1.44 4.102l-15.426-12.943a8.012 8.012 0 1 0-13.163 6.138v7.497l-20.176 8.482c1.63-9.635 4.433-23.461 8.951-38.493 7.635-25.398 21.822-59.378 46.059-77.026a8.013 8.013 0 1 0-9.434-12.956c-45.817 33.364-59.633 111.787-62.735 134.441-9.735 3.075-16.812 12.189-16.812 22.926 0 13.255 10.783 24.039 24.039 24.039s24.039-10.783 24.039-24.039a23.924 23.924 0 0 0-5.405-15.167l11.476-4.824v17.17c0 17.673 11.122 31.517 25.321 31.517a21.11 21.11 0 0 0 4.044-.392 102.49 102.49 0 0 0 6.386 14.441 8.011 8.011 0 0 0 10.853 3.262 8.014 8.014 0 0 0 3.262-10.853 86.491 86.491 0 0 1-7.527-19.203l-.874-16.379c-.236-4.419-4.012-7.813-8.428-7.574a8.013 8.013 0 0 0-7.574 8.429l.65 12.162a4.91 4.91 0 0 1-.79.081c-4.396 0-9.295-6.362-9.295-15.492v-24.869l11.997 10.066a8.014 8.014 0 0 0 13.024-4.653c.991-5.252 2.499-10.406 4.438-15.374 4.475-2.986 17.556-10.951 37.518-16.733 22.295-6.458 57.925-11.398 102.282.965 5.298 13.165 8.092 29.45 8.092 47.391 0 26.181-6.506 87.073-66.774 87.073-24.574 0-48.123-10.462-64.613-28.703a8.014 8.014 0 0 0-11.889 10.745 102.76 102.76 0 0 0 8.52 8.377l-10.442 21.137a8.013 8.013 0 0 0 1.518 9.215 73.01 73.01 0 0 0 6.068 5.407l-5.489 29.858a83.647 83.647 0 0 0-6.223 4.43c-27.708 21.68-36.866 56.105-39.67 81.167a8.014 8.014 0 0 0 15.927 1.782c3.505-31.335 14.146-50.848 25.479-62.969L186.688 459.8a8.012 8.012 0 0 0 5.076 8.954c1.043.39 24.33 8.989 57.605 13.341v20.821a8.013 8.013 0 0 0 7.519 7.998l17.315 1.068a8.013 8.013 0 0 0 .988-15.996l-9.796-.604v-11.64c6.847.516 13.596.788 20.223.788 3.347 0 6.653-.09 9.938-.22l2.156 20.512a8.012 8.012 0 0 0 7.969 7.175h13.889a8.013 8.013 0 1 0 0-16.026h-6.674l-1.348-12.836c27.669-3.008 52.741-10.908 74.072-23.539a8.012 8.012 0 0 0 3.719-8.722L359.174 322.06c10.093 8.798 22.433 24.896 27.289 52.949a8.015 8.015 0 0 0 9.262 6.528c4.357-.752 7.28-4.899 6.525-9.259zM133.668 181.869c-4.419 0-8.013-3.594-8.013-8.013s3.594-8.013 8.013-8.013c4.419 0 8.013 3.594 8.013 8.013s-3.594 8.013-8.013 8.013zm107.84-77.549c-16.625 4.901-28.882 11.133-36.118 15.403l-12.257-21.117c23.358-25.931 56.264-39.499 97.91-40.353 24.497-.504 45.39 3.767 54.911 6.115l.769 38.88c-45.299-11.213-81.883-5.807-105.215 1.072zm94.659 153.248l5.649 15.282-9.292 9.536-9.823-17.48a70.447 70.447 0 0 0 13.466-7.338zm-100.702-2.508c16.305 10.252 35.334 15.87 54.916 15.87 3.75 0 7.398-.213 10.943-.62l-3.458 21.995c-14.672-1.729-48.378-7.385-68.862-24.168l6.461-13.077zm-6.962 65.91c8.115-4.136 14.262-5.079 15.002-5.18a8.012 8.012 0 1 0-2-15.899c-.315.039-3.996.521-9.565 2.389l2.161-11.751c30.229 16.046 68.082 18.356 70.065 18.466a8.012 8.012 0 0 0 8.36-6.755l2.792-17.757 8.482 15.095a8.01 8.01 0 0 0 12.724 1.665l1.057-1.084 15.872 67.777-6.78 2.238a8.003 8.003 0 0 0-8.578-7.151l-42.076 3.251a8.011 8.011 0 0 0-7.371 8.606l.131 1.704c-17.957 1.051-50.505 1.379-69.65-4.624l9.374-50.99zm104.856 84.747l-26.097 2.017-2.017-26.097 26.097-2.016 2.017 26.096zm39.003 42.969c-38.748 20.843-82.794 21.602-113.502 18.398-25.007-2.609-45.351-8.181-55.152-11.232l7.873-42.826c5.608 2.01 12.329 3.6 20.137 4.728a8.015 8.015 0 0 0 9.075-6.787 8.014 8.014 0 0 0-6.787-9.075c-8.106-1.169-14.627-2.815-19.478-4.896l1.689-9.189c15.158 4.321 34.908 5.426 51.143 5.426 9.158 0 17.194-.352 22.654-.675l.818 10.597c-7.002.442-20.325 1.066-34.541.58-4.43-.143-8.131 3.311-8.282 7.734a8.011 8.011 0 0 0 7.734 8.282c3.925.135 7.764.19 11.426.19 10.685 0 19.853-.47 25.209-.822a8.002 8.002 0 0 0 2.297 3.308 8.012 8.012 0 0 0 5.831 1.904l42.076-3.251c3.622-.28 6.489-2.927 7.214-6.306l13.848-3.321 8.718 37.233zm-12.372-52.84l-11.115 2.666-.918-11.883 9.166-3.027 2.867 12.244z"/></svg>