<svg xmlns="http://www.w3.org/2000/svg" viewBox="0 0 512.003 512.003"><path d="M453.27 65.92a158.762 158.762 0 0 0-7.786-4.211c4.547-14.717 5.094-38.324-14.902-58.321a8.58 8.58 0 0 0-12.134 0 8.58 8.58 0 0 0 0 12.134c14.542 14.542 13.461 30.329 11.121 39.246-11.706-4.321-23.32-6.901-34.218-7.716-2.743-6.543-6.967-13.113-13.188-19.332a8.58 8.58 0 0 0-12.134 0 8.58 8.58 0 0 0 0 12.134c2.543 2.543 4.597 5.124 6.261 7.701-12.23 1.701-22.735 6.18-30.261 13.522-9.258 9.032-18.034 24.279-24.484 37.8-4.72-11.285-10.986-21.275-18.606-29.512a79.62 79.62 0 0 0-9.126-8.45c4.361-13.842 6.321-30.029-.006-44.579a8.58 8.58 0 0 0-11.29-4.448 8.58 8.58 0 0 0-4.448 11.29c3.879 8.924 2.943 19.415.525 28.646-7.189-3.033-14.748-4.6-22.525-4.6-8.452 0-16.648 1.848-24.389 5.424-2.733-10.044-3.544-20.651.289-29.469a8.58 8.58 0 0 0-4.448-11.29c-4.346-1.892-9.401.102-11.29 4.448-6.533 15.025-4.228 31.794.431 45.925a81.048 81.048 0 0 0-7.455 7.105c-7.619 8.238-13.885 18.229-18.605 29.511-6.45-13.52-15.226-28.766-24.484-37.799-7.53-7.345-18.043-11.825-30.282-13.525 1.737-2.669 3.822-5.24 6.28-7.698a8.58 8.58 0 0 0 0-12.134 8.58 8.58 0 0 0-12.134 0c-6.22 6.22-10.445 12.789-13.188 19.332-10.889.815-22.493 3.392-34.19 7.706a43.592 43.592 0 0 1-1.301-7.768c-.875-11.78 3.295-22.367 12.395-31.468a8.58 8.58 0 0 0 0-12.134 8.58 8.58 0 0 0-12.134 0C61.567 23.385 62.115 46.993 66.661 61.71a159.93 159.93 0 0 0-7.784 4.21C11.585 93.229-11.716 138.452 5.834 168.882c17.17 29.724 66.084 32.734 112.444 7.385 7.502 2.568 26.428 10.958 26.428 30.161 0 11.174-6.457 24.923-13.436 38.117a8.578 8.578 0 0 0 3.574 11.596 8.579 8.579 0 0 0 11.596-3.573c8.012-15.148 15.426-31.224 15.426-46.14 0-20.304-12.947-33.49-25.864-40.941l11.504-7.116a8.581 8.581 0 0 0-9.029-14.593l-25.65 15.868c-37.642 21.674-79.812 21.985-92.131.658-12.315-21.358 9.099-57.774 46.764-79.523 15.107-8.726 30.912-14.175 45.173-16.176-.887 12.49 2.443 23.471 5.906 29.831a8.576 8.576 0 0 0 11.639 3.433 8.578 8.578 0 0 0 3.433-11.638c-.032-.06-3.239-6.16-3.889-14.909a39.474 39.474 0 0 1 .142-7.372c10.121.796 18.614 3.891 24.271 9.411 10.935 10.667 23.538 36.328 28.815 51.484-1.543 8.291-2.333 16.882-2.333 25.581 0 20.068 4.159 39.401 12.021 56.057 1.145 19.097-.84 34.325-5.924 45.258-7.585 16.309-8.199 29.36-1.824 38.793 5.573 8.244 15.732 12.74 30.243 13.443l-1.03 19.154a8.58 8.58 0 0 0 17.136.925l1.515-28.167.009-.176 2.475-46.013c6.703 2.61 13.668 3.934 20.829 3.934 7.155 0 14.121-1.324 20.831-3.933l2.484 46.075.001.031 1.523 28.248a8.58 8.58 0 0 0 9.03 8.105 8.58 8.58 0 0 0 8.106-9.03l-1.032-19.154c14.511-.703 24.673-5.199 30.245-13.443 6.376-9.432 5.763-22.483-1.822-38.792-5.084-10.934-7.07-26.161-5.924-45.259 7.862-16.655 12.021-35.987 12.021-56.055 0-8.704-.792-17.299-2.333-25.581 5.278-15.155 17.88-40.817 28.814-51.483 5.656-5.517 14.143-8.611 24.256-9.41 1.432 12.157-3.384 21.616-3.753 22.316a8.58 8.58 0 0 0 3.454 11.602 8.548 8.548 0 0 0 4.095 1.047 8.58 8.58 0 0 0 7.544-4.48c3.462-6.36 6.792-17.342 5.906-29.831 14.261 2.001 30.067 7.449 45.175 16.176a8.581 8.581 0 1 0 8.582-14.863zM216.057 286.836c-8.585-.406-14.612-2.46-16.948-5.915-2.69-3.979-1.565-11.772 3.167-21.945 3.584-7.706 5.94-16.865 7.066-27.374 2.915 3.138 5.997 5.986 9.228 8.504l-2.513 46.73zm63.907-58.024c-7.558 5.082-15.597 7.658-23.894 7.658-8.302 0-16.334-2.578-23.886-7.672-9.221-6.195-17.257-15.874-23.253-28.003a8.809 8.809 0 0 0-.122-.261c-7.216-14.671-11.029-31.999-11.029-50.11 0-8.369.819-16.608 2.437-24.503 3.963-19.534 12.47-35.882 23.467-46.811 4.368 8.699 8.416 14.495 8.868 15.132a8.567 8.567 0 0 0 7.005 3.615 8.58 8.58 0 0 0 6.99-13.546c-2.337-3.294-5.688-8.817-8.813-15.47 5.821-2.897 11.998-4.46 18.335-4.46 5.704 0 11.279 1.271 16.582 3.636-4.416 9.49-9.031 16.112-9.163 16.298a8.581 8.581 0 0 0 13.998 9.927c.476-.67 4.933-7.039 9.556-16.511 11.687 10.91 20.758 27.829 24.894 48.206 1.614 7.88 2.433 16.12 2.433 24.489 0 18.11-3.813 35.438-11.029 50.11a8.863 8.863 0 0 0-.122.262c-5.993 12.124-14.031 21.809-23.254 28.014zm33.075 52.11c-2.336 3.456-8.365 5.511-16.951 5.917l-2.518-46.719c3.234-2.524 6.32-5.375 9.237-8.516 1.127 10.509 3.482 19.666 7.067 27.373 4.73 10.172 5.854 17.966 3.165 21.945z"/><path d="M478.907 84.519a8.581 8.581 0 0 0-11.524 12.716c23.372 21.178 33.263 47.111 24.056 63.065-5.665 9.816-17.888 15.433-34.418 15.817-18.028.413-38.548-5.435-57.725-16.485l-25.629-15.856a8.581 8.581 0 0 0-9.029 14.593l11.536 7.137a65.379 65.379 0 0 0-4.052 2.48c-14.296 9.509-21.853 22.802-21.853 38.44 0 17.975 10.671 37.531 20.99 56.442 8.67 15.888 17.633 32.317 17.633 43.983 0 18.081-18.385 42.934-48.098 51.564a73.308 73.308 0 0 1-20.568 2.939 8.58 8.58 0 0 0 0 17.16c5.125 0 10.227-.444 15.257-1.303l1.797 21.18a8.58 8.58 0 0 0 5.662 7.354c5.54 1.979 9.261 7.248 9.261 13.109 0 5.025-2.734 9.688-7.134 12.171a8.583 8.583 0 0 0-4.334 8.197l2.346 27.703h-3.541a8.58 8.58 0 0 0 0 17.16h12.832l.047.002h6.43c7.084 0 13.249 4.007 16.345 9.873h-70.848v-53.635l19.233-6.964a8.58 8.58 0 0 0 5.146-10.989 8.58 8.58 0 0 0-10.989-5.146l-24.888 9.012c-.04.015-.077.034-.117.049-.025.009-.052.015-.077.024a100.412 100.412 0 0 1-36.574 6.864c-12.566 0-24.876-2.31-36.588-6.864-.027-.01-.055-.016-.082-.026-.038-.014-.073-.033-.111-.047l-24.888-9.012c-4.456-1.617-9.376.691-10.989 5.146a8.58 8.58 0 0 0 5.146 10.989l19.235 6.965v53.633h-70.864a18.456 18.456 0 0 1 3.293-4.462c3.497-3.489 8.134-5.41 13.057-5.41h6.441l.047-.002h12.829a8.58 8.58 0 0 0 0-17.16h-3.539l2.346-27.703a8.578 8.578 0 0 0-4.338-8.199 13.99 13.99 0 0 1-7.129-12.167c0-5.861 3.722-11.128 9.261-13.109a8.581 8.581 0 0 0 5.662-7.357l1.789-21.177a90.605 90.605 0 0 0 15.253 1.303 8.58 8.58 0 0 0 0-17.16c-6.97 0-13.89-.989-20.579-2.943-29.702-8.626-48.087-33.48-48.087-51.559 0-8.65 4.934-19.599 9.233-28.171a8.58 8.58 0 0 0-3.823-11.516 8.579 8.579 0 0 0-11.516 3.823c-5.147 10.262-11.054 23.613-11.054 35.864 0 26.408 23.119 54.186 53.74 65.786l-1.639 19.399c-9.394 5.508-15.398 15.683-15.398 26.819 0 9.266 4.151 17.97 11.113 23.824l-2.056 24.278c-8.958.357-17.338 4.016-23.739 10.402-6.726 6.726-10.43 15.67-10.43 25.184a8.58 8.58 0 0 0 8.58 8.58h90.129a8.58 8.58 0 0 0 8.58-8.58v-21.099c11.723 2.806 31.599 6.492 55.184 6.492 2.311 0 4.663-.042 7.042-.118v14.724a8.58 8.58 0 0 0 8.58 8.58H385.9a8.58 8.58 0 0 0 8.58-8.58c0-15.748-10.281-29.133-24.482-33.822 19.838-7.71 43.331-19.066 62.944-34.867a8.58 8.58 0 0 0-10.766-13.364c-19.488 15.702-43.484 26.754-62.922 33.959l-.996-11.773c6.962-5.859 11.113-14.563 11.113-23.822 0-11.137-6.005-21.313-15.4-26.82l-1.174-13.831c19.495 4.065 46.334 4.122 64.378-9.223 8.675-6.415 18.785-18.705 17.683-40.82-.924-18.539.336-32.511 2.629-43.017 1.242 5.552 3.135 11.229 5.14 17.243 5.101 15.305 11.45 34.353 11.45 62.89 0 13.53-5.179 26.691-15.396 39.118a8.58 8.58 0 0 0 1.18 12.077 8.544 8.544 0 0 0 5.443 1.953 8.567 8.567 0 0 0 6.633-3.131c12.807-15.579 19.3-32.407 19.3-50.016 0-31.322-7.126-52.704-12.331-68.316-7.174-21.525-10.144-30.437 6.626-47.206a8.58 8.58 0 0 0-6.64-14.627c-1.866.125-45.651 4.089-41.175 93.889.589 11.824-2.925 20.384-10.747 26.168-8.862 6.554-22.76 8.871-36.467 8.139 21.139-13.924 35.556-35.62 35.556-56.471 0-16.044-9.584-33.608-19.73-52.203-9.289-17.022-18.893-34.625-18.893-48.222 0-19.305 18.883-27.62 26.425-30.17 20.977 11.457 43.439 17.489 63.564 17.016 22.748-.527 40.108-9.191 48.883-24.395 13.489-23.384 2.48-57.285-27.401-84.362zM287.186 470.651c-27.958.936-51.669-4.166-62.225-6.922v-17.557a117.65 117.65 0 0 0 31.118 4.168c10.577 0 20.997-1.398 31.107-4.166v24.477zM63.061 96.508a8.582 8.582 0 0 0-10.684 5.752l-3.862 12.874a8.58 8.58 0 1 0 16.437 4.931l3.862-12.874a8.579 8.579 0 0 0-5.753-10.683zm30.9 11.586c-4.536-1.361-9.323 1.215-10.684 5.753l-3.862 12.874a8.58 8.58 0 1 0 16.437 4.931l3.862-12.874c1.36-4.54-1.215-9.323-5.753-10.684zm134.364 18.814a8.58 8.58 0 0 0-8.58 8.58v21.345a8.58 8.58 0 0 0 17.16 0v-21.345a8.58 8.58 0 0 0-8.58-8.58zm55.495 0a8.58 8.58 0 0 0-8.58 8.58v21.345a8.58 8.58 0 0 0 17.16 0v-21.345a8.579 8.579 0 0 0-8.58-8.58z"/><path d="M463.631 115.135l-3.862-12.874a8.577 8.577 0 0 0-10.684-5.753 8.578 8.578 0 0 0-5.752 10.684l3.862 12.874a8.584 8.584 0 0 0 8.215 6.117 8.58 8.58 0 0 0 8.221-11.048zm-30.899 11.587l-3.862-12.874c-1.363-4.541-6.145-7.117-10.684-5.753a8.578 8.578 0 0 0-5.752 10.684l3.862 12.874a8.584 8.584 0 0 0 8.215 6.117 8.579 8.579 0 0 0 8.221-11.048z"/></svg>