<svg xmlns="http://www.w3.org/2000/svg" viewBox="0 0 511.998 511.998"><path d="M303.947 91.953c-4.164-18.432-20.28-31.307-39.192-31.307-18.911 0-35.028 12.874-39.192 31.307a8.567 8.567 0 0 0 0 3.777c4.162 18.432 20.279 31.307 39.192 31.307 18.912 0 35.028-12.874 39.192-31.307a8.537 8.537 0 0 0 0-3.777zm-39.191 17.941c-10.014 0-18.954-6.644-21.958-16.053 3.004-9.409 11.944-16.053 21.958-16.053s18.953 6.644 21.958 16.053c-3.005 9.408-11.944 16.053-21.958 16.053z"/><path d="M259.828 86.836c-3.002 2.104-4.32 5.983-3.271 9.492 1.066 3.569 4.476 6.078 8.197 6.078 3.807 0 7.247-2.611 8.255-6.28 2.089-7.604-6.734-13.807-13.181-9.29zm45.561 47.782a8.571 8.571 0 0 0-12.121 0c-22.405 22.407-55.917 6.17-57.423 5.422a8.571 8.571 0 0 0-7.706 15.313c.464.234 11.524 5.748 26.263 7.56 3.146.386 6.225.578 9.236.578 16.404 0 30.705-5.706 41.75-16.751a8.571 8.571 0 0 0 .001-12.122zm-40.478 241.3a8.573 8.573 0 0 0-10.205-6.54c-17.157 3.756-33.902 2.513-49.765-3.695-4.406-1.722-9.38.451-11.105 4.858a8.572 8.572 0 0 0 4.858 11.105c11.923 4.666 24.236 7.003 36.808 7.003 7.539 0 15.174-.841 22.869-2.526a8.57 8.57 0 0 0 6.54-10.205zm-11.223-67.536c-3.124-1.466-6.919-.887-9.466 1.441-5.661 5.175-1.801 14.871 5.803 14.871 4.272.001 7.968-3.276 8.504-7.505.459-3.625-1.535-7.255-4.841-8.807zm-41.186-65.328c-3.132-1.979-7.327-1.688-10.144.727-5.907 5.064-2.223 15.086 5.565 15.086 4.044.001 7.605-2.934 8.399-6.89.691-3.442-.855-7.049-3.82-8.923z"/><path d="M408.336 74.032c-4.154-7.119-10.862-11.038-18.888-11.038-6.341 0-12.157 2.604-17.284 7.741-14.355 14.383-23.874 50.303-29.104 109.81-2.802 31.882-3.484 61.944-3.651 75.184-4.794 1.755-8.772 4.942-11.275 8.971-18.519-1.154-37.338-7.485-46.046-10.777-.23-18.686 2.911-34.151 4.595-41.029 12.276-5.23 22.499-13.089 30.535-23.521 16.69-21.664 22.832-53.102 17.762-90.914-4.153-30.985-14.709-56.385-30.526-73.454C286.269 5.382 261.4-2.943 232.549.923a111.061 111.061 0 0 0-20.931 4.899 8.571 8.571 0 1 0 5.514 16.232 93.993 93.993 0 0 1 17.694-4.14c23.425-3.14 42.619 3.166 57.054 18.742 13.401 14.461 22.428 36.619 26.109 64.081 4.386 32.707-.711 60.471-14.351 78.176-10.099 13.113-24.927 21.061-44.071 23.624-26.837 3.598-53.853-4.642-74.146-22.604l-.104-.095c-10.795-9.596-19.309-21.717-24.623-35.051a8.572 8.572 0 0 0-14.284-2.615c-1.2 1.311-2.527 2.073-3.916 2.263-4.656.626-10.776-5.433-12.076-15.108-.64-4.786.102-9.555 2.036-13.082.864-1.575 2.742-4.274 5.648-4.66 1.152-.161 2.378.088 3.638.73a8.57 8.57 0 0 0 12.456-7.177c.958-17.925 7.065-35.096 17.668-49.684.079-.099.157-.2.233-.304a93.312 93.312 0 0 1 14.034-15.268 93.327 93.327 0 0 1 10.571-7.949 8.57 8.57 0 0 0 2.548-11.85c-2.569-3.976-7.876-5.119-11.85-2.548a110.56 110.56 0 0 0-12.522 9.416A110.54 110.54 0 0 0 158.5 44.705a6.96 6.96 0 0 0-.246.32c-10.752 14.673-17.648 31.58-20.211 49.384-.747.025-1.492.088-2.234.19-7.563 1.006-14.263 5.892-18.384 13.405-3.708 6.762-5.128 15.142-3.996 23.602 2.518 18.725 16.285 31.828 31.355 29.818a22.622 22.622 0 0 0 4.214-.992 111.039 111.039 0 0 0 17.403 24.839c-6.16 4.841-14.935 12.471-24.169 22.902a8.57 8.57 0 0 0 .737 12.099 8.53 8.53 0 0 0 5.677 2.153 8.552 8.552 0 0 0 6.422-2.89c9.637-10.886 18.772-18.431 24.165-22.496 19.476 15.242 43.387 23.468 67.944 23.468 4.875 0 9.776-.323 14.67-.979 2.074-.278 4.095-.627 6.09-1.011a186.613 186.613 0 0 0-2.819 24.199c-2.956-1.446-6.683-1.319-9.506 1.291-5.581 5.162-1.806 14.862 5.812 14.862a8.438 8.438 0 0 0 3.583-.809c.403 11.045 1.915 23.007 5.311 35.131 1.292 4.61 2.728 8.779 4.118 12.809 3.185 9.245 5.787 16.806 5.236 25.533-57.663 28.022-96.442-5.274-106.676-15.774 4.14-19.931 10.422-45.223 18.266-73.527a8.572 8.572 0 0 0-9.224-10.807c-19.877 2.252-39.555 23.551-58.487 63.305a390.409 390.409 0 0 0-7.963 17.918c1.432-25.87 9.464-50.239 24.036-72.795a8.572 8.572 0 0 0-14.399-9.303c-24.199 37.457-32.208 79.335-23.802 124.475a8.567 8.567 0 0 0 7.961 6.988c.091.005.179-.01.27-.008.062.007.121.023.184.023.205 0 .413-.032.619-.047.175-.013.349-.016.521-.039.048-.007.094-.003.142-.01l15.237-2.286a8.57 8.57 0 0 0 7.205-9.747c-.702-4.682-5.066-7.909-9.747-7.205l-1.547.232c10.878-31.519 29.128-71.034 47.56-87.181-6.208 23.352-11.056 43.684-14.453 60.627a6.248 6.248 0 0 0-.042.197c-2.594 12.618-1.973 25.533 1.75 38.517-20.758 49.913-9.899 114.35-4.265 139.765h-14.229a8.571 8.571 0 0 0 0 17.142h25.077c.021 0 .04.005.061.005a8.572 8.572 0 0 0 8.578-8.571c0-36.555 11.088-67.93 22.211-90.215.192.19.375.379.568.568 23.741 23.255 48.955 37.424 50.016 38.016a8.568 8.568 0 0 0 10.234-1.426c7.255-7.255 13.327-17.115 18.384-27.994 25.814 34.74 51.221 84.383 51.503 84.938a8.574 8.574 0 0 0 7.635 4.68h22.282a8.571 8.571 0 0 0 0-17.142H341.2c-1.153-23.948-7.065-50.163-17.645-78.084a8.566 8.566 0 0 0-11.052-4.977 8.57 8.57 0 0 0-4.977 11.052c4.978 13.138 8.857 25.828 11.624 38.003-10.804-18.423-24.476-40.045-38.041-56.943 2.767-7.991 5.086-16.055 7.008-23.674a378.428 378.428 0 0 1 9.074 18.169 8.572 8.572 0 0 0 7.773 4.952 8.53 8.53 0 0 0 3.617-.806c4.29-2 6.146-7.1 4.146-11.39-8.405-18.026-16.111-31.031-19.208-36.056 1.599-8.894 2.396-15.132 2.589-16.709 2.512-14.814-1.544-26.586-5.467-37.973-.181-.522-.361-1.054-.543-1.582 17.629-1.859 31.106-7.648 39.47-12.33 2.148 2.672 4.993 4.852 8.299 6.333l-1.763 8.618a8.57 8.57 0 0 0 8.407 10.291c3.986 0 7.559-2.798 8.388-6.856l2.247-10.985c8.966-2.718 15.45-10.336 15.45-19.303 0-3.122-.808-6.072-2.21-8.72 9.018-17.932 22.704-53.668 33.005-91.666 13.764-50.786 16.102-84.493 6.945-100.184zM163.035 447.221c-1.71-21.205-1.451-45.834 4.259-68.425 4.051 7.04 8.998 14.059 14.83 21.022-6.787 12.747-13.881 28.8-19.089 47.403zm108.035-69.575c-6.393 24.894-14.454 43.921-23.512 55.622-18.287-11.534-73.094-49.851-76.512-96.444 5.843 4.552 13.434 9.552 22.63 13.707 10.838 4.897 25.016 9.065 41.886 9.065 12.361 0 26.168-2.244 41.157-8.074-1.288 7.204-3.137 16.345-5.649 26.124zm14.137-95.585a128.365 128.365 0 0 1-1.703-9.414c5.786 1.946 13.078 4.126 21.123 5.895-5.59 1.675-12.098 3.001-19.42 3.519zm62.718-4.22c-3.371 0-5.523-1.918-5.523-3.238s2.152-3.238 5.523-3.238c3.371 0 5.523 1.918 5.523 3.238s-2.152 3.238-5.523 3.238zm36.916-108.11c-8.458 31.201-19.736 62.177-28.213 80.96.269-14.714 1.078-41.045 3.518-68.762 6.29-71.461 17.832-92.754 24.151-99.085 2.703-2.708 4.545-2.708 5.15-2.708 1.688 0 2.838.405 4.083 2.537 6.377 10.924 3.128 43.47-8.689 87.058z"/></svg>