<svg xmlns="http://www.w3.org/2000/svg" viewBox="0 0 512 512"><path d="M470.68 149.084c-9.032-11.195-18.405-23.575-27.858-36.796A459.802 459.802 0 0 0 401.3 62.163l-5.649-5.909V8.256a8.261 8.261 0 0 0-8.786-8.24c-1.121.072-11.247.935-21.553 8.906a46.224 46.224 0 0 0-4.858 4.347v-1.991a8.257 8.257 0 0 0-8.752-8.24c-1.138.068-26.198 1.918-37.566 29.14-13.076-.75-42.219-.013-65.86 17.958-18.302 13.912-29.244 34.963-32.522 62.569-4.294 36.233-.535 64.204 2.21 84.626 1.828 13.603 2.997 23.439 2.128 31.094-10.973-19.409-20.59-46.35-19.874-80.647.279-13.324-8.527-24.904-21.411-28.16-14.29-3.612-36.571-8.212-61.56-9.616-30.034-1.685-56.609 1.616-78.997 9.816-7.345 2.689-12.9 8.538-15.246 16.047-2.327 7.453-1.102 15.356 3.362 21.685 5.128 7.272 11.728 12.092 19.388 14.232-.028 6.241 1.086 14.861 6.088 22.743 2.077 3.275 4.644 6.112 7.633 8.553-13.437 15.299-22.389 38.064-25.549 65.463-3.29 28.539.125 59.907 9.14 83.909 18.955 50.498-4.03 71.589-4.947 72.402a8.257 8.257 0 1 0 5.569 14.564c1.878-.055 43.182-1.641 63.371-30.981a96.452 96.452 0 0 0 26.193 14.43c2.904 1.051 12.872 4.228 14.743 4.872a172.813 172.813 0 0 0 11.619 3.555v72.45a8.255 8.255 0 0 0 8.256 8.256h29.343c.029 0 .056.004.085.004h26.584a8.256 8.256 0 0 0 8.256-8.256v-73.629a231.574 231.574 0 0 0 21.934 1.019c19.986 0 37.292-2.371 47.66-4.197v76.807a8.255 8.255 0 0 0 8.256 8.256h63.473a8.256 8.256 0 0 0 8.256-8.256V384.955c12.183-11.625 21.168-25.072 26.718-40.034a8.257 8.257 0 0 0-15.481-5.744c-5.049 13.606-13.531 25.792-25.214 36.219-7.174 6.41-15.682 12.251-25.291 17.361a8.257 8.257 0 0 0-4.38 7.29v71.058h-19.827v-94.527a8.255 8.255 0 0 0-8.256-8.256 8.256 8.256 0 0 0-8.256 8.256v33.552c-13.088 2.448-44.664 7.112-76.679 2.527-8.982-1.286-17.452-3.227-25.172-5.767a8.255 8.255 0 0 0-10.832 7.607c-.001.03-.01.057-.01.088v57.588h-12.911v-47.394a8.264 8.264 0 0 0-6.676-8.103c-.068-.013-5.123-1.019-12.605-3.404-2.786-.888-16.394-5.315-19.381-6.46a79.835 79.835 0 0 1-26.37-16.644c-17.054-16.18-26.064-38.958-24.718-62.497.384-6.739 1.759-13.496 4.088-20.081a8.255 8.255 0 0 0-5.03-10.537 8.255 8.255 0 0 0-10.536 5.03c-2.851 8.058-4.535 16.352-5.008 24.648-1.487 26.011 7.52 51.255 24.859 70.32-8.006 13.154-22.316 19.646-33.835 22.83 6.454-14.56 10.647-38.511-2.387-73.234-19.188-51.094-7.598-111.271 15.835-135.269 5.778 13.375 19.426 31.174 41.916 31.923a37.469 37.469 0 0 0 1.157 6.757 103.407 103.407 0 0 0-26.207 23.024 8.255 8.255 0 0 0 1.23 11.61 8.224 8.224 0 0 0 5.185 1.836 8.237 8.237 0 0 0 6.425-3.066 86.724 86.724 0 0 1 21.802-19.178c4.993 4.626 11.628 7.411 19.822 8.303 5.874 9.198 18.156 20.564 36.211 19.19 7.377 8.79 27.386 26.808 67.894 27.591l.162.001a8.257 8.257 0 0 0 .157-16.511c-42.711-.826-56.837-23.204-57.377-24.086a8.263 8.263 0 0 0-8.809-3.931c-8.34 1.729-14.459-1.064-18.638-4.575l6.543-1.246a8.258 8.258 0 0 0 6.568-9.655c-.853-4.479-5.184-7.419-9.655-6.566l-18.609 3.542c-6.702-.251-11.494-2.059-14.212-5.41-2.32-2.861-3.059-6.574-3.218-9.574l17.066-3.153a8.255 8.255 0 0 0 6.619-9.618c-.829-4.484-5.145-7.454-9.618-6.619l-23.352 4.314c-16.46 2.964-26.191-7.835-31.119-16.154l22.152-3.83a8.256 8.256 0 0 0 6.729-9.542c-.777-4.492-5.048-7.512-9.542-6.728l-31.025 5.363c-9.42-2.433-15.102-7.483-17.335-15.418-.812-2.886-1.037-5.709-1.029-8.014l26.748-4.168a8.256 8.256 0 0 0 6.887-9.428 8.254 8.254 0 0 0-9.427-6.887L54.205 156.5c-5.828-.291-10.526-3.061-14.34-8.471-1.478-2.096-1.877-4.738-1.093-7.247.801-2.564 2.683-4.555 5.162-5.463 13.514-4.949 38.02-10.989 73.823-8.848.568 8.393 2.765 21.313 10.529 29.475 4.691 4.931 10.842 7.537 17.789 7.537 3.603 0 8.069 11.073 11.328 19.159 7.259 18.003 17.035 42.244 43.561 45.182 16.028 32.739 37.617 49.672 39.075 50.788a8.232 8.232 0 0 0 6.621 1.547c.615-.121 3.449-.929 4.261-1.149a34.942 34.942 0 0 0 7.384-2.938c.59-.315 2.796-1.656 2.796-1.656 34.003-20.868 26.546-51.175 18.651-83.26-4.244-17.253-9.056-36.808-9.056-58.406 0-55.284 45.471-62.145 47.371-62.405a8.257 8.257 0 0 0 7.207-8.189c0-7.042.81-13.384 2.409-18.848 3.552-12.123 10.561-18.091 16.261-21.016v37.035c0 .225.017.445.034.664-.025.964-.03 1.869-.03 2.599 0 4.56 3.695 8.256 8.256 8.256s8.256-3.697 8.256-8.256c0-.996.009-1.962.052-3.017.504-17.263 5.3-29.736 14.254-37.074a28.827 28.827 0 0 1 4.375-2.96v40.028c0 2.126.82 4.169 2.289 5.706l7.938 8.303c11.717 12.255 22.8 25.31 33.076 38.901a8.216 8.216 0 0 0-3.37-.723 8.256 8.256 0 0 0-8.256 8.256v14.311c0 4.56 3.695 8.256 8.256 8.256s8.256-3.697 8.256-8.256V120.01c0-.354-.03-.701-.073-1.044.711.976 1.433 1.947 2.135 2.929 9.638 13.479 19.206 26.117 28.44 37.562 6.117 7.578 10.478 15.383 13.059 23.16a8.143 8.143 0 0 0-3.273 1.891c-5.274 5.026-1.606 14.239 5.689 14.239.123 0 .244-.011.367-.017.092 8.974-2.323 17.661-7.309 25.645-13.287 21.271-40.59 31.351-67.918 25.094-6.695-1.536-13.337-4.034-19.744-7.427-54.583-28.926-77.589-62.939-80.921-85.125-2.544-16.937 4.023-33.382 19.52-48.877a8.257 8.257 0 0 0-11.676-11.675c-19.403 19.403-27.537 40.601-24.173 63.005 7.542 50.226 70.426 87.145 89.52 97.264a98.7 98.7 0 0 0 18.864 7.644c4.536 11.029 10.609 30.807 8.122 53.54a8.255 8.255 0 1 0 16.413 1.796c1.844-16.852-.193-34.912-5.737-52.007a87.23 87.23 0 0 0 5.88.207c27.105-.001 52.136-12.73 65.854-34.69 15.883-25.43 12.261-56.847-9.689-84.04zm-116.1 255.838c3.7-2.114 7.238-4.338 10.622-6.654v72.838H354.58v-66.184zm0 82.695h10.622v7.871H354.58v-7.871zm-36.339 0h19.827v7.871h-19.827v-7.871zm-112.693-61.941c3.279.811 6.639 1.538 10.076 2.169v44.328h-10.076v-46.497zm0 63.009h10.076v6.803h-10.076v-6.803zm-29.424-.001h12.911v6.799h-12.911v-6.799zm-3.41-312.213c-5.848-14.501-11.894-29.495-26.643-29.495-2.44 0-4.234-.738-5.813-2.392-3.513-3.68-5.107-10.667-5.765-16.576 12.303 1.503 25.717 3.942 40.269 7.62 5.386 1.361 9.065 6.216 8.95 11.807-.485 23.259 3.277 43.418 9.056 60.493-8.917-5.569-14.238-17.031-20.054-31.457zM308.975 55.49c-5.98 1.657-15.017 4.978-24.031 11.385-14.034 9.976-30.762 29.501-30.762 65.879 0 23.599 5.066 44.187 9.534 62.351 8.421 34.229 11.462 51.3-11.293 65.266 0 0-1.564.961-1.921 1.151a18.692 18.692 0 0 1-3.422 1.411c-3.311-3.009-9.012-8.646-15.324-16.868 7.547-13.886 5.318-30.516 2.574-50.934-2.774-20.639-6.226-46.325-2.179-80.482 2.725-22.935 11.478-40.194 26.019-51.295 17.449-13.319 39.541-15.018 51.562-14.794a87.02 87.02 0 0 0-.757 6.93z"/><path d="M421.789 191.923c-2.809 2.199-3.879 6.13-2.586 9.452 1.229 3.156 4.31 5.285 7.702 5.285 3.902 0 7.313-2.827 8.091-6.638 1.508-7.388-7.319-12.707-13.207-8.099zm-37.942-80.173a8.256 8.256 0 0 0-8.256 8.256v14.311a8.255 8.255 0 0 0 8.256 8.256 8.256 8.256 0 0 0 8.256-8.256v-14.311a8.256 8.256 0 0 0-8.256-8.256z"/></svg>