<svg xmlns="http://www.w3.org/2000/svg" viewBox="0 0 511.998 511.998"><path d="M495.663 335.662c-6.158-28.076-16.521-52.115-21.456-62.645-.375-43.996-12.864-86.8-36.195-123.921a124.41 124.41 0 0 0-13.625-17.858l33.202-120.7a8.329 8.329 0 0 0-14.762-7.114l-69.762 95.761c-25.54-7.582-53.238-6.248-78.689 3.926a8.328 8.328 0 0 0 6.182 15.466c20.043-8.014 41.663-9.667 61.979-4.944l-4.282 5.877c-6.931 9.51-8.588 21.769-4.433 32.792 4.126 10.944 13.379 18.997 24.655 21.518a33.618 33.618 0 0 0 7.734.904c14.61 0 28.017-9.57 32.737-23.988a109.79 109.79 0 0 1 4.961 7.227c22.017 35.03 33.656 75.521 33.656 117.092 0 9.804-.641 19.634-1.903 29.221-2.293 17.475-6.631 34.461-12.945 50.742-2.583-5.303-6.271-10.903-11.534-16.272a8.33 8.33 0 0 0-11.895 11.659c11.092 11.316 12.567 23.695 12.725 27.999a215.148 215.148 0 0 1-8.445 14.572c-40.545 64.098-110.186 102.365-186.293 102.365-38.345 0-70.582-8.6-95.817-25.562a8.329 8.329 0 0 0-9.292 13.823c28.031 18.84 63.395 28.395 105.109 28.395 81.85 0 156.755-41.165 200.364-110.109.535-.843 1.056-1.701 1.581-2.555 16.641 22.693 37.744 34.009 38.775 34.552a8.335 8.335 0 0 0 6.4.571 8.33 8.33 0 0 0 4.901-4.154c12.59-24.674 14.73-56.517 6.367-94.64zM382.789 157.719a2.051 2.051 0 0 0-.113-.022c-.115-.022-.231-.052-.348-.08a4.778 4.778 0 0 0-.115-.027c-5.965-1.334-10.631-5.401-12.802-11.161-2.201-5.839-1.36-12.074 2.31-17.107l1.064-1.46c3.542 7.905 9.668 17.794 20.193 28.813-3.141 1.331-6.662 1.769-10.189 1.044zm24.238-26.183l-.001.007-3.349 12.187c-14.357-15.566-17.929-27.651-18.807-32.459l15.31-21.016c2.066 8.105 5.562 17.13 11.467 24.486l-4.62 16.795zm10.937-39.754c-2.825-8.107-3.721-16.37-3.999-20.45l15.465-21.229-11.466 41.679zm60.184 322.498c-7.938-5.619-20.477-16.069-29.79-31.187a234.956 234.956 0 0 0 23.148-71.894c9.704 28.877 18.728 70.174 6.642 103.081z"/><path d="M405.416 321.739c-15.959-6.706-36.043-10.106-59.695-10.106-12.164 0-23.733 1.96-35.049 5.938l.002-.129a8.329 8.329 0 0 0-16.656 0 84.58 84.58 0 0 1-.791 11.488 8.637 8.637 0 0 0-.068.402c-5.378 37.569-35.318 65.334-50.486 77.207-1.86-6.801-3.232-14.031-4.099-21.605-5.066-44.328 8.781-86.948 9.01-87.641a8.325 8.325 0 0 0-5.268-10.533 8.325 8.325 0 0 0-10.533 5.268c-.606 1.818-14.341 43.736-10.225 90.164-34.666 27.073-71.197 40.598-132.144 21.303C76.549 372.462 70.01 333.75 70.01 288.307a8.328 8.328 0 0 0-5.011-7.639c-16.524-7.176-27.643-17.874-33.047-31.8-7.147-18.415-3.025-38.71.316-49.747 37.595 21.458 49.873 62.458 49.997 62.883a8.327 8.327 0 0 0 16.335-2.287c0-31.807 29.288-58.708 44.698-70.658 5.203 23.213 1.908 45.059-9.844 65.073-10.358 17.639-23.755 27.28-23.872 27.363a8.328 8.328 0 0 0-2.805 10.234c.222.493 5.538 12.203 14.509 23.913 3.241 4.231 6.535 7.926 9.876 11.083-8.36-1.442-17.653-4.635-27.342-10.72-3.894-2.447-9.035-1.271-11.482 2.623a8.328 8.328 0 0 0 2.623 11.482c17.545 11.02 34.118 14.299 47.634 14.299 16.479 0 28.403-4.874 32.008-6.545 18.098-7.364 34.149-30.176 48.78-69.196 6.284-16.74 11.342-40.063 15.034-69.32 3.549-28.057 17.687-52.371 39.81-68.462a8.329 8.329 0 0 0-9.797-13.471c-25.878 18.823-42.405 47.178-46.538 79.844-3.529 27.974-8.274 50.029-14.103 65.558-14.571 38.859-30.88 60.534-45.925 61.034-15.38.519-30.05-20.372-37.06-33.299 5.73-5.06 14.829-14.257 22.628-27.336 11.336-19.01 22.027-50.14 8.582-90.477a8.329 8.329 0 0 0-12.314-4.429c-2.058 1.286-41.862 26.559-56.453 64.178-9.891-17.387-27.384-39.688-56.207-52.661a8.326 8.326 0 0 0-11.006 4.163c-.682 1.509-16.561 37.338-3.658 70.779 6.478 16.79 18.915 29.841 37.007 38.858.52 47.141 7.983 87.482 22.203 119.972 8.49 19.409 19.513 36.232 32.764 50.002a8.304 8.304 0 0 0 6.002 2.554 8.328 8.328 0 0 0 6.001-14.102c-7.947-8.26-15.017-17.799-21.136-28.476 15.712 3.898 29.905 5.629 42.836 5.629 34.63 0 60.27-12.338 82.208-28.194 1.557 7.7 3.634 15.024 6.213 21.89a8.329 8.329 0 0 0 12.194 4.144c2.329-1.448 55.737-35.266 66.227-90.843 11.889-5.313 23.978-7.913 36.829-7.913 21.424 0 39.338 2.963 53.242 8.806a8.33 8.33 0 0 0 10.904-4.452 8.332 8.332 0 0 0-4.454-10.905zm20.211-131.98c-2.949-1.591-6.673-1.275-9.271.865-5.904 4.859-2.38 14.763 5.28 14.763 3.846 0 7.283-2.745 8.127-6.499.804-3.578-.906-7.386-4.136-9.129z"/><path d="M319.35 190.384c-2.96 2.199-4.123 6.234-2.789 9.671 1.23 3.169 4.353 5.331 7.758 5.331 3.911 0 7.41-2.849 8.173-6.696 1.459-7.357-7.168-12.743-13.142-8.306zm108.46 27.579a8.329 8.329 0 0 0-8.328 8.328c0 9.131-7.429 16.561-16.561 16.561s-16.561-7.43-16.561-16.561a8.329 8.329 0 0 0-16.656 0c0 9.131-7.429 16.561-16.561 16.561s-16.56-7.429-16.56-16.561a8.329 8.329 0 0 0-16.656 0c0 18.315 14.901 33.217 33.216 33.217 9.898 0 18.798-4.351 24.889-11.242 6.091 6.89 14.991 11.242 24.889 11.242 18.316 0 33.217-14.901 33.217-33.217a8.329 8.329 0 0 0-8.328-8.328z"/></svg>