<svg xmlns="http://www.w3.org/2000/svg" viewBox="0 0 511.998 511.998"><path d="M273.07 134.893a8.127 8.127 0 0 0-8.128 8.127v11.242c0 4.489 3.638 8.127 8.128 8.127s8.127-3.639 8.127-8.127V143.02a8.126 8.126 0 0 0-8.127-8.127zm-52.857 34.819c-1.546-3.353-5.323-5.286-8.952-4.557-3.46.721-6.127 3.609-6.499 7.133-.359 3.395 1.532 6.716 4.609 8.179 3.172 1.507 7.083.755 9.458-1.837 2.198-2.398 2.744-5.968 1.384-8.918zm50.16 108.757c-2.62-2.212-6.487-2.546-9.429-.771-2.98 1.797-4.531 5.401-3.738 8.8.847 3.631 4.176 6.291 7.913 6.291 7.376 0 10.925-9.533 5.254-14.32zm-11.728 78.857c-2.412 3.194-2.113 7.823.73 10.648 4.988 5.022 13.89 1.335 13.872-5.743-.019-7.606-10.006-10.992-14.602-4.905zm4.497-45.131c-4.123 1.022-6.855 5.285-5.988 9.463 1.318 7.039 10.908 8.781 14.767 2.859 3.958-6.075-1.77-14.058-8.779-12.322zm43.293-177.302a8.126 8.126 0 0 0-8.127 8.127v11.242a8.127 8.127 0 1 0 16.254 0V143.02a8.126 8.126 0 0 0-8.127-8.127z"/><path d="M394.132 367.209a8.13 8.13 0 0 0 .159-1.603c0-18.878-3.041-35.775-9.04-50.337 4.426-5.042 6.823-11.907 5.876-19.313-1.403-10.98-10.269-19.765-21.259-21.082-4.854-.582-9.471.273-13.488 2.189-8.652-6.685-18.738-12.024-29.643-15.688a53.882 53.882 0 0 0-14.042-23.398c13.198-3.204 23.03-15.114 23.03-29.283V104.236c0-.026-.008-.051-.009-.077a8.115 8.115 0 0 0-2.161-5.452l-56.501-60.895V8.127A8.127 8.127 0 0 0 268.927 0h-30.792a8.127 8.127 0 0 0-8.127 8.127v22.74c-8.627-7.905-20.132-12.148-32.342-11.459-22.118 1.248-40.135 19.114-41.539 41.223-.937 14.752 5.316 28.636 16.824 37.666.188.147.39.257.586.385l-.025.027c-.021.022-.036.05-.055.074a8.085 8.085 0 0 0-2.114 5.454v104.456c0 14.044 9.658 25.875 22.681 29.203-7.086 6.911-12.277 15.748-14.717 25.661-7.574 3.048-15.785 7.366-23.698 13.5-4.016-1.912-8.629-2.764-13.481-2.181-10.987 1.32-19.851 10.105-21.253 21.082-.946 7.405 1.451 14.27 5.877 19.312-5.999 14.561-9.039 31.458-9.039 50.337 0 .548.056 1.084.159 1.602-3.591 4.771-5.482 10.893-4.755 17.456 1.245 11.233 10.287 20.281 21.519 21.529 14.73 1.637 27.247-9.899 27.247-24.304 0-13.487-10.972-24.46-24.459-24.46-1.1 0-2.181.08-3.243.221.67-12.747 2.977-24.258 6.886-34.379 1.323.222 2.679.344 4.064.344 13.487 0 24.46-10.972 24.46-24.46 0-3.752-.851-7.307-2.367-10.487a80.815 80.815 0 0 1 10.516-6.5v31.218c0 4.451 3.43 8.331 7.878 8.464a8.128 8.128 0 0 0 8.377-8.124v-37.301l.715-.943c9.136-2.585 15.644-2.931 15.764-2.937a8.128 8.128 0 0 0 7.796-8.446c-.18-4.485-3.939-7.957-8.446-7.796-.463.018-4.576.216-10.831 1.428 6.495-11.282 18.668-18.901 32.594-18.901l14.934.005c21.707 0 39.303 17.596 39.303 39.303v113.06h-79.991c-6.538 0-11.838-5.3-11.838-11.838v-40.372c0-4.451-3.43-8.331-7.878-8.464a8.128 8.128 0 0 0-8.377 8.124v40.711c0 15.516 12.578 28.093 28.093 28.093h.011v96.419a8.127 8.127 0 0 0 8.127 8.127l93.302-.003a8.128 8.128 0 0 0 8.128-8.128v-11.244c0-12.189-8.049-22.534-19.111-25.999v-24.487a8.128 8.128 0 1 0-16.255 0l.001 23.249h-20.84v-57.928h20.838v8.334c0 4.451 3.43 8.331 7.878 8.464a8.128 8.128 0 0 0 8.377-8.124v-8.677h4.509c15.516 0 28.094-12.578 28.094-28.094v-99.76c5.052 2.202 10.525 5.157 15.882 9.075a24.32 24.32 0 0 0-2.363 10.48c0 13.487 10.972 24.46 24.459 24.46 1.385 0 2.742-.121 4.065-.345 3.909 10.122 6.216 21.633 6.886 34.379a24.61 24.61 0 0 0-3.243-.221c-14.408 0-25.948 12.523-24.304 27.256 1.252 11.221 10.287 20.256 21.509 21.507 14.733 1.644 27.256-9.895 27.256-24.304a24.335 24.335 0 0 0-4.907-14.68zm-256.707 6.473c4.524 0 8.204 3.681 8.204 8.205s-3.68 8.206-8.204 8.206c-4.525 0-8.206-3.68-8.206-8.206.001-4.524 3.681-8.205 8.206-8.205zm7.706-66.323c-4.524 0-8.204-3.68-8.204-8.206s3.68-8.206 8.204-8.206c4.525 0 8.206 3.68 8.206 8.206s-3.68 8.206-8.206 8.206zm76.968 100.095h20.842v57.934h-20.842v-57.934zm66.067 74.188c6.056 0 10.982 4.926 10.982 10.982v3.118h-20.841v-3.112a27.07 27.07 0 0 0-2.326-10.987h12.185zm-26.114 10.988v3.112h-10.976c-.025 0-.049.003-.074.003H222.1v-14.103h28.865c.035 0 .069.005.105.005 6.055.001 10.982 4.927 10.982 10.983zM246.263 16.255H260.8v16.62h-14.537v-16.62zm-4.577 32.874h23.695l43.589 46.979h-67.053a8.129 8.129 0 0 0 0 16.256h77.552v74.801h-62.787c-3.883 0-7.042-3.159-7.042-7.043v-13.948c0-17.25-14.033-31.283-31.284-31.283h-30.76v-22.528h27.633c4.49 0 8.128-3.639 8.128-8.128s-3.638-8.127-8.128-8.127h-17.134l43.591-46.979zm-58.7 36.381c-6.797-5.335-10.696-13.346-10.696-21.982 0-15.404 12.537-27.937 27.949-27.937 8.681 0 16.67 3.939 21.942 10.664l-37.769 40.707a8.222 8.222 0 0 0-1.426-1.452zm18.494 137.068v-.001c-7.655 0-13.884-6.228-13.884-13.883v-57.546h30.76c8.287 0 15.029 6.741 15.029 15.028v13.948c0 12.846 10.451 23.298 23.297 23.298h62.787v5.273c0 7.655-6.228 13.883-13.884 13.883H201.48zm111.158 156.783c0 6.096-4.63 11.125-10.558 11.766V278.14c0-14.224-5.379-27.213-14.202-37.05 14.429 5.257 24.761 19.111 24.761 35.336v102.935zm54.234-72.001c-4.524 0-8.204-3.681-8.204-8.206 0-4.524 3.68-8.205 8.204-8.205s8.204 3.68 8.204 8.205c.001 4.526-3.679 8.206-8.204 8.206zm7.707 82.733c-4.525 0-8.206-3.68-8.206-8.206 0-4.525 3.68-8.205 8.206-8.205 4.524 0 8.204 3.68 8.204 8.205.001 4.526-3.679 8.206-8.204 8.206z"/></svg>