<svg xmlns="http://www.w3.org/2000/svg" viewBox="0 0 512.001 512.001"><path d="M282.764 145.927a8.125 8.125 0 0 0-11.411 1.372c-3.874 4.935-11.041 5.799-15.977 1.922a8.127 8.127 0 1 0-10.039 12.785 27.49 27.49 0 0 0 17.037 5.889c8.197 0 16.32-3.624 21.764-10.556a8.127 8.127 0 0 0-1.374-11.412z"/><path d="M397.487 209.423l-11.575-18.477c-.04-.065-.092-.117-.14-.174-.074-.112-.13-.231-.21-.34a8.128 8.128 0 0 0-9.287-2.819c-14.601 5.251-37.506 6.6-66.742 3.99 10.593-17.556 16.143-40.659 16.143-67.801 0-27.926-5.753-55.064-16.197-76.413a8.127 8.127 0 0 0-10.873-3.729 8.128 8.128 0 0 0-3.729 10.873c3.132 6.402 5.799 13.546 7.973 21.156a19.33 19.33 0 0 0-1.979-.111c-13.238 0-23.607 13.388-23.607 30.478 0 17.09 10.369 30.478 23.607 30.478 2.902 0 5.667-.644 8.213-1.829-1.564 24.744-8.56 44.685-20.465 58.091-6.505 7.315-14.491 12.613-23.757 15.754-6.935 2.371-14.732 3.573-23.174 3.573-27.141 0-52.381-12.215-69.252-33.52-7.839-9.884-13.361-21.057-16.409-33.209a8.125 8.125 0 0 0-13.101-4.254c-1.287 1.078-2.62 1.625-3.96 1.625-4.465 0-9.439-6.453-9.439-15.714 0-9.26 4.974-15.714 9.439-15.714 1.109 0 2.23.387 3.335 1.15a8.127 8.127 0 0 0 12.606-5.178c1.961-10.385 5.701-21.233 10.925-31.762a52.853 52.853 0 0 0 6.368 2.612 54.832 54.832 0 0 0 17.842 2.965c30.517 0 55.344-24.822 55.344-55.333 0-2.089-.115-4.18-.344-6.218a54.545 54.545 0 0 0-.464-3.247c14.951.747 27.838 7.344 38.341 19.637a8.128 8.128 0 0 0 12.358-10.56C281.077 8.784 262.548 0 241.689 0c-2.767 0-5.673.18-8.638.534a8.127 8.127 0 0 0-6.011 3.9 8.118 8.118 0 0 0-1.017 5.583 56.244 56.244 0 0 0-4.274-.167c-27.855 0-50.959 20.689-54.779 47.505a8.112 8.112 0 0 0-6.062-1.063 8.126 8.126 0 0 0-5.312 3.911c-6.465 11.334-11.427 23.268-14.574 34.981a21.058 21.058 0 0 0-2.056-.101c-14.408 0-25.694 14.043-25.694 31.969s11.287 31.969 25.694 31.969a21.33 21.33 0 0 0 4.083-.393c3.007 8.544 7.124 16.607 12.275 24.118-5.978 6.658-14.934 19.521-19.632 40.406a8.127 8.127 0 0 0 7.937 9.912 8.133 8.133 0 0 0 7.923-6.345c3.544-15.755 9.693-25.666 14.103-31.124 19.715 20.939 46.952 32.785 76.035 32.785 3.082 0 6.094-.153 9.046-.423-2.12 5.593-3.524 11.889-4.211 18.827-27.872-2.366-51.874-7.591-52.137-7.649a8.128 8.128 0 0 0-3.494 15.876c1.221.269 30.285 6.606 62.753 8.595 10.879.677 20.835.778 29.832.308-7.597 3.787-17.071 7.267-28.582 9.403-21.784 4.054-46.389 2.43-73.132-4.828a8.128 8.128 0 0 0-4.257 15.687c18.575 5.039 36.303 7.565 52.987 7.565 6.63 0 13.091-.409 19.379-1.207 2.325 11.026 5.262 20.735 7.481 27.354l-88.594 23.534c-13.842-34.382-20.547-65.13-19.936-91.476a8.127 8.127 0 0 0-7.937-8.314c-4.515-.121-8.21 3.45-8.314 7.937-.702 30.318 7.341 65.545 23.908 104.704a8.129 8.129 0 0 0 9.574 4.688l6.557-1.742c3.937 22.823-3.644 63.727-21.442 114.555a658.462 658.462 0 0 1-7.414 20.107 14.77 14.77 0 0 0 1.594 13.707A14.77 14.77 0 0 0 157.534 512h.037l65.467-.16a8.128 8.128 0 0 0 4.373-14.966l-32.147-20.653c17.527-18.943 32.324-40.62 44.161-64.652 16.598 22.279 24.918 53.885 28.581 72.177.908 4.56 1.695 9.095 2.341 13.48 1.225 8.331 8.497 14.614 16.916 14.614h50.625a8.125 8.125 0 0 0 7.71-5.558 8.13 8.13 0 0 0-2.835-9.073l-31.071-23.293c2.138-26.734 1.308-51.749-2.471-74.416a8.123 8.123 0 0 0-9.353-6.681 8.126 8.126 0 0 0-6.68 9.353c3.47 20.823 4.285 43.857 2.442 68.543l-13.327 2.174c-9.257-40.864-23.571-64.504-35.364-77.834 5.716-13.677 9.337-25.329 11.424-33.006a8.129 8.129 0 0 0-15.687-4.267c-2.19 8.055-6.179 20.784-12.742 35.685-12.649 28.761-29.581 54.18-50.339 75.636l-9.874-1.354c12.726-38.093 24.441-84.673 18.635-114.716l76.928-20.436c4.955 6.032 15.339 20.871 22.742 46.595a8.129 8.129 0 0 0 7.806 5.882 8.129 8.129 0 0 0 7.815-10.378c-9.632-33.47-24.036-50.776-28.673-55.711-1.72-4.596-5.99-16.718-9.115-31.43 23.487-5.864 38.873-16.641 47.3-24.148l6.078 9.704a8.127 8.127 0 0 0 11.204 2.574 8.128 8.128 0 0 0 2.574-11.202l-11.574-18.477c-.041-.066-.094-.12-.143-.179-.074-.111-.129-.229-.208-.336a8.126 8.126 0 0 0-9.288-2.818c-11.366 4.09-28.226 5.825-49.068 5.094.536-5.041 1.539-9.555 2.986-13.522 10.597 1.7 20.427 2.459 29.496 2.459 44.022 0 70.363-17.527 82.429-28.334l6.064 9.68a8.12 8.12 0 0 0 11.202 2.574 8.121 8.121 0 0 0 2.576-11.201zm-96.616-89.146c-2.999 0-7.352-5.54-7.352-14.222s4.354-14.222 7.352-14.222 7.352 5.541 7.352 14.222-4.355 14.222-7.352 14.222zm-79.122-94.172c2.49.001 4.948.24 7.354.696a38.914 38.914 0 0 1-1.545 9.934c-3.954-4.104-8.234-7.435-12.281-10.084a39.117 39.117 0 0 1 6.472-.546zm-24.911 8.99c5.365 2.378 15.431 7.727 22.307 16.746a39.22 39.22 0 0 1-15.326 10.514l1.58-3.472a8.128 8.128 0 1 0-14.796-6.732l-5.635 12.384a38.972 38.972 0 0 1-2.281-.373c.304-11.675 5.744-22.096 14.151-29.067zm104.265 451.198l12.394 9.292h-26.233a.84.84 0 0 1-.836-.723 268.96 268.96 0 0 0-.966-6.017l15.641-2.552zm-121.434-.769l15.766 10.128-35.743.088a668.951 668.951 0 0 0 4.586-12.327l15.391 2.111zm167.196-276.165c-18.854 9.138-41.673 12.633-66.76 10.332a70.752 70.752 0 0 0 17.687-12.944c19.022 2.168 35.74 2.88 50.043 2.135-.319.159-.643.319-.97.477z"/><path d="M230.201 75.577c-16.806 0-30.478 13.672-30.478 30.478a30.328 30.328 0 0 0 6.872 19.252c-3.314-.898-6.697-2.432-10.051-4.855a8.13 8.13 0 0 0-9.519 13.178c9.056 6.541 18.459 8.955 27.239 8.955 14.669 0 27.605-6.736 34.304-12.222.01-.008.013-.016.023-.024 7.338-5.57 12.088-14.382 12.088-24.285 0-16.805-13.672-30.477-30.478-30.477zm0 44.701c-7.843 0-14.222-6.38-14.222-14.222s6.38-14.222 14.222-14.222 14.222 6.38 14.222 14.222c0 7.841-6.379 14.222-14.222 14.222z"/></svg>