<svg xmlns="http://www.w3.org/2000/svg" viewBox="0 0 512.001 512.001"><path d="M403.666 148.529l-1.691-15.225a8.169 8.169 0 0 0-16.236 1.804l1.691 15.225a8.168 8.168 0 1 0 16.236-1.804zm29.002 0l-1.691-15.225a8.168 8.168 0 0 0-16.236 1.804l1.691 15.225a8.17 8.17 0 0 0 9.02 7.217 8.17 8.17 0 0 0 7.216-9.021zm-54.806 107.38c-3.736-4.174-8.735-6.38-14.456-6.38-18.846 0-53.126 22.49-56.973 25.055a8.167 8.167 0 0 0-2.265 11.327 8.167 8.167 0 0 0 11.327 2.265c12.94-8.626 37.389-22.311 47.911-22.311 1.203 0 1.747.342 2.277.932 3.251 3.619 3.793 14.349 3.138 20.447a8.17 8.17 0 0 0 8.129 9.072 8.17 8.17 0 0 0 8.108-7.267c.414-3.727 2.014-22.849-7.196-33.14zm68.206-65.322c-5.655 4.815-2.103 14.377 5.304 14.377 3.854 0 7.248-2.797 8.005-6.567 1.493-7.439-7.534-12.726-13.309-7.81z"/><path d="M430.901 105.408c-4.555-15.006-26.838-79.185-74.682-79.185a8.168 8.168 0 0 0-5.647 14.07c.25.24 22.431 21.782 27.063 49.366a267.25 267.25 0 0 0-24.022-3.19c-16.52-32.792-38.212-50.095-62.943-50.095-3.333 0-6.326 2.028-7.571 5.119s-.485 6.632 1.915 8.943c.182.175 16.355 15.945 23.993 37.623-7.363 2.05-13.78 5.317-19.237 9.747-7.16-20.448-18.127-40.538-32.718-59.894a8.164 8.164 0 0 0-9.422-2.714 8.173 8.173 0 0 0-5.242 8.294c.036.449 3.097 42.42-19.299 60.649-27.843-22.344-62.718-36.118-103.789-40.946a8.166 8.166 0 0 0-8.472 4.935 8.174 8.174 0 0 0 2.371 9.52c.394.321 39.381 32.523 28.786 64.305a8.168 8.168 0 0 0 4.64 10.136c.305.125 30.502 12.972 30.502 48.928a8.169 8.169 0 0 0 6.553 8.007c.399.081 37.082 7.797 62.232 37.874-15.299 4.099-26.105-3.413-44.844-17.828-16.962-13.046-38.072-29.283-71.408-38.294-31.801-8.593-64.226 3.249-93.775 34.246C14.044 247.932 1.381 273.222.853 274.288a8.171 8.171 0 0 0 7.319 11.799 8.15 8.15 0 0 0 3.874-.978c49.546-26.713 78.838-15.357 96.562-4.493a8.169 8.169 0 0 0 8.539-13.927c-26.665-16.347-55.743-18.702-88.334-7.024 5.039-7.262 11.401-15.503 18.896-23.366 25.524-26.772 51.661-36.78 77.689-29.748 30.208 8.165 49.07 22.673 65.71 35.472 19.154 14.732 35.925 27.615 60.481 20.252-4.439 5.624-10.712 11.028-19.599 15.193a8.17 8.17 0 0 0 3.472 15.567c1.161 0 2.34-.249 3.461-.774 29.971-14.046 38.065-41.878 40.219-56.697.81-5.574 2.6-30.18 2.723-41.691.026-2.366.045-4.755.062-7.16.188-25.554.384-51.978 11.085-68.341 4.612-7.069 11.079-11.796 19.624-14.341.611 6.227.24 12.299-1.158 18.123a8.168 8.168 0 0 0 6.037 9.849c.64.154 1.282.228 1.912.228a8.173 8.173 0 0 0 7.936-6.265c2.578-10.742 2.55-22.014-.081-33.495-2.733-11.993-7.931-22.71-13.299-31.365 8.783 6.58 18.117 17.868 26.954 36.628 6.382 13.549 9.472 24.942 9.502 25.055a8.167 8.167 0 0 0 9.996 5.781 8.166 8.166 0 0 0 5.786-9.998c-.095-.356-1.701-6.315-4.991-14.872 7.993.985 15.91 2.344 23.659 4.075 12.433 2.764 24.424 6.468 35.652 11.014 39.036 15.756 65.612 39.96 73.02 65.473-2.771-1.198-6.098-.793-8.459 1.153-5.791 4.774-2.321 14.48 5.175 14.48 2.016 0 3.907-.77 5.364-2.042.004.271.024.543.024.815 0 10.586-3.666 18.666-10.895 24.018-14.51 10.741-42.205 10.987-75.987.68-.018-.005-.035-.013-.053-.02-23.654-7.208-49.357-19.442-74.332-35.379a8.168 8.168 0 0 0-11.28 2.492 8.167 8.167 0 0 0 2.492 11.28c24.727 15.78 50.242 28.127 74.088 35.885 7.661 27.2 11.435 53.09 10.913 75.107a8.168 8.168 0 1 0 16.332.388c.205-8.637-.178-17.656-1.121-27.013 4.302-1.368 6.82-1.627 8.086-1.627 1.203 0 1.747.342 2.277.932 3.251 3.62 3.793 14.35 3.138 20.449a8.167 8.167 0 0 0 8.128 9.07 8.17 8.17 0 0 0 8.108-7.267c.414-3.729 2.015-22.851-7.197-33.143-3.736-4.175-8.735-6.38-14.456-6.38-2.998 0-6.406.535-10.259 1.581-1.429-8.728-3.309-17.713-5.648-26.942 32.965 7.756 59.801 5.389 76.488-6.964 11.457-8.48 17.514-21.326 17.514-37.148-.001-36.355-30.958-71.799-81.1-93.259zM159.79 136.865c2.551-20.96-8.064-40.118-18.478-53.386 29.761 6.715 55.24 19.135 75.97 37.066 24.848 21.502 38.122 47.006 44.927 64.855-23.523-23.127-48.746-35.044-67.416-41.132-14.492-4.727-26.866-6.638-35.003-7.403zm102.806 92.299c-.064.21-.119.423-.166.639-.778 2.965-1.755 5.606-2.982 7.844-22.542-27.763-53.141-39.195-66.235-43.02-1.327-16.711-7.763-29.156-15.123-38.123 3.841.926 7.959 2.076 12.279 3.505 29.665 9.816 54.712 27.619 74.522 52.891-.419 5.997-1.115 11.523-2.295 16.264zm3.873-73.232c-7.287-13.163-17.326-27.478-31.025-40.855 14.206-12.788 19.935-31.815 22.151-47.237 8.832 14.708 15.45 29.717 19.768 44.85-6.967 12.334-9.746 27.362-10.894 43.242zm128.082-62.661c-1.401-16.469-8.078-31.168-15.047-42.385 7.48 5.631 14.521 14.105 21.072 25.383 4.435 7.635 7.879 15.338 10.378 21.681a245.851 245.851 0 0 0-16.403-4.679z"/><path d="M417.246 333.546c-4.408-.969-8.762 1.824-9.728 6.231-6.661 30.4-24.162 51.722-52.017 63.373-6.09 2.549-12.074 4.711-17.872 6.476l-2.76-6.774c3.271-10.988 11.958-48.095-11.367-71.42-11.867-11.871-33.66-21.8-70.089-1.694-20.128 11.11-35.545 26.423-36.191 27.069a8.167 8.167 0 0 0 0 11.551 8.167 8.167 0 0 0 11.551 0c.142-.142 14.408-14.313 32.534-24.319 22.107-12.2 39.145-12.558 50.642-1.059 19.68 19.681 6.678 57.075 6.55 57.436a8.172 8.172 0 0 0 .121 5.85l15.763 38.69a18.487 18.487 0 0 1-5.165.744c-6.653 0-12.661-3.395-16.071-9.081l-10.286-17.155a9.43 9.43 0 0 0-.211-.334l-15.127-25.223a8.17 8.17 0 1 0-14.011 8.402l6.685 11.146c-13.43-2.896-26.224-8.764-38.758-17.778-11.042-7.921-22-18.271-34.484-32.57-8.375-9.594-16.55-19.952-24.457-29.97-14.384-18.224-29.258-37.07-45.675-51.664a8.168 8.168 0 0 0-10.853 12.209c15.34 13.637 29.118 31.093 43.705 49.575 6.975 8.838 14.173 17.913 21.602 26.638l-22.973 52.821-17.565 2.196-9.019-12.885a8.17 8.17 0 0 0-13.384 9.368l11.842 16.917a8.168 8.168 0 0 0 7.705 3.421l23.099-2.887 6.626 6.626-4.543 4.542-15.036-1.202c-4.5-.356-8.434 2.995-8.793 7.491a8.168 8.168 0 0 0 7.491 8.793l18.797 1.503a8.172 8.172 0 0 0 6.428-2.367l12.792-12.79 42.662-38.754c17.053 11.114 34.7 17.327 53.655 18.859l8.077 13.47c6.388 10.656 17.634 17.017 30.082 17.017 4.43 0 8.755-.827 12.802-2.428l14.525 22.439a8.16 8.16 0 0 0 6.865 3.73 8.169 8.169 0 0 0 6.85-12.608l-12.784-19.749 15.273-4.823 5.341 10.682a8.167 8.167 0 0 0 10.958 3.653 8.167 8.167 0 0 0 3.653-10.959l-8.459-16.918a8.166 8.166 0 0 0-9.765-4.136l-24.961 7.883-5.7-13.993a207.68 207.68 0 0 0 17.991-6.591c33.053-13.826 53.802-39.041 61.67-74.946.964-4.403-1.826-8.758-6.233-9.724zM189.433 434.198l-5.787-5.788 19.602-45.07c7.148 7.583 13.949 13.99 20.705 19.502l-34.52 31.356z"/></svg>