<svg xmlns="http://www.w3.org/2000/svg" viewBox="0 0 512 512"><path d="M323.505 0H220.573c-13.924 0-25.254 11.329-25.254 25.254v38.661c0 4.477 3.629 8.106 8.106 8.106s8.106-3.629 8.106-8.106v-11.8l14.577 10.563a8.104 8.104 0 0 0 9.512.001l22.694-16.439 22.684 16.438a8.104 8.104 0 0 0 9.512.001l22.694-16.439 19.335 14.012v49.704h-87.944a8.106 8.106 0 0 0-8.106 8.106 8.106 8.106 0 0 0 8.106 8.106h27.688v6a8.106 8.106 0 0 0 8.106 8.106 8.106 8.106 0 0 0 8.106-8.106v-6h19.615v6c0 4.477 3.629 8.106 8.106 8.106s8.106-3.629 8.106-8.106v-6h8.217v63.67c0 6.775-5.506 12.286-12.275 12.286h-62.243c-4.477 0-8.106 3.629-8.106 8.106s3.629 8.106 8.106 8.106h21.722v20.083h-68.209v-20.582h6.218c4.477 0 8.106-3.629 8.106-8.106s-3.629-8.106-8.106-8.106h-6.218v-26.064a8.106 8.106 0 0 0-10.427-7.765 16.767 16.767 0 0 1-4.8.696 16.884 16.884 0 0 1-12.505-5.556c-3.23-3.573-4.739-8.211-4.248-13.063.748-7.455 6.656-13.701 14.064-14.853.571-.09 1.14-.142 1.708-.175v7.045c0 4.477 3.629 8.106 8.106 8.106s8.106-3.629 8.106-8.106v-15.181l-.002-.042V86.611c0-4.477-3.629-8.106-8.106-8.106s-8.106 3.629-8.106 8.106v31.994a33.598 33.598 0 0 0-4.213.397c-14.804 2.302-26.19 14.331-27.687 29.245-.943 9.328 2.101 18.644 8.352 25.56a33.134 33.134 0 0 0 23.548 10.881v16.937h-5.259v-6.809c0-4.477-3.629-8.106-8.106-8.106s-8.106 3.629-8.106 8.106v29.829c0 4.477 3.629 8.106 8.106 8.106s8.106-3.629 8.106-8.106v-6.809h5.259v24.113c-9.338 5.021-15.7 14.882-15.7 26.202v150.806c0 10.089 8.089 18.308 18.12 18.553v66.384A8.106 8.106 0 0 0 205.85 512H313.6a8.106 8.106 0 0 0 8.106-8.106c0-15.645-10.801-28.811-25.336-32.443v-28.466l30.997-46.275a8.062 8.062 0 0 0 1.397-4.549v-61.297c0-4.477-3.629-8.106-8.106-8.106s-8.106 3.629-8.106 8.106v53.192h-11.429v-95.671c0-14.02-8.798-25.442-18.431-33.755h1.767c15.491 0 28.092 12.603 28.092 28.092v24.366c0 4.477 3.629 8.106 8.106 8.106s8.106-3.629 8.106-8.106v-24.366c0-20.452-13.934-37.704-32.806-42.782v-21.604h24.311c15.708 0 28.487-12.784 28.487-28.497V25.254C348.748 11.329 337.424 0 323.505 0zm9.031 40.232L317.96 29.668a8.104 8.104 0 0 0-9.512-.001l-22.694 16.439-22.684-16.438a8.104 8.104 0 0 0-9.512-.001l-22.694 16.439-19.334-14.011v-6.841c0-4.986 4.056-9.043 9.043-9.043h102.932c4.98 0 9.032 4.056 9.032 9.043v14.978zM213.587 418.955a2.367 2.367 0 0 1-2.365 2.365h-13.027a2.366 2.366 0 0 1-2.365-2.365v-18.688h17.757v18.688zm.362 51.497v-33.144c8.951-1.326 15.848-9.039 15.848-18.352v-18.688h36.054l-23.95 35.741a8.102 8.102 0 0 0-1.373 4.512v29.932h-26.579zm33.082 25.336h-33.08v-9.125h33.079l.022-.001.022.001c6.572 0 12.292 3.701 15.197 9.125h-15.24zm56.429.001h-23.944a33.279 33.279 0 0 0-3.793-9.125h12.536c6.571-.001 12.297 3.699 15.201 9.125zm2.007-95.521l-23.943 35.742a8.099 8.099 0 0 0-1.371 4.511v29.932h-23.41v-27.466l28.625-42.718h20.099zm-20.561-16.213h-55.108v-92.502c0-4.477-3.629-8.106-8.106-8.106s-8.106 3.629-8.106 8.106v92.502H195.83V268.15c0-7.456 6.071-13.522 13.532-13.522h20.389l26.173 44.224a8.103 8.103 0 0 0 8.645 3.804l20.337-4.282v85.681zm-1.183-101.998l-16.808 3.538-18.328-30.966h4.599c2.808 1.353 9.332 4.728 15.873 9.746 5.626 4.316 12.073 10.526 14.664 17.682z"/><path d="M276.721 318.564c-1.316-3.119-4.481-5.167-7.881-4.994-3.166.162-5.996 2.199-7.145 5.152-2.702 6.939 4.991 13.638 11.501 10.018 3.525-1.962 5.097-6.452 3.525-10.176zm0 31.698c-1.35-3.195-4.607-5.235-8.08-4.982-3.265.238-6.118 2.493-7.112 5.608-2.218 6.941 5.506 13.137 11.804 9.461 3.433-2.005 4.94-6.409 3.388-10.087zm43.319-188.929h-46.248c-4.477 0-8.106 3.629-8.106 8.106s3.629 8.106 8.106 8.106h46.248a8.106 8.106 0 1 0 0-16.212z"/></svg>