<svg xmlns="http://www.w3.org/2000/svg" viewBox="0 0 512 512"><path d="M351.271 209.184c76.178-13.301 87.726-36.132 87.726-48.717 0-35.466-81.702-48.684-113.808-52.499L263.048 3.998a8.209 8.209 0 0 0-14.095 0L186.81 107.969c-14.641 1.712-28.408 3.959-40.974 6.7a8.211 8.211 0 0 0 3.501 16.044c13.343-2.911 28.136-5.25 43.972-6.955 19.919-2.148 41.011-3.237 62.692-3.237s42.772 1.089 62.693 3.237c71.653 7.711 103.883 26.108 103.883 36.71 0 7.648-18.18 21.738-67.277 31.272-.164-14.561-9.471-26.571-21.459-28.385-1.355-7.485-3.359-14.725-5.984-21.609a8.208 8.208 0 0 0-6.809-5.24c-20.503-2.165-42.388-3.263-65.047-3.263-22.66 0-44.545 1.098-65.047 3.263a8.211 8.211 0 0 0-6.809 5.239c-2.624 6.884-4.63 14.124-5.984 21.609-11.99 1.814-21.296 13.825-21.46 28.385-49.096-9.533-67.276-23.624-67.276-31.272 0-5.162 8.74-14.162 33.373-22.533a8.21 8.21 0 1 0-5.284-15.547c-29.535 10.038-44.511 22.849-44.511 38.08 0 12.585 11.545 35.417 87.726 48.717 3.536 8.596 9.948 19.715 18.196 23.847 1.891 5.542 5.855 15.38 12.849 25.495l-3.916 23.123-53.794 87.213a8.212 8.212 0 0 0 2.337 11.077l3.996 2.748c-1.078 6.203-1.454 16.139 3.326 27.293a8.212 8.212 0 0 0 7.55 4.978 8.196 8.196 0 0 0 3.229-.666 8.21 8.21 0 0 0 4.312-10.781c-1.548-3.61-2.29-6.981-2.575-9.931l11.341 7.798-17.11 101.04a8.21 8.21 0 0 0 8.096 9.582h194.863a8.21 8.21 0 0 0 8.096-9.582l-6.474-38.23a8.21 8.21 0 0 0-16.19 2.742l4.852 28.649H264.21V292.667c15.926-1.573 30.153-7.772 42.048-18.278l28.728 169.652a8.212 8.212 0 0 0 9.466 6.725 8.21 8.21 0 0 0 6.725-9.466l-6.791-40.099 11.083-7.619c-.285 2.949-1.025 6.319-2.573 9.929a8.21 8.21 0 0 0 4.312 10.781 8.178 8.178 0 0 0 3.229.666 8.21 8.21 0 0 0 7.55-4.978c4.78-11.154 4.404-21.09 3.326-27.293l3.996-2.748a8.212 8.212 0 0 0 2.337-11.077l-53.399-86.573-4.024-23.763c6.998-10.115 10.962-19.954 12.852-25.494 8.253-4.134 14.667-15.265 18.196-23.848zm-95.27-105.085c-16.702 0-33.078.631-48.87 1.879l48.87-81.764 48.869 81.764c-15.793-1.249-32.167-1.879-48.869-1.879zm103.572 266.735l-18.208 12.517-9.812-57.942 28.02 45.425zM197.822 152.317c18.438-1.763 37.982-2.656 58.179-2.656 5.385 0 10.72.068 16.004.195-11.968 13.001-36.915 30.568-77.714 16.699.871-4.884 2.039-9.65 3.531-14.238zm-45.679 218.517l28.414-46.065-9.95 58.76-18.464-12.695zm95.647 124.744h-79.503l37.455-221.19c11.894 10.506 26.122 16.705 42.048 18.278v202.912zm78.11-277.306a8.24 8.24 0 0 0-7.345 6.168c-.034.135-3.573 13.646-13.3 26.801-12.47 16.862-29.042 25.412-49.254 25.412-20.212 0-36.784-8.551-49.253-25.414-9.728-13.155-13.266-26.667-13.297-26.783a8.209 8.209 0 0 0-7.35-6.186c-2.402-1.289-8.313-9.057-11.534-18.954-.928-2.822-1.46-5.442-1.46-7.188 0-3.658 1.054-6.764 2.586-8.978l-.106.973a8.211 8.211 0 0 0 16.325 1.778l.301-2.758c11.223 3.489 21.443 4.93 30.654 4.93 19.522 0 34.526-6.437 45.008-13.359 12.477-8.239 20.431-18.3 24.327-24.051a567.29 567.29 0 0 1 21.979 1.655c2.122 6.525 3.624 13.393 4.484 20.48l.001.021 1.427 13.083a8.212 8.212 0 0 0 16.325-1.781l-.106-.97c1.53 2.215 2.584 5.319 2.584 8.976 0 1.749-.532 4.368-1.469 7.214-3.214 9.873-9.126 17.641-11.527 18.931z"/><path d="M296.676 198.527c-1.734-4.191-6.538-6.183-10.725-4.45l-11.616 4.804a8.213 8.213 0 1 0 3.142 15.8 8.191 8.191 0 0 0 3.134-.625l11.616-4.804a8.21 8.21 0 0 0 4.449-10.725zm-59.083.844l-11.252-5.168a8.207 8.207 0 0 0-10.888 4.034 8.21 8.21 0 0 0 4.034 10.888l11.252 5.168a8.185 8.185 0 0 0 3.422.752 8.212 8.212 0 0 0 3.432-15.674zm36.404 33.391c-3.204-3.206-8.403-3.206-11.611 0a8.973 8.973 0 0 1-6.386 2.646 8.969 8.969 0 0 1-6.386-2.646 8.212 8.212 0 0 0-11.612 11.612c4.808 4.808 11.198 7.455 17.998 7.455 6.799 0 13.19-2.647 17.997-7.455a8.208 8.208 0 0 0 0-11.612z"/></svg>