<svg xmlns="http://www.w3.org/2000/svg" viewBox="0 0 511.999 511.999"><path d="M393.256 187.637a182.25 182.25 0 0 0 .964-18.835c0-10.588-.859-20.682-2.532-30.115 5.158-3.49 12.978-9.77 19.361-19.135 9.591-14.073 17.754-37.862 2.166-71.281-5.147-11.029-14.78-21.204-27.856-29.426a8.27 8.27 0 0 0-8.804 14.001c10.378 6.524 17.872 14.277 21.67 22.417 9.763 20.928 9.594 39.252-.501 54.462-3.219 4.849-6.996 8.667-10.328 11.484-2.585-8.016-5.902-15.303-9.895-21.836 3.883-2.467 6.357-4.093 6.525-4.203a8.271 8.271 0 0 0-9.096-13.814 621.2 621.2 0 0 1-15.541 9.819c-15.505 9.533-27.898 16.248-34.894 18.908-22.245 8.453-39.464 9.366-54.658 10.172-20.649 1.095-38.665 2.054-59.074 20.337a21.735 21.735 0 0 0-6.528-1.012c-10.811 0-19.888 7.779-23.908 19.184-11.453-8.373-20.559-21.62-15.694-45.945 2.408-12.044 11.464-19.216 27.689-21.927 7.448-1.245 14.764-1.188 19.871-.881l-.031 17.975a8.27 8.27 0 0 0 8.255 8.284h.014a8.27 8.27 0 0 0 8.27-8.255l.044-25.449c.017-1.825.965-44.877 50.44-60.399 24.096-7.559 50.504-7.51 74.363.139a8.27 8.27 0 0 0 5.048-15.751c-27.08-8.681-57.04-8.741-84.363-.17-31.903 10.009-47.086 30.048-54.204 45.097a84.692 84.692 0 0 0-6.912 22.009c-5.966-.355-14.357-.398-23.105 1.019-23.386 3.789-37.772 15.914-41.6 35.066-3.822 19.108-1.032 35.486 8.292 48.678 6.418 9.082 14.816 14.987 21.7 18.922 1.902 15.749 12.565 27.458 25.829 27.458 1.406 0 2.797-.136 4.164-.401a105.491 105.491 0 0 0 7.482 16.555c-9.657-7.347-20.677-14.916-32.341-21.426-35.492-19.81-64.489-22.884-86.185-9.145-15.305 9.689-18.213 21.593-17.959 29.875.46 14.944 11.988 31.045 31.471 44.631a45.525 45.525 0 0 0-6.102 5.362c-13.936 14.63-10.419 28.17-7.082 34.939 10.441 21.179 46.544 35.408 86.373 35.406 1.734 0 3.478-.036 5.224-.09-4.912 16.18-7.593 27.507-7.728 28.084a8.264 8.264 0 0 0 1.251 6.6c10.69 15.442 26.021 28.156 45.237 37.705-5.311 9.504-16.405 25.86-32.395 31.703-10.118 3.697-20.604 2.652-32.056-3.198a8.272 8.272 0 0 0-10.941 3.262l-13.232 23.155a8.269 8.269 0 0 0 3.077 11.283 8.267 8.267 0 0 0 11.283-3.076l9.523-16.665c13.071 4.986 25.858 5.242 38.105.744 21.859-8.027 35.783-29.268 41.897-40.6 6.061 2.273 12.424 4.276 19.077 5.997-1.152 4.934-3.301 11.938-7.222 19.19-9.478 17.532-24.447 27.641-44.489 30.046a8.27 8.27 0 0 0-7.284 8.211v20.95a8.27 8.27 0 1 0 16.54 0v-13.925c21.836-4.552 38.951-17.375 49.783-37.412 4.773-8.83 7.4-17.395 8.819-23.527 18.703 3.373 34.03 3.792 40.459 3.792 1.906 0 3.031-.037 3.232-.044a8.27 8.27 0 0 0 7.807-9.923c-4.047-19.756-5.955-40.087-5.675-60.431a8.27 8.27 0 0 0-8.155-8.383h-.116a8.27 8.27 0 0 0-8.266 8.156 299.509 299.509 0 0 0 4.13 53.911c-23.383-.992-83.186-7.516-113.386-47.363 1.538-6.05 5.004-19.075 10.075-34.614.014-.042.036-.078.051-.12 5.385-16.47 11.087-31.239 16.95-43.907 6.485-14.06 13.119-25.424 19.733-33.791.323-.411.649-.807.975-1.206a107.17 107.17 0 0 0 5.688 3.857c-4.93 5.606-11.273 14.048-16.562 25.11-9.304 19.463-17.052 51.09-1.137 91.235a8.27 8.27 0 0 0 15.89-1.997c2.027-15.82 11.653-59.291 31.603-70.326a8.27 8.27 0 0 0 3.233-11.239 8.27 8.27 0 0 0-11.239-3.234c-4.113 2.275-7.978 5.384-11.59 9.302l-10.08-10.08c5.283-9.94 11.367-17.021 15.064-20.829a106.465 106.465 0 0 0 41.561 8.467c4.605 0 9.065-.315 13.377-.905a251.27 251.27 0 0 0-2.58 8.285c-5.11 17.457-8.614 35.894-10.412 54.801a8.27 8.27 0 1 0 16.464 1.566 286.562 286.562 0 0 1 4.208-28.687c22.778 37.89 62.228 46.873 64.182 47.295a8.265 8.265 0 0 0 8.034-2.711 8.27 8.27 0 0 0 1.426-8.359l-1.323-3.409c-12.438-31.986-17.587-45.227 14.957-68.471 12.721-9.087 15.461-19.996 15.521-27.548.195-25.258-28.373-50.612-39.366-59.43zm-180.437 90.701c-8.034.088-16.225-.44-24.429-1.597a8.27 8.27 0 1 0-2.309 16.379c6.476.913 12.95 1.466 19.368 1.675-3.687 8.848-7.285 18.446-10.756 28.71-3.541.25-7.045.382-10.494.382-35.327-.001-64.977-12.578-71.679-26.173-1.643-3.333-2.994-8.642 4.24-16.236 2.851-3.011 6.239-5.326 10.267-7.041 10.25 5.336 21.369 9.756 33.122 13.142a8.247 8.247 0 0 0 2.293.325 8.27 8.27 0 0 0 2.284-16.219c-11.882-3.423-23.026-7.98-33.126-13.548-21.31-11.723-35.311-26.855-35.671-38.551-.181-5.866 3.18-10.901 10.274-15.392 36.362-23.027 99.557 28.268 121.585 47.933-5.073 7.334-10.086 16.11-14.969 26.211zm39.655 32.954c-3.969 6.992-7.519 15.269-10.616 24.847-.797-11 .364-21.683 3.462-32.001l7.154 7.154zm56.291-52.626c-21.267.001-41.89-7.56-58.077-21.293-14.447-12.242-24.503-28.355-29.081-46.602a8.268 8.268 0 0 0-13.331-4.328c-1.31 1.097-2.669 1.654-4.04 1.654-4.537 0-9.593-6.566-9.593-15.999 0-9.415 5.056-15.977 9.593-15.977 1.142 0 2.28.389 3.382 1.154 3.331 2.318 7.768 1.838 10.546-.926.007-.006.018-.009.024-.016 17.715-17.715 31.563-18.449 52.526-19.561 15.591-.827 34.995-1.856 59.657-11.227 8.881-3.376 22.15-10.888 33.069-17.471 4.867 7.983 8.555 17.467 10.95 28.328 1.752 7.941 2.799 16.543 3.148 25.629-10.269-4.418-22.649-2.448-31.023 5.926a8.269 8.269 0 0 0 0 11.695 8.27 8.27 0 0 0 11.696 0c4.514-4.514 11.858-4.514 16.372 0a8.25 8.25 0 0 0 2.618 1.762c-.224 2.998-.509 5.95-.894 8.813-5.722 42.996-26.916 58.924-43.701 64.718-7.12 2.469-15.141 3.721-23.841 3.721zm98.72 2.489c-36.753 26.252-34.926 48.506-25.86 74.373-14.684-7.1-35.62-21.876-45.459-50.739 2.193-7.213 4.181-12.515 5.397-15.553 24.307-9.798 41.176-31.616 48.509-62.482 11.527 10.602 26.113 27.055 26.01 40.182-.029 3.489-.95 8.757-8.597 14.219z"/><path d="M305.487 167.956c-10.962-10.962-28.8-10.964-39.764 0a8.269 8.269 0 0 0 0 11.695 8.27 8.27 0 0 0 11.696 0c4.515-4.514 11.86-4.513 16.373 0 1.615 1.614 3.732 2.422 5.848 2.422s4.233-.807 5.848-2.422a8.27 8.27 0 0 0-.001-11.695zm39.995 41.541a8.27 8.27 0 0 0-11.696 0c-4.514 4.514-11.858 4.514-16.372 0-3.231-3.23-8.466-3.23-11.696 0s-3.23 8.466 0 11.695c5.482 5.481 12.681 8.222 19.882 8.222 7.2 0 14.4-2.74 19.882-8.222a8.269 8.269 0 0 0 0-11.695zM358.7 61.456a141.942 141.942 0 0 0-8.656-.286c-4.649-11.968-16.319-20.308-29.645-20.308-17.541 0-31.811 14.27-31.811 31.811 0 .73.034 1.457.084 2.18-11.097 5.264-17.55 10.143-18.157 10.612a8.271 8.271 0 0 0 10.102 13.098c.304-.236 31.141-23.578 77.014-20.601 4.547.298 8.492-3.159 8.788-7.718.293-4.558-3.162-8.493-7.719-8.788zm-52.855 6.599c1.963-6.169 7.743-10.653 14.554-10.653 4.377 0 8.376 1.878 11.182 4.897a142.58 142.58 0 0 0-25.736 5.756z"/></svg>