<svg xmlns="http://www.w3.org/2000/svg" viewBox="0 0 512 512"><path d="M424.37 253.343c-.863-4.553-5.251-7.54-9.807-6.682a105.731 105.731 0 0 0-11.107 2.76l.354-4.209a8.391 8.391 0 0 0-7.659-9.064c-4.617-.393-8.676 3.041-9.064 7.658l-1.066 12.684a106.506 106.506 0 0 0-6.663 3.703c-.018.011-.035.025-.053.036-4.381 2.648-11.311 5.34-21.021-1.546-3.973-2.818-7.081-6.324-8.902-8.63 3.004-18.804 2.335-38.912-1.988-59.885 15.253-21.958 20.714-52.832 15.779-89.636-4.245-31.664-15.024-57.612-31.173-75.04C313.462 5.486 288.107-3.002 258.672.942a8.39 8.39 0 1 0 2.229 16.632c57.404-7.694 76.909 41.115 83.496 72.662a12.625 12.625 0 0 1-5.662 2.135 12.593 12.593 0 0 1-9.348-2.617 8.39 8.39 0 0 0-11.781 1.417 8.391 8.391 0 0 0 1.417 11.782c5.242 4.116 11.576 6.294 18.138 6.294a29.656 29.656 0 0 0 9.94-1.709c3.404 31.532-1.973 58.255-15.341 75.605-10.41 13.518-25.688 21.711-45.409 24.353-27.649 3.704-55.478-4.801-76.363-23.333l-.017-.017c-11.105-9.872-19.864-22.34-25.33-36.056a8.39 8.39 0 0 0-13.983-2.559c-1.292 1.412-2.731 2.234-4.249 2.441-4.97.662-11.448-5.673-12.811-15.812-.667-4.985.111-9.957 2.131-13.642.921-1.678 2.93-4.556 6.075-4.974 1.263-.171 2.596.093 3.958.788a8.39 8.39 0 0 0 12.194-7.026c.986-18.443 7.271-36.111 18.18-51.118.079-.1.158-.201.234-.304a96.073 96.073 0 0 1 14.436-15.706 95.382 95.382 0 0 1 21.623-14.172 8.39 8.39 0 0 0 3.973-11.181 8.393 8.393 0 0 0-11.182-3.974 112.076 112.076 0 0 0-20.801 12.872c-9.705-5.093-30.737-14.309-51.897-11.765-15.315 1.844-24.862 10.012-33.285 17.22-7.568 6.473-14.105 12.065-24.366 13.301a8.39 8.39 0 0 0-3.214 15.584c1.164.676 20.017 11.345 49.494 11.345 9.078 0 19.168-1.019 30.054-3.647a111.855 111.855 0 0 0-9.068 30.95c-.863.016-1.723.083-2.578.199-7.623 1.014-14.383 5.947-18.544 13.535-3.759 6.855-5.198 15.355-4.05 23.941 2.55 18.966 16.451 32.242 31.683 30.214a22.677 22.677 0 0 0 4.562-1.11c5.703 11.214 13.33 21.484 22.433 30.235-.603 1.426-1.816 2.562-3.369 2.962-2.702.705-5.467 1.699-8.228 2.957-17.884 8.175-29.87 24.822-32.058 44.529-2.254 20.298 6.094 39.784 22.335 52.128 5.879 4.464 10.863 7.436 13.087 8.696l.158.157c-.826 1.581-1.693 3.007-2.6 4.246-5.352 7.307-10.559 16.097-15.057 25.416-7.162 14.827-28.2 64.768-5.863 98.726-.539 5.47-1.141 16.673 1.103 29.048 4.219 23.266 16.402 40.091 35.232 48.657a8.392 8.392 0 0 0 8.987-1.317 8.397 8.397 0 0 0 2.525-8.729c-2.196-7.355-6.391-26.994-3.582-41.046 3.898.667 7.511.968 10.849.968 16.931 0 26.827-7.625 31.75-13.114 10.532-11.738 13.116-30.007 6.583-46.541-5.608-14.195-16.776-25.016-31.35-30.997.397-.158.782-.321 1.189-.474 23.319-7.305 43.684-16.683 60.531-27.873a8.391 8.391 0 0 0 2.347-11.632 8.39 8.39 0 0 0-11.631-2.347c-15.385 10.219-34.115 18.843-55.671 25.646-18.61 1.913-30.699-9.888-35.674-16.073 3.507-6.754 7.355-13.051 11.275-18.402a44.08 44.08 0 0 0 1.237-1.793c2.779 3.108 4.994 6.057 4.83 7.474 0 .001-.045.143-.272.433a8.39 8.39 0 0 0 1.421 11.782 8.354 8.354 0 0 0 5.174 1.79 8.374 8.374 0 0 0 6.606-3.211c2.922-3.723 6.83-11.582.176-22.383-2.576-4.183-6.386-8.311-10.4-12.342 4.413-13.782 6.921-32.292 7.47-55.203 10.692-2.594 19.981-2.888 20.19-2.894a8.39 8.39 0 0 0 8.177-8.592c-.113-4.633-3.951-8.344-8.592-8.184-.618.015-15.301.424-30.599 5.273-18.034 5.728-29.89 15.523-34.454 28.383a41.07 41.07 0 0 1-.804-13.822c1.532-13.788 9.888-25.42 22.346-31.115 1.878-.856 3.73-1.525 5.474-1.98a21.69 21.69 0 0 0 12.277-8.398c19.005 13.399 41.636 20.595 64.835 20.594 4.975 0 9.982-.33 14.978-1 17.696-2.371 32.577-8.531 44.468-18.335 2.098 15.71 1.841 30.72-.781 44.787-1.904 10.219-5.112 19.981-9.533 29.018-5.575 11.397-13.237 21.935-22.772 31.325a8.39 8.39 0 0 0 11.776 11.957c8.63-8.498 15.905-17.86 21.754-27.897 4.401 1.957 9.004 2.953 13.784 2.953 1.536 0 3.091-.102 4.662-.305 18.607-2.41 33.185-18.671 37.387-23.833 10.953-6.412 21.414-9.334 28.366-10.651 4.549-.861 7.539-5.251 6.678-9.804zM124.478 51.232a96.638 96.638 0 0 1-4.883-.931c3.865-2.654 7.293-5.587 10.551-8.375 7.572-6.479 14.11-12.074 24.38-13.309 13.47-1.621 27.538 3.204 36.601 7.298a112.47 112.47 0 0 0-6.809 8.08c-20.151 8.007-40.274 10.454-59.84 7.237zm66.843 431.969c-4.693-6.233-7.917-14.082-9.638-23.498a83.89 83.89 0 0 1-1.188-9.974c3.542 2.274 7.423 4.243 11.628 5.903-1.734 7.726-2.009 16.948-.802 27.569zm8.247-115.982c-.228.211-.472.414-.694.628-9.142 8.788-13.33 20.007-11.49 30.78 1.614 9.451 7.721 17.435 16.334 21.356a8.378 8.378 0 0 0 3.471.756 8.392 8.392 0 0 0 3.481-16.031c-3.545-1.614-6.067-4.944-6.744-8.908-.736-4.308.685-8.849 4.028-13.063 23.026 3.493 31.362 18.387 33.934 24.897 4.217 10.673 2.856 22.121-3.467 29.168-6.788 7.566-18.703 9.486-33.547 5.409-11.231-3.086-19.759-8.407-25.353-15.816-.02-.028-.037-.057-.058-.085-9.292-12.339-13.427-37.277.242-72.05 4.805 4.657 11.433 9.681 19.863 12.959zm-14.59-100.881c1.678-5.608 5.962-10.338 12.765-14.138-.601 13.592-1.99 25.378-4.114 34.989-6.832-7.691-10.579-14.395-8.651-20.851zm164.797 14.654c-3.063.396-5.974.031-8.793-1.08a128.522 128.522 0 0 0 3.823-10.492 53.67 53.67 0 0 0 3.308 2.617c3.551 2.579 7.196 4.518 10.88 5.812-2.968 1.574-6.088 2.738-9.218 3.143z"/><path d="M279.774 95.721a8.392 8.392 0 0 0-11.782 1.417 12.595 12.595 0 0 1-8.461 4.759 12.613 12.613 0 0 1-9.348-2.617 8.393 8.393 0 0 0-11.782 1.417 8.396 8.396 0 0 0 1.42 11.783c5.242 4.116 11.576 6.294 18.138 6.294 1.187 0 2.382-.072 3.578-.215 7.815-.94 14.796-4.868 19.655-11.058a8.388 8.388 0 0 0-1.418-11.78zm43.772 45.971c-3.646-2.861-8.92-2.229-11.782 1.417a12.595 12.595 0 0 1-8.46 4.759 12.58 12.58 0 0 1-9.348-2.617 8.39 8.39 0 0 0-10.363 13.199c5.242 4.116 11.576 6.295 18.138 6.295 1.187 0 2.382-.072 3.578-.216 7.814-.94 14.796-4.867 19.655-11.057a8.39 8.39 0 0 0-1.418-11.78zm-33.629-72.626c-2.903 2.787-3.373 7.357-1.169 10.71 1.977 2.892 5.604 4.337 9.022 3.476 3.411-.859 5.953-3.826 6.309-7.319.773-7.597-8.674-12.132-14.162-6.867zm-13.87 181.439c-1.551-3.548-5.51-5.634-9.315-4.851-3.638.684-6.417 3.865-6.728 7.529-.285 3.371 1.58 6.661 4.595 8.18 3.256 1.64 7.305.951 9.827-1.681 2.321-2.425 2.963-6.105 1.621-9.177zm51.295-14.258c-3.109-1.978-7.31-1.633-10.055.821-3.07 2.745-3.721 7.488-1.409 10.924 1.985 2.9 5.583 4.337 9.016 3.48 3.209-.8 5.688-3.495 6.239-6.753.557-3.292-.983-6.685-3.791-8.472z"/></svg>