<svg xmlns="http://www.w3.org/2000/svg" viewBox="0 0 512.001 512.001"><path d="M306.705 193.619a8.25 8.25 0 0 0-11.667 0c-4.502 4.502-11.83 4.504-16.335 0a8.248 8.248 0 0 0-11.667 0 8.251 8.251 0 0 0 0 11.668c5.469 5.468 12.651 8.202 19.834 8.202s14.366-2.733 19.834-8.203a8.248 8.248 0 0 0 .001-11.667z"/><path d="M424.185 164.46l-34.136-4.096.846-.961a8.25 8.25 0 0 0-12.385-10.901l-8.341 9.478-15.113-1.814c.168-3.231.266-6.512.266-9.858 0-20.278-3.111-38.496-9.084-53.832l.422-15.819C347.692 37.96 318.275 4.662 279.689.852c-24.769-2.446-50.04.406-73.087 8.244a8.252 8.252 0 0 0 5.313 15.623c26.325-8.955 50.502-8.991 66.152-7.446 26.018 2.57 46.666 22.368 51.185 47.192-14.63-15.938-34.886-24.304-59.181-24.304-47.794 0-89.326 31.904-102.122 77.108a21.154 21.154 0 0 0-2.152-.109c-14.621 0-26.075 14.254-26.075 32.45 0 1.937.137 3.826.387 5.662-11.018 4.194-22.938 17.648-36.594 41.078a338.15 338.15 0 0 0-5.01 8.912c1.915-24.194 5.739-45.728 11.542-65.172 11.371-38.099 30.785-68.671 57.704-90.868a138.349 138.349 0 0 1 16.502-11.682 8.25 8.25 0 0 0-8.518-14.13 154.851 154.851 0 0 0-18.481 13.081c-29.492 24.319-50.694 57.587-63.02 98.88-9.207 30.848-13.682 66.432-13.682 108.784a8.252 8.252 0 0 0 8.254 8.251 8.252 8.252 0 0 0 7.599-5.048c.091-.219 9.329-22.052 21.364-42.699 15.237-26.141 24.231-32.396 28.158-33.828 4.746 6.91 11.826 11.23 19.87 11.23 1.401 0 2.79-.135 4.151-.401 8.522 24.248 25.35 44.016 46.753 56.446h-15.699c-2.977 0-5.576 1.582-7.027 3.943-.014.022-.033.038-.047.062-1.261 2.101-30.876 52.473-30.876 140.644a8.25 8.25 0 0 0 16.5 0c0-39.753 6.439-71.557 13.2-94.002v100.602a8.25 8.25 0 0 0 8.25 8.25h20.45l8.324 52.718-30.296 49.099a8.249 8.249 0 0 0 7.02 12.581h29.7a8.25 8.25 0 0 0 0-16.5h-14.916l24.136-39.118a8.255 8.255 0 0 0 1.128-5.619l-8.394-53.163h49.128l8.324 52.718-30.296 49.099a8.249 8.249 0 0 0 7.02 12.581h29.7a8.25 8.25 0 0 0 0-16.5h-14.916l24.136-39.118a8.249 8.249 0 0 0 1.127-5.619l-8.394-53.163h19.112a8.25 8.25 0 0 0 8.25-8.25v-84.654a8.25 8.25 0 0 0-16.5 0v13.704h-73.699v-63.799h73.699v25.896a8.25 8.25 0 0 0 16.5 0v-34.146a8.25 8.25 0 0 0-8.25-8.25h-5.046c6.665-4.788 12.543-10.738 17.533-17.815 8.957-12.704 14.977-28.915 17.828-47.699l68.801 8.257a8.254 8.254 0 0 0 9.175-7.209c.551-4.525-2.677-8.632-7.201-9.176zM241.154 334.901h73.699v46.2h-28.05v-12.65a8.25 8.25 0 0 0-16.5 0v12.65h-29.15v-46.2zm-16.5 46.2h-15.4v-46.2h15.4v46.2zm0-62.7h-15.4v-63.799h15.4v63.799zm113.977-164.208l-51.945-6.234a8.25 8.25 0 1 0-1.966 16.382l52.255 6.271c-4.589 29.201-19.789 65.344-66.903 65.344-41.176 0-76.93-27.853-86.948-67.734a8.247 8.247 0 0 0-8-6.24 8.254 8.254 0 0 0-5.289 1.917c-1.317 1.1-2.675 1.657-4.036 1.657-4.529 0-9.575-6.55-9.575-15.95 0-9.399 5.047-15.95 9.575-15.95 1.13 0 2.269.393 3.388 1.167a8.248 8.248 0 0 0 12.802-5.254c5.4-28.604 24.133-51.882 49.029-63.945a175.574 175.574 0 0 0 3.65 15.811 8.254 8.254 0 0 0 7.939 6.022 8.25 8.25 0 0 0 7.946-10.482 158.816 158.816 0 0 1-3.803-17.24 89.04 89.04 0 0 1 8.103-1.774c.513 4.81 1.533 12.016 3.507 19.294 6.588 24.296 18.506 29.395 27.344 29.395 10.128 0 18.508-4.594 24.236-13.284a8.251 8.251 0 0 0-13.777-9.082c-2.637 4.001-5.961 5.865-10.46 5.865-7.46 0-12.825-18.283-14.433-33.476 60.93.808 67.552 62.851 67.552 89.631a168.118 168.118 0 0 1-.191 7.889z"/><path d="M257.104 108.303a8.25 8.25 0 0 0-8.25 8.25v13.2a8.25 8.25 0 0 0 16.5 0v-13.2a8.25 8.25 0 0 0-8.25-8.25zm54.999 0a8.25 8.25 0 0 0-8.25 8.25v13.2a8.25 8.25 0 0 0 16.5 0v-13.2a8.25 8.25 0 0 0-8.25-8.25z"/></svg>