<svg xmlns="http://www.w3.org/2000/svg" viewBox="0 0 511.998 511.998"><path d="M368.134 397.732a8.653 8.653 0 0 0-10.306 6.596c-4.984 22.709-8.964 36.839-9.005 36.978a7.24 7.24 0 0 0-.099.385l-9.998 42.735c-1.482-1.815-3.11-4.477-5.246-8.246-5.58-9.847-13.217-23.325-32.003-23.325-.706.003-1.513.095-2.204.26-10.5 2.506-19.923 8.51-26.53 16.9-.746.946-1.494 1.914-2.253 2.893-8.667 11.205-16.852 21.787-38.159 21.787-21.411 0-28.691-7.564-37.123-16.323-6.912-7.181-14.746-15.32-29.582-17.532l-.156-.022-1.592-.208-.204-.024-1.013-.107-.133-.013c-17.482-1.523-31.069 6.865-43.063 14.265-13.462 8.306-22.282 13.23-33.491 9.932-7.244-2.131-11.62-6.898-13.769-14.997-2.687-10.162-.195-21.416 6.659-30.099 34.413-43.532 45.239-115.868 50.375-190.254 4.747 5.005 9.572 9.937 14.303 14.772 14.227 14.541 33.713 34.457 33.429 41.833a8.652 8.652 0 0 0 8.315 8.977c.113.003.225.006.337.006a8.652 8.652 0 0 0 8.639-8.321c.568-14.816-15.758-31.503-38.352-54.596-26.815-27.406-60.186-61.515-52.072-85.468 2.14-6.32 5.087-6.918 6.345-7.173 17.07-3.463 59.179 33.68 83.623 61.164 3.175 3.57 8.645 3.891 12.214.716a8.652 8.652 0 0 0 .719-12.213c-.649-.731-16.128-18.089-35.568-34.985-13.877-12.062-26.043-20.683-36.647-25.949.568-10 1.097-17.922 1.677-25.128 1.7-21.208 7.574-40.037 17.458-55.96 9.791-15.756 23.69-28.657 40.189-37.304a8.654 8.654 0 0 0 3.648-11.68c-2.218-4.232-7.45-5.865-11.68-3.646-19.232 10.08-35.434 25.121-46.855 43.501-11.353 18.291-18.086 39.725-20.007 63.704-.495 6.14-.952 12.775-1.425 20.712-3.874-.6-7.464-.563-10.78.11-6.37 1.291-14.888 5.562-19.298 18.579-7.773 22.948 6.048 47.123 25.595 70.372-4.34 73.834-13.613 154.313-47.758 197.505-10.212 12.937-13.88 29.852-9.808 45.254 3.697 13.933 12.553 23.327 25.612 27.169 19.183 5.642 34.205-3.629 47.46-11.807 10.629-6.558 20.661-12.754 32.406-11.759l2.191.266c8.959 1.357 13.423 5.994 19.593 12.405 9.275 9.636 20.816 21.627 49.589 21.627 29.798 0 42.54-16.474 51.844-28.503.723-.937 1.438-1.861 2.156-2.77 4.018-5.102 9.685-8.821 16.038-10.546 7.66.359 10.84 5.332 16.054 14.531 4.87 8.595 11.541 20.366 26.378 20.366a8.65 8.65 0 0 0 8.424-6.681l12.299-52.577c.526-1.875 4.358-15.72 9.201-37.783 1.03-4.664-1.923-9.277-6.591-10.301z"/><path d="M355.278 155.761c-9.761-9.685-24.931-9.57-42.495-9.429-4.148.032-8.531.032-12.678 0-17.562-.14-32.733-.255-42.495 9.429-5.561 5.519-8.265 13.198-8.265 23.478 0 31.484 25.615 57.099 57.099 57.099s57.099-25.615 57.099-57.099c0-10.28-2.704-17.959-8.265-23.478zm-48.835 63.275c-10.122-.001-19.369-3.807-26.4-10.054 7.21-6.432 16.509-10.024 26.406-10.024 9.893 0 19.188 3.592 26.396 10.026-7.031 6.247-16.278 10.052-26.402 10.052zm36.577-24.127c-10.15-8.518-22.966-13.256-36.57-13.256-13.61 0-26.429 4.738-36.581 13.256a39.569 39.569 0 0 1-3.22-15.669c-.001-8.07 2.369-10.422 3.148-11.195 3.965-3.935 13.578-4.44 24.473-4.44 1.869 0 3.777.015 5.699.03 4.237.032 8.712.032 12.949 0 13.124-.103 25.527-.198 30.172 4.41.779.773 3.149 3.124 3.149 11.195a39.537 39.537 0 0 1-3.219 15.669zm-49.26-75.827c-.486-7.364-3.808-14.099-9.357-18.963-5.55-4.866-12.661-7.274-20.025-6.794-7.364.483-14.099 3.807-18.963 9.355-4.865 5.549-7.278 12.66-6.794 20.025a8.653 8.653 0 0 0 17.267-1.134c-.181-2.752.721-5.409 2.539-7.483s4.335-3.315 7.087-3.496c2.754-.18 5.41.721 7.483 2.539a10.257 10.257 0 0 1 3.496 7.087c.313 4.768 4.438 8.379 9.201 8.066 4.768-.315 8.38-4.435 8.066-9.202z"/><path d="M455.944 160.964c-4.071-12.02-11.696-16.483-17.375-18.109-11.907-3.409-27.507 1.878-47.449 16.129C379.06 79.525 344.932 28.8 289.526 8.151c-23.365-8.707-48.488-10.478-72.653-5.122a8.65 8.65 0 0 0-6.574 10.319 8.65 8.65 0 0 0 10.319 6.574c20.897-4.632 42.637-3.096 62.867 4.443 31.364 11.689 55.097 34.778 71.038 68.918-.93-.032-1.865-.02-2.805.043-7.364.483-14.099 3.807-18.963 9.355-4.865 5.549-7.278 12.66-6.794 20.025a8.653 8.653 0 0 0 17.267-1.134c-.181-2.752.721-5.409 2.539-7.483s4.335-3.315 7.087-3.496c2.751-.18 5.409.721 7.483 2.539s3.315 4.335 3.496 7.087a8.611 8.611 0 0 0 2.627 5.647c4.159 14.817 7.272 31.095 9.322 48.829 8.078 69.866-2.078 147.608-12.021 200.523a8.652 8.652 0 0 0 8.513 10.251c4.08 0 7.713-2.9 8.494-7.055 5.692-30.289 11.444-68.577 13.945-109.052 1.702-1.749 3.424-3.513 5.177-5.305 31.673-32.386 67.576-69.088 56.054-103.093zm-60.121 82.466c.511-21.57-.063-43.401-2.206-64.662 9.892-7.733 30.138-22.158 40.188-19.278 1.021.292 3.733 1.069 5.75 7.026 7.291 21.519-18.899 51.23-43.732 76.914z"/></svg>