<svg xmlns="http://www.w3.org/2000/svg" viewBox="0 0 512 512"><path d="M245.826 167.901c-10.882-10.883-28.591-10.882-39.472 0a8.21 8.21 0 0 0 11.61 11.612c4.481-4.48 11.768-4.481 16.251 0a8.186 8.186 0 0 0 5.805 2.405 8.186 8.186 0 0 0 5.807-2.405 8.21 8.21 0 0 0-.001-11.612zm59.822 0c-10.881-10.882-28.59-10.883-39.472 0a8.21 8.21 0 0 0-.001 11.612c3.208 3.206 8.407 3.206 11.611 0 4.482-4.481 11.77-4.48 16.251 0 1.603 1.603 3.705 2.405 5.805 2.405s4.203-.801 5.807-2.405a8.21 8.21 0 0 0-.001-11.612z"/><path d="M438.998 160.467c0-24.721-39.607-38.551-72.832-45.8a8.211 8.211 0 0 0-3.501 16.044c41.163 8.98 59.912 21.719 59.912 29.755 0 7.647-18.18 21.738-67.277 31.272-.164-14.561-9.47-26.572-21.459-28.386-1.355-7.487-3.36-14.729-5.984-21.609a8.211 8.211 0 0 0-6.809-5.239c-20.501-2.167-42.385-3.265-65.047-3.265s-44.546 1.098-65.047 3.265a8.211 8.211 0 0 0-6.809 5.239c-2.624 6.883-4.63 14.124-5.984 21.609-11.99 1.815-21.295 13.824-21.459 28.386-49.096-9.534-67.277-23.626-67.277-31.272 0-10.602 32.229-28.999 103.884-36.71 19.919-2.148 41.011-3.237 62.693-3.237 21.681 0 42.773 1.089 62.694 3.237 7.23.778 14.333 1.701 21.111 2.743 4.471.689 8.674-2.384 9.363-6.867a8.212 8.212 0 0 0-6.867-9.363 478.636 478.636 0 0 0-17.111-2.303L263.047 3.998a8.21 8.21 0 0 0-14.094 0l-62.143 103.97c-32.108 3.815-113.807 17.033-113.807 52.499 0 12.585 11.548 35.416 87.723 48.717 2.425 5.893 6.204 12.965 10.999 18.166-3.961 1.729-8.253 2.545-13.157 2.545a8.21 8.21 0 0 0-5.677 14.142c.625.599 14.338 13.491 37.783 18.01.044.646.095 1.326.158 2.036l-7.117 42.033c-1.742 2.516-6.355 8.737-13.125 14.57-10.891 9.381-21.753 13.034-32.296 10.852a8.21 8.21 0 0 0-9.875 8.041v4.926h-9.339L95.344 255.36a8.21 8.21 0 1 0-15.867 4.224l20.282 76.171a8.184 8.184 0 0 0-2.623.324 8.21 8.21 0 0 0-5.56 10.194l5.474 18.611a8.212 8.212 0 0 0 7.873 5.896 8.195 8.195 0 0 0 3.899-.986l1.261 4.738a8.214 8.214 0 0 0 7.928 6.1 8.209 8.209 0 0 0 7.939-10.324l-2.498-9.382h4.967v25.726a8.211 8.211 0 0 0 7.14 8.141c.366.048 2.777.345 6.455.344 6.635 0 17.386-.966 27.656-6.092l-19.195 113.374a8.207 8.207 0 0 0 8.096 9.581h194.864a8.212 8.212 0 0 0 8.096-9.581L342.34 389.073c10.256 5.103 20.98 6.065 27.603 6.065 3.678 0 6.092-.297 6.458-.345a8.212 8.212 0 0 0 7.139-8.141v-25.727h4.379v142.864c0 4.534 3.675 8.211 8.211 8.211s8.211-3.676 8.211-8.211V368.561c.182.012.362.027.547.027a8.21 8.21 0 0 0 8.211-8.211V347.24a8.21 8.21 0 0 0-8.211-8.211c-.185 0-.366.015-.547.027V278.82h4.379c4.536 0 8.211-3.676 8.211-8.211s-3.675-8.211-8.211-8.211h-4.379v-3.48c10.785-3.477 18.611-13.604 18.611-25.53 0-14.789-12.031-26.821-26.821-26.821s-26.821 12.032-26.821 26.821c0 11.926 7.825 22.055 18.611 25.53v3.48h-4.379c-4.536 0-8.211 3.676-8.211 8.211s3.675 8.211 8.211 8.211h4.379v65.685h-4.379v-4.926a8.21 8.21 0 0 0-9.875-8.041c-22.758 4.71-41.29-19.536-45.366-25.355l-5.52-32.613c.305-3.908.342-7.865.089-11.84 22.505-4.775 35.634-17.108 36.241-17.688a8.209 8.209 0 0 0-5.675-14.144c-4.903 0-9.195-.817-13.156-2.545 4.798-5.206 8.58-12.282 11-18.167 76.168-13.304 87.718-36.134 87.718-48.719zM256.001 24.215l48.869 81.764c-15.793-1.248-32.167-1.879-48.869-1.879-16.703 0-33.078.631-48.87 1.879l48.87-81.764zm129.726 209.173c0-5.734 4.666-10.4 10.4-10.4s10.4 4.666 10.4 10.4-4.666 10.4-10.4 10.4-10.4-4.666-10.4-10.4zm-205.842 8.273c4.349-2.099 8.428-4.917 12.278-8.47 5.223-4.821 9.422-10.416 13.129-15.352 5.182-6.902 9.659-12.864 14.988-14.639 9.847-3.283 20.522 5.073 25.875 10.187-6.534 12.528-21.34 33.794-39.146 33.794-2.511 0-5.007-.131-7.434-.392a68.57 68.57 0 0 1-19.69-5.128zM144.84 378.678v-30.114c11.496-.161 23.04-4.69 33.948-13.36l-4.903 28.958c-7.649 11.524-20.862 14.114-29.045 14.516zm222.277-30.114v30.113c-8.169-.401-21.328-2.981-28.99-14.42l-4.911-29.016c10.896 8.645 22.42 13.163 33.901 13.323zm-23.403 147.009h-79.503v-37.846c0-4.534-3.675-8.211-8.211-8.211s-8.211 3.676-8.211 8.211v37.852h-79.505l33.3-196.647c4.122 6.664 9.761 12.812 17.493 17.301 12.068 7.011 15.592 16.052 16.423 22.403.934 7.131-1.163 14.462-5.416 18.792l-.083.084-.01.01-.001.001a1.918 1.918 0 0 0-.063.066h-.001c-.005.007-.012.012-.018.019h-.001a.026.026 0 0 1-.009.009l-.009.009-.001.001-.009.009-.001.001a.057.057 0 0 1-.008.009l-.002.002-.007.008-.003.003-.007.005-.004.004a.018.018 0 0 1-.004.005.018.018 0 0 0-.004.005l-.004.004-.005.005a.008.008 0 0 1-.004.004l-.004.005-.004.003-.005.005-.003.004-.005.005-.003.004-.005.005a.008.008 0 0 0-.004.004l-.005.007-.003.003-.007.007-.002.002-.008.008-.001.001-.008.009-.001.001c-.003.003-.005.007-.009.009l-.001.001a.057.057 0 0 1-.008.009l-.001.001-.008.009-.001.001-.008.009-.001.001c-2.849 3.22-2.725 8.119.318 11.198l.002.003.005.005.005.005.003.002.06.059c.357.353.739.667 1.14.94l.009.005.007.004.001.001a8.189 8.189 0 0 0 5.348 1.379l.013-.001.011-.001.013-.001a8.231 8.231 0 0 0 2.551-.663l.001-.001.013-.005a.061.061 0 0 0 .012-.005h.001l.061-.027c.888-.381 3.983-1.744 8.494-4.084v65.923c0 4.534 3.675 8.211 8.211 8.211s8.211-3.676 8.211-8.211v-75.508c8.121-5.28 17.249-12.07 25.867-20.378a8.212 8.212 0 0 0-11.399-11.822c-8.895 8.576-18.53 15.429-26.668 20.475.228-2.904.16-5.865-.227-8.81-1.849-14.143-10.536-26.385-24.459-34.473-14.967-8.691-18.984-27.801-20.046-38.435 23.123-.154 39.772-20.166 48.721-34.461 8.983 14.351 25.726 34.467 48.99 34.467.51 0 1.018-.013 1.527-.022a66.94 66.94 0 0 1-.177 9.607c-1.164 12.518-5.983 24.758-14.324 36.378a8.21 8.21 0 1 0 13.341 9.576 104.665 104.665 0 0 0 6.691-10.576l10.18 60.144c.004.025.016.048.021.072l21.465 126.799zm-30.805-248.84a68.75 68.75 0 0 1-7.918.449c-17.806 0-32.611-21.266-39.146-33.794 5.352-5.114 16.027-13.471 25.878-10.187 5.327 1.775 9.803 7.735 14.987 14.639 3.706 4.936 7.906 10.529 13.129 15.353 3.847 3.55 7.923 6.366 12.269 8.466a68.64 68.64 0 0 1-19.199 5.074zm24.516-47.388c-2.728 8.385-7.396 15.235-10.215 17.904-2.604-2.932-5.017-6.132-7.37-9.266-6.262-8.341-12.738-16.965-22.926-20.358-12.452-4.15-24.084.378-32.702 6.06v-2.654c0-4.534-3.675-8.211-8.211-8.211s-8.211 3.676-8.211 8.211v2.649c-8.617-5.683-20.249-10.211-32.7-6.06-10.191 3.394-16.666 12.018-22.928 20.358-2.354 3.134-4.766 6.335-7.371 9.267-2.818-2.669-7.488-9.523-10.223-17.932-.928-2.818-1.46-5.438-1.46-7.186-.002-3.658 1.051-6.763 2.582-8.977l-.106.971a8.21 8.21 0 0 0 16.325 1.779l1.426-13.083v-.009c.858-7.092 2.361-13.963 4.484-20.49 18.437-1.763 37.98-2.656 58.18-2.656s39.744.893 58.18 2.656c2.121 6.521 3.622 13.389 4.483 20.479l.001.021 1.428 13.083a8.213 8.213 0 0 0 9.053 7.273 8.21 8.21 0 0 0 7.272-9.052l-.106-.97c1.531 2.215 2.584 5.32 2.584 8.977 0 1.751-.532 4.37-1.469 7.216z"/></svg>