<svg xmlns="http://www.w3.org/2000/svg" viewBox="0 0 512.001 512.001"><path d="M491.802 3.309A8.153 8.153 0 0 0 481.656.834L377.044 52.118V14.525a8.157 8.157 0 0 0-8.677-8.137c-1.107.072-11.106.923-21.286 8.796a45.933 45.933 0 0 0-4.793 4.288v-1.958a8.159 8.159 0 0 0-2.563-5.936 8.147 8.147 0 0 0-6.079-2.202c-1.124.067-25.873 1.894-37.1 28.777-12.913-.74-41.693-.013-65.04 17.734-18.074 13.739-28.879 34.528-32.116 61.791-4.242 35.781-.531 63.403 2.181 83.571 3.715 27.638 4.484 39.139-8.158 48.654a95.196 95.196 0 0 0-32.263-9.755c-8.476-35.592-32.297-55.098-67.658-55.098a8.153 8.153 0 0 0 0 16.306c16.808 0 29.949 5.379 39.058 15.988 5.823 6.78 9.405 14.98 11.608 22.392-8.841.579-17.562 2.509-25.926 5.695-17.033-14.647-36.827-16.102-54.953-3.806a8.152 8.152 0 0 0-2.17 11.325 8.153 8.153 0 0 0 11.325 2.17c9.929-6.735 19.772-7.236 29.374-1.544-6.24 3.882-12.143 8.522-17.582 13.867-17.344 17.046-27.604 38.922-28.891 61.596-1.468 25.687 7.427 50.617 24.55 69.445-7.907 12.99-22.038 19.402-33.414 22.545 6.375-14.379 10.515-38.033-2.357-72.323-16.97-45.194-11.025-115.786 22.079-139.065a8.154 8.154 0 0 0-9.38-13.339c-19.322 13.589-32.349 39.423-36.678 72.743-3.759 28.929-.5 60.852 8.716 85.394 18.719 49.869-3.98 70.698-4.885 71.502a8.154 8.154 0 0 0 5.5 14.383c1.855-.055 42.644-1.621 62.582-30.596 13.414 13.414 47.614 21.428 51.899 22.571v71.549a8.153 8.153 0 0 0 8.153 8.153h55.313a8.153 8.153 0 0 0 8.153-8.153v-72.713a228.686 228.686 0 0 0 21.66 1.007c19.738 0 36.829-2.342 47.068-4.145v75.851a8.153 8.153 0 0 0 8.153 8.153h62.683a8.153 8.153 0 0 0 8.153-8.153V386.544c14.039-13.389 23.726-29.165 28.814-46.95a8.153 8.153 0 1 0-15.676-4.487c-4.576 15.99-13.638 30.116-26.941 41.989-7.083 6.329-15.486 12.097-24.975 17.145a8.155 8.155 0 0 0-4.326 7.199v70.173H300.6v-93.351a8.153 8.153 0 0 0-16.306 0v33.14c-12.903 2.422-44.025 7.03-75.725 2.492-8.872-1.271-17.236-3.187-24.86-5.696a8.154 8.154 0 0 0-10.703 7.645v56.825h-12.752v-46.8a8.161 8.161 0 0 0-6.593-8.002c-.094-.018-27.899-8.377-30.501-9.332a78.82 78.82 0 0 1-27.13-16.846c-16.842-15.978-25.739-38.473-24.411-61.72 2.192-38.59 36.699-72.514 75.362-74.077a80.23 80.23 0 0 1 7.056.02c12.55.6 24.903 4.253 35.729 10.568a78.901 78.901 0 0 1 11.365 8.034c11.286 9.563 27.477 11.37 40.283 4.503.812-.434 2.758-1.633 2.758-1.633 33.58-20.608 26.217-50.538 18.42-82.225-2.809-11.418-5.714-23.225-7.442-36.126a8.154 8.154 0 0 0-16.162 2.164c1.845 13.776 4.993 26.57 7.77 37.858 8.316 33.803 11.319 50.663-11.148 64.452-.254.158-1.457.894-1.893 1.135-6.963 3.734-15.823 2.703-22.037-2.562a94.36 94.36 0 0 0-3.867-3.095c15.885-15.412 13.207-35.457 9.922-59.904-2.74-20.381-6.149-45.746-2.149-79.478 2.69-22.65 11.333-39.694 25.694-50.656 17.231-13.153 39.049-14.832 50.92-14.611a86.6 86.6 0 0 0-.747 6.841c-5.906 1.637-14.833 4.917-23.733 11.244-13.859 9.85-30.379 29.134-30.379 65.06a8.153 8.153 0 0 0 16.306 0c0-54.596 44.904-61.372 46.782-61.63a8.153 8.153 0 0 0 7.117-8.087c0-6.955.8-13.218 2.378-18.613 3.508-11.972 10.431-17.866 16.06-20.755v36.574c0 .201.016.398.03.596-.026.973-.03 1.888-.03 2.622a8.153 8.153 0 0 0 16.306 0c0-.984.008-1.937.05-2.979.499-17.048 5.236-29.366 14.078-36.613a28.467 28.467 0 0 1 4.319-2.923v34.946a31.951 31.951 0 0 0-13.126 22.062c-1.337 10.665 2.722 21.176 10.861 28.129.235.206.457.396.66.561 5.771 4.747 12.809 7.076 19.856 7.076a32.14 32.14 0 0 0 20.416-7.335c1.235 1.799 2.469 3.579 3.701 5.349-11.178 3.522-18.968 14.339-18.174 26.541a8.153 8.153 0 0 0 8.666 7.607 8.154 8.154 0 0 0 7.607-8.665c-.349-5.357 3.723-10.005 9.083-10.36a9.697 9.697 0 0 1 3.981.586c8.2 11.295 16.284 21.888 24.18 31.676 6.04 7.483 10.346 15.189 12.894 22.869a8.032 8.032 0 0 0-2.264 1.088c-2.879 1.992-4.142 5.706-3.142 9.052 1.013 3.391 4.258 5.793 7.799 5.793.121 0 .237-.025.358-.03.095 8.868-2.291 17.451-7.217 25.34-13.123 21.004-40.077 30.964-67.074 24.781-6.611-1.517-13.17-3.984-19.497-7.335-53.903-28.566-76.624-62.156-79.914-84.064-2.512-16.726 3.973-32.967 19.276-48.269a8.153 8.153 0 1 0-11.53-11.53c-19.163 19.163-27.194 40.096-23.872 62.221 7.448 49.601 69.549 86.059 88.406 96.053a97.517 97.517 0 0 0 18.628 7.55c3.825 9.273 8.036 22.983 8.539 39.218a8.154 8.154 0 0 0 16.3-.505c-.424-13.674-3.133-25.762-6.272-35.425 1.943.132 3.88.204 5.805.204 26.768-.001 51.486-12.571 65.035-34.258 15.688-25.11 12.112-56.136-9.566-82.992-12.953-16.057-26.441-34.35-40.145-54.436l80.194-85.43a8.16 8.16 0 0 0 .613-10.431zM336.484 406.256a151.485 151.485 0 0 0 10.491-6.573v71.931h-10.491v-65.358zm0 81.665h10.491v7.773h-10.491v-7.773zm-35.886 0h19.579v7.773h-19.579v-7.773zm-111.288-61.17c3.236.801 6.553 1.518 9.947 2.142v43.776h-9.947v-45.918zm0 62.224h9.947v6.718h-9.947v-6.718zm-29.059 0h12.752v6.718h-12.752v-6.718zM369.459 98.748c-.097-.08-.186-.16-.283-.244l-.088-.076c-4.03-3.43-5.96-8.431-5.296-13.722.674-5.37 3.84-9.813 8.687-12.189l.5-.245c-.365 7.56.404 17.43 3.793 29.693-2.619-.386-5.152-1.44-7.313-3.217zm40.059-21.836l-17.556 18.703c-4.4-17.305-2.409-27.885-1.139-32.089l19.608-9.613c-1.564 7.025-2.368 15.139-.913 22.999zm16.424-17.497c1.16-6.138 3.223-11.82 4.844-15.483l17.949-8.799-22.793 24.282z"/><path d="M402.489 196.215c-5.489 4.864-1.91 14.245 5.414 14.245 4.059 0 7.612-3.115 8.09-7.154.864-7.291-7.977-11.987-13.504-7.091zm-29.877-49.426c-.456-6.94-3.588-13.287-8.817-17.871-5.23-4.585-11.932-6.856-18.871-6.403-14.326.94-25.216 13.362-24.275 27.688a8.154 8.154 0 0 0 16.272-1.067c-.352-5.355 3.718-9.997 9.071-10.348a9.655 9.655 0 0 1 7.052 2.393 9.665 9.665 0 0 1 3.295 6.679c.295 4.493 4.181 7.898 8.671 7.601a8.156 8.156 0 0 0 7.602-8.672z"/></svg>