<svg xmlns="http://www.w3.org/2000/svg" viewBox="0 0 496 496"><path d="M456 176h-40v320h40c22.056 0 40-17.944 40-40V216c0-22.056-17.944-40-40-40zm24 280c0 13.232-10.768 24-24 24h-24V192h24c13.232 0 24 10.768 24 24v240z"/><path d="M448 304h16v64h-16zM64 192v-16H40c-22.056 0-40 17.944-40 40v240c0 22.056 17.944 40 40 40h360v-16H64V192zM48 480h-8c-13.232 0-24-10.768-24-24V216c0-13.232 10.768-24 24-24h8v288zM392 80c-10.416 0-19.216 6.712-22.528 16H248V46.528c9.288-3.312 16-12.112 16-22.528 0-13.232-10.768-24-24-24s-24 10.768-24 24c0 10.416 6.712 19.216 16 22.528V96H110.528C107.216 86.712 98.416 80 88 80c-13.232 0-24 10.768-24 24s10.768 24 24 24c10.416 0 19.216-6.712 22.528-16H369.48c3.312 9.288 12.112 16 22.528 16 13.232 0 24-10.768 24-24S405.232 80 392 80zM88 112c-4.408 0-8-3.592-8-8s3.592-8 8-8 8 3.592 8 8-3.592 8-8 8zm152-80c-4.408 0-8-3.592-8-8s3.592-8 8-8 8 3.592 8 8-3.592 8-8 8zm152 80c-4.408 0-8-3.592-8-8s3.592-8 8-8c4.408 0 8 3.592 8 8s-3.592 8-8 8z"/><path d="M112 128v180.8l120 64V416h-80c-13.232 0-24 10.768-24 24v24h224v-24c0-13.232-10.768-24-24-24h-80v-43.2l120-64V128h-16v171.2l-112 59.736L128 299.2V128h-16zm216 304c4.408 0 8 3.592 8 8v8H144v-8c0-4.408 3.592-8 8-8h176z"/><path d="M144 128v161.6l96 51.2 96-51.2V128h-16v152l-80 42.664L160 280V128z"/></svg>