<svg xmlns="http://www.w3.org/2000/svg" viewBox="0 0 496 496"><path d="M478.248 480l-8-32h-16.976l-24-56h-56.584l-32 32H291.88l-40 56H0v16h496v-16h-17.752zm-206.704 0l28.576-40h47.192l32-32h39.416l24 56h15.024l4 16H271.544z"/><path d="M80 184c0-92.64 75.36-168 168-168s168 75.36 168 168v192h16V184C432 82.544 349.456 0 248 0S64 82.544 64 184v280h16V184z"/><path d="M336 344v-67.232C361.464 252.6 376 219 376 184c0-70.576-57.424-128-128-128s-128 57.424-128 128c0 35 14.536 68.6 40 92.768V344h176zM136 184c0-61.76 50.24-112 112-112s112 50.24 112 112c0 31.664-13.608 62.024-37.336 83.304L320 269.688V328h-16v-32h-16v32h-16v-32h-16v32h-16v-32h-16v32h-16v-32h-16v32h-16v-58.312l-2.664-2.384C149.608 246.024 136 215.664 136 184z"/><path d="M200 208c17.648 0 32-14.352 32-32s-14.352-32-32-32-32 14.352-32 32 14.352 32 32 32zm0-48c8.824 0 16 7.176 16 16s-7.176 16-16 16-16-7.176-16-16 7.176-16 16-16zM296 208c17.648 0 32-14.352 32-32s-14.352-32-32-32-32 14.352-32 32 14.352 32 32 32zm0-48c8.824 0 16 7.176 16 16s-7.176 16-16 16-16-7.176-16-16 7.176-16 16-16zM384 424h16v16h-16zM400 456h16v16h-16zM336 448h16v16h-16z"/></svg>