<svg xmlns="http://www.w3.org/2000/svg" viewBox="0 0 496 496"><path d="M0 456c0 22.056 17.944 40 40 40h240c22.056 0 40-17.944 40-40v-40H0v40zm16-24h288v24c0 13.232-10.768 24-24 24H40c-13.232 0-24-10.768-24-24v-24z"/><path d="M128 448h64v16h-64zM16 64h304V40c0-22.056-17.944-40-40-40H40C17.944 0 0 17.944 0 40v360h16V64zm0-24c0-13.232 10.768-24 24-24h240c13.232 0 24 10.768 24 24v8H16v-8z"/><path d="M408 80H120c-48.52 0-88 39.48-88 88v232h464V168c0-48.52-39.48-88-88-88zM192 384H48V232h144v152zM80 216v-48c0-22.056 17.944-40 40-40s40 17.944 40 40v48H80zm112 0h-16v-48c0-30.88-25.12-56-56-56s-56 25.12-56 56v48H48v-48c0-39.696 32.304-72 72-72s72 32.304 72 72v48zm288 168H208V232h272v152zm0-168H208v-16h272v16zm0-32H208v-16c0-29.76-14.888-56.064-37.56-72H408c39.696 0 72 32.304 72 72v16z"/><path d="M176 248h-16v104H80V248H64v120h112zM320 319.832V352h48v-32.168c9.968-7.512 16-19.328 16-31.832 0-22.056-17.944-40-40-40s-40 17.944-40 40c0 12.504 6.032 24.328 16 31.832zM344 264c13.232 0 24 10.768 24 24 0 8.544-4.496 16.264-12.024 20.648L352 310.96V336h-16v-25.04l-3.976-2.312C324.496 304.264 320 296.544 320 288c0-13.232 10.768-24 24-24z"/></svg>