<svg xmlns="http://www.w3.org/2000/svg" viewBox="0 0 496 496"><path d="M248 319.344L345.376 160 248 .656 150.624 160 248 319.344zm8-274.912L324.792 157 256 194.52V44.432zm57.584 136.904L248 288.656l-65.584-107.32L248 217.112l65.584-35.776zM240 194.52L171.208 157 240 44.432V194.52zM456 224h-40v272h40c22.056 0 40-17.944 40-40V264c0-22.056-17.944-40-40-40zm24 232c0 13.232-10.768 24-24 24h-24V240h24c13.232 0 24 10.768 24 24v192z"/><path d="M80 240h96v-16H40c-22.056 0-40 17.944-40 40v192c0 22.056 17.944 40 40 40h360v-16H80V240zM64 480H40c-13.232 0-24-10.768-24-24V264c0-13.232 10.768-24 24-24h24v240zM448 320h16v80h-16z"/><path d="M296 304h-16c0 17.648-14.352 32-32 32s-32-14.352-32-32h-16c0 26.472 21.528 48 48 48s48-21.528 48-48z"/><path d="M248 384c-44.112 0-80-35.888-80-80h-16c0 52.936 43.064 96 96 96s96-43.064 96-96h-16c0 44.112-35.888 80-80 80z"/><path d="M120 304h-16c0 79.4 64.6 144 144 144s144-64.6 144-144h-16c0 70.576-57.424 128-128 128s-128-57.424-128-128zM320 224h80v16h-80zM328 0h16v16h-16zM328 32h16v16h-16zM344 16h16v16h-16zM312 16h16v16h-16zM144 56h16v16h-16zM144 88h16v16h-16zM160 72h16v16h-16zM128 72h16v16h-16zM376 112h16v16h-16zM376 144h16v16h-16zM392 128h16v16h-16zM360 128h16v16h-16zM96 160h16v16H96zM96 192h16v16H96zM112 176h16v16h-16zM80 176h16v16H80z"/></svg>