<svg xmlns="http://www.w3.org/2000/svg" viewBox="0 0 496 496"><path d="M0 456c0 22.056 17.944 40 40 40h248c22.056 0 40-17.944 40-40v-40H0v40zm16-24h296v24c0 13.232-10.768 24-24 24H40c-13.232 0-24-10.768-24-24v-24z"/><path d="M128 448h72v16h-72zM288 0H40C17.944 0 0 17.944 0 40v360h16V64h312V40c0-22.056-17.944-40-40-40zm24 48H16v-8c0-13.232 10.768-24 24-24h248c13.232 0 24 10.768 24 24v8z"/><path d="M32 400h296V104H32v296zm168-16h-40v-40h40v40zm56 0h-40v-40h40v40zm16-264h40v40h-40v-40zm0 56h40v40h-40v-40zm0 56h40v40h-40v-40zm0 56h40v40h-40v-40zm0 56h40v40h-40v-40zm-56-224h40v40h-40v-40zm-56 0h40v40h-40v-40zm-56 0h40v40h-40v-40zm0 56h152v152H104V176zm0 168h40v40h-40v-40zM48 120h40v40H48v-40zm0 56h40v40H48v-40zm0 56h40v40H48v-40zm0 56h40v40H48v-40zm0 56h40v40H48v-40zM456 64h-72c-22.056 0-40 17.944-40 40v72c0 22.056 17.944 40 40 40h72c22.056 0 40-17.944 40-40v-72c0-22.056-17.944-40-40-40zm24 112c0 13.232-10.768 24-24 24h-72c-13.232 0-24-10.768-24-24v-72c0-13.232 10.768-24 24-24h72c13.232 0 24 10.768 24 24v72z"/><path d="M420 104c-19.848 0-36 16.152-36 36s16.152 36 36 36 36-16.152 36-36-16.152-36-36-36zm0 56c-11.032 0-20-8.976-20-20s8.968-20 20-20 20 8.976 20 20-8.968 20-20 20zM456 248h-72c-22.056 0-40 17.944-40 40v72c0 22.056 17.944 40 40 40h72c22.056 0 40-17.944 40-40v-72c0-22.056-17.944-40-40-40zm24 112c0 13.232-10.768 24-24 24h-72c-13.232 0-24-10.768-24-24v-72c0-13.232 10.768-24 24-24h72c13.232 0 24 10.768 24 24v72z"/><path d="M392 328c-13.232 0-24 10.768-24 24s10.768 24 24 24 24-10.768 24-24-10.768-24-24-24zm0 32c-4.416 0-8-3.592-8-8 0-4.408 3.584-8 8-8s8 3.592 8 8c0 4.408-3.584 8-8 8zM448 272c-13.232 0-24 10.768-24 24s10.768 24 24 24 24-10.768 24-24-10.768-24-24-24zm0 32c-4.416 0-8-3.592-8-8 0-4.408 3.584-8 8-8s8 3.592 8 8c0 4.408-3.584 8-8 8z"/></svg>