<svg xmlns="http://www.w3.org/2000/svg" viewBox="0 0 496 496"><path d="M52.368 206.64C49.52 220.184 48 234.048 48 248c0 8.328.52 16.728 1.544 24.984l15.872-1.968A189.205 189.205 0 0 1 64 248c0-11.264 1.056-22.48 3.072-33.48C80.84 220.584 96.024 224 112 224c61.76 0 112-50.24 112-112S173.76 0 112 0 0 50.24 0 112c0 39.832 20.96 74.776 52.368 94.64zM112 16c41.704 0 77.176 26.776 90.4 64H128c-8.824 0-16-7.176-16-16s7.176-16 16-16 16 7.176 16 16h16c0-17.648-14.352-32-32-32S96 46.352 96 64s14.352 32 32 32h78.552c.88 5.216 1.448 10.536 1.448 16 0 2.704-.184 5.352-.408 8H160v16h44.84a95.626 95.626 0 0 1-15.024 32H120c-8.824 0-16-7.176-16-16s7.176-16 16-16 16 7.176 16 16h16c0-17.648-14.352-32-32-32s-32 14.352-32 32 14.352 32 32 32h55.288c-16.92 14.888-39.032 24-63.288 24-52.936 0-96-43.064-96-96s43.064-96 96-96zM443.632 289.36C446.48 275.816 448 261.952 448 248c0-8.328-.52-16.728-1.544-24.984l-15.872 1.968A189.205 189.205 0 0 1 432 248c0 11.264-1.056 22.48-3.072 33.48C415.16 275.416 399.976 272 384 272c-61.76 0-112 50.24-112 112s50.24 112 112 112 112-50.24 112-112c0-39.832-20.96-74.776-52.368-94.64zM384 480c-35.44 0-66.384-19.352-83.008-48h166.024c-16.632 28.648-47.576 48-83.016 48zm-59.056-64l32-64h23.744l16 16h22.368l24 48H324.944zm149.456 0h-13.456l-32-64h-25.632l-16-16h-40.256l-40 80H293.6c-3.56-10.024-5.6-20.768-5.6-32 0-52.936 43.064-96 96-96s96 43.064 96 96c0 11.232-2.04 21.976-5.6 32zM281.416 67.192C275.392 80.928 272 96.064 272 112c0 61.76 50.24 112 112 112s112-50.24 112-112S445.76 0 384 0c-39.888 0-74.872 21.024-94.72 52.504-21.704-4.544-44.328-5.696-66.272-2.96l1.984 15.872c18.624-2.312 37.848-1.616 56.424 1.776zM384 208c-23.592 0-45.192-8.592-61.928-22.76l34.16-34.152A47.807 47.807 0 0 0 376 159.28V192h16v-32.72a47.807 47.807 0 0 0 19.768-8.192l34.16 34.152C429.192 199.408 407.592 208 384 208zm-32-96c0-17.648 14.352-32 32-32s32 14.352 32 32-14.352 32-32 32-32-14.352-32-32zm128 0c0 23.592-8.592 45.192-22.76 61.928l-34.16-34.152a47.79 47.79 0 0 0 8.2-19.776H464v-16h-32.72a47.713 47.713 0 0 0-8.2-19.768l34.16-34.152C471.408 66.808 480 88.408 480 112zm-96-96c23.592 0 45.192 8.592 61.928 22.76l-34.16 34.152A47.807 47.807 0 0 0 392 64.72V32h-16v32.72a47.807 47.807 0 0 0-19.768 8.192l-34.16-34.152C338.808 24.592 360.408 16 384 16zm-73.24 34.072l34.16 34.152a47.79 47.79 0 0 0-8.2 19.776H304v16h32.72a47.713 47.713 0 0 0 8.2 19.768l-34.16 34.152C296.592 157.192 288 135.592 288 112s8.592-45.192 22.76-61.928zM214.584 428.8C220.608 415.072 224 399.936 224 384c0-61.76-50.24-112-112-112S0 322.24 0 384s50.24 112 112 112c39.832 0 74.776-20.96 94.64-52.376C220.192 446.48 234.048 448 248 448c8.36 0 16.768-.52 24.992-1.544l-1.984-15.872c-18.624 2.312-37.84 1.616-56.424-1.784zM112 480c-52.936 0-96-43.064-96-96s43.064-96 96-96 96 43.064 96 96-43.064 96-96 96z"/><path d="M80 136v-16H64c-8.824 0-16-7.176-16-16s7.176-16 16-16 16 7.176 16 16h16c0-17.648-14.352-32-32-32s-32 14.352-32 32 14.352 32 32 32h16zM130.736 331.576C127.16 324.44 119.984 320 112 320s-15.16 4.44-18.736 11.576l-24.32 48.648A47.116 47.116 0 0 0 64 401.168C64 426.992 85.008 448 110.832 448h2.328c25.832 0 46.84-21.008 46.84-46.832a47.116 47.116 0 0 0-4.944-20.944l-24.32-48.648zM113.168 432h-2.328C93.832 432 80 418.168 80 401.168c0-4.76 1.128-9.528 3.256-13.792l24.32-48.648c1.688-3.376 7.16-3.376 8.84 0l24.32 48.648A30.946 30.946 0 0 1 144 401.168c0 17-13.832 30.832-30.832 30.832zM360 368h16v16h-16zM392 392h16v16h-16z"/></svg>