<svg xmlns="http://www.w3.org/2000/svg" viewBox="0 0 496 496"><path d="M272 136C272 61.008 210.992 0 136 0S0 61.008 0 136s61.008 136 136 136 136-61.008 136-136zm-256 0C16 69.832 69.832 16 136 16s120 53.832 120 120-53.832 120-120 120S16 202.168 16 136z"/><path d="M113.272 157.576l67.416 33.712-21.96-76.864-67.416-33.712 21.96 76.864zm32-32l10.04 35.136-28.584-14.288-10.04-35.136 28.584 14.288z"/><path d="M432 384v16h48v48c0 17.648-14.352 32-32 32s-32-14.352-32-32V48H272v16h128v40h-36c-14.616 0-29.112 4.832-40.808 13.6C311.176 126.616 304 140.976 304 156s7.176 29.384 19.2 38.4l13.432 10.08 3.272 19.616A38.067 38.067 0 0 0 377.568 256H400v156.688l-10.344-10.344-11.312 11.312L400 435.312V448c0 12.304 4.688 23.496 12.32 32H368v-9.696a28.782 28.782 0 0 0-4.832-15.984l-6.328-9.496A28.786 28.786 0 0 0 332.856 432h-1.72c-4.296 0-8.28-2.136-10.664-5.696l-3.64-5.48A28.761 28.761 0 0 0 292.856 408c-10.984 0-20.856 6.104-25.768 15.928l-6.4 12.792a12.882 12.882 0 0 1-7.408 6.424l-7.632 2.536c-7.208 2.4-13.28 7.672-16.664 14.456L219.056 480H128c-11.624 0-20.864-5.992-26.384-16h15.072c9.432 0 18.296-3.672 24.968-10.344S152 438.12 152 428.688v-3.808c0-7.368 4.096-13.984 10.68-17.272l17.8-8.904c12.032-6.016 19.52-18.12 19.52-31.584v-9.992c0-10.784-4.832-20.832-13.248-27.576l-22.264-17.816c-6.248-4.984-14.072-7.736-22.064-7.736H96v-24H80v160c0 32.968 19.744 56 48 56h320c26.472 0 48-21.528 48-48v-64h-64zm-32-144h-22.432a22.112 22.112 0 0 1-21.88-18.528l-4.32-25.944-18.56-13.92C324.792 175.584 320 166.016 320 156s4.792-19.584 12.808-25.6c8.936-6.704 20.016-10.4 31.192-10.4h36v120zM96 440V320h46.424c4.368 0 8.656 1.504 12.064 4.232l22.264 17.808c4.608 3.696 7.248 9.184 7.248 15.088v9.992c0 7.368-4.096 13.984-10.68 17.272l-17.8 8.904c-12.032 6.016-19.52 18.12-19.52 31.584v3.808c0 5.16-2.008 10.008-5.656 13.656S121.84 448 116.688 448H96.552a59.82 59.82 0 0 1-.552-8zm256 40H236.944l6.36-12.72a12.882 12.882 0 0 1 7.408-6.424l7.632-2.536c7.208-2.4 13.28-7.672 16.664-14.456l6.4-12.784c2.176-4.368 6.568-7.08 11.448-7.08 4.296 0 8.28 2.136 10.664 5.696l3.64 5.48A28.786 28.786 0 0 0 331.144 448h1.72c4.296 0 8.28 2.136 10.664 5.704l6.328 9.496a12.802 12.802 0 0 1 2.144 7.104V480z"/><path d="M290.343 245.666l-24.002-24.001 11.314-11.314 24.002 24.002zM327.169 268.406l15.999 31.997-14.31 7.155-15.998-31.997zM359.141 340.403L375.14 372.4l-14.31 7.155-15.998-31.998zM163.563 353.373l8.875 13.315-24.005 16.002-8.876-13.314zM216 352h32v16h-32zM301.664 325.674l-24.002 24.002-11.314-11.314 24.002-24.002zM136 56a80.054 80.054 0 0 1 51.168 18.528l10.248-12.28C180.216 47.896 158.408 40 136 40c-52.936 0-96 43.064-96 96 0 22.408 7.896 44.216 22.248 61.424l12.28-10.248A80.091 80.091 0 0 1 56 136c0-44.112 35.888-80 80-80zM232 136c0-22.408-7.896-44.216-22.248-61.424l-12.28 10.248A80.091 80.091 0 0 1 216 136c0 44.112-35.888 80-80 80a80.054 80.054 0 0 1-51.168-18.528l-10.248 12.28C91.784 224.104 113.592 232 136 232c52.936 0 96-43.064 96-96z"/></svg>