<svg xmlns="http://www.w3.org/2000/svg" viewBox="0 0 499.024 499.024"><path d="M217.512 225.512v32h64v-32c0-17.648-14.352-32-32-32s-32 14.352-32 32zm48 0v16h-32v-16c0-8.824 7.176-16 16-16s16 7.176 16 16z"/><path d="M153.512 225.512h16v-48h160v48h16v-48h22.128L268.488 12.256c-3.984-6.624-11.256-10.744-18.976-10.744-7.72 0-15 4.12-18.976 10.744l-99.152 165.256h22.128v48zm90.736-205.024c2.2-3.672 8.312-3.672 10.512 0l84.624 141.024H159.64l84.608-141.024zM499.024 497.512l-32-184h22.488v-72h-48v24h-16v-24h-48v24h-16v-24h-48v72H336L323.288 386.6c-12.112-28.808-40.616-49.088-73.776-49.088s-61.664 20.28-73.776 49.088l-12.712-73.088h22.488v-72h-48v24h-16v-24h-48v24h-16v-24h-48v72H32l-32 184h499.024zm-169.512-200v-40h16v24h48v-24h16v24h48v-24h16v40h-144zm0 145.328l.232.04 22.496-129.368h98.544l29.216 168H329.512V442.84zm-72-88.776c31.52 3.96 56 30.872 56 63.448v64h-56V354.064zm-72 63.448c0-32.576 24.48-59.488 56-63.448v127.448h-56v-64zm-160-120v-40h16v24h48v-24h16v24h48v-24h16v40h-144zm22.728 16h98.544l22.728 130.696v37.304H19.024l29.216-168z"/><path d="M273.512 401.512h16v32h-16zM209.512 401.512h16v32h-16zM353.512 433.512h40v16h-40zM385.512 353.512h40v16h-40zM89.512 337.512h40v16h-40zM57.512 425.512h40v16h-40zM409.512 401.512h32v16h-32zM121.512 449.512h32v16h-32z"/></svg>