<svg xmlns="http://www.w3.org/2000/svg" viewBox="0 0 496 496"><path d="M200 400v-42.84c10.344-12.808 16-28.72 16-45.16 0-39.704-32.296-72-72-72s-72 32.296-72 72c0 16.44 5.656 32.352 16 45.16V400h112zm-56-144c30.872 0 56 25.128 56 56 0 13.568-4.976 26.696-14 36.944l-2 2.264V384h-16v-24h-16v24h-16v-24h-16v24h-16v-32.792l-2-2.264C92.976 338.696 88 325.568 88 312c0-30.872 25.128-56 56-56z"/><path d="M160 304h16v16h-16zM112 304h16v16h-16z"/><path d="M0 344h56v-16H16v-96h256v96h-40v16h56V216H0zM440 208h16v16h-16z"/><path d="M440 440c0 22.056-17.944 40-40 40s-40-17.944-40-40V56c0-30.872-25.128-56-56-56H112C81.128 0 56 25.128 56 56v8H16v136h16v-72h64v72h16v-72h64v72h16v-72h64v72h16V64h-40v-8c0-22.056 17.944-40 40-40h32c22.056 0 40 17.944 40 40v384c0 30.872 25.128 56 56 56s56-25.128 56-56V280h-16v160zM96 112H32V80h64v32zM72 64v-8c0-22.056 17.944-40 40-40h40.888C142.48 26.176 136 40.336 136 56v8H72zm104 48h-64V80h64v32zm80-32v32h-64V80h64zm-40-24v8h-64v-8c0-22.056 17.944-40 40-40h40.888C222.48 26.176 216 40.336 216 56zM32 256h32v16H32zM32 288h32v16H32z"/><path d="M224 256h32v16h-32zM224 288h32v16h-32zM440 168h16v24h-16zM419.716 176.373l16.97 16.97-11.314 11.314-16.97-16.97zM400 208h24v16h-24zM419.713 255.597l-11.314-11.314 16.97-16.97 11.314 11.313zM440 240h16v24h-16zM476.27 255.615l-16.97-16.97 11.313-11.314 16.97 16.97zM472 208h24v16h-24zM476.278 176.398l11.314 11.314-16.97 16.97-11.314-11.313zM256 432h-64v-16h-16v16h-64v-16H96v16H32v-72H16v136h256V360h-16v72zM96 480H32v-32h64v32zm80 0h-64v-32h64v32zm80 0h-64v-32h64v32z"/></svg>