<svg xmlns="http://www.w3.org/2000/svg" viewBox="0 0 496 496"><path d="M432 0H176v64h256V0zm-16 48H192V16h224v32zM400 80h16v56h-16zM400 432H16v-16c0-57.344 46.656-104 104-104h64c13.232 0 24-10.768 24-24v-80h48v-16h-48v-16h48v-16h-48v-16h48v-16h-48v-16h48V96h-48V80h-16v208c0 4.416-3.592 8-8 8h-64C53.832 296 0 349.832 0 416v80h240v-16h32v16h144V352h-16v80zm0 48h-16v-16h-16v16h-16v-16h-16v16h-16v-16h-16v16h-16v-16h-64v16h-16v-16h-16v16h-16v-16h-16v16h-16v-16h-16v16h-16v-16H96v16H80v-16H64v16H48v-16H32v16H16v-32h384v32z"/><path d="M32 416h16c0-39.704 32.304-72 72-72h16v-16h-16c-48.52 0-88 39.48-88 88zM496 128h-49.96l-131.08 68.392C278.592 215.36 256 252.624 256 293.648c0 33.8 24.192 62.128 56.272 65.896 2.528.296 5.056.448 7.576.448 15.688 0 30.92-5.704 42.672-16.16A64.074 64.074 0 0 0 384 296h-16a48.032 48.032 0 0 1-16.12 35.88c-10.376 9.232-23.792 13.416-37.744 11.776C290.504 340.872 272 318.912 272 293.648c0-35.04 19.296-66.864 50.36-83.072L449.96 144h29.488c-2.568 18.328-13.88 34.272-30.8 42.736l-60.224 30.112 7.16 14.312 60.224-30.112c.624-.312 1.168-.72 1.776-1.048h21.872c-2.568 18.328-13.88 34.272-30.8 42.736l-60.224 30.112 7.16 14.312 60.224-30.112c.624-.312 1.168-.72 1.776-1.048h21.872c-2.568 18.328-13.88 34.272-30.8 42.736L438.112 304H400v16h41.888l13.912-6.952C480.6 300.64 496 275.72 496 248v-8h-18.176C489.32 226.984 496 210.128 496 192v-8h-18.176C489.32 170.984 496 154.128 496 136v-8zM152 328h16v16h-16z"/></svg>