<svg xmlns="http://www.w3.org/2000/svg" viewBox="0 0 496 496"><path d="M328 224c0-24.344 28-74.496 38.784-91.76l1.216-1.944v-29.608l-2.344-2.344C329.088 61.776 335.848 9.64 335.92 9.12L337.184 0H296v8c0 26.472-25.12 48-56 48s-56-21.528-56-48V0l-41.184.016 1.264 9.104c.072.52 6.832 52.656-29.736 89.224L112 100.688v29.608l1.216 1.944C124 149.504 152 199.632 152 224v29.784l-72 120v59.976l45.368-9.072L159.4 458.72l40.6-32.48 40 32 40-32 40.592 32.48 34.032-34.032L400 433.76v-59.976l-72-120V224zm13.304-129.992c3.128 4.504 6.656 8.944 10.696 13.232v18.496a458.544 458.544 0 0 0-5.552 9.4L323.312 112l17.992-17.992zm-8.4-14.224L312 100.688 299.312 88l26.28-26.28a122.503 122.503 0 0 0 7.312 18.064zM311.44 16h7.944c-.216 6.584 0 16.256 1.856 27.448L288 76.688l-12.896-12.896c19.488-9.728 33.44-27.24 36.336-47.792zm-150.824 0h7.944c2.896 20.552 16.848 38.064 36.336 47.792L192 76.688l-33.24-33.24c1.856-11.192 2.072-20.864 1.856-27.448zm-6.208 45.72L180.688 88 168 100.688l-20.904-20.904c3.04-6.08 5.456-12.16 7.312-18.064zM128 125.736V107.24a112.658 112.658 0 0 0 10.696-13.232L156.688 112l-23.136 23.136a437.292 437.292 0 0 0-5.552-9.4zm13.608 23.968l79.888-79.888A80.202 80.202 0 0 0 240 72c6.4 0 12.592-.784 18.496-2.184l79.888 79.888C328 169.216 315.568 195.84 312.68 216h-51.736c-5.624-4.92-12.896-8-20.944-8-8.048 0-15.312 3.08-20.944 8H167.32c-2.888-20.16-15.32-46.784-25.712-66.296zM270.864 232H312v16h-41.136c.672-2.576 1.136-5.224 1.136-8s-.464-5.424-1.136-8zM256 240c0 8.824-7.176 16-16 16s-16-7.176-16-16 7.176-16 16-16 16 7.176 16 16zm-46.864 8H168v-16h41.136c-.672 2.576-1.136 5.224-1.136 8s.464 5.424 1.136 8zM384 378.216v36.024l-26.232-5.248-54.368-132.04-14.8 6.096 53.968 131.064L319.4 437.28l-31.84-25.472-15.616-132.744-15.888 1.872 15.48 131.592L240 437.76l-31.536-25.232 15.48-131.592-15.888-1.872-15.616 132.744-31.84 25.472-23.368-23.376 46.32-131.24-15.088-5.328-46.488 131.712L96 414.24v-36.024L164.528 264h54.528c5.624 4.92 12.896 8 20.944 8 8.048 0 15.312-3.08 20.944-8h54.528L384 378.216zM456 176h-40v320h40c22.056 0 40-17.944 40-40V216c0-22.056-17.944-40-40-40zm24 280c0 13.232-10.768 24-24 24h-24V192h24c13.232 0 24 10.768 24 24v240z"/><path d="M448 304h16v64h-16zM64 192h64v-16H40c-22.056 0-40 17.944-40 40v240c0 22.056 17.944 40 40 40h360v-16H64V192zM48 480h-8c-13.232 0-24-10.768-24-24V216c0-13.232 10.768-24 24-24h8v288zM352 176h48v16h-48z"/></svg>