<svg xmlns="http://www.w3.org/2000/svg" viewBox="0 0 496 496"><path d="M136 168c0 17.648 14.352 32 32 32s32-14.352 32-32-14.352-32-32-32-32 14.352-32 32zm48 0c0 8.824-7.176 16-16 16s-16-7.176-16-16 7.176-16 16-16 16 7.176 16 16zM480 264h-8v-16c0-8.824-7.176-16-16-16h-32c-8.824 0-16 7.176-16 16v16H208c-8.824 0-16 7.176-16 16v80c0 8.824 7.176 16 16 16h112v32c0 17.648 14.352 32 32 32v-16c-8.824 0-16-7.176-16-16v-32h16c4.416 0 8 3.584 8 8v96c0 8.824 7.176 16 16 16h80c8.824 0 16-7.176 16-16V377.936c0-4.208 1.712-8.336 4.688-11.312L491.312 352A16.121 16.121 0 0 0 496 340.688V280c0-8.824-7.176-16-16-16zm-56-16h32v16h-32v-16zm-16 32h16v32h-16v-32zm-168 0h152v32H240v-32zm-16 80h-16v-80h16v80zm64 0h-48v-32h48v32zm136 120h-16v-88c0-4.416 3.584-8 8-8s8 3.584 8 8v88zm56-139.312l-14.624 14.624c-5.96 5.952-9.376 14.2-9.376 22.624V480h-16v-88c0-13.232-10.768-24-24-24s-24 10.768-24 24v88h-16v-96c0-13.232-10.768-24-24-24h-48v-32h176v12.688zM480 312h-40v-32h40v32z"/><path d="M80 168c0 48.52 39.48 88 88 88s88-39.48 88-88-39.48-88-88-88-88 39.48-88 88zm160 0c0 39.704-32.296 72-72 72s-72-32.296-72-72 32.296-72 72-72 72 32.296 72 72z"/><path d="M160 303.592C91.4 299.576 36.424 244.6 32.408 176H64v-16H32.408C36.424 91.4 91.4 36.424 160 32.408V64h16V32.408C244.6 36.424 299.576 91.4 303.592 160H272v16h31.704c-1.408 24.16-9.12 47.368-22.64 67.544l13.296 8.904c15.28-22.824 23.912-49.112 25.336-76.456H336v-16h-16.408C315.536 82.584 253.416 20.464 176 16.408V0h-16v16.408C82.584 20.464 20.464 82.584 16.408 160H0v16h16.408C20.464 253.416 82.584 315.536 160 319.592V336h16v-64h-16v31.592z"/></svg>