<svg xmlns="http://www.w3.org/2000/svg" viewBox="0 0 496 496"><path d="M403.152 96c-24.808 0-48.12 9.656-65.656 27.192l-12.184 12.184c-8.952-4.688-19.104-7.376-29.88-7.376-17.24 0-33.464 6.72-45.656 18.912L248 148.688l-1.776-1.776C234.032 134.72 217.816 128 200.568 128c-10.776 0-20.928 2.688-29.872 7.384L158.512 123.2C140.968 105.656 117.656 96 92.848 96 41.656 96 0 137.656 0 188.848V400h40c10.416 0 19.216-6.712 22.528-16H88c10.416 0 19.216-6.712 22.528-16H136c13.232 0 24-10.768 24-24v-88h-16v88c0 4.416-3.584 8-8 8h-24v-96H96v104c0 4.416-3.584 8-8 8H64V256H48v120c0 4.416-3.584 8-8 8H16V188.848C16 146.48 50.48 112 92.848 112c20.528 0 39.832 7.992 54.344 22.504l10.192 10.192C144.296 156.528 136 173.576 136 192.568c0 17.24 6.72 33.464 18.912 45.656L248 331.312l93.088-93.088C353.28 226.032 360 209.816 360 192.568c0-18.992-8.296-36.04-21.392-47.864l10.192-10.192C363.32 119.992 382.616 112 403.152 112 445.52 112 480 146.48 480 188.848V384h-24c-4.416 0-8-3.584-8-8V256h-16v112h-24c-4.416 0-8-3.584-8-8V256h-16v96h-24c-4.416 0-8-3.584-8-8v-88h-16v88c0 13.232 10.768 24 24 24h25.472c3.312 9.288 12.112 16 22.528 16h25.472c3.312 9.288 12.112 16 22.528 16h40V188.848C496 137.656 454.344 96 403.152 96zM344 192.568c0 12.968-5.056 25.168-14.224 34.344L248 308.688l-81.776-81.776C157.056 217.744 152 205.536 152 192.568 152 165.792 173.792 144 200.568 144c12.968 0 25.168 5.056 34.344 14.224L248 171.312l13.088-13.088c9.168-9.168 21.376-14.224 34.344-14.224C322.208 144 344 165.792 344 192.568z"/><path d="M464 188.848C464 155.296 436.704 128 403.152 128c-16.248 0-31.528 6.328-43.032 17.824l11.312 11.312c8.472-8.472 19.736-13.136 31.72-13.136C427.88 144 448 164.12 448 188.848V200h16v-11.152zM448 216h16v16h-16zM48 188.848C48 164.12 68.12 144 92.848 144c11.976 0 23.24 4.664 31.72 13.136l11.312-11.312C124.384 134.328 109.104 128 92.848 128 59.296 128 32 155.296 32 188.848V200h16v-11.152zM32 216h16v16H32zM320 0h16v24h-16zM299.718 8.41l16.97 16.97-11.313 11.314-16.97-16.97zM280 40h24v16h-24zM299.728 87.592L288.414 76.28l16.97-16.97 11.314 11.313zM320 72h16v24h-16zM350.582 59.318l16.97 16.97-11.313 11.314-16.97-16.97zM352 40h24v16h-24zM356.273 8.427l11.314 11.314-16.97 16.97-11.314-11.313zM136 400h16v24h-16zM121.379 436.7l-16.97-16.971 11.313-11.314 16.97 16.97zM96 440h24v16H96zM115.704 487.584l-11.313-11.314 16.97-16.97 11.314 11.313zM136 472h16v24h-16zM172.252 487.596l-16.97-16.97 11.313-11.314 16.97 16.97zM168 440h24v16h-24zM172.283 408.397l11.313 11.314-16.97 16.97-11.314-11.314zM192 64h16v16h-16zM192 96h16v16h-16zM208 80h16v16h-16zM176 80h16v16h-16zM96 16h16v16H96zM96 48h16v16H96zM112 32h16v16h-16zM80 32h16v16H80zM280 344h16v16h-16zM280 376h16v16h-16zM296 360h16v16h-16zM264 360h16v16h-16zM360 424h16v16h-16zM360 456h16v16h-16zM376 440h16v16h-16zM344 440h16v16h-16z"/></svg>