<svg xmlns="http://www.w3.org/2000/svg" viewBox="0 0 496 496"><path d="M478.936 480l-28.584-200.104A39.913 39.913 0 0 0 427.88 249.4l-125.512-59.464c-8.232-3.88-17.384-5.936-26.472-5.936-25.04 0-47.456 14.936-57.08 38.056L165.952 348.92l14.768 6.16 52.864-126.864C240.72 211.072 257.328 200 275.896 200c6.736 0 13.52 1.52 19.624 4.408l125.512 59.456a23.96 23.96 0 0 1 13.488 18.304L462.776 480H36.528l-17.456-29.104a21.53 21.53 0 0 1 6.528-29.008l67-44.664c18.84-12.568 45.24-11.832 63.368 1.76L203.2 414.4l9.6-12.8-47.232-35.424C153.376 357.032 138.272 352 123.04 352a70.653 70.653 0 0 0-39.32 11.904l-67 44.664A37.482 37.482 0 0 0 0 439.816a37.47 37.47 0 0 0 5.352 19.32L17.872 480H0v16h496v-16h-17.064z"/><path d="M106.488 335.384l15.952 1.232L135.408 168h65.184l3.744 48.616 15.952-1.232L216.64 168H264v-24c0-13.232-10.768-24-24-24h-40V59.552C209.52 54 216 43.792 216 32c0-17.648-14.352-32-32-32h-32c-17.648 0-32 14.352-32 32 0 11.792 6.48 22 16 27.552V120H96c-13.232 0-24 10.768-24 24v24h47.36l-12.872 167.384zM152 16h32c8.824 0 16 7.176 16 16s-7.176 16-16 16h-32c-8.824 0-16-7.176-16-16s7.176-16 16-16zm0 64V64h32v16h-32zm32 16v24h-32V96h32zm-96 56v-8c0-4.416 3.592-8 8-8h144c4.408 0 8 3.584 8 8v8H88z"/><path d="M160 184h16v128h-16zM264 256h16v16h-16zM328 288h16v16h-16zM392 376h16v16h-16zM280 360h16v16h-16zM304 440h16v16h-16zM344 392h16v16h-16zM400 288h16v16h-16zM216 328h16v16h-16zM112 400h16v16h-16zM56 440h16v16H56zM144 440h16v16h-16zM224 424h16v16h-16z"/></svg>