<svg xmlns="http://www.w3.org/2000/svg" viewBox="0 0 496.384 496.384"><path d="M410.88 411.664l85.504-186.552L469.2 98.296l-108.448 81.336-13.328 66.64-60.528-67.256-63.456 99.72 10.296 43.776-8.384 73.384c-8.192-1.256-16.688-2.136-25.352-2.752V180.472l54.096-36.064-6.272 54.872 15.896 1.816 8.552-74.832L192 1.392l-80.352 124.992 8.552 58.168L0 96.4v185.968l74.664 126.928C29.264 426.488 0 455.12 0 488.192v8h496v-8c0-36.024-35.92-66.544-85.12-76.528zm-16.496-2.432c-6.008-.624-12.12-1.04-18.384-1.04-1.656 0-3.296.096-4.944.144l51.272-153.816 50.728-16.912-78.672 171.624zM458.8 126.088l19.88 92.784-59.736 19.912-39.744-52.992 79.6-59.704zm-86.464 77.216l34.752 46.336-45.384 136.144 6.472-116.464-7.392-8.216 11.552-57.8zm-83.24 2.064l58.968 65.52-45 32.144-59.336-26.376 45.368-71.288zm7.232 112.16l6.472 103.6c-9.816-5.52-20.768-10.432-32.832-14.52l-20.008-85.04.056-.472-.168-.016-6.36-27.032 52.84 23.48zm-51.752 51.056l7.728 32.864c-3.68-.944-7.36-1.88-11.184-2.688l3.456-30.176zM192 30.992l61.016 94.912L192 166.576l-61.016-40.672L192 30.992zm-8 149.48v211.92c-2.672-.056-5.296-.2-8-.2-3.064 0-6.04.16-9.056.24l-36.408-247.6L184 180.472zm-58.216 42.04l25.104 170.72a323.96 323.96 0 0 0-16.232 1.624L96.64 280.808l29.144-58.296zM16 127.984l101.824 74.664-34.768 69.544H16V127.984zm5.984 160.208h60.248l36.376 109.128c-9.928 1.816-19.472 4.032-28.472 6.728L21.984 288.192zm-5.152 192c8.32-39.784 77.824-72 159.168-72s150.84 32.216 159.168 72H16.832zm334.592 0c-2.608-18.016-14.064-34.448-31.92-48.144l-7.248-115.936 38.824-27.736-6.808 122.6c-3.44.624-6.84 1.344-10.192 2.168l3.824 15.528c12.136-2.968 24.952-4.48 38.096-4.48 52.944 0 96.776 24.48 103.192 56H351.424z"/><path d="M72 448.192h16v16H72zM112 424.192h16v16h-16zM184 448.192h16v16h-16zM248 448.192h16v16h-16zM216 424.192h16v16h-16zM368 448.192h16v16h-16zM424 448.192h16v16h-16zM304 72.192h16v16h-16zM304 104.192h16v16h-16zM320 88.192h16v16h-16zM288 88.192h16v16h-16zM120 .192h16v16h-16zM120 32.192h16v16h-16zM136 16.192h16v16h-16zM104 16.192h16v16h-16zM48 64.192h16v16H48zM48 96.192h16v16H48zM64 80.192h16v16H64zM32 80.192h16v16H32zM440 40.192h16v16h-16zM440 72.192h16v16h-16zM456 56.192h16v16h-16zM424 56.192h16v16h-16z"/></svg>