<svg xmlns="http://www.w3.org/2000/svg" viewBox="0 0 496 496"><path d="M0 408c0 22.056 17.944 40 40 40h104v32h-32v16h272v-16h-32v-32h104c22.056 0 40-17.944 40-40v-24H0v24zm336 72H160v-32h176v32zM16 400h464v8c0 13.232-10.768 24-24 24H40c-13.232 0-24-10.768-24-24v-8zM16 120c0-13.232 10.768-24 24-24V80C17.944 80 0 97.944 0 120v248h16V120zM456 80v16c13.232 0 24 10.768 24 24v248h16V120c0-22.056-17.944-40-40-40zM440 0H56v368h384V0zm-16 352H72V16h352v336z"/><path d="M360.976 250.056l-45.088-25.048-7.776 13.984 12.768 7.096-72.88 33.12-72.88-33.128 12.768-7.096L180.112 225l-45.088 25.048C115.888 260.688 104 280.896 104 302.792V336h288v-33.208c0-21.896-11.888-42.104-31.024-52.736zM376 320H120v-17.208c0-8.168 2.272-16.008 6.328-22.776l70.416 31.296 6.496-14.616-65.704-29.2a43.428 43.428 0 0 1 5.256-3.448l14.92-8.288L248 296.792l90.28-41.04 14.92 8.288a45.752 45.752 0 0 1 5.256 3.448l-65.704 29.2 6.496 14.616 70.416-31.296c4.064 6.776 6.336 14.616 6.336 22.784V320zM240 128h16v32h-16zM272 128h16v32h-16zM176 128h16v32h-16zM208 128h16v32h-16zM304 128h16v32h-16z"/><path d="M248 240c38.8 0 72.528-25.2 83.888-61.872L352 174.776V96h-19.368c-10.6-37.448-45.168-64-84.632-64s-74.032 26.552-84.632 64H144v78.776l20.112 3.352C175.472 214.8 209.2 240 248 240zm0-16a71.72 71.72 0 0 1-65.76-42.848l65.76 10.96 65.76-10.96A71.72 71.72 0 0 1 248 224zm0-176c30.728 0 57.8 19.696 67.824 48H180.176C190.2 67.696 217.272 48 248 48zm-88 64h176v49.224l-88 14.664-88-14.664V112zM360 200c0 13.232 10.768 24 24 24s24-10.768 24-24c0-10.416-6.712-19.216-16-22.528V78.528c9.288-3.312 16-12.112 16-22.528 0-13.232-10.768-24-24-24s-24 10.768-24 24c0 10.416 6.712 19.216 16 22.528v98.952c-9.288 3.304-16 12.104-16 22.52zm24-152c4.408 0 8 3.592 8 8s-3.592 8-8 8c-4.408 0-8-3.592-8-8s3.592-8 8-8zm0 144c4.408 0 8 3.592 8 8s-3.592 8-8 8c-4.408 0-8-3.592-8-8s3.592-8 8-8zM88 200c0 13.232 10.768 24 24 24s24-10.768 24-24c0-10.416-6.712-19.216-16-22.528V78.528c9.288-3.312 16-12.112 16-22.528 0-13.232-10.768-24-24-24S88 42.768 88 56c0 10.416 6.712 19.216 16 22.528v98.952c-9.288 3.304-16 12.104-16 22.52zm24-152c4.408 0 8 3.592 8 8s-3.592 8-8 8-8-3.592-8-8 3.592-8 8-8zm0 144c4.408 0 8 3.592 8 8s-3.592 8-8 8-8-3.592-8-8 3.592-8 8-8z"/></svg>