<svg xmlns="http://www.w3.org/2000/svg" viewBox="0 0 496 496"><path d="M340.728 153.096l-3.632-1.968-3.704 1.584c-.168.072-17.848 7.288-85.392 7.288-67.528 0-85.216-7.208-85.232-7.208l-3.832-1.832-3.664 2.144C98.976 186.016 64 246.904 64 312c0 101.464 82.544 184 184 184s184-82.536 184-184c0-65.096-34.976-125.984-91.272-158.904zM248 480c-92.64 0-168-75.368-168-168 0-58.232 30.656-112.776 80.248-143.232 8.84 2.56 32.536 7.232 87.752 7.232s78.912-4.672 87.752-7.232C385.344 199.224 416 253.768 416 312c0 92.632-75.36 168-168 168z"/><path d="M313.8 193l-1.808-1H184.008l-1.808 1c-43.296 24-70.2 69.592-70.2 119 0 74.992 61.008 136 136 136s136-61.008 136-136c0-49.408-26.904-95-70.2-119zM248 432c-66.168 0-120-53.832-120-120 0-42.912 23.008-82.568 60.184-104h119.624C344.992 229.432 368 269.088 368 312c0 66.168-53.832 120-120 120zM144.424 136.744l15.928-1.488A77.59 77.59 0 0 1 160 128c0-48.52 39.48-88 88-88s88 39.48 88 88a77.59 77.59 0 0 1-.352 7.256l15.928 1.488c.272-2.88.424-5.792.424-8.744 0-57.344-46.656-104-104-104S144 70.656 144 128c0 2.952.152 5.864.424 8.744z"/><path d="M248 72V56c-26.768 0-51.176 14.72-63.696 38.408l14.152 7.472C208.192 83.448 227.176 72 248 72zM176 128h16c0-4.744.592-9.464 1.76-14.008l-15.496-3.984A72.295 72.295 0 0 0 176 128zM360 0h16v16h-16zM360 32h16v16h-16zM376 16h16v16h-16zM344 16h16v16h-16zM80 136h16v16H80zM80 168h16v16H80zM96 152h16v16H96zM64 152h16v16H64zM120 16h16v16h-16zM120 48h16v16h-16zM136 32h16v16h-16zM104 32h16v16h-16zM392 104h16v16h-16zM392 136h16v16h-16zM408 120h16v16h-16zM376 120h16v16h-16z"/></svg>