<svg xmlns="http://www.w3.org/2000/svg" viewBox="0 0 501.768 501.768"><path d="M181.724 381.296l242.304-187.232 37.84-151.392L310.484 80.52 123.26 322.824l-28.088-28.088c-5.792-5.784-13.48-8.968-21.664-8.968-16.88 0-30.624 13.744-30.624 30.624 0 8.176 3.184 15.872 8.968 21.656l27.72 27.72-64.408 64.408c-7.92 7.92-12.28 18.448-12.28 29.656 0 23.12 18.816 41.936 41.936 41.936 11.2 0 21.736-4.36 29.656-12.28l64.408-64.408 27.72 27.72c5.784 5.784 13.472 8.968 21.656 8.968 16.88 0 30.624-13.744 30.624-30.624 0-8.176-3.184-15.872-8.968-21.656l-28.192-28.192zM319.748 94.704l105.184-26.296-267.704 267.704 11.312 11.312L436.092 79.872 409.86 184.8 170.324 369.896l-35.664-35.664L319.748 94.704zM63.164 478.176c-4.896 4.896-11.416 7.592-18.344 7.592-14.304 0-25.936-11.632-25.936-25.936 0-6.928 2.696-13.448 7.592-18.344l40.408-40.408 36.688 36.688-40.408 40.408zm51.72-51.72l-36.688-36.688 12.688-12.688 36.688 36.688-12.688 12.688zm73.376 19.312c-3.848 0-7.624-1.56-10.344-4.28L63.164 326.736a14.724 14.724 0 0 1-4.28-10.344c0-8.064 6.56-14.624 14.624-14.624 3.848 0 7.624 1.56 10.344 4.28L198.604 420.8a14.724 14.724 0 0 1 4.28 10.344c0 8.064-6.56 14.624-14.624 14.624z"/><path d="M422.196 365.768l27.72-27.72c5.784-5.784 8.968-13.472 8.968-21.656 0-16.88-13.744-30.624-30.624-30.624-8.176 0-15.872 3.184-21.656 8.968l-28.088 28.088-32.416-41.952-12.656 9.784 33.672 43.568-35.664 35.664-51.656-39.92-9.784 12.656 50.032 38.664-28.184 28.184c-5.792 5.8-8.976 13.488-8.976 21.672 0 16.88 13.744 30.624 30.624 30.624 8.176 0 15.872-3.184 21.656-8.968l27.72-27.72 64.408 64.408c7.92 7.92 18.456 12.28 29.656 12.28 23.12 0 41.936-18.816 41.936-41.936 0-11.2-4.36-21.736-12.28-29.656l-64.408-64.408zm-98.344 75.72a14.724 14.724 0 0 1-10.344 4.28c-8.064 0-14.624-6.56-14.624-14.624 0-3.848 1.56-7.624 4.28-10.344l114.752-114.752a14.724 14.724 0 0 1 10.344-4.28c8.064 0 14.624 6.56 14.624 14.624 0 3.848-1.56 7.624-4.28 10.344L323.852 441.488zm50.344-27.72l36.688-36.688 12.688 12.688-36.688 36.688-12.688-12.688zm82.752 72c-6.928 0-13.448-2.696-18.344-7.592l-40.408-40.408 36.688-36.688 40.408 40.408c4.896 4.896 7.592 11.416 7.592 18.344 0 14.304-11.632 25.936-25.936 25.936zM149.972 249.88l9.776-12.664-67.84-52.416L65.676 79.872l123.536 123.544 11.312-11.312L76.836 68.408 182.02 94.696l46.536 60.232 12.656-9.784-49.928-64.624L39.892 42.672l37.84 151.392z"/><path d="M312.526 304.09l32.006 32.006-11.314 11.314-32.006-32.007zM300.716 69.768L250.884 0l-49.832 69.768 49.832 69.768 49.832-69.768zm-49.832-42.232l27.568 38.584-27.568 11.032-27.568-11.024 27.568-38.592zm0 66.848l17.624-7.048L250.884 112 233.26 87.336l17.624 7.048zM450.884 197.768h16v32h-16zM450.884 245.768h16v32h-16zM466.884 229.768h32v16h-32zM418.884 229.768h32v16h-32zM34.884 197.768h16v32h-16zM34.884 245.768h16v32h-16zM50.884 229.768h32v16h-32zM2.884 229.768h32v16h-32z"/></svg>