<svg xmlns="http://www.w3.org/2000/svg" viewBox="0 0 497.008 497.008"><path d="M370.016 106.24L334.776.504H35.24L0 106.24l185.008 218.648L370.016 106.24zm-253.36 6.264H253.36l-68.352 177.704-68.352-177.704zm92.8 158.72l61.048-158.72h73.256l-134.304 158.72zm140.456-174.72h-75.016l51.44-70.72 23.576 70.72zm-36.616-80l-49.248 67.72-67.728-67.72h116.976zm-59.6 80H116.32l68.688-68.688 68.688 68.688zm-80-80l-67.728 67.72-49.248-67.72h116.976zM43.68 25.784l51.44 70.72H20.104l23.576-70.72zm-17.424 86.72h73.256l61.048 158.72-134.304-158.72zM361.008 224.504c-74.992 0-136 61.008-136 136s61.008 136 136 136 136-61.008 136-136-61.008-136-136-136zm119.592 144c-1.8 27.064-12.552 51.656-29.392 70.888L440.2 428.384l-11.312 11.312 11.008 11.008c-19.232 16.84-43.824 27.592-70.888 29.392v-15.592h-16v15.592c-27.064-1.8-51.656-12.552-70.888-29.392l11.008-11.008-11.312-11.312-11.008 11.008c-16.84-19.232-27.592-43.824-29.392-70.888h15.592v-16h-15.592c1.8-27.064 12.552-51.656 29.392-70.888l11.008 11.008 11.312-11.312-11.008-11.008c19.232-16.84 43.824-27.592 70.888-29.392v15.592h16v-15.592c27.064 1.8 51.656 12.552 70.888 29.392l-11.008 11.008 11.312 11.312 11.008-11.008c16.84 19.232 27.592 43.824 29.392 70.888h-15.592v16H480.6z"/><path d="M361.008 272.504c-48.52 0-88 39.48-88 88s39.48 88 88 88 88-39.48 88-88-39.48-88-88-88zm0 160c-39.704 0-72-32.296-72-72s32.296-72 72-72 72 32.296 72 72-32.296 72-72 72zM417.008 24.504h16v24h-16zM396.73 32.914l16.968 16.973-11.315 11.312-16.968-16.973zM377.008 64.504h24v16h-24zM396.732 112.099l-11.314-11.314 16.97-16.97 11.314 11.313zM417.008 96.504h16v24h-16zM447.623 83.846l16.968 16.973-11.315 11.312-16.968-16.973zM449.008 64.504h24v16h-24zM453.285 32.9l11.313 11.313-16.97 16.97-11.314-11.313zM73.008 344.504h16v24h-16zM58.383 381.203l-16.97-16.97 11.313-11.314 16.97 16.97zM33.008 384.504h24v16h-24zM52.676 432.128l-11.313-11.314 16.97-16.97 11.314 11.313zM73.008 416.504h16v24h-16zM109.29 432.105l-16.97-16.97 11.314-11.314 16.97 16.97zM105.008 384.504h24v16h-24zM109.287 352.902l11.314 11.314-16.97 16.97-11.314-11.314zM465.008 160.504h16v16h-16zM465.008 192.504h16v16h-16zM481.008 176.504h16v16h-16zM449.008 176.504h16v16h-16zM17.008 224.504h16v16h-16zM17.008 256.504h16v16h-16zM33.008 240.504h16v16h-16zM1.008 240.504h16v16h-16zM177.008 336.504h16v16h-16zM177.008 368.504h16v16h-16zM193.008 352.504h16v16h-16zM161.008 352.504h16v16h-16z"/></svg>