<svg xmlns="http://www.w3.org/2000/svg" viewBox="0 0 496 496"><path d="M152 480c-74.992 0-136-61.008-136-136 0-22.824 5.84-44.704 16.216-64 67.368-.024 100.464-12.512 129.664-23.536 23.264-8.776 43.4-16.352 77.512-16.44 9.768 8.2 18.464 17.712 25.672 28.44l13.288-8.92c-18.832-28.056-46.488-49.072-78.344-59.68V152h-16v59.768l5.784 1.672c9.792 2.824 19.12 6.856 27.944 11.744-24.856 2.592-42.824 9.272-61.504 16.32-26.392 9.96-56.16 21.168-113.808 22.384 17.376-23.728 42.296-41.92 71.8-50.44l5.776-1.68V152h-16v47.856C42.472 220.352 0 278.776 0 344c0 83.816 68.184 152 152 152 41.84 0 80.824-16.64 109.776-46.864l-11.552-11.064C224.32 465.112 189.432 480 152 480zM96 136h112c13.232 0 24-10.768 24-24V96c0-13.232-10.768-24-24-24h-6.56l6.448-38.68L208 0H96v32l6.576 40H96c-13.232 0-24 10.768-24 24v16c0 13.232 10.768 24 24 24zm16-120h80v15.336L185.224 72h-66.448L112 31.336V16zM88 96c0-4.408 3.592-8 8-8h112c4.408 0 8 3.592 8 8v16c0 4.408-3.592 8-8 8H96c-4.408 0-8-3.592-8-8V96zM432 152h-14.56l6.448-38.68L424 80h-96v32l6.576 40H320v48h112v-48zm-88-56h64v15.336L401.224 152h-50.448L344 111.336V96zm72 88h-80v-16h80v16z"/><path d="M216 384h16v16h-16zM56 392h16v16H56zM136 320h16v16h-16zM480 280.472V280c-.136 0-.256.016-.4.016-8.056-9.264-18.592-16.464-31.088-20.216l-26.808-8.04a7.958 7.958 0 0 1-5.704-7.664V216h-16v28.096c0 10.68 6.872 19.92 17.104 22.992l26.808 8.04c4.832 1.448 9.24 3.64 13.28 6.28-13.92 1.528-27.264 4.144-41.848 7.144-31.64 6.512-70.648 14.512-139.24 15.368 5.712-13.584 17.088-24.32 31.976-28.792l26.816-8.04C345.128 264.016 352 254.776 352 244.096V216h-16v28.096a7.96 7.96 0 0 1-5.696 7.664l-26.816 8.04C275.08 268.328 256 293.976 256 323.624c0 3.288.248 6.608.736 9.88L276 461.936C278.96 481.672 295.6 496 315.56 496h120.88c19.96 0 36.6-14.328 39.56-34.064l19.264-128.44a66.97 66.97 0 0 0 .736-9.872c0-16.392-5.984-31.424-16-43.152zm-.56 50.664l-19.264 128.432C458.4 471.408 448.416 480 436.44 480H315.56c-11.976 0-21.96-8.592-23.736-20.44L272.56 331.144a50.541 50.541 0 0 1-.56-7.52c0-1.248.208-2.456.296-3.68 72.56-.6 113.344-8.952 146.272-15.72 19.416-4 35.408-7.104 53.352-7.888 5.08 7.944 8.08 17.272 8.08 27.296 0 2.496-.184 5.016-.56 7.504z"/><path d="M408 376h16v16h-16zM336 424h16v16h-16zM128 32h16v16h-16zM160 48h16v16h-16zM352 112h16v16h-16zM384 120h16v16h-16z"/></svg>