<svg xmlns="http://www.w3.org/2000/svg" viewBox="0 0 496 496"><path d="M112 0H40C17.944 0 0 17.944 0 40v288c0 22.056 17.944 40 40 40h72V0zM96 352H40c-13.232 0-24-10.768-24-24V40c0-13.232 10.768-24 24-24h56v336z"/><path d="M56 128c-13.232 0-24 10.768-24 24s10.768 24 24 24 24-10.768 24-24-10.768-24-24-24zm0 32c-4.408 0-8-3.592-8-8s3.592-8 8-8 8 3.592 8 8-3.592 8-8 8zM32 80h16v16h16V80h16V64H64V48H48v16H32zM48 224h16v16H48zM64 264h16v16H64zM32 264h16v16H32zM48 304h16v16H48zM456 128H312v16h72v336H112v-96H96v112h360c22.056 0 40-17.944 40-40V168c0-22.056-17.944-40-40-40zm24 328c0 13.232-10.768 24-24 24h-56V144h56c13.232 0 24 10.768 24 24v288z"/><path d="M440 256c-13.232 0-24 10.768-24 24s10.768 24 24 24 24-10.768 24-24-10.768-24-24-24zm0 32c-4.408 0-8-3.584-8-8s3.592-8 8-8c4.408 0 8 3.584 8 8s-3.592 8-8 8zM448 176h-16v16h-16v16h16v16h16v-16h16v-16h-16zM432 352h16v16h-16zM416 392h16v16h-16zM448 392h16v16h-16zM432 432h16v16h-16zM144 264h40v-16h-24v-12.688l40-40V264h96v-68.688l40 40V248h-24v16h40v-35.312l-56-56v-33.464c0-34.84-11.992-69.016-33.752-96.224l-2.408-3h-23.68l-2.4 3C211.992 70.208 200 104.384 200 139.224v33.464l-56 56V264zm72-124.776c0-29.952 9.888-59.36 27.912-83.224h8.168C270.112 79.864 280 109.272 280 139.224V216h-64v-76.776zM216 232h64v16h-64v-16z"/><path d="M128 128h56v16h-56zM200 280h16v56h-16zM240 280h16v72h-16zM280 280h16v56h-16zM280 352h16v16h-16zM240 368h16v16h-16zM200 352h16v16h-16z"/></svg>