<svg xmlns="http://www.w3.org/2000/svg" viewBox="0 0 496 496"><path d="M112 0C85.528 0 64 21.528 64 48v352h16V48c0-17.648 14.352-32 32-32h304v384H112c-26.472 0-48 21.528-48 48s21.528 48 48 48h320v-16h-16c-17.648 0-32-14.352-32-32s14.352-32 32-32h16V0H112zm268.256 480H112c-17.648 0-32-14.352-32-32s14.352-32 32-32h268.256C372.64 424.496 368 435.72 368 448c0 12.28 4.64 23.504 12.256 32z"/><path d="M96 208c0 83.816 68.184 152 152 152s152-68.184 152-152S331.816 56 248 56 96 124.184 96 208zm288 0c0 74.992-61.008 136-136 136s-136-61.008-136-136S173.008 72 248 72s136 61.008 136 136z"/><path d="M205.616 144h-75.632l37.816 64-37.816 64h75.632L248 343.728 290.384 272h75.632L328.2 208l37.816-64h-75.632L248 72.272 205.616 144zm-47.6 16h38.144l-19.072 32.272L158.016 160zm0 96l19.072-32.272L196.16 256h-38.144zM248 312.272L224.2 272h47.6L248 312.272zM337.984 256H299.84l19.072-32.272L337.984 256zm0-96l-19.072 32.272L299.84 160h38.144zm-28.368 48l-28.36 48h-66.504l-28.36-48 28.36-48h66.504l28.36 48zM224.2 144l23.8-40.272L271.8 144h-47.6zM336 440h16v16h-16zM224 440h96v16h-96zM397.328 83.36l5.344-15.088c-18.28-6.472-32.48-20.664-38.944-38.944l-15.088 5.344c8.096 22.848 25.84 40.592 48.688 48.688zM93.328 68.272l5.344 15.088c22.848-8.096 40.592-25.84 48.688-48.688l-15.088-5.344c-6.464 18.28-20.664 32.48-38.944 38.944zM132.272 386.672l15.088-5.344c-8.096-22.856-25.848-40.6-48.696-48.68l-5.336 15.08c18.272 6.472 32.472 20.664 38.944 38.944zM348.64 381.328l15.088 5.344c6.472-18.28 20.664-32.48 38.944-38.944l-5.336-15.08c-22.848 8.08-40.6 25.824-48.696 48.68z"/></svg>