<svg xmlns="http://www.w3.org/2000/svg" viewBox="0 0 496 496"><path d="M56 112h288c15.664 0 29.824-6.48 40-16.888V136h16V56c0-30.88-25.128-56-56-56H56C25.128 0 0 25.12 0 56s25.128 56 56 56zm288-96c22.056 0 40 17.944 40 40s-17.944 40-40 40-40-17.944-40-40 17.944-40 40-40zM56 16h248.888C294.48 26.176 288 40.336 288 56s6.48 29.824 16.888 40H56c-22.056 0-40-17.944-40-40s17.944-40 40-40zM96 128h16v240H96zM384 400.888C373.824 390.48 359.664 384 344 384H56c-30.872 0-56 25.12-56 56s25.128 56 56 56h288c30.872 0 56-25.12 56-56v-88h-16v48.888zM56 480c-22.056 0-40-17.944-40-40s17.944-40 40-40h248.888C294.48 410.176 288 424.336 288 440s6.48 29.824 16.888 40H56zm288 0c-22.056 0-40-17.944-40-40s17.944-40 40-40 40 17.944 40 40-17.944 40-40 40z"/><path d="M441.144 136c-23.504 0-45.608 9.152-62.224 25.776L296 244.688v80l-29.656 29.656 11.312 11.312L307.312 336h80l82.912-82.912C486.84 236.464 496 214.368 496 190.864V136h-54.856zM312 251.312l78.224-78.224c13.6-13.6 31.68-21.088 50.912-21.088h27.544L376 244.688V216h-16v44.688l-48 48v-57.376zm168-60.448c0 19.232-7.496 37.312-21.088 50.912L380.688 320h-57.376l88-88H448v-16h-20.688L480 163.312v27.552zM128 192h152v16H128zM264 224h16v16h-16zM128 224h120v16H128zM160 256h120v16H160zM128 256h16v16h-16z"/></svg>