<svg xmlns="http://www.w3.org/2000/svg" viewBox="0 0 496 496"><path d="M213.728 176.552l-2.384 5.008c-1.016 2.144-2.84 3.664-5.144 4.288-2.288.608-4.648.216-6.608-1.136l-6.04-4.16c-3.144-2.16-6.368-3.472-9.592-3.904-9.744-1.288-18.76 1.472-25.432 7.792-6.416 6.08-9.696 14.624-9 23.44l.44 5.472c.184 2.376-.632 4.608-2.32 6.296-1.688 1.672-3.96 2.512-6.288 2.32l-7.296-.576c-3.824-.296-7.256.176-10.264 1.416-9.072 3.736-15.512 10.648-18.136 19.464-2.512 8.48-1.08 17.512 3.928 24.792l3.12 4.528c1.344 1.96 1.752 4.304 1.144 6.6a7.901 7.901 0 0 1-4.288 5.16l-6.616 3.144c-3.432 1.64-6.176 3.776-8.176 6.36-5.984 7.768-8.112 16.976-5.968 25.912 2.056 8.6 7.824 15.712 15.808 19.512l4.952 2.36c2.152 1.024 3.672 2.848 4.288 5.152s.208 4.648-1.144 6.608l-4.152 6.024c-2.152 3.136-3.464 6.36-3.896 9.592-1.304 9.728 1.464 18.76 7.792 25.44 6.088 6.424 14.728 9.744 23.44 9l5.48-.432c2.368-.2 4.608.64 6.288 2.32 1.688 1.68 2.504 3.92 2.32 6.28l-.584 7.32c-.296 3.808.184 7.256 1.424 10.248 3.736 9.072 10.648 15.504 19.464 18.128 8.504 2.528 17.52 1.088 24.808-3.928l4.52-3.112c1.952-1.344 4.296-1.76 6.608-1.136a7.884 7.884 0 0 1 5.152 4.288l3.152 6.616c1.64 3.44 3.792 6.192 6.36 8.168 5.792 4.472 12.384 6.784 19.072 6.784 2.28 0 4.568-.272 6.84-.816 8.6-2.056 15.72-7.824 19.504-15.792l2.376-4.968c1.016-2.152 2.84-3.664 5.144-4.288 2.312-.624 4.648-.208 6.616 1.136l6.032 4.152c3.144 2.16 6.368 3.472 9.592 3.904 9.752 1.336 18.768-1.464 25.432-7.792 6.416-6.08 9.696-14.624 9-23.44l-.44-5.472c-.184-2.376.632-4.608 2.32-6.296 1.68-1.68 3.936-2.552 6.288-2.32l7.296.576c3.824.304 7.264-.176 10.248-1.416 9.08-3.728 15.52-10.648 18.144-19.464 2.52-8.48 1.096-17.512-3.92-24.8l-3.12-4.528c-1.344-1.96-1.752-4.304-1.144-6.6a7.901 7.901 0 0 1 4.288-5.16l4.96-2.36c7.984-3.8 13.752-10.912 15.808-19.512 2.144-8.944.024-18.152-5.976-25.928-1.992-2.576-4.744-4.72-8.168-6.352l-6.608-3.144c-2.16-1.024-3.68-2.856-4.296-5.16-.608-2.304-.2-4.648 1.152-6.608l4.152-6.024c2.152-3.136 3.464-6.36 3.896-9.592 1.304-9.72-1.464-18.76-7.784-25.432-6.08-6.424-14.624-9.68-23.448-9.008l-5.48.432c-2.4.24-4.608-.632-6.288-2.312-1.688-1.68-2.504-3.92-2.32-6.288l.584-7.328c.296-3.8-.184-7.248-1.424-10.248-3.736-9.072-10.648-15.504-19.464-18.128-8.472-2.52-17.512-1.08-24.808 3.928l-4.512 3.112c-1.968 1.352-4.32 1.76-6.608 1.136-2.304-.616-4.136-2.136-5.16-4.288l-3.152-6.608c-1.64-3.44-3.784-6.192-6.36-8.176-7.776-6-17-8.112-25.928-5.968-8.592 2.064-15.704 7.824-19.496 15.792zm12.064 11.896l2.376-4.968a13.045 13.045 0 0 1 8.776-7.112c4.136-1 8.56.096 12.448 3.088.552.424 1.152 1.272 1.68 2.376l3.144 6.608a23.967 23.967 0 0 0 15.456 12.864 23.915 23.915 0 0 0 19.832-3.408l4.512-3.112a13.075 13.075 0 0 1 11.176-1.768c4.088 1.216 7.36 4.368 9.216 8.88.16.376.4 1.248.264 2.896l-.584 7.312a23.971 23.971 0 0 0 6.968 18.872 23.894 23.894 0 0 0 18.856 6.952l5.48-.432c3.936-.368 7.824 1.16 10.56 4.056 2.928 3.096 4.184 7.464 3.536 12.304-.096.696-.528 1.64-1.224 2.656l-4.144 6.024a23.978 23.978 0 0 0-3.424 19.816 23.992 23.992 0 0 0 12.864 15.472l6.6 3.144c1.12.528 1.968 1.136 2.4 1.68 2.976 3.864 4.072 8.28 3.08 12.424a13.04 13.04 0 0 1-7.12 8.792l-4.968 2.36a23.961 23.961 0 0 0-12.856 15.472 23.952 23.952 0 0 0 3.416 19.808l3.12 4.528A13.085 13.085 0 0 1 359 377.2c-1.208 4.088-4.368 7.36-8.896 9.224-.624.264-1.624.376-2.888.256l-7.296-.576a23.956 23.956 0 0 0-18.864 6.952 23.982 23.982 0 0 0-6.96 18.872l.44 5.472a13.083 13.083 0 0 1-4.056 10.56c-3.088 2.936-7.456 4.224-12.296 3.544-.4-.056-1.28-.288-2.656-1.224l-6.024-4.152c-5.816-4-13.032-5.248-19.832-3.408a23.957 23.957 0 0 0-15.448 12.848l-2.376 4.968a13.03 13.03 0 0 1-8.784 7.12c-4.16 1-8.552-.104-12.44-3.088-.32-.24-.96-.88-1.68-2.376l-3.144-6.608a23.967 23.967 0 0 0-15.456-12.864 24.02 24.02 0 0 0-6.224-.824 23.987 23.987 0 0 0-13.6 4.232l-4.512 3.112a13.07 13.07 0 0 1-11.168 1.768c-4.096-1.216-7.368-4.368-9.224-8.888-.16-.368-.4-1.24-.264-2.888l.584-7.312a23.976 23.976 0 0 0-6.96-18.864c-4.976-4.976-11.8-7.504-18.864-6.952l-5.48.432c-3.952.344-7.824-1.168-10.56-4.048-2.928-3.096-4.184-7.472-3.536-12.304.096-.696.528-1.64 1.224-2.656l4.152-6.024a24.019 24.019 0 0 0 3.408-19.824 23.933 23.933 0 0 0-12.856-15.456l-4.96-2.36a13.104 13.104 0 0 1-7.12-8.792c-.992-4.152.104-8.56 3.072-12.416.44-.56 1.288-1.16 2.4-1.688l6.616-3.144a23.961 23.961 0 0 0 12.856-15.472 23.952 23.952 0 0 0-3.416-19.808l-3.12-4.528a13.085 13.085 0 0 1-1.768-11.168c1.208-4.088 4.368-7.36 8.888-9.224.368-.152 1.224-.408 2.896-.256l7.296.576c7.064.592 13.888-1.976 18.864-6.952a23.982 23.982 0 0 0 6.96-18.872l-.44-5.472a13.083 13.083 0 0 1 4.056-10.56c3.096-2.928 7.48-4.192 12.296-3.544.4.056 1.28.288 2.648 1.224l6.04 4.152a24.002 24.002 0 0 0 19.832 3.408 24.063 24.063 0 0 0 15.432-12.88z"/><path d="M136 312c0 57.344 46.656 104 104 104s104-46.656 104-104-46.656-104-104-104-104 46.656-104 104zm104-88c48.52 0 88 39.48 88 88s-39.48 88-88 88-88-39.48-88-88 39.48-88 88-88z"/><path d="M240 384c39.704 0 72-32.304 72-72s-32.296-72-72-72-72 32.304-72 72 32.296 72 72 72zm0-128c30.872 0 56 25.12 56 56s-25.128 56-56 56-56-25.12-56-56 25.128-56 56-56zM456 176h-40v320h40c22.056 0 40-17.944 40-40V216c0-22.056-17.944-40-40-40zm24 280c0 13.232-10.768 24-24 24h-24V192h24c13.232 0 24 10.768 24 24v240z"/><path d="M448 304h16v64h-16zM64 192v-16H40c-22.056 0-40 17.944-40 40v240c0 22.056 17.944 40 40 40h360v-16H64V192zM48 480h-8c-13.232 0-24-10.768-24-24V216c0-13.232 10.768-24 24-24h8v288zM341.008 16h46.2l-56.68 116.496 14.392 7.008L405.008 16h30.2l-90.4 185.832 14.384 7L460.792 0h-129.8l-72.24 148.496 14.392 7.008z"/><path d="M329.351 171.439l-14.389-6.999 7.783-16.001 14.389 6.998zM135.192 201.832L44.792 16h30.2l60.088 123.504 14.392-7.008L92.792 16h46.2l67.864 139.504 14.392-7.008L149.008 0h-129.8l101.6 208.832z"/><path d="M157.252 148.498l7.782 16-14.389 7-7.782-16.001z"/></svg>