<svg xmlns="http://www.w3.org/2000/svg" viewBox="0 0 496 496"><path d="M192 344h16v16h-16zM168 368h16v16h-16zM216 368h16v16h-16zM192 392h16v16h-16zM384 400h16v-16h16v-16h-16v-16h-16v16h-16v16h16zM312 392h16v16h-16zM264 392h16v16h-16z"/><path d="M464 152H288v16h176c8.824 0 16 7.176 16 16v72c0 8.824-7.176 16-16 16H312c-13.232 0-24 10.768-24 24v8h-96c-30.88 0-56 25.12-56 56v101.592C136 480.56 151.44 496 170.408 496a34.477 34.477 0 0 0 28-14.408L228.12 440h135.768l29.704 41.592a34.477 34.477 0 0 0 28 14.408C440.56 496 456 480.56 456 461.592V360c0-30.88-25.12-56-56-56h-96v-8c0-4.408 3.592-8 8-8h152c17.648 0 32-14.352 32-32v-72c0-17.648-14.352-32-32-32zM344 320h56c22.056 0 40 17.944 40 40v101.592c0 10.152-8.256 18.408-18.408 18.408a18.436 18.436 0 0 1-14.976-7.704L372.12 424H219.88l-34.496 48.296A18.425 18.425 0 0 1 170.408 480C160.256 480 152 471.744 152 461.592V360c0-22.056 17.944-40 40-40h56v32h96v-32zm-16 0v16h-64v-16h64z"/><path d="M344 240h16v16h-16zM376 240h16v16h-16zM408 240h16v16h-16zM344 120h16v16h-16zM376 120h16v16h-16zM408 120h16v16h-16zM272 136C272 61.008 210.992 0 136 0S0 61.008 0 136v152h272V136zm-16 136h-16v-32h-16v32h-16v-32h-16v32h-16v-32h-16v32h-16v-32h-16v32h-16v-32H96v32H80v-32H64v32H48v-32H32v32H16V136C16 69.832 69.832 16 136 16s120 53.832 120 120v136z"/><path d="M80 88c-17.648 0-32 14.352-32 32s14.352 32 32 32 32-14.352 32-32-14.352-32-32-32zm0 48c-8.824 0-16-7.176-16-16s7.176-16 16-16 16 7.176 16 16-7.176 16-16 16zM192 88c-17.648 0-32 14.352-32 32s14.352 32 32 32 32-14.352 32-32-14.352-32-32-32zm0 48c-8.824 0-16-7.176-16-16s7.176-16 16-16 16 7.176 16 16-7.176 16-16 16z"/></svg>