<svg xmlns="http://www.w3.org/2000/svg" viewBox="0 0 32 32"><path d="M26.864 8.055c-2.031 1.581-2.391 1.309-2.466-1.141-.03-.936-.323-1.796-1.213-2.111-.913-.327-1.22.684-1.654 1.184-1.37 1.572-3.989 2.393-6.033 1.762-3.591-1.112-4.266-.86-6.722 2.273-.337.425-.982.6-1.475.9-.619.371-1.614.149-1.741 1.322-.046.459-.989.766-1.284.567-2.235-1.504-2.632.166-3.64 1.653-1.08 1.595-.516 3.092-.241 4.449.222 1.122-.75 2.959 1.03 3.424 2.111.548 1.374 1.364.5 2.381-.379.44-.73.904-1.151 1.432 3.23 1.601 6.52 1.126 9.788.714 1.361-.172 2.645-.454 2.417-2.371-.081-.694.544-1.272 1.132-1.524 2.323-.992 5.609-.613 5.936-4.341.01-.097.211-.239.329-.25 1.847-.156 1.112-1.227.671-2.155 2.07-.036 4.126-2.432 3.349-4.135-.697-1.529.059-1.832 1.082-2.416.942-.542 1.907-.792 2.941-.698 1.227.108 2.328-.043 3.585-1.718-1.982.642-3.474-.502-5.14.798z"/></svg>