<svg xmlns="http://www.w3.org/2000/svg" viewBox="0 0 32 32"><path d="M15.076 1.073c-.255-.045-.557.121-.829.216-.933.323-2.038 1.15-2.035-.854 0-.534-.555-.527-.789-.238-1.214 1.481-2.975 2.859-3.137 4.705-.094 1.063-.426 3.055 1.097 3.793 1.612.774 1.334 1.707.654 2.818-.359.59-.826 1.318-.608 1.851 1.389 3.408-1.926 6.702-.166 10.083-1.745 2.643.903 2.862 2.154 3.543 1.42.777 2.392 1.743 2.723 3.262.267 1.229 1.04 2.044 2.109 1.671.9-.308 2.029-1.131 1.458-2.546-.423-1.051.394-1.543 1.001-1.577 1.692-.085 1.928-1.324 2.353-2.483.303-.829.568-1.605 1.574-1.971.782-.285 1.445-1.232 1.087-1.952-.471-.933.03-2.418-1.277-2.835-2.306-.734-3.146-2.513-3.482-4.635-.346-2.199.548-4.278.839-6.417.017-1.173-3.663-6.231-4.726-6.432z"/></svg>