<svg xmlns="http://www.w3.org/2000/svg" viewBox="0 0 32 32"><path d="M18.824 31.049c.307.552 3.003.09 4.216-1.007 2.294-2.064 4.99-3.498 7.546-5.158.549-.357 1.562-.461 1.393-1.481-.143-.858-.882-1.069-1.605-1.357-1.415-.56-1.807-1.614-1.662-3.161.348-3.728.266-7.409-2.18-10.614-.464-.605-1.608-1.474-1.103-1.979 1.608-1.611.675-3.667 1.331-5.375-1.833-.564-3.641.262-5.436.132-3.851-.277-7.257.812-10.466 2.815-.434.269-.697.382-.426.973.608 1.332.161 2.92 1.31 4.434-2.435-.353-3.711.739-4.974 2.283-1.696 2.075-4.878 1.631-6.769 3.536v2.694c5.424 3.34 10.904 6.6 15.7 10.856.963.855 2.335.987 3.124 2.408z"/></svg>