<svg xmlns="http://www.w3.org/2000/svg" viewBox="0 0 32 32"><path d="M3.228 16.602c1.681 2.362 1.302 3.702-1.457 4.877-.601.252-1.133.533-1.175 1.164-.044.651.652.32.988.501.547.301.625.778.609 1.322-.085 2.932 1.217 4.526 4.283 4.407.221-.008.45.003.665.054 3.457.828 4.747.175 5.748-2.784.79-.512 1.072 1.59 1.663.37.683-1.405 1.651-1.19 2.738-1.19 3.222.005 3.673-.358 4.44-3.33.143-.554.033-1.084 1.13-.408 2.317 1.43 3.353.236 4.249-2.445.731-2.178-.304-5.966 3.943-6.028.411-.008 1.009-.388.947-1.06-.073-.784-.675-.655-1.171-.591-.816.104-1.368-.601-2.065-.662-1.885-.171-2.137-.841-1.006-2.324.492-.648.337-1.11-.151-1.151-3.28-.263-6.419-1.47-9.767-1.335-1.438.056-2.768-.372-3.622-1.862-.687-1.204-1.817-1.657-3.344-1.216-1.009.29-1.969 1.038-3.148.672-1.9-.589-3.329.639-2.71 2.587.535 1.679-.097 2.024-1.486 2.423-1.303.375-2.397 2.37-2.016 2.761 1.468 1.525.372 2.016-.52 2.953-.544.574-.675 1.542-.994 2.336 1.192.47 2.164-1.539 3.228-.042z"/></svg>