<svg xmlns="http://www.w3.org/2000/svg" viewBox="0 0 32 32"><path d="M2.912 2.932c1.28.484.425-.98.827-1.435C4.17 1.012 4.817.708 4.975 0H3.184c-.02.137.009.352-.065.397-1.283.778-.748 2.329-.206 2.534zm1.865 26.816c.475-.205.88.061 1.212.361.743.67 1.58.528 2.493.513 2.897-.046 5.951-.669 8.655.314 3.911 1.423 7.615 1.359 11.572.231-3.142-3.506-3.142-3.506-3.142-7.478 0-.447.071-.908-.012-1.338-.358-1.917.476-2.533 2.281-2.216 1.65.29 2.524-.19 2.524-2.11.003-2.663.127-2.651-2.687-2.571-.399.011-.801-.158-1.204-.255v.021l-.046-.032.044.012c.058-2.107-1.501-3.886-1.189-6.132.068-.497.924-2.625-1.119-2.433-1.197.114-1.856-1.039-3.001-.831-.686.124-1.372.109-1.509.987-.35 2.285-2.38 1.074-3.558 1.617-1.071.493-1.329-.93-1.784-1.592-.437-.637-.666-1.454-.836-2.228-.165-.757-.52-1.322-1.272-1.306-2.524.049-5.053-.331-7.571.061-1.386.214-1.938.655-.955 2.151.822 1.253 2.073 2.998 1.527 4.187-.828 1.812-.03 2.933.629 4.212.786 1.52 1.139 3.367-.018 4.363-2.562 2.208-2.681 5.308-3.737 8.074-.463 1.213-.622 2.677-.099 3.625.466.845 1.853.205 2.803-.208z"/></svg>