<svg xmlns="http://www.w3.org/2000/svg" viewBox="0 0 32 32"><path d="M11.58 27.479c-.05-.174.396-.447.435-.699.224-1.402 3.942-1.966 1.012-4.142-.062-.044.032-.521.15-.571 1.073-.453 1.122-1.863 1.799-2.298 1.457-.935-.164-1.169-.132-1.685.095-1.525 2.195.488 2.117-1.063-.091-1.881 1.206-1.413 2.196-1.607 2.09-.414 2.851-1.719 2.001-3.375-1.11-2.166-.829-4.056.903-5.741.587-.568 1.303-.997 1.872-1.572.4-.409.397-.95-.059-1.384-.259-.244-.596-.244-.723.088-.324.837-.79 1.405-1.773 1.358-1.726-.086-.17-1.266-.597-1.784-.05-.053-.08-.153-.138-.17C18.686 2.229 17.454.103 15.23.16c-1.376-.449-1.875.059-2.56 1.296-1.205 2.183-1.92 4.514-2.418 6.857-.279 1.303.405 2.822-.159 4.233-.69 1.708-.887 3.526-1.079 5.329-.3 2.816.711 5.763-1.175 8.471-.329.471.629 2.28 2.143 2.492 1.075.152 2.078.324 1.596-1.36zm.233 2.588c-.468 2.693 1.352 1.832 2.558 1.701-.802-.537-1.608-1.069-2.558-1.701z"/></svg>