<svg xmlns="http://www.w3.org/2000/svg" viewBox="0 0 32 32"><path d="M1.314 5.246c1.147 1.345 2.204 2.97.866 4.562-1.83 2.17.301 3.817.529 5.655.11.914 2.095 1.555 3.297 1.244 2.782-.717 4.546.698 6.228 2.468.93.978 1.861 1.663 3.258.877.794-.442 1.285.112 1.641.689 1.211 1.954 2.858 2.502 5.005 1.727.549-.195 1.455-.842 1.567.281.26 2.682 2.428 4.39 3.214 6.831.672 2.093 2.423.095 3.688.382.943.212.491-.98.627-1.551.164-.696-1.531-1.91.637-2.09.356-.028-.039-.637-.269-.874-.496-.507-1.042-.964-1.638-1.509.483-.536 1.544-.644 1.127-1.509-.337-.706-1.164-1.096-1.854-1.009-.821.096-1.398-.063-2.009-.568-1.57-1.303-3.185-2.554-5.02-4.012.536-.031.805-.102 1.054-.052 1.489.299 2.201-.515 2.532-1.794.378-1.465-.986-1.423-1.733-1.846-1.3-.739-2.519-1.535-3.426-2.765-.723-.977-1.044-1.82.327-2.499 1.226-.606 1.3-1.262.137-2.082-.706-.502-1.221-1.195-2.259-1.22-.391-.01-1.332.022-1.393-.99-.084-1.513-1.47-2.425-2.875-2.04-.683.188-1.23.667-2.047.609C8.312 1.869 4.253 3.078 0 3.573c.214.92.894 1.186 1.314 1.673z"/></svg>