<svg xmlns="http://www.w3.org/2000/svg" viewBox="0 0 32 32"><path d="M29.339 31.966c1.502-.022 1.738-.401 1.304-1.941-.297-1.064-.346-2.229-.808-3.205-.906-1.912-.716-4.409-2.434-5.789-1.802-1.447-3.939-2.812-5.036-4.653-1.57-2.628-4.152-3.428-6.297-5.029-1.548-1.15-3.375-1.818-4.765-3.297C8.96 5.567 7.14 2.559 4.093.753 3.471.39 2.967-.37 2.191.21c-.865.651 0 1.182.184 1.838.69 2.48 2.48 4.87.156 7.647-.683.813-2.359 2.589-.515 4.229 2.873 2.559 5.613 5.286 8.654 7.621 1.038.8 2.65.883 3.7 2.003 3.262 3.454 7.673 5.094 11.856 6.959 1.023.456 1.734 1.786 3.111 1.459z"/><path d="M21.457 27.522c-1.528-.972-2.657-1.712-4.493-.561 1.625.266 2.764.972 4.493.561z"/></svg>