<svg xmlns="http://www.w3.org/2000/svg" viewBox="0 0 32 32"><path d="M6.532 20.876c1.776-1.038 3.563-1.926 5.161.313.321.446.811.631 1.359.639 3.472.05 6.931 2.397 10.434.071.209-.144.582-.024.878-.045 3.382-.238 4.878-1.682 5.471-5.279l-.064.023.067-.039-.003.018c1.232-.371 2.077-.899 2.174-1.743a1.587 1.587 0 0 0-.036-.471l.002.011.002.01c-.006-.033.002-.065-.006-.101a2.746 2.746 0 0 0-.234-.624l.007.015.007.016c-.006-.014-.008-.026-.015-.039a5.282 5.282 0 0 0-.468-.751l.01.014.01.014c-.175-.244-.157-.714-.079-1.041.327-1.338-.749-1.716-1.51-1.628-1.781.204-3.283-.545-4.898-.941-.897-.221-1.814-.631-2.419.788-.389.914-1.822 1.584-2.622 1.009-1.229-.882-2.08-.34-2.82.292-.926.785-2.074 1.3-2.884 2.082-1.059 1.017.549 2.102.625 3.235.003.05-.095.104-.319.348-.744-1.014-1.87-1.111-3-.964-2.212.291-4.256 2.017-6.666.734-.221-.115-.888.092-.961.286-.455 1.248-.94.782-1.554.145-.502-.52-1.309-.784-1.732-.18-.366.519-.66 1.342-.247 2.085.555 1.009 5.365 2.262 6.33 1.699z"/></svg>