<svg xmlns="http://www.w3.org/2000/svg" viewBox="0 0 32 32"><path d="M27.22 10.169c-.337-2.576-2.31-4.359-2.638-7.185-1.167 1.584-1.292 3.012-1.411 4.457-.068.832-.49 2.088-1.132 1.895-1.21-.363-2.32-1.263-3.3-2.133-.665-.59-.161-1.345.334-1.94.452-.536.195-1.574-.094-1.392-1.502.93-3.015-1.133-4.517.279-1.203 1.13-2.051 2.996-4.572 2.171-.686-.224-2.79 1.816-3.147 3.119-.516 1.88-1.691 2.418-3.119 2.986-4.216 1.671-4.392 3.605-2.367 7.487.776 1.48 1.806 2.875 1.454 4.683-.26 1.332 1.101 1.546 1.453 1.315 1.635-1.091 3.773-.943 5.265-2.232 2.726-2.357 5.814-2.152 7.943.644.43.564.66.712 1.056.062.108.132.215.269.325.401.812.792 1.61 1.463 2.136 2.633.83 1.863 6.057 2.24 7.128.427 1.04-1.767 2.339-3.377 3.249-5.216 1.482-2.993.584-5.569-1.127-8.219-.943-1.46-2.691-2.514-2.919-4.242z"/></svg>