<svg xmlns="http://www.w3.org/2000/svg" viewBox="0 0 32 32"><path d="M29.844 13.485c-.312-.372-.583-.691-1.238-.661-.168.009-.366.014-.565.014h-.002c-.235 0-.447-.009-.647-.028a16.954 16.954 0 0 0-.797-.063l-.104-.005c-.204-.011-.38-.02-.54-.156a.616.616 0 0 1-.195-.332l-.001-.004c-.056-.239.029-.339.135-.466l.025-.03c.117-.142.165-.288.141-.434-.027-.169-.15-.326-.354-.454a1.897 1.897 0 0 0-.355-.163l-.014-.004c-.12-.045-.234-.087-.339-.153-.383-.24-.496-.468-.683-.847l-.048-.097c-.187-.376-.26-.746-.337-1.137-.039-.198-.079-.403-.136-.613-.148-.546-.552-1.075-.887-1.475-.21-.251-.387-.547-.574-.86-.264-.442-.533-.903-.932-1.239a2.23 2.23 0 0 0-.32-.224l-.011-.006-.011-.006c-.089-.05-.224-.148-.33-.146-.165.003-.186.267-.23.381-.093.241-.294.367-.429.577-.071.11-.124.22-.175.326-.091.188-.177.366-.352.531-.242.229-.551.32-.877.417-.411.122-.836.248-1.137.663-.173.238-.244.493-.307.718-.1.358-.185.667-.642.841-.176.067-.362.07-.559.073h-.014c-.148 0-.294.01-.436.03l.017-.002a2.27 2.27 0 0 1-.273.033h-.006c-.057 0-.064-.007-.127-.08-.062-.07-.155-.176-.355-.329a4.025 4.025 0 0 0-.436-.279l-.021-.01c-.267-.152-.519-.297-.708-.555a3.622 3.622 0 0 1-.4-.759l-.009-.025a1.51 1.51 0 0 1-.045-.142l-.002-.01c-.051-.182-.108-.389-.25-.465-.061-.033-.152-.012-.234.013a.433.433 0 0 1-.106.024h-.002c-.228-.036-.342-.062-.43-.263-.027-.061-.035-.127-.044-.197a.6.6 0 0 0-.102-.31l.001.002a.594.594 0 0 0-.23-.166l-.004-.001c-.056-.027-.103-.074-.154-.111-.056-.041-.114-.047-.175-.074-.118-.053-.172-.184-.223-.296-.06-.133-.127-.283-.275-.372-.13-.079-.324-.065-.53-.03-.096.016-.196.033-.294.033h-.005a.168.168 0 0 1-.148-.09v-.001a.453.453 0 0 0-.405-.267c-.415-.012-.607.061-.896.372-.21.226-.441.404-.728.56a.366.366 0 0 0-.175.45l-.001-.003c.094.247.336.429.579.518.097.036.17.12.178.223.026.327.09.507.426.776.399.319.743.594 1.133 1.019.029.032.061.065.094.099.174.178.372.381.324.612a.432.432 0 0 1-.107.168.585.585 0 0 0-.131.206l-.001.004a.265.265 0 0 0 .034.218l-.001-.001c.025.047.036.068.005.131-.087.174-.23.258-.438.258-.377 0-.858-.279-1.093-.416a1.617 1.617 0 0 0-.81-.215l-.051.001h.003c-.116 0-.232.007-.351.014a3.917 3.917 0 0 1-.714-.007l.016.001a3.318 3.318 0 0 1-.912-.284l-.052-.022c-.318-.139-.414-.181-.464-.501a2.196 2.196 0 0 1-.024-.26v-.008c-.011-.232-.018-.385-.346-.577-.277-.163-.537-.179-.813-.197a4.999 4.999 0 0 1-.279-.023l.022.002a.737.737 0 0 1-.385-.161l.001.001c-.105-.073-.214-.149-.402-.172a.671.671 0 0 0-.093-.006h-.004c-.39 0-.77.269-.877.352-.524.404-.833 1.031-.803 1.593a.341.341 0 0 0 .283.319h.004c.132.02.269.041.399.084v.002c0 .005-.003.01-.007.012a1.567 1.567 0 0 0-.517.497l-.004.006a.24.24 0 0 0-.013.248L1.6 9.616l-.001-.001a.24.24 0 0 0 .213.128h.003c.702-.012 1.152.001 1.82.353.31.163.805.525.885.785.073.238.075.404.006.508-.062.093-.186.149-.406.181a.345.345 0 0 0-.22.134l-.001.001c-.028.036-.063.071-.099.107a.735.735 0 0 0-.197.268l-.002.005c-.328.933.666 1.711 1.465 2.335.263.206.511.4.673.571l.123.128c.425.441.827.857.498 1.452-.169.307-.477.318-.834.331-.337.012-.685.025-.919.313a.078.078 0 0 0-.018.05c0 .026.012.049.031.063.155.115.305.163.451.21.189.061.352.114.507.304.048.059.091.124.137.193.07.105.142.213.234.302.076.074.157.131.235.187.105.074.204.145.286.25.052.066.095.137.141.212.068.111.139.227.238.325.233.232.54.407.915.52.136.041.277.047.384.047.061 0 .122-.002.184-.004.059-.002.119-.004.177-.004.144 0 .248.012.337.041.145.046.273.099.397.149.08.033.161.066.246.097.214.079.24.383.031.475-.108.041-.232.07-.362.083h-.006c-.246.035-.5.07-.572.303-.083.268.222.435.423.546.048.027.091.05.12.07.152.109.192.181.248.279.034.06.072.129.14.215.056.072.14.127.221.18.171.113.247.178.214.289-.042.141-.198.161-.414.174a1.436 1.436 0 0 0-.19.02l.008-.001c-.269.055-.382.12-.389.224-.011.151.223.243.607.379l.101.036c.126.046.2.182.161.311-.034.112-.089.22-.146.331-.117.229-.237.466-.181.758a.076.076 0 0 0 .037.053.074.074 0 0 0 .039.011h.003a.067.067 0 0 0 .024-.004h-.001c.425-.139.991-.789 1.185-1.065.038-.055.077-.119.113-.186l.005-.011c.082-.149.159-.29.319-.369a.562.562 0 0 1 .242-.053h.022-.001c.048 0 .096.003.145.006.133.008.264.009.369-.018.352-.091.476-.345.597-.591.088-.18.171-.35.342-.469.145-.101.313-.182.491-.267.236-.113.481-.23.68-.404.125-.109.199-.227.271-.34.068-.108.132-.209.238-.305.235-.212.526-.384.806-.54.192-.107.358-.221.518-.331.321-.222.599-.413.997-.489.74-.14.916.047 1.431.557l.169.167c.333.327.837.82 1.044 1.197.044.08.089.189.056.252-.049.094-.276.117-.477.137-.199.02-.404.041-.54.127a.594.594 0 0 0-.274.42v.003c-.052.318.096.671.266.879.076.093.195.191.321.293.213.174.478.391.453.554-.015.095-.134.19-.346.275-.095.038-.254.065-.423.094-.399.069-.895.154-1.076.452-.08.132-.091.292-.033.474.075.235.334.315.563.387.113.035.22.069.302.116.198.114.389.295.601.569.043.055.064.133.085.209.02.074.039.144.079.197.053.08.13.141.22.173l.003.001c.035.013.07.027.122.061l.147.094c.187.117.399.25.54.421.082.1.135.179.182.249.138.206.215.301.584.399.14.037.243.054.335.054.153 0 .264-.047.418-.113l.159-.066.045-.018c.386-.153.439-.192.532-.697.049-.267.141-.762.054-1.085-.038-.14-.102-.241-.158-.33-.082-.129-.146-.232-.133-.431.02-.283.119-.346.284-.449.082-.052.176-.11.274-.205.303-.293.233-.794.166-1.279a4.66 4.66 0 0 1-.054-.505v-.011-.004c0-.042.032-.077.073-.082.114-.009.236.04.367.092.134.053.273.108.433.108.497-.011.627-.337.689-.655.023-.116.017-.237.011-.345-.005-.102-.011-.217.02-.25.016-.016.063-.017.131.001.137.034.257.114.384.199l.052.035a.24.24 0 0 0 .317-.054.234.234 0 0 0 .039-.208v.002c-.08-.288-.198-.619-.469-.885-.416-.409-.46-.765-.153-1.229a1.09 1.09 0 0 1 .187-.185l.002-.002c.124-.106.252-.215.28-.349.039-.188-.043-.292-.108-.376-.064-.082-.115-.147-.092-.293.015-.096.097-.175.184-.259.103-.1.22-.213.226-.372.005-.15-.074-.241-.132-.308-.074-.085-.108-.124-.01-.265.023-.034.063-.046.125-.063.088-.024.209-.057.261-.214.057-.173-.011-.278-.066-.362a.571.571 0 0 1-.058-.103l-.001-.004-.05-.125c-.105-.252-.168-.404.047-.659.343-.407 1.057-.8 1.575-.993.441-.164 1.2-.33 1.798-.33.123 0 .234.007.331.021.243.035.808.309.98.685a.203.203 0 0 0 .185.119h.005c.101 0 .186-.07.208-.165v-.001c.102-.458-.083-.955-.537-1.436-.091-.098-.172-.195-.251-.289z"/><path d="M23.947 23.661a.446.446 0 0 0-.121.045l.002-.001c-.152.081-.3.24-.427.383-.241.27-.185.451-.096.555a.372.372 0 0 0 .285.134h.004c.176 0 .384-.111.557-.297.158-.169.245-.358.235-.506a.352.352 0 0 0-.123-.248.366.366 0 0 0-.319-.065l.003-.001zm-16.536.546a2.919 2.919 0 0 1-.089-.209l-.01-.028-.016-.048a1.219 1.219 0 0 1-.03-.083l-.002-.008-.006-.021a1.487 1.487 0 0 0-.113-.28l.004.008a1.477 1.477 0 0 0-.069-.105l.003.004.003.004a.516.516 0 0 1-.091-.17l-.001-.004-.028-.112c-.028-.112-.056-.221-.08-.34a1.204 1.204 0 0 1-.009-.466l-.001.007c.068-.451-.42-.627-.777-.756-.088-.032-.171-.062-.233-.092-.104-.05-.113-.083-.062-.237.103-.311.22-.75.047-.975-.168-.218-.466-.437-.754-.437h-.002a.546.546 0 0 0-.202.039l.004-.001a4.765 4.765 0 0 0-.572.283l.023-.012.023-.012c-.06.034-.118.077-.174.119-.139.103-.27.197-.407.159a1.653 1.653 0 0 1-.505-.242l.005.003.005.003a1.517 1.517 0 0 1-.214-.191l-.001-.001c-.05-.052-.101-.1-.155-.147l-.003-.002-.003-.003c-.076-.063-.184-.082-.315-.054a.498.498 0 0 0-.079.022l.004-.001.005-.001-.003-.014v-.002a1.121 1.121 0 0 1-.014-.16v-.001c-.004-.109-.007-.222-.083-.341a1.44 1.44 0 0 0-.425-.409l-.006-.003-.034-.022c-.103-.068-.221-.146-.346-.173-.134-.029-.277.027-.393.078a1.248 1.248 0 0 1-.724.108l.007.001.007.001-.031-.004a1.131 1.131 0 0 0-.162-.015H.307a.333.333 0 0 0-.213.077h.001c-.122.109-.112.296-.04.424.051.09.123.157.194.222l.058.055c.223.218.368.512.507.796l.067.136c.084.168.189.363.328.538.116.147.257.252.393.354l.091.069c.12.089.214.206.273.342l.002.005c.026.06.03.112.037.178l.005.047c.006.051.021.093.034.131.011.03.021.059.025.089s.007.065.008.101v.001c.007.122.013.248.181.342.142.08.277.096.42.112l.122.015a.796.796 0 0 1 .41.181l-.001-.001c.331.263.534.551.603.859.084.37.444.435.734.487.064.012.127.023.186.037.091.022.184.039.276.056.158.029.32.059.467.113.109.04.216.086.323.133s.213.092.32.132c.222.082.458.117.687.15.144.021.293.043.433.076.033.008.07.013.109.013h.001c.1 0 .179-.034.236-.105a.284.284 0 0 0 .04-.237v.002c-.046-.195-.13-.394-.21-.586zm24.552-9.885a.303.303 0 0 0-.268-.162h-.012.001c-.05 0-.102.01-.151.03-.142.057-.238.187-.276.375-.01.05-.016.1-.023.15a1.188 1.188 0 0 1-.04.215l.002-.008c-.012.04-.026.085-.021.134a.167.167 0 0 0 .016.059v-.001c.03.059.085.101.152.111h.001a.345.345 0 0 0 .242-.052l-.001.001a.953.953 0 0 0 .274-.299l.002-.005c.138-.221.173-.41.101-.549z"/></svg>