<svg xmlns="http://www.w3.org/2000/svg" viewBox="0 0 32 32"><path d="M0 3.121v.781c.598.344 1.096 1.17 1.866.812 1.183-.549 2.78.093 3.646-1.334.287-.468.681-.179.969.099.747.717 1.328 1.477.451 2.501-.485.565-.155.931.321 1.26.356.246.698.317 1.047-.02.781-.762.746-3.016-.022-3.841-.432-.46-1.092-.727-1.255-1.425H4.294c-.464.496-1.063.381-1.646.356-.978-.046-1.903.094-2.647.812zm22.637 26.93h.779c1.338-.468 3.092-.743 3.13-2.711.011-.509.163-.96-.566-1.186-.541-.168-.91.161-.943.684-.037.55.282.832-.994.853-1.674.026-1.901.997-1.406 2.36zm5.491-4.436a.589.589 0 0 0 .874.482l-.003.002-.003.002c1.034-.547 2.007.13 3.006.046v-1.169c-1.03-.394-1.694-1.123-3.185-.247-.464.278-.754.364-.688.885zM2.893 13.663c1.092.623 1.604 1.683 2.05 2.737.282.672.647.911 1.287.85.803-.081.805-.698.829-1.601-.727-1.439-.791-3.413-1.921-5.013-.36-.508-.744-.943-1.399-.824-.789.147-.382.771-.451 1.239-.062.419-.324.852-.615 1.18-.537.608-.374 1.091.221 1.432zm7.336-3.837c.595.206 1.687.464 1.367 1.289-.401 1.039-.193 1.878.681 1.941.906.07.577-1.213 1.042-1.854.245-1.41-1.12-2.198-2.282-2.861-.697-.398-1.239-.39-1.592.338-.364.763.138.924.784 1.146zm9.834 11.908c.264.234.763.209.801.743-.175.153-.356.346-.565.496-.369.262-.534.674-.282.989.365.455.799.145 1.185-.122.812-.562 1.588-1.117 1.425-2.298-.333-2.407-1.121-.405-1.842-1.025-.315-.272-.733-.249-.979.192-.225.407-.03.766.255 1.025zm-4.324-4.26c.303 1.28.546 2.608 1.859 3.311.214.115.493.28.672.22.178-.059.266-.378.428-.64-.968-1.548-1.6-2.572-2.17-3.438-.069-.102-.439-.159-.512-.082-.155.155-.32.443-.278.629zm-.518-2.316c-.057.547.696.386 1.124.291.155-.03.447-.209.397-.374-.737-2.395-1.995-2.97-2.087-2.963-.12.04-.307.04-.354.119-.677 1.251 1.039 1.757.92 2.928zm11.326 8.527c.321.204.67-.201.706-.727-1.005-1.948-.62-.668-1.945-.863a.588.588 0 0 0-.661.736l-.001-.004-.001-.004c.238 1.025 1.291.475 1.903.862zm-14.029-6.371c.204.89 1.038 1.041 1.735 1.277.337.111.703-.237.579-.549-.292-.77-1-1.105-1.67-1.346-.446.04-.726.251-.644.618zm-4.37-6.323c-.044-.583-.469-.756-.94-.778-.533-.022-1.119.108-1.214.721-.095.579.424.748.897.766.538.018 1.026-.13 1.258-.709zm10.583 4.582c.026.432.206.796.689.715.501-.082.689-.522.801-.968-.099-.427-.324-.758-.779-.711-.536.053-.739.448-.711.964z"/></svg>