<svg xmlns="http://www.w3.org/2000/svg" viewBox="0 0 32 32"><path d="M11.853 20.925c3.318 2.93 5.279 6.589 6.159 11.088 1.406-1.476 2.56-2.959 2.876-4.771.519-2.96.986-5.962 1.058-8.959.12-5.169 1.177-10.699-4.562-14.666 1.072 0 1.508.015 1.944-.003.619-.03 1.374.328 1.742-.504.453-1.024-.583-1.553-.845-2.341-.316-.947-1.07-.526-1.644-.234-1.211.619-2.337.472-3.572-.025-1.466-.589-3.281-1.018-4.078.763-.973 2.173-1.671 4.453-.025 6.88 1.908 2.809 2.635 5.875.399 9.006-.971 1.358-.598 2.752.55 3.765z"/></svg>