<svg xmlns="http://www.w3.org/2000/svg" viewBox="0 0 32 32"><path d="M28.176 29.605c-.375-3.551-.296-6.989-1.414-10.284-.378-1.109.214-2.957-1.279-3.165-1.657-.228-1.487 1.778-2.114 2.806-.034.056.006.152-.013.221-.256.915-.423 1.02-1.228.23-2.387-2.343-2.109-4.668.998-5.767 1.42-.506 2.241-1.36 2.728-2.686.149-.398.057-.975.596-1.111 2.155-.53.34-1.047-.051-1.366-.643-.525-1.437-.615-2.314-.583a116.835 116.835 0 0 1-7.51.001l.182.005.174.004c-2.987-.076-3.485-.599-3.586-3.574-.021-.607-.026-1.181-.366-1.717-.262-.411-.546-.798-.982-.265-1.133 1.39-1.729.615-2.297-.502-.287-.568-.405-1.734-1.306-.34-.271.426-.758.117-1.047-.345C6.993.608 6.529.119 5.841-.001c-.725.442.268 1.224-.505 1.762-1.814 1.256-1.294 2.383.265 3.579.624.477 1.218.739 1.91.985.266.095.444.556.583.883.16.379-.158.626-.433.546-1.33-.405-1.6.644-2.317 1.363-2.042 2.036-2.176 2.302.537 3.26 1.77.624 1.734 1.462 1.102 2.775-.3.625-.523 1.206-.059 1.888 1.644 2.393 1.579 5.297 2.232 7.973.609 2.494 1.433 2.944 3.525 1.339.801-.616 1.402-1.794 2.152.066.23.565.748.123 1.03-.249.307-.407.266-1.146 1.184-.875 1.525.446 1.679-.654 1.849-1.759.059-.391-.449-.9.467-1.197 2.56-.833 5.056.717 4.675 3.39-.382 2.658 1.322 4.275 2.027 6.275 1.209-.555-2.206-3.888 2.109-2.398z"/></svg>