<svg xmlns="http://www.w3.org/2000/svg" viewBox="0 0 32 32"><path d="M31.905 17.861c.435-.65-.704-1.736-1.111-1.785-1.382-.167-1.848-1.35-2.607-2.071-1.181-1.119-2.436-2.29-2.105-4.379.287-1.807-.532-3.359-2.625-3.549-1.217-.105-2.192.149-3.552-.684-2.656-1.631-5.926-.262-7.926 1.412-1.365 1.142-2.783 3.015-3.743 4.784-.573 1.057-1.147 1.707-2.118 2.349-1.665 1.105-3.478 1.188-5.31 1.197-.211 1.157.376 1.991.685 2.9.286.842.989 1.988.307 2.541-1.369 1.11-2.735 1.456-.94 3.748 1.183 1.505.672 2.112 2.637.696.407-.29.784-.361 1.234-.405 5.384-.535 10.39 1.688 15.64 2.156 1.377.122 2.946-.895 4.141.573.149-.142.436-.296.426-.417-.373-2.984 1.732-3.189 4.177-3.354-1.073-.967-.485-2.144-.98-3.057-.75-1.378-1.328-2.438 1.102-1.438 1.147.47 2.149-.45 2.669-1.217z"/></svg>