<svg xmlns="http://www.w3.org/2000/svg" viewBox="0 0 32 32"><path d="M31.823 16.275c-1.256-2.158-2.84-3.847-5.667-3.882.478-.947.889-1.7 1.243-2.482.221-.486.401-1.208-.248-1.339-1.218-.25-1.954-1.668-3.405-1.298-.792.201-1.715-.081-1.945-.769-.667-2.006-2.446-1.086-3.58-1.299-1.867-.35-3.618.672-5.099 1.94-.586.504-5.551.501-5.796-.085-.577-1.371-1.416-.757-2.17-.452-1.171.468-2.246 1.203-3.44 1.572-1.977.611-2.006 1.89-1.281 3.358.632 1.281 1.456 2.574 3.268 1.751.83-.373 1.637-.315 1.796.597.283 1.617 1.171 2.245 2.703 2.255.629.008.859.413.97 1.01.125.673.426.737 1.238.632 2.364-.317 3.293.539 3.105 2.919-.085 1.093.222 1.266 1.086 1.366 1.797.215 3.27-.294 4.327-1.969-.021 1.473-.279 3.091 1.057 3.676 1.587.696 3.053 1.419 4.331 2.601.979.908 2.226.341 3.105-.101 1.049-.528.42-1.471-.043-2.306-.839-1.494.238-3.66 1.972-4.156 1.855-.525 3.139-2.396 2.473-3.541z"/></svg>