<svg xmlns="http://www.w3.org/2000/svg" viewBox="0 0 32 32"><path d="M22.516 4.219c.354-1.26.497-2.62-1.572-2.477-.507.036-1.107.059-1.292-.58-.142-.48.291-1.25-.762-1.155-.816.074-1.14.678-1.36 1.278-.651 1.765-1.992 3.089-2.894 4.689-.503.907-1.211 1.498-2.346.756-1.623-1.057-2.016-.223-2.074 1.33-.238 6.486-.529 12.969-.798 19.453h-.051c0 .813-.095 1.643.029 2.433.105.658-.643 1.806.691 1.885 1.027.059 2.242.718 2.932-1.009.497-1.235 1.467-2.58 2.599-3.203 4.221-2.327 5.075-6.126 4.753-10.341-.212-2.744.625-5.337.583-8.043-.033-1.778 1.086-3.328 1.563-5.018z"/></svg>