<svg xmlns="http://www.w3.org/2000/svg" viewBox="0 0 32 32"><path d="M8.683 10.93c3.216 1.719 2.897 5.098 3.57 7.896 1.002 4.16-.504 8.504.581 12.709l-.057-.003.093.09c-.009-.028-.015-.052-.025-.08 4.186.817 5.547-.171 5.615-4.028.023-1.316-.225-2.683-.067-3.918.293-2.275-1.381-5.179 1.785-6.724.197-.094.305-.515.332-.796.131-1.233.826-2.097 1.728-2.858.334-.285 1.758-4.153 1.648-4.494-1.008-3.091-1.336-6.547-4.479-8.519-.044-.026-.039-.135-.058-.206h-1.342c-.976.515-1.674.95-1.709 2.423-.036 1.514-1.349 2.51-3.122 2.503-2.317-.007-4.594 1.828-4.937 3.984-.106.68-.395 1.57.443 2.018zm4.469 20.965l-.282-.273c.039.128.077.256.112.379.055-.033.115-.07.17-.106z"/></svg>