<svg xmlns="http://www.w3.org/2000/svg" viewBox="0 0 32 32"><path d="M29.423 8.82a.839.839 0 0 0-.384-.184l-.005-.001-.005-.001c-.404-.633-.906-.591-1.46-.218l.009.008.005.003c0-.003 0 0 0 0l-.005-.003c-.003 0-.003.003-.007.003-.412-.064-.528.377-.828.508-.632-.049-1.264-.103-1.919-.156.651-1.589 1.793-1.627 3.277-.979-.377-.611-.671-.921-.784-1.288-.498-1.653-1.303-1.212-2.251-.408-1.181.991-1.969 2.425-3.527 3.014-.255.096-.377.554.207 1.038 1.17.967 2.911-.644 3.765 1.023.151-.12.378-.211.44-.367.492-1.256 1.312-.681 1.623-.076 1.014 1.959 1.237.637 1.609-.305a.57.57 0 0 0 .289-.053l-.003.001-.003.001c.18-.104.076-.343.016-.56.1-.381.202-.76-.057-1.001zM3.672 26.566c4.499.488 7.959-1.969 11.23-4.334 3.549-2.565 6.439-6.015 10.522-7.904.434-.199 1.102-.361.766-1.304-1.224.884-2.859.696-3.259-.37-.934-2.454-1.605-1.893-3.324-.66-1.363.971-1.319 2.054-1.379 3.241-.015.238.727.302-.049.828-2.396 1.617-4.817 2.496-7.661 1.307-.611-.253-1.647.028-1.458.484.375.901 1.185 2.01 2.018 2.223.711.179 1.492.533 2.044.426-1.5 1.722-4.302 1.617-5.747 3.895-.452.716-1.749 1.046-2.795.915a1.412 1.412 0 0 1-1.259-1.401v-.01c-.019-1.009.665-.164.985-.301.347-.15.886-.218.827-.705-.036-.294-.433-.458-.827-.449-1.355.037-2.596-.31-3.764-1.299-.369 1.641 1.003 2.52 1.116 3.819.106 1.15.93 1.479 2.015 1.599z"/><path d="M.66 21.586c.771.17.756-.55.826-1.08.061-.448.351-.794.736-.879.844-.188.822-.617.605-1.304-.257-.804-.998-.812-1.535-1.13-1.793.549-1.307 1.817-.959 3.005.138.47-.457 1.215.327 1.388zm2.544-3.717c1.936-.151 1.45-2.103 2.05-2.858-.812.552-1.908 1.223-2.05 2.858zM32.015 9.13a7.586 7.586 0 0 0-.198-.362l.058.108c-.041.043-.126.096-.12.131.025.092.081.18.124.267.045-.044.085-.09.136-.144z"/></svg>