<svg xmlns="http://www.w3.org/2000/svg" viewBox="0 0 32 32"><path d="M32.012 12.994c-2.569-2.616-5.227-3.96-8.534-3.184-1.747.41-3.233.023-4.748-.705-.739-.387-2.012-.973-3.301-1.529l-.569-.219c-1.789-.748-3.469-.567-5.094.564-.85.593-1.822 1.014-2.766 1.466-2.189 1.04-3.739 2.668-4.714 4.885a45.583 45.583 0 0 1-2.127 4.306l.122-.236.13-.256c-.984 1.8-.142 3.889 1.886 4.053 1.263.095 2.305.552 3.349 1.094 1.169.604 2.4 1.05 3.663.758 2.084-.482 3.997.032 5.913.668 1.016.334 2.093.578 3.094.374 3.347-.694 6.662-.537 10.035-.18 2.334.244 3.507-1.112 3.645-3.527.116-2.069-.381-4.037-1.138-5.902-.508-1.251-.474-2.018 1.155-2.43z"/></svg>