<svg xmlns="http://www.w3.org/2000/svg" viewBox="0 0 32 32"><path d="M28.324 17.529c-.051-.035-.103-.148-.087-.199.736-1.886-.829-1.683-1.692-1.618-2.477.186-2.73-1.063-2.657-3.13.048-1.374.161-3.363-1.976-3.575a5.382 5.382 0 0 1-2.626-.911l.019.012.019.012a11.414 11.414 0 0 0-3.449-1.474l-.079-.016-.08-.016c-2.417-.56-3.702-1.929-3.718-4.336-.014-2.382-.338-2.644-2.63-1.931-.615.191-1.152.629-1.74.923-1.699.855-3.179 2.369-5.41 1.648.155 1.637 2.083 2.712 1.586 3.923-1.498 3.626-.043 7.682-1.879 11.203-.091.174.135.558.283.8 2.108 3.536 1.853 7.806 3.559 11.47.255.544-.207 1.425.736 1.647.845.197 1.302-.351 1.844-.912 1.679-1.732 4.532-1.483 6.122.622.447-1.2.97-2.314 2.234-1.883 2.275.78 2.325-.826 2.409-2.15.094-1.516.697-2.91 1.782-3.607 2.535-1.631 6.116-1.038 8.241.992.086-.106.223-.201.242-.316.023-.132-.133-.294-.099-.413.635-2.39 1.87-4.862-.955-6.766z"/></svg>