<svg xmlns="http://www.w3.org/2000/svg" viewBox="0 0 32 32"><path d="M3.221 3.529C2.5 2.72 1.681 1.972.556 2.849c-.642.495-.777 4.27-.149 4.781 1.763 1.431 3.17 3.045 3.618 5.382.099.51.639 1.021 1.102 1.36 2.561 1.876 4.058 4.992 7.202 6.191.214.08.361.426.464.681 1.706 4.249 5.428 6.296 9.144 8.334.402.217.863.158 1.235-.209.455-.445.36-.866.1-1.399-.487-.988-1.405-1.945.322-2.886 1.02-.552.668-2.401 2.029-2.941.071-.03.15-.102.206-.087 2.838.853 1.272-1.058 1.187-1.992 5.353-.567 5.384-.612 2.63-4.554.724-.534 2.058.414 2.328-.589.285-1.064-1.159-1.357-1.709-2.106-.165-.226-.457-.407-.725-.507-1.66-.619-1.255-1.745-.718-2.883.222-.466.624-.848.816-1.323.266-.656.968-1.334.428-2.053-.522-.69-1.31-.405-2.055-.215-.762.197-1.791.58-2.267-.235-1.721-2.948-4.543-2.212-7.071-2.155-2.616.062-5.162-.178-7.627-.951-1.402-.437-4.633-.117-5.463 1.062-.926 1.322-1.56.877-2.363-.026z"/></svg>