<svg xmlns="http://www.w3.org/2000/svg" viewBox="0 0 32 32"><path d="M.474 23.109c-.009.851.253 1.427.854 2.127 1.213 1.408 2.531 2.925 1.498 5.123-.388.821-.144 1.47 1.063 1.621 2.32.288 5.195-1.284 6.035-3.773.667-1.977 1.543-2.274 3.24-1.1 1.719 1.19 4.681 1.995 5.467.664 1.448-2.452 4.279-3.562 5.227-6.246.259-.729.584-1.321 1.312-1.678 1.967-.978 3.182-2.986 5.377-3.729 1.832-.622.789-1.637-.087-2.274-.503-.365-1.241-.442-1.893-.552-1.2-.202-2.001-1.101-2.019-2.064-.038-2.094-1.573-2.875-2.922-3.657C20.645 5.842 19.772 2.807 18.484 0h-1.786c-1.735.177-3.002 3.067-5.189.862-.244-.246-1.002-.028-1.511.052-1.608.251-3.206.662-4.823.77-1.178.081-1.448.503-1.424 1.604.07 3.198-.041 6.4.057 9.594.041 1.361-.333 1.96-1.729 1.725-1.254-.212-1.675.309-1.623 1.585.094 2.301.042 4.611.017 6.917z"/></svg>