<svg xmlns="http://www.w3.org/2000/svg" viewBox="0 0 32 32"><path d="M19.634 8.223c-.69.193-1.158.243-1.04-.708.319-2.57-.565-3.713-3.135-4.012-.439-.055-.966.096-1.243-.297C12.179.324 8.798 1.053 6.027.164c-1.584-.51-2.434.167-2.402 2.009.083 4.677.049 9.352.007 14.03-.013 1.003.177 1.641 1.249 1.972 1.008.306 1.902.914 1.901 2.166-.004 3.183.226 6.395-.156 9.529-.22 1.795-.012 2.315 1.723 2.093.439-.055.888-.009 1.333-.009.369 0 .762.077 1.11-.015 1.605-.397 4.207.829 4.084-2.457-.01-.333.309-.219.494-.281 2.327-.755 3.447-2.786 4.119-4.761.445-1.308 1.136-2.047 2.134-2.143 2.699-.249 3.463-2.246 3.725-4.246.223-1.697.962-2.825 2.096-3.86.953-.871 1.226-1.908.635-2.987-.679-1.246-6.96-3.389-8.444-2.982z"/></svg>