<svg xmlns="http://www.w3.org/2000/svg" viewBox="0 0 32 32"><path d="M6.206 21.744c.051.517.623 1.045 1.309.975 1.507-.151 2.166.86 2.881 1.913.696 1.026 1.495 1.98 2.277 2.949.959 1.185 1.962 1.144 3.224.318 3.083-2.01 2.854-5.548 4.027-8.429.094-.228-.221-.672-.42-.965-1.388-2.041-1.012-4.503-1.616-6.731-.186-.68.331-1.108.819-1.414 1.78-1.133 3.586-2.222 5.864-3.622-.215 3.932.076 7.296 1.235 10.572.811 2.296 2.169 3.401 4.598 3.222 1.387-.101 2.196-.565 1.072-2.005-.681-.877-.754-1.932-.72-2.925.094-2.76-1.024-5.101-2.217-7.457-.51-1.009-1.121-1.683-2.356-1.519-.865.116-1.302-.06-1.203-1.17.177-2.019-.338-2.338-2.169-1.497-2.46 1.129-4.816 2.432-6.845 4.275-2.295 2.08-4.949 3.571-7.761 4.876-2.411 1.121-4.973 1.069-8.202 1.333 3.643 1.722 5.857 3.765 6.206 7.302z"/></svg>