<svg xmlns="http://www.w3.org/2000/svg" viewBox="0 0 32 32"><path d="M28.494 14.853c.089-1.534.474-2.82 2.384-2.773.991.021.961-.775 1.097-1.381.209-.934-.519-.805-1.092-.934-.642-.141-1.309-.33-1.855-.675-4.067-2.543-7.402-2.475-11.169.328-.949.708-1.977.932-3.12.794-3.979-.483-7.963-.962-11.971-1.449.089-.428 1.319-.847.147-1.403-.563-.271-.991-.996-1.816-.008-1.548 1.849-1.567 3.227.617 4.884 1.448 1.101 1.337 2.203-.098 2.729-1.283.469-1.079 1.189-1.265 2.112-.363 1.788.051 2.965 1.802 3.714.418.182.891 1.086.782 1.508-.923 3.489 1.369 2.351 3.062 2.274a6.906 6.906 0 0 0 2.654-.653l-.042.018-.043.018c.876-.393 1.813-.59 2.53-.065 2.279 1.667 4.786 1.288 7.3 1.082.493-.039 1.15-.412 1.058-.625-.965-2.227 1.283-2.112 2.147-2.857.979-.84 2.574-1.484 3.621-.875 1.384.802 2.46.265 3.757.221-1.504-2.554-1.501-2.549-.581-5.105.098-.269.08-.589.094-.882z"/></svg>