<svg xmlns="http://www.w3.org/2000/svg" viewBox="0 0 32 32"><path d="M.288 23.749c1.835.637 2.147 3.177 4.296 3.168.207 0 .442-.061.618-.169 2.361-1.444 4.436-1.224 6.464.92-.137-1.325-.005-2.758-.474-3.955-.725-1.852-.091-2.408 1.598-2.221 4.085.452 8.166-.897 12.255.043a2.166 2.166 0 0 0 2.205-.803l.004-.005.004-.005c.649-.833 1.494-.984 2.499-1.028 2.111-.094 2.731-1.196 1.895-3.119-.085-.2-.265-.445-.213-.606.67-2.03-.426-1.642-1.805-1.614-1.316.027-3.118-1.224-2.776-2.207.448-1.287-.21-1.473-.768-1.761-1.004-.518-1.355-1.41-1.948-2.242-.78-1.09.085-2.866-1.381-3.363-1.36-.458-2.84-.815-4.229.311-1.442 1.167-3.517 1.34-4.75 2.888-2.965-.972-3.183 2.111-4.63 3.302-.675.554-.854.873-1.709.455-1.52-.742-2.102-.142-2.435 1.415-.335 1.566-.358 3.603-2.667 3.941-1.058.154-1.684.634-1.284 1.806.222.647-.015 1.215-.356 1.677-.783 1.045-.892 3.005-.413 3.172z"/></svg>