<svg xmlns="http://www.w3.org/2000/svg" viewBox="0 0 32 32"><path d="M3.473 8.173c1.744 1.68 2.531 3.554 2.195 6.114-.342 2.611-.087 5.301-.074 7.954.004.816.081 1.631.582 2.322 1.208 1.669 1.619 3.603 1.895 5.587.152 1.095.504 1.634 1.893 1.796 3.262.383 5.572-1.134 7.543-3.284 2.472-2.696 4.318-5.854 6.013-9.097.995-1.906 2.855-3.177 4.331-4.606 1.007-.977 1.546-1.609 1.537-2.911-.007-1.393-.357-2.377-1.982-2.528-.787-.074-1.559-.402-2.325-.659-.545-.181-1.271-.331-1.214-1.072.104-1.377.09-2.848.597-4.086.6-1.472 1.242-2.683-.53-3.704h-2.221c-1.384.64-2.619 2.064-4.351.542-.611-.535-1.267-.218-1.313.741-.029.591-.082 1.179-.091 1.771-.032 1.959-.758 3.365-2.814 3.915-2.456.66-4.906.146-6.023-1.325-.864-1.138-2.161-1.705-3.462-1.404-1.026.237-1.046 1.465-1.043 2.452.006.666.433 1.075.857 1.482z"/></svg>