<svg xmlns="http://www.w3.org/2000/svg" viewBox="0 0 32 32"><path d="M2.348 17.071c.523 1.721 1.054 3.37 1.925 4.943.251.451 1.158.993-.02 1.453.728.734.349 1.922 1.014 2.615.325.341.973.224 1.441-.092.417-.282.479-1.548 1.37-.524.498.573.611 1.157-.134 1.687-.386.273-.582.709-.267 1.142.303.422.755.383 1.188.173 1.076-.524 2.14-.134 3.109.209 1.844.65 3.91-.091 4.894-1.946.077-.077.153-.15.231-.221 1.146-.128 2.277-.489 3.422-.449a4.037 4.037 0 0 1 2.116.668l-.015-.009-.016-.01c.869.556.706-.624.719-1.045.02-.669-.695-.876-1.113-1.272-.718-.671-.908-1.658-.595-2.378.299-.686 1.229-.991 2.107-.627.811.336 1.271.166 1.209-.81-.042-.651.511-.511.875-.7 2.814-1.456 7.292-1.559 5.649-6.759-.056-.181.052-.443.147-.635.708-1.395.409-2.691-.326-3.971-.918-1.598-.947-3.181.173-4.714.11-.248.173-.491-.075-.697-.108.13-.217.264-.326.394-.416.113-.95.094-1.229.354-1.331 1.227-2.465 1.674-4.112.238-.904-.787-1.987.661-3.058.928-.933.238-.169.91.009 1.395.224.627.116 1.549-.592 1.099-1.31-.84-2.781-.975-4.127-1.539-1.515-.635-2.803-1.665-4.706-1.133-1.301.36-2.81.258-4.179.052-2.784-.417-4.879.338-6.265 2.879-.38.7-.869 1.659-1.502 1.842-1.854.543-1.285 1.669-.858 2.726.648 1.584 1.463 3.236 1.919 4.736z"/></svg>