<svg xmlns="http://www.w3.org/2000/svg" viewBox="0 0 32 32"><path d="M6.402 25.133c1.824 1.194 2.921 2.6 2.411 4.91-.146.659.345.908.961.899.972-.011 1.965.114 2.911-.044 4.741-.799 9.324.065 13.904 1.115.032-1.514.455-3.1-1.182-4.369-1.799-1.395-2.485-3.559-3.06-5.683-.531-1.958.611-3.508 1.663-4.884 1.523-2.003.488-3.397-.742-4.829-.43-.502-1.056-.831-1.53-1.302-.406-.403-1.075-.789-.87-1.448.28-.891 1.127-.475 1.745-.508.786-.044 1.577-.011 2.759-.011C22.709 6.261 24.221 2.596 22.267 0h-1.796c.615.593.128 1.638.919 2.175 1.691 1.151.794 2.096-.377 2.765-.771.44-1.427.977-1.661 1.725-1.176 3.781-3.996 6.707-5.341 10.401-.354.974-.983 2.342-2.16.472-.228-.364-.598-.421-1.139-.354-2.311.281-3.628 1.853-4.457 3.675-.578 1.273-1.777 3.012.148 4.274z"/></svg>