<svg xmlns="http://www.w3.org/2000/svg" viewBox="0 0 32 32"><path d="M29.631 20.849c-1.214-1.18-1.869-2.689-.845-4.411.25-.42.448-.904.075-1.324-1.797-2-3.757-3.786-6.352-4.544 1.127-2.094 2.875-3.587 5.062-4.618.646-.303 1.53-.578 1.413-1.512-.116-.905-1.158-.453-1.65-.875h-5.302c-1.096.337-2.246.275-3.366.434-2.537.362-3.946 1.921-3.728 4.409.13 1.48-.491 1.89-1.779 2.073-1.779.253-3.443-.029-5.168-.502-2.129-.586-3.171.611-2.579 2.716.375.365.955.297 1.357.596-.55-.279-1.189-.339-1.733-.634-1.681.2-3.376.299-5.034.699v6.121c1.757 1.053 2.932 2.621 4.047 4.306.959 1.454 2.552 1.938 4.266 1.949 2.235.017 4.473-.006 6.711.01 2.339.017 4.607.196 5.781 2.709h.408c1.59-.458 3.262-.72 4.566-1.876.405-.362.029.199.17.138.104.419.359.767.745.89 1.833.596 2.908-1.548 4.694-1.324.553.07.652-.567.623-1.069-.323-1.714-1.102-3.118-2.38-4.363zm-8.29.831c-.966-.448-1.988-.788-2.889-1.337-.557-.337-1.832-.605-1.12-1.59.458-.623 1.056-1.623 2.445-.966 1.472.705 2.962 1.149 2.889 3.297-.159.491-.505.974-1.326.596zm-.004-5.093c-.448-.323.424-1.952.791-1.638.47.397 1.015.505 1.548.947-.95-.177-1.357 1.413-2.339.691z"/></svg>