<svg xmlns="http://www.w3.org/2000/svg" viewBox="0 0 32 32"><path d="M20.954 29.508c.56.051 1.116.205 1.554-.46.484-.741.094-1.218-.282-1.741-.804-1.11-2.204-1.596-2.978-3.328-.344 1.203-.586 1.819-.689 2.458-.248 1.488.892 2.934 2.396 3.071zM1.385 4.718c1.314-.312 2.273-1.072 2.998-2.077-.363-.904-1.03-1.577-1.669-1.252C1.701 1.9-.097 1.652.005 3.557c.043.817.372 1.402 1.381 1.161zm28.792 8.497c-1.744-.38-1.145 1.278-1.491 1.985-.404.816.583 1.214 1.143 1.209 1.063-.007 2.118-.474 2.182-1.713.052-1.069-.77-1.481-1.834-1.481zM12.172 9.878c.91-1.559 2.461-.07 3.697-.901-1.21-1.199-2.706-.563-3.884-1.175-.417-.217-.919.173-.794.683.148.58.876 1.572.98 1.393zm-.819 20.829c.865-.034 1.291-.517 1.317-1.37-.272-.632-.321-1.524-1.339-1.341-.797.145-1.636.502-1.505 1.465.099.702.662 1.282 1.527 1.246zm14.594-3.893c.74-.066.979-.526.903-1.26.054-.65-.254-1.113-.967-1.109-.84.006-.744.707-.819 1.272-.088.686.052 1.175.883 1.097zM3.046 5.773c.003.528.649.68 1.23.683.468-.094 1.242.106 1.145-.788-.052-.478-.323-1.069-.962-.944-.598.115-1.417.272-1.412 1.049zm26.23 2.996c.354-1.178.392-2.154-.1-3.029-.176-.312-.75.019-.861.32-.393 1.039-.081 1.888.961 2.709z"/></svg>