<svg xmlns="http://www.w3.org/2000/svg" viewBox="0 0 32 32"><path d="M4.211 27.054c.411-3.378 2.355-3.697 4.949-3.092.725.168 1.131-.33 1.266-1.288.379-2.619 2.014-3.285 3.988-1.693a4.24 4.24 0 0 0 1.928.911l.027.004c1.734.332 3.219-.092 4.971-.617 2.825-.847 5.919-2.158 9.14-1.213.456.133 1.479-.182 1.508-.397.088-.597 0-1.366-.718-1.701-.923-.432-1.197-1.502-1.796-2.013-1.479-1.257-2.505-2.945-4.17-4.015-1.263-.814-3.016-1.256-2.478-3.636.32-1.411-1.085-2.68-2.325-3.212-1.155-.494-1.99.48-2.809 1.513-1.402 1.769-2.974 3.575-5.67 3.298-.32-.03-.956.179-.969.317-.302 3.615-3.895 1.631-5.376 3.189-4.605-.796-6.957 4.668-4.961 8.383.97 1.804 2.963 2.874 3.495 5.261z"/></svg>