<svg xmlns="http://www.w3.org/2000/svg" viewBox="0 0 32 32"><path d="M7.129 20.931c1.107.693 1.579 1.713 1.619 2.938.029.941-.077 1.889.531 2.673-.835.661-1.999-.193-2.495.877-.135.296 3.307 4.594 3.649 4.584.07-.003.138-.077.206-.077 3.54-.02 6.103-2.553 9.237-3.617.246-.084.375-.47.615-.628 1.194-.778 1.61-2.551 3.402-2.598.423-.013.58-.565.254-.832-.731-.605-.523-1.509-.871-2.219-.703-1.442.239-5.896 1.596-6.149 1.748-.328 1.374-1.35 1.386-2.382.015-1.263-.09-2.534.03-3.783.139-1.402-.464-2.029-1.676-2.672-4.411-2.327-9.028-4.266-13.19-7.047H9.635c-1.464 1.335-1.079 2.93-.313 4.317.831 1.505.765 2.963.667 4.569-.168 2.711-.575 5.232-2.895 7.033-.332.257-.489.735-.739 1.1-1.071 1.568-.838 2.902.776 3.911z"/></svg>