<svg xmlns="http://www.w3.org/2000/svg" viewBox="0 0 32 32"><path d="M18.226 1.789c-.333-.569-.162-1.835-.892-1.789-1.041.068-.357 1.161-.301 1.828-.592 3.928-1.009 7.897-1.835 11.78-.474 2.233-1.562 4.261-.479 6.66.335.735.39 2.122-.915 2.671-.52.217-1.019.464-.345 1.076.572.518.266 1.086.084 1.647-.684 2.077 1.08 5.75 3.046 6.18.502.109 1.409.547 1.525-.621.115-1.163-.163-2.212-1.45-2.308-1.579-.119-2.19-1.787-1.885-2.262 2.17-3.379.224-7.239 1.509-10.703.637-1.726 1.137-3.593.651-5.568-.154-.613.265-1.425.556-2.09.93-2.094 2.16-4.09.731-6.5z"/></svg>