<svg xmlns="http://www.w3.org/2000/svg" viewBox="0 0 32 32"><path d="M2.907 19.698c-.008.112.32.284.518.374 2.349 1.038 4.589 2.485 7.377 1.011.465-.245 2.681-.311 1.74 1.814-.427.968.706 1.298 1.035 1.973.252.51.777.257 1.383-.116 1.46-.903 2.58-.22 3.262 1.633.057.157.311.374.424.347.263-.059.7-.234.708-.385.078-1.645 1.434-1.52 2.471-1.872 2.322-.783 4.151-3.949 3.051-5.656-.842-1.313-.795-2.091.832-2.74-.528-.237-.717-.346-.918-.408-.408-.13-1.211.374-1.088-.533.039-.299.596-1.484 1.236-.201.027.054.37-.003.534-.077 2.718-1.214 5.371-2.509 6.542-5.835-2.208.347-3.407-.574-4.216-2.278-.626-1.319-2.569-1.95-3.262-1.058-.587.753-.495 1.965-1.688 2.358-1.739.569-.869 1.227-.011 1.852-.085.098-.146.237-.252.294-1.562.874-3.04 2.085-4.72 2.522-2.326.613-4.679.284-6.859-1.138-.931-.605-1.736-1.058-2.35-2.085-.731-1.22-4.714.006-5.061 1.849-.346 1.838-1.331 2.196-2.714 2.584-.814.226-1.165.58-.62 1.597.783 1.458 2.805 2.125 2.646 4.171z"/></svg>