<svg xmlns="http://www.w3.org/2000/svg" viewBox="0 0 32 32"><path d="M26.921 12.2c-1.504-.518-3.203.588-4.196-.492-1.053-1.144-2.114-1.343-3.498-1.3-1.063.03-2.152-.192-1.803-1.745.112-.514-.26-.815-.466-1.192-1.288-2.361-.7-4.305 1.729-5.834.43-.267 1.406-.272.903-1.147-.463-.8-1.239-.482-1.709-.003-1.122 1.15-2.441 1.682-4.018 1.924-1.266.195-2.705.64-2.891 2.213-.192 1.641-1.503 2.243-2.521 3.064-.838.681-1.651 2.352-1.215 3.293.922 1.997.341 4.13.469 6.19.061.939-1.169 1.539-1.998 2.18-.421.327-1.612 1.253-.701 2.04 1.08.932 2.454 2.091 3.72 2.119 3.193.073 5.062 1.937 6.7 4.144.643.865 1.221 1.083 2.129 1.006.723-.058 1.452-.179 2.169-.121 1.224.096 2.29.389 1.057 1.905-.563.697-.167 1.037.497 1.256.272.093.64.669.78-.036.409-2.082 1.892-4.721.574-6.155-1.664-1.812 1.654-3.07-.177-4.348-.042-.033.588-.251.944-.285 1.07-.094 2.108-.038 3.205-.511.661-.285.881-.115.658-.915-.671-2.365-1.952-4.708-.338-7.25z"/></svg>