<svg xmlns="http://www.w3.org/2000/svg" viewBox="0 0 32 32"><path d="M4.59 16.9c1.25.331 1.697-.501 1.361-1.58-.375-1.205-.853-2.404-1.48-3.499-.78-1.365-.965-2.77-.81-4.278.029-.212.053-.422.08-.633.162-1.235.302-2.61-1.387-2.715C.76 4.095.518 5.484.366 6.701.225 7.825.25 8.969.097 10.092c-.491 3.675.875 5.85 4.493 6.808zm27.366 9.445c.208-1.75-.287-3.352-.973-4.929-.426-.983-1.337-.943-1.581-.24-.789 2.308-2.638 1.596-4.329 1.972 1.96 1.156 3.785 2.391 5.396 3.956.842.82 1.368.259 1.488-.759zm-19.56.963c1.171.215 2.359.317 3.837.505-.806-1.502-2.033-2.092-3.179-2.671-.565-.282-1.652-.779-1.966.136-.292.85.204 1.828 1.308 2.03z"/></svg>