<svg xmlns="http://www.w3.org/2000/svg" viewBox="0 0 32 32"><path d="M31.426 16.001c-1.069-.15-1.667-.947-2.308-1.638-2.951-3.192-6.193-6.196-7.127-10.881-1.92 2.183-3.968 2.117-5.945.308-1.325-1.211-3.184-1.973-4.837-1.375-1.498.541-2.652.459-3.997-.095-2.337-.962-4.779-2.471-6.625.806-.086.153-.388.186-.588.273v.449c.809.923 3.222.865 1.77 3.163-2.034 3.218-.996 5.923 2.643 7.016.67.203 1.203.455 1.685.961 1.404 1.473 2.368 1.252 3.53-.399.514-.731-.682-1.429.249-1.958.905.386 2.058.943 1.94 1.89-.279 2.217 1.253 2.33 2.636 2.769 2.443.792 4.551 2.008 6.344 3.575l-.021-.018c1.028.891 1.476 2.013.928 3.389-.929 2.337-.649 2.812 1.913 3.418.482.114 1.07.594 1.422.082.394-.577-.118-1.097-.547-1.528-.208-.214-.388-.45-.581-.674.115-.1.226-.205.341-.308.94.215 2.063.559 2.093 1.563.05 1.711 1.211 2.519 2.202 3.529.086.189.171.379.259.565.399-.236.246-.55.118-.858-.38-.859-1.563-1.682.17-2.519.734-.358.537-1.334.158-2.004-.459-.814-.332-1.444.453-1.876 1.447-.802.631-1.404-.186-1.873-1.699-.987-.926-2.56-.758-3.789.149-1.09 1.146-1.563 2.313-.767.321.22.765-.038.897-.417.139-.42-.174-.728-.546-.778zM6.661 10.948c.015-.073.032-.146.045-.221l-.045.226v-.005l-.155-.233c.052.083.103.158.155.233zm.052.095c1.347-.095 2.21.6 2.765 1.787-.555-1.187-1.417-1.876-2.765-1.787z"/></svg>