<svg xmlns="http://www.w3.org/2000/svg" viewBox="0 0 32 32"><path d="M29.752 9.73c-.193-2.011-1.043-3.36-3.248-1.489-.262.22-.865.088-1.307.055-2.712-.207-4.746-1.759-6.596-3.535-1.482-1.424-2.874-2.315-4.748-.661a5.217 5.217 0 0 1-1.624.959l-.036.012-.037.011c-.74.264-.613.7-.806 1.313-.458 1.43-1.547 2.696-2.566 3.868-.113.127-1.707.172-2.396-.604-.22-.246-.523-.753-.866-.41-1.601 1.576-3.602.748-5.523.972.196 1.656.451 3.36 1.918 4.265 1.208.748 1.047-1.607 2.309-1.423.198.961-.052 2.069 1.007 2.854.054-.868.106-1.624.149-2.322 2.063-.354 1.082 1.178 1.266 1.902.359 1.417 2.107 1.924 2.17 3.493-.475.097-.952.201-1.398.296.456 1.508 1.621 1.515 2.828 1.43 2.088.595 3.045 3.612 5.826 2.719.374.346-.113.543-.151.823l.084.088-.087-.081c-.099.072-.197.149-.29.222.12.11.239.219.358.332h-.003c-.283.49-.367.817.355 1.078 1.246.446 2.466.254 3.705.096.269.23.816.046.885.588h-3.877c-.054.293-.103.59-.154.887 2.969-.739 5.249 1.401 8.31 1.329-1.09-.869-1.989-1.589-2.889-2.305-.879-.936-1.446-2.408-2.372-2.953-3.471-2.036-4.959-5.685-7.471-8.478-.649-.71-.285-1.85.126-2.492.494-.777 1.114 0 1.547.461.616.653 1.158.522 1.61-.148.388-.584.981-.466 1.53-.635 1.878-.577 3.534.514 5.34.584 1.623.061 3.406-.629 4.9.351 1.298.846 2.476 2.443 3.026-.565.065-.356 1.016.036 1.447-.574-.717-.759-2.107-.787-2.254-2.312z"/></svg>