<svg xmlns="http://www.w3.org/2000/svg" viewBox="0 0 32 32"><path d="M21.27 14.522c-1.226-.983-2.087-2.487-4.037-1.401-.522.291-1.106-.208-1.592-.59-2.636-2.082-5.764-1.979-8.809-1.71-2.845.255-5.627.974-6.832 3.976 1.398.328 2.707-.059 5.161-1.798.991-.703 2.339-1.254 2.801-.083.439 1.114 1.084.918 1.757 1.144 3.276 1.097 7.205.627 9.535 4.017.355.521 1.038.49 1.648.487.504-.005 1.132-.138 1.393.443.311.691-.431.821-.783 1.134-.296.269-.531.511-.243 1.187 3.314-1.082 6.95.449 10.738-1.31-2.267-1.156-4.087-2.395-6.098-3.014a13.83 13.83 0 0 1-4.689-2.52l.024.019.024.019z"/><path d="M5.524 16.289c.455-.087 1.097-.167.948-.867-.105-.507-.416-.951-1.067-.921-.753.047-.622.751-.727 1.156-.156.607.404.716.845.631z"/></svg>