<svg xmlns="http://www.w3.org/2000/svg" viewBox="0 0 32 32"><path d="M5.984 20.319c1.026.209 2.017.511 3.052.365 1.091-.151 1.929-.167 2.598 1.04.462.841 1.48 1.164 1.816-.305.283-1.271 1.162-1.518 2.28-1.671 2.275-.309 4.794-.472 6.375-2.246 2.336-2.627 4.925-4.055 8.483-3.533.501.073 1.399.107 1.419-.667.023-.722-.585-1.063-1.319-1.467-1.726-.944-3.047.121-4.324.648-1.584.655-3.257-.513-4.877.633-.182-1.405.019-3.002-1.682-3.109-2.378-.145-4.86-.585-7.059.811-1.573.995-3.142.62-4.334-.388-1.74-1.47-3.067-.838-4.483.295-.915.734-1.698 1.608-3.122 1.103-1.079-.386-.8.552-.687 1.045.79 3.388 1.751 6.618 5.865 7.447z"/></svg>