<svg xmlns="http://www.w3.org/2000/svg" viewBox="0 0 32 32"><path d="M31.967 17.471c-.258-.906-.887-1.988-1.899-2.262-.759-.203-1.455-.812-2.331-.572-.538.147-.982-.219-1.055-.598-.416-2.101-2.578-.916-3.577-1.944-.225-.229-.38.307-.31.577.27 1.045-.897 1.309-1.101 1.157-.647-.484-1.483-.996-1.569-1.751.298-.539.536-.952.252-1.072-2.152-.905-4.285-2.056-6.532-2.378-.588-.084-1.541.937-2.425-.164-.141-.175-.821-.182-1.013-.006-2.249 2.047-5.093 2.823-7.885 3.629-.817.232-1.307 1.613-2.436.752-.364 1.171.498 1.641 1.242 2.186.26.19.322.454.243.78-.345 1.461.644 2.322 1.581 3.061 1.726 1.359 3.574 2.549 5.336 3.851 1.746 1.297 3.592 1.354 4.756-.339.891-1.289 1.792-1.398 2.853-.758 2.082 1.251 4.651.331 6.702 1.613.097.061.542-.202.639-.402.364-.79.981-.755 1.688-.689 1.578.15 2.689-.78 3.445-1.944.527-.809 1.336-1.155 1.921-1.804.428-.48 1.736-.003 1.474-.923z"/></svg>