<svg xmlns="http://www.w3.org/2000/svg" viewBox="0 0 32 32"><path d="M2.265 19.426c1.002-.345 2.198-.094 3.306-.153 1.239-.067 2.068-.067 2.43 1.639.494 2.324 3.214 2.967 4.341 1.125.937-1.526 1.765-.31 2.63-.361 1.166-.067 1.21 1.032 1.066 1.529-.543 1.829.731 3.254.683 5.056 2.02-.873 3.604-.421 5.119.788.481.384 1.273.708 1.832.597 1.696-.334 2.782.336 3.627 1.688.343.56.821.872 1.483.563.539-.255.66-.74.63-1.305-.038-.749-.443-.666-1.043-.678-1.086-.022-1.402-.782-1.297-1.814.104-1.002.562-1.95.248-3.039-.113-.392.433-1.402.72-1.416 3.361-.165 1.806-1.502.841-2.935-.702-1.043-.799-2.363-.775-3.63.023-1.085.094-2.169.187-3.251.207-2.512.447-5.23 2.23-6.994 1.462-1.447.738-2.747.459-3.911-.24-.996-1.426-1.911-2.819-1.625-1.373.282-2.362-.262-3.168-1.3H21.88c-.935.78-2.185.291-3.222.85C16.735 1.887 14.887 2 12.891.597c-.827-.581-2.056.376-2.108 1.584-.1 2.492-1.106 4.689-1.976 6.934-.723 1.858-2.045 3.426-1.972 5.67.03.856-.526 2.764-2.618 1.82-.66-.297-1.703.098-2.514.346-.543.165-1.409.313-.969 1.336.295.694.18 1.599 1.533 1.137z"/></svg>