<svg xmlns="http://www.w3.org/2000/svg" viewBox="0 0 32 32"><path d="M31.187 21.871c-.496-.282-.963-.503-1.267.181-.341.764.199 1.106.787 1.273.408.116.863.036 1.297.048v-1.337c-.27-.051-.588-.033-.817-.166zM2.052 20.86c.449.199.514.94.336 1.603-.295 1.1.175 1.522 1.377 1.881 1.787.533 3.412.157 5.102-.093.749.095 1.383.023 1.37-.97.429.009.863.012 1.297.018.127.288.258.58.387.868l-1.049-.024c.008.13-.035.333.03.383.432.301.821.182 1.154-.197.147-.012.566-.035.985-.055l.22-.008c1.154 1.92 2.233 2.108 3.722.655 1.067-.435 2.131-.874 3.188-1.302-.529-.949-1.282-.408-1.995-.282.115-1.248 2.437-1.587.952-3.075-.026-.027.139-.335.196-.33 2.212.194 1.005-1.269 1.091-2.152.081-.827.107-1.501-.973-1.534-.993-.029-1.985.121-2.176 1.269-.09.547-.086.975-.686 1.251-.354-2.857-1.23-1.062-2.067-.286-.374.345-1.665.253-1.296.643.892.951.08 2.922 1.633 3.081 1.538.158 1.493 1.106 1.703 2.084-1.138.345-1.968-.96-3.115-.586-.093-.553-.035-1.216-.879-1.242-.387-3.044-.764-3.297-3.746-2.637-.253.053-.529.024-.799.024.003-.024 0-.039.003-.068a.04.04 0 0 0 .01-.015c.97-1.071 1.344-2.724 2.512-3.61.036-.029.062-.057.095-.081.164-.115.36-.2.559-.28.059-.026.105-.062.166-.08.274-.095.59-.153.918-.161h.004c.493-.027.668-.726.601-1.287-.066-.58-.5-.686-.961-.648-2.313.188-2.061-1.668-1.602-2.652.752-1.606.726-3.207.86-4.84h-.008c-.137.006-.279.021-.419.029-.154.012-.303.012-.46.03-.139.018-.267.053-.399.078-.152.03-.312.047-.457.092-.22.071-.408.153-.586.253l.016-.008c-.06.03-.128.044-.184.077a2.046 2.046 0 0 0-.565.504l-.004.005-.004.005C6.825 8.953 5.306 9.795 3.147 9.812c-1.201.012-2.128.785-2.322 2-.253 1.576 1.526.472 1.978 1.291-.548.811-1.041-.024-1.531.006-.669.042-1.325.175-1.151.945.515 2.293-1.496 5.301 1.924 6.809z"/></svg>