<svg xmlns="http://www.w3.org/2000/svg" viewBox="0 0 32 32"><path d="M30.629 8.992c-.421-3.604-3.06-5.993-5.064-8.716-.118-.161-.217-.388-.507-.214-1.862 1.125-4.503.897-5.44 3.651-.91 2.68-1.447 2.695-3.795.929-2.321-1.747-2.613-1.681-4.305.78-2.186 3.183-3.913 6.898-6.72 9.39-3.904 3.467-3.551 7.506-3.299 11.797.053.889.211 1.771.283 2.658.161 1.986 1.247 3.019 3.204 2.692 2.84-.477 5.696-.991 8.456-1.792 2.107-.609 3.935-.77 5.917.43 1.392.848 2.743.648 3.693-1.1 1.132-2.08 2.557-4.001 3.835-5.999 1.115-1.744.792-2.537-1.209-3.072-2.46-.657-4.828-.315-7.18.556-1.024.379-2.056 1.191-3.401.059 2.068.397 2.855-1.085 3.764-2.284.816-1.08 1.934-1.581 3.149-1.939 2.392-.703 4.425-2.065 6.408-3.493 1.456-1.047 2.425-2.492 2.21-4.334z"/></svg>