<svg xmlns="http://www.w3.org/2000/svg" viewBox="0 0 32 32"><path d="M31.104 16.502c-1.48-1.174-2.956-2.25-4.846-2.617-1.73-.332-3.466-.658-5.2-.983l-.034-.518c.734 0 1.465.023 2.195-.009.386-.017.789-.189.818-.61.039-.623-.517-.673-.936-.681l-.237-.001c-.781 0-1.552.043-2.31.126l.094-.008c-.871.089-1.615-.274-1.73-1.053-.287-1.895-1.257-2.444-3.058-2.074-.416.09-.925-.44-1.418-.52-2.162-.347-3.989-2.087-6.286-1.675-1.117.201-2.093.317-3.24.022-1.864-.481-2.815.853-2.892 2.812-.071 1.817 1.587 3.801-.352 5.497-.073.067-.071.322-.004.427 1.255 2.031-.285 2.618-1.666 3.124.189 1.474 2.208 1.836 1.951 3.141-.299 1.529.638 2.541.968 3.777.339 1.268 2.221 1.985 2.746 1.228.843-1.22 1.694-2.458 2.317-3.793.76-1.638 2.726-2.509 4.198-1.44 1.398 1.015 3.052.829 3.949.068 2.614-2.221 5.529-1.102 8.305-1.201.875-.032 2.17-.38 2.759.453 1.762 2.484 2.821.195 3.908-.577 1.059-.759 1.37-1.829.001-2.914z"/></svg>