<svg xmlns="http://www.w3.org/2000/svg" viewBox="0 0 32 32"><path d="M16.42 32.006c.86-.014 1.548-.177 1.944-.734.957-1.355 2.083-2.135 3.866-1.975.998.092 1.143-.946 1.408-1.706 1.369-3.941.595-7.99.452-11.975-.056-1.636.744-3.155-.012-4.949-.991-2.36-3.754-3.548-3.913-6.353-.006-.089-.371-.183-.577-.24-1.407-.38-2.79-1.028-4.268-.822-1.194.17-1.821-.36-2.248-1.303C12.296.237 10.689-.539 9.364.413c-1.014.729-1.204 2.609-1.738 3.98-.014.039.187.219.307.242 2.068.396.844 1.647.292 2.053-1.012.743-.599 1.379-.418 2.246.88 4.19 2.914 7.856 5.123 11.442.459.746.583 1.399.557 2.249-.029.955-.043 2.249.517 2.813 1.542 1.535.047 3.912 1.719 5.287-1.06 1.335.202 1.104.695 1.281z"/></svg>