<svg xmlns="http://www.w3.org/2000/svg" viewBox="0 0 32 32"><path d="M9.977 18.608c-1.48.144-1.04.863-.589 1.671.29.514.495 1.076.78 1.708 1.834-1.264 3.581-2.52 5.727-3.113 2.06-.575 4.06-1.368 6.063-2.126 2.839-1.07 5.674-2.188 8.252-3.803.754-.472 2.168-1.246 1.709-1.993-.542-.893-2.071-.982-3.274-.905-.414.026-.814.335-1.215.526a8.243 8.243 0 0 1-3.672.869h-.005c-3.302.013-6.578.222-9.856.805-2.534.45-3.821 2.156-5.148 3.915-.426.567-.447 1.536.864 1.201.419-.106.976-.423 1.173.144.203.569-.222 1.045-.808 1.102zm-5.972.704c.176-.46-.253-.761-.632-.597-1.173.51-2.91.267-3.345 1.764-.219.755.942.68 1.684.797 1.296.079 1.874-.886 2.293-1.963z"/></svg>