<svg xmlns="http://www.w3.org/2000/svg" viewBox="0 0 32 32"><path d="M28.277 6.69c-.793-.286-1.43-.711-2.051-1.281-.44-.407-1.156-1.109-1.722-.512-1.601 1.675-4.034.749-4.573.015-1.722-2.367-4.703-2.371-6.567-4.235-.341-.346-1.261-.722-1.291-.673-1.351 2.048-3.961 1.464-5.674 2.741-.471.352-.5.714-.434 1.11.286 1.754-.005 3.244-1.596 4.313-.329.219-.486.662-.425 1.192.129 1.042-.324 1.864-1.346 2.261-.46.183-.935.495-.716.947 1.237 2.572-1.614 6.57 2.787 8.029.07.024.177.082.177.126.11 1.933.994 1.058 2.027.538-.777 1.802-2.508 3.123-1.87 5.291.008.032-.506.215-.777.33-1.238.535.209 1.369-.201 2.144-.183.347.679.049 1.112.015 1.427-.125 2.833-.084 3.695 1.48 1.113 2.027 1.634 1.922 3.288.104.647-.716.856-1.415 1.135-2.257 1.164-3.559 2.965-6.559 7.028-7.493 5.108-1.174 7.718-5.061 9.839-9.399.402-.819-1.025-4.499-1.843-4.788z"/></svg>