<svg xmlns="http://www.w3.org/2000/svg" viewBox="0 0 32 32"><path d="M30.283 14.596c-1.18.087-2.31.211-3.225-.858-.393-.456-1.049-.299-1.662-.111-1.459.448-3.076 2.489-4.334-.289-.016-.036-.14-.026-.211-.036-2.271-.323-4.051-1.776-5.272-3.386-1.66-2.182-4.078-1.821-6.121-2.573-.691-.253-2.771-.211-2.224 1.91.21.81-.516.887-.882 1.293-1.589 1.75-4.162 2.109-5.61 4.065-.62.843-1.199 1.955-.207 2.466 1.62.823 2.901 2.233 4.846 2.548 3.17.512 6.418.746 9.273 2.56 3.714 2.36 8.096 1.827 11.762 2.583 2.007.019 3.689.019 4.238-1.838.229-.78.927-1.672.887-1.979-.237-1.883.751-3.652.385-5.461-.126-.62-.924-.946-1.643-.895z"/></svg>