<svg xmlns="http://www.w3.org/2000/svg" viewBox="0 0 32 32"><path d="M13.721 15.545c-.681 2.331.003 4.317-1.015 6.385-1.083 2.195-3.225 3.735-3.646 6.302-.144.887-.443 1.36.814 1.592 2.545.472 4.833 1.717 7.656 1.451 4.105-.389 8.275-.159 12.414-.068 1.487.034 2.132-.264 2.07-1.931a143.642 143.642 0 0 1-.091-5.208c0-1.871.035-3.734.103-5.588l-.008.268-.007.257c.05-1.527-.494-1.877-1.92-1.85-4.058.083-8.123 0-12.184.042-1.54.016-2.97-.13-4.186-1.652zM1.936 7.263c.924.274 1.762.032 2.117-.978.425-1.209 1.208-2.195 1.851-3.273.811-1.36.444-2.267-1.276-2.301-1.287-.07-2.145.365-2.404 1.736-.13.683-.256 1.54-1.042 1.748C.06 4.492-.11 5.252.054 6.149c.183 1 1.184.906 1.882 1.114z"/></svg>