<svg xmlns="http://www.w3.org/2000/svg" viewBox="0 0 32 32"><path d="M2.308 20.656c1.015-.002 2.217-1.234 3.016.519.156.343.568-.188.686-.534.676-2.023 1.55-3.226 3.394-.899.307.388.925.382 1.24.176 1.302-.857 2.698-.32 4.024-.325 2.533-.005 4.935.74 6.795 2.505 2.172 2.063 4.164 4.32 6.218 6.508.355.377.831.534 1.218.795 1.712 1.165 2.509-.696 2.913-1.287.752-1.096-.932-.365-1.242-.899a3.816 3.816 0 0 0-.263-.38l.006.008.006.008c-2.014-2.744-5.063-4.504-6.98-7.345-.233-.344-.654-.567-1-.825-1.678-1.242-4.373-.989-5.173-3.539-.074-.229-.55-.48-.726-.207-.598.929-.75.223-1.054-.204-.98-1.385-1.766-2.808-1.956-4.573-.295-2.744-1.314-5.265-2.955-7.918-1.018 1.684-2.327 2.464-3.951 2.88-1.341.346-1.763 2.39-3.561 2.096-.03-.005-.186.52-.219.806-.337 2.934-1.464 5.618-2.471 8.363-.825 2.253.332 4.275 2.035 4.272z"/></svg>