<svg xmlns="http://www.w3.org/2000/svg" viewBox="0 0 32 32"><path d="M.781 21.27c1.091-2.167 3.265-2.333 5.002-3.248.451-.24.988-.368 1.363-.692.377-.327.628-.895.429-1.382-.211-.511-.685-.751-1.252-.353-.733.519-1.572.01-2.336.239-.028-.54.399-.781.762-.937.525-.228 1.206-.22 1.11-1.062-.073-.652-.704-.625-1.072-.921-1.575-1.263-2.323.948-3.661.673 1.121.535 2.518.749 1.77 2.493-.908.481-1.866.707-2.896.534v2.236c2.278.041.502 1.414.781 2.42zm30.886-10.598c.202-.095.474-.393.253-.73-.211-.329-.436-.419-.895-.361-2.196.272-4.333.007-6.505-.545-1.773-.447-3.802-1.415-5.439-.717-2.854 1.22-5.994.893-8.857 2.352-1.93.982-2.375 1.935-2.073 3.651.246 1.395.623 2.775 1.833 3.756 1.136.918 2.247.208 3.556-.209l-1.103 3.69c4.362-1.412 5.395-1.571 7.971.23 1.77 1.241 3.143 2.343 5.641 2.106 1.408-.131 1.879-.602 2.832-1.284 1.508-1.078.673-1.904.41-3.012-.432-1.804-1.402-3.887-.285-5.462.812-1.145 1.2-2.761 2.659-3.463z"/></svg>