<svg xmlns="http://www.w3.org/2000/svg" viewBox="0 0 32 32"><path d="M20.925 12.821c-.151-.799-.02-1.143-.932-1.056-1.687.16-1.374-.927-.752-1.608 1.063-1.164.63-1.918-.307-2.761-.603-.544-1.214-1.101-1.717-1.734-1.803-2.265-4.566-1.429-6.792-1.731-1.349-.184-3.829.983-3.827 3.558 0 .402-.372.526-.568.772-1.753 2.188-3.499 4.427-3.833 7.341-.103.899.196 1.824-1.269 1.701-.586-.048-.837.619-.918 1.095-.104.625.559.538.921.707 1.258.578 2.362 1.58 2.755 2.738 1.314 3.883 4.813 4.629 7.921 5.981 2.546 1.107 4.526-1.506 7.246-.986 2.049.391 4.005-2.28 6.565-1.809.219.038.538-.442.802-.692l5.789-5.46c-3.15-.507-5.63-1.758-8.178-2.673-1.476-.53-2.62-1.87-2.907-3.383z"/></svg>