<svg xmlns="http://www.w3.org/2000/svg" viewBox="0 0 32 32"><path d="M10.688 31.975c2.245-.452 4.459-1.071 6.713-1.46 1.129-.191 2.038-.533 2.992-1.233 1.766-1.292 3.272-2.844 4.868-4.298 1.627-1.495 1.537-2.076-.309-3.461-.377-.287-1.301-.576-.895-1.017 1.266-1.372-.27-2.245-.64-3.05-.327-.706-.509-1.447-.272-1.873.848-1.534.16-2.737-.669-3.846-.742-.99-.684-1.732.232-2.456 1.13-.892.747-1.832-.232-2.264-2.551-1.124-1.524-2.769-.744-4.321.249-.499.735-.984.134-1.282C20.792.881 19.925-.207 18.518.036c-1.691.287-3.235.817-3.39 2.835-.098 1.242-1.274 1.948-1.799 1.744-1.876-.73-4.453.971-5.772-1.715-.29-.588-1.063-.472-1.657.209-.794.901.156 1.016.501 1.254.73.503 1.52.964 2.351 1.262 1.249.443 2.013 1.086 2 2.546-.014 1.376.874 2.577.449 4.161-.254.947.979 2.015 2.201 2.389 1.017.312.826 1.114.742 1.848-.047.414-.284.425-.53.125-.057-.212-.076-.478-.377-.335-.118.055-.217.202-.27.331-.791 1.894-2.389 2.965-3.979 4.108-2.064 1.479-3.785 3.18-2.07 6.046.188.316.003.875-.066 1.32-.267 1.712 2.126 4.15 3.836 3.811z"/></svg>