<svg xmlns="http://www.w3.org/2000/svg" viewBox="0 0 32 32"><path d="M6.059 15.447c.787 1.232 1.494 2.13 1.285 3.57-.201 1.394-.119 2.859-.809 4.14-.489.909.317.948.726 1.299 1.613 1.394 3.687.832 5.521 1.272 1.378.331 3.403 1.664 3.786-1.357.069-.543.911-.697 1.557-.719 1.033-.043 2.005.189 2.966.536 1.364.489 3.663-.486 4.217-1.736.233-.528-.017-.606-.445-.821-1.141-.566-1.072-1.467-.792-2.618.24-1.002.43-2.462-.823-2.922-1.149-.423-.419-.834-.16-1.082 1.239-1.208 1.966-2.64 2.711-4.216.758-1.598-.015-1.629-.955-1.903-3.659-1.075-6.848-2.697-9.657-4.799l.079.056c-1.108-.825-2.06-.562-2.141.809-.081 1.338-.609 1.802-1.831 1.812-.484.007-.96.152-1.179.649-.705 1.608-1.7.883-2.568.258-.455-.331-.774-.789-1.374-.38-.657.446-.253.894-.001 1.378.732 1.397.394 1.631-1.197 1.542a1.962 1.962 0 0 1-.869-.294l.008.005.008.005c-.423-.234-.796-.503-1.309-.364-.456.112-.907.259-1.368.325-.621.09-1.465-.218-1.447.882.015.942.287 1.624 1.376 1.896 1.802.449 3.435.821 4.683 2.778zm24.114 10.238c-.471.664-.255 1.401.125 2.065.207.364.503.721.945.526.718-.327.718-1.071.726-1.718.007-.635.216-1.328-.402-2.127-.524.456-1.058.783-1.394 1.254z"/></svg>