<svg xmlns="http://www.w3.org/2000/svg" viewBox="0 0 32 32"><path d="M13.524 32.017c.779-.809 1.309-2.466 3.023-1.02.504.425.732-.127.931-.732.489-1.492-.773-2.333-1.153-3.474-.682-2.059-.454-2.556 1.737-2.403 1.041.074 2.124.15 2.48-1.188.145-.536-.669-1.387.455-1.583.84-.147 1.111.608 1.41 1.177.95 1.805 2.254 2.198 3.948 1.029.505-.35.914-.62 1.077.253.113.602.405 1.015 1.05.766.468-.182.648-.634.89-1.123 1.105-2.238 1.25-4.542 1.288-6.996.023-1.462-.156-2.206-1.403-2.975-2.135-1.316-2.006-2.966.159-4.471 1.044-.725 1.333-1.53.788-2.837-.843-2.014-2.238-2.258-3.913-1.481-1.767.819-2.082-.085-2.082-1.489a4.876 4.876 0 0 1 .34-1.758l-.012.033c.366-.94.177-1.41-.882-1.446-2.596-.082-5.191-.156-7.782-.294-1.047-.056-1.407.289-1.447 1.369-.062 1.751.9 4.199-.345 5.066-1.26.879-3.572.268-5.426.265-.654 0-1.347.242-1.965-.145-.463-.289-.923-.289-1.064.248-.496 1.916-1.764 3.553-1.513 5.772.198 1.763-1.033 2.861-2.755 2.873 1.736 7.054 7.246 11.484 12.165 16.564z"/></svg>