<svg xmlns="http://www.w3.org/2000/svg" viewBox="0 0 32 32"><path d="M31.068 15.292c-.54-.264-1.148-.596-1.693-.354-3.331 1.466-5.77-.815-8.342-2.092-2.106-1.045-4.444-1.287-5.775.142-1.599 1.714-3.18 1.367-4.918 1.394-2 .032-4.007.098-6.003-.018-1.874-.11-1.757.726-1.149 1.967.176.361.745.505.59 1.041-1.555 1.011-1.048-2.682-2.955-1.21-1.659 1.282-.293 2.515-.341 3.857 2.783-.879 5.414-.777 8.054-.647.694.032 1.881.421 2.015-.318.444-2.447 2.383-1.687 3.794-2.011.845-.193 2.029.189 2.473-.649.905-1.708 1.88-1.073 3.065-.474 1.246.629 2.608 1.018 3.854 1.649 2.362 1.198 4.708.938 7.078.118.526-.183 1.181-.186 1.189-1.042.003-.723-.371-1.074-.937-1.352z"/></svg>