<svg xmlns="http://www.w3.org/2000/svg" viewBox="0 0 32 32"><path d="M8.335 21.108c2.905-.496 5.702-.626 7.998 1.72.405.412 1.054.352 1.489.194 2.353-.841 5.126.263 7.258-1.62.39-.341 1.174-.258 1.463.122.993 1.298 2.586.905 3.804 1.509.648.325 1.169.249 1.509-.37.346-.642.041-1.067-.554-1.454-.831-.537-2.107-.987-.675-2.312.472-.431-.192-.742-.578-.901-1.336-.544-3.183-.591-2.646-2.876.02-.08-.31-.29-.506-.364-2.49-.924-4.984-1.874-7.616-.45-.402.214-.613.285-1.065-.164-2.152-2.148-4.76-3.467-7.869-3.346-1.218.044-2.299-.138-3.456-.492-1.754-.534-3.379-1.548-5.306-1.509C.998 8.81.304 8.606.05 9.323c-.242.681.486.811.864 1.109.819.645 1.73 1.084 2.736 1.422 3.571 1.217 5.895 6.368 3.686 8.803.346.167.709.502 1 .45z"/></svg>