<svg xmlns="http://www.w3.org/2000/svg" viewBox="0 0 32 32"><path d="M30.369 15.545c-1.255-1.577-.758-3.449-1.146-5.145-.211-.91-1.632-1.305-1.196-1.979 2.195-3.376-2.272-4.649-2.185-7.324.004-.175-.596-.598-.946-.242-1.474 1.493-3.7 1.37-5.311 2.527-.701.499-1.351.465-2.118.105l1-1.899c-1.251.952-2.904.9-3.416-.033C13.749-.826 11.76.307 9.801.056c1.645.728.076 1.84.565 2.594.42.649.831 1.251-.106 1.575-.755.266-.572 1.882-2.227 1.034-2.006-1.024-2.859-.121-2.751 2.154.04.84-.06 1.732-.883 2.195-.374.215-.619.274-.456.777.51 1.589.169 2.231-1.39 2.526-.465.091-1.23.257-.992.584 1.242 1.708-1.248 3.824.683 5.387.221.178.175.471.124.808-.469 3.091.605 4.498 3.718 5.036.671.115 1.327.333 2.301.58-1.219 1.263-1.532 2.657-1.796 4.095-.257 1.394.342 1.983 1.595 1.526 1.889-.686 3.636-.078 5.447.206.681.108 1.379.98 1.462.873 1.375-1.769 3.415.324 4.951-.947.737-.607 2.031-.655 3.058-.142 1.224.61 1.349.152.916-.877-.415-.995-.484-1.512.805-2.149 2.532-1.257 2.442-1.517.112-3.324-.54-.412-1.181-.723-1.647-1.209-.964-1.006-1.953-2.817-.988-3.505 1.884-1.342 4.326-2.611 6.526-2.594 2.016.015 1.808-1.379 1.541-1.714z"/></svg>