<svg xmlns="http://www.w3.org/2000/svg" viewBox="0 0 32 32"><path d="M5.752 20.494c-1.779 2.833-.519 5.237.751 7.293 1.023 1.65.687 2.123-.871 2.988 1.175.254 2.259.228 3.039.706 1.807 1.103 3.211.186 4.953-.235 3.982-.964 7.188-4.136 11.529-3.899 1.043.058 1.379-.869 1.807-1.491.612-.886-.573-1.144-.93-1.391-1.078-.741-1.941-1.804-1.847-2.893.176-1.996-.031-3.973.079-5.951.034-.629.868-1.138.283-1.86-1.732-2.12-.669-4.778-1.317-7.137-.325-1.178-.053-2.439-1.303-3.281-.551-.373-1.116-.745-.762-1.813.513-1.532-.58-1.839-1.721-1.243-.997.518-1.966.512-3.006.501-2.703-.026-5.407.078-8.104-.02-1.497-.052-2.089.846-1.715 1.903 1.133 3.197.344 6.656 1.533 9.832.275.732.502 1.928.121 2.384-1.407 1.677-1.469 3.936-2.52 5.608z"/></svg>