<svg xmlns="http://www.w3.org/2000/svg" viewBox="0 0 32 32"><path d="M22.963 14.682c-.5-.44-1.532-1.136.232-1.348.931-.114.743-1.024.669-1.585-.187-1.418-.786-2.795-1.228-4.095-.596-1.747-1.036-3.335-.62-5.102.133-.572-.152-1.107-.47-.89-1.295.893-1.477-.246-2.099-.864-.911-.908-1.922-1.133-3.148-.19-.642.494-1.207 1.689-2.505 1.012-1.321-.153-2.798.685-3.132 1.535-.51 1.303-1.162 1.275-2.211 1.476-1.307.247-.282 1.738-.925 2.524-.238.291-.335 1.224.516 1.438 3.129.79 2.149 3.335 2.289 5.381.052.766-1.407 1.944.632 2.11-.032.294.381.855-.252.805-.714-.058-.94.168-.414.605 1.306 1.086 1.019 1.811-.259 2.642-.975.632-1.074 1.912-1.007 2.825.171 2.331.396 4.742 1.485 6.857.628 1.222 2.067 2.126 3.282 2.188 1.289.062.86-1.708 1.3-2.621.945-1.959.664-4.759 3.649-5.361.305-.058.708-.449.769-.746.355-1.741 1.759-2.349 3.074-3.162 2.657-1.645 2.713-3.39.376-5.432z"/></svg>