<svg xmlns="http://www.w3.org/2000/svg" viewBox="0 0 32 32"><path d="M3.25 5.845c-.269-.065-.3.353-.337.638-.147 1.146-1.1 1.772-1.669 2.646-.457.698-1.919 1.679-.878 2.414 1.347.954.863 2.796 2.451 3.67.712.391 1.454.968 2.346 1.155-1.309.934-2.38 1.748-.439 2.998.6.39.541.879.401 1.587-.135.669.256 2.076 1.262 1.37 1.003-.705.917.097 1.221.41.273.277.052.834.543 1.05l.803-1.19c.594.26.683 1.093 1.468 1.157.277-1.378-.433-2.522-.821-3.73l-.019-.022a.855.855 0 0 1 .16-.183l.001-.001.001-.001c.025-.018.052-.02.078-.027.012 0 .025-.008.037-.008.053.011.099.04.131.08.523.56 1.144.627 1.569.064.525-.695-.45-.598-.643-.93-.164-.277-.185-.638-.269-.966.517-.063.965-.552 1.559-.17.506.329.78.986 1.498 1.048.078-.69-.05-1.493.271-2.024.803-1.335.551-2.022-.971-2.308-.717-.134-1.493-.544-1.594-1.191-.232-1.542-1.408-2.425-2.196-3.561-.617-.89-.536-1.568-.072-2.276.168.031.318.09.454.161.059.035.109.08.165.116.072.048.15.093.215.15.007.005.014.018.023.025.686.602 1.097 1.549 2.181 1.472l.019.022.007.048-.117.177c.05.029.101.052.15.079-.011-.082-.023-.166-.033-.252l.052-.076h.004c-.031.003-.055-.007-.085-.003-.049-.068-.105-.138-.155-.204l-.02-.026a1.05 1.05 0 0 1-.137-.232l-.002-.007-.003-.007c-.136-.358.181-.305.345-.288.534.055.508 1.092 1.288.754-.887-2.23-.292-3.532 1.862-3.638 1.538-.075 3.179-.461 4.629.387.874.508 1.448.041 1.675-.562.26-.691.438-1.306.994-1.896.566-.604-.147-1.106-.699-1.404-.341-.188-.979-.454-1.013.124-.15 2.372-2.311 1.806-3.032 1.453-2.526-1.247-4.911-.436-7.388-.259-1.039.075-1.554 1.14-2.632.924C6.167 4.249 5.05 6.29 3.247 5.847zm16.326 22.56c-2.082-.735-4.451-.417-6.589-1.231-.592-.225-.942.207-1.099.665-.145.425.072.877.556.935 2.792.327 5.473 1.645 8.392.893.563-.147.874-.346.859-1.097-.688-.373-1.305.123-2.118-.165zm3.001-15.343c-.2-.559-.457-1.258-1.276-1.084-.493.105-1.36.157-1.167.84.183.643 1.052.791 1.625.927.579.012 1.026-.11.818-.683zm7.393 12.323c-.029.307.151.634.436.538.881-.3 1.463-.911 1.599-2.178-1.136.254-1.933.528-2.035 1.64z"/></svg>