<svg xmlns="http://www.w3.org/2000/svg" viewBox="0 0 32 32"><path d="M25.286 21.658c2.06-1.105 3.72-2.773 5.535-4.225.425-.343.959-.764.129-1.131-.773-.347-1.951-1.686-2.2-.94-.456 1.38-.981.568-1.376.35-.649-.35-1.307-.412-1.962-.331-1.258.159-1.651-.265-1.573-1.57.239-3.896.012-7.815.485-11.703.174-1.446-.147-2.171-1.878-2.106-3.607.141-7.226.093-10.837.015-1.226-.023-1.878.265-1.627 1.588.453 2.367-.3 3.556-3.357 2.745 1.114 1.174 1.723 1.934 2.459 2.554.736.629 1.582 1.128 2.402 1.653 1.194.773 1.374 2.32 2.636 3.164.787.526-.329 2.269-1.472 2.28-2.332.026-4.667.072-6.996-.018-1.137-.043-1.584.511-2.275 1.319-2.363 2.745-2.52 5.983-2.558 9.297-.008.793-.658 1.518.425 2.352 3.284 2.52 6.554 4.829 11.016 4.127a2.671 2.671 0 0 1 1.355.145l-.018-.006c1.743.692 3.002 1.581 4.941-.557 1.423-1.562 2.897-3.564 5.085-4.519.814-.357.78-1.102.476-1.936-.416-1.148.064-1.948 1.184-2.551z"/></svg>