<svg xmlns="http://www.w3.org/2000/svg" viewBox="0 0 32 32"><path d="M1.591 12.814c-.113.596.574 1.763 1.161 1.988 2.326.892 3.464 2.863 4.696 4.737.516.782.889.625 1.371.186.536-.492 1.289-.987 1.454-1.608.605-2.323 2.658-1.564 4.086-2.077 2.361-.85 3.206 1.149 3.994 2.568.738 1.327 1.511 2.924.285 4.691 4.159-1.324 5.817-1.208 5.576 3.365-.051.999.891 1.013 1.298 1.152 1.602.543 2.063-2.451 4.083-1.442.335.166.432-1.12.732-1.697.13-.257.157-.463-.003-.785-.632-1.259-.586-1.361.862-1.138.602.094 1.037-.241.726-.462-1.534-1.091.181-3.405-1.73-4.296-.208-.095-.352-.735-.243-1.014.554-1.448.02-2.537-.466-3.962-.826-2.442-2.311-4.543-3.054-6.998-.258-.848-1.011-2.248-2.151-.269-.38.66-1.52 1.346-2.673.655-1.445-.863-2.886 1.327-4.548.059-.246-.189-1.478.69-1.366-.863.039-.537-.51-.466-.823-.403-2.611.516-5.025-.202-7.458-1.023-1.037-.35-2.936 1.62-2.37 2.445 1.061 1.547.326 1.636-.987 1.823-1.618.234-2.859.906-3.78 2.559-1.093 1.977 1.555.577 1.328 1.81z"/></svg>