<svg xmlns="http://www.w3.org/2000/svg" viewBox="0 0 32 32"><path d="M4.147 14.262c.041.501 1.401 2.509 2.04 2.394 1.76-.314 3.734.886 5.318-.685.374-.376.829-.952 1.686-.409-1.116.717-1.012 1.925-.535 2.673.521.8 1.455-.044 2.198-.284.575-.184 1.127-.152 1.784.419-.826.233-1.568.325-2.189.651-.858.455-2.043.391-1.163 2.352.543 1.214 1.344 1.757 2.022 2.624 1.413 1.812 2.448 1.79 3.494-.208.17-.334.294-.693.494-1.007.638-.99.725-2.65 1.935-2.888 2.404-.474 4.377-2.158 7.065-1.959 2.71.199 3.593-1.032 3.207-3.215-.179-1.006-1.134-1.117-1.62-1.754-.498-.653-.826-1.246.345-1.331 1.941-.138 1.869-1.515 1.697-2.784-.179-1.311-.747-2.292-2.466-2.071-1.404.178-2.859-.081-4.289-.026-4.576.182-9.366-1.003-13.522 2.043-.271.201-.722.175-1.09.213-3.547.385-7.153.402-10.556 1.594.043.06.115.182.21.273 1.239 1.153 3.713.734 3.937 3.383z"/></svg>