<svg xmlns="http://www.w3.org/2000/svg" viewBox="0 0 32 32"><path d="M23.726 23.839c-.262-.537-.009-1.382-.983-1.579-1.226-.249-1.709-1.373-2.244-2.336-.604-1.085.402-4.374 1.364-4.657 1.661-.481 2.952-4.544 1.58-5.546-1.591-1.164-2.78-3.068-5.027-3.221a3.167 3.167 0 0 0-.302-.278l-.006-.005-.006-.005c.175-3.196-2.517-4.174-4.445-5.731-1.771-1.436-2.22.755-3.291 1.235-.409.186-.794.419-1.178.658-.658.399-1.193.949-1.094 1.757.104.848.317 1.724 1.644 1.509C9.12 6.696 8.34 6.855 7.512 7.025c-.794.161-2.747 3.67-2.274 4.224 1.167 1.362 1.912 3.479 4.334 3.041 1.311-.237 1.828.413 1.436 1.486-.423 1.167-.028 1.376.893 2 .636.435 1.517 1.679.582 3.105-1.052 1.602-1.642 3.434-1.006 5.502.735 2.398 2.051 4.276 4.136 5.632h2.283c-.019-.744.291-1.325 1.062-1.404 2.495-.252 4.53-2.453 7.262-1.704.17.043.41-.153.631-.24-1.746-1.187-2.28-3.096-3.125-4.829z"/></svg>