<svg xmlns="http://www.w3.org/2000/svg" viewBox="0 0 32 32"><path d="M31.274 11.141c.122-1.273.556-3.175-1.507-3.49-2.858-.436-5.659-.857-8.37-2.025-2.622-1.127-5.399-.676-8.055.218-.853.288-1.762.684-1.575 1.836.176 1.095 1.26 1.045 1.961 1.081 1.847.083 3.464.716 5.06 1.542.732.379 1.042.674.713 1.671-.88 2.668-.234 4.953 2.285 6.505.123.08.262.169.341.288.455.684 2.014.561 1.604 1.764-.331.966-1.462.279-2.189.516-.405.134-.904.298-1.129.615-.654.915-1.539.787-2.416.676-4.54-.583-9.126-.882-13.553-2.192a5.515 5.515 0 0 0-2.706-.096l.036-.007.036-.006C.478 20.309.271 21.404.039 22.341c-.237.941.604 1.385 1.382 1.716 1.017.442 2.14.735 3.007 1.374 1.441 1.059 2.652 2.527 4.184.089.254-.407 1.218-.414 1.868-.523 1.729-.283 3.414.015 5.05.536.904.304 1.945.48 3.028.48.803 0 1.583-.097 2.329-.279l-.067.014c3.433-.815 6.757-1.447 9.553 1.302 1.876-2.971-1.191-4.189-2.114-6.436 1.613.093 2.788-.693 2.701-1.924-.115-1.669-.575-3.215 1.018-4.439.073-.06-.07-.604-.248-.754-.837-.693-.556-1.421-.459-2.354z"/><path d="M17.759 19.244c.359.139.83.497 1.093-.16.16-.402-.019-.725-.346-.947-1.165-.779-2.351-1.512-3.689-1.768-.497.058-1.039-.167-1.268.344-.301.683.293.933.742 1.13 1.138.5 2.301.96 3.468 1.401z"/></svg>