<svg xmlns="http://www.w3.org/2000/svg" viewBox="0 0 32 32"><path d="M14.783 20.072c1.305.333 1.431-1.752 2.327-1.236 2.641 1.514 3.365-1.11 4.493-2.164 1.018-.952 1.192-2.78 3.176-1.384.25.178.837-.131 1.272-.195 2.078-.293 3.928-1.249 5.957-1.984-.723-.708-1.001-2.019-2.42-1.387-.367.163-.587.06-.676-.261-.737-2.589-3.047-2.818-5.085-3.15-2.073-.341-4.43-.831-6.281-.174-2.614.926-5.194 1.126-7.645.528-2.196-.539-3.552.416-5.071 1.385-1.202.763-2.257 1.761-3.458 2.529-1.511.963-.498 2.74-1.365 3.945-.192.27 4.779 2.749 5.525 2.597 1-.206 2.571.528 2.52.64-.886 1.875.989 2.251 1.619 3.262.47.746 1.05 1.44 1.981 1.061 1.015-.41 1.768-1.258 1.952-2.36.135-.815-.392-2.053 1.179-1.654z"/></svg>