<svg xmlns="http://www.w3.org/2000/svg" viewBox="0 0 32 32"><path d="M31.679 10.565c-1.552-.517-2.301-3.034-4.505-1.85-.192.101-.581-.032-.82-.165-2.72-1.519-4.32-1.349-6.839.564-.603.455-1.391.615-2.236.735-1.798.253-3.929-.069-5.14 1.905-.313.51-.908.483-1.413.496-1.713.057-3.442.223-4.872-1.098-.712-.656-1.498-.498-1.677.46-.223 1.172-.709 1.29-1.689.898-.489-.198-1.154-.19-1.032.615.281 1.866-.281 3.557-1.454 4.291.924 2.635 3.373 3.84 5.344 5.401 1.875 1.491 3.997 2.317 6.771 1.038 2.216-1.018 4.675-2.088 7.454-1.636 1.675.269 3.544-.196 4.673-1.756.952-1.314 1.697-2.78 2.534-4.18 1.038-1.746 1.696-3.809 4.243-4.086.609-.062 1.489-1.355.66-1.633z"/></svg>