<svg xmlns="http://www.w3.org/2000/svg" viewBox="0 0 32 32"><path d="M6.189 20.483c-.41.094-1.201-.55-1.137.422.058.859.897.654 1.43.588 2.108-.273 3.928.156 5.922 1.104 1.962.937 4.482 1.78 6.652.367 2.357-1.532 5.037-2.306 7.577-3.239 2.115-.782 3.512-1.997 4.791-3.589 1.051-1.307.623-2.549-.799-3.301-1.373-.724-2.719-1.614-2.144-3.719-1.247.694-2.275.979-3.322-.367-.48-.616-1.717-.809-1.821.715-.018.305-.003.62-.351.705-1.878.44-3.922.78-5.671.305-1.778-.48-2.252.282-2.9 1.486-.941-.507-2.323-3.131-2.536.496-.027.468-1.494.667-2.194 1.247-.261.216-.566-.583-.501-.794.727-2.422-1.392-2.78-2.672-3.646-1.175-.794-1.42-.645-2.079.841-.278.627-.588.137-.855.106-.676-.082-1.239.15-1.42.759C1.807 12.14.72 12.639 0 13.461c2.27 1.629 4.792-1.424 6.843.451-.919 1.927-2.771 2.076-4.62 2.243-.363.032-.864.118-.818.536a.681.681 0 0 0 1.023.523l-.003.002-.003.002c.949-.544 1.915-.275 2.842-.141 1.319.187 1.843 1.344 2.138 2.428.184.66-.632.846-1.213.978z"/></svg>