<svg xmlns="http://www.w3.org/2000/svg" viewBox="0 0 32 32"><path d="M30.005 7.265c-1.676.197-2.874 1.055-3.973 1.961-1.552 1.289-2.056 1.516-3.283.071-.583-.682-1.022-.502-1.003.171.054 1.669-.824 1.284-1.767.987-1.578-.509-3.187-.951-4.738-1.533-.749-.281-2.151-.869-1.843-1.377 1.069-1.767-.403-2.01-1.24-2.677-.543-.428-.254-.805-.153-1.363.445-2.479-.87-3.662-3.059-2.953-.363.117-.793.257-1.134.166C5.731.157 5.996 1.446 6.37 2.61c.687 2.129-1.188 6.031-3.316 6.312-2.108.286-2.009 1.167-.984 2.476.957 1.226 1.02 1.876-.828 1.78-.584-.033-1.347.128-1.229.924.33 2.262 2.464 3.519 4.891 2.918-.488 5.166 2.666 9.218 4.199 13.762.324.97.935 1.256 2.044.218 1.835-1.728 2.105-3.812 2.072-5.993-.021-1.172.409-1.933 1.259-2.38 3.14-1.655 4.833-5.188 8.343-6.363.475-.16.218-.856.114-1.282-.16-.66-.531-1.284-.603-1.946-.077-.681.693-1.748.902-1.445.809 1.184 2.102.376 3.152 1.195-3.981 2.067 1.074 1.835.474 3.083 1.95-1.819 2.021-4.567 4.119-5.925.557-.36 1.316-.826.905-1.121-.633-.46-.389-1.731-1.878-1.557z"/></svg>