<svg xmlns="http://www.w3.org/2000/svg" viewBox="0 0 32 32"><path d="M6.598 15.313C4.589 13.286 2.283 12.135 0 10.757c2.197 4.447 3.55 6.114 6.315 8.071.757 1.002 1.797 1.473 3.016 1.627 2.72.345 5.395 1.106 7.86.667-2.894-1.351-6.421-1.57-9.801-2.394-.031-1.169.541-2.07-.792-3.415zm22.266.543c-.208-1.442-1.241-.449-1.878-.637-.83-.14-1.665-.273-2.83-.462 1.157 1.484 1.737 2.98 3.626 3.245.808.112 2.298.401 2.109 1.247-.483 2.173 1.233 1.284 1.968 1.798.193-4.982.8-4.601-2.995-5.191zm-12.085-.714c-.571 2.481-.568 2.486 1.332 2.952.1.026.14.259.237.369.275.292.686.446 1 .246.478-.313.172-.797.017-1.175-.183-.461-.89-.811-.409-1.397.196-.238 1.051.145.829-.587-.189-.625-.872-.454-1.356-.362-.39.076-.779.455-.927-.266.973-.709 2.55.532 3.426-1.265-1.464.65-2.883-.26-4.12.64-.006.283.032.574-.029.845zm.026-.878c-.044-.01-.076-.003-.115-.01-.259-.282-.523-.545-.691-.885-.016-.025-.032-.047-.048-.077a1.646 1.646 0 0 1-.107-.398l-.001-.009-.001-.009c-.061-.536.084-1.214-.83-1.289-.794-.065-1.018.462-1.231 1.003-.669 1.681-2.223 1.42-3.348 1.143-1.383-.343-1.208.23-.986 1.038.153.557.377 1.116.695 1.593.868 1.31 2.435.916 3.662 1.31 1.17.375.789-1.121 1.259-1.624.41-.433.356-1.358.878-1.694.173-.112.41-.156.753-.096l.065.07c.017-.013.031-.016.048-.031-.003-.012-.003-.023-.003-.035zm5.752 1.685c.502-.91 1.372-1.756.483-3.008-1.176.9-1.002 1.925-.483 3.008z"/></svg>