<svg xmlns="http://www.w3.org/2000/svg" viewBox="0 0 32 32"><path d="M26.496 7.058c-3.236-2.545-6.33-2.541-9.477-.21-3.239 2.396-9.047.507-9.712-3.362-.301-1.76-.791-1.544-1.782-.8-1.39 1.045-2.679 1.472-3.893-.224C1.298 2 .929 2.081.473 2.411c-.44.325-.551.636-.423 1.149.557 2.25.875 4.613 2.748 6.275.462.405.694.954.38 1.331-2.037 2.459.037 3.591 1.562 4.808.863.685 1.448 1.252 1.571 2.508.074.757.332 2.569 1.547 2.317 2.596-.542 3.005 1.298 4.099 2.795 1.466 2.013 3.709 3.682 6.128 3.555 1.98-.098 3.347-1.399 4.866 1.398.814 1.506 4.098.849 6.249 1.292 1.392.285.593-1.505 1.38-1.945.131-.076.255-.171.377-.259.599-.428 1.137-2.155 1.033-2.847-.095-.618-.457-.823-.909-1.152-1.386-.995-3.026-2.006-1.059-3.965.386-.386.565-1.216-.051-1.359-2.147-.486-1.167-2.272-1.542-3.458-.544-1.72.921-3.132.985-5.267.393-1.837-1.848-1.688-2.916-2.529z"/></svg>