<svg xmlns="http://www.w3.org/2000/svg" viewBox="0 0 32 32"><path d="M2.475 20.457c1.851.267 3.544.881 5.199 1.793 3.883 2.128 7.104 5.128 10.598 7.763 2.063 1.558 4.423 1.023 6.658 1.144 1.511.079 1.778-1.558 2.363-2.636.462-.846 1.199-1.14 2.054-.834.791.285 1.569.285 2.669.268-.314-.582-.461-.914-.653-1.211-.97-1.484-2.175-2.813-1.751-4.879.283-1.366-.818-2.384-1.779-3.044-1.554-1.064-3.171-1.735-4.248-3.624-1.604-2.812-1.937-3.127.218-5.673.859-1.011-.491-2.111.364-3.016-2.669-.139-3.174-2.389-4.109-4.215-.194-.379-.268-.976-.835-.853-1.444.317-2.701-.502-4.092-.584-1.343-.076-6.524 2.439-6.98 3.726-.118.33-.095.738-.062 1.103.303 3.21.121 6.129-3.654 7.365-1.04.339-1.986 1.008-2.918 1.611-.662.432-1.984.597-1.347 1.851.688 1.352-.079 3.595 2.307 3.944z"/></svg>