<svg xmlns="http://www.w3.org/2000/svg" viewBox="0 0 32 32"><path d="M7.064 32.003c4.139.176 7.529-1.973 11.031-3.655 2.001-.958 3.958-2.062 6.186-2.006 1.981.047 3.232-.536 3.565-2.542.298-1.808 1.969-3.29 1.34-5.29-.645-2.051-.247-4.362-1.534-6.238-.649-.949.729-.883.701-1.859-2.025.388-3.334-.429-4.364-2.088-.726-1.164-1.524-.654-1.877.435-.448 1.372-1.385 1.372-2.485 1.03-1.295-.405-2.154-1.324-2.979-2.386 3.172-1.498 4.051-5.03 7.057-6.511-1.333-.99-2.1-1.126-3.596-.561-2.45.924-5.294.762-6.218 4.01-.133.458-1.402.304-1.138 1.08.257.764 1.227.655 1.931.796.357.07.88-.473 1.078.309-1.563 1.13-2.924 2.755-5.151 2.406-1.523-.241-3.017-.376-4.575-.264-2.056.148-1.802.912-.764 2.031-.425.577-1.225-.131-1.602.57 1.004.993 2.296 1.063 3.664 1.191-1.45.141-1.63 1.509-2.441 2.203-.95.806-.976 1.196.342 1.676 1.864.683 3.628 1.645 5.8 1.443-.976.481-2.227.637-2.514 1.708-.289 1.074-.686 1.958-1.666 2.461-.897.46-1.049.961-.313 1.68-.955.379-.64 2.523-2.528 1.738-.457-.188-1.306.267-1.327 1.069.669.651 1.474-.015 2.259.37-.657.515-1.312.958-1.885 1.492-.432.408-.635 1.113.228 1.042 1.298-.113 1.252 2.169 2.801 1.387.284-.144.324.307.247.44-.622 1.059.119.813.726.834z"/></svg>