<svg xmlns="http://www.w3.org/2000/svg" viewBox="0 0 32 32"><path d="M17.115 7.385c1.786 1.085 2.157-.149 3.322-1.273 1.404-1.36 1.742-2.584 1.712-4.21-.012-.69-.251-1.38-.354-1.902-1.888-.004-2.287 2.438-4.032 2.359-1.432-.066-1.759.668-2.119 1.724-1.585 4.639-2.734 9.463-5.582 13.585-.245.354-.258.69-.124 1.06 1.587 4.403 3.176 8.805 4.765 13.206.192.025.383.05.577.072.777-5.521 2.883-10.718 3.769-16.414-1.613.347-3.199 1.765-4.038.708-.785-.992.823-1.958 1.781-2.668.071-.052.037-.245.052-.369-1.79-.923-2.106-4.334-.518-5.574.215-.173.636-.395.787-.304z"/></svg>