<svg xmlns="http://www.w3.org/2000/svg" viewBox="0 0 32 32"><path d="M30.449 20.565c-1.252-1.068-2.735-1.763-4.225-2.43-.556-.247-1.643-.295-1.379-1.084.463-1.384-.333-1.118-1.071-1.095-2.14.067-3.636-1.051-4.3-2.918-.578-1.614-1.489-2.796-2.983-3.358-2.294-.861-.601-2.801-1.222-4.138-.276-.601 1.149-.496 1.686-.941.266-.22.664-.384 1.006-.393 1.084-.031.76-.781.571-1.238-.225-.537.6-1.544-.721-1.629-.734-.05-1.797.003-2.131-.436-1.277-1.673-2.629-.511-4.024-.539C9.959.335 9.267 2.999 7.364 1.665c-.578 1.48-1.298 1.816-2.29.306-.039-.057-.506.028-.539.118-.454 1.425-1.69 1.195-2.744 1.333-.384.051-.924.394-.832.511 1.06 1.359-.61 2.664.057 4.125.683 1.493 2.376 2.686 3.447 1.838 2.524-1.995 4.809-1.369 5.664 1.763.412 1.519 1.449 2.34 2.516 3.113 1.919 1.398 3.475 3.192 6.051 3.871 1.744.466 3.103 2.437 4.809 3.539 1.087.701 1.369 2.202 1.296 3.345-.038.684-.982 1.483-2.102 1.821-2.052.62-4.053.285-6.073.212-.635-.022-1.029.09-1.136.724-.101.613.222.882.798 1.122 1.429.591 2.846 1.239 4.189 2 .603.339 1.131.852 1.797.439.664-.415.639-1.118.323-1.906.104-.667.07-1.912.96-1.773 1.972.312 1.934-1.376 2.842-2.162 1.521-1.321 1.801-2.108-.026-3.209-.142-.083-.058-.706.064-1.03.451-1.222 1.766-1.222 3.1-.003.391.358.645 1.208 1.321.508.632-.651.117-1.255-.407-1.705z"/><path d="M6.965 18.383c-.905.353-3.649.518-1.909 3.011.238.339.032.985.032 1.705-.163.806-.506 2.207 1.004 2.118 1.004-.058 2.636-.444 2.345-2.38-.118-.755.396-1.607.285-2.364-.146-1.001-.365-2.632-1.757-2.089z"/></svg>