<svg xmlns="http://www.w3.org/2000/svg" viewBox="0 0 32 32"><path d="M4.404 22.834c1.666 1.651 3.464 3.346 1.582 6.038-.317.455-.033 1.312-.081 1.979-.097 1.295.447 1.363 1.44.853 6.261-3.217 12.839-4.609 19.878-3.642.899.125 2.091.684 2.723-.481.571-1.059.097-1.916-.878-2.583-.248-.171-.212-.703-.395-1.017-1.996-3.369-.106-6.461 1.299-9.12 1.247-2.364 1.302-4.173.545-6.541-1.425-4.479-3.406-5.22-7.099-3.763-2.314.914-3.468.257-4.636-1.603-.85-1.351-2.65-2.142-3.792-1.374-3.008 2.02-1.802-.481-1.964-1.579h-1.341c-.155.814-1.828.286-1.424 1.601-.988.238-1.755 1.328-3.018.526-1.608-1.018-4.113.357-4.007 2.258.138 2.438 1.123 4.686 2.147 6.887-.169.155-.32.092-.54.051-.694-.135-1.574-.527-2.06.16-.448.628.389 1.085.593 1.597.321.809.202 2.249-.895 2.493-1.036.231-1 .471-.635 1.199.843 1.674.568 3.147-.857 4.264.846 1.335 2.515.908 3.416 1.799z"/></svg>