<svg xmlns="http://www.w3.org/2000/svg" viewBox="0 0 32 32"><path d="M29.589 15.324c-4.464-1.057-8.156-4.138-12.857-4.574-4.9-.454-9.783-1.377-14.664.029-1.137.329-2.026 1.052-2.067 2.34-.048 1.473 1.1 1.454 2.152 1.647.834.153 1.761.068 2.417.91 2.167 2.764 4.517 5.175 8.55 4.541.831-.128 1.741.387 2.419 1.011 1.045.968 1.608 1.174 2.372-.486.819-1.793 3.953.456 4.733-2.198.105-.359.613.102.94.182.407.099.805.242 1.198.394 1.182.463 2.334 1.036 3.669.892.965-.035 1.933-.028 2.858-.403.46-.191.869-.362.617-.931-.569-1.275-1.007-3.039-2.339-3.355z"/></svg>