<svg xmlns="http://www.w3.org/2000/svg" viewBox="0 0 32 32"><path d="M22.749 7.136c1.779.987 2.967.092 4.653-.558 2.052-.795 2.799-2.451 4.604-3.653-4.362.594-4.369.6-7.825-2.206-.374-.305-.702-.542-1.158-.37-.572.216-.339.706-.305 1.119.119 1.409.053 3.154-1.194 3.673-2.304.955-2.33 2.402-1.808 4.389.631-.396 1.688-.985 1.657-1.047-.943-1.94 1.214-1.44 1.376-1.348zM.487 28.324c1.327-.211.974.406.884 1.102-.109.837-.472 1.95.621 2.246.989.266 1.073-.971 1.533-1.556.177-.226.272-.516.434-.752.49-.708.564-1.438 2.054-1.25 2.494.316 3.972-1.822 3.308-3.974.506.046.954.027 1.08.769.299 1.742 1.123 2.108 2.277.869 1.312-1.409 3.096-1.069 4.579-1.709 1.559-.675 3.87-.381 3.782-3.396-.04-1.319.006-3.542.886-4.241 2.018-1.596 1.405-3.117.744-4.822-.257-.667.178-2.111-1.264-1.713-1.175.328-2.528.987-2.246 2.549.41 2.278-.939 3.801-2.055 5.409-.43.624-1.583 1.388-2.022 1.037-1.756-1.399-1.618.173-2.177 1.051-.495.774-.531 2.118-2.039 1.996-3.131-.25-5.846.846-8.268 2.76-.447.354-.191.8-.099 1.218-.838.104-1.49.575-2.087 1.119-.519.469-.581 1.391.076 1.287z"/></svg>