<svg xmlns="http://www.w3.org/2000/svg" viewBox="0 0 32 32"><path d="M29.829 7.834c-.401-.183-.621-.445-.543-.848.415-2.184-.973-3.974-1.291-5.999-.167-1.069-.643-1.254-1.639-.634-3.299 2.055-6.811 3.801-9.958 6.068-3.474 2.497-5.804 1.09-8.157-.836-.779-.643-1.41-.984-2.39-.656-1.072.364-1.006 1.344-.958 2.049.461 6.591-1.975 12.671-3.351 18.919-1.078 4.896-1.285 4.846 3.571 5.754.147.031.285.09.433.12 3.069.632 4.794.066 6.383-2.642.99-1.686 2.308-2.297 4.09-2.588 1.084-.176 2.537.056 3-1.441.357-1.144 1.018-1.978 2.121-2.429.937-.383.839-.798.214-1.457-2.011-2.12-3.973-4.281-6.213-6.706 4.159-1.141 8.17-2.237 12.178-3.355 1.001-.279 1.975-.594 2.784-1.342 1.347-1.244 1.383-1.221-.276-1.978z"/></svg>