<svg xmlns="http://www.w3.org/2000/svg" viewBox="0 0 32 32"><path d="M10.754 13.399c-1.758-.743-3.656.236-5.473-.726-1.942-1.025-3.567.646-4.808 1.719-1.34 1.155.535 1.967 1.09 2.946.733 1.297 1.379.007 2.041.124.475.085 1.144-.223 1.359.388s-.254.828-.832 1.019c-1.465.48-.815 1.322-.312 2.181.792 1.357 2.577.639 3.71 2.421.05-1.118-.003-1.506.096-1.846.242-.819-.65-1.879.742-2.484 1.258-.551 2.002.156 2.805.746.601.448 1.045 1.003 1.933.808 1.166-.261 1.91.136 2.357 1.385.363 1.013 1.312 1.723 2.382.827 2.379-1.987 5.124-1.748 7.804-1.227 1.137.22 1.295-.122 1.404-.936.239-1.735 1.388-2.674 2.889-3.247.62-.238 2.322-2.663 2.031-2.681-1.383-.085-1.991-1.73-3.395-1.614-1.448.121-2.407-.408-3.187-1.688-.701-1.153-1.478-2.643-3.369-1.327-.319.222-1.424-.157-1.762-.58-1.331-1.668-2.825-1.007-4.365-.554-1.067.313-2.139.682-3.232.818-1.937.236-1.719 1.787-1.372 2.757.347.972-.083.962-.536.771z"/></svg>