<svg xmlns="http://www.w3.org/2000/svg" viewBox="0 0 32 32"><path d="M3.961 3.708c-.538.542-.082 1.036.222 1.368 1.102 1.21 1.316 2.847 2.115 4.217.832 1.421.791 3.091-.739 4.417-.702.607-1.192 1.518-1.605 2.376-1.282 2.666-.78 4.18 1.695 5.556 2.726 1.517 5.445 3.046 8.163 4.579.451.254 1.238.538 1.25.837.109 2.499 2.454 2.879 3.801 4.185 1.292 1.259 2.191.931 2.767-.7 1.049-2.962 2.539-5.595 5.372-7.246.421-.247.957-.736.428-1.259-2.305-2.294-1.233-5.182-1.447-7.838-.267-3.331-.633-6.714 2.756-8.969-2.94-1.441-5.466-1.776-7.534.838-.15.188-.712.099-1.07.064-1.854-.172-3.67-.402-5.213-1.628-.992-.788-2.077-1.351-3.448-1.33-1.108.015-1.989-.408-1.992-1.834 0-1.842-1.439-1.409-2.164-.896-1.254.888-2.255 2.149-3.354 3.263z"/></svg>