<svg xmlns="http://www.w3.org/2000/svg" viewBox="0 0 32 32"><path d="M.82 12.664c.414.314.285.795.437 1.065 1.268 2.258 2.671 4.441 4.077 6.617.091.14.579-.018.863.044 2.724.587 5.851 5.783 4.862 8.03-.402.908-1.309 1.887-.534 2.83.88 1.071 1.307-.729 2.226-.637.558.058 1.574.229 1.309-1.26-.611-3.432-.422-3.572 2.816-4.87.476-.19 1.086-.209 1.442-.526 1.485-1.315 2.622-1.021 3.526.629.499.905 1.394 1.025 1.668.202.834-2.543 3.035-2.64 4.806-3.023.819-1.133-1.717-1.268-.422-2.219 2.029-1.494 2.551-3.919 3.949-5.784.522-.692-.294-1.365-.526-1.28-1.864.726-3.085-1.131-4.78-1.069-1.068.039-1.689-.537-1.043-1.686.598-1.063.006-.842-.775-1.183-.902-.397-2.122-.463-2.731-2.07-.429-1.133-1.398-3.27-3.749-3.253-1.227.011-3.162.238-3.015-2.164.021-.349-.576-.819-1.403-.554-1.162.379-2.154 1.215-3.785 1.148 2.416 2.486 2.361 2.882-.227 4.529-.426.268-1.233.652-1.192.84.569 2.76-1.518 2.091-2.906 2.343-.362.064-.952.171-1.012.381-.513 1.785-1.697 1.453-2.942 1.039-.645-.215-1.28-.008-1.606.47-.463.67.226 1.077.667 1.412z"/></svg>