<svg xmlns="http://www.w3.org/2000/svg" viewBox="0 0 32 32"><path d="M25.768 15.736c-.171-1.038-1.059-.996-1.944-.935-1.142.08-2.359.389-3.509-.601.936-.868 1.845-1.702 2.742-2.55.547-.518 1.116-1.123 1.926-.739.955.454 1.777.104 2.715-.017 1.794-.24 2.878-1.179 2.764-2.807-.12-1.734-1.42-3.334-2.816-3.993-.722-.346-1.085 1.916-1.739 2.922-.113.174-.158.391-.373.931-.414-.897-.994-1.575-.974-2.23.058-1.761-1.035-2.304-2.355-2.975-2.446-1.245-4.9-1.148-7.535-.868-2.993.321-4.92 1.622-5.985 4.427-1.129 2.968-2.466 5.859-4.357 8.435-1.326 1.806-2.809 3.498-4.327 5.373 3.845.485 7.43.996 11.029 1.382 4.247.459 4.816.899 5.871 5.043.146.572.195 1.227.509 1.687.596.884 1.039 2.068 2.373 2.08 4.029.026 8.059.007 12.228.007-1.644-5.257-5.372-9.299-6.243-14.571z"/></svg>