<svg xmlns="http://www.w3.org/2000/svg" viewBox="0 0 32 32"><path d="M31.29 11.962c-1.573-.557-2.753-1.86-4.545-2.027-1.982-.181-3.963-.236-5.946-.33-2.488-.123-5.045.831-7.462-.911-1.06-.768-2.521-.02-2.888 1.392-.343 1.321-1.09 1.219-1.907.81a7.143 7.143 0 0 0-3.314-.803h-.025.001c-.255 0-.507.013-.755.038l.031-.003c-1.056.101-2.318.874-1.957 1.622.709 1.469-.408 1.485-1.013 1.859-.62.379-1.121.771-1.513 1.5.984.354 1.798.528 2.47 1.195.936.936 1.689.036 2.416-.552.042-.032.334.166.445.307.879 1.114 2.304 1.168 3.937 2.065-2.313.129-3.463 2.136-5.797 1.543-1.177-.301-2.491.725-2.277 2.295.224 1.648 1.344 1.157 2.337.677.378-.179.667-.032.995.211 2.279 1.672 4.554.128 6.831-.057.418-.032.462-.441.587-.81.697-2.06 3.553-3.263 5.561-2.414.883.376 2.303-.029 2.402-.355.746-2.491 2.837-1.853 4.512-2.19.357-.074.882-.117 1.02-.355 1.264-2.151 3.689-2.251 5.617-3.163 1.21-.573 1.24-1.187.235-1.544z"/></svg>