<svg xmlns="http://www.w3.org/2000/svg" viewBox="0 0 32 32"><path d="M29.251 28.397c.58-1.299-.899-2.627-.802-3.071.468-2.149-1.088-2.437-2.202-3.22-.163-.114-.282-.304-.4-.474-2.383-3.461-4.631-7.038-8.467-9.158-.4-.219-1.037-.271-.637-1.078.267-.535.492-.905 1.112-.642.67.283 1.067.011 1.503-.49.853-.979.124-1.379-.348-2.25-.938-1.731-1.55-2.743-3.741-1.641-.907.459-2.665-.498-2.479-1.539.438-2.467-2.031-2.675-2.71-4.203-.33-.742-1.253-.776-1.895-.39-.646.39-.644 1.108-.274 1.764.331.588.531 1.132.379 1.869-.208 1.024-1.021 1.055-1.364.591-1.244-1.676-1.674.031-2.371.471-.472.297-.373 1.022-.997 1.337-2.648 1.349 1.329 2.59.117 3.999-.228.265.126.688.49.844.196.082.459.168.64.103 2.113-.727 1.877 1.12 1.73 1.947-.223 1.253-.312 2.539-.625 3.777-.135.537-.793 1.156-.195 1.59.647.468 1.171-.226 1.7-.616 1.22-.893 2.275-2.445 4.081-.734.561.531 1.344-.205 1.872-.697 1.497-1.389 2.451-1.329 3.686.255 1.124 1.44 2.681 2.621 2.1 4.886-.219.851.7 1.604 1.335 2.163.778.677 1.984 1.07 1.478 2.395-.406 1.072.436 2.349-.402 3.185-1.169 1.171-1.127 1.581.576 1.719.523.042 1.01.505 1.802.923.189-1.613.247-2.959 2.443-1.905 1.153.552 2.314-.477 2.864-1.712z"/></svg>