<svg xmlns="http://www.w3.org/2000/svg" viewBox="0 0 32 32"><path d="M30.26 13.903c.199-.255-.05-.671-.358-.956-1.266-1.187-2.711-1.923-4.472-1.498-.985.237-1.778.11-2.37-.678-.907-1.201-2.331-1.536-3.562-2.119-1.53-.724-3.032.157-4.396.812-1.262.606-.314 1.773-.216 2.564.219 1.761-.874 2.489-2.078 2.948-1.291.487-2.27-.094-3.034-1.413-1.666-2.86-5.436-3.77-6.916-1.529C1.15 14.616-.797 17.376.34 21.139c2.305-1.696 4.712-2.117 7.407-2.026 2.974.105 5.978 1.725 8.958.025.094-.055.336-.013.405.074 1.575 1.957 4.524 1.592 6.081 3.663.682.909 1.846 1.001 2.768.271.606-.483 1.157-.524 1.832-.408 1.963.345 2.641-1.578 3.859-2.429.912-.632-.123-1.956-.62-2.939-.531-1.056-1.911-1.98-.769-3.466z"/></svg>