<svg xmlns="http://www.w3.org/2000/svg" viewBox="0 0 32 32"><path d="M26.21.939c-.514-.773-1.547-1.193-2.108-.77-1.429 1.095-2.968.574-4.458.733-.601.065-1.453-.255-1.417.852.047 1.486-1.131 1.929-2.122 2.539-1.829 1.133-3.225 2.845-3.613 4.797-.514 2.587-1.408 4.909-2.639 7.198-1.396 2.593-1.969 5.591-3.66 8.039-1.563 2.258-1.763 5.011-3.291 7.378 1.628.094 2.891.101 4.138.251 1.705.207 2.885-.213 3.172-2.122.086-.556.239-1.328.897-1.42 2.495-.358 4.134-2.187 5.632-3.792.808-.867 4.273-1.755 1.389-4.223-.443-.378-.032-1.143.344-1.599.864-1.053 1.802-1.948 3.348-1.843 1.127.083 2.265.02 3.557.02-1.858-2.013-1.743-2.774.749-4.079 1.717-.9 3.231-2.368 2.925-4.011-.406-2.191-.684-5.093-4.446-5.363.551-.601.82-.841 1.024-1.128.304-.436 1.074-.716.577-1.454z"/></svg>