<svg xmlns="http://www.w3.org/2000/svg" viewBox="0 0 32 32"><path d="M29.94 7.825c-2.95-1.599-5.198-4.085-7.619-6.332-.555-.513-.962-.912-1.666-.673C15.68 2.5 10.791 4.312 7.424 8.705c-1.969 2.567-3.138 5.916-6.742 6.923-.623.172-.799.787-.602 1.466.972 3.323 3.315 5.952 4.633 9.15.575 1.394 2.621 2.84 4.195 4.033 1.313.992 2.976 1.021 4.442.959 1.218-.052 1.088-1.752 1.676-2.608 1.388-2.008 2.009-5.027 5.322-4.909 1.862.068 3.476-.613 4.993-1.468 3.597-2.018 3.945-6.274 6.14-9.275.328-.444.341-1.114.523-1.755-.485-1.234-.64-2.626-2.063-3.398z"/></svg>