<svg xmlns="http://www.w3.org/2000/svg" viewBox="0 0 32 32"><path d="M6.863 17.7c1.761 1.155 3.684 2.111 5.159 3.642 4.649 4.829 10.166 8.223 16.5 10.375 1.251.429 1.952.659 1.659-1.127-.275-1.685-.159-3.342.688-4.94.666-1.263 1.092-2.993.332-4.057-1.199-1.675-2.797-3.365-4.619-4.198-1.267-.576-2.63-.95-3.91-1.946 2.299-1.656 2.399-3.76 1.462-6.138-.445-1.127-.88-2.395-2.113-2.579-1.196-.18-.594 1.473-1.341 1.979-.222.148-.258.537-.452.75-.476.53-1.368.792-1.729.443-.698-.672-2.354-.876-2.107-1.819.511-1.927-.476-3.465-.796-5.145C15.162.648 11.51-.941 9.953.635 8.9 1.698 7.6 3.031 7.153 4.44c-.55 1.732-1.603 2.74-2.887 3.715-1.36 1.038-2.599 2.171-3.51 3.649-.404.652-.556 1.113.126 1.681 1.882 1.562 3.98 2.9 5.98 4.214z"/></svg>