<svg xmlns="http://www.w3.org/2000/svg" viewBox="0 0 32 32"><path d="M.167 16.531c-.102.433 1.849 4.026 2.273 4.087 2.486.348 3.882 2.68 6.323 3.37 1.197.339 2.013.722 2.99-.012 1.168-.88 2.156-.807 3.437-.081 4.143 2.347 8.368 4.537 12.564 6.787 2.376 1.273 4.015.31 4.028-2.358.038-7.663-.084-15.334.22-22.987.09-2.227-.362-2.899-2.437-2.861-.637.011-1.287-.339-1.753-.889-.58-.681-1.358-.889-2.118-.795-2.963.03-4.298 1.433-4.155 4.19.09 1.679-1.044 1.828-2.241 1.533-.611-.15-1.1-.749-1.679-1.085-2.013-1.168-4.616-.71-6.273-3.298C10.26.438 7.233 1.081 5.062.792c-1.101-.144-.466 1.307-1.518 1.65-2.493.816-1.51 4.167-3.531 5.492-.044.029.026.287.091.412 1.48 2.72.693 5.451.062 8.184z"/></svg>