<svg xmlns="http://www.w3.org/2000/svg" viewBox="0 0 32 32"><path d="M10.331 27.313c-.961.674-1.934 1.332-2.914 1.984-.698.466-1 1.061-.674 1.885.342.874.954.508 1.621.482 1.444-.056 2.714-.52 3.977-1.13.947-.46 2.169-.939 2.81.114 1.089 1.797 2.429 1.447 3.977.981 1.522-.463 3.284-.564 3.413-2.736.04-.69.45-1.012 1.052-1.25 1.965-.752 2.29-1.808 1.121-3.537-.303-.447-.944-.674-.664-1.472.877-2.498.42-3.421-1.758-4.867-1.261-.84-2.4-1.913-3.406-3.055-.599-.683-.935-1.664-.419-2.671 1.342-2.603 1.307-2.827-1.169-4.365-.786-.491-1.264-.866-.368-1.592 1.268-1.023.662-1.893-.18-2.727C15.705 2.324 14.62 1.335 13.206 0c-.05 2.866-1.899 4.631-2.867 6.803-1.424 3.201-3.686 6.495-.952 10.099 1.537 2.032 1.937 4.375 2.368 6.777.28 1.587-.156 2.739-1.424 3.635z"/></svg>