<svg xmlns="http://www.w3.org/2000/svg" viewBox="0 0 32 32"><path d="M31.619 14.863c-1.316-.062-.931-.82-.678-1.531.213-.596.309-.955-.436-1.456-6.14-4.108-6.116-4.139-12.92-4.496a1.784 1.784 0 0 1-.475-.087l.013.004.013.004c-3.513-1.088-7.205-.486-10.901-1.133-1.998.335-3.923 1.208-5.707 2.406a1.2 1.2 0 0 0-.448.698l-.001.008-.001.008c-.377 1.97.716 3.715 1 5.587.085.548 1.607.843 2.429 1.326 1.243.728 2.58.765 3.963.82 1.293.056 2.653.855 2.102 2.167-.966 2.28-.073 3.223 1.888 3.693 1.498.36 1.835 1.507 2.426 2.659.377.725 6.532.039 7.245-.741.789-.862 1.964-.868 2.852-1.467 1.001-.681 1.049 1.498 2.153.695 1.531-1.116-.834-1.198-.518-2.276.803-2.741 2.058-4.791 5.084-5.241.63-.095.772-.677 1.164-1.006.329-.278.051-.623-.247-.643z"/></svg>