<svg xmlns="http://www.w3.org/2000/svg" viewBox="0 0 32 32"><path d="M5.57 27.104c-1.071.852-.282 1.766.28 1.926 2.219.636 4.013 2.117 6.158 2.84.955.319 2.119.09 2.77-.488 2.621-2.328 5.201-2.032 7.888-.258 1.175.776 1.232.155 1.351-.882.399-3.576 1.268-6.921 4.146-9.501 1.67-1.501.788-4.361-1.321-5.027a34.443 34.443 0 0 1-3.608-1.308l.234.089.25.093c-3.365-1.415-8.407-6.68-7.771-11.185.463-1.107.194-2.724-1.043-2.918-1.58-.241-3.273-1.219-5.072.575-2.454 2.442-3.631 5.519-5.404 8.298-1.895 2.972-1.99 5.67.068 8.481 1.09 1.488 1.994 3.107 3.014 4.65.28.419.351.771.042 1.202-.776 1.074-.888 2.547-1.981 3.415z"/></svg>