<svg xmlns="http://www.w3.org/2000/svg" viewBox="0 0 32 32"><path d="M.43 20.426c.061 2.526 1.782 4.828 3.257 5.788 1.98 1.286 5.022 1.717 7.705.81.591-.2 1.142-.45 1.73-.224 1.872.715 3.398-.278 4.277-1.527 1.751-2.486 4.061-2.603 6.537-2.072 1.668.358 3.458.371 4.486-.652 1.038-1.036 1.541-2.606 3.208-3.016.028-.003.021-.141.028-.215.239-3.068 1.064-6.185-1.077-8.988-.379-.493-.714-.981-1.317-1.137-1.934-.502-3.255-1.813-4.416-3.318-.579-.74-1.242-1.501-2.193-1.349-3.513.563-7.008 1.248-10.505 1.912-.531.098-1.016.404-1.211.922-.353.936-.741.766-1.48.324-1.309-.784-5.131.25-5.548 1.578-.433 1.372-.137 2.934-2.471 2.809-.597-.031-.844 1.793-.783 2.816.048.798.213 1.493-.655 1.922v1.809c.826.431.416 1.202.43 1.808z"/></svg>