<svg xmlns="http://www.w3.org/2000/svg" viewBox="0 0 32 32"><path d="M8.499 27.525c.029.061 0 .148.002.221.094 2.18 1.657 3.952 3.751 4.25 1.2.168 4.401-1.655 4.784-2.817.127.161 1.414-3.763 2.66-7.704l1.115-4.089c.511-1.678.737-3.593 1.375-5.044.555-1.26-.377-3.521 1.882-3.993.103-.023.238-.437.182-.613-.763-2.354-.463-5.025-2.121-7.116-.421-.531-1.141-.977-1.298-.192-.328 1.637-1.993 2.421-2.38 3.533-.996 2.855-3.206 3.881-5.529 4.786-3.011 1.171-4.186 3.117-3.323 6.29.251.918.508 1.832.738 2.666-.112.472-.095.905-.298 1.171-1.974 2.634-3.15 5.388-1.54 8.653z"/></svg>