<svg xmlns="http://www.w3.org/2000/svg" viewBox="0 0 32 32"><path d="M29.218 11.737c-.802-1.275-1.728-.971-2.298.207-1.226 2.524-4.123 3.178-5.752 5.248-.22.282-.811.35-1.238.372-.597.032-1.099.315-1.203.804-.403 1.879-1.583 1.452-3.288.681 1.417 2.112 1.426 1.955 3.088 2.047 1.058.06 1.664-1.117 2.363-.877 3.606 1.242 4.152-1.559 4.986-3.741.365-.969 1.022-1.272 1.607-1.046 2.044.785 3.266-.342 4.529-1.649-.802-.853-2.115-.969-2.794-2.046zM.522 14.06c.403 2.854 2.1 4.659 4.555 5.96.594.315 1.205.46 1.624.166.636-.437.136-1.058-.184-1.503-.706-.995-1.042-2.029-.832-3.278.158-.923-.285-1.648-.997-2.31-1.307-1.226-3.318-.241-4.687-1.541.176.832.403 1.661.522 2.506z"/></svg>