<svg xmlns="http://www.w3.org/2000/svg" viewBox="0 0 32 32"><path d="M22.176 27.02c.08-.036.062-.281.094-.423.78-3.676-.867-7.71-3.993-9.78-1.015-.669-2.175-4.864-1.598-5.951.077-.143.438-.135.699-.18-.241-.816-.373-1.589.81-1.767.479-.071.749-.432.373-.705-1.714-1.245-.858-3.144-1.292-4.706C16.903 2.179 16.33.39 15.065.517c-1.662.167-3.107-.472-4.422-.516.162 2.09 4.325 3.274 1.072 6.092-.062.052.259.473.188.596-1.241 2.117 1.736 5.076-1.351 6.84-.123.07-.061.557-.002.831.149.71-.03 1.448-.428 1.9-1.239 1.407-.229 2.12.807 2.654.399.208.802.352.963.736.654 1.559 1.858 1.77 3.245 1.286 1.13-.396 1.521.185 1.702 1.08.191.951.315 1.937-.303 2.8-1.263 1.756-.379 3.065.78 4.422.631.737 1.755 1.098 1.787 2.364.011.367.968.655.858.097-.423-2.195.159-3.735 2.216-4.679z"/><path d="M17.6 11.086c.056.011.124-.064.187-.1l-.367-.244c-.082.174-.038.302.18.344zm-.177-.343c.011-.026-.003-.039.015-.067-.018.005-.041.005-.062.009a.199.199 0 0 0 .012.039l-.001-.002-.001-.002c.014.007.026.015.038.023h-.001l-.001-.001z"/></svg>