<svg xmlns="http://www.w3.org/2000/svg" viewBox="0 0 32 32"><path d="M28.945 11.661c-1.667-1.035-3.018-2.408-4.611-3.48-2.866-1.93-5.746-3.846-8.508-5.915-1.232-.923-2.492-1.049-3.911-1.062-1.119-.009-1.309.342-1.163 1.435.722 5.45.906 10.966 2.047 16.368.147.699-.005 1.268-.984 1.282-3.189.042-6.372-.093-9.568.287-1.768.21-2.396.686-2.218 2.47.135 1.376 1.618 2.186 1.277 3.736-.126.576.59.396 1.01.387.95-.023 1.904.114 2.832-.228.302-.113.683-.773.951.057.822 2.526 1.709 4.698 5.248 3.427.602-.219 1.612-.008 1.631-.818.05-1.978 2.377-2.638 2.417-4.547.002-.119.365-.368.438-.329 1.385.731 1.484-.857 2.236-1.188 1.729-.764 3.18-2.236 5.315-2.03 2.204.215 4.233-1.034 6.468-.869.722.054 1.082-.665 1.348-1.28.482-1.103.596-2.267.486-3.66 1.288-2.542-1.696-3.394-2.74-4.043z"/></svg>