<svg xmlns="http://www.w3.org/2000/svg" viewBox="0 0 32 32"><path d="M13.373 22.907c2.893 2.754 6.308 4.726 10.293 5.211 2.305.28 4.727 2.328 7.107-.444 1.286-1.496 1.793-4.429.39-5.856-1.038-1.056-2.749-1.038-3.52-2.157-1.649-2.391-4.221-3.278-6.567-4.576-.735-.405-1.368-.905-2.193-.012-.26.279-1.512.894-1.133-.727.211-.908-.814-.626-1.276-.865-.735-.383-1.371.628-2.362.098.427-.393.708-.764 1.079-.969.553-.312 1.145-.525.586-1.299-.475-.657-.803-.15-1.268.085-.63.323-1.267.657-2.103.516-.827-.133-.613.915-1.01 1.35-.334.367.125.629.556.595.644-.047.878.512.752.847-.557 1.501.268 3.113-.331 4.526-.669 1.581.023 2.749 1.001 3.676zM3.919 9.145c2.859 1.317 5.447-.345 8.124-.845 1.199-.226.792-1.067.122-1.608-2.623-2.111-5.642-3.286-8.642-3.799-1.33.296-2.787-.424-3.255.474-.606 1.161-.034 2.78.265 3.973.205.833 2.179 1.251 3.385 1.805zm7.362.465c.026.312.198 1.246.735 1.108.966-.176 1.899-.044 1.941-.818.035-.598-.689-1.044-1.434-1.057-.604-.019-1.305.056-1.242.767z"/></svg>