<svg xmlns="http://www.w3.org/2000/svg" viewBox="0 0 32 32"><path d="M28.63 21.883c-.316-1.367-1.1-2.176-1.958-3.19-.981-1.155-3.445-2.241-1.209-4.633-.939-.046-1.573-.142-2.199-.096-.543.039-1.187 1.09-1.579.03-.29-.799.703-1.24 1.214-1.355 2.069-.476.261-1.164.105-1.685-.072-.251-.534-.509-.846-.537-1.017-.096-.796-.967-.664-1.354.316-.93.911-.273 1.385-.03.997.511 2.933-.57 2.936-1.636 0-.676-.746-1.111-.939-.906-1.297 1.381-3.584.614-4.754 2.493-.818-1.911-2.317-3.075-3.456-4.529-1.587-2.024-4.205-2.42-6.281-3.678-1.933-1.169-4.42-.958-6.507.233-2.166 1.232-2.25 3.627-.519 5.553.845.942 2.664 1.473 2.041 3.248-.509 1.446.113 2.423.688 3.663 1.096 2.36 3.477 3.208 5.199 4.771.834.766 2.838 1.488 4.324-.17-.075 1.164.667 1.86.987 2.732.151.415 1.223.405.613 1.09-.457.515-1.496.684-1.815.258-2.069-2.766-2.951.379-3.995.973-1.635.927.278 2.13.516 3.226.352 1.593 1.481 1.857 2.679.769.467-.418.97-.711 1.584-.475 1.96.752 4.141.257 6.023.949.893.328 3.984-.433 2.335 2.584-.27.499.342 1.043.772 1.449.505.481 1.176.488 1.617.164 1.145-.828 3.569-4.356 2.796-5.826-.687-1.318-.779-2.727-1.091-4.084z"/></svg>