<svg xmlns="http://www.w3.org/2000/svg" viewBox="0 0 32 32"><path d="M28.869 10.92C27.588 7.189 25.305 4.102 23.02.985c-.605-.827-1.23-1.037-2.243-.974-4.093.244-6.615 1.993-7.644 5.984-.642 2.49-1.8 4.303-4.194 5.294-.925.384-1.558 1.084-2.06 1.959-1.749 3.062-2.157 6.439-2.242 9.856-.036 1.482.006 2.802-1.758 3.297-.528.147-.906.411-.729 1.125.303 1.23 3.747 4.283 5.044 4.335 4.141.158 8.266.484 12.343-.839 3.253-1.059 5.776-2.608 6.255-6.299.102-.792.406-1.475 1.119-1.829 2.704-1.342 3.224-3.654 2.837-6.315.474-2.044-.244-3.81-.88-5.658z"/></svg>