<svg xmlns="http://www.w3.org/2000/svg" viewBox="0 0 32 32"><path d="M8.57 15.281c-1.908-.149-3.836-.019-5.755-.039-.814-.01-1.546.355-.937 1.095 1.296 1.563 1.117 3.445 1.635 5.172.492 1.636.518 2.986-.277 4.411-.483.867-.977 1.714-.541 2.649.784.045.606-.772 1.216-.941 2.761-.765 4.945.141 6.984 2.123.696.68 1.875 4.296 3.746.691.045-.088.328-.166.361-.13 1.074 1.261 2.227.068 3.32.064 3.312-.014 6.621-.242 9.931-.333 1.748-.049 2.1-1.123 1.407-2.315-.681-1.165-.768-2.375-.905-3.574-.554-4.831-.967-9.676-1.472-14.509-.346-3.357-.375-3.352 2.911-3.701.062-.007.1-.224.165-.378C27.603 3.765 24.845 1.97 21.82 0c-.157 3.349-.157 3.349-3.137 3.349h-.221c-4.765 0-4.791 0-4.779 4.823.001 1.182-.043 2.168-1.414 2.599-.974.306-1.369 1.108-1.176 2.103.416 2.152-.648 2.551-2.524 2.407z"/></svg>