<svg xmlns="http://www.w3.org/2000/svg" viewBox="0 0 32 32"><path d="M31.575 18.277c-.958-.456-3.275.459-3.556 1.547-.405 1.589-1.612 1.657-2.876 1.87-1.279.221-2.358.017-3.11-1.088-1.2-1.75-2.158-3.568-1.268-5.8.169-.43.553-1.235-.111-1.366-1.96-.379-2.244-2.174-3.169-3.418-.601-.808-1.398-1.392-2.238-.794-1.271.903-1.563.1-2.176-.751-.83-1.159-1.948-2.315-3.525-1.567-1.433.679-2.679.36-4.045.022C4.078 6.58 2.848 5.661 1.32 5.633c-1.277-.022-1.721.459-.912 1.53 1.49 1.963 1.752 4.775 4.217 6.071.226.115.475.457.475.698.012 1.948 1.905 1.865 2.605 3.054l.412-.371c-1.198-2.026-2.4-4.048-3.601-6.074l.157.019.102-.124c3.097 1.763 4.807 4.878 7.144 7.379.189.2.395.584.326.797-.805 2.43 1.302 2.819 2.618 3.575 1.595.91 3.373 1.496 5.057 2.244.693.304 1.525.712 2.138.377 1.823-.996 2.891.163 4.369 1.571-.607-1.88 2.899-1.536.737-3.981 3.205.833 4.012-1.025 4.73-3.043.179-.504.201-.827-.319-1.076z"/></svg>