<svg xmlns="http://www.w3.org/2000/svg" viewBox="0 0 32 32"><path d="M28.846 18.018c-1.674-1.452-3.625-2.441-3.145-5.145.023-.122-.78-.313-1.09-.589-1.172-1.041-2.852-1.708-1.727-3.991.506-1.024.796-3.168-1.86-2.69-.545.097-.841-.503-1.111-.959-.304-.509-.624-1.142-1.303-1.076-2.847.285-4.777-1.636-7.024-2.81C10.614.252 9.651-.249 8.441.135 6.796.657 5.222 1.476 3.324.951c-.65-.182-1.625.404-2.08 1.455 3.03.051 3.997 2.342 4.892 4.387 1.423 3.257 3.687 5.84 6.061 8.336 1.683 1.764 2.778 3.869 2.364 6.109-.521 2.839-1.121 5.554-.825 8.502.103 1.03.188 1.682.937 2.275.631-.864 2.938.481 2.458-1.898-.132-.663.674-.911.963-1.386 1.183-1.926 4.21-3.042 2.704-6.194-.388-.809.483-1.097 1.058-1.411 1.004-.537.879.218.943.804.042.399.294.474.589.227.834-.692 1.74.047 2.46-.095 1.591-.313 3.12 1.535 4.924-.279-2.237-.623-.992-2.959-1.924-3.766z"/></svg>