<svg xmlns="http://www.w3.org/2000/svg" viewBox="0 0 32 32"><path d="M14.677 18.341c.815-.108 1.638-.375 2.44-.315 1.717.123 3.476-.849 3.692-1.975.526-2.74 2.224-4.934 2.855-7.563.326-1.355 2.981-2.471 4.117-1.757.412.26.79.318 1.257.109.572-.257.397-.699.416-1.136.062-1.292-.833-2.425-.588-3.742C29.08.804 28.354.371 27.189 0c.273 1.412-.144 2.056-1.457 2.315-3.537.708-5.664 2.714-6.588 6.412-.449 1.79-1.403 4.311-4.432 3.575-.202-.053-.532.248-.752.444-2.388 2.133-4.723 4.338-7.179 6.396-.969.809-1.504 1.666-1.245 2.865.276 1.27-.283 1.727-1.378 2.262-2.11 1.026-2.095 2.061-.229 3.415 1.393 1.012 2.872 1.946 4.095 3.146 1.579 1.54 2.704 1.649 4.317-.091 1.699-1.834 1.767-2.374-.581-3.258-.497-.188-1.081-.479-.853-1.095.293-.795.798-.26 1.224-.021 1.736.978 3.208.828 4.95-.38 2.364-1.633 2.777-2.415 1.43-5.026-.422 1.512-1.679.994-2.726.998-1.029.007-1.274-.397-.845-1.343.139-.303.021-.803-.509-.77-.72.044-.953-.276-.815-.925.122-.592.63-.518 1.062-.579z"/></svg>