<svg xmlns="http://www.w3.org/2000/svg" viewBox="0 0 32 32"><path d="M27.958 14.787c-.156-.511.135-.777.293-1.102.197-.395.319-.824.477-1.264-1.56-.697-2.877-.733-4.251.182-.622.414-1.625.595-2.363.437-2.305-.493-4.368-2.09-6.943-1.389-.387.105-.562-.572-.829-.901-.851-1.053-2.179-1.134-3.404-1.22-.451-.033-1.038.475-.989 1.044.241 3.084-2.343 1.71-2.894 1.334-2.003-1.373-3.595-.681-5.321.299-2.326 1.326-2.329 1.304.088 2.847.299.193.769.546.736.765-.405 2.807 1.856 2.624 3.469 3.216.537.196 1.25.514 1.433.959.572 1.407 1.686 1.469 2.899 1.501 1.621.046 3.17.355 4.77.772 2.665.692 5.272-.348 7.752-1.396.528-.226 1.232-.492.941-1.474-.243-.833.398-.739.944-.592.613.168 1.1-.164 1.657-.348 1.879-.612 3.214-2.568 5.582-1.806-.735-2.715-2.704-1.589-4.046-1.865z"/></svg>