<svg xmlns="http://www.w3.org/2000/svg" viewBox="0 0 32 32"><path d="M27.219 15.144c1.246.331 1.799-.77 2.749-.976.566-.118 1.164-.22 1.19-1.054.021-.732-.388-1.146-.947-1.353-2.622-.959-4.726-2.903-7.594-3.531-1.883-.412-3.593-1.678-5.159-3.187C15.44 3.095 13.9.163 10.444.127 9.947.119 9.421-.243 9.036.29c-.438.601.012 1.113.273 1.634.44.879 1.359 1.645.637 2.907-.849-.378-1.399-1.787-2.587-1.027-1.305.835-2.8 1.621-3.217 3.237-.394 1.542-.314 3.209-2.616 3.261-.597.014-.672.939-.565 1.524.266 1.427.066 2.992 1.134 4.211.689.787.527 1.521-.292 2.045-1.796 1.155-.639 2.661.217 2.925 1.975.612 3.09 2.279 4.812 3.17 2.092 1.086 3.928 2.773 5.064 4.863.813 1.497 1.885 2.305 3.415 2.96.317-1.553.778-3.28.097-4.259-1.386-1.985-.198-3.237.767-4.465 1.553-1.983 2.776-4.271 4.762-5.994.853 1.063-.224 2.708 1.216 3.073 1.607.409 3.072-.465 4.347-1.32 1.039-.699.701-1.811.189-2.784-.325-.627-.388-1.352.529-1.109z"/></svg>