<svg xmlns="http://www.w3.org/2000/svg" viewBox="0 0 32 32"><path d="M5.183 21.964c4.236.198 4.616 4.117 7.054 5.978 2.154 1.648 3.624 3.595 6.974 3.995 3.993.477 5.402-1.56 7.247-3.922.585-.752.397-1.422-.045-2.02-.664-.901-1.122-1.681-.282-2.776.36-.47.092-1.225-.334-1.661-1.162-1.175-.749-2.291-.258-3.646.568-1.553.342-3.789-1.019-4.309-3.218-1.23-2.9-4.491-4.536-6.558a4.058 4.058 0 0 1-.826-2.203l-.001-.012-.001-.012c-.163-3.722-.143-3.659-3.287-4.646-1.42-.445-2.188-.05-2.272 1.346-.15 2.429-1.063 4.52-2.264 6.603-1.451 2.503-1.508 5.732-3.996 7.741-.323.258.007.809.107 1.246.426 1.824-.013 3.389-2.259 4.854z"/></svg>