<svg xmlns="http://www.w3.org/2000/svg" viewBox="0 0 32 32"><path d="M11.825 28.397c.373-.901-.696-2.342.56-3.308 1.989-1.54 4.212-2.679 6.666-3.192 2.32-.489 3.539-2.745 5.759-3.327.109-.031.23-.215.255-.346.538-2.88 2.778-2.901 4.993-3.007.619-.031 1.445.364 1.8-.418.319-.706.118-1.477-.355-2.109-.44-.582-.878-1.048-.787-1.94.394-3.774-.853-5.459-5.608-5.283-1.454.054-2.729.052-3.852-1.161-1.077-1.161-2.109-.798-2.765.635-.399.876-.915 1.704-1.243 2.604-.697 1.923-2.024 2.982-3.996 3.467-2.297.563-5.609 5.357-4.89 7.572C9.266 21.37 7.71 22.693 6 24.18c-1.757 1.53-3.505 3.05-5.999 3.439l.205.777 11.62.001z"/></svg>