<svg xmlns="http://www.w3.org/2000/svg" viewBox="0 0 32 32"><path d="M12.934 6.989c-2.39-.974-4.074.437-6.043.937-.648.166-.821.507-.738 1.126.084.602.085 1.364.793 1.447 3.505.405 4.664 1.74 3.966 5.651-.414 2.321-.951 4.175-2.364 5.897-.284.348-.704.619-.537 1.133.85 2.61 1.646 5.219 1.36 8.027-.043.406.175.917.808.782.415-.088 1.097-.14.884-.724-.94-2.572 1.241-2.644 2.601-3.191 1.597-.639 2.317-1.57 2.303-3.339-.014-1.591-.076-3.196-.809-4.545-.761-1.404-.473-2.484.616-3.222 2.169-1.466 3.532-3.929 6.386-4.612 2.317-.554 4.051-3.273 3.664-5.211-.37-1.853-.318-3.707-.338-5.557-.015-1.454-.137-2.034-1.807-1.214-1.901.934-4.02 1.824-6.128 1.599-3.346-.357-3.643-.202-2.639 3.03.131.424.114 1.004.395 1.256 2.187 1.961 1.261 3.602-.51 5.263-.535-.873-1.293-1.545-.707-2.806.409-.881-.005-1.258-1.155-1.726z"/></svg>