<svg xmlns="http://www.w3.org/2000/svg" viewBox="0 0 32 32"><path d="M18.738 5.489C20.077 3.86 20.01 1.89 18.314.443c-1.71-1.459-1.363 1.151-2.301 1.327-.211.042-.403.177-.609.257-1.528.576-2.456 1.641-2.826 3.253-.567 2.492-2.719 4.076-3.703 6.402-.717 1.701-.729 2.703.704 3.846 1.766 1.411 2.781 3.211 2.324 5.612-.087.462-.936 1.161.193 1.46.729.193 1.435 1.05 2.268.035.366-.444 1.11-.563 1.518-.99.689-.71 1.107-.48 1.221.31.477 3.362 2.981 6.299 1.948 10.047 2.143-1.408 2.295-3.98.52-6.421-.337-.463-1.121-.809-.641-1.53 1.098-1.648.356-2.855-.672-4.209-1.148-1.519-.508-2.944 1.178-3.796 1.596-.805 3.324-1.548 4.168-3.581-1.375.083-2.691-.621-2.963-1.534-.409-1.396-.612-2.924-2.571-3.101-.367-.032-.555-.538-.316-1.107.233-.534.651-.83.985-1.233z"/></svg>