<svg xmlns="http://www.w3.org/2000/svg" viewBox="0 0 32 32"><path d="M6.08 13.663c.386.597.693 1.333.578 2.111-.494 3.324 1.089 6.385 1.21 9.627.071 1.998 1.198 3.446 2.416 4.866.603.698 1.131 1.217 1.891.128.582-.825 1.044-.53 1.424.279.908 1.937 2.705 1.259 4.067 1.044 1.356-.216 2.036-1.321 1.989-2.961-.129-4.602-.017-9.209-.064-13.815-.016-1.122.134-1.899 1.483-1.864.986.025 1.21-.578 1.195-1.458-.039-2.079.041-4.162-.036-6.238-.039-1.096.46-1.301 1.379-1.773 2.3-1.175 4.869.472 7.056-.96.444-.289 1.442-.042 1.334-.796-.129-.881-1.061-.595-1.67-.527-3.359.375-6.648 1.102-10.105.725-1.724-.189-3.407-.659-5.104-.728C10.76 1.146 6.357 1.59 2.112.054 1.315-.173.802.424.364.84c-.822.778-.055 1.613.34 2.145 2.424 3.248 3.192 7.316 5.376 10.679z"/></svg>