<svg xmlns="http://www.w3.org/2000/svg" viewBox="0 0 32 32"><path d="M31.116 18.168c-2.347 1.195-4.299-.705-6.541-.718-2.656-.02-4.984-2.012-7.388-3.291-.798-.419-.709-1.762-1.51-1.774-2.795-.03-4.376-2.29-6.562-3.407-1.229-.631-2.241-2.557-3.665-1.147-1.099 1.097-2.751.139-3.607 1.645-.596 1.047-.812 2.232-1.417 3.204-.994 1.604-.1 2.225 1.16 2.548 1.253.319 2.17 1.104 3.232 1.712 2.811 1.609 5.571 3.382 9.04 3.388 1.133 0 2.525-.624 3.432.352 1.32 1.416 2.808 1.964 4.679 2.54 2.551.792 5.101.976 7.21 1.468 2.981-.149 3.071-.29 2.448-2.862-.218-.892-.073-1.743.286-2.593.319-.743-.167-1.385-.796-1.065z"/></svg>