<svg xmlns="http://www.w3.org/2000/svg" viewBox="0 0 32 32"><path d="M31.695 2.807C30.059 2.301 29.007.6 26.917.943c-3.784.622-7.859.121-10.537 3.895-.677.951-1.995 1.754-3.223 1.763-1.612.008-2.078.91-2.254 2.117-.526 3.607-2.206 6.497-5.01 8.813-.511.422-.66 1.281-.975 1.935l-.312.351c-.503.203-1.346-.24-1.504.539-.149.734 1.162.095 1.132.731-.68 1.159-4.076-1.29-2.632 2.298-.188.074-.371.169-.567.22-.567.145-1.303.169-.939 1.076.27.666.696 1.121 1.541.749a1.654 1.654 0 0 1 1.509.079l-.008-.004c1.371.764 2.468.232 3.67-.536 1.352-.872 2.81-1.971 4.496-1.582 1.002.229 2.384-.185 2.92.533.892 1.198 1.87 1.332 3.196 1.453 2.363.211 3.081 1.57 2.102 3.47-.301.589-.844 1.162-.072 1.737.77.571 1.808.752 2.485.226.497-.387.988-1.424.185-2.141-.699-.627-.642-.827.148-1.364 1.332-.912 1.685-4.425.844-5.81-.419-.686-1.547-1.287-.871-2.233.57-.791 1.507-.387 2.412-.286 1.49.163 3.854.09 3.922-1.457.057-1.344.541-1.608 1.279-2.141s.934-1.34.866-2.167c-.077-.916-.785-1.144-1.591-1.169-.518-.02-1.145-.012-1.107-.749.038-.785.505-1.165 1.335-1.1.573.047 1.237.143 1.416-.66.362-1.636 1.475-3.096 1.18-4.886-.107-.633.348-1.65-.259-1.835z"/></svg>