<svg xmlns="http://www.w3.org/2000/svg" viewBox="0 0 32 32"><path d="M31.69.542c-.55-.35-1.374-.295-1.925.117-1.987 1.486-4.485 1.397-6.666 2.275-.672.271-1.342.238-1.876-.292-1.151-1.145-1.923-.659-2.653.504-1.029 1.639-2.045 3.274-3.722 4.406-1.01.679-1.827 1.71-2.999.248-.483-.6-1.036-.148-1.304.256-.725 1.093-1.566 1.665-2.957 1.371-.937-.198-1.298.373-1.278 1.328.058 2.689-1.413 4.153-4.004 4.66-.926.183-1.439-1.361-2.307-.285v1.351c2.67 1.078 4.806 3.099 6.357 5.243 1.983 2.741 4.866 4.41 6.894 6.995.154.195.541.393.745.33 2.813-.815 5.275 1.719 8.213.705 1.515-.518 2.463 1.651 4.04 1.899.891.143 1.681.034 2.266-.606.742-.816-.321-1.103-.611-1.607-.344-.597-.65-1.206-.554-1.902.218-1.591 2.226-2.98.53-4.799-.04-.041.078-.274.158-.391 1.732-2.435 1.808-5.216 1.563-8.021-.14-1.588-.078-3.133.44-4.634.836-2.42 2.81-4.631 1.31-7.462-.024-.043.058-.136.07-.209.082-.507 1.104-.949.27-1.48z"/></svg>