<svg xmlns="http://www.w3.org/2000/svg" viewBox="0 0 32 32"><path d="M30.259 4.961c-.648-1.272-1.506-2.053-2.898-.91-1.113.917-2.206 1.061-3.607.531-1.561-.589-3.325-.492-4.599.645-1.002.901-1.88.777-2.801.306-1.402-.718-2.738-1.395-4.294-.439-.461.283-.783.001-1.149-.3-2.198-1.813-4.678-2.221-6.369-1.083-1.454.978-2.729 5.039-1.942 6.84.526 1.206.18 2.391-.401 3.067-1.9 2.205-2.691 4.56-1.871 7.411-1.008 2.375.484 2.42 2.127 2.208 2.176-.276 3.473.858 4.421 2.606 1.864 3.444 1.871 3.494 5.484 2.572.592-.15 1.144-.123 1.708-.185 1.255-.136 2.255-.796 2.388-1.945.206-1.763 1.376-2.758 2.517-3.727.91-.77 2.164-1.532 3.165.016.709 1.102 1.138.485 1.581-.17 1.314-1.956 1.887-4.284 3.423-6.177 1.611-1.985 1.441-5.152 4.277-6.467.65-.3.793-1.725.25-2.185-.885-.748-.965-1.738-1.409-2.615z"/></svg>