<svg xmlns="http://www.w3.org/2000/svg" viewBox="0 0 32 32"><path d="M4.01 27.78c1.466.965 3.355.814 4.212-.785 1.324-2.467 3.451-2.915 5.624-1.129.298.249.579.54.93.369 1.223-.595 2.27.314 3.328.33 2.719.039 5.365-1.355 8.175-.61 1.699-3.131 4.446-5.818 5.226-9.274.877-3.903.721-8.015-1.208-11.983-.336-.167-.829.953-1.531.277-2.395-2.312-4.584-1.234-6.922.264-3.487 2.233-6.67 5.09-10.312 6.831-2.612 1.247-3.364 2.405-3.048 4.888.035.29.023.598-.032.885-.329 1.928-.849 3.555-3.386 3.471-1.279-.041-2.575.396-3.855.679-1.711.38-1.269 1.145-.719 1.959.978 1.433 1.978 2.812 3.519 3.826z"/></svg>