<svg xmlns="http://www.w3.org/2000/svg" viewBox="0 0 32 32"><path d="M.438 26.261c.439 2.551 2.494 3.367 4.62 1.884.902-.625 1.698-1.779 3.06-.966.286.17.411.02.442-.169.289-1.704 1.737-3.046.92-5.162-.521-1.345-1.57-3.832 1.633-4.143.172-.02.48-.275.464-.376-.379-2.303 1.743-3.577 2.247-5.347.983-3.455 4.787-2.349 6.339-4.622.325-.476.695.217 1.023.435 1.737 1.145 3.785.659 4.724-1.111.649-1.219 3.219-1.627 3.495-.473.462 1.94 1.127.542 1.735.402.283-.062.558-.163.868-.26-.018-.941-1.102-.444-1.035-.959.194-1.464.238-1.403-1.171-1.944-1.613-.622-3.296-.152-4.903-.191-1.37-.032-3.206-.074-4.374 1.472-.378.501-1.41.725-2.131.704-1.221-.042-3.132.755-3.594 1.774-.301.662-.43.771-.862.262-.957-1.121-1.215.575-1.898.379.029.506-.837.959-.206 1.46.888.706.342 1.428-.116 1.777-1.296.983-1.743 2.525-2.727 3.68-1.227 1.442-2.432 2.832-4.24 3.765C2.01 19.944-1.051 21.477.353 25.61c.068.199.047.433.084.65z"/></svg>