<svg xmlns="http://www.w3.org/2000/svg" viewBox="0 0 32 32"><path d="M25.524 17.634c.54.023.98-.213.899-.953-.116-1.102.651-1.776 1.413-2.334 1.182-.871 1.715-2.156 2.411-3.353 1.285-2.203-1.429-1.835-1.971-2.949-.75-1.523-1.767-3.168-3.984-3.274-2.803-.137-5.02-1.445-6.153-4.105-.418-.983-.862-.48-1.346-.334-2.13-1.093-1.15.825-1.445 1.459-.26.572.709 1.118.107 1.726-2.405 2.425-2.803 4.258-1.296 7.091.478.892.359 1.635.119 2.464-1.726 6.037-1.726 6.041-7.781 8.152-1.308.457-2.633.876-3.962 1.292-.992.309-1.456.663-.828 1.838 1.173 2.217 2.171 4.528 3.202 6.814.192.423.414.937.862.827 2.405-.599 4.778-1.323 7.272-1.518.114-.009.295-.252.313-.396.208-2.375 1.923-2.766 3.82-2.93.827-.069 1.221-.615 1.349-1.362.268-1.582 1.41-2.187 2.787-2.267 1.331-.084 1.683-.389 1.554-1.881-.151-1.781-.448-4.146 2.658-4.009z"/></svg>