<svg xmlns="http://www.w3.org/2000/svg" viewBox="0 0 32 32"><path d="M2.267 20.494c.72.238 1.538.501 1.319 1.451-.209.92.932 1.191.811 1.781-.167.816-1.309.37-1.814.949-.277.319-.721.434-.875.935-.171.57-.562 1.144-.277 1.699.345.676 1.08.374 1.591.248 1.958-.483 3.992.105 5.902-.386 2.014-.518 2.943.567 3.554 2.077.496 1.226 1.504 1.53 2.249.933 1.164-.929 2.381-.67 3.563-.668 2.099.004 2.128-.893 1.344-2.422-.463-.904-1.551-1.398-1.567-2.654-.003-.292-1.383-.535-.557-1.332.56-.537.705-2.139 2.239-1.062.296.208 1.559.051 2.155-.727 1.302-1.699 2.476-3.577 4.072-4.955 1.39-1.206.67-3.432 2.725-4.084-1.871-1.101-3.305-3.265-2.753-4.647.624-1.564 2.042-.081 3.072-.328.717-.174 1.45-.313 2.141-.56.453-.163.965-.37.833-1.086-.176-.948-3.554-4.351-4.47-4.108-1.665.441-3.453-.142-4.988.668-.803.421-2.197.476-2.01 1.905.306 2.338-.094 3.133-2.334 4.107-.322.138-.402.338-.329.67.392 1.791-2.007 2.44-1.741 4.246.049.341-.646-.02-.927.054-1.623.435-3.95.717-4.313 2.202-.55 2.264-1.753 2.293-3.512 2.606-2.563.451-4.955.17-7.369-.565v.447c1.094.57.996 2.183 2.267 2.605z"/></svg>