<svg xmlns="http://www.w3.org/2000/svg" viewBox="0 0 32 32"><path d="M24.3 2.491c.434.989.503 2.421-.519 2.545-3.656.43-4.128 3.738-5.745 5.947-.716.985-1.28 2.412.275 3.471.803.547.779 1.466.482 2.217-.436 1.111-1.208.634-2.005.282-.699-.314-.941.228-.941.864-1.106 1.653-1.914 3.721-5.018 3.053l1.976 2.501c-.328 1.523-1.89 2.148-2.402 3.367 3.228 1.436 3.697-.419 3.447-3.092-.009-.08.057-.169.085-.254l3.836-3.684c1.905-.113 3.189-1.649 4.916-2.193.232-.07.503-.59.46-.861-.449-3.033 1.944-5.35 2.018-8.261.078-2.831.976-5.717-.636-8.394-1.428.711-.621 1.614-.228 2.491zM6.595 32.002c1.983-1.315 1.983-1.315 2.054-4.482-2.245 3.322-2.245 3.322-2.054 4.482z"/></svg>