<svg xmlns="http://www.w3.org/2000/svg" viewBox="0 0 32 32"><path d="M30.404 3.69c-1.722-.933-2.892-2.643-4.685-3.255-4.037-1.382-6.427.637-7.306 4.39-.547 2.329-1.318 4.58-.741 7.111.322 1.408.616 3.046-.219 4.563-.363.66.308 1.009.84.776 1.758-.764 2.953.263 4.489 1.273-2.833 1.365-5.336 2.689-6.348 5.767-1.494 4.544-1.478 4.865 3.276 3.87 4.182-.873 9.175-1.262 9.676-7.309.044-.542.484-1.066.785-1.577.355-.596.499-1.204.363-1.901-.605-3.163-.611-6.318.128-9.474.341-1.466.439-3.857-.257-4.235zM6.166 23.571c-1.249 1.353-2.35 2.898-3.796 3.987-1.835 1.385-1.471 2.692-.367 4.45 2.586-2.077 3.124-5.649 5.815-7.519.569-.396-.106-.908-.445-1.25-.573-.58-.869-.03-1.207.332z"/></svg>