<svg xmlns="http://www.w3.org/2000/svg" viewBox="0 0 32 32"><path d="M21.319 9.472c-1.395-.261-2.43-.224-3.719.675-1.929 1.342-4.173 2.264-6.357 3.191-1.349.572-2.79.681-3.847-.771-.205-.282-.611-.608-.913-.599-1.842.056-1.958.146-2.762-1.519-.624-1.292-1.786-1.24-2.622-1.019-1.158.307-.982 1.6-.767 2.525.286 1.231.388 2.626-.246 4.029-.274.611.183.801.345 1.159.192.425.283.058.513-.035 2.348-.957 5.472.003 6.921 2.042 1.068 1.503 1.873 1.512 2.814.029.254.703.652 1.388.73 2.109.17 1.573 1.196 1.516 2.255 1.283 2.946-.646 3.359-1.727 1.438-4.013-1.015-1.211-.799-1.655.644-2.116.933-.296 1.885-.773 2.423-1.823 1.121-2.177 2.423-2.342 4.573-1.373 1.455.653 1.87 2.278 3.29 2.818.09.112.187.217.289.317-1.498 2.756.45 4.365 2.053 6.264.58-1.122 1.172-1.818 2.445-2.255 1.879-.646 1.336-4.95-.338-6.794-2.507-2.768-5.757-3.489-9.161-4.126z"/></svg>