<svg xmlns="http://www.w3.org/2000/svg" viewBox="0 0 32 32"><path d="M20.158 23.478c-2.503-1.493-4.434-3.657-6.479-5.682-.527-.527-1.131-1.239.328-1.427 1.455-.191.808-1.341.296-1.408-3.035-.387-3.975-3.546-6.4-4.621C5.436 9.245 2.873 8.348.009 7.224c0 3.871-.023 7.412.007 10.954.026 3.39.051 3.365 3.266 3.616.922.071 1.726-.214 2.042-.97 1.18-2.774 4.299-3.486 5.78-.896 1.992 3.495 5.368 3.793 8.532 4.778.357.111.936.21 1.075-.424.092-.425-.191-.588-.552-.804zm11.367-8.216c-.702-.526-1.082-1.427-2.119-1.782-.565 1.434.767 1.921 1.105 2.831.165.446.791.511 1.171.229.597-.434.287-.942-.157-1.277zm-6.71-5.341c-.131-.108-.316-.347-.383-.316-.396.173-.089.386.015.582.17.36.622.766-.157.974-.744-.176-1.548-1.005-1.838.681-.127.744-1.143 2.063-2.251 1.618-1.651-.661-2.904.68-4.414.208 2.621 3.108 6.969 1.606 8.532-1.487.466-.475 1.513.444 1.695-.703.144-.931-.616-1.178-1.198-1.558zm-.962-.568c.382-.556-.329-.712-.805-.797-.189-.344-.552-.644-.823-.354-.414.446.265.467.433.698.392.227.869.933 1.196.453z"/></svg>