<svg xmlns="http://www.w3.org/2000/svg" viewBox="0 0 32 32"><path d="M28.774 18.021c-1.198.318-1.583.075-1.734-1.069-.103-.796-.389-1.566-.572-2.353-.815-3.525-.936-3.56-4.663-3.246-1.154.101-2.455.007-3.414-.654-.867-.602.014-1.615.007-2.447-.019-2.18-.418-4.389-1.588-6.056C15.032-.348 6.456-.724 3.964 1.293c-.055.049-.095.114-.142.172C1.577 4.233 1.854 7.848.658 10.977c-.552 1.442 1.384 1.435 1.787 2.475 1.12 2.881 3.732 4.164 6.381 4.996 3.321 1.037 5.903 3.538 9.302 4.362.511.121 1.559.871.706 1.648-1.719 1.559-1.702 4.002-3.138 5.659-.688.789-.377 1.003.491 1.276 1.013.315 2.218-.352 3.073.623h7.106c.211-1.092.907-1.787 1.862-2.264 1.164-.574 1.724-1.567 1.946-2.785.4-2.173.823-4.344 1.162-6.521.384-2.47-.169-3.054-2.564-2.421z"/></svg>