<svg xmlns="http://www.w3.org/2000/svg" viewBox="0 0 32 32"><path d="M25.234 18.983c-2.524.27-1.123-1.728-1.732-2.497-.994.193-1.823 1.613-3.011.018-.918-1.233-2.539-2.221-2.183-3.884.781-3.657 2.515-4.954 6.288-5.274.167-.651-1.192-.694-.579-1.581 1.152-1.652-.283-2.076-1.269-1.848-2.738.639-4.075-1.159-5.613-2.744C16.781.804 16.422.394 15.98.17c-.466-.238-.99-.362-.862.586.271 2.028-.959 3.068-2.643 3.773-1.076.454-2.308.755-2.564 2.165-.329 1.808-1.165 1.447-2.475.862-1.07-.481.452-1.444-.788-1.692-1.018.764-1.675 1.416-1.385 3.28.292 1.901 1.826 2.23 2.592 3.418 2.151 3.335 4.054 6.896 5.491 10.482 1.229 3.068 3.246 4.386 5.753 5.622 1.651.808 3.148 1.753 4.155 3.335h1.783c.365-2.071 1.633-3.878 1.135-6.29-.176-.85.098-2.578.573-3.896.357-1.001-.787-2.91-1.509-2.836z"/></svg>