<svg xmlns="http://www.w3.org/2000/svg" viewBox="0 0 32 32"><path d="M25.752 28.328c.632.431.469 1.202.768 1.791 1.887-3.575 1.265-6.805-2.135-8.525 1.115 1.627.413 1.858-.757 2.138-.775.187-1.375 1.086-2.071 1.642-.032.028-.216-.182-.346-.24-1.711-.78-4.34.486-4.756 2.334-.072.321-.665.826.081 1.067.402.13.618-.159.797-.56.832-1.867 2.623.043 3.747-.882.073-.061.592.402.428.859-.748 2.121.353 3.08 2.239 3.458.465.095.67.974 1.306.414.595-.526.609-1.228.314-1.847-.343-.722-.537-1.291.385-1.648zM11.151 5.558c-.021-.008-.206.359-.191.537.222 2.269 1.434 4.055 2.828 5.757-.064.98-1.031.153-1.34.719.317.606.598 1.294 1.009 1.887.338.485.431 1.551 1.28 1.19.836-.352.821-1.321.648-2.149-.11-.526-1.174-.876-.263-1.575l.384-.275c1.389 1.069 3.448.788 4.655 2.306.095.118.679 1.142 1.35.277.564-.728-.414-.778-.451-1.226.219-.159.436-.313.648-.471h.002a.704.704 0 0 0 .227-.311l.002-.005.002-.005.125-.167c-.034-.008-.066-.024-.098-.034a.487.487 0 0 0-.068-.195l.001.002.001.002a.835.835 0 0 0-.158-.185l-.001-.001-.001-.001c-.119-.096-.463-.089-.573.012-.026.023-.034.047-.057.069-.651-.263-1.295-.572-1.95-.803-.028-.012-.054-.018-.078-.026a4.254 4.254 0 0 0-.529-.159l-.033-.007-.036-.007a4.649 4.649 0 0 0-.941-.128h-.06c-.17 0-.337.012-.5.035l.019-.002c-.078.006-.154.011-.234.026a3.715 3.715 0 0 0-.831.249l.024-.009.024-.009C15.62 8.888 14.53 6.822 17.1 5.322c.471-.271 1.084-1.442.459-2.217-.777-.962-.431-1.944-.257-3.071-.558.081-.974.231-1.364.176-3.419-.457-3.321-.46-3.638 3.217-.04.491 1.54 2.759-1.148 2.132zm11.226 11.906c-.329-.092-.205.453-.251.719a.476.476 0 0 0-.369.038l.002-.001.003-.001c-.739.355-1.921 1.57-2.204.355-.456-1.953-2.188-1.239-3.066-2.413l-.211 3.664c.752.506 1.447-.904 2.02.087.188.323.078.778-.376 1.133-1.647 1.295.226 1.777.749 2.257 1.021.93 1.057-.378 1.41-.896.245-.359.477-.733.714-1.096.755-.292 1.742.878 2.347-.367.962.228 1.707-.234 1.242-1.101-1.054-1.957 1.046-.855 1.269-1.454-.254-.784-.645-1.442-.517-2.358.107-.778-.573-1.344-1.425-1.337-.546.006-1.32-.353-1.598.359-.263.676.466.98.867 1.392 1.031 1.052 1.021 1.471-.607 1.021zM8.438 21.017c-1.04 1.45-2.896 2.175-3.999 4.384 2.171-1.15 3.699-2.084 4.312-4.002 1.905-.529 2.633-1.586 1.523-3.537-.673 1.046-.763 2.402-1.837 3.155z"/></svg>