<svg xmlns="http://www.w3.org/2000/svg" viewBox="0 0 32 32"><path d="M2.546 20.474c-.097.078-.193.158-.291.233l.546.046c1.554.676 3.601.388 4.472 2.426.172.402.756 1.359 1.327.764 1.3-1.364 1.948-.254 3.061.274 1.449.691 2.974 1.079 3.848 2.584.151.256.516.464.753.196.903-1.02 1.353-.201 1.834.422.368.475.667.482 1.3.324 2.125-.552 4.287-1.54 6.415.257.501.423 1.428.848 2.394.376-.801-1.39-.496-2.592.796-3.444 2.773-1.817 4.208-3.907 1.726-7.003-.629-.782.767-1.881-.183-2.475-1.619-1.009-.808-1.463.26-2.026.317-.167.679-.396.837-.689.543-1.036-1.871-6.82-2.972-7.217-.201-.069-.426-.163-.626-.134-3.928.54-7.869-.75-11.8.069-.697.148-1.799-.193-1.656-.682.493-1.685-.759-1.237-1.428-1.317-1.278-.146-2.533.151-3.688.709-2.53 1.227-5.05 2.499-7.857 2.937C.345 7.302.469 8.439.527 8.968c.12 1.05.539 1.994-.438 2.867-.251.228.073.519.253.744 1.846 2.321 1.53 5.248 2.202 7.893z"/></svg>