<svg xmlns="http://www.w3.org/2000/svg" viewBox="0 0 32 32"><path d="M9.967 23.108c.964.357.836 1.128.833 1.959-.008 2.277.276 4.558-.949 6.855 2.462-.514 2.726-.511 4.938-.029 2.287.494 3.47-.533 3.292-2.792-.107-1.378.611-2.483 1.663-3.171.878-.566 1.413-.682.23-1.565-1.218-.916-1.569-2.096-.139-3.313.587-.495 1.303-1.342.301-2.015-1.229-.825-1.197-2.275-2.254-3.439 1.467.137 3.108.184 3.036-1.251-.099-1.92 1.313-3.671.596-5.466-.639-1.595.217-2.248 1.154-3.104 1.001-.91 3.447-1.224.562-3.385-1.328-.994-2.73-1.676-3.516-1.119-1.623 1.143-3.236-.301-4.691.533-.218.122-.628.002-.566-.41C14.698-.26 13.82-.188 12.76.319c-1.105.527-2.683.614-2.046 2.668 1.581 5.091.473 9.797-2.431 14.14-1.613 2.418-.897 5.021 1.685 5.98z"/></svg>