<svg xmlns="http://www.w3.org/2000/svg" viewBox="0 0 32 32"><path d="M31.143 12.049c-2.332-.067-4.319-1.393-6.623-1.469-7.056-.234-14.121.332-21.176-.22-1.002-.077-1.424.482-2.151 1.293-1.695 1.896-1.531 3.118.159 4.66.186.165-.107.826-.121 1.261-.027.823-.63 1.585-.193 2.538-1.094 2.222.787 1.406 1.646 1.384.781-.021 1.589-.807 2.36-.29 1.296.878 2.453.231 3.596-.183.564-.204 1.058-.384 1.685-.412 4.767-.214 9.536 1.076 14.331-.244 1.673-.463 3.06-1 3.698-2.549.496-1.192 1.301-1.79 2.38-2.228.515-.21 1.546-.454 1.209-.926-.634-.883-.262-2.6-.801-2.613z"/></svg>