<svg xmlns="http://www.w3.org/2000/svg" viewBox="0 0 32 32"><path d="M4.51 31.069c.336 1.133.989 1.23 1.875.329.984-1.005 2.093-1.647 3.369-.286.536.571 1.322.621 1.742-.063.618-.996 1.674-.844 2.513-1.275.296.663-.251 1.643.638 1.969.996.362 1.39-.586 1.973-1.135.758-.71 1.495-1.495 2.389-1.99 1.355-.749 1.935-1.906 1.894-3.292-.055-2.049.115-3.858 1.631-5.517.783-.854 1.278-1.89 2.411-2.491 1.038-.551 1.587-1.433 1.833-2.81.726-4.115.444-8.493 2.843-12.22.515-.799.225-1.548-.152-2.287h-4.936c-.567.974-2.272-.183-2.414 1.014-.26 2.144-1.622 3.88-1.874 5.871-2.976-.86-5.964-1.62-9.13-1.39-1.898.137-1.479 1.491-1.417 2.646.085 1.577 1.063.777 1.725.581 1.024-.301 1.779-.365 2.399.815.613 1.158 0 1.479-.736 2.122-.904.79-1.605 1.909-.432 3.04 1.546 1.492 2.196 4.14 1.087 5.966-.204.333.159 3.438-1.837.994-.048-.057-.302-.031-.38.044-1.668 1.545-2.404.241-3.262-.984-.409-.577-1.199-.705-1.253.212-.085 1.418-.714 1.509-1.89 1.327-1.535-.237-1.75.837-1.317 1.906.18.438.295.952.583 1.384.556.828.752 1.456-.72 1.065-.596-.158-1.095.386-1.425.901-.405.625.212.905.48 1.32.53.797 1.487 1.202 1.789 2.236z"/></svg>