<svg xmlns="http://www.w3.org/2000/svg" viewBox="0 0 32 32"><path d="M3.589 19.745c.717.536 1.301 2.266 2.439 2.105 1.44-.207 1.626.741 2.108 1.425.757 1.079 1.49 1.811 3.008 1.814 1.905.005 3.802.471 5.709.681.726.076 1.477.1 2.105-.463 2.286-2.053 4.725-1.54 7.16-.349 1.309.642 2.365 1.109 2.427-1.103.038-1.442.862-2.306 2.341-2.755 1.038-.31 1.227-1.082 1.07-1.908-.171-.921-.896-.971-1.729-.794-3.286.687-4.025-.095-3.28-3.474.269-1.218.251-2.428-.629-3.347-1.241-1.301-2.201-2.767-3.097-4.308-.728-1.253-1.619-1.415-2.902-.478-1.451 1.048-3.321 1.722-5.007 1.259-4.575-1.263-8.14-1.245-10.52 3.436-1.011 1.982-2.118 3.798-4.79 4.041 1.599 1.167 2.047 3.056 3.59 4.218z"/></svg>