<svg xmlns="http://www.w3.org/2000/svg" viewBox="0 0 32 32"><path d="M1.482 14.397c-1.055-.545-1.798-.181-1.348 1.238.11.344.189.741.129 1.083-.408 2.351 1.219 4.993 3.531 5.674.666-2.779 3.399-3.871 6.189-2.597 2.549 1.16 5.319.681 7.936.497 1.738-.123 2.534 0 2.624 1.882 1.974-1.043 1.95-1.038 1.492-3.255-.098-.492.353-.857.787-.985 1.723-.52 2.904-.184 2.733 2.318 1.367-2.658 3.651-3.445 5.988-4.157.175-.051.402-.242.439-.41.121-.531-.364-.526-.676-.684-2.741-1.408-5.987-.649-8.728-2.045.003.011.017.026.011.035-.021.06-.069.136-.118.152-2.775.675-4.985-.508-7.071-2.126-.574-.445-1.137-.905-1.75-1.288-.333-.207-.804-.149-.995.21-.242.449.224.61.52.813.284.192.752.117.868.66l-8.524 3.25c.161-1.563 1.233-2.391 3.233-3.151-3.687.406-4.27.972-3.868 3.12-1.138.069-2.232.373-3.402-.235z"/><path d="M22.541 12.94c.011.008.026.008.034.015a.578.578 0 0 0-.036-.111l.002.004.002.004c0 .029-.014.08-.002.087z"/></svg>