<svg xmlns="http://www.w3.org/2000/svg" viewBox="0 0 32 32"><path d="M30.999 12.898c.217-2.23-.2-4.292-2.23-5.639-1.655-1.098-2.993-2.431-3.135-4.493-.062-.906-.537-.717-1.002-.708-.993.019-1.536.701-2.139 1.396-1.35 1.551-2.483 3.333-4.353 4.377-1.009.568-1.998 1.232-2.414-.624-.114-.533-.52-.75-1.179-.71-6.28.378-10.769 5.352-10.277 11.541.11 1.405-.226 2.447-1.473 3.183-.699.413-1.345.922-1.974 1.435-1.102.896-1.114 4.492.045 5.268.414.275.996.869 1.665-.004 1.286-1.668 3.406-1.449 4.39.559.607 1.239 1.351 1.612 2.592 1.47 1.318-.149 2.656-.187 3.963-.41 1.651-.282 2.76-1.035 2.97-2.995.139-1.31.174-2.651.566-4.663 1.68 2.234 3.232 1.699 5.002.754.928-.495 2.13-.579 3.307.284 1.778 1.305 3.959.288 5.429-.442 1.3-.646 1.599-3.051.873-4.653-.756-1.655-.796-3.219-.628-4.928z"/></svg>