<svg xmlns="http://www.w3.org/2000/svg" viewBox="0 0 32 32"><path d="M15.501 6.451c-1.987.3-2.516 1.873-3.031 3.324-1.002 2.813-3.444 4.811-4.188 7.765-.207.826-.605 1.944.018 2.26 2.112 1.065.151 2.36.354 3.498.038.21-.61.505-.316.914 1.204 1.678 2.023 3.752 4.367 4.276 1.387.31 3.835 2.006 4.845 3.265.141.174.495.239.753.245.253.009.728.059.669-.339-.324-2.176.424-3.63 2.604-4.324.298-.094.472-.723.619-1.135 1.589-4.506.841-9.311 1.767-13.905.49-2.425-1.481-4.544-.769-7.518.009-.375-.401-.949-1.227-1.331-.732-.339-1.551-1.035-1.374-1.723C21.073-.132 19.548.41 18.825 0c-.346.763-2.164.555-1.362 2.092.278.536-.048.814-.557.953-.976.257-1.065.974-.775 1.743.306.808-.059 1.575-.631 1.663z"/></svg>