<svg xmlns="http://www.w3.org/2000/svg" viewBox="0 0 32 32"><path d="M4.629 8.993c.815.223 1.694.58 2.211 1.376.932 1.441 2.394 2.012 3.956 2.019 2.653.018 5.105.434 7.511 1.7 1.632.86 2.259 2 1.753 3.521-.361 1.078.123 1.693.47 3.093.407-1.209.712-1.717 1.67-1.67.849.036 1.772-.631 1.712-1.625-.053-.89-.548-1.708-1.78-1.223-.113.047-.395-.325-.595-.511-1.626-1.515-3.409-2.792-4.346-5.024-.557-1.324-1.516-2.611-2.34-3.87-1.584-2.423-4.149-3.464-6.201-5.174C6.105-.518 2.443-.044.687 2.138c-.625.78-.938 1.918-.438 2.446 1.416 1.491 2.065 3.76 4.381 4.408zM31.616 24.1a3.464 3.464 0 0 0-.563-1.351l.007.011.008.012c-.836-1.271-2.427-2.284-3.826-2.253-1.08.072-1.935.322-2.626 1.074a4.585 4.585 0 0 0-.614.884l-.012.025-.012.025c-.809 1.548-.724 3.101-.992 4.665-.303 1.783.691 2.846 1.778 3.962 1.068 1.102 1.971.486 2.959-.075.372-.215.842-.262 1.268-.369 2.34-.607 3.272-1.995 2.952-4.433a56.354 56.354 0 0 0-.436-2.95l.053.363.058.411z"/></svg>