<svg xmlns="http://www.w3.org/2000/svg" viewBox="0 0 32 32"><path d="M5.318 12.345c-.089.142-.761.088-1.041-.083-1.749-1.068-1.664.214-1.568 1.261.119 1.302.308 2.506 1.377 3.601 1.186 1.208 1.944 2.802.186 4.377-.81.723-.597 1.673-.4 2.679.219 1.109 1.146 2.216.4 3.398-1.103 1.753.068 2.157 1.359 2.113 1.625-.054 3.438-.264 4.792-.881 1.85-.838 2.136-.116 2.56 1.223.597 1.883 1.96 2.388 3.626 1.621 1.071-.492 2.108-.607 3.335-.603.828-.382 2.302.891 2.767-1.101.26-1.112 1.563-2.25 1.367-3.157-.485-2.228-.52-3.875 2.006-4.691.181-.057.148-.69.278-1.029.376-.965.743-1.991 1.547-2.648 1.829-1.495 1.622-3.354.521-4.877-2.495-3.445.008-6.843-.221-10.243-.018-.224.272-.554.509-.701 1.039-.657.538-1.609.095-2.069-.604-.636-1.755-.796-2.352.003-.85 1.151-2.054 1.643-3.25 2.027-4.836 1.545-9.023 4.02-12.273 7.978-.214.261-.591.515-.908.535-1.648.118-3.521-.683-4.714 1.266z"/></svg>