<svg xmlns="http://www.w3.org/2000/svg" viewBox="0 0 32 32"><path d="M29.802 18.17c-3.45-.325-4.793-2.772-6.026-5.505-.912-2.029-3.119-4.954-5.67-4.847-2.256.093-3.818-.914-5.368-2.24-2.687-2.3-5.505-3.974-9.09-1.627 1.14 1.579.162 3.389-2.043 3.614-.628.063-1.286-.394-1.478.699-.14.778-.368 1.34.636 1.744.461.19.779.887 1.029 1.414 1.537 3.243 4.872 5.517 5.079 9.501.023.474.612 1.112 1.095 1.335 1.071.493 1.398 1.457 1.937 2.341.795 1.306 1.73 2.529 3.163 4.595-.33-2.788 1.057-2.3 2.106-2.278 1.036.023 2.138 0 3.084.343.813.299 1.251.234 1.64-.454.882-1.566 2.434-2.004 3.995-2.071 2.223-.093 4.198-.953 6.245-1.61 1.807-.581 1.766-2.3 1.871-3.666.107-1.36-1.36-1.21-2.204-1.287z"/></svg>