<svg xmlns="http://www.w3.org/2000/svg" viewBox="0 0 32 32"><path d="M30.394 21.914c-1.348-.45-1.337-1.109-1.403-2.296-.135-2.355-.747-4.685-2.659-6.295-.724-.607-1.305-1.373-1.985-1.896-1.384-1.07-1.674-3.362-3.016-3.722-1.708-.459-2.706-1.496-3.897-2.468-.614-.499-1.35-.465-2.085-.539-2.24-.232-4.44 1.176-6.452.729-2.432-.542-2.698 1.05-3.078 2.29-.931 3.035-2.391 5.547-5.82 7.254 2.778.011 3.347 1.89 4.123 3.423.65 1.281.894 2.831 2.864 2.524 1.457-.222 3.03.734 4.406-.528.399-.366 1.169-.763 1.568-.614 2.058.766 3.987 1.883 6.312 1.852-1.692 1.299-3.225.66-4.8.003-.628-.262-1.198-.892-2.028-.512-2.171.991-4.317 1.884-6.831 1.856-2.07-.024-.991 1.843-1.199 2.893-.138.686-.265 1.608.932 1.454 1.863-.242 3.783-.341 5.552-.905 3.98-1.265 8.244-1.282 11.915-.254 3.157.886 6.065.926 9.193.906.011-.743-.059-1.441-.006-2.151.089-1.261-.426-2.61-1.606-3.005z"/></svg>