<svg xmlns="http://www.w3.org/2000/svg" viewBox="0 0 32 32"><path d="M20.279 31.797c.367.409.944.095 1.454-.008 1.126-.223 2.281-.414 3.424-.459 1.375-.053 1.842-.564 1.383-1.913-.408-1.196-.5-2.029 1.202-2.57 2.217-.707 2.336-2.576.525-4.012-.284-.227-.659-.343-.936-.584-1.637-1.394-1.687-3.171-.39-4.82.436-.552 1.633-1.395.64-2.163-1.672-1.287-.467-1.66.668-2.256-.879-.763-1.822-1.403-2.39-.813-1.749 1.829-3.184.015-4.673-.277-1.382-.271-1.845-1.576-1.397-2.917.199-.59.09-.802-.384-.972-2.164-.777-3.824-1.666-4.548-4.373-.384-1.421-2.372-3.1-4.432-3.537-2.728-.579-4.968 1.035-7.37 1.847-.417.144-.764.73-.47 1.457.698 1.696.653 3.832 3.212 4.626-3.055-.614-1.278 1.869-2.132 2.614.62.226 1.33-.298 1.887.241.072 1.503-1.738 2.421-1.366 3.871.354 1.38 2.318 1.458 2.867 2.862-.557.5-1.451-.214-2.036.614.202.265.456.525.628.825.435.76 2.139 1.658-.402 2.035-.972.147-.476.971.128 1.625 1.61 1.74 3.976 2.214 5.743 3.574 2.117 1.625 2.703.144 3.218-1.285.384-1.064.451-.864 1.41-.477 2.277.921 2.965 3.886 5.771 4.074-.29.629-.512 1.168-.795 1.669-.271.48-.989.892-.439 1.502z"/></svg>