<svg xmlns="http://www.w3.org/2000/svg" viewBox="0 0 32 32"><path d="M23.706 24.831c.105 1.162.683 1.293 1.669.636.792-.527.489.404.723.676 1.154 1.351 1.425 3.613 3.643 3.863.685.077 1.673.514 2.151-.35.388-.705-.188-1.216-.802-1.565-.511-.285-.368-.839-.544-1.239-.767-1.753.025-3.357.11-5.033.079-1.522-.35-3.041.559-4.457.231-.355.454-.943-.062-.976-1.716-.116-2.272-2.106-3.966-2.254-1.621-.141-2.125-1.271-2.138-2.776-.02-1.899-.276-3.776-1.018-5.539-.434-1.041-1.346-1.425-2.421-1.274-.812.112-.983.743-.953 1.47.022.574-.085 1.165.013 1.725.323 1.93-.512 2.731-2.399 2.689-1.741-.037-2.763.944-3.869 2.259-.77.912-.02 1.432.109 1.356 1.825-1.041 2.689.914 3.794 1.447 1.579.762 3.678.82 4.743 2.344 1.169 1.668 3.084 2.831 3.461 5.324-.435.032-.84.124-1.231.077-1.252-.156-1.666.573-1.574 1.597zM3.293 7.226c1.85.027 1.385-1.753 2.193-2.692-.881-1.132-1.371-2.679-3.163-2.699C1.173 1.822.18 2.249.004 3.558c-.137.981 2.356 3.655 3.288 3.668z"/></svg>