<svg xmlns="http://www.w3.org/2000/svg" viewBox="0 0 32 32"><path d="M1.095 13.452c-.073.819.308 1.921 1.706 1.188.304-.158.793-.224 1.269.277-.913.322-1.123 1.972-2.598.94-.321-.227-1.063.107-.754.562.537.793.652 2.161 1.67 2.306 1.67.24 1.748 1.422 2.023 2.576.468 1.947 2.122 2.888 4.101 2.325-.121 1.048-.895.799-1.571.828-.97.041-2.05-.244-2.878.857 1.773.651 3.562 1.017 5.08 2.027 3.087 1.227 6.417 1.968 8.968 4.287.879.8 1.244.202 1.577-.428 1.215-2.276 3.18-3.771 5.183-5.273 1.181-.886 2.498-1.841 2.978-3.253.504-1.477.585-2.869 2.47-3.562.932-.344 1.536-2.325.844-3.18-.861-1.066-1.406.488-2.024 1.028-.471.412-1.054.672-1.532.227-.504-.469.091-.979.218-1.474.227-.865 1.577-1.105 1.233-2.283-.603-2.059-2.395-3.764-1.85-6.176.028-.132-.245-.328-.37-.498-.97-1.319-1.83-2.74-2.943-3.919-.931-.982-1.374-2.753-3.032-2.72-2.409.049-4.927-.614-7.194.883-.662.44-1.42.363-2.236.033-.958-.388-2.326-.292-2.734.581C7.437 4.309 5.86 6.679 3.586 8.638c-.639.547-.938 1.381-2.013 1.146-.465-.102-1.362.282-.91.608 1.382 1.011.54 1.971.434 3.061z"/></svg>