<svg xmlns="http://www.w3.org/2000/svg" viewBox="0 0 32 32"><path d="M28.968 10.812c1.89.655 3.857.214 2.689-2.187-.937-1.928-2.968-.44-4.582.132.723.817 1.18 1.806 1.893 2.055zM21.2 12.764l-.1-.023c-.356-.074-.719-.147-1.078-.234-.182-.042-.359-.102-.541-.153-.22-.062-.438-.117-.649-.19-.232-.085-.447-.196-.666-.299-.144-.068-.297-.12-.435-.197a4.57 4.57 0 0 1-.948-.722c-2.516-2.546-3.306-2.774-6.157-.702-.689.497-1.303 1.013-2.172.731-2.207-.714-4.189-.19-5.006 1.99-.924 2.464-2.542 4.55-3.296 7.101-.526 1.777.4 1.893 1.445 1.577.995-.303 1.824-.601 2.712.1-.505.602-.158.942.376 1.23.508.211.276 1.485 1.324.919.608-.003 1.086-.229 1.354-.804.385-.123.968-.127.933-.645-.026-.396-.446-.682-.931-.661-.302-.158-.602-.317-.905-.473-.047-.096-.112-.187-.136-.287-.006-.027.099-.097.162-.121 2.487-.834 3.987 1.272 5.683 2.252 1.876 1.084 2.648 2.11 4.633-.231 2.552-3.003 6.59-3.241 10.433-3.092.458.021 1.162.438 1.197-.42.032-.805-.828-.329-1.192-.619-.174-.158-.347-.318-.523-.473.079-.124.127-.287.237-.359.576-.379 1.636-.481 1.629-1.169-.009-.911-.96-.437-1.529-.532-.164-.03-.32-.422-.385-.673a2.323 2.323 0 0 0-.347-.782l.005.008.005.008a1.476 1.476 0 0 0-.355-.324l-.006-.003-.006-.003c-.05-.036-.088-.099-.143-.127-.393-.22-.892-.262-1.463-.19.014-.012.024-.015.038-.026l-.047-.02c-.114-.831 1.107-.507 1.265-.962.005-.015.017-.023.02-.032a.563.563 0 0 0-.043-.295l.001.004.001.004c-.323-.852-1.295-.372-1.976-.51-.57-.115-1.115-.359-1.686-.444a1.412 1.412 0 0 0-.45-.003l.008-.001.008-.001c-.359.071-.479.358-.226.89-.024-.003-.046-.011-.068-.015l-.002.003z"/></svg>