<svg xmlns="http://www.w3.org/2000/svg" viewBox="0 0 32 32"><path d="M23.378 11.579c-2 .412-4.195.647-6.091.636-1.502-.003-3.159-1.164-5.249-1.189-2.18-.023-3.634.544-5.011 1.812-1.248 1.147-2.509 2.127-4.269 1.803-1.616-.302-2.037.786-2.557 1.866-.652 1.36.432 2.241 1.168 2.808 2.905 2.222 6.881 2.174 9.966.157a1.702 1.702 0 0 1 1.053-.257h-.006c1.716.219 3.233-1.073 5.05-.56.609.174 1.758-.326 2.172-.884 1.87-2.519 4.958-1.65 6.428-.913 2.717 1.364 3.647.168 4.871-1.542.386-.536.69-1.125 1.11-1.819-.97-.715-2.115-.47-2.989-1.125-1.711-1.283-3.589-1.215-5.645-.791z"/></svg>