<svg xmlns="http://www.w3.org/2000/svg" viewBox="0 0 32 32"><path d="M26.41 9.715c-.16.22-.368.672-.441.651-2.206-.683-4.169.842-6.348.642-1.976-.182-3.933-.114-5.663 1.299-.923.754-2.124 1.005-3.52.827C6.9 12.678 3.162 11.193 0 14.304v1.343c.721-.144 1.432-.232 2.024.342-.091.745-1.359 1.37-1.017 1.468 1.484.425.689 2.648 2.428 2.772.41.03 1.123.428 1.105 1.229-.684.586-1.951.127-2.392 1.288 1.989 1.485 4.066-.005 6.083.17 1.226.104 2.569.301 3.349-1.123.31-.563.707-.359 1.057.027 1.78 1.948 4.287.875 6.393 1.49.354.104 1.141.204.846-.949-.347-1.349.124-2.621 1.951-2.708 1.47-.071 2.259-1.285 1.603-2.254-1.363-2.01.335-1.782 1.247-2.122.893-.332 1.865-.945 2.628-1.002 1.855-.142 2.428-2.717 4.707-1.765-.748-1.098-1.305-1.864-1.808-2.66-1.002-1.603-2.651-1.668-3.795-.133z"/></svg>