<svg xmlns="http://www.w3.org/2000/svg" viewBox="0 0 32 32"><path d="M7.453 19.909c4.49 1.802 9.123 3.289 13.783 4.604 1.881.532 4.603 1.242 5.837-.386 2.498-3.3 5.909-6.483 4.671-10.823 0-1.179-.032-1.771.005-2.36.192-3.017.442-3.848-4.009-2.805-2.71.631-5.56.577-8.011 2.229-.451.305-1.35.189-1.944-.017-1.718-.595-3.149.059-4.613.783-3.624 1.796-5.275 1.451-7.871-1.649-.517-.616-.921-1.332-1.428-1.96-.265-.331-.565-.738-1.078-.64-.543.102-3.04 4.52-2.775 5.004 1.798 3.301 3.821 6.572 7.433 8.02z"/></svg>