<svg xmlns="http://www.w3.org/2000/svg" viewBox="0 0 32 32"><path d="M31.747 13.693c.066-.378.574-.911-.038-1.147-.491-.188-1.241-.557-1.61.122-.759 1.393-1.414.425-1.808-.133-.573-.815.116-2.122.595-2.041 2.393.413 1.281-1.352 1.465-2.189.239-1.078-.536-1.978-.837-2.964-.696-2.273-3.164-3.312-5.373-2.298-2.767 1.268-4.447 3.717-6.217 5.967-.693.879-1.479 1.367-2.139 1.033-2.167-1.092-3.772-.988-4.794 1.433-.028.062-.116.094-.166.149-.629.668-1.427.866-2.254.585-.904-.312-.094-1.02-.223-1.543-.233-.954-.484-1.868-1.782-2.635 0 2.289-.041 4.287.012 6.285.045 1.635-.913 2.144-2.302 2.34-1.518.217-2.558-.406-3.19-1.779-1.317 1.273-1.266 1.25-.746 2.52.79 1.93 1.512 3.879 2.693 5.627.23.341.428 1.13.289 1.235-1.481 1.089-.233 2.015.084 3.011.469 1.479 2.595 2.366 4.084 2.013 1.826-.429 3.534-1.298 5.542-1.14 4.9.39 8.872-1.407 12.294-5.03 1.729-1.836 2.542-4.301 4.416-5.854 1.229-1.029 1.758-2.151 2.006-3.567z"/></svg>