<svg xmlns="http://www.w3.org/2000/svg" viewBox="0 0 32 32"><path d="M3.829 17.439c2.127 1.444 3.542 3.541 4.866 5.567 1.231 1.89 2.602 2.601 4.602 2.121 1.378-.333 2.336-.131 3.232 1.011.548.7 1.392 1.169 2.106 1.74.793-1.938 2.194-.287 3.277-.544 1.97-.47 4.077-.281 5.628-2.182 1.063-1.302 2.669-2.394 4.32-.32.812-2.515-1.887-2.724-2.445-4.316-.758-2.169-2.23-3.791-4.339-4.777-.863-.404-.938-.922-.135-1.411 2.464-1.494 2.796-2.941.9-5.129-1.009-1.165-1.389-2.388-1.3-3.874.029-.458.346-1.472-.701-1.127-.755.243-2.483.271-2.077 1.092 1.092 2.21-.849 2.842-1.593 4.086-.758 1.273-1.818 1.273-3.079.716-2.036-.897-4.277.985-6.33-.372-.076-.048-.448.332-.668.527-1.615 1.431-3.312 1.364-4.486-.316-.943-1.347-2.25-1.238-3.029-.342C1.491 10.846.863 12.5.067 14.001c-.138.263-.064.749.23.736 1.972-.086 2.316 1.878 3.532 2.703z"/></svg>