<svg xmlns="http://www.w3.org/2000/svg" viewBox="0 0 32 32"><path d="M6.949 31.972c4.522-.592 8.753-1.854 12.039-5.278 1.718-1.794 3.523-2.971 6.309-2.307 2.3.539 3.53-1.317 2.512-3.393-1.318-2.683-1.796-5.523-1.626-8.466.121-2.117-.453-3.995-1.613-5.699-1.173-1.723-2.515-3.333-3.688-5.059C19.814.199 18.703-.666 16.821.63c-.51.346-1.314.452-1.949.387-3.21-.348-5.648 1.103-8.218 2.822-2.094 1.41-1.692 2.712-.959 4.426.348.818 1.113.916 1.774 1.219.732.34.938.935.777 1.667-.152.7-.717.947-1.347.874-2.396-.276-2.404 1.341-2.168 2.887.161 1.077.595 2.176 1.159 3.115.885 1.473.839 2.858-.091 4.183-1.368 1.965-2.95 3.822-1.146 6.356.187.26.073.729.092 1.024-.387 1.921.463 2.607 2.203 2.38z"/></svg>