<svg xmlns="http://www.w3.org/2000/svg" viewBox="0 0 32 32"><path d="M.997 8.943c1.9-.124 3.601.932 5.46.453.302-.08 1.859.88.464 1.918-.641.475-.768 1.078-.902 1.865-.221 1.295.734 3.139-1.427 3.754-.423.121-.02.473.091.683.5.951.431 1.829.361 2.924-.08 1.291-.369 2.359-.783 3.508-.142.399-.163 1.272.493 1.28 1.912.018 2.306 1.486 3.033 2.755.5.872 1.331 1.978 2.404.907 1.519-1.517 3.205-2.429 5.28-1.922 3.491.852 4.57-2.93 7.249-3.55-.741-2.161 3.671-3.344 1.09-5.932-.532-.535.062-1.467.49-2.037 1.402-1.88 1.945-4.534 4.88-5.06.819-.147 1.463-1.173 2.234-1.732.759-.555.644-1.316.487-2.014-.225-1.028-.978-.42-1.573-.431-1.209-.015-2.477.278-3.539-.727-.292-.28-1.082-.376-1.437-.181-1.871 1.037-3.447-.115-4.982-.736-.731-.296-1.381-.533-2.175-.689-3.054-.601-6.155-.153-9.241-.482-2.421-.26-4.812-1.026-7.322-.898C.14 2.672.004 3.187.001 4.42c-.003 1.659 1.558 2.897.997 4.523z"/></svg>