<svg xmlns="http://www.w3.org/2000/svg" viewBox="0 0 32 32"><path d="M11.605 2.523c-.003-.016-.013-.022-.017-.03-.312-.978-1.321-1.368-1.874-2.175C9.287-.307 8.246.173 7.485.249c-.227.023-.487.269-.384.582.243.738.952.969 1.549 1.01.149.013.291.039.434.079.845.21 1.601.787 2.521.603zm.048.035c.007-.016.012-.032.019-.043h-.001l.001-.003c-.023.008-.044.003-.066.01.001.006.007.014.009.021.013.001.023.01.038.014zM8.856 16.046c1.1 4.248.626 8.743 2.221 12.936.587 1.542 1.357 2.411 2.903 2.86 2.326.678 4.021-.916 5.937-1.56 4.448-1.5 5.867-5.168 4.524-9.156-1.227-3.65-3.043-7.245-5.385-10.393-1.249-1.678-1.668-4.141-4.078-4.847h-.001c-.023.055-.045.113-.081.125-1.611.395-4.005-.262-3.482 2.876.113.658-1.301 1.003-.997 2.151.379 1.43-.399 2.662-1.173 3.776-.296.421-.504.787-.387 1.234z"/></svg>