<svg xmlns="http://www.w3.org/2000/svg" viewBox="0 0 32 32"><path d="M22.251 21.942c.035-.724.572-1.548.866-2.25.803-1.913 2.857-3.17 3.014-5.232.227-3.008.541-5.793 4.211-7.263-2.6-.957-2.936-2.723-2.886-4.717.041-1.715-.668-2.519-2.569-2.48C19.273.112 13.655.074 8.04.015 6.795.003 6.274.306 6.368 1.635c.057.831.538 2.051-1.159 2.099-.69.018-.523.796-.529 1.295-.015 1.507.014 3.015-.018 4.522-.009.483.189 1.003-.325 1.439-2.83 2.391-3.277 3.543-1.973 6.739.822 2.013 1.105 4.409 2.755 5.908 1.338 1.219 2.551 2.525 3.837 3.773 1.453 1.407 2.106 4.488 5.269 3.15.138-.058.489.095.576.247.834 1.426 2.286 1.045 3.517 1.182 1.82.202 5.402-1.516 5.508-2.922.159-2.12-1.367-3.466-3.164-4.418-.054-.028-.078-.115-.443-.688 1.863.244 1.971-.736 2.034-2.019z"/></svg>