<svg xmlns="http://www.w3.org/2000/svg" viewBox="0 0 32 32"><path d="M28.155 11.202c-.535-2.751.562-4.376 2.237-6.223 1.675-1.844.863-3.772-1.631-4.165-4.192-.669-8.433-1.672-12.519.567-.209.114-.6.023-.857-.092C13.661.549 11.776.632 9.99.217 9.344.065 8.523-.171 8.18.549c-.776 1.629-1.927 3.337-1.917 5.003.011 1.702-.374 2.02-1.819 2.105-1.654.102-3.382.244-2.697 2.778.131.481-.143 1.21-.465 1.658-1.814 2.531-.326 4.498 1.269 6.169.669.702.52 2.384 1.771 2.135 1.978-.394 1.864 1.054 2.262 2.096 1.529 3.966 2.727 8.176 7.558 9.514h2.662c.029-.962.08-1.917-.791-2.625-.52-.425-.633-.855-.105-1.467.466-.537.645-.885 1.541-.49 1.297.567 2.734.379 4.051-.311 1.087-.573 1.98-.606 3.193.191 2.365 1.554 3.139 1.145 4.612-1.463 1.154-2.034.568-4.586 2.09-6.547.439-.564-.144-1.443-.685-1.962-1.769-1.688-2.106-3.83-2.555-6.13z"/></svg>