<svg xmlns="http://www.w3.org/2000/svg" viewBox="0 0 32 32"><path d="M28.781 2.17C26.832 1.221 24.689.652 22.59.047c-1.188-.344-.655 1.31-1.476 1.499-.072.019-.161.087-.209.065-1.998-.982-3.714.348-5.56.652-1.062.173-2.539.904-2.563 1.367-.073 1.461-1.104 1.977-1.969 2.263-2.084.685-2.16 3.023-3.721 4.062-.262.176-.487.454-.195.691 1.485 1.201.327 1.084-.489.923-1.415-.271-2.68.204-3.176 1.366-.579 1.359-.228 2.986.318 4.339.407 1.011.327 3.179-.593 3.864-2.086 1.565-2.239 3.07-.702 5.283.821 1.184 2.043 2.03 2.157 3.806.095 1.435 3.158 2.379 3.586 1.313.741-1.838 2.08-1.276 3.32-1.578.214-.054.451-.093.689-.133 1.181-.202 2.483-.43 1.955-2.394l.039-.004c.115.096.228.192.341.282.06-.097.12-.204.182-.308-.172.013-.343.019-.515.026-.02-.013-.037-.032-.057-.044a.136.136 0 0 1 .006.029l-.007-.034c.006.02.004.034.009.059-.089.072-.178.135-.267.199.001.027.001.042.006.064l-.032-.042.026-.023c-.314-2.151.272-3.702 2.713-4.081 1.236-.195 2.328-1.237 2.41-2.12.102-1.095-1.42-1.463-2.427-1.71-1.635-.398-1.671-1.276-1.141-2.587.411-1.011.965-1.822 1.889-2.442 1.474-.99 3.099-1.562 4.783-2.035 1.177-.334 2.659-.96 2.627-2.074-.037-1.261.638-1.471 1.28-2.041 1.471-1.314 3.347-.383 4.916-.864.216-.791-.751-.96-.505-1.964.274-1.099-.186-2.936-1.458-3.552z"/><path d="M19.052 7.561c-1.135-.119-2.001.102-2.177 1.301-.04.268.456.877.497.856.874-.387 1.547-.985 1.68-2.157z"/></svg>