<svg xmlns="http://www.w3.org/2000/svg" viewBox="0 0 32 32"><path d="M30.685 14.621c-1.174 1.419-2.114.967-2.953-.334-.222-.348-.514-.491-.896-.562-2.063-.39-2.045-1.433-1.011-2.954.476-.701 1.106-1.815.357-2.422-1.159-.94-2.465-1.81-4.002-2.141-.833.866-1.723.774-2.667.142-1.195-.795-2.175-.961-2.011.96.041.478-.067.834-.391.638-1.31-.784-2.442.682-3.817.207-.366-.127-1.697-.668-2.315.335-.663 1.073-1.428 1.244-2.589.598-1.025-.57-2.049.204-1.587 1.099.55 1.058-.038 1.425-.511 1.771-2.191 1.603-2.918 4.384-4.981 6.077-.207.169-.268.518-.388.787-.512 1.132.617 2.637-.873 3.618-.225.151.387.748.876.559.603-.231 1.078-.514 1.271-1.343.316-1.348 1.738-.932 2.69-1.215.849-.251.944.55 1.034 1.093.582 3.557 1.697 4.355 4.943 3.5.346-.094.766-.207 1.078-.097 2.095.725 3.155-.982 3.42-2.202.295-1.365 1.079-1.887 1.82-2.693.689.589.044 1.34.5 1.937 1.059 1.395 2.967 2.073 3.343 4.059.056.295.893.209.812-.154-.455-1.971 1.291-3.084 1.699-4.695.133-.533-.434-1.331.326-1.566.812-.257.84.598 1.058 1.117.233.55.744.911 1.236.657 1.345-.697 2.348-.157 3.384.796-.086-.845.423-1.623-.305-2.276-.577-.514-.144-.923.177-1.325.399-.496.679-.218 1.074.091.432.331 1.575.446 1.418.095-.623-1.375.301-2.599.059-3.846-.139-.713-.697-1.006-1.274-.31zm-8.582-8.816c-.047-.021-.121.036-.183.054.095.094.192.184.287.28.088-.138.079-.258-.104-.334z"/><path d="M22.207 6.139c-.018.023-.008.044-.032.067l-.002.003h.005c.018-.018.036-.023.054-.042l-.026-.027z"/></svg>