<svg xmlns="http://www.w3.org/2000/svg" viewBox="0 0 32 32"><path d="M.575 15.057c-.048 1.024-.044 2.139 1.591 2.004.835-.064 1.194.79 1.525 1.378.386.687-.285 1.016-.787 1.345-1.853 1.208-3.07 2.73-2.317 5.053-.15.351-.308.613-.359.897-.057.309.199.472.407.697 1.591 1.718 3.871 2.088 5.993.983 5.5-2.863 10.938-5.859 16.562-8.457 2.332-1.077 3.675-2.257 3.363-4.882a1.404 1.404 0 0 1 .034-.462l-.002.009-.002.009c.299-1.44 3.251-6.443 4.445-7.528.545-.489 1.362-.977.794-1.801-.527-.764-1.178.01-1.782.157-.861.211-1.773.578-2.608.465-2.609-.346-4.925.436-7.305 1.333-1.947.729-4.121 1.032-6.071.166-1.365-.603-2.506-.6-3.813-.107-1.523.571-3.028 1.027-4.673.144-1.003-.534-1.726.032-1.77 1.201-.07 1.811-.996 2.797-2.773 3.064-1.125.17-1.186 1.217-.841 1.795.515.871.433 1.641.389 2.537z"/></svg>