<svg xmlns="http://www.w3.org/2000/svg" viewBox="0 0 32 32"><path d="M20.826 16.139c.397-1.758.26-4.134 1.364-5.132 2.445-2.215.123-5.792 2.749-7.681.017-.016-.177-.372-.312-.541-.981-1.224-2.753-1.199-3.883-2.785-1.092 2.31-3.934 1.632-4.999 3.458-1.107 1.908-2.707 3.398-3.862 5.231-1.387 2.192-3.227 4.257-3.957 6.655-.844 2.761-1.538 5.777.303 8.732.818 1.312 1.294 2.738 2.827 3.403 1.152.502 1.551 1.54 1.707 2.654.115.83-.257 2.016 1.12 1.859 1.01-.111.999-1.162.931-1.978-.146-1.779.25-3.622 1.414-4.729 2.675-2.563 3.824-5.716 4.598-9.145z"/></svg>