<svg xmlns="http://www.w3.org/2000/svg" viewBox="0 0 32 32"><path d="M6.428 10.094c-.28-.024-.74-.185-.719.484.063 2.08-1.208 2.429-2.936 2.2-.588-.077-1.258-.174-1.772.038-.782.314-1.555 1.185-.449 1.723 1.541.757 2.272 1.724 2.913 3.34.447 1.126.322 1.478-.343 2.135-.419.421-.979.873-1.094 1.391-.149.663-.65 1.468.055 2.114.676.619 1.348.285 2.06-.059 1.149-.561 2.274-1.584 3.642-.365.313.282.878.095.886-.314.019-1.843 1.267-1.469 2.364-1.395.663.047 1.29-.016 1.259-.861-.04-1.101.889-1.537 1.459-2.157.98-1.069 2.052-.647 2.737.647.616 1.165.839 2.172.598 3.539-.369 2.096.971 2.984 2.737 1.819 3.003-1.98 6.332-2.247 9.726-2.247 2.786-.004 2.786.087 2.005-2.595-.04-.146-.148-.286-.148-.425.007-2.42-1.417-2.765-3.356-2.278-1.014.257-1.128-.263-1.178-1.07-.055-.983-.255-2.488-1.222-2.405-2.987.255-5.777.359-8.851-.303-1.98-.43-4.566-.663-6.895-.289-.531.089-1.444.563-1.692-.486-.218-.923.796-.983 1.222-1.374.695-.632 1.758-.655 2.551-.155 1.165.737 2.026.294 3.05-.502-1.671-.433-1.708-.452-.985-1.763.379-.689-.139-.97-.462-1.33-.275-.304-5.771 1.314-5.718 1.685.182 1.25-.506 1.329-1.445 1.261z"/></svg>