<svg xmlns="http://www.w3.org/2000/svg" viewBox="0 0 32 32"><path d="M31.48 27.409c-2.134-1.196-2.127-3.507-2.484-5.434-.381-2.044.789-4.339-1.367-6.089-.688-.561.166-1.504.275-2.275.111-.816 1.228-1.869.223-2.443-3.431-1.962-5.117-5.894-9.03-7.415-3.428-1.33-6.325-4.18-9.823-3.117-1.98 0-3.33-.014-4.679.006-.519.009-1.402.403-1.254.577 1.426 1.69.79 3.126-.334 4.577-.044.058.055.331.151.38 1.449.72.264 1.306-.03 2.024C2.496 9.736.145 10.214.092 11.347c-.09 1.872-.407 4.258 1.086 5.746 1.234 1.228 1.855 2.658 2.583 4.104.267.528.371 1.216.941 1.477 2.415 1.1 4.752 2.726 7.367 2.92 2.516.188 2.98 1.393 3.036 3.382.056 2.006 1.011 2.87 3.033 2.349.285-.073.616-.223.862-.143 4.159 1.343 7.733-.816 11.486-1.887.345-.098.625-.4.94-.604.616-.403.917-.799.055-1.283z"/></svg>