<svg xmlns="http://www.w3.org/2000/svg" viewBox="0 0 32 32"><path d="M22.652 13.349c.761-.065 1.776.502 2.063-.549.28-1.04.78-2.309-.453-3.195-.79-.575-.91-1.34-1.064-2.265-.231-1.415-1.581-3.116-2.596-2.664-1.57.706-3.38-.092-4.7 1.135-.156-.141-.321-.28-.479-.419 1.04-2.164-.671-3.535-1.712-4.864-.656-.839-2.237-.43-3.393-.351-1.04.072-2.589-.664-3.019.43-.468 1.201-.468 2.777.094 4.104.36.855.686 1.754 1.393 2.457 1.161 1.152 1.412 2.525.497 3.923-.386.596-.528 1.17-.03 1.582 1.349 1.107 1.444 2.716 2.003 4.181.586 1.535.289 2.489-.591 3.793-1.133 1.679-1.783 3.685-1.581 5.814.023.238-.201.541.219.738 2.084.986 2.364 1.038 2.797 1.951.694 1.471 3.075.914 3.276 2.865.572-.435 1.685.115 1.881-.803.235-1.106-.658-1.825-1.549-1.972-1.275-.208-1.646-.843-1.904-1.998-.23-1.042-.63-2.55-1.375-2.879-1.967-.868-1.089-2.013-.757-3.182.456-1.606 1.512-3.039 1.385-4.811-.036-.556.009-1.008.755-1.064.806-.062 1.063.227.92 1.012-.068.371.078.862.528.768 1.356-.279 2.261.783 3.383 1.123.692-1.223-1.24-2.046-.128-3.491 1.211-1.578 2.694-1.245 4.138-1.369z"/></svg>