<svg xmlns="http://www.w3.org/2000/svg" viewBox="0 0 32 32"><path d="M18.4 32.007c1.321-.327 2.706-.364 3.419-1.325.5-.672-.628-1.351-.862-2.079a4.46 4.46 0 0 1-.241-1.463v-.017.001c0-.174.01-.346.028-.516l-.002.021c.469-3.493-.069-7.005.22-10.467.213-2.478-1.593-4.288-1.518-6.524.071-1.913-.604-3.048-2.223-3.903-.789-.415-2.029-.85-1.525-2.098.886-2.213.561-3.344-2.101-2.977-.34.045-.748-.102-1.063-.268-2.366-1.232-2.158.726-2.438 1.986-.21.942.679 1.315 1.229 1.696 1.429.999 1.572 2.309 1.47 3.89-.061.983-1.948 2.665.816 2.948.058.006.09.832.039 1.265-.139 1.187-.853 3.098-.405 3.422 2.152 1.545 1.299 3.645.869 5.175-.577 2.044.895 3.923-.19 5.979-.639 1.213 3.216 5.269 4.476 5.256z"/></svg>