<svg xmlns="http://www.w3.org/2000/svg" viewBox="0 0 32 32"><path d="M23.988 11.831c-1.776.624-1.852 2.912-1.509 3.18 2.277 1.742-.171 2.103-.681 2.999a13.433 13.433 0 0 0-.389-.426l.006.006.007.008c.16-1.34-1.691-2.441-.379-4.009.288-.345-.555-.711-1.108-.512-1.7.624-3.129-.123-4.668-.722-2.446-.942-4.681-2.745-7.742-1.045-1.412.78-3.796.524-5.079-.972-1.127-1.307-.037-2.757.693-4.036.059-.1-.073-.313-.24-.933C1.818 6.816.03 7.458-.001 9.271c-.076 4.407 4.828 9.381 9.364 10.094 2.379.375 5.161.503 6.512 3.028.974 1.82 2.373 2.919 4.192 3.671 1.319.551 2.565.99 3.89-.101 1.326-1.086 1.643-2.396 1.223-3.959-.174-.649-.628-1.239.039-1.902 1.518-1.524 2.14-4.014 5.015-4.092.912-.021 2.652-.756 1.228-2.45-1.424-1.703-5.38-2.466-7.476-1.728z"/></svg>