<svg xmlns="http://www.w3.org/2000/svg" viewBox="0 0 32 32"><path d="M.091 29.379c.227.403.781.208 1.159-.076 1.155-.857 2.567-.834 3.78-.599 3.965.774 7.898-.204 11.845.019 1.539.088 3.214-.815 3.89-1.703.761-1.001.726-3.087.267-4.439-1.11-3.273-1.795-6.3.784-9.221.356-.406 1.175-.931.814-1.619-.405-.778-1.326-.338-2.011-.432-.329-.046-.688.14-1.039.207-1.625.299-3.251.847-4.873.84-3.496-.019-6.647 1.045-10.378 2.502 1.189.345 1.735.609 2.298.649 3.073.215 4.02 1.455 3.207 4.424-.217.8-.275 1.47.046 2.288.764 1.954-.017 2.941-2.073 2.593-.901-.154-1.524.12-2.216.556-.817.546-2.386 1.501-3.971 2.432l-.834.453c-.475.275-.999.582-.693 1.127zM30.342 2.71c-.77.197-1.609.383-2.241.825-1.277.895-2.433 1.964-3.622 2.941.101.848.897.965 1.137.835 1.889-1.045 4.171-1.256 5.853-2.721.574-.499.64-1.26.402-1.816-.318-.744-1.028-.191-1.529-.064z"/></svg>