<svg xmlns="http://www.w3.org/2000/svg" viewBox="0 0 32 32"><path d="M9.544 13.191c-1.782 1.194-2.309 2.913-.878 4.726 1.146 1.452 1.963 3.352 3.345 4.358 1.846 1.346 2.423 3.008 2.861 4.951.356 1.59.718 3.179 1.074 4.777 2.684-.911 3.378-1.968 2.845-4.611-.138-.677-.131-1.169.366-1.573 1.015-.824 1.961-1.992 3.131-2.316 2.505-.698 1.865-2.637 1.59-4.005a3.073 3.073 0 0 0-2.569-2.441l-.016-.002-.016-.002c-.925-.147-2.551-.378-2.846-1.938-.273-1.429 1.137-1.548 1.788-2.255 2.634-2.862 3.048-3.809.507-6.065-.778-.693-1.052-1.595-.025-2.451.449-.369.798-.856 1.157-1.32.337-.442 1.022-.881.465-1.512-.592-.673-1.026.314-1.547.292s-1.077 1.619-1.523.031C18.717-.053 17.357-.202 15.829.143c-2.317.523-4.874 2.633-4.821 3.974.067 1.611-.077 3.214.151 4.838.217 1.593.007 3.144-1.618 4.235z"/></svg>