<svg xmlns="http://www.w3.org/2000/svg" viewBox="0 0 32 32"><path d="M30.251 13.114c-.028-.014.018-.143.012-.216-.213-2.359-2.451-2.716-4.238-1.95-3.069 1.311-5.996 1.038-8.918-.373-2.581-1.245-5.123-1.293-7.646.212-1.781 1.055-4.551.762-6.212-.583C1.855 9.083.735 9.42.215 11.115c-.663 2.17.368 4.657 1.006 7.235.722 2.897 3.374 1.847 4.668 3.246.169.181 1.224-.049 1.396-.356.931-1.675 2.005-.64 2.718-.035 1.239 1.055 2.465.914 3.482.078 1.802-1.471 2.66-.406 3.614 1.167 1.04-2.18 2.818-2.157 4.761-1.847.637.101 1.353-.043 1.992-.224 2.285-.637 4.569-1.106 6.961-.644 1.041.199 1.431-.164 1.041-.601-1.589-1.775 1.12-4.626-1.603-6.02z"/></svg>