<svg xmlns="http://www.w3.org/2000/svg" viewBox="0 0 32 32"><path d="M1.464 15.236c2.089.443 1.403 2.047 1.453 3.376.026.667-.36 1.626.619 1.891.747.195 1.291-.262 1.864-.883 1.311-1.425 3.481-1.735 4.878-1.152 2.403 1.01 5.334 1.167 7.106 3.513.146.197.51.364.75.34 1.195-.138 1.606.36 1.488 1.524-.137 1.301.852 1.4 1.795 1.788 1.055.43 1.898.488 2.589-.367 1.225-1.523 3.968-1.534 4.113-4.129.006-.073.272-.214.373-.185.951.284 1.428-1.297 2.598-.546.72.459.663-.476.82-.909.443-1.177-.645-1.202-1.208-1.447-3.653-1.588-7.413-3.004-9.054-7.142-.408-1.024-1.246-1.04-2.21-.965-1.119.089-2.277.073-2.146-1.648.026-.36-.358-1.059-.608-1.09-1.622-.186-3.207-2.48-4.967.068-.468.679-1.95.648-1.633 2.114.09.396-.332.437-.605.42-1.405-.092-2.945.455-3.857-1.377-.538-1.077-1.651-1.711-3.02-1.266-2.878.59-3.127.959-1.917 3.058.239-1.217.36-2.478 1.961-2.443.731.546.587 1.657 1.457 2.168 1.269.739.347.963-.334 1.358-.669.383-1.154-.293-1.693-.133-.472.143-.898-.839-1.291-.039-.29.599-.53 1.225-.348 1.938.201.793 2.129.765 1.027 2.167z"/></svg>