<svg xmlns="http://www.w3.org/2000/svg" viewBox="0 0 32 32"><path d="M9.13 13.506c-.57.46-1.04 1.04-1.571 1.552-2.141 2.065-4.675 3.62-5.483 6.965-.651 2.673-1.005 5.336-1.305 8.032-.054.489-.299 1.517.426 1.465.93-.071 1.91 1.163 2.77-.059 1.368-1.945 3.42-1.986 5.49-1.986 4.453-.003 8.91-.084 13.358.038 1.801.049 2.646-.207 2.521-2.328-.113-1.938-.328-4.071.97-5.779 1.092-1.448 1.92-3.063 3.279-4.37 1.128-1.082 1.971-2.537 1.664-4.44-.763-4.707-3.291-8.553-5.661-12.597-1.642 1.421-2.872 3.701-5.5 1.97-.177-.12-.656.239-1.002.341-1.378.408-2.914.334-4.084 1.361-1.094-1.653-2.841-.57-4.235-1.005-1.603-.5-2.255.344-2.833 1.812-.535 1.361.102 2.678-.355 3.96-.351.979-.464 1.622.966 2.048 1.5.448 2.313 1.614.585 3.021z"/></svg>