<svg xmlns="http://www.w3.org/2000/svg" viewBox="0 0 32 32"><path d="M31.477 13.271c-1.772-.56-3.558-1.702-5.292-1.615-2.376.117-3.311-1.73-4.449-2.823-.805-.769-.744-2.37-2.544-1.93-1.33.327-3.129.207-3.886 1.04-.944 1.039-1.694.92-2.734.833-1.689-.146-3.352-.356-5.008-.773-1.275-.317-2.633-.401-3.947.101-.906.35-1.702.654-.842 1.837.521.71.455 1.313-.464 1.781-.506.255-.928.763-1.269 1.241-1.465 2.044-1.383 4 .217 4.136 2.163.182 4.372 1.078 6.563-.505 1.491-1.079 3.589-.076 4.487 1.643.365.699.855 1.332 1.377 2.127-2.22-.212-2.169 1.516-2.887 2.645 2.169.7 3.167-.75 4.239-1.953.481-.538 1.047-1.149 1.624-.559.899.923 2.009.759 3.082.95a.71.71 0 0 1-.233.459l-.001.001-.001.001c-.365.334-1.018.387-1.034.999.499.433 1.555.324 1.593 1.222.004.128-.01.277-.052.454-.099.417.544.7.76.562 1.494-.945 3.282-1.203 4.747-2.379-.292-.022-.589-.092-.872-.051-.811.114-1.551.034-1.809-.859-.255-.883.821-1.22 1.107-1.273 2.497-.486 4.448-2.124 6.742-2.993 1.739-.662.216-2.368 1.186-3.273.212-.2.235-.842-.4-1.043z"/></svg>