<svg xmlns="http://www.w3.org/2000/svg" viewBox="0 0 32 32"><path d="M6.309 3.844c.06.04.109.06.167.1a.378.378 0 0 1 .056.254v-.004l.004.02c-.025.279-.248.58-.027.752 1.227.962 2.582 1.674 1.151 3.649-.623.861 1.129.359 1.225.67-.049 1.462-2.104.879-1.64 2.085.471 1.227 1.058-.12 1.607-.294.045-.013.27.261.254.375-.42 2.754 1.435.692 2.314 1.085-1.491 2.163-.743 2.754 1.642 2.441 2.518-.332 2.718 2.223 3.058 3.499.529 1.991-1.397 1.756-2.759 1.58-.46-.058-1.257.036-1.015.37.451.618-1.102 1.424.27 1.707 1.449.301 1.007 1.045.368 1.739-1.134 1.236-.931 2.303.589 2.852.505.185.995.406 2.163.891-3.774-.159-4.176 3.214-6.785 4.162 1.127.453 1.761.112 2.453.009 2.435-.353 4.497-1.844 7.124-1.787 2.852.058 5.782-.236 8.563-1.1.545-.169 1.334-.511 1.326-1.247-.009-.884-1.352-.04-1.556-.933.216-.257.359-.506.576-.654 1.111-.768 2.149-1.694 1.828-3.149-.333-1.526-1.748-1.511-2.944-1.399-.83.071-.718-.243-.824-.844-.676-3.845-4.758-5.593-5.794-9.266-.103-.368-.629-.73-1.036-.875-1.62-.576-1.642-1.421-.654-2.656.509-.641.774-1.469 1.238-2.154.942-1.382.652-2.004-1.056-1.953-1.33.04-2.66.009-4.2.009.35-1.393 1.319-1.672 1.919-2.301.516-.534.897-1.645-.295-1.459-2.038.324-4.769-.551-5.749 2.328-.082.234-.165.453-.252.656-.629 1.408-1.527 1.95-3.135.94-.034-.053-.036-.101-.1-.147l-.045.014c-.005.013-.014.024-.02.033h-.005z"/><path d="M2.685 16.083a.943.943 0 0 0 .731.994l.006.001.006.001c1.593.259 3.207.536 4.809.516.777-.004 1.5-.679 1.56-1.875-.703-.882-.788-2.54-2.566-2.638-1.373-.082-4.466 1.986-4.546 3zM7.807.572c-1.712.457-2.7 1.366-2.578 3.205-1.326.13-.674.734-.371 1.207.145-.33.466-.627.696-.971.259-.067.52-.138.779-.203.469-1.035 1.964-1.584 1.475-3.238zM4.796 5.494c.275-.096.201-.288.06-.511a.702.702 0 0 0-.058.521l-.001-.005-.001-.005z"/></svg>