<svg xmlns="http://www.w3.org/2000/svg" viewBox="0 0 32 32"><path d="M26.799 7.419c-2.438 2.831-5.875 4.636-7.801 8.016-.689 1.21-1.891 3.041-3.869 1.157-.13-.124-.91.098-.963.283-.404 1.413-1.321.857-2.198.695-2.5-.47-4.938-.607-7.35.622-1.177.6-2.619.824-3.151-1.092-.205-.731-.746-.955-1.468-.643v1.775c1.814 2.242 3.657 4.462 5.429 6.734.589.755 1.246 1.162 2.198 1.281 4.981.627 9.96 1.272 14.929 1.984.72.101 1.362-.005 1.382-.628.089-2.599 1.618-4.73 2.167-7.125.345-1.504.633-2.242 2.229-2.162.606.029 1.457-.684.839-.991-1.825-.901-.96-2.382-1.136-3.622-.083-.564-.194-1.314.47-1.582.771-.307.661.542.921.91.297.426.642.258.927.003.868-.771 1.547-1.454 1.65-2.884.175-2.473-1.838-4.059-1.95-6.398-.746 1.635-2.219 2.468-3.255 3.669z"/></svg>