<svg xmlns="http://www.w3.org/2000/svg" viewBox="0 0 32 32"><path d="M30.86 17.836c-1.145.621-2.326 1.173-3.762 1.88.172-1.584-.944-1.77-1.977-2.216-3.557-1.546-7.219-.245-10.817-.528-.295-.027-.507.163-.644.487-.817 1.939.519 5.003 2.618 5.746 1.861.661 4.084.342 5.535 2.113.209.253.441-.008.703-.186 2.149-1.49 3.571-1.304 5.083.679.793-.915-.782-1.869.274-2.569 1.685-1.117 1.966-3.406 3.773-4.408.562-.315.352-.746.084-1.119-.347-.467-.56-.046-.871.122zm-26.049-4.77c1.126-1.122 2.164-.942 3.362-.96.992.601 1.96 1.247 2.647 2.201.358.504.769.419 1.11.139.437-.362-.093-.575-.23-.866-.641-1.327-2.041-1.428-3.131-2.029-.008-1.117-.026-2.233-.026-3.35 0-.603.062-1.3-.717-1.429-1.531-.26-3.111-.709-4.613-.548-1.125.119-3.015.239-2.46 2.411-1.913.594.493 1.393-.102 2.131-.336.422-.934 1.117.222 1.46 1.324.397 2.735 2.039 3.937.842z"/></svg>