<svg xmlns="http://www.w3.org/2000/svg" viewBox="0 0 32 32"><path d="M28.8 14.243c-.288-1.14-1.25-1.831-2.371-2.429-2.572-1.377-4.633-3.533-7.271-4.894-1.057-.542-1.574-2.178-3.177-1.003-.296.216-.734.095-.885-.353-.652-1.927-2.412-2.923-3.674-4.333C10.364.048 9.201-.763 7.988 1.119c-.346.538-.786.199-1.144.004-1.767-.957-2.375.27-2.698 1.57-.663 2.693-.891 5.479-1.783 8.14a9.349 9.349 0 0 0-.517 3.099v.036-.002c0 .825.102 1.626.295 2.39l-.014-.067c.356 1.456.17 2.649-.853 3.87-1.224 1.457-1.251 4.428-.255 5.55 1.567 1.772 2.929 3.854 5.913 3.142 1.091-.261 2.077.581 3.027 1.15 1.939 1.162 3.906 1.927 6.277 1.218 1.121-.337 2.437-.301 3.363.784h2.215c.989-1.194 2.472-1.515 3.781-2.136 3.19-1.515 4.43-3.795 3.98-7.261-.084-.646.039-1.312.035-1.968-.006-1.633 2.319-2.249 2.063-3.379-.265-1.163-2.445-1.319-2.871-3.017z"/></svg>