<svg xmlns="http://www.w3.org/2000/svg" viewBox="0 0 32 32"><path d="M1.012 16.495c.467-.08 1.055.408 1.317-.609.459-1.784 2.975-2.808 4.309-1.55 1.3 1.225 2.186 2.764 4.279 2.56.109-.011.317.309.37.505.64 2.427 2.83 3.204 4.567 4.544 1.356 1.043 3.634.761 4.248 2.992.076.28 1.566 1.238 2.477-.326 1.056-1.817.449-2.898-1.619-4.38 2.492.574 3.253-.717 4.153-1.825.759-.938 1.184-.793 1.931.085.279.329.726 1.229 1.514.753 1.072-.641 2.477-.614 3.45-1.737-.981-.53-1.885-1.309-2.851-1.399-.476-.042-1.167.547-1.619-.112-.652-.953.95-.95.906-1.904-1.769.462-3.142 1.369-4.398 2.496-.318.288-.885.837-.955.784-1.546-1.223-4.273-1.173-4.174-4.263.026-.784-1.109-2.178-2.83-2.075-2.395.139-4.712.611-6.828-1.794-1.931-2.196-4.985-3.074-8.152-2.578-.659.1-1.119.109-1.106.959.038 2.684.029 5.365.015 8.051-.001.721.408.918.997.825z"/></svg>