<svg xmlns="http://www.w3.org/2000/svg" viewBox="0 0 32 32"><path d="M5.652 2.125c.096.486.017 1.007.017 1.512.686 1.05.788 2.247 1.026 3.449.368 1.859.289 4.316 3.463 3.653.386-.084.879.344 1.318.534-.397 3.384 1.939 5.492 3.772 7.763.882 1.091 2.261.534 3.162-.241 1.002-.865-.41-1.286-.583-1.973 1.566.08 3.201-.051 2.548 2.541-.419 1.671.412 2.733 2.334 2.498.292.246.587.486.877.728-2.76 1.055-.121 2.519-.287 3.767-3.43 1.871-3.57 3.199-.551 5.313.05.036.05.149.08.231h1.004c2.141.451 2.83-.375 2.572-2.529-.217-1.823-.043-3.697-.043-5.549v-1.515c-1.987-1.573-3.285-3.458-3.239-6.161.014-.682-.896-1.132-.706-2.209.66-3.656-.571-7.179-1.188-10.737-.096-.534-.566-.908-1.103-.8-.571.115-.78.616-.571 1.18.592 1.563.25 2.476-1.561 2.787-.759.132-1.594.64-1.787 1.592a.88.88 0 0 0 .545 1.017l.012.004c.929.337 1.799.265 2.522-.532.239-.262.402-.747.952-.552 0 .918-.219 1.903.041 2.733.686 2.151.891 3.904-1.888 4.646-.313.082-.433.891-.621 1.431-1.532-1.833-3.059-3.67-4.596-5.508.542-.819.689-1.676.321-2.611-.139-.207-.68-1.593-1.204-2.988l-.397-1.205c-.229-.645.096-1.606-1.06-1.672-1.036-.056-1.004.91-1.657 1.84.303-2.021-1.238-2.963-1.491-4.455C5.954-.274 5.306.391 5.65 2.126z"/></svg>