<svg xmlns="http://www.w3.org/2000/svg" viewBox="0 0 32 32"><path d="M30.041 15c.05-1.254-.11-2.542.098-3.768.372-2.175-.61-3.093-2.607-3.361-1.872-.256-3.378-.885-3.4-3.205-.012-1.048-.732-.881-1.556-.72-1.614.318-2.771 2.354-4.209 1.92-2.375-.717-4.046 2.241-6.328.803-.039-.026-.176.018-.2.065-1.077 2.137-2.077 4.334-4.364 5.509.721 3.501-2.787 4.93-3.754 7.624C3.137 21.496.949 20.966 0 22.272c.464.545.935 1.179 1.745 1.117 1.554-.122 2.714 1.226 2.833 2.022.393 2.602 1.902.539 2.751.916.349-1.129 1.179-.408 1.81-.482 2-.241 3.545 1.209 5.344 1.465 2.488.355 5.073-.268 7.564.867-.105-4.158.45-4.826 3.418-4.82.876.003 1.297.535 1.896.926 1.607 1.047 3.22.625 4.072-1.086.785-1.578.846-3.295-.342-4.576-1.054-1.134-1.107-2.29-1.051-3.622z"/></svg>