<svg xmlns="http://www.w3.org/2000/svg" viewBox="0 0 32 32"><path d="M30.65 9.953c-.423.067-1.307.387-1.027-.473.654-2.011-.972-1.937-1.99-2.42-.755-.35-1.768-.174-2.292-1.219.517-.244 1.059-.499 1.603-.758-1.541-.814-3.494.834-4.771-1.037-.068-.099-.547-.067-.695.487-.475 1.806-1.77 2.498-3.33 1.48-1.416-.925-2.742-.805-4.21-.701-.654.05-1.341.411-1.896-.578-1.046-1.875-3.063-2.117-5.074-1.348-.907.349-2.204 1.6-2.982.59-1.118-1.442-1.598-.258-2.132.224C.641 5.301.767 7.051.045 8.433c-.325.623 1.201.102 1.265 1.068.039.617.679 1.203.71 1.812.136 2.75 1.188 2.848 3.421 2.671.893-.07 1.931-.039 2.242.452 1.271 1.999 3.077 1.727 4.918 1.485.71-.091 1.501.056.892.793-1.929 2.343 1.263 4.853-.382 7.125.089.088.186.168.29.239l.007.005c1.106.717 1.235 1.952 1.655 3.05.661 1.732 2.554 2.448 4.036 1.463 1.594-1.062 3.262-2.052 4.736-3.664-2.392-.258-1.944-2.075-2.292-3.544 1.271-.217 2.916.748 3.148.505 1.222-1.274 2.965-1.03 4.286-1.853 1.13-.705 1.708-1.315.513-2.548-1.092-1.121-1.2-2.266.551-3.017.35-.15 1.292-.39.664-.969-1.177-1.083-.035-1.283.484-1.77.35-.335 1.043-.514.761-1.184-.22-.517-.705-.682-1.3-.598z"/></svg>