<svg xmlns="http://www.w3.org/2000/svg" viewBox="0 0 32 32"><path d="M8.383 2.302c.583 1.052 1.446 1.922 1.933 3.081.23.547 1.051.592 1.771.352 1.307-.436 1.064 1.1 1.747 1.54.333.214-.088.622-.476.708-2.159.483-1.223 1.139-.13 1.862 2.46 1.634 3.926 4.207 5.77 6.389 1.365 1.619.051 3.958.595 5.938.304 1.101-.152 1.906-1.369 2.243-1.958.538-2.75 2.747-4.676 3.373-.122.039-.247.46-.239.466 1.663.913-.049 2.582.903 3.748.221-.1.496-.179.715-.336 2.23-1.601 4.059-3.744 6.677-4.823.738-.298 1.472-.779 1.669-1.658.787-3.482.46-6.831-2.14-9.431-1.491-1.488-2.944-2.962-4.275-4.602-1.195-1.475-.942-2.505.194-3.799 1.051-1.195 2.159-2.285 3.703-3.298-2.255-.676-2.91-1.001-2.758-1.8.232-1.194-.233-1.599-1.188-1.368-.994.243-1.405-1.495-2.308-.651-1.544 1.44-3.34 1.246-5.174 1.103-.698-.051-1.095.69-.944.964z"/></svg>