<svg xmlns="http://www.w3.org/2000/svg" viewBox="0 0 32 32"><path d="M1.682 23.362c.123.868.981 1.01 2.018 1.033.187-.044.618-.246 1.045-.243 1.843.023 2.851-1.922 4.616-1.957 1.537-.032 2.876-.924 4.22-1.108 2.627-.351 4.229-2.717 6.773-2.907 3.4-.256 5.263-2.828 7.494-4.848.405-.366.161-.83-.041-1.235-.335-.667-.722-1.311-1.029-1.989-1.704-3.762-1.691-3.715-5.735-3.163-3.407.464-6.705.992-8.34 4.636-.189.42-.6.691-1.282.373-3.025-1.405-6.38-.656-9.539-1.29-.212-.044-.792.49-.755.66.284 1.31-.814 2.15-1.019 3.304-.555 3.129 1.158 5.805 1.573 8.734zm30.325 1.146c-.992-.634-2.027-.741-3.065-.269-.275.129-.13.531.142.707 1.07.701 2.01.397 2.923-.438z"/></svg>