<svg xmlns="http://www.w3.org/2000/svg" viewBox="0 0 32 32"><path d="M.021 22.784c.047 3.673 2.588 5.902 6.262 5.573.975-.09 1.842.23 2.759.698 2.865 1.461 4.994.948 6.872-1.519 1.184-1.563 3.541-1.824 4.247-3.906.051-.156.367-.234.57-.322 1.038-.447 3.371.72 2.592-2.079-.023-.078 1.001-.491 1.56-.675 2.041-.672 4.099-1.317 6.412-2.058-1.078-.596-1.32-1.19-.834-2.105a9.398 9.398 0 0 0 1.163-4.558v-.032.002c0-.321-.016-.639-.046-.952l.003.04a2.864 2.864 0 0 1 .145-1.113l-.006.02-.006.02c.714-2.287.204-3.615-1.903-4.739-1.308-.695-2.764-1.185-3.923-2.069-1.785-1.357-3.606-.772-5.448-.493-1.416.213-2.456 2.035-2.231 3.528.217 1.412.236 2.817-.303 4.212-.423 1.076-.07 1.961.88 2.756.917.769 1.721 1.269 3.016.42-.724.886.769 2-.648 2.744-1.646.864-2.238-.599-2.731-1.41-.939-1.551-3.35-1.084-3.855-3.091-.07-.276-.441.067-.683.219-1.696 1.052-3.179.502-4.385-.827-.355-.393-.663-.706-1.055-.482-1.231.695-1.655-.635-2.833-1.043 0 .493.008.769 0 1.043-.106 4.456-.101 4.498-4.368 4.772-1.012.064-1.269.393-1.243 1.334.052 2.03-.008 4.064.02 6.092z"/></svg>