<svg xmlns="http://www.w3.org/2000/svg" viewBox="0 0 32 32"><path d="M31.795 9.32c.221-3.006-.446-3.314-3.502-4.156-2.145-.595-3.996-2.214-6.44-1.811-.153.026-.45-.166-.5-.317-.784-2.388-2.623-.964-3.856-.859-1.148.097-2.71.495-2.765 2.309-.018.501-.039 1.053-.725 1.208-2.764.628-4.159 2.895-5.794 4.872-.873 1.054-1.752 1.444-3.264 1.11-1.571-.349-3.222-.882-4.881-.594-.273.885.341 1.382.761 1.808 1.867 1.902 1.926 4.978 4.312 6.526 2.238 1.45 4.824 2.486 5.115 5.824.091 1.018 1.161 2.119 2.699 2.202 1.081.057 2.358.026 2.782 1.571.095.341 1.021.683 1.527.637 1.158-.103 2.172.415 3.25.532 2.723.287 5.226.524 7.299-2.265 1.764-2.374 2.031-5.401 4.019-7.571.436-.477-.047-1.003-.316-1.403-.739-1.098-.82-2.969-.486-3.428 1.473-2.015.616-4.181.764-6.194z"/></svg>