<svg xmlns="http://www.w3.org/2000/svg" viewBox="0 0 512 512"><path d="M256 16a16 32 0 0 0-16 32 16 32 0 0 0 4.67 22.57c-1.56.12-3.117.26-4.67.43-3.055.335-9 2-9 2v15.85a169.79 169.79 0 0 1 50 0V73s-5.945-1.665-9-2c-1.554-.17-3.113-.31-4.674-.43A16 32 0 0 0 272 48a16 32 0 0 0-16-32zM93.89 83.623a32 16 45 0 0-7.595 2.672 32 16 45 0 0 11.312 33.94 32 16 45 0 0 19.262 12.658 146.837 146.837 0 0 0-3 3.605c-1.922 2.397-4.948 7.78-4.948 7.78l11.248 11.247a170.27 170.27 0 0 1 35.355-35.355l-11.248-11.248s-5.382 3.026-7.78 4.95a148.79 148.79 0 0 0-3.606 3 32 16 45 0 0-12.654-19.265A32 16 45 0 0 93.89 83.623zm323.622.018a16 32 45 0 0-25.748 13.967 16 32 45 0 0-12.657 19.262 146.837 146.837 0 0 0-3.605-3c-2.397-1.922-7.78-4.948-7.78-4.948l-11.247 11.248a170.27 170.27 0 0 1 35.355 35.355l11.248-11.248s-3.026-5.382-4.95-7.78a148.79 148.79 0 0 0-3-3.606 16 32 45 0 0 19.265-12.654 16 32 45 0 0 11.312-33.94 16 32 45 0 0-8.193-2.655zM256 105a143.69 143.69 0 0 0-6.514.148c-36.83 1.558-70.215 16.253-95.59 39.538-.01.007-.018.015-.027.023a151.064 151.064 0 0 0-9.186 9.188c-23.297 25.392-37.997 58.8-39.54 95.657v.076A149.198 149.198 0 0 0 105 256c0 1.107.015 2.21.04 3.31.024 1.094.064 2.184.11 3.272 1.574 36.828 16.285 70.205 39.58 95.572a151.537 151.537 0 0 0 9.216 9.207c25.37 23.26 58.735 37.937 95.542 39.494l.2.005c.985.04 1.972.077 2.962.1a143.69 143.69 0 0 0 9.864-.108c36.83-1.558 70.215-16.253 95.59-39.538.01-.007.018-.015.027-.023a151.064 151.064 0 0 0 9.186-9.188c23.283-25.377 37.98-58.76 39.538-95.59l.005-.2c.04-.985.077-1.972.1-2.962a143.69 143.69 0 0 0-.108-9.864c-1.558-36.83-16.253-70.215-39.538-95.59-.007-.01-.015-.018-.023-.027a151.064 151.064 0 0 0-9.188-9.186c-25.377-23.283-58.76-37.98-95.59-39.538l-.2-.005a161.24 161.24 0 0 0-2.962-.1c-1.114-.025-2.23-.04-3.35-.04zm0 10.752a8 8 0 0 1 8 8 8 8 0 0 1-8 8 8 8 0 0 1-8-8 8 8 0 0 1 8-8zM256 144c1.128 0 2.25.02 3.37.055.09.002.18.01.27.01 1.08.038 2.156.087 3.23.152 25.756 1.56 49.166 11.83 67.325 27.908a112.598 112.598 0 0 1 9.696 9.697c16.073 18.162 26.34 41.574 27.895 67.332.066 1.084.114 2.17.15 3.262l.008.205c.036 1.123.057 2.25.057 3.38 0 1.128-.02 2.25-.055 3.37-.002.09-.01.18-.01.27-.038 1.08-.087 2.156-.152 3.23-1.56 25.756-11.83 49.166-27.908 67.325a112.598 112.598 0 0 1-9.697 9.696c-18.162 16.073-41.574 26.34-67.332 27.895-1.084.066-2.17.114-3.262.15l-.205.008c-1.123.036-2.25.057-3.38.057-1.128 0-2.25-.02-3.37-.055-.09-.002-.18-.01-.27-.01-1.08-.038-2.156-.087-3.23-.152-25.734-1.56-49.126-11.813-67.278-27.865l-.028-.023a113.084 113.084 0 0 1-9.67-9.666c-16.085-18.155-26.365-41.563-27.935-67.32v-.004c-.065-1.05-.113-2.103-.15-3.16l-.015-.392a106.786 106.786 0 0 1-.055-3.354c0-1.107.02-2.21.053-3.31l.015-.387c.035-1.018.08-2.034.14-3.045l.003-.06c1.547-25.783 11.824-49.218 27.915-67.393a112.598 112.598 0 0 1 9.697-9.696c18.162-16.073 41.574-26.34 67.332-27.895 1.084-.066 2.17-.114 3.262-.15l.205-.008c1.123-.036 2.25-.057 3.38-.057zm-93.396 10.486a8 8 0 0 1 5.54 2.344 8 8 0 0 1 0 11.313 8 8 0 0 1-11.314 0 8 8 0 0 1 0-11.313 8 8 0 0 1 5.774-2.344zm187.027 0a8 8 0 0 1 5.54 2.344 8 8 0 0 1 0 11.313 8 8 0 0 1-11.313 0 8 8 0 0 1 0-11.313 8 8 0 0 1 5.774-2.344zM256 162c-5.46 0-10.803.465-16 1.346V172s3.21 4.913 5.76 6c.666.284 1.355.532 2.054.756a902.932 902.932 0 0 1-2.86 37.78A40.568 40.568 0 0 1 256 215c3.843 0 7.563.548 11.098 1.55a913.911 913.911 0 0 1-2.87-37.808c.684-.22 1.36-.463 2.012-.742 2.55-1.087 5.76-6 5.76-6v-8.654A95.759 95.759 0 0 0 256 162zm-54.268 17.105a93.854 93.854 0 0 0-22.627 22.627l6.184 6.184s5.743 1.205 8.315.17c.673-.27 1.334-.582 1.987-.918a898.638 898.638 0 0 1 24.71 28.76 41.494 41.494 0 0 1 15.67-15.65 921.473 921.473 0 0 1-28.785-24.725c.33-.64.634-1.288.9-1.948 1.034-2.572-.17-8.316-.17-8.316l-6.185-6.185zm108.536 0l-6.184 6.184s-1.205 5.743-.17 8.315c.27.673.582 1.334.918 1.987a901.104 901.104 0 0 1-28.762 24.71 41.51 41.51 0 0 1 15.653 15.67 920.11 920.11 0 0 1 24.724-28.785c.64.33 1.288.634 1.948.9 2.572 1.034 8.316-.17 8.316-.17l6.185-6.185a93.854 93.854 0 0 0-22.627-22.627zM423.15 231a169.79 169.79 0 0 1 0 50H439s1.665-5.945 2-9c.17-1.554.31-3.113.43-4.674A32 16 0 0 0 464 272a32 16 0 0 0 32-16 32 16 0 0 0-32-16 32 16 0 0 0-22.57 4.67c-.12-1.56-.26-3.117-.43-4.67-.335-3.055-2-9-2-9h-15.85zm-350.084.066s-1.664 5.946-2 9c-.17 1.554-.31 3.113-.43 4.674a32 16 0 0 0-22.57-4.674 32 16 0 0 0-32 16 32 16 0 0 0 32 16 32 16 0 0 0 22.57-4.67c.12 1.56.26 3.118.43 4.67.336 3.055 2 9 2 9H88.86a169.845 169.845 0 0 1-.02-50H73.066zM256 233c-12.81 0-23 10.19-23 23s10.19 23 23 23 23-10.19 23-23-10.19-23-23-23zm84 7s-4.913 3.21-6 5.76a23.597 23.597 0 0 0-.756 2.054 902.932 902.932 0 0 1-37.78-2.86A40.568 40.568 0 0 1 297 256a40.63 40.63 0 0 1-1.55 11.098 913.911 913.911 0 0 1 37.808-2.87c.22.684.463 1.36.742 2.012 1.087 2.55 6 5.76 6 5.76h8.654a95.759 95.759 0 0 0 0-32H340zm-176.666.066a95.78 95.78 0 0 0 .023 32h8.71s4.912-3.21 6-5.76a23.8 23.8 0 0 0 .755-2.054 900.566 900.566 0 0 1 37.733 2.857A40.603 40.603 0 0 1 215 256c0-3.816.54-7.51 1.53-11.02a920.506 920.506 0 0 1-37.72 2.86 23.814 23.814 0 0 0-.744-2.014c-1.087-2.55-6-5.76-6-5.76h-8.732zM388.248 248a8 8 0 0 1 8 8 8 8 0 0 1-8 8 8 8 0 0 1-8-8 8 8 0 0 1 8-8zm-264.43.066a8 8 0 0 1 8 8 8 8 0 0 1-8 8 8 8 0 0 1-8-8 8 8 0 0 1 8-8zm167.88 28.004a41.51 41.51 0 0 1-15.67 15.653 918.918 918.918 0 0 1 28.784 24.724c-.328.64-.633 1.288-.898 1.948-1.035 2.572.17 8.316.17 8.316l6.184 6.185a93.854 93.854 0 0 0 22.627-22.627l-6.184-6.184s-5.743-1.205-8.315-.17c-.673.27-1.334.582-1.987.918a901.104 901.104 0 0 1-24.71-28.762zm-71.384.024a919.78 919.78 0 0 1-24.668 28.72c-.64-.33-1.29-.635-1.95-.9-2.57-1.035-8.313.17-8.313.17l-6.24 6.238a93.81 93.81 0 0 0 22.644 22.612l6.223-6.223s1.204-5.743.17-8.315a23.393 23.393 0 0 0-.918-1.987 901.044 901.044 0 0 1 28.722-24.678 41.486 41.486 0 0 1-15.67-15.636zm24.588 19.355a913.911 913.911 0 0 1 2.87 37.808c-.684.22-1.36.463-2.012.742-2.55 1.087-5.76 6-5.76 6v8.654a95.759 95.759 0 0 0 32 0V340s-3.21-4.913-5.76-6a23.597 23.597 0 0 0-2.054-.756 902.932 902.932 0 0 1 2.86-37.78A40.568 40.568 0 0 1 256 297a40.63 40.63 0 0 1-11.098-1.55zm-82.207 46.064a8 8 0 0 1 5.54 2.343 8 8 0 0 1 0 11.313 8 8 0 0 1-11.313 0 8 8 0 0 1 0-11.313 8 8 0 0 1 5.773-2.343zm186.936 0a8 8 0 0 1 5.54 2.343 8 8 0 0 1 0 11.313 8 8 0 0 1-11.313 0 8 8 0 0 1 0-11.313 8 8 0 0 1 5.774-2.343zm42.2 14.96a170.275 170.275 0 0 1-35.355 35.356l11.248 11.248s5.382-3.026 7.78-4.95a148.79 148.79 0 0 0 3.606-3 32 16 45 0 0 12.654 19.265 32 16 45 0 0 33.94 11.312 32 16 45 0 0-11.31-33.94 32 16 45 0 0-19.263-12.658 146.837 146.837 0 0 0 3-3.605c1.922-2.397 4.948-7.78 4.948-7.78l-11.248-11.247zm-271.62.053l-11.194 11.196s3.026 5.382 4.95 7.78a142.14 142.14 0 0 0 3 3.606A16 32 45 0 0 97.7 391.763a16 32 45 0 0-11.313 33.94 16 32 45 0 0 33.94-11.31 16 32 45 0 0 12.66-19.263 143.17 143.17 0 0 0 3.605 3c2.397 1.922 7.78 4.948 7.78 4.948l11.208-11.21a170.246 170.246 0 0 1-35.37-35.34zM256 380.247a8 8 0 0 1 8 8 8 8 0 0 1-8 8 8 8 0 0 1-8-8 8 8 0 0 1 8-8zm-25 42.903V439s5.945 1.665 9 2c1.554.17 3.113.31 4.674.43A16 32 0 0 0 240 464a16 32 0 0 0 16 32 16 32 0 0 0 16-32 16 32 0 0 0-4.67-22.57c1.56-.12 3.117-.26 4.67-.43 3.055-.335 9-2 9-2v-15.85a169.79 169.79 0 0 1-50 0z"/></svg>