<?xml version="1.0" standalone="no"?>
<!DOCTYPE svg PUBLIC "-//W3C//DTD SVG 1.1//EN" "http://www.w3.org/Graphics/SVG/1.1/DTD/svg11.dtd" >
<svg>
<metadata>
Created by FontForge 20090914 at Fri Jul 28 16:31:53 2017
 By www-data
Copyright (c) 2008 by David Occhino, David Occhino Design. All rights reserved.
</metadata>
<defs>
<font id="HocusPocusMagicBolt" horiz-adv-x="202" >
  <font-face 
    font-family="Hocus Pocus MagicBolt"
    font-weight="400"
    font-stretch="normal"
    units-per-em="1000"
    panose-1="2 0 5 9 0 0 0 2 0 4"
    ascent="750"
    descent="-250"
    x-height="362.501"
    cap-height="578.999"
    bbox="-111.997 -250.002 728.634 717.504"
    underline-thickness="50"
    underline-position="-50"
    unicode-range="U+0020-U+FB02"
  />
<missing-glyph horiz-adv-x="172" 
 />
    <glyph glyph-name=".notdef" horiz-adv-x="172" 
 />
    <glyph glyph-name="space" unicode=" " horiz-adv-x="172" 
 />
    <glyph glyph-name="space" unicode="&#xa0;" horiz-adv-x="172" 
 />
    <glyph glyph-name="exclam" unicode="!" horiz-adv-x="171" 
d="M109 118c0 -3.33301 -1.33398 -5.99414 -4.00098 -7.99414s-5.33398 -2.33301 -8.00098 -1l-17 8c-3.33301 1.33301 -6.66602 3.66602 -9.99902 6.99902s-5 6.66602 -5 9.99902c-0.666992 26.667 -1.66699 49.167 -3 67.5s-3 36.333 -5 54s-4.5 37 -7.5 58
s-6.5 47.5 -10.5 79.5c-3.33301 21.333 -5.66602 37.166 -6.99902 47.499s-2.33301 19.166 -3 26.499c-0.666992 25.333 2.66602 44.833 9.99902 58.5s20.333 19.5 39 17.5c19.333 -2 32.833 -9.83301 40.5 -23.5s10.834 -29.834 9.50098 -48.501
c-0.666992 -9.33301 -1.66699 -20.833 -3 -34.5s-3 -32.834 -5 -57.501c-2 -20 -3.5 -37 -4.5 -51s-1.66699 -27 -2 -39l-1 -36.5c-0.333008 -12.333 -0.5 -26.833 -0.5 -43.5zM71.999 81.0059c12.667 5.33301 23.833 6.49707 33.5 3.49707s17.167 -10.833 22.5 -23.5
c4.66699 -12.667 4.33398 -26.667 -0.999023 -42s-14.333 -26 -27 -32c-12 -5.33301 -23.5 -5.66602 -34.5 -0.999023s-19.167 13.334 -24.5 26.001c-4.66699 12.667 -3.83398 25.834 2.49902 39.501s15.833 23.5 28.5 29.5z" />
    <glyph glyph-name="quotedbl" unicode="&#x22;" horiz-adv-x="199" 
d="M48 332c-4 19.333 -7.66895 35.1641 -11.002 47.4971s-6 23.166 -8 32.499c0 2 -0.833008 7 -2.5 15l-5.5 25.5c-2 9 -3.66699 17.333 -5 25s-2 12.834 -2 15.501v11c0 2.66699 0.833008 5.83398 2.5 9.50098s4.66699 8 9 13s11.166 12.167 20.499 21.5
c12.667 -5.33301 21.834 -11.666 27.501 -18.999s9.5 -15 11.5 -23s2.5 -16 1.5 -24s-1.83301 -15 -2.5 -21c-2 -13.333 -3.83301 -25 -5.5 -35s-3.5 -19.833 -5.5 -29.5l-6.5 -30l-7.5 -34.5c-1.33301 -5.33301 -3.16602 -7.66602 -5.49902 -6.99902s-4.16602 3 -5.49902 7
zM147.998 331.998c-4 19.333 -7.66211 35.1641 -10.9951 47.4971s-6 23.166 -8 32.499c-0.666992 2 -1.83398 7 -3.50098 15s-3.33398 16.5 -5.00098 25.5l-4.5 25c-1.33301 7.66699 -2 12.834 -2 15.501v11c0 2.66699 0.833008 5.83398 2.5 9.50098s4.66699 8 9 13
s11.166 12.167 20.499 21.5c12 -5.33301 21 -11.666 27 -18.999s9.83301 -15 11.5 -23s2.16699 -16 1.5 -24s-1.33398 -15 -2.00098 -21c-2 -13.333 -3.83301 -25 -5.5 -35s-3.5 -19.833 -5.5 -29.5s-4.33301 -19.667 -7 -30s-5.33398 -21.833 -8.00098 -34.5
c-1.33301 -5.33301 -3 -7.66602 -5 -6.99902s-3.66699 3 -5 7z" />
    <glyph glyph-name="numbersign" unicode="#" horiz-adv-x="387" 
d="M121 331c-10 0 -17.6738 -1.16602 -23.0068 -3.49902s-9.66602 -5.16602 -12.999 -8.49902s-5.33301 -7.33301 -6 -12l-11 1c3.33301 17.333 6 32.166 8 44.499s3.66699 22.166 5 29.499c1.33301 8.66699 2.33301 16 3 22l11 -1c3.33301 -6 7.33301 -10.333 12 -13
s12.667 -4 24 -4h8l18 105c2 10 1.83301 17.5 -0.5 22.5s-6.5 9.83301 -12.5 14.5l1 9c4.66699 -0.666992 11.334 -1 20.001 -1c14.667 -0.666992 40.334 -0.666992 77.001 0l-1 -10c-2.66699 0 -5.33398 -1.33301 -8.00098 -4c-2 -2 -4.16699 -5 -6.5 -9
s-4.16602 -9.66699 -5.49902 -17c-0.666992 -1.33301 -2.83398 -12 -6.50098 -32s-8.16699 -46 -13.5 -78h60l23 130c2 10 1.83301 17.5 -0.5 22.5s-6.5 9.83301 -12.5 14.5l1 9c4.66699 -0.666992 11.334 -1 20.001 -1c14.667 -0.666992 40.334 -0.666992 77.001 0l-1 -10
c-2.66699 0 -5.33398 -1.33301 -8.00098 -4c-2 -2 -4.16699 -5 -6.5 -9s-4.16602 -9.66699 -5.49902 -17c-0.666992 -1.33301 -3.16699 -14.666 -7.5 -39.999l-16.5 -95h14c9.33301 0 16.833 1.16699 22.5 3.5s10.167 5.16602 13.5 8.49902s5.33301 7.33301 6 12l11 -1
c-3.33301 -17.333 -6 -32.166 -8 -44.499s-3.66699 -22.166 -5 -29.499c-1.33301 -8.66699 -2.33301 -16 -3 -22h-11c-3.33301 6 -7.33301 10.5 -12 13.5s-12.667 4.5 -24 4.5h-14l-25 -138c8.66699 0 15.5 1.16699 20.5 3.5s8.83301 5.16602 11.5 8.49902
s4.33398 7 5.00098 11h12l-8.5 -44.5l-5.5 -29.5c-2 -8.66699 -3 -16 -3 -22h-10c-3.33301 5.33301 -7.16602 9.5 -11.499 12.5s-11.166 4.83301 -20.499 5.5l-23 -133c-2 -9.33301 -1.83301 -16.5 0.5 -21.5s6.83301 -9.83301 13.5 -14.5l-2 -9
c-6.66699 0 -15.334 0.333008 -26.001 1c-9.33301 0.666992 -20.666 1 -33.999 1h-48l1 10c5.33301 1.33301 10.333 3.33301 15 6c4 2.66699 7.83301 6.5 11.5 11.5s6.16699 12.167 7.5 21.5c0.666992 1.33301 3 13.833 7 37.5s9.33301 53.5 16 89.5l-61 -1l-28 -159
c-1.33301 -10 -0.833008 -17.5 1.5 -22.5s6.5 -9.5 12.5 -13.5l-1 -10c-6.66699 0.666992 -15.334 1.33398 -26.001 2.00098c-9.33301 0.666992 -20.666 1 -33.999 1h-48v10c5.33301 1.33301 10.333 3.33301 15 6c4 2.66699 7.83301 6.5 11.5 11.5s6.5 11.833 8.5 20.5
c0 0.666992 0.666992 5.16699 2 13.5l5.5 33l8.5 48c3.33301 18.333 6.66602 38.166 9.99902 59.499h-27c-10 0 -17.667 -1.16699 -23 -3.5s-9.66602 -5.16602 -12.999 -8.49902s-5.33301 -7.33301 -6 -12l-11 1c3.33301 17.333 6 32.166 8 44.499s3.66699 22.166 5 29.499
c1.33301 8.66699 2.33301 16 3 22h10c3.33301 -6 7.33301 -10.5 12 -13.5s12.667 -4.5 24 -4.5h28l24 139h-8zM251.993 331.001h-61l-24 -139h60z" />
    <glyph glyph-name="dollar" unicode="$" horiz-adv-x="303" 
d="M64 127c2.66699 -15.333 6.49512 -28.1582 11.4951 -38.4912s10.833 -19.833 17.5 -28.5s14 -16.5 22 -23.5s17.333 -11.167 28 -12.5h1l-5 194c-17.333 13.333 -32.666 26.166 -45.999 38.499l-37 35.5c-10 10.667 -17.333 20 -22 28s-8 16.333 -10 25l-4 21
c-1.33301 7.33301 -1.66602 14.666 -0.999023 21.999s2.33398 15 5.00098 23s7.33398 16.333 14.001 25c14.667 19.333 29 35.333 43 48s25.333 22 34 28c2.66699 1.33301 5.16699 2.66602 7.5 3.99902s4.83301 2.66602 7.5 3.99902l-1 62l35 -11l1 -48
c0.666992 -0.666992 1.33398 -1 2.00098 -1c7.33301 -2.66699 15 -5 23 -7s17 -2.66699 27 -2c6.66699 0.666992 13 1.5 19 2.5s10.667 3.16699 14 6.5c2 2 4 5.33301 6 10l9 1l-24 -166h-10c-3.33301 14.667 -6 28.5 -8 41.5s-4.66699 22.5 -8 28.5
c-4 7.33301 -10.333 14.666 -19 21.999s-18.667 12.333 -30 15l3 -178l16 -12c37.333 -30 63.666 -56.333 78.999 -79s23.333 -46 24 -70c0 -11.333 -0.5 -23.333 -1.5 -36s-3.16699 -25.334 -6.5 -38.001s-7.83301 -24.334 -13.5 -35.001s-12.834 -19.334 -21.501 -26.001
c-5.33301 -5.33301 -11.666 -10 -18.999 -14c-6 -4 -13.167 -7.83301 -21.5 -11.5s-17.833 -6.16699 -28.5 -7.5l1 -55l-30 -2l-1 56c-10 2 -19.167 5 -27.5 9s-15.166 6.66699 -20.499 8c-10 3.33301 -19.333 2.33301 -28 -3c-4.66699 -2.66699 -8.16699 -5.5 -10.5 -8.5
s-4.83301 -7.16699 -7.5 -12.5h-8c2 14 4 29.667 6 47c1.33301 15.333 2.5 33.166 3.5 53.499s0.833008 42.833 -0.5 67.5h11zM173.995 28.0078c8.66699 3.33301 15.334 7.66602 20.001 12.999c18 21.333 26 42.333 24 63c-1.33301 16 -4.83301 30.333 -10.5 43
s-17.834 27.334 -36.501 44.001zM131.995 469.008c-8.66699 -8.66699 -17 -18.667 -25 -30c-13.333 -19.333 -18.333 -38.5 -15 -57.5s12.333 -34.833 27 -47.5c1.33301 -0.666992 3 -1.66699 5 -3c1.33301 -1.33301 3 -2.83301 5 -4.5s4.33301 -3.16699 7 -4.5z" />
    <glyph glyph-name="percent" unicode="%" horiz-adv-x="530" 
d="M359 565l29.0049 -22.001l-233 -589l-29 7l199 516c-5.33301 -3.33301 -10.833 -6.5 -16.5 -9.5s-10.834 -5.16699 -15.501 -6.5c-11.333 -4 -28.333 -5.33301 -51 -4c1.33301 -14.667 0.833008 -32.667 -1.5 -54s-6.16602 -41.333 -11.499 -60
c-4 -15.333 -9 -30.166 -15 -44.499s-12.5 -27.833 -19.5 -40.5s-14.333 -23.667 -22 -33s-15.834 -16.333 -24.501 -21c-6 -3.33301 -12.833 -5.83301 -20.5 -7.5s-15 -2.66699 -22 -3s-13.167 -0.166016 -18.5 0.500977s-9 1.66699 -11 3
c-9.33301 6 -19.333 15.167 -30 27.5s-19.667 26.166 -27 41.499c-2.66699 4.66699 -3.83398 11.167 -3.50098 19.5s1.16602 17.5 2.49902 27.5s3.33301 20.667 6 32l8 33c3.33301 16 7 31.5 11 46.5s9.16699 28.667 15.5 41s14.333 23 24 32s22.5 15.5 38.5 19.5
c3.33301 0.666992 7.16602 1.5 11.499 2.5s8.16602 2.16699 11.499 3.5c4 1.33301 8.33301 2.33301 13 3c8.66699 2.66699 17.667 3.16699 27 1.5s17 -6.16699 23 -13.5l13 -15c12.667 -8.66699 26.667 -13 42 -13c21.333 0 41 6 59 18l22 18zM408.005 299.999
c8.66699 2.66699 17.6689 3.33301 27.002 2s17 -5.66602 23 -12.999l28 -34c3.33301 -4 5.5 -11 6.5 -21s1.16699 -21.5 0.5 -34.5s-2.16699 -26.833 -4.5 -41.5s-5.16602 -28.334 -8.49902 -41.001c-4 -14.667 -9 -29.334 -15 -44.001s-12.5 -28.167 -19.5 -40.5
s-14.333 -23.333 -22 -33s-15.834 -16.834 -24.501 -21.501c-6 -3.33301 -12.833 -5.66602 -20.5 -6.99902s-15 -2.16602 -22 -2.49902s-13.167 -0.333008 -18.5 0s-9 1.16602 -11 2.49902c-9.33301 6.66699 -19.333 16 -30 28s-19.667 25.667 -27 41
c-2.66699 5.33301 -3.83398 12.166 -3.50098 20.499s1.16602 17.5 2.49902 27.5s3.33301 20.5 6 31.5s5 22.167 7 33.5l11.5 46c3.66699 14.667 8.83398 28.334 15.501 41.001s14.834 23.334 24.501 32.001s22.5 15 38.5 19c3.33301 0.666992 7.16602 1.5 11.499 2.5
s8.16602 2.16699 11.499 3.5c4 1.33301 8.33301 2.33301 13 3zM83.0068 278.998c-1.33301 -7.33301 -0.834961 -14.5 1.49805 -21.5s4.16602 -12.167 5.49902 -15.5c6.66699 -12.667 13.667 -18 21 -16c7.33301 1.33301 13 5.16602 17 11.499s7.66699 13.166 11 20.499
l10.5 27.5c3 7.66699 5.66699 15.334 8 23.001s4.5 15.5 6.5 23.5l7 29c4 18 7.16699 33.833 9.5 47.5s4.16602 28.5 5.49902 44.5v18.5c0 5 -1.66699 10.167 -5 15.5c-2 5.33301 -8.33301 5.66602 -19 0.999023c-1.33301 -0.666992 -3.16602 -1.5 -5.49902 -2.5
s-4.5 -2.16699 -6.5 -3.5c-2.66699 -1.33301 -5 -2.66602 -7 -3.99902c-7.33301 -3.33301 -12.666 -9.5 -15.999 -18.5l-10 -27.5l-11 -35.5c-3.33301 -10.333 -6.16602 -21 -8.49902 -32s-4.66602 -23.167 -6.99902 -36.5s-4.83301 -29.666 -7.5 -48.999zM334.005 52.998
c-1.33301 -7.33301 -0.835938 -14.5049 1.49707 -21.5049s4.16602 -12.167 5.49902 -15.5c6.66699 -11.333 13.667 -16.666 21 -15.999c7.33301 1.33301 13 5.33301 17 12s7.66699 13.667 11 21c4 10 7.33301 19 10 27l7.5 23l7 23c2.33301 8 4.83301 17.667 7.5 29
c4 18 7.16699 33.833 9.5 47.5s4.16602 28.834 5.49902 45.501c0 7.33301 -0.166992 13.333 -0.5 18s-1.83301 9.66699 -4.5 15c-2.66699 4.66699 -9 5.33398 -19 2.00098c-1.33301 -1.33301 -3.16602 -2.33301 -5.49902 -3s-4.5 -1.66699 -6.5 -3
c-2.66699 -1.33301 -5 -2.66602 -7 -3.99902c-7.33301 -3.33301 -12.666 -9.5 -15.999 -18.5s-6.66602 -18.5 -9.99902 -28.5l-11 -35.5c-3.33301 -10.333 -6.16602 -21 -8.49902 -32s-4.66602 -23.167 -6.99902 -36.5s-4.83301 -29.666 -7.5 -48.999z" />
    <glyph glyph-name="ampersand" unicode="&#x26;" horiz-adv-x="326" 
d="M260 158c8 22 12 42.001 12 60.001c0 9.33301 -2.66699 16.666 -8 21.999c-3.33301 2.66699 -7.83301 3.83398 -13.5 3.50098s-11.834 -0.5 -18.501 -0.5v23c6.66699 0 16.667 0.333008 30 1c11.333 0.666992 26.5 1.83398 45.5 3.50098s43.167 4.16699 72.5 7.5v-22
c-10.667 -2 -21.167 -5.16699 -31.5 -9.5s-16.5 -8.16602 -18.5 -11.499s-4 -9 -6 -17s-4.33301 -16.667 -7 -26c-1.33301 -6 -3 -11.833 -5 -17.5l-6 -16.5c-4.66699 -13.333 -9.66699 -25.833 -15 -37.5l-16 -33.5l20.5 -29c5.66699 -8 11 -14.5 16 -19.5
s10.167 -8.66699 15.5 -11s11.666 -3.5 18.999 -3.5c5.33301 0 8.83301 0.666992 10.5 2s2.83398 3 3.50098 5c0.666992 2.66699 0.166992 5 -1.5 7s-3.16699 4.66699 -4.5 8c-0.666992 2.66699 1.33301 5 6 7c2.66699 0.666992 4.66699 0.333984 6 -0.999023l5 -5
c3.33301 -4 6 -8.33301 8 -13s2 -8.66699 0 -12c-8 -13.333 -19.833 -23.333 -35.5 -30s-28.5 -10 -38.5 -10c-13.333 0 -26.5 3 -39.5 9s-26.833 18 -41.5 36c-33.333 -28.667 -66.333 -43 -99 -43c-17.333 0 -32.666 1.66699 -45.999 5s-26 14 -38 32
c-9.33301 13.333 -16.833 26.333 -22.5 39s-11.167 28.334 -16.5 47.001c-4 15.333 -1.66699 32.333 7 51c2 5.33301 4.5 10.5 7.5 15.5l9.5 15.5l28 39c11.333 15.333 26.333 32.666 45 51.999l-8.5 39.5c-2.33301 11 -4.33301 21 -6 30l-5 27l-5.5 30.5
c-3.33301 17.333 -1.83301 33.166 4.5 47.499s14.166 27.166 23.499 38.499c19.333 23.333 45.333 35 78 35c15.333 0 29 -1.5 41 -4.5s22.333 -9.83301 31 -20.5c6 -7.33301 10.333 -20.333 13 -39s5.33398 -36.334 8.00098 -53.001c2 -12 0.5 -21.667 -4.5 -29
s-11.833 -16 -20.5 -26c-8 -10 -16.833 -19.333 -26.5 -28s-23.5 -19.667 -41.5 -33c8 -25.333 16.667 -49.333 26 -72s19 -44.334 29 -65.001l13 -25c2.66699 4 5 8.16699 7 12.5s3.66699 8.5 5 12.5zM76 158.001c0 -6 0.166016 -11.335 0.499023 -16.002
s1.16602 -9.66699 2.49902 -15s3.5 -11.666 6.5 -18.999s7.5 -16.333 13.5 -27c9.33301 -18 18.5 -30 27.5 -36s18.167 -8 27.5 -6c6.66699 2 14.167 4.83301 22.5 8.5s15.5 8.5 21.5 14.5c-8 12.667 -16.167 26.667 -24.5 42s-17.166 33.333 -26.499 54
c-5.33301 11.333 -10.666 23.333 -15.999 36s-10.666 26.334 -15.999 41.001c-10.667 -12 -19.834 -24.5 -27.501 -37.5s-11.5 -25.5 -11.5 -37.5v-2zM167.999 340.999c12 11.333 21.1689 20.6689 27.502 28.002s10.666 14.166 12.999 20.499s3.33301 12.666 3 18.999
s-1.5 14.166 -3.5 23.499c-2 8 -3.66699 16.167 -5 24.5s-3.33301 15.5 -6 21.5s-5.66699 10.667 -9 14s-8 4.33301 -14 3c-11.333 -3.33301 -19.833 -8.33301 -25.5 -15s-6.83398 -18.667 -3.50098 -36c2 -12.667 4.66699 -27.667 8 -45s8.33301 -36.666 15 -57.999z" />
    <glyph glyph-name="quotesingle" unicode="'" horiz-adv-x="81" 
d="M38 332c-4 19.333 -7.66895 35.1641 -11.002 47.4971s-6 23.166 -8 32.499c0 2 -0.833008 7 -2.5 15l-5.5 25.5c-2 9 -3.66699 17.333 -5 25s-2 12.834 -2 15.501v11c0 2.66699 0.833008 5.83398 2.5 9.50098s4.66699 8 9 13s11.166 12.167 20.499 21.5
c12.667 -5.33301 21.834 -11.666 27.501 -18.999s9.5 -15 11.5 -23s2.5 -16 1.5 -24s-1.83301 -15 -2.5 -21c-2 -13.333 -3.83301 -25 -5.5 -35s-3.5 -19.833 -5.5 -29.5l-6.5 -30l-7.5 -34.5c-1.33301 -5.33301 -3.16602 -7.66602 -5.49902 -6.99902s-4.16602 3 -5.49902 7
z" />
    <glyph glyph-name="parenleft" unicode="(" horiz-adv-x="142" 
d="M165 561c-10 -12 -18.835 -24.666 -26.502 -37.999s-14.5 -27 -20.5 -41s-12 -30.333 -18 -49s-10.667 -39.667 -14 -63s-5.83301 -48.833 -7.5 -76.5s-2.5 -57.834 -2.5 -90.501c0 -40 1.83301 -77 5.5 -111s8.83398 -66 15.501 -96
c10.667 -57.333 33.334 -107 68.001 -149l-18 -21c-46 44 -80 98.5 -102 163.5s-33 136.167 -33 213.5c0 78 11 149.5 33 214.5s56 119.167 102 162.5z" />
    <glyph glyph-name="parenright" unicode=")" horiz-adv-x="151" 
d="M-2 599c46 -43.333 80.002 -97.6689 102.002 -163.002s33 -136.666 33 -213.999c0 -78 -11 -149.333 -33 -214s-56 -119 -102 -163l-16 20c17.333 20.667 31.666 43.334 42.999 68.001s20 52 26 82c12 58.667 18 127.334 18 206.001c0 33.333 -1.33301 63.833 -4 91.5
s-5.66699 53.167 -9 76.5s-7.33301 44.166 -12 62.499s-10.334 34.5 -17.001 48.5c-12 29.333 -27.667 56 -47 80z" />
    <glyph glyph-name="asterisk" unicode="*" horiz-adv-x="326" 
d="M110 399l-43.999 19.0029c-10 4 -17.5 6.83301 -22.5 8.5s-10.833 0.166992 -17.5 -4.5l-9 4c2 4.66699 4.33301 10.667 7 18c4.66699 12 12.667 31 24 57l10 -4c-0.666992 -2.66699 0 -5.66699 2 -9c1.33301 -3.33301 3.83301 -6.83301 7.5 -10.5
s9.83398 -8.16699 18.501 -13.5c4 -4 8.66699 -8 14 -12l16 -11.5c6 -4.33301 12.667 -8.5 20 -12.5l-6 67c-1.33301 11.333 -2.5 19.5 -3.5 24.5s-4.83301 9.5 -11.5 13.5v10c5.33301 0 11.666 0.333008 18.999 1c6.66699 0.666992 15 1.33398 25 2.00098s22 1.66699 36 3
l1 -11c-2 -0.666992 -4.33301 -2.33398 -7 -5.00098c-2 -2.66699 -3.83301 -6.66699 -5.5 -12s-3.16699 -12.666 -4.5 -21.999c-0.666992 -5.33301 -1.33398 -11.333 -2.00098 -18l-2.5 -19.5c-1 -7.66699 -1.83301 -15.5 -2.5 -23.5l44 34c9.33301 6.66699 16 11.667 20 15
s6 8.66602 6 15.999l9 6c3.33301 -4 7 -9.33301 11 -16l13.5 -21l20.5 -30l-9 -7c-2 2 -4.66699 3.33301 -8 4c-7.33301 1.33301 -18.666 -1.66699 -33.999 -9c-5.33301 -2.66699 -11.333 -5.33398 -18 -8.00098c-5.33301 -2.66699 -11.666 -5.5 -18.999 -8.5
s-14.666 -6.5 -21.999 -10.5l56 -25c10.667 -4 18.5 -6.66699 23.5 -8s10.833 0 17.5 4l9 -4c-2.66699 -4.66699 -5.33398 -10.667 -8.00098 -18c-2.66699 -6 -5.83398 -13.833 -9.50098 -23.5s-8.16699 -20.834 -13.5 -33.501l-11 4c1.33301 2.66699 1 5.66699 -1 9
c-1.33301 3.33301 -4 6.83301 -8 10.5s-10 8.16699 -18 13.5c-4 3.33301 -8.66699 7 -14 11l-15.5 11.5c-5.66699 4.33301 -12.167 8.83301 -19.5 13.5l5 -57c1.33301 -11.333 2.33301 -19.5 3 -24.5s4.66699 -9.16699 12 -12.5v-11
c-6 -0.666992 -12.667 -1.33398 -20 -2.00098c-6.66699 -0.666992 -15 -1.16699 -25 -1.5s-22 -1.16602 -36 -2.49902l-1 11c2 0.666992 4.33301 2.33398 7 5.00098c2 2.66699 3.83301 6.66699 5.5 12s3.16699 13 4.5 23c0.666992 5.33301 1.66699 11.666 3 18.999
c1.33301 5.33301 2.16602 11.833 2.49902 19.5s1.16602 15.834 2.49902 24.501l-45 -34c-9.33301 -6.66699 -15.833 -11.667 -19.5 -15s-5.5 -9 -5.5 -17l-9 -5c-3.33301 4 -7 9.33301 -11 16c-4 5.33301 -8.83301 12.333 -14.5 21l-20.5 30l10 6
c2 -2 4.66699 -3.33301 8 -4s7.5 -0.333984 12.5 0.999023s12.167 4 21.5 8c4.66699 1.33301 9.33398 3.33301 14.001 6c4 2 8.66699 4.16699 14 6.5s11.333 5.16602 18 8.49902z" />
    <glyph glyph-name="plus" unicode="+" horiz-adv-x="328" 
d="M63 209c-10 0 -17.499 -1.50098 -22.499 -4.50098s-8.83301 -6.16699 -11.5 -9.5c-2.66699 -4 -4.33398 -8.33301 -5.00098 -13l-11 1c1.33301 19.333 2.33301 35.666 3 48.999s1.33398 24.333 2.00098 33c0.666992 10 1 18.333 1 25l10 -1
c4 -6.66699 8.5 -11.5 13.5 -14.5s13.167 -4.5 24.5 -4.5h53v53c0 11.333 -1.5 19.5 -4.5 24.5s-8.16699 9.5 -15.5 13.5v10c6.66699 0 15 0.333008 25 1c8.66699 0.666992 19.667 1.33398 33 2.00098s29.666 1.66699 48.999 3l1 -11
c-5.33301 -0.666992 -10 -2.33398 -14 -5.00098c-3.33301 -2.66699 -6.33301 -6.66699 -9 -12s-4 -12.666 -4 -21.999v-57h57c9.33301 0 16.666 1.33301 21.999 4s9.33301 5.66699 12 9c2.66699 4 4.33398 8.66699 5.00098 14l11 -1
c-1.33301 -19.333 -2.33301 -35.833 -3 -49.5s-1.33398 -24.834 -2.00098 -33.501c-0.666992 -10 -1 -18 -1 -24h-10c-4 7.33301 -8.5 12.5 -13.5 15.5s-13.167 4.5 -24.5 4.5h-53v-53c0 -11.333 1.5 -19.666 4.5 -24.999s7.83301 -9.66602 14.5 -12.999l1 -10
c-6.66699 0 -15 -0.333008 -25 -1c-8.66699 -0.666992 -19.667 -1.33398 -33 -2.00098s-29.666 -1.66699 -48.999 -3l-1 11c4.66699 0.666992 9 2.33398 13 5.00098c3.33301 2.66699 6.5 6.5 9.5 11.5s4.5 12.5 4.5 22.5v57h-57z" />
    <glyph glyph-name="comma" unicode="," horiz-adv-x="113" 
d="M6 -134c8 13.333 15.499 26.665 22.499 39.998s10.5 27.666 10.5 42.999c0 2 -1.16699 7 -3.5 15l-7 25l-7 25c-2.33301 8 -3.5 13 -3.5 15c0 4.66699 -0.166992 8.33398 -0.5 11.001s0.333984 5.83398 2.00098 9.50098s4.5 8 8.5 13s10.667 12.167 20 21.5
c12 -5.33301 21.167 -11.5 27.5 -18.5s10.833 -14.5 13.5 -22.5s4 -16 4 -24v-22c0 -10 -0.833008 -21.333 -2.5 -34s-5.33398 -25.167 -11.001 -37.5s-14 -24.166 -25 -35.499s-25.833 -21 -44.5 -29c-1.33301 -0.666992 -2.66602 -0.5 -3.99902 0.5s-1.33301 2.5 0 4.5z
" />
    <glyph glyph-name="hyphen" unicode="-" horiz-adv-x="245" 
d="M67 208c-9.33301 -0.666992 -16.502 -2.33496 -21.502 -5.00195s-8.83301 -5.66699 -11.5 -9c-2.66699 -4 -4.33398 -8.66699 -5.00098 -14l-12 1c1.33301 19.333 2.16602 35.833 2.49902 49.5s0.833008 24.834 1.5 33.501c0.666992 10 1 18 1 24h10
c4 -7.33301 8.5 -12.5 13.5 -15.5s13.167 -4.16699 24.5 -3.5c16.667 0 31.667 0.333008 45 1c11.333 0 22.333 0.166992 33 0.5s17 0.5 19 0.5c9.33301 0 16.5 1.5 21.5 4.5s8.83301 6.16699 11.5 9.5c2.66699 4 4.33398 8.33301 5.00098 13l12 -1
c-1.33301 -19.333 -2.16602 -35.666 -2.49902 -48.999s-0.833008 -24.333 -1.5 -33c-0.666992 -10 -1 -18 -1 -24h-10c-4 6.66699 -8.5 11.5 -13.5 14.5s-13.167 4.5 -24.5 4.5c-17.333 -0.666992 -32.666 -1 -45.999 -1c-11.333 -0.666992 -22.166 -1 -32.499 -1h-18.5z
" />
    <glyph glyph-name="period" unicode="." horiz-adv-x="142" 
d="M44 82c12.667 5.33301 23.8301 6.49902 33.4971 3.49902s16.834 -11.167 21.501 -24.5c2 -6 2.83301 -12.667 2.5 -20s-1.66602 -14.5 -3.99902 -21.5s-5.83301 -13.333 -10.5 -19s-10 -9.83398 -16 -12.501c-12.667 -5.33301 -24.5 -5.66602 -35.5 -0.999023
s-18.833 13.334 -23.5 26.001c-4.66699 13.333 -3.66699 26.833 3 40.5s16.334 23.167 29.001 28.5z" />
    <glyph glyph-name="slash" unicode="/" horiz-adv-x="176" 
d="M201 569l-19 -71l-33 -121l-40 -146.5l-40 -148l-34 -126.5l-21 -80l-33 16l175 699z" />
    <glyph glyph-name="zero" unicode="0" horiz-adv-x="254" 
d="M163 337c-2 11.333 -4.33301 22.6729 -7 34.0059s-5.5 21.333 -8.5 30s-6.16699 15.667 -9.5 21s-7 7.66602 -11 6.99902c-6.66699 -0.666992 -12.334 -4.83398 -17.001 -12.501s-8.5 -16.834 -11.5 -27.501s-5.33301 -22.334 -7 -35.001
s-2.83398 -24.334 -3.50098 -35.001c-1.33301 -17.333 -2.16602 -32 -2.49902 -44s-0.5 -23.833 -0.5 -35.5s0.333008 -24.5 1 -38.5s1.66699 -31.333 3 -52c0.666992 -13.333 2.33398 -28.333 5.00098 -45s6 -32.334 10 -47.001s8.16699 -26.667 12.5 -36
s9.16602 -13 14.499 -11c6 2 11 8 15 18s7.5 22 10.5 36s5.5 29.167 7.5 45.5s3.5 32.333 4.5 48s1.83301 30 2.5 43s1 22.833 1 29.5c0 16.667 -0.666992 33 -2 49s-3.66602 35.333 -6.99902 58zM133 -26.9932c-24.667 -0.666992 -44.832 5.66895 -60.499 19.002
s-28.167 31.166 -37.5 53.499s-15.833 48 -19.5 77s-5.5 59.5 -5.5 91.5c0 34.667 1.83301 67.167 5.5 97.5s10 56.666 19 78.999s21.167 40 36.5 53s34.666 19.833 57.999 20.5c8.66699 0 17.667 -2.33301 27 -7s17.333 -10 24 -16c49.333 -46.667 71.333 -110.667 66 -192
c-2 -36.667 -4.83301 -71.5 -8.5 -104.5s-9.66699 -62.167 -18 -87.5s-19.333 -45.5 -33 -60.5s-31.5 -22.833 -53.5 -23.5z" />
    <glyph glyph-name="one" unicode="1" horiz-adv-x="135" 
d="M89 458c1.33301 1.33301 2.83105 2.49805 4.49805 3.49805s3.16699 0.833008 4.5 -0.5c2.66699 -0.666992 4 -3 4 -7v-18.5v-45.5c0 -18.667 0.166992 -39.667 0.5 -63s0.5 -47.333 0.5 -72c0 -57.333 0.333008 -122.666 1 -195.999c0 -15.333 3 -30.166 9 -44.499
s16.667 -26.166 32 -35.499v-6l-29 6l-26 4.5l-26 4.5c-6.66699 0.666992 -13.834 1 -21.501 1h-21.5h-23l1 7c8.66699 6.66699 15.834 15.834 21.501 27.501s8.5 24.167 8.5 37.5v300v5c0 2.66699 -0.666992 4.66699 -2 6c-0.666992 2 -2 4 -4 6
c-3.33301 2.66699 -7.66602 4.33398 -12.999 5.00098c-5.33301 1.33301 -8 2.66602 -8 3.99902c-0.666992 1.33301 -0.666992 2.16602 0 2.49902s1.33398 1.16602 2.00098 2.49902l21 16.5l19.5 14.5l20.5 15.5z" />
    <glyph glyph-name="two" unicode="2" horiz-adv-x="251" 
d="M11 -8c0 11.333 1.33594 24.4971 4.00293 39.4971s6.16699 30.333 10.5 46s9.83301 30.667 16.5 45s14 26.5 22 36.5c2.66699 4 7.33398 10.167 14.001 18.5l21.5 26.5l22 27.5c7 9 12.167 16.167 15.5 21.5c13.333 20 21.833 39.833 25.5 59.5
s0.833984 37.5 -8.49902 53.5c-4 7.33301 -8.33301 14.333 -13 21s-8.66699 11 -12 13c-6 4 -11.5 4.33301 -16.5 1s-9.5 -8.33301 -13.5 -15s-7.66699 -14.167 -11 -22.5l-9 -22.5c-4.66699 -12 -8.5 -22.5 -11.5 -31.5s-4.5 -17 -4.5 -24s1.83301 -12.5 5.5 -16.5
s10.167 -7 19.5 -9l2 -13c-10.667 -2 -20.334 -1.66699 -29.001 1c-8 2 -15.833 6.16699 -23.5 12.5s-13.167 16.5 -16.5 30.5c-4.66699 18 -4.83398 37.333 -0.500977 58s15.166 40 32.499 58l14 14.5c5.33301 5.66699 10.833 11 16.5 16s11 9.5 16 13.5
s9.16699 6.66699 12.5 8c6 2.66699 13.5 3.33398 22.5 2.00098s16.833 -4.66602 23.5 -9.99902c8 -6 18.5 -15 31.5 -27s23.833 -28.333 32.5 -49c2.66699 -6.66699 5.16699 -15.5 7.5 -26.5s3.16602 -23 2.49902 -36s-3.16699 -27 -7.5 -42s-11.833 -29.833 -22.5 -44.5
l-78 -99c-8.66699 -10 -15.5 -22.667 -20.5 -38s-9.16699 -30.666 -12.5 -45.999l58 -6c9.33301 -1.33301 17.833 -2.33301 25.5 -3s14.667 0 21 2s12.166 6.5 17.499 13.5s10.333 18.167 15 33.5h8c-3.33301 -16 -5.5 -30.833 -6.5 -44.5s-1.5 -25.167 -1.5 -34.5
c0 -12 0.333008 -22.333 1 -31l-189 17c-4 0 -7.66699 0.166992 -11 0.5s-6.33301 0.5 -9 0.5s-5.66699 0.333008 -9 1z" />
    <glyph glyph-name="three" unicode="3" horiz-adv-x="241" 
d="M70 195c13.333 16 22.999 27.3389 28.999 34.0059s11.667 13.667 17 21c16.667 21.333 25.834 41.5 27.501 60.5s-0.833008 35.167 -7.5 48.5c-3.33301 7.33301 -7.66602 15.333 -12.999 24s-9.33301 14 -12 16c-3.33301 2.66699 -7.5 2.33398 -12.5 -0.999023
s-10.167 -8.33301 -15.5 -15s-10.333 -14 -15 -22s-8.33398 -15.333 -11.001 -22c-9.33301 -22 -14.166 -39.5 -14.499 -52.5s7.5 -21.167 23.5 -24.5l2 -13c-9.33301 -2 -17.666 -1.66699 -24.999 1c-6.66699 2 -13.334 6 -20.001 12s-11.667 16.333 -15 31
c-4 18 -4.5 35.667 -1.5 53s11.833 35 26.5 53c3.33301 4.66699 7.83301 10.167 13.5 16.5s11.667 12.5 18 18.5l17.5 16c5.33301 4.66699 9.66602 7.66699 12.999 9c5.33301 2.66699 13.166 3.33398 23.499 2.00098s18.5 -4.66602 24.5 -9.99902
c3.33301 -2.66699 8 -6.66699 14 -12s12.167 -11.833 18.5 -19.5s12.166 -16.167 17.499 -25.5s9 -19.333 11 -30c5.33301 -26.667 5.66602 -51.334 0.999023 -74.001s-17.667 -46.667 -39 -72c5.33301 -4 10 -8.66699 14 -14c2.66699 -2 5 -4.16699 7 -6.5
s4 -4.83301 6 -7.5l14.5 -19.5c4.33301 -5.66699 7.83301 -12 10.5 -19s4.83398 -15 6.50098 -24s2.5 -19.833 2.5 -32.5c0.666992 -23.333 -2.5 -47.333 -9.5 -72s-14.833 -45 -23.5 -61c-14 -26 -30 -43.667 -48 -53s-41.333 -12.666 -70 -9.99902
c-8.66699 0.666992 -17.167 2.5 -25.5 5.5s-14.166 3.5 -17.499 1.5c-4 -2.66699 -7 -5.33398 -9 -8.00098s-4 -6.33398 -6 -11.001h-7c2 15.333 3.66699 31.666 5 48.999c1.33301 15.333 2.33301 32.666 3 51.999s0.333984 40.333 -0.999023 63h9
c2.66699 -14 5 -24.833 7 -32.5s5.66699 -17.167 11 -28.5c5.33301 -12.667 11.833 -23.834 19.5 -33.501s18.167 -13.5 31.5 -11.5c11.333 2 19.333 6.83301 24 14.5s8.66699 17.834 12 30.501l7 25c2.66699 9.33301 5 18.666 7 27.999s3.66699 18.166 5 26.499
s2 15.166 2 20.499c0 19.333 -3.33301 34.666 -10 45.999s-14.667 20.666 -24 27.999c-6 5.33301 -13.5 11 -22.5 17s-17.833 10.667 -26.5 14z" />
    <glyph glyph-name="four" unicode="4" horiz-adv-x="248" 
d="M5 79l55 161c7.33301 20.667 15 41.167 23 61.5l23 56c7.33301 17 14.166 31.5 20.499 43.5s12.166 20 17.499 24c3.33301 2.66699 7.33301 5.66699 12 9s9 6.66602 13 9.99902l15 11c1.33301 1.33301 3.33301 3 6 5s4.66699 2.33301 6 1c2.66699 -0.666992 4 -3 4 -7
l1 -361c6.66699 0.666992 11.834 2.16699 15.501 4.5s6.16699 4.83301 7.5 7.5c2 2.66699 3 6 3 10l9 -1c-0.666992 -14.667 -0.833984 -27.834 -0.500977 -39.501s0.833008 -21.834 1.5 -30.501c0.666992 -10 1.33398 -19 2.00098 -27l-8 -2c-2 4.66699 -5.33301 9 -10 13
s-11 5.66699 -19 5v-65c0 -15.333 2 -30.166 6 -44.499s12.333 -26.166 25 -35.499v-7c-8 2 -16 4.33301 -24 7c-7.33301 2 -15.166 3.66699 -23.499 5l-24.5 4c-6.66699 0.666992 -13.667 1 -21 1h-21h-23v7c9.33301 6.66699 16.833 15.834 22.5 27.501
s8.5 24.167 8.5 37.5v57l-122 -8v60zM127 88l0.999023 238c-8 -18 -16.167 -38.167 -24.5 -60.5s-16.166 -44.833 -23.499 -67.5l-21 -64.5c-6.66699 -20.333 -12 -37.5 -16 -51.5z" />
    <glyph glyph-name="five" unicode="5" horiz-adv-x="242" 
d="M78 413c-1.33301 -21.333 -2.33691 -44.667 -3.00391 -70s-1.33398 -47.333 -2.00098 -66c12 2.66699 22 5 30 7s15 3.16699 21 3.5s11.667 0 17 -1s11 -2.83301 17 -5.5c8 -3.33301 14.5 -8.33301 19.5 -15s9.83301 -13.667 14.5 -21c10.667 -16 20 -32.667 28 -50
s12 -38.666 12 -63.999c0 -24 -3.83301 -48.833 -11.5 -74.5s-16.834 -48.5 -27.501 -68.5c-7.33301 -15.333 -14.166 -27.166 -20.499 -35.499s-12.666 -15 -18.999 -20s-13.5 -8.66699 -21.5 -11s-17.333 -4.5 -28 -6.5c-9.33301 -1.33301 -17.5 -1.83301 -24.5 -1.5
s-13.167 1.16602 -18.5 2.49902c-4.66699 0.666992 -9.66699 4 -15 10s-10.333 12.667 -15 20c-5.33301 8 -10.666 17.333 -15.999 28l9 8c5.33301 -8.66699 10.833 -16.167 16.5 -22.5s10.834 -9.83301 15.501 -10.5c17.333 -1.33301 31.666 0.333984 42.999 5.00098
c13.333 4.66699 22.833 15 28.5 31s10.5 31 14.5 45c2 7.33301 4 15.5 6 24.5s3.66699 18 5 27s2.5 17.333 3.5 25s1.5 14.167 1.5 19.5c0 10 -1 19.833 -3 29.5s-4.66699 18.5 -8 26.5s-7 14.833 -11 20.5s-8 9.5 -12 11.5c-3.33301 2 -7.5 2.83301 -12.5 2.5
s-11.333 -1.16602 -19 -2.49902s-17 -3.16602 -28 -5.49902s-24.5 -4.83301 -40.5 -7.5c-0.666992 19.333 -1.66699 40 -3 62c-1.33301 19.333 -2.5 41.666 -3.5 66.999s-2.16699 52 -3.5 80l-15 42l12 1v1l57 1c27.333 1.33301 49.833 2.66602 67.5 3.99902
s31.834 2.66602 42.501 3.99902c12 1.33301 21.667 2.66602 29 3.99902c-1.33301 -13.333 -2.66602 -27.666 -3.99902 -42.999c-1.33301 -13.333 -2.16602 -28.333 -2.49902 -45s0.166992 -34 1.5 -52l-8 -3c-2 11.333 -6.33301 23.666 -13 36.999
s-11.667 22.666 -15 27.999c-6.66699 10.667 -14.5 18.334 -23.5 23.001s-21.167 5.66699 -36.5 3z" />
    <glyph glyph-name="six" unicode="6" horiz-adv-x="258" 
d="M183 417c8 12 10.8301 21.167 8.49707 27.5s-6.16602 11.833 -11.499 16.5l-15 13.5c-3.33301 3 -7.66602 1.83301 -12.999 -3.5c-6.66699 -6.66699 -11.5 -12 -14.5 -16s-6.16699 -8.66699 -9.5 -14c-4 -8.66699 -7.5 -17.167 -10.5 -25.5s-5.33301 -17.166 -7 -26.499
s-3.16699 -19.833 -4.5 -31.5s-2.66602 -25.167 -3.99902 -40.5c-0.666992 -2 -0.666992 -3.33301 0 -4s1.33398 -0.666992 2.00098 0c6 4 11 6.33301 15 7c4 2 8 3.33301 12 4s8.33301 1.33398 13 2.00098c12 0 24 -3.16699 36 -9.5s22.667 -16.166 32 -29.499
c4.66699 -6.66699 8.33398 -13 11.001 -19s5 -12.833 7 -20.5s3.83301 -16.334 5.5 -26.001s3.16699 -21.834 4.5 -36.501c2 -15.333 3.33301 -29.166 4 -41.499s0.166992 -24.5 -1.5 -36.5s-5 -24.667 -10 -38s-12.167 -29 -21.5 -47
c-12.667 -23.333 -25.334 -37.5 -38.001 -42.5s-26 -7.5 -40 -7.5c-15.333 -0.666992 -29.833 2.16602 -43.5 8.49902s-26.167 19.5 -37.5 39.5c-5.33301 10 -10 20.5 -14 31.5s-7.5 23.5 -10.5 37.5s-5.33301 30.167 -7 48.5s-2.83398 39.5 -3.50098 63.5
c-2 49.333 0.833008 94 8.5 134s22.167 76 43.5 108c19.333 29.333 44 52.666 74 69.999c6 3.33301 11.167 5.66602 15.5 6.99902s9 1 14 -1s10.833 -5.5 17.5 -10.5s15 -12.167 25 -21.5c2.66699 -2.66699 4.5 -7.16699 5.5 -13.5s0.666992 -13.166 -1 -20.499
s-4.5 -15 -8.5 -23s-9.66699 -14.667 -17 -20zM99.9971 281c-1.33301 -2.66699 -2.33398 -5.83301 -3.00098 -9.5s-1.33398 -8.5 -2.00098 -14.5v-12c0 -4.66699 -0.333008 -10 -1 -16v-40l3 -73c0.666992 -10 1.16699 -19.667 1.5 -29s1.16602 -18 2.49902 -26
c1.33301 -9.33301 2.83301 -16.666 4.5 -21.999s3.83398 -11.333 6.50098 -18c4.66699 -12.667 12.334 -19 23.001 -19c5.33301 0 10.5 5.5 15.5 16.5s9.16699 23.167 12.5 36.5c4.66699 14.667 7.33398 29.667 8.00098 45s-0.333008 33.666 -3 54.999
c-2 16 -3.5 29 -4.5 39s-2 18.167 -3 24.5s-2.33301 12 -4 17l-5.5 16.5c-5.33301 13.333 -10.333 22.833 -15 28.5s-10.667 8.5 -18 8.5c-8.66699 0 -14.667 -2.66699 -18 -8z" />
    <glyph glyph-name="seven" unicode="7" horiz-adv-x="219" 
d="M12 457c38 -1.33301 69.834 -1.66895 95.501 -1.00195s46.5 1.33398 62.5 2.00098c18.667 0.666992 34 1.66699 46 3l-124 -538l-27 -6c-8 -1.33301 -16.667 -3.16602 -26 -5.49902l-26 -6.5c-4.66699 -0.666992 -6.33398 1 -5.00098 5l142 490
c0 1.33301 -0.166992 2.5 -0.5 3.5s-0.5 1.83301 -0.5 2.5l-85 -7c-8 0 -14 -1.16699 -18 -3.5s-7.66699 -5.5 -11 -9.5c-4 -4 -6.83301 -10.5 -8.5 -19.5s-4.16699 -21.167 -7.5 -36.5l-9 1z" />
    <glyph glyph-name="eight" unicode="8" horiz-adv-x="255" 
d="M129 -27c-18.667 -1.33301 -35.6641 2.33105 -50.9971 10.998s-28.5 20.167 -39.5 34.5s-19.5 31.166 -25.5 50.499s-9.33301 39.333 -10 60c-0.666992 23.333 3.66602 48 12.999 74s26.666 53 51.999 81c-14.667 20 -25.334 38 -32.001 54s-10.334 34.333 -11.001 55
c-0.666992 17.333 3.16602 33.833 11.499 49.5s18 29.334 29 41.001s22.333 21 34 28s20.834 10.5 27.501 10.5c8 0 17.833 -4 29.5 -12s22.834 -18.167 33.501 -30.5s19.834 -25.833 27.501 -40.5s11.5 -29 11.5 -43c0.666992 -18.667 -1.83301 -34.5 -7.5 -47.5
s-12.167 -23.833 -19.5 -32.5l-23 -29c0 -0.666992 0.666992 -1.66699 2 -3c0.666992 -1.33301 1.5 -2.33301 2.5 -3s2.16699 -1.66699 3.5 -3c8.66699 -9.33301 17 -19 25 -29s15 -20.833 21 -32.5s10.667 -24 14 -37s4.66602 -27.167 3.99902 -42.5
c-1.33301 -20.667 -6 -40.667 -14 -60s-17.833 -36.666 -29.5 -51.999s-24.5 -27.666 -38.5 -36.999s-27.333 -14.333 -40 -15zM126.003 229.997l-4 3.99805c-2 2 -4.33301 4.16699 -7 6.5s-5.16699 4.33301 -7.5 6s-3.83301 2.5 -4.5 2.5
c-4 -5.33301 -8.16699 -12.666 -12.5 -21.999s-8.5 -19.333 -12.5 -30s-7.33301 -21.5 -10 -32.5s-4 -21.5 -4 -31.5c0 -9.33301 1.33301 -21 4 -35s6.66699 -27.5 12 -40.5s11.666 -24.167 18.999 -33.5s15.333 -14 24 -14c4.66699 0 10.334 3 17.001 9s13 14.167 19 24.5
s11 22.333 15 36s6 27.834 6 42.501c0 42 -18 78 -54 108zM123.003 464.995c-1.33301 -0.666992 -3.83008 -2.83398 -7.49707 -6.50098s-7.5 -8.16699 -11.5 -13.5s-7.5 -11.166 -10.5 -17.499s-4.5 -12.166 -4.5 -17.499c-0.666992 -20 3.16602 -36.833 11.499 -50.5
s21.5 -26.167 39.5 -37.5c14.667 19.333 23.5 35.166 26.5 47.499s3.83301 23.5 2.5 33.5c-0.666992 6 -2.83398 12.833 -6.50098 20.5s-7.83398 14.667 -12.501 21s-9.5 11.5 -14.5 15.5s-9.16699 5.66699 -12.5 5z" />
    <glyph glyph-name="nine" unicode="9" horiz-adv-x="249" 
d="M68 18c-8 -12 -10.666 -21.1641 -7.99902 -27.4971s6.33398 -11.833 11.001 -16.5c6 -5.33301 11 -9.5 15 -12.5s8.33301 -2.16699 13 2.5c7.33301 6 12.333 11 15 15s5.66699 9 9 15c4.66699 8.66699 8.33398 17.167 11.001 25.5s5 17.166 7 26.499s3.5 19.833 4.5 31.5
l3.5 40.5c1.33301 4 0.666016 5.33301 -2.00098 4c-2.66699 -2 -5.33398 -3.5 -8.00098 -4.5s-5 -2.16699 -7 -3.5c-8.66699 -3.33301 -17 -5 -25 -5c-12 0 -24 3.16699 -36 9.5s-22.667 16.166 -32 29.499c-4.66699 6.66699 -8.33398 13 -11.001 19s-5 12.667 -7 20
s-3.66699 16 -5 26l-5 37c-2 15.333 -3.33301 29.166 -4 41.499s-0.166992 24.5 1.5 36.5s5 24.667 10 38s12.167 29 21.5 47c6 11.333 12.167 20.333 18.5 27s12.833 11.667 19.5 15s13.167 5.5 19.5 6.5s13.166 1.5 20.499 1.5c15.333 0 29.833 -3 43.5 -9
s26.167 -19.333 37.5 -40c6 -10 11 -20.5 15 -31.5s7.33301 -23.5 10 -37.5s4.83398 -30 6.50098 -48s3.16699 -39 4.5 -63c2 -49.333 -0.833008 -94.166 -8.5 -134.499s-22.167 -76.5 -43.5 -108.5c-21.333 -29.333 -46.333 -52.333 -75 -69
c-12 -7.33301 -21.667 -10.333 -29 -9s-18.333 9.66602 -33 24.999c-11.333 11.333 -15.833 25.833 -13.5 43.5s10.5 32.167 24.5 43.5zM151.001 153.003c2 4 3.66797 12 5.00098 24c0 3.33301 0.166992 7.33301 0.5 12s0.5 10.334 0.5 17.001v39l-2 73
c-0.666992 10.667 -1.33398 19.167 -2.00098 25.5s-1.66699 13.166 -3 20.499c-2 18 -5.66699 34 -11 48c-4.66699 12.667 -12 19 -22 19c-5.33301 0.666992 -10.5 -4.33301 -15.5 -15s-9.5 -23 -13.5 -37c-4 -14.667 -6.5 -29.5 -7.5 -44.5s-0.166992 -33.5 2.5 -55.5
c2 -16 3.5 -29 4.5 -39s2 -18.167 3 -24.5s2.33301 -11.833 4 -16.5l5.5 -16c9.33301 -24.667 20.333 -37 33 -37c9.33301 0 15.333 2.33301 18 7z" />
    <glyph glyph-name="colon" unicode=":" horiz-adv-x="142" 
d="M90 255c-8 -11.333 -17.166 -17.999 -27.499 -19.999s-20.5 1.33301 -30.5 10c-10.667 8.66699 -17.334 21 -20.001 37s0 29.667 8 41s18 17.666 30 18.999s23 -2.66699 33 -12c10.667 -8.66699 16.5 -20.5 17.5 -35.5s-2.5 -28.167 -10.5 -39.5zM44.001 82.001
c12.667 5.33301 23.8301 6.49902 33.4971 3.49902s16.834 -11.167 21.501 -24.5c2 -6 2.83301 -12.667 2.5 -20s-1.66602 -14.5 -3.99902 -21.5s-5.83301 -13.333 -10.5 -19s-10 -9.83398 -16 -12.501c-12.667 -5.33301 -24.5 -5.66602 -35.5 -0.999023
s-18.833 13.334 -23.5 26.001c-4.66699 13.333 -3.66699 26.833 3 40.5s16.334 23.167 29.001 28.5z" />
    <glyph glyph-name="semicolon" unicode=";" horiz-adv-x="131" 
d="M6 -134c8 13.333 15.499 26.665 22.499 39.998s10.5 27.666 10.5 42.999c0 2 -1.16699 7 -3.5 15l-7 25l-7 25c-2.33301 8 -3.5 13 -3.5 15c0 4.66699 -0.166992 8.33398 -0.5 11.001s0.333984 5.83398 2.00098 9.50098s4.5 8 8.5 13s10.667 12.167 20 21.5
c12 -5.33301 21.167 -11.5 27.5 -18.5s10.833 -14.5 13.5 -22.5s4 -16 4 -24v-22c0 -10 -0.833008 -21.333 -2.5 -34s-5.33398 -25.167 -11.001 -37.5s-14 -24.166 -25 -35.499s-25.833 -21 -44.5 -29c-1.33301 -0.666992 -2.66602 -0.5 -3.99902 0.5s-1.33301 2.5 0 4.5z
M88.999 248.999c-8 -11.333 -16.999 -17.999 -26.999 -19.999s-20.333 1.33301 -31 10s-17.334 21 -20.001 37s0 29.667 8 41s18 17.666 30 18.999s23.333 -2.66699 34 -12c10 -8.66699 15.5 -20.5 16.5 -35.5s-2.5 -28.167 -10.5 -39.5z" />
    <glyph glyph-name="less" unicode="&#x3c;" horiz-adv-x="391" 
d="M25 272l332 170l-9 -73l-260 -129l259 -136l-5 -64l-327 177z" />
    <glyph glyph-name="equal" unicode="=" horiz-adv-x="330" 
d="M65 137c-9.33301 0 -16.666 -1.5 -21.999 -4.5s-9.33301 -6.16699 -12 -9.5c-2.66699 -4 -4.33398 -8.33301 -5.00098 -13l-11 1c1.33301 19.333 2.33301 35.666 3 48.999s1.33398 24.333 2.00098 33c0.666992 10 1 18.333 1 25h10c4 -7.33301 8.5 -12.5 13.5 -15.5
s13.167 -4.5 24.5 -4.5h171c9.33301 0 16.666 1.33301 21.999 4s9.33301 5.66699 12 9c2.66699 4 4.33398 8.66699 5.00098 14l11 -1c-1.33301 -19.333 -2.33301 -35.666 -3 -48.999s-1.33398 -24.333 -2.00098 -33c-0.666992 -10 -1 -18.333 -1 -25h-10
c-4 7.33301 -8.5 12.5 -13.5 15.5s-13.167 4.5 -24.5 4.5h-171zM72 283c-10 -0.666992 -17.4971 -2.33203 -22.4971 -4.99902s-8.83301 -5.66699 -11.5 -9c-2.66699 -4 -4.33398 -8.33301 -5.00098 -13l-11 1c1.33301 19.333 2.33301 35.666 3 48.999
s1.33398 24.333 2.00098 33c0.666992 10 1 18 1 24h10c3.33301 -6.66699 7.66602 -11.667 12.999 -15s13.666 -5 24.999 -5h82c21.333 0 41 0.166992 59 0.5s28 0.5 30 0.5c9.33301 0 16.666 1.33301 21.999 4s9.33301 5.66699 12 9s4.33398 7.66602 5.00098 12.999l11 -1
c-1.33301 -19.333 -2.33301 -35.666 -3 -48.999s-1.33398 -24.333 -2.00098 -33c-0.666992 -10 -1 -18 -1 -24h-10c-4 7.33301 -8.5 12.5 -13.5 15.5s-13.167 4.5 -24.5 4.5h-171z" />
    <glyph glyph-name="greater" unicode="&#x3e;" horiz-adv-x="393" 
d="M347 210l-332 -170l9 73l260 129l-259 136l5 64l327 -177z" />
    <glyph glyph-name="question" unicode="?" horiz-adv-x="259" 
d="M89 134c1.33301 25.333 4.50195 53.5 9.50195 84.5s13.833 62.833 26.5 95.5l16.5 42.5l11 29.5c3 8 5 14.833 6 20.5s1.16699 11.167 0.5 16.5l-3 10c-4.66699 12.667 -10.667 21.167 -18 25.5s-12 7.16602 -14 8.49902c-8.66699 4 -19.667 1.66699 -33 -7
s-25.333 -20 -36 -34c-1.33301 -1.33301 -2.33301 -3.83301 -3 -7.5s1 -7.16699 5 -10.5c6 -4.66699 11.5 -7.16699 16.5 -7.5s9.66699 0.166992 14 1.5s8.33301 3 12 5s7.16699 3 10.5 3l4 -11l-35 -20c-2 -1.33301 -4.33301 -2.33301 -7 -3
c-5.33301 -1.33301 -10 -2 -14 -2c-6 -0.666992 -13.333 -0.833984 -22 -0.500977s-16 5.5 -22 15.5c-2.66699 3.33301 -4.66699 6.5 -6 9.5s-2.33301 7.16699 -3 12.5c-0.666992 6.66699 3.16602 16.834 11.499 30.501s17.166 26.5 26.499 38.5
c11.333 14.667 22.833 27.834 34.5 39.501s23.834 18.834 36.501 21.501c6 0.666992 13.333 -1 22 -5s18 -10 28 -18s20.167 -17.833 30.5 -29.5s20.5 -24.5 30.5 -38.5c3.33301 -5.33301 6.66602 -9.66602 9.99902 -12.999s5 -8 5 -14c0 -20.667 -5.83301 -45 -17.5 -73
s-25.167 -57 -40.5 -87c-13.333 -26 -24 -51.333 -32 -76s-13.667 -47.667 -17 -69c0 -3.33301 -1.33301 -6 -4 -8s-5.33398 -2.33301 -8.00098 -1l-17 8c-3.33301 1.33301 -6.66602 3.66602 -9.99902 6.99902s-5 6.66602 -5 9.99902zM96.002 81
c12.667 5.33301 23.8359 6.49707 33.5029 3.49707s17.167 -10.833 22.5 -23.5s5.16602 -26.667 -0.500977 -42s-14.834 -26 -27.501 -32c-12 -5.33301 -23.5 -5.66602 -34.5 -0.999023s-19.167 13.334 -24.5 26.001c-4.66699 12.667 -3.83398 25.834 2.49902 39.501
s15.833 23.5 28.5 29.5z" />
    <glyph glyph-name="at" unicode="@" horiz-adv-x="488" 
d="M301 411c7.33301 -4.66699 14.0059 -10.1738 20.0059 -16.5068s11.333 -12.666 16 -18.999s8.33398 -12 11.001 -17s4 -8.16699 4 -9.5v-12.5c0 -6.33301 -0.166992 -13 -0.5 -20s-0.833008 -13.667 -1.5 -20s-1 -10.5 -1 -12.5c-2 -16.667 -4 -31.667 -6 -45l-5 -34
c-0.666992 -6.66699 -1.5 -14.5 -2.5 -23.5s-1.83301 -17.833 -2.5 -26.5v-8c0 -3.33301 0.166992 -6.83301 0.5 -10.5s1.16602 -7 2.49902 -10s3.33301 -4.83301 6 -5.5c11.333 -2.66699 21.833 2 31.5 14s16.167 27.667 19.5 47c2 10 3.83301 21.167 5.5 33.5l5 37
c1.66699 12.333 3 24.333 4 36s1.83301 21.834 2.5 30.501c1.33301 20 1.5 36.833 0.5 50.5s-2.66699 25.334 -5 35.001s-4.83301 17.334 -7.5 23.001s-5.33398 10.167 -8.00098 13.5c-2 2.66699 -6.16699 6 -12.5 10s-15.166 7.66699 -26.499 11
s-25.333 5.66602 -42 6.99902s-36.334 0 -59.001 -4c-25.333 -4 -45.833 -9 -61.5 -15s-28.167 -12.333 -37.5 -19c-7.33301 -5.33301 -13 -10.5 -17 -15.5s-8.33301 -11.167 -13 -18.5s-10 -21.5 -16 -42.5s-10.667 -44.167 -14 -69.5
c-2.66699 -17.333 -4.66699 -32.166 -6 -44.499s-2.33301 -23.833 -3 -34.5s-0.833984 -21.5 -0.500977 -32.5s0.5 -23.833 0.5 -38.5c1.33301 -47.333 14.666 -82.666 39.999 -105.999s58 -35 98 -35c6 0 15.167 1.16699 27.5 3.5s25.833 5.66602 40.5 9.99902
s29.5 9.33301 44.5 15s28.167 11.834 39.5 18.501c3.33301 -5.33301 6 -10.5 8 -15.5s4.66699 -10.167 8 -15.5c-3.33301 -2 -9.33301 -4.66699 -18 -8l-28 -11l-63 -26c-14.667 -6 -29.334 -10 -44.001 -12s-31.667 -2.33301 -51 -1
c-23.333 1.33301 -45.333 6.33301 -66 15s-38.5 21.334 -53.5 38.001s-27 37 -36 61s-13.5 52 -13.5 84v12.5v20c0 7.66699 0.166992 15.667 0.5 24s0.833008 16.5 1.5 24.5c2 23.333 5.5 45.666 10.5 66.999s10.167 40.666 15.5 57.999s10.666 32 15.999 44
s9.66602 20.333 12.999 25c4 6 9.33301 12.667 16 20s16.167 14.833 28.5 22.5s28.666 15 48.999 22s45.833 13.167 76.5 18.5c27.333 4 52.333 5 75 3s42.667 -5.83301 60 -11.5s31.833 -12 43.5 -19s20.167 -12.833 25.5 -17.5c4 -4 7.83301 -10.5 11.5 -19.5
s7 -19.833 10 -32.5s5.16699 -26.667 6.5 -42s1.66602 -31 0.999023 -47c0 -17.333 -1.16699 -35.5 -3.5 -54.5s-5.66602 -37.167 -9.99902 -54.5s-9.33301 -33.5 -15 -48.5s-11.5 -26.833 -17.5 -35.5c-17.333 -24.667 -36.166 -40.167 -56.499 -46.5
s-38.5 -8.16602 -54.5 -5.49902c-16.667 3.33301 -28.5 8.5 -35.5 15.5s-11.833 18.833 -14.5 35.5c-4 -2.66699 -10.833 -7 -20.5 -13s-19.834 -11.667 -30.501 -17s-21 -9.66602 -31 -12.999s-17 -4 -21 -2c-6 3.33301 -10.167 7.5 -12.5 12.5s-3.83301 10.833 -4.5 17.5
c-2 18.667 -3.33301 34.667 -4 48s-0.666992 29.666 0 48.999s2.33398 38.333 5.00098 57s5.83398 35.5 9.50098 50.5s7.16699 27.667 10.5 38s5.66602 16.833 6.99902 19.5c2 3.33301 4.5 6.5 7.5 9.5s8.16699 5.83301 15.5 8.5c4 1.33301 10.667 3.33301 20 6l29 8
c10 2.66699 19.167 4.83398 27.5 6.50098s13.5 2.16699 15.5 1.5c4.66699 -1.33301 8 -2.66602 10 -3.99902zM221.006 233.993l-1.99805 -26.999c-0.666992 -9.33301 -1.16699 -18.166 -1.5 -26.499s-0.5 -15.666 -0.5 -21.999s0.333008 -10.5 1 -12.5
c1.33301 -6 5.16602 -8 11.499 -6s11.166 3.66699 14.499 5c4.66699 1.33301 9.16699 3.33301 13.5 6s7.16602 6 8.49902 10c0 0.666992 0.5 3.66699 1.5 9s2 12.166 3 20.499l3.5 28l4 31.5c1.33301 10.667 2.5 21 3.5 31s2.16699 19 3.5 27
c1.33301 9.33301 2.33301 18 3 26c1.33301 6.66699 -0.166992 13 -4.5 19s-8.16602 8.66699 -11.499 8s-6.83301 -1.66699 -10.5 -3l-10.5 -4c-3.33301 -2.66699 -6 -6.33398 -8 -11.001s-3.66699 -9.33398 -5 -14.001l-5.5 -25.5c-1.66699 -7.66699 -3.16699 -15 -4.5 -22
l-4 -22c-1.33301 -7.66699 -2.33301 -16.167 -3 -25.5z" />
    <glyph glyph-name="A" unicode="A" horiz-adv-x="304" 
d="M28 340l-19.0088 -12.0029c-5.33301 -3.33301 -8.66602 -6.66602 -9.99902 -9.99902c-2 -4.66699 -0.166992 -10.167 5.5 -16.5s13.167 -12.166 22.5 -17.499c6 -4 14.667 -5 26 -3c-1.33301 6 -2.83301 13.167 -4.5 21.5s-3.16699 16.166 -4.5 23.499l-6 26v2v2
c1.33301 0 2.33301 -0.333008 3 -1s1 -1.33398 1 -2.00098l24 -38c0 -0.666992 0.333008 -1.33398 1 -2.00098c0.666992 -1.33301 1.33398 -1.66602 2.00098 -0.999023c0.666992 0 1 1 1 3v3l-11 99c-1.33301 8.66699 -4.33301 15.667 -9 21
c-2.66699 2.66699 -5 4.66699 -7 6c4 4.66699 8 10 12 16l11.5 15.5l12.5 16.5c16.667 21.333 35.667 37.833 57 49.5s40 18.167 56 19.5l50 4.5c18 1.66699 39 5.83398 63 12.501c1.33301 0.666992 3 0 5 -2c0.666992 -1.33301 -1 -4 -5 -8
c-6.66699 -6.66699 -12.5 -16 -17.5 -28s-7.5 -22.667 -7.5 -32l2 -117c6 0.666992 11.667 0.833984 17 0.500977s9.66602 -0.5 12.999 -0.5c4 -0.666992 8 -1.5 12 -2.5s7.66699 -2.16699 11 -3.5l10 -5c-3.33301 -0.666992 -6.66602 -1.66699 -9.99902 -3
s-7.16602 -2.33301 -11.499 -3s-8.83301 -1.66699 -13.5 -3c-6 -1.33301 -11.167 -2.66602 -15.5 -3.99902s-8.16602 -2.66602 -11.499 -3.99902l6 -312c3.33301 -12 8.33301 -24.333 15 -37s15 -22.667 25 -30l-2 -7c-8.66699 2 -18 4.33301 -28 7l-29 4.5
c-10.667 1.66699 -21.667 2.5 -33 2.5c-6.66699 0 -12.834 -0.166992 -18.501 -0.5s-10.834 -0.833008 -15.501 -1.5c-5.33301 -0.666992 -10.666 -1 -15.999 -1l1 6c8.66699 7.33301 14.834 15.833 18.501 25.5s5.16699 23.167 4.5 40.5v266
c-13.333 -7.33301 -25.666 -14.833 -36.999 -22.5l-28 -19.5v-7c1.33301 -18.667 2.5 -38.667 3.5 -60s2.16699 -41.666 3.5 -60.999l4 -67v-3c0 -2.66699 -0.666992 -4 -2 -4c-0.666992 0 -1.66699 1.33301 -3 4c-0.666992 1.33301 -1 2.66602 -1 3.99902
c-0.666992 4.66699 -1.66699 9 -3 13c-1.33301 3.33301 -2.33301 7.16602 -3 11.499s-1.66699 8.16602 -3 11.499l-8 25c-0.666992 1.33301 -1.33398 3 -2.00098 5s-1.66699 2.66699 -3 2c-2 0 -3 -1 -3 -3v-2l9 -255v-2l-1 -2c-1.33301 0 -2 0.666992 -2 2
c-0.666992 0.666992 -1 1.33398 -1 2.00098c-1.33301 6.66699 -2.66602 13 -3.99902 19c-1.33301 5.33301 -2.5 10.333 -3.5 15s-2.16699 8.66699 -3.5 12c-2.66699 5.33301 -4.33398 9 -5.00098 11s-2 2.66699 -4 2c-2.66699 -0.666992 -4 -3.66699 -4 -9l-14 -194v-2
c0 -1.33301 -0.666992 -2 -2 -2c-2 0 -3 1.66699 -3 5l-10 119.5c-2.66699 31.667 -5 58.167 -7 79.5s-3.83301 39.166 -5.5 53.499s-3.5 28.833 -5.5 43.5c-1.33301 8 -2.5 14.333 -3.5 19s-2.16699 8.83398 -3.5 12.501s-2.5 7.5 -3.5 11.5s-2.16699 9.66699 -3.5 17
l-5 20v4l5 -3l21 -21c1.33301 -1.33301 2.5 -2.66602 3.5 -3.99902s2.16699 -1.33301 3.5 0c0.666992 0 0.833984 1.16699 0.500977 3.5s-0.5 4.16602 -0.5 5.49902l-13 121c-0.666992 0.666992 -1 1.66699 -1 3s-0.166992 2.5 -0.5 3.5s-0.5 2.16699 -0.5 3.5
c-13.333 -0.666992 -26.166 1.83301 -38.499 7.5s-23.166 16.5 -32.499 32.5c-4 6 -7.5 11.667 -10.5 17s-4.5 11.333 -4.5 18c0.666992 8 3.33398 13 8.00098 15s11.334 3.33301 20.001 4c8.66699 1.33301 17.667 1 27 -1zM141.991 332.997
c8.66699 6.66699 19.332 13 31.999 19l36 17v157c-14.667 -3.33301 -24 -7 -28 -11c-12.667 -10 -22 -19 -28 -27s-10.167 -17.5 -12.5 -28.5s-3.16602 -24.333 -2.49902 -40s1.66699 -36.5 3 -62.5v-24z" />
    <glyph glyph-name="B" unicode="B" horiz-adv-x="271" 
d="M208 335c13.333 -6 25.002 -15.665 35.002 -28.998l14.5 -20c4.33301 -6 7.83301 -12.5 10.5 -19.5s4.66699 -14.833 6 -23.5s2 -19.334 2 -32.001c0 -12 -1.16699 -26.167 -3.5 -42.5s-5.33301 -32.833 -9 -49.5s-7.83398 -32.167 -12.501 -46.5s-9 -25.5 -13 -33.5
c-12.667 -22.667 -26.667 -39.667 -42 -51s-33.333 -16.666 -54 -15.999c-7.33301 0 -17.833 -0.333008 -31.5 -1l-41.5 -2l-52 -2l1 7c12 2.66699 19.333 10.334 22 23.001s3 25.667 1 39c-3.33301 19.333 -5.83301 37.5 -7.5 54.5s-3.83398 32.5 -6.50098 46.5l-5 20v4
c0.666992 0.666992 1.33398 0.5 2.00098 -0.5s1.33398 -1.83301 2.00098 -2.5l22 -21c1.33301 -1.33301 2.5 -2.66602 3.5 -3.99902s1.83301 -1.33301 2.5 0c1.33301 0 1.83301 1.16699 1.5 3.5s-0.5 4.16602 -0.5 5.49902l-13 121c-0.666992 10.667 -1.66699 21 -3 31
c-1.33301 8.66699 -2.33301 17.167 -3 25.5s-1.33398 14.5 -2.00098 18.5c-1.33301 6 -2.83301 13.167 -4.5 21.5s-3.16699 16.166 -4.5 23.499l-6 26v2v2c1.33301 0 2.33301 -0.333008 3 -1s1 -1.33398 1 -2.00098l24 -38c0 -0.666992 0.333008 -1.33398 1 -2.00098
c0.666992 -1.33301 1.33398 -1.66602 2.00098 -0.999023c0.666992 0 1 1 1 3v3l-14 141c-0.666992 7.33301 -4 14.333 -10 21l-18 21h-2l-1 3v5h1c0 0.666992 0.666992 1 2 1c2 0 4.16699 -0.166992 6.5 -0.5s5.16602 -0.5 8.49902 -0.5l26 2l48 6
c8.66699 1.33301 16 2.66602 22 3.99902s12.667 2.33301 20 3c6.66699 0.666992 13 0.666992 19 0c4.66699 -0.666992 9.5 -1.5 14.5 -2.5s9.83301 -2.83301 14.5 -5.5c4 -2 9.5 -6.33301 16.5 -13s14.167 -14.167 21.5 -22.5s13.666 -17.5 18.999 -27.5s8 -19.333 8 -28
v-11c0 -4 -0.166992 -9.16699 -0.5 -15.5s-0.5 -14.5 -0.5 -24.5c-0.666992 -7.33301 -1 -12.833 -1 -16.5s-0.666992 -8.5 -2 -14.5c-2.66699 -13.333 -7.66699 -25.333 -15 -36s-14 -18.667 -20 -24zM117.002 28.002c18.667 -8 32.3311 -9.16406 40.998 -3.49707
s16.334 19.167 23.001 40.5c2 7.33301 4.5 17.833 7.5 31.5s5.66699 27.834 8 42.501l6.5 40.5c2 12.333 3 21.166 3 26.499c0 19.333 -2.16699 36 -6.5 50s-10.833 26 -19.5 36c-3.33301 4.66699 -10.333 8.66699 -21 12s-21.334 6 -32.001 8v-9
c0.666992 -18.667 1.66699 -38.667 3 -60l4 -61l4 -67v-3c0 -2.66699 -0.666992 -4 -2 -4c-0.666992 0 -1.66699 1.33301 -3 4c-0.666992 1.33301 -1 2.66602 -1 3.99902c-0.666992 4.66699 -1.66699 9 -3 13c-1.33301 3.33301 -2.5 7.16602 -3.5 11.499
s-2.16699 8.16602 -3.5 11.499c-2 7.33301 -3.33301 12.333 -4 15s-1.66699 6 -3 10c-1.33301 1.33301 -2.16602 3 -2.49902 5s-1.16602 2.66699 -2.49902 2c-2 0 -3 -1 -3 -3v-2l4 -149zM124.999 346.005c10.667 -2 18.332 -2.33398 22.999 -1.00098c20.667 6 32 20 34 42
c0.666992 2.66699 1 7.66699 1 15v24v27c0 9.33301 -0.333008 18 -1 26c-1.33301 11.333 -2.16602 20.833 -2.49902 28.5s-2.16602 14.167 -5.49902 19.5c-5.33301 6.66699 -12.333 10.667 -21 12s-15.667 2 -21 2c-6 -1.33301 -9.33301 -4.83301 -10 -10.5
s-1 -13.167 -1 -22.5c0.666992 -20 1.16699 -44.667 1.5 -74s1.16602 -58.666 2.49902 -87.999z" />
    <glyph glyph-name="C" unicode="C" horiz-adv-x="257" 
d="M239 524c8 -10 13.1699 -21.1621 15.5029 -33.4951s2.66602 -24.5 0.999023 -36.5s-4.83398 -23 -9.50098 -33s-10 -18 -16 -24c-3.33301 -3.33301 -9.5 -8 -18.5 -14s-19.167 -11.667 -30.5 -17l-4 9c10.667 7.33301 17.834 16 21.501 26s5.5 20 5.5 30
s-1.16699 19.333 -3.5 28s-4.5 15.667 -6.5 21c-2.66699 8 -7.83398 17.167 -15.501 27.5s-14.167 18.5 -19.5 24.5c-2 -2 -4.83301 -5 -8.5 -9s-7.33398 -8.33301 -11.001 -13s-7.16699 -9.5 -10.5 -14.5s-6.33301 -8.83301 -9 -11.5c-9.33301 -12 -14 -24.833 -14 -38.5
s-0.333008 -27.834 -1 -42.501l3 -97c1.33301 -18.667 3 -38.667 5 -60s4.33301 -41.666 7 -60.999c2.66699 -22 6 -44.333 10 -67c0.666992 -0.666992 1 -1.66699 1 -3c0 -2.66699 -0.333008 -4 -1 -4s-2.33398 1.33301 -5.00098 4
c-1.33301 1.33301 -2.33301 2.66602 -3 3.99902c-1.33301 3.33301 -3.33301 6.66602 -6 9.99902c-2 3.33301 -4.16699 7.16602 -6.5 11.499s-4.16602 9.16602 -5.49902 14.499l-8 25c-0.666992 1.33301 -1.33398 3 -2.00098 5s-1.66699 2.66699 -3 2c-1.33301 0 -2 -1 -2 -3
v-2v-7c0 -5.33301 1 -15 3 -29c2 -16 7.33301 -30.667 16 -44s18.667 -24.666 30 -33.999c13.333 -12 25.166 -20.333 35.499 -25s20.833 -1.33398 31.5 9.99902c2.66699 3.33301 6.16699 8 10.5 14s8.66602 12.5 12.999 19.5l13 20.5
c4.33301 6.66699 8.16602 12.334 11.499 17.001l6 -8c-7.33301 -16 -15.666 -33 -24.999 -51s-18.666 -34.333 -27.999 -49s-18 -26.667 -26 -36s-13.667 -13 -17 -11c-7.33301 3.33301 -17 8.66602 -29 15.999s-25.167 17.666 -39.5 30.999s-29 30.166 -44 50.499
s-29.167 44.833 -42.5 73.5c-1.33301 1.33301 -2.16602 3.33301 -2.49902 6s-0.833008 5 -1.5 7c-0.666992 2.66699 -1 5 -1 7v4l5 -3l18 -22c1.33301 -1.33301 3.33301 -3.16602 6 -5.49902s4.66699 -3.16602 6 -2.49902c0.666992 0.666992 0.666992 3.5 0 8.5
s-1 8.5 -1 10.5l-14 116c-0.666992 10.667 -1.66699 21 -3 31c-1.33301 8.66699 -2.33301 17.167 -3 25.5s-1.33398 14.5 -2.00098 18.5c-1.33301 6 -2.83301 13.167 -4.5 21.5s-3.16699 16.166 -4.5 23.499l-6 26v2v2c1.33301 0 2.33301 -0.333008 3 -1
s1 -1.33398 1 -2.00098l24 -38c0 -0.666992 0.333008 -1.33398 1 -2.00098c0.666992 -1.33301 1.33398 -1.66602 2.00098 -0.999023c0.666992 0 1 1 1 3v3l-3 28c-2 8 -2.83301 14.833 -2.5 20.5s1.83301 11.334 4.5 17.001s6.83398 12 12.501 19l22.5 28.5l24.5 30.5
c7 8.33301 13.5 15.5 19.5 21.5s11.5 11 16.5 15s10.5 8 16.5 12c7.33301 5.33301 13.833 9.5 19.5 12.5s12.167 6.16699 19.5 9.5z" />
    <glyph glyph-name="D" unicode="D" horiz-adv-x="289" 
d="M49 37c-3.33301 19.333 -5.83398 37.5039 -7.50098 54.5039s-3.83398 32.5 -6.50098 46.5l-5 20c-1.33301 1.33301 -1.33301 2.66602 0 3.99902c0.666992 0.666992 1.33398 0.5 2.00098 -0.5s1.33398 -1.83301 2.00098 -2.5l21 -21l4 -4
c1.33301 -1.33301 2.33301 -1.33301 3 0c0.666992 0 1 1.16699 1 3.5v5.5l-14 121c-1.33301 10.667 -2.33301 21 -3 31c-1.33301 8.66699 -2.16602 17.167 -2.49902 25.5s-0.833008 14.5 -1.5 18.5c-1.33301 6 -2.83301 13.167 -4.5 21.5s-3.16699 16.166 -4.5 23.499l-6 26
v2v2c1.33301 0 2.33301 -0.333008 3 -1s1 -1.33398 1 -2.00098l24 -38c0 -0.666992 0.333008 -1.33398 1 -2.00098c0.666992 -1.33301 1.33398 -1.66602 2.00098 -0.999023c0.666992 0 1 1 1 3v3l-14 141c-0.666992 7.33301 -4.16699 14.5 -10.5 21.5
s-12.5 14.167 -18.5 21.5c-1.33301 2.66699 -2 4.33398 -2 5.00098c0 2 0.666992 3 2 3c3.33301 0 7 -0.166992 11 -0.5s8.33301 -0.5 13 -0.5c5.33301 0 13 0.666992 23 2c16 2 44.333 6.33301 85 13c13.333 2 25.666 -0.666992 36.999 -8s21.833 -17.333 31.5 -30
s18.167 -26.834 25.5 -42.501s13.666 -30.834 18.999 -45.501s9.83301 -33.834 13.5 -57.501s5.5 -56.834 5.5 -99.501c0 -47.333 -2.83301 -92.666 -8.5 -135.999s-14.834 -78.333 -27.501 -105c-11.333 -24 -26.666 -44.167 -45.999 -60.5s-42.333 -25.833 -69 -28.5
c-2 -0.666992 -8.5 -1 -19.5 -1h-35.5h-49l1 7c12 2.66699 19.333 10.334 22 23.001s3 25.667 1 39zM139.999 542.004c-6 -1.33301 -9.33789 -4.83203 -10.0049 -10.499s-1 -13.167 -1 -22.5c0 -12.667 0.166992 -27.167 0.5 -43.5s0.833008 -33.666 1.5 -51.999l2 -56
c0.666992 -19 1.33398 -36.833 2.00098 -53.5c0.666992 -18.667 1.66699 -38.667 3 -60l4 -61l4 -67v-3c0 -2.66699 -0.666992 -4 -2 -4c-0.666992 0 -1.66699 1.33301 -3 4c-0.666992 1.33301 -1 2.66602 -1 3.99902c-0.666992 4.66699 -1.66699 9 -3 13
c-1.33301 3.33301 -2.5 7.16602 -3.5 11.499s-2.16699 8.16602 -3.5 11.499l-7 25c-1.33301 1.33301 -2.16602 3 -2.49902 5s-1.16602 2.66699 -2.49902 2c-2 0 -3 -1 -3 -3v-2l4 -165h11c5.33301 0 13.5 3.16699 24.5 9.5s20.833 17.833 29.5 34.5
c6.66699 12.667 11.5 27.834 14.5 45.501s4.83301 36.834 5.5 57.501s0.833984 42.667 0.500977 66s-0.5 47.666 -0.5 72.999v39.5c0 11.667 -0.333008 22.667 -1 33l-2 31c-0.666992 10.333 -2 21.5 -4 33.5c-5.33301 34.667 -12.166 60.667 -20.499 78s-20.5 26 -36.5 26z
" />
    <glyph glyph-name="E" unicode="E" horiz-adv-x="249" 
d="M109 17c12 -1.33301 23.1768 -2.16211 33.5098 -2.49512s19.166 -0.5 26.499 -0.5c11.333 0.666992 19.333 1.66699 24 3s8 5 10 11c3.33301 7.33301 6.16602 14.833 8.49902 22.5l6.5 20.5c2.66699 7.33301 4.66699 14.333 6 21c0.666992 0 1 0.333008 1 1
s0.333008 1 1 1c1.33301 0 2 -1 2 -3c0.666992 -17.333 1.16699 -31.666 1.5 -42.999s0.833008 -20.833 1.5 -28.5s1.16699 -14.167 1.5 -19.5s1.16602 -10.666 2.49902 -15.999c1.33301 -6.66699 2.33301 -11.834 3 -15.501s1.66699 -8.16699 3 -13.5
c0 -1.33301 0.666992 -3.33301 2 -6c0.666992 -1.33301 1.33398 -2.33301 2.00098 -3v-1v-2c-0.666992 0 -1.33398 0.166992 -2.00098 0.5s-1.33398 0.5 -2.00098 0.5l-21 8c-6 2 -12.833 4.16699 -20.5 6.5s-15.167 4.16602 -22.5 5.49902l-14 1l-25 2
c-7.33301 0.666992 -15 1 -23 1s-15.667 0.333008 -23 1h-43c-7.33301 0 -15 0.333008 -23 1l1 6c3.33301 3.33301 7.33301 7 12 11s6.33398 11 5.00098 21c-0.666992 4.66699 -1.33398 9.66699 -2.00098 15c-0.666992 4.66699 -1.16699 9.5 -1.5 14.5
s-0.833008 9.83301 -1.5 14.5c-2.66699 17.333 -5.16699 32.666 -7.5 45.999s-4.83301 26.666 -7.5 39.999c-0.666992 2 -1.16699 4.16699 -1.5 6.5s-0.833008 4.5 -1.5 6.5c-0.666992 2.66699 -1.33398 5 -2.00098 7v4c0.666992 0.666992 2.33398 -0.333008 5.00098 -3
l21 -21l3.5 -3.5c1 -1 2.16699 -1.16699 3.5 -0.5c1.33301 1.33301 1.33301 4.66602 0 9.99902l-13 120v3c0 1.33301 -0.166992 2.5 -0.5 3.5s-0.5 2.16699 -0.5 3.5c-14.667 -2.66699 -29 -1.33398 -43 3.99902c-6.66699 3.33301 -13.167 8.5 -19.5 15.5
s-10.833 13.5 -13.5 19.5c-3.33301 7.33301 -3.5 13 -0.5 17s8.16699 8.33301 15.5 13c3.33301 2.66699 6.83301 5 10.5 7s8.16699 4 13.5 6l-11.5 -20c-3 -5.33301 -4.16699 -10 -3.5 -14c0.666992 -4.66699 4.83398 -8.83398 12.501 -12.501s17.167 -5.16699 28.5 -4.5
c1.33301 0 2.66602 0.166992 3.99902 0.5s2.66602 0.5 3.99902 0.5c-0.666992 7.33301 -1.33398 13.833 -2.00098 19.5s-1.33398 10.167 -2.00098 13.5c-1.33301 6 -2.83301 13.167 -4.5 21.5s-3.16699 16.166 -4.5 23.499c-2 8.66699 -3.66699 17.334 -5 26.001
c-0.666992 0.666992 -1 1.33398 -1 2.00098c0 1.33301 0.333008 2 1 2s1.33398 -0.333008 2.00098 -1s1 -1.33398 1 -2.00098l24 -38c0 -0.666992 0.333008 -1.33398 1 -2.00098s1.33398 -1 2.00098 -1s1 1 1 3v3l-13 146c-0.666992 7.33301 -4.16699 13.333 -10.5 18
s-12.5 10.667 -18.5 18c-2 2 -3 3.66699 -3 5c0.666992 2 1.66699 3 3 3c7.33301 0 18.666 -0.166992 33.999 -0.5s33.333 -0.166016 54 0.500977s43.5 2.16699 68.5 4.5s50.5 5.83301 76.5 10.5c2 1.33301 3.66699 0.666016 5 -2.00098c1.33301 -1.33301 1 -4.33301 -1 -9
s-3 -8.66699 -3 -12c-1.33301 -7.33301 -2.16602 -16.333 -2.49902 -27s0.5 -27.667 2.5 -51l-8 -3c-2.66699 12 -5.33398 22 -8.00098 30s-7.33398 14.667 -14.001 20c-8.66699 6 -17.334 9 -26.001 9s-20.667 -1.66699 -36 -5c-18.667 -3.33301 -28 -16.666 -28 -39.999
v-44l3 -98c1.33301 1.33301 2.66602 2.16602 3.99902 2.49902s3 1.16602 5 2.49902c9.33301 5.33301 17.666 9.83301 24.999 13.5s15.333 5.83398 24 6.50098c10.667 0.666992 19.834 -1.66602 27.501 -6.99902s11.167 -10 10.5 -14c0 -1.33301 -1.5 -1.83301 -4.5 -1.5
s-7 0.166016 -12 -0.500977s-10.667 -2 -17 -4s-12.833 -5.66699 -19.5 -11c-8.66699 -7.33301 -16.167 -13.166 -22.5 -17.499s-12.833 -8.16602 -19.5 -11.499l1 -3c0.666992 -18.667 1.5 -38.667 2.5 -60s2.16699 -41.666 3.5 -60.999l4 -66v-4
c0 -2.66699 -0.333008 -4 -1 -4c-1.33301 0 -2.66602 1.33301 -3.99902 4c-0.666992 1.33301 -1 2.66602 -1 3.99902c-0.666992 4.66699 -1.66699 9 -3 13c-1.33301 3.33301 -2.33301 7.16602 -3 11.499s-1.66699 8.5 -3 12.5c-2.66699 7.33301 -4.33398 12.333 -5.00098 15
s-1.66699 5.66699 -3 9c-0.666992 1.33301 -1.33398 3 -2.00098 5s-1.66699 3 -3 3c-2 -1.33301 -3 -2.33301 -3 -3v-2z" />
    <glyph glyph-name="F" unicode="F" horiz-adv-x="246" 
d="M244 557c-1.33301 -7.33301 -1.99414 -16.3262 -1.99414 -26.9932s1 -27.667 3 -51l-8 -3c-2.66699 12 -5.33398 22 -8.00098 30s-7.33398 14.667 -14.001 20c-8.66699 6 -17.334 9 -26.001 9s-20.667 -1.66699 -36 -5c-18.667 -3.33301 -28 -16.666 -28 -39.999v-44
c0 -30.667 1 -62 3 -94l1 1c9.33301 5.33301 17.666 9.83301 24.999 13.5s15.333 5.83398 24 6.50098c10.667 0.666992 19.834 -1.66602 27.501 -6.99902s11.167 -10 10.5 -14c0 -1.33301 -1.5 -1.83301 -4.5 -1.5s-7 0.166016 -12 -0.500977s-10.667 -2 -17 -4
s-12.833 -5.66699 -19.5 -11s-12.667 -9.83301 -18 -13.5l-16 -10.5l1 -8c0.666992 -18.667 1.5 -38.667 2.5 -60s2.16699 -41.666 3.5 -60.999l4 -66v-4c0 -2.66699 -0.666992 -4 -2 -4c-0.666992 0 -1.66699 1.33301 -3 4c-0.666992 1.33301 -1 2.66602 -1 3.99902
c-0.666992 4.66699 -1.66699 9 -3 13c-1.33301 3.33301 -2.33301 7.16602 -3 11.499s-1.66699 8.5 -3 12.5c-2.66699 7.33301 -4.33398 12.333 -5.00098 15s-1.66699 5.66699 -3 9c-0.666992 1.33301 -1.33398 3 -2.00098 5s-1.66699 3 -3 3c-2 -1.33301 -3 -2.33301 -3 -3
v-2l9 -281v-3l-1 -2l-2 2c-0.666992 0.666992 -1 1.66699 -1 3l-4 18c-1.33301 5.33301 -2.5 10.333 -3.5 15s-2.16699 8.66699 -3.5 12c-2.66699 5.33301 -4.33398 9.16602 -5.00098 11.499s-2 3.16602 -4 2.49902s-3 -1.83398 -3 -3.50098s-0.333008 -3.5 -1 -5.5
l-14 -194v-3c0 -1.33301 -0.666992 -2 -2 -2c-2 0 -3 1.66699 -3 5l-10 119.5c-2.66699 31.667 -5 58.167 -7 79.5s-3.83301 39.166 -5.5 53.499s-3.5 28.833 -5.5 43.5l-7 46c-2 13.333 -4.33301 26.666 -7 39.999c-0.666992 2 -1.16699 4.16699 -1.5 6.5
s-0.833008 4.5 -1.5 6.5c-0.666992 2.66699 -1.33398 5 -2.00098 7v4c0.666992 0.666992 2.33398 -0.333008 5.00098 -3l21 -21l3.5 -3.5c1 -1 2.16699 -1.16699 3.5 -0.5c1.33301 1.33301 1.33301 4.66602 0 9.99902l-13 120c-0.666992 0.666992 -1 1.66699 -1 3v8
c-19.333 -4 -36.333 -3 -51 3c-6.66699 3.33301 -13.167 8.5 -19.5 15.5s-10.833 13.5 -13.5 19.5c-3.33301 7.33301 -3.5 13 -0.5 17s8.16699 8.33301 15.5 13c3.33301 2.66699 6.83301 5 10.5 7s8.16699 4 13.5 6l-11.5 -20c-3 -5.33301 -4.16699 -10 -3.5 -14
c0.666992 -4.66699 4.83398 -8.83398 12.501 -12.501s17.167 -5.16699 28.5 -4.5l16 3c-0.666992 6.66699 -1.33398 12.667 -2.00098 18s-1.33398 9.66602 -2.00098 12.999c-1.33301 6 -2.83301 13.167 -4.5 21.5s-3.16699 16.166 -4.5 23.499
c-2 8.66699 -3.66699 17.334 -5 26.001c-0.666992 0.666992 -1 1.33398 -1 2.00098c0 1.33301 0.333008 2 1 2s1.33398 -0.333008 2.00098 -1s1 -1.33398 1 -2.00098l24 -38c0 -0.666992 0.333008 -1.33398 1 -2.00098s1.33398 -1 2.00098 -1s1 1 1 3v3l-13 146
c-1.33301 7.33301 -5 13.333 -11 18s-12.333 10.667 -19 18c-1.33301 2.66699 -2 4.33398 -2 5.00098c0.666992 2 1.66699 3 3 3c7.33301 0 18.666 -0.166992 33.999 -0.5s33.333 -0.166016 54 0.500977s43.5 2.16699 68.5 4.5s50.5 5.83301 76.5 10.5
c2 1.33301 3.66699 0.666016 5 -2.00098c1.33301 -1.33301 1 -4.33301 -1 -9s-3.33301 -8.66699 -4 -12z" />
    <glyph glyph-name="G" unicode="G" horiz-adv-x="274" 
d="M196 306c0 4.66699 -0.998047 10.1729 -2.99805 16.5059s-8.66699 9.83301 -20 10.5l1 7l43 2c12 0.666992 24.333 1 37 1s23.667 0.333008 33 1l1 -7c-7.33301 -3.33301 -13.166 -8.83301 -17.499 -16.5s-6.16602 -16.167 -5.49902 -25.5v-182l-17 -35
c-6 -12 -12.333 -23.667 -19 -35s-13.334 -22 -20.001 -32s-12.667 -18.333 -18 -25c-9.33301 -13.333 -16.333 -19 -21 -17c-7.33301 3.33301 -17 8.66602 -29 15.999s-25.167 17.666 -39.5 30.999s-29 30.166 -44 50.499s-29.167 44.833 -42.5 73.5
c-1.33301 1.33301 -2.16602 3.33301 -2.49902 6s-0.833008 5 -1.5 7c-0.666992 2.66699 -1 5 -1 7v4l5 -3l18 -22c1.33301 -1.33301 3.33301 -3.16602 6 -5.49902s4.66699 -3.16602 6 -2.49902c0.666992 0.666992 0.666992 3.5 0 8.5s-1 8.5 -1 10.5l-14 116
c-0.666992 10.667 -1.66699 21 -3 31c-1.33301 8.66699 -2.33301 17.167 -3 25.5s-1.33398 14.5 -2.00098 18.5c-1.33301 6 -2.83301 13.167 -4.5 21.5s-3.16699 16.166 -4.5 23.499l-6 26v2v2c1.33301 0 2.33301 -0.333008 3 -1s1 -1.33398 1 -2.00098l24 -38
c0 -0.666992 0.333008 -1.33398 1 -2.00098c0.666992 -1.33301 1.33398 -1.66602 2.00098 -0.999023c0.666992 0 1 1 1 3v3l-3 28c-2 8 -2.83301 14.833 -2.5 20.5s1.83301 11.334 4.5 17.001s6.83398 12 12.501 19l22.5 28.5l24.5 30.5c7 8.33301 13.5 15.5 19.5 21.5
s11.5 11 16.5 15s10.5 8 16.5 12c7.33301 5.33301 13.833 9.5 19.5 12.5s12.167 6.16699 19.5 9.5l57 -68c8 -10 13.167 -19.667 15.5 -29s2.66602 -18.5 0.999023 -27.5s-4.83398 -17.167 -9.50098 -24.5s-10 -14 -16 -20c-3.33301 -3.33301 -9.5 -8 -18.5 -14
s-19.167 -11.667 -30.5 -17l-4 9c10.667 7.33301 17.834 14.666 21.501 21.999s5.5 14.333 5.5 21s-1.16699 13 -3.5 19l-6.5 17c-2.66699 8 -7.83398 17.167 -15.501 27.5s-14.167 18.5 -19.5 24.5c-2 -2 -4.83301 -5 -8.5 -9s-7.33398 -8.33301 -11.001 -13
s-7.16699 -9.5 -10.5 -14.5s-6.33301 -8.83301 -9 -11.5c-9.33301 -12 -14 -24.833 -14 -38.5s-0.333008 -27.834 -1 -42.501l3 -97c1.33301 -18.667 3 -38.667 5 -60s4.33301 -41.666 7 -60.999c2.66699 -22 6 -44.333 10 -67c0.666992 -0.666992 1 -1.66699 1 -3
c0 -2.66699 -0.333008 -4 -1 -4s-2.33398 1.33301 -5.00098 4c-1.33301 1.33301 -2.33301 2.66602 -3 3.99902c-1.33301 3.33301 -3.33301 6.66602 -6 9.99902c-2 3.33301 -4.16699 7.16602 -6.5 11.499s-4.16602 9.16602 -5.49902 14.499l-8 25
c-0.666992 1.33301 -1.33398 3 -2.00098 5s-1.66699 2.66699 -3 2c-1.33301 0 -2 -1 -2 -3v-2v-7c0 -5.33301 1 -15 3 -29c2 -16 7.33301 -30.667 16 -44s18.667 -24.666 30 -33.999c10 -9.33301 19.167 -16.5 27.5 -21.5s16.166 -6.16699 23.499 -3.5v263z" />
    <glyph glyph-name="H" unicode="H" horiz-adv-x="292" 
d="M-6 341c-8 -5.33301 -14.5039 -9.50293 -19.5039 -12.5029s-8.5 -6.5 -10.5 -10.5c-1.33301 -4 0.833984 -7.83301 6.50098 -11.5s12.834 -8.83398 21.501 -15.501c3.33301 -2.66699 8.66602 -4.66699 15.999 -6s17.333 -1.66602 30 -0.999023l-6 54
c-1.33301 6 -2.83301 13.167 -4.5 21.5s-3.16699 16.166 -4.5 23.499l-6 26v2v2c1.33301 0 2.33301 -0.333008 3 -1s1 -1.33398 1 -2.00098l24 -38c0 -0.666992 0.333008 -1.33398 1 -2.00098c0.666992 -1.33301 1.33398 -1.66602 2.00098 -0.999023c0.666992 0 1 1 1 3v3
l-14 142c-0.666992 7.33301 -4 13.333 -10 18s-12.333 10.667 -19 18c-1.33301 2.66699 -2 4.33398 -2 5.00098c0 2 1 3 3 3c15.333 -0.666992 35.833 0.333008 61.5 3s50.5 7.33398 74.5 14.001c2 0 3.66699 -0.666992 5 -2s1.16602 -2.66602 -0.500977 -3.99902
s-3.16699 -2.66602 -4.5 -3.99902c-6.66699 -6.66699 -12.334 -16 -17.001 -28s-7 -22.667 -7 -32c0 -11.333 0.166992 -24.666 0.5 -39.999s0.833008 -31.5 1.5 -48.5l2 -52.5c0.666992 -18 1.33398 -35 2.00098 -51c6.66699 4.66699 13.334 9.66699 20.001 15
s13.667 11.666 21 18.999c5.33301 5.33301 10.333 9.5 15 12.5s9.33398 5.5 14.001 7.5l-1 100c0 4.66699 -1 10.334 -3 17.001s-8.33301 10 -19 10v7l46 2c12.667 0.666992 25.5 1 38.5 1s24.167 0.333008 33.5 1l1 -7c-6.66699 -3.33301 -12.167 -8.83301 -16.5 -16.5
s-6.5 -16.167 -6.5 -25.5v-69h26l12 -2c4 -0.666992 7.66699 -1.33398 11 -2.00098c3.33301 -1.33301 6.66602 -2.33301 9.99902 -3c-2 -1.33301 -4.66699 -2.66602 -8 -3.99902l-11.5 -4.5c-4.33301 -1.66699 -9.5 -3.16699 -15.5 -4.5l-23 -7l2 -311
c0 -15.333 3.16699 -29.166 9.5 -41.499s13.166 -21.166 20.499 -26.499v-7l-25 2c-7.33301 0.666992 -15 1 -23 1s-15.667 0.333008 -23 1c-6.66699 0 -13.834 0.166992 -21.501 0.5s-14.834 0.5 -21.501 0.5h-23l1 7c9.33301 6.66699 16.833 15.834 22.5 27.501
s8.5 24.167 8.5 37.5l-1 264l-27 -23c-10 -8.66699 -23.667 -18 -41 -28c0.666992 -17.333 1.5 -35 2.5 -53s2.16699 -34.333 3.5 -49c1.33301 -17.333 2.33301 -34 3 -50v-3c0 -2.66699 -0.666992 -4 -2 -4c-0.666992 0 -1.66699 1.33301 -3 4
c-0.666992 1.33301 -1 2.66602 -1 3.99902c-0.666992 4.66699 -1.66699 9 -3 13c-1.33301 3.33301 -2.5 7.16602 -3.5 11.499s-2.16699 8.5 -3.5 12.5c-2 7.33301 -3.33301 12.333 -4 15s-1.66699 5.66699 -3 9c-1.33301 1.33301 -2.16602 3 -2.49902 5
s-1.16602 2.66699 -2.49902 2c-2 0 -3 -0.666992 -3 -2v-2l9 -281v-3l-1 -2c-1.33301 0 -2 0.666992 -2 2c-0.666992 0.666992 -1 1.66699 -1 3l-4 18c-1.33301 5.33301 -2.66602 10.333 -3.99902 15s-2.66602 8.66699 -3.99902 12c-2 5.33301 -3.33301 9 -4 11
s-2 2.66699 -4 2c-2.66699 0 -4 -2.66699 -4 -8l-14 -194v-3c0 -1.33301 -1 -2 -3 -2c-1.33301 0 -2 1.66699 -2 5l-10 119.5c-2.66699 31.667 -5 58.167 -7 79.5s-3.83301 39.166 -5.5 53.499s-3.5 28.833 -5.5 43.5l-14 86l-5 20v4
c1.33301 1.33301 2.66602 0.333008 3.99902 -3l22 -21l3.5 -3.5c1 -1 1.83301 -1.16699 2.5 -0.5c1.33301 0.666992 1.83301 2 1.5 4s-0.5 4 -0.5 6l-12 103c-22 1.33301 -40.167 5.83301 -54.5 13.5s-25.5 16.834 -33.5 27.501c-4 6 -7.5 11.667 -10.5 17
s-4.16699 11.666 -3.5 18.999s3.33398 12 8.00098 14s11.334 3.66699 20.001 5h12c4 0 9 -0.333008 15 -1z" />
    <glyph glyph-name="I" unicode="I" horiz-adv-x="156" 
d="M145 569c-7.33301 -6.66699 -13.3311 -15.9951 -17.998 -27.9951s-7 -22.667 -7 -32l6 -205c1.33301 -18.667 2.5 -38.667 3.5 -60s2.16699 -41.666 3.5 -60.999l4 -66v-4c0 -2.66699 -0.666992 -4 -2 -4c-0.666992 0 -1.66699 1.33301 -3 4
c-0.666992 1.33301 -1 2.66602 -1 3.99902c-0.666992 4.66699 -1.66699 9 -3 13c-1.33301 3.33301 -2.33301 7.16602 -3 11.499s-1.66699 8.5 -3 12.5c-2.66699 7.33301 -4.33398 12.333 -5.00098 15s-1.66699 5.66699 -3 9c-0.666992 1.33301 -1.33398 3 -2.00098 5
s-1.66699 3 -3 3c-2 -1.33301 -3 -2.33301 -3 -3v-2l9 -281v-3l-1 -2l-2 2c-0.666992 0.666992 -1 1.66699 -1 3l-4 18c-1.33301 5.33301 -2.5 10.333 -3.5 15s-2.16699 8.66699 -3.5 12c-2.66699 5.33301 -4.33398 9.16602 -5.00098 11.499s-2 3.16602 -4 2.49902
s-3 -1.83398 -3 -3.50098s-0.333008 -3.5 -1 -5.5l-14 -194v-3c0 -1.33301 -0.666992 -2 -2 -2c-2 0 -3 1.66699 -3 5l-10 119.5c-2.66699 31.667 -5 58.167 -7 79.5s-3.83301 39.166 -5.5 53.499s-3.5 28.833 -5.5 43.5l-7 46c-2 13.333 -4.33301 26.666 -7 39.999
c-0.666992 2 -1.16699 4.16699 -1.5 6.5s-0.833008 4.5 -1.5 6.5c-0.666992 2.66699 -1.33398 5 -2.00098 7v4c0.666992 0.666992 2.33398 -0.333008 5.00098 -3l21 -21l3.5 -3.5c1 -1 2.16699 -1.16699 3.5 -0.5c1.33301 1.33301 1.33301 4.66602 0 9.99902l-13 120
c-0.666992 10.667 -1.66699 21 -3 31c-1.33301 8.66699 -2.33301 17.167 -3 25.5s-1.33398 14.5 -2.00098 18.5c-1.33301 6 -2.83301 13.167 -4.5 21.5s-3.16699 16.166 -4.5 23.499c-2 8.66699 -3.66699 17.334 -5 26.001c-0.666992 0.666992 -1 1.33398 -1 2.00098
c0 1.33301 0.333008 2 1 2s1.33398 -0.333008 2.00098 -1s1 -1.33398 1 -2.00098l24 -38c0 -0.666992 0.333008 -1.33398 1 -2.00098s1.33398 -1 2.00098 -1s1 1 1 3v3l-13 142c-1.33301 7.33301 -5 13.333 -11 18s-12.333 10.667 -19 18
c-1.33301 2.66699 -2 4.33398 -2 5.00098c0.666992 2 1.66699 3 3 3c15.333 -0.666992 35.833 0.333008 61.5 3s50.5 7.33398 74.5 14.001c2 0.666992 3.66699 0 5 -2c1.33301 -1.33301 1.33301 -2.66602 0 -3.99902z" />
    <glyph glyph-name="J" unicode="J" horiz-adv-x="236" 
d="M109 -129c-6 -1.33301 -12.4951 -1.3291 -19.4951 0.00390625s-13.167 3 -18.5 5c-7.33301 2.66699 -14 5.66699 -20 9l-22 12c-6 3.33301 -12.5 7.33301 -19.5 12s-12.833 9.66699 -17.5 15c-2 2.66699 -4 5 -6 7s-3.33301 4 -4 6
c-2 5.33301 -2.83301 9.66602 -2.5 12.999s1.5 6.66602 3.5 9.99902c7.33301 16 13.833 25 19.5 27s11.5 2.66699 17.5 2c4.66699 -1.33301 9.5 -2.5 14.5 -3.5s9.83301 -2.16699 14.5 -3.5c5.33301 -2 10.666 -3.66699 15.999 -5l-1 -8
c-11.333 2.66699 -20.166 4.66699 -26.499 6s-11.333 1.5 -15 0.5s-6.66699 -3.16699 -9 -6.5l-9.5 -14c-3.33301 -4.66699 -4 -8.33398 -2 -11.001s4 -4.66699 6 -6c14 -10 28.667 -17.667 44 -23s26.333 -5 33 1c0.666992 0.666992 1.66699 3.5 3 8.5
s2.66602 10.5 3.99902 16.5s2.66602 11.667 3.99902 17s2 8.66602 2 9.99902c1.33301 8 3.33301 18.667 6 32s5.33398 27.666 8.00098 42.999s4.5 31.166 5.5 47.499s0.833008 31.833 -0.5 46.5c-0.666992 2 -1.16699 4.16699 -1.5 6.5s-0.833008 4.5 -1.5 6.5
c-0.666992 2.66699 -1.33398 5 -2.00098 7v4c0.666992 0.666992 2.33398 -0.333008 5.00098 -3l21 -21c3.33301 -3.33301 5.66602 -4.66602 6.99902 -3.99902c1.33301 1.33301 1.33301 4.66602 0 9.99902l-13 120c-0.666992 10.667 -1.66699 21 -3 31
c-1.33301 8.66699 -2.33301 17.167 -3 25.5s-1.33398 14.5 -2.00098 18.5c-1.33301 6 -2.83301 13.167 -4.5 21.5s-3.16699 16.166 -4.5 23.499l-6 26v2v2c1.33301 0 2.33301 -0.333008 3 -1s1 -1.33398 1 -2.00098l24 -38c0 -0.666992 0.333008 -1.33398 1 -2.00098
c0.666992 -1.33301 1.33398 -1.66602 2.00098 -0.999023c0.666992 0 1 1 1 3v3l-13 142c-1.33301 7.33301 -5 13.333 -11 18s-12.333 10.667 -19 18c-1.33301 2.66699 -2 4.33398 -2 5.00098c0.666992 2 1.66699 3 3 3c15.333 -0.666992 35.833 0.333008 61.5 3
s50.5 7.33398 74.5 14.001c2 0 3.66699 -0.666992 5 -2s1.33301 -2.66602 0 -3.99902l-4 -4c-7.33301 -6.66699 -13.333 -16 -18 -28s-7 -22.667 -7 -32c0 -12 0.166992 -26.333 0.5 -43s0.833008 -34.167 1.5 -52.5l2 -56c0.666992 -19 1.33398 -36.833 2.00098 -53.5
c1.33301 -18.667 2.5 -38.667 3.5 -60s2.16699 -41.666 3.5 -60.999l4 -67v-3c0 -2.66699 -0.666992 -4 -2 -4c-0.666992 0 -1.66699 1.33301 -3 4c-0.666992 1.33301 -1 2.66602 -1 3.99902c-0.666992 4.66699 -1.66699 9 -3 13
c-1.33301 3.33301 -2.33301 7.16602 -3 11.499s-1.66699 8.5 -3 12.5c-2.66699 7.33301 -4.33398 12.333 -5.00098 15s-1.66699 5.66699 -3 9c-0.666992 1.33301 -1.33398 3 -2.00098 5s-1.66699 2.66699 -3 2c-2 0 -3 -0.666992 -3 -2v-2
c0.666992 -22 0.333984 -47 -0.999023 -75c-1.33301 -24 -3.33301 -53.167 -6 -87.5s-6.66699 -73.166 -12 -116.499c-1.33301 -4.66699 -2.33301 -7 -3 -7l-2 2c-0.666992 0.666992 -1 1.66699 -1 3c-0.666992 4 -1.33398 8.33301 -2.00098 13
c-0.666992 4 -1.16699 8.5 -1.5 13.5s-0.5 10.167 -0.5 15.5c-0.666992 5.33301 -1 9.5 -1 12.5s-1.66699 4.16699 -5 3.5c-1.33301 0 -2.5 -1.5 -3.5 -4.5s-2.16699 -6.16699 -3.5 -9.5c-8.66699 -26 -16.334 -44.167 -23.001 -54.5s-14.334 -16.166 -23.001 -17.499z" />
    <glyph glyph-name="K" unicode="K" horiz-adv-x="292" 
d="M168 329l126.994 -325c3.33301 -9.33301 8 -15.166 14 -17.499s10 -3.83301 12 -4.5v-9l-130 5v8c4 0.666992 7.33301 1.5 10 2.5s5 2.16699 7 3.5c4 2 6 5.66699 6 11c0 2.66699 -1 6 -3 10l-8 24l-80 213l2 -48.5c0.666992 -15.667 1.66699 -29.834 3 -42.501
c1.33301 -14.667 2.33301 -29 3 -43v-3c0 -2.66699 -0.666992 -4 -2 -4c-0.666992 0 -1.66699 1.33301 -3 4c-0.666992 1.33301 -1 2.66602 -1 3.99902c-0.666992 4.66699 -1.66699 9 -3 13c-1.33301 3.33301 -2.5 7.16602 -3.5 11.499s-2.16699 8.5 -3.5 12.5
c-2 7.33301 -3.5 12.333 -4.5 15l-3.5 9c-0.666992 1.33301 -1.16699 3 -1.5 5s-1.16602 2.66699 -2.49902 2c-0.666992 0 -1.66699 -0.666992 -3 -2c-0.666992 -0.666992 -1 -1.33398 -1 -2.00098l9 -281v-3c0 -1.33301 -0.333008 -2 -1 -2s-1 0.666992 -1 2
c0 0.666992 -0.333008 1.66699 -1 3l-4 18c-1.33301 5.33301 -2.66602 10.333 -3.99902 15s-2.66602 8.66699 -3.99902 12c-2 5.33301 -3.33301 9 -4 11s-2 2.66699 -4 2c-2.66699 0 -4 -2.66699 -4 -8l-14 -194c-0.666992 -1.33301 -1 -2.33301 -1 -3l-2 -2
c-1.33301 0 -2 1.66699 -2 5l-10 119.5c-2.66699 31.667 -5 58.167 -7 79.5s-3.83301 39.166 -5.5 53.499s-3.5 28.833 -5.5 43.5l-14 86l-5 20c-1.33301 1.33301 -1.33301 2.66602 0 3.99902s2.66602 0.333008 3.99902 -3l21 -21l7 -4c0.666992 0.666992 1 2 1 4v6l-14 120
c-1.33301 10.667 -2.33301 21 -3 31c-1.33301 8.66699 -2.16602 17.167 -2.49902 25.5s-0.833008 14.5 -1.5 18.5c-1.33301 6 -2.83301 13.167 -4.5 21.5s-3.16699 16.166 -4.5 23.499l-6 26v2v2c0.666992 0 1.33398 -0.333008 2.00098 -1l2 -2l24 -38
c0 -0.666992 0.333008 -1.33398 1 -2.00098c0 -2 0.666992 -2.33301 2 -1c0.666992 0 1 1 1 3v3l-14 142c-0.666992 7.33301 -4.16699 13.333 -10.5 18s-12.5 10.667 -18.5 18c-1.33301 2.66699 -2 4.33398 -2 5.00098c0 2 0.666992 3 2 3
c15.333 -0.666992 36 0.333008 62 3s51 7.33398 75 14.001c2 0 3.66699 -0.666992 5 -2s1.16602 -2.66602 -0.500977 -3.99902s-3.16699 -2.66602 -4.5 -3.99902c-6.66699 -6.66699 -12.334 -16 -17.001 -28s-7 -22.667 -7 -32
c0.666992 -21.333 1.33398 -47.666 2.00098 -78.999s1.66699 -62.333 3 -93l89 153c6.66699 9.33301 7.33398 17.333 2.00098 24s-12.666 10.667 -21.999 12v8c19.333 1.33301 36.833 3.33301 52.5 6l40.5 7c12.667 2.66699 24.334 5 35.001 7v-8
c-8 -4 -14.333 -8.33301 -19 -13s-9.66699 -10.667 -15 -18c-4.66699 -5.33301 -8.5 -10.666 -11.5 -15.999s-7.16699 -11.666 -12.5 -18.999z" />
    <glyph glyph-name="L" unicode="L" horiz-adv-x="264" 
d="M101 19c17.333 -1.33301 34.498 -2.82617 51.498 -4.49316s30.833 -2.16699 41.5 -1.5c11.333 0.666992 19.166 1.5 23.499 2.5s7.83301 4.83301 10.5 11.5c2.66699 7.33301 5.16699 14.833 7.5 22.5l6.5 20.5c2.66699 7.33301 4.66699 14.333 6 21l1 1
c0.666992 0.666992 1.33398 1 2.00098 1c1.33301 -0.666992 2 -1.66699 2 -3c0.666992 -17.333 1.16699 -31.666 1.5 -42.999s0.666016 -20.833 0.999023 -28.5s0.666016 -14.167 0.999023 -19.5s1.16602 -10.666 2.49902 -15.999c1.33301 -6.66699 2.5 -11.834 3.5 -15.501
l3.5 -13.5c0 -1.33301 0.666992 -3.33301 2 -6c0.666992 -1.33301 1.33398 -2.33301 2.00098 -3v-1c0 -1.33301 -0.333008 -2 -1 -2s-1.16699 0.166992 -1.5 0.5s-0.833008 0.5 -1.5 0.5l-22 8l-20.5 6c-7 2 -14.167 3.66699 -21.5 5l-15 2l-84 7l2 -72v-3
c0 -1.33301 -0.333008 -2 -1 -2s-1 0.666992 -1 2c0 0.666992 -0.333008 1.66699 -1 3l-4 18c-1.33301 5.33301 -2.66602 10.333 -3.99902 15s-2.66602 8.66699 -3.99902 12c-4 9.33301 -6.66699 13.666 -8 12.999c-2.66699 0 -4 -2.66699 -4 -8l-9 -194
c-0.666992 -1.33301 -1 -2.33301 -1 -3l-2 -2c-0.666992 0 -1.66699 1.66699 -3 5l-10 119.5l-6.5 79.5c-1.66699 21.333 -3.33398 39.166 -5.00098 53.499s-3.5 28.833 -5.5 43.5l-14 86l-5 20c-1.33301 1.33301 -1.33301 2.66602 0 3.99902s2.66602 0.333008 3.99902 -3
l21 -21l7 -4c0.666992 0.666992 1 2 1 4v6l-14 120c-1.33301 10.667 -2.33301 21 -3 31c-1.33301 8.66699 -2.16602 17.167 -2.49902 25.5s-0.833008 14.5 -1.5 18.5c-1.33301 6 -2.83301 13.167 -4.5 21.5s-3.16699 16.166 -4.5 23.499l-6 26v2v2
c0.666992 0 1.33398 -0.333008 2.00098 -1l2 -2l24 -38c0 -0.666992 0.333008 -1.33398 1 -2.00098c0 -2 0.666992 -2.33301 2 -1c0.666992 0 1 1 1 3v3l-14 142c-0.666992 7.33301 -4.16699 13.333 -10.5 18s-12.5 10.667 -18.5 18c-2 2 -2.66699 3.66699 -2 5
c0 2 0.666992 3 2 3c15.333 -0.666992 36 0.333008 62 3s51 7.33398 75 14.001c0.666992 0 2.33398 -0.666992 5.00098 -2c0.666992 -2.66699 -1 -5.33398 -5 -8.00098c-6.66699 -6.66699 -12.334 -16 -17.001 -28s-7 -22.667 -7 -32c0 -12 0.166992 -26.333 0.5 -43
s0.833008 -34.167 1.5 -52.5l2 -56c0.666992 -19 1.33398 -36.833 2.00098 -53.5c0.666992 -18.667 1.66699 -38.667 3 -60l4 -61l4 -67v-3c0 -2.66699 -0.666992 -4 -2 -4c-0.666992 0 -1.66699 1.33301 -3 4c-0.666992 1.33301 -1 2.66602 -1 3.99902
c-0.666992 4.66699 -1.66699 9 -3 13c-1.33301 3.33301 -2.5 7.16602 -3.5 11.499s-2.16699 8.5 -3.5 12.5c-2 7.33301 -3.5 12.333 -4.5 15l-3.5 9c-0.666992 1.33301 -1.16699 3 -1.5 5s-1.16602 2.66699 -2.49902 2c-0.666992 0 -1.66699 -0.666992 -3 -2
c-0.666992 -0.666992 -1 -1.33398 -1 -2.00098v-161z" />
    <glyph glyph-name="M" unicode="M" horiz-adv-x="353" 
d="M103 363l3.00586 -60c0.666992 -18.667 1.5 -38.667 2.5 -60s2.16699 -41.666 3.5 -60.999l4 -67v-3c0 -2.66699 -0.333008 -4 -1 -4c-1.33301 0 -2.66602 1.33301 -3.99902 4c-0.666992 1.33301 -1 2.66602 -1 3.99902c-0.666992 4.66699 -1.66699 9 -3 13
c-1.33301 3.33301 -2.33301 7.16602 -3 11.499s-1.66699 8.5 -3 12.5c-2 7.33301 -3.5 12.333 -4.5 15l-3.5 9c-0.666992 1.33301 -1.33398 3 -2.00098 5s-1.66699 2.66699 -3 2c-2 0 -3 -0.666992 -3 -2v-2l9 -281v-3c0 -1.33301 -0.333008 -2 -1 -2s-1 0.666992 -1 2
c0 0.666992 -0.333008 1.66699 -1 3c-2 6 -3.66699 12 -5 18c-1.33301 5.33301 -2.5 10.333 -3.5 15s-2.16699 8.66699 -3.5 12c-4 9.33301 -6.66699 13.666 -8 12.999c-2.66699 0 -4 -2.66699 -4 -8l-14 -194c-0.666992 -1.33301 -1 -2.33301 -1 -3l-2 -2
c-0.666992 0 -1.66699 1.66699 -3 5l-10 119.5l-6.5 79.5c-1.66699 21.333 -3.33398 39.166 -5.00098 53.499s-3.5 28.833 -5.5 43.5l-7 45c-2 13.333 -4.66699 27 -8 41c-0.666992 2 -1 4.16699 -1 6.5s-0.333008 4.5 -1 6.5c-0.666992 2.66699 -1.33398 5 -2.00098 7
c-2 2 -2 3.33301 0 4c1.33301 1.33301 2.66602 0.333008 3.99902 -3l21 -21c1.33301 -1.33301 2.66602 -2.5 3.99902 -3.5s2.33301 -1.16699 3 -0.5s1 2 1 4v6l-14 120c-1.33301 10.667 -2.33301 21 -3 31c-1.33301 8.66699 -2.16602 17.167 -2.49902 25.5
s-0.833008 14.5 -1.5 18.5c-1.33301 6 -2.83301 13.167 -4.5 21.5s-3.16699 16.166 -4.5 23.499l-6 26v2v2c0.666992 0 1.33398 -0.333008 2.00098 -1s1 -1.33398 1 -2.00098l24 -38c0 -0.666992 0.333008 -1.33398 1 -2.00098
c1.33301 -1.33301 2.33301 -1.66602 3 -0.999023c0.666992 0 1 1 1 3v3l-13 127c-0.666992 7.33301 -4.16699 15.5 -10.5 24.5s-12.5 17.167 -18.5 24.5c-2 0.666992 -3 2.33398 -3 5.00098c1.33301 1.33301 2.33301 2 3 2c1.33301 0 4.66602 -0.166992 9.99902 -0.5
s11.166 -0.5 17.499 -0.5s12.666 -0.166992 18.999 -0.5s10.833 -0.5 13.5 -0.5c12.667 0 25.167 0.5 37.5 1.5s24.5 2.16699 36.5 3.5l63 -273l52 223l12 3l36 10l37 9.5c12 3 18.333 4.83301 19 5.5c2 0.666992 3.66699 0 5 -2
c1.33301 -1.33301 1.33301 -2.66602 0 -3.99902l-4 -4c-7.33301 -6.66699 -13.333 -16 -18 -28s-7.33398 -22.667 -8.00098 -32l3 -424c0 -15.333 3.16699 -29.166 9.5 -41.499s13.166 -21.166 20.499 -26.499v-7c-11.333 2.66699 -23.666 5.33398 -36.999 8.00098
c-11.333 2 -24.5 3.83301 -39.5 5.5s-31.167 2.16699 -48.5 1.5l1 7c9.33301 6.66699 16.833 15.834 22.5 27.501s8.5 24.167 8.5 37.5l-5 321l-67 -290c-0.666992 -2 -2 -3.33301 -4 -4s-3.33301 0.666016 -4 3.99902z" />
    <glyph glyph-name="N" unicode="N" horiz-adv-x="298" 
d="M102 347c0 -7.33301 0.165039 -14.6562 0.498047 -21.9893s0.833008 -14.666 1.5 -21.999c0.666992 -18.667 1.5 -38.667 2.5 -60s2.16699 -41.666 3.5 -60.999l4 -66v-4c0 -2.66699 -0.666992 -4 -2 -4c-0.666992 0 -1.66699 1.33301 -3 4
c-0.666992 1.33301 -1 2.66602 -1 3.99902c-0.666992 4.66699 -1.66699 9 -3 13c-1.33301 3.33301 -2.33301 7.16602 -3 11.499s-1.66699 8.5 -3 12.5c-2.66699 7.33301 -4.33398 12.333 -5.00098 15s-1.66699 5.66699 -3 9c-0.666992 1.33301 -1.33398 3 -2.00098 5
s-1.66699 3 -3 3c-2 -1.33301 -3 -2.33301 -3 -3v-2l9 -281v-3l-1 -2l-2 2c-0.666992 0.666992 -1 1.66699 -1 3l-4 18c-1.33301 5.33301 -2.5 10.333 -3.5 15s-2.16699 8.66699 -3.5 12c-2.66699 5.33301 -4.33398 9.16602 -5.00098 11.499s-2 3.16602 -4 2.49902
s-3 -1.83398 -3 -3.50098s-0.333008 -3.5 -1 -5.5l-14 -194v-3c0 -1.33301 -0.666992 -2 -2 -2c-2 0 -3 1.66699 -3 5l-10 119.5c-2.66699 31.667 -5 58.167 -7 79.5s-3.83301 39.166 -5.5 53.499s-3.5 28.833 -5.5 43.5c-2 17.333 -4.16699 32.666 -6.5 45.999
s-4.83301 26.666 -7.5 39.999c-0.666992 2 -1.16699 4.16699 -1.5 6.5s-0.833008 4.5 -1.5 6.5c-0.666992 2.66699 -1.33398 5 -2.00098 7v4c0.666992 0.666992 2.33398 -0.333008 5.00098 -3l21 -21l3.5 -3.5c1 -1 2.16699 -1.16699 3.5 -0.5
c1.33301 1.33301 1.33301 4.66602 0 9.99902l-13 120c-0.666992 10.667 -1.66699 21 -3 31c-1.33301 8.66699 -2.33301 17.167 -3 25.5s-1.33398 14.5 -2.00098 18.5c-1.33301 6 -2.83301 13.167 -4.5 21.5s-3.16699 16.166 -4.5 23.499
c-2 8.66699 -3.66699 17.334 -5 26.001c-0.666992 0.666992 -1 1.33398 -1 2.00098c0 1.33301 0.333008 2 1 2s1.33398 -0.333008 2.00098 -1s1 -1.33398 1 -2.00098l24 -38c0 -0.666992 0.333008 -1.33398 1 -2.00098s1.33398 -1 2.00098 -1s1 1 1 3v3l-13 147
c-0.666992 7.33301 -4.16699 13.333 -10.5 18s-12.833 10.667 -19.5 18c-1.33301 2.66699 -2 4.33398 -2 5.00098c0.666992 2 1.66699 3 3 3c8.66699 -1.33301 15.834 -2.33301 21.501 -3s11.834 -1 18.501 -1s14.834 0.333008 24.501 1s22.834 2 39.501 4
c4.66699 1.33301 6.33398 -0.333984 5.00098 -5.00098c2.66699 -9.33301 5.83398 -19.5 9.50098 -30.5s7.83398 -21.5 12.501 -31.5l101 -249l-3 237c-0.666992 7.33301 -4 13.5 -10 18.5s-12.333 11.167 -19 18.5c-1.33301 1.33301 -2 3 -2 5
c1.33301 1.33301 2.33301 2 3 2c15.333 0 32 1.33301 50 4s39 7 63 13c2 1.33301 3.66699 0.666016 5 -2.00098c1.33301 -1.33301 1.16602 -2.5 -0.500977 -3.5s-3.16699 -2.16699 -4.5 -3.5c-6.66699 -6.66699 -12.334 -15.834 -17.001 -27.501
s-7.33398 -22.167 -8.00098 -31.5l-1 -472c0 -2.66699 -0.833008 -4.33398 -2.5 -5.00098s-3.16699 0 -4.5 2z" />
    <glyph glyph-name="O" unicode="O" horiz-adv-x="270" 
d="M122 558c9.33301 7.33301 21.1719 11.168 35.5049 11.501s26.166 -4.16699 35.499 -13.5l30 -47c11.333 -11.333 17.833 -20.833 19.5 -28.5s2.83398 -18.5 3.50098 -32.5l12 -343c0.666992 -11.333 -0.333008 -22.666 -3 -33.999s-7.66699 -20.333 -15 -27l-11 -11
l-10.5 -10c-3.66699 -3.33301 -7.16699 -6.33301 -10.5 -9c-14.667 -11.333 -30.334 -20.666 -47.001 -27.999s-27.667 -9.66602 -33 -6.99902c-7.33301 3.33301 -16 10.166 -26 20.499s-19.667 21.166 -29 32.499c-11.333 12.667 -23 26.667 -35 42l-1 2
c0 -8.66699 -0.166992 -18 -0.5 -28s-0.833008 -18.5 -1.5 -25.5s-1.5 -11.667 -2.5 -14s-2.16699 -0.5 -3.5 5.5c-2 7.33301 -3.33301 14.833 -4 22.5s-1.33398 12.834 -2.00098 15.501c-3.33301 17.333 -6 32.666 -8 45.999s-4.66699 26.666 -8 39.999
c-0.666992 2 -1.16699 4.16699 -1.5 6.5s-0.833008 4.5 -1.5 6.5c-0.666992 2.66699 -1.33398 5 -2.00098 7v4c1.33301 1.33301 2.66602 0.333008 3.99902 -3l22 -21c1.33301 -1.33301 2.66602 -2.5 3.99902 -3.5s2.33301 -1.16699 3 -0.5
c1.33301 1.33301 1.33301 4.66602 0 9.99902l-15 120c-0.666992 11.333 -1.66699 22 -3 32c-1.33301 8.66699 -2.5 17 -3.5 25s-1.83301 14 -2.5 18c-3.33301 13.333 -6.66602 28.333 -9.99902 45l-6 26v2v2c0.666992 0 1.33398 -0.333008 2.00098 -1s1 -1.33398 1 -2.00098
l25 -38l1 -1c0.666992 -1.33301 1.33398 -1.66602 2.00098 -0.999023c0.666992 0 1 0.333008 1 1v4l-5 47c-2 15.333 -2.83301 29.333 -2.5 42s5.16602 23 14.499 31l14 12c9.33301 8 18.333 15.333 27 22c3.33301 3.33301 7.66602 6.33301 12.999 9
s10.666 5.66699 15.999 9c6 2.66699 12 6 18 10zM92.0059 74.002c5.33301 -9.33301 11.499 -17.6689 18.499 -25.002s12.5 -12.666 16.5 -15.999c5.33301 -4 10 -6.66699 14 -8s10 0.333984 18 5.00098c7.33301 4.66699 13.166 11 17.499 19s6.5 19.667 6.5 35l-5 228
c-0.666992 18.667 -1.33398 36.334 -2.00098 53.001c-0.666992 14 -1.5 27.667 -2.5 41s-2.16699 23.333 -3.5 30c-3.33301 12 -9 21 -17 27s-13.667 10.667 -17 14c6 2.66699 11.333 6.66699 16 12s5.33398 12 2.00098 20c-2 5.33301 -5.16699 7 -9.5 5
s-8.16602 -4 -11.499 -6l-8.5 -5.5c-3.66699 -2.33301 -7.16699 -4.83301 -10.5 -7.5c-4 -2.66699 -8 -6 -12 -10c-5.33301 -4.66699 -9.66602 -12.667 -12.999 -24c1.33301 -23.333 2.5 -48.166 3.5 -74.499s2.16699 -51.5 3.5 -75.5
c1.33301 -18.667 3.16602 -39.167 5.49902 -61.5s4.83301 -43.166 7.5 -62.499c2.66699 -22.667 6 -45.667 10 -69v-3c0 -2.66699 -0.666992 -4 -2 -4c-0.666992 0 -1.66699 1.33301 -3 4c-0.666992 1.33301 -1 2.66602 -1 3.99902c-1.33301 4.66699 -2.66602 9 -3.99902 13
c-1.33301 3.33301 -2.33301 7.16602 -3 11.499s-1.66699 8.16602 -3 11.499l-9 25c-1.33301 4.66699 -3 7 -5 7s-3 -1 -3 -3v-2z" />
    <glyph glyph-name="P" unicode="P" horiz-adv-x="261" 
d="M16 563c-0.666992 0.666992 -0.998047 1.33984 -0.998047 2.00684c-0.666992 0.666992 -1 1.66699 -1 3c1.33301 1.33301 2.33301 2 3 2c1.33301 0 2.66602 0.166992 3.99902 0.5s2.66602 0.5 3.99902 0.5h5c6 0.666992 12.333 1 19 1h17c6 0 11.667 0.333008 17 1
c15.333 0.666992 28.666 1.5 39.999 2.5s23.666 1.83301 36.999 2.5h12.5c3.66699 0 7.5 -0.666992 11.5 -2c1.33301 -1.33301 3.16602 -2.83301 5.49902 -4.5s4.16602 -3.5 5.49902 -5.5c7.33301 -10.667 13.5 -20 18.5 -28s12.167 -18.667 21.5 -32
c4.66699 -7.33301 8.5 -14 11.5 -20s4.16699 -14 3.5 -24v-17v-19.5c0 -7.66699 -0.333008 -16.5 -1 -26.5c-0.666992 -10.667 -1.16699 -20.167 -1.5 -28.5s-0.5 -15.5 -0.5 -21.5c-0.666992 -7.33301 -1 -13.666 -1 -18.999v-4c0 -2 -0.666992 -5 -2 -9
c-1.33301 -4.66699 -2.66602 -7.66699 -3.99902 -9c-4.66699 -5.33301 -8.83398 -9.33301 -12.501 -12s-9.16699 -5.66699 -16.5 -9s-14.333 -6 -21 -8c-3.33301 -1.33301 -7 -2.33301 -11 -3c-2 -0.666992 -4 -1 -6 -1c-3.33301 -1.33301 -6 -1.33301 -8 0
s-4.33301 4.33301 -7 9l-4 8l-6 10l-11 22c0.666992 -3.33301 1 -6.83301 1 -10.5v-10.5c0.666992 -18.667 1.66699 -38.667 3 -60l4 -61l4 -66v-4c0 -2.66699 -0.666992 -4 -2 -4c-0.666992 0 -1.66699 1.33301 -3 4c-0.666992 1.33301 -1 2.66602 -1 3.99902
c-0.666992 4.66699 -1.66699 9 -3 13c-1.33301 3.33301 -2.33301 7.16602 -3 11.499s-1.66699 8.5 -3 12.5c-2.66699 7.33301 -4.33398 12.333 -5.00098 15s-1.66699 5.66699 -3 9c-1.33301 1.33301 -2.16602 3 -2.49902 5s-1.16602 3 -2.49902 3
c-2 -1.33301 -3 -2.33301 -3 -3v-2l9 -281v-3l-1 -2c-1.33301 0 -2 0.666992 -2 2c-0.666992 0.666992 -1 1.66699 -1 3l-4 18c-1.33301 5.33301 -2.66602 10.333 -3.99902 15s-2.66602 8.66699 -3.99902 12c-2 5.33301 -3.33301 9.16602 -4 11.499s-2 3.16602 -4 2.49902
c-2.66699 -0.666992 -4 -3.66699 -4 -9l-14 -194v-3c0 -1.33301 -1 -2 -3 -2c-1.33301 0 -2 1.66699 -2 5l-10 119.5c-2.66699 31.667 -5 58.167 -7 79.5s-3.83301 39.166 -5.5 53.499s-3.5 28.833 -5.5 43.5l-7 46c-2 13.333 -4.33301 26.666 -7 39.999l-5 20v4
c1.33301 1.33301 2.66602 0.333008 3.99902 -3l22 -21l3.5 -3.5c1 -1 2.16699 -1.16699 3.5 -0.5c0.666992 0.666992 0.833984 2 0.500977 4s-0.5 4 -0.5 6l-13 120c-0.666992 10.667 -1.66699 21 -3 31c-1.33301 8.66699 -2.33301 17.167 -3 25.5
s-1.33398 14.5 -2.00098 18.5c-1.33301 6 -2.83301 13.167 -4.5 21.5s-3.16699 16.166 -4.5 23.499l-6 26v2v2c1.33301 0 2.33301 -0.333008 3 -1s1 -1.33398 1 -2.00098l24 -38c0 -0.666992 0.333008 -1.33398 1 -2.00098s1.33398 -1 2.00098 -1s1 1 1 3v3l-15 145
c0 3.33301 -0.333008 6.33301 -1 9c-1.33301 6 -3 10 -5 12c-5.33301 4 -10.666 8.66699 -15.999 14c-2.66699 2.66699 -5.66699 5.33398 -9 8.00098zM137.002 345.006c0 -0.666992 0.168945 -1.00195 0.501953 -1.00195s0.5 -0.333008 0.5 -1
c3.33301 -4 5.66602 -8 6.99902 -12c1.33301 -2.66699 4 -6.66699 8 -12c2 -2.66699 3.66699 -5 5 -7c1.33301 -2.66699 3.66602 -4 6.99902 -4s6 1 8 3c2.66699 2 4.33398 4.5 5.00098 7.5s1.33398 6.5 2.00098 10.5c0.666992 6 1 11.167 1 15.5v14.5l-5 127v32
c0 3.33301 -0.5 7 -1.5 11s-2.16699 6.66699 -3.5 8c-2.66699 2 -6.33398 3.33301 -11.001 4h-16c-3.33301 0.666992 -6.33301 -0.666016 -9 -3.99902c-2 -2 -3 -5.66699 -3 -11v-7c0 -18.667 0.333008 -37.667 1 -57c0.666992 -17.333 1.16699 -36.166 1.5 -56.499
s1.16602 -40.5 2.49902 -60.5z" />
    <glyph glyph-name="Q" unicode="Q" horiz-adv-x="282" 
d="M137 555c9.33301 7.33301 21.1631 11.167 35.4961 11.5s26.166 -4.5 35.499 -14.5l30 -46c10.667 -11.333 17 -20.833 19 -28.5s3.33301 -18.5 4 -32.5l9 -340c0.666992 -11.333 -0.333008 -22.5 -3 -33.5s-7.66699 -19.833 -15 -26.5l-11 -11l-10.5 -10
c-3.66699 -3.33301 -7.16699 -6.33301 -10.5 -9c-9.33301 -7.33301 -18.833 -13.666 -28.5 -18.999s-18.5 -9.66602 -26.5 -12.999l15 -150v-1l-1 -1c-0.666992 0 -1 0.333008 -1 1l-1 1c-1.33301 4 -2.66602 7.66699 -3.99902 11s-2.33301 6.33301 -3 9
s-1.66699 4.66699 -3 6c-3.33301 5.33301 -5.66602 7.66602 -6.99902 6.99902c-1.33301 0 -2.66602 -1.66699 -3.99902 -5l-11 -108c-0.666992 -0.666992 -1 -1.33398 -1 -2.00098l-1 -1c-1.33301 0 -2 0.333008 -2 1s-0.333008 1.33398 -1 2.00098
c-3.33301 26.667 -6 48.834 -8 66.501s-3.83301 32.5 -5.5 44.5s-3.16699 22 -4.5 30s-3 16 -5 24c-2 9.33301 -4 17.833 -6 25.5l-6 23.5c-0.666992 1.33301 -1 2.5 -1 3.5s-0.333008 2.16699 -1 3.5l-2 4v2c0.666992 0.666992 1.33398 0.666992 2.00098 0
s1.33398 -1 2.00098 -1l18 -12c0.666992 -2 2.33398 -3 5.00098 -3c0.666992 0.666992 1 2.66699 1 6v16c-8 6 -16.833 14 -26.5 24l-27.5 29l-31 35c-8.66699 9.33301 -13.167 22.166 -13.5 38.499s-1.5 41.166 -3.5 74.499c-0.666992 12 -1.16699 27.667 -1.5 47l-1 57.5
c-0.333008 19 -0.666016 36.167 -0.999023 51.5s-0.5 25 -0.5 29c0 12 -0.333008 24 -1 36s-0.5 23.167 0.5 33.5s2.83301 20 5.5 29s7.66699 16.5 15 22.5c5.33301 4 11 8 17 12c5.33301 3.33301 10.5 7 15.5 11s9.83301 7.66699 14.5 11
c3.33301 3.33301 7.66602 6.33301 12.999 9s10.666 5.66699 15.999 9c6 2.66699 12 6 18 10zM107.997 100.001c0 -9.33301 2.16895 -19 6.50195 -29s9.16602 -18.667 14.499 -26v98c0 2 0.5 3 1.5 3s1.83301 -0.333008 2.5 -1l8 -27c2.66699 -2.66699 4 -2.33398 4 0.999023
l4 107c0.666992 2.66699 1.66699 4 3 4s2.33301 -1 3 -3l13 -165c0 -1.33301 -0.333008 -2.16602 -1 -2.49902s-1 0.166992 -1 1.5l-8 19c-0.666992 2 -1.33398 2.66699 -2.00098 2s-1 -1.66699 -1 -3l5 -53c1.33301 0.666992 3 1.33398 5 2.00098s4 1.66699 6 3
c7.33301 4 13.166 10 17.499 18s6.16602 19.667 5.49902 35l-1 225c-0.666992 18.667 -1.33398 36.334 -2.00098 53.001c-1.33301 14 -2.5 27.667 -3.5 41s-2.16699 23.333 -3.5 30c-2.66699 12 -8 21 -16 27s-13.667 10.667 -17 14c5.33301 2.66699 10.5 6.5 15.5 11.5
s5.83301 11.833 2.5 20.5c-2 5.33301 -5.16699 7 -9.5 5s-8.16602 -4 -11.499 -6l-8.5 -5.5c-3.66699 -2.33301 -7.16699 -4.83301 -10.5 -7.5c-4 -2.66699 -8 -6 -12 -10c-8.66699 -6.66699 -13.667 -18.5 -15 -35.5s-1.66602 -34.5 -0.999023 -52.5
c0 -6.66699 0.166992 -19.834 0.5 -39.501s0.833008 -43.334 1.5 -71.001s1.33398 -57.5 2.00098 -89.5s1.66699 -63.333 3 -94z" />
    <glyph glyph-name="R" unicode="R" horiz-adv-x="261" 
d="M234 455l0.0107422 -27c0 -15.333 -0.666992 -32.666 -2 -51.999c-0.666992 -7.33301 -1.33398 -12.833 -2.00098 -16.5s-1.66699 -8.5 -3 -14.5c-2.66699 -13.333 -7.83398 -23.666 -15.501 -30.999l-20.5 -19c-4 -3.33301 -8.66699 -6.16602 -14 -8.49902
s-10.666 -4.16602 -15.999 -5.49902l18 -9c9.33301 -3.33301 17.666 -8 24.999 -14c6.66699 -5.33301 12.667 -11.666 18 -18.999s8.66602 -16.666 9.99902 -27.999l18 -185c0.666992 -5.33301 1.16699 -10 1.5 -14s1.66602 -7.66699 3.99902 -11s6.16602 -6 11.499 -8
s13 -3.33301 23 -4c3.33301 0 6.66602 0.333008 9.99902 1s5 4 5 10c0.666992 -0.666992 1.66699 -1 3 -1h4c0.666992 -8 -0.666016 -13.667 -3.99902 -17s-9.33301 -6 -18 -8c-18 -3.33301 -33.167 -6.66602 -45.5 -9.99902s-22.5 -5 -30.5 -5s-14.167 2.33301 -18.5 7
s-7.16602 12.667 -8.49902 24l-24 224c-1.33301 10 -5.83301 18.167 -13.5 24.5s-16.167 12.166 -25.5 17.499c1.33301 -16.667 2.16602 -33.167 2.49902 -49.5s1.16602 -31.166 2.49902 -44.499c0.666992 -16 1.66699 -31 3 -45v-4c0 -2.66699 -0.333008 -4 -1 -4
c-1.33301 0 -2.66602 1.33301 -3.99902 4c-0.666992 1.33301 -1 2.66602 -1 3.99902c-0.666992 4.66699 -1.66699 9 -3 13c-1.33301 3.33301 -2.33301 7.16602 -3 11.499s-1.66699 8.5 -3 12.5c-2.66699 7.33301 -4.33398 12.333 -5.00098 15s-1.66699 5.66699 -3 9
c-0.666992 1.33301 -1.33398 3 -2.00098 5s-1.66699 3 -3 3c-2 -1.33301 -3 -2.33301 -3 -3v-2l9 -281v-3l-1 -2l-2 2c-0.666992 0.666992 -1 1.66699 -1 3l-4 18c-1.33301 5.33301 -2.5 10.333 -3.5 15s-2.16699 8.66699 -3.5 12
c-2.66699 5.33301 -4.33398 9.16602 -5.00098 11.499s-2 3.16602 -4 2.49902c-1.33301 -0.666992 -2.66602 -3.66699 -3.99902 -9l-13 -194c-0.666992 -1.33301 -1 -2.33301 -1 -3l-2 -2c-2 0 -3 1.66699 -3 5l-10 119.5l-6.5 79.5
c-1.66699 21.333 -3.33398 39.166 -5.00098 53.499s-3.5 28.833 -5.5 43.5c-2.66699 17.333 -5.16699 32.666 -7.5 45.999s-4.83301 26.666 -7.5 39.999c-0.666992 2 -1.16699 4.16699 -1.5 6.5s-0.833008 4.5 -1.5 6.5c-0.666992 2.66699 -1.33398 5 -2.00098 7v4
c0.666992 0.666992 2.33398 -0.333008 5.00098 -3l21 -21c1.33301 -1.33301 2.66602 -2.5 3.99902 -3.5s2.33301 -1.16699 3 -0.5c1.33301 1.33301 1.33301 4.66602 0 9.99902l-13 120c-0.666992 10.667 -1.66699 21 -3 31c-1.33301 8.66699 -2.33301 17.167 -3 25.5
s-1.33398 14.5 -2.00098 18.5c-1.33301 6 -2.83301 13.167 -4.5 21.5s-3.16699 16.166 -4.5 23.499c-2 8.66699 -3.66699 17.334 -5 26.001c-0.666992 0.666992 -1 1.33398 -1 2.00098c0 1.33301 0.333008 2 1 2s1.33398 -0.333008 2.00098 -1s1 -1.33398 1 -2.00098l24 -38
c0 -0.666992 0.333008 -1.33398 1 -2.00098s1.33398 -1 2.00098 -1s1 1 1 3v3l-14 145c-0.666992 3.33301 -1.33398 6.33301 -2.00098 9c-1.33301 6 -3 10 -5 12c-2 1.33301 -4.33301 3.33301 -7 6l-8 8c-2.66699 2.66699 -5.66699 5.33398 -9 8.00098
c0 0.666992 -0.333008 1.33398 -1 2.00098c-1.33301 1.33301 -1.66602 2.33301 -0.999023 3c0 1.33301 0.666992 2 2 2s2.83301 0.166992 4.5 0.5s3.16699 0.5 4.5 0.5h4c6 0.666992 12.333 1 19 1h17c6 0 11.667 0.333008 17 1c15.333 0.666992 28.666 1.5 39.999 2.5
s23.666 1.83301 36.999 2.5h13.5c3.66699 0 7.16699 -0.666992 10.5 -2l6.5 -4.5c2.33301 -1.66699 4.16602 -3.5 5.49902 -5.5c7.33301 -10.667 13.333 -20 18 -28s11.667 -18.667 21 -32c5.33301 -7.33301 9.33301 -14 12 -20s4 -14 4 -24v-8zM124.011 298
c6 0 11.167 1.99707 15.5 5.99707s8 8.83301 11 14.5s5.33301 11.5 7 17.5s2.83398 11 3.50098 15c0.666992 2.66699 1 8.16699 1 16.5v28c0 10.333 -0.166992 20.833 -0.5 31.5s-0.5 20 -0.5 28v3c-0.666992 3.33301 -1 6.16602 -1 8.49902v8.5
c-1.33301 16.667 -3.33301 31.834 -6 45.501s-8.33398 20.834 -17.001 21.501h-10c-2.66699 0.666992 -5.66699 -0.666016 -9 -3.99902c-2 -2 -3 -5.66699 -3 -11c0 -2.66699 0.333008 -5 1 -7c0 -18.667 0.333008 -37.667 1 -57c0.666992 -17.333 1 -36.166 1 -56.499
s0.666992 -40.5 2 -60.5l1 -21v-10.5c0 -3.66699 0.333008 -7.16699 1 -10.5v-6h2z" />
    <glyph glyph-name="S" unicode="S" horiz-adv-x="242" 
d="M41 176l9.00488 -0.00390625c0.666992 -25.333 3.66699 -47.166 9 -65.499s14.333 -36.166 27 -53.499c4.66699 -7.33301 10.834 -14.166 18.501 -20.499s15.167 -9.16602 22.5 -8.49902c3.33301 0.666992 7.16602 4 11.499 10s8.33301 12.667 12 20
s6.83398 14.666 9.50098 21.999s4 12.666 4 15.999c0.666992 12.667 -0.333008 25.334 -3 38.001s-6 24.834 -10 36.501s-8.66699 22.334 -14 32.001l-14 25.5l-13 20l-1 2l1 1c0.666992 0 3.16699 -1.66699 7.5 -5s8.66602 -7 12.999 -11l12.5 -11.5
c4 -3.66699 6.33301 -5.5 7 -5.5c2 0 2.83301 1.33301 2.5 4s-0.833008 4.66699 -1.5 6c-5.33301 14.667 -12.166 27.5 -20.499 38.5s-17.5 21.333 -27.5 31s-20.667 19.167 -32 28.5l-35 29c-5.33301 4.66699 -10.333 9.33398 -15 14.001s-9 9.66699 -13 15
c-1.33301 1.33301 -4.33301 5.5 -9 12.5s-7 11.167 -7 12.5c0.666992 0 3.16699 -1.83301 7.5 -5.5l14 -11.5l14.5 -11.5c4.66699 -3.66699 8 -5.5 10 -5.5c0.666992 0 1 0.333008 1 1c0 1.33301 -0.166992 2 -0.5 2s-0.5 0.333008 -0.5 1
c-5.33301 8.66699 -10.333 17.5 -15 26.5s-8.66699 18.167 -12 27.5c-2.66699 7.33301 -1.83398 14.666 2.49902 21.999s8.5 13.666 12.5 18.999c2.66699 4.66699 8 12.5 16 23.5l25 33.5c8.66699 11.333 16.667 21.333 24 30s11.666 13 12.999 13
c6.66699 5.33301 13.334 8.16602 20.001 8.49902s12.667 -0.5 18 -2.5c6.66699 -2.66699 15 -5.83398 25 -9.50098s17.667 -6.16699 23 -7.5c2.66699 -0.666992 6 -1.33398 10 -2.00098s7.66699 0.666016 11 3.99902c1.33301 2 2.16602 3.66699 2.49902 5
s1.16602 3.33301 2.49902 6h8l-23 -161h-8c-2.66699 14.667 -4.83398 28.334 -6.50098 41.001s-3.83398 21.667 -6.50098 27c-2 4.66699 -6 9.83398 -12 15.501s-12.333 10.5 -19 14.5s-13 6.83301 -19 8.5s-10 1.16699 -12 -1.5l-19.5 -25
c-6.33301 -8 -11.166 -15.667 -14.499 -23c-2 -4.66699 -2 -9.66699 0 -15s5 -10.833 9 -16.5s8.33301 -11.167 13 -16.5l12 -14l28 -34.5l30 -37.5c14 -17.333 27.167 -32.666 39.5 -45.999s22.5 -28.333 30.5 -45l5.5 -13.5c2.33301 -5.66699 4.5 -11.667 6.5 -18
s3.66699 -12.5 5 -18.5s2 -11 2 -15v-2l-1 -1c-1.33301 0 -2.5 1.16699 -3.5 3.5s-1.83301 4.16602 -2.5 5.49902c-4 10 -8.5 20 -13.5 30s-11.167 19.333 -18.5 28c-0.666992 1.33301 -1.83398 2.83301 -3.50098 4.5s-3.16699 2.5 -4.5 2.5s-2 -0.333008 -2 -1v-2
c7.33301 -17.333 12.666 -36.666 15.999 -57.999s5 -42.333 5 -63c0 -22 -3.16699 -42.833 -9.5 -62.5s-17.166 -37.5 -32.499 -53.5c-0.666992 -0.666992 -1.33398 -1.5 -2.00098 -2.5s-1.33398 -1.5 -2.00098 -1.5c-0.666992 0.666992 -1 1.33398 -1 2.00098
c0 1.33301 1.33301 4.66602 4 9.99902s5.66699 11.666 9 18.999c1.33301 2 2.66602 4.66699 3.99902 8s1 4.33301 -1 3c-1.33301 0 -3.33301 -2 -6 -6c-36 -48 -62.333 -71.667 -79 -71c-8 0 -17.667 3.66699 -29 11s-23.666 16.666 -36.999 27.999
c-3.33301 1.33301 -6.16602 2.83301 -8.49902 4.5s-5.83301 -0.166016 -10.5 -5.49902c-3.33301 -3.33301 -7.5 -8.83301 -12.5 -16.5s-8.83301 -14.167 -11.5 -19.5h-11c6.66699 18.667 13 39 19 61c5.33301 18.667 10 39.834 14 63.501s6.33301 48.834 7 75.501z" />
    <glyph glyph-name="T" unicode="T" horiz-adv-x="271" 
d="M74 503c-11.333 -1.33301 -19.334 -6.32812 -24.001 -14.9951c-2.66699 -4 -5.83398 -11 -9.50098 -21s-6.5 -22 -8.5 -36l-9 -1c-0.666992 0.666992 -0.833984 7 -0.500977 19s0.5 25 0.5 39v56c0 3.33301 0.833008 5.33301 2.5 6s4.16699 1.33398 7.5 2.00098h12h26
c10 0 20.333 0.166992 31 0.5s20.334 1.16602 29.001 2.49902l27 3c8 0.666992 17.5 2.16699 28.5 4.5l32 6.5c10.333 2 19.333 3.83301 27 5.5l11.5 2.5c3.33301 0.666992 5.66602 1 6.99902 1s2 -1.33301 2 -4v-116h-9c0 0.666992 -0.5 3.33398 -1.5 8.00098
s-2.33301 10 -4 16s-3.5 12.167 -5.5 18.5s-4.33301 11.5 -7 15.5c-4.66699 5.33301 -12.334 7.66602 -23.001 6.99902l-32 -5c0 -1.33301 -0.166992 -3 -0.5 -5s-0.5 -3.66699 -0.5 -5c0 -12 0.166992 -26.333 0.5 -43s0.833008 -34.167 1.5 -52.5l2 -56
c0.666992 -19 1.33398 -36.833 2.00098 -53.5c0.666992 -18.667 1.66699 -38.667 3 -60l4 -61l4 -67v-3c0 -2.66699 -0.666992 -4 -2 -4c-0.666992 0 -1.66699 1.33301 -3 4c-0.666992 1.33301 -1 2.66602 -1 3.99902c-0.666992 4.66699 -1.66699 9 -3 13
c-1.33301 3.33301 -2.33301 7.16602 -3 11.499s-1.66699 8.5 -3 12.5c-2.66699 7.33301 -4.33398 12.333 -5.00098 15s-1.66699 5.66699 -3 9c-1.33301 1.33301 -2.16602 3 -2.49902 5s-1.16602 2.66699 -2.49902 2c-2 0 -3 -0.666992 -3 -2v-2l9 -281v-3l-1 -2
c-1.33301 0 -2 0.666992 -2 2c-0.666992 0.666992 -1 1.66699 -1 3l-4 18c-1.33301 5.33301 -2.66602 10.333 -3.99902 15s-2.66602 8.66699 -3.99902 12c-2 5.33301 -3.33301 9 -4 11s-2 2.66699 -4 2c-2.66699 0 -4 -2.66699 -4 -8l-14 -194v-3
c0 -1.33301 -0.666992 -2 -2 -2c-2 0 -3 1.66699 -3 5l-10 119.5c-2.66699 31.667 -5 58.167 -7 79.5s-3.83301 39.166 -5.5 53.499s-3.5 28.833 -5.5 43.5l-14 86l-5 20v4c1.33301 1.33301 2.66602 0.333008 3.99902 -3l22 -21l3.5 -3.5c1 -1 2.16699 -1.16699 3.5 -0.5
c0.666992 0.666992 0.833984 2 0.500977 4s-0.5 4 -0.5 6l-13 120c-0.666992 10.667 -1.66699 21 -3 31c-1.33301 8.66699 -2.33301 17.167 -3 25.5s-1.33398 14.5 -2.00098 18.5c-1.33301 6 -2.83301 13.167 -4.5 21.5s-3.16699 16.166 -4.5 23.499l-6 26v2v2
c1.33301 0 2.33301 -0.333008 3 -1s1 -1.33398 1 -2.00098l24 -38c0 -0.666992 0.333008 -1.33398 1 -2.00098c0.666992 -1.33301 1.33398 -1.66602 2.00098 -0.999023c0.666992 0 1 1 1 3v3l-13 132z" />
    <glyph glyph-name="U" unicode="U" horiz-adv-x="293" 
d="M128 569c-7.33301 -6.66699 -13.333 -16.0039 -18 -28.0039s-7 -22.667 -7 -32c0 -12.667 0.166992 -27.167 0.5 -43.5s0.833008 -33.666 1.5 -51.999l2 -56c0.666992 -19 1.33398 -36.833 2.00098 -53.5c1.33301 -18.667 3 -40 5 -64s4.33301 -46.667 7 -68
c2.66699 -25.333 6 -51.333 10 -78c0.666992 -1.33301 1 -2.66602 1 -3.99902c0 -2 -0.333008 -3 -1 -3c-0.666992 -0.666992 -2.33398 0.666016 -5.00098 3.99902c-1.33301 1.33301 -2.33301 2.66602 -3 3.99902c-1.33301 3.33301 -3.33301 6.66602 -6 9.99902
c-2 3.33301 -4.16699 7.16602 -6.5 11.499s-4.16602 9.16602 -5.49902 14.499c-2.66699 7.33301 -4.33398 12.333 -5.00098 15s-1.66699 5.66699 -3 9c-1.33301 5.33301 -3 8 -5 8c-1.33301 0 -2 -1 -2 -3v-2c0 -2.66699 0.333008 -5.33398 1 -8.00098
c0.666992 -3.33301 1.16699 -7 1.5 -11s1.16602 -9.66699 2.49902 -17c3.33301 -18 8.5 -33.5 15.5 -46.5s15.833 -24.833 26.5 -35.5c5.33301 -6 10.5 -9 15.5 -9s10.5 1.66699 16.5 5c7.33301 4.66699 13.166 13.834 17.499 27.501s6.5 27.834 6.5 42.501v365
c-0.666992 4.66699 -2 10.334 -4 17.001s-8.33301 10 -19 10v7l47 2c13.333 0.666992 26.5 1 39.5 1s24.167 0.333008 33.5 1v-7c-6.66699 -3.33301 -12.167 -8.83301 -16.5 -16.5s-6.5 -16.167 -6.5 -25.5l-1 -351c-0.666992 -22.667 -7.16699 -42.167 -19.5 -58.5
s-26 -29.666 -41 -39.999s-29.333 -17.5 -43 -21.5s-22.167 -5.33301 -25.5 -4c-7.33301 3.33301 -15.5 6.66602 -24.5 9.99902s-19 9.16602 -30 17.499s-22.667 20.333 -35 36s-25.166 37.834 -38.499 66.501c-1.33301 2 -2.16602 4.16699 -2.49902 6.5
s-0.833008 4.5 -1.5 6.5c-0.666992 2.66699 -1 5 -1 7v4l5 -2l18 -22l6 -6c2.66699 -2.66699 4.66699 -3.66699 6 -3c0.666992 0.666992 0.666992 3.66699 0 9s-1 9 -1 11l-14 115c-0.666992 16 -1.66699 30.667 -3 44c-1.33301 11.333 -2.33301 22.333 -3 33
s-1.33398 18 -2.00098 22c-1.33301 6 -2.83301 13.167 -4.5 21.5s-3.16699 16.166 -4.5 23.499c-2 8.66699 -3.66699 17.667 -5 27c-0.666992 0.666992 -1 1.33398 -1 2.00098s0.333008 1.33398 1 2.00098l2 -2c0.666992 -0.666992 1 -1.33398 1 -2.00098l24 -38l1 -1
c0.666992 -1.33301 1.33398 -1.66602 2.00098 -0.999023c0.666992 0 1 0.666992 1 2v3v7l-1 1l-12 132c-1.33301 7.33301 -5 13.5 -11 18.5s-12.333 11.167 -19 18.5c-1.33301 2.66699 -2 4.33398 -2 5.00098c0.666992 0.666992 1 1.33398 1 2.00098s0.666992 1 2 1
c15.333 -0.666992 35.833 0.333008 61.5 3s50.5 7.33398 74.5 14.001c2 0 3.66699 -0.666992 5 -2s1.33301 -2.66602 0 -3.99902z" />
    <glyph glyph-name="V" unicode="V" horiz-adv-x="281" 
d="M156 180l55.998 264.004c2.66699 13.333 3.33398 24.166 2.00098 32.499s-3.5 14.833 -6.5 19.5s-6.33301 7.83398 -10 9.50098s-6.5 2.5 -8.5 2.5h-14l-1 9c14.667 1.33301 30.667 3.33301 48 6c14 2.66699 29.833 6.5 47.5 11.5s35.167 11.833 52.5 20.5l3 -7
c-10.667 -7.33301 -21.334 -16.333 -32.001 -27s-18.334 -29.334 -23.001 -56.001l-99 -477c-1.33301 -5.33301 -3.5 -8.16602 -6.5 -8.49902s-5.83301 2.5 -8.5 8.5l-27 65l-26.5 63l-29.5 66c-1.33301 1.33301 -2.16602 3.16602 -2.49902 5.49902
s-1.16602 4.5 -2.49902 6.5c-1.33301 2.66699 -2.33301 5 -3 7c-2 1.33301 -2.33301 2.66602 -1 3.99902l5 -2l25 -17c1.33301 -1.33301 2.66602 -2.33301 3.99902 -3s2.33301 -0.666992 3 0s0.833984 2 0.500977 4s-0.833008 4 -1.5 6l-36 116l-9 30
c-2.66699 8 -5.16699 16 -7.5 24s-4.16602 14 -5.49902 18c-2.66699 6 -5.33398 12.667 -8.00098 20s-5.66699 14.666 -9 21.999c-3.33301 8 -7 16.333 -11 25c-0.666992 0.666992 -1 1.33398 -1 2.00098v2c1.33301 0 2.33301 -0.333008 3 -1s1 -1.33398 1 -2.00098l31 -33
c0.666992 -0.666992 1.33398 -1 2.00098 -1c0.666992 -0.666992 1.33398 -1 2.00098 -1c0.666992 0.666992 1 2 1 4c0 0.666992 -0.333008 1.33398 -1 2.00098l-28 96c-0.666992 7.33301 -3.83398 13.5 -9.50098 18.5s-11.5 11.167 -17.5 18.5c-2 2 -2.66699 3.66699 -2 5
c0 2 0.666992 3 2 3c15.333 -0.666992 36 0.333008 62 3s51 7.33398 75 14.001c0.666992 0 2.33398 -0.666992 5.00098 -2c0.666992 -2.66699 -1 -5.33398 -5 -8.00098c-6.66699 -6.66699 -12.834 -16 -18.501 -28s-8.16699 -22.667 -7.5 -32
c0.666992 -2.66699 2.16699 -9.66699 4.5 -21s5.5 -25.333 9.5 -42c4 -18 8.33301 -35.667 13 -53s8.66699 -33 12 -47c4 -16.667 8 -32.334 12 -47.001v-3c0 -2.66699 -0.333008 -4 -1 -4c-0.666992 -0.666992 -1.66699 0.333008 -3 3l-2 4l-6 12
c-3.33301 7.33301 -7 14.666 -11 21.999l-12 22c-1.33301 1.33301 -2.33301 3 -3 5s-1.66699 2.66699 -3 2s-2 -1.66699 -2 -3v-3z" />
    <glyph glyph-name="W" unicode="W" horiz-adv-x="348" 
d="M128 568c-7.33301 -6.66699 -13.667 -16.334 -19 -29.001s-6.33301 -26.667 -3 -42l30 -151c0.666992 -0.666992 1 -1.66699 1 -3c0 -2.66699 -0.333008 -4 -1 -4c-1.33301 -0.666992 -2.66602 0.333008 -3.99902 3l-2 4l-4 12l-4.5 11.5l-4.5 11.5l-6.5 14.5
c-1 2.33301 -2.5 5.16602 -4.5 8.49902c-2.66699 5.33301 -4.66699 7.66602 -6 6.99902c-1.33301 0 -2 -1 -2 -3v-2l37 -198l34 184l-12 58c-2.66699 11.333 -5.83398 19 -9.50098 23s-7.16699 6.33301 -10.5 7l-9 1l-1 9l119 5l1 -8
c-4.66699 -0.666992 -8.66699 -2.33398 -12 -5.00098c-3.33301 -2 -5.83301 -5.33301 -7.5 -10s-1.83398 -11 -0.500977 -19l44 -179l28 189c2 14 1.83301 24.167 -0.5 30.5s-5.5 10.5 -9.5 12.5s-8 2.83301 -12 2.5s-7 -0.5 -9 -0.5l-14 1v8
c15.333 1.33301 31.333 3.33301 48 6c14 2.66699 29.667 6.5 47 11.5s34.666 11.833 51.999 20.5l3 -7l-16 -12c-5.33301 -4 -10.5 -9 -15.5 -15s-9.66699 -13.5 -14 -22.5s-7.5 -20.167 -9.5 -33.5l-77 -482c-1.33301 -5.33301 -3.5 -8.33301 -6.5 -9
s-5.16699 2.33301 -6.5 9l-65 294l-23 -103l-22 -103l-23 -110c-2 -7.33301 -4.33301 -10 -7 -8s-4.66699 4.66699 -6 8l-21 88c-2.66699 12 -5.5 24 -8.5 36l-9 35l-8.5 31.5l-7 24.5l-24 72c-2 1.33301 -2.33301 2.66602 -1 3.99902
c0.666992 0.666992 2.33398 -0.333008 5.00098 -3l16 -18c1.33301 -1.33301 2.5 -2.83301 3.5 -4.5s2.16699 -2.16699 3.5 -1.5s1 4.66699 -1 12l-17 75c-2 10.667 -4.33301 21 -7 31c-2 8 -3.83301 16.167 -5.5 24.5s-3.16699 14.5 -4.5 18.5l-6.5 20.5
c-2.33301 7.66699 -4.83301 15.167 -7.5 22.5l-9 26c-0.666992 0.666992 -1 1.33398 -1 2.00098v2l2 -2l2 -2l29 -34l1 -1c0.666992 -1.33301 1.33398 -1.66602 2.00098 -0.999023c0.666992 0 1 1 1 3c0 0.666992 -0.333008 1.33398 -1 2.00098l-19 92
c-1.33301 7.33301 -5 13.5 -11 18.5s-12 11.167 -18 18.5c-2 2 -3 3.66699 -3 5l3 3c15.333 -0.666992 35.833 0.333008 61.5 3s50.5 7.33398 74.5 14.001c2 0 3.66699 -0.666992 5 -2s1.33301 -2.66602 0 -3.99902z" />
    <glyph glyph-name="X" unicode="X" horiz-adv-x="295" 
d="M-4 -28c5.33301 1.33301 12 4.33398 20 9.00098s15.333 11 22 19c3.33301 5.33301 8.16602 15.166 14.499 29.499l19.5 42.5l32.5 74l32.5 78l-29 60l-14 29l-10.5 22.5c-3.66699 7.66699 -6.5 13.167 -8.5 16.5l-11.5 18.5l-12.5 20.5l-14 23l-1 1
c-1.33301 0.666992 -1.66602 1.33398 -0.999023 2.00098h1c0.666992 0 1 -0.166992 1 -0.5s0.333008 -0.5 1 -0.5c0.666992 -0.666992 1.33398 -1 2.00098 -1l36 -27l1 -1c0.666992 -1.33301 1.33398 -1.66602 2.00098 -0.999023v4
c-0.666992 0.666992 -1 1.33398 -1 2.00098l-53 113c-2.66699 5.33301 -7.33398 9.66602 -14.001 12.999s-12.334 7.66602 -17.001 12.999c-1.33301 2.66699 -2 4.33398 -2 5.00098c0 2 0.666992 3 2 3c15.333 -0.666992 36 0.333008 62 3s51 7.33398 75 14.001
c2 1.33301 3.66699 0.666016 5 -2.00098c1.33301 -1.33301 1.16602 -2.66602 -0.500977 -3.99902s-3.16699 -2.66602 -4.5 -3.99902c-6.66699 -6.66699 -11 -16.167 -13 -28.5s-1.33301 -22.833 2 -31.5c6.66699 -18 13.667 -35.667 21 -53
c5.33301 -14.667 11.166 -29.667 17.499 -45l15.5 -37c1.33301 -2.66699 2.5 -5.33398 3.5 -8.00098s2.16699 -5.33398 3.5 -8.00098l48 123c1.33301 4 2.5 8.16699 3.5 12.5s1 8.5 0 12.5s-3 7.5 -6 10.5s-7.83301 4.5 -14.5 4.5v7c8.66699 0 18.667 0.333008 30 1
c9.33301 0.666992 20.833 1.16699 34.5 1.5s29.167 1.16602 46.5 2.49902v-7c-4.66699 -1.33301 -8.16699 -3 -10.5 -5s-4.83301 -4.66699 -7.5 -8c-4 -4.66699 -7.66699 -9.83398 -11 -15.501s-6.66602 -12.167 -9.99902 -19.5l-75 -186l15.5 -34.5
c5 -11 9.16699 -20.833 12.5 -29.5c4 -10 8 -19 12 -27c0.666992 -0.666992 1 -1.66699 1 -3c0 -2.66699 -0.333008 -4 -1 -4c-1.33301 -1.33301 -2.66602 -0.666016 -3.99902 2.00098l-2 4c-2 4 -4.33301 7.66699 -7 11c-2 3.33301 -4.33301 6.66602 -7 9.99902
s-5 6.66602 -7 9.99902l-16 20c-1.33301 1.33301 -2.5 2.83301 -3.5 4.5s-2.16699 1.83398 -3.5 0.500977c-1.33301 -0.666992 -2 -1.66699 -2 -3v-2l105 -261c0.666992 -1.33301 1 -2.33301 1 -3v-2c-0.666992 -0.666992 -1.66699 -0.333984 -3 0.999023
c-0.666992 0.666992 -1 1.33398 -1 2.00098c-4 5.33301 -7.66699 10.666 -11 15.999l-9 13c-2.66699 4 -5 7.33301 -7 10c-4 4 -6.66699 7 -8 9s-2.66602 2.33301 -3.99902 1c-2 -1.33301 -2.83301 -2.83301 -2.5 -4.5s0.833008 -3.5 1.5 -5.5l53 -187v-2
c0 -2 -0.333008 -3 -1 -3c-1.33301 -0.666992 -2.66602 0.666016 -3.99902 3.99902l-50.5 108.5l-33 72c-9 19.667 -16.833 36 -23.5 49l-20 38.5l-26 48l-30.5 -76.5c-8.33301 -20.333 -12.833 -31.166 -13.5 -32.499c-4.66699 -12.667 -5.83398 -24.167 -3.50098 -34.5
s11.166 -17.166 26.499 -20.499v-6c-25.333 1.33301 -46.5 2.5 -63.5 3.5s-31.167 1.5 -42.5 1.5c-12.667 0 -23 -0.333008 -31 -1v6z" />
    <glyph glyph-name="Y" unicode="Y" horiz-adv-x="255" 
d="M148 293l49 152.003c4 12.667 5.5 23.167 4.5 31.5s-3.16699 15 -6.5 20s-7 8.33301 -11 10s-7 2.5 -9 2.5h-15v9c15.333 1.33301 31.333 3.33301 48 6c14 2.66699 29.833 6.5 47.5 11.5s35.167 11.833 52.5 20.5l3 -7c-10.667 -7.33301 -20.834 -17.833 -30.501 -31.5
s-17.834 -30.834 -24.501 -51.501l-81 -264l1 -54c0.666992 -24.667 1.5 -51.167 2.5 -79.5s1.83301 -55.166 2.5 -80.499l2 -88v-3l-1 -2c-1.33301 0 -2 0.666992 -2 2c-0.666992 0.666992 -1 1.66699 -1 3l-4 18c-1.33301 5.33301 -2.66602 10.333 -3.99902 15
s-2.66602 8.66699 -3.99902 12c-2 5.33301 -3.33301 9.16602 -4 11.499s-2 3.16602 -4 2.49902c-2.66699 -0.666992 -4 -3.66699 -4 -9l-14 -194v-3c0 -1.33301 -1 -2 -3 -2c-1.33301 0 -2 1.66699 -2 5l-10 119.5c-2.66699 31.667 -5 58.167 -7 79.5
s-3.83301 39.166 -5.5 53.499s-3.5 28.833 -5.5 43.5l-7 46c-2 13.333 -4.33301 26.666 -7 39.999l-5 20v4c1.33301 1.33301 2.66602 0.333008 3.99902 -3l22 -21l3.5 -3.5c1 -1 1.83301 -1.16699 2.5 -0.5c1.33301 0.666992 1.83301 2 1.5 4s-0.5 4 -0.5 6
c-2 11.333 -4.66699 24 -8 38c-3.33301 12 -7.5 26 -12.5 42s-11.167 33.333 -18.5 52c-6 15.333 -12.167 29.166 -18.5 41.499l-18.5 37.5c-2.66699 4 -5 8 -7 12l-3 6c-1.33301 1.33301 -1.66602 2.66602 -0.999023 3.99902l5 -2l26 -14c4 -2.66699 6.66699 -3.66699 8 -3
c0 2.66699 -1 6 -3 10l-62 140c-3.33301 6.66699 -8.66602 14.167 -15.999 22.5l-20 23.5c-1.33301 2.66699 -2 4.33398 -2 5.00098c0 2 0.666992 3 2 3c15.333 -0.666992 36 0.333008 62 3s51 7.33398 75 14.001c2 0 3.66699 -0.666992 5 -2
s1.16602 -2.66602 -0.500977 -3.99902s-3.16699 -2.66602 -4.5 -3.99902c-6.66699 -6.66699 -10.5 -18 -11.5 -34s1.16699 -31.667 6.5 -47l34 -92c0 -1.33301 0.333008 -3 1 -5c0 -4.66699 -0.333008 -7 -1 -7c-0.666992 -0.666992 -2.33398 0.666016 -5.00098 3.99902
c-1.33301 2 -2.33301 4 -3 6c-1.33301 2 -2.66602 4.33301 -3.99902 7l-4.5 7c-1.66699 2.66699 -3.16699 5.66699 -4.5 9c-1.33301 1.33301 -2.33301 3 -3 5s-1.66699 2.33301 -3 1c-0.666992 -0.666992 -1 -1.66699 -1 -3v-2z" />
    <glyph glyph-name="Z" unicode="Z" horiz-adv-x="271" 
d="M15 -65c-6 -2 -9.67285 -1.99316 -11.0059 0.00683594s-1.33301 4 0 6l23 74.5l15 52.5l10 37c2.66699 10 5 19.667 7 29c3.33301 12 6.33301 25 9 39s5.66699 27.333 9 40c2.66699 14 6 28.333 10 43c0 2.66699 1 4 3 4c1.33301 0 2.33301 -1 3 -3l7 -30
c0.666992 -1.33301 1.16699 -3.5 1.5 -6.5s1.16602 -4.5 2.49902 -4.5c1.33301 -0.666992 2.5 0.5 3.5 3.5s2.16699 6.16699 3.5 9.5l17 76l11.5 57c3.66699 18.667 5.83398 31.334 6.50098 38.001s1.33398 14.167 2.00098 22.5s1.66699 16.166 3 23.499l4 27v2
c0 1.33301 0.666992 2 2 2l2 -2c0 -0.666992 0.333008 -1.33398 1 -2.00098l7 -46c0 -0.666992 0.333008 -1.33398 1 -2.00098l2 -2c-0.666992 0 0 1.66699 2 5c0 1.33301 0.333008 2.66602 1 3.99902l15 94c-21.333 -4 -38.166 -7.33301 -50.499 -10s-22 -5 -29 -7
s-12.333 -4.33301 -16 -7s-7.83398 -6 -12.501 -10c-9.33301 -8.66699 -17.666 -19 -24.999 -31s-14 -30.333 -20 -55h-9c3.33301 41.333 4.33301 72.666 3 93.999c-0.666992 12 -1.66699 22.667 -3 32l242 36c8.66699 2 11.334 -1.66699 8.00098 -11l-16.5 -77l-17.5 -82
c-4.66699 -20.667 -8.66699 -41.834 -12 -63.501s-6.66602 -41.5 -9.99902 -59.5c-3.33301 -21.333 -6.33301 -41.666 -9 -60.999c-0.666992 -0.666992 -1 -1.66699 -1 -3l-2 -4c-1.33301 0 -2 1.33301 -2 4c-0.666992 1.33301 -1 3 -1 5c0 4.66699 -0.333008 9 -1 13
c-0.666992 3.33301 -1.16699 7.16602 -1.5 11.499s-0.833008 8.5 -1.5 12.5l-4 25c-0.666992 2 -1.16699 4 -1.5 6s-1.16602 3 -2.49902 3s-2 -0.333008 -2 -1s-0.333008 -1.33398 -1 -2.00098s-1 -1.33398 -1 -2.00098l-58 -225c0 -0.666992 -0.333008 -1.66699 -1 -3
c-1.33301 -3.33301 -2.66602 -4.33301 -3.99902 -3c-1.33301 0 -2 1 -2 3c-0.666992 0.666992 -1 1.66699 -1 3v14v13c0 4.66699 -0.333008 9.66699 -1 15c-0.666992 6 -1 10.5 -1 13.5s-1 4.83301 -3 5.5s-3.5 0 -4.5 -2s-2.16699 -4 -3.5 -6l-20 -56.5l-20 -54.5
c30.667 3.33301 57 5.83301 79 7.5s38.667 4.83398 50 9.50098c10 4 20 9.66699 30 17s17.667 19.666 23 36.999l8 -4c-2 -20.667 -3.33301 -37 -4 -49s-1 -21.333 -1 -28v-16l-116 -12.5c-27.333 -3 -48.5 -5.66699 -63.5 -8s-26.167 -4.83301 -33.5 -7.5z" />
    <glyph glyph-name="bracketleft" unicode="[" horiz-adv-x="116" 
d="M78 -62c0 -10 1.66699 -18.1689 5 -24.502s7.33301 -11.166 12 -14.499s9.33398 -5.66602 14.001 -6.99902s8.33398 -2 11.001 -2h4l-1 -14l-109 5c0 43.333 0.333008 86.333 1 129c0.666992 36.667 1.16699 76 1.5 118s0.5 81 0.5 117c-0.666992 32 -1 67.167 -1 105.5
s-0.333008 74.5 -1 108.5c-0.666992 39.333 -1 78.666 -1 117.999l109 5l1 -14h-4c-2.66699 0 -6.33398 -0.666992 -11.001 -2s-9.33398 -3.66602 -14.001 -6.99902s-8.66699 -8.33301 -12 -15s-5 -15 -5 -25v-581z" />
    <glyph glyph-name="backslash" unicode="\" horiz-adv-x="196" 
d="M40 591l174 -699l-46 -18l-14.5 54.5l-22.5 84.5l-28 103.5l-30 112.5l-30 112l-27 101l-21 79.5l-13 47.5z" />
    <glyph glyph-name="bracketright" unicode="]" horiz-adv-x="112" 
d="M30 531c0 10 -1.66699 18.168 -5 24.501s-7.33301 11.333 -12 15s-9.5 6.16699 -14.5 7.5s-8.83301 2 -11.5 2h-3v14l109 -5c-0.666992 -39.333 -1 -78.666 -1 -117.999c-0.666992 -34 -1 -70.167 -1 -108.5v-105.5v-117.5c0 -42.333 0.333008 -81.833 1 -118.5
c0 -42.667 0.333008 -85.667 1 -129l-109 -5v15h3c2.66699 0 6.5 0.666992 11.5 2s9.83301 3.66602 14.5 6.99902s8.66699 8.16602 12 14.499s5 14.5 5 24.5v581z" />
    <glyph glyph-name="asciicircum" unicode="^" horiz-adv-x="334" 
d="M177 518l132 -291l-74 6l-76 197l-80 -200l-69 -6l127 290z" />
    <glyph glyph-name="underscore" unicode="_" horiz-adv-x="244" 
d="M0 -48h244v-24h-244v24z" />
    <glyph glyph-name="grave" unicode="`" horiz-adv-x="157" 
d="M18 487c-12.667 10 -18.668 17.666 -18.001 22.999s6.66699 10.333 18 15c8.66699 4 15.834 5.33301 21.501 4s12.5 -6.66602 20.5 -15.999l89 -100h-33z" />
    <glyph glyph-name="a" unicode="a" 
d="M92 392c3.33301 -0.666992 5.16113 -1.17188 5.49414 -1.50488l2.5 -2.5l34.5 -39c10.333 -11.333 20.833 -24 31.5 -38l6 -8c2 -2.66699 3.66699 -5.66699 5 -9c1.33301 -5.33301 2.33301 -10.833 3 -16.5s1.33398 -10.834 2.00098 -15.501
c1.33301 -19.333 2.16602 -39.166 2.49902 -59.499s1.16602 -39.166 2.49902 -56.499c0.666992 -20 1.66699 -39.667 3 -59c0 -3.33301 0.333008 -6.33301 1 -9c0 -4.66699 0.666992 -10.334 2 -17.001c1.33301 -3.33301 3.5 -6.16602 6.5 -8.49902
s7.83301 -2.83301 14.5 -1.5l1 -7c-1.33301 -1.33301 -3 -2.66602 -5 -3.99902c-1.33301 -1.33301 -3.16602 -2.83301 -5.49902 -4.5l-7.5 -5.5c-5.33301 -5.33301 -10.333 -11.5 -15 -18.5s-10.667 -14.833 -18 -23.5c-4.66699 -5.33301 -8.83398 -9.5 -12.501 -12.5
s-9.16699 -4.83301 -16.5 -5.5c-4.66699 0 -8.5 1.83301 -11.5 5.5l-8.5 10.5c-1.33301 1.33301 -2.5 3 -3.5 5s-2.16699 3.66699 -3.5 5c-1.33301 2 -2.33301 3.66699 -3 5c-6 -6 -12 -11 -18 -15c-5.33301 -3.33301 -11.166 -6.16602 -17.499 -8.49902
s-12.166 -2.16602 -17.499 0.500977c-7.33301 3.33301 -12.166 7.66602 -14.499 12.999s-4.16602 11.666 -5.49902 18.999c-3.33301 10 -6.16602 21 -8.49902 33l-6.5 34c-2.66699 12 -5 24.667 -7 38c-1.33301 4.66699 -2 9.33398 -2 14.001c-0.666992 8 0 16 2 24
c1.33301 6 5 12.833 11 20.5s13.667 14.5 23 20.5c10.667 6.66699 18.167 11 22.5 13s9.5 3 15.5 3c4 0 8.5 -0.5 13.5 -1.5s7.83301 -1.5 8.5 -1.5c-1.33301 -1.33301 -4.33301 -4.66602 -9 -9.99902s-8 -11.666 -10 -18.999c-3.33301 -8 -5.16602 -15.167 -5.49902 -21.5
s-0.5 -12.833 -0.5 -19.5c0 -6 0.666992 -15 2 -27s3 -24.333 5 -37l2 -15.5c0.666992 -5 1.33398 -9.16699 2.00098 -12.5c1.33301 -5.33301 3.16602 -8.5 5.49902 -9.5s4.5 -1.5 6.5 -1.5s4.33301 1 7 3s4 5 4 9v13v30.5c0 12.333 -0.166992 26.166 -0.5 41.499
s-0.5 31 -0.5 47c-0.666992 37.333 -1.33398 79.666 -2.00098 126.999c0 8.66699 -2.33301 14.334 -7 17.001c-2.66699 1.33301 -5.66699 1 -9 -1s-6.66602 -4.33301 -9.99902 -7c-12.667 -8 -20.667 -15.667 -24 -23c-2 -3.33301 -3.66699 -7.5 -5 -12.5
s-1.66602 -11.167 -0.999023 -18.5c1.33301 -4 1 -7 -1 -9c-1.33301 -1.33301 -3.33301 -1 -6 1s-7 7.66699 -13 17c-2 2.66699 -4.83301 7.16699 -8.5 13.5l-10.5 18.5c-6.66699 12 -8.66699 23.667 -6 35c1.33301 4.66699 3.5 8.83398 6.5 12.501s8.16699 7.5 15.5 11.5
c4 2 8.83301 4.83301 14.5 8.5l17.5 11c6 3.66699 11.667 6.66699 17 9s9.33301 3.5 12 3.5z" />
    <glyph glyph-name="b" unicode="b" horiz-adv-x="233" 
d="M93 292l1.99805 -68.5l2 -67.5c0.666992 -22 1.33398 -42.833 2.00098 -62.5s1 -37.167 1 -52.5c2.66699 -10.667 5.83398 -17.834 9.50098 -21.501s7.16699 -5.33398 10.5 -5.00098s6.66602 2.33301 9.99902 6s5.66602 7.5 6.99902 11.5
c2.66699 10.667 5 22.834 7 36.501s3.5 26.834 4.5 39.501s1.66699 24.167 2 34.5s0.5 17.833 0.5 22.5v34.5c0 11.667 -0.333008 22.834 -1 33.501s-1.66699 20.167 -3 28.5s-2.66602 14.833 -3.99902 19.5s-4 11.667 -8 21s-7.66699 14.666 -11 15.999
c-1.33301 0.666992 -5.16602 -2 -11.499 -8zM74.998 501l4.5 4.49707c1.66699 1.66699 3.16699 1.83398 4.5 0.500977c2.66699 -1.33301 4 -4.33301 4 -9c0 -1.33301 0.166992 -6.66602 0.5 -15.999s0.666016 -21.5 0.999023 -36.5s0.666016 -32.333 0.999023 -52
s0.833008 -40.5 1.5 -62.5c13.333 11.333 26.833 21 40.5 29s22.167 11.333 25.5 10c2.66699 -2 6.5 -5.66699 11.5 -11s10.167 -11.833 15.5 -19.5s10.5 -16.167 15.5 -25.5s9.16699 -18.333 12.5 -27c6.66699 -19.333 10.334 -38.666 11.001 -57.999
s0.666992 -37.666 0 -54.999c-0.666992 -23.333 -2.5 -43.5 -5.5 -60.5s-6.16699 -30.167 -9.5 -39.5c-5.33301 -12.667 -11 -24.667 -17 -36c-5.33301 -9.33301 -11 -18.666 -17 -27.999s-12.667 -16 -20 -20c-4.66699 -2.66699 -12 -5.5 -22 -8.5s-19 -2.5 -27 1.5
c-17.333 5.33301 -31.666 8.33301 -42.999 9s-20.333 0.333984 -27 -0.999023c-7.33301 -2 -13.333 -4.66699 -18 -8v36l3 385v6c0 1.33301 -0.166992 2.66602 -0.5 3.99902s-0.5 2.66602 -0.5 3.99902l-3 3h-2l-28 1c-0.666992 -0.666992 -1.33398 -0.666992 -2.00098 0
c-2 0 -3 1.33301 -3 4c-0.666992 2 -0.666992 3.16699 0 3.5s1.66699 1.16602 3 2.49902c14.667 10.667 28.834 21.5 42.501 32.5z" />
    <glyph glyph-name="c" unicode="c" horiz-adv-x="223" 
d="M191 366c6 -6.66699 9.99609 -14.334 11.9961 -23.001s2.33301 -17.167 1 -25.5s-3.83301 -16.166 -7.5 -23.499s-7.83398 -13 -12.501 -17c-3.33301 -2.66699 -8.16602 -6.16699 -14.499 -10.5s-14.166 -8.16602 -23.499 -11.499l-5 8
c6.66699 9.33301 9.83398 20.666 9.50098 33.999s-1.83301 23.666 -4.5 30.999c-2 5.33301 -4.5 10.166 -7.5 14.499s-6.5 8.83301 -10.5 13.5c-6 -4 -12.333 -10 -19 -18c-15.333 -17.333 -23 -36.666 -23 -57.999v-34c0 -10 0.166992 -20.167 0.5 -30.5s1 -21.833 2 -34.5
l3.5 -45c0.666992 -5.33301 2.5 -11 5.5 -17s6.5 -11.833 10.5 -17.5l11 -15c3.33301 -4.33301 5.66602 -7.16602 6.99902 -8.49902l16.5 -16c6.33301 -6 13.5 -5.33301 21.5 2c5.33301 4.66699 11.666 12.667 18.999 24s13.666 20 18.999 26l8 -9
c-5.33301 -11.333 -11.666 -23 -18.999 -35s-14.5 -22.833 -21.5 -32.5s-13.667 -17.5 -20 -23.5s-10.833 -9 -13.5 -9c-4 0 -12.5 4.33301 -25.5 13s-26.667 19.5 -41 32.5s-27.166 27.167 -38.499 42.5s-17 30.333 -17 45c0 15.333 -0.166992 28.166 -0.5 38.499
s-0.666016 19.833 -0.999023 28.5s-0.5 17.5 -0.5 26.5s0.333008 19.833 1 32.5c0.666992 12 3.33398 24 8.00098 36s14.334 26.333 29.001 43s27 28.834 37 36.501s19.667 14.167 29 19.5c5.33301 3.33301 10.333 6 15 8s9.66699 4.33301 15 7z" />
    <glyph glyph-name="d" unicode="d" horiz-adv-x="228" 
d="M94 360c6.66699 1.33301 13.002 0.504883 19.002 -2.49512s12.667 -7.83301 20 -14.5l1 58v6c0 1.33301 -0.166992 2.66602 -0.5 3.99902s-0.5 2.66602 -0.5 3.99902c-1.33301 1.33301 -2.33301 2 -3 2h-2l-28 2h-3c-2 0 -3 1 -3 3
c-0.666992 2.66699 0.333008 4.66699 3 6l43.5 33.5l46.5 37.5c2 1.33301 3.66699 2.66602 5 3.99902s3 1.66602 5 0.999023c2.66699 -1.33301 4 -4.33301 4 -9c0 -2.66699 0.166992 -15.334 0.5 -38.001s0.833008 -50.5 1.5 -83.5s1.16699 -68.833 1.5 -107.5
s0.833008 -75 1.5 -109s1.16699 -63.5 1.5 -88.5s0.5 -40.5 0.5 -46.5c0 -9.33301 1.16699 -16.333 3.5 -21s5.16602 -8 8.49902 -10c3.33301 -2.66699 7.33301 -4 12 -4l-1 -11c-17.333 0.666992 -32 1.16699 -44 1.5s-22.333 0.833008 -31 1.5
c-10 0.666992 -18.333 1 -25 1v62c-6.66699 -9.33301 -13.667 -18.166 -21 -26.499s-14.333 -15.5 -21 -21.5s-12.334 -10.667 -17.001 -14s-7.66699 -4.33301 -9 -3c-17.333 19.333 -30.166 45.833 -38.499 79.5s-12.833 69.5 -13.5 107.5
c0 12.667 -0.166992 24.5 -0.5 35.5s0 21.5 1 31.5s2.83301 20 5.5 30s7 20.667 13 32c4.66699 8 10 15.833 16 23.5s12 14.667 18 21s11.667 11.666 17 15.999s9.66602 6.5 12.999 6.5zM133.002 306.005c-2.66699 2.66699 -5.33105 4 -7.99805 4
c-3.33301 -0.666992 -7.5 -3.5 -12.5 -8.5s-8.83301 -9.5 -11.5 -13.5c-10.667 -18 -17.334 -37.833 -20.001 -59.5s-3.33398 -45.5 -2.00098 -71.5c0.666992 -21.333 2.33398 -40.333 5.00098 -57s7.66699 -33.667 15 -51c1.33301 -3.33301 3.16602 -4.33301 5.49902 -3
s5 4 8 8s6.16699 9 9.5 15s6.33301 12 9 18z" />
    <glyph glyph-name="e" unicode="e" horiz-adv-x="207" 
d="M17 276c0 9.33301 1.33008 16.8271 3.99707 22.4941s7.33398 11.834 14.001 18.501l52 47c2 1.33301 4 3 6 5c1.33301 1.33301 3 2.5 5 3.5s3.66699 1.5 5 1.5c2.66699 0.666992 5.33398 0.333984 8.00098 -0.999023s5.66699 -2.66602 9 -3.99902
c4.66699 -2.66699 9.66699 -5.33398 15 -8.00098l16 -8c6 -2.66699 11.667 -6 17 -10c8.66699 -4 14.334 -11 17.001 -21l15 -76c1.33301 -5.33301 2 -12 2 -20s-1.66699 -14.667 -5 -20l-16 -25h-7h-7c-2.66699 0 -4.66699 0.333008 -6 1l-74 18v-159
c0.666992 -9.33301 2 -16.166 4 -20.499s6 -10.166 12 -17.499c1.33301 -2.66699 4.66602 -4.16699 9.99902 -4.5s9 2.5 11 8.5l27 83l8 32l29 -42c3.33301 -4 4.66602 -7.33301 3.99902 -10s-2 -5.66699 -4 -9l-17 -30c-4.66699 -8 -9.16699 -16.167 -13.5 -24.5
s-8.16602 -15.166 -11.499 -20.499c-2 -3.33301 -5.5 -6.66602 -10.5 -9.99902s-9.83301 -5 -14.5 -5l-31 3c-5.33301 0.666992 -10.333 3.16699 -15 7.5l-13 12.5l-39 44c-5.33301 6.66699 -8.66602 13.167 -9.99902 19.5s-2 13.833 -2 22.5zM87.9971 232.994l53 -8.99902
l-26 84c-1.33301 2.66699 -2.83301 5.16699 -4.5 7.5s-3.16699 4.16602 -4.5 5.49902l-5 5c-2 -2 -4 -4.33301 -6 -7c-4 -5.33301 -6 -10 -6 -14z" />
    <glyph glyph-name="f" unicode="f" horiz-adv-x="175" 
d="M103 508c5.33301 3.33301 10.167 6.66895 14.5 10.002s9.5 6.66602 15.5 9.99902l7 4.5c2.66699 1.66699 5 2.5 7 2.5c1.33301 0 2.33301 -0.5 3 -1.5s1.66699 -2.16699 3 -3.5c7.33301 -10 16.5 -21.167 27.5 -33.5s18.167 -26.5 21.5 -42.5
c0.666992 -3.33301 1.16699 -7 1.5 -11s0.5 -7 0.5 -9s-1.33301 -4.33301 -4 -7c-1.33301 -1.33301 -2.66602 -2.33301 -3.99902 -3l-57 -44l-5 9c0.666992 0.666992 1.33398 1.66699 2.00098 3c0.666992 0.666992 1.16699 1.33398 1.5 2.00098
s0.833008 1.33398 1.5 2.00098c1.33301 2 2 4.83301 2 8.5v12.5c-0.666992 8.66699 -1.83398 16.167 -3.50098 22.5s-4.5 13.5 -8.5 21.5c-6 14 -12.667 13.333 -20 -2c-1.33301 -2 -2.33301 -5.66699 -3 -11s-1.33398 -11 -2.00098 -17l-2 -23v-30
c0 -10.667 -0.333008 -21.667 -1 -33c8 0.666992 14.833 1 20.5 1h10.5c3.33301 0 7 -0.166992 11 -0.5s9.33301 -0.833008 16 -1.5c2 0 3 -0.333008 3 -1c0.666992 -1.33301 0.166992 -2.66602 -1.5 -3.99902s-3.16699 -2.66602 -4.5 -3.99902
c-5.33301 -4.66699 -9.5 -8.83398 -12.5 -12.501s-6.16699 -7.16699 -9.5 -10.5l-33 -1l-2 -94.5c-0.666992 -31.667 -1.33398 -60.667 -2.00098 -87s-1.33398 -48.833 -2.00098 -67.5s-1 -30.334 -1 -35.001c0 -9.33301 1.16699 -16.166 3.5 -20.499
s5.16602 -7.83301 8.49902 -10.5s7.33301 -4.33398 12 -5.00098l-1 -10c-17.333 1.33301 -33.166 2.5 -47.499 3.5l-36.5 2.5c-12 0.666992 -22.333 1 -31 1v10c6.66699 3.33301 11.5 7.16602 14.5 11.499s4.5 11.833 4.5 22.5l2 99
c0.666992 28 1.33398 58.167 2.00098 90.5s1.33398 61.5 2.00098 87.5h-25l-1 33l27 1c0 8.66699 0.166992 16.167 0.5 22.5s0.5 11.5 0.5 15.5c0 11.333 2.16699 25.666 6.5 42.999s13.166 33.666 26.499 48.999c3.33301 4 7.33301 8 12 12s9.33398 7.66699 14.001 11
c4.66699 4 9.66699 8 15 12z" />
    <glyph glyph-name="g" unicode="g" horiz-adv-x="240" 
d="M159 366c3.33301 -2 6.33301 -3.99316 9 -5.99316c2.66699 -1.33301 5.5 -2.83301 8.5 -4.5s6.16699 -2.83398 9.5 -3.50098c6.66699 -2 14.334 -3 23.001 -3c4 0 8.33301 0.333008 13 1l25 1l1 -14c-4.66699 -0.666992 -9 -1.66699 -13 -3l-11 -4.5
c-4 -1.66699 -6.66699 -3.16699 -8 -4.5c-1.33301 -2 -2.33301 -4.83301 -3 -8.5s-1 -7.16699 -1 -10.5c0 -1.33301 0.166992 -2.33301 0.5 -3s0.5 -1.33398 0.5 -2.00098v-5l5 -158c0 -7.33301 -1.16699 -14.666 -3.5 -21.999s-6.5 -13 -12.5 -17
c-3.33301 -2 -6.66602 -4.33301 -9.99902 -7c-3.33301 -2 -6.66602 -4.16699 -9.99902 -6.5s-6.33301 -4.16602 -9 -5.49902c-4 -2.66699 -8.5 -5.16699 -13.5 -7.5s-10.167 -4.5 -15.5 -6.5c-9.33301 -3.33301 -19.5 -6.66602 -30.5 -9.99902
s-17.833 -5.66602 -20.5 -6.99902c-6.66699 -2.66699 -9.33398 -5.5 -8.00098 -8.5s4.33301 -5.16699 9 -6.5c2.66699 -0.666992 7.33398 -0.5 14.001 0.5s13.667 2.33301 21 4s14.666 3 21.999 4s13 0.833008 17 -0.5c27.333 -8.66699 47.833 -22.334 61.5 -41.001
s20.5 -35.667 20.5 -51c0 -6.66699 -3.5 -16.834 -10.5 -30.501s-15.667 -27.667 -26 -42s-21.5 -27.333 -33.5 -39s-23.333 -18.5 -34 -20.5c-12.667 -2 -25.667 0.333008 -39 7s-28 14.667 -44 24c-13.333 8 -26.166 17 -38.499 27s-19.5 18 -21.5 24
c-1.33301 5.33301 -1.83301 9.66602 -1.5 12.999s0.833008 7 1.5 11c1.33301 6 5.5 10.333 12.5 13s14.333 4.5 22 5.5s14.167 1 19.5 0s6.66602 -2.5 3.99902 -4.5l-11.5 -7l-12 -7.5c-3.66699 -2.33301 -5.83398 -5 -6.50098 -8s1 -5.83301 5 -8.5
c6.66699 -5.33301 16 -10.5 28 -15.5s24 -9 36 -12s22.833 -4.83301 32.5 -5.5s16.167 0.666016 19.5 3.99902c9.33301 11.333 17 22.166 23 32.499s9.66699 17.166 11 20.499c5.33301 10.667 0.5 20 -14.5 28s-42.167 14.667 -81.5 20
c-12.667 1.33301 -23 3.66602 -31 6.99902s-14.5 6.83301 -19.5 10.5s-8.83301 7.33398 -11.5 11.001l-8 10.5c-2.66699 3.33301 -5.16699 7.66602 -7.5 12.999s-3.16602 8.33301 -2.49902 9s3.5 1.83398 8.5 3.50098s11.5 4.5 19.5 8.5l23 11.5
c7.33301 3.66699 14 7.5 20 11.5c-6 4.66699 -11.833 9.66699 -17.5 15l-15.5 15c-5.33301 5.33301 -10.333 10.666 -15 15.999c-6.66699 6 -10.334 14.667 -11.001 26s-2 27.666 -4 48.999c-0.666992 4 -1 9.16699 -1 15.5s-0.333008 12.5 -1 18.5
c-0.666992 7.33301 -1 14.666 -1 21.999c-0.666992 12.667 0.333008 26.834 3 42.501s9.66699 27.167 21 34.5c4.66699 2.66699 9 5.33398 13 8.00098l11.5 7l11.5 7c3.33301 1.33301 6.83301 3.16602 10.5 5.49902l10.5 6.5c4 2.66699 8 4.66699 12 6
c8 4 16.667 6.16699 26 6.5s17.666 -2.83398 24.999 -9.50098zM93 142.007c0 -8.66699 1.33008 -15.667 3.99707 -21s6 -10.666 10 -15.999c4.66699 -4.66699 8.33398 -8.5 11.001 -11.5s7 -3.16699 13 -0.5c5.33301 3.33301 8.83301 7.5 10.5 12.5s2.5 12.5 2.5 22.5
c-0.666992 27.333 -1 52.333 -1 75v88c0 8 -0.333008 16.333 -1 25s-3.66699 15.667 -9 21c-2.66699 2.66699 -5 3 -7 1s-5.33301 -4.66699 -10 -8c-1.33301 -1.33301 -3 -2.83301 -5 -4.5s-3.66699 -3.16699 -5 -4.5l-6 -6c-6 -5.33301 -9.66699 -14 -11 -26
s-1.66602 -21.667 -0.999023 -29c0.666992 -8 1.33398 -17.667 2.00098 -29c1.33301 -20.667 2.33301 -50.334 3 -89.001z" />
    <glyph glyph-name="h" unicode="h" horiz-adv-x="239" 
d="M80 507l4.50391 4.50391c1.66699 1.66699 3.16699 1.83398 4.5 0.500977c2.66699 -1.33301 4 -4.33301 4 -9v-17c0 -10 0.166992 -22.667 0.5 -38s0.666016 -33.166 0.999023 -53.499s0.833008 -41.833 1.5 -64.5c8.66699 7.33301 18.167 14.833 28.5 22.5
s18.833 13.5 25.5 17.5c2.66699 1.33301 5.83398 2.83301 9.50098 4.5s6.5 2.5 8.5 2.5c1.33301 0 3 -1.66699 5 -5l11 -16c4.66699 -6.66699 9.16699 -14 13.5 -22s8 -16.167 11 -24.5s4.5 -16.5 4.5 -24.5c1.33301 -32 2.33301 -64 3 -96
c0.666992 -27.333 1.16699 -56.333 1.5 -87s-0.166992 -58.667 -1.5 -84c-0.666992 -20.667 -4.83398 -36.834 -12.501 -48.501s-15.167 -21.167 -22.5 -28.5c-3.33301 -3.33301 -7.5 -6.83301 -12.5 -10.5s-10 -7 -15 -10s-9.66699 -5.33301 -14 -7s-7.5 -1.5 -9.5 0.5
c-2 1.33301 -2.66699 2.66602 -2 3.99902c0 0.666992 0.666992 1.66699 2 3c9.33301 9.33301 15 17.833 17 25.5s3 14.834 3 21.501l-6 285c-0.666992 10.667 -1.33398 19.667 -2.00098 27s-3.66699 15.666 -9 24.999l-9 10c-2 -0.666992 -5.83301 -3.5 -11.5 -8.5
s-11.167 -10.167 -16.5 -15.5c0.666992 -29.333 1.16699 -58.5 1.5 -87.5s0.666016 -55.5 0.999023 -79.5s0.666016 -44.5 0.999023 -61.5s0.5 -27.833 0.5 -32.5c0 -9.33301 1.16699 -16.333 3.5 -21s5.16602 -8 8.49902 -10c3.33301 -2.66699 7.33301 -4 12 -4v-10
c-17.333 0.666992 -33.166 1 -47.499 1h-38.5c-12.667 0 -24.334 -0.333008 -35.001 -1l1 10c8.66699 4.66699 14.334 10.667 17.001 18c1.33301 3.33301 2 6.66602 2 9.99902l3 386v6c0 1.33301 -0.166992 2.66602 -0.5 3.99902s-0.5 2.66602 -0.5 3.99902
c-2 2 -2.66699 3 -2 3h-2l-29 1c-0.666992 -0.666992 -1.33398 -0.666992 -2.00098 0c-2 0 -3 1.33301 -3 4c-0.666992 2 -0.666992 3.16699 0 3.5s1.66699 1.16602 3 2.49902c14.667 10.667 28.834 21.5 42.501 32.5z" />
    <glyph glyph-name="i" unicode="i" horiz-adv-x="129" 
d="M88 319c2 0.666992 4.16797 1.50293 6.50098 2.50293s4.16602 0.833008 5.49902 -0.5s1.66602 -3.66602 0.999023 -6.99902v-23v-46.5v-59.5v-61c0 -19.333 -0.166992 -36.5 -0.5 -51.5s-0.5 -25.5 -0.5 -31.5c0 -9.33301 1.16699 -16.166 3.5 -20.499
s5.16602 -7.83301 8.49902 -10.5s7.33301 -4.33398 12 -5.00098l-1 -10c-17.333 0.666992 -33.166 1.16699 -47.499 1.5s-27.166 0.5 -38.499 0.5h-35l1 10c5.33301 2.66699 9.33301 5.5 12 8.5s4.66699 6.16699 6 9.5s2 6.66602 2 9.99902l10 215v6
c0 1.33301 -0.166992 2.66602 -0.5 3.99902s-0.5 2.66602 -0.5 3.99902l-3 3h-2l-28 2c-1.33301 -0.666992 -2.33301 -0.666992 -3 0c-1.33301 0 -2 1.33301 -2 4c-0.666992 3.33301 0.333008 5.33301 3 6c17.333 6.66699 32.5 13.167 45.5 19.5s28.167 13.166 45.5 20.499z
M28.001 366.003c0 11.333 4.33203 21.833 12.999 31.5s18.667 14.5 30 14.5s20.833 -3.83301 28.5 -11.5s11.5 -17.167 11.5 -28.5s-5.16699 -21.5 -15.5 -30.5s-21.166 -13.5 -32.499 -13.5s-20 3.5 -26 10.5s-9 16.167 -9 27.5z" />
    <glyph glyph-name="j" unicode="j" horiz-adv-x="131" 
d="M82 336c-10.667 -5.33301 -21.998 -6.16895 -33.998 -2.50195s-20.667 10.834 -26 21.501c-5.33301 10 -6.33301 20 -3 30s10 17.667 20 23c10.667 5.33301 22.167 5.33301 34.5 0s21.166 -13 26.499 -23c5.33301 -10.667 6.16602 -20.167 2.49902 -28.5
s-10.5 -15.166 -20.5 -20.499zM85.002 319.997c2 1.33301 4 2.50195 6 3.50195s3.66699 0.833008 5 -0.5s2 -3.66602 2 -6.99902c0 -2 0.333008 -8.5 1 -19.5s1.33398 -25 2.00098 -42s1.5 -36.167 2.5 -57.5s2.16699 -43 3.5 -65
c2.66699 -51.333 5.33398 -109.666 8.00098 -174.999c0 -6.66699 -2.5 -18 -7.5 -34s-11.5 -32.333 -19.5 -49s-16.667 -31.667 -26 -45s-18 -20.666 -26 -21.999c-12.667 -2 -26.5 0.666992 -41.5 8s-30.167 15.666 -45.5 24.999c-6.66699 4 -13.334 8.33301 -20.001 13
s-12.667 9.5 -18 14.5l-14 13.5c-4 4 -6.33301 7.66699 -7 11c-1.33301 5.33301 -2 9.66602 -2 12.999s0.666992 6.66602 2 9.99902c2.66699 11.333 7.83398 18.833 15.501 22.5s14.834 6.16699 21.501 7.5c5.33301 1.33301 9.66602 2 12.999 2h8l63 -11v-11
c-3.33301 -1.33301 -8.33301 -1.5 -15 -0.5s-13.834 1.66699 -21.501 2s-14.834 -0.333984 -21.501 -2.00098s-12 -5.83398 -16 -12.501c-2.66699 -4.66699 -3 -8.33398 -1 -11.001s4 -4.66699 6 -6c14.667 -9.33301 29.667 -15.833 45 -19.5s26.333 -2.16699 33 4.5
c1.33301 2 4.83301 6.33301 10.5 13s8.5 16.667 8.5 30l-6 326v6c0 2.66699 -0.666992 5.33398 -2 8.00098l-2 2h-2l-29 1h-2c-2 0 -3 1 -3 3c-0.666992 2.66699 0 4.66699 2 6c17.333 8 32.333 15.5 45 22.5s27.667 14.5 45 22.5z" />
    <glyph glyph-name="k" unicode="k" horiz-adv-x="256" 
d="M78 520c4 4 7.3291 5.33789 9.99609 4.00488c2.66699 -0.666992 4 -3.66699 4 -9v-300l64 89c6.66699 8.66699 7.33398 16 2.00098 22s-12.666 9.66699 -21.999 11v10c19.333 1.33301 36.333 3.33301 51 6l38 7c12 2.66699 23 5 33 7v-10c-8 -4 -14 -8.33301 -18 -13
l-14 -17l-11.5 -15c-3.66699 -4.66699 -8.16699 -11 -13.5 -19l-49 -66l100 -226c3.33301 -5.33301 7.83301 -9.5 13.5 -12.5l10.5 -5.5v-8l-128 4v10c8.66699 1.33301 14.334 2.66602 17.001 3.99902c3.33301 2 5 5.66699 5 11c0 1.33301 -0.166992 2.66602 -0.5 3.99902
l-1.5 6l-11 24l-54 122l-10 -14v-107c0 -9.33301 1.16699 -16.166 3.5 -20.499s5.16602 -7.83301 8.49902 -10.5s7.33301 -4.33398 12 -5.00098l-1 -10c-17.333 1.33301 -33.166 2.33301 -47.499 3s-26.5 1.33398 -36.5 2.00098c-12 0.666992 -22.333 1 -31 1v9
c6.66699 3.33301 11.334 7.33301 14.001 12s4 12 4 22v363v6c0 1.33301 -0.166992 2.66602 -0.5 3.99902s-0.5 2.66602 -0.5 3.99902l-5 7c-3.33301 3.33301 -8 5.33301 -14 6c-2 0.666992 -3.83301 1.16699 -5.5 1.5s-2.83398 1.5 -3.50098 3.5s-0.666992 3.16699 0 3.5
s1.66699 1.16602 3 2.49902l21.5 19.5c6.33301 5.66699 12.833 11.167 19.5 16.5s13.334 11.166 20.001 17.499z" />
    <glyph glyph-name="l" unicode="l" horiz-adv-x="119" 
d="M79 527c1.33301 1.33301 2.83398 2.67188 4.50098 4.00488s3.5 1.33301 5.5 0s3 -4.33301 3 -9v-38v-84c0 -33.333 0.166992 -69.333 0.5 -108s0.5 -75.334 0.5 -110.001v-89.5v-46.5c0 -9.33301 1.16699 -16.166 3.5 -20.499s5.16602 -7.83301 8.49902 -10.5
s7.33301 -4.33398 12 -5.00098v-10c-17.333 1.33301 -33.166 2.33301 -47.499 3s-26.5 1.33398 -36.5 2.00098c-12 0.666992 -22.333 1 -31 1v9c6 3.33301 10.5 7.33301 13.5 12s4.5 12 4.5 22l-1 363v6c0 1.33301 -0.166992 2.66602 -0.5 3.99902
s-0.5 2.66602 -0.5 3.99902c-0.666992 1.33301 -2 3.66602 -4 6.99902c-4 3.33301 -8.66699 5.33301 -14 6c-2 0.666992 -3.83301 1.16699 -5.5 1.5s-2.83398 1.5 -3.50098 3.5s-0.666992 3.16699 0 3.5s1.66699 1.16602 3 2.49902l21.5 19.5l19 16.5l20 17.5
c7 6.33301 15.167 14.166 24.5 23.499z" />
    <glyph glyph-name="m" unicode="m" horiz-adv-x="358" 
d="M95 326l31.4971 24.0049c11.667 8.66699 21.167 15.334 28.5 20.001c2.66699 1.33301 5.66699 2.66602 9 3.99902s6 2 8 2c2.66699 -1.33301 4.66699 -3.33301 6 -6l18 -28c8 -12.667 14 -25.667 18 -39l32 24.5c12 9 21.667 15.833 29 20.5l9 4.5
c3.33301 1.66699 6 2.16699 8 1.5c1.33301 0 2.33301 -0.5 3 -1.5s1.66699 -2.16699 3 -3.5c2.66699 -4 6.33398 -9.16699 11.001 -15.5s9.16699 -13.5 13.5 -21.5s8 -16.167 11 -24.5s4.5 -16.5 4.5 -24.5v-89c0 -25.333 -0.166992 -52.666 -0.5 -81.999
s-1.16602 -56.666 -2.49902 -81.999c-0.666992 -20 -4.83398 -35.833 -12.501 -47.5s-15.167 -21.167 -22.5 -28.5c-3.33301 -3.33301 -7.5 -7 -12.5 -11s-10 -7.5 -15 -10.5s-9.66699 -5.16699 -14 -6.5s-7.5 -1 -9.5 1c-2 1.33301 -2.66699 2.66602 -2 3.99902
c0 0.666992 0.666992 1.66699 2 3c9.33301 9.33301 15 17.833 17 25.5s3 14.834 3 21.501l-1 270c0 10 -0.5 18.833 -1.5 26.5s-4.16699 16.167 -9.5 25.5c-1.33301 3.33301 -4.33301 6.66602 -9 9.99902c-2 -0.666992 -6.33301 -4 -13 -10s-12.667 -12.333 -18 -19v-40v-55
c0 -20 -0.333008 -40.5 -1 -61.5s-1.66699 -41.167 -3 -60.5c-0.666992 -10.667 0 -18.834 2 -24.501s4.66699 -10.167 8 -13.5c2.66699 -3.33301 6.33398 -6 11.001 -8l-5 -11c-21.333 8.66699 -38.833 14.667 -52.5 18s-24.5 5.66602 -32.5 6.99902
c-9.33301 1.33301 -16.666 1.33301 -21.999 0v9c8.66699 3.33301 14.167 8.5 16.5 15.5s3.5 13.833 3.5 20.5l7 192c0.666992 10.667 0.333984 19.667 -0.999023 27s-4.33301 15.666 -9 24.999c-1.33301 2.66699 -3 4.66699 -5 6s-4.33301 3 -7 5
c-2 -1.33301 -6.33301 -4.83301 -13 -10.5s-13 -11.834 -19 -18.501c0 -24 0.166992 -49.667 0.5 -77s0.666016 -53.333 0.999023 -78s0.5 -46.167 0.5 -64.5v-36.5c-0.666992 -9.33301 0.166016 -16.166 2.49902 -20.499s5.16602 -7.83301 8.49902 -10.5
s7.33301 -4.33398 12 -5.00098l-1 -10c-17.333 0.666992 -33.166 1.16699 -47.499 1.5s-27.166 0.5 -38.499 0.5h-35l1 10c5.33301 2.66699 9.33301 5.5 12 8.5s4.66699 6.16699 6 9.5s2 6.66602 2 9.99902l7 266v6c0 4 -0.333008 6.66699 -1 8c-2 2 -2.66699 3 -2 3h-2
l-21 3h-3c-1.33301 0 -2 1 -2 3c-0.666992 2 -0.666992 3.16699 0 3.5s1.66699 1.16602 3 2.49902l41.5 29.5c13 9 26.833 20.5 41.5 34.5c4 4 7.33301 5.33301 10 4c2.66699 -0.666992 4 -3.66699 4 -9v-52z" />
    <glyph glyph-name="n" unicode="n" horiz-adv-x="233" 
d="M81 375l4.50098 4.50488c1.66699 1.66699 3.5 1.83398 5.5 0.500977s3 -4.66602 3 -9.99902c0 -1.33301 -0.166992 -7.16602 -0.5 -17.499s-0.5 -23.166 -0.5 -38.499l30.5 23c11 8 20.167 14.333 27.5 19c2.66699 1.33301 5.66699 2.66602 9 3.99902
s6 1.66602 8 0.999023c2 0 4 -1.66699 6 -5l10.5 -16c4.33301 -6.66699 8.5 -14 12.5 -22s7.5 -16.167 10.5 -24.5s4.5 -16.5 4.5 -24.5c0 -30 -0.333008 -59.667 -1 -89c-0.666992 -25.333 -1.33398 -52.5 -2.00098 -81.5s-1.66699 -56.167 -3 -81.5
c-1.33301 -20.667 -6 -36.667 -14 -48s-15.667 -20.666 -23 -27.999c-3.33301 -3.33301 -7.5 -6.83301 -12.5 -10.5s-10.167 -7 -15.5 -10s-10.166 -5.16699 -14.499 -6.5s-7.5 -1.33301 -9.5 0c-0.666992 0 -1 1.66699 -1 5c0 1.33301 0.333008 2.33301 1 3
c10 9.33301 16 17.666 18 24.999s3 14.666 3 21.999l4 269c0.666992 10.667 0.5 19.667 -0.5 27s-4.16699 15.666 -9.5 24.999c-1.33301 4 -4.33301 7.66699 -9 11c-2 -0.666992 -6.16699 -3.83398 -12.5 -9.50098s-12.166 -11.5 -17.499 -17.5
c0 -24 -0.166992 -49.833 -0.5 -77.5s-0.666016 -53.834 -0.999023 -78.501s-0.666016 -46.167 -0.999023 -64.5s-0.5 -30.5 -0.5 -36.5c-0.666992 -9.33301 0.166016 -16.166 2.49902 -20.499s5.16602 -7.83301 8.49902 -10.5s7.33301 -4.33398 12 -5.00098l-2 -10
c-17.333 1.33301 -33 2 -47 2s-26.667 0.333008 -38 1c-12.667 0 -24.334 0.333008 -35.001 1l1 10c5.33301 2.66699 9.33301 5.5 12 8.5s4.66699 6.16699 6 9.5s2 6.66602 2 9.99902l12 266v6c0 1.33301 -0.166992 2.66602 -0.5 3.99902s-0.5 2.66602 -0.5 3.99902
c-2 2 -2.66699 3 -2 3h-2l-21 3h-3c-1.33301 0 -2 1 -2 3c-0.666992 2.66699 0.333008 4.66699 3 6c15.333 10 28.666 20.333 39.999 31s26.333 22.667 45 36z" />
    <glyph glyph-name="o" unicode="o" horiz-adv-x="230" 
d="M102 355c8 4.66699 16.665 7.16797 25.998 7.50098s17.666 -2.83398 24.999 -9.50098l36 -31c8.66699 -7.33301 13.667 -13.5 15 -18.5s2 -12.167 2 -21.5l5 -221c0 -7.33301 -1.16699 -14.666 -3.5 -21.999s-6.16602 -13 -11.499 -17
c-3.33301 -2 -6.66602 -4.33301 -9.99902 -7c-3.33301 -2 -6.66602 -4.16699 -9.99902 -6.5s-6.33301 -4.16602 -9 -5.49902c-12 -7.33301 -25.333 -13.333 -40 -18s-24.334 -6 -29.001 -4c-5.33301 2 -12 6.33301 -20 13s-15.667 13.667 -23 21
c-8.66699 8 -18 17.333 -28 28c-7.33301 6.66699 -11.333 15.667 -12 27l-3 49c-1.33301 14.667 -2.16602 29.167 -2.49902 43.5s-0.5 27.166 -0.5 38.499v37v20.5c0 7.66699 0.833008 15.167 2.5 22.5s4.16699 14 7.5 20s8 11 14 15c4.66699 2.66699 9 5.33398 13 8.00098
l11.5 7l11.5 7c3.33301 1.33301 6.83301 3.16602 10.5 5.49902s7.16699 4.16602 10.5 5.49902zM86.998 65.001c0 -8.66699 1.33105 -15.834 3.99805 -21.501s6 -10.834 10 -15.501l10 -11.5c2.66699 -3 7 -3.16699 13 -0.5c6 3.33301 9.83301 7.5 11.5 12.5
s2.5 12.5 2.5 22.5l-1 146v89c0 8 -0.666992 14.833 -2 20.5s-4 11.167 -8 16.5c-2 3.33301 -4.16699 3.83301 -6.5 1.5s-5.83301 -5.16602 -10.5 -8.49902l-4.5 -4.5c-1.66699 -1.66699 -3.5 -3.16699 -5.5 -4.5c-2.66699 -2 -5 -3.66699 -7 -5
c-5.33301 -5.33301 -8.66602 -14 -9.99902 -26s-1.66602 -22 -0.999023 -30l2 -61c0.666992 -17.333 1.16699 -36.666 1.5 -57.999s0.833008 -42 1.5 -62z" />
    <glyph glyph-name="p" unicode="p" horiz-adv-x="245" 
d="M158 404c2.66699 -2 6.5 -5.66406 11.5 -10.9971s10.167 -11.833 15.5 -19.5s10.5 -16.167 15.5 -25.5s9.16699 -18.666 12.5 -27.999c6.66699 -19.333 10.334 -38.666 11.001 -57.999s0.666992 -37.666 0 -54.999c-0.666992 -23.333 -2.5 -43.5 -5.5 -60.5
s-6.16699 -30.167 -9.5 -39.5c-5.33301 -12.667 -11 -24.667 -17 -36c-5.33301 -9.33301 -11 -18.5 -17 -27.5s-12.667 -15.5 -20 -19.5c-2 -1.33301 -5.5 -3 -10.5 -5s-10.167 -3.5 -15.5 -4.5s-11 -1.16699 -17 -0.5s-11 2.66699 -15 6l2 -138
c0 -16 6.66699 -26.667 20 -32l1 -10l-49 -7c-14 -2 -28.833 -4.5 -44.5 -7.5s-29.167 -6.16699 -40.5 -9.5l-2 10c6.66699 2 12.667 4.66699 18 8c4.66699 3.33301 8.83398 7.66602 12.501 12.999s5.5 12.666 5.5 21.999l3 436v6c0 1.33301 -0.166992 2.66602 -0.5 3.99902
s-0.5 2.66602 -0.5 3.99902l-5 7c-3.33301 3.33301 -8 5.33301 -14 6c-1.33301 0.666992 -3 1.16699 -5 1.5s-3.33301 1.5 -4 3.5s-0.666992 3.16699 0 3.5s1.66699 1.16602 3 2.49902l21 19.5l18 16.5l19 17.5l24 23.5c4 4 7 5.33301 9 4
c2.66699 -0.666992 4 -3.66699 4 -9v-15c0 -8.66699 0.333008 -20.334 1 -35.001c13.333 11.333 26.666 21 39.999 29s21.666 11.333 24.999 10zM97 67.0029c2.66699 -8 6.00098 -13.1699 10.001 -15.5029s8 -3 12 -2s7.66699 3.16699 11 6.5s5.66602 7 6.99902 11
c2.66699 10.667 5 22.834 7 36.501s3.5 26.834 4.5 39.501s1.66699 24.167 2 34.5s0.5 17.833 0.5 22.5v34.5c0 11.667 -0.333008 22.667 -1 33s-1.66699 19.833 -3 28.5s-2.66602 15.334 -3.99902 20.001c-0.666992 2 -1.83398 5 -3.50098 9l-5 12
c-1.66699 4 -3.5 7.5 -5.5 10.5s-3.66699 4.83301 -5 5.5s-5.33301 -2 -12 -8s-13 -12.333 -19 -19c0 -17.333 0.166992 -36.5 0.5 -57.5l1 -65.5l1 -68.5c0.333008 -23 0.833008 -45.5 1.5 -67.5z" />
    <glyph glyph-name="q" unicode="q" horiz-adv-x="245" 
d="M81 6c-3.33301 2 -7.50293 5.66895 -12.5029 11.002s-10.167 11.833 -15.5 19.5s-10.666 16 -15.999 25s-9.33301 18.167 -12 27.5c-7.33301 19.333 -11.333 38.666 -12 57.999s-1 37.666 -1 54.999c0 23.333 1.33301 43.5 4 60.5s5.66699 30.167 9 39.5
c4.66699 12.667 10 24.667 16 36l16.5 27.5c5.66699 9 12.167 15.833 19.5 20.5c2 1.33301 5.33301 3 10 5s9.83398 3.5 15.501 4.5s11.334 1.33301 17.001 1s10.5 -1.83301 14.5 -4.5c16 -4 29.167 -6 39.5 -6s18.5 0.666992 24.5 2c7.33301 2 12.666 4.66699 15.999 8
l1 -36l9 -479c0 -9.33301 2 -16.666 6 -21.999s8.33301 -9.66602 13 -12.999c5.33301 -3.33301 11.333 -6 18 -8l-2 -10c-12 3.33301 -25.833 6.33301 -41.5 9s-30.5 5 -44.5 7c-16.667 2.66699 -33.334 5 -50.001 7l1 10c14 5.33301 20.333 16 19 32v150
c-13.333 -10.667 -26.166 -19.834 -38.499 -27.501s-20.166 -10.834 -23.499 -9.50098zM140.997 334.002c-2.66699 10.667 -6.3291 18.1699 -10.9961 22.5029s-9.33398 6.16602 -14.001 5.49902s-8.83398 -2.83398 -12.501 -6.50098s-6.16699 -7.5 -7.5 -11.5
c-2.66699 -11.333 -4.83398 -23.666 -6.50098 -36.999s-2.83398 -26.5 -3.50098 -39.5s-1.16699 -24.667 -1.5 -35s-0.5 -17.833 -0.5 -22.5c0 -11.333 0.166992 -22.833 0.5 -34.5s1 -22.834 2 -33.501s2.16699 -20.167 3.5 -28.5s2.66602 -14.833 3.99902 -19.5
c0.666992 -2 1.83398 -4.83301 3.50098 -8.5s3.5 -7.5 5.5 -11.5s4 -7.5 6 -10.5s3.66699 -4.83301 5 -5.5s5 1.66602 11 6.99902s11.667 11.333 17 18v71c0 24 -0.166992 47 -0.5 69s-0.5 42.5 -0.5 61.5v49.5z" />
    <glyph glyph-name="r" unicode="r" horiz-adv-x="200" 
d="M79 439l4.5 4.50586c1.66699 1.66699 3.5 1.83398 5.5 0.500977c1.33301 -0.666992 2.66602 -3.66699 3.99902 -9v-52c0 -2 1 -3.33301 3 -4c0.666992 -0.666992 2.33398 -0.333984 5.00098 0.999023c5.33301 4 9.83301 7.5 13.5 10.5s8.5 6.16699 14.5 9.5
c2 1.33301 4 2.83301 6 4.5s4 2.5 6 2.5s3.66699 -1.66699 5 -5c2.66699 -4.66699 5.66699 -10.834 9 -18.501s6.66602 -15.834 9.99902 -24.501s6.5 -17.5 9.5 -26.5s5.16699 -17.5 6.5 -25.5c0.666992 -3.33301 1.33398 -7 2.00098 -11s1 -7 1 -9s-1.33301 -4.33301 -4 -7
c-1.33301 -1.33301 -2.66602 -2.33301 -3.99902 -3l-56 -45l-5 9c0.666992 0.666992 1.33398 1.66699 2.00098 3c0.666992 0.666992 1 1.33398 1 2.00098s0.333008 1.33398 1 2.00098c1.33301 3.33301 1.66602 8.66602 0.999023 15.999c-0.666992 8.66699 -2 19.167 -4 31.5
s-4.66699 24.5 -8 36.5c-1.33301 6 -2.66602 10 -3.99902 12c-3.33301 -1.33301 -5.16602 -3.16602 -5.49902 -5.49902s-0.5 -4.83301 -0.5 -7.5c2 -48 4 -92.333 6 -133l2 -51.5c0.666992 -17 1.16699 -32.833 1.5 -47.5s0.833008 -27.334 1.5 -38.001s1 -18 1 -22
c0.666992 -9.33301 2.33398 -16.333 5.00098 -21s5.66699 -8 9 -10c3.33301 -2.66699 7.33301 -4 12 -4l-1 -10c-17.333 0 -33 -0.166992 -47 -0.5s-26.667 -0.833008 -38 -1.5c-12.667 -0.666992 -24.334 -1.33398 -35.001 -2.00098v10
c5.33301 2.66699 9.16602 5.66699 11.499 9s4.16602 6.66602 5.49902 9.99902s1.66602 6.66602 0.999023 9.99902l-4 310v6c0 1.33301 -0.166992 2.66602 -0.5 3.99902s-0.5 2.66602 -0.5 3.99902l-3 3h-2h-29h-2c-2 0 -3 1 -3 3c-0.666992 2.66699 0.333008 4.66699 3 6
l41 34.5z" />
    <glyph glyph-name="s" unicode="s" horiz-adv-x="196" 
d="M21 80l13.998 0.00488281c1.33301 -10 3.83301 -18.5 7.5 -25.5s7.5 -13.167 11.5 -18.5c4.66699 -5.33301 9.33398 -10 14.001 -14s10.667 -6.66699 18 -8s13.333 -0.833008 18 1.5s8.66699 5.5 12 9.5c6 6.66699 9.66699 13 11 19s1.33301 12.333 0 19
c-2 10.667 -6.83301 22.667 -14.5 36s-20.834 27.666 -39.501 42.999c-2 2 -5.16699 5 -9.5 9s-9 9 -14 15s-10.167 12.667 -15.5 20s-9.66602 14.666 -12.999 21.999s-5.83301 14.166 -7.5 20.499l-4.5 17.5c-2 9.33301 -2.83301 18.833 -2.5 28.5
s5.16602 19.834 14.499 30.501c10.667 12.667 21 24 31 34s18 17 24 21c5.33301 3.33301 12 7 20 11s14.667 5.33301 20 4s11 -5 17 -11s11 -9.66699 15 -11h8.5c3 0 5.5 1 7.5 3c2.66699 2.66699 4.33398 5 5.00098 7h11l-20 -107h-13
c-2 9.33301 -3.66699 16.666 -5 21.999s-3 10 -5 14c-3.33301 6.66699 -7.5 13.667 -12.5 21s-11.5 10.333 -19.5 9c-3.33301 -0.666992 -7 -2.66699 -11 -6s-7.66699 -7.33301 -11 -12c-4.66699 -6 -7.16699 -13 -7.5 -21s0.666992 -15.833 3 -23.5
s5.5 -14.834 9.5 -21.501s8 -11.334 12 -14.001c3.33301 -2.66699 6.33301 -5.33398 9 -8.00098c2.66699 -2 5.5 -4.33301 8.5 -7s6.16699 -5 9.5 -7c25.333 -19.333 42.333 -40.166 51 -62.499s13 -41.166 13 -56.499c0 -14.667 -2.66699 -30.834 -8 -48.501
s-13.666 -30.834 -24.999 -39.501c-6.66699 -6 -13.667 -11.333 -21 -16c-6 -4 -12.5 -7.5 -19.5 -10.5s-13.5 -4.16699 -19.5 -3.5c-8.66699 1.33301 -16.667 3.33301 -24 6s-13.333 4.66699 -18 6c-6 2 -12 1.66699 -18 -1c-6 -3.33301 -10.667 -8 -14 -14h-12
c1.33301 10.667 3 22.334 5 35.001c1.33301 10.667 2.5 23.167 3.5 37.5s1.16699 29.5 0.5 45.5z" />
    <glyph glyph-name="t" unicode="t" horiz-adv-x="156" 
d="M93 495c1.33301 4.66699 3.33496 6.33301 6.00195 5c0.666992 0 1 -1.66699 1 -5c0.666992 -10.667 1.16699 -22.667 1.5 -36s0.5 -26.333 0.5 -39v-45l47 1l2 -32l-49 -2l5 -347c0 -10 1.16699 -19.5 3.5 -28.5s8.16602 -16.833 17.499 -23.5l5 -5
c4.66699 -4 8.66699 -5.66699 12 -5s5.66602 2 6.99902 4l4 7c1.33301 2 1 3.66699 -1 5l-6 4l-26 11l3 8l71 -8c13.333 -1.33301 16 -6.66602 8 -15.999l-39 -45c-7.33301 -8.66699 -16 -9.66699 -26 -3l-41 25l-33 20l-24 15c-8 4 -12 9.66699 -12 17v27
c0 7.33301 0.166992 15.666 0.5 24.999s0.5 17.666 0.5 24.999v23.5v20.5v20.5v23.5c0 16.667 -0.166992 34.834 -0.5 54.501s-0.833008 38.5 -1.5 56.5s-1.33398 34.167 -2.00098 48.5s-1 24.5 -1 30.5c0 4.66699 -2.33301 7 -7 7c-3.33301 0.666992 -7 1 -11 1
s-9.33301 0.333008 -16 1c-2 0 -3 0.666992 -3 2c-0.666992 1.33301 -0.166992 2.5 1.5 3.5s3.16699 2.16699 4.5 3.5l15 15.5c4 4.33301 7.83301 8.83301 11.5 13.5s7.33398 9.66699 11.001 15l13.5 19c9.33301 13.333 18 27 26 41s15 27.667 21 41z" />
    <glyph glyph-name="u" unicode="u" horiz-adv-x="247" 
d="M199 394c1.33301 1.33301 2.83398 2.66895 4.50098 4.00195s3.16699 1.33301 4.5 0c2.66699 -0.666992 4 -3.66699 4 -9c0 -2.66699 0.166992 -12 0.5 -28s0.833008 -35.667 1.5 -59s1.5 -48.5 2.5 -75.5s1.83301 -52.833 2.5 -77.5s1.16699 -46.167 1.5 -64.5
s0.5 -30.5 0.5 -36.5c0 -9.33301 1.16699 -16.333 3.5 -21s5.16602 -8 8.49902 -10c3.33301 -2.66699 7.33301 -4 12 -4l-1 -10c-17.333 0.666992 -32.166 0.666992 -44.499 0s-22.833 -1.66699 -31.5 -3c-10 -1.33301 -18.333 -3 -25 -5v35l1 21l-30.5 -23.5
c-11 -8.33301 -20.167 -14.833 -27.5 -19.5c-2 -1.33301 -4.83301 -2.66602 -8.5 -3.99902s-6.5 -2 -8.5 -2c-1.33301 0 -3 1.66699 -5 5c-2.66699 4 -6.33398 9.16699 -11.001 15.5s-9.16699 13.5 -13.5 21.5s-8.16602 16.167 -11.499 24.5s-5 16.5 -5 24.5v85
c0 24 -0.166992 49.333 -0.5 76s-0.5 50 -0.5 70c0 4 -1.33301 6.66699 -4 8c-1.33301 0.666992 -3.16602 1 -5.49902 1h-5.5h-6c-0.666992 -0.666992 -1.33398 -0.666992 -2.00098 0c-2 0 -3 1.33301 -3 4c-0.666992 2 -0.666992 3.16699 0 3.5s1.66699 1.16602 3 2.49902
c16 11.333 30 21.666 42 30.999s25.667 21 41 35c4 4 7.33301 5.33301 10 4c2 -0.666992 3 -3.66699 3 -9v-28c0 -16 -0.333008 -38 -1 -66l-1 -184c0 -10.667 0.5 -19.667 1.5 -27s4.16699 -15.666 9.5 -24.999c1.33301 -2.66699 2.66602 -4.66699 3.99902 -6l5 -5
c2 1.33301 6.16699 4.83301 12.5 10.5s12.5 11.834 18.5 18.501l1 203v6c0 1.33301 -0.166992 2.66602 -0.5 3.99902s-0.5 2.66602 -0.5 3.99902l-3 3h-2l-17 2h-2c-2 0 -3 1 -3 3c-0.666992 2 -0.666992 3.16699 0 3.5s1.66699 1.16602 3 2.49902
c14.667 10.667 27 21.667 37 33s24 24 42 38z" />
    <glyph glyph-name="v" unicode="v" horiz-adv-x="233" 
d="M116 161l40.998 169.998c2 9.33301 2 16.833 0 22.5s-4.83301 10.167 -8.5 13.5s-7.66699 5.66602 -12 6.99902s-7.5 2 -9.5 2l-14 1v11c15.333 -1.33301 31.666 -1.33301 48.999 0c14.667 0.666992 31 2.33398 49 5.00098s36 7.33398 54 14.001l5 -14
c-11.333 -4.66699 -23.333 -12.667 -36 -24s-21.667 -26 -27 -44l-100 -361c-1.33301 -3.33301 -3.66602 -5.16602 -6.99902 -5.49902s-5.66602 1.83398 -6.99902 6.50098l-88 356c-2 8 -3.83301 13.5 -5.5 16.5s-4.16699 4.83301 -7.5 5.5l-10 1l1 11l116 4v-12
c-5.33301 -0.666992 -9.66602 -2.33398 -12.999 -5.00098c-3.33301 -2 -6 -4.83301 -8 -8.5s-2.33301 -8.16699 -1 -13.5z" />
    <glyph glyph-name="w" unicode="w" horiz-adv-x="376" 
d="M257 155l32 172.001c2 9.33301 1.66699 16.833 -1 22.5s-6 10 -10 13s-8 5 -12 6s-7 1.5 -9 1.5l-15 1v11c15.333 0 31.333 1 48 3c14 1.33301 29.833 4 47.5 8s35.5 9.66699 53.5 17l6 -13c-10.667 -5.33301 -21.667 -13.5 -33 -24.5s-19 -25.5 -23 -43.5l-83 -371
c-1.33301 -3.33301 -3.66602 -5.33301 -6.99902 -6s-5.66602 1.33301 -6.99902 6l-68 211l-26 -67.5l-27 -68.5l-30 -75c-1.33301 -4.66699 -3.5 -6.83398 -6.5 -6.50098s-4.83301 1.83301 -5.5 4.5l-40 168l-16 65.5l-14.5 60.5l-11.5 49l-7 30
c-1.33301 3.33301 -3.33301 6 -6 8s-5.66699 3.33301 -9 4v14l109 1v-12c-2 -0.666992 -4.33301 -1.66699 -7 -3c-5.33301 -2.66699 -8.33301 -5.33398 -9 -8.00098c-2 -4.66699 -2.16699 -11.167 -0.5 -19.5s4.16699 -19.833 7.5 -34.5l36 -153l37 142l-13 41
c-2.66699 8 -5.83398 13.333 -9.50098 16s-7.16699 4.33398 -10.5 5.00098h-9l-1 12l123 10v-12c-4.66699 -1.33301 -8.66699 -3.33301 -12 -6c-3.33301 -2 -5.83301 -5 -7.5 -9s-1.83398 -8.66699 -0.500977 -14z" />
    <glyph glyph-name="x" unicode="x" horiz-adv-x="233" 
d="M-48 -66c4 1.33301 8.49707 3.16406 13.4971 5.49707s9.16699 5.16602 12.5 8.49902s7.83301 10.5 13.5 21.5l17.5 33.5c11.333 20.667 22.833 43.167 34.5 67.5l34.5 72.5l-25 60l-22 54c-7.33301 18.667 -14.666 36.334 -21.999 53.001
c-2.66699 7.33301 -5 13.5 -7 18.5s-3.66699 8.83301 -5 11.5c-5.33301 8 -12.333 14 -21 18l3 12c13.333 -3.33301 27.166 -5.83301 41.499 -7.5l39.5 -4.5c14 -1.33301 28 -2 42 -2v-12c-10 -2.66699 -16 -5.66699 -18 -9c-3.33301 -5.33301 -4 -10 -2 -14
c0 -1.33301 3.5 -10.166 10.5 -26.499l25.5 -60.5l28 65c1.33301 3.33301 1.83301 6.5 1.5 9.5s-1.16602 5.5 -2.49902 7.5c-2.66699 3.33301 -7.66699 5.33301 -15 6v11h30c9.33301 0 20 0.166992 32 0.5s24.667 1.16602 38 2.49902v-11
c-5.33301 -0.666992 -9.66602 -3.66699 -12.999 -9c-3.33301 -3.33301 -6.16602 -7.16602 -8.49902 -11.499s-5.16602 -9.16602 -8.49902 -14.499c-4.66699 -11.333 -10 -23.333 -16 -36l-18 -38.5l-21 -45.5l27 -63l24 -56l24 -56c0.666992 -2.66699 2 -5.66699 4 -9
s3.66699 -5.66602 5 -6.99902c2 -2 4.83301 -4.33301 8.5 -7s9.5 -4.66699 17.5 -6v-11l-140 11v11c6 0 11.5 2.33301 16.5 7s5.83301 11.334 2.5 20.001c-0.666992 0.666992 -3.83398 8 -9.50098 22l-21.5 53l-54 -118c-2.66699 -5.33301 -3 -10 -1 -14
s4.33301 -6.66699 7 -8c3.33301 -2.66699 9 -4.33398 17 -5.00098v-12h-120v12z" />
    <glyph glyph-name="y" unicode="y" horiz-adv-x="245" 
d="M2 312l100.003 5.00586v-12c-0.666992 0 -1.66699 -0.333008 -3 -1c-3.33301 -1.33301 -5.33301 -3.33301 -6 -6c-1.33301 -2.66699 -2 -4.66699 -2 -6v-6c-0.666992 -4 -0.666992 -8.66699 0 -14l3 -25l22 -164l56 244
c1.33301 7.33301 -0.833984 13.166 -6.50098 17.499s-11.167 6.5 -16.5 6.5l-1 11l104 13l1 -15c-4.66699 0 -8.33398 -1 -11.001 -3c-6.66699 -3.33301 -11 -9.33301 -13 -18l-17 -84l-14.5 -73l-12.5 -64c-4 -19.333 -8.5 -39 -13.5 -59l-14.5 -56
c-5.33301 -20 -11 -39.333 -17 -58c-4.66699 -18.667 -8.83398 -36.334 -12.501 -53.001s-8 -31.334 -13 -44.001s-10.833 -23.167 -17.5 -31.5s-15.334 -13.5 -26.001 -15.5c-12 -2.66699 -25.667 -0.5 -41 6.5s-30.666 15.167 -45.999 24.5c-13.333 8 -26.333 17 -39 27
s-19.667 18 -21 24c-2 5.33301 -2.83301 9.66602 -2.5 12.999s1.16602 7 2.49902 11c0.666992 6 2.5 12.5 5.5 19.5s6.16699 13.667 9.5 20s6.83301 11.833 10.5 16.5s7.16699 7.66699 10.5 9c5.33301 1.33301 9.66602 2 12.999 2h8l63 -10l1 -11
c-3.33301 -1.33301 -8.5 -1.5 -15.5 -0.5s-14.167 1.5 -21.5 1.5s-14.5 -1 -21.5 -3s-12.167 -6.33301 -15.5 -13c-6.66699 -14.667 -9.66699 -25.334 -9 -32.001s5.33398 -13 14.001 -19c6.66699 -5.33301 14.5 -9.5 23.5 -12.5s17.667 -5.16699 26 -6.5
s15.833 -1.5 22.5 -0.5s11.667 3.16699 15 6.5c2.66699 3.33301 6 11.666 10 24.999s7.33301 26 10 38l14 62c-8 12 -16.333 21.833 -25 29.5s-13.667 14.834 -15 21.501c-4 22 -7.66699 44 -11 66s-6.83301 43.333 -10.5 64l-10 57c-3 17.333 -5.83301 32 -8.5 44
c-1.33301 4 -2.16602 7.16699 -2.49902 9.5s-1.5 4.16602 -3.5 5.49902c-2.66699 1.33301 -4.66699 2 -6 2h-3v14z" />
    <glyph glyph-name="z" unicode="z" horiz-adv-x="227" 
d="M8 -11c-5.33301 0 -8.3291 1.00195 -8.99609 3.00195s-0.333984 4.33301 0.999023 7l133 334c-17.333 0.666992 -31.833 -1.83301 -43.5 -7.5s-20.834 -11.5 -27.501 -17.5c-6 -5.33301 -11.5 -12.5 -16.5 -21.5s-9.16699 -22.833 -12.5 -41.5h-14
c1.33301 17.333 2.16602 32.166 2.49902 44.499s0.5 22.833 0.5 31.5c0 10 -0.333008 18.667 -1 26l186 35c9.33301 1.33301 12.333 -2.66699 9 -12l-124 -341c17.333 0.666992 30.833 1.16699 40.5 1.5s19.167 3.16602 28.5 8.49902s16.666 12 21.999 20
s10.333 23.667 15 47h14c-1.33301 -16.667 -2.5 -32 -3.5 -46s-1.5 -26.333 -1.5 -37c-0.666992 -12 -0.666992 -23.333 0 -34h-199z" />
    <glyph glyph-name="braceleft" unicode="{" horiz-adv-x="129" 
d="M62 230c19.333 -4 31.999 -23.666 37.999 -58.999c0.666992 -2.66699 1.16699 -8.16699 1.5 -16.5s0.666016 -18.333 0.999023 -30s0.666016 -24.667 0.999023 -39s0.5 -28.833 0.5 -43.5c0.666992 -34 1.33398 -71.667 2.00098 -113
c0.666992 -12.667 5.83398 -21.834 15.501 -27.501s18.167 -9.16699 25.5 -10.5v-14c-7.33301 0 -15.833 0.5 -25.5 1.5s-19 3.33301 -28 7s-17 8.66699 -24 15s-11.833 14.5 -14.5 24.5c-3.33301 12 -5.66602 29.667 -6.99902 53s-2 48 -2 74v62
c0 35.333 -2.33301 60.333 -7 75c-2.66699 7.33301 -6.5 14.5 -11.5 21.5s-11.167 12.167 -18.5 15.5c-1.33301 0.666992 -2.33301 1.83398 -3 3.50098s0.333008 3.16699 3 4.5c6 3.33301 11.833 8.5 17.5 15.5s9.83398 14.167 12.501 21.5c4.66699 14.667 7 39.667 7 75v65
c0 26 0.666992 49.833 2 71.5s3.66602 38.167 6.99902 49.5c2.66699 10 7.5 18.333 14.5 25s15 12 24 16s18.333 6.66699 28 8s18.167 2 25.5 2v-14c-7.33301 -1.33301 -15.833 -4.83301 -25.5 -10.5s-14.834 -14.834 -15.501 -27.501
c-0.666992 -42 -1.33398 -80 -2.00098 -114c0 -14.667 -0.166992 -29 -0.5 -43s-0.666016 -27 -0.999023 -39s-0.666016 -22 -0.999023 -30s-0.833008 -13.333 -1.5 -16c-6 -35.333 -18.667 -55 -38 -59z" />
    <glyph glyph-name="bar" unicode="|" horiz-adv-x="125" 
d="M87 595l-0.00195312 -74.001v-122.5c0 -46.333 0.166992 -96 0.5 -149s0.5 -103.833 0.5 -152.5v-132.5v-90.5l-51 -6c0 12.667 -0.166992 31.5 -0.5 56.5s-0.666016 54 -0.999023 87s-0.833008 68.833 -1.5 107.5l-2 117l-2 115.5
c-0.666992 37.667 -1.16699 72.334 -1.5 104.001s-0.666016 59 -0.999023 82s-0.5 39.5 -0.5 49.5z" />
    <glyph glyph-name="braceright" unicode="}" horiz-adv-x="148" 
d="M77 243c-19.333 3.33301 -32.335 22.998 -39.002 58.998c-0.666992 2.66699 -1.16699 8 -1.5 16s-0.666016 18 -0.999023 30s-0.666016 25 -0.999023 39s-0.5 28.333 -0.5 43c-0.666992 34 -1.33398 72 -2.00098 114c0 12.667 -4.83301 21.834 -14.5 27.501
s-18.167 9.16699 -25.5 10.5v14c7.33301 0 15.833 -0.666992 25.5 -2s19 -4 28 -8s17 -9.33301 24 -16s11.833 -15 14.5 -25c2.66699 -11.333 4.66699 -27.833 6 -49.5s2 -45.5 2 -71.5v-65c0 -32.667 2.66699 -57.667 8 -75c2.66699 -7.33301 6.83398 -14.333 12.501 -21
s11.167 -11.667 16.5 -15c2.66699 -1.33301 3.83398 -3 3.50098 -5s-1.5 -3.33301 -3.5 -4c-6.66699 -3.33301 -12.5 -8.5 -17.5 -15.5s-8.83301 -14.167 -11.5 -21.5c-5.33301 -17.333 -8 -42.333 -8 -75v-62c0 -26 -0.666992 -50.667 -2 -74s-3.33301 -41 -6 -53
c-2.66699 -10 -7.5 -18.167 -14.5 -24.5s-15 -11.333 -24 -15s-18.333 -6 -28 -7s-18.167 -1.5 -25.5 -1.5v14c7.33301 1.33301 15.833 4.83301 25.5 10.5s14.5 14.834 14.5 27.501c0.666992 41.333 1.33398 79 2.00098 113c0 14.667 0.166992 29.167 0.5 43.5
s0.666016 27.333 0.999023 39s0.666016 21.667 0.999023 30s0.833008 13.833 1.5 16.5c6.66699 36 19.667 55.667 39 59z" />
    <glyph glyph-name="asciitilde" unicode="~" horiz-adv-x="300" 
d="M148 278c15.333 -6.66699 27.1699 -11.668 35.5029 -15.001s16.833 -5.66602 25.5 -6.99902c10.667 -2 19 2 25 12l13 26l38 5l-20 -39.5c-6 -12.333 -12.667 -23.5 -20 -33.5c-6.66699 -10 -13.334 -17.333 -20.001 -22s-16.667 -7 -30 -7
c-4 0 -11.333 0.833008 -22 2.5s-20.334 4.16699 -29.001 7.5c-18.667 8.66699 -34.334 15.167 -47.001 19.5l-22 7.5c-4.66699 2 -8.83398 3.16699 -12.501 3.5s-7.16699 -2.16699 -10.5 -7.5c-2 -2.66699 -4 -6.5 -6 -11.5s-4.33301 -10.5 -7 -16.5l-33 -5
c2.66699 12 6.16699 22.5 10.5 31.5s8.5 17.167 12.5 24.5c8.66699 13.333 17.834 24.5 27.501 33.5s22.5 11.5 38.5 7.5c4 -1.33301 10.667 -3 20 -5s20.333 -5.66699 33 -11z" />
    <glyph glyph-name="exclamdown" unicode="&#xa1;" horiz-adv-x="115" 
d="M23 287c0 3.33301 1.33398 6 4.00098 8s5.33398 2.33301 8.00098 1l17 -9c3.33301 -1.33301 6.66602 -3.5 9.99902 -6.5s5 -6.16699 5 -9.5c0.666992 -26.667 1.5 -49.167 2.5 -67.5s2.5 -36.333 4.5 -54s4.5 -37.167 7.5 -58.5l11.5 -80
c3.33301 -20.667 5.66602 -36.167 6.99902 -46.5s2.33301 -19.166 3 -26.499c0 -25.333 -3.5 -44.833 -10.5 -58.5s-19.833 -19.5 -38.5 -17.5c-19.333 2 -32.833 9.83301 -40.5 23.5s-10.834 29.834 -9.50098 48.501c0.666992 9.33301 1.66699 20.666 3 33.999
s3 32.333 5 57c2 20 3.33301 37 4 51s1.33398 27.167 2.00098 39.5s1.16699 24.666 1.5 36.999s0.5 26.5 0.5 42.5zM60.001 324c-26.667 -12.667 -45.335 -5.99805 -56.002 20.002c-5.33301 12.667 -5.16602 26.667 0.500977 42s14.5 26 26.5 32
c12.667 5.33301 24.5 5.66602 35.5 0.999023s19.167 -13.334 24.5 -26.001c4.66699 -12.667 3.83398 -26 -2.49902 -40s-15.833 -23.667 -28.5 -29z" />
    <glyph glyph-name="cent" unicode="&#xa2;" horiz-adv-x="231" 
d="M224 396c6.66699 -7.33301 10.832 -15.332 12.499 -23.999s1.83398 -17.167 0.500977 -25.5s-3.83301 -16.166 -7.5 -23.499s-7.83398 -13 -12.501 -17c-3.33301 -2.66699 -8.16602 -6.16699 -14.499 -10.5s-14.166 -8.16602 -23.499 -11.499l-5 8
c7.33301 10 10.833 21.5 10.5 34.5s-1.83301 23.167 -4.5 30.5c-2 3.33301 -5 7.66602 -9 12.999l-48 -304c2 -2 4.16699 -3.83301 6.5 -5.5l6.5 -4.5c8 -5.33301 16.167 -9.5 24.5 -12.5s16.5 -0.5 24.5 7.5c5.33301 4.66699 11.666 12.5 18.999 23.5
s13.666 19.833 18.999 26.5l8 -9c-5.33301 -11.333 -12.333 -23.5 -21 -36.5s-17.167 -24.833 -25.5 -35.5s-16.166 -19.5 -23.499 -26.5s-12.333 -10.5 -15 -10.5c-5.33301 0 -16.666 5.66699 -33.999 17l-12 -79l-30 2l15 96c-8.66699 6.66699 -17.334 14 -26.001 22
s-16.5 16.167 -23.5 24.5s-12.667 16.833 -17 25.5s-6.5 17 -6.5 25c0 15.333 -0.166992 32.833 -0.5 52.5l-1 59c-0.333008 19.667 -0.5 38.667 -0.5 57s0.333008 33.833 1 46.5c0.666992 12 3.16699 24 7.5 36s13.833 26.333 28.5 43
c15.333 17.333 27.833 29.666 37.5 36.999s19.167 13.666 28.5 18.999c5.33301 3.33301 10.5 6 15.5 8s10.167 4.33301 15.5 7l9 -10l14 93l32 -18l-16 -106zM142.998 404.001l-10.5 11.999c-3 3.33301 -5.16699 5.66602 -6.5 6.99902
c-4 -2.66699 -7.33301 -5.33398 -10 -8.00098l-10 -10c-14 -17.333 -21.667 -36.666 -23 -57.999v-48c0 -19.333 0.333008 -39.666 1 -60.999s1.5 -42.833 2.5 -64.5s2.16699 -41.167 3.5 -58.5c0 -3.33301 0.666992 -6.66602 2 -9.99902l4 -10z" />
    <glyph glyph-name="sterling" unicode="&#xa3;" horiz-adv-x="310" 
d="M91 286c-9.33301 23.333 -17.3408 45.332 -24.0078 65.999s-10 39.667 -10 57c0 18.667 2.33301 34.334 7 47.001s14.667 26.667 30 42c20.667 20.667 38.834 32.834 54.501 36.501s27.5 5.5 35.5 5.5c15.333 0 30.5 -2.66699 45.5 -8s27.167 -13.666 36.5 -24.999
c6 -6.66699 11.5 -14.334 16.5 -23.001s9.33301 -17.167 13 -25.5s6.33398 -16.166 8.00098 -23.499s2.16699 -12.666 1.5 -15.999c-2 -10 -7.83301 -19.667 -17.5 -29s-20.167 -18.666 -31.5 -27.999c-10 -8 -20.667 -15.333 -32 -22s-19.666 -9.66699 -24.999 -9
c-4 0 -7.16699 0.666992 -9.5 2s-5.16602 2.66602 -8.49902 3.99902c-8 5.33301 -12.167 11.5 -12.5 18.5s-0.166016 13.167 0.500977 18.5c0 3.33301 0.666992 7 2 11l2 6l26 45l8 -3c0 -2.66699 -1.16699 -6.5 -3.5 -11.5s-4.66602 -10.333 -6.99902 -16
s-3.83301 -11.334 -4.5 -17.001s1 -10.834 5 -15.501c3.33301 -3.33301 6.33301 -4.83301 9 -4.5s4.66699 1.16602 6 2.49902c11.333 9.33301 20.333 19.833 27 31.5s9.33398 21.167 8.00098 28.5c-0.666992 2 -1.66699 7.16699 -3 15.5s-4 16.166 -8 23.499
c-4.66699 8.66699 -10.5 16.334 -17.5 23.001s-13.167 10 -18.5 10c-13.333 0 -29 -9 -47 -27c-10.667 -11.333 -18 -21.666 -22 -30.999s-6 -20 -6 -32c0 -14 4 -32.333 12 -55s15.667 -46.667 23 -72h92l-26 -28l-59 1c7.33301 -28 12.333 -50.333 15 -67s4 -31 4 -43
c0 -10 -0.666992 -21.667 -2 -35s-3 -24.666 -5 -33.999c15.333 -7.33301 27.166 -12.333 35.499 -15s16.833 -5.66699 25.5 -9c13.333 -4.66699 24 -6.33398 32 -5.00098s14.5 5.33301 19.5 12s9.33301 15.834 13 27.501s7.83398 26.167 12.501 43.5l7 -7
c-7.33301 -28.667 -12.5 -50.834 -15.5 -66.501s-8.16699 -28.167 -15.5 -37.5c-8 -11.333 -16 -20.666 -24 -27.999s-19.667 -9.33301 -35 -6c-6 1.33301 -11.667 3 -17 5s-10.833 4.5 -16.5 7.5s-12.167 6.83301 -19.5 11.5l-27 17c-22.667 -27.333 -50 -41 -82 -41
c-19.333 0 -35.666 5.66699 -48.999 17c-6.66699 6 -11.5 11.833 -14.5 17.5s-4.5 13.167 -4.5 22.5c0 5.33301 1.16699 12.833 3.5 22.5s7.5 19.834 15.5 30.501c7.33301 9.33301 14.5 14.666 21.5 15.999s15.167 2 24.5 2c21.333 0 46.333 -7.33301 75 -22
c1.33301 7.33301 2.16602 15.166 2.49902 23.499s0.5 14.166 0.5 17.499c0 12.667 -4.66699 29.5 -14 50.5s-19.666 45.833 -30.999 74.5l-50 1l-2 24h41zM127.992 49.999c-17.333 10.667 -30.8311 17.834 -40.498 21.501s-18.167 6.16699 -25.5 7.5
c-4 1.33301 -8.83301 1.66602 -14.5 0.999023s-9.16699 -3.33398 -10.5 -8.00098c-2 -3.33301 -3.33301 -6.5 -4 -9.5s-1.33398 -6.5 -2.00098 -10.5c-0.666992 -3.33301 -0.833984 -6.66602 -0.500977 -9.99902s2 -6.33301 5 -9s7.5 -5.16699 13.5 -7.5
s14.667 -4.5 26 -6.5c17.333 -2 35 8.33301 53 31z" />
    <glyph glyph-name="yen" unicode="&#xa5;" horiz-adv-x="234" 
d="M99 244l-12.001 35.0029l-69 -1l-3 23l62 3l-57 155c-2 7.33301 -4.83301 14.166 -8.5 20.499s-7.16699 9.5 -10.5 9.5l-9 1l-1 9l115 5l1 -7c-5.33301 -2.66699 -9.66602 -5.33398 -12.999 -8.00098c-3.33301 -3.33301 -6 -7 -8 -11s-1.66699 -9.33301 1 -16l63 -177
l53 161c4 12.667 5.33301 23.167 4 31.5s-3.66602 15 -6.99902 20s-7 8.33301 -11 10s-7 2.5 -9 2.5h-14l-1 9c14.667 1.33301 30.667 3.33301 48 6c14 2.66699 29.833 6.5 47.5 11.5s35.167 11.833 52.5 20.5l3 -7c-10.667 -7.33301 -20.834 -17.833 -30.501 -31.5
s-17.834 -30.834 -24.501 -51.501l-49 -159l69 3l-24 -30l-54 -1l-11 -36h76l-26 -28l-58 1l-5 -15l3 -161c0 -13.333 1.66699 -24.666 5 -33.999s7.5 -17 12.5 -23s10.167 -11 15.5 -15s10 -7 14 -9v-7c-25.333 4.66699 -47.333 8.16699 -66 10.5
s-34.667 4.16602 -48 5.49902c-15.333 1.33301 -28.333 2 -39 2l1 6c8.66699 7.33301 15.834 16.833 21.501 28.5s8.5 24.167 8.5 37.5v176l-72 1l-1 24h65z" />
    <glyph glyph-name="brokenbar" unicode="&#xa6;" horiz-adv-x="100" 
d="M74 594v-288l-56 -9l-5 290zM74 165v-292l-49 -6l1 8l-5 281z" />
    <glyph glyph-name="section" unicode="&#xa7;" horiz-adv-x="288" 
d="M122 -65c18 0 31.6689 4.33203 41.002 12.999c8 7.33301 13.333 15 16 23s3.66699 16 3 24c-1.33301 13.333 -6.83301 28.333 -16.5 45s-26.167 34.667 -49.5 54c-13.333 12 -26.5 22 -39.5 30s-25.167 20 -36.5 36l-15 23c-4.66699 7.33301 -7.66699 14.333 -9 21
c-2.66699 10.667 -3.66699 21.5 -3 32.5s7 22.5 19 34.5l28 27.5l25 23.5c-6.66699 6 -14.334 14.333 -23.001 25l-15 23c-4.66699 7.33301 -7.66699 14.333 -9 21c-1.33301 5.33301 -3.16602 10.666 -5.49902 15.999s-4.16602 10.833 -5.49902 16.5
s-1.33301 11.334 0 17.001s5 11.5 11 17.5l41 40c13.333 12.667 24.333 21.334 33 26.001c7.33301 4 16.333 6.66699 27 8c10 1.33301 21.5 -1.16699 34.5 -7.5s25.167 -14.166 36.5 -23.499c9.33301 -8 18.333 -17 27 -27s13.334 -17.667 14.001 -23
c0.666992 -6.66699 -0.333008 -12.667 -3 -18c-3.33301 -9.33301 -8.33301 -14.833 -15 -16.5s-12.667 -2.83398 -18 -3.50098c-2 -0.666992 -4 -0.833984 -6 -0.500977s-4 0.5 -6 0.5c-2.66699 0 -4.66699 0.333008 -6 1l-49 17l2 9
c2.66699 0.666992 6.66699 0.166992 12 -1.5s11 -3 17 -4s11.833 -1.33301 17.5 -1s10.5 2.83301 14.5 7.5c2.66699 3.33301 3.33398 6.33301 2.00098 9s-2.66602 4.66699 -3.99902 6c-4.66699 4 -10.334 8.16699 -17.001 12.5s-13.5 8 -20.5 11s-13.833 5.33301 -20.5 7
s-12 1.5 -16 -0.5c-4 -1.33301 -9.16699 -4.66602 -15.5 -9.99902s-11.833 -10.666 -16.5 -15.999c-6 -7.33301 -9.5 -15 -10.5 -23s-0.333008 -16 2 -24s6.33301 -15.5 12 -22.5s11.834 -12.833 18.501 -17.5c6 -5.33301 12 -10.333 18 -15
c5.33301 -4 10.5 -8.16699 15.5 -12.5s9.5 -7.5 13.5 -9.5c34 -22.667 58.333 -46 73 -70s22 -44.667 22 -62c0 -8 -0.833008 -16.833 -2.5 -26.5s-4.33398 -19.167 -8.00098 -28.5s-8.33398 -18 -14.001 -26s-12.5 -14.333 -20.5 -19
c-0.666992 -1.33301 -1.66699 -2.33301 -3 -3c-1.33301 -1.33301 -2.66602 -2.16602 -3.99902 -2.49902s-2.66602 -1.16602 -3.99902 -2.49902c12 -14.667 20.667 -28.667 26 -42s8 -25.666 8 -36.999c0 -8 -0.833008 -16.833 -2.5 -26.5s-4.33398 -19.167 -8.00098 -28.5
s-8.33398 -18 -14.001 -26s-12.5 -14.333 -20.5 -19c-6 -6.66699 -12.667 -12.667 -20 -18c-6 -4.66699 -13 -8.83398 -21 -12.501s-16 -4.83398 -24 -3.50098c-10 0.666992 -21.833 4.66699 -35.5 12s-26.167 15.666 -37.5 24.999
c-9.33301 8.66699 -18.333 17.834 -27 27.501s-13.334 17.167 -14.001 22.5c-0.666992 4.66699 -0.666992 8.16699 0 10.5s1.66699 5.16602 3 8.49902c3.33301 9.33301 8.5 14.666 15.5 15.999s13.167 2.33301 18.5 3h11c2 0 4 -0.333008 6 -1l49 -17l-1 -9
c-2.66699 -0.666992 -6.66699 -0.166992 -12 1.5s-11 3.16699 -17 4.5s-11.833 1.66602 -17.5 0.999023s-10.5 -3.33398 -14.5 -8.00098c-3.33301 -3.33301 -4.33301 -6.16602 -3 -8.49902s2.66602 -4.16602 3.99902 -5.49902c9.33301 -8 19.666 -15.167 30.999 -21.5
s20.666 -9.5 27.999 -9.5zM112.002 301.999l-17.999 -16.002c-6 -5.33301 -10.333 -9.66602 -13 -12.999c-6.66699 -7.33301 -10.5 -15 -11.5 -23s-0.166992 -16 2.5 -24s6.66699 -15.5 12 -22.5s11.333 -12.833 18 -17.5c6 -5.33301 12 -10.333 18 -15l16 -12
c5.33301 -4 10 -7.33301 14 -10c5.33301 -3.33301 10.166 -6.66602 14.499 -9.99902l12.5 -10l8 6c8 7.33301 13.333 15 16 23s3.66699 16 3 24c-1.33301 13.333 -6.83301 28.333 -16.5 45s-26.167 34.667 -49.5 54c-4.66699 4 -9.16699 7.66699 -13.5 11z" />
    <glyph glyph-name="dieresis" unicode="&#xa8;" horiz-adv-x="179" 
d="M1 459c0 9.33301 3.16699 17.166 9.5 23.499s14.166 9.5 23.499 9.5s17.166 -3.16699 23.499 -9.5s9.5 -14.166 9.5 -23.499s-3.16699 -17.166 -9.5 -23.499s-14.166 -9.5 -23.499 -9.5s-17.166 3.16699 -23.499 9.5s-9.5 14.166 -9.5 23.499zM102 462
c0 9.33301 3.16699 17.166 9.5 23.499s14.166 9.5 23.499 9.5s17.166 -3.16699 23.499 -9.5s9.5 -14.166 9.5 -23.499s-3.16699 -17.166 -9.5 -23.499s-14.166 -9.5 -23.499 -9.5s-17.166 3.16699 -23.499 9.5s-9.5 14.166 -9.5 23.499z" />
    <glyph glyph-name="copyright" unicode="&#xa9;" horiz-adv-x="471" 
d="M234 -4c-48 0 -86.333 5.5 -115 16.5s-50.834 27.333 -66.501 49s-25.834 48.5 -30.501 80.5s-7 69.333 -7 112c0 36 2.5 69.667 7.5 101s15.167 58.666 30.5 81.999s37.333 41.833 66 55.5s67 20.5 115 20.5c48.667 0 87.334 -7.16699 116.001 -21.5
s50.5 -33.5 65.5 -57.5s24.667 -51.667 29 -83s6.5 -63.666 6.5 -96.999c0 -41.333 -1.66699 -78 -5 -110s-12.166 -59 -26.499 -81s-36 -38.667 -65 -50s-69.167 -17 -120.5 -17zM238 39c41.333 1.33301 73.498 6 96.498 14s39.833 20.5 50.5 37.5s16.667 39.167 18 66.5
s1.33301 61 0 101c-1.33301 32.667 -4.16602 62 -8.49902 88s-12.833 48.167 -25.5 66.5s-30.5 32.166 -53.5 41.499s-53.833 13.333 -92.5 12c-38 -1.33301 -68.167 -7.16602 -90.5 -17.499s-39.333 -24.833 -51 -43.5s-19 -41.334 -22 -68.001s-3.83301 -57 -2.5 -91
c1.33301 -40 4.33301 -73.5 9 -100.5s13.334 -48.667 26.001 -65s30.5 -27.666 53.5 -33.999s53.833 -8.83301 92.5 -7.5zM295.998 400c6 -6.66699 9.83301 -13.833 11.5 -21.5s2 -15.334 1 -23.001s-3.33301 -14.5 -7 -20.5s-7.83398 -11 -12.501 -15
c-2.66699 -2 -7.33398 -4.83301 -14.001 -8.5s-14.334 -7.16699 -23.001 -10.5l-3 5c8 4.66699 13.333 10.167 16 16.5s4 12.666 4 18.999s-0.833008 12.166 -2.5 17.499s-3.16699 9.66602 -4.5 12.999c-2 5.33301 -5 11.166 -9 17.499s-7.66699 11.5 -11 15.5
c-3.33301 -2.66699 -8.33301 -7.5 -15 -14.5l-15 -15.5c-7.33301 -7.33301 -11.666 -15.333 -12.999 -24s-2.33301 -17.667 -3 -27c-0.666992 -11.333 -1.16699 -21.5 -1.5 -30.5s-0.5 -18.167 -0.5 -27.5s0.333008 -19.5 1 -30.5s1.66699 -24.167 3 -39.5
c0.666992 -9.33301 2.5 -18.666 5.5 -27.999s10.5 -18.333 22.5 -27c10.667 -7.33301 19.834 -12.5 27.501 -15.5s15.5 -0.833008 23.5 6.5c4.66699 4 10.667 11 18 21s13.666 17.667 18.999 23l5 -5c-5.33301 -10 -11.833 -20.667 -19.5 -32s-15 -21.5 -22 -30.5
s-13.5 -16.5 -19.5 -22.5s-10.333 -8.33301 -13 -7c-27.333 10.667 -51 26.5 -71 47.5s-30.333 44.5 -31 70.5c0 14 -0.166992 25.667 -0.5 35s-0.666016 17.833 -0.999023 25.5s-0.5 15.334 -0.5 23.001s0.333008 17.167 1 28.5c1.33301 10.667 3.5 21.334 6.5 32.001
s11.5 23.334 25.5 38.001c7.33301 8 13.5 14.5 18.5 19.5l13.5 13c4 3.66699 7.83301 6.83398 11.5 9.50098s7.83398 5.33398 12.501 8.00098c9.33301 5.33301 19.333 9.66602 30 12.999z" />
    <glyph glyph-name="ordfeminine" unicode="&#xaa;" horiz-adv-x="160" 
d="M75 526c2 0 3.16406 -0.169922 3.49707 -0.50293l2.5 -2.5l26.5 -30c8.33301 -9.33301 16.166 -19.333 23.499 -30c1.33301 -1.33301 2.83301 -3.16602 4.5 -5.49902s2.83398 -4.5 3.50098 -6.5c2 -7.33301 3 -15.333 3 -24
c0.666992 -13.333 1.33398 -27.5 2.00098 -42.5s1.33398 -28.833 2.00098 -41.5l2 -43c0 -2 0.333008 -4.33301 1 -7c0 -2.66699 0.666992 -6.66699 2 -12c1.33301 -6 6.33301 -8.66699 15 -8v-5c-0.666992 0 -1.66699 -0.666992 -3 -2s-2.83301 -2.66602 -4.5 -3.99902
s-3.16699 -2.66602 -4.5 -3.99902c-4 -3.33301 -7.83301 -7.66602 -11.5 -12.999s-8.16699 -11 -13.5 -17c-3.33301 -4 -6.33301 -7.16699 -9 -9.5s-6.66699 -3.5 -12 -3.5c-3.33301 -0.666992 -6.16602 0.333008 -8.49902 3s-4.16602 5.33398 -5.49902 8.00098
c-2 2 -3.66699 4.33301 -5 7l-2 4c-5.33301 -4.66699 -10.666 -8.33398 -15.999 -11.001c-4.66699 -2.66699 -9.33398 -4.83398 -14.001 -6.50098s-9 -1.5 -13 0.5c-5.33301 2.66699 -8.83301 5.83398 -10.5 9.50098s-3.16699 8.16699 -4.5 13.5c-2 7.33301 -4 15.5 -6 24.5
s-3.66699 17.5 -5 25.5c-2 9.33301 -3.66699 18.666 -5 27.999c-0.666992 3.33301 -1 6.66602 -1 9.99902c0 2.66699 -0.166992 5.5 -0.5 8.5s0.166992 5.83301 1.5 8.5c3.33301 10.667 11.666 20.667 24.999 30c7.33301 4.66699 13.166 7.83398 17.499 9.50098
s9.16602 2.5 14.499 2.5c1.33301 0 3 -0.166992 5 -0.5s3.66699 -0.5 5 -0.5c2 -0.666992 4 -1 6 -1c-1.33301 -1.33301 -3 -3.33301 -5 -6l-4.5 -7c-1.66699 -2.66699 -3.16699 -5.33398 -4.5 -8.00098c-2 -6 -3.16699 -11.333 -3.5 -16s-0.5 -9.66699 -0.5 -15
c0 -2.66699 0.166992 -6.83398 0.5 -12.501s1.16602 -11.5 2.49902 -17.5c0.666992 -7.33301 1.66699 -15 3 -23v-4c0 -4 1 -7.33301 3 -10c1.33301 -5.33301 3.66602 -8 6.99902 -8c4 0 6 3 6 9v9.5v22c0 9 -0.166992 19 -0.5 30s-0.5 22.5 -0.5 34.5
c-0.666992 27.333 -1 58.333 -1 93c0 3.33301 -0.166992 6 -0.5 8s-1.83301 3.66699 -4.5 5c-3.33301 0.666992 -7.33301 -1.33301 -12 -6c-2 -1.33301 -4.33301 -3.33301 -7 -6c-1.33301 -1.33301 -2.66602 -2.33301 -3.99902 -3l-2 -2l-2.5 -2.5
c-1 -1 -1.83301 -2.16699 -2.5 -3.5c-3.33301 -6 -4.66602 -13.667 -3.99902 -23c0 -1.33301 0.166992 -2.5 0.5 -3.5s-0.166992 -1.83301 -1.5 -2.5c-1.33301 -1.33301 -2.83301 -1.16602 -4.5 0.500977s-4.83398 5.5 -9.50098 11.5c-1.33301 2 -3.66602 6 -6.99902 12
s-6 11.333 -8 16c-5.33301 8.66699 -6.66602 17 -3.99902 25c1.33301 3.33301 2.83301 6.33301 4.5 9s5.16699 5.66699 10.5 9c2.66699 2 6.16699 4.16699 10.5 6.5l13.5 7.5c4.66699 2.66699 8.83398 4.83398 12.501 6.50098s6.5 2.5 8.5 2.5z" />
    <glyph glyph-name="guillemotleft" unicode="&#xab;" horiz-adv-x="319" 
d="M162 385c6.66699 6 11.833 9.66797 15.5 11.001s6.16699 1.16602 7.5 -0.500977s1.5 -4.16699 0.5 -7.5s-2.5 -6.66602 -4.5 -9.99902l-45 -67l-17.5 -25.5l-15 -22.5c-4.33301 -6.66699 -8.16602 -12.167 -11.499 -16.5s-5.33301 -6.83301 -6 -7.5v-5l17.5 -25l32.5 -48
l45 -66c2 -4 3.5 -7.66699 4.5 -11s0.833008 -5.83301 -0.5 -7.5s-3.83301 -1.83398 -7.5 -0.500977s-8.83398 5 -15.501 11l-151 145v9zM275.999 392.001c6 6 10.832 9.66797 14.499 11.001s6.16699 1.16602 7.5 -0.500977s1.66602 -4.16699 0.999023 -7.5
s-2 -6.66602 -4 -9.99902l-45 -67l-17.5 -25.5l-15 -22.5c-4.33301 -6.66699 -8.16602 -12.167 -11.499 -16.5s-5.33301 -6.83301 -6 -7.5v-5l17.5 -25l32.5 -48l45 -66c2 -4 3.33301 -7.66699 4 -11s0.333984 -5.83301 -0.999023 -7.5s-3.83301 -1.83398 -7.5 -0.500977
s-8.5 5 -14.5 11l-151 145v9z" />
    <glyph glyph-name="logicalnot" unicode="&#xac;" horiz-adv-x="354" 
d="M67 280c-9.33301 0 -16.668 -1.50293 -22.001 -4.50293s-9.33301 -6.16699 -12 -9.5c-2.66699 -4 -4.33398 -8.33301 -5.00098 -13l-11 1c1.33301 19.333 2.33301 35.833 3 49.5s1.33398 24.834 2.00098 33.501c0.666992 10 1 18 1 24h10
c4 -7.33301 8.5 -12.5 13.5 -15.5s13.167 -4.5 24.5 -4.5h246l-4 -168c0 -11.333 1.5 -19.666 4.5 -24.999s8.16699 -9.66602 15.5 -12.999v-10c-6.66699 0 -15 -0.333008 -25 -1c-8.66699 -0.666992 -19.667 -1.33398 -33 -2.00098s-29.666 -1.66699 -48.999 -3l-1 11
c4.66699 0.666992 9 2.33398 13 5.00098c3.33301 2.66699 6.5 6.5 9.5 11.5s4.5 12.5 4.5 22.5v111h-185z" />
    <glyph glyph-name="registered" unicode="&#xae;" horiz-adv-x="470" 
d="M234 -4c-48 0 -86.332 5.5 -114.999 16.5s-50.834 27.333 -66.501 49s-25.834 48.5 -30.501 80.5s-7 69.333 -7 112c0 36 2.5 69.667 7.5 101s15.167 58.666 30.5 81.999s37.333 41.833 66 55.5s67 20.5 115 20.5c48.667 0 87.5 -7.16699 116.5 -21.5s51 -33.5 66 -57.5
s24.667 -51.667 29 -83s6.5 -63.666 6.5 -96.999c0 -41.333 -1.66699 -78 -5 -110s-12.166 -59 -26.499 -81s-36 -38.667 -65 -50s-69.5 -17 -121.5 -17zM239.001 39c41.333 1.33301 73.498 6 96.498 14s39.667 20.5 50 37.5s16.166 39.167 17.499 66.5s1.33301 61 0 101
c-1.33301 32.667 -4.16602 62 -8.49902 88s-12.666 48.167 -24.999 66.5s-30.166 32.166 -53.499 41.499s-54 13.333 -92 12s-68.333 -7.16602 -91 -17.499s-39.834 -24.833 -51.501 -43.5s-19 -41.334 -22 -68.001s-3.83301 -57 -2.5 -91
c1.33301 -40 4.33301 -73.5 9 -100.5s13.334 -48.667 26.001 -65s30.667 -27.666 54 -33.999s54.333 -8.83301 93 -7.5zM316.999 113c0 -2 1.3291 -4.3291 3.99609 -6.99609s5.83398 -5.33398 9.50098 -8.00098s7.33398 -4.83398 11.001 -6.50098s6.5 -2.5 8.5 -2.5v-5
c-7.33301 -2 -15.5 -3 -24.5 -3s-17.833 1.16699 -26.5 3.5s-16 6.16602 -22 11.499s-9.66699 12.333 -11 21l-16 110c-1.33301 5.33301 -3.66602 10 -6.99902 14s-7.66602 6.33301 -12.999 7l-15 2l3 -124c0.666992 -4 2.66699 -7.5 6 -10.5s6 -5.16699 8 -6.5v-5
c-5.33301 1.33301 -10.666 2.33301 -15.999 3c-4.66699 0.666992 -9.66699 1.16699 -15 1.5s-10 0.833008 -14 1.5s-8.5 1.16699 -13.5 1.5s-9.5 0.5 -13.5 0.5h-14v4c4.66699 1.33301 8.66699 3.5 12 6.5s5 6.5 5 10.5l2 257v2c0 8.66699 -3 14.834 -9 18.501
s-12.667 5.5 -20 5.5v5c4.66699 0.666992 9.66699 1 15 1h16c6 0 12 0.333008 18 1c8.66699 0.666992 16 1.16699 22 1.5s13 0.5 21 0.5c3.33301 0 8 -0.166992 14 -0.5s11.667 -1.5 17 -3.5c2.66699 -1.33301 6.66699 -4.33301 12 -9s10.666 -9.83398 15.999 -15.501
s10 -11.167 14 -16.5s6 -9.66602 6 -12.999v-15v-32c-0.666992 -4.66699 -1 -8 -1 -10s-0.666992 -4.66699 -2 -8c-1.33301 -8 -4.5 -14.333 -9.5 -19s-9.83301 -8.33398 -14.5 -11.001c-6 -4.66699 -13 -8 -21 -10c0.666992 0 3.16699 -0.833008 7.5 -2.5
s8.83301 -3.83398 13.5 -6.50098s9 -6.16699 13 -10.5s6.33301 -9.5 7 -15.5zM213.995 401.004c-3.33301 -3.33301 -4.00098 -6.66602 -2.00098 -9.99902l3 -118l20 2c7.33301 0.666992 12.833 4.5 16.5 11.5s5.83398 12.833 6.50098 17.5c0 2 0.166992 5.33301 0.5 10
s0.5 10 0.5 16s-0.166992 12.167 -0.5 18.5s-0.5 11.833 -0.5 16.5c-1.33301 11.333 -4.33301 20.666 -9 27.999s-10.667 11 -18 11h-11c-2 0 -4 -1 -6 -3z" />
    <glyph glyph-name="macron" unicode="&#xaf;" 
d="M0 454l197 8v-48l-197 3v37z" />
    <glyph glyph-name="degree" unicode="&#xb0;" horiz-adv-x="251" 
d="M83 389c4.66699 -5.33301 10.001 -8.33008 16.001 -8.99707s11.833 -0.333984 17.5 0.999023s11 3.66602 16 6.99902s9.5 7 13.5 11c10.667 11.333 17.667 23.166 21 35.499s4.33301 24 3 35s-5 20.5 -11 28.5s-13 13.333 -21 16s-17 1.83398 -27 -2.49902
s-19.667 -13.5 -29 -27.5c-4.66699 -6.66699 -8.16699 -14.334 -10.5 -23.001s-3.5 -17.5 -3.5 -26.5s1.16699 -17.667 3.5 -26s6.16602 -14.833 11.499 -19.5zM19.001 403.003c-7.33301 20 -8.66992 39.501 -4.00293 58.501s12.834 35.833 24.501 50.5
s25.834 26.667 42.501 36s33.5 14.166 50.5 14.499s33 -4.33398 48 -14.001s26.5 -25.5 34.5 -47.5c4.66699 -13.333 6.66699 -27.666 6 -42.999s-3.66699 -30.333 -9 -45s-13 -28 -23 -40s-22 -21 -36 -27s-27.833 -9 -41.5 -9s-26.5 2.5 -38.5 7.5s-22.667 12.5 -32 22.5
s-16.666 22 -21.999 36z" />
    <glyph glyph-name="plusminus" unicode="&#xb1;" horiz-adv-x="327" 
d="M69 302c-10 0 -17.499 -1.33301 -22.499 -4s-8.83301 -5.66699 -11.5 -9c-2.66699 -4 -4.33398 -8.33301 -5.00098 -13l-12 1c3.33301 38.667 5.33301 66 6 82c0.666992 10 0.666992 18 0 24h11c3.33301 -6.66699 7.66602 -11.667 12.999 -15s13.666 -5 24.999 -5h53v26
c0 11.333 -1.5 19.5 -4.5 24.5s-8.16699 9.5 -15.5 13.5v10c6 0 14 0.333008 24 1c8.66699 0.666992 19.667 1.33398 33 2.00098s29.666 1.66699 48.999 3l1 -11c-5.33301 -0.666992 -9.66602 -2.33398 -12.999 -5.00098s-6.33301 -6.66699 -9 -12s-4 -12.666 -4 -21.999
v-29h56c9.33301 0 16.833 1.33301 22.5 4s9.83398 5.66699 12.501 9s4.33398 7.66602 5.00098 12.999l11 -1c-2 -19.333 -3.33301 -35.666 -4 -48.999s-1.33398 -24.333 -2.00098 -33c-0.666992 -10 -0.666992 -18 0 -24h-11c-3.33301 7.33301 -7.5 12.5 -12.5 15.5
s-13.167 4.5 -24.5 4.5h-54v-26c0 -11.333 1.5 -19.5 4.5 -24.5s8.16699 -9.5 15.5 -13.5v-10c-6 0 -14 -0.333008 -24 -1c-8.66699 -0.666992 -19.667 -1.33398 -33 -2.00098s-29.666 -1.66699 -48.999 -3l-1 11c4.66699 0.666992 9 2.33398 13 5.00098
c3.33301 2.66699 6.33301 6.66699 9 12s4 12.666 4 21.999l1 30c-15.333 0 -28.333 -0.166992 -39 -0.5s-16.667 -0.5 -18 -0.5zM67.001 131c-10 -0.666992 -17.4971 -2.33203 -22.4971 -4.99902s-8.83301 -5.66699 -11.5 -9c-2.66699 -4 -4.33398 -8.33301 -5.00098 -13
h-11c1.33301 19.333 2.33301 35.833 3 49.5s1 24.834 1 33.501v24h10c4 -6.66699 8.66699 -11.5 14 -14.5s13.666 -4.5 24.999 -4.5c30 0 57.333 0.333008 82 1c21.333 0.666992 40.833 1.16699 58.5 1.5s27.5 0.5 29.5 0.5c9.33301 0 16.666 1.5 21.999 4.5
s9.33301 6.16699 12 9.5c2.66699 4 4.33398 8.66699 5.00098 14l11 -1c-1.33301 -19.333 -2.33301 -35.833 -3 -49.5s-1 -24.834 -1 -33.501v-24h-10c-4 7.33301 -8.5 12.5 -13.5 15.5s-13.167 4.16699 -24.5 3.5c-30.667 -0.666992 -58.334 -1.33398 -83.001 -2.00098
c-10.667 0 -21 -0.166992 -31 -0.5s-19.167 -0.5 -27.5 -0.5h-20.5h-9z" />
    <glyph glyph-name="twosuperior" unicode="&#xb2;" horiz-adv-x="162" 
d="M12 293c0 6.66699 0.829102 14.6729 2.49609 24.0059s3.83398 18.666 6.50098 27.999s6 18.5 10 27.5s8.66699 16.5 14 22.5l44 57c8 12.667 13 25 15 37s0.333008 22.667 -5 32c-4.66699 10 -9.66699 17 -15 21c-3.33301 2 -6.5 2 -9.5 0s-5.83301 -5 -8.5 -9
s-5 -8.5 -7 -13.5s-3.66699 -9.5 -5 -13.5c-5.33301 -14.667 -8.66602 -26 -9.99902 -34s3.66699 -13.333 15 -16l2 -7c-6 -1.33301 -12 -1.33301 -18 0c-5.33301 1.33301 -10.333 3.83301 -15 7.5s-8 10.167 -10 19.5c-2.66699 10.667 -2.66699 22.167 0 34.5
s9.33398 24.166 20.001 35.499l19 19c7.33301 7.33301 13 11.666 17 12.999c3.33301 1.33301 7.83301 1.66602 13.5 0.999023s10.5 -2.66699 14.5 -6c4.66699 -3.33301 11 -8.66602 19 -15.999s14.667 -17.333 20 -30c3.33301 -8.66699 5.33301 -21.5 6 -38.5
s-5.66602 -34.5 -18.999 -52.5c-7.33301 -10.667 -15 -21 -23 -31l-24 -29c-6 -7.33301 -10.5 -15.5 -13.5 -24.5s-5.5 -18.167 -7.5 -27.5l36 -3c6 -0.666992 11.333 -1.33398 16 -2.00098s9 -0.333984 13 0.999023s7.5 4.16602 10.5 8.49902s5.83301 11.166 8.5 20.499h5
c-2 -10 -3.33301 -19.167 -4 -27.5s-1 -15.5 -1 -21.5c0 -7.33301 0.333008 -13.666 1 -18.999l-131 13z" />
    <glyph glyph-name="threesuperior" unicode="&#xb3;" horiz-adv-x="162" 
d="M50 417c7.33301 9.33301 13 16.168 17 20.501s7.66699 8.5 11 12.5c10 13.333 15.5 25.666 16.5 36.999s-0.5 21.333 -4.5 30c-2 4.66699 -4.66699 9.5 -8 14.5s-5.66602 8.16699 -6.99902 9.5c-2 2 -4.66699 2 -8 0s-6.5 -5 -9.5 -9s-5.83301 -8.5 -8.5 -13.5l-7 -13.5
c-6 -13.333 -9 -24 -9 -32s4.66699 -13 14 -15l2 -8c-6 -1.33301 -11.333 -1.33301 -16 0c-4 1.33301 -8 3.83301 -12 7.5s-7 10.167 -9 19.5c-2.66699 11.333 -3 22.166 -1 32.499s7.33301 21.166 16 32.499c2 2.66699 4.83301 5.83398 8.5 9.50098l11 11
c3.66699 3.66699 7.16699 7 10.5 10s6 4.83301 8 5.5c3.33301 1.33301 8.16602 1.66602 14.499 0.999023s11.166 -2.66699 14.499 -6c4.66699 -3.33301 11.334 -9.66602 20.001 -18.999s14.334 -20.666 17.001 -33.999c3.33301 -16 3.66602 -31 0.999023 -45
s-10.667 -28.667 -24 -44l9 -9l4 -4l4 -4c6.66699 -8.66699 11.667 -16.667 15 -24s5.33301 -18.666 6 -33.999c0 -14.667 -2.16699 -29.334 -6.5 -44.001s-9.16602 -27 -14.499 -37c-8.66699 -16 -18.5 -26.833 -29.5 -32.5s-25.167 -7.83398 -42.5 -6.50098
c-5.33301 0.666992 -10.333 2 -15 4s-8.33398 2.33301 -11.001 1c-4 -2.66699 -7 -6.66699 -9 -12h-4c1.33301 9.33301 2.33301 19.333 3 30c0.666992 9.33301 1.16699 20 1.5 32s0.166016 24.667 -0.500977 38h6c1.33301 -8.66699 2.66602 -15.167 3.99902 -19.5
s3.66602 -10.166 6.99902 -17.499s7.33301 -14 12 -20s11 -8.33301 19 -7c6.66699 1.33301 11.334 4.33301 14.001 9s5.33398 10.667 8.00098 18c2.66699 9.33301 5.5 20.166 8.5 32.499s4.5 21.833 4.5 28.5c-0.666992 12 -3 21.333 -7 28s-8.66699 12.334 -14 17.001
c-4 3.33301 -8.66699 6.83301 -14 10.5s-10.666 6.5 -15.999 8.5z" />
    <glyph glyph-name="acute" unicode="&#xb4;" horiz-adv-x="156" 
d="M132 488l-98.001 -73.999h-33l89 100c8 9.33301 14.833 14.666 20.5 15.999s12.834 0 21.501 -4c10.667 -4.66699 16.5 -9.66699 17.5 -15s-4.83301 -13 -17.5 -23z" />
    <glyph glyph-name="mu" unicode="&#xb5;" horiz-adv-x="239" 
d="M238 362c2 1.33301 3.83398 2.6748 5.50098 4.00781s3.16699 1.33301 4.5 0c2 -0.666992 3 -1.83398 3 -3.50098v-5.5c-0.666992 -2.66699 -2.16699 -14.834 -4.5 -36.501l-8.5 -76.5l-10.5 -92l-9.5 -83l-5 -55c-0.666992 -7.33301 -0.333984 -14.5 0.999023 -21.5
s6.33301 -15.167 15 -24.5c0.666992 -0.666992 1 -1.66699 1 -3c0 -2.66699 -0.666992 -4.33398 -2 -5.00098c-2 -1.33301 -5.5 -1.33301 -10.5 0s-10.5 3.33301 -16.5 6s-11.667 5.66699 -17 9s-9.33301 6.66602 -12 9.99902
c-4.66699 5.33301 -9.33398 11.166 -14.001 17.499s-8.66699 14.5 -12 24.5l-33.5 -23.5c-13.667 -9.66699 -25.5 -17.5 -35.5 -23.5l-14 -94c-3.33301 -17.333 -11 -29.666 -23 -36.999s-23.667 -10.333 -35 -9l-39 5l2 9c10.667 4.66699 17.667 10.667 21 18
c2 3.33301 3 6.66602 3 9.99902l59 411c1.33301 3.33301 0.666016 5.66602 -2.00098 6.99902c-4 1.33301 -7.33301 2 -10 2h-7h-2c-1.33301 0 -2 1 -2 3c-0.666992 2.66699 0.666016 4.66699 3.99902 6c16.667 10.667 31.834 21 45.501 31s29.167 22 46.5 36
c1.33301 1.33301 3 2.66602 5 3.99902s3.66699 1.33301 5 0c2.66699 -2 3.33398 -5.33301 2.00098 -10c-0.666992 -2.66699 -2 -12 -4 -28s-5.66699 -38 -11 -66l-26 -184c-1.33301 -10.667 -2 -19.667 -2 -27s2 -15.666 6 -24.999c0.666992 -3.33301 3 -7 7 -11
c2 1.33301 6.66699 4.83301 14 10.5s14.333 11.834 21 18.501l30 203v6c0 1.33301 0.166992 2.66602 0.5 3.99902s0.5 2.66602 0.5 3.99902l-3 3h-2l-17 2h-2c-2 0 -3 1 -3 3c0 2.66699 1.33301 4.66699 4 6c8 5.33301 15.333 10.666 22 15.999s13.334 11 20.001 17l21 18
c7.33301 6 16 12.667 26 20z" />
    <glyph glyph-name="mu" unicode="&#x3bc;" horiz-adv-x="239" 
d="M238 362c2 1.33301 3.83398 2.6748 5.50098 4.00781s3.16699 1.33301 4.5 0c2 -0.666992 3 -1.83398 3 -3.50098v-5.5c-0.666992 -2.66699 -2.16699 -14.834 -4.5 -36.501l-8.5 -76.5l-10.5 -92l-9.5 -83l-5 -55c-0.666992 -7.33301 -0.333984 -14.5 0.999023 -21.5
s6.33301 -15.167 15 -24.5c0.666992 -0.666992 1 -1.66699 1 -3c0 -2.66699 -0.666992 -4.33398 -2 -5.00098c-2 -1.33301 -5.5 -1.33301 -10.5 0s-10.5 3.33301 -16.5 6s-11.667 5.66699 -17 9s-9.33301 6.66602 -12 9.99902
c-4.66699 5.33301 -9.33398 11.166 -14.001 17.499s-8.66699 14.5 -12 24.5l-33.5 -23.5c-13.667 -9.66699 -25.5 -17.5 -35.5 -23.5l-14 -94c-3.33301 -17.333 -11 -29.666 -23 -36.999s-23.667 -10.333 -35 -9l-39 5l2 9c10.667 4.66699 17.667 10.667 21 18
c2 3.33301 3 6.66602 3 9.99902l59 411c1.33301 3.33301 0.666016 5.66602 -2.00098 6.99902c-4 1.33301 -7.33301 2 -10 2h-7h-2c-1.33301 0 -2 1 -2 3c-0.666992 2.66699 0.666016 4.66699 3.99902 6c16.667 10.667 31.834 21 45.501 31s29.167 22 46.5 36
c1.33301 1.33301 3 2.66602 5 3.99902s3.66699 1.33301 5 0c2.66699 -2 3.33398 -5.33301 2.00098 -10c-0.666992 -2.66699 -2 -12 -4 -28s-5.66699 -38 -11 -66l-26 -184c-1.33301 -10.667 -2 -19.667 -2 -27s2 -15.666 6 -24.999c0.666992 -3.33301 3 -7 7 -11
c2 1.33301 6.66699 4.83301 14 10.5s14.333 11.834 21 18.501l30 203v6c0 1.33301 0.166992 2.66602 0.5 3.99902s0.5 2.66602 0.5 3.99902l-3 3h-2l-17 2h-2c-2 0 -3 1 -3 3c0 2.66699 1.33301 4.66699 4 6c8 5.33301 15.333 10.666 22 15.999s13.334 11 20.001 17l21 18
c7.33301 6 16 12.667 26 20z" />
    <glyph glyph-name="paragraph" unicode="&#xb6;" horiz-adv-x="273" 
d="M274 517l-0.00195312 -9.99902c-9.33301 0 -15.666 -1.66699 -18.999 -5s-6 -10.666 -8 -21.999c-1.33301 -11.333 -2.5 -30.5 -3.5 -57.5s-1.5 -57.5 -1.5 -91.5v-113c0 -27.333 -2.5 -62.166 -7.5 -104.499s-14.167 -86.166 -27.5 -131.499
c-5.33301 -18.667 -11.666 -34 -18.999 -46s-15.666 -21.667 -24.999 -29s-19.833 -12.5 -31.5 -15.5s-24.5 -4.5 -38.5 -4.5c-11.333 0 -21.333 2.16699 -30 6.5s-15.667 9.16602 -21 14.499c-9.33301 8 -18.333 16.833 -27 26.5s-13.334 17.167 -14.001 22.5
c-0.666992 4.66699 -0.666992 8.16699 0 10.5s1.66699 5.16602 3 8.49902c3.33301 9.33301 8.33301 14.666 15 15.999s12.667 2.33301 18 3h12c2.66699 0 4.66699 -0.333008 6 -1l49 -16l-2 -9c-2.66699 -0.666992 -6.5 -0.333984 -11.5 0.999023
s-10.5 2.66602 -16.5 3.99902s-11.833 1.66602 -17.5 0.999023s-10.5 -3.33398 -14.5 -8.00098c-3.33301 -3.33301 -4.33301 -6.16602 -3 -8.49902s2.66602 -4.16602 3.99902 -5.49902l24.5 -21.5c9 -7.66699 17.167 -11.5 24.5 -11.5c6 0 11.167 4.16699 15.5 12.5
s7.83301 17.833 10.5 28.5c4.66699 16.667 7.66699 42.334 9 77.001c0.666992 6.66699 1 17.5 1 32.5v57.5c0 6 0.166992 11.667 0.5 17s0.5 10.666 0.5 15.999v18.5v24.5c-32.667 4.66699 -59.167 15.834 -79.5 33.501s-31.166 42.834 -32.499 75.501
c0 10 0.166992 21.167 0.5 33.5s1.5 25 3.5 38s4.66699 25.833 8 38.5s8 23.667 14 33c8.66699 12.667 16.5 22.667 23.5 30s13.667 12.666 20 15.999s13 5.83301 20 7.5l23.5 5.5c6.66699 1.33301 12.667 2 18 2h31h95zM160.998 455.001
c-2 -17.333 -2.99707 -55.666 -2.99707 -114.999v-195c0 -80.667 -2 -135.334 -6 -164.001c-2 -14.667 -6.66699 -28.5 -14 -41.5s-15.666 -21.167 -24.999 -24.5c-1.33301 -1.33301 -1.83301 -2.5 -1.5 -3.5s1.16602 -1.5 2.49902 -1.5c10.667 -1.33301 21.167 3 31.5 13
s19.166 29 26.499 57c6 24 10.667 49.667 14 77s5.66602 53 6.99902 77s2 45.167 2 63.5v38.5c0 6.66699 -0.333008 19.334 -1 38.001s-1.5 38.167 -2.5 58.5s-1.83301 38.666 -2.5 54.999s-1 25.833 -1 28.5c0.666992 24.667 2.66699 43 6 55s7.66602 21.667 12.999 29h-27
c-10.667 -12.667 -17 -27.667 -19 -45z" />
    <glyph glyph-name="periodcentered" unicode="&#xb7;" horiz-adv-x="122" 
d="M49 281c12 5.33301 23.0029 6.5 33.0029 3.5s17.333 -10.833 22 -23.5c2 -6 2.83301 -12.833 2.5 -20.5s-1.83301 -15 -4.5 -22s-6.33398 -13.333 -11.001 -19s-10 -9.83398 -16 -12.501c-12.667 -5.33301 -24.334 -5.5 -35.001 -0.5s-18.334 13.833 -23.001 26.5
c-5.33301 12.667 -4.5 25.834 2.5 39.501s16.833 23.167 29.5 28.5z" />
    <glyph glyph-name="cedilla" unicode="&#xb8;" horiz-adv-x="140" 
d="M8 -73l20.002 -5.99902c8.66699 -2 17.5 -3.16699 26.5 -3.5s16.833 0.333984 23.5 2.00098s11.667 4.16699 15 7.5s3.66602 7.66602 0.999023 12.999c-6 12.667 -15 19.834 -27 21.501s-25 0.5 -39 -3.5c-1.33301 -0.666992 -2.83301 -0.333984 -4.5 0.999023
s-0.833984 3.66602 2.49902 6.99902l47 60h21l-30 -36c19.333 0.666992 32.833 -0.5 40.5 -3.5s13.167 -6.5 16.5 -10.5c4 -4.66699 7.5 -9.5 10.5 -14.5s4.5 -10.167 4.5 -15.5s-1 -11 -3 -17s-5.5 -11.5 -10.5 -16.5s-11.833 -9.33301 -20.5 -13s-20 -5.5 -34 -5.5
c-18 -0.666992 -32.5 1 -43.5 5l-24.5 9z" />
    <glyph glyph-name="onesuperior" unicode="&#xb9;" horiz-adv-x="100" 
d="M61 577c3.33301 1.33301 5.33496 2.00195 6.00195 2.00195c1.33301 0 2 -1.33301 2 -4v-122c0 -35.333 0.333008 -75 1 -119c0.666992 -9.33301 2.66699 -18.333 6 -27s9.66602 -15.667 18.999 -21v-5c-5.33301 1.33301 -11 2.66602 -17 3.99902
c-5.33301 1.33301 -10.833 2.5 -16.5 3.5s-10.834 1.83301 -15.501 2.5c-4 0 -8.33301 0.166992 -13 0.5s-9 0.5 -13 0.5h-14v4c5.33301 4 9.83301 9.66699 13.5 17s5.5 14.666 5.5 21.999l-1 183v7c-0.666992 1.33301 -1.16699 2 -1.5 2s-0.833008 0.333008 -1.5 1
c-2 2 -4.66699 3.33301 -8 4c-3.33301 0 -5 0.666992 -5 2c0 0.666992 0.666992 1.66699 2 3c9.33301 7.33301 17.5 13.5 24.5 18.5s15.833 12.167 26.5 21.5z" />
    <glyph glyph-name="ordmasculine" unicode="&#xba;" horiz-adv-x="180" 
d="M73 280c0 -6.66699 0.832031 -12.002 2.49902 -16.002s4.16699 -7.66699 7.5 -11s6 -6.16602 8 -8.49902s5 -2.5 9 -0.5c4.66699 2 7.5 4.83301 8.5 8.5s1.5 9.16699 1.5 16.5v132v28c0 7.33301 -0.166992 14.5 -0.5 21.5s-0.5 12.167 -0.5 15.5c0 6 -0.333008 11 -1 15
s-2.66699 8 -6 12c-1.33301 2 -2.83301 2.16699 -4.5 0.5s-4.16699 -3.5 -7.5 -5.5c-1.33301 -1.33301 -2.66602 -2.5 -3.99902 -3.5s-2.66602 -2.16699 -3.99902 -3.5c-2 -1.33301 -3.33301 -2.66602 -4 -3.99902c-4.66699 -3.33301 -7.33398 -9.5 -8.00098 -18.5
s-1 -16.167 -1 -21.5l2 -57c0.666992 -16 1 -33 1 -51s0.333008 -34.333 1 -49zM83.999 515.998c5.33301 3.33301 11.4971 5.17188 18.4971 5.50488s13.167 -2.16699 18.5 -7.5l27 -22c6.66699 -5.33301 10.5 -9.83301 11.5 -13.5s1.5 -8.83398 1.5 -15.501l4 -186
c0 -5.33301 -0.833008 -10.666 -2.5 -15.999s-4.5 -9.66602 -8.5 -12.999c-3.33301 -1.33301 -6.33301 -3 -9 -5c-2.66699 -1.33301 -5.16699 -2.83301 -7.5 -4.5l-6.5 -4.5c-8.66699 -5.33301 -18.334 -9.66602 -29.001 -12.999s-17.667 -4.33301 -21 -3
c-4 1.33301 -9 4.66602 -15 9.99902s-11.667 10.666 -17 15.999l-21 20c-5.33301 4.66699 -8.16602 11.167 -8.49902 19.5s-1.16602 20.166 -2.49902 35.499c-0.666992 10.667 -1.16699 22.5 -1.5 35.5s-0.5 25.167 -0.5 36.5c-0.666992 13.333 -1 26.666 -1 39.999
c0 9.33301 0.833008 19.666 2.5 30.999s6.83398 19.666 15.501 24.999l10 6c3.33301 1.33301 6.5 3 9.5 5s5.83301 3.66699 8.5 5l7 4.5c2.66699 1.66699 5.33398 3.16699 8.00098 4.5s5.66699 2.66602 9 3.99902z" />
    <glyph glyph-name="guillemotright" unicode="&#xbb;" horiz-adv-x="325" 
d="M187 241l-0.000976562 -9.00098l-151 -145c-6 -6 -10.833 -9.66699 -14.5 -11s-6.16699 -1.16602 -7.5 0.500977s-1.66602 4.16699 -0.999023 7.5s2 7 4 11l45 66l32.5 48l17.5 25v5c-0.666992 0.666992 -2.66699 3.16699 -6 7.5s-7.16602 9.83301 -11.499 16.5l-15 22.5
l-17.5 25.5l-45 67c-2 3.33301 -3.33301 6.66602 -4 9.99902s-0.333984 5.83301 0.999023 7.5s3.83301 1.83398 7.5 0.500977s8.5 -5 14.5 -11zM300.999 247.999l-0.000976562 -9.00098l-151 -145c-6 -6 -10.833 -9.66699 -14.5 -11s-6.16699 -1.16602 -7.5 0.500977
s-1.66602 4.16699 -0.999023 7.5s2 7 4 11l45 66l32.5 48l17.5 25v5c-0.666992 0.666992 -2.66699 3.16699 -6 7.5s-7.16602 9.83301 -11.499 16.5l-15 22.5l-17.5 25.5l-45 67c-2 3.33301 -3.33301 6.66602 -4 9.99902s-0.333984 5.83301 0.999023 7.5
s3.83301 1.83398 7.5 0.500977s8.5 -5 14.5 -11z" />
    <glyph glyph-name="onequarter" unicode="&#xbc;" horiz-adv-x="289" 
d="M128 69l1 0.00195312l-1 1c11.333 36 22.333 68.667 33 98c9.33301 25.333 18.833 49 28.5 71s17.5 35.667 23.5 41c2 1.33301 4.33301 3.16602 7 5.49902s5.33398 4.5 8.00098 6.5c2.66699 2.66699 6 5 10 7c0.666992 0.666992 1.66699 1.5 3 2.5
s2.66602 1.16699 3.99902 0.5c1.33301 0 2 -1.33301 2 -4l1 -220c6.66699 0.666992 11.334 3 14.001 7c1.33301 2 2 4 2 6h5v-24.5c0 -7 0.333008 -13.167 1 -18.5c0 -6 0.333008 -11.333 1 -16l-5 -1c-1.33301 2.66699 -3.33301 5.16699 -6 7.5
s-6.66699 3.16602 -12 2.49902v-39c0.666992 -9.33301 2.16699 -18.5 4.5 -27.5s7.16602 -16.167 14.499 -21.5v-4l-14 4c-4 1.33301 -8.66699 2.5 -14 3.5s-10.333 1.83301 -15 2.5h-26h-14v4c5.33301 4.66699 9.83301 10.5 13.5 17.5s5.5 14.5 5.5 22.5v35l-75 -5v36z
M265 589.002l-234 -655l-28 7l233 672zM65 578.002c3.33301 1.33301 5.33594 2.00293 6.00293 2.00293c1.33301 0 2 -1.33301 2 -4v-11.5v-27.5c0 -11.333 0.166992 -24.333 0.5 -39s0.5 -29.334 0.5 -44.001c0 -35.333 0.333008 -75 1 -119
c0 -9.33301 1.66699 -18.333 5 -27s9.66602 -15.667 18.999 -21v-5c-5.33301 1.33301 -11 2.66602 -17 3.99902c-5.33301 1.33301 -10.833 2.5 -16.5 3.5s-10.834 1.83301 -15.501 2.5c-4 0 -8.33301 0.166992 -13 0.5s-9 0.5 -13 0.5h-14v4
c5.33301 4 9.83301 9.66699 13.5 17s5.5 14.666 5.5 21.999l-1 183v3v4c-0.666992 1.33301 -1.16699 2 -1.5 2s-0.833008 0.333008 -1.5 1c-2 2 -4.66699 3.33301 -8 4c-2.66699 0 -4.33398 0.666992 -5.00098 2c0 0.666992 0.666992 1.66699 2 3
c9.33301 7.33301 17.5 13.5 24.5 18.5s15.833 12.167 26.5 21.5zM203.003 75.0049l0.000976562 145c-4.66699 -11.333 -9.5 -23.833 -14.5 -37.5l-14.5 -41c-4.66699 -13.667 -8.83398 -26.667 -12.501 -39l-9.5 -31.5z" />
    <glyph glyph-name="onehalf" unicode="&#xbd;" horiz-adv-x="296" 
d="M262 588l-233 -655l-29 7l234 672zM143 -27c0 6.66699 0.830078 14.6709 2.49707 24.0039s3.83398 18.666 6.50098 27.999s6 18.333 10 27s8.66699 16.334 14 23.001c2 2 5 5.5 9 10.5l12.5 16l13 17c4.33301 5.66699 7.5 10.167 9.5 13.5c18 25.333 21.667 48 11 68
c-2.66699 4.66699 -5.5 9 -8.5 13s-5.5 6.66699 -7.5 8c-3.33301 2 -6.5 2.16699 -9.5 0.5s-5.83301 -4.5 -8.5 -8.5s-5 -8.66699 -7 -14s-3.66699 -10 -5 -14c-5.33301 -14 -8.66602 -25.167 -9.99902 -33.5s3.66699 -13.5 15 -15.5l2 -8
c-6.66699 -1.33301 -12.667 -1 -18 1c-5.33301 1.33301 -10.166 3.83301 -14.499 7.5s-7.5 9.83398 -9.5 18.501c-3.33301 11.333 -3.66602 23.166 -0.999023 35.499s9.33398 23.833 20.001 34.5l19 19c7.33301 7.33301 13 11.666 17 12.999
c9.33301 3.33301 18.666 1.66602 27.999 -5.00098c5.33301 -3.33301 11.833 -8.66602 19.5 -15.999s14.167 -17.333 19.5 -30c2 -4 3.66699 -9.33301 5 -16s1.83301 -14 1.5 -22s-1.83301 -16.667 -4.5 -26s-7.33398 -18.333 -14.001 -27c-16 -21.333 -32 -41.333 -48 -60
c-6 -7.33301 -10.5 -15.333 -13.5 -24s-5.16699 -17.667 -6.5 -27l35 -4c6 -0.666992 11.333 -1.33398 16 -2.00098s9 -0.333984 13 0.999023s7.5 4.16602 10.5 8.49902s6.16699 11.166 9.5 20.499h5c-4 -20 -6 -36 -6 -48c0 -7.33301 0.333008 -13.666 1 -18.999l-131 12
h-2zM62.9971 577.004c1.33301 0.666992 2.33398 1.33496 3.00098 2.00195s1.66699 0.666992 3 0c1.33301 0 2 -1.33301 2 -4v-122c0 -35.333 0.333008 -75 1 -119c0 -9.33301 1.83301 -18.333 5.5 -27s10.167 -15.667 19.5 -21v-5l-18 4
c-5.33301 1.33301 -10.666 2.5 -15.999 3.5s-10.666 1.83301 -15.999 2.5c-4 0 -8.33301 0.166992 -13 0.5s-9 0.5 -13 0.5h-14l1 4c5.33301 4 9.66602 9.66699 12.999 17s5 14.666 5 21.999v183v3c0 1.33301 -0.166992 2.16602 -0.5 2.49902s-0.5 0.833008 -0.5 1.5
s-0.666992 1.66699 -2 3l-8 4c-3.33301 0 -5 0.666992 -5 2c-0.666992 0.666992 -0.333984 1.66699 0.999023 3c9.33301 7.33301 17.666 13.5 24.999 18.5s16.333 12.167 27 21.5z" />
    <glyph glyph-name="threequarters" unicode="&#xbe;" horiz-adv-x="328" 
d="M169 32l0.000976562 37.002c11.333 36 22.333 68.667 33 98c9.33301 25.333 18.666 49 27.999 71s17 35.667 23 41c2 1.33301 4.33301 3.16602 7 5.49902s5.33398 4.5 8.00098 6.5c2.66699 2.66699 6 5 10 7c0.666992 0.666992 1.66699 1.5 3 2.5
s2.66602 1.16699 3.99902 0.5c1.33301 0 2 -1.33301 2 -4l1 -220c6.66699 0.666992 11.334 3 14.001 7c1.33301 2 2 4 2 6h5v-24.5c0 -7 0.333008 -13.167 1 -18.5c0 -6 0.333008 -11.333 1 -16l-5 -1c-1.33301 2.66699 -3.33301 5.16699 -6 7.5
s-6.66699 3.16602 -12 2.49902l1 -39c0 -9.33301 1.16699 -18.5 3.5 -27.5s7.16602 -16.167 14.499 -21.5v-4l-14 4c-4 1.33301 -8.66699 2.5 -14 3.5s-10.333 1.83301 -15 2.5h-26h-14v4c5.33301 4.66699 9.83301 10.5 13.5 17.5s5.5 14.5 5.5 22.5v35zM305.001 588.002
l-233 -655l-29 7l233 672zM50.001 417.002c7.33301 9.33301 13 16.168 17 20.501s7.66699 8.5 11 12.5c10 13.333 15.5 25.666 16.5 36.999s-0.5 21.333 -4.5 30c-2 4.66699 -4.66699 9.5 -8 14.5s-5.66602 8.16699 -6.99902 9.5c-2 2 -4.66699 2 -8 0s-6.5 -5 -9.5 -9
s-5.83301 -8.5 -8.5 -13.5l-7 -13.5c-6 -13.333 -9 -24 -9 -32s4.66699 -13 14 -15l2 -8c-6 -1.33301 -11.333 -1.33301 -16 0c-4 1.33301 -8 3.83301 -12 7.5s-7 10.167 -9 19.5c-2.66699 11.333 -3 22.166 -1 32.499s7.33301 21.166 16 32.499
c2 2.66699 4.83301 5.83398 8.5 9.50098l11 11c3.66699 3.66699 7.16699 7 10.5 10s6 4.83301 8 5.5c3.33301 1.33301 8.16602 1.66602 14.499 0.999023s11.166 -2.66699 14.499 -6c4.66699 -3.33301 11.334 -9.66602 20.001 -18.999s14.334 -20.666 17.001 -33.999
c3.33301 -16 3.66602 -31 0.999023 -45s-10.667 -28.667 -24 -44l9 -9l4 -4l4 -4c6.66699 -8.66699 11.667 -16.667 15 -24s5.33301 -18.666 6 -33.999c0 -14.667 -2.16699 -29.334 -6.5 -44.001s-9.16602 -27 -14.499 -37c-8.66699 -16 -18.5 -26.833 -29.5 -32.5
s-25.167 -7.83398 -42.5 -6.50098c-5.33301 0.666992 -10.333 2 -15 4s-8.33398 2.33301 -11.001 1c-4 -2.66699 -7 -6.66699 -9 -12h-4c1.33301 9.33301 2.33301 19.333 3 30c0.666992 9.33301 1.16699 20 1.5 32s0.166016 24.667 -0.500977 38h6
c1.33301 -8.66699 2.66602 -15.167 3.99902 -19.5s3.66602 -10.166 6.99902 -17.499s7.33301 -14 12 -20s11 -8.33301 19 -7c6.66699 1.33301 11.334 4.33301 14.001 9s5.33398 10.667 8.00098 18c2.66699 9.33301 5.5 20.166 8.5 32.499s4.5 21.833 4.5 28.5
c-0.666992 12 -3 21.333 -7 28s-8.66699 12.334 -14 17.001c-4 3.33301 -8.66699 6.83301 -14 10.5s-10.666 6.5 -15.999 8.5zM243.001 74.0039l0.000976562 145c-4.66699 -11.333 -9.5 -23.833 -14.5 -37.5l-14.5 -41c-4.66699 -13.667 -8.83398 -26.667 -12.501 -39
l-9.5 -31.5z" />
    <glyph glyph-name="questiondown" unicode="&#xbf;" horiz-adv-x="246" 
d="M149 324c-12.667 -5.33301 -23.8301 -6.49707 -33.4971 -3.49707s-17.167 10.833 -22.5 23.5c-4.66699 12.667 -4.33398 26.667 0.999023 42s14.333 26 27 32c12 5.33301 23.5 5.66602 34.5 0.999023s19.167 -13.334 24.5 -26.001s4.66602 -25.834 -2.00098 -39.501
s-16.334 -23.5 -29.001 -29.5zM156.004 271.003c-1.33301 -25.333 -4.33301 -53.502 -9 -84.502s-13.334 -62.833 -26.001 -95.5l-17 -43c-4.66699 -11.333 -8.5 -21 -11.5 -29s-5 -14.833 -6 -20.5s-1.16699 -11.167 -0.5 -16.5l3 -10
c4.66699 -12.667 10.667 -21.167 18 -25.5s12 -7.16602 14 -8.49902c8.66699 -4 19.667 -1.66699 33 7s25.333 20 36 34c1.33301 1.33301 2.33301 3.83301 3 7.5s-1 7.16699 -5 10.5c-5.33301 4.66699 -10.5 7.16699 -15.5 7.5s-9.83301 -0.166992 -14.5 -1.5
s-8.83398 -3 -12.501 -5s-7.16699 -3 -10.5 -3l-4 11l35 20c2 0.666992 4.33301 1.33398 7 2.00098c2 0.666992 4.16699 1.33398 6.5 2.00098s4.83301 1 7.5 1c6.66699 0.666992 14.167 0.833984 22.5 0.500977s15.5 -5.5 21.5 -15.5c2.66699 -3.33301 4.66699 -6.5 6 -9.5
s2.33301 -7.16699 3 -12.5c0.666992 -6.66699 -3.16602 -16.834 -11.499 -30.501s-17.166 -26.5 -26.499 -38.5c-11.333 -14.667 -22.833 -27.834 -34.5 -39.501s-23.834 -18.834 -36.501 -21.501c-6 -1.33301 -13.333 0.166992 -22 4.5s-18 10.5 -28 18.5
s-20.167 17.833 -30.5 29.5s-20.5 24.5 -30.5 38.5c-3.33301 5.33301 -6.66602 9.66602 -9.99902 12.999s-5 8 -5 14c0 20.667 5.83301 45 17.5 73s25.167 57 40.5 87c13.333 26 24 51.333 32 76s13.667 47.667 17 69c0.666992 3.33301 2.16699 6 4.5 8
s4.83301 2.33301 7.5 1l18 -8c2.66699 -1.33301 5.66699 -3.66602 9 -6.99902s5 -6.66602 5 -9.99902z" />
    <glyph glyph-name="Agrave" unicode="&#xc0;" horiz-adv-x="291" 
d="M18 340l-19.0088 -12.0029c-5.33301 -3.33301 -8.66602 -6.66602 -9.99902 -9.99902c-2 -4.66699 -0.166992 -10.167 5.5 -16.5s13.167 -12.166 22.5 -17.499c6 -4 14.667 -5 26 -3c-1.33301 6 -2.83301 13.167 -4.5 21.5s-3.16699 16.166 -4.5 23.499l-6 26v2v2
c1.33301 0 2.33301 -0.333008 3 -1s1 -1.33398 1 -2.00098l24 -38c0 -0.666992 0.333008 -1.33398 1 -2.00098c0.666992 -1.33301 1.33398 -1.66602 2.00098 -0.999023c0.666992 0 1 1 1 3v3l-11 99c-1.33301 8.66699 -4.33301 15.667 -9 21
c-2.66699 2.66699 -5 4.66699 -7 6c4 4.66699 8 10 12 16l11.5 15.5l12.5 16.5c16.667 21.333 35.667 37.833 57 49.5s40 18.167 56 19.5l50 4.5c18 1.66699 39 5.83398 63 12.501c1.33301 0.666992 3 0 5 -2c0.666992 -1.33301 -1 -4 -5 -8
c-6.66699 -6.66699 -12.5 -16 -17.5 -28s-7.5 -22.667 -7.5 -32l2 -117c6 0.666992 11.667 0.833984 17 0.500977s9.66602 -0.5 12.999 -0.5c4 -0.666992 8 -1.5 12 -2.5s7.66699 -2.16699 11 -3.5l10 -5c-3.33301 -0.666992 -6.66602 -1.66699 -9.99902 -3
s-7.16602 -2.33301 -11.499 -3s-8.83301 -1.66699 -13.5 -3c-6 -1.33301 -11.167 -2.66602 -15.5 -3.99902s-8.16602 -2.66602 -11.499 -3.99902l6 -312c3.33301 -12 8.33301 -24.333 15 -37s15 -22.667 25 -30l-2 -7c-8.66699 2 -18 4.33301 -28 7l-29 4.5
c-10.667 1.66699 -21.667 2.5 -33 2.5c-6.66699 0 -12.834 -0.166992 -18.501 -0.5s-10.834 -0.833008 -15.501 -1.5c-5.33301 -0.666992 -10.666 -1 -15.999 -1l1 6c8.66699 7.33301 14.834 15.833 18.501 25.5s5.16699 23.167 4.5 40.5v266
c-13.333 -7.33301 -25.666 -14.833 -36.999 -22.5l-28 -19.5v-7c1.33301 -18.667 2.5 -38.667 3.5 -60s2.16699 -41.666 3.5 -60.999l4 -67v-3c0 -2.66699 -0.666992 -4 -2 -4c-0.666992 0 -1.66699 1.33301 -3 4c-0.666992 1.33301 -1 2.66602 -1 3.99902
c-0.666992 4.66699 -1.66699 9 -3 13c-1.33301 3.33301 -2.33301 7.16602 -3 11.499s-1.66699 8.16602 -3 11.499l-8 25c-0.666992 1.33301 -1.33398 3 -2.00098 5s-1.66699 2.66699 -3 2c-2 0 -3 -1 -3 -3v-2l9 -255v-2l-1 -2c-1.33301 0 -2 0.666992 -2 2
c-0.666992 0.666992 -1 1.33398 -1 2.00098c-1.33301 6.66699 -2.66602 13 -3.99902 19c-1.33301 5.33301 -2.5 10.333 -3.5 15s-2.16699 8.66699 -3.5 12c-2.66699 5.33301 -4.33398 9 -5.00098 11s-2 2.66699 -4 2c-2.66699 -0.666992 -4 -3.66699 -4 -9l-14 -194v-2
c0 -1.33301 -0.666992 -2 -2 -2c-2 0 -3 1.66699 -3 5l-10 119.5c-2.66699 31.667 -5 58.167 -7 79.5s-3.83301 39.166 -5.5 53.499s-3.5 28.833 -5.5 43.5c-1.33301 8 -2.5 14.333 -3.5 19s-2.16699 8.83398 -3.5 12.501s-2.5 7.5 -3.5 11.5s-2.16699 9.66699 -3.5 17
l-5 20v4l5 -3l21 -21c1.33301 -1.33301 2.5 -2.66602 3.5 -3.99902s2.16699 -1.33301 3.5 0c0.666992 0 0.833984 1.16699 0.500977 3.5s-0.5 4.16602 -0.5 5.49902l-13 121c-0.666992 0.666992 -1 1.66699 -1 3s-0.166992 2.5 -0.5 3.5s-0.5 2.16699 -0.5 3.5
c-13.333 -0.666992 -26.166 1.83301 -38.499 7.5s-23.166 16.5 -32.499 32.5c-4 6 -7.5 11.667 -10.5 17s-4.5 11.333 -4.5 18c0.666992 8 3.33398 13 8.00098 15s11.334 3.33301 20.001 4c8.66699 1.33301 17.667 1 27 -1zM131.991 332.997
c8.66699 6.66699 19.332 13 31.999 19l36 17v157c-14.667 -3.33301 -24 -7 -28 -11c-12.667 -10 -22 -19 -28 -27s-10.167 -17.5 -12.5 -28.5s-3.16602 -24.333 -2.49902 -40s1.66699 -36.5 3 -62.5v-24zM85.9893 660.997c-12.667 10 -18.668 17.666 -18.001 22.999
s6.66699 10.333 18 15c8.66699 4 15.834 5.33301 21.501 4s12.5 -6.66602 20.5 -15.999l89 -100h-33z" />
    <glyph glyph-name="Aacute" unicode="&#xc1;" horiz-adv-x="291" 
d="M18 340l-19.0088 -12.0029c-5.33301 -3.33301 -8.66602 -6.66602 -9.99902 -9.99902c-2 -4.66699 -0.166992 -10.167 5.5 -16.5s13.167 -12.166 22.5 -17.499c6 -4 14.667 -5 26 -3c-1.33301 6 -2.83301 13.167 -4.5 21.5s-3.16699 16.166 -4.5 23.499l-6 26v2v2
c1.33301 0 2.33301 -0.333008 3 -1s1 -1.33398 1 -2.00098l24 -38c0 -0.666992 0.333008 -1.33398 1 -2.00098c0.666992 -1.33301 1.33398 -1.66602 2.00098 -0.999023c0.666992 0 1 1 1 3v3l-11 99c-1.33301 8.66699 -4.33301 15.667 -9 21
c-2.66699 2.66699 -5 4.66699 -7 6c4 4.66699 8 10 12 16l11.5 15.5l12.5 16.5c16.667 21.333 35.667 37.833 57 49.5s40 18.167 56 19.5l50 4.5c18 1.66699 39 5.83398 63 12.501c1.33301 0.666992 3 0 5 -2c0.666992 -1.33301 -1 -4 -5 -8
c-6.66699 -6.66699 -12.5 -16 -17.5 -28s-7.5 -22.667 -7.5 -32l2 -117c6 0.666992 11.667 0.833984 17 0.500977s9.66602 -0.5 12.999 -0.5c4 -0.666992 8 -1.5 12 -2.5s7.66699 -2.16699 11 -3.5l10 -5c-3.33301 -0.666992 -6.66602 -1.66699 -9.99902 -3
s-7.16602 -2.33301 -11.499 -3s-8.83301 -1.66699 -13.5 -3c-6 -1.33301 -11.167 -2.66602 -15.5 -3.99902s-8.16602 -2.66602 -11.499 -3.99902l6 -312c3.33301 -12 8.33301 -24.333 15 -37s15 -22.667 25 -30l-2 -7c-8.66699 2 -18 4.33301 -28 7l-29 4.5
c-10.667 1.66699 -21.667 2.5 -33 2.5c-6.66699 0 -12.834 -0.166992 -18.501 -0.5s-10.834 -0.833008 -15.501 -1.5c-5.33301 -0.666992 -10.666 -1 -15.999 -1l1 6c8.66699 7.33301 14.834 15.833 18.501 25.5s5.16699 23.167 4.5 40.5v266
c-13.333 -7.33301 -25.666 -14.833 -36.999 -22.5l-28 -19.5v-7c1.33301 -18.667 2.5 -38.667 3.5 -60s2.16699 -41.666 3.5 -60.999l4 -67v-3c0 -2.66699 -0.666992 -4 -2 -4c-0.666992 0 -1.66699 1.33301 -3 4c-0.666992 1.33301 -1 2.66602 -1 3.99902
c-0.666992 4.66699 -1.66699 9 -3 13c-1.33301 3.33301 -2.33301 7.16602 -3 11.499s-1.66699 8.16602 -3 11.499l-8 25c-0.666992 1.33301 -1.33398 3 -2.00098 5s-1.66699 2.66699 -3 2c-2 0 -3 -1 -3 -3v-2l9 -255v-2l-1 -2c-1.33301 0 -2 0.666992 -2 2
c-0.666992 0.666992 -1 1.33398 -1 2.00098c-1.33301 6.66699 -2.66602 13 -3.99902 19c-1.33301 5.33301 -2.5 10.333 -3.5 15s-2.16699 8.66699 -3.5 12c-2.66699 5.33301 -4.33398 9 -5.00098 11s-2 2.66699 -4 2c-2.66699 -0.666992 -4 -3.66699 -4 -9l-14 -194v-2
c0 -1.33301 -0.666992 -2 -2 -2c-2 0 -3 1.66699 -3 5l-10 119.5c-2.66699 31.667 -5 58.167 -7 79.5s-3.83301 39.166 -5.5 53.499s-3.5 28.833 -5.5 43.5c-1.33301 8 -2.5 14.333 -3.5 19s-2.16699 8.83398 -3.5 12.501s-2.5 7.5 -3.5 11.5s-2.16699 9.66699 -3.5 17
l-5 20v4l5 -3l21 -21c1.33301 -1.33301 2.5 -2.66602 3.5 -3.99902s2.16699 -1.33301 3.5 0c0.666992 0 0.833984 1.16699 0.500977 3.5s-0.5 4.16602 -0.5 5.49902l-13 121c-0.666992 0.666992 -1 1.66699 -1 3s-0.166992 2.5 -0.5 3.5s-0.5 2.16699 -0.5 3.5
c-13.333 -0.666992 -26.166 1.83301 -38.499 7.5s-23.166 16.5 -32.499 32.5c-4 6 -7.5 11.667 -10.5 17s-4.5 11.333 -4.5 18c0.666992 8 3.33398 13 8.00098 15s11.334 3.33301 20.001 4c8.66699 1.33301 17.667 1 27 -1zM131.991 332.997
c8.66699 6.66699 19.332 13 31.999 19l36 17v157c-14.667 -3.33301 -24 -7 -28 -11c-12.667 -10 -22 -19 -28 -27s-10.167 -17.5 -12.5 -28.5s-3.16602 -24.333 -2.49902 -40s1.66699 -36.5 3 -62.5v-24zM137.989 568.997l-33.001 0.000976562l89 100
c8 9.33301 14.833 14.666 20.5 15.999s12.834 0 21.501 -4c10.667 -4.66699 16.5 -9.66699 17.5 -15s-4.83301 -13 -17.5 -23z" />
    </font>
</defs>
</svg>
