<svg xmlns="http://www.w3.org/2000/svg" viewBox="0 0 512 512"><path d="M470.71 0H41.29a8.256 8.256 0 0 0-8.258 8.258v495.484A8.256 8.256 0 0 0 41.29 512h374.366c2.19 0 4.29-.87 5.84-2.418l55.054-55.053a8.26 8.26 0 0 0 2.418-5.84V8.258A8.257 8.257 0 0 0 470.71 0zm-46.796 483.806v-26.86h26.86l-26.86 26.86zm38.538-43.376h-46.796a8.256 8.256 0 0 0-8.258 8.258v46.796H49.548V16.516h412.903V440.43z"/><path d="M256 99.097c-104.731 0-189.935 85.204-189.935 189.935S151.269 478.968 256 478.968s189.935-85.205 189.935-189.935S360.731 99.097 256 99.097zm173.218 181.677h-16.532a155.758 155.758 0 0 0-16.881-62.923l14.315-8.265c11.135 21.511 17.894 45.634 19.098 71.188zm-134.06-4.814l36.106-20.846a82.071 82.071 0 0 1 7.317 33.918 82.083 82.083 0 0 1-7.317 33.919l-36.106-20.846a41.108 41.108 0 0 0 0-26.145zm27.827 61.282c-13.492 18.693-34.587 31.549-58.727 33.957v-41.708c8.921-1.818 16.798-6.526 22.624-13.093l36.103 20.844zm14.373 8.299l35.837 20.69c-23.717 35.883-63.452 60.287-108.937 62.939v-41.387c30.237-2.508 56.661-18.648 73.1-42.242zm8.282-14.29c6.06-12.815 9.457-27.127 9.457-42.219 0-15.091-3.397-29.403-9.457-42.219l35.838-20.69c9.532 18.935 14.91 40.304 14.91 62.909 0 22.605-5.378 43.975-14.91 62.909l-35.838-20.69zm4.097-188.061a174.828 174.828 0 0 1 52.104 52.105l-14.323 8.269a158.151 158.151 0 0 0-46.05-46.051l8.269-14.323zm-85.479-27.377c25.554 1.205 49.677 7.964 71.188 19.097l-8.265 14.315a155.789 155.789 0 0 0-62.923-16.88v-16.532zm0 33.082c45.485 2.651 85.22 27.056 108.937 62.94l-35.837 20.69c-16.439-23.596-42.863-39.736-73.1-42.243v-41.387zm0 57.97c24.14 2.408 45.235 15.264 58.727 33.957l-36.102 20.844c-5.827-6.568-13.704-11.276-22.625-13.094v-41.707zm-16.516-91.051v16.532a155.758 155.758 0 0 0-62.923 16.881l-8.265-14.315c21.512-11.133 45.634-17.893 71.188-19.098zm-30.9 186.29l-36.106 20.846a82.06 82.06 0 0 1-7.317-33.918c0-4.173.315-8.369.938-12.469a8.257 8.257 0 0 0-6.926-9.403c-4.497-.677-8.718 2.415-9.403 6.926a99.834 99.834 0 0 0-1.124 14.946c0 15.091 3.397 29.403 9.457 42.219l-35.838 20.69c-9.533-18.934-14.911-40.304-14.911-62.909 0-22.605 5.378-43.975 14.91-62.909l86.32 49.837a41.102 41.102 0 0 0 0 26.144zm-27.848-61.292c13.832-19.147 35.317-31.559 58.748-33.94v41.701c-8.921 1.818-16.798 6.526-22.625 13.094l-36.123-20.855zm-14.354-8.287l-35.836-20.69c23.717-35.884 63.452-60.288 108.937-62.94v41.404c-29.313 2.478-56.236 18.03-73.101 42.226zm-12.377-89.333l8.269 14.323a158.151 158.151 0 0 0-46.05 46.051l-14.323-8.269a174.782 174.782 0 0 1 52.104-52.105zm-60.384 66.394l14.315 8.265a155.774 155.774 0 0 0-16.881 62.923H82.782c1.204-25.554 7.963-49.677 19.097-71.188zM82.782 297.29h16.531a155.758 155.758 0 0 0 16.881 62.923l-14.315 8.265c-11.134-21.51-17.893-45.634-19.097-71.188zm79.481 137.584a174.817 174.817 0 0 1-52.104-52.105l14.323-8.269a158.151 158.151 0 0 0 46.05 46.051l-8.269 14.323zm85.479 27.377c-25.554-1.205-49.677-7.964-71.188-19.097l8.265-14.315a155.772 155.772 0 0 0 62.923 16.879v16.533zm0-33.082c-45.485-2.651-85.22-27.056-108.937-62.94l35.837-20.69c16.438 23.596 42.863 39.736 73.1 42.243v41.387zm0-57.97c-24.14-2.408-45.235-15.264-58.727-33.957l36.102-20.843c5.827 6.567 13.704 11.275 22.625 13.093v41.707zm-16.516-82.167c0-13.66 11.114-24.774 24.774-24.774s24.774 11.114 24.774 24.774S269.66 313.806 256 313.806s-24.774-11.114-24.774-24.774zm33.032 173.218v-16.532a155.758 155.758 0 0 0 62.923-16.881l8.265 14.315c-21.512 11.134-45.634 17.894-71.188 19.098zm85.479-27.377l-8.269-14.323a158.16 158.16 0 0 0 46.05-46.05l14.323 8.269a174.813 174.813 0 0 1-52.104 52.104zm46.069-74.659a155.774 155.774 0 0 0 16.881-62.923h16.532c-1.205 25.554-7.964 49.677-19.097 71.188l-14.316-8.265zM140.387 66.065H74.323c-4.562 0-8.258 3.696-8.258 8.258s3.696 8.258 8.258 8.258h66.065c4.562 0 8.258-3.696 8.258-8.258s-3.697-8.258-8.259-8.258zm-33.032 33.032H74.323a8.256 8.256 0 0 0-8.258 8.258 8.256 8.256 0 0 0 8.258 8.258h33.032a8.256 8.256 0 0 0 8.258-8.258 8.256 8.256 0 0 0-8.258-8.258zm330.322-33.032h-66.065c-4.562 0-8.258 3.696-8.258 8.258s3.696 8.258 8.258 8.258h66.065c4.562 0 8.258-3.696 8.258-8.258s-3.696-8.258-8.258-8.258zm-33.032 33.032h-33.032a8.256 8.256 0 0 0-8.258 8.258 8.256 8.256 0 0 0 8.258 8.258h33.032a8.256 8.256 0 0 0 8.258-8.258 8.256 8.256 0 0 0-8.258-8.258zm-73.44-37.038l-23.123-23.123a8.26 8.26 0 0 0-11.679 0L279.12 56.22l-17.282-17.284a8.26 8.26 0 0 0-11.679 0L232.876 56.22l-17.282-17.284a8.26 8.26 0 0 0-11.679 0l-23.123 23.123a8.258 8.258 0 0 0 11.679 11.679l17.282-17.284 17.282 17.284a8.26 8.26 0 0 0 11.679 0l17.282-17.284 17.282 17.284a8.26 8.26 0 0 0 11.679 0l17.283-17.284 17.282 17.284a8.237 8.237 0 0 0 5.84 2.418 8.237 8.237 0 0 0 5.84-2.418 8.256 8.256 0 0 0 .003-11.679z"/></svg>