<svg xmlns="http://www.w3.org/2000/svg" viewBox="0 0 512 512"><path d="M503.742 495.484h-8.258V229.805c9.611-3.409 16.516-12.589 16.516-23.354 0-13.66-11.114-24.774-24.774-24.774H460.96c-5.827-48.485-28.668-93.249-64.859-126.738C357.815 19.511 308.059 0 256 0c-52.06 0-101.816 19.512-140.103 54.94-36.189 33.49-59.03 78.254-64.857 126.737H24.774C11.114 181.677 0 192.792 0 206.452c0 10.765 6.905 19.945 16.516 23.354v265.678H8.258c-4.562 0-8.258 3.696-8.258 8.258S3.696 512 8.258 512h495.484c4.562 0 8.258-3.696 8.258-8.258s-3.696-8.258-8.258-8.258zM256 16.516c95.033 0 176.064 71.846 188.324 165.161h-16.678c-5.711-39.725-25.099-76.269-55.098-103.541C340.553 49.051 299.162 33.032 256 33.032c-43.226 0-84.663 16.06-116.677 45.221-29.932 27.265-49.27 63.758-54.972 103.424H67.678C79.937 88.362 160.966 16.516 256 16.516zm0 49.549c-68.225 0-126.386 49.208-138.2 115.613h-16.746C113.031 105.735 178.098 49.548 256 49.548c77.843 0 142.961 56.209 154.947 132.129H394.2C382.387 115.273 324.225 66.065 256 66.065zm121.39 115.612H134.61C146.183 124.566 196.797 82.58 256 82.58s109.817 41.988 121.39 99.097zM49.548 495.484H33.032V231.226h16.516v264.258zm181.678 0H66.065V287.237a207.108 207.108 0 0 0 43.993 65.108c32.759 32.77 75.539 53.562 121.168 59.067v84.072zm.001-100.702c-85.569-11.1-152.457-77.994-163.556-163.556h50.143c10.275 57.87 55.542 103.137 113.412 113.413v16.739c-58.458-9.283-106.928-50.772-124.918-107.856a8.257 8.257 0 0 0-10.359-5.394 8.257 8.257 0 0 0-5.393 10.358c10.127 32.133 29.329 60.492 55.531 82.014 24.597 20.205 53.899 33.106 85.141 37.591v16.691zm-96.606-163.556h96.605v96.605c-48.702-9.842-86.765-47.905-96.605-96.605zm129.637 264.258h-16.516V231.226h16.516v264.258zm181.677 0H280.774v-84.072c45.626-5.504 88.405-26.295 121.163-59.063a207.117 207.117 0 0 0 43.998-65.112v208.247zm-29.884-247.357a8.258 8.258 0 0 0-10.358 5.393c-17.981 57.053-66.469 98.569-124.918 107.856v-16.739c57.87-10.275 103.137-55.542 113.412-113.412h50.142c-11.098 85.563-77.987 152.457-163.555 163.556v-16.688c31.301-4.493 60.656-17.442 85.276-37.706 26.131-21.508 45.286-49.829 55.395-81.902a8.257 8.257 0 0 0-5.394-10.358zm-135.277 79.704v-96.605h96.605c-9.841 48.7-47.904 86.765-96.605 96.605zm198.194 167.653h-16.516V231.226h16.516v264.258zm8.258-280.774H24.774c-4.554 0-8.258-3.704-8.258-8.258 0-4.554 3.704-8.258 8.258-8.258h462.452c4.554 0 8.258 3.704 8.258 8.258 0 4.554-3.704 8.258-8.258 8.258z"/><circle cx="305.89" cy="143.69" r="8.258"/><circle cx="272.857" cy="121.669" r="8.258"/></svg>