<svg xmlns="http://www.w3.org/2000/svg" viewBox="0 0 511.997 511.997"><path d="M385.409 495.481h-3.584c-3.836-18.824-20.518-33.032-40.459-33.032H311.52l-11.323-33.744a8.257 8.257 0 0 0-7.829-5.631h-11.561v-16.687c22.236-.864 44.651-5.363 66.42-13.822l1.169 2.689a8.26 8.26 0 0 0 7.578 4.968c1.099 0 2.216-.22 3.288-.687a8.257 8.257 0 0 0 4.281-10.865l-14.349-33.001c82.461-40.573 119.413-139.555 82.387-224.705C404.03 67.597 341.572 26.655 272.464 26.655c-21.073 0-41.693 3.807-61.414 11.313L196.701 4.97c-1.818-4.184-6.685-6.103-10.866-4.281a8.257 8.257 0 0 0-4.28 10.865l1.168 2.687C135.881 36.832 99.767 75.694 80.55 124.483c-20.232 51.362-19.284 107.459 2.671 157.951 32.564 74.892 104.478 120.752 181.069 123.939v16.701h-11.561a8.258 8.258 0 0 0-7.829 5.631l-11.323 33.744h-29.844c-19.94 0-36.623 14.208-40.459 33.032h-3.584a8.257 8.257 0 0 0-8.258 8.258 8.257 8.257 0 0 0 8.258 8.258h225.719a8.256 8.256 0 0 0 8.258-8.258 8.257 8.257 0 0 0-8.258-8.258zm-42.811-154.97l-37.452-86.132c11.927-7.133 21.129-17.919 26.307-31.061 5.177-13.142 5.803-27.309 1.944-40.658l86.132-37.452c28.062 74.987-5.267 159.598-76.931 195.303zM227.015 210.909c-2.211-9.242-1.562-18.921 1.993-27.945 4.582-11.631 13.418-20.779 24.88-25.763 5.945-2.585 12.213-3.896 18.632-3.896a46.81 46.81 0 0 1 38.973 20.871l-84.478 36.733zm91.063-21.59c2.211 9.242 1.562 18.921-1.993 27.945-4.58 11.631-13.418 20.779-24.88 25.764-5.944 2.585-12.213 3.895-18.631 3.895a46.809 46.809 0 0 1-38.974-20.871l84.478-36.733zm-45.502 74.12c5.934 0 11.764-.845 17.424-2.477l37.455 86.139c-17.624 6.61-36.027 9.957-54.823 9.957-59.764 0-114.008-33.854-140.459-86.903l86.11-37.442a63.314 63.314 0 0 0 54.293 30.726zM209.982 56.225c19.924-8.662 40.945-13.054 62.481-13.054 59.763 0 114.008 33.853 140.456 86.901l-86.11 37.442c-11.34-18.894-31.851-30.726-54.291-30.726-5.935 0-11.765.846-17.425 2.479l-27.659-63.612c-1.818-4.184-6.686-6.102-10.866-4.281a8.257 8.257 0 0 0-4.28 10.865l27.659 63.611c-11.926 7.132-21.129 17.918-26.307 31.06-5.177 13.142-5.803 27.309-1.945 40.658l-86.132 37.452c-13.641-36.385-13.348-75.988.999-112.41 15.36-38.995 44.986-69.673 83.42-86.385zM98.366 275.851c-20.196-46.448-21.067-98.055-2.451-145.314 17.601-44.681 50.596-80.316 93.397-101.14l6.59 15.155c-38.833 19.08-68.742 51.476-84.706 92.004-16.977 43.099-16.155 90.228 2.317 132.707 27.552 63.366 90.011 104.309 159.119 104.309 21.074 0 41.694-3.807 61.414-11.315l6.589 15.154c-94.274 36.262-201.612-8.056-242.269-101.56zm82.011 219.633c3.409-9.611 12.587-16.516 23.354-16.516h35.785c3.549 0 6.7-2.267 7.829-5.631l11.323-33.744h27.759l7.671 22.859h-21.55c-4.561 0-8.258 3.696-8.258 8.258s3.697 8.258 8.258 8.258h68.817c10.765 0 19.945 6.905 23.354 16.516H180.377z"/><circle cx="272.754" cy="81.689" r="8.258"/><circle cx="305.786" cy="103.71" r="8.258"/><circle cx="239.722" cy="317.063" r="8.258"/><circle cx="206.69" cy="295.042" r="8.258"/><circle cx="367.072" cy="233.217" r="8.258"/><circle cx="162.438" cy="200.108" r="8.258"/></svg>