<svg xmlns="http://www.w3.org/2000/svg" viewBox="0 0 512 512"><path d="M487.226 115.613c-13.661 0-24.774 11.114-24.774 24.774 0 10.765 6.905 19.945 16.516 23.354v125.291c0 13.66-11.113 24.774-24.774 24.774H303.51l-3.303-16.516h.937c4.561 0 8.258-3.696 8.258-8.258s-3.697-8.258-8.258-8.258h-4.24l-3.303-16.516h78.012c22.768 0 41.29-18.522 41.29-41.29v-42.122c18.824-3.836 33.032-20.519 33.032-40.459 0-22.768-18.522-41.29-41.29-41.29s-41.29 18.522-41.29 41.29c0 19.94 14.208 36.623 33.032 40.459v42.122c0 13.66-11.113 24.774-24.774 24.774h-90.839v-19.979c38.081-10.814 66.065-45.877 66.065-87.376 0-50.088-40.75-90.839-90.839-90.839s-90.839 40.751-90.839 90.839c0 41.498 27.984 76.563 66.065 87.376v19.979h-13.763a8.257 8.257 0 0 0-8.258 8.258 8.257 8.257 0 0 0 8.258 8.258h.937l-3.303 16.516h-74.709c-13.661 0-24.774-11.114-24.774-24.774v-75.154c18.824-3.836 33.032-20.519 33.032-40.459 0-22.768-18.522-41.29-41.29-41.29s-41.29 18.522-41.29 41.29c0 19.94 14.208 36.623 33.032 40.459V256c0 22.768 18.522 41.29 41.29 41.29h71.406l-3.303 16.516h-4.24c-4.561 0-8.258 3.696-8.258 8.258s3.697 8.258 8.258 8.258h.937l-3.303 16.516H57.806c-13.661 0-24.774-11.114-24.774-24.774V163.741c9.611-3.409 16.516-12.589 16.516-23.354 0-13.66-11.113-24.774-24.774-24.774C11.113 115.613 0 126.727 0 140.387c0 10.765 6.905 19.945 16.516 23.354v158.324c0 22.768 18.522 41.29 41.29 41.29H198.58l-9.91 49.548h-9.746c-13.661 0-24.774 11.114-24.774 24.774v8.258h-2.753c-4.561 0-8.258 3.696-8.258 8.258s3.697 8.258 8.258 8.258h209.204c4.561 0 8.258-3.696 8.258-8.258s-3.697-8.258-8.258-8.258h-2.753v-8.258c0-13.66-11.113-24.774-24.774-24.774h-9.746l-9.91-49.548h.937c4.561 0 8.258-3.696 8.258-8.258s-3.697-8.258-8.258-8.258h-4.24l-3.303-16.516h147.38c22.768 0 41.29-18.522 41.29-41.29V163.741c9.611-3.409 16.516-12.589 16.516-23.354.002-13.66-11.111-24.774-24.772-24.774zm-107.355 24.774c0-13.66 11.113-24.774 24.774-24.774 13.661 0 24.774 11.114 24.774 24.774s-11.113 24.774-24.774 24.774c-13.661 0-24.774-11.114-24.774-24.774zm-272.516 24.774c-13.661 0-24.774-11.114-24.774-24.774s11.113-24.774 24.774-24.774c13.661 0 24.774 11.114 24.774 24.774s-11.113 24.774-24.774 24.774zm-82.581-16.516c-4.554 0-8.258-3.704-8.258-8.258 0-4.554 3.704-8.258 8.258-8.258 4.554 0 8.258 3.704 8.258 8.258 0 4.554-3.704 8.258-8.258 8.258zm156.903-8.258c0-40.982 33.341-74.323 74.323-74.323 40.982 0 74.323 33.341 74.323 74.323 0 40.982-33.341 74.323-74.323 74.323-40.982 0-74.323-33.341-74.323-74.323zm95.081 123.871l3.303 16.516h-48.12l3.303-16.516h41.514zm-29.016-16.516v-16.908c2.722.247 5.472.392 8.258.392s5.536-.145 8.258-.392v16.908h-16.516zm-19.105 49.548h54.727l3.303 16.516h-61.333l3.303-16.516zm-6.607 33.033h67.94l3.303 16.516h-74.546l3.303-16.516zm94.496 99.096h16.549c4.554 0 8.258 3.704 8.258 8.258v8.258H170.667v-8.258c0-4.554 3.704-8.258 8.258-8.258h60.559c4.561 0 8.258-3.696 8.258-8.258s-3.697-8.258-8.258-8.258h-33.969l9.91-49.548h81.153l9.909 49.548h-33.969c-4.561 0-8.258 3.696-8.258 8.258s3.697 8.258 8.258 8.258h44.008zm170.7-280.774c-4.554 0-8.258-3.704-8.258-8.258 0-4.554 3.704-8.258 8.258-8.258s8.258 3.704 8.258 8.258c0 4.554-3.704 8.258-8.258 8.258z"/></svg>