<svg xmlns="http://www.w3.org/2000/svg" viewBox="0 0 512 512"><path d="M503.742 214.71h-24.943c-.833-22.763-5.092-44.663-12.28-65.203a8.241 8.241 0 0 0-.588-1.667c-9.663-26.92-24.366-51.454-42.965-72.471a8.283 8.283 0 0 0-1.713-1.93C380.426 28.362 321.463.001 256 .001c-65.461 0-124.422 28.359-165.248 73.434a8.298 8.298 0 0 0-1.724 1.942c-18.615 21.035-33.326 45.597-42.987 72.547a8.12 8.12 0 0 0-.519 1.471c-7.212 20.573-11.485 42.51-12.32 65.315H8.258A8.257 8.257 0 0 0 0 222.968v280.774A8.257 8.257 0 0 0 8.258 512h495.484a8.257 8.257 0 0 0 8.258-8.258V222.967a8.257 8.257 0 0 0-8.258-8.257zm-41.47 0h-69.29c-.417-18.869-2.255-37.335-5.438-55.054h64.963c5.639 17.459 9.009 35.925 9.765 55.054zm-15.884-71.57h-62.246c-4.584-19.633-10.879-38.152-18.754-55.054h46.786a206.861 206.861 0 0 1 34.214 55.054zm-75.63 16.516c3.336 17.638 5.269 36.114 5.705 55.054h-69.297c-.141-18.885-.762-37.356-1.84-55.054h65.432zm-66.59-16.516c-1.561-19.692-3.706-38.219-6.391-55.054h49.243c8.475 16.645 15.247 35.193 20.153 55.054h-63.005zm92.031-71.57h-39.307a216.275 216.275 0 0 0-2.717-4.673c-9.503-15.839-20.223-29.047-31.831-39.445 27.727 9.435 52.815 24.621 73.855 44.118zm-58.545 0h-42.792c-.133-.682-.264-1.37-.399-2.044-4.252-21.261-9.174-37.528-14.826-48.981 21.493 7.406 41.489 24.873 58.017 51.025zm-48.875 88.086c1.093 17.661 1.726 36.134 1.87 55.054H221.35c.144-18.92.777-37.393 1.871-55.054h65.558zm-64.382-16.516c1.599-19.786 3.798-38.331 6.554-55.054h50.099c2.756 16.723 4.956 35.267 6.554 55.054h-63.207zM256 16.517c2.307 0 12.741 9.402 22.02 55.054h-44.042c9.281-45.652 19.715-55.054 22.022-55.054zm-23.638 4.029c-5.651 11.452-10.573 27.722-14.824 48.98-.135.675-.266 1.363-.4 2.045h-42.792c16.528-26.152 36.524-43.619 58.016-51.025zm-64.815 139.109h39.128c-1.078 17.698-1.699 36.169-1.84 55.054h-69.298c.484-21.01 2.809-41.453 6.849-60.81.17-.534.288-1.091.346-1.667 4.998-23.301 12.494-44.986 22.249-64.146h49.243c-2.684 16.834-4.829 35.362-6.391 55.054h-40.286c-4.561 0-8.258 3.696-8.258 8.258s3.698 8.257 8.258 8.257zM189.63 27.461c-11.599 10.394-22.308 23.607-31.806 39.436a216.249 216.249 0 0 0-2.716 4.673h-39.307c21.033-19.491 46.111-34.674 73.829-44.109zM99.826 88.087h46.786c-7.875 16.902-14.169 35.421-18.753 55.054H65.612a206.83 206.83 0 0 1 34.214-55.054zm-40.334 71.569h64.963c-3.183 17.718-5.021 36.185-5.438 55.054h-69.29c.757-19.129 4.127-37.595 9.765-55.054zm105.669 335.828h-82.58V330.323h82.581v165.161zm0-181.677h-82.58v-16.516h82.581v16.516zm165.162 181.677H181.677v-16.516h148.645v16.516zm0-33.032h-66.065V355.097c0-4.562-3.697-8.258-8.258-8.258s-8.258 3.696-8.258 8.258v107.355h-66.065V330.323h148.645v132.129zm0-148.645H181.677v-16.516h148.645v16.516zm99.096 181.677h-82.581V330.323h82.581v165.161zm0-181.677h-82.581v-16.516h82.581v16.516zm66.065 181.677h-49.548V289.033a8.257 8.257 0 0 0-8.258-8.258H74.323a8.257 8.257 0 0 0-8.258 8.258v206.452H16.516V231.226h478.968v264.258z"/></svg>