<svg xmlns="http://www.w3.org/2000/svg" viewBox="0 0 512.001 512.001"><path d="M379.127 500.314l-32.158-70.535c3.723-.802 6.514-4.107 6.514-8.07a8.256 8.256 0 0 0-8.258-8.258h-5.7l-42.977-94.264a8.26 8.26 0 0 0-7.514-4.833H264.26V297.84h24.774c13.66 0 24.774-11.114 24.774-24.774s-11.114-24.774-24.774-24.774h-2.753V214.9h2.753a8.256 8.256 0 0 0 8.258-8.258 8.256 8.256 0 0 0-8.258-8.258h-99.096a8.256 8.256 0 0 0-8.258 8.258 8.256 8.256 0 0 0 8.258 8.258h35.785v33.391h-2.753c-13.66 0-24.774 11.114-24.774 24.774s11.114 24.774 24.774 24.774h24.774v16.516H222.97a8.258 8.258 0 0 0-7.514 4.833l-42.979 94.264h-5.7a8.256 8.256 0 0 0-8.258 8.258c0 3.963 2.791 7.269 6.514 8.07l-32.159 70.535a8.257 8.257 0 0 0 4.088 10.94 8.26 8.26 0 0 0 10.94-4.088l35.197-77.197h64.644v73.772a8.256 8.256 0 0 0 8.258 8.258 8.256 8.256 0 0 0 8.258-8.258V429.97h64.644l35.197 77.197a8.26 8.26 0 0 0 7.519 4.835 8.26 8.26 0 0 0 7.508-11.688zm-95.405-169.442l7.53 16.516h-26.994v-16.516h19.464zM242.237 214.9h27.527v33.391h-27.527V214.9zm-19.269 66.424c-4.554 0-8.258-3.704-8.258-8.258s3.704-8.258 8.258-8.258h66.064c4.554 0 8.258 3.704 8.258 8.258s-3.704 8.258-8.258 8.258h-66.064zm5.311 49.548h19.464v16.516h-26.994l7.53-16.516zm27.806 82.58c-.029 0-.056-.004-.085-.004-.029 0-.056.004-.085.004h-65.287l22.591-49.548h34.523v24.77a8.256 8.256 0 0 0 8.258 8.258 8.256 8.256 0 0 0 8.258-8.258v-24.77h34.523l22.591 49.548h-65.287zM503.741 49.548H371.613a8.256 8.256 0 0 0-8.258 8.258v8.066H181.678V49.548h46.796a8.256 8.256 0 0 0 8.258-8.258V8.258A8.256 8.256 0 0 0 228.474 0H118.367a8.256 8.256 0 0 0-8.258 8.258v8.258h-30.28a8.256 8.256 0 0 0-8.258 8.258 8.256 8.256 0 0 0 8.258 8.258h30.279v8.258a8.256 8.256 0 0 0 8.258 8.258h46.795v16.324h-46.795a8.256 8.256 0 0 0-8.258 8.258v8.116H49.55V24.44a8.256 8.256 0 0 0-8.258-8.258H8.26A8.256 8.256 0 0 0 .002 24.44v99.43a8.256 8.256 0 0 0 8.258 8.258h24.774v25.108a8.256 8.256 0 0 0 8.258 8.258h68.817v8.116a8.256 8.256 0 0 0 8.258 8.258h244.988v8.066a8.256 8.256 0 0 0 8.258 8.258h132.128a8.256 8.256 0 0 0 8.258-8.258V57.806a8.256 8.256 0 0 0-8.258-8.258zM33.034 115.612H16.518V65.398h16.516v50.214zm0-66.731H16.518V32.698h16.516v16.183zm77.075 100.096H49.55V98.763h60.559v50.214zm16.516-115.945V16.516h93.591v16.516h-93.591zm236.73 132.32h-236.73V82.389h236.73v82.963zm132.128 16.325h-82.58V112.86a8.256 8.256 0 0 0-8.258-8.258 8.256 8.256 0 0 0-8.258 8.258v68.817h-16.516V66.064h16.516v13.763a8.256 8.256 0 0 0 8.258 8.258 8.256 8.256 0 0 0 8.258-8.258V66.064h82.58v115.613z"/></svg>