<svg xmlns="http://www.w3.org/2000/svg" viewBox="0 0 512 512"><path d="M256.001 115.614c-22.768 0-41.291 18.522-41.291 41.291s18.522 41.291 41.291 41.291c22.768 0 41.291-18.522 41.291-41.291s-18.524-41.291-41.291-41.291zm0 66.065c-13.66 0-24.774-11.114-24.774-24.774s11.114-24.774 24.774-24.774 24.774 11.114 24.774 24.774-11.114 24.774-24.774 24.774z"/><path d="M498.239 313.808h-2.753v-66.065h2.753c4.562 0 8.258-3.696 8.258-8.258s-3.696-8.258-8.258-8.258h-2.909c-2.049-60.872-26.708-117.803-69.988-161.084-27.112-27.112-59.582-46.911-95.019-58.433V8.541a8.256 8.256 0 0 0-16.371-1.515C295.219 2.392 275.794 0 256.001 0c-19.926 0-39.479 2.419-58.328 7.114-1.165-3.147-4.185-5.394-7.737-5.394a8.256 8.256 0 0 0-8.258 8.258v1.731C146.24 23.231 113.77 43.031 86.659 70.142 43.378 113.425 18.72 170.355 16.67 231.227h-2.909c-4.562 0-8.258 3.696-8.258 8.258s3.696 8.258 8.258 8.258h2.753v66.065h-2.753a8.256 8.256 0 0 0-8.258 8.258 8.256 8.256 0 0 0 8.258 8.258h2.753v173.417a8.256 8.256 0 0 0 8.258 8.258h462.455a8.256 8.256 0 0 0 8.258-8.258V330.325h2.753a8.256 8.256 0 0 0 8.258-8.258 8.258 8.258 0 0 0-8.257-8.259zM330.324 115.614h49.549v90.839a8.256 8.256 0 0 0 8.258 8.258 8.256 8.256 0 0 0 8.258-8.258v-99.097a8.256 8.256 0 0 0-8.258-8.258h-57.807V29.27C414.366 59.071 475.385 137.917 478.8 231.227H330.324V115.614zm-132.13-91.483a222.517 222.517 0 0 1 57.807-7.615 222.48 222.48 0 0 1 57.807 7.615v41.934H198.194V24.131zm0 58.45h115.614v148.646H198.194V82.581zM181.678 29.27v69.827h-57.807a8.256 8.256 0 0 0-8.258 8.258v99.097a8.256 8.256 0 0 0 8.258 8.258 8.256 8.256 0 0 0 8.258-8.258v-90.839h49.549v115.614H33.2c3.415-93.31 64.435-172.156 148.478-201.957zm132.129 466.214H198.194v-115.61h115.614v115.61zm165.163 0H330.324V371.615a8.256 8.256 0 0 0-8.258-8.258h-132.13a8.256 8.256 0 0 0-8.258 8.258v123.868H33.031V330.325H82.58v8.258c0 4.562 3.696 8.258 8.258 8.258s8.258-3.696 8.258-8.258v-8.258h49.549v8.258a8.256 8.256 0 0 0 8.258 8.258 8.256 8.256 0 0 0 8.258-8.258v-8.258h49.549v8.258a8.256 8.256 0 0 0 8.258 8.258 8.256 8.256 0 0 0 8.258-8.258v-8.258h49.549v8.258a8.256 8.256 0 0 0 8.258 8.258 8.256 8.256 0 0 0 8.258-8.258v-8.258h49.549v8.258a8.256 8.256 0 0 0 8.258 8.258 8.256 8.256 0 0 0 8.258-8.258v-8.258h49.549v8.258a8.256 8.256 0 0 0 8.258 8.258 8.256 8.256 0 0 0 8.258-8.258v-8.258h49.549v165.159zm0-231.224H140.387c-4.562 0-8.258 3.696-8.258 8.258s3.696 8.258 8.258 8.258H478.97v33.032H33.031v-33.032h74.323c4.562 0 8.258-3.696 8.258-8.258s-3.696-8.258-8.258-8.258H33.031v-16.516H478.97v16.516z"/></svg>