<svg xmlns="http://www.w3.org/2000/svg" viewBox="0 0 512 512"><path d="M510.555 170.141a8.253 8.253 0 0 0-6.813-3.594h-96.013L297.16 70.557V41.29a8.256 8.256 0 0 0-8.258-8.258h-24.644V8.258A8.256 8.256 0 0 0 256 0a8.257 8.257 0 0 0-8.258 8.258v24.774h-24.644a8.257 8.257 0 0 0-8.258 8.258v29.267l-110.569 95.992H8.258a8.258 8.258 0 0 0-7.699 11.247c19.767 50.921 53.989 94.412 98.967 125.771 29.024 20.236 61.258 34.45 95.232 42.199l-25.875 40.712h-39.507c-4.561 0-8.258 3.696-8.258 8.258s3.697 8.258 8.258 8.258h2.753v100.748a8.257 8.257 0 0 0 8.258 8.258h231.226a8.256 8.256 0 0 0 8.258-8.258V402.994h2.753c4.562 0 8.258-3.696 8.258-8.258s-3.696-8.258-8.258-8.258h-39.507l-25.875-40.712c33.974-7.748 66.208-21.962 95.232-42.199 44.978-31.36 79.2-74.85 98.966-125.773a8.252 8.252 0 0 0-.885-7.653zM231.356 49.548h49.289v16.516h-49.289V49.548zm49.288 33.033v16.516h-16.386V82.581h16.386zm-49.288 0h16.386v16.516h-16.386V82.581zm-16.516 9.847v14.927a8.257 8.257 0 0 0 8.258 8.258h65.805a8.256 8.256 0 0 0 8.258-8.258V92.428l85.376 74.12H264.258v-26.16A8.256 8.256 0 0 0 256 132.13a8.257 8.257 0 0 0-8.258 8.258v26.162H129.463l85.377-74.122zm-2.656 256.712a275.837 275.837 0 0 0 35.558 3.356v33.981h-59.289l23.731-37.337zm151.171 53.854v92.49h-214.71v-92.49h214.71zm-39.808-16.517h-59.289v-33.981a276.015 276.015 0 0 0 35.558-3.356l23.731 37.337zM256 336.114c-103 0-194.106-59.673-235.378-153.05h470.757C450.106 276.44 359.001 336.114 256 336.114z"/><path d="M206.452 419.51H173.42a8.257 8.257 0 0 0-8.258 8.258V460.8a8.257 8.257 0 0 0 8.258 8.258 8.257 8.257 0 0 0 8.258-8.258v-24.774h16.516V460.8a8.257 8.257 0 0 0 8.258 8.258 8.257 8.257 0 0 0 8.258-8.258v-33.032a8.258 8.258 0 0 0-8.258-8.258zm66.064 0h-33.032a8.257 8.257 0 0 0-8.258 8.258V460.8c0 4.562 3.697 8.258 8.258 8.258s8.258-3.696 8.258-8.258v-24.774h16.516V460.8c0 4.562 3.696 8.258 8.258 8.258s8.258-3.696 8.258-8.258v-33.032a8.256 8.256 0 0 0-8.258-8.258zm66.065 0h-33.032a8.256 8.256 0 0 0-8.258 8.258V460.8c0 4.562 3.696 8.258 8.258 8.258s8.258-3.696 8.258-8.258v-24.774h16.516V460.8a8.256 8.256 0 0 0 8.258 8.258 8.256 8.256 0 0 0 8.258-8.258v-33.032a8.257 8.257 0 0 0-8.258-8.258z"/></svg>