<svg xmlns="http://www.w3.org/2000/svg" viewBox="0 0 512 512"><path d="M503.742 99.097H371.613a8.257 8.257 0 0 0-8.258 8.258v140.387h-27.527V41.29c0-22.768-18.522-41.29-41.29-41.29h-77.075c-22.768 0-41.29 18.522-41.29 41.29v206.452h-27.527V107.355a8.257 8.257 0 0 0-8.258-8.258H8.258A8.257 8.257 0 0 0 0 107.355v297.29a8.257 8.257 0 0 0 8.258 8.258h132.129a8.257 8.257 0 0 0 8.258-8.258V264.258h27.527v33.032h-2.753a8.257 8.257 0 0 0-8.258 8.258v189.935h-2.753c-4.561 0-8.258 3.696-8.258 8.258s3.697 8.258 8.258 8.258h187.183c4.561 0 8.258-3.696 8.258-8.258s-3.697-8.258-8.258-8.258h-2.753V305.548a8.257 8.257 0 0 0-8.258-8.258h-2.753v-33.032h27.527v140.387a8.257 8.257 0 0 0 8.258 8.258h132.129a8.257 8.257 0 0 0 8.258-8.258v-297.29a8.256 8.256 0 0 0-8.257-8.258zM82.581 115.613h16.516v49.548H82.581v-49.548zm-33.033 0h16.516v49.548H49.548v-49.548zm0 66.064h16.516v49.548H49.548v-49.548zm-33.032-66.064h16.516v49.548H16.516v-49.548zm0 66.064h16.516v49.548H16.516v-49.548zm0 99.097h16.516v49.548H16.516v-49.548zm49.549 115.613H49.548v-24.774a8.257 8.257 0 0 0-8.258-8.258 8.257 8.257 0 0 0-8.258 8.258v24.774H16.516v-49.548h49.548v49.548zm0-66.064H49.548v-49.548h16.516v49.548zm33.032 66.064H82.581v-49.548h16.516v49.548zm0-66.064H82.581v-49.548h16.516v49.548zm33.032 66.064h-16.516v-49.548h16.516v49.548zm0-66.064h-16.516v-49.548h16.516v49.548zm0-66.065H16.516v-16.516h115.613v16.516zm0-33.032h-16.516v-24.774a8.257 8.257 0 0 0-8.258-8.258 8.257 8.257 0 0 0-8.258 8.258v24.774H82.581v-49.548h49.548v49.548zm0-66.065h-16.516v-49.548h16.516v49.548zM192.688 41.29c0-13.66 11.113-24.774 24.774-24.774h77.075c13.661 0 24.774 11.114 24.774 24.774v57.806H192.688V41.29zm0 74.323h126.624V297.29H192.688V115.613zm137.635 379.871H181.677v-82.581h16.516a8.257 8.257 0 0 0 8.258-8.258 8.257 8.257 0 0 0-8.258-8.258h-16.516v-82.581h66.065v82.581h-16.516a8.257 8.257 0 0 0-8.258 8.258 8.257 8.257 0 0 0 8.258 8.258h99.097v82.581zm0-99.097h-66.065v-82.581h66.065v82.581zm115.612-280.774h16.516v49.548h-16.516v-49.548zm-33.032 0h16.516v49.548h-16.516v-49.548zm0 66.064h49.548v49.548h-16.516v-24.774c0-4.562-3.697-8.258-8.258-8.258s-8.258 3.696-8.258 8.258v24.774h-16.516v-49.548zm-33.032-66.064h16.516v49.548h-16.516v-49.548zm0 66.064h16.516v49.548h-16.516v-49.548zm16.516 214.71h-16.516v-49.548h16.516v49.548zm0-66.064h-16.516v-49.548h16.516v49.548zm33.032 66.064h-16.516v-49.548h16.516v49.548zm0-66.064h-16.516v-49.548h16.516v49.548zm33.033 66.064h-16.516v-49.548h16.516v49.548zm0-66.064h-16.516v-49.548h16.516v49.548zm33.032 66.064h-16.516v-49.548h16.516v49.548zm0-66.064h-16.516v-49.548h16.516v49.548zm0-66.065H379.871v-16.516h115.613v16.516zm0-33.032h-16.516v-49.548h16.516v49.548zm0-66.065h-16.516v-49.548h16.516v49.548z"/><circle cx="297.29" cy="335.828" r="8.258"/><circle cx="297.29" cy="374.366" r="8.258"/><path d="M294.538 66.065h-77.075c-4.561 0-8.258 3.696-8.258 8.258s3.697 8.258 8.258 8.258h77.075c4.561 0 8.258-3.696 8.258-8.258s-3.698-8.258-8.258-8.258z"/></svg>