<svg xmlns="http://www.w3.org/2000/svg" viewBox="0 0 512 512"><circle cx="327.57" cy="256" r="8.258"/><path d="M503.742 214.71a8.257 8.257 0 0 0 8.258-8.258V41.29a8.257 8.257 0 0 0-8.258-8.258H382.624a8.257 8.257 0 0 0-8.258 8.258v165.161a8.257 8.257 0 0 0 8.258 8.258h13.763v16.516H367.44c-3.409-9.611-12.587-16.516-23.354-16.516H286.28v-38.538h30.28a8.257 8.257 0 0 0 8.258-8.258v-33.032a8.257 8.257 0 0 0-8.258-8.258H195.441a8.257 8.257 0 0 0-8.258 8.258v33.032a8.257 8.257 0 0 0 8.258 8.258h30.28v38.538h-57.806c-10.765 0-19.945 6.905-23.354 16.516h-28.947V214.71h13.763a8.257 8.257 0 0 0 8.258-8.258V41.29a8.257 8.257 0 0 0-8.258-8.258H8.258A8.258 8.258 0 0 0 0 41.29v165.161a8.257 8.257 0 0 0 8.258 8.258h13.763v82.581H8.258A8.257 8.257 0 0 0 0 305.548V470.71a8.257 8.257 0 0 0 8.258 8.258h121.118a8.257 8.257 0 0 0 8.258-8.258V305.548a8.257 8.257 0 0 0-8.258-8.258h-13.763v-16.516h28.947c3.409 9.611 12.588 16.516 23.354 16.516h46.796v46.796c0 .407.04.805.097 1.197.011.075.021.149.034.222.068.394.161.78.283 1.153.01.04 7.397 22.202 7.397 22.202h-27.08a8.257 8.257 0 0 0-8.258 8.258v33.032a8.257 8.257 0 0 0 8.258 8.258h121.118a8.257 8.257 0 0 0 8.258-8.258v-33.032a8.257 8.257 0 0 0-8.258-8.258h-27.08l7.387-22.162c.132-.413.225-.798.293-1.193.013-.074.023-.148.034-.222.057-.392.097-.789.097-1.197V297.29h46.796c10.765 0 19.945-6.905 23.354-16.516h28.947v16.516h-13.763a8.257 8.257 0 0 0-8.258 8.258V470.71a8.257 8.257 0 0 0 8.258 8.258h121.118A8.257 8.257 0 0 0 512 470.71V305.548a8.257 8.257 0 0 0-8.258-8.258h-13.763v-82.58h13.763zM93.591 49.548h27.527v148.645H93.591V49.548zm5.506 165.162v16.516H38.538V214.71h60.559zM60.559 49.548h16.516v148.645H60.559V49.548zM16.516 198.194V49.548h27.527v148.645H16.516zm22.022 82.58h60.559v16.516H38.538v-16.516zm5.505 181.678H16.516V313.806h27.527v148.646zm33.032 0H60.559V313.806h16.516v148.646zm44.043-148.646v148.645H93.591V313.806h27.527zm22.022-49.548H38.538v-16.516H143.14v16.516zm60.559-104.602V143.14h104.602v16.516H203.699zm66.064 16.516v38.538h-27.527v-38.538h27.527zm38.538 209.204v16.516H203.699v-16.516h104.602zm-73.875-33.032h43.15l-5.505 16.516h-32.139l-5.506-16.516zm117.918-79.828c0 4.554-3.704 8.258-8.258 8.258h-71.57c-4.561 0-8.258 3.696-8.258 8.258s3.697 8.258 8.258 8.258h8.258v38.538h-49.548V297.29h8.258c4.561 0 8.258-3.696 8.258-8.258s-3.697-8.258-8.258-8.258h-71.57c-4.554 0-8.258-3.704-8.258-8.258v-33.032c0-4.554 3.704-8.258 8.258-8.258h176.172c4.554 0 8.258 3.704 8.258 8.258v33.032zm38.538-74.322V49.548h27.527v24.774c0 4.562 3.697 8.258 8.258 8.258s8.258-3.696 8.258-8.258V49.548h16.516v148.645h-16.516v-90.839c0-4.562-3.697-8.258-8.258-8.258s-8.258 3.696-8.258 8.258v90.839h-27.527zm82.58 16.516v16.516h-60.559V214.71h60.559zM368.86 264.258v-16.516h104.602v16.516H368.86zm104.602 16.516v16.516h-60.559v-16.516h60.559zm-55.053 181.678h-27.527V313.806h27.527v148.646zm33.032 0h-16.516V313.806h16.516v148.646zm44.043-148.646v148.645h-27.527V313.806h27.527zm-27.527-115.612V49.548h27.527v148.645h-27.527z"/></svg>