<svg xmlns="http://www.w3.org/2000/svg" viewBox="0 0 512 512"><path d="M503.742 335.828H379.871V189.936a8.277 8.277 0 0 0-.711-3.354l-37.335-84.004c-3.876-8.721-12.915-15.95-22.512-18.742v-26.03a8.256 8.256 0 0 0-8.258-8.258H200.947a8.256 8.256 0 0 0-8.258 8.258v26.028c-9.598 2.793-18.637 10.023-22.511 18.742l-37.335 84.004a8.26 8.26 0 0 0-.711 3.354v145.892H8.258A8.256 8.256 0 0 0 0 344.084v110.108a8.256 8.256 0 0 0 8.258 8.258h495.484a8.256 8.256 0 0 0 8.258-8.258V344.086a8.256 8.256 0 0 0-8.258-8.258zM88.086 445.935H60.559v-30.28c0-4.562-3.696-8.258-8.258-8.258s-8.258 3.696-8.258 8.258v30.28H16.516v-93.591h27.527v30.28c0 4.562 3.696 8.258 8.258 8.258s8.258-3.696 8.258-8.258v-30.28h27.527v93.591zm44.043 0h-27.527v-93.591h27.527v93.591zm77.075-379.87h93.591v16.516h-93.591V66.065zm-23.935 43.22c2.37-5.333 9.841-10.188 15.677-10.188h110.108c5.836 0 13.308 4.856 15.677 10.188l32.174 72.392h-67.12v-41.29c0-13.66-11.114-24.774-24.774-24.774H244.99c-13.66 0-24.774 11.114-24.774 24.774v41.29h-67.12l32.173-72.392zm90 31.102v41.29h-38.538v-41.29c0-4.554 3.704-8.258 8.258-8.258h22.021c4.555 0 8.259 3.704 8.259 8.258zm88.086 305.548h-49.548v-16.516h49.548v16.516zm0-33.032h-68.817c-4.562 0-8.258 3.696-8.258 8.258s3.696 8.258 8.258 8.258h2.753v16.516H192.688v-57.806c0-4.562-3.696-8.258-8.258-8.258s-8.258 3.696-8.258 8.258v57.806h-27.527V198.194H297.29v16.516h-2.753a8.256 8.256 0 0 0-8.258 8.258 8.256 8.256 0 0 0 8.258 8.258h68.817v181.677zm0-198.193h-49.548v-16.516h49.548v16.516zm44.043 231.225h-27.527v-93.591h27.527v93.591zm44.043 0h-27.527v-93.591h27.527v93.591zm44.043 0h-27.527v-93.591h27.527v93.591z"/><path d="M305.548 247.742A8.256 8.256 0 0 0 297.29 256v132.129c0 4.562 3.696 8.258 8.258 8.258s8.258-3.696 8.258-8.258V256a8.256 8.256 0 0 0-8.258-8.258z"/></svg>