<svg xmlns="http://www.w3.org/2000/svg" viewBox="0 0 512 512"><path d="M503.742 352.344H379.871v-79.828c0-23.951-8.397-47.364-23.77-66.602 15.367-23.692 23.77-52.566 23.77-82.043 0-30.797-9.171-60.936-25.875-85.193V8.258A8.256 8.256 0 0 0 345.738 0H166.262a8.256 8.256 0 0 0-8.258 8.258v30.419c-16.704 24.258-25.875 54.396-25.875 85.193 0 29.477 8.403 58.352 23.77 82.043-15.373 19.238-23.77 42.651-23.77 66.602v79.828H8.258A8.256 8.256 0 0 0 0 360.601V470.71a8.256 8.256 0 0 0 8.258 8.258h120.671l-7.387 22.162a8.26 8.26 0 0 0 7.834 10.87h253.247a8.256 8.256 0 0 0 7.834-10.87l-7.387-22.162h120.671a8.256 8.256 0 0 0 8.258-8.258V360.602a8.255 8.255 0 0 0-8.257-8.258zM88.086 462.452H60.559v-30.28c0-4.562-3.696-8.258-8.258-8.258s-8.258 3.696-8.258 8.258v30.28H16.516V368.86h27.527v30.28c0 4.562 3.696 8.258 8.258 8.258s8.258-3.696 8.258-8.258v-30.28h27.527v93.592zm44.043 0h-27.527V368.86h27.527v93.592zM174.52 16.516h162.96v16.516H174.52V16.516zm-25.875 107.355c0-26.844 7.781-53.059 21.961-74.323h170.787c14.181 21.264 21.962 47.478 21.962 74.323s-7.781 53.059-21.961 74.323H170.606c-14.18-21.264-21.961-47.479-21.961-74.323zm0 211.957h24.774c4.562 0 8.258-3.696 8.258-8.258s-3.696-8.258-8.258-8.258h-24.774v-46.796c0-20.819 7.583-41.207 21.408-57.806h171.893c13.825 16.6 21.408 36.987 21.408 57.806v46.796h-16.516v-46.796a8.256 8.256 0 0 0-8.258-8.258h-44.043a8.256 8.256 0 0 0-8.258 8.258v46.796h-79.828c-4.562 0-8.258 3.696-8.258 8.258s3.696 8.258 8.258 8.258h156.903v93.591h-214.71v-93.591zm181.678-55.054v38.538h-27.527v-38.538h27.527zm-189.49 214.71l7.388-22.162c.132-.412.225-.798.293-1.193.013-.074.023-.148.034-.222.057-.392.097-.789.097-1.197v-24.774h214.71v24.774c0 .407.04.805.097 1.197.011.075.021.149.034.222.068.394.161.78.284 1.154.01.039 7.398 22.201 7.398 22.201H140.833zm266.565-33.032h-27.527V368.86h27.527v93.592zm44.043 0h-27.527V368.86h27.527v93.592zm44.043 0h-27.527V368.86h27.527v93.592z"/><path d="M256 82.581c-22.768 0-41.29 18.522-41.29 41.29s18.522 41.29 41.29 41.29 41.29-18.522 41.29-41.29-18.522-41.29-41.29-41.29zm0 66.064c-13.66 0-24.774-11.114-24.774-24.774S242.34 99.097 256 99.097s24.774 11.114 24.774 24.774S269.66 148.645 256 148.645zm82.581 313.807H173.419a8.256 8.256 0 0 0-8.258 8.258 8.256 8.256 0 0 0 8.258 8.258H338.58a8.256 8.256 0 0 0 8.258-8.258 8.256 8.256 0 0 0-8.257-8.258z"/></svg>