<svg xmlns="http://www.w3.org/2000/svg" viewBox="0 0 512 512"><circle cx="283.527" cy="104.052" r="8.258"/><path d="M217.462 33.032H184.43c-13.661 0-24.774 11.114-24.774 24.774v29.729c0 13.66 11.113 24.774 24.774 24.774h33.032c13.661 0 24.774-11.114 24.774-24.774V57.806c.001-13.66-11.113-24.774-24.774-24.774zm8.259 54.503c0 4.554-3.704 8.258-8.258 8.258H184.43c-4.554 0-8.258-3.704-8.258-8.258V57.806c0-4.554 3.704-8.258 8.258-8.258h33.032c4.554 0 8.258 3.704 8.258 8.258v29.729z"/><path d="M466.166 303.716a8.256 8.256 0 0 0-6.467-3.123h-30.28V286.83a8.257 8.257 0 0 0-8.258-8.258 8.257 8.257 0 0 0-8.258 8.258v13.763h-30.28a8.257 8.257 0 0 0-8.044 10.128c4.709 20.253 19.894 35.173 38.323 38.647v17.29H357.85V137.084c0-1.67-.507-3.301-1.452-4.677L267.859 3.581A8.257 8.257 0 0 0 261.053 0H140.84a8.258 8.258 0 0 0-6.806 3.581L45.495 132.406a8.256 8.256 0 0 0-1.452 4.677v237.832a8.257 8.257 0 0 0 8.258 8.258h77.443L99.356 501.691A8.259 8.259 0 0 0 107.355 512h187.183a8.257 8.257 0 0 0 7.999-10.309l-30.389-118.516h149.013a8.257 8.257 0 0 0 8.258-8.258v-25.548c18.429-3.474 33.614-18.393 38.323-38.647a8.258 8.258 0 0 0-1.576-7.006zm-320.983-287.2h111.525l77.186 112.31H67.997l77.186-112.31zm-84.624 194.89h71.57v122.219h-71.57V211.406zm213.454 245.54l9.881 38.538H117.997l9.881-38.538h146.135zM132.114 440.43l14.682-57.256h108.302l14.682 57.256H132.114zm209.219-278.572h-24.774c-4.561 0-8.258 3.696-8.258 8.258s3.697 8.258 8.258 8.258h24.774v188.284H60.559v-16.516h79.828a8.257 8.257 0 0 0 8.258-8.258v-57.806h24.774a8.257 8.257 0 0 0 8.258-8.258v-72.671a8.257 8.257 0 0 0-8.258-8.258H60.559v-16.516h222.968c4.561 0 8.258-3.696 8.258-8.258s-3.697-8.258-8.258-8.258H60.559v-16.516h280.774v16.515zM148.645 267.561v-56.155h16.516v56.155h-16.516zm272.516 66.065c-10.969 0-20.9-6.44-26.58-16.516h53.159c-5.679 10.076-15.61 16.516-26.579 16.516z"/></svg>