<svg xmlns="http://www.w3.org/2000/svg" viewBox="0 0 511.999 511.999"><path d="M255.998 0C142.16 0 49.547 92.614 49.547 206.452c0 .302.019.6.051.894.008.07.022.139.032.209.03.226.065.449.113.667.018.079.041.157.061.236.052.207.108.413.175.613.028.084.059.164.09.247a7.644 7.644 0 0 0 .633 1.329 6.76 6.76 0 0 0 .484.727c.06.08.117.161.18.24.133.165.275.323.421.478.052.056.1.115.154.17.204.206.417.401.642.584.018.017 192.606 156.472 192.606 156.472l-59.044 96.617c-.048.079-.089.161-.137.24-.039.068-.078.135-.116.204-2.752 4.665-4.215 9.955-4.215 15.342 0 16.696 13.583 30.28 30.28 30.28h88.086c16.697 0 30.28-13.584 30.28-30.28 0-5.391-1.466-10.682-4.215-15.342-.036-.068-.076-.135-.115-.203-.046-.077-.086-.157-.132-.233l-59.048-96.625L459.4 212.86a8.63 8.63 0 0 0 .66-.6c.053-.053.1-.112.153-.167.145-.155.287-.313.421-.478.063-.078.12-.16.179-.24a7.307 7.307 0 0 0 .484-.727c.099-.166.192-.337.279-.511.042-.085.084-.17.123-.255.084-.184.16-.371.231-.563.031-.083.063-.163.09-.247.067-.2.123-.406.175-.613.02-.078.043-.156.061-.236.048-.219.083-.443.113-.667.01-.07.024-.139.032-.209.032-.294.051-.592.051-.894C462.45 92.614 369.836 0 255.998 0zm77.005 70.556c20.536 34.227 32.335 79.286 33.543 127.638h-62.688c-.407-50.375-4.536-97.516-11.734-133.505-3.76-18.801-8.102-33.419-13.077-43.971 20.101 7.409 38.736 24.47 53.956 49.838zm-77.024-54.04c2.17.297 11.908 10.16 20.291 53.13 6.78 34.751 10.675 80.13 11.073 128.546h-62.689c.399-48.417 4.293-93.795 11.073-128.546 8.383-42.966 18.119-52.83 20.252-53.13zm-63.857 11.058a142.509 142.509 0 0 0-11.834 12.593c-20.727 24.85-36.121 58.914-44.518 98.507a8.26 8.26 0 0 0 16.157 3.427c13.229-62.381 44.318-107.76 81.008-121.354-4.97 10.551-9.307 25.158-13.064 43.943-7.198 35.99-11.327 83.13-11.734 133.505h-62.691c.204-8.049.704-16.073 1.496-23.947a8.257 8.257 0 0 0-7.389-9.043c-4.539-.466-8.587 2.852-9.043 7.389a337.44 337.44 0 0 0-1.582 25.601H66.246c3.387-78.744 54.942-145.213 125.876-170.621zM81.067 214.71H247.74v135.404L81.067 214.71zm232.738 267.01c0 7.59-6.174 13.763-13.763 13.763h-88.086c-7.59 0-13.763-6.174-13.763-13.763 0-1.086.14-2.163.396-3.214h114.82c.256 1.051.396 2.129.396 3.214zm-9.717-19.73h-96.179l23.269-38.076h49.641l23.269 38.076zm-33.362-54.592H241.27l14.728-24.1 14.728 24.1zm-6.47-57.285V214.71H430.93L264.256 350.113zm118.809-151.919c-1.227-51.328-13.859-99.401-35.899-136.136-8.179-13.631-17.334-25.161-27.22-34.459 70.898 25.427 122.42 91.879 125.806 170.595h-62.687z"/><circle cx="255.998" cy="442.952" r="8.258"/></svg>