<svg xmlns="http://www.w3.org/2000/svg" viewBox="0 0 512 512"><path d="M510.059 498.424c-34.469-40.945-78.378-73.098-127.464-93.444 12.274-21.36 19.297-46.102 19.297-72.455 0-21.442-4.577-42.127-13.611-61.492L263.477 4.754a8.256 8.256 0 0 0-14.954-.001L123.714 271.046c-9.029 19.351-13.606 40.037-13.606 61.479 0 26.353 7.025 51.095 19.297 72.455-49.086 20.346-92.996 52.499-127.464 93.444a8.255 8.255 0 0 0 .999 11.635A8.216 8.216 0 0 0 8.254 512c2.353 0 4.688-1 6.321-2.94 33.443-39.725 76.227-70.74 124.044-90 26.595 35.979 69.307 59.357 117.381 59.357s90.786-23.378 117.381-59.357c47.816 19.26 90.601 50.275 124.044 90a8.235 8.235 0 0 0 6.321 2.94 8.218 8.218 0 0 0 5.314-1.941 8.256 8.256 0 0 0 .999-11.635zM256 461.901c-71.339 0-129.376-58.038-129.376-129.376 0-19.012 4.057-37.346 12.05-54.482L256 27.716l117.32 250.313c8 17.149 12.057 35.484 12.057 54.495-.001 71.339-58.038 129.377-129.377 129.377z"/><circle cx="256" cy="308.07" r="8.258"/><circle cx="285.454" cy="247.742" r="8.258"/><circle cx="256" cy="214.71" r="8.258"/><path d="M325.86 331.06l-33.362-54.592a8.26 8.26 0 0 0-7.046-3.952h-58.905a8.255 8.255 0 0 0-7.046 3.952l-33.357 54.585a30.22 30.22 0 0 0-4.467 15.786c0 16.696 13.584 30.28 30.28 30.28h88.086c16.696 0 30.28-13.584 30.28-30.28a30.2 30.2 0 0 0-4.463-15.779zm-94.682-42.028h49.643l23.268 38.076H207.91l23.268-38.076zm68.865 71.57h-88.086c-7.59 0-13.763-6.174-13.763-13.763 0-1.086.139-2.163.396-3.214h114.82a13.52 13.52 0 0 1 .396 3.214c0 7.589-6.173 13.763-13.763 13.763z"/><path d="M209.035 205.757a8.258 8.258 0 1 0-14.955-7.009l-40.432 86.264c-6.973 14.946-10.509 30.933-10.509 47.514 0 23.931 7.432 46.816 21.494 66.179a8.247 8.247 0 0 0 6.688 3.407 8.22 8.22 0 0 0 4.846-1.578 8.257 8.257 0 0 0 1.829-11.535c-11.997-16.523-18.341-36.051-18.341-56.473 0-14.151 3.015-27.787 8.954-40.517l40.426-86.252z"/><path d="M358.37 285.052L263.477 82.588a8.256 8.256 0 0 0-14.954 0l-40.425 86.25a8.258 8.258 0 0 0 3.973 10.982 8.254 8.254 0 0 0 10.982-3.973L256 105.551l87.41 186.496c5.928 12.709 8.934 26.328 8.934 40.478 0 53.125-43.219 96.344-96.344 96.344-20.422 0-39.95-6.343-56.474-18.342a8.257 8.257 0 0 0-11.535 1.829 8.258 8.258 0 0 0 1.829 11.535c19.365 14.062 42.248 21.494 66.179 21.494 62.232 0 112.86-50.629 112.86-112.86 0-16.581-3.527-32.549-10.489-47.473z"/></svg>