<svg xmlns="http://www.w3.org/2000/svg" viewBox="0 0 512 512"><path d="M482.271 115.613h-99.097a8.256 8.256 0 0 0-8.258 8.258v123.871h-28.077v-90.839a8.256 8.256 0 0 0-8.258-8.258h-34.139l-14.996-23.593a108.03 108.03 0 0 0 29.154-14.388c17.832-12.433 31.402-29.677 39.24-49.87a8.252 8.252 0 0 0-.885-7.652 8.254 8.254 0 0 0-6.813-3.594h-33.549l-54.622-47.52a8.258 8.258 0 0 0-10.841 0l-54.622 47.52h-33.549a8.26 8.26 0 0 0-7.698 11.247c7.839 20.193 21.407 37.437 39.24 49.87a108.073 108.073 0 0 0 29.154 14.388l-14.995 23.593h-35.24a8.256 8.256 0 0 0-8.258 8.258v90.839h-28.077V123.871a8.256 8.256 0 0 0-8.258-8.258H29.729a8.256 8.256 0 0 0-8.258 8.258v264.258a8.256 8.256 0 0 0 8.258 8.258h99.097a8.256 8.256 0 0 0 8.258-8.258V264.258h28.077v90.839a8.256 8.256 0 0 0 8.258 8.258h35.24l14.996 23.593a108.03 108.03 0 0 0-29.154 14.388c-17.832 12.433-31.402 29.677-39.24 49.87a8.254 8.254 0 0 0 .885 7.653 8.25 8.25 0 0 0 6.813 3.594h33.549l54.623 47.52a8.24 8.24 0 0 0 5.421 2.028 8.242 8.242 0 0 0 5.421-2.028l54.621-47.52h33.571a8.256 8.256 0 0 0 8.258-8.258 8.25 8.25 0 0 0-.808-3.57c-7.872-19.942-21.351-36.974-39.012-49.289a108.073 108.073 0 0 0-29.154-14.388l14.994-23.593h34.139a8.256 8.256 0 0 0 8.258-8.258v-90.839h28.077v123.871a8.256 8.256 0 0 0 8.258 8.258h99.097a8.256 8.256 0 0 0 8.258-8.258V123.871a8.259 8.259 0 0 0-8.259-8.258zM37.987 132.129h16.516v49.548H37.987v-49.548zm16.516 247.742H37.987v-49.548h16.516v49.548zm0-66.065H37.987v-49.548h16.516v49.548zm33.032 66.065H71.019v-49.548h16.516v49.548zm0-66.065H71.019v-49.548h16.516v49.548zm0-66.064H71.019v-24.774c0-4.562-3.696-8.258-8.258-8.258s-8.258 3.696-8.258 8.258v24.774H37.987v-49.548h49.548v49.548zm0-66.065H71.019v-49.548h16.516v49.548zm33.033 198.194h-16.516v-49.548h16.516v49.548zm0-66.065h-16.516v-49.548h16.516v49.548zm0-66.064h-16.516v-49.548h16.516v49.548zm0-66.065h-16.516v-49.548h16.516v49.548zM264.809 26.389l26.621 23.159h-26.621V26.389zm-16.517 0v23.159H221.67l26.622-23.159zm-72.395 39.676h161.308c-13.043 23.759-35.613 40.298-61.928 45.663a8.462 8.462 0 0 0-.815.152 93.732 93.732 0 0 1-35.79.007 8.05 8.05 0 0 0-.864-.161c-26.307-5.369-48.87-21.907-61.911-45.661zm108.974 82.58H228.23l12.505-19.675a109.622 109.622 0 0 0 15.816 1.153c5.334 0 10.614-.395 15.816-1.153l12.504 19.675zm-36.579 336.967l-26.622-23.16h26.622v23.16zm16.517 0v-23.16h26.621l-26.621 23.16zm72.395-39.677H175.897c16.05-29.237 46.527-47.542 80.654-47.542 34.126 0 64.603 18.307 80.653 47.542zm-108.974-82.58h56.642l-12.505 19.675a109.622 109.622 0 0 0-15.816-1.152c-5.334 0-10.614.395-15.816 1.152l-12.505-19.675zm102.093-16.516H181.677V165.161h66.064v156.903a8.256 8.256 0 0 0 8.258 8.258 8.256 8.256 0 0 0 8.258-8.258V165.161h66.064v181.678zm94.142-214.71h16.516v49.548h-16.516v-49.548zm0 66.065h16.516v49.548h-16.516v-49.548zm-16.517 181.677h-16.516v-49.548h16.516v49.548zm0-66.065h-16.516v-49.548h16.516v49.548zm0-66.064h-16.516v-49.548h16.516v49.548zm0-66.065h-16.516v-49.548h16.516v49.548zm33.033 198.194h-16.516v-49.548h16.516v49.548zm33.032 0h-16.516v-49.548h16.516v49.548zm0-66.065h-49.548v-49.548h16.516v24.774c0 4.562 3.696 8.258 8.258 8.258s8.258-3.696 8.258-8.258v-24.774h16.516v49.548zm0-66.064h-16.516v-49.548h16.516v49.548zm0-66.065h-16.516v-49.548h16.516v49.548z"/><path d="M305.548 214.71h-16.516a8.256 8.256 0 0 0-8.258 8.258 8.256 8.256 0 0 0 8.258 8.258h16.516a8.256 8.256 0 0 0 8.258-8.258 8.256 8.256 0 0 0-8.258-8.258zm0-33.033h-16.516c-4.562 0-8.258 3.696-8.258 8.258s3.696 8.258 8.258 8.258h16.516c4.562 0 8.258-3.696 8.258-8.258s-3.696-8.258-8.258-8.258zm0 66.065h-16.516c-4.562 0-8.258 3.696-8.258 8.258s3.696 8.258 8.258 8.258h16.516c4.562 0 8.258-3.696 8.258-8.258s-3.696-8.258-8.258-8.258z"/></svg>