<svg xmlns="http://www.w3.org/2000/svg" viewBox="0 0 512 512"><circle cx="338.581" cy="178.925" r="8.258"/><circle cx="305.548" cy="178.925" r="8.258"/><path d="M228.473 170.667h-55.054c-4.561 0-8.258 3.696-8.258 8.258s3.697 8.258 8.258 8.258h55.054c4.561 0 8.258-3.696 8.258-8.258s-3.697-8.258-8.258-8.258z"/><path d="M503.742 203.699H379.871v-68.817c0-4.562-3.696-8.258-8.258-8.258s-8.258 3.696-8.258 8.258v2.753h-214.71v-2.753a8.257 8.257 0 0 0-8.258-8.258 8.257 8.257 0 0 0-8.258 8.258v68.817H8.258c-4.561 0-8.258 3.696-8.258 8.258s3.697 8.258 8.258 8.258h123.871v156.903a8.257 8.257 0 0 0 8.258 8.258h231.226a8.256 8.256 0 0 0 8.258-8.258V220.215h123.871c4.562 0 8.258-3.696 8.258-8.258s-3.696-8.258-8.258-8.258zM220.215 368.86h-38.538v-16.516h38.538v16.516zm55.054 0h-38.538v-16.516h38.538v16.516zm0-33.032h-38.538v-57.806a8.257 8.257 0 0 0-8.258-8.258 8.257 8.257 0 0 0-8.258 8.258v57.806h-38.538v-82.581h93.591v82.581zm-93.592-99.097v-16.516h38.538v16.516h-38.538zm93.592 0h-38.538v-16.516h38.538v16.516zm55.054 132.129h-38.538v-16.516h38.538v16.516zm0-33.032h-38.538v-82.581h38.538v82.581zm0-99.097h-38.538v-16.516h38.538v16.516zm33.032 132.129h-16.516V211.957a8.256 8.256 0 0 0-8.258-8.258H173.419a8.257 8.257 0 0 0-8.258 8.258V368.86h-16.516V154.15h214.71v214.71z"/></svg>