<svg xmlns="http://www.w3.org/2000/svg" viewBox="0 0 512 512"><path d="M461.249 50.792C428.494 18.039 384.946 0 338.624 0c-32.433 0-63.502 8.855-90.463 25.401L4.173 166.268a8.257 8.257 0 0 0-3.022 11.281 8.254 8.254 0 0 0 11.28 3.022L196.172 74.487c-31.267 44.977-38.793 101.571-22.58 152.142L3.004 369.243a8.257 8.257 0 0 0 5.302 14.593c1.868 0 3.747-.63 5.293-1.922L179.772 242.99c8.412 19.269 20.484 37.311 36.228 53.054 15.524 15.525 33.476 27.736 52.997 36.296L130.129 498.444a8.258 8.258 0 1 0 12.671 10.593L285.346 338.53c16.992 5.462 34.915 8.308 53.278 8.308 35.876 0 70.084-10.828 98.907-30.925L331.472 499.612a8.26 8.26 0 0 0 7.143 12.389 8.254 8.254 0 0 0 7.159-4.13L487.71 262.032c39.541-66.543 30.723-154.054-26.461-211.24zM221.99 68.465l52.382 52.382-14.37 12.014a8.258 8.258 0 0 0-1.04 11.633l5.297 6.336-76.867 64.263c-13.722-50.134-2.193-105.792 34.598-146.628zm116.634 261.857c-14.304 0-28.314-1.904-41.744-5.587l64.333-76.953 6.336 5.297a8.256 8.256 0 0 0 11.631-1.039l12.015-14.371 52.382 52.382c-28.854 26.027-65.808 40.271-104.953 40.271zm20.511-105.804l49.415-59.109a8.244 8.244 0 0 1 6.343-2.961 8.16 8.16 0 0 1 5.288 1.922c3.494 2.92 3.959 8.139 1.039 11.632l-36.973 44.226-12.442 14.883-12.67-10.593zm115.431 27.259c-.019.032-.042.061-.061.092l-.988 1.71a156.255 156.255 0 0 1-18.261 24.792l-53.425-53.425 32.062-38.351c8.762-10.48 7.364-26.134-3.117-34.896a24.807 24.807 0 0 0-15.882-5.767 24.723 24.723 0 0 0-19.016 8.883l-29.224 34.957-27.413-27.413a8.259 8.259 0 0 0-11.678 11.679l28.456 28.456-14.852 17.766a8.258 8.258 0 0 0 1.038 11.632l6.336 5.297-68.456 81.883c-19.389-7.788-37.19-19.486-52.41-34.706-15.452-15.451-26.995-33.354-34.641-52.463l81.818-68.402 5.296 6.336a8.242 8.242 0 0 0 6.34 2.961c1.869 0 3.747-.63 5.293-1.922l65.443-54.71c5.077-4.244 8.198-10.211 8.785-16.803.588-6.592-1.424-13.018-5.668-18.095a24.722 24.722 0 0 0-19.016-8.883 24.81 24.81 0 0 0-15.882 5.767l-38.351 32.062-53.425-53.426a157.428 157.428 0 0 1 23.115-17.293l3.388-1.956c.282-.162.546-.342.801-.532 23.398-13.367 49.975-20.489 77.651-20.489 41.91 0 81.312 16.32 110.947 45.955 51.223 51.219 59.547 129.331 24.997 189.304zM276.932 140.235l14.895-12.453 44.212-36.962a8.155 8.155 0 0 1 5.288-1.922 8.246 8.246 0 0 1 6.344 2.961 8.204 8.204 0 0 1 1.889 6.032 8.203 8.203 0 0 1-2.929 5.601l-59.108 49.415-10.591-12.672z"/><circle cx="443.732" cy="231.809" r="8.258"/><circle cx="361.977" cy="150.065" r="8.258"/><circle cx="280.234" cy="68.311" r="8.258"/><circle cx="397.013" cy="278.527" r="8.258"/><circle cx="315.27" cy="196.773" r="8.258"/><circle cx="233.515" cy="115.029" r="8.258"/></svg>