<svg xmlns="http://www.w3.org/2000/svg" viewBox="0 0 511.999 511.999"><path d="M510.983 499.773L379.869 260.305v-63.948a8.257 8.257 0 0 0-8.258-8.258h-24.774v-20.372c26.207-18.141 46.835-44.225 58.348-73.901a8.26 8.26 0 0 0-7.698-11.245h-64.928l-54.622-47.52a8.258 8.258 0 0 0-5.421-2.028h-8.259V8.259a8.257 8.257 0 0 0-8.258-8.258 8.257 8.257 0 0 0-8.258 8.258v24.774h-8.257c-1.993 0-3.918.72-5.421 2.028l-54.622 47.52h-64.93a8.26 8.26 0 0 0-7.698 11.245c11.513 29.675 32.141 55.76 58.348 73.901V188.1h-24.774a8.257 8.257 0 0 0-8.258 8.258v63.948L1.016 499.773a8.259 8.259 0 0 0 14.487 7.932l116.626-213.009v66.822a8.259 8.259 0 0 0 14.114 5.822l66.064-66.433a8.257 8.257 0 1 0-11.71-11.645l-51.951 52.24V270.68h82.58v114.695h-8.258a8.257 8.257 0 0 0-8.258 8.258v77.075c0 22.768 18.522 41.29 41.29 41.29s41.29-18.522 41.29-41.29v-77.075a8.257 8.257 0 0 0-8.258-8.258h-8.258V270.68h82.58v71.163l-52.021-51.053a8.257 8.257 0 0 0-11.678.11 8.257 8.257 0 0 0 .11 11.677l66.063 64.835a8.256 8.256 0 0 0 14.042-5.894v-66.822l116.626 213.009a8.256 8.256 0 0 0 11.209 3.277 8.257 8.257 0 0 0 3.278-11.209zM264.258 49.549h5.17l37.969 33.032h-43.139V49.549zm-21.684 0h5.167v33.032h-43.137l37.97-33.032zm-49.336 204.615h-44.593v-49.548h44.593v49.548zm37.987 0h-21.471v-49.548h21.471v49.548zM181.676 188.1v-16.516h19.82a8.257 8.257 0 0 0 8.258-8.258 8.257 8.257 0 0 0-8.258-8.258h-25.554c-20.765-14.013-37.748-33.533-48.793-55.971h257.697c-11.045 22.439-28.028 41.957-48.793 55.971H234.527a8.257 8.257 0 0 0-8.258 8.258 8.257 8.257 0 0 0 8.258 8.258h95.793V188.1H181.676zm82.581 16.516v180.759h-16.516V204.616h16.516zm-8.258 290.865c-13.661 0-24.774-11.114-24.774-24.774s11.113-24.774 24.774-24.774c13.661 0 24.774 11.114 24.774 24.774s-11.113 24.774-24.774 24.774zm24.774-57.783a41.072 41.072 0 0 0-24.774-8.281 41.066 41.066 0 0 0-24.774 8.281V401.89h49.548v35.808zm22.572-183.534h-22.572v-49.548h22.572v49.548zm60.008 0h-43.492v-49.548h43.492v49.548z"/></svg>