<svg xmlns="http://www.w3.org/2000/svg" viewBox="0 0 512 512"><path d="M399.14 390.882c-30.241 0-58.732 11.936-79.828 33.092V195.441a8.25 8.25 0 0 0-1.387-4.58l-20.634-30.952V85.333a8.251 8.251 0 0 0-1.652-4.955l-31.381-41.841V8.258C264.258 3.697 260.562 0 256 0s-8.258 3.697-8.258 8.258v30.28l-31.381 41.841a8.258 8.258 0 0 0-1.652 4.955v74.575l-20.634 30.952a8.263 8.263 0 0 0-1.387 4.58v228.533a112.99 112.99 0 0 0-16.516-13.684V30.28c0-4.561-3.696-8.258-8.258-8.258s-8.258 3.697-8.258 8.258v2.753H66.065V30.28c0-4.561-3.696-8.258-8.258-8.258s-8.258 3.697-8.258 8.258v380.079C19.666 430.683 0 464.958 0 503.742A8.257 8.257 0 0 0 8.258 512h495.484a8.257 8.257 0 0 0 8.258-8.258c0-62.232-50.629-112.86-112.86-112.86zM256 55.054l16.516 22.021h-33.032L256 55.054zm-24.774 38.537h49.548v60.559h-49.548V93.591zm-3.839 77.076h57.226l11.011 16.516h-79.247l11.01-16.516zm-18.183 33.032h93.591v16.516h-93.591v-16.516zm-61.49-46.062v.001l-34.853 34.214-34.853-34.215h69.706zm-69.707-16.515l34.853-34.215 34.853 34.215H78.007zm69.707 108.089H78.007v-.001l34.853-34.214 34.854 34.215zm0 16.515l-34.853 34.215-34.853-34.215h69.706zm.56 92.123H77.446l35.414-34.765 35.414 34.765zm-23.626-46.336l35.008-34.366v68.731l-35.008-34.365zm0-108.089l35.008-34.366v68.732l-35.008-34.366zm0-108.09l35.008-34.366V129.7l-35.008-34.366zm23.066-45.786L112.86 83.763 78.007 49.548h69.707zM66.065 60.969l35.008 34.366L66.065 129.7V60.969zm0 108.089l35.008 34.366-35.008 34.366v-68.732zm0 108.089l35.008 34.366-35.008 34.366v-68.732zm0 97.219h93.591v26.637c-14.482-6.598-30.38-10.121-46.796-10.121-16.684 0-32.531 3.643-46.796 10.168v-26.684zm171.136 121.118H16.866c4.204-49.273 45.652-88.086 95.994-88.086 24.524 0 47.703 9.196 65.403 25.601-17.319 5.579-32.343 17.415-41.691 33.574a8.259 8.259 0 0 0 14.297 8.27c10.316-17.831 29.503-28.908 50.078-28.908 17.698 0 34.214 8.054 45.151 21.745a73.733 73.733 0 0 0-8.897 27.804zm-27.997-65.599v-83.046h8.258a8.257 8.257 0 0 0 8.258-8.258 8.257 8.257 0 0 0-8.258-8.258h-8.258v-93.591h93.591v93.591h-52.301a8.257 8.257 0 0 0-8.258 8.258 8.257 8.257 0 0 0 8.258 8.258h52.301v83.051c-18.462 2.051-34.907 10.879-46.771 23.948a74.138 74.138 0 0 0-46.82-23.953zm44.642 65.599c4.021-27.975 28.138-49.548 57.207-49.548s53.186 21.573 57.207 49.548H253.846zm131.06 0c-3.268-29.415-23.765-53.697-51.147-62.505 17.696-16.393 40.867-25.581 65.381-25.581 50.342 0 91.79 38.813 95.994 88.086H384.906z"/></svg>