<svg xmlns="http://www.w3.org/2000/svg" viewBox="0 0 512 512"><path d="M358.79 430.291l-39.478-19.739V195.441a8.25 8.25 0 0 0-1.387-4.58l-20.634-30.952V85.333a8.251 8.251 0 0 0-1.652-4.955l-31.381-41.841V8.258A8.257 8.257 0 0 0 256 0a8.257 8.257 0 0 0-8.258 8.258v30.28l-31.381 41.841a8.258 8.258 0 0 0-1.652 4.955v74.575l-20.634 30.952a8.263 8.263 0 0 0-1.387 4.58v215.112l-39.478 19.739a8.258 8.258 0 0 0-4.565 7.386v33.032a8.257 8.257 0 0 0 8.258 8.258h34.294l-3.902 23.417a8.261 8.261 0 0 0 8.145 9.616h44.043a8.257 8.257 0 0 0 8.146-9.616l-3.903-23.417h24.545l-3.902 23.417a8.26 8.26 0 0 0 8.145 9.616h44.043a8.257 8.257 0 0 0 8.146-9.616l-3.903-23.417h34.294a8.257 8.257 0 0 0 8.258-8.258v-33.032a8.25 8.25 0 0 0-4.562-7.387zm-166.102 32.161h-27.527v-19.671l27.527-13.763v33.434zM256 55.054l16.516 22.021h-33.032L256 55.054zm-24.774 38.537h49.548v60.559h-49.548V93.591zm-3.839 77.076h57.226l11.011 16.516h-79.247l11.01-16.516zm-18.183 33.032h93.591v16.516h-93.591v-16.516zm-4.015 291.785l2.753-16.516h19.04l2.754 16.516h-24.547zm4.015-33.032V346.839h8.258a8.257 8.257 0 0 0 8.258-8.258 8.257 8.257 0 0 0-8.258-8.258h-8.258v-93.591h93.591v93.591h-52.301a8.257 8.257 0 0 0-8.258 8.258 8.257 8.257 0 0 0 8.258 8.258h52.301v115.613h-93.591zm73.061 33.032l2.753-16.516h19.04l2.753 16.516h-24.546zm64.574-33.032h-27.527v-33.434l27.527 13.763v19.671z"/></svg>