<svg xmlns="http://www.w3.org/2000/svg" viewBox="0 0 512.001 512.001"><path d="M411.728 136.139l-33.032-55.054a8.26 8.26 0 0 0-14.164 0l-19.938 33.23C336.106 64.771 304.008 20.974 259.413.738a8.256 8.256 0 0 0-6.824 0c-44.596 20.234-76.692 64.034-85.18 113.578L147.47 81.084a8.256 8.256 0 0 0-14.161 0l-33.032 55.054a8.263 8.263 0 0 0-1.177 4.249v308.301a8.258 8.258 0 0 0 8.258 8.258h2.753v38.538h-2.753c-4.561 0-8.258 3.697-8.258 8.258s3.697 8.258 8.258 8.258h66.065c4.561 0 8.258-3.697 8.258-8.258s-3.697-8.258-8.258-8.258h-2.753v-38.538h27.527v24.774a8.258 8.258 0 0 0 8.258 8.258h41.29v13.763a8.258 8.258 0 0 0 8.258 8.258 8.257 8.257 0 0 0 8.258-8.258v-13.763h41.29a8.257 8.257 0 0 0 8.258-8.258v-24.774h27.527v38.538h-2.753c-4.562 0-8.258 3.697-8.258 8.258s3.696 8.258 8.258 8.258h66.065c4.562 0 8.258-3.697 8.258-8.258s-3.696-8.258-8.258-8.258h-2.753v-38.538h2.753a8.257 8.257 0 0 0 8.258-8.258v-308.3a8.288 8.288 0 0 0-1.178-4.249zm-40.115-34.754l18.446 30.744h-36.894l18.448-30.744zm-231.226 0l18.446 30.744H121.94l18.447-30.744zm13.764 394.099h-27.527v-38.538h27.527v38.538zm93.591-22.021H214.71v-16.516h33.032v16.516zm49.549 0h-33.032v-16.516h33.032v16.516zm0-191.477v158.445h-33.032v-24.774a8.257 8.257 0 0 0-8.258-8.258 8.258 8.258 0 0 0-8.258 8.258v24.774H214.71v-24.774a8.258 8.258 0 0 0-8.258-8.258 8.258 8.258 0 0 0-8.258 8.258v24.774h-82.581v-24.774c0-9.856 6.238-24.489 13.347-31.315l69.233-66.465v64.748a8.258 8.258 0 0 0 8.258 8.258 8.258 8.258 0 0 0 8.258-8.258V194.813c0-28.746 15.723-54.194 41.29-67.28 25.567 13.086 41.29 38.534 41.29 67.28v87.173zm-37.878-171.139a8.256 8.256 0 0 0-6.824 0c-33.552 15.223-54.394 47.397-54.394 83.966v87.173c0 6.802-4.469 17.287-9.376 21.997l-71.296 68.445a41.404 41.404 0 0 0-1.909 1.962V148.646h49.548v132.832a8.258 8.258 0 0 0 8.258 8.258 8.258 8.258 0 0 0 8.258-8.258v-141.09c0-52.117 29.717-101.04 74.323-122.996 44.606 21.955 74.323 70.878 74.323 122.996v170.451l-7.14-6.855c-4.906-4.71-9.376-15.195-9.376-21.997v-87.173c-.001-36.57-20.845-68.744-54.395-83.967zm125.964 384.637H357.85v-38.538h27.527v38.538zm11.01-55.053h-82.581V317.878l69.234 66.464c7.11 6.826 13.346 21.458 13.346 31.315v24.774zm0-66.042a41.39 41.39 0 0 0-1.908-1.962l-47.64-45.734V148.646h49.548v225.743z"/><path d="M272.516 186.555h-33.032a8.258 8.258 0 0 0-8.258 8.258 8.258 8.258 0 0 0 8.258 8.258h33.032a8.257 8.257 0 0 0 8.258-8.258 8.257 8.257 0 0 0-8.258-8.258z"/></svg>