<svg xmlns="http://www.w3.org/2000/svg" viewBox="0 0 512.001 512.001"><path d="M421.161 295.283a90.361 90.361 0 0 0-31.907 5.8V172.527c18.208 12.928 39.919 19.9 62.705 19.9 15.223 0 29.975-3.099 43.843-9.213a8.256 8.256 0 0 0 2.509-13.396l-60.34-60.34 29.197-29.197a8.257 8.257 0 0 0 0-11.678 8.257 8.257 0 0 0-11.678 0L426.292 97.8l-60.34-60.34a8.256 8.256 0 0 0-13.396 2.509c-8.736 19.82-11.336 41.609-7.518 63.009 3.705 20.768 13.264 39.751 27.699 55.123v120.15h-53.425v-54.54a8.258 8.258 0 0 0 8.258-8.258 8.258 8.258 0 0 0-8.258-8.258v-31.381c0-4.561-3.697-8.258-8.258-8.258s-8.258 3.697-8.258 8.258v31.381a8.258 8.258 0 0 0-8.258 8.258 8.258 8.258 0 0 0 8.258 8.258v137.634h-38.538V283.58h2.753c4.561 0 8.258-3.697 8.258-8.258s-3.697-8.258-8.258-8.258h-101.85V192.33c0-13.661-11.113-24.774-24.774-24.774-10.766 0-19.945 6.905-23.354 16.516H98.265c-3.836-18.824-20.518-33.032-40.459-33.032H35.785a8.258 8.258 0 0 0-8.258 8.258 8.258 8.258 0 0 0 8.258 8.258h22.021c13.661 0 24.774 11.113 24.774 24.774v103.343C36.35 299.863 0 338.818 0 386.122c0 50.089 40.75 90.839 90.839 90.839 41.5 0 76.563-27.984 87.377-66.065h155.57c10.814 38.081 45.877 66.065 87.377 66.065 50.089 0 90.839-40.75 90.839-90.839-.001-50.089-40.752-90.839-90.841-90.839zM363.422 58.287l114.049 114.049c-8.248 2.376-16.789 3.575-25.514 3.575-24.599 0-47.727-9.58-65.122-26.975-24.131-24.131-32.737-58.625-23.413-90.649zM132.129 192.332c0-4.553 3.704-8.258 8.258-8.258 4.554 0 8.258 3.704 8.258 8.258v74.734h-16.516v-74.734zm-33.032 8.258h16.516v98.155a90.158 90.158 0 0 0-16.516-3.07V200.59zm-8.258 259.854c-40.982 0-74.323-33.341-74.323-74.323 0-40.982 33.341-74.323 74.323-74.323 40.982 0 74.323 33.341 74.323 74.323-.001 40.983-33.341 74.323-74.323 74.323zm41.29-155.193v-21.668h115.613v44.732h-52.301a8.258 8.258 0 0 0-8.258 8.258 8.258 8.258 0 0 0 8.258 8.258h52.301v16.516h-69.526c-6.94-24.441-23.869-44.707-46.087-56.096zm198.587 89.129h-149.43c.247-2.722.392-5.473.392-8.258s-.145-5.536-.392-8.258h149.43c-.247 2.722-.392 5.473-.392 8.258s.145 5.536.392 8.258zm3.068-33.033h-14.473v-66.579h53.426v14.554c-18.688 11.827-32.776 30.273-38.953 52.025zm87.377 99.097c-40.982 0-74.323-33.341-74.323-74.323 0-40.982 33.341-74.323 74.323-74.323 40.982 0 74.323 33.341 74.323 74.323 0 40.983-33.341 74.323-74.323 74.323z"/><path d="M421.161 339.326c-25.804 0-46.796 20.992-46.796 46.796 0 5.378.917 10.667 2.724 15.72a8.257 8.257 0 0 0 10.557 4.994 8.26 8.26 0 0 0 4.995-10.557 30.09 30.09 0 0 1-1.76-10.159c0-16.697 13.583-30.28 30.28-30.28s30.28 13.583 30.28 30.28-13.583 30.28-30.28 30.28c-3.477 0-6.895-.592-10.159-1.759a8.258 8.258 0 1 0-5.562 15.551 46.562 46.562 0 0 0 15.72 2.724c25.804 0 46.796-20.992 46.796-46.796 0-25.803-20.991-46.794-46.795-46.794zm-330.322 0c-25.804 0-46.796 20.992-46.796 46.796 0 5.378.917 10.667 2.724 15.72a8.257 8.257 0 0 0 10.557 4.994 8.259 8.259 0 0 0 4.995-10.557 30.09 30.09 0 0 1-1.76-10.159c0-16.697 13.583-30.28 30.28-30.28 16.697 0 30.28 13.583 30.28 30.28s-13.583 30.28-30.28 30.28c-3.477 0-6.895-.592-10.159-1.759a8.258 8.258 0 0 0-5.563 15.551 46.562 46.562 0 0 0 15.72 2.724c25.804 0 46.796-20.992 46.796-46.796 0-25.803-20.991-46.794-46.794-46.794z"/></svg>