<svg xmlns="http://www.w3.org/2000/svg" viewBox="0 0 512 512"><path d="M388.129 429.419c-13.661 0-24.774 11.113-24.774 24.774 0 13.661 11.113 24.774 24.774 24.774s24.774-11.113 24.774-24.774c0-13.66-11.113-24.774-24.774-24.774zm0 33.033c-4.554 0-8.258-3.704-8.258-8.258 0-4.554 3.704-8.258 8.258-8.258s8.258 3.704 8.258 8.258c0 4.554-3.704 8.258-8.258 8.258zm-165.161-33.033c-13.661 0-24.774 11.113-24.774 24.774 0 13.661 11.113 24.774 24.774 24.774 13.661 0 24.774-11.113 24.774-24.774 0-13.66-11.113-24.774-24.774-24.774zm0 33.033c-4.554 0-8.258-3.704-8.258-8.258 0-4.554 3.704-8.258 8.258-8.258 4.554 0 8.258 3.704 8.258 8.258 0 4.554-3.704 8.258-8.258 8.258zM57.806 429.419c-13.661 0-24.774 11.113-24.774 24.774 0 13.661 11.113 24.774 24.774 24.774 13.661 0 24.774-11.113 24.774-24.774.001-13.66-11.113-24.774-24.774-24.774zm0 33.033c-4.554 0-8.258-3.704-8.258-8.258 0-4.554 3.704-8.258 8.258-8.258 4.554 0 8.258 3.704 8.258 8.258.001 4.554-3.704 8.258-8.258 8.258z"/><path d="M379.871 132.379V41.29c0-4.561-3.697-8.258-8.258-8.258s-8.258 3.697-8.258 8.258v90.839h-16.516V8.258A8.258 8.258 0 0 0 338.581 0a8.258 8.258 0 0 0-8.258 8.258v123.871H181.677V93.591a8.258 8.258 0 0 0 8.258-8.258 8.258 8.258 0 0 0-8.258-8.258v-2.753a8.258 8.258 0 0 0-8.258-8.258 8.258 8.258 0 0 0-8.258 8.258v2.753a8.258 8.258 0 0 0-8.258 8.258 8.258 8.258 0 0 0 8.258 8.258v38.788c-73.581 4.29-132.129 65.5-132.129 140.137v129.46C13.52 411.271 0 431.181 0 454.194 0 486.069 25.931 512 57.806 512c31.875 0 57.806-25.931 57.806-57.806 0-2.804-.211-5.559-.599-8.258h50.747a57.984 57.984 0 0 0-.599 8.258c0 31.875 25.931 57.806 57.806 57.806 31.875 0 57.806-25.931 57.806-57.806 0-2.804-.211-5.559-.599-8.258h50.747a57.984 57.984 0 0 0-.599 8.258c0 31.875 25.931 57.806 57.806 57.806s57.806-25.931 57.806-57.806c0-2.804-.211-5.559-.599-8.258h25.371c22.768 0 41.29-18.522 41.29-41.29v-132.13c.004-74.637-58.545-135.847-132.125-140.137zM57.806 495.484c-22.768 0-41.29-18.522-41.29-41.29s18.522-41.29 41.29-41.29 41.29 18.522 41.29 41.29c.001 22.768-18.522 41.29-41.29 41.29zm74.323-66.065h-22.105c-9.294-19.512-29.204-33.032-52.217-33.032-2.804 0-5.559.211-8.258.599v-50.147h82.581v82.58zm90.839 66.065c-22.768 0-41.29-18.522-41.29-41.29s18.522-41.29 41.29-41.29 41.29 18.522 41.29 41.29-18.522 41.29-41.29 41.29zm165.161 0c-22.768 0-41.29-18.522-41.29-41.29s18.522-41.29 41.29-41.29 41.29 18.522 41.29 41.29-18.522 41.29-41.29 41.29zm107.355-165.161H371.613a8.258 8.258 0 0 0-8.258 8.258 8.258 8.258 0 0 0 8.258 8.258h123.871v57.806c0 13.661-11.113 24.774-24.774 24.774h-30.363c-9.294-19.512-29.204-33.032-52.217-33.032-23.014 0-42.923 13.52-52.217 33.032h-60.727c-9.294-19.512-29.204-33.032-52.217-33.032-23.014 0-42.923 13.52-52.217 33.032h-22.105v-82.581h17.347c3.836 18.824 20.519 33.032 40.459 33.032h66.065c19.94 0 36.623-14.208 40.459-33.032h25.605a8.258 8.258 0 0 0 8.258-8.258 8.258 8.258 0 0 0-8.258-8.258h-24.774v-123.87c0-22.768-18.522-41.29-41.29-41.29h-66.065c-22.768 0-41.29 18.522-41.29 41.29v123.871H49.548v-57.806c0-68.303 55.568-123.871 123.871-123.871h198.194c68.303 0 123.871 55.568 123.871 123.871v57.806zm-313.807 8.258V206.452c0-13.661 11.113-24.774 24.774-24.774h66.065c13.661 0 24.774 11.113 24.774 24.774v132.129c0 13.661-11.113 24.774-24.774 24.774h-66.065c-13.66 0-24.774-11.113-24.774-24.774z"/><path d="M478.968 272.515c0-59.196-48.159-107.355-107.355-107.355h-33.032a8.258 8.258 0 0 0-8.258 8.258v99.097c0 22.768 18.522 41.29 41.29 41.29h99.084v.001a8.258 8.258 0 0 0 8.252-8.558c-.018-1.861.001-20.442.019-32.733zM363.355 295.87c-9.611-3.409-16.516-12.589-16.516-23.354v-90.839h16.516V295.87zm99.077-6.848l-.006 8.268h-82.555V182.069c46.231 4.188 82.581 43.142 82.581 90.435l-.02 16.518z"/></svg>