<svg xmlns="http://www.w3.org/2000/svg" viewBox="0 0 512 512"><path d="M388.048 114.834C375.804 48.291 317.754 0 249.988 0 172.578 0 109.6 62.977 109.6 140.387c0 10.146 1.099 20.303 3.267 30.19 11.639 56.683 11.639 114.162 0 170.845a141.2 141.2 0 0 0-3.267 30.19C109.6 449.023 172.578 512 249.988 512c67.767 0 125.817-48.291 138.06-114.834 19.132-93.669 19.132-188.663 0-282.332zM371.85 393.941c-.012.055-.023.11-.032.164-10.773 58.744-62.009 101.379-121.831 101.379-68.303 0-123.871-55.568-123.871-123.871a124.638 124.638 0 0 1 2.918-26.813c12.106-58.923 12.106-118.676 0-177.599l-.023-.11a124.709 124.709 0 0 1-2.895-26.703c0-68.303 55.568-123.871 123.871-123.871 59.821 0 111.058 42.636 121.83 101.379l.032.164c18.707 91.531 18.707 184.349.001 275.881z"/><circle cx="437.755" cy="323.166" r="8.258"/><circle cx="81.018" cy="188.834" r="8.258"/><circle cx="58.996" cy="155.802" r="8.258"/><circle cx="470.787" cy="290.133" r="8.258"/><circle cx="41.213" cy="323.166" r="8.258"/><path d="M352.72 317.638a8.25 8.25 0 0 0-6.133-2.731H235.169c-4.562 0-8.258 3.697-8.258 8.258s3.696 8.258 8.258 8.258h102.188a652.6 652.6 0 0 1-4.227 29.729H170.843a79.924 79.924 0 0 1 1.197-6.846l.137-.642a492.984 492.984 0 0 0 4.035-22.24h25.925a8.257 8.257 0 0 0 8.258-8.258 8.257 8.257 0 0 0-8.258-8.258h-33.032a8.26 8.26 0 0 0-8.175 7.089 475.635 475.635 0 0 1-4.92 28.288l-.113.532a97.095 97.095 0 0 0-2.222 18.391 8.258 8.258 0 0 0 8.256 8.462h178.162a8.259 8.259 0 0 0 8.133-6.82 669.717 669.717 0 0 0 6.576-46.827 8.27 8.27 0 0 0-2.082-6.385zm5.202-85.056a8.258 8.258 0 0 0-8.253-7.963H173.332a8.258 8.258 0 0 0-8.249 8.662 465.26 465.26 0 0 1 0 45.437 8.257 8.257 0 0 0 8.249 8.662h176.337a8.258 8.258 0 0 0 8.253-7.962 656.586 656.586 0 0 0 0-46.836zm-16.27 38.283H181.926c.305-9.89.305-19.839 0-29.729h159.726c.229 9.888.229 19.84 0 29.729zm13.149-82.887a668.019 668.019 0 0 0-6.576-46.827 8.259 8.259 0 0 0-8.133-6.82H161.931a8.255 8.255 0 0 0-5.911 2.492 8.254 8.254 0 0 0-2.345 5.97c.153 6.19.9 12.377 2.21 18.334l.113.533a477.993 477.993 0 0 1 4.932 28.344 8.26 8.26 0 0 0 8.175 7.089h111.416a8.257 8.257 0 0 0 8.258-8.258 8.257 8.257 0 0 0-8.258-8.258H176.213a492.999 492.999 0 0 0-4.048-22.295l-.137-.643a80.43 80.43 0 0 1-1.186-6.791h162.287a654.206 654.206 0 0 1 4.227 29.729h-23.804a8.257 8.257 0 0 0-8.258 8.258 8.257 8.257 0 0 0 8.258 8.258h33.033a8.256 8.256 0 0 0 6.134-2.73 8.258 8.258 0 0 0 2.082-6.385zM334.832 94.63c-16.813-31.203-49.324-50.587-84.844-50.587-35.372 0-67.848 19.377-84.758 50.568a8.258 8.258 0 0 0 7.26 12.193h155.072a8.255 8.255 0 0 0 7.27-12.174zm-146.958-4.342c15.022-18.618 37.738-29.729 62.114-29.729 24.489 0 47.249 11.112 62.228 29.729H187.874zm146.78 318.933a8.258 8.258 0 0 0-7.091-4.026H172.491a8.257 8.257 0 0 0-7.259 12.193c16.908 31.191 49.384 50.568 84.756 50.568 35.521 0 68.031-19.383 84.846-50.586a8.26 8.26 0 0 0-.18-8.149zm-84.666 42.22c-24.376 0-47.093-11.111-62.114-29.729h124.342c-14.979 18.617-37.739 29.729-62.228 29.729z"/></svg>