<svg xmlns="http://www.w3.org/2000/svg" viewBox="0 0 512 512"><path d="M503.742 108.106a8.257 8.257 0 0 0-8.258 8.258v90.111a41.074 41.074 0 0 0-24.774-8.281h-8.438C457.921 88.171 367.071 0 256 0S54.079 88.171 49.728 198.194H41.29c-22.768 0-41.29 18.522-41.29 41.29v88.086c0 22.768 18.522 41.29 41.29 41.29h8.258v49.548H41.29c-4.561 0-8.258 3.697-8.258 8.258s3.697 8.258 8.258 8.258h24.774v16.516H41.29a8.258 8.258 0 0 0-8.258 8.258v44.043a8.258 8.258 0 0 0 8.258 8.258h429.42a8.257 8.257 0 0 0 8.258-8.258v-44.043a8.257 8.257 0 0 0-8.258-8.258h-24.774v-16.516h24.774c4.562 0 8.258-3.697 8.258-8.258s-3.696-8.258-8.258-8.258h-8.258V368.86h8.258c22.768 0 41.29-18.522 41.29-41.29V116.364a8.257 8.257 0 0 0-8.258-8.258zm-41.29 359.851v27.527H49.548v-27.527h412.904zM82.581 451.441v-16.516h82.581v16.516H82.581zm99.096 0v-16.516h247.742v16.516H181.677zM495.484 327.57c0 13.661-11.114 24.774-24.774 24.774h-8.258v-78.727c0-4.561-3.696-8.258-8.258-8.258s-8.258 3.697-8.258 8.258v144.791H66.065V273.617c0-4.561-3.697-8.258-8.258-8.258s-8.258 3.697-8.258 8.258v78.727H41.29c-13.661 0-24.774-11.113-24.774-24.774v-88.086c0-13.661 11.113-24.774 24.774-24.774h8.258v25.875c0 4.561 3.697 8.258 8.258 8.258s8.258-3.697 8.258-8.258v-34.133c0-104.731 85.205-189.935 189.935-189.935s189.935 85.205 189.935 189.935v34.133c0 4.561 3.696 8.258 8.258 8.258s8.258-3.697 8.258-8.258V214.71h8.258c13.66 0 24.774 11.113 24.774 24.774v88.086z"/><path d="M401.273 111.847a8.257 8.257 0 0 0-6.914-3.741H117.64a8.26 8.26 0 0 0-6.914 3.741C92.313 140.03 82.58 172.744 82.58 206.451v125.123a8.258 8.258 0 0 0 8.258 8.258h330.323a8.257 8.257 0 0 0 8.258-8.258V206.452c0-33.708-9.733-66.422-28.146-94.605zm11.63 211.469H99.097V206.452c0-29.011 7.968-57.205 23.087-81.83h267.632c15.12 24.626 23.087 52.819 23.087 81.83v116.864z"/><path d="M392.54 265.152C351.706 239.356 304.491 225.72 256 225.72c-48.491 0-95.705 13.636-136.54 39.433a8.26 8.26 0 0 0 8.822 13.964c38.19-24.128 82.355-36.88 127.718-36.88 45.364 0 89.528 12.753 127.718 36.879a8.259 8.259 0 0 0 8.822-13.964zm-59.465-113.003c-16.696 0-30.28 13.583-30.28 30.28s13.584 30.28 30.28 30.28 30.28-13.583 30.28-30.28-13.584-30.28-30.28-30.28zm0 44.043c-7.59 0-13.763-6.174-13.763-13.763s6.174-13.763 13.763-13.763 13.763 6.174 13.763 13.763-6.173 13.763-13.763 13.763z"/></svg>