<svg xmlns="http://www.w3.org/2000/svg" viewBox="0 0 512 512"><path d="M437.019 74.981C388.667 26.628 324.38 0 256 0S123.333 26.628 74.981 74.981 0 187.62 0 256s26.628 132.667 74.981 181.019C123.334 485.37 187.62 512 256 512s132.667-26.628 181.019-74.981C485.37 388.666 512 324.38 512 256s-26.628-132.667-74.981-181.019zM256 495.484C123.948 495.484 16.516 388.052 16.516 256S123.948 16.516 256 16.516 495.484 123.948 495.484 256 388.052 495.484 256 495.484z"/><path d="M256 66.065C151.269 66.065 66.065 151.269 66.065 256S151.269 445.935 256 445.935 445.935 360.731 445.935 256 360.731 66.065 256 66.065zm0 363.354c-95.624 0-173.419-77.795-173.419-173.419S160.376 82.581 256 82.581 429.419 160.376 429.419 256 351.624 429.419 256 429.419z"/><circle cx="256" cy="41.29" r="8.258"/><circle cx="173.838" cy="57.63" r="8.258"/><circle cx="104.173" cy="104.173" r="8.258"/><circle cx="57.63" cy="173.838" r="8.258"/><circle cx="41.29" cy="256" r="8.258"/><circle cx="57.63" cy="338.162" r="8.258"/><circle cx="104.173" cy="407.827" r="8.258"/><circle cx="173.838" cy="454.37" r="8.258"/><circle cx="256" cy="470.71" r="8.258"/><circle cx="338.162" cy="454.37" r="8.258"/><circle cx="407.827" cy="407.827" r="8.258"/><circle cx="454.37" cy="338.162" r="8.258"/><circle cx="470.71" cy="256" r="8.258"/><circle cx="454.37" cy="173.838" r="8.258"/><circle cx="407.827" cy="104.173" r="8.258"/><circle cx="338.162" cy="57.63" r="8.258"/><path d="M267.011 294.31H244.99a8.258 8.258 0 0 0-8.258 8.258 8.258 8.258 0 0 0 8.258 8.258h2.753v8.258c0 4.561 3.697 8.258 8.258 8.258s8.258-3.697 8.258-8.258v-8.258h2.753a8.258 8.258 0 1 0-.001-16.516zm-33.032-38.538H214.16c-4.561 0-8.258 3.697-8.258 8.258s3.697 8.258 8.258 8.258h12.031a8.261 8.261 0 0 0 7.788 5.505 8.258 8.258 0 0 0 8.258-8.258v-5.505a8.258 8.258 0 0 0-8.258-8.258zm63.862 0h-19.819a8.258 8.258 0 0 0-8.258 8.258v5.505a8.26 8.26 0 1 0 16.046 2.753h12.031a8.258 8.258 0 1 0 0-16.516z"/><path d="M330.47 158.709c-9.857-3.509-20.917-.405-27.525 7.724l-18.239 22.444A90.437 90.437 0 0 0 256 184.202a90.409 90.409 0 0 0-28.706 4.675l-18.24-22.444c-6.608-8.128-17.667-11.234-27.525-7.724-9.857 3.509-16.467 12.906-16.449 23.375l.081 92.965.002.095c.029 25.175 10.647 49.428 29.144 66.556l26.174 24.251a52.129 52.129 0 0 0 35.518 13.921c13.208 0 25.822-4.944 35.522-13.924L317.69 341.7c18.525-17.151 29.149-41.448 29.149-66.659v-92.952c.016-10.493-6.562-19.888-16.369-23.38zm-148.874 23.354a8.266 8.266 0 0 1 5.473-7.794 8.268 8.268 0 0 1 9.168 2.581l15.408 18.961a91.471 91.471 0 0 0-30.014 27.162l-.035-40.91zm124.871 147.52l-26.168 24.247A35.666 35.666 0 0 1 256 363.354a35.665 35.665 0 0 1-24.296-9.522L205.53 329.58c-15.158-14.034-23.853-33.914-23.853-54.54 0-40.982 33.341-74.323 74.323-74.323 40.982 0 74.323 33.342 74.323 74.323 0 20.626-8.695 40.505-23.856 54.543zm23.856-106.674a91.487 91.487 0 0 0-29.969-27.099l15.408-18.961a8.274 8.274 0 0 1 9.169-2.582c3.281 1.168 5.399 4.228 5.392 7.809v40.833z"/><path d="M256 99.097c-86.517 0-156.903 70.386-156.903 156.903 0 35.434 12.206 70.198 34.37 97.888a8.258 8.258 0 0 0 12.893-10.321c-20.114-25.131-30.747-55.412-30.747-87.567 0-77.41 62.977-140.387 140.387-140.387S396.387 178.59 396.387 256 333.41 396.387 256 396.387c-32.156 0-62.435-10.633-87.567-30.749a8.258 8.258 0 0 0-10.321 12.895c27.691 22.164 62.454 34.37 97.888 34.37 86.517 0 156.903-70.386 156.903-156.903S342.517 99.097 256 99.097z"/></svg>