<svg xmlns="http://www.w3.org/2000/svg" viewBox="0 0 512.002 512.002"><path d="M509.168 277.303c-36.715-32.002-72.911-54.073-110.472-67.34-2.674-18.118-17.16-32.437-35.356-34.867l-22.907-50.571a8.258 8.258 0 0 0-7.523-4.85H179.088a8.258 8.258 0 0 0-7.523 4.85l-22.907 50.571c-18.194 2.43-32.681 16.748-35.356 34.867-37.56 13.267-73.756 35.338-110.471 67.34a8.262 8.262 0 0 0 .001 12.45c36.714 32 72.91 54.072 110.472 67.34 2.938 19.907 20.136 35.234 40.848 35.234h203.699c20.711 0 37.909-15.327 40.848-35.234 37.561-13.267 73.757-35.338 110.472-67.34a8.258 8.258 0 0 0-.003-12.45zm-181.58-141.112l17.455 38.538h-47.988l-5.818-38.538h36.351zm-90.121 0h37.067l5.818 38.538h-48.703l5.818-38.538zm-53.055 0h36.351l-5.818 38.538h-47.988l17.455-38.538zm173.437 239.62H154.151c-10.766 0-19.945-6.905-23.354-16.516h250.406c-3.409 9.613-12.587 16.516-23.354 16.516zm79.828-84.025h43.134c-30.326 23.825-60.375 40.597-91.313 50.993H122.502c-30.938-10.396-60.987-27.168-91.313-50.993h373.456a8.258 8.258 0 0 0 8.258-8.258 8.258 8.258 0 0 0-8.258-8.258H31.188c30.722-24.138 61.155-41.046 92.521-51.41a8.26 8.26 0 0 0 5.667-7.842c0-13.661 11.113-24.774 24.774-24.774h203.666c13.714.022 24.807 11.126 24.807 24.774a8.262 8.262 0 0 0 5.667 7.842c31.366 10.364 61.799 27.273 92.521 51.41h-43.135a8.258 8.258 0 1 0 .001 16.516z"/><path d="M357.849 207.761H154.151c-4.561 0-8.258 3.697-8.258 8.258s3.697 8.258 8.258 8.258H357.85a8.258 8.258 0 1 0-.001-16.516z"/></svg>