<svg xmlns="http://www.w3.org/2000/svg" viewBox="0 0 512 512"><path d="M421.081 100.605c-21.038-18.333-48.584-34.174-76.106-43.838L326.113 5.412A8.257 8.257 0 0 0 318.362 0H193.638a8.257 8.257 0 0 0-7.752 5.412l-18.861 51.355c-27.523 9.664-55.068 25.505-76.106 43.838a8.256 8.256 0 0 0 0 12.451c20.51 17.873 47.289 33.389 74.242 43.119v347.567c0 4.561 3.696 8.258 8.258 8.258s8.258-3.697 8.258-8.258V191.587h148.645v312.155A8.257 8.257 0 0 0 338.58 512a8.257 8.257 0 0 0 8.258-8.258V156.175c26.953-9.73 53.732-25.247 74.242-43.119a8.255 8.255 0 0 0 .001-12.451zM199.404 16.516h113.194l14.153 38.538H185.249l14.155-38.538zm130.919 158.555H181.677v-16.516h148.645v16.516zm8.258-59.982h52.746c-16.51 11.187-35.328 20.617-54.088 26.95H174.762c-18.76-6.333-37.577-15.763-54.088-26.95h184.875a8.257 8.257 0 0 0 8.258-8.258 8.257 8.257 0 0 0-8.258-8.258H120.651c16.551-11.233 35.394-20.675 54.144-27.003h162.409c18.75 6.328 37.593 15.77 54.144 27.003H338.58a8.26 8.26 0 0 0 .001 16.516z"/><path d="M305.548 307.751h-46.796v-13.763c0-4.561-3.696-8.258-8.258-8.258s-8.258 3.697-8.258 8.258v13.763H225.72v-13.763a8.257 8.257 0 0 0-8.258-8.258 8.257 8.257 0 0 0-8.258 8.258v13.763h-2.753c-4.562 0-8.258 3.697-8.258 8.258s3.696 8.258 8.258 8.258h2.753v19.269c0 12.731 9.652 23.244 22.022 24.618v24.931c0 4.561 3.696 8.258 8.258 8.258s8.258-3.697 8.258-8.258V368.31h16.516v24.774c0 4.561 3.696 8.258 8.258 8.258s8.258-3.697 8.258-8.258V368.31h16.516v24.774c0 4.561 3.696 8.258 8.258 8.258s8.258-3.697 8.258-8.258v-77.075a8.257 8.257 0 0 0-8.258-8.258zm-8.258 44.043h-63.312c-4.554 0-8.258-3.704-8.258-8.258v-19.269h71.57v27.527z"/></svg>