<svg xmlns="http://www.w3.org/2000/svg" viewBox="0 0 512 512"><path d="M185.215 217.419c-10.066-3.663-20.52-5.521-31.071-5.521-25.755 0-49.519 10.915-65.198 29.946a8.269 8.269 0 0 0-1.884 5.176c-.32 35.45 23.007 67.837 58.045 80.591 10.065 3.663 20.518 5.521 31.073 5.521 5.924 0 11.741-.585 17.38-1.706-8.029 5.764-16.349 9.949-24.637 12.265a8.258 8.258 0 0 0 4.443 15.907c25.232-7.047 50.251-27.949 68.637-57.303a8.329 8.329 0 0 0 1.256-4.285c.322-35.45-23.005-67.837-58.044-80.591zm-9.036 99.198c-8.619 0-17.173-1.523-25.422-4.525-27.492-10.005-46.113-34.667-47.137-61.975 12.517-13.83 30.761-21.702 50.524-21.702 8.619 0 17.172 1.522 25.422 4.525 27.492 10.005 46.113 34.667 47.137 61.975-12.52 13.83-30.761 21.702-50.524 21.702z"/><path d="M484.473 228.473C484.473 102.492 381.981 0 256 0S27.527 102.492 27.527 228.473c0 30.163 5.819 59.476 17.303 87.17a90.799 90.799 0 0 0 21.373 71.384c13.476 15.554 31.808 26.07 51.887 29.83l49.662 55.576C190.228 497.578 222.393 512 256 512c33.607 0 65.772-14.422 88.249-39.568l49.661-55.576c20.079-3.76 38.411-14.275 51.887-29.83a90.794 90.794 0 0 0 22.16-59.456c0-3.958-.264-7.959-.786-11.926 11.483-27.695 17.302-57.009 17.302-87.171zm-96.042 172.565a8.26 8.26 0 0 0-4.913 2.661l-51.584 57.728c-19.345 21.643-47.022 34.056-75.933 34.056-28.911 0-56.589-12.414-75.933-34.057l-51.585-57.728a8.26 8.26 0 0 0-4.913-2.661c-35.92-5.48-63.009-37.063-63.009-73.467 0-3.89.313-7.834.928-11.721a8.257 8.257 0 0 0-.56-4.532c-11.203-26.266-16.884-54.139-16.884-82.844 0-116.874 95.083-211.957 211.957-211.957s211.957 95.083 211.957 211.957c0 28.704-5.68 56.577-16.883 82.844a8.26 8.26 0 0 0-.562 4.53c.617 3.89.928 7.834.928 11.723-.001 36.404-27.09 67.987-63.011 73.468z"/><circle cx="189.935" cy="68.817" r="8.258"/><circle cx="222.968" cy="101.849" r="8.258"/><circle cx="123.871" cy="173.419" r="8.258"/><circle cx="388.129" cy="140.387" r="8.258"/><path d="M423.054 241.845c-15.679-19.031-39.444-29.946-65.198-29.946-10.552 0-21.005 1.858-31.071 5.521-35.038 12.754-58.366 45.141-58.045 80.591a8.264 8.264 0 0 0 1.267 4.301c18.386 29.355 43.393 50.24 68.626 57.288a8.286 8.286 0 0 0 2.225.306 8.258 8.258 0 0 0 2.218-16.213c-8.288-2.314-16.607-6.5-24.637-12.265a89.143 89.143 0 0 0 17.383 1.706c10.552 0 21.005-1.857 31.071-5.521 35.038-12.754 58.366-45.141 58.045-80.591a8.267 8.267 0 0 0-1.884-5.177zm-61.811 70.247c-8.249 3.004-16.802 4.525-25.422 4.525-19.763 0-38.007-7.873-50.524-21.702 1.024-27.308 19.645-51.969 47.137-61.975 8.249-3.004 16.802-4.525 25.422-4.525 19.763 0 38.007 7.873 50.524 21.702-1.024 27.308-19.645 51.969-47.137 61.975zm-121.759 53.512a8.257 8.257 0 0 0-8.258 8.258v33.032c0 4.561 3.696 8.258 8.258 8.258s8.258-3.697 8.258-8.258v-33.032a8.258 8.258 0 0 0-8.258-8.258zm33.032 0a8.257 8.257 0 0 0-8.258 8.258v33.032c0 4.561 3.696 8.258 8.258 8.258s8.258-3.697 8.258-8.258v-33.032a8.258 8.258 0 0 0-8.258-8.258zm11.011 77.076h-8.738a8.253 8.253 0 0 0-13.617-8.592l-5.171 5.172-5.171-5.172a8.258 8.258 0 0 0-11.679 0 8.25 8.25 0 0 0-1.938 8.592h-8.74c-4.562 0-8.258 3.697-8.258 8.258s3.696 8.258 8.258 8.258h55.054c4.562 0 8.258-3.697 8.258-8.258s-3.696-8.258-8.258-8.258z"/></svg>