<svg xmlns="http://www.w3.org/2000/svg" viewBox="0 0 511.999 511.999"><path d="M70.484 325.719c-9.659-9.661-25.376-9.659-35.035 0a8.257 8.257 0 0 0 0 11.678 8.257 8.257 0 0 0 11.678 0c1.56-1.56 3.633-2.419 5.839-2.419s4.28.859 5.84 2.419 2.419 3.633 2.419 5.84c0 2.205-.859 4.28-2.419 5.839a8.26 8.26 0 0 0 11.679 11.679c9.659-9.66 9.659-25.376-.001-35.036zm208.645 58.806c-9.658-9.658-25.376-9.657-35.034 0a8.257 8.257 0 0 0 0 11.678 8.257 8.257 0 0 0 11.678 0c3.219-3.218 8.459-3.219 11.678 0 3.221 3.219 3.221 8.458 0 11.678a8.262 8.262 0 0 0 .001 11.681 8.233 8.233 0 0 0 5.839 2.418 8.233 8.233 0 0 0 5.84-2.419c9.657-9.661 9.656-25.377-.002-35.036z"/><circle cx="80.475" cy="279.598" r="8.258"/><circle cx="102.496" cy="246.567" r="8.258"/><circle cx="317.694" cy="353.918" r="8.258"/><path d="M509.581 64.702L447.297 2.419a8.258 8.258 0 0 0-11.679 0L390.467 47.57l-45.161 45.161a8.257 8.257 0 0 0 0 11.678l25.303 25.303-11.679 11.678-25.302-25.302a8.258 8.258 0 0 0-11.679 0l-30.325 30.325a194.357 194.357 0 0 0-34.751-15.379 7.972 7.972 0 0 0-1.144-.385 195.677 195.677 0 0 0-60.294-9.518c-20.974 0-41.181 3.335-60.134 9.479a8.278 8.278 0 0 0-1.297.422C56.244 156.843 0 230.254 0 316.564c0 86.339 56.281 159.769 134.078 185.558.416.172.839.312 1.266.412 18.941 6.135 39.132 9.465 60.089 9.465 20.974 0 41.18-3.335 60.133-9.478a8.19 8.19 0 0 0 1.298-.423c77.76-25.813 134.004-99.224 134.004-185.534 0-23.383-4.091-46.26-12.16-67.996a8.26 8.26 0 0 0-10.616-4.868 8.26 8.26 0 0 0-4.868 10.616c7.385 19.89 11.128 40.833 11.128 62.247 0 76.944-48.823 142.696-117.117 167.912a74.254 74.254 0 0 0-61.802-33.034 74.255 74.255 0 0 0-61.802 33.034C65.34 459.261 16.516 393.509 16.516 316.564S65.34 173.867 133.632 148.652a74.251 74.251 0 0 0 61.802 33.035 74.254 74.254 0 0 0 61.805-33.038 177.83 177.83 0 0 1 22.209 9.939l-19.784 19.784a8.257 8.257 0 0 0 0 11.678l25.303 25.303-11.678 11.679-25.303-25.303a8.257 8.257 0 0 0-11.678 0l-90.312 90.312a8.257 8.257 0 0 0 0 11.678l62.284 62.285a8.255 8.255 0 0 0 11.678 0l90.313-90.312a8.259 8.259 0 0 0 0-11.678l-25.303-25.303 11.678-11.678 25.302 25.302a8.238 8.238 0 0 0 5.84 2.419 8.233 8.233 0 0 0 5.84-2.419l62.284-62.284a8.257 8.257 0 0 0 0-11.678l-25.303-25.303 11.679-11.678 25.302 25.302a8.238 8.238 0 0 0 5.84 2.419 8.233 8.233 0 0 0 5.84-2.419l90.312-90.312a8.259 8.259 0 0 0-.001-11.68zM195.435 467.957a57.755 57.755 0 0 1 45.18 21.743c-14.438 3.77-29.578 5.783-45.18 5.783s-30.742-2.013-45.18-5.783a57.755 57.755 0 0 1 45.18-21.743zm0-302.786a57.755 57.755 0 0 1-45.18-21.743 178.61 178.61 0 0 1 45.18-5.783c15.337 0 30.505 1.982 45.168 5.798a57.755 57.755 0 0 1-45.168 21.728zm18.685 183.315l-50.606-50.606 33.478-33.478 50.606 50.606-33.478 33.478zm78.635-78.635l-33.479 33.478-50.606-50.606 33.478-33.478 25.301 25.301 25.306 25.305zm85.639-85.641l-50.606 50.606-25.297-25.297-25.308-25.308 50.606-50.606 25.298 25.297 25.307 25.308zm35.035-35.035l-25.297-25.297-25.308-25.309 33.477-33.477 50.606 50.606-33.478 33.477zm45.156-45.156l-50.606-50.606 33.478-33.478 50.606 50.606-33.478 33.478z"/></svg>