<svg xmlns="http://www.w3.org/2000/svg" viewBox="0 0 512 512"><circle cx="314.731" cy="205.163" r="8.258"/><path d="M426.667 297.29h-8.258V8.258A8.258 8.258 0 0 0 410.151 0H101.849a8.258 8.258 0 0 0-8.258 8.258V297.29h-8.258a8.258 8.258 0 0 0-8.258 8.258v198.194A8.258 8.258 0 0 0 85.333 512h341.333a8.258 8.258 0 0 0 8.258-8.258V305.548a8.257 8.257 0 0 0-8.257-8.258zM110.108 16.516h291.785V297.29H110.108V16.516zm308.301 478.968H93.591V313.806h324.817v181.678z"/><path d="M393.634 330.323H289.032a8.258 8.258 0 0 0-8.258 8.258v55.054a8.258 8.258 0 0 0 8.258 8.258h104.602a8.258 8.258 0 0 0 8.258-8.258v-55.054a8.258 8.258 0 0 0-8.258-8.258zm-8.258 55.053H297.29v-38.538h88.086v38.538zM217.462 198.194c-22.768 0-41.29 18.522-41.29 41.29s18.522 41.29 41.29 41.29 41.29-18.522 41.29-41.29c.001-22.768-18.522-41.29-41.29-41.29zm0 66.064c-13.661 0-24.774-11.113-24.774-24.774 0-13.661 11.113-24.774 24.774-24.774 13.661 0 24.774 11.113 24.774 24.774.001 13.661-11.113 24.774-24.774 24.774zm64.237-122.411c-13.661 0-24.774 11.113-24.774 24.774 0 13.661 11.113 24.774 24.774 24.774 13.661 0 24.774-11.113 24.774-24.774 0-13.661-11.113-24.774-24.774-24.774zm0 33.032c-4.554 0-8.258-3.704-8.258-8.258 0-4.554 3.704-8.258 8.258-8.258s8.258 3.704 8.258 8.258c0 4.554-3.704 8.258-8.258 8.258z"/><path d="M332.99 139.23a96.45 96.45 0 0 0-20.324-39.448 8.255 8.255 0 0 0-9.238-2.335 24.64 24.64 0 0 1-8.891 1.651c-12.765 0-23.605-9.953-24.676-22.657a8.258 8.258 0 0 0-6.158-7.3 96.663 96.663 0 0 0-24.219-3.075c-53.125 0-96.344 43.219-96.344 96.344v66.065c0 16.94 4.463 33.602 12.906 48.184a8.255 8.255 0 0 0 11.285 3.009 8.26 8.26 0 0 0 3.009-11.285c-6.99-12.071-10.684-25.871-10.684-39.908v-25.606c18.824-3.836 33.032-20.519 33.032-40.459 0-16.278-9.534-30.69-23.72-37.362 13.427-25.238 39.991-42.466 70.516-42.466a80.32 80.32 0 0 1 14.916 1.394c4.4 18.164 20.966 31.638 40.138 31.638a41.26 41.26 0 0 0 8.885-.963c6.992 9.355 11.878 20.185 14.23 31.615a8.258 8.258 0 0 0 4.182 5.611c18.82 10.103 30.51 29.631 30.51 50.961v25.636c0 14.036-3.693 27.836-10.682 39.907a8.258 8.258 0 0 0 14.293 8.275c8.443-14.583 12.905-31.243 12.905-48.182v-25.636a74.254 74.254 0 0 0-35.871-63.608zm-156.818 23.179c0 10.766-6.905 19.945-16.516 23.354v-23.354c0-7.63 1.099-15.004 3.107-21.998 8.05 4.16 13.409 12.548 13.409 21.998z"/></svg>