<svg xmlns="http://www.w3.org/2000/svg" viewBox="0 0 512.001 512.001"><circle cx="407.751" cy="36.787" r="8.258"/><circle cx="431.116" cy="13.43" r="8.258"/><path d="M308.488 198.343c-7.799-7.799-18.168-12.093-29.196-12.093s-21.398 4.294-29.197 12.093c-7.799 7.799-12.093 18.168-12.093 29.196s4.294 21.398 12.093 29.197c7.799 7.799 18.168 12.094 29.197 12.094s21.398-4.295 29.196-12.094c7.799-7.799 12.094-18.168 12.094-29.197s-4.295-21.398-12.094-29.196zm-11.679 46.714c-4.68 4.68-10.901 7.256-17.518 7.256-6.617 0-12.839-2.578-17.518-7.256-4.68-4.68-7.256-10.901-7.256-17.518 0-6.617 2.577-12.839 7.256-17.518s10.901-7.256 17.518-7.256a24.613 24.613 0 0 1 17.518 7.256c4.68 4.68 7.256 10.901 7.256 17.518 0 6.617-2.577 12.838-7.256 17.518z"/><path d="M354.881 292.151c-3.21-3.24-8.439-3.266-11.678-.057-17.088 16.92-39.784 26.24-63.91 26.24-24.296-.002-47.107-9.435-64.235-26.562-35.244-35.245-35.387-92.73-.32-128.143a8.257 8.257 0 0 0-.057-11.678 8.256 8.256 0 0 0-11.678.057c-41.445 41.853-41.275 109.79.378 151.444 20.247 20.247 47.205 31.397 75.911 31.397 28.507 0 55.331-11.016 75.532-31.019a8.26 8.26 0 0 0 .057-11.679z"/><path d="M512.001 87.395c0-8.087-3.149-15.691-8.869-21.41-5.719-5.719-13.323-8.869-21.41-8.869s-15.691 3.149-21.41 8.869a8.257 8.257 0 0 0 0 11.678 8.257 8.257 0 0 0 11.678 0c2.6-2.6 6.056-4.031 9.732-4.031 3.677 0 7.133 1.431 9.732 4.031 2.6 2.6 4.031 6.056 4.031 9.732 0 3.677-1.431 7.133-4.031 9.732L320.166 268.414c-10.918 10.918-25.435 16.931-40.875 16.931s-29.957-6.013-40.875-16.931-16.931-25.435-16.931-40.875 6.013-29.957 16.931-40.875l120.68-120.68c2.599-2.6 6.056-4.031 9.731-4.031s7.133 1.431 9.732 4.031c5.367 5.367 5.367 14.098 0 19.465l-15.571 15.571c-5.719 5.719-8.869 13.323-8.869 21.41 0 8.089 3.149 15.691 8.869 21.41 5.719 5.719 13.323 8.869 21.41 8.869s15.691-3.149 21.41-8.869l42.822-42.822a8.257 8.257 0 0 0 0-11.678 8.257 8.257 0 0 0-11.678 0l-42.822 42.822a13.672 13.672 0 0 1-9.732 4.031 13.666 13.666 0 0 1-9.732-4.032 13.67 13.67 0 0 1-4.031-9.731c0-3.675 1.431-7.133 4.031-9.732l15.571-15.571c11.806-11.806 11.806-31.015 0-42.822-5.719-5.719-13.323-8.869-21.41-8.869-8.089 0-15.691 3.149-21.41 8.869l-76.682 76.682c-23.853-9.979-49.152-15.04-75.294-15.04C87.674 115.947 0 203.621 0 311.388s87.674 195.441 195.441 195.441 195.442-87.674 195.442-195.441c0-26.142-5.061-51.441-15.04-75.294l127.289-127.289c5.72-5.718 8.869-13.323 8.869-21.41zM141.344 481.947c-21.55-6.851-41.341-17.681-58.51-31.624 2.098-17.732 17.289-31.579 35.533-31.579 19.731 0 35.785 16.054 35.785 35.785 0 10.657-4.733 20.647-12.808 27.418zm54.098 8.366a179.039 179.039 0 0 1-35.85-3.61 52.225 52.225 0 0 0 11.076-32.174c0-28.838-23.463-52.301-52.301-52.301-22.875 0-42.46 14.902-49.502 35.501-32.329-32.389-52.347-77.07-52.347-126.34 0-98.66 80.265-178.925 178.925-178.925 21.627 0 42.615 3.791 62.564 11.253l-31.268 31.268c-14.038 14.038-21.769 32.702-21.769 52.553 0 19.852 7.731 38.517 21.769 52.553 14.038 14.038 32.701 21.769 52.553 21.769 19.852 0 38.516-7.731 52.553-21.769l31.268-31.268c7.463 19.949 11.254 40.938 11.254 62.565 0 98.66-80.265 178.925-178.925 178.925z"/><path d="M79.829 253.581c-13.661 0-24.774 11.113-24.774 24.774 0 13.661 11.113 24.774 24.774 24.774 13.661 0 24.774-11.113 24.774-24.774 0-13.66-11.113-24.774-24.774-24.774zm0 33.033c-4.554 0-8.258-3.704-8.258-8.258 0-4.554 3.704-8.258 8.258-8.258 4.554 0 8.258 3.704 8.258 8.258s-3.704 8.258-8.258 8.258z"/><circle cx="112.861" cy="228.804" r="8.258"/><circle cx="293.768" cy="398.37" r="8.258"/><path d="M227.698 357.083c-22.768 0-41.29 18.522-41.29 41.29 0 3.605.472 7.2 1.404 10.685 1.178 4.407 5.707 7.025 10.111 5.845a8.258 8.258 0 0 0 5.845-10.111 24.851 24.851 0 0 1-.845-6.418c0-13.661 11.113-24.774 24.774-24.774 13.661 0 24.774 11.113 24.774 24.774 0 13.661-11.113 24.774-24.774 24.774-2.164 0-4.324-.284-6.418-.843a8.258 8.258 0 1 0-4.264 15.956 41.376 41.376 0 0 0 10.683 1.404c22.768 0 41.29-18.522 41.29-41.29-.001-22.77-18.522-41.292-41.29-41.292z"/></svg>