<svg xmlns="http://www.w3.org/2000/svg" viewBox="0 0 512 512"><path d="M437.019 74.981C388.666 26.628 324.38 0 256 0S123.334 26.628 74.981 74.981C26.63 123.333 0 187.62 0 256s26.63 132.667 74.981 181.019C123.334 485.372 187.62 512 256 512s132.666-26.628 181.019-74.981C485.37 388.667 512 324.38 512 256s-26.63-132.667-74.981-181.019zM256 495.484c-19.913 0-39.26-2.459-57.769-7.061 35.275-16.318 66.518-40.552 91.291-71.002a8.258 8.258 0 0 0-12.811-10.423c-27.278 33.53-62.93 59.004-103.247 73.825C81.956 447.122 16.516 359.061 16.516 256c0-103.058 65.438-191.119 156.944-224.821C267.408 65.707 330.323 155.668 330.323 256c0 44.226-12.154 87.431-35.147 124.943a8.259 8.259 0 0 0 14.082 8.631c24.586-40.111 37.582-86.3 37.582-133.574 0-100.307-58.828-190.918-148.602-232.425a239.194 239.194 0 0 1 57.763-7.059c132.052 0 239.484 107.432 239.484 239.484S388.052 495.484 256 495.484z"/><circle cx="49.548" cy="256" r="8.258"/><circle cx="110.019" cy="401.981" r="8.258"/><circle cx="82.581" cy="289.032" r="8.258"/><circle cx="236.819" cy="110.019" r="8.258"/><circle cx="203.787" cy="143.052" r="8.258"/></svg>