<svg xmlns="http://www.w3.org/2000/svg" viewBox="0 0 512 512"><path d="M307.521 226.356c-13.603-6.802-31.506-10.548-50.411-10.548-18.904 0-36.808 3.746-50.41 10.548-15.422 7.71-23.917 18.629-23.917 30.745 0 12.115 8.494 23.034 23.917 30.745 13.603 6.802 31.506 10.548 50.41 10.548 18.905 0 36.808-3.746 50.411-10.548 15.422-7.711 23.916-18.63 23.916-30.745 0-12.114-8.493-23.033-23.916-30.745zm-50.411 55.521c-33.087 0-57.81-13.08-57.81-24.776 0-11.695 24.723-24.776 57.81-24.776s57.81 13.08 57.81 24.776c0 11.695-24.723 24.776-57.81 24.776z"/><circle cx="19.678" cy="35.961" r="8.259"/><circle cx="52.712" cy="108.638" r="8.259"/><circle cx="97.451" cy="463.568" r="8.259"/><circle cx="493.442" cy="411.077" r="8.259"/><circle cx="493.442" cy="378.042" r="8.259"/><circle cx="257.116" cy="323.173" r="8.259"/><circle cx="257.116" cy="191.036" r="8.259"/><circle cx="257.116" cy="158.002" r="8.259"/><circle cx="290.15" cy="191.036" r="8.259"/><circle cx="158.013" cy="257.105" r="8.259"/><circle cx="356.218" cy="235.082" r="8.259"/><circle cx="224.082" cy="345.196" r="8.259"/><circle cx="412.178" cy="19.668" r="8.259"/><path d="M504.459 152.27c-9.679-38.683-28.357-75.328-54.011-105.97a8.26 8.26 0 0 0-13.39 9.591c47.84 78.704 47.418 172.763-1.073 239.645-2.046 2.723-4.106 5.127-6.285 7.669-2.155 2.514-4.38 5.11-6.638 8.085-11.5 11.441-26.432 23.765-44.097 32.823 14.461-11.979 26.923-26.875 36.782-44.226 20.414-35.921 27.775-79.998 20.196-120.929l-.023-.116c-6.565-32.829-16.715-57.247-33.929-81.634-27.341-38.854-64.473-66.482-113.619-84.501C248.509-1.32 204.386-3.788 160.78 5.572c-41.868 8.985-81.452 28.347-114.47 55.99a8.258 8.258 0 0 0-1.412 11.141 8.256 8.256 0 0 0 11.003 2.247c78.705-47.84 172.761-47.418 239.643 1.071 2.726 2.047 5.13 4.108 7.676 6.29 2.513 2.155 5.108 4.378 8.081 6.635 11.487 11.547 23.864 26.552 32.931 44.311-10.301-12.488-22.755-23.502-37.039-32.599-32.368-20.616-71.683-30.178-110.699-26.927a8.258 8.258 0 1 0 1.372 16.46c75.077-6.258 143.73 39.113 159.721 105.533a8.253 8.253 0 0 0 8.72 6.296 8.258 8.258 0 0 0 7.548-7.662c3.529-51.197-25.937-92.152-51.277-117.495a8.275 8.275 0 0 0-.885-.767c-2.746-2.06-5.164-4.133-7.727-6.328-2.649-2.272-5.39-4.619-8.567-7.003-.035-.025-.069-.052-.106-.077-37.26-27.032-81.995-40.892-129.407-40.082-6.485.111-12.977.49-19.456 1.133 42.429-10.515 86.699-9.443 126.359 4.51C328.57 45.035 363.143 70.7 388.49 106.722c16.008 22.679 25.056 44.498 31.222 75.296 14.699 79.537-31.687 158.286-103.429 175.558a8.258 8.258 0 0 0 1.366 16.267c2.828.195 5.62.29 8.385.29 47.285-.001 85.167-27.625 109.109-51.567.276-.276.532-.573.766-.885 2.06-2.747 4.135-5.167 6.329-7.729 2.271-2.648 4.617-5.387 7-8.564.025-.035.053-.069.077-.106 27.033-37.261 40.894-82.009 40.082-129.408a238.45 238.45 0 0 0-1.216-20.28c9.354 37.079 9.817 75.647.372 111.502a8.259 8.259 0 0 0 15.973 4.208c9.974-37.842 9.95-79.005-.067-119.034z"/><path d="M212.122 415.739c35.922 20.415 80 27.777 120.928 20.196a4.73 4.73 0 0 0 .116-.022c32.833-6.567 57.249-16.716 81.635-33.93 34.869-24.537 60.517-56.693 78.412-98.308a8.257 8.257 0 0 0-4.324-10.849c-4.19-1.8-9.048.135-10.849 4.324-16.652 38.726-40.447 68.599-72.754 91.333-22.677 16.008-44.495 25.055-75.299 31.222-79.534 14.702-158.284-31.689-175.554-103.429a8.245 8.245 0 0 0-8.72-6.296 8.257 8.257 0 0 0-7.548 7.662c-3.531 51.198 25.936 92.153 51.277 117.495.276.276.573.533.885.768 2.746 2.06 5.164 4.133 7.726 6.328 2.65 2.272 5.39 4.619 8.568 7.002l.106.078c37.262 27.033 82.036 40.883 129.407 40.082 6.485-.111 12.976-.49 19.456-1.133-42.43 10.514-86.699 9.444-126.36-4.51-45.78-16.787-80.353-42.452-105.701-78.472-16.008-22.68-25.056-44.498-31.222-75.299-14.7-79.537 31.687-158.283 103.428-175.554a8.257 8.257 0 0 0-1.365-16.267c-51.176-3.525-92.152 25.936-117.495 51.278a8.354 8.354 0 0 0-.766.884c-2.06 2.747-4.134 5.165-6.328 7.727-2.272 2.649-4.618 5.388-7.001 8.566-.025.035-.053.069-.077.106-27.033 37.261-40.894 82.01-40.082 129.408.111 6.484.489 12.975 1.132 19.454-10.517-42.435-9.446-86.693 4.511-126.358 16.785-45.78 42.451-80.353 78.471-105.701 18.773-13.252 37.282-21.802 60.016-27.727a8.26 8.26 0 0 0 5.909-10.074c-1.151-4.413-5.666-7.059-10.074-5.91-24.742 6.448-44.905 15.767-65.366 30.21-38.853 27.341-66.481 64.473-84.5 113.617-14.03 39.86-16.496 83.983-7.138 127.591 8.985 41.869 28.347 81.451 55.99 114.47a8.26 8.26 0 0 0 13.39-9.591c-47.839-78.704-47.419-172.757 1.07-239.64 2.047-2.726 4.108-5.13 6.29-7.676 2.155-2.514 4.379-5.109 6.637-8.082 11.501-11.442 26.428-23.766 44.097-32.824-14.461 11.979-26.923 26.877-36.782 44.226-20.414 35.921-27.775 79.998-20.196 120.929l.023.116c6.565 32.828 16.714 57.246 33.929 81.635 27.342 38.854 64.474 66.481 113.619 84.501 24.02 8.451 49.584 12.706 75.651 12.706 17.195 0 34.612-1.852 51.944-5.572 41.869-8.985 81.452-28.347 114.47-55.99a8.258 8.258 0 0 0 1.412-11.141 8.258 8.258 0 0 0-11.005-2.248c-78.705 47.84-172.76 47.42-239.639-1.069-2.728-2.048-5.132-4.109-7.679-6.292-2.513-2.155-5.108-4.378-8.081-6.637-11.441-11.499-23.764-26.428-32.822-44.093 11.978 14.461 26.872 26.92 44.222 36.78z"/></svg>