<svg xmlns="http://www.w3.org/2000/svg" viewBox="0 0 512 512"><path d="M412.551 135.53c-2.28-7.8-5.543-16.706-12.46-23.621-6.917-6.917-15.825-10.182-23.626-12.463a8.255 8.255 0 0 0-10.244 5.609 8.257 8.257 0 0 0 5.608 10.244c5.797 1.695 12.3 4.006 16.583 8.289 4.284 4.283 6.593 10.784 8.288 16.578a8.262 8.262 0 0 0 7.922 5.943c.766 0 1.547-.108 2.321-.335a8.258 8.258 0 0 0 5.608-10.244zM140.17 396.702c-5.796-1.696-12.298-4.006-16.582-8.289-4.283-4.283-6.593-10.784-8.288-16.578a8.258 8.258 0 0 0-15.852 4.636c2.281 7.799 5.546 16.704 12.461 23.62 6.916 6.917 15.824 10.182 23.625 12.462a8.243 8.243 0 0 0 2.322.335 8.261 8.261 0 0 0 7.922-5.941 8.257 8.257 0 0 0-5.608-10.245z"/><path d="M437.677 0c-24.152 0-46.885 11.818-60.816 31.621l-36.026 51.341a302.365 302.365 0 0 1-4.698-4.641c-7.928-7.953-16.126-16.177-27.398-19.186-11.447-3.055-22.721.014-33.627 2.983-6.856 1.866-13.332 3.629-19.112 3.629s-12.255-1.763-19.111-3.628c-10.907-2.97-22.187-6.038-33.628-2.983-11.272 3.009-19.469 11.233-27.397 19.185-5.076 5.093-9.87 9.902-15.012 12.875-4.825 2.789-11.184 4.462-17.917 6.232-10.521 2.766-22.445 5.902-31.025 14.481s-11.715 20.504-14.481 31.025c-1.771 6.733-3.442 13.093-6.232 17.917-2.973 5.141-7.782 9.935-12.874 15.011-7.953 7.928-16.177 16.126-19.186 27.398-3.055 11.443.014 22.722 2.983 33.628 1.866 6.856 3.628 13.331 3.628 19.111s-1.763 12.256-3.629 19.112c-2.969 10.906-6.038 22.183-2.983 33.627 3.009 11.272 11.233 19.47 19.186 27.399a302.376 302.376 0 0 1 4.641 4.697l-51.35 36.033C11.818 390.794 0 413.525 0 437.677 0 478.659 33.341 512 74.323 512c24.152 0 46.884-11.818 60.816-31.621l36.027-51.342a302.365 302.365 0 0 1 4.698 4.641c7.928 7.953 16.126 16.177 27.398 19.186 11.442 3.054 22.722-.015 33.627-2.983 6.856-1.866 13.332-3.629 19.111-3.629s12.256 1.763 19.112 3.629c7.71 2.099 15.606 4.248 23.615 4.248 3.32 0 6.659-.369 10.012-1.264 11.272-3.009 19.47-11.233 27.398-19.186 5.076-5.092 9.871-9.901 15.012-12.874 4.825-2.79 11.184-4.462 17.917-6.232 10.521-2.766 22.445-5.902 31.026-14.481 8.58-8.58 11.714-20.504 14.48-31.025 1.769-6.733 3.443-13.093 6.232-17.917 2.972-5.141 7.781-9.935 12.874-15.012 7.953-7.928 16.177-16.126 19.186-27.398 3.055-11.443-.014-22.722-2.983-33.629-1.866-6.855-3.629-13.331-3.629-19.111s1.763-12.255 3.629-19.11c2.969-10.907 6.038-22.184 2.983-33.628-3.008-11.272-11.232-19.47-19.186-27.398a298.018 298.018 0 0 1-4.641-4.697l51.35-36.033C500.182 121.206 512 98.475 512 74.323 512 33.341 478.659 0 437.677 0zM75.092 304.478c-1.906-7.141.459-15.83 2.963-25.029 2.069-7.602 4.208-15.461 4.208-23.45 0-7.987-2.139-15.848-4.208-23.448-2.504-9.2-4.869-17.888-2.962-25.03 1.862-6.974 8.19-13.282 14.889-19.961 5.628-5.61 11.447-11.41 15.512-18.441 3.9-6.745 5.937-14.492 7.907-21.984 2.451-9.321 4.766-18.125 10.187-23.547 5.422-5.421 14.225-7.736 23.546-10.187 7.492-1.97 15.238-4.007 21.983-7.907 7.031-4.065 12.832-9.884 18.443-15.512 6.678-6.699 12.985-13.027 19.96-14.889 7.142-1.904 15.831.459 25.03 2.962 7.601 2.069 15.461 4.208 23.448 4.208 7.988 0 15.849-2.139 23.45-4.208 9.198-2.504 17.888-4.867 25.029-2.963 6.975 1.862 13.282 8.19 19.961 14.889 2.209 2.215 4.468 4.463 6.816 6.632l-47.188 67.248A96.093 96.093 0 0 0 256 159.655c-53.125 0-96.344 43.219-96.344 96.344 0 9.6 1.422 19.014 4.184 28.083l-67.226 47.173c-2.17-2.349-4.417-4.607-6.632-6.816-6.699-6.676-13.028-12.986-14.89-19.961zM256 269.763c-7.59 0-13.763-6.174-13.763-13.763s6.174-13.763 13.763-13.763 13.763 6.174 13.763 13.763-6.173 13.763-13.763 13.763zm21.5 7.738l56.294-39.502A80.048 80.048 0 0 1 335.829 256c0 44.018-35.81 79.828-79.828 79.828-6.093 0-12.115-.728-17.966-2.085l39.465-56.242zm-43-43.001l-56.294 39.501A80.042 80.042 0 0 1 176.171 256c0-44.018 35.81-79.828 79.828-79.828 6.092 0 12.114.728 17.966 2.085L234.5 234.5zM121.624 470.884c-10.836 15.404-28.519 24.6-47.301 24.6-31.875 0-57.806-25.931-57.806-57.806 0-18.782 9.196-36.465 24.591-47.297l184.961-129.788c1.991 13.026 12.312 23.347 25.338 25.338l-29.584 42.159c-9.251-4.384-17.685-10.52-24.722-18.207a8.257 8.257 0 0 0-11.667-.515 8.257 8.257 0 0 0-.515 11.667 96.312 96.312 0 0 0 27.295 20.752l-90.59 129.097zM436.907 207.52c1.906 7.142-.458 15.831-2.962 25.03-2.069 7.601-4.208 15.461-4.208 23.448 0 7.988 2.139 15.848 4.208 23.45 2.504 9.198 4.869 17.888 2.962 25.03-1.862 6.974-8.19 13.282-14.889 19.961-5.628 5.61-11.447 11.41-15.513 18.442-3.9 6.745-5.937 14.492-7.907 21.984-2.451 9.321-4.765 18.125-10.186 23.547-5.423 5.421-14.227 7.736-23.548 10.187-7.492 1.97-15.239 4.007-21.984 7.907-7.031 4.065-12.832 9.884-18.442 15.512-6.678 6.699-12.986 13.028-19.961 14.89-7.141 1.905-15.83-.459-25.029-2.963-7.601-2.069-15.461-4.208-23.45-4.208-7.988 0-15.848 2.139-23.45 4.208-9.201 2.504-17.891 4.867-25.029 2.963-6.974-1.862-13.282-8.19-19.961-14.89-2.208-2.215-4.467-4.463-6.816-6.632l47.189-67.248a96.096 96.096 0 0 0 28.068 4.206c53.125 0 96.344-43.219 96.344-96.344a96.13 96.13 0 0 0-4.184-28.083l67.226-47.173c2.17 2.35 4.417 4.609 6.632 6.817 6.701 6.676 13.028 12.984 14.89 19.959zm33.985-85.901l-184.96 129.788c-1.991-13.027-12.312-23.348-25.338-25.339l29.584-42.16c9.251 4.384 17.685 10.52 24.722 18.207a8.259 8.259 0 0 0 12.183-11.152 96.312 96.312 0 0 0-27.295-20.752l90.587-129.096c10.837-15.404 28.519-24.6 47.302-24.6 31.874 0 57.806 25.931 57.806 57.806.001 18.784-9.196 36.467-24.591 47.298z"/></svg>