<svg xmlns="http://www.w3.org/2000/svg" viewBox="0 0 512.002 512.002"><path d="M448.688 225.722h-58.262c-4.121-37.11-35.676-66.065-73.867-66.065-.656 0-1.317.009-1.982.027-25.561-40.898-70.737-66.092-119.136-66.092-74.811 0-136.142 58.816-140.176 132.638C24.14 230.195 0 256.849 0 289.033c0 34.911 28.401 63.312 63.312 63.312h91.668c3.837 18.823 20.521 33.032 40.461 33.032h64.495l30.738 12.123 12.699 32.198a8.258 8.258 0 0 0 15.364 0l12.699-32.198 30.735-12.123h20.452c19.939 0 36.624-14.209 40.461-33.032h25.603c34.911 0 63.312-28.401 63.312-63.312.001-34.91-28.4-63.311-63.311-63.311zm-126.649 157.73a8.26 8.26 0 0 0-4.653 4.653l-6.332 16.056-6.332-16.056a8.26 8.26 0 0 0-4.653-4.653l-16.056-6.332 16.056-6.332a8.26 8.26 0 0 0 4.653-4.653l6.332-16.056 6.332 16.056a8.26 8.26 0 0 0 4.653 4.653l16.056 6.332-16.056 6.332zm126.649-47.623h-33.032a8.258 8.258 0 0 0-8.258 8.258c0 13.661-11.113 24.774-24.774 24.774h-20.452l-30.738-12.123-12.699-32.198a8.258 8.258 0 0 0-15.364 0l-12.698 32.198-30.737 12.123h-64.495c-13.661 0-24.774-11.113-24.774-24.774a8.258 8.258 0 0 0-8.258-8.258H63.312c-25.804 0-46.796-20.992-46.796-46.796s20.992-46.796 46.796-46.796a8.258 8.258 0 0 0 8.258-8.258c0-68.303 55.568-123.871 123.871-123.871 44.229 0 85.411 23.849 107.477 62.242a8.276 8.276 0 0 0 7.961 4.105 58.701 58.701 0 0 1 5.68-.282c31.875 0 57.806 25.931 57.806 57.806a8.258 8.258 0 0 0 8.258 8.258h66.065c25.804 0 46.796 20.992 46.796 46.796s-20.992 46.796-46.796 46.796z"/><circle cx="217.462" cy="156.904" r="8.258"/><circle cx="415.656" cy="300.044" r="8.258"/><circle cx="134.882" cy="294.539" r="8.258"/><circle cx="134.882" cy="228.474" r="8.258"/><circle cx="101.849" cy="261.506" r="8.258"/><circle cx="382.624" cy="421.162" r="8.258"/><circle cx="349.591" cy="454.195" r="8.258"/><circle cx="195.441" cy="57.808" r="8.258"/><circle cx="8.258" cy="495.485" r="8.258"/><circle cx="404.645" cy="108.457" r="8.258"/><circle cx="371.613" cy="75.425" r="8.258"/><circle cx="454.194" cy="16.517" r="8.258"/><path d="M110.384 418.986l-32.197-12.699-12.699-32.198a8.257 8.257 0 0 0-15.364.001l-12.699 32.197-32.196 12.699a8.256 8.256 0 0 0 0 15.364l32.197 12.699 12.699 32.198a8.257 8.257 0 0 0 15.364-.001l12.699-32.197 32.198-12.699a8.258 8.258 0 0 0-.002-15.364zM68.792 433a8.26 8.26 0 0 0-4.653 4.653l-6.332 16.055-6.332-16.056a8.26 8.26 0 0 0-4.653-4.653l-16.055-6.331 16.056-6.332a8.26 8.26 0 0 0 4.653-4.653l6.332-16.056 6.332 16.056a8.26 8.26 0 0 0 4.653 4.653l16.056 6.332L68.792 433zm179.226-179.176l-32.197-12.699-12.699-32.198a8.258 8.258 0 0 0-15.364 0l-12.699 32.198-32.198 12.699a8.258 8.258 0 0 0 0 15.364l32.198 12.699 12.699 32.198a8.258 8.258 0 0 0 15.364 0l12.699-32.198 32.198-12.699a8.258 8.258 0 0 0-.001-15.364zm-41.592 14.015a8.26 8.26 0 0 0-4.653 4.653l-6.332 16.056-6.332-16.056a8.26 8.26 0 0 0-4.653-4.653l-16.056-6.332 16.056-6.332a8.26 8.26 0 0 0 4.653-4.653l6.332-16.056 6.332 16.056a8.26 8.26 0 0 0 4.653 4.653l16.056 6.332-16.056 6.332zm300.347-123.021l-32.199-12.699-12.699-32.198a8.257 8.257 0 0 0-15.364.001l-12.699 32.197-32.198 12.699a8.258 8.258 0 0 0 .001 15.364l32.198 12.699 12.699 32.198a8.258 8.258 0 0 0 15.364 0l12.699-32.198 32.198-12.699a8.258 8.258 0 0 0 0-15.364zm-41.594 14.014a8.26 8.26 0 0 0-4.653 4.653l-6.332 16.056-6.332-16.056a8.26 8.26 0 0 0-4.653-4.653l-16.056-6.332 16.056-6.332a8.26 8.26 0 0 0 4.653-4.653l6.332-16.056 6.332 16.056a8.26 8.26 0 0 0 4.653 4.653l16.056 6.332-16.056 6.332z"/></svg>