<svg xmlns="http://www.w3.org/2000/svg" viewBox="0 0 512 512"><path d="M256 74.323c-100.177 0-181.677 81.5-181.677 181.677S155.823 437.677 256 437.677 437.677 356.177 437.677 256 356.177 74.323 256 74.323zm0 346.838c-88.27 0-160.587-69.604-164.951-156.811 78.644 1.692 118.46 26.966 160.526 53.674 33.662 21.373 68.391 43.402 123.542 52.266C345.04 401.625 302.76 421.161 256 421.161zm4.427-117.079c-42.223-26.808-85.839-54.498-169.385-56.251 1.671-34.149 13.766-65.602 33.158-91.247 57.715 7.122 91.586 28.61 127.381 51.332 30.749 19.52 62.544 39.703 109.947 49.749a8.313 8.313 0 0 0 1.72.182 8.258 8.258 0 0 0 1.705-16.339c-44.488-9.429-73.648-27.939-104.518-47.536-33.665-21.371-68.398-43.398-123.549-52.261C166.96 110.375 209.24 90.839 256 90.839c88.269 0 160.585 69.602 164.951 156.806a344.838 344.838 0 0 1-23.822-1.337 8.256 8.256 0 1 0-1.515 16.445c8.182.754 16.676 1.225 25.343 1.412-1.671 34.151-13.766 65.605-33.158 91.252-57.713-7.12-91.581-28.611-127.372-51.335z"/><circle cx="133.924" cy="205.439" r="8.258"/><circle cx="256" cy="388.129" r="8.258"/><circle cx="222.968" cy="355.097" r="8.258"/><path d="M382.911 33.63C344.441 11.63 300.556 0 256 0c-54.297 0-105.862 16.675-149.609 48.278-7.155-5.946-16.341-9.528-26.35-9.528-22.768 0-41.29 18.522-41.29 41.29s18.522 41.291 41.29 41.291 41.29-18.522 41.29-41.29c0-6.797-1.66-13.208-4.583-18.869C157.519 31.938 205.495 16.516 256 16.516c41.685 0 82.734 10.875 118.711 31.451a8.257 8.257 0 0 0 11.268-3.069 8.256 8.256 0 0 0-3.068-11.268zM80.042 104.816c-13.661 0-24.774-11.113-24.774-24.774s11.113-24.774 24.774-24.774 24.774 11.113 24.774 24.774-11.113 24.774-24.774 24.774zm383.68 1.575c5.946-7.155 9.528-16.341 9.528-26.35 0-22.768-18.522-41.29-41.29-41.29s-41.29 18.522-41.29 41.29 18.522 41.29 41.29 41.29a41.029 41.029 0 0 0 18.869-4.583c29.234 40.77 44.655 88.746 44.655 139.251 0 41.685-10.875 82.735-31.451 118.711a8.256 8.256 0 0 0 3.069 11.268 8.254 8.254 0 0 0 11.269-3.069C500.37 344.442 512 300.556 512 256c0-54.296-16.675-105.862-48.278-149.609zm-31.764-1.575c-13.661 0-24.774-11.113-24.774-24.774s11.113-24.774 24.774-24.774 24.774 11.113 24.774 24.774-11.112 24.774-24.774 24.774zm0 285.852c-22.768 0-41.29 18.522-41.29 41.29 0 6.797 1.66 13.208 4.583 18.869-40.77 29.235-88.746 44.656-139.251 44.656C123.948 495.484 16.516 388.052 16.516 256c0-41.685 10.875-82.735 31.451-118.711a8.256 8.256 0 0 0-3.069-11.268 8.255 8.255 0 0 0-11.268 3.069C11.63 167.558 0 211.444 0 256c0 68.38 26.628 132.667 74.981 181.019C123.334 485.37 187.62 512 256 512c54.297 0 105.862-16.675 149.609-48.278 7.155 5.946 16.341 9.528 26.35 9.528 22.768 0 41.29-18.522 41.29-41.29s-18.522-41.292-41.291-41.292zm0 66.065c-13.661 0-24.774-11.113-24.774-24.774s11.113-24.774 24.774-24.774 24.774 11.113 24.774 24.774-11.112 24.774-24.774 24.774z"/></svg>