<svg xmlns="http://www.w3.org/2000/svg" viewBox="0 0 512 512"><path d="M475.413 97.855c-10.339-10.339-22.601-18.6-36.45-24.649-6.018-13.799-14.316-26.116-24.845-36.645-23.9-23.9-57.51-36.534-97.197-36.534-69.799 0-149.862 38.392-214.169 102.699-49.959 49.961-84.54 109.484-97.373 167.605-13.126 59.454-2.042 110.508 31.209 143.759 10.45 10.449 22.757 18.745 36.615 24.773 6.051 13.877 14.323 26.164 24.68 36.522 24.134 24.133 57.638 36.588 96.931 36.588 14.847 0 30.525-1.779 46.829-5.379 58.121-12.831 117.645-47.413 167.605-97.374 49.961-49.961 84.542-109.484 97.374-167.605 13.125-59.454 2.042-110.508-31.209-143.76zM48.264 402.415c-29.126-29.125-38.628-74.768-26.76-128.523 12.162-55.086 45.163-111.727 92.926-159.49C175.708 53.123 251.406 16.54 316.921 16.54c35.21 0 64.785 10.961 85.52 31.697 9.535 9.535 16.953 20.85 22.22 33.631.141.452.324.891.539 1.312 10.344 26.025 11.852 58.025 4.002 93.58-12.162 55.086-45.163 111.728-92.926 159.49-61.278 61.278-136.977 97.862-202.491 97.862-35.211-.001-64.784-10.962-85.521-31.697zm442.233-164.361c-12.162 55.086-45.163 111.728-92.926 159.49-47.762 47.762-104.403 80.764-159.489 92.926-53.757 11.868-99.399 2.364-128.522-26.761-5.224-5.224-9.82-11.043-13.801-17.369 7.533 1.797 15.4 3.039 23.567 3.705a81.166 81.166 0 0 0 1.909 1.988c22.202 22.201 52.411 26.861 73.844 26.861 10.017 0 20.654-1.007 31.617-2.993a8.255 8.255 0 0 0 6.652-9.596 8.253 8.253 0 0 0-9.596-6.652c-9.995 1.811-19.642 2.729-28.674 2.729-14.355 0-33.219-2.35-49.47-12.133 66.897-4.022 141.64-41.616 202.344-102.321 49.961-49.961 84.542-109.484 97.374-167.605 2.635-11.939 4.278-23.53 4.978-34.716 12.73 21.055 15.597 50.666 7.945 85.331-10.822 49.014-40.664 99.89-84.031 143.257-27.973 27.973-59.989 50.912-92.585 66.333-8.969 4.243-18.099 7.959-27.136 11.046a8.256 8.256 0 1 0 5.337 15.626c9.622-3.286 19.333-7.238 28.861-11.746 34.29-16.223 67.903-40.284 97.202-69.583 45.564-45.565 76.986-99.323 88.477-151.373 10.61-48.056 2.684-88.289-22.314-113.289a81.13 81.13 0 0 0-1.926-1.849c-.654-8.159-1.884-16.028-3.681-23.572 6.295 3.97 12.085 8.548 17.284 13.747 29.123 29.12 38.628 74.765 26.76 128.519z"/><path d="M390.765 59.913c-22.201-22.201-52.41-26.86-73.843-26.86-10.017 0-20.654 1.007-31.616 2.993a8.255 8.255 0 0 0-6.652 9.596 8.252 8.252 0 0 0 9.596 6.652c9.993-1.811 19.64-2.729 28.672-2.729 14.369 0 33.256 2.356 49.518 12.163-28.582 1.737-59.229 9.669-89.916 23.426-39.855 17.867-78.749 45.138-112.477 78.866-33.728 33.728-60.998 72.621-78.865 112.476-13.761 30.697-21.693 61.353-23.427 89.94-12.78-21.06-15.667-50.708-8.002-85.425 10.822-49.014 40.664-99.89 84.03-143.257 27.971-27.972 59.987-50.911 92.585-66.333 8.966-4.243 18.096-7.958 27.135-11.045a8.256 8.256 0 0 0-5.336-15.626c-9.625 3.287-19.335 7.239-28.862 11.746-34.291 16.224-67.903 40.286-97.2 69.583-45.564 45.565-76.986 99.323-88.477 151.373-10.611 48.056-2.686 88.289 22.312 113.286 22.202 22.201 52.411 26.861 73.846 26.861 28.829 0 61.201-8.107 93.614-23.442 34.29-16.223 67.903-40.284 97.202-69.583 45.564-45.565 76.986-99.323 88.477-151.373 10.61-48.055 2.685-88.289-22.314-113.288zM95.241 394.338c-5.97-2.375-11.805-5.527-17.209-9.67-2.605-66.135 34.548-145.828 97.693-208.972 63.149-63.15 142.836-100.309 208.987-97.693 3.954 5.144 7.207 10.927 9.746 17.282a139.212 139.212 0 0 0-16.24-.939c-28.829 0-61.202 8.107-93.615 23.442-34.291 16.223-67.903 40.285-97.201 69.583-45.565 45.565-76.987 99.323-88.477 151.373-4.427 20.053-5.647 38.682-3.684 55.594zM396.955 169.64c-10.822 49.015-40.664 99.89-84.031 143.257-27.974 27.974-59.989 50.912-92.586 66.333-30.22 14.298-60.15 21.856-86.552 21.856-6.365 0-13.617-.463-21.134-1.831-3.047-16.766-2.255-35.889 2.395-56.951 10.821-49.014 40.663-99.89 84.03-143.257 27.972-27.973 59.987-50.912 92.585-66.333 30.22-14.298 60.151-21.856 86.554-21.856 7.372 0 14.464.629 21.165 1.852 2.994 16.575 2.235 35.816-2.426 56.93z"/><path d="M311.042 264.229a8.256 8.256 0 0 0 8.256-8.256 8.256 8.256 0 0 0-8.256-8.256h-3.41a51.902 51.902 0 0 0-2.797-10.405l2.961-1.71a8.256 8.256 0 0 0 3.022-11.278 8.255 8.255 0 0 0-11.278-3.023l-2.978 1.719a52.739 52.739 0 0 0-7.61-7.61l1.72-2.978a8.256 8.256 0 0 0-3.022-11.278 8.253 8.253 0 0 0-11.278 3.022l-1.71 2.961a51.752 51.752 0 0 0-10.405-2.797v-3.41a8.255 8.255 0 0 0-8.256-8.256 8.256 8.256 0 0 0-8.256 8.256v3.41a51.902 51.902 0 0 0-10.405 2.797l-1.71-2.961a8.256 8.256 0 0 0-11.278-3.022 8.256 8.256 0 0 0-3.022 11.278l1.719 2.978a52.688 52.688 0 0 0-7.61 7.61l-2.978-1.719a8.254 8.254 0 0 0-11.278 3.023 8.256 8.256 0 0 0 3.022 11.278l2.961 1.71a51.752 51.752 0 0 0-2.797 10.405h-3.41a8.256 8.256 0 0 0-8.256 8.256 8.255 8.255 0 0 0 8.256 8.256h3.41a51.902 51.902 0 0 0 2.797 10.405l-2.961 1.71a8.256 8.256 0 0 0 4.136 15.408c1.4 0 2.82-.357 4.12-1.107l2.978-1.72a52.688 52.688 0 0 0 7.61 7.61l-1.719 2.978a8.256 8.256 0 1 0 14.3 8.256l1.71-2.961a51.752 51.752 0 0 0 10.405 2.797v3.41a8.256 8.256 0 0 0 8.256 8.256 8.256 8.256 0 0 0 8.256-8.256v-3.41a51.902 51.902 0 0 0 10.405-2.797l1.71 2.961a8.252 8.252 0 0 0 11.278 3.022 8.256 8.256 0 0 0 3.022-11.278l-1.719-2.978a52.739 52.739 0 0 0 7.61-7.61l2.978 1.72a8.255 8.255 0 0 0 11.278-3.023 8.256 8.256 0 0 0-3.022-11.278l-2.961-1.71a51.752 51.752 0 0 0 2.797-10.405h3.409zM256 291.75c-19.728 0-35.777-16.05-35.777-35.777s16.049-35.777 35.777-35.777 35.777 16.05 35.777 35.777S275.728 291.75 256 291.75z"/></svg>