<svg xmlns="http://www.w3.org/2000/svg" viewBox="0 0 512 512"><circle cx="123.87" cy="256" r="8.258"/><circle cx="156.902" cy="222.968" r="8.258"/><path d="M470.178 41.822c-16.281-16.279-49.715-10.106-99.376 18.354a8.258 8.258 0 0 0-3.058 11.271 8.257 8.257 0 0 0 11.271 3.059c47.103-26.993 71.943-28.548 79.484-21.006 8.146 8.146 5.673 35.405-25.695 87.482-29.248 48.559-75.751 105.694-130.94 160.884-55.189 55.189-112.325 101.691-160.884 130.939-52.076 31.367-79.337 33.84-87.482 25.695-7.542-7.544-5.985-32.385 21.006-79.484a8.255 8.255 0 0 0-3.059-11.268c-3.955-2.267-9.002-.897-11.271 3.059-28.459 49.661-34.634 83.095-18.355 99.374 6.152 6.152 14.551 8.716 24.289 8.715 24.259-.002 56.799-15.92 83.393-31.94 49.674-29.921 107.931-77.299 164.04-133.409 56.11-56.11 103.488-114.367 133.409-164.04 22.451-37.273 44.703-86.209 23.228-107.685z"/><path d="M493.535 18.465C485.112 10.041 469.978 0 445.717 0c-28.064 0-64.982 14.328-109.725 42.586a8.258 8.258 0 0 0-2.572 11.392 8.258 8.258 0 0 0 11.392 2.572c42.061-26.565 76.012-40.034 100.906-40.034 18.606 0 29.922 7.41 36.137 13.627 9.377 9.376 18.758 27.441 10.21 60.261-4.936 18.953-15.354 41.704-30.967 67.622-30.589 50.787-78.845 110.166-135.877 167.198-48.584 48.584-98.435 90.491-144.165 121.189-48.505 32.56-87.12 49.071-114.775 49.071-18.606 0-29.922-7.41-36.138-13.626-9.376-9.376-18.758-27.441-10.21-60.261 4.935-18.951 15.353-41.703 30.967-67.624a522.92 522.92 0 0 1 5.661-9.15 8.26 8.26 0 0 0-13.969-8.813 531.839 531.839 0 0 0-5.839 9.441c-16.43 27.278-27.466 51.497-32.801 71.983-10.518 40.385 2.088 63.675 14.514 76.102C26.887 501.959 42.02 512 66.281 512c30.992 0 72.705-17.453 123.981-51.875 11.453-7.689 23.157-16.066 35.024-25.054 1.614.275 3.231.534 4.852.766a183.663 183.663 0 0 0 17.602 1.648v8.45a8.258 8.258 0 0 0 8.258 8.258 8.257 8.257 0 0 0 8.258-8.258v-8.454a180.784 180.784 0 0 0 39.973-6.316l2.607 8.025a8.262 8.262 0 0 0 7.852 5.708 8.258 8.258 0 0 0 7.856-10.812l-2.612-8.036a181.319 181.319 0 0 0 36.022-18.422l5.003 6.886a8.244 8.244 0 0 0 6.687 3.405 8.223 8.223 0 0 0 4.847-1.578 8.257 8.257 0 0 0 1.827-11.535l-5.015-6.903a183.333 183.333 0 0 0 26.833-26.407c.597-.723 1.179-1.458 1.765-2.19l6.904 5.015a8.218 8.218 0 0 0 4.847 1.578 8.244 8.244 0 0 0 6.687-3.405 8.258 8.258 0 0 0-1.827-11.535l-6.886-5.003a182.067 182.067 0 0 0 8.089-13.43 180.811 180.811 0 0 0 10.334-22.591l8.037 2.612a8.266 8.266 0 0 0 2.553.406 8.258 8.258 0 0 0 2.55-16.114l-8.026-2.607a180.928 180.928 0 0 0 6.316-39.975h8.456c4.562 0 8.258-3.697 8.258-8.258s-3.696-8.258-8.258-8.258h-8.45a183.457 183.457 0 0 0-2.417-22.472c15.414-20.338 28.955-40.086 40.18-58.724 16.429-27.276 27.465-51.494 32.801-71.982 10.516-40.381-2.089-63.672-14.514-76.098zM419.254 281.12c-12.135 79.192-80.723 140.041-163.255 140.041-4.083 0-8.172-.156-12.253-.459 30.691-24.528 62.194-52.839 93.155-83.799 30.898-30.898 59.286-62.52 83.798-93.177.206 2.78.348 5.564.414 8.347a165.67 165.67 0 0 1-1.859 29.047z"/><path d="M402.196 148.144c-9.402-12.725-20.501-24.209-32.858-34.095l4.981-6.856a8.258 8.258 0 0 0-1.827-11.535 8.257 8.257 0 0 0-11.535 1.828l-4.972 6.843a180.03 180.03 0 0 0-16.807-9.881 178.92 178.92 0 0 0-19.239-8.521l2.604-8.015a8.257 8.257 0 1 0-15.707-5.104l-2.608 8.028a182.906 182.906 0 0 0-39.973-6.305v-8.466a8.257 8.257 0 0 0-8.258-8.258 8.258 8.258 0 0 0-8.258 8.258v8.454a180.784 180.784 0 0 0-39.973 6.316l-2.607-8.025c-1.409-4.337-6.068-6.714-10.406-5.302a8.259 8.259 0 0 0-5.302 10.406l2.611 8.036a181.242 181.242 0 0 0-36.022 18.423l-5.003-6.886a8.258 8.258 0 0 0-11.535-1.827 8.258 8.258 0 0 0-1.827 11.535l5.015 6.904a183.228 183.228 0 0 0-28.598 28.597l-6.903-5.015a8.257 8.257 0 0 0-11.535 1.827 8.258 8.258 0 0 0 1.827 11.535l6.886 5.003a181.241 181.241 0 0 0-18.423 36.022l-8.036-2.611a8.26 8.26 0 0 0-5.104 15.708l8.026 2.607a180.928 180.928 0 0 0-6.316 39.975h-8.45c-4.561 0-8.258 3.697-8.258 8.258s3.697 8.254 8.258 8.254h8.467a182.767 182.767 0 0 0 6.305 39.973l-8.028 2.608a8.259 8.259 0 0 0 5.103 15.708l8.015-2.604a178.7 178.7 0 0 0 8.52 19.238 180.176 180.176 0 0 0 9.881 16.808l-6.843 4.972a8.258 8.258 0 0 0 4.861 14.94 8.223 8.223 0 0 0 4.847-1.578l6.856-4.981c9.885 12.356 21.37 23.455 34.094 32.857a8.22 8.22 0 0 0 4.901 1.616 8.26 8.26 0 0 0 4.914-14.9C115.929 357.86 90.837 308.172 90.837 256c0-91.07 74.091-165.161 165.161-165.161 52.172 0 101.86 25.092 132.914 67.12a8.257 8.257 0 0 0 11.549 1.734 8.258 8.258 0 0 0 1.735-11.549z"/></svg>