<svg xmlns="http://www.w3.org/2000/svg" viewBox="0 0 512 512"><path d="M493.559 18.481C485.135 10.058 470.001.018 445.739.018c-30.994 0-72.711 17.452-123.992 51.87-11.353 7.62-23.14 16.057-35.07 25.094-10.036-1.727-20.287-2.647-30.677-2.647C155.831 74.336 74.336 155.83 74.336 256c0 10.386.918 20.634 2.645 30.665-15.568 20.53-29.117 40.297-40.251 58.78-16.432 27.277-27.47 51.493-32.805 71.977-10.519 40.382 2.087 63.672 14.517 76.097 8.424 8.423 23.559 18.463 47.822 18.463 30.995 0 72.712-17.452 123.993-51.87 11.456-7.689 23.16-16.066 35.03-25.053a183.27 183.27 0 0 0 30.715 2.607c100.169 0 181.664-81.494 181.664-181.664 0-10.262-.879-20.568-2.603-30.692 15.427-20.347 28.977-40.106 40.209-58.752 16.431-27.273 27.469-51.49 32.805-71.977 10.517-40.386-2.09-63.674-14.518-76.1zM256 421.148c-4.082 0-8.174-.157-12.255-.459 30.695-24.527 62.201-52.836 93.164-83.793 30.891-30.885 59.273-62.492 83.782-93.137.302 4.076.458 8.163.458 12.241 0 91.063-74.086 165.148-165.149 165.148zM492.094 90.415c-4.937 18.952-15.357 41.702-30.97 67.617-11.384 18.897-25.218 38.986-41.037 59.698-.252.287-.486.59-.695.908-26.558 34.677-58.656 71.082-94.159 106.578-48.589 48.58-98.446 90.483-144.182 121.18-48.511 32.56-87.131 49.068-114.789 49.068-18.609 0-29.927-7.41-36.144-13.626-9.376-9.375-18.759-27.439-10.211-60.255 4.936-18.949 15.356-41.699 30.97-67.619 8.826-14.649 19.235-30.161 31.011-46.252 14.804 49.642 50.483 91.693 99.051 113.759a8.217 8.217 0 0 0 3.411.742 8.26 8.26 0 0 0 3.421-15.777c-58.874-26.749-96.917-85.799-96.917-150.438 0-91.063 74.086-165.149 165.149-165.149 64.644 0 123.695 38.045 150.441 96.925a8.258 8.258 0 0 0 15.037-6.831c-22.062-48.566-64.106-84.245-113.742-99.053a712.411 712.411 0 0 1 23.217-16.29c48.511-32.56 87.131-49.068 114.788-49.068 18.609 0 29.927 7.41 36.145 13.626 9.37 9.377 18.753 27.439 10.205 60.257z"/><path d="M316.694 266.859l-3.713-1.207c.531-3.141.821-6.363.821-9.654 0-3.409-.314-6.744-.882-9.992l2.672-.869a8.257 8.257 0 0 0 5.301-10.406 8.254 8.254 0 0 0-10.405-5.301l-2.725.885a58.114 58.114 0 0 0-11.806-16.026l1.765-2.43a8.257 8.257 0 0 0-1.828-11.534 8.257 8.257 0 0 0-11.534 1.828l-1.829 2.517a57.318 57.318 0 0 0-18.826-5.946v-3.281a8.257 8.257 0 0 0-16.514 0v3.423a57.394 57.394 0 0 0-18.528 6.216l-2.127-2.929a8.26 8.26 0 0 0-11.534-1.828 8.26 8.26 0 0 0-1.828 11.534l2.216 3.05a58.11 58.11 0 0 0-11.313 15.712l-3.669-1.192a8.254 8.254 0 0 0-10.405 5.301 8.258 8.258 0 0 0 5.301 10.406l3.713 1.207a57.852 57.852 0 0 0-.821 9.654c0 3.291.291 6.511.821 9.654l-3.713 1.207a8.257 8.257 0 0 0-5.301 10.406 8.262 8.262 0 0 0 7.851 5.708 8.26 8.26 0 0 0 2.553-.406l3.669-1.192a58.079 58.079 0 0 0 11.313 15.712l-2.216 3.05a8.257 8.257 0 0 0 1.828 11.534 8.218 8.218 0 0 0 4.847 1.578 8.246 8.246 0 0 0 6.687-3.404l2.127-2.929a57.338 57.338 0 0 0 18.528 6.216v3.423a8.257 8.257 0 0 0 16.514 0v-3.281a57.334 57.334 0 0 0 18.826-5.946l1.829 2.517a8.246 8.246 0 0 0 6.687 3.404 8.26 8.26 0 0 0 6.675-13.112l-1.765-2.43a58.073 58.073 0 0 0 11.963-16.333l3.668 1.192a8.27 8.27 0 0 0 2.553.406 8.26 8.26 0 0 0 7.851-5.708 8.252 8.252 0 0 0-5.297-10.404zM256 297.287c-22.766 0-41.287-18.521-41.287-41.287s18.521-41.287 41.287-41.287 41.287 18.521 41.287 41.287-18.522 41.287-41.287 41.287zm0-266.991a8.257 8.257 0 0 0-8.257 8.257v11.01a8.257 8.257 0 0 0 16.514 0v-11.01A8.256 8.256 0 0 0 256 30.296zm-55.94 26.82l-3.402-10.47c-1.409-4.337-6.068-6.714-10.404-5.301a8.255 8.255 0 0 0-5.301 10.404l3.402 10.469a8.263 8.263 0 0 0 7.851 5.709 8.258 8.258 0 0 0 7.854-10.811zm-58.719 27.019l-6.471-8.907a8.259 8.259 0 0 0-13.362 9.706l6.471 8.908a8.246 8.246 0 0 0 6.687 3.404 8.258 8.258 0 0 0 6.675-13.111zm-47.498 43.843l-8.907-6.471a8.255 8.255 0 0 0-11.534 1.828c-2.681 3.688-1.862 8.852 1.828 11.533l8.907 6.471a8.218 8.218 0 0 0 4.847 1.578 8.246 8.246 0 0 0 6.687-3.404 8.26 8.26 0 0 0-1.828-11.535zm-31.624 56.376l-10.47-3.402a8.254 8.254 0 0 0-10.404 5.301 8.256 8.256 0 0 0 5.301 10.405l10.47 3.402a8.266 8.266 0 0 0 2.553.406 8.26 8.26 0 0 0 7.851-5.709 8.256 8.256 0 0 0-5.301-10.403zm-12.655 63.388h-11.01a8.257 8.257 0 0 0 0 16.514h11.01a8.257 8.257 0 0 0 0-16.514zM95.67 372.486a8.26 8.26 0 0 0-11.534-1.827l-8.907 6.471a8.259 8.259 0 0 0 4.859 14.938 8.223 8.223 0 0 0 4.847-1.578l8.907-6.471a8.257 8.257 0 0 0 1.828-11.533zm43.843 43.843a8.255 8.255 0 0 0-11.534 1.828l-6.471 8.907a8.257 8.257 0 0 0 1.828 11.534 8.218 8.218 0 0 0 4.847 1.578 8.246 8.246 0 0 0 6.687-3.404l6.471-8.907a8.262 8.262 0 0 0-1.828-11.536zM256 454.178a8.257 8.257 0 0 0-8.257 8.257v11.01a8.257 8.257 0 0 0 16.514 0v-11.01a8.256 8.256 0 0 0-8.257-8.257zm75.047 6.073l-3.402-10.472c-1.409-4.337-6.068-6.713-10.404-5.301a8.255 8.255 0 0 0-5.301 10.404l3.402 10.47a8.263 8.263 0 0 0 7.851 5.709 8.26 8.26 0 0 0 2.553-.406 8.255 8.255 0 0 0 5.301-10.404zm59.444-33.189l-6.471-8.906a8.26 8.26 0 0 0-11.534-1.828 8.26 8.26 0 0 0-1.828 11.534l6.471 8.907a8.246 8.246 0 0 0 6.687 3.404 8.223 8.223 0 0 0 4.847-1.578 8.257 8.257 0 0 0 1.828-11.533zm46.28-49.932l-8.907-6.471a8.257 8.257 0 0 0-11.534 1.828 8.257 8.257 0 0 0 1.828 11.534l8.907 6.471a8.218 8.218 0 0 0 4.847 1.578 8.26 8.26 0 0 0 4.859-14.94zm28.584-61.789l-10.47-3.402a8.252 8.252 0 0 0-10.404 5.301 8.256 8.256 0 0 0 5.301 10.404l10.47 3.402a8.266 8.266 0 0 0 2.553.406 8.26 8.26 0 0 0 7.851-5.709 8.254 8.254 0 0 0-5.301-10.402zm8.091-67.599h-11.01a8.257 8.257 0 0 0 0 16.514h11.01a8.257 8.257 0 0 0 0-16.514zm-34.848-124.409a8.26 8.26 0 0 0-11.534-1.827l-8.907 6.471a8.26 8.26 0 0 0-1.828 11.534 8.245 8.245 0 0 0 6.687 3.404 8.223 8.223 0 0 0 4.847-1.578l8.907-6.471a8.258 8.258 0 0 0 1.828-11.533zm-49.934-49.932a8.256 8.256 0 0 0-11.534 1.828l-6.471 8.907a8.257 8.257 0 0 0 1.828 11.534 8.218 8.218 0 0 0 4.847 1.578 8.246 8.246 0 0 0 6.687-3.404l6.471-8.907a8.26 8.26 0 0 0-1.828-11.536z"/></svg>