<svg xmlns="http://www.w3.org/2000/svg" viewBox="0 0 512 512"><circle cx="272.516" cy="363.355" r="8.258"/><circle cx="336.753" cy="336.753" r="8.258"/><circle cx="336.753" cy="208.279" r="8.258"/><circle cx="239.484" cy="330.323" r="8.258"/><circle cx="105.175" cy="105.175" r="8.258"/><path d="M424.531 87.469C378.808 31.871 311.412 0 239.484 0 175.516 0 115.376 24.911 70.143 70.144 24.911 115.376 0 175.516 0 239.484c0 71.928 31.871 139.326 87.469 185.047C133.19 480.129 200.588 512 272.516 512c63.969 0 124.108-24.911 169.341-70.143C487.089 396.624 512 336.485 512 272.516c0-71.928-31.871-139.324-87.469-185.047zM272.516 495.484c-67.226 0-130.202-29.904-172.782-82.046a8.18 8.18 0 0 0-1.173-1.173C46.42 369.686 16.516 306.71 16.516 239.484c0-122.945 100.023-222.968 222.968-222.968 67.226 0 130.202 29.904 172.782 82.046.35.429.743.823 1.173 1.173 52.141 42.58 82.046 105.556 82.046 172.782-.001 122.944-100.024 222.967-222.969 222.967z"/><path d="M272.516 66.065c-48.773 0-96.115 17.339-133.306 48.821a8.257 8.257 0 0 0-.968 11.638 8.257 8.257 0 0 0 11.638.968c34.213-28.962 77.766-44.911 122.636-44.911 104.731 0 189.935 85.205 189.935 189.935s-85.204 189.935-189.935 189.935S82.581 377.247 82.581 272.516c0-44.87 15.949-88.423 44.911-122.636a8.256 8.256 0 0 0-.968-11.638 8.255 8.255 0 0 0-11.638.968c-31.482 37.191-48.821 84.533-48.821 133.306 0 113.838 92.614 206.452 206.452 206.452s206.452-92.614 206.452-206.452S386.354 66.065 272.516 66.065z"/><path d="M272.516 99.097c-95.624 0-173.419 77.795-173.419 173.419 0 39.923 13.903 78.9 39.15 109.752a8.258 8.258 0 0 0 12.782-10.46c-22.837-27.908-35.415-63.171-35.415-99.292 0-86.517 70.386-156.903 156.903-156.903S429.42 185.999 429.42 272.516s-70.386 156.903-156.903 156.903c-36.121 0-71.384-12.578-99.292-35.416a8.26 8.26 0 0 0-10.46 12.783c30.852 25.247 69.829 39.15 109.752 39.15 95.624 0 173.419-77.795 173.419-173.419s-77.796-173.42-173.42-173.42z"/></svg>