<svg xmlns="http://www.w3.org/2000/svg" viewBox="0 0 512.001 512.001"><path d="M371.612 220.218c-19.732 0-35.785 16.054-35.785 35.785s16.052 35.785 35.785 35.785c19.732 0 35.785-16.054 35.785-35.785s-16.053-35.785-35.785-35.785zm0 55.054c-10.624 0-19.269-8.644-19.269-19.269 0-10.624 8.644-19.269 19.269-19.269 10.624 0 19.269 8.644 19.269 19.269 0 10.624-8.645 19.269-19.269 19.269z"/><path d="M483.777 171.575c-17.853-23.678-43.24-41.421-71.487-49.961-15.29-4.617-21.91-9.697-28.919-15.075-7.509-5.763-16.023-12.296-34.201-17.783-18.179-5.488-28.88-4.757-38.327-4.112-8.814.601-17.14 1.17-32.427-3.446-15.292-4.616-21.911-9.696-28.921-15.075-7.51-5.763-16.023-12.294-34.201-17.783-18.182-5.488-28.885-4.758-38.329-4.112-8.815.601-17.14 1.169-32.431-3.447-15.294-4.617-21.913-9.697-28.924-15.075-7.507-5.765-16.02-12.298-34.199-17.786-18.182-5.49-28.886-4.758-38.33-4.114-8.817.601-17.143 1.169-32.433-3.447C6.281-.963 1.673 1.511.355 5.876s1.153 8.974 5.519 10.293c18.18 5.488 28.884 4.758 38.331 4.114 8.814-.601 17.14-1.169 32.432 3.446 15.293 4.617 21.913 9.697 28.924 15.076 7.51 5.763 16.024 12.296 34.202 17.784 18.182 5.488 28.884 4.758 38.33 4.114 8.811-.601 17.138-1.169 32.43 3.446 15.292 4.617 21.911 9.697 28.921 15.075 7.509 5.763 16.023 12.296 34.201 17.782 18.179 5.488 28.88 4.759 38.327 4.114 8.814-.602 17.137-1.17 32.427 3.446 15.292 4.616 21.911 9.696 28.921 15.075 7.51 5.763 16.023 12.294 34.197 17.782 51.794 15.659 87.969 64.421 87.969 118.579s-36.174 102.921-87.965 118.579c-18.18 5.489-26.692 12.02-34.202 17.783-7.009 5.379-13.63 10.459-28.923 15.076-15.29 4.617-23.617 4.049-32.433 3.447-9.443-.645-20.151-1.375-38.33 4.114s-26.691 12.02-34.202 17.783c-7.008 5.379-13.629 10.459-28.922 15.075-15.292 4.616-23.613 4.049-32.43 3.446-9.445-.645-20.152-1.375-38.328 4.112-18.179 5.488-26.69 12.02-34.2 17.782-7.007 5.379-13.628 10.458-28.918 15.074-15.289 4.617-23.613 4.048-32.43 3.446-9.438-.644-20.146-1.375-38.328 4.112a8.259 8.259 0 0 0 4.773 15.811c15.289-4.616 23.613-4.047 32.43-3.446 9.441.645 20.146 1.375 38.328-4.114 18.178-5.488 26.689-12.02 34.199-17.782 7.008-5.378 13.628-10.458 28.919-15.074 15.293-4.616 23.615-4.047 32.43-3.446 9.442.644 20.151 1.375 38.328-4.112 18.18-5.488 26.691-12.02 34.202-17.783 7.009-5.379 13.63-10.459 28.922-15.075 15.293-4.617 23.618-4.047 32.432-3.447 9.445.644 20.151 1.374 38.331-4.114 18.18-5.489 26.692-12.02 34.202-17.783 7.008-5.379 13.63-10.459 28.926-15.076 28.243-8.54 53.631-26.284 71.483-49.961C502.243 315.942 512 286.748 512 256c.001-30.745-9.76-59.939-28.223-84.425z"/><path d="M402.714 153.236L10.647 34.862a8.26 8.26 0 0 0-4.774 15.812L342.206 152.21l-221.702 39.568a8.258 8.258 0 0 0-6.238 11.147l9.284 23.648-19.104 24.329a8.259 8.259 0 0 0 0 10.199l19.104 24.33-9.284 23.648a8.257 8.257 0 0 0 6.238 11.147l99.783 17.809a8.256 8.256 0 0 0 9.58-6.678c.8-4.489-2.189-8.78-6.679-9.58l-89.866-16.039 7.33-18.67a8.257 8.257 0 0 0-1.191-8.117l-18.018-22.948 18.018-22.947a8.257 8.257 0 0 0 1.191-8.118l-7.33-18.671 222.208-39.658a91.272 91.272 0 0 1 16.081-1.445c50.087 0 90.838 40.749 90.838 90.838s-40.75 90.838-90.838 90.838a91.599 91.599 0 0 1-16.122-1.451l-99.784-17.809c-4.478-.803-8.779 2.189-9.58 6.678a8.256 8.256 0 0 0 6.679 9.58l89.399 15.956L5.873 461.332a8.259 8.259 0 0 0 4.773 15.812l392.089-118.382c44.067-13.372 76.229-54.382 76.229-102.759.002-48.391-32.166-89.405-76.25-102.767z"/><path d="M371.612 181.681c-4.354 0-8.793.401-13.189 1.189l-182.05 32.491a8.258 8.258 0 0 0-5.387 12.761l18.884 27.881-18.884 27.881a8.258 8.258 0 0 0 5.388 12.759l182.041 32.489a74.85 74.85 0 0 0 13.196 1.191c40.982 0 74.322-33.34 74.322-74.322s-33.339-74.32-74.321-74.32zm0 132.128c-3.378 0-6.836-.314-10.287-.933l-169.533-30.257 14.891-21.985a8.259 8.259 0 0 0 .001-9.263l-14.891-21.985 169.541-30.258c3.442-.618 6.9-.93 10.278-.93 31.874 0 57.806 25.931 57.806 57.806 0 31.874-25.932 57.805-57.806 57.805z"/><circle cx="49.547" cy="414.014" r="8.258"/><circle cx="82.579" cy="380.982" r="8.258"/><circle cx="82.579" cy="107.973" r="8.258"/></svg>