<svg xmlns="http://www.w3.org/2000/svg" viewBox="0 0 512 512"><path d="M366.059 324.915c44.671-46.948 82.594-94.717 108.211-136.514 16.178-26.397 27.251-50.182 32.912-70.692 14.078-51.002-5.887-80.69-19.042-93.848-13.16-13.153-42.846-33.121-93.85-19.042-20.512 5.661-44.296 16.734-70.692 32.912-36.183 22.177-77.092 53.735-118.305 91.262a8.258 8.258 0 0 0-.546 11.665 8.257 8.257 0 0 0 11.666.546c40.457-36.838 80.505-67.75 115.814-89.392 25.076-15.369 47.436-25.823 66.455-31.073 42.933-11.852 67.162 4.187 77.779 14.802 10.616 10.618 26.652 34.84 14.8 77.777-5.249 19.018-15.703 41.378-31.073 66.455-28.761 46.925-73.553 101.72-126.124 154.293-52.576 52.573-107.371 97.365-154.294 126.125-25.076 15.369-47.436 25.823-66.455 31.073-10.724 2.959-20.276 4.18-28.744 4.179-25.438-.003-41.068-11.02-49.032-18.983-10.616-10.618-26.654-34.839-14.8-77.778 5.249-19.019 15.703-41.378 31.073-66.454 21.642-35.311 52.553-75.359 89.393-115.816a8.259 8.259 0 0 0-12.212-11.119c-37.527 41.213-69.085 82.122-91.262 118.305-16.178 26.396-27.251 50.18-32.912 70.69-14.079 51.003 5.887 80.691 19.043 93.849 9.977 9.974 29.45 23.864 60.516 23.862 9.908 0 20.999-1.414 33.332-4.818 20.512-5.661 44.296-16.734 70.692-32.912 41.793-25.616 89.563-63.539 136.512-108.211L458.76 509.357a8.236 8.236 0 0 0 6.037 2.62 8.222 8.222 0 0 0 5.634-2.223 8.258 8.258 0 0 0 .399-11.671L336.8 354.588a1143.97 1143.97 0 0 0 8.944-8.844c2.974-2.974 5.92-5.957 8.844-8.944l143.496 134.03a8.227 8.227 0 0 0 5.634 2.223 8.257 8.257 0 0 0 5.638-14.291L366.059 324.915z"/><path d="M394.175 83.949a8.259 8.259 0 0 0-10.626 4.841c-2.336 6.246-7.221 17.118-17.227 33.447-11.691 19.076-27.212 40.441-45.355 62.646-30.66-28.036-75.191-32.641-110.414-13.818L53.241 2.644a8.26 8.26 0 0 0-12.07 11.275l155.355 166.327a97 97 0 0 0-8.645 7.638c-2.744 2.744-5.277 5.639-7.643 8.639L13.916 41.171A8.258 8.258 0 0 0 2.643 53.239l168.386 157.277c-7.423 13.824-11.365 29.35-11.365 45.482 0 24.277 8.928 47.177 25.216 64.97-22.202 18.141-43.565 33.659-62.639 45.349-16.32 10.001-27.199 14.89-33.451 17.229a8.257 8.257 0 0 0-4.84 10.628 8.261 8.261 0 0 0 7.734 5.366c.961 0 1.94-.168 2.892-.526 6.932-2.593 18.854-7.928 36.294-18.616 40.245-24.666 90.188-65.674 137.023-112.509 46.835-46.838 87.843-96.78 112.508-137.023 10.694-17.449 16.026-29.366 18.614-36.292a8.256 8.256 0 0 0-4.84-10.625zm-137.96 172.265a1020.557 1020.557 0 0 1-33.831 32.317c-17.703-18.286-17.534-47.556.528-65.617 18.062-18.062 47.331-18.231 65.617-.53a1019.29 1019.29 0 0 1-32.314 33.83zm43.341-46.127c-24.769-23.509-64.033-23.138-88.32 1.148-24.288 24.289-24.659 63.553-1.148 88.32a912.271 912.271 0 0 1-12.497 10.818c-13.82-14.819-21.411-34.009-21.411-54.375 0-21.32 8.302-41.366 23.379-56.442 30.443-30.442 79.552-31.087 110.813-1.965a906.963 906.963 0 0 1-10.816 12.496z"/></svg>