<svg xmlns="http://www.w3.org/2000/svg" viewBox="0 0 512 512"><path d="M503.249 273.683l-13.843-1.456c.369-5.363.573-10.772.573-16.229s-.204-10.864-.573-16.229l13.843-1.456a8.26 8.26 0 0 0 7.35-9.076 8.257 8.257 0 0 0-9.076-7.35l-13.833 1.455a232.181 232.181 0 0 0-6.73-31.756l13.208-4.292a8.258 8.258 0 0 0-5.103-15.708l-13.218 4.295a232.829 232.829 0 0 0-13.254-29.626l12.086-6.979a8.257 8.257 0 0 0 3.022-11.281 8.257 8.257 0 0 0-11.281-3.022l-12.112 6.993a235.218 235.218 0 0 0-19.099-26.22l10.424-9.384a8.258 8.258 0 0 0-11.052-12.274l-10.428 9.389a235.888 235.888 0 0 0-24.087-21.722l8.233-11.332a8.258 8.258 0 0 0-13.362-9.708l-8.218 11.311a234.15 234.15 0 0 0-28.081-16.258l5.671-12.736a8.259 8.259 0 0 0-15.088-6.718l-5.662 12.717a231.91 231.91 0 0 0-30.863-10.053l2.889-13.593a8.258 8.258 0 0 0-6.36-9.795 8.256 8.256 0 0 0-9.795 6.36l-2.889 13.592a233.827 233.827 0 0 0-32.285-3.363V8.258A8.257 8.257 0 0 0 255.998 0a8.258 8.258 0 0 0-8.258 8.258v13.925a233.86 233.86 0 0 0-32.285 3.363l-2.889-13.592c-.948-4.46-5.335-7.311-9.794-6.36a8.258 8.258 0 0 0-6.361 9.795l2.889 13.593a231.91 231.91 0 0 0-30.863 10.053l-5.662-12.717a8.255 8.255 0 0 0-10.903-4.185 8.257 8.257 0 0 0-4.185 10.903l5.671 12.736a234.206 234.206 0 0 0-28.081 16.258l-8.217-11.311a8.259 8.259 0 0 0-13.363 9.707l8.234 11.332A235.782 235.782 0 0 0 87.844 93.48l-10.428-9.389a8.26 8.26 0 0 0-11.052 12.274l10.423 9.385a235.126 235.126 0 0 0-19.099 26.22l-12.112-6.993a8.258 8.258 0 0 0-8.259 14.303l12.088 6.979a233.11 233.11 0 0 0-13.254 29.626l-13.218-4.295a8.258 8.258 0 0 0-5.103 15.707l13.21 4.292a232.33 232.33 0 0 0-6.73 31.756l-13.833-1.455a8.257 8.257 0 1 0-1.726 16.426l13.843 1.456c-.369 5.365-.573 10.774-.573 16.23s.204 10.864.573 16.229l-13.843 1.455a8.26 8.26 0 0 0-7.35 9.076 8.26 8.26 0 0 0 9.076 7.349l13.833-1.455a232.181 232.181 0 0 0 6.73 31.756l-13.21 4.292a8.257 8.257 0 0 0-5.302 10.405 8.262 8.262 0 0 0 7.852 5.709c.846 0 1.706-.131 2.553-.406l13.218-4.295a232.829 232.829 0 0 0 13.254 29.626l-12.088 6.979a8.257 8.257 0 0 0-3.022 11.281 8.254 8.254 0 0 0 11.28 3.022l12.112-6.993a235.218 235.218 0 0 0 19.099 26.22l-10.423 9.384a8.258 8.258 0 0 0 11.052 12.274l10.428-9.389a235.888 235.888 0 0 0 24.087 21.722l-8.234 11.332a8.258 8.258 0 0 0 1.828 11.535 8.22 8.22 0 0 0 4.847 1.578 8.246 8.246 0 0 0 6.688-3.405l8.217-11.311a234.15 234.15 0 0 0 28.081 16.258l-5.671 12.736a8.259 8.259 0 0 0 15.088 6.717l5.662-12.717a231.91 231.91 0 0 0 30.863 10.053l-2.889 13.593a8.258 8.258 0 0 0 6.361 9.795 8.284 8.284 0 0 0 1.724.183 8.263 8.263 0 0 0 8.07-6.543l2.889-13.592a233.827 233.827 0 0 0 32.285 3.363v13.927a8.258 8.258 0 0 0 8.258 8.258 8.257 8.257 0 0 0 8.258-8.258V489.82a233.86 233.86 0 0 0 32.285-3.363l2.889 13.592a8.26 8.26 0 0 0 8.069 6.543 8.22 8.22 0 0 0 1.725-.183 8.257 8.257 0 0 0 6.36-9.795l-2.889-13.593a231.91 231.91 0 0 0 30.863-10.053l5.662 12.717a8.26 8.26 0 0 0 7.548 4.902 8.258 8.258 0 0 0 7.54-11.619l-5.671-12.736a234.206 234.206 0 0 0 28.081-16.258l8.218 11.311a8.246 8.246 0 0 0 6.687 3.405 8.223 8.223 0 0 0 4.847-1.578 8.257 8.257 0 0 0 1.827-11.535l-8.233-11.332a235.782 235.782 0 0 0 24.087-21.722l10.428 9.389a8.225 8.225 0 0 0 5.524 2.121 8.258 8.258 0 0 0 5.528-14.395l-10.424-9.384a235.126 235.126 0 0 0 19.099-26.22l12.112 6.993a8.254 8.254 0 0 0 11.28-3.022c2.28-3.95.927-9-3.022-11.281l-12.086-6.979a233.11 233.11 0 0 0 13.254-29.626l13.218 4.295a8.266 8.266 0 0 0 2.553.406 8.26 8.26 0 0 0 2.55-16.114l-13.208-4.292a232.181 232.181 0 0 0 6.73-31.756l13.833 1.455a8.259 8.259 0 0 0 9.076-7.349 8.257 8.257 0 0 0-7.346-9.081zM256 473.462c-119.909 0-217.462-97.553-217.462-217.462 0-23.434 3.741-46.007 10.632-67.173C77.582 101.659 159.551 38.538 256 38.538c119.909 0 217.462 97.553 217.462 217.462S375.909 473.462 256 473.462z"/><circle cx="195.441" cy="383.527" r="8.258"/><circle cx="228.473" cy="350.494" r="8.258"/><circle cx="115.613" cy="256" r="8.258"/><path d="M256 66.065C151.269 66.065 66.065 151.269 66.065 256S151.269 445.935 256 445.935 445.936 360.731 445.936 256 360.731 66.065 256 66.065zm0 363.354a173.477 173.477 0 0 1-35.763-3.716c63.401-31.92 104.58-97.418 104.58-169.703 0-33.452-8.825-66.35-25.52-95.137a8.26 8.26 0 0 0-14.289 8.286c15.239 26.274 23.292 56.307 23.292 86.852 0 72.379-45.211 137.307-112.814 162.519C129.614 393.912 82.581 330.349 82.581 256c0-74.338 47.02-137.893 112.879-162.508 27.504 10.26 52.117 27.463 71.317 49.928a8.24 8.24 0 0 0 6.282 2.893 8.258 8.258 0 0 0 6.273-13.623 190.768 190.768 0 0 0-59.117-46.388 173.48 173.48 0 0 1 35.786-3.722c95.624 0 173.419 77.795 173.419 173.419S351.624 429.419 256 429.419z"/></svg>