<svg xmlns="http://www.w3.org/2000/svg" viewBox="0 0 512 512"><circle cx="82.581" cy="98.546" r="8.258"/><circle cx="115.613" cy="65.514" r="8.258"/><path d="M474.155 77.073C448.849 27.372 414.558 0 377.599 0c-31.073 0-60.097 19.112-83.931 55.272C277.661 79.556 264.729 110.99 256 146.29c-8.73-35.3-21.661-66.734-37.669-91.018C194.497 19.112 165.474 0 134.401 0c-36.959 0-71.25 27.372-96.556 77.073C13.441 125.004 0 188.548 0 256c0 46.125 6.414 91.296 18.548 130.628a8.26 8.26 0 0 0 15.782-4.869C22.676 343.984 16.516 300.497 16.516 256c0-64.896 12.801-125.779 36.047-171.433 22.344-43.883 51.408-68.051 81.837-68.051 31.906 0 55.753 26.018 70.141 47.845 15.249 23.133 27.554 53.383 35.825 87.511-17.142-17.953-38.507-28.001-61.214-28.001-26.962 0-52.139 14.084-70.892 39.655C90.071 188.328 80.055 221.17 80.055 256s10.016 67.671 28.205 92.474c18.752 25.572 43.93 39.655 70.892 39.655 22.706 0 44.073-10.047 61.214-28.001-8.27 34.128-20.577 64.379-35.825 87.511-14.388 21.827-38.235 47.845-70.141 47.845-33.838 0-66.258-30.359-88.947-83.292a8.258 8.258 0 1 0-15.18 6.506C55.688 477.993 93.641 512 134.401 512c31.073 0 60.097-19.112 83.931-55.272 16.007-24.284 28.94-55.718 37.669-91.018 8.73 35.3 21.661 66.734 37.669 91.018C317.503 492.888 346.526 512 377.599 512c36.959 0 71.248-27.372 96.555-77.073C498.559 386.996 512 323.452 512 256s-13.441-130.996-37.845-178.927zm-295.003 294.54c-45.535 0-82.581-51.864-82.581-115.613s37.046-115.613 82.581-115.613c24.927 0 48.172 15.666 63.835 42.454-34.795 6.175-61.309 36.618-61.309 73.159s26.514 66.984 61.309 73.159c-15.663 26.788-38.908 42.454-63.835 42.454zM198.194 256c0-31.875 25.931-57.806 57.806-57.806 31.875 0 57.806 25.931 57.806 57.806 0 31.875-25.931 57.806-57.806 57.806-31.875 0-57.806-25.931-57.806-57.806zm132.129 0c0-36.54-26.514-66.984-61.309-73.159 15.663-26.789 38.908-42.454 63.835-42.454 45.535 0 82.581 51.864 82.581 115.613s-37.046 115.613-82.581 115.613c-24.927 0-48.172-15.666-63.835-42.454 34.795-6.175 61.309-36.619 61.309-73.159zm129.114 171.433c-22.344 43.883-51.408 68.051-81.837 68.051-31.906 0-55.753-26.018-70.141-47.845-15.249-23.133-27.554-53.383-35.825-87.511 17.142 17.954 38.507 28.001 61.214 28.001 26.962 0 52.139-14.084 70.892-39.655 18.189-24.802 28.205-57.643 28.205-92.474s-10.016-67.671-28.205-92.474c-18.752-25.572-43.93-39.655-70.892-39.655-22.706 0-44.073 10.047-61.214 28.001 8.27-34.128 20.577-64.379 35.825-87.511 14.388-21.827 38.235-47.845 70.141-47.845 30.429 0 59.493 24.168 81.837 68.051 23.246 45.654 36.047 106.537 36.047 171.433s-12.801 125.779-36.047 171.433z"/><circle cx="429.419" cy="413.454" r="8.258"/></svg>