<svg xmlns="http://www.w3.org/2000/svg" viewBox="0 0 511.998 511.998"><circle cx="156.123" cy="462.417" r="8.258"/><path d="M507.75 217.235c-1.866-6.855-3.629-13.33-3.629-19.11 0-5.78 1.763-12.255 3.628-19.11 2.968-10.906 6.038-22.182 2.984-33.626-3.009-11.271-11.233-19.468-19.185-27.396-5.092-5.076-9.901-9.87-12.874-15.011-2.789-4.825-4.461-11.183-6.232-17.916-2.766-10.52-5.901-22.444-14.481-31.023-8.579-8.579-20.503-11.715-31.022-14.481-6.733-1.77-13.092-3.443-17.917-6.232-5.141-2.973-9.936-7.782-15.011-12.874-7.927-7.953-16.126-16.176-27.397-19.185-11.442-3.054-22.721.015-33.626 2.983-6.856 1.866-13.331 3.629-19.112 3.629-5.78 0-12.254-1.763-19.11-3.628-10.907-2.969-22.186-6.038-33.626-2.983-11.269 3.008-19.466 11.232-27.393 19.184-5.076 5.092-9.87 9.9-15.011 12.873-4.825 2.789-11.183 4.461-17.916 6.232-10.52 2.766-22.444 5.901-31.023 14.481-20.191 20.191-35.537 43.67-45.74 69.905-25.941 10.106-49.742 25.577-70.019 45.854-8.579 8.579-11.715 20.503-14.481 31.023-1.77 6.733-3.442 13.091-6.232 17.916-2.973 5.141-7.782 9.936-12.873 15.011-7.953 7.927-16.176 16.126-19.185 27.396-3.054 11.443.015 22.72 2.984 33.626 1.865 6.856 3.628 13.331 3.628 19.11 0 5.78-1.763 12.255-3.629 19.112-2.968 10.906-6.038 22.182-2.983 33.626 3.009 11.271 11.233 19.469 19.185 27.397 5.092 5.076 9.901 9.87 12.873 15.011 2.79 4.825 4.461 11.183 6.232 17.916 2.766 10.52 5.901 22.444 14.481 31.023 8.579 8.579 20.503 11.715 31.023 14.481 6.733 1.77 13.091 3.442 17.916 6.232 5.141 2.973 9.936 7.782 15.011 12.873 7.927 7.953 16.126 16.176 27.397 19.185 3.112.831 6.47 1.252 9.981 1.252 8.084 0 15.995-2.154 23.644-4.236 6.856-1.865 13.33-3.628 19.11-3.628 5.78 0 12.255 1.763 19.112 3.629 7.65 2.082 15.56 4.235 23.646 4.236 3.558 0 6.823-.41 9.979-1.252 11.271-3.009 19.469-11.233 27.398-19.185 5.076-5.092 9.87-9.9 15.01-12.873 4.825-2.79 11.183-4.461 17.916-6.232 10.52-2.766 22.444-5.901 31.023-14.481 20.577-20.577 35.811-44.501 45.729-70.03 25.53-9.918 49.455-25.152 70.032-45.729 8.579-8.579 11.715-20.503 14.481-31.023 1.77-6.733 3.442-13.091 6.232-17.915 2.973-5.142 7.782-9.936 12.873-15.011 7.954-7.928 16.176-16.126 19.185-27.397 3.053-11.445-.017-22.722-2.986-33.629zM375.065 375.076c-65.599 22.567-141.327 7.725-193.593-44.541-21.487-21.488-37.558-48.104-46.475-76.97a8.259 8.259 0 0 0-15.78 4.876c9.708 31.424 27.197 60.392 50.578 83.772 39.724 39.725 91.904 59.586 144.084 59.586a205.07 205.07 0 0 0 53.1-6.988c-8.904 18.622-21.047 36.074-36.455 51.482-5.421 5.42-14.224 7.736-23.545 10.187-7.491 1.97-15.237 4.007-21.982 7.906-7.03 4.065-12.831 9.884-18.441 15.511-6.678 6.699-12.985 13.027-19.96 14.889-1.747.467-3.618.693-5.722.693-5.875 0-12.399-1.776-19.305-3.655-7.602-2.069-15.462-4.208-23.45-4.208s-15.848 2.139-23.448 4.208c-6.907 1.881-13.43 3.655-19.306 3.655-2.103 0-3.975-.227-5.722-.693-6.974-1.862-13.282-8.189-19.959-14.888-5.61-5.627-11.411-11.446-18.442-15.511-6.745-3.9-14.492-5.937-21.982-7.906-9.321-2.451-18.124-4.766-23.545-10.187-5.42-5.421-7.736-14.224-10.187-23.545-1.97-7.491-4.007-15.237-7.906-21.982-4.065-7.031-9.884-12.831-15.511-18.441-6.699-6.678-13.027-12.985-14.889-19.959-1.906-7.141.459-15.829 2.963-25.028 2.069-7.601 4.208-15.461 4.208-23.448 0-7.988-2.139-15.848-4.208-23.448-2.504-9.199-4.869-17.887-2.963-25.028 1.862-6.974 8.189-13.282 14.888-19.959 5.627-5.61 11.446-11.411 15.511-18.442 3.9-6.745 5.937-14.492 7.906-21.982 2.451-9.321 4.766-18.124 10.187-23.545 15.218-15.218 32.6-27.486 51.444-36.534-6.945 25.875-8.78 53.256-5.285 79.859a8.259 8.259 0 0 0 16.375-2.151c-3.876-29.5-.802-58.726 8.553-85.781 19.464-6.725 40.12-10.237 61.32-10.237 50.016 0 97.038 19.477 132.405 54.844 52.263 52.262 67.105 127.989 44.539 193.589zm119.713-128.474c-1.862 6.974-8.189 13.282-14.889 19.96-5.627 5.61-11.446 11.41-15.511 18.441-3.9 6.745-5.937 14.492-7.906 21.982-2.451 9.321-4.766 18.124-10.187 23.545-15.408 15.408-32.859 27.55-51.485 36.455 18.259-68.086.729-143.858-52.598-197.184-38.486-38.486-89.656-59.682-144.084-59.682-18.208 0-36.047 2.385-53.174 6.983 9.033-18.764 21.283-36.138 36.527-51.382 5.421-5.42 14.224-7.736 23.545-10.187 7.491-1.97 15.237-4.007 21.982-7.906 7.031-4.065 12.831-9.884 18.442-15.511 6.678-6.699 12.984-13.026 19.959-14.888 7.142-1.904 15.829.459 25.028 2.962 7.6 2.069 15.461 4.208 23.447 4.208 7.988 0 15.848-2.139 23.448-4.208 9.198-2.504 17.887-4.87 25.028-2.963 6.974 1.862 13.282 8.189 19.96 14.889 5.61 5.627 11.41 11.446 18.441 15.511 6.745 3.9 14.492 5.938 21.983 7.908 9.32 2.451 18.124 4.765 23.544 10.186 5.42 5.421 7.736 14.224 10.187 23.545 1.97 7.491 4.007 15.237 7.906 21.982 4.065 7.031 9.884 12.831 15.511 18.442 6.699 6.678 13.026 12.985 14.888 19.959 1.906 7.141-.459 15.829-2.963 25.028-2.069 7.601-4.208 15.461-4.208 23.448s2.139 15.847 4.208 23.448c2.511 9.199 4.876 17.888 2.971 25.029z"/><path d="M308.549 203.455c-14.037-14.037-32.7-21.768-52.551-21.768-19.85 0-38.515 7.73-52.551 21.768-14.037 14.037-21.768 32.7-21.768 52.551 0 19.85 7.73 38.515 21.768 52.551 14.036 14.037 32.699 21.768 52.551 21.768s38.515-7.73 52.551-21.768c14.037-14.037 21.768-32.7 21.768-52.551s-7.73-38.515-21.768-52.551zm-11.678 93.424c-10.918 10.918-25.434 16.93-40.873 16.93s-29.955-6.013-40.873-16.93-16.93-25.434-16.93-40.873c0-15.44 6.013-29.955 16.93-40.873s25.434-16.93 40.873-16.93 29.956 6.013 40.873 16.93c10.918 10.918 16.93 25.434 16.93 40.873.001 15.439-6.012 29.955-16.93 40.873z"/><circle cx="462.416" cy="156.146" r="8.258"/><circle cx="429.386" cy="123.116" r="8.258"/><circle cx="271.885" cy="49.601" r="8.258"/><circle cx="429.386" cy="240.11" r="8.258"/></svg>