<svg xmlns="http://www.w3.org/2000/svg" viewBox="0 0 512 512"><path d="M256 79.828c-40.664 0-80.34 14.19-111.719 39.954a8.259 8.259 0 0 0 10.48 12.765C183.195 109.201 219.148 96.344 256 96.344c88.034 0 159.656 71.622 159.656 159.656S344.034 415.656 256 415.656 96.344 344.034 96.344 256c0-36.852 12.857-72.806 36.202-101.238a8.258 8.258 0 1 0-12.766-10.481C94.018 175.66 79.828 215.335 79.828 256c0 97.141 79.03 176.172 176.172 176.172S432.172 353.141 432.172 256 353.142 79.828 256 79.828z"/><path d="M448.675 87.455a8.258 8.258 0 0 0-12.426 10.879c38.198 43.632 59.235 99.626 59.235 157.666 0 132.052-107.432 239.484-239.484 239.484S16.516 388.052 16.516 256 123.948 16.516 256 16.516c58.04 0 114.033 21.036 157.665 59.235a8.258 8.258 0 0 0 11.653-.774 8.258 8.258 0 0 0-.773-11.653C377.9 22.488 318.043 0 256 0 187.62 0 123.334 26.628 74.981 74.981 26.63 123.333 0 187.62 0 256s26.63 132.667 74.981 181.019C123.334 485.372 187.62 512 256 512s132.666-26.628 181.019-74.981C485.37 388.667 512 324.38 512 256c0-62.043-22.489-121.901-63.325-168.545z"/><path d="M256 46.796C140.644 46.796 46.796 140.644 46.796 256c0 49.511 17.624 97.55 49.625 135.267a8.26 8.26 0 0 0 11.639.955 8.259 8.259 0 0 0 .954-11.639C79.543 345.846 63.312 301.602 63.312 256c0-106.248 86.44-192.688 192.688-192.688S448.688 149.752 448.688 256 362.248 448.688 256 448.688c-45.601 0-89.846-16.231-124.582-45.703-3.478-2.953-8.69-2.524-11.639.955s-2.524 8.689.954 11.638C158.45 447.581 206.49 465.204 256 465.204c115.356 0 209.204-93.848 209.204-209.204S371.356 46.796 256 46.796z"/><path d="M310.907 265.159l-3.24-1.053a52.465 52.465 0 0 0 0-16.212l3.24-1.053a8.257 8.257 0 0 0 5.302-10.405c-1.408-4.338-6.074-6.712-10.405-5.302l-3.263 1.06a52.593 52.593 0 0 0-9.523-13.099l2.019-2.779a8.258 8.258 0 1 0-13.362-9.708l-2.016 2.776a51.868 51.868 0 0 0-15.405-5.024v-3.413c0-4.561-3.696-8.258-8.258-8.258s-8.258 3.697-8.258 8.258v3.411a51.896 51.896 0 0 0-15.405 5.024l-2.016-2.776a8.259 8.259 0 0 0-13.362 9.708l2.019 2.779a52.568 52.568 0 0 0-9.523 13.099l-3.262-1.06a8.258 8.258 0 0 0-5.103 15.707l3.24 1.053a52.465 52.465 0 0 0 0 16.212l-3.24 1.053a8.26 8.26 0 0 0 5.106 15.71l3.262-1.06a52.593 52.593 0 0 0 9.523 13.099l-2.019 2.779a8.258 8.258 0 0 0 1.827 11.535 8.218 8.218 0 0 0 4.847 1.578c2.552 0 5.07-1.18 6.687-3.405l2.016-2.776a51.868 51.868 0 0 0 15.405 5.024v3.411a8.257 8.257 0 0 0 8.258 8.258 8.257 8.257 0 0 0 8.258-8.258v-3.411a51.896 51.896 0 0 0 15.405-5.024l2.016 2.776a8.246 8.246 0 0 0 6.687 3.405 8.223 8.223 0 0 0 4.847-1.578 8.257 8.257 0 0 0 1.827-11.535l-2.019-2.779a52.568 52.568 0 0 0 9.523-13.099l3.263 1.06a8.266 8.266 0 0 0 2.553.406 8.26 8.26 0 0 0 2.549-16.114zM256 291.785c-19.732 0-35.785-16.054-35.785-35.785s16.053-35.785 35.785-35.785 35.785 16.054 35.785 35.785-16.053 35.785-35.785 35.785z"/><circle cx="129.376" cy="256" r="8.258"/><circle cx="166.461" cy="345.539" r="8.258"/><circle cx="345.539" cy="166.461" r="8.258"/></svg>