<svg xmlns="http://www.w3.org/2000/svg" viewBox="0 0 512 512"><path d="M468.163 382.519c-53.672 53.673-126.692 76.484-196.817 68.454 62.607-3.678 120.956-29.796 165.673-74.513C485.37 328.108 512 263.821 512 195.441c0-4.561-3.696-8.258-8.258-8.258s-8.258 3.697-8.258 8.258c0 75.916-35.51 143.693-90.788 187.6 41.685-46.874 64.483-106.612 64.483-169.863 0-68.381-26.63-132.667-74.981-181.019a8.258 8.258 0 0 0-11.679 11.678c45.233 45.232 70.144 105.372 70.144 169.341 0 9.51-.557 18.933-1.643 28.237-3.509-62.896-29.662-121.537-74.559-166.434C328.107 26.628 263.821 0 195.441 0c-4.562 0-8.258 3.697-8.258 8.258s3.696 8.258 8.258 8.258c75.902 0 143.659 35.5 187.568 90.761-46.871-41.667-106.595-64.455-169.83-64.455-68.381 0-132.667 26.63-181.02 74.981a8.258 8.258 0 0 0 11.679 11.678C97.509 75.81 170.525 53 240.648 61.027c-62.605 3.679-120.951 29.797-165.667 74.512C26.63 183.892 0 248.179 0 316.559c0 4.561 3.696 8.258 8.258 8.258s8.258-3.697 8.258-8.258c0-75.909 35.505-143.678 90.776-187.586-41.676 46.872-64.47 106.604-64.47 169.848 0 68.381 26.63 132.667 74.981 181.019a8.238 8.238 0 0 0 5.84 2.419 8.257 8.257 0 0 0 5.84-14.097C84.25 422.93 59.339 362.79 59.339 298.821c0-9.519.554-18.952 1.642-28.265 3.504 62.907 29.656 121.558 74.56 166.463C183.893 485.372 248.179 512 316.559 512c4.562 0 8.258-3.697 8.258-8.258s-3.696-8.258-8.258-8.258c-75.916 0-143.693-35.51-187.6-90.789 46.875 41.685 106.613 64.483 169.863 64.483 68.381 0 132.667-26.629 181.02-74.981a8.258 8.258 0 0 0-11.679-11.678zM77.075 256c0-98.66 80.265-178.925 178.925-178.925S434.925 157.34 434.925 256 354.66 434.925 256 434.925 77.075 354.66 77.075 256z"/><path d="M256 126.624c-28.489 0-55.515 9.086-78.158 26.277a8.259 8.259 0 0 0 9.988 13.154c19.746-14.991 43.319-22.916 68.17-22.916 62.232 0 112.86 50.629 112.86 112.86S318.232 368.86 256 368.86 143.14 318.232 143.14 256c0-24.85 7.924-48.424 22.917-68.171a8.26 8.26 0 0 0-1.583-11.571 8.26 8.26 0 0 0-11.571 1.583c-17.191 22.645-26.278 49.671-26.278 78.159 0 71.339 58.038 129.376 129.376 129.376S385.376 327.339 385.376 256 327.339 126.624 256 126.624z"/><circle cx="462.452" cy="462.452" r="8.258"/><circle cx="495.484" cy="82.581" r="8.258"/><circle cx="462.452" cy="49.548" r="8.258"/><circle cx="49.548" cy="49.548" r="8.258"/></svg>