<svg xmlns="http://www.w3.org/2000/svg" viewBox="0 0 512 512"><path d="M404.645 0C345.449 0 297.29 48.159 297.29 107.355v90.839H156.903C70.386 198.194 0 268.58 0 355.097S70.386 512 156.903 512s156.903-70.386 156.903-156.903c0-4.561-3.696-8.258-8.258-8.258s-8.258 3.697-8.258 8.258c0 77.41-62.977 140.387-140.387 140.387S16.516 432.507 16.516 355.097 79.493 214.71 156.903 214.71H297.29v107.355c0 4.561 3.696 8.258 8.258 8.258s8.258-3.697 8.258-8.258V214.71h90.839C463.841 214.71 512 166.551 512 107.355 512 48.159 463.841 0 404.645 0zm0 198.194h-90.839v-90.839c0-50.089 40.751-90.839 90.839-90.839s90.839 40.75 90.839 90.839-40.751 90.839-90.839 90.839z"/><path d="M269.763 355.097a8.257 8.257 0 0 0-8.258-8.258h-3.089a101.308 101.308 0 0 0-2.409-15.26l2.931-.952a8.257 8.257 0 0 0 5.302-10.405c-1.408-4.337-6.068-6.714-10.405-5.302l-2.941.956a101.665 101.665 0 0 0-7.031-13.75l2.519-1.83a8.259 8.259 0 0 0-9.707-13.363l-2.538 1.844a102.593 102.593 0 0 0-10.913-10.913l1.844-2.538a8.258 8.258 0 0 0-1.828-11.535 8.256 8.256 0 0 0-11.535 1.828l-1.83 2.519a101.55 101.55 0 0 0-13.75-7.031l.956-2.941a8.258 8.258 0 0 0-5.302-10.405c-4.337-1.412-8.997.965-10.405 5.302l-.952 2.931a101.288 101.288 0 0 0-15.26-2.409v-3.09a8.258 8.258 0 0 0-8.258-8.258 8.258 8.258 0 0 0-8.258 8.258v3.089a101.308 101.308 0 0 0-15.26 2.409l-.952-2.931a8.256 8.256 0 0 0-10.405-5.302 8.257 8.257 0 0 0-5.302 10.405l.956 2.941a101.665 101.665 0 0 0-13.75 7.031l-1.83-2.519a8.259 8.259 0 0 0-13.363 9.707l1.844 2.538a102.686 102.686 0 0 0-10.913 10.913l-2.538-1.844a8.256 8.256 0 0 0-11.535 1.828 8.258 8.258 0 0 0 1.828 11.535l2.519 1.83a101.55 101.55 0 0 0-7.031 13.75l-2.941-.956a8.254 8.254 0 0 0-10.405 5.302 8.258 8.258 0 0 0 5.302 10.405l2.931.952a101.288 101.288 0 0 0-2.409 15.26h-3.091c-4.561 0-8.258 3.697-8.258 8.258s3.697 8.258 8.258 8.258h3.089a101.308 101.308 0 0 0 2.409 15.26l-2.931.952a8.257 8.257 0 0 0-5.302 10.405 8.26 8.26 0 0 0 7.852 5.709c.846 0 1.706-.131 2.553-.406l2.941-.956a101.665 101.665 0 0 0 7.031 13.75l-2.519 1.83a8.259 8.259 0 0 0 9.707 13.362l2.538-1.844a102.686 102.686 0 0 0 10.913 10.913l-1.844 2.538a8.258 8.258 0 0 0 1.828 11.535 8.22 8.22 0 0 0 4.847 1.578 8.246 8.246 0 0 0 6.688-3.405l1.83-2.519a101.55 101.55 0 0 0 13.75 7.031l-.956 2.941a8.258 8.258 0 0 0 15.707 5.102l.952-2.931a101.288 101.288 0 0 0 15.26 2.409v3.089a8.258 8.258 0 0 0 8.258 8.258 8.258 8.258 0 0 0 8.258-8.258v-3.089a101.308 101.308 0 0 0 15.26-2.409l.952 2.931a8.26 8.26 0 0 0 7.852 5.709 8.257 8.257 0 0 0 7.855-10.811l-.956-2.941a101.665 101.665 0 0 0 13.75-7.031l1.83 2.519a8.249 8.249 0 0 0 6.688 3.405 8.259 8.259 0 0 0 6.675-13.113l-1.844-2.538a102.593 102.593 0 0 0 10.913-10.913l2.538 1.844a8.22 8.22 0 0 0 4.847 1.578 8.258 8.258 0 0 0 4.86-14.94l-2.519-1.83a101.55 101.55 0 0 0 7.031-13.75l2.941.956a8.266 8.266 0 0 0 2.553.406 8.26 8.26 0 0 0 2.55-16.114l-2.931-.952a101.288 101.288 0 0 0 2.409-15.26h3.091v.001a8.258 8.258 0 0 0 8.258-8.258zm-112.86 85.333c-47.052 0-85.333-38.281-85.333-85.333s38.281-85.333 85.333-85.333 85.333 38.281 85.333 85.333-38.28 85.333-85.333 85.333zm302.652-323.919l-3.24-1.053a52.465 52.465 0 0 0 0-16.212l3.24-1.053a8.255 8.255 0 0 0 5.304-10.403 8.258 8.258 0 0 0-10.405-5.302l-3.263 1.06a52.593 52.593 0 0 0-9.523-13.099l2.019-2.779a8.258 8.258 0 0 0-1.827-11.535c-3.686-2.68-8.852-1.864-11.535 1.827l-2.016 2.776a51.868 51.868 0 0 0-15.405-5.024v-3.413c0-4.561-3.696-8.258-8.258-8.258s-8.258 3.697-8.258 8.258v3.411a51.896 51.896 0 0 0-15.405 5.024l-2.016-2.776a8.259 8.259 0 0 0-13.362 9.708l2.019 2.779a52.568 52.568 0 0 0-9.523 13.099l-3.262-1.06a8.259 8.259 0 0 0-5.103 15.707l3.24 1.053a52.465 52.465 0 0 0 0 16.212l-3.24 1.053a8.257 8.257 0 0 0-5.302 10.405 8.247 8.247 0 0 0 10.405 5.303l3.262-1.06a52.593 52.593 0 0 0 9.523 13.099l-2.019 2.779a8.258 8.258 0 0 0 1.827 11.535 8.218 8.218 0 0 0 4.847 1.578c2.552 0 5.07-1.18 6.687-3.404l2.016-2.776a51.868 51.868 0 0 0 15.405 5.024v3.411a8.257 8.257 0 0 0 8.258 8.258 8.257 8.257 0 0 0 8.258-8.258v-3.411a51.896 51.896 0 0 0 15.405-5.024l2.016 2.776a8.245 8.245 0 0 0 6.687 3.404 8.223 8.223 0 0 0 4.847-1.578 8.257 8.257 0 0 0 1.827-11.535l-2.019-2.779a52.568 52.568 0 0 0 9.523-13.099l3.263 1.06a8.266 8.266 0 0 0 2.553.406 8.258 8.258 0 0 0 2.55-16.114zm-54.91 26.629c-19.732 0-35.785-16.054-35.785-35.785s16.053-35.785 35.785-35.785 35.785 16.054 35.785 35.785-16.052 35.785-35.785 35.785z"/></svg>