<svg xmlns="http://www.w3.org/2000/svg" viewBox="0 0 512 512"><path d="M506.771 347.415l-103.265-40.727-40.727-103.265a8.258 8.258 0 0 0-15.364 0l-40.727 103.265-103.265 40.727a8.258 8.258 0 0 0 0 15.364l103.265 40.727 40.727 103.265a8.258 8.258 0 0 0 15.364 0l40.727-103.265 103.265-40.727a8.258 8.258 0 0 0 0-15.364zM394.11 389.458a8.26 8.26 0 0 0-4.653 4.653l-34.36 87.123-34.361-87.123a8.26 8.26 0 0 0-4.653-4.653l-87.123-34.361 87.123-34.361a8.26 8.26 0 0 0 4.653-4.653l34.361-87.123 34.361 87.123a8.26 8.26 0 0 0 4.653 4.653l87.123 34.361-87.124 34.361z"/><path d="M355.097 319.312c-1.66 0-3.359.121-5.048.361a8.257 8.257 0 0 0-7.018 9.335c.64 4.516 4.824 7.662 9.335 7.018a19.562 19.562 0 0 1 2.733-.197c10.624 0 19.269 8.645 19.269 19.269s-8.645 19.269-19.269 19.269-19.269-8.645-19.269-19.269c0-.889.067-1.808.197-2.733a8.26 8.26 0 0 0-16.353-2.317 36.17 36.17 0 0 0-.361 5.048c0 19.731 16.054 35.785 35.785 35.785 19.731 0 35.785-16.054 35.785-35.785-.001-19.731-16.055-35.784-35.786-35.784zm-46.519-170.091l-103.266-40.727L164.585 5.229a8.256 8.256 0 0 0-15.364 0l-40.727 103.265L5.229 149.221a8.257 8.257 0 0 0 0 15.364l103.265 40.727 40.727 103.265a8.258 8.258 0 0 0 15.364 0l40.727-103.265 103.266-40.727a8.258 8.258 0 0 0 0-15.364zm-112.66 42.043a8.26 8.26 0 0 0-4.653 4.653l-34.361 87.123-34.361-87.123a8.26 8.26 0 0 0-4.653-4.653l-87.123-34.361 87.124-34.361a8.26 8.26 0 0 0 4.653-4.653l34.36-87.123 34.361 87.123a8.26 8.26 0 0 0 4.653 4.653l87.123 34.361-87.123 34.361z"/><path d="M156.903 121.118c-1.66 0-3.359.121-5.048.361-4.516.64-7.658 4.818-7.018 9.335s4.822 7.661 9.335 7.018a19.562 19.562 0 0 1 2.733-.197c10.624 0 19.269 8.645 19.269 19.269s-8.645 19.269-19.269 19.269c-10.624 0-19.269-8.645-19.269-19.269 0-.889.067-1.808.197-2.733a8.26 8.26 0 0 0-7.018-9.335c-4.518-.642-8.694 2.503-9.335 7.018a36.17 36.17 0 0 0-.361 5.048c0 19.731 16.054 35.785 35.785 35.785 19.731 0 35.785-16.054 35.785-35.785-.001-19.73-16.054-35.784-35.786-35.784zm349.868-46.22l-49.965-19.705-19.704-49.964a8.258 8.258 0 0 0-15.365 0l-19.705 49.965-49.965 19.705a8.257 8.257 0 0 0 0 15.364l49.965 19.705 19.705 49.965a8.258 8.258 0 0 0 15.364 0l19.705-49.965 49.965-19.705a8.257 8.257 0 0 0 0-15.365zm-59.36 21.022a8.26 8.26 0 0 0-4.653 4.653l-13.338 33.822-13.34-33.823a8.26 8.26 0 0 0-4.653-4.653l-33.822-13.338 33.823-13.34a8.26 8.26 0 0 0 4.653-4.653l13.338-33.822 13.339 33.822a8.26 8.26 0 0 0 4.653 4.653l33.822 13.34-33.822 13.339zM159.932 421.737l-49.965-19.705-19.705-49.965a8.257 8.257 0 0 0-15.364 0l-19.705 49.965-49.964 19.705a8.257 8.257 0 0 0 0 15.364l49.965 19.705 19.705 49.965a8.257 8.257 0 0 0 15.364 0l19.705-49.965 49.965-19.705a8.258 8.258 0 0 0-.001-15.364zm-59.36 21.022a8.26 8.26 0 0 0-4.653 4.653l-13.338 33.822-13.34-33.823a8.26 8.26 0 0 0-4.653-4.653L30.766 429.42l33.822-13.34a8.26 8.26 0 0 0 4.653-4.653l13.34-33.822 13.34 33.822a8.26 8.26 0 0 0 4.653 4.653l33.822 13.34-33.824 13.339z"/></svg>