<svg xmlns="http://www.w3.org/2000/svg" viewBox="0 0 512 512"><path d="M311.78 370.888c-24.686-24.686-64.852-24.686-89.538-.001a63.457 63.457 0 0 0-15.625 25.782 8.257 8.257 0 0 0 5.409 10.35 8.257 8.257 0 0 0 10.35-5.408c2.273-7.248 6.157-13.656 11.546-19.044 18.246-18.245 47.933-18.245 66.179 0 18.245 18.246 18.245 47.934 0 66.179-18.246 18.246-47.934 18.245-66.179 0-5.389-5.389-9.273-11.796-11.546-19.044a8.253 8.253 0 0 0-10.35-5.408 8.259 8.259 0 0 0-5.409 10.35 63.484 63.484 0 0 0 15.626 25.782c12.342 12.342 28.555 18.513 44.769 18.513 16.213 0 32.426-6.17 44.769-18.513 24.685-24.686 24.685-64.853-.001-89.538zm148.646-258.752c-24.686-24.686-64.852-24.686-89.538-.001a63.457 63.457 0 0 0-15.625 25.782 8.257 8.257 0 0 0 5.408 10.35 8.255 8.255 0 0 0 10.35-5.409c2.273-7.248 6.157-13.656 11.546-19.044 18.246-18.245 47.933-18.245 66.179 0 18.245 18.246 18.245 47.934 0 66.179-18.246 18.246-47.934 18.245-66.179 0-5.389-5.389-9.273-11.796-11.546-19.044a8.255 8.255 0 0 0-10.35-5.409 8.257 8.257 0 0 0-5.408 10.35c3.033 9.677 8.438 18.592 15.626 25.782 12.342 12.342 28.555 18.513 44.769 18.513 16.213 0 32.426-6.17 44.769-18.513 24.684-24.685 24.684-64.851-.001-89.536z"/><path d="M512 156.903a96.232 96.232 0 0 0-23.842-63.437c-14.646-16.719-34.568-27.849-56.335-31.535-18.754-17.015-40.567-29.968-64.949-38.574-.641-11.162-8.845-20.879-20.321-22.96A25.092 25.092 0 0 0 342.124 0c-9.226 0-17.407 5.09-21.665 12.813-59.042-6.708-122.698 10.329-176.63 47.313a24.726 24.726 0 0 0-13.807-4.198 24.794 24.794 0 0 0-15.886 5.773c-5.076 4.246-8.194 10.214-8.781 16.806a24.624 24.624 0 0 0 1.663 11.394 293.508 293.508 0 0 0-6.036 5.863 304.507 304.507 0 0 0-34.101 40.624C26.167 154.549 0 194.748 0 239.484c0 20.971 5.767 41.355 16.703 59.109 2.036 52.288 22.157 100.046 56.798 134.688 34.581 34.581 80.256 54.153 132.244 56.702A96.244 96.244 0 0 0 267.011 512c40.84 0 76.877-25.448 90.631-63.643 11.599-7.256 22.89-15.483 33.644-24.51.786.04 1.572.059 2.357.059 12.499 0 24.248-4.865 33.081-13.698a46.773 46.773 0 0 0 13.431-38.157c36.017-48.479 55.582-105.491 55.316-161.213C506.294 194.867 512 176.28 512 156.903zM315.798 28.934c-11.436 41.306-49.166 70.45-92.831 70.45-25.303 0-49.304-9.868-67.233-27.355 49.261-32.982 106.65-48.431 160.064-43.095zm109.112 335.91a8.256 8.256 0 0 0-1.54 6.554 30.281 30.281 0 0 1-8.325 27.133c-5.714 5.713-13.315 8.86-21.403 8.86-1.33 0-2.672-.088-3.99-.261a8.245 8.245 0 0 0-6.46 1.924c-11.656 10.013-24.008 19.026-36.712 26.788a8.265 8.265 0 0 0-3.549 4.496c-10.715 32.985-41.225 55.147-75.92 55.147a79.736 79.736 0 0 1-52.629-19.835 8.251 8.251 0 0 0-5.144-2.047c-48.941-1.8-91.84-19.781-124.057-51.999-32.616-32.617-50.613-76.104-52.045-125.759a8.262 8.262 0 0 0-1.314-4.236c-10.013-15.534-15.306-33.557-15.306-52.124 0-38.887 23.163-73.76 59.01-88.844a8.265 8.265 0 0 0 3.602-2.932c9.849-14.317 21.132-27.866 33.533-40.267a291.527 291.527 0 0 1 10.381-9.865 8.259 8.259 0 0 0 .792-11.419l-.135-.156a8.2 8.2 0 0 1-1.892-6.031 8.198 8.198 0 0 1 2.928-5.602 8.154 8.154 0 0 1 5.289-1.925 8.243 8.243 0 0 1 6.343 2.96c21.53 25.735 53.095 40.495 86.602 40.495 54.62 0 101.321-38.943 111.045-92.596a8.246 8.246 0 0 1 9.599-6.654c4.481.812 7.465 5.118 6.653 9.601-.047.265-.1.529-.152.793l-.104.531a8.257 8.257 0 0 0 5.614 9.43c25.403 8.052 47.886 21.088 66.825 38.742a8.259 8.259 0 0 0 4.476 2.136c39.086 5.521 68.561 39.492 68.561 79.022 0 16.817-5.187 32.914-15.002 46.553a8.262 8.262 0 0 0-1.554 4.957c.877 53.96-18.307 109.515-54.02 156.43z"/><circle cx="256" cy="256" r="8.258"/><circle cx="289.032" cy="222.968" r="8.258"/><circle cx="377.118" cy="327.57" r="8.258"/><circle cx="145.892" cy="426.667" r="8.258"/><path d="M180.805 197.58a8.258 8.258 0 0 0-14.05 8.682 63.141 63.141 0 0 1 9.418 33.222c0 34.911-28.401 63.312-63.312 63.312s-63.312-28.401-63.312-63.312 28.401-63.312 63.312-63.312a63.156 63.156 0 0 1 33.222 9.417 8.258 8.258 0 1 0 8.682-14.05 79.652 79.652 0 0 0-41.904-11.883c-44.018 0-79.828 35.81-79.828 79.828s35.81 79.828 79.828 79.828 79.828-35.81 79.828-79.828a79.668 79.668 0 0 0-11.884-41.904z"/></svg>