<svg xmlns="http://www.w3.org/2000/svg" viewBox="0 0 512 512"><circle cx="118.366" cy="112.86" r="8.258"/><circle cx="118.366" cy="79.828" r="8.258"/><path d="M118.366 137.634c-16.696 0-30.28 13.583-30.28 30.28v22.021c0 7.59-6.174 13.763-13.763 13.763s-13.763-6.174-13.763-13.763V63.312c0-4.561-3.696-8.258-8.258-8.258s-8.258 3.697-8.258 8.258v126.624c0 16.697 13.584 30.28 30.28 30.28s30.28-13.583 30.28-30.28v-22.021c0-7.59 6.174-13.763 13.763-13.763s13.763 6.174 13.763 13.763v236.731c0 31.875-25.932 57.806-57.806 57.806s-57.806-25.931-57.806-57.806V30.28c0-7.59 6.174-13.763 13.763-13.763 7.59 0 13.763 6.174 13.763 13.763 0 4.561 3.696 8.258 8.258 8.258s8.258-3.697 8.258-8.258C60.559 13.583 46.975 0 30.28 0 13.584 0 0 13.583 0 30.28v374.366c0 40.982 33.341 74.323 74.323 74.323 40.982 0 74.323-33.341 74.323-74.323V167.914c-.001-16.697-13.585-30.28-30.28-30.28z"/><path d="M74.323 363.355c-22.768 0-41.29 18.522-41.29 41.29s18.522 41.29 41.29 41.29 41.29-18.522 41.29-41.29-18.522-41.29-41.29-41.29zm0 66.064c-13.66 0-24.774-11.113-24.774-24.774 0-13.661 11.114-24.774 24.774-24.774s24.774 11.113 24.774 24.774c0 13.661-11.114 24.774-24.774 24.774z"/><circle cx="228.473" cy="46.796" r="8.258"/><path d="M316.559 0c-16.696 0-30.28 13.583-30.28 30.28 0 4.561 3.696 8.258 8.258 8.258s8.258-3.697 8.258-8.258c0-7.59 6.174-13.763 13.763-13.763s13.763 6.174 13.763 13.763v242.237c0 31.875-25.932 57.806-57.806 57.806s-57.806-25.931-57.806-57.806V101.849c0-7.59 6.174-13.763 13.763-13.763s13.763 6.174 13.763 13.763v22.021c0 16.697 13.584 30.28 30.28 30.28s30.28-13.583 30.28-30.28V63.312c0-4.561-3.696-8.258-8.258-8.258s-8.258 3.697-8.258 8.258v60.559c0 7.59-6.174 13.763-13.763 13.763s-13.763-6.174-13.763-13.763V101.85c0-16.697-13.584-30.28-30.28-30.28s-30.28 13.583-30.28 30.28v170.667c0 40.982 33.341 74.323 74.323 74.323 40.982 0 74.323-33.341 74.323-74.323V30.28c0-16.697-13.584-30.28-30.28-30.28z"/><path d="M272.516 231.226c-22.768 0-41.29 18.522-41.29 41.29s18.522 41.29 41.29 41.29 41.29-18.522 41.29-41.29-18.522-41.29-41.29-41.29zm0 66.064c-13.66 0-24.774-11.113-24.774-24.774 0-13.661 11.114-24.774 24.774-24.774s24.774 11.113 24.774 24.774c0 13.661-11.114 24.774-24.774 24.774z"/><circle cx="393.634" cy="107.355" r="8.258"/><circle cx="393.634" cy="74.323" r="8.258"/><path d="M437.677 396.387c-22.768 0-41.29 18.522-41.29 41.29s18.522 41.29 41.29 41.29 41.29-18.522 41.29-41.29-18.522-41.29-41.29-41.29zm0 66.065c-13.66 0-24.774-11.113-24.774-24.774s11.114-24.774 24.774-24.774 24.774 11.113 24.774 24.774-11.114 24.774-24.774 24.774z"/><path d="M481.72 0c-16.696 0-30.28 13.583-30.28 30.28v143.14c0 4.561 3.696 8.258 8.258 8.258s8.258-3.697 8.258-8.258V30.28c0-7.59 6.174-13.763 13.763-13.763s13.763 6.174 13.763 13.763v407.398c0 31.875-25.933 57.806-57.806 57.806s-57.806-25.931-57.806-57.806V162.409c0-7.59 6.174-13.763 13.763-13.763s13.763 6.174 13.763 13.763v44.043c0 16.697 13.584 30.28 30.28 30.28s30.28-13.583 30.28-30.28c0-4.561-3.696-8.258-8.258-8.258s-8.258 3.697-8.258 8.258c0 7.59-6.174 13.763-13.763 13.763s-13.763-6.174-13.763-13.763v-44.043c0-16.697-13.584-30.28-30.28-30.28s-30.28 13.583-30.28 30.28v275.269c0 40.982 33.341 74.323 74.323 74.323S512 478.659 512 437.677V30.28C512 13.583 498.416 0 481.72 0z"/></svg>