<svg xmlns="http://www.w3.org/2000/svg" viewBox="0 0 512 512"><path d="M260.409 49.139a8.26 8.26 0 0 0-11.68 0L89.123 208.744a8.258 8.258 0 0 0 5.841 14.098 8.236 8.236 0 0 0 5.841-2.419L260.409 60.819a8.26 8.26 0 0 0 0-11.68zm46.72-46.72a8.26 8.26 0 0 0-11.68 0l-23.361 23.36a8.258 8.258 0 0 0 5.841 14.098 8.237 8.237 0 0 0 5.841-2.419l23.36-23.36a8.258 8.258 0 0 0-.001-11.679zm202.452 202.452a8.26 8.26 0 0 0-11.68 0l-23.36 23.36a8.258 8.258 0 0 0 5.841 14.098 8.237 8.237 0 0 0 5.841-2.419l23.36-23.36a8.26 8.26 0 0 0-.002-11.679zm-46.72 46.721a8.262 8.262 0 0 0-11.681-.001L291.575 411.198a8.258 8.258 0 0 0 5.841 14.098 8.237 8.237 0 0 0 5.841-2.419l159.605-159.606a8.258 8.258 0 0 0-.001-11.679zM503.131 8.87c-11.808-11.808-31.021-11.808-42.829 0L320.144 149.029c-5.366 5.367-14.101 5.367-19.467.001-5.366-5.367-5.366-14.101 0-19.467l54.507-54.507a8.258 8.258 0 1 0-11.68-11.679l-54.507 54.506c-11.806 11.807-11.806 31.018 0 42.826 5.904 5.904 13.659 8.856 21.414 8.856s15.51-2.952 21.414-8.856l140.159-140.16c2.599-2.6 6.057-4.031 9.733-4.031s7.135 1.432 9.733 4.031c5.367 5.367 5.367 14.1 0 19.467a8.258 8.258 0 0 0 .001 11.679 8.258 8.258 0 0 0 11.679 0c11.807-11.807 11.807-31.018.001-42.825z"/><path d="M503.13 133.455c-5.72-5.72-13.326-8.869-21.413-8.869-8.089 0-15.694 3.151-21.413 8.87l-46.72 46.72c-5.366 5.368-14.1 5.366-19.466 0-5.367-5.367-5.367-14.1 0-19.467l82.605-82.605a8.258 8.258 0 0 0 0-11.679 8.258 8.258 0 0 0-11.68 0l-82.605 82.605c-5.719 5.72-8.869 13.324-8.869 21.413s3.149 15.693 8.869 21.413 13.326 8.87 21.414 8.87 15.693-3.149 21.413-8.87l46.72-46.72a13.669 13.669 0 0 1 9.732-4.031c3.677 0 7.135 1.432 9.733 4.031 5.367 5.367 5.367 14.1 0 19.467l-301.102 301.1c-39.716 39.715-104.338 39.715-144.052 0-39.715-39.715-39.715-104.337 0-144.053l301.1-301.101c5.367-5.367 14.101-5.366 19.466 0 2.6 2.6 4.033 6.057 4.033 9.733s-1.433 7.134-4.033 9.733a8.26 8.26 0 0 0 11.68 11.68c5.719-5.72 8.87-13.324 8.87-21.414s-3.151-15.693-8.87-21.413c-11.808-11.807-31.018-11.807-42.827 0L34.616 309.97c-46.154 46.157-46.154 121.257 0 167.412C57.695 500.46 88.008 512 118.323 512s60.628-11.539 83.707-34.617l301.102-301.102c11.805-11.807 11.805-31.018-.002-42.826z"/><path d="M118.323 319.346a74.266 74.266 0 0 0-37.754 10.307 8.258 8.258 0 0 0-2.909 11.311c2.32 3.927 7.387 5.231 11.311 2.909a57.736 57.736 0 0 1 29.352-8.01c31.877 0 57.813 25.934 57.813 57.813 0 31.878-25.935 57.813-57.813 57.813-31.877 0-57.813-25.934-57.813-57.813a57.737 57.737 0 0 1 8.01-29.351 8.26 8.26 0 0 0-14.22-8.404 74.243 74.243 0 0 0-10.307 37.754c0 40.986 33.344 74.331 74.331 74.331 40.986 0 74.331-33.344 74.331-74.331-.001-40.985-33.346-74.329-74.332-74.329z"/></svg>