<svg xmlns="http://www.w3.org/2000/svg" viewBox="0 0 512.001 512.001"><path d="M458.258 53.743C423.121 18.606 375.307.033 319.988.033c-37.062 0-76.45 8.747-113.907 25.295-39.12 17.282-75.062 42.154-106.83 73.922-53.744 53.744-88.206 120.46-97.036 187.856-8.936 68.203 9.365 128.986 51.529 171.15 35.139 35.139 82.951 53.711 138.27 53.711 37.062 0 76.45-8.747 113.907-25.296 39.12-17.283 75.062-42.154 106.83-73.922 53.744-53.744 88.206-120.46 97.036-187.856 8.937-68.202-9.364-128.985-51.529-171.15zm35.155 169.006c-8.359 63.808-41.153 127.137-92.339 178.324-59.98 59.98-136.179 94.381-209.06 94.381-50.844 0-94.619-16.9-126.592-48.874-38.455-38.455-55.086-94.328-46.833-157.329 8.359-63.808 41.153-127.137 92.339-178.323 59.981-59.981 136.179-94.381 209.06-94.381 50.844 0 94.619 16.9 126.592 48.874 38.455 38.455 55.088 94.328 46.833 157.328z"/><circle cx="256.002" cy="451.417" r="8.257"/><circle cx="289.03" cy="418.389" r="8.257"/><circle cx="88.781" cy="423.222" r="8.257"/><circle cx="228.897" cy="329.807" r="8.257"/><circle cx="275.609" cy="329.807" r="8.257"/><circle cx="182.195" cy="423.222" r="8.257"/><circle cx="256.002" cy="60.585" r="8.257"/><circle cx="418.39" cy="256.001" r="8.257"/><circle cx="369.794" cy="349.415" r="8.257"/><circle cx="137.651" cy="200.954" r="8.257"/><circle cx="104.623" cy="167.926" r="8.257"/></svg>