<svg xmlns="http://www.w3.org/2000/svg" viewBox="0 0 512 512"><path d="M264.258 121.305V27.527h82.581v49.548h-57.806a8.258 8.258 0 0 0-8.258 8.258 8.258 8.258 0 0 0 8.258 8.258h66.065a8.258 8.258 0 0 0 8.258-8.258V19.269a8.258 8.258 0 0 0-8.258-8.258h-90.839V8.258a8.26 8.26 0 0 0-16.517 0v113.047c-103.95 4.344-187.183 90.255-187.183 195.254C60.559 424.326 148.233 512 256 512s195.441-87.674 195.441-195.441c0-104.999-83.233-190.91-187.183-195.254zM256 495.484c-63.704 0-119.729-33.471-151.439-83.742 72.512-4.888 114.391-24.58 154.953-43.669 34.643-16.301 67.366-31.699 118.717-39.009a8.257 8.257 0 1 0-2.327-16.351c-53.808 7.66-89.198 24.313-123.422 40.417-42.462 19.981-82.643 38.87-156.909 42.595-11.832-23.881-18.498-50.758-18.498-79.166 0-98.66 80.265-178.925 178.925-178.925 95.912 0 174.43 75.86 178.73 170.729-8.598.126-17.013.443-25.104.949a8.259 8.259 0 1 0 1.032 16.484c7.754-.486 15.82-.792 24.068-.915C430.362 419.692 351.87 495.484 256 495.484z"/><circle cx="110.108" cy="316.559" r="8.258"/><circle cx="359.16" cy="419.719" r="8.258"/><circle cx="143.14" cy="283.527" r="8.258"/></svg>