<svg xmlns="http://www.w3.org/2000/svg" viewBox="0 0 512 512"><circle cx="123.871" cy="256" r="8.258"/><circle cx="156.903" cy="222.968" r="8.258"/><path d="M438.299 67.785a8.256 8.256 0 0 0-10.096 5.871c-2.432 9.187-9.963 29.877-33.078 65.206-28.118 42.971-69.532 92.564-116.615 139.647-47.082 47.083-96.677 88.498-139.646 116.614-35.328 23.116-56.017 30.647-65.207 33.078a8.257 8.257 0 0 0-5.87 10.096 8.26 8.26 0 0 0 10.095 5.871c10.153-2.687 32.75-10.837 70.024-35.226 43.891-28.719 94.422-70.895 142.283-118.755 47.86-47.86 90.036-98.391 118.755-142.282 24.388-37.275 32.538-59.872 35.223-70.024 1.17-4.408-1.46-8.928-5.868-10.096z"/><path d="M493.536 18.465C485.113 10.041 469.98 0 445.719 0c-30.991 0-72.704 17.453-123.98 51.875-11.34 7.612-23.109 16.038-35.022 25.059A182.283 182.283 0 0 0 256 74.322c-100.177 0-181.677 81.5-181.677 181.677 0 10.377.891 20.651 2.614 30.73-15.511 20.466-29.036 40.212-40.185 58.723-16.431 27.28-27.467 51.498-32.801 71.983-10.519 40.385 2.088 63.676 14.514 76.102C26.887 501.959 42.021 512 66.282 512c30.991 0 72.705-17.453 123.982-51.875 11.453-7.689 23.157-16.066 35.024-25.054A183.12 183.12 0 0 0 256 437.677c100.177 0 181.677-81.5 181.677-181.677 0-10.275-.881-20.593-2.61-30.73 15.415-20.338 28.955-40.086 40.18-58.723 16.43-27.276 27.465-51.495 32.801-71.983 10.519-40.383-2.086-63.673-14.512-76.099zM256 90.839c41.232 0 80.719 15.29 111.185 43.052a8.26 8.26 0 0 0 11.125-12.208 181.81 181.81 0 0 0-34.617-24.806C408.306 52.438 447.746 42.746 458.501 53.5c8.146 8.146 5.673 35.405-25.695 87.482-29.248 48.559-75.751 105.694-130.94 160.884-55.188 55.189-112.325 101.691-160.883 130.939-52.078 31.367-79.337 33.84-87.482 25.695-10.755-10.754-1.064-50.193 43.377-114.806a181.918 181.918 0 0 0 24.805 34.616 8.232 8.232 0 0 0 6.107 2.695 8.258 8.258 0 0 0 6.102-13.82C106.128 336.718 90.839 297.231 90.839 256c0-91.07 74.091-165.161 165.161-165.161zm0 330.322c-4.083 0-8.172-.156-12.253-.459 30.691-24.529 62.194-52.841 93.155-83.801 30.898-30.898 59.286-62.52 83.798-93.177.303 4.088.46 8.185.46 12.276.002 91.07-74.09 165.161-165.16 165.161zM492.067 90.403c-4.936 18.953-15.354 41.704-30.967 67.622-30.589 50.787-78.845 110.166-135.877 167.198-48.583 48.583-98.434 90.49-144.166 121.189-48.505 32.562-87.12 49.072-114.776 49.072-18.606 0-29.923-7.41-36.138-13.627-9.376-9.375-18.757-27.44-10.209-60.261 4.934-18.949 15.352-41.701 30.967-67.623 8.831-14.661 19.218-30.151 30.946-46.19a180.639 180.639 0 0 0 6.767 18.88c-30.688 43.36-74.457 115.85-46.791 143.514 6.152 6.152 14.552 8.716 24.29 8.715 24.259-.002 56.799-15.92 83.393-31.94 49.673-29.921 107.931-77.299 164.04-133.409 56.11-56.11 103.488-114.367 133.408-164.04 22.45-37.27 44.701-86.206 23.226-107.683-27.663-27.66-100.152 16.104-143.515 46.792a180.535 180.535 0 0 0-18.887-6.768 708.175 708.175 0 0 1 23.167-16.256c48.504-32.562 87.12-49.072 114.774-49.072 18.606 0 29.922 7.41 36.137 13.627 9.377 9.376 18.758 27.441 10.211 60.26z"/></svg>