<svg xmlns="http://www.w3.org/2000/svg" viewBox="0 0 512 512"><path d="M256 33.032c-13.66 0-24.774 11.114-24.774 24.774S242.34 82.58 256 82.58s24.774-11.114 24.774-24.774S269.66 33.032 256 33.032zm0 33.033c-4.554 0-8.258-3.705-8.258-8.258 0-4.553 3.704-8.258 8.258-8.258 4.554 0 8.258 3.705 8.258 8.258 0 4.552-3.704 8.258-8.258 8.258z"/><path d="M437.019 74.981C388.666 26.628 324.38 0 256 0S123.334 26.628 74.981 74.981C26.63 123.333 0 187.62 0 256s26.63 132.667 74.981 181.019C123.334 485.372 187.62 512 256 512s132.666-26.628 181.019-74.981C485.37 388.667 512 324.38 512 256s-26.63-132.667-74.981-181.019zM256 495.484c-54.77 0-105.294-18.495-145.685-49.548h228.266c13.435 0 24.399 10.753 24.757 24.104-32.306 16.265-68.768 25.444-107.338 25.444zm193.895-99.097H118.366c-13.66 0-24.774-11.114-24.774-24.774s11.114-24.774 24.774-24.774h359.206a239.453 239.453 0 0 1-27.677 49.548zm-331.529-66.064c-22.768 0-41.29 18.523-41.29 41.29s18.522 41.29 41.29 41.29h318.413a241.285 241.285 0 0 1-57.954 48.607c-4.194-18.352-20.639-32.091-40.244-32.091H91.004c-32.454-30.893-56.263-70.778-67.418-115.613h199.382c4.562 0 8.258-3.697 8.258-8.258s-3.696-8.258-8.258-8.258H20.089A240.071 240.071 0 0 1 16.516 256c0-14.078 1.232-27.873 3.573-41.29H256c22.768 0 41.29 18.523 41.29 41.29s-18.522 41.29-41.29 41.29c-4.562 0-8.258 3.697-8.258 8.258s3.696 8.258 8.258 8.258c31.874 0 57.806-25.933 57.806-57.806S287.874 198.194 256 198.194H23.586C49.515 93.978 143.874 16.516 256 16.516c72.089 0 136.837 32.019 180.779 82.581h-263.36c-22.768 0-41.29 18.523-41.29 41.29s18.522 41.29 41.29 41.29a8.257 8.257 0 0 0 8.258-8.258 8.257 8.257 0 0 0-8.258-8.258c-13.66 0-24.774-11.114-24.774-24.774s11.114-24.774 24.774-24.774h276.476a239.453 239.453 0 0 1 27.677 49.548h-271.12a8.257 8.257 0 0 0-8.258 8.258 8.257 8.257 0 0 0 8.258 8.258h277.211c7.66 23.409 11.821 48.387 11.821 74.323 0 25.936-4.161 50.914-11.821 74.323H118.366z"/><circle cx="462.452" cy="256" r="8.258"/><circle cx="86.885" cy="137.579" r="8.258"/><circle cx="429.419" cy="289.032" r="8.258"/></svg>