<svg xmlns="http://www.w3.org/2000/svg" viewBox="0 0 512 512"><path d="M437.019 74.981C388.666 26.628 324.38 0 256 0S123.333 26.628 74.981 74.981 0 187.62 0 256s26.628 132.667 74.981 181.019C123.334 485.37 187.62 512 256 512s132.666-26.628 181.019-74.981C485.37 388.667 512 324.38 512 256s-26.63-132.667-74.981-181.019zM149.432 41.578c1.739 28.933-8.932 57.533-29.627 78.228-19.238 19.238-45.302 29.823-72.118 29.82-2.03 0-4.067-.084-6.105-.206 23.257-46.594 61.254-84.589 107.85-107.842zM34.346 165.366c4.448.504 8.9.777 13.335.777 31.156-.001 61.45-12.302 83.805-34.657 25.538-25.541 37.949-61.436 33.896-97.148C193.35 22.863 223.945 16.516 256 16.516c70.989 0 134.851 31.059 178.744 80.288-82.159 8.15-132.92 30.699-182.096 52.552-60.424 26.851-117.599 52.254-230.335 54.215 2.954-13.176 7-25.942 12.033-38.205zm349.891 292.805c-64.651-11.567-108.906-31.224-151.714-50.25-26.146-11.621-50.843-22.596-79.758-31.331a8.258 8.258 0 0 0-4.775 15.81c27.927 8.435 52.165 19.207 77.826 30.612 37.562 16.695 79.581 35.359 136.316 47.625-32.007 15.893-68.04 24.847-106.132 24.847-88.552 0-166.029-48.313-207.466-119.962 24.654 1.478 47.069 4.389 68.136 8.849a8.302 8.302 0 0 0 1.719.181 8.258 8.258 0 0 0 1.702-16.339c-24.684-5.227-51.066-8.404-80.492-9.695a237.559 237.559 0 0 1-17.287-50.089c112.737 1.961 169.911 27.364 230.335 54.215 49.176 21.853 99.937 44.402 182.096 52.552a241.289 241.289 0 0 1-50.506 42.975zm63.189-58.429c-86.041-6.875-135.641-28.892-188.071-52.191-59.867-26.603-121.74-54.091-240.152-55.685-1.765-11.703-2.687-23.679-2.687-35.866s.922-24.163 2.687-35.866c118.425-1.599 180.291-29.084 240.152-55.685 52.43-23.299 102.03-45.316 188.071-52.191a240.16 240.16 0 0 1 19.87 31.121c-21.692 7.039-41.172 20.361-55.636 38.245-16.949 20.959-26.284 47.373-26.284 74.377s9.335 53.418 26.284 74.377c14.464 17.884 33.944 31.206 55.636 38.245a240.167 240.167 0 0 1-19.87 31.119zM401.892 256c0-45.664 29.607-84.884 72.774-97.62 13.369 29.831 20.817 62.871 20.817 97.62s-7.448 67.789-20.817 97.62c-43.167-12.736-72.774-51.956-72.774-97.62z"/><circle cx="331.523" cy="306.969" r="8.258"/><circle cx="298.49" cy="273.937" r="8.258"/><circle cx="335.002" cy="65.261" r="8.258"/></svg>