<svg xmlns="http://www.w3.org/2000/svg" viewBox="0 0 512 512"><path d="M256 74.323c-100.177 0-181.677 81.5-181.677 181.677S155.823 437.677 256 437.677 437.677 356.177 437.677 256 356.177 74.323 256 74.323zm163.51 158.375v6.786c0 4.553-3.704 8.258-8.258 8.258h-14.865v-19.269a8.258 8.258 0 0 0-8.258-8.258H264.258v-16.516h24.774a8.258 8.258 0 0 0 8.258-8.258c0-4.553 3.704-8.258 8.258-8.258h11.011a8.258 8.258 0 0 0 8.258-8.258v-41.29h46.242c25.615 24.906 43.197 58.025 48.451 95.063zm-278.569-95.064h7.704v93.591H92.697c5.506-36.443 22.968-69.014 48.244-93.591zm-47.742 146.22a13.61 13.61 0 0 1 8.65-3.08h18.602l36.838 36.837-28.816 43.225c-17.894-21.726-30.345-48.088-35.274-76.982zM256 421.161c-45.195 0-86.201-18.253-116.052-47.766l34.837-52.256a8.256 8.256 0 0 0-1.032-10.419l-44.043-44.043a8.255 8.255 0 0 0-5.839-2.419h-22.022a30.23 30.23 0 0 0-10.686 1.945A166.62 166.62 0 0 1 90.838 256c0-2.769.072-5.522.207-8.258h65.858a8.258 8.258 0 0 0 8.258-8.258v-101.85h2.753c4.561 0 8.258-3.697 8.258-8.258s-3.697-8.258-8.258-8.258h-7.125c26.927-19.063 59.783-30.28 95.211-30.28s68.284 11.217 95.211 30.28h-51.168c-4.561 0-8.258 3.697-8.258 8.258s3.697 8.258 8.258 8.258h8.258v33.032h-2.753c-10.766 0-19.951 6.904-23.359 16.516H256a8.258 8.258 0 0 0-8.258 8.258v24.774h-13.763a8.258 8.258 0 0 0-8.258 8.258 8.258 8.258 0 0 0 8.258 8.258h101.849v16.516h-90.839c-16.697 0-30.28 13.583-30.28 30.28 0 16.696 13.583 30.28 30.28 30.28h4.015l9.861 59.164a8.246 8.246 0 0 0 2.307 4.481l11.011 11.011a8.26 8.26 0 0 0 7.842 2.172l44.043-11.011a8.258 8.258 0 0 0 6.214-7.19l3.862-38.619a8.258 8.258 0 0 0-7.396-9.039 8.257 8.257 0 0 0-9.039 7.396l-3.283 32.838-33.87 8.467-5.833-5.833-10.576-63.454a8.257 8.257 0 0 0-8.146-6.9H244.99c-7.59 0-13.763-6.174-13.763-13.763s6.174-13.763 13.763-13.763h78.961l-2.954 29.54a8.258 8.258 0 0 0 8.227 9.081 8.259 8.259 0 0 0 8.207-7.437l3.118-31.184h3.537a8.258 8.258 0 0 0 8.258-8.258v-24.774h27.527v46.796c0 4.561 3.697 8.258 8.258 8.258s8.258-3.697 8.258-8.258v-19.269h14.865c3.472 0 6.778-.721 9.78-2.016C417.737 350.43 344.979 421.161 256 421.161z"/><path d="M359.945 324.778a8.254 8.254 0 0 0-9.039 7.396l-2.031 20.313a8.259 8.259 0 0 0 16.434 1.643l2.031-20.313a8.257 8.257 0 0 0-7.395-9.039zm-125.966-203.66h-38.538c-4.561 0-8.258 3.697-8.258 8.258s3.697 8.258 8.258 8.258h2.753v8.258a8.258 8.258 0 0 0 8.258 8.258 8.258 8.258 0 0 0 8.258-8.258v-8.258h19.269a8.258 8.258 0 1 0 0-16.516z"/><path d="M437.019 74.981C388.667 26.628 324.38 0 256 0c-54.297 0-105.862 16.675-149.609 48.279-7.155-5.946-16.341-9.528-26.35-9.528-22.768 0-41.29 18.523-41.29 41.29s18.522 41.29 41.29 41.29 41.29-18.523 41.29-41.29c0-6.797-1.66-13.208-4.583-18.869C157.519 31.938 205.495 16.516 256 16.516c132.052 0 239.484 107.432 239.484 239.484S388.052 495.484 256 495.484 16.516 388.052 16.516 256c0-41.685 10.875-82.735 31.451-118.711a8.256 8.256 0 0 0-3.069-11.268 8.256 8.256 0 0 0-11.268 3.069C11.63 167.558 0 211.444 0 256c0 68.38 26.628 132.667 74.981 181.019C123.334 485.37 187.62 512 256 512s132.667-26.628 181.019-74.981C485.37 388.666 512 324.38 512 256s-26.628-132.667-74.981-181.019zM80.042 104.816c-13.661 0-24.774-11.114-24.774-24.774s11.113-24.774 24.774-24.774 24.774 11.114 24.774 24.774-11.113 24.774-24.774 24.774z"/></svg>