<svg xmlns="http://www.w3.org/2000/svg" viewBox="0 0 512 512"><path d="M437.019 74.981C388.666 26.628 324.38 0 256 0S123.334 26.628 74.981 74.981C26.63 123.333 0 187.62 0 256s26.63 132.667 74.981 181.019C123.334 485.372 187.62 512 256 512s132.666-26.628 181.019-74.981C485.37 388.667 512 324.38 512 256s-26.63-132.667-74.981-181.019zM199.575 488.752c-37.947-9.201-72.393-27.454-100.905-52.352 7.307-24.013 29.839-40.985 55.317-40.985 31.874 0 57.806 25.933 57.806 57.806a57.597 57.597 0 0 1-12.218 35.531zM256 495.484c-13.21 0-26.166-1.092-38.8-3.159 7.226-11.661 11.111-25.15 11.111-39.102 0-40.982-33.341-74.323-74.323-74.323-30.032 0-56.873 18.357-68.371 45.212C42.918 380.841 16.516 321.449 16.516 256 16.516 123.948 123.948 16.516 256 16.516S495.484 123.948 495.484 256 388.052 495.484 256 495.484z"/><path d="M74.323 225.72c-16.696 0-30.28 13.583-30.28 30.28s13.584 30.28 30.28 30.28 30.28-13.583 30.28-30.28-13.585-30.28-30.28-30.28zm0 44.043c-7.59 0-13.763-6.174-13.763-13.763s6.174-13.763 13.763-13.763S88.086 248.41 88.086 256s-6.174 13.763-13.763 13.763z"/><circle cx="129.376" cy="256" r="8.258"/><circle cx="151.398" cy="289.032" r="8.258"/><circle cx="375.764" cy="371.128" r="8.258"/><path d="M397.296 129.357c-28.838 0-52.301 23.462-52.301 52.301s23.463 52.301 52.301 52.301 52.301-23.462 52.301-52.301-23.462-52.301-52.301-52.301zm0 88.086c-19.732 0-35.785-16.053-35.785-35.785s16.053-35.785 35.785-35.785 35.785 16.053 35.785 35.785-16.053 35.785-35.785 35.785zM256 44.043c-40.982 0-74.323 33.341-74.323 74.323 0 40.982 33.341 74.323 74.323 74.323 40.982 0 74.323-33.341 74.323-74.323 0-40.982-33.341-74.323-74.323-74.323zm0 132.129c-31.874 0-57.806-25.933-57.806-57.806 0-31.874 25.933-57.806 57.806-57.806s57.806 25.932 57.806 57.806-25.932 57.806-57.806 57.806z"/><path d="M256 77.075c-22.768 0-41.29 18.523-41.29 41.29 0 3.603.472 7.198 1.403 10.683a8.26 8.26 0 0 0 15.958-4.263 24.87 24.87 0 0 1-.844-6.419c0-13.66 11.114-24.774 24.774-24.774s24.774 11.114 24.774 24.774-11.114 24.774-24.774 24.774a24.88 24.88 0 0 1-6.417-.843 8.259 8.259 0 0 0-4.266 15.957 41.421 41.421 0 0 0 10.684 1.404c22.768-.001 41.29-18.524 41.29-41.291-.002-22.768-18.524-41.292-41.292-41.292zm42.692 241.751c-28.838 0-52.301 23.462-52.301 52.301a51.97 51.97 0 0 0 4.143 20.427 8.258 8.258 0 1 0 15.202-6.456 35.55 35.55 0 0 1-2.829-13.972c0-19.732 16.053-35.785 35.785-35.785s35.785 16.053 35.785 35.785-16.053 35.785-35.785 35.785c-4.85 0-9.552-.952-13.972-2.83a8.258 8.258 0 1 0-6.456 15.202 51.978 51.978 0 0 0 20.428 4.143c28.838 0 52.301-23.462 52.301-52.301.002-28.837-23.462-52.299-52.301-52.299z"/></svg>