<svg xmlns="http://www.w3.org/2000/svg" viewBox="0 0 512 512"><circle cx="256" cy="440.43" r="8.258"/><circle cx="289.032" cy="407.398" r="8.258"/><circle cx="256" cy="71.57" r="8.258"/><circle cx="407.398" cy="256" r="8.258"/><circle cx="137.634" cy="256" r="8.258"/><circle cx="104.602" cy="222.968" r="8.258"/><path d="M503.249 273.683l-13.843-1.455c.369-5.363.573-10.772.573-16.228s-.204-10.864-.573-16.228l13.843-1.455a8.26 8.26 0 0 0 7.35-9.076 8.252 8.252 0 0 0-9.076-7.35l-13.833 1.453a232.181 232.181 0 0 0-6.73-31.756l13.208-4.292a8.257 8.257 0 1 0-5.103-15.707l-13.218 4.295a232.753 232.753 0 0 0-13.254-29.625l12.086-6.979a8.257 8.257 0 0 0 3.022-11.281 8.257 8.257 0 0 0-11.281-3.022l-12.112 6.993a235.218 235.218 0 0 0-19.099-26.22l10.424-9.386a8.259 8.259 0 0 0-11.052-12.274l-10.428 9.39a235.888 235.888 0 0 0-24.087-21.722l8.234-11.332a8.258 8.258 0 0 0-13.362-9.708l-8.218 11.311a234.15 234.15 0 0 0-28.081-16.258l5.671-12.736a8.259 8.259 0 0 0-15.088-6.718l-5.662 12.716a231.762 231.762 0 0 0-30.863-10.052l2.889-13.594a8.258 8.258 0 1 0-16.155-3.434l-2.889 13.592a233.827 233.827 0 0 0-32.285-3.363V8.258A8.256 8.256 0 0 0 256 0a8.257 8.257 0 0 0-8.258 8.258v13.925a233.86 233.86 0 0 0-32.285 3.363l-2.889-13.592c-.947-4.462-5.336-7.308-9.795-6.361a8.257 8.257 0 0 0-6.36 9.795l2.889 13.594a232.052 232.052 0 0 0-30.863 10.052l-5.662-12.716a8.26 8.26 0 0 0-15.088 6.718l5.671 12.736a234.206 234.206 0 0 0-28.081 16.258l-8.218-11.311a8.258 8.258 0 0 0-11.535-1.827 8.257 8.257 0 0 0-1.827 11.535l8.234 11.332a235.888 235.888 0 0 0-24.087 21.722l-10.428-9.39a8.259 8.259 0 0 0-11.052 12.274l10.424 9.386a235.126 235.126 0 0 0-19.099 26.22l-12.112-6.993a8.258 8.258 0 1 0-8.259 14.303l12.086 6.979a233.11 233.11 0 0 0-13.254 29.626l-13.218-4.295a8.258 8.258 0 0 0-5.103 15.707l13.209 4.292a232.181 232.181 0 0 0-6.73 31.756l-13.833-1.453a8.255 8.255 0 0 0-9.076 7.35 8.259 8.259 0 0 0 7.35 9.076l13.843 1.455c-.369 5.364-.573 10.773-.573 16.229s.204 10.864.573 16.228l-13.843 1.456a8.26 8.26 0 1 0 1.726 16.426l13.833-1.453a232.181 232.181 0 0 0 6.73 31.756l-13.208 4.292a8.257 8.257 0 1 0 5.103 15.707l13.218-4.295a232.753 232.753 0 0 0 13.254 29.625l-12.087 6.979a8.257 8.257 0 0 0 4.137 15.411 8.214 8.214 0 0 0 4.121-1.108l12.112-6.993a235.218 235.218 0 0 0 19.099 26.22l-10.424 9.386a8.259 8.259 0 0 0-.611 11.663 8.233 8.233 0 0 0 6.138 2.733c1.969 0 3.945-.7 5.524-2.121l10.428-9.39a235.888 235.888 0 0 0 24.087 21.722l-8.234 11.332a8.258 8.258 0 0 0 1.827 11.535 8.218 8.218 0 0 0 4.847 1.578 8.244 8.244 0 0 0 6.687-3.405l8.218-11.311a234.15 234.15 0 0 0 28.081 16.258l-5.671 12.736a8.258 8.258 0 0 0 15.088 6.718l5.662-12.716a231.762 231.762 0 0 0 30.863 10.052l-2.889 13.594a8.258 8.258 0 1 0 16.154 3.434l2.889-13.592a233.827 233.827 0 0 0 32.285 3.363v13.924a8.257 8.257 0 0 0 8.258 8.258 8.257 8.257 0 0 0 8.258-8.258v-13.925a233.86 233.86 0 0 0 32.285-3.363l2.889 13.592a8.26 8.26 0 0 0 9.794 6.361 8.257 8.257 0 0 0 6.36-9.795l-2.889-13.594a232.052 232.052 0 0 0 30.863-10.052l5.662 12.716a8.259 8.259 0 0 0 10.903 4.185 8.26 8.26 0 0 0 4.185-10.903l-5.671-12.736a234.206 234.206 0 0 0 28.081-16.258l8.218 11.311a8.246 8.246 0 0 0 6.687 3.405 8.223 8.223 0 0 0 4.847-1.578 8.257 8.257 0 0 0 1.827-11.535l-8.234-11.332a235.782 235.782 0 0 0 24.087-21.722l10.428 9.39a8.23 8.23 0 0 0 5.524 2.121 8.259 8.259 0 0 0 5.528-14.396l-10.424-9.385a235.126 235.126 0 0 0 19.099-26.22l12.112 6.993a8.254 8.254 0 0 0 11.28-3.022c2.28-3.95.927-9-3.022-11.281l-12.086-6.979a233.11 233.11 0 0 0 13.254-29.626l13.218 4.295a8.266 8.266 0 0 0 2.553.406 8.258 8.258 0 0 0 2.55-16.113l-13.208-4.292a232.181 232.181 0 0 0 6.73-31.756l13.833 1.453a8.26 8.26 0 0 0 9.076-7.35 8.253 8.253 0 0 0-7.344-9.079zM256 473.462c-119.909 0-217.462-97.553-217.462-217.462S136.091 38.538 256 38.538 473.462 136.091 473.462 256 375.909 473.462 256 473.462z"/></svg>