<svg xmlns="http://www.w3.org/2000/svg" viewBox="0 0 512 512"><path d="M326.555 270.261l-3.096-1.006a68.843 68.843 0 0 0 1.293-13.254c0-4.534-.452-8.963-1.293-13.254l3.096-1.006a8.255 8.255 0 0 0 5.299-10.404c-1.409-4.337-6.068-6.708-10.404-5.301l-3.108 1.011a69.148 69.148 0 0 0-15.591-21.417l1.938-2.666a8.257 8.257 0 0 0-13.358-9.706l-1.925 2.651a68.278 68.278 0 0 0-25.198-8.198v-3.265a8.256 8.256 0 0 0-16.512 0v3.265a68.279 68.279 0 0 0-25.197 8.198l-1.925-2.65a8.255 8.255 0 0 0-11.532-1.826 8.256 8.256 0 0 0-1.827 11.532l1.938 2.666a69.136 69.136 0 0 0-15.59 21.416l-3.109-1.011a8.255 8.255 0 0 0-10.404 5.301 8.255 8.255 0 0 0 5.301 10.403l3.096 1.006A68.843 68.843 0 0 0 187.154 256c0 4.534.452 8.963 1.293 13.254l-3.096 1.006a8.257 8.257 0 0 0 5.102 15.704l3.109-1.011a69.164 69.164 0 0 0 15.592 21.418l-1.938 2.666a8.255 8.255 0 0 0 1.827 11.532 8.218 8.218 0 0 0 4.846 1.578c2.553 0 5.07-1.18 6.687-3.404l1.925-2.65a68.279 68.279 0 0 0 25.197 8.198v3.265a8.256 8.256 0 0 0 16.512 0v-3.265a68.29 68.29 0 0 0 25.198-8.198l1.925 2.651a8.244 8.244 0 0 0 6.685 3.404 8.218 8.218 0 0 0 4.846-1.578 8.254 8.254 0 0 0 1.826-11.532l-1.938-2.666a69.132 69.132 0 0 0 15.591-21.417l3.108 1.011a8.276 8.276 0 0 0 2.554.406 8.258 8.258 0 0 0 2.55-16.111zm-70.604 38.029c-28.832 0-52.29-23.457-52.29-52.29s23.458-52.29 52.29-52.29 52.29 23.457 52.29 52.29-23.457 52.29-52.29 52.29z"/><circle cx="404.89" cy="107.057" r="8.256"/><circle cx="437.915" cy="74.032" r="8.256"/><path d="M497.741 334.365c-8.884-25.641-21.56-52.037-37.472-78.365 15.912-26.328 28.588-52.724 37.472-78.365 22.746-65.651 18.067-119.011-13.173-150.251-29.162-29.162-78.359-35.19-138.532-16.977-28.999 8.778-59.505 22.845-90.038 41.303-26.343-15.925-52.755-28.61-78.411-37.499C111.936-8.535 58.576-3.856 27.336 27.385-1.475 56.196-7.713 104.696 9.773 163.949c8.725 29.565 23.041 60.801 41.953 92.077-21.088 34.914-36.449 69.744-44.68 101.927-13.97 54.627-6.765 99.611 20.289 126.664 18.2 18.2 43.904 27.385 75.175 27.383 22.407 0 47.672-4.716 75.076-14.211 25.641-8.884 52.037-21.56 78.365-37.472 55.791 33.794 109.422 51.59 153.211 51.59 30.956 0 57.005-8.892 75.406-27.292 31.24-31.239 35.918-84.599 13.173-150.25zM350.82 26.212c54.067-16.365 97.422-11.803 122.071 12.848 26.526 26.525 29.81 73.819 9.247 133.169-7.714 22.262-18.436 45.148-31.753 68.075-22.051-33.719-49.248-67.057-80.465-98.273-31.203-31.203-64.527-58.391-98.233-80.439 26.921-15.648 53.663-27.67 79.133-35.38zM206.28 405.4a8.257 8.257 0 0 0-10.297 12.909c14.767 11.78 29.572 22.49 44.278 32.125-22.929 13.317-45.817 24.04-68.079 31.754-59.352 20.563-106.644 17.279-133.169-9.246-37.547-37.547-26.996-116.184 22.554-201.279 14.231 21.77 30.61 43.428 48.833 64.421a46.542 46.542 0 0 0-9.364 28.047c0 25.798 20.988 46.786 46.786 46.786s46.786-20.988 46.786-46.786c0-25.798-20.988-46.786-46.786-46.786a46.488 46.488 0 0 0-25.326 7.479c-19.454-22.452-36.73-45.635-51.402-68.839 11.318-17.878 24.294-35.943 38.873-53.883a8.258 8.258 0 0 0-12.815-10.414c-12.977 15.97-24.871 32.271-35.558 48.639-16.066-27.623-28.306-55.044-35.982-81.053C9.915 106.091 14.674 63.398 39.011 39.06c26.525-26.525 73.818-29.81 133.169-9.246 22.277 7.718 45.177 18.449 68.12 31.778-23.245 15.197-46.36 32.848-68.685 52.575a41.035 41.035 0 0 0-23.795-7.579c-22.763 0-41.282 18.519-41.282 41.282s18.518 41.282 41.282 41.282 41.282-18.519 41.282-41.282a41.02 41.02 0 0 0-6.164-21.669c23.767-20.968 48.401-39.493 73.063-55.086 34.984 22.121 69.755 50.105 102.243 82.593C390.749 186.211 418.743 221 440.87 256c-22.127 35-50.121 69.789-82.625 102.293-32.484 32.484-67.251 60.464-102.23 82.585-16.514-10.426-33.177-22.269-49.735-35.478zm-88.732-41.269c0-16.693 13.581-30.273 30.273-30.273 16.693 0 30.273 13.58 30.273 30.273 0 16.693-13.58 30.273-30.273 30.273s-30.273-13.58-30.273-30.273zM172.59 147.87c0 13.657-11.111 24.769-24.769 24.769s-24.769-11.112-24.769-24.769c0-13.657 11.111-24.769 24.769-24.769s24.769 11.112 24.769 24.769zm300.301 325.07c-37.3 37.303-116.151 26.799-201.179-22.549 33.697-22.044 67.013-49.227 98.21-80.423 31.215-31.217 58.413-64.555 80.465-98.273 13.317 22.927 24.039 45.814 31.753 68.075 20.561 59.351 17.276 106.645-9.249 133.17z"/><circle cx="73.987" cy="437.971" r="8.256"/><circle cx="404.89" cy="404.945" r="8.256"/><circle cx="437.915" cy="437.971" r="8.256"/><circle cx="73.987" cy="74.032" r="8.256"/></svg>