<svg xmlns="http://www.w3.org/2000/svg" viewBox="0 0 511.999 511.999"><path d="M460.928 319.174c-4.501-.707-8.73 2.374-9.437 6.879-9.736 62.088-31.993 120.362-66.152 173.204a8.257 8.257 0 0 0 6.928 12.741 8.248 8.248 0 0 0 6.942-3.776c35.423-54.795 58.503-115.225 68.599-179.612a8.258 8.258 0 0 0-6.88-9.436zm-122.66-.079c-4.455-.96-8.853 1.872-9.814 6.33-14.346 66.468-48.6 126.023-99.061 172.226a8.257 8.257 0 1 0 11.154 12.18c53-48.527 88.981-111.089 104.051-180.922a8.257 8.257 0 0 0-6.33-9.814zm10.929-109.606C338.442 130.032 300.04 56.643 240.545 2.168a8.259 8.259 0 0 0-11.154 12.181c56.37 51.614 92.85 121.055 103.29 196.267-20.308 5.106-35.391 23.513-35.391 45.384 0 25.804 20.992 46.796 46.795 46.796s46.796-20.992 46.796-46.796c.001-24.076-18.276-43.956-41.684-46.511zm-5.11 76.791c-16.697 0-30.279-13.583-30.279-30.279s13.583-30.279 30.279-30.279c16.697 0 30.279 13.583 30.279 30.279s-13.583 30.279-30.279 30.279zm127.059-76.686a469.898 469.898 0 0 0-2.31-19.139c7.596-4.237 12.747-12.351 12.747-21.648 0-12.615-9.48-23.051-21.689-24.575-12.302-49.918-32.686-97.144-60.687-140.457a8.258 8.258 0 0 0-13.87 8.966c26.922 41.646 46.544 87.043 58.418 135.021-7.03 4.377-11.722 12.171-11.722 21.044 0 12.206 8.877 22.373 20.512 24.4a454.597 454.597 0 0 1 2.09 17.215c-20.728 4.805-36.229 23.409-36.229 45.578 0 25.804 20.992 46.795 46.796 46.795s46.795-20.992 46.795-46.795c.003-23.789-17.845-43.474-40.851-46.405zm-22.595-40.787c0-4.553 3.704-8.258 8.258-8.258s8.258 3.705 8.258 8.258-3.704 8.258-8.258 8.258-8.258-3.704-8.258-8.258zm16.654 117.473c-16.697 0-30.279-13.583-30.279-30.279s13.583-30.279 30.279-30.279c16.697 0 30.279 13.583 30.279 30.279S481.9 286.28 465.205 286.28zm-237.114 21.761a8.26 8.26 0 0 0-10.153 5.772C192.081 407.811 105.857 473.462 8.26 473.462a8.258 8.258 0 0 0-8.258 8.258 8.258 8.258 0 0 0 8.258 8.258c52.277 0 101.715-16.861 142.973-48.758 39.96-30.894 69.305-74.585 82.631-123.025a8.26 8.26 0 0 0-5.773-10.154zm-65.682-43.782a8.258 8.258 0 0 0 8.258-8.258 8.258 8.258 0 0 0-8.258-8.258h-2.983a150.707 150.707 0 0 0-4.836-30.605l2.825-.918a8.258 8.258 0 0 0-5.104-15.707l-2.834.922a151.065 151.065 0 0 0-14.099-27.582l2.444-1.776a8.258 8.258 0 0 0 1.827-11.535 8.258 8.258 0 0 0-11.535-1.827l-2.469 1.794a152.75 152.75 0 0 0-21.894-21.892l1.795-2.471a8.258 8.258 0 0 0-1.828-11.535 8.258 8.258 0 0 0-11.535 1.827l-1.78 2.45a151.123 151.123 0 0 0-27.576-14.11l.919-2.83a8.258 8.258 0 0 0-15.707-5.102l-.918 2.826a150.774 150.774 0 0 0-30.604-4.845v-2.975a8.258 8.258 0 0 0-8.258-8.258 8.258 8.258 0 0 0-8.258 8.258v11.011a8.258 8.258 0 0 0 8.258 8.258c74.374 0 134.881 60.507 134.881 134.881S82.633 390.883 8.259 390.883a8.258 8.258 0 0 0-8.258 8.258v11.011a8.26 8.26 0 0 0 16.517-.002v-2.975a150.554 150.554 0 0 0 30.604-4.845l.918 2.826a8.262 8.262 0 0 0 7.852 5.709 8.257 8.257 0 0 0 7.855-10.811l-.919-2.83a150.995 150.995 0 0 0 27.576-14.11l1.78 2.45a8.248 8.248 0 0 0 6.688 3.404 8.259 8.259 0 0 0 6.675-13.113l-1.795-2.471a152.744 152.744 0 0 0 21.894-21.891l2.469 1.794a8.223 8.223 0 0 0 4.847 1.578 8.258 8.258 0 0 0 4.861-14.939l-2.444-1.776a151.035 151.035 0 0 0 14.099-27.582l2.834.922a8.27 8.27 0 0 0 2.553.406 8.26 8.26 0 0 0 7.852-5.708 8.256 8.256 0 0 0-5.302-10.405l-2.825-.918a150.718 150.718 0 0 0 4.836-30.605h2.983z"/><path d="M239.56 220.654C222.342 106.933 124.12 22.023 8.26 22.023a8.258 8.258 0 0 0-8.258 8.258 8.258 8.258 0 0 0 8.258 8.258c107.274 0 198.275 78.314 214.783 183.392-14.398 4.633-24.848 18.151-24.848 34.069 0 19.732 16.054 35.785 35.785 35.785 19.731 0 35.785-16.053 35.785-35.785-.001-17.834-13.115-32.659-30.205-35.346zm-5.58 54.615c-10.624 0-19.269-8.644-19.269-19.269 0-10.624 8.645-19.269 19.269-19.269 10.624 0 19.269 8.643 19.269 19.269-.001 10.624-8.645 19.269-19.269 19.269z"/><circle cx="356.594" cy="450.844" r="8.258"/><circle cx="374.475" cy="407.694" r="8.258"/><circle cx="267.66" cy="363.441" r="8.258"/><circle cx="374.475" cy="104.305" r="8.258"/><circle cx="206.793" cy="57.465" r="8.258"/></svg>