<svg xmlns="http://www.w3.org/2000/svg" viewBox="0 0 512 512"><path d="M311.054 264.258a8.258 8.258 0 0 0 8.258-8.258 8.258 8.258 0 0 0-8.258-8.258h-3.411a51.857 51.857 0 0 0-2.798-10.407l2.962-1.71a8.257 8.257 0 0 0 3.022-11.281 8.256 8.256 0 0 0-11.281-3.022l-2.977 1.719a52.716 52.716 0 0 0-7.612-7.612l1.719-2.978a8.26 8.26 0 0 0-14.303-8.259l-1.71 2.962a51.857 51.857 0 0 0-10.407-2.798v-3.41c0-4.561-3.697-8.258-8.258-8.258s-8.258 3.697-8.258 8.258v3.411a51.857 51.857 0 0 0-10.407 2.798l-1.71-2.962a8.256 8.256 0 0 0-11.281-3.022 8.256 8.256 0 0 0-3.022 11.28l1.719 2.978a52.716 52.716 0 0 0-7.612 7.612l-2.977-1.719a8.26 8.26 0 0 0-8.259 14.303l2.962 1.71a51.839 51.839 0 0 0-2.798 10.407h-3.411a8.258 8.258 0 0 0-8.258 8.258 8.258 8.258 0 0 0 8.258 8.258h3.411a51.857 51.857 0 0 0 2.798 10.407l-2.962 1.71a8.257 8.257 0 0 0-3.022 11.281 8.254 8.254 0 0 0 11.28 3.022l2.977-1.719a52.716 52.716 0 0 0 7.612 7.612l-1.719 2.978a8.26 8.26 0 0 0 7.143 12.389 8.254 8.254 0 0 0 7.159-4.13l1.71-2.962a51.857 51.857 0 0 0 10.407 2.798v3.411a8.258 8.258 0 0 0 8.258 8.258 8.258 8.258 0 0 0 8.258-8.258v-3.411a51.857 51.857 0 0 0 10.407-2.798l1.71 2.962a8.254 8.254 0 0 0 11.28 3.022 8.257 8.257 0 0 0 3.022-11.281l-1.719-2.978a53.027 53.027 0 0 0 7.612-7.613l2.977 1.719a8.254 8.254 0 0 0 11.28-3.022c2.28-3.95.927-9-3.022-11.281l-2.962-1.71a51.839 51.839 0 0 0 2.798-10.407h3.415zM256 291.785c-19.731 0-35.785-16.053-35.785-35.785s16.054-35.785 35.785-35.785 35.785 16.053 35.785 35.785-16.054 35.785-35.785 35.785z"/><path d="M437.019 74.981C388.667 26.628 324.38 0 256 0c-54.291 0-105.85 16.671-149.593 48.267-7.396-6.159-16.622-9.517-26.365-9.517-11.029 0-21.398 4.295-29.197 12.094-16.099 16.099-16.099 42.294 0 58.393 7.799 7.799 18.168 12.094 29.197 12.094s21.398-4.295 29.197-12.094c12.988-12.988 15.491-32.546 7.521-48.073 40.767-29.23 88.739-44.649 139.24-44.649 132.052 0 239.484 107.432 239.484 239.484S388.052 495.484 256 495.484 16.516 388.052 16.516 256c0-41.681 10.873-82.727 31.447-118.701a8.258 8.258 0 0 0-3.07-11.268c-3.958-2.263-9.005-.891-11.268 3.07C11.627 167.566 0 211.447 0 256c0 68.38 26.628 132.667 74.981 181.019C123.334 485.37 187.62 512 256 512s132.667-26.628 181.019-74.981C485.37 388.666 512 324.38 512 256s-26.628-132.667-74.981-181.019zM97.56 97.56c-4.68 4.68-10.901 7.256-17.518 7.256s-12.839-2.576-17.518-7.256c-9.659-9.66-9.659-25.376 0-35.036 4.68-4.68 10.901-7.256 17.518-7.256s12.839 2.576 17.518 7.256c9.658 9.659 9.658 25.376 0 35.036z"/><path d="M256 66.065c-45.717 0-89.891 16.477-124.386 46.394-32.407 28.106-54.326 66.285-62.233 108.106-17.4 2.416-30.843 17.382-30.843 35.436 0 19.732 16.054 35.785 35.785 35.785s35.785-16.053 35.785-35.785c0-15.685-10.148-29.034-24.218-33.856C101.792 142.053 173.577 82.581 256 82.581c95.624 0 173.419 77.795 173.419 173.419S351.624 429.419 256 429.419c-73.764 0-139.6-46.787-163.826-116.423a8.259 8.259 0 0 0-15.599 5.427C103.108 394.691 175.213 445.935 256 445.935c104.731 0 189.935-85.204 189.935-189.935S360.731 66.065 256 66.065zM93.591 256c0 10.624-8.645 19.269-19.269 19.269S55.054 266.624 55.054 256s8.645-19.269 19.269-19.269S93.591 245.376 93.591 256z"/><circle cx="256" cy="41.29" r="8.258"/><circle cx="470.71" cy="256" r="8.258"/><circle cx="407.827" cy="407.827" r="8.258"/><circle cx="256" cy="470.71" r="8.258"/><circle cx="454.535" cy="57.465" r="8.258"/><circle cx="454.535" cy="454.535" r="8.258"/><circle cx="57.465" cy="454.535" r="8.258"/><circle cx="404.645" cy="256" r="8.258"/><circle cx="150.891" cy="361.109" r="8.258"/><circle cx="150.891" cy="150.891" r="8.258"/><circle cx="256" cy="107.355" r="8.258"/><circle cx="407.827" cy="104.173" r="8.258"/><path d="M256 132.129c-68.303 0-123.871 55.568-123.871 123.871 0 28.341 9.317 55.011 26.945 77.128 15.719 19.721 37.295 34.269 61.276 41.487 1.532 18.331 16.93 32.782 35.65 32.782 19.731 0 35.785-16.053 35.785-35.785S275.731 335.828 256 335.828c-14.958 0-27.794 9.228-33.134 22.288-44.079-14.209-74.221-55.103-74.221-102.116 0-59.196 48.159-107.355 107.355-107.355S363.355 196.804 363.355 256c0 37.908-20.347 73.401-53.098 92.629a8.259 8.259 0 0 0 8.362 14.244C356.4 340.691 379.871 299.74 379.871 256c0-68.303-55.568-123.871-123.871-123.871zm0 220.215c10.624 0 19.269 8.645 19.269 19.269s-8.645 19.269-19.269 19.269-19.269-8.645-19.269-19.269 8.645-19.269 19.269-19.269z"/></svg>