<svg xmlns="http://www.w3.org/2000/svg" viewBox="0 0 511 511"><path d="M463 207.5C463 93.084 369.916 0 255.5 0S48 93.084 48 207.5c0 12.067 1.086 24.619 3.417 39.499 1.227 7.827 4.698 14.818 9.722 20.332 11.212 64.698 41.304 127.004 84.934 175.705C183.062 484.323 226.014 511 255.5 511s72.439-26.678 109.427-67.965c43.629-48.701 73.72-111.005 84.933-175.701 5.026-5.515 8.497-12.506 9.724-20.334 2.331-14.872 3.416-27.423 3.416-39.5zM353.754 433.026C314.783 476.528 276.325 496 255.5 496s-59.282-19.472-98.254-62.973c-38.716-43.216-66.301-97.625-78.682-154.681a39.364 39.364 0 0 0 8.298 1.579c3.195.258 6.331.571 9.413.93A80.507 80.507 0 0 0 96 287.5c0 43.836 35.664 79.5 79.5 79.5 20.636 0 40.43-8.083 55.193-22.32 1.853 2.077 2.786 3.292 2.816 3.331a7.488 7.488 0 0 0 5.998 2.989 7.5 7.5 0 0 0 5.985-12.012c-.512-.68-12.832-16.85-38.48-34.059-23.452-15.736-63.124-35.441-118.94-39.956-5.408-.438-10.381-2.747-14.24-6.279a7.456 7.456 0 0 0-1.016-1.002c-3.405-3.499-5.793-8.002-6.579-13.016C64.028 230.584 63 218.771 63 207.5 63 101.355 149.355 15 255.5 15S448 101.355 448 207.5c0 11.28-1.028 23.093-3.235 37.177-.785 5.008-3.169 9.507-6.567 13.004a7.53 7.53 0 0 0-1.037 1.022c-3.857 3.527-8.826 5.833-14.23 6.271-55.817 4.515-95.489 24.22-118.942 39.956-25.648 17.209-37.969 33.379-38.48 34.059a7.493 7.493 0 0 0 1.473 10.487c3.299 2.495 8 1.842 10.501-1.453.032-.042.968-1.261 2.825-3.343C295.07 358.917 314.865 367 335.5 367c43.836 0 79.5-35.664 79.5-79.5 0-2.214-.092-4.44-.275-6.645 3.082-.359 6.219-.672 9.415-.93a39.335 39.335 0 0 0 8.295-1.578c-12.381 57.055-39.965 111.463-78.681 154.679zM111.17 283.035c39.603 6.972 68.569 21.754 86.896 33.958 9.127 6.078 16.448 12.037 22.018 17.085C208.126 345.512 192.151 352 175.5 352c-35.565 0-64.5-28.935-64.5-64.5 0-1.489.069-2.98.17-4.465zM400 287.5c0 35.565-28.935 64.5-64.5 64.5-16.65 0-32.626-6.489-44.583-17.923 5.571-5.048 12.891-11.007 22.018-17.085 18.326-12.203 47.293-26.985 86.895-33.957.101 1.486.17 2.976.17 4.465z"/><path d="M304.582 54.642a159.994 159.994 0 0 1 19.372 7.645 7.502 7.502 0 0 0 6.406-13.563 174.964 174.964 0 0 0-21.195-8.364 7.499 7.499 0 1 0-4.583 14.282zm42.626 21.121c27.392 19.107 48.579 46.889 59.658 78.228a7.501 7.501 0 0 0 7.071 5.002 7.501 7.501 0 0 0 7.072-10.002c-12.291-34.768-34.843-64.344-65.219-85.532a7.5 7.5 0 0 0-8.582 12.304zM287.5 432h-64a7.5 7.5 0 0 0 0 15h64a7.5 7.5 0 0 0 0-15z"/></svg>