<svg xmlns="http://www.w3.org/2000/svg" viewBox="0 0 511 511"><path d="M343.5 456h-22.851l13.081-65.407C356.988 387.532 375 367.58 375 343.5v-104c0-30.603-24.897-55.5-55.5-55.5H311v-13.25c0-.123-.012-.242-.018-.363a125.476 125.476 0 0 0 1.883-3.065C327.139 143.22 335 112.031 335 79.5l-.001-.039-.002-.08C334.932 35.599 299.297 0 255.5 0s-79.432 35.599-79.497 79.381l-.002.08-.001.039c0 35.708 9.204 68.028 24.003 91.197 0 .018-.003.035-.003.053V184h-8.5c-30.603 0-55.5 24.897-55.5 55.5v104c0 24.08 18.012 44.032 41.27 47.093L190.351 456H167.5c-21.78 0-39.5 17.72-39.5 39.5v8a7.5 7.5 0 0 0 7.5 7.5h96c8.547 0 15.5-6.953 15.5-15.5v-136c0-4.687 3.813-8.5 8.5-8.5s8.5 3.813 8.5 8.5v136c0 8.547 6.953 15.5 15.5 15.5h96a7.5 7.5 0 0 0 7.5-7.5v-8c0-21.78-17.72-39.5-39.5-39.5zM191 287h17v17h-17v-17zm32 0h65v17h-65v-17zm80 0h17v17h-17v-17zm32 88.117V351h24.117c-2.825 11.906-12.211 21.292-24.117 24.117zM215 189.172C226.869 200.489 240.718 207 255.5 207c11.295 0 22.206-3.761 32.43-11.18a76.485 76.485 0 0 0 8.07-6.784V199.5c0 9.098-7.402 16.5-16.5 16.5h-48c-9.098 0-16.5-7.402-16.5-16.5v-10.328zm87.14-57.178c-5.127.379-10.217-1.699-13.983-5.542 4.193-2.933 9.042-4.788 14.264-6.773 4.653-1.769 9.701-3.692 14.417-6.639a170.88 170.88 0 0 1-2.376 10.634c-2.524 4.908-6.975 7.931-12.322 8.32zM255.5 15c35.458 0 64.318 28.762 64.492 64.18-1.851 18.466-10.241 21.665-22.902 26.478-10.993 4.179-24.673 9.38-32.439 26.786a7.5 7.5 0 0 0 13.698 6.112c.076-.17.16-.322.238-.489 6.145 5.714 14.121 8.97 22.37 8.97.755 0 1.514-.027 2.272-.083a30.491 30.491 0 0 0 3.445-.462c-2.031 4.643-4.271 9.059-6.715 13.186C287.614 180.521 271.825 192 255.5 192c-16.374 0-32.166-11.394-44.465-32.083-2.491-4.191-4.767-8.692-6.828-13.431 1.14.216 2.298.382 3.479.468.759.056 1.517.083 2.272.083 8.275 0 16.275-3.279 22.428-9.028.087.186.18.356.265.546a7.502 7.502 0 0 0 6.854 4.446c1.021 0 2.059-.21 3.051-.653a7.5 7.5 0 0 0 3.793-9.905c-7.766-17.406-21.446-22.607-32.439-26.786-12.661-4.813-21.052-8.012-22.902-26.478C191.182 43.762 220.042 15 255.5 15zm-59.007 108.751a171.194 171.194 0 0 1-2.378-10.742c4.729 2.964 9.796 4.895 14.465 6.67 5.201 1.977 10.032 3.824 14.214 6.738-3.769 3.864-8.875 5.951-14.02 5.577-5.319-.387-9.753-3.38-12.281-8.243zM191.5 199h8.5v.5c0 17.369 14.131 31.5 31.5 31.5h48c17.369 0 31.5-14.131 31.5-31.5v-.5h8.5c22.332 0 40.5 18.168 40.5 40.5V336h-25v-96.5a7.5 7.5 0 0 0-15 0V272H191v-32.5a7.5 7.5 0 0 0-15 0V336h-25v-96.5c0-22.332 18.168-40.5 40.5-40.5zm-39.617 152H176v24.117c-11.906-2.825-21.292-12.211-24.117-24.117zM232 495.5a.5.5 0 0 1-.5.5H143v-.5c0-13.509 10.991-24.5 24.5-24.5h31.959l.033.001.03-.001H232v24.5zM255.5 336c-12.958 0-23.5 10.542-23.5 23.5V456h-26.351L191 382.757V319h17v8.5a7.5 7.5 0 0 0 15 0V319h65v8.5a7.5 7.5 0 0 0 15 0V319h17v63.757L305.351 456H279v-96.5c0-12.958-10.542-23.5-23.5-23.5zM368 496h-88.5a.5.5 0 0 1-.5-.5V471h32.478l.03.001.033-.001H343.5c13.509 0 24.5 10.991 24.5 24.5v.5z"/><path d="M247.5 255h16a7.5 7.5 0 0 0 0-15h-16a7.5 7.5 0 0 0 0 15zm-7.5-87.5a7.5 7.5 0 0 0 7.5 7.5h16a7.5 7.5 0 0 0 0-15h-16a7.5 7.5 0 0 0-7.5 7.5z"/></svg>