<svg xmlns="http://www.w3.org/2000/svg" viewBox="0 0 510.95 510.95"><path d="M278.27 202.405c1.646-6.703.317-13.935-3.842-20.916a7.5 7.5 0 0 0-12.886 7.678c2.13 3.574 2.857 6.824 2.161 9.659-1.307 5.32-7.858 9.686-17.975 11.978-12.067 2.735-27.246 2.145-42.738-1.661-15.493-3.805-29.217-10.314-38.645-18.328-7.904-6.718-11.688-13.622-10.381-18.942s7.858-9.686 17.975-11.978c12.066-2.734 27.244-2.145 42.738 1.662 9.985 2.452 19.492 6.138 27.494 10.659a7.5 7.5 0 0 0 7.379-13.059c-9.177-5.186-19.999-9.393-31.295-12.167-17.71-4.349-35.335-4.962-49.63-1.724-16.096 3.647-26.476 11.825-29.228 23.029-2.751 11.204 2.658 23.26 15.233 33.949 11.167 9.492 27.071 17.116 44.781 21.466 10.217 2.509 20.404 3.774 29.941 3.774 6.995 0 13.642-.681 19.69-2.051 16.096-3.646 26.476-11.824 29.228-23.028z"/><path d="M473.851 239.847c-10.984-8.342-25.463-23.592-42.229-41.25-6.698-7.054-13.625-14.349-21.091-22.026a7.502 7.502 0 0 0-8.277-1.687c-10.909 4.573-28.712-.038-43.294-11.219-17.756-13.615-26.86-33.611-20.294-44.574a7.499 7.499 0 0 0-1.827-9.771c-14.027-10.921-27.26-20.177-40.454-28.296-36.022-22.166-70.578-32.725-105.638-32.24-30.458.409-61.746 8.982-98.467 26.98-38.684 18.959-66.924 53.768-81.666 100.661-12.835 40.829-14.088 88.741-3.438 131.451 9.715 38.959 36.514 69.208 81.928 92.477 39.215 20.093 87.611 32.848 134.414 45.184a7389.827 7389.827 0 0 1 14.975 3.958c31.467 8.368 64.912 12.688 96.345 12.688 15.262 0 30.053-1.019 43.907-3.088 50.637-7.562 87.331-28.293 106.115-59.955 8.345-14.066 22.77-42.37 25.611-73.896 3.177-35.26-9.486-64.79-36.62-85.397zm-1.891 151.64c-23.257 39.199-77.869 55.752-137.496 55.75-23.793-.001-48.386-2.649-72.101-7.535-8.828-2.827-11.944-8.107-16.629-16.068-5.406-9.188-12.133-20.624-29.893-28.796-12.023-5.533-26.986-12.419-28.991-24.058a7.498 7.498 0 0 0-8.664-6.118 7.5 7.5 0 0 0-6.118 8.664c3.344 19.418 23.086 28.504 37.502 35.138 13.486 6.207 18.222 14.255 23.235 22.776.285.485.573.974.865 1.465-2.112-.557-4.214-1.116-6.33-1.673C135.782 406.9 41.106 381.947 21.731 304.247c-10.001-40.106-8.837-85.056 3.193-123.324 3.526-11.216 8.608-23.878 15.911-36.464 12.43-16.408 30.047-20.127 48.698-24.063 11.357-2.396 23.101-4.874 34.203-10.264a7.5 7.5 0 1 0-6.55-13.494c-9.447 4.587-19.794 6.77-30.749 9.081-6.005 1.267-12.069 2.55-18.041 4.249a130.203 130.203 0 0 1 30.487-20.736c34.589-16.953 65.229-25.46 94.68-25.46 31.892 0 62.389 9.982 94.962 30.026 11.275 6.938 22.604 14.756 34.495 23.811-5.484 17.612 5.089 41.302 26.813 57.959 17.319 13.28 37.564 18.789 53.202 14.82 6.184 6.399 12.029 12.555 17.709 18.538 17.925 18.878 32.083 33.79 44.035 42.867 57.61 43.75 20.061 117.984 7.181 139.694z"/><path d="M332.233 341.091c-9.921-5.434-23.093-8.716-37.088-9.241-14-.528-27.377 1.761-37.677 6.437-11.982 5.44-18.775 13.621-19.128 23.035-.353 9.415 5.808 18.082 17.35 24.403 9.921 5.434 23.093 8.716 37.089 9.241 1.316.049 2.627.074 3.93.074 12.555 0 24.415-2.275 33.747-6.511 11.982-5.44 18.776-13.621 19.128-23.036.352-9.413-5.809-18.08-17.351-24.402zm2.361 23.841c-.125 3.341-3.991 7.056-10.34 9.938-8.102 3.678-19.375 5.533-30.914 5.106-11.545-.433-22.642-3.133-30.445-7.407-6.115-3.35-9.691-7.344-9.566-10.685s3.991-7.057 10.34-9.939c7.33-3.328 17.25-5.168 27.623-5.168 1.093 0 2.192.021 3.292.062 11.544.433 22.641 3.133 30.445 7.407 6.114 3.35 9.69 7.345 9.565 10.686zm14.989.562zm-189.336-82.482c-24.627 2.946-41.896 16.055-40.168 30.491.926 7.743 6.927 13.977 16.897 17.555 5.813 2.086 12.717 3.16 20.035 3.16 3.043 0 6.158-.186 9.296-.561 24.627-2.946 41.896-16.054 40.169-30.491-1.728-14.435-21.6-23.102-46.229-20.154zm4.277 35.751c-8.293.992-16.488.328-22.482-1.823-4.627-1.661-6.909-3.87-7.07-5.219-.301-2.514 7.268-11.448 27.057-13.815a66.132 66.132 0 0 1 7.85-.487c14.455 0 21.445 5.375 21.703 7.53.3 2.513-7.269 11.447-27.058 13.814zm239.258-37.781c2.663-6.792 1.357-14.733-3.582-21.788-4.361-6.23-11.224-11.409-19.322-14.584-18.064-7.08-36.301-2.197-41.521 11.118-5.219 13.314 4.842 29.291 22.905 36.371 5.438 2.132 11.08 3.222 16.45 3.222 2.629 0 5.193-.261 7.636-.789 8.418-1.819 14.772-6.758 17.434-13.55zm-13.965-5.474c-1.132 2.887-5.019 4.012-6.637 4.362-4.511.975-10.141.343-15.443-1.736-10.443-4.093-16.223-12.315-14.414-16.931 1.138-2.902 5.445-4.812 11.083-4.812 3.329 0 7.122.666 10.998 2.186 5.302 2.078 9.861 5.439 12.509 9.221.949 1.356 3.035 4.823 1.904 7.71zm69.248 60.611c-9.139-9.547-27.033-6.217-41.623 7.75-14.588 13.965-18.697 31.697-9.558 41.245 3.505 3.661 8.297 5.429 13.697 5.429 8.681 0 18.932-4.568 27.926-13.178 14.589-13.966 18.699-31.697 9.558-41.246zm-19.93 30.41c-9.008 8.625-18.472 10.243-20.415 8.213-1.943-2.03.086-11.413 9.095-20.037 6.76-6.472 13.776-8.998 17.679-8.998 1.298 0 2.251.279 2.736.786 1.943 2.03-.087 11.412-9.095 20.036zM75.086 251.749c12.246 0 23.304-14.665 26.237-35.387 1.334-9.427.711-18.673-1.754-26.038-3.052-9.115-8.647-14.689-15.755-15.695-13.082-1.855-25.297 13.296-28.402 35.234-1.334 9.426-.711 18.673 1.754 26.037 3.052 9.115 8.647 14.689 15.755 15.695.725.103 1.447.154 2.165.154zm-4.822-39.783c2.152-15.206 9.089-22.494 11.322-22.494.044 0 .087.003.127.008.601.085 2.28 1.568 3.632 5.606 1.715 5.124 2.125 12.112 1.126 19.173-2.195 15.505-9.366 22.757-11.449 22.485-.601-.085-2.28-1.567-3.632-5.606-1.715-5.123-2.125-12.111-1.126-19.172zm78.619-113.34c.953 0 1.923-.183 2.859-.569 6.465-2.669 18.215-3.676 24.739-.853a7.5 7.5 0 1 0 5.957-13.767c-10.97-4.747-26.953-3.154-36.419.754a7.5 7.5 0 0 0 2.864 14.435zm-37.635 238.135c-9.433-.997-17.762-6.198-22.851-14.272-4.655-7.385-5.734-16.107-2.96-23.93a7.5 7.5 0 0 0-14.138-5.012c-4.319 12.18-2.712 25.645 4.408 36.941 7.554 11.985 19.934 19.708 33.964 21.19a7.5 7.5 0 0 0 1.577-14.917zm-26.574-60.273a7.488 7.488 0 0 0 5.958 2.938 7.468 7.468 0 0 0 4.557-1.548c1.966-1.508 5.035-3.181 11.354-2.682 4.126.313 7.739-2.765 8.061-6.895s-2.765-7.738-6.895-8.061c-8.658-.676-15.734 1.201-21.646 5.731a7.503 7.503 0 0 0-1.389 10.517z"/></svg>