<svg xmlns="http://www.w3.org/2000/svg" viewBox="0 0 511 511"><path d="M327 144.521V127.5c0-3.119-.934-6.021-2.526-8.455C331.372 107.041 335 93.481 335 79.5 335 35.664 299.336 0 255.5 0S176 35.664 176 79.5c0 13.982 3.628 27.542 10.526 39.545A15.396 15.396 0 0 0 184 127.5v17.021c-27.067 3.675-48 26.921-48 54.979v96c0 23.925 17.78 43.775 40.821 47.032l14.297 114.372C173.351 460.76 160 476.596 160 495.5v8a7.5 7.5 0 0 0 7.5 7.5h64c8.547 0 15.5-6.953 15.5-15.5v-128c0-4.687 3.813-8.5 8.5-8.5s8.5 3.813 8.5 8.5v128c0 8.547 6.953 15.5 15.5 15.5h64a7.5 7.5 0 0 0 7.5-7.5v-8c0-18.904-13.351-34.74-31.117-38.596l14.297-114.372C357.22 339.275 375 319.425 375 295.5v-96c0-28.058-20.933-51.305-48-54.979zM335 288v-65h25v65h-25zm-184-65h25v65h-25v-65zm40 64h17v17h-17v-17zm32 0h17v17h-17v-17zm32 0h65v17h-65v-17zm38.055-143c-2.647-4.765-7.728-8-13.555-8h-48c-5.827 0-10.908 3.235-13.555 8H199v-16.5a.5.5 0 0 1 .5-.5h112a.5.5 0 0 1 .5.5V144h-18.945zM231 151.5a.5.5 0 0 1 .5-.5H248v8.5a7.5 7.5 0 0 0 15 0V151h16.5a.5.5 0 0 1 .5.498v8.002c0 9.098-7.402 16.5-16.5 16.5h-16c-9.098 0-16.5-7.402-16.5-16.5v-8zM255.5 15c35.565 0 64.5 28.935 64.5 64.5 0 11.51-3.032 22.663-8.785 32.5H199.784C194.032 102.164 191 91.011 191 79.5c0-35.565 28.935-64.5 64.5-64.5zm-64 144H216v.5c0 17.369 14.131 31.5 31.5 31.5h16c17.369 0 31.5-14.131 31.5-31.5v-.5h24.5c22.332 0 40.5 18.168 40.5 40.5v8.5h-25v-.5a7.5 7.5 0 0 0-15 0V272H191v-64.5a7.5 7.5 0 0 0-15 0v.5h-25v-8.5c0-22.332 18.168-40.5 40.5-40.5zm-39.617 144H176v24.117c-11.906-2.825-21.292-12.211-24.117-24.117zM232 495.5a.5.5 0 0 1-.5.5H175v-.5c0-13.503 10.98-24.489 24.48-24.5h.01l.016-.001H232V495.5zM255.5 344c-12.958 0-23.5 10.542-23.5 23.5V456h-25.879L191 335.035V319h17v8.5a7.5 7.5 0 0 0 15 0V319h17v8.5a7.5 7.5 0 0 0 15 0V319h65v16.035L304.879 456H279v-88.5c0-12.958-10.542-23.5-23.5-23.5zM336 495.5v.5h-56.5a.5.5 0 0 1-.5-.5V471h32.494l.016.001h.01c13.5.01 24.48 10.996 24.48 24.499zm-1-168.383V303h24.117c-2.825 11.906-12.211 21.292-24.117 24.117z"/><path d="M255.5 47c17.92 0 32.5 14.58 32.5 32.5a7.5 7.5 0 0 0 15 0c0-26.191-21.309-47.5-47.5-47.5a7.5 7.5 0 0 0 0 15zm24 168h16a7.5 7.5 0 0 0 0-15h-16a7.5 7.5 0 0 0 0 15zm0 24h16a7.5 7.5 0 0 0 0-15h-16a7.5 7.5 0 0 0 0 15z"/></svg>