<svg xmlns="http://www.w3.org/2000/svg" viewBox="0 0 511 511"><path d="M295.5 304c-17.369 0-31.5 14.131-31.5 31.5s14.131 31.5 31.5 31.5 31.5-14.131 31.5-31.5-14.131-31.5-31.5-31.5zm0 48c-9.098 0-16.5-7.402-16.5-16.5s7.402-16.5 16.5-16.5 16.5 7.402 16.5 16.5-7.402 16.5-16.5 16.5zm184-232c-17.369 0-31.5 14.131-31.5 31.5s14.131 31.5 31.5 31.5 31.5-14.131 31.5-31.5-14.131-31.5-31.5-31.5zm0 48c-9.098 0-16.5-7.402-16.5-16.5s7.402-16.5 16.5-16.5 16.5 7.402 16.5 16.5-7.402 16.5-16.5 16.5zm-328 88c-17.369 0-31.5 14.131-31.5 31.5s14.131 31.5 31.5 31.5 31.5-14.131 31.5-31.5-14.131-31.5-31.5-31.5zm0 48c-9.098 0-16.5-7.402-16.5-16.5s7.402-16.5 16.5-16.5 16.5 7.402 16.5 16.5-7.402 16.5-16.5 16.5zm-128 40C10.542 344 0 354.542 0 367.5S10.542 391 23.5 391 47 380.458 47 367.5 36.458 344 23.5 344zm0 32c-4.687 0-8.5-3.813-8.5-8.5s3.813-8.5 8.5-8.5 8.5 3.813 8.5 8.5-3.813 8.5-8.5 8.5zm440-64c-12.958 0-23.5 10.542-23.5 23.5s10.542 23.5 23.5 23.5 23.5-10.542 23.5-23.5-10.542-23.5-23.5-23.5zm0 32c-4.687 0-8.5-3.813-8.5-8.5s3.813-8.5 8.5-8.5 8.5 3.813 8.5 8.5-3.813 8.5-8.5 8.5zM303 191.5c0-12.958-10.542-23.5-23.5-23.5S256 178.542 256 191.5s10.542 23.5 23.5 23.5 23.5-10.542 23.5-23.5zm-32 0c0-4.687 3.813-8.5 8.5-8.5s8.5 3.813 8.5 8.5-3.813 8.5-8.5 8.5-8.5-3.813-8.5-8.5zM78.47 324.3c-3.51 2.2-4.58 6.82-2.39 10.33a7.505 7.505 0 0 0 10.34 2.39c3.51-2.2 4.58-6.82 2.38-10.33a7.484 7.484 0 0 0-10.33-2.39zm23.74-14.84a7.49 7.49 0 0 0-2.38 10.33 7.492 7.492 0 0 0 10.33 2.39 7.505 7.505 0 0 0 2.39-10.34 7.502 7.502 0 0 0-10.34-2.38zm-47.48 29.68A7.496 7.496 0 0 0 58.71 353c1.35 0 2.73-.37 3.96-1.14a7.484 7.484 0 0 0 2.39-10.33c-2.2-3.52-6.82-4.59-10.33-2.39zm181.71-31.23c-3.94-1.31-8.18.81-9.49 4.74s.81 8.18 4.74 9.49c.79.26 1.59.38 2.37.38 3.14 0 6.07-1.98 7.12-5.13a7.49 7.49 0 0 0-4.74-9.48zm-26.57-8.86c-3.93-1.31-8.18.81-9.48 4.74-1.31 3.93.81 8.18 4.74 9.49.79.26 1.59.39 2.37.39 3.14 0 6.07-1.99 7.11-5.13 1.32-3.93-.81-8.18-4.74-9.49zM288.71 282c.28 0 .56-.01.84-.05 4.12-.45 7.08-4.16 6.63-8.28a7.505 7.505 0 0 0-8.29-6.62c-4.11.45-7.08 4.16-6.62 8.28.42 3.83 3.67 6.67 7.44 6.67zm-2.25-27.87a7.505 7.505 0 0 0 6.62-8.29c-.45-4.11-4.16-7.08-8.28-6.62-4.11.45-7.08 4.16-6.62 8.28.42 3.83 3.67 6.67 7.44 6.67.28 0 .56-.01.84-.04zm128.94-97.46c-4.06.81-6.7 4.77-5.89 8.83a7.518 7.518 0 0 0 7.35 6.03c.49 0 .98-.05 1.48-.15 4.06-.81 6.69-4.76 5.88-8.82a7.494 7.494 0 0 0-8.82-5.89zm-54.91 10.98a7.51 7.51 0 0 0-5.89 8.83c.71 3.56 3.85 6.03 7.35 6.03.49 0 .98-.05 1.48-.15 4.06-.81 6.69-4.76 5.88-8.82-.81-4.06-4.76-6.7-8.82-5.89zm27.45-5.49a7.51 7.51 0 0 0-5.88 8.83 7.5 7.5 0 0 0 7.34 6.03c.49 0 .99-.05 1.48-.15 4.06-.81 6.7-4.76 5.89-8.82-.82-4.06-4.77-6.7-8.83-5.89zm-54.91 10.99c-4.06.81-6.7 4.76-5.88 8.82a7.49 7.49 0 0 0 7.34 6.03c.49 0 .98-.05 1.48-.15 4.06-.81 6.7-4.76 5.88-8.82-.81-4.06-4.76-6.7-8.82-5.88zm129.36 88.49a7.507 7.507 0 0 0 7.48 8.15c3.85 0 7.13-2.95 7.47-6.85a7.5 7.5 0 0 0-6.82-8.12 7.502 7.502 0 0 0-8.13 6.82zm-2.42 27.89a7.502 7.502 0 0 0 6.82 8.13c.22.02.44.02.66.02 3.85 0 7.12-2.94 7.46-6.85a7.498 7.498 0 0 0-14.94-1.3zM474.72 214a7.5 7.5 0 0 0 .65-14.97c-4.13-.36-7.77 2.69-8.12 6.82a7.492 7.492 0 0 0 7.47 8.15zm-9.9 19.74c-.36 4.13 2.7 7.77 6.82 8.13.22.02.44.02.66.02 3.85 0 7.12-2.94 7.46-6.85a7.498 7.498 0 0 0-14.94-1.3z"/><circle cx="384.5" cy="335.5" r="7.5"/><circle cx="356.5" cy="335.5" r="7.5"/><circle cx="412.5" cy="335.5" r="7.5"/></svg>