<svg xmlns="http://www.w3.org/2000/svg" viewBox="0 0 513.196 513.196"><path d="M256.052 448.096c41.429 0 80.86-13.015 114.031-37.638 32.519-24.139 56.183-57.189 68.436-95.579a7.5 7.5 0 0 0-4.865-9.425 7.502 7.502 0 0 0-9.425 4.865c-11.291 35.378-33.106 65.84-63.086 88.095-30.566 22.689-66.906 34.682-105.091 34.682-46.08 0-89.683-17.65-122.776-49.699a7.5 7.5 0 1 0-10.435 10.775c35.906 34.773 83.215 53.924 133.211 53.924zm181.48-160.062a7.501 7.501 0 0 0 8.406-6.468 193.99 193.99 0 0 0 1.614-24.97 7.5 7.5 0 0 0-15 0c0 7.703-.501 15.452-1.488 23.033a7.498 7.498 0 0 0 6.468 8.405zm-350.31-83.07c10.808-35.387 33.14-67.188 62.881-89.545 30.741-23.109 67.377-35.323 105.949-35.323 48.217 0 93.249 19.08 126.8 53.724a7.5 7.5 0 1 0 10.775-10.435c-36.402-37.588-85.261-58.289-137.576-58.289-41.848 0-81.602 13.255-114.962 38.333-32.26 24.25-56.486 58.753-68.214 97.153a7.5 7.5 0 0 0 14.347 4.382zm-12.651 20.194a7.498 7.498 0 0 0-8.405 6.469 194.008 194.008 0 0 0-1.614 24.969 7.5 7.5 0 0 0 15 0c0-7.701.5-15.45 1.488-23.033a7.499 7.499 0 0 0-6.469-8.405zM224.042 50.451c.366 0 .738-.027 1.111-.083a211.076 211.076 0 0 1 30.899-2.273 7.5 7.5 0 0 0 0-15c-11.082 0-22.22.819-33.103 2.436a7.501 7.501 0 1 0 1.093 14.92z"/><path d="M78.802 120.436c-30.257 39.332-46.25 86.415-46.25 136.16 0 60.101 23.517 116.494 66.219 158.792a7.476 7.476 0 0 0 5.277 2.171 7.5 7.5 0 0 0 5.278-12.828c-39.836-39.459-61.774-92.068-61.774-148.135 0-46.408 14.917-90.328 43.139-127.014 27.339-35.538 66.033-61.736 108.954-73.768a7.5 7.5 0 0 0-4.049-14.443c-46.017 12.9-87.495 40.979-116.794 79.065zm208.15 342.387a211.058 211.058 0 0 1-30.9 2.272 7.5 7.5 0 0 0 0 15c11.084 0 22.222-.819 33.104-2.436a7.5 7.5 0 1 0-2.204-14.836zm148.12-72.401c29.099-38.865 44.479-85.141 44.479-133.827 0-60.092-23.512-116.48-66.204-158.777a7.5 7.5 0 0 0-10.607.05 7.5 7.5 0 0 0 .05 10.606c39.827 39.458 61.761 92.062 61.761 148.121 0 45.419-14.346 88.587-41.487 124.837-26.251 35.062-63.624 61.47-105.234 74.36a7.5 7.5 0 0 0 4.439 14.328c44.609-13.818 84.67-42.122 112.803-79.698z"/><path d="M15.569 256.596a7.5 7.5 0 0 0-15 0c0 53.602 16.418 104.909 47.479 148.376a7.49 7.49 0 0 0 6.108 3.14 7.5 7.5 0 0 0 6.096-11.86c-29.231-40.908-44.683-89.201-44.683-139.656zm93.123 190.059a242.54 242.54 0 0 1-31.088-28.848 7.5 7.5 0 0 0-11.128 10.058 257.525 257.525 0 0 0 33.017 30.637 7.468 7.468 0 0 0 4.594 1.577 7.487 7.487 0 0 0 5.929-2.901 7.499 7.499 0 0 0-1.324-10.523zm147.36 50.423c-43.857 0-86.774-11.916-124.112-34.458a7.498 7.498 0 0 0-10.297 2.544 7.5 7.5 0 0 0 2.544 10.297c39.677 23.956 85.275 36.618 131.865 36.618a7.5 7.5 0 1 0 0-15.001zm219.11-339.738c14.182 31.255 21.372 64.649 21.372 99.255a7.5 7.5 0 0 0 15 0c0-36.759-7.642-72.238-22.712-105.453-14.559-32.086-35.245-60.384-61.485-84.109a7.498 7.498 0 0 0-10.593.534 7.5 7.5 0 0 0 .534 10.593c24.705 22.338 44.18 48.978 57.884 79.18zM364.644 41.968a241.327 241.327 0 0 1 31.057 18.824 7.469 7.469 0 0 0 4.354 1.398 7.5 7.5 0 0 0 4.367-13.603 256.366 256.366 0 0 0-32.994-19.998 7.5 7.5 0 0 0-10.081 3.298 7.499 7.499 0 0 0 3.297 10.081zM256.052 16.113c26.569 0 52.67 4.302 77.581 12.787a7.502 7.502 0 0 0 4.835-14.2c-26.47-9.016-54.199-13.587-82.417-13.587a7.5 7.5 0 1 0 .001 15zM33.551 86.427a7.466 7.466 0 0 0 4.713 1.67 7.485 7.485 0 0 0 5.835-2.783c24.068-29.745 53.468-53.682 87.383-71.145A7.5 7.5 0 1 0 124.614.833c-35.777 18.422-66.79 43.671-92.176 75.045a7.502 7.502 0 0 0 1.113 10.549zM4.559 133.132a7.5 7.5 0 0 0 10.128-3.149 273.533 273.533 0 0 1 12.47-21.314 7.5 7.5 0 0 0-2.218-10.372 7.499 7.499 0 0 0-10.372 2.218 288.663 288.663 0 0 0-13.158 22.488 7.502 7.502 0 0 0 3.15 10.129zm473.992 293.635a7.501 7.501 0 0 0-10.548 1.113c-24.069 29.747-53.471 53.684-87.388 71.147a7.5 7.5 0 0 0 6.866 13.336c35.781-18.422 66.795-43.672 92.183-75.047a7.501 7.501 0 0 0-1.113-10.549zm30.03-48.838a7.502 7.502 0 0 0-10.102 3.234 273.411 273.411 0 0 1-13.532 23.355 7.5 7.5 0 0 0 6.288 11.578 7.494 7.494 0 0 0 6.302-3.424 288.094 288.094 0 0 0 14.278-24.642 7.5 7.5 0 0 0-3.234-10.101zm-252.529 38.167c87.949 0 159.5-71.551 159.5-159.5s-71.551-159.5-159.5-159.5-159.5 71.551-159.5 159.5 71.551 159.5 159.5 159.5zm0-304c79.678 0 144.5 64.822 144.5 144.5s-64.822 144.5-144.5 144.5-144.5-64.822-144.5-144.5 64.822-144.5 144.5-144.5zM56.043 117.46a7.49 7.49 0 0 0 6.051-3.061 241.506 241.506 0 0 1 51.761-51.761 7.5 7.5 0 0 0-8.879-12.089 256.548 256.548 0 0 0-54.972 54.972 7.5 7.5 0 0 0 6.039 11.939zm393.966 281.334a241.418 241.418 0 0 1-54.317 53.612 7.5 7.5 0 1 0 8.72 12.205 256.38 256.38 0 0 0 57.688-56.938 7.5 7.5 0 0 0-1.605-10.484 7.502 7.502 0 0 0-10.486 1.605z"/></svg>