<svg xmlns="http://www.w3.org/2000/svg" viewBox="0 0 511 511"><path d="M423.5 168c-2.298 0-4.548.041-6.764.11a7.514 7.514 0 0 0-1.236-.11h-208a7.5 7.5 0 0 0 0 15h147.295C324.163 199.797 312 228.248 312 255.5c0 25.346 9.557 46.881 27.637 62.278 4.524 3.852 9.522 7.247 14.944 10.222H207.5a7.5 7.5 0 0 0 0 15h208c.411 0 .812-.042 1.205-.106 2.234.069 4.497.106 6.795.106 48.248 0 87.5-39.252 87.5-87.5S471.748 168 423.5 168zm0 160c-31.876 0-57.512-7.483-74.137-21.642C334.733 293.9 327 276.313 327 255.5c0-45.397 36.075-72.5 96.5-72.5 39.977 0 72.5 32.523 72.5 72.5S463.477 328 423.5 328zm-256-145h7.997a7.5 7.5 0 0 0 0-15H167.5a7.5 7.5 0 0 0 0 15zm7.997 145H167.5a7.5 7.5 0 0 0 0 15h7.997a7.5 7.5 0 0 0 0-15z"/><path d="M295 255.5a7.5 7.5 0 0 0-7.5-7.5H7.5a7.5 7.5 0 0 0 0 15h280a7.5 7.5 0 0 0 7.5-7.5zM87.5 223h16.003a7.5 7.5 0 0 0 0-15H87.5a7.5 7.5 0 0 0 0 15zm47.998 0H303.5a7.5 7.5 0 0 0 0-15H135.498a7.5 7.5 0 0 0 0 15zm-31.995 65H87.5a7.5 7.5 0 0 0 0 15h16.003a7.5 7.5 0 0 0 0-15zM311 295.5a7.5 7.5 0 0 0-7.5-7.5H135.498a7.5 7.5 0 0 0 0 15H303.5a7.5 7.5 0 0 0 7.5-7.5zM423.5 200a7.5 7.5 0 0 0 0 15c22.332 0 40.5 18.168 40.5 40.5a7.5 7.5 0 0 0 15 0c0-30.603-24.897-55.5-55.5-55.5z"/></svg>