<svg xmlns="http://www.w3.org/2000/svg" viewBox="0 0 495 495"><path d="M454.695 337.648l-112.392-43.556-7.379-51.654a7.501 7.501 0 0 0-6.597-6.394l-62.779-6.976 21.066-63.199a7.503 7.503 0 0 0-.407-5.726l-21.941-43.882L322.814 37.2a7.502 7.502 0 0 0-3.528-11.535c-25.666-9.068-52.509-13.666-79.785-13.666-63.973 0-124.116 24.912-169.352 70.148C24.913 127.382 0 187.526 0 251.499s24.913 124.116 70.148 169.352c45.229 45.229 105.362 70.14 169.324 70.148l.029.002.028-.002c69.7-.008 134.596-30.289 179.317-80.795a7.467 7.467 0 0 0 3.766-4.367 239.527 239.527 0 0 0 36.24-58.18 7.498 7.498 0 0 0-4.157-10.009zm-42.343 57.076l-74.697-22.409a7.5 7.5 0 0 0-4.311 14.367l21.886 6.566-23.085 11.543a7.499 7.499 0 0 0-3.354 10.062 7.499 7.499 0 0 0 10.062 3.354l37.34-18.67 25.131 7.539c-39.253 40.803-93.171 65.956-151.335 68.669l4.625-13.875a7.5 7.5 0 0 0-4.744-9.487 7.5 7.5 0 0 0-9.487 4.744l-6.269 18.806c-57.95-1.355-112.23-24.558-153.362-65.689C38.352 367.842 15 311.465 15 251.499c0-53.65 18.705-104.418 53.008-144.885l22.188 22.189C91.66 130.267 93.58 131 95.499 131s3.839-.732 5.303-2.197a7.5 7.5 0 0 0 0-10.606L78.09 95.483c.884-.913 1.763-1.829 2.664-2.73 34.789-34.788 78.986-56.741 126.851-63.508l-7.009 42.056L171 93.499a7.5 7.5 0 1 0 9 12l32-24a7.498 7.498 0 0 0 2.898-4.767l8-48c.064-.382.088-.76.093-1.136a229.054 229.054 0 0 1 16.509-.597c22.148 0 43.993 3.234 65.077 9.624l-55.104 74.413a7.5 7.5 0 0 0-.681 7.817l22.61 45.222-23.018 69.053a7.5 7.5 0 0 0 6.287 9.826l66.225 7.358 7.178 50.248a7.5 7.5 0 0 0 4.715 5.933l109.051 42.261a224.41 224.41 0 0 1-29.488 45.97z"/><path d="M352 155.499v32a7.5 7.5 0 0 0 11.359 6.431l120-72a7.505 7.505 0 0 0 1.785-11.371l-56-64a7.497 7.497 0 0 0-12.032 1.008l-64 104a7.51 7.51 0 0 0-1.112 3.932zm15 2.122l57.555-93.527 43.392 49.59L367 174.252v-16.631zm127.088 58.294a7.501 7.501 0 0 0-5.76-3.87l-72-8a7.483 7.483 0 0 0-4.182.746l-32 16a7.499 7.499 0 0 0 0 13.416l80 40a7.502 7.502 0 0 0 10.062-3.354l24-48a7.498 7.498 0 0 0-.12-6.938zm-33.942 41.521l-59.875-29.938 16.603-8.301 59.108 6.567-15.836 31.672zM320 91.499v32a7.5 7.5 0 0 0 13.603 4.359l40-56a7.498 7.498 0 0 0 .605-7.713l-16-32c-1.306-2.612-4.029-4.241-6.928-4.143a7.498 7.498 0 0 0-6.673 4.542l-24 56a7.488 7.488 0 0 0-.607 2.955zm15 1.539l17.023-39.722 6.749 13.498L335 100.096v-7.058zm-2.197 73.158a7.5 7.5 0 0 0-10.606 0l-16 16a7.5 7.5 0 0 0 5.303 12.803 7.474 7.474 0 0 0 5.303-2.197l16-16a7.5 7.5 0 0 0 0-10.606zm2.697 60.803h16a7.5 7.5 0 0 0 0-15h-16a7.5 7.5 0 0 0 0 15zm85.628 71.615a7.5 7.5 0 0 0 2.373.387 7.5 7.5 0 0 0 2.37-14.617l-24-8a7.5 7.5 0 0 0-4.743 14.231l24 7.999zm40-134.23l-24 8a7.5 7.5 0 0 0 4.743 14.23l24-8a7.5 7.5 0 0 0-4.743-14.23zM391.5 34.999a7.474 7.474 0 0 0 5.303-2.197l16-16a7.5 7.5 0 0 0 0-10.606 7.5 7.5 0 0 0-10.606 0l-16 16a7.5 7.5 0 0 0 5.303 12.803zm77.303 275.197a7.5 7.5 0 0 0-10.606 0 7.5 7.5 0 0 0 0 10.606l8 8c1.464 1.464 3.384 2.197 5.303 2.197s3.839-.732 5.303-2.197a7.5 7.5 0 0 0 0-10.606l-8-8zm-270.118-32.544a.565.565 0 0 1 .013-.044l.014-.048c.015-.054.023-.108.038-.162a7.58 7.58 0 0 0 .123-.532c.021-.111.032-.222.048-.334.018-.127.038-.253.049-.38.012-.139.015-.277.02-.416.003-.101.009-.202.008-.304-.001-.146-.011-.29-.021-.434-.006-.098-.011-.196-.021-.293a6.804 6.804 0 0 0-.058-.405c-.018-.108-.034-.216-.056-.323-.024-.117-.055-.233-.085-.348-.032-.124-.063-.247-.101-.369-.031-.096-.066-.191-.1-.286a7.69 7.69 0 0 0-.155-.406c-.035-.082-.075-.162-.113-.243-.065-.138-.13-.276-.203-.411-.045-.083-.096-.163-.145-.245-.074-.124-.147-.248-.229-.369-.069-.102-.146-.2-.22-.299-.07-.093-.136-.187-.21-.277a8.245 8.245 0 0 0-.367-.406c-.038-.04-.071-.083-.11-.122l-.035-.035-.034-.034-47.931-47.931a7.5 7.5 0 0 0-10.606 0 7.5 7.5 0 0 0 0 10.606l44.879 44.879-12.1 42.349-21.782-25.413a7.5 7.5 0 0 0-10.575-.813 7.5 7.5 0 0 0-.813 10.575l48 56a7.484 7.484 0 0 0 5.698 2.619 7.464 7.464 0 0 0 4.877-1.806 7.5 7.5 0 0 0 .813-10.575l-14.525-16.946c.012-.039.031-.073.042-.112l15.973-55.907zm-112.07 19.475l-.009-.024a7.587 7.587 0 0 0-.26-.666c-.046-.103-.101-.201-.151-.301-.059-.119-.115-.238-.181-.354-.063-.112-.135-.216-.204-.324-.063-.099-.123-.199-.19-.295-.074-.104-.155-.202-.234-.302-.073-.093-.143-.187-.22-.276-.08-.093-.167-.178-.252-.267-.085-.089-.167-.18-.257-.265s-.186-.162-.279-.242c-.092-.079-.18-.16-.276-.234-.119-.092-.244-.175-.367-.26-.078-.053-.151-.11-.232-.161a7.264 7.264 0 0 0-.661-.372l-15.989-7.994a7.5 7.5 0 0 0-6.708 13.416l13.221 6.611 7.018 21.053a7.503 7.503 0 0 0 7.114 5.13 7.5 7.5 0 0 0 7.117-9.874l-8-23.999z"/></svg>