<svg xmlns="http://www.w3.org/2000/svg" viewBox="0 0 514.526 514.526"><path d="M19.76 353.753a7.48 7.48 0 0 0 2.63.479 7.503 7.503 0 0 0 7.024-4.871C52.608 287.453 98.761 219.98 159.371 159.37a7.5 7.5 0 0 0 0-10.606 7.5 7.5 0 0 0-10.606 0C86.672 210.856 39.298 280.227 15.368 344.098a7.5 7.5 0 0 0 4.392 9.655zM6.665 413.005a7.5 7.5 0 0 0 8.289-6.618c.683-6.088 1.735-12.475 3.129-18.985a7.5 7.5 0 1 0-14.668-3.14c-1.497 6.993-2.63 13.875-3.367 20.454a7.499 7.499 0 0 0 6.617 8.289zm9.418 32.31a7.499 7.499 0 0 0-8.856-5.836 7.5 7.5 0 0 0-5.836 8.856c3.549 17.266 10.973 31.645 22.064 42.736a7.474 7.474 0 0 0 5.303 2.197 7.474 7.474 0 0 0 5.303-2.197 7.5 7.5 0 0 0 0-10.606c-8.98-8.981-15.029-20.807-17.978-35.15zM490.83 171.44a7.498 7.498 0 0 0-9.792 4.075c-24.321 58.988-69.027 122.786-125.881 179.641a7.5 7.5 0 0 0 5.303 12.803 7.474 7.474 0 0 0 5.303-2.197c58.221-58.221 104.085-123.755 129.142-184.529a7.5 7.5 0 0 0-4.075-9.793zm17.031-69.912c-4.117-.468-7.827 2.501-8.289 6.617-.861 7.673-2.305 15.789-4.292 24.123a7.5 7.5 0 0 0 7.302 9.241 7.502 7.502 0 0 0 7.289-5.762c2.129-8.927 3.679-17.652 4.608-25.931a7.5 7.5 0 0 0-6.618-8.288zm-9.418-32.317a7.502 7.502 0 0 0 8.856 5.836 7.5 7.5 0 0 0 5.836-8.856c-3.55-17.267-10.973-31.645-22.064-42.736a7.5 7.5 0 0 0-10.606 0 7.5 7.5 0 0 0 0 10.606c8.981 8.98 15.029 20.806 17.978 35.15zM287.202 374.597c-90.916 74.396-181.876 103.421-216.285 69.013a7.5 7.5 0 0 0-10.606 0 7.5 7.5 0 0 0 0 10.606c12.482 12.482 30.009 18.765 51.771 18.765 14.374 0 30.598-2.743 48.428-8.251 41.679-12.877 90.046-40.764 136.191-78.524a7.5 7.5 0 0 0 1.055-10.554 7.499 7.499 0 0 0-10.554-1.055zm45.84-41.555a644.228 644.228 0 0 1-14.804 14.337 7.5 7.5 0 0 0 5.132 12.971 7.474 7.474 0 0 0 5.129-2.029 659.863 659.863 0 0 0 15.15-14.672 7.5 7.5 0 0 0 0-10.606 7.5 7.5 0 0 0-10.607-.001zM222.58 141.625c1.67 0 3.352-.555 4.745-1.696 90.917-74.396 181.878-103.42 216.285-69.012a7.5 7.5 0 0 0 10.606 0 7.5 7.5 0 0 0 0-10.606c-20.727-20.727-55.375-24.362-100.2-10.514-41.679 12.877-90.046 40.764-136.19 78.524a7.5 7.5 0 0 0 4.754 13.304zm-46.399 42.055a7.474 7.474 0 0 0 5.303-2.197c4.85-4.85 9.831-9.673 14.804-14.336a7.5 7.5 0 1 0-10.26-10.942 657.43 657.43 0 0 0-15.15 14.672 7.5 7.5 0 0 0 0 10.606 7.472 7.472 0 0 0 5.303 2.197z"/><path d="M207.767 406.9a7.458 7.458 0 0 0 3.545-.896c36.445-19.596 74.56-48.805 110.223-84.468 41.977-41.976 75.262-87.776 93.725-128.963 19.462-43.416 20.208-77.299 2.1-95.407a7.5 7.5 0 0 0-10.606 0 7.5 7.5 0 0 0 0 10.606c13.2 13.2 11.312 41.873-5.181 78.665-17.735 39.563-49.926 83.774-90.644 124.492-34.643 34.643-71.546 62.951-106.72 81.864a7.5 7.5 0 0 0 3.558 14.107zm-4.17-203.303c31.393-31.393 65.103-57.915 97.485-76.7a7.499 7.499 0 0 0 2.724-10.25 7.498 7.498 0 0 0-10.25-2.724c-33.491 19.428-68.266 46.77-100.565 79.068-41.976 41.977-75.262 87.776-93.725 128.963-19.462 43.416-20.208 77.299-2.1 95.407a7.474 7.474 0 0 0 5.303 2.197 7.474 7.474 0 0 0 5.303-2.197 7.5 7.5 0 0 0 0-10.606c-13.2-13.2-11.312-41.873 5.181-78.665 17.735-39.563 49.927-83.775 90.644-124.493z"/><path d="M203.532 325.597c6.715 0 15.437-3.253 26.317-9.781 14.433-8.66 31.288-22.335 47.459-38.508 16.172-16.172 29.848-33.027 38.508-47.459 10.744-17.907 12.615-29.963 5.719-36.858-19.481-19.482-77.739 37.648-84.318 44.227s-63.709 64.834-44.227 84.318c2.706 2.705 6.205 4.061 10.542 4.061zm10.049-36.441c8.11-12.682 20.271-27.36 34.243-41.333 13.972-13.972 28.651-26.133 41.333-34.243 12.102-7.74 18.826-9.534 21.424-9.635-.102 2.598-1.896 9.323-9.635 21.424-8.11 12.681-20.271 27.36-34.243 41.332-13.972 13.972-28.651 26.133-41.332 34.244-12.102 7.739-18.827 9.534-21.424 9.635.1-2.598 1.895-9.323 9.634-21.424z"/><path d="M163.943 381.385c34.958 0 90.969-37.452 135.48-81.963 56.171-56.171 101.095-130.646 73.711-158.029-27.383-27.384-101.858 17.541-158.029 73.711-56.171 56.171-101.095 130.646-73.711 158.029 5.683 5.685 13.391 8.252 22.549 8.252zm-4.215-68.646c13.571-27.143 37.004-58.05 65.983-87.028s59.886-52.412 87.028-65.983c15.145-7.572 28.413-11.51 37.853-11.51 5.302 0 9.396 1.243 11.936 3.782 7.059 7.059 4.097 26.136-7.729 49.788-13.571 27.143-37.004 58.05-65.983 87.029-28.979 28.979-59.886 52.412-87.028 65.983-23.651 11.826-42.729 14.787-49.788 7.729-7.059-7.061-4.098-26.139 7.728-49.79z"/></svg>