<svg xmlns="http://www.w3.org/2000/svg" viewBox="0 0 511 511"><path d="M487.5 64h-112a7.5 7.5 0 0 0-7.5 7.5v136c0 8.547 6.953 15.5 15.5 15.5H424v9h-88.5c-.169 0-.334.014-.5.025v-13.628c5.181-6.228 8-13.996 8-22.197V15.5C343 6.953 336.047 0 327.5 0h-144C174.953 0 168 6.953 168 15.5v180.702c0 8.178 2.803 15.925 8 22.188V232H87v-9h40.5c8.547 0 15.5-6.953 15.5-15.5v-136a7.5 7.5 0 0 0-7.5-7.5h-112a7.5 7.5 0 0 0-7.5 7.5v136c0 8.547 6.953 15.5 15.5 15.5H72v9H23.5a7.5 7.5 0 0 0 0 15H72v9H31.5c-8.547 0-15.5 6.953-15.5 15.5v136a7.5 7.5 0 0 0 7.5 7.5h112a7.5 7.5 0 0 0 7.5-7.5v-136c0-8.547-6.953-15.5-15.5-15.5H87v-9h89v8.5c0 8.547 6.953 15.5 15.5 15.5h.5v105h-16.5a7.5 7.5 0 0 0 0 15H192v105h-8.5a7.5 7.5 0 0 0 0 15h144a7.5 7.5 0 0 0 0-15H319V391h16.5a7.5 7.5 0 0 0 0-15H319V271h.5c8.547 0 15.5-6.953 15.5-15.5v-8.525c.166.011.331.025.5.025H424v9h-40.5c-8.547 0-15.5 6.953-15.5 15.5v136a7.5 7.5 0 0 0 7.5 7.5h112a7.5 7.5 0 0 0 7.5-7.5v-136c0-8.547-6.953-15.5-15.5-15.5H439v-9h48.5a7.5 7.5 0 0 0 0-15H439v-9h40.5c8.547 0 15.5-6.953 15.5-15.5v-136a7.5 7.5 0 0 0-7.5-7.5zm-360 144H87v-57h41v56.5a.5.5 0 0 1-.5.5zm.5-72H87V79h41v57zM72 79v57H31V79h41zM31.5 208a.5.5 0 0 1-.5-.5V151h41v57H31.5zm0 63H72v57H31v-56.5a.5.5 0 0 1 .5-.5zm-.5 72h41v57H31v-57zm56 57v-57h41v57H87zm40.5-129a.5.5 0 0 1 .5.5V328H87v-57h40.5zM287 208v-57h41v45.2c0 4.314-1.392 8.405-3.93 11.8H287zm0 48v-33h9v33h-9zm-48 0v-33h33v33h-33zm-24 0v-33h9v33h-9zm-28.072-48A19.617 19.617 0 0 1 183 196.202V151h41v57h-37.072zM272 151v57h-33v-57h33zM183.5 15h144a.5.5 0 0 1 .5.5V136H183V15.5a.5.5 0 0 1 .5-.5zm7.5 240.5V223h9v33h-8.5a.5.5 0 0 1-.5-.5zM304 496h-97V271h97v225zm15.5-240H311v-33h9v32.5a.5.5 0 0 1-.5.5zm64 15H424v57h-41v-56.5a.5.5 0 0 1 .5-.5zm-.5 72h41v57h-41v-57zm56 57v-57h41v57h-41zm40.5-129a.5.5 0 0 1 .5.5V328h-41v-57h40.5zm.5-135h-41V79h41v57zm-56-57v57h-41V79h41zm-40.5 129a.5.5 0 0 1-.5-.5V151h41v57h-40.5zm96 0H439v-57h41v56.5a.5.5 0 0 1-.5.5z"/><path d="M255.5 352c-17.369 0-31.5 14.131-31.5 31.5s14.131 31.5 31.5 31.5 31.5-14.131 31.5-31.5-14.131-31.5-31.5-31.5zm0 48c-9.098 0-16.5-7.402-16.5-16.5s7.402-16.5 16.5-16.5 16.5 7.402 16.5 16.5-7.402 16.5-16.5 16.5z"/></svg>