<svg xmlns="http://www.w3.org/2000/svg" viewBox="0 0 479 479"><path d="M408.852 408.852C454.088 363.617 479 303.473 479 239.5s-24.912-124.117-70.148-169.352C363.617 24.913 303.473 0 239.5 0S115.384 24.913 70.148 70.148C24.913 115.384 0 175.527 0 239.5s24.913 124.116 70.148 169.352a244.148 244.148 0 0 0 7.063 6.763c.203.213.42.413.648.603C122.11 456.778 179.094 479 239.5 479c60.427 0 117.43-22.238 161.687-62.825.116-.098.222-.204.331-.308a244.429 244.429 0 0 0 7.334-7.015zM22.504 181.633c29.82 23.324 87.499 40.543 158.442 46.827.059.005.118.004.177.008 25.391 1.725 41.459 8.577 55.635 14.622 12.217 5.21 23.836 10.166 38.339 10.166 1.978 0 4.01-.092 6.104-.289a7.5 7.5 0 0 0 6.767-8.167 7.499 7.499 0 0 0-8.167-6.767c-13.659 1.278-24.03-3.142-37.158-8.74-14.52-6.192-32.591-13.899-60.529-15.792l-.05-.001c-71.31-6.341-129.811-24.377-154.805-47.472a221.405 221.405 0 0 1 12.502-29.225C83.267 160.471 158.615 175 239.5 175s156.232-14.529 199.741-38.197a221.58 221.58 0 0 1 12.506 29.237c-27.309 25.215-94.514 44.23-173.718 48.849a7.5 7.5 0 0 0 .872 14.974c78.902-4.601 144.968-22.758 177.596-48.223 4.939 18.647 7.502 38.055 7.502 57.86 0 17.661-22.925 35.695-62.896 49.478C358.051 303.824 300.659 312 239.5 312c-61.159 0-118.551-8.176-161.604-23.022C37.925 275.195 15 257.161 15 239.5c0-19.807 2.563-39.218 7.504-57.867zM352.899 45.655C318.506 52.434 279.707 56 239.5 56c-40.206 0-79.004-3.566-113.399-10.346C160.132 25.669 198.993 15 239.5 15c40.507 0 79.369 10.67 113.399 30.655zM80.754 80.754a227.328 227.328 0 0 1 27.661-23.553C147.272 66.225 192.495 71 239.5 71c47.007 0 92.229-4.775 131.085-13.799a227.408 227.408 0 0 1 27.66 23.553 228.2 228.2 0 0 1 16.896 18.903c-24.788 10.306-56.793 18.249-93.34 23.097a7.501 7.501 0 0 0 1.973 14.87c39.499-5.241 74.095-14.054 100.592-25.583a223.516 223.516 0 0 1 7.565 11.668C390.652 146.194 318.032 160 239.5 160c-78.532 0-151.152-13.806-192.431-36.29 2.393-3.96 4.92-7.849 7.566-11.67C99.867 131.755 166.715 143 239.5 143c16.11 0 32.207-.566 47.842-1.684 2.953-.211 5.885-.441 8.796-.69a7.5 7.5 0 0 0 6.833-8.112 7.49 7.49 0 0 0-8.112-6.833c-2.841.243-5.704.467-8.586.673A659.15 659.15 0 0 1 239.5 128c-68.02 0-132.682-10.511-175.648-28.335a228.397 228.397 0 0 1 16.902-18.911zM64.391 380.007c15.46 5.914 33.315 11.052 52.89 15.171a7.504 7.504 0 0 0 8.884-5.795 7.5 7.5 0 0 0-5.795-8.884c-29.405-6.187-54.547-14.674-72.912-24.58a221.665 221.665 0 0 1-20.149-42.8C67.401 340.93 147.831 359 239.5 359c24.883 0 49.39-1.337 72.84-3.975a7.5 7.5 0 0 0-1.677-14.907C287.768 342.694 263.825 344 239.5 344c-52.753 0-104.176-6.313-144.797-17.776-38.04-10.736-64.586-25.201-75.022-40.833a224.968 224.968 0 0 1-2.156-12.039c12.372 11.261 31.076 21.392 55.481 29.807C117.592 318.533 176.72 327 239.5 327s121.909-8.467 166.494-23.841c24.405-8.415 43.109-18.546 55.481-29.807a223.954 223.954 0 0 1-2.15 12.012c-14.41 21.636-59.002 40.553-119.828 50.741a7.5 7.5 0 0 0 2.478 14.794c47.964-8.034 86.028-21.284 109.701-37.731a221.747 221.747 0 0 1-20.131 42.749C390.244 378.196 316.958 392 239.5 392c-10.157 0-20.378-.231-30.379-.688-.041-.002-.08.002-.12 0-.053-.004-.104-.013-.157-.016-15.241-.773-26.173-6.917-38.832-14.031-11.674-6.561-24.907-13.997-43.391-18.088a7.5 7.5 0 0 0-3.241 14.645c16.314 3.611 27.991 10.173 39.283 16.52 13.711 7.706 26.662 14.984 45.421 15.935.069.004.136.004.205.005.05.003.099.012.149.014 10.227.468 20.678.704 31.062.704 67.652 0 130.554-9.869 175.076-26.952a228.25 228.25 0 0 1-16.331 18.197 229.91 229.91 0 0 1-5.769 5.549C350.519 416.828 296.287 424 239.5 424c-56.788 0-111.019-7.173-152.977-20.206a228.141 228.141 0 0 1-5.769-5.549 228.304 228.304 0 0 1-16.363-18.238zm51.273 46.824C152.642 434.748 195.371 439 239.5 439c44.129 0 86.858-4.252 123.836-12.169C326.921 451.011 284.21 464 239.5 464c-44.71 0-87.421-12.989-123.836-37.169z"/><path d="M311.498 250.458c.28 0 .563-.016.848-.047a575.247 575.247 0 0 0 16.207-2.055c4.101-.581 6.956-4.376 6.375-8.477s-4.374-6.959-8.477-6.375a560.307 560.307 0 0 1-15.782 2.001 7.5 7.5 0 0 0 .829 14.953z"/></svg>