<svg xmlns="http://www.w3.org/2000/svg" viewBox="0 0 511.001 511.001"><path d="M510.696 473.385l-32.66-111.043c-5.314-18.069-19.257-32.087-37.297-37.499L391 309.921v-2.42c0-8.547-6.953-15.5-15.5-15.5h-19.365l-8.5-17h3.865a7.5 7.5 0 0 0 7.212-9.56l-4.125-14.439h36.914c8.547 0 15.5-6.953 15.5-15.5v-16.5h8.5a7.5 7.5 0 0 0 0-15h-8.5v-16.5c0-8.547-6.953-15.5-15.5-15.5h-80.5V160.57a71.418 71.418 0 0 0 16-45.069c0-39.425-32.075-71.5-71.5-71.5s-71.5 32.075-71.5 71.5c0 16.222 5.583 32.109 15.721 44.735.089.11.186.21.279.314v11.451h-14.559a16.387 16.387 0 0 1-11.667-4.833l-38.774-38.774V35.501a7.499 7.499 0 0 0-12.803-5.303l-21.803 21.803H58.607L44.804 38.198a7.5 7.5 0 0 0-10.606 0 7.5 7.5 0 0 0 0 10.606l13.803 13.803v41.787L26.965 125.43a7.5 7.5 0 0 0 4.458 13.532h92.933l38.813 38.813c5.949 5.95 13.86 9.226 22.274 9.226h14.559v17H187.57c-10.437 0-19.729 7.009-22.596 17.044l-12.685 44.395a7.499 7.499 0 0 0 7.212 9.56h3.865l-8.5 17h-19.365c-8.547 0-15.5 6.953-15.5 15.5v2.42l-49.738 14.922c-18.041 5.412-31.983 19.43-37.297 37.499L.305 473.385a7.5 7.5 0 0 0 12.499 7.419l77.803-77.803h36.894c.089 0 .175-.01.264-.013 7.204 9.708 18.746 16.013 31.736 16.013h88.5v56.5a7.5 7.5 0 0 0 15 0v-56.5h88.5c12.99 0 24.533-6.305 31.736-16.013.088.003.175.013.264.013h36.894l77.803 77.803a7.492 7.492 0 0 0 5.306 2.197 7.5 7.5 0 0 0 7.192-9.616zM63.001 67.001h22.394L63.001 89.394V67.001zm45.802-2.197c.001 0 .001 0 0 0L120 53.607v70.355H49.646l59.157-59.158zm283.198 122.697v48a.5.5 0 0 1-.5.5h-16.5v-49h16.5a.5.5 0 0 1 .5.5zm-32-.5v49h-8.5c-.399 0-.788.04-1.171.1l-4.302-15.057c-2.868-10.035-12.16-17.043-22.596-17.043h-12.431v-17h49zm-81 17v-41h17v41h-17zm-32 0v-41h17v41h-17zm48.845-128H279V64.14a56.714 56.714 0 0 1 16.846 11.861zm-31.845-16.36v16.36h-17v-16.36a56.729 56.729 0 0 1 17 0zm-32 4.499v11.861h-16.846a56.714 56.714 0 0 1 16.846-11.861zm-33 51.361a56.15 56.15 0 0 1 5.846-24.992 7.469 7.469 0 0 0 2.654.492h96c.936 0 1.828-.179 2.654-.492a56.136 56.136 0 0 1 5.846 24.992 56.426 56.426 0 0 1-10.296 32.5H209.29c-6.736-9.53-10.289-20.689-10.289-32.5zm16 47.5h17v41h-17v-41zm-35.604 62.165a8.536 8.536 0 0 1 8.173-6.165h135.862a8.536 8.536 0 0 1 8.173 6.165l9.953 34.835H169.444l9.953-34.835zm.739 49.835h150.73l8.5 17h-167.73l8.5-17zm-44.635 32h23.968l.026.001.021-.001h191.969l.021.001.026-.001H375.5a.5.5 0 0 1 .5.5v64.5H263v-48.5a7.5 7.5 0 0 0-15 0v48.5H135v-64.5a.502.502 0 0 1 .501-.5zm-48 81c-1.989 0-3.897.79-5.303 2.197L22.995 449.4l24.361-82.826c3.878-13.186 14.052-23.415 27.217-27.364l45.428-13.629v53.92c0 2.918.328 5.76.931 8.5H87.501zm72 16c-10.894 0-20.146-7.149-23.321-17h111.821v17h-88.5zm192 0h-88.5v-17h111.821c-3.176 9.851-12.427 17-23.321 17zm77.303-13.803a7.497 7.497 0 0 0-5.303-2.197H390.07c.604-2.74.931-5.582.931-8.5v-53.92l45.429 13.629c13.164 3.949 23.338 14.179 27.216 27.364l24.36 82.826-59.202-59.202z"/><path d="M223.501 123.001h8a7.5 7.5 0 0 0 0-15h-8a7.5 7.5 0 0 0 0 15zm56 0h8a7.5 7.5 0 0 0 0-15h-8a7.5 7.5 0 0 0 0 15zm-112 240a7.5 7.5 0 0 0 7.5-7.5v-32a7.5 7.5 0 0 0-15 0v32a7.5 7.5 0 0 0 7.5 7.5zm24 0a7.5 7.5 0 0 0 7.5-7.5v-32a7.5 7.5 0 0 0-15 0v32a7.5 7.5 0 0 0 7.5 7.5zm24 0a7.5 7.5 0 0 0 7.5-7.5v-32a7.5 7.5 0 0 0-15 0v32a7.5 7.5 0 0 0 7.5 7.5zm80 0a7.5 7.5 0 0 0 7.5-7.5v-32a7.5 7.5 0 0 0-15 0v32a7.5 7.5 0 0 0 7.5 7.5zm24 0a7.5 7.5 0 0 0 7.5-7.5v-32a7.5 7.5 0 0 0-15 0v32a7.5 7.5 0 0 0 7.5 7.5zm24 0a7.5 7.5 0 0 0 7.5-7.5v-32a7.5 7.5 0 0 0-15 0v32a7.5 7.5 0 0 0 7.5 7.5z"/></svg>