<svg xmlns="http://www.w3.org/2000/svg" viewBox="0 0 511 511"><path d="M503.5 431.999h-11.365l-56.99-113.981a31.462 31.462 0 0 0-20.535-16.472l-48.903-12.226c-2.392-5.479-7.857-9.321-14.207-9.321H327v-9h48.5a7.5 7.5 0 0 0 7.5-7.5v-28.468c0-10.13-6.458-19.09-16.069-22.294l-31.19-10.397-9.701-14.551c-3.99-24.379-20.283-45.119-43.77-54.608a7.488 7.488 0 0 0-3.093-.536c-1.352-7.228-7.689-12.646-15.221-12.646H263v-10.234c9.29-3.138 16-11.93 16-22.266 0-12.958-10.542-23.5-23.5-23.5S232 74.541 232 87.499c0 10.336 6.71 19.128 16 22.266v10.234h-.957c-5.9 0-11.061 3.331-13.677 8.245-.08-.021-.158-.048-.239-.066l-59.471-13.216a8.45 8.45 0 0 1-6.656-8.298v-4.574c13.759-3.374 24-15.806 24-30.591a7.5 7.5 0 0 0-7.5-7.5h-48a7.5 7.5 0 0 0-7.5 7.5c0 14.785 10.241 27.216 24 30.591v4.574c0 11.099 7.567 20.533 18.402 22.94l45.748 10.166a71.066 71.066 0 0 0-31.19 48.018l-10.326 15.489A39.372 39.372 0 0 0 168 225.188v38.311a7.5 7.5 0 0 0 7.5 7.5h8.5v9h-24.5c-6.351 0-11.815 3.842-14.207 9.321L96.39 301.546a31.46 31.46 0 0 0-20.534 16.472l-56.99 113.981H7.5a7.5 7.5 0 0 0 0 15h15.968l.026.001.021-.001H47.5a7.5 7.5 0 0 0 0-15H35.635l24.688-49.376 91.49-7.624H168v8.5c0 8.547 6.953 15.5 15.5 15.5H248v33h-16.5a7.5 7.5 0 0 0 0 15h48a7.5 7.5 0 0 0 0-15H263v-33h64.5c8.547 0 15.5-6.953 15.5-15.5v-8.5h16.188l91.49 7.624 24.688 49.376H463.5a7.5 7.5 0 0 0 0 15h23.985l.021.001.026-.001H503.5a7.5 7.5 0 0 0 0-15zm-248-353c4.687 0 8.5 3.813 8.5 8.5s-3.813 8.5-8.5 8.5-8.5-3.813-8.5-8.5 3.813-8.5 8.5-8.5zm-110.695 0h29.39c-2.735 5.338-8.295 9-14.695 9s-11.959-3.661-14.695-9zM367 305.105l41.628 10.407L367 351.193v-46.088zm-55-25.106h-33v-9h33v9zm-65 0v-9h17v9h-17zm-22.045-32.96A56.597 56.597 0 0 1 199.502 207h27.808l-2.355 40.039zm17.381-40.04h26.327l2.882 49h-32.092l2.883-49zM328 225.188v30.811h-28.691a71.63 71.63 0 0 0 26.048-41.309l.332.111A24.418 24.418 0 0 1 328 225.188zm-41.955 21.85l-2.355-40.039h27.809a56.604 56.604 0 0 1-25.454 40.039zM368 235.031v20.968h-25v-30.811a39.61 39.61 0 0 0-.306-4.719l19.493 6.497a8.492 8.492 0 0 1 5.813 8.065zm-56.5-43.032h-28.693l-2.547-43.3c17.151 8.339 28.77 24.566 31.24 43.3zm-64.457-57h16.914c.265 0 .484.207.5.471l3.325 56.529h-24.563l3.325-56.529a.5.5 0 0 1 .499-.471zM230.739 148.7l-2.547 43.299H199.5c2.47-18.731 14.09-34.96 31.239-43.299zM183 225.188c0-3.803.886-7.506 2.559-10.876a71.627 71.627 0 0 0 26.132 41.687H183v-30.811zm16 45.811h33v9h-33v-9zm-55 80.194l-41.628-35.681L144 305.105v46.088zm-54.728-26.467c.102-.203.226-.391.335-.589.297.377.633.732 1.012 1.057l42.375 36.322-64.818 5.402 21.096-42.192zM159 295.499a.5.5 0 0 1 .5-.5H248v65h-89v-64.5zm24.5 88.5a.5.5 0 0 1-.5-.5v-8.5h65v9h-64.5zm144.5-.5a.5.5 0 0 1-.5.5H263v-9h65v8.5zm24-23.5h-89v-65h88.5a.5.5 0 0 1 .5.5v64.5zm26.005 1.516l42.375-36.322c.378-.324.714-.68 1.012-1.057.11.198.234.386.336.589l21.095 42.191-64.818-5.401z"/></svg>