<svg xmlns="http://www.w3.org/2000/svg" viewBox="0 0 511 511"><path d="M494.744 360.256c-8.912-8.912-20.125-14.144-31.744-15.716V303.5a7.5 7.5 0 0 0-15 0v3.865l-17.23-8.615c.148-1.063.23-2.147.23-3.25v-36.086c2.668-2.249 6.769-6.213 13.475-13.424 6.787-7.298 10.525-16.833 10.525-26.847V119h8.5a7.5 7.5 0 0 0 7.5-7.5v-5.594l14.128 4.709a7.497 7.497 0 0 0 6.757-1.031A7.5 7.5 0 0 0 495 103.5v-32a7.498 7.498 0 0 0-9.872-7.115L471 69.094V63.5a7.5 7.5 0 0 0-7.5-7.5h-16C434.542 56 424 66.542 424 79.5v16c0 10.336 6.71 19.128 16 22.266v101.377c0 6.211-2.312 12.118-6.509 16.632-.892.959-1.71 1.828-2.491 2.653V231.5a7.5 7.5 0 0 0-7.5-7.5H399v-8.5a7.5 7.5 0 0 0-15 0v8.5h-9v-8.5a7.5 7.5 0 0 0-15 0v8.5h-9v-8.5a7.5 7.5 0 0 0-15 0v8.5h-81v-12.16c1.983.535 4.048.817 6.157.817a23.344 23.344 0 0 0 16.617-6.883l11.313-11.313a7.5 7.5 0 0 0 0-10.606l-33.941-33.941a7.5 7.5 0 0 0-10.606 0l-11.314 11.314c-9.162 9.162-9.162 24.071 0 33.234l6.774 6.774V224h-14.609l-95.232-51.279A39.625 39.625 0 0 0 111.432 168H111v-17h8.5a7.5 7.5 0 0 0 7.5-7.5v-16c0-12.958-10.542-23.5-23.5-23.5S80 114.542 80 127.5v16a7.5 7.5 0 0 0 7.5 7.5H96v17h-8.5a7.5 7.5 0 0 0-7.5 7.5v.367l-5.901-3.177a15.396 15.396 0 0 0-11.802-1.199 15.399 15.399 0 0 0-9.193 7.498l-30.344 56.35c-4.052 7.525-1.227 16.944 6.299 20.996L80 283.765v3.735c0 17.369 14.131 31.5 31.5 31.5h117.329l-58.438 15.938c-3.58-4.237-8.923-6.938-14.891-6.938s-11.311 2.701-14.891 6.938L63 313.771V303.5a7.5 7.5 0 0 0-15 0v41.04c-11.619 1.572-22.833 6.804-31.744 15.715C5.773 370.738 0 384.675 0 399.5s5.773 28.762 16.256 39.244C26.738 449.227 40.675 455 55.5 455s28.762-5.773 39.244-16.256C105.227 428.262 111 414.325 111 399.5s-5.773-28.762-16.256-39.244C85.833 351.344 74.619 346.112 63 344.54v-15.221l73.089 19.933c.89 9.933 9.25 17.747 19.411 17.747s18.521-7.814 19.411-17.747L248 329.319v15.201c-27.067 3.675-48 26.921-48 54.979 0 30.603 24.897 55.5 55.5 55.5s55.5-24.897 55.5-55.5c0-28.058-20.933-51.305-48-54.979V319h144.5c6.451 0 12.303-2.614 16.554-6.838L448 324.135v20.405c-11.619 1.572-22.833 6.804-31.744 15.716C405.773 370.738 400 384.675 400 399.5s5.773 28.762 16.255 39.244C426.738 449.227 440.675 455 455.5 455s28.762-5.773 39.244-16.256C505.227 428.262 511 414.325 511 399.5s-5.773-28.762-16.256-39.244zM480 81.906v11.188l-9-3v-5.188l9-3zM439 79.5c0-4.687 3.813-8.5 8.5-8.5h8.5v33h-8.5c-4.687 0-8.5-3.813-8.5-8.5v-16zm-195.167 92.333l6.011-6.01 23.334 23.334-6.01 6.01c-1.605 1.605-3.74 2.49-6.011 2.49s-4.405-.884-6.01-2.49l-11.313-11.313c-3.315-3.314-3.315-8.707-.001-12.021zM95 127.5c0-4.687 3.813-8.5 8.5-8.5s8.5 3.813 8.5 8.5v8.5H95v-8.5zM55.5 359.019c4.537 0 9.073.755 13.403 2.266L55.5 384.5l-13.403-23.215a40.69 40.69 0 0 1 13.403-2.266zm-28.638 11.843a40.764 40.764 0 0 1 2.249-2.069L42.51 392H15.698c1.483-7.961 5.314-15.288 11.164-21.138zM15.698 407H42.51l-13.4 23.209a40.91 40.91 0 0 1-2.248-2.071c-5.85-5.85-9.681-13.177-11.164-21.138zm26.39 30.731L55.5 414.5l13.412 23.231C64.659 439.219 60.14 440 55.5 440s-9.159-.781-13.412-2.269zm42.05-9.593a40.91 40.91 0 0 1-2.248 2.071L68.49 407h26.812c-1.483 7.961-5.314 15.288-11.164 21.138zM95.302 392H68.49l13.399-23.207c.767.66 1.522 1.342 2.249 2.069 5.85 5.85 9.681 13.177 11.164 21.138zM416 239v52.365l-17-8.5V239h17zm-304.568-56a24.59 24.59 0 0 1 11.616 2.928L193.752 224H95v-41h16.432zm-45.121 3.1a.477.477 0 0 1 .296-.242c.199-.06.335.014.381.039L80 192.903v42.641l-31.253-16.829L66.311 186.1zM36.17 243.127c-.045-.024-.182-.098-.242-.297s.014-.336.039-.381l5.669-10.528L80 252.58v14.148l-43.83-23.601zM155.5 352c-2.481 0-4.5-2.019-4.5-4.5s2.019-4.5 4.5-4.5 4.5 2.019 4.5 4.5-2.019 4.5-4.5 4.5zm122.826 14.067l-18.944 18.944-6.936-25.884a40.579 40.579 0 0 1 3.053-.127 40.264 40.264 0 0 1 22.827 7.067zm-40.371-3.066l6.938 25.893L219 381.956a40.77 40.77 0 0 1 18.955-18.955zm-22.828 33.446l25.884 6.936-18.944 18.944A40.268 40.268 0 0 1 215 399.5c0-1.028.051-2.044.127-3.053zm17.547 36.486l18.944-18.944 6.936 25.884a40.579 40.579 0 0 1-3.053.127 40.264 40.264 0 0 1-22.827-7.067zm40.371 3.066l-6.938-25.893L292 417.044a40.77 40.77 0 0 1-18.955 18.955zm22.828-33.446l-25.884-6.936 18.944-18.944A40.263 40.263 0 0 1 296 399.499c0 1.029-.051 2.045-.127 3.054zM407.5 304H263v-.5a7.5 7.5 0 0 0-15 0v.5H111.5c-9.098 0-16.5-7.402-16.5-16.5V239h241v48.5a7.5 7.5 0 0 0 15 0V239h9v48.5a7.5 7.5 0 0 0 15 0V239h9v48.5c0 .033.005.065.005.098.002.153.012.304.023.456.008.104.014.207.026.309.015.126.036.25.057.375.021.124.04.249.067.371.022.098.049.195.075.292.037.142.074.284.119.422.027.082.059.161.089.242.053.146.106.292.168.434.037.085.08.167.121.25.063.13.124.261.194.387.057.104.122.203.185.304.062.1.121.201.187.298.082.12.172.234.261.349.056.073.109.147.168.218.1.12.208.233.316.347.058.062.114.125.174.184.104.103.216.2.327.297.075.066.148.133.225.196.097.078.2.152.302.226.103.075.205.15.311.22.085.056.175.107.263.16.132.079.264.156.4.226.029.015.055.033.085.048l19.562 9.781c-.072.001-.14.01-.21.01zm87.802 88H468.49l13.399-23.207c.767.66 1.522 1.342 2.249 2.069 5.85 5.85 9.681 13.177 11.164 21.138zM455.5 359.019c4.537 0 9.073.755 13.403 2.266L455.5 384.5l-13.403-23.215a40.69 40.69 0 0 1 13.403-2.266zm-28.638 11.843a40.764 40.764 0 0 1 2.249-2.069L442.51 392h-26.812c1.483-7.961 5.314-15.288 11.164-21.138zM415.698 407h26.812l-13.4 23.209a40.91 40.91 0 0 1-2.248-2.071c-5.85-5.85-9.681-13.177-11.164-21.138zm26.39 30.731L455.5 414.5l13.412 23.231C464.659 439.219 460.14 440 455.5 440s-9.159-.781-13.412-2.269zm42.05-9.593a40.91 40.91 0 0 1-2.248 2.071L468.49 407h26.812c-1.483 7.961-5.314 15.288-11.164 21.138z"/></svg>