<svg xmlns="http://www.w3.org/2000/svg" viewBox="0 0 479 479"><path d="M408.852 70.148C363.616 24.913 303.473 0 239.5 0S115.384 24.913 70.148 70.148C24.913 115.384 0 175.527 0 239.5s24.913 124.117 70.148 169.352C115.383 454.088 175.527 479 239.5 479s124.117-24.912 169.352-70.148C454.087 363.617 479 303.473 479 239.5s-24.913-124.116-70.148-169.352zm-10.606 328.098C355.843 440.648 299.466 464 239.5 464c-12.284 0-24.414-.996-36.308-2.919a369.442 369.442 0 0 0 3.085-2.089c9.501-6.479 18.475-12.607 32.91-11.999 33.815 1.411 51.361-8.589 52.092-9.015 3.578-2.087 4.811-6.694 2.724-10.271-2.088-3.578-6.655-4.802-10.233-2.713-.146.083-14.949 8.229-43.958 7.013-19.388-.806-31.924 7.731-41.986 14.593-9.35 6.376-15.021 9.892-22.786 8.018-.098-.024-.196-.036-.294-.056-35.134-10.528-67.326-29.652-93.991-56.316C38.352 355.843 15 299.466 15 239.5c0-19.812 2.565-39.228 7.508-57.882 13.06 10.187 31.662 19.389 54.681 26.948a7.493 7.493 0 0 0 9.465-4.786 7.5 7.5 0 0 0-4.786-9.465c-24.459-8.032-43.192-17.761-54.61-28.29 10.958-31.739 29.055-60.829 53.496-85.271C123.157 38.352 179.534 15 239.5 15s116.343 23.352 158.746 65.754a228.41 228.41 0 0 1 16.903 18.911c-14.138 5.875-30.677 10.996-49.325 15.257a7.5 7.5 0 0 0 3.342 14.623c20.985-4.795 39.514-10.674 55.203-17.502C450.125 149.235 464 193.298 464 239.5c0 59.966-23.352 116.343-65.754 158.746z"/><path d="M406.625 271.091a7.5 7.5 0 0 0-9.466-4.785c-11.918 3.915-25.104 7.392-39.19 10.333C322.375 284.072 281.41 288 239.5 288c-38.723 0-76.965-3.385-110.594-9.79a7.5 7.5 0 0 0-2.807 14.735C160.638 299.523 199.851 303 239.5 303c42.923 0 84.949-4.038 121.535-11.677 14.63-3.055 28.359-6.677 40.805-10.766a7.501 7.501 0 0 0 4.785-9.466zm-32.941 33.952C334.532 314.828 288.132 320 239.5 320a7.5 7.5 0 0 0 0 15c49.839 0 97.497-5.327 137.82-15.404a7.5 7.5 0 1 0-3.636-14.553zm-175.417-58.145c4.65.775 8.863 1.113 12.722 1.113 14.595 0 24.085-4.844 32.669-9.225 8.39-4.283 15.63-7.98 27.721-7.787 4.146.048 7.553-3.236 7.62-7.378s-3.236-7.553-7.378-7.62c-15.803-.259-25.894 4.888-34.783 9.425-10.059 5.135-18.746 9.568-36.105 6.676a7.5 7.5 0 1 0-2.466 14.796zM303.494 231c.136 0 .273-.003.411-.011 3.656-.198 22.26-1.65 29.493-10.855a7.5 7.5 0 0 0-11.795-9.267c-1.93 2.457-11.367 4.742-18.516 5.145a7.5 7.5 0 0 0 .407 14.988zM137.66 126.735c3.877-6.092 5.697-13.073 5.124-19.659-.628-7.225-4.166-13.391-9.705-16.916-5.54-3.526-12.623-4.118-19.434-1.626-6.208 2.271-11.761 6.876-15.637 12.967-3.877 6.092-5.697 13.073-5.124 19.658.628 7.226 4.165 13.391 9.704 16.916 3.279 2.086 7.099 3.146 11.084 3.146 2.746 0 5.57-.503 8.349-1.519 6.209-2.27 11.763-6.876 15.639-12.967zm-27.018-1.314c-2.146-1.366-2.684-4.07-2.814-5.56-.284-3.271.749-7.028 2.835-10.306 2.086-3.278 5.051-5.805 8.135-6.933.784-.287 1.963-.618 3.226-.618 1.001 0 2.054.208 3.003.813 2.146 1.366 2.684 4.07 2.813 5.56.285 3.271-.749 7.027-2.834 10.305-2.086 3.278-5.051 5.805-8.135 6.933-1.407.513-4.084 1.171-6.229-.194zM87.891 267.237c-1.305-6.037-4.407-11.387-8.735-15.065-4.828-4.104-10.836-5.758-16.482-4.536-5.647 1.22-10.436 5.208-13.137 10.938-2.422 5.137-3.038 11.292-1.732 17.328 1.305 6.037 4.407 11.387 8.735 15.066 3.786 3.218 8.297 4.929 12.792 4.929 1.236 0 2.472-.129 3.69-.393 5.647-1.22 10.436-5.208 13.138-10.938 2.421-5.138 3.036-11.292 1.731-17.329zm-15.3 10.932c-.408.866-1.307 2.364-2.739 2.674-1.429.309-2.87-.684-3.599-1.304-1.804-1.533-3.184-4.013-3.788-6.806-.604-2.792-.371-5.621.639-7.762.408-.866 1.307-2.364 2.739-2.674a2.63 2.63 0 0 1 .555-.058c1.237 0 2.409.823 3.043 1.362 1.804 1.533 3.184 4.014 3.788 6.806.604 2.791.372 5.621-.638 7.762zM367.5 199.005c1.97 0 3.91-.81 5.3-2.2 1.4-1.4 2.2-3.33 2.2-5.3 0-1.98-.8-3.91-2.2-5.31a7.57 7.57 0 0 0-5.3-2.2c-1.97 0-3.91.81-5.3 2.2a7.55 7.55 0 0 0-2.2 5.31c0 1.97.8 3.9 2.2 5.3a7.57 7.57 0 0 0 5.3 2.2zm32 31.99c1.98 0 3.91-.8 5.3-2.19a7.55 7.55 0 0 0 2.2-5.31c0-1.97-.8-3.9-2.2-5.3a7.552 7.552 0 0 0-5.3-2.2c-1.97 0-3.91.81-5.3 2.2-1.4 1.4-2.2 3.33-2.2 5.3 0 1.98.8 3.91 2.2 5.31a7.56 7.56 0 0 0 5.3 2.19zm-96 129.01c-1.97 0-3.91.8-5.3 2.19a7.55 7.55 0 0 0-2.2 5.31c0 1.97.8 3.9 2.2 5.3a7.56 7.56 0 0 0 5.3 2.19c1.97 0 3.91-.8 5.3-2.19 1.4-1.4 2.2-3.33 2.2-5.3 0-1.98-.8-3.91-2.2-5.31a7.543 7.543 0 0 0-5.3-2.19zm-128-273c1.97 0 3.91-.81 5.3-2.2 1.4-1.4 2.2-3.33 2.2-5.3 0-1.98-.8-3.91-2.2-5.31a7.543 7.543 0 0 0-5.3-2.19c-1.97 0-3.91.8-5.3 2.19a7.55 7.55 0 0 0-2.2 5.31c0 1.97.8 3.9 2.2 5.3a7.57 7.57 0 0 0 5.3 2.2zm24 233c-1.97 0-3.91.8-5.3 2.19-1.4 1.4-2.2 3.33-2.2 5.3 0 1.98.8 3.91 2.2 5.31a7.56 7.56 0 0 0 5.3 2.19c1.97 0 3.91-.8 5.3-2.19a7.55 7.55 0 0 0 2.2-5.31c0-1.97-.8-3.9-2.2-5.3a7.56 7.56 0 0 0-5.3-2.19z"/></svg>