<svg xmlns="http://www.w3.org/2000/svg" viewBox="0 0 511 511"><path d="M494.492 404.794a7.458 7.458 0 0 0-1.688-2.597l-183.98-183.98a7.5 7.5 0 0 0-10.606 0 7.5 7.5 0 0 0 0 10.606L446.89 377.495a112.172 112.172 0 0 0-5.961-1.517c-23.481-5.224-42.918-1.594-54.731 10.219-11.813 11.813-15.442 31.25-10.219 54.731.443 1.99.96 3.978 1.517 5.96L228.823 298.217a7.5 7.5 0 0 0-10.606 0 7.5 7.5 0 0 0 0 10.606l183.98 183.98a7.472 7.472 0 0 0 2.597 1.688C416.504 505.159 431.552 511 447.5 511c16.961 0 32.908-6.605 44.901-18.599C504.395 480.407 511 464.462 511 447.5c0-15.947-5.842-30.995-16.508-42.706zm-12.697 77.001C472.634 490.955 460.455 496 447.5 496c-12.955 0-25.134-5.045-34.295-14.206-9.976-9.976-18.841-27.295-22.585-44.124-4.011-18.031-1.758-32.926 6.183-40.867 5.36-5.36 13.887-8.128 24.411-8.128 5.066 0 10.597.642 16.456 1.945 16.829 3.744 34.148 12.609 44.125 22.585C490.955 422.366 496 434.546 496 447.5s-5.045 25.134-14.205 34.295zM58.2 68.806c1.464 1.464 3.384 2.197 5.303 2.197s3.839-.732 5.303-2.197a7.5 7.5 0 0 0 0-10.606L12.803 2.197a7.5 7.5 0 0 0-10.606 0 7.5 7.5 0 0 0 0 10.606L58.2 68.806z"/><path d="M362.197 372.803c1.464 1.464 3.384 2.197 5.303 2.197s3.839-.732 5.303-2.197a7.5 7.5 0 0 0 0-10.606L92.787 82.181a7.5 7.5 0 0 0-10.606 0 7.5 7.5 0 0 0 0 10.606l280.016 280.016zM194.212 164.818c1.464 1.464 3.384 2.197 5.303 2.197s3.839-.732 5.303-2.197a7.5 7.5 0 0 0 0-10.606l-16.015-16.015a7.5 7.5 0 0 0-10.606 0 7.5 7.5 0 0 0 0 10.606l16.015 16.015zm23.973 13.368a7.5 7.5 0 0 0 0 10.606l176.012 176.011c1.464 1.464 3.384 2.197 5.303 2.197s3.839-.732 5.303-2.197a7.5 7.5 0 0 0 0-10.606L228.792 178.186a7.5 7.5 0 0 0-10.607 0zm48.012 8.011a7.5 7.5 0 0 0 0 10.606l8.008 8.008c1.464 1.464 3.384 2.197 5.303 2.197s3.839-.732 5.303-2.197a7.5 7.5 0 0 0 0-10.606l-8.008-8.008a7.5 7.5 0 0 0-10.606 0zm-80 80a7.5 7.5 0 0 0 0 10.606l8.008 8.008c1.464 1.464 3.384 2.197 5.303 2.197s3.839-.732 5.303-2.197a7.5 7.5 0 0 0 0-10.606l-8.008-8.008a7.5 7.5 0 0 0-10.606 0zM90.205 140.812c1.464 1.465 3.384 2.197 5.303 2.197s3.839-.732 5.303-2.197a7.5 7.5 0 0 0 0-10.606l-16.008-16.009a7.498 7.498 0 0 0-10.606 0 7.5 7.5 0 0 0 0 10.606l16.008 16.009zM359.5 407a7.474 7.474 0 0 0 5.303-2.197 7.5 7.5 0 0 0 0-10.606l-240-240a7.5 7.5 0 0 0-10.606 0 7.5 7.5 0 0 0 0 10.606l240 240A7.474 7.474 0 0 0 359.5 407zM246.21 48.817c1.464 1.465 3.384 2.197 5.303 2.197s3.839-.732 5.303-2.197a7.5 7.5 0 0 0 0-10.606L220.803 2.197a7.498 7.498 0 0 0-10.606 0 7.5 7.5 0 0 0 0 10.606l36.013 36.014zm167.987 167.986c1.464 1.464 3.384 2.197 5.303 2.197s3.839-.732 5.303-2.197a7.5 7.5 0 0 0 0-10.606l-144-144a7.5 7.5 0 0 0-10.606 0 7.5 7.5 0 0 0 0 10.606l144 144zM310.192 72.799a7.474 7.474 0 0 0 5.303 2.197 7.474 7.474 0 0 0 5.303-2.197 7.5 7.5 0 0 0 0-10.606l-39.995-39.996a7.5 7.5 0 0 0-10.606 0 7.5 7.5 0 0 0 0 10.606l39.995 39.996z"/><path d="M459.247 221.854c-7.479-.19-14.448 1.74-19.504 6.796-5.568 5.569-8.154 14.299-7.521 24.966L304.791 126.185a7.5 7.5 0 0 0-10.606 0 7.5 7.5 0 0 0 0 10.606l148.012 148.012a7.49 7.49 0 0 0 1.488 1.145 32.17 32.17 0 0 0 2.512 2.855c6.443 6.443 15.666 10.138 25.303 10.138s18.86-3.695 25.303-10.138c13.479-13.479 13.479-37.127 0-50.606L344.81 86.204a7.5 7.5 0 0 0-10.606 0 7.5 7.5 0 0 0 0 10.606l125.043 125.044zm26.95 56.343c-3.651 3.651-9.008 5.745-14.697 5.745s-11.046-2.094-14.697-5.745c-4.046-4.046-7.692-12.363-9.072-20.696-1.37-8.269-.366-15.259 2.619-18.245 1.694-1.694 4.443-2.438 7.733-2.438 8.792 0 21.442 5.313 28.114 11.984 7.691 7.693 7.691 21.703 0 29.395zm-241.394-212a7.5 7.5 0 0 0-10.606 0 7.5 7.5 0 0 0 0 10.606l35.999 35.999a7.474 7.474 0 0 0 5.303 2.197 7.474 7.474 0 0 0 5.303-2.197 7.5 7.5 0 0 0 0-10.606l-35.999-35.999zM43.513 259.014a7.474 7.474 0 0 0 5.303-2.197 7.5 7.5 0 0 0 0-10.606l-36.013-36.014a7.498 7.498 0 0 0-10.606 0 7.5 7.5 0 0 0 0 10.606l36.013 36.014a7.474 7.474 0 0 0 5.303 2.197zm18.684 11.183a7.5 7.5 0 0 0 0 10.606l144 144c1.464 1.464 3.384 2.197 5.303 2.197s3.839-.732 5.303-2.197a7.5 7.5 0 0 0 0-10.606l-144-144a7.5 7.5 0 0 0-10.606 0zm10.606-40a7.5 7.5 0 0 0-10.606 0 7.5 7.5 0 0 0 0 10.606l39.995 39.996a7.474 7.474 0 0 0 5.303 2.197 7.474 7.474 0 0 0 5.303-2.197 7.5 7.5 0 0 0 0-10.606l-39.995-39.996z"/><path d="M136.81 294.204a7.5 7.5 0 0 0-10.606 0 7.5 7.5 0 0 0 0 10.606l125.044 125.043c-7.479-.19-14.448 1.74-19.504 6.796-5.987 5.987-8.018 15.307-7.449 25.038L96.791 334.185a7.5 7.5 0 0 0-10.606 0 7.5 7.5 0 0 0 0 10.606l148.012 148.013c.461.461.972.841 1.51 1.157a31.364 31.364 0 0 0 2.49 2.842c6.443 6.443 15.666 10.139 25.303 10.139s18.86-3.695 25.303-10.139c13.479-13.479 13.479-37.126 0-50.606L136.81 294.204zm141.387 191.992c-3.651 3.651-9.008 5.745-14.697 5.745s-11.046-2.094-14.697-5.745c-4.046-4.046-7.692-12.363-9.072-20.695-1.37-8.269-.366-15.259 2.619-18.245 1.694-1.694 4.443-2.438 7.733-2.438 8.792 0 21.442 5.313 28.114 11.984 7.691 7.693 7.691 21.703 0 29.394zM36.803 274.197c-2.928-2.93-7.677-2.929-10.606 0s-2.929 7.678 0 10.606l35.999 35.999a7.474 7.474 0 0 0 5.303 2.197 7.474 7.474 0 0 0 5.303-2.197 7.5 7.5 0 0 0 0-10.606l-35.999-35.999z"/></svg>