<svg xmlns="http://www.w3.org/2000/svg" viewBox="0 0 511 511"><path d="M415.053 306.553l93.75-93.75a7.5 7.5 0 0 0 0-10.606l-15.58-15.58c4.346-8.786 2.886-19.739-4.42-27.045l-11.423-11.423a7.498 7.498 0 0 0-11.183-9.952l-4.688 4.688-6.009 6.009-9.394-9.394 6.697-6.697a7.5 7.5 0 0 0 0-10.606 7.5 7.5 0 0 0-10.606 0l-6.697 6.697-5.394-5.394 6.697-6.697a7.5 7.5 0 0 0 0-10.606 7.5 7.5 0 0 0-10.606 0l-6.697 6.697-5.394-5.394 6.697-6.697a7.5 7.5 0 0 0 0-10.606 7.5 7.5 0 0 0-10.606 0l-6.697 6.697-5.394-5.394 6.697-6.697a7.5 7.5 0 0 0 0-10.606 7.5 7.5 0 0 0-10.606 0l-6.697 6.697-5.394-5.394 6.697-6.697a7.5 7.5 0 0 0 0-10.606 7.5 7.5 0 0 0-10.606 0l-6.697 6.697-5.394-5.394 6.697-6.697a7.5 7.5 0 0 0 0-10.606 7.5 7.5 0 0 0-10.606 0l-24 24a7.5 7.5 0 0 0 0 10.606C339.661 78.268 341.581 79 343.5 79s3.839-.732 5.303-2.197l6.697-6.697 5.394 5.394-6.697 6.697a7.5 7.5 0 0 0 0 10.606C355.661 94.268 357.581 95 359.5 95s3.839-.732 5.303-2.197l6.697-6.697 5.394 5.394-6.697 6.697a7.5 7.5 0 0 0 0 10.606c1.464 1.465 3.384 2.197 5.303 2.197s3.839-.732 5.303-2.197l6.697-6.697 5.394 5.394-6.697 6.697a7.5 7.5 0 0 0 0 10.606c1.464 1.465 3.384 2.197 5.303 2.197s3.839-.732 5.303-2.197l6.697-6.697 5.394 5.394-6.697 6.697a7.5 7.5 0 0 0 0 10.606c1.464 1.465 3.384 2.197 5.303 2.197s3.839-.732 5.303-2.197l6.697-6.697 5.394 5.394-6.697 6.697a7.5 7.5 0 0 0 0 10.606c1.464 1.465 3.384 2.197 5.303 2.197s3.839-.732 5.303-2.197l6.697-6.697 9.394 9.394-6.009 6.009-4.688 4.688a7.5 7.5 0 0 0 0 10.606A7.474 7.474 0 0 0 439.5 183a7.47 7.47 0 0 0 4.649-1.62l11.423 11.423a23.345 23.345 0 0 0 16.616 6.883c3.686 0 7.24-.849 10.447-2.444l10.259 10.259-69.921 69.921 7.695-27.703c3.058-9.08 9.065-18.719 16.832-18.719h3.224a7.5 7.5 0 0 0 3.871-13.924C402.083 185.429 331.376 168 255.5 168c-42.56 0-83.492 5.486-120.5 15.886V159h8.5a7.5 7.5 0 0 0 7.379-8.841l-16-88a7.5 7.5 0 0 0-14.758-.001l-16 88a7.499 7.499 0 0 0 7.379 8.841h8.5v29.453c-23.169 7.579-44.58 17.163-63.595 28.624A7.501 7.501 0 0 0 60.276 231H63.5c4.916 0 9.127 3.863 12.332 9H56.368c-8.156 0-15.605 4.129-19.928 11.045l-7.257 11.611c-4.624.959-8.606 3.978-10.727 8.221L.792 306.205a7.498 7.498 0 0 0 1.405 8.657L32 344.666V367.5c0 .737.111 1.448.309 2.121C17.647 379.621 8 396.453 8 415.5 8 446.103 32.897 471 63.5 471s55.5-24.897 55.5-55.5c0-12.131-3.923-23.357-10.552-32.5h9.884c4.362 7.684 11.817 13.221 20.447 15.193a55.247 55.247 0 0 0-2.778 17.307c0 30.603 24.897 55.5 55.5 55.5s55.5-24.897 55.5-55.5c0-5.743-.877-11.285-2.504-16.5h22.008a55.314 55.314 0 0 0-2.504 16.5c0 30.603 24.897 55.5 55.5 55.5s55.5-24.897 55.5-55.5c0-6.043-.984-11.857-2.778-17.307 8.629-1.972 16.085-7.51 20.446-15.193h9.884c-6.63 9.143-10.553 20.369-10.553 32.5 0 30.603 24.897 55.5 55.5 55.5s55.5-24.897 55.5-55.5-24.897-55.5-55.5-55.5a55.152 55.152 0 0 0-29.414 8.468A7.469 7.469 0 0 0 415.5 368h-17.688l17.011-61.238c.076-.07.156-.134.23-.209zm57.135-121.867a8.442 8.442 0 0 1-6.009-2.489l-11.384-11.384 5.805-5.805c.071-.066.146-.125.215-.194s.128-.144.194-.215l5.805-5.805 11.384 11.384c3.313 3.313 3.313 8.705 0 12.018a8.445 8.445 0 0 1-6.01 2.49zM127.5 105.426L134.513 144h-14.026l7.013-38.574zM391.133 336H119.868l-22.5-81H224.91c2.784 11.354 11.737 20.306 23.091 23.091v9.409a7.5 7.5 0 0 0 15 0v-9.409c11.354-2.784 20.306-11.737 23.091-23.091h127.542l-22.501 81zM255.5 264c-6.396 0-11.942-3.666-14.679-9h29.357c-2.736 5.334-8.282 9-14.678 9zm7.5-48v-32.934a463.18 463.18 0 0 1 41 2.442V216h-41zm-56 0v-30.492a463.942 463.942 0 0 1 41-2.442V216h-41zm112-28.662c37.044 5.171 71.512 14.879 101.455 28.662H319v-28.662zm-127 0V216H90.545c29.943-13.783 64.411-23.491 101.455-28.662zM423.123 231c-1.782 2.683-3.392 5.69-4.799 9H92.677c-1.407-3.31-3.018-6.317-4.799-9h335.245zM31.872 277.586c.037-.074.114-.229.367-.27a.456.456 0 0 1 .434.14l40.872 40.872a.452.452 0 0 1 .14.434.453.453 0 0 1-.27.367l-30.492 15.246-26.296-26.296 15.245-30.493zM47 349.106l33.122-16.561a15.538 15.538 0 0 0 8.368-11.381 15.535 15.535 0 0 0-4.34-13.443l-40.274-40.273 5.283-8.452a8.45 8.45 0 0 1 7.208-3.995h25.432l31.389 113H92.177a55.16 55.16 0 0 0-28.677-8 55.31 55.31 0 0 0-16.5 2.504v-13.399zm42.88 35.703c6.83 5.879 11.681 13.989 13.412 23.192H76.49l13.39-23.192zM63.5 400.5l-13.401-23.211C54.296 375.812 58.804 375 63.5 375s9.204.812 13.401 2.289L63.5 400.5zm-26.38-15.691L50.51 408H23.708c1.731-9.203 6.582-17.312 13.412-23.191zM23.708 423H50.51l-13.39 23.191c-6.83-5.879-11.681-13.988-13.412-23.191zm26.391 30.711L63.5 430.5l13.401 23.211C72.704 455.188 68.196 456 63.5 456s-9.204-.812-13.401-2.289zm39.781-7.519L76.49 423h26.802c-1.73 9.203-6.582 17.312-13.412 23.192zM151 415.5a40.263 40.263 0 0 1 7.067-22.826l18.944 18.944-25.884 6.936A40.605 40.605 0 0 1 151 415.5zm76.999-17.544l-25.893 6.938 6.938-25.893a40.762 40.762 0 0 1 18.955 18.955zm-40.381 3.055l-18.944-18.944A40.263 40.263 0 0 1 191.5 375c1.028 0 2.044.051 3.053.127l-6.935 25.884zm-32.617 32.034l25.892-6.938-6.938 25.892a40.767 40.767 0 0 1-18.954-18.954zm33.446 22.828l6.936-25.884 18.944 18.944A40.266 40.266 0 0 1 191.5 456c-1.028 0-2.044-.051-3.053-.127zm36.486-17.547l-18.944-18.944 25.884-6.936c.076 1.009.127 2.025.127 3.053a40.261 40.261 0 0 1-7.067 22.827zM359.293 408H332.49l13.39-23.192c6.83 5.88 11.682 13.989 13.413 23.192zm-39.793-7.5l-13.401-23.211c4.198-1.476 8.705-2.289 13.401-2.289s9.204.812 13.401 2.289L319.5 400.5zm-26.38-15.691L306.51 408h-26.802c1.731-9.203 6.582-17.312 13.412-23.191zM279.708 423h26.802l-13.39 23.191c-6.83-5.879-11.681-13.988-13.412-23.191zm26.391 30.711L319.5 430.5l13.401 23.211c-4.198 1.477-8.705 2.289-13.401 2.289s-9.203-.812-13.401-2.289zm39.781-7.519L332.49 423h26.802c-1.73 9.203-6.582 17.312-13.412 23.192zM365.258 384c-.032 0-.063.004-.095.005C355.138 369.516 338.413 360 319.5 360c-19.047 0-35.88 9.647-45.879 24.309A7.502 7.502 0 0 0 271.5 384h-31.995a7.49 7.49 0 0 0-2.125.31C227.381 369.648 210.548 360 191.5 360c-18.913 0-35.638 9.516-45.663 24.005-.032 0-.063-.005-.096-.005-7.384 0-13.921-4.969-15.897-12.084L124.034 351h262.932l-5.81 20.916c-1.977 7.115-8.514 12.084-15.898 12.084zM407 415.5a40.263 40.263 0 0 1 7.067-22.826l18.944 18.944-25.884 6.936A40.605 40.605 0 0 1 407 415.5zm4.001 17.545l25.892-6.938-6.938 25.892a40.767 40.767 0 0 1-18.954-18.954zm33.446 22.828l6.936-25.884 18.944 18.944A40.266 40.266 0 0 1 447.5 456c-1.028 0-2.044-.051-3.053-.127zm36.486-17.547l-18.944-18.944 25.884-6.936c.076 1.009.127 2.025.127 3.053a40.261 40.261 0 0 1-7.067 22.827zm3.066-40.37l-25.893 6.938 6.938-25.893a40.762 40.762 0 0 1 18.955 18.955zm-33.446-22.829l-6.936 25.884-18.944-18.944A40.263 40.263 0 0 1 447.499 375c1.029 0 2.045.051 3.054.127z"/></svg>