<svg xmlns="http://www.w3.org/2000/svg" viewBox="0 0 479 479"><path d="M408.852 70.148C363.616 24.913 303.473 0 239.5 0S115.383 24.913 70.148 70.148C24.912 115.383 0 175.527 0 239.5s24.912 124.117 70.148 169.352C115.383 454.087 175.527 479 239.5 479s124.116-24.913 169.352-70.148C454.087 363.616 479 303.473 479 239.5s-24.913-124.116-70.148-169.352zm-10.606 328.098C355.843 440.648 299.466 464 239.5 464c-59.966 0-116.343-23.352-158.746-65.754C38.352 355.843 15 299.466 15 239.5S38.352 123.157 80.754 80.754C123.157 38.352 179.534 15 239.5 15c59.966 0 116.343 23.352 158.746 65.754C440.648 123.157 464 179.534 464 239.5s-23.352 116.343-65.754 158.746z"/><path d="M223.5 159c21.78 0 39.5-17.72 39.5-39.5S245.28 80 223.5 80 184 97.72 184 119.5s17.72 39.5 39.5 39.5zm0-64c13.509 0 24.5 10.991 24.5 24.5S237.009 144 223.5 144 199 133.009 199 119.5 209.991 95 223.5 95zm88 65a7.5 7.5 0 0 0 0 15c9.098 0 16.5 7.402 16.5 16.5s-7.402 16.5-16.5 16.5-16.5-7.402-16.5-16.5c0-1.89.315-3.74.936-5.498a7.5 7.5 0 0 0-4.574-9.569 7.497 7.497 0 0 0-9.569 4.574 31.424 31.424 0 0 0-1.792 10.493c0 17.369 14.131 31.5 31.5 31.5s31.5-14.131 31.5-31.5S328.869 160 311.5 160zM279 299.5c0-4.775-.655-9.507-1.946-14.063a7.5 7.5 0 1 0-14.432 4.09 36.57 36.57 0 0 1 1.377 9.973c0 20.126-16.374 36.5-36.5 36.5S191 319.626 191 299.5s16.374-36.5 36.5-36.5c7.57 0 14.828 2.294 20.99 6.635a7.5 7.5 0 0 0 8.638-12.264c-8.704-6.13-18.949-9.371-29.628-9.371-28.397 0-51.5 23.103-51.5 51.5s23.103 51.5 51.5 51.5 51.5-23.103 51.5-51.5zm14.596 89.481a7.5 7.5 0 0 0-5.874 8.832c.989 4.917-.708 10.198-4.779 14.871-4.554 5.228-11.366 8.973-19.181 10.544-7.815 1.571-15.544.751-21.766-2.31-5.56-2.736-9.167-6.95-10.156-11.868a7.496 7.496 0 0 0-8.832-5.874 7.5 7.5 0 0 0-5.874 8.832c1.928 9.586 8.405 17.531 18.24 22.369 6.218 3.059 13.334 4.625 20.713 4.625a53.99 53.99 0 0 0 10.631-1.069c11.04-2.22 20.818-7.688 27.533-15.397 7.199-8.264 10.102-18.095 8.174-27.681a7.495 7.495 0 0 0-8.829-5.874zm21.301-313.226c5.112-5.368 16.074-3.577 23.936 3.912s10.184 18.35 5.07 23.718a7.5 7.5 0 0 0 10.862 10.346c10.906-11.45 8.4-31.603-5.586-44.925s-34.236-14.845-45.143-3.396a7.5 7.5 0 0 0 10.861 10.345zM392.043 200h-.066a7.5 7.5 0 0 0-.063 14.999c7.413.064 13.596 9.291 13.502 20.147-.049 5.625-1.79 11.039-4.777 14.853-1.483 1.894-4.617 5.057-8.994 5.057h-.146a7.5 7.5 0 0 0-.064 15l.205.001c7.848 0 15.422-3.931 20.809-10.809 5.059-6.46 7.888-14.973 7.966-23.971.167-19.314-12.56-35.139-28.372-35.277zM140.849 94.381c-9.402-9.566-26.449-8.113-38 3.24-11.551 11.352-13.3 28.371-3.899 37.938a7.478 7.478 0 0 0 5.35 2.243 7.5 7.5 0 0 0 5.349-12.756c-3.482-3.543-1.747-11.359 3.714-16.726 5.461-5.367 13.306-6.966 16.788-3.423a7.5 7.5 0 1 0 10.698-10.516zM99.5 184C79.925 184 64 201.72 64 223.5S79.925 263 99.5 263s35.5-17.72 35.5-39.5S119.075 184 99.5 184zm0 64C88.196 248 79 237.009 79 223.5S88.196 199 99.5 199s20.5 10.991 20.5 24.5-9.196 24.5-20.5 24.5zm-28.217 71.283c-12.282 12.282-9.744 34.804 5.657 50.205 8.835 8.835 20.011 13.436 30.255 13.436 7.613 0 14.713-2.543 19.949-7.779 12.282-12.282 9.744-34.803-5.657-50.204-15.4-15.402-37.922-17.94-50.204-5.658zm45.255 45.255c-6.325 6.324-19.602 3.733-28.992-5.657-9.391-9.391-11.981-22.667-5.657-28.992 2.347-2.346 5.65-3.466 9.357-3.466 6.284 0 13.728 3.217 19.635 9.123 9.391 9.392 11.981 22.668 5.657 28.992zm237.086-42.197c-5.49 5.49-9.063 12.357-10.06 19.336-1.095 7.664 1.088 14.871 5.988 19.771 4.07 4.07 9.73 6.265 15.923 6.265 1.263 0 2.55-.091 3.848-.277 6.979-.997 13.846-4.569 19.336-10.06 12.106-12.106 13.895-29.284 4.072-39.107s-27.001-8.035-39.107 4.072zm24.428 24.429c-3.164 3.164-7.119 5.284-10.851 5.817-1.732.247-4.948.35-7.043-1.746-2.095-2.095-1.993-5.312-1.746-7.042.533-3.732 2.653-7.688 5.817-10.851 5.851-5.85 14.212-7.751 17.894-4.071 3.27 3.268 2.401 11.42-4.071 17.893zM182.996 183.5c0-1.97-.8-3.91-2.19-5.3a7.55 7.55 0 0 0-5.31-2.2c-1.97 0-3.9.8-5.3 2.2a7.56 7.56 0 0 0-2.19 5.3c0 1.97.8 3.91 2.19 5.3 1.4 1.4 3.33 2.2 5.3 2.2 1.98 0 3.91-.8 5.31-2.2a7.56 7.56 0 0 0 2.19-5.3zm-39.5 96.5c-1.97 0-3.9.8-5.3 2.2a7.552 7.552 0 0 0-2.2 5.3c0 1.97.81 3.91 2.2 5.3 1.4 1.4 3.33 2.2 5.3 2.2 1.98 0 3.91-.8 5.31-2.2a7.56 7.56 0 0 0 2.19-5.3c0-1.98-.8-3.91-2.19-5.3a7.55 7.55 0 0 0-5.31-2.2zm205.31 4.8a7.56 7.56 0 0 0 2.19-5.3c0-1.97-.8-3.91-2.19-5.3-1.4-1.4-3.33-2.2-5.3-2.2-1.98 0-3.91.8-5.31 2.2a7.57 7.57 0 0 0-2.2 5.3c0 1.97.81 3.91 2.2 5.3a7.55 7.55 0 0 0 5.31 2.2c1.97 0 3.9-.8 5.3-2.2zM383.505 175c1.97 0 3.9-.8 5.3-2.2a7.543 7.543 0 0 0 2.19-5.3c0-1.97-.8-3.91-2.19-5.3-1.4-1.4-3.33-2.2-5.3-2.2-1.98 0-3.91.8-5.31 2.2a7.56 7.56 0 0 0-2.19 5.3c0 1.98.8 3.91 2.19 5.3a7.553 7.553 0 0 0 5.31 2.2zM215.496 55c1.98 0 3.91-.8 5.31-2.2a7.56 7.56 0 0 0 2.19-5.3c0-1.97-.8-3.91-2.19-5.3a7.55 7.55 0 0 0-5.31-2.2c-1.97 0-3.9.8-5.3 2.2a7.56 7.56 0 0 0-2.19 5.3c0 1.97.8 3.91 2.19 5.3 1.4 1.4 3.329 2.2 5.3 2.2zm-47.991 329c-1.98 0-3.91.8-5.31 2.2a7.57 7.57 0 0 0-2.2 5.3c0 1.97.81 3.91 2.2 5.3a7.55 7.55 0 0 0 5.31 2.2c1.97 0 3.9-.8 5.3-2.2a7.57 7.57 0 0 0 2.2-5.3c0-1.97-.81-3.91-2.2-5.3a7.542 7.542 0 0 0-5.3-2.2z"/></svg>