<svg xmlns="http://www.w3.org/2000/svg" viewBox="0 0 511 511"><path d="M503.5 404h-.5v-9h.5a7.5 7.5 0 0 0 0-15h-.5v-24.5a7.5 7.5 0 0 0-7.5-7.5h-71.546l22.993-191.606a7.62 7.62 0 0 0 .053-.894v-56a7.5 7.5 0 0 0-7.5-7.5h-368a7.5 7.5 0 0 0-7.5 7.5v56c0 .299.018.597.053.894L87.046 348H15.5a7.5 7.5 0 0 0-7.5 7.5V380h-.5a7.5 7.5 0 0 0 0 15H8v9h-.5a7.5 7.5 0 0 0 0 15h496a7.5 7.5 0 0 0 0-15zm-15.5 0h-65v-9h65v9zm0-24h-65v-17h65v17zm-56-224.949l-9 75V107h9v48.051zM408 404h-9v-32.5a7.5 7.5 0 0 0-7.5-7.5H335V107h73v297zm-144 0h-17v-57h17v57zm7.5-72h-32a7.5 7.5 0 0 0-7.5 7.5V404h-9V283h65v121h-9v-64.5a7.5 7.5 0 0 0-7.5-7.5zM103 107h73v257h-56.5a7.5 7.5 0 0 0-7.5 7.5V404h-9V107zm217 209h-17V147.5a7.5 7.5 0 0 0-7.5-7.5h-80a7.5 7.5 0 0 0-7.5 7.5V316h-17V107h129v209zm-32-48h-65V155h65v113zM127 379h49v25h-49v-25zm64-48h17v73h-17v-73zm112 0h17v73h-17v-73zm32 48h49v25h-49v-25zM79 107h9v123.051l-9-75V107zM23 363h65v17H23v-17zm0 32h65v9H23v-9z"/><path d="M119.5 195h40a7.5 7.5 0 0 0 7.5-7.5v-64a7.5 7.5 0 0 0-7.5-7.5h-40a7.5 7.5 0 0 0-7.5 7.5v64a7.5 7.5 0 0 0 7.5 7.5zm7.5-64h25v49h-25v-49zm244.5 56c15.164 0 27.5-12.336 27.5-27.5 0-4.862-1.273-9.43-3.496-13.397l1.3-1.3a7.5 7.5 0 0 0 0-10.606 7.5 7.5 0 0 0-10.606 0l-1.3 1.3A27.319 27.319 0 0 0 371.5 132c-15.164 0-27.5 12.336-27.5 27.5s12.336 27.5 27.5 27.5zm0-40c.597 0 1.18.057 1.756.138l-3.059 3.059A7.5 7.5 0 0 0 375.5 163a7.474 7.474 0 0 0 5.303-2.197l3.059-3.059c.081.575.138 1.158.138 1.756 0 6.893-5.607 12.5-12.5 12.5s-12.5-5.607-12.5-12.5 5.607-12.5 12.5-12.5z"/></svg>