<svg xmlns="http://www.w3.org/2000/svg" viewBox="0 0 511 511"><path d="M503.5 452H479v-88.5a7.5 7.5 0 0 0-7.5-7.5H463v-72.5c0-45.868-14.971-88.3-40.267-122.689l23.039-23.039a7.5 7.5 0 0 0 0-10.606l-33.938-33.938a7.5 7.5 0 0 0-10.606 0l-23.039 23.039a207.567 207.567 0 0 0-38.719-22.498l6.115-15.287a15.698 15.698 0 0 0-.257-12.197c-1.726-3.84-4.841-6.735-8.772-8.151C310.517 48.755 283.246 44 255.5 44c-62.501 0-121.649 23.933-166.548 67.389C44.16 154.742 18.304 212.865 16.146 275.05c-.145 4.18 1.388 8.151 4.316 11.183A15.678 15.678 0 0 0 31.681 291H48v65h-8.5a7.5 7.5 0 0 0-7.5 7.5V452H7.5a7.5 7.5 0 0 0 0 15h496a7.5 7.5 0 0 0 0-15zM383 356v-41h65v41h-65zm-240 0v-41h225v41H143zm-15-56H63v-16.5c0-84.829 55.157-157.012 131.488-182.585-11.054 9.76-21.249 22.266-30.273 37.304C140.862 177.144 128 228.738 128 283.5V300zm15-16.5c0-52.083 12.103-100.937 34.078-137.563C198.334 110.51 226.185 91 255.5 91s57.166 19.51 78.421 54.938C355.897 182.563 368 231.417 368 283.5V300H143v-16.5zM448 300h-65v-16.5c0-54.762-12.862-106.356-36.216-145.28-9.023-15.039-19.219-27.545-30.273-37.304C392.843 126.488 448 198.671 448 283.5V300zm-41.469-190.862l23.331 23.331-16.51 16.51a209.285 209.285 0 0 0-23.331-23.331l16.51-16.51zM31.251 275.812c-.119-.123-.116-.209-.114-.242 2.022-58.285 26.259-112.764 68.247-153.403C141.47 81.434 196.914 59 255.5 59c26.008 0 51.568 4.457 75.973 13.247.032.012.106.039.172.186.041.09.096.271.013.479L325.55 88.18C303.656 80.304 280.073 76 255.5 76 143.596 76 52.114 165.046 48.15 276H31.682a.602.602 0 0 1-.431-.188zM63 315h65v41H63v-41zm-16 56h417v81H295v-48.5c0-8.547-6.953-15.5-15.5-15.5h-48c-8.547 0-15.5 6.953-15.5 15.5V452H47v-81zm233 81h-49v-48.5a.5.5 0 0 1 .5-.5h48a.5.5 0 0 1 .5.5V452z"/><path d="M327.5 435h32a7.5 7.5 0 0 0 7.5-7.5v-32a7.5 7.5 0 0 0-7.5-7.5h-32a7.5 7.5 0 0 0-7.5 7.5v32a7.5 7.5 0 0 0 7.5 7.5zm7.5-32h17v17h-17v-17zm-151.5-15h-32a7.5 7.5 0 0 0-7.5 7.5v32a7.5 7.5 0 0 0 7.5 7.5h32a7.5 7.5 0 0 0 7.5-7.5v-32a7.5 7.5 0 0 0-7.5-7.5zm-7.5 32h-17v-17h17v17zm-64.5-32h-32a7.5 7.5 0 0 0-7.5 7.5v32a7.5 7.5 0 0 0 7.5 7.5h32a7.5 7.5 0 0 0 7.5-7.5v-32a7.5 7.5 0 0 0-7.5-7.5zm-7.5 32H87v-17h17v17zm295.5 15h32a7.5 7.5 0 0 0 7.5-7.5v-32a7.5 7.5 0 0 0-7.5-7.5h-32a7.5 7.5 0 0 0-7.5 7.5v32a7.5 7.5 0 0 0 7.5 7.5zm7.5-32h17v17h-17v-17z"/></svg>