<svg xmlns="http://www.w3.org/2000/svg" viewBox="0 0 487.004 487.004"><path d="M290.024 391.864c59.082-23.383 100.98-81.081 100.98-148.381 0-8.856-.738-17.542-2.132-26.01a7.32 7.32 0 0 0-.116-.696c-12.744-75.278-78.403-132.793-157.252-132.793-5.081 0-10.104.25-15.065.716l-.077.007C135.49 92.359 72.004 160.642 72.004 243.483c0 87.949 71.551 159.5 159.5 159.5 20.216 0 39.561-3.789 57.374-10.68l.031-.008a7.432 7.432 0 0 0 1.115-.431zm10.744-21.594l15.596-39.414 29.916-28.19a7.506 7.506 0 0 0 2.236-4.118l3.065-16.872a7.499 7.499 0 0 0-7.894-8.823l-7.443.511a13.427 13.427 0 0 1-3.312-.188l20.279-15.02a23.316 23.316 0 0 0 9.401-18.663v-14.239c0-1.82-.661-3.558-1.827-4.906l13.935 3.903a145.134 145.134 0 0 1 1.283 19.232c.001 54.598-30.438 102.216-75.235 126.787zm51.989-152.136l-5.829 1.929a2.96 2.96 0 0 1-2.406-.236 2.954 2.954 0 0 1-1.441-1.94l-.601-2.667 10.334 2.895-.057.019zm18.781-10.352l-37.114-10.395a7.5 7.5 0 0 0-9.339 8.87l3.363 14.927a18.017 18.017 0 0 0 8.689 11.699 18.022 18.022 0 0 0 10.476 2.255v4.354a8.26 8.26 0 0 1-3.329 6.609l-22.614 16.75-20.7-39.937a7.501 7.501 0 0 0-13.318 6.902l22.398 43.213a28.45 28.45 0 0 0 25.064 15.366l-.917 5.045-29.337 27.644a7.496 7.496 0 0 0-1.831 2.699L281.35 378.57c-4.465.534-8.973-.352-12.977-2.596-4.98-2.791-8.556-7.344-10.068-12.821-2.204-7.979-2.268-10.16-2.268-10.382v-23.678a7.5 7.5 0 0 0-4.808-7l-5.223-2.009a39.74 39.74 0 0 1-16.622-12.101l-9.083-11.245a7.496 7.496 0 0 0-7.152-2.671l-36.36 6.491a13.473 13.473 0 0 1-13.547-5.751l-3.813-5.681a29.18 29.18 0 0 1-1.674-29.709l8.335-16.068a7.482 7.482 0 0 0 .84-3.621l-.135-6.072a8.18 8.18 0 0 1 6.792-8.282l32.547-5.747a18.637 18.637 0 0 1 13.578 2.823l18.791 12.437a7.506 7.506 0 0 0 6.518.859l30.789-10.293a7.5 7.5 0 0 0 2.65-1.548l4.454-4.024c4.557-4.118 7.157-10.002 7.132-16.145s-2.672-12.006-7.263-16.087a7.502 7.502 0 0 0-7.116-1.585l-23.013 6.826-14.052-12.863c-3.685-3.374-8.845-4.285-13.463-2.379-3.118 1.287-5.505 3.657-6.799 6.597l-1.598-1.417a7.496 7.496 0 0 0-1.338-.947 23.175 23.175 0 0 0-27.06 3.288l-7.656 7.106a7.508 7.508 0 0 0-1.486 1.913l-6.574 12.082-7.424-2.064a2.979 2.979 0 0 1-2.179-2.714l-.375-7.004a2.98 2.98 0 0 1 2.663-3.125l9.326-.99a7.5 7.5 0 0 0 6.708-7.458v-11.007l17.857-13.477a23.075 23.075 0 0 0 6.162-6.994l6.437-11.236a7.5 7.5 0 0 0-7.953-11.087l-19.844 3.895a13.397 13.397 0 0 1 4.871-8.522l28.82-23.244 18.53 10.671a12.647 12.647 0 0 0 9.793 1.229 12.645 12.645 0 0 0 7.732-6.135l3.175-5.78c55.873 9.955 100.728 52.13 114.611 106.554zm-182.449-.376l2.705-4.971 6.757-6.271a8.205 8.205 0 0 1 8.961-1.475l13.02 11.541a33.585 33.585 0 0 0-17.001-1.373l-14.442 2.549zm44.617-7.039l-.625-5.062 12.578 11.514a7.5 7.5 0 0 0 7.197 1.658l21.937-6.507a6.7 6.7 0 0 1 .257 1.826 6.562 6.562 0 0 1-2.188 4.955l-3.291 2.974-25.833 8.636-15.742-10.419a35.024 35.024 0 0 0-1.876-1.157 7.502 7.502 0 0 0 7.586-8.418zM87.004 243.483c0-64.71 42.756-119.622 101.502-137.968l-9.044 7.294a28.34 28.34 0 0 0-10.595 22.157v7.184a7.5 7.5 0 0 0 8.944 7.36l11.235-2.205-19.716 14.879a7.5 7.5 0 0 0-2.982 5.987v7.998l-2.618.278c-9.516 1.01-16.57 9.288-16.058 18.844l.375 7.004a17.97 17.97 0 0 0 10.064 15.199c-4.07 4.299-6.453 10.14-6.311 16.499l.092 4.154-7.452 14.365a44.179 44.179 0 0 0 2.535 44.976l3.813 5.681a28.474 28.474 0 0 0 28.637 12.159l31.995-5.712 6.296 7.795a54.746 54.746 0 0 0 22.906 16.675l.415.16v18.527c0 1.958.319 5.362 2.809 14.375 2.071 7.499 6.402 13.977 12.406 18.709a144.843 144.843 0 0 1-24.749 2.129c-79.676-.003-144.499-64.825-144.499-144.503z"/><path d="M150.894 170.958a7.502 7.502 0 0 0 8.086-6.865l1.379-16.879a7.5 7.5 0 0 0-6.864-8.086c-4.132-.343-7.749 2.736-8.086 6.864l-1.379 16.879a7.499 7.499 0 0 0 6.864 8.087zm105.11.525a7.5 7.5 0 0 0 7.5 7.5h16a7.5 7.5 0 0 0 0-15h-16a7.5 7.5 0 0 0-7.5 7.5zm32.634-9.856l17.961 15.53a7.47 7.47 0 0 0 4.902 1.827 7.5 7.5 0 0 0 4.909-13.174l-17.961-15.53a7.5 7.5 0 0 0-9.811 11.347zm198.366 81.856c0-15.61-11.416-28.598-26.337-31.07a7.507 7.507 0 0 0-.007-2.036c-.59-4.1-4.39-6.95-8.49-6.36-4.1.58-6.95 4.39-6.36 8.49.047.322.12.633.205.939-12.746 4.036-22.011 15.973-22.011 30.037 0 14.045 9.241 25.968 21.961 30.02a7.719 7.719 0 0 0-.115.595 7.496 7.496 0 0 0 6.37 8.48c.36.05.72.07 1.07.07 3.67 0 6.88-2.7 7.41-6.44.08-.565.089-1.123.045-1.668 14.882-2.504 26.259-15.473 26.259-31.057zm-31.5 16.5c-9.098 0-16.5-7.402-16.5-16.5s7.402-16.5 16.5-16.5 16.5 7.402 16.5 16.5-7.401 16.5-16.5 16.5zM31.18 142.878c1.14.62 2.37.92 3.58.92 2.66 0 5.23-1.42 6.59-3.91 1.99-3.64.65-8.19-2.98-10.18-3.64-1.98-8.2-.64-10.18 2.99a7.496 7.496 0 0 0 2.99 10.18zm56.56-63.65c1.69 0 3.4-.57 4.81-1.75 3.17-2.66 3.59-7.39.93-10.56-2.66-3.18-7.39-3.6-10.56-.94a7.495 7.495 0 1 0 4.82 13.25zm155.16-51.92c.13 0 .26.01.4.01 3.96 0 7.27-3.11 7.48-7.11a7.49 7.49 0 0 0-7.1-7.88c-4.13-.22-7.66 2.96-7.88 7.09a7.504 7.504 0 0 0 7.1 7.89zm-132.64 35.33c1.39 0 2.8-.39 4.05-1.2 3.48-2.24 4.49-6.89 2.24-10.37-2.24-3.48-6.89-4.48-10.37-2.23a7.484 7.484 0 0 0-2.23 10.36 7.47 7.47 0 0 0 6.31 3.44zm-64.95 56.06c1.32.96 2.86 1.42 4.37 1.42 2.33 0 4.63-1.08 6.1-3.11h-.01a7.492 7.492 0 0 0-1.69-10.47 7.492 7.492 0 0 0-10.47 1.69c-2.42 3.36-1.67 8.05 1.7 10.47zm-35.13 160.38c4.11-.51 7.02-4.26 6.51-8.37h-.01a7.49 7.49 0 0 0-8.37-6.51 7.503 7.503 0 0 0-6.51 8.37 7.503 7.503 0 0 0 8.38 6.51zm10.01-110.44c.9.35 1.82.52 2.74.52a7.51 7.51 0 0 0 6.98-4.76 7.517 7.517 0 0 0-4.24-9.73 7.499 7.499 0 0 0-9.72 4.25c-1.52 3.85.38 8.2 4.24 9.72zM7.5 251.218c4.15 0 7.5-3.36 7.5-7.5s-3.36-7.5-7.5-7.5-7.5 3.36-7.5 7.51c0 4.14 3.36 7.49 7.5 7.49zm14.22 46.05a7.487 7.487 0 0 0-9.12-5.41c-4.01 1.02-6.43 5.11-5.41 9.12a7.514 7.514 0 0 0 7.26 5.65c.62 0 1.24-.08 1.87-.24 4.01-1.03 6.43-5.11 5.4-9.12zm-13.43-74.03c.31.04.62.06.93.06 3.73 0 6.96-2.78 7.43-6.58.51-4.11-2.41-7.86-6.52-8.36-4.11-.51-7.86 2.41-8.36 6.52-.51 4.11 2.41 7.86 6.52 8.36zm4.23-27.66a7.495 7.495 0 0 0 9.11-5.43 7.487 7.487 0 0 0-5.43-9.11c-4.01-1.02-8.09 1.41-9.11 5.43a7.512 7.512 0 0 0 5.43 9.11zm122.13-146.6c1.09 0 2.2-.24 3.25-.74 3.73-1.79 5.3-6.28 3.51-10.01-1.8-3.73-6.28-5.31-10.01-3.51a7.496 7.496 0 0 0-3.51 10.01 7.503 7.503 0 0 0 6.76 4.25zm161.38-12.19a7.503 7.503 0 0 0 9.39-4.93 7.493 7.493 0 0 0-4.93-9.39 7.485 7.485 0 0 0-9.39 4.93 7.505 7.505 0 0 0 4.93 9.39zm-26.26-6.4c.44.07.88.11 1.32.11 3.57 0 6.73-2.55 7.38-6.18.72-4.08-2-7.98-6.07-8.7-4.08-.73-7.97 1.99-8.7 6.07-.73 4.07 1.99 7.97 6.07 8.7zm51.53 16.049c1.01.46 2.06.68 3.1.68 2.85 0 5.57-1.63 6.83-4.39 1.72-3.77.06-8.22-3.71-9.94v.01c-3.77-1.72-8.22-.06-9.93 3.7a7.501 7.501 0 0 0 3.71 9.94zM215.31 27.568c.18 0 .36 0 .54-.02v.01c4.13-.3 7.24-3.89 6.95-8.02a7.515 7.515 0 0 0-8.02-6.95c-4.13.3-7.24 3.89-6.95 8.02a7.506 7.506 0 0 0 7.48 6.96zm-27.73 3.73c.49 0 .98-.04 1.47-.14 4.07-.81 6.7-4.76 5.9-8.82-.81-4.06-4.76-6.7-8.82-5.89v-.01c-4.07.81-6.7 4.76-5.9 8.83.71 3.56 3.85 6.03 7.35 6.03zm179.65 43.51a7.45 7.45 0 0 0 4.7 1.67c2.19 0 4.36-.96 5.84-2.8 2.6-3.22 2.1-7.95-1.13-10.54-3.23-2.6-7.95-2.1-10.55 1.13-2.59 3.23-2.09 7.95 1.14 10.54zm73.07 111.23a7.517 7.517 0 0 0 7.23 5.52c.66 0 1.32-.09 1.99-.27 3.99-1.1 6.34-5.23 5.24-9.22-1.09-4-5.22-6.35-9.22-5.25-3.99 1.099-6.34 5.23-5.24 9.22zM345.15 59.187c1.23.76 2.59 1.12 3.94 1.12 2.51 0 4.97-1.26 6.38-3.56a7.497 7.497 0 0 0-2.43-10.32 7.5 7.5 0 1 0-7.89 12.76zM30.06 322.978c-1.53-3.85-5.88-5.74-9.73-4.22a7.486 7.486 0 0 0-4.22 9.73 7.497 7.497 0 0 0 6.97 4.75c.92 0 1.85-.17 2.76-.53a7.503 7.503 0 0 0 4.22-9.73zm130.49-284.5c.79 0 1.59-.13 2.38-.39 3.93-1.31 6.05-5.56 4.74-9.49-1.32-3.93-5.57-6.05-9.49-4.74-3.93 1.31-6.05 5.56-4.74 9.49a7.504 7.504 0 0 0 7.11 5.13zm232.04 56.87c1.87 0 3.75-.7 5.21-2.1a7.503 7.503 0 1 0-10.43-10.79 7.491 7.491 0 0 0-.18 10.6 7.45 7.45 0 0 0 5.4 2.29zm38.92 65.13a7.508 7.508 0 0 0 6.93 4.62c.96 0 1.93-.18 2.87-.58a7.494 7.494 0 0 0 4.05-9.8 7.502 7.502 0 0 0-9.81-4.05c-3.82 1.59-5.63 5.979-4.04 9.81zm-44.08 233.23c-2.87 2.98-2.79 7.73.2 10.6 1.45 1.4 3.33 2.1 5.2 2.1 1.97 0 3.93-.77 5.4-2.29 2.87-2.99 2.79-7.73-.19-10.61-2.99-2.87-7.73-2.79-10.61.2zm23.31-277.07c1.57 0 3.15-.49 4.5-1.5 3.31-2.49 3.98-7.19 1.5-10.5h-.01c-2.48-3.32-7.18-3.99-10.5-1.5-3.31 2.49-3.98 7.19-1.49 10.5 1.47 1.96 3.72 3 6 3zm-43.25 295.33c-3.22 2.61-3.73 7.33-1.12 10.55a7.498 7.498 0 0 0 10.55 1.12 7.496 7.496 0 0 0 1.12-10.54 7.5 7.5 0 0 0-10.55-1.13zm-45.86 28.44c-3.76 1.73-5.42 6.18-3.69 9.94a7.506 7.506 0 0 0 6.82 4.38c1.05 0 2.11-.22 3.13-.69a7.5 7.5 0 1 0-6.26-13.63zm23.81-12.78c-3.52 2.18-4.6 6.8-2.42 10.32a7.493 7.493 0 0 0 6.38 3.55c1.35 0 2.72-.36 3.95-1.12a7.508 7.508 0 0 0 2.42-10.33c-2.18-3.52-6.81-4.61-10.33-2.42zm-303.9-80.19a7.5 7.5 0 0 0-10.18-2.97 7.5 7.5 0 0 0-2.97 10.18 7.48 7.48 0 0 0 6.58 3.89c1.22 0 2.46-.29 3.6-.92a7.5 7.5 0 0 0 2.97-10.18zm408.06-52.12c-3.99-1.09-8.11 1.27-9.2 5.26-1.09 4 1.27 8.12 5.26 9.21.66.18 1.33.27 1.98.27 3.3 0 6.32-2.2 7.23-5.54 1.09-3.99-1.27-8.121-5.27-9.2zm-34.15 76.27c-3.31-2.48-8.01-1.8-10.49 1.51h-.01a7.501 7.501 0 0 0 1.52 10.5 7.43 7.43 0 0 0 4.48 1.5c2.29 0 4.54-1.04 6.01-3.01 2.49-3.31 1.81-8.01-1.51-10.5zm-119.03 78.52a7.5 7.5 0 0 0-4.91 9.4 7.512 7.512 0 0 0 7.16 5.26c.74 0 1.5-.12 2.25-.35 3.95-1.24 6.15-5.45 4.9-9.4a7.5 7.5 0 0 0-9.4-4.91zm133.59-102.441a7.502 7.502 0 1 0-3.72 14.02c2.61 0 5.14-1.36 6.53-3.79 2.05-3.599.79-8.179-2.81-10.23zm-3.9-207.659c1.26 0 2.54-.32 3.71-.99a7.5 7.5 0 0 0 2.79-10.24c-2.05-3.59-6.63-4.84-10.23-2.79-3.6 2.06-4.84 6.64-2.79 10.24a7.518 7.518 0 0 0 6.52 3.78zm15.35 182.11a7.492 7.492 0 0 0-9.8 4.06c-1.58 3.83.24 8.22 4.07 9.8.93.39 1.9.57 2.86.57 2.94 0 5.74-1.75 6.93-4.64h.01c1.58-3.83-.25-8.21-4.07-9.79zm-171.28 134.45c-4.08.74-6.79 4.64-6.05 8.72.65 3.62 3.81 6.17 7.37 6.17a7.51 7.51 0 0 0 7.39-8.84c-.74-4.07-4.64-6.78-8.71-6.05zm-177.37-46.81a7.512 7.512 0 0 0-10.57.95c-2.65 3.18-2.23 7.91.95 10.56a7.434 7.434 0 0 0 4.81 1.75c2.14 0 4.27-.92 5.75-2.69a7.501 7.501 0 0 0-.94-10.57zm21.79 16.02a7.496 7.496 0 0 0-8.11 12.61 7.46 7.46 0 0 0 4.05 1.2c2.47 0 4.89-1.22 6.32-3.45 2.24-3.48 1.23-8.12-2.26-10.36zM67.44 98.488c2.01 0 4.01-.8 5.49-2.39a7.504 7.504 0 0 0-.38-10.6 7.504 7.504 0 0 0-10.6.38 7.504 7.504 0 0 0 .38 10.6 7.462 7.462 0 0 0 5.11 2.01zm-21.92 270.11c-3.36 2.43-4.11 7.12-1.68 10.47a7.48 7.48 0 0 0 6.08 3.11c1.52 0 3.06-.46 4.39-1.43 3.36-2.42 4.11-7.11 1.68-10.47-2.43-3.35-7.12-4.111-10.47-1.68zm17.05 22.19c-3.03 2.83-3.2 7.58-.37 10.61a7.497 7.497 0 0 0 5.49 2.38c1.83 0 3.67-.67 5.11-2.02 3.03-2.82 3.19-7.57.37-10.59-2.83-3.03-7.57-3.2-10.6-.38zm180.75 68.91a7.496 7.496 0 0 0-7.09 7.89c.21 4 3.52 7.1 7.48 7.1.14 0 .27-.01.41-.01 4.14-.22 7.31-3.76 7.09-7.89a7.496 7.496 0 0 0-7.89-7.09zm-27.05-.23a7.502 7.502 0 1 0-1.05 14.97c.18.01.35.02.53.02 3.9 0 7.2-3.03 7.47-6.98.29-4.13-2.82-7.72-6.95-8.01zm-78.04-20.52c-3.74-1.79-8.22-.21-10 3.53a7.492 7.492 0 0 0 6.76 10.73c2.8 0 5.48-1.57 6.77-4.26 1.79-3.74.2-8.22-3.53-10zm25.09 10.1c-3.94-1.3-8.18.83-9.48 4.76-1.3 3.93.83 8.18 4.76 9.48.78.26 1.58.38 2.36.38 3.14 0 6.08-1.99 7.12-5.14 1.3-3.93-.83-8.18-4.76-9.48zm26.14 6.869a7.508 7.508 0 0 0-8.81 5.91 7.502 7.502 0 0 0 14.72 2.9 7.504 7.504 0 0 0-5.91-8.81z"/></svg>