<svg xmlns="http://www.w3.org/2000/svg" viewBox="0 0 479 479"><path d="M408.852 70.148C363.616 24.913 303.473 0 239.5 0S115.384 24.913 70.148 70.148C24.913 115.384 0 175.527 0 239.5s24.913 124.116 70.148 169.352C115.384 454.087 175.527 479 239.5 479s124.116-24.913 169.352-70.148C454.087 363.616 479 303.473 479 239.5s-24.913-124.116-70.148-169.352zm49.839 120.488l-63.169-17.692a7.498 7.498 0 0 0-9.339 8.871l5.134 22.782a23.546 23.546 0 0 0 11.355 15.289 23.544 23.544 0 0 0 17.994 2.15v11.373a16.566 16.566 0 0 1-6.679 13.259l-38.24 28.322-33.726-65.069a7.5 7.5 0 0 0-13.318 6.902l34.186 65.956a39.48 39.48 0 0 0 37.775 21.23l1.745-.12-2.515 13.842-45.723 43.084a7.494 7.494 0 0 0-1.83 2.699l-33.922 85.727c-8.409 1.568-17.014.162-24.574-4.076-8.528-4.779-14.652-12.579-17.243-21.962-3.251-11.773-3.602-15.738-3.602-16.896v-36.14a7.499 7.499 0 0 0-4.808-7l-7.972-3.066a64.588 64.588 0 0 1-27.023-19.673l-13.863-17.164a7.499 7.499 0 0 0-7.153-2.671l-55.497 9.908a24.505 24.505 0 0 1-24.648-10.464l-5.82-8.671a48.486 48.486 0 0 1-2.781-49.363l12.722-24.525a7.497 7.497 0 0 0 .841-3.621l-.207-9.267c-.183-8.203 5.548-15.191 13.627-16.618l49.679-8.771a32.372 32.372 0 0 1 23.588 4.904l28.681 18.983a7.5 7.5 0 0 0 6.518.858l46.995-15.711a7.5 7.5 0 0 0 2.65-1.548l6.798-6.143c6.125-5.535 9.618-13.443 9.584-21.698s-3.591-16.135-9.761-21.619a7.502 7.502 0 0 0-7.116-1.585l-37.266 11.054-23.094-21.14c-4.483-4.104-10.759-5.215-16.378-2.896-5.619 2.318-9.287 7.53-9.571 13.602a6.453 6.453 0 0 0-.005.139l-7.365-6.528a7.496 7.496 0 0 0-1.338-.947 31.432 31.432 0 0 0-36.703 4.46l-11.686 10.846a7.485 7.485 0 0 0-1.486 1.913l-11.534 21.198-14.355-3.99a8.492 8.492 0 0 1-6.211-7.735l-.573-10.69a8.498 8.498 0 0 1 7.59-8.907l14.234-1.512a7.5 7.5 0 0 0 6.708-7.458v-18.767l28.826-21.753a31.334 31.334 0 0 0 8.358-9.486l9.824-17.15a7.5 7.5 0 0 0-7.953-11.087l-35.21 6.911v-1.85a24.391 24.391 0 0 1 9.119-19.07l46.094-37.175 30.625 17.636a15.385 15.385 0 0 0 11.915 1.495 15.384 15.384 0 0 0 9.407-7.464l6.21-11.305c46.009 7.525 88.414 29.153 122.032 62.77 30.634 30.636 51.319 68.57 60.443 109.88zm-219.748-16.462l-2.16-17.482a.529.529 0 0 1 .234-.165c.292-.121.418-.007.528.094l26.224 24.005a7.5 7.5 0 0 0 7.197 1.658l36.745-10.899c1.424 2.215 2.188 4.793 2.2 7.523.016 4.056-1.632 7.788-4.642 10.507l-5.634 5.091-42.04 14.054-25.631-16.964c-7.847-5.194-16.909-7.898-26.157-7.898-2.765 0-5.547.242-8.317.731l-30.112 5.316 8.354-15.353 10.787-10.011a16.462 16.462 0 0 1 18.562-2.685l21.445 19.009a7.497 7.497 0 1 0 12.417-6.531zm4.707-159.123c5.558.1 11.083.402 16.567.9l-3.36 6.117a.472.472 0 0 1-.303.241c-.204.057-.339-.023-.385-.049l-12.519-7.209zM80.754 398.246C38.352 355.843 15 299.466 15 239.5S38.352 123.157 80.754 80.754c30.703-30.703 68.735-51.408 110.149-60.502l-28.356 22.87c-9.343 7.536-14.702 18.743-14.702 30.746v10.965a7.5 7.5 0 0 0 8.944 7.36l28.04-5.503-1.661 2.899a16.42 16.42 0 0 1-4.378 4.969l-31.808 24.003a7.5 7.5 0 0 0-2.982 5.987v15.757l-7.526.8c-12.437 1.321-21.654 12.138-20.984 24.625l.573 10.69a23.48 23.48 0 0 0 17.172 21.385l1.994.554c-8.43 5.851-13.678 15.644-13.434 26.564l.164 7.35-11.839 22.822a63.48 63.48 0 0 0 3.642 64.629l5.82 8.671a39.51 39.51 0 0 0 39.739 16.872l51.131-9.128 11.077 13.714a79.606 79.606 0 0 0 33.307 24.248l3.164 1.217v30.989c0 2.527.43 7.441 4.144 20.891 3.666 13.273 12.32 24.302 24.369 31.054.374.21.759.391 1.137.591A226.537 226.537 0 0 1 239.5 464c-59.966 0-116.343-23.352-158.746-65.754zm317.492 0c-17.968 17.968-38.452 32.5-60.648 43.299l28.077-70.956 46.302-43.63a7.506 7.506 0 0 0 2.236-4.118l4.678-25.751a7.499 7.499 0 0 0-7.894-8.823l-11.36.78a24.47 24.47 0 0 1-13.576-3.028l36.854-27.296c7.984-5.914 12.751-15.376 12.751-25.313v-21.733a7.502 7.502 0 0 0-9.857-7.121l-8.896 2.945a8.41 8.41 0 0 1-6.855-.671 8.404 8.404 0 0 1-4.107-5.53l-2.371-10.522 58.099 16.272a227.803 227.803 0 0 1 2.322 32.45c-.001 59.966-23.353 116.343-65.755 158.746z"/><path d="M115.576 98.023l8.233 5.055-4.498 20.245a7.5 7.5 0 0 0 14.642 3.253l5.658-25.465a7.5 7.5 0 0 0-3.397-8.018l-12.791-7.853a7.5 7.5 0 1 0-7.847 12.783zm168.591 52.671h22.22a7.505 7.505 0 0 0 4.46-1.47l12.447-9.208a7.5 7.5 0 0 0-8.921-12.059l-10.459 7.737h-19.747a7.5 7.5 0 0 0 0 15zm64.448-12.288a7.49 7.49 0 0 0 6.066 3.081 7.5 7.5 0 0 0 6.053-11.92l-20.483-28.084a7.5 7.5 0 0 0-10.479-1.64 7.5 7.5 0 0 0-1.64 10.479l20.483 28.084z"/></svg>