<svg xmlns="http://www.w3.org/2000/svg" viewBox="0 0 495 495"><path d="M335 247.51c0-52.659-42.841-95.5-95.5-95.5s-95.5 42.841-95.5 95.5 42.841 95.5 95.5 95.5 95.5-42.841 95.5-95.5zm-95.5 80.5c-44.388 0-80.5-36.112-80.5-80.5s36.112-80.5 80.5-80.5 80.5 36.112 80.5 80.5-36.112 80.5-80.5 80.5zm255.5-80.5c0-11.881-8.864-21.724-20.325-23.28a7.497 7.497 0 0 0 2.484-6.551c-.52-4.11-4.26-7.03-8.37-6.52-4.11.52-7.03 4.26-6.52 8.37a7.478 7.478 0 0 0 3.211 5.265C455.43 227.461 448 236.633 448 247.51c0 10.968 7.553 20.203 17.731 22.781a7.476 7.476 0 0 0-3.481 5.438 7.49 7.49 0 0 0 6.51 8.37 7.488 7.488 0 0 0 8.37-6.51c.339-2.67-.787-5.186-2.745-6.763C485.986 269.4 495 259.491 495 247.51zm-23.5 8.5c-4.687 0-8.5-3.813-8.5-8.5s3.813-8.5 8.5-8.5 8.5 3.813 8.5 8.5-3.813 8.5-8.5 8.5zM72 131.51c0 7.229 2.808 13.811 7.385 18.724-2.803-.192-5.595 1.196-7.055 3.805-2.03 3.62-.74 8.19 2.87 10.21 1.16.65 2.42.96 3.66.96a7.49 7.49 0 0 0 7.16-9.744 27.322 27.322 0 0 0 13.48 3.544c15.164 0 27.5-12.336 27.5-27.5 0-6.094-1.996-11.73-5.364-16.294a7.433 7.433 0 0 0 2.734-1.496 7.505 7.505 0 0 0 .79-10.58c-2.7-3.14-7.44-3.49-10.58-.79a7.471 7.471 0 0 0-2.532 4.702 27.316 27.316 0 0 0-12.548-3.042C84.336 104.01 72 116.347 72 131.51zm27.5-12.5c6.893 0 12.5 5.607 12.5 12.5s-5.607 12.5-12.5 12.5-12.5-5.607-12.5-12.5c0-6.892 5.607-12.5 12.5-12.5zM77.1 316.76c-1.63-3.81-6.04-5.58-9.84-3.96-3.81 1.63-5.59 6.03-3.96 9.84a7.509 7.509 0 0 0 6.9 4.56c.98 0 1.98-.19 2.94-.6a7.506 7.506 0 0 0 3.96-9.84zM346.16 97.38a7.49 7.49 0 0 0 1.34 10.52 7.432 7.432 0 0 0 4.58 1.57c2.24 0 4.46-1 5.94-2.91 2.54-3.27 1.94-7.98-1.34-10.52a7.5 7.5 0 0 0-10.52 1.34zM322.2 82.93c-2.02 3.62-.71 8.19 2.91 10.2 1.15.64 2.4.95 3.63.95 2.64 0 5.2-1.4 6.57-3.86 2.01-3.62.7-8.19-2.92-10.2h.01c-3.63-2.01-8.19-.71-10.2 2.91zM194.96 418.35c-4.01-1.05-8.1 1.36-9.15 5.37a7.492 7.492 0 0 0 5.37 9.14c.63.17 1.27.25 1.89.25 3.34 0 6.38-2.24 7.26-5.62 1.04-4-1.36-8.1-5.37-9.14zM135.63 95.42a7.541 7.541 0 0 0 6.37 3.52c1.36 0 2.73-.37 3.97-1.15a7.502 7.502 0 0 0 2.38-10.34 7.501 7.501 0 0 0-10.34-2.37c-3.51 2.2-4.57 6.82-2.38 10.34zm33.97 314.21c-3.8-1.65-8.22.1-9.86 3.91-1.64 3.8.11 8.21 3.91 9.85.97.42 1.98.62 2.97.62 2.9 0 5.67-1.69 6.89-4.53 1.65-3.8-.11-8.21-3.91-9.85zm-64.26-47.42c-2.69-3.15-7.43-3.51-10.58-.82-3.14 2.69-3.51 7.43-.81 10.57a7.447 7.447 0 0 0 5.69 2.63c1.73 0 3.47-.6 4.88-1.81 3.15-2.69 3.51-7.42.82-10.57zm40.53 34.94a7.501 7.501 0 0 0-7.97 12.71c1.24.77 2.61 1.14 3.97 1.14 2.5 0 4.94-1.24 6.37-3.51a7.501 7.501 0 0 0-2.37-10.34zm-20.81-5.36a7.483 7.483 0 0 0-.78-10.57 7.495 7.495 0 0 0-10.58.78 7.505 7.505 0 0 0 5.68 12.4c2.11 0 4.2-.89 5.68-2.61zm171.27-319.5a7.503 7.503 0 0 0 7.03 10.11c3.04 0 5.91-1.87 7.03-4.9a7.5 7.5 0 0 0-4.43-9.64c-3.88-1.44-8.2.54-9.63 4.43zM59.34 217.45c3.48 0 6.6-2.43 7.33-5.97.84-4.06-1.76-8.03-5.82-8.87-4.05-.84-8.02 1.76-8.87 5.82-.84 4.05 1.77 8.02 5.82 8.86.52.11 1.03.16 1.54.16zM48.26 237.3c-.22 4.14 2.96 7.66 7.1 7.88.13.01.26.01.39.01 3.97 0 7.28-3.1 7.49-7.11a7.508 7.508 0 0 0-7.1-7.88c-4.14-.22-7.66 2.96-7.88 7.1zm8.12 35.85c.25 0 .49-.01.74-.03a7.512 7.512 0 0 0 6.74-8.2c-.41-4.12-4.08-7.14-8.2-6.73-4.12.4-7.14 4.07-6.73 8.19a7.494 7.494 0 0 0 7.45 6.77zM159.87 81.41a7.516 7.516 0 0 0 6.9 4.54c.99 0 1.99-.2 2.96-.62 3.8-1.64 5.56-6.05 3.92-9.85a7.502 7.502 0 0 0-9.85-3.93c-3.81 1.64-5.56 6.05-3.93 9.86zm26.09-10.15a7.525 7.525 0 0 0 7.26 5.63c.62 0 1.25-.08 1.88-.24h.01c4-1.04 6.41-5.14 5.38-9.15-1.04-4-5.13-6.42-9.14-5.38a7.512 7.512 0 0 0-5.39 9.14zm55.27-7.9a7.503 7.503 0 0 0 7.13 7.86c.12.01.24.01.37.01 3.97 0 7.29-3.12 7.49-7.13.2-4.14-2.99-7.66-7.13-7.86a7.501 7.501 0 0 0-7.86 7.12zM221.35 423.1a7.499 7.499 0 1 0-.75 14.96c3.8 0 7.06-2.88 7.45-6.74.42-4.12-2.58-7.8-6.7-8.22zm47.77-357.38c-.83 4.05 1.79 8.02 5.85 8.85a7.507 7.507 0 0 0 8.85-5.85c.82-4.06-1.79-8.02-5.85-8.85s-8.02 1.79-8.85 5.85zm-195 119.99a7.49 7.49 0 0 0-4.4-9.65c-3.87-1.45-8.2.51-9.65 4.39s.52 8.21 4.4 9.66c.86.32 1.75.48 2.62.48 3.04 0 5.9-1.86 7.03-4.88zM213.3 65.22c.39 3.86 3.65 6.74 7.45 6.74a7.499 7.499 0 1 0-7.45-6.74zM61.22 300.7c.61 0 1.23-.08 1.86-.24 4.01-1.02 6.43-5.11 5.41-9.12-1.03-4.01-5.11-6.44-9.12-5.41a7.482 7.482 0 0 0-5.41 9.12 7.497 7.497 0 0 0 7.26 5.65zm21.9 51.32a7.496 7.496 0 0 0 6.36-11.46 7.496 7.496 0 0 0-10.33-2.41c-3.52 2.19-4.59 6.81-2.41 10.33a7.506 7.506 0 0 0 6.38 3.54zm328.28-20.04c1.83-3.71.3-8.21-3.41-10.04a7.507 7.507 0 0 0-10.05 3.42c-1.83 3.71-.3 8.21 3.42 10.04a7.498 7.498 0 0 0 10.04-3.42zm-20.86-182.1c1.48 0 2.98-.43 4.29-1.35a7.494 7.494 0 0 0 1.86-10.44c-2.37-3.4-7.05-4.23-10.44-1.86a7.494 7.494 0 0 0-1.86 10.44 7.466 7.466 0 0 0 6.15 3.21zm-.09 210.36c2.36 0 4.69-1.12 6.15-3.21 2.37-3.39 1.54-8.07-1.86-10.44-3.39-2.37-8.07-1.54-10.44 1.86-2.37 3.39-1.54 8.07 1.86 10.44 1.31.91 2.8 1.35 4.29 1.35zm7.57-190.46v.01a7.488 7.488 0 0 0 10.03 3.42c3.72-1.83 5.26-6.32 3.43-10.04-1.83-3.71-6.32-5.25-10.04-3.42a7.484 7.484 0 0 0-3.42 10.03zM300.6 413.15c-3.88 1.43-5.87 5.74-4.44 9.63a7.514 7.514 0 0 0 7.04 4.91c.86 0 1.74-.15 2.59-.47a7.5 7.5 0 1 0-5.19-14.07zm46.8-25.95a7.52 7.52 0 0 0-1.34 10.53c1.48 1.9 3.7 2.91 5.94 2.91 1.6 0 3.22-.52 4.58-1.57 3.28-2.54 3.88-7.25 1.34-10.52-2.53-3.28-7.24-3.88-10.52-1.35zM325 401.97a7.497 7.497 0 0 0 3.64 14.06c1.23 0 2.48-.31 3.63-.95 3.62-2 4.93-6.57 2.92-10.19-2.01-3.62-6.57-4.93-10.19-2.92zm42.67-286.69c-3 2.86-3.11 7.61-.26 10.61a7.462 7.462 0 0 0 5.43 2.33c1.86 0 3.72-.69 5.17-2.07 3-2.86 3.12-7.6.27-10.6-2.86-3-7.61-3.12-10.61-.27zm-.35 253.94c-2.85 3-2.74 7.75.26 10.6a7.45 7.45 0 0 0 5.17 2.07 7.5 7.5 0 1 0-5.43-12.67zm52.94-86.32c.38.06.77.09 1.14.09 3.64 0 6.84-2.66 7.41-6.37.62-4.09-2.19-7.92-6.28-8.54a7.495 7.495 0 0 0-8.55 6.28c-.63 4.09 2.19 7.92 6.28 8.54zM248.18 423.8c-4.14.2-7.33 3.72-7.12 7.85a7.494 7.494 0 0 0 7.48 7.14c.13 0 .25-.01.38-.01 4.13-.2 7.32-3.72 7.12-7.86a7.488 7.488 0 0 0-7.86-7.12zM421.4 227.22c.37 0 .75-.03 1.13-.09a7.501 7.501 0 0 0 6.29-8.54 7.501 7.501 0 0 0-8.54-6.29 7.501 7.501 0 0 0 1.12 14.92zm-8.52-41.91a7.51 7.51 0 0 0-4.92 9.4 7.524 7.524 0 0 0 7.16 5.26c.74 0 1.5-.11 2.24-.35 3.95-1.23 6.16-5.44 4.92-9.39-1.24-3.95-5.44-6.16-9.4-4.92zm4.44 110.26a7.5 7.5 0 0 0-9.4 4.91c-1.25 3.95.95 8.16 4.9 9.4.75.24 1.51.35 2.25.35 3.19 0 6.15-2.05 7.15-5.25 1.25-3.95-.95-8.16-4.9-9.41zm6.18-55.47c-4.14 0-7.5 3.36-7.5 7.5 0 4.15 3.36 7.5 7.5 7.5 4.15 0 7.5-3.36 7.5-7.5s-3.36-7.5-7.5-7.5zM274.81 420.47c-4.06.82-6.69 4.78-5.86 8.84a7.49 7.49 0 0 0 8.84 5.86c4.06-.82 6.68-4.78 5.86-8.84-.83-4.06-4.79-6.68-8.84-5.86zM356 193.17a7.513 7.513 0 0 0 6.8 4.33c1.06 0 2.14-.23 3.17-.71 3.75-1.75 5.37-6.22 3.62-9.97s-6.21-5.37-9.97-3.62c-3.75 1.75-5.37 6.22-3.62 9.97zm-81.99-77.47c-1.27 3.95.9 8.17 4.84 9.44.76.24 1.54.36 2.3.36 3.17 0 6.11-2.03 7.14-5.21 1.26-3.94-.9-8.17-4.85-9.43-3.94-1.27-8.17.9-9.43 4.84zm-27.67-4.23c-.43 4.12 2.57 7.8 6.68 8.23.27.03.53.04.79.04 3.79 0 7.05-2.86 7.45-6.72a7.5 7.5 0 0 0-6.68-8.24c-4.12-.43-7.81 2.57-8.24 6.69zm-21.23-6.74c-4.12.41-7.12 4.09-6.71 8.21.38 3.87 3.65 6.75 7.45 6.75.25 0 .5-.01.76-.03a7.504 7.504 0 0 0 6.71-8.21 7.493 7.493 0 0 0-8.21-6.72zM370.23 209.1c-4.03.94-6.54 4.98-5.59 9.01.8 3.46 3.89 5.8 7.29 5.8a7.506 7.506 0 0 0 7.31-9.21 7.495 7.495 0 0 0-9.01-5.6zm-35.81-69.23a7.5 7.5 0 0 0-9.92 11.25 7.498 7.498 0 0 0 10.59-.66c2.73-3.11 2.44-7.85-.67-10.59zM138.9 349.82a7.451 7.451 0 0 0 5.25 2.15c1.94 0 3.88-.75 5.35-2.24 2.91-2.95 2.87-7.7-.09-10.61a7.49 7.49 0 0 0-10.6.1 7.49 7.49 0 0 0 .08 10.6h.01zM99.94 214.04a7.505 7.505 0 0 0 5.55 9.04c.58.14 1.17.2 1.75.2 3.39 0 6.46-2.31 7.29-5.75.96-4.03-1.52-8.08-5.55-9.04a7.493 7.493 0 0 0-9.04 5.55zm50.1-61.46c1.76 0 3.52-.61 4.94-1.85 3.12-2.73 3.43-7.47.71-10.59-2.73-3.11-7.47-3.43-10.59-.7-3.12 2.72-3.43 7.46-.7 10.58a7.455 7.455 0 0 0 5.64 2.56zm-13.06 17.48a7.507 7.507 0 0 0-1.46-10.51 7.499 7.499 0 1 0-9.05 11.96 7.417 7.417 0 0 0 4.52 1.52c2.27 0 4.51-1.02 5.99-2.97zm-40.91 73.2a7.508 7.508 0 0 0 7.29 7.72h.21c4.05 0 7.38-3.22 7.5-7.29a7.497 7.497 0 0 0-7.28-7.71 7.5 7.5 0 0 0-7.72 7.28zm73.97 112.36c-3.49-2.24-8.13-1.24-10.37 2.25a7.49 7.49 0 0 0 2.25 10.36c1.25.81 2.66 1.2 4.05 1.2 2.46 0 4.88-1.22 6.31-3.44a7.497 7.497 0 0 0-2.24-10.37zm-43.7-25.17c1.43 0 2.88-.41 4.16-1.27 3.44-2.3 4.37-6.96 2.07-10.4s-6.96-4.37-10.4-2.07c-3.45 2.3-4.38 6.96-2.07 10.4a7.497 7.497 0 0 0 6.24 3.34zm-9.83-133.52c2.81 0 5.5-1.59 6.78-4.3 1.77-3.74.17-8.21-3.57-9.98-3.74-1.78-8.22-.18-9.99 3.57a7.497 7.497 0 0 0 3.57 9.98c1.04.49 2.13.73 3.21.73zm56.35-60.49c1.25 0 2.51-.31 3.67-.97 3.61-2.03 4.89-6.61 2.86-10.21-2.04-3.61-6.61-4.89-10.22-2.86a7.496 7.496 0 0 0-2.85 10.22 7.509 7.509 0 0 0 6.54 3.82zm175.57 37.09c1.56 0 3.14-.49 4.49-1.5 3.31-2.49 3.99-7.19 1.5-10.5-2.48-3.32-7.18-3.99-10.5-1.5-3.31 2.48-3.98 7.18-1.5 10.5 1.47 1.96 3.73 3 6.01 3zM284.9 367.77c-3.87 1.46-5.83 5.79-4.37 9.66a7.499 7.499 0 0 0 7.02 4.86c.88 0 1.77-.16 2.65-.49 3.87-1.46 5.83-5.79 4.37-9.66-1.47-3.88-5.79-5.84-9.67-4.37zm-179.3-88.92c.43 0 .87-.04 1.31-.11a7.505 7.505 0 0 0-2.61-14.78c-4.08.73-6.8 4.62-6.08 8.7.64 3.63 3.81 6.19 7.38 6.19zm194.61-153.31c-2.05 3.6-.8 8.18 2.8 10.23 1.17.67 2.45.98 3.71.98 2.6 0 5.14-1.36 6.52-3.79a7.49 7.49 0 0 0-2.8-10.22c-3.6-2.05-8.18-.8-10.23 2.8zm34.23 226.86c1.89 0 3.78-.7 5.24-2.13 2.96-2.89 3.02-7.64.13-10.6a7.494 7.494 0 0 0-10.61-.13 7.5 7.5 0 0 0-.13 10.6 7.464 7.464 0 0 0 5.37 2.26zm-140.86 15.16a7.497 7.497 0 1 0-5.37 14c.88.34 1.79.5 2.68.5 3.02 0 5.86-1.83 7.01-4.82 1.48-3.87-.46-8.2-4.32-9.69v.01zm4.91-242.25a7.497 7.497 0 0 0 7.15-9.76 7.497 7.497 0 0 0-9.41-4.89c-3.95 1.24-6.14 5.46-4.89 9.41a7.494 7.494 0 0 0 7.15 5.24zm-85.2 180.42c.93 0 1.88-.18 2.79-.55 3.85-1.54 5.71-5.91 4.17-9.75-1.55-3.84-5.92-5.71-9.76-4.16-3.84 1.54-5.71 5.91-4.16 9.75a7.496 7.496 0 0 0 6.96 4.71zm261.38-41.13a7.495 7.495 0 0 0-8.72 6.04c-.74 4.08 1.96 7.98 6.03 8.72.46.08.91.12 1.35.12 3.56 0 6.72-2.53 7.37-6.16.75-4.07-1.96-7.98-6.03-8.72zm-55.81 93.64c-2.22-3.5-6.86-4.52-10.35-2.3-3.49 2.23-4.52 6.87-2.29 10.36a7.497 7.497 0 0 0 6.33 3.47c1.38 0 2.77-.38 4.02-1.18 3.49-2.23 4.52-6.86 2.29-10.35zm53.59-56.6c1.56-3.83-.28-8.21-4.11-9.78a7.507 7.507 0 0 0-9.78 4.12c-1.56 3.83.28 8.21 4.11 9.77.93.38 1.89.56 2.83.56 2.96 0 5.77-1.76 6.95-4.67zm2.84-65.02c-4.14.11-7.42 3.55-7.31 7.69.1 4.07 3.44 7.31 7.49 7.31h.19c4.14-.11 7.42-3.55 7.31-7.69-.1-4.14-3.54-7.41-7.68-7.31zm-18.75 80.61c-3.43-2.31-8.09-1.4-10.41 2.03-2.31 3.43-1.41 8.1 2.03 10.41 1.28.87 2.74 1.28 4.18 1.28 2.41 0 4.78-1.16 6.23-3.3 2.31-3.44 1.41-8.1-2.03-10.42zm-88.61 63.51c-.544-3.479-3.399-6.017-6.757-6.312-3.559-8.461-11.933-14.418-21.673-14.418-9.696 0-18.037 5.903-21.624 14.302a7.5 7.5 0 0 0-7.407 6.307c-.65 4.09 2.13 7.94 6.23 8.59h.003c2.554 10.212 11.805 17.8 22.797 17.8 11.008 0 20.268-7.609 22.807-17.843a7.494 7.494 0 0 0 5.624-8.426zm-28.43 11.27c-4.687 0-8.5-3.813-8.5-8.5s3.813-8.5 8.5-8.5 8.5 3.813 8.5 8.5-3.813 8.5-8.5 8.5zm126.84 40.75c-3.42 2.35-4.29 7.02-1.94 10.43a7.483 7.483 0 0 0 10.42 1.94 7.493 7.493 0 0 0 1.95-10.42c-2.35-3.42-7.02-4.29-10.43-1.95zm-73.83 32.94c-4.03.97-6.5 5.03-5.53 9.05a7.495 7.495 0 0 0 9.05 5.53c4.03-.97 6.5-5.03 5.53-9.05-.98-4.03-5.03-6.5-9.05-5.53zm-80.71 4.61a7.497 7.497 0 0 0-8.36 6.53c-.51 4.11 2.41 7.85 6.53 8.36.31.04.61.05.92.05 3.73 0 6.97-2.78 7.43-6.58a7.495 7.495 0 0 0-6.52-8.36zM366.5 62.35c1.29.89 2.77 1.32 4.24 1.32 2.39 0 4.73-1.14 6.19-3.25 2.34-3.42 1.48-8.09-1.94-10.43-3.41-2.35-8.08-1.48-10.43 1.93a7.504 7.504 0 0 0 1.94 10.43zM238.82 472c-4.14-.01-7.51 3.34-7.52 7.48-.01 4.14 3.34 7.51 7.48 7.52h.02c4.13 0 7.49-3.35 7.5-7.49.01-4.14-3.34-7.5-7.48-7.51zm104.31-25.29a7.491 7.491 0 0 0-3.19 10.12 7.509 7.509 0 0 0 10.12 3.18 7.496 7.496 0 0 0 3.18-10.12c-1.91-3.67-6.44-5.1-10.11-3.18zm-77.27 23.75a7.5 7.5 0 0 0 .86 14.95 7.506 7.506 0 0 0 7.46-8.37 7.5 7.5 0 0 0-8.32-6.58zm52.54-12.72c-3.88 1.46-5.85 5.78-4.39 9.66a7.508 7.508 0 0 0 7.02 4.87c.88 0 1.77-.16 2.64-.48 3.87-1.46 5.84-5.78 4.38-9.66-1.45-3.88-5.78-5.84-9.65-4.39zm147.96-160.86a7.497 7.497 0 0 0-9.1 5.45 7.497 7.497 0 0 0 5.45 9.1c.61.16 1.23.23 1.83.23 3.36 0 6.41-2.27 7.27-5.68 1.01-4.01-1.43-8.09-5.45-9.1zm-36.35-174.34c1.48 0 2.97-.44 4.28-1.35 3.4-2.36 4.23-7.04 1.87-10.44-2.37-3.4-7.05-4.23-10.45-1.86-3.39 2.36-4.23 7.04-1.86 10.44a7.484 7.484 0 0 0 6.16 3.21zM185.18 465.39c-4.02-1-8.08 1.44-9.08 5.47-1 4.02 1.45 8.08 5.46 9.08.61.15 1.22.23 1.82.23 3.36 0 6.42-2.28 7.27-5.7 1-4.02-1.45-8.09-5.47-9.08zm252.78-322.95a7.486 7.486 0 0 0 6.63 3.99c1.19 0 2.39-.28 3.51-.88 3.66-1.94 5.05-6.48 3.11-10.14s-6.48-5.05-10.14-3.11-5.05 6.48-3.11 10.14zm19.36 50.48a7.506 7.506 0 0 0 7.27 5.69c.6 0 1.21-.08 1.82-.23 4.02-1 6.46-5.07 5.46-9.09s-5.07-6.47-9.09-5.46c-4.02 1-6.47 5.07-5.46 9.09zm-69.61 223.21c-3.11 2.73-3.41 7.47-.68 10.58a7.464 7.464 0 0 0 5.64 2.55c1.75 0 3.52-.62 4.95-1.87a7.49 7.49 0 0 0 .67-10.58 7.49 7.49 0 0 0-10.58-.68zm61.46-249.04a7.512 7.512 0 0 0 7.01 4.81c.89 0 1.8-.16 2.68-.49 3.87-1.49 5.8-5.83 4.32-9.69a7.505 7.505 0 0 0-9.69-4.32 7.505 7.505 0 0 0-4.32 9.69zm9.61 156.74a7.507 7.507 0 0 0-9.7 4.3c-1.48 3.87.44 8.21 4.31 9.69.88.35 1.8.51 2.69.51 3.02 0 5.86-1.83 7-4.81 1.49-3.86-.44-8.2-4.3-9.69zM448 349.64a7.501 7.501 0 1 0-3.53 14.12c2.68 0 5.28-1.44 6.62-3.98 1.95-3.66.56-8.2-3.09-10.14zM387.85 78.99a7.427 7.427 0 0 0 4.95 1.87c2.08.01 4.15-.85 5.63-2.54 2.74-3.11 2.44-7.85-.67-10.58-3.1-2.74-7.84-2.44-10.58.67a7.49 7.49 0 0 0 .67 10.58zm29.67 317.47a7.5 7.5 0 0 0-10.59.6c-2.76 3.08-2.49 7.82.59 10.59a7.534 7.534 0 0 0 5 1.9c2.06 0 4.11-.84 5.59-2.5 2.76-3.09 2.5-7.83-.59-10.59zm-4.86-295.88c1.77 0 3.56-.62 4.99-1.9a7.5 7.5 0 0 0 .6-10.59 7.5 7.5 0 0 0-10.59-.6 7.5 7.5 0 0 0-.6 10.59 7.465 7.465 0 0 0 5.6 2.5zm21.51 273.39c-3.4-2.38-8.07-1.54-10.44 1.85-2.37 3.4-1.54 8.08 1.86 10.45a7.497 7.497 0 0 0 10.44-1.86 7.494 7.494 0 0 0-1.86-10.44zM131.43 49.65c1.18 0 2.37-.27 3.49-.86a7.512 7.512 0 0 0 3.13-10.14c-1.93-3.66-6.47-5.06-10.13-3.13-3.66 1.93-5.07 6.47-3.13 10.13a7.48 7.48 0 0 0 6.64 4zM30.52 146.36a7.494 7.494 0 0 0 10.12-3.15c1.93-3.67.52-8.2-3.14-10.13-3.67-1.93-8.21-.52-10.13 3.15-1.93 3.66-.52 8.2 3.15 10.13zM8.27 226.88c.31.04.61.06.91.06 3.74 0 6.98-2.8 7.44-6.61.49-4.11-2.44-7.85-6.55-8.34a7.487 7.487 0 0 0-8.34 6.55c-.5 4.11 2.43 7.84 6.54 8.34zm35.95-104.92a7.513 7.513 0 0 0 10.44-1.9v-.01c2.35-3.4 1.5-8.07-1.91-10.43-3.41-2.35-8.08-1.5-10.43 1.91-2.36 3.41-1.51 8.08 1.9 10.43zM12.41 199.2c.6.14 1.2.22 1.79.22 3.37 0 6.44-2.29 7.28-5.71a7.503 7.503 0 1 0-9.07 5.49zM292.77 29.35h-.01a7.517 7.517 0 0 0 9.07-5.52c.98-4.02-1.49-8.08-5.52-9.06-4.02-.98-8.08 1.49-9.06 5.52-.98 4.02 1.49 8.08 5.52 9.06zM239.08 23h.01c4.14-.01 7.49-3.38 7.49-7.52-.01-4.14-3.38-7.49-7.52-7.48-4.14 0-7.49 3.37-7.48 7.51a7.5 7.5 0 0 0 7.5 7.49zm-79.72 434.27c-3.86-1.48-8.2.46-9.68 4.33s.46 8.2 4.33 9.68c.88.34 1.78.5 2.67.5 3.02 0 5.87-1.84 7.01-4.82a7.507 7.507 0 0 0-4.33-9.69zM266.13 24.55c.3.04.59.05.89.05 3.75 0 6.98-2.8 7.43-6.62a7.484 7.484 0 0 0-6.56-8.32c-4.12-.49-7.85 2.45-8.33 6.56a7.489 7.489 0 0 0 6.57 8.33zm-82.49 5.22c.59 0 1.2-.07 1.8-.22 4.02-.99 6.48-5.06 5.48-9.08-.99-4.02-5.06-6.47-9.08-5.48-4.02.99-6.47 5.06-5.48 9.08.85 3.42 3.91 5.7 7.28 5.7zm-26.72 8.35c.89 0 1.79-.15 2.67-.49 3.87-1.47 5.82-5.81 4.34-9.68-1.47-3.87-5.81-5.81-9.68-4.34a7.496 7.496 0 0 0-4.33 9.68c1.13 2.99 3.98 4.83 7 4.83zm-49.41 26.06c1.47 0 2.96-.43 4.26-1.34a7.487 7.487 0 0 0 1.89-10.43c-2.36-3.41-7.03-4.26-10.43-1.9-3.41 2.36-4.26 7.04-1.9 10.44 1.46 2.1 3.8 3.23 6.18 3.23zM85.5 81.47c1.78 0 3.55-.62 4.98-1.89 3.1-2.75 3.38-7.49.63-10.59s-7.49-3.38-10.59-.63c-3.1 2.76-3.38 7.5-.62 10.59a7.466 7.466 0 0 0 5.6 2.52zm125.64-56.75c.31 0 .61-.02.92-.06 4.11-.5 7.04-4.24 6.54-8.35s-4.24-7.04-8.35-6.54c-4.11.5-7.04 4.24-6.54 8.35.46 3.81 3.7 6.6 7.43 6.6zM60.77 99.39a7.463 7.463 0 0 0 4.96 1.88c2.08 0 4.14-.85 5.62-2.53a7.488 7.488 0 0 0-.64-10.58c-3.1-2.75-7.84-2.46-10.59.64a7.502 7.502 0 0 0 .65 10.59zm-40.91 72.83c.87.33 1.77.49 2.66.49 3.02 0 5.87-1.85 7.01-4.84 1.47-3.87-.48-8.2-4.35-9.68-3.87-1.47-8.2.48-9.67 4.35-1.47 3.88.47 8.21 4.35 9.68zm40.78 223.24a7.49 7.49 0 0 0 4.97 13.11c1.76 0 3.53-.61 4.96-1.88 3.1-2.74 3.4-7.48.65-10.58a7.48 7.48 0 0 0-10.58-.65zm29.7 19.82c-3.09-2.75-7.83-2.47-10.59.62-2.75 3.1-2.47 7.84.62 10.59a7.484 7.484 0 0 0 4.98 1.9c2.07 0 4.13-.85 5.61-2.52a7.5 7.5 0 0 0-.62-10.59zm-49.8-63.68c-1.93-3.67-6.46-5.09-10.13-3.16-3.67 1.92-5.08 6.45-3.16 10.12a7.495 7.495 0 0 0 10.13 3.16 7.503 7.503 0 0 0 3.16-10.12zm3.56 21.26a7.506 7.506 0 0 0-1.91 10.43 7.494 7.494 0 0 0 6.18 3.25c1.47 0 2.95-.43 4.25-1.33a7.5 7.5 0 0 0 1.92-10.43c-2.35-3.41-7.03-4.27-10.44-1.92zm90.63 73.24c-3.66-1.94-8.2-.54-10.14 3.12-1.93 3.66-.53 8.2 3.13 10.14a7.503 7.503 0 0 0 10.14-3.13c1.93-3.66.53-8.2-3.13-10.13zM7.5 254.86c4.14 0 7.5-3.36 7.5-7.5 0-4.14-3.36-7.5-7.5-7.5-4.14 0-7.5 3.36-7.5 7.5 0 4.14 3.35 7.5 7.5 7.5zm104.11 177.17a7.507 7.507 0 0 0-10.44 1.88 7.506 7.506 0 0 0 1.89 10.44 7.41 7.41 0 0 0 4.27 1.34c2.37 0 4.71-1.12 6.17-3.22 2.36-3.4 1.51-8.08-1.89-10.44zM318.62 37.34c.88.32 1.77.48 2.65.48 3.03 0 5.88-1.85 7.02-4.86 1.46-3.87-.5-8.2-4.38-9.66-3.87-1.46-8.2.5-9.66 4.37-1.46 3.88.5 8.21 4.37 9.67zM10.04 282.73a7.496 7.496 0 0 0 6.56-8.34c-.49-4.11-4.22-7.04-8.34-6.55-4.11.49-7.05 4.22-6.55 8.33.45 3.81 3.69 6.61 7.43 6.61.3 0 .6-.01.9-.05zM343.31 48.39c1.11.58 2.3.86 3.47.86 2.7 0 5.31-1.47 6.65-4.03 1.92-3.67.5-8.21-3.17-10.12-3.67-1.92-8.2-.5-10.12 3.17s-.5 8.2 3.17 10.12zM21.42 301.03a7.495 7.495 0 0 0-9.06-5.51 7.51 7.51 0 0 0-5.51 9.07 7.505 7.505 0 0 0 7.28 5.72c.59 0 1.19-.07 1.79-.22 4.02-.98 6.49-5.04 5.5-9.06zm8.02 25.87c-1.46-3.88-5.79-5.83-9.67-4.37a7.509 7.509 0 0 0-4.36 9.67c1.14 3 3.99 4.85 7.02 4.85.88 0 1.78-.16 2.65-.49 3.87-1.46 5.83-5.79 4.36-9.66z"/><path d="M239.5 184.01a7.5 7.5 0 0 0 0 15c26.743 0 48.5 21.757 48.5 48.5a7.5 7.5 0 0 0 15 0c0-35.014-28.486-63.5-63.5-63.5z"/></svg>