<svg xmlns="http://www.w3.org/2000/svg" viewBox="0 0 511.032 511.032"><path d="M471.016 23.5c0-12.958-10.542-23.5-23.5-23.5-10.324 0-19.108 6.695-22.255 15.969h-246.67l-.146-.146a15.453 15.453 0 0 0-16.892-3.36 15.454 15.454 0 0 0-9.568 14.32v257.58l-27.777 27.777c-15.835 1.645-28.223 15.067-28.223 31.329 0 8.289 3.223 15.835 8.475 21.465-.159.445-.282.91-.356 1.395l-15.031 97.704H63.516c-12.958 0-23.5 10.542-23.5 23.5v16a7.5 7.5 0 0 0 7.5 7.5h280a7.5 7.5 0 0 0 7.5-7.5v-16c0-12.958-10.542-23.5-23.5-23.5h-52.83L154.427 359.774a31.27 31.27 0 0 0 4.387-13.028l27.777-27.777h257.58c6.292 0 11.912-3.756 14.32-9.568s1.089-12.443-3.36-16.892l-.146-.146V45.776c9.306-3.129 16.031-11.929 16.031-22.276zm-23.5-8.5c4.687 0 8.5 3.813 8.5 8.5 0 4.588-3.656 8.329-8.207 8.485-.108-.005-.215-.016-.325-.016-.099 0-.195.011-.293.015-4.536-.173-8.175-3.906-8.175-8.484 0-4.687 3.813-8.5 8.5-8.5zM322.121 159.498L427.02 54.668 378.083 215.46l-55.962-55.962zm-10.607-10.607l-56.02-56.02 161.157-49.048-105.137 105.068zM407.37 30.969L245.301 80.294a7.51 7.51 0 0 0-1.649.736l-50.061-50.061H407.37zm-240.077-4.648c.309-.128.418-.019.545.108l2.342 2.342.002.002 130.721 130.721-129.435 129.351-4.483-4.483V26.783c0-.179 0-.334.308-.462zm-49.126 347.24a31.395 31.395 0 0 0 9.318 1.407 31.4 31.4 0 0 0 9.378-1.426l13.921 90.489h-46.536l13.919-90.47zm201.849 113.971v8.5h-265v-8.5c0-4.687 3.813-8.5 8.5-8.5h248c4.687 0 8.5 3.813 8.5 8.5zm-154.056-23.5l-13.002-84.515 84.515 84.515H165.96zm-33.141-125.866a7.5 7.5 0 0 0-10.606 0 7.5 7.5 0 0 0 0 10.606l10.378 10.378c-1.61.526-3.323.818-5.106.818-9.098 0-16.5-7.402-16.5-16.5s7.402-16.5 16.5-16.5c9.098 0 16.499 7.401 16.5 16.499v.002c0 1.765-.286 3.464-.802 5.06l-10.364-10.363zm22.597-9.235a31.713 31.713 0 0 0-13.394-13.394l17.463-17.462 13.394 13.394-17.463 17.462zm289.217-25.271c-.128.309-.283.309-.462.309h-257.58l-4.516-4.516 129.436-129.351 130.67 130.67.002.002 2.342 2.342c.126.126.236.236.108.544zm-54.721-76.37a7.47 7.47 0 0 0 .748-1.637l49.325-162.068v213.778l-50.073-50.073z"/></svg>