<svg xmlns="http://www.w3.org/2000/svg" viewBox="0 0 504.003 504.003"><path d="M335.191 312.022c6.194 0 12.425-.31 18.668-.935 39.497-3.949 75.869-20.167 105.185-46.9 3.099-2.826 4.859-6.714 4.957-10.947a15.696 15.696 0 0 0-4.567-11.409l-52.435-52.435V67.609l21.803-21.803c.086-.085.16-.178.241-.266a23.35 23.35 0 0 0 10.456 2.463c12.958 0 23.5-10.542 23.5-23.5s-10.542-23.5-23.5-23.5-23.5 10.542-23.5 23.5c0 3.755.89 7.305 2.463 10.456-.089.081-.181.155-.266.241l-21.803 21.803H274.605L222.173 4.571c-3-3-7.155-4.667-11.413-4.567-4.235.098-8.124 1.859-10.949 4.958-27.305 29.944-43.597 67.125-47.116 107.525-3.333 38.265 5.587 77.183 25.141 109.974-5.96 6.781-9.634 15.61-9.818 25.282l-30.828 177.26h-17.692c-8.547 0-15.5 6.953-15.5 15.5v24.5h-24.5c-12.958 0-23.5 10.542-23.5 23.5v.5h-8.5a7.5 7.5 0 0 0 0 15h320a7.5 7.5 0 0 0 0-15h-8.5v-.5c0-12.958-10.542-23.5-23.5-23.5h-24.5v-24.5c0-8.547-6.953-15.5-15.5-15.5h-17.692L254.921 293.41c25.053 12.284 52.326 18.613 80.27 18.612zM439.498 16.003c4.687 0 8.5 3.813 8.5 8.5s-3.813 8.5-8.5 8.5-8.5-3.813-8.5-8.5 3.813-8.5 8.5-8.5zm-93.393 112.5l45.894-45.894v91.787l-45.894-45.893zm35.287-56.5l-45.894 45.894-45.894-45.894h91.788zM210.895 15.068c.039-.043.11-.066.211-.068.079 0 .293.012.46.178l54.627 54.627.003.002 127.997 127.998.003.002 54.63 54.63c.166.166.18.375.178.457-.003.15-.052.194-.068.208a171.36 171.36 0 0 1-9.884 8.348L202.562 24.96a167.9 167.9 0 0 1 8.333-9.892zm-17.131 22.307l232.897 232.897c-22.222 14.356-47.472 23.208-74.295 25.89-35.334 3.532-70.122-3.886-100.697-21.45l-4.69-26.968c-.407-21.43-17.955-38.741-39.481-38.741a39.242 39.242 0 0 0-17.702 4.205c-31.982-54.932-29.765-123.279 3.968-175.833zm13.734 186.628c13.509 0 24.5 10.991 24.5 24.5s-10.991 24.5-24.5 24.5-24.5-10.991-24.5-24.5 10.991-24.5 24.5-24.5zm136.5 264.5v.5h-273v-.5c0-4.687 3.813-8.5 8.5-8.5h256c4.687 0 8.5 3.813 8.5 8.5zm-48-48v24.5h-177v-24.5a.5.5 0 0 1 .5-.5h23.975l.034.001.033-.001h127.917l.033.001.034-.001h23.975a.5.5 0 0 1 .499.5zm-143.583-15.5l26.045-149.758c7.223 7.837 17.565 12.758 29.038 12.758s21.815-4.92 29.038-12.758l26.045 149.758H152.415z"/><path d="M207.504 256c1.97 0 3.9-.8 5.3-2.2a7.57 7.57 0 0 0 2.2-5.3c0-1.97-.81-3.9-2.2-5.3-1.4-1.4-3.33-2.2-5.3-2.2-1.98 0-3.91.8-5.31 2.2a7.56 7.56 0 0 0-2.19 5.3c0 1.98.8 3.91 2.19 5.3a7.547 7.547 0 0 0 5.31 2.2z"/></svg>