<svg xmlns="http://www.w3.org/2000/svg" viewBox="0 0 508.928 508.928"><path d="M254.464 172.928c21.78 0 39.5-17.72 39.5-39.5s-17.72-39.5-39.5-39.5-39.5 17.72-39.5 39.5 17.72 39.5 39.5 39.5zm0-64c13.509 0 24.5 10.991 24.5 24.5s-10.991 24.5-24.5 24.5-24.5-10.991-24.5-24.5 10.991-24.5 24.5-24.5z"/><path d="M437.862 500.195l-20.151-120.91c-2.715-16.287-9.386-31.877-19.292-45.084l-80.455-107.273v-101.5c0-19.903-5.772-61.385-44.428-115.589C269.143 3.678 262.013 0 254.464 0s-14.679 3.678-19.072 9.839c-38.656 54.204-44.428 95.686-44.428 115.589v101.5L110.51 334.201a103.944 103.944 0 0 0-19.292 45.084l-20.151 120.91a7.5 7.5 0 0 0 12.083 7.089l113.854-91.083.668 7.354c.916 10.077 7.963 18.088 17.292 20.563v25.31a7.5 7.5 0 0 0 7.5 7.5h24.5v24.5a7.5 7.5 0 0 0 15 0v-24.5h24.5a7.5 7.5 0 0 0 7.5-7.5v-25.31c9.329-2.475 16.376-10.486 17.292-20.562l.669-7.355 113.854 91.083a7.493 7.493 0 0 0 8.48.613 7.5 7.5 0 0 0 3.603-7.702zM247.605 18.548c1.608-2.255 4.108-3.548 6.859-3.548s5.251 1.293 6.859 3.548c6.292 8.823 14.309 21.098 21.625 35.38h-56.97c7.318-14.282 15.335-26.557 21.627-35.38zm-28.655 50.38h71.029c7.468 17.572 12.986 37.106 12.986 56.5v216.5h-41v-112.5a7.5 7.5 0 0 0-15 0v112.5h-41v-216.5c-.001-19.394 5.517-38.928 12.985-56.5zm-25.171 330.644L89.084 483.327l16.929-101.576a88.86 88.86 0 0 1 16.496-38.55l68.455-91.273v97.5c0 .227.01.453.031.679l.008.087v.001l4.399 48.394a7.503 7.503 0 0 0-1.623.983zm12.898-42.644h40.287v73h-25.889a8.459 8.459 0 0 1-8.465-7.73l-5.933-65.27zm23.287 105v-17h17v17h-17zm32 0v-17h17v17h-17zm25.889-32h-25.889v-73h40.287l-5.934 65.27a8.457 8.457 0 0 1-8.464 7.73zm27.296-30.356a7.498 7.498 0 0 0-1.623-.982l4.399-48.394v-.001l.008-.087c.021-.226.031-.453.031-.679v-97.5l68.455 91.273a88.86 88.86 0 0 1 16.496 38.55l16.929 101.576-104.695-83.756z"/></svg>