<svg xmlns="http://www.w3.org/2000/svg" viewBox="0 0 511.002 511.002"><path d="M335.501 496h-2.205l-46.295-177.463V153.142c4.899-4.31 8-10.619 8-17.642V74.466a55.842 55.842 0 0 0-5.506-24.102l-20.292-42.09a7.29 7.29 0 0 0-.244-.463C266.165 2.92 261.134 0 255.501 0s-10.664 2.92-13.458 7.811a7.843 7.843 0 0 0-.244.463l-20.292 42.091a55.824 55.824 0 0 0-5.506 24.102V135.5c0 7.023 3.101 13.332 8 17.642v165.396L177.706 496h-2.205a7.5 7.5 0 0 0 0 15h7.978l.027.002.021-.002h95.949l.016.001.011-.001h47.973l.021.002.027-.002h7.978a7.5 7.5 0 1 0-.001-15zm-96.5-176.5V231h33v157.013l-9.063-69.482a7.5 7.5 0 0 0-14.874 0l-9.063 69.482V319.5zm16.5 57.987L266.785 464h-22.568l11.284-86.513zm31.5.475L309.446 464h-22.445v-86.038zm-15-161.962h-33v-33h33v33zM242.26 479h26.481l2.218 17h-30.917l2.218-17zm44.741 0h24.5a7.52 7.52 0 0 0 1.799-.226L317.793 496h-30.792v-17zm-56-343.5V74.466c0-1.162.067-2.324.168-3.483.111.005.22.017.332.017h48c.112 0 .221-.012.332-.017.101 1.159.168 2.321.168 3.483V135.5c0 4.687-3.813 8.5-8.5 8.5h-32c-4.687 0-8.5-3.813-8.5-8.5zM255.14 15.143c.064-.075.167-.143.361-.143s.297.067.361.143L275.56 56h-40.117l19.697-40.857zM239.501 159h32c.168 0 .333-.009.5-.013V168h-33v-9.013c.167.004.332.013.5.013zm-15.5 305h-22.445l22.445-86.038V464zm-26.299 14.774a7.507 7.507 0 0 0 1.799.226h24.5v17h-30.792l4.493-17.226z"/></svg>