<svg xmlns="http://www.w3.org/2000/svg" viewBox="0 0 511.002 511.002"><path d="M342.777 501.681l-7.776-31.102V319.5c0-.24-.013-.479-.036-.716-.01-.1-.027-.198-.04-.297-.018-.133-.036-.267-.061-.399-.023-.119-.052-.235-.08-.353a6.235 6.235 0 0 0-.203-.692c-.02-.059-.035-.119-.057-.177l-23.522-62.727v-79.782c0-15.878-2.254-31.658-6.7-46.9L270.405 11.242C268.483 4.518 262.494 0 255.501 0s-12.982 4.518-14.893 11.202L206.7 127.457a167.44 167.44 0 0 0-6.7 46.9v79.782l-23.522 62.727c-.022.058-.037.118-.057.177a7.444 7.444 0 0 0-.119.366c-.031.108-.057.217-.084.326-.028.117-.058.233-.08.353-.025.132-.043.266-.061.399-.013.1-.031.197-.04.297a7.446 7.446 0 0 0-.036.716v151.079l-7.776 31.102a7.499 7.499 0 0 0 7.276 9.32h111.974l.02.002.028-.002h47.978a7.5 7.5 0 0 0 7.276-9.32zM287.001 464V327h33v137h-33zm-96-137h33v137h-33V327zm24-152.643c0-2.461.082-4.918.2-7.373.1.004.199.015.3.015h80c.101 0 .199-.011.3-.015.119 2.454.2 4.911.2 7.373V176h-81v-1.643zm24 289.643V327h33v137h-33zm3.322-152l13.177-35.14L268.678 312h-26.355zm61.178-35.14L316.678 312h-26.355l13.178-35.14zm-7.5-85.86v63.14l-16.5 44-16.978-45.273a7.5 7.5 0 0 0-14.044 0l-16.978 45.273-16.5-44V191h81zm-88.5 85.86L220.678 312h-26.355l13.178-35.14zM273.645 479l4.25 17h-44.788l4.25-17h36.288zM255.021 15.363c.069-.242.104-.363.481-.363s.412.121.492.402L272.501 72h-34l16.52-56.637zM234.126 87h42.75l13.025 44.657A152.561 152.561 0 0 1 294.342 152h-77.681a152.405 152.405 0 0 1 4.441-20.343L234.126 87zm-44.769 392h32.538l-4.25 17h-32.539l4.251-17zm103.999 17l-4.25-17h32.538l4.25 17h-32.538z"/><path d="M247.501 119h16a7.5 7.5 0 0 0 0-15h-16a7.5 7.5 0 0 0 0 15z"/></svg>