<svg xmlns="http://www.w3.org/2000/svg" viewBox="0 0 511 511"><path d="M487.5 136h-112c-12.958 0-23.5 10.542-23.5 23.5V264h-17v-48.5c0-8.547-6.953-15.5-15.5-15.5H263v-17.297c23.236-1.675 45.187-11.072 62.468-26.935 19.013-17.451 30.768-41.162 33.101-66.766a15.646 15.646 0 0 0-4.019-11.941A15.552 15.552 0 0 0 343.093 72h-44.486L263 36.394V7.5a7.5 7.5 0 0 0-15 0v28.894L212.394 72h-44.486a15.556 15.556 0 0 0-11.458 5.061 15.646 15.646 0 0 0-4.019 11.941c2.333 25.604 14.088 49.315 33.101 66.766 17.282 15.863 39.232 25.26 62.468 26.935V200h-56.5c-8.547 0-15.5 6.953-15.5 15.5V264h-17V159.5c0-12.958-10.542-23.5-23.5-23.5h-112C10.542 136 0 146.542 0 159.5v224C0 396.458 10.542 407 23.5 407h112c12.958 0 23.5-10.542 23.5-23.5V279h17v112.5c0 12.958 10.542 23.5 23.5 23.5H224v17h-.5c-8.547 0-15.5 6.953-15.5 15.5v48c0 8.547 6.953 15.5 15.5 15.5h64c8.547 0 15.5-6.953 15.5-15.5v-48c0-8.547-6.953-15.5-15.5-15.5h-.5v-17h24.5c12.958 0 23.5-10.542 23.5-23.5V279h17v104.5c0 12.958 10.542 23.5 23.5 23.5h112c12.958 0 23.5-10.542 23.5-23.5v-224c0-12.958-10.542-23.5-23.5-23.5zm-232-85.894L277.394 72h-43.787L255.5 50.106zm-88.131 37.536a.59.59 0 0 1 .157-.467c.16-.175.321-.175.381-.175h175.186c.061 0 .221 0 .381.175a.587.587 0 0 1 .157.467c-1.993 21.882-12.046 42.151-28.305 57.075C298.968 159.731 277.721 168 255.5 168s-43.468-8.269-59.826-23.283c-16.259-14.924-26.312-35.194-28.305-57.075zM15 279h57v49H15v-49zm0-15v-49h57v49H15zm72-49h57v49H87v-49zm57-55.5V200H87v-48.5c0-.169-.014-.334-.025-.5H135.5c4.687 0 8.5 3.813 8.5 8.5zM23.5 151h48.525c-.011.166-.025.331-.025.5V200H15v-40.5c0-4.687 3.813-8.5 8.5-8.5zM15 383.5V343h57v48.5c0 .169.014.334.025.5H23.5c-4.687 0-8.5-3.813-8.5-8.5zm120.5 8.5H86.975c.011-.166.025-.331.025-.5V343h57v40.5c0 4.687-3.813 8.5-8.5 8.5zm8.5-64H87v-49h57v49zm144 72h-65V263.5c0-9.098 7.402-16.5 16.5-16.5h32c9.098 0 16.5 7.402 16.5 16.5V400zm0 47.5v48a.5.5 0 0 1-.5.5H263v-24.5a7.5 7.5 0 0 0-15 0V496h-24.5a.5.5 0 0 1-.5-.5v-48a.5.5 0 0 1 .5-.5h64a.5.5 0 0 1 .5.5zM272 432h-33v-17h33v17zm48-40.5c0 4.687-3.813 8.5-8.5 8.5H303V263.5c0-17.369-14.131-31.5-31.5-31.5h-32c-17.369 0-31.5 14.131-31.5 31.5V400h-8.5c-4.687 0-8.5-3.813-8.5-8.5v-176a.5.5 0 0 1 .5-.5h128a.5.5 0 0 1 .5.5v176zM496 279v49h-57v-49h57zm-57-15v-49h57v49h-57zm57-104.5V200h-57v-48.5c0-.169-.014-.334-.025-.5H487.5c4.687 0 8.5 3.813 8.5 8.5zM375.5 151h48.525c-.011.166-.025.331-.025.5V200h-57v-40.5c0-4.687 3.813-8.5 8.5-8.5zm-8.5 64h57v49h-57v-49zm57 64v49h-57v-49h57zm-57 104.5V343h57v48.5c0 .169.014.334.025.5H375.5c-4.687 0-8.5-3.813-8.5-8.5zm120.5 8.5h-48.525c.011-.166.025-.331.025-.5V343h57v40.5c0 4.687-3.813 8.5-8.5 8.5z"/></svg>