<svg xmlns="http://www.w3.org/2000/svg" viewBox="0 0 511 511"><path d="M495.5 220h-176c-.169 0-.333.02-.5.025V203.5c0-.338-.03-.668-.073-.995-.01-.075-.022-.149-.034-.225a7.599 7.599 0 0 0-.209-.933l-.007-.027a7.42 7.42 0 0 0-.362-.942c-.026-.057-.054-.113-.081-.169a7.505 7.505 0 0 0-.477-.844c-.006-.009-.009-.018-.015-.026l-.013-.02-.016-.023-11.222-16.833a23.45 23.45 0 0 0-11.49-9.033V163h16.5a7.5 7.5 0 0 0 7.5-7.5v-18.584a15.425 15.425 0 0 0-9.744-14.391l-33.539-13.416A15.427 15.427 0 0 0 269.96 108H263v-9h16.5a7.5 7.5 0 0 0 0-15h-48a7.5 7.5 0 0 0 0 15H248v9h-6.96c-1.981 0-3.918.373-5.757 1.108l-33.54 13.417a15.425 15.425 0 0 0-9.744 14.391V155.5a7.5 7.5 0 0 0 7.5 7.5H216v10.432a23.447 23.447 0 0 0-11.488 9.032l-11.225 16.835-.013.019-.014.021-.017.03a7.415 7.415 0 0 0-.474.839c-.028.057-.056.113-.083.171a7.606 7.606 0 0 0-.362.94l-.007.028a7.325 7.325 0 0 0-.209.932c-.012.075-.024.149-.034.225a7.59 7.59 0 0 0-.073.995v16.525c-.167-.005-.331-.025-.5-.025h-176C6.953 220 0 226.953 0 235.5v64c0 8.547 6.953 15.5 15.5 15.5h176c.169 0 .333-.02.5-.025V355.5a7.5 7.5 0 0 0 7.5 7.5h1.379l5.426 43.415C207.772 418.15 217.797 427 229.625 427h51.751c11.827 0 21.852-8.85 23.318-20.585L310.121 363h1.379a7.5 7.5 0 0 0 7.5-7.5v-40.525c.167.005.331.025.5.025h176c8.547 0 15.5-6.953 15.5-15.5v-64c0-8.547-6.953-15.5-15.5-15.5zm-176 15h176a.5.5 0 0 1 .5.5V260H319v-24.5a.5.5 0 0 1 .5-.5zM304 348h-97V211h17v25.025c-4.454.261-8 3.957-8 8.475v46c0 4.518 3.546 8.214 8 8.475V331.5a7.5 7.5 0 0 0 15 0V299h33v32.5a7.5 7.5 0 0 0 15 0v-32.525c4.454-.261 8-3.957 8-8.475v-46c0-4.518-3.546-8.214-8-8.475V211h17v137zm-79.936-161h62.872a8.483 8.483 0 0 1 7.073 3.785l3.477 5.215h-83.971l3.477-5.215a8.483 8.483 0 0 1 7.072-3.785zM231 284v-33h49v33h-49zm41-48h-33v-25h33v25zm-65-99.084c0-.205.123-.388.314-.464l33.54-13.417a.496.496 0 0 1 .186-.036h28.918c.064 0 .126.012.186.036l33.541 13.416a.497.497 0 0 1 .314.464V148h-97v-11.084zM280 163v9h-49v-9h49zM15.5 235h176a.5.5 0 0 1 .5.5V260H15v-24.5a.5.5 0 0 1 .5-.5zm176 65h-176a.5.5 0 0 1-.5-.5V275h177v24.5a.5.5 0 0 1-.5.5zm98.31 104.554a8.514 8.514 0 0 1-8.435 7.446h-51.751a8.514 8.514 0 0 1-8.435-7.445L215.996 363h79.009l-5.195 41.554zM495.5 300h-176a.5.5 0 0 1-.5-.5V275h177v24.5a.5.5 0 0 1-.5.5z"/></svg>