<svg xmlns="http://www.w3.org/2000/svg" viewBox="0 0 501.831 501.831"><path d="M499.459 147.962c-9.262-22.359-43.498-30.908-99.015-24.726-19.926 2.22-41.725 6.263-64.713 11.927-24.715-18.164-53.961-27.748-84.825-27.748-70.871 0-131.202 52.036-141.841 121.639-20.255 12.247-38.525 24.8-54.181 37.318-43.627 34.882-61.792 65.138-52.53 87.498 6.754 16.306 26.538 25.222 58.8 26.5 2.636.104 5.344.156 8.127.156 26.57 0 59.742-4.755 96.725-13.866 24.098 17.672 53.629 27.756 84.899 27.756 71.702 0 131.291-52.861 141.841-121.659 36.221-21.898 65.296-44.275 84.165-64.795 21.685-23.583 29.27-43.769 22.548-60zm-248.552-25.547c23.361 0 45.686 6.127 65.398 17.843-31.179 8.66-64.109 20.064-97.239 33.787-33.125 13.721-64.469 28.94-92.636 44.86 14.344-55.987 65.306-96.49 124.477-96.49zm0 257c-28.861 0-56.073-9.586-78.003-26.326a7.549 7.549 0 0 0-1.238-.959 128.177 128.177 0 0 1-23.903-24.534 7.376 7.376 0 0 0-.619-.831 128.972 128.972 0 0 1-14.027-24.456c2.131-2.479 9.525-9.336 33.837-22.732 21.575-11.889 50.048-25.309 80.175-37.787 30.127-12.479 59.749-23.124 83.412-29.973 26.723-7.736 36.786-8.101 40.023-7.85a127.048 127.048 0 0 1 7.426 27.74c.012.086.02.172.035.257a129.896 129.896 0 0 1 1.384 18.95c-.002 70.856-57.647 128.501-128.502 128.501zm214.964-181.608c-16.292 17.718-40.865 37.056-71.505 56.33.024-1.072.041-2.145.041-3.222 0-5.574-.325-11.099-.951-16.565 40.97-27.005 58.483-48.542 52.061-64.045-3.946-9.527-15.261-14.186-34.589-14.243h-.022a7.5 7.5 0 0 0-.022 15c14.788.044 20.017 3.153 20.775 4.983.684 1.65-.505 6.935-9.295 16.281-7.17 7.623-18.028 16.456-31.712 25.831a142.34 142.34 0 0 0-7.086-22.027c-.019-.047-.031-.096-.051-.143-.02-.048-.044-.092-.064-.139-.109-.263-.212-.529-.323-.792a7.47 7.47 0 0 0-3.509-3.761c-6.658-4.241-20.63-2.822-46.514 4.22-25.29 6.881-57.863 18.393-91.717 32.416-33.854 14.023-65.027 28.915-87.775 41.932-29.591 16.934-39.162 26.685-35.313 35.979.049.119.117.224.172.339.065.199.133.397.216.593a144.502 144.502 0 0 0 10.246 19.79c-43.922 8.218-57.529 2.236-58.778-.779-.629-1.518.349-6.359 8.003-14.877 7.712-8.582 20.413-18.872 36.728-29.758a7.5 7.5 0 0 0-8.325-12.477c-40.225 26.839-56.666 47.398-50.265 62.853 3.927 9.481 15.774 14.227 35.381 14.227 12.447 0 28.032-1.919 46.688-5.75a143.198 143.198 0 0 0 13.307 14.646c-35.062 7.98-65.933 11.683-89.924 10.732-25.169-.998-41.341-7.125-45.536-17.252-6.164-14.879 11.795-41.063 48.039-70.042 15.865-12.685 34.523-25.424 55.289-37.84a7.57 7.57 0 0 0 .612-.368c30.961-18.466 66.584-36.207 104.653-51.976 138.308-57.29 248.449-64.005 260.794-34.201 4.171 10.07-2.836 25.733-19.729 44.105z"/><path d="M377.687 159.184a379.711 379.711 0 0 0-16.32 3.073 7.5 7.5 0 0 0 3.085 14.679 362.46 362.46 0 0 1 15.67-2.952 7.5 7.5 0 1 0-2.435-14.8zm-48.778 11.036c-30.248 8.368-63.913 20.114-97.357 33.967-34.96 14.481-68.291 30.677-96.388 46.837a7.5 7.5 0 0 0 7.478 13.003c27.547-15.843 60.276-31.744 94.649-45.981 32.887-13.623 65.951-25.161 95.617-33.369a7.5 7.5 0 0 0-3.999-14.457zm24.94 97.393a7.5 7.5 0 0 0-9.023 5.575c-5.005 21.193-17.27 40.298-34.533 53.796a7.5 7.5 0 0 0 9.239 11.817c19.938-15.589 34.105-37.666 39.892-62.164a7.502 7.502 0 0 0-5.575-9.024zm-65.771 72.385a95.965 95.965 0 0 1-14.895 4.834 7.5 7.5 0 0 0 3.448 14.598 111.138 111.138 0 0 0 17.229-5.592 7.5 7.5 0 1 0-5.782-13.84z"/></svg>