<svg xmlns="http://www.w3.org/2000/svg" viewBox="0 0 511 511"><path d="M426.058 319.452l-65.137-65.137C344.206 237.599 335 215.375 335 191.735v-9.039c0-16.961-6.605-32.908-18.599-44.901L303 124.394V47.5C303 21.309 281.691 0 255.5 0S208 21.309 208 47.5v76.894l-13.401 13.401C182.605 149.788 176 165.734 176 182.696v9.039c0 23.64-9.206 45.864-25.921 62.579l-65.137 65.137C71.438 332.956 64 350.911 64 370.01v53.49c0 12.958 10.542 23.5 23.5 23.5h99.463l-2.953 56.105A7.503 7.503 0 0 0 191.5 511h128a7.498 7.498 0 0 0 7.49-7.895L324.037 447H423.5c12.958 0 23.5-10.542 23.5-23.5v-53.49c0-19.098-7.437-37.054-20.942-50.558zM214.68 359H248v105h-46.911l5.102-96.946A8.5 8.5 0 0 1 214.68 359zm48.32 0h33.32a8.498 8.498 0 0 1 8.488 8.054L309.911 464H263V359zm-7.5-344c17.92 0 32.5 14.579 32.5 32.5V344h-65V47.5c0-17.921 14.58-32.5 32.5-32.5zm-168 417c-4.687 0-8.5-3.813-8.5-8.5v-53.49c0-15.092 5.877-29.28 16.548-39.952l65.137-65.137C180.234 245.373 191 219.382 191 191.735v-9.039c0-12.955 5.045-25.135 14.205-34.295l2.795-2.795v199.359c-9.312 2.756-16.252 11.129-16.788 21.299L189.437 400H103.5a7.5 7.5 0 0 0 0 15h85.147l-.895 17H87.5zm112.8 47H248v17h-48.595l.895-17zm62.7 17v-17h47.7l.895 17H263zm169-72.5c0 4.687-3.813 8.5-8.5 8.5H323.247l-.895-17H407.5a7.5 7.5 0 0 0 0-15h-85.937l-1.776-33.735c-.535-10.169-7.475-18.543-16.788-21.299v-199.36l2.794 2.795c9.161 9.161 14.206 21.34 14.206 34.295v9.039c0 27.646 10.766 53.637 30.314 73.186l65.137 65.137c10.673 10.671 16.55 24.86 16.55 39.952v53.49z"/><path d="M242.5 73.702a32.26 32.26 0 0 1 13-2.702c4.527 0 8.905.911 13.011 2.707a7.48 7.48 0 0 0 3.002.631 7.502 7.502 0 0 0 3.009-14.374A47.18 47.18 0 0 0 255.5 56c-6.604 0-12.999 1.332-19.007 3.958a7.5 7.5 0 0 0 6.007 13.744z"/></svg>