<svg xmlns="http://www.w3.org/2000/svg" viewBox="0 0 511 511"><path d="M495.5 16h-176c-8.547 0-15.5 6.953-15.5 15.5V48h-9V23.5C295 10.542 284.458 0 271.5 0h-32C226.542 0 216 10.542 216 23.5V48h-9V31.5c0-8.547-6.953-15.5-15.5-15.5h-176C6.953 16 0 22.953 0 31.5v48C0 88.047 6.953 95 15.5 95h176c8.547 0 15.5-6.953 15.5-15.5V63h9v48.5a7.5 7.5 0 0 0 7.5 7.5h8.5v17h-5.185a15.394 15.394 0 0 0-10.96 4.54l-19.316 19.315A15.4 15.4 0 0 0 192 170.814v100.685c0 .292.021.578.053.861.008.066.021.13.03.195.032.226.073.449.125.669.007.03.01.061.017.091l8 32.003a7.499 7.499 0 0 0 7.276 5.681H232v15.284l-14.793 44.381a23.44 23.44 0 0 0-1.207 7.432V432h-9v-16.5c0-8.547-6.953-15.5-15.5-15.5h-128c-8.547 0-15.5 6.953-15.5 15.5v48c0 8.547 6.953 15.5 15.5 15.5h128c8.547 0 15.5-6.953 15.5-15.5V447h9v48.5c0 8.547 6.953 15.5 15.5 15.5h48c8.547 0 15.5-6.953 15.5-15.5V447h9v16.5c0 8.547 6.953 15.5 15.5 15.5h128c8.547 0 15.5-6.953 15.5-15.5v-48c0-8.547-6.953-15.5-15.5-15.5h-128c-8.547 0-15.5 6.953-15.5 15.5V432h-9v-53.904c0-2.532-.406-5.032-1.206-7.432v.001L279 326.281V311h24.5a7.5 7.5 0 0 0 7.276-5.681l8-32.003c.008-.03.01-.061.017-.092a7.33 7.33 0 0 0 .124-.667c.009-.066.022-.131.03-.197.032-.283.053-.569.053-.86V170.814a15.4 15.4 0 0 0-4.54-10.961l-19.317-19.315a15.398 15.398 0 0 0-10.959-4.539H279v-16.5c0-.169-.014-.334-.025-.5h8.525a7.5 7.5 0 0 0 7.5-7.5V63h9v16.5c0 8.547 6.953 15.5 15.5 15.5h176c8.547 0 15.5-6.953 15.5-15.5v-48c0-8.547-6.953-15.5-15.5-15.5zM192 31.5V48h-33V31h32.5a.5.5 0 0 1 .5.5zM96 63v17H63V63h33zM63 48V31h33v17H63zm48 15h33v17h-33V63zm0-15V31h33v17h-33zM15.5 31H48v17H15V31.5a.5.5 0 0 1 .5-.5zM15 79.5V63h33v17H15.5a.5.5 0 0 1-.5-.5zm177 0a.5.5 0 0 1-.5.5H159V63h33v16.5zm0 336V432h-33v-17h32.5a.5.5 0 0 1 .5.5zM111 432v-17h33v17h-33zm33 15v17h-33v-17h33zm-80.5-32H96v17H63v-16.5a.5.5 0 0 1 .5-.5zm-.5 48.5V447h33v17H63.5a.5.5 0 0 1-.5-.5zm129 0a.5.5 0 0 1-.5.5H159v-17h33v16.5zm127 0V447h33v17h-32.5a.5.5 0 0 1-.5-.5zm81-16.5v17h-33v-17h33zm-33-15v-17h33v17h-33zm80.5 32H415v-17h33v16.5a.5.5 0 0 1-.5.5zm.5-48.5V432h-33v-17h32.5a.5.5 0 0 1 .5.5zm-129 0a.5.5 0 0 1 .5-.5H352v17h-33v-16.5zM239.5 15h32c4.687 0 8.5 3.813 8.5 8.5V32h-49v-8.5c0-4.687 3.813-8.5 8.5-8.5zm-14.591 200c3.374 13.759 15.806 24 30.591 24s27.216-10.241 30.591-24H304v49h-97v-49h17.909zM239 207.5c0-9.098 7.402-16.5 16.5-16.5s16.5 7.402 16.5 16.5-7.402 16.5-16.5 16.5-16.5-7.402-16.5-16.5zM266.095 335l11 33h-43.188l11-33h21.188zM280 495.5a.5.5 0 0 1-.5.5H263v-88.5a7.5 7.5 0 0 0-15 0V496h-16.5a.5.5 0 0 1-.5-.5V382.975c.166.011.331.025.5.025h48c.169 0 .334-.014.5-.025V495.5zM264 320h-17v-9h17v9zm-50.644-24l-4.25-17h92.787l-4.25 17h-84.287zm71.182-144.854l19.316 19.314c.094.094.146.22.146.354V200h-17.909c-3.374-13.759-15.806-24-30.591-24s-27.216 10.241-30.591 24H207v-29.186c0-.132.054-.261.146-.354l19.315-19.314a.501.501 0 0 1 .353-.146h57.369c.135 0 .261.052.355.146zM264 119.5V136h-17v-17h17.025c-.011.166-.025.331-.025.5zm16-15.5h-49V47h49v57zm216-72.5V48h-33V31h32.5a.5.5 0 0 1 .5.5zM400 63v17h-33V63h33zm-33-15V31h33v17h-33zm48 15h33v17h-33V63zm0-15V31h33v17h-33zm-96-16.5a.5.5 0 0 1 .5-.5H352v17h-33V31.5zm0 48V63h33v17h-32.5a.5.5 0 0 1-.5-.5zm176.5.5H463V63h33v16.5a.5.5 0 0 1-.5.5z"/></svg>