<svg xmlns="http://www.w3.org/2000/svg" viewBox="0 0 511 511"><path d="M423 71.5c0-.023-.003-.045-.003-.068a7.38 7.38 0 0 0-.031-.614c-.003-.033-.003-.067-.007-.1a7.345 7.345 0 0 0-.104-.678c-.017-.087-.041-.171-.061-.257a7.478 7.478 0 0 0-.102-.398 7.905 7.905 0 0 0-.221-.638 7.295 7.295 0 0 0-.283-.627c-.047-.093-.093-.186-.144-.277a6.943 6.943 0 0 0-.224-.368c-.042-.065-.08-.133-.124-.197a7.222 7.222 0 0 0-.404-.54c-.019-.023-.041-.045-.061-.068a7.416 7.416 0 0 0-.397-.437c-.047-.048-.097-.092-.146-.138a7.145 7.145 0 0 0-.352-.32c-.065-.055-.132-.107-.199-.16a8.148 8.148 0 0 0-.582-.417 8.656 8.656 0 0 0-.611-.355c-.032-.016-.061-.036-.093-.052L343 26.865V15.5C343 6.953 336.047 0 327.5 0h-144C174.953 0 168 6.953 168 15.5v11.365L92.146 64.792c-.032.016-.062.035-.093.052a7.527 7.527 0 0 0-.611.355 8.148 8.148 0 0 0-.582.417c-.067.053-.134.105-.199.16-.122.103-.238.21-.352.32-.048.046-.098.091-.146.138a7.416 7.416 0 0 0-.397.437l-.061.068a7.584 7.584 0 0 0-.404.54c-.044.064-.082.131-.124.197a7.678 7.678 0 0 0-.224.368c-.051.091-.097.184-.144.277a7.295 7.295 0 0 0-.283.627 7.651 7.651 0 0 0-.323 1.036c-.02.086-.044.17-.061.257-.044.224-.08.45-.104.678l-.007.1a7.358 7.358 0 0 0-.031.614c0 .023-.003.045-.003.068v368c0 .023.003.045.003.068.002.206.012.41.031.614.003.033.003.067.007.1.024.228.059.454.104.678.017.087.041.171.061.257.031.134.064.267.102.398a7.905 7.905 0 0 0 .221.638 7.295 7.295 0 0 0 .283.627c.047.093.093.186.144.277.07.125.146.247.224.368.042.065.08.133.124.197.126.185.26.366.404.54l.061.069c.126.15.258.296.396.436.048.048.098.093.146.139.114.109.23.217.351.319.065.055.132.107.199.16a8.148 8.148 0 0 0 .582.417 8.656 8.656 0 0 0 .611.355c.032.016.061.036.093.052L168 484.135V495.5c0 8.547 6.953 15.5 15.5 15.5h144c8.547 0 15.5-6.953 15.5-15.5v-11.365l75.854-37.927c.032-.016.062-.035.093-.052a7.527 7.527 0 0 0 .611-.355 8.148 8.148 0 0 0 .582-.417c.067-.053.134-.105.199-.16.121-.102.237-.21.351-.319.049-.047.099-.091.146-.139.138-.14.27-.286.396-.436.02-.023.042-.045.061-.069.143-.174.277-.354.404-.54.044-.064.082-.131.124-.197.077-.121.154-.243.224-.368.051-.091.097-.184.144-.277a7.295 7.295 0 0 0 .283-.627 7.651 7.651 0 0 0 .323-1.036c.02-.086.044-.17.061-.257.044-.224.08-.45.104-.678l.007-.1c.019-.203.029-.408.031-.614 0-.023.003-.045.003-.068V71.5zM263 432V294.675c44.75-3.817 80-41.454 80-87.175s-35.25-83.358-80-87.175V79h97v353h-97zm-112 0V79h97v41.325c-44.75 3.817-80 41.454-80 87.175s35.25 83.358 80 87.175V432h-97zm-48 0V79h33v353h-33zm216.5-217h8.113C324.102 249 297 276.102 263 279.613V271.5a7.5 7.5 0 0 0-15 0v8.113C214 276.102 186.898 249 183.387 215h8.113a7.5 7.5 0 0 0 0-15h-8.113c3.51-34 30.613-61.102 64.613-64.613v8.113a7.5 7.5 0 0 0 15 0v-8.113c34 3.51 61.102 30.613 64.613 64.613H319.5a7.5 7.5 0 0 0 0 15zM375 79h33v353h-33V79zM183.5 15h144a.5.5 0 0 1 .5.5V24H183v-8.5a.5.5 0 0 1 .5-.5zm-6.229 24H333.73l50 25H127.271l50-25zM327.5 496h-144a.5.5 0 0 1-.5-.5V487h145v8.5a.5.5 0 0 1-.5.5zm6.229-24H177.271l-50-25H383.73l-50.001 25z"/><path d="M271.5 160h-32c-17.369 0-31.5 14.131-31.5 31.5v32c0 17.369 14.131 31.5 31.5 31.5h32c17.369 0 31.5-14.131 31.5-31.5v-32c0-17.369-14.131-31.5-31.5-31.5zm16.5 63.5c0 9.098-7.402 16.5-16.5 16.5h-32c-9.098 0-16.5-7.402-16.5-16.5v-32c0-9.098 7.402-16.5 16.5-16.5h32c9.098 0 16.5 7.402 16.5 16.5v32z"/><path d="M255.5 184c-12.958 0-23.5 10.542-23.5 23.5s10.542 23.5 23.5 23.5 23.5-10.542 23.5-23.5-10.542-23.5-23.5-23.5zm0 32c-4.687 0-8.5-3.813-8.5-8.5s3.813-8.5 8.5-8.5 8.5 3.813 8.5 8.5-3.813 8.5-8.5 8.5z"/></svg>