<svg xmlns="http://www.w3.org/2000/svg" viewBox="0 0 511 511"><path d="M510.974 370.985c-.007-.098-.009-.196-.019-.293-.011-.101-.031-.202-.046-.302-.023-.156-.045-.313-.078-.466l-.005-.032c-18.803-85.659-52.978-155.851-78.335-199.65-23.469-40.537-43.503-66.096-49.491-73.445V75.5c0-12.958-10.542-23.5-23.5-23.5h-208C138.542 52 128 62.542 128 75.5v21.297c-5.987 7.349-26.022 32.908-49.491 73.445C53.152 214.041 18.977 284.233.174 369.892l-.005.032c-.033.153-.054.309-.078.466-.015.101-.035.202-.046.302-.01.096-.012.195-.019.293-.011.162-.024.324-.024.486l-.001.03v12.844c0 9.801 6.179 18.663 15.376 22.051l122.784 45.237a119.135 119.135 0 0 0 41.313 7.368h152.049c14.142 0 28.041-2.479 41.311-7.368l122.792-45.238c9.197-3.388 15.376-12.25 15.376-22.051V371.5l-.001-.03c-.003-.161-.016-.323-.027-.485zM15.841 388a8.45 8.45 0 0 1-.841-3.656V379h481v5.343a8.45 8.45 0 0 1-.841 3.657H15.841zm1.064-24c16.328-69.363 42.647-127.827 64.935-169h96.117c-6.354 12.117-9.957 25.895-9.957 40.5 0 48.248 39.252 87.5 87.5 87.5s87.5-39.252 87.5-87.5c0-14.605-3.602-28.383-9.956-40.5h96.117c22.288 41.173 48.607 99.637 64.935 169H16.905zM328 235.5c0 39.977-32.523 72.5-72.5 72.5S183 275.477 183 235.5s32.523-72.5 72.5-72.5 72.5 32.523 72.5 72.5zM151.5 67h208c4.687 0 8.5 3.813 8.5 8.5V92H143V75.5c0-4.687 3.813-8.5 8.5-8.5zm-12.449 40H371.95c6.298 7.83 25.653 32.869 47.761 71.105.359.62.725 1.264 1.087 1.895h-97.701c-16.061-19.526-40.398-32-67.596-32s-51.535 12.474-67.596 32H90.203c.362-.631.729-1.275 1.087-1.895 22.108-38.238 41.464-63.277 47.761-71.105zm228.596 330.557A104.177 104.177 0 0 1 331.522 444H179.473a104.189 104.189 0 0 1-36.127-6.443L49.551 403h411.896l-93.8 34.557z"/><path d="M255.5 180a7.5 7.5 0 0 0 0 15c22.332 0 40.5 18.168 40.5 40.5a7.5 7.5 0 0 0 15 0c0-30.603-24.897-55.5-55.5-55.5z"/></svg>