<svg xmlns="http://www.w3.org/2000/svg" viewBox="0 0 511 511"><path d="M383.271 301.032c-32.502-54.919-69.341-117.166-72.277-189.835a7.545 7.545 0 0 0-.176-1.314c-.965-27.303-6.014-52.771-14.483-72.533C286.012 13.265 271.51 0 255.5 0s-30.513 13.265-40.835 37.35c-8.469 19.762-13.518 45.23-14.482 72.534a7.464 7.464 0 0 0-.176 1.314c-2.937 72.669-39.775 134.916-72.277 189.834C102.118 344.307 80 381.68 80 415.5v32a7.5 7.5 0 0 0 6.509 7.434L176 466.866V503.5a7.5 7.5 0 0 0 7.5 7.5h48a7.5 7.5 0 0 0 7.5-7.5V479h9v24.5a7.5 7.5 0 0 0 15 0V479h9v24.5a7.5 7.5 0 0 0 7.5 7.5h48a7.5 7.5 0 0 0 7.5-7.5v-36.634l89.491-11.932A7.5 7.5 0 0 0 431 447.5v-32c0-33.82-22.118-71.193-47.729-114.468zm-7.177 17.341A7.483 7.483 0 0 0 376 319.5v67.185c0 8.159-6.09 15.181-14.167 16.334l-27.467 3.924c-1.462-4.042-5.327-6.943-9.867-6.943H311V189.602c14.744 43.645 37.96 82.907 59.362 119.07 1.936 3.27 3.847 6.501 5.732 9.701zM303.49 415H320v57.026c-.166-.011-.331-.025-.5-.025H287v-57h16.49zM224 471.49v.51h-32.5c-.169 0-.334.014-.5.025V415h33v56.49zm-24-281.888V400h-13.5c-4.54 0-8.404 2.901-9.867 6.943l-27.467-3.924C141.09 401.865 135 394.843 135 386.685V319.5c0-.384-.038-.759-.094-1.127 1.885-3.2 3.796-6.431 5.732-9.701 21.402-36.164 44.618-75.426 59.362-119.07zM95 440.934V415.5c0-20.806 10.376-44.569 25-71.15v42.334c0 15.575 11.627 28.981 27.045 31.184L176 422.005v29.729l-81-10.8zM191 496v-9.025c.166.011.331.025.5.025H224v9h-33zm72-32V327.5a7.5 7.5 0 0 0-15 0V464h-9v-53.5c0-5.79-4.71-10.5-10.5-10.5H215V119.5C215 57.917 236.344 15 255.5 15S296 57.917 296 119.5V400h-13.5c-5.79 0-10.5 4.71-10.5 10.5V464h-9zm24 32v-9h32.5c.169 0 .334-.014.5-.025V496h-33zm129-55.066l-81 10.8v-29.729l28.955-4.137C379.373 415.666 391 402.26 391 386.685v-42.334c14.624 26.581 25 50.343 25 71.149v25.434z"/><path d="M287 127.5v-20.964a7.505 7.505 0 0 0-1.854-4.937C277.591 92.957 266.785 88 255.5 88s-22.091 4.957-29.646 13.6a7.501 7.501 0 0 0-1.854 4.937V127.5a7.5 7.5 0 0 0 7.5 7.5h48a7.5 7.5 0 0 0 7.5-7.5zm-15-7.5h-33v-10.444c4.546-4.246 10.315-6.556 16.5-6.556s11.954 2.31 16.5 6.556V120z"/></svg>