<svg xmlns="http://www.w3.org/2000/svg" viewBox="0 0 511 511"><path d="M510.976 420.63a7.413 7.413 0 0 0-.039-1.469 71.479 71.479 0 0 0-10.339-34.276L275.581 14.696C271.283 7.624 263.776 3.402 255.5 3.402s-15.783 4.222-20.081 11.294L10.402 384.885A71.476 71.476 0 0 0 .063 419.161a7.413 7.413 0 0 0-.039 1.469c-.009.464-.024.928-.024 1.393v43.748c0 4.83 2.19 9.296 6.008 12.253 2.766 2.143 6.084 3.26 9.458 3.26 1.284 0 2.576-.162 3.849-.49l66.109-16.498 2.595 36.335a7.5 7.5 0 0 0 7.481 6.966h48a7.5 7.5 0 0 0 7.481-6.966l3.832-53.652 45.609-11.382H248v64.5a7.5 7.5 0 0 0 15 0v-64.5h47.578l45.609 11.382 3.832 53.652a7.5 7.5 0 0 0 7.481 6.966h48a7.5 7.5 0 0 0 7.481-6.966l2.595-36.336 66.05 16.483a15.4 15.4 0 0 0 13.366-2.755A15.397 15.397 0 0 0 511 465.77v-43.748c0-.464-.015-.928-.024-1.392zM248.236 22.487c1.578-2.596 4.226-4.085 7.264-4.085s5.686 1.489 7.263 4.085l225.018 370.189a56.474 56.474 0 0 1 6.938 17.41l-64.089-16.539.351-4.916c.007-.093.003-.186.006-.279.003-.085.013-.168.013-.254 0-.033-.005-.065-.005-.098a7.369 7.369 0 0 0-.02-.394c-.008-.122-.014-.245-.028-.365-.003-.025-.002-.049-.006-.074l-8-63.999a7.5 7.5 0 0 0-7.442-6.57h-48a7.5 7.5 0 0 0-7.442 6.57l-6.317 50.537-39.823-10.277-18.941-239.92a7.495 7.495 0 0 0-2.977-5.41l-22.399-16.8c-8.303-6.227-19.899-6.228-28.201 0l-22.4 16.8a7.502 7.502 0 0 0-2.977 5.41l-18.941 239.92-39.823 10.277-6.317-50.537a7.5 7.5 0 0 0-7.442-6.57h-48a7.5 7.5 0 0 0-7.442 6.57l-8 63.999-.006.074c-.014.121-.02.243-.028.365-.009.131-.018.262-.02.394 0 .033-.005.065-.005.098 0 .086.01.169.013.254.003.093 0 .186.006.279l.351 4.916-64.089 16.539a56.476 56.476 0 0 1 6.939-17.41L248.236 22.487zm166.768 358.111h-47.009l6.125-49h34.758l6.126 49zM248 136.549c-.619.341-1.224.717-1.8 1.149l-17.273 12.955 1.783-22.588L248 115.099v21.45zm15-21.451l17.29 12.967 1.783 22.588-17.273-12.955a15.381 15.381 0 0 0-1.8-1.15v-21.45zm-119.996 265.5H95.996l6.125-49h34.758l6.125 49zM15.625 466.256c-.072.017-.237.06-.431-.089-.194-.15-.194-.322-.194-.396v-39.863l66.457-17.15 2.882 40.349-68.714 17.149zm86.858 26.342l-6.929-97h47.891l-6.929 97h-34.033zm56.489-103.844l36.862-9.513-3.386 42.886-36.511 9.111 3.035-42.484zM263 420.598v-96.5a7.5 7.5 0 0 0-15 0v96.5h-40.385l19.738-250.015 27.847-20.885a.503.503 0 0 1 .6 0l27.847 20.885 19.738 250.015H263zm55.552 1.53l-3.386-42.886 36.862 9.512 3.035 42.485-36.511-9.111zm55.931 70.47l-6.929-97h47.891l-6.929 97h-34.033zm121.323-26.431c-.193.149-.359.106-.489.074l-68.656-17.133 2.882-40.349L496 425.909v39.863c0 .073 0 .245-.194.395z"/></svg>