<svg xmlns="http://www.w3.org/2000/svg" viewBox="0 0 479.002 479.002"><path d="M479.001 375.502c0-12.958-10.542-23.5-23.5-23.5h-4.525c18.367-34.487 28.025-73.11 28.025-112.5 0-32.909-6.555-64.794-19.483-94.769-12.485-28.949-30.323-54.823-53.017-76.903C359.767 22.359 298.076-1.711 232.775.095 195.03 1.13 157.882 11.386 124.914 29.811a23.666 23.666 0 0 0-6.413-3.188c-7.14-2.288-14.731-1.101-20.832 3.256L56.743 59.112C21.213 84.491.001 125.709.001 169.373v206.129a23.345 23.345 0 0 0 6.883 16.617 23.653 23.653 0 0 0 4.742 3.673l-2.305 3.458a55.319 55.319 0 0 0-9.32 30.784v41.468a7.5 7.5 0 0 0 7.5 7.5h464a7.5 7.5 0 0 0 7.5-7.5v-48a7.467 7.467 0 0 0-.93-3.616 55.333 55.333 0 0 0-8.391-20.636l-2.304-3.457a23.621 23.621 0 0 0 4.742-3.674 23.344 23.344 0 0 0 6.883-16.617zM233.186 15.089c61.205-1.667 119.047 20.87 162.855 63.492 43.825 42.639 67.96 99.789 67.96 160.921 0 39.636-10.425 78.438-30.181 112.5H313.287c-13.166 0-25.944-2.629-38.001-7.8a39.26 39.26 0 0 0 3.715-16.7c0-21.78-17.72-39.5-39.5-39.5a39.25 39.25 0 0 0-19.594 5.224L133.789 42.05c30.469-16.705 64.663-26.009 99.397-26.961zm6.315 287.913c13.509 0 24.5 10.991 24.5 24.5s-10.991 24.5-24.5 24.5-24.5-10.991-24.5-24.5 10.991-24.5 24.5-24.5zm-224.5-133.629c0-38.83 18.864-75.486 50.461-98.055l40.927-29.234a8.427 8.427 0 0 1 7.535-1.178 8.585 8.585 0 0 1 2.099 1.016 7.474 7.474 0 0 0 3.212 3.992c.043.111.096.217.135.331l88.384 257.786a39.288 39.288 0 0 0-7.753 23.471c0 21.78 17.72 39.5 39.5 39.5 10.42 0 19.903-4.062 26.969-10.678a7.5 7.5 0 0 0 1.966 1.264c14.208 6.247 29.298 9.414 44.851 9.414h124.764l.037.002.039-.002h17.375c4.687 0 8.5 3.813 8.5 8.5a8.44 8.44 0 0 1-2.49 6.01 8.442 8.442 0 0 1-6.009 2.489H23.529l-.029-.002a8.442 8.442 0 0 1-6.01-2.489 8.442 8.442 0 0 1-2.489-6.009V169.373zm0 277.629h240.5a7.5 7.5 0 0 0 0-15h-240.5v-1.968c0-8.021 2.352-15.79 6.801-22.464l5.712-8.568h423.973l5.712 8.568a40.524 40.524 0 0 1 4.281 8.432h-93.979c-12.958 0-23.5 10.542-23.5 23.5v24.5h-329v-17zm449 17h-105v-24.5c0-4.687 3.813-8.5 8.5-8.5h96.5v33z"/><path d="M324.807 434.202a7.55 7.55 0 0 0-5.31-2.2c-1.97 0-3.9.8-5.3 2.2-1.39 1.39-2.19 3.32-2.19 5.3s.8 3.91 2.19 5.3c1.4 1.4 3.33 2.2 5.3 2.2 1.98 0 3.91-.8 5.31-2.2a7.552 7.552 0 0 0 2.2-5.3 7.575 7.575 0 0 0-2.2-5.3zm-37.31-2.2c-1.97 0-3.9.8-5.3 2.2a7.528 7.528 0 0 0-2.2 5.3c0 1.97.8 3.91 2.2 5.3 1.4 1.4 3.33 2.2 5.3 2.2 1.98 0 3.91-.8 5.31-2.2a7.56 7.56 0 0 0 2.19-5.3c0-1.97-.8-3.91-2.19-5.3a7.55 7.55 0 0 0-5.31-2.2zM316.483 63.01a192.351 192.351 0 0 1 15.418 7.575 7.499 7.499 0 0 0 10.182-2.971 7.5 7.5 0 0 0-2.971-10.182 207.668 207.668 0 0 0-16.625-8.168 7.5 7.5 0 0 0-6.004 13.746zm38.518 22.477c31.324 23.53 54.47 55.486 66.935 92.413a7.504 7.504 0 0 0 7.105 5.104 7.5 7.5 0 0 0 7.107-9.9c-13.437-39.808-38.382-74.252-72.138-99.609a7.5 7.5 0 1 0-9.009 11.992z"/></svg>