<svg xmlns="http://www.w3.org/2000/svg" viewBox="0 0 511 511"><path d="M265.37 193.245a39.932 39.932 0 0 0-19.74 0 7.5 7.5 0 0 0 3.739 14.527 24.856 24.856 0 0 1 12.262 0 7.503 7.503 0 0 0 9.133-5.394 7.5 7.5 0 0 0-5.394-9.133z"/><path d="M375 372.407V151.5c0-17.369-14.131-31.5-31.5-31.5a31.302 31.302 0 0 0-16.535 4.704c-.737-43.774-18.606-74.778-33.657-93.199-16.685-20.422-33.377-30.11-34.08-30.513a7.501 7.501 0 0 0-7.457 0c-.702.402-17.395 10.091-34.08 30.513-15.051 18.421-32.92 49.425-33.657 93.199A31.305 31.305 0 0 0 167.499 120c-17.369 0-31.5 14.131-31.5 31.5v220.906c-10.317 10.452-16 24.275-16 38.976V455.5a7.5 7.5 0 0 0 7.5 7.5h10.144l5.065 20.26A15.479 15.479 0 0 0 157.745 495h19.508a15.478 15.478 0 0 0 15.037-11.741L197.356 463h5.737l-3.071 39.925A7.502 7.502 0 0 0 207.5 511h96a7.5 7.5 0 0 0 7.478-8.075L307.907 463h5.737l5.065 20.26A15.479 15.479 0 0 0 333.746 495h19.508a15.478 15.478 0 0 0 15.037-11.741L373.356 463H383.5a7.5 7.5 0 0 0 7.5-7.5v-44.118c0-14.7-5.683-28.523-16-38.975zm-48.075-75.9c.044-.33.075-.664.075-1.006V183h33v174.394l-16.452-16.452C332.877 330.271 327 316.082 327 300.99v-1.608c0-.962-.027-1.921-.075-2.875zM280 247.497V392h-49V191.5c0-13.509 10.991-24.5 24.5-24.5s24.5 10.991 24.5 24.5v55.997zm-57.59 159.965a.503.503 0 0 1 .499-.462H248v57h-29.939l4.349-56.538zM263 407h25.092c.26 0 .479.203.499.462L292.94 464H263v-57zm-7.5-255c-21.78 0-39.5 17.72-39.5 39.5v52.894l-15.744 15.744c-.431.431-.841.876-1.256 1.318V135h113v126.457c-.415-.442-.825-.888-1.256-1.319L295 244.394V191.5c0-21.78-17.72-39.5-39.5-39.5zM151 183h33v112.5c0 .342.031.676.075 1.006a57.259 57.259 0 0 0-.075 2.876v1.608c0 15.092-5.877 29.28-16.548 39.952L151 357.394V183zm192.5-48c9.098 0 16.5 7.402 16.5 16.5V168h-33v-16.5c0-9.098 7.402-16.5 16.5-16.5zM228.923 41.469c10.5-12.968 21.129-21.226 26.577-25.021 5.453 3.799 16.081 12.057 26.578 25.021 18.317 22.623 28.297 49.012 29.734 78.531H199.189c1.437-29.519 11.417-55.908 29.734-78.531zM167.5 135c9.098 0 16.5 7.402 16.5 16.5V168h-33v-16.5c0-9.098 7.402-16.5 16.5-16.5zm10.239 344.621a.5.5 0 0 1-.485.379h-19.508a.499.499 0 0 1-.485-.379L153.106 463h28.789l-4.156 16.621zM135 448v-36.618c0-10.818 4.213-20.989 11.862-28.638l31.196-31.196C191.563 338.044 199 320.089 199 300.99v-1.608c0-10.818 4.213-20.989 11.862-28.638l5.138-5.138v128.042c-4.722 2.377-8.118 7.1-8.546 12.663l-.746 9.689H159.5a7.5 7.5 0 0 0 0 15h46.054l-1.308 17H135zm81.907 31H248v17h-32.401l1.308-17zM263 496v-17h31.093l1.308 17H263zm90.739-16.379a.5.5 0 0 1-.485.379h-19.508a.499.499 0 0 1-.485-.379L329.106 463h28.789l-4.156 16.621zM376 448h-69.247l-1.308-17H351.5a7.5 7.5 0 0 0 0-15h-47.208l-.745-9.689c-.428-5.562-3.824-10.284-8.546-12.662V265.607l5.138 5.138c7.649 7.649 11.862 17.82 11.862 28.638v1.608c0 19.099 7.438 37.054 20.942 50.558l31.196 31.196c7.649 7.649 11.862 17.82 11.862 28.638V448z"/></svg>