<svg xmlns="http://www.w3.org/2000/svg" viewBox="0 0 511 511"><path d="M503.5 136h-192a7.5 7.5 0 0 0-7.5 7.5v8.5h-17v-16.5c0-8.547-6.953-15.5-15.5-15.5H263v-8.5a7.5 7.5 0 0 0-15 0v8.5h-8.5c-8.547 0-15.5 6.953-15.5 15.5V152h-17v-8.5a7.5 7.5 0 0 0-7.5-7.5H7.5a7.5 7.5 0 0 0-7.5 7.5v32a7.5 7.5 0 0 0 7.5 7.5H176v16.5c0 8.547 6.953 15.5 15.5 15.5h31.999c.09 0 .177-.01.265-.013a39.861 39.861 0 0 0 2.84 3.405 8.47 8.47 0 0 0-2.604 6.109V248h-17v-8.5a7.5 7.5 0 0 0-7.5-7.5h-144a7.5 7.5 0 0 0-7.5 7.5v32a7.5 7.5 0 0 0 7.5 7.5h144a7.5 7.5 0 0 0 7.5-7.5V263h17v31.5c0 3.49 2.116 6.493 5.13 7.8a31.352 31.352 0 0 0-4.221 9.7H207v-8.5a7.5 7.5 0 0 0-7.5-7.5h-96a7.5 7.5 0 0 0-7.5 7.5v32a7.5 7.5 0 0 0 7.5 7.5h96a7.5 7.5 0 0 0 7.5-7.5V327h17.909c2.178 8.881 8.13 16.29 16.053 20.431l-4.422 4.422a15.397 15.397 0 0 0-4.541 10.96V399.5a7.5 7.5 0 0 0 7.5 7.5h32a7.5 7.5 0 0 0 7.5-7.5v-36.686c0-4.14-1.612-8.033-4.54-10.96l-4.423-4.423c7.924-4.141 13.875-11.551 16.053-20.431H304v8.5a7.5 7.5 0 0 0 7.5 7.5h96a7.5 7.5 0 0 0 7.5-7.5v-32a7.5 7.5 0 0 0-7.5-7.5h-96a7.5 7.5 0 0 0-7.5 7.5v8.5h-17.909a31.352 31.352 0 0 0-4.221-9.7c3.015-1.307 5.13-4.31 5.13-7.8V263h17v8.5a7.5 7.5 0 0 0 7.5 7.5h144a7.5 7.5 0 0 0 7.5-7.5v-32a7.5 7.5 0 0 0-7.5-7.5h-144a7.5 7.5 0 0 0-7.5 7.5v8.5h-17v-23.5a8.472 8.472 0 0 0-2.604-6.109 39.693 39.693 0 0 0 2.84-3.404c.087.003.172.013.26.013H423.5c8.547 0 15.5-6.953 15.5-15.5V183h64.5a7.5 7.5 0 0 0 7.5-7.5v-32a7.5 7.5 0 0 0-7.5-7.5zM144 247v17h-33v-17h33zm-81 0h33v17H63v-17zm129 17h-33v-17h33v17zm-81 47h33v17h-33v-17zm81 17h-33v-17h33v17zm208 0h-33v-17h33v17zm-81-17h33v17h-33v-17zm48-47v-17h33v17h-33zm81 0h-33v-17h33v17zm-129-17h33v17h-33v-17zm96-79v-17h33v17h-33zm-48 0v-17h33v17h-33zm-48-17h33v17h-33v-17zm-63.5 65c-13.509 0-24.5-10.991-24.5-24.5s10.991-24.5 24.5-24.5 24.5 10.991 24.5 24.5-10.991 24.5-24.5 24.5zm16.5 15v57h-33v-57h33zm-32.5-96h32a.5.5 0 0 1 .5.5v20.125c-5.025-2.32-10.612-3.625-16.5-3.625s-11.475 1.305-16.5 3.625V135.5a.5.5 0 0 1 .5-.5zM192 168h-33v-17h33v17zm-81-17h33v17h-33v-17zm-15 17H63v-17h33v17zm-81-17h33v17H15v-17zm176.5 49a.5.5 0 0 1-.5-.5V183h8.5a7.5 7.5 0 0 0 7.5-7.5V167h17v.5c0 .063.008.125.01.188-5.022 6.626-8.01 14.875-8.01 23.812 0 2.918.328 5.76.931 8.5H191.5zM264 392h-17v-29.186c0-.133.052-.259.146-.354l8.354-8.354 8.354 8.354c.094.094.146.22.146.353V392zm-8.5-56c-9.098 0-16.5-7.402-16.5-16.5s7.402-16.5 16.5-16.5 16.5 7.402 16.5 16.5-7.402 16.5-16.5 16.5zM424 199.5a.5.5 0 0 1-.5.5H294.069c.604-2.74.931-5.582.931-8.5a39.29 39.29 0 0 0-8.01-23.812c.002-.063.01-.125.01-.188v-.5h17v8.5a7.5 7.5 0 0 0 7.5 7.5H424v16.5zm72-31.5h-33v-17h33v17z"/></svg>