<svg xmlns="http://www.w3.org/2000/svg" viewBox="0 0 511 511"><path d="M23.498 248H7.5a7.5 7.5 0 0 0 0 15h15.998a7.5 7.5 0 0 0 0-15zm432 0H310.479a54.948 54.948 0 0 0-1.304-6.615l111.798-46.308a7.5 7.5 0 0 0-5.74-13.858l-111.822 46.318a55.482 55.482 0 0 0-3.745-5.596l136.5-136.5a7.5 7.5 0 0 0 0-10.606 7.5 7.5 0 0 0-10.606 0l-136.5 136.5a55.482 55.482 0 0 0-5.596-3.745l46.318-111.822a7.5 7.5 0 0 0-4.059-9.799 7.498 7.498 0 0 0-9.799 4.059l-46.308 111.798a54.948 54.948 0 0 0-6.615-1.304V55.502a7.5 7.5 0 0 0-15 0v145.019a54.91 54.91 0 0 0-6.615 1.304L195.077 90.027a7.5 7.5 0 0 0-13.858 5.74l46.318 111.822a55.482 55.482 0 0 0-5.596 3.745l-136.5-136.5a7.5 7.5 0 0 0-10.606 0 7.5 7.5 0 0 0 0 10.606l136.5 136.5a55.482 55.482 0 0 0-3.745 5.596L95.768 181.219a7.5 7.5 0 0 0-5.74 13.858l111.797 46.308a55.34 55.34 0 0 0-1.304 6.615H55.502a7.5 7.5 0 0 0 0 15H200.52a54.948 54.948 0 0 0 1.304 6.615L90.027 315.923a7.5 7.5 0 0 0 5.74 13.858l111.822-46.319a55.482 55.482 0 0 0 3.745 5.596l-136.5 136.5a7.5 7.5 0 0 0 5.303 12.803 7.474 7.474 0 0 0 5.303-2.197l136.5-136.5a55.482 55.482 0 0 0 5.596 3.745l-46.318 111.822a7.5 7.5 0 1 0 13.858 5.74l46.308-111.798c2.156.567 4.365.998 6.615 1.304v145.019a7.5 7.5 0 0 0 15 0V310.479a54.91 54.91 0 0 0 6.615-1.304l46.308 111.798a7.503 7.503 0 0 0 6.932 4.632 7.5 7.5 0 0 0 6.926-10.372l-46.318-111.822a55.482 55.482 0 0 0 5.596-3.745l136.5 136.5c1.464 1.464 3.384 2.197 5.303 2.197s3.839-.732 5.303-2.197a7.5 7.5 0 0 0 0-10.606l-136.5-136.5a55.822 55.822 0 0 0 3.745-5.596l111.822 46.319a7.472 7.472 0 0 0 2.867.573 7.503 7.503 0 0 0 2.873-14.431l-111.798-46.308a55.34 55.34 0 0 0 1.304-6.615h145.019c4.142 0 7.5-3.358 7.5-7.5S459.64 248 455.498 248zM255.5 296c-22.332 0-40.5-18.168-40.5-40.5s18.168-40.5 40.5-40.5 40.5 18.168 40.5 40.5-18.168 40.5-40.5 40.5zm248-48h-15.997a7.5 7.5 0 0 0 0 15H503.5a7.5 7.5 0 0 0 0-15zm-248 232.003a7.5 7.5 0 0 0-7.5 7.5V503.5a7.5 7.5 0 0 0 15 0v-15.997a7.5 7.5 0 0 0-7.5-7.5zm0-449.006a7.5 7.5 0 0 0 7.5-7.5V7.5a7.5 7.5 0 0 0-15 0v15.997a7.5 7.5 0 0 0 7.5 7.5z"/></svg>