<svg xmlns="http://www.w3.org/2000/svg" viewBox="0 0 511 511"><path d="M255.5 136C189.607 136 136 189.607 136 255.5S189.607 375 255.5 375 375 321.393 375 255.5 321.393 136 255.5 136zm0 224C197.878 360 151 313.122 151 255.5S197.878 151 255.5 151 360 197.878 360 255.5 313.122 360 255.5 360zm0-289a7.5 7.5 0 0 0 7.5-7.5v-56a7.5 7.5 0 0 0-15 0v56a7.5 7.5 0 0 0 7.5 7.5zm0 48a7.5 7.5 0 0 0 7.5-7.5v-16a7.5 7.5 0 0 0-15 0v16a7.5 7.5 0 0 0 7.5 7.5zm0 321a7.5 7.5 0 0 0-7.5 7.5v56a7.5 7.5 0 0 0 15 0v-56a7.5 7.5 0 0 0-7.5-7.5zm0-48a7.5 7.5 0 0 0-7.5 7.5v16a7.5 7.5 0 0 0 15 0v-16a7.5 7.5 0 0 0-7.5-7.5zm248-144h-56a7.5 7.5 0 0 0 0 15h56a7.5 7.5 0 0 0 0-15zm-104 0a7.5 7.5 0 0 0 0 15h16a7.5 7.5 0 0 0 0-15h-16zM71 255.5a7.5 7.5 0 0 0-7.5-7.5h-56a7.5 7.5 0 0 0 0 15h56a7.5 7.5 0 0 0 7.5-7.5zm24.5-7.5a7.5 7.5 0 0 0 0 15h16a7.5 7.5 0 0 0 0-15h-16zm52.874 104.02l-66.177 66.177a7.5 7.5 0 0 0 0 10.606C83.661 430.268 85.581 431 87.5 431s3.839-.732 5.303-2.197l66.177-66.177a7.5 7.5 0 0 0 0-10.606 7.5 7.5 0 0 0-10.606 0zm208.949-190.843a7.474 7.474 0 0 0 5.303-2.197l66.177-66.177a7.5 7.5 0 0 0 0-10.606 7.5 7.5 0 0 0-10.606 0l-66.177 66.177a7.5 7.5 0 0 0 5.303 12.803zm-163.859-35.845a7.503 7.503 0 0 0 6.932 4.632 7.5 7.5 0 0 0 6.926-10.372L182.83 60.464a7.5 7.5 0 0 0-13.858 5.74l24.492 59.128zm124.072 260.336a7.5 7.5 0 0 0-13.858 5.74l24.492 59.128a7.503 7.503 0 0 0 6.932 4.632 7.5 7.5 0 0 0 6.926-10.372l-24.492-59.128zm45.09-33.648a7.5 7.5 0 0 0-10.606 0 7.5 7.5 0 0 0 0 10.606l66.177 66.177c1.464 1.464 3.384 2.197 5.303 2.197s3.839-.732 5.303-2.197a7.5 7.5 0 0 0 0-10.606l-66.177-66.177zM148.374 158.98c1.464 1.464 3.384 2.197 5.303 2.197s3.839-.732 5.303-2.197a7.5 7.5 0 0 0 0-10.606L92.803 82.197a7.5 7.5 0 0 0-10.606 0 7.5 7.5 0 0 0 0 10.606l66.177 66.177zm159.362-29.589a7.475 7.475 0 0 0 2.867.573 7.503 7.503 0 0 0 6.932-4.632l24.492-59.128a7.5 7.5 0 1 0-13.858-5.74l-24.492 59.128a7.501 7.501 0 0 0 4.059 9.799zM203.264 381.609a7.5 7.5 0 0 0-9.799 4.059l-24.492 59.128a7.5 7.5 0 1 0 13.858 5.74l24.492-59.128a7.501 7.501 0 0 0-4.059-9.799zm-73.873-73.873a7.5 7.5 0 0 0-9.799-4.059l-59.128 24.492a7.5 7.5 0 0 0 5.74 13.858l59.128-24.492a7.5 7.5 0 0 0 4.059-9.799zm252.218-104.472a7.503 7.503 0 0 0 6.932 4.632c.957 0 1.929-.184 2.867-.573l59.128-24.492a7.5 7.5 0 0 0-5.74-13.858l-59.128 24.492a7.5 7.5 0 0 0-4.059 9.799zM60.463 182.831l59.128 24.492a7.472 7.472 0 0 0 2.867.573 7.503 7.503 0 0 0 2.873-14.431l-59.128-24.492a7.5 7.5 0 1 0-5.74 13.858zm390.074 145.338l-59.128-24.492a7.5 7.5 0 0 0-5.74 13.858l59.128 24.492a7.475 7.475 0 0 0 2.867.573 7.503 7.503 0 0 0 2.873-14.431z"/></svg>