<svg xmlns="http://www.w3.org/2000/svg" viewBox="0 0 511.001 511.001"><path d="M505.204 129.487c7.609-22.1 6.942-45.956-1.991-67.523-8.934-21.567-25.33-38.907-46.338-49.154l-3.389-8.181A7.497 7.497 0 0 0 443.687.57l-66.519 27.553a23.343 23.343 0 0 0-12.718 12.718 23.347 23.347 0 0 0 0 17.986l.205.495-261.506 109.777c-3.825 1.584-6.805 4.563-8.389 8.388s-1.584 8.038 0 11.863l3.253 7.853-52.661 21.813-.191-.462a15.398 15.398 0 0 0-8.389-8.389 15.406 15.406 0 0 0-11.863 0l-14.782 6.123a15.401 15.401 0 0 0-8.389 8.389 15.402 15.402 0 0 0 0 11.863l24.492 59.128a15.398 15.398 0 0 0 8.389 8.389c1.913.792 3.922 1.188 5.932 1.188s4.019-.396 5.932-1.188l14.782-6.123c3.825-1.584 6.804-4.563 8.389-8.389s1.584-8.038 0-11.863l-.191-.462 52.661-21.813 3.253 7.853a15.395 15.395 0 0 0 8.389 8.389 15.44 15.44 0 0 0 5.922 1.187c2.018 0 4.041-.4 5.973-1.2l20.968-8.802a7.505 7.505 0 0 0 1.173-.369 7.53 7.53 0 0 0 1.154-.608l62.469-26.224a31.719 31.719 0 0 0 2.8 2.949L89.07 499.858a7.499 7.499 0 0 0 6.549 11.143 7.498 7.498 0 0 0 6.563-3.859L162.261 399h85.865v104.5a7.5 7.5 0 0 0 15 0V399h85.865l60.079 108.143a7.498 7.498 0 0 0 10.198 2.914 7.5 7.5 0 0 0 2.914-10.199L277.03 238.583c6.204-5.757 10.096-13.972 10.096-23.083 0-1.074-.055-2.135-.16-3.182l120.166-50.444.178.429c3.745 9.041 12.516 14.507 21.742 14.507 2.991 0 6.032-.575 8.962-1.789l66.519-27.553a7.5 7.5 0 0 0 4.059-9.799l-3.388-8.182zM55.794 283.806c-.079.191-.223.251-.271.271L40.741 290.2c-.048.02-.19.08-.383 0-.191-.079-.251-.223-.271-.271l-24.492-59.128a.471.471 0 0 1 0-.383c.079-.191.223-.251.271-.271l14.782-6.123c.03-.012.097-.04.189-.04.056 0 .121.01.193.04.191.079.251.223.271.271l12.246 29.564 9.184 22.173 3.061 7.391a.469.469 0 0 1 .002.383zm7.926-20.443l-6.314-15.244-6.314-15.244 52.661-21.813 12.628 30.488-52.661 21.813zM489.354 67.705a79.886 79.886 0 0 1 5.799 37.519l-28.229-68.15a79.887 79.887 0 0 1 22.43 30.631zM139.886 257.791a.477.477 0 0 1-.383 0c-.191-.079-.25-.223-.27-.271l-15.307-36.955-9.184-22.173v-.001l-6.123-14.781a.471.471 0 0 1 0-.383c.079-.191.223-.25.303-.284l15.181-6.373 30.997 74.834-15.214 6.387zm132.24-42.291c0 9.098-7.402 16.5-16.5 16.5s-16.5-7.402-16.5-16.5 7.402-16.5 16.5-16.5 16.5 7.402 16.5 16.5zM170.594 384l76.732-138.118c.266.073.532.143.8.208V384h-77.532zm170.063 0h-77.531V246.09c.268-.066.534-.135.799-.208L340.657 384zm-58.744-185.829c-5.642-8.53-15.316-14.171-26.287-14.171-17.369 0-31.5 14.131-31.5 31.5 0 2.275.248 4.492.708 6.631l-55.903 23.468-30.998-74.834 232.461-97.583 30.997 74.834-119.478 50.155zm150.361-37.009c-4.332 1.795-9.312-.27-11.106-4.6l-42.86-103.475a8.442 8.442 0 0 1 0-6.505 8.442 8.442 0 0 1 4.6-4.6l59.59-24.683 49.366 119.18-59.59 24.683z"/></svg>