<svg xmlns="http://www.w3.org/2000/svg" viewBox="0 0 511 511"><path d="M383.5 347h-256a7.514 7.514 0 0 1-1.933-.253l-120-32a7.501 7.501 0 0 1-4.842-10.464C1.584 302.474 22.779 260 111.5 260h288c88.721 0 109.916 42.474 110.774 44.282a7.497 7.497 0 0 1-4.842 10.464l-120 32c-.63.169-1.28.254-1.932.254zm-255.017-15h254.034l108.277-28.874c-2.891-2.973-6.988-6.515-12.607-10.041C454.371 278.138 422.251 275 399.5 275h-288c-22.751 0-54.871 3.138-78.687 18.085-5.617 3.525-9.713 7.064-12.605 10.042L128.483 332z"/><path d="M503.5 315H7.5a7.5 7.5 0 0 1 0-15h496a7.5 7.5 0 0 1 0 15zm-167.494 80H174.994a23.441 23.441 0 0 1-18.053-8.455l-35.203-42.244a7.5 7.5 0 0 1 .96-10.563 7.499 7.499 0 0 1 10.563.96l35.203 42.243a8.48 8.48 0 0 0 6.53 3.058h161.012c2.53 0 4.91-1.115 6.53-3.059l35.202-42.243a7.5 7.5 0 0 1 11.523 9.603l-35.202 42.243A23.435 23.435 0 0 1 336.006 395zM375.5 275h-240a7.5 7.5 0 0 1-6.24-11.66l54.5-81.75A39.42 39.42 0 0 1 216.626 164h77.749a39.42 39.42 0 0 1 32.866 17.589l54.5 81.75A7.501 7.501 0 0 1 375.5 275zm-225.986-15h211.973l-46.727-70.09A24.453 24.453 0 0 0 294.375 179h-77.749a24.452 24.452 0 0 0-20.385 10.91L149.514 260zM255.5 155a7.5 7.5 0 0 1-7.5-7.5v-24a7.5 7.5 0 0 1 15 0v24a7.5 7.5 0 0 1-7.5 7.5z"/><path d="M255.5 275a7.5 7.5 0 0 1-7.5-7.5v-96a7.5 7.5 0 0 1 15 0v96a7.5 7.5 0 0 1-7.5 7.5zm-63.999.002a7.5 7.5 0 0 1-7.117-9.874l32-96a7.5 7.5 0 0 1 14.231 4.743l-32 96a7.504 7.504 0 0 1-7.114 5.131zm127.998 0a7.502 7.502 0 0 1-7.114-5.13l-32-96a7.5 7.5 0 1 1 14.231-4.743l32 96a7.5 7.5 0 0 1-7.117 9.873z"/><path d="M279.5 179a7.5 7.5 0 0 1-7.5-7.5c0-9.098-7.402-16.5-16.5-16.5s-16.5 7.402-16.5 16.5a7.5 7.5 0 0 1-15 0c0-17.369 14.131-31.5 31.5-31.5s31.5 14.131 31.5 31.5a7.5 7.5 0 0 1-7.5 7.5z"/></svg>