<svg xmlns="http://www.w3.org/2000/svg" viewBox="0 0 507.122 507.122"><path d="M504.941 149.436c-9.614-23.209-47.261-28.763-97.339-22.626-38.089-46.259-94.069-72.749-154.041-72.749-110.005 0-199.5 89.495-199.5 199.5 0 5.536.229 11.125.682 16.611a7.48 7.48 0 0 0 .637 2.451C11.692 306.819-6.71 336.22 2.181 357.686c5.026 12.134 20.371 24.897 62.678 24.897 9.977 0 21.48-.722 34.675-2.318 10.041 12.219 21.522 23.276 34.197 32.812 34.768 26.158 76.204 39.984 119.831 39.984 110.005 0 199.5-89.495 199.5-199.5 0-6.465-.334-12.922-.961-19.345 43.428-34.075 61.708-63.371 52.84-84.78zm-251.38-80.375c52.374 0 101.46 21.844 136.43 60.302-50.496 8.361-110.76 26.82-167.099 50.156-59.375 24.594-113.234 53.629-153.624 82.69a187.793 187.793 0 0 1-.207-8.648c0-101.733 82.767-184.5 184.5-184.5zm0 369c-40.347 0-78.666-12.784-110.813-36.97-29.792-22.415-52.452-53.895-64.218-89.048 6.451-5.456 15.336-12.093 27.579-20.051 34.319-22.308 82.267-46.625 135.008-68.472 52.742-21.847 103.84-38.555 143.882-47.048 14.272-3.027 25.241-4.617 33.658-5.321 12.864 25.696 19.403 53.405 19.403 82.411.001 101.733-82.766 184.499-184.499 184.499zM66.713 323.58a197.381 197.381 0 0 0 5.251 12.6c-8.892-.756-10.458-3.037-10.469-3.063-.02-.048-.296-2.924 5.218-9.537zm373.694-140.02a197.3 197.3 0 0 0-5.23-12.611c8.589.775 10.43 3.008 10.45 3.056.013.031.476 2.79-5.22 9.555zm9.246 33.368a200.7 200.7 0 0 0-3.969-17.115c12.869-12.541 17.389-22.885 13.801-31.547-4.99-12.046-22.586-12.419-28.369-12.542-12.432-.266-28.985 1.781-49.229 6.075-40.913 8.678-92.944 25.676-146.51 47.863-53.565 22.188-102.376 46.96-137.443 69.754-13.211 8.588-23.983 16.587-32.17 23.875a7.43 7.43 0 0 0-1.75 1.581 115.425 115.425 0 0 0-5.185 5.059c-4.002 4.175-16.182 16.882-11.192 28.928 5.14 12.409 23.755 12.524 29.872 12.562h.047c.701 0 1.378-.103 2.022-.284a202.23 202.23 0 0 0 9.467 15.171c-40.127 3.75-67.692-1.532-73.006-14.361-3.386-8.175 2.286-19.174 7.64-26.961 8.444-12.28 22.958-26.582 41.974-41.36 40.406-31.4 98.286-63.451 162.979-90.248 64.693-26.797 128.284-45.061 179.058-51.429 23.896-2.997 44.272-3.146 58.926-.434 9.292 1.72 21.081 5.487 24.467 13.662 3.393 8.189-2.304 19.212-7.679 27.018-7.188 10.435-18.768 22.329-33.751 34.733z"/><path d="M413.561 246.061a7.5 7.5 0 0 0-7.5 7.5c0 5.087-.253 10.221-.753 15.256a7.5 7.5 0 0 0 14.927 1.481c.548-5.525.826-11.157.826-16.737a7.5 7.5 0 0 0-7.5-7.5zm-5.078 48.348a7.5 7.5 0 0 0-9.403 4.908c-9.595 30.545-28.272 56.913-54.012 76.25a7.5 7.5 0 0 0 4.511 13.497c1.568 0 3.149-.49 4.499-1.504 28.262-21.232 48.772-50.192 59.313-83.748a7.5 7.5 0 0 0-4.908-9.403z"/></svg>