<svg xmlns="http://www.w3.org/2000/svg" viewBox="0 0 511.002 511.002"><path d="M506.205 484.505l-363.248-140.46c.536-9.761-5.095-19.235-14.65-23.099l-27.801-11.239c-9.45-3.801-19.952-1.005-26.366 6.198a8.461 8.461 0 0 1-3.141-6.601V307h8.5a7.5 7.5 0 0 0 7.5-7.5V291h17v.5c0 8.547 6.953 15.5 15.5 15.5h12.894l45.803 45.803a7.498 7.498 0 0 0 8.174 1.626A7.5 7.5 0 0 0 191 347.5v-67.986l9-6v1.986a7.5 7.5 0 0 0 15 0V251h10.234c3.138 9.29 11.93 16 22.266 16 12.958 0 23.5-10.542 23.5-23.5S260.458 220 247.5 220c-10.336 0-19.128 6.71-22.266 16H215v-24.5a7.5 7.5 0 0 0-15 0v1.986l-9-6V139.5a7.499 7.499 0 0 0-12.803-5.303L132.394 180H119.5c-8.547 0-15.5 6.953-15.5 15.5v.5H87v-5.394l9.117-9.117A23.35 23.35 0 0 0 103 164.872V139h16.5a7.5 7.5 0 0 0 0-15H103v-8.5c0-5.827-3.235-10.908-8-13.555V75h16.5c8.547 0 15.5-6.953 15.5-15.5v-32c0-8.547-6.953-15.5-15.5-15.5h-64C38.953 12 32 18.953 32 27.5v32C32 68.047 38.953 75 47.5 75h.5v32.5a7.5 7.5 0 0 0 7.5 7.5h32a.5.5 0 0 1 .5.5v8.5H63.5a7.5 7.5 0 0 0 0 15H88v25.873c0 2.27-.884 4.405-2.49 6.011L76.394 180H47.5a7.5 7.5 0 0 0-7.5 7.5v8.5H7.5a7.5 7.5 0 0 0 0 15h21.894L2.197 238.197a7.5 7.5 0 0 0 0 10.606L29.394 276H7.5a7.5 7.5 0 0 0 0 15H40v8.5a7.5 7.5 0 0 0 7.5 7.5H56v2.303a23.374 23.374 0 0 0 12.269 20.627 23.42 23.42 0 0 0 .481 6.522L80 396.201V460h-.5a7.5 7.5 0 0 0 0 15h48a7.5 7.5 0 0 0 0-15h-.5v-64.5c0-8.547-6.953-15.5-15.5-15.5h-16c-1.105 0-2.182.121-3.222.342l-4.741-25.18 23.173 9.368a23.483 23.483 0 0 0 8.787 1.712 23.389 23.389 0 0 0 17.896-8.267l363.403 140.52a7.478 7.478 0 0 0 2.703.507 7.502 7.502 0 0 0 2.706-14.497zM247.5 235c4.687 0 8.5 3.813 8.5 8.5s-3.813 8.5-8.5 8.5-8.5-3.813-8.5-8.5 3.813-8.5 8.5-8.5zM47 59.5v-32a.5.5 0 0 1 .5-.5h64a.5.5 0 0 1 .5.5v32a.5.5 0 0 1-.5.5h-64a.5.5 0 0 1-.5-.5zM63 75h17v25H63V75zM18.107 243.5L40 221.607v43.787L18.107 243.5zM55 227h17v33H55v-33zm145 4.514v23.973l-9 6v-35.973l9 6zm-24-19.991v117.87l-33-33V190.607l33-33v53.916zM119 195.5a.5.5 0 0 1 .5-.5h8.5v97h-8.5a.5.5 0 0 1-.5-.5v-96zM104 211v65H87v-65h17zm-32-16v17H55v-17h17zm-17 88.503V275h17v17H55v-8.497zM95.5 395h16a.5.5 0 0 1 .5.5V460H95v-64.5a.5.5 0 0 1 .5-.5zm31.878-49.075a8.465 8.465 0 0 1-7.882 5.317 8.517 8.517 0 0 1-3.181-.625l-27.789-11.234c-4.346-1.757-6.451-6.724-4.695-11.07 1.336-3.302 4.534-5.31 7.9-5.31 1.056 0 2.128.198 3.164.614l27.789 11.234c4.346 1.758 6.452 6.725 4.694 11.074z"/></svg>