<svg xmlns="http://www.w3.org/2000/svg" viewBox="0 0 511.999 511.999"><path d="M503.603 304.509H485.93c14.606-17.25 23.042-38.614 25.147-63.89 3.899-46.787-4.592-81.887-25.237-104.324-13.932-15.142-33.706-23.825-54.252-23.825-9.364 0-16.41 1.232-21.539 3.77-8.233 4.07-9.122 10.444-9.122 12.996 0 7.587 6.85 14.241 14.635 14.241 4.946.148 48.533 13.439 48.533 56.512 0 24.606-9.437 38.328-17.354 45.507-10.288 9.329-22.465 11.814-30.425 11.04a163.169 163.169 0 0 1-11.505-1.539l-14.019-49.068c-1.766-6.177-10.337-7.315-13.647-1.798l-20.059 33.433c-5.08-2.965-9.865-6.108-14.501-9.32-.013-.167-.022-.333-.046-.501l-7.546-52.82c-.923-6.469-9.497-8.683-13.428-3.44l-21.64 28.854c-4.845-2.302-9.923-4.26-15.348-5.74a7.471 7.471 0 0 0-.937-1.667l-22.087-29.448c-2.951-3.936-9.051-3.936-12.002 0l-24.005 32.007a7.476 7.476 0 0 0-1.267 2.646 79.675 79.675 0 0 0-6.285 2.775 7.478 7.478 0 0 0-.979-.273l-40.008-8.002c-5.062-1.008-9.718 3.497-8.871 8.59l7.861 47.164c-4.141 8.974-7.674 18.373-11.174 27.694-3.578 9.524-7.193 19.139-11.456 28.431H76.183a7.501 7.501 0 0 0-7.502 7.502 7.501 7.501 0 0 0 7.502 7.502h69.431c-9.943 16.946-23.543 31.838-45.197 41.681-35.43 16.104-70.318 21.186-85.414 22.716v-64.397h24.505c4.144 0 7.502-3.358 7.502-7.502s-3.358-7.502-7.502-7.502H7.502A7.501 7.501 0 0 0 0 312.016V504.05c0 4.144 3.358 7.502 7.502 7.502s7.502-3.358 7.502-7.502v-98.312c5.896 3.188 13.792 6.747 23.444 9.505 9.016 2.576 20.408 4.653 33.72 4.652 16.748 0 36.531-3.29 58.406-13.012 30.966-13.763 48.641-25.905 62.842-35.662 7.9-5.427 14.201-9.75 20.791-12.962l-6.105 48.84c-.551 4.413 3.001 8.433 7.443 8.433h40.008a7.501 7.501 0 0 0 7.502-7.502v-56.512h14.616l-5.577 55.765c-.435 4.35 3.093 8.248 7.465 8.248h40.008a7.501 7.501 0 0 0 7.502-7.502v-56.512h17.003v56.512a7.501 7.501 0 0 0 7.502 7.502h40.008c4.441 0 7.993-4.016 7.444-8.427l-7.059-56.811c4.52-.58 10.012-1.459 16.118-2.784v60.518a7.501 7.501 0 0 0 7.502 7.502h40.008c4.345 0 7.865-3.853 7.471-8.181l-7.089-77.99c5.329-3.139 10.278-6.542 14.849-10.203.717.228 1.48.353 2.273.353h23.005v184.538c0 4.144 3.358 7.502 7.502 7.502s7.502-3.358 7.502-7.502V312.009a7.506 7.506 0 0 0-7.505-7.5zm-122.488-77.834l6.986 24.454a134.299 134.299 0 0 1-17.683-6.625l10.697-17.829zm-58.413-31.702l3.033 21.228c-4.15-2.958-8.31-5.828-12.573-8.508l9.54-12.72zm-67.15-14.489l8.318 11.09c-5.404-.15-11.153.148-17.322.979-.019.002-.036.006-.055.009l9.059-12.078zm-54.917 32.175c-4.923 4.453-9.165 9.449-12.911 14.828l-3.002-18.011 15.913 3.183zm111.429 187.87h-24.218l4.902-49.01h19.316v49.01zm111.023 0v-56.923c5.975-1.829 12.216-4.088 18.494-6.871l5.798 63.794h-24.292zm-40.112-64.367c-4.193.337-7.361 4.225-6.84 8.402l6.954 55.966h-24.015v-56.512a7.501 7.501 0 0 0-7.502-7.502h-89.759l-14.883-81.859a7.5 7.5 0 0 0-8.723-6.038 7.502 7.502 0 0 0-6.038 8.723l15.882 87.353v55.834h-24.009l6.947-55.58a7.503 7.503 0 0 0-1.586-5.617l-32.007-40.008a7.501 7.501 0 0 0-10.544-1.171 7.501 7.501 0 0 0-1.171 10.544l27.041 33.8c-9.701 3.925-17.835 9.512-27.803 16.359-13.693 9.408-30.736 21.117-60.439 34.319-27.955 12.423-55.282 15.06-81.225 7.838a103.93 103.93 0 0 1-11.793-4.059c18.803-2.925 46.582-9.109 75.163-22.102 44.764-20.348 59.362-59.21 72.242-93.498 13.703-36.479 25.536-67.983 69.686-73.932 33.249-4.479 51.391 8.63 74.357 25.226 22.368 16.165 47.721 34.487 91.944 38.819 14.454 1.418 30.146-4.138 41.967-14.857 10.163-9.216 22.278-26.52 22.278-56.622 0-48.673-44.302-68.329-60.099-71.153 2.395-.697 6.323-1.362 12.59-1.362 9.615 0 28.016 2.466 43.212 18.981 17.439 18.952 24.814 51.083 21.327 92.919-6.825 81.885-88.334 94.785-113.154 96.789zm-231.444-263.7a39.448 39.448 0 0 0-18.094 4.393c-4.812-16.393-19.989-28.398-37.918-28.398S62.412 60.461 57.601 76.855a39.453 39.453 0 0 0-18.093-4.393C17.724 72.462 0 90.185 0 111.97s17.724 39.508 39.508 39.508h112.023c21.784 0 39.508-17.724 39.508-39.508s-17.723-39.508-39.508-39.508zm0 64.012H39.508c-13.513 0-24.505-10.992-24.505-24.505s10.992-24.504 24.505-24.504a24.506 24.506 0 0 1 18.49 8.438 7.503 7.503 0 0 0 13.13-5.622 24.999 24.999 0 0 1-.113-2.316c0-13.513 10.992-24.505 24.505-24.505s24.505 10.992 24.505 24.505c0 .735-.038 1.514-.113 2.315a7.502 7.502 0 0 0 13.13 5.622 24.508 24.508 0 0 1 18.49-8.438c13.513 0 24.505 10.992 24.505 24.505-.001 13.513-10.993 24.505-24.506 24.505zM359.574 24.452c-3.133 0-6.193.453-9.108 1.329-2.878-14.427-15.639-25.334-30.9-25.334s-28.023 10.906-30.9 25.334a31.61 31.61 0 0 0-9.108-1.329c-17.372 0-31.506 14.134-31.506 31.506s14.134 31.506 31.506 31.506h80.016c17.373 0 31.506-14.134 31.506-31.506s-14.134-31.506-31.506-31.506zm0 48.01h-80.016c-9.1 0-16.503-7.404-16.503-16.503 0-9.1 7.404-16.503 16.503-16.503a16.38 16.38 0 0 1 11.745 4.915c2.443 2.474 6.38 2.932 9.324 1.086 2.852-1.787 4.179-5.371 3.179-8.586a16.51 16.51 0 0 1-.743-4.917c0-9.1 7.404-16.503 16.503-16.503s16.503 7.404 16.503 16.503c0 1.68-.25 3.335-.743 4.917-1 3.215.326 6.798 3.179 8.586 2.944 1.845 6.883 1.389 9.324-1.086a16.383 16.383 0 0 1 11.745-4.915c9.1 0 16.503 7.404 16.503 16.503s-7.403 16.503-16.503 16.503z"/></svg>