<svg xmlns="http://www.w3.org/2000/svg" viewBox="0 0 512 512"><path d="M458.09 375.113c-.773-4.018-4.766-6.721-8.784-5.945-4.013.774-6.72 4.769-5.945 8.784 4.906 25.471 7.546 54.403 7.872 86.208l-49.396-46.739c-3.489-3.302-9.335-2.414-11.691 1.767l-38.034 67.525-13.063-35.514c-2.127-5.785-10.284-6.568-13.467-1.277l-21.621 35.935-16.776-55.491c-1.797-5.943-9.973-7.163-13.42-1.989l-42.929 64.393-49.534-49.535c-3.074-3.07-8.283-2.838-11.066.502l-31.383 37.66-27.744-83.235c-1.964-5.894-10.178-6.88-13.475-1.605L60.937 455.22c2.203-87.686 22.897-151.911 60.367-186.67 33.563-31.131 69.63-28.262 69.962-28.231 1.015.099 111.231-.3 111.231-.3 4.529 2.18 23.995 14.085 18.086 55.443-.571 3.994 2.244 7.82 6.225 8.464 4.087.661 8.04-2.24 8.625-6.342 4.121-28.85-2.473-46.651-10.413-57.358 6.833.133 21.141 1.488 37.796 9.332 31.294 14.74 55.641 45.644 70.408 89.367 1.307 3.871 5.634 6.012 9.506 4.706 3.872-1.307 6.014-5.633 4.706-9.506-18.288-54.152-47.143-80.932-70.556-94.163a7.5 7.5 0 0 0-.871-14.948h-33.221c41.33-41.539 38.222-121.052 38.046-124.856a7.462 7.462 0 0 0-.391-2.066L348.858 5.086a7.495 7.495 0 0 0-7.1-5.086h-20.751a7.502 7.502 0 0 0-6.231 3.325l-58.775 87.709-58.773-87.709A7.5 7.5 0 0 0 190.997 0h-20.751a7.503 7.503 0 0 0-7.103 5.088l-31.586 93.007a7.5 7.5 0 0 0-.391 2.066c-.178 3.86-3.377 85.692 39.911 126.679-15.772 2.862-38.049 10.52-59.606 30.365-20.17 18.568-35.96 44.476-46.934 76.999-13.311 39.455-19.609 89.064-18.72 147.447.049 3.236 2.25 6.143 5.349 7.071 3.198.957 6.737-.375 8.509-3.206l42.23-67.512 26.969 80.907c1.821 5.463 9.183 6.866 12.878 2.43l34.745-41.694 50.196 50.197c3.297 3.295 8.962 2.733 11.545-1.144l39.185-58.776 17.067 56.453c1.841 6.094 10.322 7.159 13.606 1.695l22.27-37.013 13.268 36.069c2.161 5.874 10.497 6.562 13.574 1.092l41.29-73.304 55.027 52.068c4.648 4.4 12.559 1.053 12.655-5.333.608-39.678-2.115-75.521-8.09-106.538zM146.123 101.861l29.498-86.86h11.373l62.777 93.682a7.5 7.5 0 0 0 12.461 0l62.779-93.682h11.373l29.5 86.862c.254 10.223.825 94.691-47.265 123.155h-10.618c6.055-6.733 11.506-15.335 11.506-24.502a7.5 7.5 0 0 0-7.501-7.501 7.5 7.5 0 0 0-7.501 7.501c0 8.052-10.905 18.724-18.863 24.502h-59.283c-7.958-5.778-18.863-16.45-18.863-24.502a7.5 7.5 0 0 0-7.501-7.501 7.5 7.5 0 0 0-7.501 7.501c0 9.167 5.449 17.769 11.506 24.502h-10.618c-47.997-28.42-47.504-112.942-47.259-123.157z"/><path d="M349.83 93.874c-8.04-8.037-21.626-4.435-27.684-1.404-4.964 2.481-8.261 7.318-9.283 13.62-1.483 9.141 1.875 21.474 7.333 26.93 2.751 2.752 6.715 4.159 11.51 4.159 2.32 0 4.837-.33 7.505-.996 6.133-1.533 12.024-4.567 15.376-7.919 8.705-8.706 2.118-27.515-4.757-34.39zm-6.154 24.064c-2.965 2.596-10.555 4.799-13.105 4.185-1.447-2.006-3.755-8.852-2.872-13.794.11-.615.443-2.087 1.155-2.443h.001c3.97-1.985 9.441-2.332 10.367-1.404 2.729 2.73 5.131 10.86 4.454 13.456zM214.494 69.247c-1.533-6.134-4.567-12.025-7.919-15.375-8.04-8.042-21.624-4.436-27.685-1.405-4.962 2.481-8.259 7.318-9.281 13.618-1.483 9.142 1.874 21.475 7.332 26.932 2.978 2.978 7.137 4.167 11.597 4.167 8.579 0 18.271-4.399 22.795-8.923 4.083-4.084 5.206-10.837 3.161-19.014zm-14.072 8.688c-2.965 2.594-10.554 4.801-13.106 4.185-1.447-2.007-3.755-8.853-2.871-13.794.109-.616.442-2.087 1.155-2.443 3.969-1.985 9.442-2.33 10.368-1.404 2.73 2.729 5.131 10.86 4.454 13.456zM134.57 309.236c-8.04-8.038-21.625-4.436-27.685-1.405-4.474 2.237-7.548 6.276-8.886 11.679-2.252 9.087.867 20.753 5.183 26.781a7.504 7.504 0 0 0 4.757 3.013l9.15 1.664a7.506 7.506 0 0 0 5.367.906c6.604-1.367 13.226-4.604 16.87-8.248 8.708-8.708 2.118-27.516-4.756-34.39zm-6.151 24.053c-1.13.946-3.618 2.339-6.675 3.289a7.174 7.174 0 0 0-.412-.087l-7.209-1.311c-1.403-3.379-2.437-8.544-1.564-12.064.175-.704.495-1.6 1.034-1.869 3.97-1.984 9.442-2.331 10.368-1.404 2.729 2.727 5.126 10.839 4.458 13.446zm65.819-212.279c-10.801 0-23.406 4.029-23.501 15.372-.277 1.043-2.275 3.54-3.478 5.044-3.854 4.817-11.874 14.843-2.327 24.391 10.198 10.197 28.507 10.197 37.307 10.197 13.577 0 23.502-20.719 23.502-31.503-.001-11.678-10.822-23.501-31.503-23.501zm7.826 40.003c-6.292 0-20.526-.053-26.374-5.656.597-1.201 2.239-3.254 3.282-4.559 2.972-3.715 6.315-7.896 6.724-13.207 1.581-.823 5.442-1.562 8.557-1.579 10.709.004 16.486 4.381 16.486 8.501 0 5.421-5.71 15.472-8.675 16.5zm99.279 125.138c-.716-2.148-1.393-4.179-1.393-5.628 0-7.534-6.146-12.379-18.268-14.399-6.538-1.089-12.964-1.102-13.234-1.102a7.518 7.518 0 0 0-6.704 4.136c-2.727 5.414-7.37 11.233-9.452 11.866-3.186.047-6 1.55-7.738 4.141-1.187 1.77-1.789 3.928-1.789 6.415 0 9.649 12.772 36.447 25.683 36.447 11.107 0 20.359-9.252 29.306-18.197 8.611-8.614 5.467-18.044 3.589-23.679zm-14.198 13.069c-5.795 5.796-12.927 12.928-17.824 13.73-3.312-2.451-9.074-12.328-10.947-18.235 6.381-2.818 11.416-9.603 14.401-14.533 5.095.354 10.064 1.248 12.264 2.247.29 3.116 1.229 5.932 2.073 8.467 1.935 5.805 1.778 6.579.033 8.324zm35.026 65.149a7.505 7.505 0 0 0-7.842-.845c-4.762 2.279-11.172 3.872-13.141 3.292-2.488-1.838-5.548-2.348-8.437-1.393-1.979.653-3.734 1.952-5.216 3.857-4.528 5.826-6.182 16.972-6.581 20.25-2.007 16.506 3.072 20.455 4.741 21.753 4.694 3.65 10.617 4.749 17.001 4.749 4.896 0 10.065-.646 15.159-1.284 11.526-1.442 14.658-10.322 16.53-15.627.682-1.934 1.325-3.759 2.094-4.747 7.961-10.238-5.547-23.193-14.308-30.005zm-1.931 29.761c-1.855 5.258-2.326 5.492-4.252 5.733-7.317.916-16.297 2.038-20.26.085-.861-3.681.41-13.242 2.236-18.511 6.169 1.344 13.376-.603 18.292-2.448 3.207 2.9 6.052 6.046 7.155 7.949-1.482 2.404-2.37 4.919-3.171 7.192zm74.595-89.106c-18.436 0-28.116 10.629-28.193 21.17-.15.879-1.228 3.197-1.946 4.742-3.005 6.466-10.045 21.61 6.094 29.679 5.832 2.916 11.589 3.858 16.873 3.858 5.853 0 11.128-1.156 15.284-2.067 2.241-.491 4.558-.999 5.682-.999 3.812 0 7.113-2.337 8.615-6.098.707-1.771 1.051-3.893 1.051-6.484-.001-8.982-7.275-43.801-23.46-43.801zm4.898 42.729c-6.885 1.509-14.687 3.219-22.237-.555-2.38-1.189-3.098-1.549.802-9.939 1.72-3.699 3.344-7.194 3.344-10.94 0-2.499 3.742-5.974 12.027-6.273 1.341 1.418 4.095 5.821 6.661 13.838 1.79 5.593 2.618 10.225 2.878 13.137-1.109.214-2.262.467-3.475.732zM282.849 157.08c-5.827-4.059-10.971-5.087-15.291-3.062-6.198 2.909-10.831 6.999-13.397 11.827-2.645 4.977-2.937 10.52-.813 15.253.133.709.14 2.521.145 3.743.021 5.682.077 20.777 16.128 21.177.264.006.524.01.785.01 11.272 0 19.178-6.068 24.448-10.113 1.292-.991 2.899-2.225 3.592-2.55 2.87-1.347 4.747-4.088 5.023-7.334.758-8.911-13.224-23.8-20.62-28.951zm2.873 26.933c-4.377 3.359-9.355 7.209-15.728 7.007a4.864 4.864 0 0 1-.997-.108c-.484-1.15-.496-4.354-.503-6.126-.013-3.33-.025-6.774-1.453-9.816-.217-.464-.08-1.243.367-2.084.521-.982 1.864-2.793 5.167-4.6 3.847 1.804 11.251 9.677 14.502 14.694-.448.336-.899.683-1.355 1.033zm-76.385 100.866a7.495 7.495 0 0 0-2.916-2.872l-29.309-16.062a7.498 7.498 0 0 0-8.4.811c-7.496 6.231-10.15 15.011-6.812 22.439.133.709.14 2.521.145 3.743.021 5.681.076 20.776 16.127 21.175.265.006.525.01.787.01 11.27-.001 19.176-6.067 24.446-10.112 1.292-.992 2.899-2.226 3.592-2.551a8.654 8.654 0 0 0 4.615-5.274c1.335-4.197-.659-8.463-2.275-11.307zm-30.791 14.236a4.864 4.864 0 0 1-.997-.108c-.484-1.15-.496-4.354-.502-6.124-.013-3.331-.025-6.775-1.453-9.817-.094-.202-.126-.503-.06-.88l18.477 10.125c-4.313 3.308-9.242 6.962-15.465 6.804zm42.034 73.232c-6.555-10.606-21.758-14.456-30.376-14.456-15.506 0-24.22 2.692-28.254 8.73-1.424 2.13-3.433 6.624-.883 12.78.659 1.593 1.367 3.612 2.116 5.752 2.843 8.112 6.381 18.209 13.716 25.545 3.498 3.497 8.076 5.335 13.146 5.335 1.165 0 2.355-.097 3.565-.293 10.451-1.696 21.168-10.722 27.304-22.993 3.539-7.079 3.421-14.324-.334-20.4zm-13.083 13.691c-4.58 9.161-11.655 14.143-16.289 14.895-2.461.402-3.361-.502-3.7-.843-4.917-4.916-7.828-13.223-10.167-19.898-.687-1.959-1.341-3.828-2.017-5.544 1.747-.688 5.906-1.757 14.88-1.757 6.174 0 15.019 3.14 17.615 7.342.705 1.142 1.219 2.724-.322 5.805z"/></svg>