<svg xmlns="http://www.w3.org/2000/svg" viewBox="0 0 511.999 511.999"><path d="M509.778 327.962c-23.568-23.568-75.981-66.873-119.402-84.276l2.411-.804a7.635 7.635 0 0 0-4.829-14.485l-17.187 5.729-5.729-17.188a7.635 7.635 0 0 0-14.485 4.829l4.793 14.381h-66.63l9.349-18.696 45.86-15.287a7.635 7.635 0 0 0-1.049-14.754l-70.915-12.894c-4.429-.806-8.7 2.539-8.985 7.028l-1.217 19.188-8.94 12.447c-7.079-12.354-20.495-34.076-40.411-59.483h6.954c4.216 0 7.634-3.417 7.634-7.634s-3.418-7.634-7.634-7.634H202.57v-16.796a7.634 7.634 0 0 0-7.634-7.634 7.634 7.634 0 0 0-7.634 7.634V133.3c-17.329-8.607-42.496-15.467-75.292-20.488-37.133-5.685-70.141-6.904-71.528-6.952-3.885-.128-7.283 2.693-7.829 6.563a7.633 7.633 0 0 0 5.707 8.473c64.605 16.151 106.047 66.59 129.435 106.058 10.632 17.942 18.615 35.321 24.328 49.561l-18.873 18.873c-2.78 2.78-2.964 7.371-.406 10.359 2.854 3.334 8.098 3.542 11.202.439l13.969-13.969c2.28 6.534 3.845 11.649 4.769 14.841-7.566 8.403-32.566 32.941-66.488 32.941-.187 0-.378 0-.566-.002-30.414-.245-60.74-19.828-90.173-58.192l8.194-8.194c3.457-3.458 2.719-9.431-1.47-11.945l-40.717-24.43c-5.949-3.569-13.361 2.388-11.171 8.962l16.287 48.86c1.798 5.391 8.669 6.813 12.673 2.952 1.803-1.739 3.544-3.544 5.316-5.316 32.137 41.306 66.128 62.354 101.094 62.573l.549.002c42.444 0 71.756-30.821 79.163-39.492 5.278-1.233 10.838-2.256 16.637-3.086l-10.956 16.434c-2.363 3.542-1.245 8.605 2.429 10.779 3.421 2.025 8.063 1.01 10.276-2.31l16.287-24.43a7.623 7.623 0 0 0 1.075-2.498c49.705-3.563 110.958 3.656 158.304 11.412 4.163.688 8.085-2.14 8.767-6.3a7.634 7.634 0 0 0-6.3-8.767c-16.652-2.728-35.006-5.386-54.018-7.546l13.178-46.122c30.264 7.747 74.255 37.828 107.09 66.225a1383.264 1383.264 0 0 0-29.419-5.991 7.636 7.636 0 0 0-2.884 14.994c33.445 6.433 56.364 12.14 56.592 12.196 3.348.837 6.93-.748 8.568-3.782 1.58-2.934 1.036-6.663-1.323-9.023zm-482.521-49.45l-5.854-17.563 14.636 8.782-8.782 8.781zm99.735-126.426c-11.767-10.55-24.211-19.533-37.252-26.907 32.793 3.941 70.514 11.003 92.649 22.629l-30.326 30.326c-7.964-9.513-16.333-18.215-25.071-26.048zM342.555 297.85c-44.18-4.263-90.34-5.311-125.955 2.031-4.16-13.842-15.009-45.739-35.454-80.338-6.149-10.406-12.676-20.197-19.542-29.353l33.466-33.466c.733.739 1.43 1.486 2.044 2.254 31.619 39.522 47.834 71.618 47.993 71.935 2.521 5.046 9.735 5.62 13.029 1.039l17.305-24.091a7.647 7.647 0 0 0 1.419-3.969l.813-12.815 33.156 6.029-20.592 6.863a7.637 7.637 0 0 0-4.414 3.828l-16.287 32.573c-2.496 4.99 1.26 11.048 6.828 11.048h79.456l-13.265 46.432zm-49.904 109.311a40.151 40.151 0 0 0-18.414 4.471c-4.897-16.684-20.343-28.901-38.589-28.901s-33.693 12.217-38.589 28.901a40.16 40.16 0 0 0-18.414-4.471c-22.17 0-40.208 18.038-40.208 40.208 0 22.17 18.038 40.208 40.208 40.208h114.007c22.17 0 40.208-18.038 40.208-40.208-.001-22.171-18.037-40.208-40.209-40.208zm0 65.147H178.644c-13.751 0-24.939-11.187-24.939-24.939s11.188-24.939 24.939-24.939c7.212 0 14.071 3.13 18.818 8.588 2.201 2.529 5.979 3.306 9.012 1.891a7.64 7.64 0 0 0 3.655-3.658c.955-2.035.579-4.149.579-6.311 0-13.752 11.188-24.939 24.939-24.939s24.939 11.187 24.939 24.939c0 2.1-.38 4.17.509 6.16a7.68 7.68 0 0 0 3.594 3.748c3.051 1.496 6.911.737 9.144-1.831a24.942 24.942 0 0 1 18.817-8.587c13.752 0 24.939 11.187 24.939 24.939s-11.185 24.939-24.938 24.939zM422.945 48.852c-3.188 0-6.303.461-9.269 1.353-2.929-14.683-15.916-25.783-31.448-25.783-15.531 0-28.519 11.099-31.448 25.783a32.15 32.15 0 0 0-9.269-1.353c-17.68 0-32.065 14.384-32.065 32.065 0 17.68 14.384 32.065 32.065 32.065h81.434c17.68 0 32.065-14.384 32.065-32.065 0-17.68-14.384-32.065-32.065-32.065zm-.001 48.86H341.51c-9.261 0-16.796-7.535-16.796-16.796s7.537-16.795 16.797-16.795a16.67 16.67 0 0 1 11.953 5.002c3.029 3.071 8.159 2.966 11.07-.212a7.682 7.682 0 0 0 1.996-5.386c-.034-1.075-.383-2.046-.631-3.079a16.929 16.929 0 0 1-.468-3.96c0-9.261 7.535-16.796 16.796-16.796s16.796 7.535 16.796 16.796c0 1.272-.143 2.544-.427 3.783-.251 1.092-.636 2.122-.671 3.255a7.695 7.695 0 0 0 1.996 5.386c2.904 3.185 8.046 3.278 11.07.212a16.673 16.673 0 0 1 11.953-5.002c9.261 0 16.796 7.535 16.796 16.796s-7.535 16.796-16.796 16.796zm-252.443-73.29c-9.779 0-18.544 4.406-24.43 11.331-5.886-6.925-14.651-11.331-24.43-11.331a7.634 7.634 0 0 0-7.634 7.634 7.634 7.634 0 0 0 7.634 7.634c9.261 0 16.796 7.535 16.796 16.796 0 4.217 3.418 7.634 7.634 7.634s7.634-3.417 7.634-7.634c0-9.261 7.535-16.796 16.796-16.796a7.634 7.634 0 0 0 7.634-7.634 7.634 7.634 0 0 0-7.634-7.634zM455.519 162.86c-9.779 0-18.543 4.406-24.43 11.33-5.886-6.925-14.651-11.33-24.43-11.33a7.633 7.633 0 0 0-7.634 7.634 7.633 7.633 0 0 0 7.634 7.634c9.261 0 16.796 7.535 16.796 16.796a7.633 7.633 0 0 0 7.634 7.634 7.633 7.633 0 0 0 7.634-7.634c0-9.261 7.535-16.796 16.796-16.796a7.633 7.633 0 0 0 7.634-7.634 7.633 7.633 0 0 0-7.634-7.634z"/></svg>