<svg xmlns="http://www.w3.org/2000/svg" viewBox="0 0 512.001 512.001"><path d="M403.819 145.19c-28.547-8.271-67.141-13.914-109.388-16.037a39.484 39.484 0 0 0 1.153-9.47c0-18.806-27.578-66.579-33.107-75.965-2.855-4.845-10.097-4.845-12.952 0-5.529 9.386-33.107 57.159-33.107 75.965 0 3.264.405 6.434 1.153 9.471-41.974 2.11-80.325 7.686-108.84 15.878-34.935 10.036-52.648 23.085-52.648 38.785v72.399c0 4.152 3.365 7.516 7.516 7.516s7.516-3.364 7.516-7.516v-49.572c10.363 7.059 26.051 13.236 47.015 18.477 36.919 9.23 85.882 14.313 137.87 14.313 28.269 0 55.638-1.506 80.668-4.361v40.463c-3.073.36-6.173.707-9.325 1.026a8.016 8.016 0 1 0 1.615 15.951 601.66 601.66 0 0 0 7.711-.835v34.491c-3.073.361-6.173.707-9.325 1.026a8.016 8.016 0 1 0 1.615 15.951c2.598-.263 5.163-.544 7.711-.835v34.49c-3.073.361-6.173.707-9.325 1.026a8.016 8.016 0 1 0 1.615 15.951c2.598-.263 5.163-.544 7.711-.835v34.49c-3.073.36-6.173.707-9.325 1.026a8.018 8.018 0 1 0 1.615 15.951 601.66 601.66 0 0 0 7.711-.835v40.921c-13.077 1.531-26.847 2.68-41.086 3.427v-23.526a7.515 7.515 0 0 0-7.516-7.516 7.515 7.515 0 0 0-7.516 7.516v24.16a769.377 769.377 0 0 1-33.069.342v-24.502a7.515 7.515 0 0 0-7.516-7.516 7.515 7.515 0 0 0-7.516 7.516v24.194a710.096 710.096 0 0 1-33.069-1.772v-22.423c0-4.152-3.365-7.516-7.516-7.516s-7.516 3.364-7.516 7.516v21.082c-11.548-1.171-22.619-2.63-33.069-4.36v-24.739a7.515 7.515 0 0 0-7.516-7.516 7.515 7.515 0 0 0-7.516 7.516v21.972a336.528 336.528 0 0 1-14.475-3.268c-7.091-1.773-13.243-3.592-18.594-5.416v-21.304a7.515 7.515 0 0 0-7.516-7.516 7.515 7.515 0 0 0-7.516 7.516v15.239c-12.872-6.265-17.036-11.978-17.036-15.239v-158.66a7.515 7.515 0 0 0-7.516-7.516 7.515 7.515 0 0 0-7.516 7.516v158.663c0 12.287 10.761 22.915 32.067 31.742v8.341a7.515 7.515 0 0 0 7.516 7.516 7.515 7.515 0 0 0 7.516-7.516v-2.955a268.794 268.794 0 0 0 14.948 4.175 358.472 358.472 0 0 0 18.121 4.012v2.785a7.515 7.515 0 0 0 7.516 7.516 7.515 7.515 0 0 0 7.516-7.516v-.121c10.495 1.681 21.562 3.096 33.069 4.237v3.902c0 4.152 3.365 7.516 7.516 7.516s7.516-3.364 7.516-7.516v-2.587a725.044 725.044 0 0 0 33.069 1.733v.855a7.515 7.515 0 0 0 7.516 7.516 7.515 7.515 0 0 0 7.516-7.516v-.549a782.175 782.175 0 0 0 33.069-.336v.885a7.515 7.515 0 0 0 7.516 7.516 7.515 7.515 0 0 0 7.516-7.516v-1.508c36.931-1.903 70.921-6.464 98.288-13.306a291.268 291.268 0 0 0 6.931-1.823v.603a7.515 7.515 0 0 0 7.516 7.516 7.515 7.515 0 0 0 7.516-7.516v-5.286c26.613-9.393 40.084-21.057 40.084-34.798v-264.55c-.003-15.615-17.531-28.611-52.101-38.627zM256.002 62.711c11.345 20.51 24.551 47.467 24.551 56.972 0 13.538-11.014 24.551-24.551 24.551-13.537 0-24.551-11.013-24.551-24.551-.002-9.498 13.206-36.458 24.551-56.972zM256 224.401c-50.795 0-98.464-4.923-134.225-13.864-8.729-2.183-16.06-4.436-22.19-6.681 34.443-12.672 92.997-20.541 156.415-20.541s121.972 7.868 156.415 20.541c-6.129 2.245-13.46 4.498-22.19 6.681-35.76 8.941-83.43 13.864-134.225 13.864zm184.882 223.966c.004 3.861-5.844 11.155-25.048 18.736v-26.752a7.515 7.515 0 0 0-7.516-7.516 7.515 7.515 0 0 0-7.516 7.516v31.866a262.048 262.048 0 0 1-10.577 2.871c-11.672 2.918-24.62 5.405-38.525 7.437V441.66c9.134-1.292 17.878-2.763 26.126-4.415a8.017 8.017 0 0 0 6.285-9.436c-.871-4.341-5.091-7.159-9.437-6.284-7.277 1.458-14.957 2.776-22.976 3.945v-34.443c9.135-1.292 17.88-2.763 26.126-4.416a8.017 8.017 0 1 0-3.152-15.72c-7.276 1.458-14.956 2.776-22.976 3.946v-34.443c9.135-1.292 17.88-2.763 26.126-4.416a8.017 8.017 0 1 0-3.152-15.72c-7.276 1.458-14.956 2.776-22.976 3.946V289.76c9.137-1.292 17.882-2.763 26.126-4.415a8.017 8.017 0 0 0 6.285-9.436 8.012 8.012 0 0 0-9.437-6.284c-7.274 1.458-14.954 2.775-22.976 3.945v-40.415c15.245-2.159 29.426-4.851 42.171-8.038 20.963-5.24 36.651-11.418 47.015-18.477v241.727zm-10.179-253.079c-34.11-16.712-100.274-27.004-174.702-27.004s-140.592 10.292-174.702 27.004c-7.546-4.738-10.183-8.88-10.183-11.472 0-5.693 10.939-15.481 41.767-24.338 28.869-8.293 68.477-13.813 111.821-15.604 7.246 9.353 18.577 15.391 31.297 15.391s24.05-6.038 31.297-15.391c43.609 1.803 83.455 7.385 112.337 15.753 30.447 8.821 41.251 18.544 41.251 24.189 0 2.593-2.637 6.735-10.183 11.472zM406.777 3.634c-2.855-4.845-10.097-4.845-12.952 0-5.529 9.386-33.107 57.159-33.107 75.965.001 21.826 17.758 39.583 39.583 39.583s39.582-17.757 39.582-39.583c.001-18.806-27.578-66.579-33.106-75.965zm-6.475 100.516c-13.537 0-24.551-11.013-24.551-24.551-.001-9.498 13.206-36.458 24.551-56.972 11.345 20.51 24.551 47.467 24.551 56.972 0 13.538-11.014 24.551-24.551 24.551z"/><path d="M134.209 3.634c-2.855-4.845-10.097-4.845-12.952 0-5.529 9.386-33.107 57.159-33.107 75.965.001 21.826 17.758 39.583 39.583 39.583s39.583-17.757 39.583-39.583c0-18.806-27.579-66.579-33.107-75.965zm-6.475 100.516c-13.537 0-24.551-11.013-24.551-24.551-.001-9.498 13.206-36.458 24.551-56.972 11.345 20.51 24.551 47.467 24.551 56.972 0 13.538-11.014 24.551-24.551 24.551z"/></svg>