<svg xmlns="http://www.w3.org/2000/svg" viewBox="0 0 512.002 512.002"><path d="M504.936 137.553L384.5 129.068 374.44 6.974c-.32-3.888-3.666-6.971-7.567-6.974-3.899-.002-7.246 3.073-7.574 6.956l-12.643 149.295-24.628 24.628-21.217-137.256c-.6-3.877-4.047-6.643-7.969-6.424a7.598 7.598 0 0 0-7.134 7.339l-5.739 178.399-25.869 25.87-36.675-167.824c-.822-3.762-4.463-6.366-8.29-5.926-3.825.441-6.782 3.801-6.731 7.651l2.923 214.872-24.019 24.018-56.356-205.474c-1.027-3.746-4.859-6.148-8.679-5.466-3.719.664-6.435 4.109-6.236 7.877l13.79 260.544-27.782 27.782-81.216-252.088c-1.17-3.633-4.991-5.872-8.733-5.119-3.741.753-6.396 4.3-6.068 8.101L27.446 475.46 7.025 495.882c-2.767 2.767-2.95 7.335-.404 10.31 2.841 3.318 8.059 3.525 11.148.437l20.436-20.436 316.075 25.785c3.803.306 7.334-2.358 8.072-6.104.737-3.743-1.516-7.554-5.152-8.71l-174.22-55.385a7.6 7.6 0 0 0-4.604 14.482l110.528 35.138-236.601-19.304 42.427-42.427 45.206 14.371a7.6 7.6 0 0 0 4.603-14.482l-37.71-11.988 27.763-27.763 258.919 12.161c3.828.156 7.271-2.617 7.863-6.419.591-3.785-1.836-7.515-5.535-8.508L192.11 332.29l23.988-23.988 213.254 1.296c3.802 0 7.1-2.861 7.583-6.644.493-3.872-2.149-7.581-5.966-8.387l-166.042-35.094 25.818-25.818 176.791-7.364c3.821-.159 6.993-3.251 7.262-7.062.277-3.915-2.602-7.483-6.485-8.048l-135.418-19.676 24.545-24.545 147.696-14.267c3.882-.375 6.917-3.761 6.866-7.662-.053-3.897-3.176-7.203-7.066-7.478zM41.487 461.421L20.934 223.276 83.97 418.937l-42.483 42.484zM128.936 188.1l40.007 145.864-30.664 30.664-9.343-176.528zm195.158 195.394l-174.972-8.218 30.585-30.585 144.387 38.803zm-105.473-225.86l22.713 103.939-21.014 21.014-1.699-124.953zm135.932 136.312l-123.353-.749 20.904-20.904 102.449 21.653zM298.27 126.657l10.439 67.54-13.032 13.033 2.593-80.573zm87.205 87.844l-78.862 3.284 12.873-12.873 65.989 9.589zm-22.159-74.909l3.448-40.727 2.839 34.44-6.287 6.287zm11.019 10.47l6.052-6.052 32.726 2.306-38.778 3.746z"/></svg>