<svg xmlns="http://www.w3.org/2000/svg" viewBox="0 0 512 512"><path d="M498.195 261.336l4.996-9.991a7.515 7.515 0 0 0-3.361-10.083 7.513 7.513 0 0 0-10.083 3.361l-5.391 10.78c-24.094-2.944-37.098 25.222-41.614 35-.431.934-.793 1.719-1.089 2.314-3.101 6.202-5.031 13.994-6.63 21.385-.491-3.557-.98-7.301-1.449-10.903-5.631-43.208-13.187-101.165-41.811-109.74v-17.615c0-4.151-3.364-7.515-7.515-7.515s-7.515 3.364-7.515 7.515v17.615c-28.623 8.576-36.18 66.532-41.811 109.74-.47 3.602-.958 7.346-1.449 10.903-1.599-7.39-3.529-15.182-6.63-21.384-.297-.593-.657-1.379-1.088-2.312-4.515-9.778-17.528-37.95-41.616-35.004l-5.389-10.779c-1.855-3.711-6.366-5.214-10.083-3.361a7.518 7.518 0 0 0-3.361 10.083l4.996 9.99c-9.086 8.741-11.95 27.728-8.752 57.585 3.571 33.338 13.615 71.6 19.283 91.441 7.512 26.29 24.311 52.099 47.303 72.67C348.11 500.9 369.61 512 384.25 512c14.641 0 36.141-11.1 56.111-28.968 22.992-20.571 39.792-46.38 47.303-72.67 5.668-19.841 15.712-58.102 19.283-91.441 3.199-29.856.335-48.845-8.752-57.585zm-6.191 55.985c-3.452 32.22-13.255 69.536-18.792 88.912-15.863 55.523-70.249 90.738-88.962 90.738s-73.099-35.215-88.962-90.738c-5.536-19.376-15.34-56.692-18.792-88.912-3.375-31.5 1.083-44.562 5.927-46.176 1.647-.549 3.23-.805 4.753-.805 11.184 0 19.121 13.776 24.938 26.368.509 1.102.94 2.029 1.289 2.731 2.847 5.693 4.67 14.397 6.28 22.076 2.64 12.6 4.385 20.923 11.467 23.032 1.677.501 6.041 1.198 10.319-3.077 3.977-3.978 5.173-11.896 8.358-36.33 2.651-20.35 5.953-45.676 12.055-66.115 4.306-14.424 11.682-31.62 22.367-31.62s18.06 17.196 22.367 31.621c6.102 20.439 9.403 45.766 12.055 66.115 3.185 24.434 4.382 32.352 8.358 36.33 4.279 4.277 8.642 3.578 10.319 3.077 7.083-2.109 8.828-10.432 11.467-23.032 1.609-7.679 3.434-16.384 6.28-22.076.352-.701.781-1.63 1.292-2.733 6.608-14.306 15.958-30.142 29.689-25.562 4.845 1.615 9.303 14.676 5.928 46.176zm-240.312-191.66c-.159-6.433-.594-23.674-9.999-32.651l4.997-9.994a7.515 7.515 0 0 0-3.361-10.083 7.512 7.512 0 0 0-10.083 3.361l-5.39 10.78c-24.094-2.946-37.098 25.222-41.615 35.001-.431.934-.793 1.719-1.089 2.314-3.101 6.202-5.031 13.994-6.63 21.385-.491-3.557-.98-7.301-1.449-10.903-5.63-43.21-13.187-101.166-41.81-109.741V7.515c0-4.151-3.364-7.515-7.515-7.515s-7.515 3.364-7.515 7.515V25.13c-28.623 8.576-36.18 66.531-41.811 109.739-.47 3.602-.958 7.346-1.449 10.903-1.599-7.39-3.529-15.182-6.63-21.384-.297-.593-.657-1.379-1.088-2.312-4.516-9.777-17.525-37.949-41.616-35.004l-5.39-10.78a7.518 7.518 0 0 0-10.083-3.361 7.518 7.518 0 0 0-3.361 10.083l4.996 9.991c-9.086 8.742-11.95 27.73-8.751 57.587 3.571 33.338 13.615 71.6 19.283 91.441 7.512 26.29 24.312 52.099 47.303 72.67 19.97 17.868 41.47 28.968 56.111 28.968 14.641 0 36.141-11.1 56.111-28.968 22.992-20.571 39.792-46.38 47.302-72.67a782.836 782.836 0 0 0 5.735-21.184 7.516 7.516 0 0 0-14.562-3.722 768.465 768.465 0 0 1-5.624 20.777c-15.864 55.523-70.25 90.738-88.963 90.738s-73.099-35.215-88.962-90.738c-5.536-19.376-15.34-56.692-18.792-88.912-3.375-31.5 1.083-44.562 5.927-46.176 13.736-4.579 23.082 11.256 29.691 25.564.509 1.102.94 2.029 1.289 2.731 2.847 5.693 4.67 14.397 6.28 22.076 2.64 12.6 4.385 20.923 11.467 23.032 1.677.5 6.042 1.198 10.319-3.077 3.977-3.978 5.173-11.896 8.358-36.33 2.651-20.35 5.953-45.676 12.055-66.115 4.306-14.425 11.682-31.621 22.367-31.621s18.06 17.196 22.367 31.621c6.102 20.439 9.403 45.766 12.055 66.115 3.185 24.434 4.382 32.352 8.358 36.33 4.279 4.278 8.642 3.577 10.319 3.077 7.083-2.109 8.828-10.432 11.467-23.032 1.609-7.679 3.434-16.384 6.28-22.076.352-.701.782-1.63 1.292-2.733 6.608-14.305 15.95-30.146 29.689-25.562 5.712 1.904 12.283 20.81.676 79.587a7.517 7.517 0 0 0 5.917 8.829 7.514 7.514 0 0 0 8.829-5.917c4.82-24.39 7.072-44.46 6.698-59.654z"/></svg>