<svg xmlns="http://www.w3.org/2000/svg" viewBox="0 0 512 512"><path d="M504.485 440.861h-24.047c-13.536 0-24.548-11.011-24.548-24.548v-96.188c0-21.823-17.755-39.577-39.577-39.577s-39.577 17.755-39.577 39.577v144.282c0 13.536-11.012 24.548-24.548 24.548s-24.548-11.011-24.548-24.548V256c0-21.823-17.755-39.577-39.577-39.577S248.485 234.177 248.485 256v152.297c0 17.956-14.608 32.564-32.564 32.564h-9.542c-2.623-30.87-10.278-103.812-22.853-217.752-.456-4.124-4.15-7.084-8.294-6.645a7.516 7.516 0 0 0-6.645 8.294c14.494 131.321 20.545 190.907 22.724 216.103h-8.866c-3.381-13.786-15.837-24.047-30.651-24.047-17.403 0-31.562 14.159-31.562 31.562s14.159 31.562 31.562 31.562c14.814 0 27.269-10.261 30.651-24.047h9.923c.004.181.006.353.006.501 0 22.376-18.204 40.579-40.579 40.579-22.376 0-40.579-18.204-40.579-40.579 0-17.867 23.474-230.493 40.574-382.093 3.691 32.749 8.39 74.63 13.25 118.406.458 4.124 4.185 7.099 8.297 6.64a7.514 7.514 0 0 0 6.64-8.297C169.285 94.702 159.362 7.534 159.263 6.664 158.836 2.916 155.569 0 151.796 0c-3.772 0-7.04 2.916-7.467 6.664-1.792 15.731-40.295 354.09-47.113 434.197H87.67c-17.956 0-32.564-14.607-32.564-32.564V207.906c0-4.696 3.82-8.517 8.517-8.517h16.031c12.983 0 23.546-10.563 23.546-23.546s-10.563-23.546-23.546-23.546h-56.11c-4.696 0-8.517-3.82-8.517-8.517s3.82-8.517 8.517-8.517h56.11c12.983 0 23.546-10.563 23.546-23.546S92.639 88.172 79.656 88.172h-56.11c-4.696 0-8.517-3.82-8.517-8.517s3.82-8.517 8.517-8.517h56.11c12.983 0 23.546-10.563 23.546-23.546S92.639 24.047 79.656 24.047H63.624c-4.696 0-8.517-3.82-8.517-8.517V7.515C55.108 3.364 51.744 0 47.593 0s-7.515 3.364-7.515 7.515v8.016c0 12.983 10.563 23.546 23.546 23.546h16.031c4.696 0 8.517 3.82 8.517 8.517s-3.82 8.517-8.517 8.517h-56.11C10.563 56.11 0 66.672 0 79.656s10.563 23.546 23.546 23.546h56.11c4.696 0 8.517 3.82 8.517 8.517s-3.82 8.517-8.517 8.517h-56.11C10.563 120.235 0 130.797 0 143.781s10.563 23.546 23.546 23.546h56.11c4.696 0 8.517 3.82 8.517 8.517s-3.82 8.517-8.517 8.517H63.624c-12.983 0-23.546 10.563-23.546 23.546v200.391c0 26.242 21.351 47.593 47.593 47.593h8.523c-.003.174-.006.351-.006.501 0 30.663 24.946 55.609 55.609 55.609s55.609-24.946 55.609-55.609c0-.152-.002-.324-.005-.501h8.522c26.242 0 47.593-21.351 47.593-47.593V256c0-13.536 11.012-24.548 24.548-24.548s24.548 11.012 24.548 24.548v208.407c0 21.823 17.755 39.577 39.577 39.577s39.577-17.755 39.577-39.577V320.125c0-13.536 11.012-24.548 24.548-24.548s24.548 11.012 24.548 24.548v96.188c0 21.823 17.755 39.577 39.577 39.577h24.047a7.514 7.514 0 1 0-.001-15.029zm-352.689 24.047c-6.409 0-11.965-3.673-14.708-9.018h29.414c-2.74 5.345-8.296 9.018-14.706 9.018zm-14.706-24.047c2.741-5.344 8.297-9.018 14.707-9.018s11.965 3.673 14.708 9.018H137.09z"/></svg>