<svg xmlns="http://www.w3.org/2000/svg" viewBox="0 0 512 512"><path d="M447.87 138.223c-35.337-35.338-120.496-69.4-253.106-101.236a7.621 7.621 0 0 0-3.558 14.82c128.009 30.731 213.035 64.339 245.886 97.192 38.477 38.476 59.667 89.633 59.667 144.046s-21.189 105.57-59.667 144.046c-38.476 38.477-89.633 59.667-144.046 59.667s-105.57-21.189-144.047-59.667C76.986 365.079 26.402 75.367 16.804 16.797c21.735 3.547 75.328 12.72 137.353 26.464 4.052.897 8.19-1.738 9.088-5.79.898-4.054-1.737-8.19-5.791-9.088C76.292 10.396 9.427.185 8.762.084 3.768-.668-.674 3.763.085 8.761c.134.884 13.686 89.535 37.172 187.123 31.761 131.972 65.731 216.752 100.966 251.987C179.578 489.224 234.561 512 293.046 512c58.485 0 113.469-22.775 154.824-64.13C489.224 406.515 512 351.531 512 293.046c0-58.486-22.776-113.469-64.13-154.823z"/><path d="M464.435 285.471c-1.206-44.291-19.444-84.438-51.353-113.05-53.656-48.111-175.28-97.051-180.43-99.11-5.515-2.207-11.465 2.752-10.301 8.57l8.681 43.404-164.94-69.167a7.624 7.624 0 0 0-8.401 1.705 7.623 7.623 0 0 0-1.5 8.44l64.323 143.488-41.783-26.589c-2.762-1.759-6.435-1.525-8.953.563-2.434 2.018-3.377 5.427-2.321 8.409 2.365 6.679 58.449 164.22 104.745 220.693 25.982 31.693 64.076 50.322 107.264 52.454 2.732.135 5.469.202 8.205.202 46.28-.001 92.749-19.136 125.712-52.099 33.739-33.738 52.348-80.361 51.052-127.913zm-61.827 117.136c-31.92 31.921-77.677 49.664-122.389 47.453-38.836-1.918-73.01-18.572-96.229-46.895-34.839-42.495-77.224-149.443-94.394-195.025l44.177 28.112c2.855 1.818 6.672 1.497 9.187-.766 2.432-2.189 3.195-5.793 1.857-8.781L77.992 77.633l160.38 67.257c5.528 2.323 11.593-2.65 10.419-8.521l-8.689-43.446c33.258 14.155 121.185 53.527 162.807 90.847 28.762 25.789 45.201 62.054 46.293 102.118 1.181 43.384-15.802 85.927-46.594 116.719z"/><path d="M378.9 207.192c-47.341-47.339-124.368-47.339-171.707 0-47.34 47.341-47.34 124.368 0 171.708 23.67 23.669 54.762 35.503 85.853 35.503 31.092 0 62.184-11.834 85.854-35.503 47.339-47.341 47.339-124.368 0-171.708zm-10.777 160.93c-41.396 41.396-108.755 41.398-150.153 0-41.397-41.397-41.397-108.756 0-150.153 41.396-41.399 108.756-41.399 150.153 0 41.397 41.397 41.397 108.756 0 150.153z"/><path d="M346.465 301.719c-11.056-8.146-26.638-8.186-37.736-.096a32.554 32.554 0 0 0-3.827 3.277c-9.74 9.738-12.157 25.102-5.81 37.346 6.378 12.302 20.37 19.185 34.004 16.792 12.907-2.265 23.356-12.532 25.841-25.391 2.329-12.059-2.581-24.642-12.472-31.928zm-7.078 37.666c-4.628 4.626-11.727 6.131-17.84 3.805-6.707-2.552-11.102-9.314-10.76-16.475.358-7.485 5.876-14.013 13.214-15.579 7.137-1.523 14.627 1.855 18.179 8.237 3.597 6.464 2.436 14.781-2.793 20.012zm-5.463-112.889c-1.302-9.328-8.214-17.207-17.304-19.691-9.108-2.488-19.042.726-24.963 8.081-7.541 9.37-6.743 23.328 1.75 31.819 7.564 7.564 19.641 9.168 28.895 3.763 8.306-4.85 12.95-14.454 11.622-23.972zm-20.777 11.481c-3.492 1.221-7.471.024-9.717-2.908-2.601-3.395-2.271-8.33.753-11.353 2.629-2.632 6.786-3.272 10.088-1.558 3.01 1.563 4.847 4.837 4.632 8.217-.218 3.418-2.518 6.469-5.756 7.602zm-62.207 49.645c-4.344-8.186-13.263-13.189-22.504-12.655-9.376.542-17.79 6.746-21.032 15.578-3.56 9.696-.325 20.857 7.846 27.161 9.37 7.232 23.092 6.334 31.457-2.03 7.319-7.318 9.09-18.896 4.233-28.054zm-14.356 16.547c-2.024 2.535-5.373 3.736-8.547 3.07-3.946-.829-6.85-4.413-6.85-8.446 0-3.762 2.53-7.182 6.138-8.265 3.576-1.074 7.538.324 9.643 3.41 2.105 3.083 1.944 7.315-.384 10.231z"/></svg>