<svg xmlns="http://www.w3.org/2000/svg" viewBox="0 0 512 512"><path d="M358.075 371.921c-36.152-38.005-54.482-77.007-54.482-115.921a7.515 7.515 0 0 0-7.515-7.515h-80.157a7.515 7.515 0 0 0-7.515 7.515c0 66.82-54.908 122.181-100.969 156.855C56.653 451.086 5.079 473.307 4.564 473.528A7.514 7.514 0 0 0 0 480.438v24.047a7.515 7.515 0 1 0 15.03 0v-19.164c13.948-6.356 57.276-27.25 101.205-60.276 30.866-23.205 55.508-47.577 73.242-72.442a227.08 227.08 0 0 0 6.054-8.932h4.862v24.548c0 12.983 10.563 23.546 23.546 23.546s23.546-10.563 23.546-23.546v-40.078c0-4.696 3.82-8.517 8.517-8.517s8.517 3.82 8.517 8.517v32.063c0 12.983 10.563 23.546 23.546 23.546s23.546-10.563 23.546-23.546v-16.532h4.859c8.375 13 18.611 25.882 30.718 38.608a7.517 7.517 0 0 0 10.624.267 7.518 7.518 0 0 0 .263-10.626zm-53.981-43.279a7.515 7.515 0 0 0-7.515 7.515v24.047c0 4.696-3.82 8.517-8.517 8.517s-8.517-3.82-8.517-8.517v-32.063c0-12.983-10.563-23.546-23.546-23.546s-23.546 10.563-23.546 23.546v40.078c0 4.696-3.82 8.517-8.517 8.517s-8.517-3.82-8.517-8.517v-32.063a7.515 7.515 0 0 0-7.515-7.515h-3.565c11.376-21.493 17.71-43.294 18.892-65.127h65.533c1.176 21.888 7.502 43.648 18.882 65.127h-3.552zm203.342 144.886c-.666-.285-67.236-29.002-123.817-77.467a7.516 7.516 0 0 0-9.777 11.415c50.382 43.156 106.797 70.413 123.129 77.848v19.162a7.515 7.515 0 1 0 15.03 0v-24.047a7.517 7.517 0 0 0-4.565-6.911zM256 168.329a7.515 7.515 0 0 0-7.515 7.515v48.094a7.515 7.515 0 1 0 15.03 0v-48.094a7.514 7.514 0 0 0-7.515-7.515zm32.063-16.032a7.515 7.515 0 0 0-7.515 7.515v24.047a7.515 7.515 0 1 0 15.03 0v-24.047a7.516 7.516 0 0 0-7.515-7.515zm-64.126 12.024a7.515 7.515 0 0 0-7.515 7.515v28.055a7.515 7.515 0 1 0 15.03 0v-28.055a7.515 7.515 0 0 0-7.515-7.515zM368.219 32.063c-2.766 0-5.507.287-8.191.855-10.448-10.789-24.73-16.886-39.903-16.886-5.521 0-10.941.807-16.173 2.401C290.774 6.511 273.926 0 256 0s-34.774 6.511-47.953 18.432a55.333 55.333 0 0 0-16.173-2.401c-15.173 0-29.455 6.097-39.903 16.886a39.532 39.532 0 0 0-8.191-.855c-21.823 0-39.577 17.755-39.577 39.577 0 21.823 17.755 39.577 39.577 39.577 2.766 0 5.507-.287 8.191-.855 10.448 10.789 24.73 16.886 39.903 16.886 5.521 0 10.941-.807 16.173-2.401 13.179 11.921 30.027 18.432 47.953 18.432s34.774-6.511 47.953-18.432a55.333 55.333 0 0 0 16.173 2.401c15.173 0 29.455-6.097 39.903-16.886a39.6 39.6 0 0 0 8.191.855c21.823 0 39.577-17.755 39.577-39.577-.001-21.822-17.755-39.576-39.578-39.576zm0 64.125c-2.8 0-5.556-.473-8.189-1.404a7.516 7.516 0 0 0-8.348 2.358c-7.755 9.582-19.257 15.077-31.557 15.077-5.25 0-10.374-.998-15.229-2.966a7.514 7.514 0 0 0-8.224 1.737c-10.77 11.131-25.214 17.26-40.672 17.26s-29.902-6.129-40.673-17.26a7.515 7.515 0 0 0-8.223-1.737 40.348 40.348 0 0 1-15.229 2.966c-12.3 0-23.802-5.496-31.557-15.078a7.513 7.513 0 0 0-8.348-2.358 24.481 24.481 0 0 1-8.189 1.405c-13.535 0-24.548-11.011-24.548-24.548 0-13.536 11.013-24.548 24.548-24.548 2.8 0 5.556.473 8.189 1.404a7.51 7.51 0 0 0 8.348-2.358c7.755-9.582 19.257-15.077 31.557-15.077 5.25 0 10.374.998 15.229 2.966a7.52 7.52 0 0 0 8.224-1.737c10.77-11.131 25.214-17.26 40.672-17.26s29.902 6.129 40.673 17.26a7.511 7.511 0 0 0 8.224 1.737 40.336 40.336 0 0 1 15.228-2.966c12.3 0 23.802 5.496 31.557 15.078a7.51 7.51 0 0 0 8.348 2.358 24.48 24.48 0 0 1 8.189-1.404c13.535 0 24.548 11.012 24.548 24.548s-11.012 24.547-24.548 24.547zm96.188 72.141c-2.532 0-5.03.411-7.4 1.198-7.271-10.67-19.381-17.23-32.678-17.23-13.297 0-25.407 6.56-32.678 17.23a23.465 23.465 0 0 0-7.4-1.198c-12.983 0-23.546 10.563-23.546 23.546s10.563 23.546 23.546 23.546c2.532 0 5.03-.411 7.4-1.198 7.271 10.67 19.381 17.23 32.678 17.23 13.297 0 25.407-6.56 32.678-17.23a23.465 23.465 0 0 0 7.4 1.198c12.983 0 23.546-10.563 23.546-23.546s-10.563-23.546-23.546-23.546zm0 32.062c-2.588 0-4.434-1.115-5.527-2.051-3.827-3.28-9.929-1.798-11.839 2.853-3.8 9.251-12.716 15.23-22.712 15.23s-18.912-5.979-22.712-15.23c-1.909-4.648-8.01-6.133-11.839-2.853-1.092.936-2.939 2.051-5.527 2.051-4.696 0-8.517-3.82-8.517-8.517s3.82-8.517 8.517-8.517c2.588 0 4.434 1.115 5.527 2.051 3.828 3.278 9.928 1.799 11.839-2.853 3.8-9.251 12.716-15.23 22.712-15.23 9.997 0 18.912 5.979 22.712 15.23 1.91 4.65 8.012 6.133 11.839 2.853 1.092-.936 2.939-2.051 5.527-2.051 4.696 0 8.517 3.82 8.517 8.517s-3.821 8.517-8.517 8.517zm-320.626 16.032c-2.532 0-5.03.411-7.4 1.198-7.271-10.67-19.381-17.23-32.678-17.23-13.297 0-25.407 6.56-32.678 17.23a23.465 23.465 0 0 0-7.4-1.198c-12.983 0-23.546 10.563-23.546 23.546s10.563 23.546 23.546 23.546c2.532 0 5.03-.411 7.4-1.198 7.271 10.67 19.381 17.23 32.678 17.23 13.297 0 25.407-6.56 32.678-17.23a23.46 23.46 0 0 0 7.4 1.198c12.983 0 23.546-10.563 23.546-23.546 0-12.984-10.563-23.546-23.546-23.546zm0 32.062c-2.588 0-4.434-1.115-5.527-2.051-3.828-3.278-9.929-1.798-11.839 2.853-3.8 9.251-12.716 15.23-22.712 15.23s-18.912-5.979-22.712-15.23c-1.909-4.648-8.01-6.133-11.839-2.853-1.093.936-2.939 2.051-5.527 2.051-4.696 0-8.517-3.82-8.517-8.517s3.82-8.517 8.517-8.517c2.588 0 4.434 1.115 5.527 2.051 3.828 3.278 9.928 1.799 11.839-2.853 3.8-9.251 12.716-15.23 22.712-15.23s18.912 5.979 22.712 15.23c1.911 4.651 8.011 6.131 11.839 2.853 1.092-.936 2.939-2.051 5.527-2.051 4.696 0 8.517 3.82 8.517 8.517s-3.821 8.517-8.517 8.517z"/></svg>