<svg xmlns="http://www.w3.org/2000/svg" viewBox="0 0 511.999 511.999"><path d="M502.95 198.728a7.657 7.657 0 0 0-9.346-1.151c-40.961 24.577-114.785 73.793-139.043 89.965-26.333 17.555-58.421 39.419-91.836 62.685l-12.764-12.764a7.651 7.651 0 0 0-10.819 10.82l10.84 10.84a5983.455 5983.455 0 0 0-11.263 7.901l-13.24-13.24a7.651 7.651 0 0 0-10.819 10.82l11.369 11.37a5529.983 5529.983 0 0 0-16.072 11.408 7.654 7.654 0 0 0-.8-.955l-8.161-8.161a7.651 7.651 0 0 0-10.819 10.82l7.252 7.252a4515.9 4515.9 0 0 0-15.885 11.44l-13.191-13.191a7.651 7.651 0 0 0-10.819 10.82l11.475 11.476c-3.73 2.72-7.418 5.42-11.065 8.099l-14.074-14.073a7.651 7.651 0 0 0-10.819 10.82l12.444 12.444c-3.941 2.925-7.825 5.82-11.624 8.669a7.649 7.649 0 0 0-3.06 6.121c0 3.99 1.383 9.985 7.975 15.885 12.301 11.009 36.403 16.486 51.981 16.486 2.051 0 3.956-.095 5.666-.285 37.122-4.124 54.476-20.433 76.448-41.081 24.766-23.274 55.59-52.24 129.572-81.833 59.753-23.902 99.546-77.964 107.972-119.013 3.614-17.612.96-31.96-7.475-40.394zm-7.517 37.322c-4.158 20.26-17.652 44.906-38.247 66.468l-39.755-7.951a7.656 7.656 0 0 0-6.091 1.381l-8.681 6.511-5.8-5.801a7.651 7.651 0 0 0-10.819 10.82l4.255 4.255-11.596 8.696c-3.075 2.305-3.958 6.689-2.005 10.001 2.285 3.872 7.583 4.941 11.186 2.24l29.907-22.43 25.758 5.152c-13.526 11.529-29.251 21.526-46.775 28.537-76.669 30.668-110.018 62.007-134.368 84.89-21.443 20.15-35.608 33.463-67.659 37.024-12.509 1.386-36.559-4.167-45.752-12.395a14.324 14.324 0 0 1-1.572-1.631c67.072-50.092 156.091-111.851 215.631-151.545 22.981-15.321 90.583-60.389 132.132-85.761 1.941 5.219 2.064 12.709.251 21.539zm9.61-57.895c-.258-1.291-6.512-31.99-23.102-65.169-22.451-44.901-53.224-72.415-88.992-79.569-54.011-10.801-99.44 11.582-162.314 42.564-35.88 17.68-76.547 37.719-127.366 55.656C47.671 151.26 14.1 177.35 3.49 209.182-6.845 240.187 9 264.491 9.68 265.51c1.656 2.485 4.7 3.8 7.645 3.299l24.511-4.154c.36.728 42.249 42.826 42.249 42.826 2.421 2.421 6.35 2.903 9.299 1.175 3.053-1.789 4.486-5.651 3.369-9.006l-13.979-41.935 19.772-3.351 21.192 35.32c1.733 2.889 5.343 4.325 8.59 3.44 3.259-.891 5.619-4 5.619-7.376v-37.384l15.043-2.55 29.023 29.023c2.476 2.476 6.433 2.939 9.416 1.106 2.7-1.659 4.118-4.909 3.497-8.017l-5.652-28.262 12.683-2.149c.229.311.474.613.755.894l20.106 20.107c4.724 4.724 13.061 1.246 13.061-5.411v-21.34l81.018-13.732a7.651 7.651 0 0 0-2.557-15.087l-294.174 49.86c-3.195-6.925-7.985-21.601-2.074-39.045 8.894-26.245 39.355-49.356 88.126-66.923l21.132 5.283-3.895 7.791c-2.519 5.037 1.317 11.187 6.982 11.072a7.722 7.722 0 0 0 6.56-3.955c.586-1.054 1.087-2.161 1.626-3.239l1.931-3.862 16.977 16.977c2.302 2.301 5.918 2.891 8.831 1.432l16.322-8.161a7.65 7.65 0 0 0 3.421-10.265 7.651 7.651 0 0 0-10.264-3.422l-11.39 5.694-20.584-20.583c-.967-.961-2.225-1.692-3.554-2.013l-8.614-2.153c40.988-15.844 75.069-32.637 105.697-47.729 60.165-29.648 103.634-51.068 152.55-41.285 24.872 4.974 44.182 20.914 58.912 40.107l-14.149 28.297-26.941 13.47-12.9-6.449a7.648 7.648 0 0 0-10.264 3.421 7.65 7.65 0 0 0 3.421 10.265l16.322 8.161a7.708 7.708 0 0 0 6.843 0l25.801-12.9c1.559 3.117 2.999 6.339 4.711 9.376 1.355 2.403 3.492 4.106 6.318 4.298 5.791.394 10.01-5.811 7.397-11.038l-6.45-12.9 9.798-19.597c16.822 27.194 25.854 56.874 29.426 70.548l-138.097 23.408a7.65 7.65 0 0 0-6.265 8.821c.706 4.167 4.653 6.976 8.822 6.266L498.82 187.2c4.189-.712 7.057-4.873 6.223-9.045zm-284.465 56.202v.275l-.236-.236.236-.039zm-46.397 7.864l.785 3.926-3.471-3.471 2.686-.455zm-51.533 8.736v7.169l-3.905-6.507 3.905-.662zm-55.142 9.345l4.48 13.44-12.141-12.141 7.661-1.299z"/><path d="M126.652 200.73c-1.598-1.05-39.452-25.544-68.459-13.585-14.133 5.825-23.417 18.813-27.593 38.604-1.138 5.397 3.898 10.307 9.268 9.021l84.367-20.203c6.378-1.529 7.914-10.229 2.417-13.837zm-77.258 16.024c3.441-7.677 8.328-12.857 14.605-15.451 3.635-1.504 7.66-2.132 11.848-2.132 8.156 0 16.917 2.39 24.545 5.371l-50.998 12.212zm290.32-79.614c-3.036-5.397-5.903-10.495-5.903-14.611 0-6.267.743-11.735 1.398-16.561 1.617-11.917 3.45-25.423-14.79-31.503-8.313-2.77-16.769-1.308-24.452 4.229-17.164 12.371-26.423 42.433-26.423 51.995 0 24.118 19.563 40.778 36.316 47.717 6.59 2.73 12.825 4.086 18.309 4.086 6.443-.001 11.848-1.873 15.563-5.588 14.304-14.304 5.686-29.626-.018-39.764zm-10.803 28.944c-1.309 1.31-7.696 2.121-17.195-1.814-13.375-5.54-26.87-18.071-26.87-33.58 0-6.457 7.883-30.799 20.069-39.583 3.175-2.287 6.852-3.396 10.666-2.125 5.741 1.914 6.21 2.07 4.465 14.927-.684 5.043-1.536 11.32-1.536 18.619 0 8.125 4.18 15.557 7.868 22.113 6.792 12.075 7.872 16.105 2.533 21.443z"/></svg>