<svg xmlns="http://www.w3.org/2000/svg" viewBox="0 0 512 512"><path d="M462.103 259.671a210.62 210.62 0 0 0 1.835-27.682c0-9.258-.619-18.553-1.834-27.683 10.564-5.11 17.868-15.936 17.868-28.435 0-17.406-14.161-31.567-31.567-31.567-1.262 0-2.504.083-3.727.227a207.69 207.69 0 0 0-18.508-31.999l11.516-11.516a7.516 7.516 0 0 0-10.629-10.629l-10.051 10.051a209.36 209.36 0 0 0-27.545-27.897 23.38 23.38 0 0 0 2.138-13.169 23.391 23.391 0 0 0-8.936-15.652l-19.01-14.733c-4.973-3.854-11.149-5.536-17.388-4.749a23.39 23.39 0 0 0-15.653 8.937l-2.812 3.629a207.024 207.024 0 0 0-40.666-10.414C284.656 11.439 271.641 0 255.999 0c-15.642 0-28.656 11.439-31.135 26.39a206.897 206.897 0 0 0-40.663 10.417l-2.815-3.632a23.4 23.4 0 0 0-15.653-8.936c-6.239-.788-12.415.896-17.388 4.749l-19.01 14.733a23.397 23.397 0 0 0-8.936 15.652 23.389 23.389 0 0 0 2.133 13.159 209.27 209.27 0 0 0-27.543 27.904l-10.047-10.05a7.516 7.516 0 0 0-10.629 10.629l11.514 11.514a207.756 207.756 0 0 0-18.511 32 31.766 31.766 0 0 0-3.723-.227c-17.406 0-31.567 14.161-31.567 31.567 0 12.5 7.304 23.326 17.869 28.436a210.62 210.62 0 0 0-1.835 27.682c0 9.258.62 18.547 1.834 27.682-10.564 5.11-17.868 15.936-17.868 28.436 0 17.406 14.161 31.567 31.567 31.567a31.93 31.93 0 0 0 3.719-.226 207.532 207.532 0 0 0 15.26 27.236l-6.916 6.917c-1.647 1.647-3.167 3.256-3.474 5.667a7.661 7.661 0 0 0 1.754 5.899c2.779 3.245 7.989 3.423 11.006.408l6.508-6.508a209.592 209.592 0 0 0 23.93 26.097 23.364 23.364 0 0 0-2.996 14.781 23.393 23.393 0 0 0 8.936 15.653l19.01 14.733c4.171 3.233 9.186 4.94 14.378 4.94.998 0 2.003-.063 3.01-.19 6.241-.792 11.799-3.965 15.652-8.938l1.925-2.484a206.82 206.82 0 0 0 43.244 12.883c6.539 23.602 26.211 62.569 30.774 71.455 2.741 5.338 10.63 5.339 13.372 0 4.562-8.885 24.227-47.837 30.77-71.441a206.784 206.784 0 0 0 43.249-12.896l1.924 2.483a23.402 23.402 0 0 0 15.652 8.937c1.007.127 2.012.19 3.01.19 5.192 0 10.209-1.708 14.378-4.94l19.01-14.733a23.4 23.4 0 0 0 8.936-15.653 23.366 23.366 0 0 0-2.999-14.784 209.377 209.377 0 0 0 23.939-26.087l6.502 6.501c3.057 3.055 8.219 2.852 11.029-.432 2.518-2.942 2.337-7.462-.399-10.198l-8.264-8.264a207.753 207.753 0 0 0 15.269-27.232c1.22.144 2.457.226 3.715.226 17.406 0 31.567-14.161 31.567-31.567-.002-12.498-7.306-23.324-17.87-28.434zm-13.698-100.335c9.117 0 16.535 7.418 16.535 16.535s-7.418 16.535-16.535 16.535-16.535-7.418-16.535-16.535c0-9.118 7.418-16.535 16.535-16.535zM332.67 55.056l9.822-12.673a8.466 8.466 0 0 1 5.663-3.233 8.547 8.547 0 0 1 6.288 1.718l19.01 14.733c3.668 2.842 4.36 8.279 1.515 11.951l-9.822 12.673c-2.843 3.667-8.277 4.361-11.951 1.516l-19.01-14.733c-3.713-2.877-4.392-8.239-1.515-11.952zm-76.671-40.024c9.117 0 16.535 7.418 16.535 16.535s-7.418 16.535-16.535 16.535-16.535-7.418-16.535-16.535 7.418-16.535 16.535-16.535zM135.313 61.263a8.457 8.457 0 0 1 3.233-5.661l19.01-14.733c3.671-2.844 9.108-2.153 11.951 1.514l9.822 12.674c2.877 3.712 2.198 9.074-1.515 11.951l-19.01 14.733c-3.672 2.846-9.108 2.151-11.951-1.515l-9.822-12.674a8.462 8.462 0 0 1-1.718-6.289zM47.059 175.871c0-9.117 7.418-16.535 16.535-16.535s16.535 7.418 16.535 16.535-7.418 16.535-16.535 16.535c-9.117-.001-16.535-7.418-16.535-16.535zm16.535 128.771c-9.117 0-16.535-7.418-16.535-16.535s7.418-16.535 16.535-16.535 16.535 7.418 16.535 16.535-7.418 16.535-16.535 16.535zm107.718 99.619l-9.822 12.673a8.465 8.465 0 0 1-5.663 3.234 8.465 8.465 0 0 1-6.288-1.718l-19.01-14.733c-3.668-2.842-4.36-8.28-1.515-11.952l9.822-12.673c2.842-3.668 8.279-4.359 11.951-1.515l19.01 14.733c3.667 2.842 4.36 8.279 1.515 11.951zm84.687 83.453c-11.384-23.467-24.552-53.72-24.552-63.319 0-13.539 11.013-24.552 24.552-24.552s24.552 11.013 24.552 24.552c0 9.593-13.169 39.848-24.552 63.319zm128.703-89.659a8.457 8.457 0 0 1-3.233 5.662l-19.01 14.733c-3.673 2.845-9.107 2.151-11.951-1.515l-9.822-12.674c-2.846-3.671-2.153-9.109 1.515-11.95l19.01-14.733c3.671-2.844 9.108-2.153 11.951 1.514l9.822 12.674a8.465 8.465 0 0 1 1.718 6.289zm33.86-62.234l-12.944-12.944a7.516 7.516 0 0 0-10.629 10.629l14.835 14.835a194.54 194.54 0 0 1-22.296 24.748l-2.484-3.206a23.4 23.4 0 0 0-15.653-8.936c-6.239-.788-12.415.896-17.388 4.749l-19.01 14.733c-9.551 7.404-11.836 20.752-5.694 30.841a191.825 191.825 0 0 1-31.883 9.586C293.62 400.682 276.633 384.81 256 384.81c-20.634 0-37.623 15.873-39.417 36.05a191.885 191.885 0 0 1-31.883-9.587c6.143-10.089 3.859-23.44-5.693-30.843l-19.01-14.733c-4.973-3.854-11.149-5.536-17.388-4.749a23.39 23.39 0 0 0-15.653 8.937l-2.478 3.198a194.639 194.639 0 0 1-22.301-24.741l14.835-14.835a7.516 7.516 0 0 0-10.629-10.629L93.44 335.82a192.667 192.667 0 0 1-12.024-21.674c8.294-5.694 13.746-15.24 13.746-26.038 0-17.051-13.592-30.978-30.507-31.539a195.658 195.658 0 0 1-1.56-24.579c0-8.219.53-16.461 1.56-24.579 16.917-.562 30.507-14.489 30.507-31.539 0-10.797-5.451-20.341-13.743-26.035a192.686 192.686 0 0 1 15.198-26.517l9.766 9.766c3.057 3.055 8.218 2.852 11.029-.432 2.518-2.942 2.337-7.462-.399-10.198l-11.326-11.326a194.31 194.31 0 0 1 25.673-26.359l3.614 4.664a23.402 23.402 0 0 0 15.652 8.937 23.633 23.633 0 0 0 17.389-4.749l19.01-14.733a23.4 23.4 0 0 0 8.936-15.653 23.381 23.381 0 0 0-2.45-13.788 191.97 191.97 0 0 1 32.505-8.035c4.145 12.596 16.016 21.72 29.984 21.72 13.966 0 25.835-9.12 29.984-21.716a192.044 192.044 0 0 1 32.506 8.032 23.37 23.37 0 0 0-2.448 13.785 23.393 23.393 0 0 0 8.936 15.653l19.01 14.733c4.171 3.233 9.186 4.94 14.378 4.94.998 0 2.003-.063 3.01-.19 6.241-.792 11.799-3.965 15.652-8.938l3.621-4.671a194.34 194.34 0 0 1 25.665 26.369l-11.324 11.324c-2.736 2.737-2.918 7.256-.399 10.199 2.81 3.283 7.972 3.486 11.029.432l9.768-9.768a192.602 192.602 0 0 1 15.187 26.525c-8.287 5.695-13.735 15.237-13.735 26.03 0 17.053 13.594 30.981 30.513 31.539a195.618 195.618 0 0 1 1.554 24.579c0 8.219-.53 16.461-1.56 24.579-16.917.562-30.507 14.489-30.507 31.539 0 10.798 5.453 20.343 13.746 26.037a192.944 192.944 0 0 1-12.024 21.675zm29.843-31.179c-9.117 0-16.535-7.418-16.535-16.535s7.418-16.535 16.535-16.535 16.535 7.418 16.535 16.535-7.419 16.535-16.535 16.535z"/></svg>