<svg xmlns="http://www.w3.org/2000/svg" viewBox="0 0 512 512"><path d="M504.485 276.54H384.804l-13.33-24.44 14.801-26.642 13.371 1.91a7.517 7.517 0 0 0 8.431-5.966l8.016-40.078a7.512 7.512 0 0 0-1.501-6.168l-32.063-40.078a7.503 7.503 0 0 0-7.894-2.528l-9.644-13.93a1663.92 1663.92 0 0 1 13.219 3.716 23.53 23.53 0 0 0 6.467.905 23.692 23.692 0 0 0 14.179-4.747c5.865-4.425 9.368-11.451 9.368-18.799v-40.58h96.262c4.151 0 7.515-3.364 7.515-7.515s-3.364-7.515-7.515-7.515h-96.262v-.501c0-12.983-10.563-23.546-23.546-23.546-12.983 0-23.546 10.563-23.546 23.546v.501h-33.065v-.501c0-21.823-17.755-39.577-39.577-39.577s-39.577 17.755-39.577 39.577c0 .168.011.334.013.501H102.291C98.909 30.3 86.454 20.039 71.64 20.039c-14.247 0-58.593 20.632-67.339 24.768-5.62 2.659-5.621 10.927 0 13.588 8.745 4.135 53.092 24.767 67.339 24.767 14.814 0 27.269-10.261 30.651-24.047h149.8c4.331 10.114 12.761 18.067 23.187 21.771-5.809 4.144-10.26 8.245-13.272 12.254a92078.526 92078.526 0 0 0-41.398 55.149h-44.337c-12.983 0-23.546 10.563-23.546 23.546 0 12.983 10.563 23.546 23.546 23.546h56.11c7.371 0 14.414-3.522 18.837-9.418l30.574-40.765 15.217 26.629v16.909L222.64 222.54c-8.385 3.81-13.803 12.224-13.803 21.436v32.564h-108.14c-4.151 0-7.515 3.364-7.515 7.515s3.364 7.515 7.515 7.515h108.137v48.595c0 12.983 10.563 23.546 23.546 23.546 12.983 0 23.546-10.563 23.546-23.546V291.57h83.434l32.66 59.876a23.546 23.546 0 0 0 20.685 12.273c3.914 0 7.807-.995 11.261-2.879 11.397-6.217 15.611-20.548 9.394-31.946l-20.359-37.324H496.97v208.908a7.514 7.514 0 0 0 7.515 7.515 7.514 7.514 0 0 0 7.515-7.515V284.055a7.514 7.514 0 0 0-7.515-7.515zM71.64 59.115h14.707c-2.742 5.344-8.298 9.018-14.707 9.018-6.23 0-27.318-8.289-46.015-16.532C44.32 43.357 65.406 35.068 71.64 35.068c6.409 0 11.964 3.673 14.707 9.018H71.64a7.514 7.514 0 1 0 0 15.029zm302.774 89.88l26.254 32.816-5.935 29.674-49.073-7.011a7.544 7.544 0 0 0-3.854.462l-29.773 11.909v-40.126l62.381-27.724zm1.747-105.41c0-4.696 3.82-8.517 8.517-8.517s8.517 3.82 8.517 8.517v.501h-17.033v-.501zm-48.094 15.53h33.065v9.628c-14.974-3.979-26.048-6.589-33.065-7.797v-1.831zm-39.578-40.078c13.536 0 24.548 11.012 24.548 24.548V79.52l-17.033-8.517V43.585a7.514 7.514 0 0 0-7.515-7.515h-23.372c3.181-9.872 12.456-17.033 23.372-17.033zM265.122 51.1h15.852v15.852A24.659 24.659 0 0 1 265.122 51.1zm24.043 76.713a7.513 7.513 0 0 0-6.058-3.772 7.528 7.528 0 0 0-6.479 2.991l-37.435 49.914a8.555 8.555 0 0 1-6.813 3.407h-56.11c-4.696 0-8.517-3.82-8.517-8.517s3.82-8.517 8.517-8.517h48.094a7.513 7.513 0 0 0 6.012-3.006s24.045-32.06 43.645-58.144c3.281-4.369 10.059-9.642 19.082-14.848a7.45 7.45 0 0 0 .819-.556l23.27 11.635c4.918 2.459 10.875-1.245 10.875-6.721V76.227c8.162 1.586 21.324 4.849 38.595 9.577 4.707 1.291 9.499-2.372 9.499-7.247V59.115h17.033v40.579c0 5.553-5.507 9.72-10.856 8.189a1651.71 1651.71 0 0 0-33.306-9.139c-6.591-1.734-11.976 5.929-8.086 11.545l19.659 28.396-52.016 23.118-19.424-33.99zm34.762 135.46l7.235 13.267h-75.236v-17.402l25.896-11.77a7.516 7.516 0 0 0-6.219-13.683l-30.3 13.773a7.515 7.515 0 0 0-4.405 6.841v85.866c0 4.696-3.82 8.517-8.517 8.517s-8.517-3.82-8.517-8.517v-96.188a8.532 8.532 0 0 1 4.992-7.752l68.151-30.977v22.698c0 5.216 5.443 8.922 10.305 6.978l25.502-10.201-8.8 15.841c-3.942 7.094-3.974 15.583-.087 22.709zm76.239 72.818c2.249 4.122.724 9.306-3.397 11.554a8.41 8.41 0 0 1-4.065 1.044 8.526 8.526 0 0 1-7.492-4.442l-48.094-88.172a8.472 8.472 0 0 1 .032-8.214l15.143-27.257 18.052 2.579-14.019 25.235a7.513 7.513 0 0 0-.028 7.248l43.868 80.425zM64.626 276.54H7.515A7.514 7.514 0 0 0 0 284.055v216.423a7.514 7.514 0 0 0 7.515 7.515 7.514 7.514 0 0 0 7.515-7.515V291.569h49.597a7.514 7.514 0 1 0-.001-15.029z"/></svg>