<svg xmlns="http://www.w3.org/2000/svg" viewBox="0 0 512 512"><path d="M487.953 39.577c0-10.572-4.117-20.51-11.592-27.985C468.886 4.117 458.947 0 448.376 0s-20.51 4.117-27.985 11.592l-45.345 45.343-.032.035-.033.031c-35.252 36.128-73.147 70.233-112.633 101.371-3.445 2.716-11.654 9.268-12.104 9.957H31.562a7.515 7.515 0 0 0-7.515 7.515v64.125c0 2.192 1.009 4.374 2.704 5.773 46.034 38.362 85.468 197.159 85.468 226.681 0 21.823 17.755 39.577 39.577 39.577H312.11c21.823 0 39.577-17.755 39.577-39.577 0-29.522 39.434-188.319 85.469-226.681 1.688-1.417 2.703-3.567 2.703-5.773v-64.125a7.514 7.514 0 0 0-7.515-7.515h-54.518C394.878 149.36 476.36 67.563 476.36 67.563c7.476-7.476 11.593-17.414 11.593-27.986zM312.11 496.971H151.796c-10.916 0-20.19-7.161-23.372-17.033H335.48c-3.18 9.872-12.454 17.033-23.37 17.033zm112.72-313.613v49.096H171.836a7.515 7.515 0 1 0 0 15.03h88.423l19.646 26.196-6.148 24.59-20.133 6.711c-3.735 1.244-5.906 5.304-4.873 9.102 1.116 4.11 5.586 6.5 9.627 5.156l16.917-5.639 5.639 16.918c1.349 4.045 5.938 6.169 9.901 4.607 3.661-1.443 5.599-5.633 4.357-9.36l-7.324-21.971 7.486-29.94a7.512 7.512 0 0 0-1.279-6.331l-15.029-20.039h135.731c-21.896 27.32-39.817 73.006-51.696 109.386-14.321 43.858-23.854 86.898-25.975 108.039H126.801c-1.152-11.492-4.5-29.464-9.613-50.513l18.877-6.292 29.939 7.486a7.515 7.515 0 0 0 3.645-14.582l-32.063-8.016a7.498 7.498 0 0 0-4.198.161l-19.907 6.636a787.853 787.853 0 0 0-12.656-42.919c-11.879-36.381-29.799-82.066-51.696-109.387h86.635a7.515 7.515 0 1 0 0-15.03H39.076v-49.096H424.83zm-66.831-15.354c-.092.105-.172.216-.258.325h-83.767a1186.903 1186.903 0 0 0 106.434-95.404l34.621 34.621a1188.498 1188.498 0 0 0-57.03 60.458zm67.706-71.04L390.99 62.249l23.379-23.379 34.716 34.716-23.38 23.378zm40.028-40.029l-6.021 6.022-34.716-34.716 6.023-6.022c9.462-9.463 25.252-9.461 34.715.001 9.463 9.463 9.461 25.253-.001 34.715z"/></svg>