<svg xmlns="http://www.w3.org/2000/svg" viewBox="0 0 512 512"><path d="M501.929.387l-69.31 23.103a7.673 7.673 0 0 0-2.994 1.85l-17.688 17.688-.36-.36a7.657 7.657 0 1 0-10.83 10.828l.361.361-12.274 12.275-.36-.361a7.658 7.658 0 0 0-10.829 10.83l.36.36-12.274 12.274-.36-.36a7.656 7.656 0 0 0-10.829-.001 7.656 7.656 0 0 0 0 10.829l.361.361-12.274 12.274-.36-.361a7.656 7.656 0 0 0-10.829.001 7.656 7.656 0 0 0 0 10.829l.36.36-12.273 12.273-.361-.361a7.656 7.656 0 0 0-10.829.001 7.656 7.656 0 0 0 0 10.829l.36.361-12.274 12.274-.361-.361a7.656 7.656 0 0 0-10.829.001 7.656 7.656 0 0 0 0 10.829l.36.36-12.273 12.274-.361-.361a7.656 7.656 0 0 0-10.829.001 7.656 7.656 0 0 0 0 10.829l.36.361-12.274 12.274-.361-.361a7.656 7.656 0 0 0-10.829.001 7.656 7.656 0 0 0 0 10.829l.36.36-37.698 37.698a7.8 7.8 0 0 0-.587.665l-23.17-7.188c-12.506-3.877-26.153 3.326-30.025 15.806a23.836 23.836 0 0 0 1.685 18.287c2.823 5.362 7.474 9.357 13.144 11.382l-10.462 10.463-23.111-7.169c-12.506-3.877-26.154 3.325-30.025 15.806a23.836 23.836 0 0 0 1.685 18.287c2.823 5.363 7.474 9.357 13.145 11.382l-8.423 8.423c-.018.018-.033.038-.051.056l-21.437-6.65c-12.635-3.92-26.106 3.17-30.025 15.807a23.836 23.836 0 0 0 1.685 18.287 23.804 23.804 0 0 0 11.56 10.769L2.218 452.748c-2.788 2.788-2.973 7.393-.407 10.391 2.863 3.344 8.122 3.553 11.236.44 0 0 69.843-70.042 70.202-70.753l54.423 16.883-89.248 89.247c-2.788 2.788-2.973 7.393-.407 10.391 2.863 3.344 8.122 3.553 11.236.44l63.896-63.895 35.013 35.013c9.248 9.248 24.683 9.248 33.932 0 9.249-9.249 9.249-24.683 0-33.933l-29.544-29.545 17.064 5.294c12.509 3.879 26.154-3.328 30.025-15.806 3.92-12.637-3.17-26.107-15.807-30.026l-1.281-.397 8.437-8.437 23.734 7.363c12.508 3.879 26.155-3.328 30.024-15.806a23.839 23.839 0 0 0-1.685-18.288c-2.922-5.55-7.798-9.648-13.742-11.6l10.438-10.438 23.733 7.362c12.51 3.884 26.155-3.329 30.026-15.806 3.879-12.504-3.028-25.82-15.419-29.894l8.324-8.324.361.361c1.495 1.495 3.455 2.242 5.414 2.242s3.92-.747 5.414-2.243a7.656 7.656 0 0 0 0-10.829l-.36-.36 12.274-12.274.36.361c1.495 1.495 3.455 2.242 5.414 2.242s3.92-.747 5.414-2.243a7.656 7.656 0 0 0 0-10.829l-.36-.36 12.273-12.273.361.361c1.495 1.495 3.455 2.242 5.415 2.242s3.92-.747 5.414-2.243a7.656 7.656 0 0 0 0-10.829l-.36-.36 12.274-12.274.36.361c1.495 1.495 3.455 2.242 5.414 2.242s3.92-.747 5.414-2.243a7.656 7.656 0 0 0 0-10.829l-.36-.36 12.273-12.273.361.361c1.495 1.495 3.455 2.242 5.414 2.242s3.92-.747 5.414-2.242a7.657 7.657 0 0 0 0-10.83l-.36-.36 12.274-12.274.36.361c1.495 1.495 3.455 2.242 5.414 2.242s3.92-.747 5.415-2.242a7.657 7.657 0 0 0 0-10.83l-.36-.36 12.273-12.273.361.361c1.495 1.495 3.455 2.242 5.414 2.242s3.92-.747 5.414-2.242a7.657 7.657 0 0 0 0-10.83l-.36-.36 12.273-12.274.36.36a7.633 7.633 0 0 0 5.416 2.243 7.656 7.656 0 0 0 5.414-13.071l-.361-.361 17.693-17.701a7.656 7.656 0 0 0 1.85-2.994l23.104-69.308c.123-.373.213-.757.279-1.144.948-5.596-4.582-10.32-9.963-8.543zM181.265 457.8a8.623 8.623 0 0 1 2.541 6.136c0 7.577-9.459 11.497-14.815 6.136l-35.012-35.013 12.273-12.273 35.013 35.014zm13.746-55.428c-1.4 4.513-6.336 7.12-10.861 5.719L74.37 374.037c-4.729-1.468-7.311-6.79-5.522-11.421 1.621-4.196 6.367-6.489 10.666-5.157l109.779 34.054c4.571 1.417 7.136 6.29 5.718 10.859zm-72.994-47.764l8.437-8.438 54.003 16.752-8.437 8.438-54.003-16.752zm118.1.46c-1.399 4.511-6.337 7.123-10.86 5.718l-109.78-34.055c-4.518-1.402-7.111-6.334-5.717-10.861 1.392-4.514 6.343-7.119 10.86-5.718l109.78 34.054c4.513 1.401 7.121 6.339 5.717 10.862zm-71.315-47.245l10.423-10.423 54.002 16.752-10.423 10.423-54.002-16.752zm120.086-1.525c-1.401 4.516-6.336 7.121-10.861 5.718l-109.78-34.054c-4.729-1.468-7.311-6.79-5.522-11.421 1.621-4.196 6.367-6.489 10.666-5.157l109.779 34.054c4.571 1.417 7.136 6.29 5.718 10.86zM474.554 72.824l-16.411 16.411-.36-.36a7.657 7.657 0 1 0-10.83 10.828l.361.361-12.274 12.274-.36-.361a7.658 7.658 0 0 0-10.829 10.83l.36.36-12.273 12.273-.361-.361a7.658 7.658 0 0 0-10.829 10.83l.36.36-12.274 12.274-.36-.361a7.658 7.658 0 0 0-10.829 10.83l.36.36-12.273 12.273-.361-.361a7.656 7.656 0 0 0-10.829.001 7.656 7.656 0 0 0 0 10.829l.36.361-12.274 12.274-.361-.361a7.656 7.656 0 0 0-10.829.001 7.656 7.656 0 0 0 0 10.829l.36.36-12.273 12.274-.361-.361a7.656 7.656 0 0 0-10.829.001 7.656 7.656 0 0 0 0 10.829l.36.361-12.274 12.274-.361-.361a7.656 7.656 0 0 0-10.829.001 7.656 7.656 0 0 0 0 10.829l.36.36-14.018 14.018-18.735-5.812 140.273-140.275a7.658 7.658 0 0 0-10.829-10.83L236.309 264.861l-18.735-5.812 32.643-32.643.361.361a7.633 7.633 0 0 0 5.414 2.242c1.959 0 3.92-.747 5.414-2.243a7.656 7.656 0 0 0 0-10.829l-.36-.36 12.274-12.274.36.361c1.495 1.495 3.455 2.242 5.414 2.242s3.92-.747 5.414-2.243a7.656 7.656 0 0 0 0-10.829l-.36-.36 12.273-12.273.361.361a7.633 7.633 0 0 0 5.415 2.242c1.959 0 3.92-.747 5.414-2.243a7.656 7.656 0 0 0 0-10.829l-.36-.36 12.274-12.274.361.361c1.495 1.495 3.455 2.242 5.415 2.242s3.92-.747 5.414-2.243a7.656 7.656 0 0 0 0-10.829l-.36-.36 12.273-12.273.361.361c1.495 1.495 3.455 2.242 5.414 2.242s3.92-.747 5.414-2.243a7.656 7.656 0 0 0 0-10.829l-.36-.361 12.274-12.274.361.361c1.495 1.496 3.455 2.243 5.414 2.243s3.92-.747 5.414-2.242a7.656 7.656 0 0 0 0-10.829l-.361-.361 12.274-12.274.361.361c1.495 1.495 3.455 2.242 5.414 2.242s3.92-.747 5.415-2.242a7.657 7.657 0 0 0 0-10.83l-.36-.36 12.274-12.274.36.36c1.496 1.496 3.455 2.243 5.416 2.243s3.92-.747 5.414-2.242a7.656 7.656 0 0 0 0-10.829l-.361-.361 16.41-16.411 36.82-12.274-66.912 66.912c-2.788 2.788-2.973 7.393-.407 10.391 2.863 3.344 8.122 3.553 11.236.44l66.913-66.913-12.272 36.821z"/></svg>