<svg xmlns="http://www.w3.org/2000/svg" viewBox="0 0 512.001 512.001"><path d="M511.943 351.252L479.88 94.751a7.513 7.513 0 0 0-5.297-6.265l-240.47-72.141a7.602 7.602 0 0 0-5.739.59L35.998 121.139a7.512 7.512 0 0 0-3.814 5.263L.121 302.746a7.542 7.542 0 0 0 .152 3.357l40.078 144.282a7.516 7.516 0 0 0 7.241 5.503h168.559l-19.622 9.811c-3.427 1.713-5.03 5.871-3.643 9.442 1.58 4.068 6.457 5.954 10.364 4l45.166-22.583-.266 31.831c-.034 4.106 3.377 7.561 7.484 7.578 4.082.016 7.511-3.37 7.545-7.453l.267-32.024 45.302 22.651c3.914 1.96 8.777.062 10.364-4 1.395-3.567-.221-7.731-3.643-9.442l-19.622-9.811H440.36a7.51 7.51 0 0 0 6.252-3.347l64.125-96.188a7.501 7.501 0 0 0 1.206-5.101zm-255.942 89.606c-4.696 0-8.516-3.82-8.517-8.516.019-2.523 3.597-9.982 8.518-18.186 4.921 8.2 8.497 15.657 8.516 18.185 0 4.697-3.821 8.517-8.517 8.517zm22.461-14.661c-3.247-10.766-12.91-25.313-16.278-30.19-2.937-4.251-9.429-4.251-12.366 0-3.369 4.877-13.031 19.424-16.278 30.19a24.392 24.392 0 0 1-2.087-9.887c0-9.377 13.26-33.024 24.547-50.562 11.688 18.185 24.549 41.595 24.549 50.562 0 3.516-.748 6.86-2.087 9.887zm69.854 14.661l50.672-101.344a7.52 7.52 0 0 0-.229-7.148l-56.11-96.188a7.51 7.51 0 0 0-5.614-3.676l-32.73-3.851c-4.13-.492-7.856 2.463-8.341 6.585a7.513 7.513 0 0 0 6.585 8.34l29.007 3.413 52.172 89.438-52.215 104.43h-44.502c5.356-6.752 8.568-15.28 8.568-24.548 0-19.084-27.818-60.323-33.394-68.397-2.937-4.251-9.429-4.251-12.366 0-5.576 8.075-33.394 49.313-33.394 68.398 0 9.268 3.211 17.796 8.568 24.548h-67.899l-36.901-103.325 83.006-105.644 67.98 7.998a7.515 7.515 0 0 0 1.756-14.925l-72.164-8.491a7.502 7.502 0 0 0-6.787 2.82L105.811 331.51a7.514 7.514 0 0 0-1.168 7.17l36.492 102.178h-39.653l-37.83-143.751 68.885-122.461 40.73-6.788 8.94 8.94-12.614 18.921c-2.094 3.14-1.48 7.489 1.413 9.918 3.387 2.844 8.642 2.095 11.092-1.581l16.031-24.047a7.516 7.516 0 0 0-.939-9.483l-5.705-5.705 79.373-13.229 123.281 61.641 45.865 137.593-67.524 90.032h-24.164zm88.023 0h-45.074l63.123-84.164a7.51 7.51 0 0 0 1.117-6.885l-48.094-144.282a7.512 7.512 0 0 0-3.768-4.344l-128.25-64.125a7.497 7.497 0 0 0-4.596-.69l-144.282 24.047a7.513 7.513 0 0 0-5.314 3.728L49.06 292.392a7.508 7.508 0 0 0-.717 5.596L85.94 440.859H53.306l-38.088-137.12 31.11-171.103 182.883-99.061 16.661 27.768L227.787 73.4c-2.075 1.346-3.347 3.792-3.347 6.252v16.031c0 4.095 3.42 7.515 7.515 7.515s7.515-3.42 7.515-7.515V83.674l17.934-11.956 28.838 7.209a7.516 7.516 0 0 0 9.113-5.468 7.515 7.515 0 0 0-5.468-9.114l-29.043-7.261-12.461-20.77L447.768 96.13l-12.582 25.162-28.709 7.177c-4.951 1.238-7.268 7.202-4.43 11.459l12.614 18.921-11.675 11.675c-2.736 2.736-2.918 7.255-.4 10.197 2.809 3.281 7.971 3.487 11.027.432l16.031-16.031a7.516 7.516 0 0 0 .939-9.483l-10.117-15.175 21.717-5.43a7.516 7.516 0 0 0 4.899-3.93l15.296-30.592 3.196.959 31.109 248.868-60.344 90.519z"/></svg>