<svg xmlns="http://www.w3.org/2000/svg" viewBox="0 0 511.999 511.999"><path d="M458.921 2.221a7.587 7.587 0 0 0-10.727 0l-41.761 41.761c-2.922 2.923-2.923 7.805 0 10.727 2.922 2.922 7.805 2.921 10.727 0l36.172-36.173c29.665 35.127 27.952 87.894-5.138 120.984L315.128 272.586l-40.634-17.415c-.087-.303-17.288-40.509-17.288-40.509L393.268 78.601a7.585 7.585 0 0 0-10.727-10.727L250.77 199.644l-3.334-7.781c-5.164-12.045-19.16-17.645-31.205-12.482-11.895 5.096-17.593 19.285-12.484 31.205l7.489 17.472-33.49-14.352c-5.836-2.501-12.294-2.581-18.187-.222a23.606 23.606 0 0 0-13.018 12.704c-3.852 8.986-1.874 19.26 5.041 26.176a23.74 23.74 0 0 0 2.447 2.099l-12.937 9.241a7.536 7.536 0 0 0-1.764 1.764l-15.513 21.728c-8.124-2.458-17.313-.49-23.724 5.92-4.421 4.422-6.708 10.169-6.91 15.974-5.805.202-11.55 2.488-15.973 6.909-4.414 4.414-6.7 10.148-6.908 15.943a23.592 23.592 0 0 0-15.974 6.941c-4.489 4.488-6.962 10.457-6.962 16.805s2.472 12.317 6.961 16.805l5.013 5.013-35.485 49.702c-2.461 3.443-1.541 8.391 1.979 10.728l109.754 72.814c2.472 1.639 5.764 1.671 8.265.078l29.828-18.981.783.783a23.61 23.61 0 0 0 16.805 6.962 23.608 23.608 0 0 0 16.804-6.961 23.595 23.595 0 0 0 6.942-15.975c5.795-.209 11.529-2.495 15.942-6.908 4.421-4.422 6.708-10.168 6.91-15.974 5.805-.201 11.552-2.489 15.973-6.91 4.489-4.488 6.962-10.457 6.962-16.805s-2.472-12.317-6.961-16.805l-.987-.987 25.697-33.039c4.415 3.896 9.969 5.968 15.648 5.968 12.419 0 22.987-9.91 23.776-22.299a23.788 23.788 0 0 0-1.887-10.848l-14.353-33.491 17.473 7.489a23.61 23.61 0 0 0 9.328 1.92c9.224 0 18.019-5.402 21.878-14.404 5.109-11.92-.589-26.11-12.484-31.205l-7.779-3.334L458.922 150.25c40.81-40.815 40.81-107.218-.001-148.029zm-235.657 190.73c4.095-1.155 8.554.98 10.229 4.889l20.873 48.705-22.913-9.82-13.763-32.113c-2.02-4.715.654-10.274 5.574-11.661zm-83.399 302.431l-99.106-65.75 29.453-41.253 92.479 92.478-22.826 14.525zm57.48-13.48c-3.312 3.314-8.844 3.314-12.156 0L65.051 361.765c-3.317-3.317-3.307-8.839.001-12.157 3.308-3.317 8.847-3.309 12.156.001l120.137 120.138c.731 0 1.124 1.273 1.375 1.8.574 1.198 1.036 2.394 1.121 3.736a8.701 8.701 0 0 1-2.496 6.619zm22.883-22.883c-3.35 3.351-8.805 3.351-12.156 0L87.935 338.882c-3.071-3.071-3.335-8.135-.59-11.505 3.168-3.888 9.198-4.202 12.745-.652l120.137 120.137c3.352 3.351 3.352 8.806.001 12.157zm22.883-22.884c-3.35 3.351-8.804 3.351-12.157 0L110.818 315.998c-3.071-3.071-3.335-8.135-.59-11.504 3.17-3.889 9.196-4.202 12.745-.652l120.138 120.137c3.313 3.313 3.313 8.844 0 12.156zm-1.069-34.678l-105.7-105.701 14.596-20.443 18.709-13.364 68.737 29.459 31.708 73.985-28.05 36.064zm60.1-43.434c1.897 4.424-.329 9.669-4.803 11.403-4.267 1.654-9.197-.426-10.999-4.633l-27.739-64.722 22.913 9.82 20.628 48.132zm29.81-61.724a8.54 8.54 0 0 1 4.594 4.708c2.797 6.999-4.495 14.037-11.367 11.095L164.996 243.45c-4.207-1.801-6.283-6.733-4.632-10.998 1.733-4.475 6.98-6.698 11.404-4.803l160.184 68.65z"/><path d="M216.105 302.673c-13.104 0-23.766 10.661-23.766 23.766s10.661 23.766 23.766 23.766 23.766-10.661 23.766-23.766-10.662-23.766-23.766-23.766zm0 32.362c-4.74 0-8.596-3.856-8.596-8.596s3.856-8.596 8.596-8.596 8.596 3.856 8.596 8.596-3.856 8.596-8.596 8.596z"/></svg>