<svg xmlns="http://www.w3.org/2000/svg" viewBox="0 0 512.001 512.001"><circle cx="223.938" cy="135.264" r="7.515"/><circle cx="288.063" cy="135.264" r="7.515"/><path d="M280.048 168.329h-48.094a7.514 7.514 0 0 0-7.515 7.515c0 17.403 14.159 31.562 31.562 31.562s31.562-14.159 31.562-31.562a7.514 7.514 0 0 0-7.515-7.515zm-24.046 24.047c-6.412 0-11.983-3.668-14.725-9.018h29.448c-2.741 5.35-8.312 9.018-14.723 9.018z"/><path d="M460.614 393.729l-25.62-55.565a7.514 7.514 0 1 0-13.599 6.399l25.405 55.086a32.503 32.503 0 0 1-.827 27.436 32.498 32.498 0 0 1-21.504 17.056l-128.11 30.747c-9.74 2.339-19.68-4.263-21.325-14.126-1.439-8.627 3.787-17.054 12.155-19.6l123.874-37.701a7.514 7.514 0 1 0-4.375-14.377l-8.314 2.53-16.83-41.487a7.447 7.447 0 0 0-.985-2.139l-21.733-32.245c.875-1.691.879-2.939.879-3.633a7.516 7.516 0 0 0-6.291-7.415c-.868-.475-2.169-1.241-3.522-2.05a7.508 7.508 0 0 0-.538-.958L318.223 255.5h15.162c28.004 0 53.804 16.373 65.728 41.711l6.539 13.895a7.516 7.516 0 0 0 13.599-6.399l-6.539-13.895c-14.392-30.582-45.529-50.342-79.328-50.342h-42.949c10.062-4.297 19.326-10.491 27.327-18.434 11.032-10.949 18.766-24.31 22.764-38.895 1.209.139 2.428.217 3.646.217 17.403 0 31.562-14.159 31.562-31.562 0-.077-.005-.153-.006-.229l.007-31.833c0-9.014-1.008-17.796-2.905-26.245 18.136-4.923 31.49-19.936 34.374-38.381h14.012l13.831 13.831c3.057 3.055 8.218 2.852 11.028-.432 2.518-2.942 2.337-7.461-.399-10.197l-10.719-10.717 10.717-10.717a7.515 7.515 0 1 0-10.628-10.628l-13.83 13.83h-14.017C403.584 17.394 383.89 0 360.204 0c-15.332 0-29.631 7.427-38.522 19.675C302.811 7.246 280.238 0 256.001 0c-66.022 0-119.734 53.712-119.734 119.735l.006 31.832c-.001.077-.006.152-.006.229 0 17.403 14.159 31.562 31.562 31.562a32.04 32.04 0 0 0 3.871-.238c7.326 25.841 26.013 46.946 50.201 57.35h-43.283c-33.798 0-64.936 19.761-79.327 50.341L51.387 393.729a47.498 47.498 0 0 0 1.209 40.097 47.499 47.499 0 0 0 31.428 24.93L123 468.11l-17.879 32.777c-2.685 4.924 1.004 11.114 6.597 11.114h288.564c5.593 0 9.282-6.189 6.597-11.114L389 468.11l38.975-9.354a47.491 47.491 0 0 0 31.428-24.93 47.495 47.495 0 0 0 1.211-40.097zm-123.956-8.978H175.343v-9.018h161.315v9.018zm-168.83 15.03h.501v8.482l-3.742-1.139-18.603-53.819 27.084-40.185c6.376 2.423 14.752 4.559 24.479 4.559 6.965 0 13.538-2.318 18.877-6.305v12.142c-9.985-2.274-17.769-.125-23.007 2.543-11.385 5.801-20.016 18.603-23.531 34.647h-2.057a7.514 7.514 0 0 0-7.515 7.515v24.047a7.513 7.513 0 0 0 7.514 7.513zm-21.014 1.934l-18.75-5.707 9.059-22.331 9.691 28.038zm73.763-60.783c2.086 1.049 4.636 1.043 6.722 0 7.73-3.865 14.527-4.385 20.205-1.55 7.626 3.808 12.496 12.774 14.971 21.323h-77.08c2.867-9.923 8.367-17.955 14.844-21.255 5.706-2.91 12.55-2.411 20.338 1.482zm55.572 13.044c2.701.496 5.558 1.489 8.554 2.988 2.086 1.049 4.636 1.043 6.722 0 11.002-5.501 20.027-4.231 26.933 3.74h-40.376a68.543 68.543 0 0 0-1.833-6.728zm107.787 42.033l-18.758 5.708 9.689-28.065 9.069 22.357zm-36.734-70.622l18.799 27.891-18.59 53.847-3.738 1.137v-8.482h.501a7.514 7.514 0 0 0 7.515-7.515v-24.047a7.514 7.514 0 0 0-7.515-7.515h-7.861c-9.076-17.321-24.066-24.844-40.734-21.121v-12.179c5.338 3.988 11.912 6.305 18.877 6.305 13.057 0 23.684-3.847 30.3-7.075a75.307 75.307 0 0 0 2.446-1.246zm-32.747-6.706a16.564 16.564 0 0 1-14.46-8.517 16.567 16.567 0 0 1 14.46-8.517c4.23 0 17.144 7.551 23.708 11.483-5.567 2.741-13.785 5.551-23.708 5.551zm29.718-150.352c-.304 0-.605-.029-.908-.045.267-2.798.407-5.624.407-8.472v-24.523c.167-.005.334-.025.501-.025 9.077 0 16.463 7.355 16.526 16.417v.115c0 .02.003.038.003.058-.032 9.089-7.433 16.475-16.529 16.475zm16.031-153.3c15.369 0 28.276 10.706 31.679 25.049h-15.648c-4.151 0-7.515 3.364-7.515 7.515s3.364 7.515 7.515 7.515h15.671a32.304 32.304 0 0 1-23.289 23.953c-7.134-19.692-19.295-36.993-34.923-50.352 6.074-8.51 15.932-13.68 26.51-13.68zm-192.376 153.3c-9.096 0-16.497-7.385-16.529-16.474 0-.02.003-.038.003-.058v-.115c.063-9.062 7.45-16.417 16.526-16.417.167 0 .334.02.501.025v23.517c0 3.205.175 6.371.507 9.492-.335.02-.671.03-1.008.03zm.502-64.626v16.545c-.167-.003-.334-.013-.501-.013a31.362 31.362 0 0 0-16.531 4.69l-.001-5.191C151.297 62 198.268 15.03 256.002 15.03S360.705 62 360.705 119.733l-.001 5.192a31.362 31.362 0 0 0-16.531-4.69c-.167 0-.334.01-.501.013v-16.545c0-17.403-14.159-31.562-31.562-31.562h-8.016a7.504 7.504 0 0 0-4.168 1.263l-36.411 24.273V79.656a7.513 7.513 0 0 0-11.683-6.252l-36.411 24.273V79.656a7.514 7.514 0 0 0-7.515-7.515h-8.016c-17.402 0-31.56 14.159-31.56 31.562zm15.029 55.103v-55.104c0-9.116 7.417-16.532 16.532-16.532h.501v24.548a7.513 7.513 0 0 0 3.969 6.625 7.507 7.507 0 0 0 7.714-.373l36.411-24.273v18.021a7.513 7.513 0 0 0 3.969 6.625 7.507 7.507 0 0 0 7.714-.373l46.201-30.8h5.74c9.116 0 16.532 7.417 16.532 16.532v56.11c0 19.505-7.624 37.815-21.468 51.557-13.712 13.611-31.865 21.085-51.172 21.085-.184 0-.369 0-.554-.002-39.75-.295-72.089-33.332-72.089-73.646zm28.545 96.693h88.194l21.946 32.562c-2.773-.914-5.322-1.442-7.588-1.442-6.965 0-13.538 2.318-18.877 6.305v-4.862a7.514 7.514 0 0 0-7.515-7.515 7.514 7.514 0 0 0-7.515 7.515v51.494c-4.087-.936-8.078-1.21-11.943-.78-3.989-5.651-8.871-10.086-14.385-12.84-5.193-2.593-12.899-4.665-22.767-2.419V272.03a7.514 7.514 0 0 0-7.515-7.515 7.514 7.514 0 0 0-7.515 7.515v4.862a31.56 31.56 0 0 0-14.876-6.028l10.356-15.365zm.103 38.634a16.567 16.567 0 0 1-14.46 8.517c-9.923 0-18.141-2.81-23.708-5.55 6.564-3.933 19.478-11.483 23.708-11.483a16.567 16.567 0 0 1 14.46 8.516zM87.532 444.14a32.5 32.5 0 0 1-21.504-17.056 32.503 32.503 0 0 1-.827-27.436L112.89 297.21c11.923-25.339 37.724-41.711 65.728-41.711h15.161l-13.925 20.661c-.085.126-.156.257-.233.387-4.737 2.449-9.861 5.463-15.261 8.715-2.015 1.213-4.419 2.66-5.77 3.401a7.516 7.516 0 0 0-6.291 7.415c0 1.409.005 5.084 7.296 10.141l-28.153 41.77a7.504 7.504 0 0 0-1.006 2.192l-16.808 41.434-7.181-2.185a7.516 7.516 0 0 0-9.376 5.001 7.513 7.513 0 0 0 5.001 9.376l122.741 37.356c8.367 2.546 13.593 10.972 12.155 19.599-1.643 9.861-11.585 16.465-21.325 14.127L87.532 444.14zm36.846 52.831l13.76-25.228 32.675 7.842a47.367 47.367 0 0 0 10.412 17.386h-56.847zm171.701 0h-80.157c-10.347 0-19.817-4.913-25.85-12.764l22.062 5.295c2.489.598 5.026.892 7.553.892 6.343 0 12.63-1.852 17.988-5.402a32.62 32.62 0 0 0 14.117-21.76c2.672-16.044-7.045-31.712-22.605-36.447l-45.828-13.948v-13.055h145.284v13.057l-45.829 13.948c-15.559 4.735-25.277 20.403-22.605 36.448a32.623 32.623 0 0 0 14.117 21.76 32.614 32.614 0 0 0 17.988 5.402c2.526 0 5.064-.294 7.553-.892l22.072-5.297c-6.027 7.852-15.491 12.763-25.86 12.763zm34.715 0a47.4 47.4 0 0 0 10.395-17.386l32.675-7.842 13.76 25.228h-56.83z"/></svg>