<svg xmlns="http://www.w3.org/2000/svg" viewBox="0 0 512 512"><circle cx="223.937" cy="135.264" r="7.515"/><circle cx="288.063" cy="135.264" r="7.515"/><path d="M264.016 176.344h-16.031c-12.983 0-23.546 10.563-23.546 23.546 0 12.983 10.563 23.546 23.546 23.546h16.031c12.983 0 23.546-10.563 23.546-23.546 0-12.983-10.563-23.546-23.546-23.546zm0 32.063h-16.031c-4.696 0-8.517-3.82-8.517-8.517s3.82-8.517 8.517-8.517h16.031c4.696 0 8.517 3.82 8.517 8.517s-3.821 8.517-8.517 8.517zm104.203 64.125a7.514 7.514 0 0 0-7.515 7.515v16.031c0 4.151 3.364 7.515 7.515 7.515s7.515-3.364 7.515-7.515v-16.031a7.514 7.514 0 0 0-7.515-7.515zm-48.094 32.063a7.514 7.514 0 0 0-7.515 7.515v16.031c0 4.151 3.364 7.515 7.515 7.515s7.515-3.364 7.515-7.515V312.11a7.514 7.514 0 0 0-7.515-7.515zm16.032 72.141a7.514 7.514 0 0 0-7.515 7.515v24.047c0 4.151 3.364 7.515 7.515 7.515s7.515-3.364 7.515-7.515V384.25a7.514 7.514 0 0 0-7.515-7.514zm-72.141-32.063a7.514 7.514 0 0 0-7.515 7.515v16.031a7.514 7.514 0 0 0 7.515 7.515 7.514 7.514 0 0 0 7.515-7.515v-16.031a7.515 7.515 0 0 0-7.515-7.515zm0 56.11a7.514 7.514 0 0 0-7.515 7.515v24.047a7.514 7.514 0 0 0 7.515 7.515 7.514 7.514 0 0 0 7.515-7.515v-24.047a7.514 7.514 0 0 0-7.515-7.515zm40.078 56.109a7.514 7.514 0 0 0-7.515 7.515v8.016c0 4.151 3.364 7.515 7.515 7.515s7.515-3.364 7.515-7.515v-8.016a7.514 7.514 0 0 0-7.515-7.515zm56.443-8.349a7.514 7.514 0 0 0-7.515 7.515v16.031c0 4.151 3.364 7.515 7.515 7.515s7.515-3.364 7.515-7.515v-16.031a7.514 7.514 0 0 0-7.515-7.515zM199.89 384.751a7.515 7.515 0 0 0-7.515 7.515v16.031a7.515 7.515 0 1 0 15.03 0v-16.031a7.514 7.514 0 0 0-7.515-7.515zm16.032 56.11a7.515 7.515 0 0 0-7.515 7.515v24.047a7.515 7.515 0 1 0 15.03 0v-24.047a7.516 7.516 0 0 0-7.515-7.515zm-64.126-24.047a7.515 7.515 0 0 0-7.515 7.515v8.016a7.515 7.515 0 1 0 15.03 0v-8.016a7.514 7.514 0 0 0-7.515-7.515zm-16.031 40.078a7.515 7.515 0 0 0-7.515 7.515v16.031a7.515 7.515 0 1 0 15.03 0v-16.031a7.515 7.515 0 0 0-7.515-7.515zm232.454-112.219a7.514 7.514 0 0 0-7.515 7.515v16.031c0 4.151 3.364 7.515 7.515 7.515s7.515-3.364 7.515-7.515v-16.031a7.514 7.514 0 0 0-7.515-7.515z"/><path d="M491.961 394.954v-203.58h4.509a7.514 7.514 0 0 0 7.515-7.515 7.514 7.514 0 0 0-7.515-7.515h-4.509v-9.018h4.509c4.151 0 7.515-3.364 7.515-7.515s-3.364-7.515-7.515-7.515h-4.509v-9.018h4.509a7.514 7.514 0 0 0 7.515-7.515 7.488 7.488 0 0 0-2.32-5.422C508.082 123.303 512 113.951 512 103.7c0-18.644-29.282-90.857-32.621-99.03-2.492-6.098-11.422-6.098-13.914 0-3.337 8.173-32.62 80.386-32.62 99.03 0 10.251 3.919 19.603 10.335 26.641a7.487 7.487 0 0 0-2.32 5.422 7.514 7.514 0 0 0 7.515 7.515h4.509v9.018h-4.509c-4.151 0-7.515 3.364-7.515 7.515s3.364 7.515 7.515 7.515h4.509v9.018h-4.509a7.514 7.514 0 0 0-7.515 7.515 7.514 7.514 0 0 0 7.515 7.515h4.509v155.692l-37.072-54.372v-4.631c0-23.685-17.394-43.38-40.078-46.994V87.671C375.734 39.329 336.405 0 288.063 0h-64.125c-48.342 0-87.671 39.329-87.671 87.671v153.398c-22.684 3.614-40.078 23.309-40.078 46.994v29.951L79.96 301.785a7.223 7.223 0 0 0-.805-.687v-37.082c0-12.983-10.563-23.546-23.546-23.546H44.834l17.219-28.698a7.516 7.516 0 0 0-12.887-7.732l-10.089 16.815v-12.948a7.515 7.515 0 1 0-15.03 0v33.474C10.261 244.762 0 257.217 0 272.031v32.063c0 14.814 10.261 27.269 24.047 30.651v29.172C16.034 369.233 0 383.469 0 412.305c0 28.301 15.674 51.937 22.675 61.086L8.809 501.125C6.353 506.036 10.049 512 15.53 512h32.063c5.482 0 9.177-5.964 6.721-10.875l-13.866-27.732c7.002-9.15 22.675-32.786 22.675-61.087 0-28.837-16.034-43.072-24.047-48.389v-23.023l57.112 77.879v85.712a7.515 7.515 0 0 0 7.515 7.515h304.595a7.514 7.514 0 0 0 7.515-7.515v-86.061l17.033 17.033v28.95c0 11.792 8.713 21.585 20.039 23.284v16.795a7.514 7.514 0 0 0 7.515 7.515h24.047a7.514 7.514 0 0 0 7.515-7.515v-18.72C503.68 481.153 512 469.729 512 456.391v-32.063c0-13.336-8.32-24.76-20.039-29.374zM27.689 496.971l3.873-7.744 3.873 7.744h-7.746zm20.405-84.666c0 20.114-9.974 38.056-16.532 47.681-6.561-9.628-16.532-27.569-16.532-47.681 0-21.079 10.99-31.464 16.534-35.36 5.532 3.89 16.53 14.274 16.53 35.36zm-16.532-91.68c-9.116.001-16.532-7.415-16.532-16.531v-32.063c0-9.112 7.409-16.525 16.52-16.532h.005l.015-.001h24.039c4.696 0 8.517 3.82 8.517 8.517v48.094c0 4.696-3.82 8.517-8.517 8.517H31.562zm64.626 72.733l-42.316-57.703h1.736c9.978 0 18.52-6.241 21.943-15.022l18.636 18.636v54.089zm55.107-305.687c0-40.055 32.587-72.642 72.642-72.642h64.125c40.055 0 72.642 32.587 72.642 72.642v37.254a31.366 31.366 0 0 0-16.532-4.69c-.167 0-.334.008-.501.011v-16.543c0-17.403-14.159-31.562-31.562-31.562h-8.016a7.504 7.504 0 0 0-4.168 1.263l-36.411 24.273V79.656c0-5.878-6.776-9.525-11.683-6.252L215.42 97.677V79.656a7.515 7.515 0 0 0-7.515-7.515h-8.016c-17.403 0-31.562 14.159-31.562 31.562v16.548c-.167-.002-.334-.016-.501-.016a31.366 31.366 0 0 0-16.532 4.69V87.671zm53.065 30.672a7.51 7.51 0 0 0 7.714-.373l36.411-24.273v18.021c0 5.883 6.778 9.522 11.683 6.252l46.201-30.8h5.74c9.116 0 16.532 7.417 16.532 16.532v56.11c0 17.305-6.013 33.661-17.033 46.728v-22.681c0-17.403-14.159-31.562-31.562-31.562h-48.094c-17.403 0-31.562 14.159-31.562 31.562v22.197c-10.615-12.815-17.033-29.306-17.033-47.25v-55.104c0-9.116 7.417-16.532 16.532-16.532h.501v24.548a7.513 7.513 0 0 0 3.97 6.625zm11.061 65.516c0-9.116 7.417-16.532 16.532-16.532h48.094c9.116 0 16.532 7.417 16.532 16.532v36.213c-12.058 8.158-26.278 12.504-41.131 12.38-14.8-.109-28.569-4.763-40.027-12.637v-35.956zm102.34 38.177c11.032-10.949 18.766-24.31 22.764-38.895 1.209.139 2.428.218 3.646.218a31.366 31.366 0 0 0 16.532-4.69v61.801h-70.27c10.062-4.298 19.326-10.492 27.328-18.434zm26.411-53.707c-.304 0-.605-.028-.909-.044.267-2.798.408-32.998.408-32.998.167-.005.334-.022.501-.022 9.116 0 16.532 7.417 16.532 16.532.001 9.115-7.416 16.532-16.532 16.532zm-176.344-33.065c.167 0 .334.011.501.016 0 0 .175 29.897.507 33.018-.335.02-.671.03-1.008.03-9.116 0-16.532-7.416-16.532-16.532-.001-9.115 7.416-16.532 16.532-16.532zm-16.533 43.404a31.366 31.366 0 0 0 16.532 4.69c1.297 0 2.59-.081 3.872-.237 5.25 18.518 16.337 34.603 31.1 46.062.357.331.743.626 1.159.884A87.6 87.6 0 0 0 221.9 240.47h-70.605v-61.802zm249.488 318.303H111.217v-76.982l120.769-93.931a7.514 7.514 0 1 0-9.227-11.863l-111.542 86.754V288.063c0-17.956 14.609-32.564 32.564-32.564h154.443l-46.336 36.039c-2.98 2.318-3.772 6.637-1.796 9.856 2.311 3.762 7.531 4.724 11.023 2.007l61.589-47.903h45.516c17.956 0 32.564 14.608 32.564 32.564v208.909zm47.092-393.268c0-9.739 13.117-46.552 24.548-75.891 11.431 29.337 24.548 66.149 24.548 75.891 0 10.915-7.163 20.185-17.033 23.367V79.656a7.514 7.514 0 0 0-7.515-7.515 7.514 7.514 0 0 0-7.515 7.515v47.414c-9.87-3.183-17.033-12.452-17.033-23.367zm20.039 72.641v-9.018h9.018v9.018h-9.018zm9.018 15.03v201.393h-9.018V191.374h9.018zm-9.018-39.077v-9.018h9.018v9.018h-9.018zm-34.976 261.997l-17.125-17.125v-77.798l35.858 52.592c.355.52.764.98 1.214 1.381v19.686c-10.672 1.601-19.019 10.39-19.947 21.264zm43.994 82.677h-9.018v-9.018h9.018v9.018zm20.039-40.58c0 9.116-7.417 16.532-16.532 16.532h-24.047c-4.696 0-8.517-3.82-8.517-8.517v-48.094c0-4.696 3.82-8.517 8.517-8.517h24.047c9.116 0 16.532 7.417 16.532 16.532v32.064z"/><circle cx="31.562" cy="399.781" r="7.515"/></svg>