<svg xmlns="http://www.w3.org/2000/svg" viewBox="0 0 512 512"><path d="M482.335 20.406C440.666 3.148 358.689-4.122 278.342 2.322 222.723 6.782 121.936 21.743 71.839 71.84 21.742 121.936 6.78 222.723 2.322 278.341c-6.442 80.345.826 162.325 18.086 203.994C28.56 502.019 38.798 512 50.832 512c12.055 0 19.982-7.511 23.563-22.322 2.749-11.369 3.217-26.741 3.809-46.203 1.928-63.388 5.156-169.481 100.473-264.797C273.991 83.36 380.084 80.132 443.472 78.203c19.463-.592 34.836-1.06 46.204-3.809 14.812-3.581 22.322-11.509 22.322-23.564.001-12.033-9.98-22.27-29.663-30.424zM82.566 82.566c5.375-5.375 11.691-10.491 18.87-15.327a24.606 24.606 0 0 1 3.853 13.273c0 6.618-2.577 12.839-7.257 17.519a24.616 24.616 0 0 1-17.519 7.257 24.599 24.599 0 0 1-13.273-3.854c4.835-7.177 9.951-13.493 15.326-18.868zm-23.228 31.822c6.289 3.948 13.566 6.071 21.175 6.071 10.67 0 20.701-4.155 28.246-11.7 7.544-7.545 11.7-17.576 11.7-28.246 0-7.608-2.123-14.886-6.071-21.175a220.817 220.817 0 0 1 15.393-7.744c12.936 22.064 9.566 50.891-8.865 69.321-18.431 18.432-47.257 21.803-69.322 8.866a220.595 220.595 0 0 1 7.744-15.393zm-13.677 29.471a72.366 72.366 0 0 0 39.874 8.785c17.391-1.202 33.765-8.661 46.105-21.001s19.799-28.715 21.001-46.106a72.41 72.41 0 0 0-8.775-39.878c9.943-3.878 20.646-7.429 32.037-10.629 19.04 39.97 10.939 88.606-20.666 120.209-20.253 20.253-47.495 30.863-74.974 30.861-15.403-.001-30.88-3.344-45.239-10.183 3.203-11.399 6.756-22.109 10.637-32.058zM63.04 443.013c-.542 17.847-1.011 33.261-3.39 43.1-2.592 10.718-6.339 10.718-8.818 10.718-5.01 0-11.145-7.589-16.41-20.3-4.815-11.624-8.814-26.972-11.896-44.826 3.886-.971 7.478-1.334 11.001-1.097.067.005.135.008.201.011 10.221.409 20.137 1.795 29.572 4.101-.093 2.833-.178 5.604-.26 8.293zm.862-23.748c-9.475-2.117-19.349-3.392-29.47-3.801-4.676-.3-9.323.08-14.207 1.181a511.831 511.831 0 0 1-2.538-22.919c14.205-4.041 30.512-3.564 47.771 1.401-.713 8.407-1.198 16.472-1.556 24.138zM66.99 379.8c-17.887-4.745-35.031-5.223-50.466-1.449-.903-14.363-1.349-29.363-1.304-44.634 19.447-3.957 39.56-2.668 58.84 3.764-3.274 14.685-5.511 28.86-7.07 42.319zm10.683-57.098c-20.383-6.595-41.592-8.13-62.238-4.48.166-6.779.428-13.585.79-20.388 22.083-4.46 45.824-3.461 68.124 2.82a348.453 348.453 0 0 0-6.676 22.048zm11.884-36.338c-23.572-6.816-48.688-8.251-72.321-4.147.068-.888.135-1.776.206-2.663 1.587-19.785 3.95-38.655 7.023-56.43a153.32 153.32 0 0 0 56.04 10.611c12.843 0 25.694-1.61 38.235-4.835a330.107 330.107 0 0 0-29.183 57.464zm118.624-153.306c-13.507 10.076-26.961 21.622-40.231 34.893-13.272 13.269-24.818 26.723-34.894 40.231-33.911 13.944-72.009 13.807-105.735-.265a473.33 473.33 0 0 1 3.814-17.103c15.525 6.921 32.519 10.526 49.569 10.526 5.373 0 10.752-.357 16.092-1.078 26.38-3.566 50.298-15.426 69.169-34.297 18.871-18.87 30.731-42.789 34.298-69.169 3.013-22.28-.335-45.246-9.436-65.664a472.213 472.213 0 0 1 17.091-3.81c14.07 33.726 14.206 71.824.263 105.736zm20.706-14.308c8.009-31.136 6.06-64.178-5.763-94.283 17.774-3.074 36.645-5.439 56.43-7.024.886-.071 1.775-.131 2.662-.199-4.102 23.631-2.667 48.744 4.148 72.315a329.918 329.918 0 0 0-57.477 29.191zm71.767-34.4c-6.281-22.297-7.28-46.035-2.823-68.116a708.455 708.455 0 0 1 20.388-.792c-3.649 20.644-2.112 41.85 4.482 62.231a348.644 348.644 0 0 0-22.047 6.677zm36.827-10.289c-6.432-19.278-7.722-39.391-3.766-58.833.701-.002 1.404-.01 2.103-.01 14.545 0 28.829.445 42.533 1.306-3.773 15.435-3.296 32.579 1.449 50.467-13.46 1.558-27.635 3.794-42.319 7.07zm57.647-8.603c-4.966-17.259-5.445-33.567-1.403-47.771a511.86 511.86 0 0 1 22.919 2.537c-1.101 4.884-1.483 9.532-1.18 14.208.411 10.121 1.686 19.995 3.802 29.47-7.666.359-15.732.844-24.138 1.556zm90.984-5.808c-9.839 2.38-25.254 2.848-43.102 3.392-2.689.082-5.459.167-8.294.26-2.306-9.435-3.692-19.351-4.101-29.572-.003-.067-.006-.135-.011-.201-.235-3.521.126-7.111 1.096-10.996 17.851 3.08 33.206 7.076 44.828 11.89 12.712 5.264 20.3 11.398 20.3 16.408.002 2.48.002 6.227-10.716 8.819z"/><path d="M492.731 135.239c-6.594-15.919-15.04-23.989-25.104-23.989-7.023 0-16.174 3.222-19.885 18.568-2.166 8.96-2.53 20.919-2.991 36.059-.08 2.619-.163 5.32-.257 8.082v.015c-1.02 30.072-3.447 68.3-19.581 109.166a7.655 7.655 0 0 0-.167.43 244.084 244.084 0 0 1-6.46 14.841 7.585 7.585 0 0 0 13.698 6.518 254.311 254.311 0 0 0 4.606-10.271c10.838 1.728 21.345 2.603 31.464 2.603 8.05 0 15.851-.56 23.388-1.654-1.433 16.644-3.576 32.427-6.374 47.145-24.626-8.786-51.088-8.641-75.052-.243a262.501 262.501 0 0 0 3.261-4.734 7.583 7.583 0 0 0-2.077-10.522 7.582 7.582 0 0 0-10.523 2.077c-9.38 13.993-20.506 27.457-33.068 40.019-73.178 73.178-154.739 75.66-203.471 77.143-15.141.461-27.099.824-36.06 2.991-15.347 3.71-18.569 12.861-18.569 19.885 0 10.064 8.071 18.511 23.989 25.104 24.575 10.179 67.08 15.899 113.36 15.898a567.25 567.25 0 0 0 45.086-1.795c43.219-3.466 121.562-15.118 160.667-54.223 39.106-39.106 50.758-117.45 54.224-160.668 4.996-62.338-.671-126.012-14.104-158.445zm-329.16 352.384c-9.417-2.022-17.638-4.419-24.268-7.165-10.795-4.47-14.625-8.767-14.625-11.089 0-1.539 0-3.457 6.965-5.14 7.43-1.796 19.26-2.157 32.957-2.574l1.087-.033c.77 9.813.082 18.3-2.116 26.001zm44.186 6.061c-10.323-.8-20.137-1.914-29.207-3.323 2.352-8.875 3.105-18.457 2.309-29.278 8.844-.384 18.4-.97 28.519-2.023 1.374 13.191.845 24.443-1.621 34.624zm27.505 1.355a531.418 531.418 0 0 1-12.18-.417c2.347-11.212 2.792-23.585 1.344-37.445a317.567 317.567 0 0 0 12.243-2.054c1.82 13.261 1.349 26.635-1.407 39.916zm43.072-.744c-9.244.522-18.5.805-27.641.862 2.658-14.384 2.951-28.861.852-43.223a272.393 272.393 0 0 0 26.891-7.975c2.582 18.005 2.541 34.875-.102 50.336zm15.532-1.111c2.47-17.009 2.155-35.39-.948-54.847 15.76-6.667 31.826-15.318 47.846-26.567-8.394 23.961-8.538 50.419.246 75.04-14.718 2.798-30.5 4.941-47.144 6.374zm148.018-49.558c-6.551 6.551-14.942 12.603-24.94 18.082-5.091-12.09-2.53-26.365 7.064-35.959 9.595-9.594 23.869-12.155 35.959-7.064-5.481 9.998-11.531 18.39-18.083 24.941zm24.757-38.584c-17.842-7.898-39.128-4.254-53.359 9.98-14.232 14.232-17.875 35.518-9.979 53.359a223.219 223.219 0 0 1-15.996 6.287c-10.34-24.199-5.058-52.925 13.819-71.802 18.878-18.878 47.604-24.161 71.803-13.82a224.925 224.925 0 0 1-6.288 15.996zm10.908-30.504c-29.542-11.981-64.236-5.315-87.151 17.6-22.917 22.917-29.582 57.612-17.601 87.152a327.644 327.644 0 0 1-16.785 4.355c-13.09-34.409-5.792-73.298 19.349-100.645.992-.966 1.984-1.936 2.974-2.925.948-.948 1.87-1.911 2.802-2.869l.047-.037c27.351-25.197 66.28-32.519 100.721-19.417a326.869 326.869 0 0 1-4.356 16.786zm-17.635-208.199c.417-13.697.777-25.526 2.573-32.956 1.684-6.965 3.6-6.965 5.14-6.965 2.321 0 6.618 3.83 11.09 14.624 2.747 6.63 5.144 14.851 7.165 24.268-7.702 2.201-16.189 2.888-26.001 2.118l.033-1.089zm-.575 16.269c2.773.204 5.467.309 8.086.309 7.605 0 14.589-.887 21.193-2.637 1.409 9.07 2.524 18.884 3.324 29.208-10.164 2.44-21.576 2.981-34.645 1.629 1.067-10.159 1.656-19.717 2.042-28.509zm-3.943 43.547c5.32.56 10.433.859 15.335.859 7.87 0 15.218-.743 22.149-2.2.183 4.018.326 8.082.417 12.194-13.27 2.751-26.672 3.224-39.956 1.402.78-4.151 1.46-8.237 2.055-12.255zm37.158 53.922c-15.465 2.642-32.339 2.683-50.351.099 3.228-9.134 5.83-18.132 7.953-26.921 6.347.926 12.715 1.415 19.086 1.415 8.07 0 16.142-.755 24.174-2.237a551.383 551.383 0 0 1-.862 27.644z"/></svg>