<svg xmlns="http://www.w3.org/2000/svg" viewBox="0 0 512.002 512.002"><path d="M479.928 416.219a7.589 7.589 0 0 0-.789-3.265l-16.031-32.062a7.516 7.516 0 0 0-4.153-3.701l-35.347-12.854c.141-1.358.216-2.735.216-4.13 0-19.084-27.818-60.322-33.393-68.395-2.937-4.251-9.429-4.251-12.366 0-4.328 6.266-22.048 32.507-29.766 52.865h-32.516c-.039 0-.076.005-.115.006a413.145 413.145 0 0 0-13.408-20.809c-2.937-4.251-9.429-4.251-12.366 0-4.082 5.91-20.074 29.588-28.355 49.343-4.529-2.071-6.041-4.296-6.041-4.995v-80.656h49.095v20.54a7.515 7.515 0 1 0 15.03 0v-20.54h24.547c12.983 0 23.546-10.562 23.546-23.545 0-3.003-.571-5.873-1.6-8.516h2.101c12.983 0 23.546-10.562 23.546-23.545 0-3.264-.669-6.375-1.875-9.204 10.268-2.534 17.906-11.819 17.906-22.858 0-12.983-10.562-23.546-23.545-23.546h-2.101a23.423 23.423 0 0 0 1.6-8.516c0-12.983-10.562-23.545-23.545-23.545h-.519c.004-.167.018-.334.018-.501 0-3.264-.669-6.375-1.875-9.204 10.268-2.534 17.906-11.819 17.906-22.858 0-12.983-10.562-23.545-23.545-23.545h-2.101a23.423 23.423 0 0 0 1.6-8.516c0-12.983-10.562-23.545-23.545-23.545h-8.516V23.556c0-13.423-17.014-23.545-39.576-23.545-12.448 0-23.2 3.086-30.345 8.103a23.376 23.376 0 0 0-10.903-7.081c-6.018-1.831-12.388-1.207-17.853 1.712L117.907 56.119H39.583a7.514 7.514 0 1 0 0 15.029h80.155a7.509 7.509 0 0 0 3.457-.843l104.747-54.26c4.43-2.366 10.094-.275 11.931 4.387 1.565 3.971-.145 8.629-3.912 10.64l-48.586 25.932c-3.059 1.36-4.501 5.267-3.765 8.372.789 3.33 3.874 5.771 7.303 5.771.065 0 6.711.088 13.232 3.253 8.263 4.011 12.28 10.976 12.28 21.294a7.515 7.515 0 1 0 15.029 0c0-9.678-2.726-18.021-7.843-24.547h16.861v26.261l-90.502 46.881H39.583a7.515 7.515 0 1 0 0 15.03H151.8a7.509 7.509 0 0 0 3.457-.843l104.747-54.26c4.429-2.369 10.094-.273 11.931 4.388 1.565 3.971-.145 8.629-3.911 10.64l-48.586 25.932a7.513 7.513 0 0 0 3.538 14.144h137.226c4.696 0 8.516 3.82 8.516 8.516s-3.82 8.516-8.516 8.516H276.04a7.515 7.515 0 1 0 0 15.03h108.209c4.696 0 8.516 3.82 8.516 8.516s-3.82 8.516-8.516 8.516h-108.21a7.514 7.514 0 1 0 0 15.029h92.178c4.696 0 8.516 3.82 8.516 8.516s-3.82 8.516-8.516 8.516H276.04a7.515 7.515 0 1 0 0 15.03h68.132c4.696 0 8.516 3.82 8.516 8.516s-3.82 8.516-8.516 8.516H39.583a7.513 7.513 0 0 0-7.514 7.515 7.515 7.515 0 0 0 7.514 7.515h200.888v57.11h-16.036c-8.63-18.706-22.599-39.382-26.375-44.85-2.937-4.251-9.429-4.251-12.366 0-4.525 6.551-23.689 34.932-30.758 55.601l-45.373 13.611a7.516 7.516 0 0 0-2.349 1.186l-32.062 24.046c-1.871 1.397-3.006 3.679-3.006 6.012v56.108a7.52 7.52 0 0 0 3.865 6.57l72.139 40.077a7.52 7.52 0 0 0 3.36.94l208.403 8.016a7.346 7.346 0 0 0 2.528-.334l112.042-32.012a7.513 7.513 0 0 0 5.45-7.225v-56.108c0-.032-.005-.064-.005-.096zM240.47 56.119h-19.519l19.519-10.418v10.418zm64.125 88.17h-51.582L275.1 132.5c11.453-6.114 15.799-20.404 9.686-31.858-2.962-5.549-7.906-9.613-13.923-11.441-5.125-1.559-10.502-1.333-15.363.571V42.285c6.656 3.041 15.113 4.816 24.547 4.816 9.434 0 17.892-1.774 24.547-4.816v102.004zM280.047 32.073c-16.107 0-24.547-6.327-24.547-8.516s8.44-8.516 24.547-8.516 24.547 6.327 24.547 8.516-8.44 8.516-24.547 8.516zm39.577 39.075h8.516c4.696 0 8.516 3.82 8.516 8.516s-3.82 8.516-8.516 8.516h-8.516V71.148zm25.012 73.141h-25.012v-9.017h16.532c4.696 0 8.516 3.82 8.516 8.516 0 .169-.026.334-.036.501zm-25.012-24.046V103.21h32.563c4.696 0 8.516 3.821 8.516 8.516 0 4.696-3.82 8.516-8.516 8.516h-32.563zm64.624 189.403c11.688 18.184 24.548 41.595 24.548 50.561 0 3.517-.748 6.86-2.087 9.887-3.247-10.766-12.91-25.313-16.277-30.189-2.937-4.251-9.429-4.251-12.366 0-3.369 4.876-13.031 19.424-16.277 30.189a24.392 24.392 0 0 1-2.087-9.887c-.001-9.378 13.259-33.024 24.546-50.561zm8.517 66.591c0 4.696-3.82 8.516-8.516 8.516s-8.516-3.819-8.516-8.515c.019-2.523 3.597-9.981 8.517-18.185 4.92 8.2 8.496 15.656 8.515 18.184zm-96.688-34.529c11.688 18.184 24.548 41.595 24.548 50.561 0 3.517-.748 6.86-2.087 9.887-3.247-10.766-12.91-25.313-16.277-30.189-2.937-4.251-9.429-4.251-12.366 0-3.368 4.876-13.031 19.423-16.277 30.189a24.392 24.392 0 0 1-2.087-9.887c0-9.378 13.259-33.025 24.546-50.561zm8.518 66.591c0 4.696-3.82 8.516-8.516 8.516s-8.516-3.819-8.516-8.515c.019-2.523 3.597-9.981 8.517-18.185 4.92 8.2 8.496 15.656 8.515 18.184zm-112.719-90.638c11.688 18.184 24.548 41.595 24.548 50.561 0 3.517-.748 6.86-2.087 9.887-3.247-10.766-12.91-25.313-16.277-30.189-2.937-4.251-9.429-4.251-12.366 0-3.369 4.876-13.031 19.423-16.277 30.189a24.392 24.392 0 0 1-2.087-9.887c0-9.377 13.259-33.024 24.546-50.561zm8.517 66.592c0 4.696-3.82 8.516-8.516 8.516s-8.516-3.819-8.516-8.515c.019-2.523 3.597-9.981 8.517-18.185 4.921 8.2 8.496 15.656 8.515 18.184zm-48.092 103.898L87.175 451.97v-39.528l65.126 32.563v43.146zm200.387 8.525l-185.358-7.13v-41.364l185.358 7.414v41.08zm6.606-55.855l-197.567-7.903L93.896 399l21.265-15.949 37.313-11.195c1.806 19.727 18.147 35.304 38.193 35.91.806.041 1.614.041 2.42 0 21.263-.643 38.366-18.129 38.366-39.545 0-2.498-.486-5.383-1.328-8.516h10.345v8.516c0 8.153 5.978 15.107 16.498 19.381-.293 1.66-.467 3.231-.467 4.665 0 21.416 17.103 38.902 38.366 39.545.806.041 1.614.041 2.42 0 21.263-.643 38.366-18.129 38.366-39.545 0-8.219-5.162-20.545-11.482-32.563h20.522c-.004.164-.022.34-.022.501 0 21.416 17.103 38.902 38.366 39.545.806.041 1.614.041 2.42 0 14.622-.442 27.273-8.846 33.75-21.023l31.797 11.563 10.643 21.285-102.353 29.246zm105.61 25.933l-97.188 27.769v-40.478l97.188-27.768v40.477z"/></svg>