<svg xmlns="http://www.w3.org/2000/svg" viewBox="0 0 512.002 512.002"><path d="M293.005 255.14l-15.029-25.048a7.53 7.53 0 0 0-3.083-2.855l-20.039-10.02a7.51 7.51 0 0 0-6.412-.146l-45.088 20.039a7.511 7.511 0 0 0-4.36 5.632l-5.01 30.059a7.51 7.51 0 0 0 2.522 6.941c37.179 31.868 42.245 31.868 44.968 31.868 2.287 0 7.646 0 34.754-21.686a7.514 7.514 0 0 0 1.749-2.002l15.029-25.049a7.517 7.517 0 0 0-.001-7.733zm-27.218 23.885c-8.882 7.043-19.603 14.778-24.085 17.092-5.358-3.12-19.604-14.391-32.195-25.043l3.645-21.872 38.151-16.956 14.91 7.455 11.585 19.307-12.011 20.017z"/><path d="M375.51 254.18l-16.031-64.126a7.51 7.51 0 0 0-3.122-4.43l-48.094-32.063a7.51 7.51 0 0 0-4.168-1.262h-88.172a7.52 7.52 0 0 0-3.728.99l-56.109 32.063a7.513 7.513 0 0 0-2.797 2.796l-32.063 56.109a7.53 7.53 0 0 0-.953 4.476l8.016 80.156a7.517 7.517 0 0 0 4.587 6.189l96.188 40.078a7.55 7.55 0 0 0 4.235.457l88.172-16.031a7.512 7.512 0 0 0 5.376-4.033l23.713-47.426a7.513 7.513 0 0 0-3.361-10.082 7.514 7.514 0 0 0-10.083 3.361l-22.033 44.065-82.291 14.962-89.997-37.499-7.33-73.302 29.854-52.245 52.598-30.056h83.901l43.782 29.189 14.653 58.61-7.24 14.48a7.513 7.513 0 0 0 3.361 10.082 7.514 7.514 0 0 0 10.083-3.361l8.484-16.966a7.509 7.509 0 0 0 .569-5.181z"/><path d="M509.607 178.361a7.517 7.517 0 0 0-5.657-1.996l-98.433 7.031-5.811-40.676a7.513 7.513 0 0 0-5.462-6.187l-26.426-7.207 47.2-94.401c2.075-4.149-.206-9.315-4.656-10.586l-56.11-16.032a7.513 7.513 0 0 0-9.142 4.698l-35.84 100.354-3.198-.873a7.555 7.555 0 0 0-1.978-.265h-15.48l6.948-104.204c.284-4.276-3.215-8.016-7.498-8.016h-64.125c-4.282 0-7.782 3.739-7.498 8.015l6.947 104.204h-15.48a7.51 7.51 0 0 0-2.377.386l-7.559 2.52-47.469-94.938c-1.9-3.798-6.753-5.276-10.449-3.164l-56.11 32.063c-3.994 2.281-4.994 7.796-2.045 11.335l60.91 73.093-9.419 3.14a7.52 7.52 0 0 0-4.068 3.262l-7.732 12.886-68.94-62.674c-3.12-2.838-8.129-2.489-10.828.75L1.743 138.972c-2.715 3.257-2.125 8.28 1.264 10.822l83.026 62.269-4.805 8.009a7.522 7.522 0 0 0-1.013 4.798l5.447 43.568-79.289 12.199a7.515 7.515 0 0 0-6.296 8.49l8.016 56.109c.621 4.339 5.001 7.298 9.262 6.227l76.3-19.075 2.592 20.732a7.52 7.52 0 0 0 4.096 5.789l34.776 17.388-77.23 91.271c-2.858 3.378-2.111 8.654 1.568 11.107l48.094 32.063c3.521 2.347 8.437 1.237 10.613-2.386l64.861-108.102 29.537 14.769a7.525 7.525 0 0 0 3.938.771l19.031-1.464 13.031 91.221a7.516 7.516 0 0 0 8.501 6.377l56.109-8.016a7.518 7.518 0 0 0 6.286-9.013l-18.347-85.614 19.59-1.507a7.525 7.525 0 0 0 4.372-1.837l9.631-8.427 59.567 79.423c2.543 3.391 7.565 3.979 10.823 1.264l48.094-40.078c3.344-2.787 3.581-8.008.503-11.087l-71.271-71.27 6.78-5.933a7.517 7.517 0 0 0 2.302-3.677l4.534-16.625 81.256 37.502c4.126 1.906 9.129-.399 10.374-4.758l16.031-56.109c1.167-4.081-1.408-8.434-5.535-9.387l-87.674-20.232 5.062-18.561c.271-.99.335-2.025.189-3.04l-1.289-9.019 90.573-6.47a7.515 7.515 0 0 0 6.98-7.496v-48.094a7.53 7.53 0 0 0-2.396-5.502zm-12.636 46.597l-91.637 6.546c-4.283.307-7.511 4.304-6.904 8.559l2.208 15.463-6.709 24.603c-1.107 4.06 1.465 8.354 5.56 9.3l87.582 20.21-11.448 40.067-81.352-37.547c-4.159-1.919-9.196.436-10.398 4.845l-6.275 23.006-11.12 9.73c-3.224 2.82-3.395 7.94-.366 10.968l71.132 71.132-35.696 29.746-59.681-79.575c-2.584-3.447-7.716-3.984-10.959-1.147l-13.848 12.118-25.672 1.975c-4.467.344-7.711 4.684-6.772 9.067l18.461 86.147-40.697 5.814-12.964-90.752a7.516 7.516 0 0 0-8.015-6.431l-23.976 1.845-33.9-16.95a7.515 7.515 0 0 0-9.805 2.855l-64.387 107.311-34.524-23.017 77.963-92.138c3.097-3.661 1.907-9.434-2.376-11.576l-39.731-19.866-3.145-25.157c-.551-4.403-4.968-7.438-9.28-6.358l-76.445 19.111-5.786-40.501 79.161-12.179a7.515 7.515 0 0 0 6.314-8.359l-6.031-48.242 6.957-11.596a7.514 7.514 0 0 0-1.936-9.877l-82.12-61.59 29.993-35.99 69.918 63.562c3.458 3.143 9.099 2.307 11.499-1.693l11.018-18.363 17.227-5.742c4.929-1.642 6.731-7.938 3.398-11.94L99.185 57.687l41.428-23.673 46.831 93.663a7.513 7.513 0 0 0 9.098 3.768l12.585-4.195h22.294c4.282 0 7.782-3.739 7.498-8.015l-6.947-104.203h48.061l-6.948 104.204c-.285 4.275 3.215 8.015 7.498 8.015h22.506l8.942 2.439a7.515 7.515 0 0 0 9.055-4.722l35.812-100.274 40.63 11.609-47.25 94.501c-2.09 4.181.245 9.383 4.743 10.611l30.505 8.319 6.103 42.72c.559 3.906 4.078 6.71 7.975 6.433l97.368-6.955v33.026z"/><path d="M335.511 254.528l-8.016-40.078a7.521 7.521 0 0 0-4.008-5.247l-48.094-24.047a7.51 7.51 0 0 0-4.424-.718l-56.109 8.016a7.515 7.515 0 0 0-3.748 1.666l-48.094 40.078a7.516 7.516 0 0 0-2.646 6.705l8.016 64.125a7.52 7.52 0 0 0 4.096 5.789l64.125 32.063a7.571 7.571 0 0 0 6 .315l64.125-24.047a7.51 7.51 0 0 0 4.268-4.076l24.047-56.109a7.52 7.52 0 0 0 .462-4.435zm-37.059 51.674L240.4 327.971l-57.596-28.798-7.008-56.059 43.302-36.084 51.675-7.382L313.479 221l6.836 34.186-21.863 51.016z"/></svg>