<svg xmlns="http://www.w3.org/2000/svg" viewBox="0 0 512 512"><path d="M443.782 49.578a7.618 7.618 0 0 0-9.922 11.562c29.727 25.513 46.097 58.447 46.097 92.735 0 76.446-80.419 138.64-179.267 138.64-2.057 0-4.112-.032-6.168-.088-1.844-.051-3.599-.172-5.325.604-3.349 1.504-5.183 5.314-4.25 8.877.005 24.295.212 49.2 8.93 66.634 5.539 11.078 10.241 50.617-1.154 69.055-3.922 6.345-9.136 9.301-16.409 9.301-19.753 0-50.29 11.761-82.619 24.214-35.353 13.616-75.419 29.051-94.584 25.051-17.613-3.676-34.014-16.907-46.184-37.256-9.46-15.82-15.826-34.889-18.851-56.137 14.489 1.814 30.681 2.468 46.677 2.468 27.768 0 54.899-1.949 71.271-3.126 5.269-.379 10.53-.721 15.807-.934 5.695-.231 10.798-3.206 14.136-7.775 9.861-13.501 7.163-42.166.482-63.085-12.096-37.876-.912-58.326 6.83-67.145 9.23-10.513 21.11-13.817 28.798-12.421 6.301 1.143 14.858 3.839 23.916 6.695 23.39 7.373 49.9 15.73 69.232 9.287 28.245-9.415 37.195-52.65 37.562-54.486a7.618 7.618 0 0 0-14.939-2.987c-2.018 10.094-10.884 37.501-27.442 43.019-14.646 4.88-39.701-3.018-59.832-9.364-9.53-3.004-18.531-5.841-25.779-7.155-14.53-2.635-31.393 4.182-42.964 17.361-9.867 11.237-24.272 36.813-9.895 81.832 7.114 22.275 6.435 43.018 1.728 49.463-1.038 1.423-1.853 1.542-2.597 1.542-2.441 0-6.774.288-13.142.743v-14.456a7.618 7.618 0 1 0-15.236 0v15.527c-5.258.353-11.069.716-17.266 1.046v-15.557a7.618 7.618 0 1 0-15.236 0v16.246c-5.621.206-11.408.362-17.266.441v-16.687a7.618 7.618 0 1 0-15.236 0v16.698a483.88 483.88 0 0 1-9.141-.205v-16.493a7.618 7.618 0 1 0-15.236 0v15.703c-5.83-.43-11.47-1.013-16.814-1.774a219.58 219.58 0 0 1-.453-13.928c0-67.702 91.076-168.74 94.952-173.008a7.617 7.617 0 0 0 1.494-7.797c-4.595-12.253-10.851-51.185-7.249-67.398 11.74-52.819 83.685-109.825 179.452-109.825 7.212 0 14.367.342 21.441.994l.427 5.072-14.388 6.167c-3.614 1.549-5.485 5.751-4.205 9.472 1.421 4.133 6.185 6.253 10.208 4.532l9.731-4.171 1.607 19.094a7.62 7.62 0 0 0 4.938 6.502l29.197 10.845 19.891 33.326-28.797 31.212c-2.589 2.806-2.67 7.247-.172 10.14 2.934 3.396 8.328 3.488 11.37.191l27.245-29.532 6.214 6.284c3.123 3.16 8.431 2.918 11.274-.487 2.479-2.97 2.276-7.476-.441-10.225l-11.17-11.296-19.545-32.749 16.472-8.452a7.617 7.617 0 1 0-6.955-13.555L364.32 59.226l-24.033-8.927-2.094-24.892-.006-.074-.6-7.131c23.248 3.766 45.327 11.076 65.131 21.713a7.617 7.617 0 1 0 7.208-13.421C377.659 9.161 339.886 0 300.69 0c-62.005 0-106.034 21.396-132.052 39.345-32.993 22.762-55.69 52.798-62.269 82.407-4.041 18.186 1.367 54.48 6.383 71.569-18.437 20.827-95.943 112.407-95.943 179.94 0 35.937 7.969 68.256 23.044 93.465 14.379 24.044 34.319 39.795 56.146 44.35 3.025.632 6.325.924 9.867.924 24.058-.001 59.189-13.532 93.305-26.672 29.607-11.404 60.223-23.196 77.144-23.196 12.531 0 22.687-5.714 29.369-16.526 15.05-24.353 8.654-70.212 1.82-83.878-6.518-13.035-7.233-33.382-7.311-53.979h.498c51.612 0 100.211-15.788 136.841-44.456 37.183-29.099 57.661-67.959 57.661-109.419-.001-38.802-18.259-75.842-51.411-104.296z"/><path d="M165.605 113.756c-17.641 0-31.994 17.998-31.994 40.119s14.353 40.119 31.994 40.119 31.994-17.998 31.994-40.119c0-22.122-14.353-40.119-31.994-40.119zm0 65.003c-9.084 0-16.759-11.396-16.759-24.884s7.674-24.884 16.759-24.884c9.084 0 16.759 11.396 16.759 24.884s-7.675 24.884-16.759 24.884z"/></svg>