<svg xmlns="http://www.w3.org/2000/svg" viewBox="0 0 512 512"><path d="M429.654 258.685l-16.032-16.032a7.514 7.514 0 0 0-10.169-.423l-102.108 86.4h-25.822l5.035-73.845c34.536-14.198 54.08-45.182 54.08-88.686 0-19.516-9.524-44.801-28.309-75.152a7.516 7.516 0 0 0-12.78 7.91c17.291 27.938 26.059 50.562 26.059 67.242 0 31.823-11.828 55.377-33.604 68.969 7.322-10.592 11.623-23.423 11.623-37.245 0-9.684-4.118-22.411-12.588-38.888-.589-1.674-2.774-5.967-9.444-4.846-.713.12-15.421 2.944-17.171 3.29l-19.248-67.367c-1.647-5.771-9.395-7.311-13.122-2.593-6.118 7.745-59.778 76.648-59.778 110.404 0 13.822 4.303 26.654 11.624 37.245-21.776-13.591-33.605-37.145-33.605-68.969 0-46.918 67.733-125.432 87.659-147.512 8.088 8.951 24.043 27.184 40.1 48.822a7.514 7.514 0 0 0 10.512 1.557 7.514 7.514 0 0 0 1.557-10.513C260.82 27.046 238.346 3.301 237.401 2.306c-2.92-3.075-7.979-3.075-10.899 0-3.97 4.18-97.236 103.089-97.236 163.793 0 43.504 19.544 74.487 54.08 88.686l1.756 25.747h-22.183l-53.912-53.912a7.514 7.514 0 0 0-10.627 0l-16.032 16.032a7.515 7.515 0 0 0-.764 9.734l64.13 88.178a7.515 7.515 0 0 0 5.33 3.058l38.624 3.862 10.74 157.511a7.515 7.515 0 0 0 7.497 7.004H256a7.514 7.514 0 0 0 7.497-7.004l7.328-107.469 58.067-5.807a7.507 7.507 0 0 0 5.12-2.784l96.194-120.243a7.512 7.512 0 0 0-.552-10.007zm-248.348-60.862c0-20.396 29.014-64.101 47.543-89.247l17.024 59.588a7.517 7.517 0 0 0 8.701 5.305c6.868-1.374 14.27-2.828 19.06-3.739 7.333 15.063 8.961 23.54 8.961 28.093 0 27.925-22.72 50.644-50.645 50.644-27.925.001-50.644-22.718-50.644-50.644zm142.945 179.255l-61.24 6.124a7.516 7.516 0 0 0-6.75 6.967l-7.283 106.8h-34.057l-10.694-156.842a7.517 7.517 0 0 0-6.75-6.967l-41.592-4.159-58.372-80.262 6.177-6.177 50.8 50.8a7.512 7.512 0 0 0 5.314 2.201h33.34c4.287 0 7.79-3.747 7.497-8.026l-1.894-27.767c10.111 2.458 21.205 3.729 33.201 3.729 11.997 0 23.09-1.271 33.201-3.729l-5.172 75.864c-.293 4.28 3.211 8.026 7.497 8.026h36.619a7.52 7.52 0 0 0 4.855-1.778l98.931-83.711 6.387 6.387-90.015 112.52z"/><path d="M247.983 280.532a7.515 7.515 0 0 0-7.515 7.515v8.016a7.515 7.515 0 1 0 15.03 0v-8.016a7.515 7.515 0 0 0-7.515-7.515zm-32.065 16.033a7.516 7.516 0 0 0-7.515 7.515v16.032a7.516 7.516 0 0 0 15.03 0V304.08a7.515 7.515 0 0 0-7.515-7.515zm16.033 48.097a7.516 7.516 0 0 0-7.515 7.515v32.065a7.516 7.516 0 0 0 15.03 0v-32.065a7.515 7.515 0 0 0-7.515-7.515zm0 72.145a7.516 7.516 0 0 0-7.515 7.515v16.032a7.516 7.516 0 0 0 15.03 0v-16.032a7.515 7.515 0 0 0-7.515-7.515zm5.864-255.407a7.517 7.517 0 0 0-11.73 0c-4.69 5.852-28.087 35.876-28.087 52.286 0 18.721 15.231 33.952 33.952 33.952 18.721 0 33.952-15.231 33.952-33.952 0-16.41-23.397-46.434-28.087-52.286zm-5.864 71.206c-10.433 0-18.921-8.488-18.921-18.921 0-6.751 9.742-22.62 18.922-35.2 9.181 12.573 18.919 28.437 18.919 35.2.001 10.433-8.487 18.921-18.92 18.921z"/></svg>