<svg xmlns="http://www.w3.org/2000/svg" viewBox="0 0 512 512"><path d="M510.85 244.827c-6.327-66.432-38.144-126.423-89.592-168.922-61.363-50.691-138.8-74.453-218.033-66.908C123.988 16.544 52.432 54.495 1.74 115.859c-2.682 3.247-2.208 8.203 1.037 10.883l38.135 31.503.005.004a.018.018 0 0 1 .005.004l38.136 31.504c3.246 2.683 8.203 2.208 10.883-1.037 31.231-37.805 75.314-61.187 124.13-65.835 48.819-4.653 96.519 9.989 134.326 41.22 25.627 21.171 41.461 49.866 46.947 80.268-7.657-24.019-22.052-46.185-42.891-63.4a7.73 7.73 0 0 0-9.847 11.919c51.286 42.367 58.542 118.56 16.176 169.845-1.505 1.822-3.208 3.438-3.684 5.847a7.778 7.778 0 0 0 1.325 6.036c2.686 3.691 8.144 4.244 11.503 1.143a114.493 114.493 0 0 0 10.547-11.151c25.63-31.026 37.638-70.232 33.813-110.396-3.825-40.164-23.018-76.399-54.044-102.029-40.99-33.861-92.716-49.732-145.638-44.691-50.355 4.796-96.065 27.972-129.548 65.513L56.83 151.343c39.282-44.534 93.151-72.05 152.55-77.707 61.97-5.901 122.531 12.682 170.524 52.328 28.747 23.748 49.209 54.875 59.527 89.86 1.229 4.167 5.689 6.466 9.815 5.105 3.94-1.3 6.185-5.489 5.012-9.47a198.424 198.424 0 0 0-12.506-31.947l11.559-5.78a7.728 7.728 0 0 0 3.457-10.37 7.727 7.727 0 0 0-10.37-3.457l-12.044 6.022c-11.613-19.472-26.605-37.015-44.603-51.883a253.386 253.386 0 0 0-18.767-14.082l10.13-10.13a7.729 7.729 0 0 0 0-10.931 7.729 7.729 0 0 0-10.931 0l-12.57 12.57c-21.9-12.96-45.477-22.39-70.036-28.053l4.287-8.575a7.727 7.727 0 0 0-3.457-10.37 7.729 7.729 0 0 0-10.37 3.457l-6.203 12.408c-20.87-3.398-42.311-4.149-63.919-2.092a252.703 252.703 0 0 0-24.547 3.556l-6.935-13.87a7.727 7.727 0 0 0-10.37-3.457 7.728 7.728 0 0 0-3.457 10.37l5.259 10.519c-27.476 7.211-53.296 19.021-76.553 34.946l-5.577-11.153a7.728 7.728 0 0 0-10.37-3.457 7.728 7.728 0 0 0-3.457 10.37l6.75 13.499a250.113 250.113 0 0 0-33.753 31.921l-26.243-21.68c47.71-54.711 113.475-88.513 186.028-95.422 75.127-7.151 148.543 15.374 206.722 63.437 48.264 39.87 78.113 96.149 84.047 158.469 5.936 62.321-12.753 123.222-52.624 171.486-33.317 40.33-80.344 65.273-132.42 70.233-6.291.599-12.661.902-18.934.902-45.82.001-88.823-15.518-124.363-44.877-33.983-28.073-55-67.699-59.179-111.58-4.179-43.881 8.98-86.763 37.054-120.746 39.799-48.179 107.558-64.251 164.779-39.086a7.73 7.73 0 0 0 6.223-14.151c-63.52-27.934-138.74-10.091-182.921 43.392-30.704 37.167-45.095 84.066-40.525 132.057 4.571 47.992 27.558 91.331 64.724 122.034 38.344 31.676 84.752 48.419 134.209 48.418 6.76 0 13.623-.327 20.399-.972 56.188-5.351 106.928-32.263 142.874-75.776 42.501-51.449 62.422-116.369 56.095-182.801z"/><path d="M469.802 316.567l-11.708-5.854c3.657-17.08 5.081-34.716 4.14-52.55-.23-4.351-4.082-7.614-8.422-7.216-4.106.377-7.233 3.912-7.016 8.03 2.443 46.359-12.352 91.287-42.1 127.298-9.56 11.573-20.637 21.444-32.852 29.431-.282.16-.553.333-.808.523-19.41 12.509-41.661 20.285-65.31 22.537-38.919 3.704-76.955-7.966-107.1-32.866-23.796-19.658-38.512-47.405-41.438-78.13-2.926-30.726 6.288-60.753 25.946-84.548 15.463-18.719 37.29-30.295 61.459-32.596 24.174-2.299 47.79 4.947 66.508 20.409 30.255 24.993 34.536 69.942 9.543 100.197-9.423 11.406-22.724 18.461-37.452 19.864-14.728 1.403-29.121-3.014-40.528-12.437-18.181-15.019-20.753-42.028-5.734-60.208 13.033-15.775 37.884-16.166 51.241 1.048 6.734 8.679 5.445 20.751-1.801 29.008a7.73 7.73 0 1 0 11.766 10.025c13.038-15.783 11.909-38.666-1.889-53.127l10.664-10.664a7.729 7.729 0 0 0 0-10.931 7.729 7.729 0 0 0-10.931 0l-12.386 12.386c-17.992-8.975-40.109-5.816-54.847 8.391l-12.532-12.532a7.729 7.729 0 0 0-10.931 0 7.729 7.729 0 0 0 0 10.931l13.983 13.983c-13.686 24.107-8.539 55.357 13.554 73.608l.031.024-12.043 18.064c-2.154 3.23-1.522 7.703 1.453 10.202 3.484 2.925 8.889 2.155 11.409-1.626l12.113-18.168c15.954 8.131 34.164 9.732 50.906 5.161l6.088 12.176c2.01 4.02 7.177 5.472 10.998 3.104 3.349-2.075 4.588-6.499 2.829-10.018l-5.478-10.955a70.463 70.463 0 0 0 21.439-17.464c16.73-20.252 22.66-45.908 18.506-69.964l18.779-6.26a7.73 7.73 0 0 0-4.892-14.667l-17.87 5.957c-5.098-14.001-13.848-26.872-26.142-37.028-18.02-14.887-39.529-22.815-61.245-24.115v-11.687a7.73 7.73 0 0 0-15.46 0v11.878c-27.508 2.332-54.097 15.27-73.026 38.185-9.602 11.624-17.001 24.56-22.053 38.305l-9.168-4.583a7.73 7.73 0 0 0-6.913 13.827l11.572 5.786c-3.229 13.741-4.232 28.064-2.855 42.526 1.978 20.765 8.707 40.327 19.532 57.465l-13.767 13.767c-2.815 2.814-3.001 7.463-.411 10.488 2.891 3.375 8.198 3.588 11.342.443l11.983-11.983a132.32 132.32 0 0 0 18.303 18.403c22.712 18.762 49.476 30.727 77.841 35.15l-5.493 16.481c-1.28 3.842.72 8.133 4.482 9.628 4.073 1.618 8.8-.587 10.185-4.739l6.568-19.706c3.054.172 6.118.268 9.194.268 5.186 0 10.405-.247 15.634-.745 23.392-2.227 45.544-9.344 65.32-20.72l4.468 8.935c2.01 4.02 7.177 5.472 10.998 3.104 3.349-2.075 4.589-6.499 2.829-10.018l-5.21-10.42c11.418-8.138 21.849-17.818 31.017-28.916 17.337-20.986 29.979-44.77 37.556-70.085l8.718 4.359a7.734 7.734 0 0 0 10.371-3.457 7.73 7.73 0 0 0-3.457-10.372z"/></svg>