<svg xmlns="http://www.w3.org/2000/svg" viewBox="0 0 511.999 511.999"><path d="M511.877 171.641a7.515 7.515 0 0 0-4.033-8.066c-25.45-12.723-50.59-9.083-65.311-4.855l4.818-26.507c.927-5.097-3.689-9.681-8.779-8.73-29.103 5.459-49.497 19.454-62.932 32.735l3.556-16.601c1.105-5.155-3.549-9.935-8.733-8.961a92.653 92.653 0 0 0-15.543 4.349c.035-8.489-1.13-16.974-3.523-25.35-1.447-5.064-7.796-7.104-11.919-3.803l-13.258 10.606c5.87-17.956 9.265-42.457 1.13-70.928-1.422-4.974-7.589-7.057-11.734-3.947l-21.553 16.165c-2.805-15.057-10.794-39.171-33.556-56.242a7.515 7.515 0 0 0-9.018 0c-22.76 17.07-30.751 41.184-33.555 56.243l-21.553-16.165c-4.145-3.11-10.313-1.026-11.734 3.947-8.135 28.472-4.738 52.971 1.13 70.928l-13.258-10.606c-4.124-3.299-10.472-1.261-11.919 3.803-2.393 8.374-3.558 16.859-3.523 25.345a92.504 92.504 0 0 0-15.543-4.344c-5.184-.973-9.838 3.803-8.733 8.961l3.556 16.601c-13.435-13.281-33.829-27.276-62.932-32.735-5.089-.956-9.705 3.636-8.779 8.73l4.818 26.507c-14.722-4.227-39.864-7.866-65.311 4.856a7.513 7.513 0 0 0-4.033 8.066c5.088 27.992 23.082 45.924 35.296 55.167l-24.097 12.047c-4.627 2.314-5.538 8.758-1.718 12.261 21.827 20.01 45.257 27.93 63.943 30.712l-15.415 7.114c-4.785 2.208-5.821 8.794-1.93 12.362 19.141 17.548 44.01 25.816 71.904 23.919 3.034-.206 5.949-.522 8.714-.912l-16.332 16.33c-3.813 3.813-2.336 10.504 2.715 12.365 12.885 4.748 24.942 6.692 36.052 6.692 17.95 0 33.412-5.085 45.894-11.621l-20.722 155.413c-.534 4.003 2.32 7.818 6.316 8.42 4.101.618 8.032-2.315 8.581-6.435l7.68-57.603h73.043a7.516 7.516 0 0 0 0-15.03h-71.039l5.478-41.08h83.03l15.162 113.713c.548 4.111 4.481 7.064 8.581 6.435 3.994-.613 6.85-4.411 6.316-8.42l-20.72-155.403c12.414 6.495 27.898 11.601 45.911 11.601 11.096 0 23.153-1.94 36.034-6.685 5.051-1.861 6.529-8.552 2.715-12.365l-16.332-16.33c2.765.39 5.68.705 8.714.912 27.898 1.903 52.764-6.37 71.904-23.919 3.893-3.568 2.856-10.154-1.93-12.362l-15.416-7.114c18.683-2.782 42.12-10.705 63.944-30.712 3.82-3.502 2.909-9.947-1.718-12.261l-24.097-12.047c12.215-9.243 30.21-27.175 35.296-55.166zm-158.658-19.527a74.196 74.196 0 0 1 8.719-3.685l-8.062 37.635-17.96 5.987a121.175 121.175 0 0 0 4.713-7.386c6.221-10.576 10.429-21.506 12.59-32.551zm-194.438.003c2.161 11.045 6.368 21.973 12.59 32.547a122.464 122.464 0 0 0 4.713 7.386l-17.96-5.987-8.063-37.635c3 1.047 5.908 2.285 8.72 3.689zM207.68 329.1c-21.353 14.403-44.07 18.862-67.7 13.303l26.983-26.981c2.563-2.563 2.909-6.716.809-9.669-2.037-2.866-5.913-3.939-9.134-2.53-.488.213-45.527 19.393-83.094-5.766l35.486-16.375c3.433-1.584 5.175-5.612 3.981-9.199-1.195-3.588-5.005-5.764-8.703-4.972-.43.092-40.464 8.223-77.966-19.763l25.549-12.773c5.422-2.71 5.413-10.701.018-13.434-.308-.156-29.123-15.082-37.702-46.299 30.121-11.864 59.351 2.235 59.643 2.38 5.433 2.716 11.84-2.095 10.754-8.065l-5.11-28.113c44.563 13.036 61.829 48.914 62.586 50.534.063.135.135.263.204.394-.004.311.01.622.044.935 2.049 18.444 7.976 33.476 16.162 45.687l-38.715-19.36-6.496-35.736a7.516 7.516 0 0 0-14.787 2.687l4.48 24.645-22.404-11.203a7.516 7.516 0 0 0-6.722 13.444l22.404 11.203-22.405 11.201c-3.427 1.713-5.03 5.871-3.644 9.442 1.579 4.067 6.457 5.955 10.365 4.001l32.486-16.242 54.889 27.449-22.405 11.201c-3.427 1.713-5.03 5.871-3.644 9.442 1.579 4.067 6.458 5.955 10.365 4.001l32.487-16.242 27.222 13.613-6.286 47.16zm8.809 47.637l5.478-41.08h68.067l5.478 41.08h-79.023zm7.483-56.111l4.925-36.946c10.942 2.804 20.585 3.882 27.104 3.882s16.161-1.077 27.104-3.882l4.927 36.946h-64.06zm39.542-48.525v-60.437l29.057-21.793a7.515 7.515 0 0 0-9.018-12.024l-20.039 15.029v-61.37l29.057-21.793a7.515 7.515 0 0 0-9.018-12.024l-20.039 15.029V87.672a7.516 7.516 0 0 0-15.03 0v25.049l-20.039-15.029a7.516 7.516 0 0 0-9.018 12.024l29.057 21.793v61.37l-20.039-15.029a7.516 7.516 0 0 0-9.018 12.024l29.057 21.793v60.437c-25.369-2.651-74.995-18.389-87.153-69.126l36.182 12.061a7.516 7.516 0 0 0 7.187-12.902c-.409-.34-37.707-32.045-32.007-76.898l30.519 24.415c2.952 2.363 7.334 2.119 10.008-.554s2.916-7.056.554-10.008c-.275-.345-25.453-32.514-17.196-78.572l22.851 17.137c4.854 3.64 11.992.049 12.023-5.993.002-.345.464-32.793 24.548-54.429 24.084 21.635 24.546 54.083 24.548 54.41 0 6.064 7.162 9.661 12.023 6.012l22.859-17.144c8.272 45.688-16.095 77.178-17.205 78.579-2.34 2.925-2.094 7.359.554 10.008 2.649 2.649 7.083 2.896 10.008.554l30.537-24.429c2.248 17.262-1.569 34.505-11.405 51.407-9.159 15.738-20.376 25.299-20.627 25.512-2.736 2.286-3.482 6.309-1.746 9.424 1.736 3.118 5.555 4.601 8.94 3.472l36.182-12.061c-12.158 50.734-61.785 66.471-87.154 69.122zm194.597-51.168c-5.431 2.715-5.43 10.727 0 13.443l25.558 12.777c-37.164 27.832-76.228 20.121-77.976 19.758a7.515 7.515 0 0 0-4.722 14.171l35.507 16.385c-14.433 9.731-31.565 14.032-51.079 12.792-18.287-1.16-31.913-6.982-32.035-7.035-3.222-1.41-7.097-.336-9.134 2.53-2.099 2.953-1.754 7.106.809 9.669l26.983 26.98c-23.618 5.553-46.337 1.095-67.698-13.302l-6.288-47.161 27.222-13.613 32.487 16.242c3.915 1.956 8.777.063 10.365-4.001 1.394-3.567-.222-7.731-3.644-9.442l-22.405-11.201 54.889-27.449 32.486 16.242c3.915 1.956 8.777.063 10.365-4.001 1.394-3.567-.222-7.731-3.644-9.442l-22.405-11.201 22.404-11.203a7.517 7.517 0 0 0-6.722-13.444L407.03 210.63l4.48-24.645c.732-4.03-2.021-8.004-6.05-8.737-4.029-.733-8.005 2.02-8.737 6.05l-6.496 35.736-38.715 19.36c8.186-12.21 14.112-27.243 16.162-45.687.035-.313.049-.625.044-.935.07-.13.142-.258.204-.394.184-.4 17.697-37.307 62.584-50.523l-5.108 28.102c-1.086 5.97 5.321 10.781 10.754 8.065.308-.154 29.356-14.35 59.644-2.383-8.578 31.221-37.395 46.147-37.685 46.294z"/></svg>