<svg xmlns="http://www.w3.org/2000/svg" viewBox="0 0 512.001 512.001"><circle cx="304.154" cy="55.609" r="7.515"/><circle cx="456.953" cy="47.593" r="7.515"/><path d="M497.232 120.935l-7.814-.728 1.022-17.369 5.954-.687a7.515 7.515 0 1 0-1.722-14.931l-3.336.385 4.685-79.649C496.27 3.7 492.778 0 488.518 0h-57.78c-4.129 0-7.568 3.484-7.514 7.613l.615 47.204c-.027.028-.057.052-.084.08-18.825 19.733-47.843 49.378-82.036 81.701l-1.166-23.584 1.926-.148a7.513 7.513 0 0 0 6.912-8.071 7.496 7.496 0 0 0-8.072-6.914l-1.51.116-.851-17.187 7.2-1.906a7.513 7.513 0 0 0 5.341-9.187 7.517 7.517 0 0 0-9.187-5.342l-4.114 1.089-2.489-50.305a7.515 7.515 0 0 0-7.506-7.144h-56.11c-4.259 0-7.752 3.701-7.502 7.956l2.001 34.015C221.962 73.304 149.605 114.44 97.457 160.52a7.493 7.493 0 0 0-3.769.081l-56.11 16.031c-1.679.481-3.125 1.548-4.129 2.97-23.348 33.376-30.711 63.843-21.884 90.556 9.503 28.756 35.62 44.335 49.64 49.042 23.08 8.381 44.549 11.389 63.481 11.389 19.977 0 37.132-3.351 50.352-7.267 27.828-8.245 44.516-20.529 45.433-21.213 1.339-.937 2.3-2.446 2.75-3.998l14.971-52.401c17.472-13.34 35.977-28.446 55.353-45.185l43.486 97.845 15.666 78.328-9.608 127.222c-.325 4.298 3.185 8.081 7.494 8.081h49.764a7.514 7.514 0 0 0 7.495-6.98l8.016-112.219a7.501 7.501 0 0 0-.102-1.88l-15.553-85.546 53.984-98.155a7.514 7.514 0 1 0-13.169-7.242l-55.271 100.493a7.516 7.516 0 0 0-.81 4.966l15.861 87.238-7.449 104.294h-34.664l9.076-120.17a7.508 7.508 0 0 0-.124-2.04l-16.031-80.157a7.472 7.472 0 0 0-.502-1.578l-63.57-143.034-1.926-32.734 39.954-3.087 1.483 29.981c.04.797.205 1.582.492 2.327l40.078 104.203a7.513 7.513 0 0 0 6.607 4.805 7.499 7.499 0 0 0 7.088-4.064l57.78-112.219a7.501 7.501 0 0 0 .833-3.538l-.065-4.986 33.703 3.142-.46 7.822-16.832 30.603a7.515 7.515 0 1 0 13.169 7.242l17.649-32.09a7.512 7.512 0 0 0 .918-3.18l.53-9.003 7.302.68a7.516 7.516 0 0 0 8.18-6.784 7.513 7.513 0 0 0-6.785-8.176zm-176.179-97.89l2.294 46.351-39.933 10.571-3.349-56.921h40.988zM88.237 189.987v12.985l-7.875-4.5a264.014 264.014 0 0 1 7.875-8.485zm-12.551-8.611a266.97 266.97 0 0 0-8.639 9.487l-8.19-4.679 16.829-4.808zM55.183 299.962c-10.929-6.324-23.756-17.596-29.348-34.518-6.789-20.547-1.36-44.61 16.135-71.598l41.455 23.688c-10.989 12.294-29.715 39.681-28.242 82.428zm35.171 12.001c53.146-18.785 76.737-47.431 86.519-64.288L205.7 293.8c-15.075 8.983-58.391 30.19-115.346 18.163zm100.495-70.284l23.177 3.31a709.234 709.234 0 0 1-14.617 10.385l-8.56-13.695zm22.554 36.087l-6.022-9.634a710.252 710.252 0 0 0 10.983-7.733l-4.961 17.367zm73.759-91.604c-19.672 17.102-38.429 32.504-56.109 46.077l-54.011-7.716c-3.684-.491-7.325 1.737-8.358 5.365-.144.503-14.903 48.947-98.326 72.663-1.26-21.329 2.949-40.904 12.57-58.294 8.184-14.794 17.448-22.41 17.519-22.468 1.764-1.397 2.819-3.621 2.819-5.867v-40.453c48.805-44.412 118.749-84.911 164.298-109.01l1.025 17.433-7.012 1.857a7.512 7.512 0 0 0-5.341 9.187 7.518 7.518 0 0 0 9.187 5.343l4.067-1.076.247 4.21-6.236.482a7.513 7.513 0 0 0-6.912 8.071 7.515 7.515 0 0 0 8.072 6.914l5.961-.46 1.989 33.82c.053.901.269 1.785.635 2.61l13.916 31.312zm-2.437-83.91l-.411-6.977 39.792-10.533.713 14.413-40.094 3.097zm90.899 127.385l-29.456-76.586c31.032-29.104 58.189-56.409 77.95-76.839l.249 19.119-7.848.906a7.515 7.515 0 0 0-6.604 8.327 7.514 7.514 0 0 0 8.326 6.604l6.323-.729.048 3.727-6.201-.578c-4.128-.377-7.794 2.652-8.18 6.784a7.514 7.514 0 0 0 6.784 8.18l7.794.726.061 4.711-49.246 95.648zm98.82-110.826l-34.783-3.242-.089-6.862 35.709-4.12-.837 14.224zm1.732-29.457L439.374 93.6l-1.022-78.57h42.196l-4.372 74.324z"/></svg>