<svg xmlns="http://www.w3.org/2000/svg" viewBox="0 0 512 512"><path d="M480.112 252.194a7.546 7.546 0 0 0-10.466-2.096 7.548 7.548 0 0 0-2.097 10.466c26.684 40.055 35.246 72.78 25.451 97.267-11.882 29.704-38.197 67.087-76.423 82.921-25.24 10.455-51.713 9.895-78.685-1.664-23.079-9.891-62.984-34.711-101.301-68.316l19.028-79.285a7.519 7.519 0 0 0 1.59-1.207l70.108-70.109c.255-.255.48-.527.69-.807l83.557-20.053a23.791 23.791 0 0 0 4.91-1.784c10.895 11.706 20.45 22.654 29.084 33.334 2.763 3.42 8.009 3.71 11.15.645 2.749-2.682 3-7.153.588-10.136-8.942-11.062-18.83-22.383-30.102-34.479a23.472 23.472 0 0 0 1.848-16.094c-1.473-6.143-5.251-11.344-10.637-14.645s-11.737-4.308-17.878-2.833l-8.364 2.008 13.522-13.522a7.629 7.629 0 0 0 2.064-3.857l17.079-85.392c1.038-5.192-3.69-9.917-8.881-8.881l-85.394 17.079a7.688 7.688 0 0 0-3.891 2.097L304.453 85.06a23.506 23.506 0 0 0-3.493-12.189 23.49 23.49 0 0 0-14.643-10.638c-11.726-2.818-23.553 3.689-27.667 14.721-22.238-.165-43.974 6.982-64.656 21.301-48.964 33.898-72.153 74.65-69.025 121.197l-9.081 2.18a23.493 23.493 0 0 0-14.645 10.638c-5.644 9.207-4.213 21.431 3.429 29.071 4.489 4.49 10.412 6.916 16.558 6.943L2.211 387.304a7.546 7.546 0 0 0 0 10.673l68.313 68.313c2.907 2.906 7.768 2.906 10.674 0l110.299-110.299-2.005 8.355c-2.612 10.883 2.977 22.387 13.174 27.034a23.757 23.757 0 0 0 9.822 2.136c6.92 0 13.42-3.076 17.857-8.179 38.444 33.077 78.178 57.585 101.602 67.623 22.32 9.566 46.933 13.098 70.814 7.905 6.701-1.457 13.26-3.545 19.595-6.17 42.558-17.629 71.64-58.702 84.663-91.262 11.747-29.374 2.695-66.801-26.907-111.239zm-217.873 11.708l7.322-30.51 30.51-7.322-37.832 37.832zM407.804 60.697l-13.376 66.888-16.129-3.225-4.707-23.529a7.545 7.545 0 0 0-5.921-5.92l-23.529-4.706-3.226-16.129 66.888-13.379zM298.643 112.22L327.4 83.463l2.927 14.635a7.546 7.546 0 0 0 5.921 5.92l23.529 4.706 4.707 23.53a7.545 7.545 0 0 0 5.921 5.92l14.634 2.926-20.595 20.594c-.116.116-.218.239-.325.36l-82.17 19.721 16.694-69.555zm-26.161-28.987c1.101-4.587 5.725-7.423 10.315-6.322 4.53 1.086 7.41 5.776 6.32 10.314l-23.64 98.506-18.67 4.48 25.675-106.978zm-69.895 27.433c17.152-11.875 34.306-17.979 52.245-18.576l-13.45 56.042-57.001 57.002c-.024.024-.044.051-.068.076l-44.42 10.661c-1.662-39.864 19.391-75.227 62.694-105.205zm32.054 65.557l-4.306 17.942-17.942 4.306 22.248-22.248zm-119.294 74.444c-4.642-4.642-2.292-12.832 4.064-14.358l284.639-68.313c4.537-1.089 9.227 1.792 10.313 6.322 1.088 4.539-1.79 9.226-6.321 10.314l-284.638 68.313a8.505 8.505 0 0 1-8.057-2.278zm82.891 77.234L75.86 450.28l-57.638-57.64 130.169-130.169 69.558-16.694-19.711 82.124zm22.566 43.961c-1.1 4.587-5.724 7.424-10.314 6.323-4.54-1.089-7.411-5.776-6.321-10.314l30.251-126.046 18.668-4.48-32.284 134.517z"/><circle cx="361.278" cy="420.512" r="7.548"/><circle cx="345.177" cy="314.846" r="7.548"/><circle cx="354.234" cy="251.446" r="7.548"/><circle cx="402.538" cy="307.802" r="7.548"/><circle cx="449.837" cy="347.049" r="7.548"/><circle cx="433.735" cy="396.36" r="7.548"/><circle cx="386.437" cy="372.208" r="7.548"/><circle cx="281.777" cy="291.7" r="7.548"/><circle cx="273.726" cy="340.005" r="7.548"/><circle cx="329.075" cy="371.202" r="7.548"/></svg>