<svg xmlns="http://www.w3.org/2000/svg" viewBox="0 0 512.001 512.001"><path d="M372.487 152.5h28.929a7.574 7.574 0 0 0 7.574-7.574c0-32.599-16.164-63.125-45.515-85.953-10.217-7.947-21.622-14.619-33.887-19.93 1.991-5.863 6.287-15.058 14.645-20.09 7.85-4.725 18.128-5.023 30.553-.882A7.574 7.574 0 0 0 379.575 3.7c-16.819-5.607-31.339-4.84-43.156 2.275-12.104 7.288-18.158 19.511-21.003 27.667-18.563-6.155-38.68-9.392-59.417-9.392s-40.853 3.238-59.417 9.392c-2.844-8.157-8.898-20.379-21.002-27.667-11.819-7.114-26.337-7.881-43.156-2.275a7.574 7.574 0 0 0 4.789 14.371c12.384-4.127 22.636-3.846 30.475.834 8.437 5.038 12.742 14.252 14.731 20.134-12.269 5.312-23.675 11.985-33.895 19.934-29.351 22.828-45.515 53.353-45.515 85.953a7.574 7.574 0 0 0 7.574 7.574h28.929c-8.441 8.151-15.77 19.514-21.782 33.945-10.169 24.405-14.72 53.537-14.72 71.582 0 5.197 5.363 8.916 10.233 7.091l45.349-17.006-30.394 54.709c-3.021 5.438 1.738 12.167 7.866 11.149l32.736-5.456-24.4 42.7c-2.837 4.964.877 11.331 6.576 11.331h24.937c.634 13.798 3.298 41.987 14.372 57.827l-45.885 80.32c-1.785 3.124-1.072 7.191 1.668 9.523 2.825 2.403 7.103 2.377 9.896-.066l55.991-48.993c13.075 6.867 28.182 10.473 44.044 10.473 15.861 0 30.969-3.606 44.044-10.473l55.991 48.993c2.916 2.551 7.429 2.448 10.228-.231 2.48-2.374 3.039-6.245 1.336-9.225l-45.885-80.32c11.075-15.84 13.738-44.029 14.372-57.827h24.937c5.699 0 9.413-6.367 6.576-11.331l-24.4-42.7 32.736 5.456c6.127 1.02 10.887-5.711 7.866-11.149l-30.394-54.709 45.349 17.006c4.869 1.829 10.233-1.896 10.233-7.091 0-18.045-4.551-47.176-14.72-71.582-6.011-14.432-13.339-25.796-21.781-33.946zm-33.04 74.199c-6.447-2.419-12.629 4.742-9.279 10.77l32.765 58.977-32.978-5.497c-6.167-1.027-10.927 5.792-7.821 11.228l25.84 45.219H328.71a7.576 7.576 0 0 0-7.574 7.571c-.009 12.62-2.532 47.869-13.939 59.277a7.572 7.572 0 0 0-1.221 9.112l26.112 45.709-26.114-22.85a7.575 7.575 0 0 0-8.948-.755c-11.751 7.211-25.937 11.022-41.023 11.022-15.087 0-29.272-3.811-41.023-11.022a7.571 7.571 0 0 0-8.948.755l-26.114 22.85 26.112-45.709a7.572 7.572 0 0 0-1.221-9.112c-11.407-11.407-13.93-46.657-13.939-59.274a7.574 7.574 0 0 0-7.574-7.574h-19.264l25.84-45.219c3.106-5.437-1.655-12.259-7.821-11.228l-32.978 5.497 32.765-58.977c3.35-6.028-2.832-13.185-9.279-10.77L118.74 246.88c3.027-32.878 18.404-94.382 56.478-94.382h126.734a7.574 7.574 0 0 0 0-15.148H118.51c5.088-54.666 64.811-97.952 137.49-97.952s132.403 43.286 137.491 97.954h-56.704a7.574 7.574 0 0 0 0 15.148c38.074 0 53.45 61.504 56.478 94.382l-53.818-20.183z"/><circle cx="280.744" cy="64.649" r="7.574"/><circle cx="231.262" cy="64.649" r="7.574"/><path d="M320.444 168.636a7.574 7.574 0 0 0-7.574-7.555h-.02a7.573 7.573 0 0 0-7.554 7.593c.027 10.783-.079 25.088-.552 41.386h-97.486a1314.309 1314.309 0 0 1-.553-40.881 7.574 7.574 0 0 0-7.558-7.59h-.017a7.574 7.574 0 0 0-7.574 7.558c-.025 11.835.11 27.854.709 46.103a7.577 7.577 0 0 0-.389 2.384c0 1.024.206 1.998.574 2.89 1.07 28.921 3.325 62.759 7.903 94.283 10.007 68.909 27.609 105.591 53.811 112.141a7.611 7.611 0 0 0 3.674 0c26.255-6.564 43.876-43.383 53.872-112.563 4.537-31.4 6.777-65.047 7.843-93.863a7.54 7.54 0 0 0 .184-5.27 1332 1332 0 0 0 .707-46.616zM256 411.692c-15.062-5.449-27.636-31.084-36.23-73.382h72.457c-8.592 42.297-21.163 67.932-36.227 73.382zm40.718-99.474a518.181 518.181 0 0 1-1.7 10.943h-78.036a506.203 506.203 0 0 1-1.638-10.531c-1.47-10.122-2.694-20.496-3.716-30.872h88.748c-1.009 10.235-2.215 20.468-3.658 30.46zm5.01-45.607h-91.454c-1.148-14.255-1.941-28.271-2.483-41.403h96.42c-.543 13.138-1.334 27.151-2.483 41.403z"/></svg>