<svg xmlns="http://www.w3.org/2000/svg" viewBox="0 0 512 512"><path d="M463.861 220.401C461.965 107.388 369.458 16.031 256 16.031S50.035 107.388 48.139 220.401C20.148 230.153 0 256.792 0 288.063c0 39.502 32.138 71.64 71.64 71.64a71.3 71.3 0 0 0 23.476-3.971 207.848 207.848 0 0 0 89.446 63.505 72.127 72.127 0 0 0-.201 5.092c0 39.502 32.138 71.64 71.64 71.64s71.64-32.138 71.64-71.64c0-1.69-.06-3.375-.177-5.052 34.503-12.582 65.334-34.281 89.341-63.573a71.283 71.283 0 0 0 23.556 3.998c39.502 0 71.64-32.138 71.64-71.64-.001-31.27-20.149-57.909-48.14-67.661zm-5.47 51.026c4.042 4.378 6.517 10.222 6.517 16.635 0 12.225-8.984 22.389-20.695 24.243a207.39 207.39 0 0 0 14.178-40.878zm-29.604 38.277c-7.716-4.142-12.975-12.288-12.975-21.641 0-13.535 11.013-24.548 24.548-24.548 1.477 0 2.921.138 4.325.39a192.3 192.3 0 0 1-15.898 45.799zM71.64 344.673c-31.215 0-56.611-25.396-56.611-56.611s25.396-56.611 56.611-56.611c.419 0 .833.022 1.249.032a185.25 185.25 0 0 0-.748 16.5c0 .171.005.343.006.514-.169-.002-.337-.013-.507-.013-21.823 0-39.577 17.755-39.577 39.577S49.817 327.64 71.64 327.64c1.339 0 2.661-.068 3.966-.199a207.385 207.385 0 0 0 9.837 15.522 56.458 56.458 0 0 1-13.803 1.71zm-4.367-80.762a24.654 24.654 0 0 1 4.367-.397c.388 0 .774.011 1.157.029a182.51 182.51 0 0 0 9.008 43.383 192.095 192.095 0 0 1-14.532-43.015zm.453 48.384c-11.682-1.881-20.634-12.029-20.634-24.232 0-6.387 2.455-12.212 6.468-16.583a207.005 207.005 0 0 0 14.166 40.815zm32.057 24.856a192.052 192.052 0 0 1-9.403-14.238c12.395-6.692 20.838-19.803 20.838-34.85 0-16.297-9.903-30.32-24.006-36.38a175.136 175.136 0 0 1-.041-3.698c0-4.775.21-9.502.601-14.178 23.379 6.964 40.479 28.645 40.479 54.256-.001 20.975-11.475 39.307-28.468 49.088zm-11.139-66.768c4.645 4.469 7.544 10.74 7.544 17.68 0 3.209-.625 6.274-1.75 9.087a167.255 167.255 0 0 1-5.794-26.767zm236.132 133.858a71.29 71.29 0 0 0-8.215-18.197 7.514 7.514 0 1 0-12.698 8.04 56.232 56.232 0 0 1 6.647 14.952 192.124 192.124 0 0 1-16.567 4.06c-4.852-16.368-20.021-28.345-37.943-28.345-21.823 0-39.577 17.755-39.577 39.577 0 21.823 17.755 39.577 39.577 39.577 20.544 0 37.478-15.737 39.392-35.789a207.539 207.539 0 0 0 17.215-4.051c0 .087.005.174.005.262 0 31.215-25.396 56.611-56.611 56.611-31.215 0-56.612-25.396-56.612-56.611 0-31.215 25.396-56.611 56.611-56.611a56.528 56.528 0 0 1 18.442 3.069 7.515 7.515 0 0 0 4.894-14.21A71.512 71.512 0 0 0 256 352.686c-31.877 0-58.946 20.933-68.214 49.77-28.382-12.587-53.266-33.216-70.947-58.866 16.122-13.148 26.441-33.154 26.441-55.53 0-33.261-22.786-61.297-53.568-69.326C103.603 139.535 172.881 79.155 256 79.155c46.654 0 91.67 19.58 123.503 53.718a7.516 7.516 0 0 0 10.993-10.249c-17.031-18.265-37.191-32.645-59.919-42.742C307.044 69.427 281.953 64.125 256 64.125c-90.649 0-166.177 65.945-181.152 152.379a72.637 72.637 0 0 0-3.208-.081c-2.835 0-5.626.184-8.375.506C66.968 113.811 151.995 31.061 256 31.061s189.032 82.751 192.735 185.868a71.92 71.92 0 0 0-8.375-.506c-39.502 0-71.64 32.138-71.64 71.64 0 25.734 13.646 48.334 34.075 60.968-21.328 25.043-48.136 43.841-78.019 55.21zM256 431.843c8.001 0 15.931-.451 23.759-1.337-2.746 10.555-12.357 18.37-23.759 18.37-11.406 0-21.019-7.82-23.762-18.38A210.528 210.528 0 0 0 256 431.843zm-22.812-16.566c3.611-9.067 12.472-15.496 22.812-15.496 10.411 0 19.324 6.519 22.886 15.687A195.762 195.762 0 0 1 256 416.815a171.22 171.22 0 0 1-22.812-1.538zm207.172-70.604c-31.215 0-56.611-25.396-56.611-56.611s25.396-56.611 56.611-56.611c2.828 0 5.606.214 8.323.617a193.19 193.19 0 0 1-1.475 17.021 39.638 39.638 0 0 0-6.848-.605c-21.823 0-39.577 17.755-39.577 39.577s17.755 39.577 39.577 39.577 39.577-17.755 39.577-39.577c0-14.006-7.321-26.328-18.331-33.364a208.76 208.76 0 0 0 1.921-18.269c19.692 8.871 33.443 28.67 33.443 51.633.001 31.217-25.395 56.612-56.61 56.612z"/></svg>