<svg xmlns="http://www.w3.org/2000/svg" viewBox="0 0 512 512"><path d="M468.415 47.092a7.515 7.515 0 1 0 0-15.03h-16.532V15.029h16.532a7.515 7.515 0 1 0 0-15.03H308.102a7.605 7.605 0 0 0-3.65.946L88.029 121.181a7.517 7.517 0 0 0-3.865 6.569v231.007L36.663 477.511a7.55 7.55 0 0 0-.592 2.928v24.047a7.515 7.515 0 1 0 15.03 0v-16.532h33.065v16.532a7.515 7.515 0 1 0 15.03 0v-16.532h33.065v16.532a7.515 7.515 0 1 0 15.03 0v-16.532h33.065v16.532a7.515 7.515 0 1 0 15.03 0v-16.532h33.065v16.532a7.515 7.515 0 1 0 15.03 0v-16.532h33.065v16.532a7.515 7.515 0 1 0 15.03 0v-16.532h33.065v16.532a7.515 7.515 0 1 0 15.03 0v-16.532h33.065v16.532a7.515 7.515 0 1 0 15.03 0v-16.532h33.065v16.532a7.515 7.515 0 1 0 15.03 0v-24.047c0-.996-.213-2.009-.592-2.929l-47.502-118.753V228.446a7.515 7.515 0 1 0-15.03 0v108.811l-87.16 7.263c-4.314-4.822-10.58-7.863-17.544-7.863-8.573 0-23.714 9.045-32.063 14.497-8.348-5.453-23.49-14.497-32.063-14.497-6.965 0-13.23 3.042-17.544 7.863l-87.16-7.262V132.171L305.217 17.714l11.501 20.448c-2.911 1.941-6.757 3.711-7.812 7.321-1.919 6.567 5.644 12.188 11.379 8.362l3.821-2.548 10.1 17.955c-2.058 1.372-4.137 2.717-6.177 4.118-4.069 2.793-4.574 8.795-.717 12.041 2.525 2.124 6.258 2.33 9.004.498l5.279-3.52 10.1 17.955-7.684 5.123c-3.14 2.094-4.246 6.343-2.51 9.699 2.03 3.922 7.165 5.262 10.847 2.806l6.736-4.491 13.644 24.252v54.642a7.515 7.515 0 1 0 15.03 0V143.28h80.658a7.515 7.515 0 1 0 0-15.03h-16.532v-17.033h16.532a7.515 7.515 0 1 0 0-15.03h-16.532V79.155h16.532a7.515 7.515 0 1 0 0-15.03h-16.532V47.092h16.531zM291.54 359.105l81.188-6.766v7.864c0 .956.182 1.903.537 2.792l7.976 19.94-89.764-20.714c.057-.665.092-1.337.092-2.016a25.072 25.072 0 0 0-.029-1.1zm-23.517-7.418c4.696 0 8.517 3.82 8.517 8.517 0 4.696-3.82 8.517-8.516 8.517-2.523-.019-9.982-3.597-18.186-8.518 8.2-4.921 15.658-8.497 18.185-8.516zm-64.126 0c2.523.019 9.982 3.597 18.186 8.518-8.2 4.921-15.657 8.497-18.185 8.516-4.696 0-8.517-3.82-8.517-8.517.001-4.697 3.821-8.517 8.516-8.517zm-17.245 24.525c4.303 4.632 10.441 7.538 17.247 7.538 5.536 0 13.814-3.773 21.231-7.915-4.646 18.047-12.881 37.79-23.609 41.365-3.735 1.245-5.906 5.304-4.873 9.102 1.116 4.109 5.586 6.503 9.627 5.157 14.299-4.766 23.501-21.711 29.174-37.824 4.268 9.423 11.133 18.109 22.182 21.793a7.515 7.515 0 1 0 4.754-14.259c-9.995-3.331-14.96-15.488-17.228-26.261 7.81 4.488 16.919 8.842 22.867 8.842 6.805 0 12.943-2.906 17.246-7.538l101.299 23.377c.47.108.94.159 1.405.177l29.265 73.159H54.685l29.263-73.158a7.555 7.555 0 0 0 1.405-.177l101.299-23.378zm-6.272-17.108c-.017.365-.028.73-.028 1.099 0 .679.035 1.351.092 2.016L90.68 382.934l7.976-19.94a7.497 7.497 0 0 0 .538-2.79v-7.864l81.186 6.764zM436.853 128.25h-52.215l-13.012-23.132 4.769-3.179a7.513 7.513 0 0 0 2.084-10.42 7.513 7.513 0 0 0-10.42-2.084l-3.821 2.548-10.1-17.954 6.226-4.151a7.513 7.513 0 0 0 2.084-10.42 7.513 7.513 0 0 0-10.42-2.084l-5.279 3.519-10.1-17.954 7.684-5.123a7.513 7.513 0 0 0 2.084-10.42 7.513 7.513 0 0 0-10.42-2.084l-6.736 4.491-8.309-14.772h115.902V128.25z"/></svg>