<svg xmlns="http://www.w3.org/2000/svg" viewBox="0 0 511.999 511.999"><path d="M475.783 377.529a7.514 7.514 0 0 0-10.083 3.361l-17.396 34.793-111.939-219.217a7.515 7.515 0 0 0-13.386 6.835L436.1 424.829H334.166l24.274-36.411a7.515 7.515 0 0 0-.73-9.265l-94.195-102.044V242.08l3.202 3.202c3.057 3.056 8.217 2.851 11.028-.431 2.518-2.941 2.337-7.461-.399-10.196l-10.718-10.718 10.718-10.718a7.515 7.515 0 0 0-10.628-10.627l-3.202 3.202V185.97l3.202 3.202c3.057 3.056 8.217 2.851 11.028-.431 2.518-2.941 2.337-7.461-.399-10.196l-10.718-10.718 10.718-10.718a7.515 7.515 0 0 0-10.628-10.627l-3.202 3.202V86.849l43.097 84.398c1.863 3.647 6.464 5.138 10.111 3.275 3.646-1.863 5.137-6.464 3.275-10.11L264.695 56.113l29.62-44.43a7.514 7.514 0 0 0-2.084-10.42 7.513 7.513 0 0 0-10.42 2.084L256 42.063 230.19 3.347a7.514 7.514 0 0 0-12.504 8.336l29.62 44.43L64.219 414.656l-17.735-41.381a7.514 7.514 0 1 0-13.814 5.92l24.047 56.109c1.177 2.739 3.976 4.554 6.951 4.554h128.207a7.516 7.516 0 0 0 6.926-4.599L256 299.411l57.17 135.778c1.126 2.794 3.964 4.67 6.965 4.67h128.209c2.814 0 5.492-1.632 6.753-4.154l24.047-48.094a7.517 7.517 0 0 0-3.361-10.082zm-227.296-99l-61.602 146.3H75.9l172.586-337.98v62.837l-3.202-3.202a7.515 7.515 0 0 0-10.628 10.627l10.718 10.718-10.718 10.718c-4.629 4.629-1.258 12.828 5.314 12.828a7.489 7.489 0 0 0 5.314-2.201l3.202-3.202v19.825l-3.202-3.202a7.515 7.515 0 0 0-10.628 10.627l10.718 10.718-10.718 10.718c-2.735 2.735-2.918 7.255-.399 10.196 2.81 3.282 7.971 3.487 11.027.431l3.202-3.202v36.446zm31.082 38.131l63.085 68.343-21.028 31.543-42.057-99.886z"/><path d="M315.47 481.733l-35.635-17.818c9.555-7.232 15.743-18.69 15.743-31.571 0-19.084-27.818-60.323-33.394-68.396-2.937-4.251-9.429-4.251-12.366 0-5.576 8.074-33.394 49.312-33.394 68.396 0 12.879 6.187 24.339 15.743 31.571l-35.636 17.818c-3.427 1.713-5.03 5.871-3.643 9.441 1.58 4.067 6.457 5.955 10.365 4.001l45.165-22.583-.265 31.83a7.515 7.515 0 0 0 7.453 7.577h.063a7.515 7.515 0 0 0 7.514-7.453l.267-32.023 45.3 22.65c3.915 1.957 8.777.062 10.365-4.001 1.392-3.565-.223-7.729-3.645-9.439zM256 456.891c-4.696 0-8.517-3.819-8.517-8.516.019-2.522 3.596-9.979 8.517-18.182 4.921 8.204 8.498 15.66 8.517 18.181 0 4.697-3.821 8.517-8.517 8.517zm6.182-44.85c-2.937-4.251-9.429-4.251-12.366 0-3.369 4.875-13.031 19.424-16.278 30.19a24.392 24.392 0 0 1-2.087-9.887c.001-9.377 13.26-33.024 24.548-50.561 11.688 18.183 24.549 41.595 24.549 50.561 0 3.517-.748 6.86-2.087 9.887-3.246-10.766-12.91-25.314-16.279-30.19z"/></svg>