<svg xmlns="http://www.w3.org/2000/svg" viewBox="0 0 512 512"><path d="M510.572 119.543c-7.103-35.519-35.735-54.331-95.738-62.903-6.091-.87-12.047-1.737-17.918-2.592-15.61-2.272-30.354-4.42-45.627-6.341a7.615 7.615 0 0 0-1.901 15.11c15.127 1.903 29.802 4.039 45.335 6.301 5.886.857 11.855 1.726 17.959 2.598 53.226 7.604 77.26 22.325 82.957 50.812 3.104 15.519-.333 29.103-9.678 38.251-14.432 14.128-41.728 17.609-76.862 9.801-35.345-7.853-110.24-2.883-182.669 1.926-75.491 5.012-161.053 10.692-180.578-1.022-13.136-7.882-23.268-19.857-27.797-32.854-5.188-14.889-3.1-30.811 6.042-46.047 6.362-10.603 26.811-24.751 88.102-31.937 43.728-5.126 94.394-5.033 124.662-4.979 28.485.052 53.923 1.192 80.055 3.589a7.616 7.616 0 0 0 1.392-15.167c-26.233-2.406-52.864-3.6-81.419-3.652-30.607-.053-81.837-.149-126.464 5.083-54.904 6.44-87.415 19.272-99.39 39.23-11.541 19.236-14.088 39.601-7.364 58.894 5.767 16.548 17.964 31.073 34.343 40.901.213.128.438.252.658.376C28.441 223.585 24.02 339.983 24.02 356.689c0 36.768 28.008 56.35 48.227 56.35 10.599.027 21.366-.144 31.381-4.062 13.443-5.259 21.901-15.662 25.142-30.92 5.62-26.463-6.724-136.815-14.329-184.522 22.063-.386 48.334-1.734 78.691-3.617-7.02 18.726-10.586 41.148-10.586 66.864 0 8.122-.602 18.152-1.299 29.764-2.859 47.646-7.181 119.648 27.308 163.261 11.118 14.058 27.988 21.766 46.68 21.766 4.209 0 8.513-.391 12.864-1.189 20.987-3.849 38.281-16.532 43.036-31.562 13.779-43.555.207-115.06-7.901-157.781-.72-3.798-1.613-9.647-2.647-16.42-3.358-21.984-8.281-54.211-16.462-80.499 43.614-2.469 83.684-3.702 109.637-.638-5.023 12.219-7.248 24.87-9.75 39.168-.63 3.595-1.28 7.312-1.997 11.138-7.092 37.854-7.092 60.5-7.092 98.016 0 21.018 3.918 42.1 10.751 57.841 11.31 26.054 27.253 31.523 38.637 31.523 17.381 0 32.372-5.163 43.353-14.931 13.244-11.782 19.959-29.323 19.959-52.138 0-46.391-8.055-91.281-15.16-130.885-2.15-11.985-4.181-23.305-5.818-33.79-.112-.718-.236-1.414-.355-2.119 12.324-2.841 22.589-8.073 30.323-15.644 13.149-12.871 18.106-31.382 13.959-52.12zM113.874 374.894c-4.519 21.285-21.419 22.983-39.84 22.921l-1.786-.004c-11.507 0-32.998-12.062-32.998-41.12 0-19.333 4.812-130.844 13.847-166.721 11.323 2.469 26.668 3.565 45.937 3.67 8.259 50.286 19.645 158.624 14.84 181.254zm171.659-107.973c1.1 7.203 1.968 12.892 2.74 16.96 7.841 41.311 20.963 110.455 8.344 150.349-3.054 9.653-15.91 18.36-31.264 21.176-8.656 1.588-30.347 3.296-44.85-15.044-30.885-39.054-26.773-107.565-24.052-152.9.712-11.857 1.326-22.097 1.326-30.677 0-26.991 4.125-49.819 12.245-67.936 5.678-.368 11.478-.749 17.415-1.143 13.676-.908 27.44-1.821 40.992-2.654 8.522 25.691 13.657 59.304 17.104 81.869zm186.86 87.18c0 45.105-30.125 51.84-48.082 51.84-21.381 0-34.158-37.694-34.158-74.135 0-36.635 0-58.747 6.832-95.211a962.114 962.114 0 0 0 2.029-11.318c2.567-14.668 4.81-27.47 10.183-39.104 15.342 3.147 29.46 4.243 42.022 3.344.131.747.261 1.493.381 2.259 1.664 10.656 3.709 22.058 5.875 34.129 6.992 38.981 14.918 83.161 14.918 128.196z"/><circle cx="341.928" cy="98.436" r="7.615"/><circle cx="407.416" cy="90.821" r="7.615"/><circle cx="455.135" cy="123.311" r="7.615"/><circle cx="406.4" cy="138.541" r="7.615"/><circle cx="261.21" cy="73.561" r="7.615"/><circle cx="178.97" cy="97.928" r="7.615"/><circle cx="49.01" cy="131.434" r="7.615"/><circle cx="147.495" cy="81.683" r="7.615"/><circle cx="122.112" cy="131.434" r="7.615"/><circle cx="220.598" cy="115.189" r="7.615"/><circle cx="293.7" cy="138.541" r="7.615"/><circle cx="82.515" cy="97.928" r="7.615"/></svg>