<svg xmlns="http://www.w3.org/2000/svg" viewBox="0 0 512 512"><path d="M496.385 231.861c1.169-6.252 2.541-17.21 1.081-29.62-2.896-24.612-15.491-43.629-36.497-55.189-4.678-12.995-25.387-59.968-84.768-75.943-6.849-7.733-32.37-32.158-76.866-26.083l-.636-.502c-6.435-5.084-19.825-15.663-42.7-15.663s-36.265 10.579-42.7 15.663l-.636.502c-44.5-6.077-70.018 18.351-76.866 26.083-59.38 15.974-80.089 62.947-84.768 75.943-21.005 11.562-33.601 30.577-36.497 55.189-1.46 12.41-.087 23.368 1.081 29.62C9.434 237.021 0 248.194 0 268.311c0 35.398 13.868 66.78 41.221 93.276 22.686 21.976 50.161 36.568 70.222 47.224 10.638 5.651 19.826 10.531 23.226 13.931 2.067 2.067 2.204 10.712 2.296 16.433.155 9.677.302 18.819 5.773 24.726 9.116 9.845 30.649 15.787 65.827 18.165 23.522 1.591 44.646.969 47.437.876 1.284.043 6.439.198 13.922.198 8.795 0 20.806-.214 33.515-1.074 35.178-2.378 56.711-8.32 65.827-18.165 5.471-5.907 5.617-15.049 5.773-24.726.091-5.721.23-14.366 2.296-16.433 3.4-3.4 12.588-8.28 23.226-13.931 20.061-10.656 47.535-25.248 70.222-47.224C498.132 335.092 512 303.709 512 268.311c0-20.117-9.434-31.29-15.615-36.45zM393.28 395.109c-12.701 6.746-21.876 11.62-26.919 16.662-6.508 6.508-6.677 17.005-6.838 27.155-.071 4.45-.204 12.732-1.643 14.433-2.44 2.634-11.082 8.53-40.5 11.886l111.21-251.722a7.757 7.757 0 0 0-3.962-10.231 7.756 7.756 0 0 0-10.231 3.962L299.752 466.755c-6.103.371-12.027.593-17.445.718l57.455-247.052a7.758 7.758 0 0 0-5.799-9.313 7.762 7.762 0 0 0-9.313 5.799l-58.302 250.698c-6.144-.04-9.975-.174-10.065-.177a8.716 8.716 0 0 0-.56 0c-.091.003-3.922.137-10.066.177l-19.815-85.203a7.754 7.754 0 0 0-9.313-5.799 7.757 7.757 0 0 0-5.799 9.313l18.967 81.558a464.423 464.423 0 0 1-17.445-.718L97.601 207.253c-1.709-3.866-6.364-5.669-10.231-3.962-3.866 1.708-5.669 6.364-3.961 10.231L194.62 465.244c-29.418-3.355-38.059-9.25-40.495-11.879-1.444-1.708-1.576-9.99-1.648-14.438-.162-10.15-.33-20.646-6.838-27.155-5.042-5.042-14.219-9.916-26.919-16.662-38.601-20.504-103.205-54.818-103.205-126.799 0-18.923 11.323-25.635 12.305-26.181 3.416-1.616 4.975-5.388 3.951-9.032-.595-2.117-14.066-52.11 29.104-73.695a7.803 7.803 0 0 0 3.984-4.787c.039-.135 4.093-13.758 15.68-29.028 15.347-20.224 36.036-33.705 61.496-40.07a7.865 7.865 0 0 0 4.303-2.842c.915-1.196 22.914-29.209 67.014-21.856 3.843.639 6.764-1.907 9.568-4.122 5.834-4.609 15.598-12.322 33.081-12.322s27.248 7.713 33.081 12.322c2.804 2.217 5.724 4.761 9.568 4.122 44.092-7.349 66.099 20.66 66.991 21.827a7.76 7.76 0 0 0 4.325 2.871c25.459 6.365 46.149 19.847 61.496 40.07 11.588 15.27 15.64 28.892 15.674 29.008a7.761 7.761 0 0 0 3.989 4.807c43.133 21.567 29.722 71.492 29.105 73.69a7.757 7.757 0 0 0 3.994 9.058c.123.062 12.261 6.676 12.261 26.161 0 71.98-64.604 106.294-103.205 126.797z"/><path d="M458.935 261.882a7.757 7.757 0 0 0-10.771 2.087l-81.023 119.984c-2.18 3.229-1.573 7.721 1.397 10.247 3.48 2.957 8.908 2.216 11.46-1.564l81.023-119.984a7.755 7.755 0 0 0-2.086-10.77zM357.054 111.809a7.758 7.758 0 0 0-9.313 5.799l-15.395 66.198c-.945 4.066 1.613 8.25 5.655 9.277 4.155 1.055 8.487-1.593 9.457-5.762l15.395-66.198a7.76 7.76 0 0 0-5.799-9.314zM298.2 86.828c-4.251-.449-8.082 2.626-8.54 6.888l-24.824 231.693c-.45 4.203 2.684 8.091 6.888 8.54 4.204.449 8.09-2.684 8.54-6.888l24.824-231.693a7.76 7.76 0 0 0-6.888-8.54zM144.858 383.953L63.834 263.97a7.755 7.755 0 0 0-10.77-2.087 7.758 7.758 0 0 0-2.087 10.771L132 392.638c2.552 3.779 7.98 4.521 11.459 1.564 2.973-2.527 3.58-7.019 1.399-10.249zm73.283-34.651l-53.882-231.693a7.757 7.757 0 0 0-9.313-5.799 7.757 7.757 0 0 0-5.799 9.313l53.882 231.693c.97 4.173 5.302 6.814 9.457 5.762 4.043-1.022 6.599-5.212 5.655-9.276zm29.024-23.893L222.34 93.716a7.759 7.759 0 0 0-15.428 1.652l24.824 231.693c.451 4.204 4.337 7.337 8.54 6.888 4.205-.45 7.339-4.339 6.889-8.54z"/></svg>