<svg xmlns="http://www.w3.org/2000/svg" viewBox="0 0 512 512"><path d="M510.246 91.248l-57.113-68.536a7.572 7.572 0 0 0-5.132-2.694l-62.826-5.712a7.66 7.66 0 0 0-3.304.436l-108.516 39.98a7.583 7.583 0 0 0-3.544 2.704l-57.113 79.96a7.57 7.57 0 0 0-1.23 2.758l-22.427 100.924-23.458 26.903a7.573 7.573 0 0 0 11.415 9.953l24.725-28.356a7.571 7.571 0 0 0 1.684-3.334l22.511-101.3 54.862-76.807 97.136-35.787 4.937 50.051-59.261 59.261-38.64 16.56c-3.593 1.54-5.452 5.717-4.181 9.416 1.412 4.107 6.149 6.216 10.147 4.505l31.401-13.458 15.304 76.52c.831 4.154 5.066 6.863 9.188 5.88 3.908-.932 6.451-4.911 5.663-8.849l-16.34-81.697 59.96-59.96a7.576 7.576 0 0 0 2.182-6.098l-5.351-54.25 50.581 4.598 52.788 63.345-20.507 102.534-26.08-6.83a7.549 7.549 0 0 0-.218-1.973l-11.422-45.691a7.57 7.57 0 0 0-9.183-5.51 7.572 7.572 0 0 0-5.51 9.183l9.923 39.694-12.081-3.164a7.572 7.572 0 1 0-3.837 14.651l49.739 13.026-63.734 63.734-140.876 39.443a7.605 7.605 0 0 0-2.269 1.066L130.44 408.188l-34.359-34.359 20.659-26.799 32.645-37.438a7.573 7.573 0 0 0-11.415-9.953l-32.795 37.611a7.55 7.55 0 0 0-.29.353l-19.792 25.674c-7.679-5.419-18.389-4.715-25.257 2.152a19.636 19.636 0 0 0-3.455 4.672c-7.291-3.396-16.239-2.112-22.246 3.895-5.043 5.043-6.75 12.159-5.167 18.628a19.662 19.662 0 0 0-6.256 4.217c-7.182 7.183-7.641 18.577-1.384 26.302L2.689 438.674c-3.37 2.808-3.609 8.07-.507 11.172l45.691 45.69c2.917 2.918 7.791 2.917 10.708 0l17.491-17.49.897.897c3.839 3.838 8.88 5.756 13.922 5.756 5.041 0 10.083-1.918 13.922-5.757a19.553 19.553 0 0 0 4.126-6.097c1.649.433 3.34.669 5.035.669a19.63 19.63 0 0 0 13.922-5.757c5.124-5.125 6.808-12.391 5.091-18.943a19.655 19.655 0 0 0 6.094-4.141 19.558 19.558 0 0 0 5.766-13.922c0-4.201-1.327-8.189-3.748-11.525L267.815 331.5l141.561-39.637a7.568 7.568 0 0 0 3.313-1.938l74.248-74.248a7.57 7.57 0 0 0 2.071-3.87L511.853 97.58a7.57 7.57 0 0 0-1.607-6.332zM53.228 479.472l-34.473-34.473 13.239-11.033 33.37 33.371-12.136 12.135zm40.877-11.24a4.548 4.548 0 0 1-6.425 0l-54.258-54.258c-1.671-1.671-1.76-4.443-.197-6.216 1.709-1.94 4.793-2.039 6.622-.209l54.258 54.258a4.549 4.549 0 0 1 0 6.425zm23.083-11.185a4.547 4.547 0 0 1-6.425 0l-65.919-65.919c-1.594-1.595-1.762-4.215-.378-5.998 1.652-2.127 4.899-2.331 6.803-.427l65.918 65.919a4.546 4.546 0 0 1 .001 6.425zm11.185-23.082c-1.751 1.751-4.674 1.75-6.424 0L70.544 382.56a4.547 4.547 0 0 1 .001-6.423 4.548 4.548 0 0 1 6.425 0l51.403 51.403c1.751 1.75 1.751 4.674 0 6.425z"/></svg>