<svg xmlns="http://www.w3.org/2000/svg" viewBox="0 0 511.999 511.999"><path d="M510.437 451.801l-54.533-70.114v-46.022h48.601c6.788 0 10.067-8.714 4.936-13.183l-114.746-99.94a7.514 7.514 0 0 0-10.603.732 7.515 7.515 0 0 0 .731 10.604l99.61 86.758h-24.915l-21.848-21.848a7.516 7.516 0 0 0-10.629 10.628l11.22 11.22h-18.825l-21.848-21.848a7.516 7.516 0 0 0-10.629 10.628l11.22 11.22h-27.175l-110.122-94.39a7.514 7.514 0 0 0-9.586-.162l-118.191 94.551h-19.302l11.22-11.22a7.516 7.516 0 0 0-10.629-10.628l-21.848 21.848H73.72l11.22-11.22a7.516 7.516 0 0 0-10.629-10.628l-21.848 21.848H27.548S184.655 183.732 184.95 183.351h142.939c.432.972 27.627 25.002 27.627 25.002 3.303 2.876 8.496 2.254 11.046-1.294 2.233-3.104 1.707-7.533-1.174-10.042l-15.692-13.666h18.526a7.515 7.515 0 0 0 4.891-13.221L263.506 76.18V55.584c0-4.151-3.364-7.516-7.516-7.516s-7.516 3.365-7.516 7.516v20.437l-117.429 93.943c-2.506 2.005-3.466 5.485-2.346 8.492 1.083 2.909 3.936 4.892 7.042 4.892h26.543L2.54 322.482c-5.131 4.469-1.852 13.183 4.936 13.183h48.601v46.022L1.544 451.802c-3.771 4.842-.189 12.129 5.936 12.129h497.022a7.572 7.572 0 0 0 5.963-2.95c2.053-2.671 2.047-6.517-.028-9.18zM157.165 168.317l98.66-78.927 92.082 78.927h-31.156l-5.939-11.879a7.514 7.514 0 0 0-10.084-3.361 7.516 7.516 0 0 0-3.361 10.083l2.578 5.157h-36.44V159.8c0-4.151-3.364-7.516-7.516-7.516s-7.516 3.365-7.516 7.516v8.518h-36.44l2.578-5.157a7.514 7.514 0 0 0-3.361-10.083 7.515 7.515 0 0 0-10.084 3.361l-5.939 11.879h-38.062zM56.077 448.899H22.842l33.235-42.729v42.729zm72.149 0H71.108V335.664h57.118v113.235zm184.383 0H199.374V335.664h113.235v113.235zm48.099.001H327.64V328.15a7.515 7.515 0 0 0-7.516-7.516H191.858a7.515 7.515 0 0 0-7.516 7.516V448.9h-41.085V331.761l112.568-90.055 104.882 89.899V448.9zm80.166-.001h-65.135V335.664h65.135v113.235zm15.03 0V406.17l33.235 42.729h-33.235z"/></svg>