<svg xmlns="http://www.w3.org/2000/svg" viewBox="0 0 512 512"><path d="M511.613 313.855l-24.095-72.284a7.537 7.537 0 0 0-2.186-3.286l-48.189-42.166a7.52 7.52 0 0 0-4.183-1.822l-259.605-26.855-24.311-21.705c20.844-27.689 27.814-52.445 20.718-73.66-11.095-33.17-52.252-43.811-53.999-44.248-3.316-.829-6.866.749-8.472 3.767-1.656 3.11-.882 7.066 1.825 9.323 30.074 25.061 13.444 57.504-.87 76.235l-7.116.254c3.959-30.316-1.619-52.938-16.627-67.327C59.561 26.166 18.631 35.132 16.9 35.525c-3.383.769-5.856 3.863-5.86 7.333-.004 3.47 2.461 6.57 5.842 7.347 13.423 3.086 22.787 9.458 28.626 19.48 12.541 21.527 4.328 53.355 2.668 59.159l-8.092 16.506a7.53 7.53 0 0 0 3.448 10.076 7.491 7.491 0 0 0 5.838.328l18.106 36.212-12.545 10.036-17.471-17.117c1.62-3.676.072-8.006-3.569-9.791a7.531 7.531 0 0 0-10.075 3.447L.759 225.579c-2.89 5.897 2.977 12.548 9.184 10.443l40.976-13.932 18.363 250.308c.261 3.554 3.086 6.509 6.626 6.926 3.539.418 6.975-1.796 8.057-5.191l27.371-85.887 36.534 1.491 3.722 87.449c.141 3.322 2.537 6.23 5.773 7.003 3.434.82 7.076-.937 8.572-4.135l41.19-88.13 166.88-3.792 38.179 91.63c1.414 3.392 5.192 5.292 8.759 4.411 3.266-.805 5.649-3.789 5.719-7.151l4.639-222.681c.053-.161.097-.323.139-.487l18.491 18.491 22.602 52.738-15.604 78.022a7.53 7.53 0 0 0 5.072 8.642 7.527 7.527 0 0 0 9.167-4.05l40.158-88.347a7.537 7.537 0 0 0 .285-5.495zM22.26 215.928l8.23-16.79 10.603 10.387-18.833 6.403zm348.344-12.943l-23.757 38.012-10.386-41.544 34.143 3.532zm-50.079-5.18l16.009 64.036c1.576 6.298 10.239 7.684 13.691 2.165l37.06-59.295 10.805 1.117-59.199 98.666L313.62 197.09l6.905.715zm-181.058-110.6c2.565-11.719 1.844-22.768-2.056-32.844 7.619 5.354 14.825 12.73 18.091 22.552 5.405 16.256-.83 36.358-18.524 59.812l-11.517-17.841c5.776-8.78 11.384-19.696 14.006-31.679zm-27.191 44.872a7.52 7.52 0 0 0 3.222-.86l9.506 14.726-16.075 12.861-15.071-26.068 18.418-.659zM48.227 49.385c9.007 1.314 18.538 4.549 25.853 11.563 11.907 11.416 15.793 30.953 11.599 58.094l-21.656 8.662c3.149-13.43 7.721-42.906-5.503-65.603-2.815-4.83-6.251-9.073-10.293-12.716zm12.689 95.782l18.466-7.386 17.654 30.538-17.532 14.026-18.588-37.178zm4.432 67.786l71.924-57.54 27.87 24.884a7.526 7.526 0 0 0 4.241 1.872l9.741 1.008L73.349 322.008l-8.001-109.055zm40.865 160.011c-3.347-.143-6.451 2.005-7.48 5.237l-17.283 54.23-6.437-87.756 121.663-159.683 7.752.802L121.793 373.6l-15.58-.636zm85.563 16.239l-26.447 56.586-2.707-63.613a7.53 7.53 0 0 0-7.216-7.203l-17.451-.712 82.209-186.839 11.413 1.181c0 .001-39.865 199.895-39.801 200.6zm17.516-12.389l37.331-186.653 26.016 2.691 22.75 182.005-86.097 1.957zm203.058 64.194l-10.864-26.074 11.589-8.692-.725 34.766zm1.124-53.89l-17.964 13.473-6.171-14.811c.279-.282.546-.581.785-.915l24.1-33.739-.75 35.992zm1.306-62.678l-34.715 48.6a7.515 7.515 0 0 0-1.086-.081c-.057 0-.115 0-.173.002l-29.14.663 66.092-96.134-.978 46.95zm16.693-91.85l-1.994-1.994a7.53 7.53 0 1 0-12.853 5.168l-.298 14.311-85.228 123.97-20.577.468-22.509-180.071 9.748 1.009 30.716 130.542c1.513 6.427 10.379 7.827 13.786 2.149l72.284-120.473c.025-.042.044-.087.069-.13l14.413 1.491 12.86 11.251-10.417 12.309zm10.686 10.686l11.064-13.076 16.308 14.269-13.926 12.254-13.446-13.447zm22.604 25.449l12.319-10.842 8.772 26.318-11.305 7.359-9.786-22.835zm19.76 73.199l3.237-16.18a7.517 7.517 0 0 0-.463-4.442l-6.724-15.691 10.205-6.643 5.615 16.844-11.87 26.112z"/></svg>