<svg xmlns="http://www.w3.org/2000/svg" viewBox="0 0 511.999 511.999"><path d="M508.323 250.318l-55.877-47.895c-4.763-4.081-12.354-.577-12.354 5.682v28.437h-40.91v-4.49a7.484 7.484 0 1 0-14.968 0v4.49h-16.963v-4.49a7.484 7.484 0 1 0-14.968 0v4.49H335.32v-4.49a7.484 7.484 0 1 0-14.968 0v4.49h-36.06c25.568-42.053 39.354-81.386 40.987-117.015 1.791-39.09-11.579-72.825-37.645-94.992C269.031 8.714 245.31 0 220.843 0l-.598.002c-25.36.147-48.733 9.634-65.813 26.713-7.585 7.586-7.585 19.93 0 27.516 7.586 7.586 19.93 7.587 27.516 0 6.868-6.868 15.516-11.416 24.877-13.667 0 0-149.066 167.22-149.382 168.038H8.541c-6.257 0-9.765 7.591-5.681 12.354l19.034 22.208c-3.021 3.429-4.871 7.916-4.871 12.835s1.85 9.405 4.871 12.835L2.859 291.042c-4.082 4.762-.576 12.354 5.681 12.354h48.902c.316.818 149.381 168.038 149.381 168.038-9.361-2.25-18.009-6.799-24.877-13.667-7.587-7.586-19.931-7.585-27.516 0-7.585 7.586-7.585 19.93 0 27.516 17.08 17.08 40.453 26.567 65.797 26.713l.614.002c24.467 0 48.19-8.714 66.795-24.536 26.067-22.166 39.435-55.902 37.645-94.992-1.633-35.634-15.419-74.956-40.989-117.015h36.061v4.49a7.484 7.484 0 1 0 14.968 0v-4.49h16.963v4.49a7.484 7.484 0 1 0 14.968 0v-4.49h16.963v4.49a7.484 7.484 0 1 0 14.968 0v-4.49h40.91v28.437c0 6.243 7.586 9.771 12.354 5.682l55.877-47.895c3.43-2.939 3.43-8.42-.001-11.361zM171.365 43.649a4.496 4.496 0 0 1-6.35 0 4.495 4.495 0 0 1 0-6.35c14.277-14.277 33.922-22.206 55.332-22.33l.496-.002c20.918 0 41.196 7.448 57.1 20.971 22.461 19.101 33.963 48.543 32.389 82.905-1.608 35.098-16.187 74.521-43.33 117.175-.11.172-.205.348-.298.525h-10.762c28.168-43.014 43.842-83.704 45.42-118.111 1.851-40.404-14.876-63.441-29.236-75.653-29.768-25.311-74.969-24.922-100.761.87zM76.94 223.571l11.119 12.971H35.93l-11.119-12.971H76.94zm-52.128 64.858l11.119-12.971H88.06l-11.12 12.971H24.812zm52.044 14.967h3.526a7.482 7.482 0 0 0 5.681-2.613l21.707-25.325h130.213c.133.251.277.499.442.739 29.846 43.56 46.438 84.384 47.982 118.057 1.574 34.344-12.171 53.524-23.979 63.566-10.032 8.53-22.189 13.471-34.432 14.854L76.856 303.396zm233.475 89.761c1.575 34.361-9.928 63.805-32.389 82.905-15.903 13.523-36.181 20.971-57.1 20.971l-.511-.002c-21.395-.124-41.04-8.053-55.316-22.33-1.751-1.75-1.751-4.6 0-6.35s4.599-1.75 6.35 0c13.056 13.056 31.081 19.604 49.565 19.603 18.029-.001 36.498-6.233 51.195-18.732 14.359-12.211 31.087-35.248 29.236-75.653-1.578-34.406-17.252-75.095-45.42-118.111h10.717c27.36 42.858 42.058 82.451 43.673 117.699zm10.024-132.667H36.479c-2.476 0-4.49-2.015-4.49-4.49s2.015-4.49 4.49-4.49h143.684a7.484 7.484 0 0 0 0-14.968h-72.392l-21.707-25.325a7.482 7.482 0 0 0-5.681-2.613h-3.526l151.14-169.277c12.243 1.383 24.4 6.324 34.432 14.854 11.808 10.042 25.553 29.222 23.979 63.565-1.545 33.675-18.137 74.499-47.984 118.059a7.55 7.55 0 0 0-.441.737h-21.9a7.484 7.484 0 0 0 0 14.968h104.271v8.98zm31.93 0h-16.963v-8.98h16.963v8.98zm31.929 0h-16.963v-8.98h16.963v8.98zm70.845 27.133v-19.65a7.484 7.484 0 0 0-7.484-7.484h-48.394v-8.98h48.394a7.484 7.484 0 0 0 7.484-7.484v-19.65L491.954 256l-36.895 31.623z"/></svg>