<svg xmlns="http://www.w3.org/2000/svg" viewBox="0 0 511.998 511.998"><path d="M510.435 174.902c-3.073-33.934-12.329-78.786-38.984-99.761-4.937-3.885-10.545-7.366-16.666-10.347a7.526 7.526 0 1 0-6.592 13.532c5.159 2.513 9.852 5.421 13.948 8.644 17.509 13.777 29.335 45.487 33.301 89.288 7.305 80.675-13.26 188.05-42.316 220.945-7.733 8.755-19.433 16.604-34.777 23.33-3.559 1.56-5.372 5.726-4.078 9.392 1.437 4.07 6.162 6.129 10.122 4.394 17.36-7.61 30.824-16.745 40.016-27.151 31.832-36.035 53.77-146.742 46.026-232.266z"/><path d="M470.698 174.901c-3.073-33.934-12.33-78.786-38.984-99.76-38.856-30.575-91.41-21.761-142.234-13.237-34.218 5.738-66.535 11.159-93.553 4.942l-7.487-1.728c-9.199-2.126-17.665-4.077-25.598-5.777a7.5 7.5 0 0 0-3.33-.707c-18.999-3.966-34.839-6.294-49.819-5.564-23.339 1.138-43.361 10.056-64.918 28.919C23.043 101.004 7.993 138.05 2.399 186.301a7.526 7.526 0 0 0 14.952 1.734c5.163-44.531 18.422-78.168 37.335-94.717 29.894-26.158 52.415-28.974 89.51-22.348l-33.669 33.669-18.95-12.633a7.525 7.525 0 0 0-10.437 2.087 7.525 7.525 0 0 0 2.087 10.437l22.14 14.76 12.224 30.56-16.512 5.503c-3.74 1.247-5.915 5.313-4.881 9.116 1.118 4.115 5.595 6.514 9.642 5.165l20.594-6.864 21.022 14.014c3.688 2.459 8.831 1.118 10.864-2.811 1.739-3.36.632-7.617-2.514-9.714l-22.14-14.76-13.345-33.364 41.6-41.6c7.155 1.559 14.826 3.332 23.13 5.25l7.502 1.731c29.931 6.886 65.256.962 99.418-4.767 47.596-7.983 96.812-16.237 130.435 10.221 13.583 10.689 23.743 32.174 29.469 61.72a7.51 7.51 0 0 0-1.049 1.073l-9.962 12.452-12.908-6.454c-3.717-1.86-8.238-.352-10.098 3.366s-.352 8.239 3.366 10.098l10.023 5.012-12.534 15.668a7.525 7.525 0 0 0-1.65 4.702v24.085a7.526 7.526 0 0 0 7.527 7.526 7.526 7.526 0 0 0 7.526-7.526v-21.445l22.814-28.517c.284 2.47.545 4.978.776 7.531 7.305 80.675-13.26 188.05-42.316 220.945-24.07 27.25-86.443 45.071-163.068 46.664l-25.953-19.466 6.816-27.265a7.525 7.525 0 0 0-5.476-9.127 7.53 7.53 0 0 0-9.127 5.476l-2.185 8.739-11.233-5.617a7.527 7.527 0 1 0-6.732 13.464l14.225 7.112-2.103 8.416a7.527 7.527 0 0 0 2.786 7.847l13.773 10.33c-66.697-1.845-125.863-16.469-154.705-38.901-17.124-13.32-31.509-38.699-41.597-73.395-9.508-32.702-14.374-71.461-13.699-109.135a7.526 7.526 0 0 0-7.391-7.66c-4.188-.041-7.586 3.235-7.66 7.391-.7 39.146 4.376 79.493 14.296 113.608 10.979 37.76 27.165 65.795 46.81 81.074 40.203 31.268 117.037 42.276 178.724 42.275 1.544 0 3.088-.009 4.632-.024 1.484-.014 3.066.153 4.532-.061 37.734-.677 73.414-5.309 103.208-13.406 33.625-9.141 57.987-22.052 72.405-38.374 31.836-36.038 53.774-146.746 46.03-232.27z"/><path d="M388.109 369.559l-36.265-159.397h22.682c5.489 0 9.192-5.972 6.732-10.892l-14.728-29.457 13.428-45.322a7.53 7.53 0 0 0-2.752-8.196 7.524 7.524 0 0 0-8.641-.205l-42.428 28.286-27.803-34.752c-4.192-5.239-12.906-2.519-13.384 4.166l-7.179 100.509c-29.949-13.578-87.608-19.334-129.963-11.74-27.187 4.875-45.474 14.333-54.355 28.114-29.247 45.384-2.164 161.462-.997 166.38.738 3.108 3.449 5.461 6.629 5.755 3.281.303 6.458-1.637 7.682-4.698l30.22-75.552h5.662l24.083 67.265c1.235 3.453 4.911 5.545 8.511 4.852 3.499-.672 6.102-3.826 6.102-7.389v-64.728h81.286v64.728c0 3.63 2.693 6.809 6.267 7.419 3.676.628 7.352-1.638 8.452-5.199l20.663-66.948h46.276l29.946 52.406a7.528 7.528 0 0 0 9.267 3.28 7.529 7.529 0 0 0 4.607-8.685zm-32.918-58.262a7.527 7.527 0 0 0-6.535-3.792h-56.198a7.528 7.528 0 0 0-7.192 5.307l-7.583 24.567V315.03a7.526 7.526 0 0 0-7.526-7.526h-96.339a7.526 7.526 0 0 0-7.526 7.526v28.903l-11.257-31.44a7.527 7.527 0 0 0-7.086-4.99h-16.057a7.525 7.525 0 0 0-6.988 4.731l-22.747 56.867c-7.029-40.279-13.277-103.55 3.949-130.278 6.342-9.842 22.096-17.459 44.359-21.452 48.712-8.733 110.646 1.265 129.449 15.367 4.682 3.512 11.607.339 12.023-5.485l6.659-93.212 20.099 25.123a7.525 7.525 0 0 0 10.052 1.56l30.873-20.581-8.366 28.237a7.52 7.52 0 0 0 .485 5.504l10.61 21.221h-19.936v.002a7.528 7.528 0 0 0-7.339 9.196l27.137 119.274-7.02-12.28z"/></svg>