<svg xmlns="http://www.w3.org/2000/svg" viewBox="0 0 512 512"><path d="M446.063 2.622A7.514 7.514 0 0 0 440.36 0H135.765c-4.534 0-8.118 4.173-7.427 8.658l15.944 103.634v15.457a7.516 7.516 0 0 0 15.03 0v-8.517h11.066l3.66 41.477-5.709-.381c-4.135-.264-7.722 2.858-7.998 6.998a7.515 7.515 0 0 0 6.998 7.998l8.046.536 1.318 14.932-10.099 1.683a7.515 7.515 0 0 0 2.47 14.825l8.953-1.492 3.104 35.182-4.477-.48c-4.119-.435-7.829 2.545-8.272 6.672a7.515 7.515 0 0 0 6.672 8.272l7.423.796 1.33 15.067-9.016 1.287a7.514 7.514 0 0 0-6.376 8.502 7.517 7.517 0 0 0 8.502 6.377l8.213-1.173 6.617 74.985c-11.509.962-34.283 3.224-57.356 7.55-47.933 8.991-70.256 21.525-70.256 39.452v48.094c0 1.152.277 2.331.794 3.361C65.985 461.885 91.551 512 135.765 512h264.517a7.516 7.516 0 0 0 7.515-7.515V400.282c0-19.731-13.589-38.714-21.223-47.825l6.625-.828c4.118-.515 7.04-4.27 6.525-8.388s-4.275-7.044-8.388-6.525l-6.173.772 1.492-15.913 7.718-2.251a7.514 7.514 0 1 0-4.208-14.428l-2.001.583 2.524-26.918 8.796.943a7.517 7.517 0 0 0 8.273-6.672 7.515 7.515 0 0 0-6.672-8.272l-8.995-.964.651-6.943 8.606-1.229a7.515 7.515 0 0 0-2.125-14.878l-5.038.719 4.734-50.5 8.881.592a7.516 7.516 0 0 0 1-14.996l-8.479-.565.67-7.147 8.544-1.424a7.515 7.515 0 1 0-2.471-14.825l-4.622.771 3.182-33.938h11.192v8.517a7.516 7.516 0 0 0 15.03 0v-15.457L447.787 8.658a7.51 7.51 0 0 0-1.724-6.036zM191.56 188.317l-1.009-11.442 49.76 3.318-48.751 8.124zm15.011 170.125l-6.552-74.258 104.208-14.887 71.513 7.662-3.098 33.047-166.071 48.436zm164.561-32.34l-1.245 13.295-77.591 9.699 78.836-22.994zm-172.436-56.911l-.997-11.307 45.798 4.907-44.801 6.4zm165.994-8.531l12.749-1.822-.297 3.156-12.452-1.334zm-60.729-6.507l-107.608-11.53-3.467-39.292 112.726-18.788 78.303 5.22-5.034 53.686-74.92 10.704zM135.765 496.971c-23.686 0-41.562-20.051-50.673-33.065h35.143a7.516 7.516 0 0 0 0-15.03h-41.08v-40.579c0-6.359 15.159-16.631 57.881-24.655 21.841-4.102 43.919-6.329 55.348-7.306a7.464 7.464 0 0 0 .786 3.259l34.641 69.281h-71.004a7.516 7.516 0 0 0 0 15.03h78.518l16.532 33.065H135.765zm87.371-91.049l37.901 42.955h-16.424l-21.477-42.955zm45.524 91.049l-16.532-33.065h22.17l29.175 33.065H268.66zm124.107 0h-69.25l-29.175-33.065h98.425v33.065zm0-96.689v48.595H281.081l-66.146-74.965 154.202-19.276a7.559 7.559 0 0 0 1.777 2.86c.219.219 21.853 22.194 21.853 42.786zm-7.45-225.487l-15.152-1.01 15.488-2.581-.336 3.591zm1.788-19.069l-82.239 13.707-115.652-7.71-3.749-42.49h14.926v8.517a7.516 7.516 0 0 0 15.03 0v-8.517h41.08v8.517a7.516 7.516 0 0 0 15.03 0v-8.517h33.065v8.517a7.516 7.516 0 0 0 15.03 0v-8.517h41.08v8.517a7.516 7.516 0 0 0 15.03 0v-8.517h14.793l-3.424 36.493zm30.777-51.523H158.244l-13.719-89.174h287.076l-13.719 89.174z"/><path d="M175.843 24.047a7.516 7.516 0 0 0-7.515 7.515v8.016a7.516 7.516 0 0 0 15.03 0v-8.016a7.516 7.516 0 0 0-7.515-7.515zm24.047 24.047a7.516 7.516 0 0 0-7.515 7.515v24.047a7.516 7.516 0 0 0 15.03 0V55.609a7.515 7.515 0 0 0-7.515-7.515zm32.063-16.031a7.516 7.516 0 0 0-7.515 7.515v24.047a7.516 7.516 0 0 0 15.03 0V39.577a7.515 7.515 0 0 0-7.515-7.514zm48.094 0a7.516 7.516 0 0 0-7.515 7.515v24.047a7.516 7.516 0 0 0 15.03 0V39.577a7.515 7.515 0 0 0-7.515-7.514zm32.062 32.062a7.516 7.516 0 0 0-7.515 7.515v16.031a7.516 7.516 0 0 0 15.03 0V71.64a7.515 7.515 0 0 0-7.515-7.515zm32.063-40.078a7.516 7.516 0 0 0-7.515 7.515v24.047a7.516 7.516 0 0 0 15.03 0V31.562a7.516 7.516 0 0 0-7.515-7.515zm32.063 24.047a7.516 7.516 0 0 0-7.515 7.515v24.047a7.516 7.516 0 0 0 15.03 0V55.609a7.516 7.516 0 0 0-7.515-7.515zm32.062-24.047a7.516 7.516 0 0 0-7.515 7.515v8.016a7.516 7.516 0 0 0 15.03 0v-8.016a7.516 7.516 0 0 0-7.515-7.515z"/></svg>