<svg xmlns="http://www.w3.org/2000/svg" viewBox="0 0 512 512"><path d="M509.792 2.213a7.534 7.534 0 0 0-7.399-1.917l-79.568 22.733c-5.415 1.547-7.253 8.579-3.258 12.574l11.723 11.722-13.751 13.751-45.864 13.104c-5.415 1.547-7.253 8.579-3.258 12.574l11.723 11.722-13.752 13.751-45.864 13.103c-5.415 1.547-7.253 8.579-3.258 12.574l11.723 11.722-40.439 40.439c-3.437-4.534-7.105-8.806-11.027-12.729-7.912-7.912-16.838-14.369-26.602-19.32a7.55 7.55 0 0 0-1.555-.775c-15.42-7.499-32.877-11.292-51.73-11.135-23.56.211-40.969 6.481-41.699 6.748a7.541 7.541 0 0 0-4.489 4.489c-.267.729-6.537 18.138-6.748 41.698-.17 18.886 3.636 36.363 11.159 51.796.187.506.429.984.713 1.432 4.958 9.786 11.429 18.731 19.357 26.659 3.922 3.922 8.195 7.59 12.73 11.027l-27.418 27.418c-2.743 2.743-2.926 7.275-.4 10.224 2.818 3.291 7.992 3.496 11.058.432l29.444-29.445c5.023 3.079 10.245 5.932 15.585 8.568L24.915 499.166c-2.743 2.743-2.926 7.275-.4 10.224 2.818 3.291 7.992 3.496 11.058.432l196.038-196.038c28.132 11.62 57.294 17.986 76.029 21.209-7.091 17.281-3.637 37.909 10.375 51.922 9.031 9.031 20.967 13.967 33.714 13.967 2.349 0 4.515-.503 6.229-2.218a7.592 7.592 0 0 0 2.13-6.393l-5.129-35.905 35.905 5.129c4.411.625 8.504-2.845 8.599-7.298.281-13.143-4.674-25.492-13.955-34.774-14.014-14.013-34.642-17.468-51.923-10.376-3.234-18.809-9.6-47.941-21.205-76.033l49.999-49.998 11.721 11.722c3.995 3.993 11.027 2.16 12.574-3.258l13.105-45.864 13.751-13.752 11.722 11.722c3.996 3.995 11.026 2.158 12.575-3.258l13.103-45.864 13.752-13.751 11.723 11.722c3.994 3.997 11.026 2.156 12.574-3.258l22.733-79.569a7.538 7.538 0 0 0-1.92-7.395zM159.762 199.67c.077-15.333 3.104-27.941 4.767-33.73 5.795-1.666 18.4-4.69 33.728-4.765l.609-.001c14.654 0 28.014 2.62 40.011 7.773a80.662 80.662 0 0 1-23.169 48.177 80.665 80.665 0 0 1-48.177 23.167c-5.222-12.164-7.842-25.729-7.769-40.621zM351.76 320.532c8.36 0 16.724 3.183 23.088 9.549 4.255 4.256 7.182 9.456 8.59 15.132l-36.297-5.185a7.537 7.537 0 0 0-8.525 8.526l5.185 36.297c-5.676-1.409-10.876-4.334-15.132-8.59-12.732-12.731-12.732-33.447 0-46.178 6.368-6.369 14.728-9.551 23.091-9.551zm-32.018-2.75a47.565 47.565 0 0 0-3.371 3.37c-28.185-4.368-94.938-18.029-129.787-52.879a91.45 91.45 0 0 1-11.4-13.866 95.635 95.635 0 0 0 45.632-21.523l11.945 11.945c3.065 3.064 8.24 2.858 11.058-.432 2.525-2.949 2.343-7.481-.4-10.224l-11.946-11.946a95.634 95.634 0 0 0 21.525-45.635 91.456 91.456 0 0 1 13.865 11.402c34.81 34.811 48.477 101.386 52.879 129.788zm158.26-245.057l-7.994-7.994a7.533 7.533 0 0 0-10.656 0l-20.461 20.46a7.537 7.537 0 0 0-1.918 3.258l-10.121 35.428-7.994-7.994a7.535 7.535 0 0 0-10.657 0l-20.46 20.461a7.523 7.523 0 0 0-1.916 3.258l-10.123 35.428-7.993-7.995a7.534 7.534 0 0 0-10.658 0l-51.301 51.3c-2.637-5.34-5.49-10.561-8.569-15.585l47.794-47.794a7.534 7.534 0 0 0 0-10.656l-7.995-7.995 35.428-10.122a7.535 7.535 0 0 0 3.258-1.917l20.461-20.461a7.535 7.535 0 0 0 0-10.656l-7.995-7.995 35.428-10.122a7.535 7.535 0 0 0 3.258-1.917l20.46-20.46a7.534 7.534 0 0 0 0-10.656l-7.995-7.995 54.214-15.49-15.495 54.211z"/><path d="M144.519 344.752a7.535 7.535 0 0 0-10.657 0L2.182 476.433c-2.743 2.743-2.926 7.275-.4 10.224 2.818 3.291 7.992 3.496 11.058.432L144.52 355.41a7.54 7.54 0 0 0-.001-10.658zm59.47-158.254h-3.831v-3.832a7.535 7.535 0 1 0-15.07 0v3.832h-3.831a7.535 7.535 0 1 0 0 15.07h3.831v3.831a7.535 7.535 0 1 0 15.07 0v-3.831h3.831a7.535 7.535 0 1 0 0-15.07z"/></svg>