<svg xmlns="http://www.w3.org/2000/svg" viewBox="0 0 512 512"><path d="M464.652 47.345c-63.128-63.127-165.845-63.127-228.972 0-45.078 45.079-83.6 104.38-103.046 158.628-11.133 31.062-15.884 59.653-14.12 84.979 1.168 16.77 5.203 31.906 12.008 45.301l-56.649 56.649a40.087 40.087 0 0 0-5.435-6.767c-7.574-7.574-17.643-11.744-28.353-11.744-12.461 0-24.354 5.917-31.917 15.816-7.527 9.852-10.028 22.963-6.762 34.915 1.827 6.685 5.429 12.819 10.327 17.717 11.5 11.501 28.602 14.793 43.314 8.862l5.246 5.245c-5.931 14.714-2.639 31.814 8.862 43.315 8.811 8.812 21.405 13.038 33.753 11.385 12.288-1.644 23.327-9.148 29.469-19.908 3.436-6.019 5.227-12.902 5.227-19.83 0-10.71-4.171-20.779-11.744-28.353a48.18 48.18 0 0 0-.605-.592l58.035-58.034c11.459 4.72 24.059 7.596 37.754 8.55 3.435.24 6.926.359 10.479.358 22.645 0 47.65-4.855 74.501-14.479 54.248-19.444 113.548-57.967 158.629-103.046 63.127-63.124 63.127-165.84-.001-228.967zM108.32 438.368c-3.489 3.489-2.683 9.522 1.585 11.98 10.643 6.133 15.286 19.547 10.653 30.938-2.829 6.956-8.859 12.411-16.071 14.507-6.706 1.949-14.038.935-19.985-2.713a24.957 24.957 0 0 1-8.158-8.102c-4.188-6.771-4.867-15.358-1.777-22.698.856-2.032 2.296-3.841 2.528-6.088a7.677 7.677 0 0 0-2.191-6.17L61.971 437.09a7.613 7.613 0 0 0-9.255-1.171c-9.761 5.766-22.185 4.182-30.216-3.847-9.588-9.587-9.588-25.584 0-35.171 9.586-9.588 25.585-9.586 35.171 0a24.846 24.846 0 0 1 6.432 11.144c1.481 5.558 8.665 7.494 12.739 3.421l61.831-61.831c3.25 4.517 6.86 8.8 10.873 12.813a103.054 103.054 0 0 0 19.423 15.271l-60.649 60.649zm192.565-73.339c-42.725 15.314-101.795 25.429-140.571-13.346-38.776-38.776-28.66-97.847-13.346-140.572 10.377-28.949 26.432-59.419 46.094-88.252-13.117 53.257 1.086 111.924 42.619 153.458 31.564 31.563 73.025 47.345 114.486 47.345 13.096 0 26.19-1.578 38.973-4.727-28.833 19.662-59.304 35.718-88.255 46.094zm153-99.479c-28.598 28.598-66.152 42.896-103.719 42.893-37.557-.003-75.128-14.301-103.719-42.893-57.191-57.191-57.191-150.248 0-207.438 57.192-57.19 150.25-57.19 207.438 0 57.191 57.19 57.191 150.247 0 207.438z"/><path d="M465.833 103.692a7.612 7.612 0 1 0-13.602 6.84c22.16 44.072 13.596 97.139-21.315 132.049-21.569 21.57-50.246 33.447-80.75 33.447-30.503 0-59.181-11.879-80.75-33.447-21.57-21.57-33.448-50.247-33.448-80.75 0-30.504 11.879-59.181 33.448-80.751 21.569-21.57 50.246-33.448 80.75-33.448 30.504 0 59.181 11.879 80.75 33.448a7.613 7.613 0 1 0 10.767-10.766c-24.445-24.445-56.947-37.908-91.517-37.908s-67.071 13.462-91.517 37.908c-24.444 24.445-37.908 56.947-37.908 91.517s13.463 67.071 37.908 91.517c24.445 24.445 56.947 37.908 91.517 37.908s67.071-13.462 91.517-37.908c39.562-39.563 49.267-99.705 24.15-149.656z"/><path d="M378.52 133.478c-7.574-7.573-17.642-11.744-28.353-11.744s-20.78 4.17-28.353 11.744c-7.573 7.573-11.744 17.642-11.744 28.353 0 10.71 4.171 20.779 11.744 28.352 7.574 7.574 17.642 11.744 28.353 11.744s20.779-4.17 28.352-11.744c7.574-7.573 11.745-17.641 11.745-28.352-.001-10.71-4.172-20.779-11.744-28.353zm-10.77 45.938c-4.697 4.697-10.942 7.284-17.584 7.284s-12.888-2.586-17.585-7.284c-4.697-4.697-7.284-10.943-7.284-17.585s2.588-12.889 7.285-17.585c4.697-4.697 10.942-7.284 17.584-7.284s12.888 2.586 17.584 7.284c4.698 4.697 7.285 10.943 7.285 17.585s-2.587 12.889-7.285 17.585z"/><circle cx="189.386" cy="322.616" r="7.613"/><circle cx="235.319" cy="334.818" r="7.613"/><circle cx="177.184" cy="276.673" r="7.613"/></svg>