<svg xmlns="http://www.w3.org/2000/svg" viewBox="0 0 511.999 511.999"><path d="M471.331 152.906c27.699-43.122 42.124-93.737 40.552-145.5-.126-4.146-3.569-7.42-7.736-7.28a7.51 7.51 0 0 0-7.28 7.736c1.451 47.804-11.596 94.584-36.736 134.682-10.472-7.91-22.531-12.622-35.766-13.702-14.664-1.196-44.145 5.423-60.894 28.276-9.928 13.546-18.472 37.573-3.789 75.566a238.405 238.405 0 0 1-37.374 14.414c-13.235-33.526-35.257-51.893-65.626-54.655-21.671-1.97-44.283 7.892-57.614 25.123-5.246 6.78-10.259 16.156-12.473 28.572a238.73 238.73 0 0 1-34.271-13.466c14.677-37.987 6.133-62.01-3.794-75.555-16.749-22.853-46.236-29.47-60.893-28.276-13.239 1.081-25.303 5.796-35.777 13.711-25.485-40.556-38.173-86.988-36.726-134.69A7.513 7.513 0 0 0 7.854.126C3.708-.003.245 3.26.118 7.406c-1.566 51.64 12.445 101.87 40.535 145.52-10.304 11.52-18.415 26.852-23.725 45.436-6.451 22.579-11.882 59.789-1.116 108.832 10.2 46.468 32.549 92.932 66.426 138.101 2.139 2.852 6.115 3.806 9.318 2.236 2.822-1.383 4.514-4.483 4.153-7.605-12.08-104.533 8.174-132.033 29.618-161.15 7.127-9.677 14.44-19.626 20.893-32.373a253.45 253.45 0 0 0 39.198 15.05c.189 10.653 2.343 22.981 7.428 37.154 5.979 16.661 13.225 30.743 20.232 44.362 19.528 37.952 37.971 73.799 24.485 160.258-.468 2.998.971 6.061 3.579 7.612 2.978 1.771 6.891 1.235 9.281-1.275 43.483-45.657 63.657-96.608 72.925-131.31 11.42-42.768 12.869-85.156 3.972-116.297-.059-.208-.124-.409-.184-.616a253.377 253.377 0 0 0 38.654-14.92c6.45 12.739 13.76 22.683 20.883 32.355 21.442 29.116 41.697 56.617 29.618 161.149-.361 3.123 1.33 6.222 4.153 7.605 3.203 1.569 7.179.616 9.318-2.236 33.876-45.169 56.226-91.632 66.425-138.101 10.766-49.043 5.336-86.253-1.115-108.832-5.31-18.595-13.429-33.933-23.741-45.455zM138.93 225.644a244.793 244.793 0 0 1-22.859-14.62 30.353 30.353 0 0 0 3.725-14.605c0-16.843-13.703-30.546-30.546-30.546s-30.546 13.703-30.546 30.546 13.703 30.546 30.546 30.546a30.364 30.364 0 0 0 16.517-4.871 260.056 260.056 0 0 0 27.124 17.389c-5.875 11.655-12.61 20.815-19.659 30.385-11.228 15.247-22.839 31.012-29.733 56.786-6.094 22.79-7.867 50.721-5.383 86.534-46.824-72.116-64.28-149.318-46.743-210.698 4.748-16.618 19.854-55.602 57.486-58.674a32.727 32.727 0 0 1 2.649-.103c12.681 0 33.32 6.479 44.906 22.287 10.895 14.865 11.731 34.918 2.516 59.644zm-56.006-43.388a15.423 15.423 0 0 1 6.326-1.361c8.56 0 15.523 6.964 15.523 15.523 0 1.827-.333 3.572-.915 5.202a242.414 242.414 0 0 1-10.476-9.108l-.003-.004a246.329 246.329 0 0 1-10.455-10.252zm9.488 29.361a15.534 15.534 0 0 1-3.161.326c-8.56 0-15.523-6.964-15.523-15.523-.001-.655.053-1.296.132-1.93a261.3 261.3 0 0 0 9.337 9.065c3.003 2.768 6.087 5.442 9.215 8.062zm163.179 269.176c7.314-73.817-10.451-108.347-29.154-144.697-6.786-13.189-13.803-26.828-19.45-42.563-9.887-27.553-8.517-50.641 3.963-66.773 10.622-13.73 27.32-19.524 40.542-19.524 1.314 0 2.594.057 3.83.169 24.009 2.183 41.223 16.45 52.319 43.46a234.64 234.64 0 0 1-25.895 4.252c-3.138-13.528-15.281-23.645-29.75-23.645-16.843 0-30.546 13.703-30.546 30.546s13.703 30.546 30.546 30.546c13.989 0 25.804-9.456 29.408-22.31a249.56 249.56 0 0 0 31.192-5.107c.092.314.188.62.279.937 13.154 46.038 2.808 139.311-57.284 214.709zm.411-224.283c-6.065 0-12.173-.241-18.224-.703 2.402-5.474 7.866-9.312 14.217-9.312 6.526 0 12.112 4.052 14.405 9.768-3.454.147-6.917.247-10.398.247zm8.34 14.88c-2.837 3.73-7.309 6.152-12.347 6.152-5.226 0-9.847-2.603-12.661-6.573 5.544.364 11.122.564 16.667.564 2.79 0 5.569-.054 8.341-.143zm169.544 141.797c2.485-35.814.712-63.743-5.382-86.534-6.893-25.774-18.505-41.54-29.733-56.786-8.917-12.108-17.34-23.546-24.146-40.231-10.836-26.568-10.512-47.979.964-63.638 11.586-15.809 32.226-22.287 44.906-22.287.927 0 1.814.035 2.649.103 11.52.94 20.921 5.255 28.568 11.255a244.47 244.47 0 0 1-12.307 15.761 30.358 30.358 0 0 0-16.651-4.957c-16.842 0-30.546 13.703-30.546 30.546s13.704 30.546 30.546 30.546 30.546-13.703 30.546-30.546a30.352 30.352 0 0 0-3.643-14.451 259.585 259.585 0 0 0 12.824-16.146c10.184 12.711 15.627 27.842 18.147 36.666 17.539 61.381.082 138.583-46.742 210.699zm-4.4-210.261l.007-.006c2.96-2.749 5.835-5.57 8.65-8.437.079.635.134 1.278.134 1.936 0 8.56-6.964 15.523-15.523 15.523a15.56 15.56 0 0 1-3.142-.32 260.988 260.988 0 0 0 9.874-8.696zm-10.216-11.014l-.004.004a246.866 246.866 0 0 1-11.119 9.711 15.429 15.429 0 0 1-.917-5.207c0-8.56 6.964-15.523 15.523-15.523 2.257 0 4.397.495 6.334 1.365a247.068 247.068 0 0 1-9.817 9.65z"/></svg>