<svg xmlns="http://www.w3.org/2000/svg" viewBox="0 0 512.001 512.001"><path d="M509.862 423.748c-3.748-12.147-12.002-22.107-23.241-28.046l-106.297-56.169c18.033-23.779 27.464-55.014 27.464-91.566 0-38.153-24.517-90.939-72.872-156.891a7.514 7.514 0 1 0-12.12 8.886c45.771 62.428 69.964 113.608 69.964 148.005 0 57.966-25.026 98.411-70.521 117.071 18.136-17.422 29.443-41.904 29.443-68.98 0-14.102-6.146-32.896-18.786-57.432a7.566 7.566 0 0 0-5.164-5.058c-2.965-.828-6.395.264-9.33.812-3.55.661-21.614 4.191-25.018 4.865l-30.159-105.556c-1.648-5.77-9.395-7.311-13.122-2.593-3.666 4.641-89.785 114.241-89.785 164.962 0 27.075 11.306 51.557 29.443 68.98-45.494-18.659-70.521-59.104-70.521-117.071 0-74.944 110.693-200.793 136.764-229.39 8.201 8.976 24.748 27.528 43.454 50.942a7.514 7.514 0 1 0 11.741-9.381c-26.937-33.716-49.525-57.563-49.75-57.801-2.92-3.075-7.978-3.075-10.898 0-5.975 6.292-146.339 155.138-146.339 245.63 0 36.553 9.431 67.787 27.464 91.566L25.38 395.703c-11.239 5.939-19.493 15.899-23.241 28.046-3.748 12.147-2.542 25.026 3.397 36.265 9.001 17.033 27.944 27.16 47.137 25.113 5.995-.64 11.845-2.454 17.174-5.269l118.057-62.382a7.513 7.513 0 0 0 3.133-10.154 7.514 7.514 0 0 0-10.154-3.133l-87.386 46.176c3.223-11.717 1.898-24.023-3.806-34.816-.078-.148-.165-.29-.245-.437l28.801-15.219a7.513 7.513 0 0 0 3.133-10.154 7.513 7.513 0 0 0-10.154-3.133l-31.08 16.423c-4.847-4.545-10.632-8.034-17.073-10.241l78.734-41.604a115.869 115.869 0 0 0 3.77 3.647 118.322 118.322 0 0 0 10.092 8.291l-9.01 4.761c-3.387 1.79-4.896 5.982-3.43 9.521 1.67 4.031 6.59 5.807 10.452 3.767l16.628-8.786c11.434 6.199 24.196 10.947 38.103 14.19v77.806c0 26.241 21.349 47.59 47.59 47.59 26.241 0 47.59-21.349 47.59-47.59v-77.806c13.907-3.244 26.669-7.991 38.103-14.19l16.628 8.786c3.867 2.044 8.773.259 10.452-3.767 1.474-3.535-.049-7.734-3.431-9.521l-9.01-4.761a118.322 118.322 0 0 0 10.092-8.291 113.898 113.898 0 0 0 3.77-3.648l78.734 41.605c-6.441 2.207-12.226 5.698-17.073 10.241l-31.08-16.423a7.514 7.514 0 1 0-7.021 13.287l28.801 15.219c-.08.147-.166.289-.244.437-5.704 10.793-7.029 23.099-3.806 34.816l-90.958-48.063a7.514 7.514 0 1 0-7.021 13.287l121.629 64.27c11.117 5.875 24.249 7.105 36.265 3.397 12.147-3.748 22.107-12.002 28.046-23.241 5.936-11.24 7.142-24.12 3.394-36.267zm-431.657 2.859c4.665 12.689.724 27.272-9.55 35.999-10.031 8.521-24.598 10.077-36.252 3.971-12.583-6.592-19.518-21.213-16.732-35.132 2.634-13.156 13.329-23.577 26.584-25.801a32.127 32.127 0 0 1 5.318-.443c13.586.001 25.952 8.677 30.632 21.406zm177.796 70.332c-17.954 0-32.562-14.608-32.562-32.562 0-17.954 14.608-32.562 32.562-32.562 17.954 0 32.562 14.608 32.562 32.562-.001 17.954-14.608 32.562-32.562 32.562zm32.561-67.222c-8.52-8.009-19.974-12.931-32.562-12.931-12.588 0-24.042 4.921-32.562 12.931v-40.293c10.338 1.535 21.211 2.315 32.562 2.315 11.351 0 22.224-.78 32.562-2.315v40.293zm-32.561-53.007c-44.472 0-80.653-36.18-80.653-80.652 0-33.702 49.699-106.854 77.524-143.902l27.964 97.874a7.518 7.518 0 0 0 8.698 5.304c11.835-2.367 24.841-4.918 31.83-6.222 12.561 25.174 15.289 39.368 15.289 46.944.001 44.473-36.18 80.654-80.652 80.654zm237.175 76.282c-4.591 8.688-12.985 14.888-22.628 16.765-10.483 2.041-21.558-1.364-29.134-8.881-10.051-9.972-12.422-25.809-5.815-38.31 6.237-11.803 19.457-18.753 32.737-17.126 13.147 1.611 24.203 11.322 27.557 24.109 2.058 7.849 1.073 16.272-2.717 23.443z"/><path d="M261.865 243.268a7.518 7.518 0 0 0-11.728 0c-4.271 5.329-41.726 52.758-41.726 76.836 0 26.241 21.349 47.59 47.59 47.59s47.59-21.349 47.59-47.59c0-24.078-37.456-71.508-41.726-76.836zm-5.864 109.397c-17.954 0-32.562-14.608-32.562-32.562 0-12.427 18.09-40.606 32.563-59.869 14.472 19.255 32.561 47.428 32.561 59.869-.001 17.955-14.608 32.562-32.562 32.562z"/></svg>