<svg xmlns="http://www.w3.org/2000/svg" viewBox="0 0 512 512"><path d="M509.782 270.65l-28.556-28.557a7.648 7.648 0 0 0-1.368-1.084l-98.206-60.794c.072-.113.154-.215.225-.33a23.568 23.568 0 0 0 2.842-17.934c-1.478-6.163-5.268-11.38-10.672-14.693a23.565 23.565 0 0 0-17.936-2.842l-23.411 5.619 40.012-40.012a7.649 7.649 0 0 0 2.071-3.87l17.133-85.669c1.041-5.208-3.703-9.95-8.91-8.91l-85.669 17.134a7.65 7.65 0 0 0-3.907 2.109l-47.791 47.791 2.012-8.383c1.479-6.163.469-12.531-2.842-17.936-3.313-5.403-8.53-9.194-14.692-10.672-12.718-3.053-25.554 4.813-28.607 17.534l-9.027 37.612-48.801 6.1a7.563 7.563 0 0 0-4.415 2.16l-17.134 17.133a7.58 7.58 0 0 0-2.103 4.038l-13.798 78.192-35.683 8.564c-13.303 3.192-21.28 17.486-16.998 30.498a23.745 23.745 0 0 0 5.745 9.341 23.839 23.839 0 0 0 7.22 4.942L2.193 322.052c-2.757 2.756-2.94 7.311-.403 10.274 2.832 3.306 8.031 3.514 11.111.434 0 0 74.51-74.626 74.818-75.132l70.197-16.847-19.883 82.849c-.536.317-67.304 66.957-67.304 66.957-2.757 2.756-2.94 7.311-.403 10.274 2.832 3.306 8.031 3.514 11.111.434l50.878-50.878c.025 6.17 2.454 12.116 6.961 16.623a23.688 23.688 0 0 0 11.231 6.282c1.854.445 3.708.658 5.537.657 10.716-.001 20.464-7.325 23.072-18.191l.989-4.124 72.302 116.796c.305.493.674.958 1.084 1.368l28.556 28.557c2.915 2.916 7.793 2.916 10.708 0l217.027-217.027a7.57 7.57 0 0 0 0-10.708zM374.837 28.651l-13.422 67.107-16.181-3.236-4.721-23.606a7.572 7.572 0 0 0-5.94-5.94l-23.606-4.721-3.237-16.183 67.107-13.421zm-80.666 22.841l2.936 14.682a7.574 7.574 0 0 0 5.94 5.941l23.607 4.721 4.721 23.607a7.572 7.572 0 0 0 5.941 5.94l14.682 2.936-47.201 47.202c-.087.087-.163.18-.244.27l-82.426 19.782 16.812-70.05c.398-.27 55.232-55.031 55.232-55.031zm-77.937 11.194c1.014-4.224 5.198-7.089 9.503-6.5 4.957.676 8.357 5.63 7.186 10.506L205.6 180.538l-18.729 4.495 29.363-122.347zm-81.707 68.491l13.609-13.609 40.568-5.071-7.316 30.48a7.369 7.369 0 0 0-.825.704l-56.401 56.401-1.875.45 12.24-69.355zm40.137 39.82l-4.32 18.001-18.001 4.321 22.321-22.322zm-96.577 73.369a8.538 8.538 0 0 1-8.084-2.287c-2.768-2.767-3.278-7.21-1.236-10.542a8.518 8.518 0 0 1 5.314-3.86l285.562-68.535c4.552-1.092 9.258 1.797 10.348 6.342 1.091 4.552-1.796 9.256-6.341 10.348L78.087 244.366zm162.221-23.359l-37.957 37.957 7.346-30.61 30.611-7.347zm-75.92 131.247c-1.104 4.601-5.744 7.449-10.348 6.342-4.554-1.092-7.434-5.795-6.341-10.348l26.744-111.434 18.729-4.495-28.784 119.935zm123.013 130.069l-17.848-17.848L419.11 314.918a7.572 7.572 0 1 0-10.708-10.708L260.25 452.361l-74.663-120.61a7.91 7.91 0 0 0-.526-.738l10.531-43.881c.034-.033.071-.061.105-.095 0 0 72.463-72.505 72.661-72.76 0 0 99.919-24.025 100.458-24.195l94.941 58.773-27.76 27.761a7.572 7.572 0 1 0 10.708 10.708l29.167-29.167 17.848 17.848-206.319 206.318z"/></svg>