<svg xmlns="http://www.w3.org/2000/svg" viewBox="0 0 512 512"><path d="M433.195 52.584c-15.868-4.396-41.134-7.248-71.384 4.11-16.338 6.134-31.719 15.516-46.004 28.034L347.09 10.43C349.142 5.56 345.441 0 340.164 0H83.663c-5.276 0-8.978 5.559-6.926 10.431l44.797 106.393c-36.521 17.64-66.343 45.186-86.811 78.542a7.51 7.51 0 0 0-.668 1.083C14.789 228.286 4.008 265.338 4.008 304.094c0 5.862.257 11.666.735 17.408.002.045.008.09.012.134a206.318 206.318 0 0 0 20.296 73.539c.205.589.487 1.148.831 1.669C60.027 465.053 130.586 512 211.914 512c18.85 0 37.115-2.536 54.49-7.26a7.67 7.67 0 0 0 .844-.228 206.987 206.987 0 0 0 56.638-25.306 7.49 7.49 0 0 0 1.774-1.169c31.292-20.532 56.738-49.266 73.25-83.13a7.515 7.515 0 0 0 .846-1.76 206.212 206.212 0 0 0 18.039-60.116 208.764 208.764 0 0 0 2.023-28.934c0-5.991-.267-12.084-.791-18.139 7.405-14.972 19.857-25.301 34.193-37.193 24.403-20.245 54.772-45.437 54.772-96.633 0-47.151-30.059-87.156-74.797-99.548zm-324.713-5.492h139.836a7.515 7.515 0 1 0 0-15.03H102.153l-7.172-17.033h233.865l-7.172 17.033h-37.286a7.515 7.515 0 1 0 0 15.03h30.958l-13.922 33.065h-179.02l-13.922-33.065zM19.037 304.094c0-35.372 9.686-69.211 27.022-98.421 9.32-4.169 19.263-6.283 29.589-6.283 40.055 0 72.642 32.587 72.642 72.642s-32.587 72.642-72.642 72.642c-21.9 0-42.219-9.637-56.096-26.518a195.44 195.44 0 0 1-.515-14.062zm3.749 37.902c15.035 11.419 33.431 17.707 52.862 17.707 48.342 0 87.671-39.329 87.671-87.671S123.99 184.36 75.648 184.36c-5.457 0-10.824.498-16.082 1.471a193.012 193.012 0 0 1 33.086-33.337c59.348 8.345 103.733 59.213 103.733 119.537 0 66.574-54.162 120.736-120.736 120.736a120.416 120.416 0 0 1-38.039-6.148 191.22 191.22 0 0 1-14.824-44.623zm295.62 122.828c-34.342-1.438-61.905-29.906-61.905-64.542 0-35.635 28.992-64.626 64.626-64.626 31.533 0 58.506 22.985 63.694 53.832-15.157 30.568-38.182 56.567-66.415 75.336zm75.499-96.854c-12.509-28.076-40.733-47.343-72.778-47.343-43.923 0-79.656 35.734-79.656 79.656 0 35.871 23.989 66.373 56.762 76.26a191.622 191.622 0 0 1-32.303 12.72c-30.617-19.042-49.508-52.842-49.508-88.98 0-57.735 46.971-104.705 104.704-104.705 31.843 0 61.293 14.072 81.293 38.722a191.06 191.06 0 0 1-8.514 33.67zm49.72-130.776c-15.63 12.964-30.392 25.21-39.101 44.271a7.504 7.504 0 0 0-.645 3.846c.605 6.263.912 12.583.912 18.782 0 3.437-.094 6.852-.273 10.246-22.207-21.653-51.765-33.792-83.391-33.792-66.022 0-119.734 53.712-119.734 119.734 0 36.574 16.928 71.044 45.084 93.582a193.224 193.224 0 0 1-34.564 3.107c-69.441 0-130.422-36.893-164.391-92.102a136.048 136.048 0 0 0 28.125 2.928c74.861 0 135.765-60.904 135.765-135.765 0-62.695-42.643-116.302-101.8-131.476a193.18 193.18 0 0 1 24.693-13.076 7.515 7.515 0 0 0 3.9-9.794l-9.474-22.5h166.365l-9.474 22.5a7.515 7.515 0 0 0 3.899 9.794l.397.173a7.517 7.517 0 0 0 9.07-2.373c54.124-72.486 113.334-62.883 130.195-58.213 38.149 10.567 63.78 44.751 63.78 85.062 0 44.137-25.081 64.944-49.338 85.066z"/><path d="M422.497 91.208c-15.055-4.168-31.71-2.913-48.166 3.633-18.829 7.491-36.361 21.391-52.112 41.316-2.627 3.323-1.914 8.321 1.533 10.779 31.292 22.31 55.003 53.026 68.571 88.828 1.908 5.032 8.62 6.449 12.395 2.596 7.524-7.679 15.7-14.461 22.913-20.445 24.976-20.717 40.283-34.978 40.283-65.785 0-29.366-17.827-53.28-45.417-60.922zm-4.461 115.14c-5.006 4.152-10.457 8.674-15.929 13.673-14.002-31.693-35.606-59.249-63.151-80.516 36.175-41.652 69.768-36.515 79.53-33.813 20.895 5.789 34.398 24.017 34.398 46.439.001 24.183-11.949 35.222-34.848 54.217zm-338.38 18.09c-28.453 0-51.601 23.148-51.601 51.601s23.148 51.601 51.601 51.601 51.601-23.148 51.601-51.601-23.149-51.601-51.601-51.601zm0 88.173c-20.165 0-36.571-16.406-36.571-36.571s16.406-36.571 36.571-36.571 36.571 16.406 36.571 36.571-16.406 36.571-36.571 36.571zm236.461 48.093c-21.823 0-39.577 17.755-39.577 39.577s17.755 39.577 39.577 39.577 39.577-17.755 39.577-39.577-17.754-39.577-39.577-39.577zm0 64.126c-13.536 0-24.548-11.012-24.548-24.548s11.012-24.548 24.548-24.548 24.548 11.013 24.548 24.548-11.011 24.548-24.548 24.548z"/></svg>