<svg xmlns="http://www.w3.org/2000/svg" viewBox="0 0 512 512"><path d="M378.144 266.478a226.138 226.138 0 0 0-6.548-10.574 7.514 7.514 0 0 0-10.409-2.143 7.513 7.513 0 0 0-2.143 10.408c2.093 3.179 4.15 6.5 6.112 9.87 2.059 3.537 6.734 4.776 10.275 2.713a7.514 7.514 0 0 0 2.713-10.274zm24.34 56.74a291.293 291.293 0 0 0-3.808-11.74 7.512 7.512 0 0 0-9.568-4.626 7.514 7.514 0 0 0-4.626 9.568 276.46 276.46 0 0 1 3.611 11.132c1.229 4.083 5.752 6.34 9.762 4.896 3.701-1.335 5.762-5.467 4.629-9.23zm11.763 60.357a336.417 336.417 0 0 0-1.413-12.219 7.516 7.516 0 0 0-14.898 2.001 317.79 317.79 0 0 1 1.351 11.668 7.515 7.515 0 0 0 7.471 6.789c4.379.001 7.912-3.878 7.489-8.239zm-5.942 41.255a7.515 7.515 0 0 0-7.515 7.515v12.023a7.515 7.515 0 1 0 15.03 0v-12.023a7.515 7.515 0 0 0-7.515-7.515zm0 60.117a7.515 7.515 0 0 0-7.515 7.515v12.023a7.515 7.515 0 1 0 15.03 0v-12.023a7.516 7.516 0 0 0-7.515-7.515zM343.901 323.26a451.643 451.643 0 0 0-2.285-12.016 7.515 7.515 0 1 0-14.724 3.014c.778 3.8 1.521 7.706 2.207 11.609.711 4.032 4.671 6.81 8.705 6.097a7.515 7.515 0 0 0 6.097-8.704zm6.889 60.584a568.585 568.585 0 0 0-.816-12.16 7.497 7.497 0 0 0-8.078-6.907 7.515 7.515 0 0 0-6.907 8.077c.307 3.918.573 7.898.795 11.835a7.516 7.516 0 0 0 7.497 7.092c4.259-.001 7.749-3.682 7.509-7.937zm-6.611 101.103a7.515 7.515 0 0 0-7.515 7.515v12.023a7.515 7.515 0 1 0 15.03 0v-12.023a7.514 7.514 0 0 0-7.515-7.515zm0-60.117a7.515 7.515 0 0 0-7.515 7.515v12.023c0 4.095 3.42 7.515 7.515 7.515s7.515-3.42 7.515-7.515v-12.023a7.514 7.514 0 0 0-7.515-7.515zm-238.552-59.921c-4.108-.549-7.895 2.334-8.449 6.447-.544 4.05-1.02 8.162-1.413 12.219-.391 4.025 2.601 7.723 6.615 8.188 4.121.478 7.943-2.608 8.344-6.738.376-3.874.83-7.799 1.351-11.668a7.517 7.517 0 0 0-6.448-8.448zm43.198-111.147a7.514 7.514 0 0 0-10.409 2.143 226.984 226.984 0 0 0-6.548 10.574c-1.928 3.311-.991 7.668 2.126 9.894 3.554 2.539 8.668 1.438 10.862-2.333a212.008 212.008 0 0 1 6.112-9.87 7.513 7.513 0 0 0-2.143-10.408zM101.706 424.83a7.515 7.515 0 0 0-7.515 7.515v12.023a7.515 7.515 0 1 0 15.03 0v-12.023a7.514 7.514 0 0 0-7.515-7.515zm0 60.117a7.515 7.515 0 0 0-7.515 7.515v12.023a7.515 7.515 0 1 0 15.03 0v-12.023a7.515 7.515 0 0 0-7.515-7.515zm19.197-178.095a7.514 7.514 0 0 0-9.568 4.626 290.224 290.224 0 0 0-3.808 11.74c-1.135 3.769.932 7.883 4.63 9.228 4.005 1.457 8.535-.822 9.762-4.896a275.902 275.902 0 0 1 3.611-11.132 7.514 7.514 0 0 0-4.627-9.566zm47.212 57.924a7.495 7.495 0 0 0-8.078 6.908 568.585 568.585 0 0 0-.816 12.16c-.232 4.13 3.056 7.756 7.188 7.93 4.05.169 7.59-3.037 7.817-7.085.221-3.936.488-7.917.795-11.835a7.514 7.514 0 0 0-6.906-8.078zm9.15-59.387a7.512 7.512 0 0 0-8.869 5.855 443.748 443.748 0 0 0-2.285 12.016c-.699 3.977 1.993 7.908 5.96 8.677 4.073.79 8.121-1.978 8.843-6.071.687-3.903 1.43-7.808 2.207-11.609a7.517 7.517 0 0 0-5.856-8.868zM165.831 424.83a7.515 7.515 0 0 0-7.515 7.515v12.023a7.515 7.515 0 1 0 15.03 0v-12.023a7.514 7.514 0 0 0-7.515-7.515zm0 60.117a7.515 7.515 0 0 0-7.515 7.515v12.023a7.515 7.515 0 1 0 15.03 0v-12.023a7.515 7.515 0 0 0-7.515-7.515zm147.423-369.289c-15.397-22.894-35.728-35.501-57.247-35.501-21.11 0-41.073 12.141-56.361 34.216-.017.017-.036.031-.053.048a7.471 7.471 0 0 0-1.67 2.542c-13.715 21.005-21.571 48.199-21.571 74.913 0 13.101 1.869 25.835 5.406 37.698a7.713 7.713 0 0 0-.267.996 7.516 7.516 0 0 0 3.194 7.622c3.651 9.544 8.435 18.391 14.299 26.209 13.323 17.764 30.684 28.471 49.509 30.725v26.181l-21.909-8.216a7.516 7.516 0 0 0-5.277 14.073l13.299 4.988-13.299 4.988c-3.686 1.383-5.704 5.519-4.533 9.276 1.268 4.065 5.822 6.291 9.811 4.796l21.909-8.216v42.438l-21.909-8.216a7.516 7.516 0 0 0-5.277 14.073l13.299 4.988-13.299 4.988c-3.686 1.383-5.704 5.519-4.533 9.276 1.267 4.065 5.822 6.291 9.811 4.796l21.909-8.216v42.438l-21.909-8.216a7.516 7.516 0 0 0-5.277 14.073l13.299 4.988-13.299 4.988c-3.686 1.383-5.704 5.519-4.533 9.276 1.267 4.065 5.822 6.291 9.811 4.796l21.909-8.216v33.238a7.515 7.515 0 1 0 15.03 0v-33.242l21.909 8.216c3.995 1.496 8.535-.735 9.811-4.796 1.179-3.754-.853-7.895-4.533-9.276l-13.299-4.988 13.299-4.988a7.516 7.516 0 0 0-5.277-14.073l-21.909 8.216v-42.438l21.909 8.216c3.995 1.496 8.535-.735 9.811-4.796 1.179-3.754-.853-7.895-4.533-9.276l-13.299-4.988 13.299-4.988a7.516 7.516 0 0 0-5.277-14.073l-21.909 8.216v-42.438l21.909 8.216c3.995 1.496 8.535-.735 9.811-4.796 1.179-3.754-.853-7.895-4.533-9.276l-13.299-4.988 13.299-4.988a7.516 7.516 0 0 0-5.277-14.073l-21.909 8.216v-26.181c18.825-2.254 36.186-12.961 49.509-30.725 14.594-19.46 22.632-45.215 22.632-72.524-.007-27.261-8.174-55.042-22.416-76.215zm-6.325 111.124a7.515 7.515 0 0 0 1.375 14.902c.394 0 .793-.038 1.192-.102-11.634 23.499-31.269 38.966-53.489 38.966-22.255 0-41.92-15.516-53.549-39.078a7.511 7.511 0 0 0 5.621-5.916 7.514 7.514 0 0 0-6.001-8.771l-5.809-1.089c-3.147-10.427-4.889-21.849-4.889-33.819 0-2.007.067-4.016.164-6.025l3.12 1.114c.836.299 1.688.44 2.527.44a7.518 7.518 0 0 0 7.077-4.989 7.514 7.514 0 0 0-4.55-9.604l-6.498-2.321c2.34-13.744 6.861-26.997 13.234-38.579l1.152 1.152a7.496 7.496 0 0 0 5.314 2.201 7.514 7.514 0 0 0 5.314-12.828l-3.401-3.401c9.874-12.809 21.509-20.784 33.656-23.125v3.783a7.515 7.515 0 1 0 15.03 0V95.91c11.607 2.237 22.745 9.62 32.328 21.447l-5.079 5.079a7.514 7.514 0 0 0 5.314 12.828 7.492 7.492 0 0 0 5.314-2.201l3.068-3.068c6.977 12.085 11.899 26.116 14.358 40.701l-5.463 1.821a7.514 7.514 0 0 0-4.752 9.506 7.519 7.519 0 0 0 7.128 5.14c.788 0 1.589-.125 2.378-.388l2.36-.787c.093 1.963.156 3.926.156 5.887 0 11.742-1.676 22.956-4.71 33.222l-8.99 1.685z"/><path d="M494.357 469.68l-6.396-2.437v-38.16l6.569-3.111a7.516 7.516 0 0 0-6.435-13.583l-.166.079a232.516 232.516 0 0 0-2.302-28.97l7.203-.36c4.146-.207 7.337-3.735 7.13-7.88s-3.758-7.345-7.879-7.13l-9.077.454a231.549 231.549 0 0 0-17.659-52.258l5.104-2.296a7.516 7.516 0 0 0-6.168-13.705l-5.864 2.639c-.372-.663-.74-1.328-1.119-1.987a231.704 231.704 0 0 0-15.813-23.947l4.597-1.452a7.516 7.516 0 0 0-4.525-14.332l-10.226 3.229a233.949 233.949 0 0 0-22.399-22.518l4.689-4.689a7.515 7.515 0 0 0-10.628-10.627l-5.723 5.724a232.064 232.064 0 0 0-16.984-11.902c2.912-6.811 5.271-14.01 7.085-21.561l10.204-2.149a7.515 7.515 0 0 0-3.096-14.706l-4.173.879c.97-7.42 1.471-15.127 1.471-23.111 0-3.071-.082-6.119-.227-9.148l5.367-.488a7.514 7.514 0 0 0 6.803-8.164c-.375-4.133-4.044-7.179-8.163-6.803l-5.324.484a181.38 181.38 0 0 0-7.377-32.846l5.814-.323a7.513 7.513 0 0 0 7.086-7.919 7.503 7.503 0 0 0-7.919-7.086l-10.518.584c-4.323-10.094-9.532-19.575-15.5-28.307l4.356-1.782a7.514 7.514 0 0 0 4.11-9.8 7.514 7.514 0 0 0-9.8-4.11l-8.067 3.3c-7.038-8.362-14.849-15.822-23.302-22.204l4.352-4.353a7.515 7.515 0 0 0-10.628-10.627l-6.473 6.473C298.171 6.017 277.677 0 256.007 0s-42.163 6.017-60.354 16.69l-6.473-6.473a7.515 7.515 0 0 0-10.628 10.627l4.352 4.353c-8.412 6.351-16.189 13.769-23.2 22.083l-7.653-3.532a7.514 7.514 0 0 0-9.971 3.674 7.514 7.514 0 0 0 3.674 9.972l4.629 2.137c-5.603 8.161-10.538 16.979-14.707 26.343l-4.408-3.63a7.516 7.516 0 0 0-9.555 11.602l8.195 6.749c-3.961 11.644-6.784 23.96-8.32 36.757l-7.096 1.42a7.517 7.517 0 0 0 1.465 14.885c.488 0 .984-.048 1.482-.147l2.936-.587a189.806 189.806 0 0 0-.134 6.891c0 8.014.505 15.747 1.482 23.192l-4.283-.857a7.515 7.515 0 1 0-2.946 14.738l10.16 2.032c1.813 7.541 4.169 14.732 7.077 21.536a232.226 232.226 0 0 0-16.983 11.909l-5.723-5.723a7.515 7.515 0 0 0-10.628 10.627l4.686 4.687a234.062 234.062 0 0 0-20.702 20.606l-3.134-4.701a7.512 7.512 0 0 0-10.42-2.084 7.513 7.513 0 0 0-2.084 10.42l5.628 8.442a231.952 231.952 0 0 0-17.341 25.799 231.451 231.451 0 0 0-1.996 3.531l-7.822-1.49a7.514 7.514 0 1 0-2.812 14.764l3.519.67a231.549 231.549 0 0 0-16.208 47.459l-3.15-2.4a7.514 7.514 0 1 0-9.108 11.955l9.164 6.983a232.674 232.674 0 0 0-2.561 34.405v3.027l-6.483 2.729c-3.154 1.329-5.05 4.739-4.504 8.12.582 3.598 3.776 6.322 7.422 6.322a7.47 7.47 0 0 0 2.913-.591l.65-.274v29.259h-4.509a7.515 7.515 0 1 0 0 15.03h4.509v24.548a7.515 7.515 0 1 0 15.03 0v-88.172c0-74.519 37.031-142.189 99.413-182.371 8.28 14.226 19.312 26.412 32.969 36.272a7.515 7.515 0 0 0 8.799-12.185c-29.435-21.253-44.993-55.215-44.993-98.217 0-79.834 54.162-144.783 120.736-144.783s120.736 64.949 120.736 144.783c0 43.049-15.59 77.035-45.085 98.283-3.063 2.206-4.014 6.494-2.156 9.783 2.171 3.846 7.35 4.997 10.941 2.411 13.706-9.873 24.771-22.083 33.073-36.344 62.36 40.191 99.416 107.94 99.416 182.367v88.172a7.515 7.515 0 1 0 15.03 0v-21.158l1.046.399a7.506 7.506 0 0 0 2.674.494 7.52 7.52 0 0 0 7.024-4.841 7.518 7.518 0 0 0-4.35-9.697z"/></svg>