<svg xmlns="http://www.w3.org/2000/svg" viewBox="0 0 512.003 512.003"><path d="M483.621 166.128c-14.063-14.063-31.808-23.347-51.317-26.849-17.317-3.108-34.931-1.503-51.26 4.629l-12.957-12.956c6.131-16.33 7.737-33.942 4.629-51.261-3.502-19.509-12.787-37.253-26.849-51.316-37.78-37.78-99.255-37.782-137.036 0-18.302 18.301-28.382 42.635-28.382 68.517 0 25.883 10.08 50.216 28.382 68.518a96.772 96.772 0 0 0 19.855 15.301l-25.954 25.954-11.838-11.838c-9.296-9.297-24.424-9.297-33.72 0a23.67 23.67 0 0 0-6.964 16.028c-5.814.209-11.566 2.502-15.995 6.931a23.67 23.67 0 0 0-6.964 16.028c-5.814.209-11.566 2.502-15.995 6.931a23.689 23.689 0 0 0-6.984 16.86 23.689 23.689 0 0 0 6.984 16.86l11.838 11.838-14.375 14.375-6.461-10.051a23.69 23.69 0 0 0-14.992-10.407 23.688 23.688 0 0 0-17.959 3.243 23.694 23.694 0 0 0-10.406 14.992 23.955 23.955 0 0 0-.494 6.69c-4.848-2.43-10.335-3.133-15.71-1.965a23.686 23.686 0 0 0-14.991 10.405c-6.024 9.369-4.685 21.879 3.182 29.744 1.201 1.202 21.02 14.16 21.02 14.16L2.201 407.196c-2.233 2.232-2.842 5.824-1.48 8.671 1.365 2.854 4.559 4.621 7.702 4.273l38.678-4.297-12.074 28.176c-1.73 4.036.431 8.831 4.588 10.216l47.195 15.731 5.074 35.522c.867 6.072 8.561 8.661 12.914 4.305l49.707-49.706s12.957 19.817 14.158 21.018c4.784 4.784 11.551 7.291 18.294 6.898 6.815-.398 13.258-3.787 17.437-9.188a23.87 23.87 0 0 0 4.421-9.519c1.169-5.378.464-10.871-1.97-15.721.531.035 1.061.055 1.592.055 7.849 0 15.544-3.865 20.095-10.944 3.445-5.357 4.596-11.735 3.244-17.959a23.689 23.689 0 0 0-10.406-14.992l-10.051-6.461 14.375-14.373 11.838 11.838a23.687 23.687 0 0 0 16.861 6.984c6.37 0 12.357-2.481 16.86-6.984a23.674 23.674 0 0 0 6.964-16.027c5.814-.21 11.566-2.503 15.994-6.93a23.674 23.674 0 0 0 6.965-16.027c5.814-.209 11.568-2.503 15.996-6.931 9.295-9.297 9.295-24.424 0-33.721l-11.838-11.838 25.954-25.954a96.821 96.821 0 0 0 15.3 19.855c18.893 18.893 43.701 28.338 68.518 28.336 24.81-.002 49.629-9.447 68.518-28.336 18.301-18.301 28.381-42.635 28.381-68.517-.005-25.885-10.083-50.219-28.384-68.521zM73.773 301.688c.714-3.289 3.454-5.981 6.758-6.634 3.399-.671 7.052.887 8.925 3.802l28.573 44.448-34.992-22.495c-.071-.126-.136-.253-.215-.375l-7.875-12.25a8.564 8.564 0 0 1-1.174-6.496zm31.026 186.581l-3.587-25.111a7.612 7.612 0 0 0-5.127-6.144L52.274 442.41l13.961-32.576c2.255-5.262-2.148-11.196-7.835-10.561l-30.096 3.343L65.01 365.91l50.095 32.204c.199.747.512 1.477.953 2.162l30.026 46.707-41.285 41.286zm89.144-22.205c-1.597 7.346-11.623 9.158-15.682 2.832l-33.064-51.434 34.998 22.5c.08.143.155.288.246.428l12.33 19.18a8.562 8.562 0 0 1 1.172 6.494zm19.196-43.524a8.562 8.562 0 0 1 3.763 5.422c1.601 7.361-6.755 13.162-13.092 9.087L43.098 333.734c-3.753-2.414-5.042-7.485-2.898-11.402 2.356-4.303 8.091-5.8 12.227-3.107L213.139 422.54zm-14.923-27.687l-49.349-31.725-31.724-49.348 16.714-16.714 81.073 81.073-16.714 16.714zm62.272-4.875c-3.324 3.324-8.872 3.324-12.197 0L122.018 263.703c-3.327-3.326-3.319-8.869 0-12.197 3.315-3.323 8.881-3.315 12.197 0L260.488 377.78c3.317 3.333 3.331 8.866 0 12.198zm22.958-22.959c-3.362 3.362-8.835 3.362-12.196 0L144.977 240.744c-3.327-3.326-3.319-8.869 0-12.197 3.315-3.323 8.881-3.315 12.197 0l126.273 126.274c3.317 3.333 3.331 8.867-.001 12.198zm189.411-74.617c-15.427 15.428-35.939 23.923-57.756 23.923s-42.329-8.496-57.756-23.923c-7.246-7.246-12.987-15.637-17.063-24.939-2.112-4.819-8.623-6.052-12.351-2.326l-33.364 33.364-48.655-48.654a7.608 7.608 0 0 0-10.761 0 7.608 7.608 0 0 0 0 10.761l71.255 71.256c3.363 3.363 3.363 8.835 0 12.197-3.362 3.362-8.833 3.362-12.197 0L167.936 217.786c-3.565-3.564-3.253-9.604.654-12.788 3.381-2.755 8.46-2.49 11.543.591l27.118 27.118a7.608 7.608 0 0 0 10.761 0 7.608 7.608 0 0 0 0-10.761l-4.518-4.518 33.364-33.364c3.728-3.727 2.492-10.239-2.327-12.35-9.302-4.077-17.693-9.818-24.939-17.063-15.428-15.428-23.923-35.939-23.923-57.756s8.497-42.328 23.923-57.756 35.939-23.923 57.756-23.923c21.818 0 42.329 8.496 57.756 23.923 23.974 23.973 30.672 59.525 17.063 90.572a7.613 7.613 0 0 0 1.588 8.436l20.093 20.092a7.609 7.609 0 0 0 8.436 1.589c31.048-13.607 66.599-6.911 90.572 17.063 15.428 15.428 23.923 35.939 23.923 57.756.001 21.817-8.494 42.327-23.922 57.755z"/></svg>