<svg xmlns="http://www.w3.org/2000/svg" viewBox="0 0 512 512"><path d="M503.468.064c-.69.088-69.818 9.088-144.103 30.421a7.578 7.578 0 0 0-4.13 2.96L339.863 55.59l-5.361-10.721a7.573 7.573 0 0 0-9.192-3.789c-59.337 20.001-102.716 43.436-128.935 69.655-25.11 25.11-47.286 54.041-65.99 86.065-8.503-3.3-18.537-1.538-25.39 5.315a23.572 23.572 0 0 0-6.949 16.777 23.576 23.576 0 0 0 6.949 16.777l1.488 1.488a23.715 23.715 0 0 0-7.201 4.937c-7.867 7.866-9.018 19.917-3.505 29.039a23.589 23.589 0 0 0-7.917 5.229 23.568 23.568 0 0 0-6.949 16.777 23.576 23.576 0 0 0 6.949 16.777l1.51 1.51a23.558 23.558 0 0 0-7.222 4.915 23.556 23.556 0 0 0-6.929 15.948c-5.785.208-11.509 2.491-15.916 6.897-9.251 9.251-9.251 24.303 0 33.554l.357.357-57.467 57.471c-2.757 2.756-2.94 7.311-.403 10.274 2.832 3.307 8.031 3.514 11.111.434l57.47-57.47 57.827 57.827-57.47 57.47c-2.757 2.756-2.94 7.311-.403 10.274 2.832 3.307 8.031 3.514 11.111.434l57.47-57.47.357.357c4.625 4.626 10.701 6.938 16.777 6.938s12.152-2.313 16.777-6.938c4.407-4.407 6.689-10.131 6.897-15.916a23.556 23.556 0 0 0 15.948-6.929 23.572 23.572 0 0 0 4.915-7.221l1.51 1.51c4.481 4.481 10.44 6.949 16.777 6.949s12.296-2.468 16.777-6.949a23.572 23.572 0 0 0 4.915-7.221l1.51 1.51c4.626 4.625 10.701 6.938 16.777 6.938 6.076 0 12.152-2.313 16.777-6.938a23.698 23.698 0 0 0 4.937-7.2l1.488 1.488c4.625 4.625 10.701 6.938 16.777 6.938s12.152-2.313 16.778-6.938c8.785-8.786 9.21-22.792 1.31-32.104 31.346-18.494 59.704-40.334 84.359-64.989 34.125-34.125 63.132-96.293 86.215-184.777 17.059-65.39 24.385-121.75 24.457-122.312.037-.298.058-.609.059-.91.033-4.506-4.058-8.138-8.532-7.563zM162.109 441.99c-3.346 3.346-8.79 3.347-12.137 0l-79.958-79.958c-3.066-3.066-3.33-8.121-.589-11.486 3.164-3.883 9.182-4.193 12.725-.651l79.957 79.958c3.348 3.348 3.348 8.792.002 12.137zm23.246-23.273c-3.237 3.708-9.052 3.877-12.538.429l-79.958-79.958c-3.311-3.31-3.302-8.825 0-12.137 3.298-3.307 8.836-3.298 12.136-.001l39.979 39.98 39.98 39.979c3.144 3.144 3.327 8.357.401 11.708zm39.579-5.283c-3.307 3.307-8.829 3.307-12.137 0l-17.129-17.129-.004-.004-39.98-39.98-39.979-39.979-.001-.001-17.133-17.133c-3.311-3.31-3.302-8.825 0-12.137 3.296-3.305 8.83-3.298 12.132-.005l114.235 114.236c3.341 3.346 3.34 8.787-.004 12.132zm39.978-5.711c-3.346 3.345-8.791 3.345-12.137 0l-17.124-17.124-.009-.01-114.225-114.227-.005-.005-11.417-11.417c-3.066-3.066-3.33-8.121-.589-11.486 3.168-3.888 9.177-4.198 12.725-.651l142.782 142.782c3.287 3.33 3.323 8.814-.001 12.138zm189.297-219.146a7.525 7.525 0 0 0-1.18-.101h-18.165l-9.33-18.659a7.57 7.57 0 0 0-10.159-3.386 7.57 7.57 0 0 0-3.386 10.159l8.982 17.963-23.076 23.076-26.308 5.261c-3.939.788-6.632 4.664-5.991 8.63.676 4.181 4.806 7.05 8.96 6.22l28.556-5.711a7.58 7.58 0 0 0 3.87-2.071l26.338-26.338h15.433c-15.192 40.232-34.393 77.501-58.192 101.3-24.611 24.611-53.082 46.32-84.639 64.569L294.134 357.7a7.572 7.572 0 1 0-10.708 10.708l21.467 21.467c3.346 3.346 3.346 8.791 0 12.137s-8.791 3.347-12.137 0L115.705 224.96c-3.307-3.307-3.307-8.829 0-12.137 3.346-3.345 8.791-3.345 12.137 0l128.832 128.833a7.572 7.572 0 1 0 10.708-10.708l-3.541-3.541L315.6 275.65a7.646 7.646 0 0 0 2.142-4.284l11.065-77.459 32.483-32.483a7.572 7.572 0 1 0-10.708-10.708L318.1 183.198l-77.459 11.065a7.66 7.66 0 0 0-4.322 2.18l-51.72 51.72-42.08-42.08c18.249-31.557 39.949-60.02 64.568-84.639 23.651-23.651 62.94-45.129 116.834-63.88l8.11 16.221c2.524 5.049 9.772 5.572 12.993.931l21.111-30.415c46.708-13.255 91.017-21.554 116.644-25.785l-103.64 103.641c-2.757 2.756-2.94 7.311-.403 10.274 2.832 3.307 8.031 3.515 11.111.434L493.465 29.248c-5.528 33.312-17.969 98.19-39.256 159.329zm-184.666 53.885l4.721 23.607a7.572 7.572 0 0 0 5.941 5.94l14.682 2.936-41.753 41.754-57.827-57.827 41.754-41.753 2.936 14.682a7.574 7.574 0 0 0 5.94 5.941l23.606 4.72zm-18.836-34.337l62.037-8.865-8.862 62.039-15.757-3.151-4.721-23.606a7.572 7.572 0 0 0-5.94-5.94l-23.606-4.721-3.151-15.756z"/></svg>