<svg xmlns="http://www.w3.org/2000/svg" viewBox="0 0 512 512"><path d="M119.734 220.432H39.577c-4.451 0-8.01 4.027-7.457 8.447l8.016 64.125a7.516 7.516 0 0 0 4.809 6.101 7.583 7.583 0 0 0 7.64-1.417l72.141-64.125c5.058-4.498 1.768-13.131-4.992-13.131zm-66.457 56.531L48.09 235.46h51.878l-46.691 41.503z"/><path d="M490.044 128.319a212.85 212.85 0 0 0-6.356-12.119l-.013-.023c-13.4-23.726-31.253-44.681-53.237-62.41a7.517 7.517 0 0 0-4.717-1.665H86.28a7.51 7.51 0 0 0-4.717 1.665c-22.045 17.778-39.937 38.8-53.349 62.606l-.029.051a212.671 212.671 0 0 0-6.227 11.894c-9.756 20.212-16.274 41.928-19.527 64.853l-.011.075C.82 204.531 0 216.105 0 227.945c0 34.462 6.799 66.792 20.208 96.092 12.821 28.015 31.381 52.667 55.165 73.27a232.239 232.239 0 0 0 22.266 17.018c.048.032.094.067.142.097 11.553 7.774 23.889 14.616 36.886 20.468.276.141.557.263.844.369 13.299 5.932 27.28 10.829 41.801 14.659.321.105.644.195.974.257 24.597 6.394 50.724 9.724 77.714 9.724 43.277 0 84.346-8.532 120.415-24.607a7.76 7.76 0 0 0 .439-.191c12.303-5.51 24.014-11.907 35.034-19.138.049-.033.1-.062.148-.096 8.641-5.678 16.861-11.863 24.59-18.558 23.783-20.603 42.344-45.255 55.165-73.27 7.306-15.964 12.635-32.835 15.985-50.454l.019-.098c2.786-14.687 4.204-29.89 4.204-45.54.001-35.926-7.386-69.445-21.955-99.628zM15.029 227.945c0-8.812.481-17.439 1.405-25.882l157.458 6.298L42.724 333.827c-17.823-30.787-27.695-66.656-27.695-105.882zm56.075 143.836a204.642 204.642 0 0 1-20.191-24.989L197.069 206.99c4.697-4.493 1.586-12.68-4.894-12.939l-173.6-6.944a209.79 209.79 0 0 1 4.291-18.886l232.386 17.876L71.104 371.781zm10.721 10.534l195.542-197.172c4.427-4.464 1.489-12.304-4.759-12.784L27.525 153.506a195.522 195.522 0 0 1 11.23-25.378l289.494 33.403L101.06 397.992a216.505 216.505 0 0 1-19.235-15.677zm31.883 24.206L349.591 161.01c4.229-4.402 1.487-11.974-4.557-12.672l-297.968-34.38c6.204-9.626 13.289-18.75 21.232-27.329l332.748 50.417L136.44 419.002c-7.889-3.787-15.48-7.947-22.732-12.481zm63.517 27.817a256.183 256.183 0 0 1-26.2-8.915L421.793 136.9c4.069-4.334 1.511-11.684-4.353-12.573L81.664 73.452a217.674 217.674 0 0 1 7.292-6.321h334.088c18.293 15.112 33.316 32.455 44.934 51.71L177.225 434.338zm61.256 10.031c-15.425-.863-30.331-2.854-44.615-5.911l281.743-305.722c4.724 9.508 8.668 19.432 11.84 29.727L238.481 444.369zm19.629.478l233.911-264.855a219.079 219.079 0 0 1 3.769 24.076L314.618 399.176c-3.443 3.708-2.184 9.893 2.423 11.966l37.368 16.815c-29.024 10.734-61.451 16.658-96.299 16.89zm150.048-44.868l-13.044-11.957 90.666-90.666c-14.166 41.837-41.188 77.085-77.622 102.623zm85.114-131.37L378.937 382.945c-2.984 2.982-2.872 8.005.235 10.853l15.971 14.64a235.398 235.398 0 0 1-21.726 11.593l-40.662-18.298 164.179-176.808c.012 1.007.037 2.009.037 3.021 0 14.01-1.268 27.588-3.699 40.663z"/></svg>