<svg xmlns="http://www.w3.org/2000/svg" viewBox="0 0 512 512"><path d="M105.22 18.688l388.717 260.656v-22.5L138.78 18.688h-33.56zm78.75 0l309.967 158.406v-20.97L225.063 18.69H183.97zm103.593 0l-.438 1.28 206.813 70.813V71.03L341.03 18.688h-53.467zM18.875 20.813v15.062L53.47 74.813c5.84 5.452 13.5 5.628 19 .124 5.63-5.636 5.726-13.274.405-19.03l-.094-.094-37.436-35h-16.47zm70.313 25.593c5.78 8.142 7.34 18.392 4.718 27.688a19.28 19.28 0 0 1 3.656 2.72l24.407 22.31c1-.096 1.993-.16 3-.155 7.4.03 14.8 2.816 20.5 8.124.048.046.106.078.155.125l15.594 14.155c.936-13.26-3.613-26.822-13.657-37.063l-35.657-25.468-.625-.47-.53-.53a41.43 41.43 0 0 0-21.563-11.438zM42.03 89.656c.792 9.223 4.696 18.222 11.69 25.22l.56.593.47.655 25.063 35.75c10.533 10.273 24.57 15.027 37.937 13.938l-14.125-16.625-.313-.344.032-.03c-5.307-5.824-7.88-13.28-7.75-20.69L73.374 101a18.183 18.183 0 0 1-3.06-4.375c-9.732 2.17-20.308-.296-28.283-6.97zm-23.374 19.75v33.563L254 493.97h22.5L18.656 109.405zm-18.687 5.5l-.095.063.094.124v-.188zm125.093 2.188c-2.567-.044-5.092 1.12-7.5 3.53-4.82 4.824-4.895 10.883-.313 15.75l.156.19.156.186 65.657 77.313c7.524 6.852 17.437 7.026 24.53-.063 7.246-7.242 7.38-17.267.53-24.72l-75.343-68.343-.093-.062-.063-.063c-2.566-2.423-5.15-3.674-7.718-3.718zm83.718 25.5c-1.908.01-3.82.118-5.718.28a68.613 68.613 0 0 0-14.875 2.97l33.032 29.937.28.25.25.25a36.438 36.438 0 0 1 9.406 18.845c.63.512 1.24 1.055 1.844 1.625l47.344 43.22a39.412 39.412 0 0 1 1.72-.032c10.682.055 21.378 4.164 29.78 12.03l.125.095 30.31 27.437c4.5-25.672-3.087-53.023-22.78-72.97l-58.25-41.593-.625-.468-.563-.532c-13.705-13.7-31.568-20.898-49.375-21.313-.635-.015-1.27-.035-1.906-.03zM18.657 189.156v41.094l134.78 263.72h20.97L18.656 189.155zM-.03 192.062l-.657.344.656 1.28v-1.624zm141.75 2.032c-6.78 24.135-.748 51.248 18.093 70.094l.562.593.47.658 40.78 58.156c18.35 18.12 43.006 26.56 66.563 24.53h.03c3.847-.316 7.694-.964 11.5-1.874l-28.468-33.5-.313-.375a43.162 43.162 0 0 1-10.718-21.313 35.906 35.906 0 0 1-5.814-4.468l-40.156-49c-8.756-.35-17.42-3.826-24.188-10.22l-.375-.343-.343-.405-27.625-32.53zm140.436 63.97c-5.837-.07-11.635 2.355-16.687 7.405-10.108 10.1-10.294 24.21-.626 34.467l.156.157.156.187L373.78 428.095c14.64 13.607 35.284 14.037 49.345 0 14.228-14.204 14.422-34.882.78-49.438l-.06-.062L299.28 265.78l-.06-.06-.064-.064c-5.266-4.966-11.162-7.525-17-7.594zm-263.5 32.498v57.72L68.53 493.968h19.75L18.657 290.56zm402.031 12.375c-2.976.05-6.112.327-9.656.625H411a122.405 122.405 0 0 0-33.594 7.782l59.53 53.906.283.25.25.28c7.772 8.26 12.488 18.277 14.155 28.658 4.325 2.11 8.453 4.946 12.25 8.53l29.844 27.344-.064-103.687c-20.602-15.05-45.012-22.958-69.344-23.625l-.5-.03h-.187a47.705 47.705 0 0 0-2.938-.033zm-111.625 77.875c-14.07 37.914-8.72 81.76 15.72 115.375h102.187l-25.408-30.906a47.082 47.082 0 0 1-6.437-8.592c-12.428-.866-24.67-6.003-34.406-15.188l-.376-.344-.344-.406-50.938-59.938z"/></svg>