<svg xmlns="http://www.w3.org/2000/svg" viewBox="0 0 512 512"><path d="M145.28 17.156c-10.722 0-20.276 5.363-26.124 13.532-3.28-.298-6.57-.46-9.844-.5-6.41-.078-12.785.354-18.968 1.28a96.841 96.841 0 0 0-12.313 2.657c-5.9-6.62-14.484-10.813-23.968-10.813-17.63 0-32.124 14.496-32.124 32.126 0 9.798 4.494 18.62 11.5 24.53-2.013 10.177-1.95 19.485-.25 27.907-8.033 5.853-13.282 15.32-13.282 25.938 0 17.63 14.496 32.125 32.125 32.125 8.108 0 15.544-3.07 21.22-8.094 4.63 3.03 9.4 5.94 14.22 8.812a31.98 31.98 0 0 0-.345 4.72c0 17.628 14.464 32.124 32.094 32.124a31.756 31.756 0 0 0 15.718-4.156 94.106 94.106 0 0 1 9.937 11.03c-5.673 5.806-9.188 13.726-9.188 22.407 0 15.196 10.77 28.05 25.032 31.314-.285 6.97-1.24 14.578-2.94 22.906-7.71 7.632-12.5 18.213-12.5 29.844 0 11.37 4.592 21.723 12 29.312L143.876 459.5l24.75-36.344.125-1.03 8.844-74.907.625-5.22 4.78-2.188 23.813-10.937 3.78-1.72 3.813 1.626 66.375 28.595 5.033 2.156 41.218-2.03-97.717-42.063c-.428-12.813-6.67-24.214-16.157-31.656 6.108-12.412 12.582-22.46 19.5-30.717a31.612 31.612 0 0 0 12.625 2.625c17.63 0 32.126-14.497 32.126-32.125 0-.858-.026-1.72-.094-2.563 7.24-3.022 14.84-5.583 22.782-8.063 5.75 8.83 15.705 14.72 26.937 14.72 17.63 0 32.095-14.497 32.095-32.126 0-.248.006-.5 0-.75 7.466-2.73 15.06-5.84 22.78-9.468 5.912 6.92 14.68 11.344 24.408 11.344 17.63 0 32.125-14.496 32.125-32.125 0-4.883-1.11-9.525-3.094-13.686a260.73 260.73 0 0 0 5.97-5.25c4.47-4.062 8.36-8.21 11.717-12.406 2.9.868 5.958 1.343 9.126 1.343 17.63 0 32.125-14.464 32.125-32.093 0-17.1-13.623-31.258-30.53-32.093a39.958 39.958 0 0 0-2.688-4.094c-10.114-13.47-27.91-19.66-46.812-15.906-5.88-7.822-15.236-12.907-25.688-12.907-17.63 0-32.125 14.496-32.125 32.126 0 2.676.34 5.288.97 7.78-4.606 1.48-9.358 2.69-14.22 3.688-4.69-11.954-16.39-20.5-29.937-20.5-14.21 0-26.375 9.404-30.563 22.282-.49-.056-.977-.096-1.468-.156-7.364-.893-14.776-2.13-22.19-3.656-.644-17.076-14.868-30.875-32.092-30.875-10.565 0-20.007 5.2-25.875 13.156a356.294 356.294 0 0 1-23.688-10.56c.02-.475.03-.96.03-1.44 0-17.628-14.494-32.124-32.124-32.124zm0 18.688c7.53 0 13.44 5.907 13.44 13.437 0 7.53-5.91 13.44-13.44 13.44-7.53 0-13.436-5.91-13.436-13.44 0-7.53 5.907-13.436 13.437-13.436zM54.063 42c7.53 0 13.438 5.907 13.438 13.438 0 7.528-5.908 13.437-13.438 13.437s-13.437-5.907-13.437-13.438c0-7.53 5.907-13.437 13.438-13.437zm51.438 6.938c2.534-.042 5.086.012 7.656.156v.187c0 17.63 14.496 32.126 32.125 32.126 10.5 0 19.906-5.118 25.782-13a373.562 373.562 0 0 0 23.782 10.53c-.017.424-.03.857-.03 1.283 0 17.628 14.494 32.124 32.124 32.124 11.45 0 21.556-6.134 27.25-15.25a297.73 297.73 0 0 0 24.78 4.094c1.16.14 2.31.28 3.47.406 3.92 13.317 16.293 23.156 30.812 23.156 15.15 0 27.97-10.707 31.28-24.906 7.855-1.49 15.507-3.508 22.908-6.156 5.663 4.973 13.065 8 21.125 8 17.63 0 32.125-14.497 32.125-32.126 0-.582 0-1.174-.032-1.75 10.226-1.395 18.642 2.073 23.938 7.813-8.74 5.766-14.563 15.65-14.563 26.813 0 7.753 2.798 14.9 7.44 20.468-2.504 2.893-5.383 5.845-8.72 8.875a235.977 235.977 0 0 1-5.97 5.22 31.763 31.763 0 0 0-16.467-4.594c-17.63 0-32.125 14.496-32.125 32.125 0 1.254.076 2.503.218 3.72-7.127 3.36-14.19 6.254-21.187 8.813-5.832-8.236-15.414-13.657-26.19-13.657-17.44 0-31.82 14.187-32.124 31.563-8.24 2.576-16.358 5.483-24.312 8.936-5.9-7.545-15.073-12.437-25.313-12.437-17.628 0-32.093 14.463-32.093 32.093 0 6.62 2.02 12.802 5.5 17.937-8.06 9.418-15.562 20.688-22.375 34.313a41.614 41.614 0 0 0-17.843-.063c.5-4.477.787-8.82.874-13 12.003-4.67 20.594-16.393 20.594-29.97 0-17.628-14.496-32.124-32.125-32.124-2.17 0-4.29.207-6.344.625-4.093-5.693-8.677-10.813-13.595-15.5a31.7 31.7 0 0 0 3.47-14.405c0-17.63-14.497-32.125-32.126-32.125-9.288 0-17.685 4.022-23.564 10.406-4.358-2.647-8.565-5.262-12.53-7.875a31.775 31.775 0 0 0 1.03-7.968c0-17.63-14.495-32.093-32.125-32.093-.508 0-1.026.006-1.53.03-.54-4.26-.41-8.98.47-14.344 1.013.1 2.054.156 3.093.156 17.63 0 32.124-14.496 32.124-32.124 0-1.384-.108-2.755-.28-4.094a85.555 85.555 0 0 1 7.218-1.407c3.992-.598 8.15-.93 12.375-1zm283.063 7.187c7.53 0 13.437 5.907 13.437 13.438C402 77.09 396.092 83 388.562 83s-13.437-5.907-13.437-13.438c0-7.53 5.907-13.437 13.438-13.437zM226.938 66.813c7.53 0 13.406 5.876 13.406 13.406 0 7.527-5.877 13.436-13.406 13.436-7.53 0-13.438-5.907-13.438-13.437 0-7.53 5.907-13.407 13.438-13.407zM313.25 79.22c7.53 0 13.438 5.875 13.438 13.405 0 7.53-5.908 13.438-13.438 13.438s-13.438-5.908-13.438-13.438S305.72 79.22 313.25 79.22zM462.156 89c7.53 0 13.438 5.907 13.438 13.438 0 7.528-5.908 13.406-13.438 13.406s-13.406-5.876-13.406-13.406S454.626 89 462.156 89zM52.03 120.406c7.53 0 13.44 5.876 13.44 13.406s-5.91 13.438-13.44 13.438c-7.53 0-13.436-5.907-13.436-13.438 0-7.53 5.907-13.406 13.437-13.406zm354.283 30.688c7.53 0 13.437 5.907 13.437 13.437 0 7.53-5.908 13.44-13.438 13.44s-13.437-5.91-13.437-13.44c0-7.53 5.907-13.436 13.438-13.436zm-287.094 6.844c7.53 0 13.436 5.907 13.436 13.437 0 7.53-5.908 13.438-13.437 13.438-7.53 0-13.407-5.908-13.407-13.438s5.876-13.438 13.406-13.438zm207.81 24.187c7.53 0 13.408 5.876 13.408 13.406s-5.877 13.44-13.407 13.44-13.436-5.91-13.436-13.44c0-7.53 5.907-13.405 13.437-13.405zm-81.75 28.03c7.53 0 13.44 5.877 13.44 13.407S252.81 237 245.28 237s-13.405-5.907-13.405-13.438c0-7.53 5.876-13.406 13.406-13.406zm-77.468 9.19c7.53 0 13.438 5.906 13.438 13.436s-5.908 13.44-13.438 13.44-13.437-5.91-13.437-13.44c0-7.53 5.907-13.436 13.438-13.436zm19.5 74.155c9.223 0 17.102 5.21 20.907 12.875l-1.157-.5-42.375 16.78a23.8 23.8 0 0 1-.72-5.81c0-8.078 3.988-15.13 10.126-19.314l.47.126c.04-.17.083-.33.124-.5 3.628-2.314 7.95-3.656 12.625-3.656zm23.5 54.094l-15.28 7-7.063 59.906 52.374 3.156 23.47-47.03-53.502-23.032zm129.22 28l-58.75 2.906-24.907 49.906 30.22 54.28 53.436-107.092zm-155.5 57.375l-34.626 50.874 119.97 7.25-30.47-54.813-54.875-3.31z"/></svg>