<svg xmlns="http://www.w3.org/2000/svg" viewBox="0 0 512 512"><path d="M323.512 17.348c-43.22 0-86.442 16.5-119.446 49.504-19.077 19.08-32.607 41.55-40.642 65.48a188.703 188.703 0 0 1 28.738-2.213c6.67 0 13.34.362 19.98 1.07a119.961 119.961 0 0 1 13.135-15.586c23.276-23.276 53.87-34.913 84.463-34.913 30.594 0 61.187 11.638 84.463 34.914 46.55 46.55 46.55 122.376 0 168.927-46.55 46.553-122.374 46.553-168.926 0-22.203-22.202-33.853-51.087-34.884-80.235a100.283 100.283 0 0 0-33.22 11.37c5.787 33.007 21.39 64.575 46.893 90.077 66.007 66.006 172.885 66.007 238.89 0 66.007-66.006 66.007-172.884 0-238.89-33.002-33.004-76.223-49.504-119.444-49.504zM193.668 148.715a169.466 169.466 0 0 0-44.293 5.48 169.052 169.052 0 0 0-15.61 4.895s-.002 0-.003.002h-.002a167.838 167.838 0 0 0-15.05 6.387l-.2.094a167.05 167.05 0 0 0-14.125 7.709c-.218.133-.437.265-.655.4a166.938 166.938 0 0 0-8.85 5.84c-.25.178-.5.36-.75.54-1.214.866-2.42 1.75-3.615 2.654-.255.193-.512.385-.767.58a169.73 169.73 0 0 0-8.234 6.713c-.297.258-.592.52-.887.78-1.067.94-2.124 1.9-3.172 2.87-.293.272-.587.54-.88.815a170.923 170.923 0 0 0-3.856 3.728C25.276 245.645 11.932 314.2 32.687 373.518v.002c.452 1.288.92 2.573 1.402 3.853l.002.002a167.702 167.702 0 0 0 12.52 26.094c7.092 11.998 15.793 23.308 26.107 33.622 66.005 66.006 172.883 66.006 238.89 0 19.07-19.072 32.625-41.558 40.675-65.482a189.187 189.187 0 0 1-48.765 1.142 119.367 119.367 0 0 1-13.123 15.588c-46.552 46.55-122.377 46.55-168.928 0v-.002c-.728-.727-1.445-1.46-2.15-2.2v-.003c-.704-.74-1.398-1.488-2.08-2.242v-.002c-.68-.754-1.352-1.515-2.01-2.283v-.002c-.66-.767-1.31-1.54-1.945-2.322v-.002c-.636-.78-1.26-1.565-1.875-2.358v-.002a117.33 117.33 0 0 1-1.806-2.397v-.002a124.82 124.82 0 0 1-1.74-2.428v-.002a121.195 121.195 0 0 1-1.67-2.465v-.002c-.546-.827-1.08-1.66-1.602-2.496v-.002c-.523-.838-1.035-1.68-1.535-2.528v-.002c-.5-.847-.988-1.7-1.465-2.556v-.003c-.477-.857-.944-1.718-1.398-2.584v-.002c-.455-.865-.9-1.736-1.33-2.61v-.003a117.653 117.653 0 0 1-2.456-5.296v-.003c-.386-.89-.76-1.786-1.125-2.684v-.002a119.848 119.848 0 0 1-2.045-5.433v-.002a117.032 117.032 0 0 1-1.773-5.507v-.002a116.77 116.77 0 0 1-.783-2.777v-.002c-.25-.928-.49-1.858-.717-2.79v-.003a118.68 118.68 0 0 1-.648-2.807v-.002c-.205-.937-.397-1.877-.58-2.818v-.002c-.18-.94-.35-1.884-.51-2.828v-.002c-.16-.944-.307-1.89-.444-2.838v-.002c-.136-.947-.26-1.896-.375-2.846v-.002c-.113-.95-.215-1.9-.306-2.85v-.003a124.3 124.3 0 0 1-.24-2.86v-.002c-.07-.952-.125-1.905-.17-2.86v-.002c-.046-.954-.08-1.91-.102-2.865v-.002c-.023-.954-.035-1.91-.035-2.864v-.002c0-.956.012-1.91.035-2.866v-.002a119.19 119.19 0 0 1 .272-5.727v-.002c.068-.954.15-1.908.24-2.86v-.002c.09-.95.193-1.9.306-2.85v-.003c.114-.95.24-1.897.375-2.845v-.002c.137-.947.285-1.893.444-2.838v-.002c.16-.944.33-1.887.51-2.828v-.002c.183-.94.375-1.88.58-2.818v-.002c.204-.937.42-1.874.648-2.807v-.002c.227-.933.467-1.862.717-2.79v-.003c.25-.927.51-1.853.783-2.776v-.002c.273-.923.556-1.844.852-2.762v-.002c.295-.918.603-1.832.92-2.744v-.002c.638-1.824 1.32-3.636 2.046-5.434v-.002c.364-.898.74-1.792 1.125-2.683v-.002a125.793 125.793 0 0 1 2.454-5.298v-.002c.433-.875.877-1.745 1.332-2.61v-.003c.454-.867.92-1.727 1.398-2.584v-.002c.477-.856.965-1.71 1.465-2.556v-.002c.5-.848 1.012-1.69 1.535-2.527v-.002c.522-.838 1.056-1.67 1.602-2.496v-.002a118.47 118.47 0 0 1 1.67-2.465v-.002c.57-.816 1.15-1.625 1.74-2.43v-.002a117.33 117.33 0 0 1 1.806-2.397v-.003a120.703 120.703 0 0 1 3.819-4.683v-.002c.658-.768 1.33-1.53 2.01-2.283v-.003c.682-.755 1.376-1.5 2.08-2.243v-.002c.705-.74 1.422-1.474 2.15-2.2v-.003c.025-.027.05-.05.077-.077l26.113-21.768c10.24-5.893 34.254-13.07 58.272-13.07 14.34 0 28.682 2.558 42.27 7.672v.002c.906.34 1.808.69 2.706 1.054l.002.002c.898.363 1.793.737 2.684 1.123h.002c13.372 5.797 25.89 14.15 36.8 25.06 22.208 22.21 33.815 51.078 34.833 80.253a100.32 100.32 0 0 0 33.31-11.402c-5.8-32.976-21.438-64.566-46.93-90.06l-.002-.002-.008-.008a169.232 169.232 0 0 0-2.916-2.84c-.276-.264-.555-.522-.832-.783a182.22 182.22 0 0 0-2.098-1.945c-.366-.333-.734-.66-1.102-.99-.638-.57-1.28-1.138-1.925-1.697-.373-.323-.745-.646-1.12-.965-.69-.59-1.386-1.17-2.084-1.746-.338-.28-.675-.562-1.015-.838-.913-.742-1.83-1.472-2.756-2.192-.098-.076-.193-.154-.29-.23-.222-.17-.446-.336-.667-.506-.8-.614-1.603-1.223-2.412-1.82-.437-.323-.877-.64-1.317-.957-.628-.455-1.26-.907-1.892-1.353a178.553 178.553 0 0 0-4.694-3.186c-.602-.395-1.208-.78-1.814-1.166-.478-.304-.955-.612-1.436-.91-.667-.415-1.34-.82-2.01-1.223-.914-.55-1.83-1.09-2.75-1.62-.543-.314-1.084-.63-1.628-.937-.598-.336-1.2-.662-1.803-.99-.516-.28-1.03-.562-1.548-.838a166.262 166.262 0 0 0-3.267-1.693 182.48 182.48 0 0 0-2.125-1.057c-.28-.136-.56-.268-.84-.402a167.7 167.7 0 0 0-8.795-3.922c-.882-.363-1.768-.714-2.654-1.06a109.492 109.492 0 0 0-3.392-1.287c-.23-.085-.462-.168-.693-.252-.924-.334-1.848-.663-2.776-.98l-.075-.026c-.073-.025-.147-.047-.22-.072a168.765 168.765 0 0 0-12.626-3.75c-.093-.023-.184-.05-.276-.072a159.108 159.108 0 0 0-3.102-.754l-.097-.024c-.037-.01-.075-.016-.112-.025a169.539 169.539 0 0 0-36.775-4.368z"/></svg>