<svg xmlns="http://www.w3.org/2000/svg" viewBox="0 0 512 512"><path d="M256.658 33.29c-40.364 0-78.028 11.684-109.803 31.84L111.62 39.41l13.59 41.51c-45.212 37.708-74.017 94.442-74.017 157.834a205.28 205.28 0 0 0 6.8 52.508l-36.866 26.66 45.875-.1c29.36 70.23 96.61 120.75 176.115 125.94l14.928 46.29 8.892-27.574 6.1-18.912c78.268-6.19 144.272-56.354 173.28-125.75l48.644.106-39.192-28.344a205.441 205.441 0 0 0 6.355-50.824c0-62.37-27.886-118.298-71.846-155.998l14.19-43.348-36.53 26.662c-32.08-20.734-70.288-32.78-111.28-32.78zm8.62 18.868c31.497 1.427 60.94 10.632 86.466 25.735L334.3 90.623a165.368 165.368 0 0 0-69.02-18.994V52.157zm-18.688.065v19.502a165.38 165.38 0 0 0-65.932 18.076l-17.55-12.81c24.775-14.343 53.16-23.162 83.482-24.767zM368.498 89.23L332.94 197.853a88.645 88.645 0 0 0-21.33-24.88l56.888-83.745zm-220.3.012l90.683 66.186a87.467 87.467 0 0 0-31.083 13.074L148.2 89.242zm117.08 1.108c18.46 1.054 36 5.49 52.02 12.683l-52.02 37.97V90.35zm-18.688.093v47.48l-48.82-35.632a147.32 147.32 0 0 1 48.82-11.847zm-115.123 9.596l6.832 20.87c-16.81 17-29.99 37.592-38.28 60.512L80.9 175.27c10.506-29.136 28.042-54.893 50.567-75.23zm252.512 1.958c21.174 19.718 37.757 44.3 47.97 71.988l-19.08 6.14c-7.967-21.47-20.244-40.856-35.768-57.116l6.877-21.012zm-239.074 39.1l20.04 61.214-47.178-15.18c6.22-17.04 15.49-32.598 27.138-46.034zm225.512 2.332c10.435 12.55 18.843 26.845 24.69 42.41l-43.114 13.873 18.424-56.283zm-113.756 28.875c38.362 0 69.258 30.896 69.258 69.257 0 38.362-30.896 69.258-69.258 69.258-38.36 0-69.258-30.896-69.258-69.257 0-38.362 30.897-69.258 69.258-69.258zm180.867 19.52c3.87 14.992 5.93 30.718 5.93 46.93 0 13.372-1.417 26.404-4.08 38.974L421.09 264.5c1.39-8.65 2.13-17.517 2.13-26.555 0-13.77-1.69-27.15-4.853-39.955l19.164-6.166zM75.456 193.15l19.213 6.182a166.498 166.498 0 0 0-4.524 38.613 167.1 167.1 0 0 0 2.41 28.32L74.31 279.464a187.742 187.742 0 0 1-4.455-40.707c0-15.737 1.95-31.012 5.602-45.606zm325.1 10.57a148.688 148.688 0 0 1 3.302 48.319L356.6 217.862l43.955-14.142zm-288.063 1.346l44.768 14.405-47.573 34.405a149.638 149.638 0 0 1-.858-15.93 148.86 148.86 0 0 1 3.662-32.88zm231.574 26.79l92.065 66.583-94.992-32.47a87.451 87.451 0 0 0 3.467-24.408c0-3.28-.186-6.517-.54-9.705zm-170.41 38.697a88.071 88.071 0 0 0 16.37 28.316l-109.76.24 93.39-28.557zm16.86 47l-27.745 34.666a148.37 148.37 0 0 1-30.66-34.538l58.405-.13zm135.837.002l54.905.12a148.329 148.329 0 0 1-28.574 32.78l-26.33-32.9zm76.48.168l23.163.05c-11.475 24.58-28.135 46.242-48.588 63.573l-13.117-16.39a167.626 167.626 0 0 0 38.54-47.233zm-292.308.006a167.654 167.654 0 0 0 40.643 48.99l-13.14 16.415a187.172 187.172 0 0 1-50.706-65.356l23.203-.05zm182.153 4.05l-34.57 107.193v-99.485c12.292-.2 23.984-2.932 34.57-7.71zm17.76 5.798l27.287 34.092a147.14 147.14 0 0 1-44.596 19.59l17.31-53.682zm-104.57.7l17.32 53.695a147.007 147.007 0 0 1-45.235-18.813l27.916-34.883zm143.52 47.964l13.174 16.46c-24.23 16.688-52.602 27.8-83.28 31.495l7.222-22.396c22.93-4.16 44.24-13.023 62.885-25.558zm-183.12 1.516c18.88 12.246 40.385 20.774 63.474 24.543l7.166 22.22a185.777 185.777 0 0 1-83.853-30.25l13.214-16.512z"/></svg>