<svg xmlns="http://www.w3.org/2000/svg" viewBox="0 0 512 512"><path d="M440.625 41.625c-17.75 0-32.313 14.595-32.313 32.344 0 .438.014.876.032 1.31a709.08 709.08 0 0 0-29.906 10c-5.897-8.132-15.456-13.468-26.188-13.468-17.75 0-32.344 14.564-32.344 32.313 0 1.794.15 3.563.438 5.28a578.889 578.889 0 0 0-28.438 14.532c-5.82-5.57-13.664-9.03-22.28-9.03-17.75 0-32.345 14.594-32.345 32.343 0 3.397.543 6.664 1.532 9.75a508.647 508.647 0 0 0-28.312 21.594 31.964 31.964 0 0 0-14.188-3.313c-17.75 0-32.312 14.596-32.312 32.345 0 4.202.83 8.213 2.313 11.906a496.86 496.86 0 0 0-24.344 27.407 31.867 31.867 0 0 0-11.032-1.968c-17.75 0-32.344 14.593-32.344 32.343 0 7.448 2.58 14.35 6.875 19.843a543.691 543.691 0 0 0-16.876 28.25 32.207 32.207 0 0 0-6.53-.656c-17.75 0-32.314 14.563-32.314 32.313 0 9.81 4.46 18.642 11.438 24.593a642.713 642.713 0 0 0-9.782 24.313c-.548-.03-1.1-.033-1.656-.033-17.75 0-32.344 14.595-32.344 32.344 0 11.224 5.847 21.162 14.625 26.97-2.732 9.76-5.292 19.74-7.718 29.906H43.5a784.545 784.545 0 0 1 6.406-24.53c17.678-.087 32.157-14.648 32.157-32.345 0-10.61-5.21-20.087-13.188-26a631.72 631.72 0 0 1 9.188-23.124c1.312.165 2.645.25 4 .25 17.75 0 32.343-14.594 32.343-32.344 0-8.953-3.728-17.097-9.687-22.968a525.55 525.55 0 0 1 15.53-26.28 31.883 31.883 0 0 0 10.688 1.842c17.75 0 32.343-14.594 32.343-32.344 0-7.384-2.55-14.218-6.78-19.687a474.17 474.17 0 0 1 20.97-23.813c5.317 3.85 11.825 6.125 18.843 6.125 17.75 0 32.343-14.563 32.343-32.312 0-6.14-1.76-11.9-4.78-16.813a483.33 483.33 0 0 1 24.936-18.875c5.64 4.768 12.92 7.657 20.813 7.657 17.75 0 32.344-14.595 32.344-32.344 0-2.648-.327-5.218-.94-7.688a556.63 556.63 0 0 1 27.25-13.812c5.937 6.56 14.51 10.72 23.97 10.72 17.75 0 32.344-14.596 32.344-32.345 0-.502-.008-1.003-.03-1.5 9.8-3.49 19.755-6.762 29.842-9.844 5.885 8.17 15.466 13.532 26.22 13.532 16.575 0 30.4-12.735 32.155-28.874a889.813 889.813 0 0 1 22.064-4.626v-19.03a873.595 873.595 0 0 0-25.563 5.312c-5.42-10.344-16.256-17.47-28.655-17.47zm0 18.688c7.65 0 13.656 6.006 13.656 13.656s-6.005 13.655-13.655 13.655c-7.65 0-13.625-6.006-13.625-13.656s5.975-13.657 13.625-13.657zM352.25 90.5c7.65 0 13.656 5.975 13.656 13.625S359.9 117.78 352.25 117.78s-13.656-6.005-13.656-13.655c0-7.65 6.006-13.625 13.656-13.625zm142.594 12.53c-15.862 2.592-27.806 16.822-27.125 33.25.028.705.112 1.404.186 2.095a723.476 723.476 0 0 0-18.594 4.875c-6.018-9.355-16.697-15.428-28.53-14.938-17.735.736-31.736 15.923-31 33.657.01.28.043.562.062.843a568.814 568.814 0 0 0-15.22 6.125c-6.17-8.496-16.34-13.902-27.53-13.438-17.734.735-31.704 15.922-30.97 33.656.116 2.77.57 5.455 1.345 8a459.784 459.784 0 0 0-19.783 12.063c-6.202-6.308-14.922-10.08-24.375-9.69-17.733.737-31.704 15.924-30.968 33.657a31.917 31.917 0 0 0 4.28 14.688 404.282 404.282 0 0 0-15.186 14.125 32.055 32.055 0 0 0-17.5-4.344c-17.734.736-31.705 15.923-30.97 33.656.29 6.986 2.835 13.383 6.876 18.532a406.021 406.021 0 0 0-12.594 18.062 31.926 31.926 0 0 0-11.875-1.75c-17.734.736-31.735 15.923-31 33.656.398 9.588 5.035 18.06 12 23.72a461.344 461.344 0 0 0-7.97 18.218c-1.648-.192-3.323-.29-5.03-.22-17.734.737-31.704 15.892-30.97 33.626.467 11.224 6.705 20.93 15.72 26.375-2.977 10.897-5.67 22.1-8.094 33.626h19.064a572.68 572.68 0 0 1 7.062-29c17.675-.8 31.61-15.964 30.875-33.656-.39-9.437-4.873-17.812-11.655-23.47 2.547-6.262 5.177-12.404 7.938-18.405a31.85 31.85 0 0 0 4.718.156c17.735-.734 31.705-15.92 30.97-33.655-.293-7.064-2.88-13.54-7-18.72 4.01-6.162 8.187-12.14 12.47-17.967a31.888 31.888 0 0 0 12.124 1.843c17.734-.734 31.704-15.92 30.97-33.655a31.956 31.956 0 0 0-3.72-13.688c5.1-5.014 10.33-9.86 15.687-14.562a32.019 32.019 0 0 0 16.47 3.78c17.734-.734 31.704-15.92 30.97-33.655a32.001 32.001 0 0 0-.69-5.375c6.9-4.457 13.96-8.722 21.158-12.813 6.01 5.16 13.88 8.164 22.343 7.813 17.735-.735 31.705-15.922 30.97-33.656-.003-.064.003-.126 0-.19a552.321 552.321 0 0 1 15.563-6.218c6.206 8.175 16.18 13.33 27.125 12.875 17.105-.71 30.716-14.864 31-31.78a731.33 731.33 0 0 1 20.906-5.407c4.898 5.79 11.78 9.827 19.5 11.094v-19.28c-4.812-1.93-8.237-6.477-8.47-12.064-.248-5.997 3.258-11.13 8.47-13.22v-19.25zm-225.22 30.564c7.65 0 13.657 6.006 13.657 13.656s-6.005 13.656-13.655 13.656c-7.65 0-13.656-6.006-13.656-13.656s6.005-13.656 13.655-13.656zm151.907 13.375c7.645-.318 13.903 5.45 14.22 13.093.317 7.643-5.45 13.87-13.094 14.187-7.643.317-13.87-5.42-14.187-13.063-.318-7.643 5.418-13.9 13.06-14.218zm-73.655 27.218c7.643-.317 13.902 5.42 14.22 13.062.316 7.643-5.452 13.87-13.095 14.188-7.644.316-13.87-5.42-14.188-13.063-.316-7.643 5.42-13.87 13.063-14.188zm139.688 14.906a32.446 32.446 0 0 0-1.97.03c-16.177.672-29.205 13.377-30.812 29.064-9.245 2.683-18.338 5.576-27.25 8.718-6.248-7.28-15.63-11.768-25.874-11.344-17.734.736-31.704 15.923-30.97 33.657.033.766.104 1.528.19 2.28a357.812 357.812 0 0 0-24.126 13.97c-5.705-4.165-12.772-6.533-20.313-6.22-17.733.735-31.704 15.922-30.968 33.656a31.78 31.78 0 0 0 2.25 10.5 297.24 297.24 0 0 0-22.908 24.25 31.922 31.922 0 0 0-13.406-2.344c-17.734.736-31.704 15.923-30.97 33.657.338 8.116 3.72 15.445 8.97 20.936-5.584 10.4-10.684 21.328-15.312 32.78-.094.005-.187-.002-.28.002-17.735.735-31.706 15.922-30.97 33.656.418 10.087 5.514 18.955 13.094 24.594-1.802 7.87-3.395 15.94-4.813 24.218h18.97a441.196 441.196 0 0 1 3.56-17.844c.943.045 1.886.04 2.845 0 17.734-.735 31.704-15.922 30.97-33.656-.46-11.043-6.522-20.612-15.314-26.094a310.425 310.425 0 0 1 13.406-28.406c2.736.63 5.604.903 8.532.78 17.734-.734 31.704-15.92 30.97-33.655-.262-6.287-2.356-12.082-5.72-16.936a280.697 280.697 0 0 1 20.03-21.25c5.6 3.903 12.466 6.083 19.75 5.78 17.735-.734 31.705-15.92 30.97-33.655a31.852 31.852 0 0 0-1.97-9.845 340.753 340.753 0 0 1 20.22-11.656c6.24 7.355 15.664 11.895 25.97 11.467 17.732-.735 31.734-15.922 30.998-33.656a32.405 32.405 0 0 0-.218-2.468 488.624 488.624 0 0 1 23.312-7.468c5.695 10.602 17.13 17.684 29.875 17.156a32.247 32.247 0 0 0 6.564-.97v-20.218a13.434 13.434 0 0 1-7.344 2.532c-7.63.316-13.902-5.463-14.22-13.094-.315-7.63 5.464-13.87 13.095-14.188a13.418 13.418 0 0 1 8.47 2.532v-20.25c-2.347-.6-4.784-.95-7.283-1zm-291.25 4.875c7.65 0 13.656 6.005 13.656 13.655 0 7.65-6.007 13.625-13.657 13.625s-13.625-5.975-13.625-13.625 5.974-13.656 13.625-13.656zm77.78 24.25c7.644-.318 13.903 5.418 14.22 13.06.316 7.645-5.45 13.903-13.094 14.22-7.645.317-13.872-5.45-14.19-13.094-.316-7.643 5.42-13.87 13.064-14.187zm128.313 16c7.644-.318 13.902 5.45 14.22 13.093.316 7.643-5.42 13.87-13.063 14.187-7.644.317-13.902-5.42-14.22-13.063-.316-7.643 5.42-13.9 13.063-14.218zm-271.469 29.436c7.65 0 13.657 6.006 13.657 13.656s-6.006 13.657-13.656 13.657-13.657-6.007-13.657-13.658c0-7.65 6.007-13.656 13.657-13.656zm83.75 12.688c7.644-.317 13.902 5.42 14.22 13.062.316 7.644-5.42 13.87-13.063 14.188-7.644.317-13.902-5.42-14.22-13.063-.316-7.642 5.42-13.87 13.064-14.186zm112.532 1.594c7.642-.317 13.9 5.42 14.217 13.062.317 7.643-5.45 13.87-13.093 14.188-7.644.316-13.87-5.42-14.188-13.063-.317-7.644 5.42-13.87 13.063-14.188zm123.155 7.53c-.55-.005-1.102.01-1.656.032-17.735.735-31.705 15.922-30.97 33.656.01.272.044.543.063.813-6.877 2.38-13.507 5.056-19.875 8.06-5.933-4.86-13.587-7.65-21.782-7.31-17.734.734-31.704 15.92-30.97 33.655a31.942 31.942 0 0 0 1.94 9.72c-7.352 7.58-13.99 15.87-19.938 24.842a31.99 31.99 0 0 0-10.688-1.375c-17.734.736-31.704 15.892-30.97 33.625.46 11.084 6.564 20.685 15.408 26.157a261.48 261.48 0 0 0-4.563 18.75c-14.832 2.044-26.397 14.252-27.78 29.062h18.842c1.282-5.94 6.374-10.39 12.782-10.656 6.795-.28 12.49 4.268 13.874 10.656h18.875c-1.067-11.547-8.272-21.3-18.19-26.125a241.943 241.943 0 0 1 4.126-16.874c.094-.003.187.004.28 0 17.735-.735 31.706-15.89 30.97-33.625-.303-7.322-3.074-14.01-7.47-19.28a155.37 155.37 0 0 1 15.877-20.063c5.687 4.136 12.736 6.468 20.25 6.157 17.733-.736 31.735-15.923 31-33.656a32.047 32.047 0 0 0-1.344-8c5.107-2.313 10.434-4.393 15.936-6.282 6.215 8.084 16.127 13.17 27 12.72 14.41-.598 26.336-10.74 29.906-24.032a299.9 299.9 0 0 1 13.532-.75v-18.688c-4.79.162-9.51.424-14.156.78-4.348-12.695-16.42-21.83-30.313-21.967zm-.875 18.72c7.643-.317 13.87 5.42 14.188 13.062.316 7.643-5.42 13.902-13.063 14.22-7.644.316-13.87-5.452-14.188-13.095-.316-7.644 5.42-13.87 13.063-14.188zm-72.594 35.218c7.644-.317 13.902 5.42 14.22 13.063.316 7.642-5.42 13.87-13.063 14.186-7.644.317-13.902-5.42-14.22-13.062-.316-7.644 5.42-13.87 13.063-14.188zm-294.844 4.03c7.65.002 13.657 5.976 13.657 13.627 0 7.65-6.007 13.656-13.657 13.656s-13.626-6.007-13.626-13.658c0-7.65 5.975-13.625 13.626-13.625zm180.125.533c7.644-.318 13.87 5.45 14.188 13.092.317 7.644-5.42 13.87-13.063 14.188-7.643.317-13.87-5.42-14.187-13.063-.317-7.643 5.42-13.9 13.063-14.218zm-96.062.874c7.643-.317 13.902 5.42 14.22 13.062.316 7.644-5.452 13.902-13.095 14.22-7.643.316-13.87-5.45-14.188-13.095-.316-7.642 5.42-13.87 13.063-14.186zm320.906 7.47c-.54.008-1.09.024-1.624.06-14.956 1.05-27.77 12.548-29.844 27.938a32.104 32.104 0 0 0-.156 7.22c-5.63 2.33-11.127 5.22-16.406 8.593-5.044-3.776-11.217-6.128-17.938-6.406-17.733-.737-32.92 13.234-33.656 30.967-.4 9.64 3.56 18.505 10.094 24.72-2.776 6.484-5.05 13.435-6.72 20.812-14.393 2.407-25.54 14.432-26.905 28.936h18.875c1.274-5.94 6.342-10.39 12.75-10.656 6.797-.28 12.516 4.268 13.906 10.656h18.844c-1.092-11.87-8.634-21.855-18.97-26.53 1.235-5.224 2.784-10.18 4.658-14.813a32.21 32.21 0 0 0 4.437.5c17.734.735 32.92-13.235 33.656-30.97a31.854 31.854 0 0 0-1.967-12.437 85.96 85.96 0 0 1 12.28-6.187c5.03 6.333 12.4 10.813 20.97 11.967 3.944.53 7.847.316 11.53-.53v-19.938c-2.584 1.62-5.715 2.382-9.03 1.936-7.57-1.02-12.74-7.776-11.72-15.344 1.02-7.57 7.775-12.706 15.344-11.687 2.015.27 3.825.945 5.407 1.938v-19.938a31.586 31.586 0 0 0-2.906-.53 32.52 32.52 0 0 0-4.907-.283zm-169.75 53.905c7.645-.318 13.872 5.418 14.19 13.06.316 7.645-5.42 13.903-13.064 14.22-7.643.317-13.87-5.42-14.187-13.063-.318-7.643 5.418-13.9 13.06-14.218zm101.595 2.155c.466-.026.93-.02 1.406 0 7.645.317 13.412 6.575 13.095 14.22-.317 7.642-6.575 13.378-14.22 13.06-7.642-.316-13.378-6.574-13.06-14.217.296-7.166 5.797-12.666 12.78-13.063zm-284.72 11.813c7.645-.317 13.872 5.45 14.19 13.093.316 7.645-5.42 13.872-13.064 14.19-7.642.316-13.9-5.42-14.218-13.064-.316-7.643 5.45-13.902 13.094-14.22zm-84.405 4.437c7.65 0 13.625 6.006 13.625 13.656S57.4 451.94 49.75 451.94s-13.656-6.007-13.656-13.657 6.006-13.655 13.656-13.655zm174.844 6.75c7.643-.317 13.87 5.42 14.187 13.063.318 7.643-5.418 13.9-13.06 14.218-7.645.317-13.903-5.45-14.22-13.094-.317-7.643 5.45-13.87 13.094-14.187zm262.25 24.438c-17.014.167-31.288 13.82-32 31-.12 2.86.15 5.66.75 8.343h19.875a13.538 13.538 0 0 1-1.94-7.594c.318-7.63 6.558-13.378 14.19-13.062 2.68.11 5.097.982 7.124 2.375V456.75a32.625 32.625 0 0 0-8-.936z"/></svg>