<svg xmlns="http://www.w3.org/2000/svg" viewBox="0 0 32 32"><path d="M21.81 10.513a34.05 34.05 0 0 0-1.325-4.221l.081.239a15.16 15.16 0 0 1-3.936.518l-.064-.001a221.42 221.42 0 0 0-.124 3.518l-.014.603c.068.001.134.005.202.005h.032c1.829 0 3.603-.241 5.29-.692l-.143.032zm-1.772-5.314A39.479 39.479 0 0 0 17.444.072a18.978 18.978 0 0 0-.539-.038 347.901 347.901 0 0 0-.278 5.584h.005c1.202 0 2.345-.153 3.406-.419zm3.085-1.256C21.564 2.049 20.166.791 19.786.461a6.674 6.674 0 0 0-.42-.099l-.1-.018a38.268 38.268 0 0 1 2.056 4.157l.102.269a10.326 10.326 0 0 0 1.744-.853l-.045.026zm8.457 8.402a16.523 16.523 0 0 1-1.96 1.576l-.056.036a15.088 15.088 0 0 1 .175 2.238c0 .891-.072 1.765-.209 2.617l.012-.093a19.063 19.063 0 0 0 2.465-1.676l-.038.029c.024-.355.04-.71.04-1.07a16.067 16.067 0 0 0-.452-3.767l.022.11zM24.267 29.68a16.055 16.055 0 0 0 2.836-2.164l-.006.006c-.506.175-1.025.333-1.55.484-.463.65-.883 1.196-1.321 1.726l.041-.051zm-2.149-17.776c-1.636.444-3.515.699-5.453.699h-.035.002c-.08 0-.16-.005-.24-.006a233.94 233.94 0 0 0-.055 2.584l-.004.295a86.26 86.26 0 0 0-.011.881 25.575 25.575 0 0 0 6.257-.818 25.745 25.745 0 0 0-.488-3.8l.028.165zm4.649 14.224c.97-.333 1.736-.644 2.483-.989l-.166.069a15.747 15.747 0 0 0 2.621-6.1l.017-.101a22.47 22.47 0 0 1-2.551 1.495c-.546 2.084-1.428 3.983-2.404 5.626zm-4.161-9.127c-1.884.486-4.05.773-6.28.788h-.01c0 1.453.02 2.889.054 4.267a30.052 30.052 0 0 0 5.99-.643l-.195.034c.257-1.406.421-2.898.441-4.446zm2.179-14.366a15.272 15.272 0 0 0-1.65-.949l-.092-.041c.403.435.814.905 1.21 1.385l.044.056c.169-.149.34-.295.488-.451zm-4.604 28.801c.229-.063.459-.124.684-.195a27.225 27.225 0 0 0 2.441-2.677c-.624.13-1.262.236-1.906.331a31.904 31.904 0 0 1-1.305 2.717l.087-.176zm4.439-4.645c1.058-1.546 2.102-3.411 2.807-5.486a25.5 25.5 0 0 1-3.835 1.269l-.188.04a32.853 32.853 0 0 1-1.465 4.964l.077-.228a29.386 29.386 0 0 0 2.816-.608l-.211.048zm-7.777 5.174a16.411 16.411 0 0 0 1.563-.155l-.088.011c.44-.729.911-1.622 1.336-2.54l.075-.181a33.04 33.04 0 0 1-3.045.159h-.013c.062 1.098.123 2.019.172 2.707zm5.102-25.879c.417 1.054.843 2.39 1.192 3.758l.054.249a15.474 15.474 0 0 0 3.144-1.497l-.066.038a26.232 26.232 0 0 0-2.32-3.646l.047.065c-.586.377-1.262.724-1.97 1.005l-.081.028zm-.095 16.86a30.355 30.355 0 0 1-5.424.533h-.018c.05 1.574.114 3.044.182 4.347a33.882 33.882 0 0 0 3.947-.253l-.163.016c.533-1.275 1.039-2.824 1.429-4.419l.047-.225zM28.855 6.48a16.218 16.218 0 0 0-2.892-2.989l-.033-.025a8.911 8.911 0 0 1-.748.722l-.012.01a26.799 26.799 0 0 1 2.219 3.453l.072.145c.513-.406.968-.837 1.384-1.304l.01-.011zm.412 5.965a14.106 14.106 0 0 0 1.864-1.636l.005-.006a15.864 15.864 0 0 0-1.506-3.188l.039.068c-.479.505-.993.965-1.543 1.381l-.031.023c.445.946.846 2.063 1.143 3.223l.029.135zm-1.28.852a17.495 17.495 0 0 0-1.151-3.495l.045.111a16.762 16.762 0 0 1-3.259 1.537l-.121.037c.235 1.175.403 2.393.484 3.636a19.916 19.916 0 0 0 4.003-1.825zm.319 2.702c-.011-.442-.04-.862-.086-1.277l.006.065a21.24 21.24 0 0 1-4.04 1.77l-.155.043v.133c0 1.538-.125 3.046-.366 4.516l.022-.16a24.961 24.961 0 0 0 4.384-1.588l-.153.065c.261-1.144.409-2.337.388-3.566zM4.409 27.017a16.204 16.204 0 0 0 3.936 3.031l.084.042a29.755 29.755 0 0 1-1.693-2.183l-.063-.095a27.347 27.347 0 0 1-2.457-.865l.193.07zM3.216 20.62a21.888 21.888 0 0 1-3.022-1.799l.068.046a15.834 15.834 0 0 0 2.277 5.772l-.038-.062c.803.438 1.777.884 2.781 1.268l.173.058c-.905-1.558-1.717-3.339-2.239-5.282zM4.508 8.556a11.526 11.526 0 0 1-1.602-1.678l-.019-.026a15.731 15.731 0 0 0-1.936 3.713l-.035.111a14.004 14.004 0 0 0 2.102 1.856l.042.028a19.734 19.734 0 0 1 1.449-4.004zm5.719 18.681c-.489-1.255-.95-2.788-1.298-4.363l-.041-.219a27.4 27.4 0 0 1-4.111-1.316l.184.067c.676 1.956 1.649 3.72 2.646 5.205.848.243 1.722.453 2.619.626zm-7.61-11.262c.011-.647.068-1.283.157-1.909a16.503 16.503 0 0 1-2.321-1.858l.005.005A15.618 15.618 0 0 0 0 16.003c0 .31.011.615.029.921a18.816 18.816 0 0 0 2.707 1.851l.095.049a15.713 15.713 0 0 1-.215-2.63l.002-.231v.012zm9.909 13.057a28.096 28.096 0 0 0 1.548 2.976l-.072-.13c.4.054.887.095 1.379.114l.03.001c-.049-.709-.112-1.647-.175-2.757a35.399 35.399 0 0 1-2.873-.219l.164.016zm-3.594-.61c1.373 1.731 2.546 2.813 2.733 2.981.163.045.327.089.491.131a29.484 29.484 0 0 1-1.23-2.522l-.083-.215a30.508 30.508 0 0 1-2.13-.418l.218.043zm3.425-23.478c.88.29 1.831.501 2.841.601.108-2.546.215-4.501.275-5.528-.205.007-.411.011-.614.025a39.29 39.29 0 0 0-2.502 4.902zm2.8 22.85c-.056-.95-.121-2.456-.17-3.965l-.009-.358a31.481 31.481 0 0 1-4.729-.517l.193.03c.428 1.776.92 3.285 1.514 4.741l-.079-.219c1.069.15 2.163.247 3.28.288zM4.048 15.999a14.997 14.997 0 0 0 .406 3.651 23.97 23.97 0 0 0 3.971 1.426l.177.04a27.087 27.087 0 0 1-.349-4.397v-.09.005a21.88 21.88 0 0 1-4.246-1.808l.112.057c-.036.323-.062.71-.071 1.101v.015zm5.528-14.64a16.32 16.32 0 0 0-1.531.767c.124.163.276.314.421.469.39-.456.752-.858 1.125-1.251l-.014.015zm.962 8.892c1.307.427 2.826.73 4.396.849l.066.004c.042-1.468.089-2.855.139-4.128a14.533 14.533 0 0 1-3.423-.739l.102.031a32.256 32.256 0 0 0-1.224 3.734l-.056.249zm4.346 7.515a26.72 26.72 0 0 1-5.389-.779l.184.039c.026 1.589.186 3.123.471 4.613l-.027-.167c1.537.311 3.149.505 4.814.567a174.214 174.214 0 0 1-.054-4.272zm.007-1.43a355.532 355.532 0 0 1 .071-3.801 21.013 21.013 0 0 1-4.894-.937l.149.041a24.733 24.733 0 0 0-.51 3.861l-.003.067c1.629.419 3.368.688 5.187.769zM9.549 3.561c.438.315.938.591 1.464.843A39.674 39.674 0 0 1 13.159.081l-.105.198c-.132.025-.264.05-.395.078l.012.015c-.035.029-1.449 1.217-3.122 3.189zm-1.989.144a7.894 7.894 0 0 1-.695-.799l-.014-.02a16.255 16.255 0 0 0-3.044 2.771l-.019.023a9.552 9.552 0 0 0 1.385 1.577l.007.007a28.268 28.268 0 0 1 2.425-3.619l-.046.06zm-3.215 9.692a19.455 19.455 0 0 0 3.809 1.724l.142.041a28.05 28.05 0 0 1 .59-4.2l-.034.185a16.223 16.223 0 0 1-3.226-1.724l.055.036a17.88 17.88 0 0 0-1.335 3.938zm1.982-5.208a14.314 14.314 0 0 0 2.755 1.525l.096.036c.424-1.629.868-2.97 1.385-4.274l-.087.248a11.088 11.088 0 0 1-1.844-1.092l.031.022a26.882 26.882 0 0 0-2.266 3.399l-.071.137z"/></svg>