<svg xmlns="http://www.w3.org/2000/svg" viewBox="0 0 32 32"><path d="M28.218 26.33a15.846 15.846 0 0 0 3.79-10.314v-.014.001c0-7.127-4.685-13.178-11.135-15.243l-.001-.001h-.001a14.655 14.655 0 0 0-2.095-.517l-.095-.014-.001-.001-.001.001a15.66 15.66 0 0 0-2.675-.229h-.001c-4.637 0-8.817 1.984-11.742 5.146a4.574 4.574 0 0 0-.331.268l.005-.005.045.049A15.93 15.93 0 0 0-.001 16.002c0 7.937 5.808 14.54 13.396 15.788l.051.062.05-.043a16.06 16.06 0 0 0 2.506.198 15.9 15.9 0 0 0 7.535-1.89l.062.055c.014-.014.064-.076.129-.159a16.23 16.23 0 0 0 4.315-3.483l.016-.019c.095-.095.15-.159.165-.177l-.007-.005zm-8.423 3.865c.086-.146.175-.303.265-.469.147-.02.303-.036.445-.058a6.09 6.09 0 0 1-.291.418l.011-.015a8.479 8.479 0 0 1-.429.123zM6.33 26.05l.161.054c.075.205.15.402.227.59a11.396 11.396 0 0 1-.355-.581l-.033-.062zm-.844-1.757c-.07-.157-.176-.432-.275-.71l-.037-.121c.19.078.387.155.592.232.068.284.142.544.215.807a13.886 13.886 0 0 1-.633-.264l.138.055zM25.656 5.78c-.068-.026-.146-.05-.216-.075-.096-.236-.19-.467-.287-.681.156.213.323.46.503.756zm.935 1.835c.104.246.205.508.306.781a24.141 24.141 0 0 0-.637-.227 24.777 24.777 0 0 0-.236-.815c.201.087.387.175.567.261zm-.412 16.94c.07-.26.14-.523.206-.804.179-.067.353-.135.521-.203a17.16 17.16 0 0 1-.318.823c-.134.063-.261.123-.408.184zm-.477 1.599l-.045.081.026-.074.02-.008-.001.001zm-9.54 2.519l-.121-1.136c.081.001.154.006.235.006h.011c-.03.446-.057.826-.079 1.13h-.045zM8.495 16.072c0-.205.011-.392.014-.59.286-.026.566-.053.869-.077-.003.202-.007.4-.007.606 0 .229.004.45.007.672-.304-.016-.594-.034-.871-.051-.003-.19-.012-.368-.012-.559zm15.156-.094c0 .232-.011.447-.014.672-.206.012-.42.022-.64.033.005-.234.009-.469.009-.709 0-.194-.004-.382-.007-.573l.64.055c.003.177.011.342.011.522zm-.109 2.874c-.211.037-.422.075-.643.11.017-.202.038-.535.055-.87l.004-.091c.221-.011.436-.02.643-.032-.014.304-.037.592-.059.882zm1.381-.96c.507-.032.829-.056 1.15-.083l-.22.015c-.009.187-.024.362-.036.545-.297.075-.607.15-.932.221.014-.23.028-.46.039-.697zm-14.24-1.883c0-.241.012-.462.015-.697.288-.017.589-.032.89-.047-.01.405-.023.802-.023 1.225 0 .096.002.186.003.282a68.311 68.311 0 0 1-.869-.03c-.004-.246-.016-.478-.016-.732zm1.013-3.115a33.85 33.85 0 0 0-.056.949l-.004.104c-.303.014-.614.027-.902.044.017-.354.044-.688.069-1.026.286-.027.594-.047.894-.071zm-.769-1.259c.031-.271.057-.552.093-.811.285-.032.585-.058.883-.085-.032.266-.059.546-.087.823-.303.022-.599.046-.888.072zm10.766 4.339c0 .263-.013.507-.018.764-.242.009-.492.016-.749.024.003-.241.007-.482.007-.73 0-.26-.004-.513-.008-.767l.752.043c.003.225.015.436.015.666zm-3.609.845c0-.253-.003-.501-.007-.748l.001.042c-.01-.478-.018-.809-.027-1.139l.004.193c.536.01 1.051.024 1.55.041.004.276.015.539.015.824 0 .263-.012.507-.014.764-.485.011-.992.018-1.521.024zm-5.205-.33c0-.442.014-.859.024-1.281.342-.012.691-.022 1.049-.03-.013.251-.026.59-.033.93l-.001.042c-.004.206-.004.433-.001.67l-1.035-.016c-.001-.106-.003-.207-.003-.314zm2.352-.314c.006-.305.018-.647.037-1.017.327-.003.643-.009.982-.009.167 0 .327.001.49.003.011.351.018.683.024.986.004.218.006.452.006.693a250.1 250.1 0 0 1-.878.002l-.662-.002a23.392 23.392 0 0 1 .001-.674v.02zm5.657-2.229a42.015 42.015 0 0 0-.06-1.126l.007.135c.251.024.497.049.737.075.024.316.051.626.068.956.012-.003-.25-.017-.511-.031l-.242-.01zm-1.32-.054a82.262 82.262 0 0 0-1.461-.039l-.095-.001c-.012-.351-.026-.715-.041-1.087.529.019 1.039.046 1.534.079.024.343.045.689.062 1.049zm-2.87-.054l-.448-.002c-.313 0-.602.006-.904.009.024-.355.051-.726.081-1.108.199-.002.384-.009.588-.009.222 0 .426.009.643.011.016.377.028.744.041 1.099zm-2.671.024c-.368.008-.722.019-1.072.031.019-.364.035-.735.062-1.083.359-.018.712-.04 1.089-.051-.03.38-.056.748-.079 1.103zm-2.436 4.223c.011.393.026.777.044 1.149-.276-.029-.561-.054-.827-.087a29.836 29.836 0 0 1-.069-.992l-.004-.098c.276.011.562.02.856.028zm1.313.033c.339.007.686.013 1.047.016.016.406.039.836.065 1.28-.366-.015-.712-.041-1.06-.066a41.227 41.227 0 0 1-.05-1.154l-.002-.075zm2.363.025l.625.002.863-.002a90.53 90.53 0 0 1-.035 1.305c-.233.003-.453.013-.694.013-.24 0-.46-.012-.693-.014a82.227 82.227 0 0 1-.066-1.305zm2.803-.01l1.502-.022c-.022.513-.047.94-.079 1.364l.008-.135c-.471.034-.958.06-1.463.08.014-.443.026-.872.032-1.288zm2.821-.055c.255-.008.503-.015.744-.024-.026.469-.053.846-.087 1.222l.009-.131c-.236.028-.48.053-.727.077.024-.372.046-.752.061-1.145zm.529 2.408c-.042.346-.085.69-.136 1.018-.219.03-.445.057-.67.083.041-.333.077-.676.11-1.026.237-.025.466-.049.696-.075zm1.354-.175c.221-.033.436-.066.647-.1-.036.32-.068.646-.112.95-.214.043-.432.086-.657.126.044-.317.084-.643.121-.976zm.19-6.233c-.02-.42-.038-.724-.058-1.026l.008.152c.221.032.427.068.64.102.018.276.044.54.057.827l-.647-.054zm-.167-2.224c-.03-.282-.062-.559-.096-.831.219.034.431.069.64.105.035.265.066.542.096.821-.212-.033-.42-.065-.639-.095zm-1.351-.166c-.229-.024-.478-.041-.715-.063-.04-.437-.072-.732-.108-1.026l.017.167c.239.023.475.048.703.074.039.272.07.563.103.848zm-2.055-.166c-.358-.026-.87-.053-1.384-.072l-.089-.003c-.012-.286-.024-.573-.038-.862.491.016.962.042 1.42.072.035.277.062.574.092.865zm-2.788-.097c-.2-.003-.386-.011-.589-.011-.163 0-.318.003-.479.004l.075-.857c.16-.002.308-.009.471-.009.164 0 .322.003.483.005.014.291.028.58.039.868zm-2.389.017c-.448.012-.82.027-1.191.045l.123-.005c.032-.288.066-.565.101-.84.343-.02.682-.042 1.042-.055l-.075.855zm-.773-2.134c.073-.443.15-.87.232-1.276.282-.016.569-.03.862-.039l-.125 1.276c-.33.011-.653.024-.97.04zm-1.357.09c-.29.024-.573.049-.851.077.078-.435.164-.849.253-1.247.267-.034.539-.064.819-.092-.046.191-.123.619-.192 1.05l-.028.212zm-2.222.239c-.28.039-.555.078-.82.121.075-.406.156-.791.242-1.163.259-.054.525-.105.8-.153-.051.209-.129.614-.198 1.022l-.024.173zm-.195 1.364c-.013.066-.044.332-.072.598l-.015.176c-.29.035-.573.072-.848.11.028-.25.055-.506.087-.747.276-.048.555-.095.848-.139zm-2.29 1.098c-.511.085-.816.144-1.12.207l.218-.038c.026-.219.051-.44.081-.651.285-.072.586-.142.897-.21-.027.225-.053.457-.076.691zm-.113 1.362c-.017.27-.033.544-.044.825-.321.035-.635.07-.931.108.013-.26.037-.499.055-.749.066-.023.377-.087.689-.147l.23-.037zm1.342-.224c.281-.042.56-.084.859-.122-.016.211-.035.547-.05.883l-.003.083c-.302.022-.585.048-.87.074.015-.317.041-.614.064-.917zm.808 4.761c.014.324.033.641.054.951-.305-.051-.591-.106-.878-.161-.018-.28-.041-.55-.055-.841.28.017.572.035.879.051zm.172 2.311c.036.344.074.682.118 1.009a28.94 28.94 0 0 1-.892-.173c-.041-.314-.074-.652-.108-.984.286.051.579.1.882.148zm1.351.18c.257.03.518.058.785.083.028.359.06.708.096 1.047a28.59 28.59 0 0 1-.923-.11l.171.019a19.104 19.104 0 0 1-.113-.864l-.016-.175zm2.112.191c.343.022.695.041 1.053.055.025.35.052.706.081 1.065a35.122 35.122 0 0 1-1.151-.068l.118.007c-.021-.155-.057-.52-.089-.886l-.012-.174zm2.374.088c.201.003.399.007.605.007.219 0 .43-.004.644-.007-.015.354-.032.71-.049 1.066-.203.003-.402.007-.61.007-.173 0-.339-.005-.508-.007-.03-.36-.056-.716-.082-1.068zm2.566-.03a47.373 47.373 0 0 0 1.538-.08l-.145.008c-.052.531-.095.891-.143 1.25l.022-.199a36.77 36.77 0 0 1-1.32.083c.018-.355.034-.71.049-1.062zm1.073 2.312a35.35 35.35 0 0 1-.163.89c-.347.026-.706.045-1.073.061.016-.291.034-.588.049-.888.478-.017.89-.04 1.3-.07l-.113.007zm1.361-.118c.209-.022.418-.045.62-.07a26.99 26.99 0 0 1-.194.877 7.181 7.181 0 0 1-.42.057l-.158.016c.053-.285.102-.579.15-.88zm2.007-.266c.223-.037.441-.074.655-.114-.053.288-.112.557-.171.827-.211.045-.428.089-.65.131.058-.274.114-.555.167-.844zm2.047-.407c.318-.075.622-.153.917-.233-.045.251-.096.483-.146.721-.288.096-.59.188-.909.278.05-.25.095-.504.138-.766zm.202-1.413c.036-.289.068-.586.097-.888.32-.067.632-.135.928-.205-.03.282-.058.564-.093.833a25.56 25.56 0 0 1-.932.261zm2.388-1.454c.303-.089.591-.178.861-.267-.028.225-.06.443-.093.658-.262.113-.545.227-.848.341.026-.244.055-.479.079-.731zm.091-1.399c.005-.097.011-.192.014-.29.334-.035.632-.069.896-.102l-.008.09c-.147.061-.447.164-.749.26l-.153.042zm2.648-1.041l-.155-.552c.324.082.584.156.775.215-.159.098-.362.21-.57.313l-.05.023zm-1.694-.685c-.123.021-.435.06-.748.094l-.163.015c.001-.129.008-.249.008-.381 0-.032-.003-.06-.003-.094.328.054.631.108.911.162 0 .072-.005.136-.006.204zm-2.216-.272c0 .176-.009.335-.011.506-.288.024-.598.047-.928.07.003-.198.007-.393.007-.593 0-.131-.003-.257-.004-.386.326.037.634.075.93.116.002.098.007.188.007.288zm-.968-1.733a32.931 32.931 0 0 0-.042-.812l.005.1c.321.066.629.133.924.202.014.207.032.406.041.62a14.29 14.29 0 0 0-.705-.09l-.223-.02zm-.141-2.081a30.71 30.71 0 0 0-.101-.959l.017.175c.314.07.611.142.896.215.034.244.066.494.094.75-.288-.064-.596-.122-.907-.181zm-.281-2.177a33.731 33.731 0 0 0-.187-1.037c.29.077.565.157.833.238.075.318.148.644.215.988a9.253 9.253 0 0 0-.645-.151l-.215-.038zm-1.383-.25a5.688 5.688 0 0 0-.44-.071l-.185-.022a27.055 27.055 0 0 0-.259-1.359l.038.211c.211.039.417.079.619.121.08.36.155.731.227 1.12zm-2.003-.261c-.034-.008-.261-.03-.488-.052l-.17-.013c-.065-.42-.131-.827-.205-1.216.206.024.408.05.608.077.09.386.176.784.255 1.204zm-2.01-.166c-.3-.019-.749-.04-1.199-.055l-.09-.002c-.019-.424-.04-.844-.06-1.257.384.017.756.042 1.12.07.081.399.159.81.229 1.245zm-2.604-.083c-.142-.001-.28-.004-.424-.004-.118 0-.23.003-.347.003l.125-1.275c.199.001.391.004.585.007l.06 1.269zm-.511-2.587l.118-1.106c.073 0 .14.004.213.005l.056 1.106c-.128-.001-.255-.004-.386-.004zm.26-2.416l.002-.018.001.018h-.003zm-1.583 2.432c-.236.007-.47.015-.699.026.096-.388.193-.756.293-1.104.167-.01.35-.009.522-.014.026-.374-.015.002-.054.378l-.061.716zm-2.085.119c-.258.022-.511.046-.76.073.105-.374.213-.725.323-1.059.234-.032.463-.066.706-.093-.045.13-.138.492-.225.856l-.045.223zm-2.184.256a40.97 40.97 0 0 0-.756.127c.1-.346.206-.67.311-.982.23-.053.48-.097.722-.145-.096.319-.189.652-.278.999zm-2.215.436c-.259.063-.508.128-.752.196.093-.293.189-.571.286-.836.225-.079.466-.154.706-.229-.083.277-.162.569-.24.869zm-.336 1.455c-.043.174-.112.535-.175.899l-.024.168c-.297.06-.581.123-.858.187.07-.353.146-.685.225-1.01.265-.084.543-.165.831-.244zm-2.461 1.618c-.287.083-.559.166-.817.251.058-.259.121-.502.186-.744.243-.115.504-.23.781-.344-.055.267-.102.554-.15.837zm-.211 1.452c-.023.191-.052.37-.072.568-.31.077-.603.155-.878.233.022-.172.046-.339.071-.505.272-.098.565-.197.88-.296zm-.178 1.957c-.012.201-.022.404-.031.611-.322.049-.626.098-.911.148.009-.17.02-.334.032-.498.279-.087.585-.174.911-.261zm-.977 2.106c.284-.051.588-.102.915-.154 0 .059-.004.112-.004.172 0 .064.004.122.004.185a17.024 17.024 0 0 1-1.03-.181l.116.02-.001-.043zm2.224.017c0-.123.007-.238.009-.36.297-.039.606-.076.93-.114-.002.152-.005.301-.005.455 0 .156.003.307.005.46a42.086 42.086 0 0 1-.93-.09c-.002-.12-.008-.229-.008-.351zm.969 1.762c.009.219.02.435.032.647a19.746 19.746 0 0 1-1.104-.283l.173.042c-.011-.167-.024-.323-.032-.494.289.031.599.06.932.087zm.131 2.037c.03.318.062.629.098.934-.51-.133-.817-.224-1.121-.32l.203.055a16.91 16.91 0 0 1-.091-.752l-.012-.139c.296.075.603.151.923.222zm.294 2.35c.039.245.08.485.123.719a18.076 18.076 0 0 1-1.021-.317l.148.044c-.047-.223-.095-.442-.138-.676.284.079.581.156.888.23zm1.384.3c.286.055.582.105.885.154.047.277.097.548.15.811a25.471 25.471 0 0 1-.878-.183c-.055-.257-.109-.508-.158-.782zm2.264.348c.225.027.456.05.689.073.04.293.083.577.127.853a21.172 21.172 0 0 1-.761-.095l.121.014c-.06-.274-.121-.551-.176-.845zm2.029.183c.317.02.642.037.972.049.026.294.051.588.078.88a31.517 31.517 0 0 1-.912-.055 11.718 11.718 0 0 1-.113-.668l-.026-.207zm2.295.081c.133.001.263.005.398.005.184 0 .362-.005.543-.007l-.049.889c-.123.001-.244.005-.37.005-.15 0-.294-.005-.442-.006-.028-.295-.054-.59-.08-.886zm.522 2.204c.099 0 .194-.003.293-.004-.018.303-.038.595-.055.876-.034 0-.064.003-.098.003-.128 0-.244-.008-.37-.009-.029-.286-.058-.575-.086-.869.106 0 .209.004.316.004zm1.468 2.163l.341-.012c-.142.406-.281.768-.418 1.096.021-.302.048-.667.076-1.085zm.088-1.321l.055-.877c.29-.012.576-.026.856-.042-.077.313-.157.603-.238.888a34.21 34.21 0 0 1-.673.032zm2.3-1.029c.17-.016.334-.037.5-.057-.093.314-.187.61-.285.897-.145.016-.287.035-.436.05.076-.285.15-.58.221-.89zm1.935-.258c.218-.037.432-.074.642-.113-.087.315-.178.612-.269.898-.2.04-.417.072-.626.107.087-.286.17-.585.252-.892zm2.095-.43a28.4 28.4 0 0 0 .872-.234c-.083.305-.169.589-.257.864-.266.083-.55.162-.844.239.078-.276.156-.569.229-.869zm2.678-2.283c.034-.192.064-.396.095-.595.264-.09.517-.179.756-.27-.042.187-.092.358-.137.537-.221.108-.46.218-.714.328zm2.322-1.495c.296-.144.569-.284.81-.417-.259.235-.54.459-.836.662l-.027.017c.016-.088.036-.173.053-.263zm.241-1.616c.016-.15.024-.315.04-.471.52-.211.93-.403 1.329-.612l-.084.04c-.011.077-.018.153-.031.23-.203.16-.613.456-1.254.812zm.143-4.1l-.003-.123c.251.102.479.2.668.288a9.03 9.03 0 0 0-.54-.14l-.124-.024zm-1.321-.27c-.068-.02-.378-.074-.689-.125l-.223-.03c-.007-.153-.009-.313-.015-.462.326.094.632.186.915.279.007.11.009.226.012.337zm-1.032-2.019c-.022-.235-.051-.458-.077-.685.316.102.612.206.882.307.031.209.064.414.09.632a28.306 28.306 0 0 0-.896-.253zm-.282-2.135c-.049-.288-.097-.576-.152-.849.279.108.54.217.783.324.067.253.131.511.19.782a9.83 9.83 0 0 0-.654-.214l-.166-.043zm-2.024-2.85a24.545 24.545 0 0 0-.756-.189 22.76 22.76 0 0 0-.319-1.178l.052.203c.241.069.479.139.701.211.11.301.218.617.322.953zm-2.205-.491a5.798 5.798 0 0 0-.433-.081l-.165-.023a22.748 22.748 0 0 0-.355-1.246l.05.183c.197.038.39.075.578.116.112.33.22.681.325 1.051zm-2.034-.304a9.588 9.588 0 0 0-.402-.046l-.133-.011a23.08 23.08 0 0 0-.323-1.287l.046.188c.156.018.313.037.465.057.12.346.235.711.348 1.098zm-1.927-.173a46.402 46.402 0 0 0-.885-.048c-.018-.383-.038-.754-.056-1.108.222.011.424.032.64.046.103.349.203.719.301 1.11zm-1.007-2.471l-.041-.777c.099.242.2.506.301.787l-.26-.01zm-1.077-2.189l.067-.574c.091.15.199.343.322.578l-.389-.005zm-1.475 1.343l-.093.836c-.083.003-.167.003-.249.007.104-.302.206-.583.305-.842l.037-.001zm-1.775.935c-.194.017-.395.03-.584.049.123-.299.243-.575.362-.83.171-.018.33-.041.506-.058a9.55 9.55 0 0 0-.23.645l-.055.194zm-2.093.255a26.77 26.77 0 0 0-.636.118c.129-.301.257-.58.382-.833.186-.037.38-.07.576-.104a19.6 19.6 0 0 0-.322.82zm-2.215.476c-.18.047-.367.093-.54.142.145-.3.287-.571.423-.814.144-.044.287-.088.439-.131-.108.252-.215.518-.322.802zm-2.24.717l-.226.089c.184-.305.357-.561.515-.779-.097.216-.193.45-.29.69zm-.594 1.694c-.065.212-.128.427-.19.653-.217.077-.427.154-.629.234.077-.206.152-.412.232-.601.186-.095.381-.19.587-.286zM3.635 9.139a15.05 15.05 0 0 0-.814.454c.159-.15.458-.405.902-.724-.029.092-.06.175-.088.27zm-.514 2.198a16.08 16.08 0 0 0-1.143.517c.162-.156.557-.506 1.228-.938-.028.14-.059.276-.085.421zm-.233 1.548c-.013.117-.02.243-.033.362-.576.204-1.032.395-1.376.553l.026-.158c.171-.117.62-.402 1.382-.757zm-.147 2.091a24.97 24.97 0 0 0-1.281.306c.165-.095.583-.314 1.29-.59-.005.092-.005.19-.009.284zm-.022 1.356c.002.195.01.381.016.571l-.014.029a13.44 13.44 0 0 1-.87-.45l.073.038c.219-.056.49-.119.795-.188zm1.344 1.124c.258.048.557.098.907.148.003.078.002.164.006.241a18.631 18.631 0 0 1-1.063-.385l.152.053-.001-.058zm1.009 1.822c.023.275.051.538.08.802a18.563 18.563 0 0 1-.864-.358c-.035-.246-.075-.484-.104-.741.28.101.575.2.888.298zm.277 2.288c.031.192.062.383.095.569a16.642 16.642 0 0 1-.879-.396l.122.053c-.041-.169-.083-.338-.122-.513.248.097.511.192.784.288zm1.911 2.625c.261.077.534.152.813.225.07.293.142.575.216.846a16.01 16.01 0 0 1-.917-.263l.146.04a10.746 10.746 0 0 1-.223-.706l-.035-.142zm2.256.553c.278.055.564.108.858.157.074.298.15.588.229.866a22.407 22.407 0 0 1-1-.186l.163.029a20.837 20.837 0 0 1-.249-.865zm2.285.36l.553.064c.061.299.123.589.188.865-.164-.016-.325-.036-.485-.055-.05-.134-.138-.426-.22-.72l-.037-.154zm1.918.173c.255.015.513.03.776.041l.087.873c-.229-.011-.438-.03-.659-.043-.07-.277-.138-.567-.204-.871zm.997 2.23c.041.399.082.78.121 1.139l-.13-.003a14.053 14.053 0 0 1-.366-1.019l-.037-.134c.135.007.274.011.412.017zm4.268 1.031c.131-.344.263-.716.394-1.121.106-.009.215-.016.32-.026-.206.501-.377.87-.559 1.233l.05-.111c-.071.009-.134.018-.206.026zm-.559 1.357l-.071.118c.018-.04.038-.076.056-.116l.015-.001zm2.77-2.68c.204-.028.4-.06.595-.092-.186.471-.341.82-.508 1.163l.045-.103c-.179.037-.376.068-.564.1.144-.33.288-.687.432-1.069zm2.127-.385c.262-.059.512-.122.756-.184-.132.32-.264.619-.391.879-.229.082-.468.162-.723.239.121-.291.24-.602.357-.934zm5.636-3.908a5.672 5.672 0 0 1-.585.46l-.019.013c.066-.203.13-.402.191-.618.254-.139.485-.274.697-.406-.091.186-.186.37-.284.552zm1.13-2.781l.011-.006-.003.013-.007-.007zm-.776-6.734c-.014-.16-.023-.33-.041-.485.818.403 1.196.698 1.207.707l.016-.021c.016.101.034.204.047.305a14.054 14.054 0 0 0-1.112-.467l-.119-.039zm-.262-2.04c-.034-.189-.074-.364-.11-.546a8.75 8.75 0 0 1 1.06.724c.034.104.064.209.095.315-.258-.14-.601-.305-.952-.456l-.093-.036zm-.528-2.273c-.045-.158-.096-.301-.144-.452.295.207.488.367.582.45.055.102.106.206.159.311a8.986 8.986 0 0 0-.521-.274l-.077-.034zm-5.241-4.839c.154.272.314.578.481.923-.175-.047-.358-.091-.54-.135a18.583 18.583 0 0 0-.415-1.041l.054.138c.141.039.288.076.42.116zm-1.611.465c-.175-.032-.343-.065-.524-.093a19.85 19.85 0 0 0-.379-.922c.16.024.32.049.473.075.139.283.283.596.429.94zm-2.043-.295l-.346-.037a18.157 18.157 0 0 0-.371-1.048l.053.155c.08.007.168.01.246.016.137.28.276.582.418.914zm-1.238-2.287a10.795 10.795 0 0 0-.217-.455l.048.105c.071.105.148.222.23.353l-.062-.003zm-4.322.033l-.309.021c.212-.353.391-.613.509-.771l.152-.02c-.108.221-.227.483-.351.77zm-1.922.191c-.139.018-.271.04-.406.06.199-.3.353-.502.431-.598.104-.028.209-.056.315-.081-.108.186-.223.392-.34.619zM10 2.75l-.039.009.011-.012-.091-.091.228-.103-.109.198zM1.332 15.277l.022.034-.021.006h-.002l.001-.04zm1.487 3.164c.016.188.028.381.047.563-.769-.441-1.224-.8-1.408-.958a9.703 9.703 0 0 1-.037-.292c.373.206.836.441 1.398.687zm-.964 1.503c.327.206.731.432 1.146.64l.088.04c.018.108.042.205.062.312a9.319 9.319 0 0 1-1.292-.976l-.005-.016zm1.704 2.766c.066.238.134.467.205.691a7.32 7.32 0 0 1-.741-.514l.015.012c-.119-.223-.232-.45-.34-.68.259.16.544.324.861.492zm5.042 4.933c-.14-.257-.309-.606-.465-.963l-.039-.1c.211.055.423.11.646.163.133.385.267.743.402 1.073-.192-.057-.368-.116-.544-.173zm1.656-.598c.259.045.518.091.791.131.143.412.288.795.433 1.149-.249-.041-.494-.081-.726-.125a13.919 13.919 0 0 1-.459-1.041l-.04-.113zm2.271.312l.373.039c.123.418.247.806.371 1.158-.089-.009-.168-.02-.255-.028-.122-.25-.286-.635-.44-1.027l-.049-.142zm1.281 2.547c.104.233.206.446.3.631-.11-.164-.243-.38-.391-.638l.091.007zm2.578.781l-.08-.703c.203-.001.393-.011.588-.014a8.679 8.679 0 0 1-.418.714l-.09.002zm3.724-28.783c.079.103.18.248.297.42-.112-.014-.223-.029-.339-.042-.124-.23-.211-.382-.301-.532l.038.068c.102.027.205.057.305.086zm-8.243 28.196a6.474 6.474 0 0 1-.282-.398l-.016-.026c.179.027.37.049.558.072.09.178.178.343.263.499a12.952 12.952 0 0 1-.634-.176l.112.029z"/></svg>