<svg xmlns="http://www.w3.org/2000/svg" viewBox="0 0 32 32"><path d="M30.462 25.871c.012-.013.03-.031.034-.037l-.006-.004a.613.613 0 0 1-.028.042zM32.008 15.4a16.145 16.145 0 0 0-.559-3.876l.026.113c-1.954 1.178-6.386 3.035-14.941 3.035-8.946 0-13.881-2.014-15.966-3.158a15.55 15.55 0 0 0-.567 3.809v.021c1.604.899 6.748 3.279 16.26 3.279 9.425 0 14.212-2.303 15.749-3.223z"/><path d="M.039 17.02a15.99 15.99 0 0 0 .519 2.973c.946.688 5.795 3.818 15.739 3.818 8.846 0 13.5-2.476 15.051-3.502.306-1.035.52-2.108.613-3.215-2.265 1.16-7.177 2.988-15.701 2.988-8.742 0-13.908-1.917-16.221-3.063zm30.982-6.819a15.988 15.988 0 0 0-1.736-3.392l.036.057c-1.779 1.202-5.745 3.112-13.025 3.112-7.079 0-11.35-2.032-13.419-3.389a15.8 15.8 0 0 0-1.809 3.396l-.037.11c1.697.973 6.46 3.119 15.503 3.119 8.89.001 13.013-2.03 14.487-3.012z"/><path d="M1.354 22.191a15.943 15.943 0 0 0 1.866 3.178l-.029-.04c1.335.909 5.477 3.21 13.206 3.21 7.279 0 11.008-2.124 12.378-3.144a15.846 15.846 0 0 0 1.715-2.834l.041-.098c-2.489 1.247-7.033 2.808-14.236 2.808-7.744 0-12.528-1.804-14.943-3.079z"/><path d="M6.211 28.418a15.786 15.786 0 0 0 9.767 3.356h.025-.001.016c3.555 0 6.837-1.167 9.484-3.138l-.042.03c-2.173.737-5.122 1.332-9.063 1.332-4.501 0-7.83-.742-10.185-1.58zM24.265 2.043A15.637 15.637 0 0 0 20.144.272l-.111-.026c-.819.281-2.008.568-3.557.624-.145.006-.29.009-.433.009a13.46 13.46 0 0 1-4.035-.643A15.881 15.881 0 0 0 7.61 2.119l.067-.039c1.676.751 4.497 1.623 8.619 1.623 4.062.001 6.564-.892 7.969-1.66z"/><path d="M28.449 5.691a16.219 16.219 0 0 0-2.801-2.715l-.04-.029c-1.472.959-4.342 2.216-9.312 2.216-5.08 0-8.33-1.237-10.02-2.132a16.338 16.338 0 0 0-2.485 2.365l-.019.023c1.921 1.223 5.933 3.099 12.521 3.099 6.915.001 10.585-1.774 12.156-2.826z"/></svg>