<svg xmlns="http://www.w3.org/2000/svg" viewBox="0 0 32 32"><path d="M16.004 0a15.93 15.93 0 0 0-7.957 2.12l.789.47h2.553l.867.644.275.021.651-.658.72.024.956.142.603.305L21.9 3.4l1.765.747-.249.212-1.308-.212-.021.253.478.329-.623.125v.374l-1.288.084.976.913.166.748-.438.228-1.369-1.121v-.52l.331-.519-.249-.312-1.496.997-1.184-.104-.394-.29-.499.707.229.457 1.724.207.692.789-.173.229-.539-.541-.25.27.422.557-.091 1.046-1.106-.001-.055.844.935.568.325.429-.492.131-1.745-1.33h-.561l.021 1.08 1.268 1.329.097.963-.639.532-1.452.52.144.54-.264.187-.296-.457.042-.353-.519-.166-.292.394.041.748 1.024.824.103.622-.62.413-.472-.049-.845-.959-.166.666 1.599 2.284-.104.331-1.974-1.89v-1.911l-1.495-1.329-1.191-.114-.676.252-.418.9-.223 1.673-.405.586-.406-.095-1.256-2.067.073-.763v-.561l-.574-.361-2.451-.401-1.13-.055-.989-.568-.07-.596h-.47l-.014.863c0 .045 2.133 1.05 2.133 1.05l.608.079.01.457-.57.374-1.822 1.319-.872.056-.298-.299c-.001.086-.005.172-.005.258 0 .162.007.325.012.486l.16.08 1.779-.375.332.153-1.713 2.449-.276.264C1.72 26.432 8.208 32.004 16 32.004h.018a15.88 15.88 0 0 0 10.506-3.952l-.018.016-.23.101-.518.34-1.827 1.121-.754.115v-.342l.245-.202 1.441-1.024.899-.125.485-.331.07-1.061.553-.034.01.678.3-.06.075.132a15.906 15.906 0 0 0 4.75-11.358v-.02.001c0-8.838-7.165-16.003-16.003-16.003zM9.029 17.622l-.63.235-.174-.471.366-.515.507.1-.069.651zm11.619 1.33l.442.264-.036.483.464-.012.499-.264 1.786.811.069.961h.375v.319h-.748v-.789l-.43.042-.403.429-1.106.071-.014-.514h.331l-.014-.25-.514-.269-.913-.131-.422-.519.634-.632zm-1.97 2.23l.034-.192.379-.056.032.294-.234-.026v.171h-.331v.145h-.322v-.29h.021l.423-.046zm-.258-.139l-.217-.068v-.15h.28l-.063.218zm-.119-1.943l.011 1.349-.303.028v-.457l-.292-.104.055.645h-.374v-1.013h.181l-.01-.163.731-.286zm-.238 1.785v.158l-.151.023v.162h-.208v.129l-.306.032v-.161l.197-.185.135-.158h.333zm-2.971-2.262l1.449-.785.192-.171.16-.432h.25l.083.427.171.071v1.368l-.171.112v.183l-.275.249-.156.394h-1.22l-.483-.639.001-.776zm2.135 2.42v.185h-.333v-.185h.333zm-3.379-.416h.388v-.139l-.292-.097-2.035-2.494.347-.277 1.428 1.287-.016.209.305.401 1.108-.014.042.512-.402.042-.166-.071.042.555 1.026-.028.83.528-2.507-.11-.097-.305zm7.701 8.374l-.582.322-.722-.079.679-.751.637.07-.012.438zm2.435-2.661l-1.966 1.849-2.04-.071-.666-1.463-1.796.072-2.216.761v-.401l.457-.443.055-2.27.761-.527.683-.008 1.287-1.468.813-.062v.304h.277l.679-.963h.945l.805.483-.378.369-.448-.092.031.607.236.142.846.063.181-1.529.442.02.492.844.056 1.219.746.639.202.817-.485 1.108z"/></svg>