<svg xmlns="http://www.w3.org/2000/svg" viewBox="0 0 32 32"><path d="M29.049 15.787c.049-.457.076-.92.076-1.39 0-.387-.025-.767-.058-1.145 2.077-1.873 3.179-3.694 2.563-5.117-.473-1.093-1.918-1.671-4.178-1.671-.317 0-.651.015-.994.036C24.059 3.332 20.271 1.273 16 1.273c-4.291 0-8.095 2.079-10.491 5.273-.26-.012-.528-.03-.776-.03-2.535 0-4.123.627-4.591 1.812-.528 1.336.436 3.078 2.786 5.06-.025.334-.051.669-.051 1.009 0 .702.071 1.386.178 2.058C.694 18.551-.246 20.356.334 21.694c.473 1.092 1.918 1.671 4.177 1.671.569 0 1.185-.039 1.836-.109 2.401 2.614 5.835 4.264 9.655 4.264 4.117 0 7.791-1.907 10.2-4.882.365.022.729.041 1.07.041 2.535 0 4.122-.627 4.591-1.811.529-1.34-.443-3.09-2.812-5.08zm-21.79 6.468a11.68 11.68 0 0 1-2.828-5.725l-.011-.072c.417-.338.862-.675 1.334-1.013 2.33 1.495 5.179 2.931 8.269 4.152.408.161.812.308 1.218.459-2.867 1.075-5.635 1.842-7.983 2.199zm-2.283-7.33c-.238.174-.471.348-.696.522a11.12 11.12 0 0 1-.053-1.046v-.004c.242.177.492.352.749.528zm-.696-1.583A11.65 11.65 0 0 1 6.506 7.46l-.023.032c2.466.236 5.466.929 8.576 1.978-.406.165-.812.333-1.218.508-3.037 1.316-5.827 2.837-8.104 4.401a25.975 25.975 0 0 1-1.52-1.083l.063.046zm10.065 5.439c-2.906-1.149-5.582-2.487-7.806-3.881 2.172-1.459 4.795-2.878 7.65-4.116a29.392 29.392 0 0 1 1.765-.741l.373-.128c.441.161.883.322 1.324.497 3.107 1.228 5.958 2.672 8.266 4.17-2.137 1.495-4.893 3.05-8.15 4.46-.429.186-.856.356-1.283.529a42.952 42.952 0 0 1-2.49-.914l.35.125zm3.244-9.331c2.89-1.027 5.632-1.709 7.917-1.974a11.596 11.596 0 0 1 2.205 5.691l.004.051c-.323.268-.672.54-1.041.815-2.407-1.596-5.412-3.137-8.697-4.436-.13-.052-.259-.096-.388-.147zm.53 10.398c3.102-1.344 6.156-3.011 8.591-4.732.338.234.66.47.97.706a11.707 11.707 0 0 1-2.458 5.875l.018-.024c-2.193-.236-4.774-.81-7.477-1.673.117-.051.236-.099.356-.151zm9.655-5.452c0 .131-.015.257-.02.388-.099-.072-.19-.146-.293-.218.103-.078.209-.156.309-.234 0 .022.003.043.003.065zm-.322-7.056c1.855 0 3.053.406 3.371 1.141.352.814-.35 2.129-1.907 3.656a12.976 12.976 0 0 0-1.888-4.831l.031.051c.129-.003.27-.018.393-.018zM16 2.623c3.532 0 6.699 1.571 8.859 4.043-2.499.351-5.466 1.153-8.534 2.31-3.314-1.194-6.499-1.985-9.192-2.3C9.293 4.199 12.464 2.624 16 2.624zM.958 8.65c.316-.799 1.692-1.257 3.775-1.257.058 0 .125.007.183.007a12.829 12.829 0 0 0-1.85 4.85l-.01.075C1.408 10.828.625 9.491.959 8.649zm3.551 13.836c-1.854 0-3.052-.406-3.37-1.141-.371-.856.413-2.271 2.114-3.879a13.055 13.055 0 0 0 2.417 4.997l-.021-.028a14.79 14.79 0 0 1-1.132.051h-.008zM16 26.17c-3.085 0-5.889-1.203-7.99-3.152 2.546-.446 5.496-1.312 8.508-2.507 2.872.983 5.629 1.663 8.016 1.973C22.386 24.748 19.36 26.17 16 26.17zm15.043-5.625c-.316.8-1.692 1.257-3.774 1.257-.136 0-.29-.014-.431-.017a12.897 12.897 0 0 0 2.04-4.884l.013-.082c1.689 1.517 2.49 2.873 2.153 3.726zm-2.963 5.646l1.753-1.27-.376 2.204 1.771 1.157-2.453.2-1.103 2.255-.519-2.22-2.222.028 1.975-1.368-1.023-2.327zM2.981 2.043l.836-.606-.18 1.051.845.552-1.17.096-.526 1.076-.248-1.06-1.06.014.943-.652-.488-1.11zm25.662.676l.836-.605-.18 1.05.845.553-1.171.095-.525 1.076-.248-1.06-1.06.014.943-.653-.489-1.11z"/></svg>