<svg xmlns="http://www.w3.org/2000/svg" viewBox="0 0 32 32"><path d="M16.003 0c-4.177 0-7.978 1.615-10.83 4.245C2.277 6.605.375 9.844.05 13.534c-.03.327-.047.707-.047 1.091 0 .262.008.522.023.78l-.002-.035c-.009.211-.025.42-.025.634 0 8.824 7.179 16.003 16.003 16.003s16.003-7.179 16.003-16.003S24.825.001 16.002.001zm14.686 16.17a14.575 14.575 0 0 1-.599 3.968l.026-.103c-2.061 1.611-4.638 2.759-7.53 3.245.142-1.192.244-2.506.282-3.918 2.972-.563 5.542-1.972 7.354-3.932.228.339.385.598.467.74zm-.418-2.889a23.432 23.432 0 0 0-3.031-3.116l-.033-.027c.427-.719.712-1.57.796-2.479l.002-.024.003-.075a14.477 14.477 0 0 1 2.364 5.434l.017.095c-.039.065-.077.13-.118.192zm-7.388 4.741a44.83 44.83 0 0 0-.267-4.713l.018.199c1.526-.423 2.842-1.225 3.791-2.291a22.692 22.692 0 0 1 2.981 3.1l.036.047c-1.582 1.794-3.88 3.102-6.559 3.659zm-16.331.462c-2.477-2.477-3.815-5.507-3.878-8.639a14.59 14.59 0 0 1 1.149-2.046l-.033.052a24.697 24.697 0 0 1 2.079-.628l.215-.047c-.213 2.985.928 5.898 3.236 8.226a57.904 57.904 0 0 0-2.311 3.16l-.136.212c-.104-.099-.217-.188-.319-.29zM19.31 5.685c-1.921-.586-3.905-.81-5.803-.818.561-1.293 1.687-2.339 3.138-2.953.714.631 1.736 1.786 2.665 3.771zm2.273 2.33a22.799 22.799 0 0 1 3.874 2.406l-.053-.039c-.743.817-1.757 1.446-2.936 1.806a29.152 29.152 0 0 0-.885-4.173zm-8.451-1.691c.004-.043.012-.084.018-.127 1.857-.023 3.8.161 5.662.71a25.795 25.795 0 0 0-4.483 3.113l.032-.027c-.909-1.084-1.344-2.368-1.229-3.668zm6.98 1.391c.436 1.312.806 2.89 1.066 4.746a8.196 8.196 0 0 1-1.756.037c-1.558-.137-2.993-.701-4.121-1.597a24.056 24.056 0 0 1 4.675-3.122l.137-.063zm-8.007-2.814a31.038 31.038 0 0 0-4.564.576l.198-.034a8.846 8.846 0 0 1 .816-1.875c1.731-.909 3.7-1.53 5.812-1.817-1.069.829-1.861 1.909-2.262 3.149zm-.283 1.346c-.136 1.655.417 3.272 1.561 4.621a38.929 38.929 0 0 0-3.235 3.499c-2.002-2.074-2.983-4.636-2.753-7.241.008-.089.03-.173.041-.261a28.98 28.98 0 0 1 4.29-.612l.096-.005zm2.493 5.548c1.354 1.136 3.099 1.845 4.991 2.012.287.026.569.037.85.037.403 0 .796-.032 1.183-.081.162 1.567.232 3.062.228 4.465-.527.059-1.063.095-1.611.095-.431 0-.869-.02-1.303-.058-2.862-.253-5.498-1.307-7.54-2.998a37.307 37.307 0 0 1 3.202-3.472zm12.382-4.274a4.686 4.686 0 0 1-.545 1.803l.012-.025a23.856 23.856 0 0 0-3.896-2.418l-.141-.063c2.032-.797 3.624-1.104 4.254-1.201.044.044.083.093.127.137.173.566.242 1.16.189 1.767zm-5.855-1.607C20 3.875 19.029 2.508 18.197 1.607c.169.01.338.018.506.034.094.009.182.026.274.035-.112-.035-.218-.077-.33-.113a14.61 14.61 0 0 1 6.518 2.97l-.029-.022a23.383 23.383 0 0 0-4.296 1.404zM6.537 4.844a9.769 9.769 0 0 0-.247.914c-.376.091-.734.182-1.058.272.251-.271.515-.53.786-.781.169-.139.342-.273.519-.405zm-4.831 7.791c.599 2.462 1.927 4.786 3.917 6.777.164.164.344.311.515.468a55.86 55.86 0 0 0-1.533 2.446l-.185.335c-1.863-2.177-2.925-4.704-3.083-7.323.042-.925.162-1.83.368-2.704zm5.447 8.116c2.869 2.261 6.486 3.681 10.403 4.027a20.43 20.43 0 0 0 3.55.007l-.075.005a35.97 35.97 0 0 1-.845 3.92l.06-.257a19.111 19.111 0 0 1-3.916.055c-4.264-.377-8.146-2.099-10.967-4.848a67.007 67.007 0 0 1 1.965-3.197l-.176.287zm12.248 2.795c-.573 0-1.155-.025-1.73-.076-3.701-.327-7.113-1.672-9.795-3.816a59.422 59.422 0 0 1 2.522-3.498l-.104.138c2.244 1.85 5.123 3.005 8.242 3.28.471.041.949.063 1.418.063.539 0 1.068-.032 1.589-.084a41.96 41.96 0 0 1-.338 4.113l.023-.212c-.6.056-1.207.091-1.827.091zm-16.06-.125c.127.15.254.301.388.449-.018.032-.041.07-.057.101-.116-.179-.222-.366-.331-.55zm12.662 7.273c-4.643 0-8.786-2.167-11.48-5.54l.177-.323c3.014 2.823 7.073 4.596 11.516 4.988a19.84 19.84 0 0 0 1.828.081c.633 0 1.259-.029 1.878-.084l-.08.006c-.053.157-.099.295-.136.399a14.647 14.647 0 0 1-3.703.473zm5.279-1.053c.081-.013.163-.023.244-.038-.09.037-.176.079-.267.115.008-.023.015-.053.023-.077zm4.601-2.782a17.054 17.054 0 0 1-4.098 1.364l-.112.018c.25-.976.511-2.184.729-3.602 2.555-.376 4.897-1.236 6.913-2.457a14.865 14.865 0 0 1-3.421 4.667l-.011.01z"/></svg>