<svg xmlns="http://www.w3.org/2000/svg" viewBox="0 0 32 32"><path d="M29.061 21.22l.042-.915.861-.601-.123-1.025-1.256-.095-.984-1.122-.696-.19-.45-.083.055-.411-.576-.081v.232l-1.435-.355-.578-.882.237-.428-.909-1.326-.156-.97h-.368l.124.942.627.97-.069.383-.531-.082-.655-1.118v-1.3l-.683-.328v-1.448l1.269-1.544-.081-.923.355-.252-.423-.396.027-.697-.504-.45h-1.407l-.233.246-1.681-.014-.615-.52.479-.341h1.229v-.229l-.573-.085.37-.286.806-.124 1.202-.82h2.076l1.135.342.383.218.342.027.506-.492.911-.008A15.84 15.84 0 0 0 15.95.06h-.019.001-.022A15.82 15.82 0 0 0 5.177 4.237l.012-.011.409.303.271.021.642-.65.709.025.944.14.593.3 6.352.328 1.742.737-.245.209-1.292-.209-.02.25.471.325-.615.123v.37l-1.269.082.962.902.164.738-.431.225-1.353-1.105v-.512l.328-.513-.245-.307-1.476.983-1.168-.103-.389-.286-.492.697.225.45 1.7.205.683.779-.171.226-.533-.533-.245.266.415.549-.089 1.032-1.093-.001-.055.833.923.56.321.423-.485.13-1.721-1.312h-.554l.021 1.066 1.249 1.311.095.95-.629.525-1.433.513.143.533-.261.184-.293-.45.042-.348-.513-.164-.288.389.042.738 1.01.813.102.614-.612.408-.464-.048-.835-.946-.164.656 1.578 2.255-.103.327-1.946-1.864v-1.886l-1.475-1.311-1.176-.113-.667.249-.412.888-.22 1.649-.399.578-.4-.093L0 16.531c.279 8.559 7.3 15.413 15.926 15.413 6.189 0 11.55-3.53 14.191-8.682l-1.179-1.477.123-.561zM2.407 18.725l-.621.231-.172-.464.36-.509.501.099-.067.642zm11.462 1.311l.436.259-.034.476.458-.012.492-.26 1.762.799.069.95h.369v.314h-.739v-.779l-.423.042-.397.423-1.094.069-.014-.506h.329l-.014-.245-.506-.266-.901-.13-.417-.512.623-.623zm-1.943 2.2l.033-.189.374-.055.031.291-.23-.025v.168h-.328v.144h-.318v-.287h.021l.417-.046zm-.253-.137l-.215-.067v-.148h.276l-.061.215zm-.118-1.917l.01 1.331-.3.027v-.451l-.286-.102.054.636h-.368v-.998h.178l-.009-.162.722-.281zm-.236 1.761v.155l-.149.024v.159h-.205v.128l-.302.032v-.159l.194-.183.134-.155h.328zm-2.93-2.231l1.429-.775.189-.169.158-.426h.247l.082.421.169.071v1.35l-.169.111v.179l-.272.246-.153.389H8.865l-.477-.631.001-.766zm2.106 2.387v.183h-.329v-.183h.329zm-3.333-.41h.382v-.136l-.287-.096-2.007-2.458.342-.273L7 19.994l-.016.207.299.396 1.094-.014.041.505-.396.041-.164-.069.041.547 1.011-.027.818.52-2.473-.108-.095-.303zm7.597 8.262l-.575.316-.711-.077.67-.741.627.069-.01.432zm.463-.802l-2.013-.071-.655-1.443-1.772.071-2.186.752v-.397l.451-.438.055-2.24.751-.518.674-.009 1.27-1.448.802-.061v.3h.273l.67-.951h.932l.793.477-.373.363-.441-.09.029.598.233.14.835.063.178-1.509.437.02.486.832.056 1.203.736.631.197.807-.477 1.09-1.939 1.826zm4.747-.257l-.545.241-.51.335-1.804 1.105-.741.114v-.338l.241-.198 1.421-1.011.889-.123.478-.327.069-1.046.544-.033.01.669.297-.059.202.359-.55.311zM30.372 9.861h-.543l-.378.41-.063.41.288.153zm.604-.134l.339-.081-.339-.309zm-.394 0h.221v-.338h-.143v-.195h-.646l-.473.195-.09.235.369.102zm-1.377-1.158l.133-.523-.39-.091-.43.204.267.543zm2.581 1.55l-.106-.268-.108.115.198.166.016-.012zm.091.232l-.448-.132h-.041v.297l.143.207h.471c-.042-.123-.078-.249-.124-.371z"/><path d="M27.001 5.475v.328h.81l.166-.225v-.256h-.586l-.031.123h-.359zm3.7 4.544v.385l.141-.026.166-.03.247-.159v-.327h-.554v.158zm.051.549l-.051.122-.247.022-.082.358h.524l.235-.236v-.318l-.224.031zm-3.751-4.13l.155.185.809-.052s.031-.358 0-.358-.389.061-.389.061L27 6.438z"/></svg>