<svg xmlns="http://www.w3.org/2000/svg" viewBox="0 0 32 32"><path d="M25.16 12.079l-.054-.022a9.937 9.937 0 0 0-2.001-3.016l.002.002a9.491 9.491 0 0 0-.442-.434l-.007-.006a9.765 9.765 0 0 0-6.614-2.566h-.015a9.764 9.764 0 0 0-6.663 2.614l.006-.006a9.868 9.868 0 0 0-1.109 1.207l-.017.022a9.72 9.72 0 0 0-2.055 5.998v.009c0 5.428 4.416 9.844 9.844 9.844 3.819 0 7.133-2.187 8.764-5.372a9.557 9.557 0 0 0 .792-2.1l.014-.068c.046-.192.086-.387.121-.585.1-.56.154-1.133.154-1.721 0-.034-.001-.068-.003-.101a9.716 9.716 0 0 0-.72-3.601l.024.065h.011l-.032-.165z"/><path d="M30.5 12.347C28.861 5.819 22.956.964 15.926.964c-6.66 0-12.32 4.354-14.291 10.362l1.736.525c1.746-5.264 6.713-9.073 12.555-9.073 6.14 0 11.304 4.212 12.786 9.894l-1.734.313 3.554 3.407 1.475-4.318-1.507.273zM15.97 29.229c-6.073 0-11.178-4.122-12.725-9.709l1.784-.322-3.554-3.407L0 20.11l1.44-.261c1.704 6.435 7.566 11.197 14.53 11.197 6.899 0 12.723-4.672 14.487-11.018l-1.75-.53c-1.536 5.598-6.656 9.731-12.738 9.731z"/></svg>