<svg xmlns="http://www.w3.org/2000/svg" viewBox="0 0 32 32"><path d="M16.675.016c-.268 4.317-.475 9.716-.57 15.142l-.005.344c-.111 6.764.307 13.63.511 16.489a16.126 16.126 0 0 0 1.543-.132l-.083.009c.785-1.308 4.428-7.804 4.302-15.522C22.249 8.764 18.2 1.706 17.181.048a18.043 18.043 0 0 0-.432-.029l-.074-.003zm5.901 1.401c2.675 2.84 6.825 8.251 6.929 14.584.099 5.976-3.243 11.058-5.676 13.954 4.876-2.745 8.179-7.969 8.179-13.951 0-6.482-3.876-12.073-9.432-14.587z"/><path d="M18.985.283c1.554 2.726 4.704 9.086 4.817 16.04.113 6.862-2.518 12.657-3.887 15.198.212-.053.423-.113.633-.176.974-.904 7.654-7.403 7.526-15.32C27.935 7.525 19.536.469 19.451.4l.015-.018a6.708 6.708 0 0 0-.406-.087l-.074-.012zm-7.696 31.014c.192.06.386.113.582.166-1.378-2.574-3.967-8.334-3.855-15.141C8.13 9.4 11.251 3.066 12.813.319c-.13.026-.257.059-.386.088-.249.208-8.475 7.205-8.612 15.618-.127 7.807 6.342 14.213 7.474 15.273z"/><path d="M15.242.019a15.4 15.4 0 0 0-.611.044c-1.035 1.69-5.06 8.737-5.184 16.284-.126 7.672 3.472 14.135 4.287 15.497.475.068.956.117 1.443.142-.207-2.951-.617-9.779-.506-16.507.117-7.18.448-13.346.571-15.46zm-6.014 1.49C3.782 4.067 0 9.6 0 16.004c0 5.891 3.202 11.045 7.954 13.822-2.422-2.917-5.665-7.935-5.568-13.825C2.488 9.735 6.55 4.374 9.228 1.509z"/></svg>