<svg xmlns="http://www.w3.org/2000/svg" viewBox="0 0 32 32"><path d="M15.996 0C10.584 0 5.793 2.704 2.895 6.83l2.181.112 1.641.695-.232.196-1.217-.196-.019.235.444.307-.579.115v.348l-1.197.077.907.85.155.695-.405.213-1.276-1.043v-.483l.31-.483-.232-.29-1.392.927-.411-.037a17.06 17.06 0 0 0-.381.862l.676.082.644.734-.16.213-.504-.503-.23.251.392.517-.084.972-1.029-.001-.052.785.87.528.301.398-.456.123-1.29-.983c-.075.373-.146.856-.196 1.345l-.006.069.546.573.088.896-.592.494-.107.04A16.056 16.056 0 0 0 1.117 21.9l-.038-.108.648-.252.01 1.254-.221.02c.052.11.107.22.162.33h.218l-.058.203-.066-.02c.03.058.058.116.088.172.229.43.431.771.646 1.103l-.036-.06.242-.017v.282h.258l.632-.896h.879l.746.45-.35.342-.417-.084.028.564.22.133.786.059.168-1.423.412.018.456.783.052 1.133.694.595.186.761-.45 1.028-.586.551a15.62 15.62 0 0 0 1.638 1.076l.078.041.528-.073.45-.309.065-.987.513-.03.008.631.28-.055.189.338-.516.292-.513.227-.422.277c2.11 1.106 4.609 1.754 7.26 1.754h.011-.001c2.387 0 4.653-.53 6.691-1.472l-.794-.694-.716-1.256.102-1.213-.543-.721.221-1.222-.323-.091v-2.652s-.9-.684-.953-.684c-.052 0-.477-.115-.477-.115l-.091-.502-1.171-1.468.116-.528.039-.864.809-.567-.114-.964-1.184-.09-.927-1.056-.657-.178-.425-.078.052-.386-.542-.077v.22l-1.352-.335-.544-.832.222-.404-.857-1.25-.146-.914h-.349l.117.888.59.915-.064.362-.502-.077-.618-1.054v-1.225l-.643-.309V9.746l1.197-1.456-.078-.869.335-.238-.397-.374.025-.657-.476-.425H10.24l-.218.232-1.585-.013-.579-.489.451-.321h1.159v-.217l-.541-.08.349-.27.758-.117 1.133-.772h1.957l1.071.321.36.206.321.025.477-.463 1.545-.013.347.193.657.141.051.257 1.043.039-.141-.335-.927-.025.22-.206-.076-.245h-.839l.916-.682h.876l.41.566.684.039.411-.399.31.155-.567.554-.748.013c.04 0 .065.541.065.541l.952-.025.103-.258.657-.039.077-.386-.386-.065.129-.347.297-.09 1.029.051-.567.516.091.398.593.09-.041-.722.568-.295 1.006-.116 1.454.644v.553l.465.116-.232.439h-.657l-.194.501-1.502-.354 1.179-.629-.45-.382-1.018.129-.088.092-.004-.001-.018.022-.291.304-.486.041.04.242.168.07-.007.08-.395.056-.028.229-.376.019-.068-.454-.676.205-1.382.809.156.57.386.251.771.107v.878l.357-.057.33-.686.821-.26V5.555l.456-.345 1.105.261-.077.696h.295l.812-.399.039.915.592.36-.026.541-.566.193.039.179.681.31-.013.374-.198.016c0-.007-.003-.01-.003-.01l-.859-.266-.037-.275.25-.173V7.68l-.27-.068-.069.232-.475.073-.046-.016v.023l-.163.025-.135-.27-.155-.068h-.339l-.153.126v.28l.29.096.285.04-.064.028-.26.289-.116-.145-.251-.066-.687.645.09.073-1.013.561-.954.992-.065.441-.956.628-.472.476.052.953-.657-.306.004-.558-1.828.001-.946.479-.412.757-.162.602.265.583.746.09 1.185-.792.105.393-.362.683.902.154.091 1.393 1.236.21.784-.907.954.194.335.465.915-.053.026-.271.501.246.569.888.978.014.36.632.051.773 1.083.412 1.364.013.4.656.604.194-.116.54-.662.843-.194 1.865-.598.473-.89-.025-.297.515.22.967-.965 1.236-.309.567-.92.443-.607.092-.024.257.425.121-.051.278-.379.368.23.291.458.013-.028.354-.121.346-.041.282.387.326c5.037-2.701 8.47-8.014 8.47-14.116 0-8.824-7.179-16.003-16.003-16.003zM7.26 23.785h-.696v-.734l-.398.038-.374.399-1.03.065-.013-.476h.309l-.013-.233-.477-.25-.85-.123-.393-.484.586-.586.412.246-.033.449.431-.012.465-.246 1.661.754.064.894h.349v.298zm4.722-16.887l-.065.405h-.29c-.033 0-.065-.446-.065-.47l.419.065zm11.114 2.26l-.323.027.017-.224.143-.179.194.152-.031.225zm1.13-.396l-.22.019-.044.213-.169.106-.272.022c-.011-.064-.015-.113-.015-.113H23.4v-.227h.444l.093-.237.177-.004.201.043-.088.179z"/></svg>