<svg xmlns="http://www.w3.org/2000/svg" viewBox="0 0 32 32"><path d="M1.46 9.24v.499c.175-.408.367-.804.573-1.194l-.573.695zm9.915-1.147l-.144.152.194.162.196-.162zm-8.677-.355l-.026-.29c-.188.287-.4.646-.598 1.014l-.041.084.214-.26.451-.547zm5.036-3.763v-.25h-.572l-.03.12h-.349v.348h.787zm24.023 8.349l-.05.059.113.213-.063-.272zM10.384 8.673l.299-.056.239-.154v-.319h-.538l-.001.529zm20.429.85a13.29 13.29 0 0 0-.416-.87l.04.085-.101.114v.706l.31-.042.166.008zM7.721 4.942s.03-.349 0-.349-.379.059-.379.059l-.559.16.15.18.789-.05zm20.575 1.456l.313-.469c-.269-.33-.528-.623-.796-.906l.006.007-.003.78-.688.348.068.229 1.099.011zm-19.239-.02l-.379-.091-.418.2.258.529.41-.129zm1.596 1.257v.379l.329-.079zm-.938-.14l-.458.189-.09.23.359.099h.957v-.329h-.139v-.189zM9.106 8.94l.281.151.677-.947h-.529l-.369.399zm1.946-.447v.288l.14.2h.509v-.309l-.609-.18zm-.668.458l-.24.02-.079.349h.509l.23-.229v-.31l-.37.05z"/><path d="M30.27 10.237l-.418-.459-.079-.737-.428.234-.231.903-.619-.659-.026-.622-.596-.514-.22-.218h-.693l.22.618.833.464.144.154-.18.091.007.489-.406.169-.346-.076-.217-.308.563.031.153-.205-1.249-.842-.095-.36-.508.459-.514-.106-.783 1.019-.155.399-.502.046-.741.004-.443-.207-.13-.88.158-.419.755-.165.822.165.101-.455-.35-.082.121-.708.827-.13.579-.818.596-.101.54.08h.198l-.108-.768-.654.265-.231-.574-.381-.055-.072-.394.31-.338.737-.289.189-.339A15.9 15.9 0 0 0 19.323.311l-.102-.017-.193-.035c-.294-.053-.593-.089-.894-.126A15.415 15.415 0 0 0 16.19 0h-.006c-3.511 0-6.759 1.14-9.401 3.064l.136-.001.67-.006.36.199.677.146.053.267 1.078.039-.147-.345-.957-.027.225-.213-.079-.252h-.865l.943-.706h.905l.425.586.706.039.425-.413.319.16-.585.572-.771.014c.041 0 .068.558.068.558l.983-.027.106-.265.678-.041.079-.397-.398-.068.133-.359.305-.093 1.064.053-.586.533.095.412.612.093-.04-.744.585-.306 1.037-.12 1.503.666v.572l.478.119-.24.452h-.677l-.202.518-1.551-.365 1.219-.649-.464-.395-1.051.133-.093.095-.003-.001-.014.02-.303.314-.5.043.04.25.175.072-.007.082-.407.058-.03.236-.389.02-.07-.469-.699.212-1.426.836.159.587.398.26.798.11v.907l.368-.06.34-.708.849-.269V4.91l.472-.356 1.14.27-.081.718h.306l.838-.412.041.943.611.373-.026.559-.585.199.04.185.704.321-.013.385-.205.017-.001-.011-.89-.274-.038-.286.26-.178v-.26l-.279-.07-.069.24-.491.075-.048-.017v.025l-.169.026-.138-.279-.16-.07h-.349l-.158.13v.289l.299.1.296.041-.066.03-.27.298-.117-.149-.261-.068-.708.667.093.076-1.047.578-.985 1.024-.067.455-.986.648-.488.492.054.984-.678-.317.005-.575-1.887.001-.978.495-.424.782-.169.62.275.602.769.094 1.224-.819.106.406-.373.706.932.158.093 1.438.117.02.011.001 1.149.196.81-.937.985.2.345.481.945-.056.026-.279.52.252.585.916 1.01.015.373.652.053.796 1.118.426 1.409.014.413.677.624.201-.119.559-.686.87-.2 1.925-.619.489-.916-.028-.307.533.227.997-.997 1.277-.32.586-.951.456-.624.096-.027.265.44.126-.055.285-.393.378.239.301.473.014-.027.365-.126.36-.039.292.699.59-.094.305-.952-.017-.948-.828-.737-1.297.103-1.252-.559-.744.226-1.263-.331-.094v-2.739s-.932-.706-.984-.706c-.054 0-.493-.119-.493-.119l-.093-.519-1.211-1.515.12-.545.041-.891.837-.586-.119-.997-1.223-.092-.959-1.091-.677-.186-.439-.08.053-.398-.559-.08v.226l-1.396-.346-.563-.86.195-.353-.231-.003-.068-.224.164-.083-.715-1.044-.153-.945h-.359l.12.917.612.944-.067.373-.519-.079-.637-1.088v-1.266l-.666-.32v-.911a15.046 15.046 0 0 0-.862 2.644l-.02.106.037-.008.22-.044.13.624.274.443.182.209.331.13-.312.37-.603.059H.382l.051-.539.378-.078-.032-.254-.313-.198-.026-.018c-.16.846-.252 1.819-.254 2.814v.001l.002.085c.046 8.784 7.205 15.917 16 15.917 5.002 0 9.474-2.309 12.411-5.915h-.527v-1.064l-.612-.822v-1.281l-.466-.464-.04-.533.59-1.131-1.122-1.981.132-1.344-1.01-.104-.373-.373h-.679l-.346.319h-1.195l-.041.106h-.666l-1.528-1.742.012-1.357.252-.093.095-.519h-.359l-.147-.545 1.769-1.277v-.904l.867-.481.35.036h.713l.558-.3 1.796-.14v.918l1.417.36.279.199h.261v-.499l.818-.079.778.578h1.277l.089-.082a14.903 14.903 0 0 0-.47-1.375l.037.106-.833.015z"/></svg>