<svg xmlns="http://www.w3.org/2000/svg" viewBox="0 0 32 32"><path d="M26.978 10.728a18.778 18.778 0 0 0-.532-1.246l.055.131a13.954 13.954 0 0 0-.854-1.195l.022.028c-.388.403-.793.823-1.229 1.267 1.125.402 1.964.744 2.787 1.114l-.249-.1zm-4.64-7.418a34.254 34.254 0 0 0-.982-1.083l.014.015c-.403.016-.837.042-1.298.081.043.085.084.171.127.259.579.26 1.152.553 1.72.875l.42-.147zm2.472.742c.393.518.787 1.07 1.17 1.654l.199.132c.432-.458.802-.854 1.104-1.179a16.278 16.278 0 0 0-1.027-.936l-.026-.021c-.634.133-1.111.254-1.582.39l.162-.04zm-8.667 18.233c.982-.012 1.935-.08 2.871-.2l-.123.013a23.975 23.975 0 0 0 1.506-1.209l-.028.024a315.532 315.532 0 0 0-3.725-4.193l.268.301c-.135.124-.27.25-.406.373l-.423.381c.001 1.539.024 3.058.061 4.511zm.517-7.666l.706.036a184.313 184.313 0 0 0 3.417-3.29l-.017.017a24.973 24.973 0 0 0-1.606-1.614l-.018-.017a23.182 23.182 0 0 0-2.811-.359l-.075-.004a368.645 368.645 0 0 0-.126 4.658l.531.572zm6.27-5.407c.641-.652 1.238-1.267 1.787-1.838a15.422 15.422 0 0 0-2.837-2.263l-.065-.038-.04-.017c-.299.109-.434.163-.568.218l.159-.058c.433 1.021.89 2.326 1.274 3.662l.065.266c.076.022.15.046.225.069zm-1.509 10.732c.29-.284.572-.575.843-.867.071-.707.112-1.529.112-2.36l-.002-.348v.018c-.381-.041-1.887-.135-3.396-.22l-.948-.042c.853.939 1.96 2.182 3.059 3.433l.333.387zm.271-7.468c-.744.735-1.512 1.481-2.287 2.22l-.072.068c1.025.059 2.018.122 2.969.184-.062-.78-.144-1.46-.253-2.132l.02.148a18.818 18.818 0 0 0-.408-.526l.03.039zm10.271 4.661c-.33-.031-.762-.07-1.288-.116.067.419.123.828.171 1.232.458-.235.82-.433 1.073-.578.019-.177.031-.358.044-.538zm-15.532 6.575l-.246.004.004.137c.081-.046.161-.093.242-.141zm11.401-10.027c-.375.699-.679 1.22-.997 1.731l.08-.138 1.129.089a14.215 14.215 0 0 0-.226-1.77l.014.088zm1.286-6.84c-.302-.43-.586-.798-.885-1.152l.02.024c-.255.275-.556.597-.896.958.516.386.999.775 1.453 1.16.147-.441.25-.781.309-.991zm-.84 2.448a25.168 25.168 0 0 0-.492-.422l-.049-.04c.031.065.059.132.088.197.115.184.23.369.337.556.041-.099.077-.195.116-.291zm-5.509 19.669a29.948 29.948 0 0 1-1.487-.572l.299.11c-.099.049-.199.096-.3.142-.243.596-.409.968-.582 1.337l.087-.206c.433.039.84.067 1.21.085.241-.268.501-.57.774-.897zm3.28-12.317a32.67 32.67 0 0 1 1.338 2.897l.09.249.18-.074c.223-.94.37-1.916.408-2.916l-2.016-.156zm4.323-7.685a11.968 11.968 0 0 0-.296-.579l.041.081c-.044.13-.089.266-.14.41.136.127.268.253.396.376V8.96zm-.109 2.228a34.93 34.93 0 0 0-.839-.839l-.01-.01c-.122.3-.255.612-.401.939.077.177.157.353.229.531.314.162.614.322.898.476.052-.393.092-.76.122-1.099zM24.01 27.355c-.204.102-.411.2-.62.296.108.041.214.077.318.116.101-.134.202-.271.303-.412zm-1.117-3.532a32.843 32.843 0 0 1-.902 3.017l.074-.239a14.242 14.242 0 0 0 2.006-1.438l-.019.016c-.359-.423-.75-.879-1.159-1.355zm1.6 5.734l-.268-.087c-.16.199-.274.337-.389.475l.041-.05.053-.001c.19-.108.377-.221.563-.337zm3.555-3.036a28.627 28.627 0 0 0-.39-1.629l.056.242c-.311.22-.632.437-.965.655-.042.073-.084.141-.126.213.362.43.665.793.908 1.084.177-.185.349-.372.517-.565zM24.225 2.276a15.226 15.226 0 0 0-.889-.047h-.02c.17.193.343.394.52.604a9.25 9.25 0 0 1 .677-.198l.204-.047a10.375 10.375 0 0 0-.425-.274l-.067-.038zm2.414 19.386a31.3 31.3 0 0 1-2.644.866l-.272.066c.488.564.947 1.102 1.367 1.595a15.513 15.513 0 0 0 1.651-2.076l.036-.057c-.144-.448-.191-.579-.238-.71l.1.315zm-10.373 4.201c.031.746.066 1.456.101 2.119a14.915 14.915 0 0 0 3.144-.463l-.104.023a36.297 36.297 0 0 1-3.309-1.773l.167.094zm13.275-1.34c.016-.22.035-.496.051-.823-.202.165-.415.336-.634.508.084.307.159.592.225.858.124-.177.242-.359.358-.542zm-10.11-1.047a27.06 27.06 0 0 1-1.942 1.284l-.13.073a34.344 34.344 0 0 0 2.977 1.557l.233.097c.333-.874.682-2.003.97-3.155l.047-.224c-.702.147-1.423.27-2.156.368zm.485 8.042c.214-.054.425-.114.634-.175l.134-.127a21.55 21.55 0 0 1-.581-.052l-.188.354zm6.057-3.013c.176-.139.349-.285.52-.433l-.664-.793c-.225.34-.451.667-.677.977.317.101.594.184.82.248zm5.543-8.569c.04-.154.074-.311.108-.466-.194.102-.404.21-.632.323.015.221.028.437.039.649.257-.258.423-.438.485-.507zm.461-4.88a15.037 15.037 0 0 0-.603-.389l-.138-.08c-.067.335-.143.68-.227 1.029l.991.089a20.528 20.528 0 0 0-.027-.703l.002.055zm-.417-2.431l-.061.437c.091.054.179.107.262.159-.026-.15-.05-.301-.081-.45l-.12-.146zm-1.982 7.84c-.107.049-.215.098-.327.147a19.25 19.25 0 0 1-.844 1.565l.05-.09c-.024.07-.047.139-.073.208l.132.413c.426-.345.787-.652 1.14-.966l-.033.029a33.824 33.824 0 0 0-.05-1.394l.004.089zM18.986.28c.113.2.235.417.365.654.218-.022.431-.042.64-.059a15.969 15.969 0 0 0-.516-.461l-.022-.018.015-.017a13.733 13.733 0 0 0-.482-.099zm.383 3.938a13.558 13.558 0 0 0-2.852-.463l-.038-.002c-.03.627-.06 1.309-.091 2.04l.184.124a29.933 29.933 0 0 1 2.692-1.387l.206-.084-.102-.228zM17.181.044a14.93 14.93 0 0 0-.467-.03l-.038-.001-.074 1.293.098.026c.193-.046.571-.115.952-.178l.164-.022c-.284-.515-.494-.87-.711-1.221l.077.133zm2.168 29.394c-.124.044-.25.082-.373.124l.295.043c.025-.056.052-.11.078-.167zm1.723-20.739a35.086 35.086 0 0 0-1.127-3.166l.09.248c-.93.415-1.639.771-2.332 1.151l.173-.087a29.084 29.084 0 0 1 1.925 1.575c.429.086.853.178 1.27.28zm-4.761-.947l-.008.205c.246.015.491.034.734.056a25.007 25.007 0 0 0-.526-.384l-.2.123zm1.76 24.115c.114-.193.291-.496.509-.898a30.692 30.692 0 0 1-2.271-.423l.209.04c.034.538.067 1.008.095 1.404a16.413 16.413 0 0 0 1.542-.131l-.084.009zm5.374-10.695a34.737 34.737 0 0 0 2.934-.945l-.255.083a34.162 34.162 0 0 0-1.136-2.582l.097.218c-.5.651-.972 1.218-1.465 1.765l.023-.026a26.752 26.752 0 0 1-.22 1.645l.022-.16zm.344-3.896c.194-.252.383-.503.566-.755l-.552-.039c.001.269-.008.53-.014.794zm-8.941 8.917a32 32 0 0 1-2.634 1.171l-.258.09c.956.26 1.951.441 2.976.51-.029-.561-.058-1.154-.085-1.771zm8.472-15.338l-.155.155c.098.452.187.91.265 1.374a28.754 28.754 0 0 1 1.731 2.628l.075.14.049.004a30.716 30.716 0 0 0 1.557-2.68l.086-.183a32.911 32.911 0 0 0-3.347-1.359l-.261-.079zM4.796 7.564c-.143.097-.284.194-.421.29l.097.322c.105-.207.214-.411.323-.612zm.687 6.875A28.102 28.102 0 0 1 4.5 12.41l-.085-.216a14.267 14.267 0 0 0-.473 2.189l-.009.08c.492-.009 1.01-.017 1.55-.024zm.789 1.422c-.87.008-1.691.019-2.45.034-.001.043-.006.085-.006.128a14.845 14.845 0 0 0 .297 3.155c.068.167.14.335.213.501l.029.013a37.115 37.115 0 0 1 2.069-3.901l-.095.167-.056-.097zM3.791 5.674l.034-.006c.003.014.049.265.152.698a29.18 29.18 0 0 1 1.483-.948c-.295-.277-.553-.517-.774-.722-.313.313-.609.641-.895.979zm4.23 10.293l.007.011.001-.021-.008.01zm-1.96-6.753a26.97 26.97 0 0 1 2.452-.634l.214-.038c-.343-.335-.72-.701-1.1-1.065l-.06-.057A14.231 14.231 0 0 0 6.09 9.172l-.029.043zm-.707 18.719c.253-.052.588-.127.996-.225-.207-.3-.412-.612-.616-.936l-.857.716c.156.152.315.3.476.446zm.391-24.205c.265.246.572.531.931.869.355-.489.712-.953 1.063-1.385a12.28 12.28 0 0 0-.834-.256l-.117-.027c-.358.253-.707.519-1.043.8zM8.99 1.619c-.196.096-.391.195-.583.299l.342.114c.09-.102.18-.2.268-.296h-.022l-.004-.117zM5.694 20.247c.826.32 1.725.629 2.679.908-.118-.7-.219-1.577-.279-2.464l-.005-.087a26.322 26.322 0 0 1-.826-1.159l-.07-.109a32.8 32.8 0 0 0-1.405 2.686l-.095.225zm1.421-5.822l.2-.001c.306-.448.627-.893.965-1.335.153-1.068.365-2.109.616-3.111a32.002 32.002 0 0 0-3.674 1.009l.23-.068a31.689 31.689 0 0 0 1.749 3.672l-.085-.166zM.473 19.834c.009.012.162.194.433.489.02-.223.044-.454.07-.69a26.889 26.889 0 0 1-.85-.48l.21.115c.04.192.085.381.132.571l.004-.004zM15.242.015a13.87 13.87 0 0 0-.612.044 28.79 28.79 0 0 0-.419.707c.317.057.644.123.977.195l.054-.946zM8.975 24.022c-.356.305-.701.601-1.026.877.504.463 1.053.898 1.631 1.293l.05.032a25.463 25.463 0 0 1-.603-1.971l-.053-.232zM.068 14.569c.364-.014.788-.028 1.267-.042a23.627 23.627 0 0 1-.231-1.685l-.01-.124c-.409.203-.682.349-.953.501l.117-.061c-.073.376-.14.859-.185 1.348l-.005.063zm.819-3.812c-.064.182-.127.364-.183.549l.271-.132a25.962 25.962 0 0 1-.019-.431l-.001-.054-.068.069zm.723 5.195l-.001-.003c-.627.018-1.167.038-1.609.054 0 .476.025.946.067 1.413.197.129.569.367 1.118.682.11-.688.251-1.409.426-2.147zm9.279 13.496a11.485 11.485 0 0 1-.32-.712l-.085-.226c-.395-.13-.641-.22-.886-.315l.142.049c-.333.107-.655.208-.963.299.265.331.521.639.763.917.413.005.863.003 1.348-.011zm4.288 2.534c-.029-.418-.063-.911-.099-1.474-.671.109-1.323.192-1.951.252.26.49.471.853.607 1.081.474.067.955.117 1.443.142zm-3.305-.522a4.333 4.333 0 0 1-.209-.383l-.095-.203c-.236.011-.465.017-.689.024.173.172.312.305.41.397.193.06.388.114.584.166zm1-7.93a28.46 28.46 0 0 1-2.831-.461l.189.034a32 32 0 0 0 .92 3.11 35.407 35.407 0 0 0 3.581-1.568l-.212.097a29.115 29.115 0 0 1-1.707-1.258l.06.046zM3.146 8.772c-.277.218-.532.427-.765.622-.002.336.001.715.016 1.136.365-.155.759-.313 1.177-.473a16.17 16.17 0 0 1-.36-1.037l-.069-.248zm9.376 20.585c-.038-.015-.075-.029-.112-.045l.023.052c.03-.002.059-.005.089-.006zM12.428.403l-.099.086.362.044.123-.217c-.13.027-.257.058-.386.087zm-9.94 11.658c.021.244.046.498.076.756.12-.319.248-.638.386-.955-.159.067-.314.134-.461.199zm8.432-3.896a26.877 26.877 0 0 1 2.511-.23l.064-.002c.469-.351.942-.68 1.415-.992l.015-.371a30.294 30.294 0 0 0-2.626-1.48l-.189-.086a32.273 32.273 0 0 0-1.111 2.892l-.078.27zM4.852 25.644a24.946 24.946 0 0 1-1.051-.756l.065.047c-.055.138-.167.501-.272.866l-.055.222c.115.143.233.283.353.422l.958-.802zM2.484 7.452c.077-.061.155-.121.235-.182l-.034-.132c-.069.104-.135.209-.202.314zm7.155-.019a34.74 34.74 0 0 1 .931-2.528l-.095.26c-.701.42-1.303.846-1.871 1.312l.027-.021c.323.311.659.637 1.009.977zM7.174 29.34c.097.01.238.023.416.038a27.58 27.58 0 0 1-.325-.415c-.165.043-.32.08-.468.117.125.087.25.175.377.26zM3.39 21.964c-.109-.29-.247-.724-.369-1.164l-.033-.138c-.223-.104-.427-.207-.633-.309-.034.317-.07.776-.097 1.238l-.004.091c.279.262.588.543.924.833l.212-.551zm-1.169 2.158c.084.142.172.283.26.423.055-.176.114-.362.18-.561a34.45 34.45 0 0 1-.454-.387c.004.254.009.432.013.525zm3.124-2.461a15.331 15.331 0 0 0 1.619 2.228l-.015-.017c.442-.376.922-.789 1.424-1.22a32.023 32.023 0 0 1-3.255-1.069l.227.078zm4.811-10.776c.152-.159.308-.317.464-.474l-.279-.278c-.064.248-.126.499-.185.751zm4.555 11.362c-.024-.876-.044-1.995-.053-3.116l-.001-.078a201.31 201.31 0 0 1-1.959 1.741l-.411.354c.378.348.767.684 1.162 1.005.416.042.837.072 1.262.093zm.283-17.324l.053-1.167c-.612.03-1.215.097-1.807.197.772.395 1.345.717 1.909 1.055l-.155-.086zm-4.783-2.349c.29.115.597.242.915.38.122-.034.243-.068.366-.099.16-.334.315-.65.467-.948-.219-.028-.57-.063-.923-.09l-.097-.006c-.236.24-.473.489-.706.742l-.021.023zm4.613 6.766c-.276-.001-.549.002-.82.01-.449.345-.894.711-1.33 1.097.656.665 1.327 1.355 1.992 2.05l.066.069c.028-1.118.059-2.197.093-3.226zm-.171 7.797c.001-.39.006-.781.011-1.172a158.345 158.345 0 0 0-5.151-.108h-.05c-.006.163-.014.324-.016.488-.009.581.004 1.152.034 1.718a25.32 25.32 0 0 0 1.79 2.092l-.009-.009a314.23 314.23 0 0 0 3.716-3.296l-.325.288zm-5.09-2.71c1.623.011 3.332.043 5.061.104a181.642 181.642 0 0 0-3.012-3.124l.018.018a24.664 24.664 0 0 0-1.94 2.184l-.04.052c-.032.255-.062.509-.087.765zM13.42 2.22l.216-.077-.162-.026-.054.103zm-3.236 18.866a24.548 24.548 0 0 1-.421-.451l-.019-.021c.038.253.079.501.123.749l.317-.278z"/></svg>