<svg xmlns="http://www.w3.org/2000/svg" viewBox="0 0 32 32"><path d="M21.137 10.235c.036.306.068.618.098.938.259.023.532.042.783.069-.037-.311-.07-.629-.112-.926a40.422 40.422 0 0 0-.769-.082zm1.092-5.151c.114.37.225.758.334 1.162.223.036.438.075.653.113-.159-.574-.28-.957-.41-1.336l.055.187c.045.001-.168-.043-.382-.085l-.25-.041zm.938 3.943c.231.033.461.066.682.102a25.506 25.506 0 0 0-.287-1.421l.038.197a5.15 5.15 0 0 0-.468-.099l-.208-.033c.085.405.167.82.242 1.254zm-.936 4.727c-.017-.36-.047-.7-.075-1.045-.06-.012-.337-.041-.615-.068l-.191-.015c.022.353.042.714.057 1.083.281.014.555.029.823.044zm2.195 2.175c0-.197-.011-.376-.013-.57-.227-.02-.462-.041-.701-.06.003.209.009.414.009.626 0 .263-.006.519-.01.775.24-.011.473-.022.7-.035.005-.247.016-.48.016-.736zm-8.869-4.981c.174-.001.345-.004.523-.004.223 0 .426.009.644.011-.014-.314-.026-.631-.042-.948-.176-.001-.348-.005-.528-.005-.178 0-.339.008-.514.01a111.7 111.7 0 0 0-.083.936zm6.667 7.25c-.263.01-.534.018-.813.027-.021.53-.046.965-.076 1.398l.008-.147c.27-.027.537-.055.794-.085.034-.39.065-.781.086-1.192zm-.384 3.769c.055-.357.103-.733.149-1.111-.028.008-.29.037-.553.063l-.209.017a39.35 39.35 0 0 1-.144 1.343l.022-.221c.249-.027.495-.058.735-.09zm2.532-3.86c-.227.013-.463.023-.703.035a47.49 47.49 0 0 1-.063 1.05c.242-.039.471-.08.702-.121.022-.319.049-.633.064-.965zm.785-9.838c.073.366.141.743.204 1.134.326.067.639.136.94.207-.103-.54-.184-.904-.272-1.265l.038.185a11.207 11.207 0 0 0-.728-.218l-.181-.042zm-.65-2.645c.102.339.197.697.291 1.065.284.067.561.135.827.207a19.688 19.688 0 0 0-.403-1.197l.051.156a24.671 24.671 0 0 0-.766-.231zm-3.232-3.106c.138.314.278.65.413 1.007.197.031.382.067.573.102A18.5 18.5 0 0 0 21.79 2.6a6.017 6.017 0 0 0-.396-.067l-.12-.015zm5.562 11.657c-.011-.233-.031-.451-.045-.677a11.783 11.783 0 0 0-.777-.18l-.233-.041c.015.255.029.514.041.778.351.039.692.079 1.014.121zm-.456-9.471c.077.027.163.054.237.082-.196-.323-.38-.593-.55-.826.105.234.209.486.313.744zm-1.999 9.209c-.015-.314-.043-.602-.063-.903-.23-.038-.458-.076-.699-.111.02.314.039.631.054.956.242.019.477.039.708.059zm-.33 7.681c.046-.333.083-.688.122-1.038-.23.038-.465.075-.706.109-.056.529-.104.894-.156 1.257l.023-.191c.245-.043.484-.09.718-.137zm-.665-11.079c.039.296.074.599.105.908.24.033.467.069.699.105-.05-.49-.087-.798-.127-1.104l.022.207c.032-.002-.205-.043-.443-.081l-.255-.034zm.176-7.521c.132.309.264.637.395.987.199.049.4.097.59.148a15.306 15.306 0 0 0-.569-1.09l.043.082c-.144-.044-.305-.084-.458-.126zm-7.787 5.577c.127-.001.25-.004.378-.004.158 0 .309.003.463.004l-.066-1.388c-.212-.003-.422-.006-.639-.007-.047.462-.092.928-.136 1.394zm.334 19.99c.046.436.09.852.133 1.241l.049-.001.087-1.235h-.012c-.088 0-.169-.004-.257-.005zm.425-2.388c-.107.001-.211.004-.32.004-.118 0-.23-.004-.346-.004l.094.951c.138.001.265.009.405.009l.107-.002.06-.957zM26.88 15.95c0-.109-.007-.209-.009-.315-.082-.018-.43-.063-.779-.104l-.237-.023c.001.141.006.278.006.422 0 .22-.004.433-.007.647.36-.025.699-.05 1.013-.076.004-.187.013-.361.013-.552zm-.047 1.997c-.318.025-.656.05-1.016.075a56.66 56.66 0 0 1-.042.763c.356-.078.695-.159 1.018-.241.014-.2.029-.391.04-.596zM16.344 3.104h.004l-.001-.02a.123.123 0 0 0-.002.02zm.338-2.986c-.022.182-.045.395-.074.627l.425.005a10.848 10.848 0 0 0-.381-.686l.03.054zm8.895 10.806c.034.28.063.566.091.857.338.065.677.129.991.197a30.483 30.483 0 0 0-.103-.819 11.552 11.552 0 0 0-.766-.194l-.212-.041zm-9.517-5.18c.142 0 .281.003.421.004l-.06-1.208c-.08-.001-.153-.005-.233-.005l-.128 1.209zm10.271 16.795c-.321.087-.654.172-1.002.254-.047.286-.098.564-.149.837a22.3 22.3 0 0 0 .992-.305c.053-.258.109-.511.159-.786zm-5.344 8.353c-.156.024-.326.042-.486.062-.098.182-.194.354-.288.513.158-.043.314-.087.469-.135.076-.101.179-.248.306-.441zm1.407-2.782c-.214.034-.43.07-.651.1-.204.554-.363.94-.532 1.32l.06-.151c.205-.037.42-.07.616-.109.165-.346.335-.731.507-1.16zM20.941 8.773c.245.022.484.045.719.07a26.49 26.49 0 0 0-.318-1.51l.04.195a10.19 10.19 0 0 0-.511-.069l-.153-.015c.08.424.154.869.223 1.328zm4.845 16.19a27.03 27.03 0 0 1-.953.255c-.12.509-.206.827-.298 1.143l.048-.193c.32-.084.631-.171.921-.262.095-.3.19-.611.281-.944zm-4.811.946c-.181.021-.36.044-.547.062-.077.339-.159.662-.241.973.164-.016.316-.037.477-.055.105-.314.209-.636.311-.979zm.603-2.457c-.223.027-.448.052-.679.077-.052.329-.105.65-.164.961.215-.025.423-.052.631-.08.073-.311.146-.626.212-.958zm3.317 4.135c-.268.07-.541.136-.826.202-.13.362-.259.702-.39 1.02.278-.085.54-.172.789-.262.137-.283.281-.609.426-.96zm-1.65-2.021c-.228.043-.463.084-.701.123-.09.337-.182.664-.278.974.23-.038.466-.075.684-.116.101-.313.199-.636.295-.982zm.563-2.453c-.233.044-.471.085-.716.125-.057.314-.118.623-.182.922.243-.045.48-.093.711-.143.064-.296.128-.59.187-.904zm-1.521-7.187c0-.253-.014-.483-.017-.729a84.25 84.25 0 0 0-.822-.047c.004.277.009.553.009.838 0 .271-.003.534-.008.797.281-.009.553-.016.819-.027.004-.279.019-.545.019-.833zm5.384-6.843c.06.298.113.613.166.928.316.093.613.187.898.282a18.613 18.613 0 0 0-.243-1.009l.036.154a11.88 11.88 0 0 0-.723-.309l-.133-.046zm1.603 5.468c-.006-.122-.009-.249-.015-.37a30.76 30.76 0 0 0-.999-.305c.009.164.011.338.017.505.357.056.689.112.998.169zm-1.212-2.957c.028.248.059.492.083.749.343.092.672.184.977.277-.028-.238-.064-.462-.097-.69-.152-.066-.472-.18-.795-.287l-.169-.049zm-1.043-5.087c.088.288.175.581.258.89.241.082.474.164.697.248-.147-.413-.26-.695-.379-.974l.046.12a9.294 9.294 0 0 0-.517-.244l-.104-.041zm2.235 11.196c-.288.037-.614.075-.979.113-.004.106-.011.211-.015.316.353-.11.684-.222.987-.331l.008-.098zm-.154 1.665c-.294.099-.611.195-.941.293-.024.276-.056.532-.085.797.331-.124.64-.248.926-.372.036-.234.07-.471.1-.718zm1.196 1.723c-.017.098-.039.191-.057.287.353-.241.66-.485.95-.749l-.007.006c-.264.147-.562.3-.886.456zm-2.314 3.113c-.183.075-.372.149-.568.222-.072.307-.149.593-.225.878.16-.067.3-.134.446-.199.118-.284.234-.585.347-.9zm.707-2.426c-.263.1-.538.198-.826.296-.034.219-.067.44-.105.649.278-.12.538-.24.781-.359.049-.196.102-.382.15-.587zm2.784-1.306a.054.054 0 0 0-.013.007l.009.007.004-.014zm-.756-5.626c.269.062.509.121.726.178a20.284 20.284 0 0 0-.73-.314l.004.136zm-1.41 1.178a12.06 12.06 0 0 0-.758-.143l-.237-.033c0 .036.003.067.003.103 0 .144-.009.273-.01.415.38-.042.71-.08.997-.119.001-.077.006-.146.006-.223zm2.523.604a15.939 15.939 0 0 0-.847-.235l.169.602c.295-.148.517-.27.677-.367zm.134 1.56c-.359.186-.81.399-1.36.625-.016.169-.025.349-.044.514.701-.39 1.148-.712 1.37-.887.013-.085.023-.169.034-.252zm-1.739 5.331c.106-.198.212-.4.311-.604-.23.144-.484.293-.762.444-.067.235-.137.454-.209.675a6.14 6.14 0 0 0 .66-.515zm-.633-15.606c.053.165.107.322.159.494.234.114.451.226.653.336-.057-.113-.113-.227-.174-.339a7.707 7.707 0 0 0-.613-.475l-.025-.016zm.613 2.382c.04.199.084.39.121.597.445.189.823.372 1.143.537-.034-.115-.067-.23-.104-.344a9.397 9.397 0 0 0-1.115-.766l-.045-.024zm1.7 3.045l-.018.023c-.014-.011-.426-.332-1.32-.773.019.17.029.355.045.53.535.199.982.386 1.345.553a9.482 9.482 0 0 0-.064-.411l.011.077zM17.921 5.786c.329.014.651.032.968.052a25.531 25.531 0 0 0-.386-1.431l.056.218c-.235-.015-.457-.039-.7-.05l.061 1.21zm.069 1.441l.066 1.373c.483.016.953.037 1.408.063a31.068 31.068 0 0 0-.289-1.586l.04.226a32.694 32.694 0 0 0-1.136-.073l-.089-.003zm1.98 11.032c-.523.011-1.073.018-1.641.025-.009.454-.021.923-.037 1.407a50.243 50.243 0 0 0 1.599-.088c.03-.436.058-.88.079-1.344zM17.786 3.138c.095.004.192.006.284.011a17.807 17.807 0 0 0-.383-1.006l.054.147.045.848zm2.235 12.85c0-.311-.013-.598-.017-.9a94.763 94.763 0 0 0-1.693-.045 92.623 92.623 0 0 1 .032 1.805c.578-.006 1.134-.015 1.662-.025.004-.28.015-.545.015-.835zm5.635 4.292c-.032.331-.068.654-.105.971.357-.093.695-.188 1.02-.286.039-.292.07-.601.101-.91a41.16 41.16 0 0 1-1.016.225zm-5.548 8.12c-.115.011-.234.019-.35.029-.184.581-.33.987-.486 1.388l.056-.163c.078-.008.146-.019.224-.028.182-.371.367-.771.557-1.226zm.884-22.372a23.485 23.485 0 0 0-.437-1.386l.057.187a25.11 25.11 0 0 0-.507-.062c.105.38.205.78.304 1.2.195.019.392.039.583.062zm-1.581 17.631c-.42.029-.853.052-1.296.072l-.053.97c.487-.02.894-.044 1.299-.074l-.127.008c.062-.314.121-.641.178-.975zm-1.218 4.868l-.373.013-.083 1.186c.149-.359.301-.755.456-1.199zm1.379-26.22c-.087-.008-.182-.011-.27-.018.116.304.232.63.347.977l.378.04c-.192-.46-.345-.789-.506-1.112l.051.113zm.19 18.745c-.494.033-.999.06-1.523.079-.032.844-.05 1.247-.07 1.65l.019-.491a40.588 40.588 0 0 0 1.586-.099l-.144.01a45.9 45.9 0 0 0 .132-1.148zm-1.786 5.087c-.019.331-.04.651-.06.959.251-.009.494-.022.735-.036.087-.311.175-.628.259-.97-.304.019-.616.034-.934.047zm.74 5l-.017.001-.062.126c.024-.038.053-.088.079-.128zm7.952-4.09l-.021.009-.029.08.05-.088zM20.559.549c-.11-.032-.223-.065-.334-.095.093.158.189.326.287.507l.37.046c-.127-.191-.234-.34-.344-.487l.02.028zm-.594 13.102c-.018-.393-.044-.771-.069-1.146a45.967 45.967 0 0 0-1.581-.084l-.096-.003c.016.407.032.804.044 1.188.588.011 1.154.025 1.701.044zM18.744.81a10.374 10.374 0 0 0-.281-.429l.028.043c.06.121.122.248.185.382l.067.004zm-.624 9.227l.042.942c.556.019 1.086.049 1.609.082-.032-.317-.062-.643-.1-.944a43.41 43.41 0 0 0-1.462-.077l-.089-.003zM4.636 9.091c-.304.125-.588.251-.854.376-.07.265-.14.53-.203.813.283-.093.58-.184.893-.274.053-.309.105-.623.164-.915zm8.448 20.581a15.758 15.758 0 0 1-.359-1.087l-.046-.179-.408-.042c.181.472.359.89.535 1.275.095.011.18.024.278.033zM5.408 16.051c0 .135.008.254.009.385.312.034.649.067 1.017.099-.002-.168-.006-.332-.006-.503 0-.169.004-.331.006-.498-.354.041-.691.081-1.015.124-.001.133-.01.258-.01.392zm6.672 9.92c-.304-.03-.511-.054-.717-.082l.113.012c.091.334.185.648.281.955.174.021.35.042.53.06a11.802 11.802 0 0 1-.172-.747l-.035-.199zm-.409-2.411c-.437-.04-.695-.069-.953-.099l.201.019c.06.319.126.622.192.923.229.032.463.061.7.088a33.81 33.81 0 0 1-.14-.932zm2.613 1.135l-.085-.963a48.696 48.696 0 0 1-1.062-.053c.047.329.099.647.151.956.325.024.658.044.996.06zm.137 1.441a37.92 37.92 0 0 1-.963-.05l.115.006c.072.331.146.649.222.95.241.015.47.038.72.048l-.094-.954zm-.429-5.008c-.478-.018-.878-.04-1.276-.067l.125.007c.033.398.07.787.11 1.159.235.019.626.043 1.019.062l.11.004c-.031-.392-.06-.781-.088-1.164zm-.421 10.012c.163.282.309.518.428.697-.076-.14-.186-.367-.29-.597l-.038-.094a1.692 1.692 0 0 0-.094-.007h-.006zm-2.444-1.716c-.11-.245-.27-.661-.419-1.082l-.054-.175a34.598 34.598 0 0 1-.863-.142c.184.474.367.888.544 1.261.253.049.521.093.793.138zm-3.488-3.349a11.536 11.536 0 0 1-.198-.74l-.038-.185a25.537 25.537 0 0 1-.889-.245c.092.326.187.633.283.927.268.083.548.164.842.243zm-1.027-5.873a24.657 24.657 0 0 1-1.215-.291l.206.047c.034.334.072.659.113.974.319.099.653.195 1.002.289a20.35 20.35 0 0 1-.092-.834l-.014-.185zm-1.114 6.734c.146.258.286.494.423.702a23.3 23.3 0 0 1-.247-.644l-.176-.059zm1.005-8.252a24.76 24.76 0 0 1-.032-.62l-.003-.087c-.572-.046-.923-.08-1.273-.117l.254.022c.009.187.024.357.035.54.324.09.665.177 1.019.263zm.564 4.872a8.482 8.482 0 0 1-.105-.566l-.03-.22a21.508 21.508 0 0 1-1.145-.297l.174.043c.047.256.1.496.151.74.305.104.623.204.955.3zm7.728 6.217c-.043-.392-.087-.809-.133-1.244l-.451-.018c.149.469.297.888.441 1.261.047-.001.098-.001.143.001zm-5.218-5.619a35.389 35.389 0 0 1-.164-.886 26.433 26.433 0 0 1-1.157-.2l.19.031c.053.3.113.575.171.855.311.07.629.136.96.199zm-1.003 4.712c-.103-.232-.252-.62-.39-1.014l-.049-.16c-.245-.057-.474-.117-.705-.177.188.435.374.829.55 1.162.192.065.383.128.594.189zm1.594-2.239a9.579 9.579 0 0 1-.198-.704l-.053-.241a27.56 27.56 0 0 1-1.146-.207l.209.036c.088.331.179.644.271.945.297.061.601.118.916.172zm1.381 4.732c.189.056.379.11.571.16a9.34 9.34 0 0 1-.242-.447l-.045-.097c-.204-.025-.413-.049-.61-.078.139.21.248.364.326.463zM.198 13.55c.375-.179.871-.383 1.379-.565l.124-.039c.014-.131.022-.268.037-.396-.832.388-1.325.7-1.51.827-.011.059-.022.116-.03.174zm15.153.049c.331-.003.646-.009.988-.009l.49.002-.045-1.201c-.236-.003-.46-.012-.702-.012-.222 0-.425.008-.641.01-.034.418-.063.822-.089 1.21zM2.649 8.162a9.946 9.946 0 0 0-.985.791c.267-.161.565-.329.89-.496.03-.104.065-.194.095-.295zm12.349-5.949l-.041.001a29.1 29.1 0 0 0-.334.921c.09-.004.182-.004.273-.007l.102-.914zM.175 18.191c.2.171.698.565 1.538 1.047-.021-.198-.034-.41-.051-.616a17.439 17.439 0 0 1-1.621-.798l.093.048c.012.105.026.211.04.319zM.06 15.2l-.023-.037-.001.044c.01-.002.018-.005.026-.008L.06 15.2zm2.633 8.842a8.863 8.863 0 0 1-.187-.602l-.037-.153a16.132 16.132 0 0 1-1.016-.581l.074.043c.118.252.241.499.372.743.126.101.384.296.794.55zm-.701-13.184c.029-.158.062-.306.093-.46-.733.471-1.165.853-1.342 1.025.301-.158.712-.347 1.131-.521l.118-.043zm.032 10.49c-.022-.116-.047-.223-.068-.341a16 16 0 0 1-1.419-.785l.071.041.005.018v-.001c.197.186.657.583 1.411 1.068zm-.47-4.375l.015-.032c-.006-.207-.015-.41-.016-.623-.334.075-.63.144-.869.204.237.136.535.289.87.451zm1.464-2.413c.311-.054.644-.108.997-.162.009-.225.02-.448.034-.667-.534.138-.867.235-1.197.338l.201-.054c-.011.181-.025.359-.034.545zm.999 3.41c-.004-.084-.003-.177-.006-.263-.455-.063-.792-.12-1.127-.185l.135.022.002.064c.309.121.641.241.995.362zm.594-10.989c-.085.206-.169.433-.253.657.22-.087.451-.171.687-.255.067-.246.136-.481.207-.713-.225.104-.438.207-.642.312zm-1.408 5.488c.301-.086.621-.171.96-.255.022-.216.053-.412.078-.621-.487.15-.807.26-1.123.377l.161-.052c-.013.059-.04.248-.065.437l-.012.115zm-.223 3.609c.26.055.588.113.999.177-.001-.07-.005-.133-.005-.203 0-.065.004-.123.005-.188-.357.056-.69.112-1 .168l.001.047zm1.23 4.334a35.54 35.54 0 0 1-.088-.876 28.916 28.916 0 0 1-.971-.326c.032.282.075.542.114.81.293.131.608.263.944.392zm.907 4.832c-.08-.286-.16-.573-.235-.882a15.253 15.253 0 0 1-.777-.302l.13.048c.111.319.225.62.342.908.171.076.349.151.54.228zm-.586-2.587a6.02 6.02 0 0 1-.081-.442l-.024-.179a20.393 20.393 0 0 1-1.036-.377l.179.062c.042.194.088.376.134.561.258.125.533.25.827.375zm-2.955-7.822c.004-.103.004-.21.009-.311-.772.302-1.228.542-1.409.644.36-.096.818-.21 1.401-.334zm12.251.221c-.39.009-.773.02-1.146.033-.012.461-.027.917-.027 1.401 0 .116.002.227.003.344.366.007.74.014 1.131.018l-.002-.309c0-.523.015-1.042.044-1.558l-.003.072zm.786-9.295l.126-1.195c-.188.007-.387.006-.57.016-.108.38-.215.783-.319 1.207.25-.011.506-.02.763-.028zm-.617 6.651c-.413.013-.798.036-1.19.056-.029.38-.047.786-.068 1.183.384-.013.77-.025 1.172-.034.025-.387.055-.79.086-1.205zm-.727-3.771c.346-.017.7-.032 1.061-.044.044-.466.09-.933.136-1.394-.393.013-.721.029-1.048.048l.105-.005c-.049.194-.138.667-.219 1.142l-.036.252zm-2.412.183c.303-.031.613-.059.929-.085.075-.48.157-.935.241-1.378-.305.03-.603.064-.894.1a19.4 19.4 0 0 0-.247 1.172l-.029.191zm3.338 1.214c-.394.014-.763.039-1.139.06-.039.301-.076.603-.111.918.26-.014.667-.03 1.075-.042l.093-.002.082-.934zm-2.69-4.067c.271-.029.548-.056.83-.08.095-.413.194-.803.294-1.179-.265.029-.517.066-.771.101-.071.184-.191.57-.304.959l-.049.198zm-.096-4.855c.147-.022.292-.045.443-.066.129-.248.253-.472.372-.676-.115.028-.229.058-.344.089a8.492 8.492 0 0 0-.471.653zm1.012 2.173c.205-.022.425-.035.637-.054.105-.326.209-.627.313-.916-.193.017-.368.043-.554.063-.131.278-.262.58-.396.906zm1.476 16.397a83.192 83.192 0 0 1-.071-1.399c-.395-.004-.773-.011-1.144-.017.014.461.032.912.055 1.345.382.025.761.053 1.159.071zm2.318 5.054c.138 0 .27-.004.405-.005l.055-.971c-.197.002-.392.006-.595.006-.148 0-.289-.004-.434-.005.028.324.057.646.087.968.162.003.319.006.483.006zM13.615.865c.111-.009.225-.015.339-.023.136-.314.265-.601.384-.842l-.166.022c-.13.174-.324.458-.557.843zm2.465 21.472c.227 0 .446-.004.667-.008.018-.39.037-.778.052-1.164-.232.003-.463.006-.703.006-.225 0-.441-.004-.661-.008.028.384.058.773.09 1.167.186.002.367.006.555.006zm-.854-6.191a24.17 24.17 0 0 0-.001.715 169.998 169.998 0 0 0 1.683 0c0-.264-.001-.519-.007-.757a102.55 102.55 0 0 0-.026-1.077c-.179-.001-.354-.003-.536-.003-.371 0-.715.007-1.072.01-.016.289-.03.677-.039 1.066l-.001.046zm.869 3.59c.263 0 .503-.011.76-.014.015-.492.028-.969.038-1.426l-.945.002-.683-.002c.019.451.045.929.075 1.424.253.004.494.017.756.017zM9.949 6.173c.098-.38.198-.743.302-1.091-.264.052-.537.1-.789.159-.116.34-.229.695-.339 1.073.269-.05.545-.096.827-.14zM9.51 1.475l.119-.217c-.322.135-.404.173-.486.211l.236-.098.1.1-.013.014.043-.009zm7.078 30.524c.105-.159.26-.412.456-.781-.215.005-.421.014-.643.015l.087.767c.034.001.066 0 .1-.001zM11.361 12.56c-.327.026-.664.048-.975.078-.028.37-.057.734-.075 1.121.315-.019.655-.033.985-.048.019-.39.039-.777.065-1.151zm-3.6-8.371c.189-.055.392-.104.59-.156.116-.31.233-.601.35-.877-.166.047-.322.095-.479.143-.149.266-.303.562-.461.89zm1.424 17.577a20.856 20.856 0 0 1-.113-.922l-.016-.181a26.11 26.11 0 0 1-1.165-.194l.2.031c.038.363.073.733.118 1.076.315.067.641.13.976.189zM6.706 6.862c.266-.074.539-.145.822-.214.085-.327.172-.646.263-.949-.263.081-.527.164-.772.25-.106.29-.211.592-.313.913zm2.221 12.316c-.023-.34-.043-.685-.058-1.04a70.493 70.493 0 0 1-1.168-.065l.207.011c.014.318.04.613.06.919.314.06.627.12.959.175zM6.007 9.61c.303-.07.613-.138.938-.204.067-.404.14-.791.217-1.167-.315.086-.618.175-.908.267a28.25 28.25 0 0 0-.246 1.104zm.636 2.081c.026-.255.053-.509.082-.756-.339.075-.669.151-.979.23-.033.23-.061.471-.09.711.314-.063.646-.125.987-.184zm1.22 4.341c0 .212.011.404.014.612.302.019.619.039.952.056-.004-.245-.009-.486-.009-.735 0-.225.005-.442.008-.662-.331.027-.639.056-.95.085-.003.217-.015.42-.015.644zM5.903 4.817c.105-.262.211-.518.316-.754a12.36 12.36 0 0 0-.563.851l.247-.097zm5.593 17.278a25.874 25.874 0 0 1-.094-.985l-.011-.161a34.818 34.818 0 0 1-.858-.091c.044.387.089.771.142 1.137.268.036.541.069.821.1zm-.201-2.607a43.703 43.703 0 0 1-.047-1.177l-.002-.079c-.321-.01-.634-.019-.934-.031.019.409.05.8.08 1.191.29.037.601.063.903.095zm-2.15-8.997c-.32.047-.626.099-.927.151-.037.263-.065.542-.096.816.301-.042.61-.082.928-.121.029-.287.061-.57.095-.847zm-3.691 3.707c.323-.042.666-.08 1.017-.118.014-.306.03-.606.049-.901-.585.104-.925.174-1.263.248l.258-.047c-.021.274-.047.535-.06.819zm5.168-3.9c-.039.284-.068.59-.101.886.316-.029.639-.055.971-.079.031-.303.06-.609.095-.9-.326.029-.654.057-.965.093zm-.367 5.666c0 .277.014.531.017.8.307.012.621.022.95.032-.001-.104-.003-.202-.003-.309 0-.462.015-.895.025-1.338-.329.017-.659.033-.973.052-.003.258-.017.499-.017.763zm-2.34-2.026c.311-.028.621-.056.951-.08.015-.359.034-.711.057-1.055-.326.042-.632.087-.939.133-.024.331-.052.656-.069 1.002zm2.161-10.296c.23-.044.456-.088.695-.128.117-.316.235-.613.352-.896-.214.037-.425.074-.629.114-.136.278-.276.581-.418.91zm-1.615 5.49c.291-.046.591-.09.896-.132.075-.453.157-.887.242-1.307-.299.052-.591.108-.874.167-.093.408-.183.829-.265 1.272z"/></svg>