<svg xmlns="http://www.w3.org/2000/svg" viewBox="0 0 32 32"><path d="M1.239 22.169c.871-7.127 4.504-9.413 7.757-11.438C12.317 8.662 15.19 6.85 14.844.04a15.88 15.88 0 0 0-4.539 1.001l.109-.037c.145 5.404-2.415 7.007-4.9 8.554C2.89 11.192.412 12.736.257 18.829c.208 1.16.537 2.28.982 3.339z"/><path d="M4.758 8.344c2.315-1.443 4.188-2.624 4.23-6.725A16.072 16.072 0 0 0 .46 12.205c1.167-1.91 2.789-2.922 4.298-3.861zm.423 19.433c.564-7.596 3.897-10.246 7.128-12.813 3.511-2.788 6.829-5.429 6.642-14.696A15.436 15.436 0 0 0 16.286 0h-.013c.371 7.628-3.125 9.83-6.52 11.945-3.44 2.143-6.99 4.367-7.264 12.608a16.27 16.27 0 0 0 2.681 3.215l.011.01zm17.136-8.351c3.207-2.574 6.232-5.023 6.07-13.563a16.257 16.257 0 0 0-2.915-2.762l-.045-.031c-.045 9.33-3.672 12.246-7.187 15.067-3.308 2.655-6.431 5.167-6.66 13.247 1.319.379 2.707.595 4.14.62.377-7.565 3.533-10.118 6.596-12.577zm5.375 3.338c-2.297 1.399-4.289 2.627-4.52 7.548 4.404-2.213 7.65-6.397 8.574-11.39-1.032 1.999-2.596 2.955-4.054 3.843z"/><path d="M26.948 21.543c2.46-1.5 4.784-2.915 4.501-9.495l.074-.003a15.828 15.828 0 0 0-1.769-4.242l.04.072c-.338 7.634-3.502 10.198-6.58 12.668-2.928 2.348-5.691 4.586-6.057 11.421a15.91 15.91 0 0 0 4.667-1.046l-.108.037c.087-6.278 2.819-7.943 5.231-9.412zm-9.601-4.523c3.517-2.821 6.839-5.493 6.645-14.886A15.536 15.536 0 0 0 20.504.635l-.113-.028c.102 9.688-3.604 12.63-7.191 15.478-3.267 2.594-6.35 5.058-6.644 12.823a15.79 15.79 0 0 0 3.512 1.957l.108.038c.353-8.389 3.815-11.189 7.172-13.883z"/></svg>